<?xml version="1.0" encoding="utf-8"?>
<!-- Generator: Adobe Illustrator 25.4.1, SVG Export Plug-In . SVG Version: 6.00 Build 0)  -->
<svg version="1.1" id="SUN_DECK_05" xmlns="http://www.w3.org/2000/svg" xmlns:xlink="http://www.w3.org/1999/xlink" x="0px"
	 y="0px" width="114.7px" height="861.2px" viewBox="0 0 114.7 861.2" style="enable-background:new 0 0 114.7 861.2;"
	 xml:space="preserve">
<style type="text/css">
	.st0{fill:#FFFFFF;}
	.st1{fill:none;stroke:#D5DCE0;stroke-width:0.5;}
	.st2{fill:#6E8496;}
	.st3{fill:#EFF2F5;stroke:#FFFFFF;stroke-width:0.5;stroke-miterlimit:10;}
	.st4{fill:none;stroke:#EFF2F5;stroke-width:0.5;stroke-miterlimit:10;stroke-dasharray:2,2;}
	.st5{fill:none;}
	.st6{fill:none;stroke:#076FA0;stroke-miterlimit:10;}
</style>
<g id="SUN_DECK_05_BOTTOM">
	<path class="st0" d="M57.4,860.7c24,0,56.8-3.8,56.8-13.8s0-594,0-660c0-97-41-171.3-48.5-181.4c-2.9-3.9-5.8-5.1-8.3-5.1
		c-2.5,0-5.4,1.2-8.3,5.1C41.5,15.6,0.5,89.9,0.5,186.9c0,66,0,650,0,660S33.4,860.7,57.4,860.7z"/>
	<line class="st1" x1="50.7" y1="311.3" x2="55.2" y2="306.9"/>
	<line class="st1" x1="55.2" y1="311.3" x2="50.7" y2="306.9"/>
	<polyline class="st1" points="45.4,250.4 53.4,260.7 45.4,270.8 	"/>
	<polyline class="st1" points="53.7,250.7 45.4,260.7 53.4,270.8 	"/>
	<polyline class="st1" points="69.5,250.4 61.5,260.7 69.5,270.8 	"/>
	<polyline class="st1" points="61.3,250.7 69.5,260.7 61.5,270.8 	"/>
	<line class="st1" x1="63.8" y1="311.3" x2="59.4" y2="306.9"/>
	<line class="st1" x1="59.4" y1="311.3" x2="63.8" y2="306.9"/>
	<line class="st1" x1="50.7" y1="332.4" x2="55.2" y2="336.8"/>
	<line class="st1" x1="55.2" y1="332.4" x2="50.7" y2="336.8"/>
	<line class="st1" x1="63.8" y1="332.4" x2="59.4" y2="336.8"/>
	<line class="st1" x1="59.4" y1="332.4" x2="63.8" y2="336.8"/>
	<line class="st1" x1="41.8" y1="681.9" x2="49.6" y2="692.2"/>
	<line class="st1" x1="41.8" y1="692.2" x2="49.6" y2="681.9"/>
	<line class="st1" x1="49.5" y1="681.9" x2="57.3" y2="692.2"/>
	<line class="st1" x1="49.5" y1="692.2" x2="57.3" y2="681.9"/>
	<line class="st1" x1="72.7" y1="681.9" x2="64.9" y2="692.2"/>
	<line class="st1" x1="72.7" y1="692.2" x2="64.9" y2="681.9"/>
	<line class="st1" x1="65.1" y1="681.9" x2="57.3" y2="692.2"/>
	<line class="st1" x1="65.1" y1="692.2" x2="57.3" y2="681.9"/>
	<path class="st1" d="M55.3,306.8v-6c0,0-1.7-0.2-4.8,1c0,0.2,0,5,0,5c-0.7,0.6-1.1,1.6-1.1,2.6c0,2,1.6,3.5,3.5,3.5
		c2,0,3.5-1.6,3.5-3.5C56.4,308.3,56,307.4,55.3,306.8z"/>
	<path class="st1" d="M59.3,306.8v-6.1c0,0,2.6,0.1,4.8,1c0,0.6,0,5.1,0,5.1c0.7,0.6,1.1,1.6,1.1,2.6c0,2-1.6,3.5-3.5,3.5
		c-2,0-3.5-1.6-3.5-3.5C58.1,308.3,58.6,307.4,59.3,306.8z"/>
	<path class="st1" d="M55.3,336.9v5.5c0,0-2.2,0-4.8-1c0-0.8,0-4.5,0-4.5c-0.7-0.6-1.1-1.6-1.1-2.6c0-2,1.6-3.5,3.5-3.5
		c2,0,3.5,1.6,3.5,3.5C56.4,335.4,56,336.3,55.3,336.9z"/>
	<path class="st1" d="M64.1,341.6v-4.7c0.7-0.6,1.1-1.6,1.1-2.6c0-2-1.6-3.5-3.5-3.5c-2,0-3.5,1.6-3.5,3.5c0,1,0.4,1.9,1.1,2.6v5.7"
		/>
	<polyline class="st1" points="32.3,706.1 37.1,706.1 41.8,706.1 	"/>
	<line class="st1" x1="32.3" y1="708.1" x2="41.8" y2="708.1"/>
	<line class="st1" x1="32.3" y1="710.1" x2="41.8" y2="710.1"/>
	<line class="st1" x1="32.3" y1="712.1" x2="41.8" y2="712.1"/>
	<line class="st1" x1="32.3" y1="714.1" x2="41.8" y2="714.1"/>
	<line class="st1" x1="32.3" y1="716.1" x2="41.8" y2="716.1"/>
	<line class="st1" x1="32.3" y1="718.1" x2="41.8" y2="718.1"/>
	<line class="st1" x1="32.3" y1="720.1" x2="41.8" y2="720.1"/>
	<line class="st1" x1="37.1" y1="706.1" x2="37.1" y2="722.3"/>
	<line class="st1" x1="41.8" y1="722.2" x2="41.8" y2="730.1"/>
	<line class="st1" x1="43.8" y1="722.2" x2="43.8" y2="730.1"/>
	<polyline class="st1" points="45.8,722.2 45.8,726.2 45.8,730.1 	"/>
	<line class="st1" x1="41.8" y1="726.2" x2="47.7" y2="726.2"/>
	<polyline class="st1" points="82.2,706.1 77.5,706.1 72.7,706.1 	"/>
	<line class="st1" x1="82.2" y1="708.1" x2="72.7" y2="708.1"/>
	<line class="st1" x1="82.2" y1="710.1" x2="72.7" y2="710.1"/>
	<line class="st1" x1="82.2" y1="712.1" x2="72.7" y2="712.1"/>
	<line class="st1" x1="82.2" y1="714.1" x2="72.7" y2="714.1"/>
	<line class="st1" x1="82.2" y1="716.1" x2="72.7" y2="716.1"/>
	<line class="st1" x1="82.2" y1="718.1" x2="72.7" y2="718.1"/>
	<line class="st1" x1="82.2" y1="720.1" x2="72.7" y2="720.1"/>
	<line class="st1" x1="32.3" y1="722.1" x2="41.8" y2="722.1"/>
	<line class="st1" x1="82.2" y1="722.1" x2="72.7" y2="722.1"/>
	<line class="st1" x1="77.5" y1="706.1" x2="77.5" y2="722.3"/>
	<line class="st1" x1="72.7" y1="722.2" x2="72.7" y2="730.1"/>
	<line class="st1" x1="70.7" y1="722.2" x2="70.7" y2="730.1"/>
	<polyline class="st1" points="68.7,722.2 68.7,726.2 68.7,730.1 	"/>
	<line class="st1" x1="72.7" y1="726.2" x2="66.8" y2="726.2"/>
	<polyline class="st1" points="79.3,507.5 88.6,507.5 88.6,520.1 	"/>
	<line class="st1" x1="79.3" y1="512.4" x2="98.2" y2="512.4"/>
	<line class="st1" x1="79.3" y1="514.9" x2="98.2" y2="514.9"/>
	<line class="st1" x1="79.3" y1="510" x2="98.2" y2="510"/>
	<line class="st1" x1="79.3" y1="517.4" x2="98.2" y2="517.4"/>
	<line class="st1" x1="79.3" y1="519.9" x2="98.2" y2="519.9"/>
	<path class="st1" d="M42.6,327.1c4.3-2.6,9.3-4,14.7-4"/>
	<path class="st1" d="M45.3,331.9c3.5-2.1,7.6-3.3,12-3.3"/>
	<line class="st1" x1="41.6" y1="325.3" x2="46.6" y2="333.8"/>
	<line class="st1" x1="44.5" y1="326.1" x2="46.8" y2="331"/>
	<line class="st1" x1="46.5" y1="325.2" x2="48.4" y2="330.3"/>
	<line class="st1" x1="48.5" y1="324.5" x2="50.1" y2="329.7"/>
	<line class="st1" x1="50.6" y1="323.9" x2="51.7" y2="329.2"/>
	<line class="st1" x1="52.7" y1="323.5" x2="53.5" y2="328.8"/>
	<path class="st1" d="M71.9,327.1c-4.3-2.6-9.3-4-14.7-4"/>
	<path class="st1" d="M69.2,331.9c-3.5-2.1-7.6-3.3-12-3.3"/>
	<line class="st1" x1="73" y1="325.3" x2="67.9" y2="333.8"/>
	<line class="st1" x1="70.1" y1="326.1" x2="67.7" y2="331"/>
	<line class="st1" x1="68.1" y1="325.2" x2="66.1" y2="330.3"/>
	<line class="st1" x1="66.1" y1="324.5" x2="64.5" y2="329.7"/>
	<line class="st1" x1="64" y1="323.9" x2="62.8" y2="329.2"/>
	<line class="st1" x1="61.9" y1="323.5" x2="61.1" y2="328.8"/>
	<circle class="st1" cx="57.3" cy="326" r="2.8"/>
	<path class="st1" d="M78.5,321.6c0,11.6-9.4,21-21,21c-11.6,0-21-9.4-21-21s9.4-21,21-21C69.1,300.5,78.5,309.9,78.5,321.6z"/>
	<path class="st1" d="M51.2,240.5c0.3,0,0.5-0.3,0.5-0.6"/>
	<line class="st1" x1="45.4" y1="240.5" x2="51.2" y2="240.5"/>
	<line class="st1" x1="51.7" y1="239.9" x2="51.7" y2="237.5"/>
	<line class="st1" x1="51.7" y1="237.5" x2="63.1" y2="237.5"/>
	<path class="st1" d="M63.1,239.9c0,0.3,0.2,0.6,0.5,0.6"/>
	<line class="st1" x1="63.1" y1="237.5" x2="63.1" y2="239.9"/>
	<line class="st1" x1="63.6" y1="240.5" x2="69.4" y2="240.5"/>
	<line class="st1" x1="57.3" y1="226.2" x2="57.3" y2="240.7"/>
	<line class="st1" x1="57.5" y1="226.2" x2="57.5" y2="240.7"/>
	<line class="st1" x1="45.7" y1="226.9" x2="57.3" y2="226.9"/>
	<line class="st1" x1="57.3" y1="240.7" x2="57.5" y2="240.7"/>
	<line class="st1" x1="57.3" y1="226.2" x2="57.5" y2="226.2"/>
	<line class="st1" x1="57.5" y1="226.9" x2="69.5" y2="226.9"/>
	<line class="st1" x1="57.5" y1="228.5" x2="62.6" y2="228.5"/>
	<line class="st1" x1="57.5" y1="230" x2="62.6" y2="230"/>
	<line class="st1" x1="57.5" y1="231.5" x2="62.6" y2="231.5"/>
	<line class="st1" x1="57.5" y1="233.1" x2="62.6" y2="233.1"/>
	<line class="st1" x1="57.5" y1="234.6" x2="62.6" y2="234.6"/>
	<line class="st1" x1="57.5" y1="236.1" x2="62.6" y2="236.1"/>
	<line class="st1" x1="57.5" y1="239.2" x2="63.1" y2="239.2"/>
	<line class="st1" x1="52.2" y1="228.5" x2="57.3" y2="228.5"/>
	<line class="st1" x1="52.2" y1="230" x2="57.3" y2="230"/>
	<line class="st1" x1="52.2" y1="231.5" x2="57.3" y2="231.5"/>
	<line class="st1" x1="52.2" y1="233.1" x2="57.3" y2="233.1"/>
	<line class="st1" x1="52.2" y1="234.6" x2="57.3" y2="234.6"/>
	<line class="st1" x1="52.2" y1="236.1" x2="57.3" y2="236.1"/>
	<line class="st1" x1="51.7" y1="239.2" x2="57.3" y2="239.2"/>
	<line class="st1" x1="69.5" y1="238.9" x2="63.5" y2="238.9"/>
	<line class="st1" x1="69.4" y1="237.4" x2="62.9" y2="237.4"/>
	<line class="st1" x1="69.6" y1="235.9" x2="63.5" y2="235.9"/>
	<line class="st1" x1="69.4" y1="234.4" x2="63.5" y2="234.4"/>
	<line class="st1" x1="51.7" y1="238.9" x2="45.6" y2="238.9"/>
	<line class="st1" x1="51.8" y1="237.4" x2="45.5" y2="237.4"/>
	<line class="st1" x1="51.3" y1="235.9" x2="45.5" y2="235.9"/>
	<line class="st1" x1="51.3" y1="234.4" x2="45.5" y2="234.4"/>
	<path class="st1" d="M63.6,226c0-0.3-0.2-0.6-0.5-0.6c-0.3,0-0.5,0.3-0.5,0.6l0,0"/>
	<line class="st1" x1="62.7" y1="226" x2="62.7" y2="226.2"/>
	<line class="st1" x1="63.6" y1="226" x2="63.6" y2="226.2"/>
	<path class="st1" d="M52.2,226c0-0.3-0.2-0.6-0.5-0.6c-0.3,0-0.5,0.3-0.5,0.6l0,0"/>
	<line class="st1" x1="51.3" y1="226" x2="51.3" y2="226.2"/>
	<line class="st1" x1="52.2" y1="226" x2="52.2" y2="226.2"/>
	<line class="st1" x1="63.1" y1="226.2" x2="63.1" y2="237.4"/>
	<line class="st1" x1="69.4" y1="231.4" x2="63.5" y2="231.4"/>
	<line class="st1" x1="69.4" y1="229.9" x2="63.5" y2="229.9"/>
	<line class="st1" x1="69.3" y1="228.4" x2="63.5" y2="228.4"/>
	<line class="st1" x1="69.4" y1="232.9" x2="63.5" y2="232.9"/>
	<line class="st1" x1="51.7" y1="226.2" x2="51.7" y2="237.6"/>
	<line class="st1" x1="51.3" y1="231.4" x2="45.6" y2="231.4"/>
	<line class="st1" x1="51.3" y1="229.9" x2="45.6" y2="229.9"/>
	<line class="st1" x1="51.3" y1="228.4" x2="45.6" y2="228.4"/>
	<line class="st1" x1="51.3" y1="232.9" x2="45.4" y2="232.9"/>
	<polyline class="st1" points="45.3,250.6 53.7,250.6 53.7,270.9 45.3,270.9 	"/>
	<polygon class="st1" points="78.7,281 69.5,281 69.5,250.6 88.5,250.6 88.5,272.7 83.5,272.7 	"/>
	<polyline class="st1" points="69.5,250.6 61.3,250.6 61.3,270.9 69.5,270.9 	"/>
	<line class="st1" x1="88.5" y1="260.6" x2="61.3" y2="260.6"/>
	<line class="st1" x1="45" y1="250.4" x2="26.2" y2="250.4"/>
	<line class="st1" x1="53.8" y1="260.6" x2="45.1" y2="260.6"/>
	<path class="st1" d="M53.7,270.9v13.5c-6.7,0.9-12.4,4.6-12.4,4.6l-10.8-17.9"/>
	<path class="st1" d="M78.9,280.7l-5,8.3c0,0-5.9-3.7-12.5-4.6v-13.5"/>
	<polyline class="st1" points="78.7,250.3 78.7,272.8 83.5,272.8 	"/>
	<path class="st1" d="M114.2,359.4H82.9v-3.9h-9.4c0,0-4.6,2.7-9.3,4l0,20.6h1.6v22.2h20.8v-29l27.5-0.2L114.2,359.4L114.2,359.4z"
		/>
	<path class="st1" d="M98.3,509.8v14.1l-19,0c0,0,0-23.4,0-24.4s-0.7-1.5-1.5-1.5c-0.8,0-8.5,0-8.5,0v10.7H45.3V498c0,0-6.8,0-7.7,0
		c-0.8,0-1.5,0.5-1.5,1.5s0,4.2,0,4.2H0.5"/>
	<line class="st1" x1="114.1" y1="503.7" x2="88.6" y2="503.7"/>
	<polygon class="st1" points="57.3,692.2 72.7,692.2 72.7,681.9 57.3,681.9 41.8,681.9 41.8,692.2 	"/>
	<line class="st1" x1="57.3" y1="681.9" x2="57.3" y2="692.2"/>
	<line class="st1" x1="49.6" y1="681.9" x2="49.6" y2="692.2"/>
	<line class="st1" x1="64.9" y1="681.9" x2="64.9" y2="692.2"/>
	<line class="st1" x1="113.9" y1="681.9" x2="108.7" y2="681.9"/>
	<line class="st1" x1="103.5" y1="681.9" x2="98.4" y2="681.9"/>
	<polyline class="st1" points="72.7,681.9 90.7,681.9 98.4,681.9 98.4,695.7 91,695.7 91,681.9 	"/>
	<line class="st1" x1="114.1" y1="523.9" x2="104.4" y2="523.9"/>
	<polyline class="st1" points="41.8,692.2 32.3,692.2 32.3,742 49.6,742 49.6,730.1 32.3,730.1 	"/>
	<polyline class="st1" points="41.8,692.2 41.8,722.2 47.8,722.2 47.8,730.1 	"/>
	<polyline class="st1" points="72.7,692.2 82.2,692.2 82.2,742 65,742 65,730.1 82.2,730.1 	"/>
	<polyline class="st1" points="72.7,692.2 72.7,722.2 66.7,722.2 66.7,730.1 	"/>
	<line class="st1" x1="31.9" y1="722.3" x2="0.5" y2="722.3"/>
	<polyline class="st1" points="112.9,849.9 57.3,849.9 1.6,849.9 	"/>
	<polyline class="st1" points="0.5,831.2 20.2,831.2 20.2,849.9 	"/>
	<polyline class="st1" points="114.1,831.2 94.4,831.2 94.4,849.9 	"/>
	<path class="st1" d="M114.1,291.2H92.6l-7.5,8.2c6.2,8.2,7.8,16.9,7.8,16.9l5-0.1c0,0,0.5,3.7,0.4,6.8c-0.2,11-2.6,18.5-9.3,26.8
		c-3.3,4.1-6.2,5.9-6.2,5.9"/>
	<line class="st1" x1="0.5" y1="402.1" x2="9.2" y2="402.1"/>
	<line class="st1" x1="18" y1="402.1" x2="22.3" y2="402.1"/>
	<line class="st1" x1="92.3" y1="402.1" x2="97" y2="402.1"/>
	<line class="st1" x1="0.5" y1="461.4" x2="9.2" y2="461.4"/>
	<line class="st1" x1="18.9" y1="461.4" x2="22.8" y2="461.4"/>
	<line class="st1" x1="95.7" y1="461.4" x2="91.7" y2="461.4"/>
	<line class="st1" x1="114.1" y1="402.1" x2="105.4" y2="402.1"/>
	<line class="st1" x1="114.1" y1="461.4" x2="105.4" y2="461.4"/>
	<line class="st1" x1="90" y1="681.9" x2="90" y2="523.9"/>
	<polyline class="st1" points="88.4,221.4 88.4,174 87.4,174 87.4,146.5 85.3,146.5 85.3,128.6 80.8,128.6 80.8,122.3 91.1,122.3 	
		"/>
	<polyline class="st1" points="26.3,221.6 26.3,168.2 29.6,168.2 29.6,122.3 24,122.3 	"/>
	<polyline class="st1" points="103.7,291.1 103.7,300 114.2,300 	"/>
	<polyline class="st1" points="103.7,298.2 93.5,298.2 89,295.2 	"/>
	<polyline class="st1" points="86.6,301.4 99.5,301.4 99.5,314.9 92.8,314.9 	"/>
	<polyline class="st1" points="103.7,299.9 102.3,299.9 102.3,320.6 114.2,320.6 	"/>
	<polyline class="st1" points="102.3,320.6 102.3,342.4 114.2,342.4 	"/>
	<polyline class="st1" points="102.3,342.4 100.7,342.4 100.7,349.7 97,349.7 97,359.4 	"/>
	<polyline class="st1" points="97,349.7 89.3,349.7 89.3,352.6 86.4,352.6 	"/>
	<path class="st1" d="M77.8,355.6l-0.3-0.8c0,0,10.2-4.2,15.2-18.8c2.9-8.6,2.4-14.6,1.9-20"/>
	<path class="st1" d="M30.9,361.5V356h6.2l1.6-2.2c0,0,6.2,4,12.1,5.8v20.6H49v22.2H28.2v-29.2H0.5v-11.7H30.9z"/>
	<line class="st1" x1="26.4" y1="241.8" x2="26.4" y2="260.5"/>
	<line class="st1" x1="45.1" y1="250.4" x2="45.1" y2="260.6"/>
	<path class="st1" d="M15.1,302.3c0.6,3.4,3.5,6,7.1,6c4,0,7.2-3.2,7.2-7.2c0-4-3.2-7.2-7.2-7.2c0,0,0,0,0,0"/>
	<path class="st1" d="M16.4,302.2c0.5,2.8,2.9,4.9,5.8,4.9c3.3,0,5.9-2.6,5.9-5.9c0-3.3-2.6-5.9-5.9-5.9c0,0,0,0,0,0"/>
	<path class="st1" d="M18,301.9c0.3,2,2.1,3.6,4.3,3.6c2.4,0,4.3-1.9,4.3-4.3c0-2.4-1.9-4.3-4.3-4.3c0,0,0,0,0,0"/>
	<path class="st1" d="M0.4,291.2l21.8,0l0,7.6c0.1,0,0.1,0,0.2,0c1.4,0,2.5,1.1,2.5,2.5s-1.1,2.5-2.5,2.5c-1,0-1.9-0.7-2.3-1.6
		l-19.5,0"/>
	<path class="st1" d="M23.4,301.2c0,0.6-0.5,1.1-1.1,1.1c-0.6,0-1.1-0.5-1.1-1.1s0.5-1.1,1.1-1.1C22.9,300.1,23.4,300.6,23.4,301.2z
		"/>
	<line class="st1" x1="45.3" y1="221.5" x2="69.4" y2="221.5"/>
	<path class="st1" d="M0.5,281.9h4.6c0,2.6-2.1,4.6-4.6,4.6v0c2.6,0,4.6,2.1,4.6,4.6H0.5"/>
	<path class="st1" d="M0.5,272.7h4.6c0,2.6-2.1,4.6-4.6,4.6v0c2.6,0,4.6,2.1,4.6,4.6H0.5"/>
	<path class="st1" d="M114.1,281.9h-4.6c0,2.6,2.1,4.6,4.6,4.6v0c-2.6,0-4.6,2.1-4.6,4.6h4.6"/>
	<path class="st1" d="M114.1,272.7h-4.6c0,2.6,2.1,4.6,4.6,4.6v0c-2.6,0-4.6,2.1-4.6,4.6h4.6"/>
	<line class="st1" x1="88.8" y1="480.2" x2="88.8" y2="503.7"/>
	<path class="st1" d="M45.1,816.9c0,0,6,2,12.2,2"/>
	<path class="st1" d="M42.4,751.5c0,0-1.3-1.1-4-1.1"/>
	<line class="st1" x1="35.9" y1="789.4" x2="30.5" y2="789.4"/>
	<line class="st1" x1="30.5" y1="784.3" x2="35.9" y2="784.3"/>
	<path class="st1" d="M69.4,816.9c0,0-6,2-12.2,2"/>
	<line class="st1" x1="78.7" y1="789.4" x2="84.1" y2="789.4"/>
	<line class="st1" x1="84.1" y1="784.3" x2="78.7" y2="784.3"/>
	<line class="st1" x1="98.4" y1="523.9" x2="98.4" y2="681.9"/>
	<path class="st1" d="M88.3,763.6c0,0,4.2,7.9,4.2,23.2"/>
	<path class="st1" d="M91,695.7c0,0,0,46,0,47.8c0,3.9-1.9,5.4-1.9,7.2s1,3.3,1,6.3c0,2.5-1.9,6.5-1.9,6.5s4.2,7.9,4.2,23.2
		s-4.4,24.9-4.4,24.9c0.6,1.4,0.7,3.2,0.7,4.8c0,7-5.7,12.8-12.8,12.8c-0.7,0-1.4-0.1-2.1-0.2c0,0-7.7,2.5-16.8,2.5"/>
	<path class="st1" d="M23.5,722.3c0,0,0,19.3,0,21.2c0,3.9,1.9,5.4,1.9,7.2s-1,3.3-1,6.3c0,2.5,1.9,6.5,1.9,6.5s-4.2,7.9-4.2,23.2
		s4.4,24.9,4.4,24.9c-0.6,1.4-0.7,3.2-0.7,4.8c0,7,5.7,12.8,12.7,12.8c0.7,0,1.4-0.1,2.1-0.2c0,0,7.7,2.5,16.8,2.5"/>
	<path class="st1" d="M33.2,789.3c0.4,12.5,3.9,20.6,3.9,20.6c-3.1,0.6-5.5,3.4-5.5,6.7c0,3.7,3,6.8,6.7,6.8c3.6,0,6.6-2.8,6.7-6.4
		c0,0,6,2,12.2,2"/>
	<path class="st1" d="M57.3,748.3c-10.4,0-14.9,3.1-14.9,3.1s-1.3-1.1-4-1.1c-3.7,0-6.8,3-6.8,6.8c0,3.3,2.4,6,5.4,6.7
		c0,0-3.5,8.1-3.9,20.7"/>
	<line class="st1" x1="35.9" y1="789.4" x2="30.5" y2="789.4"/>
	<line class="st1" x1="30.5" y1="784.3" x2="35.9" y2="784.3"/>
	<path class="st1" d="M81.3,789.3c-0.4,12.5-3.9,20.6-3.9,20.6c3.1,0.6,5.5,3.4,5.5,6.7c0,3.7-3,6.8-6.8,6.8c-3.6,0-6.6-2.8-6.7-6.4
		c0,0-6,2-12.2,2"/>
	<path class="st1" d="M57.2,748.3c10.4,0,14.9,3.1,14.9,3.1s1.3-1.1,4-1.1c3.7,0,6.8,3,6.8,6.8c0,3.3-2.4,6-5.4,6.7
		c0,0,3.5,8.1,3.9,20.7"/>
	<line class="st1" x1="78.7" y1="789.4" x2="84.1" y2="789.4"/>
	<line class="st1" x1="84.1" y1="784.3" x2="78.7" y2="784.3"/>
	<path class="st1" d="M22.3,373.2c0,0,0,28.1,0,30c0,3.9,3.1,5.4,3.1,7.2s-1,3.3-1,6.3c0,2.5,1.9,7.4,1.9,7.4S22,436.3,22,451.7
		s3.8,28.5,3.8,28.5v23.5"/>
	<path class="st1" d="M33.2,454.4c0.4,13.2,3.9,25.5,3.9,25.5c-3.1,0.6-5.5,3.4-5.5,6.7c0,3.7,3,6.8,6.7,6.8c3.6,0,6.6-2.8,6.7-6.4
		c0,0,6,1.5,12.2,1.5"/>
	<path class="st1" d="M57.3,408c-10.4,0-10.5,4.3-17.8,2.1c-0.4-0.1-0.7-0.1-1.1-0.1c-3.7,0-6.8,3-6.8,6.8c0,3.3,2.4,6,5.4,6.7
		c0,0-3.4,12.3-3.9,25.5"/>
	<path class="st1" d="M81.3,454.3c-0.4,13.2-3.9,25.6-3.9,25.6c3.1,0.6,5.5,3.4,5.5,6.7c0,3.7-3,6.8-6.8,6.8c-3.6,0-6.6-2.8-6.7-6.4
		c0,0-6,1.5-12.2,1.5"/>
	<path class="st1" d="M57.2,408c10.4,0,10.5,4.3,17.8,2.1c0.4-0.1,0.7-0.1,1.1-0.1c3.7,0,6.8,3,6.8,6.8c0,3.3-2.4,6-5.4,6.7
		c0,0,3.4,12.3,3.9,25.6"/>
	<path class="st1" d="M92.3,373.3c0,0,0,27.7,0,29.8c0,3.9-3.1,5.4-3.1,7.2s1,3.3,1,6.3c0,2.5-1.9,7.4-1.9,7.4s4.2,12.1,4.2,27.5
		s-3.8,28.5-3.8,28.5v23.5"/>
	<line class="st1" x1="35.9" y1="454.4" x2="30.5" y2="454.4"/>
	<line class="st1" x1="30.5" y1="448.8" x2="35.9" y2="448.8"/>
	<line class="st1" x1="78.7" y1="454.4" x2="84.1" y2="454.4"/>
	<line class="st1" x1="84.1" y1="448.8" x2="78.7" y2="448.8"/>
	<line class="st1" x1="29.7" y1="122.4" x2="84.5" y2="122.4"/>
	<path class="st2" d="M62.3,273.9h1c1,0,1.7,0.5,1.7,1.8v0.1c0,0.7-0.3,1.2-0.7,1.5l0.8,2.3h-1l-0.6-2h-0.2v2h-1L62.3,273.9
		L62.3,273.9z M63.3,276.7c0.4,0,0.7-0.2,0.7-0.9v-0.1c0-0.7-0.3-0.9-0.8-0.9h0L63.3,276.7L63.3,276.7z M65.4,273.9h1
		c1,0,1.7,0.5,1.7,1.8v0.1c0,0.7-0.3,1.2-0.7,1.5l0.8,2.3h-1l-0.6-2h-0.2v2h-1V273.9z M66.5,276.7c0.4,0,0.7-0.2,0.7-0.9v-0.1
		c0-0.7-0.3-0.9-0.8-0.9h0L66.5,276.7L66.5,276.7z"/>
	<path class="st2" d="M80.6,262.7h1c1,0,1.7,0.5,1.7,1.8v0.1c0,0.7-0.3,1.2-0.7,1.5l0.8,2.3h-1l-0.6-2h-0.2v2h-1
		C80.6,268.3,80.6,262.7,80.6,262.7z M81.6,265.5c0.4,0,0.7-0.2,0.7-0.9v-0.1c0-0.7-0.3-0.9-0.8-0.9h0L81.6,265.5L81.6,265.5z
		 M83.8,262.7h1c1,0,1.7,0.5,1.7,1.8v0.1c0,0.7-0.3,1.2-0.7,1.5l0.8,2.3h-1l-0.6-2h-0.2v2h-1V262.7z M84.8,265.5
		c0.4,0,0.7-0.2,0.7-0.9v-0.1c0-0.7-0.3-0.9-0.8-0.9h0L84.8,265.5L84.8,265.5z"/>
	<path class="st2" d="M34,723h1c1,0,1.7,0.5,1.7,1.8v0.1c0,0.7-0.3,1.2-0.7,1.5l0.8,2.3h-1l-0.6-2h-0.2v2h-1L34,723L34,723z
		 M35,725.7c0.4,0,0.7-0.2,0.7-0.9v-0.1c0-0.7-0.3-0.9-0.8-0.9h0L35,725.7L35,725.7z M37.2,723h1c1,0,1.7,0.5,1.7,1.8v0.1
		c0,0.7-0.3,1.2-0.7,1.5l0.8,2.3h-1l-0.6-2h-0.2v2h-1L37.2,723L37.2,723z M38.2,725.7c0.4,0,0.7-0.2,0.7-0.9v-0.1
		c0-0.7-0.3-0.9-0.8-0.9h0L38.2,725.7L38.2,725.7z"/>
	<path class="st2" d="M34,695.5h1c1,0,1.7,0.5,1.7,1.8v0.1c0,0.7-0.3,1.2-0.7,1.5l0.8,2.3h-1l-0.6-2h-0.2v2h-1L34,695.5L34,695.5z
		 M35,698.2c0.4,0,0.7-0.2,0.7-0.9v-0.1c0-0.7-0.3-0.9-0.8-0.9h0L35,698.2L35,698.2z M37.2,695.5h1c1,0,1.7,0.5,1.7,1.8v0.1
		c0,0.7-0.3,1.2-0.7,1.5l0.8,2.3h-1l-0.6-2h-0.2v2h-1L37.2,695.5L37.2,695.5z M38.2,698.2c0.4,0,0.7-0.2,0.7-0.9v-0.1
		c0-0.7-0.3-0.9-0.8-0.9h0L38.2,698.2L38.2,698.2z"/>
	<path class="st2" d="M13.2,276.6v-0.2c0-1.8,0.8-2.7,1.9-2.7c0.3,0,0.5,0.1,0.7,0.2v1c-0.2-0.1-0.5-0.2-0.7-0.2
		c-0.6,0-0.9,0.6-0.9,1.8v0.3c0,1.5,0.4,1.8,0.8,1.8c0,0,0,0,0.1,0V277h-0.5v-0.9H16v3c-0.4,0.2-0.6,0.2-1,0.2
		C14.1,279.3,13.2,278.5,13.2,276.6z M16.6,277.6v-4h1v4.1c0,0.5,0.2,0.7,0.4,0.7s0.4-0.2,0.4-0.7v-4.1h1v4c0,1.2-0.6,1.7-1.4,1.7
		C17.2,279.3,16.6,278.8,16.6,277.6z M19.9,273.7H22v0.9h-1.2v1.4h1v0.9h-1v1.4h1.2v0.9h-2.2V273.7z M22.4,279.1v-1
		c0.3,0.2,0.6,0.3,0.9,0.3c0.3,0,0.5-0.1,0.5-0.5v0c0-0.3-0.1-0.4-0.5-1c-0.7-0.8-0.9-1.1-0.9-1.8v0c0-0.9,0.6-1.5,1.4-1.5
		c0.4,0,0.6,0.1,0.9,0.2v1c-0.3-0.2-0.5-0.3-0.7-0.3c-0.3,0-0.5,0.2-0.5,0.5v0c0,0.3,0.1,0.4,0.5,0.9c0.8,0.9,0.9,1.2,0.9,1.9v0
		c0,0.9-0.6,1.5-1.4,1.5C23,279.3,22.7,279.2,22.4,279.1z M25.5,274.6h-0.7v-0.9h2.4v0.9h-0.7v4.7h-1L25.5,274.6L25.5,274.6z
		 M8.6,281.7h2.1v0.9H9.6v1.4h1v0.9h-1v1.4h1.2v0.9H8.6V281.7z M11.2,281.7h0.9l1,2.8v-2.8h1v5.6h-0.9l-1-3v3h-1V281.7z M15.2,282.6
		h-0.7v-0.9h2.4v0.9h-0.7v4.7h-1L15.2,282.6L15.2,282.6z M17.2,281.7h1c1,0,1.7,0.5,1.7,1.8v0.1c0,0.7-0.3,1.2-0.7,1.5l0.8,2.3h-1
		l-0.6-2h-0.2v2h-1L17.2,281.7L17.2,281.7z M18.3,284.4c0.4,0,0.7-0.2,0.7-0.9v-0.1c0-0.7-0.3-0.9-0.8-0.9h0L18.3,284.4L18.3,284.4z
		 M21.2,281.7h1l1.1,5.6h-1l-0.2-1.1h-0.9l-0.2,1.1h-0.9L21.2,281.7z M22,285.3l-0.3-1.8l-0.3,1.8H22z M23.6,281.7h0.9l1,2.8v-2.8h1
		v5.6h-0.9l-1-3v3h-1V281.7z M26.9,284.6v-0.2c0-2,0.7-2.7,1.6-2.7c0.3,0,0.4,0,0.6,0.1v1c-0.2-0.1-0.4-0.2-0.5-0.2
		c-0.4,0-0.7,0.4-0.7,1.8v0.2c0,1.5,0.3,1.8,0.8,1.8c0.2,0,0.3-0.1,0.5-0.2v1c-0.2,0.1-0.4,0.2-0.7,0.2
		C27.6,287.3,26.9,286.5,26.9,284.6z M29.7,281.7h2.1v0.9h-1.2v1.4h1v0.9h-1v1.4h1.2v0.9h-2.2V281.7z"/>
	<path class="st2" d="M88.2,276.6v-0.2c0-1.8,0.8-2.7,1.9-2.7c0.3,0,0.5,0.1,0.7,0.2v1c-0.2-0.1-0.5-0.2-0.7-0.2
		c-0.6,0-0.9,0.6-0.9,1.8v0.3c0,1.5,0.4,1.8,0.8,1.8c0,0,0,0,0.1,0V277h-0.5v-0.9H91v3c-0.4,0.2-0.6,0.2-1,0.2
		C89,279.3,88.2,278.5,88.2,276.6z M91.5,277.6v-4h1v4.1c0,0.5,0.2,0.7,0.4,0.7c0.2,0,0.4-0.2,0.4-0.7v-4.1h1v4
		c0,1.2-0.6,1.7-1.4,1.7C92.1,279.3,91.5,278.8,91.5,277.6z M94.9,273.7H97v0.9h-1.2v1.4h1v0.9h-1v1.4H97v0.9h-2.2V273.7z
		 M97.4,279.1v-1c0.3,0.2,0.6,0.3,0.9,0.3c0.3,0,0.5-0.1,0.5-0.5v0c0-0.3-0.1-0.4-0.5-1c-0.7-0.8-0.9-1.1-0.9-1.8v0
		c0-0.9,0.6-1.5,1.4-1.5c0.4,0,0.6,0.1,0.9,0.2v1c-0.3-0.2-0.5-0.3-0.7-0.3c-0.3,0-0.5,0.2-0.5,0.5v0c0,0.3,0.1,0.4,0.5,0.9
		c0.8,0.9,0.9,1.2,0.9,1.9v0c0,0.9-0.6,1.5-1.4,1.5C98,279.3,97.7,279.2,97.4,279.1z M100.5,274.6h-0.7v-0.9h2.4v0.9h-0.7v4.7h-1
		V274.6z M83.6,281.7h2.1v0.9h-1.2v1.4h1v0.9h-1v1.4h1.2v0.9h-2.2L83.6,281.7L83.6,281.7z M86.2,281.7h0.9l1,2.8v-2.8h1v5.6h-0.9
		l-1-3v3h-1L86.2,281.7L86.2,281.7z M90.1,282.6h-0.7v-0.9h2.4v0.9h-0.7v4.7h-1L90.1,282.6L90.1,282.6z M92.2,281.7h1
		c1,0,1.7,0.5,1.7,1.8v0.1c0,0.7-0.3,1.2-0.7,1.5l0.8,2.3h-1l-0.6-2h-0.2v2h-1V281.7z M93.2,284.4c0.4,0,0.7-0.2,0.7-0.9v-0.1
		c0-0.7-0.3-0.9-0.8-0.9h0L93.2,284.4L93.2,284.4z M96.2,281.7h1l1.1,5.6h-1l-0.2-1.1h-0.9l-0.2,1.1h-0.9L96.2,281.7z M97,285.3
		l-0.3-1.8l-0.3,1.8H97z M98.6,281.7h0.9l1,2.8v-2.8h1v5.6h-0.9l-1-3v3h-1L98.6,281.7L98.6,281.7z M101.9,284.6v-0.2
		c0-2,0.7-2.7,1.6-2.7c0.3,0,0.4,0,0.6,0.1v1c-0.2-0.1-0.4-0.2-0.5-0.2c-0.4,0-0.7,0.4-0.7,1.8v0.2c0,1.5,0.3,1.8,0.8,1.8
		c0.2,0,0.3-0.1,0.5-0.2v1c-0.2,0.1-0.4,0.2-0.7,0.2C102.6,287.3,101.9,286.5,101.9,284.6z M104.7,281.7h2.1v0.9h-1.2v1.4h1v0.9h-1
		v1.4h1.2v0.9h-2.2V281.7z"/>
	<path class="st2" d="M45.1,289.6h2.1v0.9h-1.2v1.4h1v0.9h-1v1.4h1.2v0.9h-2.2V289.6z M47.7,289.6h1v4.7h1v0.9h-2V289.6z
		 M50.1,289.6h2.1v0.9h-1.2v1.4h1v0.9h-1v1.4h1.2v0.9h-2.2V289.6z M52.5,289.6h1l0.5,3.6l0.5-3.6h1l-1,5.6h-1L52.5,289.6z
		 M56.4,289.6h1l1.1,5.6h-1l-0.2-1.1h-0.9l-0.2,1.1h-0.9L56.4,289.6z M57.2,293.3l-0.3-1.8l-0.3,1.8H57.2z M59.1,290.6h-0.7v-0.9
		h2.4v0.9h-0.7v4.7h-1L59.1,290.6L59.1,290.6z M60.9,292.6v-0.3c0-1.8,0.6-2.7,1.5-2.7s1.5,0.9,1.5,2.7v0.3c0,1.8-0.6,2.7-1.5,2.7
		S60.9,294.4,60.9,292.6z M62.9,292.6v-0.3c0-1.4-0.2-1.8-0.5-1.8s-0.5,0.4-0.5,1.8v0.3c0,1.4,0.2,1.8,0.5,1.8S62.9,294,62.9,292.6z
		 M64.4,289.6h1c1,0,1.7,0.5,1.7,1.8v0.1c0,0.7-0.3,1.2-0.7,1.5l0.8,2.3h-1l-0.6-2h-0.2v2h-1L64.4,289.6L64.4,289.6z M65.4,292.4
		c0.4,0,0.7-0.2,0.7-0.9v-0.1c0-0.7-0.3-0.9-0.8-0.9h0L65.4,292.4L65.4,292.4z M67.4,295.1v-1c0.3,0.2,0.6,0.3,0.9,0.3
		c0.3,0,0.5-0.1,0.5-0.5v0c0-0.3-0.1-0.4-0.5-1c-0.7-0.8-0.9-1.1-0.9-1.8v0c0-0.9,0.6-1.5,1.4-1.5c0.4,0,0.6,0.1,0.9,0.2v1
		c-0.3-0.2-0.5-0.3-0.7-0.3c-0.3,0-0.5,0.2-0.5,0.5v0c0,0.3,0.1,0.4,0.5,0.9c0.8,0.9,0.9,1.2,0.9,1.9v0c0,0.9-0.6,1.5-1.4,1.5
		C68,295.3,67.7,295.2,67.4,295.1z"/>
	<path class="st2" d="M11.1,319.9h1l1.1,5.6h-1l-0.2-1.1h-0.9l-0.2,1.1H10L11.1,319.9z M11.9,323.5l-0.3-1.8l-0.3,1.8H11.9z
		 M13.8,320.8h-0.7v-0.9h2.4v0.9h-0.7v4.7h-1L13.8,320.8L13.8,320.8z M15.9,319.9h1c1,0,1.7,0.5,1.7,1.8v0.1c0,0.7-0.3,1.2-0.7,1.5
		l0.8,2.3h-1l-0.6-2h-0.2v2h-1L15.9,319.9L15.9,319.9z M16.9,322.6c0.4,0,0.7-0.2,0.7-0.9v-0.1c0-0.7-0.3-0.9-0.8-0.9h0L16.9,322.6
		L16.9,322.6z M19.1,319.9h1v5.6h-1V319.9z M20.6,323.8v-4h1v4.1c0,0.5,0.2,0.7,0.4,0.7s0.4-0.2,0.4-0.7v-4.1h1v4
		c0,1.2-0.6,1.7-1.4,1.7C21.2,325.5,20.6,325,20.6,323.8z M23.9,319.9h1l0.7,2l0.7-2h1v5.6h-0.9v-3.4l-0.7,2.1h0l-0.7-2.1v3.4h-0.9
		L23.9,319.9L23.9,319.9z M5.7,330.8v-0.2c0-2,0.7-2.7,1.6-2.7c0.3,0,0.4,0,0.6,0.1v1c-0.2-0.1-0.4-0.2-0.5-0.2
		c-0.4,0-0.7,0.4-0.7,1.8v0.2c0,1.5,0.3,1.8,0.8,1.8c0.2,0,0.3-0.1,0.5-0.2v1c-0.2,0.1-0.4,0.2-0.7,0.2
		C6.4,333.5,5.7,332.7,5.7,330.8z M9.3,327.9h1l1.1,5.6h-1l-0.2-1.1H9.4l-0.2,1.1H8.2L9.3,327.9z M10.1,331.5l-0.3-1.8l-0.3,1.8
		H10.1z M11.7,327.9h2v0.9h-1.1v1.4h0.9v0.9h-0.9v2.3h-1V327.9z M14.2,327.9h2.1v0.9h-1.2v1.4h1v0.9h-1v1.4h1.2v0.9h-2.2V327.9z
		 M15.5,326.6l0.8,0.4l-0.8,0.6h-0.7L15.5,326.6z M17.9,332L17.9,332c0-0.7,0.3-1.2,0.9-1.7c-0.3-0.5-0.5-0.9-0.5-1.3V329
		c0-0.7,0.5-1.2,1.2-1.2c0.7,0,1.1,0.5,1.1,1.2v0.1c0,0.6-0.3,1.1-0.8,1.5l0.5,1c0-0.2,0.1-0.4,0.1-0.8l0.8,0.1
		c-0.1,0.6-0.2,1.1-0.4,1.4l0.5,0.8l-0.7,0.4l-0.3-0.5c-0.3,0.3-0.6,0.5-1,0.5C18.5,333.6,17.9,333,17.9,332z M19.9,332.4l-0.7-1.4
		c-0.2,0.3-0.3,0.6-0.3,0.9v0.1c0,0.4,0.2,0.7,0.5,0.7C19.6,332.7,19.7,332.6,19.9,332.4z M19.4,329.9c0.2-0.2,0.3-0.5,0.3-0.8V329
		c0-0.3-0.1-0.4-0.3-0.4c-0.2,0-0.3,0.2-0.3,0.4v0.1C19.1,329.3,19.2,329.5,19.4,329.9z M22.8,327.9h0.8c0.9,0,1.8,0.4,1.8,1.4v0
		c0,0.7-0.4,1.1-0.8,1.3c0.5,0.2,0.9,0.5,0.9,1.2v0.1c0,1-0.8,1.6-1.9,1.6h-0.9L22.8,327.9L22.8,327.9z M23.8,330.2
		c0.4,0,0.7-0.2,0.7-0.7v0c0-0.5-0.3-0.7-0.7-0.7h0L23.8,330.2L23.8,330.2z M23.8,332.6c0.4,0,0.8-0.3,0.8-0.7v0
		c0-0.5-0.3-0.7-0.8-0.7h0L23.8,332.6L23.8,332.6L23.8,332.6z M26.7,327.9h1l1.1,5.6h-1l-0.2-1.1h-0.9l-0.2,1.1h-0.9L26.7,327.9z
		 M27.5,331.5l-0.3-1.8l-0.3,1.8H27.5z M29.1,327.9h1c1,0,1.7,0.5,1.7,1.8v0.1c0,0.7-0.3,1.2-0.7,1.5l0.8,2.3h-1l-0.6-2h-0.2v2h-1
		L29.1,327.9L29.1,327.9z M30.2,330.6c0.4,0,0.7-0.2,0.7-0.9v-0.1c0-0.7-0.3-0.9-0.8-0.9h0L30.2,330.6L30.2,330.6z"/>
	<path class="st2" d="M44.4,316.1h-0.7v-0.9H46v0.9h-0.7v4.7h-1L44.4,316.1L44.4,316.1z M46.4,315.2h1v2.3h0.8v-2.3h1v5.6h-1v-2.4
		h-0.8v2.4h-1V315.2z M49.8,315.2h2.1v0.9h-1.2v1.4h1v0.9h-1v1.4H52v0.9h-2.2V315.2z M54.7,315.2h1l1.1,5.6h-1l-0.2-1.1h-0.9
		l-0.2,1.1h-0.9L54.7,315.2z M55.5,318.8l-0.3-1.8l-0.3,1.8H55.5z M57.3,316.1h-0.7v-0.9H59v0.9h-0.7v4.7h-1
		C57.3,320.8,57.3,316.1,57.3,316.1z M59.4,315.2h1c1,0,1.7,0.5,1.7,1.8v0.1c0,0.7-0.3,1.2-0.7,1.5l0.8,2.3h-1l-0.6-2h-0.2v2h-1
		L59.4,315.2L59.4,315.2z M60.4,317.9c0.4,0,0.7-0.2,0.7-0.9V317c0-0.7-0.3-0.9-0.8-0.9h0L60.4,317.9L60.4,317.9z M62.6,315.2h1v5.6
		h-1V315.2z M64.2,319.1v-4h1v4.1c0,0.5,0.2,0.7,0.4,0.7s0.4-0.2,0.4-0.7v-4.1h1v4c0,1.2-0.6,1.7-1.4,1.7
		C64.8,320.8,64.2,320.3,64.2,319.1z M67.5,315.2h1l0.7,2l0.7-2h1v5.6h-0.9v-3.4l-0.7,2.1h0l-0.7-2.1v3.4h-0.9
		C67.5,320.8,67.5,315.2,67.5,315.2z"/>
	<path class="st2" d="M40.7,442.7h2v0.9h-1.1v1.4h0.9v0.9h-0.9v2.3h-1V442.7z M43,445.6v-0.3c0-1.8,0.6-2.7,1.5-2.7
		c0.9,0,1.5,0.9,1.5,2.7v0.3c0,1.8-0.6,2.7-1.5,2.7C43.6,448.4,43,447.5,43,445.6z M44.9,445.6v-0.3c0-1.4-0.2-1.8-0.5-1.8
		c-0.3,0-0.5,0.4-0.5,1.8v0.3c0,1.4,0.2,1.8,0.5,1.8S44.9,447.1,44.9,445.6z M46.4,446.6v-4h1v4.1c0,0.5,0.2,0.7,0.4,0.7
		s0.4-0.2,0.4-0.7v-4.1h1v4c0,1.2-0.6,1.7-1.4,1.7S46.4,447.8,46.4,446.6z M49.7,442.7h1c1,0,1.7,0.5,1.7,1.8v0.1
		c0,0.7-0.3,1.2-0.7,1.5l0.8,2.3h-1l-0.6-2h-0.2v2h-1V442.7z M50.8,445.4c0.4,0,0.7-0.2,0.7-0.9v-0.1c0-0.7-0.3-0.9-0.8-0.9h0
		L50.8,445.4L50.8,445.4L50.8,445.4z M54.1,448.1v-1c0.3,0.2,0.6,0.3,0.9,0.3c0.3,0,0.5-0.1,0.5-0.5v0c0-0.3-0.1-0.4-0.5-1
		c-0.7-0.8-0.9-1.1-0.9-1.8v0c0-0.9,0.6-1.5,1.4-1.5c0.4,0,0.6,0.1,0.9,0.2v1c-0.3-0.2-0.5-0.3-0.7-0.3c-0.3,0-0.5,0.2-0.5,0.5v0
		c0,0.3,0.1,0.4,0.5,0.9c0.8,0.9,0.9,1.2,0.9,1.9v0c0,0.9-0.6,1.5-1.4,1.5C54.7,448.3,54.4,448.2,54.1,448.1z M56.8,442.7h2.1v0.9
		h-1.2v1.4h1v0.9h-1v1.4H59v0.9h-2.2V442.7z M60.2,442.7h1l1.1,5.6h-1l-0.2-1.1h-0.9l-0.2,1.1h-0.9L60.2,442.7z M61,446.3l-0.3-1.8
		l-0.3,1.8H61z M62.5,448.1v-1c0.3,0.2,0.6,0.3,0.9,0.3c0.3,0,0.5-0.1,0.5-0.5v0c0-0.3-0.1-0.4-0.5-1c-0.7-0.8-0.9-1.1-0.9-1.8v0
		c0-0.9,0.6-1.5,1.4-1.5c0.4,0,0.6,0.1,0.9,0.2v1c-0.3-0.2-0.5-0.3-0.7-0.3c-0.3,0-0.5,0.2-0.5,0.5v0c0,0.3,0.1,0.4,0.5,0.9
		c0.8,0.9,0.9,1.2,0.9,1.9v0c0,0.9-0.6,1.5-1.4,1.5C63.1,448.3,62.8,448.2,62.5,448.1z M65.1,445.6v-0.3c0-1.8,0.6-2.7,1.5-2.7
		s1.5,0.9,1.5,2.7v0.3c0,1.8-0.6,2.7-1.5,2.7S65.1,447.5,65.1,445.6z M67.1,445.6v-0.3c0-1.4-0.2-1.8-0.5-1.8s-0.5,0.4-0.5,1.8v0.3
		c0,1.4,0.2,1.8,0.5,1.8S67.1,447.1,67.1,445.6z M68.5,442.7h0.9l1,2.8v-2.8h1v5.6h-0.9l-1-3v3h-1C68.5,448.3,68.5,442.7,68.5,442.7
		z M71.8,448.1v-1c0.3,0.2,0.6,0.3,0.9,0.3c0.3,0,0.5-0.1,0.5-0.5v0c0-0.3-0.1-0.4-0.5-1c-0.7-0.8-0.9-1.1-0.9-1.8v0
		c0-0.9,0.6-1.5,1.4-1.5c0.4,0,0.6,0.1,0.9,0.2v1c-0.3-0.2-0.5-0.3-0.7-0.3c-0.3,0-0.5,0.2-0.5,0.5v0c0,0.3,0.1,0.4,0.5,0.9
		c0.8,0.9,0.9,1.2,0.9,1.9v0c0,0.9-0.6,1.5-1.4,1.5C72.5,448.3,72.1,448.2,71.8,448.1z M50.9,450.7h1l0.7,2l0.7-2h1v5.6h-0.9v-3.4
		l-0.7,2.1h0l-0.7-2.1v3.4h-0.9L50.9,450.7L50.9,450.7z M55.6,450.7h1l1.1,5.6h-1l-0.2-1.1h-0.9l-0.2,1.1h-0.9L55.6,450.7z
		 M56.4,454.3l-0.3-1.8l-0.3,1.8H56.4z M58,450.7h1v5.6h-1V450.7z M59.6,450.7h0.9l1,2.8v-2.8h1v5.6h-0.9l-1-3v3h-1V450.7z
		 M41.8,458.7h0.9c1.2,0,2,0.9,2,2.7v0.2c0,1.8-0.7,2.7-2,2.7h-0.9V458.7z M42.8,463.4c0.5,0,0.9-0.4,0.9-1.8v-0.2
		c0-1.4-0.4-1.8-0.9-1.8h0L42.8,463.4L42.8,463.4z M45.1,458.7h1v5.6h-1V458.7z M46.7,458.7h0.9l1,2.8v-2.8h1v5.6h-0.9l-1-3v3h-1
		V458.7z M50.2,458.7h1v5.6h-1V458.7z M51.7,458.7h0.9l1,2.8v-2.8h1v5.6h-0.9l-1-3v3h-1V458.7z M55,461.6v-0.2
		c0-1.8,0.8-2.7,1.9-2.7c0.3,0,0.5,0.1,0.7,0.2v1c-0.2-0.1-0.5-0.2-0.7-0.2c-0.6,0-0.9,0.6-0.9,1.8v0.3c0,1.5,0.4,1.8,0.8,1.8
		c0,0,0,0,0.1,0V462h-0.5v-0.9h1.4v3c-0.4,0.2-0.6,0.2-1,0.2C55.9,464.3,55,463.5,55,461.6z M59.7,458.7h1c1,0,1.7,0.5,1.7,1.8v0.1
		c0,0.7-0.3,1.2-0.7,1.5l0.8,2.3h-1l-0.6-2h-0.2v2h-1L59.7,458.7L59.7,458.7z M60.7,461.4c0.4,0,0.7-0.2,0.7-0.9v-0.1
		c0-0.7-0.3-0.9-0.8-0.9h0L60.7,461.4L60.7,461.4L60.7,461.4z M62.7,461.6v-0.3c0-1.8,0.6-2.7,1.5-2.7c0.9,0,1.5,0.9,1.5,2.7v0.3
		c0,1.8-0.6,2.7-1.5,2.7S62.7,463.5,62.7,461.6z M64.7,461.6v-0.3c0-1.4-0.2-1.8-0.5-1.8c-0.3,0-0.5,0.4-0.5,1.8v0.3
		c0,1.4,0.2,1.8,0.5,1.8C64.5,463.5,64.7,463.1,64.7,461.6z M66.1,461.6v-0.3c0-1.8,0.6-2.7,1.5-2.7s1.5,0.9,1.5,2.7v0.3
		c0,1.8-0.6,2.7-1.5,2.7C66.7,464.4,66.1,463.5,66.1,461.6z M68.1,461.6v-0.3c0-1.4-0.2-1.8-0.5-1.8s-0.5,0.4-0.5,1.8v0.3
		c0,1.4,0.2,1.8,0.5,1.8S68.1,463.1,68.1,461.6z M69.6,458.7h1l0.7,2l0.7-2h1v5.6h-0.9v-3.4l-0.7,2.1h0l-0.7-2.1v3.4h-0.9V458.7z"/>
	<path class="st2" d="M102.6,649.4v-1h4.7v-1h0.9v2H102.6z M102.5,646.2v-1l5.6-1.1v1l-1.1,0.2v0.9l1.1,0.2v0.9L102.5,646.2z
		 M106.2,645.4l-1.8,0.3l1.8,0.3V645.4z M105.5,642.7h-0.2c-2,0-2.7-0.7-2.7-1.6c0-0.3,0-0.4,0.1-0.6h1c-0.1,0.2-0.2,0.4-0.2,0.5
		c0,0.4,0.4,0.7,1.8,0.7h0.2c1.5,0,1.8-0.3,1.8-0.8c0-0.2-0.1-0.3-0.2-0.5h1c0.1,0.2,0.2,0.4,0.2,0.7
		C108.2,642,107.4,642.7,105.5,642.7z M106.5,639.9h-4v-1h4.1c0.5,0,0.7-0.2,0.7-0.4s-0.2-0.4-0.7-0.4h-4.1v-1h4
		c1.2,0,1.7,0.6,1.7,1.4S107.7,639.9,106.5,639.9z M105.5,636.6h-0.2c-2,0-2.7-0.7-2.7-1.6c0-0.3,0-0.4,0.1-0.6h1
		c-0.1,0.2-0.2,0.4-0.2,0.5c0,0.4,0.4,0.7,1.8,0.7h0.2c1.5,0,1.8-0.3,1.8-0.8c0-0.2-0.1-0.3-0.2-0.5h1c0.1,0.2,0.2,0.4,0.2,0.7
		C108.2,636,107.4,636.6,105.5,636.6z M102.6,633.8v-1h5.6v1H102.6z M102.6,632.3v-0.9l2.8-1h-2.8v-1h5.6v0.9l-3,1h3v1H102.6z
		 M102.5,628.1v-1l5.6-1.1v1l-1.1,0.2v0.9l1.1,0.2v0.9L102.5,628.1z M106.2,627.3l-1.8,0.3l1.8,0.3V627.3z M102.6,624.4v-1h5.6v1
		H102.6z M103.5,622.3v0.7h-0.9v-2.4h0.9v0.7h4.7v1L103.5,622.3L103.5,622.3z M102.5,619.7v-1l5.6-1.1v1l-1.1,0.2v0.9l1.1,0.2v0.9
		L102.5,619.7z M106.2,618.9l-1.8,0.3l1.8,0.3V618.9z M102.6,617.3v-1h4.7v-1h0.9v2H102.6z M102.6,614.9v-1h5.6v1H102.6z
		 M102.5,612.5v-1l5.6-1.1v1l-1.1,0.2v0.9l1.1,0.2v0.9L102.5,612.5z M106.2,611.7l-1.8,0.3l1.8,0.3V611.7z M102.6,610.1v-0.9l2.8-1
		h-2.8v-1h5.6v0.9l-3,1h3v1L102.6,610.1L102.6,610.1z M102.6,605.4v-1c0-1,0.5-1.7,1.8-1.7h0.1c0.7,0,1.2,0.3,1.5,0.7l2.3-0.8v1
		l-2,0.6v0.2h2v1L102.6,605.4L102.6,605.4z M105.3,604.4c0-0.4-0.2-0.7-0.9-0.7h-0.1c-0.7,0-0.9,0.3-0.9,0.8v0L105.3,604.4
		L105.3,604.4z M102.6,602.2v-2.1h0.9v1.2h1.4v-1h0.9v1h1.4v-1.2h0.9v2.2L102.6,602.2L102.6,602.2z M108,599.7h-1
		c0.2-0.3,0.3-0.6,0.3-0.9c0-0.3-0.1-0.5-0.5-0.5h0c-0.3,0-0.4,0.1-1,0.5c-0.8,0.7-1.1,0.9-1.8,0.9h0c-0.9,0-1.5-0.6-1.5-1.4
		c0-0.4,0.1-0.6,0.2-0.9h1c-0.2,0.3-0.3,0.5-0.3,0.7c0,0.3,0.2,0.5,0.5,0.5h0c0.3,0,0.4-0.1,0.9-0.5c0.9-0.8,1.2-0.9,1.9-0.9h0
		c0.9,0,1.5,0.6,1.5,1.4C108.2,599.1,108.1,599.4,108,599.7z M103.5,596.6v0.7h-0.9v-2.4h0.9v0.7h4.7v1L103.5,596.6L103.5,596.6z
		 M102.5,594v-1l5.6-1.1v1L107,593v0.9l1.1,0.2v0.9L102.5,594z M106.2,593.2l-1.8,0.3l1.8,0.3V593.2z M106.5,591.6h-4v-1h4.1
		c0.5,0,0.7-0.2,0.7-0.4c0-0.2-0.2-0.4-0.7-0.4h-4.1v-1h4c1.2,0,1.7,0.6,1.7,1.4C108.2,591,107.7,591.6,106.5,591.6z M102.6,588.3
		v-1c0-1,0.5-1.7,1.8-1.7h0.1c0.7,0,1.2,0.3,1.5,0.7l2.3-0.8v1l-2,0.6v0.2h2v1L102.6,588.3L102.6,588.3z M105.3,587.3
		c0-0.4-0.2-0.7-0.9-0.7h-0.1c-0.7,0-0.9,0.3-0.9,0.8v0L105.3,587.3L105.3,587.3z M102.5,584.3v-1l5.6-1.1v1l-1.1,0.2v0.9l1.1,0.2
		v0.9L102.5,584.3z M106.2,583.5l-1.8,0.3l1.8,0.3V583.5z M102.6,581.9V581l2.8-1h-2.8v-1h5.6v0.9l-3,1h3v1H102.6z M103.5,578v0.7
		h-0.9v-2.4h0.9v0.7h4.7v1L103.5,578L103.5,578z"/>
	<path class="st2" d="M44,708v-1c0.3,0.2,0.6,0.3,0.9,0.3c0.3,0,0.5-0.1,0.5-0.5v0c0-0.3-0.1-0.4-0.5-1c-0.7-0.8-0.9-1.1-0.9-1.8v0
		c0-0.9,0.6-1.5,1.4-1.5c0.4,0,0.6,0.1,0.9,0.2v1c-0.3-0.2-0.5-0.3-0.7-0.3c-0.3,0-0.5,0.2-0.5,0.5v0c0,0.3,0.1,0.4,0.5,0.9
		c0.8,0.9,0.9,1.2,0.9,1.9v0c0,0.9-0.6,1.5-1.4,1.5C44.6,708.2,44.3,708.1,44,708z M46.7,702.6h2.1v0.9h-1.2v1.4h1v0.9h-1v1.4h1.2
		v0.9h-2.2C46.7,708.2,46.7,702.6,46.7,702.6z M49.1,702.6h1l0.5,3.6l0.5-3.6h1l-1,5.6h-1L49.1,702.6z M52.4,702.6h2.1v0.9h-1.2v1.4
		h1v0.9h-1v1.4h1.2v0.9h-2.2C52.4,708.2,52.4,702.6,52.4,702.6z M55,702.6h0.9l1,2.8v-2.8h1v5.6H57l-1-3v3h-1
		C55,708.2,55,702.6,55,702.6z M59.6,708v-1c0.3,0.2,0.6,0.3,0.9,0.3c0.3,0,0.5-0.1,0.5-0.5v0c0-0.3-0.1-0.4-0.5-1
		c-0.7-0.8-0.9-1.1-0.9-1.8v0c0-0.9,0.6-1.5,1.4-1.5c0.4,0,0.6,0.1,0.9,0.2v1c-0.3-0.2-0.5-0.3-0.7-0.3c-0.3,0-0.5,0.2-0.5,0.5v0
		c0,0.3,0.1,0.4,0.5,0.9c0.8,0.9,0.9,1.2,0.9,1.9v0c0,0.9-0.6,1.5-1.4,1.5C60.2,708.2,59.9,708.1,59.6,708z M62.3,702.6h2.1v0.9
		h-1.2v1.4h1v0.9h-1v1.4h1.2v0.9h-2.2C62.3,708.2,62.3,702.6,62.3,702.6z M65.7,702.6h1l1.1,5.6h-1l-0.2-1.1h-0.9l-0.2,1.1h-0.9
		L65.7,702.6z M66.5,706.2l-0.3-1.8l-0.3,1.8H66.5z M68,708v-1c0.3,0.2,0.6,0.3,0.9,0.3c0.3,0,0.5-0.1,0.5-0.5v0
		c0-0.3-0.1-0.4-0.5-1c-0.7-0.8-0.9-1.1-0.9-1.8v0c0-0.9,0.6-1.5,1.4-1.5c0.4,0,0.6,0.1,0.9,0.2v1c-0.3-0.2-0.5-0.3-0.7-0.3
		c-0.3,0-0.5,0.2-0.5,0.5v0c0,0.3,0.1,0.4,0.5,0.9c0.8,0.9,0.9,1.2,0.9,1.9v0c0,0.9-0.6,1.5-1.4,1.5C68.6,708.2,68.3,708.1,68,708z
		 M49.9,713.5v-0.2c0-2,0.7-2.7,1.6-2.7c0.3,0,0.4,0,0.6,0.1v1c-0.2-0.1-0.4-0.2-0.5-0.2c-0.4,0-0.7,0.4-0.7,1.8v0.2
		c0,1.5,0.3,1.8,0.8,1.8c0.2,0,0.3-0.1,0.5-0.2v1c-0.2,0.1-0.4,0.2-0.7,0.2C50.6,716.2,49.9,715.4,49.9,713.5z M52.4,713.5v-0.3
		c0-1.8,0.6-2.7,1.5-2.7c0.9,0,1.5,0.9,1.5,2.7v0.3c0,1.8-0.6,2.7-1.5,2.7C53,716.3,52.4,715.4,52.4,713.5z M54.4,713.5v-0.3
		c0-1.4-0.2-1.8-0.5-1.8c-0.3,0-0.5,0.4-0.5,1.8v0.3c0,1.4,0.2,1.8,0.5,1.8C54.2,715.4,54.4,715,54.4,713.5z M55.8,714.6v-4h1v4.1
		c0,0.5,0.2,0.7,0.4,0.7s0.4-0.2,0.4-0.7v-4.1h1v4c0,1.2-0.6,1.7-1.4,1.7S55.8,715.7,55.8,714.6z M59.2,710.6h1c1,0,1.7,0.5,1.7,1.8
		v0.1c0,0.7-0.3,1.2-0.7,1.5l0.8,2.3h-1l-0.6-2h-0.2v2h-1V710.6z M60.2,713.4c0.4,0,0.7-0.2,0.7-0.9v-0.1c0-0.7-0.3-0.9-0.8-0.9h0
		L60.2,713.4L60.2,713.4z M62.8,711.5h-0.7v-0.9h2.4v0.9h-0.7v4.7h-1V711.5z"/>
	<path class="st2" d="M43.8,783v-1c0.3,0.2,0.6,0.3,0.9,0.3c0.3,0,0.5-0.1,0.5-0.5v0c0-0.3-0.1-0.4-0.5-1c-0.7-0.8-0.9-1.1-0.9-1.8
		v0c0-0.9,0.6-1.5,1.4-1.5c0.4,0,0.6,0.1,0.9,0.2v1c-0.3-0.2-0.5-0.3-0.7-0.3c-0.3,0-0.5,0.2-0.5,0.5v0c0,0.3,0.1,0.4,0.5,0.9
		c0.8,0.9,0.9,1.2,0.9,1.9v0c0,0.9-0.6,1.5-1.4,1.5C44.4,783.3,44,783.2,43.8,783z M46.5,777.6h2.1v0.9h-1.2v1.4h1v0.9h-1v1.4h1.2
		v0.9h-2.2V777.6z M48.8,777.6h1l0.5,3.6l0.5-3.6h1l-1,5.6h-1L48.8,777.6z M52.2,777.6h2.1v0.9h-1.2v1.4h1v0.9h-1v1.4h1.2v0.9h-2.2
		V777.6z M54.8,777.6h0.9l1,2.8v-2.8h1v5.6h-0.9l-1-3v3h-1V777.6z M59.4,783v-1c0.3,0.2,0.6,0.3,0.9,0.3c0.3,0,0.5-0.1,0.5-0.5v0
		c0-0.3-0.1-0.4-0.5-1c-0.7-0.8-0.9-1.1-0.9-1.8v0c0-0.9,0.6-1.5,1.4-1.5c0.4,0,0.6,0.1,0.9,0.2v1c-0.3-0.2-0.5-0.3-0.7-0.3
		c-0.3,0-0.5,0.2-0.5,0.5v0c0,0.3,0.1,0.4,0.5,0.9c0.8,0.9,0.9,1.2,0.9,1.9v0c0,0.9-0.6,1.5-1.4,1.5C60,783.3,59.6,783.2,59.4,783z
		 M62.1,777.6h2.1v0.9h-1.2v1.4h1v0.9h-1v1.4h1.2v0.9h-2.2C62.1,783.2,62.1,777.6,62.1,777.6z M65.5,777.6h1l1.1,5.6h-1l-0.2-1.1
		h-0.9l-0.2,1.1h-0.9L65.5,777.6z M66.3,781.2l-0.3-1.8l-0.3,1.8H66.3z M67.8,783v-1c0.3,0.2,0.6,0.3,0.9,0.3c0.3,0,0.5-0.1,0.5-0.5
		v0c0-0.3-0.1-0.4-0.5-1c-0.7-0.8-0.9-1.1-0.9-1.8v0c0-0.9,0.6-1.5,1.4-1.5c0.4,0,0.6,0.1,0.9,0.2v1c-0.3-0.2-0.5-0.3-0.7-0.3
		c-0.3,0-0.5,0.2-0.5,0.5v0c0,0.3,0.1,0.4,0.5,0.9c0.8,0.9,0.9,1.2,0.9,1.9v0c0,0.9-0.6,1.5-1.4,1.5C68.4,783.3,68.1,783.2,67.8,783
		z M51.2,785.6h1l0.7,2l0.7-2h1v5.6h-0.9v-3.4l-0.7,2.1h0l-0.7-2.1v3.4h-0.9L51.2,785.6L51.2,785.6z M55.8,785.6h1l1.1,5.6h-1
		l-0.2-1.1h-0.9l-0.2,1.1h-0.9L55.8,785.6z M56.6,789.2l-0.3-1.8l-0.3,1.8H56.6z M58.2,785.6h1v5.6h-1V785.6z M59.8,785.6h0.9l1,2.8
		v-2.8h1v5.6h-0.9l-1-3v3h-1V785.6z M42,793.6h0.9c1.2,0,2,0.9,2,2.7v0.2c0,1.8-0.7,2.7-2,2.7H42V793.6z M43,798.3
		c0.5,0,0.9-0.4,0.9-1.8v-0.2c0-1.4-0.4-1.8-0.9-1.8h0L43,798.3L43,798.3z M45.4,793.6h1v5.6h-1V793.6z M46.9,793.6h0.9l1,2.8v-2.8
		h1v5.6h-0.9l-1-3v3h-1V793.6z M50.4,793.6h1v5.6h-1V793.6z M51.9,793.6h0.9l1,2.8v-2.8h1v5.6h-0.9l-1-3v3h-1V793.6z M55.3,796.5
		v-0.2c0-1.8,0.8-2.7,1.9-2.7c0.3,0,0.5,0.1,0.7,0.2v1c-0.2-0.1-0.5-0.2-0.7-0.2c-0.6,0-0.9,0.6-0.9,1.8v0.3c0,1.5,0.4,1.8,0.8,1.8
		c0,0,0,0,0.1,0v-1.4h-0.5V796h1.4v3c-0.4,0.2-0.6,0.2-1,0.2C56.1,799.3,55.3,798.5,55.3,796.5z M59.9,793.6h1c1,0,1.7,0.5,1.7,1.8
		v0.1c0,0.7-0.3,1.2-0.7,1.5l0.8,2.3h-1l-0.6-2h-0.2v2h-1L59.9,793.6L59.9,793.6z M60.9,796.4c0.4,0,0.7-0.2,0.7-0.9v-0.1
		c0-0.7-0.3-0.9-0.8-0.9h0L60.9,796.4L60.9,796.4z M63,796.6v-0.3c0-1.8,0.6-2.7,1.5-2.7c0.9,0,1.5,0.9,1.5,2.7v0.3
		c0,1.8-0.6,2.7-1.5,2.7C63.6,799.3,63,798.4,63,796.6z M64.9,796.6v-0.3c0-1.4-0.2-1.8-0.5-1.8c-0.3,0-0.5,0.4-0.5,1.8v0.3
		c0,1.4,0.2,1.8,0.5,1.8C64.7,798.4,64.9,798,64.9,796.6z M66.3,796.6v-0.3c0-1.8,0.6-2.7,1.5-2.7s1.5,0.9,1.5,2.7v0.3
		c0,1.8-0.6,2.7-1.5,2.7C66.9,799.3,66.3,798.4,66.3,796.6z M68.3,796.6v-0.3c0-1.4-0.2-1.8-0.5-1.8s-0.5,0.4-0.5,1.8v0.3
		c0,1.4,0.2,1.8,0.5,1.8S68.3,798,68.3,796.6z M69.8,793.6h1l0.7,2l0.7-2h1v5.6h-0.9v-3.4l-0.7,2.1h0l-0.7-2.1v3.4h-0.9L69.8,793.6
		L69.8,793.6z"/>
	<path class="st2" d="M70.5,354.2l-0.4-0.9c0.4,0.1,0.7,0,0.9-0.1c0.3-0.1,0.4-0.3,0.3-0.6l0,0c-0.1-0.2-0.2-0.4-0.9-0.7
		c-0.9-0.4-1.3-0.7-1.6-1.3l0,0c-0.3-0.8,0-1.6,0.7-1.9c0.4-0.2,0.6-0.2,0.9-0.2l0.4,0.9c-0.3,0-0.6,0-0.8,0.1
		c-0.3,0.1-0.4,0.4-0.3,0.6l0,0c0.1,0.2,0.2,0.3,0.8,0.6c1.1,0.5,1.3,0.8,1.6,1.4l0,0c0.3,0.8,0,1.6-0.7,1.9
		C71.2,354.2,70.8,354.2,70.5,354.2z M70.8,348.3l0.9-0.5l1.1,2l0.7-0.4l-1.1-2l0.9-0.5l2.7,4.9l-0.9,0.5l-1.1-2.1l-0.7,0.4l1.1,2.1
		l-0.9,0.5L70.8,348.3z M75.1,349.2L75,349c-1.1-1.5-1.1-2.6-0.4-3.1c0.7-0.5,1.7-0.1,2.8,1.4l0.2,0.2c1.1,1.5,1.1,2.6,0.4,3.1
		S76.2,350.7,75.1,349.2z M76.7,348.1l-0.2-0.2c-0.8-1.2-1.2-1.4-1.5-1.2s-0.2,0.6,0.6,1.8l0.2,0.2c0.8,1.2,1.2,1.4,1.5,1.2
		C77.6,349.7,77.6,349.2,76.7,348.1z M76.1,344.9l0.8-0.7c0.8-0.7,1.6-0.7,2.5,0.2l0,0.1c0.5,0.5,0.6,1.1,0.5,1.5l2.1,1.2l-0.8,0.7
		l-1.8-1.1l-0.1,0.1l1.3,1.5l-0.7,0.6L76.1,344.9z M78.7,346.3c0.3-0.3,0.4-0.7,0-1.2l0,0c-0.5-0.5-0.8-0.4-1.2-0.2l0,0L78.7,346.3
		L78.7,346.3z M78.3,342.9l1.5-1.6l0.7,0.6l-0.8,0.8l1,1l0.7-0.8l0.7,0.6l-0.7,0.8l1,1l0.8-0.9l0.7,0.6l-1.5,1.6L78.3,342.9z
		 M80.7,340.2l1.3-1.7l0.7,0.5l-0.7,0.9l1.1,0.8l0.6-0.8l0.7,0.5l-0.6,0.8l1.1,0.8l0.7-1l0.7,0.5l-1.3,1.7L80.7,340.2z M84.9,339
		l-2.8-0.7l0.5-0.9l1.6,0.5l-1.2-1.2l0.5-0.9l1.9,2.2l2.9,0.7l-0.5,0.9l-1.7-0.5l1.2,1.3l-0.5,0.9L84.9,339z M86.2,337.1l-0.2-0.1
		c-1.8-0.9-2.2-1.8-1.8-2.7c0.1-0.2,0.2-0.4,0.4-0.5l0.9,0.4c-0.2,0.1-0.3,0.2-0.4,0.4c-0.2,0.4,0,0.8,1.3,1.4l0.2,0.1
		c1.3,0.6,1.7,0.5,1.9,0.1c0.1-0.1,0.1-0.3,0.1-0.6l0.9,0.4c0,0.3,0,0.5-0.2,0.7C88.9,337.7,87.9,338,86.2,337.1z M88.4,335
		l-3.7-1.4l0.3-0.9l3.8,1.4c0.5,0.2,0.7,0.1,0.8-0.2c0.1-0.2,0-0.5-0.5-0.6l-3.8-1.4l0.3-0.9l3.7,1.4c1.1,0.4,1.4,1.1,1.1,1.9
		C90.2,335,89.5,335.4,88.4,335z M85.7,330.6l0.2-1c0.2-1,0.9-1.5,2.2-1.2l0.1,0c0.7,0.2,1.1,0.6,1.3,1l2.4-0.2l-0.3,1l-2,0.1l0,0.2
		l1.9,0.5l-0.2,0.9L85.7,330.6z M88.7,330.3c0.1-0.4-0.1-0.8-0.7-0.9l-0.1,0c-0.7-0.2-0.9,0.1-1,0.5l0,0L88.7,330.3L88.7,330.3z
		 M91.8,328.7l-1-0.2c0.3-0.3,0.4-0.6,0.4-0.8c0-0.3-0.1-0.5-0.4-0.6l0,0c-0.3,0-0.5,0-1,0.4c-0.8,0.5-1.2,0.8-1.9,0.6l0,0
		c-0.9-0.1-1.4-0.8-1.2-1.6c0.1-0.4,0.2-0.6,0.3-0.8l1,0.2c-0.2,0.3-0.3,0.4-0.4,0.7c0,0.3,0.1,0.5,0.4,0.6l0,0c0.3,0,0.4,0,1-0.4
		c1-0.6,1.4-0.7,2-0.6l0,0c0.9,0.1,1.4,0.8,1.2,1.6C92.1,328.1,91.9,328.4,91.8,328.7z M86.8,325.3l0.1-1l5.6,0.5l-0.1,1L86.8,325.3
		z M89.9,324l-0.3,0c-1.8,0-2.7-0.6-2.7-1.5c0-0.9,0.9-1.5,2.7-1.5l0.3,0c1.8,0,2.7,0.6,2.7,1.5C92.6,323.4,91.7,324,89.9,324z
		 M89.9,322l-0.3,0c-1.4,0-1.8,0.2-1.8,0.5c0,0.3,0.4,0.5,1.8,0.5l0.3,0c1.4,0,1.8-0.2,1.8-0.5C91.7,322.2,91.3,322,89.9,322z
		 M86.9,320.8l-0.1-0.9l2.7-1.3l-2.8,0.4l-0.1-0.9l5.6-0.7l0.1,0.9l-2.8,1.4l2.9-0.4l0.1,0.9L86.9,320.8z M91.8,316.4l-1,0.2
		c0.1-0.4,0.2-0.7,0.1-0.9c-0.1-0.3-0.3-0.5-0.6-0.4l0,0c-0.2,0.1-0.4,0.2-0.8,0.8c-0.6,0.8-0.9,1.2-1.5,1.3l0,0
		c-0.9,0.2-1.6-0.2-1.7-1c-0.1-0.4-0.1-0.6,0-0.9l1-0.2c-0.1,0.3-0.1,0.5-0.1,0.8c0.1,0.3,0.3,0.4,0.6,0.4l0,0
		c0.3-0.1,0.3-0.2,0.7-0.7c0.7-1,1-1.2,1.6-1.4l0,0c0.9-0.2,1.6,0.3,1.8,1C91.9,315.8,91.8,316.1,91.8,316.4z"/>
	<path class="st2" d="M65.8,344.7l-0.1-0.2c-0.5-1.7,0-2.9,1-3.2c0.3-0.1,0.5-0.1,0.8-0.1l0.3,1c-0.3-0.1-0.5-0.1-0.8,0
		c-0.5,0.2-0.7,0.8-0.4,2l0.1,0.3c0.4,1.4,0.9,1.6,1.3,1.5c0,0,0,0,0.1,0l-0.4-1.4l-0.5,0.1l-0.2-0.8l1.3-0.4l0.8,2.9
		c-0.3,0.2-0.5,0.4-0.9,0.5C67.4,347.1,66.4,346.6,65.8,344.7z M69.6,344.7l-1.7-3.6l0.9-0.4l1.8,3.7c0.2,0.5,0.5,0.6,0.7,0.5
		s0.3-0.4,0.1-0.8l-1.8-3.7l0.9-0.4l1.7,3.6c0.5,1.1,0.2,1.8-0.5,2.1S70.1,345.7,69.6,344.7z M70.6,339.7l1.8-1.2l0.5,0.8l-1,0.6
		l0.8,1.2l0.9-0.6l0.5,0.8l-0.9,0.6l0.8,1.2l1-0.7l0.5,0.8l-1.8,1.2L70.6,339.7z M76.1,342.5l-0.7-0.8c0.4-0.1,0.7-0.2,0.9-0.3
		c0.2-0.2,0.3-0.4,0.1-0.7l0,0c-0.2-0.2-0.4-0.3-1-0.4c-1-0.1-1.4-0.2-1.9-0.7l0,0c-0.6-0.7-0.5-1.5,0.1-2c0.3-0.3,0.5-0.4,0.8-0.4
		l0.7,0.8c-0.3,0.1-0.5,0.1-0.7,0.3c-0.2,0.2-0.3,0.5-0.1,0.7l0,0c0.2,0.2,0.3,0.2,1,0.3c1.2,0.2,1.5,0.3,1.9,0.8l0,0
		c0.6,0.7,0.5,1.5-0.1,2C76.7,342.3,76.4,342.5,76.1,342.5z M75.3,337.1l-0.5,0.5l-0.7-0.6l1.6-1.7l0.7,0.6l-0.5,0.5l3.5,3.1
		l-0.7,0.7L75.3,337.1z M81.1,337.2l-0.9-0.5c0.4-0.2,0.6-0.4,0.7-0.6c0.1-0.2,0.2-0.5-0.1-0.7l0,0c-0.2-0.1-0.4-0.2-1.1-0.1
		c-1,0.2-1.4,0.2-2-0.1l0,0c-0.8-0.5-0.9-1.3-0.5-1.9c0.2-0.3,0.4-0.5,0.6-0.6l0.9,0.5c-0.3,0.2-0.5,0.3-0.6,0.5
		c-0.1,0.2-0.1,0.5,0.1,0.7l0,0c0.2,0.1,0.3,0.1,1,0c1.2-0.2,1.5-0.1,2.1,0.2l0,0c0.7,0.5,0.9,1.3,0.5,1.9
		C81.6,336.8,81.4,337,81.1,337.2z M77.8,332.2l0.9-2l0.8,0.4l-0.5,1.1l1.3,0.6l0.4-0.9l0.8,0.4l-0.4,0.9l1.3,0.6l0.5-1.1l0.8,0.4
		l-0.9,2L77.8,332.2z M78.7,330.1l0.3-1c0.3-1,1-1.5,2.2-1.2l0.1,0c0.7,0.2,1.1,0.6,1.2,1l2.4-0.1l-0.3,1l-2.1,0.1l-0.1,0.2l1.9,0.6
		l-0.3,0.9L78.7,330.1z M81.7,329.9c0.1-0.4,0-0.8-0.7-1l-0.1,0c-0.7-0.2-0.9,0.1-1.1,0.5l0,0L81.7,329.9L81.7,329.9z M79.5,327.6
		l0.1-1l3.7,0l-3.5-1l0.1-1l5.4,1.8l-0.1,1L79.5,327.6z M79.9,324.5l0-1l5.6,0.2l0,1L79.9,324.5z M82.8,323l-0.2,0
		c-2,0.1-2.8-0.5-2.8-1.4c0-0.3,0-0.4,0.1-0.6l1-0.1c-0.1,0.2-0.2,0.4-0.1,0.6c0,0.4,0.4,0.7,1.8,0.6l0.2,0c1.5-0.1,1.8-0.4,1.7-0.9
		c0-0.2-0.1-0.3-0.2-0.5l1-0.1c0.1,0.2,0.2,0.4,0.2,0.7C85.5,322.1,84.8,322.9,82.8,323z M79.7,320.7l-0.4-2.1l0.9-0.2l0.2,1.1
		l1.4-0.3l-0.2-1l0.9-0.2l0.2,1l1.4-0.3l-0.2-1.2l0.9-0.2l0.4,2.1L79.7,320.7z M84.4,316.7l-1,0.3c0.1-0.4,0.1-0.7,0-0.9
		c-0.1-0.3-0.3-0.5-0.6-0.3l0,0c-0.2,0.1-0.4,0.2-0.8,0.8c-0.5,0.9-0.8,1.2-1.4,1.5l0,0c-0.8,0.3-1.6-0.1-1.8-0.8
		c-0.1-0.4-0.1-0.6-0.1-0.9l1-0.3c-0.1,0.3-0.1,0.5,0,0.8c0.1,0.3,0.3,0.4,0.6,0.3l0,0c0.3-0.1,0.3-0.2,0.7-0.8
		c0.6-1,0.9-1.3,1.5-1.5l0,0c0.8-0.3,1.6,0.1,1.8,0.8C84.4,316.1,84.5,316.4,84.4,316.7z"/>
</g>
<g id="SUN_DECK_05_ROOMS">
	<g id="gDeck05InsideIF">
		<g id="hDeck05InsideIF">
			<g id="g5101">
				<g id="h5101">
					<rect id="b5101" x="26.2" y="221.4" class="st3" width="18.9" height="10.1"/>
					<path id="t5101" class="st2" d="M31.3,224.9l-0.3,0.9l0.3,0c0.8,0,1.3,0.7,1.3,1.4c0,0.9-0.7,1.5-1.5,1.5c-0.5,0-1-0.3-1.2-0.7
						l0.4-0.4c0.1,0.4,0.5,0.6,0.9,0.6c0.5,0,1-0.5,1-1c0-0.5-0.4-1-1-1c-0.3,0-0.6,0.1-0.8,0.4h-0.1l0.6-2.1h1.6v0.5L31.3,224.9
						L31.3,224.9z M33.4,224.9l0.3-0.5h0.9v4.1h-0.5v-3.7L33.4,224.9L33.4,224.9z M35.7,226.5c0-0.9,0.4-2.2,1.4-2.2
						s1.4,1.3,1.4,2.2c0,0.8-0.4,2.2-1.4,2.2S35.7,227.4,35.7,226.5z M36.2,226.5c0,0.6,0.2,1.7,0.9,1.7s0.9-1.1,0.9-1.7
						s-0.2-1.7-0.9-1.7S36.2,226,36.2,226.5z M39.1,224.9l0.3-0.5h0.9v4.1h-0.5v-3.7L39.1,224.9L39.1,224.9z"/>
				</g>
			</g>
			<g id="g5302">
				<g id="h5302">
					<rect id="b5302" x="69.5" y="231.6" class="st3" width="18.9" height="10.1"/>
					<path id="t5302" class="st2" d="M74.5,234.7l-0.3,0.9l0.3,0c0.8,0,1.3,0.7,1.3,1.4c0,0.9-0.7,1.5-1.5,1.5c-0.5,0-1-0.3-1.2-0.7
						l0.4-0.4c0.1,0.4,0.5,0.6,0.9,0.6c0.5,0,1-0.5,1-1c0-0.5-0.4-1-1-1c-0.3,0-0.6,0.1-0.8,0.4h-0.1l0.6-2.1h1.6v0.5L74.5,234.7
						L74.5,234.7z M77.5,236c0.4,0,0.8-0.2,0.8-0.7c0-0.4-0.3-0.7-0.7-0.7c-0.4,0-0.6,0.2-0.7,0.6h-0.5c0.1-0.7,0.5-1,1.2-1
						c0.6,0,1.2,0.4,1.2,1.1c0,0.4-0.2,0.7-0.5,0.9c0.4,0.2,0.6,0.6,0.6,1c0,0.8-0.6,1.2-1.3,1.2c-0.6,0-1.2-0.4-1.2-1.1h0.5
						c0,0.4,0.4,0.7,0.8,0.7c0.5,0,0.8-0.4,0.8-0.8c0-0.5-0.4-0.8-0.9-0.8V236z M79.4,236.3c0-0.9,0.4-2.2,1.4-2.2
						c1.1,0,1.4,1.3,1.4,2.2c0,0.8-0.4,2.2-1.4,2.2S79.4,237.2,79.4,236.3z M79.9,236.3c0,0.6,0.2,1.7,0.9,1.7
						c0.7,0,0.9-1.1,0.9-1.7s-0.2-1.7-0.9-1.7C80.1,234.6,79.9,235.8,79.9,236.3z M85.3,237.9v0.5h-2.6l1.8-2.2
						c0.2-0.2,0.4-0.5,0.4-0.7c0-0.4-0.4-0.8-0.8-0.8c-0.4,0-0.8,0.3-0.8,0.8h-0.5c0.1-0.7,0.6-1.2,1.3-1.2c0.7,0,1.3,0.5,1.3,1.2
						c0,0.3-0.1,0.6-0.3,0.9l-1.3,1.7H85.3z"/>
				</g>
			</g>
			<g id="g5301">
				<g id="h5301">
					<rect id="b5301" x="69.5" y="221.4" class="st3" width="18.9" height="10.1"/>
					<path id="t5301" class="st2" d="M74.6,224.8l-0.3,0.9l0.3,0c0.8,0,1.3,0.7,1.3,1.4c0,0.9-0.7,1.5-1.5,1.5c-0.5,0-1-0.3-1.2-0.7
						l0.4-0.4c0.1,0.4,0.5,0.6,0.9,0.6c0.5,0,1-0.5,1-1c0-0.5-0.4-1-1-1c-0.3,0-0.6,0.1-0.8,0.4h-0.1l0.6-2.1h1.6v0.5L74.6,224.8
						L74.6,224.8z M77.7,226c0.4,0,0.8-0.2,0.8-0.7c0-0.4-0.3-0.7-0.7-0.7c-0.4,0-0.6,0.2-0.7,0.6h-0.5c0.1-0.7,0.5-1,1.2-1
						c0.6,0,1.2,0.4,1.2,1.1c0,0.4-0.2,0.7-0.5,0.9c0.4,0.2,0.6,0.6,0.6,1c0,0.8-0.6,1.2-1.3,1.2c-0.6,0-1.2-0.4-1.2-1.1h0.5
						c0,0.4,0.4,0.7,0.8,0.7c0.5,0,0.8-0.4,0.8-0.8c0-0.5-0.4-0.8-0.9-0.8L77.7,226L77.7,226z M79.5,226.4c0-0.9,0.4-2.2,1.4-2.2
						c1.1,0,1.4,1.3,1.4,2.2c0,0.8-0.4,2.2-1.4,2.2C79.9,228.5,79.5,227.2,79.5,226.4z M80,226.4c0,0.6,0.2,1.7,0.9,1.7
						c0.7,0,0.9-1.1,0.9-1.7s-0.2-1.7-0.9-1.7C80.2,224.6,80,225.8,80,226.4z M82.9,224.8l0.3-0.5h0.9v4.1h-0.5v-3.7L82.9,224.8
						L82.9,224.8z"/>
				</g>
			</g>
			<g id="g5103">
				<g id="h5103">
					<rect id="b5103" x="26.3" y="260.5" class="st3" width="18.9" height="10.5"/>
					<path id="t5103" class="st2" d="M31.4,264l-0.3,0.9l0.3,0c0.8,0,1.3,0.7,1.3,1.5c0,0.9-0.7,1.5-1.5,1.5c-0.5,0-1-0.3-1.2-0.7
						l0.4-0.4c0.1,0.4,0.5,0.6,0.9,0.6c0.5,0,1-0.5,1-1c0-0.5-0.4-1-1-1c-0.3,0-0.6,0.1-0.8,0.4h-0.1l0.6-2.1h1.6v0.5L31.4,264
						L31.4,264z M33.4,264l0.3-0.5h0.9v4.1h-0.5V264L33.4,264L33.4,264z M35.7,265.6c0-0.9,0.4-2.2,1.4-2.2s1.4,1.3,1.4,2.2
						c0,0.8-0.4,2.2-1.4,2.2S35.7,266.4,35.7,265.6z M36.2,265.6c0,0.6,0.2,1.7,0.9,1.7s0.9-1.1,0.9-1.7s-0.2-1.7-0.9-1.7
						S36.2,265,36.2,265.6z M40.2,265.2c0.4,0,0.8-0.2,0.8-0.7c0-0.4-0.3-0.7-0.7-0.7c-0.4,0-0.6,0.2-0.7,0.6h-0.5
						c0.1-0.7,0.5-1,1.2-1c0.6,0,1.2,0.4,1.2,1.1c0,0.4-0.2,0.7-0.5,0.9c0.4,0.2,0.6,0.6,0.6,1c0,0.8-0.6,1.2-1.3,1.2
						c-0.6,0-1.2-0.4-1.2-1.1h0.5c0,0.4,0.4,0.7,0.8,0.7c0.5,0,0.8-0.4,0.8-0.8c0-0.5-0.4-0.8-0.9-0.8L40.2,265.2L40.2,265.2z"/>
				</g>
			</g>
			<g id="g5102">
				<g id="h5102">
					<rect id="b5102" x="26.1" y="231.6" class="st3" width="19" height="10"/>
					<path id="t5102" class="st2" d="M31,234.9l-0.3,0.9l0.3,0c0.8,0,1.3,0.7,1.3,1.4c0,0.9-0.7,1.5-1.5,1.5c-0.5,0-1-0.3-1.2-0.7
						l0.4-0.4c0.1,0.4,0.5,0.6,0.9,0.6c0.5,0,1-0.5,1-1c0-0.5-0.4-1-1-1c-0.3,0-0.6,0.1-0.8,0.4H30l0.6-2.1h1.6v0.5H31z M33.1,234.9
						l0.3-0.5h0.9v4.1h-0.5v-3.7L33.1,234.9L33.1,234.9z M35.4,236.5c0-0.9,0.4-2.2,1.4-2.2s1.4,1.3,1.4,2.2c0,0.8-0.4,2.2-1.4,2.2
						S35.4,237.3,35.4,236.5z M35.9,236.5c0,0.6,0.2,1.7,0.9,1.7s0.9-1.1,0.9-1.7s-0.2-1.7-0.9-1.7S35.9,235.9,35.9,236.5z
						 M41.3,238.1v0.5h-2.6l1.8-2.2c0.2-0.2,0.4-0.5,0.4-0.7c0-0.4-0.4-0.8-0.8-0.8c-0.4,0-0.8,0.3-0.8,0.8h-0.5
						c0.1-0.7,0.5-1.2,1.3-1.2c0.7,0,1.3,0.5,1.3,1.2c0,0.3-0.1,0.6-0.3,0.9l-1.3,1.7L41.3,238.1L41.3,238.1z"/>
				</g>
			</g>
		</g>
	</g>
	<g id="gDeck05OceanviewPictureWindowOB">
		<g id="hDeck05OceanviewPictureWindowOB">
			<g id="g5207">
				<g id="h5207">
					<rect id="b5207" x="94.4" y="181.8" class="st3" width="19.7" height="9.9"/>
					<path id="t5207" class="st2" d="M100.1,185.2l-0.3,0.9l0.3,0c0.8,0,1.3,0.7,1.3,1.4c0,0.9-0.7,1.5-1.5,1.5
						c-0.5,0-1-0.3-1.2-0.7l0.4-0.4c0.1,0.4,0.5,0.6,0.9,0.6c0.6,0,1-0.5,1-1c0-0.5-0.4-1-1-1c-0.3,0-0.6,0.1-0.8,0.4h-0.1l0.6-2.1
						h1.6v0.5H100.1z M104.4,188.4v0.5h-2.6l1.8-2.2c0.2-0.2,0.4-0.5,0.4-0.7c0-0.4-0.4-0.8-0.8-0.8c-0.4,0-0.8,0.3-0.8,0.8h-0.5
						c0.1-0.7,0.6-1.2,1.3-1.2c0.7,0,1.3,0.5,1.3,1.2c0,0.3-0.1,0.6-0.3,0.9l-1.3,1.7L104.4,188.4L104.4,188.4z M104.8,186.8
						c0-0.9,0.4-2.2,1.4-2.2c1.1,0,1.4,1.3,1.4,2.2c0,0.8-0.4,2.2-1.4,2.2S104.8,187.6,104.8,186.8z M105.3,186.8
						c0,0.6,0.2,1.7,0.9,1.7c0.7,0,0.9-1.1,0.9-1.7s-0.2-1.7-0.9-1.7C105.5,185,105.3,186.2,105.3,186.8z M108,185.2v-0.5h2.9
						l-2.5,4.2l-0.4-0.2l2.1-3.5H108z"/>
				</g>
			</g>
			<g id="g5206">
				<g id="h5206">
					<rect id="b5206" x="93.9" y="172.2" class="st3" width="17.7" height="9.6"/>
					<path id="t5206" class="st2" d="M98.4,175.1l-0.3,0.9l0.3,0c0.8,0,1.3,0.7,1.3,1.4c0,0.9-0.7,1.5-1.5,1.5c-0.5,0-1-0.3-1.2-0.7
						l0.4-0.4c0.1,0.4,0.5,0.6,0.9,0.6c0.6,0,1-0.5,1-1c0-0.5-0.4-1-1-1c-0.3,0-0.6,0.1-0.8,0.4h-0.1l0.6-2.1h1.6v0.5L98.4,175.1
						L98.4,175.1z M102.7,178.3v0.5h-2.6l1.8-2.2c0.2-0.2,0.4-0.5,0.4-0.7c0-0.4-0.4-0.8-0.8-0.8c-0.4,0-0.8,0.3-0.8,0.8h-0.5
						c0.1-0.7,0.5-1.2,1.3-1.2c0.7,0,1.3,0.5,1.3,1.2c0,0.3-0.1,0.6-0.3,0.9l-1.3,1.7H102.7z M103.2,176.7c0-0.9,0.4-2.2,1.4-2.2
						c1.1,0,1.4,1.3,1.4,2.2c0,0.8-0.4,2.2-1.4,2.2C103.5,178.9,103.2,177.6,103.2,176.7z M103.7,176.7c0,0.6,0.2,1.7,0.9,1.7
						c0.7,0,0.9-1.1,0.9-1.7s-0.2-1.7-0.9-1.7C103.9,175,103.7,176.1,103.7,176.7z M108.6,174.8l-1.1,1.5l0,0
						c0.1-0.1,0.3-0.1,0.4-0.1c0.7,0,1.2,0.6,1.2,1.3c0,0.8-0.6,1.4-1.3,1.4c-0.7,0-1.4-0.6-1.4-1.3c0-0.4,0.2-0.8,0.4-1.1l1.4-1.9
						L108.6,174.8z M108.6,177.6c0-0.5-0.4-0.9-0.9-0.9c-0.4,0-0.9,0.4-0.9,0.9c0,0.5,0.4,0.9,0.9,0.9
						C108.2,178.4,108.6,178,108.6,177.6z"/>
				</g>
			</g>
			<g id="g5205">
				<g id="h5205">
					<rect id="b5205" x="93.9" y="162.5" class="st3" width="17.7" height="9.7"/>
					<path id="t5205" class="st2" d="M98.4,165.6l-0.3,0.9l0.3,0c0.8,0,1.3,0.7,1.3,1.4c0,0.9-0.7,1.5-1.5,1.5c-0.5,0-1-0.3-1.2-0.7
						l0.4-0.4c0.1,0.4,0.5,0.6,0.9,0.6c0.6,0,1-0.5,1-1c0-0.5-0.4-1-1-1c-0.3,0-0.6,0.1-0.8,0.4h-0.1l0.6-2.1h1.6v0.5L98.4,165.6
						L98.4,165.6z M102.8,168.8v0.5h-2.6l1.8-2.2c0.2-0.2,0.4-0.5,0.4-0.7c0-0.4-0.4-0.8-0.8-0.8c-0.4,0-0.8,0.3-0.8,0.8h-0.5
						c0.1-0.7,0.6-1.2,1.3-1.2c0.7,0,1.3,0.5,1.3,1.2c0,0.3-0.1,0.6-0.3,0.9l-1.3,1.7H102.8z M103.2,167.2c0-0.9,0.4-2.2,1.4-2.2
						c1.1,0,1.4,1.3,1.4,2.2c0,0.8-0.4,2.2-1.4,2.2S103.2,168,103.2,167.2z M103.7,167.2c0,0.6,0.2,1.7,0.9,1.7
						c0.7,0,0.9-1.1,0.9-1.7s-0.2-1.7-0.9-1.7C103.9,165.5,103.7,166.6,103.7,167.2z M107.8,165.6l-0.3,0.9l0.3,0
						c0.8,0,1.3,0.7,1.3,1.4c0,0.9-0.7,1.5-1.5,1.5c-0.5,0-1-0.3-1.2-0.7l0.4-0.4c0.1,0.4,0.5,0.6,0.9,0.6c0.5,0,1-0.5,1-1
						c0-0.5-0.4-1-1-1c-0.3,0-0.6,0.1-0.8,0.4h-0.1l0.6-2.1h1.6v0.5L107.8,165.6L107.8,165.6z"/>
				</g>
			</g>
			<g id="g5204">
				<g id="h5204">
					<rect id="b5204" x="92.8" y="152.4" class="st3" width="18.2" height="10"/>
					<path id="t5204" class="st2" d="M97.5,155.8l-0.3,0.9l0.3,0c0.8,0,1.3,0.7,1.3,1.4c0,0.9-0.7,1.5-1.5,1.5c-0.5,0-1-0.3-1.2-0.7
						l0.4-0.4c0.1,0.4,0.5,0.6,0.9,0.6c0.6,0,1-0.5,1-1c0-0.5-0.4-1-1-1c-0.3,0-0.6,0.1-0.8,0.4h-0.1l0.6-2.1h1.6v0.5H97.5z
						 M101.8,159v0.5h-2.6l1.8-2.2c0.2-0.2,0.4-0.5,0.4-0.7c0-0.4-0.4-0.8-0.8-0.8c-0.4,0-0.8,0.3-0.8,0.8h-0.5
						c0.1-0.7,0.6-1.2,1.3-1.2c0.7,0,1.3,0.5,1.3,1.2c0,0.3-0.1,0.6-0.3,0.9l-1.3,1.7L101.8,159L101.8,159z M102.3,157.4
						c0-0.9,0.4-2.2,1.4-2.2c1.1,0,1.4,1.3,1.4,2.2c0,0.8-0.4,2.2-1.4,2.2S102.3,158.2,102.3,157.4z M102.8,157.4
						c0,0.6,0.2,1.7,0.9,1.7c0.7,0,0.9-1.1,0.9-1.7s-0.2-1.7-0.9-1.7C103,155.6,102.8,156.8,102.8,157.4z M108.3,158.4v0.5h-0.5v0.6
						h-0.5v-0.6h-2l2.5-3.7v3.3H108.3z M107.4,156.7L107.4,156.7l-1.2,1.7h1.2L107.4,156.7L107.4,156.7z"/>
				</g>
			</g>
			<g id="g5203">
				<g id="h5203">
					<rect id="b5203" x="92.8" y="142.3" class="st3" width="18.2" height="10.1"/>
					<path id="t5203" class="st2" d="M97.3,145.7l-0.3,0.9l0.3,0c0.8,0,1.3,0.7,1.3,1.4c0,0.9-0.7,1.5-1.5,1.5c-0.5,0-1-0.3-1.2-0.7
						l0.4-0.4c0.1,0.4,0.5,0.6,0.9,0.6c0.5,0,1-0.5,1-1c0-0.5-0.4-1-1-1c-0.3,0-0.6,0.1-0.8,0.4h-0.1l0.6-2.1h1.6v0.5H97.3z
						 M101.6,148.9v0.5H99l1.8-2.2c0.2-0.2,0.4-0.5,0.4-0.7c0-0.4-0.4-0.8-0.8-0.8c-0.4,0-0.8,0.3-0.8,0.8h-0.5
						c0.1-0.7,0.5-1.2,1.3-1.2c0.7,0,1.3,0.5,1.3,1.2c0,0.3-0.1,0.6-0.3,0.9l-1.3,1.7L101.6,148.9L101.6,148.9z M102.1,147.3
						c0-0.9,0.4-2.2,1.4-2.2c1.1,0,1.4,1.3,1.4,2.2c0,0.8-0.4,2.2-1.4,2.2S102.1,148.2,102.1,147.3z M102.6,147.3
						c0,0.6,0.2,1.7,0.9,1.7c0.7,0,0.9-1.1,0.9-1.7s-0.2-1.7-0.9-1.7C102.8,145.6,102.6,146.7,102.6,147.3z M106.5,147
						c0.4,0,0.8-0.2,0.8-0.7c0-0.4-0.3-0.7-0.7-0.7c-0.4,0-0.6,0.2-0.7,0.6h-0.5c0.1-0.7,0.5-1,1.2-1c0.6,0,1.2,0.4,1.2,1.1
						c0,0.4-0.2,0.7-0.5,0.9c0.4,0.2,0.6,0.6,0.6,1c0,0.8-0.6,1.2-1.3,1.2c-0.6,0-1.2-0.4-1.2-1.1h0.5c0,0.4,0.4,0.7,0.8,0.7
						c0.5,0,0.8-0.4,0.8-0.8c0-0.5-0.4-0.8-0.9-0.8L106.5,147L106.5,147z"/>
				</g>
			</g>
			<g id="g5202">
				<g id="h5202">
					<rect id="b5202" x="90.6" y="132.4" class="st3" width="18.6" height="9.9"/>
					<path id="t5202" class="st2" d="M95.4,135.6l-0.3,0.9l0.3,0c0.8,0,1.3,0.7,1.3,1.4c0,0.9-0.7,1.5-1.5,1.5c-0.5,0-1-0.3-1.2-0.7
						l0.4-0.4c0.1,0.4,0.5,0.6,0.9,0.6c0.6,0,1-0.5,1-1c0-0.5-0.4-1-1-1c-0.3,0-0.6,0.1-0.8,0.4h-0.1l0.6-2.1h1.6v0.5H95.4z
						 M99.8,138.8v0.5h-2.6l1.8-2.2c0.2-0.2,0.4-0.5,0.4-0.7c0-0.4-0.4-0.8-0.8-0.8c-0.4,0-0.8,0.3-0.8,0.8h-0.5
						c0.1-0.7,0.6-1.2,1.3-1.2c0.7,0,1.3,0.5,1.3,1.2c0,0.3-0.1,0.6-0.3,0.9l-1.3,1.7L99.8,138.8L99.8,138.8z M100.2,137.2
						c0-0.9,0.4-2.2,1.4-2.2c1.1,0,1.4,1.3,1.4,2.2c0,0.8-0.4,2.2-1.4,2.2S100.2,138,100.2,137.2z M100.7,137.2
						c0,0.6,0.2,1.7,0.9,1.7c0.7,0,0.9-1.1,0.9-1.7s-0.2-1.7-0.9-1.7C100.9,135.4,100.7,136.6,100.7,137.2z M106.1,138.8v0.5h-2.6
						l1.8-2.2c0.2-0.2,0.4-0.5,0.4-0.7c0-0.4-0.4-0.8-0.8-0.8c-0.4,0-0.8,0.3-0.8,0.8h-0.5c0.1-0.7,0.5-1.2,1.3-1.2
						c0.7,0,1.3,0.5,1.3,1.2c0,0.3-0.1,0.6-0.3,0.9l-1.3,1.7L106.1,138.8L106.1,138.8z"/>
				</g>
			</g>
			<g id="g5201">
				<g id="h5201">
					<rect id="b5201" x="90.6" y="122.3" class="st3" width="17.8" height="10"/>
					<path id="t5201" class="st2" d="M95.4,125.6l-0.3,0.9l0.3,0c0.8,0,1.3,0.7,1.3,1.4c0,0.9-0.7,1.5-1.5,1.5c-0.5,0-1-0.3-1.2-0.7
						l0.4-0.4c0.1,0.4,0.5,0.6,0.9,0.6c0.5,0,1-0.5,1-1c0-0.5-0.4-1-1-1c-0.3,0-0.6,0.1-0.8,0.4h-0.1l0.6-2.1h1.6v0.5L95.4,125.6
						L95.4,125.6z M99.8,128.8v0.5h-2.6l1.8-2.2c0.2-0.2,0.4-0.5,0.4-0.7c0-0.4-0.4-0.8-0.8-0.8c-0.4,0-0.8,0.3-0.8,0.8h-0.5
						c0.1-0.7,0.5-1.2,1.3-1.2c0.7,0,1.3,0.5,1.3,1.2c0,0.3-0.1,0.6-0.3,0.9l-1.3,1.7H99.8z M100.2,127.2c0-0.9,0.4-2.2,1.4-2.2
						c1.1,0,1.4,1.3,1.4,2.2c0,0.8-0.4,2.2-1.4,2.2S100.2,128.1,100.2,127.2z M100.7,127.2c0,0.6,0.2,1.7,0.9,1.7
						c0.7,0,0.9-1.1,0.9-1.7s-0.2-1.7-0.9-1.7C100.9,125.5,100.7,126.7,100.7,127.2z M103.6,125.6l0.3-0.5h0.9v4.1h-0.5v-3.7
						L103.6,125.6L103.6,125.6z"/>
				</g>
			</g>
			<g id="g5010">
				<g id="h5010">
					<path id="b5010" class="st3" d="M0.4,221.5h19.7V211H0.4C0.4,217.3,0.4,221.5,0.4,221.5z"/>
					<path id="t5010" class="st2" d="M5.8,214.9l-0.3,0.9l0.3,0c0.8,0,1.3,0.7,1.3,1.4c0,0.9-0.7,1.5-1.5,1.5c-0.5,0-1-0.3-1.2-0.7
						l0.4-0.4c0.1,0.4,0.5,0.6,0.9,0.6c0.5,0,1-0.5,1-1c0-0.5-0.4-1-1-1c-0.3,0-0.6,0.1-0.8,0.4H4.9l0.6-2.1h1.6v0.5L5.8,214.9
						L5.8,214.9z M7.6,216.5c0-0.9,0.4-2.2,1.4-2.2s1.4,1.3,1.4,2.2c0,0.8-0.4,2.2-1.4,2.2S7.6,217.4,7.6,216.5z M8.1,216.5
						c0,0.6,0.2,1.7,0.9,1.7s0.9-1.1,0.9-1.7s-0.2-1.7-0.9-1.7S8.1,216,8.1,216.5z M11,214.9l0.3-0.5h0.9v4.1h-0.5v-3.7L11,214.9
						L11,214.9z M13.3,216.5c0-0.9,0.4-2.2,1.4-2.2s1.4,1.3,1.4,2.2c0,0.8-0.4,2.2-1.4,2.2S13.3,217.4,13.3,216.5z M13.8,216.5
						c0,0.6,0.2,1.7,0.9,1.7s0.9-1.1,0.9-1.7s-0.2-1.7-0.9-1.7S13.8,216,13.8,216.5z"/>
				</g>
			</g>
			<g id="g5007">
				<g id="h5007">
					<path id="b5007" class="st3" d="M0.4,191.8h19.7v-9.9H0.4C0.4,185.3,0.4,188.5,0.4,191.8z"/>
					<path id="t5007" class="st2" d="M5.1,184.9l-0.3,0.9l0.3,0c0.8,0,1.3,0.7,1.3,1.4c0,0.9-0.7,1.5-1.5,1.5c-0.5,0-1-0.3-1.2-0.7
						l0.4-0.4c0.1,0.4,0.5,0.6,0.9,0.6c0.5,0,1-0.5,1-1c0-0.5-0.4-1-1-1c-0.3,0-0.6,0.1-0.8,0.4H4.2l0.6-2.1h1.6v0.5L5.1,184.9
						L5.1,184.9z M6.9,186.5c0-0.9,0.4-2.2,1.4-2.2c1.1,0,1.4,1.3,1.4,2.2c0,0.8-0.4,2.2-1.4,2.2S6.9,187.3,6.9,186.5z M7.4,186.5
						c0,0.6,0.2,1.7,0.9,1.7s0.9-1.1,0.9-1.7s-0.2-1.7-0.9-1.7C7.6,184.8,7.4,185.9,7.4,186.5z M10.2,186.5c0-0.9,0.4-2.2,1.4-2.2
						s1.4,1.3,1.4,2.2c0,0.8-0.4,2.2-1.4,2.2S10.2,187.3,10.2,186.5z M10.7,186.5c0,0.6,0.2,1.7,0.9,1.7s0.9-1.1,0.9-1.7
						s-0.2-1.7-0.9-1.7S10.7,185.9,10.7,186.5z M13.3,184.9v-0.5h2.9l-2.5,4.2l-0.4-0.2l2.1-3.5L13.3,184.9L13.3,184.9z"/>
				</g>
			</g>
			<g id="g5006">
				<g id="h5006">
					<path id="b5006" class="st3" d="M2.8,181.9h17.9v-9.6H2.8C2.8,175.6,2.8,178.5,2.8,181.9z"/>
					<path id="t5006" class="st2" d="M6.7,175.4l-0.3,0.9l0.3,0c0.8,0,1.3,0.7,1.3,1.4c0,0.9-0.7,1.5-1.5,1.5c-0.5,0-1-0.3-1.2-0.7
						l0.4-0.4c0.1,0.4,0.5,0.6,0.9,0.6c0.5,0,1-0.5,1-1c0-0.5-0.4-1-1-1c-0.3,0-0.6,0.1-0.8,0.4H5.7l0.6-2.1h1.6v0.5H6.7z M8.4,177
						c0-0.9,0.4-2.2,1.4-2.2s1.4,1.3,1.4,2.2c0,0.8-0.4,2.2-1.4,2.2S8.4,177.8,8.4,177z M8.9,177c0,0.6,0.2,1.7,0.9,1.7
						s0.9-1.1,0.9-1.7s-0.2-1.7-0.9-1.7S8.9,176.4,8.9,177z M11.8,177c0-0.9,0.4-2.2,1.4-2.2s1.4,1.3,1.4,2.2c0,0.8-0.4,2.2-1.4,2.2
						S11.8,177.8,11.8,177z M12.2,177c0,0.6,0.2,1.7,0.9,1.7c0.7,0,0.9-1.1,0.9-1.7s-0.2-1.7-0.9-1.7
						C12.4,175.3,12.2,176.4,12.2,177z M17.2,175.1l-1.1,1.5l0,0c0.1-0.1,0.3-0.1,0.4-0.1c0.7,0,1.2,0.6,1.2,1.3
						c0,0.8-0.6,1.4-1.3,1.4c-0.7,0-1.4-0.6-1.4-1.3c0-0.4,0.2-0.8,0.4-1.1l1.4-1.9L17.2,175.1z M17.2,177.8c0-0.5-0.4-0.9-0.9-0.9
						c-0.4,0-0.9,0.4-0.9,0.9c0,0.5,0.4,0.9,0.9,0.9C16.8,178.7,17.2,178.3,17.2,177.8z"/>
				</g>
			</g>
			<g id="g5005">
				<g id="h5005">
					<path id="b5005" class="st3" d="M2.8,172.3h17.9v-9.8H2.8C2.8,165.6,2.8,168.9,2.8,172.3z"/>
					<path id="t5005" class="st2" d="M6.7,165.7l-0.3,0.9l0.3,0c0.8,0,1.3,0.7,1.3,1.4c0,0.9-0.7,1.5-1.5,1.5c-0.5,0-1-0.3-1.2-0.7
						l0.4-0.4c0.1,0.4,0.5,0.6,0.9,0.6c0.6,0,1-0.5,1-1c0-0.5-0.4-1-1-1c-0.3,0-0.6,0.1-0.8,0.4H5.7l0.6-2.1H8v0.5H6.7z M8.5,167.3
						c0-0.9,0.4-2.2,1.4-2.2s1.4,1.3,1.4,2.2c0,0.8-0.4,2.2-1.4,2.2S8.5,168.1,8.5,167.3z M9,167.3c0,0.6,0.2,1.7,0.9,1.7
						s0.9-1.1,0.9-1.7s-0.2-1.7-0.9-1.7S9,166.7,9,167.3z M11.8,167.3c0-0.9,0.4-2.2,1.4-2.2s1.4,1.3,1.4,2.2c0,0.8-0.4,2.2-1.4,2.2
						S11.8,168.1,11.8,167.3z M12.3,167.3c0,0.6,0.2,1.7,0.9,1.7s0.9-1.1,0.9-1.7s-0.2-1.7-0.9-1.7S12.3,166.7,12.3,167.3z
						 M16.3,165.7l-0.3,0.9l0.3,0c0.8,0,1.3,0.7,1.3,1.4c0,0.9-0.7,1.5-1.5,1.5c-0.5,0-1-0.3-1.2-0.7l0.4-0.4
						c0.1,0.4,0.5,0.6,0.9,0.6c0.5,0,1-0.5,1-1c0-0.5-0.4-1-1-1c-0.3,0-0.6,0.1-0.8,0.4h-0.1l0.6-2.1h1.6v0.5H16.3z"/>
				</g>
			</g>
			<g id="g5004">
				<g id="h5004">
					<path id="b5004" class="st3" d="M3.6,162.5h18.2v-10.1H3.6C3.6,155.3,3.6,158.9,3.6,162.5z"/>
					<path id="t5004" class="st2" d="M7.6,155.8l-0.3,0.9l0.3,0c0.8,0,1.3,0.7,1.3,1.4c0,0.9-0.7,1.5-1.5,1.5c-0.5,0-1-0.3-1.2-0.7
						l0.4-0.4c0.1,0.4,0.5,0.6,0.9,0.6c0.5,0,1-0.5,1-1c0-0.5-0.4-1-1-1c-0.3,0-0.6,0.1-0.8,0.4H6.6l0.6-2.1h1.6v0.5H7.6z
						 M9.4,157.4c0-0.9,0.4-2.2,1.4-2.2s1.4,1.3,1.4,2.2c0,0.8-0.4,2.2-1.4,2.2S9.4,158.3,9.4,157.4z M9.9,157.4
						c0,0.6,0.2,1.7,0.9,1.7s0.9-1.1,0.9-1.7s-0.2-1.7-0.9-1.7S9.9,156.8,9.9,157.4z M12.7,157.4c0-0.9,0.4-2.2,1.4-2.2
						s1.4,1.3,1.4,2.2c0,0.8-0.4,2.2-1.4,2.2S12.7,158.3,12.7,157.4z M13.2,157.4c0,0.6,0.2,1.7,0.9,1.7s0.9-1.1,0.9-1.7
						s-0.2-1.7-0.9-1.7S13.2,156.8,13.2,157.4z M18.7,158.4v0.5h-0.5v0.6h-0.5v-0.6h-2l2.5-3.7v3.3H18.7z M17.8,156.7L17.8,156.7
						l-1.2,1.7h1.2V156.7z"/>
				</g>
			</g>
			<g id="g5003">
				<g id="h5003">
					<path id="b5003" class="st3" d="M3.6,142.3c0,2.2,0,5.9,0,10.1h18.2v-10.1H3.6z"/>
					<path id="t5003" class="st2" d="M7.6,145.7l-0.3,0.9l0.3,0c0.8,0,1.3,0.7,1.3,1.4c0,0.9-0.7,1.5-1.5,1.5c-0.5,0-1-0.3-1.2-0.7
						l0.4-0.4c0.1,0.4,0.5,0.6,0.9,0.6c0.5,0,1-0.5,1-1c0-0.5-0.4-1-1-1c-0.3,0-0.6,0.1-0.8,0.4H6.7l0.6-2.1h1.6v0.5H7.6z
						 M9.4,147.3c0-0.9,0.4-2.2,1.4-2.2s1.4,1.3,1.4,2.2c0,0.8-0.4,2.2-1.4,2.2S9.4,148.1,9.4,147.3z M9.9,147.3
						c0,0.6,0.2,1.7,0.9,1.7c0.7,0,0.9-1.1,0.9-1.7s-0.2-1.7-0.9-1.7S9.9,146.7,9.9,147.3z M12.7,147.3c0-0.9,0.4-2.2,1.4-2.2
						s1.4,1.3,1.4,2.2c0,0.8-0.4,2.2-1.4,2.2S12.7,148.1,12.7,147.3z M13.2,147.3c0,0.6,0.2,1.7,0.9,1.7s0.9-1.1,0.9-1.7
						s-0.2-1.7-0.9-1.7S13.2,146.7,13.2,147.3z M17.2,146.9c0.4,0,0.8-0.2,0.8-0.7c0-0.4-0.3-0.7-0.7-0.7c-0.4,0-0.6,0.2-0.7,0.6
						h-0.5c0.1-0.7,0.5-1,1.2-1c0.6,0,1.2,0.4,1.2,1.1c0,0.4-0.2,0.7-0.5,0.9c0.4,0.2,0.6,0.6,0.6,1c0,0.8-0.6,1.2-1.3,1.2
						c-0.6,0-1.2-0.4-1.2-1.1h0.5c0,0.4,0.4,0.7,0.8,0.7c0.5,0,0.8-0.4,0.8-0.8c0-0.5-0.4-0.8-0.9-0.8L17.2,146.9L17.2,146.9z"/>
				</g>
			</g>
			<g id="g5002">
				<g id="h5002">
					<path id="b5002" class="st3" d="M24,132.3H5.5c0,2.7-0.1,6.1-0.1,10c0,0,0,0,0,0.1H24L24,132.3L24,132.3z"/>
					<path id="t5002" class="st2" d="M9.8,135.6l-0.3,0.9l0.3,0c0.8,0,1.3,0.7,1.3,1.4c0,0.9-0.7,1.5-1.5,1.5c-0.5,0-1-0.3-1.2-0.7
						l0.4-0.4c0.1,0.4,0.5,0.6,0.9,0.6c0.5,0,1-0.5,1-1c0-0.5-0.4-1-1-1c-0.3,0-0.6,0.1-0.8,0.4H8.8l0.6-2.1h1.6v0.5L9.8,135.6
						L9.8,135.6z M11.6,137.2c0-0.9,0.4-2.2,1.4-2.2c1.1,0,1.4,1.3,1.4,2.2c0,0.8-0.4,2.2-1.4,2.2C11.9,139.4,11.6,138.1,11.6,137.2
						z M12,137.2c0,0.6,0.2,1.7,0.9,1.7s0.9-1.1,0.9-1.7s-0.2-1.7-0.9-1.7S12,136.6,12,137.2z M14.9,137.2c0-0.9,0.4-2.2,1.4-2.2
						s1.4,1.3,1.4,2.2c0,0.8-0.4,2.2-1.4,2.2S14.9,138.1,14.9,137.2z M15.4,137.2c0,0.6,0.2,1.7,0.9,1.7c0.7,0,0.9-1.1,0.9-1.7
						s-0.2-1.7-0.9-1.7C15.6,135.5,15.4,136.6,15.4,137.2z M20.7,138.8v0.5h-2.6l1.8-2.2c0.2-0.2,0.4-0.5,0.4-0.7
						c0-0.4-0.4-0.8-0.8-0.8c-0.4,0-0.8,0.3-0.8,0.8h-0.5c0.1-0.7,0.5-1.2,1.3-1.2c0.7,0,1.3,0.5,1.3,1.2c0,0.3-0.1,0.6-0.3,0.9
						l-1.3,1.7H20.7z"/>
				</g>
			</g>
			<g id="g5001">
				<g id="h5001">
					<path id="b5001" class="st3" d="M24,122.4H6.6c0,0-0.1,3.1-0.2,9.9H24C24,132.3,24,122.4,24,122.4z"/>
					<path id="t5001" class="st2" d="M10.5,125.8l-0.3,0.9l0.3,0c0.8,0,1.3,0.7,1.3,1.4c0,0.9-0.7,1.5-1.5,1.5c-0.5,0-1-0.3-1.2-0.7
						l0.4-0.4c0.1,0.4,0.5,0.6,0.9,0.6c0.5,0,1-0.5,1-1c0-0.5-0.4-1-1-1c-0.3,0-0.6,0.1-0.8,0.4H9.5l0.6-2.1h1.6v0.5
						C11.8,125.8,10.5,125.8,10.5,125.8z M12.3,127.4c0-0.9,0.4-2.2,1.4-2.2s1.4,1.3,1.4,2.2c0,0.8-0.4,2.2-1.4,2.2
						S12.3,128.2,12.3,127.4z M12.8,127.4c0,0.6,0.2,1.7,0.9,1.7c0.7,0,0.9-1.1,0.9-1.7s-0.2-1.7-0.9-1.7
						C13,125.7,12.8,126.8,12.8,127.4z M15.6,127.4c0-0.9,0.4-2.2,1.4-2.2s1.4,1.3,1.4,2.2c0,0.8-0.4,2.2-1.4,2.2
						S15.6,128.2,15.6,127.4z M16.1,127.4c0,0.6,0.2,1.7,0.9,1.7s0.9-1.1,0.9-1.7s-0.2-1.7-0.9-1.7S16.1,126.8,16.1,127.4z
						 M18.9,125.8l0.3-0.5h0.9v4.1h-0.5v-3.7H18.9z"/>
				</g>
			</g>
			<g id="g5011">
				<g id="h5011">
					<path id="b5011" class="st3" d="M0.4,231.6h19.7v-10.1H0.4C0.4,227.7,0.4,231.6,0.4,231.6z"/>
					<path id="t5011" class="st2" d="M6,224.9l-0.3,0.9l0.3,0c0.8,0,1.3,0.7,1.3,1.4c0,0.9-0.7,1.5-1.5,1.5c-0.5,0-1-0.3-1.2-0.7
						l0.4-0.4c0.1,0.4,0.5,0.6,0.9,0.6c0.5,0,1-0.5,1-1c0-0.5-0.4-1-1-1c-0.3,0-0.6,0.1-0.8,0.4H5l0.6-2.1h1.6v0.5L6,224.9L6,224.9z
						 M7.8,226.5c0-0.9,0.4-2.2,1.4-2.2s1.4,1.3,1.4,2.2c0,0.8-0.4,2.2-1.4,2.2S7.8,227.3,7.8,226.5z M8.3,226.5
						c0,0.6,0.2,1.7,0.9,1.7s0.9-1.1,0.9-1.7s-0.2-1.7-0.9-1.7S8.3,225.9,8.3,226.5z M11.2,224.9l0.3-0.5h0.9v4.1h-0.5v-3.7
						L11.2,224.9L11.2,224.9z M13.7,224.9l0.3-0.5h0.9v4.1h-0.5v-3.7L13.7,224.9L13.7,224.9z"/>
				</g>
			</g>
			<g id="g5012">
				<g id="h5012">
					<path id="b5012" class="st3" d="M0.4,243.4h19.7v-11.9H0.4C0.4,237.8,0.4,243.4,0.4,243.4z"/>
					<path id="t5012" class="st2" d="M5.9,235.9l-0.3,0.9l0.3,0c0.8,0,1.3,0.7,1.3,1.4c0,0.9-0.7,1.5-1.5,1.5c-0.5,0-1-0.3-1.2-0.7
						l0.4-0.4c0.1,0.4,0.5,0.6,0.9,0.6c0.5,0,1-0.5,1-1c0-0.5-0.4-1-1-1c-0.3,0-0.6,0.1-0.8,0.4H5l0.6-2.1h1.6v0.5H5.9z M7.7,237.5
						c0-0.9,0.4-2.2,1.4-2.2s1.4,1.3,1.4,2.2c0,0.8-0.4,2.2-1.4,2.2S7.7,238.4,7.7,237.5z M8.2,237.5c0,0.6,0.2,1.7,0.9,1.7
						s0.9-1.1,0.9-1.7s-0.2-1.7-0.9-1.7S8.2,237,8.2,237.5z M11.1,235.9l0.3-0.5h0.9v4.1h-0.5v-3.7L11.1,235.9L11.1,235.9z
						 M16,239.1v0.5h-2.6l1.8-2.2c0.2-0.2,0.4-0.5,0.4-0.7c0-0.4-0.4-0.8-0.8-0.8c-0.4,0-0.8,0.3-0.8,0.8h-0.5
						c0.1-0.7,0.5-1.2,1.3-1.2c0.7,0,1.3,0.5,1.3,1.2c0,0.3-0.1,0.6-0.3,0.9l-1.3,1.7L16,239.1L16,239.1z"/>
				</g>
			</g>
			<g id="g5013">
				<g id="h5013">
					<path id="b5013" class="st3" d="M0.4,255.2h19.7v-11.8H0.4C0.4,249.7,0.4,255.2,0.4,255.2z"/>
					<path id="t5013" class="st2" d="M5.9,247.8l-0.3,0.9l0.3,0c0.8,0,1.3,0.7,1.3,1.4c0,0.9-0.7,1.5-1.5,1.5c-0.5,0-1-0.3-1.2-0.7
						l0.4-0.4c0.1,0.4,0.5,0.6,0.9,0.6c0.5,0,1-0.5,1-1c0-0.5-0.4-1-1-1c-0.3,0-0.6,0.1-0.8,0.4H4.9l0.6-2.1h1.6v0.5H5.9z
						 M7.7,249.4c0-0.9,0.4-2.2,1.4-2.2s1.4,1.3,1.4,2.2c0,0.8-0.4,2.2-1.4,2.2S7.7,250.3,7.7,249.4z M8.2,249.4
						c0,0.6,0.2,1.7,0.9,1.7s0.9-1.1,0.9-1.7s-0.2-1.7-0.9-1.7S8.2,248.9,8.2,249.4z M11.1,247.8l0.3-0.5h0.9v4.1h-0.5v-3.7
						L11.1,247.8L11.1,247.8z M14.6,249.1c0.4,0,0.8-0.2,0.8-0.7c0-0.4-0.3-0.7-0.7-0.7c-0.4,0-0.6,0.2-0.7,0.6h-0.5
						c0.1-0.7,0.5-1,1.2-1c0.6,0,1.2,0.4,1.2,1.1c0,0.4-0.2,0.7-0.5,0.9c0.4,0.2,0.6,0.6,0.6,1c0,0.8-0.6,1.2-1.3,1.2
						c-0.6,0-1.2-0.4-1.2-1.1h0.5c0,0.4,0.4,0.7,0.8,0.7c0.5,0,0.8-0.4,0.8-0.8c0-0.5-0.4-0.8-0.9-0.8L14.6,249.1L14.6,249.1z"/>
				</g>
			</g>
			<g id="g5014">
				<g id="h5014">
					<path id="b5014" class="st3" d="M0.4,265.6h19.7v-10.4H0.4C0.4,261.5,0.4,265.6,0.4,265.6z"/>
					<path id="t5014" class="st2" d="M5.9,258.8l-0.3,0.9l0.3,0c0.8,0,1.3,0.7,1.3,1.5c0,0.9-0.7,1.5-1.5,1.5c-0.5,0-1-0.3-1.2-0.7
						l0.4-0.4c0.1,0.4,0.5,0.6,0.9,0.6c0.6,0,1-0.5,1-1c0-0.5-0.4-1-1-1c-0.3,0-0.6,0.1-0.8,0.4H4.9l0.6-2.1h1.6v0.5L5.9,258.8
						L5.9,258.8z M7.7,260.4c0-0.9,0.4-2.2,1.4-2.2s1.4,1.3,1.4,2.2c0,0.8-0.4,2.2-1.4,2.2S7.7,261.2,7.7,260.4z M8.1,260.3
						c0,0.6,0.2,1.7,0.9,1.7s0.9-1.1,0.9-1.7s-0.2-1.7-0.9-1.7C8.3,258.6,8.1,259.8,8.1,260.3z M11,258.8l0.3-0.5h0.9v4.1h-0.5v-3.7
						H11z M16.1,261.4v0.5h-0.5v0.6h-0.5v-0.6h-2l2.5-3.7v3.3H16.1z M15.2,259.7L15.2,259.7l-1.2,1.7h1.2V259.7z"/>
				</g>
			</g>
			<g id="g5210">
				<g id="h5210">
					<rect id="b5210" x="94.4" y="211" class="st3" width="19.7" height="10.4"/>
					<path id="t5210" class="st2" d="M100.3,214.5l-0.3,0.9l0.3,0c0.8,0,1.3,0.7,1.3,1.4c0,0.9-0.7,1.5-1.5,1.5
						c-0.5,0-1-0.3-1.2-0.7l0.4-0.4c0.1,0.4,0.5,0.6,0.9,0.6c0.5,0,1-0.5,1-1c0-0.5-0.4-1-1-1c-0.3,0-0.6,0.1-0.8,0.4h-0.1l0.6-2.1
						h1.6v0.5L100.3,214.5L100.3,214.5z M104.6,217.7v0.5H102l1.8-2.2c0.2-0.2,0.4-0.5,0.4-0.7c0-0.4-0.4-0.8-0.8-0.8
						c-0.4,0-0.8,0.3-0.8,0.8H102c0.1-0.7,0.6-1.2,1.3-1.2c0.7,0,1.3,0.5,1.3,1.2c0,0.3-0.1,0.6-0.3,0.9l-1.3,1.7H104.6z
						 M105.3,214.5l0.3-0.5h0.9v4.1H106v-3.7L105.3,214.5L105.3,214.5z M107.6,216.1c0-0.9,0.4-2.2,1.4-2.2c1.1,0,1.4,1.3,1.4,2.2
						c0,0.8-0.4,2.2-1.4,2.2S107.6,217,107.6,216.1z M108.1,216.1c0,0.6,0.2,1.7,0.9,1.7c0.7,0,0.9-1.1,0.9-1.7s-0.2-1.7-0.9-1.7
						C108.3,214.4,108.1,215.6,108.1,216.1z"/>
				</g>
			</g>
			<g id="g5211">
				<g id="h5211">
					<rect id="b5211" x="94.4" y="221.5" class="st3" width="19.7" height="10.1"/>
					<path id="t5211" class="st2" d="M100.5,225l-0.3,0.9l0.3,0c0.8,0,1.3,0.7,1.3,1.4c0,0.9-0.7,1.5-1.5,1.5c-0.5,0-1-0.3-1.2-0.7
						l0.4-0.4c0.1,0.4,0.5,0.6,0.9,0.6c0.5,0,1-0.5,1-1c0-0.5-0.4-1-1-1c-0.3,0-0.6,0.1-0.8,0.4h-0.1l0.6-2.1h1.6v0.5H100.5z
						 M104.8,228.2v0.5h-2.6l1.8-2.2c0.2-0.2,0.4-0.5,0.4-0.7c0-0.4-0.4-0.8-0.8-0.8c-0.4,0-0.8,0.3-0.8,0.8h-0.5
						c0.1-0.7,0.6-1.2,1.3-1.2c0.7,0,1.3,0.5,1.3,1.2c0,0.3-0.1,0.6-0.3,0.9l-1.3,1.7L104.8,228.2L104.8,228.2z M105.5,225l0.3-0.5
						h0.9v4.1h-0.5V225L105.5,225L105.5,225z M108,225l0.3-0.5h0.9v4.1h-0.5V225L108,225L108,225z"/>
				</g>
			</g>
			<g id="g5212">
				<g id="h5212">
					<rect id="b5212" x="94.4" y="231.6" class="st3" width="19.7" height="11.9"/>
					<path id="t5212" class="st2" d="M100.4,235.6l-0.3,0.9l0.3,0c0.8,0,1.3,0.7,1.3,1.4c0,0.9-0.7,1.5-1.5,1.5
						c-0.5,0-1-0.3-1.2-0.7l0.4-0.4c0.1,0.4,0.5,0.6,0.9,0.6c0.6,0,1-0.5,1-1c0-0.5-0.4-1-1-1c-0.3,0-0.6,0.1-0.8,0.4h-0.1l0.6-2.1
						h1.6v0.5L100.4,235.6L100.4,235.6z M104.7,238.8v0.5h-2.6l1.8-2.2c0.2-0.2,0.4-0.5,0.4-0.7c0-0.4-0.4-0.8-0.8-0.8
						c-0.4,0-0.8,0.3-0.8,0.8h-0.5c0.1-0.7,0.6-1.2,1.3-1.2c0.7,0,1.3,0.5,1.3,1.2c0,0.3-0.1,0.6-0.3,0.9l-1.3,1.7H104.7z
						 M105.4,235.6l0.3-0.5h0.9v4.1h-0.5v-3.7L105.4,235.6L105.4,235.6z M110.3,238.8v0.5h-2.6l1.8-2.2c0.2-0.2,0.4-0.5,0.4-0.7
						c0-0.4-0.4-0.8-0.8-0.8c-0.4,0-0.8,0.3-0.8,0.8h-0.5c0.1-0.7,0.6-1.2,1.3-1.2c0.7,0,1.3,0.5,1.3,1.2c0,0.3-0.1,0.6-0.3,0.9
						l-1.3,1.7H110.3z"/>
				</g>
			</g>
			<g id="g5213">
				<g id="h5213">
					<rect id="b5213" x="94.4" y="243.4" class="st3" width="19.7" height="11.9"/>
					<path id="t5213" class="st2" d="M100.4,247.4l-0.3,0.9l0.3,0c0.8,0,1.3,0.7,1.3,1.4c0,0.9-0.7,1.5-1.5,1.5
						c-0.5,0-1-0.3-1.2-0.7l0.4-0.4c0.1,0.4,0.5,0.6,0.9,0.6c0.6,0,1-0.5,1-1c0-0.5-0.4-1-1-1c-0.3,0-0.6,0.1-0.8,0.4h-0.1l0.6-2.1
						h1.6v0.5H100.4z M104.7,250.6v0.5h-2.6l1.8-2.2c0.2-0.2,0.4-0.5,0.4-0.7c0-0.4-0.4-0.8-0.8-0.8c-0.4,0-0.8,0.3-0.8,0.8h-0.5
						c0.1-0.7,0.5-1.2,1.3-1.2c0.7,0,1.3,0.5,1.3,1.2c0,0.3-0.1,0.6-0.3,0.9l-1.3,1.7L104.7,250.6L104.7,250.6z M105.4,247.4
						l0.3-0.5h0.9v4.1h-0.5v-3.7L105.4,247.4L105.4,247.4z M108.9,248.7c0.4,0,0.8-0.2,0.8-0.7c0-0.4-0.3-0.7-0.7-0.7
						c-0.4,0-0.6,0.2-0.7,0.6h-0.5c0.1-0.7,0.5-1,1.2-1c0.6,0,1.2,0.4,1.2,1.1c0,0.4-0.2,0.7-0.5,0.9c0.4,0.2,0.6,0.6,0.6,1
						c0,0.8-0.6,1.2-1.3,1.2c-0.6,0-1.2-0.4-1.2-1.1h0.5c0,0.4,0.4,0.7,0.8,0.7c0.5,0,0.8-0.4,0.8-0.8c0-0.5-0.4-0.8-0.9-0.8
						L108.9,248.7L108.9,248.7z"/>
				</g>
			</g>
			<g id="g5214">
				<g id="h5214">
					<rect id="b5214" x="94.4" y="255.3" class="st3" width="19.7" height="10.4"/>
					<path id="t5214" class="st2" d="M100.3,258.8l-0.3,0.9l0.3,0c0.8,0,1.3,0.7,1.3,1.5c0,0.9-0.7,1.5-1.5,1.5
						c-0.5,0-1-0.3-1.2-0.7l0.4-0.4c0.1,0.4,0.5,0.6,0.9,0.6c0.5,0,1-0.5,1-1c0-0.5-0.4-1-1-1c-0.3,0-0.6,0.1-0.8,0.4h-0.1l0.6-2.1
						h1.6v0.5L100.3,258.8L100.3,258.8z M104.6,262v0.5H102l1.8-2.2c0.2-0.2,0.4-0.5,0.4-0.7c0-0.4-0.4-0.8-0.8-0.8
						c-0.4,0-0.8,0.3-0.8,0.8h-0.5c0.1-0.7,0.6-1.2,1.3-1.2c0.7,0,1.3,0.5,1.3,1.2c0,0.3-0.1,0.6-0.3,0.9L103,262L104.6,262
						L104.6,262z M105.3,258.8l0.3-0.5h0.9v4.1H106v-3.7H105.3z M110.4,261.4v0.5H110v0.6h-0.5v-0.6h-2l2.5-3.7v3.3H110.4z
						 M109.5,259.7L109.5,259.7l-1.2,1.7h1.2L109.5,259.7L109.5,259.7z"/>
				</g>
			</g>
			<g id="g5209">
				<g id="h5209">
					<rect id="b5209" x="94.4" y="201.5" class="st3" width="19.7" height="9.5"/>
					<line id="d5209" class="st4" x1="94.7" y1="201.5" x2="114.2" y2="201.5"/>
					<path id="t5209" class="st2" d="M100,204.7l-0.3,0.9l0.3,0c0.8,0,1.3,0.7,1.3,1.4c0,0.9-0.7,1.5-1.5,1.5c-0.5,0-1-0.3-1.2-0.7
						l0.4-0.4c0.1,0.4,0.5,0.6,0.9,0.6c0.6,0,1-0.5,1-1c0-0.5-0.4-1-1-1c-0.3,0-0.6,0.1-0.8,0.4H99l0.6-2.1h1.6v0.5H100z
						 M104.3,207.9v0.5h-2.6l1.8-2.2c0.2-0.2,0.4-0.5,0.4-0.7c0-0.4-0.4-0.8-0.8-0.8c-0.4,0-0.8,0.3-0.8,0.8h-0.5
						c0.1-0.7,0.6-1.2,1.3-1.2c0.7,0,1.3,0.5,1.3,1.2c0,0.3-0.1,0.6-0.3,0.9l-1.3,1.7L104.3,207.9L104.3,207.9z M104.8,206.3
						c0-0.9,0.4-2.2,1.4-2.2s1.4,1.3,1.4,2.2c0,0.8-0.4,2.2-1.4,2.2S104.8,207.1,104.8,206.3z M105.2,206.3c0,0.6,0.2,1.7,0.9,1.7
						s0.9-1.1,0.9-1.7s-0.2-1.7-0.9-1.7S105.2,205.7,105.2,206.3z M108.6,208.2l1.1-1.5l0,0c-0.1,0.1-0.3,0.1-0.4,0.1
						c-0.7,0-1.2-0.6-1.2-1.3c0-0.8,0.6-1.4,1.3-1.4c0.7,0,1.4,0.6,1.4,1.3c0,0.4-0.2,0.8-0.4,1.1l-1.4,1.9L108.6,208.2z
						 M110.3,205.4c0-0.4-0.4-0.9-0.8-0.9c-0.5,0-0.9,0.4-0.9,0.9c0,0.5,0.4,0.9,0.9,0.9C109.9,206.3,110.3,205.9,110.3,205.4z"/>
				</g>
			</g>
			<g id="g5208">
				<g id="h5208">
					<rect id="b5208" x="94.4" y="191.7" class="st3" width="19.7" height="9.8"/>
					<line id="d5208" class="st4" x1="94.7" y1="201.5" x2="114.2" y2="201.5"/>
					<path id="t5208" class="st2" d="M99.6,195l-0.3,0.9l0.3,0c0.8,0,1.3,0.7,1.3,1.4c0,0.9-0.7,1.5-1.5,1.5c-0.5,0-1-0.3-1.2-0.7
						l0.4-0.4c0.1,0.4,0.5,0.6,0.9,0.6c0.6,0,1-0.5,1-1c0-0.5-0.4-1-1-1c-0.3,0-0.6,0.1-0.8,0.4h-0.1l0.6-2.1h1.6v0.5H99.6z
						 M103.9,198.2v0.5h-2.6l1.8-2.2c0.2-0.2,0.4-0.5,0.4-0.7c0-0.4-0.4-0.8-0.8-0.8c-0.4,0-0.8,0.3-0.8,0.8h-0.5
						c0.1-0.7,0.5-1.2,1.3-1.2c0.7,0,1.3,0.5,1.3,1.2c0,0.3-0.1,0.6-0.3,0.9l-1.3,1.7L103.9,198.2L103.9,198.2z M104.3,196.6
						c0-0.9,0.4-2.2,1.4-2.2c1.1,0,1.4,1.3,1.4,2.2c0,0.8-0.4,2.2-1.4,2.2C104.7,198.8,104.3,197.4,104.3,196.6z M104.8,196.6
						c0,0.6,0.2,1.7,0.9,1.7c0.7,0,0.9-1.1,0.9-1.7s-0.2-1.7-0.9-1.7C105,194.9,104.8,196,104.8,196.6z M108.3,196.5
						c-0.3-0.2-0.5-0.5-0.5-0.9c0-0.7,0.5-1.2,1.2-1.2s1.2,0.5,1.2,1.2c0,0.4-0.2,0.7-0.5,0.9c0.4,0.1,0.6,0.5,0.6,1
						c0,0.8-0.6,1.2-1.3,1.2s-1.3-0.5-1.3-1.2C107.7,197.1,107.9,196.7,108.3,196.5z M108.2,197.5c0,0.4,0.4,0.8,0.8,0.8
						s0.8-0.4,0.8-0.8c0-0.4-0.4-0.8-0.8-0.8S108.2,197.1,108.2,197.5z M108.3,195.6c0,0.3,0.4,0.7,0.7,0.7c0.3,0,0.7-0.4,0.7-0.7
						c0-0.4-0.3-0.7-0.7-0.7S108.3,195.2,108.3,195.6z"/>
				</g>
			</g>
			<g id="g5009">
				<g id="h5009">
					<path id="b5009" class="st3" d="M0.4,211h19.7v-9.4H0.4C0.4,205.4,0.4,208.1,0.4,211z"/>
					<line id="d5009" class="st4" x1="0.4" y1="201.6" x2="19.8" y2="201.6"/>
					<path id="t5009" class="st2" d="M5.1,204.8l-0.3,0.9l0.3,0c0.8,0,1.3,0.7,1.3,1.4c0,0.9-0.7,1.5-1.5,1.5c-0.5,0-1-0.3-1.2-0.7
						l0.4-0.4c0.1,0.4,0.5,0.6,0.9,0.6c0.5,0,1-0.5,1-1c0-0.5-0.4-1-1-1c-0.3,0-0.6,0.1-0.8,0.4H4.1l0.6-2.1h1.6v0.5H5.1z
						 M6.8,206.4c0-0.9,0.4-2.2,1.4-2.2s1.4,1.3,1.4,2.2c0,0.8-0.4,2.2-1.4,2.2S6.8,207.2,6.8,206.4z M7.3,206.4
						c0,0.6,0.2,1.7,0.9,1.7s0.9-1.1,0.9-1.7s-0.2-1.7-0.9-1.7S7.3,205.8,7.3,206.4z M10.1,206.4c0-0.9,0.4-2.2,1.4-2.2
						s1.4,1.3,1.4,2.2c0,0.8-0.4,2.2-1.4,2.2S10.1,207.2,10.1,206.4z M10.6,206.4c0,0.6,0.2,1.7,0.9,1.7c0.7,0,0.9-1.1,0.9-1.7
						s-0.2-1.7-0.9-1.7C10.8,204.7,10.6,205.8,10.6,206.4z M13.9,208.3l1.1-1.5l0,0c-0.1,0.1-0.3,0.1-0.4,0.1
						c-0.7,0-1.2-0.6-1.2-1.3c0-0.8,0.6-1.4,1.3-1.4c0.7,0,1.4,0.6,1.4,1.3c0,0.4-0.2,0.8-0.4,1.1l-1.4,1.9L13.9,208.3z M15.6,205.5
						c0-0.4-0.4-0.9-0.8-0.9c-0.5,0-0.9,0.4-0.9,0.9c0,0.5,0.4,0.9,0.9,0.9C15.3,206.4,15.6,206,15.6,205.5z"/>
				</g>
			</g>
			<g id="g5008">
				<g id="h5008">
					<path id="b5008" class="st3" d="M0.4,201.6h19.7v-9.8H0.4C0.4,195.3,0.4,198.5,0.4,201.6z"/>
					<line id="d5008" class="st4" x1="0.4" y1="201.6" x2="19.8" y2="201.6"/>
					<path id="t5008" class="st2" d="M5.4,195.2L5.2,196l0.3,0c0.8,0,1.3,0.7,1.3,1.4c0,0.9-0.7,1.5-1.5,1.5c-0.5,0-1-0.3-1.2-0.7
						l0.4-0.4c0.1,0.4,0.5,0.6,0.9,0.6c0.5,0,1-0.5,1-1c0-0.5-0.4-1-1-1c-0.3,0-0.6,0.1-0.8,0.4H4.5l0.6-2.1h1.6v0.5H5.4z
						 M7.2,196.8c0-0.9,0.4-2.2,1.4-2.2s1.4,1.3,1.4,2.2c0,0.8-0.4,2.2-1.4,2.2S7.2,197.6,7.2,196.8z M7.7,196.8
						c0,0.6,0.2,1.7,0.9,1.7s0.9-1.1,0.9-1.7S9.3,195,8.6,195S7.7,196.2,7.7,196.8z M10.5,196.8c0-0.9,0.4-2.2,1.4-2.2
						s1.4,1.3,1.4,2.2c0,0.8-0.4,2.2-1.4,2.2S10.5,197.6,10.5,196.8z M11,196.8c0,0.6,0.2,1.7,0.9,1.7c0.7,0,0.9-1.1,0.9-1.7
						s-0.2-1.7-0.9-1.7S11,196.2,11,196.8z M14.5,196.7c-0.3-0.2-0.5-0.5-0.5-0.9c0-0.7,0.5-1.2,1.2-1.2c0.6,0,1.2,0.5,1.2,1.2
						c0,0.4-0.2,0.7-0.5,0.9c0.4,0.1,0.6,0.5,0.6,1c0,0.8-0.6,1.2-1.3,1.2s-1.3-0.5-1.3-1.2C13.9,197.2,14.1,196.8,14.5,196.7z
						 M14.4,197.7c0,0.4,0.4,0.8,0.8,0.8c0.4,0,0.8-0.4,0.8-0.8c0-0.4-0.4-0.8-0.8-0.8C14.7,196.9,14.4,197.2,14.4,197.7z
						 M14.5,195.8c0,0.3,0.4,0.7,0.7,0.7s0.7-0.4,0.7-0.7c0-0.4-0.3-0.7-0.7-0.7S14.5,195.4,14.5,195.8z"/>
				</g>
			</g>
		</g>
	</g>
</g>
<g id="SUN_DECK_05_TOP">
	<g id="gDeck05Locations">
		<path width="113.692" height="286.99" id="_x30_5Aft" class="st5" d="M0.5,847c0,10,32.8,13.8,56.8,13.8s56.8-3.8,56.8-13.8c0-4.6,0-131.5,0-273.2H0.5
			C0.5,715.5,0.5,842.4,0.5,847z"/>
		<path width="113.692" height="301.087" id="_x30_5MidShip" class="st5" d="M0.5,272.7c0,77.9,0,193.8,0,301.1h113.7c0-107.3,0-223.2,0-301.1H0.5z"/>
		<path width="113.692" height="272.173" id="_x30_5Forward" class="st5" d="M114.2,187c0-97-41-171.3-48.5-181.4c-2.9-3.9-5.8-5.1-8.3-5.1c-2.5,0-5.4,1.2-8.3,5.1
			C41.5,15.7,0.5,90,0.5,187c0,12.5,0,43.5,0,85.7h113.7C114.2,230.5,114.2,199.5,114.2,187z"/>
	</g>
	<path class="st6" d="M57.3,860.8c24,0,56.8-3.8,56.8-13.8s0-594,0-660c0-97-41-171.3-48.5-181.4c-2.9-3.9-5.8-5.1-8.3-5.1
		c-2.5,0-5.4,1.2-8.3,5.1C41.5,15.7,0.5,90,0.5,187c0,66,0,650,0,660S33.3,860.8,57.3,860.8z"/>
</g>
</svg>
