<?xml version="1.0" encoding="utf-8"?>
<!-- Generator: Adobe Illustrator 25.4.1, SVG Export Plug-In . SVG Version: 6.00 Build 0)  -->
<svg version="1.1" id="SUN_DECK_12" xmlns="http://www.w3.org/2000/svg" xmlns:xlink="http://www.w3.org/1999/xlink" x="0px"
	 y="0px" width="124.3px" height="746.2px" viewBox="0 0 124.3 746.2" style="enable-background:new 0 0 124.3 746.2;"
	 xml:space="preserve">
<style type="text/css">
	.st0{fill:#FFFFFF;}
	.st1{fill:#CCDDE2;}
	.st2{fill:none;}
	.st3{fill:none;stroke:#D5DCE0;stroke-width:0.5;}
	.st4{fill:#6E8496;}
	.st5{fill:none;stroke:#076FA0;stroke-miterlimit:10;}
</style>
<g id="SUN_DECK_12_BOTTOM">
	<path class="st0" d="M0.5,729.3c0,0,8.3,16.2,61.3,16.2s61.8-16,61.8-16s0-658.2,0-676.5c0-0.2,0-0.4,0-0.4l0.1-26.3
		c0,0-22.4-25.8-61.9-25.8S0.5,26.4,0.5,26.4L0.5,729.3z"/>
	<path class="st1" d="M116.9,108.9c-0.8,0-1.3,0.1-1.7,0.3c1.2,0,2.3,0,3.4,0C118.2,109.1,117.7,108.9,116.9,108.9z"/>
	<path class="st1" d="M109.7,108.9c-0.8,0-1.3,0.1-1.7,0.3c1,0,2.2,0,3.4,0C111,109.1,110.5,108.9,109.7,108.9z"/>
	<path class="st2" d="M107.8,124.4c0.5-0.2,1-0.4,1.9-0.4s1.4,0.2,1.9,0.4c0.4,0.2,0.8,0.4,1.7,0.4c0.8,0,1.3-0.2,1.7-0.4
		c0.5-0.2,1-0.4,1.9-0.4s1.4,0.2,1.9,0.4c0.4,0.2,0.7,0.3,1.4,0.3v-0.9c-0.7,0-1.2-0.2-1.6-0.4c-0.4-0.2-0.8-0.4-1.7-0.4
		c-0.8,0-1.3,0.2-1.7,0.4c-0.5,0.2-1,0.4-1.9,0.4s-1.4-0.2-1.9-0.4c-0.4-0.2-0.8-0.4-1.7-0.4c-0.8,0-1.3,0.2-1.7,0.4
		c-0.5,0.2-1,0.4-1.9,0.4c-0.6,0-1.1-0.1-1.4-0.2l0,0.9c0.4,0.1,0.8,0.2,1.4,0.2C107,124.7,107.4,124.5,107.8,124.4z"/>
	<path class="st2" d="M107.8,125.9c0.5-0.2,1-0.4,1.9-0.4s1.4,0.2,1.9,0.4c0.4,0.2,0.8,0.4,1.7,0.4c0.8,0,1.3-0.2,1.7-0.4
		c0.5-0.2,1-0.4,1.9-0.4s1.4,0.2,1.9,0.4c0.4,0.2,0.7,0.3,1.4,0.3v-0.9c-0.7,0-1.2-0.2-1.6-0.4c-0.4-0.2-0.8-0.4-1.7-0.4
		c-0.8,0-1.3,0.2-1.7,0.4c-0.5,0.2-1,0.4-1.9,0.4s-1.4-0.2-1.9-0.4c-0.4-0.2-0.8-0.4-1.7-0.4c-0.8,0-1.3,0.2-1.7,0.4
		c-0.5,0.2-1,0.4-1.9,0.4c-0.6,0-1.1-0.1-1.4-0.2l0,0.9c0.4,0.1,0.7,0.2,1.4,0.2C107,126.2,107.4,126,107.8,125.9z"/>
	<path class="st2" d="M120.2,109.7v-0.4c-0.5,0-1,0-1.6,0c0.1,0,0.2,0.1,0.2,0.1C119.2,109.5,119.6,109.6,120.2,109.7z"/>
	<path class="st2" d="M107.8,109.3c0.1,0,0.2-0.1,0.2-0.1c-1.4,0-2.6,0-3.4,0v0.2c0.4,0.1,0.8,0.3,1.5,0.3
		C107,109.7,107.4,109.5,107.8,109.3z"/>
	<path class="st2" d="M113.3,109.7c0.8,0,1.3-0.2,1.7-0.4c0.1,0,0.2-0.1,0.2-0.1c-1.3,0-2.6,0-3.9,0c0.1,0,0.2,0.1,0.2,0.1
		C112.1,109.5,112.5,109.7,113.3,109.7z"/>
	<path class="st2" d="M116.9,114c-0.8,0-1.3,0.2-1.7,0.4c-0.5,0.2-1,0.4-1.9,0.4s-1.4-0.2-1.9-0.4c-0.4-0.2-0.8-0.4-1.7-0.4
		c-0.8,0-1.3,0.2-1.7,0.4c-0.5,0.2-1,0.4-1.9,0.4c-0.7,0-1.1-0.1-1.4-0.2l0,0.9c0.4,0.1,0.8,0.3,1.4,0.3c0.8,0,1.3-0.2,1.7-0.4
		c0.5-0.2,1-0.4,1.9-0.4s1.4,0.2,1.9,0.4c0.4,0.2,0.8,0.4,1.7,0.4c0.8,0,1.3-0.2,1.7-0.4c0.5-0.2,1-0.4,1.9-0.4s1.4,0.2,1.9,0.4
		c0.4,0.2,0.7,0.3,1.4,0.3v-0.9c-0.7,0-1.2-0.2-1.6-0.4C118.2,114.2,117.8,114,116.9,114z"/>
	<path class="st2" d="M116.9,142.6c-0.8,0-1.3,0.2-1.7,0.4c-0.5,0.2-1,0.4-1.9,0.4s-1.4-0.2-1.9-0.4c-0.4-0.2-0.8-0.4-1.7-0.4
		c-0.8,0-1.3,0.2-1.7,0.4c-0.5,0.2-1,0.4-1.9,0.4c-0.4,0-0.8,0-1.1-0.1c0.2,0.3,0.5,0.5,0.9,0.5h2.4c0.3-0.1,0.8-0.2,1.4-0.2
		s1,0.1,1.4,0.2h4.5c0.3-0.1,0.8-0.2,1.4-0.2s1,0.1,1.4,0.2h0.7c0.3,0,0.6-0.1,0.8-0.4c-0.5-0.1-0.9-0.2-1.2-0.4
		C118.2,142.8,117.8,142.6,116.9,142.6z"/>
	<path class="st2" d="M116.9,139.6c-0.8,0-1.3,0.2-1.7,0.4c-0.5,0.2-1,0.4-1.9,0.4s-1.4-0.2-1.9-0.4c-0.4-0.2-0.8-0.4-1.7-0.4
		c-0.8,0-1.3,0.2-1.7,0.4c-0.5,0.2-1,0.4-1.9,0.4c-0.6,0-1-0.1-1.4-0.2l0,0.9c0.3,0.1,0.7,0.2,1.4,0.2c0.8,0,1.3-0.2,1.7-0.4
		c0.5-0.2,1-0.4,1.9-0.4s1.4,0.2,1.9,0.4c0.4,0.2,0.8,0.4,1.7,0.4c0.8,0,1.3-0.2,1.7-0.4c0.5-0.2,1-0.4,1.9-0.4s1.4,0.2,1.9,0.4
		c0.4,0.2,0.7,0.3,1.4,0.3v-0.9c-0.7,0-1.2-0.2-1.6-0.4C118.2,139.7,117.8,139.6,116.9,139.6z"/>
	<path class="st2" d="M116.9,112.5c-0.8,0-1.3,0.2-1.7,0.4c-0.5,0.2-1,0.4-1.9,0.4s-1.4-0.2-1.9-0.4c-0.4-0.2-0.8-0.4-1.7-0.4
		c-0.8,0-1.3,0.2-1.7,0.4c-0.5,0.2-1,0.4-1.9,0.4c-0.7,0-1.1-0.1-1.4-0.2l0,0.9c0.4,0.1,0.8,0.3,1.4,0.3c0.8,0,1.3-0.2,1.7-0.4
		c0.5-0.2,1-0.4,1.9-0.4s1.4,0.2,1.9,0.4c0.4,0.2,0.8,0.4,1.7,0.4c0.8,0,1.3-0.2,1.7-0.4c0.5-0.2,1-0.4,1.9-0.4s1.4,0.2,1.9,0.4
		c0.4,0.2,0.7,0.3,1.4,0.3v-0.9c-0.7,0-1.2-0.2-1.6-0.4C118.2,112.7,117.8,112.5,116.9,112.5z"/>
	<path class="st2" d="M116.9,115.5c-0.8,0-1.3,0.2-1.7,0.4c-0.5,0.2-1,0.4-1.9,0.4s-1.4-0.2-1.9-0.4c-0.4-0.2-0.8-0.4-1.7-0.4
		c-0.8,0-1.3,0.2-1.7,0.4c-0.5,0.2-1,0.4-1.9,0.4c-0.7,0-1.1-0.1-1.4-0.2l0,0.9c0.4,0.1,0.8,0.3,1.4,0.3c0.8,0,1.3-0.2,1.7-0.4
		c0.5-0.2,1-0.4,1.9-0.4s1.4,0.2,1.9,0.4c0.4,0.2,0.8,0.4,1.7,0.4c0.8,0,1.3-0.2,1.7-0.4c0.5-0.2,1-0.4,1.9-0.4s1.4,0.2,1.9,0.4
		c0.4,0.2,0.7,0.3,1.4,0.3v-0.9c-0.7,0-1.2-0.2-1.6-0.4C118.2,115.7,117.8,115.5,116.9,115.5z"/>
	<path class="st2" d="M116.9,141.1c-0.8,0-1.3,0.2-1.7,0.4c-0.5,0.2-1,0.4-1.9,0.4s-1.4-0.2-1.9-0.4c-0.4-0.2-0.8-0.4-1.7-0.4
		c-0.8,0-1.3,0.2-1.7,0.4c-0.5,0.2-1,0.4-1.9,0.4c-0.6,0-1-0.1-1.4-0.2l0,0.7c0,0.1,0,0.1,0,0.2c0.3,0.1,0.7,0.2,1.4,0.2
		c0.8,0,1.3-0.2,1.7-0.4c0.5-0.2,1-0.4,1.9-0.4s1.4,0.2,1.9,0.4c0.4,0.2,0.8,0.4,1.7,0.4c0.8,0,1.3-0.2,1.7-0.4
		c0.5-0.2,1-0.4,1.9-0.4s1.4,0.2,1.9,0.4c0.4,0.1,0.7,0.3,1.3,0.3c0-0.1,0.1-0.2,0.1-0.4v-0.5c-0.7,0-1.2-0.2-1.6-0.4
		C118.2,141.3,117.8,141.1,116.9,141.1z"/>
	<path class="st2" d="M116.9,138.1c-0.8,0-1.3,0.2-1.7,0.4c-0.5,0.2-1,0.4-1.9,0.4s-1.4-0.2-1.9-0.4c-0.4-0.2-0.8-0.4-1.7-0.4
		c-0.8,0-1.3,0.2-1.7,0.4c-0.5,0.2-1,0.4-1.9,0.4c-0.6,0-1-0.1-1.4-0.2l0,0.9c0.3,0.1,0.7,0.2,1.4,0.2c0.8,0,1.3-0.2,1.7-0.4
		c0.5-0.2,1-0.4,1.9-0.4s1.4,0.2,1.9,0.4c0.4,0.2,0.8,0.4,1.7,0.4c0.8,0,1.3-0.2,1.7-0.4c0.5-0.2,1-0.4,1.9-0.4s1.4,0.2,1.9,0.4
		c0.4,0.2,0.7,0.3,1.4,0.3v-0.9c-0.7,0-1.2-0.2-1.6-0.4C118.2,138.2,117.8,138.1,116.9,138.1z"/>
	<path class="st2" d="M116.9,111c-0.8,0-1.3,0.2-1.7,0.4c-0.5,0.2-1,0.4-1.9,0.4s-1.4-0.2-1.9-0.4c-0.4-0.2-0.8-0.4-1.7-0.4
		c-0.8,0-1.3,0.2-1.7,0.4c-0.5,0.2-1,0.4-1.9,0.4c-0.7,0-1.1-0.1-1.4-0.2l0,0.9c0.4,0.1,0.8,0.3,1.4,0.3c0.8,0,1.3-0.2,1.7-0.4
		c0.5-0.2,1-0.4,1.9-0.4s1.4,0.2,1.9,0.4c0.4,0.2,0.8,0.4,1.7,0.4c0.8,0,1.3-0.2,1.7-0.4c0.5-0.2,1-0.4,1.9-0.4s1.4,0.2,1.9,0.4
		c0.4,0.2,0.7,0.3,1.4,0.3v-0.9c-0.7,0-1.2-0.2-1.6-0.4C118.2,111.2,117.8,111,116.9,111z"/>
	<path class="st2" d="M116.9,135.1c-0.8,0-1.3,0.2-1.7,0.4c-0.5,0.2-1,0.4-1.9,0.4s-1.4-0.2-1.9-0.4c-0.4-0.2-0.8-0.4-1.7-0.4
		c-0.8,0-1.3,0.2-1.7,0.4c-0.5,0.2-1,0.4-1.9,0.4c-0.6,0-1-0.1-1.4-0.2l0,0.9c0.3,0.1,0.7,0.2,1.4,0.2c0.8,0,1.3-0.2,1.7-0.4
		c0.5-0.2,1-0.4,1.9-0.4s1.4,0.2,1.9,0.4c0.4,0.2,0.8,0.4,1.7,0.4c0.8,0,1.3-0.2,1.7-0.4c0.5-0.2,1-0.4,1.9-0.4s1.4,0.2,1.9,0.4
		c0.4,0.2,0.7,0.3,1.4,0.3v-0.9c-0.7,0-1.2-0.2-1.6-0.4C118.2,135.2,117.8,135.1,116.9,135.1z"/>
	<path class="st2" d="M116.9,132.1c-0.8,0-1.3,0.2-1.7,0.4c-0.5,0.2-1,0.4-1.9,0.4s-1.4-0.2-1.9-0.4c-0.4-0.2-0.8-0.4-1.7-0.4
		c-0.8,0-1.3,0.2-1.7,0.4c-0.5,0.2-1,0.4-1.9,0.4c-0.6,0-1.1-0.1-1.4-0.2l0,0.9c0.3,0.1,0.7,0.2,1.4,0.2c0.8,0,1.3-0.2,1.7-0.4
		c0.5-0.2,1-0.4,1.9-0.4s1.4,0.2,1.9,0.4c0.4,0.2,0.8,0.4,1.7,0.4c0.8,0,1.3-0.2,1.7-0.4c0.5-0.2,1-0.4,1.9-0.4s1.4,0.2,1.9,0.4
		c0.4,0.2,0.7,0.3,1.4,0.3v-0.9c-0.7,0-1.2-0.2-1.6-0.4C118.2,132.2,117.8,132.1,116.9,132.1z"/>
	<path class="st2" d="M116.9,136.6c-0.8,0-1.3,0.2-1.7,0.4c-0.5,0.2-1,0.4-1.9,0.4s-1.4-0.2-1.9-0.4c-0.4-0.2-0.8-0.4-1.7-0.4
		c-0.8,0-1.3,0.2-1.7,0.4c-0.5,0.2-1,0.4-1.9,0.4c-0.6,0-1-0.1-1.4-0.2l0,0.9c0.3,0.1,0.7,0.2,1.4,0.2c0.8,0,1.3-0.2,1.7-0.4
		c0.5-0.2,1-0.4,1.9-0.4s1.4,0.2,1.9,0.4c0.4,0.2,0.8,0.4,1.7,0.4c0.8,0,1.3-0.2,1.7-0.4c0.5-0.2,1-0.4,1.9-0.4s1.4,0.2,1.9,0.4
		c0.4,0.2,0.7,0.3,1.4,0.3v-0.9c-0.7,0-1.2-0.2-1.6-0.4C118.2,136.7,117.8,136.6,116.9,136.6z"/>
	<path class="st2" d="M116.9,121.6c-0.8,0-1.3,0.2-1.7,0.4c-0.5,0.2-1,0.4-1.9,0.4s-1.4-0.2-1.9-0.4c-0.4-0.2-0.8-0.4-1.7-0.4
		c-0.8,0-1.3,0.2-1.7,0.4c-0.5,0.2-1,0.4-1.9,0.4c-0.6,0-1.1-0.1-1.4-0.2l0,0.9c0.4,0.1,0.8,0.2,1.4,0.2c0.8,0,1.3-0.2,1.7-0.4
		c0.5-0.2,1-0.4,1.9-0.4s1.4,0.2,1.9,0.4c0.4,0.2,0.8,0.4,1.7,0.4c0.8,0,1.3-0.2,1.7-0.4c0.5-0.2,1-0.4,1.9-0.4s1.4,0.2,1.9,0.4
		c0.4,0.2,0.7,0.3,1.4,0.3v-0.9c-0.7,0-1.2-0.2-1.6-0.4C118.2,121.7,117.8,121.6,116.9,121.6z"/>
	<path class="st2" d="M116.9,120c-0.8,0-1.3,0.2-1.7,0.4c-0.5,0.2-1,0.4-1.9,0.4s-1.4-0.2-1.9-0.4c-0.4-0.2-0.8-0.4-1.7-0.4
		c-0.8,0-1.3,0.2-1.7,0.4c-0.5,0.2-1,0.4-1.9,0.4c-0.6,0-1.1-0.1-1.4-0.2l0,0.9c0.4,0.1,0.8,0.2,1.4,0.2c0.8,0,1.3-0.2,1.7-0.4
		c0.5-0.2,1-0.4,1.9-0.4s1.4,0.2,1.9,0.4c0.4,0.2,0.8,0.4,1.7,0.4c0.8,0,1.3-0.2,1.7-0.4c0.5-0.2,1-0.4,1.9-0.4s1.4,0.2,1.9,0.4
		c0.4,0.2,0.7,0.3,1.4,0.3v-0.9c-0.7,0-1.2-0.2-1.6-0.4C118.2,120.2,117.8,120,116.9,120z"/>
	<path class="st2" d="M107.8,128.9c0.5-0.2,1-0.4,1.9-0.4s1.4,0.2,1.9,0.4c0.4,0.2,0.8,0.4,1.7,0.4c0.8,0,1.3-0.2,1.7-0.4
		c0.5-0.2,1-0.4,1.9-0.4s1.4,0.2,1.9,0.4c0.4,0.2,0.7,0.3,1.4,0.3v-0.9c-0.7,0-1.2-0.2-1.6-0.4c-0.4-0.2-0.8-0.4-1.7-0.4
		c-0.8,0-1.3,0.2-1.7,0.4c-0.5,0.2-1,0.4-1.9,0.4s-1.4-0.2-1.9-0.4c-0.4-0.2-0.8-0.4-1.7-0.4c-0.8,0-1.3,0.2-1.7,0.4
		c-0.5,0.2-1,0.4-1.9,0.4c-0.6,0-1.1-0.1-1.4-0.2l0,0.9c0.4,0.1,0.7,0.2,1.4,0.2C107,129.2,107.4,129,107.8,128.9z"/>
	<path class="st2" d="M107.8,127.4c0.5-0.2,1-0.4,1.9-0.4s1.4,0.2,1.9,0.4c0.4,0.2,0.8,0.4,1.7,0.4c0.8,0,1.3-0.2,1.7-0.4
		c0.5-0.2,1-0.4,1.9-0.4s1.4,0.2,1.9,0.4c0.4,0.2,0.7,0.3,1.4,0.3v-0.9c-0.7,0-1.2-0.2-1.6-0.4c-0.4-0.2-0.8-0.4-1.7-0.4
		c-0.8,0-1.3,0.2-1.7,0.4c-0.5,0.2-1,0.4-1.9,0.4s-1.4-0.2-1.9-0.4c-0.4-0.2-0.8-0.4-1.7-0.4c-0.8,0-1.3,0.2-1.7,0.4
		c-0.5,0.2-1,0.4-1.9,0.4c-0.6,0-1.1-0.1-1.4-0.2l0,0.9c0.4,0.1,0.7,0.2,1.4,0.2C107,127.7,107.4,127.5,107.8,127.4z"/>
	<path class="st2" d="M116.9,109.5c-0.8,0-1.3,0.2-1.7,0.4c-0.5,0.2-1,0.4-1.9,0.4s-1.4-0.2-1.9-0.4c-0.4-0.2-0.8-0.4-1.7-0.4
		c-0.8,0-1.3,0.2-1.7,0.4c-0.5,0.2-1,0.4-1.9,0.4c-0.7,0-1.1-0.1-1.5-0.2l0,0.9c0.4,0.1,0.8,0.3,1.4,0.3c0.8,0,1.3-0.2,1.7-0.4
		c0.5-0.2,1-0.4,1.9-0.4s1.4,0.2,1.9,0.4c0.4,0.2,0.8,0.4,1.7,0.4c0.8,0,1.3-0.2,1.7-0.4c0.5-0.2,1-0.4,1.9-0.4s1.4,0.2,1.9,0.4
		c0.4,0.2,0.7,0.3,1.4,0.3v-0.9c-0.7,0-1.2-0.2-1.6-0.4C118.2,109.7,117.8,109.5,116.9,109.5z"/>
	<path class="st2" d="M116.9,133.6c-0.8,0-1.3,0.2-1.7,0.4c-0.5,0.2-1,0.4-1.9,0.4s-1.4-0.2-1.9-0.4c-0.4-0.2-0.8-0.4-1.7-0.4
		c-0.8,0-1.3,0.2-1.7,0.4c-0.5,0.2-1,0.4-1.9,0.4c-0.6,0-1.1-0.1-1.4-0.2l0,0.9c0.3,0.1,0.7,0.2,1.4,0.2c0.8,0,1.3-0.2,1.7-0.4
		c0.5-0.2,1-0.4,1.9-0.4s1.4,0.2,1.9,0.4c0.4,0.2,0.8,0.4,1.7,0.4c0.8,0,1.3-0.2,1.7-0.4c0.5-0.2,1-0.4,1.9-0.4s1.4,0.2,1.9,0.4
		c0.4,0.2,0.7,0.3,1.4,0.3v-0.9c-0.7,0-1.2-0.2-1.6-0.4C118.2,133.7,117.8,133.6,116.9,133.6z"/>
	<path class="st2" d="M116.9,118.5c-0.8,0-1.3,0.2-1.7,0.4c-0.5,0.2-1,0.4-1.9,0.4s-1.4-0.2-1.9-0.4c-0.4-0.2-0.8-0.4-1.7-0.4
		c-0.8,0-1.3,0.2-1.7,0.4c-0.5,0.2-1,0.4-1.9,0.4c-0.6,0-1.1-0.1-1.4-0.2l0,0.9c0.4,0.1,0.8,0.2,1.4,0.2c0.8,0,1.3-0.2,1.7-0.4
		c0.5-0.2,1-0.4,1.9-0.4s1.4,0.2,1.9,0.4c0.4,0.2,0.8,0.4,1.7,0.4c0.8,0,1.3-0.2,1.7-0.4c0.5-0.2,1-0.4,1.9-0.4s1.4,0.2,1.9,0.4
		c0.4,0.2,0.7,0.3,1.4,0.3v-0.9c-0.7,0-1.2-0.2-1.6-0.4C118.2,118.7,117.8,118.5,116.9,118.5z"/>
	<path class="st2" d="M107.8,131.9c0.5-0.2,1-0.4,1.9-0.4s1.4,0.2,1.9,0.4c0.4,0.2,0.8,0.4,1.7,0.4c0.8,0,1.3-0.2,1.7-0.4
		c0.5-0.2,1-0.4,1.9-0.4s1.4,0.2,1.9,0.4c0.4,0.2,0.7,0.3,1.4,0.3v-0.9c-0.7,0-1.2-0.2-1.6-0.4c-0.4-0.2-0.8-0.4-1.7-0.4
		c-0.8,0-1.3,0.2-1.7,0.4c-0.5,0.2-1,0.4-1.9,0.4s-1.4-0.2-1.9-0.4c-0.4-0.2-0.8-0.4-1.7-0.4c-0.8,0-1.3,0.2-1.7,0.4
		c-0.5,0.2-1,0.4-1.9,0.4c-0.6,0-1.1-0.1-1.4-0.2l0,0.9c0.3,0.1,0.7,0.2,1.4,0.2C107,132.2,107.4,132,107.8,131.9z"/>
	<path class="st2" d="M107.8,130.4c0.5-0.2,1-0.4,1.9-0.4s1.4,0.2,1.9,0.4c0.4,0.2,0.8,0.4,1.7,0.4c0.8,0,1.3-0.2,1.7-0.4
		c0.5-0.2,1-0.4,1.9-0.4s1.4,0.2,1.9,0.4c0.4,0.2,0.7,0.3,1.4,0.3v-0.9c-0.7,0-1.2-0.2-1.6-0.4c-0.4-0.2-0.8-0.4-1.7-0.4
		c-0.8,0-1.3,0.2-1.7,0.4c-0.5,0.2-1,0.4-1.9,0.4s-1.4-0.2-1.9-0.4c-0.4-0.2-0.8-0.4-1.7-0.4c-0.8,0-1.3,0.2-1.7,0.4
		c-0.5,0.2-1,0.4-1.9,0.4c-0.6,0-1.1-0.1-1.4-0.2l0,0.9c0.4,0.1,0.7,0.2,1.4,0.2C107,130.7,107.4,130.5,107.8,130.4z"/>
	<path class="st2" d="M116.9,117c-0.8,0-1.3,0.2-1.7,0.4c-0.5,0.2-1,0.4-1.9,0.4s-1.4-0.2-1.9-0.4c-0.4-0.2-0.8-0.4-1.7-0.4
		c-0.8,0-1.3,0.2-1.7,0.4c-0.5,0.2-1,0.4-1.9,0.4c-0.7,0-1.1-0.1-1.4-0.2l0,0.9c0.4,0.1,0.8,0.3,1.4,0.3c0.8,0,1.3-0.2,1.7-0.4
		c0.5-0.2,1-0.4,1.9-0.4s1.4,0.2,1.9,0.4c0.4,0.2,0.8,0.4,1.7,0.4c0.8,0,1.3-0.2,1.7-0.4c0.5-0.2,1-0.4,1.9-0.4s1.4,0.2,1.9,0.4
		c0.4,0.2,0.7,0.3,1.4,0.3v-0.9c-0.7,0-1.2-0.2-1.6-0.4C118.2,117.2,117.8,117,116.9,117z"/>
	<path class="st1" d="M118.9,109.3c-0.1,0-0.2-0.1-0.2-0.1c-1,0-2.2,0-3.4,0c-0.1,0-0.2,0.1-0.2,0.1c-0.4,0.2-0.8,0.4-1.7,0.4
		c-0.8,0-1.3-0.2-1.7-0.4c-0.1,0-0.2-0.1-0.2-0.1c-1.2,0-2.3,0-3.4,0c-0.1,0-0.2,0.1-0.2,0.1c-0.4,0.2-0.8,0.4-1.7,0.4
		c-0.7,0-1.1-0.1-1.5-0.3l0,0.6c0.4,0.1,0.8,0.2,1.5,0.2c1,0,1.4-0.2,1.9-0.4c0.4-0.2,0.8-0.4,1.7-0.4c0.8,0,1.3,0.2,1.7,0.4
		c0.5,0.2,1,0.4,1.9,0.4s1.4-0.2,1.9-0.4c0.4-0.2,0.8-0.4,1.7-0.4c0.8,0,1.3,0.2,1.7,0.4c0.4,0.2,0.8,0.3,1.6,0.4v-0.6
		C119.6,109.6,119.2,109.5,118.9,109.3z"/>
	<path class="st1" d="M116.9,110.4c-1,0-1.4,0.2-1.9,0.4c-0.4,0.2-0.8,0.4-1.7,0.4c-0.8,0-1.3-0.2-1.7-0.4c-0.5-0.2-1-0.4-1.9-0.4
		s-1.4,0.2-1.9,0.4c-0.4,0.2-0.8,0.4-1.7,0.4c-0.7,0-1.1-0.1-1.4-0.3l0,0.6c0.4,0.1,0.8,0.2,1.4,0.2c1,0,1.4-0.2,1.9-0.4
		c0.4-0.2,0.8-0.4,1.7-0.4c0.8,0,1.3,0.2,1.7,0.4c0.5,0.2,1,0.4,1.9,0.4s1.4-0.2,1.9-0.4c0.4-0.2,0.8-0.4,1.7-0.4
		c0.8,0,1.3,0.2,1.7,0.4c0.4,0.2,0.8,0.3,1.6,0.4v-0.6c-0.6,0-1-0.2-1.4-0.3C118.4,110.6,117.9,110.4,116.9,110.4z"/>
	<path class="st1" d="M116.9,111.9c-1,0-1.4,0.2-1.9,0.4c-0.4,0.2-0.8,0.4-1.7,0.4c-0.8,0-1.3-0.2-1.7-0.4c-0.5-0.2-1-0.4-1.9-0.4
		s-1.4,0.2-1.9,0.4c-0.4,0.2-0.8,0.4-1.7,0.4c-0.7,0-1.1-0.1-1.4-0.3l0,0.6c0.4,0.1,0.8,0.2,1.4,0.2c1,0,1.4-0.2,1.9-0.4
		c0.4-0.2,0.8-0.4,1.7-0.4c0.8,0,1.3,0.2,1.7,0.4c0.5,0.2,1,0.4,1.9,0.4s1.4-0.2,1.9-0.4c0.4-0.2,0.8-0.4,1.7-0.4
		c0.8,0,1.3,0.2,1.7,0.4c0.4,0.2,0.8,0.3,1.6,0.4v-0.6c-0.6,0-1-0.2-1.4-0.3C118.4,112.1,117.9,111.9,116.9,111.9z"/>
	<path class="st1" d="M116.9,113.4c-1,0-1.4,0.2-1.9,0.4c-0.4,0.2-0.8,0.4-1.7,0.4c-0.8,0-1.3-0.2-1.7-0.4c-0.5-0.2-1-0.4-1.9-0.4
		s-1.4,0.2-1.9,0.4c-0.4,0.2-0.8,0.4-1.7,0.4c-0.7,0-1.1-0.1-1.4-0.3l0,0.6c0.4,0.1,0.8,0.2,1.4,0.2c1,0,1.4-0.2,1.9-0.4
		c0.4-0.2,0.8-0.4,1.7-0.4c0.8,0,1.3,0.2,1.7,0.4c0.5,0.2,1,0.4,1.9,0.4s1.4-0.2,1.9-0.4c0.4-0.2,0.8-0.4,1.7-0.4
		c0.8,0,1.3,0.2,1.7,0.4c0.4,0.2,0.8,0.3,1.6,0.4v-0.6c-0.6,0-1-0.2-1.4-0.3C118.4,113.6,117.9,113.4,116.9,113.4z"/>
	<path class="st1" d="M116.9,114.9c-1,0-1.4,0.2-1.9,0.4c-0.4,0.2-0.8,0.4-1.7,0.4c-0.8,0-1.3-0.2-1.7-0.4c-0.5-0.2-1-0.4-1.9-0.4
		s-1.4,0.2-1.9,0.4c-0.4,0.2-0.8,0.4-1.7,0.4c-0.7,0-1.1-0.1-1.4-0.3l0,0.6c0.4,0.1,0.8,0.2,1.4,0.2c1,0,1.4-0.2,1.9-0.4
		c0.4-0.2,0.8-0.4,1.7-0.4c0.8,0,1.3,0.2,1.7,0.4c0.5,0.2,1,0.4,1.9,0.4s1.4-0.2,1.9-0.4c0.4-0.2,0.8-0.4,1.7-0.4
		c0.8,0,1.3,0.2,1.7,0.4c0.4,0.2,0.8,0.3,1.6,0.4v-0.6c-0.6,0-1-0.2-1.4-0.3C118.4,115.1,117.9,114.9,116.9,114.9z"/>
	<path class="st1" d="M116.9,116.4c-1,0-1.4,0.2-1.9,0.4c-0.4,0.2-0.8,0.4-1.7,0.4c-0.8,0-1.3-0.2-1.7-0.4c-0.5-0.2-1-0.4-1.9-0.4
		s-1.4,0.2-1.9,0.4c-0.4,0.2-0.8,0.4-1.7,0.4c-0.7,0-1.1-0.1-1.4-0.3l0,0.6c0.4,0.1,0.8,0.2,1.4,0.2c1,0,1.4-0.2,1.9-0.4
		c0.4-0.2,0.8-0.4,1.7-0.4c0.8,0,1.3,0.2,1.7,0.4c0.5,0.2,1,0.4,1.9,0.4s1.4-0.2,1.9-0.4c0.4-0.2,0.8-0.4,1.7-0.4
		c0.8,0,1.3,0.2,1.7,0.4c0.4,0.2,0.8,0.3,1.6,0.4v-0.6c-0.6,0-1-0.2-1.4-0.3C118.4,116.6,117.9,116.4,116.9,116.4z"/>
	<path class="st1" d="M116.9,117.9c-1,0-1.4,0.2-1.9,0.4c-0.4,0.2-0.8,0.4-1.7,0.4c-0.8,0-1.3-0.2-1.7-0.4c-0.5-0.2-1-0.4-1.9-0.4
		s-1.4,0.2-1.9,0.4c-0.4,0.2-0.8,0.4-1.7,0.4c-0.7,0-1.1-0.1-1.4-0.3l0,0.6c0.4,0.1,0.8,0.2,1.4,0.2c1,0,1.4-0.2,1.9-0.4
		c0.4-0.2,0.8-0.4,1.7-0.4c0.8,0,1.3,0.2,1.7,0.4c0.5,0.2,1,0.4,1.9,0.4s1.4-0.2,1.9-0.4c0.4-0.2,0.8-0.4,1.7-0.4
		c0.8,0,1.3,0.2,1.7,0.4c0.4,0.2,0.8,0.3,1.6,0.4v-0.6c-0.6,0-1-0.2-1.4-0.3C118.4,118.1,117.9,117.9,116.9,117.9z"/>
	<path class="st1" d="M116.9,119.4c-1,0-1.4,0.2-1.9,0.4c-0.4,0.2-0.8,0.4-1.7,0.4c-0.8,0-1.3-0.2-1.7-0.4c-0.5-0.2-1-0.4-1.9-0.4
		s-1.4,0.2-1.9,0.4c-0.4,0.2-0.8,0.4-1.7,0.4c-0.7,0-1.1-0.1-1.4-0.2l0,0.6c0.4,0.1,0.8,0.2,1.4,0.2c1,0,1.4-0.2,1.9-0.4
		c0.4-0.2,0.8-0.4,1.7-0.4c0.8,0,1.3,0.2,1.7,0.4c0.5,0.2,1,0.4,1.9,0.4s1.4-0.2,1.9-0.4c0.4-0.2,0.8-0.4,1.7-0.4
		c0.8,0,1.3,0.2,1.7,0.4c0.4,0.2,0.8,0.3,1.6,0.4v-0.6c-0.6,0-1-0.2-1.4-0.3C118.4,119.7,117.9,119.4,116.9,119.4z"/>
	<path class="st1" d="M116.9,120.9c-1,0-1.4,0.2-1.9,0.4c-0.4,0.2-0.8,0.4-1.7,0.4c-0.8,0-1.3-0.2-1.7-0.4c-0.5-0.2-1-0.4-1.9-0.4
		s-1.4,0.2-1.9,0.4c-0.4,0.2-0.8,0.4-1.7,0.4c-0.7,0-1.1-0.1-1.4-0.2l0,0.6c0.4,0.1,0.8,0.2,1.4,0.2c1,0,1.4-0.2,1.9-0.4
		c0.4-0.2,0.8-0.4,1.7-0.4c0.8,0,1.3,0.2,1.7,0.4c0.5,0.2,1,0.4,1.9,0.4s1.4-0.2,1.9-0.4c0.4-0.2,0.8-0.4,1.7-0.4
		c0.8,0,1.3,0.2,1.7,0.4c0.4,0.2,0.8,0.3,1.6,0.4v-0.6c-0.6,0-1-0.2-1.4-0.3C118.4,121.2,117.9,120.9,116.9,120.9z"/>
	<path class="st1" d="M116.9,122.5c-1,0-1.4,0.2-1.9,0.4c-0.4,0.2-0.8,0.4-1.7,0.4c-0.8,0-1.3-0.2-1.7-0.4c-0.5-0.2-1-0.4-1.9-0.4
		s-1.4,0.2-1.9,0.4c-0.4,0.2-0.8,0.4-1.7,0.4c-0.7,0-1.1-0.1-1.4-0.2l0,0.6c0.4,0.1,0.8,0.2,1.4,0.2c1,0,1.4-0.2,1.9-0.4
		c0.4-0.2,0.8-0.4,1.7-0.4c0.8,0,1.3,0.2,1.7,0.4c0.5,0.2,1,0.4,1.9,0.4s1.4-0.2,1.9-0.4c0.4-0.2,0.8-0.4,1.7-0.4
		c0.8,0,1.3,0.2,1.7,0.4c0.4,0.2,0.8,0.3,1.6,0.4v-0.6c-0.6,0-1-0.2-1.4-0.3C118.4,122.7,117.9,122.5,116.9,122.5z"/>
	<path class="st1" d="M108,124.9c0.4-0.2,0.8-0.4,1.7-0.4c0.8,0,1.3,0.2,1.7,0.4c0.5,0.2,1,0.4,1.9,0.4s1.4-0.2,1.9-0.4
		c0.4-0.2,0.8-0.4,1.7-0.4c0.8,0,1.3,0.2,1.7,0.4c0.4,0.2,0.8,0.3,1.6,0.4v-0.6c-0.6,0-1-0.2-1.4-0.3c-0.5-0.2-1-0.4-1.9-0.4
		s-1.4,0.2-1.9,0.4c-0.4,0.2-0.8,0.4-1.7,0.4c-0.8,0-1.3-0.2-1.7-0.4c-0.5-0.2-1-0.4-1.9-0.4s-1.4,0.2-1.9,0.4
		c-0.4,0.2-0.8,0.4-1.7,0.4c-0.7,0-1.1-0.1-1.4-0.2l0,0.6c0.4,0.1,0.8,0.2,1.4,0.2C107.1,125.3,107.6,125.1,108,124.9z"/>
	<path class="st1" d="M108,126.4c0.4-0.2,0.8-0.4,1.7-0.4c0.8,0,1.3,0.2,1.7,0.4c0.5,0.2,1,0.4,1.9,0.4s1.4-0.2,1.9-0.4
		c0.4-0.2,0.8-0.4,1.7-0.4c0.8,0,1.3,0.2,1.7,0.4c0.4,0.2,0.8,0.3,1.6,0.4v-0.6c-0.6,0-1-0.2-1.4-0.3c-0.5-0.2-1-0.4-1.9-0.4
		s-1.4,0.2-1.9,0.4c-0.4,0.2-0.8,0.4-1.7,0.4c-0.8,0-1.3-0.2-1.7-0.4c-0.5-0.2-1-0.4-1.9-0.4s-1.4,0.2-1.9,0.4
		c-0.4,0.2-0.8,0.4-1.7,0.4c-0.7,0-1.1-0.1-1.4-0.2l0,0.6c0.4,0.1,0.8,0.2,1.4,0.2C107.1,126.8,107.6,126.6,108,126.4z"/>
	<path class="st1" d="M108,127.9c0.4-0.2,0.8-0.4,1.7-0.4c0.8,0,1.3,0.2,1.7,0.4c0.5,0.2,1,0.4,1.9,0.4s1.4-0.2,1.9-0.4
		c0.4-0.2,0.8-0.4,1.7-0.4c0.8,0,1.3,0.2,1.7,0.4c0.4,0.2,0.8,0.3,1.6,0.4v-0.6c-0.6,0-1-0.2-1.4-0.3c-0.5-0.2-1-0.4-1.9-0.4
		s-1.4,0.2-1.9,0.4c-0.4,0.2-0.8,0.4-1.7,0.4c-0.8,0-1.3-0.2-1.7-0.4c-0.5-0.2-1-0.4-1.9-0.4s-1.4,0.2-1.9,0.4
		c-0.4,0.2-0.8,0.4-1.7,0.4c-0.7,0-1.1-0.1-1.4-0.2l0,0.6c0.4,0.1,0.8,0.2,1.4,0.2C107.1,128.3,107.6,128.1,108,127.9z"/>
	<path class="st1" d="M108,129.4c0.4-0.2,0.8-0.4,1.7-0.4c0.8,0,1.3,0.2,1.7,0.4c0.5,0.2,1,0.4,1.9,0.4s1.4-0.2,1.9-0.4
		c0.4-0.2,0.8-0.4,1.7-0.4c0.8,0,1.3,0.2,1.7,0.4c0.4,0.2,0.8,0.3,1.6,0.4v-0.6c-0.6,0-1-0.2-1.4-0.3c-0.5-0.2-1-0.4-1.9-0.4
		s-1.4,0.2-1.9,0.4c-0.4,0.2-0.8,0.4-1.7,0.4c-0.8,0-1.3-0.2-1.7-0.4c-0.5-0.2-1-0.4-1.9-0.4s-1.4,0.2-1.9,0.4
		c-0.4,0.2-0.8,0.4-1.7,0.4c-0.7,0-1.1-0.1-1.4-0.2l0,0.6c0.4,0.1,0.8,0.2,1.4,0.2C107.1,129.8,107.6,129.6,108,129.4z"/>
	<path class="st1" d="M108,130.9c0.4-0.2,0.8-0.4,1.7-0.4c0.8,0,1.3,0.2,1.7,0.4c0.5,0.2,1,0.4,1.9,0.4s1.4-0.2,1.9-0.4
		c0.4-0.2,0.8-0.4,1.7-0.4c0.8,0,1.3,0.2,1.7,0.4c0.4,0.2,0.8,0.3,1.6,0.4v-0.6c-0.6,0-1-0.2-1.4-0.3c-0.5-0.2-1-0.4-1.9-0.4
		s-1.4,0.2-1.9,0.4c-0.4,0.2-0.8,0.4-1.7,0.4c-0.8,0-1.3-0.2-1.7-0.4c-0.5-0.2-1-0.4-1.9-0.4s-1.4,0.2-1.9,0.4
		c-0.4,0.2-0.8,0.4-1.7,0.4c-0.7,0-1.1-0.1-1.4-0.2l0,0.6c0.4,0.1,0.8,0.2,1.4,0.2C107.1,131.3,107.6,131.1,108,130.9z"/>
	<path class="st1" d="M118.9,131.9c-0.5-0.2-1-0.4-1.9-0.4s-1.4,0.2-1.9,0.4c-0.4,0.2-0.8,0.4-1.7,0.4c-0.8,0-1.3-0.2-1.7-0.4
		c-0.5-0.2-1-0.4-1.9-0.4s-1.4,0.2-1.9,0.4c-0.4,0.2-0.8,0.4-1.7,0.4c-0.7,0-1.1-0.1-1.4-0.2l0,0.6c0.4,0.1,0.8,0.2,1.4,0.2
		c1,0,1.4-0.2,1.9-0.4c0.4-0.2,0.8-0.4,1.7-0.4c0.8,0,1.3,0.2,1.7,0.4c0.5,0.2,1,0.4,1.9,0.4s1.4-0.2,1.9-0.4
		c0.4-0.2,0.8-0.4,1.7-0.4c0.8,0,1.3,0.2,1.7,0.4c0.4,0.2,0.8,0.3,1.6,0.4v-0.6C119.6,132.2,119.2,132,118.9,131.9z"/>
	<path class="st1" d="M116.9,133c-1,0-1.4,0.2-1.9,0.4c-0.4,0.2-0.8,0.4-1.7,0.4c-0.8,0-1.3-0.2-1.7-0.4c-0.5-0.2-1-0.4-1.9-0.4
		s-1.4,0.2-1.9,0.4c-0.4,0.2-0.8,0.4-1.7,0.4c-0.7,0-1.1-0.1-1.4-0.2l0,0.6c0.4,0.1,0.8,0.2,1.4,0.2c1,0,1.4-0.2,1.9-0.4
		c0.4-0.2,0.8-0.4,1.7-0.4c0.8,0,1.3,0.2,1.7,0.4c0.5,0.2,1,0.4,1.9,0.4s1.4-0.2,1.9-0.4c0.4-0.2,0.8-0.4,1.7-0.4
		c0.8,0,1.3,0.2,1.7,0.4c0.4,0.2,0.8,0.3,1.6,0.4v-0.6c-0.6,0-1-0.2-1.4-0.3C118.4,133.2,117.9,133,116.9,133z"/>
	<path class="st1" d="M116.9,134.5c-1,0-1.4,0.2-1.9,0.4c-0.4,0.2-0.8,0.4-1.7,0.4c-0.8,0-1.3-0.2-1.7-0.4c-0.5-0.2-1-0.4-1.9-0.4
		s-1.4,0.2-1.9,0.4c-0.4,0.2-0.8,0.4-1.7,0.4c-0.7,0-1.1-0.1-1.4-0.2l0,0.6c0.4,0.1,0.8,0.2,1.4,0.2c1,0,1.4-0.2,1.9-0.4
		c0.4-0.2,0.8-0.4,1.7-0.4c0.8,0,1.3,0.2,1.7,0.4c0.5,0.2,1,0.4,1.9,0.4s1.4-0.2,1.9-0.4c0.4-0.2,0.8-0.4,1.7-0.4
		c0.8,0,1.3,0.2,1.7,0.4c0.4,0.2,0.8,0.3,1.6,0.4v-0.6c-0.6,0-1-0.2-1.4-0.3C118.4,134.7,117.9,134.5,116.9,134.5z"/>
	<path class="st1" d="M116.9,136c-1,0-1.4,0.2-1.9,0.4c-0.4,0.2-0.8,0.4-1.7,0.4c-0.8,0-1.3-0.2-1.7-0.4c-0.5-0.2-1-0.4-1.9-0.4
		s-1.4,0.2-1.9,0.4c-0.4,0.2-0.8,0.4-1.7,0.4c-0.7,0-1-0.1-1.4-0.2l0,0.6c0.4,0.1,0.8,0.2,1.4,0.2c1,0,1.4-0.2,1.9-0.4
		c0.4-0.2,0.8-0.4,1.7-0.4c0.8,0,1.3,0.2,1.7,0.4c0.5,0.2,1,0.4,1.9,0.4s1.4-0.2,1.9-0.4c0.4-0.2,0.8-0.4,1.7-0.4
		c0.8,0,1.3,0.2,1.7,0.4c0.4,0.2,0.8,0.3,1.6,0.4v-0.6c-0.6,0-1-0.2-1.4-0.3C118.4,136.2,117.9,136,116.9,136z"/>
	<path class="st1" d="M116.9,137.5c-1,0-1.4,0.2-1.9,0.4c-0.4,0.2-0.8,0.4-1.7,0.4c-0.8,0-1.3-0.2-1.7-0.4c-0.5-0.2-1-0.4-1.9-0.4
		s-1.4,0.2-1.9,0.4c-0.4,0.2-0.8,0.4-1.7,0.4c-0.7,0-1-0.1-1.4-0.2l0,0.6c0.3,0.1,0.8,0.2,1.4,0.2c1,0,1.4-0.2,1.9-0.4
		c0.4-0.2,0.8-0.4,1.7-0.4c0.8,0,1.3,0.2,1.7,0.4c0.5,0.2,1,0.4,1.9,0.4s1.4-0.2,1.9-0.4c0.4-0.2,0.8-0.4,1.7-0.4
		c0.8,0,1.3,0.2,1.7,0.4c0.4,0.2,0.8,0.3,1.6,0.4v-0.6c-0.6,0-1-0.2-1.4-0.3C118.4,137.7,117.9,137.5,116.9,137.5z"/>
	<path class="st1" d="M116.9,139c-1,0-1.4,0.2-1.9,0.4c-0.4,0.2-0.8,0.4-1.7,0.4c-0.8,0-1.3-0.2-1.7-0.4c-0.5-0.2-1-0.4-1.9-0.4
		s-1.4,0.2-1.9,0.4c-0.4,0.2-0.8,0.4-1.7,0.4c-0.7,0-1-0.1-1.4-0.2l0,0.6c0.3,0.1,0.8,0.2,1.4,0.2c1,0,1.4-0.2,1.9-0.4
		c0.4-0.2,0.8-0.4,1.7-0.4c0.8,0,1.3,0.2,1.7,0.4c0.5,0.2,1,0.4,1.9,0.4s1.4-0.2,1.9-0.4c0.4-0.2,0.8-0.4,1.7-0.4
		c0.8,0,1.3,0.2,1.7,0.4c0.4,0.2,0.8,0.3,1.6,0.4v-0.6c-0.6,0-1-0.2-1.4-0.3C118.4,139.2,117.9,139,116.9,139z"/>
	<path class="st1" d="M116.9,140.5c-1,0-1.4,0.2-1.9,0.4c-0.4,0.2-0.8,0.4-1.7,0.4c-0.8,0-1.3-0.2-1.7-0.4c-0.5-0.2-1-0.4-1.9-0.4
		s-1.4,0.2-1.9,0.4c-0.4,0.2-0.8,0.4-1.7,0.4c-0.7,0-1-0.1-1.4-0.2l0,0.6c0.3,0.1,0.8,0.2,1.4,0.2c1,0,1.4-0.2,1.9-0.4
		c0.4-0.2,0.8-0.4,1.7-0.4c0.8,0,1.3,0.2,1.7,0.4c0.5,0.2,1,0.4,1.9,0.4s1.4-0.2,1.9-0.4c0.4-0.2,0.8-0.4,1.7-0.4
		c0.8,0,1.3,0.2,1.7,0.4c0.4,0.2,0.8,0.3,1.6,0.4v-0.6c-0.6,0-1-0.2-1.4-0.3C118.4,140.7,117.9,140.5,116.9,140.5z"/>
	<path class="st1" d="M116.9,142c-1,0-1.4,0.2-1.9,0.4c-0.4,0.2-0.8,0.4-1.7,0.4c-0.8,0-1.3-0.2-1.7-0.4c-0.5-0.2-1-0.4-1.9-0.4
		s-1.4,0.2-1.9,0.4c-0.4,0.2-0.8,0.4-1.7,0.4c-0.6,0-1-0.1-1.4-0.2c0,0.3,0.1,0.5,0.3,0.7c0.3,0.1,0.6,0.1,1.1,0.1
		c1,0,1.4-0.2,1.9-0.4c0.4-0.2,0.8-0.4,1.7-0.4c0.8,0,1.3,0.2,1.7,0.4c0.5,0.2,1,0.4,1.9,0.4s1.4-0.2,1.9-0.4
		c0.4-0.2,0.8-0.4,1.7-0.4c0.8,0,1.3,0.2,1.7,0.4c0.3,0.1,0.7,0.3,1.2,0.4c0.1-0.2,0.2-0.4,0.3-0.6c-0.6,0-0.9-0.2-1.3-0.3
		C118.4,142.2,117.9,142,116.9,142z"/>
	<path class="st2" d="M112.7,171.2c-0.5,0.2-1,0.4-1.9,0.4s-1.4-0.2-1.9-0.4c-0.4-0.2-0.8-0.4-1.7-0.4c-0.2,0-0.4,0-0.6,0
		c0.2,0.3,0.4,0.6,0.6,0.9c0,0,0,0,0,0c1,0,1.4,0.2,1.9,0.4c0.4,0.2,0.8,0.4,1.7,0.4c0.8,0,1.3-0.2,1.7-0.4c0.5-0.2,1-0.4,1.9-0.4
		c0.4,0,0.7,0,1,0.1c0.2-0.2,0.4-0.5,0.5-0.7c-0.4-0.1-0.8-0.3-1.5-0.3C113.6,170.8,113.1,171,112.7,171.2z"/>
	<path class="st2" d="M114.4,169.3c-0.8,0-1.3,0.2-1.7,0.4c-0.5,0.2-1,0.4-1.9,0.4s-1.4-0.2-1.9-0.4c-0.4-0.2-0.8-0.4-1.7-0.4
		c-0.5,0-0.9,0.1-1.2,0.2c0.1,0.3,0.2,0.6,0.3,0.8c0.3,0,0.5-0.1,0.9-0.1c1,0,1.4,0.2,1.9,0.4c0.4,0.2,0.8,0.4,1.7,0.4
		c0.8,0,1.3-0.2,1.7-0.4c0.5-0.2,1-0.4,1.9-0.4c0.9,0,1.3,0.2,1.8,0.3c0.1-0.2,0.2-0.5,0.3-0.7c-0.1,0-0.3-0.1-0.4-0.1
		C115.7,169.5,115.2,169.3,114.4,169.3z"/>
	<path class="st2" d="M112.5,163.1C112.5,163.1,112.5,163.1,112.5,163.1c-0.3-0.1-0.7-0.2-1.2-0.2c-0.7,0-1.3,0.1-1.9,0.3
		c0.3,0.1,0.7,0.2,1.4,0.2C111.6,163.4,112,163.3,112.5,163.1z"/>
	<path class="st2" d="M112.7,172.7c-0.5,0.2-1,0.4-1.9,0.4s-1.4-0.2-1.9-0.4c-0.3-0.1-0.6-0.3-1.1-0.3c0.9,0.8,2.2,1.3,3.5,1.3
		c0.6,0,1.2-0.1,1.8-0.3c0.7-0.2,1.2-0.6,1.8-1c-0.1,0-0.3,0-0.4,0C113.6,172.3,113.1,172.5,112.7,172.7z"/>
	<path class="st2" d="M114.4,167.8c-0.8,0-1.3,0.2-1.7,0.4c-0.5,0.2-1,0.4-1.9,0.4s-1.4-0.2-1.9-0.4c-0.4-0.2-0.8-0.4-1.7-0.4
		c-0.6,0-1,0.1-1.3,0.2c0,0.1,0,0.2,0,0.3c0,0.2,0,0.4,0.1,0.6c0.3-0.1,0.7-0.2,1.2-0.2c1,0,1.4,0.2,1.9,0.4
		c0.4,0.2,0.8,0.4,1.7,0.4c0.8,0,1.3-0.2,1.7-0.4c0.5-0.2,1-0.4,1.9-0.4s1.4,0.2,1.9,0.4c0.1,0,0.2,0.1,0.3,0.1
		c0-0.3,0.1-0.6,0.1-0.8c-0.2-0.1-0.4-0.1-0.6-0.2C115.7,168,115.2,167.8,114.4,167.8z"/>
	<path class="st2" d="M110.8,164c-1,0-1.4-0.2-1.9-0.4c-0.1,0-0.1-0.1-0.2-0.1c-0.3,0.2-0.6,0.4-0.9,0.7c0.6,0.1,1,0.2,1.4,0.4
		c0.4,0.2,0.8,0.4,1.7,0.4c0.8,0,1.3-0.2,1.7-0.4c0.5-0.2,1-0.4,1.9-0.4c0.2,0,0.3,0,0.4,0c-0.4-0.3-0.8-0.6-1.3-0.8
		c-0.3,0.1-0.6,0.2-0.8,0.3C112.2,163.8,111.8,164,110.8,164z"/>
	<path class="st2" d="M112.7,165.1c-0.5,0.2-1,0.4-1.9,0.4s-1.4-0.2-1.9-0.4c-0.4-0.2-0.8-0.3-1.7-0.4c-0.2,0.3-0.5,0.6-0.6,0.9
		c0.2,0,0.4,0,0.6,0c1,0,1.4,0.2,1.9,0.4c0.4,0.2,0.8,0.4,1.7,0.4c0.8,0,1.3-0.2,1.7-0.4c0.5-0.2,1-0.4,1.9-0.4
		c0.9,0,1.4,0.2,1.8,0.3c-0.2-0.4-0.4-0.8-0.7-1.1c-0.3-0.1-0.6-0.1-1.1-0.1C113.6,164.8,113.1,165,112.7,165.1z"/>
	<path class="st2" d="M114.4,166.3c-0.8,0-1.3,0.2-1.7,0.4c-0.5,0.2-1,0.4-1.9,0.4s-1.4-0.2-1.9-0.4c-0.4-0.2-0.8-0.4-1.7-0.4
		c-0.4,0-0.7,0-0.9,0.1c0,0,0,0.1-0.1,0.1c-0.1,0.3-0.2,0.5-0.2,0.8c0.3-0.1,0.7-0.1,1.2-0.1c1,0,1.4,0.2,1.9,0.4
		c0.4,0.2,0.8,0.4,1.7,0.4c0.8,0,1.3-0.2,1.7-0.4c0.5-0.2,1-0.4,1.9-0.4s1.4,0.2,1.9,0.4c0.1,0,0.2,0.1,0.3,0.1
		c0-0.3-0.1-0.6-0.2-0.9c-0.1,0-0.2-0.1-0.4-0.1C115.7,166.5,115.2,166.3,114.4,166.3z"/>
	<path class="st1" d="M108.9,163.6c0.5,0.2,1,0.4,1.9,0.4s1.4-0.2,1.9-0.4c0.2-0.1,0.5-0.2,0.8-0.3c-0.3-0.1-0.6-0.2-0.9-0.3
		c0,0-0.1,0-0.1,0c-0.4,0.2-0.8,0.4-1.7,0.4c-0.6,0-1-0.1-1.4-0.2c-0.3,0.1-0.5,0.2-0.8,0.3C108.7,163.6,108.8,163.6,108.9,163.6z"
		/>
	<path class="st1" d="M112.5,164.6c-0.4,0.2-0.8,0.4-1.7,0.4c-0.8,0-1.3-0.2-1.7-0.4c-0.4-0.2-0.8-0.3-1.4-0.4
		c-0.1,0.1-0.2,0.2-0.3,0.3c-0.1,0.1-0.1,0.2-0.2,0.3c0.8,0,1.2,0.2,1.7,0.4c0.5,0.2,1,0.4,1.9,0.4s1.4-0.2,1.9-0.4
		c0.4-0.2,0.8-0.4,1.7-0.4c0.5,0,0.8,0.1,1.1,0.1c-0.2-0.3-0.4-0.5-0.7-0.7c-0.1,0-0.3,0-0.4,0C113.4,164.2,112.9,164.4,112.5,164.6
		z"/>
	<path class="st1" d="M112.5,166.1c-0.4,0.2-0.8,0.4-1.7,0.4c-0.8,0-1.3-0.2-1.7-0.4c-0.5-0.2-1-0.4-1.9-0.4c-0.2,0-0.4,0-0.6,0
		c-0.1,0.2-0.2,0.4-0.3,0.7c0.2-0.1,0.5-0.1,0.9-0.1c0.8,0,1.3,0.2,1.7,0.4c0.5,0.2,1,0.4,1.9,0.4s1.4-0.2,1.9-0.4
		c0.4-0.2,0.8-0.4,1.7-0.4c0.8,0,1.3,0.2,1.7,0.4c0.1,0,0.2,0.1,0.4,0.1c-0.1-0.3-0.2-0.5-0.3-0.8c-0.4-0.2-0.9-0.3-1.8-0.3
		C113.4,165.7,112.9,165.9,112.5,166.1z"/>
	<path class="st1" d="M114.4,167.2c-1,0-1.4,0.2-1.9,0.4c-0.4,0.2-0.8,0.4-1.7,0.4c-0.8,0-1.3-0.2-1.7-0.4c-0.5-0.2-1-0.4-1.9-0.4
		c-0.5,0-0.9,0.1-1.2,0.1c0,0.2-0.1,0.4-0.1,0.6c0.3-0.1,0.7-0.2,1.3-0.2c0.8,0,1.3,0.2,1.7,0.4c0.5,0.2,1,0.4,1.9,0.4
		s1.4-0.2,1.9-0.4c0.4-0.2,0.8-0.4,1.7-0.4c0.8,0,1.3,0.2,1.7,0.4c0.2,0.1,0.4,0.2,0.6,0.2c0,0,0-0.1,0-0.1c0-0.2,0-0.4-0.1-0.6
		c-0.1,0-0.2-0.1-0.3-0.1C115.8,167.4,115.4,167.2,114.4,167.2z"/>
	<path class="st1" d="M114.4,168.7c-1,0-1.4,0.2-1.9,0.4c-0.4,0.2-0.8,0.4-1.7,0.4c-0.8,0-1.3-0.2-1.7-0.4c-0.5-0.2-1-0.4-1.9-0.4
		c-0.5,0-0.9,0.1-1.2,0.2c0,0.2,0,0.4,0.1,0.6c0.3-0.1,0.6-0.2,1.2-0.2c0.8,0,1.3,0.2,1.7,0.4c0.5,0.2,1,0.4,1.9,0.4
		s1.4-0.2,1.9-0.4c0.4-0.2,0.8-0.4,1.7-0.4c0.8,0,1.3,0.2,1.7,0.4c0.1,0.1,0.2,0.1,0.4,0.1c0.1-0.2,0.1-0.4,0.1-0.6
		c-0.1,0-0.2-0.1-0.3-0.1C115.8,168.9,115.4,168.7,114.4,168.7z"/>
	<path class="st1" d="M112.5,170.6c-0.4,0.2-0.8,0.4-1.7,0.4c-0.8,0-1.3-0.2-1.7-0.4c-0.5-0.2-1-0.4-1.9-0.4c-0.4,0-0.7,0-0.9,0.1
		c0.1,0.2,0.2,0.4,0.3,0.6c0.2,0,0.4,0,0.6,0c0.8,0,1.3,0.2,1.7,0.4c0.5,0.2,1,0.4,1.9,0.4s1.4-0.2,1.9-0.4c0.4-0.2,0.8-0.4,1.7-0.4
		c0.7,0,1.1,0.1,1.5,0.3c0.1-0.2,0.2-0.3,0.3-0.5c-0.4-0.2-0.9-0.3-1.8-0.3C113.4,170.2,112.9,170.4,112.5,170.6z"/>
	<path class="st1" d="M112.5,172.1c-0.4,0.2-0.8,0.4-1.7,0.4c-0.8,0-1.3-0.2-1.7-0.4c-0.5-0.2-1-0.4-1.9-0.4c0,0,0,0,0,0
		c0.2,0.2,0.4,0.4,0.6,0.6c0.5,0.1,0.8,0.2,1.1,0.3c0.5,0.2,1,0.4,1.9,0.4s1.4-0.2,1.9-0.4c0.4-0.2,0.8-0.4,1.7-0.4
		c0.2,0,0.3,0,0.4,0c0.1-0.1,0.2-0.1,0.2-0.2c0.1-0.1,0.2-0.2,0.3-0.4c-0.3-0.1-0.6-0.1-1-0.1C113.4,171.7,112.9,171.9,112.5,172.1z
		"/>
	<line class="st3" x1="77.9" y1="525.3" x2="77.9" y2="560.8"/>
	<polyline class="st3" points="50.1,178.6 58.1,189.1 50.1,199.3 	"/>
	<polyline class="st3" points="58.4,178.8 50.4,189 58.1,199.3 	"/>
	<polyline class="st3" points="74.1,178.6 66.1,189.1 74.1,199.3 	"/>
	<polyline class="st3" points="65.9,178.8 74,189.1 66.1,199.3 	"/>
	<line class="st3" x1="46.7" y1="601.4" x2="54" y2="613.4"/>
	<line class="st3" x1="46.5" y1="613.2" x2="54.3" y2="601"/>
	<line class="st3" x1="54.4" y1="601.5" x2="61.9" y2="613.2"/>
	<line class="st3" x1="54.3" y1="613.3" x2="62.2" y2="601"/>
	<line class="st3" x1="78" y1="601" x2="70.1" y2="613.2"/>
	<line class="st3" x1="77.9" y1="613.2" x2="70" y2="601"/>
	<line class="st3" x1="69.8" y1="601.5" x2="62.3" y2="613.3"/>
	<line class="st3" x1="70.2" y1="613.5" x2="62.2" y2="601"/>
	<line class="st3" x1="33.9" y1="691.3" x2="33.9" y2="697.2"/>
	<line class="st3" x1="35.8" y1="691.8" x2="35.8" y2="697.5"/>
	<line class="st3" x1="37.7" y1="692.4" x2="37.7" y2="698"/>
	<line class="st3" x1="39.6" y1="692.7" x2="39.6" y2="698.3"/>
	<line class="st3" x1="41.4" y1="693.2" x2="41.4" y2="698.6"/>
	<line class="st3" x1="43.3" y1="693.5" x2="43.3" y2="699.2"/>
	<line class="st3" x1="45.2" y1="693.8" x2="45.2" y2="699.5"/>
	<line class="st3" x1="47.1" y1="694.1" x2="47.1" y2="699.5"/>
	<line class="st3" x1="49" y1="694.4" x2="49" y2="699.8"/>
	<line class="st3" x1="90.3" y1="691.3" x2="90.3" y2="697.2"/>
	<line class="st3" x1="88.4" y1="691.8" x2="88.4" y2="697.5"/>
	<line class="st3" x1="86.5" y1="692.4" x2="86.5" y2="698"/>
	<line class="st3" x1="84.7" y1="692.7" x2="84.7" y2="698.3"/>
	<line class="st3" x1="82.8" y1="693.2" x2="82.8" y2="698.6"/>
	<line class="st3" x1="80.9" y1="693.5" x2="80.9" y2="699.2"/>
	<line class="st3" x1="79" y1="693.8" x2="79" y2="699.5"/>
	<line class="st3" x1="77.1" y1="694.1" x2="77.1" y2="699.5"/>
	<line class="st3" x1="75.2" y1="694.4" x2="75.2" y2="699.8"/>
	<line class="st3" x1="23.6" y1="409.6" x2="27.3" y2="412.8"/>
	<line class="st3" x1="24.4" y1="408.2" x2="28.7" y2="410.5"/>
	<line class="st3" x1="25" y1="406.7" x2="29.7" y2="408.1"/>
	<line class="st3" x1="25.3" y1="405" x2="30.1" y2="405.4"/>
	<line class="st3" x1="25.3" y1="403.4" x2="30.1" y2="402.8"/>
	<line class="st3" x1="24.9" y1="401.7" x2="29.5" y2="400.2"/>
	<line class="st3" x1="24.3" y1="400.2" x2="28.5" y2="397.7"/>
	<line class="st3" x1="23.4" y1="398.9" x2="27" y2="395.5"/>
	<path class="st3" d="M25.1,393.7l-2.9,4c2.1,1.5,3.2,3.8,3.2,6.7c0,2.6-1.1,4.9-2.9,6.4l3.2,4.1"/>
	<line class="st3" x1="100.6" y1="409.6" x2="96.9" y2="412.8"/>
	<line class="st3" x1="99.8" y1="408.2" x2="95.3" y2="410.7"/>
	<line class="st3" x1="99.2" y1="406.7" x2="94.3" y2="408.3"/>
	<line class="st3" x1="98.9" y1="405" x2="93.8" y2="405.4"/>
	<line class="st3" x1="98.9" y1="403.4" x2="94.2" y2="402.8"/>
	<line class="st3" x1="99.3" y1="401.7" x2="94.7" y2="400.2"/>
	<line class="st3" x1="99.9" y1="400.2" x2="95.8" y2="397.7"/>
	<line class="st3" x1="100.9" y1="398.9" x2="97.2" y2="395.5"/>
	<line class="st3" x1="13.5" y1="588.7" x2="8.3" y2="588.7"/>
	<polyline class="st3" points="13.5,586.7 8.3,586.7 8.3,601 13.5,601 	"/>
	<line class="st3" x1="13.5" y1="590.8" x2="8.3" y2="590.8"/>
	<line class="st3" x1="13.5" y1="592.8" x2="8.3" y2="592.8"/>
	<line class="st3" x1="13.5" y1="594.9" x2="8.3" y2="594.9"/>
	<line class="st3" x1="13.5" y1="596.9" x2="8.3" y2="596.9"/>
	<line class="st3" x1="13.5" y1="599" x2="8.3" y2="599"/>
	<line class="st3" x1="99.9" y1="488.5" x2="105" y2="488.5"/>
	<polyline class="st3" points="99.9,486.5 105,486.5 105,500.9 99.9,500.9 	"/>
	<line class="st3" x1="99.9" y1="490.6" x2="105" y2="490.6"/>
	<line class="st3" x1="99.9" y1="492.7" x2="105" y2="492.7"/>
	<line class="st3" x1="99.9" y1="494.7" x2="105" y2="494.7"/>
	<line class="st3" x1="99.9" y1="496.8" x2="105" y2="496.8"/>
	<line class="st3" x1="99.9" y1="498.8" x2="105" y2="498.8"/>
	<line class="st3" x1="116.4" y1="295.1" x2="121.5" y2="295.1"/>
	<rect x="116.4" y="293" class="st3" width="5.1" height="14.4"/>
	<line class="st3" x1="116.4" y1="297.1" x2="121.5" y2="297.1"/>
	<line class="st3" x1="116.4" y1="299.2" x2="121.5" y2="299.2"/>
	<line class="st3" x1="116.4" y1="301.2" x2="121.5" y2="301.2"/>
	<line class="st3" x1="116.4" y1="303.3" x2="121.5" y2="303.3"/>
	<line class="st3" x1="116.4" y1="305.3" x2="121.5" y2="305.3"/>
	<line class="st3" x1="95.4" y1="117.3" x2="100.5" y2="117.3"/>
	<polyline class="st3" points="95.4,129.6 100.5,129.6 100.5,109.2 	"/>
	<line class="st3" x1="95.4" y1="119.4" x2="100.5" y2="119.4"/>
	<line class="st3" x1="95.4" y1="121.4" x2="100.5" y2="121.4"/>
	<line class="st3" x1="95.4" y1="123.5" x2="100.5" y2="123.5"/>
	<line class="st3" x1="95.4" y1="125.5" x2="100.5" y2="125.5"/>
	<line class="st3" x1="95.4" y1="127.6" x2="100.5" y2="127.6"/>
	<polyline class="st3" points="26.9,129.6 21.8,129.6 21.8,109.7 	"/>
	<line class="st3" x1="26.9" y1="119.4" x2="21.8" y2="119.4"/>
	<line class="st3" x1="26.9" y1="121.4" x2="21.8" y2="121.4"/>
	<line class="st3" x1="26.9" y1="123.5" x2="21.8" y2="123.5"/>
	<line class="st3" x1="26.9" y1="125.5" x2="21.8" y2="125.5"/>
	<line class="st3" x1="26.9" y1="127.6" x2="21.8" y2="127.6"/>
	<line class="st3" x1="2.1" y1="295.1" x2="7.2" y2="295.1"/>
	<rect x="2.1" y="293" class="st3" width="5.1" height="14.4"/>
	<line class="st3" x1="2.1" y1="297.1" x2="7.2" y2="297.1"/>
	<line class="st3" x1="2.1" y1="299.2" x2="7.2" y2="299.2"/>
	<line class="st3" x1="2.1" y1="301.2" x2="7.2" y2="301.2"/>
	<line class="st3" x1="2.1" y1="303.3" x2="7.2" y2="303.3"/>
	<line class="st3" x1="2.1" y1="305.3" x2="7.2" y2="305.3"/>
	<line class="st3" x1="58.7" y1="690.9" x2="65.6" y2="690.9"/>
	<line class="st3" x1="58.7" y1="693" x2="65.6" y2="693"/>
	<line class="st3" x1="58.7" y1="695" x2="65.6" y2="695"/>
	<path class="st3" d="M98.5,414.9l3.2-4.1c-1.8-1.5-2.9-3.8-2.9-6.4c0-2.9,1.2-5,3.2-6.6l-3-4"/>
	<line class="st3" x1="32.4" y1="224.8" x2="37.7" y2="219"/>
	<line class="st3" x1="33.6" y1="226.1" x2="38.4" y2="219.9"/>
	<line class="st3" x1="35" y1="227" x2="39.4" y2="220.4"/>
	<line class="st3" x1="36.6" y1="227.8" x2="40.4" y2="221"/>
	<line class="st3" x1="38" y1="229" x2="41.3" y2="221.5"/>
	<line class="st3" x1="91.4" y1="224.8" x2="86.1" y2="219"/>
	<line class="st3" x1="90.2" y1="226.1" x2="85.4" y2="219.9"/>
	<line class="st3" x1="88.7" y1="226.9" x2="84.4" y2="220.4"/>
	<line class="st3" x1="87.2" y1="227.8" x2="83.4" y2="220.9"/>
	<line class="st3" x1="85.8" y1="229" x2="82.5" y2="221.5"/>
	<line class="st3" x1="36.9" y1="69.3" x2="34" y2="66.1"/>
	<line class="st3" x1="36.3" y1="69.8" x2="33.4" y2="66.8"/>
	<line class="st3" x1="35.8" y1="70.4" x2="32.6" y2="67.5"/>
	<line class="st3" x1="35.2" y1="71.1" x2="31.8" y2="68.1"/>
	<line class="st3" x1="34.6" y1="71.8" x2="31.2" y2="68.9"/>
	<line class="st3" x1="33.9" y1="72.4" x2="30.5" y2="69.5"/>
	<line class="st3" x1="33.3" y1="73.2" x2="30" y2="70.4"/>
	<line class="st3" x1="32.7" y1="73.9" x2="29.4" y2="71.2"/>
	<line class="st3" x1="32.1" y1="74.7" x2="28.9" y2="71.9"/>
	<line class="st3" x1="31.6" y1="75.4" x2="28.4" y2="72.7"/>
	<line class="st3" x1="31" y1="76.1" x2="27.7" y2="73.4"/>
	<line class="st3" x1="86.3" y1="69.2" x2="89.3" y2="66"/>
	<line class="st3" x1="87" y1="69.8" x2="89.8" y2="66.7"/>
	<line class="st3" x1="87.5" y1="70.3" x2="90.6" y2="67.4"/>
	<line class="st3" x1="88.1" y1="71" x2="91.4" y2="67.9"/>
	<line class="st3" x1="88.7" y1="71.6" x2="92.1" y2="68.7"/>
	<line class="st3" x1="89.2" y1="72.2" x2="92.7" y2="69.4"/>
	<line class="st3" x1="89.7" y1="72.8" x2="93.1" y2="70.3"/>
	<line class="st3" x1="90.2" y1="73.6" x2="93.6" y2="71.1"/>
	<line class="st3" x1="90.7" y1="74.2" x2="94.3" y2="71.9"/>
	<line class="st3" x1="91.2" y1="75" x2="94.7" y2="72.6"/>
	<line class="st3" x1="91.7" y1="75.7" x2="95.2" y2="73.4"/>
	<polygon class="st3" points="62.2,613.4 78,613.4 78,601.2 62.2,601.2 46.5,601.2 46.5,613.4 	"/>
	<line class="st3" x1="62.2" y1="601" x2="62.2" y2="613.3"/>
	<line class="st3" x1="54.3" y1="601" x2="54.3" y2="613.4"/>
	<line class="st3" x1="70" y1="601" x2="70" y2="613.5"/>
	<rect x="65.9" y="178.7" class="st3" width="8.2" height="20.8"/>
	<line class="st3" x1="65.9" y1="189.1" x2="74.1" y2="189.1"/>
	<rect x="50.1" y="178.6" class="st3" width="8.2" height="20.8"/>
	<line class="st3" x1="50.1" y1="189.1" x2="58.4" y2="189.1"/>
	<path class="st3" d="M55.7,167.6c0.3,0,0.5-0.3,0.5-0.6"/>
	<line class="st3" x1="50" y1="167.6" x2="55.7" y2="167.6"/>
	<line class="st3" x1="56.2" y1="167" x2="56.2" y2="164.8"/>
	<line class="st3" x1="56.2" y1="164.8" x2="67.3" y2="164.8"/>
	<path class="st3" d="M67.3,167c0,0.3,0.2,0.6,0.5,0.6"/>
	<line class="st3" x1="67.3" y1="164.8" x2="67.3" y2="167"/>
	<line class="st3" x1="67.8" y1="167.6" x2="73.5" y2="167.6"/>
	<line class="st3" x1="61.6" y1="153.8" x2="61.6" y2="167.8"/>
	<line class="st3" x1="61.9" y1="153.8" x2="61.9" y2="167.8"/>
	<line class="st3" x1="50.3" y1="154.5" x2="61.6" y2="154.5"/>
	<line class="st3" x1="61.6" y1="167.8" x2="61.9" y2="167.8"/>
	<line class="st3" x1="61.6" y1="153.8" x2="61.9" y2="153.8"/>
	<line class="st3" x1="61.9" y1="154.5" x2="73.6" y2="154.5"/>
	<line class="st3" x1="61.9" y1="156" x2="66.9" y2="156"/>
	<line class="st3" x1="61.9" y1="157.5" x2="66.9" y2="157.5"/>
	<line class="st3" x1="61.9" y1="159" x2="66.9" y2="159"/>
	<line class="st3" x1="61.9" y1="160.5" x2="66.9" y2="160.5"/>
	<line class="st3" x1="61.9" y1="161.9" x2="66.9" y2="161.9"/>
	<line class="st3" x1="61.9" y1="163.4" x2="66.9" y2="163.4"/>
	<line class="st3" x1="61.9" y1="166.4" x2="67.3" y2="166.4"/>
	<line class="st3" x1="56.7" y1="156" x2="61.6" y2="156"/>
	<line class="st3" x1="56.7" y1="157.5" x2="61.6" y2="157.5"/>
	<line class="st3" x1="56.7" y1="159" x2="61.6" y2="159"/>
	<line class="st3" x1="56.7" y1="160.5" x2="61.6" y2="160.5"/>
	<line class="st3" x1="56.7" y1="161.9" x2="61.6" y2="161.9"/>
	<line class="st3" x1="56.7" y1="163.4" x2="61.6" y2="163.4"/>
	<line class="st3" x1="56.2" y1="166.4" x2="61.6" y2="166.4"/>
	<line class="st3" x1="73.7" y1="166.1" x2="67.8" y2="166.1"/>
	<line class="st3" x1="73.6" y1="164.7" x2="67.2" y2="164.7"/>
	<line class="st3" x1="73.7" y1="163.2" x2="67.8" y2="163.2"/>
	<line class="st3" x1="73.6" y1="161.8" x2="67.8" y2="161.8"/>
	<line class="st3" x1="56.2" y1="166.1" x2="50.2" y2="166.1"/>
	<line class="st3" x1="56.2" y1="164.7" x2="50.1" y2="164.7"/>
	<line class="st3" x1="55.7" y1="163.2" x2="50.1" y2="163.2"/>
	<line class="st3" x1="55.7" y1="161.8" x2="50.1" y2="161.8"/>
	<path class="st3" d="M67.9,153.6c0-0.3-0.2-0.6-0.5-0.6s-0.5,0.3-0.5,0.6l0,0"/>
	<line class="st3" x1="66.9" y1="153.6" x2="66.9" y2="153.8"/>
	<line class="st3" x1="67.9" y1="153.6" x2="67.9" y2="153.8"/>
	<path class="st3" d="M56.7,153.6c0-0.3-0.2-0.6-0.5-0.6c-0.3,0-0.5,0.3-0.5,0.6l0,0"/>
	<line class="st3" x1="55.7" y1="153.6" x2="55.7" y2="153.8"/>
	<line class="st3" x1="56.7" y1="153.6" x2="56.7" y2="153.8"/>
	<line class="st3" x1="67.4" y1="153.8" x2="67.4" y2="164.7"/>
	<line class="st3" x1="73.5" y1="158.8" x2="67.8" y2="158.8"/>
	<line class="st3" x1="73.5" y1="157.4" x2="67.8" y2="157.4"/>
	<line class="st3" x1="73.5" y1="155.9" x2="67.8" y2="155.9"/>
	<line class="st3" x1="73.6" y1="160.3" x2="67.8" y2="160.3"/>
	<line class="st3" x1="56.2" y1="153.8" x2="56.2" y2="164.9"/>
	<line class="st3" x1="55.7" y1="158.8" x2="50.2" y2="158.8"/>
	<line class="st3" x1="55.7" y1="157.4" x2="50.2" y2="157.4"/>
	<line class="st3" x1="55.7" y1="155.9" x2="50.2" y2="155.9"/>
	<line class="st3" x1="55.8" y1="160.3" x2="50" y2="160.3"/>
	<path class="st3" d="M70.3,624.6c-0.3,0-0.6,0.3-0.6,0.6"/>
	<line class="st3" x1="77.7" y1="624.6" x2="70.3" y2="624.6"/>
	<line class="st3" x1="69.7" y1="625.2" x2="69.7" y2="627.4"/>
	<line class="st3" x1="69.7" y1="627.4" x2="55.1" y2="627.4"/>
	<path class="st3" d="M55.1,625.2c0-0.3-0.3-0.6-0.6-0.6"/>
	<line class="st3" x1="55.1" y1="627.4" x2="55.1" y2="625.2"/>
	<line class="st3" x1="54.5" y1="624.6" x2="47" y2="624.6"/>
	<line class="st3" x1="62.6" y1="638.4" x2="62.6" y2="624.4"/>
	<line class="st3" x1="62.3" y1="638.4" x2="62.3" y2="624.4"/>
	<line class="st3" x1="77.4" y1="637.7" x2="62.6" y2="637.7"/>
	<line class="st3" x1="62.6" y1="624.4" x2="62.3" y2="624.4"/>
	<line class="st3" x1="62.6" y1="638.4" x2="62.3" y2="638.4"/>
	<line class="st3" x1="62.3" y1="637.7" x2="46.9" y2="637.7"/>
	<line class="st3" x1="62.3" y1="636.2" x2="55.7" y2="636.2"/>
	<line class="st3" x1="62.3" y1="634.7" x2="55.7" y2="634.7"/>
	<line class="st3" x1="62.3" y1="633.2" x2="55.7" y2="633.2"/>
	<line class="st3" x1="62.3" y1="631.8" x2="55.7" y2="631.8"/>
	<line class="st3" x1="62.3" y1="630.3" x2="55.7" y2="630.3"/>
	<line class="st3" x1="62.3" y1="628.8" x2="55.7" y2="628.8"/>
	<line class="st3" x1="62.3" y1="625.8" x2="55.1" y2="625.8"/>
	<line class="st3" x1="69.1" y1="636.2" x2="62.6" y2="636.2"/>
	<line class="st3" x1="69.1" y1="634.7" x2="62.6" y2="634.7"/>
	<line class="st3" x1="69.1" y1="633.2" x2="62.6" y2="633.2"/>
	<line class="st3" x1="69.1" y1="631.8" x2="62.6" y2="631.8"/>
	<line class="st3" x1="69.1" y1="630.3" x2="62.6" y2="630.3"/>
	<line class="st3" x1="69.1" y1="628.8" x2="62.6" y2="628.8"/>
	<line class="st3" x1="69.7" y1="625.8" x2="62.6" y2="625.8"/>
	<line class="st3" x1="46.8" y1="626.1" x2="54.5" y2="626.1"/>
	<line class="st3" x1="46.9" y1="627.5" x2="55.3" y2="627.5"/>
	<line class="st3" x1="46.8" y1="629" x2="54.5" y2="629"/>
	<line class="st3" x1="46.9" y1="630.5" x2="54.5" y2="630.5"/>
	<line class="st3" x1="69.7" y1="626.1" x2="77.6" y2="626.1"/>
	<line class="st3" x1="69.6" y1="627.5" x2="77.7" y2="627.5"/>
	<line class="st3" x1="70.3" y1="629" x2="77.7" y2="629"/>
	<line class="st3" x1="70.3" y1="630.5" x2="77.7" y2="630.5"/>
	<path class="st3" d="M54.4,638.6c0,0.3,0.3,0.6,0.6,0.6c0.3,0,0.6-0.3,0.6-0.6l0,0"/>
	<line class="st3" x1="55.6" y1="638.6" x2="55.6" y2="638.4"/>
	<line class="st3" x1="54.4" y1="638.6" x2="54.4" y2="638.4"/>
	<path class="st3" d="M69.1,638.6c0,0.3,0.3,0.6,0.6,0.6c0.3,0,0.6-0.3,0.6-0.6l0,0"/>
	<line class="st3" x1="70.3" y1="638.6" x2="70.3" y2="638.4"/>
	<line class="st3" x1="69.1" y1="638.6" x2="69.1" y2="638.4"/>
	<line class="st3" x1="55" y1="638.4" x2="55" y2="627.6"/>
	<line class="st3" x1="47" y1="633.4" x2="54.5" y2="633.4"/>
	<line class="st3" x1="47" y1="634.9" x2="54.5" y2="634.9"/>
	<line class="st3" x1="47" y1="636.3" x2="54.5" y2="636.3"/>
	<line class="st3" x1="46.9" y1="631.9" x2="54.5" y2="631.9"/>
	<line class="st3" x1="69.7" y1="638.4" x2="69.7" y2="627.4"/>
	<line class="st3" x1="70.3" y1="633.4" x2="77.6" y2="633.4"/>
	<line class="st3" x1="70.3" y1="634.9" x2="77.6" y2="634.9"/>
	<line class="st3" x1="70.3" y1="636.3" x2="77.5" y2="636.3"/>
	<line class="st3" x1="70.2" y1="631.9" x2="77.8" y2="631.9"/>
	<path class="st3" d="M120.3,142.3c0,0.7-0.5,1.3-1.2,1.3H106c-0.7,0-1.2-0.6-1.2-1.3l-0.1-33.1c3.1,0,11.5,0,15.5,0L120.3,142.3
		L120.3,142.3z"/>
	<path class="st3" d="M115.1,172.1c1-1,1.7-2.4,1.7-3.9c0-3-2.4-5.4-5.4-5.4c-1.5,0-2.9,0.6-3.9,1.7c-0.5,0.6-0.9,1.2-1.2,2
		c-0.2,0.6-0.3,1.1-0.3,1.8c0,3,2.4,5.4,5.4,5.4c0.6,0,1.2-0.1,1.8-0.3C113.9,173.1,114.5,172.7,115.1,172.1z"/>
	<path class="st3" d="M62,238.5c6.5,0,11.8,5.3,11.8,11.8c0,6.5-5.3,11.8-11.8,11.8c-6.5,0-11.8-5.3-11.8-11.8
		C50.2,243.7,55.5,238.5,62,238.5z"/>
	<path class="st3" d="M62,246.7c2,0,3.5,1.6,3.5,3.5s-1.6,3.5-3.5,3.5s-3.5-1.6-3.5-3.5C58.5,248.3,60,246.7,62,246.7z"/>
	<line class="st3" x1="62" y1="246.7" x2="62" y2="238.5"/>
	<line class="st3" x1="60.2" y1="247.2" x2="56.1" y2="240"/>
	<line class="st3" x1="58.9" y1="248.5" x2="51.8" y2="244.4"/>
	<line class="st3" x1="58.5" y1="250.2" x2="50.2" y2="250.2"/>
	<line class="st3" x1="58.9" y1="252" x2="51.8" y2="256.1"/>
	<line class="st3" x1="60.2" y1="253.3" x2="56.1" y2="260.5"/>
	<line class="st3" x1="62" y1="253.8" x2="62" y2="262"/>
	<line class="st3" x1="63.8" y1="253.3" x2="67.9" y2="260.5"/>
	<line class="st3" x1="65.1" y1="252" x2="72.2" y2="256.1"/>
	<line class="st3" x1="65.5" y1="250.2" x2="73.8" y2="250.3"/>
	<line class="st3" x1="65.1" y1="248.5" x2="72.2" y2="244.4"/>
	<line class="st3" x1="63.8" y1="247.2" x2="67.9" y2="240"/>
	<polygon class="st3" points="61.9,468.3 95.9,468.3 95.9,438.4 61.9,438.4 27.9,438.4 27.9,468.3 	"/>
	<line class="st3" x1="22.7" y1="198.8" x2="0.5" y2="198.8"/>
	<polyline class="st3" points="50.1,150.2 33.5,150.2 33.5,140 50.1,140 	"/>
	<path class="st3" d="M30.6,185.2v12.7c0,7.9,4.4,13.1,9.6,18.2l-2.7,2.8c0,0,1.3,1.8,4.1,2.7"/>
	<path class="st3" d="M93.1,185.2v12.7c0,7.9-4.4,13.1-9.6,18.2l2.7,2.8c0,0-1.3,1.8-4.1,2.7"/>
	<line class="st3" x1="47.9" y1="178.8" x2="50.1" y2="178.8"/>
	<path class="st3" d="M74.1,178.8h14.8v14.9c0,9.3-4.5,17.4-11.5,22.4v0.1c-4.4,2.8-9.7,4.5-15.4,4.5h0.1c-5.7,0-11-1.6-15.4-4.5
		V216c-6.9-4.9-11.5-13.1-11.5-22.4v-14.9h9.2"/>
	<path class="st3" d="M25.6,414.7c2.8-2.3,4.6-5.6,4.6-9.4c0-6.2-3.2-13.2-11-13.2v-66.8v-23.6c0,0-0.7-7.1,6.2-7.1s10.6,0,10.6,0
		S36,298,38.9,298s3.9-3.4,3.9-3.4s0.6-2.9,7.3-2.9c0,0,21,0,24.9,0s5.3,2.9,5.3,2.9s1.4,3.2,4.3,3.2s3.1-3.4,3.1-3.4h10.8
		c7.3,0,6.4,7.1,6.4,7.1v23.7v66.8c-8.2,0-11.1,6.8-11.1,13c0,3.8,2,7.2,4.7,9.5l3.2-3.9c0.9,0.8,2,1.4,3.2,1.7l0-0.2
		c0,5.5,0,8.4,0,8.4c0,13-9.2,14.3-18,12c-4-1.1-11.8-1.3-11.8-1.3l-13.1-0.1L49,431.4c0,0-7.8,0.2-11.8,1.3c-8.7,2.3-18,1-18-12
		c0,0,0-2.9,0-8.4l0,0.2c1.2-0.3,2.3-0.9,3.2-1.7L25.6,414.7z"/>
	<path class="st3" d="M99.9,601.1v-83.4v-3.9v-34.5c0,0-16.9-8.5-37.8-8.5c-20.9,0-35.4,7.3-37.7,8.4S11.1,486.7,5.8,495v30.2h4.8"
		/>
	<path class="st3" d="M58.9,666.4v8.5C33.1,674.4,5.8,668,5.8,668v-66.9h7.6v-18.5H5.8v-51.9h4.8"/>
	<path class="st3" d="M77.8,601.1h40.6V668c0,0-27.3,6.4-53.1,6.9v-8.5"/>
	<polyline class="st3" points="29.9,525.3 62.6,525.3 99.9,525.3 46.4,525.3 	"/>
	<polyline class="st3" points="46.5,613.4 36,613.4 36,601.1 46.4,601.1 46.4,560.8 89.5,560.8 99.9,560.8 	"/>
	<line class="st3" x1="46.5" y1="642.2" x2="62.2" y2="642.2"/>
	<polyline class="st3" points="80.5,601.1 80.5,613.4 77.8,613.4 	"/>
	<polyline class="st3" points="92.1,623.2 77.8,623.2 77.8,653.3 62.1,653.3 	"/>
	<line class="st3" x1="77.8" y1="642.2" x2="62.1" y2="642.2"/>
	<polyline class="st3" points="74,168.7 74,134.4 88.7,134.3 88.7,87 51.1,87 51.1,84.6 33.4,84.7 33.4,130.1 	"/>
	<polyline class="st3" points="50.1,168.7 50.1,129.9 33.5,129.9 	"/>
	<polyline class="st3" points="46.5,628.5 36,628.5 36,623.2 46.5,623.2 46.5,653.3 62.2,653.3 	"/>
	<rect x="99.9" y="520.9" class="st3" width="17.8" height="75.4"/>
	<line class="st3" x1="99.9" y1="580" x2="117.7" y2="580"/>
	<polyline class="st3" points="80.5,613.4 93.7,613.4 93.7,601.1 	"/>
	<path class="st3" d="M62.3,283.7C62.3,283.7,62.3,283.7,62.3,283.7C62.3,283.7,62.3,283.7,62.3,283.7L62.3,283.7z"/>
	<path class="st3" d="M31.9,224.7c3.8,3.1,8.6,6,13.3,7.8c-4.1,4.3-6.7,10.1-6.7,16.5c0,5.7,1.9,11,5.3,15.1l0,13
		c0,0,7.1,6.6,18.4,6.6c11.3,0,18.4-6.6,18.4-6.6l0-13c3.3-4.1,5.4-9.3,5.4-15c0-6.5-2.6-12.5-6.9-16.8c4.7-1.9,9-4.6,12.8-7.9"/>
	<line class="st3" x1="66.2" y1="199.5" x2="58" y2="199.5"/>
	<polyline class="st3" points="48.6,150.2 81.4,150.2 81.4,171.7 77,171.7 	"/>
	<line class="st3" x1="95.2" y1="167.7" x2="91.9" y2="167.7"/>
	<line class="st3" x1="88.1" y1="158.2" x2="95.2" y2="158.2"/>
	<polyline class="st3" points="95.2,142.2 95.2,149 88.1,149 88.1,167.7 91.9,167.7 91.9,176.6 95.2,174.9 95.2,149 	"/>
	<rect x="74.8" y="141.5" class="st3" width="2.8" height="6.2"/>
	<circle class="st3" cx="76.2" cy="139.7" r="1"/>
	<line class="st3" x1="95.2" y1="109" x2="123.7" y2="109"/>
	<line class="st3" x1="33.5" y1="152.5" x2="33.5" y2="129.4"/>
	<polyline class="st3" points="27,142.5 27,170.4 31.1,172.8 43.1,172.8 	"/>
	<path class="st3" d="M95.2,136.7V84c0,0-2.1-8.4-9.5-15.2l2.6-3.6"/>
	<path class="st3" d="M27,137.4V84.2c0,0,2.7-8.6,10.6-15.5l-2.9-3.1"/>
	<path class="st3" d="M30.5,77l-3.2-2.7c10.3-16.6,27.6-18.4,34-18.4c6.4,0,25.2,1.5,34.6,18.4l-3.8,2.4"/>
	<line class="st3" x1="21.6" y1="110.1" x2="0.5" y2="110.1"/>
	<polyline class="st3" points="5.6,110.1 5.6,120 21.6,120 	"/>
	<path class="st3" d="M92.2,690.7v5.9c0,0-16,4.2-30.1,4.2c-14,0-30.1-4.2-30.1-4.2v-5.9"/>
	<path class="st3" d="M0.4,48.2h5.8V41c6-6.6,24.6-23.9,55.9-23.9c30.7,0,49.2,16.6,55.6,23.5v7.7h5.9"/>
	<path class="st3" d="M0.6,675.5c0,0,28.1,19.6,57.3,19.6c0.9,0,0.8-0.6,0.8-2c0-1.5,0-4.2,0-4.2h3.5h3.5c0,0,0,2.7,0,4.2
		c0,1.3-0.1,2,0.8,2c29.3,0,57.3-19.6,57.3-19.6"/>
	<path class="st3" d="M121.8,109v34.8c0,0.8-0.6,1.4-1.4,1.4h-15.7c-0.8,0-1.4-0.6-1.4-1.4V109"/>
	<path class="st3" d="M111.2,177.2c-2.6,0-5-1-6.7-2.7l2.6-2.9"/>
	<path class="st3" d="M111.1,177.2c2.6,0,5-1,6.7-2.7l-2.3-3.1"/>
	<line class="st3" x1="105.6" y1="175.2" x2="107.5" y2="172.6"/>
	<line class="st3" x1="106.7" y1="175.9" x2="108.2" y2="173.1"/>
	<line class="st3" x1="107.8" y1="176.4" x2="109" y2="173.5"/>
	<line class="st3" x1="109.1" y1="176.8" x2="109.8" y2="173.7"/>
	<line class="st3" x1="116.7" y1="175.2" x2="114.9" y2="172.6"/>
	<line class="st3" x1="115.7" y1="175.9" x2="114.1" y2="173.1"/>
	<line class="st3" x1="114.5" y1="176.4" x2="113.4" y2="173.5"/>
	<line class="st3" x1="113.2" y1="176.8" x2="112.5" y2="173.7"/>
	<line class="st3" x1="6.2" y1="623.2" x2="27.5" y2="623.2"/>
	<line class="st3" x1="12" y1="601.1" x2="16.5" y2="601.1"/>
	<line class="st3" x1="26.9" y1="601.1" x2="39.9" y2="601.1"/>
	<line class="st3" x1="123.6" y1="187.4" x2="101.8" y2="187.4"/>
	<line class="st3" x1="102" y1="184.2" x2="102" y2="190.3"/>
	<polyline class="st3" points="62.6,525.3 62.6,542.8 68,549.5 77.9,549.5 	"/>
	<path class="st4" d="M89.1,150.4H90c0.8,0,1.5,0.4,1.5,1.5v0.1c0,0.6-0.2,1-0.6,1.2l0.6,1.9h-0.9l-0.5-1.7H90v1.7h-0.8V150.4z
		 M90,152.7c0.4,0,0.6-0.2,0.6-0.8v-0.1c0-0.6-0.3-0.8-0.6-0.8h0L90,152.7L90,152.7z M91.8,150.4h0.9c0.8,0,1.5,0.4,1.5,1.5v0.1
		c0,0.6-0.2,1-0.6,1.2l0.6,1.9h-0.9l-0.5-1.7h-0.2v1.7h-0.8V150.4z M92.7,152.7c0.4,0,0.6-0.2,0.6-0.8v-0.1c0-0.6-0.3-0.8-0.6-0.8h0
		L92.7,152.7L92.7,152.7z"/>
	<path class="st4" d="M89.1,159.2H90c0.8,0,1.5,0.4,1.5,1.5v0.1c0,0.6-0.2,1-0.6,1.2l0.6,1.9h-0.9l-0.5-1.7H90v1.7h-0.8V159.2z
		 M90,161.6c0.4,0,0.6-0.2,0.6-0.8v-0.1c0-0.6-0.3-0.8-0.6-0.8h0L90,161.6L90,161.6z M91.8,159.2h0.9c0.8,0,1.5,0.4,1.5,1.5v0.1
		c0,0.6-0.2,1-0.6,1.2l0.6,1.9h-0.9l-0.5-1.7h-0.2v1.7h-0.8V159.2z M92.7,161.6c0.4,0,0.6-0.2,0.6-0.8v-0.1c0-0.6-0.3-0.8-0.6-0.8h0
		L92.7,161.6L92.7,161.6z"/>
	<path class="st4" d="M39,131.6h0.9c0.8,0,1.5,0.4,1.5,1.5v0.1c0,0.6-0.2,1-0.6,1.2l0.6,1.9h-0.9l-0.5-1.7h-0.2v1.7H39
		C39,136.4,39,131.6,39,131.6z M39.8,134c0.4,0,0.6-0.2,0.6-0.8v-0.1c0-0.6-0.3-0.8-0.6-0.8h0L39.8,134L39.8,134z M41.7,131.6h0.9
		c0.8,0,1.5,0.4,1.5,1.5v0.1c0,0.6-0.2,1-0.6,1.2l0.6,1.9h-0.9l-0.5-1.7h-0.2v1.7h-0.8C41.7,136.4,41.7,131.6,41.7,131.6z M42.5,134
		c0.4,0,0.6-0.2,0.6-0.8v-0.1c0-0.6-0.3-0.8-0.6-0.8h0L42.5,134L42.5,134z"/>
	<path class="st4" d="M39,141.9h0.9c0.8,0,1.5,0.4,1.5,1.5v0.1c0,0.6-0.2,1-0.6,1.2l0.6,1.9h-0.9l-0.5-1.7h-0.2v1.7H39
		C39,146.6,39,141.9,39,141.9z M39.8,144.2c0.4,0,0.6-0.2,0.6-0.8v-0.1c0-0.6-0.3-0.8-0.6-0.8h0L39.8,144.2L39.8,144.2z M41.7,141.9
		h0.9c0.8,0,1.5,0.4,1.5,1.5v0.1c0,0.6-0.2,1-0.6,1.2l0.6,1.9h-0.9l-0.5-1.7h-0.2v1.7h-0.8C41.7,146.6,41.7,141.9,41.7,141.9z
		 M42.5,144.2c0.4,0,0.6-0.2,0.6-0.8v-0.1c0-0.6-0.3-0.8-0.6-0.8h0L42.5,144.2L42.5,144.2z"/>
	<path class="st4" d="M38.9,604.6h0.9c0.8,0,1.5,0.4,1.5,1.5v0.1c0,0.6-0.2,1-0.6,1.2l0.6,1.9h-0.9l-0.5-1.7h-0.2v1.7h-0.8
		C38.9,609.4,38.9,604.6,38.9,604.6z M39.8,607c0.4,0,0.6-0.2,0.6-0.8v-0.1c0-0.6-0.3-0.8-0.6-0.8h0L39.8,607L39.8,607L39.8,607z
		 M41.6,604.6h0.9c0.8,0,1.5,0.4,1.5,1.5v0.1c0,0.6-0.2,1-0.6,1.2l0.6,1.9h-0.9l-0.5-1.7h-0.2v1.7h-0.8
		C41.6,609.4,41.6,604.6,41.6,604.6z M42.5,607c0.4,0,0.6-0.2,0.6-0.8v-0.1c0-0.6-0.3-0.8-0.6-0.8h0L42.5,607L42.5,607L42.5,607z"/>
	<path class="st4" d="M84.5,604.6h0.9c0.8,0,1.5,0.4,1.5,1.5v0.1c0,0.6-0.2,1-0.6,1.2l0.6,1.9H86l-0.5-1.7h-0.2v1.7h-0.8V604.6z
		 M85.4,607c0.4,0,0.6-0.2,0.6-0.8v-0.1c0-0.6-0.3-0.8-0.6-0.8h0L85.4,607L85.4,607L85.4,607z M87.2,604.6h0.9
		c0.8,0,1.5,0.4,1.5,1.5v0.1c0,0.6-0.2,1-0.6,1.2l0.6,1.9h-0.9l-0.5-1.7H88v1.7h-0.8V604.6z M88.1,607c0.4,0,0.6-0.2,0.6-0.8v-0.1
		c0-0.6-0.3-0.8-0.6-0.8h0L88.1,607L88.1,607L88.1,607z"/>
	<path class="st4" d="M80.1,139.1h0.8v4h0.9v0.8h-1.7V139.1z M81.9,141.6v-0.2c0-1.6,0.5-2.3,1.3-2.3s1.3,0.8,1.3,2.3v0.2
		c0,1.6-0.5,2.3-1.3,2.3S81.9,143.1,81.9,141.6z M83.6,141.6v-0.2c0-1.2-0.2-1.6-0.4-1.6s-0.4,0.3-0.4,1.6v0.2
		c0,1.2,0.2,1.6,0.4,1.6S83.6,142.8,83.6,141.6z M84.8,139.1h0.7c0.8,0,1.5,0.3,1.5,1.2v0c0,0.6-0.3,0.9-0.7,1.1
		c0.4,0.2,0.7,0.5,0.7,1.1v0.1c0,0.8-0.7,1.3-1.6,1.3h-0.8C84.8,143.8,84.8,139.1,84.8,139.1z M85.7,141.1c0.4,0,0.6-0.2,0.6-0.6v0
		c0-0.4-0.2-0.6-0.6-0.6h0L85.7,141.1L85.7,141.1L85.7,141.1z M85.7,143.1c0.4,0,0.7-0.2,0.7-0.6v0c0-0.4-0.3-0.6-0.7-0.6h0
		L85.7,143.1L85.7,143.1L85.7,143.1z M87.5,139.1h0.7c0.8,0,1.5,0.3,1.5,1.2v0c0,0.6-0.3,0.9-0.7,1.1c0.4,0.2,0.7,0.5,0.7,1.1v0.1
		c0,0.8-0.7,1.3-1.6,1.3h-0.8C87.5,143.8,87.5,139.1,87.5,139.1z M88.3,141.1c0.4,0,0.6-0.2,0.6-0.6v0c0-0.4-0.2-0.6-0.6-0.6h0
		L88.3,141.1L88.3,141.1L88.3,141.1z M88.3,143.1c0.4,0,0.7-0.2,0.7-0.6v0c0-0.4-0.3-0.6-0.7-0.6h0L88.3,143.1L88.3,143.1
		L88.3,143.1z M90.7,142l-0.9-2.9h0.9l0.4,1.8l0.5-1.8h0.8l-0.9,2.9v1.9h-0.8L90.7,142L90.7,142z"/>
	<path class="st4" d="M108.5,164.5h0.6v1.5h0.5v-1.5h0.6v3.5h-0.6v-1.5h-0.5v1.5h-0.6V164.5z M110.6,166.3v-0.2
		c0-1.2,0.4-1.7,0.9-1.7s0.9,0.6,0.9,1.7v0.2c0,1.2-0.4,1.7-0.9,1.7S110.6,167.5,110.6,166.3z M111.8,166.3v-0.2
		c0-0.9-0.1-1.2-0.3-1.2c-0.2,0-0.3,0.2-0.3,1.2v0.2c0,0.9,0.1,1.2,0.3,1.2C111.7,167.4,111.8,167.2,111.8,166.3z M113,165h-0.4
		v-0.6h1.5v0.6h-0.4v2.9H113V165z M108.9,169h-0.4v-0.6h1.5v0.6h-0.4v2.9h-0.6V169z M110.2,170.9v-2.5h0.6v2.5
		c0,0.3,0.1,0.4,0.3,0.4s0.3-0.1,0.3-0.4v-2.5h0.6v2.5c0,0.7-0.4,1.1-0.9,1.1C110.5,172,110.2,171.7,110.2,170.9z M112.3,168.5h0.5
		c0.6,0,1.1,0.2,1.1,0.9v0c0,0.4-0.3,0.7-0.5,0.8c0.3,0.1,0.6,0.3,0.6,0.8v0c0,0.6-0.5,1-1.2,1h-0.6V168.5z M112.9,169.9
		c0.3,0,0.4-0.2,0.4-0.5v0c0-0.3-0.2-0.4-0.4-0.4h0L112.9,169.9L112.9,169.9z M112.9,171.4c0.3,0,0.5-0.2,0.5-0.5v0
		c0-0.3-0.2-0.5-0.5-0.5h0L112.9,171.4L112.9,171.4L112.9,171.4z"/>
	<path class="st4" d="M31.6,545.6v-0.9c0.3,0.2,0.5,0.3,0.7,0.3c0.2,0,0.4-0.1,0.4-0.4v0c0-0.2-0.1-0.4-0.5-0.8
		c-0.6-0.6-0.8-0.9-0.8-1.5v0c0-0.8,0.5-1.2,1.2-1.2c0.3,0,0.5,0,0.7,0.1v0.9c-0.3-0.1-0.4-0.2-0.6-0.2c-0.2,0-0.4,0.1-0.4,0.4v0
		c0,0.2,0.1,0.3,0.5,0.8c0.7,0.8,0.8,1,0.8,1.6v0c0,0.7-0.5,1.2-1.2,1.2C32.1,545.8,31.8,545.7,31.6,545.6z M33.9,544.3V541h0.8v3.4
		c0,0.4,0.1,0.6,0.4,0.6s0.4-0.2,0.4-0.6V541h0.8v3.4c0,1-0.5,1.4-1.2,1.4C34.4,545.8,33.9,545.3,33.9,544.3z M36.6,545.6v-0.9
		c0.3,0.2,0.5,0.3,0.7,0.3c0.2,0,0.4-0.1,0.4-0.4v0c0-0.2-0.1-0.4-0.5-0.8c-0.6-0.6-0.8-0.9-0.8-1.5v0c0-0.8,0.5-1.2,1.2-1.2
		c0.3,0,0.5,0,0.7,0.1v0.9c-0.3-0.1-0.4-0.2-0.6-0.2c-0.2,0-0.4,0.1-0.4,0.4v0c0,0.2,0.1,0.3,0.5,0.8c0.7,0.8,0.8,1,0.8,1.6v0
		c0,0.7-0.5,1.2-1.2,1.2C37.1,545.8,36.9,545.7,36.6,545.6z M38.9,541h0.8v2h0.7v-2h0.8v4.8h-0.8v-2h-0.7v2h-0.8L38.9,541L38.9,541z
		 M41.8,541h0.8v4.8h-0.8V541z M44.2,541h0.7c0.8,0,1.5,0.3,1.5,1.2v0c0,0.6-0.3,0.9-0.7,1.1c0.4,0.2,0.7,0.5,0.7,1.1v0.1
		c0,0.8-0.7,1.3-1.6,1.3h-0.8V541z M45.1,543c0.4,0,0.6-0.2,0.6-0.6v0c0-0.4-0.2-0.6-0.6-0.6h0L45.1,543L45.1,543z M45.1,545
		c0.4,0,0.7-0.2,0.7-0.6v0c0-0.4-0.3-0.6-0.7-0.6h0L45.1,545L45.1,545L45.1,545z M47.5,541h0.9l0.9,4.8h-0.8l-0.2-0.9h-0.8l-0.1,0.9
		h-0.8L47.5,541z M48.2,544l-0.3-1.6l-0.3,1.6H48.2z M49.6,541h0.9c0.8,0,1.5,0.4,1.5,1.5v0.1c0,0.6-0.2,1-0.6,1.2l0.6,1.9h-0.9
		l-0.5-1.7h-0.2v1.7h-0.8C49.6,545.7,49.6,541,49.6,541z M50.4,543.3c0.4,0,0.6-0.2,0.6-0.8v-0.1c0-0.6-0.3-0.8-0.6-0.8h0
		L50.4,543.3L50.4,543.3L50.4,543.3z"/>
	<path class="st4" d="M90.5,637.4h0.8v4h0.9v0.8h-1.7V637.4z M92.6,637.4h1.8v0.8h-1v1.2h0.9v0.8h-0.9v1.2h1v0.8h-1.8
		C92.6,642.2,92.6,637.4,92.6,637.4z M95.9,637.4h0.7c0.8,0,1.5,0.3,1.5,1.2v0c0,0.6-0.3,0.9-0.7,1.1c0.4,0.2,0.7,0.5,0.7,1.1v0.1
		c0,0.8-0.7,1.3-1.6,1.3h-0.8L95.9,637.4L95.9,637.4z M96.7,639.4c0.4,0,0.6-0.2,0.6-0.6v0c0-0.4-0.2-0.6-0.6-0.6h0L96.7,639.4
		L96.7,639.4z M96.7,641.4c0.4,0,0.7-0.2,0.7-0.6v0c0-0.4-0.3-0.6-0.7-0.6h0L96.7,641.4L96.7,641.4L96.7,641.4z M98.6,637.4h0.8v4.8
		h-0.8V637.4z M99.8,642v-0.9c0.3,0.2,0.5,0.3,0.7,0.3c0.2,0,0.4-0.1,0.4-0.4v0c0-0.2-0.1-0.4-0.5-0.8c-0.6-0.6-0.8-0.9-0.8-1.5v0
		c0-0.8,0.5-1.2,1.2-1.2c0.3,0,0.5,0,0.7,0.1v0.9c-0.3-0.1-0.4-0.2-0.6-0.2c-0.2,0-0.4,0.1-0.4,0.4v0c0,0.2,0.1,0.3,0.5,0.8
		c0.7,0.8,0.8,1,0.8,1.6v0c0,0.7-0.5,1.2-1.2,1.2C100.3,642.2,100,642.1,99.8,642z M102.5,638.2h-0.6v-0.8h2v0.8h-0.6v4h-0.8V638.2z
		 M104.2,637.4h0.9c0.8,0,1.5,0.4,1.5,1.5v0.1c0,0.6-0.2,1-0.6,1.2l0.6,1.9h-0.9l-0.5-1.7H105v1.7h-0.8V637.4z M105.1,639.8
		c0.4,0,0.6-0.2,0.6-0.8V639c0-0.6-0.3-0.8-0.6-0.8h0L105.1,639.8L105.1,639.8L105.1,639.8z M106.8,639.9v-0.2
		c0-1.6,0.5-2.3,1.3-2.3s1.3,0.8,1.3,2.3v0.2c0,1.6-0.5,2.3-1.3,2.3S106.8,641.5,106.8,639.9z M108.5,639.9v-0.2
		c0-1.2-0.2-1.6-0.4-1.6c-0.3,0-0.4,0.3-0.4,1.6v0.2c0,1.2,0.2,1.6,0.4,1.6C108.3,641.5,108.5,641.2,108.5,639.9z"/>
	<path class="st4" d="M99.6,156.6h0.8v2l0.7-2h0.9l-0.8,2l0.8,2.7h-0.9l-0.5-1.8l-0.2,0.5v1.3h-0.8L99.6,156.6L99.6,156.6z
		 M102.4,156.6h0.8v4.8h-0.8V156.6z M103.7,156.6h0.8c1.1,0,1.7,0.8,1.7,2.3v0.2c0,1.5-0.6,2.3-1.7,2.3h-0.8V156.6z M104.6,160.5
		c0.4,0,0.7-0.3,0.7-1.5v-0.2c0-1.2-0.3-1.5-0.7-1.5h0L104.6,160.5L104.6,160.5L104.6,160.5z M106.4,161.1v-0.9
		c0.3,0.2,0.5,0.3,0.7,0.3c0.2,0,0.4-0.1,0.4-0.4v0c0-0.2-0.1-0.4-0.5-0.8c-0.6-0.6-0.8-0.9-0.8-1.5v0c0-0.8,0.5-1.2,1.2-1.2
		c0.3,0,0.5,0,0.7,0.1v0.9c-0.3-0.1-0.4-0.2-0.6-0.2c-0.2,0-0.4,0.1-0.4,0.4v0c0,0.2,0.1,0.3,0.5,0.8c0.7,0.8,0.8,1,0.8,1.6v0
		c0,0.7-0.5,1.2-1.2,1.2C106.9,161.3,106.6,161.3,106.4,161.1z M108.5,158.3c0.5-0.1,0.6-0.5,0.6-0.8h-0.4v-0.9h0.9v0.8
		c0,0.7-0.3,1.2-1,1.3L108.5,158.3z M111.2,156.6h0.7c0.9,0,1.5,0.5,1.5,1.6v0c0,1.1-0.6,1.6-1.4,1.6h0v1.5h-0.8L111.2,156.6
		L111.2,156.6z M112,159c0.3,0,0.6-0.3,0.6-0.8v0c0-0.6-0.2-0.9-0.6-0.9h0L112,159L112,159z M113.7,159.1v-0.2
		c0-1.6,0.5-2.3,1.3-2.3s1.3,0.8,1.3,2.3v0.2c0,1.6-0.5,2.3-1.3,2.3S113.7,160.6,113.7,159.1z M115.4,159.1v-0.2
		c0-1.2-0.2-1.6-0.4-1.6s-0.4,0.3-0.4,1.6v0.2c0,1.2,0.2,1.6,0.4,1.6S115.4,160.3,115.4,159.1z M116.6,159.1v-0.2
		c0-1.6,0.5-2.3,1.3-2.3s1.3,0.8,1.3,2.3v0.2c0,1.6-0.5,2.3-1.3,2.3S116.6,160.6,116.6,159.1z M118.3,159.1v-0.2
		c0-1.2-0.2-1.6-0.4-1.6s-0.4,0.3-0.4,1.6v0.2c0,1.2,0.2,1.6,0.4,1.6S118.3,160.3,118.3,159.1z M119.5,156.6h0.8v4h0.9v0.8h-1.7
		V156.6z"/>
	<path class="st4" d="M6.6,344.2v-0.7c0-0.9,0.5-1.5,1.6-1.5h0c1.1,0,1.6,0.6,1.6,1.4v0h1.5v0.8H6.6z M9.1,343.4
		c0-0.3-0.3-0.6-0.8-0.6h0c-0.6,0-0.9,0.2-0.9,0.6v0L9.1,343.4L9.1,343.4L9.1,343.4z M6.6,341.6v-0.9c0-0.8,0.4-1.5,1.5-1.5h0.1
		c0.6,0,1,0.2,1.2,0.6l1.9-0.6v0.9l-1.7,0.5v0.2h1.7v0.8H6.6z M9,340.7c0-0.4-0.2-0.6-0.8-0.6H8.1c-0.6,0-0.8,0.3-0.8,0.6v0L9,340.7
		L9,340.7L9,340.7z M9.1,339H8.9c-1.6,0-2.3-0.5-2.3-1.3c0-0.8,0.8-1.3,2.3-1.3h0.2c1.6,0,2.3,0.5,2.3,1.3
		C11.4,338.5,10.7,339,9.1,339z M9.1,337.3H8.9c-1.2,0-1.6,0.2-1.6,0.4c0,0.3,0.3,0.4,1.6,0.4h0.2c1.2,0,1.6-0.2,1.6-0.4
		C10.7,337.4,10.3,337.3,9.1,337.3z M6.6,336v-0.8l1.7-0.6L6.6,334v-0.8h4.8v0.8H8.5l1.8,0.6v0l-1.8,0.6h2.9v0.8L6.6,336L6.6,336z
		 M6.6,332.7v-1.8h0.8v1h1.2V331h0.8v0.9h1.2v-1h0.8v1.8H6.6z M6.6,330.5v-0.8l2.4-0.8H6.6v-0.8h4.8v0.7l-2.5,0.9h2.5v0.8H6.6z
		 M6.6,326.9V326l4.8-0.9v0.8l-0.9,0.2v0.8l0.9,0.1v0.8L6.6,326.9z M9.7,326.2l-1.6,0.3l1.6,0.3V326.2z M6.6,324.9v-0.8
		c0-1.1,0.8-1.7,2.3-1.7h0.2c1.5,0,2.3,0.6,2.3,1.7v0.8H6.6z M10.6,324c0-0.4-0.3-0.7-1.5-0.7H8.9c-1.2,0-1.5,0.3-1.5,0.7v0
		L10.6,324L10.6,324z M6.6,322v-1.8h0.8v1h1.2v-0.9h0.8v0.9h1.2v-1h0.8v1.8L6.6,322L6.6,322z"/>
	<path class="st4" d="M109.5,344.2v-0.7c0-0.9,0.5-1.5,1.6-1.5h0c1.1,0,1.6,0.6,1.6,1.4v0h1.5v0.8H109.5z M111.9,343.4
		c0-0.3-0.3-0.6-0.8-0.6h0c-0.6,0-0.9,0.2-0.9,0.6v0L111.9,343.4L111.9,343.4z M109.5,341.6v-0.9c0-0.8,0.4-1.5,1.5-1.5h0.1
		c0.6,0,1,0.2,1.2,0.6l1.9-0.6v0.9l-1.7,0.5v0.2h1.7v0.8H109.5z M111.8,340.7c0-0.4-0.2-0.6-0.8-0.6H111c-0.6,0-0.8,0.3-0.8,0.6v0
		L111.8,340.7L111.8,340.7L111.8,340.7z M112,339h-0.2c-1.6,0-2.3-0.5-2.3-1.3c0-0.8,0.8-1.3,2.3-1.3h0.2c1.6,0,2.3,0.5,2.3,1.3
		C114.3,338.5,113.5,339,112,339z M112,337.3h-0.2c-1.2,0-1.6,0.2-1.6,0.4c0,0.3,0.3,0.4,1.6,0.4h0.2c1.2,0,1.6-0.2,1.6-0.4
		C113.5,337.4,113.2,337.3,112,337.3z M109.5,336v-0.8l1.7-0.6l-1.7-0.6v-0.8h4.8v0.8h-2.9l1.8,0.6v0l-1.8,0.6h2.9v0.8L109.5,336
		L109.5,336z M109.5,332.7v-1.8h0.8v1h1.2V331h0.8v0.9h1.2v-1h0.8v1.8H109.5z M109.5,330.5v-0.8l2.4-0.8h-2.4v-0.8h4.8v0.7l-2.5,0.9
		h2.5v0.8H109.5z M109.4,326.9V326l4.8-0.9v0.8l-0.9,0.2v0.8l0.9,0.1v0.8L109.4,326.9z M112.5,326.2l-1.6,0.3l1.6,0.3V326.2z
		 M109.5,324.9v-0.8c0-1.1,0.8-1.7,2.3-1.7h0.2c1.5,0,2.3,0.6,2.3,1.7v0.8H109.5z M113.4,324c0-0.4-0.3-0.7-1.5-0.7h-0.2
		c-1.2,0-1.5,0.3-1.5,0.7v0L113.4,324C113.4,324.1,113.4,324,113.4,324z M109.5,322v-1.8h0.8v1h1.2v-0.9h0.8v0.9h1.2v-1h0.8v1.8
		L109.5,322L109.5,322z"/>
	<path class="st4" d="M35.5,157.1h-0.6v-0.8h2v0.8h-0.6v4h-0.8V157.1z M37.2,156.3h0.8v2h0.7v-2h0.8v4.8h-0.8v-2h-0.7v2h-0.8V156.3z
		 M40.1,156.3h1.8v0.8h-1v1.2h0.9v0.8h-0.9v1.2h1v0.8h-1.8V156.3z M31.8,166.6v-0.2c0-1.7,0.6-2.3,1.4-2.3c0.2,0,0.4,0,0.5,0.1v0.9
		c-0.2-0.1-0.3-0.2-0.5-0.2c-0.4,0-0.6,0.3-0.6,1.5v0.2c0,1.3,0.3,1.5,0.6,1.5c0.1,0,0.3,0,0.5-0.1v0.8c-0.2,0.1-0.4,0.1-0.6,0.1
		C32.3,168.9,31.8,168.2,31.8,166.6z M34.1,164.1H35v2h0.7v-2h0.8v4.8h-0.8v-2H35v2h-0.8V164.1z M37.7,164.1h0.9l0.9,4.8h-0.8
		l-0.2-0.9h-0.8l-0.1,0.9h-0.8L37.7,164.1z M38.3,167.2l-0.3-1.6l-0.3,1.6H38.3z M39.7,164.1h0.7c0.9,0,1.5,0.5,1.5,1.6v0
		c0,1.1-0.6,1.6-1.4,1.6h0v1.5h-0.8L39.7,164.1L39.7,164.1z M40.5,166.6c0.3,0,0.6-0.3,0.6-0.8v0c0-0.6-0.2-0.9-0.6-0.9h0
		L40.5,166.6L40.5,166.6z M42.3,164.1h1.8v0.8h-1v1.2H44v0.8h-0.9v1.2h1v0.8h-1.8V164.1z M44.5,164.1h0.8v4h0.9v0.8h-1.7V164.1z"/>
	<path class="st4" d="M48.7,227.1v-0.2c0-1.7,0.6-2.3,1.4-2.3c0.2,0,0.4,0,0.5,0.1v0.9c-0.2-0.1-0.3-0.2-0.5-0.2
		c-0.4,0-0.6,0.3-0.6,1.5v0.2c0,1.3,0.3,1.5,0.6,1.5c0.1,0,0.3,0,0.5-0.1v0.8c-0.2,0.1-0.4,0.1-0.6,0.1
		C49.3,229.4,48.7,228.8,48.7,227.1z M51,224.6h0.8v2h0.7v-2h0.8v4.8h-0.8v-2h-0.7v2H51V224.6z M54.6,224.6h0.9l0.9,4.8h-0.8
		l-0.2-0.9h-0.8l-0.1,0.9h-0.8L54.6,224.6z M55.3,227.7l-0.3-1.6l-0.3,1.6H55.3z M56.6,224.6h0.8l0.6,1.7l0.6-1.7h0.8v4.8h-0.8v-2.9
		l-0.6,1.8h0l-0.6-1.8v2.9h-0.8L56.6,224.6L56.6,224.6z M59.9,224.6h0.7c0.9,0,1.5,0.5,1.5,1.6v0c0,1.1-0.6,1.6-1.4,1.6h0v1.5h-0.8
		C59.9,229.4,59.9,224.6,59.9,224.6z M60.7,227.1c0.3,0,0.6-0.3,0.6-0.8v0c0-0.6-0.2-0.9-0.6-0.9h0L60.7,227.1L60.7,227.1z
		 M62.5,226.4c0.5-0.1,0.6-0.5,0.6-0.8h-0.4v-0.9h0.9v0.8c0,0.7-0.3,1.2-1,1.3L62.5,226.4z M64,229.2v-0.9c0.3,0.2,0.5,0.3,0.7,0.3
		c0.2,0,0.4-0.1,0.4-0.4v0c0-0.2-0.1-0.4-0.5-0.8c-0.6-0.6-0.8-0.9-0.8-1.5v0c0-0.8,0.5-1.2,1.2-1.2c0.3,0,0.5,0,0.7,0.1v0.9
		c-0.3-0.1-0.4-0.2-0.6-0.2c-0.2,0-0.4,0.1-0.4,0.4v0c0,0.2,0.1,0.3,0.5,0.8c0.7,0.8,0.8,1,0.8,1.6v0c0,0.7-0.5,1.2-1.2,1.2
		C64.5,229.4,64.2,229.4,64,229.2z M67.3,224.6h0.7c0.8,0,1.5,0.3,1.5,1.2v0c0,0.6-0.3,0.9-0.7,1.1c0.4,0.2,0.7,0.5,0.7,1.1v0.1
		c0,0.8-0.7,1.3-1.6,1.3h-0.8C67.3,229.4,67.3,224.6,67.3,224.6z M68.2,226.6c0.4,0,0.6-0.2,0.6-0.6v0c0-0.4-0.2-0.6-0.6-0.6h0
		L68.2,226.6L68.2,226.6L68.2,226.6z M68.2,228.6c0.4,0,0.7-0.2,0.7-0.6v0c0-0.4-0.3-0.6-0.7-0.6h0L68.2,228.6L68.2,228.6
		L68.2,228.6z M70.6,224.6h0.9l0.9,4.8h-0.8l-0.2-0.9h-0.8l-0.2,0.9h-0.8L70.6,224.6z M71.3,227.7l-0.3-1.6l-0.3,1.6H71.3z
		 M72.7,224.6h0.9c0.8,0,1.5,0.4,1.5,1.5v0.1c0,0.6-0.2,1-0.6,1.2l0.6,1.9h-0.9l-0.5-1.7h-0.2v1.7h-0.8L72.7,224.6L72.7,224.6z
		 M73.5,227c0.4,0,0.6-0.2,0.6-0.8v-0.1c0-0.6-0.3-0.8-0.6-0.8h0L73.5,227L73.5,227z"/>
	<path class="st4" d="M120.4,508.7h-0.9c0.2-0.3,0.3-0.5,0.3-0.7c0-0.2-0.1-0.4-0.4-0.4h0c-0.2,0-0.4,0.1-0.8,0.5
		c-0.6,0.6-0.9,0.8-1.5,0.8h0c-0.8,0-1.2-0.5-1.2-1.2c0-0.3,0-0.5,0.1-0.7h0.9c-0.1,0.3-0.2,0.4-0.2,0.6c0,0.2,0.1,0.4,0.4,0.4h0
		c0.2,0,0.3-0.1,0.8-0.5c0.8-0.7,1-0.8,1.6-0.8h0c0.7,0,1.2,0.5,1.2,1.2C120.6,508.1,120.5,508.4,120.4,508.7z M115.8,506.3v-0.8h2
		v-0.7h-2V504h4.8v0.8h-2v0.7h2v0.8H115.8z M119.1,503.5h-3.4v-0.8h3.4c0.4,0,0.6-0.1,0.6-0.4s-0.2-0.4-0.6-0.4h-3.4v-0.8h3.4
		c1,0,1.4,0.5,1.4,1.2S120.1,503.5,119.1,503.5z M115.8,500.7v-1.7h0.8v0.9h1.2V499h0.8v0.8h2v0.8L115.8,500.7L115.8,500.7z
		 M115.8,498.6v-1.7h0.8v0.9h1.2v-0.8h0.8v0.8h2v0.8L115.8,498.6L115.8,498.6z M115.8,496.5v-0.8h4v-0.9h0.8v1.7H115.8z
		 M115.8,494.4v-1.8h0.8v1h1.2v-0.9h0.8v0.9h1.2v-1h0.8v1.8H115.8z M115.8,491.1v-0.7c0-0.8,0.3-1.5,1.2-1.5h0
		c0.6,0,0.9,0.3,1.1,0.7c0.2-0.4,0.5-0.7,1.1-0.7h0.1c0.8,0,1.3,0.7,1.3,1.6v0.8H115.8z M117.8,490.3c0-0.4-0.2-0.6-0.6-0.6h0
		c-0.4,0-0.6,0.2-0.6,0.6v0L117.8,490.3L117.8,490.3z M119.8,490.2c0-0.4-0.2-0.7-0.6-0.7h0c-0.4,0-0.6,0.3-0.6,0.7v0L119.8,490.2
		L119.8,490.2L119.8,490.2z M118.3,488.5H118c-1.6,0-2.3-0.5-2.3-1.3s0.8-1.3,2.3-1.3h0.2c1.6,0,2.3,0.5,2.3,1.3
		S119.8,488.5,118.3,488.5z M118.3,486.8H118c-1.2,0-1.6,0.2-1.6,0.4c0,0.3,0.3,0.4,1.6,0.4h0.2c1.2,0,1.6-0.2,1.6-0.4
		C119.8,487,119.5,486.8,118.3,486.8z M115.8,485v-0.9l4.8-0.9v0.8l-0.9,0.2v0.8l0.9,0.1v0.8L115.8,485z M118.8,484.3l-1.6,0.3
		l1.6,0.3V484.3z M115.8,482.9v-0.9c0-0.8,0.4-1.5,1.5-1.5h0.1c0.6,0,1,0.2,1.2,0.6l1.9-0.6v0.9l-1.7,0.5v0.2h1.7v0.8L115.8,482.9
		L115.8,482.9z M118.1,482.1c0-0.4-0.2-0.6-0.8-0.6h-0.1c-0.6,0-0.8,0.3-0.8,0.6v0L118.1,482.1L118.1,482.1L118.1,482.1z
		 M115.8,480.2v-0.8c0-1.1,0.8-1.7,2.3-1.7h0.2c1.5,0,2.3,0.6,2.3,1.7v0.8H115.8z M119.8,479.4c0-0.4-0.3-0.7-1.5-0.7h-0.2
		c-1.2,0-1.5,0.3-1.5,0.7v0L119.8,479.4C119.8,479.4,119.8,479.4,119.8,479.4z"/>
	<path class="st4" d="M104.7,583.1V583c0-1.4,0.6-2.1,1.4-2.1c0.2,0,0.4,0,0.6,0.1v0.8c-0.2-0.1-0.3-0.2-0.5-0.2
		c-0.4,0-0.7,0.4-0.7,1.3v0.2c0,1.1,0.3,1.3,0.6,1.3c0,0,0,0,0.1,0v-1.1h-0.4v-0.7h1v2.2c-0.3,0.1-0.5,0.2-0.8,0.2
		C105.3,585.2,104.7,584.6,104.7,583.1z M107.1,583.1v-0.2c0-1.4,0.4-2.1,1.1-2.1c0.7,0,1.1,0.7,1.1,2.1v0.2c0,1.4-0.4,2.1-1.1,2.1
		C107.5,585.2,107.1,584.5,107.1,583.1z M108.6,583.1v-0.2c0-1.1-0.1-1.4-0.4-1.4c-0.2,0-0.4,0.3-0.4,1.4v0.2c0,1.1,0.1,1.4,0.4,1.4
		C108.4,584.5,108.6,584.2,108.6,583.1z M109.7,580.9h0.7v3.5h0.8v0.7h-1.5L109.7,580.9L109.7,580.9z M111.5,580.9h1.5v0.7h-0.8v1.1
		h0.7v0.7h-0.7v1.8h-0.7V580.9z M101.8,585.9h0.7c0.9,0,1.5,0.7,1.5,2v0.1c0,1.3-0.5,2-1.5,2h-0.7V585.9z M102.5,589.5
		c0.3,0,0.6-0.3,0.6-1.4V588c0-1-0.3-1.4-0.6-1.4h0L102.5,589.5L102.5,589.5L102.5,589.5z M104.3,585.9h0.8c0.7,0,1.3,0.4,1.3,1.3
		v0.1c0,0.5-0.2,0.9-0.5,1.1l0.6,1.7h-0.8l-0.5-1.5H105v1.5h-0.7V585.9z M105,588c0.3,0,0.6-0.2,0.6-0.7v0c0-0.5-0.3-0.7-0.6-0.7h0
		L105,588L105,588L105,588z M106.7,585.9h0.7v4.2h-0.7V585.9z M107.6,585.9h0.7l0.4,2.7l0.4-2.7h0.7l-0.8,4.2h-0.8L107.6,585.9z
		 M110.1,585.9h0.7v4.2h-0.7V585.9z M111.3,585.9h0.7l0.7,2.1v-2.1h0.7v4.2h-0.6l-0.8-2.2v2.2h-0.7L111.3,585.9L111.3,585.9z
		 M113.8,588.1V588c0-1.4,0.6-2.1,1.4-2.1c0.2,0,0.4,0,0.6,0.1v0.8c-0.2-0.1-0.3-0.2-0.5-0.2c-0.4,0-0.7,0.4-0.7,1.3v0.2
		c0,1.1,0.3,1.3,0.6,1.3c0,0,0,0,0.1,0v-1.1h-0.4v-0.7h1v2.2c-0.3,0.1-0.5,0.2-0.8,0.2C114.4,590.2,113.8,589.6,113.8,588.1z
		 M105.8,590.9h0.7l0.7,2.1v-2.1h0.7v4.2h-0.6l-0.8-2.2v2.2h-0.7L105.8,590.9L105.8,590.9z M108.4,590.9h1.6v0.7h-0.9v1h0.8v0.7
		h-0.8v1.1h0.9v0.7h-1.6V590.9z M110.7,591.6h-0.5v-0.7h1.8v0.7h-0.5v3.5h-0.7V591.6z"/>
	<path class="st4" d="M42.5,79.4v-0.9c0.3,0.2,0.5,0.3,0.7,0.3c0.2,0,0.4-0.1,0.4-0.4v0c0-0.2-0.1-0.4-0.5-0.8
		c-0.6-0.6-0.8-0.9-0.8-1.5v0c0-0.8,0.5-1.2,1.2-1.2c0.3,0,0.5,0,0.7,0.1v0.9c-0.3-0.1-0.4-0.2-0.6-0.2c-0.2,0-0.4,0.1-0.4,0.4v0
		c0,0.2,0.1,0.3,0.5,0.8c0.7,0.8,0.8,1,0.8,1.6v0c0,0.7-0.5,1.2-1.2,1.2C43.1,79.6,42.8,79.5,42.5,79.4z M44.8,74.8h0.7
		c0.9,0,1.5,0.5,1.5,1.6v0c0,1.1-0.6,1.6-1.4,1.6h0v1.5h-0.8C44.8,79.6,44.8,74.8,44.8,74.8z M45.7,77.3c0.3,0,0.6-0.3,0.6-0.8v0
		c0-0.6-0.2-0.9-0.6-0.9h0L45.7,77.3L45.7,77.3z M47.5,74.8h0.8v4.8h-0.8V74.8z M48.8,74.8h0.8l0.8,2.4v-2.4h0.8v4.8h-0.7l-0.9-2.5
		v2.5h-0.8C48.8,79.6,48.8,74.8,48.8,74.8z M51.7,74.8h0.8l0.8,2.4v-2.4h0.8v4.8h-0.7l-0.9-2.5v2.5h-0.8V74.8z M55.3,74.8h0.9
		l0.9,4.8h-0.8l-0.2-0.9h-0.8l-0.1,0.9h-0.8L55.3,74.8z M56,77.9l-0.3-1.6l-0.3,1.6H56z M57.3,74.8h0.8v2l0.7-2h0.9l-0.8,2l0.8,2.7
		h-0.9l-0.5-1.8l-0.2,0.5v1.3h-0.8L57.3,74.8L57.3,74.8z M60.1,74.8h1.8v0.8h-1v1.2h0.9v0.8h-0.9v1.2h1v0.8h-1.8V74.8z M62.3,74.8
		h0.9c0.8,0,1.5,0.4,1.5,1.5v0.1c0,0.6-0.2,1-0.6,1.2l0.6,1.9h-0.9l-0.5-1.7h-0.2v1.7h-0.8V74.8z M63.2,77.2c0.4,0,0.6-0.2,0.6-0.8
		v-0.1c0-0.6-0.3-0.8-0.6-0.8h0L63.2,77.2L63.2,77.2z M66.1,74.8h0.8v4h0.9v0.8h-1.7V74.8z M67.9,77.3v-0.2c0-1.6,0.5-2.3,1.3-2.3
		s1.3,0.8,1.3,2.3v0.2c0,1.6-0.5,2.3-1.3,2.3S67.9,78.9,67.9,77.3z M69.5,77.3v-0.2c0-1.2-0.2-1.6-0.4-1.6c-0.3,0-0.4,0.3-0.4,1.6
		v0.2c0,1.2,0.2,1.6,0.4,1.6C69.4,78.9,69.5,78.6,69.5,77.3z M70.8,78.2v-3.4h0.8v3.4c0,0.4,0.1,0.6,0.4,0.6s0.4-0.2,0.4-0.6v-3.4
		h0.8v3.4c0,1-0.5,1.4-1.2,1.4S70.8,79.2,70.8,78.2z M73.6,74.8h0.8l0.8,2.4v-2.4H76v4.8h-0.7l-0.9-2.5v2.5h-0.8V74.8z M76.4,77.3
		v-0.2c0-1.5,0.7-2.3,1.6-2.3c0.3,0,0.5,0.1,0.6,0.1v0.9c-0.2-0.1-0.4-0.2-0.6-0.2c-0.5,0-0.8,0.5-0.8,1.5v0.2
		c0,1.2,0.4,1.5,0.7,1.5c0,0,0,0,0.1,0v-1.2h-0.4v-0.7h1.2v2.5c-0.3,0.1-0.5,0.2-0.9,0.2C77.1,79.6,76.4,79,76.4,77.3z M79.3,74.8
		h1.8v0.8h-1v1.2H81v0.8h-0.9v1.2h1v0.8h-1.8C79.3,79.6,79.3,74.8,79.3,74.8z"/>
	<path class="st4" d="M15.4,635.6h0.8v4h0.9v0.8h-1.7C15.4,640.3,15.4,635.6,15.4,635.6z M17.2,638.1v-0.2c0-1.6,0.5-2.3,1.3-2.3
		s1.3,0.8,1.3,2.3v0.2c0,1.6-0.5,2.3-1.3,2.3S17.2,639.6,17.2,638.1z M18.9,638.1v-0.2c0-1.2-0.2-1.6-0.4-1.6s-0.4,0.3-0.4,1.6v0.2
		c0,1.2,0.2,1.6,0.4,1.6C18.7,639.6,18.9,639.3,18.9,638.1z M20,640.1v-0.9c0.3,0.2,0.5,0.3,0.7,0.3c0.2,0,0.4-0.1,0.4-0.4v0
		c0-0.2-0.1-0.4-0.5-0.8c-0.6-0.6-0.8-0.9-0.8-1.5v0c0-0.8,0.5-1.2,1.2-1.2c0.3,0,0.5,0,0.7,0.1v0.9c-0.3-0.1-0.4-0.2-0.6-0.2
		c-0.2,0-0.4,0.1-0.4,0.4v0c0,0.2,0.1,0.3,0.5,0.8c0.7,0.8,0.8,1,0.8,1.6v0c0,0.7-0.5,1.2-1.2,1.2C20.5,640.3,20.2,640.3,20,640.1z
		 M23.4,635.6h0.8v4h0.9v0.8h-1.7C23.4,640.3,23.4,635.6,23.4,635.6z M25.2,638.1v-0.2c0-1.6,0.5-2.3,1.3-2.3c0.8,0,1.3,0.8,1.3,2.3
		v0.2c0,1.6-0.5,2.3-1.3,2.3C25.7,640.4,25.2,639.6,25.2,638.1z M26.8,638.1v-0.2c0-1.2-0.2-1.6-0.4-1.6s-0.4,0.3-0.4,1.6v0.2
		c0,1.2,0.2,1.6,0.4,1.6C26.7,639.6,26.8,639.3,26.8,638.1z M28.1,635.6h0.7c0.8,0,1.5,0.3,1.5,1.2v0c0,0.6-0.3,0.9-0.7,1.1
		c0.4,0.2,0.7,0.5,0.7,1.1v0.1c0,0.8-0.7,1.3-1.6,1.3h-0.8L28.1,635.6L28.1,635.6z M28.9,637.5c0.4,0,0.6-0.2,0.6-0.6v0
		c0-0.4-0.2-0.6-0.6-0.6h0L28.9,637.5L28.9,637.5z M28.9,639.5c0.4,0,0.7-0.2,0.7-0.6v0c0-0.4-0.3-0.6-0.7-0.6h0L28.9,639.5
		L28.9,639.5L28.9,639.5z M30.7,638.1v-0.2c0-1.6,0.5-2.3,1.3-2.3s1.3,0.8,1.3,2.3v0.2c0,1.6-0.5,2.3-1.3,2.3
		C31.2,640.4,30.7,639.6,30.7,638.1z M32.4,638.1v-0.2c0-1.2-0.2-1.6-0.4-1.6c-0.3,0-0.4,0.3-0.4,1.6v0.2c0,1.2,0.2,1.6,0.4,1.6
		C32.2,639.6,32.4,639.3,32.4,638.1z M33.5,640.1v-0.9c0.3,0.2,0.5,0.3,0.7,0.3c0.2,0,0.4-0.1,0.4-0.4v0c0-0.2-0.1-0.4-0.5-0.8
		c-0.6-0.6-0.8-0.9-0.8-1.5v0c0-0.8,0.5-1.2,1.2-1.2c0.3,0,0.5,0,0.7,0.1v0.9c-0.3-0.1-0.4-0.2-0.6-0.2c-0.2,0-0.4,0.1-0.4,0.4v0
		c0,0.2,0.1,0.3,0.5,0.8c0.7,0.8,0.8,1,0.8,1.6v0c0,0.7-0.5,1.2-1.2,1.2C34,640.3,33.7,640.3,33.5,640.1z M17.5,645.8v-0.2
		c0-1.7,0.6-2.3,1.4-2.3c0.2,0,0.4,0,0.5,0.1v0.9c-0.2-0.1-0.3-0.2-0.5-0.2c-0.4,0-0.6,0.3-0.6,1.5v0.2c0,1.3,0.3,1.5,0.6,1.5
		c0.1,0,0.3,0,0.5-0.1v0.8c-0.2,0.1-0.4,0.1-0.6,0.1C18.1,648.1,17.5,647.4,17.5,645.8z M20.6,643.3h0.9l0.9,4.8h-0.8l-0.2-0.9h-0.8
		l-0.1,0.9h-0.8L20.6,643.3z M21.2,646.4l-0.3-1.6l-0.3,1.6H21.2z M22.6,643.3h0.8l0.8,2.4v-2.4H25v4.8h-0.7l-0.9-2.5v2.5h-0.8
		V643.3z M25.9,644.1h-0.6v-0.8h2v0.8h-0.6v4h-0.8V644.1z M27.7,643.3h0.8v4.8h-0.8V643.3z M29,643.3h0.8l0.8,2.4v-2.4h0.8v4.8h-0.7
		l-0.9-2.5v2.5H29V643.3z M32.6,643.3h0.9l0.9,4.8h-0.8l-0.2-0.9h-0.8l-0.1,0.9h-0.8L32.6,643.3z M33.3,646.4l-0.3-1.6l-0.3,1.6
		H33.3z"/>
	<path class="st4" d="M52.5,353.3v-0.2c0-1.6,0.5-2.3,1.3-2.3c0.8,0,1.3,0.8,1.3,2.3v0.2c0,1.6-0.5,2.3-1.3,2.3
		C53,355.6,52.5,354.9,52.5,353.3z M54.1,353.3v-0.2c0-1.2-0.2-1.6-0.4-1.6c-0.3,0-0.4,0.3-0.4,1.6v0.2c0,1.2,0.2,1.6,0.4,1.6
		C54,354.9,54.1,354.5,54.1,353.3z M55.4,350.8h0.7c0.9,0,1.5,0.5,1.5,1.6v0c0,1.1-0.6,1.6-1.4,1.6h0v1.5h-0.8
		C55.4,355.6,55.4,350.8,55.4,350.8z M56.2,353.3c0.3,0,0.6-0.3,0.6-0.9v0c0-0.6-0.2-0.9-0.6-0.9h0L56.2,353.3L56.2,353.3z
		 M58,350.8h1.8v0.8h-1v1.2h0.9v0.8h-0.9v1.2h1v0.8H58V350.8z M60.2,350.8H61l0.8,2.4v-2.4h0.8v4.8h-0.7l-0.9-2.5v2.5h-0.8
		C60.2,355.6,60.2,350.8,60.2,350.8z M64.7,351.6h-0.6v-0.8h2v0.8h-0.6v4h-0.8V351.6z M66.2,353.3v-0.2c0-1.6,0.5-2.3,1.3-2.3
		s1.3,0.8,1.3,2.3v0.2c0,1.6-0.5,2.3-1.3,2.3C66.7,355.6,66.2,354.9,66.2,353.3z M67.9,353.3v-0.2c0-1.2-0.2-1.6-0.4-1.6
		c-0.3,0-0.4,0.3-0.4,1.6v0.2c0,1.2,0.2,1.6,0.4,1.6S67.9,354.5,67.9,353.3z M48.5,358.6h0.8c1.1,0,1.7,0.8,1.7,2.3v0.2
		c0,1.5-0.6,2.3-1.7,2.3h-0.8V358.6z M49.4,362.6c0.4,0,0.7-0.3,0.7-1.5v-0.2c0-1.2-0.3-1.5-0.7-1.5h0L49.4,362.6L49.4,362.6z
		 M51.3,358.6h1.8v0.8h-1v1.2H53v0.8h-0.9v1.2h1v0.8h-1.8V358.6z M53.4,361v-0.2c0-1.7,0.6-2.3,1.4-2.3c0.2,0,0.4,0,0.5,0.1v0.9
		c-0.2-0.1-0.3-0.2-0.5-0.2c-0.4,0-0.6,0.3-0.6,1.5v0.2c0,1.3,0.3,1.5,0.6,1.5c0.1,0,0.3,0,0.5-0.1v0.8c-0.2,0.1-0.4,0.1-0.6,0.1
		C54,363.4,53.4,362.7,53.4,361z M55.8,358.6h0.8v2l0.7-2h0.9l-0.8,2l0.8,2.7h-0.9l-0.5-1.8l-0.2,0.5v1.3h-0.8
		C55.8,363.3,55.8,358.6,55.8,358.6z M59.6,358.6h0.7c0.8,0,1.5,0.3,1.5,1.2v0c0,0.6-0.3,0.9-0.7,1.1c0.4,0.2,0.7,0.5,0.7,1.1v0.1
		c0,0.8-0.7,1.3-1.6,1.3h-0.8V358.6z M60.4,360.6c0.4,0,0.6-0.2,0.6-0.6v0c0-0.4-0.2-0.6-0.6-0.6h0L60.4,360.6L60.4,360.6z
		 M60.5,362.6c0.4,0,0.7-0.2,0.7-0.6v0c0-0.4-0.3-0.6-0.7-0.6h0L60.5,362.6L60.5,362.6L60.5,362.6z M62.3,358.6h1.8v0.8h-1v1.2H64
		v0.8h-0.9v1.2h1v0.8h-1.8L62.3,358.6L62.3,358.6z M64.5,358.6h0.8v4h0.9v0.8h-1.7V358.6z M66.3,361.1v-0.2c0-1.6,0.5-2.3,1.3-2.3
		c0.8,0,1.3,0.8,1.3,2.3v0.2c0,1.6-0.5,2.3-1.3,2.3C66.8,363.4,66.3,362.6,66.3,361.1z M68,361.1v-0.2c0-1.2-0.2-1.6-0.4-1.6
		s-0.4,0.3-0.4,1.6v0.2c0,1.2,0.2,1.6,0.4,1.6C67.8,362.6,68,362.3,68,361.1z M68.9,358.6h0.8l0.3,2.9l0.4-2.9h0.8l0.4,2.9l0.4-2.9
		h0.8l-0.7,4.8h-0.9l-0.4-2.8l-0.4,2.8h-0.9L68.9,358.6z"/>
	<path class="st4" d="M54.1,716v-0.2c0-1.6,0.5-2.3,1.3-2.3c0.8,0,1.3,0.8,1.3,2.3v0.2c0,1.6-0.5,2.3-1.3,2.3
		C54.6,718.3,54.1,717.6,54.1,716z M55.8,716v-0.2c0-1.2-0.2-1.6-0.4-1.6c-0.3,0-0.4,0.3-0.4,1.6v0.2c0,1.2,0.2,1.6,0.4,1.6
		C55.6,717.5,55.8,717.2,55.8,716z M57.1,713.5h0.7c0.9,0,1.5,0.5,1.5,1.6v0c0,1.1-0.6,1.6-1.4,1.6h0v1.5h-0.8
		C57.1,718.2,57.1,713.5,57.1,713.5z M57.9,716c0.3,0,0.6-0.3,0.6-0.8v0c0-0.6-0.2-0.9-0.6-0.9h0L57.9,716L57.9,716z M59.7,713.5
		h1.8v0.8h-1v1.2h0.9v0.8h-0.9v1.2h1v0.8h-1.8V713.5z M61.9,713.5h0.8l0.8,2.4v-2.4h0.8v4.8h-0.7l-0.9-2.5v2.5h-0.8
		C61.9,718.2,61.9,713.5,61.9,713.5z M66.3,714.3h-0.6v-0.8h2v0.8h-0.6v4h-0.8V714.3z M67.9,716v-0.2c0-1.6,0.5-2.3,1.3-2.3
		s1.3,0.8,1.3,2.3v0.2c0,1.6-0.5,2.3-1.3,2.3C68.4,718.3,67.9,717.6,67.9,716z M69.6,716v-0.2c0-1.2-0.2-1.6-0.4-1.6
		c-0.3,0-0.4,0.3-0.4,1.6v0.2c0,1.2,0.2,1.6,0.4,1.6C69.4,717.5,69.6,717.2,69.6,716z M50.2,721.2h0.8c1.1,0,1.7,0.8,1.7,2.3v0.2
		c0,1.5-0.6,2.3-1.7,2.3h-0.8V721.2z M51,725.2c0.4,0,0.7-0.3,0.7-1.5v-0.2c0-1.2-0.3-1.5-0.7-1.5h0L51,725.2L51,725.2z M53,721.2
		h1.8v0.8h-1v1.2h0.9v0.8h-0.9v1.2h1v0.8H53V721.2z M55.1,723.7v-0.2c0-1.7,0.6-2.3,1.4-2.3c0.2,0,0.4,0,0.5,0.1v0.9
		c-0.2-0.1-0.3-0.2-0.5-0.2c-0.4,0-0.6,0.3-0.6,1.5v0.2c0,1.3,0.3,1.5,0.6,1.5c0.1,0,0.3,0,0.5-0.1v0.8c-0.2,0.1-0.4,0.1-0.6,0.1
		C55.7,726,55.1,725.4,55.1,723.7z M57.5,721.2h0.8v2l0.7-2h0.9l-0.8,2l0.8,2.7H59l-0.5-1.8l-0.2,0.5v1.3h-0.8
		C57.5,726,57.5,721.2,57.5,721.2z M61.3,721.2H62c0.8,0,1.5,0.3,1.5,1.2v0c0,0.6-0.3,0.9-0.7,1.1c0.4,0.2,0.7,0.5,0.7,1.1v0.1
		c0,0.8-0.7,1.3-1.6,1.3h-0.8V721.2z M62.1,723.2c0.4,0,0.6-0.2,0.6-0.6v0c0-0.4-0.2-0.6-0.6-0.6h0L62.1,723.2L62.1,723.2z
		 M62.1,725.2c0.4,0,0.7-0.2,0.7-0.6v0c0-0.4-0.3-0.6-0.7-0.6h0L62.1,725.2L62.1,725.2L62.1,725.2z M63.9,721.2h1.8v0.8h-1v1.2h0.9
		v0.8h-0.9v1.2h1v0.8h-1.8L63.9,721.2L63.9,721.2z M66.2,721.2H67v4h0.9v0.8h-1.7V721.2z M68,723.7v-0.2c0-1.6,0.5-2.3,1.3-2.3
		c0.8,0,1.3,0.8,1.3,2.3v0.2c0,1.6-0.5,2.3-1.3,2.3C68.5,726.1,68,725.3,68,723.7z M69.7,723.7v-0.2c0-1.2-0.2-1.6-0.4-1.6
		s-0.4,0.3-0.4,1.6v0.2c0,1.2,0.2,1.6,0.4,1.6S69.7,725,69.7,723.7z M70.6,721.2h0.8l0.3,2.9l0.4-2.9H73l0.4,2.9l0.4-2.9h0.8
		l-0.7,4.8H73l-0.4-2.8l-0.4,2.8h-0.9L70.6,721.2z"/>
	<path class="st4" d="M47.7,498.6v-0.2c0-1.7,0.6-2.3,1.4-2.3c0.2,0,0.4,0,0.5,0.1v0.9c-0.2-0.1-0.3-0.2-0.5-0.2
		c-0.4,0-0.6,0.3-0.6,1.5v0.2c0,1.3,0.3,1.5,0.6,1.5c0.1,0,0.3,0,0.5-0.1v0.8c-0.2,0.1-0.4,0.1-0.6,0.1
		C48.2,500.9,47.7,500.2,47.7,498.6z M50.7,496.1h0.9l0.9,4.8h-0.8l-0.2-0.9h-0.8l-0.1,0.9h-0.8L50.7,496.1z M51.4,499.2l-0.3-1.6
		l-0.3,1.6H51.4z M52.6,498.6v-0.2c0-1.5,0.7-2.3,1.6-2.3c0.3,0,0.5,0.1,0.6,0.1v0.9c-0.2-0.1-0.4-0.2-0.6-0.2
		c-0.5,0-0.8,0.5-0.8,1.5v0.2c0,1.2,0.4,1.5,0.7,1.5c0,0,0,0,0.1,0v-1.2h-0.4v-0.7H55v2.5c-0.3,0.1-0.5,0.2-0.9,0.2
		C53.3,500.9,52.6,500.2,52.6,498.6z M55.4,496.1h0.8l0.8,2.4v-2.4h0.8v4.8h-0.7l-0.9-2.5v2.5h-0.8
		C55.4,500.9,55.4,496.1,55.4,496.1z M58.3,496.1h1.8v0.8h-1v1.2H60v0.8h-0.9v1.2h1v0.8h-1.8L58.3,496.1L58.3,496.1z M61.2,499
		l-0.9-2.9h0.9l0.4,1.8l0.5-1.8h0.8L62,499v1.9h-0.8L61.2,499L61.2,499z M63.1,497.8c0.5-0.1,0.6-0.5,0.6-0.8h-0.4v-0.9h0.9v0.8
		c0,0.7-0.3,1.2-1,1.3L63.1,497.8z M64.6,500.7v-0.9c0.3,0.2,0.5,0.3,0.7,0.3c0.2,0,0.4-0.1,0.4-0.4v0c0-0.2-0.1-0.4-0.5-0.8
		c-0.6-0.6-0.8-0.9-0.8-1.5v0c0-0.8,0.5-1.2,1.2-1.2c0.3,0,0.5,0,0.7,0.1v0.9c-0.3-0.1-0.4-0.2-0.6-0.2c-0.2,0-0.4,0.1-0.4,0.4v0
		c0,0.2,0.1,0.3,0.5,0.8c0.7,0.8,0.8,1,0.8,1.6v0c0,0.7-0.5,1.2-1.2,1.2C65.1,500.9,64.8,500.8,64.6,500.7z M44.7,508.5v-0.9
		c0.3,0.2,0.5,0.3,0.7,0.3c0.2,0,0.4-0.1,0.4-0.4v0c0-0.2-0.1-0.4-0.5-0.8c-0.6-0.6-0.8-0.9-0.8-1.5v0c0-0.8,0.5-1.2,1.2-1.2
		c0.3,0,0.5,0,0.7,0.1v0.9c-0.3-0.1-0.4-0.2-0.6-0.2c-0.2,0-0.4,0.1-0.4,0.4v0c0,0.2,0.1,0.3,0.5,0.8c0.7,0.8,0.8,1,0.8,1.6v0
		c0,0.7-0.5,1.2-1.2,1.2C45.2,508.7,45,508.6,44.7,508.5z M47.4,504.7h-0.6v-0.8h2v0.8h-0.6v4h-0.8
		C47.4,508.6,47.4,504.7,47.4,504.7z M49.1,503.9H51v0.8h-1v1.2h0.9v0.8H50v1.2h1v0.8h-1.8L49.1,503.9L49.1,503.9z M52,503.9h0.9
		l0.9,4.8H53l-0.2-0.9h-0.8l-0.1,0.9h-0.8L52,503.9z M52.7,506.9l-0.3-1.6l-0.3,1.6H52.7z M54.1,503.9h0.8v2l0.7-2h0.9l-0.8,2
		l0.8,2.7h-0.9l-0.5-1.8l-0.2,0.5v1.3h-0.8C54.1,508.6,54.1,503.9,54.1,503.9z M56.8,503.9h0.8v2h0.7v-2h0.8v4.8h-0.8v-2h-0.7v2
		h-0.8V503.9z M59.6,506.4v-0.2c0-1.6,0.5-2.3,1.3-2.3s1.3,0.8,1.3,2.3v0.2c0,1.6-0.5,2.3-1.3,2.3S59.6,507.9,59.6,506.4z
		 M61.3,506.4v-0.2c0-1.2-0.2-1.6-0.4-1.6c-0.3,0-0.4,0.3-0.4,1.6v0.2c0,1.2,0.2,1.6,0.4,1.6C61.1,507.9,61.3,507.6,61.3,506.4z
		 M62.5,507.2v-3.4h0.8v3.4c0,0.4,0.1,0.6,0.4,0.6s0.4-0.2,0.4-0.6v-3.4h0.8v3.4c0,1-0.5,1.4-1.2,1.4S62.5,508.2,62.5,507.2z
		 M65.2,508.5v-0.9c0.3,0.2,0.5,0.3,0.7,0.3c0.2,0,0.4-0.1,0.4-0.4v0c0-0.2-0.1-0.4-0.5-0.8c-0.6-0.6-0.8-0.9-0.8-1.5v0
		c0-0.8,0.5-1.2,1.2-1.2c0.3,0,0.5,0,0.7,0.1v0.9c-0.3-0.1-0.4-0.2-0.6-0.2c-0.2,0-0.4,0.1-0.4,0.4v0c0,0.2,0.1,0.3,0.5,0.8
		c0.7,0.8,0.8,1,0.8,1.6v0c0,0.7-0.5,1.2-1.2,1.2C65.8,508.7,65.5,508.6,65.2,508.5z M67.6,503.9h1.8v0.8h-1v1.2h0.9v0.8h-0.9v1.2h1
		v0.8h-1.8L67.6,503.9L67.6,503.9z"/>
	<path class="st4" d="M62.5,578H62v-0.8h2v0.8h-0.6v4h-0.8C62.5,582,62.5,578,62.5,578z M64.3,577.2h1.8v0.8h-1v1.2H66v0.8h-0.9v1.2
		h1v0.8h-1.8V577.2z M66.5,577.2h0.7c0.9,0,1.5,0.5,1.5,1.6v0c0,1.1-0.6,1.6-1.4,1.6h0v1.5h-0.8V577.2z M67.4,579.7
		c0.3,0,0.6-0.3,0.6-0.8v0c0-0.6-0.2-0.9-0.6-0.9h0L67.4,579.7L67.4,579.7z M69.2,577.2h0.7c0.9,0,1.5,0.5,1.5,1.6v0
		c0,1.1-0.6,1.6-1.4,1.6h0v1.5h-0.8V577.2z M70,579.7c0.3,0,0.6-0.3,0.6-0.8v0c0-0.6-0.2-0.9-0.6-0.9h0L70,579.7L70,579.7z
		 M72.2,577.2h0.9L74,582h-0.8L73,581h-0.8l-0.1,0.9h-0.8L72.2,577.2z M72.9,580.3l-0.3-1.6l-0.3,1.6H72.9z M74.2,577.2H75l0.8,2.4
		v-2.4h0.8v4.8h-0.7l-0.9-2.5v2.5h-0.8V577.2z M77.8,580.1l-0.9-2.9h0.9l0.4,1.8l0.5-1.8h0.8l-0.9,2.9v1.9h-0.8L77.8,580.1
		L77.8,580.1z M80.1,577.2H81l0.9,4.8h-0.8l-0.2-0.9h-0.8L80,582h-0.8L80.1,577.2z M80.8,580.3l-0.3-1.6l-0.3,1.6H80.8z M82.2,577.2
		H83v2l0.7-2h0.9l-0.8,2l0.8,2.7h-0.9l-0.5-1.8l-0.2,0.5v1.3h-0.8L82.2,577.2L82.2,577.2z M84.9,577.2h0.8v4.8h-0.8V577.2z
		 M61.7,585h0.9c0.8,0,1.5,0.4,1.5,1.5v0.1c0,0.6-0.2,1-0.6,1.2l0.6,1.9h-0.9l-0.5-1.7h-0.2v1.7h-0.8V585z M62.5,587.3
		c0.4,0,0.6-0.2,0.6-0.8v-0.1c0-0.6-0.3-0.8-0.6-0.8h0L62.5,587.3L62.5,587.3L62.5,587.3z M64.4,585h1.8v0.8h-1v1.2h0.9v0.8h-0.9
		v1.2h1v0.8h-1.8C64.4,589.7,64.4,585,64.4,585z M66.5,589.6v-0.9c0.3,0.2,0.5,0.3,0.7,0.3c0.2,0,0.4-0.1,0.4-0.4v0
		c0-0.2-0.1-0.4-0.5-0.8c-0.6-0.6-0.8-0.9-0.8-1.5v0c0-0.8,0.5-1.2,1.2-1.2c0.3,0,0.5,0,0.7,0.1v0.9c-0.3-0.1-0.4-0.2-0.6-0.2
		c-0.2,0-0.4,0.1-0.4,0.4v0c0,0.2,0.1,0.3,0.5,0.8c0.7,0.8,0.8,1,0.8,1.6v0c0,0.7-0.5,1.2-1.2,1.2C67,589.8,66.7,589.7,66.5,589.6z
		 M69.1,585.8h-0.6V585h2v0.8H70v4h-0.8V585.8z M71.4,585h0.9l0.9,4.8h-0.8l-0.2-0.9h-0.8l-0.1,0.9h-0.8L71.4,585z M72,588l-0.3-1.6
		l-0.3,1.6H72z M73.3,588.4V585h0.8v3.4c0,0.4,0.1,0.6,0.4,0.6s0.4-0.2,0.4-0.6V585h0.8v3.4c0,1-0.5,1.4-1.2,1.4
		S73.3,589.4,73.3,588.4z M76.2,585H77c0.8,0,1.5,0.4,1.5,1.5v0.1c0,0.6-0.2,1-0.6,1.2l0.6,1.9h-0.9l-0.5-1.7H77v1.7h-0.8V585z
		 M77,587.3c0.4,0,0.6-0.2,0.6-0.8v-0.1c0-0.6-0.3-0.8-0.6-0.8h0L77,587.3L77,587.3L77,587.3z M79.5,585h0.9l0.9,4.8h-0.8l-0.2-0.9
		h-0.8l-0.1,0.9h-0.8L79.5,585z M80.2,588l-0.3-1.6l-0.3,1.6H80.2z M81.6,585h0.8l0.8,2.4V585H84v4.8h-0.7l-0.9-2.5v2.5h-0.8V585z
		 M84.9,585.8h-0.6V585h2v0.8h-0.6v4h-0.8V585.8z"/>
	<path class="st4" d="M36.9,447.8h0.7c0.8,0,1.5,0.3,1.5,1.2v0c0,0.6-0.3,0.9-0.7,1.1c0.4,0.2,0.7,0.5,0.7,1.1v0.1
		c0,0.8-0.7,1.3-1.6,1.3h-0.8V447.8z M37.7,449.8c0.4,0,0.6-0.2,0.6-0.6v0c0-0.4-0.2-0.6-0.6-0.6h0L37.7,449.8L37.7,449.8z
		 M37.7,451.8c0.4,0,0.7-0.2,0.7-0.6v0c0-0.4-0.3-0.6-0.7-0.6h0L37.7,451.8L37.7,451.8L37.7,451.8z M40.2,447.8h0.9l0.9,4.8h-0.8
		l-0.2-0.9h-0.8l-0.1,0.9h-0.8L40.2,447.8z M40.9,450.9l-0.3-1.6l-0.3,1.6H40.9z M42.1,452.4v-0.9c0.3,0.2,0.5,0.3,0.7,0.3
		c0.2,0,0.4-0.1,0.4-0.4v0c0-0.2-0.1-0.4-0.5-0.8c-0.6-0.6-0.8-0.9-0.8-1.5v0c0-0.8,0.5-1.2,1.2-1.2c0.3,0,0.5,0,0.7,0.1v0.9
		c-0.3-0.1-0.4-0.2-0.6-0.2c-0.2,0-0.4,0.1-0.4,0.4v0c0,0.2,0.1,0.3,0.5,0.8c0.7,0.8,0.8,1,0.8,1.6v0c0,0.7-0.5,1.2-1.2,1.2
		C42.7,452.6,42.4,452.5,42.1,452.4z M44.4,447.8h0.8v2l0.7-2h0.9l-0.8,2l0.8,2.7H46l-0.5-1.8l-0.2,0.5v1.3h-0.8
		C44.4,452.6,44.4,447.8,44.4,447.8z M47.2,447.8H49v0.8h-1v1.2h0.9v0.8H48v1.2h1v0.8h-1.8L47.2,447.8L47.2,447.8z M49.9,448.6h-0.6
		v-0.8h2v0.8h-0.6v4h-0.8V448.6z M51.6,447.8h0.7c0.8,0,1.5,0.3,1.5,1.2v0c0,0.6-0.3,0.9-0.7,1.1c0.4,0.2,0.7,0.5,0.7,1.1v0.1
		c0,0.8-0.7,1.3-1.6,1.3h-0.8V447.8z M52.5,449.8c0.4,0,0.6-0.2,0.6-0.6v0c0-0.4-0.2-0.6-0.6-0.6h0L52.5,449.8L52.5,449.8z
		 M52.5,451.8c0.4,0,0.7-0.2,0.7-0.6v0c0-0.4-0.3-0.6-0.7-0.6h0L52.5,451.8L52.5,451.8L52.5,451.8z M54.9,447.8h0.9l0.9,4.8h-0.8
		l-0.2-0.9H55l-0.1,0.9H54L54.9,447.8z M55.6,450.9l-0.3-1.6l-0.3,1.6H55.6z M57,447.8h0.8v4h0.9v0.8H57V447.8z M59,447.8h0.8v4h0.9
		v0.8H59C59,452.6,59,447.8,59,447.8z M62.2,447.3h0.7l-1.5,5.9h-0.7L62.2,447.3z M62.9,447.8h0.8l0.4,3.1l0.4-3.1h0.8l-0.8,4.8
		h-0.9L62.9,447.8z M65.5,450.3v-0.2c0-1.6,0.5-2.3,1.3-2.3s1.3,0.8,1.3,2.3v0.2c0,1.6-0.5,2.3-1.3,2.3
		C66,452.6,65.5,451.9,65.5,450.3z M67.2,450.3v-0.2c0-1.2-0.2-1.6-0.4-1.6s-0.4,0.3-0.4,1.6v0.2c0,1.2,0.2,1.6,0.4,1.6
		C67,451.9,67.2,451.5,67.2,450.3z M68.5,447.8h0.8v4h0.9v0.8h-1.7V447.8z M70.5,447.8h0.8v4h0.9v0.8h-1.7V447.8z M72.5,447.8h1.8
		v0.8h-1v1.2h0.9v0.8h-0.9v1.2h1v0.8h-1.8C72.5,452.6,72.5,447.8,72.5,447.8z M75.4,450.7l-0.9-2.9h0.9l0.4,1.8l0.5-1.8h0.8
		l-0.9,2.9v1.9h-0.8L75.4,450.7L75.4,450.7z M77.4,447.8h0.7c0.8,0,1.5,0.3,1.5,1.2v0c0,0.6-0.3,0.9-0.7,1.1
		c0.4,0.2,0.7,0.5,0.7,1.1v0.1c0,0.8-0.7,1.3-1.6,1.3h-0.8C77.4,452.6,77.4,447.8,77.4,447.8z M78.2,449.8c0.4,0,0.6-0.2,0.6-0.6v0
		c0-0.4-0.2-0.6-0.6-0.6h0L78.2,449.8L78.2,449.8z M78.2,451.8c0.4,0,0.7-0.2,0.7-0.6v0c0-0.4-0.3-0.6-0.7-0.6h0L78.2,451.8
		L78.2,451.8L78.2,451.8z M80.7,447.8h0.9l0.9,4.8h-0.8l-0.2-0.9h-0.8l-0.1,0.9h-0.8L80.7,447.8z M81.4,450.9l-0.3-1.6l-0.3,1.6
		H81.4z M82.7,447.8h0.8v4h0.9v0.8h-1.7V447.8z M84.7,447.8h0.8v4h0.9v0.8h-1.7V447.8z M55.5,458v-0.2c0-1.7,0.6-2.3,1.4-2.3
		c0.2,0,0.4,0,0.5,0.1v0.9c-0.2-0.1-0.3-0.2-0.5-0.2c-0.4,0-0.6,0.3-0.6,1.5v0.2c0,1.3,0.3,1.5,0.6,1.5c0.1,0,0.3,0,0.5-0.1v0.8
		c-0.2,0.1-0.4,0.1-0.6,0.1C56,460.4,55.5,459.7,55.5,458z M57.6,458.1v-0.2c0-1.6,0.5-2.3,1.3-2.3c0.8,0,1.3,0.8,1.3,2.3v0.2
		c0,1.6-0.5,2.3-1.3,2.3C58.1,460.4,57.6,459.6,57.6,458.1z M59.2,458.1v-0.2c0-1.2-0.2-1.6-0.4-1.6c-0.3,0-0.4,0.3-0.4,1.6v0.2
		c0,1.2,0.2,1.6,0.4,1.6C59.1,459.6,59.2,459.3,59.2,458.1z M60.5,458.9v-3.4h0.8v3.4c0,0.4,0.1,0.6,0.4,0.6s0.4-0.2,0.4-0.6v-3.4
		h0.8v3.4c0,1-0.5,1.4-1.2,1.4C61,460.4,60.5,459.9,60.5,458.9z M63.3,455.6h0.9c0.8,0,1.5,0.4,1.5,1.5v0.1c0,0.6-0.2,1-0.6,1.2
		l0.6,1.9h-0.9l-0.5-1.7h-0.2v1.7h-0.8C63.3,460.3,63.3,455.6,63.3,455.6z M64.2,457.9c0.4,0,0.6-0.2,0.6-0.8v-0.1
		c0-0.6-0.3-0.8-0.6-0.8h0L64.2,457.9L64.2,457.9L64.2,457.9z M66.4,456.4h-0.6v-0.8h2v0.8h-0.6v4h-0.8V456.4z"/>
</g>
<g id="SUN_DECK_12_TOP">
	<g id="gDeck12Locations">
		<path width="123.1794" height="229.23" id="_x31_2Aft" class="st2" d="M0.6,729.3c0,0,8.3,16.2,61.3,16.2s61.8-16,61.8-16s0-94.7,0-213.2H0.6L0.6,729.3z"/>
		<path width="123.1853" height="298.95" id="_x31_2MidShip" class="st2" d="M0.6,217.3l0,299h123.2c0-96.6,0-209,0-299H0.6z"/>
		<path width="123.25" height="216.777" id="_x31_2Forward" class="st2" d="M123.7,53c0-0.2,0-0.4,0-0.4l0.1-26.3c0,0-22.4-25.8-61.9-25.8S0.5,26.4,0.5,26.4l0,190.9
			h123.2C123.7,126.5,123.7,58.7,123.7,53z"/>
	</g>
	<path class="st5" d="M0.5,729.3c0,0,8.3,16.2,61.3,16.2s61.8-16,61.8-16s0-658.2,0-676.5c0-0.2,0-0.4,0-0.4l0.1-26.3
		c0,0-22.4-25.8-61.9-25.8S0.5,26.4,0.5,26.4L0.5,729.3z"/>
</g>
</svg>
