<?xml version="1.0" encoding="utf-8"?>
<!-- Generator: Adobe Illustrator 22.1.0, SVG Export Plug-In . SVG Version: 6.00 Build 0)  -->
<svg version="1.1" id="SKY_FMA_Profile" xmlns="http://www.w3.org/2000/svg" xmlns:xlink="http://www.w3.org/1999/xlink" x="0px"
	 y="0px" viewBox="0 0 271.6 87.5" style="enable-background:new 0 0 271.6 87.5;" xml:space="preserve">
<style type="text/css">
	.st0{fill:#FFFFFF;}
	.st1{fill:#B7DAEA;}
	.st2{fill:none;}
	.st3{fill:none;stroke:#D3DADF;stroke-width:0.52;stroke-miterlimit:10;}
	.st4{fill:#231F20;}
	.st5{font-family:'Futura-Medium';}
	.st6{font-size:9px;}
	.st7{fill:#0E84BD;}
	.st8{font-family:'Futura-Bold';}
	.st9{font-size:6.25px;}
</style>
<g id="gSkyForward">
	<g id="hSkyForward">
		<rect id="back" x="177.8" y="0.3" class="st0" width="93.6" height="87"/>
		<path id="ship" class="st1" d="M239.8,72.1l0.4-0.2c2.4-4.7,8-9.9,16.2-15.2l1.2-0.7h-15.5l-6.7-8.4l1.8-3.8h-4.6l-5.2-4.9h-8.9
			l-0.7-0.9h-4.5l-3.1-3.4h1.8l-1.1-1.1h-1.7l-2.4-2.5h2.3l-1.1-1.1h-2.2l-2-2.2h2.6l-1.1-1.1h-2.5l-1.2-1.2h-1.7v0.5
			c0.7,2,2.1,5.9,2.3,6.6c0.2,0.7,0.1,1.4-0.1,1.7s-0.8,0.4-1.8,0.4H185l-2.6,2.3V38H178v34.1H239.8z"/>
		<rect id="check" x="177.8" y="84.1" class="st2" width="93.6" height="3.1"/>
		<rect id="border" x="177.8" y="0.3" class="st3" width="93.6" height="87"/>
		<text id="text" transform="matrix(1 0 0 1 195.9124 56.2541)" class="st4 st5 st6">+  $0</text>
		<text id="title" transform="matrix(1 0 0 1 206.0125 15.7)" class="st7 st8 st9">FORWARD</text>
	</g>
</g>
<g id="gSkyMidShip">
	<g id="hSkyMidShip">
		<rect id="back_1_" x="98" y="0.3" class="st0" width="79.8" height="87"/>
		<polygon id="ship_1_" class="st1" points="101.8,38 101.8,35.2 98.2,30.4 98.2,72.1 178,72.1 178,38 		"/>
		<rect id="check_1_" x="98" y="84.1" class="st2" width="79.8" height="3.1"/>
		<rect id="border_1_" x="98" y="0.3" class="st3" width="79.8" height="87"/>
		<text id="text_1_" transform="matrix(1 0 0 1 122.5583 56.2541)" class="st4 st5 st6">+  $15</text>
		<text id="title_1_" transform="matrix(1 0 0 1 123.2 15.7)" class="st7 st8 st9">MID-SHIP</text>
	</g>
</g>
<g id="gSkyAft">
	<g id="hSkyAft">
		<rect id="back_2_" x="0.3" y="0.3" class="st0" width="97.7" height="87"/>
		<path id="ship_2_" class="st1" d="M90,19.8h-2L86.8,18H85l1.2,1.8h-1.1L83.9,18h-1.8l1.2,1.8h-1.2L80.8,18h-1.7l1.2,1.8h-1.6v0.4
			c0,0.1-1.7,9.3-2,10.8s-1.4,2.2-1.7,2.2l-13.9,1.4h-0.4V38H39.4v3.5l-1.6,1.9h-8.4l-11,14.1v8.4l5.3,6.1h74.5V30.4L90,19.8z"/>
		<rect id="check_2_" x="0.3" y="84.1" class="st2" width="97.7" height="3.1"/>
		<rect id="border_2_" x="0.3" y="0.3" class="st3" width="97.7" height="87"/>
		<text id="text_2_" transform="matrix(1 0 0 1 59.7979 56.2541)" class="st4 st5 st6">+  $0</text>
		<text id="title_2_" transform="matrix(1 0 0 1 42.4 15.7)" class="st7 st8 st9">AFT</text>
	</g>
</g>
</svg>
