<?xml version="1.0" encoding="utf-8"?>
<!-- Generator: Adobe Illustrator 22.1.0, SVG Export Plug-In . SVG Version: 6.00 Build 0)  -->
<svg version="1.1" id="Star_Deck_Selector" xmlns="http://www.w3.org/2000/svg" xmlns:xlink="http://www.w3.org/1999/xlink" x="0px"
	 y="0px" viewBox="0 0 235.5 52.1" style="enable-background:new 0 0 235.5 52.1;" xml:space="preserve">
<style type="text/css">
	.st0{fill:#FFFFFF;stroke:#CAD2D7;stroke-width:0.5;stroke-miterlimit:10;}
	.st1{fill:none;stroke:#CAD2D7;stroke-width:0.554;stroke-miterlimit:10;}
</style>
<g id="gStarDeckSelectorForward">
	<g id="bStarDeckSelectorForward">
		<polygon id="f" class="st0" points="234.9,38.2 224.9,38.2 213.4,29.1 215.6,29.1 216.8,23 214.5,23 211.3,19.9 212,16.8 
			187.6,16.8 186.2,13.7 180,13.7 180.9,12.1 177.5,12.1 175.3,10.1 176.4,10.1 177.5,8.2 173.3,8.2 171.3,6.5 172.5,6.4 173.5,4.6 
			169.3,4.6 167.9,3.2 166.7,3.2 168,4.6 167,4.6 165.6,3.2 164.4,3.2 165.7,4.6 165.1,4.6 171.4,11.7 171.4,13.7 165.8,13.7 
			165,16.8 161.4,16.8 160.1,19.9 156.1,19.9 156.1,51.8 223,51.8 		"/>
	</g>
	<g id="hDeckForward_04">
		<polygon id="_x30_4_1_" class="st1" points="229.5,44.5 156.1,44.5 156.1,47.6 226.8,47.6 		"/>
	</g>
	<g id="hDeckForward_05">
		<polygon id="_x30_5_1_" class="st1" points="156.1,44.5 229.5,44.5 232.2,41.3 156.1,41.3 		"/>
	</g>
	<g id="hDeckForward_06">
		<polygon id="_x30_6_1_" class="st1" points="156.1,41.3 232.2,41.3 234.9,38.2 224.9,38.2 156.1,38.2 		"/>
	</g>
	<g id="hDeckForward_07">
		<polygon id="_x30_7_1_" class="st1" points="156.1,38.2 224.9,38.2 221.1,35.2 156.1,35.2 		"/>
	</g>
	<g id="hDeckForward_08">
		<polygon id="_x30_8_1_" class="st1" points="156.1,35.2 221.1,35.2 217.2,32.2 156.1,32.2 		"/>
	</g>
	<g id="hDeckForward_09">
		<polygon id="_x30_9_1_" class="st1" points="156.1,32.2 217.2,32.2 213.4,29.1 156.1,29.1 		"/>
	</g>
	<g id="hDeckForward_10">
		<polygon id="_x31_0_2_" class="st1" points="156.1,29.1 213.4,29.1 215.6,29.1 216.2,26 156.1,26 		"/>
	</g>
	<g id="hDeckForward_11">
		<polygon id="_x31_1_2_" class="st1" points="156.1,26 216.2,26 216.8,23 214.5,23 156.1,23 		"/>
	</g>
	<g id="hDeckForward_12">
		<polygon id="_x31_2_2_" class="st1" points="214.5,23 211.3,19.9 160.1,19.9 156.1,19.9 156.1,23 		"/>
	</g>
	<g id="hDeckForward_13">
		<polygon id="_x31_3_2_" class="st1" points="212,16.8 187.6,16.8 165,16.8 161.4,16.8 160.1,19.9 211.3,19.9 		"/>
	</g>
	<g id="hDeckForward_14">
		<polygon id="_x31_4_1_" class="st1" points="186.2,13.7 165.8,13.7 165,16.8 187.6,16.8 		"/>
	</g>
</g>
<g id="gStarDeckSelectorMidShip">
	<g id="bStarDeckSelectorMidShip">
		<path id="m" class="st0" d="M130,19.9l2.4-6.2l-1-1.1l1.2-1H108c-0.5-0.2-4.4-1.3-6-1.5c-1.7-0.2-2.4,0-2.5,0.1l-0.3,0.1v2.5
			l-0.6,1h-7.9l1.8,3.1H77.3v35h78.8v-32C156.1,19.8,130,19.8,130,19.9z"/>
	</g>
	<g id="hDeckMidShip_04">
		<rect id="_x30_4" x="77.3" y="44.5" class="st1" width="78.8" height="3.1"/>
	</g>
	<g id="hDeckMidShip_05">
		<rect id="_x30_5" x="77.3" y="41.3" class="st1" width="78.8" height="3.1"/>
	</g>
	<g id="hDeckMidShip_06">
		<rect id="_x30_6" x="77.3" y="38.2" class="st1" width="78.8" height="3.1"/>
	</g>
	<g id="hDeckMidShip_07">
		<rect id="_x30_7" x="77.3" y="35.2" class="st1" width="78.8" height="3.1"/>
	</g>
	<g id="hDeckMidShip_08">
		<rect id="_x30_8" x="77.3" y="32.2" class="st1" width="78.8" height="3.1"/>
	</g>
	<g id="hDeckMidShip_09">
		<rect id="_x30_9" x="77.3" y="29.1" class="st1" width="78.8" height="3.1"/>
	</g>
	<g id="hDeckMidShip_10">
		<rect id="_x31_0_1_" x="77.3" y="26" class="st1" width="78.8" height="3.1"/>
	</g>
	<g id="hDeckMidShip_11">
		<rect id="_x31_1_1_" x="77.3" y="23" class="st1" width="78.8" height="3.1"/>
	</g>
	<g id="hDeckMidShip_12">
		<polygon id="_x31_2_1_" class="st1" points="77.3,23 156.1,23 156.1,19.9 130,19.9 77.3,19.9 		"/>
	</g>
	<g id="hDeckMidShip_13">
		<polygon id="_x31_3_1_" class="st1" points="130,19.9 131.1,16.8 92.6,16.8 77.3,16.8 77.3,19.9 		"/>
	</g>
	<g id="hDeckMidShip_14">
		<polygon id="_x31_4_2_" class="st1" points="132.3,13.7 98.7,13.7 90.8,13.7 92.6,16.8 131.1,16.8 		"/>
	</g>
</g>
<g id="gStarDeckSelectorAft">
	<g id="bStarDeckSelectorAft">
		<path id="a" class="st0" d="M59.1,16.8L46.7,1.5h-0.4l-0.5-1.2h-0.9l0.5,1.2h-0.6l-0.5-1.2h-0.9l0.5,1.2h-0.6l-0.5-1.2h-1.4
			l0.5,1.2h-0.6l-0.5-1.2h-1.4l0.5,1.2h-0.3v0.4c0.2,3.1,0.2,5.3-0.1,6.8c-0.6,2.3-2.8,4.6-3.3,5H25.6l-2,6.2H6.9L6.5,23H5.2
			l1.5,6.2c-3.7,3.7-2.5,14-2.4,15.3l-3.9,7.4h76.9v-35H59.1V16.8z"/>
	</g>
	<g id="hDeckAft_04">
		<polygon id="_x30_4_2_" class="st1" points="4.3,44.5 2.7,47.6 77.3,47.6 77.3,44.5 		"/>
	</g>
	<g id="hDeckAft_05">
		<path id="_x30_5_2_" class="st1" d="M4.1,41.3c0.1,1.5,0.2,2.7,0.2,3.1h73v-3.1H4.1z"/>
	</g>
	<g id="hDeckAft_06">
		<path id="_x30_6_2_" class="st1" d="M77.3,38.2H4.1c0,1.1,0,2.2,0,3.1h73.3L77.3,38.2L77.3,38.2z"/>
	</g>
	<g id="hDeckAft_07">
		<path id="_x30_7_2_" class="st1" d="M77.3,35.2h-73c-0.1,1-0.2,2.1-0.3,3.1h73.3V35.2z"/>
	</g>
	<g id="hDeckAft_08">
		<path id="_x30_8_2_" class="st1" d="M77.3,32.2H5c-0.3,1-0.6,2-0.7,3.1h73V32.2z"/>
	</g>
	<g id="hDeckAft_09">
		<path id="_x30_9_2_" class="st1" d="M77.3,29.1H6.8C6,29.9,5.5,31,5,32.2h72.3V29.1z"/>
	</g>
	<g id="hDeckAft_10">
		<polygon id="_x31_0" class="st1" points="77.3,26 6,26 6.8,29.1 77.3,29.1 		"/>
	</g>
	<g id="hDeckAft_11">
		<polygon id="_x31_1" class="st1" points="77.3,23 6.5,23 5.2,23 6,26 77.3,26 		"/>
	</g>
	<g id="hDeckAft_12">
		<polygon id="_x31_2" class="st1" points="77.3,19.9 23.5,19.9 6.9,19.9 6.5,23 77.3,23 		"/>
	</g>
	<g id="hDeckAft_13">
		<polygon id="_x31_3" class="st1" points="24.5,16.8 23.5,19.9 77.3,19.9 77.3,16.8 59.1,16.8 		"/>
	</g>
	<g id="hDeckAft_14">
		<polygon id="_x31_4" class="st1" points="56.6,13.7 36.2,13.7 25.6,13.7 24.5,16.8 59.1,16.8 		"/>
	</g>
</g>
</svg>
