<?xml version="1.0" encoding="utf-8"?>
<!-- Generator: Adobe Illustrator 25.2.1, SVG Export Plug-In . SVG Version: 6.00 Build 0)  -->
<svg version="1.1" id="Prima_Deck_Selector" xmlns="http://www.w3.org/2000/svg" xmlns:xlink="http://www.w3.org/1999/xlink"
	 x="0px" y="0px" width="238.5150604px" height="51.2390633px" viewBox="0 0 238.5150604 51.2390633"
	 style="enable-background:new 0 0 238.5150604 51.2390633;" xml:space="preserve">
<style type="text/css">
	.st0{fill:#FFFFFF;stroke:#CAD2D7;stroke-width:0.5;stroke-miterlimit:10;}
</style>
<g id="gPrimaDeckSelectorForward">
	<g id="bPrimaDeckSelectorForward">
		<path id="f" class="st0" d="M237.98172,44.2994576c-0.2680664-1.6085815-0.6025391-3.3288574-0.947876-4.9880981
			c-0.1578979-0.758728-0.3173828-1.50177-0.4746704-2.21698c-0.2088013-0.9491577-0.4121704-1.84552-0.5985107-2.6485596
			c-0.3060913-1.319458-0.5637817-2.3827515-0.7216797-3.0247822c-0.1045532-0.4249268-0.1669922-0.6726074-0.1669922-0.6726074
			l-2.2446289-1.9121094h-12.3040161l-0.0762939-0.0653076l-2.5635376-2.1949463l-2.5635986-2.1949463l-2.5948486-2.2217407
			l-2.5322266-2.1681519l-2.3892212-2.0456543h2.8265991l0.0579834-0.2028809l0.6071167-2.124877l-0.0584106-0.0700684
			l-0.9117432-1.0941162l-0.0491943,0.0002441h-2.7217407v-0.9976196l-0.1233521-0.1034546l-2.8998413-2.4321289
			l-3.5471802-2.9750385l-1.1611938-0.973877h-1.2470703c0,0-0.3352051-0.5189819-1.0105591-1.2591553
			c-0.7640991-0.8373413-1.9735718-1.9568481-3.6567993-2.9572144c-1.8001099-1.0698853-4.1345215-1.9972534-7.0546875-2.2681885
			c0,0,1.2179565,0.894104,2.0219727,2.2681885c0.4904785,0.8383179,0.8273315,1.8546753,0.6383667,2.9572144H178.207489v0.5940552
			h-12.387146V5.7126017V4.727067h-4.852356l-1.6012573-1.190918V2.7553873h-6.0167236v2.9572144v2.2330322v2.9750385v2.4321289
			v2.1949463v2.1949453v2.2485352V22.15938v2.2217407v2.1949463v2.1949463v2.6500244v3.0247822v2.6485596v2.21698v11.638916
			h75.1542969C228.504303,50.9502754,238.9793243,50.2851753,237.98172,44.2994576z"/>
	</g>
	<g id="hDeckForward_05">
		<path id="_x30_5_2_" class="st0" d="M153.3500061,39.3113899h83.6838379c-0.1578979-0.758728-0.3173828-1.50177-0.4746704-2.21698
			h-83.2091675V39.3113899z"/>
	</g>
	<g id="hDeckForward_06">
		<path id="_x30_6_2_" class="st0" d="M153.3500061,37.0944099h83.2091675
			c-0.2088013-0.9491577-0.4121704-1.84552-0.5985107-2.6485596h-82.6106567V37.0944099z"/>
	</g>
	<g id="hDeckForward_07">
		<path id="_x30_7_2_" class="st0" d="M153.3500061,34.4458504h82.6106567
			c-0.3060913-1.319458-0.5637817-2.3827515-0.7216797-3.0247822h-81.8889771V34.4458504z"/>
	</g>
	<g id="hDeckForward_08">
		<path id="_x30_8_2_" class="st0" d="M153.3500061,31.4210682h81.8889771
			c-0.1045532-0.4249268-0.1669922-0.6726074-0.1669922-0.6726074l-2.2446289-1.9121094h-12.3040161l-0.0762939-0.0653076
			h-67.0970459V31.4210682z"/>
	</g>
	<g id="hDeckForward_09">
		<polygon id="_x30_9_2_" class="st0" points="153.3500061,28.7710438 220.447052,28.7710438 217.8835144,26.5760975 
			153.3500061,26.5760975 		"/>
	</g>
	<g id="hDeckForward_10">
		<polygon id="_x31_0_2_" class="st0" points="153.3500061,26.5760975 217.8835144,26.5760975 215.3199158,24.3811512 
			153.3500061,24.3811512 		"/>
	</g>
	<g id="hDeckForward_11">
		<polygon id="_x31_1_2_" class="st0" points="153.3500061,24.3811512 215.3199158,24.3811512 212.7250671,22.1594105 
			153.3500061,22.1594105 		"/>
	</g>
	<g id="hDeckForward_12">
		<polygon id="_x31_2_2_" class="st0" points="153.3500061,22.1594105 212.7250671,22.1594105 210.1928406,19.9912586 
			153.3500061,19.9912586 		"/>
	</g>
	<g id="hDeckForward_13">
		<polygon id="_x31_3_2_" class="st0" points="153.3500061,19.9912586 210.1928406,19.9912586 207.8036194,17.9456043 
			210.6302185,17.9456043 210.6882019,17.7427235 153.3500061,17.7427235 		"/>
	</g>
	<g id="hDeckForward_14">
		<polygon id="_x31_4_2_" class="st0" points="153.3500061,17.7427235 210.6882019,17.7427235 211.2953186,15.6178465 
			211.236908,15.5477781 153.3500061,15.5477781 		"/>
	</g>
	<g id="hDeckForward_15">
		<polygon id="_x31_5_2_" class="st0" points="153.3500061,15.5477781 211.236908,15.5477781 210.3251648,14.4536619 
			210.2759705,14.4539061 207.5542297,14.4539061 207.5542297,13.4562864 207.4308777,13.3528318 153.3500061,13.3528318 		"/>
	</g>
	<g id="hDeckForward_16">
		<polygon id="_x31_6_2_" class="st0" points="153.3500061,13.3528318 207.4308777,13.3528318 204.5310364,10.9207029 
			153.3500061,10.9207029 		"/>
	</g>
	<g id="hDeckForward_17">
		<polygon id="_x31_7_2_" class="st0" points="153.3500061,10.9207029 204.5310364,10.9207029 200.9838562,7.9456644 
			153.3500061,7.9456644 		"/>
	</g>
	<g id="hDeckForward_18">
		<path id="_x31_8_2_" class="st0" d="M178.207489,5.7126322v0.5940552h-12.387146V5.7126322h-12.4703369v2.2330322h47.6338501
			l-1.1611938-0.973877h-1.2470703c0,0-0.3352051-0.5189819-1.0105591-1.2591553h-8.0511475H178.207489z"/>
	</g>
	<g id="hDeckForward_19">
		<path id="_x31_9_1_" class="st0" d="M189.5138855,5.7126017c0.1889648-1.1025391-0.1478882-2.1188965-0.6383667-2.9572144
			h5.0327148c1.6832275,1.0003662,2.8927002,2.119873,3.6567993,2.9572144H189.5138855z M159.3667297,3.536149V2.7553873h-6.0167236
			v2.9572144h12.4703369V4.727067h-4.852356L159.3667297,3.536149z"/>
	</g>
	<g id="hDeckForward_20">
		<path id="_x32_0" class="st0" d="M186.8535461,0.4872293c0,0,1.2179565,0.8941041,2.0219727,2.2681885h5.0327148
			C192.1081238,1.6855326,189.7737122,0.7581644,186.8535461,0.4872293z"/>
	</g>
</g>
<g id="gPrimaDeckSelectorMidShip">
	<g id="bPrimaDeckSelectorMidShip">
		<polygon id="m" class="st0" points="146.9486389,2.7553873 146.9486389,5.7126017 146.9486389,7.9456339 136.1410217,7.9456339 
			80.6582336,7.9456339 80.6582336,10.9206724 80.6582336,13.3528013 80.6582336,15.5477476 80.6582336,17.7426929 
			80.6582336,19.9912281 80.6582336,22.15938 80.6582336,24.3811207 80.6582336,26.576067 80.6582336,28.7710133 
			80.6582336,31.4210377 80.6582336,34.4458199 80.6582336,37.0943794 80.6582336,39.3113594 80.6582336,50.9502754 
			153.3500061,50.9502754 153.3500061,39.3113594 153.3500061,37.0943794 153.3500061,34.4458199 153.3500061,31.4210377 
			153.3500061,28.7710133 153.3500061,26.576067 153.3500061,24.3811207 153.3500061,22.15938 153.3500061,19.9912281 
			153.3500061,17.7426929 153.3500061,15.5477476 153.3500061,13.3528013 153.3500061,10.9206724 153.3500061,7.9456339 
			153.3500061,5.7126017 153.3500061,2.7553873 		"/>
	</g>
	<g id="hDeckMidShip_05">
		<rect id="_x30_5_1_" x="80.6582336" y="37.0944099" class="st0" width="72.6917725" height="2.21698"/>
	</g>
	<g id="hDeckMidShip_06">
		<rect id="_x30_6_1_" x="80.6582336" y="34.4458504" class="st0" width="72.6917725" height="2.6485596"/>
	</g>
	<g id="hDeckMidShip_07">
		<rect id="_x30_7_1_" x="80.6582336" y="31.4210682" class="st0" width="72.6917725" height="3.0247784"/>
	</g>
	<g id="hDeckMidShip_08">
		<rect id="_x30_8_1_" x="80.6582336" y="28.7710438" class="st0" width="72.6917725" height="2.6500244"/>
	</g>
	<g id="hDeckMidShip_09">
		<rect id="_x30_9_1_" x="80.6582336" y="26.5760975" class="st0" width="72.6917725" height="2.1949463"/>
	</g>
	<g id="hDeckMidShip_10">
		<rect id="_x31_0_1_" x="80.6582336" y="24.3811512" class="st0" width="72.6917725" height="2.1949463"/>
	</g>
	<g id="hDeckMidShip_11">
		<rect id="_x31_1_1_" x="80.6582336" y="22.1594105" class="st0" width="72.6917725" height="2.2217407"/>
	</g>
	<g id="hDeckMidShip_12">
		<rect id="_x31_2_1_" x="80.6582336" y="19.9912586" class="st0" width="72.6917725" height="2.1681519"/>
	</g>
	<g id="hDeckMidShip_13">
		<rect id="_x31_3_1_" x="80.6582336" y="17.7427235" class="st0" width="72.6917725" height="2.2485352"/>
	</g>
	<g id="hDeckMidShip_14">
		<rect id="_x31_4_1_" x="80.6582336" y="15.5477781" class="st0" width="72.6917725" height="2.1949472"/>
	</g>
	<g id="hDeckMidShip_15">
		<rect id="_x31_5_1_" x="80.6582336" y="13.3528318" class="st0" width="72.6917725" height="2.1949463"/>
	</g>
	<g id="hDeckMidShip_16">
		<rect id="_x31_6_1_" x="80.6582336" y="10.9207029" class="st0" width="72.6917725" height="2.4321289"/>
	</g>
	<g id="hDeckMidShip_17">
		<polygon id="_x31_7_1_" class="st0" points="136.1410217,7.9456644 80.6582336,7.9456644 80.6582336,10.9207029 
			153.3500061,10.9207029 153.3500061,7.9456644 146.9486389,7.9456644 		"/>
	</g>
	<g id="hDeckMidShip_18">
		<rect id="_x31_8_1_" x="146.9486389" y="5.7126322" class="st0" width="6.4013672" height="2.2330322"/>
	</g>
	<g id="hDeckMidShip_19">
		<rect id="_x31_9" x="146.9486389" y="2.7554178" class="st0" width="6.4013672" height="2.9572144"/>
	</g>
</g>
<g id="gPrimaDeckSelectorAft">
	<g id="bPrimaDeckSelectorAft">
		<path id="a" class="st0" d="M73.290802,7.9456339v2.1021137H55.0010071V7.9456339V5.7126017H38.7065086v2.2330322v2.1021137
			H23.9915409l-0.1939697,0.8729248l-0.3048096,1.3717041h-7.8146973v1.0604248v1.267395l-0.3851318,0.9275513l-0.911375,2.1949453
			l-0.9335938,2.2485352L12.5477562,22.15938l-0.9224854,2.2217407l-0.911377,2.1949463l-0.911377,2.1949463l-0.0270996,0.0653076
			H2.7920804l-0.6651001,0.8313599h0.74823v1.4963989H1.1293607l0.0770874,0.256958l0.9074707,3.0247822l0.7612915,2.5377197
			l-0.0639648,0.1108398l-1.2789917,2.21698l-1.151123,1.9952393v2.6603394c0,0,12.4703369-0.4157104,12.4703369,6.9833374
			h67.7972412v-11.638916v-2.21698v-2.6485596v-3.0247822v-2.6500244V26.576067v-2.1949463V22.15938v-2.1681519v-2.2485352
			v-2.1949453v-2.1949463v-2.4321289V7.9456339H73.290802z"/>
	</g>
	<g id="hDeckAft_05">
		<polygon id="_x30_5" class="st0" points="2.8112454,37.0944099 1.5322537,39.3113899 80.6487122,39.3113899 
			80.6487122,37.0944099 		"/>
	</g>
	<g id="hDeckAft_06">
		<polygon id="_x30_6" class="st0" points="80.6487122,34.4458504 2.1139188,34.4458504 2.8752103,36.9835701 2.8112454,37.0944099 
			80.6487122,37.0944099 		"/>
	</g>
	<g id="hDeckAft_07">
		<polygon id="_x30_7" class="st0" points="80.6487122,31.4210682 1.2064481,31.4210682 2.1139188,34.4458504 
			80.6487122,34.4458504 		"/>
	</g>
	<g id="hDeckAft_08">
		<polygon id="_x30_8" class="st0" points="80.6487122,28.7710438 9.8025169,28.7710438 9.7754173,28.8363514 2.7920804,28.8363514 
			2.1269803,29.6677113 2.8752103,29.6677113 2.8752103,31.1641102 1.1293607,31.1641102 1.2064481,31.4210682 
			80.6487122,31.4210682 		"/>
	</g>
	<g id="hDeckAft_09">
		<polygon id="_x30_9" class="st0" points="80.6487122,26.5760975 10.7138939,26.5760975 9.8025169,28.7710438 
			80.6487122,28.7710438 		"/>
	</g>
	<g id="hDeckAft_10">
		<polygon id="_x31_0" class="st0" points="80.6487122,24.3811512 11.6252708,24.3811512 10.7138939,26.5760975 
			80.6487122,26.5760975 		"/>
	</g>
	<g id="hDeckAft_11">
		<polygon id="_x31_1" class="st0" points="80.6487122,22.1594105 12.5477562,22.1594105 11.6252708,24.3811512 
			80.6487122,24.3811512 		"/>
	</g>
	<g id="hDeckAft_12">
		<polygon id="_x31_2" class="st0" points="80.6487122,19.9912586 13.4479637,19.9912586 12.5477562,22.1594105 
			80.6487122,22.1594105 		"/>
	</g>
	<g id="hDeckAft_13">
		<polygon id="_x31_3" class="st0" points="80.6487122,17.7427235 14.3815575,17.7427235 13.4479637,19.9912586 
			80.6487122,19.9912586 		"/>
	</g>
	<g id="hDeckAft_14">
		<polygon id="_x31_4" class="st0" points="80.6487122,15.5477781 15.2929325,15.5477781 14.3815575,17.7427235 
			80.6487122,17.7427235 		"/>
	</g>
	<g id="hDeckAft_15">
		<polygon id="_x31_5" class="st0" points="80.6487122,13.3528318 15.6780643,13.3528318 15.6780643,14.6202269 
			15.2929325,15.5477781 80.6487122,15.5477781 		"/>
	</g>
	<g id="hDeckAft_16">
		<polygon id="_x31_6" class="st0" points="80.6487122,10.9207029 23.7975712,10.9207029 23.4927616,12.292407 
			15.6780643,12.292407 15.6780643,13.3528318 80.6487122,13.3528318 		"/>
	</g>
	<g id="hDeckAft_17">
		<polygon id="_x31_7" class="st0" points="80.6487122,7.9456644 73.290802,7.9456644 73.290802,10.0477781 55.0010071,10.0477781 
			55.0010071,7.9456644 38.7065086,7.9456644 38.7065086,10.0477781 23.9915409,10.0477781 23.7975712,10.9207029 
			80.6487122,10.9207029 		"/>
	</g>
	<g id="hDeckAft_18">
		<rect id="_x31_8" x="38.7065086" y="5.7126322" class="st0" width="16.2944984" height="2.2330322"/>
	</g>
</g>
</svg>
