<?xml version="1.0" encoding="utf-8"?>
<!-- Generator: Adobe Illustrator 25.2.1, SVG Export Plug-In . SVG Version: 6.00 Build 0)  -->
<svg version="1.1" id="Prima_FMA_Profile" xmlns="http://www.w3.org/2000/svg" xmlns:xlink="http://www.w3.org/1999/xlink" x="0px"
	 y="0px" width="271.5983887px" height="87.5016022px" viewBox="0 0 271.5983887 87.5016022"
	 style="enable-background:new 0 0 271.5983887 87.5016022;" xml:space="preserve">
<style type="text/css">
	.st0{fill:#FFFFFF;}
	.st1{fill:#B7DAEA;}
	.st2{fill:none;}
	.st3{fill:none;stroke:#D3DADF;stroke-width:0.52;stroke-miterlimit:10;}
	.st4{fill:#231F20;}
	.st5{font-family:'Futura-Medium';}
	.st6{font-size:9px;}
	.st7{fill:#0E84BD;}
	.st8{font-family:'Futura-Bold';}
	.st9{font-size:6.25px;}
</style>
<g id="gPrimaAft">
	<g id="hPrimaAft">
		<rect id="back" x="0.2992044" y="0.3008" class="st0" width="97.6999969" height="87"/>
		<path id="ship" class="st1" d="M90.6413116,31.9776669v2.1021137H72.3515167v-4.335146H56.0570183v4.335146H41.3420525
			l-0.4987793,2.2446899h-7.8146973v2.3277588l-5.902647,14.2161255h-6.9833374l-0.6651001,0.8313599h0.74823v1.49646h-1.7458496
			l1.7458496,5.819458l-2.4940796,4.322998V67.99897c0,0,12.4703369-0.4156494,12.4703369,6.9833374h67.7972412V31.9776669
			H90.6413116z"/>
		<rect id="check_8_" x="0.2992044" y="84.1007996" class="st2" width="97.6999969" height="3.0999985"/>
		<rect id="border_8_" x="0.2992044" y="0.3008" class="st3" width="97.6999969" height="87"/>
		<text id="text_6_" transform="matrix(1 0 0 1 47.7269897 55.7559814)" class="st4 st5 st6">+  $0</text>
		<text id="title_6_" transform="matrix(1 0 0 1 42.3991699 15.7008057)" class="st7 st8 st9">AFT</text>
	</g>
</g>
<g id="gPrimaMidShip">
	<g id="hPrimaMidShip">
		<rect id="back_1_" x="97.9992065" y="0.3008" class="st0" width="79.8000031" height="87"/>
		<polygon id="ship_1_" class="st1" points="176.7172394,27.568243 176.7172394,26.7874203 164.2991486,26.7874203 
			164.2991486,31.9776669 153.4915314,31.9776669 98.199234,31.9776669 98.199234,74.9823074 177.7992096,74.9823074 
			177.7992096,28.3729305 		"/>
		<rect id="check_7_" x="97.9992065" y="84.1007996" class="st2" width="79.8000031" height="3.0999985"/>
		<rect id="border_6_" x="97.9992065" y="0.3008" class="st3" width="79.8000031" height="87"/>
		<text id="text_7_" transform="matrix(1 0 0 1 123.7269897 55.7559814)" class="st4 st5 st6">+  $15</text>
		<text id="title_7_" transform="matrix(1 0 0 1 123.1992188 15.7008057)" class="st7 st8 st9">MID-SHIP</text>
	</g>
</g>
<g id="gPrimaForward">
	<g id="hPrimaForward">
		<rect id="back_2_" x="177.7992096" y="0.3008" class="st0" width="93.5999908" height="87"/>
		<path id="ship_2_" class="st1" d="M255.3322296,68.3314896c-0.9976196-5.9857178-2.909729-13.5510254-2.909729-13.5510254
			l-2.2446289-1.9121094h-12.3040161l-12.7197266-10.890686h2.8265991l0.6651001-2.3278198l-0.9701538-1.1641235
			l-0.0491943,0.0002441h-2.7217407v-0.9976196l-7.7315674-6.48456h-1.2470703c0,0-3.6578979-5.7363281-11.7220459-6.4845581
			c0,0,3.1591187,2.3156738,2.6603394,5.2254028h-11.3063965v0.5940552h-12.387146V28.759161h-4.852356l-0.4193115-0.3118286
			v46.5349731h67.9556274C245.8548126,74.9823074,256.329834,74.3172684,255.3322296,68.3314896z"/>
		<rect id="check_9_" x="177.7992096" y="84.1007996" class="st2" width="93.5999908" height="3.0999985"/>
		<rect id="border_9_" x="177.7992096" y="0.3008" class="st3" width="93.5999908" height="87"/>
		<text id="text_9_" transform="matrix(1 0 0 1 200.3936157 55.7559814)" class="st4 st5 st6">+  $0</text>
		<text id="title_9_" transform="matrix(1 0 0 1 204.1992188 15.7008057)" class="st7 st8 st9">FORWARD</text>
	</g>
</g>
</svg>
