<?xml version="1.0" encoding="utf-8"?>
<!-- Generator: Adobe Illustrator 23.0.4, SVG Export Plug-In . SVG Version: 6.00 Build 0)  -->
<svg version="1.1" id="JOY_DECK_07" xmlns="http://www.w3.org/2000/svg" xmlns:xlink="http://www.w3.org/1999/xlink" x="0px"
	 y="0px" width="140.534px" height="1034.292px" viewBox="0 0 140.534 1034.292"
	 style="enable-background:new 0 0 140.534 1034.292;" xml:space="preserve">
<style type="text/css">
	.Drop_x0020_Shadow{fill:none;}
	.Round_x0020_Corners_x0020_2_x0020_pt{fill:#FFFFFF;stroke:#000000;stroke-miterlimit:10;}
	.Live_x0020_Reflect_x0020_X{fill:none;}
	.Bevel_x0020_Soft{fill:url(#SVGID_1_);}
	.Dusk{fill:#FFFFFF;}
	.Foliage_GS{fill:#FFDD00;}
	.Pompadour_GS{fill-rule:evenodd;clip-rule:evenodd;fill:#44ADE2;}
	.New_x0020_Cabins_x0020_2019{fill:#EFF2F5;stroke:#FFFFFF;stroke-width:0.5;stroke-miterlimit:10;}
	.st0{fill:#FFFFFF;}
	.st1{fill:none;stroke:#D5DCE0;stroke-width:0.5;}
	.st2{fill:#6E8496;}
	.st3{fill:none;stroke:#076FA0;stroke-miterlimit:10;}
	.st4{fill:none;}
</style>
<linearGradient id="SVGID_1_" gradientUnits="userSpaceOnUse" x1="-331.7127" y1="-73.5835" x2="-331.0056" y2="-72.8764">
	<stop  offset="0" style="stop-color:#DEDFE3"/>
	<stop  offset="0.1738" style="stop-color:#D8D9DD"/>
	<stop  offset="0.352" style="stop-color:#C9CACD"/>
	<stop  offset="0.5323" style="stop-color:#B4B5B8"/>
	<stop  offset="0.7139" style="stop-color:#989A9C"/>
	<stop  offset="0.8949" style="stop-color:#797C7E"/>
	<stop  offset="1" style="stop-color:#656B6C"/>
</linearGradient>
<g id="JOY_DECK_07_BOTTOM">
	<path class="st0" d="M69.537,1033.792c-34.667,0-69.037-5.875-69.037-25.375c0,0,1.771-880.375,1.771-886.875
		c0-38.5,40-93,46-100.5S60.75,0.5,69.75,0.5h0.016l0.521,0c8.872,0,16.738,13.042,22.653,20.542c5.915,7.5,45.348,62,45.348,100.5
		c0,6.5,1.746,886.875,1.746,886.875c0,19.5-34.946,25.375-69.122,25.375H69.537z"/>
	<rect x="63.922" y="423.714" class="st1" width="6.406" height="0.97"/>
	<rect x="57.422" y="416.902" class="st1" width="12.905" height="0.97"/>
	<rect x="70.391" y="423.714" class="st1" width="6.406" height="0.97"/>
	<rect x="70.392" y="416.902" class="st1" width="12.905" height="0.97"/>
	<rect x="57.422" y="414.964" class="st1" width="12.905" height="0.97"/>
	<rect x="70.392" y="414.964" class="st1" width="12.905" height="0.97"/>
	<polyline class="st1" points="57.485,419.854 50.1,421.375 50.1,424.375 48.537,424.375 48.537,406.875 	"/>
	<polyline class="st1" points="48.412,423.375 39.204,423.375 39.141,411.667 37.85,411.667 37.85,406.854 92.037,406.75 	"/>
	<polyline class="st1" points="83.235,419.854 90.287,421.375 90.287,424.437 91.975,424.437 91.975,386.833 	"/>
	<path class="st1" d="M94.529,511.502c-2.505,12.492-12.103,13.691-17.647,11.993c-7.887-2.416-11.69-9.291-8.507-19.137
		l8.163-25.556l23.555,6.041l-5.595,26.825L94.529,511.502z"/>
	<polyline class="st1" points="114.269,584.25 101.972,584.25 101.972,594.25 94.994,594.25 94.994,605.125 78.786,605.125 
		78.786,565.917 94.912,565.917 94.912,575.042 101.162,575.042 101.162,550.542 107.287,550.542 107.287,558 114.037,558 	"/>
	<rect x="86.244" y="853.282" class="st1" width="6.406" height="0.97"/>
	<polygon class="st1" points="90.787,680.75 90.787,684.375 98.287,684.375 98.454,710.625 93.162,710.625 93.162,736.833 
		91.162,743.999 91.162,748.312 79.225,748.312 79.287,680.781 	"/>
	<polyline class="st1" points="14.787,920.75 63.35,920.75 63.35,852.937 60.859,852.937 	"/>
	<path class="st1" d="M79.767,852.75h-2.479v48.875h32v19.125h16.833c0,0-0.396,41.521-0.208,41.333h-14.375l-0.125,17.833h8.458
		v16.333h-8.167v7h8.083v24.5"/>
	<line class="st1" x1="47.912" y1="844.5" x2="25.412" y2="844.5"/>
	<path class="st1" d="M92.287,844.5h22.188c0,0,0,17.271,0,17.312l-37.188,0.094"/>
	<path class="st1" d="M59.399,624.033c-0.801,1.201-1.508,2.484-2.08,3.865c-0.01,0.025-0.017,0.05-0.028,0.075"/>
	<path class="st1" d="M59.107,632.186c-0.754,3.3-0.839,5.035-0.839,6.935C58.268,637.249,58.353,635.486,59.107,632.186
		c0.369-1.614-0.12-3.76-2.964-5.047"/>
	<path class="st1" d="M63.5,633.15c-0.687,3.01-0.914,4.957-0.888,5.94C62.58,637.925,62.812,636.159,63.5,633.15
		c1.137-4.98-2.232-8.401-5.763-9.995"/>
	<polyline class="st1" points="58.085,628.46 60.987,625.27 59.399,624.033 57.237,627.782 	"/>
	<polyline class="st1" points="58.596,629.06 62.048,626.464 62.974,627.775 59.063,629.642 59.225,630.352 63.453,629.305 
		63.628,630.963 59.255,631.257 59.19,632.026 63.603,632.491 63.385,633.588 58.967,632.993 58.806,634.066 63.226,634.624 
		62.955,635.719 58.58,635.229 58.424,636.485 62.862,636.73 62.674,637.925 58.33,637.711 58.299,638.691 	"/>
	<path class="st1" d="M59.399,653.836c-0.801-1.201-1.508-2.484-2.08-3.865c-0.01-0.025-0.017-0.05-0.028-0.075"/>
	<path class="st1" d="M59.107,645.684c-0.754-3.3-0.839-5.035-0.839-6.935C58.268,640.62,58.353,642.383,59.107,645.684
		c0.369,1.614-0.12,3.76-2.964,5.047"/>
	<path class="st1" d="M63.5,644.72c-0.687-3.01-0.914-4.957-0.888-5.94C62.58,639.944,62.812,641.71,63.5,644.72
		c1.137,4.98-2.232,8.401-5.763,9.995"/>
	<polyline class="st1" points="58.085,649.41 60.987,652.6 59.399,653.836 57.237,650.087 	"/>
	<polyline class="st1" points="58.596,648.81 62.048,651.405 62.974,650.095 59.063,648.227 59.225,647.517 63.453,648.564 
		63.628,646.906 59.255,646.612 59.19,645.844 63.603,645.379 63.385,644.282 58.967,644.877 58.806,643.803 63.226,643.246 
		62.955,642.151 58.58,642.641 58.424,641.385 62.862,641.139 62.674,639.944 58.33,640.159 58.299,639.178 	"/>
	<ellipse class="st1" cx="70.299" cy="638.647" rx="16.171" ry="24.853"/>
	<line class="st1" x1="45.162" y1="844.292" x2="45.162" y2="861.792"/>
	<polyline class="st1" points="36.287,844.604 36.287,851.479 25.225,851.479 	"/>
	<line class="st1" x1="99.412" y1="844.417" x2="99.412" y2="861.729"/>
	<polyline class="st1" points="49.266,832.792 48.037,836.542 25.35,836.542 	"/>
	<polyline class="st1" points="90.475,832.792 91.703,836.542 114.391,836.542 	"/>
	<rect x="57.485" y="409.827" class="st1" width="12.905" height="14.92"/>
	<rect x="57.485" y="417.891" class="st1" width="12.905" height="0.97"/>
	<rect x="57.485" y="418.85" class="st1" width="12.905" height="0.971"/>
	<rect x="57.485" y="419.854" class="st1" width="12.905" height="0.97"/>
	<polygon class="st1" points="59.597,421.783 70.39,421.783 70.39,420.813 57.485,420.813 	"/>
	<polygon class="st1" points="61.742,422.786 70.39,422.786 70.39,421.816 59.618,421.816 	"/>
	<rect x="64.236" y="422.776" class="st1" width="6.154" height="0.97"/>
	<rect x="64.236" y="423.735" class="st1" width="6.154" height="0.97"/>
	<polygon class="st1" points="57.485,424.749 63.78,424.749 63.78,423.779 57.474,420.8 	"/>
	<path class="st1" d="M63.759,413.494c0-0.136,0.101-0.244,0.226-0.244l0,0c0.126,0,0.229,0.108,0.229,0.244v11.276
		c0,0.136-0.103,0.244-0.229,0.244l0,0c-0.125,0-0.226-0.108-0.226-0.244V413.494z"/>
	<rect x="70.329" y="409.827" class="st1" width="12.905" height="14.92"/>
	<rect x="70.329" y="417.891" class="st1" width="12.905" height="0.97"/>
	<rect x="70.329" y="418.85" class="st1" width="12.905" height="0.971"/>
	<rect x="70.329" y="419.854" class="st1" width="12.905" height="0.97"/>
	<polygon class="st1" points="81.122,421.783 70.329,421.783 70.329,420.813 83.235,420.813 	"/>
	<polygon class="st1" points="78.977,422.786 70.329,422.786 70.329,421.816 81.101,421.816 	"/>
	<rect x="70.329" y="422.776" class="st1" width="6.154" height="0.97"/>
	<rect x="70.329" y="423.735" class="st1" width="6.154" height="0.97"/>
	<polygon class="st1" points="83.235,424.749 76.94,424.749 76.94,423.779 83.245,420.8 	"/>
	<path class="st1" d="M76.96,413.494c0-0.136-0.102-0.244-0.227-0.244l0,0c-0.126,0-0.229,0.108-0.229,0.244v11.276
		c0,0.136,0.103,0.244,0.229,0.244l0,0c0.125,0,0.227-0.108,0.227-0.244V413.494z"/>
	<polyline class="st1" points="25.037,433.031 31.998,433.031 31.998,436.917 41.924,436.917 41.924,432.917 49.787,432.917 	"/>
	<polyline class="st1" points="91.287,433.031 104.248,433.031 104.248,436.917 114.174,436.917 	"/>
	<rect x="53.483" y="434.448" class="st1" width="9.158" height="33.255"/>
	<line class="st1" x1="62.5" y1="459.429" x2="53.627" y2="467.444"/>
	<line class="st1" x1="62.41" y1="467.439" x2="53.53" y2="459.432"/>
	<polyline class="st1" points="62.5,451.305 53.627,459.32 62.41,459.316 53.53,451.306 	"/>
	<polyline class="st1" points="62.5,442.842 53.627,450.857 62.41,450.852 53.53,442.845 	"/>
	<polyline class="st1" points="62.5,434.448 53.627,442.732 62.41,442.727 53.53,434.448 	"/>
	<polygon class="st1" points="64.516,473.917 64.516,467.723 53.516,467.723 53.516,434.348 64.475,434.348 64.475,432.723 
		49.891,432.723 49.891,473.917 	"/>
	<rect x="78.641" y="434.448" class="st1" width="9.158" height="33.255"/>
	<line class="st1" x1="78.781" y1="459.429" x2="87.655" y2="467.444"/>
	<line class="st1" x1="78.871" y1="467.439" x2="87.752" y2="459.432"/>
	<polyline class="st1" points="78.781,451.305 87.655,459.32 78.871,459.316 87.752,451.306 	"/>
	<polyline class="st1" points="78.781,442.842 87.655,450.857 78.871,450.852 87.752,442.845 	"/>
	<polyline class="st1" points="78.781,434.448 87.655,442.732 78.871,442.727 87.752,434.448 	"/>
	<polygon class="st1" points="76.766,473.917 76.766,467.723 87.766,467.723 87.766,434.348 76.807,434.348 76.807,432.723 
		91.391,432.723 91.391,473.917 	"/>
	<rect x="79.162" y="553.917" class="st1" width="16.25" height="3.875"/>
	<polyline class="st1" points="47.369,688.666 47.369,684.612 49.369,675.89 61.333,675.89 61.333,752.464 49.369,752.464 
		49.369,742.737 47.369,736.612 47.369,710.416 	"/>
	<rect x="41.412" y="356.292" class="st1" width="52.125" height="30.375"/>
	<polyline class="st1" points="122.787,389.542 111.194,389.542 111.162,386.667 109.037,386.667 109.037,381.167 113.194,381.198 
		113.037,355.792 119.871,355.792 	"/>
	<line class="st1" x1="25.183" y1="381.292" x2="25.183" y2="405.854"/>
	<polyline class="st1" points="114.537,844.5 114.537,650.667 131.787,650.667 131.787,592.917 114.287,592.917 114.287,407 	"/>
	<line class="st1" x1="112.996" y1="844.292" x2="112.996" y2="861.792"/>
	<polyline class="st1" points="90.537,811 100.287,811 100.287,834.25 106.954,834.25 106.954,815.667 114.371,815.667 	"/>
	<line class="st1" x1="25.371" y1="810.917" x2="49.121" y2="810.917"/>
	<polyline class="st1" points="25.287,701.417 39.287,701.417 39.287,688.542 47.162,688.542 	"/>
	<line class="st1" x1="25.287" y1="710.292" x2="47.162" y2="710.292"/>
	<polyline class="st1" points="131.662,617.792 114.537,617.792 95.037,609.417 95.037,603.792 	"/>
	<polyline class="st1" points="100.094,484.843 102.21,474.003 76.766,473.917 76.539,478.802 	"/>
	<polyline class="st1" points="122.704,396.417 111.287,396.417 111.371,406.75 122.871,406.75 122.871,364.292 119.871,355.792 
		114.829,355.792 114.62,254.915 106.62,242.249 106.62,239.583 91.204,239.583 91.204,222.083 49.621,222.083 49.621,239.583 
		33.87,239.583 33.87,241.999 25.87,254.665 25.621,381.25 17.287,381.249 17.287,406.25 25.121,406.25 25.121,508.25 
		28.787,508.25 28.787,516.25 25.287,516.25 25.287,609.583 7.954,609.583 7.954,651.583 25.621,651.583 25.621,861.906 
		63.308,861.812 	"/>
	<polyline class="st1" points="40.204,406.75 40.204,397 49.121,397 49.121,406.875 	"/>
	<line class="st1" x1="24.954" y1="399" x2="16.954" y2="399"/>
	<path class="st1" d="M33.371,379.417c-0.276,0-0.5-0.192-0.5-0.429v-18.017c0-0.237,0.224-0.429,0.5-0.429s0.5,0.192,0.5,0.429
		v18.017C33.871,379.225,33.647,379.417,33.371,379.417z"/>
	<path class="st1" d="M33.371,386.095c-0.276,0-0.5-0.192-0.5-0.429v-4.79c0-0.237,0.224-0.429,0.5-0.429s0.5,0.192,0.5,0.429v4.79
		C33.871,385.904,33.647,386.095,33.371,386.095z"/>
	<path class="st1" d="M101.537,379.417c-0.276,0-0.5-0.192-0.5-0.429v-14.071c0-0.237,0.224-0.429,0.5-0.429s0.5,0.192,0.5,0.429
		v14.071C102.037,379.225,101.814,379.417,101.537,379.417z"/>
	<path class="st1" d="M101.537,386.095c-0.276,0-0.5-0.192-0.5-0.429v-4.79c0-0.237,0.224-0.429,0.5-0.429s0.5,0.192,0.5,0.429v4.79
		C102.037,385.904,101.814,386.095,101.537,386.095z"/>
	<rect x="79.767" y="851.345" class="st1" width="12.905" height="0.97"/>
	<rect x="47.953" y="851.345" class="st1" width="12.905" height="0.97"/>
	<rect x="52.692" y="797.812" class="st1" width="9.324" height="33.255"/>
	<line class="st1" x1="61.709" y1="806.087" x2="52.836" y2="798.071"/>
	<line class="st1" x1="61.619" y1="798.076" x2="52.739" y2="806.083"/>
	<polyline class="st1" points="61.709,814.211 52.836,806.195 61.619,806.199 52.739,814.209 	"/>
	<polyline class="st1" points="61.709,822.674 52.836,814.658 61.619,814.663 52.739,822.671 	"/>
	<polyline class="st1" points="61.709,831.067 52.836,822.783 61.619,822.788 52.739,831.067 	"/>
	<polygon class="st1" points="63.891,793.625 63.891,797.792 52.891,797.792 52.891,831.167 63.85,831.167 63.85,832.792 
		49.266,832.792 49.266,793.625 	"/>
	<rect x="77.766" y="797.812" class="st1" width="9.324" height="33.255"/>
	<line class="st1" x1="78.073" y1="806.087" x2="86.946" y2="798.071"/>
	<line class="st1" x1="78.162" y1="798.076" x2="87.043" y2="806.083"/>
	<polyline class="st1" points="78.073,814.211 86.946,806.195 78.162,806.199 87.043,814.209 	"/>
	<polyline class="st1" points="78.073,822.674 86.946,814.658 78.162,814.663 87.043,822.671 	"/>
	<polyline class="st1" points="78.073,831.067 86.946,822.783 78.162,822.788 87.043,831.067 	"/>
	<polygon class="st1" points="75.891,793.625 75.891,797.792 86.891,797.792 86.891,831.167 75.932,831.167 75.932,832.792 
		90.516,832.792 90.516,793.625 	"/>
	<rect x="79.766" y="853.282" class="st1" width="6.406" height="0.97"/>
	<rect x="79.704" y="843.553" class="st1" width="12.905" height="18.198"/>
	<rect x="79.704" y="849.438" class="st1" width="12.905" height="0.97"/>
	<rect x="79.704" y="848.478" class="st1" width="12.905" height="0.971"/>
	<rect x="79.704" y="847.475" class="st1" width="12.905" height="0.97"/>
	<polygon class="st1" points="90.497,846.516 79.704,846.516 79.704,847.486 92.61,847.486 	"/>
	<polygon class="st1" points="88.352,845.514 79.704,845.514 79.704,846.483 90.476,846.483 	"/>
	<rect x="79.704" y="844.554" class="st1" width="6.154" height="0.97"/>
	<rect x="79.704" y="843.595" class="st1" width="6.154" height="0.97"/>
	<polygon class="st1" points="92.61,843.551 86.315,843.551 86.315,844.52 92.62,847.5 	"/>
	<path class="st1" d="M86.335,854.806c0,0.136-0.102,0.244-0.227,0.244l0,0c-0.126,0-0.229-0.108-0.229-0.244v-11.276
		c0-0.136,0.103-0.244,0.229-0.244l0,0c0.125,0,0.227,0.108,0.227,0.244V854.806z"/>
	<rect x="54.453" y="853.282" class="st1" width="6.406" height="0.97"/>
	<rect x="47.912" y="853.282" class="st1" width="6.406" height="0.97"/>
	<rect x="48.016" y="843.553" class="st1" width="12.905" height="18.198"/>
	<rect x="48.016" y="849.438" class="st1" width="12.905" height="0.97"/>
	<rect x="48.016" y="848.478" class="st1" width="12.905" height="0.971"/>
	<rect x="48.016" y="847.475" class="st1" width="12.905" height="0.97"/>
	<polygon class="st1" points="50.128,846.516 60.921,846.516 60.921,847.486 48.016,847.486 	"/>
	<polygon class="st1" points="52.274,845.514 60.921,845.514 60.921,846.483 50.15,846.483 	"/>
	<rect x="54.767" y="844.554" class="st1" width="6.154" height="0.97"/>
	<rect x="54.767" y="843.595" class="st1" width="6.154" height="0.97"/>
	<polygon class="st1" points="48.016,843.551 54.311,843.551 54.311,844.52 48.005,847.5 	"/>
	<path class="st1" d="M54.29,854.806c0,0.136,0.102,0.244,0.227,0.244l0,0c0.126,0,0.229-0.108,0.229-0.244v-11.276
		c0-0.136-0.103-0.244-0.229-0.244l0,0c-0.125,0-0.227,0.108-0.227,0.244V854.806z"/>
	<polyline class="st1" points="57.037,640.979 60.124,639.284 60.594,639.51 60.541,638.309 61.042,638.808 63.85,637.354 	"/>
	<rect x="41.412" y="356.292" class="st1" width="34.592" height="30.375"/>
	<polyline class="st1" points="17.287,381.249 17.287,364.542 20.037,356.042 20.037,212.792 2.662,212.792 	"/>
	<polyline class="st1" points="119.871,355.792 119.871,204.542 137.85,204.542 	"/>
	<polyline class="st1" points="14.62,921.083 14.62,962.25 14.537,962.25 28.912,962.25 29.037,980.083 20.579,980.083 
		20.579,996.417 28.746,996.417 28.746,1003.417 20.662,1003.417 20.662,1027.917 	"/>
	<polyline class="st1" points="28.787,516.25 55.121,516.25 61.704,528.33 61.621,539.333 67.871,539.333 67.871,555.333 
		42.121,555.333 42.121,572.083 47.204,572.083 47.204,565.917 61.287,565.917 61.287,605.25 30.6,605.25 30.6,584.979 
		25.287,584.979 	"/>
	<path class="st1" d="M99.787,802.75h-2v-12c0-2.691-1.309-4-4-4H82.954v-2h10.833c3.813,0,6,2.187,6,6V802.75z"/>
	<path class="st2" d="M33.039,853.878h1.007c1,0,1.727,0.527,1.727,1.783v0.071c0,0.728-0.288,1.191-0.656,1.472l0.752,2.271h-1.04
		l-0.632-1.951h-0.184v1.951h-0.975V853.878z M34.062,856.645c0.424,0,0.735-0.248,0.735-0.904v-0.063
		c0-0.704-0.335-0.888-0.759-0.888h-0.024v1.855H34.062z M36.223,853.878h1.007c1,0,1.727,0.527,1.727,1.783v0.071
		c0,0.728-0.288,1.191-0.656,1.472l0.751,2.271h-1.039l-0.632-1.951h-0.184v1.951h-0.975V853.878z M37.246,856.645
		c0.423,0,0.735-0.248,0.735-0.904v-0.063c0-0.704-0.336-0.888-0.76-0.888h-0.024v1.855H37.246z"/>
	<path class="st2" d="M27.914,845.378h1.007c1,0,1.727,0.527,1.727,1.783v0.071c0,0.728-0.288,1.191-0.656,1.472l0.752,2.271h-1.04
		l-0.632-1.951h-0.184v1.951h-0.975V845.378z M28.937,848.145c0.424,0,0.735-0.248,0.735-0.904v-0.063
		c0-0.704-0.335-0.888-0.759-0.888h-0.024v1.855H28.937z M31.098,845.378h1.007c1,0,1.727,0.527,1.727,1.783v0.071
		c0,0.728-0.288,1.191-0.656,1.472l0.751,2.271h-1.039l-0.632-1.951h-0.184v1.951h-0.975V845.378z M32.121,848.145
		c0.423,0,0.735-0.248,0.735-0.904v-0.063c0-0.704-0.336-0.888-0.76-0.888h-0.024v1.855H32.121z"/>
	<path class="st2" d="M103.788,853.878h1.008c0.999,0,1.728,0.527,1.728,1.783v0.071c0,0.728-0.288,1.191-0.656,1.472l0.752,2.271
		h-1.04l-0.631-1.951h-0.185v1.951h-0.976V853.878z M104.812,856.645c0.424,0,0.736-0.248,0.736-0.904v-0.063
		c0-0.704-0.336-0.888-0.76-0.888h-0.024v1.855H104.812z M106.973,853.878h1.007c1,0,1.728,0.527,1.728,1.783v0.071
		c0,0.728-0.288,1.191-0.656,1.472l0.752,2.271h-1.039l-0.632-1.951h-0.184v1.951h-0.976V853.878z M107.996,856.645
		c0.424,0,0.735-0.248,0.735-0.904v-0.063c0-0.704-0.336-0.888-0.76-0.888h-0.023v1.855H107.996z"/>
	<path class="st2" d="M64.428,635.572v-0.288c0-1.847,0.6-2.734,1.487-2.734s1.487,0.888,1.487,2.734v0.288
		c0,1.847-0.6,2.734-1.487,2.734S64.428,637.418,64.428,635.572z M66.41,635.572v-0.288c0-1.439-0.199-1.839-0.495-1.839
		s-0.496,0.399-0.496,1.839v0.288c0,1.438,0.2,1.839,0.496,1.839S66.41,637.01,66.41,635.572z M67.884,632.629h0.871
		c1.063,0,1.808,0.575,1.808,1.887v0.016c0,1.264-0.704,1.863-1.695,1.936H68.86v1.759h-0.976V632.629z M68.867,635.564
		c0.407-0.024,0.72-0.32,0.72-1v-0.016c0-0.712-0.272-1.016-0.696-1.016H68.86v2.031H68.867z M70.964,632.629h2.143v0.928h-1.168
		v1.391h1.032v0.928h-1.032v1.423h1.191v0.928h-2.166V632.629z M73.604,632.629h0.911l0.983,2.83v-2.83h0.952v5.597h-0.864
		l-1.031-2.967v2.967h-0.951V632.629z M78.82,633.557h-0.688v-0.928h2.352v0.928h-0.688v4.669H78.82V633.557z M80.636,635.572
		v-0.288c0-1.847,0.6-2.734,1.486-2.734c0.888,0,1.487,0.888,1.487,2.734v0.288c0,1.847-0.6,2.734-1.487,2.734
		C81.236,638.306,80.636,637.418,80.636,635.572z M82.618,635.572v-0.288c0-1.439-0.2-1.839-0.496-1.839s-0.495,0.399-0.495,1.839
		v0.288c0,1.438,0.199,1.839,0.495,1.839S82.618,637.01,82.618,635.572z M68.396,640.629h0.911c1.248,0,1.959,0.903,1.959,2.702
		v0.192c0,1.799-0.711,2.702-1.959,2.702h-0.911V640.629z M69.411,645.331c0.464,0,0.863-0.408,0.863-1.807v-0.192
		c0-1.399-0.399-1.807-0.863-1.807h-0.04v3.806H69.411z M71.747,640.629h2.144v0.928h-1.168v1.391h1.031v0.928h-1.031v1.423h1.191
		v0.928h-2.167V640.629z M74.211,643.524v-0.192c0-1.967,0.729-2.742,1.64-2.742c0.271,0,0.432,0.032,0.64,0.128v1.007
		c-0.2-0.119-0.36-0.184-0.544-0.184c-0.432,0-0.743,0.384-0.743,1.783v0.208c0,1.479,0.312,1.783,0.76,1.783
		c0.151,0,0.344-0.057,0.543-0.176v0.959c-0.224,0.128-0.439,0.168-0.72,0.168C74.891,646.266,74.211,645.474,74.211,643.524z
		 M76.995,640.629h0.976v2.343l0.792-2.343h1.103l-0.943,2.366l0.96,3.23h-1.088l-0.607-2.119l-0.216,0.616v1.503h-0.976V640.629z
		 M66.304,648.629h0.848c0.943,0,1.822,0.384,1.822,1.423v0.04c0,0.72-0.407,1.071-0.808,1.264c0.473,0.208,0.88,0.535,0.88,1.247
		v0.072c0,0.991-0.768,1.551-1.854,1.551h-0.888V648.629z M67.295,650.98c0.432,0,0.72-0.248,0.72-0.735v-0.017
		c0-0.487-0.288-0.695-0.72-0.695H67.28v1.447H67.295z M67.303,653.323c0.448,0,0.768-0.264,0.768-0.728v-0.04
		c0-0.464-0.319-0.728-0.768-0.728H67.28v1.495H67.303z M69.455,648.629h2.144v0.928h-1.168v1.391h1.031v0.928h-1.031v1.423h1.191
		v0.928h-2.167V648.629z M72.096,648.629h0.975v4.669h1.032v0.928h-2.007V648.629z M74.199,651.572v-0.288
		c0-1.847,0.6-2.734,1.487-2.734s1.487,0.888,1.487,2.734v0.288c0,1.847-0.6,2.734-1.487,2.734S74.199,653.418,74.199,651.572z
		 M76.183,651.572v-0.288c0-1.439-0.2-1.839-0.496-1.839s-0.496,0.399-0.496,1.839v0.288c0,1.438,0.2,1.839,0.496,1.839
		S76.183,653.01,76.183,651.572z M77.312,648.629h0.999l0.408,3.43l0.487-3.43h0.904l0.479,3.43l0.416-3.43h0.975l-0.847,5.612
		h-1.023l-0.464-3.317l-0.464,3.317h-1.023L77.312,648.629z"/>
	<path class="st2" d="M73.249,496.072v-0.288c0-1.847,0.6-2.734,1.487-2.734c0.887,0,1.487,0.887,1.487,2.734v0.288
		c0,1.847-0.601,2.734-1.487,2.734C73.849,498.806,73.249,497.918,73.249,496.072z M75.232,496.072v-0.288
		c0-1.439-0.199-1.839-0.495-1.839s-0.496,0.399-0.496,1.839v0.288c0,1.439,0.2,1.839,0.496,1.839S75.232,497.511,75.232,496.072z
		 M76.705,493.129h0.871c1.063,0,1.807,0.575,1.807,1.887v0.016c0,1.263-0.703,1.863-1.694,1.935h-0.008v1.759h-0.976V493.129z
		 M77.689,496.063c0.407-0.024,0.72-0.32,0.72-1v-0.016c0-0.712-0.272-1.016-0.696-1.016h-0.031v2.031H77.689z M79.785,493.129
		h2.143v0.927H80.76v1.391h1.032v0.928H80.76v1.423h1.191v0.928h-2.166V493.129z M82.425,493.129h0.911l0.983,2.83v-2.83h0.952
		v5.597h-0.864l-1.031-2.966v2.966h-0.951V493.129z M87.641,494.057h-0.688v-0.927h2.351v0.927h-0.688v4.669h-0.975V494.057z
		 M89.457,496.072v-0.288c0-1.847,0.6-2.734,1.486-2.734c0.888,0,1.487,0.887,1.487,2.734v0.288c0,1.847-0.6,2.734-1.487,2.734
		C90.057,498.806,89.457,497.918,89.457,496.072z M91.44,496.072v-0.288c0-1.439-0.2-1.839-0.496-1.839
		c-0.295,0-0.495,0.399-0.495,1.839v0.288c0,1.439,0.2,1.839,0.495,1.839C91.239,497.911,91.44,497.511,91.44,496.072z
		 M77.217,501.129h0.911c1.248,0,1.959,0.903,1.959,2.702v0.192c0,1.799-0.711,2.703-1.959,2.703h-0.911V501.129z M78.233,505.831
		c0.464,0,0.863-0.408,0.863-1.807v-0.192c0-1.399-0.399-1.807-0.863-1.807h-0.04v3.806H78.233z M80.569,501.129h2.144v0.927h-1.168
		v1.391h1.031v0.928h-1.031v1.423h1.191v0.928h-2.167V501.129z M83.032,504.023v-0.192c0-1.967,0.728-2.742,1.64-2.742
		c0.271,0,0.432,0.032,0.64,0.128v1.007c-0.2-0.12-0.36-0.184-0.544-0.184c-0.432,0-0.743,0.384-0.743,1.783v0.208
		c0,1.479,0.312,1.783,0.759,1.783c0.152,0,0.345-0.056,0.544-0.176v0.959c-0.224,0.128-0.439,0.168-0.72,0.168
		C83.712,506.766,83.032,505.975,83.032,504.023z M85.817,501.129h0.976v2.342l0.792-2.342h1.104l-0.944,2.366l0.96,3.23h-1.088
		l-0.607-2.119l-0.216,0.616v1.503h-0.976V501.129z M75.125,509.129h0.848c0.943,0,1.822,0.384,1.822,1.423v0.04
		c0,0.72-0.407,1.071-0.808,1.263c0.472,0.208,0.88,0.536,0.88,1.248v0.072c0,0.992-0.768,1.551-1.854,1.551h-0.888V509.129z
		 M76.116,511.48c0.432,0,0.72-0.248,0.72-0.736v-0.016c0-0.487-0.288-0.695-0.72-0.695h-0.016v1.447H76.116z M76.124,513.823
		c0.448,0,0.768-0.264,0.768-0.728v-0.04c0-0.464-0.319-0.728-0.768-0.728h-0.023v1.495H76.124z M78.277,509.129h2.144v0.927h-1.168
		v1.391h1.031v0.928h-1.031v1.423h1.191v0.928h-2.167V509.129z M80.917,509.129h0.976v4.669h1.031v0.928h-2.007V509.129z
		 M83.021,512.072v-0.288c0-1.847,0.6-2.734,1.487-2.734s1.487,0.887,1.487,2.734v0.288c0,1.847-0.6,2.734-1.487,2.734
		S83.021,513.918,83.021,512.072z M85.004,512.072v-0.288c0-1.439-0.2-1.839-0.496-1.839s-0.496,0.399-0.496,1.839v0.288
		c0,1.439,0.2,1.839,0.496,1.839S85.004,513.511,85.004,512.072z M86.133,509.129h0.999l0.408,3.43l0.487-3.43h0.904l0.479,3.43
		l0.416-3.43h0.975l-0.847,5.613h-1.023l-0.464-3.318l-0.464,3.318h-1.023L86.133,509.129z"/>
	<path class="st2" d="M17.301,635.028v-0.967c0.152,0.056,0.304,0.096,0.463,0.096c0.312,0,0.504-0.168,0.504-0.576v-4.117h0.992
		v4.189c0,0.991-0.52,1.455-1.343,1.455C17.669,635.108,17.477,635.068,17.301,635.028z M19.725,632.406v-0.288
		c0-1.847,0.6-2.734,1.487-2.734c0.887,0,1.487,0.888,1.487,2.734v0.288c0,1.847-0.6,2.734-1.487,2.734
		C20.325,635.14,19.725,634.252,19.725,632.406z M21.708,632.406v-0.288c0-1.439-0.2-1.839-0.496-1.839s-0.496,0.399-0.496,1.839
		v0.288c0,1.438,0.2,1.839,0.496,1.839S21.708,633.844,21.708,632.406z M23.773,632.853l-1.039-3.39h1.007l0.528,2.095l0.536-2.095
		h0.983l-1.04,3.39v2.207h-0.976V632.853z M27.253,632.358v-0.192c0-1.967,0.728-2.742,1.639-2.742c0.272,0,0.432,0.032,0.64,0.128
		v1.007c-0.2-0.119-0.36-0.184-0.543-0.184c-0.432,0-0.744,0.384-0.744,1.783v0.208c0,1.479,0.312,1.783,0.759,1.783
		c0.152,0,0.344-0.057,0.544-0.176v0.959c-0.224,0.128-0.44,0.168-0.72,0.168C27.933,635.1,27.253,634.308,27.253,632.358z
		 M30.821,629.447h1.04l1.063,5.613h-0.976l-0.184-1.111h-0.888l-0.176,1.111h-0.943L30.821,629.447z M31.62,633.069l-0.296-1.847
		l-0.304,1.847H31.62z M33.101,634.868v-1.015c0.344,0.199,0.616,0.312,0.879,0.312c0.28,0,0.52-0.136,0.52-0.479v-0.017
		c0-0.256-0.08-0.447-0.543-0.975c-0.664-0.752-0.936-1.112-0.936-1.791v-0.017c0-0.896,0.583-1.463,1.359-1.463
		c0.392,0,0.624,0.056,0.863,0.176v1.016c-0.304-0.176-0.488-0.256-0.744-0.256c-0.271,0-0.503,0.176-0.503,0.479v0.016
		c0,0.265,0.08,0.36,0.543,0.896c0.768,0.888,0.936,1.231,0.936,1.871v0.017c0,0.879-0.616,1.463-1.383,1.463
		C33.709,635.1,33.381,635.004,33.101,634.868z M35.837,629.463h0.976v5.597h-0.976V629.463z M37.405,629.463h0.912l0.983,2.83
		v-2.83h0.952v5.597h-0.864l-1.031-2.967v2.967h-0.952V629.463z M40.733,632.406v-0.288c0-1.847,0.6-2.734,1.487-2.734
		c0.887,0,1.487,0.888,1.487,2.734v0.288c0,1.847-0.6,2.734-1.487,2.734C41.333,635.14,40.733,634.252,40.733,632.406z
		 M42.716,632.406v-0.288c0-1.439-0.2-1.839-0.496-1.839s-0.496,0.399-0.496,1.839v0.288c0,1.438,0.2,1.839,0.496,1.839
		S42.716,633.844,42.716,632.406z"/>
	<path class="st2" d="M94.522,635.028v-0.967c0.152,0.056,0.305,0.096,0.464,0.096c0.312,0,0.504-0.168,0.504-0.576v-4.117h0.991
		v4.189c0,0.991-0.52,1.455-1.343,1.455C94.89,635.108,94.697,635.068,94.522,635.028z M96.946,632.406v-0.288
		c0-1.847,0.601-2.734,1.487-2.734c0.888,0,1.487,0.888,1.487,2.734v0.288c0,1.847-0.6,2.734-1.487,2.734
		C97.546,635.14,96.946,634.252,96.946,632.406z M98.929,632.406v-0.288c0-1.439-0.2-1.839-0.496-1.839s-0.495,0.399-0.495,1.839
		v0.288c0,1.438,0.199,1.839,0.495,1.839S98.929,633.844,98.929,632.406z M100.993,632.853l-1.039-3.39h1.007l0.528,2.095
		l0.535-2.095h0.983l-1.039,3.39v2.207h-0.976V632.853z M104.474,632.358v-0.192c0-1.967,0.728-2.742,1.64-2.742
		c0.271,0,0.432,0.032,0.64,0.128v1.007c-0.2-0.119-0.36-0.184-0.544-0.184c-0.432,0-0.744,0.384-0.744,1.783v0.208
		c0,1.479,0.312,1.783,0.76,1.783c0.152,0,0.344-0.057,0.544-0.176v0.959c-0.224,0.128-0.439,0.168-0.72,0.168
		C105.154,635.1,104.474,634.308,104.474,632.358z M108.041,629.447h1.04l1.063,5.613h-0.976l-0.185-1.111h-0.887l-0.177,1.111
		h-0.943L108.041,629.447z M108.841,633.069l-0.296-1.847l-0.304,1.847H108.841z M110.321,634.868v-1.015
		c0.345,0.199,0.616,0.312,0.88,0.312c0.28,0,0.52-0.136,0.52-0.479v-0.017c0-0.256-0.08-0.447-0.543-0.975
		c-0.664-0.752-0.936-1.112-0.936-1.791v-0.017c0-0.896,0.583-1.463,1.358-1.463c0.393,0,0.624,0.056,0.864,0.176v1.016
		c-0.304-0.176-0.488-0.256-0.744-0.256c-0.271,0-0.504,0.176-0.504,0.479v0.016c0,0.265,0.08,0.36,0.544,0.896
		c0.768,0.888,0.936,1.231,0.936,1.871v0.017c0,0.879-0.615,1.463-1.383,1.463C110.93,635.1,110.602,635.004,110.321,634.868z
		 M113.058,629.463h0.976v5.597h-0.976V629.463z M114.626,629.463h0.911l0.983,2.83v-2.83h0.951v5.597h-0.863l-1.031-2.967v2.967
		h-0.951V629.463z M117.953,632.406v-0.288c0-1.847,0.601-2.734,1.487-2.734c0.888,0,1.487,0.888,1.487,2.734v0.288
		c0,1.847-0.6,2.734-1.487,2.734C118.554,635.14,117.953,634.252,117.953,632.406z M119.937,632.406v-0.288
		c0-1.439-0.2-1.839-0.496-1.839s-0.495,0.399-0.495,1.839v0.288c0,1.438,0.199,1.839,0.495,1.839S119.937,633.844,119.937,632.406z
		"/>
	<path class="st2" d="M102.188,603.194v-0.967c0.152,0.056,0.305,0.096,0.464,0.096c0.312,0,0.504-0.168,0.504-0.576v-4.117h0.991
		v4.189c0,0.991-0.52,1.455-1.343,1.455C102.556,603.274,102.363,603.234,102.188,603.194z M104.612,600.572v-0.288
		c0-1.847,0.601-2.734,1.487-2.734c0.888,0,1.487,0.888,1.487,2.734v0.288c0,1.847-0.6,2.734-1.487,2.734
		C105.212,603.306,104.612,602.418,104.612,600.572z M106.595,600.572v-0.288c0-1.439-0.2-1.839-0.496-1.839
		s-0.495,0.399-0.495,1.839v0.288c0,1.438,0.199,1.839,0.495,1.839S106.595,602.01,106.595,600.572z M108.659,601.019l-1.039-3.39
		h1.007l0.528,2.095l0.535-2.095h0.983l-1.039,3.39v2.207h-0.976V601.019z M112.14,600.524v-0.192c0-1.967,0.728-2.742,1.64-2.742
		c0.271,0,0.432,0.032,0.64,0.128v1.007c-0.2-0.119-0.36-0.184-0.544-0.184c-0.432,0-0.744,0.384-0.744,1.783v0.208
		c0,1.479,0.312,1.783,0.76,1.783c0.152,0,0.344-0.057,0.544-0.176v0.959c-0.224,0.128-0.439,0.168-0.72,0.168
		C112.82,603.266,112.14,602.474,112.14,600.524z M115.707,597.613h1.04l1.063,5.613h-0.976l-0.185-1.111h-0.887l-0.177,1.111
		h-0.943L115.707,597.613z M116.507,601.235l-0.296-1.847l-0.304,1.847H116.507z M117.988,603.034v-1.015
		c0.345,0.199,0.616,0.312,0.88,0.312c0.28,0,0.52-0.136,0.52-0.479v-0.017c0-0.256-0.08-0.447-0.543-0.975
		c-0.664-0.752-0.936-1.112-0.936-1.791v-0.017c0-0.896,0.583-1.463,1.358-1.463c0.393,0,0.624,0.056,0.864,0.176v1.016
		c-0.304-0.176-0.488-0.256-0.744-0.256c-0.271,0-0.504,0.176-0.504,0.479v0.016c0,0.265,0.08,0.36,0.544,0.896
		c0.768,0.888,0.936,1.231,0.936,1.871v0.017c0,0.879-0.615,1.463-1.383,1.463C118.596,603.266,118.268,603.17,117.988,603.034z
		 M120.724,597.629h0.976v5.597h-0.976V597.629z M122.292,597.629h0.911l0.983,2.83v-2.83h0.951v5.597h-0.863l-1.031-2.967v2.967
		h-0.951V597.629z M125.619,600.572v-0.288c0-1.847,0.601-2.734,1.487-2.734c0.888,0,1.487,0.888,1.487,2.734v0.288
		c0,1.847-0.6,2.734-1.487,2.734C126.22,603.306,125.619,602.418,125.619,600.572z M127.603,600.572v-0.288
		c0-1.439-0.2-1.839-0.496-1.839s-0.495,0.399-0.495,1.839v0.288c0,1.438,0.199,1.839,0.495,1.839S127.603,602.01,127.603,600.572z
		 M104.056,605.629h0.992l0.527,3.646l0.527-3.646h0.96l-1,5.612h-1.007L104.056,605.629z M107.376,605.629h0.976v5.597h-0.976
		V605.629z M108.944,605.629h0.872c1.063,0,1.807,0.575,1.807,1.887v0.016c0,1.264-0.703,1.863-1.695,1.936h-0.008v1.759h-0.976
		V605.629z M109.927,608.564c0.408-0.024,0.72-0.32,0.72-1v-0.016c0-0.712-0.271-1.016-0.695-1.016h-0.032v2.031H109.927z
		 M113.296,605.629h1.007c1,0,1.728,0.527,1.728,1.783v0.071c0,0.728-0.288,1.191-0.655,1.472l0.751,2.271h-1.039l-0.632-1.951
		h-0.184v1.951h-0.976V605.629z M114.32,608.396c0.424,0,0.735-0.248,0.735-0.904v-0.063c0-0.704-0.336-0.888-0.76-0.888h-0.023
		v1.855H114.32z M116.384,608.572v-0.288c0-1.847,0.6-2.734,1.487-2.734s1.487,0.888,1.487,2.734v0.288
		c0,1.847-0.6,2.734-1.487,2.734S116.384,610.418,116.384,608.572z M118.366,608.572v-0.288c0-1.439-0.199-1.839-0.495-1.839
		s-0.496,0.399-0.496,1.839v0.288c0,1.438,0.2,1.839,0.496,1.839S118.366,610.01,118.366,608.572z M119.744,608.572v-0.288
		c0-1.847,0.6-2.734,1.486-2.734c0.888,0,1.487,0.888,1.487,2.734v0.288c0,1.847-0.6,2.734-1.487,2.734
		C120.344,611.306,119.744,610.418,119.744,608.572z M121.727,608.572v-0.288c0-1.439-0.2-1.839-0.496-1.839
		s-0.495,0.399-0.495,1.839v0.288c0,1.438,0.199,1.839,0.495,1.839S121.727,610.01,121.727,608.572z M123.199,605.629h0.968
		l0.688,2.047l0.688-2.047h0.968v5.597h-0.936v-3.382l-0.712,2.118h-0.016l-0.712-2.118v3.382h-0.936V605.629z"/>
	<path class="st2" d="M32.802,768.072v-0.967c0.152,0.056,0.304,0.096,0.464,0.096c0.312,0,0.503-0.168,0.503-0.576v-4.117h0.992
		v4.189c0,0.991-0.52,1.455-1.343,1.455C33.17,768.152,32.978,768.112,32.802,768.072z M35.226,765.45v-0.288
		c0-1.847,0.6-2.734,1.487-2.734c0.887,0,1.487,0.888,1.487,2.734v0.288c0,1.847-0.6,2.734-1.487,2.734
		C35.825,768.184,35.226,767.296,35.226,765.45z M37.209,765.45v-0.288c0-1.439-0.2-1.839-0.496-1.839s-0.496,0.399-0.496,1.839
		v0.288c0,1.439,0.2,1.839,0.496,1.839S37.209,766.889,37.209,765.45z M39.274,765.897l-1.04-3.39h1.007l0.528,2.095l0.536-2.095
		h0.983l-1.04,3.39v2.207h-0.975V765.897z M42.754,765.402v-0.192c0-1.967,0.728-2.742,1.639-2.742c0.272,0,0.432,0.032,0.64,0.128
		v1.007c-0.2-0.119-0.36-0.184-0.543-0.184c-0.432,0-0.744,0.384-0.744,1.783v0.208c0,1.479,0.312,1.783,0.759,1.783
		c0.152,0,0.344-0.057,0.544-0.177v0.96c-0.224,0.128-0.44,0.168-0.72,0.168C43.433,768.144,42.754,767.352,42.754,765.402z
		 M46.321,762.491h1.039l1.063,5.613h-0.976l-0.184-1.111h-0.888l-0.176,1.111h-0.943L46.321,762.491z M47.121,766.113l-0.296-1.847
		l-0.304,1.847H47.121z M48.602,767.913v-1.016c0.344,0.199,0.616,0.312,0.879,0.312c0.28,0,0.52-0.136,0.52-0.479v-0.017
		c0-0.256-0.08-0.447-0.544-0.976c-0.664-0.751-0.936-1.111-0.936-1.791v-0.016c0-0.896,0.584-1.463,1.359-1.463
		c0.392,0,0.624,0.056,0.863,0.176v1.016c-0.304-0.176-0.487-0.256-0.743-0.256c-0.272,0-0.504,0.176-0.504,0.479v0.016
		c0,0.265,0.08,0.36,0.543,0.896c0.768,0.888,0.936,1.231,0.936,1.871v0.017c0,0.879-0.616,1.463-1.383,1.463
		C49.209,768.144,48.882,768.048,48.602,767.913z M51.338,762.507h0.976v5.597h-0.976V762.507z M52.905,762.507h0.912l0.983,2.83
		v-2.83h0.952v5.597h-0.864l-1.031-2.967v2.967h-0.952V762.507z M56.234,765.45v-0.288c0-1.847,0.6-2.734,1.487-2.734
		c0.887,0,1.487,0.888,1.487,2.734v0.288c0,1.847-0.6,2.734-1.487,2.734C56.833,768.184,56.234,767.296,56.234,765.45z
		 M58.217,765.45v-0.288c0-1.439-0.2-1.839-0.496-1.839s-0.496,0.399-0.496,1.839v0.288c0,1.439,0.2,1.839,0.496,1.839
		S58.217,766.889,58.217,765.45z"/>
	<path class="st2" d="M82.135,768.072v-0.967c0.152,0.056,0.305,0.096,0.464,0.096c0.312,0,0.504-0.168,0.504-0.576v-4.117h0.991
		v4.189c0,0.991-0.52,1.455-1.343,1.455C82.503,768.152,82.311,768.112,82.135,768.072z M84.559,765.45v-0.288
		c0-1.847,0.601-2.734,1.487-2.734c0.888,0,1.487,0.888,1.487,2.734v0.288c0,1.847-0.6,2.734-1.487,2.734
		C85.159,768.184,84.559,767.296,84.559,765.45z M86.542,765.45v-0.288c0-1.439-0.2-1.839-0.496-1.839s-0.495,0.399-0.495,1.839
		v0.288c0,1.439,0.199,1.839,0.495,1.839S86.542,766.889,86.542,765.45z M88.607,765.897l-1.039-3.39h1.007l0.528,2.095l0.535-2.095
		h0.983l-1.039,3.39v2.207h-0.976V765.897z M92.087,765.402v-0.192c0-1.967,0.728-2.742,1.64-2.742c0.271,0,0.432,0.032,0.64,0.128
		v1.007c-0.2-0.119-0.36-0.184-0.544-0.184c-0.432,0-0.744,0.384-0.744,1.783v0.208c0,1.479,0.312,1.783,0.76,1.783
		c0.152,0,0.344-0.057,0.544-0.177v0.96c-0.224,0.128-0.439,0.168-0.72,0.168C92.767,768.144,92.087,767.352,92.087,765.402z
		 M95.655,762.491h1.04l1.063,5.613h-0.976l-0.185-1.111h-0.887l-0.177,1.111h-0.943L95.655,762.491z M96.454,766.113l-0.296-1.847
		l-0.304,1.847H96.454z M97.935,767.913v-1.016c0.345,0.199,0.616,0.312,0.88,0.312c0.28,0,0.52-0.136,0.52-0.479v-0.017
		c0-0.256-0.08-0.447-0.543-0.976c-0.664-0.751-0.936-1.111-0.936-1.791v-0.016c0-0.896,0.583-1.463,1.358-1.463
		c0.393,0,0.624,0.056,0.864,0.176v1.016c-0.304-0.176-0.488-0.256-0.744-0.256c-0.271,0-0.504,0.176-0.504,0.479v0.016
		c0,0.265,0.08,0.36,0.544,0.896c0.768,0.888,0.936,1.231,0.936,1.871v0.017c0,0.879-0.615,1.463-1.383,1.463
		C98.543,768.144,98.215,768.048,97.935,767.913z M100.671,762.507h0.976v5.597h-0.976V762.507z M102.239,762.507h0.911l0.983,2.83
		v-2.83h0.951v5.597h-0.863l-1.031-2.967v2.967h-0.951V762.507z M105.567,765.45v-0.288c0-1.847,0.601-2.734,1.487-2.734
		c0.888,0,1.487,0.888,1.487,2.734v0.288c0,1.847-0.6,2.734-1.487,2.734C106.167,768.184,105.567,767.296,105.567,765.45z
		 M107.55,765.45v-0.288c0-1.439-0.2-1.839-0.496-1.839s-0.495,0.399-0.495,1.839v0.288c0,1.439,0.199,1.839,0.495,1.839
		S107.55,766.889,107.55,765.45z"/>
	<path class="st2" d="M44.826,959.723h-0.688v-0.927h2.351v0.927h-0.688v4.67h-0.976V959.723z M46.898,958.796h0.976v2.318h0.848
		v-2.318h0.975v5.597h-0.975v-2.351h-0.848v2.351h-0.976V958.796z M50.274,958.796h2.143v0.927H51.25v1.392h1.031v0.928H51.25v1.423
		h1.191v0.928h-2.167V958.796z M54.186,958.796h0.967l0.688,2.047l0.688-2.047h0.968v5.597h-0.936v-3.382l-0.711,2.118h-0.016
		l-0.712-2.118v3.382h-0.935V958.796z M58.858,958.78h1.04l1.063,5.613h-0.975l-0.184-1.111h-0.888l-0.176,1.111h-0.943
		L58.858,958.78z M59.657,962.402l-0.295-1.847l-0.304,1.847H59.657z M61.258,958.796h0.912l0.983,2.83v-2.83h0.951v5.597h-0.863
		l-1.032-2.967v2.967h-0.951V958.796z M64.682,958.796h0.976v2.318h0.848v-2.318h0.976v5.597h-0.976v-2.351h-0.848v2.351h-0.976
		V958.796z M68.841,958.78h1.04l1.063,5.613h-0.976l-0.184-1.111h-0.888l-0.176,1.111h-0.944L68.841,958.78z M69.641,962.402
		l-0.296-1.847l-0.304,1.847H69.641z M71.522,959.723h-0.688v-0.927h2.351v0.927h-0.688v4.67h-0.976V959.723z M74.113,959.723
		h-0.688v-0.927h2.351v0.927h-0.688v4.67h-0.976V959.723z M76.73,958.78h1.039l1.063,5.613h-0.976l-0.184-1.111h-0.888l-0.176,1.111
		h-0.943L76.73,958.78z M77.529,962.402l-0.296-1.847l-0.304,1.847H77.529z M79.13,958.796h0.911l0.983,2.83v-2.83h0.951v5.597
		h-0.863l-1.031-2.967v2.967H79.13V958.796z M83.825,958.796h1.008c0.999,0,1.727,0.527,1.727,1.783v0.071
		c0,0.728-0.287,1.191-0.655,1.472l0.752,2.271h-1.04l-0.632-1.951h-0.184v1.951h-0.976V958.796z M84.849,961.563
		c0.424,0,0.735-0.248,0.735-0.904v-0.063c0-0.704-0.335-0.888-0.759-0.888h-0.024v1.855H84.849z M86.913,961.739v-0.288
		c0-1.847,0.6-2.734,1.487-2.734s1.487,0.888,1.487,2.734v0.288c0,1.847-0.6,2.734-1.487,2.734S86.913,963.585,86.913,961.739z
		 M88.897,961.739v-0.288c0-1.439-0.2-1.839-0.496-1.839s-0.495,0.399-0.495,1.839v0.288c0,1.439,0.199,1.839,0.495,1.839
		S88.897,963.178,88.897,961.739z M90.274,961.739v-0.288c0-1.847,0.6-2.734,1.487-2.734s1.487,0.888,1.487,2.734v0.288
		c0,1.847-0.6,2.734-1.487,2.734S90.274,963.585,90.274,961.739z M92.256,961.739v-0.288c0-1.439-0.199-1.839-0.495-1.839
		s-0.496,0.399-0.496,1.839v0.288c0,1.439,0.2,1.839,0.496,1.839S92.256,963.178,92.256,961.739z M93.73,958.796h0.968l0.688,2.047
		l0.688-2.047h0.967v5.597h-0.936v-3.382l-0.711,2.118h-0.017l-0.711-2.118v3.382H93.73V958.796z"/>
	<path class="st2" d="M95.208,784.118v-1.015c0.344,0.199,0.615,0.312,0.88,0.312c0.279,0,0.52-0.136,0.52-0.479v-0.017
		c0-0.256-0.08-0.447-0.544-0.975c-0.664-0.752-0.936-1.112-0.936-1.791v-0.017c0-0.896,0.584-1.463,1.359-1.463
		c0.392,0,0.624,0.056,0.863,0.176v1.016c-0.304-0.176-0.487-0.256-0.743-0.256c-0.272,0-0.504,0.176-0.504,0.479v0.016
		c0,0.265,0.08,0.36,0.544,0.896c0.768,0.888,0.936,1.231,0.936,1.871v0.017c0,0.879-0.616,1.463-1.384,1.463
		C95.816,784.35,95.488,784.254,95.208,784.118z M97.928,778.713h0.976v2.343l0.792-2.343h1.103l-0.943,2.366l0.96,3.23h-1.088
		l-0.607-2.119l-0.216,0.616v1.503h-0.976V778.713z M101.743,782.103l-1.039-3.39h1.008l0.527,2.095l0.536-2.095h0.983l-1.04,3.39
		v2.207h-0.976V782.103z M104.048,778.713h0.976v4.669h1.031v0.928h-2.007V778.713z M106.464,778.713h0.976v5.597h-0.976V778.713z
		 M108.031,778.713h0.912l0.983,2.83v-2.83h0.951v5.597h-0.863l-1.031-2.967v2.967h-0.952V778.713z M111.456,778.713h2.143v0.928
		h-1.168v1.391h1.032v0.928h-1.032v1.423h1.191v0.928h-2.166V778.713z M100.608,786.713h0.848c0.943,0,1.823,0.384,1.823,1.423v0.04
		c0,0.72-0.408,1.071-0.808,1.264c0.472,0.208,0.88,0.535,0.88,1.247v0.072c0,0.991-0.768,1.551-1.855,1.551h-0.888V786.713z
		 M101.6,789.064c0.432,0,0.719-0.248,0.719-0.735v-0.017c0-0.487-0.287-0.695-0.719-0.695h-0.017v1.447H101.6z M101.608,791.407
		c0.447,0,0.768-0.264,0.768-0.728v-0.04c0-0.464-0.32-0.728-0.768-0.728h-0.024v1.495H101.608z M104.503,786.697h1.04l1.063,5.613
		h-0.976l-0.184-1.111h-0.888l-0.176,1.111h-0.944L104.503,786.697z M105.303,790.319l-0.296-1.847l-0.304,1.847H105.303z
		 M106.904,786.713h1.008c0.999,0,1.728,0.527,1.728,1.783v0.071c0,0.728-0.288,1.191-0.656,1.472l0.752,2.271h-1.04l-0.631-1.951
		h-0.185v1.951h-0.976V786.713z M107.927,789.48c0.424,0,0.736-0.248,0.736-0.904v-0.063c0-0.704-0.336-0.888-0.76-0.888h-0.024
		v1.855H107.927z"/>
	<path class="st2" d="M55.541,295.694v-0.967c0.152,0.056,0.304,0.096,0.464,0.096c0.312,0,0.503-0.168,0.503-0.576v-4.118H57.5
		v4.189c0,0.991-0.52,1.455-1.343,1.455C55.909,295.774,55.717,295.734,55.541,295.694z M57.965,293.072v-0.288
		c0-1.847,0.6-2.734,1.487-2.734s1.487,0.887,1.487,2.734v0.288c0,1.847-0.6,2.734-1.487,2.734S57.965,294.918,57.965,293.072z
		 M59.948,293.072v-0.288c0-1.439-0.2-1.839-0.496-1.839s-0.496,0.399-0.496,1.839v0.288c0,1.439,0.2,1.839,0.496,1.839
		S59.948,294.511,59.948,293.072z M62.013,293.519l-1.04-3.39h1.007l0.528,2.095l0.536-2.095h0.983l-1.039,3.39v2.207h-0.976
		V293.519z M66.109,291.057h-0.688v-0.927h2.351v0.927h-0.688v4.669h-0.976V291.057z M68.181,290.129h0.976v2.318h0.848v-2.318
		h0.976v5.597h-0.976v-2.351h-0.848v2.351h-0.976V290.129z M71.557,290.129h2.143v0.927h-1.167v1.391h1.031v0.928h-1.031v1.423
		h1.191v0.928h-2.167V290.129z M74.981,290.113h1.039l1.063,5.613h-0.976l-0.184-1.111h-0.888l-0.176,1.111h-0.943L74.981,290.113z
		 M75.78,293.735l-0.295-1.847l-0.305,1.847H75.78z M77.66,291.057h-0.688v-0.927h2.351v0.927h-0.688v4.669H77.66V291.057z
		 M79.733,290.129h2.143v0.927h-1.167v1.391h1.031v0.928h-1.031v1.423H81.9v0.928h-2.167V290.129z M82.372,290.129h1.008
		c0.999,0,1.728,0.527,1.728,1.783v0.072c0,0.728-0.288,1.191-0.656,1.472l0.752,2.271h-1.04l-0.631-1.951h-0.185v1.951h-0.976
		V290.129z M83.396,292.896c0.424,0,0.736-0.248,0.736-0.903v-0.064c0-0.704-0.336-0.888-0.76-0.888h-0.024v1.855H83.396z"/>
	<path class="st2" d="M41.601,399.252h1.007c1,0,1.727,0.528,1.727,1.783v0.072c0,0.728-0.288,1.191-0.656,1.471l0.752,2.271h-1.04
		l-0.632-1.951h-0.184v1.951h-0.975V399.252z M42.625,402.019c0.424,0,0.735-0.248,0.735-0.903v-0.064
		c0-0.704-0.335-0.888-0.759-0.888h-0.024v1.855H42.625z M44.785,399.252h1.007c1,0,1.727,0.528,1.727,1.783v0.072
		c0,0.728-0.288,1.191-0.656,1.471l0.751,2.271h-1.039l-0.632-1.951H45.76v1.951h-0.975V399.252z M45.809,402.019
		c0.423,0,0.735-0.248,0.735-0.903v-0.064c0-0.704-0.336-0.888-0.76-0.888H45.76v1.855H45.809z"/>
	<path class="st2" d="M18.476,388.877h1.007c1,0,1.727,0.528,1.727,1.783v0.072c0,0.728-0.288,1.191-0.656,1.471l0.752,2.271h-1.04
		l-0.632-1.951h-0.184v1.951h-0.975V388.877z M19.5,391.644c0.424,0,0.735-0.248,0.735-0.903v-0.064
		c0-0.704-0.335-0.888-0.759-0.888h-0.024v1.855H19.5z M21.66,388.877h1.007c1,0,1.727,0.528,1.727,1.783v0.072
		c0,0.728-0.288,1.191-0.656,1.471l0.751,2.271h-1.039l-0.632-1.951h-0.184v1.951H21.66V388.877z M22.684,391.644
		c0.423,0,0.735-0.248,0.735-0.903v-0.064c0-0.704-0.336-0.888-0.76-0.888h-0.024v1.855H22.684z"/>
	<path class="st2" d="M41.289,412.502h1.007c1,0,1.727,0.528,1.727,1.783v0.072c0,0.728-0.288,1.191-0.656,1.471l0.752,2.271h-1.04
		l-0.632-1.951h-0.184v1.951h-0.975V412.502z M42.312,415.269c0.424,0,0.735-0.248,0.735-0.903v-0.064
		c0-0.704-0.335-0.888-0.759-0.888h-0.024v1.855H42.312z M44.473,412.502h1.007c1,0,1.727,0.528,1.727,1.783v0.072
		c0,0.728-0.288,1.191-0.656,1.471l0.751,2.271h-1.039l-0.632-1.951h-0.184v1.951h-0.975V412.502z M45.496,415.269
		c0.423,0,0.735-0.248,0.735-0.903v-0.064c0-0.704-0.336-0.888-0.76-0.888h-0.024v1.855H45.496z"/>
	<path class="st2" d="M113.976,399.252h1.008c0.999,0,1.728,0.528,1.728,1.783v0.072c0,0.728-0.288,1.191-0.656,1.471l0.752,2.271
		h-1.04l-0.631-1.951h-0.185v1.951h-0.976V399.252z M114.999,402.019c0.424,0,0.736-0.248,0.736-0.903v-0.064
		c0-0.704-0.336-0.888-0.76-0.888h-0.024v1.855H114.999z M117.16,399.252h1.007c1,0,1.728,0.528,1.728,1.783v0.072
		c0,0.728-0.288,1.191-0.656,1.471l0.752,2.271h-1.039l-0.632-1.951h-0.184v1.951h-0.976V399.252z M118.184,402.019
		c0.424,0,0.735-0.248,0.735-0.903v-0.064c0-0.704-0.336-0.888-0.76-0.888h-0.023v1.855H118.184z"/>
	<path class="st2" d="M37.489,492.057h-0.688v-0.927h2.351v0.927h-0.688v4.669h-0.976V492.057z M39.561,491.129h0.976v2.318h0.848
		v-2.318h0.975v5.597h-0.975v-2.351h-0.848v2.351h-0.976V491.129z M42.937,491.129h2.143v0.927h-1.167v1.391h1.031v0.928h-1.031
		v1.423h1.191v0.928h-2.167V491.129z M46.849,491.129h0.975v4.669h1.032v0.928h-2.007V491.129z M48.953,494.072v-0.288
		c0-1.847,0.6-2.734,1.487-2.734c0.888,0,1.487,0.887,1.487,2.734v0.288c0,1.847-0.6,2.734-1.487,2.734
		C49.553,496.806,48.953,495.918,48.953,494.072z M50.936,494.072v-0.288c0-1.439-0.2-1.839-0.496-1.839
		c-0.295,0-0.496,0.399-0.496,1.839v0.288c0,1.439,0.2,1.839,0.496,1.839C50.736,495.911,50.936,495.511,50.936,494.072z
		 M52.313,494.023v-0.192c0-1.967,0.728-2.742,1.639-2.742c0.271,0,0.432,0.032,0.64,0.128v1.007c-0.2-0.12-0.36-0.184-0.544-0.184
		c-0.432,0-0.744,0.384-0.744,1.783v0.208c0,1.479,0.312,1.783,0.76,1.783c0.152,0,0.344-0.056,0.543-0.176v0.959
		c-0.224,0.128-0.439,0.168-0.719,0.168C52.993,496.766,52.313,495.975,52.313,494.023z M55.881,491.113h1.04l1.063,5.613h-0.976
		l-0.184-1.111h-0.887l-0.176,1.111h-0.944L55.881,491.113z M56.68,494.735l-0.296-1.847l-0.304,1.847H56.68z M58.281,491.129h0.976
		v4.669h1.031v0.928h-2.007V491.129z"/>
	<path class="st2" d="M84.364,532.654h-0.688v-0.927h2.352v0.927H85.34v4.669h-0.976V532.654z M86.437,531.727h0.975v2.318h0.848
		v-2.318h0.976v5.597h-0.976v-2.351h-0.848v2.351h-0.975V531.727z M89.813,531.727h2.143v0.927h-1.168v1.391h1.032v0.928h-1.032
		v1.423h1.191v0.928h-2.166V531.727z M93.724,531.727h0.976v4.669h1.031v0.928h-2.007V531.727z M95.828,534.669v-0.288
		c0-1.847,0.6-2.734,1.487-2.734s1.487,0.887,1.487,2.734v0.288c0,1.847-0.6,2.734-1.487,2.734S95.828,536.516,95.828,534.669z
		 M97.811,534.669v-0.288c0-1.439-0.199-1.839-0.495-1.839s-0.496,0.399-0.496,1.839v0.288c0,1.439,0.2,1.839,0.496,1.839
		S97.811,536.108,97.811,534.669z M99.188,534.621v-0.192c0-1.967,0.729-2.742,1.64-2.742c0.271,0,0.432,0.032,0.64,0.128v1.007
		c-0.2-0.12-0.36-0.184-0.544-0.184c-0.432,0-0.743,0.384-0.743,1.783v0.208c0,1.479,0.312,1.783,0.76,1.783
		c0.151,0,0.344-0.056,0.543-0.176v0.959c-0.224,0.128-0.439,0.168-0.72,0.168C99.867,537.364,99.188,536.572,99.188,534.621z
		 M102.756,531.711h1.039l1.063,5.613h-0.976l-0.184-1.111h-0.888l-0.176,1.111h-0.943L102.756,531.711z M103.555,535.333
		l-0.296-1.847l-0.304,1.847H103.555z M105.156,531.727h0.975v4.669h1.032v0.928h-2.007V531.727z"/>
	<path class="st2" d="M80.316,364.918h0.848c0.943,0,1.823,0.384,1.823,1.423v0.04c0,0.72-0.408,1.071-0.808,1.263
		c0.472,0.208,0.879,0.536,0.879,1.248v0.072c0,0.992-0.768,1.551-1.854,1.551h-0.888V364.918z M81.307,367.269
		c0.432,0,0.72-0.248,0.72-0.736v-0.016c0-0.487-0.288-0.695-0.72-0.695h-0.016v1.447H81.307z M81.315,369.612
		c0.448,0,0.768-0.264,0.768-0.728v-0.04c0-0.464-0.319-0.728-0.768-0.728h-0.023v1.495H81.315z M83.371,367.861v-0.288
		c0-1.847,0.6-2.734,1.487-2.734s1.487,0.887,1.487,2.734v0.288c0,1.847-0.6,2.734-1.487,2.734S83.371,369.708,83.371,367.861z
		 M85.355,367.861v-0.288c0-1.439-0.2-1.839-0.496-1.839s-0.495,0.399-0.495,1.839v0.288c0,1.439,0.199,1.839,0.495,1.839
		S85.355,369.3,85.355,367.861z M87.356,367.661l-0.88-2.742h1.039l0.44,1.615l0.447-1.615h1.016l-0.88,2.742l0.912,2.854h-1.04
		l-0.472-1.703l-0.479,1.703h-1.016L87.356,367.661z M77.348,375.861v-0.288c0-1.847,0.6-2.734,1.487-2.734s1.487,0.887,1.487,2.734
		v0.288c0,1.847-0.6,2.734-1.487,2.734S77.348,377.708,77.348,375.861z M79.33,375.861v-0.288c0-1.439-0.199-1.839-0.495-1.839
		s-0.496,0.399-0.496,1.839v0.288c0,1.439,0.2,1.839,0.496,1.839S79.33,377.3,79.33,375.861z M80.804,372.918h2.038v0.927H81.78
		v1.407h0.927v0.927H81.78v2.335h-0.976V372.918z M83.283,372.918h2.039v0.927h-1.063v1.407h0.928v0.927h-0.928v2.335h-0.976
		V372.918z M85.78,372.918h0.976v5.597H85.78V372.918z M87.251,375.812v-0.192c0-1.967,0.728-2.742,1.64-2.742
		c0.271,0,0.432,0.032,0.64,0.128v1.007c-0.2-0.12-0.36-0.184-0.544-0.184c-0.432,0-0.743,0.384-0.743,1.783v0.208
		c0,1.479,0.312,1.783,0.759,1.783c0.152,0,0.345-0.056,0.544-0.176v0.959c-0.224,0.128-0.439,0.168-0.72,0.168
		C87.931,378.555,87.251,377.764,87.251,375.812z M90.035,372.918h2.143v0.927h-1.167v1.391h1.031v0.928h-1.031v1.423h1.191v0.928
		h-2.167V372.918z"/>
</g>
<g id="JOY_DECK_07_TOP">
	<path class="st3" d="M69.537,1033.792c-34.667,0-69.037-5.875-69.037-25.375c0,0,1.771-880.375,1.771-886.875
		c0-38.5,40-93,46-100.5S60.75,0.5,69.75,0.5h0.016l0.521,0c8.872,0,16.738,13.042,22.653,20.542c5.915,7.5,45.348,62,45.348,100.5
		c0,6.5,1.746,886.875,1.746,886.875c0,19.5-34.946,25.375-69.122,25.375H69.537z"/>
	<g id="gDeck07Locations">
		<rect id="_x30_7Aft" y="660.281" class="st4" width="140.534" height="373.51"/>
		<rect id="_x30_7Middle" y="361.332" class="st4" width="140.534" height="298.95"/>
		<rect id="_x30_7Forward" y="0.5" class="st4" width="140.534" height="360.832"/>
	</g>
</g>
</svg>
