<?xml version="1.0" encoding="utf-8"?>
<!-- Generator: Adobe Illustrator 23.0.4, SVG Export Plug-In . SVG Version: 6.00 Build 0)  -->
<svg version="1.1" id="JOY_DECK_19" xmlns="http://www.w3.org/2000/svg" xmlns:xlink="http://www.w3.org/1999/xlink" x="0px"
	 y="0px" width="138.439px" height="779.799px" viewBox="0 0 138.439 779.799" style="enable-background:new 0 0 138.439 779.799;"
	 xml:space="preserve">
<style type="text/css">
	.Drop_x0020_Shadow{fill:none;}
	.Round_x0020_Corners_x0020_2_x0020_pt{fill:#FFFFFF;stroke:#000000;stroke-miterlimit:10;}
	.Live_x0020_Reflect_x0020_X{fill:none;}
	.Bevel_x0020_Soft{fill:url(#SVGID_1_);}
	.Dusk{fill:#FFFFFF;}
	.Foliage_GS{fill:#FFDD00;}
	.Pompadour_GS{fill-rule:evenodd;clip-rule:evenodd;fill:#44ADE2;}
	.New_x0020_Cabins_x0020_2019{fill:#EFF2F5;stroke:#FFFFFF;stroke-width:0.5;stroke-miterlimit:10;}
	.st0{fill:#FFFFFF;}
	.st1{fill:#CCDDE2;}
	.st2{fill:#FFFFFF;stroke:#D5DCE0;stroke-width:0.5;}
	.st3{fill:none;stroke:#D5DCE0;stroke-width:0.5;}
	.st4{fill:none;stroke:#808285;stroke-width:10;stroke-miterlimit:500;}
	.st5{fill:#DFEDF1;stroke:#CEDFE5;stroke-width:0.5;}
	.st6{fill:none;stroke:#FFFFFF;stroke-width:7;stroke-miterlimit:500;}
	.st7{fill:none;stroke:#808285;stroke-width:0.5;stroke-linejoin:round;stroke-miterlimit:500;}
	.st8{fill:none;stroke:#808285;stroke-width:0.5;stroke-linecap:round;stroke-linejoin:round;stroke-miterlimit:500;}
	.st9{fill:none;}
	.st10{fill:#6E8496;}
	.st11{fill:none;stroke:#076FA0;stroke-miterlimit:10;}
</style>
<linearGradient id="SVGID_1_" gradientUnits="userSpaceOnUse" x1="-542.4167" y1="6.0583" x2="-541.7095" y2="6.7654">
	<stop  offset="0" style="stop-color:#DEDFE3"/>
	<stop  offset="0.1738" style="stop-color:#D8D9DD"/>
	<stop  offset="0.352" style="stop-color:#C9CACD"/>
	<stop  offset="0.5323" style="stop-color:#B4B5B8"/>
	<stop  offset="0.7139" style="stop-color:#989A9C"/>
	<stop  offset="0.8949" style="stop-color:#797C7E"/>
	<stop  offset="1" style="stop-color:#656B6C"/>
</linearGradient>
<g id="JOY_DECK_19_BOTTOM">
	<path class="st0" d="M114.841,342.725v-73.208l13.692,0.166l0.07-90.873l6.014-6.452l0.008-10.216l-5.996-5.834l0.164-96.418
		l5.49-5.583V43.556l-5.465-5.669c0,0,0.021-16.959,0.021-17.679c0-5.778-1.6-8.619-8.924-11.721
		c-11.176-4.734-20.809-7.99-43.635-7.99h-0.336H75.66h-1.201h-0.285h-0.337c-22.825,0-32.458,3.256-43.635,7.99
		c-7.323,3.102-8.924,5.942-8.924,11.721c0,0.72,0.023,17.679,0.023,17.679l-5.466,5.669v10.751l5.49,5.583l0.165,134.165
		l-5.997,5.835l0.008,10.216l6.014,6.452l0.07,53.126l13.692-0.166v73.208H114.841z"/>
	<path class="st0" d="M51.672,779.302h46.072c0,0-1.684-21.197,15.506-18.493c-0.345-16.41,0-19.25,0-19.25l5.395,0v-16.75H30.708
		l0.062,16.75l5.395,0v19.25C36.166,760.808,52.048,756.779,51.672,779.302z"/>
	<path class="st0" d="M69.629,539.461h-5.478c-4.971,0-7.999,2.719-7.999,7.192v62.072c13.098,0,28.431,0,37.852,0v-62.072
		c0-4.474-3.029-7.192-7.999-7.192h-5.478H69.629z"/>
	<path class="st1" d="M127.668,161.396h-1.068c0.315,0.086,0.691,0.147,1.212,0.147c0.521,0,0.897-0.062,1.212-0.147h-1.066H127.668
		z"/>
	<path class="st1" d="M127.813,162.445c-0.841,0-1.252-0.171-1.687-0.352c-0.263-0.11-0.541-0.217-0.894-0.294l-0.463,0.527
		c0.489,0.057,0.801,0.187,1.126,0.322c0.47,0.196,0.957,0.399,1.918,0.399c0.961,0,1.448-0.203,1.918-0.399
		c0.326-0.136,0.638-0.266,1.127-0.322l-0.463-0.527c-0.354,0.077-0.632,0.185-0.895,0.295
		C129.065,162.273,128.654,162.445,127.813,162.445z"/>
	<path class="st1" d="M129.5,163.594c-0.435,0.181-0.846,0.352-1.687,0.352c-0.841,0-1.252-0.171-1.687-0.352
		c-0.47-0.196-0.957-0.399-1.918-0.399c-0.081,0-0.141,0.009-0.215,0.012l-0.582,0.662c0.223-0.042,0.472-0.073,0.797-0.073
		c0.841,0,1.252,0.171,1.687,0.352c0.47,0.196,0.957,0.399,1.918,0.399c0.961,0,1.448-0.203,1.918-0.399
		c0.435-0.181,0.846-0.352,1.687-0.352c0.326,0,0.575,0.031,0.798,0.073l-0.582-0.662c-0.075-0.003-0.135-0.012-0.216-0.012
		C130.457,163.196,129.971,163.398,129.5,163.594z"/>
	<path class="st1" d="M129.5,165.096c-0.435,0.181-0.846,0.352-1.687,0.352c-0.841,0-1.252-0.171-1.687-0.352
		c-0.47-0.196-0.957-0.399-1.918-0.399c-0.431,0-0.758,0.044-1.04,0.107v0.616c0.272-0.072,0.594-0.122,1.04-0.122
		c0.841,0,1.252,0.171,1.687,0.352c0.47,0.196,0.957,0.399,1.918,0.399c0.961,0,1.448-0.203,1.918-0.399
		c0.435-0.181,0.846-0.352,1.687-0.352c0.447,0,0.769,0.05,1.041,0.122v-0.616c-0.282-0.063-0.609-0.107-1.041-0.107
		C130.457,164.698,129.971,164.9,129.5,165.096z"/>
	<path class="st1" d="M129.5,166.599c-0.435,0.181-0.846,0.352-1.687,0.352c-0.841,0-1.252-0.171-1.687-0.352
		c-0.47-0.196-0.957-0.399-1.918-0.399c-0.431,0-0.758,0.044-1.04,0.107v0.616c0.272-0.072,0.594-0.122,1.04-0.122
		c0.841,0,1.252,0.171,1.687,0.352c0.47,0.196,0.957,0.399,1.918,0.399c0.961,0,1.448-0.203,1.918-0.399
		c0.435-0.181,0.846-0.352,1.687-0.352c0.447,0,0.769,0.05,1.041,0.122v-0.616c-0.282-0.063-0.609-0.107-1.041-0.107
		C130.457,166.2,129.971,166.403,129.5,166.599z"/>
	<path class="st1" d="M129.5,168.101c-0.435,0.181-0.846,0.352-1.687,0.352c-0.841,0-1.252-0.171-1.687-0.352
		c-0.47-0.196-0.957-0.399-1.918-0.399c-0.431,0-0.758,0.044-1.04,0.107v0.616c0.272-0.072,0.594-0.122,1.04-0.122
		c0.841,0,1.252,0.171,1.687,0.352c0.47,0.196,0.957,0.399,1.918,0.399c0.961,0,1.448-0.203,1.918-0.399
		c0.435-0.181,0.846-0.352,1.687-0.352c0.447,0,0.769,0.05,1.041,0.122v-0.616c-0.282-0.063-0.609-0.107-1.041-0.107
		C130.457,167.702,129.971,167.905,129.5,168.101z"/>
	<path class="st1" d="M129.5,169.603c-0.435,0.181-0.846,0.352-1.687,0.352c-0.841,0-1.252-0.171-1.687-0.352
		c-0.47-0.196-0.957-0.399-1.918-0.399c-0.431,0-0.758,0.044-1.04,0.107v0.616c0.272-0.072,0.594-0.122,1.04-0.122
		c0.841,0,1.252,0.171,1.687,0.352c0.47,0.196,0.957,0.399,1.918,0.399c0.961,0,1.448-0.203,1.918-0.399
		c0.435-0.181,0.846-0.352,1.687-0.352c0.447,0,0.769,0.05,1.041,0.122v-0.616c-0.282-0.063-0.609-0.107-1.041-0.107
		C130.457,169.205,129.971,169.407,129.5,169.603z"/>
	<path class="st1" d="M129.5,171.105c-0.435,0.181-0.846,0.352-1.687,0.352c-0.841,0-1.252-0.171-1.687-0.352
		c-0.47-0.196-0.957-0.399-1.918-0.399c-0.431,0-0.758,0.044-1.04,0.107v0.144l0.353,0.402c0.198-0.03,0.414-0.053,0.686-0.053
		c0.841,0,1.252,0.171,1.687,0.352c0.47,0.196,0.957,0.399,1.918,0.399c0.961,0,1.448-0.203,1.918-0.399
		c0.435-0.181,0.846-0.352,1.687-0.352c0.273,0,0.49,0.022,0.687,0.053l0.353-0.402v-0.144c-0.282-0.063-0.609-0.107-1.041-0.107
		C130.457,170.707,129.971,170.909,129.5,171.105z"/>
	<path class="st1" d="M127.813,172.96c-0.841,0-1.252-0.171-1.687-0.352c-0.459-0.191-0.94-0.386-1.856-0.395l0.562,0.639
		c0.449,0.061,0.753,0.182,1.063,0.311c0.47,0.196,0.957,0.399,1.918,0.399c0.961,0,1.448-0.203,1.918-0.399
		c0.31-0.129,0.614-0.25,1.064-0.311l0.561-0.639c-0.917,0.009-1.398,0.204-1.857,0.395
		C129.065,172.789,128.654,172.96,127.813,172.96z"/>
	<rect x="68.917" y="518.058" class="st2" width="14.833" height="21.333"/>
	<rect x="69.018" y="531.381" class="st3" width="6.154" height="0.97"/>
	<rect x="69.018" y="530.421" class="st3" width="6.154" height="0.971"/>
	<rect x="69.018" y="529.418" class="st3" width="6.154" height="0.97"/>
	<polygon class="st3" points="74.165,528.459 69.018,528.459 69.018,529.429 75.172,529.429 	"/>
	<polygon class="st3" points="73.142,527.456 69.018,527.456 69.018,528.426 74.155,528.426 	"/>
	<rect x="69.018" y="526.496" class="st3" width="2.935" height="0.97"/>
	<polyline class="st3" points="72.17,526.463 75.177,529.443 75.172,525.494 	"/>
	<path class="st3" d="M72.18,531.744c0,0.136-0.048,0.244-0.108,0.244l0,0c-0.06,0-0.109-0.108-0.109-0.244v-6.272
		c0-0.136,0.049-0.244,0.109-0.244l0,0c0.06,0,0.108,0.108,0.108,0.244V531.744z"/>
	<rect x="77.513" y="531.381" class="st3" width="6.154" height="0.97"/>
	<rect x="77.513" y="530.421" class="st3" width="6.154" height="0.971"/>
	<rect x="77.513" y="529.418" class="st3" width="6.154" height="0.97"/>
	<polygon class="st3" points="82.66,528.459 77.513,528.459 77.513,529.429 83.668,529.429 	"/>
	<polygon class="st3" points="81.637,527.456 77.513,527.456 77.513,528.426 82.65,528.426 	"/>
	<rect x="77.513" y="526.496" class="st3" width="2.935" height="0.97"/>
	<line class="st3" x1="80.666" y1="526.463" x2="83.673" y2="529.443"/>
	<path class="st3" d="M80.675,531.744c0,0.136-0.048,0.244-0.108,0.244l0,0c-0.06,0-0.109-0.108-0.109-0.244v-6.272
		c0-0.136,0.049-0.244,0.109-0.244l0,0c0.06,0,0.108,0.108,0.108,0.244V531.744z"/>
	<rect x="75.17" y="523.6" class="st3" width="2.276" height="8.375"/>
	<path class="st5" d="M41.447,508.711c-0.076-0.126-0.154-0.253-0.23-0.379c-0.074-0.127-0.132-0.254-0.208-0.381l-0.017,0.01
		c-2.581-4.253-5.35-8.593-7.647-11.848c4.211-3.633,13.573-11.922,11.419-26.225c-0.875-5.817-4.296-10.954-9.386-14.094
		c-5.557-3.428-12.505-4.047-19.562-1.737C1.302,458.802,2.39,476.87,2.444,477.637l7.98-0.557
		c-0.008-0.125-0.775-12.591,7.877-15.42c6.133-2.005,10.387-0.595,12.876,0.942c3.037,1.873,5.159,5.042,5.676,8.477
		c1.355,9.004-3.48,14.365-8.348,18.636c-2.056-2.518-4.083-4.743-6.137-6.735l-5.572,5.74c1.892,1.836,3.772,3.909,5.693,6.275
		c-7.077,6.458-15.146,15.241-15.126,24.453c0.01,4.687,2.069,8.816,6.123,12.276c3.767,3.216,8.244,4.832,12.656,4.832
		c4.149-0.001,8.242-1.431,11.629-4.303c5.738-4.867,8.978-13.961,3.658-23.534L41.447,508.711z M32.597,526.153
		c-3.081,2.613-8.575,4.048-13.917-0.512c-2.258-1.928-3.313-3.9-3.317-6.209c-0.012-5.775,6.357-12.771,11.954-17.986
		c2.113,3.036,4.637,7.018,7.012,10.948C37.822,518.481,35.611,523.597,32.597,526.153z"/>
	<rect y="476.6" class="st0" width="13.083" height="2.833"/>
	<polygon class="st3" points="132.459,167.619 132.459,170.953 130.042,173.703 127.959,173.703 127.668,173.703 125.585,173.703 
		123.168,170.953 123.168,167.619 123.168,167.473 123.168,164.14 125.585,161.39 127.668,161.39 127.959,161.39 130.042,161.39 
		132.459,164.14 132.459,167.473 	"/>
	<line class="st3" x1="56.917" y1="174.975" x2="56.917" y2="185.558"/>
	<line class="st3" x1="61.312" y1="174.975" x2="61.312" y2="185.558"/>
	<line class="st3" x1="74.688" y1="174.975" x2="74.688" y2="185.558"/>
	<polyline class="st3" points="87.646,185.558 43.333,185.558 43.333,174.892 106.167,174.892 106.167,185.558 87.25,185.558 	"/>
	<rect x="54.917" y="111.658" class="st3" width="41.208" height="56.067"/>
	<line class="st3" x1="114.841" y1="269.517" x2="107.583" y2="269.517"/>
	<polyline class="st2" points="54.993,623.808 71.372,640.267 78.795,640.267 95.071,623.913 	"/>
	<path class="st2" d="M76.896,759.388h-3.804c-2.784,0-5.062,2.278-5.062,5.062l0,0c0,2.784,2.278,5.062,5.062,5.062h3.804
		c2.784,0,5.062-2.278,5.062-5.062l0,0C81.958,761.667,79.68,759.388,76.896,759.388z"/>
	<polygon class="st3" points="35.435,735.301 31.64,735.313 31.637,736.238 35.432,736.226 	"/>
	<polygon class="st3" points="35.438,734.386 31.643,734.398 31.64,735.324 35.435,735.312 	"/>
	<polygon class="st3" points="35.441,733.429 31.646,733.441 31.643,734.366 35.438,734.354 	"/>
	<line class="st3" x1="31.646" y1="733.451" x2="35.441" y2="733.439"/>
	<polygon class="st3" points="35.445,732.44 31.649,732.452 31.646,733.377 35.442,733.365 	"/>
	<polygon class="st3" points="35.447,731.524 31.652,731.536 31.649,732.462 35.444,732.45 	"/>
	<polygon class="st3" points="35.451,730.568 31.655,728.204 31.652,731.505 35.448,731.493 	"/>
	<line class="st3" x1="31.655" y1="730.59" x2="35.451" y2="730.578"/>
	<line class="st3" x1="31.655" y1="729.662" x2="33.88" y2="729.65"/>
	<line class="st3" x1="31.686" y1="728.852" x2="32.693" y2="728.84"/>
	<polygon class="st3" points="114.044,735.135 117.84,735.147 117.843,736.071 114.047,736.059 	"/>
	<polygon class="st3" points="114.041,734.219 117.837,734.231 117.84,735.157 114.044,735.145 	"/>
	<polygon class="st3" points="114.038,733.262 117.834,733.274 117.837,734.199 114.041,734.187 	"/>
	<line class="st3" x1="117.834" y1="733.285" x2="114.038" y2="733.272"/>
	<polygon class="st3" points="114.035,732.273 117.83,732.285 117.833,733.21 114.038,733.198 	"/>
	<polygon class="st3" points="114.032,731.357 117.827,731.369 117.83,732.295 114.035,732.283 	"/>
	<polygon class="st3" points="114.029,730.401 117.824,728.038 117.827,731.338 114.032,731.326 	"/>
	<line class="st3" x1="117.824" y1="730.423" x2="114.029" y2="730.411"/>
	<line class="st3" x1="117.824" y1="729.495" x2="115.599" y2="729.483"/>
	<line class="st3" x1="117.793" y1="728.685" x2="116.786" y2="728.673"/>
	<path class="st3" d="M112.538,610.541c-1.164-2.111-1.745-3.166-2.909-5.277c-0.325,0.177-0.488,0.265-0.813,0.441
		c1.164,2.111,1.745,3.166,2.909,5.277C112.05,610.806,112.213,610.717,112.538,610.541z"/>
	<path class="st3" d="M113.343,610.104c-1.164-2.111-1.745-3.166-2.909-5.277c-0.326,0.177-0.488,0.265-0.814,0.442
		c1.164,2.111,1.745,3.166,2.909,5.277C112.855,610.369,113.017,610.281,113.343,610.104z"/>
	<path class="st3" d="M114.183,609.647c-1.164-2.111-1.745-3.166-2.909-5.277c-0.325,0.177-0.488,0.265-0.813,0.441
		c1.164,2.111,1.745,3.166,2.909,5.277C113.696,609.912,113.858,609.824,114.183,609.647z"/>
	<path class="st3" d="M111.265,604.375c1.164,2.111,1.745,3.166,2.909,5.277"/>
	<path class="st3" d="M115.053,609.175c-1.164-2.111-1.745-3.166-2.909-5.277c-0.325,0.177-0.488,0.265-0.813,0.441
		c1.164,2.111,1.745,3.166,2.909,5.277C114.565,609.44,114.728,609.352,115.053,609.175z"/>
	<path class="st3" d="M115.857,608.738c-1.164-2.111-1.745-3.166-2.909-5.277c-0.326,0.177-0.488,0.265-0.814,0.442
		c1.164,2.111,1.745,3.166,2.909,5.277C115.369,609.003,115.532,608.915,115.857,608.738z"/>
	<path class="st3" d="M116.698,608.282c-0.516-2.474-0.774-3.712-1.291-6.186c-0.972,0.54-1.459,0.81-2.431,1.35
		c1.164,2.111,1.745,3.166,2.909,5.277C116.21,608.547,116.373,608.458,116.698,608.282z"/>
	<path class="st3" d="M113.78,603.01c1.164,2.111,1.745,3.166,2.909,5.277"/>
	<path class="st3" d="M114.593,602.563c0.594,1.076,0.891,1.613,1.486,2.689"/>
	<path class="st3" d="M37.565,610.4c1.054-2.167,1.581-3.251,2.636-5.419c0.334,0.16,0.501,0.24,0.834,0.399
		c-1.054,2.167-1.581,3.251-2.636,5.419C38.065,610.639,37.898,610.559,37.565,610.4z"/>
	<path class="st3" d="M36.739,610.004c1.054-2.168,1.581-3.251,2.636-5.419c0.334,0.16,0.501,0.24,0.835,0.4
		c-1.054,2.167-1.581,3.251-2.635,5.419C37.24,610.244,37.073,610.164,36.739,610.004z"/>
	<path class="st3" d="M35.876,609.591c1.054-2.167,1.581-3.251,2.636-5.419c0.334,0.16,0.501,0.24,0.834,0.399
		c-1.054,2.167-1.581,3.251-2.635,5.419C36.377,609.831,36.21,609.751,35.876,609.591z"/>
	<path class="st3" d="M38.521,604.177c-1.054,2.167-1.581,3.251-2.636,5.419"/>
	<path class="st3" d="M34.984,609.164c1.054-2.168,1.581-3.251,2.635-5.419c0.334,0.16,0.501,0.24,0.834,0.399
		c-1.054,2.167-1.581,3.251-2.635,5.419C35.484,609.404,35.317,609.324,34.984,609.164z"/>
	<path class="st3" d="M34.158,608.769c1.054-2.167,1.581-3.251,2.635-5.419c0.334,0.16,0.501,0.24,0.835,0.4
		c-1.054,2.167-1.581,3.251-2.636,5.419C34.659,609.009,34.492,608.929,34.158,608.769z"/>
	<path class="st3" d="M33.295,608.356c0.389-2.497,0.584-3.746,0.973-6.244c0.999,0.49,1.498,0.735,2.497,1.224
		c-1.054,2.167-1.581,3.251-2.635,5.419C33.796,608.596,33.629,608.516,33.295,608.356z"/>
	<path class="st3" d="M35.94,602.942c-1.054,2.167-1.581,3.251-2.636,5.419"/>
	<path class="st3" d="M35.105,602.537c-0.539,1.105-0.808,1.657-1.346,2.761"/>
	<path class="st2" d="M128.533,269.683c0,0,1.551,11.625,7.551,16.375c-0.75,4.25-3.75,11.5,0,16.75c-6.75-4.75-16.5-3.75-21,1.75"
		/>
	<path class="st2" d="M35.083,286.308c0,0-16.5,0-22.5,0c4.75,3.25,3.25,15,0,17.75c5.75-3.75,15.25-6.5,21.25-1.25
		C30.333,297.558,32.583,287.558,35.083,286.308"/>
	<path class="st3" d="M21.278,19.392c0,0,1.806-1.667,4.639-3.167c7.575-4.011,22.667-7,27.5-7v7.667H74.75"/>
	<path class="st3" d="M128.583,19.392c0,0-1.823-1.667-4.682-3.167c-7.646-4.011-22.879-7-27.757-7v7.667H74.611"/>
	<polyline class="st3" points="106.417,84.225 106.417,102.159 128.583,102.159 	"/>
	<rect x="41.556" y="345.204" class="st2" width="66.667" height="3.167"/>
	<rect x="41.556" y="343.037" class="st2" width="66.667" height="2.186"/>
	<line class="st2" x1="49.722" y1="345.037" x2="49.722" y2="348.204"/>
	<line class="st2" x1="99.556" y1="345.037" x2="99.556" y2="348.204"/>
	<rect x="87.613" y="174.911" class="st3" width="9.324" height="18.868"/>
	<polyline class="st3" points="87.922,185.06 96.795,174.907 88.011,174.911 96.89,185.058 	"/>
	<line class="st3" x1="43.208" y1="176.058" x2="43.208" y2="100.058"/>
	<path class="st3" d="M96.017,84.391V30.388c0,0-7.274-4.663-21.041-4.663h-0.293c-13.767,0-21.041,4.663-21.041,4.663l0.107,53.997
		l-10.583,0.007v19.333h52.851v-8.676"/>
	<line class="st3" x1="42.917" y1="114.225" x2="21.583" y2="114.225"/>
	<polyline class="st3" points="96,95.049 70.583,95.049 70.583,84.433 	"/>
	<rect x="74.673" y="84.485" class="st3" width="0.751" height="10.436"/>
	<rect x="75.416" y="84.485" class="st3" width="0.751" height="10.436"/>
	<rect x="73.227" y="84.485" class="st3" width="0.751" height="10.436"/>
	<rect x="76.985" y="84.465" class="st3" width="0.751" height="10.436"/>
	<rect x="77.728" y="84.465" class="st3" width="0.751" height="10.436"/>
	<rect x="78.505" y="84.465" class="st3" width="0.751" height="10.436"/>
	<rect x="79.248" y="89.631" class="st3" width="0.751" height="5.27"/>
	<rect x="80.769" y="89.997" class="st3" width="0.751" height="4.905"/>
	<rect x="81.512" y="89.997" class="st3" width="0.751" height="4.905"/>
	<rect x="83.028" y="89.997" class="st3" width="0.751" height="4.905"/>
	<rect x="84.375" y="89.997" class="st3" width="0.751" height="4.905"/>
	<line class="st3" x1="79.309" y1="89.634" x2="81.312" y2="84.619"/>
	<path class="st3" d="M72.601,89.616c-0.109,0-0.196,0.081-0.196,0.181l0,0c0,0.1,0.087,0.181,0.196,0.181h10.07
		c0.108,0,0.196-0.081,0.196-0.181l0,0c0-0.1-0.087-0.181-0.196-0.181H72.601z"/>
	<path class="st3" d="M72.601,89.979h12.9c0.108,0,0.196-0.081,0.196-0.181l0,0c0-0.1-0.087-0.181-0.196-0.181h-12.9"/>
	<line class="st3" x1="80" y1="87.617" x2="80" y2="84.35"/>
	<line class="st3" x1="106.25" y1="84.308" x2="70.5" y2="84.308"/>
	<path class="st5" d="M33.345,496.113c0,0-3.504-4.801-4.839-6.398"/>
	<path class="st5" d="M27.317,501.446c-0.587-0.848-3.412-4.752-4.827-6.45"/>
	<path class="st1" d="M22.001,198.811h-1.068c0.315,0.086,0.691,0.147,1.212,0.147c0.521,0,0.897-0.062,1.212-0.147h-1.066H22.001z"
		/>
	<path class="st1" d="M22.146,199.86c-0.841,0-1.252-0.171-1.687-0.352c-0.263-0.11-0.541-0.217-0.894-0.294l-0.463,0.527
		c0.489,0.057,0.801,0.187,1.126,0.322c0.47,0.196,0.957,0.399,1.918,0.399c0.961,0,1.448-0.203,1.918-0.399
		c0.326-0.136,0.638-0.266,1.127-0.322l-0.463-0.527c-0.354,0.077-0.632,0.185-0.895,0.295
		C23.398,199.689,22.987,199.86,22.146,199.86z"/>
	<path class="st1" d="M23.833,201.01c-0.435,0.181-0.846,0.352-1.687,0.352c-0.841,0-1.252-0.171-1.687-0.352
		c-0.47-0.196-0.957-0.399-1.918-0.399c-0.081,0-0.141,0.009-0.215,0.012l-0.582,0.662c0.223-0.042,0.472-0.073,0.797-0.073
		c0.841,0,1.252,0.171,1.687,0.352c0.47,0.196,0.957,0.399,1.918,0.399c0.961,0,1.448-0.203,1.918-0.399
		c0.435-0.181,0.846-0.352,1.687-0.352c0.326,0,0.575,0.031,0.798,0.073l-0.582-0.662c-0.075-0.003-0.135-0.012-0.216-0.012
		C24.789,200.611,24.303,200.814,23.833,201.01z"/>
	<path class="st1" d="M23.833,202.512c-0.435,0.181-0.846,0.352-1.687,0.352c-0.841,0-1.252-0.171-1.687-0.352
		c-0.47-0.196-0.957-0.399-1.918-0.399c-0.431,0-0.758,0.044-1.04,0.107v0.616c0.272-0.072,0.594-0.122,1.04-0.122
		c0.841,0,1.252,0.171,1.687,0.352c0.47,0.196,0.957,0.399,1.918,0.399c0.961,0,1.448-0.203,1.918-0.399
		c0.435-0.181,0.846-0.352,1.687-0.352c0.447,0,0.769,0.05,1.041,0.122v-0.616c-0.282-0.063-0.609-0.107-1.041-0.107
		C24.789,202.113,24.303,202.316,23.833,202.512z"/>
	<path class="st1" d="M23.833,204.014c-0.435,0.181-0.846,0.352-1.687,0.352c-0.841,0-1.252-0.171-1.687-0.352
		c-0.47-0.196-0.957-0.399-1.918-0.399c-0.431,0-0.758,0.044-1.04,0.107v0.616c0.272-0.072,0.594-0.122,1.04-0.122
		c0.841,0,1.252,0.171,1.687,0.352c0.47,0.196,0.957,0.399,1.918,0.399c0.961,0,1.448-0.203,1.918-0.399
		c0.435-0.181,0.846-0.352,1.687-0.352c0.447,0,0.769,0.05,1.041,0.122v-0.616c-0.282-0.063-0.609-0.107-1.041-0.107
		C24.789,203.615,24.303,203.818,23.833,204.014z"/>
	<path class="st1" d="M23.833,205.516c-0.435,0.181-0.846,0.352-1.687,0.352c-0.841,0-1.252-0.171-1.687-0.352
		c-0.47-0.196-0.957-0.399-1.918-0.399c-0.431,0-0.758,0.044-1.04,0.107v0.616c0.272-0.072,0.594-0.122,1.04-0.122
		c0.841,0,1.252,0.171,1.687,0.352c0.47,0.196,0.957,0.399,1.918,0.399c0.961,0,1.448-0.203,1.918-0.399
		c0.435-0.181,0.846-0.352,1.687-0.352c0.447,0,0.769,0.05,1.041,0.122v-0.616c-0.282-0.063-0.609-0.107-1.041-0.107
		C24.789,205.118,24.303,205.32,23.833,205.516z"/>
	<path class="st1" d="M23.833,207.019c-0.435,0.181-0.846,0.352-1.687,0.352c-0.841,0-1.252-0.171-1.687-0.352
		c-0.47-0.196-0.957-0.399-1.918-0.399c-0.431,0-0.758,0.044-1.04,0.107v0.616c0.272-0.072,0.594-0.122,1.04-0.122
		c0.841,0,1.252,0.171,1.687,0.352c0.47,0.196,0.957,0.399,1.918,0.399c0.961,0,1.448-0.203,1.918-0.399
		c0.435-0.181,0.846-0.352,1.687-0.352c0.447,0,0.769,0.05,1.041,0.122v-0.616c-0.282-0.063-0.609-0.107-1.041-0.107
		C24.789,206.62,24.303,206.823,23.833,207.019z"/>
	<path class="st1" d="M23.833,208.521c-0.435,0.181-0.846,0.352-1.687,0.352c-0.841,0-1.252-0.171-1.687-0.352
		c-0.47-0.196-0.957-0.399-1.918-0.399c-0.431,0-0.758,0.044-1.04,0.107v0.144l0.353,0.402c0.198-0.03,0.414-0.053,0.686-0.053
		c0.841,0,1.252,0.171,1.687,0.352c0.47,0.196,0.957,0.399,1.918,0.399c0.961,0,1.448-0.203,1.918-0.399
		c0.435-0.181,0.846-0.352,1.687-0.352c0.273,0,0.49,0.022,0.687,0.053l0.353-0.402v-0.144c-0.282-0.063-0.609-0.107-1.041-0.107
		C24.789,208.122,24.303,208.325,23.833,208.521z"/>
	<path class="st1" d="M22.146,210.375c-0.841,0-1.252-0.171-1.687-0.352c-0.459-0.191-0.94-0.386-1.856-0.395l0.562,0.639
		c0.449,0.061,0.753,0.182,1.063,0.311c0.47,0.196,0.957,0.399,1.918,0.399c0.961,0,1.448-0.203,1.918-0.399
		c0.31-0.129,0.614-0.25,1.064-0.311l0.561-0.639c-0.917,0.009-1.398,0.204-1.857,0.395
		C23.398,210.204,22.987,210.375,22.146,210.375z"/>
	<polygon class="st3" points="26.792,205.035 26.792,208.368 24.375,211.118 22.292,211.118 22.001,211.118 19.917,211.118 
		17.501,208.368 17.501,205.035 17.501,204.889 17.501,201.555 19.917,198.805 22.001,198.805 22.292,198.805 24.375,198.805 
		26.792,201.555 26.792,204.889 	"/>
	<path class="st1" d="M127.668,42.56h-1.068c0.315,0.086,0.691,0.147,1.212,0.147c0.521,0,0.897-0.062,1.212-0.147h-1.066H127.668z"
		/>
	<path class="st1" d="M127.813,43.608c-0.841,0-1.252-0.171-1.687-0.352c-0.263-0.11-0.541-0.217-0.894-0.294l-0.463,0.527
		c0.489,0.057,0.801,0.187,1.126,0.322c0.47,0.196,0.957,0.399,1.918,0.399c0.961,0,1.448-0.203,1.918-0.399
		c0.326-0.136,0.638-0.266,1.127-0.322l-0.463-0.527c-0.354,0.077-0.632,0.185-0.895,0.295
		C129.065,43.437,128.654,43.608,127.813,43.608z"/>
	<path class="st1" d="M129.5,44.758c-0.435,0.181-0.846,0.352-1.687,0.352c-0.841,0-1.252-0.171-1.687-0.352
		c-0.47-0.196-0.957-0.399-1.918-0.399c-0.081,0-0.141,0.009-0.215,0.012l-0.582,0.662c0.223-0.042,0.472-0.073,0.797-0.073
		c0.841,0,1.252,0.171,1.687,0.352c0.47,0.196,0.957,0.399,1.918,0.399c0.961,0,1.448-0.203,1.918-0.399
		c0.435-0.181,0.846-0.352,1.687-0.352c0.326,0,0.575,0.031,0.798,0.073l-0.582-0.662c-0.075-0.003-0.135-0.012-0.216-0.012
		C130.457,44.359,129.971,44.562,129.5,44.758z"/>
	<path class="st1" d="M129.5,46.26c-0.435,0.181-0.846,0.352-1.687,0.352c-0.841,0-1.252-0.171-1.687-0.352
		c-0.47-0.196-0.957-0.399-1.918-0.399c-0.431,0-0.758,0.044-1.04,0.107v0.616c0.272-0.072,0.594-0.122,1.04-0.122
		c0.841,0,1.252,0.171,1.687,0.352c0.47,0.196,0.957,0.399,1.918,0.399c0.961,0,1.448-0.203,1.918-0.399
		c0.435-0.181,0.846-0.352,1.687-0.352c0.447,0,0.769,0.05,1.041,0.122v-0.616c-0.282-0.063-0.609-0.107-1.041-0.107
		C130.457,45.862,129.971,46.064,129.5,46.26z"/>
	<path class="st1" d="M129.5,47.762c-0.435,0.181-0.846,0.352-1.687,0.352c-0.841,0-1.252-0.171-1.687-0.352
		c-0.47-0.196-0.957-0.399-1.918-0.399c-0.431,0-0.758,0.044-1.04,0.107v0.616c0.272-0.072,0.594-0.122,1.04-0.122
		c0.841,0,1.252,0.171,1.687,0.352c0.47,0.196,0.957,0.399,1.918,0.399c0.961,0,1.448-0.203,1.918-0.399
		c0.435-0.181,0.846-0.352,1.687-0.352c0.447,0,0.769,0.05,1.041,0.122v-0.616c-0.282-0.063-0.609-0.107-1.041-0.107
		C130.457,47.364,129.971,47.567,129.5,47.762z"/>
	<path class="st1" d="M129.5,49.265c-0.435,0.181-0.846,0.352-1.687,0.352c-0.841,0-1.252-0.171-1.687-0.352
		c-0.47-0.196-0.957-0.399-1.918-0.399c-0.431,0-0.758,0.044-1.04,0.107v0.616c0.272-0.072,0.594-0.122,1.04-0.122
		c0.841,0,1.252,0.171,1.687,0.352c0.47,0.196,0.957,0.399,1.918,0.399c0.961,0,1.448-0.203,1.918-0.399
		c0.435-0.181,0.846-0.352,1.687-0.352c0.447,0,0.769,0.05,1.041,0.122v-0.616c-0.282-0.063-0.609-0.107-1.041-0.107
		C130.457,48.866,129.971,49.069,129.5,49.265z"/>
	<path class="st1" d="M129.5,50.767c-0.435,0.181-0.846,0.352-1.687,0.352c-0.841,0-1.252-0.171-1.687-0.352
		c-0.47-0.196-0.957-0.399-1.918-0.399c-0.431,0-0.758,0.044-1.04,0.107v0.616c0.272-0.072,0.594-0.122,1.04-0.122
		c0.841,0,1.252,0.171,1.687,0.352c0.47,0.196,0.957,0.399,1.918,0.399c0.961,0,1.448-0.203,1.918-0.399
		c0.435-0.181,0.846-0.352,1.687-0.352c0.447,0,0.769,0.05,1.041,0.122v-0.616c-0.282-0.063-0.609-0.107-1.041-0.107
		C130.457,50.368,129.971,50.571,129.5,50.767z"/>
	<path class="st1" d="M129.5,52.269c-0.435,0.181-0.846,0.352-1.687,0.352c-0.841,0-1.252-0.171-1.687-0.352
		c-0.47-0.196-0.957-0.399-1.918-0.399c-0.431,0-0.758,0.044-1.04,0.107v0.144l0.353,0.402c0.198-0.03,0.414-0.053,0.686-0.053
		c0.841,0,1.252,0.171,1.687,0.352c0.47,0.196,0.957,0.399,1.918,0.399c0.961,0,1.448-0.203,1.918-0.399
		c0.435-0.181,0.846-0.352,1.687-0.352c0.273,0,0.49,0.022,0.687,0.053l0.353-0.402v-0.144c-0.282-0.063-0.609-0.107-1.041-0.107
		C130.457,51.871,129.971,52.073,129.5,52.269z"/>
	<path class="st1" d="M127.813,54.124c-0.841,0-1.252-0.171-1.687-0.352c-0.459-0.191-0.94-0.386-1.856-0.395l0.562,0.639
		c0.449,0.061,0.753,0.182,1.063,0.311c0.47,0.196,0.957,0.399,1.918,0.399c0.961,0,1.448-0.203,1.918-0.399
		c0.31-0.129,0.614-0.25,1.064-0.311l0.561-0.639c-0.917,0.009-1.398,0.204-1.857,0.395
		C129.065,53.953,128.654,54.124,127.813,54.124z"/>
	<polygon class="st3" points="132.459,48.783 132.459,52.116 130.042,54.866 127.959,54.866 127.668,54.866 125.585,54.866 
		123.168,52.116 123.168,48.783 123.168,48.637 123.168,45.304 125.585,42.554 127.668,42.554 127.959,42.554 130.042,42.554 
		132.459,45.304 132.459,48.637 	"/>
	<path class="st9" d="M24.064,46.812c-0.47,0.196-0.957,0.399-1.918,0.399c-0.961,0-1.448-0.203-1.918-0.399
		c-0.435-0.181-0.846-0.352-1.687-0.352c-0.446,0-0.768,0.05-1.04,0.122v0.887c0.282-0.063,0.608-0.107,1.04-0.107
		c0.961,0,1.448,0.203,1.918,0.399c0.435,0.181,0.846,0.352,1.687,0.352c0.841,0,1.252-0.171,1.687-0.352
		c0.47-0.196,0.957-0.399,1.918-0.399c0.432,0,0.759,0.044,1.041,0.107v-0.886c-0.272-0.072-0.594-0.122-1.041-0.122
		C24.91,46.46,24.499,46.631,24.064,46.812z"/>
	<path class="st9" d="M24.064,45.31c-0.47,0.196-0.957,0.399-1.918,0.399c-0.961,0-1.448-0.203-1.918-0.399
		c-0.435-0.181-0.846-0.352-1.687-0.352c-0.325,0-0.574,0.031-0.797,0.073l-0.243,0.277v0.659c0.282-0.063,0.608-0.107,1.04-0.107
		c0.961,0,1.448,0.203,1.918,0.399c0.435,0.181,0.846,0.352,1.687,0.352c0.841,0,1.252-0.171,1.687-0.352
		c0.47-0.196,0.957-0.399,1.918-0.399c0.432,0,0.759,0.044,1.041,0.107v-0.659l-0.243-0.277c-0.223-0.042-0.472-0.073-0.798-0.073
		C24.91,44.957,24.499,45.129,24.064,45.31z"/>
	<path class="st9" d="M24.064,48.314c-0.47,0.196-0.957,0.399-1.918,0.399c-0.961,0-1.448-0.203-1.918-0.399
		c-0.435-0.181-0.846-0.352-1.687-0.352c-0.446,0-0.768,0.05-1.04,0.122v0.556v0.146v0.184c0.282-0.063,0.608-0.107,1.04-0.107
		c0.961,0,1.448,0.203,1.918,0.399c0.435,0.181,0.846,0.352,1.687,0.352c0.841,0,1.252-0.171,1.687-0.352
		c0.47-0.196,0.957-0.399,1.918-0.399c0.432,0,0.759,0.044,1.041,0.107v-0.185V48.64v-0.556c-0.272-0.072-0.594-0.122-1.041-0.122
		C24.91,47.962,24.499,48.133,24.064,48.314z"/>
	<path class="st9" d="M22.146,44.206c-0.961,0-1.448-0.203-1.918-0.399c-0.325-0.136-0.638-0.265-1.126-0.322l-0.776,0.883
		c0.074-0.003,0.134-0.012,0.215-0.012c0.961,0,1.448,0.203,1.918,0.399c0.435,0.181,0.846,0.352,1.687,0.352
		c0.841,0,1.252-0.171,1.687-0.352c0.47-0.196,0.957-0.399,1.918-0.399c0.081,0,0.141,0.009,0.216,0.012l-0.776-0.883
		c-0.489,0.057-0.802,0.187-1.127,0.322C23.593,44.004,23.107,44.206,22.146,44.206z"/>
	<path class="st9" d="M20.933,42.557h-1.016l-0.353,0.402c0.353,0.077,0.631,0.185,0.894,0.294c0.435,0.181,0.846,0.352,1.687,0.352
		c0.841,0,1.252-0.171,1.687-0.352c0.263-0.11,0.542-0.217,0.895-0.295l-0.353-0.402h-1.017c-0.315,0.086-0.691,0.147-1.212,0.147
		C21.625,42.704,21.248,42.642,20.933,42.557z"/>
	<path class="st9" d="M22.146,54.722c-0.961,0-1.448-0.203-1.918-0.399c-0.31-0.129-0.614-0.25-1.063-0.311l0.753,0.857h2.083h0.291
		h2.083l0.753-0.857c-0.45,0.061-0.754,0.182-1.064,0.311C23.593,54.519,23.107,54.722,22.146,54.722z"/>
	<path class="st9" d="M24.064,51.319c-0.47,0.196-0.957,0.399-1.918,0.399c-0.961,0-1.448-0.203-1.918-0.399
		c-0.435-0.181-0.846-0.352-1.687-0.352c-0.446,0-0.768,0.05-1.04,0.122v0.887c0.282-0.063,0.608-0.107,1.04-0.107
		c0.961,0,1.448,0.203,1.918,0.399c0.435,0.181,0.846,0.352,1.687,0.352c0.841,0,1.252-0.171,1.687-0.352
		c0.47-0.196,0.957-0.399,1.918-0.399c0.432,0,0.759,0.044,1.041,0.107v-0.886c-0.272-0.072-0.594-0.122-1.041-0.122
		C24.91,50.966,24.499,51.138,24.064,51.319z"/>
	<path class="st9" d="M24.064,52.821c-0.47,0.196-0.957,0.399-1.918,0.399c-0.961,0-1.448-0.203-1.918-0.399
		c-0.435-0.181-0.846-0.352-1.687-0.352c-0.272,0-0.489,0.022-0.686,0.053l0.749,0.852c0.916,0.01,1.397,0.204,1.856,0.395
		c0.435,0.181,0.846,0.352,1.687,0.352c0.841,0,1.252-0.171,1.687-0.352c0.459-0.191,0.94-0.386,1.857-0.395l0.749-0.852
		c-0.198-0.03-0.415-0.053-0.687-0.053C24.91,52.469,24.499,52.64,24.064,52.821z"/>
	<path class="st9" d="M24.064,49.817c-0.47,0.196-0.957,0.399-1.918,0.399c-0.961,0-1.448-0.203-1.918-0.399
		c-0.435-0.181-0.846-0.352-1.687-0.352c-0.446,0-0.768,0.05-1.04,0.122v0.887c0.282-0.063,0.608-0.107,1.04-0.107
		c0.961,0,1.448,0.203,1.918,0.399c0.435,0.181,0.846,0.352,1.687,0.352c0.841,0,1.252-0.171,1.687-0.352
		c0.47-0.196,0.957-0.399,1.918-0.399c0.432,0,0.759,0.044,1.041,0.107v-0.886c-0.272-0.072-0.594-0.122-1.041-0.122
		C24.91,49.464,24.499,49.635,24.064,49.817z"/>
	<path class="st1" d="M22.001,42.557h-1.068c0.315,0.086,0.691,0.147,1.212,0.147c0.521,0,0.897-0.062,1.212-0.147h-1.066H22.001z"
		/>
	<path class="st1" d="M22.146,43.605c-0.841,0-1.252-0.171-1.687-0.352c-0.263-0.11-0.541-0.217-0.894-0.294l-0.463,0.527
		c0.489,0.057,0.801,0.187,1.126,0.322c0.47,0.196,0.957,0.399,1.918,0.399c0.961,0,1.448-0.203,1.918-0.399
		c0.326-0.136,0.638-0.266,1.127-0.322l-0.463-0.527c-0.354,0.077-0.632,0.185-0.895,0.295
		C23.398,43.434,22.987,43.605,22.146,43.605z"/>
	<path class="st1" d="M23.833,44.755c-0.435,0.181-0.846,0.352-1.687,0.352c-0.841,0-1.252-0.171-1.687-0.352
		c-0.47-0.196-0.957-0.399-1.918-0.399c-0.081,0-0.141,0.009-0.215,0.012l-0.582,0.662c0.223-0.042,0.472-0.073,0.797-0.073
		c0.841,0,1.252,0.171,1.687,0.352c0.47,0.196,0.957,0.399,1.918,0.399c0.961,0,1.448-0.203,1.918-0.399
		c0.435-0.181,0.846-0.352,1.687-0.352c0.326,0,0.575,0.031,0.798,0.073l-0.582-0.662c-0.075-0.003-0.135-0.012-0.216-0.012
		C24.789,44.357,24.303,44.559,23.833,44.755z"/>
	<path class="st1" d="M23.833,46.257c-0.435,0.181-0.846,0.352-1.687,0.352c-0.841,0-1.252-0.171-1.687-0.352
		c-0.47-0.196-0.957-0.399-1.918-0.399c-0.431,0-0.758,0.044-1.04,0.107v0.616c0.272-0.072,0.594-0.122,1.04-0.122
		c0.841,0,1.252,0.171,1.687,0.352c0.47,0.196,0.957,0.399,1.918,0.399c0.961,0,1.448-0.203,1.918-0.399
		c0.435-0.181,0.846-0.352,1.687-0.352c0.447,0,0.769,0.05,1.041,0.122v-0.616c-0.282-0.063-0.609-0.107-1.041-0.107
		C24.789,45.859,24.303,46.061,23.833,46.257z"/>
	<path class="st1" d="M23.833,47.76c-0.435,0.181-0.846,0.352-1.687,0.352c-0.841,0-1.252-0.171-1.687-0.352
		c-0.47-0.196-0.957-0.399-1.918-0.399c-0.431,0-0.758,0.044-1.04,0.107v0.616c0.272-0.072,0.594-0.122,1.04-0.122
		c0.841,0,1.252,0.171,1.687,0.352c0.47,0.196,0.957,0.399,1.918,0.399c0.961,0,1.448-0.203,1.918-0.399
		c0.435-0.181,0.846-0.352,1.687-0.352c0.447,0,0.769,0.05,1.041,0.122v-0.616c-0.282-0.063-0.609-0.107-1.041-0.107
		C24.789,47.361,24.303,47.564,23.833,47.76z"/>
	<path class="st1" d="M23.833,49.262c-0.435,0.181-0.846,0.352-1.687,0.352c-0.841,0-1.252-0.171-1.687-0.352
		c-0.47-0.196-0.957-0.399-1.918-0.399c-0.431,0-0.758,0.044-1.04,0.107v0.616c0.272-0.072,0.594-0.122,1.04-0.122
		c0.841,0,1.252,0.171,1.687,0.352c0.47,0.196,0.957,0.399,1.918,0.399c0.961,0,1.448-0.203,1.918-0.399
		c0.435-0.181,0.846-0.352,1.687-0.352c0.447,0,0.769,0.05,1.041,0.122V48.97c-0.282-0.063-0.609-0.107-1.041-0.107
		C24.789,48.863,24.303,49.066,23.833,49.262z"/>
	<path class="st1" d="M23.833,50.764c-0.435,0.181-0.846,0.352-1.687,0.352c-0.841,0-1.252-0.171-1.687-0.352
		c-0.47-0.196-0.957-0.399-1.918-0.399c-0.431,0-0.758,0.044-1.04,0.107v0.616c0.272-0.072,0.594-0.122,1.04-0.122
		c0.841,0,1.252,0.171,1.687,0.352c0.47,0.196,0.957,0.399,1.918,0.399c0.961,0,1.448-0.203,1.918-0.399
		c0.435-0.181,0.846-0.352,1.687-0.352c0.447,0,0.769,0.05,1.041,0.122v-0.616c-0.282-0.063-0.609-0.107-1.041-0.107
		C24.789,50.365,24.303,50.568,23.833,50.764z"/>
	<path class="st1" d="M23.833,52.266c-0.435,0.181-0.846,0.352-1.687,0.352c-0.841,0-1.252-0.171-1.687-0.352
		c-0.47-0.196-0.957-0.399-1.918-0.399c-0.431,0-0.758,0.044-1.04,0.107v0.144l0.353,0.402c0.198-0.03,0.414-0.053,0.686-0.053
		c0.841,0,1.252,0.171,1.687,0.352c0.47,0.196,0.957,0.399,1.918,0.399c0.961,0,1.448-0.203,1.918-0.399
		c0.435-0.181,0.846-0.352,1.687-0.352c0.273,0,0.49,0.022,0.687,0.053l0.353-0.402v-0.144c-0.282-0.063-0.609-0.107-1.041-0.107
		C24.789,51.868,24.303,52.07,23.833,52.266z"/>
	<path class="st1" d="M22.146,54.121c-0.841,0-1.252-0.171-1.687-0.352c-0.459-0.191-0.94-0.386-1.856-0.395l0.562,0.639
		c0.449,0.061,0.753,0.182,1.063,0.311c0.47,0.196,0.957,0.399,1.918,0.399c0.961,0,1.448-0.203,1.918-0.399
		c0.31-0.129,0.614-0.25,1.064-0.311l0.561-0.639c-0.917,0.009-1.398,0.204-1.857,0.395C23.398,53.95,22.987,54.121,22.146,54.121z"
		/>
	<polygon class="st3" points="26.792,48.78 26.792,52.114 24.375,54.864 22.292,54.864 22.001,54.864 19.917,54.864 17.501,52.114 
		17.501,48.78 17.501,48.634 17.501,45.301 19.917,42.551 22.001,42.551 22.292,42.551 24.375,42.551 26.792,45.301 26.792,48.634 	
		"/>
	<rect x="67.417" y="764.892" class="st3" width="15.417" height="14.333"/>
	<line class="st3" x1="72.083" y1="210.058" x2="72" y2="197.808"/>
	<line class="st3" x1="73.083" y1="199.1" x2="73" y2="185.433"/>
	<path class="st3" d="M131.583,590.121c0,0.932-0.756,1.688-1.688,1.688c-0.932,0-1.687-0.756-1.687-1.688
		c0-0.932,0.756-1.688,1.687-1.688C130.828,588.433,131.583,589.189,131.583,590.121z"/>
	<circle class="st2" cx="129.896" cy="590.121" r="6.451"/>
	<path class="st3" d="M126.292,595.538l2.583-4.062l0.542,0.333l-1.458,4.583l1.937,0.181v-4.764c0,0,0.604,0.042,1.438-0.812
		c0.458,0.25,4.292,2.062,4.292,2.062l0.583-1.458l-4.75-0.979l0.125-0.479l4.764-0.021l-0.181-1.521l-4.625,1.208l-0.104-0.458
		l4.229-2.083l-0.896-1.229l-3.542,2.917l-0.417-0.229l2.938-3.667l-1.292-0.75l-2,4.208l-0.292-0.083l0.667-4.625l-1.667,0.083
		l0.521,4.562l-0.271,0.125l-1.625-4.354l-1.375,0.667l2.583,3.833l-0.354,0.333l-3.479-3.208"/>
	<polyline class="st3" points="47.755,302.48 41.787,302.481 41.833,336.725 107.583,336.725 107.583,269.558 95.833,269.558 
		95.833,218.808 42.208,218.683 41.833,268.558 41.833,298.1 52.417,298.1 52.417,302.475 46.625,302.475 46.667,298.1 	"/>
	<rect x="81.833" y="746.933" class="st2" width="18.187" height="10.625"/>
	<rect x="49.958" y="746.933" class="st2" width="18.187" height="10.625"/>
	<path class="st3" d="M87.208,209.91c-6.938,0-31.175,0-36.688,0c-8.625,0-8.312,8.836-8.312,8.836l53.625,0.062
		C95.833,218.808,96.458,209.91,87.208,209.91z"/>
	<polygon class="st2" points="50.115,610.233 41.146,605.246 38.281,611.117 51.355,623.892 98.647,623.892 111.885,611.28 
		108.612,605.468 99.887,610.233 	"/>
	<line class="st3" x1="52.23" y1="298.559" x2="46.82" y2="302.065"/>
	<line class="st3" x1="52.197" y1="302.107" x2="46.853" y2="298.518"/>
	<path class="st2" d="M74.753,702.725c-2.088,0-4.32-1.229-4.32-3.608c0-3.643,2.889-5.404,2.889-14.446V659.6
		c0-12.681-10.075-21.057-23.704-34.383c-2.922-2.857-6.234-6.096-9.897-9.789c-4.34-4.373-12.324-11.768-23.219-0.787
		c-5.365,5.408-6.93,14.325,0.736,22.054c2.86,2.882,5.373,5.369,7.579,7.551c11.589,11.468,13.4,12.579,13.4,16.979v39.833
		c0,3.25-3.571,3.375-3.571,0v-16.333l-14.792,1.5v17.166c0,8.79,5.347,15.881,15.958,15.881c4.38,0,8.101-1.082,11.434-3.806
		c2.538-2.075,5.205-5.423,5.205-12.075l0.062-41.166c0-13.667-5.353-16.438-16.89-28.065c-2.157-2.174-3.055-2.934-5.877-5.778
		c-1.148-1.157-0.238-2.198,1.188-1.198c4.409,3.091,6.251,4.613,9.168,7.553c9.962,10.041,13.238,19.026,13.238,25.072v33.333
		c0,16.084,2.825,20.693,7.691,24.498c4.132,3.231,8.486,4.669,13.723,4.669h0.661c5.238,0,9.591-1.438,13.723-4.669
		c4.866-3.805,7.691-8.414,7.691-24.498v-33.333c0-6.046,3.276-15.031,13.238-25.072c2.916-2.939,4.759-4.461,9.168-7.553
		c1.426-1,2.336,0.042,1.188,1.198c-2.822,2.845-3.72,3.604-5.877,5.778c-11.536,11.628-16.89,14.398-16.89,28.065l0.062,41.166
		c0,6.652,2.767,10.243,5.205,12.292c3.084,2.592,7.053,3.589,11.434,3.589c10.61,0,15.958-7.091,15.958-15.881v-17.25
		l-14.792-1.667v16.583c0,3.625-3.571,3.5-3.571,0v-39.833c0-4.4,1.811-5.512,13.4-16.979c2.205-2.182,4.718-4.669,7.579-7.551
		c7.667-7.729,6.102-16.646,0.736-22.054c-9.324-9.398-18.871-3.577-23.21,0.796c-3.663,3.693-6.975,6.932-9.897,9.789
		c-13.628,13.326-23.754,21.652-23.754,34.332v25.071c0,9.042,2.93,10.845,2.93,14.488c0,2.379-2.232,3.608-4.32,3.608H74.753z"/>
	<path class="st10" d="M28.621,202.571h0.975v2.318h0.848v-2.318h0.976v5.597h-0.976v-2.351h-0.848v2.351h-0.975V202.571z
		 M31.901,205.513v-0.288c0-1.847,0.6-2.734,1.487-2.734c0.887,0,1.487,0.887,1.487,2.734v0.288c0,1.847-0.6,2.734-1.487,2.734
		C32.501,208.248,31.901,207.36,31.901,205.513z M33.884,205.513v-0.288c0-1.439-0.2-1.839-0.496-1.839s-0.496,0.399-0.496,1.839
		v0.288c0,1.439,0.2,1.839,0.496,1.839S33.884,206.952,33.884,205.513z M35.717,203.498h-0.688v-0.927h2.351v0.927h-0.688v4.669
		h-0.975V203.498z M39.581,203.498h-0.688v-0.927h2.351v0.927h-0.688v4.669h-0.976V203.498z M41.637,206.537v-3.966h0.967v4.062
		c0,0.504,0.176,0.704,0.424,0.704c0.248,0,0.424-0.2,0.424-0.704v-4.062h0.967v3.966c0,1.175-0.591,1.703-1.391,1.703
		C42.229,208.239,41.637,207.712,41.637,206.537z M44.981,202.571h0.848c0.943,0,1.823,0.384,1.823,1.423v0.04
		c0,0.72-0.408,1.071-0.808,1.263c0.472,0.208,0.879,0.536,0.879,1.248v0.072c0,0.992-0.768,1.551-1.855,1.551h-0.888V202.571z
		 M45.972,204.922c0.432,0,0.719-0.248,0.719-0.736v-0.016c0-0.487-0.288-0.695-0.719-0.695h-0.016v1.447H45.972z M45.98,207.264
		c0.448,0,0.768-0.264,0.768-0.728v-0.04c0-0.464-0.32-0.728-0.768-0.728h-0.024v1.495H45.98z"/>
	<path class="st10" d="M64.741,211.821h0.848c0.943,0,1.823,0.384,1.823,1.423v0.04c0,0.72-0.408,1.071-0.808,1.263
		c0.472,0.208,0.88,0.536,0.88,1.248v0.072c0,0.992-0.768,1.551-1.855,1.551h-0.888V211.821z M65.733,214.172
		c0.432,0,0.719-0.248,0.719-0.736v-0.016c0-0.487-0.288-0.695-0.719-0.695h-0.016v1.447H65.733z M65.741,216.514
		c0.448,0,0.768-0.264,0.768-0.728v-0.04c0-0.464-0.32-0.728-0.768-0.728h-0.024v1.495H65.741z M68.637,211.805h1.04l1.063,5.613
		h-0.976l-0.184-1.111h-0.888l-0.176,1.111h-0.944L68.637,211.805z M69.436,215.427l-0.296-1.847l-0.304,1.847H69.436z
		 M71.037,211.821h1.007c1,0,1.728,0.527,1.728,1.783v0.072c0,0.728-0.288,1.191-0.656,1.472l0.752,2.271h-1.039l-0.632-1.951
		h-0.184v1.951h-0.976V211.821z M72.061,214.587c0.424,0,0.735-0.248,0.735-0.903v-0.064c0-0.704-0.336-0.888-0.76-0.888h-0.023
		v1.855H72.061z"/>
	<path class="st10" d="M49.152,177.634h1.007c1,0,1.727,0.527,1.727,1.783v0.072c0,0.728-0.288,1.191-0.656,1.472l0.751,2.271
		h-1.039l-0.632-1.951h-0.184v1.951h-0.976V177.634z M50.175,180.4c0.424,0,0.735-0.248,0.735-0.903v-0.064
		c0-0.704-0.336-0.888-0.759-0.888h-0.024v1.855H50.175z M52.335,177.634h1.008c1,0,1.727,0.527,1.727,1.783v0.072
		c0,0.728-0.288,1.191-0.656,1.472l0.751,2.271h-1.04l-0.631-1.951h-0.184v1.951h-0.976V177.634z M53.359,180.4
		c0.424,0,0.736-0.248,0.736-0.903v-0.064c0-0.704-0.336-0.888-0.76-0.888h-0.024v1.855H53.359z"/>
	<path class="st10" d="M102.579,165.035h0.976v2.318h0.847v-2.318h0.976v5.597h-0.976v-2.351h-0.847v2.351h-0.976V165.035z
		 M105.859,167.977v-0.288c0-1.847,0.601-2.734,1.487-2.734c0.888,0,1.487,0.887,1.487,2.734v0.288c0,1.847-0.6,2.734-1.487,2.734
		C106.459,170.712,105.859,169.824,105.859,167.977z M107.842,167.977v-0.288c0-1.439-0.2-1.839-0.496-1.839
		s-0.495,0.399-0.495,1.839v0.288c0,1.439,0.199,1.839,0.495,1.839S107.842,169.416,107.842,167.977z M109.675,165.962h-0.688
		v-0.927h2.351v0.927h-0.688v4.669h-0.976V165.962z M113.538,165.962h-0.688v-0.927h2.351v0.927h-0.688v4.669h-0.976V165.962z
		 M115.595,169.001v-3.966h0.968v4.062c0,0.504,0.176,0.704,0.424,0.704c0.247,0,0.424-0.2,0.424-0.704v-4.062h0.967v3.966
		c0,1.175-0.592,1.703-1.391,1.703C116.187,170.703,115.595,170.176,115.595,169.001z M118.939,165.035h0.848
		c0.943,0,1.823,0.384,1.823,1.423v0.04c0,0.72-0.408,1.071-0.808,1.263c0.472,0.208,0.879,0.536,0.879,1.248v0.072
		c0,0.992-0.768,1.551-1.854,1.551h-0.888V165.035z M119.93,167.385c0.433,0,0.72-0.248,0.72-0.736v-0.016
		c0-0.487-0.287-0.695-0.72-0.695h-0.016v1.447H119.93z M119.939,169.728c0.447,0,0.768-0.264,0.768-0.728v-0.04
		c0-0.464-0.32-0.728-0.768-0.728h-0.024v1.495H119.939z"/>
	<path class="st10" d="M65.482,177.696h1.007c1,0,1.727,0.527,1.727,1.783v0.072c0,0.728-0.288,1.191-0.656,1.472l0.751,2.271
		h-1.039l-0.632-1.951h-0.184v1.951h-0.976V177.696z M66.505,180.462c0.424,0,0.735-0.248,0.735-0.903v-0.064
		c0-0.704-0.336-0.888-0.759-0.888h-0.024v1.855H66.505z M68.665,177.696h1.008c0.999,0,1.727,0.527,1.727,1.783v0.072
		c0,0.728-0.287,1.191-0.655,1.472l0.752,2.271h-1.04l-0.631-1.951h-0.184v1.951h-0.976V177.696z M69.689,180.462
		c0.424,0,0.736-0.248,0.736-0.903v-0.064c0-0.704-0.336-0.888-0.76-0.888h-0.024v1.855H69.689z"/>
	<path class="st10" d="M78.69,177.696h1.008c0.999,0,1.728,0.527,1.728,1.783v0.072c0,0.728-0.288,1.191-0.656,1.472l0.752,2.271
		h-1.04l-0.631-1.951h-0.185v1.951H78.69V177.696z M79.713,180.462c0.424,0,0.736-0.248,0.736-0.903v-0.064
		c0-0.704-0.336-0.888-0.76-0.888h-0.024v1.855H79.713z M81.874,177.696h1.007c1,0,1.728,0.527,1.728,1.783v0.072
		c0,0.728-0.288,1.191-0.656,1.472l0.752,2.271h-1.039l-0.632-1.951H82.85v1.951h-0.976V177.696z M82.898,180.462
		c0.424,0,0.735-0.248,0.735-0.903v-0.064c0-0.704-0.336-0.888-0.76-0.888H82.85v1.855H82.898z"/>
	<path class="st10" d="M28.621,46.196h0.975v2.318h0.848v-2.318h0.976v5.597h-0.976v-2.351h-0.848v2.351h-0.975V46.196z
		 M31.901,49.138V48.85c0-1.847,0.6-2.734,1.487-2.734c0.887,0,1.487,0.887,1.487,2.734v0.288c0,1.847-0.6,2.734-1.487,2.734
		C32.501,51.873,31.901,50.985,31.901,49.138z M33.884,49.138V48.85c0-1.439-0.2-1.839-0.496-1.839s-0.496,0.399-0.496,1.839v0.288
		c0,1.439,0.2,1.839,0.496,1.839S33.884,50.577,33.884,49.138z M35.717,47.123h-0.688v-0.927h2.351v0.927h-0.688v4.669h-0.975
		V47.123z M39.581,47.123h-0.688v-0.927h2.351v0.927h-0.688v4.669h-0.976V47.123z M41.637,50.162v-3.966h0.967v4.062
		c0,0.504,0.176,0.704,0.424,0.704c0.248,0,0.424-0.2,0.424-0.704v-4.062h0.967v3.966c0,1.175-0.591,1.703-1.391,1.703
		C42.229,51.864,41.637,51.337,41.637,50.162z M44.981,46.196h0.848c0.943,0,1.823,0.384,1.823,1.423v0.04
		c0,0.72-0.408,1.071-0.808,1.263c0.472,0.208,0.879,0.536,0.879,1.248v0.072c0,0.992-0.768,1.551-1.855,1.551h-0.888V46.196z
		 M45.972,48.547c0.432,0,0.719-0.248,0.719-0.736v-0.016c0-0.487-0.288-0.695-0.719-0.695h-0.016v1.447H45.972z M45.98,50.889
		c0.448,0,0.768-0.264,0.768-0.728v-0.04c0-0.464-0.32-0.728-0.768-0.728h-0.024v1.495H45.98z"/>
	<path class="st10" d="M102.371,46.196h0.976v2.318h0.848v-2.318h0.975v5.597h-0.975v-2.351h-0.848v2.351h-0.976V46.196z
		 M105.652,49.138V48.85c0-1.847,0.6-2.734,1.486-2.734c0.888,0,1.487,0.887,1.487,2.734v0.288c0,1.847-0.6,2.734-1.487,2.734
		C106.251,51.873,105.652,50.985,105.652,49.138z M107.634,49.138V48.85c0-1.439-0.2-1.839-0.496-1.839s-0.495,0.399-0.495,1.839
		v0.288c0,1.439,0.199,1.839,0.495,1.839S107.634,50.577,107.634,49.138z M109.467,47.123h-0.688v-0.927h2.351v0.927h-0.688v4.669
		h-0.976V47.123z M113.33,47.123h-0.688v-0.927h2.351v0.927h-0.688v4.669h-0.976V47.123z M115.387,50.162v-3.966h0.968v4.062
		c0,0.504,0.176,0.704,0.424,0.704c0.247,0,0.424-0.2,0.424-0.704v-4.062h0.967v3.966c0,1.175-0.592,1.703-1.391,1.703
		C115.979,51.864,115.387,51.337,115.387,50.162z M118.731,46.196h0.848c0.943,0,1.823,0.384,1.823,1.423v0.04
		c0,0.72-0.408,1.071-0.808,1.263c0.472,0.208,0.879,0.536,0.879,1.248v0.072c0,0.992-0.768,1.551-1.854,1.551h-0.888V46.196z
		 M119.722,48.547c0.432,0,0.72-0.248,0.72-0.736v-0.016c0-0.487-0.288-0.695-0.72-0.695h-0.016v1.447H119.722z M119.731,50.889
		c0.447,0,0.768-0.264,0.768-0.728v-0.04c0-0.464-0.32-0.728-0.768-0.728h-0.024v1.495H119.731z"/>
	<path class="st10" d="M18.415,465.304h1.039l1.063,5.613h-0.975l-0.184-1.111h-0.888l-0.176,1.111h-0.943L18.415,465.304z
		 M19.214,468.927l-0.296-1.847l-0.304,1.847H19.214z M22.942,470.646c-0.231,0.239-0.503,0.352-0.792,0.352
		c-0.919,0-1.511-0.888-1.511-2.734v-0.288c0-1.847,0.6-2.734,1.487-2.734s1.487,0.888,1.487,2.734v0.288
		c0,0.76-0.112,1.359-0.304,1.799l0.503,0.464l-0.488,0.52L22.942,470.646z M22.374,470.054l-0.48-0.472l0.456-0.504l0.232,0.248
		c0.024-0.265,0.04-0.608,0.04-1.063v-0.288c0-1.439-0.2-1.839-0.496-1.839s-0.496,0.399-0.496,1.839v0.288
		c0,1.566,0.208,1.854,0.568,1.854C22.262,470.118,22.318,470.102,22.374,470.054z M24.135,469.287v-3.966h0.967v4.062
		c0,0.504,0.176,0.703,0.424,0.703c0.248,0,0.424-0.199,0.424-0.703v-4.062h0.967v3.966c0,1.175-0.591,1.703-1.391,1.703
		C24.727,470.99,24.135,470.462,24.135,469.287z M28.222,465.304h1.04l1.063,5.613H29.35l-0.184-1.111h-0.887l-0.176,1.111h-0.944
		L28.222,465.304z M29.022,468.927l-0.296-1.847l-0.304,1.847H29.022z M16.727,473.321h1.008c1,0,1.727,0.527,1.727,1.783v0.071
		c0,0.728-0.288,1.191-0.656,1.472l0.751,2.271h-1.04l-0.631-1.951h-0.184v1.951h-0.976V473.321z M17.75,476.088
		c0.424,0,0.736-0.248,0.736-0.904v-0.063c0-0.704-0.336-0.888-0.76-0.888h-0.024v1.855H17.75z M20.695,473.304h1.04l1.063,5.613
		h-0.976l-0.184-1.111h-0.887l-0.176,1.111h-0.943L20.695,473.304z M21.494,476.927l-0.296-1.847l-0.304,1.847H21.494z
		 M22.919,476.216v-0.192c0-1.967,0.728-2.742,1.639-2.742c0.271,0,0.432,0.032,0.64,0.128v1.007c-0.2-0.119-0.36-0.184-0.544-0.184
		c-0.432,0-0.744,0.384-0.744,1.783v0.208c0,1.479,0.312,1.783,0.76,1.783c0.152,0,0.344-0.057,0.543-0.177v0.96
		c-0.224,0.128-0.439,0.168-0.719,0.168C23.599,478.958,22.919,478.166,22.919,476.216z M25.703,473.321h2.143v0.927h-1.167v1.392
		h1.031v0.928h-1.031v1.423h1.191v0.928h-2.167V473.321z M28.343,473.321h1.007c1,0,1.727,0.527,1.727,1.783v0.071
		c0,0.728-0.288,1.191-0.656,1.472l0.751,2.271h-1.039l-0.632-1.951h-0.184v1.951h-0.976V473.321z M29.367,476.088
		c0.424,0,0.735-0.248,0.735-0.904v-0.063c0-0.704-0.336-0.888-0.759-0.888h-0.024v1.855H29.367z"/>
	<path class="st10" d="M65.259,137.597v-0.288c0-1.847,0.6-2.734,1.487-2.734c0.888,0,1.487,0.887,1.487,2.734v0.288
		c0,1.847-0.6,2.735-1.487,2.735C65.859,140.332,65.259,139.445,65.259,137.597z M67.242,137.597v-0.288
		c0-1.439-0.2-1.839-0.496-1.839c-0.295,0-0.496,0.4-0.496,1.839v0.288c0,1.439,0.2,1.839,0.496,1.839
		C67.042,139.437,67.242,139.037,67.242,137.597z M68.715,134.655h0.872c1.063,0,1.808,0.576,1.808,1.887v0.016
		c0,1.263-0.704,1.863-1.695,1.935H69.69v1.759h-0.976V134.655z M69.699,137.59c0.408-0.024,0.719-0.32,0.719-1v-0.016
		c0-0.711-0.272-1.015-0.695-1.015H69.69v2.031H69.699z M71.795,134.655h2.143v0.928H72.77v1.391h1.032v0.928H72.77v1.423h1.191
		v0.927h-2.166V134.655z M74.435,134.655h0.911l0.983,2.831v-2.831h0.952v5.597h-0.864l-1.031-2.966v2.966h-0.951V134.655z
		 M79.651,135.583h-0.688v-0.928h2.352v0.928h-0.688v4.669h-0.976V135.583z M81.467,137.597v-0.288c0-1.847,0.6-2.734,1.486-2.734
		c0.888,0,1.487,0.887,1.487,2.734v0.288c0,1.847-0.6,2.735-1.487,2.735C82.067,140.332,81.467,139.445,81.467,137.597z
		 M83.45,137.597v-0.288c0-1.439-0.2-1.839-0.496-1.839s-0.495,0.4-0.495,1.839v0.288c0,1.439,0.199,1.839,0.495,1.839
		S83.45,139.037,83.45,137.597z M60.587,142.655h0.912c1.248,0,1.959,0.904,1.959,2.703v0.192c0,1.799-0.711,2.703-1.959,2.703
		h-0.912V142.655z M61.602,147.357c0.464,0,0.864-0.408,0.864-1.807v-0.192c0-1.399-0.4-1.807-0.864-1.807h-0.04v3.806H61.602z
		 M63.939,142.655h2.143v0.928h-1.167v1.391h1.031v0.928h-1.031v1.423h1.191v0.927h-2.167V142.655z M66.403,145.55v-0.192
		c0-1.967,0.728-2.742,1.639-2.742c0.272,0,0.432,0.032,0.64,0.128v1.007c-0.2-0.12-0.36-0.184-0.543-0.184
		c-0.432,0-0.744,0.384-0.744,1.783v0.208c0,1.479,0.312,1.783,0.759,1.783c0.152,0,0.344-0.056,0.544-0.176v0.959
		c-0.224,0.128-0.44,0.168-0.72,0.168C67.082,148.292,66.403,147.501,66.403,145.55z M69.187,142.655h0.976v2.343l0.791-2.343h1.104
		l-0.943,2.367l0.96,3.23h-1.088l-0.607-2.119l-0.216,0.615v1.503h-0.976V142.655z M73.683,142.655h0.848
		c0.943,0,1.822,0.384,1.822,1.423v0.04c0,0.72-0.407,1.071-0.807,1.263c0.472,0.208,0.879,0.536,0.879,1.248v0.072
		c0,0.992-0.768,1.551-1.854,1.551h-0.888V142.655z M74.674,145.006c0.432,0,0.72-0.248,0.72-0.736v-0.016
		c0-0.488-0.288-0.696-0.72-0.696h-0.016v1.447H74.674z M74.682,147.349c0.448,0,0.768-0.264,0.768-0.728v-0.04
		c0-0.464-0.319-0.728-0.768-0.728h-0.023v1.496H74.682z M76.834,142.655h2.144v0.928H77.81v1.391h1.031v0.928H77.81v1.423h1.191
		v0.927h-2.167V142.655z M79.475,142.655h0.976v4.67h1.031v0.927h-2.007V142.655z M81.578,145.597v-0.288
		c0-1.847,0.6-2.734,1.487-2.734s1.487,0.887,1.487,2.734v0.288c0,1.847-0.6,2.735-1.487,2.735S81.578,147.445,81.578,145.597z
		 M83.562,145.597v-0.288c0-1.439-0.2-1.839-0.496-1.839s-0.496,0.4-0.496,1.839v0.288c0,1.439,0.2,1.839,0.496,1.839
		S83.562,147.037,83.562,145.597z M84.691,142.655h0.999l0.408,3.43l0.487-3.43h0.904l0.479,3.43l0.416-3.43h0.976l-0.848,5.613
		H87.49l-0.464-3.318l-0.464,3.318h-1.023L84.691,142.655z"/>
	<path class="st10" d="M24.261,131.905h0.872c1.063,0,1.807,0.576,1.807,1.887v0.016c0,1.263-0.704,1.863-1.695,1.935h-0.008v1.759
		h-0.976V131.905z M25.244,134.84c0.408-0.024,0.72-0.32,0.72-1v-0.016c0-0.711-0.272-1.015-0.695-1.015h-0.032v2.031H25.244z
		 M27.325,135.871v-3.966h0.968v4.062c0,0.504,0.176,0.704,0.423,0.704c0.248,0,0.424-0.2,0.424-0.704v-4.062h0.968v3.966
		c0,1.176-0.592,1.703-1.392,1.703C27.917,137.574,27.325,137.047,27.325,135.871z M30.669,131.905h0.847
		c0.944,0,1.823,0.384,1.823,1.423v0.04c0,0.72-0.408,1.071-0.808,1.263c0.472,0.208,0.879,0.536,0.879,1.248v0.072
		c0,0.992-0.768,1.551-1.855,1.551h-0.887V131.905z M31.66,134.256c0.432,0,0.72-0.248,0.72-0.736v-0.016
		c0-0.488-0.288-0.696-0.72-0.696h-0.016v1.447H31.66z M31.668,136.599c0.448,0,0.768-0.264,0.768-0.728v-0.04
		c0-0.464-0.32-0.728-0.768-0.728h-0.024v1.496H31.668z M33.821,131.905h0.975v4.67h1.032v0.927h-2.007V131.905z M36.237,131.905
		h0.976v5.597h-0.976V131.905z M37.709,134.8v-0.192c0-1.967,0.728-2.742,1.639-2.742c0.272,0,0.432,0.032,0.64,0.128v1.007
		c-0.2-0.12-0.36-0.184-0.543-0.184c-0.432,0-0.744,0.384-0.744,1.783v0.208c0,1.479,0.312,1.783,0.759,1.783
		c0.152,0,0.344-0.056,0.544-0.176v0.959c-0.224,0.128-0.44,0.168-0.72,0.168C38.389,137.542,37.709,136.751,37.709,134.8z
		 M27.581,145.31v-1.016c0.344,0.2,0.615,0.312,0.879,0.312c0.28,0,0.52-0.136,0.52-0.48v-0.016c0-0.256-0.08-0.448-0.543-0.976
		c-0.664-0.751-0.936-1.111-0.936-1.791v-0.016c0-0.896,0.583-1.463,1.359-1.463c0.392,0,0.624,0.056,0.863,0.176v1.015
		c-0.304-0.176-0.488-0.256-0.744-0.256c-0.272,0-0.503,0.176-0.503,0.48v0.016c0,0.264,0.08,0.36,0.543,0.896
		c0.768,0.887,0.936,1.231,0.936,1.871v0.016c0,0.88-0.616,1.463-1.383,1.463C28.189,145.542,27.861,145.446,27.581,145.31z
		 M30.285,143.871v-3.966h0.968v4.062c0,0.504,0.176,0.704,0.423,0.704c0.248,0,0.424-0.2,0.424-0.704v-4.062h0.968v3.966
		c0,1.176-0.592,1.703-1.392,1.703C30.877,145.574,30.285,145.047,30.285,143.871z M33.629,139.905h0.911l0.983,2.831v-2.831h0.952
		v5.597h-0.864l-1.031-2.966v2.966h-0.951V139.905z M26.465,147.905h0.912c1.247,0,1.958,0.904,1.958,2.703v0.192
		c0,1.799-0.711,2.703-1.958,2.703h-0.912V147.905z M27.481,152.607c0.463,0,0.863-0.408,0.863-1.807v-0.192
		c0-1.399-0.4-1.807-0.863-1.807h-0.04v3.806H27.481z M29.817,147.905h2.143v0.928h-1.167v1.391h1.032v0.928h-1.032v1.423h1.191
		v0.927h-2.167V147.905z M32.281,150.8v-0.192c0-1.967,0.728-2.742,1.639-2.742c0.271,0,0.432,0.032,0.64,0.128v1.007
		c-0.2-0.12-0.36-0.184-0.544-0.184c-0.432,0-0.744,0.384-0.744,1.783v0.208c0,1.479,0.312,1.783,0.76,1.783
		c0.152,0,0.344-0.056,0.543-0.176v0.959c-0.224,0.128-0.439,0.168-0.719,0.168C32.961,153.542,32.281,152.751,32.281,150.8z
		 M35.065,147.905h0.976v2.343l0.792-2.343h1.104l-0.943,2.367l0.959,3.23h-1.087l-0.608-2.119l-0.216,0.615v1.503h-0.976V147.905z"
		/>
	<path class="st10" d="M100.048,61.041h-0.688v-0.927h2.351v0.927h-0.688v4.669h-0.976V61.041z M102.12,60.114h0.976v2.318h0.847
		v-2.318h0.976v5.597h-0.976V63.36h-0.847v2.351h-0.976V60.114z M105.496,60.114h2.143v0.927h-1.167v1.391h1.031v0.928h-1.031v1.423
		h1.191v0.928h-2.167V60.114z M109.408,60.114h0.976v2.318h0.848v-2.318h0.976v5.597h-0.976V63.36h-0.848v2.351h-0.976V60.114z
		 M113.568,60.098h1.039l1.063,5.613h-0.976l-0.184-1.111h-0.888l-0.176,1.111h-0.943L113.568,60.098z M114.368,63.72l-0.296-1.847
		l-0.304,1.847H114.368z M115.608,60.114h0.992l0.527,3.646l0.527-3.646h0.96l-1,5.613h-1.007L115.608,60.114z M118.911,60.114
		h2.144v0.927h-1.168v1.391h1.032v0.928h-1.032v1.423h1.191v0.928h-2.167V60.114z M121.552,60.114h0.911l0.983,2.83v-2.83h0.951
		v5.597h-0.863l-1.031-2.966v2.966h-0.951V60.114z M98.533,71.008v-0.192c0-1.967,0.728-2.742,1.639-2.742
		c0.271,0,0.432,0.032,0.64,0.128v1.007c-0.2-0.12-0.359-0.184-0.544-0.184c-0.432,0-0.743,0.384-0.743,1.783v0.208
		c0,1.479,0.312,1.783,0.76,1.783c0.151,0,0.344-0.056,0.544-0.176v0.959c-0.225,0.128-0.44,0.168-0.72,0.168
		C99.212,73.751,98.533,72.959,98.533,71.008z M101.02,71.056v-0.288c0-1.847,0.601-2.734,1.487-2.734
		c0.888,0,1.487,0.887,1.487,2.734v0.288c0,1.847-0.6,2.734-1.487,2.734C101.62,73.791,101.02,72.903,101.02,71.056z
		 M103.003,71.056v-0.288c0-1.439-0.2-1.839-0.496-1.839s-0.495,0.399-0.495,1.839v0.288c0,1.439,0.199,1.839,0.495,1.839
		S103.003,72.495,103.003,71.056z M104.46,72.08v-3.966h0.968v4.062c0,0.504,0.176,0.704,0.424,0.704c0.247,0,0.423-0.2,0.423-0.704
		v-4.062h0.968v3.966c0,1.175-0.592,1.703-1.391,1.703C105.052,73.782,104.46,73.255,104.46,72.08z M107.804,68.114h1.008
		c0.999,0,1.727,0.527,1.727,1.783v0.072c0,0.728-0.288,1.191-0.655,1.472l0.751,2.271h-1.039l-0.632-1.951h-0.184v1.951h-0.976
		V68.114z M108.827,70.88c0.424,0,0.735-0.248,0.735-0.903v-0.064c0-0.704-0.336-0.888-0.759-0.888h-0.024v1.855H108.827z
		 M111.428,69.041h-0.688v-0.927h2.351v0.927h-0.688v4.669h-0.976V69.041z M114.171,71.504l-1.039-3.39h1.008l0.527,2.095
		l0.536-2.095h0.983l-1.04,3.39v2.207h-0.976V71.504z M116.94,68.098h1.039l1.063,5.613h-0.976l-0.184-1.111h-0.888l-0.176,1.111
		h-0.943L116.94,68.098z M117.74,71.72l-0.296-1.847l-0.304,1.847H117.74z M119.34,68.114h1.007c1,0,1.728,0.527,1.728,1.783v0.072
		c0,0.728-0.288,1.191-0.655,1.472l0.751,2.271h-1.039l-0.632-1.951h-0.184v1.951h-0.976V68.114z M120.364,70.88
		c0.424,0,0.735-0.248,0.735-0.903v-0.064c0-0.704-0.336-0.888-0.76-0.888h-0.023v1.855H120.364z M122.524,68.114h0.912
		c1.247,0,1.958,0.903,1.958,2.702v0.192c0,1.799-0.711,2.703-1.958,2.703h-0.912V68.114z M123.539,72.815
		c0.464,0,0.863-0.408,0.863-1.807v-0.192c0-1.399-0.399-1.807-0.863-1.807h-0.04v3.806H123.539z M100.909,81.519v-1.016
		c0.344,0.2,0.615,0.312,0.879,0.312c0.28,0,0.521-0.136,0.521-0.479V80.32c0-0.256-0.08-0.448-0.544-0.976
		c-0.664-0.751-0.936-1.111-0.936-1.791v-0.016c0-0.896,0.584-1.463,1.359-1.463c0.392,0,0.623,0.056,0.863,0.176v1.016
		c-0.304-0.176-0.487-0.256-0.743-0.256c-0.272,0-0.504,0.176-0.504,0.479v0.016c0,0.264,0.08,0.36,0.543,0.896
		c0.768,0.887,0.936,1.231,0.936,1.871v0.016c0,0.879-0.615,1.463-1.383,1.463C101.516,81.751,101.188,81.655,100.909,81.519z
		 M103.613,80.08v-3.966h0.967v4.062c0,0.504,0.176,0.704,0.424,0.704s0.424-0.2,0.424-0.704v-4.062h0.968v3.966
		c0,1.175-0.592,1.703-1.392,1.703S103.613,81.255,103.613,80.08z M106.956,76.114h0.911l0.983,2.83v-2.83h0.951v5.597h-0.863
		l-1.031-2.966v2.966h-0.951V76.114z M111.652,76.114h0.912c1.247,0,1.959,0.903,1.959,2.702v0.192c0,1.799-0.712,2.703-1.959,2.703
		h-0.912V76.114z M112.667,80.815c0.464,0,0.863-0.408,0.863-1.807v-0.192c0-1.399-0.399-1.807-0.863-1.807h-0.04v3.806H112.667z
		 M115.004,76.114h2.143v0.927h-1.167v1.391h1.031v0.928h-1.031v1.423h1.191v0.928h-2.167V76.114z M117.468,79.008v-0.192
		c0-1.967,0.728-2.742,1.639-2.742c0.272,0,0.432,0.032,0.64,0.128v1.007c-0.199-0.12-0.359-0.184-0.544-0.184
		c-0.432,0-0.743,0.384-0.743,1.783v0.208c0,1.479,0.312,1.783,0.76,1.783c0.151,0,0.344-0.056,0.544-0.176v0.959
		c-0.225,0.128-0.44,0.168-0.72,0.168C118.148,81.751,117.468,80.959,117.468,79.008z M120.252,76.114h0.975v2.342l0.792-2.342
		h1.104l-0.943,2.366l0.959,3.23h-1.087l-0.608-2.119l-0.216,0.616v1.503h-0.975V76.114z"/>
	<path class="st10" d="M107.714,131.709h0.991l0.527,3.646l0.528-3.646h0.959l-0.999,5.613h-1.008L107.714,131.709z
		 M111.034,131.709h0.976v5.597h-0.976V131.709z M112.602,131.709h0.847c0.944,0,1.823,0.384,1.823,1.423v0.04
		c0,0.72-0.407,1.071-0.808,1.263c0.472,0.208,0.88,0.536,0.88,1.248v0.072c0,0.992-0.768,1.551-1.855,1.551h-0.887V131.709z
		 M113.593,134.06c0.432,0,0.72-0.248,0.72-0.736v-0.016c0-0.488-0.288-0.696-0.72-0.696h-0.017v1.447H113.593z M113.601,136.403
		c0.447,0,0.768-0.264,0.768-0.728v-0.04c0-0.464-0.32-0.728-0.768-0.728h-0.024v1.496H113.601z M115.753,131.709h2.143v0.928
		h-1.167v1.391h1.031v0.928h-1.031v1.423h1.191v0.927h-2.167V131.709z M99.333,139.709h0.848c0.943,0,1.823,0.384,1.823,1.423v0.04
		c0,0.72-0.408,1.071-0.808,1.263c0.472,0.208,0.88,0.536,0.88,1.248v0.072c0,0.992-0.768,1.551-1.855,1.551h-0.888V139.709z
		 M100.326,142.06c0.432,0,0.719-0.248,0.719-0.736v-0.016c0-0.488-0.287-0.696-0.719-0.696h-0.017v1.447H100.326z M100.333,144.403
		c0.447,0,0.768-0.264,0.768-0.728v-0.04c0-0.464-0.32-0.728-0.768-0.728h-0.024v1.496H100.333z M102.486,139.709h2.143v0.928
		h-1.167v1.391h1.031v0.928h-1.031v1.423h1.191v0.927h-2.167V139.709z M105.91,139.693h1.039l1.063,5.613h-0.976l-0.184-1.111
		h-0.888l-0.176,1.111h-0.943L105.91,139.693z M106.708,143.315l-0.296-1.847l-0.304,1.847H106.708z M108.133,142.603v-0.192
		c0-1.967,0.728-2.742,1.64-2.742c0.271,0,0.432,0.032,0.64,0.128v1.007c-0.2-0.12-0.36-0.184-0.544-0.184
		c-0.432,0-0.743,0.384-0.743,1.783v0.208c0,1.479,0.312,1.783,0.759,1.783c0.152,0,0.345-0.056,0.544-0.176v0.959
		c-0.224,0.128-0.439,0.168-0.72,0.168C108.813,145.346,108.133,144.554,108.133,142.603z M110.917,139.709h0.976v2.319h0.848
		v-2.319h0.976v5.597h-0.976v-2.351h-0.848v2.351h-0.976V139.709z M115.469,142.603v-0.192c0-1.967,0.728-2.742,1.64-2.742
		c0.271,0,0.432,0.032,0.64,0.128v1.007c-0.2-0.12-0.36-0.184-0.544-0.184c-0.432,0-0.743,0.384-0.743,1.783v0.208
		c0,1.479,0.312,1.783,0.759,1.783c0.152,0,0.345-0.056,0.544-0.176v0.959c-0.224,0.128-0.439,0.168-0.72,0.168
		C116.149,145.346,115.469,144.554,115.469,142.603z M118.253,139.709h0.976v4.67h1.031v0.927h-2.007V139.709z M120.557,143.675
		v-3.966h0.968v4.062c0,0.504,0.176,0.704,0.424,0.704s0.424-0.2,0.424-0.704v-4.062h0.968v3.966c0,1.176-0.592,1.703-1.392,1.703
		S120.557,144.85,120.557,143.675z M123.902,139.709h0.847c0.944,0,1.823,0.384,1.823,1.423v0.04c0,0.72-0.407,1.071-0.808,1.263
		c0.472,0.208,0.88,0.536,0.88,1.248v0.072c0,0.992-0.768,1.551-1.855,1.551h-0.887V139.709z M124.893,142.06
		c0.432,0,0.72-0.248,0.72-0.736v-0.016c0-0.488-0.288-0.696-0.72-0.696h-0.017v1.447H124.893z M124.901,144.403
		c0.448,0,0.768-0.264,0.768-0.728v-0.04c0-0.464-0.319-0.728-0.768-0.728h-0.024v1.496H124.901z"/>
	<path class="st10" d="M107.148,211.238h0.991l0.527,3.646l0.528-3.646h0.959l-0.999,5.613h-1.008L107.148,211.238z
		 M110.467,211.238h0.976v5.597h-0.976V211.238z M112.035,211.238h0.847c0.944,0,1.823,0.384,1.823,1.423v0.04
		c0,0.72-0.407,1.071-0.808,1.263c0.472,0.208,0.88,0.536,0.88,1.248v0.072c0,0.992-0.768,1.551-1.855,1.551h-0.887V211.238z
		 M113.027,213.589c0.432,0,0.72-0.248,0.72-0.736v-0.016c0-0.488-0.288-0.696-0.72-0.696h-0.017v1.447H113.027z M113.035,215.932
		c0.447,0,0.768-0.264,0.768-0.728v-0.04c0-0.464-0.32-0.728-0.768-0.728h-0.024v1.496H113.035z M115.187,211.238h2.143v0.928
		h-1.167v1.391h1.031v0.928h-1.031v1.423h1.191v0.927h-2.167V211.238z M98.767,219.238h0.848c0.943,0,1.823,0.384,1.823,1.423v0.04
		c0,0.72-0.408,1.071-0.808,1.263c0.472,0.208,0.88,0.536,0.88,1.248v0.072c0,0.992-0.768,1.551-1.855,1.551h-0.888V219.238z
		 M99.759,221.589c0.432,0,0.719-0.248,0.719-0.736v-0.016c0-0.488-0.287-0.696-0.719-0.696h-0.017v1.447H99.759z M99.767,223.932
		c0.447,0,0.768-0.264,0.768-0.728v-0.04c0-0.464-0.32-0.728-0.768-0.728h-0.024v1.496H99.767z M101.919,219.238h2.143v0.928h-1.167
		v1.391h1.031v0.928h-1.031v1.423h1.191v0.927h-2.167V219.238z M105.343,219.222h1.039l1.063,5.613h-0.976l-0.184-1.111h-0.888
		l-0.176,1.111h-0.943L105.343,219.222z M106.142,222.844l-0.296-1.847l-0.304,1.847H106.142z M107.567,222.133v-0.192
		c0-1.967,0.728-2.742,1.64-2.742c0.271,0,0.432,0.032,0.64,0.128v1.007c-0.2-0.12-0.36-0.184-0.544-0.184
		c-0.432,0-0.743,0.384-0.743,1.783v0.208c0,1.479,0.312,1.783,0.759,1.783c0.152,0,0.345-0.056,0.544-0.176v0.959
		c-0.224,0.128-0.439,0.168-0.72,0.168C108.246,224.875,107.567,224.084,107.567,222.133z M110.351,219.238h0.976v2.319h0.848
		v-2.319h0.976v5.597h-0.976v-2.351h-0.848v2.351h-0.976V219.238z M114.903,222.133v-0.192c0-1.967,0.728-2.742,1.64-2.742
		c0.271,0,0.432,0.032,0.64,0.128v1.007c-0.2-0.12-0.36-0.184-0.544-0.184c-0.432,0-0.743,0.384-0.743,1.783v0.208
		c0,1.479,0.312,1.783,0.759,1.783c0.152,0,0.345-0.056,0.544-0.176v0.959c-0.224,0.128-0.439,0.168-0.72,0.168
		C115.582,224.875,114.903,224.084,114.903,222.133z M117.687,219.238h0.976v4.67h1.031v0.927h-2.007V219.238z M119.991,223.204
		v-3.966h0.968v4.062c0,0.504,0.176,0.704,0.424,0.704s0.424-0.2,0.424-0.704v-4.062h0.968v3.966c0,1.176-0.592,1.703-1.392,1.703
		S119.991,224.38,119.991,223.204z M123.335,219.238h0.847c0.944,0,1.823,0.384,1.823,1.423v0.04c0,0.72-0.407,1.071-0.808,1.263
		c0.472,0.208,0.88,0.536,0.88,1.248v0.072c0,0.992-0.768,1.551-1.855,1.551h-0.887V219.238z M124.326,221.589
		c0.432,0,0.72-0.248,0.72-0.736v-0.016c0-0.488-0.288-0.696-0.72-0.696h-0.017v1.447H124.326z M124.334,223.932
		c0.448,0,0.768-0.264,0.768-0.728v-0.04c0-0.464-0.319-0.728-0.768-0.728h-0.024v1.496H124.334z M101.284,232.643v-1.016
		c0.344,0.2,0.615,0.312,0.879,0.312c0.28,0,0.521-0.136,0.521-0.48v-0.016c0-0.256-0.08-0.448-0.544-0.976
		c-0.664-0.751-0.936-1.111-0.936-1.791v-0.016c0-0.896,0.584-1.463,1.359-1.463c0.392,0,0.623,0.056,0.863,0.176v1.015
		c-0.304-0.176-0.487-0.256-0.743-0.256c-0.272,0-0.504,0.176-0.504,0.48v0.016c0,0.264,0.08,0.36,0.543,0.896
		c0.768,0.887,0.936,1.231,0.936,1.871v0.016c0,0.88-0.615,1.463-1.383,1.463C101.891,232.875,101.563,232.779,101.284,232.643z
		 M103.988,231.204v-3.966h0.967v4.062c0,0.504,0.176,0.704,0.424,0.704s0.424-0.2,0.424-0.704v-4.062h0.968v3.966
		c0,1.176-0.592,1.703-1.392,1.703S103.988,232.38,103.988,231.204z M107.331,227.238h0.911l0.983,2.831v-2.831h0.951v5.597h-0.863
		l-1.031-2.966v2.966h-0.951V227.238z M112.027,227.238h0.912c1.247,0,1.959,0.904,1.959,2.703v0.192
		c0,1.799-0.712,2.703-1.959,2.703h-0.912V227.238z M113.042,231.94c0.464,0,0.863-0.408,0.863-1.807v-0.192
		c0-1.399-0.399-1.807-0.863-1.807h-0.04v3.806H113.042z M115.379,227.238h2.143v0.928h-1.167v1.391h1.031v0.928h-1.031v1.423h1.191
		v0.927h-2.167V227.238z M117.843,230.133v-0.192c0-1.967,0.728-2.742,1.639-2.742c0.272,0,0.432,0.032,0.64,0.128v1.007
		c-0.199-0.12-0.359-0.184-0.544-0.184c-0.432,0-0.743,0.384-0.743,1.783v0.208c0,1.479,0.312,1.783,0.76,1.783
		c0.151,0,0.344-0.056,0.544-0.176v0.959c-0.225,0.128-0.44,0.168-0.72,0.168C118.523,232.875,117.843,232.084,117.843,230.133z
		 M120.627,227.238h0.975v2.343l0.792-2.343h1.104l-0.943,2.367l0.959,3.23h-1.087l-0.608-2.119l-0.216,0.615v1.503h-0.975V227.238z
		"/>
	<path class="st10" d="M57.889,620.115v-0.967c0.152,0.056,0.304,0.096,0.464,0.096c0.312,0,0.503-0.168,0.503-0.576v-4.117h0.992
		v4.189c0,0.991-0.52,1.455-1.343,1.455C58.257,620.195,58.065,620.155,57.889,620.115z M60.313,617.493v-0.288
		c0-1.847,0.6-2.734,1.487-2.734s1.487,0.888,1.487,2.734v0.288c0,1.847-0.6,2.734-1.487,2.734S60.313,619.34,60.313,617.493z
		 M62.296,617.493v-0.288c0-1.439-0.2-1.839-0.496-1.839s-0.496,0.399-0.496,1.839v0.288c0,1.438,0.2,1.839,0.496,1.839
		S62.296,618.931,62.296,617.493z M64.361,617.94l-1.04-3.39h1.007l0.528,2.095l0.536-2.095h0.983l-1.04,3.39v2.207h-0.975V617.94z
		 M67.817,619.955v-1.015c0.344,0.199,0.616,0.312,0.88,0.312c0.28,0,0.52-0.136,0.52-0.479v-0.017c0-0.256-0.08-0.447-0.544-0.975
		c-0.664-0.752-0.936-1.112-0.936-1.791v-0.017c0-0.896,0.584-1.463,1.359-1.463c0.392,0,0.624,0.056,0.864,0.176v1.016
		c-0.304-0.176-0.488-0.256-0.744-0.256c-0.272,0-0.504,0.176-0.504,0.479v0.016c0,0.265,0.08,0.36,0.544,0.896
		c0.768,0.888,0.936,1.231,0.936,1.871v0.017c0,0.879-0.616,1.463-1.383,1.463C68.425,620.187,68.097,620.092,67.817,619.955z
		 M70.537,614.551h0.872c1.063,0,1.807,0.575,1.807,1.887v0.016c0,1.264-0.703,1.863-1.695,1.936h-0.008v1.759h-0.975V614.551z
		 M71.52,617.485c0.408-0.024,0.72-0.32,0.72-1v-0.016c0-0.712-0.271-1.016-0.695-1.016h-0.032v2.031H71.52z M73.617,614.551h2.143
		v0.928h-1.167v1.391h1.031v0.928h-1.031v1.423h1.191v0.928h-2.167V614.551z M76.256,614.551H78.4v0.928h-1.168v1.391h1.031v0.928
		h-1.031v1.423h1.191v0.928h-2.167V614.551z M78.897,614.551h0.911c1.247,0,1.959,0.903,1.959,2.702v0.192
		c0,1.799-0.712,2.702-1.959,2.702h-0.911V614.551z M79.911,619.252c0.464,0,0.864-0.408,0.864-1.807v-0.192
		c0-1.399-0.4-1.807-0.864-1.807h-0.039v3.806H79.911z M81.985,614.551h0.999l0.408,3.43l0.487-3.43h0.903l0.48,3.43l0.416-3.43
		h0.975l-0.848,5.612h-1.023l-0.463-3.317l-0.464,3.317h-1.023L81.985,614.551z M87.688,614.534h1.04l1.062,5.613h-0.975
		l-0.185-1.111h-0.888l-0.176,1.111h-0.943L87.688,614.534z M88.488,618.156l-0.296-1.847l-0.304,1.847H88.488z M90.52,617.94
		l-1.039-3.39h1.007l0.528,2.095l0.535-2.095h0.983l-1.039,3.39v2.207H90.52V617.94z"/>
	<path class="st10" d="M63.821,733.551h0.968l0.688,2.047l0.688-2.047h0.968v5.597h-0.936v-3.382l-0.712,2.118h-0.016l-0.712-2.118
		v3.382h-0.936V733.551z M67.725,733.551H68.7v5.597h-0.975V733.551z M69.293,733.551h0.912l0.983,2.83v-2.83h0.951v5.597h-0.863
		l-1.032-2.967v2.967h-0.951V733.551z M72.733,733.551h0.976v5.597h-0.976V733.551z M75.477,736.445v-0.192
		c0-1.807,0.768-2.742,1.871-2.742c0.296,0,0.543,0.063,0.743,0.16v1.015c-0.24-0.144-0.456-0.239-0.712-0.239
		c-0.56,0-0.911,0.56-0.911,1.767v0.272c0,1.463,0.432,1.799,0.832,1.799c0.031,0,0.039,0,0.088-0.008v-1.432h-0.48v-0.871h1.367
		v2.974c-0.352,0.152-0.64,0.24-1.015,0.24C76.285,739.187,75.477,738.395,75.477,736.445z M78.716,736.493v-0.288
		c0-1.847,0.601-2.734,1.487-2.734c0.888,0,1.487,0.888,1.487,2.734v0.288c0,1.847-0.6,2.734-1.487,2.734
		C79.317,739.227,78.716,738.34,78.716,736.493z M80.7,736.493v-0.288c0-1.439-0.2-1.839-0.496-1.839s-0.495,0.399-0.495,1.839
		v0.288c0,1.438,0.199,1.839,0.495,1.839S80.7,737.931,80.7,736.493z M82.172,733.551h0.976v4.669h1.031v0.928h-2.007V733.551z
		 M84.573,733.551h2.039v0.928h-1.063v1.406h0.928v0.928h-0.928v2.335h-0.976V733.551z"/>
</g>
<g id="JOY_DECK_19_TOP">
	<path class="st11" d="M114.841,342.725v-73.208l13.692,0.166l0.07-90.873l6.014-6.452l0.008-10.216l-5.996-5.834l0.164-96.418
		l5.49-5.583V43.556l-5.465-5.669c0,0,0.021-16.959,0.021-17.679c0-5.778-1.6-8.619-8.924-11.721
		c-11.176-4.734-20.809-7.99-43.635-7.99h-0.336H75.66h-1.201h-0.285h-0.337c-22.825,0-32.458,3.256-43.635,7.99
		c-7.323,3.102-8.924,5.942-8.924,11.721c0,0.72,0.023,17.679,0.023,17.679l-5.466,5.669v10.751l5.49,5.583l0.165,134.165
		l-5.997,5.835l0.008,10.216l6.014,6.452l0.07,53.126l13.692-0.166v73.208H114.841z"/>
	<polyline class="st11" points="36.166,736.308 36.166,724.808 113.25,724.808 113.25,736.308 	"/>
	<path class="st11" d="M118.708,727.725l-0.063,13.833l-5.395,0v19.25c-2.667,0-15.506-2.75-15.506,18.493H51.672
		c0-21.243-12.839-18.493-15.506-18.493v-19.25l-5.395,0l-0.062-13.333"/>
	<path class="st11" d="M69.629,539.461h-5.478c-4.971,0-7.999,2.719-7.999,7.192v62.072c13.098,0,28.431,0,37.852,0v-62.072
		c0-4.474-3.029-7.192-7.999-7.192h-5.478H69.629z"/>
	<g id="gDeck19Locations">
		<rect id="_x31_9Aft" y="533.035" class="st9" width="138.439" height="246.764"/>
		<rect id="_x31_9Middle" y="234.085" class="st9" width="138.439" height="298.95"/>
		<rect id="_x31_9Forward" class="st9" width="138.439" height="234.085"/>
	</g>
</g>
</svg>
