<?xml version="1.0" encoding="utf-8"?>
<!-- Generator: Adobe Illustrator 23.0.4, SVG Export Plug-In . SVG Version: 6.00 Build 0)  -->
<svg version="1.1" id="JOY_DECK_20" xmlns="http://www.w3.org/2000/svg" xmlns:xlink="http://www.w3.org/1999/xlink" x="0px"
	 y="0px" width="135.668px" height="590.162px" viewBox="0 0 135.668 590.162" style="enable-background:new 0 0 135.668 590.162;"
	 xml:space="preserve">
<style type="text/css">
	.Drop_x0020_Shadow{fill:none;}
	.Round_x0020_Corners_x0020_2_x0020_pt{fill:#FFFFFF;stroke:#000000;stroke-miterlimit:10;}
	.Live_x0020_Reflect_x0020_X{fill:none;}
	.Bevel_x0020_Soft{fill:url(#SVGID_1_);}
	.Dusk{fill:#FFFFFF;}
	.Foliage_GS{fill:#FFDD00;}
	.Pompadour_GS{fill-rule:evenodd;clip-rule:evenodd;fill:#44ADE2;}
	.New_x0020_Cabins_x0020_2019{fill:#EFF2F5;stroke:#FFFFFF;stroke-width:0.5;stroke-miterlimit:10;}
	.st0{fill:#FFFFFF;}
	.st1{fill:#FFFFFF;stroke:#D5DCE0;stroke-width:0.5;}
	.st2{fill:none;stroke:#D5DCE0;stroke-width:0.5;}
	.st3{fill:#DFEDF1;stroke:#CEDFE5;stroke-width:0.5;}
	.st4{fill:#6E8496;}
	.st5{fill:none;stroke:#076FA0;stroke-miterlimit:10;}
	.st6{fill:none;}
</style>
<linearGradient id="SVGID_1_" gradientUnits="userSpaceOnUse" x1="-544.3481" y1="-20.3474" x2="-543.6409" y2="-19.6403">
	<stop  offset="0" style="stop-color:#DEDFE3"/>
	<stop  offset="0.1738" style="stop-color:#D8D9DD"/>
	<stop  offset="0.352" style="stop-color:#C9CACD"/>
	<stop  offset="0.5323" style="stop-color:#B4B5B8"/>
	<stop  offset="0.7139" style="stop-color:#989A9C"/>
	<stop  offset="0.8949" style="stop-color:#797C7E"/>
	<stop  offset="1" style="stop-color:#656B6C"/>
</linearGradient>
<g id="JOY_DECK_20_BOTTOM">
	<path class="st0" d="M69.629,521.903h-5.478c-4.971,0-7.999,2.719-7.999,7.192v47.916c0,7.478,4.019,5.625,6.019,7.913L62.254,585
		c2.833,3.821,4.249,4.767,10.124,4.654h2.399c5.875,0.113,7.291-0.833,10.124-4.654l0.083-0.076c2-2.289,6.019-0.435,6.019-7.913
		v-47.916c0-4.474-3.029-7.192-7.999-7.192h-5.478H69.629z"/>
	<path class="st0" d="M56.349,307.871h35.41c0,0,0-0.718,0-5.106c0-6.195,5.606-10.418,10.949-10.418c0-2.027,0-6.381,0-6.381h3.96
		l0.025-36.389H94.069l-0.083-5.591c0,0,0-46.167,0-51.167s-1.5-7.333-6.333-7.333c-4.833,0-36.167,0-41,0s-5,4.333-5,7.333
		s0,17.667,0,17.667l-5.737,0.042v6.232l5.516,0l-0.082,69.205h3.96c0,0,0,4.354,0,6.381c5.343,0,10.949,4.473,10.949,10.418
		c0,4.388,0,5.106,0,5.106h35.41"/>
	<rect x="42.485" y="149.986" class="st0" width="63" height="10.333"/>
	<path class="st0" d="M105.402,78.403l-0.125-19l-9.76,0V5.163c0,0-7.274-4.663-21.041-4.663h-0.293
		c-13.767,0-21.041,4.663-21.041,4.663L53.25,59.16l-10,0.007V78.5L105.402,78.403z"/>
	<circle class="st1" cx="128.967" cy="564.897" r="6.451"/>
	<polyline class="st1" points="127.402,565.715 114.964,576.278 107.152,567.965 115.027,560.965 118.464,563.84 125.902,559.278 	
		"/>
	<polygon class="st1" points="82.694,514.506 76.152,514.506 76.152,518.028 67.319,518.028 61.152,514.741 61.152,492.319 
		82.694,492.319 	"/>
	<line class="st2" x1="67.5" y1="514.167" x2="67.5" y2="492.403"/>
	<polyline class="st2" points="73.899,506.46 73.899,505.406 67.569,505.406 67.569,506.46 	"/>
	<rect x="67.569" y="504.364" class="st2" width="6.33" height="1.054"/>
	<rect x="67.569" y="503.274" class="st2" width="6.33" height="1.053"/>
	<rect x="67.568" y="501.039" class="st2" width="6.224" height="1.053"/>
	<polyline class="st2" points="73.899,500.994 73.899,499.941 67.569,499.941 67.569,500.994 	"/>
	<rect x="67.569" y="498.898" class="st2" width="6.33" height="1.054"/>
	<rect x="67.569" y="497.808" class="st2" width="6.33" height="1.053"/>
	<rect x="67.569" y="507.587" class="st2" width="6.33" height="1.053"/>
	<polyline class="st2" points="73.899,516.012 73.899,507.566 67.569,507.566 67.569,508.619 	"/>
	<rect x="67.569" y="506.523" class="st2" width="6.33" height="1.054"/>
	<rect x="67.569" y="511.005" class="st2" width="6.33" height="1.054"/>
	<rect x="67.569" y="509.916" class="st2" width="6.33" height="1.053"/>
	<polyline class="st2" points="82.637,503.585 82.637,502.678 76.735,502.678 76.735,503.585 	"/>
	<rect x="76.735" y="501.718" class="st2" width="5.902" height="0.971"/>
	<rect x="76.735" y="500.715" class="st2" width="5.902" height="0.97"/>
	<polygon class="st2" points="81.671,499.756 76.735,499.756 76.735,500.725 82.637,500.725 	"/>
	<polygon class="st2" points="80.69,498.753 76.735,498.753 76.735,499.723 81.661,499.723 	"/>
	<rect x="76.735" y="497.793" class="st2" width="2.815" height="0.97"/>
	<line class="st2" x1="79.578" y1="497.703" x2="82.642" y2="500.739"/>
	<rect x="73.897" y="497.896" class="st2" width="2.936" height="9.125"/>
	<polygon class="st2" points="36.842,210.046 40.638,210.058 40.641,210.983 36.845,210.97 	"/>
	<polygon class="st2" points="36.839,209.13 40.635,209.142 40.638,210.068 36.842,210.056 	"/>
	<polygon class="st2" points="36.836,208.173 40.632,208.185 40.635,209.11 36.839,209.098 	"/>
	<line class="st2" x1="40.632" y1="208.196" x2="36.836" y2="208.184"/>
	<polygon class="st2" points="36.833,207.184 40.628,207.196 40.631,208.121 36.836,208.109 	"/>
	<polygon class="st2" points="36.83,206.268 40.625,206.281 40.628,207.206 36.833,207.194 	"/>
	<polygon class="st2" points="36.827,205.312 40.622,202.949 40.625,206.249 36.83,206.237 	"/>
	<line class="st2" x1="40.622" y1="205.334" x2="36.827" y2="205.322"/>
	<line class="st2" x1="40.622" y1="204.406" x2="38.397" y2="204.394"/>
	<line class="st2" x1="40.591" y1="203.596" x2="39.585" y2="203.584"/>
	<polygon class="st2" points="94.871,244.822 94.859,248.618 93.934,248.621 93.946,244.825 	"/>
	<polygon class="st2" points="95.787,244.819 95.775,248.615 94.849,248.618 94.861,244.822 	"/>
	<polygon class="st2" points="96.744,244.816 96.731,248.612 95.807,248.615 95.819,244.819 	"/>
	<line class="st2" x1="96.721" y1="248.612" x2="96.733" y2="244.816"/>
	<polygon class="st2" points="97.733,244.813 97.721,248.609 96.796,248.612 96.808,244.816 	"/>
	<polygon class="st2" points="98.648,244.81 98.636,248.606 97.71,248.609 97.723,244.813 	"/>
	<polygon class="st2" points="99.605,244.807 101.968,248.603 98.668,248.606 98.68,244.81 	"/>
	<line class="st2" x1="99.583" y1="248.603" x2="99.595" y2="244.807"/>
	<line class="st2" x1="100.51" y1="248.603" x2="100.523" y2="246.377"/>
	<line class="st2" x1="101.32" y1="248.571" x2="101.333" y2="247.565"/>
	<circle class="st2" cx="128.967" cy="564.897" r="1.688"/>
	<path class="st2" d="M124.237,560.626l3.479,3.208l0.354-0.333l-2.583-3.833l1.375-0.667l1.625,4.354l0.271-0.125l-0.521-4.562
		l1.667-0.083l-0.667,4.625l0.292,0.083l2-4.208l1.292,0.75l-2.938,3.667l0.417,0.229l3.542-2.917l0.896,1.229l-4.229,2.083
		l0.104,0.458l4.625-1.208l0.181,1.521l-4.764,0.021l-0.125,0.479l4.75,0.979l-0.583,1.458c0,0-3.833-1.812-4.292-2.062l-0.44,0.443
		l3.563,3.062l-1,1.125l-3.063-3.938l-0.498,0.12l1.748,4.63"/>
	
		<rect x="110.739" y="564.506" transform="matrix(0.717 -0.6971 0.6971 0.717 -363.0112 239.8599)" class="st2" width="6.314" height="4.988"/>
	<circle class="st2" cx="111.745" cy="569.136" r="1.579"/>
	<path class="st2" d="M68.069,180.319c-5.818,0-13.515,0-19.333,0c-8.875,0-12.167,3-12.167,13.521"/>
	<polyline class="st2" points="36.569,190.111 41.819,190.194 41.819,189.486 36.819,188.778 37.152,187.361 41.819,188.736 
		42.152,187.819 37.569,185.819 38.319,184.486 42.902,187.486 43.402,186.653 39.319,183.486 40.527,182.361 43.694,186.403 
		44.444,185.903 41.819,181.611 43.152,181.069 44.902,185.819 45.735,185.486 44.735,180.569 46.485,180.569 46.36,185.361 
		47.402,185.486 47.485,180.236 	"/>
	<path class="st2" d="M68.069,180.319c5.818,0,13.265,0,19.083,0c8.875,0,12.167,3,12.167,13.521"/>
	<polyline class="st2" points="99.319,190.111 94.069,190.194 94.069,189.486 99.069,188.778 98.735,187.361 94.069,188.736 
		93.735,187.819 98.319,185.819 97.569,184.486 92.985,187.486 92.485,186.653 96.569,183.486 95.36,182.361 92.194,186.403 
		91.444,185.903 94.069,181.611 92.735,181.069 90.985,185.819 90.152,185.486 91.152,180.569 89.402,180.569 89.527,185.361 
		88.485,185.486 88.402,180.236 	"/>
	<path class="st2" d="M73.152,58.653c0-6.125-10.25-6.625-10.25,0c0,4.875,0,9.75,0,9.75h10.25
		C73.152,68.403,73.152,64.778,73.152,58.653z"/>
	<path class="st3" d="M28.988,501.155c-5.346,0-16.324-0.29-23.234-7.181c-3.8-3.79-5.728-8.902-5.728-15.196v-30.63
		c-0.104-1.945-0.588-18.855,13.382-23.422c7.058-2.306,14.005-1.689,19.561,1.737c5.09,3.14,8.512,8.276,9.388,14.094
		c1.99,13.218-6.06,21.02-10.869,25.682l-0.546,0.53l-5.581-5.732l0.56-0.543c4.642-4.499,9.902-9.599,8.525-18.745
		c-0.517-3.435-2.639-6.604-5.676-8.477c-2.49-1.535-6.745-2.945-12.875-0.942c-8.652,2.829-7.887,15.295-7.878,15.42l0.01,0.278
		v30.75c0,4.148,1.104,7.266,3.376,9.532c4.896,4.882,14.302,4.864,18.305,4.844l0.569-0.001h30.5v8l-31.046,0.001
		C29.498,501.155,29.25,501.155,28.988,501.155z"/>
	<path class="st4" d="M16.8,438.43h1.039l1.063,5.613h-0.976l-0.184-1.111h-0.888l-0.176,1.111h-0.943L16.8,438.43z M17.6,442.052
		l-0.296-1.847L17,442.052H17.6z M21.327,443.772c-0.232,0.239-0.503,0.352-0.792,0.352c-0.919,0-1.511-0.888-1.511-2.734v-0.288
		c0-1.847,0.6-2.734,1.487-2.734c0.888,0,1.487,0.888,1.487,2.734v0.288c0,0.76-0.112,1.359-0.304,1.799l0.503,0.464l-0.488,0.52
		L21.327,443.772z M20.76,443.18l-0.48-0.472l0.456-0.504l0.231,0.248c0.024-0.265,0.04-0.608,0.04-1.063v-0.288
		c0-1.439-0.2-1.839-0.496-1.839s-0.496,0.399-0.496,1.839v0.288c0,1.566,0.208,1.854,0.567,1.854
		C20.648,443.243,20.704,443.228,20.76,443.18z M22.521,442.412v-3.966h0.967v4.062c0,0.504,0.176,0.703,0.424,0.703
		s0.424-0.199,0.424-0.703v-4.062h0.967v3.966c0,1.175-0.591,1.703-1.391,1.703C23.112,444.115,22.521,443.587,22.521,442.412z
		 M26.608,438.43h1.04l1.063,5.613h-0.976l-0.184-1.111h-0.887l-0.176,1.111h-0.943L26.608,438.43z M27.408,442.052l-0.296-1.847
		l-0.304,1.847H27.408z M15.113,446.447h1.007c1,0,1.727,0.527,1.727,1.783v0.071c0,0.728-0.288,1.191-0.656,1.472l0.751,2.271
		h-1.039l-0.632-1.951h-0.184v1.951h-0.975V446.447z M16.136,449.213c0.423,0,0.735-0.248,0.735-0.904v-0.063
		c0-0.704-0.336-0.888-0.76-0.888h-0.024v1.855H16.136z M19.08,446.43h1.04l1.063,5.613h-0.976l-0.184-1.111h-0.887l-0.176,1.111
		h-0.943L19.08,446.43z M19.879,450.052l-0.295-1.847l-0.304,1.847H19.879z M21.305,449.341v-0.192c0-1.967,0.728-2.742,1.639-2.742
		c0.271,0,0.432,0.032,0.64,0.128v1.007c-0.2-0.119-0.36-0.184-0.544-0.184c-0.432,0-0.744,0.384-0.744,1.783v0.208
		c0,1.479,0.312,1.783,0.76,1.783c0.152,0,0.344-0.057,0.543-0.177v0.96c-0.224,0.128-0.439,0.168-0.719,0.168
		C21.984,452.083,21.305,451.291,21.305,449.341z M24.088,446.447h2.143v0.927h-1.167v1.392h1.031v0.928h-1.031v1.423h1.191v0.928
		h-2.167V446.447z M26.729,446.447h1.007c1,0,1.727,0.527,1.727,1.783v0.071c0,0.728-0.288,1.191-0.656,1.472l0.752,2.271h-1.04
		l-0.632-1.951h-0.184v1.951h-0.975V446.447z M27.752,449.213c0.424,0,0.735-0.248,0.735-0.904v-0.063
		c0-0.704-0.335-0.888-0.759-0.888h-0.024v1.855H27.752z"/>
	<path class="st4" d="M57.847,242.265h0.976v4.67h1.032v0.927h-2.007V242.265z M60.99,242.249h1.04l1.063,5.613h-0.976l-0.184-1.111
		h-0.888l-0.176,1.111h-0.943L60.99,242.249z M61.79,245.871l-0.296-1.847l-0.304,1.847H61.79z M63.271,247.67v-1.016
		c0.344,0.2,0.616,0.312,0.879,0.312c0.28,0,0.52-0.136,0.52-0.48v-0.016c0-0.256-0.08-0.448-0.543-0.976
		c-0.664-0.751-0.936-1.111-0.936-1.791v-0.016c0-0.896,0.583-1.463,1.359-1.463c0.392,0,0.624,0.056,0.863,0.176v1.015
		c-0.304-0.176-0.488-0.256-0.744-0.256c-0.271,0-0.503,0.176-0.503,0.48v0.016c0,0.264,0.08,0.36,0.543,0.896
		c0.768,0.887,0.936,1.231,0.936,1.871v0.016c0,0.88-0.616,1.463-1.383,1.463C63.878,247.902,63.551,247.806,63.271,247.67z
		 M65.991,242.265h2.143v0.928h-1.167v1.391h1.031v0.928h-1.031v1.423h1.191v0.927h-2.167V242.265z M68.631,242.265h1.007
		c0.999,0,1.727,0.528,1.727,1.783v0.072c0,0.728-0.287,1.191-0.655,1.471l0.752,2.271h-1.04l-0.631-1.951h-0.185v1.951h-0.975
		V242.265z M69.654,245.032c0.424,0,0.736-0.248,0.736-0.903v-0.064c0-0.704-0.336-0.888-0.76-0.888h-0.024v1.855H69.654z
		 M73.606,243.193h-0.688v-0.928h2.351v0.928h-0.688v4.669h-0.976V243.193z M76.222,242.249h1.039l1.063,5.613h-0.976l-0.184-1.111
		h-0.888l-0.176,1.111h-0.943L76.222,242.249z M77.022,245.871l-0.296-1.847l-0.304,1.847H77.022z M78.447,245.159v-0.192
		c0-1.807,0.768-2.742,1.871-2.742c0.296,0,0.543,0.064,0.743,0.16v1.016c-0.239-0.144-0.456-0.24-0.712-0.24
		c-0.56,0-0.911,0.56-0.911,1.767v0.272c0,1.463,0.432,1.799,0.832,1.799c0.031,0,0.04,0,0.088-0.008v-1.431h-0.48v-0.872h1.367
		v2.975c-0.352,0.152-0.64,0.24-1.015,0.24C79.254,247.902,78.447,247.111,78.447,245.159z"/>
</g>
<g id="JOY_DECK_20_TOP">
	<path class="st5" d="M76.367,284.903h-4.68c-1.193,0-2.16,0.967-2.16,2.16v6.68c0,1.193,0.967,2.16,2.16,2.16h4.68
		c1.193,0,2.16-0.967,2.16-2.16v-6.68C78.527,285.87,77.56,284.903,76.367,284.903z"/>
	<path class="st5" d="M76.367,199.278h-4.68c-1.193,0-2.16,0.967-2.16,2.16v4.732c0,1.193,0.967,2.16,2.16,2.16h4.68
		c1.193,0,2.16-0.967,2.16-2.16v-4.732C78.527,200.245,77.56,199.278,76.367,199.278z"/>
	<path class="st5" d="M105.402,78.403l-0.125-19l-9.76,0V5.163c0,0-7.274-4.663-21.041-4.663h-0.293
		c-13.767,0-21.041,4.663-21.041,4.663L53.25,59.16l-10,0.007V78.5L105.402,78.403z"/>
	<path class="st5" d="M69.629,521.903h-5.478c-4.971,0-7.999,2.719-7.999,7.192v47.916c0,7.478,4.019,5.625,6.019,7.913L62.254,585
		c2.833,3.821,4.249,4.767,10.124,4.654h2.399c5.875,0.113,7.291-0.833,10.124-4.654l0.083-0.076c2-2.289,6.019-0.435,6.019-7.913
		v-47.916c0-4.474-3.029-7.192-7.999-7.192h-5.478H69.629z"/>
	<rect x="42.485" y="149.986" class="st5" width="63" height="10.333"/>
	<path class="st5" d="M35.915,210.528v6.232l5.516,0l-0.082,69.205h3.96c0,0,0,4.354,0,6.381c5.343,0,10.949,4.473,10.949,10.418
		c0,4.388,0,5.106,0,5.106h35.41"/>
	<path class="st5" d="M93.985,243.986c0,0,0-46.167,0-51.167s-1.5-7.333-6.333-7.333c-4.833,0-36.167,0-41,0s-5,4.333-5,7.333
		s0,17.667,0,17.667"/>
	<path class="st5" d="M56.349,307.871h35.41c0,0,0-0.718,0-5.106c0-6.195,5.606-10.418,10.949-10.418c0-2.027,0-6.381,0-6.381h3.96
		l0.025-36.389H94.069"/>
	<g id="gDeck20Locations">
		<rect id="_x32_0Aft" y="438.217" class="st6" width="135.668" height="151.446"/>
		<rect id="_x32_0Middle" y="139.267" class="st6" width="135.668" height="298.95"/>
		<rect id="_x32_0Forward" class="st6" width="135.668" height="139.267"/>
	</g>
</g>
</svg>
