<?xml version="1.0" encoding="utf-8"?>
<!-- Generator: Adobe Illustrator 23.0.2, SVG Export Plug-In . SVG Version: 6.00 Build 0)  -->
<svg version="1.1" id="POA_DECK_13" xmlns="http://www.w3.org/2000/svg" xmlns:xlink="http://www.w3.org/1999/xlink" x="0px"
	 y="0px" width="126.932px" height="782.745px" viewBox="0 0 126.932 782.745" style="enable-background:new 0 0 126.932 782.745;"
	 xml:space="preserve">
<style type="text/css">
	.New_x0020_Cabins_x0020_2019{fill:#EFF2F5;stroke:#FFFFFF;stroke-width:0.5;stroke-miterlimit:10;}
	.New_x0020_Cabins_x0020_2{fill:#EFF2F5;stroke:#FFFFFF;stroke-width:0.5;stroke-miterlimit:10;}
	.st0{fill:#FFFFFF;}
	.st1{fill:none;stroke:#D5DCE0;stroke-width:0.5;}
	.st2{fill:#6E8496;}
	.st3{fill:#EFF2F5;stroke:#FFFFFF;stroke-width:0.5;stroke-miterlimit:10;}
	.st4{fill:none;stroke:#EFF2F5;stroke-width:0.5;stroke-miterlimit:10;stroke-dasharray:2,2;}
	.st5{fill:#EFF2F5;stroke:#FFFFFF;stroke-width:0.5019;stroke-miterlimit:10;}
	.st6{fill:#EFF2F5;stroke:#FFFFFF;stroke-width:0.5219;stroke-miterlimit:10;}
	.st7{fill:none;stroke:#EFF2F5;stroke-width:0.5044;stroke-miterlimit:10;stroke-dasharray:2.0174,2.0174;}
	.st8{fill:#EFF2F5;stroke:#FFFFFF;stroke-width:0.5205;stroke-miterlimit:10;}
	.st9{fill:none;stroke:#076FA0;stroke-miterlimit:10;}
	.st10{fill:none;}
</style>
<g id="POA_DECK_13_BOTTOM">
	<path class="st0" d="M92.131,782.093C109.54,777.698,108.397,758,108.397,758V445.15c0,0,0.176-4.924,0-8.969
		c-0.176-4.045-3.869-5.627-4.924-6.331c-1.055-0.704-4.924-0.476-4.924-0.476v-39.004c0-19.183-15.55-34.732-34.732-34.732
		c-19.182,0-34.732,15.55-34.732,34.732v38.879c0,0-3.693,0.073-5.627,0.601c-1.46,0.397-4.748,3.341-4.924,6.858
		c-0.176,3.517,0,8.617,0,8.617l0.798,313.955c0,0,0.336,16.349,15.908,22.636c0,0-1.406-17.234,8.266-24.62l5.452,5.452
		c0,0,11.783-13.014,29.192,0l5.275-5.452C83.425,757.296,93.186,763.276,92.131,782.093z"/>
	<path class="st0" d="M125.795,23.164c-2.537-4.023-25.363-21.626-62.393-22.631C26.373-0.472,2.533,21.655,0.504,23.667
		c0,0-0.034,257.317,0.098,259.998c0.237,4.821,3.123,6.838,7.257,7.297c3.805,0.252,110.75-0.351,111.315-0.413
		c5.83-0.636,6.691-3.71,7.031-9.22C126.893,270.184,125.795,23.164,125.795,23.164z"/>
	<polyline class="st1" points="51.378,233.028 51.378,247.18 75.907,247.18 75.907,233.028 	"/>
	<polyline class="st1" points="44.107,231.641 44.107,226.46 51.321,226.46 51.321,247.18 76.002,247.18 76.002,225.712 
		84.978,225.712 84.978,249.646 	"/>
	<line class="st1" x1="18.932" y1="261.076" x2="18.914" y2="255.982"/>
	<line class="st1" x1="108.818" y1="259.089" x2="108.632" y2="212.354"/>
	<polyline class="st1" points="48.612,217.51 47.384,217.51 42.883,217.51 42.883,160.562 	"/>
	<polyline class="st1" points="54.131,139.356 54.131,157.761 43.048,157.761 43.048,160.562 	"/>
	<polyline class="st1" points="79.862,217.51 85.591,217.42 85.591,181.86 74.613,181.86 74.613,139.482 	"/>
	<line class="st1" x1="48.242" y1="217.483" x2="80.462" y2="217.483"/>
	<line class="st1" x1="73.26" y1="216.967" x2="82.267" y2="208.779"/>
	<line class="st1" x1="82.325" y1="217.014" x2="73.303" y2="208.732"/>
	<line class="st1" x1="63.892" y1="217.045" x2="73.073" y2="208.594"/>
	<line class="st1" x1="72.943" y1="216.889" x2="64.007" y2="208.748"/>
	<line class="st1" x1="54.682" y1="216.982" x2="63.733" y2="208.717"/>
	<line class="st1" x1="63.618" y1="216.873" x2="54.696" y2="208.732"/>
	<line class="st1" x1="45.357" y1="216.967" x2="54.495" y2="208.654"/>
	<line class="st1" x1="54.278" y1="216.811" x2="45.429" y2="208.764"/>
	<polygon class="st1" points="63.849,217.123 63.849,208.535 73.15,208.535 73.15,217.123 63.849,217.123 	"/>
	<polygon class="st1" points="54.547,217.123 54.547,208.535 63.849,208.535 63.849,217.123 54.547,217.123 	"/>
	<polygon class="st1" points="73.145,217.123 73.145,208.535 82.446,208.535 82.446,217.123 73.145,217.123 	"/>
	<polygon class="st1" points="45.246,217.123 45.246,208.535 54.547,208.535 54.547,217.123 45.246,217.123 	"/>
	<rect x="54.199" y="71.244" class="st1" width="20.387" height="10.155"/>
	<line class="st1" x1="68.591" y1="400.604" x2="77.243" y2="386.842"/>
	<line class="st1" x1="77.261" y1="400.548" x2="68.533" y2="386.842"/>
	<rect x="68.416" y="386.67" class="st1" width="8.849" height="13.809"/>
	<line class="st1" x1="50.329" y1="400.604" x2="58.981" y2="386.842"/>
	<line class="st1" x1="59" y1="400.548" x2="50.272" y2="386.842"/>
	<rect x="50.155" y="386.67" class="st1" width="8.849" height="13.809"/>
	<path class="st1" d="M70.047,227.804c-0.274,0-0.497,0.272-0.497,0.616"/>
	<line class="st1" x1="76.057" y1="227.804" x2="70.047" y2="227.804"/>
	<line class="st1" x1="69.551" y1="228.419" x2="69.551" y2="230.807"/>
	<line class="st1" x1="69.551" y1="230.807" x2="57.738" y2="230.807"/>
	<path class="st1" d="M57.738,228.419c0-0.343-0.219-0.616-0.493-0.616"/>
	<line class="st1" x1="57.738" y1="230.807" x2="57.738" y2="228.419"/>
	<line class="st1" x1="57.245" y1="227.804" x2="51.2" y2="227.804"/>
	<line class="st1" x1="63.778" y1="242.521" x2="63.778" y2="227.583"/>
	<line class="st1" x1="63.537" y1="242.521" x2="63.537" y2="227.583"/>
	<line class="st1" x1="75.777" y1="241.757" x2="63.778" y2="241.757"/>
	<line class="st1" x1="63.778" y1="227.583" x2="63.537" y2="227.583"/>
	<line class="st1" x1="63.778" y1="242.521" x2="63.537" y2="242.521"/>
	<line class="st1" x1="63.537" y1="241.757" x2="51.105" y2="241.757"/>
	<line class="st1" x1="63.537" y1="240.176" x2="58.25" y2="240.176"/>
	<line class="st1" x1="63.537" y1="238.592" x2="58.25" y2="238.592"/>
	<line class="st1" x1="63.537" y1="237.008" x2="58.25" y2="237.008"/>
	<line class="st1" x1="63.537" y1="235.424" x2="58.25" y2="235.424"/>
	<line class="st1" x1="63.537" y1="233.841" x2="58.25" y2="233.841"/>
	<line class="st1" x1="63.537" y1="232.257" x2="58.25" y2="232.257"/>
	<line class="st1" x1="63.537" y1="229.092" x2="57.771" y2="229.092"/>
	<line class="st1" x1="69.065" y1="240.176" x2="63.778" y2="240.176"/>
	<line class="st1" x1="69.065" y1="238.592" x2="63.778" y2="238.592"/>
	<line class="st1" x1="69.065" y1="237.008" x2="63.778" y2="237.008"/>
	<line class="st1" x1="69.065" y1="235.424" x2="63.778" y2="235.424"/>
	<line class="st1" x1="69.065" y1="233.841" x2="63.778" y2="233.841"/>
	<line class="st1" x1="69.065" y1="232.257" x2="63.778" y2="232.257"/>
	<line class="st1" x1="69.587" y1="229.092" x2="63.778" y2="229.092"/>
	<line class="st1" x1="51.062" y1="229.362" x2="57.288" y2="229.362"/>
	<line class="st1" x1="51.146" y1="230.925" x2="57.941" y2="230.925"/>
	<line class="st1" x1="51.02" y1="232.482" x2="57.288" y2="232.482"/>
	<line class="st1" x1="51.146" y1="234.042" x2="57.263" y2="234.042"/>
	<line class="st1" x1="69.536" y1="229.362" x2="75.946" y2="229.362"/>
	<line class="st1" x1="69.494" y1="230.925" x2="75.99" y2="230.925"/>
	<line class="st1" x1="70.026" y1="232.482" x2="76.032" y2="232.482"/>
	<line class="st1" x1="70.026" y1="234.042" x2="75.99" y2="234.042"/>
	<path class="st1" d="M57.206,242.7c0,0.329,0.216,0.597,0.481,0.597c0.266,0,0.48-0.268,0.48-0.597l0,0"/>
	<line class="st1" x1="58.167" y1="242.7" x2="58.167" y2="242.521"/>
	<line class="st1" x1="57.206" y1="242.7" x2="57.206" y2="242.521"/>
	<path class="st1" d="M69.065,242.7c0,0.329,0.214,0.597,0.478,0.597c0.267,0,0.483-0.268,0.483-0.597l0,0"/>
	<line class="st1" x1="70.026" y1="242.7" x2="70.026" y2="242.521"/>
	<line class="st1" x1="69.065" y1="242.7" x2="69.065" y2="242.521"/>
	<line class="st1" x1="57.694" y1="242.521" x2="57.694" y2="230.956"/>
	<line class="st1" x1="51.189" y1="237.164" x2="57.288" y2="237.164"/>
	<line class="st1" x1="51.189" y1="238.721" x2="57.288" y2="238.721"/>
	<line class="st1" x1="51.231" y1="240.284" x2="57.288" y2="240.284"/>
	<line class="st1" x1="51.146" y1="235.602" x2="57.288" y2="235.602"/>
	<line class="st1" x1="69.537" y1="242.521" x2="69.537" y2="230.746"/>
	<line class="st1" x1="70.026" y1="237.164" x2="75.946" y2="237.164"/>
	<line class="st1" x1="70.026" y1="238.721" x2="75.904" y2="238.721"/>
	<line class="st1" x1="70.026" y1="240.284" x2="75.863" y2="240.284"/>
	<line class="st1" x1="69.958" y1="235.602" x2="76.076" y2="235.602"/>
	<line class="st1" x1="63.861" y1="415.946" x2="69.821" y2="415.946"/>
	<line class="st1" x1="63.884" y1="417.895" x2="69.821" y2="417.895"/>
	<line class="st1" x1="63.873" y1="419.841" x2="69.821" y2="419.841"/>
	<line class="st1" x1="63.861" y1="421.789" x2="69.821" y2="421.789"/>
	<line class="st1" x1="69.801" y1="421.789" x2="69.922" y2="414.069"/>
	<line class="st1" x1="75.788" y1="415.946" x2="69.801" y2="415.946"/>
	<line class="st1" x1="75.788" y1="417.895" x2="69.801" y2="417.895"/>
	<line class="st1" x1="75.788" y1="419.841" x2="69.801" y2="419.841"/>
	<line class="st1" x1="75.788" y1="421.789" x2="69.801" y2="421.789"/>
	<rect x="63.858" y="414.019" class="st1" width="11.93" height="14.151"/>
	<path class="st1" d="M63.808,364.078c-12.033-0.156-19.377,8.282-20.159,9.532c-0.782,1.25,0,2.501,0,2.501h40.162
		c0,0,0.782-1.251,0-2.501c-0.782-1.25-8.126-9.688-20.159-9.532"/>
	<line class="st1" x1="45.994" y1="376.111" x2="45.994" y2="386.581"/>
	<line class="st1" x1="81.936" y1="376.267" x2="81.936" y2="386.581"/>
	<rect x="38.493" y="386.581" class="st1" width="20.784" height="43.286"/>
	<polygon class="st1" points="68.81,386.737 89.437,386.737 89.437,410.021 83.498,410.021 83.498,429.554 77.092,429.554 
		77.092,400.489 68.81,400.489 	"/>
	<line class="st1" x1="59.277" y1="390.018" x2="64.136" y2="390.018"/>
	<line class="st1" x1="38.493" y1="429.867" x2="38.493" y2="461.232"/>
	<line class="st1" x1="27.867" y1="438.15" x2="38.337" y2="438.15"/>
	<polyline class="st1" points="67.246,429.555 89.281,429.555 89.281,438.15 89.281,524.591 	"/>
	<line class="st1" x1="100.22" y1="438.15" x2="89.281" y2="438.15"/>
	<line class="st1" x1="98.032" y1="445.182" x2="108.971" y2="445.182"/>
	<line class="st1" x1="19.272" y1="445.182" x2="30.211" y2="445.182"/>
	<polyline class="st1" points="38.492,460.058 38.492,715.629 43.495,715.629 43.495,728.245 84.811,728.245 84.811,715.448 
		89.381,715.448 89.381,524.591 77.681,524.591 77.315,468.101 64.153,468.101 64.153,457.316 50.625,457.316 50.625,513.256 
		38.559,513.256 	"/>
	<polyline class="st1" points="64.153,457.316 77.464,457.316 77.464,463.127 	"/>
	<line class="st1" x1="89.533" y1="531.175" x2="100.002" y2="531.175"/>
	<line class="st1" x1="27.736" y1="531.175" x2="38.205" y2="531.175"/>
	<line class="st1" x1="19.157" y1="538.3" x2="29.626" y2="538.3"/>
	<line class="st1" x1="98.548" y1="538.3" x2="109.017" y2="538.3"/>
	<rect x="94.621" y="542.227" class="st1" width="7.852" height="72.848"/>
	<rect x="23.26" y="407.086" class="st1" width="5.514" height="16.516"/>
	<line class="st1" x1="23.375" y1="408.962" x2="28.774" y2="408.962"/>
	<line class="st1" x1="23.375" y1="411.214" x2="28.774" y2="411.214"/>
	<line class="st1" x1="23.375" y1="413.341" x2="28.774" y2="413.341"/>
	<line class="st1" x1="23.375" y1="415.343" x2="28.774" y2="415.343"/>
	<line class="st1" x1="23.375" y1="417.345" x2="28.774" y2="417.345"/>
	<line class="st1" x1="23.375" y1="419.473" x2="28.774" y2="419.473"/>
	<line class="st1" x1="23.375" y1="421.6" x2="28.774" y2="421.6"/>
	<rect x="99.579" y="408.136" class="st1" width="5.515" height="16.516"/>
	<line class="st1" x1="99.694" y1="410.012" x2="105.094" y2="410.012"/>
	<line class="st1" x1="99.694" y1="412.264" x2="105.094" y2="412.264"/>
	<line class="st1" x1="99.694" y1="414.391" x2="105.094" y2="414.391"/>
	<line class="st1" x1="99.694" y1="416.393" x2="105.094" y2="416.393"/>
	<line class="st1" x1="99.694" y1="418.395" x2="105.094" y2="418.395"/>
	<line class="st1" x1="99.694" y1="420.523" x2="105.094" y2="420.523"/>
	<line class="st1" x1="99.694" y1="422.65" x2="105.094" y2="422.65"/>
	<rect x="32.885" y="643.738" class="st1" width="5.354" height="15.666"/>
	<line class="st1" x1="32.949" y1="648.036" x2="38.329" y2="648.036"/>
	<line class="st1" x1="33.275" y1="645.818" x2="38.305" y2="645.818"/>
	<line class="st1" x1="32.949" y1="657.602" x2="37.979" y2="657.602"/>
	<line class="st1" x1="32.949" y1="655.938" x2="37.979" y2="655.938"/>
	<line class="st1" x1="32.832" y1="653.997" x2="37.862" y2="653.997"/>
	<line class="st1" x1="32.924" y1="651.987" x2="37.954" y2="651.987"/>
	<line class="st1" x1="33.183" y1="649.977" x2="38.213" y2="649.977"/>
	<rect x="89.362" y="619.867" class="st1" width="5.231" height="15.666"/>
	<line class="st1" x1="89.516" y1="624.191" x2="94.772" y2="624.191"/>
	<line class="st1" x1="89.63" y1="621.973" x2="94.543" y2="621.973"/>
	<line class="st1" x1="89.516" y1="633.757" x2="94.429" y2="633.757"/>
	<line class="st1" x1="89.516" y1="632.093" x2="94.429" y2="632.093"/>
	<line class="st1" x1="89.402" y1="630.153" x2="94.315" y2="630.153"/>
	<line class="st1" x1="89.391" y1="628.142" x2="94.304" y2="628.142"/>
	<line class="st1" x1="89.745" y1="626.132" x2="94.658" y2="626.132"/>
	<rect x="26.484" y="542.178" class="st1" width="7.938" height="98.013"/>
	<line class="st1" x1="19.081" y1="524.739" x2="38.311" y2="524.739"/>
	<polyline class="st1" points="38.438,501.714 30.594,501.714 30.594,524.486 	"/>
	<polyline class="st1" points="89.421,501.587 97.392,501.587 97.392,524.866 89.421,524.866 	"/>
	<line class="st1" x1="108.398" y1="524.865" x2="97.265" y2="524.865"/>
	<line class="st1" x1="19.208" y1="699.956" x2="29.454" y2="699.956"/>
	<line class="st1" x1="98.415" y1="699.956" x2="108.777" y2="699.956"/>
	<polyline class="st1" points="108.524,661.244 101.187,661.244 101.187,692.618 	"/>
	<polyline class="st1" points="19.208,661.37 26.926,661.37 26.926,692.492 	"/>
	<path class="st1" d="M30.038,775.401c0.419-8.654,5.499-16.377,5.603-16.585l3.823,3.058"/>
	<line class="st1" x1="34.905" y1="760.629" x2="38.74" y2="763.273"/>
	<line class="st1" x1="33.972" y1="762.237" x2="38.066" y2="764.828"/>
	<line class="st1" x1="33.091" y1="763.895" x2="37.444" y2="766.331"/>
	<line class="st1" x1="32.365" y1="765.76" x2="36.926" y2="767.885"/>
	<line class="st1" x1="31.692" y1="767.523" x2="36.512" y2="769.596"/>
	<line class="st1" x1="31.225" y1="769.285" x2="36.097" y2="771.151"/>
	<line class="st1" x1="30.81" y1="770.995" x2="35.941" y2="772.757"/>
	<line class="st1" x1="30.552" y1="772.861" x2="35.63" y2="774.26"/>
	<path class="st1" d="M98.132,775.401c-0.419-8.654-5.499-16.377-5.604-16.585l-3.932,3.213"/>
	<line class="st1" x1="93.266" y1="760.629" x2="89.43" y2="763.273"/>
	<line class="st1" x1="94.198" y1="762.237" x2="90.104" y2="764.828"/>
	<line class="st1" x1="95.079" y1="763.895" x2="90.726" y2="766.331"/>
	<line class="st1" x1="95.805" y1="765.76" x2="91.244" y2="767.885"/>
	<line class="st1" x1="96.479" y1="767.523" x2="91.809" y2="769.492"/>
	<line class="st1" x1="96.945" y1="769.285" x2="92.074" y2="771.151"/>
	<line class="st1" x1="97.36" y1="770.995" x2="92.431" y2="772.602"/>
	<line class="st1" x1="97.619" y1="772.861" x2="92.742" y2="774.208"/>
	<path class="st2" d="M79.569,508.988v-0.991l3.646-0.528l-3.646-0.527v-0.959l5.613,0.999v1.008L79.569,508.988z M79.569,505.668
		v-0.976h5.597v0.976H79.569z M79.569,504.1v-0.911c0-1.248,0.904-1.959,2.703-1.959h0.192c1.799,0,2.703,0.711,2.703,1.959v0.911
		H79.569z M84.271,503.084c0-0.464-0.408-0.863-1.807-0.863h-0.192c-1.399,0-1.807,0.399-1.807,0.863v0.04h3.806V503.084z
		 M79.569,500.748v-2.144h0.928v1.168h1.391v-1.031h0.928v1.031h1.423v-1.191h0.927v2.167H79.569z M82.512,498.285h-0.288
		c-1.847,0-2.734-0.6-2.734-1.487s0.887-1.487,2.734-1.487h0.288c1.847,0,2.735,0.6,2.735,1.487S84.359,498.285,82.512,498.285z
		 M82.512,496.301h-0.288c-1.439,0-1.839,0.2-1.839,0.496s0.4,0.495,1.839,0.495h0.288c1.439,0,1.839-0.199,1.839-0.495
		S83.951,496.301,82.512,496.301z M79.554,492.773v-1.04l5.613-1.063v0.976l-1.111,0.185v0.887l1.111,0.177v0.943L79.554,492.773z
		 M83.176,491.973l-1.847,0.296l1.847,0.304V491.973z M79.569,490.372v-1.008c0-0.999,0.528-1.727,1.783-1.727h0.072
		c0.728,0,1.191,0.287,1.471,0.655l2.271-0.752v1.04l-1.951,0.632v0.184h1.951v0.976H79.569z M82.336,489.349
		c0-0.424-0.248-0.735-0.903-0.735h-0.064c-0.704,0-0.888,0.335-0.888,0.759v0.024h1.855V489.349z M82.464,487.285h-0.192
		c-1.967,0-2.742-0.728-2.742-1.64c0-0.271,0.032-0.432,0.128-0.64h1.007c-0.12,0.2-0.184,0.36-0.184,0.544
		c0,0.432,0.384,0.743,1.783,0.743h0.208c1.479,0,1.783-0.312,1.783-0.759c0-0.152-0.056-0.344-0.176-0.544h0.959
		c0.128,0.224,0.168,0.439,0.168,0.72C85.206,486.605,84.415,487.285,82.464,487.285z M79.554,483.717v-1.04l5.613-1.063v0.976
		l-1.111,0.184v0.888l1.111,0.176v0.944L79.554,483.717z M83.176,482.917l-1.847,0.296l1.847,0.304V482.917z M79.569,481.317v-0.912
		c0-1.247,0.904-1.959,2.703-1.959h0.192c1.799,0,2.703,0.712,2.703,1.959v0.912H79.569z M84.271,480.301
		c0-0.464-0.408-0.864-1.807-0.864h-0.192c-1.399,0-1.807,0.4-1.807,0.864v0.04h3.806V480.301z M79.569,477.964v-2.143h0.928v1.167
		h1.391v-1.031h0.928v1.031h1.423v-1.191h0.927v2.167H79.569z"/>
	<path class="st2" d="M95.45,592.687v-0.912c0-1.247,0.904-1.959,2.703-1.959h0.192c1.799,0,2.703,0.712,2.703,1.959v0.912H95.45z
		 M100.152,591.671c0-0.464-0.408-0.863-1.807-0.863h-0.192c-1.399,0-1.807,0.399-1.807,0.863v0.04h3.806V591.671z M95.45,589.334
		v-2.143h0.928v1.168h1.391v-1.032h0.928v1.032h1.423v-1.191h0.927v2.166H95.45z M98.345,586.871h-0.192
		c-1.967,0-2.742-0.728-2.742-1.639c0-0.271,0.032-0.432,0.128-0.64h1.007c-0.12,0.2-0.184,0.359-0.184,0.544
		c0,0.432,0.384,0.743,1.783,0.743h0.208c1.479,0,1.783-0.312,1.783-0.76c0-0.151-0.056-0.344-0.176-0.544h0.959
		c0.128,0.225,0.168,0.44,0.168,0.72C101.087,586.191,100.296,586.871,98.345,586.871z M95.45,584.087v-0.976h2.343l-2.343-0.792
		v-1.104l2.367,0.943l3.23-0.959v1.087l-2.119,0.608l0.615,0.216h1.503v0.976H95.45z M98.345,579.687h-0.192
		c-1.807,0-2.742-0.768-2.742-1.871c0-0.296,0.064-0.544,0.16-0.743h1.016c-0.144,0.239-0.24,0.455-0.24,0.711
		c0,0.56,0.56,0.912,1.767,0.912h0.272c1.463,0,1.799-0.432,1.799-0.832c0-0.032,0-0.04-0.008-0.088h-1.431v0.479h-0.872v-1.367
		h2.975c0.152,0.353,0.24,0.64,0.24,1.016C101.087,578.879,100.296,579.687,98.345,579.687z M95.435,575.568v-1.04l5.613-1.063
		v0.976l-1.111,0.184v0.888l1.111,0.176v0.943L95.435,575.568z M99.057,574.768l-1.847,0.296l1.847,0.304V574.768z M95.45,573.167
		V572.2l2.047-0.688l-2.047-0.688v-0.968h5.597v0.936h-3.382l2.119,0.712v0.016l-2.119,0.712h3.382v0.936H95.45z M95.45,569.279
		v-2.143h0.928v1.167h1.391v-1.031h0.928v1.031h1.423v-1.19h0.927v2.166H95.45z M100.855,566.759H99.84
		c0.2-0.344,0.312-0.616,0.312-0.88c0-0.279-0.136-0.52-0.48-0.52h-0.016c-0.256,0-0.448,0.08-0.976,0.544
		c-0.751,0.663-1.111,0.936-1.791,0.936h-0.016c-0.896,0-1.463-0.584-1.463-1.359c0-0.392,0.056-0.624,0.176-0.863h1.015
		c-0.176,0.304-0.256,0.487-0.256,0.743c0,0.271,0.176,0.504,0.48,0.504h0.016c0.264,0,0.36-0.08,0.896-0.544
		c0.887-0.768,1.231-0.936,1.871-0.936h0.016c0.88,0,1.463,0.616,1.463,1.384C101.087,566.152,100.991,566.479,100.855,566.759z"/>
	<path class="st2" d="M27.355,605.221v-0.912c0-1.247,0.904-1.958,2.703-1.958h0.192c1.799,0,2.703,0.711,2.703,1.958v0.912H27.355z
		 M32.057,604.206c0-0.464-0.408-0.863-1.807-0.863h-0.192c-1.399,0-1.807,0.399-1.807,0.863v0.04h3.806V604.206z M27.355,601.869
		v-2.143h0.928v1.168h1.391v-1.032h0.928v1.032h1.423v-1.191h0.927v2.166H27.355z M30.25,599.405h-0.192
		c-1.967,0-2.742-0.728-2.742-1.639c0-0.272,0.032-0.432,0.128-0.64h1.007c-0.12,0.2-0.184,0.359-0.184,0.544
		c0,0.432,0.384,0.743,1.783,0.743h0.208c1.479,0,1.783-0.312,1.783-0.76c0-0.151-0.056-0.344-0.176-0.543h0.959
		c0.128,0.224,0.168,0.439,0.168,0.719C32.993,598.725,32.201,599.405,30.25,599.405z M27.355,596.622v-0.976h2.343l-2.343-0.792
		v-1.104l2.367,0.943l3.23-0.959v1.087l-2.119,0.608l0.615,0.216h1.503v0.976H27.355z M30.25,592.221h-0.192
		c-1.807,0-2.742-0.768-2.742-1.871c0-0.296,0.064-0.544,0.16-0.743h1.016c-0.144,0.239-0.24,0.455-0.24,0.711
		c0,0.56,0.56,0.912,1.767,0.912h0.272c1.463,0,1.799-0.432,1.799-0.832c0-0.032,0-0.04-0.008-0.088H30.65v0.479h-0.872v-1.367
		h2.975c0.152,0.353,0.24,0.64,0.24,1.016C32.993,591.414,32.201,592.221,30.25,592.221z M27.34,588.102v-1.04l5.613-1.063v0.976
		l-1.111,0.184v0.888l1.111,0.176v0.944L27.34,588.102z M30.962,587.302l-1.847,0.296l1.847,0.304V587.302z M27.355,585.702v-0.968
		l2.047-0.688l-2.047-0.688v-0.968h5.597v0.936H29.57l2.119,0.712v0.016l-2.119,0.712h3.382v0.936H27.355z M27.355,581.813v-2.143
		h0.928v1.167h1.391v-1.031h0.928v1.031h1.423v-1.191h0.927v2.167H27.355z M32.761,579.293h-1.016c0.2-0.344,0.312-0.616,0.312-0.88
		c0-0.279-0.136-0.52-0.48-0.52h-0.016c-0.256,0-0.448,0.08-0.976,0.544c-0.751,0.663-1.111,0.936-1.791,0.936h-0.016
		c-0.896,0-1.463-0.584-1.463-1.359c0-0.392,0.056-0.624,0.176-0.863h1.015c-0.176,0.304-0.256,0.487-0.256,0.743
		c0,0.271,0.176,0.504,0.48,0.504h0.016c0.264,0,0.36-0.08,0.896-0.544c0.887-0.768,1.231-0.936,1.871-0.936h0.016
		c0.88,0,1.463,0.616,1.463,1.384C32.993,578.686,32.896,579.013,32.761,579.293z"/>
	<path class="st2" d="M32.396,703.79h-0.192c-1.807,0-2.742-0.768-2.742-1.871c0-0.296,0.064-0.544,0.16-0.743h1.016
		c-0.144,0.239-0.24,0.455-0.24,0.711c0,0.56,0.56,0.912,1.767,0.912h0.272c1.463,0,1.799-0.432,1.799-0.832
		c0-0.032,0-0.04-0.008-0.088h-1.431v0.479h-0.872v-1.367h2.975c0.152,0.353,0.24,0.64,0.24,1.016
		C35.139,702.983,34.347,703.79,32.396,703.79z M32.444,700.55h-0.288c-1.847,0-2.734-0.6-2.734-1.487
		c0-0.887,0.887-1.487,2.734-1.487h0.288c1.847,0,2.734,0.601,2.734,1.487C35.179,699.951,34.291,700.55,32.444,700.55z
		 M32.444,698.568h-0.288c-1.439,0-1.839,0.199-1.839,0.495s0.399,0.496,1.839,0.496h0.288c1.439,0,1.839-0.2,1.839-0.496
		S33.883,698.568,32.444,698.568z M29.502,697.094v-0.976h4.669v-1.031h0.928v2.007H29.502z M29.502,694.695v-2.039h0.927v1.063
		h1.407v-0.928h0.927v0.928h2.335v0.976H29.502z M29.502,690.943v-0.912c0-1.247,0.903-1.958,2.702-1.958h0.192
		c1.799,0,2.703,0.711,2.703,1.958v0.912H29.502z M34.203,689.927c0-0.464-0.408-0.863-1.807-0.863h-0.192
		c-1.399,0-1.807,0.399-1.807,0.863v0.04h3.806V689.927z M29.502,687.591v-1.008c0-1,0.527-1.728,1.783-1.728h0.072
		c0.728,0,1.191,0.288,1.472,0.656l2.271-0.752v1.04l-1.951,0.631v0.185h1.951v0.976H29.502z M32.268,686.568
		c0-0.424-0.248-0.736-0.903-0.736h-0.064c-0.704,0-0.888,0.336-0.888,0.76v0.024h1.855V686.568z M29.502,684.391v-0.976h5.597
		v0.976H29.502z M29.502,683.103v-0.992l3.646-0.527l-3.646-0.527v-0.96l5.613,1v1.007L29.502,683.103z M29.502,679.783v-0.976
		h5.597v0.976H29.502z M29.502,678.215v-0.912l2.83-0.983h-2.83v-0.951h5.597v0.863l-2.966,1.031h2.966v0.952H29.502z
		 M32.396,674.887h-0.192c-1.807,0-2.742-0.768-2.742-1.871c0-0.296,0.064-0.544,0.16-0.744h1.016
		c-0.144,0.24-0.24,0.456-0.24,0.712c0,0.56,0.56,0.912,1.767,0.912h0.272c1.463,0,1.799-0.433,1.799-0.832
		c0-0.032,0-0.04-0.008-0.088h-1.431v0.479h-0.872v-1.367h2.975c0.152,0.352,0.24,0.64,0.24,1.016
		C35.139,674.08,34.347,674.887,32.396,674.887z M29.502,670.279v-0.911l2.83-0.983h-2.83v-0.951h5.597v0.863l-2.966,1.031h2.966
		v0.951H29.502z M29.502,666.855v-2.143h0.927v1.167h1.391v-1.031h0.928v1.031h1.423v-1.191h0.928v2.167H29.502z M30.429,663.696
		v0.688h-0.927v-2.351h0.927v0.688h4.669v0.976H30.429z"/>
	<path class="st2" d="M94.563,703.79h-0.192c-1.807,0-2.742-0.768-2.742-1.871c0-0.296,0.064-0.544,0.16-0.743h1.016
		c-0.144,0.239-0.24,0.455-0.24,0.711c0,0.56,0.56,0.912,1.767,0.912h0.272c1.463,0,1.799-0.432,1.799-0.832
		c0-0.032,0-0.04-0.008-0.088h-1.431v0.479h-0.872v-1.367h2.975c0.152,0.353,0.24,0.64,0.24,1.016
		C97.306,702.983,96.515,703.79,94.563,703.79z M94.611,700.55h-0.288c-1.847,0-2.734-0.6-2.734-1.487
		c0-0.887,0.887-1.487,2.734-1.487h0.288c1.847,0,2.735,0.601,2.735,1.487C97.346,699.951,96.458,700.55,94.611,700.55z
		 M94.611,698.568h-0.288c-1.439,0-1.839,0.199-1.839,0.495s0.4,0.496,1.839,0.496h0.288c1.439,0,1.839-0.2,1.839-0.496
		S96.051,698.568,94.611,698.568z M91.669,697.094v-0.976h4.67v-1.031h0.927v2.007H91.669z M91.669,694.695v-2.039h0.928v1.063
		h1.407v-0.928h0.928v0.928h2.334v0.976H91.669z M91.669,690.943v-0.912c0-1.247,0.904-1.958,2.703-1.958h0.192
		c1.799,0,2.703,0.711,2.703,1.958v0.912H91.669z M96.371,689.927c0-0.464-0.408-0.863-1.807-0.863h-0.192
		c-1.399,0-1.807,0.399-1.807,0.863v0.04h3.806V689.927z M91.669,687.591v-1.008c0-1,0.528-1.728,1.783-1.728h0.072
		c0.728,0,1.191,0.288,1.471,0.656l2.271-0.752v1.04l-1.951,0.631v0.185h1.951v0.976H91.669z M94.436,686.568
		c0-0.424-0.248-0.736-0.903-0.736h-0.064c-0.704,0-0.888,0.336-0.888,0.76v0.024h1.855V686.568z M91.669,684.391v-0.976h5.597
		v0.976H91.669z M91.669,683.103v-0.992l3.646-0.527l-3.646-0.527v-0.96l5.613,1v1.007L91.669,683.103z M91.669,679.783v-0.976
		h5.597v0.976H91.669z M91.669,678.215v-0.912l2.831-0.983h-2.831v-0.951h5.597v0.863l-2.966,1.031h2.966v0.952H91.669z
		 M94.563,674.887h-0.192c-1.807,0-2.742-0.768-2.742-1.871c0-0.296,0.064-0.544,0.16-0.744h1.016
		c-0.144,0.24-0.24,0.456-0.24,0.712c0,0.56,0.56,0.912,1.767,0.912h0.272c1.463,0,1.799-0.433,1.799-0.832
		c0-0.032,0-0.04-0.008-0.088h-1.431v0.479h-0.872v-1.367h2.975c0.152,0.352,0.24,0.64,0.24,1.016
		C97.306,674.08,96.515,674.887,94.563,674.887z M91.669,670.279v-0.911l2.831-0.983h-2.831v-0.951h5.597v0.863l-2.966,1.031h2.966
		v0.951H91.669z M91.669,666.855v-2.143h0.928v1.167h1.391v-1.031h0.928v1.031h1.423v-1.191h0.927v2.167H91.669z M92.597,663.696
		v0.688h-0.928v-2.351h0.928v0.688h4.669v0.976H92.597z"/>
	<path class="st2" d="M49.086,741.567h1l0.408,3.43l0.488-3.43h0.903l0.48,3.43l0.416-3.43h0.976l-0.848,5.612h-1.023l-0.463-3.317
		l-0.464,3.317h-1.023L49.086,741.567z M54.79,741.55h1.04l1.063,5.613h-0.975l-0.184-1.111h-0.888l-0.176,1.111h-0.943
		L54.79,741.55z M55.589,745.172l-0.295-1.847l-0.304,1.847H55.589z M57.207,741.567h0.975v5.597h-0.975V741.567z M58.774,741.567
		h0.976v2.343l0.792-2.343h1.103l-0.943,2.366l0.959,3.23h-1.087l-0.607-2.119l-0.216,0.616v1.503h-0.976V741.567z M62.014,741.567
		h0.976v5.597h-0.976V741.567z M63.582,741.567h0.975v2.343l0.792-2.343h1.103l-0.943,2.366l0.959,3.23h-1.087l-0.608-2.119
		l-0.216,0.616v1.503h-0.975V741.567z M66.822,741.567h0.976v5.597h-0.976V741.567z M69.662,741.567h0.848
		c0.943,0,1.823,0.384,1.823,1.423v0.04c0,0.72-0.408,1.071-0.808,1.264c0.472,0.208,0.879,0.535,0.879,1.247v0.072
		c0,0.991-0.768,1.551-1.855,1.551h-0.888V741.567z M70.654,743.917c0.432,0,0.72-0.248,0.72-0.735v-0.017
		c0-0.487-0.288-0.695-0.72-0.695h-0.016v1.447H70.654z M70.662,746.26c0.448,0,0.768-0.264,0.768-0.728v-0.04
		c0-0.464-0.32-0.728-0.768-0.728h-0.024v1.495H70.662z M73.558,741.55h1.039l1.063,5.613h-0.975l-0.184-1.111h-0.888l-0.176,1.111
		h-0.943L73.558,741.55z M74.357,745.172l-0.296-1.847l-0.304,1.847H74.357z M75.958,741.567h1.007c1,0,1.727,0.527,1.727,1.783
		v0.071c0,0.728-0.288,1.191-0.656,1.472l0.751,2.271h-1.039l-0.632-1.951h-0.184v1.951h-0.975V741.567z M76.982,744.333
		c0.423,0,0.735-0.248,0.735-0.904v-0.063c0-0.704-0.336-0.888-0.759-0.888h-0.024v1.855H76.982z"/>
	<path class="st2" d="M59.306,75.648v-0.636c0.215,0.125,0.385,0.195,0.551,0.195c0.175,0,0.325-0.085,0.325-0.3v-0.01
		c0-0.16-0.05-0.28-0.34-0.61c-0.416-0.471-0.585-0.696-0.585-1.121v-0.01c0-0.561,0.365-0.916,0.851-0.916
		c0.245,0,0.391,0.035,0.541,0.11v0.636c-0.19-0.11-0.305-0.16-0.465-0.16c-0.17,0-0.315,0.11-0.315,0.3v0.01
		c0,0.166,0.05,0.226,0.34,0.561c0.48,0.556,0.585,0.771,0.585,1.171v0.01c0,0.55-0.385,0.916-0.866,0.916
		C59.686,75.793,59.481,75.733,59.306,75.648z M61.256,72.845h-0.43v-0.581h1.471v0.581h-0.43v2.923h-0.611V72.845z M62.541,74.747
		v-2.482h0.606v2.542c0,0.315,0.11,0.44,0.265,0.44s0.265-0.125,0.265-0.44v-2.542h0.605v2.482c0,0.736-0.37,1.066-0.871,1.066
		S62.541,75.483,62.541,74.747z M64.631,72.265h0.571c0.781,0,1.226,0.565,1.226,1.692v0.12c0,1.126-0.445,1.691-1.226,1.691h-0.571
		V72.265z M65.267,75.207c0.291,0,0.541-0.255,0.541-1.131v-0.12c0-0.876-0.25-1.131-0.541-1.131h-0.025v2.382H65.267z
		 M66.736,72.265h0.611v3.503h-0.611V72.265z M67.656,74.106v-0.18c0-1.156,0.375-1.712,0.931-1.712
		c0.556,0,0.931,0.556,0.931,1.712v0.18c0,1.156-0.375,1.711-0.931,1.711C68.031,75.818,67.656,75.263,67.656,74.106z
		 M68.897,74.106v-0.18c0-0.901-0.125-1.151-0.31-1.151s-0.311,0.25-0.311,1.151v0.18c0,0.901,0.125,1.151,0.311,1.151
		S68.897,75.007,68.897,74.106z M58.914,76.265h0.611v2.923h0.646v0.581h-1.256V76.265z M60.228,78.106v-0.18
		c0-1.156,0.375-1.712,0.931-1.712s0.931,0.556,0.931,1.712v0.18c0,1.156-0.375,1.711-0.931,1.711S60.228,79.263,60.228,78.106z
		 M61.47,78.106v-0.18c0-0.901-0.125-1.151-0.31-1.151s-0.311,0.25-0.311,1.151v0.18c0,0.901,0.125,1.151,0.311,1.151
		S61.47,79.007,61.47,78.106z M62.379,78.747v-2.482h0.605v2.542c0,0.315,0.11,0.44,0.265,0.44s0.265-0.125,0.265-0.44v-2.542h0.606
		v2.482c0,0.736-0.371,1.066-0.871,1.066S62.379,79.483,62.379,78.747z M64.469,76.265h0.57l0.616,1.772v-1.772h0.596v3.503H65.71
		l-0.646-1.857v1.857h-0.596V76.265z M66.548,78.077v-0.12c0-1.131,0.48-1.717,1.171-1.717c0.185,0,0.34,0.04,0.465,0.1v0.635
		c-0.15-0.09-0.285-0.15-0.445-0.15c-0.351,0-0.571,0.35-0.571,1.106v0.17c0,0.916,0.271,1.126,0.521,1.126
		c0.02,0,0.025,0,0.055-0.005v-0.896h-0.3v-0.545H68.3v1.862c-0.22,0.095-0.4,0.15-0.636,0.15
		C67.054,79.793,66.548,79.297,66.548,78.077z M68.634,76.265h1.341v0.581h-0.731v0.871h0.646v0.58h-0.646v0.891h0.746v0.581h-1.356
		V76.265z"/>
</g>
<g id="POA_DECK_13_ROOMS">
	<g id="gDeck13FamilyInsideI1">
		<g id="hDeck13FamilyInsideI1">
			<g id="g13505">
				<g id="h13505">
					<rect id="b13505" x="54.135" y="98.274" class="st3" width="10.04" height="20.5"/>
					<path id="t13505" class="st2" d="M58.272,115.574l-0.473-0.28v-0.911h4.142v0.485h-3.669V115.574z M59.536,112.055
						c0-0.436-0.165-0.797-0.665-0.797c-0.417,0-0.708,0.302-0.708,0.706c0,0.366,0.236,0.619,0.593,0.673v0.501
						c-0.681-0.097-1.044-0.522-1.044-1.19c0-0.646,0.423-1.174,1.115-1.174c0.407,0,0.736,0.172,0.934,0.517
						c0.192-0.398,0.582-0.576,1.027-0.576c0.775,0,1.242,0.571,1.242,1.298c0,0.636-0.428,1.207-1.11,1.239v-0.49
						c0.407-0.048,0.659-0.398,0.659-0.786c0-0.453-0.362-0.776-0.812-0.776c-0.527,0-0.841,0.356-0.802,0.856H59.536z
						 M58.272,108.831l0.852,0.253l-0.017-0.285c0-0.787,0.687-1.304,1.45-1.304c0.874,0,1.472,0.668,1.472,1.503
						c0,0.501-0.269,1.002-0.725,1.239l-0.362-0.377c0.352-0.124,0.615-0.539,0.615-0.899c0-0.55-0.462-0.98-1.017-0.98
						c-0.533,0-0.983,0.447-0.983,0.97c0,0.285,0.138,0.582,0.368,0.759v0.097l-2.126-0.625v-1.627h0.473V108.831z M59.871,107.058
						c-0.852,0-2.159-0.366-2.159-1.417s1.308-1.417,2.159-1.417c0.846,0,2.159,0.372,2.159,1.417S60.716,107.058,59.871,107.058z
						 M59.865,106.573c0.571,0,1.703-0.205,1.703-0.932s-1.132-0.932-1.703-0.932s-1.714,0.205-1.714,0.932
						S59.293,106.573,59.865,106.573z M58.272,102.518l0.852,0.253l-0.017-0.285c0-0.787,0.687-1.304,1.45-1.304
						c0.874,0,1.472,0.668,1.472,1.503c0,0.501-0.269,1.002-0.725,1.239l-0.362-0.377c0.352-0.124,0.615-0.539,0.615-0.899
						c0-0.55-0.462-0.98-1.017-0.98c-0.533,0-0.983,0.447-0.983,0.97c0,0.285,0.138,0.582,0.368,0.759v0.097l-2.126-0.625v-1.627
						h0.473V102.518z"/>
				</g>
			</g>
			<g id="g13005">
				<g id="h13005">
					<rect id="b13005" x="64.078" y="98.274" class="st3" width="10.557" height="20.5"/>
					<path id="t13005" class="st2" d="M67.904,115.594l-0.473-0.28v-0.911h4.142v0.485h-3.669V115.594z M69.168,112.075
						c0-0.436-0.165-0.797-0.665-0.797c-0.417,0-0.708,0.302-0.708,0.706c0,0.366,0.236,0.619,0.593,0.673v0.501
						c-0.681-0.097-1.044-0.522-1.044-1.19c0-0.646,0.423-1.174,1.115-1.174c0.407,0,0.736,0.172,0.934,0.517
						c0.192-0.398,0.582-0.576,1.027-0.576c0.775,0,1.242,0.571,1.242,1.298c0,0.636-0.428,1.207-1.11,1.239v-0.49
						c0.407-0.048,0.659-0.398,0.659-0.786c0-0.453-0.362-0.776-0.812-0.776c-0.527,0-0.841,0.356-0.802,0.856H69.168z
						 M69.503,110.187c-0.852,0-2.159-0.366-2.159-1.417s1.308-1.417,2.159-1.417c0.846,0,2.159,0.372,2.159,1.417
						S70.349,110.187,69.503,110.187z M69.497,109.702c0.571,0,1.703-0.205,1.703-0.932s-1.132-0.932-1.703-0.932
						s-1.714,0.205-1.714,0.932S68.926,109.702,69.497,109.702z M69.503,106.878c-0.852,0-2.159-0.366-2.159-1.417
						s1.308-1.417,2.159-1.417c0.846,0,2.159,0.372,2.159,1.417S70.349,106.878,69.503,106.878z M69.497,106.393
						c0.571,0,1.703-0.205,1.703-0.932s-1.132-0.932-1.703-0.932s-1.714,0.205-1.714,0.932S68.926,106.393,69.497,106.393z
						 M67.904,102.339l0.852,0.253l-0.017-0.285c0-0.787,0.687-1.304,1.45-1.304c0.874,0,1.472,0.668,1.472,1.503
						c0,0.501-0.269,1.002-0.725,1.239l-0.362-0.377c0.352-0.124,0.615-0.539,0.615-0.899c0-0.55-0.462-0.98-1.017-0.98
						c-0.533,0-0.983,0.447-0.983,0.97c0,0.285,0.138,0.582,0.368,0.759v0.097l-2.126-0.625v-1.627h0.473V102.339z"/>
				</g>
			</g>
			<g id="g13507">
				<g id="h13507">
					<rect id="b13507" x="54.135" y="118.899" class="st3" width="10.04" height="20.5"/>
					<path id="t13507" class="st2" d="M58.271,135.86l-0.473-0.28v-0.911h4.142v0.485h-3.669V135.86z M59.535,132.341
						c0-0.436-0.165-0.797-0.665-0.797c-0.417,0-0.708,0.302-0.708,0.706c0,0.366,0.236,0.619,0.593,0.673v0.501
						c-0.681-0.097-1.044-0.522-1.044-1.19c0-0.646,0.423-1.174,1.115-1.174c0.407,0,0.736,0.172,0.934,0.517
						c0.192-0.398,0.582-0.576,1.027-0.576c0.775,0,1.242,0.571,1.242,1.298c0,0.636-0.428,1.207-1.11,1.239v-0.49
						c0.407-0.048,0.659-0.398,0.659-0.786c0-0.453-0.362-0.776-0.812-0.776c-0.527,0-0.841,0.356-0.802,0.856H59.535z
						 M58.271,129.117l0.852,0.253l-0.017-0.285c0-0.787,0.687-1.304,1.45-1.304c0.874,0,1.472,0.668,1.472,1.503
						c0,0.501-0.269,1.002-0.725,1.239l-0.362-0.377c0.352-0.124,0.615-0.539,0.615-0.899c0-0.55-0.462-0.98-1.017-0.98
						c-0.533,0-0.983,0.447-0.983,0.97c0,0.285,0.138,0.582,0.368,0.759v0.097l-2.126-0.625v-1.627h0.473V129.117z M59.87,127.344
						c-0.852,0-2.159-0.366-2.159-1.417s1.308-1.417,2.159-1.417c0.846,0,2.159,0.372,2.159,1.417S60.716,127.344,59.87,127.344z
						 M59.864,126.859c0.571,0,1.703-0.205,1.703-0.932s-1.132-0.932-1.703-0.932s-1.714,0.205-1.714,0.932
						S59.293,126.859,59.864,126.859z M58.271,124.211h-0.473v-2.925l4.23,2.531l-0.247,0.394l-3.51-2.101V124.211z"/>
				</g>
			</g>
			<g id="g13007">
				<g id="h13007">
					<rect id="b13007" x="64.078" y="118.899" class="st3" width="10.557" height="20.5"/>
					<path id="t13007" class="st2" d="M67.904,135.959l-0.473-0.28v-0.911h4.142v0.485h-3.669V135.959z M69.168,132.44
						c0-0.436-0.165-0.797-0.665-0.797c-0.417,0-0.708,0.302-0.708,0.706c0,0.366,0.236,0.619,0.593,0.673v0.501
						c-0.681-0.097-1.044-0.522-1.044-1.19c0-0.646,0.423-1.174,1.115-1.174c0.407,0,0.736,0.172,0.934,0.517
						c0.192-0.398,0.582-0.576,1.027-0.576c0.775,0,1.242,0.571,1.242,1.298c0,0.636-0.428,1.207-1.11,1.239v-0.49
						c0.407-0.048,0.659-0.398,0.659-0.786c0-0.453-0.362-0.776-0.812-0.776c-0.527,0-0.841,0.356-0.802,0.856H69.168z
						 M69.503,130.553c-0.852,0-2.159-0.366-2.159-1.417s1.308-1.417,2.159-1.417c0.846,0,2.159,0.372,2.159,1.417
						S70.349,130.553,69.503,130.553z M69.497,130.068c0.571,0,1.703-0.205,1.703-0.932s-1.132-0.932-1.703-0.932
						s-1.714,0.205-1.714,0.932S68.926,130.068,69.497,130.068z M69.503,127.244c-0.852,0-2.159-0.366-2.159-1.417
						s1.308-1.417,2.159-1.417c0.846,0,2.159,0.372,2.159,1.417S70.349,127.244,69.503,127.244z M69.497,126.759
						c0.571,0,1.703-0.205,1.703-0.932s-1.132-0.932-1.703-0.932s-1.714,0.205-1.714,0.932S68.926,126.759,69.497,126.759z
						 M67.904,124.111h-0.473v-2.925l4.23,2.531l-0.247,0.394l-3.51-2.101V124.111z"/>
				</g>
			</g>
		</g>
	</g>
	<g id="gDeck13StudioInsideT1">
		<g id="hDeck13StudioInsideT1">
			<g id="g13503">
				<g id="h13503">
					<rect id="b13503" x="54.135" y="80.482" class="st3" width="10.04" height="16.792"/>
					<path id="t13503" class="st2" d="M58.272,95.85l-0.473-0.28v-0.911h4.142v0.485h-3.669V95.85z M59.536,92.331
						c0-0.436-0.165-0.797-0.665-0.797c-0.417,0-0.708,0.302-0.708,0.706c0,0.366,0.236,0.619,0.593,0.673v0.501
						c-0.681-0.097-1.044-0.522-1.044-1.19c0-0.646,0.423-1.174,1.115-1.174c0.407,0,0.736,0.172,0.934,0.517
						c0.192-0.398,0.582-0.576,1.027-0.576c0.775,0,1.242,0.571,1.242,1.298c0,0.636-0.428,1.207-1.11,1.239v-0.49
						c0.407-0.049,0.659-0.399,0.659-0.787c0-0.453-0.362-0.776-0.812-0.776c-0.527,0-0.841,0.355-0.802,0.856H59.536z
						 M58.272,89.107l0.852,0.253l-0.017-0.285c0-0.787,0.687-1.304,1.45-1.304c0.874,0,1.472,0.668,1.472,1.503
						c0,0.501-0.269,1.002-0.725,1.239l-0.362-0.377c0.352-0.124,0.615-0.539,0.615-0.899c0-0.55-0.462-0.98-1.017-0.98
						c-0.533,0-0.983,0.447-0.983,0.97c0,0.285,0.138,0.582,0.368,0.759v0.097l-2.126-0.625v-1.626h0.473V89.107z M59.871,87.334
						c-0.852,0-2.159-0.366-2.159-1.417s1.308-1.417,2.159-1.417c0.846,0,2.159,0.372,2.159,1.417S60.716,87.334,59.871,87.334z
						 M59.865,86.849c0.571,0,1.703-0.205,1.703-0.932s-1.132-0.932-1.703-0.932s-1.714,0.205-1.714,0.932
						S59.293,86.849,59.865,86.849z M59.536,82.877c0-0.436-0.165-0.797-0.665-0.797c-0.417,0-0.708,0.302-0.708,0.706
						c0,0.366,0.236,0.619,0.593,0.673v0.501c-0.681-0.097-1.044-0.522-1.044-1.19c0-0.646,0.423-1.174,1.115-1.174
						c0.407,0,0.736,0.172,0.934,0.517c0.192-0.398,0.582-0.576,1.027-0.576c0.775,0,1.242,0.571,1.242,1.298
						c0,0.636-0.428,1.207-1.11,1.239v-0.49c0.407-0.048,0.659-0.398,0.659-0.786c0-0.453-0.362-0.776-0.812-0.776
						c-0.527,0-0.841,0.356-0.802,0.856H59.536z"/>
				</g>
			</g>
			<g id="g13003">
				<g id="h13003">
					<rect id="b13003" x="64.078" y="80.482" class="st3" width="10.557" height="16.792"/>
					<path id="t13003" class="st2" d="M67.904,95.95l-0.473-0.28v-0.911h4.142v0.485h-3.669V95.95z M69.168,92.431
						c0-0.436-0.165-0.797-0.665-0.797c-0.417,0-0.708,0.302-0.708,0.706c0,0.366,0.236,0.619,0.593,0.673v0.501
						c-0.681-0.097-1.044-0.522-1.044-1.19c0-0.646,0.423-1.174,1.115-1.174c0.407,0,0.736,0.172,0.934,0.517
						c0.192-0.398,0.582-0.576,1.027-0.576c0.775,0,1.242,0.571,1.242,1.298c0,0.636-0.428,1.207-1.11,1.239v-0.49
						c0.407-0.048,0.659-0.398,0.659-0.786c0-0.453-0.362-0.776-0.812-0.776c-0.527,0-0.841,0.356-0.802,0.856H69.168z
						 M69.503,90.543c-0.852,0-2.159-0.366-2.159-1.417s1.308-1.417,2.159-1.417c0.846,0,2.159,0.372,2.159,1.417
						S70.349,90.543,69.503,90.543z M69.497,90.058c0.571,0,1.703-0.205,1.703-0.932s-1.132-0.932-1.703-0.932
						s-1.714,0.205-1.714,0.932S68.926,90.058,69.497,90.058z M69.503,87.234c-0.852,0-2.159-0.366-2.159-1.417
						s1.308-1.417,2.159-1.417c0.846,0,2.159,0.372,2.159,1.417S70.349,87.234,69.503,87.234z M69.497,86.749
						c0.571,0,1.703-0.205,1.703-0.932s-1.132-0.932-1.703-0.932s-1.714,0.205-1.714,0.932S68.926,86.749,69.497,86.749z
						 M69.168,82.778c0-0.436-0.165-0.797-0.665-0.797c-0.417,0-0.708,0.302-0.708,0.706c0,0.366,0.236,0.619,0.593,0.673v0.501
						c-0.681-0.097-1.044-0.522-1.044-1.19c0-0.646,0.423-1.174,1.115-1.174c0.407,0,0.736,0.172,0.934,0.517
						c0.192-0.398,0.582-0.576,1.027-0.576c0.775,0,1.242,0.571,1.242,1.298c0,0.636-0.428,1.207-1.11,1.239v-0.49
						c0.407-0.049,0.659-0.399,0.659-0.787c0-0.453-0.362-0.776-0.812-0.776c-0.527,0-0.841,0.355-0.802,0.856H69.168z"/>
				</g>
			</g>
			<g id="g13501">
				<g id="h13501">
					<rect id="b13501" x="54.135" y="53.605" class="st3" width="10.04" height="16.792"/>
					<path id="t13501" class="st2" d="M58.271,68.833l-0.473-0.28v-0.911h4.142v0.485h-3.669V68.833z M59.535,65.314
						c0-0.436-0.165-0.797-0.665-0.797c-0.417,0-0.708,0.302-0.708,0.706c0,0.366,0.236,0.619,0.593,0.673v0.501
						c-0.681-0.097-1.044-0.522-1.044-1.19c0-0.646,0.423-1.174,1.115-1.174c0.407,0,0.736,0.172,0.934,0.517
						c0.192-0.398,0.582-0.576,1.027-0.576c0.775,0,1.242,0.571,1.242,1.298c0,0.636-0.428,1.207-1.11,1.239v-0.49
						c0.407-0.049,0.659-0.399,0.659-0.787c0-0.453-0.362-0.776-0.812-0.776c-0.527,0-0.841,0.355-0.802,0.856H59.535z
						 M58.271,62.09l0.852,0.253l-0.017-0.285c0-0.787,0.687-1.304,1.45-1.304c0.874,0,1.472,0.668,1.472,1.503
						c0,0.501-0.269,1.002-0.725,1.239l-0.362-0.377c0.352-0.124,0.615-0.539,0.615-0.899c0-0.55-0.462-0.98-1.017-0.98
						c-0.533,0-0.983,0.447-0.983,0.97c0,0.285,0.138,0.582,0.368,0.759v0.097l-2.126-0.625v-1.626h0.473V62.09z M59.87,60.317
						c-0.852,0-2.159-0.366-2.159-1.417s1.308-1.417,2.159-1.417c0.846,0,2.159,0.372,2.159,1.417S60.716,60.317,59.87,60.317z
						 M59.864,59.832c0.571,0,1.703-0.205,1.703-0.932s-1.132-0.932-1.703-0.932s-1.714,0.205-1.714,0.932
						S59.293,59.832,59.864,59.832z M58.271,56.958l-0.473-0.28v-0.911h4.142v0.485h-3.669V56.958z"/>
				</g>
			</g>
			<g id="g13001">
				<g id="h13001">
					<rect id="b13001" x="64.078" y="53.605" class="st3" width="10.557" height="16.792"/>
					<path id="t13001" class="st2" d="M67.904,68.548l-0.473-0.28v-0.911h4.142v0.485h-3.669V68.548z M69.168,65.029
						c0-0.436-0.165-0.797-0.665-0.797c-0.417,0-0.708,0.302-0.708,0.706c0,0.366,0.236,0.619,0.593,0.673v0.501
						c-0.681-0.097-1.044-0.522-1.044-1.19c0-0.646,0.423-1.174,1.115-1.174c0.407,0,0.736,0.172,0.934,0.517
						c0.192-0.398,0.582-0.576,1.027-0.576c0.775,0,1.242,0.571,1.242,1.298c0,0.636-0.428,1.207-1.11,1.239v-0.49
						c0.407-0.048,0.659-0.398,0.659-0.786c0-0.453-0.362-0.776-0.812-0.776c-0.527,0-0.841,0.356-0.802,0.856H69.168z
						 M69.503,63.142c-0.852,0-2.159-0.366-2.159-1.417s1.308-1.417,2.159-1.417c0.846,0,2.159,0.372,2.159,1.417
						S70.349,63.142,69.503,63.142z M69.497,62.657c0.571,0,1.703-0.205,1.703-0.932s-1.132-0.932-1.703-0.932
						s-1.714,0.205-1.714,0.932S68.926,62.657,69.497,62.657z M69.503,59.833c-0.852,0-2.159-0.366-2.159-1.417S68.651,57,69.503,57
						c0.846,0,2.159,0.372,2.159,1.417S70.349,59.833,69.503,59.833z M69.497,59.348c0.571,0,1.703-0.205,1.703-0.932
						s-1.132-0.932-1.703-0.932s-1.714,0.205-1.714,0.932S68.926,59.348,69.497,59.348z M67.904,56.475l-0.473-0.28v-0.911h4.142
						v0.485h-3.669V56.475z"/>
				</g>
			</g>
		</g>
	</g>
	<g id="gDeck13PenthouseLargeBalconySE">
		<g id="hDeck13PenthouseLargeBalconySE">
			<g id="g13012">
				<g id="h13012">
					<polygon id="b13012" class="st3" points="79.046,176.968 89.152,176.968 89.152,180.716 89.139,180.731 108.611,180.731 
						108.584,160.199 79.034,160.199 					"/>
					<path id="t13012" class="st2" d="M87.203,166.504l0.28-0.472h0.91v4.142h-0.485v-3.669H87.203z M90.722,167.767
						c0.436,0,0.797-0.165,0.797-0.665c0-0.417-0.302-0.708-0.706-0.708c-0.366,0-0.619,0.236-0.673,0.593h-0.501
						c0.097-0.681,0.522-1.043,1.19-1.043c0.646,0,1.174,0.423,1.174,1.115c0,0.407-0.172,0.736-0.517,0.934
						c0.399,0.192,0.577,0.582,0.577,1.027c0,0.774-0.571,1.241-1.298,1.241c-0.636,0-1.207-0.429-1.239-1.109h0.49
						c0.048,0.406,0.398,0.659,0.786,0.659c0.453,0,0.776-0.363,0.776-0.813c0-0.527-0.355-0.84-0.856-0.802V167.767z
						 M92.609,168.102c0-0.852,0.366-2.159,1.417-2.159c1.051,0,1.417,1.307,1.417,2.159c0,0.846-0.372,2.159-1.417,2.159
						C92.981,170.261,92.609,168.948,92.609,168.102z M93.094,168.097c0,0.571,0.205,1.703,0.932,1.703
						c0.728,0,0.932-1.131,0.932-1.703s-0.205-1.714-0.932-1.714C93.299,166.383,93.094,167.526,93.094,168.097z M95.968,166.504
						l0.28-0.472h0.911v4.142h-0.485v-3.669H95.968z M100.864,169.701v0.473h-2.623l1.777-2.225
						c0.167-0.209,0.361-0.467,0.361-0.742c0-0.434-0.377-0.791-0.797-0.791c-0.415,0-0.754,0.34-0.781,0.758h-0.506
						c0.081-0.736,0.55-1.23,1.288-1.23c0.689,0,1.282,0.521,1.282,1.241c0,0.308-0.113,0.615-0.301,0.852l-1.336,1.664H100.864z"/>
				</g>
			</g>
			<g id="g13010">
				<g id="h13010">
					<polygon id="b13010" class="st3" points="79.034,160.199 108.584,160.199 108.584,159.762 108.545,139.377 79.018,139.437 
											"/>
					<line id="d13010" class="st4" x1="79.352" y1="139.377" x2="108.251" y2="139.377"/>
					<path id="t13010" class="st2" d="M87.007,148.503l0.28-0.473h0.911v4.142h-0.485v-3.669H87.007z M90.526,149.767
						c0.436,0,0.797-0.165,0.797-0.665c0-0.417-0.302-0.708-0.706-0.708c-0.366,0-0.619,0.236-0.673,0.593h-0.501
						c0.097-0.681,0.522-1.044,1.19-1.044c0.646,0,1.174,0.423,1.174,1.115c0,0.407-0.172,0.736-0.517,0.934
						c0.398,0.192,0.576,0.582,0.576,1.027c0,0.775-0.571,1.242-1.298,1.242c-0.636,0-1.207-0.428-1.239-1.11h0.49
						c0.048,0.407,0.398,0.659,0.786,0.659c0.453,0,0.776-0.362,0.776-0.812c0-0.527-0.355-0.841-0.856-0.802V149.767z
						 M92.414,150.102c0-0.852,0.366-2.159,1.417-2.159s1.417,1.308,1.417,2.159c0,0.846-0.372,2.159-1.417,2.159
						S92.414,150.948,92.414,150.102z M92.899,150.096c0,0.571,0.205,1.703,0.932,1.703s0.932-1.132,0.932-1.703
						s-0.205-1.714-0.932-1.714S92.899,149.525,92.899,150.096z M95.772,148.503l0.28-0.473h0.91v4.142h-0.484v-3.669H95.772z
						 M98.118,150.102c0-0.852,0.366-2.159,1.417-2.159s1.417,1.308,1.417,2.159c0,0.846-0.372,2.159-1.417,2.159
						S98.118,150.948,98.118,150.102z M98.602,150.096c0,0.571,0.205,1.703,0.932,1.703s0.932-1.132,0.932-1.703
						s-0.205-1.714-0.932-1.714S98.602,149.525,98.602,150.096z"/>
				</g>
			</g>
			<g id="g13508">
				<g id="h13508">
					<polygon id="b13508" class="st3" points="48.609,118.834 19.061,118.58 18.885,139.037 48.485,139.101 48.487,138.303 					"/>
					<line id="d13508" class="st4" x1="19.274" y1="139.101" x2="48.173" y2="139.101"/>
					<path id="t13508" class="st2" d="M26.709,127.27l0.284-0.47l0.91,0.008l-0.036,4.142l-0.484-0.004l0.031-3.669L26.709,127.27z
						 M30.217,128.564c0.436,0.004,0.798-0.158,0.803-0.658c0.003-0.417-0.295-0.711-0.7-0.715
						c-0.366-0.003-0.621,0.231-0.678,0.587l-0.501-0.004c0.103-0.68,0.532-1.039,1.199-1.033c0.646,0.005,1.171,0.433,1.165,1.125
						c-0.003,0.407-0.179,0.735-0.525,0.93c0.397,0.195,0.571,0.587,0.567,1.032c-0.006,0.775-0.582,1.237-1.309,1.23
						c-0.636-0.005-1.203-0.439-1.229-1.12l0.49,0.004c0.045,0.407,0.393,0.663,0.781,0.666c0.453,0.004,0.779-0.356,0.783-0.806
						c0.004-0.527-0.348-0.843-0.85-0.81L30.217,128.564z M33.452,127.328l-0.261,0.85l0.286-0.014
						c0.787,0.007,1.297,0.698,1.291,1.461c-0.007,0.873-0.681,1.466-1.516,1.459c-0.5-0.004-1-0.278-1.232-0.736l0.38-0.359
						c0.121,0.353,0.533,0.62,0.894,0.623c0.549,0.005,0.984-0.453,0.989-1.008c0.005-0.533-0.438-0.987-0.961-0.991
						c-0.285-0.002-0.583,0.132-0.763,0.361l-0.097-0.001l0.643-2.12l1.626,0.014l-0.004,0.473L33.452,127.328z M35.211,128.942
						c0.007-0.851,0.385-2.155,1.435-2.146c1.05,0.009,1.405,1.319,1.398,2.171c-0.007,0.846-0.39,2.156-1.435,2.146
						C35.564,131.104,35.204,129.788,35.211,128.942z M35.695,128.94c-0.005,0.571,0.19,1.705,0.917,1.711s0.941-1.124,0.946-1.695
						s-0.19-1.715-0.917-1.722S35.701,128.37,35.695,128.94z M39.217,128.899c-0.332-0.195-0.528-0.526-0.525-0.933
						c0.006-0.676,0.527-1.149,1.173-1.144c0.646,0.005,1.159,0.488,1.153,1.164c-0.003,0.406-0.206,0.734-0.541,0.923
						c0.418,0.152,0.636,0.555,0.632,1c-0.007,0.769-0.592,1.236-1.282,1.23s-1.267-0.483-1.261-1.252
						C38.571,129.443,38.795,129.044,39.217,128.899z M39.052,129.893c-0.003,0.417,0.381,0.783,0.78,0.787s0.79-0.356,0.793-0.773
						c0.004-0.439-0.37-0.783-0.78-0.787C39.436,129.116,39.056,129.453,39.052,129.893z M39.165,127.971
						c-0.002,0.33,0.344,0.706,0.684,0.709s0.693-0.368,0.695-0.697c0.003-0.396-0.317-0.717-0.683-0.72
						C39.495,127.259,39.169,127.575,39.165,127.971z"/>
				</g>
			</g>
			<g id="g13008">
				<g id="h13008">
					<polygon id="b13008" class="st3" points="79.003,118.554 79.018,139.317 108.545,139.377 108.505,118.554 					"/>
					<line id="d13008" class="st4" x1="79.352" y1="139.377" x2="108.251" y2="139.377"/>
					<path id="t13008" class="st2" d="M86.595,127.211l0.28-0.473h0.911v4.142h-0.485v-3.669H86.595z M90.114,128.475
						c0.436,0,0.797-0.165,0.797-0.665c0-0.417-0.301-0.708-0.706-0.708c-0.366,0-0.619,0.236-0.673,0.593h-0.501
						c0.097-0.681,0.522-1.044,1.19-1.044c0.646,0,1.174,0.423,1.174,1.115c0,0.407-0.172,0.736-0.517,0.934
						c0.398,0.192,0.576,0.582,0.576,1.027c0,0.775-0.571,1.242-1.298,1.242c-0.636,0-1.207-0.428-1.239-1.11h0.49
						c0.048,0.407,0.398,0.659,0.786,0.659c0.453,0,0.776-0.362,0.776-0.812c0-0.527-0.355-0.841-0.856-0.802V128.475z
						 M92.002,128.81c0-0.852,0.366-2.159,1.417-2.159s1.417,1.308,1.417,2.159c0,0.846-0.372,2.159-1.417,2.159
						S92.002,129.656,92.002,128.81z M92.487,128.804c0,0.571,0.205,1.703,0.932,1.703s0.932-1.132,0.932-1.703
						s-0.205-1.714-0.932-1.714S92.487,128.233,92.487,128.804z M95.31,128.81c0-0.852,0.367-2.159,1.417-2.159
						s1.417,1.308,1.417,2.159c0,0.846-0.372,2.159-1.417,2.159S95.31,129.656,95.31,128.81z M95.795,128.804
						c0,0.571,0.205,1.703,0.932,1.703c0.727,0,0.932-1.132,0.932-1.703s-0.205-1.714-0.932-1.714
						C95.999,127.09,95.795,128.233,95.795,128.804z M99.316,128.733c-0.334-0.192-0.533-0.521-0.533-0.928
						c0-0.676,0.517-1.154,1.164-1.154s1.164,0.478,1.164,1.154c0,0.407-0.199,0.736-0.533,0.928
						c0.42,0.148,0.641,0.549,0.641,0.994c0,0.77-0.582,1.242-1.271,1.242s-1.271-0.472-1.271-1.242
						C98.675,129.282,98.896,128.881,99.316,128.733z M99.16,129.727c0,0.418,0.388,0.78,0.787,0.78s0.787-0.362,0.787-0.78
						c0-0.439-0.377-0.78-0.787-0.78S99.16,129.288,99.16,129.727z M99.257,127.805c0,0.33,0.35,0.703,0.689,0.703
						s0.689-0.374,0.689-0.703c0-0.396-0.323-0.714-0.689-0.714S99.257,127.409,99.257,127.805z"/>
				</g>
			</g>
			<g id="g13506">
				<g id="h13506">
					<polygon id="b13506" class="st3" points="48.474,98.012 18.972,98.012 18.972,118.706 48.522,118.706 					"/>
					<line id="d13506" class="st4" x1="19.195" y1="98.012" x2="48.136" y2="98.012"/>
					<path id="t13506" class="st2" d="M26.715,106.867l0.28-0.473h0.91v4.142H27.42v-3.669H26.715z M30.234,108.13
						c0.436,0,0.797-0.165,0.797-0.665c0-0.417-0.302-0.708-0.706-0.708c-0.366,0-0.619,0.236-0.673,0.593h-0.501
						c0.097-0.681,0.522-1.044,1.19-1.044c0.646,0,1.174,0.423,1.174,1.115c0,0.407-0.172,0.736-0.517,0.934
						c0.399,0.192,0.577,0.582,0.577,1.027c0,0.775-0.571,1.242-1.298,1.242c-0.635,0-1.207-0.428-1.239-1.11h0.49
						c0.048,0.407,0.398,0.659,0.786,0.659c0.453,0,0.776-0.362,0.776-0.812c0-0.527-0.355-0.841-0.856-0.802V108.13z
						 M33.457,106.867l-0.253,0.852l0.286-0.017c0.787,0,1.304,0.687,1.304,1.45c0,0.874-0.668,1.472-1.503,1.472
						c-0.501,0-1.002-0.269-1.239-0.725l0.377-0.362c0.124,0.352,0.539,0.615,0.899,0.615c0.549,0,0.98-0.462,0.98-1.017
						c0-0.533-0.447-0.983-0.97-0.983c-0.285,0-0.582,0.138-0.759,0.368h-0.097l0.625-2.126h1.626v0.473H33.457z M35.23,108.465
						c0-0.852,0.366-2.159,1.417-2.159c1.051,0,1.417,1.308,1.417,2.159c0,0.846-0.372,2.159-1.417,2.159
						C35.602,110.624,35.23,109.311,35.23,108.465z M35.715,108.459c0,0.571,0.205,1.703,0.932,1.703
						c0.728,0,0.932-1.132,0.932-1.703s-0.205-1.714-0.932-1.714C35.92,106.746,35.715,107.888,35.715,108.459z M40.686,106.559
						l-1.083,1.494l0.011,0.011c0.119-0.06,0.253-0.099,0.399-0.099c0.668,0,1.174,0.632,1.174,1.296
						c0,0.758-0.604,1.362-1.341,1.362c-0.7,0-1.352-0.593-1.352-1.324c0-0.417,0.205-0.769,0.442-1.093l1.384-1.901L40.686,106.559
						z M40.703,109.317c0-0.517-0.431-0.89-0.862-0.89c-0.442,0-0.862,0.412-0.862,0.862c0,0.478,0.398,0.874,0.862,0.874
						C40.293,110.163,40.703,109.778,40.703,109.317z"/>
				</g>
			</g>
			<g id="g13006">
				<g id="h13006">
					<polygon id="b13006" class="st5" points="108.465,97.948 78.987,97.948 79.003,118.554 108.505,118.554 					"/>
					<line id="d13006" class="st4" x1="79.278" y1="97.948" x2="108.177" y2="97.948"/>
					<path id="t13006" class="st2" d="M86.611,105.751l0.28-0.472h0.911v4.142h-0.485v-3.669H86.611z M90.13,107.014
						c0.436,0,0.797-0.165,0.797-0.665c0-0.417-0.301-0.708-0.706-0.708c-0.366,0-0.619,0.236-0.673,0.593h-0.501
						c0.097-0.681,0.522-1.043,1.19-1.043c0.646,0,1.174,0.423,1.174,1.115c0,0.407-0.172,0.736-0.517,0.934
						c0.398,0.192,0.577,0.582,0.577,1.027c0,0.774-0.571,1.241-1.298,1.241c-0.636,0-1.207-0.429-1.239-1.109h0.49
						c0.048,0.406,0.398,0.659,0.786,0.659c0.453,0,0.776-0.363,0.776-0.813c0-0.527-0.355-0.84-0.856-0.802V107.014z
						 M92.018,107.35c0-0.852,0.366-2.159,1.417-2.159s1.417,1.307,1.417,2.159c0,0.846-0.372,2.159-1.417,2.159
						S92.018,108.195,92.018,107.35z M92.502,107.344c0,0.571,0.205,1.703,0.932,1.703c0.728,0,0.932-1.131,0.932-1.703
						s-0.205-1.714-0.932-1.714C92.707,105.63,92.502,106.773,92.502,107.344z M95.326,107.35c0-0.852,0.367-2.159,1.417-2.159
						s1.417,1.307,1.417,2.159c0,0.846-0.372,2.159-1.417,2.159S95.326,108.195,95.326,107.35z M95.811,107.344
						c0,0.571,0.205,1.703,0.932,1.703c0.727,0,0.932-1.131,0.932-1.703s-0.205-1.714-0.932-1.714
						C96.015,105.63,95.811,106.773,95.811,107.344z M100.782,105.443l-1.083,1.494l0.011,0.011
						c0.118-0.061,0.253-0.099,0.398-0.099c0.668,0,1.174,0.632,1.174,1.296c0,0.758-0.604,1.362-1.341,1.362
						c-0.7,0-1.352-0.593-1.352-1.324c0-0.417,0.205-0.769,0.442-1.093l1.384-1.9L100.782,105.443z M100.798,108.201
						c0-0.516-0.431-0.89-0.862-0.89c-0.442,0-0.862,0.412-0.862,0.862c0,0.478,0.398,0.874,0.862,0.874
						C100.389,109.047,100.798,108.663,100.798,108.201z"/>
				</g>
			</g>
			<g id="g13504">
				<g id="h13504">
					<polygon id="b13504" class="st6" points="48.426,77.499 18.972,77.645 18.972,98.012 48.474,98.012 					"/>
					<line id="d13504" class="st7" x1="19.195" y1="98.012" x2="48.136" y2="98.012"/>
					<path id="t13504" class="st2" d="M26.729,86.757l0.28-0.481h0.911v4.222h-0.485v-3.741H26.729z M30.248,88.045
						c0.436,0,0.797-0.168,0.797-0.678c0-0.426-0.302-0.723-0.706-0.723c-0.366,0-0.619,0.241-0.673,0.605h-0.501
						c0.097-0.694,0.522-1.064,1.19-1.064c0.646,0,1.174,0.431,1.174,1.137c0,0.415-0.172,0.75-0.517,0.952
						c0.398,0.196,0.576,0.594,0.576,1.047c0,0.79-0.571,1.265-1.298,1.265c-0.636,0-1.207-0.437-1.239-1.131h0.49
						c0.048,0.414,0.398,0.672,0.786,0.672c0.453,0,0.776-0.37,0.776-0.829c0-0.538-0.356-0.857-0.856-0.818V88.045z M33.472,86.757
						l-0.253,0.868l0.285-0.017c0.787,0,1.304,0.7,1.304,1.479c0,0.89-0.668,1.5-1.503,1.5c-0.501,0-1.002-0.274-1.239-0.739
						l0.377-0.37c0.124,0.358,0.539,0.627,0.899,0.627c0.55,0,0.98-0.47,0.98-1.036c0-0.543-0.447-1.002-0.97-1.002
						c-0.285,0-0.582,0.14-0.759,0.375h-0.097l0.625-2.167h1.627v0.481H33.472z M35.245,88.387c0-0.868,0.366-2.201,1.417-2.201
						s1.417,1.333,1.417,2.201c0,0.862-0.372,2.201-1.417,2.201S35.245,89.249,35.245,88.387z M35.73,88.381
						c0,0.583,0.205,1.736,0.932,1.736s0.932-1.153,0.932-1.736s-0.205-1.747-0.932-1.747S35.73,87.799,35.73,88.381z
						 M41.253,89.423v0.459H40.79v0.616h-0.485v-0.616h-2.004l2.489-3.785v3.326H41.253z M40.306,87.681h-0.011l-1.142,1.742h1.153
						V87.681z"/>
				</g>
			</g>
			<g id="g13004">
				<g id="h13004">
					<polygon id="b13004" class="st8" points="108.446,77.572 78.992,77.766 78.987,97.948 108.465,97.948 					"/>
					<line id="d13004" class="st4" x1="79.278" y1="97.948" x2="108.177" y2="97.948"/>
					<path id="t13004" class="st2" d="M86.625,86.608l0.28-0.473h0.91v4.142h-0.484v-3.669H86.625z M90.144,87.872
						c0.436,0,0.797-0.165,0.797-0.665c0-0.417-0.302-0.708-0.706-0.708c-0.366,0-0.62,0.236-0.673,0.593h-0.501
						c0.097-0.681,0.522-1.044,1.19-1.044c0.646,0,1.174,0.423,1.174,1.115c0,0.407-0.172,0.736-0.517,0.934
						c0.398,0.192,0.576,0.582,0.576,1.027c0,0.775-0.571,1.242-1.298,1.242c-0.636,0-1.207-0.428-1.239-1.11h0.49
						c0.049,0.407,0.399,0.659,0.787,0.659c0.453,0,0.775-0.362,0.775-0.812c0-0.527-0.355-0.841-0.856-0.802V87.872z
						 M92.032,88.206c0-0.852,0.366-2.159,1.417-2.159s1.417,1.308,1.417,2.159c0,0.846-0.372,2.159-1.417,2.159
						S92.032,89.052,92.032,88.206z M92.517,88.201c0,0.571,0.205,1.703,0.932,1.703s0.932-1.132,0.932-1.703
						s-0.205-1.714-0.932-1.714S92.517,87.629,92.517,88.201z M95.34,88.206c0-0.852,0.366-2.159,1.417-2.159
						c1.051,0,1.417,1.308,1.417,2.159c0,0.846-0.372,2.159-1.417,2.159C95.712,90.365,95.34,89.052,95.34,88.206z M95.825,88.201
						c0,0.571,0.205,1.703,0.932,1.703c0.728,0,0.932-1.132,0.932-1.703s-0.205-1.714-0.932-1.714
						C96.03,86.487,95.825,87.629,95.825,88.201z M101.349,89.223v0.451h-0.463v0.604h-0.485v-0.604h-2.004l2.489-3.714v3.263
						H101.349z M100.401,87.514h-0.011l-1.142,1.708h1.153V87.514z"/>
				</g>
			</g>
			<g id="g13520">
				<g id="h13520">
					<path id="b13520" class="st3" d="M18.932,259.105l0.075,21.583c0.374,1.683,0.561,3.366,2.618,3.553
						c0.652,0.059,9.055,0.081,20.221,0.083l0.039-25.219H18.932z"/>
					<path id="t13520" class="st2" d="M23.608,269.575l0.28-0.473h0.91v4.142h-0.485v-3.669H23.608z M27.127,270.838
						c0.437,0,0.797-0.165,0.797-0.665c0-0.417-0.302-0.708-0.706-0.708c-0.366,0-0.62,0.236-0.673,0.593h-0.501
						c0.097-0.681,0.522-1.044,1.19-1.044c0.646,0,1.174,0.423,1.174,1.115c0,0.407-0.172,0.736-0.517,0.934
						c0.398,0.192,0.576,0.582,0.576,1.027c0,0.775-0.571,1.242-1.298,1.242c-0.635,0-1.207-0.428-1.239-1.11h0.49
						c0.048,0.407,0.398,0.659,0.787,0.659c0.452,0,0.775-0.362,0.775-0.812c0-0.527-0.355-0.841-0.856-0.802V270.838z
						 M30.351,269.575l-0.253,0.852l0.285-0.017c0.787,0,1.304,0.687,1.304,1.45c0,0.874-0.668,1.472-1.503,1.472
						c-0.501,0-1.002-0.269-1.239-0.725l0.377-0.362c0.124,0.352,0.539,0.615,0.899,0.615c0.55,0,0.98-0.462,0.98-1.017
						c0-0.533-0.447-0.983-0.97-0.983c-0.285,0-0.582,0.138-0.759,0.368h-0.097L30,269.102h1.627v0.473H30.351z M34.684,272.772
						v0.472h-2.623l1.778-2.225c0.167-0.209,0.361-0.467,0.361-0.742c0-0.434-0.377-0.791-0.797-0.791
						c-0.415,0-0.754,0.341-0.781,0.758h-0.506c0.081-0.736,0.549-1.23,1.287-1.23c0.689,0,1.282,0.522,1.282,1.242
						c0,0.308-0.113,0.615-0.301,0.852l-1.336,1.665H34.684z M35.128,271.173c0-0.852,0.366-2.159,1.417-2.159
						c1.05,0,1.417,1.308,1.417,2.159c0,0.846-0.372,2.159-1.417,2.159C35.499,273.332,35.128,272.019,35.128,271.173z
						 M35.613,271.167c0,0.571,0.205,1.703,0.932,1.703c0.727,0,0.932-1.132,0.932-1.703s-0.205-1.714-0.932-1.714
						C35.817,269.454,35.613,270.596,35.613,271.167z"/>
				</g>
			</g>
			<g id="g13522">
				<g id="h13522">
					<path id="b13522" class="st3" d="M41.886,259.105l-0.039,25.219c6.698,0.001,14.388-0.005,22.004-0.014l0.039-25.205H41.886
						z"/>
					<path id="t13522" class="st2" d="M45.96,269.575l0.28-0.473h0.91v4.142h-0.485v-3.669H45.96z M49.479,270.838
						c0.437,0,0.797-0.165,0.797-0.665c0-0.417-0.302-0.708-0.706-0.708c-0.366,0-0.62,0.236-0.673,0.593h-0.501
						c0.097-0.681,0.522-1.044,1.19-1.044c0.646,0,1.174,0.423,1.174,1.115c0,0.407-0.172,0.736-0.517,0.934
						c0.398,0.192,0.576,0.582,0.576,1.027c0,0.775-0.571,1.242-1.298,1.242c-0.636,0-1.207-0.428-1.239-1.11h0.49
						c0.049,0.407,0.399,0.659,0.787,0.659c0.452,0,0.775-0.362,0.775-0.812c0-0.527-0.355-0.841-0.856-0.802V270.838z
						 M52.703,269.575l-0.253,0.852l0.286-0.017c0.786,0,1.303,0.687,1.303,1.45c0,0.874-0.668,1.472-1.503,1.472
						c-0.501,0-1.001-0.269-1.239-0.725l0.377-0.362c0.124,0.352,0.539,0.615,0.9,0.615c0.549,0,0.98-0.462,0.98-1.017
						c0-0.533-0.447-0.983-0.969-0.983c-0.286,0-0.582,0.138-0.76,0.368h-0.097l0.625-2.126h1.627v0.473H52.703z M57.037,272.772
						v0.472h-2.624l1.778-2.225c0.167-0.209,0.361-0.467,0.361-0.742c0-0.434-0.377-0.791-0.797-0.791
						c-0.415,0-0.754,0.341-0.781,0.758h-0.506c0.081-0.736,0.549-1.23,1.287-1.23c0.689,0,1.282,0.522,1.282,1.242
						c0,0.308-0.113,0.615-0.302,0.852l-1.336,1.665H57.037z M60.188,272.772v0.472h-2.623l1.777-2.225
						c0.167-0.209,0.361-0.467,0.361-0.742c0-0.434-0.377-0.791-0.797-0.791c-0.415,0-0.754,0.341-0.781,0.758h-0.506
						c0.081-0.736,0.549-1.23,1.287-1.23c0.689,0,1.282,0.522,1.282,1.242c0,0.308-0.113,0.615-0.302,0.852l-1.336,1.665H60.188z"/>
				</g>
			</g>
			<g id="g13022">
				<g id="h13022">
					<path id="b13022" class="st3" d="M63.889,259.105L63.85,284.31c7.817-0.009,15.552-0.022,22.042-0.034l0.039-25.171H63.889z"/>
					<path id="t13022" class="st2" d="M67.586,269.575l0.28-0.473h0.91v4.142h-0.485v-3.669H67.586z M71.105,270.838
						c0.436,0,0.797-0.165,0.797-0.665c0-0.417-0.302-0.708-0.706-0.708c-0.366,0-0.619,0.236-0.673,0.593h-0.501
						c0.097-0.681,0.522-1.044,1.19-1.044c0.646,0,1.174,0.423,1.174,1.115c0,0.407-0.172,0.736-0.517,0.934
						c0.399,0.192,0.577,0.582,0.577,1.027c0,0.775-0.571,1.242-1.298,1.242c-0.635,0-1.207-0.428-1.239-1.11h0.49
						c0.048,0.407,0.398,0.659,0.786,0.659c0.453,0,0.776-0.362,0.776-0.812c0-0.527-0.355-0.841-0.856-0.802V270.838z
						 M72.993,271.173c0-0.852,0.366-2.159,1.417-2.159c1.05,0,1.417,1.308,1.417,2.159c0,0.846-0.372,2.159-1.417,2.159
						C73.364,273.332,72.993,272.019,72.993,271.173z M73.477,271.167c0,0.571,0.205,1.703,0.932,1.703
						c0.727,0,0.932-1.132,0.932-1.703s-0.205-1.714-0.932-1.714C73.682,269.454,73.477,270.596,73.477,271.167z M78.848,272.772
						v0.472h-2.623l1.777-2.225c0.167-0.209,0.361-0.467,0.361-0.742c0-0.434-0.377-0.791-0.797-0.791
						c-0.415,0-0.754,0.341-0.781,0.758h-0.506c0.081-0.736,0.549-1.23,1.288-1.23c0.689,0,1.282,0.522,1.282,1.242
						c0,0.308-0.113,0.615-0.302,0.852l-1.335,1.665H78.848z M81.999,272.772v0.472h-2.623l1.777-2.225
						c0.167-0.209,0.361-0.467,0.361-0.742c0-0.434-0.377-0.791-0.797-0.791c-0.415,0-0.754,0.341-0.781,0.758H79.43
						c0.081-0.736,0.55-1.23,1.288-1.23c0.689,0,1.282,0.522,1.282,1.242c0,0.308-0.113,0.615-0.301,0.852l-1.336,1.665H81.999z"/>
				</g>
			</g>
			<g id="g13020">
				<g id="h13020">
					<path id="b13020" class="st3" d="M108.791,259.105h-22.86l-0.039,25.171c9.887-0.018,14.569-0.035,14.569-0.035l2.274-0.009
						c0,0,6.08,0.38,6.062-3.562c-0.017-3.632,0.002-14.429,0.011-19.408L108.791,259.105z"/>
					<path id="t13020" class="st2" d="M89.762,269.575l0.28-0.473h0.911v4.142h-0.485v-3.669H89.762z M93.281,270.838
						c0.436,0,0.797-0.165,0.797-0.665c0-0.417-0.301-0.708-0.706-0.708c-0.366,0-0.619,0.236-0.673,0.593h-0.501
						c0.097-0.681,0.522-1.044,1.19-1.044c0.646,0,1.174,0.423,1.174,1.115c0,0.407-0.172,0.736-0.517,0.934
						c0.398,0.192,0.577,0.582,0.577,1.027c0,0.775-0.571,1.242-1.298,1.242c-0.636,0-1.207-0.428-1.239-1.11h0.49
						c0.048,0.407,0.398,0.659,0.786,0.659c0.453,0,0.776-0.362,0.776-0.812c0-0.527-0.355-0.841-0.856-0.802V270.838z
						 M95.168,271.173c0-0.852,0.366-2.159,1.417-2.159s1.417,1.308,1.417,2.159c0,0.846-0.372,2.159-1.417,2.159
						S95.168,272.019,95.168,271.173z M95.653,271.167c0,0.571,0.205,1.703,0.932,1.703c0.728,0,0.932-1.132,0.932-1.703
						s-0.205-1.714-0.932-1.714C95.858,269.454,95.653,270.596,95.653,271.167z M101.024,272.772v0.472h-2.623l1.777-2.225
						c0.167-0.209,0.361-0.467,0.361-0.742c0-0.434-0.377-0.791-0.797-0.791c-0.415,0-0.754,0.341-0.781,0.758h-0.506
						c0.081-0.736,0.549-1.23,1.287-1.23c0.689,0,1.282,0.522,1.282,1.242c0,0.308-0.113,0.615-0.302,0.852l-1.336,1.665H101.024z
						 M101.468,271.173c0-0.852,0.366-2.159,1.417-2.159s1.417,1.308,1.417,2.159c0,0.846-0.372,2.159-1.417,2.159
						S101.468,272.019,101.468,271.173z M101.953,271.167c0,0.571,0.205,1.703,0.932,1.703s0.932-1.132,0.932-1.703
						s-0.205-1.714-0.932-1.714S101.953,270.596,101.953,271.167z"/>
				</g>
			</g>
		</g>
	</g>
	<g id="gDeck13PenthouseLargeBalconySF">
		<g id="hDeck13PenthouseLargeBalconySF">
			<g id="g13518">
				<g id="h13518">
					<polyline id="b13518" class="st3" points="18.863,231.696 44.087,231.696 44.107,237.417 44.107,252.156 44.026,255.796 
						22.529,255.843 18.955,255.841 18.785,231.696 					"/>
					<path id="t13518" class="st2" d="M24.754,241.211l0.28-0.472h0.91v4.142H25.46v-3.669H24.754z M28.273,242.474
						c0.437,0,0.797-0.165,0.797-0.665c0-0.417-0.302-0.708-0.706-0.708c-0.366,0-0.62,0.236-0.673,0.593h-0.501
						c0.097-0.681,0.522-1.043,1.19-1.043c0.646,0,1.174,0.423,1.174,1.115c0,0.407-0.172,0.736-0.517,0.934
						c0.398,0.192,0.576,0.582,0.576,1.027c0,0.774-0.571,1.241-1.298,1.241c-0.636,0-1.207-0.429-1.239-1.109h0.49
						c0.049,0.406,0.399,0.659,0.787,0.659c0.453,0,0.775-0.363,0.775-0.813c0-0.527-0.355-0.84-0.856-0.802V242.474z
						 M31.497,241.211l-0.253,0.852l0.286-0.017c0.786,0,1.303,0.687,1.303,1.45c0,0.874-0.668,1.472-1.503,1.472
						c-0.5,0-1.001-0.269-1.239-0.725l0.377-0.363c0.124,0.352,0.539,0.615,0.9,0.615c0.549,0,0.98-0.461,0.98-1.016
						c0-0.533-0.447-0.983-0.969-0.983c-0.286,0-0.582,0.137-0.76,0.368h-0.097l0.625-2.125h1.627v0.472H31.497z M33.545,241.211
						l0.28-0.472h0.91v4.142h-0.485v-3.669H33.545z M36.612,242.732c-0.334-0.192-0.534-0.522-0.534-0.928
						c0-0.676,0.517-1.153,1.164-1.153s1.164,0.478,1.164,1.153c0,0.406-0.199,0.736-0.533,0.928
						c0.42,0.148,0.641,0.549,0.641,0.995c0,0.769-0.582,1.241-1.271,1.241s-1.271-0.473-1.271-1.241
						C35.971,243.282,36.191,242.881,36.612,242.732z M36.456,243.727c0,0.417,0.388,0.78,0.786,0.78
						c0.399,0,0.787-0.363,0.787-0.78c0-0.439-0.377-0.78-0.787-0.78C36.832,242.947,36.456,243.288,36.456,243.727z
						 M36.552,241.804c0,0.33,0.35,0.703,0.689,0.703s0.689-0.374,0.689-0.703c0-0.396-0.323-0.714-0.689-0.714
						S36.552,241.409,36.552,241.804z"/>
				</g>
			</g>
			<g id="g13018">
				<g id="h13018">
					<polyline id="b13018" class="st3" points="108.63,230.43 108.711,256.018 84.751,256.018 84.914,230.43 108.791,230.43 					
						"/>
					<path id="t13018" class="st2" d="M90.67,241.211l0.28-0.472h0.91v4.142h-0.485v-3.669H90.67z M94.189,242.474
						c0.437,0,0.797-0.165,0.797-0.665c0-0.417-0.302-0.708-0.706-0.708c-0.366,0-0.62,0.236-0.673,0.593h-0.501
						c0.097-0.681,0.522-1.043,1.19-1.043c0.646,0,1.174,0.423,1.174,1.115c0,0.407-0.172,0.736-0.517,0.934
						c0.398,0.192,0.576,0.582,0.576,1.027c0,0.774-0.571,1.241-1.298,1.241c-0.636,0-1.207-0.429-1.239-1.109h0.49
						c0.049,0.406,0.399,0.659,0.787,0.659c0.452,0,0.775-0.363,0.775-0.813c0-0.527-0.355-0.84-0.856-0.802V242.474z
						 M96.078,242.81c0-0.852,0.366-2.159,1.417-2.159s1.417,1.307,1.417,2.159c0,0.846-0.372,2.159-1.417,2.159
						S96.078,243.655,96.078,242.81z M96.562,242.804c0,0.571,0.205,1.703,0.932,1.703s0.932-1.131,0.932-1.703
						s-0.205-1.714-0.932-1.714S96.562,242.233,96.562,242.804z M99.436,241.211l0.28-0.472h0.91v4.142h-0.485v-3.669H99.436z
						 M102.502,242.732c-0.334-0.192-0.534-0.522-0.534-0.928c0-0.676,0.518-1.153,1.164-1.153c0.646,0,1.164,0.478,1.164,1.153
						c0,0.406-0.199,0.736-0.533,0.928c0.42,0.148,0.641,0.549,0.641,0.995c0,0.769-0.582,1.241-1.271,1.241
						s-1.271-0.473-1.271-1.241C101.861,243.282,102.082,242.881,102.502,242.732z M102.346,243.727c0,0.417,0.388,0.78,0.786,0.78
						c0.399,0,0.787-0.363,0.787-0.78c0-0.439-0.377-0.78-0.787-0.78C102.723,242.947,102.346,243.288,102.346,243.727z
						 M102.443,241.804c0,0.33,0.35,0.703,0.689,0.703s0.689-0.374,0.689-0.703c0-0.396-0.323-0.714-0.689-0.714
						S102.443,241.409,102.443,241.804z"/>
				</g>
			</g>
		</g>
	</g>
	<g id="gDeck13PenthouseLargeBalconySH">
		<g id="hDeck13PenthouseLargeBalconySH">
			<g id="g13516">
				<g id="h13516">
					<rect id="b13516" x="18.863" y="206.976" class="st3" width="20.02" height="24.72"/>
					<path id="t13516" class="st2" d="M22.211,216.563l0.28-0.472h0.91v4.142h-0.485v-3.669H22.211z M25.73,217.827
						c0.437,0,0.797-0.165,0.797-0.665c0-0.417-0.302-0.708-0.706-0.708c-0.367,0-0.62,0.236-0.673,0.593h-0.501
						c0.097-0.681,0.522-1.043,1.19-1.043c0.646,0,1.174,0.423,1.174,1.115c0,0.407-0.172,0.736-0.517,0.934
						c0.398,0.192,0.576,0.582,0.576,1.027c0,0.774-0.571,1.241-1.298,1.241c-0.635,0-1.207-0.429-1.239-1.109h0.49
						c0.048,0.406,0.398,0.659,0.787,0.659c0.452,0,0.775-0.363,0.775-0.813c0-0.527-0.355-0.84-0.856-0.802V217.827z
						 M28.954,216.563l-0.253,0.852l0.285-0.017c0.787,0,1.304,0.687,1.304,1.45c0,0.874-0.668,1.472-1.503,1.472
						c-0.501,0-1.002-0.269-1.239-0.725l0.377-0.363c0.124,0.352,0.539,0.615,0.899,0.615c0.549,0,0.98-0.461,0.98-1.016
						c0-0.533-0.447-0.983-0.97-0.983c-0.285,0-0.582,0.137-0.759,0.368h-0.097l0.625-2.125h1.626v0.472H28.954z M31.002,216.563
						l0.28-0.472h0.911v4.142h-0.485v-3.669H31.002z M35.491,216.256l-1.083,1.494l0.011,0.011c0.119-0.061,0.253-0.099,0.399-0.099
						c0.667,0,1.174,0.632,1.174,1.296c0,0.758-0.603,1.362-1.341,1.362c-0.7,0-1.352-0.593-1.352-1.324
						c0-0.417,0.205-0.769,0.441-1.093l1.384-1.9L35.491,216.256z M35.507,219.013c0-0.516-0.431-0.89-0.862-0.89
						c-0.442,0-0.862,0.412-0.862,0.862c0,0.478,0.398,0.874,0.862,0.874C35.098,219.859,35.507,219.475,35.507,219.013z"/>
				</g>
			</g>
			<g id="g13014">
				<g id="h13014">
					<polyline id="b13014" class="st3" points="89.152,206.861 89.152,180.705 108.611,180.746 108.63,206.976 89.183,206.934 					
						"/>
					<path id="t13014" class="st2" d="M92.22,191.283l0.28-0.472h0.91v4.142h-0.484v-3.669H92.22z M95.739,192.546
						c0.436,0,0.797-0.165,0.797-0.665c0-0.417-0.302-0.708-0.706-0.708c-0.366,0-0.62,0.236-0.673,0.593h-0.501
						c0.097-0.681,0.522-1.043,1.19-1.043c0.646,0,1.174,0.423,1.174,1.115c0,0.407-0.172,0.736-0.517,0.934
						c0.398,0.192,0.576,0.582,0.576,1.027c0,0.774-0.571,1.241-1.298,1.241c-0.636,0-1.207-0.429-1.239-1.109h0.49
						c0.049,0.406,0.399,0.659,0.787,0.659c0.453,0,0.775-0.363,0.775-0.813c0-0.527-0.355-0.84-0.856-0.802V192.546z
						 M97.627,192.882c0-0.852,0.366-2.159,1.417-2.159s1.417,1.307,1.417,2.159c0,0.846-0.372,2.159-1.417,2.159
						S97.627,193.727,97.627,192.882z M98.112,192.876c0,0.571,0.205,1.703,0.932,1.703s0.932-1.131,0.932-1.703
						s-0.205-1.714-0.932-1.714S98.112,192.305,98.112,192.876z M100.985,191.283l0.28-0.472h0.91v4.142h-0.485v-3.669H100.985z
						 M106.098,193.898v0.45h-0.463v0.604h-0.485v-0.604h-2.004l2.489-3.713v3.263H106.098z M105.15,192.189h-0.011l-1.142,1.708
						h1.153V192.189z"/>
				</g>
			</g>
			<g id="g13514">
				<g id="h13514">
					<rect id="b13514" x="18.863" y="180.732" class="st3" width="20.02" height="26.244"/>
					<path id="t13514" class="st2" d="M22.19,191.337l0.28-0.472h0.91v4.142h-0.484v-3.669H22.19z M25.709,192.6
						c0.436,0,0.797-0.165,0.797-0.665c0-0.417-0.302-0.708-0.706-0.708c-0.366,0-0.619,0.236-0.673,0.593h-0.501
						c0.097-0.681,0.522-1.043,1.19-1.043c0.646,0,1.174,0.423,1.174,1.115c0,0.407-0.172,0.736-0.517,0.934
						c0.398,0.192,0.576,0.582,0.576,1.027c0,0.774-0.571,1.241-1.298,1.241c-0.636,0-1.207-0.429-1.239-1.109h0.49
						c0.049,0.406,0.399,0.659,0.787,0.659c0.453,0,0.776-0.363,0.776-0.813c0-0.527-0.356-0.84-0.856-0.802V192.6z M28.933,191.337
						l-0.253,0.852l0.286-0.017c0.786,0,1.303,0.687,1.303,1.45c0,0.874-0.668,1.472-1.502,1.472c-0.501,0-1.002-0.269-1.239-0.725
						l0.377-0.363c0.124,0.352,0.539,0.615,0.899,0.615c0.549,0,0.98-0.461,0.98-1.016c0-0.533-0.447-0.983-0.969-0.983
						c-0.286,0-0.582,0.137-0.76,0.368h-0.097l0.625-2.125h1.626v0.472H28.933z M30.981,191.337l0.28-0.472h0.91v4.142h-0.485
						v-3.669H30.981z M36.093,193.952v0.45H35.63v0.604h-0.485v-0.604h-2.004l2.489-3.713v3.263H36.093z M35.145,192.243h-0.011
						l-1.142,1.708h1.153V192.243z"/>
				</g>
			</g>
			<g id="g13512">
				<g id="h13512">
					<rect id="b13512" x="18.863" y="152.78" class="st3" width="20.02" height="27.952"/>
					<path id="t13512" class="st2" d="M22.236,165.092l0.28-0.473h0.91v4.142h-0.485v-3.669H22.236z M25.755,166.356
						c0.436,0,0.797-0.165,0.797-0.665c0-0.417-0.302-0.708-0.706-0.708c-0.366,0-0.619,0.236-0.673,0.593h-0.501
						c0.097-0.681,0.522-1.044,1.19-1.044c0.646,0,1.174,0.423,1.174,1.115c0,0.407-0.172,0.736-0.517,0.934
						c0.399,0.192,0.577,0.582,0.577,1.027c0,0.775-0.571,1.242-1.298,1.242c-0.635,0-1.207-0.428-1.239-1.11h0.49
						c0.048,0.407,0.398,0.659,0.786,0.659c0.453,0,0.776-0.362,0.776-0.812c0-0.527-0.355-0.841-0.856-0.802V166.356z
						 M28.979,165.092l-0.253,0.852l0.286-0.017c0.787,0,1.304,0.687,1.304,1.45c0,0.874-0.668,1.472-1.503,1.472
						c-0.501,0-1.002-0.269-1.239-0.725l0.377-0.362c0.124,0.352,0.539,0.615,0.899,0.615c0.549,0,0.98-0.462,0.98-1.017
						c0-0.533-0.447-0.983-0.97-0.983c-0.285,0-0.582,0.138-0.759,0.368h-0.097l0.625-2.126h1.626v0.473H28.979z M31.027,165.092
						l0.28-0.473h0.911v4.142h-0.485v-3.669H31.027z M35.923,168.289v0.472H33.3l1.777-2.225c0.167-0.209,0.361-0.467,0.361-0.742
						c0-0.434-0.377-0.791-0.797-0.791c-0.415,0-0.754,0.341-0.781,0.758h-0.506c0.081-0.736,0.55-1.23,1.288-1.23
						c0.689,0,1.282,0.522,1.282,1.242c0,0.308-0.113,0.615-0.301,0.852l-1.336,1.665H35.923z"/>
				</g>
			</g>
			<g id="g13510">
				<g id="h13510">
					<polygon id="b13510" class="st3" points="18.972,139.164 48.651,139.101 48.651,152.82 18.972,152.82 					"/>
					<line id="d13510" class="st4" x1="19.274" y1="139.101" x2="48.173" y2="139.101"/>
					<path id="t13510" class="st2" d="M27.087,144.336l0.28-0.473h0.911v4.142h-0.485v-3.669H27.087z M30.606,145.6
						c0.436,0,0.797-0.165,0.797-0.665c0-0.417-0.301-0.708-0.706-0.708c-0.366,0-0.619,0.236-0.673,0.593h-0.501
						c0.097-0.681,0.522-1.044,1.19-1.044c0.646,0,1.174,0.423,1.174,1.115c0,0.407-0.172,0.736-0.517,0.934
						c0.398,0.192,0.576,0.582,0.576,1.027c0,0.775-0.571,1.242-1.298,1.242c-0.636,0-1.207-0.428-1.239-1.11h0.49
						c0.048,0.407,0.398,0.659,0.786,0.659c0.453,0,0.776-0.362,0.776-0.812c0-0.527-0.355-0.841-0.856-0.802V145.6z M33.83,144.336
						l-0.253,0.852l0.286-0.017c0.786,0,1.303,0.687,1.303,1.45c0,0.874-0.667,1.472-1.502,1.472c-0.501,0-1.002-0.269-1.239-0.725
						l0.377-0.362c0.124,0.352,0.539,0.615,0.899,0.615c0.549,0,0.98-0.462,0.98-1.017c0-0.533-0.447-0.983-0.97-0.983
						c-0.286,0-0.582,0.138-0.759,0.368h-0.097l0.625-2.126h1.626v0.473H33.83z M35.878,144.336l0.28-0.473h0.91v4.142h-0.485
						v-3.669H35.878z M38.223,145.935c0-0.852,0.366-2.159,1.417-2.159s1.417,1.308,1.417,2.159c0,0.846-0.372,2.159-1.417,2.159
						S38.223,146.781,38.223,145.935z M38.708,145.929c0,0.571,0.205,1.703,0.932,1.703s0.932-1.132,0.932-1.703
						s-0.205-1.714-0.932-1.714S38.708,145.358,38.708,145.929z"/>
				</g>
			</g>
			<g id="g13016">
				<g id="h13016">
					<polyline id="b13016" class="st3" points="89.152,230.43 89.152,206.902 108.63,206.902 108.63,230.43 89.152,230.43 
						88.783,230.43 					"/>
					<path id="t13016" class="st2" d="M92.241,216.563l0.28-0.472h0.91v4.142h-0.485v-3.669H92.241z M95.76,217.827
						c0.437,0,0.797-0.165,0.797-0.665c0-0.417-0.302-0.708-0.706-0.708c-0.367,0-0.62,0.236-0.673,0.593h-0.501
						c0.097-0.681,0.522-1.043,1.19-1.043c0.646,0,1.174,0.423,1.174,1.115c0,0.407-0.172,0.736-0.517,0.934
						c0.399,0.192,0.577,0.582,0.577,1.027c0,0.774-0.571,1.241-1.298,1.241c-0.635,0-1.207-0.429-1.239-1.109h0.49
						c0.048,0.406,0.398,0.659,0.786,0.659c0.453,0,0.776-0.363,0.776-0.813c0-0.527-0.355-0.84-0.856-0.802V217.827z
						 M97.647,218.162c0-0.852,0.366-2.159,1.417-2.159c1.05,0,1.417,1.307,1.417,2.159c0,0.846-0.372,2.159-1.417,2.159
						S97.647,219.008,97.647,218.162z M98.132,218.157c0,0.571,0.205,1.703,0.932,1.703c0.727,0,0.932-1.131,0.932-1.703
						s-0.205-1.714-0.932-1.714C98.337,216.443,98.132,217.585,98.132,218.157z M101.006,216.563l0.28-0.472h0.911v4.142h-0.485
						v-3.669H101.006z M105.496,216.256l-1.083,1.494l0.011,0.011c0.119-0.061,0.253-0.099,0.399-0.099
						c0.668,0,1.174,0.632,1.174,1.296c0,0.758-0.603,1.362-1.341,1.362c-0.7,0-1.352-0.593-1.352-1.324
						c0-0.417,0.205-0.769,0.441-1.093l1.384-1.9L105.496,216.256z M105.512,219.013c0-0.516-0.431-0.89-0.862-0.89
						c-0.442,0-0.862,0.412-0.862,0.862c0,0.478,0.398,0.874,0.862,0.874C105.102,219.859,105.512,219.475,105.512,219.013z"/>
				</g>
			</g>
		</g>
	</g>
	<g id="gDeck13OwnersSuiteLargeBalconySC">
		<g id="hDeck13OwnersSuiteLargeBalconySC">
			<g id="g13500">
				<g id="h13500">
					<path id="b13500" class="st3" d="M63.899,23.848c-0.46-0.014-0.833-0.018-1.107-0.018c-8.205,0-29.004,3.177-38.867,23.549
						L23.687,47.5l0.137,0.076c-0.009,0.018-0.018,0.037-0.027,0.054l16.459,9.129h8.262l0.049-0.07v-5.387h15.397V23.85
						C63.942,23.849,63.919,23.848,63.899,23.848z"/>
					<polyline id="d13500" class="st4" points="24.077,47.785 40.256,56.759 48.191,56.759 					"/>
					<path id="t13500" class="st2" d="M40.273,40.177l0.28-0.472h0.911v4.142h-0.485v-3.669H40.273z M43.792,41.44
						c0.436,0,0.797-0.165,0.797-0.665c0-0.417-0.301-0.708-0.706-0.708c-0.366,0-0.619,0.236-0.673,0.593h-0.5
						c0.097-0.681,0.522-1.043,1.19-1.043c0.646,0,1.174,0.423,1.174,1.115c0,0.407-0.172,0.736-0.517,0.934
						c0.399,0.192,0.577,0.582,0.577,1.027c0,0.774-0.571,1.241-1.298,1.241c-0.636,0-1.207-0.429-1.239-1.109h0.49
						c0.048,0.406,0.398,0.659,0.786,0.659c0.453,0,0.776-0.363,0.776-0.813c0-0.527-0.355-0.84-0.856-0.802V41.44z M47.016,40.177
						l-0.253,0.852l0.286-0.017c0.787,0,1.304,0.687,1.304,1.45c0,0.874-0.668,1.472-1.503,1.472c-0.501,0-1.002-0.269-1.239-0.725
						l0.377-0.363c0.124,0.352,0.539,0.615,0.899,0.615c0.549,0,0.98-0.461,0.98-1.016c0-0.533-0.447-0.983-0.97-0.983
						c-0.286,0-0.582,0.137-0.759,0.368H46.04l0.625-2.125h1.626v0.472H47.016z M48.789,41.775c0-0.852,0.366-2.159,1.417-2.159
						s1.417,1.307,1.417,2.159c0,0.846-0.372,2.159-1.417,2.159S48.789,42.621,48.789,41.775z M49.273,41.77
						c0,0.571,0.205,1.703,0.932,1.703c0.728,0,0.932-1.131,0.932-1.703s-0.205-1.714-0.932-1.714
						C49.478,40.056,49.273,41.199,49.273,41.77z M52.097,41.775c0-0.852,0.366-2.159,1.417-2.159s1.417,1.307,1.417,2.159
						c0,0.846-0.372,2.159-1.417,2.159S52.097,42.621,52.097,41.775z M52.582,41.77c0,0.571,0.205,1.703,0.932,1.703
						s0.932-1.131,0.932-1.703s-0.205-1.714-0.932-1.714S52.582,41.199,52.582,41.77z"/>
				</g>
			</g>
			<g id="g13000">
				<g id="h13000">
					<path id="b13000" class="st3" d="M104.698,47.688C95.191,26.461,70.954,24.089,64.09,23.855l0-0.064l0,0.064
						c-0.041-0.001-0.083-0.003-0.126-0.005v27.452h0.067h15.015v2.387l-0.005,3.07h2.428h6.203L104.698,47.688z"/>
					<polyline id="d13000" class="st4" points="79.319,56.759 87.673,56.759 104.516,47.785 					"/>
					<path id="t13000" class="st2" d="M73.84,40.083l0.28-0.472h0.911v4.142h-0.485v-3.669H73.84z M77.359,41.346
						c0.436,0,0.797-0.165,0.797-0.665c0-0.417-0.301-0.708-0.706-0.708c-0.366,0-0.619,0.236-0.673,0.593h-0.501
						c0.097-0.681,0.522-1.043,1.19-1.043c0.646,0,1.174,0.423,1.174,1.115c0,0.407-0.172,0.736-0.517,0.934
						c0.398,0.192,0.576,0.582,0.576,1.027c0,0.774-0.571,1.241-1.298,1.241c-0.636,0-1.207-0.429-1.239-1.109h0.49
						c0.048,0.406,0.398,0.659,0.786,0.659c0.453,0,0.776-0.363,0.776-0.813c0-0.527-0.355-0.84-0.856-0.802V41.346z M79.247,41.682
						c0-0.852,0.366-2.159,1.417-2.159s1.417,1.307,1.417,2.159c0,0.846-0.372,2.159-1.417,2.159S79.247,42.527,79.247,41.682z
						 M79.732,41.676c0,0.571,0.205,1.703,0.932,1.703s0.932-1.131,0.932-1.703s-0.205-1.714-0.932-1.714
						S79.732,41.105,79.732,41.676z M82.555,41.682c0-0.852,0.367-2.159,1.417-2.159s1.417,1.307,1.417,2.159
						c0,0.846-0.372,2.159-1.417,2.159S82.555,42.527,82.555,41.682z M83.04,41.676c0,0.571,0.205,1.703,0.932,1.703
						c0.727,0,0.932-1.131,0.932-1.703s-0.205-1.714-0.932-1.714C83.245,39.962,83.04,41.105,83.04,41.676z M85.864,41.682
						c0-0.852,0.366-2.159,1.417-2.159s1.417,1.307,1.417,2.159c0,0.846-0.372,2.159-1.417,2.159S85.864,42.527,85.864,41.682z
						 M86.349,41.676c0,0.571,0.205,1.703,0.932,1.703s0.932-1.131,0.932-1.703s-0.205-1.714-0.932-1.714
						S86.349,41.105,86.349,41.676z"/>
				</g>
			</g>
		</g>
	</g>
	<g id="gDeck13DeluxePenthouseLargeBalconySD">
		<g id="hDeck13DeluxePenthouseLargeBalconySD">
			<g id="g13502">
				<g id="h13502">
					<path id="b13502" class="st3" d="M23.796,47.63c-3.442,6.618-4.75,18.268-4.75,18.268v11.704h29.52l-0.049-20.843h-8.262
						L23.796,47.63z"/>
					<polyline id="d13502" class="st4" points="24.077,47.785 40.256,56.759 48.191,56.759 					"/>
					<path id="t13502" class="st2" d="M26.744,66.083l0.28-0.473h0.91v4.142H27.45v-3.669H26.744z M30.263,67.347
						c0.436,0,0.797-0.165,0.797-0.665c0-0.417-0.302-0.708-0.706-0.708c-0.366,0-0.62,0.236-0.673,0.593H29.18
						c0.097-0.681,0.522-1.044,1.19-1.044c0.646,0,1.174,0.423,1.174,1.115c0,0.407-0.172,0.736-0.517,0.934
						c0.398,0.192,0.576,0.582,0.576,1.027c0,0.775-0.571,1.242-1.298,1.242c-0.636,0-1.207-0.428-1.239-1.11h0.49
						c0.049,0.407,0.399,0.659,0.787,0.659c0.453,0,0.776-0.362,0.776-0.812c0-0.527-0.356-0.841-0.856-0.802V67.347z
						 M33.487,66.083l-0.253,0.852l0.286-0.017c0.786,0,1.303,0.687,1.303,1.45c0,0.874-0.668,1.472-1.502,1.472
						c-0.501,0-1.002-0.269-1.239-0.725l0.377-0.362c0.124,0.352,0.539,0.615,0.899,0.615c0.549,0,0.98-0.462,0.98-1.017
						c0-0.533-0.447-0.983-0.969-0.983c-0.286,0-0.582,0.138-0.76,0.368h-0.097l0.625-2.126h1.627v0.473H33.487z M35.26,67.682
						c0-0.852,0.366-2.159,1.417-2.159s1.417,1.308,1.417,2.159c0,0.846-0.372,2.159-1.417,2.159S35.26,68.528,35.26,67.682z
						 M35.745,67.676c0,0.571,0.205,1.703,0.932,1.703s0.932-1.132,0.932-1.703s-0.205-1.714-0.932-1.714
						S35.745,67.105,35.745,67.676z M41.115,69.281v0.472h-2.624l1.778-2.225c0.167-0.209,0.361-0.467,0.361-0.742
						c0-0.434-0.377-0.791-0.797-0.791c-0.415,0-0.754,0.341-0.781,0.758h-0.506c0.081-0.736,0.549-1.23,1.287-1.23
						c0.689,0,1.282,0.522,1.282,1.242c0,0.308-0.113,0.615-0.302,0.852l-1.336,1.665H41.115z"/>
				</g>
			</g>
			<g id="g13002">
				<g id="h13002">
					<path id="b13002" class="st3" d="M108.576,65.888c0,0,0.222-9.048-3.854-18.146l0.192-0.102l-0.204,0.073
						c-0.004-0.009-0.008-0.016-0.012-0.025l-17.025,9.07h-8.632l0.005,20.89v0.022l29.567-0.037L108.576,65.888z"/>
					<polyline id="d13002" class="st4" points="79.319,56.759 87.673,56.759 104.516,47.785 					"/>
					<path id="t13002" class="st2" d="M86.64,66.083l0.28-0.473h0.91v4.142h-0.485v-3.669H86.64z M90.159,67.347
						c0.437,0,0.797-0.165,0.797-0.665c0-0.417-0.302-0.708-0.706-0.708c-0.366,0-0.62,0.236-0.673,0.593h-0.501
						c0.097-0.681,0.522-1.044,1.19-1.044c0.646,0,1.174,0.423,1.174,1.115c0,0.407-0.172,0.736-0.517,0.934
						c0.398,0.192,0.576,0.582,0.576,1.027c0,0.775-0.571,1.242-1.298,1.242c-0.636,0-1.207-0.428-1.239-1.11h0.49
						c0.049,0.407,0.399,0.659,0.787,0.659c0.452,0,0.775-0.362,0.775-0.812c0-0.527-0.355-0.841-0.856-0.802V67.347z
						 M92.047,67.682c0-0.852,0.366-2.159,1.417-2.159s1.417,1.308,1.417,2.159c0,0.846-0.372,2.159-1.417,2.159
						S92.047,68.528,92.047,67.682z M92.531,67.676c0,0.571,0.205,1.703,0.932,1.703s0.932-1.132,0.932-1.703
						s-0.205-1.714-0.932-1.714S92.531,67.105,92.531,67.676z M95.355,67.682c0-0.852,0.366-2.159,1.417-2.159
						s1.417,1.308,1.417,2.159c0,0.846-0.372,2.159-1.417,2.159S95.355,68.528,95.355,67.682z M95.84,67.676
						c0,0.571,0.205,1.703,0.932,1.703c0.728,0,0.932-1.132,0.932-1.703s-0.205-1.714-0.932-1.714
						C96.044,65.962,95.84,67.105,95.84,67.676z M101.21,69.281v0.472h-2.623l1.777-2.225c0.167-0.209,0.361-0.467,0.361-0.742
						c0-0.434-0.377-0.791-0.797-0.791c-0.415,0-0.754,0.341-0.781,0.758h-0.506c0.081-0.736,0.549-1.23,1.287-1.23
						c0.689,0,1.282,0.522,1.282,1.242c0,0.308-0.113,0.615-0.302,0.852l-1.336,1.665H101.21z"/>
				</g>
			</g>
		</g>
	</g>
</g>
<g id="POA_DECK_13_TOP">
	<path class="st9" d="M125.795,23.164c-2.537-4.023-25.363-21.626-62.393-22.631C26.373-0.472,2.533,21.655,0.504,23.667
		c0,0-0.034,257.317,0.098,259.998c0.237,4.821,3.123,6.838,7.257,7.297c3.805,0.252,110.751-0.351,111.315-0.413
		c5.83-0.636,6.691-3.71,7.031-9.22C126.893,270.184,125.795,23.164,125.795,23.164z"/>
	<path class="st9" d="M92.131,782.093C109.54,777.698,108.398,758,108.398,758V445.15c0,0,0.176-4.924,0-8.969
		c-0.176-4.045-3.869-5.627-4.924-6.331c-1.055-0.704-4.924-0.476-4.924-0.476v-39.004c0-19.183-15.55-34.732-34.732-34.732
		c-19.182,0-34.732,15.55-34.732,34.732v38.879c0,0-3.693,0.073-5.627,0.601c-1.46,0.397-4.748,3.341-4.924,6.858
		c-0.176,3.517,0,8.617,0,8.617l0.798,313.955c0,0,0.336,16.349,15.908,22.636c0,0-1.406-17.234,8.266-24.62l5.452,5.452
		c0,0,11.783-13.014,29.192,0l5.275-5.452C83.425,757.296,93.186,763.276,92.131,782.093z"/>
	<g id="gDeck13Locations">
		<rect id="_x31_3Aft" x="0.164" y="535.935" class="st10" width="126.604" height="246.81"/>
		<rect id="_x31_3Middle" x="0.164" y="240.615" class="st10" width="126.604" height="295.32"/>
		<rect id="_x31_3Forward" x="0.164" class="st10" width="126.604" height="240.615"/>
	</g>
</g>
</svg>
