<?xml version="1.0" encoding="utf-8"?>
<!-- Generator: Adobe Illustrator 23.0.4, SVG Export Plug-In . SVG Version: 6.00 Build 0)  -->
<svg version="1.1" id="POA_DECK_14" xmlns="http://www.w3.org/2000/svg" xmlns:xlink="http://www.w3.org/1999/xlink" x="0px"
	 y="0px" width="92.19px" height="707.039px" viewBox="0 0 92.19 707.039" style="enable-background:new 0 0 92.19 707.039;"
	 xml:space="preserve">
<style type="text/css">
	.New_x0020_Cabins_x0020_2019{fill:#EFF2F5;stroke:#FFFFFF;stroke-width:0.5;stroke-miterlimit:10;}
	.st0{fill:#FFFFFF;}
	.st1{fill:none;stroke:#D5DCE0;stroke-width:0.5;}
	.st2{fill:#6E8496;}
	.st3{fill:none;stroke:#076FA0;stroke-miterlimit:10;}
	.st4{fill:none;}
</style>
<g id="POA_DECK_14_BOTTOM">
	<path class="st0" d="M72.632,348.594h-0.009c0-5.464-2.427-10.615-6.642-14.093l0.025,0.021
		c-5.344-4.949-12.311-7.693-19.595-7.718h-0.004c-7.287,0.027-14.256,2.776-19.599,7.731l0.044-0.037
		c-4.405,3.334-6.883,8.587-6.657,14.106l-0.01-0.012v357.945H72.61L72.632,348.594z"/>
	<path class="st0" d="M4.587,268.913c-3.833,0-3.5-3.5-3.5-3.5v-78.638h5.667V87.079H0.879c0,0,0.25-15.75,0.25-49.875
		c0-9.5,7.875-23.75,19.875-30.625C33.02-0.305,46.498,0.532,46.498,0.532S59.542-0.305,71.558,6.58
		c12,6.875,19.875,21.125,19.875,30.625c0,34.125,0.25,49.875,0.25,49.875h-5.875v78.667h5.666v99.667c0,0,0.333,3.5-3.5,3.5
		S8.42,268.913,4.587,268.913z"/>
	<line class="st1" x1="25.763" y1="656.582" x2="67.075" y2="656.582"/>
	<path class="st1" d="M51.53,656.369c0,2.94-2.384,5.324-5.324,5.324c-2.94,0-5.324-2.384-5.324-5.324
		c0-2.94,2.384-5.324,5.324-5.324C49.146,651.045,51.53,653.429,51.53,656.369z"/>
	<path class="st1" d="M51.53,637.417c0,2.94-2.384,5.324-5.324,5.324c-2.94,0-5.324-2.384-5.324-5.324
		c0-2.94,2.384-5.324,5.324-5.324C49.146,632.093,51.53,634.477,51.53,637.417z"/>
	<path class="st1" d="M51.53,675.534c0,2.94-2.384,5.324-5.324,5.324c-2.94,0-5.324-2.384-5.324-5.324
		c0-2.94,2.384-5.324,5.324-5.324C49.146,670.21,51.53,672.594,51.53,675.534z"/>
	<line class="st1" x1="39.303" y1="618.612" x2="40.931" y2="636.759"/>
	<line class="st1" x1="53.428" y1="618.517" x2="51.464" y2="636.759"/>
	<line class="st1" x1="41.074" y1="676.884" x2="39.446" y2="694.408"/>
	<line class="st1" x1="51.464" y1="676.597" x2="53.284" y2="694.36"/>
	<path class="st1" d="M60.459,614.349c0,0,3.468-0.047,3.812-3.693l0.023-0.229V357.102c0,0-0.053-17.593-17.621-18.012h-0.466
		c-17.568,0.419-17.621,18.012-17.621,18.012v253.325l0.023,0.229c0.344,3.646,3.812,3.693,3.812,3.693H60.459z"/>
	<path class="st1" d="M24.173,91.884V75.54h3.311l-0.002-2.227c-0.019-6.781,3.565-13.025,9.432-16.428
		c5.867-3.402,13.066-3.412,18.942-0.026c5.876,3.385,9.479,9.618,9.479,16.4v2.281h3.307v16.344l-3.307,0.001v2.219h1.267
		l0.031,126.918H45.24H26.185V94.103h1.308l-0.001-2.219L24.173,91.884z"/>
	<path class="st1" d="M1.081,252.188h10.641c0,0,6.834,0.173,6.834,7.007c0,6.835,0,9.689,0,9.689"/>
	<path class="st1" d="M6.358,259.109c0-2.962,2.401-5.364,5.364-5.364s5.364,2.401,5.364,5.364s-2.401,5.364-5.364,5.364
		S6.358,262.071,6.358,259.109z"/>
	<line class="st1" x1="11.722" y1="253.745" x2="11.722" y2="264.473"/>
	<line class="st1" x1="6.358" y1="259.109" x2="17.085" y2="259.109"/>
	<path class="st1" d="M91.57,252.188H80.929c0,0-6.835,0.173-6.835,7.007c0,6.835,0,9.689,0,9.689"/>
	<path class="st1" d="M86.293,259.109c0-2.962-2.401-5.364-5.364-5.364c-2.962,0-5.364,2.401-5.364,5.364s2.401,5.364,5.364,5.364
		C83.892,264.473,86.293,262.071,86.293,259.109z"/>
	<line class="st1" x1="80.929" y1="253.745" x2="80.929" y2="264.473"/>
	<line class="st1" x1="86.293" y1="259.109" x2="75.565" y2="259.109"/>
	<line class="st1" x1="27.302" y1="73.509" x2="18.601" y2="73.509"/>
	<line class="st1" x1="74.101" y1="73.509" x2="65.4" y2="73.509"/>
	<line class="st1" x1="6.754" y1="87.079" x2="18.601" y2="87.079"/>
	<line class="st1" x1="73.743" y1="87.079" x2="85.59" y2="87.079"/>
	<line class="st1" x1="76.296" y1="93.867" x2="76.296" y2="104.088"/>
	<polyline class="st1" points="65.399,93.867 80.183,93.867 80.183,152.492 	"/>
	<line class="st1" x1="76.34" y1="95.421" x2="79.966" y2="95.421"/>
	<line class="st1" x1="76.34" y1="96.936" x2="79.966" y2="96.936"/>
	<line class="st1" x1="76.34" y1="98.451" x2="79.966" y2="98.451"/>
	<line class="st1" x1="76.34" y1="99.966" x2="79.966" y2="99.966"/>
	<line class="st1" x1="76.34" y1="101.481" x2="79.966" y2="101.481"/>
	<line class="st1" x1="76.34" y1="102.997" x2="79.966" y2="102.997"/>
	<line class="st1" x1="16.411" y1="93.867" x2="16.411" y2="104.088"/>
	<polyline class="st1" points="27.308,93.867 12.524,93.867 12.524,152.492 	"/>
	<line class="st1" x1="16.367" y1="95.421" x2="12.741" y2="95.421"/>
	<line class="st1" x1="16.367" y1="96.936" x2="12.741" y2="96.936"/>
	<line class="st1" x1="16.367" y1="98.451" x2="12.741" y2="98.451"/>
	<line class="st1" x1="16.367" y1="99.966" x2="12.741" y2="99.966"/>
	<line class="st1" x1="16.367" y1="101.481" x2="12.741" y2="101.481"/>
	<line class="st1" x1="16.367" y1="102.997" x2="12.741" y2="102.997"/>
	<line class="st1" x1="11.975" y1="160.526" x2="25.961" y2="160.526"/>
	<line class="st1" x1="66.817" y1="160.526" x2="80.803" y2="160.526"/>
	<polyline class="st1" points="63.569,221.241 63.569,226.214 28.758,226.214 28.758,221.137 	"/>
	<line class="st1" x1="30.329" y1="221.076" x2="30.329" y2="226.087"/>
	<line class="st1" x1="31.899" y1="221.076" x2="31.899" y2="226.087"/>
	<line class="st1" x1="33.47" y1="221.076" x2="33.47" y2="226.087"/>
	<line class="st1" x1="35.04" y1="221.076" x2="35.04" y2="226.087"/>
	<line class="st1" x1="36.61" y1="221.076" x2="36.61" y2="226.087"/>
	<line class="st1" x1="38.181" y1="221.076" x2="38.181" y2="226.087"/>
	<rect x="42.906" y="15.993" class="st1" width="7.036" height="7.125"/>
	<path class="st1" d="M48.25,19.555c0,1.033-0.837,1.87-1.87,1.87c-1.033,0-1.87-0.837-1.87-1.87c0-1.033,0.837-1.87,1.87-1.87
		C47.413,17.685,48.25,18.522,48.25,19.555z"/>
	<rect x="25.763" y="618.465" class="st1" width="41.312" height="76.021"/>
	<rect x="73.086" y="583.354" class="st1" width="5.754" height="20.99"/>
	<line class="st1" x1="73.021" y1="584.989" x2="78.709" y2="584.989"/>
	<line class="st1" x1="73.021" y1="586.493" x2="78.709" y2="586.493"/>
	<line class="st1" x1="73.021" y1="587.997" x2="78.709" y2="587.997"/>
	<line class="st1" x1="73.021" y1="589.501" x2="78.709" y2="589.501"/>
	<line class="st1" x1="73.021" y1="591.005" x2="78.709" y2="591.005"/>
	<line class="st1" x1="73.021" y1="592.509" x2="78.709" y2="592.509"/>
	<line class="st1" x1="73.021" y1="594.013" x2="78.709" y2="594.013"/>
	<line class="st1" x1="73.021" y1="595.517" x2="78.709" y2="595.517"/>
	<line class="st1" x1="73.021" y1="597.021" x2="78.709" y2="597.021"/>
	<line class="st1" x1="73.021" y1="598.524" x2="78.709" y2="598.524"/>
	<line class="st1" x1="73.021" y1="583.485" x2="78.709" y2="583.485"/>
	<rect x="73.086" y="583.354" class="st1" width="5.754" height="20.99"/>
	<line class="st1" x1="73.021" y1="584.989" x2="78.709" y2="584.989"/>
	<line class="st1" x1="73.021" y1="586.493" x2="78.709" y2="586.493"/>
	<line class="st1" x1="73.021" y1="587.997" x2="78.709" y2="587.997"/>
	<line class="st1" x1="73.021" y1="589.501" x2="78.709" y2="589.501"/>
	<line class="st1" x1="73.021" y1="591.005" x2="78.709" y2="591.005"/>
	<line class="st1" x1="73.021" y1="592.509" x2="78.709" y2="592.509"/>
	<line class="st1" x1="73.021" y1="594.013" x2="78.709" y2="594.013"/>
	<line class="st1" x1="73.021" y1="595.517" x2="78.709" y2="595.517"/>
	<line class="st1" x1="73.021" y1="597.021" x2="78.709" y2="597.021"/>
	<line class="st1" x1="73.021" y1="598.524" x2="78.709" y2="598.524"/>
	<line class="st1" x1="73.021" y1="583.485" x2="78.709" y2="583.485"/>
	<rect x="14.04" y="607.418" class="st1" width="5.754" height="20.99"/>
	<line class="st1" x1="13.975" y1="609.053" x2="19.663" y2="609.053"/>
	<line class="st1" x1="13.975" y1="610.557" x2="19.663" y2="610.557"/>
	<line class="st1" x1="13.975" y1="612.06" x2="19.663" y2="612.06"/>
	<line class="st1" x1="13.975" y1="613.564" x2="19.663" y2="613.564"/>
	<line class="st1" x1="13.975" y1="615.068" x2="19.663" y2="615.068"/>
	<line class="st1" x1="13.975" y1="616.572" x2="19.663" y2="616.572"/>
	<line class="st1" x1="13.975" y1="618.076" x2="19.663" y2="618.076"/>
	<line class="st1" x1="13.975" y1="619.58" x2="19.663" y2="619.58"/>
	<line class="st1" x1="13.975" y1="621.084" x2="19.663" y2="621.084"/>
	<line class="st1" x1="13.975" y1="622.588" x2="19.663" y2="622.588"/>
	<line class="st1" x1="13.975" y1="607.549" x2="19.663" y2="607.549"/>
	<rect x="0.464" y="161.111" class="st1" width="5.754" height="20.99"/>
	<line class="st1" x1="6.283" y1="180.466" x2="0.595" y2="180.466"/>
	<line class="st1" x1="6.283" y1="178.962" x2="0.595" y2="178.962"/>
	<line class="st1" x1="6.283" y1="177.459" x2="0.595" y2="177.459"/>
	<line class="st1" x1="6.283" y1="175.955" x2="0.595" y2="175.955"/>
	<line class="st1" x1="6.283" y1="174.451" x2="0.595" y2="174.451"/>
	<line class="st1" x1="6.283" y1="172.947" x2="0.595" y2="172.947"/>
	<line class="st1" x1="6.283" y1="171.443" x2="0.595" y2="171.443"/>
	<line class="st1" x1="6.283" y1="169.939" x2="0.595" y2="169.939"/>
	<line class="st1" x1="6.283" y1="168.435" x2="0.595" y2="168.435"/>
	<line class="st1" x1="6.283" y1="166.931" x2="0.595" y2="166.931"/>
	<line class="st1" x1="6.283" y1="181.97" x2="0.595" y2="181.97"/>
	<path class="st2" d="M37.56,647.455v-1.015c0.344,0.199,0.616,0.312,0.879,0.312c0.28,0,0.52-0.136,0.52-0.479v-0.017
		c0-0.256-0.08-0.447-0.544-0.976c-0.664-0.751-0.936-1.111-0.936-1.791v-0.016c0-0.896,0.584-1.463,1.359-1.463
		c0.392,0,0.624,0.056,0.863,0.176v1.016c-0.304-0.176-0.487-0.256-0.743-0.256c-0.272,0-0.504,0.176-0.504,0.479v0.016
		c0,0.264,0.08,0.36,0.543,0.896c0.768,0.888,0.936,1.231,0.936,1.871v0.016c0,0.88-0.616,1.464-1.383,1.464
		C38.167,647.688,37.839,647.592,37.56,647.455z M40.279,642.051h0.872c1.063,0,1.807,0.575,1.807,1.887v0.016
		c0,1.264-0.704,1.863-1.695,1.936h-0.008v1.759h-0.976V642.051z M41.263,644.984c0.408-0.023,0.72-0.319,0.72-0.999v-0.016
		c0-0.712-0.272-1.016-0.695-1.016h-0.032v2.03H41.263z M43.264,644.993v-0.288c0-1.847,0.6-2.734,1.487-2.734
		c0.888,0,1.487,0.888,1.487,2.734v0.288c0,1.847-0.6,2.734-1.487,2.734C43.863,647.728,43.264,646.84,43.264,644.993z
		 M45.247,644.993v-0.288c0-1.439-0.2-1.839-0.496-1.839s-0.496,0.399-0.496,1.839v0.288c0,1.438,0.2,1.839,0.496,1.839
		S45.247,646.432,45.247,644.993z M46.719,642.051h1.008c0.999,0,1.727,0.527,1.727,1.782v0.072c0,0.728-0.288,1.191-0.656,1.472
		l0.751,2.271h-1.04l-0.631-1.951h-0.184v1.951h-0.976V642.051z M47.743,644.817c0.424,0,0.736-0.248,0.736-0.904v-0.063
		c0-0.704-0.336-0.888-0.76-0.888h-0.024v1.855H47.743z M50.343,642.978h-0.688v-0.927h2.351v0.927h-0.688v4.67h-0.975V642.978z
		 M52.295,647.455v-1.015c0.344,0.199,0.616,0.312,0.879,0.312c0.28,0,0.52-0.136,0.52-0.479v-0.017c0-0.256-0.08-0.447-0.544-0.976
		c-0.664-0.751-0.936-1.111-0.936-1.791v-0.016c0-0.896,0.584-1.463,1.359-1.463c0.392,0,0.624,0.056,0.863,0.176v1.016
		c-0.304-0.176-0.487-0.256-0.743-0.256c-0.272,0-0.504,0.176-0.504,0.479v0.016c0,0.264,0.08,0.36,0.543,0.896
		c0.768,0.888,0.936,1.231,0.936,1.871v0.016c0,0.88-0.616,1.464-1.383,1.464C52.903,647.688,52.575,647.592,52.295,647.455z
		 M38.815,652.944v-0.191c0-1.967,0.728-2.742,1.639-2.742c0.272,0,0.432,0.031,0.64,0.128v1.007c-0.2-0.119-0.36-0.184-0.543-0.184
		c-0.432,0-0.744,0.384-0.744,1.783v0.208c0,1.479,0.312,1.782,0.759,1.782c0.152,0,0.344-0.056,0.544-0.176v0.96
		c-0.224,0.128-0.44,0.168-0.72,0.168C39.495,655.688,38.815,654.896,38.815,652.944z M41.304,652.993v-0.288
		c0-1.847,0.6-2.734,1.487-2.734c0.888,0,1.487,0.888,1.487,2.734v0.288c0,1.847-0.6,2.734-1.487,2.734
		C41.903,655.728,41.304,654.84,41.304,652.993z M43.287,652.993v-0.288c0-1.439-0.2-1.839-0.496-1.839
		c-0.295,0-0.496,0.399-0.496,1.839v0.288c0,1.438,0.2,1.839,0.496,1.839C43.086,654.832,43.287,654.432,43.287,652.993z
		 M44.744,654.017v-3.966h0.967v4.062c0,0.504,0.176,0.703,0.424,0.703s0.424-0.199,0.424-0.703v-4.062h0.967v3.966
		c0,1.175-0.592,1.703-1.391,1.703C45.335,655.72,44.744,655.191,44.744,654.017z M48.087,650.051h1.007
		c1,0,1.727,0.527,1.727,1.782v0.072c0,0.728-0.288,1.191-0.656,1.472l0.752,2.271h-1.04l-0.632-1.951h-0.184v1.951h-0.976V650.051z
		 M49.111,652.817c0.424,0,0.735-0.248,0.735-0.904v-0.063c0-0.704-0.335-0.888-0.759-0.888h-0.024v1.855H49.111z M51.711,650.978
		h-0.688v-0.927h2.351v0.927h-0.688v4.67h-0.976V650.978z"/>
	<path class="st2" d="M34.754,41.962v-1.016c0.344,0.2,0.616,0.312,0.879,0.312c0.28,0,0.52-0.136,0.52-0.48v-0.016
		c0-0.256-0.08-0.448-0.544-0.976c-0.664-0.752-0.936-1.111-0.936-1.791V37.98c0-0.896,0.584-1.463,1.359-1.463
		c0.392,0,0.624,0.056,0.863,0.176v1.015c-0.304-0.176-0.487-0.256-0.743-0.256c-0.272,0-0.504,0.176-0.504,0.48v0.016
		c0,0.264,0.08,0.359,0.543,0.896c0.768,0.887,0.936,1.231,0.936,1.871v0.016c0,0.879-0.616,1.463-1.383,1.463
		C35.362,42.194,35.034,42.098,34.754,41.962z M37.458,40.522v-3.966h0.967v4.062c0,0.503,0.176,0.704,0.424,0.704
		c0.248,0,0.424-0.2,0.424-0.704v-4.062h0.967v3.966c0,1.175-0.592,1.703-1.391,1.703C38.05,42.226,37.458,41.698,37.458,40.522z
		 M40.802,36.557h0.912l0.983,2.831v-2.831h0.951v5.597h-0.863l-1.032-2.966v2.966h-0.951V36.557z M45.498,36.557h0.912
		c1.247,0,1.959,0.904,1.959,2.703v0.192c0,1.799-0.712,2.703-1.959,2.703h-0.912V36.557z M46.514,41.258
		c0.463,0,0.863-0.408,0.863-1.807v-0.192c0-1.399-0.4-1.807-0.863-1.807h-0.04v3.806H46.514z M48.85,36.557h2.143v0.928h-1.167
		v1.391h1.031v0.927h-1.031v1.423h1.191v0.928H48.85V36.557z M51.314,39.451v-0.192c0-1.967,0.728-2.743,1.639-2.743
		c0.272,0,0.432,0.032,0.64,0.128v1.008c-0.2-0.12-0.36-0.184-0.544-0.184c-0.432,0-0.743,0.384-0.743,1.783v0.208
		c0,1.479,0.312,1.783,0.759,1.783c0.152,0,0.344-0.056,0.544-0.176v0.959c-0.224,0.128-0.44,0.168-0.72,0.168
		C51.994,42.194,51.314,41.402,51.314,39.451z M54.098,36.557h0.975v2.343l0.792-2.343h1.104l-0.943,2.367l0.959,3.23h-1.087
		l-0.608-2.119l-0.216,0.616v1.503h-0.975V36.557z"/>
</g>
<g id="POA_DECK_14_TOP">
	<path class="st3" d="M4.587,268.913c-3.833,0-3.5-3.5-3.5-3.5v-78.638h5.667V87.079H0.879c0,0,0.25-15.75,0.25-49.875
		c0-9.5,7.875-23.75,19.875-30.625C33.02-0.305,46.498,0.532,46.498,0.532S59.542-0.305,71.558,6.58
		c12,6.875,19.875,21.125,19.875,30.625c0,34.125,0.25,49.875,0.25,49.875h-5.875v78.667h5.666v99.667c0,0,0.333,3.5-3.5,3.5
		S8.42,268.913,4.587,268.913z"/>
	<path class="st3" d="M72.632,348.594h-0.009c0-5.464-2.427-10.615-6.642-14.093l0.025,0.021
		c-5.344-4.949-12.311-7.693-19.595-7.718h-0.004c-7.287,0.027-14.256,2.776-19.599,7.731l0.044-0.037
		c-4.405,3.334-6.883,8.587-6.657,14.106l-0.01-0.012v357.945H72.61L72.632,348.594z"/>
	<g id="gDeck14Locations">
		<rect id="_x31_4Aft" y="496.655" class="st4" width="92.19" height="210.384"/>
		<rect id="_x31_4Middle" y="197.705" class="st4" width="92.19" height="298.95"/>
		<rect id="_x31_4Forward" class="st4" width="92.19" height="197.705"/>
	</g>
</g>
</svg>
