<?xml version="1.0" encoding="utf-8"?>
<svg id="triangle-exclamation" viewBox="0 0 24 24" xmlns="http://www.w3.org/2000/svg">
  <path d="M 12.002 2.108 C 11.381 2.108 10.817 2.431 10.502 2.956 L 0.74 19.328 C 0.425 19.863 0.416 20.518 0.74 21.044 C 1.055 21.579 1.629 21.892 2.249 21.892 L 21.754 21.892 C 22.375 21.892 22.949 21.579 23.264 21.044 C 23.579 20.518 23.579 19.863 23.264 19.328 L 13.503 2.956 C 13.188 2.431 12.622 2.108 12.002 2.108 Z M 12.002 3.15 C 12.234 3.15 12.493 3.298 12.604 3.482 L 22.366 19.863 C 22.477 20.048 22.477 20.325 22.366 20.509 C 22.254 20.693 21.986 20.85 21.754 20.85 L 2.249 20.85 C 2.009 20.85 1.749 20.693 1.638 20.509 C 1.527 20.325 1.527 20.048 1.638 19.863 L 11.4 3.482 C 11.511 3.298 11.771 3.15 12.002 3.15 Z M 12.002 7.577 C 11.715 7.577 11.474 7.808 11.474 8.094 L 11.474 15.381 C 11.474 15.676 11.715 15.906 12.002 15.906 C 12.289 15.906 12.521 15.676 12.521 15.381 L 12.521 8.094 C 12.521 7.808 12.289 7.577 12.002 7.577 Z M 12.002 16.949 C 11.567 16.949 11.215 17.299 11.215 17.723 C 11.215 18.157 11.567 18.507 12.002 18.507 C 12.437 18.507 12.78 18.157 12.78 17.723 C 12.78 17.299 12.437 16.949 12.002 16.949 Z" />
</svg>