<?xml version="1.0" encoding="utf-8"?>
<!-- Generator: Adobe Illustrator 25.4.1, SVG Export Plug-In . SVG Version: 6.00 Build 0)  -->
<svg version="1.1" id="BLISS_DECK_06" xmlns="http://www.w3.org/2000/svg" xmlns:xlink="http://www.w3.org/1999/xlink" x="0px"
	 y="0px" width="137.9px" height="1024.9px" viewBox="0 0 137.9 1024.9" style="enable-background:new 0 0 137.9 1024.9;"
	 xml:space="preserve">
<style type="text/css">
	.st0{fill:#FFFFFF;}
	.st1{fill:none;stroke:#D5DCE0;stroke-width:0.5;stroke-linecap:round;stroke-miterlimit:10;stroke-dasharray:1,1;}
	.st2{fill:none;stroke:#D5DCE0;stroke-width:0.5;}
	.st3{fill:none;stroke:#D5DCE0;stroke-width:0.25;}
	.st4{fill:none;stroke:#D5DCE0;stroke-width:0.5004;stroke-miterlimit:10;stroke-dasharray:0.9975,0.9975;}
	.st5{fill:none;stroke:#D5DCE0;stroke-width:0.5;stroke-miterlimit:500;stroke-dasharray:1,1;}
	.st6{fill:none;stroke:#D5DCE0;stroke-width:0.5;stroke-miterlimit:10;}
	.st7{fill:none;stroke:#D5DCE0;stroke-width:0.5;stroke-miterlimit:10;stroke-dasharray:0.9902,0.9902;}
	.st8{fill:none;stroke:#D5DCE0;stroke-width:0.5;stroke-miterlimit:10;stroke-dasharray:1.0284,1.0284;}
	.st9{fill:none;stroke:#D5DCE0;stroke-width:0.5;stroke-miterlimit:10;stroke-dasharray:0.9966,0.9966;}
	.st10{fill:none;stroke:#D5DCE0;stroke-width:0.5;stroke-miterlimit:10;stroke-dasharray:1,1,1;}
	.st11{fill:#6E8496;}
	.st12{fill:none;}
	.st13{fill:none;stroke:#076FA0;stroke-miterlimit:10;}
</style>
<g id="BLISS_DECK_06_BOTTOM">
	<path class="st0" d="M68.9,0.5c-5.3,0-6,5.7-14.7,17.8C43.8,32.8,3.6,78.6,0.6,157.4c0,840.5,0,827.5,0,845.7
		c12.1,14.8,28.2,18,61.8,18c0.5,1.5,2.5,3.3,6.5,3.3h0.2c4,0,5.7-1.8,6.5-3.3c33.7,0,49.8-3.2,61.8-18c0-15.2,0-845.7,0-845.7
		c-3-78.8-43.2-124.7-53.7-139.2C75.1,6.2,74.4,0.5,69.1,0.5H68.9z"/>
	<path class="st1" d="M25.6,266.6c12.5,8.1,26.5,11.6,43.5,11.6s32-3.5,44.5-11.6"/>
	<polyline class="st2" points="48.6,417.7 48.6,399.4 1.3,399.4 	"/>
	<path class="st2" d="M137.4,399.4H107c0,0-0.1,16.7-0.1,16.8h30.1"/>
	<polyline class="st2" points="55.8,413.4 48.6,415.6 48.6,418 43.6,418 43.6,412.2 22.6,412.2 22.6,399.4 	"/>
	<polyline class="st2" points="1.2,416.1 25.6,416.1 25.6,412.2 	"/>
	<polyline class="st2" points="0.7,425.2 47.5,425.2 47.5,426.5 	"/>
	<line class="st2" x1="13.7" y1="416.4" x2="13.7" y2="425.2"/>
	<line class="st2" x1="0.4" y1="515.5" x2="25.7" y2="515.5"/>
	<line class="st2" x1="0.4" y1="749.2" x2="25.7" y2="749.2"/>
	<line class="st2" x1="0.4" y1="799.9" x2="25.7" y2="799.9"/>
	<line class="st2" x1="112.4" y1="749.2" x2="137.7" y2="749.2"/>
	<line class="st2" x1="112.4" y1="799.9" x2="137.7" y2="799.9"/>
	<path class="st2" d="M77.7,545.5l6.1,0.4c9,0,13.6-5.9,13.6-5.9v3.8h8.2v-7.4c0,0-6.2-0.1-8.1,0c-7.3,9.8-18,6.8-18,6.8
		c-1.7-1.3-2.8-3.3-2.8-5.5c0-3.8,3.2-6.9,7.2-6.9c3.7,0,6.7,2.6,7.1,6.1c0.1,0.6,0.7,1.1,1.3,1c0.6-0.1,1.1-0.6,1.1-1.1
		c0,0,0-0.1,0-0.1c-0.5-4.6-4.6-8.1-9.5-8.1c-5.3,0-9.6,4.1-9.6,9.2c0,2.8,1.2,5.5,3.4,7.2"/>
	<path class="st2" d="M88.8,745.3V742H90c0-6.9,7-6.8,7-6.8v-3.4h-5.3v-32.3h44.8"/>
	<path class="st2" d="M88.8,773.7v-6.3H90c0-6.9,7-6.8,7-6.8l0-6.2c0,0-7,0.2-7-6.8h-1.2v-3.6"/>
	<path class="st2" d="M88.8,773.5v-0.4H90c0,6.9,7,6.8,7,6.8"/>
	<path class="st2" d="M42.7,779.1c-1.8,0.8-3.5,0.8-3.5,0.8c-1.4,0-2.4,0-2.4,0v5.2H48"/>
	<path class="st2" d="M47.4,773.5v-0.4h-1.2c0,3.5-1.8,5.1-3.5,6"/>
	<path class="st2" d="M0.2,699.5h45.3v28.6h-6.3v7.4c0,0,7-0.2,7,6.8h1.2v3.3"/>
	<path class="st2" d="M47.4,772.9v-5.3h-1.2c0-6.9-7-6.8-7-6.8l0-6.2c0,0,7,0.2,7-6.8h1.2v-3.6"/>
	<line class="st2" x1="47.4" y1="775.1" x2="47.4" y2="788.1"/>
	<line class="st2" x1="47.4" y1="773.3" x2="47.4" y2="775.1"/>
	<polyline class="st2" points="96.9,779.9 100.1,779.9 100.1,784.9 90.1,784.9 	"/>
	<rect x="51.9" y="428" class="st2" width="9.3" height="33.3"/>
	<line class="st2" x1="60.9" y1="453" x2="52.1" y2="461"/>
	<line class="st2" x1="60.8" y1="461" x2="52" y2="453"/>
	<polyline class="st2" points="60.9,444.9 52.1,452.9 60.8,452.9 52,444.9 	"/>
	<polyline class="st2" points="60.9,436.4 52.1,444.5 60.8,444.5 52,436.4 	"/>
	<polyline class="st2" points="60.9,428 52.1,436.3 60.8,436.3 52,428 	"/>
	<rect x="76.7" y="428" class="st2" width="9.3" height="33.3"/>
	<line class="st2" x1="77" y1="453" x2="85.9" y2="461"/>
	<line class="st2" x1="77.1" y1="461" x2="86" y2="453"/>
	<polyline class="st2" points="77,444.9 85.9,452.9 77.1,452.9 86,444.9 	"/>
	<polyline class="st2" points="77,436.4 85.9,444.5 77.1,444.5 86,436.4 	"/>
	<polyline class="st2" points="77,428 85.9,436.3 77.1,436.3 86,428 	"/>
	<rect x="68.5" y="400.4" class="st2" width="12.9" height="14.9"/>
	<rect x="68.5" y="408.4" class="st3" width="12.9" height="1"/>
	<rect x="68.5" y="409.4" class="st3" width="12.9" height="1"/>
	<rect x="68.5" y="410.4" class="st3" width="12.9" height="1"/>
	<polygon class="st3" points="79.3,412.3 68.5,412.3 68.5,411.4 81.4,411.4 	"/>
	<polygon class="st3" points="77.1,413.3 68.5,413.3 68.5,412.4 79.2,412.4 	"/>
	<rect x="68.5" y="413.3" class="st3" width="6.2" height="1"/>
	<rect x="68.5" y="414.3" class="st3" width="6.2" height="1"/>
	<polygon class="st3" points="81.4,415.3 75.1,415.3 75.1,414.3 81.4,411.3 	"/>
	<path class="st3" d="M75.1,407c0-0.1-0.1-0.2-0.2-0.2l0,0c-0.1,0-0.2,0.1-0.2,0.2v9.3c0,0.1,0.1,0.2,0.2,0.2l0,0
		c0.1,0,0.2-0.1,0.2-0.2V407z"/>
	<rect x="55.6" y="400.4" class="st2" width="12.9" height="14.9"/>
	<rect x="55.6" y="408.4" class="st3" width="12.9" height="1"/>
	<rect x="55.6" y="409.4" class="st3" width="12.9" height="1"/>
	<rect x="55.6" y="410.4" class="st3" width="12.9" height="1"/>
	<polygon class="st3" points="57.7,412.3 68.5,412.3 68.5,411.4 55.6,411.4 	"/>
	<polygon class="st3" points="59.9,413.3 68.5,413.3 68.5,412.4 57.7,412.4 	"/>
	<rect x="62.4" y="413.3" class="st3" width="6.2" height="1"/>
	<rect x="62.4" y="414.3" class="st3" width="6.2" height="1"/>
	<polygon class="st3" points="55.6,415.3 61.9,415.3 61.9,414.3 55.6,411.3 	"/>
	<path class="st3" d="M61.9,407c0-0.1,0.1-0.2,0.2-0.2l0,0c0.1,0,0.2,0.1,0.2,0.2v9.3c0,0.1-0.1,0.2-0.2,0.2l0,0
		c-0.1,0-0.2-0.1-0.2-0.2V407z"/>
	<polygon class="st2" points="62.1,466.6 62.1,461.3 52.1,461.3 52.1,428 62.1,428 62.1,426.3 47.5,426.3 47.5,466.6 	"/>
	<polygon class="st2" points="76.2,466.6 76.2,461.3 86.2,461.3 86.2,428 75.2,428 75.2,426.3 89.8,426.3 89.8,466.6 	"/>
	<polygon class="st2" points="75.5,781.1 75.5,787.3 86.5,787.3 86.5,820.7 75.5,820.7 75.5,822.3 90.1,822.3 90.1,781.1 	"/>
	<rect x="77.2" y="787.4" class="st2" width="9.3" height="33.3"/>
	<line class="st2" x1="77.5" y1="795.6" x2="86.4" y2="787.6"/>
	<line class="st2" x1="77.6" y1="787.6" x2="86.5" y2="795.6"/>
	<polyline class="st2" points="77.5,803.8 86.4,795.7 77.6,795.8 86.5,803.8 	"/>
	<polyline class="st2" points="77.5,812.2 86.4,804.2 77.6,804.2 86.5,812.2 	"/>
	<polyline class="st2" points="77.5,820.6 86.4,812.3 77.6,812.3 86.5,820.6 	"/>
	<polygon class="st2" points="62.7,781.1 62.7,787.3 51.7,787.3 51.7,820.7 62.7,820.7 62.7,822.3 48.1,822.3 48.1,809.2 
		48.1,781.1 	"/>
	<rect x="51.7" y="787.4" class="st2" width="9.3" height="33.3"/>
	<line class="st2" x1="60.7" y1="795.6" x2="51.9" y2="787.6"/>
	<line class="st2" x1="60.6" y1="787.6" x2="51.8" y2="795.6"/>
	<polyline class="st2" points="60.7,803.8 51.9,795.7 60.6,795.8 51.8,803.8 	"/>
	<polyline class="st2" points="60.7,812.2 51.9,804.2 60.6,804.2 51.8,812.2 	"/>
	<polyline class="st2" points="60.7,820.6 51.9,812.3 60.6,812.3 51.8,820.6 	"/>
	<polygon class="st2" points="46,830.9 59.3,830.9 59.3,848 46,848.1 	"/>
	<rect x="46" y="837.7" class="st2" width="13.3" height="1.1"/>
	<rect x="46" y="836.6" class="st2" width="13.3" height="1.1"/>
	<rect x="46" y="835.5" class="st2" width="13.3" height="1.1"/>
	<polygon class="st2" points="48.1,834.4 59.3,834.4 59.3,835.5 46,835.5 	"/>
	<polygon class="st2" points="50.4,833.2 59.3,833.2 59.3,834.3 48.2,834.3 	"/>
	<rect x="52.9" y="832.1" class="st2" width="6.3" height="1.1"/>
	<rect x="52.9" y="831" class="st2" width="6.3" height="1.1"/>
	<polygon class="st2" points="46,831 52.5,831 52.5,832.1 46,835.5 	"/>
	<path class="st2" d="M52.4,840.5c0,0.2,0.1,0.3,0.2,0.3l0,0c0.1,0,0.2-0.1,0.2-0.3v-10.8c0-0.2-0.1-0.3-0.2-0.3l0,0
		c-0.1,0-0.2,0.1-0.2,0.3V840.5z"/>
	<polygon class="st2" points="78.7,830.9 92,830.9 92,848 78.7,848.1 	"/>
	<rect x="78.7" y="837.7" class="st2" width="13.3" height="1.1"/>
	<rect x="78.7" y="836.6" class="st2" width="13.3" height="1.1"/>
	<rect x="78.7" y="835.5" class="st2" width="13.3" height="1.1"/>
	<polygon class="st2" points="80.9,834.4 92,834.4 92,835.5 78.7,835.5 	"/>
	<polygon class="st2" points="83.1,833.2 92,833.2 92,834.3 80.9,834.3 	"/>
	<rect x="85.7" y="832.1" class="st2" width="6.3" height="1.1"/>
	<rect x="85.7" y="831" class="st2" width="6.3" height="1.1"/>
	<polygon class="st2" points="78.7,831 85.2,831 85.2,832.1 78.7,835.5 	"/>
	<path class="st2" d="M85.2,840.5c0,0.2,0.1,0.3,0.2,0.3l0,0c0.1,0,0.2-0.1,0.2-0.3v-10.8c0-0.2-0.1-0.3-0.2-0.3l0,0
		c-0.1,0-0.2,0.1-0.2,0.3V840.5z"/>
	<path class="st2" d="M99.2,406.5l0-47c0,0,24.1-10.3,24.1-28.3c0-2.6,0-6.1,0-6.1H117c0,0-3.7-12.9-16.7-13.2l-4.4,0.9"/>
	<path class="st2" d="M81.4,411.4l3.3-1V408h6v-45.6h-0.9l-6.4,7.6c0,0-8.2,0.8-14.2-0.2s-20.9-5.9-24.4-9.2
		c-0.3,0.9-0.5,1.3-0.5,1.3l3,2.5l0.1,2.8h-7.3v-1.1h-9v-5.5h7.5l2.2-6.7c0,0-6.4,0.1-7.6,0.1s-2.6-0.8-3.6-2.3s-7.2-11.3-7.2-11.3
		l3.2-1.8l-2.1-3.6l3.2-1.8V315l7.9-5.9h8.8"/>
	<polyline class="st2" points="137.5,300.3 118.7,300.3 118.7,233.6 113.7,233.6 	"/>
	<polyline class="st2" points="30.4,237.9 25.6,237.9 25.6,283.4 19.9,283.4 19.9,300.2 113.5,300.3 	"/>
	<polyline class="st2" points="99.4,393.5 113.6,393.5 113.6,391.7 129.4,391.7 129.4,308.6 113.6,308.6 113.7,233.6 	"/>
	<path class="st2" d="M47.8,479.5c-1.4,0.1-2.7-0.1-3.9-0.5c-1.8-0.5-3.5-1.3-5-1.9c-2.2-0.9-4.2-1.8-5.7-1.7l-0.1-3
		c2.2-0.1,4.4,0.8,7,1.9c1.5,0.6,3,1.3,4.7,1.8c2.3,0.7,5.9,0.4,8.8-1.7c1.8-1.2,3.9-3.6,4.1-7.9l3,0.1c-0.3,5.5-3.1,8.6-5.4,10.2
		C53.1,478.5,50.4,479.3,47.8,479.5z"/>
	<path class="st2" d="M4.7,476.3c1.1,1.2,2.2,2.1,3.3,2.7c2.3,1.3,5.1,2,7.6,1.9c1.4-0.1,2.7-0.3,3.9-0.8c1.8-0.7,3.4-1.6,4.8-2.3
		c2.1-1.1,4-2.1,5.5-2.2l-0.1-3c-2.2,0.1-4.3,1.2-6.8,2.5c-1.4,0.8-2.9,1.5-4.5,2.2c-2.2,0.9-5.8,1-8.9-0.9
		c-0.8-0.5-1.8-1.2-2.6-2.2L4.7,476.3z"/>
	<path class="st1" d="M97.8,480l-4.5,26.4l0-0.2c-2.4,12.3-11,14.6-18.5,12.6c-8-2.1-12.2-8.6-8.6-19.8l8-25.1"/>
	<path class="st2" d="M98,480.1c3.9,0.8,4.5,0.4,5.3-1.1c0.8-1.5,5-12.4,5-12.4"/>
	<polyline class="st2" points="113.7,466.6 122,466.6 122,469.5 137.2,475.8 	"/>
	<polyline class="st2" points="108.4,422.7 108.4,466.6 105.6,466.6 105.6,470.4 89.7,470.4 89.7,466.6 	"/>
	<line class="st2" x1="60.7" y1="466.6" x2="0.8" y2="466.6"/>
	<polyline class="st2" points="98.6,480.1 72.2,473.4 73,469.8 76.2,469.8 76.2,466.6 	"/>
	<polyline class="st2" points="113.7,466.7 113.7,435.3 116.4,435.3 116.4,424.3 113.7,424.3 113.7,416 	"/>
	<polyline class="st2" points="89.8,427.5 89.8,424.8 99.3,424.8 99.3,422.9 108.4,422.9 	"/>
	<line class="st2" x1="89.6" y1="447.9" x2="95" y2="447.9"/>
	<line class="st2" x1="102.8" y1="447.9" x2="108.2" y2="447.9"/>
	<path class="st2" d="M82,627.8l-2.3-1.2l-0.5,0.2l0.1-1.2l-0.5,0.5l-2.2-1.1l4.8-1.2l-0.2-0.9l-4.8,1.3l-0.3-0.6l4.7-1.5l-0.3-0.9
		l-4.5,1.9l-0.3-0.7l4.5-2l-0.3-0.9l-4.4,2.2L75,621c0,0,2.1-2.4,4.6-2.1c-0.3-0.5-0.4-0.8-0.4-0.8s-2.4-0.3-4.8,2.5"/>
	<path class="st2" d="M81,643.3c0.8-1.4,1.6-2.9,2.2-4.5c0,0,0-0.1,0-0.1"/>
	<path class="st2" d="M81.1,634.3c-0.4,1.8-0.6,3.9,2.6,5.1"/>
	<path class="st2" d="M81.1,634.3l0.4-2.4c0.4-2.1,0.7-4.2,0.3-6.3c-0.6-2.7-2.6-7.2-2.6-7.2"/>
	<path class="st2" d="M74.6,620.5c0,0,1.9,4.2,2.3,6.1c0.2,1.2,0,2.8-0.3,4.4l-0.5,2.6c-1.1,5.6,2.4,8.5,5.7,10.1"/>
	<polyline class="st2" points="82.3,638.3 79.2,642.1 81,643.3 83.2,639 	"/>
	<polyline class="st2" points="81.7,637.7 78,640.9 77,639.5 81.2,637.1 81,636.3 76.4,637.8 75.9,635.9 80.9,635.3 81,634.4 
		76.2,634.3 76.4,633.1 81.2,633.3 81.3,632.1 76.5,631.9 76.8,630.7 81.6,630.8 81.7,629.4 76.8,629.5 77,628.2 82,628 82,627 	"/>
	<g>
		<path class="st4" d="M53.5,628.9c0,13.7,7.2,23.9,16.2,23.9s15.2-10.1,15.2-23.9S78.6,604,69.7,604
			C60.7,604,53.5,615.1,53.5,628.9z"/>
	</g>
	<line class="st2" x1="0.6" y1="848.1" x2="137.3" y2="848.1"/>
	<polyline class="st2" points="92,831 93.7,831 91.2,824.1 94.5,823.1 92.9,818.6 90.2,819.6 	"/>
	<polyline class="st2" points="45.8,831 48.1,824.3 41.5,822.2 41.5,817.1 	"/>
	<polyline class="st2" points="48,817.4 34.8,817.4 34.8,840.6 45.8,840.6 	"/>
	<polyline class="st2" points="47.8,807.7 39.9,807.7 39.9,817.1 	"/>
	<polyline class="st2" points="34.7,825.5 25.9,825.5 25.9,840.6 18.5,840.6 18.5,848 	"/>
	<polyline class="st2" points="47.4,773.1 47.4,781.1 48.1,781.1 	"/>
	<path class="st2" d="M47.4,742.2H48v-1.4h12.7v-75.6H46.8c0,0,0-0.3,0,3c0,5.8-7.9,10.2-7.9,10.2v2.5h-8.8v9.6H24"/>
	<line class="st2" x1="88.8" y1="773.1" x2="88.8" y2="781.3"/>
	<path class="st2" d="M89.6,624.3c0,0,0,5.3,0-3.5c0-12.4-11.9-26.5-11.9-26.5v-49.7"/>
	<line class="st2" x1="89.6" y1="652" x2="89.6" y2="625.5"/>
	<polyline class="st2" points="137.4,558.8 127.4,558.8 127.4,546.6 111.6,546.6 111.6,549.4 	"/>
	<polyline class="st2" points="89.1,616.3 113.3,616.3 113.3,639.1 107.6,639.1 107.4,649.1 89.6,649.1 	"/>
	<polyline class="st2" points="89.5,651.7 78.1,665.1 78.1,739.2 90.1,739.2 	"/>
	<polyline class="st2" points="24.1,699.4 24.1,678.6 11.6,678.6 11.6,699.4 	"/>
	<rect x="59.2" y="829.6" class="st2" width="3" height="18.5"/>
	<rect x="75.7" y="829.6" class="st2" width="3" height="18.5"/>
	<polyline class="st2" points="93.7,831 93.7,840.2 103.6,840.2 103.6,817.7 90.2,817.7 	"/>
	<polyline class="st2" points="47.9,799.7 39.9,799.7 39.9,807.7 	"/>
	<polyline class="st2" points="90.1,806.9 98.4,806.9 98.4,810.8 100.9,810.8 100.9,817.8 	"/>
	<polyline class="st2" points="105.7,543.7 105.7,549.5 127.3,549.5 	"/>
	<line class="st2" x1="113.6" y1="440.9" x2="137.1" y2="440.9"/>
	<path class="st2" d="M50.3,651.3c3.3-0.1,5.8-3.3,4.7-6.3s-3.1-10.6-3.4-12.3c-0.2,0-1.8,0-1.8,0v-16.9h1.6c0,0,0-3.1,1.8-7.6
		c0.4-1,0.9-2.1,1.4-3.2c3-5.9,7-10.9,7-10.9s0-47,0-51.7c-4.2-2.9-7.8-5.5-13.1-5.5c-3.1,0-3.6,1-3.6,3.5"/>
	<polyline class="st2" points="61.4,593.2 23.1,593.2 23.1,575 0.5,575 0.5,599.7 25.2,599.7 	"/>
	<polyline class="st2" points="33.7,543.8 38.3,543.9 38.3,566.2 0.4,566.2 	"/>
	<polyline class="st2" points="0.5,524.3 17.4,524.3 17.4,532.6 25.2,532.6 25.2,539 	"/>
	<line class="st2" x1="99" y1="649.2" x2="99" y2="699.2"/>
	<path class="st2" d="M75,763.6L75,763.6L75,763.6z M74,758v-3.1c0,0,0-1,0-1.9c-0.4-0.2-0.8-0.6-1.2-0.9c-1-0.8-2.1-1.8-3.4-1.8
		c-1.3,0-2.5,0.9-3.4,1.8c-0.4,0.3-0.8,0.7-1.2,0.9c0,0.9,0,1.9,0,1.9v6.2c0,0,0,1,0,1.9c0.4,0.2,0.8,0.6,1.2,0.9
		c1,0.8,2.1,1.8,3.4,1.8c1.3,0,2.5-0.9,3.4-1.8c0.4-0.3,0.8-0.7,1.2-0.9c0-0.9,0-1.9,0-1.9l2,0c0,0,0,1.6,0,2.6v0.8l-0.7,0.2
		c-0.2,0.1-0.8,0.5-1.1,0.8c-1.1,0.9-2.7,2.2-4.7,2.2c-2.1,0-3.6-1.3-4.7-2.2c-0.4-0.3-0.9-0.8-1.1-0.8l-0.7-0.2v-0.8
		c0-1,0-2.6,0-2.6v-6.2c0,0,0-1.5,0-2.6v-0.8l0.7-0.2c0.2-0.1,0.8-0.5,1.1-0.8c1.1-0.9,2.7-2.2,4.7-2.2c2.1,0,3.6,1.3,4.7,2.2
		c0.4,0.3,0.9,0.8,1.1,0.8l0.7,0.2v0.8c0,1,0,2.6,0,2.6v3.1C75.1,758,74.5,758,74,758v-3.1"/>
	<line class="st2" x1="26" y1="664.8" x2="26" y2="674.1"/>
	<line class="st2" x1="0.3" y1="648.7" x2="26" y2="648.7"/>
	<polygon class="st2" points="29.7,601.4 29.7,605.1 49.5,605.1 49.5,593.2 47.4,593.2 47.4,603 32.2,603 32.2,601.4 	"/>
	<path class="st1" d="M69.3,247.4c-4.4,0-15-1.7-21.9-8.7c-3.7,0-7.5,0-7.5,0"/>
	<path class="st1" d="M69.5,247.4c4.4,0,15-1.7,21.9-8.7c3.7,0,7.5,0,7.5,0"/>
	<polyline class="st2" points="137.4,608.7 113.2,608.7 113.2,639.1 	"/>
	<polyline class="st5" points="60.8,670.8 64.1,674 60.8,678.2 	"/>
	<polyline class="st5" points="60.8,680.8 64.1,684 60.8,688.2 	"/>
	<polyline class="st5" points="60.8,689.9 64.1,693.2 60.8,697.4 	"/>
	<polyline class="st5" points="60.8,699.9 64.1,703.2 60.8,707.4 	"/>
	<polyline class="st5" points="60.8,709.1 64.1,712.4 60.8,716.5 	"/>
	<polyline class="st5" points="60.8,719.1 64.1,722.4 60.8,726.5 	"/>
	<polyline class="st5" points="78.1,726.5 75.7,723.3 78.1,719.1 	"/>
	<polyline class="st5" points="78.1,716.5 75.7,713.3 78.1,709.1 	"/>
	<polyline class="st5" points="78.1,707.4 75.7,704.1 78.1,699.9 	"/>
	<polyline class="st5" points="78.1,697.4 75.7,694.1 78.1,689.9 	"/>
	<polyline class="st5" points="78.1,688.2 75.7,684.9 78.1,680.8 	"/>
	<polyline class="st5" points="78.1,678.2 75.7,674.9 78.1,670.8 	"/>
	<polyline class="st2" points="38.3,566.2 44.9,566.2 44.9,540.3 	"/>
	<path class="st2" d="M38.4,315.5c4.6-1.7,12.8-3.5,17.2-3.5l4.5,0.9h7.3"/>
	<polyline class="st2" points="89.1,312.7 95.9,312.7 95.9,304.3 24.6,304.3 24.6,308.5 0.8,308.5 	"/>
	<line class="st2" x1="48.4" y1="304.4" x2="48.4" y2="308.3"/>
	<line class="st2" x1="90" y1="304.4" x2="90" y2="308.3"/>
	<path class="st2" d="M26.5,320.7h1.6c0,0,4.2-2.7,7.3-4.1c-0.9-1.4-3.5-5.7-3.5-5.7"/>
	<g>
		<g>
			<line class="st6" x1="95.4" y1="312.8" x2="95.4" y2="313.3"/>
			<path class="st7" d="M95.4,314.3v0.9c0,0,0.1,1-1.3,1.2c-1.2,0.2-3.5,0.6-4.2,0.8c-0.7,0.2-0.9,0.5-1.7,1.6
				c-0.8,1.1-3.5,6-9.3,6.5"/>
			<path class="st6" d="M78.4,325.3c-0.2,0-0.3,0-0.5,0"/>
		</g>
	</g>
	<g>
		<g>
			<path class="st6" d="M78,325.4c-0.2,0-0.3,0-0.5,0"/>
			<path class="st8" d="M76.5,325.3c-5.5-0.7-8-5.4-8.8-6.4c-0.8-1-1-1.4-1.7-1.6c-0.5-0.1-7.8-0.8-10.5-1.1"/>
			<path class="st6" d="M55,316.1c-0.3,0-0.5,0-0.5,0l-0.1-0.5"/>
			<line class="st9" x1="54.3" y1="314.6" x2="54.1" y2="313.1"/>
			<line class="st6" x1="54.1" y1="312.6" x2="54" y2="312.1"/>
		</g>
	</g>
	<path class="st2" d="M26.5,331.6c2.5-1.6,3.2-1.3,4.4,0.6c1,1.5,9.7,15.1,9.7,15.3c0.4,0.7,0.4,1.3-0.3,1.8
		c-0.8,0.5-1.5,0.2-1.9-0.4c-0.4-0.5-9-14.1-10-15.7c-0.3-0.5-0.7-0.8-2,0"/>
	<line class="st2" x1="36.8" y1="304.5" x2="36.8" y2="309.1"/>
	<polyline class="st2" points="103.5,810.9 112.9,810.9 112.9,848.2 	"/>
	<line class="st2" x1="118.8" y1="466.6" x2="137.2" y2="466.6"/>
	<line class="st2" x1="83.1" y1="537.3" x2="104.2" y2="528.8"/>
	<path class="st2" d="M0.5,574.9h22.6v18.3h38.3l0.2,0.9c0,0-4,5-7,10.9c-0.6,1.1-1,2.2-1.4,3.2c-1.7,4.5-1.8,7.6-1.8,7.6h-1.6v16.9
		c0,0,1.6,0,1.8,0c0.3,1.7,2.3,9.3,3.4,12.3s-1.4,6.2-4.7,6.3c-2.8,0.1-5.4,0.1-8.4,3.3c-5,5.4-0.1,13.1-7.8,16.7"/>
	<line class="st2" x1="0.3" y1="674.1" x2="25.8" y2="674.1"/>
	<polygon class="st2" points="113.6,300.3 113.7,217.4 30.4,217.4 30.4,237.9 25.6,237.9 25.6,283.4 19.9,283.4 19.9,300.2 
		113.5,300.3 	"/>
	<path class="st2" d="M25.6,242.6h4.9l4.7-4h6.2l1-1v-3.4c0,0,4,0,5.3,0s1.2-1.2,1.2-1.2v-15.7"/>
	<path class="st2" d="M113.5,242.6h-5l-4.7-4h-6.3l-1.1-1v-3.4c0,0-4,0-5.4,0c-1.3,0-1.2-1.2-1.2-1.2v-15.3"/>
	<path class="st2" d="M26,671.3c0,0,5.6,0.1,8.1,0.1v-6.7"/>
	<line class="st2" x1="34.1" y1="664.8" x2="26.1" y2="664.8"/>
	<line class="st10" x1="23.2" y1="599.7" x2="23.2" y2="593.2"/>
	<line class="st10" x1="26" y1="664.8" x2="26" y2="648.7"/>
	<path class="st11" d="M9.5,405.9h1c1,0,1.7,0.5,1.7,1.8v0.1c0,0.7-0.3,1.2-0.7,1.5l0.8,2.3h-1l-0.6-2h-0.2v2h-1V405.9z M10.6,408.6
		c0.4,0,0.7-0.2,0.7-0.9v-0.1c0-0.7-0.3-0.9-0.8-0.9h0L10.6,408.6L10.6,408.6z M12.7,405.9h1c1,0,1.7,0.5,1.7,1.8v0.1
		c0,0.7-0.3,1.2-0.7,1.5l0.8,2.3h-1l-0.6-2h-0.2v2h-1L12.7,405.9L12.7,405.9z M13.8,408.6c0.4,0,0.7-0.2,0.7-0.9v-0.1
		c0-0.7-0.3-0.9-0.8-0.9h0L13.8,408.6L13.8,408.6z"/>
	<path class="st11" d="M5.5,417.8h1c1,0,1.7,0.5,1.7,1.8v0.1c0,0.7-0.3,1.2-0.7,1.5l0.8,2.3h-1l-0.6-2H6.5v2h-1V417.8z M6.6,420.6
		c0.4,0,0.7-0.2,0.7-0.9v-0.1c0-0.7-0.3-0.9-0.8-0.9h0L6.6,420.6L6.6,420.6z M8.7,417.8h1c1,0,1.7,0.5,1.7,1.8v0.1
		c0,0.7-0.3,1.2-0.7,1.5l0.8,2.3h-1l-0.6-2H9.7v2h-1V417.8z M9.8,420.6c0.4,0,0.7-0.2,0.7-0.9v-0.1c0-0.7-0.3-0.9-0.8-0.9h0
		L9.8,420.6L9.8,420.6z"/>
	<path class="st11" d="M32.5,403.2h1c1,0,1.7,0.5,1.7,1.8v0.1c0,0.7-0.3,1.2-0.7,1.5l0.8,2.3h-1l-0.6-2h-0.2v2h-1L32.5,403.2
		L32.5,403.2z M33.5,406c0.4,0,0.7-0.2,0.7-0.9V405c0-0.7-0.3-0.9-0.8-0.9h0L33.5,406L33.5,406z M35.6,403.2h1c1,0,1.7,0.5,1.7,1.8
		v0.1c0,0.7-0.3,1.2-0.7,1.5l0.8,2.3h-1l-0.6-2h-0.2v2h-1C35.6,408.8,35.6,403.2,35.6,403.2z M36.7,406c0.4,0,0.7-0.2,0.7-0.9V405
		c0-0.7-0.3-0.9-0.8-0.9h0L36.7,406L36.7,406z"/>
	<path class="st11" d="M15.5,689.6h1c1,0,1.7,0.5,1.7,1.8v0.1c0,0.7-0.3,1.2-0.7,1.5l0.8,2.3h-1l-0.6-2h-0.2v2h-1L15.5,689.6
		L15.5,689.6z M16.5,692.4c0.4,0,0.7-0.2,0.7-0.9v-0.1c0-0.7-0.3-0.9-0.8-0.9h0L16.5,692.4L16.5,692.4z M18.6,689.6h1
		c1,0,1.7,0.5,1.7,1.8v0.1c0,0.7-0.3,1.2-0.7,1.5l0.8,2.3h-1l-0.6-2h-0.2v2h-1V689.6z M19.7,692.4c0.4,0,0.7-0.2,0.7-0.9v-0.1
		c0-0.7-0.3-0.9-0.8-0.9h0L19.7,692.4L19.7,692.4z"/>
	<path class="st11" d="M40.7,810h1c1,0,1.7,0.5,1.7,1.8v0.1c0,0.7-0.3,1.2-0.7,1.5l0.8,2.3h-1l-0.6-2h-0.2v2h-1L40.7,810L40.7,810z
		 M41.7,812.8c0.4,0,0.7-0.2,0.7-0.9v-0.1c0-0.7-0.3-0.9-0.8-0.9h0L41.7,812.8L41.7,812.8z M43.9,810h1c1,0,1.7,0.5,1.7,1.8v0.1
		c0,0.7-0.3,1.2-0.7,1.5l0.8,2.3h-1l-0.6-2h-0.2v2h-1C43.9,815.6,43.9,810,43.9,810z M44.9,812.8c0.4,0,0.7-0.2,0.7-0.9v-0.1
		c0-0.7-0.3-0.9-0.8-0.9h0L44.9,812.8L44.9,812.8z"/>
	<path class="st11" d="M95.8,827.7h1c1,0,1.7,0.5,1.7,1.8v0.1c0,0.7-0.3,1.2-0.7,1.5l0.8,2.3h-1l-0.6-2h-0.2v2h-1
		C95.8,833.3,95.8,827.7,95.8,827.7z M96.9,830.4c0.4,0,0.7-0.2,0.7-0.9v-0.1c0-0.7-0.3-0.9-0.8-0.9h0L96.9,830.4L96.9,830.4z
		 M99,827.7h1c1,0,1.7,0.5,1.7,1.8v0.1c0,0.7-0.3,1.2-0.7,1.5l0.8,2.3h-1l-0.6-2H100v2h-1V827.7z M100,830.4c0.4,0,0.7-0.2,0.7-0.9
		v-0.1c0-0.7-0.3-0.9-0.8-0.9h0L100,830.4L100,830.4z"/>
	<path class="st11" d="M36.7,827.7h1c1,0,1.7,0.5,1.7,1.8v0.1c0,0.7-0.3,1.2-0.7,1.5l0.8,2.3h-1l-0.6-2h-0.2v2h-1L36.7,827.7
		L36.7,827.7z M37.7,830.4c0.4,0,0.7-0.2,0.7-0.9v-0.1c0-0.7-0.3-0.9-0.8-0.9h0L37.7,830.4L37.7,830.4z M39.9,827.7h1
		c1,0,1.7,0.5,1.7,1.8v0.1c0,0.7-0.3,1.2-0.7,1.5l0.8,2.3h-1l-0.6-2h-0.2v2h-1C39.9,833.3,39.9,827.7,39.9,827.7z M40.9,830.4
		c0.4,0,0.7-0.2,0.7-0.9v-0.1c0-0.7-0.3-0.9-0.8-0.9h0L40.9,830.4L40.9,830.4z"/>
	<path class="st11" d="M3.5,689.6h1c1,0,1.7,0.5,1.7,1.8v0.1c0,0.7-0.3,1.2-0.7,1.5l0.8,2.3h-1l-0.6-2H4.4v2h-1V689.6z M4.5,692.4
		c0.4,0,0.7-0.2,0.7-0.9v-0.1c0-0.7-0.3-0.9-0.8-0.9h0L4.5,692.4L4.5,692.4z M6.6,689.6h1c1,0,1.7,0.5,1.7,1.8v0.1
		c0,0.7-0.3,1.2-0.7,1.5l0.8,2.3h-1l-0.6-2H7.6v2h-1V689.6z M7.7,692.4c0.4,0,0.7-0.2,0.7-0.9v-0.1c0-0.7-0.3-0.9-0.8-0.9h0
		L7.7,692.4L7.7,692.4z"/>
	<path class="st11" d="M13.2,761.4v-1c0.3,0.2,0.6,0.3,0.9,0.3c0.3,0,0.5-0.1,0.5-0.5v0c0-0.3-0.1-0.4-0.5-1
		c-0.7-0.8-0.9-1.1-0.9-1.8v0c0-0.9,0.6-1.5,1.4-1.5c0.4,0,0.6,0.1,0.9,0.2v1c-0.3-0.2-0.5-0.3-0.7-0.3c-0.3,0-0.5,0.2-0.5,0.5v0
		c0,0.3,0.1,0.4,0.5,0.9c0.8,0.9,0.9,1.2,0.9,1.9v0c0,0.9-0.6,1.5-1.4,1.5C13.8,761.7,13.5,761.6,13.2,761.4z M16.7,756h1l1.1,5.6
		h-1l-0.2-1.1h-0.9l-0.2,1.1h-0.9L16.7,756z M17.5,759.6l-0.3-1.8l-0.3,1.8H17.5z M18.7,756h1l0.5,3.6l0.5-3.6h1l-1,5.6h-1L18.7,756
		z M21.9,759v-0.3c0-1.8,0.6-2.7,1.5-2.7c0.9,0,1.5,0.9,1.5,2.7v0.3c0,1.8-0.6,2.7-1.5,2.7C22.5,761.7,21.9,760.8,21.9,759z
		 M23.8,759v-0.3c0-1.4-0.2-1.8-0.5-1.8s-0.5,0.4-0.5,1.8v0.3c0,1.4,0.2,1.8,0.5,1.8S23.8,760.4,23.8,759z M25.3,756h1
		c1,0,1.7,0.5,1.7,1.8v0.1c0,0.7-0.3,1.2-0.7,1.5l0.8,2.3h-1l-0.6-2h-0.2v2h-1V756z M26.3,758.8c0.4,0,0.7-0.2,0.7-0.9v-0.1
		c0-0.7-0.3-0.9-0.8-0.9h0L26.3,758.8L26.3,758.8z M6.1,764h1c1,0,1.7,0.5,1.7,1.8v0.1c0,0.7-0.3,1.2-0.7,1.5l0.8,2.3h-1l-0.6-2H7.1
		v2h-1V764z M7.2,766.8c0.4,0,0.7-0.2,0.7-0.9v-0.1c0-0.7-0.3-0.9-0.8-0.9h0L7.2,766.8L7.2,766.8z M9.3,764h2.1v0.9h-1.2v1.4h1v0.9
		h-1v1.4h1.2v0.9H9.3V764z M11.8,769.4v-1c0.3,0.2,0.6,0.3,0.9,0.3c0.3,0,0.5-0.1,0.5-0.5v0c0-0.3-0.1-0.4-0.5-1
		c-0.7-0.8-0.9-1.1-0.9-1.8v0c0-0.9,0.6-1.5,1.4-1.5c0.4,0,0.6,0.1,0.9,0.2v1c-0.3-0.2-0.5-0.3-0.7-0.3c-0.3,0-0.5,0.2-0.5,0.5v0
		c0,0.3,0.1,0.4,0.5,0.9c0.8,0.9,0.9,1.2,0.9,1.9v0c0,0.9-0.6,1.5-1.4,1.5C12.5,769.7,12.1,769.6,11.8,769.4z M15,765h-0.7V764h2.4
		v0.9h-0.7v4.7h-1L15,765L15,765z M17.6,764h1l1.1,5.6h-1l-0.2-1.1h-0.9l-0.2,1.1h-0.9L17.6,764z M18.4,767.6l-0.3-1.8l-0.3,1.8
		H18.4z M19.9,768v-4h1v4.1c0,0.5,0.2,0.7,0.4,0.7s0.4-0.2,0.4-0.7V764h1v4c0,1.2-0.6,1.7-1.4,1.7C20.5,769.7,19.9,769.2,19.9,768z
		 M23.3,764h1c1,0,1.7,0.5,1.7,1.8v0.1c0,0.7-0.3,1.2-0.7,1.5l0.8,2.3h-1l-0.6-2h-0.2v2h-1V764z M24.3,766.8c0.4,0,0.7-0.2,0.7-0.9
		v-0.1c0-0.7-0.3-0.9-0.8-0.9h0L24.3,766.8L24.3,766.8z M27.2,764h1l1.1,5.6h-1l-0.2-1.1h-0.9l-0.2,1.1h-0.9L27.2,764z M28,767.6
		l-0.3-1.8l-0.3,1.8H28z M29.6,764h0.9l1,2.8V764h1v5.6h-0.9l-1-3v3h-1V764z M33.6,765h-0.7V764h2.4v0.9h-0.7v4.7h-1L33.6,765
		L33.6,765z"/>
	<path class="st11" d="M58.4,770.9h1l0.7,2l0.7-2h1v5.6h-0.9v-3.4l-0.7,2.1h0l-0.7-2.1v3.4h-0.9L58.4,770.9L58.4,770.9z M62.3,770.9
		h1v5.6h-1C62.3,776.5,62.3,770.9,62.3,770.9z M64.6,773.6l-0.9-2.7h1l0.4,1.6l0.4-1.6h1l-0.9,2.7l0.9,2.9h-1l-0.5-1.7l-0.5,1.7h-1
		L64.6,773.6z M67.7,773.6l-0.9-2.7h1l0.4,1.6l0.4-1.6h1l-0.9,2.7l0.9,2.9h-1l-0.5-1.7l-0.5,1.7h-1L67.7,773.6z M71.4,770.9h0.8
		c0.9,0,1.8,0.4,1.8,1.4v0c0,0.7-0.4,1.1-0.8,1.3c0.5,0.2,0.9,0.5,0.9,1.2v0.1c0,1-0.8,1.6-1.9,1.6h-0.9
		C71.4,776.5,71.4,770.9,71.4,770.9z M72.4,773.2c0.4,0,0.7-0.2,0.7-0.7v0c0-0.5-0.3-0.7-0.7-0.7h0L72.4,773.2L72.4,773.2z
		 M72.4,775.6c0.4,0,0.8-0.3,0.8-0.7v0c0-0.5-0.3-0.7-0.8-0.7h0L72.4,775.6L72.4,775.6L72.4,775.6z M75.3,770.8h1l1.1,5.6h-1
		l-0.2-1.1h-0.9l-0.2,1.1h-0.9L75.3,770.8z M76.1,774.5l-0.3-1.8l-0.3,1.8H76.1z M77.7,770.9h1c1,0,1.7,0.5,1.7,1.8v0.1
		c0,0.7-0.3,1.2-0.7,1.5l0.8,2.3h-1l-0.6-2h-0.2v2h-1C77.7,776.5,77.7,770.9,77.7,770.9z M78.7,773.6c0.4,0,0.7-0.2,0.7-0.9v-0.1
		c0-0.7-0.3-0.9-0.8-0.9h0L78.7,773.6L78.7,773.6z"/>
	<path class="st11" d="M110.5,757.2h-0.7v-0.9h2.4v0.9h-0.7v4.7h-1L110.5,757.2L110.5,757.2z M113.2,756.3h1l1.1,5.6h-1l-0.2-1.1
		h-0.9l-0.2,1.1h-0.9L113.2,756.3z M114,759.9l-0.3-1.8l-0.3,1.8H114z M115.4,761.7v-1c0.3,0.2,0.6,0.3,0.9,0.3
		c0.3,0,0.5-0.1,0.5-0.5v0c0-0.3-0.1-0.4-0.5-1c-0.7-0.8-0.9-1.1-0.9-1.8v0c0-0.9,0.6-1.5,1.4-1.5c0.4,0,0.6,0.1,0.9,0.2v1
		c-0.3-0.2-0.5-0.3-0.7-0.3c-0.3,0-0.5,0.2-0.5,0.5v0c0,0.3,0.1,0.4,0.5,0.9c0.8,0.9,0.9,1.2,0.9,1.9v0c0,0.9-0.6,1.5-1.4,1.5
		C116,761.9,115.7,761.8,115.4,761.7z M118.6,757.2h-0.7v-0.9h2.4v0.9h-0.7v4.7h-1L118.6,757.2L118.6,757.2z M120.6,756.3h2.1v0.9
		h-1.2v1.4h1v0.9h-1v1.4h1.2v0.9h-2.2V756.3z M101.9,764.3h1c1,0,1.7,0.5,1.7,1.8v0.1c0,0.7-0.3,1.2-0.7,1.5l0.8,2.3h-1l-0.6-2h-0.2
		v2h-1V764.3z M102.9,767.1c0.4,0,0.7-0.2,0.7-0.9v-0.1c0-0.7-0.3-0.9-0.8-0.9h0L102.9,767.1L102.9,767.1z M105.1,764.3h2.1v0.9
		h-1.2v1.4h1v0.9h-1v1.4h1.2v0.9h-2.2V764.3z M107.6,769.7v-1c0.3,0.2,0.6,0.3,0.9,0.3c0.3,0,0.5-0.1,0.5-0.5v0c0-0.3-0.1-0.4-0.5-1
		c-0.7-0.8-0.9-1.1-0.9-1.8v0c0-0.9,0.6-1.5,1.4-1.5c0.4,0,0.6,0.1,0.9,0.2v1c-0.3-0.2-0.5-0.3-0.7-0.3c-0.3,0-0.5,0.2-0.5,0.5v0
		c0,0.3,0.1,0.4,0.5,0.9c0.8,0.9,0.9,1.2,0.9,1.9v0c0,0.9-0.6,1.5-1.4,1.5C108.2,769.9,107.9,769.8,107.6,769.7z M110.7,765.2H110
		v-0.9h2.4v0.9h-0.7v4.7h-1L110.7,765.2L110.7,765.2z M113.3,764.3h1l1.1,5.6h-1l-0.2-1.1h-0.9l-0.2,1.1h-0.9L113.3,764.3z
		 M114.1,767.9l-0.3-1.8l-0.3,1.8H114.1z M115.7,768.3v-4h1v4.1c0,0.5,0.2,0.7,0.4,0.7s0.4-0.2,0.4-0.7v-4.1h1v4
		c0,1.2-0.6,1.7-1.4,1.7S115.7,769.4,115.7,768.3z M119,764.3h1c1,0,1.7,0.5,1.7,1.8v0.1c0,0.7-0.3,1.2-0.7,1.5l0.8,2.3h-1l-0.6-2
		H120v2h-1C119,769.9,119,764.3,119,764.3z M120,767.1c0.4,0,0.7-0.2,0.7-0.9v-0.1c0-0.7-0.3-0.9-0.8-0.9h0L120,767.1L120,767.1z
		 M123,764.3h1l1.1,5.6h-1l-0.2-1.1H123l-0.2,1.1h-0.9L123,764.3z M123.8,767.9l-0.3-1.8l-0.3,1.8H123.8z M125.4,764.3h0.9l1,2.8
		v-2.8h1v5.6h-0.9l-1-3v3h-1C125.4,769.9,125.4,764.3,125.4,764.3z M129.3,765.2h-0.7v-0.9h2.4v0.9h-0.7v4.7h-1L129.3,765.2
		L129.3,765.2z"/>
	<path class="st11" d="M67.5,710.5v-1l5.6-1.1v1l-1.1,0.2v0.9l1.1,0.2v0.9L67.5,710.5z M71.1,709.7l-1.8,0.3l1.8,0.3V709.7z
		 M67.5,708.1v-1c0-1,0.5-1.7,1.8-1.7h0.1c0.7,0,1.2,0.3,1.5,0.7l2.3-0.8v1l-2,0.6v0.2h2v1L67.5,708.1L67.5,708.1z M70.3,707.1
		c0-0.4-0.2-0.7-0.9-0.7h-0.1c-0.7,0-0.9,0.3-0.9,0.8v0L70.3,707.1L70.3,707.1z M68.4,704.5v0.7h-0.9v-2.4h0.9v0.7h4.7v1L68.4,704.5
		L68.4,704.5z M70.4,701.2h-0.2c-1.8,0-2.7-0.8-2.7-1.9c0-0.3,0.1-0.5,0.2-0.7h1c-0.1,0.2-0.2,0.5-0.2,0.7c0,0.6,0.6,0.9,1.8,0.9
		h0.3c1.5,0,1.8-0.4,1.8-0.8c0,0,0,0,0-0.1h-1.4v0.5h-0.9v-1.4h3c0.2,0.4,0.2,0.6,0.2,1C73.1,700.4,72.3,701.2,70.4,701.2z
		 M67.5,697.1v-1l5.6-1.1v1l-1.1,0.2v0.9l1.1,0.2v0.9L67.5,697.1z M71.1,696.3l-1.8,0.3l1.8,0.3V696.3z M67.5,694.7v-1h4.7v-1h0.9v2
		L67.5,694.7L67.5,694.7z M67.5,692.3v-1h4.7v-1h0.9v2H67.5z M67.5,689.9v-2.1h0.9v1.2h1.4v-1h0.9v1h1.4v-1.2h0.9v2.2L67.5,689.9
		L67.5,689.9z M67.5,687.2v-1c0-1,0.5-1.7,1.8-1.7h0.1c0.7,0,1.2,0.3,1.5,0.7l2.3-0.8v1l-2,0.6v0.2h2v1H67.5z M70.3,686.2
		c0-0.4-0.2-0.7-0.9-0.7h-0.1c-0.7,0-0.9,0.3-0.9,0.8v0L70.3,686.2L70.3,686.2z M70.9,683.5l-3.4,1v-1l2.1-0.5l-2.1-0.5v-1l3.4,1
		h2.2v1L70.9,683.5L70.9,683.5z"/>
	<path class="st11" d="M104.7,663.7H104v-0.9h2.4v0.9h-0.7v4.7h-1L104.7,663.7L104.7,663.7z M106.8,662.8h2.1v0.9h-1.2v1.4h1v0.9h-1
		v1.4h1.2v0.9h-2.2V662.8z M109.4,662.8h0.9c1.1,0,1.8,0.6,1.8,1.9v0c0,1.3-0.7,1.9-1.7,1.9h0v1.8h-1V662.8z M110.4,665.7
		c0.4,0,0.7-0.3,0.7-1v0c0-0.7-0.3-1-0.7-1h0L110.4,665.7L110.4,665.7L110.4,665.7z M112.5,662.8h0.9c1.1,0,1.8,0.6,1.8,1.9v0
		c0,1.3-0.7,1.9-1.7,1.9h0v1.8h-1V662.8z M113.5,665.7c0.4,0,0.7-0.3,0.7-1v0c0-0.7-0.3-1-0.7-1h0L113.5,665.7L113.5,665.7
		L113.5,665.7z M116.1,662.8h1l1.1,5.6h-1l-0.2-1.1h-0.9l-0.2,1.1H115L116.1,662.8z M116.9,666.4l-0.3-1.8l-0.3,1.8H116.9z
		 M118.5,662.8h0.9l1,2.8v-2.8h1v5.6h-0.9l-1-3v3h-1V662.8z M122.6,666.2l-1-3.4h1l0.5,2.1l0.5-2.1h1l-1,3.4v2.2h-1L122.6,666.2
		L122.6,666.2z M125.4,662.8h1l1.1,5.6h-1l-0.2-1.1h-0.9l-0.2,1.1h-0.9L125.4,662.8z M126.2,666.4l-0.3-1.8l-0.3,1.8H126.2z
		 M127.8,662.8h1v2.3l0.8-2.3h1.1l-0.9,2.4l1,3.2h-1.1l-0.6-2.1l-0.2,0.6v1.5h-1L127.8,662.8L127.8,662.8z M131.1,662.8h1v5.6h-1
		V662.8z"/>
	<path class="st11" d="M93.4,631.6v-0.2c0-2,0.7-2.7,1.6-2.7c0.3,0,0.4,0,0.6,0.1v1c-0.2-0.1-0.4-0.2-0.5-0.2
		c-0.4,0-0.7,0.4-0.7,1.8v0.2c0,1.5,0.3,1.8,0.8,1.8c0.2,0,0.3-0.1,0.5-0.2v1c-0.2,0.1-0.4,0.2-0.7,0.2
		C94.1,634.4,93.4,633.6,93.4,631.6z M95.9,631.7v-0.3c0-1.8,0.6-2.7,1.5-2.7s1.5,0.9,1.5,2.7v0.3c0,1.8-0.6,2.7-1.5,2.7
		S95.9,633.5,95.9,631.7z M97.9,631.7v-0.3c0-1.4-0.2-1.8-0.5-1.8s-0.5,0.4-0.5,1.8v0.3c0,1.4,0.2,1.8,0.5,1.8
		S97.9,633.1,97.9,631.7z M99.2,631.6v-0.2c0-2,0.7-2.7,1.6-2.7c0.3,0,0.4,0,0.6,0.1v1c-0.2-0.1-0.4-0.2-0.5-0.2
		c-0.4,0-0.7,0.4-0.7,1.8v0.2c0,1.5,0.3,1.8,0.8,1.8c0.2,0,0.3-0.1,0.5-0.2v1c-0.2,0.1-0.4,0.2-0.7,0.2
		C99.9,634.4,99.2,633.6,99.2,631.6z M101.7,631.7v-0.3c0-1.8,0.6-2.7,1.5-2.7c0.9,0,1.5,0.9,1.5,2.7v0.3c0,1.8-0.6,2.7-1.5,2.7
		C102.3,634.4,101.7,633.5,101.7,631.7z M103.7,631.7v-0.3c0-1.4-0.2-1.8-0.5-1.8s-0.5,0.4-0.5,1.8v0.3c0,1.4,0.2,1.8,0.5,1.8
		S103.7,633.1,103.7,631.7z M105.1,630.8c0.6-0.1,0.7-0.6,0.7-0.9h-0.5v-1.1h1.1v0.9c0,0.8-0.4,1.4-1.2,1.5L105.1,630.8z
		 M106.9,634.2v-1c0.3,0.2,0.6,0.3,0.9,0.3c0.3,0,0.5-0.1,0.5-0.5v0c0-0.3-0.1-0.4-0.5-1c-0.7-0.8-0.9-1.1-0.9-1.8v0
		c0-0.9,0.6-1.5,1.4-1.5c0.4,0,0.6,0.1,0.9,0.2v1c-0.3-0.2-0.5-0.3-0.7-0.3c-0.3,0-0.5,0.2-0.5,0.5v0c0,0.3,0.1,0.4,0.5,0.9
		c0.8,0.9,0.9,1.2,0.9,1.9v0c0,0.9-0.6,1.5-1.4,1.5C107.5,634.4,107.1,634.3,106.9,634.2z"/>
	<path class="st11" d="M14.9,486.6v-0.2c0-1.8,0.8-2.7,1.9-2.7c0.3,0,0.5,0.1,0.7,0.2v1c-0.2-0.1-0.5-0.2-0.7-0.2
		c-0.6,0-0.9,0.6-0.9,1.8v0.3c0,1.5,0.4,1.8,0.8,1.8c0,0,0,0,0.1,0V487h-0.5v-0.9h1.4v3c-0.4,0.2-0.6,0.2-1,0.2
		C15.7,489.4,14.9,488.6,14.9,486.6z M18.2,487.7v-4h1v4.1c0,0.5,0.2,0.7,0.4,0.7s0.4-0.2,0.4-0.7v-4.1h1v4c0,1.2-0.6,1.7-1.4,1.7
		S18.2,488.9,18.2,487.7z M21.5,483.7h2.1v0.9h-1.2v1.4h1v0.9h-1v1.4h1.2v0.9h-2.2L21.5,483.7L21.5,483.7z M24.1,489.2v-1
		c0.3,0.2,0.6,0.3,0.9,0.3c0.3,0,0.5-0.1,0.5-0.5v0c0-0.3-0.1-0.4-0.5-1c-0.7-0.8-0.9-1.1-0.9-1.8v0c0-0.9,0.6-1.5,1.4-1.5
		c0.4,0,0.6,0.1,0.9,0.2v1c-0.3-0.2-0.5-0.3-0.7-0.3c-0.3,0-0.5,0.2-0.5,0.5v0c0,0.3,0.1,0.4,0.5,0.9c0.8,0.9,0.9,1.2,0.9,1.9v0
		c0,0.9-0.6,1.5-1.4,1.5C24.7,489.4,24.3,489.3,24.1,489.2z M27.2,484.7h-0.7v-0.9h2.4v0.9h-0.7v4.7h-1V484.7z M30.4,489.2v-1
		c0.3,0.2,0.6,0.3,0.9,0.3c0.3,0,0.5-0.1,0.5-0.5v0c0-0.3-0.1-0.4-0.5-1c-0.7-0.8-0.9-1.1-0.9-1.8v0c0-0.9,0.6-1.5,1.4-1.5
		c0.4,0,0.6,0.1,0.9,0.2v1c-0.3-0.2-0.5-0.3-0.7-0.3c-0.3,0-0.5,0.2-0.5,0.5v0c0,0.3,0.1,0.4,0.5,0.9c0.8,0.9,0.9,1.2,0.9,1.9v0
		c0,0.9-0.6,1.5-1.4,1.5C31,489.4,30.7,489.3,30.4,489.2z M33.1,483.7h2.1v0.9h-1.2v1.4h1v0.9h-1v1.4h1.2v0.9h-2.2V483.7z
		 M35.8,483.7h1c1,0,1.7,0.5,1.7,1.8v0.1c0,0.7-0.3,1.2-0.7,1.5l0.8,2.3h-1l-0.6-2h-0.2v2h-1L35.8,483.7L35.8,483.7z M36.8,486.5
		c0.4,0,0.7-0.2,0.7-0.9v-0.1c0-0.7-0.3-0.9-0.8-0.9h0L36.8,486.5L36.8,486.5z M38.7,483.7h1l0.5,3.6l0.5-3.6h1l-1,5.6h-1
		L38.7,483.7z M42,483.7h1v5.6h-1V483.7z M43.5,486.6v-0.2c0-2,0.7-2.7,1.6-2.7c0.3,0,0.4,0,0.6,0.1v1c-0.2-0.1-0.4-0.2-0.5-0.2
		c-0.4,0-0.7,0.4-0.7,1.8v0.2c0,1.5,0.3,1.8,0.8,1.8c0.2,0,0.3-0.1,0.5-0.2v1c-0.2,0.1-0.4,0.2-0.7,0.2
		C44.1,489.4,43.5,488.6,43.5,486.6z M46.2,483.7h2.1v0.9h-1.2v1.4h1v0.9h-1v1.4h1.2v0.9h-2.2V483.7z M48.8,489.2v-1
		c0.3,0.2,0.6,0.3,0.9,0.3c0.3,0,0.5-0.1,0.5-0.5v0c0-0.3-0.1-0.4-0.5-1c-0.7-0.8-0.9-1.1-0.9-1.8v0c0-0.9,0.6-1.5,1.4-1.5
		c0.4,0,0.6,0.1,0.9,0.2v1c-0.3-0.2-0.5-0.3-0.7-0.3c-0.3,0-0.5,0.2-0.5,0.5v0c0,0.3,0.1,0.4,0.5,0.9c0.8,0.9,0.9,1.2,0.9,1.9v0
		c0,0.9-0.6,1.5-1.4,1.5C49.4,489.4,49,489.3,48.8,489.2z"/>
	<path class="st11" d="M20.6,502.2h-0.7v-0.9h2.4v0.9h-0.7v4.7h-1L20.6,502.2L20.6,502.2z M22.7,501.3h1v2.3h0.8v-2.3h1v5.6h-1v-2.4
		h-0.8v2.4h-1C22.7,506.9,22.7,501.3,22.7,501.3z M26,501.3h2.1v0.9H27v1.4h1v0.9h-1v1.4h1.2v0.9H26V501.3z M30.7,501.2h1l1.1,5.6
		h-1l-0.2-1.1h-0.9l-0.2,1.1h-0.9L30.7,501.2z M31.5,504.9l-0.3-1.8l-0.3,1.8H31.5z M33.4,502.2h-0.7v-0.9h2.4v0.9h-0.7v4.7h-1
		L33.4,502.2L33.4,502.2z M35.5,501.3h1c1,0,1.7,0.5,1.7,1.8v0.1c0,0.7-0.3,1.2-0.7,1.5l0.8,2.3h-1l-0.6-2h-0.2v2h-1L35.5,501.3
		L35.5,501.3z M36.5,504c0.4,0,0.7-0.2,0.7-0.9v-0.1c0-0.7-0.3-0.9-0.8-0.9h0L36.5,504L36.5,504z M38.7,501.3h1v5.6h-1V501.3z
		 M40.2,505.2v-4h1v4.1c0,0.5,0.2,0.7,0.4,0.7s0.4-0.2,0.4-0.7v-4.1h1v4c0,1.2-0.6,1.7-1.4,1.7S40.2,506.4,40.2,505.2z M43.6,501.3
		h1l0.7,2l0.7-2h1v5.6H46v-3.4l-0.7,2.1h0l-0.7-2.1v3.4h-0.9V501.3z"/>
	<path class="st11" d="M93,520.5h1l1.1,5.6h-1L94,525h-0.9l-0.2,1.1H92L93,520.5z M93.8,524.2l-0.3-1.8l-0.3,1.8H93.8z M95.7,521.5
		H95v-0.9h2.4v0.9h-0.7v4.7h-1C95.7,526.1,95.7,521.5,95.7,521.5z M97.8,520.5h1c1,0,1.7,0.5,1.7,1.8v0.1c0,0.7-0.3,1.2-0.7,1.5
		l0.8,2.3h-1l-0.6-2h-0.2v2h-1C97.8,526.1,97.8,520.5,97.8,520.5z M98.8,523.3c0.4,0,0.7-0.2,0.7-0.9v-0.1c0-0.7-0.3-0.9-0.8-0.9h0
		L98.8,523.3L98.8,523.3z M101,520.5h1v5.6h-1V520.5z M102.5,524.5v-4h1v4.1c0,0.5,0.2,0.7,0.4,0.7s0.4-0.2,0.4-0.7v-4.1h1v4
		c0,1.2-0.6,1.7-1.4,1.7S102.5,525.7,102.5,524.5z M105.9,520.5h1l0.7,2l0.7-2h1v5.6h-0.9v-3.4l-0.7,2.1h0l-0.7-2.1v3.4h-0.9
		L105.9,520.5L105.9,520.5z M111,520.5h0.8c0.9,0,1.8,0.4,1.8,1.4v0c0,0.7-0.4,1.1-0.8,1.3c0.5,0.2,0.9,0.5,0.9,1.2v0.1
		c0,1-0.8,1.6-1.9,1.6H111C111,526.1,111,520.5,111,520.5z M112,522.9c0.4,0,0.7-0.2,0.7-0.7v0c0-0.5-0.3-0.7-0.7-0.7h0L112,522.9
		L112,522.9z M112,525.2c0.4,0,0.8-0.3,0.8-0.7v0c0-0.5-0.3-0.7-0.8-0.7h0L112,525.2L112,525.2L112,525.2z M114.9,520.5h1l1.1,5.6
		h-1l-0.2-1.1H115l-0.2,1.1h-0.9L114.9,520.5z M115.7,524.2l-0.3-1.8l-0.3,1.8H115.7z M117.3,520.5h1c1,0,1.7,0.5,1.7,1.8v0.1
		c0,0.7-0.3,1.2-0.7,1.5l0.8,2.3h-1l-0.6-2h-0.2v2h-1C117.3,526.1,117.3,520.5,117.3,520.5z M118.4,523.3c0.4,0,0.7-0.2,0.7-0.9
		v-0.1c0-0.7-0.3-0.9-0.8-0.9h0L118.4,523.3L118.4,523.3z"/>
	<path class="st11" d="M51.7,350.4c-0.2,0.2-0.5,0.4-0.8,0.4c-0.9,0-1.5-0.9-1.5-2.7v-0.3c0-1.8,0.6-2.7,1.5-2.7s1.5,0.9,1.5,2.7
		v0.3c0,0.8-0.1,1.4-0.3,1.8l0.5,0.5l-0.5,0.5L51.7,350.4z M51.1,349.8l-0.5-0.5l0.5-0.5l0.2,0.2c0-0.3,0-0.6,0-1.1v-0.3
		c0-1.4-0.2-1.8-0.5-1.8c-0.3,0-0.5,0.4-0.5,1.8v0.3c0,1.6,0.2,1.9,0.6,1.9C51,349.8,51.1,349.8,51.1,349.8z M54.7,346H54V345h2.4
		v0.9h-0.7v4.7h-1C54.7,350.6,54.7,346,54.7,346z M56.8,345h2.1v0.9h-1.2v1.4h1v0.9h-1v1.4H59v0.9h-2.2
		C56.8,350.6,56.8,345,56.8,345z M60.1,347.8l-0.9-2.7h1l0.4,1.6l0.4-1.6h1l-0.9,2.7l0.9,2.9h-1l-0.5-1.7l-0.5,1.7h-1L60.1,347.8z
		 M63.2,345h1l1.1,5.6h-1l-0.2-1.1h-0.9l-0.2,1.1h-0.9L63.2,345z M64,348.7l-0.3-1.8l-0.3,1.8H64z M65.5,350.5v-1
		c0.3,0.2,0.6,0.3,0.9,0.3c0.3,0,0.5-0.1,0.5-0.5v0c0-0.3-0.1-0.4-0.5-1c-0.7-0.8-0.9-1.1-0.9-1.8v0c0-0.9,0.6-1.5,1.4-1.5
		c0.4,0,0.6,0.1,0.9,0.2v1c-0.3-0.2-0.5-0.3-0.7-0.3c-0.3,0-0.5,0.2-0.5,0.5v0c0,0.3,0.1,0.4,0.5,0.9c0.8,0.9,0.9,1.2,0.9,1.9v0
		c0,0.9-0.6,1.5-1.4,1.5C66.1,350.7,65.8,350.6,65.5,350.5z M69.4,350.5v-1c0.3,0.2,0.6,0.3,0.9,0.3c0.3,0,0.5-0.1,0.5-0.5v0
		c0-0.3-0.1-0.4-0.5-1c-0.7-0.8-0.9-1.1-0.9-1.8v0c0-0.9,0.6-1.5,1.4-1.5c0.4,0,0.6,0.1,0.9,0.2v1c-0.3-0.2-0.5-0.3-0.7-0.3
		c-0.3,0-0.5,0.2-0.5,0.5v0c0,0.3,0.1,0.4,0.5,0.9c0.8,0.9,0.9,1.2,0.9,1.9v0c0,0.9-0.6,1.5-1.4,1.5C70,350.7,69.7,350.6,69.4,350.5
		z M72.1,345h1l0.7,2l0.7-2h1v5.6h-0.9v-3.4l-0.7,2.1h0l-0.7-2.1v3.4h-0.9L72.1,345L72.1,345z M75.9,348v-0.3c0-1.8,0.6-2.7,1.5-2.7
		s1.5,0.9,1.5,2.7v0.3c0,1.8-0.6,2.7-1.5,2.7S75.9,349.8,75.9,348z M77.9,348v-0.3c0-1.4-0.2-1.8-0.5-1.8s-0.5,0.4-0.5,1.8v0.3
		c0,1.4,0.2,1.8,0.5,1.8S77.9,349.4,77.9,348z M79.3,345h1v2.3l0.8-2.3h1.1l-0.9,2.4l1,3.2h-1.1l-0.6-2.1l-0.2,0.6v1.5h-1L79.3,345
		L79.3,345z M82.6,345h2.1v0.9h-1.2v1.4h1v0.9h-1v1.4h1.2v0.9h-2.2V345z M85.2,345h1v2.3H87V345h1v5.6h-1v-2.4h-0.8v2.4h-1V345z
		 M88.5,348v-0.3c0-1.8,0.6-2.7,1.5-2.7s1.5,0.9,1.5,2.7v0.3c0,1.8-0.6,2.7-1.5,2.7S88.5,349.8,88.5,348z M90.5,348v-0.3
		c0-1.4-0.2-1.8-0.5-1.8s-0.5,0.4-0.5,1.8v0.3c0,1.4,0.2,1.8,0.5,1.8S90.5,349.4,90.5,348z M91.9,349v-4h1v4.1
		c0,0.5,0.2,0.7,0.4,0.7s0.4-0.2,0.4-0.7V345h1v4c0,1.2-0.6,1.7-1.4,1.7S91.9,350.2,91.9,349z M95.2,350.5v-1
		c0.3,0.2,0.6,0.3,0.9,0.3c0.3,0,0.5-0.1,0.5-0.5v0c0-0.3-0.1-0.4-0.5-1c-0.7-0.8-0.9-1.1-0.9-1.8v0c0-0.9,0.6-1.5,1.4-1.5
		c0.4,0,0.6,0.1,0.9,0.2v1c-0.3-0.2-0.5-0.3-0.7-0.3c-0.3,0-0.5,0.2-0.5,0.5v0c0,0.3,0.1,0.4,0.5,0.9c0.8,0.9,0.9,1.2,0.9,1.9v0
		c0,0.9-0.6,1.5-1.4,1.5C95.8,350.7,95.4,350.6,95.2,350.5z M97.9,345h2.1v0.9h-1.2v1.4h1v0.9h-1v1.4h1.2v0.9h-2.2V345z"/>
	<path class="st11" d="M36.9,333.1h0.8c0.9,0,1.8,0.4,1.8,1.4v0c0,0.7-0.4,1.1-0.8,1.3c0.5,0.2,0.9,0.5,0.9,1.2v0.1
		c0,1-0.8,1.6-1.9,1.6h-0.9C36.9,338.7,36.9,333.1,36.9,333.1z M37.9,335.5c0.4,0,0.7-0.2,0.7-0.7v0c0-0.5-0.3-0.7-0.7-0.7h0
		L37.9,335.5L37.9,335.5L37.9,335.5z M37.9,337.8c0.4,0,0.8-0.3,0.8-0.7v0c0-0.5-0.3-0.7-0.8-0.7h0L37.9,337.8L37.9,337.8z
		 M40.8,333.1h1l1.1,5.6h-1l-0.2-1.1h-0.9l-0.2,1.1h-0.9L40.8,333.1z M41.6,336.7l-0.3-1.8l-0.3,1.8H41.6z M43.2,333.1h1
		c1,0,1.7,0.5,1.7,1.8v0.1c0,0.7-0.3,1.2-0.7,1.5l0.8,2.3h-1l-0.6-2h-0.2v2h-1V333.1z M44.3,335.9c0.4,0,0.7-0.2,0.7-0.9v-0.1
		c0-0.7-0.3-0.9-0.8-0.9h0L44.3,335.9L44.3,335.9z"/>
	<path class="st11" d="M53.2,260H54c0.9,0,1.8,0.4,1.8,1.4v0c0,0.7-0.4,1.1-0.8,1.3c0.5,0.2,0.9,0.5,0.9,1.2v0.1
		c0,1-0.8,1.6-1.9,1.6h-0.9L53.2,260L53.2,260z M54.1,262.3c0.4,0,0.7-0.2,0.7-0.7v0c0-0.5-0.3-0.7-0.7-0.7h0L54.1,262.3L54.1,262.3
		L54.1,262.3z M54.2,264.7c0.4,0,0.8-0.3,0.8-0.7v0c0-0.5-0.3-0.7-0.8-0.7h0L54.2,264.7L54.2,264.7z M56.3,260h1v4.7h1v0.9h-2V260z
		 M58.7,260h1v5.6h-1V260z M60.2,265.4v-1c0.3,0.2,0.6,0.3,0.9,0.3c0.3,0,0.5-0.1,0.5-0.5v0c0-0.3-0.1-0.4-0.5-1
		c-0.7-0.8-0.9-1.1-0.9-1.8v0c0-0.9,0.6-1.5,1.4-1.5c0.4,0,0.6,0.1,0.9,0.2v1c-0.3-0.2-0.5-0.3-0.7-0.3c-0.3,0-0.5,0.2-0.5,0.5v0
		c0,0.3,0.1,0.4,0.5,0.9c0.8,0.9,0.9,1.2,0.9,1.9v0c0,0.9-0.6,1.5-1.4,1.5C60.8,265.6,60.4,265.5,60.2,265.4z M62.8,265.4v-1
		c0.3,0.2,0.6,0.3,0.9,0.3c0.3,0,0.5-0.1,0.5-0.5v0c0-0.3-0.1-0.4-0.5-1c-0.7-0.8-0.9-1.1-0.9-1.8v0c0-0.9,0.6-1.5,1.4-1.5
		c0.4,0,0.6,0.1,0.9,0.2v1c-0.3-0.2-0.5-0.3-0.7-0.3c-0.3,0-0.5,0.2-0.5,0.5v0c0,0.3,0.1,0.4,0.5,0.9c0.8,0.9,0.9,1.2,0.9,1.9v0
		c0,0.9-0.6,1.5-1.4,1.5C63.4,265.6,63,265.5,62.8,265.4z M67.3,260.9h-0.7V260h2.4v0.9h-0.7v4.7h-1V260.9z M69.4,260h1v2.3h0.8V260
		h1v5.6h-1v-2.4h-0.8v2.4h-1V260z M72.7,260h2.1v0.9h-1.2v1.4h1v0.9h-1v1.4h1.2v0.9h-2.2V260z M76.2,259.9h1l1.1,5.6h-1l-0.2-1.1
		h-0.9l-0.2,1.1h-0.9L76.2,259.9z M77,263.6l-0.3-1.8l-0.3,1.8H77z M78.8,260.9h-0.7V260h2.4v0.9h-0.7v4.7h-1L78.8,260.9L78.8,260.9
		z M80.9,260H83v0.9h-1.2v1.4h1v0.9h-1v1.4h1.2v0.9h-2.2V260z M83.5,260h1c1,0,1.7,0.5,1.7,1.8v0.1c0,0.7-0.3,1.2-0.7,1.5l0.8,2.3
		h-1l-0.6-2h-0.2v2h-1V260z M84.6,262.7c0.4,0,0.7-0.2,0.7-0.9v-0.1c0-0.7-0.3-0.9-0.8-0.9h0L84.6,262.7L84.6,262.7z"/>
	<path class="st11" d="M62.9,236.9v-1c0.3,0.2,0.6,0.3,0.9,0.3c0.3,0,0.5-0.1,0.5-0.5v0c0-0.3-0.1-0.4-0.5-1
		c-0.7-0.8-0.9-1.1-0.9-1.8v0c0-0.9,0.6-1.5,1.4-1.5c0.4,0,0.6,0.1,0.9,0.2v1c-0.3-0.2-0.5-0.3-0.7-0.3c-0.3,0-0.5,0.2-0.5,0.5v0
		c0,0.3,0.1,0.4,0.5,0.9c0.8,0.9,0.9,1.2,0.9,1.9v0c0,0.9-0.6,1.5-1.4,1.5C63.5,237.2,63.2,237.1,62.9,236.9z M66,232.5h-0.7v-0.9
		h2.4v0.9H67v4.7h-1L66,232.5L66,232.5z M68.6,231.5h1l1.1,5.6h-1l-0.2-1.1h-0.9l-0.2,1.1h-0.9L68.6,231.5z M69.4,235.2l-0.3-1.8
		l-0.3,1.8H69.4z M70.9,234.4v-0.2c0-1.8,0.8-2.7,1.9-2.7c0.3,0,0.5,0.1,0.7,0.2v1c-0.2-0.1-0.5-0.2-0.7-0.2c-0.6,0-0.9,0.6-0.9,1.8
		v0.3c0,1.5,0.4,1.8,0.8,1.8c0,0,0,0,0.1,0v-1.4h-0.5V234h1.4v3c-0.4,0.2-0.6,0.2-1,0.2C71.7,237.2,70.9,236.4,70.9,234.4z
		 M74.2,231.5h2.1v0.9h-1.2v1.4h1v0.9h-1v1.4h1.2v0.9h-2.2V231.5z"/>
	<path class="st11" d="M5.8,555v-1c0.3,0.2,0.6,0.3,0.9,0.3c0.3,0,0.5-0.1,0.5-0.5v0c0-0.3-0.1-0.4-0.5-1c-0.7-0.8-0.9-1.1-0.9-1.8
		v0c0-0.9,0.6-1.5,1.4-1.5c0.4,0,0.6,0.1,0.9,0.2v1c-0.3-0.2-0.5-0.3-0.7-0.3c-0.3,0-0.5,0.2-0.5,0.5v0c0,0.3,0.1,0.4,0.5,0.9
		c0.8,0.9,0.9,1.2,0.9,1.9v0c0,0.9-0.6,1.5-1.4,1.5C6.4,555.2,6.1,555.1,5.8,555z M8.9,550.5H8.2v-0.9h2.4v0.9H9.9v4.7h-1V550.5z
		 M11.5,549.6h1l1.1,5.6h-1l-0.2-1.1h-0.9l-0.2,1.1h-0.9L11.5,549.6z M12.3,553.2l-0.3-1.8l-0.3,1.8H12.3z M13.9,549.6h1
		c1,0,1.7,0.5,1.7,1.8v0.1c0,0.7-0.3,1.2-0.7,1.5l0.8,2.3h-1l-0.6-2h-0.2v2h-1V549.6z M15,552.3c0.4,0,0.7-0.2,0.7-0.9v-0.1
		c0-0.7-0.3-0.9-0.8-0.9h0L15,552.3L15,552.3z M17.1,549.6H18c0.9,0,1.8,0.4,1.8,1.4v0c0,0.7-0.4,1.1-0.8,1.3
		c0.5,0.2,0.9,0.5,0.9,1.2v0.1c0,1-0.8,1.6-1.9,1.6h-0.9L17.1,549.6L17.1,549.6z M18.1,551.9c0.4,0,0.7-0.2,0.7-0.7v0
		c0-0.5-0.3-0.7-0.7-0.7h0L18.1,551.9L18.1,551.9z M18.1,554.3c0.4,0,0.8-0.3,0.8-0.7v0c0-0.5-0.3-0.7-0.8-0.7h0L18.1,554.3
		L18.1,554.3L18.1,554.3z M20.3,553.5v-4h1v4.1c0,0.5,0.2,0.7,0.4,0.7s0.4-0.2,0.4-0.7v-4.1h1v4c0,1.2-0.6,1.7-1.4,1.7
		C20.9,555.3,20.3,554.7,20.3,553.5z M23.5,552.5v-0.2c0-2,0.7-2.7,1.6-2.7c0.3,0,0.4,0,0.6,0.1v1c-0.2-0.1-0.4-0.2-0.5-0.2
		c-0.4,0-0.7,0.4-0.7,1.8v0.2c0,1.5,0.3,1.8,0.8,1.8c0.2,0,0.3-0.1,0.5-0.2v1c-0.2,0.1-0.4,0.2-0.7,0.2
		C24.2,555.2,23.5,554.4,23.5,552.5z M26.3,549.6h1v2.3l0.8-2.3h1.1l-0.9,2.4l1,3.2h-1.1l-0.6-2.1l-0.2,0.6v1.5h-1L26.3,549.6
		L26.3,549.6z M29.4,555v-1c0.3,0.2,0.6,0.3,0.9,0.3c0.3,0,0.5-0.1,0.5-0.5v0c0-0.3-0.1-0.4-0.5-1c-0.7-0.8-0.9-1.1-0.9-1.8v0
		c0-0.9,0.6-1.5,1.4-1.5c0.4,0,0.6,0.1,0.9,0.2v1c-0.3-0.2-0.5-0.3-0.7-0.3c-0.3,0-0.5,0.2-0.5,0.5v0c0,0.3,0.1,0.4,0.5,0.9
		c0.8,0.9,0.9,1.2,0.9,1.9v0c0,0.9-0.6,1.5-1.4,1.5C30,555.2,29.7,555.1,29.4,555z M32.1,551v-0.1c0-0.8,0.4-1.4,1-1.4s1,0.5,1,1.4
		v0.1c0,0.8-0.4,1.4-1,1.4S32.1,551.8,32.1,551z M33.9,550.8c0-0.7-0.3-1.2-0.8-1.2s-0.8,0.5-0.8,1.2v0.1c0,0.7,0.3,1.2,0.8,1.2
		s0.8-0.5,0.8-1.2V550.8z M32.7,550.1H33c0.3,0,0.5,0.2,0.5,0.5v0c0,0.2-0.1,0.3-0.2,0.4l0.2,0.6h-0.3l-0.2-0.5H33v0.5h-0.3
		C32.7,551.6,32.7,550.1,32.7,550.1z M33,550.9c0.1,0,0.2-0.1,0.2-0.2v0c0-0.2-0.1-0.2-0.2-0.2h0L33,550.9L33,550.9L33,550.9z"/>
	<path class="st11" d="M71.4,318.1v-1c0.3,0.2,0.6,0.3,0.9,0.3c0.3,0,0.5-0.1,0.5-0.5v0c0-0.3-0.1-0.4-0.5-1
		c-0.7-0.8-0.9-1.1-0.9-1.8v0c0-0.9,0.6-1.5,1.4-1.5c0.4,0,0.6,0.1,0.9,0.2v1c-0.3-0.2-0.5-0.3-0.7-0.3c-0.3,0-0.5,0.2-0.5,0.5v0
		c0,0.3,0.1,0.4,0.5,0.9c0.8,0.9,0.9,1.2,0.9,1.9v0c0,0.9-0.6,1.5-1.4,1.5C72,318.3,71.7,318.2,71.4,318.1z M74.5,313.6h-0.7v-0.9
		h2.4v0.9h-0.7v4.7h-1L74.5,313.6L74.5,313.6z M77.1,312.7h1l1.1,5.6h-1l-0.2-1.1h-0.9l-0.2,1.1h-0.9L77.1,312.7z M77.9,316.3
		l-0.3-1.8l-0.3,1.8H77.9z M79.4,315.6v-0.2c0-1.8,0.8-2.7,1.9-2.7c0.3,0,0.5,0.1,0.7,0.2v1c-0.2-0.1-0.5-0.2-0.7-0.2
		c-0.6,0-0.9,0.6-0.9,1.8v0.3c0,1.5,0.4,1.8,0.8,1.8c0,0,0,0,0.1,0V316h-0.5v-0.9h1.4v3c-0.4,0.2-0.6,0.2-1,0.2
		C80.2,318.3,79.4,317.5,79.4,315.6z M82.7,312.7h2.1v0.9h-1.2v1.4h1v0.9h-1v1.4h1.2v0.9h-2.2V312.7z"/>
	<path class="st11" d="M118.5,445.8h0.9c1.1,0,1.8,0.6,1.8,1.9v0c0,1.3-0.7,1.9-1.7,1.9h0v1.8h-1V445.8z M119.5,448.8
		c0.4,0,0.7-0.3,0.7-1v0c0-0.7-0.3-1-0.7-1h0L119.5,448.8L119.5,448.8L119.5,448.8z M121.6,445.8h1v2.3h0.8v-2.3h1v5.6h-1v-2.4h-0.8
		v2.4h-1V445.8z M124.9,448.8v-0.3c0-1.8,0.6-2.7,1.5-2.7s1.5,0.9,1.5,2.7v0.3c0,1.8-0.6,2.7-1.5,2.7S124.9,450.6,124.9,448.8z
		 M126.8,448.8v-0.3c0-1.4-0.2-1.8-0.5-1.8s-0.5,0.4-0.5,1.8v0.3c0,1.4,0.2,1.8,0.5,1.8S126.8,450.2,126.8,448.8z M128.7,446.8H128
		v-0.9h2.4v0.9h-0.7v4.7h-1V446.8z M130.5,448.8v-0.3c0-1.8,0.6-2.7,1.5-2.7s1.5,0.9,1.5,2.7v0.3c0,1.8-0.6,2.7-1.5,2.7
		S130.5,450.6,130.5,448.8z M132.5,448.8v-0.3c0-1.4-0.2-1.8-0.5-1.8s-0.5,0.4-0.5,1.8v0.3c0,1.4,0.2,1.8,0.5,1.8
		S132.5,450.2,132.5,448.8z M117.8,459.2v-1c0.3,0.2,0.6,0.3,0.9,0.3c0.3,0,0.5-0.1,0.5-0.5v0c0-0.3-0.1-0.4-0.5-1
		c-0.7-0.8-0.9-1.1-0.9-1.8v0c0-0.9,0.6-1.5,1.4-1.5c0.4,0,0.6,0.1,0.9,0.2v1c-0.3-0.2-0.5-0.3-0.7-0.3c-0.3,0-0.5,0.2-0.5,0.5v0
		c0,0.3,0.1,0.4,0.5,0.9c0.8,0.9,0.9,1.2,0.9,1.9v0c0,0.9-0.6,1.5-1.4,1.5C118.4,459.5,118,459.4,117.8,459.2z M120.9,454.8h-0.7
		v-0.9h2.4v0.9h-0.7v4.7h-1L120.9,454.8L120.9,454.8z M122.9,457.8v-4h1v4.1c0,0.5,0.2,0.7,0.4,0.7c0.2,0,0.4-0.2,0.4-0.7v-4.1h1v4
		c0,1.2-0.6,1.7-1.4,1.7C123.5,459.5,122.9,459,122.9,457.8z M126.3,453.8h0.9c1.2,0,2,0.9,2,2.7v0.2c0,1.8-0.7,2.7-2,2.7h-0.9
		V453.8z M127.3,458.5c0.5,0,0.9-0.4,0.9-1.8v-0.2c0-1.4-0.4-1.8-0.9-1.8h0L127.3,458.5L127.3,458.5z M129.7,453.8h1v5.6h-1V453.8z
		 M131.1,456.8v-0.3c0-1.8,0.6-2.7,1.5-2.7s1.5,0.9,1.5,2.7v0.3c0,1.8-0.6,2.7-1.5,2.7S131.1,458.6,131.1,456.8z M133.1,456.8v-0.3
		c0-1.4-0.2-1.8-0.5-1.8s-0.5,0.4-0.5,1.8v0.3c0,1.4,0.2,1.8,0.5,1.8S133.1,458.2,133.1,456.8z"/>
	<path class="st11" d="M118.6,418.9h0.9v4.1h0.9v0.8h-1.8L118.6,418.9L118.6,418.9z M120.7,418.9h0.9v4.9h-0.9V418.9z M122.1,418.9
		h0.7c0.8,0,1.6,0.3,1.6,1.2v0c0,0.6-0.4,0.9-0.7,1.1c0.4,0.2,0.8,0.5,0.8,1.1v0.1c0,0.9-0.7,1.4-1.6,1.4h-0.8L122.1,418.9
		L122.1,418.9z M123,421c0.4,0,0.6-0.2,0.6-0.6v0c0-0.4-0.3-0.6-0.6-0.6h0L123,421L123,421L123,421z M123,423c0.4,0,0.7-0.2,0.7-0.6
		v0c0-0.4-0.3-0.6-0.7-0.6h0L123,423L123,423L123,423z M124.9,418.9h0.9c0.9,0,1.5,0.5,1.5,1.6v0.1c0,0.6-0.3,1-0.6,1.3l0.7,2h-0.9
		l-0.6-1.7h-0.2v1.7h-0.9L124.9,418.9L124.9,418.9z M125.8,421.4c0.4,0,0.6-0.2,0.6-0.8v-0.1c0-0.6-0.3-0.8-0.7-0.8h0L125.8,421.4
		L125.8,421.4z M128.3,418.9h0.9l0.9,4.9h-0.9l-0.2-1h-0.8l-0.2,1h-0.8L128.3,418.9z M129,422.1l-0.3-1.6l-0.3,1.6H129z
		 M130.4,418.9h0.9c0.9,0,1.5,0.5,1.5,1.6v0.1c0,0.6-0.3,1-0.6,1.3l0.7,2H132l-0.6-1.7h-0.2v1.7h-0.9L130.4,418.9L130.4,418.9z
		 M131.3,421.4c0.4,0,0.6-0.2,0.6-0.8v-0.1c0-0.6-0.3-0.8-0.7-0.8h0L131.3,421.4L131.3,421.4z M133.7,421.9l-0.9-3h0.9l0.5,1.8
		l0.5-1.8h0.9l-0.9,3v1.9h-0.9L133.7,421.9L133.7,421.9z M119.5,429.6L119.5,429.6c0-0.6,0.3-1.1,0.8-1.5c-0.3-0.4-0.4-0.8-0.4-1.1
		v0c0-0.6,0.4-1.1,1-1.1c0.6,0,1,0.4,1,1.1v0c0,0.6-0.3,1-0.7,1.3l0.4,0.8c0-0.2,0.1-0.4,0.1-0.7l0.7,0.1c-0.1,0.6-0.2,0.9-0.3,1.3
		l0.4,0.7l-0.6,0.4l-0.2-0.4c-0.2,0.3-0.5,0.4-0.9,0.4C120.1,430.9,119.5,430.4,119.5,429.6z M121.3,429.9l-0.6-1.2
		c-0.2,0.2-0.3,0.5-0.3,0.8v0.1c0,0.4,0.2,0.6,0.5,0.6C121,430.2,121.1,430.1,121.3,429.9z M120.8,427.7c0.2-0.2,0.3-0.5,0.3-0.7
		v-0.1c0-0.2-0.1-0.4-0.3-0.4c-0.2,0-0.3,0.2-0.3,0.4v0.1C120.6,427.2,120.7,427.4,120.8,427.7z M123.8,428.5v-0.2
		c0-1.7,0.6-2.4,1.4-2.4c0.2,0,0.4,0,0.6,0.1v0.9c-0.2-0.1-0.3-0.2-0.5-0.2c-0.4,0-0.7,0.3-0.7,1.6v0.2c0,1.3,0.3,1.6,0.7,1.6
		c0.1,0,0.3,0,0.5-0.2v0.8c-0.2,0.1-0.4,0.1-0.6,0.1C124.4,430.9,123.8,430.2,123.8,428.5z M126.9,425.9h0.9l0.9,4.9h-0.9l-0.2-1
		h-0.8l-0.2,1H126L126.9,425.9z M127.6,429.1l-0.3-1.6l-0.3,1.6H127.6z M129,425.9h0.9c0.9,0,1.5,0.5,1.5,1.6v0.1
		c0,0.6-0.3,1-0.6,1.3l0.7,2h-0.9l-0.6-1.7h-0.2v1.7H129L129,425.9L129,425.9z M129.9,428.4c0.4,0,0.6-0.2,0.6-0.8v-0.1
		c0-0.6-0.3-0.8-0.7-0.8h0L129.9,428.4L129.9,428.4z M131.8,425.9h0.8c1.1,0,1.7,0.8,1.7,2.4v0.2c0,1.6-0.6,2.4-1.7,2.4h-0.8V425.9z
		 M132.7,430.1c0.4,0,0.8-0.4,0.8-1.6v-0.2c0-1.2-0.4-1.6-0.8-1.6h0L132.7,430.1L132.7,430.1L132.7,430.1z M121.2,432.9h0.9
		c0.9,0,1.5,0.5,1.5,1.6v0.1c0,0.6-0.3,1-0.6,1.3l0.7,2h-0.9l-0.6-1.7H122v1.7h-0.9L121.2,432.9L121.2,432.9z M122.1,435.4
		c0.4,0,0.6-0.2,0.6-0.8v-0.1c0-0.6-0.3-0.8-0.7-0.8h0L122.1,435.4L122.1,435.4z M123.9,435.5v-0.3c0-1.6,0.5-2.4,1.3-2.4
		s1.3,0.8,1.3,2.4v0.3c0,1.6-0.5,2.4-1.3,2.4S123.9,437.1,123.9,435.5z M125.6,435.5v-0.3c0-1.3-0.2-1.6-0.4-1.6
		c-0.3,0-0.4,0.4-0.4,1.6v0.3c0,1.3,0.2,1.6,0.4,1.6C125.4,437.1,125.6,436.8,125.6,435.5z M126.8,435.5v-0.3c0-1.6,0.5-2.4,1.3-2.4
		c0.8,0,1.3,0.8,1.3,2.4v0.3c0,1.6-0.5,2.4-1.3,2.4C127.3,437.9,126.8,437.1,126.8,435.5z M128.5,435.5v-0.3c0-1.3-0.2-1.6-0.4-1.6
		c-0.3,0-0.4,0.4-0.4,1.6v0.3c0,1.3,0.2,1.6,0.4,1.6C128.4,437.1,128.5,436.8,128.5,435.5z M129.8,432.9h0.8l0.6,1.8l0.6-1.8h0.8
		v4.9h-0.8v-3l-0.6,1.9h0l-0.6-1.9v3h-0.8L129.8,432.9L129.8,432.9z"/>
	<path class="st11" d="M96.5,466.9v-1l2-0.7l-2-0.7v-1h5.6v0.9h-3.4l2.1,0.7v0l-2.1,0.7h3.4v0.9H96.5z M96.5,463v-2.1h0.9v1.2h1.4
		v-1h0.9v1h1.4v-1.2h0.9v2.2L96.5,463L96.5,463z M96.5,460.3v-2.1h0.9v1.2h1.4v-1h0.9v1h1.4v-1.2h0.9v2.2L96.5,460.3L96.5,460.3z
		 M97.4,457.2v0.7h-0.9v-2.4h0.9v0.7h4.7v1L97.4,457.2L97.4,457.2z M96.5,455.1v-1h5.6v1H96.5z M96.5,453.5v-0.9l2.8-1h-2.8v-1h5.6
		v0.9l-3,1h3v1H96.5z M99.4,450.2h-0.2c-1.8,0-2.7-0.8-2.7-1.9c0-0.3,0.1-0.5,0.2-0.7h1c-0.1,0.2-0.2,0.5-0.2,0.7
		c0,0.6,0.6,0.9,1.8,0.9h0.3c1.5,0,1.8-0.4,1.8-0.8c0,0,0,0,0-0.1h-1.4v0.5h-0.9v-1.4h3c0.2,0.4,0.2,0.6,0.2,1
		C102.1,449.4,101.3,450.2,99.4,450.2z M96.5,445.6v-1c0-1,0.5-1.7,1.8-1.7h0.1c0.7,0,1.2,0.3,1.5,0.7l2.3-0.8v1l-2,0.6v0.2h2v1
		L96.5,445.6L96.5,445.6z M99.2,444.6c0-0.4-0.2-0.7-0.9-0.7h-0.1c-0.7,0-0.9,0.3-0.9,0.8v0L99.2,444.6L99.2,444.6z M99.4,442.5
		h-0.3c-1.8,0-2.7-0.6-2.7-1.5c0-0.9,0.9-1.5,2.7-1.5h0.3c1.8,0,2.7,0.6,2.7,1.5C102.1,441.9,101.3,442.5,99.4,442.5z M99.4,440.5
		h-0.3c-1.4,0-1.8,0.2-1.8,0.5c0,0.3,0.4,0.5,1.8,0.5h0.3c1.4,0,1.8-0.2,1.8-0.5C101.2,440.7,100.8,440.5,99.4,440.5z M99.4,439.1
		h-0.3c-1.8,0-2.7-0.6-2.7-1.5s0.9-1.5,2.7-1.5h0.3c1.8,0,2.7,0.6,2.7,1.5C102.1,438.5,101.3,439.1,99.4,439.1z M99.4,437.1h-0.3
		c-1.4,0-1.8,0.2-1.8,0.5s0.4,0.5,1.8,0.5h0.3c1.4,0,1.8-0.2,1.8-0.5S100.8,437.1,99.4,437.1z M96.5,435.7v-1l2-0.7l-2-0.7v-1h5.6
		v0.9h-3.4l2.1,0.7v0l-2.1,0.7h3.4v0.9H96.5z M101.9,431.9h-1c0.2-0.3,0.3-0.6,0.3-0.9c0-0.3-0.1-0.5-0.5-0.5h0
		c-0.3,0-0.4,0.1-1,0.5c-0.8,0.7-1.1,0.9-1.8,0.9h0c-0.9,0-1.5-0.6-1.5-1.4c0-0.4,0.1-0.6,0.2-0.9h1c-0.2,0.3-0.3,0.5-0.3,0.7
		c0,0.3,0.2,0.5,0.5,0.5h0c0.3,0,0.4-0.1,0.9-0.5c0.9-0.8,1.2-0.9,1.9-0.9h0c0.9,0,1.5,0.6,1.5,1.4
		C102.1,431.3,102,431.6,101.9,431.9z"/>
	<path class="st11" d="M35.2,594.9H36c0.9,0,1.8,0.4,1.8,1.4v0c0,0.7-0.4,1.1-0.8,1.3c0.5,0.2,0.9,0.5,0.9,1.2v0.1
		c0,1-0.8,1.6-1.9,1.6h-0.9C35.2,600.5,35.2,594.9,35.2,594.9z M36.2,597.2c0.4,0,0.7-0.2,0.7-0.7v0c0-0.5-0.3-0.7-0.7-0.7h0
		L36.2,597.2L36.2,597.2z M36.2,599.6c0.4,0,0.8-0.3,0.8-0.7v0c0-0.5-0.3-0.7-0.8-0.7h0L36.2,599.6L36.2,599.6L36.2,599.6z
		 M39.1,594.9h1l1.1,5.6h-1l-0.2-1.1h-0.9l-0.2,1.1H38L39.1,594.9z M39.9,598.5l-0.3-1.8l-0.3,1.8H39.9z M41.5,594.9h1
		c1,0,1.7,0.5,1.7,1.8v0.1c0,0.7-0.3,1.2-0.7,1.5l0.8,2.3h-1l-0.6-2h-0.2v2h-1V594.9z M42.5,597.6c0.4,0,0.7-0.2,0.7-0.9v-0.1
		c0-0.7-0.3-0.9-0.8-0.9h0L42.5,597.6L42.5,597.6z"/>
	<path class="st11" d="M18.3,622.2v-1c0.3,0.2,0.6,0.3,0.9,0.3c0.3,0,0.5-0.1,0.5-0.5v0c0-0.3-0.1-0.4-0.5-1
		c-0.7-0.8-0.9-1.1-0.9-1.8v0c0-0.9,0.6-1.5,1.4-1.5c0.4,0,0.6,0.1,0.9,0.2v1c-0.3-0.2-0.5-0.3-0.7-0.3c-0.3,0-0.5,0.2-0.5,0.5v0
		c0,0.3,0.1,0.4,0.5,0.9c0.8,0.9,0.9,1.2,0.9,1.9v0c0,0.9-0.6,1.5-1.4,1.5C18.9,622.4,18.6,622.3,18.3,622.2z M20.9,619.7v-0.3
		c0-1.8,0.6-2.7,1.5-2.7c0.9,0,1.5,0.9,1.5,2.7v0.3c0,1.8-0.6,2.7-1.5,2.7C21.5,622.4,20.9,621.5,20.9,619.7z M22.9,619.7v-0.3
		c0-1.4-0.2-1.8-0.5-1.8s-0.5,0.4-0.5,1.8v0.3c0,1.4,0.2,1.8,0.5,1.8S22.9,621.1,22.9,619.7z M24.3,619.6v-0.2c0-2,0.7-2.7,1.6-2.7
		c0.3,0,0.4,0,0.6,0.1v1c-0.2-0.1-0.4-0.2-0.5-0.2c-0.4,0-0.7,0.4-0.7,1.8v0.2c0,1.5,0.3,1.8,0.8,1.8c0.2,0,0.3-0.1,0.5-0.2v1
		c-0.2,0.1-0.4,0.2-0.7,0.2C24.9,622.4,24.3,621.6,24.3,619.6z M27.1,616.8h1v5.6h-1V616.8z M29.4,616.7h1l1.1,5.6h-1l-0.2-1.1h-0.9
		l-0.2,1.1h-0.9L29.4,616.7z M30.2,620.4l-0.3-1.8l-0.3,1.8H30.2z M31.8,616.8h1v4.7h1v0.9h-2V616.8z M13.9,627.6v-0.2
		c0-2,0.7-2.7,1.6-2.7c0.3,0,0.4,0,0.6,0.1v1c-0.2-0.1-0.4-0.2-0.5-0.2c-0.4,0-0.7,0.4-0.7,1.8v0.2c0,1.5,0.3,1.8,0.8,1.8
		c0.2,0,0.3-0.1,0.5-0.2v1c-0.2,0.1-0.4,0.2-0.7,0.2C14.6,630.4,13.9,629.6,13.9,627.6z M16.4,627.7v-0.3c0-1.8,0.6-2.7,1.5-2.7
		c0.9,0,1.5,0.9,1.5,2.7v0.3c0,1.8-0.6,2.7-1.5,2.7C17,630.4,16.4,629.5,16.4,627.7z M18.4,627.7v-0.3c0-1.4-0.2-1.8-0.5-1.8
		s-0.5,0.4-0.5,1.8v0.3c0,1.4,0.2,1.8,0.5,1.8S18.4,629.1,18.4,627.7z M19.9,624.8h1l0.7,2l0.7-2h1v5.6h-0.9V627l-0.7,2.1h0
		l-0.7-2.1v3.4h-0.9L19.9,624.8L19.9,624.8z M23.7,624.8h2.1v0.9h-1.2v1.4h1v0.9h-1v1.4h1.2v0.9h-2.2V624.8z M26.4,624.8h0.9
		c1.2,0,2,0.9,2,2.7v0.2c0,1.8-0.7,2.7-2,2.7h-0.9V624.8z M27.4,629.5c0.5,0,0.9-0.4,0.9-1.8v-0.2c0-1.4-0.4-1.8-0.9-1.8h0
		L27.4,629.5L27.4,629.5z M30.3,628.1l-1-3.4h1l0.5,2.1l0.5-2.1h1l-1,3.4v2.2h-1L30.3,628.1L30.3,628.1z M33.7,628.9L33.7,628.9
		c0-0.7,0.3-1.2,0.9-1.7c-0.3-0.5-0.5-0.9-0.5-1.3v-0.1c0-0.7,0.5-1.2,1.2-1.2c0.7,0,1.1,0.5,1.1,1.2v0.1c0,0.6-0.3,1.1-0.8,1.5
		l0.5,1c0-0.2,0.1-0.4,0.1-0.8l0.8,0.1c-0.1,0.6-0.2,1.1-0.4,1.4l0.5,0.8l-0.7,0.4l-0.3-0.5c-0.3,0.3-0.6,0.5-1,0.5
		C34.3,630.4,33.7,629.8,33.7,628.9z M35.7,629.3l-0.7-1.4c-0.2,0.3-0.3,0.6-0.3,0.9v0.1c0,0.4,0.2,0.7,0.5,0.7
		C35.4,629.6,35.5,629.5,35.7,629.3z M35.2,626.8c0.2-0.2,0.3-0.5,0.3-0.8v-0.1c0-0.3-0.1-0.4-0.3-0.4c-0.2,0-0.3,0.2-0.3,0.4v0.1
		C34.9,626.2,35,626.4,35.2,626.8z M12.8,632.8h0.9l1,2.8v-2.8h1v5.6h-0.9l-1-3v3h-1V632.8z M16.3,632.8h1v5.6h-1V632.8z
		 M17.7,635.6v-0.2c0-1.8,0.8-2.7,1.9-2.7c0.3,0,0.5,0.1,0.7,0.2v1c-0.2-0.1-0.5-0.2-0.7-0.2c-0.6,0-0.9,0.6-0.9,1.8v0.3
		c0,1.5,0.4,1.8,0.8,1.8c0,0,0,0,0.1,0V636h-0.5v-0.9h1.4v3c-0.4,0.2-0.6,0.2-1,0.2C18.6,638.4,17.7,637.6,17.7,635.6z M21.1,632.8
		h1v2.3h0.8v-2.3h1v5.6h-1V636h-0.8v2.4h-1V632.8z M25,633.7h-0.7v-0.9h2.4v0.9H26v4.7h-1V633.7z M28.2,635.6v-0.2
		c0-2,0.7-2.7,1.6-2.7c0.3,0,0.4,0,0.6,0.1v1c-0.2-0.1-0.4-0.2-0.5-0.2c-0.4,0-0.7,0.4-0.7,1.8v0.2c0,1.5,0.3,1.8,0.8,1.8
		c0.2,0,0.3-0.1,0.5-0.2v1c-0.2,0.1-0.4,0.2-0.7,0.2C28.9,638.4,28.2,637.6,28.2,635.6z M31,632.8h1v4.7h1v0.9h-2L31,632.8L31,632.8
		z M33.3,636.7v-4h1v4.1c0,0.5,0.2,0.7,0.4,0.7s0.4-0.2,0.4-0.7v-4.1h1v4c0,1.2-0.6,1.7-1.4,1.7C33.9,638.4,33.3,637.9,33.3,636.7z
		 M36.7,632.8h0.8c0.9,0,1.8,0.4,1.8,1.4v0c0,0.7-0.4,1.1-0.8,1.3c0.5,0.2,0.9,0.5,0.9,1.2v0.1c0,1-0.8,1.6-1.9,1.6h-0.9
		C36.7,638.3,36.7,632.8,36.7,632.8z M37.7,635.1c0.4,0,0.7-0.2,0.7-0.7v0c0-0.5-0.3-0.7-0.7-0.7h0L37.7,635.1L37.7,635.1z
		 M37.7,637.4c0.4,0,0.8-0.3,0.8-0.7v0c0-0.5-0.3-0.7-0.8-0.7h0L37.7,637.4L37.7,637.4L37.7,637.4z"/>
</g>
<g id="BLISS_DECK_06_TOP">
	<g id="gDeck06Locations">
		<path width="136.8329" height="368.822" id="_x30_6Aft" class="st12" d="M0.5,1003.1c12.1,14.8,28.2,18,61.8,18c0.5,1.5,2.5,3.3,6.5,3.3H69c4,0,5.7-1.8,6.5-3.3
			c33.7,0,49.8-3.2,61.8-18c0-6.6,0-167.7,0-347.5H0.5C0.5,993.3,0.5,989.6,0.5,1003.1z"/>
		<path width="136.8329" height="298.95" id="_x30_6MidShip" class="st12" d="M0.5,356.6c0,121.6,0,219.7,0,299h136.8c0-101.9,0-209.7,0-299H0.5z"/>
		<path width="136.8329" height="356.144" id="_x30_6Forward" class="st12" d="M137.4,157.4c-3-78.8-43.2-124.7-53.7-139.2C75,6.2,74.4,0.5,69,0.5h-0.2
			c-5.3,0-6,5.7-14.7,17.8C43.8,32.8,3.5,78.6,0.5,157.4c0,72.6,0,138.8,0,199.2h136.8C137.4,241.5,137.4,157.4,137.4,157.4z"/>
	</g>
	<path class="st13" d="M68.9,0.5c-5.3,0-6,5.7-14.7,17.8C43.8,32.8,3.6,78.6,0.6,157.4c0,840.5,0,827.5,0,845.7
		c12.1,14.8,28.2,18,61.8,18c0.5,1.5,2.5,3.3,6.5,3.3h0.2c4,0,5.7-1.8,6.5-3.3c33.7,0,49.8-3.2,61.8-18c0-15.2,0-845.7,0-845.7
		c-3-78.8-43.2-124.7-53.7-139.2C75.1,6.2,74.4,0.5,69.1,0.5H68.9z"/>
</g>
</svg>
