<?xml version="1.0" encoding="utf-8"?>
<!-- Generator: Adobe Illustrator 25.4.1, SVG Export Plug-In . SVG Version: 6.00 Build 0)  -->
<svg version="1.1" id="BLISS_DECK_18" xmlns="http://www.w3.org/2000/svg" xmlns:xlink="http://www.w3.org/1999/xlink" x="0px"
	 y="0px" width="145.8px" height="840.5px" viewBox="0 0 145.8 840.5" style="enable-background:new 0 0 145.8 840.5;"
	 xml:space="preserve">
<style type="text/css">
	.st0{fill:#FFFFFF;}
	.st1{fill:none;stroke:#D5DCE0;stroke-width:0.5;}
	.st2{fill:#FFFFFF;stroke:#D5DCE0;stroke-width:0.5;}
	.st3{fill:#DFEDF1;stroke:#CEDFE5;stroke-width:0.5;}
	.st4{fill:#DFEDF1;}
	.st5{fill:#6E8496;}
	.st6{fill:#EFF2F5;stroke:#FFFFFF;stroke-width:0.5;stroke-miterlimit:10;}
	.st7{fill:none;}
	.st8{fill:none;stroke:#076FA0;stroke-miterlimit:10;}
</style>
<g id="BLISS_DECK_18_BOTTOM">
	<polyline class="st0" points="102.7,610.9 125.6,610.9 125.6,793.7 25.4,793.7 6.2,793.7 6.4,764.7 1.4,764.7 1.4,610.8 
		10.4,610.8 	"/>
	<rect x="40.3" y="552.1" class="st0" width="45.7" height="69"/>
	<path class="st0" d="M64.1,0.5h0.3c23.1,0,33.8,3.3,45.1,8c7.4,3.1,13.6,7.9,13.6,13.7c0,0.6,0,20.1,0,20.1h-4.6v240.2l7.1,16V318
		H97.4v33H64.6h-1.5H30.2v-33H1.9v-19.5l7.1-16V42.3H4.1c0,0,0-19.4,0-20c0-5.8,6.5-10.7,13.9-13.8c11.3-4.7,22-8,45.1-8h0.3
		C63.4,0.5,64.1,0.5,64.1,0.5z"/>
	<polyline class="st1" points="95.5,610.9 89.6,610.9 89.6,622.7 36.9,622.6 36.9,610.8 18.4,610.8 	"/>
	<rect x="63" y="286.7" class="st1" width="6.3" height="1"/>
	<rect x="63" y="288.6" class="st1" width="12.7" height="1"/>
	<rect x="69.4" y="286.7" class="st1" width="6.3" height="1"/>
	<rect x="63" y="285.2" class="st1" width="12.7" height="12.2"/>
	<rect x="63" y="290.5" class="st1" width="12.7" height="1"/>
	<rect x="63" y="291.5" class="st1" width="12.7" height="1"/>
	<rect x="63" y="292.5" class="st1" width="12.7" height="1"/>
	<polygon class="st1" points="65.1,294.4 75.8,294.4 75.8,293.5 63,293.5 	"/>
	<polygon class="st1" points="67.2,295.4 75.8,295.4 75.8,294.5 65.1,294.5 	"/>
	<rect x="69.7" y="295.4" class="st1" width="6.1" height="1"/>
	<polygon class="st1" points="63,297.4 69.2,297.4 69.2,296.4 63,293.4 	"/>
	<path class="st1" d="M69.2,286.1c0-0.1,0.1-0.2,0.2-0.2l0,0c0.1,0,0.2,0.1,0.2,0.2v11.3c0,0.1-0.1,0.2-0.2,0.2l0,0
		c-0.1,0-0.2-0.1-0.2-0.2V286.1z"/>
	<line class="st1" x1="70" y1="326.9" x2="78.9" y2="318.9"/>
	<line class="st1" x1="78.8" y1="326.9" x2="69.9" y2="318.9"/>
	<polyline class="st1" points="78.8,318.8 70,318.8 78.9,310.5 	"/>
	<line class="st1" x1="69.9" y1="310.5" x2="78.8" y2="318.8"/>
	<rect x="69.7" y="310.5" class="st1" width="9.3" height="16.7"/>
	<line class="st1" x1="55.9" y1="326.9" x2="47" y2="318.9"/>
	<line class="st1" x1="47.1" y1="326.9" x2="56" y2="318.9"/>
	<polyline class="st1" points="47.1,318.8 55.9,318.8 47,310.5 	"/>
	<line class="st1" x1="56" y1="310.5" x2="47.1" y2="318.8"/>
	<rect x="46.9" y="310.5" class="st1" width="9.3" height="16.7"/>
	<polyline class="st1" points="53.8,190.6 55.2,188.4 55.2,181.5 	"/>
	<polyline class="st1" points="42.7,59.5 42.7,195 51.3,195 52.1,193.9 	"/>
	<polyline class="st1" points="51.5,53 51.5,61.4 42.7,61.4 	"/>
	<line class="st1" x1="84.9" y1="79.5" x2="84.9" y2="70.2"/>
	<line class="st1" x1="84.9" y1="99" x2="84.9" y2="86.1"/>
	<line class="st1" x1="84.9" y1="204.6" x2="84.9" y2="176.7"/>
	<polyline class="st1" points="8.8,282.9 97.4,282.9 97.4,300.8 	"/>
	<line class="st1" x1="97.4" y1="305.5" x2="97.4" y2="317.7"/>
	<line class="st1" x1="118.9" y1="282.9" x2="97.3" y2="282.9"/>
	<line class="st1" x1="30.4" y1="300.2" x2="30.4" y2="283"/>
	<polyline class="st1" points="97.2,310.6 69.7,310.6 69.7,329.3 56.2,329.3 56.2,310.5 30.4,310.5 	"/>
	<polyline class="st1" points="16.7,288.7 16.7,279.4 23.9,279.4 23.9,289.1 	"/>
	<rect x="16.7" y="285.9" class="st1" width="7.2" height="1.1"/>
	<rect x="16.7" y="284.9" class="st1" width="7.2" height="1.1"/>
	<rect x="16.7" y="283.7" class="st1" width="7.2" height="1.1"/>
	<polygon class="st1" points="17.9,282.7 23.9,282.7 23.9,283.7 16.7,283.7 	"/>
	<polygon class="st1" points="19.1,281.6 23.9,281.6 23.9,282.6 17.9,282.6 	"/>
	<rect x="20.5" y="280.5" class="st1" width="3.5" height="1.1"/>
	<polygon class="st1" points="16.7,279.4 23.8,279.4 23.8,280.5 16.7,283.8 	"/>
	<polygon class="st1" points="42.9,98.8 42.9,181.4 84.9,181.4 84.8,103.8 58.6,103.8 58.8,98.8 	"/>
	<polyline class="st1" points="42.8,200.8 42.8,214.5 67.4,214.5 67.4,223 83.5,223 83.5,282.7 	"/>
	<path class="st1" d="M53,27.7c2.7-0.2,4.5-2.5,11-2.5h-0.7c7,0,8.7,2.5,11.7,2.5c4.9,0,9.9,0,9.9,0V62"/>
	<path class="st1" d="M42.8,54.3V27.7c0,0,3.2,0,7,0"/>
	<polyline class="st1" points="83.7,301.7 83.7,300.1 77.7,300.1 77.7,282.7 	"/>
	<polyline class="st1" points="89.5,282.7 89.5,296.1 83.7,296.1 83.7,300.1 	"/>
	<line class="st1" x1="41.7" y1="310.2" x2="41.7" y2="308.1"/>
	<line class="st1" x1="83.4" y1="310.2" x2="83.4" y2="308.1"/>
	<line class="st1" x1="42.8" y1="282.5" x2="42.8" y2="209.5"/>
	<path class="st1" d="M45.9,193.1c-1.6-1.7-2.9-5.1-2.4-7.7c0.3-1.4,1.1-2.4,2.2-2.9c1.1-0.5,2.3-0.4,3.4,0.3
		c2.2,1.4,3.7,5.1,3.7,7.6h-3c0-1.6-1.1-4.4-2.3-5.1c-0.3-0.2-0.4-0.1-0.5-0.1s-0.4,0.2-0.5,0.8c-0.3,1.4,0.5,3.8,1.7,5.1
		L45.9,193.1z"/>
	<polyline class="st1" points="45.2,192.3 47.4,190.4 47.1,189.7 44.7,191.4 44.1,190.4 46.8,189.1 46.6,188.4 43.8,189.5 
		43.5,188.4 46.5,188 46.4,187.2 43.4,187.5 43.3,186.8 43.3,186.5 46.3,186.7 46.4,186 43.5,185.4 	"/>
	<polyline class="st1" points="52.6,189.4 49.7,189.5 49.4,188.7 52.4,188.3 52.2,187.3 49.3,188.1 49,187.4 51.8,186.4 51.3,185.4 
		48.8,187 48.3,186.4 50.7,184.6 50.3,184.1 50.1,183.8 48.1,185.9 47.5,185.5 49.3,183.1 	"/>
	<polyline class="st1" points="51.4,298.8 61.5,298.8 61.5,291.7 	"/>
	<polyline class="st1" points="79.6,310.5 68.6,310.5 68.6,309 68.7,309 83.4,309 	"/>
	<polyline class="st1" points="46.3,310.5 57.3,310.5 57.3,309 57.2,309 41.7,309.1 	"/>
	<rect x="30.3" y="361" class="st2" width="66.7" height="3.2"/>
	<rect x="30.3" y="358.8" class="st2" width="66.7" height="2.2"/>
	<line class="st1" x1="38.4" y1="360.8" x2="38.4" y2="364"/>
	<line class="st1" x1="88.3" y1="360.8" x2="88.3" y2="364"/>
	<polyline class="st1" points="35.8,277 35.9,282.8 35.9,296.2 30.3,296.2 	"/>
	<path class="st1" d="M41.7,283.1c0,0,0.1,19.5,0.2,19.5v-2.4h9.5v-8.5h10v-9"/>
	<rect x="75.5" y="189.2" class="st1" width="9.3" height="17"/>
	<polyline class="st1" points="84.8,189.3 75.9,197.4 84.8,197.5 75.7,189.3 	"/>
	<line class="st1" x1="61.5" y1="103.6" x2="61.5" y2="95.2"/>
	<polyline class="st1" points="73.8,52.7 73.8,94.8 42.7,94.8 	"/>
	<rect x="65.2" y="94.9" class="st1" width="0.9" height="9"/>
	<rect x="66.1" y="94.9" class="st1" width="0.9" height="9"/>
	<rect x="63.4" y="94.9" class="st1" width="0.9" height="9"/>
	<rect x="68" y="95.1" class="st1" width="0.9" height="8.8"/>
	<rect x="68.9" y="95.1" class="st1" width="0.9" height="8.8"/>
	<rect x="69.9" y="95.1" class="st1" width="0.9" height="8.8"/>
	<rect x="70.8" y="99.5" class="st1" width="0.9" height="4.4"/>
	<rect x="72.6" y="99.7" class="st1" width="0.9" height="4.2"/>
	<line class="st1" x1="70.9" y1="99.4" x2="72.5" y2="95.1"/>
	<path class="st1" d="M62.9,99.3c-0.1,0-0.2,0.1-0.2,0.2l0,0c0,0.1,0.1,0.2,0.2,0.2h8.2c0.1,0,0.2-0.1,0.2-0.2l0,0
		c0-0.1-0.1-0.2-0.2-0.2H62.9z"/>
	<path class="st1" d="M62.9,99.7h11.2c0.1,0,0.2-0.1,0.2-0.2l0,0c0-0.1-0.1-0.2-0.2-0.2H62.9"/>
	<path class="st1" d="M52.8,27.7H53c0-2.4-1.2-5.7-3.4-7.3c-1.1-0.8-2.4-1.1-3.6-0.7"/>
	<path class="st1" d="M46.9,22.5c0.1,0,0.4-0.1,0.9,0.2c1.1,0.8,2.2,3.6,2.1,5.3"/>
	<polyline class="st1" points="52.9,26.6 49.9,26.7 49.7,25.9 52.7,25.5 52.4,24.5 49.6,25.3 49.3,24.7 52.1,23.6 51.5,22.6 
		49,24.3 48.6,23.6 51,21.9 50.6,21.3 50.3,21 48.3,23.1 47.8,22.8 49.6,20.3 	"/>
	<line class="st1" x1="70" y1="326.9" x2="78.9" y2="318.9"/>
	<line class="st1" x1="78.8" y1="326.9" x2="69.9" y2="318.9"/>
	<polyline class="st1" points="78.8,318.8 70,318.8 78.9,310.5 	"/>
	<line class="st1" x1="69.9" y1="310.5" x2="78.8" y2="318.8"/>
	<rect x="69.7" y="310.5" class="st1" width="9.3" height="16.7"/>
	<line class="st1" x1="55.9" y1="326.9" x2="47" y2="318.9"/>
	<line class="st1" x1="47.1" y1="326.9" x2="56" y2="318.9"/>
	<polyline class="st1" points="47.1,318.8 55.9,318.8 47,310.5 	"/>
	<line class="st1" x1="56" y1="310.5" x2="47.1" y2="318.8"/>
	<rect x="46.9" y="310.5" class="st1" width="9.3" height="16.7"/>
	<polyline class="st1" points="40.2,606.3 29.2,606.3 29.2,575.7 17.8,575.7 17.8,531.7 53.9,531.7 	"/>
	<rect x="53.9" y="531.7" class="st1" width="18.3" height="14.2"/>
	<rect x="54" y="545" class="st1" width="7.6" height="1"/>
	<rect x="54" y="544.1" class="st1" width="7.6" height="1"/>
	<rect x="54" y="543.1" class="st1" width="7.6" height="1"/>
	<polygon class="st1" points="60.4,542.1 54,542.1 54,543.1 61.7,543.1 	"/>
	<polygon class="st1" points="59.1,541.1 54,541.1 54,542.1 60.4,542.1 	"/>
	<rect x="54" y="540.1" class="st1" width="3.6" height="1"/>
	<polyline class="st1" points="57.9,540.1 61.7,543.1 61.7,539.1 	"/>
	<path class="st1" d="M58,545.4c0,0.1-0.1,0.2-0.1,0.2l0,0c-0.1,0-0.1-0.1-0.1-0.2v-6.3c0-0.1,0.1-0.2,0.1-0.2l0,0
		c0.1,0,0.1,0.1,0.1,0.2V545.4z"/>
	<rect x="64.5" y="545" class="st1" width="7.6" height="1"/>
	<rect x="64.5" y="544.1" class="st1" width="7.6" height="1"/>
	<rect x="64.5" y="543.1" class="st1" width="7.6" height="1"/>
	<polygon class="st1" points="70.9,542.1 64.5,542.1 64.5,543.1 72.2,543.1 	"/>
	<polygon class="st1" points="69.6,541.1 64.5,541.1 64.5,542.1 70.9,542.1 	"/>
	<rect x="64.5" y="540.1" class="st1" width="3.6" height="1"/>
	<line class="st1" x1="68.4" y1="540.1" x2="72.2" y2="543.1"/>
	<path class="st1" d="M68.5,545.4c0,0.1-0.1,0.2-0.1,0.2l0,0c-0.1,0-0.1-0.1-0.1-0.2v-6.3c0-0.1,0.1-0.2,0.1-0.2l0,0
		c0.1,0,0.1,0.1,0.1,0.2V545.4z"/>
	<rect x="61.7" y="537.2" class="st1" width="2.8" height="8.4"/>
	<rect x="40.1" y="545.9" class="st1" width="32.5" height="6.2"/>
	<rect x="46.2" y="545.9" class="st1" width="1" height="6.3"/>
	<rect x="48.1" y="545.9" class="st1" width="1" height="6.3"/>
	<polyline class="st1" points="33.8,564.3 33.8,568.6 28.7,568.6 28.7,565.3 17.7,565.3 	"/>
	<polygon class="st1" points="96.2,610.9 101.9,610.9 101.9,612 96.2,612 	"/>
	<polygon class="st1" points="96.2,609.8 101.9,609.8 101.9,610.9 96.2,610.9 	"/>
	<polygon class="st1" points="96.2,608.6 101.9,608.7 101.9,609.8 96.2,609.8 	"/>
	<line class="st1" x1="101.9" y1="608.7" x2="96.2" y2="608.7"/>
	<polygon class="st1" points="96.2,607.4 101.9,607.5 101.9,608.6 96.2,608.6 	"/>
	<polygon class="st1" points="96.2,606.3 101.9,606.4 101.9,607.5 96.2,607.5 	"/>
	<polygon class="st1" points="96.2,605.2 101.9,602.3 101.9,606.3 96.2,606.3 	"/>
	<line class="st1" x1="101.9" y1="605.2" x2="96.2" y2="605.2"/>
	<line class="st1" x1="101.9" y1="604.1" x2="98.5" y2="604.1"/>
	<line class="st1" x1="101.8" y1="603.1" x2="100.3" y2="603.1"/>
	<polygon class="st1" points="17.4,610.9 11.7,610.9 11.7,612 17.4,612 	"/>
	<polygon class="st1" points="17.4,609.8 11.7,609.8 11.7,610.9 17.4,610.9 	"/>
	<polygon class="st1" points="17.4,608.6 11.7,608.7 11.7,609.8 17.4,609.8 	"/>
	<line class="st1" x1="11.7" y1="608.7" x2="17.4" y2="608.7"/>
	<polygon class="st1" points="17.4,607.4 11.7,607.5 11.7,608.6 17.4,608.6 	"/>
	<polygon class="st1" points="17.4,606.3 11.7,606.4 11.7,607.5 17.4,607.5 	"/>
	<polygon class="st1" points="17.4,605.2 11.7,602.3 11.7,606.3 17.4,606.3 	"/>
	<line class="st1" x1="11.7" y1="605.2" x2="17.4" y2="605.2"/>
	<line class="st1" x1="11.7" y1="604.1" x2="15" y2="604.1"/>
	<line class="st1" x1="11.7" y1="603.1" x2="13.2" y2="603.1"/>
	<polygon class="st1" points="34.3,567.2 39.4,567.2 39.4,568.2 34.3,568.2 	"/>
	<polygon class="st1" points="34.3,566.2 39.4,566.2 39.4,567.2 34.3,567.2 	"/>
	<polygon class="st1" points="34.3,565.2 39.4,565.2 39.4,566.2 34.3,566.2 	"/>
	<line class="st1" x1="39.4" y1="565.2" x2="34.3" y2="565.2"/>
	<polygon class="st1" points="34.3,564.1 39.4,564.1 39.4,565.1 34.3,565.1 	"/>
	<polygon class="st1" points="34.3,563.1 39.4,563.1 39.4,564.1 34.3,564.1 	"/>
	<polygon class="st1" points="34.3,562.1 39.4,559.5 39.4,563.1 34.3,563.1 	"/>
	<line class="st1" x1="39.4" y1="562.1" x2="34.3" y2="562.1"/>
	<line class="st1" x1="39.4" y1="561.1" x2="36.4" y2="561.1"/>
	<line class="st1" x1="39.4" y1="560.2" x2="38" y2="560.2"/>
	<polygon class="st1" points="13.6,618.8 14.4,624.5 13.3,624.7 12.5,619 	"/>
	<polygon class="st1" points="14.7,618.7 15.5,624.3 14.4,624.5 13.6,618.8 	"/>
	<polygon class="st1" points="15.8,618.5 16.7,624.2 15.6,624.3 14.7,618.7 	"/>
	<line class="st1" x1="16.7" y1="624.2" x2="15.8" y2="618.5"/>
	<polygon class="st1" points="17,618.3 17.9,624 16.8,624.1 15.9,618.5 	"/>
	<polygon class="st1" points="18.1,618.1 18.9,623.8 17.8,624 17,618.3 	"/>
	<polygon class="st1" points="19.3,618 22.9,623.2 19,623.8 18.1,618.1 	"/>
	<line class="st1" x1="20.1" y1="623.6" x2="19.2" y2="618"/>
	<line class="st1" x1="21.2" y1="623.5" x2="20.7" y2="620.1"/>
	<line class="st1" x1="22.1" y1="623.3" x2="21.9" y2="621.8"/>
	<polygon class="st1" points="24.8,580.1 24.8,576.3 25.8,576.3 25.8,580.1 	"/>
	<polygon class="st1" points="23.9,580.1 23.9,576.3 24.9,576.3 24.8,580.1 	"/>
	<polygon class="st1" points="23,580.1 23,576.3 23.9,576.3 23.9,580.1 	"/>
	<line class="st1" x1="23" y1="576.3" x2="23" y2="580.1"/>
	<polygon class="st1" points="22,580.1 22,576.3 22.9,576.3 22.9,580.1 	"/>
	<polygon class="st1" points="21.1,580.1 21.1,576.3 22,576.3 22,580.1 	"/>
	<polygon class="st1" points="20.1,580.1 17.7,576.3 21,576.3 21,580.1 	"/>
	<line class="st1" x1="20.1" y1="576.3" x2="20.1" y2="580.1"/>
	<line class="st1" x1="19.2" y1="576.3" x2="19.2" y2="578.5"/>
	<line class="st1" x1="18.4" y1="576.3" x2="18.4" y2="577.3"/>
	<polygon class="st1" points="5.1,766.4 1.3,766.4 1.3,765.5 5.1,765.5 	"/>
	<polygon class="st1" points="5.1,767.3 1.3,767.3 1.3,766.4 5.1,766.4 	"/>
	<polygon class="st1" points="5.1,768.3 1.3,768.3 1.3,767.4 5.1,767.4 	"/>
	<line class="st1" x1="1.3" y1="768.3" x2="5.1" y2="768.3"/>
	<polygon class="st1" points="5.1,769.3 1.3,769.3 1.3,768.4 5.1,768.4 	"/>
	<polygon class="st1" points="5.1,770.2 1.3,770.2 1.3,769.3 5.1,769.3 	"/>
	<polygon class="st1" points="5.1,771.2 1.3,773.5 1.3,770.2 5.1,770.2 	"/>
	<line class="st1" x1="1.3" y1="771.1" x2="5.1" y2="771.2"/>
	<line class="st1" x1="1.3" y1="772.1" x2="3.5" y2="772.1"/>
	<line class="st1" x1="1.3" y1="772.9" x2="2.3" y2="772.9"/>
	<polygon class="st1" points="105.9,782.9 109.7,782.9 109.7,783.8 105.9,783.8 	"/>
	<polygon class="st1" points="105.9,781.9 109.7,782 109.7,782.9 105.9,782.9 	"/>
	<polygon class="st1" points="105.9,781 109.7,781 109.7,781.9 105.9,781.9 	"/>
	<line class="st1" x1="109.7" y1="781" x2="105.9" y2="781"/>
	<polygon class="st1" points="105.9,780 109.7,780 109.7,780.9 105.9,780.9 	"/>
	<polygon class="st1" points="105.9,779.1 109.6,779.1 109.7,780 105.9,780 	"/>
	<polygon class="st1" points="105.8,778.1 109.6,775.8 109.6,779.1 105.9,779 	"/>
	<line class="st1" x1="109.6" y1="778.1" x2="105.8" y2="778.1"/>
	<line class="st1" x1="109.6" y1="777.2" x2="107.4" y2="777.2"/>
	<line class="st1" x1="109.6" y1="776.4" x2="108.6" y2="776.4"/>
	<polygon class="st1" points="90.3,669.6 90.4,664.1 91.6,664.1 91.6,669.6 	"/>
	<polygon class="st1" points="89.1,669.6 89.2,664.1 90.4,664.1 90.4,669.6 	"/>
	<polygon class="st1" points="87.9,669.6 87.9,664.1 89.1,664.1 89.1,669.6 	"/>
	<line class="st1" x1="87.9" y1="664.1" x2="87.9" y2="669.6"/>
	<polygon class="st1" points="86.6,669.7 86.6,664.1 87.8,664.1 87.8,669.6 	"/>
	<polygon class="st1" points="85.4,669.7 85.4,664.1 86.6,664.1 86.6,669.7 	"/>
	<polygon class="st1" points="84.1,669.7 81,664.1 85.4,664.1 85.3,669.7 	"/>
	<line class="st1" x1="84.2" y1="664.1" x2="84.1" y2="669.7"/>
	<line class="st1" x1="82.9" y1="664.1" x2="82.9" y2="667.4"/>
	<line class="st1" x1="81.9" y1="664.2" x2="81.9" y2="665.6"/>
	<path class="st1" d="M7.8,700.6c0,0,0.1-49.2,0.1-55.3c0-12.2,3.8-22.2,21.7-22.2c13.6,0,52.6,0,62.7,0c18.9,0,25,6.6,25,21.8
		s0,55.7,0,55.7l-15.4-2c0,0,0-24.6,0-32.2c0-11.7-2.3-12.7-13.5-12.7c-8.4,0-27.5-0.1-27.5-0.1l-16.1,7.3h-7.4l-4.8,4.6
		c0,0,0,22.3-0.1,22.4h-9.4"/>
	<path class="st1" d="M99.3,631.5h-73c-0.6,0-1-0.4-1-1s0.4-1,1-1h73c0.6,0,1,0.4,1,1S99.8,631.5,99.3,631.5z"/>
	<path class="st1" d="M62.8,638.9H27.6c-4.3,0-7.2,1.2-8.9,1.5c-0.6,0-2.2,0.2-2.2-1.8c0-0.6,0.7-1.2,1.2-1.2h45.1"/>
	<path class="st1" d="M62.8,638.9H98c4.3,0,7.2,1.2,9,1.5c0.6,0,2.2,0.2,2.2-1.8c0-0.6-0.7-1.2-1.2-1.2H62.8"/>
	<rect x="7.9" y="688" class="st1" width="15.3" height="33.8"/>
	<rect x="101.9" y="688" class="st1" width="15.2" height="33.8"/>
	<path class="st1" d="M114.4,793.5c0,0,0,19.2,0,27s-3.4,12.9-11.9,9.2c-8.7-3.8-13.7-5.8-23.2-6.4c-10.2-0.7-8.9-2.1-8.9-13.2
		c0-7.8,0.2-16.2,0.2-16.2"/>
	<path class="st1" d="M113.5,794.2c0,0,0,18.2,0,25.6s-2.7,12.7-11.4,8.7c-8.3-3.8-13.1-5.5-22.3-6.1c-9.8-0.6-8.6-2-8.6-12.5
		c0-7.3,0.2-15.4,0.2-15.4"/>
	<line class="st1" x1="60.6" y1="653.9" x2="43.2" y2="653.9"/>
	<path class="st1" d="M22.6,687.9v-24.8c0-7.2,2.7-10.2,9.1-10.2h10.7c0.6,0,1,0.4,1,1s-0.4,1-1,1H31.7c-4.5,0-7.1,1.3-7.1,8.2v24.8
		H22.6z"/>
	<polyline class="st1" points="93.5,663.1 75.8,663.1 75.8,671 93.3,671 	"/>
	<polyline class="st1" points="28,622.9 28,620 19,618 12.5,619 	"/>
	<polygon class="st1" points="112.7,619.3 111.8,624.9 112.9,625.1 113.8,619.4 	"/>
	<polygon class="st1" points="111.6,619.1 110.7,624.7 111.8,624.9 112.7,619.3 	"/>
	<polygon class="st1" points="110.4,618.9 109.6,624.6 110.7,624.7 111.5,619.1 	"/>
	<line class="st1" x1="109.6" y1="624.6" x2="110.4" y2="618.9"/>
	<polygon class="st1" points="109.2,618.7 108.4,624.4 109.5,624.6 110.3,618.9 	"/>
	<polygon class="st1" points="108.1,618.6 107.3,624.2 108.4,624.4 109.2,618.7 	"/>
	<polygon class="st1" points="107,618.4 103.3,623.6 107.3,624.2 108.1,618.6 	"/>
	<line class="st1" x1="106.2" y1="624" x2="107" y2="618.4"/>
	<line class="st1" x1="105.1" y1="623.9" x2="105.6" y2="620.6"/>
	<line class="st1" x1="104.1" y1="623.7" x2="104.3" y2="622.2"/>
	<polyline class="st1" points="98.2,623.3 98.2,620.4 107.2,618.4 113.8,619.4 	"/>
	<circle class="st1" cx="117.9" cy="604" r="1.7"/>
	<circle class="st1" cx="117.9" cy="604" r="6.5"/>
	<path class="st1" d="M114.3,609.4l2.6-4.1l0.5,0.3l-1.5,4.6l1.9,0.2v-4.8c0,0,0.6,0,1.4-0.8c0.5,0.2,4.3,2.1,4.3,2.1l0.6-1.5
		l-4.8-1l0.1-0.5h4.8l-0.2-1.5l-4.6,1.2l-0.1-0.5l4.2-2.1l-0.9-1.2l-3.5,2.9l-0.4-0.2l2.9-3.7l-1.3-0.8l-2,4.2l-0.3-0.1l0.7-4.6
		l-1.7,0.1l0.5,4.6l-0.3,0.1l-1.6-4.4l-1.4,0.7l2.6,3.8l-0.4,0.3l-3.5-3.2"/>
	<polyline class="st1" points="102.2,772.6 110.1,772.6 110.1,784.3 	"/>
	<line class="st1" x1="101.9" y1="783.3" x2="105.2" y2="783.3"/>
	<line class="st1" x1="73.8" y1="59.5" x2="51.8" y2="59.5"/>
	<rect x="63" y="286.7" class="st1" width="6.3" height="1"/>
	<rect x="63" y="288.6" class="st1" width="12.7" height="1"/>
	<rect x="69.4" y="286.7" class="st1" width="6.3" height="1"/>
	<rect x="63" y="285.2" class="st1" width="12.7" height="12.2"/>
	<rect x="63" y="290.5" class="st1" width="12.7" height="1"/>
	<rect x="63" y="291.5" class="st1" width="12.7" height="1"/>
	<rect x="63" y="292.5" class="st1" width="12.7" height="1"/>
	<polygon class="st1" points="65.1,294.4 75.8,294.4 75.8,293.5 63,293.5 	"/>
	<polygon class="st1" points="67.2,295.4 75.8,295.4 75.8,294.5 65.1,294.5 	"/>
	<rect x="69.7" y="295.4" class="st1" width="6.1" height="1"/>
	<polygon class="st1" points="63,297.4 69.2,297.4 69.2,296.4 63,293.4 	"/>
	<path class="st1" d="M69.2,286.1c0-0.1,0.1-0.2,0.2-0.2l0,0c0.1,0,0.2,0.1,0.2,0.2v11.3c0,0.1-0.1,0.2-0.2,0.2l0,0
		c-0.1,0-0.2-0.1-0.2-0.2V286.1z"/>
	<line class="st1" x1="104.9" y1="276.5" x2="112.1" y2="298.8"/>
	<line class="st1" x1="104.9" y1="276.5" x2="112.1" y2="298.8"/>
	<polyline class="st1" points="30.4,305.7 30.4,309.6 30.4,317.7 	"/>
	<rect x="40.2" y="545.9" class="st1" width="1" height="6.3"/>
	<rect x="42.1" y="545.9" class="st1" width="1" height="6.3"/>
	<rect x="44.1" y="545.9" class="st1" width="1" height="6.3"/>
	<path class="st3" d="M108.1,602c0,0-0.7,0.9-1.5,0.1c-0.8-0.8,0.1-1.4,0.1-1.4c2.7-2.3,6.2-5.5,9.5-8.5l1.1,1.7
		C114,596.8,110.8,599.6,108.1,602z"/>
	<path class="st3" d="M118.8,592.4l-1.2-1.8c5.3-5.2,10.4-11.3,14.6-17.6l1.5,1.4C129.4,580.8,124.2,587.1,118.8,592.4z"/>
	<path class="st3" d="M133.1,602.9c-2.9,0-6.3-1-10-3.5c-8.8-5.9-11.6-16-12.5-29c0-0.4-0.5-0.9-0.5-1.3c-0.4-6.1-0.3-12.9-0.3-20.1
		c0-3.1,0-6,0-9.3c0-0.6,0.6-1.3,1.4-1.3l0,0c1.1,0,1.3,0.8,1.3,1.3c0,3.3,0,6.5,0,9.6c-0.1,7.2-0.1,13.9,0.3,20
		c0,0.4-0.3,0.5-0.3,0.9c0.8,12.4,3.5,22.1,11.6,27.5c6.5,4.4,12.6,4.3,16.3-0.3c3.6-4.3,4.2-12.2-1-17.4c-2.5-2.5-4.9-4.7-7-6.7
		c-7.2-6.6-12.4-11.4-16.9-23.3c-3.5-9.1,0.4-15.7,4.8-18.6c4.5-3,11.6-3.6,17.3,1.9c9.6,9.1,4.8,27.1-2.7,39.5
		c-0.5-0.4-1-0.9-1.6-1.4c6.8-11.4,11.7-28.3,2.9-36.7c-4.9-4.7-11-4.2-14.8-1.6c-3.8,2.5-7.1,8.3-4.1,16.2
		c4.3,11.4,9.4,16,16.4,22.5c2.1,1.9,4.5,4.1,7.1,6.7c6,6,5.3,15.1,1.1,20.1C140.1,601.1,137,602.9,133.1,602.9z"/>
	<path class="st3" d="M28.6,565h-7c0-2.2,0-4.9,0-8c0-13.5-0.1-32,0.5-37.4c0.9-7.1,3.7-17,6-23.1c2-5.3,1.5-11.3-1.2-14.6
		c-2-2.4-5.1-3.2-9.2-2.4l-1.3-6.9c6.6-1.3,12.2,0.4,15.9,4.8c4.4,5.3,5.4,13.7,2.4,21.6c-2.2,5.9-4.9,15.2-5.6,21.4
		c-0.6,4.9-0.5,23.9-0.5,36.5C28.6,560,28.6,562.7,28.6,565z"/>
	<path class="st3" d="M29.1,520.4L29.1,520.4c-4.9-8-9.4-13.6-13.5-18.5c-1.7-2.1-3.3-4-4.7-5.9c-1.8-2.4-3-7-1.6-10.5
		c1.2-3.1,4.1-5.1,8.6-5.9l-1.3-6.9c-8.8,1.7-12.3,6.5-13.8,10.3c-2.4,6.3-0.4,13.3,2.5,17.2c1.5,2,3.1,4,4.9,6.2
		c3.9,4.8,8.4,10.2,13,17.9l0,0c3.8,6.4,1.4,11.8-1.8,14.5c-3.5,3-9.3,3.9-14.6-0.5l-4.5,5.3c3.7,3.1,8,4.7,12.3,4.7
		c4,0,8-1.4,11.3-4.2C31.7,539.2,34.9,530,29.1,520.4z"/>
	<path class="st4" d="M13.9,473.6c0,0,2.4-0.9,4.3-1s1.2,6.4,1.2,6.4s-1.6,0-3.4,0.6C14.2,480.3,13.9,473.6,13.9,473.6z"/>
	<path class="st5" d="M5.4,311.4v-1c0.3,0.2,0.6,0.3,0.9,0.3s0.5-0.1,0.5-0.5l0,0c0-0.3-0.1-0.4-0.5-1c-0.7-0.8-0.9-1.1-0.9-1.8l0,0
		c0-0.9,0.6-1.5,1.4-1.5c0.4,0,0.6,0.1,0.9,0.2v1c-0.3-0.2-0.5-0.3-0.7-0.3c-0.3,0-0.5,0.2-0.5,0.5l0,0c0,0.3,0.1,0.4,0.5,0.9
		c0.8,0.9,0.9,1.2,0.9,1.9l0,0c0,0.9-0.6,1.5-1.4,1.5C6,311.6,5.6,311.5,5.4,311.4z M8.1,309.9v-4h1v4.1c0,0.5,0.2,0.7,0.4,0.7
		s0.4-0.2,0.4-0.7v-4h1v4c0,1.2-0.6,1.7-1.4,1.7C8.7,311.6,8.1,311.1,8.1,309.9z M11.4,306h0.9l1,2.8V306h1v5.6h-0.9l-1-3v3h-1V306z
		 M16.1,306H17c1.2,0,2,0.9,2,2.7v0.2c0,1.8-0.7,2.7-2,2.7h-0.9V306z M17.1,310.7c0.5,0,0.9-0.4,0.9-1.8v-0.2c0-1.4-0.4-1.8-0.9-1.8
		l0,0V310.7L17.1,310.7z M19.5,306h2.1v0.9h-1.2v1.4h1v0.9h-1v1.4h1.2v0.9h-2.2V306H19.5z M21.9,308.9v-0.2c0-2,0.7-2.7,1.6-2.7
		c0.3,0,0.4,0,0.6,0.1v1c-0.2-0.1-0.4-0.2-0.5-0.2c-0.4,0-0.7,0.4-0.7,1.8v0.2c0,1.5,0.3,1.8,0.8,1.8c0.2,0,0.3-0.1,0.5-0.2v1
		c-0.2,0.1-0.4,0.2-0.7,0.2C22.6,311.6,21.9,310.8,21.9,308.9z M24.7,306h1v2.3l0.8-2.3h1.1l-0.9,2.4l1,3.2h-1.1l-0.6-2.1l-0.2,0.6
		v1.5h-1L24.7,306L24.7,306z"/>
	<path class="st5" d="M88.2,253.6h-0.7v-0.9h2.4v0.9h-0.7v4.7h-1L88.2,253.6L88.2,253.6z M90.3,252.6h1v2.3h0.8v-2.3h1v5.6h-1v-2.4
		h-0.8v2.4h-1V252.6z M93.7,252.6h2.1v0.9h-1.2v1.4h1v0.9h-1v1.4h1.2v0.9h-2.2L93.7,252.6L93.7,252.6z M97.6,252.6h1v2.3h0.8v-2.3h1
		v5.6h-1v-2.4h-0.8v2.4h-1V252.6z M101.7,252.6h1l1.1,5.6h-1l-0.2-1.1h-0.9l-0.2,1.1h-0.9L101.7,252.6z M102.5,256.2l-0.3-1.8
		l-0.3,1.8H102.5z M103.8,252.6h1l0.5,3.6l0.5-3.6h1l-1,5.6h-1L103.8,252.6z M107.1,252.6h2.1v0.9H108v1.4h1v0.9h-1v1.4h1.2v0.9H107
		L107.1,252.6L107.1,252.6z M109.7,252.6h0.9l1,2.8v-2.8h1v5.6h-0.9l-1-3v3h-1V252.6z M89.7,263.6v-0.3c0-1.8,0.6-2.7,1.5-2.7
		s1.5,0.9,1.5,2.7v0.3c0,1.8-0.6,2.7-1.5,2.7S89.7,265.4,89.7,263.6z M91.7,263.6v-0.3c0-1.4-0.2-1.8-0.5-1.8s-0.5,0.4-0.5,1.8v0.3
		c0,1.4,0.2,1.8,0.5,1.8S91.7,265,91.7,263.6z M93.1,264.6v-4h1v4.1c0,0.5,0.2,0.7,0.4,0.7c0.2,0,0.4-0.2,0.4-0.7v-4.1h1v4
		c0,1.2-0.6,1.7-1.4,1.7C93.7,266.3,93.1,265.8,93.1,264.6z M97,261.6h-0.7v-0.9h2.4v0.9H98v4.7h-1V261.6L97,261.6z M99.1,260.6h0.9
		c1.2,0,2,0.9,2,2.7v0.2c0,1.8-0.7,2.7-2,2.7h-0.9V260.6z M100.1,265.3c0.5,0,0.9-0.4,0.9-1.8v-0.2c0-1.4-0.4-1.8-0.9-1.8l0,0V265.3
		L100.1,265.3z M102.3,263.6v-0.3c0-1.8,0.6-2.7,1.5-2.7s1.5,0.9,1.5,2.7v0.3c0,1.8-0.6,2.7-1.5,2.7S102.3,265.4,102.3,263.6z
		 M104.3,263.6v-0.3c0-1.4-0.2-1.8-0.5-1.8s-0.5,0.4-0.5,1.8v0.3c0,1.4,0.2,1.8,0.5,1.8S104.3,265,104.3,263.6z M105.7,263.6v-0.3
		c0-1.8,0.6-2.7,1.5-2.7s1.5,0.9,1.5,2.7v0.3c0,1.8-0.6,2.7-1.5,2.7C106.3,266.3,105.7,265.4,105.7,263.6z M107.7,263.6v-0.3
		c0-1.4-0.2-1.8-0.5-1.8s-0.5,0.4-0.5,1.8v0.3c0,1.4,0.2,1.8,0.5,1.8S107.7,265,107.7,263.6z M109.1,260.6h1c1,0,1.7,0.5,1.7,1.8
		v0.1c0,0.7-0.3,1.2-0.7,1.5l0.8,2.3h-1l-0.6-2h-0.2v2h-1C109.1,266.2,109.1,260.6,109.1,260.6z M110.2,263.4c0.4,0,0.7-0.2,0.7-0.9
		v-0.1c0-0.7-0.3-0.9-0.8-0.9l0,0L110.2,263.4L110.2,263.4z M86.3,268.6h1c1,0,1.7,0.5,1.7,1.8v0.1c0,0.7-0.3,1.2-0.7,1.5l0.8,2.3
		h-1l-0.6-2h-0.2v2h-1C86.3,274.2,86.3,268.6,86.3,268.6z M87.3,271.4c0.4,0,0.7-0.2,0.7-0.9v-0.1c0-0.7-0.3-0.9-0.8-0.9l0,0
		L87.3,271.4L87.3,271.4z M89.5,268.6h2.1v0.9h-1.2v1.4h1v0.9h-1v1.4h1.2v0.9h-2.2L89.5,268.6L89.5,268.6z M92,274v-1
		c0.3,0.2,0.6,0.3,0.9,0.3s0.5-0.1,0.5-0.5l0,0c0-0.3-0.1-0.4-0.5-1c-0.7-0.8-0.9-1.1-0.9-1.8l0,0c0-0.9,0.6-1.5,1.4-1.5
		c0.4,0,0.6,0.1,0.9,0.2v1c-0.3-0.2-0.5-0.3-0.7-0.3c-0.3,0-0.5,0.2-0.5,0.5l0,0c0,0.3,0.1,0.4,0.5,0.9c0.8,0.9,0.9,1.2,0.9,1.9l0,0
		c0,0.9-0.6,1.5-1.4,1.5C92.6,274.3,92.3,274.2,92,274z M95.1,269.6h-0.7v-0.9h2.4v0.9h-0.7v4.7h-1L95.1,269.6L95.1,269.6z
		 M97.7,268.6h1l1.1,5.6h-1l-0.2-1.1h-0.9l-0.2,1.1h-0.9L97.7,268.6z M98.5,272.2l-0.3-1.8l-0.3,1.8H98.5z M100.1,272.6v-4h1v4.1
		c0,0.5,0.2,0.7,0.4,0.7s0.4-0.2,0.4-0.7v-4.1h1v4c0,1.2-0.6,1.7-1.4,1.7S100.1,273.8,100.1,272.6z M103.4,268.6h1
		c1,0,1.7,0.5,1.7,1.8v0.1c0,0.7-0.3,1.2-0.7,1.5l0.8,2.3h-1l-0.6-2h-0.2v2h-1C103.4,274.3,103.4,268.6,103.4,268.6z M104.4,271.4
		c0.4,0,0.7-0.2,0.7-0.9v-0.1c0-0.7-0.3-0.9-0.8-0.9l0,0L104.4,271.4L104.4,271.4z M107.4,268.6h1l1.1,5.6h-1l-0.2-1.1h-0.9
		l-0.2,1.1h-0.9L107.4,268.6z M108.2,272.2l-0.3-1.8l-0.3,1.8H108.2z M109.8,268.6h0.9l1,2.8v-2.8h1v5.6h-0.9l-1-3v3h-1V268.6z
		 M113.7,269.6H113v-0.9h2.4v0.9h-0.7v4.7h-1L113.7,269.6L113.7,269.6z"/>
	<path class="st5" d="M48.5,198.8h-0.7v-0.9h2.4v0.9h-0.7v4.7h-1V198.8z M50.5,197.9h1v2.3h0.8v-2.3h1v5.6h-1v-2.4h-0.8v2.4h-1
		V197.9z M53.9,197.9H56v0.9h-1.2v1.4h1v0.9h-1v1.4H56v0.9h-2.2C53.9,203.5,53.9,197.9,53.9,197.9z M57.8,197.9h1v2.3h0.8v-2.3h1
		v5.6h-1v-2.4h-0.8v2.4h-1V197.9z M62,197.9h1l1.1,5.6h-1l-0.2-1.1H62l-0.2,1.1h-0.9L62,197.9z M62.8,201.5l-0.3-1.8l-0.3,1.8H62.8z
		 M64,197.9h1l0.5,3.6l0.5-3.6h1l-1,5.6h-1L64,197.9z M67.3,197.9h2.1v0.9h-1.2v1.4h1v0.9h-1v1.4h1.2v0.9h-2.2L67.3,197.9
		L67.3,197.9z M70,197.9h0.9l1,2.8v-2.8h1v5.6H72l-1-3v3h-1V197.9z M51.6,205.9h1v4.7h1v0.9h-2V205.9z M53.7,208.9v-0.3
		c0-1.8,0.6-2.7,1.5-2.7s1.5,0.9,1.5,2.7v0.3c0,1.8-0.6,2.7-1.5,2.7S53.7,210.7,53.7,208.9z M55.7,208.9v-0.3c0-1.4-0.2-1.8-0.5-1.8
		s-0.5,0.4-0.5,1.8v0.3c0,1.4,0.2,1.8,0.5,1.8S55.7,210.3,55.7,208.9z M57.1,209.9v-4h1v4.1c0,0.5,0.2,0.7,0.4,0.7s0.4-0.2,0.4-0.7
		v-4.1h1v4c0,1.2-0.6,1.7-1.4,1.7C57.7,211.6,57.1,211.1,57.1,209.9z M60.5,205.9h0.9l1,2.8v-2.8h1v5.6h-0.9l-1-3v3h-1V205.9z
		 M63.8,208.8v-0.2c0-1.8,0.8-2.7,1.9-2.7c0.3,0,0.5,0.1,0.7,0.2v1c-0.2-0.1-0.5-0.2-0.7-0.2c-0.6,0-0.9,0.6-0.9,1.8v0.3
		c0,1.5,0.4,1.8,0.8,1.8c0,0,0,0,0.1,0v-1.4h-0.5v-0.9h1.4v3c-0.4,0.2-0.6,0.2-1,0.2C64.6,211.6,63.8,210.8,63.8,208.8z M67.1,205.9
		h2.1v0.9H68v1.4h1v0.9h-1v1.4h1.2v0.9H67L67.1,205.9L67.1,205.9z"/>
	<path class="st5" d="M55,7.3V7c0-1.8,0.6-2.7,1.5-2.7S58,5.2,58,7v0.3c0,1.8-0.6,2.7-1.5,2.7C55.6,10.1,55,9.2,55,7.3z M57,7.3V7
		c0-1.4-0.2-1.8-0.5-1.8S56,5.6,56,7v0.3c0,1.4,0.2,1.8,0.5,1.8S57,8.8,57,7.3z M58.5,4.4h0.9c1.1,0,1.8,0.6,1.8,1.9l0,0
		c0,1.3-0.7,1.9-1.7,1.9l0,0V10h-1V4.4L58.5,4.4z M59.4,7.3c0.4,0,0.7-0.3,0.7-1l0,0c0-0.7-0.3-1-0.7-1l0,0V7.3L59.4,7.3z M61.5,4.4
		h2.1v0.9h-1.2v1.4h1v0.9h-1V9h1.2v1h-2.2C61.5,10,61.5,4.4,61.5,4.4z M64.2,4.4h0.9l1,2.8V4.4h1V10h-0.9l-1-3v3h-1V4.4L64.2,4.4z
		 M69.4,5.3h-0.7V4.4h2.4v0.9h-0.7V10h-1C69.4,10,69.4,5.3,69.4,5.3z M71.2,7.3V7c0-1.8,0.6-2.7,1.5-2.7s1.5,0.9,1.5,2.7v0.3
		c0,1.8-0.6,2.7-1.5,2.7C71.8,10.1,71.2,9.2,71.2,7.3z M73.2,7.3V7c0-1.4-0.2-1.8-0.5-1.8S72.2,5.6,72.2,7v0.3
		c0,1.4,0.2,1.8,0.5,1.8C73,9.2,73.2,8.8,73.2,7.3z M50.3,12.4h0.9c1.2,0,2,0.9,2,2.7v0.2c0,1.8-0.7,2.7-2,2.7h-0.9V12.4z
		 M51.3,17.1c0.5,0,0.9-0.4,0.9-1.8v-0.2c0-1.4-0.4-1.8-0.9-1.8l0,0V17.1L51.3,17.1z M53.7,12.4h2.1v0.9h-1.2v1.4h1v0.9h-1V17h1.2v1
		h-2.2C53.7,18,53.7,12.4,53.7,12.4z M56.1,15.3v-0.2c0-2,0.7-2.7,1.6-2.7c0.3,0,0.4,0,0.6,0.1v1c-0.2-0.1-0.4-0.2-0.5-0.2
		c-0.4,0-0.7,0.4-0.7,1.8v0.2c0,1.5,0.3,1.8,0.8,1.8c0.2,0,0.3-0.1,0.5-0.2v1C58.2,18,58,18,57.7,18C56.8,18,56.1,17.2,56.1,15.3z
		 M58.9,12.4h1v2.3l0.8-2.3h1.1l-0.9,2.4l1,3.2h-1.1l-0.6-2.1L60,16.5V18h-1L58.9,12.4L58.9,12.4z M63.4,12.4h0.8
		c0.9,0,1.8,0.4,1.8,1.4l0,0c0,0.7-0.4,1.1-0.8,1.3c0.5,0.2,0.9,0.5,0.9,1.2v0.1c0,1-0.8,1.6-1.9,1.6h-0.9
		C63.4,18,63.4,12.4,63.4,12.4z M64.4,14.7c0.4,0,0.7-0.2,0.7-0.7l0,0c0-0.5-0.3-0.7-0.7-0.7l0,0V14.7L64.4,14.7L64.4,14.7z
		 M64.4,17.1c0.4,0,0.8-0.3,0.8-0.7l0,0c0-0.5-0.3-0.7-0.8-0.7l0,0V17.1L64.4,17.1z M66.6,12.4h2.1v0.9h-1.2v1.4h1v0.9h-1V17h1.2v1
		h-2.2L66.6,12.4L66.6,12.4z M69.2,12.4h1V17h1v1h-2V12.4z M71.3,15.3V15c0-1.8,0.6-2.7,1.5-2.7s1.5,0.9,1.5,2.7v0.3
		c0,1.8-0.6,2.7-1.5,2.7S71.3,17.2,71.3,15.3z M73.3,15.3V15c0-1.4-0.2-1.8-0.5-1.8s-0.5,0.4-0.5,1.8v0.3c0,1.4,0.2,1.8,0.5,1.8
		S73.3,16.8,73.3,15.3z M74.4,12.4h1l0.4,3.4l0.5-3.4h0.9l0.5,3.4l0.4-3.4h1L78.2,18h-1l-0.5-3.3L76.3,18h-1L74.4,12.4z"/>
	<path class="st5" d="M53.7,292.9h1c1,0,1.7,0.5,1.7,1.8v0.1c0,0.7-0.3,1.2-0.7,1.5l0.8,2.3h-1l-0.6-2h-0.2v2h-1V292.9L53.7,292.9z
		 M54.7,295.6c0.4,0,0.7-0.2,0.7-0.9v-0.1c0-0.7-0.3-0.9-0.8-0.9l0,0L54.7,295.6L54.7,295.6z M56.9,292.9h1c1,0,1.7,0.5,1.7,1.8v0.1
		c0,0.7-0.3,1.2-0.7,1.5l0.8,2.3h-1l-0.6-2h-0.2v2h-1V292.9z M57.9,295.6c0.4,0,0.7-0.2,0.7-0.9v-0.1c0-0.7-0.3-0.9-0.8-0.9l0,0
		L57.9,295.6L57.9,295.6z"/>
	<path class="st5" d="M89.2,208.2h-0.7v-0.9h2.4v0.9h-0.7v4.7h-1L89.2,208.2L89.2,208.2z M91.2,207.3h1v2.3H93v-2.3h1v5.6h-1v-2.4
		h-0.8v2.4h-1V207.3z M94.6,207.3h2.1v0.9h-1.2v1.4h1v0.9h-1v1.4h1.2v0.9h-2.2L94.6,207.3L94.6,207.3z M98.5,207.3h1v2.3h0.8v-2.3h1
		v5.6h-1v-2.4h-0.8v2.4h-1V207.3z M102.7,207.3h1l1.1,5.6h-1l-0.2-1.1h-0.9l-0.2,1.1h-0.9L102.7,207.3z M103.5,210.9l-0.3-1.8
		l-0.3,1.8H103.5z M104.7,207.3h1l0.5,3.6l0.5-3.6h1l-1,5.6h-1L104.7,207.3z M108,207.3h2.1v0.9H109v1.4h1v0.9h-1v1.4h1.2v0.9H108
		V207.3z M110.7,207.3h0.9l1,2.8v-2.8h1v5.6h-0.9l-1-3v3h-1V207.3L110.7,207.3z M86.6,215.3h1c1,0,1.7,0.5,1.7,1.8v0.1
		c0,0.7-0.3,1.2-0.7,1.5l0.8,2.3h-1l-0.6-2h-0.2v2h-1C86.6,221,86.6,215.3,86.6,215.3z M87.6,218.1c0.4,0,0.7-0.2,0.7-0.9v-0.1
		c0-0.7-0.3-0.9-0.8-0.9l0,0L87.6,218.1L87.6,218.1z M89.8,215.3h2.1v0.9h-1.2v1.4h1v0.9h-1v1.4H92v0.9h-2.2V215.3L89.8,215.3z
		 M92.3,220.7v-1c0.3,0.2,0.6,0.3,0.9,0.3s0.5-0.1,0.5-0.5l0,0c0-0.3-0.1-0.4-0.5-1c-0.7-0.8-0.9-1.1-0.9-1.8l0,0
		c0-0.9,0.6-1.5,1.4-1.5c0.4,0,0.6,0.1,0.9,0.2v1c-0.3-0.2-0.5-0.3-0.7-0.3c-0.3,0-0.5,0.2-0.5,0.5l0,0c0,0.3,0.1,0.4,0.5,0.9
		c0.8,0.9,0.9,1.2,0.9,1.9l0,0c0,0.9-0.6,1.5-1.4,1.5C92.9,220.9,92.6,220.8,92.3,220.7z M95.4,216.2h-0.7v-0.9h2.4v0.9h-0.7v4.7h-1
		C95.4,220.9,95.4,216.2,95.4,216.2z M98.1,215.3h1l1.1,5.6h-1l-0.2-1.1h-0.9l-0.2,1.1H97L98.1,215.3z M98.9,218.9l-0.3-1.8
		l-0.3,1.8H98.9z M100.4,219.3v-4h1v4.1c0,0.5,0.2,0.7,0.4,0.7s0.4-0.2,0.4-0.7v-4.1h1v4c0,1.2-0.6,1.7-1.4,1.7
		S100.4,220.4,100.4,219.3z M103.7,215.3h1c1,0,1.7,0.5,1.7,1.8v0.1c0,0.7-0.3,1.2-0.7,1.5l0.8,2.3h-1l-0.6-2h-0.2v2h-1
		C103.7,220.9,103.7,215.3,103.7,215.3z M104.8,218.1c0.4,0,0.7-0.2,0.7-0.9v-0.1c0-0.7-0.3-0.9-0.8-0.9l0,0L104.8,218.1
		L104.8,218.1z M107.7,215.3h1l1.1,5.6h-1l-0.2-1.1h-0.9l-0.2,1.1h-0.9L107.7,215.3z M108.5,218.9l-0.3-1.8l-0.3,1.8H108.5z
		 M110.1,215.3h0.9l1,2.8v-2.8h1v5.6h-0.9l-1-3v3h-1V215.3L110.1,215.3z M114.1,216.2h-0.7v-0.9h2.4v0.9H115v4.7h-1L114.1,216.2
		L114.1,216.2z"/>
	<path class="st5" d="M54,151.9v-0.3c0-1.8,0.6-2.7,1.5-2.7s1.5,0.9,1.5,2.7v0.3c0,1.8-0.6,2.7-1.5,2.7
		C54.6,154.6,54,153.7,54,151.9z M56,151.9v-0.3c0-1.4-0.2-1.8-0.5-1.8s-0.5,0.4-0.5,1.8v0.3c0,1.4,0.2,1.8,0.5,1.8
		S56,153.3,56,151.9z M57.5,149h0.9c1.1,0,1.8,0.6,1.8,1.9l0,0c0,1.3-0.7,1.9-1.7,1.9l0,0v1.8h-1V149z M58.4,151.9
		c0.4,0,0.7-0.3,0.7-1l0,0c0-0.7-0.3-1-0.7-1l0,0V151.9L58.4,151.9L58.4,151.9z M60.5,149h2.1v0.9h-1.2v1.4h1v0.9h-1v1.4h1.2v0.9
		h-2.2C60.5,154.6,60.5,149,60.5,149z M63.2,149h0.9l1,2.8V149h1v5.6h-0.9l-1-3v3h-1C63.2,154.6,63.2,149,63.2,149z M68.4,149.9
		h-0.7V149h2.4v0.9h-0.7v4.7h-1C68.4,154.6,68.4,149.9,68.4,149.9z M70.2,151.9v-0.3c0-1.8,0.6-2.7,1.5-2.7s1.5,0.9,1.5,2.7v0.3
		c0,1.8-0.6,2.7-1.5,2.7C70.8,154.6,70.2,153.7,70.2,151.9z M72.2,151.9v-0.3c0-1.4-0.2-1.8-0.5-1.8s-0.5,0.4-0.5,1.8v0.3
		c0,1.4,0.2,1.8,0.5,1.8S72.2,153.3,72.2,151.9z M49.3,157h0.9c1.2,0,2,0.9,2,2.7v0.2c0,1.8-0.7,2.7-2,2.7h-0.9V157z M50.3,161.7
		c0.5,0,0.9-0.4,0.9-1.8v-0.2c0-1.4-0.4-1.8-0.9-1.8l0,0V161.7L50.3,161.7L50.3,161.7z M52.7,157h2.1v0.9h-1.2v1.4h1v0.9h-1v1.4h1.2
		v0.9h-2.2C52.7,162.6,52.7,157,52.7,157z M55.1,159.9v-0.2c0-2,0.7-2.7,1.6-2.7c0.3,0,0.4,0,0.6,0.1v1c-0.2-0.1-0.4-0.2-0.5-0.2
		c-0.4,0-0.7,0.4-0.7,1.8v0.2c0,1.5,0.3,1.8,0.8,1.8c0.2,0,0.3-0.1,0.5-0.2v1c-0.2,0.1-0.4,0.2-0.7,0.2
		C55.8,162.6,55.1,161.8,55.1,159.9z M57.9,157h1v2.3l0.8-2.3h1.1l-0.9,2.4l1,3.2h-1.1l-0.6-2.1l-0.2,0.6v1.5h-1L57.9,157L57.9,157z
		 M62.4,157h0.8c0.9,0,1.8,0.4,1.8,1.4l0,0c0,0.7-0.4,1.1-0.8,1.3c0.5,0.2,0.9,0.5,0.9,1.2v0.1c0,1-0.8,1.6-1.9,1.6h-0.9V157H62.4z
		 M63.4,159.3c0.4,0,0.7-0.2,0.7-0.7l0,0c0-0.5-0.3-0.7-0.7-0.7l0,0L63.4,159.3L63.4,159.3z M63.4,161.7c0.4,0,0.8-0.3,0.8-0.7l0,0
		c0-0.5-0.3-0.7-0.8-0.7l0,0L63.4,161.7L63.4,161.7L63.4,161.7z M65.6,157h2.1v0.9h-1.2v1.4h1v0.9h-1v1.4h1.2v0.9h-2.2L65.6,157
		L65.6,157z M68.2,157h1v4.7h1v0.9h-2V157z M70.3,159.9v-0.3c0-1.8,0.6-2.7,1.5-2.7s1.5,0.9,1.5,2.7v0.3c0,1.8-0.6,2.7-1.5,2.7
		S70.3,161.7,70.3,159.9z M72.3,159.9v-0.3c0-1.4-0.2-1.8-0.5-1.8s-0.5,0.4-0.5,1.8v0.3c0,1.4,0.2,1.8,0.5,1.8
		S72.3,161.3,72.3,159.9z M73.4,157h1l0.4,3.4l0.5-3.4h0.9l0.5,3.4l0.4-3.4h1l-0.8,5.6h-1l-0.5-3.3l-0.5,3.3h-1L73.4,157z"/>
	<path class="st5" d="M51.7,128.6H51v-0.9h2.4v0.9h-0.7v4.7h-1V128.6z M53.7,127.7h1v2.3h0.8v-2.3h1v5.6h-1V131h-0.8v2.4h-1
		C53.7,133.3,53.7,127.7,53.7,127.7z M57.1,127.7h2.1v0.9H58v1.4h1v0.9h-1v1.4h1.2v0.9H57C57.1,133.3,57.1,127.7,57.1,127.7z
		 M61,127.7h1v2.3h0.8v-2.3h1v5.6h-1V131H62v2.4h-1V127.7z M65.2,127.7h1l1.1,5.6h-1l-0.2-1.1h-0.9l-0.2,1.1h-0.9L65.2,127.7z
		 M66,131.3l-0.3-1.8l-0.3,1.8H66z M67.2,127.7h1l0.5,3.6l0.5-3.6h1l-1,5.6h-1L67.2,127.7z M70.5,127.7h2.1v0.9h-1.2v1.4h1v0.9h-1
		v1.4h1.2v0.9h-2.2L70.5,127.7L70.5,127.7z M73.2,127.7h0.9l1,2.8v-2.8h1v5.6h-0.9l-1-3v3h-1V127.7L73.2,127.7z M50.2,138.6v-0.2
		c0-2,0.7-2.7,1.6-2.7c0.3,0,0.4,0,0.6,0.1v1c-0.2-0.1-0.4-0.2-0.5-0.2c-0.4,0-0.7,0.4-0.7,1.8v0.2c0,1.5,0.3,1.8,0.8,1.8
		c0.2,0,0.3-0.1,0.5-0.2v1c-0.2,0.1-0.4,0.2-0.7,0.2C50.8,141.3,50.2,140.6,50.2,138.6z M52.6,138.7v-0.3c0-1.8,0.6-2.7,1.5-2.7
		s1.5,0.9,1.5,2.7v0.3c0,1.8-0.6,2.7-1.5,2.7C53.2,141.4,52.6,140.5,52.6,138.7z M54.6,138.7v-0.3c0-1.4-0.2-1.8-0.5-1.8
		s-0.5,0.4-0.5,1.8v0.3c0,1.4,0.2,1.8,0.5,1.8C54.4,140.5,54.6,140.1,54.6,138.7z M56.1,139.7v-4h1v4.1c0,0.5,0.2,0.7,0.4,0.7
		s0.4-0.2,0.4-0.7v-4.1h1v4c0,1.2-0.6,1.7-1.4,1.7C56.7,141.4,56.1,140.9,56.1,139.7z M59.4,135.7h1c1,0,1.7,0.5,1.7,1.8v0.1
		c0,0.7-0.3,1.2-0.7,1.5l0.8,2.3h-1l-0.6-2h-0.2v2h-1V135.7L59.4,135.7z M60.5,138.5c0.4,0,0.7-0.2,0.7-0.9v-0.1
		c0-0.7-0.3-0.9-0.8-0.9l0,0L60.5,138.5L60.5,138.5z M63.1,136.6h-0.7v-0.9h2.4v0.9H64v4.7h-1L63.1,136.6L63.1,136.6z M65.8,139.1
		l-1-3.4h1l0.5,2.1l0.5-2.1h1l-1,3.4v2.2h-1V139.1L65.8,139.1z M68.6,135.7h1l1.1,5.6h-1l-0.2-1.1h-0.9l-0.2,1.1h-0.9L68.6,135.7z
		 M69.4,139.3l-0.3-1.8l-0.3,1.8H69.4z M71,135.7h1c1,0,1.7,0.5,1.7,1.8v0.1c0,0.7-0.3,1.2-0.7,1.5l0.8,2.3h-1l-0.6-2H72v2h-1
		C71,141.4,71,135.7,71,135.7z M72,138.5c0.4,0,0.7-0.2,0.7-0.9v-0.1c0-0.7-0.3-0.9-0.8-0.9l0,0L72,138.5L72,138.5z M74.1,135.7H75
		c1.2,0,2,0.9,2,2.7v0.2c0,1.8-0.7,2.7-2,2.7h-0.9V135.7z M75.2,140.4c0.5,0,0.9-0.4,0.9-1.8v-0.2c0-1.4-0.4-1.8-0.9-1.8l0,0V140.4
		L75.2,140.4L75.2,140.4z"/>
	<path class="st5" d="M35.8,504.2h1l1.1,5.6h-1l-0.2-1.1h-0.9l-0.2,1.1h-0.9L35.8,504.2z M36.6,507.8l-0.3-1.8l-0.3,1.8H36.6z
		 M40.3,509.5c-0.2,0.2-0.5,0.4-0.8,0.4c-0.9,0-1.5-0.9-1.5-2.7v-0.3c0-1.8,0.6-2.7,1.5-2.7s1.5,0.9,1.5,2.7v0.3
		c0,0.8-0.1,1.4-0.3,1.8l0.5,0.5l-0.5,0.5L40.3,509.5z M39.7,508.9l-0.5-0.5l0.5-0.5l0.2,0.2c0-0.3,0-0.6,0-1.1v-0.3
		c0-1.4-0.2-1.8-0.5-1.8s-0.5,0.4-0.5,1.8v0.3c0,1.6,0.2,1.9,0.6,1.9C39.6,509,39.7,509,39.7,508.9z M41.5,508.1v-4h1v4.1
		c0,0.5,0.2,0.7,0.4,0.7s0.4-0.2,0.4-0.7v-4.1h1v4c0,1.2-0.6,1.7-1.4,1.7C42.1,509.8,41.5,509.3,41.5,508.1z M45.6,504.2h1l1.1,5.6
		h-1l-0.2-1.1h-0.9l-0.2,1.1h-0.9L45.6,504.2z M46.4,507.8l-0.3-1.8l-0.3,1.8H46.4z M34.1,512.2h1c1,0,1.7,0.5,1.7,1.8v0.1
		c0,0.7-0.3,1.2-0.7,1.5l0.8,2.3h-1l-0.6-2H35v2h-1L34.1,512.2L34.1,512.2z M35.1,514.9c0.4,0,0.7-0.2,0.7-0.9l0,0
		c0-0.7-0.3-0.9-0.8-0.9l0,0L35.1,514.9L35.1,514.9z M38,512.2h1l1.1,5.6h-1l-0.2-1.1H38l-0.2,1.1H37L38,512.2z M38.8,515.8
		l-0.3-1.8l-0.3,1.8H38.8z M40.3,515.1v-0.2c0-2,0.7-2.7,1.6-2.7c0.3,0,0.4,0,0.6,0.1v1c-0.2-0.1-0.4-0.2-0.5-0.2
		c-0.4,0-0.7,0.4-0.7,1.8v0.2c0,1.5,0.3,1.8,0.8,1.8c0.2,0,0.3-0.1,0.5-0.2v1c-0.2,0.1-0.4,0.2-0.7,0.2
		C40.9,517.8,40.3,517,40.3,515.1z M43,512.2h2.1v0.9H44v1.4h1v0.9h-1v1.4h1.2v0.9H43V512.2z M45.7,512.2h1c1,0,1.7,0.5,1.7,1.8v0.1
		c0,0.7-0.3,1.2-0.7,1.5l0.8,2.3h-1l-0.6-2h-0.2v2h-1V512.2L45.7,512.2z M46.7,514.9c0.4,0,0.7-0.2,0.7-0.9l0,0
		c0-0.7-0.3-0.9-0.8-0.9l0,0L46.7,514.9L46.7,514.9z"/>
	<path class="st5" d="M93.4,584.8v-0.3c0-1.8,0.6-2.7,1.5-2.7s1.5,0.9,1.5,2.7v0.3c0,1.8-0.6,2.7-1.5,2.7S93.4,586.6,93.4,584.8z
		 M95.4,584.8v-0.3c0-1.4-0.2-1.8-0.5-1.8s-0.5,0.4-0.5,1.8v0.3c0,1.4,0.2,1.8,0.5,1.8S95.4,586.2,95.4,584.8z M96.7,584.7v-0.2
		c0-2,0.7-2.7,1.6-2.7c0.3,0,0.4,0,0.6,0.1v1c-0.2-0.1-0.4-0.2-0.5-0.2c-0.4,0-0.7,0.4-0.7,1.8v0.2c0,1.5,0.3,1.8,0.8,1.8
		c0.2,0,0.3-0.1,0.5-0.2v1c-0.2,0.1-0.4,0.2-0.7,0.2C97.4,587.5,96.7,586.7,96.7,584.7z M99.5,581.8h2.1v0.9h-1.2v1.4h1v0.9h-1v1.4
		h1.2v0.9h-2.2L99.5,581.8L99.5,581.8z M103,581.8h1l1.1,5.6h-1l-0.2-1.1H103l-0.2,1.1h-0.9L103,581.8z M103.8,585.4l-0.3-1.8
		l-0.3,1.8H103.8z M105.4,581.8h0.9l1,2.8v-2.8h1v5.6h-0.9l-1-3v3h-1V581.8L105.4,581.8z M93.8,589.8h1v4.7h1v0.9h-2V589.8z
		 M95.9,592.8v-0.3c0-1.8,0.6-2.7,1.5-2.7s1.5,0.9,1.5,2.7v0.3c0,1.8-0.6,2.7-1.5,2.7S95.9,594.6,95.9,592.8z M97.9,592.8v-0.3
		c0-1.4-0.2-1.8-0.5-1.8s-0.5,0.4-0.5,1.8v0.3c0,1.4,0.2,1.8,0.5,1.8S97.9,594.2,97.9,592.8z M99.3,592.8v-0.3
		c0-1.8,0.6-2.7,1.5-2.7s1.5,0.9,1.5,2.7v0.3c0,1.8-0.6,2.7-1.5,2.7S99.3,594.6,99.3,592.8z M101.3,592.8v-0.3
		c0-1.4-0.2-1.8-0.5-1.8s-0.5,0.4-0.5,1.8v0.3c0,1.4,0.2,1.8,0.5,1.8S101.3,594.2,101.3,592.8z M102.8,589.8h0.9
		c1.1,0,1.8,0.6,1.8,1.9l0,0c0,1.3-0.7,1.9-1.7,1.9l0,0v1.8h-1C102.8,595.4,102.8,589.8,102.8,589.8z M103.7,592.8
		c0.4,0,0.7-0.3,0.7-1l0,0c0-0.7-0.3-1-0.7-1l0,0V592.8L103.7,592.8L103.7,592.8z M105.7,595.2v-1c0.3,0.2,0.6,0.3,0.9,0.3
		s0.5-0.1,0.5-0.5l0,0c0-0.3-0.1-0.4-0.5-1c-0.7-0.8-0.9-1.1-0.9-1.8l0,0c0-0.9,0.6-1.5,1.4-1.5c0.4,0,0.6,0.1,0.9,0.2v1
		c-0.3-0.2-0.5-0.3-0.7-0.3c-0.3,0-0.5,0.2-0.5,0.5l0,0c0,0.3,0.1,0.4,0.5,0.9c0.8,0.9,0.9,1.2,0.9,1.9l0,0c0,0.9-0.6,1.5-1.4,1.5
		C106.3,595.5,106,595.4,105.7,595.2z"/>
	<path class="st5" d="M49.5,642.8h1c1,0,1.7,0.5,1.7,1.8v0.1c0,0.7-0.3,1.2-0.7,1.5l0.8,2.3h-1l-0.6-2h-0.2v2h-1V642.8L49.5,642.8z
		 M50.6,645.6c0.4,0,0.7-0.2,0.7-0.9v-0.1c0-0.7-0.3-0.9-0.8-0.9l0,0L50.6,645.6L50.6,645.6z M53.5,642.8h1l1.1,5.6h-1l-0.2-1.1
		h-0.9l-0.2,1.1h-0.9L53.5,642.8z M54.3,646.4l-0.3-1.8l-0.3,1.8H54.3z M55.7,645.7v-0.2c0-2,0.7-2.7,1.6-2.7c0.3,0,0.4,0,0.6,0.1v1
		c-0.2-0.1-0.4-0.2-0.5-0.2c-0.4,0-0.7,0.4-0.7,1.8v0.2c0,1.5,0.3,1.8,0.8,1.8c0.2,0,0.3-0.1,0.5-0.2v1c-0.2,0.1-0.4,0.2-0.7,0.2
		C56.4,648.4,55.7,647.6,55.7,645.7z M58.5,642.8h2.1v0.9h-1.2v1.4h1v0.9h-1v1.4h1.2v0.9h-2.2v-5.5L58.5,642.8L58.5,642.8z
		 M62.9,643.7h-0.7v-0.9h2.4v0.9h-0.7v4.7h-1C62.9,648.4,62.9,643.7,62.9,643.7z M65,642.8h1c1,0,1.7,0.5,1.7,1.8v0.1
		c0,0.7-0.3,1.2-0.7,1.5l0.8,2.3h-1l-0.6-2H66v2h-1V642.8z M66,645.6c0.4,0,0.7-0.2,0.7-0.9v-0.1c0-0.7-0.3-0.9-0.8-0.9l0,0
		L66,645.6L66,645.6z M69,642.8h1l1.1,5.6h-1l-0.2-1.1H69l-0.2,1.1h-0.9L69,642.8z M69.8,646.4l-0.3-1.8l-0.3,1.8H69.8z M71.2,645.7
		v-0.2c0-2,0.7-2.7,1.6-2.7c0.3,0,0.4,0,0.6,0.1v1c-0.2-0.1-0.4-0.2-0.5-0.2c-0.4,0-0.7,0.4-0.7,1.8v0.2c0,1.5,0.3,1.8,0.8,1.8
		c0.2,0,0.3-0.1,0.5-0.2v1c-0.2,0.1-0.4,0.2-0.7,0.2C71.9,648.4,71.2,647.6,71.2,645.7z M74,642.8h1v2.3l0.8-2.3h1.1l-0.9,2.4l1,3.2
		h-1.1l-0.6-2.1l-0.2,0.6v1.5h-1L74,642.8L74,642.8z"/>
	<path class="st5" d="M53.3,33.8h1v2.3h0.8v-2.3h1v5.6h-1V37h-0.8v2.4h-1V33.8z M56.6,36.7v-0.3c0-1.8,0.6-2.7,1.5-2.7
		s1.5,0.9,1.5,2.7v0.3c0,1.8-0.6,2.7-1.5,2.7C57.2,39.5,56.6,38.6,56.6,36.7z M58.6,36.7v-0.3c0-1.4-0.2-1.8-0.5-1.8
		s-0.5,0.4-0.5,1.8v0.3c0,1.4,0.2,1.8,0.5,1.8S58.6,38.2,58.6,36.7z M60,33.8h1c1,0,1.7,0.5,1.7,1.8v0.1c0,0.7-0.3,1.2-0.7,1.5
		l0.8,2.3h-1l-0.6-2H61v2h-1V33.8z M61.1,36.6c0.4,0,0.7-0.2,0.7-0.9v-0.1c0-0.7-0.3-0.9-0.8-0.9l0,0L61.1,36.6L61.1,36.6z
		 M63.2,33.8h1v5.6h-1C63.2,39.4,63.2,33.8,63.2,33.8z M64.7,38.6l1.3-3.9h-1.2v-0.9h2.3v0.8l-1.3,3.9h1.3v0.9h-2.4L64.7,38.6
		L64.7,38.6z M67.3,36.7v-0.3c0-1.8,0.6-2.7,1.5-2.7s1.5,0.9,1.5,2.7v0.3c0,1.8-0.6,2.7-1.5,2.7S67.3,38.6,67.3,36.7z M69.3,36.7
		v-0.3c0-1.4-0.2-1.8-0.5-1.8s-0.5,0.4-0.5,1.8v0.3c0,1.4,0.2,1.8,0.5,1.8S69.3,38.2,69.3,36.7z M70.7,33.8h0.9l1,2.8v-2.8h1v5.6
		h-0.9l-1-3v3h-1V33.8L70.7,33.8z M54.6,41.8h1v4.7h1v0.9h-2V41.8z M56.7,44.7v-0.3c0-1.8,0.6-2.7,1.5-2.7s1.5,0.9,1.5,2.7v0.3
		c0,1.8-0.6,2.7-1.5,2.7S56.7,46.6,56.7,44.7z M58.7,44.7v-0.3c0-1.4-0.2-1.8-0.5-1.8s-0.5,0.4-0.5,1.8v0.3c0,1.4,0.2,1.8,0.5,1.8
		S58.7,46.2,58.7,44.7z M60.2,45.8v-4h1v4.1c0,0.5,0.2,0.7,0.4,0.7s0.4-0.2,0.4-0.7v-4.1h1v4c0,1.2-0.6,1.7-1.4,1.7
		S60.2,46.9,60.2,45.8z M63.5,41.8h0.9l1,2.8v-2.8h1v5.6h-0.9l-1-3v3h-1V41.8L63.5,41.8z M66.9,44.7v-0.2c0-1.8,0.8-2.7,1.9-2.7
		c0.3,0,0.5,0.1,0.7,0.2v1c-0.2-0.1-0.5-0.2-0.7-0.2c-0.6,0-0.9,0.6-0.9,1.8v0.3c0,1.5,0.4,1.8,0.8,1.8c0,0,0,0,0.1,0v-1.4h-0.5
		v-0.9h1.4v3c-0.4,0.2-0.6,0.2-1,0.2C67.7,47.4,66.9,46.6,66.9,44.7z M70.2,41.8h2.1v0.9h-1.2v1.4h1V45h-1v1.4h1.2v0.9h-2.2
		L70.2,41.8L70.2,41.8z"/>
</g>
<g id="BLISS_DECK_18_ROOMS">
	<g id="gDeck18HavenCourtyardPenthouseBalconyHF">
		<g id="hDeck18HavenCourtyardPenthouseBalconyHF">
			<g id="g18124">
				<g id="h18124">
					<rect id="b18124" x="9.1" y="243.4" class="st6" width="28.8" height="20.9"/>
					<path id="t18124" class="st5" d="M16.9,252l0.3-0.5h0.9v4.1h-0.5V252H16.9L16.9,252z M19.9,253.5c-0.3-0.2-0.5-0.5-0.5-0.9
						c0-0.7,0.5-1.2,1.2-1.2s1.2,0.5,1.2,1.2c0,0.4-0.2,0.7-0.5,0.9c0.4,0.1,0.6,0.5,0.6,1c0,0.8-0.6,1.2-1.3,1.2s-1.3-0.5-1.3-1.2
						C19.3,254.1,19.5,253.7,19.9,253.5z M19.8,254.5c0,0.4,0.4,0.8,0.8,0.8s0.8-0.4,0.8-0.8c0-0.4-0.4-0.8-0.8-0.8
						S19.8,254.1,19.8,254.5z M19.9,252.6c0,0.3,0.4,0.7,0.7,0.7s0.7-0.4,0.7-0.7c0-0.4-0.3-0.7-0.7-0.7S19.9,252.2,19.9,252.6z
						 M22.5,252l0.3-0.5h0.9v4.1h-0.5V252H22.5L22.5,252z M27.4,255.2v0.5h-2.6l1.8-2.2c0.2-0.2,0.4-0.5,0.4-0.7
						c0-0.4-0.4-0.8-0.8-0.8s-0.8,0.3-0.8,0.8h-0.5c0.1-0.7,0.5-1.2,1.3-1.2c0.7,0,1.3,0.5,1.3,1.2c0,0.3-0.1,0.6-0.3,0.9l-1.3,1.7
						h1.5V255.2z M30.7,254.6v0.4h-0.5v0.6h-0.5V255h-2l2.5-3.7v3.3H30.7z M29.8,252.9L29.8,252.9l-1.2,1.7h1.2V252.9z"/>
				</g>
			</g>
			<g id="g18122">
				<g id="h18122">
					<rect id="b18122" x="9.1" y="230.4" class="st6" width="28.8" height="13.1"/>
					<path id="t18122" class="st5" d="M16.9,235.3l0.3-0.5h0.9v4.1h-0.5v-3.7L16.9,235.3L16.9,235.3z M20,236.9
						c-0.3-0.2-0.5-0.5-0.5-0.9c0-0.7,0.5-1.2,1.2-1.2s1.2,0.5,1.2,1.2c0,0.4-0.2,0.7-0.5,0.9c0.4,0.1,0.6,0.5,0.6,1
						c0,0.8-0.6,1.2-1.3,1.2s-1.3-0.5-1.3-1.2C19.3,237.4,19.5,237,20,236.9z M19.8,237.9c0,0.4,0.4,0.8,0.8,0.8s0.8-0.4,0.8-0.8
						c0-0.4-0.4-0.8-0.8-0.8S19.8,237.4,19.8,237.9z M19.9,235.9c0,0.3,0.4,0.7,0.7,0.7s0.7-0.4,0.7-0.7c0-0.4-0.3-0.7-0.7-0.7
						S19.9,235.5,19.9,235.9z M22.5,235.3l0.3-0.5h0.9v4.1h-0.5v-3.7L22.5,235.3L22.5,235.3z M27.4,238.5v0.5h-2.6l1.8-2.2
						c0.2-0.2,0.4-0.5,0.4-0.7c0-0.4-0.4-0.8-0.8-0.8s-0.8,0.3-0.8,0.8h-0.5c0.1-0.7,0.5-1.2,1.3-1.2c0.7,0,1.3,0.5,1.3,1.2
						c0,0.3-0.1,0.6-0.3,0.9l-1.3,1.7h1.5V238.5z M30.6,238.5v0.5H28l1.8-2.2c0.2-0.2,0.4-0.5,0.4-0.7c0-0.4-0.4-0.8-0.8-0.8
						s-0.8,0.3-0.8,0.8H28c0.1-0.7,0.5-1.2,1.3-1.2c0.7,0,1.3,0.5,1.3,1.2c0,0.3-0.1,0.6-0.3,0.9l-1.3,1.7h1.6V238.5z"/>
				</g>
			</g>
			<g id="g18120">
				<g id="h18120">
					<rect id="b18120" x="9.1" y="217.6" class="st6" width="28.8" height="12.8"/>
					<path id="t18120" class="st5" d="M16.9,222.3l0.3-0.5h0.9v4.1h-0.5v-3.7L16.9,222.3L16.9,222.3z M19.9,223.8
						c-0.3-0.2-0.5-0.5-0.5-0.9c0-0.7,0.5-1.2,1.2-1.2s1.2,0.5,1.2,1.2c0,0.4-0.2,0.7-0.5,0.9c0.4,0.1,0.6,0.5,0.6,1
						c0,0.8-0.6,1.2-1.3,1.2s-1.3-0.5-1.3-1.2C19.3,224.4,19.5,224,19.9,223.8z M19.8,224.8c0,0.4,0.4,0.8,0.8,0.8s0.8-0.4,0.8-0.8
						c0-0.4-0.4-0.8-0.8-0.8S19.8,224.4,19.8,224.8z M19.9,222.9c0,0.3,0.4,0.7,0.7,0.7s0.7-0.4,0.7-0.7c0-0.4-0.3-0.7-0.7-0.7
						S19.9,222.5,19.9,222.9z M22.5,222.3l0.3-0.5h0.9v4.1h-0.5v-3.7L22.5,222.3L22.5,222.3z M27.4,225.5v0.5h-2.6l1.8-2.2
						c0.2-0.2,0.4-0.5,0.4-0.7c0-0.4-0.4-0.8-0.8-0.8s-0.8,0.3-0.8,0.8h-0.5c0.1-0.7,0.5-1.2,1.3-1.2c0.7,0,1.3,0.5,1.3,1.2
						c0,0.3-0.1,0.6-0.3,0.9l-1.3,1.7h1.5V225.5z M27.9,223.9c0-0.9,0.4-2.2,1.4-2.2s1.4,1.3,1.4,2.2c0,0.8-0.4,2.2-1.4,2.2
						S27.9,224.7,27.9,223.9z M28.3,223.9c0,0.6,0.2,1.7,0.9,1.7s0.9-1.1,0.9-1.7s-0.2-1.7-0.9-1.7S28.3,223.3,28.3,223.9z"/>
				</g>
			</g>
			<g id="g18114">
				<g id="h18114">
					<rect id="b18114" x="9.1" y="162.9" class="st6" width="28.8" height="13.1"/>
					<path id="t18114" class="st5" d="M17.2,167.5l0.3-0.5h0.9v4.1h-0.5v-3.7L17.2,167.5L17.2,167.5z M20.2,169
						c-0.3-0.2-0.5-0.5-0.5-0.9c0-0.7,0.5-1.2,1.2-1.2s1.2,0.5,1.2,1.2c0,0.4-0.2,0.7-0.5,0.9c0.4,0.1,0.6,0.5,0.6,1
						c0,0.8-0.6,1.2-1.3,1.2s-1.3-0.5-1.3-1.2C19.6,169.6,19.8,169.2,20.2,169z M20.1,170c0,0.4,0.4,0.8,0.8,0.8s0.8-0.4,0.8-0.8
						c0-0.4-0.4-0.8-0.8-0.8S20.1,169.6,20.1,170z M20.2,168.1c0,0.3,0.4,0.7,0.7,0.7s0.7-0.4,0.7-0.7c0-0.4-0.3-0.7-0.7-0.7
						S20.2,167.7,20.2,168.1z M22.8,167.5l0.3-0.5H24v4.1h-0.5v-3.7L22.8,167.5L22.8,167.5z M25.3,167.5l0.3-0.5h0.9v4.1H26v-3.7
						L25.3,167.5L25.3,167.5z M30.4,170.1v0.4H30v0.6h-0.5v-0.6h-2l2.5-3.7v3.3H30.4z M29.5,168.4L29.5,168.4l-1.2,1.7h1.2V168.4z"
						/>
				</g>
			</g>
			<g id="g18712">
				<g id="h18712">
					<rect id="b18712" x="90.2" y="151.1" class="st6" width="28.8" height="12.2"/>
					<path id="t18712" class="st5" d="M98,155.5l0.3-0.5h0.9v4.1h-0.5v-3.7L98,155.5L98,155.5z M101,157c-0.3-0.2-0.5-0.5-0.5-0.9
						c0-0.7,0.5-1.2,1.2-1.2s1.2,0.5,1.2,1.2c0,0.4-0.2,0.7-0.5,0.9c0.4,0.1,0.6,0.5,0.6,1c0,0.8-0.6,1.2-1.3,1.2s-1.3-0.5-1.3-1.2
						C100.4,157.6,100.6,157.2,101,157z M100.9,158c0,0.4,0.4,0.8,0.8,0.8s0.8-0.4,0.8-0.8c0-0.4-0.4-0.8-0.8-0.8
						S100.9,157.6,100.9,158z M101,156.1c0,0.3,0.3,0.7,0.7,0.7s0.7-0.4,0.7-0.7c0-0.4-0.3-0.7-0.7-0.7S101,155.7,101,156.1z
						 M103.4,155.5V155h2.9l-2.5,4.2l-0.4-0.2l2.1-3.5H103.4L103.4,155.5z M106.8,155.5l0.3-0.5h0.9v4.1h-0.5v-3.7L106.8,155.5
						L106.8,155.5z M111.7,158.7v0.5h-2.6l1.8-2.2c0.2-0.2,0.4-0.5,0.4-0.7c0-0.4-0.4-0.8-0.8-0.8s-0.8,0.3-0.8,0.8h-0.5
						c0.1-0.7,0.6-1.2,1.3-1.2c0.7,0,1.3,0.5,1.3,1.2c0,0.3-0.1,0.6-0.3,0.9l-1.3,1.7h1.5V158.7z"/>
				</g>
			</g>
			<g id="g18706">
				<g id="h18706">
					<rect id="b18706" x="90.2" y="95.7" class="st6" width="28.8" height="13"/>
					<path id="t18706" class="st5" d="M97.7,99.9l0.3-0.5h0.9v4.1h-0.5v-3.7L97.7,99.9L97.7,99.9z M100.8,101.5
						c-0.3-0.2-0.5-0.5-0.5-0.9c0-0.7,0.5-1.2,1.2-1.2s1.2,0.5,1.2,1.2c0,0.4-0.2,0.7-0.5,0.9c0.4,0.1,0.6,0.5,0.6,1
						c0,0.8-0.6,1.2-1.3,1.2s-1.3-0.5-1.3-1.2C100.1,102,100.4,101.6,100.8,101.5z M100.6,102.5c0,0.4,0.4,0.8,0.8,0.8
						s0.8-0.4,0.8-0.8s-0.4-0.8-0.8-0.8S100.6,102,100.6,102.5z M100.7,100.5c0,0.3,0.3,0.7,0.7,0.7s0.7-0.4,0.7-0.7
						c0-0.4-0.3-0.7-0.7-0.7S100.7,100.1,100.7,100.5z M103.1,99.9v-0.5h2.9l-2.5,4.2l-0.4-0.2l2.1-3.5H103.1z M106.1,101.5
						c0-0.9,0.4-2.2,1.4-2.2s1.4,1.3,1.4,2.2c0,0.8-0.4,2.2-1.4,2.2S106.1,102.4,106.1,101.5z M106.5,101.5c0,0.6,0.2,1.7,0.9,1.7
						s0.9-1.1,0.9-1.7s-0.2-1.7-0.9-1.7S106.5,101,106.5,101.5z M111.5,99.6l-1.1,1.5l0,0c0.1-0.1,0.3-0.1,0.4-0.1
						c0.7,0,1.2,0.6,1.2,1.3c0,0.8-0.6,1.4-1.3,1.4c-0.7,0-1.4-0.6-1.4-1.3c0-0.4,0.2-0.8,0.4-1.1l1.4-1.9L111.5,99.6z M111.5,102.4
						c0-0.5-0.4-0.9-0.9-0.9c-0.4,0-0.9,0.4-0.9,0.9s0.4,0.9,0.9,0.9C111.1,103.2,111.5,102.9,111.5,102.4z"/>
				</g>
			</g>
			<g id="g18112">
				<g id="h18112">
					<rect id="b18112" x="9.1" y="150.2" class="st6" width="28.8" height="12.8"/>
					<path id="t18112" class="st5" d="M17.2,154.9l0.3-0.5h0.9v4.1h-0.5v-3.7L17.2,154.9L17.2,154.9z M20.3,156.5
						c-0.3-0.2-0.5-0.5-0.5-0.9c0-0.7,0.5-1.2,1.2-1.2s1.2,0.5,1.2,1.2c0,0.4-0.2,0.7-0.5,0.9c0.4,0.1,0.6,0.5,0.6,1
						c0,0.8-0.6,1.2-1.3,1.2s-1.3-0.5-1.3-1.2C19.6,157,19.9,156.6,20.3,156.5z M20.1,157.5c0,0.4,0.4,0.8,0.8,0.8s0.8-0.4,0.8-0.8
						c0-0.4-0.4-0.8-0.8-0.8S20.1,157,20.1,157.5z M20.2,155.5c0,0.3,0.4,0.7,0.7,0.7s0.7-0.4,0.7-0.7c0-0.4-0.3-0.7-0.7-0.7
						S20.2,155.1,20.2,155.5z M22.9,154.9l0.3-0.5H24v4.1h-0.5v-3.7L22.9,154.9L22.9,154.9z M25.4,154.9l0.3-0.5h0.9v4.1h-0.5v-3.7
						L25.4,154.9L25.4,154.9z M30.3,158.1v0.5h-2.6l1.8-2.2c0.2-0.2,0.4-0.5,0.4-0.7c0-0.4-0.4-0.8-0.8-0.8s-0.8,0.3-0.8,0.8h-0.5
						c0.1-0.7,0.5-1.2,1.3-1.2c0.7,0,1.3,0.5,1.3,1.2c0,0.3-0.1,0.6-0.3,0.9l-1.3,1.7h1.5V158.1z"/>
				</g>
			</g>
			<g id="g18106">
				<g id="h18106">
					<rect id="b18106" x="9.1" y="94.9" class="st6" width="28.8" height="13.6"/>
					<path id="t18106" class="st5" d="M16.8,99.9l0.3-0.5H18v4.1h-0.5v-3.7L16.8,99.9L16.8,99.9z M19.8,101.5
						c-0.3-0.2-0.5-0.5-0.5-0.9c0-0.7,0.5-1.2,1.2-1.2s1.2,0.5,1.2,1.2c0,0.4-0.2,0.7-0.5,0.9c0.4,0.1,0.6,0.5,0.6,1
						c0,0.8-0.6,1.2-1.3,1.2s-1.3-0.5-1.3-1.2C19.2,102,19.4,101.6,19.8,101.5z M19.7,102.5c0,0.4,0.4,0.8,0.8,0.8s0.8-0.4,0.8-0.8
						s-0.4-0.8-0.8-0.8S19.7,102,19.7,102.5z M19.8,100.5c0,0.3,0.4,0.7,0.7,0.7s0.7-0.4,0.7-0.7c0-0.4-0.3-0.7-0.7-0.7
						S19.8,100.1,19.8,100.5z M22.4,99.9l0.3-0.5h0.9v4.1h-0.5v-3.7L22.4,99.9L22.4,99.9z M24.8,101.5c0-0.9,0.4-2.2,1.4-2.2
						s1.4,1.3,1.4,2.2c0,0.8-0.4,2.2-1.4,2.2S24.8,102.4,24.8,101.5z M25.3,101.5c0,0.6,0.2,1.7,0.9,1.7s0.9-1.1,0.9-1.7
						s-0.2-1.7-0.9-1.7S25.3,101,25.3,101.5z M30.2,99.6l-1.1,1.5l0,0c0.1-0.1,0.3-0.1,0.4-0.1c0.7,0,1.2,0.6,1.2,1.3
						c0,0.8-0.6,1.4-1.3,1.4c-0.7,0-1.4-0.6-1.4-1.3c0-0.4,0.2-0.8,0.4-1.1l1.4-1.9L30.2,99.6z M30.2,102.4c0-0.5-0.4-0.9-0.9-0.9
						c-0.4,0-0.9,0.4-0.9,0.9s0.4,0.9,0.9,0.9C29.8,103.2,30.2,102.9,30.2,102.4z"/>
				</g>
			</g>
		</g>
	</g>
	<g id="gDeck18HavenTwoBedroomFamilyVillaBalconyH6">
		<g id="hDeck18HavenTwoBedroomFamilyVillaBalconyH6">
			<g id="g18118">
				<g id="h18118">
					<rect id="b18118" x="9.1" y="196.8" class="st6" width="28.8" height="20.9"/>
					<path id="t18118" class="st5" d="M17,205.8l0.3-0.5h0.9v4.1h-0.5v-3.7L17,205.8L17,205.8z M20.1,207.3
						c-0.3-0.2-0.5-0.5-0.5-0.9c0-0.7,0.5-1.2,1.2-1.2s1.2,0.5,1.2,1.2c0,0.4-0.2,0.7-0.5,0.9c0.4,0.1,0.6,0.5,0.6,1
						c0,0.8-0.6,1.2-1.3,1.2s-1.3-0.5-1.3-1.2C19.4,207.9,19.7,207.5,20.1,207.3z M19.9,208.3c0,0.4,0.4,0.8,0.8,0.8
						s0.8-0.4,0.8-0.8c0-0.4-0.4-0.8-0.8-0.8S19.9,207.9,19.9,208.3z M20,206.4c0,0.3,0.4,0.7,0.7,0.7s0.7-0.4,0.7-0.7
						c0-0.4-0.3-0.7-0.7-0.7S20,206,20,206.4z M22.7,205.8l0.3-0.5h0.9v4.1h-0.5v-3.7L22.7,205.8L22.7,205.8z M25.2,205.8l0.3-0.5
						h0.9v4.1h-0.5v-3.7L25.2,205.8L25.2,205.8z M28.2,207.3c-0.3-0.2-0.5-0.5-0.5-0.9c0-0.7,0.5-1.2,1.2-1.2s1.2,0.5,1.2,1.2
						c0,0.4-0.2,0.7-0.5,0.9c0.4,0.1,0.6,0.5,0.6,1c0,0.8-0.6,1.2-1.3,1.2s-1.3-0.5-1.3-1.2C27.6,207.9,27.8,207.5,28.2,207.3z
						 M28.1,208.3c0,0.4,0.4,0.8,0.8,0.8s0.8-0.4,0.8-0.8c0-0.4-0.4-0.8-0.8-0.8S28.1,207.9,28.1,208.3z M28.2,206.4
						c0,0.3,0.4,0.7,0.7,0.7s0.7-0.4,0.7-0.7c0-0.4-0.3-0.7-0.7-0.7S28.2,206,28.2,206.4z"/>
				</g>
			</g>
			<g id="g18116">
				<g id="h18116">
					<rect id="b18116" x="9.1" y="176" class="st6" width="28.8" height="20.9"/>
					<path id="t18116" class="st5" d="M17,184.5l0.3-0.5h0.9v4.1h-0.5v-3.7L17,184.5L17,184.5z M20.1,186c-0.3-0.2-0.5-0.5-0.5-0.9
						c0-0.7,0.5-1.2,1.2-1.2s1.2,0.5,1.2,1.2c0,0.4-0.2,0.7-0.5,0.9c0.4,0.1,0.6,0.5,0.6,1c0,0.8-0.6,1.2-1.3,1.2s-1.3-0.5-1.3-1.2
						C19.5,186.6,19.7,186.2,20.1,186z M20,187c0,0.4,0.4,0.8,0.8,0.8s0.8-0.4,0.8-0.8c0-0.4-0.4-0.8-0.8-0.8S20,186.6,20,187z
						 M20.1,185.1c0,0.3,0.4,0.7,0.7,0.7s0.7-0.4,0.7-0.7c0-0.4-0.3-0.7-0.7-0.7S20.1,184.7,20.1,185.1z M22.7,184.5L23,184h0.9v4.1
						h-0.5v-3.7L22.7,184.5L22.7,184.5z M25.2,184.5l0.3-0.5h0.9v4.1h-0.5v-3.7L25.2,184.5L25.2,184.5z M29.7,184.2l-1.1,1.5l0,0
						c0.1-0.1,0.3-0.1,0.4-0.1c0.7,0,1.2,0.6,1.2,1.3c0,0.8-0.6,1.4-1.3,1.4c-0.7,0-1.4-0.6-1.4-1.3c0-0.4,0.2-0.8,0.4-1.1l1.4-1.9
						L29.7,184.2z M29.7,186.9c0-0.5-0.4-0.9-0.9-0.9c-0.4,0-0.9,0.4-0.9,0.9s0.4,0.9,0.9,0.9C29.3,187.8,29.7,187.4,29.7,186.9z"/>
				</g>
			</g>
			<g id="g18714">
				<g id="h18714">
					<rect id="b18714" x="90.2" y="163.3" class="st6" width="28.8" height="21"/>
					<path id="t18714" class="st5" d="M97.8,171.6l0.3-0.5H99v4.1h-0.5v-3.7L97.8,171.6L97.8,171.6z M100.9,173.1
						c-0.3-0.2-0.5-0.5-0.5-0.9c0-0.7,0.5-1.2,1.2-1.2s1.2,0.5,1.2,1.2c0,0.4-0.2,0.7-0.5,0.9c0.4,0.1,0.6,0.5,0.6,1
						c0,0.8-0.6,1.2-1.3,1.2s-1.3-0.5-1.3-1.2C100.2,173.6,100.4,173.2,100.9,173.1z M100.7,174.1c0,0.4,0.4,0.8,0.8,0.8
						s0.8-0.4,0.8-0.8c0-0.4-0.4-0.8-0.8-0.8S100.7,173.6,100.7,174.1z M100.8,172.2c0,0.3,0.4,0.7,0.7,0.7s0.7-0.4,0.7-0.7
						c0-0.4-0.3-0.7-0.7-0.7S100.8,171.8,100.8,172.2z M103.2,171.6v-0.5h2.9l-2.5,4.2l-0.4-0.2l2.1-3.5H103.2L103.2,171.6z
						 M106.6,171.6l0.3-0.5h0.9v4.1h-0.5v-3.7L106.6,171.6L106.6,171.6z M111.7,174.2v0.4h-0.5v0.6h-0.5v-0.6h-2l2.5-3.7v3.3H111.7z
						 M110.8,172.5L110.8,172.5l-1.2,1.7h1.2V172.5L110.8,172.5z"/>
				</g>
			</g>
			<g id="g18710">
				<g id="h18710">
					<rect id="b18710" x="90.2" y="129.7" class="st6" width="28.8" height="21.4"/>
					<path id="t18710" class="st5" d="M97.8,137.8l0.3-0.5H99v4.1h-0.5v-3.7L97.8,137.8L97.8,137.8z M100.8,139.3
						c-0.3-0.2-0.5-0.5-0.5-0.9c0-0.7,0.5-1.2,1.2-1.2s1.2,0.5,1.2,1.2c0,0.4-0.2,0.7-0.5,0.9c0.4,0.1,0.6,0.5,0.6,1
						c0,0.8-0.6,1.2-1.3,1.2s-1.3-0.5-1.3-1.2C100.2,139.8,100.4,139.4,100.8,139.3z M100.7,140.3c0,0.4,0.4,0.8,0.8,0.8
						s0.8-0.4,0.8-0.8c0-0.4-0.4-0.8-0.8-0.8S100.7,139.8,100.7,140.3z M100.8,138.4c0,0.3,0.4,0.7,0.7,0.7s0.7-0.4,0.7-0.7
						c0-0.4-0.3-0.7-0.7-0.7S100.8,138,100.8,138.4z M103.2,137.8v-0.5h2.9l-2.5,4.2l-0.4-0.2l2.1-3.5H103.2L103.2,137.8z
						 M106.6,137.8l0.3-0.5h0.9v4.1h-0.5v-3.7L106.6,137.8L106.6,137.8z M108.9,139.4c0-0.9,0.4-2.2,1.4-2.2c1.1,0,1.4,1.3,1.4,2.2
						c0,0.8-0.4,2.2-1.4,2.2S108.9,140.2,108.9,139.4z M109.4,139.4c0,0.6,0.2,1.7,0.9,1.7c0.7,0,0.9-1.1,0.9-1.7s-0.2-1.7-0.9-1.7
						C109.6,137.6,109.4,138.8,109.4,139.4z"/>
				</g>
			</g>
			<g id="g18708">
				<g id="h18708">
					<rect id="b18708" x="90.2" y="108.7" class="st6" width="28.8" height="20.9"/>
					<path id="t18708" class="st5" d="M97.6,117.3l0.3-0.5h0.9v4.1h-0.5v-3.7L97.6,117.3L97.6,117.3z M100.6,118.8
						c-0.3-0.2-0.5-0.5-0.5-0.9c0-0.7,0.5-1.2,1.2-1.2s1.2,0.5,1.2,1.2c0,0.4-0.2,0.7-0.5,0.9c0.4,0.1,0.6,0.5,0.6,1
						c0,0.8-0.6,1.2-1.3,1.2s-1.3-0.5-1.3-1.2C100,119.4,100.2,119,100.6,118.8z M100.5,119.8c0,0.4,0.4,0.8,0.8,0.8
						s0.8-0.4,0.8-0.8s-0.4-0.8-0.8-0.8S100.5,119.4,100.5,119.8z M100.6,117.9c0,0.3,0.3,0.7,0.7,0.7s0.7-0.4,0.7-0.7
						c0-0.4-0.3-0.7-0.7-0.7S100.6,117.5,100.6,117.9z M103,117.3v-0.5h2.9l-2.5,4.2l-0.4-0.2l2.1-3.5H103z M105.9,118.9
						c0-0.9,0.4-2.2,1.4-2.2s1.4,1.3,1.4,2.2c0,0.8-0.4,2.2-1.4,2.2S105.9,119.7,105.9,118.9z M106.4,118.9c0,0.6,0.2,1.7,0.9,1.7
						s0.9-1.1,0.9-1.7s-0.2-1.7-0.9-1.7S106.4,118.3,106.4,118.9z M109.9,118.8c-0.3-0.2-0.5-0.5-0.5-0.9c0-0.7,0.5-1.2,1.2-1.2
						s1.2,0.5,1.2,1.2c0,0.4-0.2,0.7-0.5,0.9c0.4,0.1,0.6,0.5,0.6,1c0,0.8-0.6,1.2-1.3,1.2s-1.3-0.5-1.3-1.2
						C109.3,119.4,109.5,119,109.9,118.8z M109.8,119.8c0,0.4,0.4,0.8,0.8,0.8s0.8-0.4,0.8-0.8s-0.4-0.8-0.8-0.8
						S109.8,119.4,109.8,119.8z M109.9,117.9c0,0.3,0.3,0.7,0.7,0.7s0.7-0.4,0.7-0.7c0-0.4-0.3-0.7-0.7-0.7S109.9,117.5,109.9,117.9
						z"/>
				</g>
			</g>
			<g id="g18704">
				<g id="h18704">
					<rect id="b18704" x="90.2" y="74.3" class="st6" width="28.8" height="21.3"/>
					<path id="t18704" class="st5" d="M97.6,83.2l0.3-0.5h0.9v4.1h-0.5v-3.7L97.6,83.2L97.6,83.2z M100.7,84.7
						c-0.3-0.2-0.5-0.5-0.5-0.9c0-0.7,0.5-1.2,1.2-1.2s1.2,0.5,1.2,1.2c0,0.4-0.2,0.7-0.5,0.9c0.4,0.1,0.6,0.5,0.6,1
						c0,0.8-0.6,1.2-1.3,1.2s-1.3-0.5-1.3-1.2C100,85.3,100.2,84.9,100.7,84.7z M100.5,85.7c0,0.4,0.4,0.8,0.8,0.8s0.8-0.4,0.8-0.8
						s-0.4-0.8-0.8-0.8C100.9,84.9,100.5,85.3,100.5,85.7z M100.6,83.8c0,0.3,0.4,0.7,0.7,0.7c0.3,0,0.7-0.4,0.7-0.7
						c0-0.4-0.3-0.7-0.7-0.7C100.9,83.1,100.6,83.4,100.6,83.8z M103,83.2v-0.5h2.9l-2.5,4.2l-0.4-0.2l2.1-3.5H103z M105.9,84.8
						c0-0.9,0.4-2.2,1.4-2.2c1.1,0,1.4,1.3,1.4,2.2c0,0.8-0.4,2.2-1.4,2.2S105.9,85.7,105.9,84.8z M106.4,84.8
						c0,0.6,0.2,1.7,0.9,1.7c0.7,0,0.9-1.1,0.9-1.7s-0.2-1.7-0.9-1.7C106.6,83.1,106.4,84.2,106.4,84.8z M112,85.8v0.4h-0.5v0.6H111
						v-0.6h-2l2.5-3.7v3.3C111.5,85.8,112,85.8,112,85.8z M111,84.1L111,84.1l-1.2,1.7h1.2V84.1L111,84.1z"/>
				</g>
			</g>
			<g id="g18702">
				<g id="h18702">
					<rect id="b18702" x="90.2" y="54.3" class="st6" width="28.8" height="19.9"/>
					<path id="t18702" class="st5" d="M97.6,63.1l0.3-0.5h0.9v4.1h-0.5V63L97.6,63.1L97.6,63.1z M100.7,64.6
						c-0.3-0.2-0.5-0.5-0.5-0.9c0-0.7,0.5-1.2,1.2-1.2s1.2,0.5,1.2,1.2c0,0.4-0.2,0.7-0.5,0.9c0.4,0.1,0.6,0.5,0.6,1
						c0,0.8-0.6,1.2-1.3,1.2s-1.3-0.5-1.3-1.2C100,65.1,100.2,64.7,100.7,64.6z M100.5,65.6c0,0.4,0.4,0.8,0.8,0.8s0.8-0.4,0.8-0.8
						s-0.4-0.8-0.8-0.8C100.9,64.8,100.5,65.1,100.5,65.6z M100.6,63.7c0,0.3,0.3,0.7,0.7,0.7c0.3,0,0.7-0.4,0.7-0.7
						c0-0.4-0.3-0.7-0.7-0.7C100.9,62.9,100.6,63.3,100.6,63.7z M103,63.1v-0.5h2.9l-2.5,4.2l-0.4-0.2l2.1-3.5H103z M106,64.7
						c0-0.9,0.4-2.2,1.4-2.2c1.1,0,1.4,1.3,1.4,2.2c0,0.8-0.4,2.2-1.4,2.2S106,65.5,106,64.7z M106.4,64.7c0,0.6,0.2,1.7,0.9,1.7
						c0.7,0,0.9-1.1,0.9-1.7S108,63,107.3,63C106.6,62.9,106.4,64.1,106.4,64.7z M111.8,66.3v0.5h-2.6l1.8-2.2
						c0.2-0.2,0.4-0.5,0.4-0.7c0-0.4-0.4-0.8-0.8-0.8s-0.8,0.3-0.8,0.8h-0.5c0.1-0.7,0.6-1.2,1.3-1.2c0.7,0,1.3,0.5,1.3,1.2
						c0,0.3-0.1,0.6-0.3,0.9l-1.3,1.7h1.5V66.3z"/>
				</g>
			</g>
			<g id="g18110">
				<g id="h18110">
					<rect id="b18110" x="9.1" y="129.3" class="st6" width="28.8" height="20.9"/>
					<path id="t18110" class="st5" d="M17,137.8l0.3-0.5h0.9v4.1h-0.5v-3.7L17,137.8L17,137.8z M20.1,139.3
						c-0.3-0.2-0.5-0.5-0.5-0.9c0-0.7,0.5-1.2,1.2-1.2s1.2,0.5,1.2,1.2c0,0.4-0.2,0.7-0.5,0.9c0.4,0.1,0.6,0.5,0.6,1
						c0,0.8-0.6,1.2-1.3,1.2s-1.3-0.5-1.3-1.2C19.4,139.8,19.6,139.4,20.1,139.3z M19.9,140.3c0,0.4,0.4,0.8,0.8,0.8
						s0.8-0.4,0.8-0.8c0-0.4-0.4-0.8-0.8-0.8S19.9,139.8,19.9,140.3z M20,138.4c0,0.3,0.4,0.7,0.7,0.7s0.7-0.4,0.7-0.7
						c0-0.4-0.3-0.7-0.7-0.7S20,138,20,138.4z M22.6,137.8l0.3-0.5h0.9v4.1h-0.5v-3.7L22.6,137.8L22.6,137.8z M25.1,137.8l0.3-0.5
						h0.9v4.1h-0.5v-3.7L25.1,137.8L25.1,137.8z M27.5,139.4c0-0.9,0.4-2.2,1.4-2.2s1.4,1.3,1.4,2.2c0,0.8-0.4,2.2-1.4,2.2
						S27.5,140.2,27.5,139.4z M28,139.4c0,0.6,0.2,1.7,0.9,1.7s0.9-1.1,0.9-1.7s-0.2-1.7-0.9-1.7S28,138.8,28,139.4z"/>
				</g>
			</g>
			<g id="g18108">
				<g id="h18108">
					<rect id="b18108" x="9.1" y="108.5" class="st6" width="28.8" height="20.9"/>
					<path id="t18108" class="st5" d="M16.6,117.3l0.3-0.5h0.9v4.1h-0.5v-3.7L16.6,117.3L16.6,117.3z M19.7,118.8
						c-0.3-0.2-0.5-0.5-0.5-0.9c0-0.7,0.5-1.2,1.2-1.2s1.2,0.5,1.2,1.2c0,0.4-0.2,0.7-0.5,0.9c0.4,0.1,0.6,0.5,0.6,1
						c0,0.8-0.6,1.2-1.3,1.2s-1.3-0.5-1.3-1.2C19.1,119.4,19.3,119,19.7,118.8z M19.5,119.8c0,0.4,0.4,0.8,0.8,0.8s0.8-0.4,0.8-0.8
						s-0.4-0.8-0.8-0.8S19.5,119.4,19.5,119.8z M19.6,117.9c0,0.3,0.4,0.7,0.7,0.7s0.7-0.4,0.7-0.7c0-0.4-0.3-0.7-0.7-0.7
						S19.6,117.5,19.6,117.9z M22.3,117.3l0.3-0.5h0.9v4.1H23v-3.7L22.3,117.3L22.3,117.3z M24.6,118.9c0-0.9,0.4-2.2,1.4-2.2
						s1.4,1.3,1.4,2.2c0,0.8-0.4,2.2-1.4,2.2S24.6,119.7,24.6,118.9z M25.1,118.9c0,0.6,0.2,1.7,0.9,1.7s0.9-1.1,0.9-1.7
						s-0.2-1.7-0.9-1.7S25.1,118.3,25.1,118.9z M28.6,118.8c-0.3-0.2-0.5-0.5-0.5-0.9c0-0.7,0.5-1.2,1.2-1.2s1.2,0.5,1.2,1.2
						c0,0.4-0.2,0.7-0.5,0.9c0.4,0.1,0.6,0.5,0.6,1c0,0.8-0.6,1.2-1.3,1.2s-1.3-0.5-1.3-1.2C28,119.4,28.2,119,28.6,118.8z
						 M28.5,119.8c0,0.4,0.4,0.8,0.8,0.8s0.8-0.4,0.8-0.8s-0.4-0.8-0.8-0.8S28.5,119.4,28.5,119.8z M28.6,117.9
						c0,0.3,0.4,0.7,0.7,0.7s0.7-0.4,0.7-0.7c0-0.4-0.3-0.7-0.7-0.7S28.6,117.5,28.6,117.9z"/>
				</g>
			</g>
			<g id="g18104">
				<g id="h18104">
					<rect id="b18104" x="9.1" y="74.1" class="st6" width="28.8" height="20.9"/>
					<path id="t18104" class="st5" d="M16.7,83.2l0.3-0.5h0.9v4.1h-0.5v-3.7L16.7,83.2L16.7,83.2z M19.7,84.7
						c-0.3-0.2-0.5-0.5-0.5-0.9c0-0.7,0.5-1.2,1.2-1.2s1.2,0.5,1.2,1.2c0,0.4-0.2,0.7-0.5,0.9c0.4,0.1,0.6,0.5,0.6,1
						c0,0.8-0.6,1.2-1.3,1.2s-1.3-0.5-1.3-1.2C19.1,85.3,19.3,84.9,19.7,84.7z M19.6,85.7c0,0.4,0.4,0.8,0.8,0.8s0.8-0.4,0.8-0.8
						s-0.4-0.8-0.8-0.8S19.6,85.3,19.6,85.7z M19.7,83.8c0,0.3,0.4,0.7,0.7,0.7s0.7-0.4,0.7-0.7c0-0.4-0.3-0.7-0.7-0.7
						S19.7,83.4,19.7,83.8z M22.3,83.2l0.3-0.5h0.9v4.1H23v-3.7L22.3,83.2L22.3,83.2z M24.6,84.8c0-0.9,0.4-2.2,1.4-2.2
						s1.4,1.3,1.4,2.2c0,0.8-0.4,2.2-1.4,2.2S24.6,85.7,24.6,84.8z M25.1,84.8c0,0.6,0.2,1.7,0.9,1.7s0.9-1.1,0.9-1.7
						s-0.2-1.7-0.9-1.7S25.1,84.2,25.1,84.8z M30.7,85.8v0.4h-0.5v0.6h-0.5v-0.6h-2l2.5-3.7v3.3C30.2,85.8,30.7,85.8,30.7,85.8z
						 M29.7,84.1L29.7,84.1l-1.2,1.7h1.2V84.1z"/>
				</g>
			</g>
			<g id="g18102">
				<g id="h18102">
					<rect id="b18102" x="9.1" y="54.3" class="st6" width="28.8" height="19.7"/>
					<path id="t18102" class="st5" d="M16.7,63.1l0.3-0.5h0.9v4.1h-0.5V63L16.7,63.1L16.7,63.1z M19.7,64.6
						c-0.3-0.2-0.5-0.5-0.5-0.9c0-0.7,0.5-1.2,1.2-1.2s1.2,0.5,1.2,1.2c0,0.4-0.2,0.7-0.5,0.9c0.4,0.1,0.6,0.5,0.6,1
						c0,0.8-0.6,1.2-1.3,1.2s-1.3-0.5-1.3-1.2C19.1,65.1,19.3,64.7,19.7,64.6z M19.6,65.6c0,0.4,0.4,0.8,0.8,0.8s0.8-0.4,0.8-0.8
						s-0.4-0.8-0.8-0.8S19.6,65.1,19.6,65.6z M19.7,63.7c0,0.3,0.4,0.7,0.7,0.7s0.7-0.4,0.7-0.7c0-0.4-0.3-0.7-0.7-0.7
						S19.7,63.3,19.7,63.7z M22.3,63.1l0.3-0.5h0.9v4.1H23V63L22.3,63.1L22.3,63.1z M24.7,64.7c0-0.9,0.4-2.2,1.4-2.2
						s1.4,1.3,1.4,2.2c0,0.8-0.4,2.2-1.4,2.2S24.7,65.5,24.7,64.7z M25.1,64.7c0,0.6,0.2,1.7,0.9,1.7s0.9-1.1,0.9-1.7S26.7,63,26,63
						S25.1,64.1,25.1,64.7z M30.5,66.3v0.5h-2.6l1.8-2.2c0.2-0.2,0.4-0.5,0.4-0.7c0-0.4-0.4-0.8-0.8-0.8s-0.8,0.3-0.8,0.8H28
						c0.1-0.7,0.5-1.2,1.3-1.2c0.7,0,1.3,0.5,1.3,1.2c0,0.3-0.1,0.6-0.3,0.9L29,66.5h1.5V66.3z"/>
				</g>
			</g>
		</g>
	</g>
	<g id="gDeck18HavenDeluxeOwnersSuiteLargeBalconyH2">
		<g id="hDeck18HavenDeluxeOwnersSuiteLargeBalconyH2">
			<g id="g18700">
				<g id="h18700">
					<path id="b18700" class="st6" d="M123,21c-0.1-4-7.3-10.5-16.1-13.5c-6.1-2.1-12.2-4.3-21.4-5.7l0.2,52.6h33.1V42.2l4.5-0.1
						C123.3,42.1,123,21,123,21z"/>
					<path id="t18700" class="st5" d="M97.6,29.7l0.3-0.5h0.9v4.1h-0.5v-3.7L97.6,29.7L97.6,29.7z M100.7,31.2
						c-0.3-0.2-0.5-0.5-0.5-0.9c0-0.7,0.5-1.2,1.2-1.2s1.2,0.5,1.2,1.2c0,0.4-0.2,0.7-0.5,0.9c0.4,0.1,0.6,0.5,0.6,1
						c0,0.8-0.6,1.2-1.3,1.2s-1.3-0.5-1.3-1.2C100.1,31.8,100.3,31.4,100.7,31.2z M100.6,32.2c0,0.4,0.4,0.8,0.8,0.8
						s0.8-0.4,0.8-0.8c0-0.4-0.4-0.8-0.8-0.8S100.6,31.8,100.6,32.2z M100.7,30.3c0,0.3,0.4,0.7,0.7,0.7c0.3,0,0.7-0.4,0.7-0.7
						c0-0.4-0.3-0.7-0.7-0.7S100.7,29.9,100.7,30.3z M103.1,29.7v-0.5h2.9l-2.5,4.2l-0.4-0.2l2.1-3.5H103.1L103.1,29.7z M106,31.3
						c0-0.9,0.4-2.2,1.4-2.2c1.1,0,1.4,1.3,1.4,2.2c0,0.8-0.4,2.2-1.4,2.2S106,32.1,106,31.3z M106.5,31.3c0,0.6,0.2,1.7,0.9,1.7
						c0.7,0,0.9-1.1,0.9-1.7s-0.2-1.7-0.9-1.7C106.7,29.6,106.5,30.7,106.5,31.3z M109.3,31.3c0-0.9,0.4-2.2,1.4-2.2
						c1.1,0,1.4,1.3,1.4,2.2c0,0.8-0.4,2.2-1.4,2.2S109.3,32.1,109.3,31.3z M109.8,31.3c0,0.6,0.2,1.7,0.9,1.7
						c0.7,0,0.9-1.1,0.9-1.7s-0.2-1.7-0.9-1.7C110,29.6,109.8,30.7,109.8,31.3z"/>
				</g>
			</g>
			<g id="g18100">
				<g id="h18100">
					<path id="b18100" class="st6" d="M3.8,21.7c0-4.9,6.8-10.1,15.7-13.8c5.9-2.5,13.1-5,22.3-6.4v53.1h-33v-12l-5-0.2L3.8,21.7z"
						/>
					<path id="t18100" class="st5" d="M16.6,29.7l0.3-0.5h0.9v4.1h-0.5v-3.7L16.6,29.7L16.6,29.7z M19.6,31.2
						c-0.3-0.2-0.5-0.5-0.5-0.9c0-0.7,0.5-1.2,1.2-1.2s1.2,0.5,1.2,1.2c0,0.4-0.2,0.7-0.5,0.9c0.4,0.1,0.6,0.5,0.6,1
						c0,0.8-0.6,1.2-1.3,1.2S19,33,19,32.2C19,31.8,19.2,31.4,19.6,31.2z M19.5,32.2c0,0.4,0.4,0.8,0.8,0.8s0.8-0.4,0.8-0.8
						c0-0.4-0.4-0.8-0.8-0.8S19.5,31.8,19.5,32.2z M19.6,30.3c0,0.3,0.4,0.7,0.7,0.7s0.7-0.4,0.7-0.7c0-0.4-0.3-0.7-0.7-0.7
						S19.6,29.9,19.6,30.3z M22.2,29.7l0.3-0.5h0.9v4.1h-0.5v-3.7L22.2,29.7L22.2,29.7z M24.6,31.3c0-0.9,0.4-2.2,1.4-2.2
						s1.4,1.3,1.4,2.2c0,0.8-0.4,2.2-1.4,2.2S24.6,32.1,24.6,31.3z M25.1,31.3c0,0.6,0.2,1.7,0.9,1.7s0.9-1.1,0.9-1.7
						s-0.2-1.7-0.9-1.7S25.1,30.7,25.1,31.3z M27.9,31.3c0-0.9,0.4-2.2,1.4-2.2s1.4,1.3,1.4,2.2c0,0.8-0.4,2.2-1.4,2.2
						S27.9,32.1,27.9,31.3z M28.4,31.3c0,0.6,0.2,1.7,0.9,1.7s0.9-1.1,0.9-1.7s-0.2-1.7-0.9-1.7S28.4,30.7,28.4,31.3z"/>
				</g>
			</g>
		</g>
	</g>
	<g id="gDeck18HavenCourtyardPenthouseLargeBalconyHE">
		<g id="hDeck18HavenCourtyardPenthouseLargeBalconyHE">
			<g id="g18126">
				<g id="h18126">
					<rect id="b18126" x="9.1" y="264.3" class="st6" width="28.8" height="12.7"/>
					<path id="t18126" class="st5" d="M16.9,269l0.3-0.5h0.9v4.1h-0.5V269H16.9L16.9,269z M20,270.6c-0.3-0.2-0.5-0.5-0.5-0.9
						c0-0.7,0.5-1.2,1.2-1.2s1.2,0.5,1.2,1.2c0,0.4-0.2,0.7-0.5,0.9c0.4,0.1,0.6,0.5,0.6,1c0,0.8-0.6,1.2-1.3,1.2s-1.3-0.5-1.3-1.2
						C19.4,271.1,19.6,270.7,20,270.6z M19.8,271.5c0,0.4,0.4,0.8,0.8,0.8s0.8-0.4,0.8-0.8s-0.4-0.8-0.8-0.8S19.8,271.1,19.8,271.5z
						 M19.9,269.6c0,0.3,0.4,0.7,0.7,0.7s0.7-0.4,0.7-0.7c0-0.4-0.3-0.7-0.7-0.7S19.9,269.2,19.9,269.6z M22.6,269l0.3-0.5h0.9v4.1
						h-0.5V269H22.6L22.6,269z M27.5,272.2v0.5h-2.6l1.8-2.2c0.2-0.2,0.4-0.5,0.4-0.7c0-0.4-0.4-0.8-0.8-0.8s-0.8,0.3-0.8,0.8H25
						c0.1-0.7,0.5-1.2,1.3-1.2c0.7,0,1.3,0.5,1.3,1.2c0,0.3-0.1,0.6-0.3,0.9l-1.3,1.7L27.5,272.2L27.5,272.2z M30.1,268.7l-1.1,1.5
						l0,0c0.1-0.1,0.3-0.1,0.4-0.1c0.7,0,1.2,0.6,1.2,1.3c0,0.8-0.6,1.4-1.3,1.4c-0.7,0-1.4-0.6-1.4-1.3c0-0.4,0.2-0.8,0.4-1.1
						l1.4-1.9L30.1,268.7z M30.1,271.5c0-0.5-0.4-0.9-0.9-0.9c-0.4,0-0.9,0.4-0.9,0.9s0.4,0.9,0.9,0.9
						C29.7,272.3,30.1,271.9,30.1,271.5z"/>
				</g>
			</g>
		</g>
	</g>
</g>
<g id="BLISS_DECK_18_TOP">
	<g id="gDeck18Locations">
		<path width="124.25" height="229.3" id="_x31_8Aft" class="st7" d="M1.4,818.3c0,10.6,15.6,21.8,62.5,21.8s61.8-11.2,61.8-21.8c0-9.2,0-161.3,0-207.4L1.4,610.8
			C1.4,656.8,1.4,809,1.4,818.3z"/>
		<path width="129.6" height="305" id="_x31_8MidShip" class="st7" d="M36.9,622.6l52.7,0.1v-11.8h36c0-20.7,0-33.9,0-33.9l0.1-6.1l-16.3,0.1l-0.2-56.2
			l16.6-0.1l0.2-62.5l4-7.8l0.1-16.9l-3.9-7.8l-0.4-102L97.4,318v33H30.2l0.2-33.3H1.9v102.1l-1.4,7.7l0.1,16.7l4,8.1L5,568.7
			l0.1,8.5c0,0,0,13.4,0,33.7h31.8C36.9,610.9,36.9,622.6,36.9,622.6z"/>
		<path width="123.7" height="350.5" id="_x31_8Forward" class="st7" d="M64.1,0.5h0.3c23.1,0,33.8,3.3,45.1,8c7.4,3.1,13.6,7.9,13.6,13.7c0,0.6,0,20.1,0,20.1
			h-4.6v240.2l7.1,16V318H97.4v33H64.6h-1.5H30.2v-33H1.9v-19.5l7.1-16V42.3H4.1c0,0,0-19.4,0-20c0-5.8,6.5-10.7,13.9-13.8
			c11.3-4.7,22-8,45.1-8h0.3C63.4,0.5,64.1,0.5,64.1,0.5z"/>
	</g>
	<rect x="40.3" y="552.1" class="st8" width="45.7" height="69"/>
	<polyline class="st8" points="95.5,610.9 89.6,610.9 89.6,622.7 36.9,622.6 36.9,610.8 18.4,610.8 	"/>
	<polyline class="st8" points="38.3,739.5 38.3,722.1 42.4,709.5 42.4,671.6 60.3,671.6 63.2,671.6 84,671.6 84,709.5 88.2,722.1 
		88.2,739.5 	"/>
	<polyline class="st8" points="62.7,739.5 102.3,739.5 102.3,792.8 	"/>
	<polyline class="st8" points="62.9,739.5 24.2,739.5 24.2,793.7 	"/>
	<polyline class="st8" points="102.7,610.9 125.6,610.9 125.6,793.7 25.4,793.7 6.2,793.7 6.4,764.7 1.4,764.7 1.4,610.8 
		10.4,610.8 	"/>
	<path class="st8" d="M64.1,0.5h0.3c23.1,0,33.8,3.3,45.1,8c7.4,3.1,13.6,7.9,13.6,13.7c0,0.6,0,20.1,0,20.1h-4.6v240.2l7.1,16V318
		H97.4v33H64.6h-1.5H30.2v-33H1.9v-19.5l7.1-16V42.3H4.1c0,0,0-19.4,0-20c0-5.8,6.5-10.7,13.9-13.8c11.3-4.7,22-8,45.1-8h0.3
		C63.4,0.5,64.1,0.5,64.1,0.5z"/>
</g>
</svg>
