<?xml version="1.0" encoding="utf-8"?>
<!-- Generator: Adobe Illustrator 22.1.0, SVG Export Plug-In . SVG Version: 6.00 Build 0)  -->
<svg version="1.1" id="EPIC_FMA_Profile" xmlns="http://www.w3.org/2000/svg" xmlns:xlink="http://www.w3.org/1999/xlink" x="0px"
	 y="0px" viewBox="0 0 271.6 87.5" style="enable-background:new 0 0 271.6 87.5;" xml:space="preserve">
<style type="text/css">
	.st0{fill:#FFFFFF;}
	.st1{fill:#B7DAEA;}
	.st2{fill:none;}
	.st3{fill:none;stroke:#D3DADF;stroke-width:0.52;stroke-miterlimit:10;}
	.st4{fill:#231F20;}
	.st5{font-family:'Futura-Medium';}
	.st6{font-size:9px;}
	.st7{fill:#0E84BD;}
	.st8{font-family:'Futura-Bold';}
	.st9{font-size:6.25px;}
</style>
<g id="gEpicForward">
	<g id="hEpicForward">
		<rect id="back" x="177.8" y="0.3" class="st0" width="93.6" height="87"/>
		<polygon id="ship" class="st1" points="257.4,57.5 231,57.6 231,54.8 221.7,45.3 223.7,45.3 224.8,40.6 219.8,40.6 216.9,34.3 
			219.4,27.1 213.9,27.1 213.9,23.7 210.1,23.7 208.8,22 209.7,22 210.1,21.1 208,21.1 207.2,20.1 208.8,20.1 209.2,19.2 
			203.7,19.2 202.9,18 201.7,18 202.5,19.2 202.1,19.2 202.7,20.1 203.1,20.1 203.8,21.1 203.1,21.1 203.6,22 204.5,22 205.7,23.7 
			184.4,23.8 184.4,23 183.9,22 182.5,22 181.1,20.5 179.2,20.5 180.6,22.5 180.6,23.8 179.1,23.8 179.1,22.1 177.8,22.2 177.8,72 
			240.4,72 		"/>
		<rect id="check" x="177.8" y="84.1" class="st2" width="93.6" height="3.1"/>
		<rect id="border" x="177.8" y="0.3" class="st3" width="93.6" height="87"/>
		<text id="text" transform="matrix(1 0 0 1 188.975 54.3583)" class="st4 st5 st6">+  $0</text>
		<text id="title" transform="matrix(1 0 0 1 205.7521 15.7)" class="st7 st8 st9">FORWARD</text>
	</g>
</g>
<g id="gEpicMidShip">
	<g id="hEpicMidShip">
		<rect id="back_1_" x="98" y="0.3" class="st0" width="79.8" height="87"/>
		<path id="ship_1_" class="st1" d="M176.9,22.2l-1.1-1.5h-2l1.1,1.4h-10.3v1.6h-3.9v-0.6h-0.3v-1H158V23h-0.2v10.5h-50.9
			c-1.2-5.9-7.9-10.5-8.2-10.7H98V72h79.8V22.2H176.9z"/>
		<rect id="check_1_" x="98" y="84.1" class="st2" width="79.8" height="3.1"/>
		<rect id="border_1_" x="98" y="0.3" class="st3" width="79.8" height="87"/>
		<text id="text_1_" transform="matrix(1 0 0 1 123.975 54.3583)" class="st4 st5 st6">+  $15</text>
		<text id="title_1_" transform="matrix(1 0 0 1 123.2 15.7)" class="st7 st8 st9">MID-SHIP</text>
	</g>
</g>
<g id="gEpicAft">
	<g id="hEpicAft">
		<rect id="back_2_" x="0.3" y="0.3" class="st0" width="97.7" height="87"/>
		<path id="ship_2_" class="st1" d="M97.4,22.8l-0.8-0.9h-1l0.9,0.9h-0.6l-0.8-0.9h-1l0.9,0.9h-0.5l-0.9-0.9h-1l0.9,0.9H93l-0.9-0.9
			h-1l0.9,0.9h-0.5l-0.9-0.9h-0.9l0.8,0.9h-1.9l0.8,0.5c0,0,1.2,0.8,1.2,1.8c-0.1,0.6-0.3,1.1-0.7,1.6c-0.7,1-1.3,2.1-1.7,3.2
			c-0.2,1.2-0.3,2.5-0.3,3.7h-0.8v-6.1H58.3v3.1H24.9v0.3c0,0.3,0.2,24.9,0,32.9c-0.1,3.5-5.9,7.7-6,7.7L18.2,72H98V22.8H97.4z"/>
		<rect id="check_2_" x="0.3" y="84.1" class="st2" width="97.7" height="3.1"/>
		<rect id="border_2_" x="0.3" y="0.3" class="st3" width="97.7" height="87"/>
		<text id="text_2_" transform="matrix(1 0 0 1 49.4958 54.3583)" class="st4 st5 st6">+  $0</text>
		<text id="title_2_" transform="matrix(1 0 0 1 42.4 15.7)" class="st7 st8 st9">AFT</text>
	</g>
</g>
</svg>
