<?xml version="1.0" encoding="utf-8"?>
<!-- Generator: Adobe Illustrator 25.4.1, SVG Export Plug-In . SVG Version: 6.00 Build 0)  -->
<svg version="1.1" id="JOY_DECK_07" xmlns="http://www.w3.org/2000/svg" xmlns:xlink="http://www.w3.org/1999/xlink" x="0px"
	 y="0px" width="140.5px" height="1034.3px" viewBox="0 0 140.5 1034.3" style="enable-background:new 0 0 140.5 1034.3;"
	 xml:space="preserve">
<style type="text/css">
	.st0{fill:#FFFFFF;}
	.st1{fill:none;stroke:#D5DCE0;stroke-width:0.5;}
	.st2{fill:#6E8496;}
	.st3{fill:none;}
	.st4{fill:none;stroke:#076FA0;stroke-miterlimit:10;}
</style>
<g id="JOY_DECK_07_BOTTOM">
	<path class="st0" d="M69.5,1033.8c-34.7,0-69-5.9-69-25.4c0,0,1.8-880.4,1.8-886.9c0-38.5,40-93,46-100.5S60.8,0.5,69.8,0.5h0h0.5
		c8.9,0,16.7,13,22.7,20.5s45.3,62,45.3,100.5c0,6.5,1.7,886.9,1.7,886.9c0,19.5-34.9,25.4-69.1,25.4H69.5z"/>
	<rect x="63.9" y="423.7" class="st1" width="6.4" height="1"/>
	<rect x="57.4" y="416.9" class="st1" width="12.9" height="1"/>
	<rect x="70.4" y="423.7" class="st1" width="6.4" height="1"/>
	<rect x="70.4" y="416.9" class="st1" width="12.9" height="1"/>
	<rect x="57.4" y="415" class="st1" width="12.9" height="1"/>
	<rect x="70.4" y="415" class="st1" width="12.9" height="1"/>
	<polyline class="st1" points="57.5,419.9 50.1,421.4 50.1,424.4 48.5,424.4 48.5,406.9 	"/>
	<polyline class="st1" points="48.4,423.4 39.2,423.4 39.1,411.7 37.8,411.7 37.8,406.9 92,406.8 	"/>
	<polyline class="st1" points="83.2,419.9 90.3,421.4 90.3,424.4 92,424.4 92,386.8 	"/>
	<path class="st1" d="M94.5,511.5c-2.5,12.5-12.1,13.7-17.6,12c-7.9-2.4-11.7-9.3-8.5-19.1l8.2-25.6l23.6,6l-5.6,26.8L94.5,511.5z"
		/>
	<polyline class="st1" points="114.3,584.2 102,584.2 102,594.2 95,594.2 95,605.1 78.8,605.1 78.8,565.9 94.9,565.9 94.9,575 
		101.2,575 101.2,550.5 107.3,550.5 107.3,558 114,558 	"/>
	<rect x="86.2" y="853.3" class="st1" width="6.4" height="1"/>
	<polygon class="st1" points="90.8,680.8 90.8,684.4 98.3,684.4 98.5,710.6 93.2,710.6 93.2,736.8 91.2,744 91.2,748.3 79.2,748.3 
		79.3,680.8 	"/>
	<polyline class="st1" points="14.8,920.8 63.3,920.8 63.3,852.9 60.9,852.9 	"/>
	<path class="st1" d="M79.8,852.8h-2.5v48.9h32v19.1h16.8c0,0-0.4,41.5-0.2,41.3h-14.4l-0.1,17.8h8.5v16.3h-8.2v7h8.1v24.5"/>
	<line class="st1" x1="47.9" y1="844.5" x2="25.4" y2="844.5"/>
	<path class="st1" d="M92.3,844.5h22.2c0,0,0,17.3,0,17.3l-37.2,0.1"/>
	<path class="st1" d="M59.4,624c-0.8,1.2-1.5,2.5-2.1,3.9c0,0,0,0,0,0.1"/>
	<path class="st1" d="M59.1,632.2c-0.8,3.3-0.8,5-0.8,6.9C58.3,637.2,58.4,635.5,59.1,632.2c0.4-1.6-0.1-3.8-3-5"/>
	<path class="st1" d="M63.5,633.2c-0.7,3-0.9,5-0.9,5.9C62.6,637.9,62.8,636.2,63.5,633.2c1.1-5-2.2-8.4-5.8-10"/>
	<polyline class="st1" points="58.1,628.5 61,625.3 59.4,624 57.2,627.8 	"/>
	<polyline class="st1" points="58.6,629.1 62,626.5 63,627.8 59.1,629.6 59.2,630.4 63.5,629.3 63.6,631 59.3,631.3 59.2,632 
		63.6,632.5 63.4,633.6 59,633 58.8,634.1 63.2,634.6 63,635.7 58.6,635.2 58.4,636.5 62.9,636.7 62.7,637.9 58.3,637.7 58.3,638.7 
			"/>
	<path class="st1" d="M59.4,653.8c-0.8-1.2-1.5-2.5-2.1-3.9c0,0,0,0,0-0.1"/>
	<path class="st1" d="M59.1,645.7c-0.8-3.3-0.8-5-0.8-6.9C58.3,640.6,58.4,642.4,59.1,645.7c0.4,1.6-0.1,3.8-3,5"/>
	<path class="st1" d="M63.5,644.7c-0.7-3-0.9-5-0.9-5.9C62.6,639.9,62.8,641.7,63.5,644.7c1.1,5-2.2,8.4-5.8,10"/>
	<polyline class="st1" points="58.1,649.4 61,652.6 59.4,653.8 57.2,650.1 	"/>
	<polyline class="st1" points="58.6,648.8 62,651.4 63,650.1 59.1,648.2 59.2,647.5 63.5,648.6 63.6,646.9 59.3,646.6 59.2,645.8 
		63.6,645.4 63.4,644.3 59,644.9 58.8,643.8 63.2,643.2 63,642.2 58.6,642.6 58.4,641.4 62.9,641.1 62.7,639.9 58.3,640.2 
		58.3,639.2 	"/>
	<ellipse class="st1" cx="70.3" cy="638.6" rx="16.2" ry="24.9"/>
	<line class="st1" x1="45.2" y1="844.3" x2="45.2" y2="861.8"/>
	<polyline class="st1" points="36.3,844.6 36.3,851.5 25.2,851.5 	"/>
	<line class="st1" x1="99.4" y1="844.4" x2="99.4" y2="861.7"/>
	<polyline class="st1" points="49.3,832.8 48,836.5 25.4,836.5 	"/>
	<polyline class="st1" points="90.5,832.8 91.7,836.5 114.4,836.5 	"/>
	<rect x="57.5" y="409.8" class="st1" width="12.9" height="14.9"/>
	<rect x="57.5" y="417.9" class="st1" width="12.9" height="1"/>
	<rect x="57.5" y="418.9" class="st1" width="12.9" height="1"/>
	<rect x="57.5" y="419.9" class="st1" width="12.9" height="1"/>
	<polygon class="st1" points="59.6,421.8 70.4,421.8 70.4,420.8 57.5,420.8 	"/>
	<polygon class="st1" points="61.7,422.8 70.4,422.8 70.4,421.8 59.6,421.8 	"/>
	<rect x="64.2" y="422.8" class="st1" width="6.2" height="1"/>
	<rect x="64.2" y="423.7" class="st1" width="6.2" height="1"/>
	<polygon class="st1" points="57.5,424.7 63.8,424.7 63.8,423.8 57.5,420.8 	"/>
	<path class="st1" d="M63.8,413.5c0-0.1,0.1-0.2,0.2-0.2l0,0c0.1,0,0.2,0.1,0.2,0.2v11.3c0,0.1-0.1,0.2-0.2,0.2l0,0
		c-0.1,0-0.2-0.1-0.2-0.2C63.8,424.8,63.8,413.5,63.8,413.5z"/>
	<rect x="70.3" y="409.8" class="st1" width="12.9" height="14.9"/>
	<rect x="70.3" y="417.9" class="st1" width="12.9" height="1"/>
	<rect x="70.3" y="418.9" class="st1" width="12.9" height="1"/>
	<rect x="70.3" y="419.9" class="st1" width="12.9" height="1"/>
	<polygon class="st1" points="81.1,421.8 70.3,421.8 70.3,420.8 83.2,420.8 	"/>
	<polygon class="st1" points="79,422.8 70.3,422.8 70.3,421.8 81.1,421.8 	"/>
	<rect x="70.3" y="422.8" class="st1" width="6.2" height="1"/>
	<rect x="70.3" y="423.7" class="st1" width="6.2" height="1"/>
	<polygon class="st1" points="83.2,424.7 76.9,424.7 76.9,423.8 83.2,420.8 	"/>
	<path class="st1" d="M77,413.5c0-0.1-0.1-0.2-0.2-0.2l0,0c-0.1,0-0.2,0.1-0.2,0.2v11.3c0,0.1,0.1,0.2,0.2,0.2l0,0
		c0.1,0,0.2-0.1,0.2-0.2V413.5z"/>
	<polyline class="st1" points="25,433 32,433 32,436.9 41.9,436.9 41.9,432.9 49.8,432.9 	"/>
	<polyline class="st1" points="91.3,433 104.2,433 104.2,436.9 114.2,436.9 	"/>
	<rect x="53.5" y="434.4" class="st1" width="9.2" height="33.3"/>
	<line class="st1" x1="62.5" y1="459.4" x2="53.6" y2="467.4"/>
	<line class="st1" x1="62.4" y1="467.4" x2="53.5" y2="459.4"/>
	<polyline class="st1" points="62.5,451.3 53.6,459.3 62.4,459.3 53.5,451.3 	"/>
	<polyline class="st1" points="62.5,442.8 53.6,450.9 62.4,450.9 53.5,442.8 	"/>
	<polyline class="st1" points="62.5,434.4 53.6,442.7 62.4,442.7 53.5,434.4 	"/>
	<polygon class="st1" points="64.5,473.9 64.5,467.7 53.5,467.7 53.5,434.3 64.5,434.3 64.5,432.7 49.9,432.7 49.9,473.9 	"/>
	<rect x="78.6" y="434.4" class="st1" width="9.2" height="33.3"/>
	<line class="st1" x1="78.8" y1="459.4" x2="87.7" y2="467.4"/>
	<line class="st1" x1="78.9" y1="467.4" x2="87.8" y2="459.4"/>
	<polyline class="st1" points="78.8,451.3 87.7,459.3 78.9,459.3 87.8,451.3 	"/>
	<polyline class="st1" points="78.8,442.8 87.7,450.9 78.9,450.9 87.8,442.8 	"/>
	<polyline class="st1" points="78.8,434.4 87.7,442.7 78.9,442.7 87.8,434.4 	"/>
	<polygon class="st1" points="76.8,473.9 76.8,467.7 87.8,467.7 87.8,434.3 76.8,434.3 76.8,432.7 91.4,432.7 91.4,473.9 	"/>
	<rect x="79.2" y="553.9" class="st1" width="16.2" height="3.9"/>
	<polyline class="st1" points="47.4,688.7 47.4,684.6 49.4,675.9 61.3,675.9 61.3,752.5 49.4,752.5 49.4,742.7 47.4,736.6 
		47.4,710.4 	"/>
	<rect x="41.4" y="356.3" class="st1" width="52.1" height="30.4"/>
	<polyline class="st1" points="122.8,389.5 111.2,389.5 111.2,386.7 109,386.7 109,381.2 113.2,381.2 113,355.8 119.9,355.8 	"/>
	<line class="st1" x1="25.2" y1="381.3" x2="25.2" y2="405.9"/>
	<polyline class="st1" points="114.5,844.5 114.5,650.7 131.8,650.7 131.8,592.9 114.3,592.9 114.3,407 	"/>
	<line class="st1" x1="113" y1="844.3" x2="113" y2="861.8"/>
	<polyline class="st1" points="90.5,811 100.3,811 100.3,834.2 107,834.2 107,815.7 114.4,815.7 	"/>
	<line class="st1" x1="25.4" y1="810.9" x2="49.1" y2="810.9"/>
	<polyline class="st1" points="25.3,701.4 39.3,701.4 39.3,688.5 47.2,688.5 	"/>
	<line class="st1" x1="25.3" y1="710.3" x2="47.2" y2="710.3"/>
	<polyline class="st1" points="131.7,617.8 114.5,617.8 95,609.4 95,603.8 	"/>
	<polyline class="st1" points="100.1,484.8 102.2,474 76.8,473.9 76.5,478.8 	"/>
	<polyline class="st1" points="122.7,396.4 111.3,396.4 111.4,406.8 122.9,406.8 122.9,364.3 119.9,355.8 114.8,355.8 114.6,254.9 
		106.6,242.2 106.6,239.6 91.2,239.6 91.2,222.1 49.6,222.1 49.6,239.6 33.9,239.6 33.9,242 25.9,254.7 25.6,381.2 17.3,381.2 
		17.3,406.2 25.1,406.2 25.1,508.2 28.8,508.2 28.8,516.2 25.3,516.2 25.3,609.6 8,609.6 8,651.6 25.6,651.6 25.6,861.9 63.3,861.8 
			"/>
	<polyline class="st1" points="40.2,406.8 40.2,397 49.1,397 49.1,406.9 	"/>
	<line class="st1" x1="25" y1="399" x2="17" y2="399"/>
	<path class="st1" d="M33.4,379.4c-0.3,0-0.5-0.2-0.5-0.4v-18c0-0.2,0.2-0.4,0.5-0.4s0.5,0.2,0.5,0.4v18
		C33.9,379.2,33.6,379.4,33.4,379.4z"/>
	<path class="st1" d="M33.4,386.1c-0.3,0-0.5-0.2-0.5-0.4v-4.8c0-0.2,0.2-0.4,0.5-0.4s0.5,0.2,0.5,0.4v4.8
		C33.9,385.9,33.6,386.1,33.4,386.1z"/>
	<path class="st1" d="M101.5,379.4c-0.3,0-0.5-0.2-0.5-0.4v-14.1c0-0.2,0.2-0.4,0.5-0.4s0.5,0.2,0.5,0.4V379
		C102,379.2,101.8,379.4,101.5,379.4z"/>
	<path class="st1" d="M101.5,386.1c-0.3,0-0.5-0.2-0.5-0.4v-4.8c0-0.2,0.2-0.4,0.5-0.4s0.5,0.2,0.5,0.4v4.8
		C102,385.9,101.8,386.1,101.5,386.1z"/>
	<rect x="79.8" y="851.3" class="st1" width="12.9" height="1"/>
	<rect x="48" y="851.3" class="st1" width="12.9" height="1"/>
	<rect x="52.7" y="797.8" class="st1" width="9.3" height="33.3"/>
	<line class="st1" x1="61.7" y1="806.1" x2="52.8" y2="798.1"/>
	<line class="st1" x1="61.6" y1="798.1" x2="52.7" y2="806.1"/>
	<polyline class="st1" points="61.7,814.2 52.8,806.2 61.6,806.2 52.7,814.2 	"/>
	<polyline class="st1" points="61.7,822.7 52.8,814.7 61.6,814.7 52.7,822.7 	"/>
	<polyline class="st1" points="61.7,831.1 52.8,822.8 61.6,822.8 52.7,831.1 	"/>
	<polygon class="st1" points="63.9,793.6 63.9,797.8 52.9,797.8 52.9,831.2 63.8,831.2 63.8,832.8 49.3,832.8 49.3,793.6 	"/>
	<rect x="77.8" y="797.8" class="st1" width="9.3" height="33.3"/>
	<line class="st1" x1="78.1" y1="806.1" x2="86.9" y2="798.1"/>
	<line class="st1" x1="78.2" y1="798.1" x2="87" y2="806.1"/>
	<polyline class="st1" points="78.1,814.2 86.9,806.2 78.2,806.2 87,814.2 	"/>
	<polyline class="st1" points="78.1,822.7 86.9,814.7 78.2,814.7 87,822.7 	"/>
	<polyline class="st1" points="78.1,831.1 86.9,822.8 78.2,822.8 87,831.1 	"/>
	<polygon class="st1" points="75.9,793.6 75.9,797.8 86.9,797.8 86.9,831.2 75.9,831.2 75.9,832.8 90.5,832.8 90.5,793.6 	"/>
	<rect x="79.8" y="853.3" class="st1" width="6.4" height="1"/>
	<rect x="79.7" y="843.6" class="st1" width="12.9" height="18.2"/>
	<rect x="79.7" y="849.4" class="st1" width="12.9" height="1"/>
	<rect x="79.7" y="848.5" class="st1" width="12.9" height="1"/>
	<rect x="79.7" y="847.5" class="st1" width="12.9" height="1"/>
	<polygon class="st1" points="90.5,846.5 79.7,846.5 79.7,847.5 92.6,847.5 	"/>
	<polygon class="st1" points="88.4,845.5 79.7,845.5 79.7,846.5 90.5,846.5 	"/>
	<rect x="79.7" y="844.6" class="st1" width="6.2" height="1"/>
	<rect x="79.7" y="843.6" class="st1" width="6.2" height="1"/>
	<polygon class="st1" points="92.6,843.6 86.3,843.6 86.3,844.5 92.6,847.5 	"/>
	<path class="st1" d="M86.3,854.8c0,0.1-0.1,0.2-0.2,0.2l0,0c-0.1,0-0.2-0.1-0.2-0.2v-11.3c0-0.1,0.1-0.2,0.2-0.2l0,0
		c0.1,0,0.2,0.1,0.2,0.2V854.8z"/>
	<rect x="54.5" y="853.3" class="st1" width="6.4" height="1"/>
	<rect x="47.9" y="853.3" class="st1" width="6.4" height="1"/>
	<rect x="48" y="843.6" class="st1" width="12.9" height="18.2"/>
	<rect x="48" y="849.4" class="st1" width="12.9" height="1"/>
	<rect x="48" y="848.5" class="st1" width="12.9" height="1"/>
	<rect x="48" y="847.5" class="st1" width="12.9" height="1"/>
	<polygon class="st1" points="50.1,846.5 60.9,846.5 60.9,847.5 48,847.5 	"/>
	<polygon class="st1" points="52.3,845.5 60.9,845.5 60.9,846.5 50.2,846.5 	"/>
	<rect x="54.8" y="844.6" class="st1" width="6.2" height="1"/>
	<rect x="54.8" y="843.6" class="st1" width="6.2" height="1"/>
	<polygon class="st1" points="48,843.6 54.3,843.6 54.3,844.5 48,847.5 	"/>
	<path class="st1" d="M54.3,854.8c0,0.1,0.1,0.2,0.2,0.2l0,0c0.1,0,0.2-0.1,0.2-0.2v-11.3c0-0.1-0.1-0.2-0.2-0.2l0,0
		c-0.1,0-0.2,0.1-0.2,0.2V854.8z"/>
	<polyline class="st1" points="57,641 60.1,639.3 60.6,639.5 60.5,638.3 61,638.8 63.8,637.4 	"/>
	<rect x="41.4" y="356.3" class="st1" width="34.6" height="30.4"/>
	<polyline class="st1" points="17.3,381.2 17.3,364.5 20,356 20,212.8 2.7,212.8 	"/>
	<polyline class="st1" points="119.9,355.8 119.9,204.5 137.9,204.5 	"/>
	<polyline class="st1" points="14.6,921.1 14.6,962.2 14.5,962.2 28.9,962.2 29,980.1 20.6,980.1 20.6,996.4 28.7,996.4 
		28.7,1003.4 20.7,1003.4 20.7,1027.9 	"/>
	<polyline class="st1" points="28.8,516.2 55.1,516.2 61.7,528.3 61.6,539.3 67.9,539.3 67.9,555.3 42.1,555.3 42.1,572.1 
		47.2,572.1 47.2,565.9 61.3,565.9 61.3,605.2 30.6,605.2 30.6,585 25.3,585 	"/>
	<path class="st1" d="M99.8,802.8h-2v-12c0-2.7-1.3-4-4-4H83v-2h10.8c3.8,0,6,2.2,6,6V802.8z"/>
	<path class="st2" d="M33,853.9h1c1,0,1.7,0.5,1.7,1.8v0.1c0,0.7-0.3,1.2-0.7,1.5l0.8,2.3h-1l-0.6-2H34v2h-1L33,853.9L33,853.9z
		 M34.1,856.6c0.4,0,0.7-0.2,0.7-0.9v-0.1c0-0.7-0.3-0.9-0.8-0.9h0L34.1,856.6L34.1,856.6z M36.2,853.9h1c1,0,1.7,0.5,1.7,1.8v0.1
		c0,0.7-0.3,1.2-0.7,1.5l0.8,2.3h-1l-0.6-2h-0.2v2h-1L36.2,853.9L36.2,853.9z M37.2,856.6c0.4,0,0.7-0.2,0.7-0.9v-0.1
		c0-0.7-0.3-0.9-0.8-0.9h0L37.2,856.6L37.2,856.6z"/>
	<path class="st2" d="M27.9,845.4h1c1,0,1.7,0.5,1.7,1.8v0.1c0,0.7-0.3,1.2-0.7,1.5l0.8,2.3h-1l-0.6-2h-0.2v2h-1L27.9,845.4
		L27.9,845.4z M28.9,848.1c0.4,0,0.7-0.2,0.7-0.9v-0.1c0-0.7-0.3-0.9-0.8-0.9h0L28.9,848.1L28.9,848.1z M31.1,845.4h1
		c1,0,1.7,0.5,1.7,1.8v0.1c0,0.7-0.3,1.2-0.7,1.5l0.8,2.3h-1l-0.6-2h-0.2v2h-1L31.1,845.4L31.1,845.4z M32.1,848.1
		c0.4,0,0.7-0.2,0.7-0.9v-0.1c0-0.7-0.3-0.9-0.8-0.9h0L32.1,848.1L32.1,848.1z"/>
	<path class="st2" d="M103.8,853.9h1c1,0,1.7,0.5,1.7,1.8v0.1c0,0.7-0.3,1.2-0.7,1.5l0.8,2.3h-1l-0.6-2h-0.2v2h-1
		C103.8,859.5,103.8,853.9,103.8,853.9z M104.8,856.6c0.4,0,0.7-0.2,0.7-0.9v-0.1c0-0.7-0.3-0.9-0.8-0.9h0L104.8,856.6L104.8,856.6z
		 M107,853.9h1c1,0,1.7,0.5,1.7,1.8v0.1c0,0.7-0.3,1.2-0.7,1.5l0.8,2.3h-1l-0.6-2h-0.2v2h-1C107,859.5,107,853.9,107,853.9z
		 M108,856.6c0.4,0,0.7-0.2,0.7-0.9v-0.1c0-0.7-0.3-0.9-0.8-0.9h0L108,856.6L108,856.6z"/>
	<path class="st2" d="M64.4,635.6v-0.3c0-1.8,0.6-2.7,1.5-2.7s1.5,0.9,1.5,2.7v0.3c0,1.8-0.6,2.7-1.5,2.7S64.4,637.4,64.4,635.6z
		 M66.4,635.6v-0.3c0-1.4-0.2-1.8-0.5-1.8s-0.5,0.4-0.5,1.8v0.3c0,1.4,0.2,1.8,0.5,1.8S66.4,637,66.4,635.6z M67.9,632.6h0.9
		c1.1,0,1.8,0.6,1.8,1.9v0c0,1.3-0.7,1.9-1.7,1.9h0v1.8h-1V632.6z M68.9,635.6c0.4,0,0.7-0.3,0.7-1v0c0-0.7-0.3-1-0.7-1h0
		L68.9,635.6L68.9,635.6L68.9,635.6z M71,632.6h2.1v0.9h-1.2v1.4h1v0.9h-1v1.4h1.2v0.9H71V632.6z M73.6,632.6h0.9l1,2.8v-2.8h1v5.6
		h-0.9l-1-3v3h-1L73.6,632.6L73.6,632.6z M78.8,633.6h-0.7v-0.9h2.4v0.9h-0.7v4.7h-1V633.6z M80.6,635.6v-0.3c0-1.8,0.6-2.7,1.5-2.7
		c0.9,0,1.5,0.9,1.5,2.7v0.3c0,1.8-0.6,2.7-1.5,2.7C81.2,638.3,80.6,637.4,80.6,635.6z M82.6,635.6v-0.3c0-1.4-0.2-1.8-0.5-1.8
		s-0.5,0.4-0.5,1.8v0.3c0,1.4,0.2,1.8,0.5,1.8S82.6,637,82.6,635.6z M68.4,640.6h0.9c1.2,0,2,0.9,2,2.7v0.2c0,1.8-0.7,2.7-2,2.7
		h-0.9V640.6z M69.4,645.3c0.5,0,0.9-0.4,0.9-1.8v-0.2c0-1.4-0.4-1.8-0.9-1.8h0L69.4,645.3L69.4,645.3z M71.7,640.6h2.1v0.9h-1.2
		v1.4h1v0.9h-1v1.4h1.2v0.9h-2.2V640.6z M74.2,643.5v-0.2c0-2,0.7-2.7,1.6-2.7c0.3,0,0.4,0,0.6,0.1v1c-0.2-0.1-0.4-0.2-0.5-0.2
		c-0.4,0-0.7,0.4-0.7,1.8v0.2c0,1.5,0.3,1.8,0.8,1.8c0.2,0,0.3-0.1,0.5-0.2v1c-0.2,0.1-0.4,0.2-0.7,0.2
		C74.9,646.3,74.2,645.5,74.2,643.5z M77,640.6h1v2.3l0.8-2.3h1.1l-0.9,2.4l1,3.2h-1.1l-0.6-2.1l-0.2,0.6v1.5h-1L77,640.6L77,640.6z
		 M66.3,648.6h0.8c0.9,0,1.8,0.4,1.8,1.4v0c0,0.7-0.4,1.1-0.8,1.3c0.5,0.2,0.9,0.5,0.9,1.2v0.1c0,1-0.8,1.6-1.9,1.6h-0.9V648.6z
		 M67.3,651c0.4,0,0.7-0.2,0.7-0.7v0c0-0.5-0.3-0.7-0.7-0.7h0L67.3,651L67.3,651z M67.3,653.3c0.4,0,0.8-0.3,0.8-0.7v0
		c0-0.5-0.3-0.7-0.8-0.7h0L67.3,653.3L67.3,653.3L67.3,653.3z M69.5,648.6h2.1v0.9h-1.2v1.4h1v0.9h-1v1.4h1.2v0.9h-2.2V648.6z
		 M72.1,648.6h1v4.7h1v0.9h-2C72.1,654.2,72.1,648.6,72.1,648.6z M74.2,651.6v-0.3c0-1.8,0.6-2.7,1.5-2.7s1.5,0.9,1.5,2.7v0.3
		c0,1.8-0.6,2.7-1.5,2.7S74.2,653.4,74.2,651.6z M76.2,651.6v-0.3c0-1.4-0.2-1.8-0.5-1.8s-0.5,0.4-0.5,1.8v0.3
		c0,1.4,0.2,1.8,0.5,1.8S76.2,653,76.2,651.6z M77.3,648.6h1l0.4,3.4l0.5-3.4h0.9l0.5,3.4l0.4-3.4h1l-0.8,5.6h-1l-0.5-3.3l-0.5,3.3
		h-1L77.3,648.6z"/>
	<path class="st2" d="M73.2,496.1v-0.3c0-1.8,0.6-2.7,1.5-2.7s1.5,0.9,1.5,2.7v0.3c0,1.8-0.6,2.7-1.5,2.7
		C73.8,498.8,73.2,497.9,73.2,496.1z M75.2,496.1v-0.3c0-1.4-0.2-1.8-0.5-1.8s-0.5,0.4-0.5,1.8v0.3c0,1.4,0.2,1.8,0.5,1.8
		S75.2,497.5,75.2,496.1z M76.7,493.1h0.9c1.1,0,1.8,0.6,1.8,1.9v0c0,1.3-0.7,1.9-1.7,1.9h0v1.8h-1V493.1z M77.7,496.1
		c0.4,0,0.7-0.3,0.7-1v0c0-0.7-0.3-1-0.7-1h0L77.7,496.1L77.7,496.1L77.7,496.1z M79.8,493.1h2.1v0.9h-1.2v1.4h1v0.9h-1v1.4H82v0.9
		h-2.2V493.1z M82.4,493.1h0.9l1,2.8v-2.8h1v5.6h-0.9l-1-3v3h-1L82.4,493.1L82.4,493.1z M87.6,494.1H87v-0.9h2.4v0.9h-0.7v4.7h-1
		C87.6,498.7,87.6,494.1,87.6,494.1z M89.5,496.1v-0.3c0-1.8,0.6-2.7,1.5-2.7c0.9,0,1.5,0.9,1.5,2.7v0.3c0,1.8-0.6,2.7-1.5,2.7
		C90.1,498.8,89.5,497.9,89.5,496.1z M91.4,496.1v-0.3c0-1.4-0.2-1.8-0.5-1.8c-0.3,0-0.5,0.4-0.5,1.8v0.3c0,1.4,0.2,1.8,0.5,1.8
		C91.2,497.9,91.4,497.5,91.4,496.1z M77.2,501.1h0.9c1.2,0,2,0.9,2,2.7v0.2c0,1.8-0.7,2.7-2,2.7h-0.9V501.1z M78.2,505.8
		c0.5,0,0.9-0.4,0.9-1.8v-0.2c0-1.4-0.4-1.8-0.9-1.8h0L78.2,505.8L78.2,505.8z M80.6,501.1h2.1v0.9h-1.2v1.4h1v0.9h-1v1.4h1.2v0.9
		h-2.2V501.1z M83,504v-0.2c0-2,0.7-2.7,1.6-2.7c0.3,0,0.4,0,0.6,0.1v1c-0.2-0.1-0.4-0.2-0.5-0.2c-0.4,0-0.7,0.4-0.7,1.8v0.2
		c0,1.5,0.3,1.8,0.8,1.8c0.2,0,0.3-0.1,0.5-0.2v1c-0.2,0.1-0.4,0.2-0.7,0.2C83.7,506.8,83,506,83,504z M85.8,501.1h1v2.3l0.8-2.3
		h1.1l-0.9,2.4l1,3.2h-1.1l-0.6-2.1l-0.2,0.6v1.5h-1L85.8,501.1L85.8,501.1z M75.1,509.1H76c0.9,0,1.8,0.4,1.8,1.4v0
		c0,0.7-0.4,1.1-0.8,1.3c0.5,0.2,0.9,0.5,0.9,1.2v0.1c0,1-0.8,1.6-1.9,1.6h-0.9V509.1z M76.1,511.5c0.4,0,0.7-0.2,0.7-0.7v0
		c0-0.5-0.3-0.7-0.7-0.7h0L76.1,511.5L76.1,511.5z M76.1,513.8c0.4,0,0.8-0.3,0.8-0.7v0c0-0.5-0.3-0.7-0.8-0.7h0L76.1,513.8
		L76.1,513.8L76.1,513.8z M78.3,509.1h2.1v0.9h-1.2v1.4h1v0.9h-1v1.4h1.2v0.9h-2.2V509.1z M80.9,509.1h1v4.7h1v0.9h-2
		C80.9,514.7,80.9,509.1,80.9,509.1z M83,512.1v-0.3c0-1.8,0.6-2.7,1.5-2.7s1.5,0.9,1.5,2.7v0.3c0,1.8-0.6,2.7-1.5,2.7
		S83,513.9,83,512.1z M85,512.1v-0.3c0-1.4-0.2-1.8-0.5-1.8s-0.5,0.4-0.5,1.8v0.3c0,1.4,0.2,1.8,0.5,1.8S85,513.5,85,512.1z
		 M86.1,509.1h1l0.4,3.4l0.5-3.4h0.9l0.5,3.4l0.4-3.4h1l-0.8,5.6h-1l-0.5-3.3l-0.5,3.3h-1L86.1,509.1z"/>
	<path class="st2" d="M17.3,635v-1c0.2,0.1,0.3,0.1,0.5,0.1c0.3,0,0.5-0.2,0.5-0.6v-4.1h1v4.2c0,1-0.5,1.5-1.3,1.5
		C17.7,635.1,17.5,635.1,17.3,635z M19.7,632.4v-0.3c0-1.8,0.6-2.7,1.5-2.7s1.5,0.9,1.5,2.7v0.3c0,1.8-0.6,2.7-1.5,2.7
		S19.7,634.3,19.7,632.4z M21.7,632.4v-0.3c0-1.4-0.2-1.8-0.5-1.8s-0.5,0.4-0.5,1.8v0.3c0,1.4,0.2,1.8,0.5,1.8
		S21.7,633.8,21.7,632.4z M23.8,632.9l-1-3.4h1l0.5,2.1l0.5-2.1h1l-1,3.4v2.2h-1L23.8,632.9L23.8,632.9z M27.3,632.4v-0.2
		c0-2,0.7-2.7,1.6-2.7c0.3,0,0.4,0,0.6,0.1v1c-0.2-0.1-0.4-0.2-0.5-0.2c-0.4,0-0.7,0.4-0.7,1.8v0.2c0,1.5,0.3,1.8,0.8,1.8
		c0.2,0,0.3-0.1,0.5-0.2v1c-0.2,0.1-0.4,0.2-0.7,0.2C27.9,635.1,27.3,634.3,27.3,632.4z M30.8,629.4h1l1.1,5.6h-1l-0.2-1.1h-0.9
		l-0.2,1.1h-0.9L30.8,629.4z M31.6,633.1l-0.3-1.8l-0.3,1.8H31.6z M33.1,634.9v-1c0.3,0.2,0.6,0.3,0.9,0.3c0.3,0,0.5-0.1,0.5-0.5v0
		c0-0.3-0.1-0.4-0.5-1c-0.7-0.8-0.9-1.1-0.9-1.8v0c0-0.9,0.6-1.5,1.4-1.5c0.4,0,0.6,0.1,0.9,0.2v1c-0.3-0.2-0.5-0.3-0.7-0.3
		c-0.3,0-0.5,0.2-0.5,0.5v0c0,0.3,0.1,0.4,0.5,0.9c0.8,0.9,0.9,1.2,0.9,1.9v0c0,0.9-0.6,1.5-1.4,1.5C33.7,635.1,33.4,635,33.1,634.9
		z M35.8,629.5h1v5.6h-1V629.5z M37.4,629.5h0.9l1,2.8v-2.8h1v5.6h-0.9l-1-3v3h-1C37.4,635.1,37.4,629.5,37.4,629.5z M40.7,632.4
		v-0.3c0-1.8,0.6-2.7,1.5-2.7s1.5,0.9,1.5,2.7v0.3c0,1.8-0.6,2.7-1.5,2.7S40.7,634.3,40.7,632.4z M42.7,632.4v-0.3
		c0-1.4-0.2-1.8-0.5-1.8s-0.5,0.4-0.5,1.8v0.3c0,1.4,0.2,1.8,0.5,1.8S42.7,633.8,42.7,632.4z"/>
	<path class="st2" d="M94.5,635v-1c0.2,0.1,0.3,0.1,0.5,0.1c0.3,0,0.5-0.2,0.5-0.6v-4.1h1v4.2c0,1-0.5,1.5-1.3,1.5
		C94.9,635.1,94.7,635.1,94.5,635z M96.9,632.4v-0.3c0-1.8,0.6-2.7,1.5-2.7c0.9,0,1.5,0.9,1.5,2.7v0.3c0,1.8-0.6,2.7-1.5,2.7
		S96.9,634.3,96.9,632.4z M98.9,632.4v-0.3c0-1.4-0.2-1.8-0.5-1.8s-0.5,0.4-0.5,1.8v0.3c0,1.4,0.2,1.8,0.5,1.8
		S98.9,633.8,98.9,632.4z M101,632.9l-1-3.4h1l0.5,2.1l0.5-2.1h1l-1,3.4v2.2h-1L101,632.9L101,632.9z M104.5,632.4v-0.2
		c0-2,0.7-2.7,1.6-2.7c0.3,0,0.4,0,0.6,0.1v1c-0.2-0.1-0.4-0.2-0.5-0.2c-0.4,0-0.7,0.4-0.7,1.8v0.2c0,1.5,0.3,1.8,0.8,1.8
		c0.2,0,0.3-0.1,0.5-0.2v1c-0.2,0.1-0.4,0.2-0.7,0.2C105.2,635.1,104.5,634.3,104.5,632.4z M108,629.4h1l1.1,5.6h-1l-0.2-1.1h-0.9
		l-0.2,1.1H107L108,629.4z M108.8,633.1l-0.3-1.8l-0.3,1.8H108.8z M110.3,634.9v-1c0.3,0.2,0.6,0.3,0.9,0.3c0.3,0,0.5-0.1,0.5-0.5v0
		c0-0.3-0.1-0.4-0.5-1c-0.7-0.8-0.9-1.1-0.9-1.8v0c0-0.9,0.6-1.5,1.4-1.5c0.4,0,0.6,0.1,0.9,0.2v1c-0.3-0.2-0.5-0.3-0.7-0.3
		c-0.3,0-0.5,0.2-0.5,0.5v0c0,0.3,0.1,0.4,0.5,0.9c0.8,0.9,0.9,1.2,0.9,1.9v0c0,0.9-0.6,1.5-1.4,1.5
		C110.9,635.1,110.6,635,110.3,634.9z M113.1,629.5h1v5.6h-1V629.5z M114.6,629.5h0.9l1,2.8v-2.8h1v5.6h-0.9l-1-3v3h-1
		C114.6,635.1,114.6,629.5,114.6,629.5z M118,632.4v-0.3c0-1.8,0.6-2.7,1.5-2.7c0.9,0,1.5,0.9,1.5,2.7v0.3c0,1.8-0.6,2.7-1.5,2.7
		C118.6,635.1,118,634.3,118,632.4z M119.9,632.4v-0.3c0-1.4-0.2-1.8-0.5-1.8s-0.5,0.4-0.5,1.8v0.3c0,1.4,0.2,1.8,0.5,1.8
		S119.9,633.8,119.9,632.4z"/>
	<path class="st2" d="M102.2,603.2v-1c0.2,0.1,0.3,0.1,0.5,0.1c0.3,0,0.5-0.2,0.5-0.6v-4.1h1v4.2c0,1-0.5,1.5-1.3,1.5
		C102.6,603.3,102.4,603.2,102.2,603.2z M104.6,600.6v-0.3c0-1.8,0.6-2.7,1.5-2.7c0.9,0,1.5,0.9,1.5,2.7v0.3c0,1.8-0.6,2.7-1.5,2.7
		S104.6,602.4,104.6,600.6z M106.6,600.6v-0.3c0-1.4-0.2-1.8-0.5-1.8s-0.5,0.4-0.5,1.8v0.3c0,1.4,0.2,1.8,0.5,1.8
		S106.6,602,106.6,600.6z M108.7,601l-1-3.4h1l0.5,2.1l0.5-2.1h1l-1,3.4v2.2h-1L108.7,601L108.7,601z M112.1,600.5v-0.2
		c0-2,0.7-2.7,1.6-2.7c0.3,0,0.4,0,0.6,0.1v1c-0.2-0.1-0.4-0.2-0.5-0.2c-0.4,0-0.7,0.4-0.7,1.8v0.2c0,1.5,0.3,1.8,0.8,1.8
		c0.2,0,0.3-0.1,0.5-0.2v1c-0.2,0.1-0.4,0.2-0.7,0.2C112.8,603.3,112.1,602.5,112.1,600.5z M115.7,597.6h1l1.1,5.6h-1l-0.2-1.1h-0.9
		l-0.2,1.1h-0.9L115.7,597.6z M116.5,601.2l-0.3-1.8l-0.3,1.8H116.5z M118,603v-1c0.3,0.2,0.6,0.3,0.9,0.3c0.3,0,0.5-0.1,0.5-0.5v0
		c0-0.3-0.1-0.4-0.5-1c-0.7-0.8-0.9-1.1-0.9-1.8v0c0-0.9,0.6-1.5,1.4-1.5c0.4,0,0.6,0.1,0.9,0.2v1c-0.3-0.2-0.5-0.3-0.7-0.3
		c-0.3,0-0.5,0.2-0.5,0.5v0c0,0.3,0.1,0.4,0.5,0.9c0.8,0.9,0.9,1.2,0.9,1.9v0c0,0.9-0.6,1.5-1.4,1.5
		C118.6,603.3,118.3,603.2,118,603z M120.7,597.6h1v5.6h-1V597.6z M122.3,597.6h0.9l1,2.8v-2.8h1v5.6h-0.9l-1-3v3h-1
		C122.3,603.2,122.3,597.6,122.3,597.6z M125.6,600.6v-0.3c0-1.8,0.6-2.7,1.5-2.7c0.9,0,1.5,0.9,1.5,2.7v0.3c0,1.8-0.6,2.7-1.5,2.7
		C126.2,603.3,125.6,602.4,125.6,600.6z M127.6,600.6v-0.3c0-1.4-0.2-1.8-0.5-1.8s-0.5,0.4-0.5,1.8v0.3c0,1.4,0.2,1.8,0.5,1.8
		S127.6,602,127.6,600.6z M104.1,605.6h1l0.5,3.6l0.5-3.6h1l-1,5.6h-1L104.1,605.6z M107.4,605.6h1v5.6h-1V605.6z M108.9,605.6h0.9
		c1.1,0,1.8,0.6,1.8,1.9v0c0,1.3-0.7,1.9-1.7,1.9h0v1.8h-1V605.6z M109.9,608.6c0.4,0,0.7-0.3,0.7-1v0c0-0.7-0.3-1-0.7-1h0
		L109.9,608.6L109.9,608.6L109.9,608.6z M113.3,605.6h1c1,0,1.7,0.5,1.7,1.8v0.1c0,0.7-0.3,1.2-0.7,1.5l0.8,2.3h-1l-0.6-2h-0.2v2h-1
		C113.3,611.2,113.3,605.6,113.3,605.6z M114.3,608.4c0.4,0,0.7-0.2,0.7-0.9v-0.1c0-0.7-0.3-0.9-0.8-0.9h0L114.3,608.4L114.3,608.4z
		 M116.4,608.6v-0.3c0-1.8,0.6-2.7,1.5-2.7s1.5,0.9,1.5,2.7v0.3c0,1.8-0.6,2.7-1.5,2.7S116.4,610.4,116.4,608.6z M118.4,608.6v-0.3
		c0-1.4-0.2-1.8-0.5-1.8s-0.5,0.4-0.5,1.8v0.3c0,1.4,0.2,1.8,0.5,1.8S118.4,610,118.4,608.6z M119.7,608.6v-0.3
		c0-1.8,0.6-2.7,1.5-2.7c0.9,0,1.5,0.9,1.5,2.7v0.3c0,1.8-0.6,2.7-1.5,2.7C120.3,611.3,119.7,610.4,119.7,608.6z M121.7,608.6v-0.3
		c0-1.4-0.2-1.8-0.5-1.8s-0.5,0.4-0.5,1.8v0.3c0,1.4,0.2,1.8,0.5,1.8S121.7,610,121.7,608.6z M123.2,605.6h1l0.7,2l0.7-2h1v5.6h-0.9
		v-3.4l-0.7,2.1h0l-0.7-2.1v3.4h-0.9L123.2,605.6L123.2,605.6z"/>
	<path class="st2" d="M32.8,768.1v-1c0.2,0.1,0.3,0.1,0.5,0.1c0.3,0,0.5-0.2,0.5-0.6v-4.1h1v4.2c0,1-0.5,1.5-1.3,1.5
		C33.2,768.2,33,768.1,32.8,768.1z M35.2,765.5v-0.3c0-1.8,0.6-2.7,1.5-2.7s1.5,0.9,1.5,2.7v0.3c0,1.8-0.6,2.7-1.5,2.7
		C35.8,768.2,35.2,767.3,35.2,765.5z M37.2,765.5v-0.3c0-1.4-0.2-1.8-0.5-1.8s-0.5,0.4-0.5,1.8v0.3c0,1.4,0.2,1.8,0.5,1.8
		S37.2,766.9,37.2,765.5z M39.3,765.9l-1-3.4h1l0.5,2.1l0.5-2.1h1l-1,3.4v2.2h-1L39.3,765.9L39.3,765.9z M42.8,765.4v-0.2
		c0-2,0.7-2.7,1.6-2.7c0.3,0,0.4,0,0.6,0.1v1c-0.2-0.1-0.4-0.2-0.5-0.2c-0.4,0-0.7,0.4-0.7,1.8v0.2c0,1.5,0.3,1.8,0.8,1.8
		c0.2,0,0.3-0.1,0.5-0.2v1c-0.2,0.1-0.4,0.2-0.7,0.2C43.4,768.1,42.8,767.4,42.8,765.4z M46.3,762.5h1l1.1,5.6h-1l-0.2-1.1h-0.9
		l-0.2,1.1h-0.9L46.3,762.5z M47.1,766.1l-0.3-1.8l-0.3,1.8H47.1z M48.6,767.9v-1c0.3,0.2,0.6,0.3,0.9,0.3c0.3,0,0.5-0.1,0.5-0.5v0
		c0-0.3-0.1-0.4-0.5-1c-0.7-0.8-0.9-1.1-0.9-1.8v0c0-0.9,0.6-1.5,1.4-1.5c0.4,0,0.6,0.1,0.9,0.2v1c-0.3-0.2-0.5-0.3-0.7-0.3
		c-0.3,0-0.5,0.2-0.5,0.5v0c0,0.3,0.1,0.4,0.5,0.9c0.8,0.9,0.9,1.2,0.9,1.9v0c0,0.9-0.6,1.5-1.4,1.5C49.2,768.1,48.9,768,48.6,767.9
		z M51.3,762.5h1v5.6h-1V762.5z M52.9,762.5h0.9l1,2.8v-2.8h1v5.6h-0.9l-1-3v3h-1C52.9,768.1,52.9,762.5,52.9,762.5z M56.2,765.5
		v-0.3c0-1.8,0.6-2.7,1.5-2.7s1.5,0.9,1.5,2.7v0.3c0,1.8-0.6,2.7-1.5,2.7C56.8,768.2,56.2,767.3,56.2,765.5z M58.2,765.5v-0.3
		c0-1.4-0.2-1.8-0.5-1.8s-0.5,0.4-0.5,1.8v0.3c0,1.4,0.2,1.8,0.5,1.8S58.2,766.9,58.2,765.5z"/>
	<path class="st2" d="M82.1,768.1v-1c0.2,0.1,0.3,0.1,0.5,0.1c0.3,0,0.5-0.2,0.5-0.6v-4.1h1v4.2c0,1-0.5,1.5-1.3,1.5
		C82.5,768.2,82.3,768.1,82.1,768.1z M84.6,765.5v-0.3c0-1.8,0.6-2.7,1.5-2.7c0.9,0,1.5,0.9,1.5,2.7v0.3c0,1.8-0.6,2.7-1.5,2.7
		S84.6,767.3,84.6,765.5z M86.5,765.5v-0.3c0-1.4-0.2-1.8-0.5-1.8s-0.5,0.4-0.5,1.8v0.3c0,1.4,0.2,1.8,0.5,1.8
		S86.5,766.9,86.5,765.5z M88.6,765.9l-1-3.4h1l0.5,2.1l0.5-2.1h1l-1,3.4v2.2h-1L88.6,765.9L88.6,765.9z M92.1,765.4v-0.2
		c0-2,0.7-2.7,1.6-2.7c0.3,0,0.4,0,0.6,0.1v1c-0.2-0.1-0.4-0.2-0.5-0.2c-0.4,0-0.7,0.4-0.7,1.8v0.2c0,1.5,0.3,1.8,0.8,1.8
		c0.2,0,0.3-0.1,0.5-0.2v1c-0.2,0.1-0.4,0.2-0.7,0.2C92.8,768.1,92.1,767.4,92.1,765.4z M95.7,762.5h1l1.1,5.6h-1l-0.2-1.1h-0.9
		l-0.2,1.1h-0.9L95.7,762.5z M96.5,766.1l-0.3-1.8l-0.3,1.8H96.5z M97.9,767.9v-1c0.3,0.2,0.6,0.3,0.9,0.3c0.3,0,0.5-0.1,0.5-0.5v0
		c0-0.3-0.1-0.4-0.5-1c-0.7-0.8-0.9-1.1-0.9-1.8v0c0-0.9,0.6-1.5,1.4-1.5c0.4,0,0.6,0.1,0.9,0.2v1c-0.3-0.2-0.5-0.3-0.7-0.3
		c-0.3,0-0.5,0.2-0.5,0.5v0c0,0.3,0.1,0.4,0.5,0.9c0.8,0.9,0.9,1.2,0.9,1.9v0c0,0.9-0.6,1.5-1.4,1.5C98.5,768.1,98.2,768,97.9,767.9
		z M100.7,762.5h1v5.6h-1V762.5z M102.2,762.5h0.9l1,2.8v-2.8h1v5.6h-0.9l-1-3v3h-1C102.2,768.1,102.2,762.5,102.2,762.5z
		 M105.6,765.5v-0.3c0-1.8,0.6-2.7,1.5-2.7c0.9,0,1.5,0.9,1.5,2.7v0.3c0,1.8-0.6,2.7-1.5,2.7S105.6,767.3,105.6,765.5z M107.6,765.5
		v-0.3c0-1.4-0.2-1.8-0.5-1.8s-0.5,0.4-0.5,1.8v0.3c0,1.4,0.2,1.8,0.5,1.8S107.6,766.9,107.6,765.5z"/>
	<path class="st2" d="M44.8,959.7h-0.7v-0.9h2.4v0.9h-0.7v4.7h-1L44.8,959.7L44.8,959.7z M46.9,958.8h1v2.3h0.8v-2.3h1v5.6h-1V962
		h-0.8v2.4h-1V958.8z M50.3,958.8h2.1v0.9h-1.2v1.4h1v0.9h-1v1.4h1.2v0.9h-2.2C50.3,964.4,50.3,958.8,50.3,958.8z M54.2,958.8h1
		l0.7,2l0.7-2h1v5.6h-0.9V961l-0.7,2.1h0l-0.7-2.1v3.4h-0.9L54.2,958.8L54.2,958.8z M58.9,958.8h1l1.1,5.6h-1l-0.2-1.1h-0.9
		l-0.2,1.1h-0.9L58.9,958.8z M59.7,962.4l-0.3-1.8l-0.3,1.8H59.7z M61.3,958.8h0.9l1,2.8v-2.8h1v5.6h-0.9l-1-3v3h-1
		C61.3,964.4,61.3,958.8,61.3,958.8z M64.7,958.8h1v2.3h0.8v-2.3h1v5.6h-1V962h-0.8v2.4h-1V958.8z M68.8,958.8h1l1.1,5.6h-1
		l-0.2-1.1h-0.9l-0.2,1.1h-0.9L68.8,958.8z M69.6,962.4l-0.3-1.8l-0.3,1.8H69.6z M71.5,959.7h-0.7v-0.9h2.4v0.9h-0.7v4.7h-1
		L71.5,959.7L71.5,959.7z M74.1,959.7h-0.7v-0.9h2.4v0.9h-0.7v4.7h-1L74.1,959.7L74.1,959.7z M76.7,958.8h1l1.1,5.6h-1l-0.2-1.1
		h-0.9l-0.2,1.1h-0.9L76.7,958.8z M77.5,962.4l-0.3-1.8l-0.3,1.8H77.5z M79.1,958.8H80l1,2.8v-2.8h1v5.6h-0.9l-1-3v3h-1V958.8z
		 M83.8,958.8h1c1,0,1.7,0.5,1.7,1.8v0.1c0,0.7-0.3,1.2-0.7,1.5l0.8,2.3h-1l-0.6-2h-0.2v2h-1V958.8z M84.8,961.6
		c0.4,0,0.7-0.2,0.7-0.9v-0.1c0-0.7-0.3-0.9-0.8-0.9h0L84.8,961.6L84.8,961.6z M86.9,961.7v-0.3c0-1.8,0.6-2.7,1.5-2.7
		s1.5,0.9,1.5,2.7v0.3c0,1.8-0.6,2.7-1.5,2.7S86.9,963.6,86.9,961.7z M88.9,961.7v-0.3c0-1.4-0.2-1.8-0.5-1.8s-0.5,0.4-0.5,1.8v0.3
		c0,1.4,0.2,1.8,0.5,1.8S88.9,963.2,88.9,961.7z M90.3,961.7v-0.3c0-1.8,0.6-2.7,1.5-2.7s1.5,0.9,1.5,2.7v0.3c0,1.8-0.6,2.7-1.5,2.7
		S90.3,963.6,90.3,961.7z M92.3,961.7v-0.3c0-1.4-0.2-1.8-0.5-1.8s-0.5,0.4-0.5,1.8v0.3c0,1.4,0.2,1.8,0.5,1.8
		S92.3,963.2,92.3,961.7z M93.7,958.8h1l0.7,2l0.7-2h1v5.6h-0.9V961l-0.7,2.1h0l-0.7-2.1v3.4h-0.9V958.8z"/>
	<path class="st2" d="M95.2,784.1v-1c0.3,0.2,0.6,0.3,0.9,0.3c0.3,0,0.5-0.1,0.5-0.5v0c0-0.3-0.1-0.4-0.5-1
		c-0.7-0.8-0.9-1.1-0.9-1.8v0c0-0.9,0.6-1.5,1.4-1.5c0.4,0,0.6,0.1,0.9,0.2v1c-0.3-0.2-0.5-0.3-0.7-0.3c-0.3,0-0.5,0.2-0.5,0.5v0
		c0,0.3,0.1,0.4,0.5,0.9c0.8,0.9,0.9,1.2,0.9,1.9v0c0,0.9-0.6,1.5-1.4,1.5C95.8,784.3,95.5,784.3,95.2,784.1z M97.9,778.7h1v2.3
		l0.8-2.3h1.1l-0.9,2.4l1,3.2h-1.1l-0.6-2.1l-0.2,0.6v1.5h-1L97.9,778.7L97.9,778.7z M101.7,782.1l-1-3.4h1l0.5,2.1l0.5-2.1h1
		l-1,3.4v2.2h-1L101.7,782.1L101.7,782.1z M104,778.7h1v4.7h1v0.9h-2C104,784.3,104,778.7,104,778.7z M106.5,778.7h1v5.6h-1V778.7z
		 M108,778.7h0.9l1,2.8v-2.8h1v5.6H110l-1-3v3h-1V778.7z M111.5,778.7h2.1v0.9h-1.2v1.4h1v0.9h-1v1.4h1.2v0.9h-2.2V778.7z
		 M100.6,786.7h0.8c0.9,0,1.8,0.4,1.8,1.4v0c0,0.7-0.4,1.1-0.8,1.3c0.5,0.2,0.9,0.5,0.9,1.2v0.1c0,1-0.8,1.6-1.9,1.6h-0.9
		C100.6,792.3,100.6,786.7,100.6,786.7z M101.6,789.1c0.4,0,0.7-0.2,0.7-0.7v0c0-0.5-0.3-0.7-0.7-0.7h0L101.6,789.1L101.6,789.1z
		 M101.6,791.4c0.4,0,0.8-0.3,0.8-0.7v0c0-0.5-0.3-0.7-0.8-0.7h0L101.6,791.4L101.6,791.4L101.6,791.4z M104.5,786.7h1l1.1,5.6h-1
		l-0.2-1.1h-0.9l-0.2,1.1h-0.9L104.5,786.7z M105.3,790.3l-0.3-1.8l-0.3,1.8H105.3z M106.9,786.7h1c1,0,1.7,0.5,1.7,1.8v0.1
		c0,0.7-0.3,1.2-0.7,1.5l0.8,2.3h-1l-0.6-2h-0.2v2h-1C106.9,792.3,106.9,786.7,106.9,786.7z M107.9,789.5c0.4,0,0.7-0.2,0.7-0.9
		v-0.1c0-0.7-0.3-0.9-0.8-0.9h0L107.9,789.5L107.9,789.5z"/>
	<path class="st2" d="M55.5,295.7v-1c0.2,0.1,0.3,0.1,0.5,0.1c0.3,0,0.5-0.2,0.5-0.6v-4.1h1v4.2c0,1-0.5,1.5-1.3,1.5
		C55.9,295.8,55.7,295.7,55.5,295.7z M58,293.1v-0.3c0-1.8,0.6-2.7,1.5-2.7s1.5,0.9,1.5,2.7v0.3c0,1.8-0.6,2.7-1.5,2.7
		S58,294.9,58,293.1z M59.9,293.1v-0.3c0-1.4-0.2-1.8-0.5-1.8s-0.5,0.4-0.5,1.8v0.3c0,1.4,0.2,1.8,0.5,1.8S59.9,294.5,59.9,293.1z
		 M62,293.5l-1-3.4h1l0.5,2.1l0.5-2.1h1l-1,3.4v2.2h-1L62,293.5L62,293.5z M66.1,291.1h-0.7v-0.9h2.4v0.9h-0.7v4.7h-1L66.1,291.1
		L66.1,291.1z M68.2,290.1h1v2.3H70v-2.3h1v5.6h-1v-2.4h-0.8v2.4h-1V290.1z M71.6,290.1h2.1v0.9h-1.2v1.4h1v0.9h-1v1.4h1.2v0.9h-2.2
		V290.1z M75,290.1h1l1.1,5.6h-1l-0.2-1.1H75l-0.2,1.1h-0.9L75,290.1z M75.8,293.7l-0.3-1.8l-0.3,1.8H75.8z M77.7,291.1H77v-0.9h2.4
		v0.9h-0.7v4.7h-1V291.1z M79.7,290.1h2.1v0.9h-1.2v1.4h1v0.9h-1v1.4h1.2v0.9h-2.2V290.1z M82.4,290.1h1c1,0,1.7,0.5,1.7,1.8v0.1
		c0,0.7-0.3,1.2-0.7,1.5l0.8,2.3h-1l-0.6-2h-0.2v2h-1C82.4,295.7,82.4,290.1,82.4,290.1z M83.4,292.9c0.4,0,0.7-0.2,0.7-0.9v-0.1
		c0-0.7-0.3-0.9-0.8-0.9h0L83.4,292.9L83.4,292.9z"/>
	<path class="st2" d="M41.6,399.3h1c1,0,1.7,0.5,1.7,1.8v0.1c0,0.7-0.3,1.2-0.7,1.5l0.8,2.3h-1l-0.6-2h-0.2v2h-1L41.6,399.3
		L41.6,399.3z M42.6,402c0.4,0,0.7-0.2,0.7-0.9v-0.1c0-0.7-0.3-0.9-0.8-0.9h0L42.6,402L42.6,402z M44.8,399.3h1c1,0,1.7,0.5,1.7,1.8
		v0.1c0,0.7-0.3,1.2-0.7,1.5l0.8,2.3h-1l-0.6-2h-0.2v2h-1V399.3z M45.8,402c0.4,0,0.7-0.2,0.7-0.9v-0.1c0-0.7-0.3-0.9-0.8-0.9h0
		L45.8,402L45.8,402z"/>
	<path class="st2" d="M18.5,388.9h1c1,0,1.7,0.5,1.7,1.8v0.1c0,0.7-0.3,1.2-0.7,1.5l0.8,2.3h-1l-0.6-2h-0.2v2h-1L18.5,388.9
		L18.5,388.9z M19.5,391.6c0.4,0,0.7-0.2,0.7-0.9v-0.1c0-0.7-0.3-0.9-0.8-0.9h0L19.5,391.6L19.5,391.6z M21.7,388.9h1
		c1,0,1.7,0.5,1.7,1.8v0.1c0,0.7-0.3,1.2-0.7,1.5l0.8,2.3h-1l-0.6-2h-0.2v2h-1V388.9z M22.7,391.6c0.4,0,0.7-0.2,0.7-0.9v-0.1
		c0-0.7-0.3-0.9-0.8-0.9h0L22.7,391.6L22.7,391.6z"/>
	<path class="st2" d="M41.3,412.5h1c1,0,1.7,0.5,1.7,1.8v0.1c0,0.7-0.3,1.2-0.7,1.5l0.8,2.3h-1l-0.6-2h-0.2v2h-1L41.3,412.5
		L41.3,412.5z M42.3,415.3c0.4,0,0.7-0.2,0.7-0.9v-0.1c0-0.7-0.3-0.9-0.8-0.9h0L42.3,415.3L42.3,415.3z M44.5,412.5h1
		c1,0,1.7,0.5,1.7,1.8v0.1c0,0.7-0.3,1.2-0.7,1.5l0.8,2.3h-1l-0.6-2h-0.2v2h-1L44.5,412.5L44.5,412.5z M45.5,415.3
		c0.4,0,0.7-0.2,0.7-0.9v-0.1c0-0.7-0.3-0.9-0.8-0.9h0L45.5,415.3L45.5,415.3z"/>
	<path class="st2" d="M114,399.3h1c1,0,1.7,0.5,1.7,1.8v0.1c0,0.7-0.3,1.2-0.7,1.5l0.8,2.3h-1l-0.6-2H115v2h-1
		C114,404.8,114,399.3,114,399.3z M115,402c0.4,0,0.7-0.2,0.7-0.9v-0.1c0-0.7-0.3-0.9-0.8-0.9h0L115,402L115,402z M117.2,399.3h1
		c1,0,1.7,0.5,1.7,1.8v0.1c0,0.7-0.3,1.2-0.7,1.5l0.8,2.3h-1l-0.6-2h-0.2v2h-1V399.3z M118.2,402c0.4,0,0.7-0.2,0.7-0.9v-0.1
		c0-0.7-0.3-0.9-0.8-0.9h0L118.2,402L118.2,402z"/>
	<path class="st2" d="M37.5,492.1h-0.7v-0.9h2.4v0.9h-0.7v4.7h-1L37.5,492.1L37.5,492.1z M39.6,491.1h1v2.3h0.8v-2.3h1v5.6h-1v-2.4
		h-0.8v2.4h-1V491.1z M42.9,491.1h2.1v0.9h-1.2v1.4h1v0.9h-1v1.4h1.2v0.9h-2.2C42.9,496.7,42.9,491.1,42.9,491.1z M46.8,491.1h1v4.7
		h1v0.9h-2V491.1z M49,494.1v-0.3c0-1.8,0.6-2.7,1.5-2.7c0.9,0,1.5,0.9,1.5,2.7v0.3c0,1.8-0.6,2.7-1.5,2.7
		C49.6,496.8,49,495.9,49,494.1z M50.9,494.1v-0.3c0-1.4-0.2-1.8-0.5-1.8c-0.3,0-0.5,0.4-0.5,1.8v0.3c0,1.4,0.2,1.8,0.5,1.8
		C50.7,495.9,50.9,495.5,50.9,494.1z M52.3,494v-0.2c0-2,0.7-2.7,1.6-2.7c0.3,0,0.4,0,0.6,0.1v1c-0.2-0.1-0.4-0.2-0.5-0.2
		c-0.4,0-0.7,0.4-0.7,1.8v0.2c0,1.5,0.3,1.8,0.8,1.8c0.2,0,0.3-0.1,0.5-0.2v1c-0.2,0.1-0.4,0.2-0.7,0.2C53,496.8,52.3,496,52.3,494z
		 M55.9,491.1h1l1.1,5.6h-1l-0.2-1.1h-0.9l-0.2,1.1h-0.9L55.9,491.1z M56.7,494.7l-0.3-1.8l-0.3,1.8H56.7z M58.3,491.1h1v4.7h1v0.9
		h-2V491.1z"/>
	<path class="st2" d="M84.4,532.7h-0.7v-0.9H86v0.9h-0.7v4.7h-1V532.7z M86.4,531.7h1v2.3h0.8v-2.3h1v5.6h-1V535h-0.8v2.4h-1V531.7z
		 M89.8,531.7H92v0.9h-1.2v1.4h1v0.9h-1v1.4H92v0.9h-2.2V531.7z M93.7,531.7h1v4.7h1v0.9h-2V531.7z M95.8,534.7v-0.3
		c0-1.8,0.6-2.7,1.5-2.7s1.5,0.9,1.5,2.7v0.3c0,1.8-0.6,2.7-1.5,2.7S95.8,536.5,95.8,534.7z M97.8,534.7v-0.3c0-1.4-0.2-1.8-0.5-1.8
		s-0.5,0.4-0.5,1.8v0.3c0,1.4,0.2,1.8,0.5,1.8S97.8,536.1,97.8,534.7z M99.2,534.6v-0.2c0-2,0.7-2.7,1.6-2.7c0.3,0,0.4,0,0.6,0.1v1
		c-0.2-0.1-0.4-0.2-0.5-0.2c-0.4,0-0.7,0.4-0.7,1.8v0.2c0,1.5,0.3,1.8,0.8,1.8c0.2,0,0.3-0.1,0.5-0.2v1c-0.2,0.1-0.4,0.2-0.7,0.2
		C99.9,537.4,99.2,536.6,99.2,534.6z M102.8,531.7h1l1.1,5.6h-1l-0.2-1.1h-0.9l-0.2,1.1h-0.9L102.8,531.7z M103.6,535.3l-0.3-1.8
		l-0.3,1.8H103.6z M105.2,531.7h1v4.7h1v0.9h-2C105.2,537.3,105.2,531.7,105.2,531.7z"/>
	<path class="st2" d="M80.3,364.9h0.8c0.9,0,1.8,0.4,1.8,1.4v0c0,0.7-0.4,1.1-0.8,1.3c0.5,0.2,0.9,0.5,0.9,1.2v0.1
		c0,1-0.8,1.6-1.9,1.6h-0.9V364.9z M81.3,367.3c0.4,0,0.7-0.2,0.7-0.7v0c0-0.5-0.3-0.7-0.7-0.7h0L81.3,367.3L81.3,367.3z
		 M81.3,369.6c0.4,0,0.8-0.3,0.8-0.7v0c0-0.5-0.3-0.7-0.8-0.7h0L81.3,369.6L81.3,369.6L81.3,369.6z M83.4,367.9v-0.3
		c0-1.8,0.6-2.7,1.5-2.7s1.5,0.9,1.5,2.7v0.3c0,1.8-0.6,2.7-1.5,2.7S83.4,369.7,83.4,367.9z M85.4,367.9v-0.3c0-1.4-0.2-1.8-0.5-1.8
		s-0.5,0.4-0.5,1.8v0.3c0,1.4,0.2,1.8,0.5,1.8S85.4,369.3,85.4,367.9z M87.4,367.7l-0.9-2.7h1l0.4,1.6l0.4-1.6h1l-0.9,2.7l0.9,2.9
		h-1l-0.5-1.7l-0.5,1.7h-1L87.4,367.7z M77.3,375.9v-0.3c0-1.8,0.6-2.7,1.5-2.7s1.5,0.9,1.5,2.7v0.3c0,1.8-0.6,2.7-1.5,2.7
		S77.3,377.7,77.3,375.9z M79.3,375.9v-0.3c0-1.4-0.2-1.8-0.5-1.8s-0.5,0.4-0.5,1.8v0.3c0,1.4,0.2,1.8,0.5,1.8
		S79.3,377.3,79.3,375.9z M80.8,372.9h2v0.9h-1.1v1.4h0.9v0.9h-0.9v2.3h-1V372.9z M83.3,372.9h2v0.9h-1.1v1.4h0.9v0.9h-0.9v2.3h-1
		V372.9z M85.8,372.9h1v5.6h-1V372.9z M87.3,375.8v-0.2c0-2,0.7-2.7,1.6-2.7c0.3,0,0.4,0,0.6,0.1v1c-0.2-0.1-0.4-0.2-0.5-0.2
		c-0.4,0-0.7,0.4-0.7,1.8v0.2c0,1.5,0.3,1.8,0.8,1.8c0.2,0,0.3-0.1,0.5-0.2v1c-0.2,0.1-0.4,0.2-0.7,0.2
		C87.9,378.6,87.3,377.8,87.3,375.8z M90,372.9h2.1v0.9H91v1.4h1v0.9h-1v1.4h1.2v0.9H90V372.9z"/>
</g>
<g id="JOY_DECK_07_TOP">
	<g id="gDeck07Locations">
		<path width="139.534" height="373.511" id="_x30_7Aft" class="st3" d="M0.5,1008.4c0,19.5,34.4,25.4,69,25.4h1.4c34.2,0,69.1-5.9,69.1-25.4c0,0-0.3-162.4-0.7-348.1
			H1.2C0.8,846.1,0.5,1008.4,0.5,1008.4z"/>
		<path width="138.1453" height="298.949" id="_x30_7MidShip" class="st3" d="M1.8,361.3c-0.2,92-0.4,198.9-0.6,298.9h138.1c-0.2-100.1-0.4-207-0.6-298.9H1.8z"/>
		<path width="136.9565" height="360.832" id="_x30_7Forward" class="st3" d="M138.3,121.5c0-38.5-39.4-93-45.3-100.5S79.2,0.5,70.3,0.5h-0.5h0c-9,0-15.5,13-21.5,20.5
			s-46,62-46,100.5c0,2.2-0.2,105-0.5,239.8h137C138.5,226.5,138.3,123.7,138.3,121.5z"/>
	</g>
	<path class="st4" d="M69.5,1033.8c-34.7,0-69-5.9-69-25.4c0,0,1.8-880.4,1.8-886.9c0-38.5,40-93,46-100.5S60.8,0.5,69.8,0.5h0h0.5
		c8.9,0,16.7,13,22.7,20.5s45.3,62,45.3,100.5c0,6.5,1.7,886.9,1.7,886.9c0,19.5-34.9,25.4-69.1,25.4H69.5z"/>
</g>
</svg>
