<?xml version="1.0" encoding="utf-8"?>
<!-- Generator: Adobe Illustrator 23.0.2, SVG Export Plug-In . SVG Version: 6.00 Build 0)  -->
<svg version="1.1" id="STAR_DECK_06" xmlns="http://www.w3.org/2000/svg" xmlns:xlink="http://www.w3.org/1999/xlink" x="0px"
	 y="0px" width="128.039px" height="838.327px" viewBox="0 0 128.039 838.327" style="enable-background:new 0 0 128.039 838.327;"
	 xml:space="preserve">
<style type="text/css">
	.st0{fill:#FFFFFF;}
	.st1{fill:none;stroke:#D5DCE0;stroke-width:0.5;}
	.st2{fill:#6E8496;}
	.st3{fill:#EFF2F5;stroke:#FFFFFF;stroke-width:0.5;stroke-miterlimit:10;}
	.st4{fill:none;stroke:#076FA0;stroke-miterlimit:10;}
	.st5{fill:none;}
</style>
<g id="STAR_DECK_06_BOTTOM">
	<path class="st0" d="M127.539,824.259c-0.845,9.25-30.627,13.491-63.391,13.491c-38.871,0-62.371-4.241-63.354-13.246
		C0.614,809.037,0.5,157.605,0.5,157.605C1.309,88.859,39.285,0.342,64.155,0.643c23.796,1.032,63.384,88.505,63.142,156.96
		L127.539,824.259z"/>
	<polygon class="st1" points="63.974,200.93 63.974,192.342 74.06,192.342 74.06,200.93 	"/>
	<polygon class="st1" points="53.89,200.93 53.89,192.342 63.974,192.342 63.974,200.93 	"/>
	<polygon class="st1" points="74.054,200.93 74.054,192.342 84.138,192.342 84.138,200.93 	"/>
	<polygon class="st1" points="43.806,200.93 43.806,192.342 53.892,192.342 53.892,200.93 	"/>
	<line class="st1" x1="0.284" y1="192.333" x2="127.261" y2="192.333"/>
	<line class="st1" x1="16.284" y1="130.384" x2="16.284" y2="157.342"/>
	<path class="st1" d="M2.452,130.342l28.725,0.166c-0.395-0.682,2.8,6.631-1.143,11.001c0,0,5.216,5.625-0.034,11.125l10.784,10.5"
		/>
	<path class="st1" d="M125.33,130.342H96.623c0,0-3.5,6.042,1.125,11.167c0,0-5.215,5.625,0.035,11.125l-10.785,10.5"/>
	<polyline class="st1" points="11.784,130.384 21.921,89.425 22.618,69.675 31.579,69.675 31.579,61.541 	"/>
	<polyline class="st1" points="116.34,130.384 105.506,89.425 105.506,69.675 96.546,69.675 96.546,61.541 89.974,61.541 	"/>
	<line class="st1" x1="111.703" y1="130.342" x2="111.703" y2="192.009"/>
	<rect x="40.942" y="153.343" class="st1" width="45.708" height="39"/>
	<path class="st1" d="M37.243,133.842c-1.863-1.713-4.154-1.57-5.287-1.357"/>
	<path class="st1" d="M37.243,136.044c-1.66-1.525-3.658-1.579-4.876-1.422"/>
	<path class="st1" d="M37.076,138.247c-1.642-1.509-3.614-1.578-4.836-1.427"/>
	<path class="st1" d="M37.077,140.471c-1.863-1.713-4.363-1.592-5.496-1.379"/>
	<path class="st1" d="M36.909,142.617c-1.863-1.713-5.264-1.433-6.396-1.22"/>
	<path class="st1" d="M37.034,145.058c-1.863-1.713-4.82-1.774-5.953-1.561"/>
	<path class="st1" d="M36.868,147.056c-1.57-1.443-3.443-1.569-4.673-1.445"/>
	<path class="st1" d="M32.321,147.802c1.229-0.102,3.029,0.062,4.547,1.457l0.041,0.042l0.334-17.875
		c-2.584-2.375-5.99-1.182-5.99-1.182"/>
	<path class="st1" d="M90.511,133.842c1.863-1.713,4.154-1.57,5.287-1.357"/>
	<path class="st1" d="M90.511,136.044c1.66-1.525,3.658-1.579,4.877-1.422"/>
	<path class="st1" d="M90.679,138.247c1.641-1.509,3.613-1.578,4.836-1.427"/>
	<path class="st1" d="M90.677,140.471c1.863-1.713,4.365-1.592,5.498-1.379"/>
	<path class="st1" d="M90.847,142.617c1.863-1.713,5.264-1.433,6.396-1.22"/>
	<path class="st1" d="M90.72,145.058c1.863-1.713,4.822-1.774,5.955-1.561"/>
	<path class="st1" d="M90.888,147.056c1.568-1.443,3.443-1.569,4.672-1.445"/>
	<path class="st1" d="M95.433,147.802c-1.229-0.102-3.029,0.062-4.545,1.457l-0.043,0.042l-0.334-17.875
		c2.584-2.375,5.99-1.182,5.99-1.182"/>
	<line class="st1" x1="74.177" y1="200.773" x2="83.943" y2="192.586"/>
	<line class="st1" x1="84.005" y1="200.704" x2="74.224" y2="192.422"/>
	<line class="st1" x1="64.021" y1="200.657" x2="73.976" y2="192.206"/>
	<line class="st1" x1="73.833" y1="200.423" x2="64.146" y2="192.283"/>
	<line class="st1" x1="54.036" y1="200.595" x2="63.849" y2="192.329"/>
	<line class="st1" x1="63.724" y1="200.408" x2="54.052" y2="192.267"/>
	<line class="st1" x1="43.927" y1="200.579" x2="53.833" y2="192.267"/>
	<line class="st1" x1="53.599" y1="200.345" x2="44.005" y2="192.298"/>
	<path class="st1" d="M21.932,89.109l0.686-19.434h8.96v-8.134h5.305l-0.091,9.68l7.067-0.045c0,0,8.833,6.167,19.333,6
		c10.501-0.166,21.834-6.166,21.834-6.166l5.542-0.001l0.03-9.467l5.947,0.065v8.069h8.96v19.75l8.288,31.333"/>
	<line class="st1" x1="40.544" y1="503.159" x2="50.356" y2="494.877"/>
	<line class="st1" x1="50.294" y1="503.096" x2="40.575" y2="494.915"/>
	<line class="st1" x1="50.821" y1="502.891" x2="60.343" y2="494.915"/>
	<line class="st1" x1="60.272" y1="502.864" x2="50.825" y2="494.915"/>
	<line class="st1" x1="67.821" y1="502.641" x2="77.343" y2="494.665"/>
	<line class="st1" x1="77.273" y1="502.614" x2="67.825" y2="494.665"/>
	<line class="st1" x1="77.572" y1="503.141" x2="87.093" y2="495.165"/>
	<line class="st1" x1="87.023" y1="503.114" x2="77.576" y2="495.165"/>
	<line class="st1" x1="74.099" y1="701.912" x2="83.865" y2="693.724"/>
	<line class="st1" x1="83.927" y1="701.958" x2="74.146" y2="693.677"/>
	<line class="st1" x1="63.942" y1="701.99" x2="73.898" y2="693.539"/>
	<line class="st1" x1="73.755" y1="701.833" x2="64.067" y2="693.693"/>
	<line class="st1" x1="53.958" y1="701.927" x2="63.771" y2="693.662"/>
	<line class="st1" x1="63.646" y1="701.818" x2="53.974" y2="693.677"/>
	<line class="st1" x1="43.849" y1="701.912" x2="53.755" y2="693.599"/>
	<line class="st1" x1="53.521" y1="701.755" x2="43.927" y2="693.708"/>
	<path class="st1" d="M72.708,209.153c-0.373,0-0.676,0.256-0.676,0.578"/>
	<line class="st1" x1="80.871" y1="209.153" x2="72.708" y2="209.153"/>
	<line class="st1" x1="72.033" y1="209.731" x2="72.033" y2="211.971"/>
	<line class="st1" x1="72.033" y1="211.971" x2="55.989" y2="211.971"/>
	<path class="st1" d="M55.989,209.731c0-0.322-0.297-0.578-0.67-0.578"/>
	<line class="st1" x1="55.989" y1="211.971" x2="55.989" y2="209.731"/>
	<line class="st1" x1="55.319" y1="209.153" x2="47.108" y2="209.153"/>
	<line class="st1" x1="64.192" y1="222.965" x2="64.192" y2="208.946"/>
	<line class="st1" x1="63.866" y1="222.965" x2="63.866" y2="208.946"/>
	<line class="st1" x1="80.49" y1="222.248" x2="64.192" y2="222.248"/>
	<line class="st1" x1="64.192" y1="208.946" x2="63.866" y2="208.946"/>
	<line class="st1" x1="64.192" y1="222.965" x2="63.866" y2="222.965"/>
	<line class="st1" x1="63.866" y1="222.248" x2="46.98" y2="222.248"/>
	<line class="st1" x1="63.866" y1="220.764" x2="56.685" y2="220.764"/>
	<line class="st1" x1="63.866" y1="219.278" x2="56.685" y2="219.278"/>
	<line class="st1" x1="63.866" y1="217.791" x2="56.685" y2="217.791"/>
	<line class="st1" x1="63.866" y1="216.305" x2="56.685" y2="216.305"/>
	<line class="st1" x1="63.866" y1="214.819" x2="56.685" y2="214.819"/>
	<line class="st1" x1="63.866" y1="213.332" x2="56.685" y2="213.332"/>
	<line class="st1" x1="63.866" y1="210.362" x2="56.034" y2="210.362"/>
	<line class="st1" x1="71.375" y1="220.764" x2="64.192" y2="220.764"/>
	<line class="st1" x1="71.375" y1="219.278" x2="64.192" y2="219.278"/>
	<line class="st1" x1="71.375" y1="217.791" x2="64.192" y2="217.791"/>
	<line class="st1" x1="71.375" y1="216.305" x2="64.192" y2="216.305"/>
	<line class="st1" x1="71.375" y1="214.819" x2="64.192" y2="214.819"/>
	<line class="st1" x1="71.375" y1="213.332" x2="64.192" y2="213.332"/>
	<line class="st1" x1="72.083" y1="210.362" x2="64.192" y2="210.362"/>
	<line class="st1" x1="46.921" y1="210.616" x2="55.378" y2="210.616"/>
	<line class="st1" x1="47.036" y1="212.082" x2="56.265" y2="212.082"/>
	<line class="st1" x1="46.864" y1="213.543" x2="55.378" y2="213.543"/>
	<line class="st1" x1="47.036" y1="215.008" x2="55.344" y2="215.008"/>
	<line class="st1" x1="72.013" y1="210.616" x2="80.72" y2="210.616"/>
	<line class="st1" x1="71.957" y1="212.082" x2="80.779" y2="212.082"/>
	<line class="st1" x1="72.679" y1="213.543" x2="80.835" y2="213.543"/>
	<line class="st1" x1="72.679" y1="215.008" x2="80.779" y2="215.008"/>
	<path class="st1" d="M55.267,223.133c0,0.309,0.293,0.561,0.653,0.561c0.361,0,0.652-0.252,0.652-0.561l0,0"/>
	<line class="st1" x1="56.572" y1="223.133" x2="56.572" y2="222.965"/>
	<line class="st1" x1="55.267" y1="223.133" x2="55.267" y2="222.965"/>
	<path class="st1" d="M71.375,223.133c0,0.309,0.291,0.561,0.648,0.561c0.363,0,0.656-0.252,0.656-0.561l0,0"/>
	<line class="st1" x1="72.679" y1="223.133" x2="72.679" y2="222.965"/>
	<line class="st1" x1="71.375" y1="223.133" x2="71.375" y2="222.965"/>
	<line class="st1" x1="55.929" y1="222.965" x2="55.929" y2="212.112"/>
	<line class="st1" x1="47.095" y1="217.938" x2="55.378" y2="217.938"/>
	<line class="st1" x1="47.095" y1="219.399" x2="55.378" y2="219.399"/>
	<line class="st1" x1="47.151" y1="220.866" x2="55.378" y2="220.866"/>
	<line class="st1" x1="47.036" y1="216.471" x2="55.378" y2="216.471"/>
	<line class="st1" x1="72.015" y1="222.965" x2="72.015" y2="211.915"/>
	<line class="st1" x1="72.679" y1="217.938" x2="80.72" y2="217.938"/>
	<line class="st1" x1="72.679" y1="219.399" x2="80.664" y2="219.399"/>
	<line class="st1" x1="72.679" y1="220.866" x2="80.607" y2="220.866"/>
	<line class="st1" x1="72.587" y1="216.471" x2="80.896" y2="216.471"/>
	<path class="st1" d="M54.799,484.001c0.373,0,0.675-0.217,0.675-0.49"/>
	<line class="st1" x1="46.637" y1="484.001" x2="54.799" y2="484.001"/>
	<line class="st1" x1="55.474" y1="483.511" x2="55.474" y2="481.612"/>
	<line class="st1" x1="55.474" y1="481.612" x2="71.518" y2="481.612"/>
	<path class="st1" d="M71.518,483.511c0,0.273,0.297,0.49,0.67,0.49"/>
	<line class="st1" x1="71.518" y1="481.612" x2="71.518" y2="483.511"/>
	<line class="st1" x1="72.188" y1="484.001" x2="80.399" y2="484.001"/>
	<line class="st1" x1="63.315" y1="472.29" x2="63.315" y2="484.177"/>
	<line class="st1" x1="63.641" y1="472.29" x2="63.641" y2="484.177"/>
	<line class="st1" x1="47.017" y1="472.897" x2="63.315" y2="472.897"/>
	<line class="st1" x1="63.315" y1="484.177" x2="63.641" y2="484.177"/>
	<line class="st1" x1="63.315" y1="472.29" x2="63.641" y2="472.29"/>
	<line class="st1" x1="63.641" y1="472.897" x2="80.527" y2="472.897"/>
	<line class="st1" x1="63.641" y1="474.156" x2="70.823" y2="474.156"/>
	<line class="st1" x1="63.641" y1="475.415" x2="70.823" y2="475.415"/>
	<line class="st1" x1="63.641" y1="476.676" x2="70.823" y2="476.676"/>
	<line class="st1" x1="63.641" y1="477.937" x2="70.823" y2="477.937"/>
	<line class="st1" x1="63.641" y1="479.197" x2="70.823" y2="479.197"/>
	<line class="st1" x1="63.641" y1="480.457" x2="70.823" y2="480.457"/>
	<line class="st1" x1="63.641" y1="482.976" x2="71.473" y2="482.976"/>
	<line class="st1" x1="56.133" y1="474.156" x2="63.315" y2="474.156"/>
	<line class="st1" x1="56.133" y1="475.415" x2="63.315" y2="475.415"/>
	<line class="st1" x1="56.133" y1="476.676" x2="63.315" y2="476.676"/>
	<line class="st1" x1="56.133" y1="477.937" x2="63.315" y2="477.937"/>
	<line class="st1" x1="56.133" y1="479.197" x2="63.315" y2="479.197"/>
	<line class="st1" x1="56.133" y1="480.457" x2="63.315" y2="480.457"/>
	<line class="st1" x1="55.424" y1="482.976" x2="63.315" y2="482.976"/>
	<line class="st1" x1="80.586" y1="482.761" x2="72.129" y2="482.761"/>
	<line class="st1" x1="80.471" y1="481.517" x2="71.243" y2="481.517"/>
	<line class="st1" x1="80.643" y1="480.279" x2="72.129" y2="480.279"/>
	<line class="st1" x1="80.471" y1="479.037" x2="72.164" y2="479.037"/>
	<line class="st1" x1="55.495" y1="482.761" x2="46.788" y2="482.761"/>
	<line class="st1" x1="55.551" y1="481.517" x2="46.728" y2="481.517"/>
	<line class="st1" x1="54.829" y1="480.279" x2="46.671" y2="480.279"/>
	<line class="st1" x1="54.829" y1="479.037" x2="46.728" y2="479.037"/>
	<path class="st1" d="M72.241,472.147c0-0.262-0.293-0.476-0.653-0.476c-0.361,0-0.652,0.214-0.652,0.476l0,0"/>
	<line class="st1" x1="70.935" y1="472.147" x2="70.935" y2="472.29"/>
	<line class="st1" x1="72.241" y1="472.147" x2="72.241" y2="472.29"/>
	<path class="st1" d="M56.133,472.147c0-0.262-0.291-0.476-0.648-0.476c-0.363,0-0.656,0.214-0.656,0.476l0,0"/>
	<line class="st1" x1="54.829" y1="472.147" x2="54.829" y2="472.29"/>
	<line class="st1" x1="56.133" y1="472.147" x2="56.133" y2="472.29"/>
	<line class="st1" x1="71.579" y1="472.29" x2="71.579" y2="481.493"/>
	<line class="st1" x1="80.413" y1="476.552" x2="72.129" y2="476.552"/>
	<line class="st1" x1="80.413" y1="475.313" x2="72.129" y2="475.313"/>
	<line class="st1" x1="80.356" y1="474.07" x2="72.129" y2="474.07"/>
	<line class="st1" x1="80.471" y1="477.796" x2="72.129" y2="477.796"/>
	<line class="st1" x1="55.493" y1="472.29" x2="55.493" y2="481.66"/>
	<line class="st1" x1="54.829" y1="476.552" x2="46.788" y2="476.552"/>
	<line class="st1" x1="54.829" y1="475.313" x2="46.844" y2="475.313"/>
	<line class="st1" x1="54.829" y1="474.07" x2="46.901" y2="474.07"/>
	<line class="st1" x1="54.92" y1="477.796" x2="46.612" y2="477.796"/>
	<path class="st1" d="M71.664,710.058c-0.335,0-0.606,0.256-0.606,0.578"/>
	<line class="st1" x1="78.993" y1="710.058" x2="71.664" y2="710.058"/>
	<line class="st1" x1="71.057" y1="710.636" x2="71.057" y2="712.876"/>
	<line class="st1" x1="71.057" y1="712.876" x2="56.652" y2="712.876"/>
	<path class="st1" d="M56.652,710.636c0-0.322-0.267-0.578-0.602-0.578"/>
	<line class="st1" x1="56.652" y1="712.876" x2="56.652" y2="710.636"/>
	<line class="st1" x1="56.05" y1="710.058" x2="48.678" y2="710.058"/>
	<line class="st1" x1="64.017" y1="723.871" x2="64.017" y2="709.851"/>
	<line class="st1" x1="63.725" y1="723.871" x2="63.725" y2="709.851"/>
	<line class="st1" x1="78.65" y1="723.154" x2="64.017" y2="723.154"/>
	<line class="st1" x1="64.017" y1="709.851" x2="63.725" y2="709.851"/>
	<line class="st1" x1="64.017" y1="723.871" x2="63.725" y2="723.871"/>
	<line class="st1" x1="63.725" y1="723.154" x2="48.562" y2="723.154"/>
	<line class="st1" x1="63.725" y1="721.669" x2="57.276" y2="721.669"/>
	<line class="st1" x1="63.725" y1="720.183" x2="57.276" y2="720.183"/>
	<line class="st1" x1="63.725" y1="718.697" x2="57.276" y2="718.697"/>
	<line class="st1" x1="63.725" y1="717.21" x2="57.276" y2="717.21"/>
	<line class="st1" x1="63.725" y1="715.724" x2="57.276" y2="715.724"/>
	<line class="st1" x1="63.725" y1="714.238" x2="57.276" y2="714.238"/>
	<line class="st1" x1="63.725" y1="711.267" x2="56.692" y2="711.267"/>
	<line class="st1" x1="70.465" y1="721.669" x2="64.017" y2="721.669"/>
	<line class="st1" x1="70.465" y1="720.183" x2="64.017" y2="720.183"/>
	<line class="st1" x1="70.465" y1="718.697" x2="64.017" y2="718.697"/>
	<line class="st1" x1="70.465" y1="717.21" x2="64.017" y2="717.21"/>
	<line class="st1" x1="70.465" y1="715.724" x2="64.017" y2="715.724"/>
	<line class="st1" x1="70.465" y1="714.238" x2="64.017" y2="714.238"/>
	<line class="st1" x1="71.102" y1="711.267" x2="64.017" y2="711.267"/>
	<line class="st1" x1="48.509" y1="711.521" x2="56.103" y2="711.521"/>
	<line class="st1" x1="48.613" y1="712.988" x2="56.899" y2="712.988"/>
	<line class="st1" x1="48.458" y1="714.449" x2="56.103" y2="714.449"/>
	<line class="st1" x1="48.613" y1="715.914" x2="56.071" y2="715.914"/>
	<line class="st1" x1="71.04" y1="711.521" x2="78.857" y2="711.521"/>
	<line class="st1" x1="70.989" y1="712.988" x2="78.91" y2="712.988"/>
	<line class="st1" x1="71.637" y1="714.449" x2="78.96" y2="714.449"/>
	<line class="st1" x1="71.637" y1="715.914" x2="78.91" y2="715.914"/>
	<path class="st1" d="M56.003,724.039c0,0.309,0.263,0.56,0.585,0.56c0.325,0,0.586-0.252,0.586-0.56l0,0"/>
	<line class="st1" x1="57.174" y1="724.039" x2="57.174" y2="723.871"/>
	<line class="st1" x1="56.003" y1="724.039" x2="56.003" y2="723.871"/>
	<path class="st1" d="M70.465,724.039c0,0.309,0.262,0.56,0.583,0.56c0.326,0,0.589-0.252,0.589-0.56l0,0"/>
	<line class="st1" x1="71.637" y1="724.039" x2="71.637" y2="723.871"/>
	<line class="st1" x1="70.465" y1="724.039" x2="70.465" y2="723.871"/>
	<line class="st1" x1="56.597" y1="723.871" x2="56.597" y2="713.017"/>
	<line class="st1" x1="48.666" y1="718.843" x2="56.103" y2="718.843"/>
	<line class="st1" x1="48.666" y1="720.304" x2="56.103" y2="720.304"/>
	<line class="st1" x1="48.716" y1="721.771" x2="56.103" y2="721.771"/>
	<line class="st1" x1="48.613" y1="717.376" x2="56.103" y2="717.376"/>
	<line class="st1" x1="71.041" y1="723.871" x2="71.041" y2="712.82"/>
	<line class="st1" x1="71.637" y1="718.843" x2="78.857" y2="718.843"/>
	<line class="st1" x1="71.637" y1="720.304" x2="78.806" y2="720.304"/>
	<line class="st1" x1="71.637" y1="721.771" x2="78.755" y2="721.771"/>
	<line class="st1" x1="71.555" y1="717.376" x2="79.015" y2="717.376"/>
	<polyline class="st1" points="29.683,320.367 29.683,304.842 78.767,304.809 80.535,302.816 90.535,302.864 105.246,289.237 
		105.203,281.283 111.369,272.249 116.119,272.283 116.039,264.071 111.603,261.712 111.626,255.362 116.068,253.419 
		116.105,233.791 108.285,233.791 108.285,226.2 46.868,226.45 46.868,207.617 29.534,207.617 	"/>
	<line class="st1" x1="0.784" y1="581.764" x2="127.535" y2="581.764"/>
	<polyline class="st1" points="76.033,456.367 76.033,444.719 82.253,444.719 82.253,397.2 	"/>
	<polyline class="st1" points="76.035,456.052 115.916,456.052 115.916,397.274 	"/>
	<line class="st1" x1="79.277" y1="330.702" x2="115.953" y2="330.702"/>
	<polyline class="st1" points="39.902,503.117 39.902,485.138 46.415,485.138 46.415,468.632 99.027,468.632 	"/>
	<polyline class="st1" points="99.097,455.784 99.136,484.885 80.804,484.885 80.804,468.456 	"/>
	<line class="st1" x1="81.099" y1="476.888" x2="99.082" y2="476.888"/>
	<line class="st1" x1="0.443" y1="724.534" x2="45.458" y2="724.534"/>
	<line class="st1" x1="81.878" y1="724.575" x2="127.605" y2="724.575"/>
	<polygon class="st1" points="79.066,709.346 82.042,709.257 82.042,733.247 72.576,733.306 72.576,730.437 55.748,730.437 
		55.748,733.247 45.31,733.247 45.31,709.257 48.323,709.257 48.323,726.438 79.066,726.438 	"/>
	<polyline class="st1" points="25.142,835.423 25.142,763.161 0.722,763.161 	"/>
	<polyline class="st1" points="102.605,835.581 102.605,763.411 127.619,763.411 	"/>
	<polyline class="st1" points="24.952,786.896 14.317,786.896 14.317,773.993 25.451,773.993 	"/>
	<polyline class="st1" points="40.61,724.368 40.632,693.507 88.019,693.507 88.033,724.867 	"/>
	<line class="st1" x1="0.797" y1="347.185" x2="18.567" y2="347.16"/>
	<polyline class="st1" points="127.285,381.867 105.753,381.731 105.753,364.785 127.119,353.785 	"/>
	<rect x="40.368" y="494.704" class="st1" width="10.083" height="8.586"/>
	<polygon class="st1" points="50.454,503.29 50.454,494.704 60.479,494.704 60.479,503.29 	"/>
	<polygon class="st1" points="67.505,503.29 67.505,494.704 77.589,494.704 77.589,503.29 	"/>
	<polygon class="st1" points="77.591,503.29 77.591,494.704 87.619,494.704 87.619,503.29 	"/>
	<polygon class="st1" points="63.896,702.068 63.896,693.48 73.982,693.48 73.982,702.068 	"/>
	<polygon class="st1" points="53.812,702.068 53.812,693.48 63.896,693.48 63.896,702.068 	"/>
	<polygon class="st1" points="73.976,702.068 73.976,693.48 84.06,693.48 84.06,702.068 	"/>
	<polygon class="st1" points="43.728,702.068 43.728,693.48 53.813,693.48 53.813,702.068 	"/>
	<path class="st1" d="M61.929,749.618c-8.697-0.821-15.633-7.657-16.561-16.28"/>
	<path class="st1" d="M82.005,733.405c-0.951,8.563-7.834,15.351-16.471,16.205"/>
	<path class="st1" d="M76.765,747.277c-3.512,2.944-8.039,4.718-12.981,4.718c-4.977,0-9.533-1.799-13.055-4.781"/>
	<path class="st1" d="M62.194,747.429c-7.395-0.729-13.301-6.794-14.153-14.467"/>
	<path class="st1" d="M79.341,732.956c-0.85,7.675-6.756,13.743-14.153,14.472"/>
	<path class="st1" d="M62.718,745.263c-6.275-0.467-11.334-5.419-12.121-11.732"/>
	<path class="st1" d="M76.785,733.539c-1.24,9.899-8.467,11.521-12.122,11.733"/>
	<path class="st1" d="M54.847,742.054c0,0-3.479,5.396-4.562,5.062"/>
	<path class="st1" d="M50.713,746.442c0,0.598-0.485,1.083-1.083,1.083c-0.6,0-1.084-0.485-1.084-1.083
		c0-0.599,0.484-1.084,1.084-1.084C50.228,745.358,50.713,745.843,50.713,746.442z"/>
	<path class="st1" d="M72.406,742.184c0,0,3.35,5.266,4.432,4.933"/>
	<path class="st1" d="M76.41,746.442c0,0.598,0.484,1.083,1.084,1.083c0.598,0,1.082-0.485,1.082-1.083
		c0-0.599-0.484-1.084-1.082-1.084C76.894,745.358,76.41,745.843,76.41,746.442z"/>
	<circle class="st1" cx="63.784" cy="749.867" r="1.812"/>
	<polyline class="st1" points="61.784,749.867 63.722,741.804 65.722,749.929 	"/>
	<path class="st1" d="M0.675,733.19H27.8v7.243c0,0,6.802-2.062,6.547,13.434c0,0-0.25,0-2.611,0.058v1.942
		c0,0,2.549-0.166,2.65,3.75v1.625c0,0,0.148,1.938-1.852,2l-7.291-0.065"/>
	<path class="st1" d="M25.304,768.409h7.979c0,0,1.385,0.038,1.385,1.313c0,1.658,0,5.054,0,5.946c0,1.022-1.484,1.02-1.484,1.02
		v1.479c0,0,1.501-0.106,1.501,2.729c0,2.551,0,4.212,0,4.212s0.099,1.792-1.184,1.792c-1.982,0-8.195,0-8.195,0"/>
	<path class="st1" d="M25.304,792.554h7.979c0,0,1.385,0.046,1.385,1.605c0,2.026,0,6.176,0,7.267c0,1.251-1.484,1.247-1.484,1.247
		v1.763c0,0,1.501-0.087,1.501,3.379c0,3.117,0,5.147,0,5.147s0.099,2.19-1.184,2.19c-1.982,0-8.195,0-8.195,0"/>
	<polyline class="st1" points="102.908,786.896 113.541,786.896 113.541,773.993 102.408,773.993 	"/>
	<path class="st1" d="M127.183,733.19H100.06v7.243c0,0-6.803-2.062-6.549,13.434c0,0,0.25,0,2.611,0.058v1.942
		c0,0-2.549-0.166-2.648,3.75v1.625c0,0-0.15,1.938,1.85,2l7.291-0.065"/>
	<path class="st1" d="M102.556,768.409h-7.98c0,0-1.385,0.038-1.385,1.313c0,1.658,0,5.054,0,5.946c0,1.022,1.486,1.02,1.486,1.02
		v1.479c0,0-1.502-0.106-1.502,2.729c0,2.551,0,4.212,0,4.212s-0.098,1.792,1.186,1.792c1.98,0,8.195,0,8.195,0"/>
	<path class="st1" d="M102.556,792.554h-7.98c0,0-1.385,0.046-1.385,1.605c0,2.026,0,6.176,0,7.267c0,1.251,1.486,1.247,1.486,1.247
		v1.763c0,0-1.502-0.087-1.502,3.379c0,3.117,0,5.147,0,5.147s-0.098,2.19,1.186,2.19c1.98,0,8.195,0,8.195,0"/>
	<polyline class="st1" points="127.458,494.68 115.732,494.68 115.732,500.044 106.195,500.044 106.195,494.68 92.013,494.68 
		92.013,503.314 87.699,503.314 87.699,494.68 40.284,494.617 	"/>
	<polyline class="st1" points="127.402,468.617 115.777,468.617 115.777,494.68 	"/>
	<polyline class="st1" points="87.441,503.29 29.784,503.29 29.784,468.632 38.561,468.7 38.561,455.662 29.672,455.662 
		29.624,385.705 54.032,385.794 56.451,385.783 56.451,368.098 63.949,368.098 63.966,396.992 95.453,396.992 95.453,395.117 
		101.869,395.117 101.869,397.617 116.035,397.617 	"/>
	<line class="st1" x1="0.618" y1="434.034" x2="29.451" y2="434.034"/>
	<polyline class="st1" points="27.8,733.19 31.891,733.19 31.891,724.765 	"/>
	<polyline class="st1" points="100.015,733.19 95.923,733.19 95.923,724.765 	"/>
	<line class="st1" x1="60.284" y1="368.324" x2="60.284" y2="335.367"/>
	<polyline class="st1" points="115.785,340.841 79.535,340.841 79.535,335.367 59.777,335.367 	"/>
	<polyline class="st1" points="18.431,347.117 23.284,347.117 60.034,347.117 	"/>
	<path class="st1" d="M115.785,330.867v20c-20.258,13.25-50.501,2.25-50.501,2.25V335.7"/>
	<line class="st1" x1="78.951" y1="304.867" x2="78.951" y2="330.533"/>
	<line class="st1" x1="0.618" y1="320.034" x2="29.451" y2="320.034"/>
	<polyline class="st1" points="108.453,233.867 29.452,233.867 29.452,191.867 	"/>
	<line class="st1" x1="50.784" y1="226.367" x2="50.784" y2="234.033"/>
	<line class="st1" x1="29.452" y1="226.458" x2="0.784" y2="226.458"/>
	<line class="st1" x1="29.034" y1="221.367" x2="47.063" y2="221.367"/>
	<polyline class="st1" points="81.042,226.367 81.042,207.617 85.373,207.617 85.373,226.593 	"/>
	<path class="st1" d="M73.482,396.74v-7.514 M75.191,396.613v-7.615 M76.896,396.613v-7.722 M78.703,396.613v-7.843 M80.385,396.74
		v-7.924 M81.953,396.613v-7.843 M83.572,396.74v-8.357 M63.797,389.454h9.215 M63.84,388.041h9.215 M63.857,386.444l9.09,0.029"/>
	<path class="st1" d="M63.797,384.62h9.215 M63.84,383.208h9.215 M63.857,381.61l9.09,0.029"/>
	<polyline class="st1" points="86.444,397.117 85.15,388.021 72.968,389.445 72.96,381.2 63.944,381.2 	"/>
	<path class="st1" d="M113.619,120.7c0,0-23.879,7.568-49.501,8.667c-26.834-1.333-49.667-8.667-49.667-8.667"/>
	<path class="st1" d="M36.904,51.088h53.731v19.92h-5.608c0,0-9.726,5.982-20.69,6.148c-12.498,0.19-19.306-4.812-20.84-5.98h-6.764
		l0.171-16.223C36.904,54.953,36.904,51.088,36.904,51.088z"/>
	<path class="st2" d="M87.409,469.605h1.008c0.999,0.001,1.727,0.529,1.726,1.785v0.071c-0.001,0.728-0.289,1.191-0.657,1.471
		l0.75,2.271l-1.039-0.001l-0.631-1.951h-0.184l-0.002,1.951l-0.975-0.001L87.409,469.605z M88.43,472.372
		c0.424,0.001,0.735-0.247,0.736-0.902v-0.064c0-0.703-0.335-0.888-0.759-0.888h-0.024l-0.001,1.854H88.43z M90.592,469.607
		l1.008,0.001c1,0.001,1.727,0.529,1.726,1.784v0.072c0,0.728-0.289,1.191-0.656,1.471l0.749,2.271l-1.039-0.001l-0.63-1.951
		l-0.185-0.001l-0.001,1.951l-0.976-0.001L90.592,469.607z M91.614,472.375c0.424,0,0.736-0.247,0.736-0.903v-0.063
		c0.001-0.704-0.335-0.888-0.759-0.889h-0.023l-0.002,1.855H91.614z"/>
	<path class="st2" d="M87.41,478.701h1.007c1,0.001,1.727,0.529,1.726,1.785v0.071c0,0.728-0.288,1.191-0.656,1.471l0.75,2.271
		l-1.04-0.001l-0.63-1.951h-0.184l-0.002,1.951l-0.976-0.001L87.41,478.701z M88.43,481.468c0.424,0.001,0.736-0.247,0.736-0.902
		l0.001-0.064c0-0.703-0.336-0.888-0.76-0.888h-0.023l-0.002,1.854H88.43z M90.593,478.703l1.008,0.001
		c0.999,0.001,1.727,0.529,1.726,1.784v0.072c-0.001,0.728-0.289,1.191-0.657,1.471l0.75,2.271l-1.039-0.001l-0.631-1.951
		l-0.184-0.001l-0.002,1.951l-0.975-0.001L90.593,478.703z M91.615,481.471c0.424,0,0.735-0.247,0.736-0.903v-0.063
		c0-0.704-0.335-0.888-0.759-0.889h-0.024l-0.001,1.855H91.615z"/>
	<path class="st2" d="M34.369,212.461l1.007,0.001c1,0,1.727,0.529,1.726,1.784v0.072c0,0.728-0.289,1.191-0.657,1.47l0.75,2.271
		h-1.039l-0.63-1.952h-0.184l-0.002,1.951h-0.975L34.369,212.461z M35.39,215.229c0.424,0,0.736-0.247,0.736-0.903v-0.064
		c0.001-0.704-0.335-0.888-0.759-0.888h-0.024l-0.001,1.855H35.39z M37.553,212.464l1.007,0.001c1,0.001,1.727,0.529,1.726,1.784
		v0.072c0,0.728-0.289,1.191-0.657,1.471l0.75,2.271h-1.04l-0.63-1.952h-0.184l-0.001,1.951h-0.976L37.553,212.464z M38.574,215.231
		c0.424,0,0.736-0.248,0.736-0.903v-0.064c0-0.704-0.335-0.888-0.759-0.888h-0.024l-0.001,1.855H38.574z"/>
	<path class="st2" d="M34.368,224.959l1.007,0.001c1,0,1.727,0.529,1.726,1.784v0.072c0,0.728-0.289,1.191-0.657,1.47l0.75,2.271
		h-1.04l-0.63-1.952H35.34l-0.001,1.951h-0.976L34.368,224.959z M35.39,227.726c0.424,0,0.736-0.247,0.736-0.903v-0.064
		c0-0.704-0.335-0.888-0.759-0.888h-0.024l-0.002,1.855H35.39z M37.552,224.961l1.007,0.001c1,0.001,1.727,0.529,1.726,1.784v0.072
		c0,0.728-0.289,1.191-0.657,1.471l0.75,2.271h-1.04l-0.63-1.952h-0.184l-0.001,1.951h-0.976L37.552,224.961z M38.573,227.729
		c0.424,0,0.736-0.248,0.736-0.903v-0.064c0-0.704-0.335-0.888-0.759-0.888h-0.024l-0.001,1.855H38.573z"/>
	<path class="st2" d="M17.241,777.888h1.007c1,0.001,1.727,0.529,1.726,1.785v0.071c0,0.728-0.289,1.191-0.657,1.471l0.75,2.271
		l-1.039-0.001l-0.63-1.951h-0.184l-0.002,1.951l-0.975-0.001L17.241,777.888z M18.262,780.654c0.424,0.001,0.736-0.247,0.736-0.902
		v-0.064c0.001-0.703-0.335-0.888-0.759-0.888h-0.024l-0.001,1.854H18.262z M20.425,777.89l1.007,0.001
		c1,0.001,1.727,0.529,1.726,1.784v0.072c0,0.728-0.289,1.191-0.657,1.471l0.75,2.271l-1.04-0.001l-0.63-1.951l-0.184-0.001
		l-0.001,1.951l-0.976-0.001L20.425,777.89z M21.446,780.657c0.424,0,0.736-0.247,0.736-0.903v-0.063
		c0-0.704-0.335-0.888-0.759-0.889h-0.024l-0.001,1.855H21.446z"/>
	<path class="st2" d="M105.477,777.888h1.008c0.999,0.001,1.727,0.529,1.726,1.785v0.071c-0.001,0.728-0.289,1.191-0.657,1.471
		l0.75,2.271l-1.039-0.001l-0.631-1.951h-0.184l-0.002,1.951l-0.975-0.001L105.477,777.888z M106.499,780.654
		c0.424,0.001,0.735-0.247,0.736-0.902v-0.064c0-0.703-0.335-0.888-0.759-0.888h-0.024l-0.001,1.854H106.499z M108.661,777.89
		l1.008,0.001c1,0.001,1.727,0.529,1.726,1.784v0.072c0,0.728-0.289,1.191-0.656,1.471l0.749,2.271l-1.039-0.001l-0.63-1.951
		l-0.185-0.001l-0.001,1.951l-0.976-0.001L108.661,777.89z M109.682,780.657c0.424,0,0.736-0.247,0.736-0.903v-0.063
		c0.001-0.704-0.335-0.888-0.759-0.889h-0.023l-0.002,1.855H109.682z"/>
	<path class="st2" d="M57.181,67.635v-1.016c0.344,0.2,0.615,0.312,0.879,0.312c0.28,0,0.52-0.136,0.52-0.48v-0.016
		c0-0.256-0.08-0.448-0.543-0.976c-0.664-0.751-0.936-1.111-0.936-1.791v-0.016c0-0.896,0.583-1.463,1.359-1.463
		c0.392,0,0.624,0.056,0.863,0.176v1.015c-0.304-0.176-0.488-0.256-0.744-0.256c-0.272,0-0.503,0.176-0.503,0.48v0.016
		c0,0.264,0.08,0.36,0.543,0.896c0.768,0.887,0.936,1.231,0.936,1.871v0.016c0,0.88-0.616,1.463-1.383,1.463
		C57.789,67.867,57.461,67.771,57.181,67.635z M60.3,63.157h-0.688v-0.928h2.351v0.928h-0.688v4.669H60.3V63.157z M62.917,62.214
		h1.039l1.063,5.613h-0.976l-0.184-1.111h-0.888l-0.176,1.111h-0.943L62.917,62.214z M63.716,65.836l-0.296-1.847l-0.304,1.847
		H63.716z M65.141,65.124v-0.192c0-1.807,0.768-2.742,1.871-2.742c0.296,0,0.544,0.064,0.744,0.16v1.016
		c-0.24-0.144-0.456-0.24-0.711-0.24c-0.56,0-0.912,0.56-0.912,1.767v0.272c0,1.463,0.432,1.799,0.832,1.799
		c0.032,0,0.04,0,0.088-0.008v-1.431h-0.48v-0.872h1.368v2.975c-0.352,0.152-0.64,0.24-1.016,0.24
		C65.948,67.867,65.141,67.075,65.141,65.124z M68.477,62.229h2.143v0.928h-1.167v1.391h1.031v0.928h-1.031v1.423h1.191v0.927
		h-2.167V62.229z"/>
	<path class="st2" d="M46.899,268.964v-0.192c0-1.967,0.728-2.742,1.639-2.742c0.272,0,0.432,0.032,0.64,0.128v1.007
		c-0.2-0.12-0.36-0.184-0.544-0.184c-0.432,0-0.744,0.384-0.744,1.783v0.208c0,1.479,0.312,1.783,0.76,1.783
		c0.152,0,0.344-0.056,0.544-0.176v0.959c-0.224,0.128-0.44,0.168-0.72,0.168C47.579,271.707,46.899,270.916,46.899,268.964z
		 M50.466,266.054h1.04l1.063,5.613h-0.976l-0.184-1.111h-0.887l-0.176,1.111h-0.944L50.466,266.054z M51.266,269.676l-0.296-1.847
		l-0.304,1.847H51.266z M52.747,271.475v-1.016c0.344,0.2,0.616,0.312,0.879,0.312c0.28,0,0.52-0.136,0.52-0.479v-0.016
		c0-0.256-0.08-0.448-0.543-0.976c-0.664-0.751-0.936-1.111-0.936-1.791v-0.016c0-0.896,0.583-1.463,1.359-1.463
		c0.392,0,0.624,0.056,0.863,0.176v1.016c-0.304-0.176-0.488-0.256-0.744-0.256c-0.271,0-0.503,0.176-0.503,0.479v0.016
		c0,0.264,0.08,0.36,0.543,0.896c0.768,0.887,0.936,1.231,0.936,1.871v0.016c0,0.879-0.616,1.463-1.383,1.463
		C53.355,271.707,53.027,271.611,52.747,271.475z M55.483,266.07h0.976v5.597h-0.976V266.07z M57.051,266.07h0.912l0.983,2.83v-2.83
		h0.951v5.597h-0.863l-1.031-2.966v2.966h-0.952C57.051,271.667,57.051,266.07,57.051,266.07z M60.379,269.013v-0.288
		c0-1.847,0.6-2.734,1.487-2.734c0.888,0,1.487,0.887,1.487,2.734v0.288c0,1.847-0.6,2.734-1.487,2.734
		S60.379,270.859,60.379,269.013z M62.362,269.013v-0.288c0-1.439-0.2-1.839-0.496-1.839c-0.295,0-0.496,0.399-0.496,1.839v0.288
		c0,1.439,0.2,1.839,0.496,1.839S62.362,270.452,62.362,269.013z"/>
	<path class="st2" d="M113.102,366.137h1.039l1.063,5.613h-0.976l-0.184-1.111h-0.888l-0.176,1.111h-0.943L113.102,366.137z
		 M113.901,369.759l-0.296-1.847l-0.304,1.847H113.901z M115.502,366.153h1.007c1,0,1.728,0.527,1.728,1.783v0.072
		c0,0.728-0.288,1.191-0.656,1.472l0.752,2.271h-1.039l-0.632-1.951h-0.184v1.951h-0.976V366.153z M116.526,368.919
		c0.424,0,0.735-0.248,0.735-0.903v-0.064c0-0.704-0.336-0.888-0.76-0.888h-0.023v1.855H116.526z M119.126,367.081h-0.688v-0.927
		h2.351v0.927h-0.688v4.669h-0.976v-4.669H119.126z M106.69,377.047v-0.192c0-1.807,0.768-2.742,1.871-2.742
		c0.296,0,0.544,0.064,0.744,0.16v1.016c-0.24-0.144-0.456-0.24-0.712-0.24c-0.56,0-0.911,0.56-0.911,1.767v0.272
		c0,1.463,0.432,1.799,0.831,1.799c0.032,0,0.04,0,0.088-0.008v-1.431h-0.479v-0.872h1.367v2.975c-0.352,0.152-0.64,0.24-1.016,0.24
		C107.498,379.79,106.69,378.999,106.69,377.047z M110.81,374.137h1.039l1.063,5.613h-0.976l-0.184-1.111h-0.888l-0.176,1.111
		h-0.943L110.81,374.137z M111.609,377.759l-0.295-1.847l-0.305,1.847H111.609z M113.211,374.153h0.976v4.669h1.031v0.928h-2.007
		V374.153z M115.61,374.153h0.976v4.669h1.031v0.928h-2.007V374.153z M118.01,374.153h2.143v0.927h-1.167v1.391h1.031v0.928h-1.031
		v1.423h1.191v0.928h-2.167V374.153z M120.65,374.153h1.008c0.999,0,1.727,0.527,1.727,1.783v0.072c0,0.728-0.288,1.191-0.655,1.472
		l0.751,2.271h-1.039l-0.632-1.951h-0.184v1.951h-0.976V374.153z M121.673,376.919c0.424,0,0.735-0.248,0.735-0.903v-0.064
		c0-0.704-0.336-0.888-0.76-0.888h-0.023v1.855H121.673z M124.425,377.543l-1.039-3.39h1.008l0.527,2.095l0.535-2.095h0.984
		l-1.04,3.39v2.207h-0.976L124.425,377.543L124.425,377.543z"/>
	<path class="st2" d="M71.664,346.963v-0.144c0-1.355,0.575-2.057,1.402-2.057c0.223,0,0.408,0.048,0.559,0.12v0.762
		c-0.181-0.108-0.342-0.18-0.534-0.18c-0.42,0-0.684,0.419-0.684,1.325v0.204c0,1.098,0.324,1.35,0.624,1.35
		c0.023,0,0.029,0,0.065-0.006v-1.073h-0.359v-0.654h1.025v2.231c-0.264,0.114-0.479,0.18-0.762,0.18
		C72.269,349.02,71.664,348.426,71.664,346.963z M74.752,344.78h0.78l0.797,4.209h-0.731l-0.138-0.833h-0.666l-0.132,0.833h-0.707
		L74.752,344.78z M75.352,347.497l-0.222-1.385l-0.228,1.385H75.352z M76.763,345.488h-0.516v-0.696h1.763v0.696h-0.516v3.502
		h-0.731V345.488z M78.227,348.846v-0.761c0.258,0.15,0.462,0.234,0.659,0.234c0.21,0,0.391-0.102,0.391-0.36v-0.012
		c0-0.192-0.061-0.336-0.408-0.731c-0.498-0.564-0.701-0.833-0.701-1.343v-0.012c0-0.671,0.438-1.097,1.019-1.097
		c0.294,0,0.468,0.042,0.648,0.132v0.762c-0.229-0.132-0.366-0.192-0.558-0.192c-0.204,0-0.378,0.132-0.378,0.359v0.012
		c0,0.198,0.06,0.27,0.407,0.672c0.576,0.666,0.702,0.923,0.702,1.403v0.012c0,0.66-0.462,1.097-1.038,1.097
		C78.683,349.02,78.437,348.948,78.227,348.846z M80.267,344.792h0.636c0.707,0,1.367,0.288,1.367,1.067v0.03
		c0,0.54-0.306,0.803-0.605,0.947c0.354,0.156,0.659,0.402,0.659,0.936v0.054c0,0.744-0.575,1.164-1.392,1.164h-0.665
		C80.267,348.99,80.267,344.792,80.267,344.792z M81.01,346.555c0.324,0,0.54-0.186,0.54-0.552v-0.012
		c0-0.366-0.216-0.521-0.54-0.521h-0.012v1.085H81.01z M81.016,348.312c0.336,0,0.576-0.198,0.576-0.545v-0.03
		c0-0.348-0.24-0.545-0.576-0.545h-0.018v1.121L81.016,348.312L81.016,348.312z M83.105,347.334l-0.78-2.542h0.756l0.396,1.571
		l0.402-1.571h0.737l-0.779,2.542v1.655h-0.731L83.105,347.334L83.105,347.334z M84.887,344.792h0.72v0.054l-0.456,1.859h-0.264
		V344.792z M85.823,348.846v-0.761c0.258,0.15,0.462,0.234,0.66,0.234c0.21,0,0.39-0.102,0.39-0.36v-0.012
		c0-0.192-0.061-0.336-0.408-0.731c-0.497-0.564-0.701-0.833-0.701-1.343v-0.012c0-0.671,0.438-1.097,1.02-1.097
		c0.294,0,0.468,0.042,0.647,0.132v0.762c-0.229-0.132-0.366-0.192-0.558-0.192c-0.204,0-0.378,0.132-0.378,0.359v0.012
		c0,0.198,0.06,0.27,0.407,0.672c0.576,0.666,0.702,0.923,0.702,1.403v0.012c0,0.66-0.462,1.097-1.037,1.097
		C86.279,349.02,86.033,348.948,85.823,348.846z M88.745,346.963v-0.144c0-1.475,0.546-2.057,1.229-2.057
		c0.204,0,0.324,0.024,0.479,0.096v0.756c-0.149-0.09-0.27-0.138-0.407-0.138c-0.324,0-0.558,0.288-0.558,1.337v0.156
		c0,1.109,0.233,1.337,0.569,1.337c0.114,0,0.258-0.042,0.408-0.132v0.719c-0.168,0.096-0.33,0.126-0.54,0.126
		C89.254,349.02,88.745,348.426,88.745,346.963z M90.833,344.792h0.731v1.739H92.2v-1.739h0.731v4.198H92.2v-1.763h-0.636v1.763
		h-0.731C90.833,348.99,90.833,344.792,90.833,344.792z M93.953,344.78h0.779l0.798,4.209h-0.731l-0.139-0.833h-0.665l-0.132,0.833
		h-0.708L93.953,344.78z M94.552,347.497l-0.222-1.385l-0.229,1.385H94.552z M95.752,344.792h0.726l0.516,1.535l0.517-1.535h0.726
		v4.198h-0.702v-2.537l-0.533,1.589h-0.013l-0.533-1.589v2.537h-0.702v-4.198H95.752z M98.669,344.792h0.654
		c0.797,0,1.354,0.432,1.354,1.415v0.012c0,0.948-0.527,1.397-1.271,1.451H99.4v1.319h-0.731V344.792z M99.407,346.993
		c0.306-0.018,0.539-0.24,0.539-0.75v-0.012c0-0.534-0.204-0.762-0.521-0.762H99.4v1.523L99.407,346.993L99.407,346.993z
		 M101.356,344.78h0.78l0.797,4.209h-0.731l-0.138-0.833h-0.666l-0.132,0.833h-0.707L101.356,344.78z M101.957,347.497l-0.223-1.385
		l-0.228,1.385H101.957z M103.025,346.963v-0.144c0-1.355,0.575-2.057,1.403-2.057c0.222,0,0.407,0.048,0.558,0.12v0.762
		c-0.18-0.108-0.342-0.18-0.534-0.18c-0.419,0-0.684,0.419-0.684,1.325v0.204c0,1.098,0.324,1.35,0.624,1.35
		c0.023,0,0.03,0,0.065-0.006v-1.073h-0.359v-0.654h1.025v2.231c-0.264,0.114-0.479,0.18-0.762,0.18
		C103.63,349.02,103.025,348.426,103.025,346.963z M105.527,344.792h0.684l0.737,2.123v-2.123h0.714v4.198h-0.647l-0.773-2.225
		v2.225h-0.714L105.527,344.792L105.527,344.792z M108.094,344.792h1.607v0.696h-0.875v1.043h0.773v0.695h-0.773v1.067h0.894v0.696
		h-1.626V344.792z M87.35,350.792h0.636c0.707,0,1.367,0.288,1.367,1.067v0.03c0,0.54-0.306,0.803-0.605,0.947
		c0.354,0.156,0.659,0.402,0.659,0.936v0.054c0,0.744-0.576,1.164-1.392,1.164H87.35V350.792z M88.093,352.555
		c0.324,0,0.54-0.186,0.54-0.552v-0.012c0-0.366-0.216-0.521-0.54-0.521h-0.012v1.085H88.093z M88.099,354.312
		c0.336,0,0.576-0.198,0.576-0.545v-0.03c0-0.348-0.24-0.545-0.576-0.545h-0.018v1.121L88.099,354.312L88.099,354.312z
		 M90.272,350.78h0.779l0.798,4.209h-0.732l-0.138-0.833h-0.665l-0.133,0.833h-0.707L90.272,350.78z M90.872,353.497l-0.223-1.385
		l-0.228,1.385H90.872z M92.072,350.792h0.756c0.749,0,1.295,0.396,1.295,1.337v0.054c0,0.546-0.216,0.894-0.491,1.104l0.563,1.703
		h-0.779l-0.475-1.463h-0.138v1.463h-0.731V350.792z M92.839,352.867c0.318,0,0.552-0.186,0.552-0.677v-0.048
		c0-0.527-0.252-0.666-0.569-0.666h-0.019v1.391H92.839z"/>
	<path class="st2" d="M58.614,534.666h1.039l1.063,5.613H59.74l-0.184-1.111h-0.888l-0.176,1.111H57.55L58.614,534.666z
		 M59.413,538.288l-0.296-1.847l-0.304,1.847H59.413z M63.141,540.008c-0.232,0.239-0.503,0.352-0.792,0.352
		c-0.919,0-1.511-0.888-1.511-2.734v-0.288c0-1.847,0.6-2.734,1.487-2.734c0.888,0,1.487,0.888,1.487,2.734v0.288
		c0,0.76-0.112,1.359-0.304,1.799l0.503,0.464l-0.488,0.52L63.141,540.008z M62.573,539.416l-0.48-0.472l0.456-0.504l0.231,0.248
		c0.024-0.264,0.04-0.608,0.04-1.063v-0.288c0-1.439-0.2-1.839-0.496-1.839s-0.496,0.399-0.496,1.839v0.288
		c0,1.567,0.208,1.854,0.567,1.854C62.461,539.479,62.517,539.464,62.573,539.416z M64.334,538.648v-3.966h0.967v4.062
		c0,0.504,0.176,0.704,0.424,0.704s0.424-0.2,0.424-0.704v-4.062h0.967v3.966c0,1.175-0.591,1.703-1.391,1.703
		C64.926,540.352,64.334,539.823,64.334,538.648z M68.421,534.666h1.039l1.063,5.613h-0.976l-0.184-1.111h-0.888l-0.176,1.111
		h-0.943L68.421,534.666z M69.221,538.288l-0.296-1.847l-0.304,1.847H69.221z M41.814,542.683h0.968l0.688,2.047l0.688-2.047h0.968
		v5.597H44.19v-3.382l-0.712,2.118h-0.016l-0.712-2.118v3.382h-0.936C41.814,548.28,41.814,542.683,41.814,542.683z M46.486,542.666
		h1.039l1.063,5.613h-0.975l-0.184-1.111h-0.888l-0.176,1.111h-0.943L46.486,542.666z M47.285,546.288l-0.296-1.847l-0.304,1.847
		H47.285z M48.902,542.683h0.976v5.597h-0.976V542.683z M50.47,542.683h0.911l0.984,2.83v-2.83h0.951v5.597h-0.863l-1.032-2.967
		v2.967H50.47V542.683z M55.166,542.683h0.912c1.247,0,1.959,0.903,1.959,2.702v0.192c0,1.799-0.712,2.702-1.959,2.702h-0.912
		V542.683z M56.182,547.384c0.463,0,0.863-0.408,0.863-1.807v-0.192c0-1.399-0.4-1.807-0.863-1.807h-0.04v3.806H56.182z
		 M58.534,542.683h0.976v5.597h-0.976V542.683z M60.102,542.683h0.911l0.984,2.83v-2.83h0.951v5.597h-0.863l-1.032-2.967v2.967
		h-0.951V542.683z M63.542,542.683h0.975v5.597h-0.975V542.683z M65.11,542.683h0.912l0.983,2.83v-2.83h0.952v5.597h-0.864
		l-1.031-2.967v2.967H65.11V542.683z M68.438,545.577v-0.192c0-1.807,0.768-2.742,1.871-2.742c0.296,0,0.544,0.063,0.743,0.16v1.015
		c-0.239-0.144-0.455-0.239-0.711-0.239c-0.561,0-0.912,0.56-0.912,1.767v0.272c0,1.463,0.432,1.799,0.832,1.799
		c0.031,0,0.04,0,0.088-0.008v-1.432h-0.48v-0.871h1.367v2.974c-0.352,0.152-0.639,0.24-1.015,0.24
		C69.246,548.319,68.438,547.527,68.438,545.577z M73.045,542.683h1.008c0.999,0,1.728,0.527,1.728,1.783v0.071
		c0,0.728-0.288,1.191-0.656,1.472l0.752,2.271h-1.04l-0.631-1.951h-0.185v1.951h-0.976
		C73.045,548.28,73.045,542.683,73.045,542.683z M74.069,545.449c0.424,0,0.736-0.248,0.736-0.904v-0.063
		c0-0.704-0.336-0.888-0.76-0.888h-0.024v1.855H74.069z M76.134,545.625v-0.288c0-1.847,0.6-2.734,1.486-2.734
		c0.888,0,1.487,0.888,1.487,2.734v0.288c0,1.847-0.6,2.734-1.487,2.734C76.734,548.359,76.134,547.472,76.134,545.625z
		 M78.117,545.625v-0.288c0-1.439-0.2-1.839-0.496-1.839s-0.495,0.399-0.495,1.839v0.288c0,1.438,0.199,1.839,0.495,1.839
		S78.117,547.063,78.117,545.625z M79.494,545.625v-0.288c0-1.847,0.6-2.734,1.487-2.734s1.487,0.888,1.487,2.734v0.288
		c0,1.847-0.6,2.734-1.487,2.734S79.494,547.472,79.494,545.625z M81.477,545.625v-0.288c0-1.439-0.2-1.839-0.496-1.839
		s-0.496,0.399-0.496,1.839v0.288c0,1.438,0.2,1.839,0.496,1.839S81.477,547.063,81.477,545.625z M82.95,542.683h0.968l0.688,2.047
		l0.688-2.047h0.968v5.597h-0.936v-3.382l-0.712,2.118h-0.016l-0.712-2.118v3.382H82.95V542.683z"/>
	<path class="st2" d="M50.62,767.13h0.991l0.528,3.646l0.528-3.646h0.959l-1,5.612h-1.007L50.62,767.13z M53.923,767.13h2.143v0.928
		h-1.167v1.391h1.031v0.928h-1.031v1.423h1.191v0.928h-2.167C53.923,772.728,53.923,767.13,53.923,767.13z M56.563,767.13h1.008
		c1,0,1.727,0.527,1.727,1.783v0.071c0,0.728-0.288,1.191-0.656,1.472l0.751,2.271h-1.04l-0.631-1.951h-0.184v1.951h-0.976
		L56.563,767.13L56.563,767.13z M57.586,769.896c0.424,0,0.736-0.248,0.736-0.904v-0.063c0-0.704-0.336-0.888-0.76-0.888h-0.024
		v1.855H57.586z M59.627,772.534v-1.015c0.344,0.199,0.615,0.312,0.879,0.312c0.28,0,0.52-0.136,0.52-0.479v-0.017
		c0-0.256-0.08-0.447-0.543-0.975c-0.664-0.752-0.936-1.112-0.936-1.791v-0.017c0-0.896,0.583-1.463,1.359-1.463
		c0.392,0,0.624,0.056,0.863,0.176v1.016c-0.304-0.176-0.488-0.256-0.744-0.256c-0.272,0-0.503,0.176-0.503,0.479v0.016
		c0,0.265,0.08,0.36,0.543,0.896c0.768,0.888,0.936,1.231,0.936,1.871v0.017c0,0.879-0.616,1.463-1.383,1.463
		C60.235,772.767,59.907,772.671,59.627,772.534z M63.131,767.113h1.04l1.063,5.613h-0.975l-0.184-1.111h-0.888l-0.176,1.111h-0.943
		L63.131,767.113z M63.93,770.735l-0.296-1.847l-0.304,1.847H63.93z M65.547,767.13h0.975v5.597h-0.975V767.13z M67.115,767.13
		h0.975v4.669h1.031v0.928h-2.006V767.13z M69.515,767.13h0.976v4.669h1.031v0.928h-2.007V767.13z M71.915,767.13h2.144v0.928H72.89
		v1.391h1.031v0.928H72.89v1.423h1.191v0.928h-2.167L71.915,767.13L71.915,767.13z M74.435,772.534v-1.015
		c0.344,0.199,0.615,0.312,0.879,0.312c0.28,0,0.521-0.136,0.521-0.479v-0.017c0-0.256-0.08-0.447-0.544-0.975
		c-0.664-0.752-0.936-1.112-0.936-1.791v-0.017c0-0.896,0.584-1.463,1.359-1.463c0.392,0,0.623,0.056,0.863,0.176v1.016
		c-0.304-0.176-0.487-0.256-0.743-0.256c-0.272,0-0.504,0.176-0.504,0.479v0.016c0,0.265,0.08,0.36,0.544,0.896
		c0.768,0.888,0.936,1.231,0.936,1.871v0.017c0,0.879-0.616,1.463-1.384,1.463C75.043,772.767,74.714,772.671,74.435,772.534z
		 M48.411,775.13h0.968l0.688,2.047l0.688-2.047h0.968v5.597h-0.936v-3.382l-0.712,2.118h-0.016l-0.712-2.118v3.382h-0.936
		C48.411,780.727,48.411,775.13,48.411,775.13z M53.083,775.113h1.039l1.063,5.613H54.21l-0.184-1.111h-0.888l-0.176,1.111H52.02
		L53.083,775.113z M53.882,778.735l-0.296-1.847l-0.304,1.847H53.882z M55.499,775.13h0.976v5.597h-0.976V775.13z M57.067,775.13
		h0.911l0.984,2.83v-2.83h0.951v5.597H59.05l-1.032-2.967v2.967h-0.951C57.067,780.727,57.067,775.13,57.067,775.13z M61.763,775.13
		h0.912c1.247,0,1.958,0.903,1.958,2.702v0.192c0,1.799-0.711,2.702-1.958,2.702h-0.912C61.763,780.726,61.763,775.13,61.763,775.13
		z M62.779,779.831c0.463,0,0.863-0.408,0.863-1.807v-0.192c0-1.399-0.4-1.807-0.863-1.807h-0.04v3.806H62.779z M65.131,775.13
		h0.976v5.597h-0.976V775.13z M66.699,775.13h0.911l0.984,2.83v-2.83h0.951v5.597h-0.863l-1.032-2.967v2.967h-0.951
		C66.699,780.727,66.699,775.13,66.699,775.13z M70.139,775.13h0.976v5.597h-0.976V775.13z M71.707,775.13h0.912l0.983,2.83v-2.83
		h0.951v5.597H73.69l-1.031-2.967v2.967h-0.952V775.13z M75.035,778.024v-0.192c0-1.807,0.768-2.742,1.871-2.742
		c0.296,0,0.544,0.063,0.744,0.16v1.015c-0.24-0.144-0.456-0.239-0.712-0.239c-0.56,0-0.911,0.56-0.911,1.767v0.272
		c0,1.463,0.432,1.799,0.831,1.799c0.032,0,0.04,0,0.088-0.008v-1.432h-0.479v-0.871h1.367v2.974c-0.352,0.152-0.64,0.24-1.016,0.24
		C75.842,780.767,75.035,779.975,75.035,778.024z M57.131,783.13h1.007c1,0,1.727,0.527,1.727,1.783v0.071
		c0,0.728-0.288,1.191-0.656,1.472l0.751,2.271h-1.039l-0.632-1.951h-0.184v1.951H57.13L57.131,783.13L57.131,783.13z
		 M58.155,785.896c0.424,0,0.735-0.248,0.735-0.904v-0.063c0-0.704-0.336-0.888-0.76-0.888h-0.024v1.855H58.155z M60.219,786.072
		v-0.288c0-1.847,0.6-2.734,1.487-2.734s1.487,0.888,1.487,2.734v0.288c0,1.847-0.6,2.734-1.487,2.734
		C60.819,788.807,60.219,787.919,60.219,786.072z M62.202,786.072v-0.288c0-1.439-0.2-1.839-0.496-1.839s-0.496,0.399-0.496,1.839
		v0.288c0,1.438,0.2,1.839,0.496,1.839S62.202,787.511,62.202,786.072z M63.579,786.072v-0.288c0-1.847,0.6-2.734,1.487-2.734
		s1.487,0.888,1.487,2.734v0.288c0,1.847-0.6,2.734-1.487,2.734C64.179,788.807,63.579,787.919,63.579,786.072z M65.562,786.072
		v-0.288c0-1.439-0.2-1.839-0.496-1.839s-0.496,0.399-0.496,1.839v0.288c0,1.438,0.2,1.839,0.496,1.839
		S65.562,787.511,65.562,786.072z M67.035,783.13h0.967l0.688,2.047l0.688-2.047h0.968v5.597H69.41v-3.382l-0.712,2.118h-0.016
		l-0.711-2.118v3.382h-0.936C67.035,788.727,67.035,783.13,67.035,783.13z"/>
	<path class="st2" d="M88.162,404.598h0.976v4.67h1.031v0.927h-2.007V404.598z M90.562,404.598h2.143v0.928h-1.167v1.391h1.031
		v0.928h-1.031v1.423h1.191v0.927h-2.167V404.598z M94.473,404.598h0.848c0.943,0,1.822,0.384,1.822,1.423v0.04
		c0,0.72-0.407,1.071-0.808,1.263c0.472,0.208,0.88,0.536,0.88,1.248v0.072c0,0.992-0.768,1.551-1.854,1.551h-0.888V404.598z
		 M95.464,406.949c0.432,0,0.72-0.248,0.72-0.736v-0.016c0-0.488-0.288-0.696-0.72-0.696h-0.016v1.447h0.016V406.949z
		 M95.472,409.292c0.448,0,0.768-0.264,0.768-0.728v-0.04c0-0.464-0.319-0.728-0.768-0.728h-0.023v1.496H95.472z M97.641,404.598
		h0.976v5.597h-0.976V404.598z M99.089,410.003v-1.016c0.344,0.2,0.615,0.312,0.88,0.312c0.279,0,0.52-0.136,0.52-0.48v-0.016
		c0-0.256-0.08-0.448-0.544-0.976c-0.664-0.751-0.936-1.111-0.936-1.791v-0.016c0-0.896,0.584-1.463,1.359-1.463
		c0.392,0,0.624,0.056,0.863,0.176v1.015c-0.304-0.176-0.487-0.256-0.743-0.256c-0.272,0-0.504,0.176-0.504,0.48v0.016
		c0,0.264,0.08,0.36,0.544,0.896c0.768,0.887,0.936,1.231,0.936,1.871v0.016c0,0.88-0.616,1.463-1.384,1.463
		C99.697,410.235,99.37,410.139,99.089,410.003z M102.209,405.526h-0.688v-0.928h2.351v0.928h-0.688v4.669h-0.976v-4.669H102.209z
		 M104.281,404.598h1.007c1,0,1.728,0.528,1.728,1.783v0.072c0,0.728-0.288,1.191-0.655,1.471l0.751,2.271h-1.039l-0.632-1.951
		h-0.184v1.951h-0.976C104.281,410.195,104.281,404.598,104.281,404.598z M105.304,407.365c0.424,0,0.735-0.248,0.735-0.903v-0.064
		c0-0.704-0.336-0.888-0.76-0.888h-0.023v1.855H105.304z M107.37,407.541v-0.288c0-1.847,0.6-2.734,1.486-2.734
		c0.888,0,1.487,0.887,1.487,2.734v0.288c0,1.847-0.6,2.735-1.487,2.735C107.969,410.275,107.37,409.388,107.37,407.541z
		 M109.352,407.541v-0.288c0-1.439-0.2-1.839-0.496-1.839s-0.495,0.4-0.495,1.839v0.288c0,1.439,0.199,1.839,0.495,1.839
		S109.352,408.98,109.352,407.541z M90.598,412.598h2.039v0.927h-1.063v1.408h0.927v0.926h-0.927v2.335h-0.976V412.598z
		 M93.078,412.598h1.007c1,0,1.728,0.527,1.728,1.783v0.072c0,0.727-0.288,1.191-0.655,1.471l0.751,2.271H94.87l-0.632-1.951h-0.184
		v1.951h-0.976V412.598z M94.101,415.364c0.424,0,0.735-0.248,0.735-0.903v-0.064c0-0.704-0.336-0.888-0.76-0.888h-0.023v1.855
		H94.101z M96.262,412.598h2.143v0.927h-1.167v1.391h1.031v0.927h-1.031v1.423h1.191v0.928h-2.167V412.598z M98.902,412.598h0.911
		l0.983,2.83v-2.83h0.952v5.596h-0.864l-1.031-2.967v2.967h-0.951L98.902,412.598L98.902,412.598z M102.229,415.492V415.3
		c0-1.966,0.729-2.742,1.64-2.742c0.271,0,0.432,0.032,0.64,0.128v1.007c-0.2-0.12-0.359-0.184-0.544-0.184
		c-0.432,0-0.743,0.384-0.743,1.783v0.208c0,1.479,0.312,1.783,0.76,1.783c0.151,0,0.344-0.057,0.543-0.177v0.96
		c-0.224,0.128-0.439,0.168-0.72,0.168C102.909,418.234,102.229,417.442,102.229,415.492z M105.014,412.598h0.976v2.318h0.847
		v-2.318h0.976v5.596h-0.976v-2.351h-0.847v2.351h-0.976V412.598z M84.738,420.598h1.007c1,0,1.728,0.527,1.728,1.783v0.071
		c0,0.728-0.288,1.191-0.655,1.472l0.751,2.271H86.53l-0.632-1.951h-0.184v1.951h-0.976
		C84.738,426.195,84.738,420.598,84.738,420.598z M85.761,423.364c0.424,0,0.735-0.248,0.735-0.904v-0.063
		c0-0.704-0.336-0.888-0.76-0.888h-0.023v1.855L85.761,423.364L85.761,423.364z M87.921,420.598h2.143v0.927h-1.167v1.392h1.031
		v0.928h-1.031v1.423h1.191v0.928h-2.167V420.598z M90.442,426.003v-1.016c0.344,0.199,0.615,0.312,0.88,0.312
		c0.279,0,0.52-0.136,0.52-0.479v-0.017c0-0.256-0.08-0.447-0.544-0.976c-0.664-0.751-0.936-1.111-0.936-1.791v-0.016
		c0-0.896,0.584-1.463,1.359-1.463c0.392,0,0.624,0.056,0.863,0.176v1.016c-0.304-0.176-0.487-0.256-0.743-0.256
		c-0.272,0-0.504,0.176-0.504,0.479v0.016c0,0.265,0.08,0.36,0.544,0.896c0.768,0.888,0.936,1.231,0.936,1.871v0.017
		c0,0.879-0.616,1.463-1.384,1.463C91.049,426.234,90.721,426.139,90.442,426.003z M93.561,421.524h-0.688v-0.927h2.351v0.927
		h-0.688v4.67H93.56v-4.67H93.561z M96.177,420.581h1.04l1.062,5.613h-0.975l-0.185-1.111h-0.888l-0.176,1.111h-0.943
		L96.177,420.581z M96.977,424.203l-0.296-1.847l-0.304,1.847H96.977z M98.521,424.563v-3.966h0.968v4.062
		c0,0.504,0.176,0.703,0.424,0.703s0.424-0.199,0.424-0.703v-4.062h0.968v3.966c0,1.175-0.592,1.703-1.392,1.703
		S98.521,425.738,98.521,424.563z M101.866,420.598h1.007c1,0,1.728,0.527,1.728,1.783v0.071c0,0.728-0.288,1.191-0.656,1.472
		l0.752,2.271h-1.039l-0.632-1.951h-0.184v1.951h-0.976V420.598z M102.889,423.364c0.424,0,0.735-0.248,0.735-0.904v-0.063
		c0-0.704-0.336-0.888-0.76-0.888h-0.023v1.855L102.889,423.364L102.889,423.364z M105.833,420.581h1.039l1.063,5.613h-0.975
		l-0.185-1.111h-0.888l-0.176,1.111h-0.943L105.833,420.581z M106.632,424.203l-0.296-1.847l-0.304,1.847H106.632z M108.234,420.598
		h0.911l0.983,2.83v-2.83h0.952v5.597h-0.864l-1.031-2.967v2.967h-0.951L108.234,420.598L108.234,420.598z M112.177,421.524h-0.688
		v-0.927h2.351v0.927h-0.688v4.67h-0.976v-4.67H112.177z"/>
	<path class="st2" d="M15.773,356.217h0.976v4.67h1.031v0.927h-2.007C15.773,361.814,15.773,356.217,15.773,356.217z
		 M18.917,356.201h1.039l1.063,5.613h-0.975l-0.184-1.111h-0.888l-0.176,1.111h-0.943L18.917,356.201z M19.716,359.823l-0.296-1.847
		l-0.304,1.847H19.716z M22.493,359.111v-0.192c0-1.967,0.728-2.742,1.639-2.742c0.272,0,0.432,0.032,0.64,0.128v1.007
		c-0.2-0.12-0.36-0.184-0.543-0.184c-0.432,0-0.744,0.384-0.744,1.783v0.208c0,1.479,0.312,1.783,0.759,1.783
		c0.152,0,0.344-0.056,0.544-0.176v0.959c-0.224,0.128-0.44,0.168-0.72,0.168C23.172,361.854,22.493,361.062,22.493,359.111z
		 M25.261,360.183v-3.966h0.967v4.062c0,0.504,0.176,0.704,0.424,0.704s0.424-0.2,0.424-0.704v-4.062h0.968v3.966
		c0,1.176-0.592,1.703-1.392,1.703C25.853,361.886,25.261,361.358,25.261,360.183z M28.509,359.111v-0.192
		c0-1.967,0.728-2.742,1.639-2.742c0.271,0,0.432,0.032,0.64,0.128v1.007c-0.2-0.12-0.36-0.184-0.544-0.184
		c-0.432,0-0.744,0.384-0.744,1.783v0.208c0,1.479,0.312,1.783,0.76,1.783c0.152,0,0.344-0.056,0.543-0.176v0.959
		c-0.224,0.128-0.439,0.168-0.719,0.168C29.189,361.854,28.509,361.062,28.509,359.111z M31.309,356.217h0.976v5.597h-0.976V356.217
		z M32.877,356.217h0.912l0.983,2.831v-2.831h0.952v5.597H34.86l-1.031-2.966v2.966h-0.952
		C32.877,361.814,32.877,356.217,32.877,356.217z M37.084,356.201h1.04l1.063,5.613h-0.976l-0.184-1.111H37.14l-0.176,1.111H36.02
		L37.084,356.201z M37.884,359.823l-0.296-1.847l-0.304,1.847H37.884z M18.789,364.217h0.976v5.597h-0.976V364.217z M20.877,365.145
		h-0.688v-0.928h2.351v0.928h-0.688v4.669h-0.976L20.877,365.145L20.877,365.145z M23.492,364.201h1.04l1.063,5.613H24.62
		l-0.184-1.111h-0.888l-0.176,1.111h-0.944L23.492,364.201z M24.292,367.823l-0.296-1.847l-0.304,1.847H24.292z M25.893,364.217
		h0.976v4.67H27.9v0.927h-2.007V364.217z M28.309,364.217h0.976v5.597h-0.976V364.217z M30.66,364.201h1.04l1.063,5.613h-0.976
		l-0.184-1.111h-0.887l-0.176,1.111h-0.943L30.66,364.201z M31.46,367.823l-0.295-1.847l-0.304,1.847H31.46z M33.061,364.217h0.912
		l0.983,2.831v-2.831h0.951v5.597h-0.863l-1.031-2.966v2.966h-0.952C33.061,369.814,33.061,364.217,33.061,364.217z M12.873,372.217
		h1.007c1,0,1.727,0.528,1.727,1.783v0.072c0,0.728-0.288,1.191-0.656,1.471l0.752,2.271h-1.04l-0.632-1.951h-0.184v1.951h-0.975
		v-5.597H12.873z M13.897,374.983c0.424,0,0.735-0.248,0.735-0.903v-0.064c0-0.704-0.335-0.888-0.759-0.888h-0.024v1.855H13.897z
		 M16.057,372.217H18.2v0.928h-1.167v1.391h1.032v0.928h-1.032v1.423h1.191v0.927h-2.167
		C16.057,377.814,16.057,372.217,16.057,372.217z M18.577,377.622v-1.016c0.344,0.2,0.616,0.312,0.88,0.312
		c0.28,0,0.52-0.136,0.52-0.48v-0.016c0-0.256-0.08-0.448-0.544-0.976c-0.664-0.751-0.935-1.111-0.935-1.791v-0.016
		c0-0.896,0.583-1.463,1.359-1.463c0.392,0,0.624,0.056,0.864,0.176v1.015c-0.304-0.176-0.488-0.256-0.744-0.256
		c-0.272,0-0.504,0.176-0.504,0.48v0.016c0,0.264,0.08,0.36,0.544,0.896c0.768,0.887,0.936,1.231,0.936,1.871v0.016
		c0,0.88-0.616,1.463-1.383,1.463C19.185,377.854,18.857,377.758,18.577,377.622z M21.696,373.145h-0.688v-0.928h2.351v0.928h-0.688
		v4.669h-0.976L21.696,373.145L21.696,373.145z M24.312,372.201h1.04l1.063,5.613H25.44l-0.184-1.111h-0.888l-0.176,1.111h-0.943
		L24.312,372.201z M25.112,375.823l-0.296-1.847l-0.304,1.847H25.112z M26.657,376.183v-3.966h0.967v4.062
		c0,0.504,0.176,0.704,0.424,0.704s0.424-0.2,0.424-0.704v-4.062h0.967v3.966c0,1.176-0.591,1.703-1.391,1.703
		C27.249,377.886,26.657,377.358,26.657,376.183z M30.001,372.217h1.008c0.999,0,1.727,0.528,1.727,1.783v0.072
		c0,0.728-0.288,1.191-0.655,1.471l0.751,2.271h-1.04l-0.631-1.951h-0.184v1.951h-0.976V372.217z M31.024,374.983
		c0.424,0,0.736-0.248,0.736-0.903v-0.064c0-0.704-0.336-0.888-0.76-0.888h-0.024v1.855H31.024z M33.968,372.201h1.039l1.063,5.613
		h-0.975l-0.184-1.111h-0.888l-0.176,1.111h-0.943L33.968,372.201z M34.768,375.823l-0.296-1.847l-0.304,1.847H34.768z
		 M36.369,372.217h0.911l0.984,2.831v-2.831h0.951v5.597h-0.863l-1.032-2.966v2.966h-0.951V372.217z M40.312,373.145h-0.688v-0.928
		h2.351v0.928h-0.688v4.669h-0.976L40.312,373.145L40.312,373.145z"/>
	<path class="st2" d="M42.123,140.736v-1.016c0.344,0.2,0.616,0.312,0.88,0.312c0.279,0,0.52-0.136,0.52-0.479v-0.016
		c0-0.256-0.08-0.448-0.544-0.976c-0.663-0.751-0.936-1.111-0.936-1.791v-0.016c0-0.896,0.584-1.463,1.359-1.463
		c0.392,0,0.624,0.056,0.863,0.176v1.016c-0.304-0.176-0.487-0.256-0.743-0.256c-0.271,0-0.504,0.176-0.504,0.479v0.016
		c0,0.264,0.08,0.36,0.544,0.896c0.768,0.887,0.936,1.231,0.936,1.871v0.016c0,0.879-0.616,1.463-1.384,1.463
		C42.73,140.968,42.403,140.872,42.123,140.736z M45.243,136.258h-0.688v-0.927h2.352v0.927h-0.688v4.669h-0.976V136.258z
		 M47.858,135.315h1.04l1.062,5.613h-0.975l-0.185-1.111h-0.888l-0.176,1.111h-0.943L47.858,135.315z M48.658,138.937l-0.296-1.847
		l-0.304,1.847H48.658z M50.258,135.331h1.008c0.999,0,1.727,0.527,1.727,1.783v0.072c0,0.728-0.287,1.191-0.655,1.472l0.752,2.271
		h-1.04l-0.632-1.951h-0.184v1.951h-0.976V135.331z M51.282,138.097c0.424,0,0.735-0.248,0.735-0.903v-0.064
		c0-0.704-0.335-0.888-0.759-0.888h-0.024v1.855H51.282z M53.443,135.331h0.911c1.247,0,1.959,0.903,1.959,2.702v0.192
		c0,1.799-0.712,2.703-1.959,2.703h-0.911V135.331z M54.458,140.032c0.464,0,0.864-0.408,0.864-1.807v-0.192
		c0-1.399-0.4-1.807-0.864-1.807h-0.04v3.806L54.458,140.032L54.458,140.032z M56.779,139.297v-3.966h0.967v4.062
		c0,0.504,0.176,0.704,0.424,0.704s0.424-0.2,0.424-0.704v-4.062h0.968v3.966c0,1.175-0.592,1.703-1.392,1.703
		S56.779,140.472,56.779,139.297z M60.002,140.736v-1.016c0.344,0.2,0.615,0.312,0.88,0.312c0.279,0,0.52-0.136,0.52-0.479v-0.016
		c0-0.256-0.08-0.448-0.544-0.976c-0.664-0.751-0.936-1.111-0.936-1.791v-0.016c0-0.896,0.584-1.463,1.359-1.463
		c0.392,0,0.624,0.056,0.863,0.176v1.016c-0.304-0.176-0.487-0.256-0.743-0.256c-0.272,0-0.504,0.176-0.504,0.479v0.016
		c0,0.264,0.08,0.36,0.544,0.896c0.768,0.887,0.936,1.231,0.936,1.871v0.016c0,0.879-0.616,1.463-1.384,1.463
		C60.61,140.968,60.282,140.872,60.002,140.736z M63.122,136.258h-0.688v-0.927h2.351v0.927h-0.688v4.669h-0.976v-4.669H63.122z
		 M66.986,136.258h-0.688v-0.927h2.351v0.927h-0.688v4.669h-0.976v-4.669H66.986z M69.058,135.331h0.976v2.318h0.848v-2.318h0.976
		v5.597h-0.976v-2.351h-0.848v2.351h-0.976V135.331z M72.434,135.331h2.143v0.927H73.41v1.391h1.031v0.928H73.41V140h1.191v0.928
		h-2.167C72.434,140.928,72.434,135.331,72.434,135.331z M75.858,135.315h1.039l1.063,5.613h-0.976l-0.184-1.111h-0.888
		l-0.176,1.111h-0.943L75.858,135.315z M76.657,138.937l-0.296-1.847l-0.304,1.847H76.657z M78.538,136.258H77.85v-0.927h2.351
		v0.927h-0.688v4.669h-0.976v-4.669H78.538z M80.61,135.331h2.143v0.927h-1.167v1.391h1.031v0.928h-1.031V140h1.191v0.928H80.61
		V135.331z M83.25,135.331h1.008c0.999,0,1.727,0.527,1.727,1.783v0.072c0,0.728-0.287,1.191-0.655,1.472l0.752,2.271h-1.04
		l-0.632-1.951h-0.184v1.951H83.25V135.331z M84.273,138.097c0.424,0,0.735-0.248,0.735-0.903v-0.064
		c0-0.704-0.335-0.888-0.759-0.888h-0.024v1.855H84.273z M51.583,146.625c0-1.623,0.503-3.014,1.839-3.406v0.704
		c-0.688,0.36-0.936,1.407-0.936,2.703c0,1.303,0.248,2.351,0.936,2.71v0.704C52.085,149.647,51.583,148.264,51.583,146.625z
		 M53.926,143.331h0.848c0.943,0,1.823,0.384,1.823,1.423v0.04c0,0.72-0.408,1.071-0.808,1.263c0.472,0.208,0.879,0.536,0.879,1.248
		v0.072c0,0.992-0.768,1.551-1.854,1.551h-0.888C53.926,148.928,53.926,143.331,53.926,143.331z M54.918,145.682
		c0.432,0,0.72-0.248,0.72-0.736v-0.016c0-0.487-0.288-0.695-0.72-0.695h-0.016v1.447H54.918z M54.925,148.024
		c0.448,0,0.768-0.264,0.768-0.728v-0.04c0-0.464-0.319-0.728-0.768-0.728h-0.023v1.495L54.925,148.024L54.925,148.024z
		 M57.822,143.315h1.039l1.063,5.613h-0.976l-0.184-1.111h-0.888l-0.176,1.111h-0.943L57.822,143.315z M58.622,146.937l-0.296-1.847
		l-0.304,1.847H58.622z M60.222,143.331h0.976V148h1.031v0.928h-2.007V143.331z M62.327,146.225v-0.192
		c0-1.967,0.728-2.742,1.639-2.742c0.271,0,0.432,0.032,0.64,0.128v1.007c-0.2-0.12-0.359-0.184-0.544-0.184
		c-0.432,0-0.743,0.384-0.743,1.783v0.208c0,1.479,0.312,1.783,0.76,1.783c0.151,0,0.344-0.056,0.543-0.176v0.959
		c-0.224,0.128-0.439,0.168-0.719,0.168C63.005,148.968,62.327,148.176,62.327,146.225z M64.814,146.273v-0.288
		c0-1.847,0.6-2.734,1.487-2.734s1.487,0.887,1.487,2.734v0.288c0,1.847-0.6,2.734-1.487,2.734S64.814,148.12,64.814,146.273z
		 M66.797,146.273v-0.288c0-1.439-0.2-1.839-0.496-1.839s-0.495,0.399-0.495,1.839v0.288c0,1.439,0.199,1.839,0.495,1.839
		S66.797,147.712,66.797,146.273z M68.27,143.331h0.912l0.983,2.83v-2.83h0.951v5.597h-0.863l-1.031-2.966v2.966H68.27V143.331z
		 M72.446,146.721l-1.039-3.39h1.007l0.528,2.095l0.535-2.095h0.983l-1.039,3.39v2.207h-0.976L72.446,146.721L72.446,146.721z
		 M74.678,149.335c0.688-0.36,0.936-1.407,0.936-2.71c0-1.295-0.248-2.343-0.936-2.703v-0.704c1.335,0.392,1.839,1.783,1.839,3.406
		c0,1.639-0.504,3.022-1.839,3.414V149.335z"/>
	<path class="st2" d="M55.152,90.635v-0.288c0-1.847,0.6-2.734,1.487-2.734s1.487,0.887,1.487,2.734v0.288
		c0,1.847-0.6,2.734-1.487,2.734S55.152,92.481,55.152,90.635z M57.134,90.635v-0.288c0-1.439-0.199-1.839-0.495-1.839
		s-0.496,0.399-0.496,1.839v0.288c0,1.439,0.2,1.839,0.496,1.839S57.134,92.074,57.134,90.635z M58.608,87.692h0.871
		c1.063,0,1.808,0.575,1.808,1.887v0.016c0,1.263-0.704,1.863-1.695,1.935h-0.008v1.759h-0.976
		C58.608,93.289,58.608,87.692,58.608,87.692z M59.591,90.626c0.407-0.024,0.72-0.32,0.72-1V89.61c0-0.712-0.272-1.016-0.696-1.016
		h-0.031v2.031L59.591,90.626L59.591,90.626z M61.688,87.692h2.143v0.927h-1.168v1.391h1.032v0.928h-1.032v1.423h1.191v0.928h-2.166
		C61.688,93.289,61.688,87.692,61.688,87.692z M64.328,87.692h0.911l0.983,2.83v-2.83h0.952v5.597H66.31l-1.031-2.966v2.966h-0.951
		V87.692z M69.544,88.62h-0.688v-0.927h2.352v0.927H70.52v4.669h-0.976C69.544,93.289,69.544,88.62,69.544,88.62z M71.36,90.635
		v-0.288c0-1.847,0.6-2.734,1.486-2.734c0.888,0,1.487,0.887,1.487,2.734v0.288c0,1.847-0.6,2.734-1.487,2.734
		C71.96,93.369,71.36,92.481,71.36,90.635z M73.342,90.635v-0.288c0-1.439-0.2-1.839-0.496-1.839s-0.495,0.399-0.495,1.839v0.288
		c0,1.439,0.199,1.839,0.495,1.839S73.342,92.074,73.342,90.635z M59.12,95.692h0.911c1.248,0,1.959,0.903,1.959,2.702v0.192
		c0,1.799-0.711,2.703-1.959,2.703H59.12V95.692z M60.135,100.394c0.464,0,0.863-0.408,0.863-1.807v-0.192
		c0-1.399-0.399-1.807-0.863-1.807h-0.04v3.806H60.135z M62.471,95.692h2.144v0.927h-1.168v1.391h1.031v0.928h-1.031v1.423h1.191
		v0.928h-2.167V95.692z M64.935,98.586v-0.192c0-1.967,0.729-2.742,1.64-2.742c0.271,0,0.432,0.032,0.64,0.128v1.007
		c-0.2-0.12-0.36-0.184-0.544-0.184c-0.432,0-0.743,0.384-0.743,1.783v0.208c0,1.479,0.312,1.783,0.76,1.783
		c0.151,0,0.344-0.056,0.543-0.176v0.959c-0.224,0.128-0.439,0.168-0.72,0.168C65.615,101.329,64.935,100.538,64.935,98.586z
		 M67.719,95.692h0.976v2.342l0.792-2.342h1.103l-0.943,2.366l0.96,3.23h-1.088l-0.607-2.119l-0.216,0.616v1.503H67.72
		L67.719,95.692L67.719,95.692z M57.028,103.692h0.848c0.943,0,1.822,0.384,1.822,1.423v0.04c0,0.72-0.407,1.071-0.808,1.263
		c0.473,0.208,0.88,0.536,0.88,1.248v0.072c0,0.992-0.768,1.551-1.854,1.551h-0.888V103.692z M58.019,106.043
		c0.432,0,0.72-0.248,0.72-0.736v-0.016c0-0.487-0.288-0.695-0.72-0.695h-0.016v1.447H58.019z M58.027,108.386
		c0.448,0,0.768-0.264,0.768-0.728v-0.04c0-0.464-0.319-0.728-0.768-0.728h-0.023v1.495L58.027,108.386L58.027,108.386z
		 M60.179,103.692h2.144v0.927h-1.168v1.391h1.031v0.928h-1.031v1.423h1.191v0.928h-2.167V103.692z M62.82,103.692h0.975v4.669
		h1.032v0.928H62.82V103.692z M64.923,106.635v-0.288c0-1.847,0.6-2.734,1.487-2.734s1.487,0.887,1.487,2.734v0.288
		c0,1.847-0.6,2.734-1.487,2.734S64.923,108.481,64.923,106.635z M66.907,106.635v-0.288c0-1.439-0.2-1.839-0.496-1.839
		s-0.496,0.399-0.496,1.839v0.288c0,1.439,0.2,1.839,0.496,1.839S66.907,108.074,66.907,106.635z M68.036,103.692h0.999l0.408,3.43
		l0.487-3.43h0.904l0.479,3.43l0.416-3.43h0.975l-0.847,5.613h-1.023l-0.464-3.318l-0.464,3.318h-1.023L68.036,103.692z"/>
</g>
<g id="STAR_DECK_06_ROOMS">
	<g id="gDeck06FamilyOceanviewPictureWindowO1">
		<g id="hDeck06FamilyOceanviewPictureWindowO1">
			<g id="g6508">
				<g id="h6508">
					<polygon id="b6508" class="st3" points="0.509,191.761 25.177,191.691 25.132,182.861 0.509,182.861 					"/>
					<path id="t6508" class="st2" d="M8.944,185.404l-1.083,1.494l0.011,0.011c0.119-0.061,0.253-0.099,0.398-0.099
						c0.668,0,1.174,0.632,1.174,1.296c0,0.758-0.603,1.362-1.341,1.362c-0.7,0-1.352-0.593-1.352-1.324
						c0-0.417,0.205-0.769,0.441-1.093l1.384-1.9L8.944,185.404z M8.96,188.161c0-0.516-0.431-0.89-0.862-0.89
						c-0.441,0-0.862,0.412-0.862,0.862c0,0.478,0.399,0.874,0.862,0.874C8.551,189.007,8.96,188.623,8.96,188.161z M11.261,185.711
						l-0.253,0.852l0.286-0.017c0.786,0,1.303,0.687,1.303,1.45c0,0.874-0.667,1.472-1.502,1.472c-0.501,0-1.002-0.269-1.239-0.725
						l0.377-0.363c0.124,0.352,0.539,0.615,0.899,0.615c0.549,0,0.98-0.461,0.98-1.016c0-0.533-0.447-0.983-0.97-0.983
						c-0.286,0-0.582,0.137-0.759,0.368h-0.097l0.625-2.125h1.626v0.472L11.261,185.711L11.261,185.711z M13.034,187.31
						c0-0.852,0.366-2.159,1.417-2.159s1.417,1.307,1.417,2.159c0,0.846-0.372,2.159-1.417,2.159S13.034,188.156,13.034,187.31z
						 M13.519,187.305c0,0.571,0.205,1.703,0.932,1.703s0.932-1.131,0.932-1.703s-0.205-1.714-0.932-1.714
						S13.519,186.733,13.519,187.305z M17.04,187.233c-0.334-0.192-0.533-0.522-0.533-0.928c0-0.676,0.517-1.153,1.163-1.153
						s1.164,0.478,1.164,1.153c0,0.406-0.199,0.736-0.533,0.928c0.42,0.148,0.641,0.549,0.641,0.995
						c0,0.769-0.582,1.241-1.271,1.241s-1.271-0.473-1.271-1.241C16.398,187.782,16.619,187.381,17.04,187.233z M16.883,188.228
						c0,0.417,0.388,0.78,0.786,0.78c0.399,0,0.787-0.363,0.787-0.78c0-0.439-0.377-0.78-0.787-0.78
						C17.26,187.447,16.883,187.788,16.883,188.228z M16.98,186.305c0,0.33,0.351,0.703,0.689,0.703
						c0.339,0,0.689-0.374,0.689-0.703c0-0.396-0.323-0.714-0.689-0.714C17.303,185.591,16.98,185.909,16.98,186.305z"/>
				</g>
			</g>
			<g id="g6506">
				<g id="h6506">
					<polygon id="b6506" class="st3" points="0.509,174.381 0.509,182.861 25.132,182.861 25.088,174.381 					"/>
					<path id="t6506" class="st2" d="M8.96,176.638l-1.083,1.494l0.011,0.011c0.119-0.06,0.253-0.099,0.398-0.099
						c0.668,0,1.174,0.632,1.174,1.296c0,0.758-0.603,1.362-1.341,1.362c-0.7,0-1.352-0.593-1.352-1.324
						c0-0.417,0.205-0.769,0.441-1.093l1.384-1.901L8.96,176.638z M8.976,179.395c0-0.517-0.431-0.89-0.862-0.89
						c-0.441,0-0.862,0.412-0.862,0.862c0,0.478,0.399,0.874,0.862,0.874C8.566,180.241,8.976,179.856,8.976,179.395z
						 M11.276,176.945l-0.253,0.852l0.286-0.017c0.786,0,1.303,0.687,1.303,1.45c0,0.874-0.667,1.472-1.502,1.472
						c-0.501,0-1.002-0.269-1.239-0.725l0.377-0.362c0.124,0.352,0.539,0.615,0.899,0.615c0.549,0,0.98-0.462,0.98-1.017
						c0-0.533-0.447-0.983-0.97-0.983c-0.286,0-0.582,0.138-0.759,0.368h-0.097l0.625-2.126h1.626v0.473H11.276z M13.049,178.544
						c0-0.852,0.366-2.159,1.417-2.159s1.417,1.308,1.417,2.159c0,0.846-0.372,2.159-1.417,2.159S13.049,179.39,13.049,178.544z
						 M13.534,178.538c0,0.571,0.205,1.703,0.932,1.703s0.932-1.132,0.932-1.703s-0.205-1.714-0.932-1.714
						S13.534,177.967,13.534,178.538z M18.505,176.638l-1.083,1.494l0.011,0.011c0.119-0.06,0.253-0.099,0.399-0.099
						c0.667,0,1.174,0.632,1.174,1.296c0,0.758-0.603,1.362-1.341,1.362c-0.701,0-1.352-0.593-1.352-1.324
						c0-0.417,0.205-0.769,0.441-1.093l1.384-1.901L18.505,176.638z M18.522,179.395c0-0.517-0.431-0.89-0.862-0.89
						c-0.442,0-0.862,0.412-0.862,0.862c0,0.478,0.398,0.874,0.862,0.874C18.112,180.241,18.522,179.856,18.522,179.395z"/>
				</g>
			</g>
			<g id="g6502">
				<g id="h6502">
					<polygon id="b6502" class="st3" points="25.044,165.856 0.509,165.856 0.509,174.381 25.088,174.381 					"/>
					<path id="t6502" class="st2" d="M8.989,168.091l-1.083,1.494l0.011,0.011c0.118-0.061,0.253-0.099,0.398-0.099
						c0.668,0,1.174,0.632,1.174,1.296c0,0.758-0.604,1.362-1.341,1.362c-0.7,0-1.352-0.593-1.352-1.324
						c0-0.417,0.205-0.769,0.442-1.093l1.384-1.9L8.989,168.091z M9.005,170.849c0-0.516-0.431-0.89-0.862-0.89
						c-0.442,0-0.862,0.412-0.862,0.862c0,0.478,0.398,0.874,0.862,0.874C8.596,171.695,9.005,171.311,9.005,170.849z
						 M11.305,168.399l-0.253,0.852l0.285-0.017c0.787,0,1.304,0.687,1.304,1.45c0,0.874-0.668,1.472-1.503,1.472
						c-0.501,0-1.002-0.269-1.239-0.725l0.377-0.363c0.124,0.352,0.539,0.615,0.9,0.615c0.549,0,0.98-0.461,0.98-1.016
						c0-0.533-0.447-0.983-0.969-0.983c-0.286,0-0.582,0.137-0.76,0.368H10.33l0.625-2.125h1.627v0.472L11.305,168.399
						L11.305,168.399z M13.079,169.998c0-0.852,0.366-2.159,1.417-2.159s1.417,1.307,1.417,2.159c0,0.846-0.372,2.159-1.417,2.159
						S13.079,170.843,13.079,169.998z M13.563,169.992c0,0.571,0.205,1.703,0.932,1.703s0.932-1.131,0.932-1.703
						s-0.205-1.714-0.932-1.714S13.563,169.421,13.563,169.992z M18.934,171.596v0.473h-2.623l1.778-2.225
						c0.167-0.209,0.361-0.467,0.361-0.742c0-0.434-0.377-0.791-0.797-0.791c-0.415,0-0.754,0.34-0.781,0.758h-0.506
						c0.081-0.736,0.549-1.23,1.287-1.23c0.689,0,1.282,0.521,1.282,1.241c0,0.308-0.113,0.615-0.301,0.852l-1.336,1.664H18.934z"/>
				</g>
			</g>
			<g id="g6500">
				<g id="h6500">
					<polygon id="b6500" class="st3" points="25.002,157.606 0.509,157.606 0.509,165.856 25.044,165.856 					"/>
					<path id="t6500" class="st2" d="M8.899,159.693l-1.083,1.494l0.011,0.011c0.119-0.061,0.253-0.099,0.398-0.099
						c0.668,0,1.174,0.632,1.174,1.296c0,0.758-0.603,1.362-1.341,1.362c-0.7,0-1.352-0.593-1.352-1.324
						c0-0.417,0.205-0.769,0.441-1.093l1.384-1.9L8.899,159.693z M8.916,162.45c0-0.516-0.431-0.89-0.862-0.89
						c-0.441,0-0.862,0.412-0.862,0.862c0,0.478,0.399,0.874,0.862,0.874C8.506,163.296,8.916,162.912,8.916,162.45z M11.216,160
						l-0.253,0.852l0.286-0.017c0.786,0,1.303,0.687,1.303,1.45c0,0.874-0.668,1.472-1.502,1.472c-0.501,0-1.002-0.269-1.239-0.725
						l0.377-0.363c0.124,0.352,0.539,0.615,0.899,0.615c0.549,0,0.98-0.461,0.98-1.016c0-0.533-0.447-0.983-0.97-0.983
						c-0.286,0-0.582,0.137-0.76,0.368H10.24l0.625-2.125h1.626V160H11.216z M12.989,161.599c0-0.852,0.366-2.159,1.417-2.159
						s1.417,1.307,1.417,2.159c0,0.846-0.372,2.159-1.417,2.159S12.989,162.445,12.989,161.599z M13.474,161.594
						c0,0.571,0.205,1.703,0.932,1.703s0.932-1.131,0.932-1.703s-0.205-1.714-0.932-1.714S13.474,161.022,13.474,161.594z
						 M16.297,161.599c0-0.852,0.366-2.159,1.417-2.159c1.05,0,1.417,1.307,1.417,2.159c0,0.846-0.372,2.159-1.417,2.159
						S16.297,162.445,16.297,161.599z M16.782,161.594c0,0.571,0.205,1.703,0.932,1.703s0.932-1.131,0.932-1.703
						s-0.205-1.714-0.932-1.714C16.987,159.88,16.782,161.022,16.782,161.594z"/>
				</g>
			</g>
		</g>
	</g>
</g>
<g id="STAR_DECK_06_TOP">
	<path class="st4" d="M127.539,824.259c-0.845,9.25-30.627,13.491-63.391,13.491c-38.871,0-62.371-4.241-63.354-13.246
		c-0.181-15.467-0.294-666.9-0.294-666.9C1.309,88.859,39.284,0.342,64.154,0.643c23.796,1.032,63.384,88.505,63.142,156.96
		L127.539,824.259z"/>
	<g id="gDeck06Locations">
		<rect id="_x30_6Aft" y="562.299" class="st5" width="128.039" height="275.451"/>
		<rect id="_x30_6Middle" y="263.349" class="st5" width="128.039" height="298.95"/>
		<rect id="_x30_6Forward" y="0.01" class="st5" width="128.039" height="263.34"/>
	</g>
</g>
</svg>
