<?xml version="1.0" encoding="utf-8"?>
<!-- Generator: Adobe Illustrator 23.0.2, SVG Export Plug-In . SVG Version: 6.00 Build 0)  -->
<svg version="1.1" id="STAR_DECK_13" xmlns="http://www.w3.org/2000/svg" xmlns:xlink="http://www.w3.org/1999/xlink" x="0px"
	 y="0px" width="131.086px" height="744.081px" viewBox="0 0 131.086 744.081" style="enable-background:new 0 0 131.086 744.081;"
	 xml:space="preserve">
<style type="text/css">
	.st0{fill:#FFFFFF;}
	.st1{fill:none;stroke:#D5DCE0;stroke-width:0.5;}
	.st2{fill:none;}
	.st3{fill:#CCDDE2;}
	.st4{fill:#6E8496;}
	.st5{fill:none;stroke:#076FA0;stroke-miterlimit:10;}
</style>
<g id="STAR_DECK_13_BOTTOM">
	<path class="st0" d="M5.303,617.782v-55.76L0.5,550.272V213.149l4.228-10.74v-79.591l5.092-6.374V12.574
		c0,0-0.856-2.921,5.515-4.456c6.371-1.538,24.15-6.072,41.835-6.224l2.188-1.307h12.241l1.64,1.325c0,0,27.391,0.569,41.455,6.015
		c6.518,2.522,6.543,2.151,6.533,9.293v99.337l4.329,6.261c0,0,0,19.072-0.002,79.591l4.76,10.74v337.123l-4.416,11.75l0.018,55.721
		v97.922c0,0,4.305,2.831,4.639,6.987c0.334,4.156-1.834,8.879-8.334,9.352c-13.598,0.988-13.616-9.56-17.667-9.352
		c-5.472,0.281-17.053,20.929-39.302,20.929c-22.248,0-34.67-20.778-39.031-20.929c-6.026-0.207-6.331,8.879-15.623,8.879
		c-9.293,0-10.044-8.04-10.044-8.533c0-0.491-0.617-4.076,4.741-7.549C5.306,715.441,5.303,617.782,5.303,617.782L5.303,617.782z"/>
	<path class="st1" d="M100.066,163.152h4.777 M100.066,164.488h4.777 M100.066,165.824h4.777 M100.066,167.16h4.777
		 M100.066,168.496h4.777 M100.066,169.832h4.777 M100.066,171.169h4.777 M100.066,172.505h4.777 M100.066,173.84h4.777"/>
	<path class="st1" d="M108.6,104.902h5.721 M108.6,106.238h5.721 M108.6,107.574h5.721 M108.6,108.91h5.721 M108.6,110.246h5.721
		 M108.6,111.582h5.721 M108.6,112.919h5.721"/>
	<path class="st1" d="M16.988,104.902h5.721 M16.988,106.238h5.721 M16.988,107.574h5.721 M16.988,108.91h5.721 M16.988,110.246
		h5.721 M16.988,111.582h5.721 M16.988,112.919h5.721"/>
	<path class="st1" d="M26.717,163.162h5.023 M26.717,164.498h5.023 M26.717,165.832h5.023 M26.717,167.167h5.023 M26.717,168.502
		h5.023 M26.717,169.837h5.023 M26.717,171.172h5.023 M26.717,172.507h5.023 M26.717,173.841h5.023"/>
	<line class="st1" x1="45.64" y1="130.729" x2="55.604" y2="138.332"/>
	<line class="st1" x1="45.875" y1="138.743" x2="55.853" y2="130.894"/>
	<line class="st1" x1="55.586" y1="130.523" x2="65.414" y2="138.599"/>
	<line class="st1" x1="55.604" y1="138.689" x2="65.772" y2="130.661"/>
	<line class="st1" x1="65.577" y1="130.523" x2="75.405" y2="138.599"/>
	<line class="st1" x1="65.594" y1="138.689" x2="75.761" y2="130.661"/>
	<line class="st1" x1="75.761" y1="130.661" x2="85.909" y2="138.642"/>
	<line class="st1" x1="75.342" y1="138.642" x2="85.503" y2="130.894"/>
	<path class="st1" d="M18.151,231.357h3.213 M18.003,232.661h3.361 M17.78,233.967h3.584 M18.089,235.272h3.627 M17.989,236.576
		h3.809"/>
	<path class="st1" d="M109.179,231.357h3.213 M109.179,232.661h3.361 M109.179,233.967h3.584 M108.828,235.272h3.627
		 M108.746,236.576h3.809"/>
	<path class="st1" d="M18.151,222.447h3.213 M18.003,223.752h3.361 M17.78,225.057h3.584 M18.089,226.362h3.627 M17.989,227.666
		h3.809"/>
	<path class="st1" d="M109.179,222.447h3.213 M109.179,223.752h3.361 M109.179,225.057h3.584 M108.828,226.362h3.627
		 M108.746,227.666h3.809"/>
	<path class="st1" d="M18.151,213.43h3.213 M18.003,214.734h3.361 M17.78,216.04h3.584 M18.089,217.345h3.627 M17.989,218.649h3.809
		"/>
	<path class="st1" d="M109.179,213.214h3.213 M109.179,214.519h3.361 M109.179,215.825h3.584 M108.828,217.13h3.627
		 M108.746,218.434h3.809"/>
	<path class="st1" d="M18.151,204.592h3.213 M18.003,205.897h3.361 M17.78,207.202h3.584 M18.089,208.507h3.627 M17.989,209.811
		h3.809"/>
	<path class="st1" d="M109.179,204.592h3.213 M109.179,205.897h3.361 M109.179,207.202h3.584 M108.828,208.507h3.627
		 M108.746,209.811h3.809"/>
	<path class="st1" d="M18.151,194.599h3.213 M18.003,195.904h3.361 M17.78,197.21h3.584 M18.089,198.515h3.627 M17.989,199.818
		h3.809"/>
	<path class="st1" d="M109.179,194.599h3.213 M109.179,195.904h3.361 M109.179,197.21h3.584 M108.828,198.515h3.627
		 M108.746,199.818h3.809"/>
	<line class="st1" x1="48.59" y1="164.546" x2="57.136" y2="164.546"/>
	<line class="st1" x1="48.864" y1="158.986" x2="57.069" y2="158.986"/>
	<line class="st1" x1="48.864" y1="161.693" x2="57.069" y2="161.693"/>
	<line class="st1" x1="48.588" y1="156.245" x2="57.069" y2="156.245"/>
	<line class="st1" x1="48.786" y1="153.616" x2="57.069" y2="153.616"/>
	<path class="st1" d="M19.6,47.252l3.685,2.944 M18.962,48.05l3.685,2.944 M18.324,48.849l3.686,2.944 M17.687,49.647l3.685,2.944
		 M16.87,50.267l3.865,3.123"/>
	<path class="st1" d="M18.98,32.261l1.972,3.648 M18.081,32.747l1.971,3.648 M17.101,33.025l2.051,3.856"/>
	<path class="st1" d="M109.807,35.909l1.972-3.648 M110.706,36.395l1.971-3.648 M111.606,36.881l2.052-3.856"/>
	<path class="st1" d="M107.866,49.983l3.419-2.731 M108.503,50.781l3.418-2.731 M109.14,51.579l3.42-2.73 M109.779,52.378
		l3.418-2.731 M110.416,53.176l3.419-2.73"/>
	<path class="st2" d="M70.912,63.576c-0.435-0.181-0.846-0.352-1.687-0.352s-1.252,0.171-1.687,0.352
		c-0.47,0.196-0.957,0.399-1.918,0.399s-1.448-0.203-1.918-0.399c-0.435-0.181-0.846-0.352-1.687-0.352s-1.252,0.171-1.687,0.352
		c-0.47,0.196-0.957,0.399-1.918,0.399c-0.324,0-0.581-0.028-0.815-0.067v0.152l0.849,0.814c0.815-0.005,1.225-0.172,1.653-0.351
		c0.47-0.196,0.957-0.399,1.918-0.399s1.448,0.203,1.918,0.399c0.435,0.181,0.846,0.352,1.687,0.352s1.252-0.171,1.687-0.352
		c0.47-0.196,0.957-0.399,1.918-0.399s1.448,0.203,1.918,0.399c0.406,0.169,0.805,0.324,1.538,0.344l0.966-0.906v-0.054
		c-0.234,0.038-0.491,0.067-0.816,0.067C71.869,63.974,71.383,63.772,70.912,63.576z"/>
	<path class="st2" d="M70.912,62.074c-0.435-0.181-0.846-0.352-1.687-0.352s-1.252,0.171-1.687,0.352
		c-0.47,0.196-0.957,0.399-1.918,0.399s-1.448-0.203-1.918-0.399c-0.435-0.181-0.846-0.352-1.687-0.352s-1.252,0.171-1.687,0.352
		c-0.47,0.196-0.957,0.399-1.918,0.399c-0.324,0-0.581-0.028-0.815-0.067v0.892c0.227,0.044,0.481,0.076,0.815,0.076
		c0.841,0,1.252-0.171,1.687-0.352c0.47-0.196,0.957-0.399,1.918-0.399s1.448,0.203,1.918,0.399
		c0.435,0.181,0.846,0.352,1.687,0.352s1.252-0.171,1.687-0.352c0.47-0.196,0.957-0.399,1.918-0.399s1.448,0.203,1.918,0.399
		c0.435,0.181,0.846,0.352,1.687,0.352c0.334,0,0.589-0.032,0.816-0.076v-0.892c-0.234,0.038-0.491,0.067-0.816,0.067
		C71.869,62.472,71.383,62.27,70.912,62.074z"/>
	<path class="st2" d="M62.015,67.73c-0.211,0-0.395,0.011-0.559,0.03l0.372,0.356h1.959c-0.028-0.011-0.057-0.022-0.084-0.034
		C63.267,67.901,62.856,67.73,62.015,67.73z"/>
	<path class="st2" d="M67.538,66.58c-0.47,0.196-0.957,0.399-1.918,0.399s-1.448-0.203-1.918-0.399
		c-0.435-0.181-0.846-0.352-1.687-0.352s-1.252,0.171-1.687,0.352c-0.024,0.01-0.049,0.019-0.073,0.029l0.665,0.637
		c0.292-0.069,0.637-0.117,1.095-0.117c0.961,0,1.448,0.203,1.918,0.399c0.435,0.181,0.846,0.352,1.687,0.352
		s1.252-0.171,1.687-0.352c0.47-0.196,0.957-0.399,1.918-0.399c0.388,0,0.685,0.038,0.948,0.091l0.699-0.655
		c-0.421-0.175-0.832-0.336-1.647-0.336C68.384,66.228,67.973,66.399,67.538,66.58z"/>
	<path class="st2" d="M62.015,56.614c0.961,0,1.448,0.203,1.918,0.399c0.435,0.181,0.846,0.352,1.687,0.352
		c0.841,0,1.252-0.171,1.687-0.352c0.47-0.196,0.957-0.399,1.918-0.399c0.821,0,1.292,0.149,1.706,0.314l-1.338-1.196
		c-0.117-0.009-0.229-0.02-0.368-0.02c-0.841,0-1.252,0.171-1.687,0.352c-0.47,0.196-0.957,0.399-1.918,0.399
		s-1.448-0.203-1.918-0.399c-0.435-0.181-0.846-0.352-1.687-0.352c-0.216,0-0.402,0.012-0.568,0.032l-1.423,1.298
		c0.024-0.01,0.049-0.019,0.073-0.029C60.567,56.816,61.054,56.614,62.015,56.614z"/>
	<path class="st2" d="M69.225,64.726c-0.841,0-1.252,0.171-1.687,0.353c-0.47,0.196-0.957,0.399-1.918,0.399
		s-1.448-0.203-1.918-0.399c-0.435-0.181-0.846-0.353-1.687-0.353s-1.252,0.171-1.687,0.353c-0.355,0.148-0.72,0.299-1.291,0.364
		l0.741,0.71c0.109-0.04,0.213-0.083,0.318-0.127c0.47-0.196,0.957-0.399,1.918-0.399s1.448,0.203,1.918,0.399
		c0.435,0.181,0.846,0.353,1.687,0.353s1.252-0.171,1.687-0.353c0.47-0.196,0.957-0.399,1.918-0.399s1.448,0.203,1.918,0.399
		c0.07,0.029,0.142,0.057,0.213,0.085l0.733-0.687c-0.501-0.072-0.848-0.208-1.176-0.345C70.477,64.897,70.066,64.726,69.225,64.726
		z"/>
	<path class="st2" d="M67.538,68.082c-0.027,0.011-0.057,0.022-0.085,0.034h1.764l0.39-0.366c-0.121-0.009-0.238-0.02-0.383-0.02
		C68.384,67.73,67.973,67.901,67.538,68.082z"/>
	<path class="st2" d="M65.62,55.862c0.841,0,1.252-0.171,1.687-0.352c0.092-0.038,0.187-0.076,0.284-0.113h-3.942
		c0.097,0.037,0.192,0.075,0.284,0.113C64.368,55.691,64.779,55.862,65.62,55.862z"/>
	<path class="st2" d="M70.912,57.567c-0.435-0.181-0.846-0.352-1.687-0.352s-1.252,0.171-1.687,0.352
		c-0.47,0.196-0.957,0.399-1.918,0.399s-1.448-0.203-1.918-0.399c-0.435-0.181-0.846-0.352-1.687-0.352s-1.252,0.171-1.687,0.352
		c-0.353,0.147-0.715,0.298-1.279,0.364l-1.005,0.917c0.117,0.009,0.228,0.019,0.366,0.019c0.841,0,1.252-0.171,1.687-0.352
		c0.47-0.196,0.957-0.399,1.918-0.399s1.448,0.203,1.918,0.399c0.435,0.181,0.846,0.352,1.687,0.352s1.252-0.171,1.687-0.352
		c0.47-0.196,0.957-0.399,1.918-0.399s1.448,0.203,1.918,0.399c0.435,0.181,0.846,0.352,1.687,0.352c0.096,0,0.17-0.009,0.255-0.014
		L72.019,57.9C71.558,57.825,71.225,57.697,70.912,57.567z"/>
	<path class="st2" d="M70.912,60.571c-0.435-0.181-0.846-0.353-1.687-0.353s-1.252,0.171-1.687,0.353
		c-0.47,0.196-0.957,0.399-1.918,0.399s-1.448-0.203-1.918-0.399c-0.435-0.181-0.846-0.353-1.687-0.353s-1.252,0.171-1.687,0.353
		c-0.47,0.196-0.957,0.399-1.918,0.399c-0.324,0-0.581-0.028-0.815-0.067v0.892c0.227,0.044,0.481,0.076,0.815,0.076
		c0.841,0,1.252-0.171,1.687-0.352c0.47-0.196,0.957-0.399,1.918-0.399s1.448,0.203,1.918,0.399
		c0.435,0.181,0.846,0.352,1.687,0.352s1.252-0.171,1.687-0.352c0.47-0.196,0.957-0.399,1.918-0.399s1.448,0.203,1.918,0.399
		c0.435,0.181,0.846,0.352,1.687,0.352c0.334,0,0.589-0.032,0.816-0.076v-0.892c-0.234,0.038-0.491,0.067-0.816,0.067
		C71.869,60.97,71.383,60.767,70.912,60.571z"/>
	<path class="st2" d="M70.912,59.069c-0.435-0.181-0.846-0.353-1.687-0.353s-1.252,0.171-1.687,0.353
		c-0.47,0.196-0.957,0.399-1.918,0.399s-1.448-0.203-1.918-0.399c-0.435-0.181-0.846-0.353-1.687-0.353s-1.252,0.171-1.687,0.353
		c-0.47,0.196-0.957,0.399-1.918,0.399c-0.324,0-0.581-0.028-0.815-0.067v0.892c0.227,0.044,0.481,0.076,0.815,0.076
		c0.841,0,1.252-0.171,1.687-0.352c0.47-0.196,0.957-0.399,1.918-0.399s1.448,0.203,1.918,0.399
		c0.435,0.181,0.846,0.352,1.687,0.352s1.252-0.171,1.687-0.352c0.47-0.196,0.957-0.399,1.918-0.399s1.448,0.203,1.918,0.399
		c0.435,0.181,0.846,0.352,1.687,0.352c0.334,0,0.589-0.032,0.816-0.076v-0.892c-0.234,0.038-0.491,0.067-0.816,0.067
		C71.869,59.468,71.383,59.265,70.912,59.069z"/>
	<path class="st3" d="M63.702,56.065c0.47,0.196,0.957,0.399,1.918,0.399c0.961,0,1.448-0.203,1.918-0.399
		c0.435-0.181,0.846-0.352,1.687-0.352c0.139,0,0.25,0.011,0.368,0.02l-0.375-0.335h-1.627c-0.097,0.037-0.192,0.075-0.284,0.113
		c-0.435,0.181-0.846,0.352-1.687,0.352c-0.841,0-1.252-0.171-1.687-0.352c-0.092-0.038-0.187-0.076-0.284-0.113h-1.822
		l-0.381,0.347c0.167-0.02,0.353-0.032,0.568-0.032C62.856,55.712,63.267,55.883,63.702,56.065z"/>
	<path class="st3" d="M62.015,57.214c0.841,0,1.252,0.171,1.687,0.352c0.47,0.196,0.957,0.399,1.918,0.399
		c0.961,0,1.448-0.203,1.918-0.399c0.435-0.181,0.846-0.352,1.687-0.352s1.252,0.171,1.687,0.352
		c0.312,0.13,0.645,0.258,1.107,0.333l-1.088-0.972c-0.414-0.165-0.885-0.314-1.706-0.314c-0.961,0-1.448,0.203-1.918,0.399
		c-0.435,0.181-0.846,0.352-1.687,0.352c-0.841,0-1.252-0.171-1.687-0.352c-0.47-0.196-0.957-0.399-1.918-0.399
		s-1.448,0.203-1.918,0.399c-0.024,0.01-0.049,0.019-0.073,0.029l-0.975,0.889c0.565-0.066,0.927-0.217,1.279-0.364
		C60.763,57.386,61.174,57.214,62.015,57.214z"/>
	<path class="st3" d="M71.143,58.514c-0.47-0.196-0.957-0.399-1.918-0.399s-1.448,0.203-1.918,0.399
		c-0.435,0.181-0.846,0.352-1.687,0.352c-0.841,0-1.252-0.171-1.687-0.352c-0.47-0.196-0.957-0.399-1.918-0.399
		s-1.448,0.203-1.918,0.399c-0.435,0.181-0.846,0.352-1.687,0.352c-0.138,0-0.249-0.011-0.366-0.019l-0.449,0.41v0.144
		c0.234,0.038,0.491,0.067,0.815,0.067c0.961,0,1.448-0.203,1.918-0.399c0.435-0.181,0.846-0.353,1.687-0.353
		s1.252,0.171,1.687,0.353c0.47,0.196,0.957,0.399,1.918,0.399c0.961,0,1.448-0.203,1.918-0.399
		c0.435-0.181,0.846-0.353,1.687-0.353s1.252,0.171,1.687,0.353c0.47,0.196,0.957,0.399,1.918,0.399
		c0.325,0,0.582-0.029,0.816-0.067v-0.047l-0.561-0.501c-0.086,0.004-0.159,0.014-0.255,0.014
		C71.989,58.867,71.579,58.696,71.143,58.514z"/>
	<path class="st3" d="M71.143,60.017c-0.47-0.196-0.957-0.399-1.918-0.399s-1.448,0.203-1.918,0.399
		c-0.435,0.181-0.846,0.352-1.687,0.352c-0.841,0-1.252-0.171-1.687-0.352c-0.47-0.196-0.957-0.399-1.918-0.399
		s-1.448,0.203-1.918,0.399c-0.435,0.181-0.846,0.352-1.687,0.352c-0.334,0-0.588-0.032-0.815-0.076v0.61
		c0.234,0.038,0.491,0.067,0.815,0.067c0.961,0,1.448-0.203,1.918-0.399c0.435-0.181,0.846-0.353,1.687-0.353
		s1.252,0.171,1.687,0.353c0.47,0.196,0.957,0.399,1.918,0.399s1.448-0.203,1.918-0.399c0.435-0.181,0.846-0.353,1.687-0.353
		s1.252,0.171,1.687,0.353c0.47,0.196,0.957,0.399,1.918,0.399c0.325,0,0.582-0.029,0.816-0.067v-0.61
		c-0.227,0.044-0.482,0.076-0.816,0.076C71.989,60.369,71.579,60.198,71.143,60.017z"/>
	<path class="st3" d="M71.143,61.519c-0.47-0.196-0.957-0.399-1.918-0.399s-1.448,0.203-1.918,0.399
		c-0.435,0.181-0.846,0.352-1.687,0.352c-0.841,0-1.252-0.171-1.687-0.352c-0.47-0.196-0.957-0.399-1.918-0.399
		s-1.448,0.203-1.918,0.399c-0.435,0.181-0.846,0.352-1.687,0.352c-0.334,0-0.588-0.032-0.815-0.076v0.61
		c0.234,0.038,0.491,0.067,0.815,0.067c0.961,0,1.448-0.203,1.918-0.399c0.435-0.181,0.846-0.352,1.687-0.352
		s1.252,0.171,1.687,0.352c0.47,0.196,0.957,0.399,1.918,0.399s1.448-0.203,1.918-0.399c0.435-0.181,0.846-0.352,1.687-0.352
		s1.252,0.171,1.687,0.352c0.47,0.196,0.957,0.399,1.918,0.399c0.325,0,0.582-0.029,0.816-0.067v-0.61
		c-0.227,0.044-0.482,0.076-0.816,0.076C71.989,61.871,71.579,61.7,71.143,61.519z"/>
	<path class="st3" d="M71.143,63.021c-0.47-0.196-0.957-0.399-1.918-0.399s-1.448,0.203-1.918,0.399
		c-0.435,0.181-0.846,0.352-1.687,0.352c-0.841,0-1.252-0.171-1.687-0.352c-0.47-0.196-0.957-0.399-1.918-0.399
		s-1.448,0.203-1.918,0.399c-0.435,0.181-0.846,0.352-1.687,0.352c-0.334,0-0.588-0.032-0.815-0.076v0.61
		c0.234,0.038,0.491,0.067,0.815,0.067c0.961,0,1.448-0.203,1.918-0.399c0.435-0.181,0.846-0.352,1.687-0.352
		s1.252,0.171,1.687,0.352c0.47,0.196,0.957,0.399,1.918,0.399s1.448-0.203,1.918-0.399c0.435-0.181,0.846-0.352,1.687-0.352
		s1.252,0.171,1.687,0.352c0.47,0.196,0.957,0.399,1.918,0.399c0.325,0,0.582-0.029,0.816-0.067v-0.61
		c-0.227,0.044-0.482,0.076-0.816,0.076C71.989,63.374,71.579,63.202,71.143,63.021z"/>
	<path class="st3" d="M69.225,64.125c-0.961,0-1.448,0.203-1.918,0.399c-0.435,0.181-0.846,0.352-1.687,0.352
		c-0.841,0-1.252-0.171-1.687-0.352c-0.47-0.196-0.957-0.399-1.918-0.399s-1.448,0.203-1.918,0.399
		c-0.428,0.178-0.838,0.345-1.653,0.351l0.593,0.569c0.57-0.066,0.936-0.217,1.291-0.364c0.435-0.181,0.846-0.353,1.687-0.353
		s1.252,0.171,1.687,0.353c0.47,0.196,0.957,0.399,1.918,0.399s1.448-0.203,1.918-0.399c0.435-0.181,0.846-0.353,1.687-0.353
		s1.252,0.171,1.687,0.353c0.329,0.137,0.675,0.273,1.176,0.345l0.592-0.556c-0.733-0.021-1.132-0.175-1.538-0.344
		C70.673,64.327,70.187,64.125,69.225,64.125z"/>
	<path class="st3" d="M69.225,65.627c-0.961,0-1.448,0.203-1.918,0.399c-0.435,0.181-0.846,0.353-1.687,0.353
		c-0.841,0-1.252-0.171-1.687-0.353c-0.47-0.196-0.957-0.399-1.918-0.399s-1.448,0.203-1.918,0.399
		c-0.105,0.044-0.209,0.087-0.318,0.127l0.476,0.457c0.024-0.01,0.049-0.019,0.073-0.029c0.435-0.181,0.846-0.352,1.687-0.352
		s1.252,0.171,1.687,0.352c0.47,0.196,0.957,0.399,1.918,0.399c0.961,0,1.448-0.203,1.918-0.399
		c0.435-0.181,0.846-0.352,1.687-0.352c0.816,0,1.226,0.161,1.647,0.336l0.484-0.454c-0.071-0.028-0.142-0.056-0.213-0.085
		C70.673,65.83,70.187,65.627,69.225,65.627z"/>
	<path class="st3" d="M67.307,67.528c-0.435,0.181-0.846,0.352-1.687,0.352c-0.841,0-1.252-0.171-1.687-0.352
		c-0.47-0.196-0.957-0.399-1.918-0.399c-0.458,0-0.803,0.048-1.095,0.117l0.536,0.514c0.164-0.019,0.348-0.03,0.559-0.03
		c0.841,0,1.252,0.171,1.687,0.352c0.027,0.011,0.057,0.022,0.084,0.034h3.667c0.028-0.011,0.057-0.022,0.085-0.034
		c0.435-0.181,0.846-0.352,1.687-0.352c0.144,0,0.261,0.011,0.383,0.02l0.566-0.531c-0.263-0.052-0.561-0.091-0.948-0.091
		C68.264,67.129,67.777,67.332,67.307,67.528z"/>
	<polygon class="st1" points="61.822,68.116 57.589,64.06 57.589,59.257 61.822,55.397 69.212,55.397 73.641,59.355 73.641,63.962 
		69.212,68.116 	"/>
	<polyline class="st1" points="65.579,167.362 65.579,167.362 65.579,150.694 	"/>
	<polygon class="st1" points="37.422,167.362 37.422,150.694 77.883,150.694 77.883,167.362 	"/>
	<path class="st1" d="M92.169,148.181v-42.057c0,0-0.786-18.5-0.976-19.511c-2.362-12.601-24.71-15.849-25.399-15.85
		c-0.689,0-21.166,0.787-25.399,15.456c-0.689,1.87-1.101,21.835-1.101,21.835v40.722l-0.22,0.074c0,0-8.448,0-9.855,0
		c-2.5,0-2.487,2.759-2.487,2.759v8.674h6.085v14.988h-5.945v7.187c0,0-0.298,1.841,2.751,1.436
		c3.411-0.452,22.357-3.215,36.238-3.142c3.234,0.018,22.522,0.405,36.796,3.18c3.043,0.591,2.377-1.479,2.377-1.479v-7.183h-6.039
		v-15.099h5.943V149.61c0,0-0.386-1.434-2.386-1.434c-0.808,0-4.981,0-9.667,0L92.169,148.181z"/>
	<line class="st1" x1="104.941" y1="174.939" x2="104.941" y2="162.692"/>
	<line class="st1" x1="100.177" y1="174.772" x2="100.177" y2="162.525"/>
	<line class="st1" x1="31.843" y1="174.939" x2="31.843" y2="162.703"/>
	<line class="st1" x1="26.833" y1="174.939" x2="26.833" y2="162.703"/>
	<polygon class="st1" points="45.395,139.033 45.395,130.729 85.846,130.729 85.846,139.068 	"/>
	<line class="st1" x1="48.649" y1="167.694" x2="48.649" y2="150.856"/>
	<line class="st1" x1="55.782" y1="130.661" x2="55.782" y2="139.134"/>
	<line class="st1" x1="65.593" y1="130.572" x2="65.593" y2="139.045"/>
	<line class="st1" x1="75.761" y1="130.572" x2="75.761" y2="139.045"/>
	<path class="st1" d="M113.115,248.193v28.329c0,0-4.195,6.291-4.195,16.51c0,10.22,4.195,16.569,4.195,16.569v49.566
		c0,0-0.049,3.897-12.789,3.897c-7.66-7.987-20.716-7.783-20.716-7.783l-13.854-0.004h-13.84c0,0-13.058-0.204-20.718,7.783
		c-12.742,0-12.789-8.896-12.789-8.896v-44.568c0,0,4.195-6.349,4.195-16.567c0-10.22-4.196-16.511-4.196-16.511v-27.994
		l0.042-0.365c0,0,3.141-7.183,11.808-9.183c5.825-1.344,19.345-3.926,34.936-3.926l0,0c0,0,0.836-0.008,0.863-0.008
		c15.608,0,29.228,2.703,35.079,3.935c9.5,2,11.904,8.969,11.904,8.969L113.115,248.193z"/>
	<line class="st1" x1="21.651" y1="236.74" x2="21.651" y2="229.737"/>
	<path class="st1" d="M112.689,230.723c-2.75-1.114-6.982-1.947-6.982-1.947c-5.799-1.46-24.34-4.941-39.931-4.941l0,0h-1.008l0,0
		c-15.591,0-34.134,3.481-39.931,4.941c0,0-4.234,0.832-6.982,1.947"/>
	<line class="st1" x1="108.892" y1="236.74" x2="108.892" y2="229.737"/>
	<line class="st1" x1="21.651" y1="227.83" x2="21.651" y2="220.827"/>
	<path class="st1" d="M112.689,221.813c-2.75-1.114-6.982-1.947-6.982-1.947c-5.799-1.459-24.34-4.941-39.931-4.941l0,0h-1.008l0,0
		c-15.591,0-34.134,3.481-39.931,4.941c0,0-4.234,0.833-6.982,1.947"/>
	<line class="st1" x1="108.892" y1="227.83" x2="108.892" y2="220.827"/>
	<line class="st1" x1="21.651" y1="218.813" x2="21.651" y2="211.81"/>
	<path class="st1" d="M112.689,212.796c-2.75-1.114-6.982-1.947-6.982-1.947c-5.799-1.459-24.34-4.941-39.931-4.941l0,0h-1.008l0,0
		c-15.591,0-34.134,3.482-39.931,4.941c0,0-4.234,0.833-6.982,1.947"/>
	<line class="st1" x1="108.892" y1="218.813" x2="108.892" y2="211.81"/>
	<line class="st1" x1="21.651" y1="209.975" x2="21.651" y2="202.972"/>
	<path class="st1" d="M112.689,203.958c-2.75-1.114-6.982-1.947-6.982-1.947c-5.799-1.46-24.34-4.941-39.931-4.941l0,0h-1.008l0,0
		c-15.591,0-34.134,3.481-39.931,4.941c0,0-4.234,0.833-6.982,1.947"/>
	<line class="st1" x1="108.892" y1="209.975" x2="108.892" y2="202.972"/>
	<line class="st1" x1="21.651" y1="199.982" x2="21.651" y2="192.98"/>
	<path class="st1" d="M112.701,237.444v-43.283l-0.012-0.196c-2.75-1.114-6.982-1.947-6.982-1.947
		c-5.799-1.459-24.34-4.941-39.931-4.941l0,0h-1.008l0,0c-15.591,0-34.134,3.481-39.931,4.941c0,0-4.234,0.833-6.982,1.947v0.458
		v43.187"/>
	<line class="st1" x1="108.892" y1="199.982" x2="108.892" y2="192.98"/>
	<line class="st1" x1="92.264" y1="130.724" x2="108.136" y2="130.724"/>
	<polyline class="st1" points="92.264,113.224 108.719,113.224 108.719,104.677 	"/>
	<polyline class="st1" points="39.045,113.224 22.59,113.224 22.59,104.677 	"/>
	<line class="st1" x1="23.764" y1="130.724" x2="39.636" y2="130.724"/>
	<path class="st1" d="M17.002,113.419V65.694c0,0-1.45-17.25,16.634-18.75c5.82-0.483,24.58-1.5,31.25-1.5
		c6.828,0,32.167,1.333,33.25,1.5c2.083,0.833,16.25-1.25,16.25,21c0,12.002,0,45.632,0,45.632"/>
	<path class="st1" d="M111.19,47.14c2.985,4.606,2.808,2.754,2.808,2.754V42.4c0,0-0.035-6.179-5.21-6.622
		c0,0-29.886-3.077-43.276-3.077h-0.139c-13.391,0-43.276,3.077-43.276,3.077c-5.175,0.442-5.21,6.622-5.21,6.622v7.494
		c0,0-0.438,1.529,2.808-2.754"/>
	<line class="st1" x1="17.053" y1="33.277" x2="19.325" y2="32.206"/>
	<path class="st1" d="M113.872,32.723c0,0,1.165-7.955-5.21-7.955c0,0-29.886-3.077-43.276-3.077h-0.014
		c-13.391,0-43.276,3.077-43.276,3.077c-6.375,0-5.21,7.955-5.21,7.955"/>
	<line class="st1" x1="113.706" y1="33.277" x2="111.434" y2="32.206"/>
	<polyline class="st1" points="14.995,559.44 14.995,554.44 7.495,548.44 7.495,214.194 14.995,207.194 14.995,201.681 	"/>
	<polyline class="st1" points="116.224,559.44 116.224,554.44 123.724,548.44 123.724,214.194 116.224,207.194 116.224,201.681 	"/>
	<path class="st1" d="M65.596,235.068c0,0,0.836-0.008,0.863-0.008c15.593,0,30.753,2.903,36.537,4.391
		c7.607,1.956,10.051,8.806,10.051,8.806l0.383,28.224c0,0-4.195,6.782-4.195,16.983c0,10.203,4.195,16.042,4.195,16.042
		l-0.247,49.312c0,0,0.007,4.585-12.733,4.585c-7.66-7.974-20.525-8.055-20.525-8.055l-13.854-0.005h-13.84
		c0,0-13.058-0.203-20.718,7.77c-12.742,0-12.789-8.88-12.789-8.88v-44.732c0,0,4.195-5.84,4.195-16.041
		c0-10.203-4.196-16.984-4.196-16.984v-28.779c0,0,2.419-6.357,10.025-8.313C34.53,237.899,50.003,235.068,65.596,235.068
		L65.596,235.068z"/>
	<path class="st1" d="M25.758,240.852l1.125,3.875 M23.196,242.665l2.562,3.062 M24.383,241.602l1.875,3.5"/>
	<path class="st1" d="M27.383,240.477c0,0,1.25,3.125-0.75,4.5c0,0-1.875,1-2.625,2.125"/>
	<path class="st1" d="M105.427,244.727l1.125-3.875 M106.552,245.727l2.562-3.062 M106.052,245.102l1.875-3.5"/>
	<path class="st1" d="M104.927,240.477c0,0-1.25,3.125,0.75,4.5c0,0,1.875,1,2.625,2.125"/>
	<path class="st1" d="M82.265,665.188h4.948l-0.002-31.86h27.206v43.283c0,0-0.726,3.08-4.623,3.413H86.492v-9.116l-41.025-0.002
		l-0.002,9.132H19.832c-2.088-0.327-3.018-1.759-3.018-3.417l-0.013-5.713v-37.264h28.566v31.654h15.348L82.265,665.188z"/>
	<path class="st1" d="M112.659,477.723l-94.384,0.002V388.13c0,0-0.584-3.679,2.879-7.653c1.96-1.736,5.004-3.184,9.678-3.863
		c19.062-2.765,31.335-2.861,34.802-2.861c3.467,0,29.207,0.939,38.01,3.537c9.939,2.933,9.016,10.321,9.016,10.321L112.659,477.723
		L112.659,477.723z"/>
	<path class="st1" d="M87.007,665.257l0.084-31.944l27.373,0.057l-0.244-34.683c0,0,0.664-3.167-5.531-3.394
		c-4.806-0.176-8.842,0.146-8.842,0.146V478.016l-68.79-0.028v117.317H20.751c0,0-3.68,0.023-3.68,4.232s0.249,34.188,0.249,34.188
		h28.273l-0.494,31.299L87.007,665.257z"/>
	<polygon class="st1" points="112.851,434.248 18.547,434.248 18.547,407.515 49.886,407.515 50.079,396.236 81.406,396.649 
		81.632,407.515 112.851,407.515 	"/>
	<rect x="18.401" y="554.574" class="st1" width="12.631" height="33.766"/>
	<rect x="99.669" y="554.574" class="st1" width="13.298" height="33.767"/>
	<line class="st1" x1="65.675" y1="662.502" x2="74.012" y2="662.502"/>
	<line class="st1" x1="65.748" y1="649.312" x2="65.748" y2="662.536"/>
	<line class="st1" x1="73.977" y1="649.313" x2="73.977" y2="662.61"/>
	<line class="st1" x1="65.924" y1="657.244" x2="74.012" y2="657.244"/>
	<line class="st1" x1="65.675" y1="659.804" x2="74.137" y2="659.804"/>
	<line class="st1" x1="65.8" y1="654.649" x2="74.012" y2="654.649"/>
	<line class="st1" x1="65.924" y1="652.163" x2="74.261" y2="652.163"/>
	<line class="st1" x1="65.273" y1="641.506" x2="75.179" y2="633.193"/>
	<line class="st1" x1="74.945" y1="641.35" x2="65.351" y2="633.303"/>
	<line class="st1" x1="78.355" y1="442.719" x2="72.223" y2="434.772"/>
	<path class="st1" d="M113.052,407.546H18.543 M104.797,407.653v14.034l-7.245,6.017H74.433v-20.029h-17.22v19.959l-8.073,0.023
		h-8.753v6.591 M112.919,438.479v-34.66 M18.632,434.248h79.004v4.687h7.25v-4.75h7.875"/>
	<path class="st1" d="M112.919,477.796l-94.384,0.002v-89.685c0,0-0.584-3.683,2.879-7.66c1.96-1.739,5.004-3.189,9.678-3.868
		c19.062-2.768,31.335-2.864,34.802-2.864s29.207,0.94,38.01,3.541c9.939,2.935,9.016,10.331,9.016,10.331L112.919,477.796
		L112.919,477.796z"/>
	<line class="st1" x1="16.386" y1="633.275" x2="45.622" y2="633.275"/>
	<line class="st1" x1="86.955" y1="633.275" x2="114.583" y2="633.275"/>
	<path class="st1" d="M16.679,599.654c0-4.212,4.117-4.212,4.117-4.212h10.419V478.045l68.56-0.02V595.43c0,0,5.067,0,9.929,0
		s4.642,3.352,4.642,3.352l0.011,78.073c0,0,0.025,3.082-3.904,3.082H86.37v-8.79l-40.946-0.002l-0.002,8.806H19.747
		c-2.106,0.006-3.042-1.427-3.042-3.086C16.705,676.865,16.679,603.866,16.679,599.654z"/>
	<line class="st1" x1="49.25" y1="664.915" x2="49.234" y2="649.398"/>
	<polyline class="st1" points="82.764,649.398 82.764,662.638 82.764,665.193 	"/>
	<rect x="65.052" y="632.854" class="st1" width="10" height="8.666"/>
	<rect x="45.302" y="622.604" class="st1" width="41.742" height="42.583"/>
	<line class="st1" x1="45.386" y1="641.354" x2="87.053" y2="641.426"/>
	<line class="st1" x1="45.412" y1="649.187" x2="87.081" y2="649.259"/>
	<polyline class="st1" points="57.386,412.191 48.047,412.191 48.047,427.521 	"/>
	<polyline class="st1" points="82.886,407.691 82.886,422.521 93.886,422.521 97.552,427.704 	"/>
	<polyline class="st1" points="49.963,407.542 49.963,396.438 81.47,396.438 81.47,407.607 	"/>
	<path class="st1" d="M62.082,439.511c0,0,0.093,3.804,3.843,3.804c3.75,0,3.96-3.794,3.96-3.794"/>
	<polyline class="st1" points="30.886,588.216 18.401,588.216 18.401,554.764 30.886,554.764 	"/>
	<polyline class="st1" points="99.815,588.216 112.967,588.216 112.967,554.764 99.815,554.764 	"/>
	<path class="st1" d="M61.332,426.865c0.188,0,0.339-0.27,0.339-0.61"/>
	<line class="st1" x1="57.226" y1="426.865" x2="61.332" y2="426.865"/>
	<line class="st1" x1="61.671" y1="426.255" x2="61.671" y2="423.892"/>
	<line class="st1" x1="61.671" y1="423.892" x2="69.744" y2="423.892"/>
	<path class="st1" d="M69.744,426.255c0,0.341,0.149,0.61,0.337,0.61"/>
	<line class="st1" x1="69.744" y1="423.892" x2="69.744" y2="426.255"/>
	<line class="st1" x1="70.08" y1="426.865" x2="74.211" y2="426.865"/>
	<line class="st1" x1="65.617" y1="412.289" x2="65.617" y2="427.084"/>
	<line class="st1" x1="65.78" y1="412.289" x2="65.78" y2="427.084"/>
	<line class="st1" x1="57.417" y1="413.045" x2="65.617" y2="413.045"/>
	<line class="st1" x1="65.617" y1="427.084" x2="65.78" y2="427.084"/>
	<line class="st1" x1="65.617" y1="412.289" x2="65.78" y2="412.289"/>
	<line class="st1" x1="65.78" y1="413.045" x2="74.276" y2="413.045"/>
	<line class="st1" x1="65.78" y1="414.611" x2="69.394" y2="414.611"/>
	<line class="st1" x1="65.78" y1="416.18" x2="69.394" y2="416.18"/>
	<line class="st1" x1="65.78" y1="417.749" x2="69.394" y2="417.749"/>
	<line class="st1" x1="65.78" y1="419.317" x2="69.394" y2="419.317"/>
	<line class="st1" x1="65.78" y1="420.886" x2="69.394" y2="420.886"/>
	<line class="st1" x1="65.78" y1="422.455" x2="69.394" y2="422.455"/>
	<line class="st1" x1="65.78" y1="425.59" x2="69.721" y2="425.59"/>
	<line class="st1" x1="62.003" y1="414.611" x2="65.617" y2="414.611"/>
	<line class="st1" x1="62.003" y1="416.18" x2="65.617" y2="416.18"/>
	<line class="st1" x1="62.003" y1="417.749" x2="65.617" y2="417.749"/>
	<line class="st1" x1="62.003" y1="419.317" x2="65.617" y2="419.317"/>
	<line class="st1" x1="62.003" y1="420.886" x2="65.617" y2="420.886"/>
	<line class="st1" x1="62.003" y1="422.455" x2="65.617" y2="422.455"/>
	<line class="st1" x1="61.646" y1="425.59" x2="65.617" y2="425.59"/>
	<line class="st1" x1="74.305" y1="425.321" x2="70.051" y2="425.321"/>
	<line class="st1" x1="74.248" y1="423.774" x2="69.605" y2="423.774"/>
	<line class="st1" x1="74.334" y1="422.232" x2="70.051" y2="422.232"/>
	<line class="st1" x1="74.248" y1="420.686" x2="70.068" y2="420.686"/>
	<line class="st1" x1="61.682" y1="425.321" x2="57.301" y2="425.321"/>
	<line class="st1" x1="61.71" y1="423.774" x2="57.271" y2="423.774"/>
	<line class="st1" x1="61.347" y1="422.232" x2="57.242" y2="422.232"/>
	<line class="st1" x1="61.347" y1="420.686" x2="57.271" y2="420.686"/>
	<path class="st1" d="M70.107,412.111c0-0.326-0.147-0.592-0.328-0.592c-0.182,0-0.329,0.266-0.329,0.592l0,0"/>
	<line class="st1" x1="69.45" y1="412.111" x2="69.45" y2="412.289"/>
	<line class="st1" x1="70.107" y1="412.111" x2="70.107" y2="412.289"/>
	<path class="st1" d="M62.003,412.111c0-0.326-0.146-0.592-0.326-0.592c-0.183,0-0.331,0.266-0.331,0.592l0,0"/>
	<line class="st1" x1="61.347" y1="412.111" x2="61.347" y2="412.289"/>
	<line class="st1" x1="62.003" y1="412.111" x2="62.003" y2="412.289"/>
	<line class="st1" x1="69.774" y1="412.289" x2="69.774" y2="423.743"/>
	<line class="st1" x1="74.218" y1="417.594" x2="70.051" y2="417.594"/>
	<line class="st1" x1="74.218" y1="416.052" x2="70.051" y2="416.052"/>
	<line class="st1" x1="74.19" y1="414.504" x2="70.051" y2="414.504"/>
	<line class="st1" x1="74.248" y1="419.142" x2="70.051" y2="419.142"/>
	<line class="st1" x1="61.681" y1="412.289" x2="61.681" y2="423.951"/>
	<line class="st1" x1="61.347" y1="417.594" x2="57.301" y2="417.594"/>
	<line class="st1" x1="61.347" y1="416.052" x2="57.33" y2="416.052"/>
	<line class="st1" x1="61.347" y1="414.504" x2="57.359" y2="414.504"/>
	<line class="st1" x1="61.393" y1="419.142" x2="57.213" y2="419.142"/>
	<path class="st1" d="M85.385,712.329c0,11.322-9.178,20.5-20.498,20.5c-11.322,0-20.5-9.178-20.5-20.5s9.178-20.5,20.5-20.5
		C76.207,691.829,85.385,701.007,85.385,712.329z"/>
	<path class="st1" d="M85.385,712.329c0,11.322-9.178,20.5-20.498,20.5c-11.322,0-20.5-9.178-20.5-20.5s9.178-20.5,20.5-20.5
		C76.207,691.829,85.385,701.007,85.385,712.329z"/>
	<path class="st1" d="M88.708,435.29h2.734c2.158,3.412,2.891,10.612,0.19,14.888c-2.994,4.744-9.775,4.211-9.775,4.211
		s-3.998,9.754-15.665,9.86c-11.67,0.105-16.297-9.968-16.297-9.968s-6.443,1.309-9.83-4.583
		c-4.258-7.409,0.331-14.408,0.331-14.408h2.736"/>
	<path class="st1" d="M56.668,443.914c-4.807,0-5.084-4.496-5.084-4.496l2.468,0.009v-4.815h5.603l-0.002,4.815l2.313-0.009
		C61.967,439.418,61.475,443.914,56.668,443.914z"/>
	<path class="st1" d="M45.839,443.914c-4.807,0-5.084-4.496-5.084-4.496l2.469,0.009v-4.815h5.602v4.815l2.311-0.009
		C51.136,439.418,50.645,443.914,45.839,443.914z"/>
	<path class="st1" d="M85.675,443.914c-4.809,0-5.088-4.496-5.088-4.496l2.469,0.009v-4.815h5.602l-0.002,4.815l2.313-0.009
		C90.968,439.418,90.48,443.914,85.675,443.914z"/>
	<path class="st1" d="M74.843,443.914c-4.806,0-5.086-4.496-5.086-4.496l2.469,0.009v-4.815h5.604l-0.002,4.815l2.312-0.009
		C80.14,439.418,79.65,443.914,74.843,443.914z"/>
	<line class="st1" x1="53.382" y1="442.856" x2="59.709" y2="434.828"/>
	<line class="st1" x1="42.557" y1="442.856" x2="48.884" y2="434.828"/>
	<line class="st1" x1="60.076" y1="442.795" x2="54.112" y2="434.891"/>
	<line class="st1" x1="49.246" y1="442.795" x2="43.286" y2="434.891"/>
	<line class="st1" x1="82.386" y1="442.856" x2="88.714" y2="434.828"/>
	<line class="st1" x1="89.08" y1="442.719" x2="83.117" y2="434.815"/>
	<line class="st1" x1="71.556" y1="442.856" x2="77.884" y2="434.828"/>
	<path class="st1" d="M91.61,390.433c0,0,0.37-5.765-6.11-5.765c-6.481,0-6.104,5.765-6.104,5.765l0.006,5.971l2.068-0.031v11.234
		h10.14C91.61,407.607,91.61,390.433,91.61,390.433z"/>
	<line class="st1" x1="110.553" y1="374.435" x2="87.886" y2="391.102"/>
	<path class="st4" d="M21.863,585.42h-0.168c-1.583,0-2.402-0.672-2.402-1.639c0-0.26,0.056-0.477,0.14-0.651h0.889
		c-0.126,0.21-0.21,0.399-0.21,0.623c0,0.49,0.49,0.799,1.548,0.799h0.238c1.281,0,1.576-0.379,1.576-0.729
		c0-0.028,0-0.035-0.007-0.077h-1.254v0.42H21.45v-1.197h2.605c0.133,0.308,0.21,0.561,0.21,0.89
		C24.265,584.713,23.572,585.42,21.863,585.42z M21.905,582.585h-0.252c-1.618,0-2.396-0.525-2.396-1.303s0.777-1.303,2.396-1.303
		h0.252c1.618,0,2.395,0.525,2.395,1.303S23.522,582.585,21.905,582.585z M21.905,580.848h-0.252c-1.261,0-1.611,0.176-1.611,0.435
		s0.351,0.435,1.611,0.435h0.252c1.261,0,1.611-0.176,1.611-0.435S23.166,580.848,21.905,580.848z M19.327,579.561v-0.854h4.09
		v-0.903h0.812v1.758L19.327,579.561L19.327,579.561z M19.327,577.461v-1.786h0.812v0.932h1.233v-0.812h0.812v0.812h2.045v0.854
		H19.327z M19.327,574.178v-0.798c0-1.093,0.792-1.716,2.368-1.716h0.168c1.576,0,2.367,0.623,2.367,1.716v0.798H19.327z
		 M23.446,573.29c0-0.406-0.357-0.757-1.583-0.757h-0.168c-1.226,0-1.583,0.351-1.583,0.757v0.034h3.334V573.29z M19.327,571.246
		v-0.883c0-0.875,0.462-1.513,1.562-1.513h0.063c0.637,0,1.043,0.252,1.289,0.574l1.989-0.658v0.91l-1.709,0.554v0.161h1.709v0.854
		h-4.903V571.246z M21.75,570.349c0-0.371-0.217-0.645-0.792-0.645h-0.056c-0.617,0-0.777,0.294-0.777,0.666v0.021h1.625V570.349z
		 M19.327,568.446v-0.854h4.903v0.854H19.327z M19.327,567.319v-0.868l3.194-0.463l-3.194-0.462v-0.841l4.917,0.876v0.882
		L19.327,567.319z M19.327,564.414v-0.854h4.903v0.854H19.327z M19.327,563.042v-0.798l2.479-0.862h-2.479v-0.833h4.903v0.757
		l-2.599,0.903h2.599v0.833L19.327,563.042L19.327,563.042z M21.863,560.129h-0.168c-1.583,0-2.402-0.672-2.402-1.639
		c0-0.259,0.056-0.476,0.14-0.651h0.889c-0.126,0.21-0.21,0.399-0.21,0.624c0,0.49,0.49,0.798,1.548,0.798h0.238
		c1.281,0,1.576-0.378,1.576-0.729c0-0.027,0-0.035-0.007-0.077h-1.254v0.421H21.45v-1.198h2.605c0.133,0.309,0.21,0.561,0.21,0.89
		C24.265,559.422,23.572,560.129,21.863,560.129z M25.327,574.504v-0.799l2.479-0.861h-2.479v-0.834h4.903v0.757l-2.599,0.903h2.599
		v0.834H25.327z M25.327,571.508v-1.877h0.812v1.022h1.219v-0.903h0.812v0.903h1.247v-1.044h0.812v1.898h-4.902V571.508z
		 M26.14,568.743v0.603h-0.812v-2.06h0.812v0.603h4.09v0.854L26.14,568.743L26.14,568.743z"/>
	<path class="st4" d="M103.457,585.42h-0.168c-1.583,0-2.402-0.672-2.402-1.639c0-0.26,0.056-0.477,0.14-0.651h0.89
		c-0.126,0.21-0.21,0.399-0.21,0.623c0,0.49,0.49,0.799,1.548,0.799h0.238c1.281,0,1.575-0.379,1.575-0.729
		c0-0.028,0-0.035-0.007-0.077h-1.253v0.42h-0.764v-1.197h2.605c0.133,0.308,0.21,0.561,0.21,0.89
		C105.86,584.713,105.166,585.42,103.457,585.42z M103.499,582.585h-0.252c-1.618,0-2.396-0.525-2.396-1.303
		s0.777-1.303,2.396-1.303h0.252c1.618,0,2.396,0.525,2.396,1.303S105.118,582.585,103.499,582.585z M103.499,580.848h-0.252
		c-1.261,0-1.611,0.176-1.611,0.435s0.351,0.435,1.611,0.435h0.252c1.261,0,1.61-0.176,1.61-0.435S104.76,580.848,103.499,580.848z
		 M100.922,579.561v-0.854h4.09v-0.903h0.812v1.758L100.922,579.561L100.922,579.561z M100.922,577.461v-1.786h0.812v0.932h1.232
		v-0.812h0.812v0.812h2.045v0.854H100.922z M100.922,574.178v-0.798c0-1.093,0.791-1.716,2.367-1.716h0.168
		c1.576,0,2.367,0.623,2.367,1.716v0.798H100.922z M105.041,573.29c0-0.406-0.357-0.757-1.583-0.757h-0.168
		c-1.226,0-1.583,0.351-1.583,0.757v0.034h3.334V573.29z M100.922,571.246v-0.883c0-0.875,0.462-1.513,1.562-1.513h0.063
		c0.637,0,1.043,0.252,1.288,0.574l1.989-0.658v0.91l-1.709,0.554v0.161h1.709v0.854h-4.902V571.246z M103.345,570.349
		c0-0.371-0.217-0.645-0.791-0.645h-0.057c-0.616,0-0.777,0.294-0.777,0.666v0.021h1.625V570.349z M100.922,568.446v-0.854h4.902
		v0.854H100.922z M100.922,567.319v-0.868l3.193-0.463l-3.193-0.462v-0.841l4.916,0.876v0.882L100.922,567.319z M100.922,564.414
		v-0.854h4.902v0.854H100.922z M100.922,563.042v-0.798l2.479-0.862h-2.479v-0.833h4.902v0.757l-2.599,0.903h2.599v0.833
		L100.922,563.042L100.922,563.042z M103.457,560.129h-0.168c-1.583,0-2.402-0.672-2.402-1.639c0-0.259,0.056-0.476,0.14-0.651h0.89
		c-0.126,0.21-0.21,0.399-0.21,0.624c0,0.49,0.49,0.798,1.548,0.798h0.238c1.281,0,1.575-0.378,1.575-0.729
		c0-0.027,0-0.035-0.007-0.077h-1.253v0.421h-0.764v-1.198h2.605c0.133,0.309,0.21,0.561,0.21,0.89
		C105.86,559.422,105.166,560.129,103.457,560.129z M106.922,574.504v-0.799l2.479-0.861h-2.479v-0.834h4.902v0.757l-2.599,0.903
		h2.599v0.834H106.922z M106.922,571.508v-1.877h0.812v1.022h1.219v-0.903h0.812v0.903h1.247v-1.044h0.812v1.898h-4.902
		C106.922,571.507,106.922,571.508,106.922,571.508z M107.735,568.743v0.603h-0.812v-2.06h0.812v0.603h4.09v0.854L107.735,568.743
		L107.735,568.743z"/>
	<path class="st4" d="M44.126,471.185v-0.168c0-1.724,0.637-2.402,1.436-2.402c0.238,0,0.378,0.028,0.561,0.112v0.882
		c-0.175-0.104-0.315-0.161-0.477-0.161c-0.378,0-0.651,0.337-0.651,1.562v0.182c0,1.296,0.273,1.562,0.665,1.562
		c0.133,0,0.301-0.049,0.477-0.153v0.84c-0.196,0.112-0.385,0.147-0.63,0.147C44.721,473.587,44.126,472.894,44.126,471.185z
		 M47.249,468.635h0.91l0.932,4.917h-0.854l-0.161-0.974h-0.777l-0.154,0.974h-0.826L47.249,468.635z M47.949,471.808l-0.259-1.618
		l-0.266,1.618H47.949z M49.194,471.185v-0.168c0-1.583,0.672-2.402,1.639-2.402c0.259,0,0.476,0.056,0.651,0.14v0.89
		c-0.21-0.126-0.399-0.21-0.624-0.21c-0.49,0-0.798,0.49-0.798,1.548v0.238c0,1.281,0.378,1.575,0.728,1.575
		c0.028,0,0.035,0,0.077-0.007v-1.253h-0.42v-0.764h1.197v2.605c-0.308,0.133-0.56,0.21-0.889,0.21
		C49.901,473.587,49.194,472.894,49.194,471.185z M52.113,468.65h0.799l0.861,2.479v-2.479h0.833v4.902H53.85l-0.904-2.599v2.599
		h-0.833V468.65z M55.109,468.65h1.877v0.812h-1.022v1.219h0.903v0.812h-0.903v1.247h1.043v0.812h-1.898V468.65z M58.077,471.62
		l-0.911-2.97h0.883l0.462,1.835l0.469-1.835h0.862l-0.911,2.97v1.933h-0.854C58.077,473.553,58.077,471.62,58.077,471.62z
		 M60.016,470.415c0.519-0.112,0.624-0.483,0.588-0.791H60.17v-0.974h0.966v0.798c0,0.742-0.357,1.219-1.05,1.31L60.016,470.415z
		 M61.562,473.384v-0.89c0.301,0.175,0.54,0.273,0.771,0.273c0.245,0,0.455-0.119,0.455-0.421v-0.014
		c0-0.224-0.07-0.393-0.476-0.854c-0.582-0.658-0.819-0.974-0.819-1.568v-0.015c0-0.784,0.511-1.281,1.19-1.281
		c0.343,0,0.546,0.049,0.756,0.154v0.889c-0.266-0.153-0.427-0.224-0.651-0.224c-0.238,0-0.441,0.154-0.441,0.42v0.015
		c0,0.23,0.07,0.314,0.476,0.784c0.672,0.777,0.819,1.078,0.819,1.639v0.014c0,0.771-0.539,1.282-1.211,1.282
		C62.095,473.587,61.808,473.503,61.562,473.384z M64.951,473.384v-0.89c0.301,0.175,0.539,0.273,0.771,0.273
		c0.245,0,0.455-0.119,0.455-0.421v-0.014c0-0.224-0.07-0.393-0.476-0.854c-0.582-0.658-0.82-0.974-0.82-1.568v-0.015
		c0-0.784,0.511-1.281,1.191-1.281c0.343,0,0.546,0.049,0.756,0.154v0.889c-0.266-0.153-0.427-0.224-0.651-0.224
		c-0.238,0-0.441,0.154-0.441,0.42v0.015c0,0.23,0.07,0.314,0.477,0.784c0.672,0.777,0.819,1.078,0.819,1.639v0.014
		c0,0.771-0.54,1.282-1.212,1.282C65.483,473.587,65.196,473.503,64.951,473.384z M67.681,469.462h-0.602v-0.812h2.059v0.812h-0.603
		v4.09h-0.854C67.681,473.552,67.681,469.462,67.681,469.462z M69.494,468.65h1.877v0.812h-1.022v1.219h0.903v0.812h-0.903v1.247
		h1.043v0.812h-1.898C69.494,473.552,69.494,468.65,69.494,468.65z M72.49,468.635h0.91l0.932,4.917h-0.854l-0.161-0.974H72.54
		l-0.154,0.974H71.56L72.49,468.635z M73.19,471.808l-0.259-1.618l-0.267,1.618H73.19z M74.589,468.65h0.854v2.052l0.693-2.052
		h0.967l-0.827,2.073l0.841,2.829h-0.952l-0.532-1.856l-0.189,0.54v1.316H74.59L74.589,468.65L74.589,468.65z M77.411,468.65h0.854
		v2.031h0.742v-2.031h0.854v4.902h-0.854v-2.06h-0.742v2.06h-0.854V468.65z M80.281,471.227v-0.252c0-1.618,0.524-2.396,1.303-2.396
		c0.777,0,1.303,0.777,1.303,2.396v0.252c0,1.618-0.525,2.396-1.303,2.396C80.805,473.623,80.281,472.845,80.281,471.227z
		 M82.017,471.227v-0.252c0-1.261-0.175-1.611-0.434-1.611c-0.26,0-0.435,0.351-0.435,1.611v0.252c0,1.261,0.175,1.61,0.435,1.61
		C81.842,472.837,82.017,472.488,82.017,471.227z M83.291,472.124v-3.474h0.848v3.558c0,0.441,0.153,0.616,0.371,0.616
		c0.217,0,0.371-0.175,0.371-0.616v-3.558h0.848v3.474c0,1.029-0.519,1.492-1.219,1.492S83.291,473.153,83.291,472.124z
		 M86.111,473.384v-0.89c0.302,0.175,0.54,0.273,0.771,0.273c0.245,0,0.455-0.119,0.455-0.421v-0.014
		c0-0.224-0.069-0.393-0.476-0.854c-0.582-0.658-0.819-0.974-0.819-1.568v-0.015c0-0.784,0.511-1.281,1.19-1.281
		c0.343,0,0.546,0.049,0.756,0.154v0.889c-0.266-0.153-0.427-0.224-0.651-0.224c-0.237,0-0.44,0.154-0.44,0.42v0.015
		c0,0.23,0.069,0.314,0.476,0.784c0.673,0.777,0.819,1.078,0.819,1.639v0.014c0,0.771-0.539,1.282-1.211,1.282
		C86.643,473.587,86.356,473.503,86.111,473.384z M88.492,468.65h1.877v0.812h-1.023v1.219h0.904v0.812h-0.904v1.247h1.044v0.812
		h-1.897L88.492,468.65L88.492,468.65z"/>
	<path class="st4" d="M61.653,371.969v-0.89c0.301,0.175,0.539,0.273,0.771,0.273c0.245,0,0.455-0.119,0.455-0.42v-0.014
		c0-0.224-0.07-0.392-0.476-0.854c-0.582-0.658-0.82-0.974-0.82-1.569v-0.014c0-0.785,0.512-1.282,1.191-1.282
		c0.343,0,0.546,0.049,0.756,0.154v0.89c-0.266-0.154-0.427-0.224-0.651-0.224c-0.238,0-0.441,0.154-0.441,0.42v0.014
		c0,0.231,0.07,0.315,0.477,0.785c0.672,0.777,0.819,1.079,0.819,1.639v0.014c0,0.771-0.54,1.282-1.212,1.282
		C62.186,372.172,61.898,372.088,61.653,371.969z M64.019,370.708v-3.474h0.848v3.558c0,0.441,0.154,0.616,0.371,0.616
		s0.372-0.175,0.372-0.616v-3.558h0.847v3.474c0,1.029-0.518,1.492-1.219,1.492C64.538,372.2,64.019,371.737,64.019,370.708z
		 M66.861,369.77v-0.168c0-1.583,0.672-2.402,1.639-2.402c0.259,0,0.476,0.056,0.651,0.14v0.889c-0.21-0.126-0.399-0.21-0.624-0.21
		c-0.49,0-0.798,0.49-0.798,1.548v0.238c0,1.281,0.378,1.576,0.729,1.576c0.028,0,0.035,0,0.077-0.007v-1.254h-0.42v-0.763h1.198
		v2.605c-0.308,0.133-0.561,0.21-0.89,0.21C67.568,372.172,66.861,371.479,66.861,369.77z M70.466,367.22h0.911l0.931,4.917h-0.854
		l-0.161-0.974h-0.777l-0.154,0.974h-0.826L70.466,367.22z M71.167,370.393l-0.259-1.618l-0.266,1.618H71.167z M72.566,367.234
		h0.883c0.875,0,1.513,0.462,1.513,1.562v0.063c0,0.637-0.252,1.043-0.574,1.289l0.658,1.989h-0.91l-0.554-1.709H73.42v1.709h-0.854
		V367.234z M73.462,369.657c0.371,0,0.645-0.217,0.645-0.792v-0.056c0-0.617-0.294-0.777-0.665-0.777H73.42v1.625H73.462z
		 M75.268,369.77v-0.168c0-1.723,0.638-2.402,1.436-2.402c0.238,0,0.379,0.028,0.561,0.112v0.882
		c-0.175-0.105-0.315-0.161-0.477-0.161c-0.378,0-0.651,0.336-0.651,1.562v0.182c0,1.296,0.273,1.562,0.666,1.562
		c0.133,0,0.301-0.049,0.476-0.154v0.841c-0.195,0.112-0.385,0.147-0.63,0.147C75.864,372.172,75.268,371.479,75.268,369.77z
		 M78.39,367.22h0.911l0.932,4.917h-0.854l-0.161-0.974H78.44l-0.154,0.974h-0.827L78.39,367.22z M79.091,370.393l-0.26-1.618
		l-0.266,1.618H79.091z M80.49,367.234h0.799l0.861,2.479v-2.479h0.834v4.903h-0.757l-0.903-2.599v2.599H80.49V367.234z
		 M83.486,367.234h1.877v0.812H84.34v1.219h0.903v0.812H84.34v1.247h1.044v0.812h-1.898
		C83.486,372.136,83.486,367.234,83.486,367.234z M86.909,367.234h0.848l0.603,1.793l0.603-1.793h0.847v4.903h-0.819v-2.962
		l-0.623,1.856h-0.014l-0.624-1.856v2.962h-0.819v-4.903H86.909z M90.227,369.812v-0.252c0-1.618,0.525-2.395,1.303-2.395
		s1.303,0.777,1.303,2.395v0.252c0,1.618-0.525,2.395-1.303,2.395S90.227,371.429,90.227,369.812z M91.963,369.812v-0.252
		c0-1.26-0.175-1.611-0.434-1.611c-0.26,0-0.435,0.351-0.435,1.611v0.252c0,1.261,0.175,1.611,0.435,1.611
		C91.789,371.422,91.963,371.072,91.963,369.812z M92.936,372.109v-0.848c0.133,0.049,0.266,0.084,0.406,0.084
		c0.272,0,0.441-0.147,0.441-0.504v-3.607h0.868v3.67c0,0.869-0.455,1.275-1.177,1.275C93.258,372.179,93.09,372.144,92.936,372.109
		z M95.155,367.234h0.854v4.903h-0.854V367.234z M96.982,368.046h-0.603v-0.812h2.06v0.812h-0.603v4.09h-0.854
		C96.982,372.136,96.982,368.046,96.982,368.046z M98.571,369.812v-0.252c0-1.618,0.525-2.395,1.303-2.395s1.303,0.777,1.303,2.395
		v0.252c0,1.618-0.525,2.395-1.303,2.395S98.571,371.429,98.571,369.812z M100.308,369.812v-0.252c0-1.26-0.176-1.611-0.435-1.611
		s-0.435,0.351-0.435,1.611v0.252c0,1.261,0.176,1.611,0.435,1.611S100.308,371.072,100.308,369.812z M102.707,367.234h0.743
		c0.826,0,1.597,0.336,1.597,1.247v0.035c0,0.63-0.357,0.938-0.708,1.107c0.413,0.182,0.771,0.469,0.771,1.092v0.063
		c0,0.869-0.672,1.359-1.625,1.359h-0.777L102.707,367.234L102.707,367.234z M103.577,369.293c0.378,0,0.63-0.217,0.63-0.644v-0.014
		c0-0.427-0.252-0.609-0.63-0.609h-0.015v1.268L103.577,369.293L103.577,369.293z M103.583,371.345c0.392,0,0.672-0.231,0.672-0.637
		v-0.035c0-0.406-0.28-0.637-0.672-0.637h-0.021v1.31h0.021V371.345z M106.118,367.22h0.91l0.932,4.917h-0.854l-0.161-0.974h-0.777
		l-0.154,0.974h-0.826L106.118,367.22z M106.818,370.393l-0.26-1.618l-0.266,1.618H106.818z M108.217,367.234h0.882
		c0.876,0,1.513,0.462,1.513,1.562v0.063c0,0.637-0.252,1.043-0.574,1.289l0.658,1.989h-0.91l-0.554-1.709h-0.16v1.709h-0.854
		L108.217,367.234L108.217,367.234z M109.114,369.657c0.371,0,0.644-0.217,0.644-0.792v-0.056c0-0.617-0.294-0.777-0.665-0.777
		h-0.021v1.625H109.114z"/>
	<path class="st4" d="M39.893,380.234h0.848l0.602,1.793l0.603-1.793h0.848v4.903h-0.82v-2.962l-0.623,1.856h-0.014l-0.623-1.856
		v2.962h-0.82L39.893,380.234L39.893,380.234z M43.211,382.812v-0.252c0-1.618,0.525-2.395,1.303-2.395s1.303,0.777,1.303,2.395
		v0.252c0,1.618-0.525,2.395-1.303,2.395S43.211,384.429,43.211,382.812z M44.948,382.812v-0.252c0-1.26-0.175-1.611-0.435-1.611
		c-0.259,0-0.434,0.351-0.434,1.611v0.252c0,1.261,0.175,1.611,0.434,1.611C44.773,384.422,44.948,384.072,44.948,382.812z
		 M46.235,380.234h0.798c1.092,0,1.716,0.792,1.716,2.368v0.168c0,1.576-0.624,2.367-1.716,2.367h-0.798V380.234z M47.124,384.352
		c0.406,0,0.756-0.357,0.756-1.583v-0.168c0-1.226-0.35-1.583-0.756-1.583H47.09v3.333h0.034V384.352z M49.168,380.234h1.877v0.812
		h-1.022v1.219h0.904v0.812h-0.904v1.247h1.043v0.812h-1.898V380.234z M51.478,380.234h0.882c0.875,0,1.513,0.462,1.513,1.562v0.063
		c0,0.637-0.252,1.043-0.575,1.289l0.659,1.989h-0.911l-0.553-1.709h-0.161v1.709h-0.854V380.234z M52.374,382.657
		c0.371,0,0.645-0.217,0.645-0.792v-0.056c0-0.617-0.294-0.777-0.666-0.777h-0.021v1.625H52.374z M54.264,380.234h0.798l0.861,2.479
		v-2.479h0.833v4.903H56l-0.903-2.599v2.599h-0.833V380.234z M57.176,382.812v-0.252c0-1.618,0.525-2.395,1.303-2.395
		s1.303,0.777,1.303,2.395v0.252c0,1.618-0.525,2.395-1.303,2.395S57.176,384.429,57.176,382.812z M58.913,382.812v-0.252
		c0-1.26-0.175-1.611-0.434-1.611s-0.434,0.351-0.434,1.611v0.252c0,1.261,0.175,1.611,0.434,1.611S58.913,384.072,58.913,382.812z
		 M34.507,388.77v-0.168c0-1.723,0.637-2.402,1.436-2.402c0.238,0,0.378,0.028,0.561,0.112v0.882
		c-0.175-0.105-0.315-0.161-0.477-0.161c-0.378,0-0.651,0.336-0.651,1.562v0.182c0,1.296,0.273,1.562,0.666,1.562
		c0.133,0,0.301-0.049,0.476-0.154v0.841c-0.196,0.112-0.385,0.147-0.63,0.147C35.102,391.172,34.507,390.479,34.507,388.77z
		 M36.943,386.234h0.854v2.031h0.742v-2.031h0.854v4.903H38.54v-2.059h-0.742v2.059h-0.854L36.943,386.234L36.943,386.234z
		 M39.883,389.708v-3.474h0.847v3.558c0,0.441,0.154,0.616,0.372,0.616c0.217,0,0.371-0.175,0.371-0.616v-3.558h0.847v3.474
		c0,1.029-0.518,1.492-1.218,1.492C40.401,391.2,39.883,390.737,39.883,389.708z M42.809,386.234h0.882
		c0.875,0,1.513,0.462,1.513,1.562v0.063c0,0.637-0.252,1.043-0.575,1.289l0.659,1.989h-0.911l-0.553-1.709h-0.161v1.709h-0.854
		V386.234z M43.705,388.657c0.371,0,0.645-0.217,0.645-0.792v-0.056c0-0.617-0.294-0.777-0.666-0.777h-0.021v1.625H43.705z
		 M45.595,386.234h0.882c0.875,0,1.513,0.462,1.513,1.562v0.063c0,0.637-0.252,1.043-0.574,1.289l0.658,1.989h-0.91l-0.554-1.709
		h-0.161v1.709h-0.854V386.234z M46.491,388.657c0.371,0,0.644-0.217,0.644-0.792v-0.056c0-0.617-0.294-0.777-0.665-0.777h-0.021
		v1.625H46.491z M49.067,386.22h0.911l0.931,4.917h-0.854l-0.161-0.974h-0.778l-0.154,0.974h-0.827L49.067,386.22z M49.767,389.393
		l-0.259-1.618l-0.266,1.618H49.767z M51.062,390.969v-0.89c0.301,0.175,0.539,0.273,0.771,0.273c0.245,0,0.455-0.119,0.455-0.42
		v-0.014c0-0.224-0.07-0.392-0.476-0.854c-0.582-0.658-0.82-0.974-0.82-1.569v-0.014c0-0.785,0.511-1.282,1.191-1.282
		c0.343,0,0.546,0.049,0.756,0.154v0.89c-0.266-0.154-0.427-0.224-0.651-0.224c-0.238,0-0.441,0.154-0.441,0.42v0.014
		c0,0.231,0.07,0.315,0.477,0.785c0.672,0.777,0.819,1.079,0.819,1.639v0.014c0,0.771-0.54,1.282-1.212,1.282
		C51.594,391.172,51.307,391.088,51.062,390.969z M53.322,388.77v-0.168c0-1.723,0.638-2.402,1.436-2.402
		c0.238,0,0.378,0.028,0.56,0.112v0.882c-0.175-0.105-0.315-0.161-0.476-0.161c-0.378,0-0.651,0.336-0.651,1.562v0.182
		c0,1.296,0.273,1.562,0.666,1.562c0.133,0,0.301-0.049,0.476-0.154v0.841c-0.196,0.112-0.385,0.147-0.63,0.147
		C53.918,391.172,53.322,390.479,53.322,388.77z M56.445,386.22h0.911l0.932,4.917h-0.854l-0.161-0.974h-0.777l-0.154,0.974h-0.827
		L56.445,386.22z M57.145,389.393l-0.259-1.618l-0.266,1.618H57.145z M58.544,386.234h0.882c0.875,0,1.513,0.462,1.513,1.562v0.063
		c0,0.637-0.252,1.043-0.574,1.289l0.658,1.989h-0.911l-0.553-1.709h-0.161v1.709h-0.854V386.234z M59.441,388.657
		c0.371,0,0.645-0.217,0.645-0.792v-0.056c0-0.617-0.294-0.777-0.666-0.777h-0.021v1.625H59.441z M61.344,386.234h0.854v4.903
		h-0.854V386.234z M63.403,386.22h0.911l0.931,4.917H64.39l-0.161-0.974h-0.778l-0.154,0.974H62.47L63.403,386.22z M64.103,389.393
		l-0.259-1.618l-0.266,1.618H64.103z"/>
	<path class="st4" d="M56.654,684.077v-0.89c0.301,0.175,0.54,0.273,0.771,0.273c0.245,0,0.455-0.119,0.455-0.421v-0.014
		c0-0.224-0.07-0.393-0.476-0.854c-0.582-0.658-0.819-0.974-0.819-1.568v-0.015c0-0.784,0.511-1.281,1.19-1.281
		c0.343,0,0.546,0.049,0.756,0.154v0.889c-0.266-0.153-0.427-0.224-0.651-0.224c-0.238,0-0.441,0.154-0.441,0.42v0.015
		c0,0.23,0.07,0.314,0.476,0.784c0.672,0.777,0.819,1.078,0.819,1.639v0.014c0,0.771-0.539,1.282-1.211,1.282
		C57.186,684.28,56.899,684.196,56.654,684.077z M59.02,682.816v-3.474h0.847v3.558c0,0.441,0.154,0.616,0.372,0.616
		c0.217,0,0.371-0.175,0.371-0.616v-3.558h0.847v3.474c0,1.029-0.518,1.492-1.218,1.492C59.538,684.308,59.02,683.845,59.02,682.816
		z M61.946,679.342h0.798l0.861,2.479v-2.479h0.833v4.902h-0.756l-0.903-2.599v2.599h-0.833
		C61.946,684.244,61.946,679.342,61.946,679.342z M66.055,679.342h0.798c1.093,0,1.716,0.791,1.716,2.367v0.168
		c0,1.576-0.624,2.367-1.716,2.367h-0.798V679.342z M66.944,683.46c0.406,0,0.756-0.357,0.756-1.583v-0.168
		c0-1.226-0.35-1.583-0.756-1.583h-0.035v3.334L66.944,683.46L66.944,683.46z M68.988,679.342h1.877v0.812h-1.022v1.219h0.903v0.812
		h-0.903v1.247h1.043v0.812h-1.898C68.988,684.244,68.988,679.342,68.988,679.342z M71.144,681.877v-0.168
		c0-1.723,0.637-2.402,1.436-2.402c0.238,0,0.378,0.028,0.561,0.112v0.882c-0.176-0.104-0.315-0.161-0.477-0.161
		c-0.378,0-0.651,0.337-0.651,1.562v0.182c0,1.296,0.273,1.562,0.665,1.562c0.133,0,0.302-0.049,0.477-0.153v0.84
		c-0.196,0.112-0.386,0.147-0.631,0.147C71.739,684.28,71.144,683.586,71.144,681.877z M73.58,679.342h0.854v2.052l0.693-2.052
		h0.967l-0.827,2.073l0.841,2.829h-0.952l-0.532-1.856l-0.189,0.54v1.316H73.58V679.342z"/>
	<path class="st4" d="M93.432,647.324v-0.89c0.301,0.175,0.539,0.273,0.771,0.273c0.245,0,0.455-0.119,0.455-0.421v-0.014
		c0-0.224-0.07-0.393-0.477-0.854c-0.581-0.658-0.819-0.974-0.819-1.568v-0.015c0-0.784,0.512-1.281,1.191-1.281
		c0.343,0,0.546,0.049,0.756,0.154v0.889c-0.266-0.153-0.427-0.224-0.651-0.224c-0.238,0-0.441,0.154-0.441,0.42v0.015
		c0,0.23,0.07,0.314,0.477,0.784c0.673,0.777,0.819,1.078,0.819,1.639v0.014c0,0.771-0.539,1.282-1.212,1.282
		C93.964,647.527,93.677,647.443,93.432,647.324z M95.812,642.589h0.764c0.932,0,1.583,0.504,1.583,1.652v0.015
		c0,1.106-0.616,1.632-1.485,1.694h-0.007v1.541h-0.854L95.812,642.589L95.812,642.589z M96.673,645.16
		c0.357-0.021,0.631-0.28,0.631-0.876v-0.014c0-0.623-0.238-0.89-0.609-0.89h-0.028v1.779L96.673,645.16L96.673,645.16z
		 M98.507,642.589h0.854v4.09h0.903v0.812h-1.758v-4.902L98.507,642.589L98.507,642.589z M101.258,642.575h0.911l0.931,4.917h-0.854
		l-0.161-0.974h-0.778l-0.153,0.974h-0.827L101.258,642.575z M101.958,645.748l-0.259-1.618l-0.266,1.618H101.958z M103.253,647.324
		v-0.89c0.301,0.175,0.539,0.273,0.771,0.273c0.245,0,0.455-0.119,0.455-0.421v-0.014c0-0.224-0.07-0.393-0.477-0.854
		c-0.581-0.658-0.819-0.974-0.819-1.568v-0.015c0-0.784,0.512-1.281,1.19-1.281c0.344,0,0.547,0.049,0.757,0.154v0.889
		c-0.267-0.153-0.428-0.224-0.651-0.224c-0.238,0-0.441,0.154-0.441,0.42v0.015c0,0.23,0.07,0.314,0.477,0.784
		c0.672,0.777,0.819,1.078,0.819,1.639v0.014c0,0.771-0.54,1.282-1.212,1.282C103.786,647.527,103.499,647.443,103.253,647.324z
		 M105.633,642.589h0.854v2.031h0.742v-2.031h0.854v4.902h-0.854v-2.06h-0.742v2.06h-0.854V642.589z M92.163,648.575h0.91
		l0.932,4.917H93.15l-0.161-0.974h-0.777l-0.154,0.974h-0.826L92.163,648.575z M92.863,651.748l-0.26-1.618l-0.266,1.618H92.863z
		 M94.108,651.125v-0.168c0-1.724,0.638-2.402,1.436-2.402c0.238,0,0.378,0.028,0.561,0.112v0.882
		c-0.175-0.104-0.315-0.161-0.477-0.161c-0.378,0-0.651,0.337-0.651,1.562v0.182c0,1.296,0.273,1.562,0.666,1.562
		c0.133,0,0.301-0.049,0.476-0.153v0.84c-0.196,0.112-0.385,0.147-0.63,0.147C94.704,653.527,94.108,652.833,94.108,651.125z
		 M97.23,648.575h0.911l0.931,4.917h-0.854l-0.16-0.974H97.28l-0.153,0.974H96.3L97.23,648.575z M97.93,651.748l-0.259-1.618
		l-0.266,1.618H97.93z M99.33,648.589h0.799c1.093,0,1.716,0.791,1.716,2.367v0.168c0,1.576-0.623,2.367-1.716,2.367H99.33V648.589z
		 M100.219,652.708c0.406,0,0.757-0.357,0.757-1.583v-0.168c0-1.226-0.351-1.583-0.757-1.583h-0.035v3.334L100.219,652.708
		L100.219,652.708z M102.263,648.589h1.877v0.812h-1.022v1.219h0.903v0.812h-0.903v1.247h1.043v0.812h-1.897L102.263,648.589
		L102.263,648.589z M104.573,648.589h0.848l0.602,1.793l0.603-1.793h0.848v4.902h-0.819v-2.963l-0.623,1.856h-0.015l-0.623-1.856
		v2.963h-0.819v-4.902H104.573z M108.633,651.559l-0.911-2.97h0.883l0.462,1.835l0.47-1.835h0.861l-0.91,2.97v1.933h-0.854
		L108.633,651.559L108.633,651.559z M94.916,657.559l-0.91-2.97h0.882l0.463,1.835l0.469-1.835h0.861l-0.91,2.97v1.933h-0.854
		L94.916,657.559L94.916,657.559z M96.708,657.167v-0.252c0-1.618,0.525-2.396,1.303-2.396s1.303,0.777,1.303,2.396v0.252
		c0,1.618-0.525,2.396-1.303,2.396S96.708,658.785,96.708,657.167z M98.445,657.167v-0.252c0-1.261-0.175-1.611-0.434-1.611
		c-0.26,0-0.435,0.351-0.435,1.611v0.252c0,1.261,0.175,1.61,0.435,1.61C98.27,658.777,98.445,658.427,98.445,657.167z
		 M99.718,658.063v-3.474h0.848v3.558c0,0.441,0.154,0.616,0.371,0.616s0.371-0.175,0.371-0.616v-3.558h0.848v3.474
		c0,1.029-0.519,1.492-1.219,1.492S99.718,659.092,99.718,658.063z M103.099,655.402h-0.602v-0.812h2.059v0.812h-0.603v4.09h-0.854
		C103.099,659.492,103.099,655.402,103.099,655.402z M104.912,654.589h0.854v2.031h0.743v-2.031h0.854v4.902h-0.854v-2.06h-0.743
		v2.06h-0.854V654.589z M93.467,663.125v-0.168c0-1.724,0.638-2.402,1.436-2.402c0.238,0,0.379,0.028,0.561,0.112v0.882
		c-0.175-0.104-0.315-0.161-0.477-0.161c-0.378,0-0.651,0.337-0.651,1.562v0.182c0,1.296,0.273,1.562,0.666,1.562
		c0.133,0,0.301-0.049,0.476-0.153v0.84c-0.195,0.112-0.385,0.147-0.63,0.147C94.063,665.527,93.467,664.833,93.467,663.125z
		 M95.904,660.589h1.877v0.812h-1.022v1.219h0.903v0.812h-0.903v1.247h1.043v0.812h-1.897L95.904,660.589L95.904,660.589z
		 M98.213,660.589h0.798l0.862,2.479v-2.479h0.833v4.902H99.95l-0.904-2.599v2.599h-0.833V660.589z M101.665,661.402h-0.603v-0.812
		h2.06v0.812h-0.603v4.09h-0.854C101.665,665.492,101.665,661.402,101.665,661.402z M103.477,660.589h1.877v0.812h-1.022v1.219
		h0.903v0.812h-0.903v1.247h1.044v0.812h-1.898L103.477,660.589L103.477,660.589z M105.787,660.589h0.883
		c0.876,0,1.513,0.462,1.513,1.562v0.063c0,0.637-0.252,1.043-0.574,1.288l0.658,1.989h-0.91l-0.554-1.709h-0.161v1.709h-0.854
		L105.787,660.589L105.787,660.589z M106.683,663.012c0.372,0,0.645-0.217,0.645-0.791v-0.057c0-0.616-0.294-0.777-0.665-0.777
		h-0.021v1.625H106.683z"/>
	<path class="st4" d="M23.17,647.324v-0.89c0.301,0.175,0.54,0.273,0.771,0.273c0.245,0,0.455-0.119,0.455-0.421v-0.014
		c0-0.224-0.07-0.393-0.476-0.854c-0.582-0.658-0.819-0.974-0.819-1.568v-0.015c0-0.784,0.511-1.281,1.19-1.281
		c0.343,0,0.546,0.049,0.756,0.154v0.889c-0.266-0.153-0.427-0.224-0.651-0.224c-0.238,0-0.441,0.154-0.441,0.42v0.015
		c0,0.23,0.07,0.314,0.476,0.784c0.672,0.777,0.819,1.078,0.819,1.639v0.014c0,0.771-0.539,1.282-1.211,1.282
		C23.703,647.527,23.416,647.443,23.17,647.324z M25.55,642.589h0.764c0.932,0,1.583,0.504,1.583,1.652v0.015
		c0,1.106-0.617,1.632-1.485,1.694h-0.007v1.541H25.55V642.589z M26.412,645.16c0.357-0.021,0.63-0.28,0.63-0.876v-0.014
		c0-0.623-0.238-0.89-0.609-0.89h-0.028v1.779L26.412,645.16L26.412,645.16z M28.246,642.589H29.1v4.09h0.903v0.812h-1.758
		L28.246,642.589L28.246,642.589z M30.997,642.575h0.91l0.932,4.917h-0.854l-0.161-0.974h-0.777l-0.154,0.974h-0.826L30.997,642.575
		z M31.697,645.748l-0.259-1.618l-0.266,1.618H31.697z M32.991,647.324v-0.89c0.301,0.175,0.54,0.273,0.771,0.273
		c0.245,0,0.456-0.119,0.456-0.421v-0.014c0-0.224-0.07-0.393-0.477-0.854c-0.581-0.658-0.819-0.974-0.819-1.568v-0.015
		c0-0.784,0.511-1.281,1.19-1.281c0.343,0,0.546,0.049,0.756,0.154v0.889c-0.266-0.153-0.427-0.224-0.651-0.224
		c-0.238,0-0.441,0.154-0.441,0.42v0.015c0,0.23,0.07,0.314,0.476,0.784c0.672,0.777,0.819,1.078,0.819,1.639v0.014
		c0,0.771-0.539,1.282-1.211,1.282C33.523,647.527,33.236,647.443,32.991,647.324z M35.372,642.589h0.854v2.031h0.742v-2.031h0.854
		v4.902h-0.854v-2.06h-0.742v2.06h-0.854V642.589z M21.9,648.575h0.911l0.932,4.917h-0.854l-0.161-0.974H21.95l-0.154,0.974H20.97
		L21.9,648.575z M22.601,651.748l-0.259-1.618l-0.266,1.618H22.601z M23.846,651.125v-0.168c0-1.724,0.637-2.402,1.436-2.402
		c0.238,0,0.378,0.028,0.561,0.112v0.882c-0.175-0.104-0.315-0.161-0.477-0.161c-0.378,0-0.651,0.337-0.651,1.562v0.182
		c0,1.296,0.273,1.562,0.666,1.562c0.133,0,0.301-0.049,0.476-0.153v0.84c-0.196,0.112-0.385,0.147-0.63,0.147
		C24.441,653.527,23.846,652.833,23.846,651.125z M26.968,648.575h0.911l0.932,4.917h-0.854l-0.161-0.974h-0.777l-0.154,0.974
		h-0.826L26.968,648.575z M27.669,651.748l-0.259-1.618l-0.266,1.618H27.669z M29.068,648.589h0.799
		c1.092,0,1.716,0.791,1.716,2.367v0.168c0,1.576-0.624,2.367-1.716,2.367h-0.799V648.589z M29.957,652.708
		c0.406,0,0.756-0.357,0.756-1.583v-0.168c0-1.226-0.35-1.583-0.756-1.583h-0.035v3.334L29.957,652.708L29.957,652.708z
		 M32.001,648.589h1.877v0.812h-1.022v1.219h0.903v0.812h-0.903v1.247h1.043v0.812h-1.898V648.589z M34.311,648.589h0.847
		l0.603,1.793l0.603-1.793h0.847v4.902h-0.819v-2.963l-0.624,1.856h-0.014l-0.624-1.856v2.963h-0.819V648.589z M38.371,651.559
		l-0.91-2.97h0.882l0.462,1.835l0.469-1.835h0.861l-0.911,2.97v1.933H38.37L38.371,651.559L38.371,651.559z M24.655,657.559
		l-0.91-2.97h0.882l0.462,1.835l0.469-1.835h0.861l-0.911,2.97v1.933h-0.854L24.655,657.559L24.655,657.559z M26.447,657.167v-0.252
		c0-1.618,0.525-2.396,1.302-2.396c0.778,0,1.303,0.777,1.303,2.396v0.252c0,1.618-0.525,2.396-1.303,2.396
		C26.972,659.562,26.447,658.785,26.447,657.167z M28.184,657.167v-0.252c0-1.261-0.175-1.611-0.435-1.611
		c-0.259,0-0.434,0.351-0.434,1.611v0.252c0,1.261,0.175,1.61,0.434,1.61C28.008,658.777,28.184,658.427,28.184,657.167z
		 M29.457,658.063v-3.474h0.848v3.558c0,0.441,0.154,0.616,0.371,0.616c0.217,0,0.371-0.175,0.371-0.616v-3.558h0.848v3.474
		c0,1.029-0.519,1.492-1.219,1.492C29.975,659.555,29.457,659.092,29.457,658.063z M32.838,655.402h-0.603v-0.812h2.059v0.812
		h-0.602v4.09h-0.854C32.838,659.492,32.838,655.402,32.838,655.402z M34.65,654.589h0.854v2.031h0.742v-2.031H37.1v4.902h-0.854
		v-2.06h-0.742v2.06H34.65V654.589z M23.206,663.125v-0.168c0-1.724,0.637-2.402,1.436-2.402c0.238,0,0.378,0.028,0.56,0.112v0.882
		c-0.175-0.104-0.315-0.161-0.476-0.161c-0.378,0-0.651,0.337-0.651,1.562v0.182c0,1.296,0.273,1.562,0.665,1.562
		c0.133,0,0.301-0.049,0.477-0.153v0.84c-0.196,0.112-0.385,0.147-0.63,0.147C23.801,665.527,23.206,664.833,23.206,663.125z
		 M25.642,660.589h1.877v0.812h-1.022v1.219H27.4v0.812h-0.903v1.247h1.043v0.812h-1.898
		C25.642,665.491,25.642,660.589,25.642,660.589z M27.952,660.589h0.798l0.861,2.479v-2.479h0.833v4.902h-0.756l-0.903-2.599v2.599
		h-0.833V660.589z M31.403,661.402H30.8v-0.812h2.059v0.812h-0.602v4.09h-0.854V661.402z M33.215,660.589h1.877v0.812H34.07v1.219
		h0.903v0.812H34.07v1.247h1.043v0.812h-1.898V660.589z M35.525,660.589h0.882c0.875,0,1.513,0.462,1.513,1.562v0.063
		c0,0.637-0.252,1.043-0.574,1.288l0.659,1.989h-0.911l-0.553-1.709H36.38v1.709h-0.854L35.525,660.589L35.525,660.589z
		 M36.422,663.012c0.371,0,0.645-0.217,0.645-0.791v-0.057c0-0.616-0.294-0.777-0.666-0.777H36.38v1.625H36.422z"/>
	<path class="st4" d="M57.023,710.221h0.854v2.031h0.742v-2.031h0.854v4.902H58.62v-2.06h-0.742v2.06h-0.854L57.023,710.221
		L57.023,710.221z M59.977,710.221h1.877v0.812h-1.022v1.219h0.904v0.812h-0.904v1.247h1.043v0.812h-1.898V710.221z M62.287,710.221
		h0.854v4.09h0.903v0.812h-1.758L62.287,710.221L62.287,710.221z M64.4,710.221h0.854v4.902H64.4V710.221z M65.772,710.221h0.764
		c0.931,0,1.583,0.504,1.583,1.652v0.015c0,1.106-0.616,1.632-1.485,1.694h-0.007v1.541h-0.854L65.772,710.221L65.772,710.221z
		 M66.634,712.792c0.357-0.021,0.63-0.28,0.63-0.876v-0.014c0-0.623-0.238-0.89-0.609-0.89h-0.028v1.779L66.634,712.792
		L66.634,712.792z M68.909,710.207h0.91l0.932,4.917h-0.854l-0.161-0.974h-0.777l-0.154,0.974h-0.826L68.909,710.207z
		 M69.609,713.379l-0.259-1.617l-0.266,1.617H69.609z M71.008,710.221h0.799c1.093,0,1.716,0.791,1.716,2.367v0.168
		c0,1.576-0.623,2.367-1.716,2.367h-0.799V710.221z M71.898,714.339c0.406,0,0.757-0.357,0.757-1.583v-0.168
		c0-1.226-0.351-1.583-0.757-1.583h-0.035v3.334L71.898,714.339L71.898,714.339z"/>
	<path class="st4" d="M49.865,417.097h0.882c0.875,0,1.513,0.462,1.513,1.562v0.063c0,0.637-0.252,1.043-0.574,1.289L52.344,422
		h-0.91l-0.553-1.709H50.72V422h-0.854L49.865,417.097L49.865,417.097z M50.762,419.521c0.371,0,0.644-0.217,0.644-0.792v-0.056
		c0-0.617-0.294-0.777-0.665-0.777H50.72v1.625H50.762z M52.651,417.097h0.883c0.875,0,1.513,0.462,1.513,1.562v0.063
		c0,0.637-0.252,1.043-0.574,1.289L55.13,422h-0.91l-0.553-1.709h-0.161V422h-0.854L52.651,417.097L52.651,417.097z M53.547,419.521
		c0.372,0,0.645-0.217,0.645-0.792v-0.056c0-0.617-0.294-0.777-0.666-0.777h-0.021v1.625H53.547z"/>
	<path class="st4" d="M75.97,417.096h0.883c0.875,0,1.513,0.462,1.513,1.562v0.063c0,0.637-0.252,1.043-0.574,1.289l0.658,1.989
		h-0.91l-0.554-1.709h-0.161v1.709H75.97V417.096z M76.867,419.52c0.371,0,0.645-0.217,0.645-0.792v-0.056
		c0-0.617-0.294-0.777-0.665-0.777h-0.021v1.625H76.867z M78.756,417.096h0.883c0.875,0,1.513,0.462,1.513,1.562v0.063
		c0,0.637-0.252,1.043-0.574,1.289l0.658,1.989h-0.91l-0.554-1.709h-0.161v1.709h-0.854L78.756,417.096L78.756,417.096z
		 M79.653,419.52c0.371,0,0.645-0.217,0.645-0.792v-0.056c0-0.617-0.294-0.777-0.665-0.777h-0.021v1.625H79.653z"/>
	<path class="st4" d="M90.459,412.709h0.883c0.876,0,1.513,0.462,1.513,1.562v0.063c0,0.637-0.252,1.043-0.574,1.289l0.658,1.989
		h-0.91l-0.554-1.709h-0.161v1.709H90.46L90.459,412.709L90.459,412.709z M91.356,415.132c0.371,0,0.645-0.217,0.645-0.792v-0.056
		c0-0.617-0.294-0.777-0.665-0.777h-0.021v1.625H91.356z M93.246,412.709h0.883c0.875,0,1.513,0.462,1.513,1.562v0.063
		c0,0.637-0.252,1.043-0.574,1.289l0.658,1.989h-0.91l-0.554-1.709H94.1v1.709h-0.854V412.709z M94.142,415.132
		c0.371,0,0.645-0.217,0.645-0.792v-0.056c0-0.617-0.294-0.777-0.665-0.777H94.1v1.625H94.142z"/>
	<path class="st4" d="M52.649,450.024v-0.252c0-1.618,0.525-2.396,1.303-2.396s1.303,0.777,1.303,2.396v0.252
		c0,1.618-0.525,2.396-1.303,2.396S52.649,451.642,52.649,450.024z M54.386,450.024v-0.252c0-1.261-0.175-1.611-0.434-1.611
		s-0.434,0.351-0.434,1.611v0.252c0,1.261,0.175,1.61,0.434,1.61S54.386,451.285,54.386,450.024z M55.673,447.447h0.764
		c0.932,0,1.583,0.504,1.583,1.652v0.015c0,1.106-0.617,1.632-1.485,1.694h-0.007v1.541h-0.854L55.673,447.447L55.673,447.447z
		 M56.535,450.017c0.357-0.021,0.63-0.28,0.63-0.876v-0.014c0-0.623-0.238-0.89-0.609-0.89h-0.028v1.779h0.007V450.017z
		 M58.368,447.447h1.877v0.812h-1.023v1.219h0.904v0.812h-0.904v1.247h1.044v0.812h-1.898V447.447z M60.678,447.447h0.799
		l0.861,2.479v-2.479h0.833v4.902h-0.756l-0.904-2.599v2.599h-0.833V447.447z M65.243,448.259H64.64v-0.812h2.059v0.812h-0.602v4.09
		h-0.854C65.243,452.349,65.243,448.259,65.243,448.259z M66.831,450.024v-0.252c0-1.618,0.525-2.396,1.303-2.396
		s1.303,0.777,1.303,2.396v0.252c0,1.618-0.525,2.396-1.303,2.396S66.831,451.642,66.831,450.024z M68.568,450.024v-0.252
		c0-1.261-0.175-1.611-0.434-1.611s-0.434,0.351-0.434,1.611v0.252c0,1.261,0.175,1.61,0.434,1.61S68.568,451.285,68.568,450.024z
		 M70.968,447.447h0.799c1.092,0,1.716,0.791,1.716,2.367v0.168c0,1.576-0.624,2.367-1.716,2.367h-0.799V447.447z M71.858,451.565
		c0.406,0,0.757-0.357,0.757-1.583v-0.168c0-1.226-0.351-1.583-0.757-1.583h-0.035v3.334H71.858z M73.901,447.447h1.877v0.812
		h-1.022v1.219h0.904v0.812h-0.904v1.247H75.8v0.812h-1.898L73.901,447.447L73.901,447.447z M76.057,449.982v-0.168
		c0-1.723,0.638-2.402,1.437-2.402c0.237,0,0.377,0.028,0.56,0.112v0.882c-0.175-0.104-0.315-0.161-0.476-0.161
		c-0.379,0-0.652,0.337-0.652,1.562v0.182c0,1.296,0.273,1.562,0.666,1.562c0.133,0,0.301-0.049,0.477-0.153v0.84
		c-0.197,0.112-0.386,0.147-0.631,0.147C76.652,452.384,76.057,451.691,76.057,449.982z M78.494,447.447h0.854v2.052l0.693-2.052
		h0.967l-0.826,2.073l0.84,2.829H80.07l-0.533-1.856l-0.189,0.54v1.316h-0.854V447.447z M60.02,453.447h0.743
		c0.826,0,1.597,0.336,1.597,1.246v0.035c0,0.631-0.357,0.938-0.708,1.106c0.414,0.183,0.771,0.47,0.771,1.093v0.063
		c0,0.868-0.672,1.358-1.625,1.358H60.02V453.447z M60.889,455.505c0.378,0,0.63-0.217,0.63-0.645v-0.014
		c0-0.427-0.252-0.609-0.63-0.609h-0.014v1.268H60.889z M60.896,457.558c0.393,0,0.672-0.231,0.672-0.638v-0.035
		c0-0.406-0.28-0.638-0.672-0.638h-0.021v1.311H60.896z M62.778,453.447h1.877v0.812h-1.023v1.219h0.904v0.812h-0.904v1.247h1.044
		v0.812h-1.898C62.778,458.349,62.778,453.447,62.778,453.447z M65.088,453.447h0.854v4.09h0.904v0.812h-1.758
		C65.088,458.349,65.088,453.447,65.088,453.447z M66.929,456.024v-0.252c0-1.618,0.525-2.396,1.303-2.396s1.303,0.777,1.303,2.396
		v0.252c0,1.618-0.525,2.396-1.303,2.396S66.929,457.642,66.929,456.024z M68.666,456.024v-0.252c0-1.261-0.175-1.611-0.435-1.611
		s-0.434,0.351-0.434,1.611v0.252c0,1.261,0.175,1.61,0.434,1.61S68.666,457.285,68.666,456.024z M69.652,453.447h0.875l0.357,3.004
		l0.427-3.004h0.791l0.421,3.004l0.364-3.004h0.854l-0.743,4.916h-0.896l-0.406-2.906l-0.406,2.906h-0.896L69.652,453.447z"/>
	<path class="st4" d="M13.218,630.461h-1.016c0.2-0.344,0.312-0.615,0.312-0.88c0-0.279-0.136-0.52-0.479-0.52h-0.016
		c-0.256,0-0.448,0.08-0.976,0.544c-0.751,0.664-1.111,0.936-1.791,0.936H9.236c-0.896,0-1.463-0.584-1.463-1.359
		c0-0.392,0.056-0.624,0.176-0.863h1.016c-0.176,0.304-0.256,0.487-0.256,0.743c0,0.272,0.176,0.504,0.479,0.504h0.016
		c0.264,0,0.36-0.08,0.896-0.544c0.887-0.768,1.231-0.936,1.871-0.936h0.016c0.879,0,1.463,0.616,1.463,1.384
		C13.45,629.854,13.353,630.182,13.218,630.461z M7.813,627.742v-0.872c0-1.062,0.575-1.807,1.887-1.807h0.016
		c1.263,0,1.863,0.704,1.935,1.695v0.008h1.759v0.976H7.813z M10.747,626.758c-0.024-0.408-0.32-0.72-1-0.72H9.732
		c-0.712,0-1.016,0.271-1.016,0.695v0.032h2.031C10.747,626.765,10.747,626.758,10.747,626.758z M10.755,624.757h-0.288
		c-1.847,0-2.734-0.6-2.734-1.487s0.887-1.486,2.734-1.486h0.288c1.847,0,2.734,0.6,2.734,1.486
		C13.49,624.158,12.602,624.757,10.755,624.757z M10.755,622.775h-0.288c-1.439,0-1.839,0.199-1.839,0.495s0.399,0.496,1.839,0.496
		h0.288c1.439,0,1.839-0.2,1.839-0.496S12.194,622.775,10.755,622.775z M7.813,621.301v-1.007c0-1,0.527-1.728,1.783-1.728h0.072
		c0.728,0,1.191,0.288,1.472,0.656l2.271-0.752v1.039l-1.951,0.632v0.185h1.951v0.975L7.813,621.301L7.813,621.301z M10.579,620.278
		c0-0.424-0.248-0.735-0.903-0.735H9.612c-0.704,0-0.888,0.336-0.888,0.76v0.024h1.855V620.278z M8.74,617.678v0.688H7.813v-2.351
		H8.74v0.688h4.669v0.976L8.74,617.678L8.74,617.678z M13.218,615.726h-1.016c0.2-0.345,0.312-0.616,0.312-0.88
		c0-0.28-0.136-0.52-0.479-0.52h-0.016c-0.256,0-0.448,0.08-0.976,0.543c-0.751,0.664-1.111,0.936-1.791,0.936H9.236
		c-0.896,0-1.463-0.583-1.463-1.358c0-0.393,0.056-0.624,0.176-0.864h1.016c-0.176,0.304-0.256,0.488-0.256,0.744
		c0,0.271,0.176,0.504,0.479,0.504h0.016c0.264,0,0.36-0.08,0.896-0.544c0.887-0.768,1.231-0.936,1.871-0.936h0.016
		c0.879,0,1.463,0.615,1.463,1.383C13.45,615.118,13.353,615.446,13.218,615.726z M7.813,611.734v-0.911
		c0-1.248,0.903-1.959,2.702-1.959h0.192c1.799,0,2.703,0.711,2.703,1.959v0.911H7.813z M12.514,610.718
		c0-0.464-0.408-0.863-1.807-0.863h-0.192c-1.399,0-1.807,0.399-1.807,0.863v0.04h3.806
		C12.514,610.758,12.514,610.718,12.514,610.718z M7.813,608.381v-2.143H8.74v1.168h1.391v-1.032h0.928v1.032h1.423v-1.191h0.928
		v2.166L7.813,608.381L7.813,608.381z M10.707,605.917h-0.192c-1.967,0-2.742-0.728-2.742-1.639c0-0.271,0.032-0.432,0.128-0.64
		h1.007c-0.12,0.2-0.184,0.359-0.184,0.544c0,0.432,0.384,0.743,1.783,0.743h0.208c1.479,0,1.783-0.312,1.783-0.76
		c0-0.151-0.056-0.344-0.176-0.543h0.959c0.128,0.224,0.168,0.439,0.168,0.719C13.45,605.238,12.658,605.917,10.707,605.917z
		 M7.813,603.134v-0.976h2.342l-2.342-0.792v-1.104l2.366,0.943l3.23-0.959v1.087l-2.119,0.608l0.616,0.216h1.503v0.976H7.813
		V603.134z"/>
	<path class="st4" d="M6.431,405.947H5.583c0.049-0.133,0.084-0.266,0.084-0.406c0-0.273-0.147-0.441-0.504-0.441H1.556v-0.868h3.67
		c0.869,0,1.275,0.455,1.275,1.177C6.501,405.625,6.466,405.793,6.431,405.947z M4.134,403.826H3.881
		c-1.618,0-2.395-0.525-2.395-1.303s0.777-1.303,2.395-1.303h0.252c1.618,0,2.395,0.525,2.395,1.303S5.751,403.826,4.134,403.826z
		 M4.134,402.089H3.881c-1.26,0-1.611,0.175-1.611,0.434s0.351,0.435,1.611,0.435h0.252c1.261,0,1.611-0.175,1.611-0.435
		C5.745,402.264,5.395,402.089,4.134,402.089z M4.092,400.886H3.924c-1.583,0-2.402-0.672-2.402-1.639
		c0-0.259,0.056-0.477,0.14-0.651h0.889c-0.126,0.21-0.21,0.399-0.21,0.623c0,0.49,0.49,0.798,1.548,0.798h0.238
		c1.281,0,1.576-0.378,1.576-0.728c0-0.028,0-0.035-0.007-0.077H4.442v0.42H3.679v-1.198h2.605c0.133,0.308,0.21,0.56,0.21,0.889
		C6.494,400.178,5.801,400.886,4.092,400.886z M4.092,398.051H3.924c-1.583,0-2.402-0.672-2.402-1.639
		c0-0.259,0.056-0.477,0.14-0.651h0.889c-0.126,0.21-0.21,0.399-0.21,0.623c0,0.49,0.49,0.798,1.548,0.798h0.238
		c1.281,0,1.576-0.378,1.576-0.728c0-0.028,0-0.035-0.007-0.077H4.442v0.42H3.679V395.6h2.605c0.133,0.308,0.21,0.56,0.21,0.889
		C6.494,397.343,5.801,398.051,4.092,398.051z M1.556,395.118v-0.854h4.903v0.854H1.556z M1.556,393.746v-0.798l2.479-0.861H1.556
		v-0.833h4.903v0.756l-2.599,0.903h2.599v0.833L1.556,393.746L1.556,393.746z M4.092,390.834H3.924
		c-1.583,0-2.402-0.672-2.402-1.639c0-0.259,0.056-0.476,0.14-0.651h0.889c-0.126,0.21-0.21,0.399-0.21,0.624
		c0,0.49,0.49,0.798,1.548,0.798h0.238c1.281,0,1.576-0.378,1.576-0.729c0-0.028,0-0.035-0.007-0.077H4.442v0.42H3.679v-1.198h2.605
		c0.133,0.309,0.21,0.561,0.21,0.89C6.494,390.126,5.801,390.834,4.092,390.834z M2.369,386.347v0.602H1.556v-2.059h0.813v0.603
		h4.09v0.854H2.369z M1.556,384.534v-0.882c0-0.875,0.462-1.513,1.562-1.513h0.063c0.637,0,1.043,0.252,1.289,0.574l1.989-0.658
		v0.91l-1.709,0.554v0.161h1.709v0.854L1.556,384.534L1.556,384.534z M3.979,383.637c0-0.371-0.217-0.644-0.792-0.644H3.132
		c-0.617,0-0.777,0.294-0.777,0.665v0.021H3.98L3.979,383.637L3.979,383.637z M1.542,381.062v-0.911l4.917-0.931v0.854l-0.974,0.161
		v0.777l0.974,0.154v0.827L1.542,381.062z M4.715,380.361l-1.618,0.259l1.618,0.266V380.361z M4.092,379.116H3.924
		c-1.723,0-2.402-0.638-2.402-1.436c0-0.238,0.028-0.378,0.112-0.56h0.882c-0.105,0.175-0.161,0.315-0.161,0.476
		c0,0.378,0.336,0.651,1.562,0.651h0.182c1.296,0,1.562-0.273,1.562-0.666c0-0.133-0.049-0.301-0.154-0.476h0.841
		c0.112,0.196,0.147,0.385,0.147,0.63C6.494,378.521,5.801,379.116,4.092,379.116z M1.556,376.68v-0.854h2.052l-2.052-0.693v-0.967
		l2.073,0.827l2.83-0.841v0.953l-1.856,0.532l0.539,0.189h1.317v0.854H1.556z"/>
	<path class="st4" d="M129.401,405.947h-0.847c0.049-0.133,0.084-0.266,0.084-0.406c0-0.273-0.147-0.441-0.505-0.441h-3.606v-0.868
		h3.67c0.868,0,1.274,0.455,1.274,1.177C129.471,405.625,129.436,405.793,129.401,405.947z M127.104,403.826h-0.252
		c-1.618,0-2.396-0.525-2.396-1.303s0.777-1.303,2.396-1.303h0.252c1.618,0,2.396,0.525,2.396,1.303
		S128.722,403.826,127.104,403.826z M127.104,402.089h-0.252c-1.261,0-1.611,0.175-1.611,0.434s0.351,0.435,1.611,0.435h0.252
		c1.261,0,1.61-0.175,1.61-0.435C128.714,402.264,128.365,402.089,127.104,402.089z M127.062,400.886h-0.168
		c-1.583,0-2.402-0.672-2.402-1.639c0-0.259,0.056-0.477,0.14-0.651h0.89c-0.126,0.21-0.21,0.399-0.21,0.623
		c0,0.49,0.49,0.798,1.548,0.798h0.238c1.281,0,1.575-0.378,1.575-0.728c0-0.028,0-0.035-0.007-0.077h-1.254v0.42h-0.763v-1.198
		h2.605c0.133,0.308,0.21,0.56,0.21,0.889C129.464,400.178,128.771,400.886,127.062,400.886z M127.062,398.051h-0.168
		c-1.583,0-2.402-0.672-2.402-1.639c0-0.259,0.056-0.477,0.14-0.651h0.89c-0.126,0.21-0.21,0.399-0.21,0.623
		c0,0.49,0.49,0.798,1.548,0.798h0.238c1.281,0,1.575-0.378,1.575-0.728c0-0.028,0-0.035-0.007-0.077h-1.254v0.42h-0.763V395.6
		h2.605c0.133,0.308,0.21,0.56,0.21,0.889C129.464,397.343,128.771,398.051,127.062,398.051z M124.527,395.118v-0.854h4.902v0.854
		H124.527z M124.527,393.746v-0.798l2.479-0.861h-2.479v-0.833h4.902v0.756l-2.599,0.903h2.599v0.833L124.527,393.746
		L124.527,393.746z M127.062,390.834h-0.168c-1.583,0-2.402-0.672-2.402-1.639c0-0.259,0.056-0.476,0.14-0.651h0.89
		c-0.126,0.21-0.21,0.399-0.21,0.624c0,0.49,0.49,0.798,1.548,0.798h0.238c1.281,0,1.575-0.378,1.575-0.729
		c0-0.028,0-0.035-0.007-0.077h-1.254v0.42h-0.763v-1.198h2.605c0.133,0.309,0.21,0.561,0.21,0.89
		C129.464,390.126,128.771,390.834,127.062,390.834z M125.339,386.347v0.602h-0.812v-2.059h0.812v0.603h4.09v0.854H125.339z
		 M124.527,384.534v-0.882c0-0.875,0.462-1.513,1.562-1.513h0.063c0.637,0,1.043,0.252,1.288,0.574l1.989-0.658v0.91l-1.709,0.554
		v0.161h1.709v0.854L124.527,384.534L124.527,384.534z M126.95,383.637c0-0.371-0.217-0.644-0.791-0.644h-0.057
		c-0.616,0-0.777,0.294-0.777,0.665v0.021h1.625V383.637z M124.512,381.062v-0.911l4.917-0.931v0.854l-0.974,0.161v0.777
		l0.974,0.154v0.827L124.512,381.062z M127.685,380.361l-1.617,0.259l1.617,0.266V380.361z M127.062,379.116h-0.168
		c-1.723,0-2.402-0.638-2.402-1.436c0-0.238,0.028-0.378,0.112-0.56h0.882c-0.104,0.175-0.161,0.315-0.161,0.476
		c0,0.378,0.337,0.651,1.562,0.651h0.182c1.296,0,1.562-0.273,1.562-0.666c0-0.133-0.049-0.301-0.153-0.476h0.84
		c0.112,0.196,0.147,0.385,0.147,0.63C129.464,378.521,128.771,379.116,127.062,379.116z M124.527,376.68v-0.854h2.052l-2.052-0.693
		v-0.967l2.073,0.827l2.829-0.841v0.953l-1.856,0.532l0.54,0.189h1.316v0.854H124.527z"/>
	<path class="st4" d="M54.495,14.189v-1.016c0.344,0.2,0.616,0.312,0.88,0.312c0.28,0,0.52-0.136,0.52-0.479V12.99
		c0-0.256-0.08-0.448-0.543-0.976c-0.664-0.751-0.936-1.111-0.936-1.791v-0.016c0-0.896,0.583-1.463,1.359-1.463
		c0.392,0,0.624,0.056,0.864,0.176v1.016C56.334,9.76,56.15,9.68,55.894,9.68c-0.272,0-0.504,0.176-0.504,0.479v0.016
		c0,0.264,0.08,0.36,0.544,0.896c0.768,0.887,0.936,1.231,0.936,1.871v0.016c0,0.879-0.616,1.463-1.383,1.463
		C55.103,14.421,54.775,14.325,54.495,14.189z M57.199,12.751V8.785h0.968v4.062c0,0.504,0.176,0.704,0.423,0.704
		c0.248,0,0.424-0.2,0.424-0.704V8.785h0.968v3.966c0,1.175-0.592,1.703-1.392,1.703C57.791,14.453,57.199,13.926,57.199,12.751z
		 M60.542,8.785h0.912l0.983,2.83v-2.83h0.952v5.597h-0.864l-1.031-2.966v2.966h-0.952C60.542,14.382,60.542,8.785,60.542,8.785z
		 M65.239,8.785h0.911c1.248,0,1.959,0.903,1.959,2.702v0.192c0,1.799-0.711,2.703-1.959,2.703h-0.911V8.785z M66.254,13.486
		c0.464,0,0.864-0.408,0.864-1.807v-0.192c0-1.399-0.4-1.807-0.864-1.807h-0.04v3.806C66.214,13.486,66.254,13.486,66.254,13.486z
		 M68.59,8.785h2.143v0.927h-1.167v1.391h1.031v0.928h-1.031v1.423h1.191v0.928H68.59V8.785z M71.055,11.679v-0.192
		c0-1.967,0.728-2.742,1.639-2.742c0.271,0,0.432,0.032,0.64,0.128V9.88c-0.2-0.12-0.36-0.184-0.544-0.184
		c-0.432,0-0.743,0.384-0.743,1.783v0.208c0,1.479,0.312,1.783,0.759,1.783c0.152,0,0.344-0.056,0.544-0.176v0.959
		c-0.224,0.128-0.439,0.168-0.72,0.168C71.734,14.421,71.055,13.63,71.055,11.679z M73.838,8.785h0.976v2.342l0.791-2.342h1.104
		l-0.943,2.366l0.96,3.23h-1.088l-0.607-2.119l-0.216,0.616v1.503h-0.976L73.838,8.785L73.838,8.785z"/>
	<path class="st4" d="M122.384,630.461h-1.015c0.199-0.344,0.312-0.615,0.312-0.88c0-0.279-0.136-0.52-0.479-0.52h-0.017
		c-0.256,0-0.447,0.08-0.975,0.544c-0.752,0.664-1.112,0.936-1.791,0.936h-0.017c-0.896,0-1.463-0.584-1.463-1.359
		c0-0.392,0.056-0.624,0.176-0.863h1.016c-0.176,0.304-0.256,0.487-0.256,0.743c0,0.272,0.176,0.504,0.479,0.504h0.016
		c0.265,0,0.36-0.08,0.896-0.544c0.888-0.768,1.231-0.936,1.871-0.936h0.017c0.879,0,1.463,0.616,1.463,1.384
		C122.617,629.854,122.521,630.182,122.384,630.461z M116.98,627.742v-0.872c0-1.062,0.575-1.807,1.887-1.807h0.016
		c1.264,0,1.863,0.704,1.936,1.695v0.008h1.759v0.976H116.98z M119.915,626.758c-0.024-0.408-0.32-0.72-1-0.72h-0.016
		c-0.712,0-1.016,0.271-1.016,0.695v0.032h2.031L119.915,626.758L119.915,626.758z M119.922,624.757h-0.288
		c-1.847,0-2.734-0.6-2.734-1.487s0.888-1.486,2.734-1.486h0.288c1.847,0,2.734,0.6,2.734,1.486
		C122.657,624.158,121.769,624.757,119.922,624.757z M119.922,622.775h-0.288c-1.439,0-1.839,0.199-1.839,0.495
		s0.399,0.496,1.839,0.496h0.288c1.438,0,1.839-0.2,1.839-0.496S121.361,622.775,119.922,622.775z M116.98,621.301v-1.007
		c0-1,0.527-1.728,1.783-1.728h0.071c0.728,0,1.191,0.288,1.472,0.656l2.271-0.752v1.039l-1.951,0.632v0.185h1.951v0.975
		L116.98,621.301L116.98,621.301z M119.747,620.278c0-0.424-0.248-0.735-0.904-0.735h-0.063c-0.704,0-0.888,0.336-0.888,0.76v0.024
		h1.855V620.278z M117.908,617.678v0.688h-0.928v-2.351h0.928v0.688h4.669v0.976L117.908,617.678L117.908,617.678z M122.384,615.726
		h-1.015c0.199-0.345,0.312-0.616,0.312-0.88c0-0.28-0.136-0.52-0.479-0.52h-0.017c-0.256,0-0.447,0.08-0.975,0.543
		c-0.752,0.664-1.112,0.936-1.791,0.936h-0.017c-0.896,0-1.463-0.583-1.463-1.358c0-0.393,0.056-0.624,0.176-0.864h1.016
		c-0.176,0.304-0.256,0.488-0.256,0.744c0,0.271,0.176,0.504,0.479,0.504h0.016c0.265,0,0.36-0.08,0.896-0.544
		c0.888-0.768,1.231-0.936,1.871-0.936h0.017c0.879,0,1.463,0.615,1.463,1.383C122.617,615.118,122.521,615.446,122.384,615.726z
		 M116.98,611.734v-0.911c0-1.248,0.903-1.959,2.702-1.959h0.192c1.799,0,2.702,0.711,2.702,1.959v0.911H116.98z M121.681,610.718
		c0-0.464-0.408-0.863-1.807-0.863h-0.192c-1.399,0-1.807,0.399-1.807,0.863v0.04h3.806V610.718z M116.98,608.381v-2.143h0.928
		v1.168h1.391v-1.032h0.928v1.032h1.423v-1.191h0.928v2.166L116.98,608.381L116.98,608.381z M119.874,605.917h-0.192
		c-1.967,0-2.742-0.728-2.742-1.639c0-0.271,0.032-0.432,0.128-0.64h1.007c-0.119,0.2-0.184,0.359-0.184,0.544
		c0,0.432,0.384,0.743,1.783,0.743h0.208c1.479,0,1.783-0.312,1.783-0.76c0-0.151-0.057-0.344-0.176-0.543h0.959
		c0.128,0.224,0.168,0.439,0.168,0.719C122.617,605.238,121.825,605.917,119.874,605.917z M116.98,603.134v-0.976h2.343
		l-2.343-0.792v-1.104l2.366,0.943l3.23-0.959v1.087l-2.119,0.608l0.616,0.216h1.503v0.976h-5.596
		C116.98,603.133,116.98,603.134,116.98,603.134z"/>
	<path class="st4" d="M39.817,155.161h1.007c1,0,1.727,0.527,1.727,1.783v0.072c0,0.728-0.288,1.191-0.656,1.472l0.752,2.271h-1.04
		l-0.632-1.951h-0.184v1.951h-0.975L39.817,155.161L39.817,155.161z M40.841,157.927c0.424,0,0.735-0.248,0.735-0.903v-0.064
		c0-0.704-0.335-0.888-0.759-0.888h-0.024v1.855H40.841z M43.001,155.161h1.007c1,0,1.727,0.527,1.727,1.783v0.072
		c0,0.728-0.288,1.191-0.656,1.472l0.751,2.271h-1.039l-0.632-1.951h-0.184v1.951H43L43.001,155.161L43.001,155.161z
		 M44.025,157.927c0.423,0,0.735-0.248,0.735-0.903v-0.064c0-0.704-0.336-0.888-0.76-0.888h-0.024v1.855H44.025z"/>
	<path class="st4" d="M68.766,154.744h1.007c1,0,1.727,0.528,1.727,1.783v0.072c0,0.728-0.288,1.191-0.656,1.471l0.751,2.271h-1.039
		l-0.632-1.951H69.74v1.951h-0.976v-5.597H68.766z M69.79,157.51c0.424,0,0.735-0.248,0.735-0.903v-0.064
		c0-0.704-0.336-0.888-0.759-0.888h-0.024v1.855H69.79z M71.95,154.744h1.008c0.999,0,1.727,0.528,1.727,1.783v0.072
		c0,0.728-0.287,1.191-0.655,1.471l0.752,2.271h-1.04l-0.632-1.951h-0.184v1.951H71.95V154.744z M72.973,157.51
		c0.424,0,0.735-0.248,0.735-0.903v-0.064c0-0.704-0.335-0.888-0.759-0.888h-0.024v1.855H72.973z"/>
	<path class="st4" d="M56.845,283.398v-0.288c0-1.847,0.6-2.734,1.487-2.734c0.888,0,1.487,0.887,1.487,2.734v0.288
		c0,1.847-0.6,2.734-1.487,2.734C57.445,286.132,56.845,285.245,56.845,283.398z M58.828,283.398v-0.288
		c0-1.439-0.2-1.839-0.496-1.839c-0.295,0-0.496,0.399-0.496,1.839v0.288c0,1.439,0.2,1.839,0.496,1.839
		S58.828,284.837,58.828,283.398z M60.301,280.456h0.872c1.063,0,1.807,0.575,1.807,1.887v0.016c0,1.263-0.704,1.863-1.695,1.935
		h-0.008v1.759h-0.976V280.456z M61.285,283.39c0.408-0.024,0.719-0.32,0.719-1v-0.016c0-0.712-0.272-1.016-0.695-1.016h-0.032
		v2.031L61.285,283.39L61.285,283.39z M63.381,280.456h2.143v0.927h-1.167v1.391h1.031v0.928h-1.031v1.423h1.191v0.928h-2.167
		C63.381,286.053,63.381,280.456,63.381,280.456z M66.021,280.456h0.911l0.983,2.83v-2.83h0.952v5.597h-0.863l-1.032-2.966v2.966
		h-0.951L66.021,280.456L66.021,280.456z M71.236,281.383h-0.688v-0.927H72.9v0.927h-0.688v4.669h-0.976V281.383z M73.053,283.398
		v-0.288c0-1.847,0.6-2.734,1.486-2.734c0.888,0,1.487,0.887,1.487,2.734v0.288c0,1.847-0.6,2.734-1.487,2.734
		C73.653,286.132,73.053,285.245,73.053,283.398z M75.036,283.398v-0.288c0-1.439-0.2-1.839-0.496-1.839s-0.495,0.399-0.495,1.839
		v0.288c0,1.439,0.199,1.839,0.495,1.839S75.036,284.837,75.036,283.398z M52.173,288.456h0.912c1.248,0,1.959,0.903,1.959,2.702
		v0.192c0,1.799-0.711,2.703-1.959,2.703h-0.912V288.456z M53.188,293.157c0.464,0,0.864-0.408,0.864-1.807v-0.192
		c0-1.399-0.4-1.807-0.864-1.807h-0.04v3.806H53.188z M55.525,288.456h2.143v0.927H56.5v1.391h1.031v0.928H56.5v1.423h1.191v0.928
		h-2.167L55.525,288.456L55.525,288.456z M57.989,291.35v-0.192c0-1.967,0.728-2.742,1.639-2.742c0.272,0,0.432,0.032,0.64,0.128
		v1.007c-0.2-0.12-0.36-0.184-0.543-0.184c-0.432,0-0.744,0.384-0.744,1.783v0.208c0,1.479,0.312,1.783,0.759,1.783
		c0.152,0,0.344-0.056,0.544-0.176v0.959c-0.224,0.128-0.44,0.168-0.72,0.168C58.668,294.092,57.989,293.301,57.989,291.35z
		 M60.773,288.456h0.976v2.342l0.792-2.342h1.103l-0.943,2.366l0.959,3.23h-1.087l-0.607-2.119l-0.216,0.616v1.503h-0.976
		L60.773,288.456L60.773,288.456z M65.269,288.456h0.847c0.944,0,1.823,0.384,1.823,1.423v0.04c0,0.72-0.408,1.071-0.808,1.263
		c0.472,0.208,0.879,0.536,0.879,1.248v0.072c0,0.992-0.768,1.551-1.855,1.551h-0.887v-5.597H65.269z M66.26,290.806
		c0.432,0,0.72-0.248,0.72-0.736v-0.016c0-0.487-0.288-0.695-0.72-0.695h-0.016v1.447H66.26z M66.268,293.149
		c0.448,0,0.768-0.264,0.768-0.728v-0.04c0-0.464-0.319-0.728-0.768-0.728h-0.024v1.495h0.024V293.149z M68.421,288.456h2.143v0.927
		h-1.167v1.391h1.031v0.928h-1.031v1.423h1.191v0.928h-2.167V288.456z M71.061,288.456h0.976v4.669h1.031v0.928h-2.007
		C71.061,294.053,71.061,288.456,71.061,288.456z M73.165,291.398v-0.288c0-1.847,0.6-2.734,1.487-2.734s1.487,0.887,1.487,2.734
		v0.288c0,1.847-0.6,2.734-1.487,2.734S73.165,293.245,73.165,291.398z M75.148,291.398v-0.288c0-1.439-0.2-1.839-0.496-1.839
		s-0.496,0.399-0.496,1.839v0.288c0,1.439,0.2,1.839,0.496,1.839S75.148,292.837,75.148,291.398z M76.277,288.456h0.999l0.408,3.43
		l0.487-3.43h0.904l0.479,3.43l0.416-3.43h0.976l-0.848,5.613h-1.023l-0.464-3.318l-0.464,3.318h-1.023L76.277,288.456z"/>
</g>
<g id="STAR_DECK_13_TOP">
	<path class="st5" d="M5.302,617.782v-55.76L0.5,550.272V213.149l4.228-10.74v-79.591l5.092-6.374V12.574
		c0,0-0.855-2.921,5.515-4.456c6.371-1.538,24.15-6.072,41.835-6.224l2.188-1.307h12.241l1.64,1.325c0,0,27.391,0.569,41.455,6.015
		c6.518,2.522,6.543,2.151,6.533,9.293v99.337l4.329,6.261c0,0,0,19.072-0.002,79.591l4.76,10.74v337.123l-4.416,11.75l0.018,55.721
		v97.922c0,0,4.305,2.831,4.639,6.987s-1.834,8.879-8.334,9.352c-13.598,0.988-13.616-9.56-17.667-9.352
		c-5.472,0.281-17.053,20.929-39.302,20.929c-22.248,0-34.669-20.778-39.031-20.929c-6.026-0.207-6.331,8.879-15.623,8.879
		c-9.293,0-10.044-8.04-10.044-8.533c0-0.491-0.617-4.076,4.741-7.549C5.305,715.441,5.302,617.782,5.302,617.782L5.302,617.782z"/>
	<g id="gDeck13Locations">
		<rect id="_x31_3Aft" x="0.339" y="515.176" class="st2" width="130.409" height="228.199"/>
		<rect id="_x31_3Middle" x="0.339" y="216.226" class="st2" width="130.409" height="298.95"/>
		<rect id="_x31_3Forward" x="0.339" y="0" class="st2" width="130.409" height="216.226"/>
	</g>
</g>
</svg>
