<?xml version="1.0" encoding="utf-8"?>
<!-- Generator: Adobe Illustrator 23.0.4, SVG Export Plug-In . SVG Version: 6.00 Build 0)  -->
<svg version="1.1" id="BREAKAWAY_DECK_07" xmlns="http://www.w3.org/2000/svg" xmlns:xlink="http://www.w3.org/1999/xlink" x="0px"
	 y="0px" width="148.878px" height="1171.141px" viewBox="0 0 148.878 1171.141"
	 style="enable-background:new 0 0 148.878 1171.141;" xml:space="preserve">
<style type="text/css">
	.st0{fill:#FFFFFF;}
	.st1{fill:none;stroke:#D5DCE0;stroke-width:0.5;}
	.st2{fill:#6E8496;}
	.st3{fill:none;stroke:#076FA0;stroke-miterlimit:10;}
	.st4{fill:none;}
</style>
<g id="BREAKAWAY_DECK_07_BOTTOM">
	<path class="st0" d="M148.378,1152.818c-13.826,16.182-35.904,16.435-35.904,16.435c-6.698,1.012-38.326,1.265-38.326,1.265
		c-19.97,0.506-45.768-2.024-45.768-2.024c-17.241-0.885-27.879-16.11-27.879-16.11V207.327l-0.033,3.174
		c0,0-0.683-63.167,3.817-84.667H6.45c0,0,6.595-28.085,20.333-56.834C42.606,35.888,66.332,1.458,74.45,0.834l0.418-0.124
		c8.118,0.624,31.843,35.054,47.665,68.166c13.738,28.749,20.334,56.834,20.334,56.834h2.166c4.5,21.5,3.297,84.667,3.297,84.667
		l0.048-0.766V626.48v-0.267V783.04v370.115"/>
	<line class="st1" x1="63.095" y1="969.405" x2="63.095" y2="954.072"/>
	<line class="st1" x1="46.405" y1="969.326" x2="63.101" y2="969.326"/>
	<line class="st1" x1="54.519" y1="714.091" x2="58.768" y2="715.453"/>
	<line class="st1" x1="54.288" y1="714.819" x2="58.352" y2="716.913"/>
	<line class="st1" x1="54.215" y1="715.672" x2="57.744" y2="718.056"/>
	<line class="st1" x1="53.883" y1="716.697" x2="57.208" y2="719.224"/>
	<line class="st1" x1="53.239" y1="717.383" x2="56.502" y2="720.222"/>
	<line class="st1" x1="52.79" y1="717.886" x2="55.578" y2="720.783"/>
	<line class="st1" x1="51.707" y1="718.299" x2="53.189" y2="721.847"/>
	<line class="st1" x1="54.587" y1="713.224" x2="59.238" y2="714.051"/>
	<line class="st1" x1="54.876" y1="712.219" x2="59.206" y2="713.096"/>
	<line class="st1" x1="55.185" y1="711.219" x2="59.505" y2="712.188"/>
	<line class="st1" x1="55.636" y1="710.531" x2="59.798" y2="711.522"/>
	<line class="st1" x1="56.039" y1="709.426" x2="60.343" y2="710.526"/>
	<line class="st1" x1="56.438" y1="708.359" x2="60.743" y2="709.933"/>
	<path class="st1" d="M59.803,956.836c-0.184,0-0.331,0.186-0.331,0.421"/>
	<line class="st1" x1="59.472" y1="957.256" x2="59.472" y2="966.923"/>
	<line class="st1" x1="63.156" y1="958.871" x2="46.416" y2="958.838"/>
	<path class="st1" d="M50.905,957.164c0-0.235-0.146-0.421-0.329-0.421"/>
	<line class="st1" x1="50.905" y1="958.79" x2="50.905" y2="957.164"/>
	<line class="st1" x1="50.576" y1="956.743" x2="46.416" y2="956.743"/>
	<line class="st1" x1="56.104" y1="967.979" x2="56.104" y2="953.934"/>
	<line class="st1" x1="55.943" y1="967.979" x2="55.943" y2="953.823"/>
	<line class="st1" x1="63.183" y1="966.37" x2="55.617" y2="966.342"/>
	<line class="st1" x1="63.183" y1="967.433" x2="55.617" y2="967.406"/>
	<line class="st1" x1="56.104" y1="967.979" x2="55.943" y2="967.979"/>
	<line class="st1" x1="55.943" y1="966.342" x2="46.476" y2="966.25"/>
	<line class="st1" x1="46.342" y1="957.806" x2="63.129" y2="957.806"/>
	<line class="st1" x1="46.31" y1="959.93" x2="63.101" y2="959.93"/>
	<line class="st1" x1="46.294" y1="960.994" x2="63.039" y2="960.994"/>
	<path class="st1" d="M50.596,966.89c0,0.224,0.145,0.406,0.326,0.406c0.179,0,0.324-0.183,0.324-0.406l0,0"/>
	<line class="st1" x1="51.246" y1="966.89" x2="51.246" y2="966.768"/>
	<line class="st1" x1="50.596" y1="966.89" x2="50.596" y2="966.768"/>
	<path class="st1" d="M59.14,966.983c0,0.224,0.145,0.406,0.323,0.406c0.179,0,0.324-0.183,0.324-0.406l0,0"/>
	<line class="st1" x1="59.788" y1="966.983" x2="59.788" y2="966.861"/>
	<line class="st1" x1="59.14" y1="966.983" x2="59.14" y2="966.861"/>
	<line class="st1" x1="50.926" y1="966.768" x2="50.926" y2="958.889"/>
	<line class="st1" x1="46.413" y1="963.12" x2="63.101" y2="963.12"/>
	<line class="st1" x1="46.413" y1="964.179" x2="63.101" y2="964.179"/>
	<line class="st1" x1="46.523" y1="965.245" x2="63.101" y2="965.245"/>
	<line class="st1" x1="46.294" y1="962.054" x2="63.101" y2="962.054"/>
	<path class="st1" d="M57.715,734.595l2.146-2.776l-3.786-2.271l-1.388,1.388l-0.002,0.008c-1.576-2.401-2.718-5.113-3.313-8.024
		l-0.091-0.06l3.155-1.389l-2.019-3.218h-1.515c0-12.79,10.368-23.157,23.157-23.157s23.157,10.367,23.157,23.157
		c0,12.789-10.367,23.156-23.157,23.156c-6.394,0-12.183-2.592-16.374-6.781L57.715,734.595z"/>
	<path class="st1" d="M63.646,697.62c0,0,1.262,2.272-2.019,5.048c0,0-5.553,4.418-7.193,10.475c0,0,0.252,4.291-2.65,5.048"/>
	<path class="st1" d="M67.18,695.979c0,0,2.146,2.65,0.252,6.058c0,0-2.145,2.902-3.66,4.038c0,0-3.912,3.029-4.67,8.329
		c0,0-1.262,5.931-4.669,7.066"/>
	<polyline class="st1" points="97.737,481.358 97.737,383.537 90.59,383.537 	"/>
	<polyline class="st1" points="91.117,383.537 50.684,383.537 50.684,407.342 37.757,407.342 37.757,460.071 	"/>
	<line class="st1" x1="24.207" y1="431.091" x2="37.758" y2="431.091"/>
	<polyline class="st1" points="124.362,433.634 124.362,449.918 136.54,449.918 	"/>
	<polyline class="st1" points="124.518,402.505 129.936,402.505 136.561,421.319 136.564,421.544 136.564,480.732 136.48,487.768 
		136.48,595.501 136.48,601.296 136.48,653.171 136.48,662.078 136.48,890.975 136.48,894.288 136.48,958.44 136.48,964.464 
		136.48,976.146 	"/>
	<polyline class="st1" points="50.873,460.071 50.873,481.358 60.271,481.358 	"/>
	<line class="st1" x1="63.083" y1="955.639" x2="56.041" y2="955.639"/>
	<polyline class="st1" points="55.891,954.654 63.139,954.654 64.117,954.654 64.117,975.688 	"/>
	<line class="st1" x1="59.491" y1="956.966" x2="50.873" y2="956.966"/>
	<path class="st1" d="M59.803,956.836l5.49,0.016c0,0,0.975,0.143,0.962,1.449l0.02-0.085v13.309c0,0,0.164,0.928-1.364,0.709
		l-0.9-0.027l0.027,0.491h1.636c0,0,0.6,0.219,0.6,0.764v1.854c0,0-0.218,0.436-0.6,0.49h-18.38c0,0-0.627,0.137-0.627-1.036v-5.435
		"/>
	<line class="st1" x1="85.483" y1="969.405" x2="85.483" y2="954.072"/>
	<line class="st1" x1="100.269" y1="969.326" x2="100.269" y2="956.76"/>
	<line class="st1" x1="100.269" y1="969.326" x2="84.748" y2="969.326"/>
	<path class="st1" d="M87.428,956.834c0.169,0,0.305,0.185,0.305,0.421"/>
	<line class="st1" x1="87.732" y1="957.255" x2="87.692" y2="958.84"/>
	<line class="st1" x1="85.488" y1="959.589" x2="100.301" y2="959.536"/>
	<path class="st1" d="M96.607,957.164c0-0.235,0.134-0.421,0.302-0.421"/>
	<line class="st1" x1="96.606" y1="958.889" x2="96.607" y2="957.164"/>
	<path class="st1" d="M96.909,956.743h3.375l1.964-0.582h9.925c3.412,0.413,3.411,3.515,3.411,3.515v16.471"/>
	<line class="st1" x1="92.366" y1="967.979" x2="92.366" y2="953.934"/>
	<line class="st1" x1="92.513" y1="967.979" x2="92.513" y2="953.823"/>
	<line class="st1" x1="85.46" y1="967.433" x2="92.372" y2="967.483"/>
	<line class="st1" x1="85.606" y1="966.24" x2="100.302" y2="966.25"/>
	<line class="st1" x1="100.301" y1="958.349" x2="85.494" y2="958.349"/>
	<line class="st1" x1="100.295" y1="960.473" x2="85.657" y2="960.473"/>
	<line class="st1" x1="100.301" y1="961.265" x2="85.488" y2="961.265"/>
	<path class="st1" d="M96.908,966.89c0,0.224-0.134,0.406-0.3,0.406c-0.164,0-0.297-0.183-0.297-0.406l0,0"/>
	<line class="st1" x1="96.312" y1="966.89" x2="96.312" y2="966.768"/>
	<line class="st1" x1="96.908" y1="966.89" x2="96.908" y2="966.768"/>
	<path class="st1" d="M87.984,966.983c0,0.224-0.133,0.406-0.296,0.406c-0.165,0-0.297-0.183-0.297-0.406l0,0"/>
	<line class="st1" x1="87.392" y1="966.983" x2="87.392" y2="966.861"/>
	<line class="st1" x1="87.984" y1="966.983" x2="87.984" y2="966.861"/>
	<line class="st1" x1="96.606" y1="966.768" x2="96.606" y2="958.889"/>
	<line class="st1" x1="100.352" y1="963.391" x2="85.471" y2="963.391"/>
	<line class="st1" x1="100.352" y1="964.451" x2="85.488" y2="964.451"/>
	<line class="st1" x1="100.271" y1="965.516" x2="85.488" y2="965.516"/>
	<line class="st1" x1="100.123" y1="962.326" x2="85.536" y2="962.326"/>
	<line class="st1" x1="87.692" y1="966.861" x2="87.692" y2="958.84"/>
	<line class="st1" x1="85.484" y1="956.182" x2="92.354" y2="956.182"/>
	<polyline class="st1" points="92.372,955.197 84.992,955.197 84.008,955.197 84.008,976.184 	"/>
	<line class="st1" x1="87.745" y1="957.509" x2="96.622" y2="957.509"/>
	<path class="st1" d="M87.428,956.834l-3.409,0.036c0,0-1.942-0.265-1.969,1.454l0.02,0.01v13.309c0,0-0.194,0.81,1.208,0.591
		l0.826-0.027l-0.025,0.491h-1.502c0,0-0.551,0.219-0.551,0.764v1.854c0,0,0.199,0.436,0.551,0.49h16.876
		c0,0,0.576,0.137,0.576-1.036v-5.182"/>
	<line class="st1" x1="121.706" y1="460.071" x2="34.686" y2="460.071"/>
	<line class="st1" x1="11.999" y1="460.071" x2="34.635" y2="460.071"/>
	<line class="st1" x1="24.207" y1="431.091" x2="11.779" y2="431.091"/>
	<line class="st1" x1="82.144" y1="976.144" x2="136.436" y2="976.144"/>
	<line class="st1" x1="81.541" y1="471.467" x2="88.166" y2="471.467"/>
	<line class="st1" x1="81.541" y1="475.929" x2="84.943" y2="475.929"/>
	<line class="st1" x1="81.541" y1="476.822" x2="88.166" y2="476.822"/>
	<line class="st1" x1="81.662" y1="477.715" x2="85.002" y2="477.715"/>
	<line class="st1" x1="81.662" y1="478.607" x2="85.002" y2="478.607"/>
	<line class="st1" x1="81.662" y1="479.5" x2="85.002" y2="479.5"/>
	<path class="st1" d="M81.662,481.358h6.507V462.05c0,0-0.024-0.551-0.958-0.551H60.968c0,0-0.694,0.024-0.647,0.647l-0.05,7.051"/>
	<line class="st1" x1="70.995" y1="471.467" x2="77.816" y2="471.467"/>
	<line class="st1" x1="81.541" y1="472.36" x2="88.166" y2="472.36"/>
	<line class="st1" x1="70.995" y1="472.36" x2="77.816" y2="472.36"/>
	<line class="st1" x1="81.541" y1="473.253" x2="88.166" y2="473.253"/>
	<line class="st1" x1="70.995" y1="473.253" x2="77.816" y2="473.253"/>
	<line class="st1" x1="81.541" y1="474.145" x2="88.166" y2="474.145"/>
	<line class="st1" x1="70.995" y1="474.145" x2="77.816" y2="474.145"/>
	<line class="st1" x1="81.541" y1="475.037" x2="88.166" y2="475.037"/>
	<line class="st1" x1="77.816" y1="471.467" x2="80.935" y2="471.467"/>
	<line class="st1" x1="77.816" y1="475.929" x2="80.935" y2="475.929"/>
	<line class="st1" x1="77.816" y1="476.822" x2="80.935" y2="476.822"/>
	<line class="st1" x1="77.816" y1="477.715" x2="80.935" y2="477.715"/>
	<line class="st1" x1="77.816" y1="478.607" x2="80.935" y2="478.607"/>
	<line class="st1" x1="77.697" y1="479.5" x2="80.935" y2="479.5"/>
	<line class="st1" x1="74.29" y1="481.358" x2="80.938" y2="481.358"/>
	<line class="st1" x1="77.816" y1="472.36" x2="80.935" y2="472.36"/>
	<line class="st1" x1="77.816" y1="473.253" x2="80.935" y2="473.253"/>
	<line class="st1" x1="77.816" y1="474.145" x2="80.935" y2="474.145"/>
	<line class="st1" x1="77.816" y1="475.037" x2="80.935" y2="475.037"/>
	<line class="st1" x1="71.073" y1="475.037" x2="77.816" y2="475.037"/>
	<line class="st1" x1="71.073" y1="475.929" x2="77.816" y2="475.929"/>
	<line class="st1" x1="71.073" y1="476.822" x2="77.816" y2="476.822"/>
	<line class="st1" x1="71.073" y1="477.715" x2="77.816" y2="477.715"/>
	<line class="st1" x1="71.073" y1="478.607" x2="77.816" y2="478.607"/>
	<line class="st1" x1="71.051" y1="479.5" x2="77.538" y2="479.5"/>
	<line class="st1" x1="67.549" y1="475.929" x2="71.073" y2="475.929"/>
	<line class="st1" x1="67.549" y1="476.822" x2="71.073" y2="476.822"/>
	<line class="st1" x1="67.549" y1="477.715" x2="71.073" y2="477.715"/>
	<line class="st1" x1="67.549" y1="478.607" x2="71.073" y2="478.607"/>
	<line class="st1" x1="67.549" y1="479.5" x2="71.051" y2="479.5"/>
	<line class="st1" x1="67.549" y1="475.053" x2="71.073" y2="475.053"/>
	<line class="st1" x1="67.549" y1="470.696" x2="71.073" y2="470.696"/>
	<line class="st1" x1="67.549" y1="469.971" x2="80.935" y2="469.971"/>
	<line class="st1" x1="67.549" y1="468.969" x2="80.935" y2="468.969"/>
	<line class="st1" x1="71.073" y1="470.696" x2="80.935" y2="470.696"/>
	<line class="st1" x1="67.549" y1="471.589" x2="70.995" y2="471.589"/>
	<line class="st1" x1="67.549" y1="472.481" x2="70.995" y2="472.481"/>
	<line class="st1" x1="67.549" y1="473.374" x2="70.995" y2="473.374"/>
	<line class="st1" x1="67.549" y1="474.266" x2="70.995" y2="474.266"/>
	<line class="st1" x1="81.59" y1="480.287" x2="88.159" y2="480.287"/>
	<line class="st1" x1="85" y1="475.929" x2="88.159" y2="475.929"/>
	<line class="st1" x1="85" y1="477.715" x2="88.159" y2="477.715"/>
	<line class="st1" x1="85" y1="478.607" x2="88.159" y2="478.607"/>
	<line class="st1" x1="85" y1="479.5" x2="88.159" y2="479.5"/>
	<line class="st1" x1="67.643" y1="481.358" x2="74.142" y2="481.358"/>
	<path class="st1" d="M66.886,481.358l0.017-12.622c0,0-0.07-0.393,0.309-0.393c0,0,0.345,0,0.345,0.393l-0.017,12.622"/>
	<line class="st1" x1="81.561" y1="468.735" x2="81.545" y2="481.358"/>
	<line class="st1" x1="80.935" y1="468.735" x2="80.891" y2="481.358"/>
	<line class="st1" x1="66.873" y1="479.381" x2="60.495" y2="479.381"/>
	<line class="st1" x1="66.873" y1="475.024" x2="60.24" y2="475.024"/>
	<line class="st1" x1="66.873" y1="473.891" x2="60.24" y2="473.891"/>
	<line class="st1" x1="66.873" y1="473.02" x2="60.24" y2="473.02"/>
	<line class="st1" x1="66.873" y1="471.887" x2="60.24" y2="471.887"/>
	<line class="st1" x1="66.873" y1="470.929" x2="60.24" y2="470.929"/>
	<line class="st1" x1="66.873" y1="469.928" x2="60.24" y2="469.928"/>
	<line class="st1" x1="66.873" y1="475.917" x2="60.495" y2="475.917"/>
	<line class="st1" x1="66.873" y1="476.809" x2="60.495" y2="476.809"/>
	<line class="st1" x1="66.873" y1="477.702" x2="60.495" y2="477.702"/>
	<line class="st1" x1="66.873" y1="478.594" x2="60.495" y2="478.594"/>
	<polyline class="st1" points="56.881,468.62 60.271,469.197 60.271,481.358 66.899,481.358 	"/>
	<path class="st1" d="M77.193,479.83c0,0.165,0.241,0.3,0.536,0.3c0.301,0,0.543-0.135,0.543-0.3l0,0"/>
	<line class="st1" x1="77.722" y1="479.739" x2="77.581" y2="466.516"/>
	<line class="st1" x1="84.947" y1="466.557" x2="84.956" y2="467.374"/>
	<line class="st1" x1="84.994" y1="476.401" x2="84.956" y2="467.346"/>
	<path class="st1" d="M78.343,466.213c-0.316,0-0.732,0.13-0.732,0.303"/>
	<path class="st1" d="M84.206,466.213c0.316,0,0.732,0.13,0.732,0.303"/>
	<line class="st1" x1="78.259" y1="466.213" x2="84.315" y2="466.213"/>
	<path class="st1" d="M77.193,479.83c0,0.165,0.241,0.3,0.536,0.3c0.301,0,0.543-0.135,0.543-0.3l0,0"/>
	<path class="st1" d="M78.343,466.213c-0.316,0-0.762,0.13-0.762,0.303"/>
	<line class="st1" x1="77.61" y1="467.307" x2="77.595" y2="468.195"/>
	<path class="st1" d="M84.206,466.213c0.316,0,0.741,0.172,0.741,0.345"/>
	<line class="st1" x1="78.259" y1="466.213" x2="84.315" y2="466.213"/>
	<path class="st1" d="M71.438,479.83c0,0.165-0.241,0.3-0.536,0.3c-0.301,0-0.543-0.135-0.543-0.3l0,0"/>
	<line class="st1" x1="70.91" y1="479.739" x2="71.051" y2="466.516"/>
	<line class="st1" x1="63.676" y1="467.073" x2="63.676" y2="467.374"/>
	<line class="st1" x1="63.651" y1="476.73" x2="63.676" y2="467.346"/>
	<line class="st1" x1="71.021" y1="467.323" x2="71.037" y2="468.195"/>
	<line class="st1" x1="63.693" y1="466.516" x2="63.676" y2="467.717"/>
	<path class="st1" d="M63.693,466.516c0-0.228,0.109-0.303,0.732-0.303h-0.109h6.057h-0.084c0.795,0,0.732,0.02,0.732,0.303"/>
	<polyline class="st1" points="129.918,250.882 129.918,263.183 129.918,266.76 129.918,311.064 129.918,314.09 129.918,329.793 
		129.918,333.078 129.918,402.644 	"/>
	<line class="st1" x1="124.449" y1="342.099" x2="124.449" y2="402.611"/>
	<path class="st1" d="M24.436,288.674l9.004-14.095v-5.15h64.188h16.642c0,0,1.536-0.477,1.374,1.543v3.555l8.806,13.896V342.1"/>
	<polyline class="st1" points="97.812,489.273 97.812,536.65 82.203,536.65 82.203,529.827 	"/>
	<polyline class="st1" points="51.234,489.107 51.234,536.678 66.4,536.678 66.4,529.77 	"/>
	<polyline class="st1" points="11.785,488.941 31.841,488.941 66.38,488.882 66.38,491.61 	"/>
	<polyline class="st1" points="136.438,488.941 124.664,488.941 82.229,488.941 82.229,491.866 	"/>
	<line class="st1" x1="74.066" y1="468.396" x2="74.034" y2="481.358"/>
	<rect x="57.123" y="491.61" class="st1" width="9.257" height="38.165"/>
	<line class="st1" x1="57.43" y1="520.334" x2="66.38" y2="529.481"/>
	<line class="st1" x1="57.52" y1="529.475" x2="66.38" y2="520.337"/>
	<polygon class="st1" points="57.43,511.064 66.38,520.211 57.52,520.205 66.38,511.067 	"/>
	<line class="st1" x1="57.43" y1="501.407" x2="66.38" y2="510.555"/>
	<line class="st1" x1="57.52" y1="510.549" x2="66.38" y2="501.41"/>
	<polyline class="st1" points="66.38,492.14 57.52,501.278 66.38,501.285 57.43,492.137 	"/>
	<rect x="82.229" y="491.61" class="st1" width="9.267" height="38.165"/>
	<line class="st1" x1="91.188" y1="520.334" x2="82.229" y2="529.481"/>
	<line class="st1" x1="91.099" y1="529.475" x2="82.229" y2="520.337"/>
	<polygon class="st1" points="91.188,511.064 82.229,520.211 91.099,520.205 82.229,511.067 	"/>
	<line class="st1" x1="91.188" y1="501.407" x2="82.229" y2="510.555"/>
	<line class="st1" x1="91.099" y1="510.549" x2="82.229" y2="501.41"/>
	<polyline class="st1" points="82.229,492.14 91.099,501.278 82.229,501.285 91.188,492.137 	"/>
	<path class="st1" d="M85.521,539.589l24.145,2.084c0,0,0.956,0.086,0.782,1.39l-0.087,1.216c0,0-0.001,0.781,0.955,0.955h1.477
		c0,0,1.215-0.174,1.042,1.477l-1.216,29.877c0,0-2.953,17.805-20.323,16.328c0,0-14.678-0.521-16.588-17.892
		c0,0,0.782-6.687,0.956-7.729l3.126-23.016c0,0-0.087-1.998,1.737-1.998l1.39,0.26c0,0,1.042-0.174,1.042-1.563
		C83.957,540.978,83.697,539.241,85.521,539.589z"/>
	<line class="st1" x1="64.229" y1="627.001" x2="64.229" y2="680.01"/>
	<polyline class="st1" points="11.736,593.55 36.437,593.568 44.839,593.568 55.248,593.568 55.248,593.568 55.248,594.894 
		63.236,594.894 63.236,614.592 64.983,614.592 64.983,622.647 	"/>
	<polyline class="st1" points="84.419,651.093 84.419,639.051 84.713,638.854 136.335,638.854 	"/>
	<polyline class="st1" points="84.419,651.093 84.373,679.96 102.091,679.96 102.091,673.024 110.938,673.024 110.938,665.171 
		136.538,665.171 	"/>
	<polyline class="st1" points="64.229,680.01 46.271,680.061 46.271,673.01 37.398,673.024 37.398,665.374 12.001,665.374 	"/>
	<rect x="56.566" y="904.59" class="st1" width="9.277" height="37.448"/>
	<line class="st1" x1="56.873" y1="913.871" x2="65.844" y2="904.879"/>
	<line class="st1" x1="56.963" y1="904.884" x2="65.844" y2="913.87"/>
	<polygon class="st1" points="56.873,922.987 65.844,913.992 56.963,913.998 65.844,922.983 	"/>
	<line class="st1" x1="56.873" y1="932.48" x2="65.844" y2="923.486"/>
	<line class="st1" x1="56.963" y1="923.492" x2="65.844" y2="932.476"/>
	<polyline class="st1" points="65.844,942.038 56.963,932.607 65.844,932.6 56.873,942.038 	"/>
	<rect x="82.218" y="904.59" class="st1" width="9.324" height="37.448"/>
	<line class="st1" x1="91.234" y1="913.871" x2="82.218" y2="904.879"/>
	<line class="st1" x1="91.145" y1="904.884" x2="82.218" y2="913.87"/>
	<polygon class="st1" points="91.234,922.987 82.218,913.992 91.145,913.998 82.218,922.983 	"/>
	<line class="st1" x1="91.234" y1="932.48" x2="82.218" y2="923.486"/>
	<line class="st1" x1="91.145" y1="923.492" x2="82.218" y2="932.476"/>
	<polyline class="st1" points="82.218,942.038 91.145,932.607 82.218,932.6 91.234,942.038 	"/>
	<polyline class="st1" points="136.41,947.205 108.161,947.205 104.434,947.205 99.297,947.205 97.151,942.038 91.542,942.038 	"/>
	<polyline class="st1" points="11.949,976.144 66.525,976.293 66.525,976.293 66.492,1033.777 38.656,1033.777 28.963,1033.777 
		12.067,1033.777 	"/>
	<line class="st1" x1="81.177" y1="477.805" x2="88.791" y2="475.004"/>
	<line class="st1" x1="59.414" y1="474.98" x2="67.217" y2="477.853"/>
	<path class="st1" d="M109.317,382.695v8.958c0,0-0.05,1.518,0.962,1.569c0,0,1.062,0.152,0.962-1.468v-8.857
		c0,0,0.101-1.013-0.811-1.114C110.431,381.784,109.217,381.682,109.317,382.695z"/>
	<line class="st1" x1="18.507" y1="402.526" x2="24.316" y2="402.526"/>
	<line class="st1" x1="101.982" y1="976.164" x2="101.982" y2="956.214"/>
	<line class="st1" x1="0.501" y1="250.706" x2="148.378" y2="250.706"/>
	<polyline class="st1" points="64.983,614.592 64.983,626.751 46.317,626.751 46.317,593.667 	"/>
	<path class="st1" d="M32.879,976.127v-15.521c0,0-0.413-3.825,3.205-4.445l10.321-0.033v13.198"/>
	<rect x="84.027" y="770.299" class="st1" width="15.988" height="77.509"/>
	<polyline class="st1" points="11.749,767.038 51.694,767.038 51.712,770.27 51.805,770.318 64.632,770.318 64.632,801.832 
		64.632,804.668 64.632,847.808 48.448,847.808 48.448,829.619 48.494,829.534 12.051,829.534 	"/>
	<rect x="50.739" y="862.149" class="st1" width="13.893" height="37.675"/>
	<polyline class="st1" points="82.218,904.59 82.218,899.824 97.933,899.824 97.933,914.009 97.973,914.009 124.311,914.009 
		136.594,914.009 	"/>
	<polyline class="st1" points="12.003,937.729 24.067,937.729 24.067,935.486 50.848,935.478 	"/>
	<polyline class="st1" points="62.15,1166.792 62.15,1098.417 64.775,1095.042 83.525,1095.042 86.4,1097.917 86.4,1166.917 	"/>
	<rect x="11.81" y="947.302" class="st1" width="12.72" height="9.872"/>
	<line class="st1" x1="50.739" y1="899.824" x2="50.739" y2="942.038"/>
	<polyline class="st1" points="64.632,899.824 65.844,899.824 65.844,904.345 	"/>
	<rect x="14.213" y="862.209" class="st1" width="10.491" height="35.872"/>
	<polyline class="st1" points="26.518,562.758 26.565,546.968 21.235,546.968 21.235,584.194 26.565,584.194 26.578,567.473 	"/>
	<path class="st1" d="M26.65,567.443h3.551c0.137,0.05,0.798-0.021,0.94-0.061c0.213-0.061,1.177-0.915,1.177-2.223
		c0-1.187-0.626-2.161-1.439-2.333v-0.036h-4.23"/>
	<line class="st1" x1="88.169" y1="481.358" x2="97.737" y2="481.358"/>
	<polyline class="st1" points="24.18,288.652 24.31,298.317 24.31,402.498 	"/>
	<polyline class="st1" points="11.848,947.327 49.333,947.327 50.967,942.038 56.566,942.038 	"/>
	<rect x="37.757" y="460.071" class="st1" width="13.116" height="14.93"/>
	<rect x="121.816" y="460.071" class="st1" width="14.748" height="19.93"/>
	<polyline class="st1" points="136.593,433.634 97.737,433.634 97.737,398.806 124.399,398.806 124.399,402.543 	"/>
	<path class="st1" d="M63.934,1166.984v-15.749c0,0,9.841-6.193,20.152,0.356v15.315"/>
	<path class="st1" d="M18.552,250.715v125.291v5.769v20.66l-6.773,18.954v30.276v6.376v23v6.875v97.024v5.719v62.475v9.179v295.823
		l0.183,7.08v134.824l6.802-0.137l-0.262,63.168l0.052-0.003c0,0,22.424,4.469,55.748,3.842c33.324,0.627,55.513-3.842,55.513-3.842
		l0.053,0.031v-70.12l-0.073-2.095l6.606-0.071l0.08-0.037V988.729l-0.011-0.06h-34.038l-0.069,0.06v30.715H82.148v-43.297"/>
	<line class="st1" x1="81.401" y1="885.422" x2="136.545" y2="885.422"/>
	<polygon class="st1" points="111.736,614.194 79.175,614.194 79.175,622.335 111.736,622.335 111.736,631.603 115.118,631.603 
		115.118,622.335 115.118,614.194 	"/>
	<path class="st1" d="M50.608,385.802h-5.353c-5.58,0.797-5.125,5.808-5.125,5.808v11.389h3.872v-10.705c0,0,0.114-2.277,2.05-2.505
		h4.556"/>
	<line class="st1" x1="46.381" y1="614.592" x2="63.162" y2="614.592"/>
	<line class="st1" x1="64.632" y1="847.826" x2="64.632" y2="862.21"/>
	<path class="st1" d="M123.192,350.776c-4.413,3.963-13.543,9.512-19.097,11.601l-1.326-2.958"/>
	<path class="st1" d="M73.699,357.989c17.963-0.432,43.394-10.536,50.735-22.627"/>
	<path class="st1" d="M65.118,364.481c2.238,0.314,7.064,0.59,9.321,0.548"/>
	<path class="st1" d="M24.214,340.285c9.456,11.093,29.679,20.722,44.247,21.124"/>
	<path class="st1" d="M80.437,361.397c14.562-0.412,34.577-10.038,44.02-21.125"/>
	<path class="st1" d="M74.439,365.029c2.258,0.042,7.023-0.234,9.263-0.548"/>
	<path class="st1" d="M74.439,361.685c1.522,0.019,4.481-0.138,5.997-0.288"/>
	<path class="st1" d="M68.462,361.409c1.516,0.149,4.455,0.294,5.978,0.275"/>
	<path class="st1" d="M24.386,335.103c7.772,12.782,32.904,22.713,49.313,22.886"/>
	<path class="st1" d="M65.217,367.051c4.664,1.41,13.869,1.434,18.534,0.024"/>
	<path class="st1" d="M83.709,364.439c-0.25,0.031-0.427,0.258-0.396,0.508"/>
	<path class="st1" d="M65.564,364.947c0.032-0.25-0.146-0.477-0.395-0.508"/>
	<path class="st1" d="M25.689,350.765c4.411,3.964,13.542,9.523,19.094,11.612l1.266-2.958"/>
	<path class="st1" d="M24.352,342.072c1.351,2.477,1.973,6.184,1.431,8.772"/>
	<path class="st1" d="M83.709,364.439c12.436-0.866,30.595-9.16,39.391-17.998"/>
	<path class="st1" d="M83.709,364.439c-0.25,0.031-0.427,0.258-0.396,0.508"/>
	<line class="st1" x1="83.312" y1="364.947" x2="83.535" y2="366.748"/>
	<line class="st1" x1="83.312" y1="364.947" x2="83.535" y2="366.748"/>
	<path class="st1" d="M25.757,346.417c8.795,8.838,26.976,17.157,39.413,18.023"/>
	<path class="st1" d="M124.445,342.292c-1.197,2.501-1.762,6.054-1.253,8.484"/>
	<line class="st1" x1="83.603" y1="367.174" x2="83.312" y2="364.947"/>
	<line class="st1" x1="65.344" y1="366.748" x2="65.564" y2="364.947"/>
	<line class="st1" x1="65.344" y1="366.748" x2="65.564" y2="364.947"/>
	<line class="st1" x1="65.291" y1="367.224" x2="65.564" y2="364.947"/>
	<path class="st1" d="M65.564,364.947c0.032-0.25-0.146-0.477-0.395-0.508"/>
	<rect x="97.801" y="488.981" class="st1" width="14.254" height="47.669"/>
	<line class="st1" x1="89.188" y1="1154.26" x2="74.487" y2="1159.606"/>
	<path class="st2" d="M19.679,745.323h0.848c0.943,0,1.822,0.384,1.822,1.423v0.04c0,0.72-0.407,1.071-0.808,1.264
		c0.472,0.207,0.88,0.535,0.88,1.247v0.071c0,0.992-0.768,1.552-1.854,1.552h-0.888C19.679,750.92,19.679,745.323,19.679,745.323z
		 M20.67,747.673c0.432,0,0.72-0.248,0.72-0.735v-0.017c0-0.487-0.288-0.695-0.72-0.695h-0.016v1.447H20.67z M20.678,750.016
		c0.448,0,0.768-0.264,0.768-0.728v-0.04c0-0.464-0.319-0.728-0.768-0.728h-0.023v1.495h0.023V750.016z M22.831,745.323h1.007
		c1,0,1.728,0.527,1.728,1.783v0.071c0,0.728-0.288,1.191-0.656,1.472l0.752,2.271h-1.039l-0.632-1.951h-0.184v1.951h-0.976
		C22.831,750.92,22.831,745.323,22.831,745.323z M23.855,748.089c0.424,0,0.735-0.247,0.735-0.902v-0.064
		c0-0.703-0.336-0.888-0.76-0.888h-0.023v1.854H23.855z M26.015,745.323h2.143v0.928H26.99v1.391h1.031v0.928H26.99v1.423h1.191
		v0.928h-2.167L26.015,745.323L26.015,745.323z M29.438,745.307h1.04l1.062,5.612h-0.975l-0.185-1.111h-0.888l-0.176,1.111h-0.943
		L29.438,745.307z M30.237,748.928l-0.296-1.847l-0.304,1.847H30.237z M31.839,745.323h0.976v2.342l0.791-2.342h1.104l-0.943,2.366
		l0.959,3.23h-1.087l-0.607-2.118l-0.216,0.615v1.503H31.84L31.839,745.323L31.839,745.323z M35.726,745.307h1.039l1.063,5.612
		h-0.975l-0.185-1.111H35.78l-0.176,1.111h-0.943L35.726,745.307z M36.525,748.928l-0.296-1.847l-0.304,1.847H36.525z
		 M37.823,745.323h0.999l0.408,3.43l0.487-3.43h0.903l0.479,3.43l0.416-3.43h0.976l-0.848,5.613H40.62l-0.464-3.318l-0.464,3.318
		H38.67L37.823,745.323z M43.525,745.307h1.04l1.062,5.612h-0.975l-0.185-1.111h-0.888l-0.176,1.111H42.46L43.525,745.307z
		 M44.325,748.928l-0.296-1.847l-0.304,1.847H44.325z M46.357,748.713l-1.039-3.39h1.008l0.527,2.095l0.536-2.095h0.983l-1.04,3.39
		v2.207h-0.976v-2.207H46.357z M25.655,756.217v-0.192c0-1.967,0.728-2.742,1.639-2.742c0.271,0,0.432,0.032,0.64,0.128v1.008
		c-0.2-0.121-0.36-0.185-0.544-0.185c-0.432,0-0.743,0.384-0.743,1.783v0.208c0,1.479,0.312,1.783,0.76,1.783
		c0.151,0,0.344-0.057,0.543-0.176v0.959c-0.224,0.128-0.439,0.168-0.72,0.168C26.334,758.96,25.655,758.169,25.655,756.217z
		 M29.223,753.307h1.04l1.062,5.612H30.35l-0.185-1.111h-0.888l-0.176,1.111h-0.943L29.223,753.307z M30.022,756.928l-0.296-1.847
		l-0.304,1.847H30.022z M31.503,758.727v-1.016c0.344,0.201,0.615,0.312,0.88,0.312c0.279,0,0.52-0.136,0.52-0.479v-0.017
		c0-0.256-0.08-0.447-0.544-0.975c-0.664-0.752-0.936-1.111-0.936-1.791v-0.017c0-0.896,0.584-1.463,1.359-1.463
		c0.392,0,0.624,0.056,0.863,0.176v1.016c-0.304-0.177-0.487-0.256-0.743-0.256c-0.272,0-0.504,0.176-0.504,0.479v0.016
		c0,0.264,0.08,0.36,0.544,0.896c0.768,0.887,0.936,1.23,0.936,1.87v0.017c0,0.879-0.616,1.463-1.384,1.463
		C32.11,758.96,31.782,758.864,31.503,758.727z M34.238,753.323h0.976v5.597h-0.976V753.323z M35.807,753.323h0.911l0.983,2.83
		v-2.83h0.952v5.597h-0.864l-1.031-2.966v2.966h-0.951C35.807,758.92,35.807,753.323,35.807,753.323z M39.134,756.265v-0.288
		c0-1.848,0.601-2.734,1.487-2.734c0.888,0,1.487,0.887,1.487,2.734v0.288c0,1.847-0.6,2.734-1.487,2.734
		C39.734,759,39.134,758.112,39.134,756.265z M41.117,756.265v-0.288c0-1.439-0.2-1.839-0.496-1.839s-0.495,0.399-0.495,1.839v0.288
		c0,1.438,0.199,1.839,0.495,1.839S41.117,757.704,41.117,756.265z"/>
	<path class="st2" d="M31.747,870.945h0.848c0.943,0,1.822,0.384,1.822,1.423v0.04c0,0.72-0.407,1.071-0.808,1.264
		c0.473,0.208,0.88,0.535,0.88,1.247v0.072c0,0.991-0.768,1.551-1.854,1.551h-0.888C31.747,876.542,31.747,870.945,31.747,870.945z
		 M32.738,873.296c0.432,0,0.72-0.248,0.72-0.735v-0.017c0-0.487-0.288-0.695-0.72-0.695h-0.016v1.447H32.738z M32.746,875.638
		c0.448,0,0.768-0.264,0.768-0.728v-0.04c0-0.464-0.319-0.728-0.768-0.728h-0.023v1.495h0.023V875.638z M34.899,870.945h0.976v4.669
		h1.031v0.928h-2.007V870.945z M37.314,870.945h0.976v5.597h-0.976V870.945z M38.762,876.349v-1.015
		c0.344,0.199,0.615,0.312,0.88,0.312c0.279,0,0.52-0.136,0.52-0.479v-0.017c0-0.256-0.08-0.447-0.544-0.975
		c-0.664-0.752-0.936-1.112-0.936-1.791v-0.017c0-0.896,0.584-1.463,1.359-1.463c0.392,0,0.624,0.056,0.863,0.176v1.016
		c-0.304-0.176-0.487-0.256-0.743-0.256c-0.272,0-0.504,0.176-0.504,0.479v0.016c0,0.265,0.08,0.36,0.544,0.896
		c0.768,0.888,0.936,1.231,0.936,1.871v0.017c0,0.879-0.616,1.463-1.384,1.463C39.37,876.582,39.042,876.486,38.762,876.349z
		 M41.363,876.349v-1.015c0.344,0.199,0.615,0.312,0.88,0.312c0.279,0,0.52-0.136,0.52-0.479v-0.017c0-0.256-0.08-0.447-0.544-0.975
		c-0.664-0.752-0.936-1.112-0.936-1.791v-0.017c0-0.896,0.584-1.463,1.359-1.463c0.392,0,0.624,0.056,0.863,0.176v1.016
		c-0.304-0.176-0.487-0.256-0.743-0.256c-0.272,0-0.504,0.176-0.504,0.479v0.016c0,0.265,0.08,0.36,0.544,0.896
		c0.768,0.888,0.936,1.231,0.936,1.871v0.017c0,0.879-0.616,1.463-1.384,1.463C41.97,876.582,41.642,876.486,41.363,876.349z
		 M30.694,882.911v-3.966h0.968v4.062c0,0.504,0.176,0.704,0.424,0.704s0.424-0.2,0.424-0.704v-4.062h0.968v3.966
		c0,1.175-0.592,1.703-1.392,1.703C31.286,884.614,30.694,884.086,30.694,882.911z M34.039,878.945h0.976v4.669h1.031v0.928h-2.007
		V878.945z M36.678,879.873H35.99v-0.928h2.351v0.928h-0.688v4.669h-0.976L36.678,879.873L36.678,879.873z M38.751,878.945h1.007
		c1,0,1.728,0.527,1.728,1.783v0.071c0,0.728-0.288,1.191-0.655,1.472l0.751,2.271h-1.039l-0.632-1.951h-0.184v1.951h-0.976V878.945
		z M39.774,881.712c0.424,0,0.735-0.248,0.735-0.904v-0.063c0-0.704-0.336-0.888-0.76-0.888h-0.023v1.855H39.774z M42.717,878.928
		h1.04l1.062,5.613h-0.975l-0.185-1.111h-0.888l-0.176,1.111h-0.943L42.717,878.928z M43.517,882.55l-0.296-1.847l-0.304,1.847
		H43.517z M28.819,886.945h0.976v4.669h1.031v0.928h-2.007V886.945z M30.923,889.887v-0.288c0-1.847,0.6-2.734,1.486-2.734
		c0.888,0,1.487,0.888,1.487,2.734v0.288c0,1.847-0.6,2.734-1.487,2.734C31.523,892.622,30.923,891.734,30.923,889.887z
		 M32.906,889.887v-0.288c0-1.439-0.2-1.839-0.496-1.839s-0.495,0.399-0.495,1.839v0.288c0,1.438,0.199,1.839,0.495,1.839
		S32.906,891.326,32.906,889.887z M34.362,890.911v-3.966h0.968v4.062c0,0.504,0.176,0.704,0.424,0.704s0.424-0.2,0.424-0.704
		v-4.062h0.968v3.966c0,1.175-0.592,1.703-1.392,1.703S34.362,892.086,34.362,890.911z M37.707,886.945h0.911l0.983,2.83v-2.83
		h0.951v5.597h-0.863l-1.031-2.967v2.967h-0.951C37.707,892.542,37.707,886.945,37.707,886.945z M41.035,889.839v-0.192
		c0-1.807,0.768-2.742,1.87-2.742c0.296,0,0.544,0.063,0.744,0.16v1.015c-0.24-0.144-0.456-0.239-0.712-0.239
		c-0.56,0-0.911,0.56-0.911,1.767v0.272c0,1.463,0.432,1.799,0.831,1.799c0.032,0,0.04,0,0.088-0.008v-1.432h-0.479v-0.871h1.367
		v2.974c-0.352,0.152-0.64,0.24-1.016,0.24C41.841,892.582,41.035,891.79,41.035,889.839z M44.371,886.945h2.143v0.928h-1.167v1.391
		h1.031v0.928h-1.031v1.423h1.191v0.928h-2.167C44.371,892.543,44.371,886.945,44.371,886.945z"/>
	<path class="st2" d="M53.251,875.537h0.848c0.943,0,1.822,0.384,1.822,1.423V877c0,0.72-0.407,1.071-0.808,1.264
		c0.473,0.208,0.88,0.535,0.88,1.247v0.072c0,0.991-0.768,1.551-1.854,1.551h-0.888V875.537z M54.242,877.887
		c0.432,0,0.72-0.248,0.72-0.735v-0.017c0-0.487-0.288-0.695-0.72-0.695h-0.016v1.447H54.242z M54.25,880.23
		c0.448,0,0.768-0.264,0.768-0.728v-0.04c0-0.464-0.319-0.728-0.768-0.728h-0.023v1.495h0.023V880.23z M57.147,875.52h1.039
		l1.063,5.613h-0.975l-0.185-1.111h-0.888l-0.176,1.111h-0.943L57.147,875.52z M57.946,879.142l-0.296-1.847l-0.304,1.847H57.946z
		 M59.547,875.537h1.007c1,0,1.728,0.527,1.728,1.783v0.071c0,0.728-0.288,1.191-0.656,1.472l0.752,2.271h-1.039l-0.632-1.951
		h-0.184v1.951h-0.976V875.537z M60.57,878.303c0.424,0,0.735-0.248,0.735-0.904v-0.063c0-0.704-0.336-0.888-0.76-0.888h-0.023
		v1.855H60.57z M55.579,888.31l0.943-2.159c0.288-0.647,0.384-0.976,0.384-1.224c0-0.287-0.191-0.487-0.496-0.487
		c-0.271,0-0.512,0.104-0.719,0.231v-0.943c0.264-0.136,0.567-0.231,0.936-0.231c0.711,0,1.23,0.432,1.23,1.247v0.04
		c0,0.424-0.111,0.768-0.439,1.52l-0.8,1.854h1.216v0.976h-2.255V888.31z M58.658,884.568l-0.575,0.184v-0.983l0.863-0.271h0.695
		v5.637h-0.983C58.658,889.135,58.658,884.568,58.658,884.568z"/>
	<path class="st2" d="M51.996,602.905h1.007c1,0,1.728,0.527,1.728,1.783v0.072c0,0.728-0.288,1.191-0.656,1.472l0.752,2.271h-1.039
		l-0.632-1.951h-0.184v1.951h-0.976V602.905z M53.019,605.671c0.424,0,0.735-0.248,0.735-0.903v-0.064
		c0-0.704-0.336-0.888-0.76-0.888h-0.023v1.855L53.019,605.671L53.019,605.671z M55.179,602.905h1.007c1,0,1.728,0.527,1.728,1.783
		v0.072c0,0.728-0.288,1.191-0.656,1.472l0.752,2.271h-1.04l-0.632-1.951h-0.184v1.951h-0.976L55.179,602.905L55.179,602.905z
		 M56.203,605.671c0.424,0,0.735-0.248,0.735-0.903v-0.064c0-0.704-0.336-0.888-0.76-0.888h-0.023v1.855L56.203,605.671
		L56.203,605.671z"/>
	<path class="st2" d="M51.996,617.618h1.007c1,0,1.728,0.527,1.728,1.783v0.071c0,0.728-0.288,1.191-0.656,1.472l0.752,2.271h-1.039
		l-0.632-1.951h-0.184v1.951h-0.976V617.618z M53.019,620.383c0.424,0,0.735-0.247,0.735-0.902v-0.064
		c0-0.703-0.336-0.888-0.76-0.888h-0.023v1.854H53.019z M55.179,617.618h1.007c1,0,1.728,0.527,1.728,1.783v0.071
		c0,0.728-0.288,1.191-0.656,1.472l0.752,2.271h-1.04l-0.632-1.951h-0.184v1.951h-0.976L55.179,617.618L55.179,617.618z
		 M56.203,620.383c0.424,0,0.735-0.247,0.735-0.902v-0.064c0-0.703-0.336-0.888-0.76-0.888h-0.023v1.854H56.203z"/>
	<path class="st2" d="M66.698,714.543v-0.288c0-1.847,0.6-2.734,1.487-2.734c0.888,0,1.487,0.888,1.487,2.734v0.288
		c0,1.847-0.6,2.734-1.487,2.734C67.297,717.277,66.698,716.389,66.698,714.543z M68.681,714.543v-0.288
		c0-1.439-0.2-1.839-0.496-1.839s-0.496,0.399-0.496,1.839v0.288c0,1.438,0.2,1.839,0.496,1.839S68.681,715.981,68.681,714.543z
		 M70.153,711.6h0.872c1.063,0,1.807,0.575,1.807,1.887v0.016c0,1.264-0.704,1.863-1.695,1.936h-0.008v1.759h-0.976V711.6z
		 M71.137,714.535c0.408-0.024,0.72-0.32,0.72-1v-0.016c0-0.712-0.271-1.016-0.695-1.016H71.13v2.031L71.137,714.535L71.137,714.535
		z M73.233,711.6h2.143v0.928h-1.167v1.391h1.031v0.928h-1.031v1.423H75.4v0.928h-2.167V711.6z M75.874,711.6h0.912l0.983,2.83
		v-2.83h0.951v5.597h-0.863l-1.031-2.967v2.967h-0.952V711.6z M81.089,712.528h-0.688V711.6h2.351v0.928h-0.688v4.669h-0.976v-4.669
		L81.089,712.528L81.089,712.528z M82.905,714.543v-0.288c0-1.847,0.6-2.734,1.487-2.734s1.487,0.888,1.487,2.734v0.288
		c0,1.847-0.6,2.734-1.487,2.734S82.905,716.389,82.905,714.543z M84.889,714.543v-0.288c0-1.439-0.2-1.839-0.496-1.839
		s-0.496,0.399-0.496,1.839v0.288c0,1.438,0.2,1.839,0.496,1.839S84.889,715.981,84.889,714.543z M62.025,719.6h0.912
		c1.248,0,1.959,0.903,1.959,2.702v0.192c0,1.799-0.711,2.702-1.959,2.702h-0.912C62.025,725.196,62.025,719.6,62.025,719.6z
		 M63.041,724.301c0.464,0,0.863-0.408,0.863-1.807v-0.192c0-1.399-0.399-1.807-0.863-1.807h-0.04v3.806H63.041z M65.377,719.6
		h2.143v0.928h-1.167v1.391h1.031v0.928h-1.031v1.423h1.191v0.928h-2.167V719.6z M67.841,722.495v-0.192
		c0-1.967,0.728-2.742,1.639-2.742c0.272,0,0.432,0.032,0.64,0.128v1.007c-0.2-0.119-0.36-0.184-0.543-0.184
		c-0.432,0-0.744,0.384-0.744,1.783v0.208c0,1.479,0.312,1.783,0.76,1.783c0.152,0,0.344-0.057,0.543-0.176v0.959
		c-0.224,0.128-0.44,0.168-0.72,0.168C68.521,725.237,67.841,724.445,67.841,722.495z M70.626,719.6h0.976v2.343l0.792-2.343h1.104
		l-0.944,2.366l0.959,3.23h-1.087l-0.607-2.119l-0.216,0.616v1.503h-0.976L70.626,719.6L70.626,719.6z M75.122,719.6h0.847
		c0.943,0,1.823,0.384,1.823,1.423v0.04c0,0.72-0.408,1.071-0.808,1.264c0.472,0.208,0.88,0.535,0.88,1.247v0.072
		c0,0.991-0.768,1.551-1.855,1.551h-0.887C75.122,725.197,75.122,719.6,75.122,719.6z M76.113,721.951
		c0.432,0,0.719-0.248,0.719-0.735v-0.017c0-0.487-0.288-0.695-0.719-0.695h-0.016v1.447H76.113z M76.121,724.294
		c0.447,0,0.768-0.264,0.768-0.728v-0.04c0-0.464-0.32-0.728-0.768-0.728h-0.024v1.495h0.024V724.294z M78.273,719.6h2.143v0.928
		h-1.167v1.391h1.031v0.928h-1.031v1.423h1.191v0.928h-2.167V719.6z M80.913,719.6h0.976v4.669h1.031v0.928h-2.007
		C80.913,725.197,80.913,719.6,80.913,719.6z M83.018,722.543v-0.288c0-1.847,0.6-2.734,1.487-2.734s1.486,0.888,1.486,2.734v0.288
		c0,1.847-0.6,2.734-1.486,2.734C83.617,725.277,83.018,724.389,83.018,722.543z M85,722.543v-0.288
		c0-1.439-0.199-1.839-0.495-1.839s-0.496,0.399-0.496,1.839v0.288c0,1.438,0.2,1.839,0.496,1.839S85,723.981,85,722.543z
		 M86.129,719.6h1l0.408,3.43l0.487-3.43h0.903l0.479,3.43l0.416-3.43h0.976l-0.848,5.612h-1.023l-0.464-3.317L88,725.213h-1.023
		L86.129,719.6z"/>
	<path class="st2" d="M84.697,564.543v-0.288c0-1.847,0.6-2.734,1.487-2.734s1.487,0.887,1.487,2.734v0.288
		c0,1.847-0.6,2.734-1.487,2.734S84.697,566.389,84.697,564.543z M86.68,564.543v-0.288c0-1.439-0.199-1.839-0.495-1.839
		s-0.496,0.399-0.496,1.839v0.288c0,1.439,0.2,1.839,0.496,1.839S86.68,565.982,86.68,564.543z M88.153,561.6h0.871
		c1.063,0,1.808,0.575,1.808,1.887v0.016c0,1.263-0.704,1.863-1.695,1.935h-0.008v1.759h-0.976V561.6z M89.137,564.534
		c0.407-0.024,0.72-0.32,0.72-1v-0.016c0-0.712-0.272-1.016-0.696-1.016H89.13v2.031L89.137,564.534L89.137,564.534z M91.233,561.6
		h2.143v0.927h-1.168v1.391h1.032v0.928h-1.032v1.423h1.191v0.928h-2.166V561.6z M93.873,561.6h0.911l0.983,2.83v-2.83h0.952v5.597
		h-0.864l-1.031-2.966v2.966h-0.951L93.873,561.6L93.873,561.6z M99.089,562.527H98.4V561.6h2.352v0.927h-0.688v4.669h-0.976
		L99.089,562.527L99.089,562.527z M100.905,564.543v-0.288c0-1.847,0.6-2.734,1.486-2.734c0.888,0,1.487,0.887,1.487,2.734v0.288
		c0,1.847-0.6,2.734-1.487,2.734C101.505,567.277,100.905,566.389,100.905,564.543z M102.888,564.543v-0.288
		c0-1.439-0.2-1.839-0.496-1.839s-0.495,0.399-0.495,1.839v0.288c0,1.439,0.199,1.839,0.495,1.839S102.888,565.982,102.888,564.543z
		 M80.025,569.6h0.911c1.247,0,1.959,0.903,1.959,2.702v0.192c0,1.799-0.712,2.703-1.959,2.703h-0.911V569.6z M81.041,574.301
		c0.463,0,0.863-0.408,0.863-1.807v-0.192c0-1.399-0.4-1.807-0.863-1.807h-0.04v3.806H81.041z M83.377,569.6h2.143v0.927h-1.167
		v1.391h1.031v0.928h-1.031v1.423h1.191v0.928h-2.167V569.6z M85.841,572.494v-0.192c0-1.967,0.728-2.742,1.64-2.742
		c0.271,0,0.432,0.032,0.64,0.128v1.007c-0.2-0.12-0.36-0.184-0.544-0.184c-0.432,0-0.744,0.384-0.744,1.783v0.208
		c0,1.479,0.312,1.783,0.76,1.783c0.152,0,0.344-0.056,0.544-0.176v0.959c-0.224,0.128-0.439,0.168-0.72,0.168
		C86.521,575.237,85.841,574.445,85.841,572.494z M88.625,569.6h0.976v2.342l0.791-2.342h1.104l-0.943,2.366l0.96,3.23h-1.088
		l-0.607-2.119l-0.216,0.616v1.503h-0.976L88.625,569.6L88.625,569.6z M93.121,569.6h0.848c0.943,0,1.822,0.384,1.822,1.423v0.04
		c0,0.72-0.407,1.071-0.807,1.263c0.472,0.208,0.879,0.536,0.879,1.248v0.072c0,0.992-0.768,1.551-1.854,1.551h-0.888V569.6z
		 M94.112,571.951c0.432,0,0.72-0.248,0.72-0.736v-0.016c0-0.487-0.288-0.695-0.72-0.695h-0.016v1.447H94.112z M94.12,574.294
		c0.448,0,0.768-0.264,0.768-0.728v-0.04c0-0.464-0.319-0.728-0.768-0.728h-0.023v1.495h0.023V574.294z M96.272,569.6h2.144v0.927
		h-1.168v1.391h1.031v0.928h-1.031v1.423h1.191v0.928h-2.167V569.6z M98.913,569.6h0.976v4.669h1.031v0.928h-2.007
		C98.913,575.197,98.913,569.6,98.913,569.6z M101.017,572.543v-0.288c0-1.847,0.6-2.734,1.487-2.734s1.487,0.887,1.487,2.734v0.288
		c0,1.847-0.6,2.734-1.487,2.734S101.017,574.389,101.017,572.543z M103,572.543v-0.288c0-1.439-0.2-1.839-0.496-1.839
		s-0.496,0.399-0.496,1.839v0.288c0,1.439,0.2,1.839,0.496,1.839S103,573.982,103,572.543z M104.129,569.6h0.999l0.408,3.43
		l0.487-3.43h0.904l0.479,3.43l0.416-3.43h0.976l-0.848,5.613h-1.023l-0.464-3.318L106,575.213h-1.023L104.129,569.6z"/>
	<path class="st2" d="M38.075,548.912v-0.288c0-1.847,0.6-2.734,1.487-2.734s1.487,0.887,1.487,2.734v0.288
		c0,1.847-0.6,2.734-1.487,2.734S38.075,550.758,38.075,548.912z M40.058,548.912v-0.288c0-1.439-0.2-1.839-0.496-1.839
		s-0.496,0.399-0.496,1.839v0.288c0,1.439,0.2,1.839,0.496,1.839S40.058,550.351,40.058,548.912z M41.443,547.984
		c0.592-0.128,0.711-0.552,0.672-0.903h-0.496v-1.111h1.104v0.911c0,0.848-0.408,1.392-1.199,1.495L41.443,547.984z M43.211,551.374
		v-1.016c0.344,0.2,0.616,0.312,0.879,0.312c0.28,0,0.52-0.136,0.52-0.479v-0.016c0-0.256-0.08-0.448-0.543-0.976
		c-0.664-0.751-0.936-1.111-0.936-1.791v-0.016c0-0.896,0.583-1.463,1.359-1.463c0.392,0,0.624,0.056,0.863,0.176v1.016
		c-0.304-0.176-0.488-0.256-0.744-0.256c-0.271,0-0.503,0.176-0.503,0.479v0.016c0,0.264,0.08,0.36,0.543,0.896
		c0.768,0.887,0.936,1.231,0.936,1.871v0.016c0,0.879-0.616,1.463-1.383,1.463C43.819,551.606,43.491,551.51,43.211,551.374z
		 M45.931,545.969h0.976v2.318h0.848v-2.318h0.975v5.597h-0.975v-2.351h-0.848v2.351h-0.976V545.969z M49.307,545.969h2.143v0.927
		h-1.167v1.391h1.031v0.928h-1.031v1.423h1.191v0.928h-2.167V545.969z M51.947,545.969h2.143v0.927h-1.167v1.391h1.032v0.928h-1.032
		v1.423h1.191v0.928h-2.167V545.969z M54.587,545.969h0.976v2.318h0.848v-2.318h0.975v5.597H56.41v-2.351h-0.848v2.351h-0.976
		v-5.597H54.587z M58.747,545.953h1.04l1.063,5.613h-0.976l-0.184-1.111h-0.887l-0.176,1.111h-0.943L58.747,545.953z
		 M59.546,549.575l-0.296-1.847l-0.304,1.847H59.546z M61.147,545.969h0.912l0.983,2.83v-2.83h0.951v5.597H63.13l-1.031-2.966v2.966
		h-0.952C61.147,551.566,61.147,545.969,61.147,545.969z M64.483,547.984c0.592-0.128,0.711-0.552,0.671-0.903h-0.496v-1.111h1.104
		v0.911c0,0.848-0.408,1.392-1.199,1.495L64.483,547.984z M66.251,551.374v-1.016c0.344,0.2,0.616,0.312,0.879,0.312
		c0.28,0,0.52-0.136,0.52-0.479v-0.016c0-0.256-0.08-0.448-0.543-0.976c-0.664-0.751-0.936-1.111-0.936-1.791v-0.016
		c0-0.896,0.583-1.463,1.359-1.463c0.392,0,0.624,0.056,0.863,0.176v1.016c-0.304-0.176-0.488-0.256-0.744-0.256
		c-0.271,0-0.503,0.176-0.503,0.479v0.016c0,0.264,0.08,0.36,0.543,0.896c0.768,0.887,0.936,1.231,0.936,1.871v0.016
		c0,0.879-0.616,1.463-1.383,1.463C66.858,551.606,66.531,551.51,66.251,551.374z M34.867,553.969h0.912l0.983,2.83v-2.83h0.952
		v5.597H36.85l-1.031-2.966v2.966h-0.952V553.969z M38.291,553.969h2.143v0.927h-1.167v1.391h1.031v0.928h-1.031v1.423h1.191v0.928
		h-2.167V553.969z M40.947,553.969h0.975v5.597h-0.975V553.969z M42.419,556.863v-0.192c0-1.807,0.768-2.742,1.871-2.742
		c0.296,0,0.544,0.064,0.744,0.16v1.016c-0.24-0.144-0.456-0.24-0.711-0.24c-0.56,0-0.912,0.56-0.912,1.767v0.272
		c0,1.463,0.432,1.799,0.832,1.799c0.032,0,0.04,0,0.088-0.008v-1.431h-0.479v-0.872h1.367v2.975c-0.352,0.152-0.64,0.24-1.016,0.24
		C43.227,559.606,42.419,558.815,42.419,556.863z M45.755,553.969h0.976v2.318h0.848v-2.318h0.976v5.597h-0.976v-2.351H46.73v2.351
		h-0.976v-5.597H45.755z M49.131,553.969h0.848c0.943,0,1.823,0.384,1.823,1.423v0.04c0,0.72-0.408,1.071-0.808,1.263
		c0.472,0.208,0.879,0.536,0.879,1.248v0.072c0,0.992-0.768,1.551-1.855,1.551H49.13L49.131,553.969L49.131,553.969z M50.123,556.32
		c0.432,0,0.72-0.248,0.72-0.736v-0.016c0-0.487-0.288-0.695-0.72-0.695h-0.016v1.447H50.123z M50.13,558.663
		c0.448,0,0.768-0.264,0.768-0.728v-0.04c0-0.464-0.32-0.728-0.768-0.728h-0.024v1.495h0.024V558.663z M52.187,556.912v-0.288
		c0-1.847,0.6-2.734,1.487-2.734s1.487,0.887,1.487,2.734v0.288c0,1.847-0.6,2.734-1.487,2.734S52.187,558.758,52.187,556.912z
		 M54.17,556.912v-0.288c0-1.439-0.2-1.839-0.496-1.839s-0.496,0.399-0.496,1.839v0.288c0,1.439,0.2,1.839,0.496,1.839
		S54.17,558.351,54.17,556.912z M55.643,553.969h1.007c1,0,1.727,0.527,1.727,1.783v0.072c0,0.728-0.288,1.191-0.656,1.472
		l0.752,2.271h-1.04l-0.632-1.951h-0.184v1.951h-0.976v-5.598H55.643z M56.667,556.735c0.424,0,0.735-0.248,0.735-0.903v-0.064
		c0-0.704-0.335-0.888-0.759-0.888h-0.024v1.855L56.667,556.735L56.667,556.735z M58.827,553.969h0.975v2.318h0.848v-2.318h0.976
		v5.597H60.65v-2.351h-0.848v2.351h-0.975C58.827,559.566,58.827,553.969,58.827,553.969z M62.107,556.912v-0.288
		c0-1.847,0.6-2.734,1.487-2.734c0.887,0,1.487,0.887,1.487,2.734v0.288c0,1.847-0.6,2.734-1.487,2.734
		S62.107,558.758,62.107,556.912z M64.09,556.912v-0.288c0-1.439-0.2-1.839-0.496-1.839s-0.496,0.399-0.496,1.839v0.288
		c0,1.439,0.2,1.839,0.496,1.839S64.09,558.351,64.09,556.912z M65.467,556.912v-0.288c0-1.847,0.6-2.734,1.487-2.734
		s1.487,0.887,1.487,2.734v0.288c0,1.847-0.6,2.734-1.487,2.734S65.467,558.758,65.467,556.912z M67.45,556.912v-0.288
		c0-1.439-0.2-1.839-0.496-1.839s-0.496,0.399-0.496,1.839v0.288c0,1.439,0.2,1.839,0.496,1.839S67.45,558.351,67.45,556.912z
		 M68.923,553.969h0.912c1.247,0,1.959,0.903,1.959,2.702v0.192c0,1.799-0.712,2.703-1.959,2.703h-0.912V553.969z M69.938,558.671
		c0.464,0,0.863-0.408,0.863-1.807v-0.192c0-1.399-0.399-1.807-0.863-1.807h-0.04v3.806H69.938z M39.419,561.969h0.847
		c0.944,0,1.823,0.384,1.823,1.423v0.04c0,0.72-0.408,1.071-0.808,1.263c0.472,0.208,0.879,0.536,0.879,1.248v0.072
		c0,0.992-0.768,1.551-1.855,1.551h-0.887L39.419,561.969L39.419,561.969z M40.411,564.32c0.432,0,0.72-0.248,0.72-0.736v-0.016
		c0-0.487-0.288-0.695-0.72-0.695h-0.016v1.447H40.411z M40.419,566.663c0.447,0,0.768-0.264,0.768-0.728v-0.04
		c0-0.464-0.32-0.728-0.768-0.728h-0.024v1.495h0.024V566.663z M43.315,561.953h1.04l1.063,5.613h-0.976l-0.184-1.111h-0.887
		l-0.176,1.111h-0.943L43.315,561.953z M44.114,565.575l-0.296-1.847l-0.304,1.847H44.114z M45.715,561.969h1.007
		c1,0,1.727,0.527,1.727,1.783v0.072c0,0.728-0.288,1.191-0.656,1.472l0.752,2.271h-1.04l-0.632-1.951h-0.184v1.951h-0.976v-5.598
		H45.715z M46.739,564.735c0.424,0,0.735-0.248,0.735-0.903v-0.064c0-0.704-0.335-0.888-0.759-0.888h-0.024v1.855L46.739,564.735
		L46.739,564.735z M49.987,566.135v-0.048c0-0.68,0.32-1.184,0.855-1.647c-0.312-0.503-0.472-0.879-0.472-1.271v-0.056
		c0-0.671,0.464-1.223,1.159-1.223c0.68,0,1.127,0.496,1.127,1.215v0.056c0,0.64-0.304,1.087-0.792,1.503l0.504,0.959
		c0.04-0.176,0.072-0.416,0.12-0.751l0.752,0.136c-0.072,0.632-0.2,1.08-0.36,1.439l0.464,0.792l-0.704,0.432l-0.271-0.496
		c-0.264,0.296-0.552,0.472-1.04,0.472C50.611,567.646,49.987,567.047,49.987,566.135z M51.954,566.535l-0.704-1.392
		c-0.208,0.256-0.328,0.592-0.328,0.872v0.064c0,0.432,0.208,0.72,0.528,0.72C51.658,566.798,51.818,566.703,51.954,566.535z
		 M51.482,564.008c0.248-0.24,0.344-0.528,0.344-0.824v-0.063c0-0.272-0.128-0.448-0.312-0.448c-0.192,0-0.312,0.176-0.312,0.416
		v0.08C51.203,563.392,51.291,563.64,51.482,564.008z M54.819,564.863v-0.192c0-1.807,0.768-2.742,1.871-2.742
		c0.296,0,0.544,0.064,0.744,0.16v1.016c-0.24-0.144-0.456-0.24-0.711-0.24c-0.56,0-0.912,0.56-0.912,1.767v0.272
		c0,1.463,0.432,1.799,0.832,1.799c0.032,0,0.04,0,0.088-0.008v-1.431h-0.479v-0.872h1.367v2.975c-0.352,0.152-0.64,0.24-1.016,0.24
		C55.627,567.606,54.819,566.815,54.819,564.863z M58.155,561.969h1.007c1,0,1.727,0.527,1.727,1.783v0.072
		c0,0.728-0.288,1.191-0.656,1.472l0.751,2.271h-1.039l-0.632-1.951H59.13v1.951h-0.975
		C58.155,567.567,58.155,561.969,58.155,561.969z M59.179,564.735c0.424,0,0.735-0.248,0.735-0.903v-0.064
		c0-0.704-0.336-0.888-0.76-0.888H59.13v1.855L59.179,564.735L59.179,564.735z M61.355,561.969h0.976v5.597h-0.976V561.969z
		 M62.923,561.969h0.976v4.669h1.031v0.928h-2.007V561.969z M65.323,561.969h0.976v4.669h1.032v0.928h-2.007L65.323,561.969
		L65.323,561.969z"/>
	<path class="st2" d="M49.241,1063.204h-0.688v-0.927h2.351v0.927h-0.688v4.67H49.24L49.241,1063.204L49.241,1063.204z
		 M51.313,1062.277h0.976v2.318h0.848v-2.318h0.975v5.597h-0.975v-2.351h-0.848v2.351h-0.976V1062.277z M54.689,1062.277h2.143
		v0.927h-1.167v1.392h1.031v0.928h-1.031v1.423h1.191v0.928h-2.167C54.689,1067.875,54.689,1062.277,54.689,1062.277z
		 M58.602,1062.277h0.967l0.688,2.047l0.688-2.047h0.967v5.597h-0.936v-3.383l-0.711,2.119h-0.017l-0.711-2.119v3.383h-0.936
		L58.602,1062.277L58.602,1062.277z M63.272,1062.26h1.04l1.062,5.613H64.4l-0.185-1.111h-0.888l-0.176,1.111h-0.943L63.272,1062.26
		z M64.072,1065.883l-0.296-1.848l-0.304,1.848H64.072z M65.673,1062.277h0.911l0.983,2.83v-2.83h0.952v5.597h-0.864l-1.031-2.967
		v2.967h-0.951L65.673,1062.277L65.673,1062.277z M69.098,1062.277h0.976v2.318h0.847v-2.318h0.976v5.597H70.92v-2.351h-0.847v2.351
		h-0.976L69.098,1062.277L69.098,1062.277z M73.257,1062.26h1.04l1.062,5.613h-0.975l-0.185-1.111h-0.888l-0.176,1.111h-0.943
		L73.257,1062.26z M74.057,1065.883l-0.296-1.848l-0.304,1.848H74.057z M75.937,1063.204h-0.688v-0.927H77.6v0.927h-0.688v4.67
		h-0.976L75.937,1063.204L75.937,1063.204z M78.528,1063.204H77.84v-0.927h2.351v0.927h-0.688v4.67h-0.976v-4.67H78.528z
		 M81.145,1062.26h1.039l1.063,5.613h-0.975l-0.185-1.111H81.2l-0.176,1.111h-0.943L81.145,1062.26z M81.944,1065.883l-0.296-1.848
		l-0.304,1.848H81.944z M83.545,1062.277h0.911l0.983,2.83v-2.83h0.951v5.597h-0.863l-1.031-2.967v2.967h-0.951
		C83.545,1067.874,83.545,1062.277,83.545,1062.277z M88.241,1062.277h1.007c1,0,1.728,0.527,1.728,1.782v0.072
		c0,0.729-0.288,1.191-0.655,1.472l0.751,2.271h-1.039l-0.632-1.951h-0.184v1.951h-0.976V1062.277z M89.265,1065.044
		c0.424,0,0.735-0.248,0.735-0.904v-0.063c0-0.704-0.336-0.888-0.76-0.888h-0.023v1.855H89.265z M91.328,1065.219v-0.288
		c0-1.847,0.601-2.734,1.487-2.734c0.888,0,1.487,0.888,1.487,2.734v0.288c0,1.847-0.6,2.734-1.487,2.734
		C91.929,1067.954,91.328,1067.066,91.328,1065.219z M93.312,1065.219v-0.288c0-1.439-0.2-1.839-0.496-1.839
		s-0.495,0.399-0.495,1.839v0.288c0,1.439,0.199,1.839,0.495,1.839S93.312,1066.659,93.312,1065.219z M94.689,1065.219v-0.288
		c0-1.847,0.6-2.734,1.486-2.734c0.888,0,1.487,0.888,1.487,2.734v0.288c0,1.847-0.6,2.734-1.487,2.734
		C95.289,1067.954,94.689,1067.066,94.689,1065.219z M96.672,1065.219v-0.288c0-1.439-0.2-1.839-0.496-1.839
		s-0.495,0.399-0.495,1.839v0.288c0,1.439,0.199,1.839,0.495,1.839S96.672,1066.659,96.672,1065.219z M98.145,1062.277h0.967
		l0.688,2.047l0.688-2.047h0.967v5.597h-0.936v-3.383l-0.711,2.119h-0.017l-0.711-2.119v3.383h-0.936L98.145,1062.277
		L98.145,1062.277z M60.621,1070.277h1.007c1,0,1.728,0.527,1.728,1.782v0.072c0,0.729-0.288,1.191-0.656,1.472l0.752,2.271h-1.039
		l-0.632-1.951h-0.184v1.951h-0.976V1070.277z M61.645,1073.044c0.424,0,0.735-0.248,0.735-0.904v-0.063
		c0-0.704-0.336-0.888-0.76-0.888h-0.023v1.855H61.645z M63.805,1070.277h2.143v0.927H64.78v1.392h1.031v0.928H64.78v1.423h1.191
		v0.928h-2.167L63.805,1070.277L63.805,1070.277z M66.325,1075.682v-1.016c0.344,0.199,0.615,0.312,0.88,0.312
		c0.279,0,0.52-0.136,0.52-0.479v-0.016c0-0.256-0.08-0.448-0.544-0.977c-0.664-0.751-0.936-1.111-0.936-1.791v-0.016
		c0-0.896,0.584-1.463,1.359-1.463c0.392,0,0.624,0.056,0.863,0.176v1.016c-0.304-0.176-0.487-0.256-0.743-0.256
		c-0.272,0-0.504,0.176-0.504,0.479v0.017c0,0.264,0.08,0.359,0.544,0.895c0.768,0.888,0.936,1.231,0.936,1.871v0.016
		c0,0.88-0.616,1.464-1.384,1.464C66.933,1075.914,66.605,1075.817,66.325,1075.682z M69.444,1071.204h-0.688v-0.927h2.351v0.927
		H70.42v4.67h-0.976V1071.204z M72.06,1070.26h1.04l1.062,5.613h-0.975l-0.185-1.111h-0.888l-0.176,1.111h-0.943L72.06,1070.26z
		 M72.859,1073.883l-0.296-1.848l-0.304,1.848H72.859z M74.404,1074.243v-3.966h0.968v4.062c0,0.504,0.176,0.703,0.424,0.703
		s0.424-0.199,0.424-0.703v-4.062h0.968v3.966c0,1.176-0.592,1.703-1.392,1.703S74.404,1075.419,74.404,1074.243z M77.749,1070.277
		h1.007c1,0,1.728,0.527,1.728,1.782v0.072c0,0.729-0.288,1.191-0.655,1.472l0.751,2.271h-1.04l-0.632-1.951h-0.184v1.951h-0.976
		L77.749,1070.277L77.749,1070.277z M78.772,1073.044c0.424,0,0.735-0.248,0.735-0.904v-0.063c0-0.704-0.336-0.888-0.76-0.888
		h-0.023v1.855H78.772z M81.716,1070.26h1.04l1.062,5.613h-0.975l-0.185-1.111H81.77l-0.176,1.111h-0.943L81.716,1070.26z
		 M82.516,1073.883l-0.296-1.848l-0.304,1.848H82.516z M84.116,1070.277h0.911l0.983,2.83v-2.83h0.952v5.597h-0.864l-1.031-2.967
		v2.967h-0.951L84.116,1070.277L84.116,1070.277z M88.061,1071.204h-0.688v-0.927h2.351v0.927h-0.688v4.67H88.06L88.061,1071.204
		L88.061,1071.204z"/>
	<path class="st2" d="M102.795,899.447v-1.015c0.344,0.199,0.615,0.312,0.88,0.312c0.279,0,0.52-0.136,0.52-0.479v-0.017
		c0-0.256-0.08-0.447-0.544-0.975c-0.664-0.752-0.936-1.112-0.936-1.791v-0.017c0-0.896,0.584-1.463,1.359-1.463
		c0.392,0,0.624,0.056,0.863,0.176v1.016c-0.304-0.176-0.487-0.256-0.743-0.256c-0.272,0-0.504,0.176-0.504,0.479v0.016
		c0,0.265,0.08,0.36,0.544,0.896c0.768,0.888,0.936,1.231,0.936,1.871v0.017c0,0.879-0.616,1.463-1.384,1.463
		C103.402,899.679,103.074,899.584,102.795,899.447z M105.515,894.043h0.976v2.318h0.848v-2.318h0.975v5.597h-0.975v-2.351h-0.848
		v2.351h-0.976V894.043z M109.674,894.026h1.039l1.063,5.613h-0.975l-0.185-1.111h-0.888l-0.176,1.111h-0.943L109.674,894.026z
		 M110.474,897.648l-0.296-1.847l-0.304,1.847H110.474z M112.075,894.043h0.911l0.983,2.83v-2.83h0.952v5.597h-0.864l-1.031-2.967
		v2.967h-0.951L112.075,894.043L112.075,894.043z M115.402,896.937v-0.192c0-1.807,0.768-2.742,1.871-2.742
		c0.296,0,0.544,0.063,0.744,0.16v1.015c-0.24-0.144-0.456-0.239-0.712-0.239c-0.56,0-0.911,0.56-0.911,1.767v0.272
		c0,1.463,0.432,1.799,0.831,1.799c0.032,0,0.04,0,0.088-0.008v-1.432h-0.479v-0.871h1.367v2.974c-0.352,0.152-0.64,0.24-1.016,0.24
		C116.21,899.679,115.402,898.887,115.402,896.937z M118.739,894.043h0.976v2.318h0.848v-2.318h0.975v5.597h-0.975v-2.351h-0.848
		v2.351h-0.976V894.043z M122.898,894.026h1.039l1.063,5.613h-0.975l-0.185-1.111h-0.888l-0.176,1.111h-0.943L122.898,894.026z
		 M123.698,897.648l-0.296-1.847l-0.304,1.847H123.698z M125.314,894.043h0.976v5.597h-0.976V894.043z M126.795,896.057
		c0.592-0.128,0.711-0.552,0.671-0.903h-0.495v-1.111h1.104v0.911c0,0.848-0.408,1.392-1.199,1.495L126.795,896.057z
		 M128.563,899.447v-1.015c0.344,0.199,0.615,0.312,0.88,0.312c0.279,0,0.52-0.136,0.52-0.479v-0.017
		c0-0.256-0.08-0.447-0.544-0.975c-0.664-0.752-0.936-1.112-0.936-1.791v-0.017c0-0.896,0.584-1.463,1.359-1.463
		c0.392,0,0.624,0.056,0.863,0.176v1.016c-0.304-0.176-0.487-0.256-0.743-0.256c-0.272,0-0.504,0.176-0.504,0.479v0.016
		c0,0.265,0.08,0.36,0.544,0.896c0.768,0.888,0.936,1.231,0.936,1.871v0.017c0,0.879-0.616,1.463-1.384,1.463
		C129.17,899.679,128.842,899.584,128.563,899.447z M102.455,902.043h0.911l0.983,2.83v-2.83h0.951v5.597h-0.863l-1.031-2.967v2.967
		h-0.951C102.455,907.64,102.455,902.043,102.455,902.043z M105.783,904.985v-0.288c0-1.847,0.6-2.734,1.486-2.734
		c0.888,0,1.487,0.888,1.487,2.734v0.288c0,1.847-0.6,2.734-1.487,2.734C106.383,907.719,105.783,906.832,105.783,904.985z
		 M107.766,904.985v-0.288c0-1.439-0.2-1.839-0.496-1.839s-0.495,0.399-0.495,1.839v0.288c0,1.438,0.199,1.839,0.495,1.839
		S107.766,906.423,107.766,904.985z M109.143,904.985v-0.288c0-1.847,0.601-2.734,1.487-2.734c0.888,0,1.487,0.888,1.487,2.734
		v0.288c0,1.847-0.6,2.734-1.487,2.734S109.143,906.832,109.143,904.985z M111.126,904.985v-0.288c0-1.439-0.2-1.839-0.496-1.839
		s-0.495,0.399-0.495,1.839v0.288c0,1.438,0.199,1.839,0.495,1.839S111.126,906.423,111.126,904.985z M112.599,902.043h0.911
		c1.247,0,1.959,0.903,1.959,2.702v0.192c0,1.799-0.712,2.702-1.959,2.702h-0.911V902.043z M113.614,906.744
		c0.463,0,0.863-0.408,0.863-1.807v-0.192c0-1.399-0.4-1.807-0.863-1.807h-0.04v3.806H113.614z M115.951,902.043h0.976v4.669h1.031
		v0.928h-2.007C115.951,907.64,115.951,902.043,115.951,902.043z M118.351,902.043h2.143v0.928h-1.167v1.391h1.031v0.928h-1.031
		v1.423h1.191v0.928h-2.167V902.043z M122.263,902.043h0.848c0.943,0,1.822,0.384,1.822,1.423v0.04c0,0.72-0.407,1.071-0.808,1.264
		c0.473,0.208,0.88,0.535,0.88,1.247v0.072c0,0.991-0.768,1.551-1.854,1.551h-0.888V902.043z M123.254,904.393
		c0.432,0,0.72-0.248,0.72-0.735v-0.017c0-0.487-0.288-0.695-0.72-0.695h-0.016v1.447H123.254z M123.262,906.736
		c0.448,0,0.768-0.264,0.768-0.728v-0.04c0-0.464-0.319-0.728-0.768-0.728h-0.023v1.495h0.023V906.736z M126.158,902.026h1.039
		l1.063,5.613h-0.975l-0.185-1.111h-0.888l-0.176,1.111h-0.943L126.158,902.026z M126.958,905.648l-0.296-1.847l-0.304,1.847
		H126.958z M128.559,902.043h1.007c1,0,1.728,0.527,1.728,1.783v0.071c0,0.728-0.288,1.191-0.656,1.472l0.752,2.271h-1.039
		l-0.632-1.951h-0.184v1.951h-0.976L128.559,902.043L128.559,902.043z M129.582,904.809c0.424,0,0.735-0.248,0.735-0.904v-0.063
		c0-0.704-0.336-0.888-0.76-0.888h-0.023v1.855H129.582z"/>
	<path class="st2" d="M126.753,467.76h1.007c1,0,1.728,0.527,1.728,1.783v0.072c0,0.728-0.288,1.191-0.656,1.472l0.752,2.271h-1.039
		l-0.632-1.951h-0.184v1.951h-0.976L126.753,467.76L126.753,467.76z M127.776,470.527c0.424,0,0.735-0.248,0.735-0.903v-0.064
		c0-0.704-0.336-0.888-0.76-0.888h-0.023v1.855H127.776z M129.937,467.76h1.007c1,0,1.728,0.527,1.728,1.783v0.072
		c0,0.728-0.288,1.191-0.656,1.472l0.752,2.271h-1.039l-0.632-1.951h-0.184v1.951h-0.976L129.937,467.76L129.937,467.76z
		 M130.96,470.527c0.424,0,0.735-0.248,0.735-0.903v-0.064c0-0.704-0.336-0.888-0.76-0.888h-0.023v1.855H130.96z"/>
	<path class="st2" d="M41.563,464.741h1.007c1,0,1.728,0.527,1.728,1.783v0.072c0,0.728-0.288,1.191-0.656,1.472l0.752,2.271h-1.039
		l-0.632-1.951h-0.184v1.951h-0.976V464.741z M42.586,467.507c0.424,0,0.735-0.248,0.735-0.903v-0.064
		c0-0.704-0.336-0.888-0.76-0.888h-0.023v1.855H42.586z M44.746,464.741h1.007c1,0,1.728,0.527,1.728,1.783v0.072
		c0,0.728-0.288,1.191-0.656,1.472l0.752,2.271h-1.039l-0.632-1.951h-0.184v1.951h-0.976V464.741z M45.77,467.507
		c0.424,0,0.735-0.248,0.735-0.903v-0.064c0-0.704-0.336-0.888-0.76-0.888h-0.023v1.855H45.77z"/>
	<path class="st2" d="M107.935,408.991h0.848c0.943,0,1.822,0.384,1.822,1.423v0.04c0,0.72-0.407,1.071-0.808,1.263
		c0.472,0.208,0.88,0.536,0.88,1.248v0.072c0,0.992-0.768,1.551-1.854,1.551h-0.888V408.991z M108.926,411.341
		c0.432,0,0.72-0.248,0.72-0.736v-0.016c0-0.487-0.288-0.695-0.72-0.695h-0.016v1.447H108.926z M108.934,413.684
		c0.448,0,0.768-0.264,0.768-0.728v-0.04c0-0.464-0.319-0.728-0.768-0.728h-0.023v1.495h0.023V413.684z M110.991,411.933v-0.288
		c0-1.847,0.6-2.734,1.486-2.734c0.888,0,1.487,0.887,1.487,2.734v0.288c0,1.847-0.6,2.734-1.487,2.734
		C111.591,414.668,110.991,413.78,110.991,411.933z M112.974,411.933v-0.288c0-1.439-0.2-1.839-0.496-1.839
		s-0.495,0.399-0.495,1.839v0.288c0,1.439,0.199,1.839,0.495,1.839S112.974,413.372,112.974,411.933z M114.975,411.733l-0.88-2.742
		h1.04l0.439,1.615l0.447-1.615h1.016l-0.879,2.742l0.911,2.854h-1.039l-0.472-1.703l-0.48,1.703h-1.015L114.975,411.733z
		 M104.966,419.933v-0.288c0-1.847,0.601-2.734,1.487-2.734c0.888,0,1.487,0.887,1.487,2.734v0.288c0,1.847-0.6,2.734-1.487,2.734
		C105.566,422.668,104.966,421.78,104.966,419.933z M106.949,419.933v-0.288c0-1.439-0.2-1.839-0.496-1.839
		s-0.495,0.399-0.495,1.839v0.288c0,1.439,0.199,1.839,0.495,1.839S106.949,421.372,106.949,419.933z M108.423,416.991h2.039v0.927
		h-1.063v1.407h0.927v0.927h-0.927v2.335h-0.976V416.991z M110.902,416.991h2.039v0.927h-1.063v1.407h0.927v0.927h-0.927v2.335
		h-0.976V416.991z M113.398,416.991h0.976v5.597h-0.976V416.991z M114.87,419.885v-0.192c0-1.967,0.729-2.742,1.64-2.742
		c0.271,0,0.432,0.032,0.64,0.128v1.007c-0.2-0.12-0.359-0.184-0.544-0.184c-0.432,0-0.743,0.384-0.743,1.783v0.208
		c0,1.479,0.312,1.783,0.76,1.783c0.151,0,0.344-0.056,0.543-0.176v0.959c-0.224,0.128-0.439,0.168-0.72,0.168
		C115.55,422.628,114.87,421.836,114.87,419.885z M117.654,416.991h2.143v0.927h-1.167v1.391h1.031v0.928h-1.031v1.423h1.191v0.928
		h-2.167V416.991z"/>
	<path class="st2" d="M66.421,1124.279h0.911c1.247,0,1.959,0.903,1.959,2.702v0.191c0,1.8-0.712,2.703-1.959,2.703h-0.911V1124.279
		z M67.437,1128.98c0.463,0,0.863-0.407,0.863-1.808v-0.191c0-1.398-0.4-1.807-0.863-1.807h-0.04v3.806H67.437z M70.477,1124.262
		h1.04l1.062,5.613h-0.975l-0.185-1.111h-0.888l-0.176,1.111h-0.943L70.477,1124.262z M71.277,1127.885l-0.296-1.848l-0.304,1.848
		H71.277z M72.877,1124.279h0.911l0.983,2.83v-2.83h0.952v5.597H74.86l-1.031-2.967v2.967h-0.951v-5.597H72.877z M76.205,1127.172
		v-0.191c0-1.967,0.729-2.742,1.64-2.742c0.271,0,0.432,0.031,0.64,0.128v1.007c-0.2-0.119-0.359-0.184-0.544-0.184
		c-0.432,0-0.743,0.384-0.743,1.783v0.208c0,1.479,0.312,1.782,0.76,1.782c0.151,0,0.344-0.055,0.543-0.176v0.96
		c-0.224,0.128-0.439,0.168-0.72,0.168C76.885,1129.916,76.205,1129.124,76.205,1127.172z M78.989,1124.279h2.143v0.927h-1.167
		v1.392h1.031v0.928h-1.031v1.423h1.191v0.928h-2.167V1124.279z M66.733,1132.279h2.039v0.927h-1.063v1.408h0.927v0.927h-0.927
		v2.335h-0.976V1132.279z M69.213,1132.279h0.976v4.669h1.031v0.928h-2.007V1132.279z M71.316,1135.221v-0.288
		c0-1.847,0.601-2.734,1.487-2.734c0.888,0,1.487,0.888,1.487,2.734v0.288c0,1.847-0.6,2.734-1.487,2.734
		C71.917,1137.956,71.316,1137.068,71.316,1135.221z M73.299,1135.221v-0.288c0-1.439-0.2-1.839-0.496-1.839
		s-0.495,0.399-0.495,1.839v0.288c0,1.439,0.199,1.839,0.495,1.839S73.299,1136.661,73.299,1135.221z M74.677,1135.221v-0.288
		c0-1.847,0.6-2.734,1.486-2.734c0.888,0,1.488,0.888,1.488,2.734v0.288c0,1.847-0.6,2.734-1.488,2.734
		C75.277,1137.956,74.677,1137.068,74.677,1135.221z M76.66,1135.221v-0.288c0-1.439-0.201-1.839-0.497-1.839
		s-0.495,0.399-0.495,1.839v0.288c0,1.439,0.199,1.839,0.495,1.839S76.66,1136.661,76.66,1135.221z M78.134,1132.279h1.007
		c1,0,1.728,0.527,1.728,1.782v0.072c0,0.729-0.288,1.191-0.655,1.472l0.751,2.271h-1.039l-0.632-1.951H79.11v1.951h-0.976V1132.279
		z M79.157,1135.046c0.424,0,0.735-0.248,0.735-0.904v-0.063c0-0.704-0.336-0.888-0.76-0.888h-0.023v1.855H79.157z"/>
	<path class="st2" d="M36.312,963.739h1.007c1,0,1.728,0.527,1.728,1.783v0.071c0,0.728-0.288,1.191-0.656,1.472l0.752,2.271h-1.039
		l-0.632-1.951h-0.184v1.951h-0.976V963.739z M37.335,966.505c0.424,0,0.735-0.247,0.735-0.902v-0.064
		c0-0.703-0.336-0.888-0.76-0.888h-0.023v1.854H37.335z M39.495,963.739h1.007c1,0,1.728,0.527,1.728,1.783v0.071
		c0,0.728-0.288,1.191-0.656,1.472l0.752,2.271h-1.039l-0.632-1.951h-0.184v1.951h-0.976V963.739z M40.519,966.505
		c0.424,0,0.735-0.247,0.735-0.902v-0.064c0-0.703-0.336-0.888-0.76-0.888h-0.023v1.854H40.519z"/>
	<path class="st2" d="M106.186,963.739h1.007c1,0,1.728,0.527,1.728,1.783v0.071c0,0.728-0.288,1.191-0.656,1.472l0.752,2.271
		h-1.039l-0.632-1.951h-0.184v1.951h-0.976C106.186,969.336,106.186,963.739,106.186,963.739z M107.209,966.505
		c0.424,0,0.735-0.247,0.735-0.902v-0.064c0-0.703-0.336-0.888-0.76-0.888h-0.023v1.854H107.209z M109.369,963.739h1.007
		c1,0,1.728,0.527,1.728,1.783v0.071c0,0.728-0.288,1.191-0.656,1.472l0.752,2.271h-1.039l-0.632-1.951h-0.184v1.951h-0.976V963.739
		z M110.393,966.505c0.424,0,0.735-0.247,0.735-0.902v-0.064c0-0.703-0.336-0.888-0.76-0.888h-0.023v1.854H110.393z"/>
	<path class="st2" d="M92.402,615.375h0.848c0.943,0,1.822,0.384,1.822,1.423v0.04c0,0.72-0.407,1.071-0.808,1.263
		c0.472,0.209,0.88,0.536,0.88,1.248v0.072c0,0.991-0.768,1.551-1.854,1.551h-0.888V615.375z M93.394,617.725
		c0.432,0,0.72-0.248,0.72-0.736v-0.016c0-0.487-0.288-0.695-0.72-0.695h-0.016v1.447H93.394z M93.401,620.068
		c0.448,0,0.768-0.265,0.768-0.728v-0.04c0-0.464-0.319-0.728-0.768-0.728h-0.023v1.495h0.023V620.068z M96.298,615.358h1.04
		l1.062,5.613h-0.975l-0.185-1.111h-0.888l-0.176,1.111h-0.943L96.298,615.358z M97.098,618.981l-0.296-1.848l-0.304,1.848H97.098z
		 M98.698,615.375h1.007c1,0,1.728,0.527,1.728,1.782v0.072c0,0.729-0.288,1.191-0.655,1.472l0.751,2.271h-1.039l-0.632-1.951
		h-0.184v1.951h-0.976V615.375z M99.722,618.141c0.424,0,0.735-0.248,0.735-0.904v-0.063c0-0.704-0.336-0.888-0.76-0.888h-0.023
		v1.855H99.722z"/>
	<path class="st2" d="M15.473,949.051h1.007c1,0,1.728,0.527,1.728,1.783v0.071c0,0.728-0.288,1.191-0.656,1.472l0.752,2.271h-1.039
		l-0.632-1.951h-0.184v1.951h-0.976C15.473,954.648,15.473,949.051,15.473,949.051z M16.496,951.817
		c0.424,0,0.735-0.247,0.735-0.902v-0.064c0-0.703-0.336-0.888-0.76-0.888h-0.023v1.854H16.496z M18.656,949.051h1.007
		c1,0,1.728,0.527,1.728,1.783v0.071c0,0.728-0.288,1.191-0.656,1.472l0.752,2.271h-1.039l-0.632-1.951h-0.184v1.951h-0.976
		C18.656,954.648,18.656,949.051,18.656,949.051z M19.68,951.817c0.424,0,0.735-0.247,0.735-0.902v-0.064
		c0-0.703-0.336-0.888-0.76-0.888h-0.023v1.854H19.68z"/>
	<path class="st2" d="M40.173,379.262h0.848c0.943,0,1.822,0.384,1.822,1.423v0.04c0,0.72-0.407,1.071-0.808,1.263
		c0.472,0.208,0.88,0.536,0.88,1.248v0.072c0,0.992-0.768,1.551-1.854,1.551h-0.888V379.262z M41.165,381.613
		c0.432,0,0.72-0.248,0.72-0.736v-0.016c0-0.487-0.288-0.695-0.72-0.695h-0.016v1.447H41.165z M41.172,383.956
		c0.448,0,0.768-0.264,0.768-0.728v-0.04c0-0.464-0.319-0.728-0.768-0.728h-0.023v1.495h0.023V383.956z M44.069,379.246h1.04
		l1.062,5.613h-0.975l-0.185-1.111h-0.888l-0.176,1.111h-0.943L44.069,379.246z M44.869,382.868l-0.296-1.847l-0.304,1.847H44.869z
		 M46.469,379.262h1.007c1,0,1.728,0.527,1.728,1.783v0.072c0,0.728-0.288,1.191-0.655,1.472l0.751,2.271h-1.04l-0.632-1.951h-0.184
		v1.951h-0.976L46.469,379.262L46.469,379.262L46.469,379.262z M47.493,382.028c0.424,0,0.735-0.248,0.735-0.903v-0.064
		c0-0.704-0.336-0.888-0.76-0.888h-0.023v1.855H47.493z"/>
	<path class="st2" d="M50.18,288.749h0.848c0.943,0,1.822,0.384,1.822,1.423v0.04c0,0.72-0.407,1.071-0.808,1.263
		c0.472,0.208,0.88,0.536,0.88,1.248v0.072c0,0.992-0.768,1.551-1.854,1.551H50.18V288.749z M51.171,291.099
		c0.432,0,0.72-0.248,0.72-0.736v-0.016c0-0.487-0.288-0.695-0.72-0.695h-0.016v1.447H51.171z M51.179,293.442
		c0.448,0,0.768-0.264,0.768-0.728v-0.04c0-0.464-0.319-0.728-0.768-0.728h-0.023v1.495h0.023V293.442z M53.332,288.749h1.007
		c1,0,1.728,0.527,1.728,1.783v0.072c0,0.728-0.288,1.191-0.656,1.472l0.752,2.271h-1.039l-0.632-1.951h-0.184v1.951h-0.976V288.749
		z M54.355,291.515c0.424,0,0.735-0.248,0.735-0.903v-0.064c0-0.704-0.336-0.888-0.76-0.888h-0.023v1.855H54.355z M56.516,288.749
		h2.143v0.927h-1.167v1.391h1.031v0.928h-1.031v1.423h1.191v0.928h-2.167V288.749z M59.938,288.733h1.04l1.062,5.613h-0.975
		l-0.185-1.111h-0.888l-0.176,1.111h-0.943L59.938,288.733z M60.738,292.355l-0.296-1.847l-0.304,1.847H60.738z M62.34,288.749
		h0.976v2.342l0.791-2.342h1.104l-0.943,2.366l0.959,3.23H64.14l-0.607-2.119l-0.216,0.616v1.503H62.34V288.749z M66.227,288.733
		h1.039l1.063,5.613h-0.975l-0.185-1.111h-0.888l-0.176,1.111h-0.943L66.227,288.733z M67.026,292.355l-0.296-1.847l-0.304,1.847
		H67.026z M68.324,288.749h0.999l0.408,3.43l0.487-3.43h0.903l0.479,3.43l0.416-3.43h0.976l-0.848,5.613h-1.023l-0.464-3.318
		l-0.464,3.318H69.17L68.324,288.749z M74.026,288.733h1.04l1.062,5.613h-0.975l-0.185-1.111H74.08l-0.176,1.111h-0.943
		L74.026,288.733z M74.826,292.355l-0.296-1.847l-0.304,1.847H74.826z M76.858,292.138l-1.039-3.39h1.008l0.527,2.095l0.536-2.095
		h0.983l-1.04,3.39v2.207h-0.976L76.858,292.138L76.858,292.138z M80.955,289.676h-0.688v-0.927h2.351v0.927H81.93v4.669h-0.976
		L80.955,289.676L80.955,289.676z M83.027,288.749h0.976v2.318h0.847v-2.318h0.976v5.597H84.85v-2.351h-0.847v2.351h-0.976V288.749z
		 M86.403,288.749h2.143v0.927h-1.167v1.391h1.031v0.928h-1.031v1.423h1.191v0.928h-2.167V288.749z M89.826,288.733h1.039
		l1.063,5.613h-0.975l-0.185-1.111H89.88l-0.176,1.111h-0.943L89.826,288.733z M90.626,292.355l-0.296-1.847l-0.304,1.847H90.626z
		 M92.507,289.676h-0.688v-0.927h2.351v0.927h-0.688v4.669h-0.976v-4.669H92.507z M94.579,288.749h2.143v0.927h-1.167v1.391h1.031
		v0.928h-1.031v1.423h1.191v0.928h-2.167V288.749z M97.219,288.749h1.007c1,0,1.728,0.527,1.728,1.783v0.072
		c0,0.728-0.288,1.191-0.656,1.472l0.752,2.271h-1.04l-0.632-1.951h-0.184v1.951h-0.976L97.219,288.749L97.219,288.749z
		 M98.242,291.515c0.424,0,0.735-0.248,0.735-0.903v-0.064c0-0.704-0.336-0.888-0.76-0.888h-0.023v1.855H98.242z"/>
	<path class="st2" d="M66.81,333.338v-0.288c0-1.847,0.6-2.734,1.487-2.734c0.888,0,1.487,0.887,1.487,2.734v0.288
		c0,1.847-0.6,2.734-1.487,2.734C67.409,336.072,66.81,335.184,66.81,333.338z M68.792,333.338v-0.288
		c0-1.439-0.2-1.839-0.496-1.839c-0.295,0-0.496,0.399-0.496,1.839v0.288c0,1.439,0.2,1.839,0.496,1.839
		C68.592,335.176,68.792,334.777,68.792,333.338z M70.265,330.395h0.872c1.063,0,1.807,0.575,1.807,1.887v0.016
		c0,1.263-0.704,1.863-1.695,1.935h-0.008v1.759h-0.976V330.395z M71.249,333.329c0.408-0.024,0.719-0.32,0.719-1v-0.016
		c0-0.712-0.272-1.016-0.695-1.016h-0.032v2.031L71.249,333.329L71.249,333.329z M73.345,330.395h2.143v0.927h-1.167v1.391h1.031
		v0.928h-1.031v1.423h1.191v0.928h-2.167V330.395z M75.985,330.395h0.911l0.983,2.83v-2.83h0.952v5.597h-0.864l-1.031-2.966v2.966
		h-0.951L75.985,330.395L75.985,330.395z M81.201,331.322h-0.688v-0.927h2.351v0.927h-0.688v4.669h-0.975
		C81.201,335.991,81.201,331.322,81.201,331.322z M83.018,333.338v-0.288c0-1.847,0.6-2.734,1.486-2.734
		c0.888,0,1.487,0.887,1.487,2.734v0.288c0,1.847-0.6,2.734-1.487,2.734C83.617,336.072,83.018,335.184,83.018,333.338z M85,333.338
		v-0.288c0-1.439-0.2-1.839-0.496-1.839c-0.295,0-0.495,0.399-0.495,1.839v0.288c0,1.439,0.2,1.839,0.495,1.839
		C84.8,335.176,85,334.777,85,333.338z M62.137,338.395h0.912c1.248,0,1.959,0.903,1.959,2.702v0.192
		c0,1.799-0.711,2.703-1.959,2.703h-0.912C62.137,343.992,62.137,338.395,62.137,338.395z M63.153,343.096
		c0.464,0,0.864-0.408,0.864-1.807v-0.192c0-1.399-0.4-1.807-0.864-1.807h-0.04v3.806H63.153z M65.489,338.395h2.143v0.927h-1.167
		v1.391h1.031v0.928h-1.031v1.423h1.191v0.928h-2.167V338.395z M67.953,341.289v-0.192c0-1.967,0.728-2.742,1.639-2.742
		c0.272,0,0.432,0.032,0.64,0.128v1.007c-0.2-0.12-0.36-0.184-0.543-0.184c-0.432,0-0.744,0.384-0.744,1.783v0.208
		c0,1.479,0.312,1.783,0.759,1.783c0.152,0,0.344-0.056,0.544-0.176v0.959c-0.224,0.128-0.44,0.168-0.72,0.168
		C68.633,344.032,67.953,343.24,67.953,341.289z M70.737,338.395h0.976v2.342l0.792-2.342h1.103l-0.943,2.366l0.959,3.23h-1.087
		l-0.607-2.119l-0.216,0.616v1.503h-0.976L70.737,338.395L70.737,338.395z M75.233,338.395h0.847c0.944,0,1.823,0.384,1.823,1.423
		v0.04c0,0.72-0.407,1.071-0.808,1.263c0.473,0.208,0.88,0.536,0.88,1.248v0.072c0,0.992-0.768,1.551-1.855,1.551h-0.887
		C75.233,343.992,75.233,338.395,75.233,338.395z M76.225,340.746c0.432,0,0.72-0.248,0.72-0.736v-0.016
		c0-0.487-0.288-0.695-0.72-0.695h-0.016v1.447H76.225z M76.232,343.089c0.448,0,0.768-0.264,0.768-0.728v-0.04
		c0-0.464-0.319-0.728-0.768-0.728h-0.024v1.495h0.024V343.089z M78.385,338.395h2.144v0.927H79.36v1.391h1.032v0.928H79.36v1.423
		h1.191v0.928h-2.167L78.385,338.395L78.385,338.395z M81.025,338.395h0.976v4.669h1.031v0.928h-2.007
		C81.025,343.992,81.025,338.395,81.025,338.395z M83.129,341.338v-0.288c0-1.847,0.6-2.734,1.487-2.734s1.487,0.887,1.487,2.734
		v0.288c0,1.847-0.6,2.734-1.487,2.734S83.129,343.184,83.129,341.338z M85.112,341.338v-0.288c0-1.439-0.2-1.839-0.496-1.839
		s-0.496,0.399-0.496,1.839v0.288c0,1.439,0.2,1.839,0.496,1.839S85.112,342.777,85.112,341.338z M86.241,338.395h0.999l0.408,3.43
		l0.487-3.43h0.904l0.479,3.43l0.416-3.43h0.975l-0.847,5.613H89.04l-0.464-3.318l-0.464,3.318h-1.023L86.241,338.395z"/>
	<path class="st2" d="M103.778,819.894h0.848c0.943,0,1.822,0.384,1.822,1.423v0.04c0,0.72-0.407,1.071-0.808,1.263
		c0.472,0.209,0.88,0.536,0.88,1.248v0.072c0,0.991-0.768,1.551-1.854,1.551h-0.888V819.894z M104.77,822.245
		c0.432,0,0.72-0.248,0.72-0.736v-0.016c0-0.487-0.288-0.695-0.72-0.695h-0.016v1.447H104.77z M104.777,824.588
		c0.448,0,0.768-0.265,0.768-0.728v-0.04c0-0.464-0.319-0.728-0.768-0.728h-0.023v1.495h0.023V824.588z M106.931,819.894h1.007
		c1,0,1.728,0.527,1.728,1.782v0.072c0,0.729-0.288,1.191-0.656,1.472l0.752,2.271h-1.039l-0.632-1.951h-0.184v1.951h-0.976V819.894
		z M107.954,822.661c0.424,0,0.735-0.248,0.735-0.904v-0.063c0-0.704-0.336-0.888-0.76-0.888h-0.023v1.855H107.954z
		 M110.114,819.894h2.143v0.927h-1.167v1.392h1.031v0.928h-1.031v1.423h1.191v0.928h-2.167V819.894z M113.537,819.878h1.04
		l1.062,5.613h-0.975l-0.185-1.111h-0.888l-0.176,1.111h-0.943L113.537,819.878z M114.337,823.501l-0.296-1.848l-0.304,1.848
		H114.337z M115.938,819.894h0.976v2.343l0.791-2.343h1.104l-0.943,2.366l0.959,3.23h-1.087l-0.607-2.119l-0.216,0.616v1.503h-0.976
		L115.938,819.894L115.938,819.894z M119.825,819.878h1.039l1.063,5.613h-0.975l-0.185-1.111h-0.888l-0.176,1.111h-0.943
		L119.825,819.878z M120.625,823.501l-0.296-1.848l-0.304,1.848H120.625z M121.923,819.894h0.999l0.408,3.43l0.487-3.43h0.903
		l0.479,3.43l0.416-3.43h0.976l-0.848,5.612h-1.023l-0.464-3.318l-0.464,3.318h-1.023L121.923,819.894z M127.625,819.878h1.04
		l1.062,5.613h-0.975l-0.185-1.111h-0.888l-0.176,1.111h-0.943L127.625,819.878z M128.425,823.501l-0.296-1.848l-0.304,1.848
		H128.425z M130.457,823.284l-1.039-3.39h1.008l0.527,2.095l0.536-2.095h0.983l-1.04,3.39v2.207h-0.976v-2.207H130.457z
		 M109.755,830.788v-0.191c0-1.967,0.728-2.742,1.639-2.742c0.271,0,0.432,0.031,0.64,0.128v1.007
		c-0.2-0.119-0.36-0.184-0.544-0.184c-0.432,0-0.743,0.384-0.743,1.783v0.208c0,1.479,0.312,1.782,0.76,1.782
		c0.151,0,0.344-0.055,0.543-0.176v0.96c-0.224,0.128-0.439,0.168-0.72,0.168C110.434,833.531,109.755,832.739,109.755,830.788z
		 M113.322,827.878h1.04l1.062,5.613h-0.975l-0.185-1.111h-0.888l-0.176,1.111h-0.943L113.322,827.878z M114.122,831.501
		l-0.296-1.848l-0.304,1.848H114.122z M115.603,833.299v-1.016c0.344,0.199,0.615,0.312,0.88,0.312c0.279,0,0.52-0.136,0.52-0.479
		V832.1c0-0.256-0.08-0.448-0.544-0.977c-0.664-0.751-0.936-1.111-0.936-1.791v-0.016c0-0.896,0.584-1.463,1.359-1.463
		c0.392,0,0.624,0.056,0.863,0.176v1.016c-0.304-0.176-0.487-0.256-0.743-0.256c-0.272,0-0.504,0.176-0.504,0.479v0.017
		c0,0.264,0.08,0.359,0.544,0.895c0.768,0.888,0.936,1.231,0.936,1.871v0.016c0,0.88-0.616,1.464-1.384,1.464
		C116.21,833.531,115.882,833.434,115.603,833.299z M118.338,827.894h0.976v5.597h-0.976V827.894z M119.906,827.894h0.911
		l0.983,2.83v-2.83h0.952v5.597h-0.864l-1.031-2.967v2.967h-0.951L119.906,827.894L119.906,827.894z M123.233,830.837v-0.288
		c0-1.847,0.601-2.734,1.487-2.734c0.888,0,1.487,0.888,1.487,2.734v0.288c0,1.847-0.6,2.734-1.487,2.734
		C123.834,833.571,123.233,832.683,123.233,830.837z M125.217,830.837v-0.288c0-1.439-0.2-1.839-0.496-1.839
		s-0.495,0.399-0.495,1.839v0.288c0,1.439,0.199,1.839,0.495,1.839S125.217,832.276,125.217,830.837z"/>
	<path class="st2" d="M91.148,1149.797h0.848c0.943,0,1.822,0.384,1.822,1.423v0.04c0,0.72-0.406,1.071-0.807,1.263
		c0.471,0.209,0.879,0.536,0.879,1.248v0.072c0,0.991-0.768,1.551-1.854,1.551h-0.889L91.148,1149.797L91.148,1149.797z
		 M92.141,1152.147c0.432,0,0.719-0.248,0.719-0.736v-0.016c0-0.487-0.287-0.695-0.719-0.695h-0.016v1.447L92.141,1152.147
		L92.141,1152.147z M92.148,1154.49c0.447,0,0.768-0.265,0.768-0.728v-0.04c0-0.464-0.32-0.728-0.768-0.728h-0.023v1.495h0.023
		V1154.49z M95.045,1149.78h1.039l1.062,5.613h-0.975l-0.184-1.111H95.1l-0.176,1.111H93.98L95.045,1149.78z M95.844,1153.403
		l-0.295-1.848l-0.305,1.848H95.844z M97.445,1149.797h0.91l0.984,2.83v-2.83h0.951v5.597h-0.863l-1.031-2.967v2.967h-0.951
		C97.445,1155.394,97.445,1149.797,97.445,1149.797z M100.869,1149.797h0.91c1.248,0,1.959,0.903,1.959,2.702v0.191
		c0,1.8-0.711,2.703-1.959,2.703h-0.91V1149.797z M101.885,1154.498c0.463,0,0.863-0.407,0.863-1.808v-0.191
		c0-1.398-0.4-1.807-0.863-1.807h-0.041v3.806H101.885z M104.061,1155.202v-1.016c0.344,0.199,0.615,0.312,0.881,0.312
		c0.279,0,0.52-0.136,0.52-0.479v-0.016c0-0.256-0.08-0.448-0.545-0.977c-0.664-0.751-0.936-1.111-0.936-1.791v-0.016
		c0-0.896,0.584-1.463,1.359-1.463c0.393,0,0.625,0.056,0.863,0.176v1.016c-0.303-0.176-0.486-0.256-0.742-0.256
		c-0.273,0-0.504,0.176-0.504,0.479v0.017c0,0.264,0.08,0.359,0.543,0.895c0.768,0.888,0.936,1.231,0.936,1.871v0.016
		c0,0.88-0.615,1.464-1.383,1.464C104.668,1155.433,104.34,1155.337,104.061,1155.202z M107.18,1150.723h-0.688v-0.927h2.352v0.927
		h-0.688v4.67h-0.977v-4.67H107.18z M109.797,1149.78h1.039l1.062,5.613h-0.975l-0.184-1.111h-0.889l-0.176,1.111h-0.943
		L109.797,1149.78z M110.596,1153.403l-0.295-1.848l-0.305,1.848H110.596z M112.197,1149.797h0.91l0.984,2.83v-2.83h0.951v5.597
		h-0.863l-1.031-2.967v2.967h-0.951C112.197,1155.394,112.197,1149.797,112.197,1149.797z M115.621,1149.797h0.91
		c1.248,0,1.959,0.903,1.959,2.702v0.191c0,1.8-0.711,2.703-1.959,2.703h-0.91V1149.797z M116.637,1154.498
		c0.463,0,0.863-0.407,0.863-1.808v-0.191c0-1.398-0.4-1.807-0.863-1.807h-0.041v3.806H116.637z"/>
</g>
<g id="BREAKAWAY_DECK_07_TOP">
	<path class="st3" d="M148.378,1152.818c-13.826,16.182-35.904,16.435-35.904,16.435c-6.698,1.012-38.326,1.265-38.326,1.265
		c-19.97,0.506-45.768-2.024-45.768-2.024c-17.241-0.885-27.879-16.11-27.879-16.11V207.327l-0.033,3.174
		c0,0-0.683-63.167,3.817-84.667H6.45c0,0,6.595-28.085,20.333-56.834C42.606,35.888,66.332,1.458,74.45,0.834l0.418-0.124
		c8.118,0.624,31.843,35.054,47.665,68.166c13.738,28.749,20.334,56.834,20.334,56.834h2.166c4.5,21.5,3.297,84.667,3.297,84.667
		l0.048-0.766V626.48v-0.267V783.04v370.115"/>
	<g id="gDeck07Locations">
		<rect id="_x30_7Aft" x="0.25" y="728.133" class="st4" width="148.378" height="443.008"/>
		<rect id="_x30_7Middle" x="0.25" y="429.183" class="st4" width="148.378" height="298.95"/>
		<rect id="_x30_7Forward" x="0.25" class="st4" width="148.378" height="429.183"/>
	</g>
</g>
</svg>
