<?xml version="1.0" encoding="utf-8"?>
<!-- Generator: Adobe Illustrator 25.4.1, SVG Export Plug-In . SVG Version: 6.00 Build 0)  -->
<svg version="1.1" id="GEM_DECK_14" xmlns="http://www.w3.org/2000/svg" xmlns:xlink="http://www.w3.org/1999/xlink" x="0px"
	 y="0px" width="131.4px" height="891px" viewBox="0 0 131.4 891" style="enable-background:new 0 0 131.4 891;"
	 xml:space="preserve">
<style type="text/css">
	.st0{fill:#FFFFFF;}
	.st1{fill:none;stroke:#D5DCE0;stroke-width:0.5;}
	.st2{fill:#6E8496;}
	.st3{fill:#CCDDE2;}
	.st4{fill:#EFF2F5;stroke:#FFFFFF;stroke-width:0.5;stroke-miterlimit:10;}
	.st5{fill:none;}
	.st6{fill:none;stroke:#076FA0;stroke-miterlimit:10;}
</style>
<g id="GEM_DECK_14_BOTTOM">
	<path class="st0" d="M6.5,12c0,0,23-9.5,58.5-10.5S126,13,126,13v141l-16,0.5v135c0,0-10-16-42.5-16s-43.5,16-43.5,16v-111L0.5,178
		v-13l6-8.5V12z"/>
	<polygon class="st0" points="113,890.4 113,870.4 119,869.4 119,785.4 102.5,785.4 102.5,732.4 108.5,732.4 108.9,724.7 130,724.9 
		130,506.4 65.5,483.4 0,506.4 0,724.9 21.4,725 21.6,732.2 27.8,732.2 27.5,784.4 11.5,784.4 11.5,868.9 17,868.9 17,890.4 	"/>
	<path class="st1" d="M121.6,154.1L122,19.5c-56.2-18.6-111.2,0-111.2,0v135.4L0.7,170.3"/>
	<path class="st1" d="M16.6,18.2l16.1,28c0,0,4.9,10.1-7.7,15.4H10.7"/>
	<path class="st1" d="M30.3,50.8c0,4.4-3.5,7.9-7.9,7.9s-7.9-3.5-7.9-7.9s3.5-7.9,7.9-7.9S30.3,46.4,30.3,50.8z"/>
	<path class="st1" d="M116.8,18l-16.3,28.2c0,0-4.9,10.1,7.7,15.4h13.9"/>
	<path class="st1" d="M102.9,50.8c0,4.4,3.5,7.9,7.9,7.9s7.9-3.5,7.9-7.9s-3.5-7.9-7.9-7.9C106.4,42.9,102.9,46.4,102.9,50.8z"/>
	<polyline class="st1" points="87.8,151.7 98.1,151.7 102.2,147.6 102.2,88.5 68.6,88.5 64.1,88.5 30.5,88.5 30.5,147.6 34.6,151.7 
		51.1,151.7 	"/>
	<polyline class="st1" points="92.7,88.9 92.7,99.7 101.9,99.7 	"/>
	<polyline class="st1" points="39.7,88.9 39.7,99.7 30.5,99.7 	"/>
	<polyline class="st1" points="50.9,151.6 50.9,166.8 46.1,166.8 46.1,170.5 	"/>
	<line class="st1" x1="88.1" y1="152.1" x2="88.1" y2="171.2"/>
	<line class="st1" x1="24.3" y1="225.5" x2="30.6" y2="225.5"/>
	<line class="st1" x1="24.3" y1="222.8" x2="30.6" y2="222.8"/>
	<line class="st1" x1="24.3" y1="220.1" x2="30.6" y2="220.1"/>
	<line class="st1" x1="24.3" y1="217.3" x2="30.6" y2="217.3"/>
	<line class="st1" x1="24.3" y1="214.6" x2="30.6" y2="214.6"/>
	<rect x="24.4" y="211.9" class="st1" width="6.3" height="16.4"/>
	<line class="st1" x1="39.9" y1="199.2" x2="45" y2="199.2"/>
	<line class="st1" x1="39.9" y1="196.5" x2="45" y2="196.5"/>
	<line class="st1" x1="39.9" y1="193.8" x2="45" y2="193.8"/>
	<line class="st1" x1="39.9" y1="191" x2="45" y2="191"/>
	<line class="st1" x1="39.9" y1="188.3" x2="45" y2="188.3"/>
	<rect x="40" y="185.6" class="st1" width="5.1" height="16.4"/>
	<line class="st1" x1="101.9" y1="225.5" x2="108.3" y2="225.5"/>
	<line class="st1" x1="101.9" y1="222.8" x2="108.3" y2="222.8"/>
	<line class="st1" x1="101.9" y1="220.1" x2="108.3" y2="220.1"/>
	<line class="st1" x1="101.9" y1="217.3" x2="108.3" y2="217.3"/>
	<line class="st1" x1="101.9" y1="214.6" x2="108.3" y2="214.6"/>
	<rect x="102.1" y="211.9" class="st1" width="6.3" height="16.4"/>
	<polyline class="st1" points="88,171 88,207.2 46.2,207.2 46.2,168.5 	"/>
	<path class="st1" d="M78.2,207.2c-0.5,6.7-5.5,11.9-11.7,11.9c-6.1,0-11-5.1-11.7-11.7"/>
	<path class="st1" d="M57,207.2c0,0.9,0.2,1.9,0.4,2.9c3.1,7.2,9,6.6,9,6.6h0.2c0,0,6,0.6,9-6.6c0.3-1.2,0.4-2.3,0.4-3.3"/>
	<rect x="43.9" y="583.2" class="st1" width="42.9" height="16.4"/>
	<rect x="48" y="606.1" class="st1" width="35.4" height="68.6"/>
	<rect x="58.7" y="620.3" class="st1" width="14" height="47.1"/>
	<rect x="48" y="687.2" class="st1" width="10.2" height="16.4"/>
	<line class="st1" x1="48" y1="673.7" x2="48" y2="688.4"/>
	<rect x="73.2" y="686.9" class="st1" width="10.1" height="16.6"/>
	<line class="st1" x1="83.4" y1="673.7" x2="83.4" y2="688.4"/>
	<polygon class="st1" points="36.6,703.5 94.2,703.5 93.9,845.5 37.1,845.5 	"/>
	<polyline class="st1" points="78.8,674.8 78.8,681 64.1,681 	"/>
	<line class="st1" x1="83.4" y1="685.8" x2="64.1" y2="685.8"/>
	<rect x="59.8" y="624.4" class="st1" width="11.8" height="11.8"/>
	<line class="st1" x1="77.1" y1="681.2" x2="77.1" y2="685.5"/>
	<line class="st1" x1="75.9" y1="681.2" x2="75.9" y2="685.5"/>
	<line class="st1" x1="74.7" y1="681.2" x2="74.7" y2="685.5"/>
	<line class="st1" x1="78.7" y1="678.1" x2="83" y2="678.1"/>
	<line class="st1" x1="78.7" y1="679.4" x2="83" y2="679.4"/>
	<line class="st1" x1="78.7" y1="680.6" x2="83" y2="680.6"/>
	<line class="st1" x1="73.4" y1="681.2" x2="73.4" y2="685.5"/>
	<line class="st1" x1="72.2" y1="681.2" x2="72.2" y2="685.5"/>
	<line class="st1" x1="71" y1="681.2" x2="71" y2="685.5"/>
	<line class="st1" x1="69.8" y1="681.1" x2="69.8" y2="685.5"/>
	<line class="st1" x1="68.6" y1="681.1" x2="68.6" y2="685.5"/>
	<line class="st1" x1="67.3" y1="681.1" x2="67.3" y2="685.5"/>
	<line class="st1" x1="66.1" y1="681.1" x2="66.1" y2="685.5"/>
	<line class="st1" x1="64.9" y1="681.1" x2="64.9" y2="685.5"/>
	<polygon class="st1" points="55.9,581.1 55.9,572.5 66,572.5 66,581.1 	"/>
	<polygon class="st1" points="45.8,581.1 45.8,572.5 55.9,572.5 55.9,581.1 	"/>
	<polygon class="st1" points="75.9,581.1 75.9,572.5 86,572.5 86,581.1 	"/>
	<polygon class="st1" points="65.8,581.1 65.8,572.5 75.9,572.5 75.9,581.1 	"/>
	<path class="st1" d="M75,560.2v-21.9c0-0.6-0.4-1-1-1H57.8c-0.5,0-1,0.4-1,1v21.9H75z"/>
	<polygon class="st1" points="55.8,793.8 55.8,785.2 65.8,785.2 65.8,793.8 	"/>
	<polygon class="st1" points="45.7,793.8 45.7,785.2 55.8,785.2 55.8,793.8 	"/>
	<polygon class="st1" points="75.8,793.8 75.8,785.2 85.9,785.2 85.9,793.8 	"/>
	<polygon class="st1" points="65.7,793.8 65.7,785.2 75.8,785.2 75.8,793.8 	"/>
	<line class="st1" x1="36.9" y1="785.2" x2="93.9" y2="785.2"/>
	<line class="st1" x1="36.5" y1="733.2" x2="94.1" y2="733.2"/>
	<line class="st1" x1="65.8" y1="537.7" x2="65.8" y2="560.2"/>
	<line class="st1" x1="66.1" y1="547.6" x2="74.9" y2="547.6"/>
	<line class="st1" x1="66.1" y1="549.1" x2="74.9" y2="549.1"/>
	<line class="st1" x1="66.1" y1="550.6" x2="74.9" y2="550.6"/>
	<line class="st1" x1="66.1" y1="552.1" x2="74.9" y2="552.1"/>
	<line class="st1" x1="66.1" y1="553.6" x2="74.9" y2="553.6"/>
	<line class="st1" x1="66.1" y1="555.1" x2="74.9" y2="555.1"/>
	<line class="st1" x1="56.8" y1="547.6" x2="65.6" y2="547.6"/>
	<line class="st1" x1="56.8" y1="549.1" x2="65.6" y2="549.1"/>
	<line class="st1" x1="56.8" y1="550.6" x2="65.6" y2="550.6"/>
	<line class="st1" x1="56.8" y1="552.1" x2="65.6" y2="552.1"/>
	<line class="st1" x1="56.8" y1="553.6" x2="65.6" y2="553.6"/>
	<line class="st1" x1="56.8" y1="555.1" x2="65.6" y2="555.1"/>
	<line class="st1" x1="94.3" y1="711.8" x2="100.7" y2="711.8"/>
	<line class="st1" x1="30.5" y1="711.8" x2="36.9" y2="711.8"/>
	<path class="st1" d="M94.1,845.6c7.2,0,13.7-0.5,13.7,9.2c0,9.6,0,14,0,14"/>
	<path class="st1" d="M37.9,845.6c-7.2,0-13.7-0.5-13.7,9.2c0,9.6,0,14,0,14"/>
	<rect x="52.6" y="845.7" class="st1" width="26" height="22.3"/>
	<line class="st1" x1="56.2" y1="581" x2="66" y2="572.7"/>
	<line class="st1" x1="65.8" y1="580.9" x2="56.2" y2="572.8"/>
	<line class="st1" x1="46" y1="581" x2="55.9" y2="572.7"/>
	<line class="st1" x1="55.7" y1="580.8" x2="46.1" y2="572.8"/>
	<line class="st1" x1="76.2" y1="581" x2="86" y2="572.7"/>
	<line class="st1" x1="85.9" y1="580.9" x2="76.2" y2="572.8"/>
	<line class="st1" x1="66.1" y1="581" x2="76" y2="572.7"/>
	<line class="st1" x1="75.7" y1="580.8" x2="66.2" y2="572.8"/>
	<line class="st1" x1="56" y1="793.7" x2="65.8" y2="785.4"/>
	<line class="st1" x1="65.7" y1="793.5" x2="56" y2="785.4"/>
	<line class="st1" x1="45.9" y1="793.6" x2="55.8" y2="785.3"/>
	<line class="st1" x1="55.6" y1="793.5" x2="46" y2="785.4"/>
	<line class="st1" x1="76.1" y1="793.7" x2="85.9" y2="785.4"/>
	<line class="st1" x1="85.8" y1="793.5" x2="76.1" y2="785.4"/>
	<line class="st1" x1="66" y1="793.6" x2="75.9" y2="785.3"/>
	<line class="st1" x1="75.6" y1="793.5" x2="66" y2="785.4"/>
	<path class="st2" d="M55.6,80.7v-1c0.3,0.2,0.6,0.3,0.9,0.3c0.3,0,0.5-0.1,0.5-0.5l0,0c0-0.3-0.1-0.4-0.5-1
		c-0.7-0.8-0.9-1.1-0.9-1.8l0,0c0-0.9,0.6-1.5,1.4-1.5c0.4,0,0.6,0.1,0.9,0.2v1c-0.3-0.2-0.5-0.3-0.7-0.3c-0.3,0-0.5,0.2-0.5,0.5
		l0,0c0,0.3,0.1,0.4,0.5,0.9c0.8,0.9,0.9,1.2,0.9,1.9l0,0c0,0.9-0.6,1.5-1.4,1.5C56.3,80.9,55.9,80.8,55.6,80.7z M58.4,79.3v-4h1
		v4.1c0,0.5,0.2,0.7,0.4,0.7s0.4-0.2,0.4-0.7v-4.1h1v4c0,1.2-0.6,1.7-1.4,1.7C58.9,81,58.4,80.4,58.4,79.3z M61.7,75.3h0.9l1,2.8
		v-2.8h1v5.6h-0.9l-1-3v3h-1V75.3z M66.4,75.3h0.9c1.2,0,2,0.9,2,2.7v0.2c0,1.8-0.7,2.7-2,2.7h-0.9V75.3z M67.4,80
		c0.5,0,0.9-0.4,0.9-1.8V78c0-1.4-0.4-1.8-0.9-1.8l0,0V80L67.4,80z M69.7,75.3h2.1v0.9h-1.2v1.4h1v0.9h-1V80h1.2v0.9h-2.2L69.7,75.3
		L69.7,75.3z M72.2,78.2V78c0-2,0.7-2.7,1.6-2.7c0.3,0,0.4,0,0.6,0.1v1c-0.2-0.1-0.4-0.2-0.5-0.2c-0.4,0-0.7,0.4-0.7,1.8v0.2
		c0,1.5,0.3,1.8,0.8,1.8c0.2,0,0.3-0.1,0.5-0.2v1c-0.2,0.1-0.4,0.2-0.7,0.2C72.9,80.9,72.2,80.2,72.2,78.2z M75,75.3h1v2.3l0.8-2.3
		h1.1L77,77.7l1,3.2h-1.1l-0.6-2.1L76,79.4v1.5h-1V75.3L75,75.3z"/>
	<path class="st2" d="M51.5,668.5v0.7h-0.9v-2.4h0.9v0.7h4.7v1H51.5L51.5,668.5z M50.6,666.4v-1h2.3v-0.8h-2.3v-1h5.6v1h-2.4v0.8
		h2.4v1H50.6z M50.6,663.1V661h0.9v1.2h1.4v-1h0.9v1h1.4V661h0.9v2.2h-5.5V663.1z M50.6,659.2v-1h2.3v-0.8h-2.3v-1h5.6v1h-2.4v0.8
		h2.4v1H50.6z M50.5,655v-1l5.6-1.1v1l-1.1,0.2v0.9l1.1,0.2v0.9L50.5,655z M54.2,654.2l-1.8,0.3l1.8,0.3V654.2z M50.6,653v-1
		l3.6-0.5l-3.6-0.5v-1l5.6,1v1L50.6,653z M50.6,649.7v-2.1h0.9v1.2h1.4v-1h0.9v1h1.4v-1.2h0.9v2.2L50.6,649.7L50.6,649.7z M50.6,647
		v-0.9l2.8-1h-2.8v-1h5.6v0.9l-3,1h3v1H50.6z M53.4,642.4h-0.2c-2,0-2.7-0.7-2.7-1.6c0-0.3,0-0.4,0.1-0.6h1
		c-0.1,0.2-0.2,0.4-0.2,0.5c0,0.4,0.4,0.7,1.8,0.7h0.2c1.5,0,1.8-0.3,1.8-0.8c0-0.2-0.1-0.3-0.2-0.5h1c0.1,0.2,0.2,0.4,0.2,0.7
		C56.2,641.7,55.4,642.4,53.4,642.4z M53.5,639.9h-0.3c-1.8,0-2.7-0.6-2.7-1.5s0.9-1.5,2.7-1.5h0.3c1.8,0,2.7,0.6,2.7,1.5
		S55.3,639.9,53.5,639.9z M53.5,637.9h-0.3c-1.4,0-1.8,0.2-1.8,0.5s0.4,0.5,1.8,0.5h0.3c1.4,0,1.8-0.2,1.8-0.5
		S54.9,637.9,53.5,637.9z M54.5,636.5h-4v-1h4.1c0.5,0,0.7-0.2,0.7-0.4s-0.2-0.4-0.7-0.4h-4.1v-1h4c1.2,0,1.7,0.6,1.7,1.4
		S55.7,636.5,54.5,636.5z M50.6,633.1v-1c0-1,0.5-1.7,1.8-1.7h0.1c0.7,0,1.2,0.3,1.5,0.7l2.3-0.8v1l-2,0.6v0.2h2v1H50.6L50.6,633.1z
		 M53.3,632.1c0-0.4-0.2-0.7-0.9-0.7h-0.1c-0.7,0-0.9,0.3-0.9,0.8l0,0L53.3,632.1L53.3,632.1z M51.5,629.5v0.7h-0.9v-2.4h0.9v0.7
		h4.7v1H51.5L51.5,629.5z M53.9,626.8l-3.4,1v-1l2.1-0.5l-2.1-0.5v-1l3.4,1h2.2v1H53.9L53.9,626.8z M50.5,624v-1l5.6-1.1v1l-1.1,0.2
		v0.9l1.1,0.2v0.9L50.5,624z M54.2,623.2l-1.8,0.3l1.8,0.3V623.2z M50.6,621.6v-1c0-1,0.5-1.7,1.8-1.7h0.1c0.7,0,1.2,0.3,1.5,0.7
		l2.3-0.8v1l-2,0.6v0.2h2v1H50.6L50.6,621.6z M53.3,620.6c0-0.4-0.2-0.7-0.9-0.7h-0.1c-0.7,0-0.9,0.3-0.9,0.8l0,0L53.3,620.6
		L53.3,620.6z M50.6,618.4v-0.9c0-1.2,0.9-2,2.7-2h0.2c1.8,0,2.7,0.7,2.7,2v0.9H50.6z M55.3,617.4c0-0.5-0.4-0.9-1.8-0.9h-0.2
		c-1.4,0-1.8,0.4-1.8,0.9l0,0H55.3L55.3,617.4z"/>
	<path class="st2" d="M75,692.5h1c1,0,1.7,0.5,1.7,1.8v0.1c0,0.7-0.3,1.2-0.7,1.5l0.8,2.3h-1l-0.6-2H76v2h-1
		C75,698.1,75,692.5,75,692.5z M76,695.3c0.4,0,0.7-0.2,0.7-0.9v-0.1c0-0.7-0.3-0.9-0.8-0.9l0,0L76,695.3L76,695.3z M78.2,692.5h1
		c1,0,1.7,0.5,1.7,1.8v0.1c0,0.7-0.3,1.2-0.7,1.5l0.8,2.3h-1l-0.6-2h-0.2v2h-1C78.2,698.2,78.2,692.5,78.2,692.5z M79.2,695.3
		c0.4,0,0.7-0.2,0.7-0.9v-0.1c0-0.7-0.3-0.9-0.8-0.9l0,0L79.2,695.3L79.2,695.3z"/>
	<path class="st2" d="M50.4,692.5h1c1,0,1.7,0.5,1.7,1.8v0.1c0,0.7-0.3,1.2-0.7,1.5l0.8,2.3h-1l-0.6-2h-0.2v2h-1V692.5L50.4,692.5z
		 M51.4,695.3c0.4,0,0.7-0.2,0.7-0.9v-0.1c0-0.7-0.3-0.9-0.8-0.9l0,0L51.4,695.3L51.4,695.3z M53.5,692.5h1c1,0,1.7,0.5,1.7,1.8v0.1
		c0,0.7-0.3,1.2-0.7,1.5l0.8,2.3h-1l-0.6-2h-0.2v2h-1V692.5L53.5,692.5z M54.6,695.3c0.4,0,0.7-0.2,0.7-0.9v-0.1
		c0-0.7-0.3-0.9-0.8-0.9l0,0L54.6,695.3L54.6,695.3z"/>
	<path class="st2" d="M54.6,854.2V854c0-2,0.7-2.7,1.6-2.7c0.3,0,0.4,0,0.6,0.1v1c-0.2-0.1-0.4-0.2-0.5-0.2c-0.4,0-0.7,0.4-0.7,1.8
		v0.2c0,1.5,0.3,1.8,0.8,1.8c0.2,0,0.3-0.1,0.5-0.2v1c-0.2,0.1-0.4,0.2-0.7,0.2C55.3,857,54.6,856.2,54.6,854.2z M57.4,851.4h1v4.7
		h1v0.9h-2V851.4z M59.8,851.4h1v5.6h-1V851.4z M61.4,851.4h1l0.7,2l0.7-2h1v5.6h-0.9v-3.4l-0.7,2.1l0,0l-0.7-2.1v3.4h-0.9
		C61.4,856.9,61.4,851.4,61.4,851.4z M65.3,851.4h0.8c0.9,0,1.8,0.4,1.8,1.4l0,0c0,0.7-0.4,1.1-0.8,1.3c0.5,0.2,0.9,0.5,0.9,1.2v0.1
		c0,1-0.8,1.6-1.9,1.6h-0.9C65.3,856.9,65.3,851.4,65.3,851.4z M66.3,853.7c0.4,0,0.7-0.2,0.7-0.7l0,0c0-0.5-0.3-0.7-0.7-0.7l0,0
		V853.7L66.3,853.7z M66.3,856c0.4,0,0.8-0.3,0.8-0.7l0,0c0-0.5-0.3-0.7-0.8-0.7l0,0V856L66.3,856L66.3,856z M68.5,851.4h1v5.6h-1
		V851.4z M70,851.4h0.9l1,2.8v-2.8h1v5.6H72l-1-3v3h-1V851.4L70,851.4z M73.3,854.2V854c0-1.8,0.8-2.7,1.9-2.7
		c0.3,0,0.5,0.1,0.7,0.2v1c-0.2-0.1-0.5-0.2-0.7-0.2c-0.6,0-0.9,0.6-0.9,1.8v0.3c0,1.5,0.4,1.8,0.8,1.8c0,0,0,0,0.1,0v-1.4h-0.5
		v-0.9h1.4v3c-0.4,0.2-0.6,0.2-1,0.2C74.2,857,73.3,856.2,73.3,854.2z M59.8,859.4h1l0.4,3.4l0.5-3.4h0.9l0.5,3.4l0.4-3.4h1
		l-0.8,5.6h-1l-0.5-3.3l-0.5,3.3h-1L59.8,859.4z M65.5,859.3h1l1.1,5.6h-1l-0.2-1.1h-0.9l-0.2,1.1h-0.9L65.5,859.3z M66.3,863
		l-0.3-1.8l-0.3,1.8H66.3z M67.9,859.4h1v4.7h1v0.9h-2V859.4z M70.3,859.4h1v4.7h1v0.9h-2V859.4z"/>
	<path class="st3" d="M54.6,676.8c-2.2,0-4,1.8-4,4s1.8,4,4,4s4-1.8,4-4S56.8,676.8,54.6,676.8z M53.2,677.3
		c0.1,0.1,0.3,0.1,0.5,0.1c0.3-0.1,0.5-0.1,0.8-0.1s0.6,0.1,0.9,0.1l0,0c-0.2,0-0.5,0.1-0.8,0.1l0,0l0,0c-0.4,0-0.7,0-0.9-0.1
		C53.5,677.4,53.4,677.3,53.2,677.3L53.2,677.3z M51.8,678.3c0.1,0,0.2,0,0.3,0.1c0.2-0.2,0.5-0.4,0.8-0.6c0,0-0.1,0-0.1-0.1
		c-0.1,0-0.1,0-0.2-0.1l0,0c0.1,0,0.1,0.1,0.2,0.1h0.1c0.4,0.2,0.9,0.3,1.8,0.4c0.8,0,1.3-0.1,1.7-0.3l0,0c0.3,0.2,0.5,0.4,0.8,0.6
		l0,0c-0.3,0.1-0.5,0.2-0.7,0.2c-0.4,0.2-0.8,0.4-1.7,0.4l0,0l0,0c-0.8,0-1.3-0.2-1.7-0.4c-0.3-0.1-0.6-0.2-0.9-0.3
		C52,678.3,51.9,678.3,51.8,678.3L51.8,678.3z M51.1,679.7C51.2,679.7,51.2,679.7,51.1,679.7c0.2-0.3,0.3-0.6,0.5-0.9
		c-0.1,0-0.2,0-0.3,0l0,0c0.1,0,0.2,0,0.3,0c0.5,0.1,0.8,0.2,1.1,0.3c0.5,0.2,1,0.4,1.9,0.4c1,0,1.4-0.2,1.9-0.4
		c0.3-0.1,0.5-0.2,0.9-0.3l0,0c0.2,0.3,0.3,0.6,0.4,0.9l0,0c-0.7,0-1.1,0.2-1.5,0.4s-0.8,0.4-1.7,0.4l0,0l0,0
		c-0.8,0-1.3-0.2-1.7-0.4S52,679.7,51.1,679.7C51.2,679.8,51.1,679.7,51.1,679.7L51.1,679.7z M56.4,683.8c-0.5,0.3-1.2,0.5-1.8,0.5
		c-0.8,0-1.6-0.3-2.2-0.8c-0.1,0-0.3-0.1-0.5-0.1l0,0c0.2,0,0.3,0.1,0.5,0.1s0.3,0.1,0.4,0.2c0.5,0.2,1,0.4,1.9,0.4
		C55.6,684.1,56,683.9,56.4,683.8C56.5,683.8,56.4,683.8,56.4,683.8z M57.9,681.9c-0.1,0.3-0.3,0.7-0.5,0.9l0,0
		c-0.4,0.1-0.8,0.2-1.1,0.3c-0.4,0.2-0.8,0.4-1.7,0.4l0,0l0,0c-0.8,0-1.3-0.2-1.7-0.4s-0.8-0.3-1.3-0.4c-0.1,0-0.2,0-0.3,0l0,0
		c0.1,0,0.2,0,0.3,0c-0.2-0.3-0.3-0.6-0.4-0.9h-0.1l0,0c0.1,0,0.1,0,0.1,0c0.7,0,1.1,0.2,1.5,0.3c0.5,0.2,1,0.4,1.9,0.4
		s1.4-0.2,1.9-0.4C57,682.1,57.3,681.9,57.9,681.9L57.9,681.9z M58.1,680.8c0,0.2,0,0.3,0,0.5l0,0c-0.8,0-1.2,0.2-1.7,0.4
		c-0.4,0.2-0.8,0.4-1.7,0.4l0,0l0,0c-0.8,0-1.3-0.2-1.7-0.4c-0.5-0.2-1-0.4-1.9-0.4l0,0c-0.1,0-0.2,0-0.2,0l0,0c0.1,0,0.2,0,0.2,0
		l0,0l0,0l0,0c0-0.1,0-0.3,0-0.4c0-0.2,0-0.3,0-0.5l0,0l0,0l0,0c0.8,0,1.2,0.2,1.7,0.4s1,0.4,1.9,0.4s1.4-0.2,1.9-0.4
		c0.4-0.2,0.8-0.3,1.4-0.3c0.1,0,0.2,0,0.2,0l0,0c-0.1,0-0.2,0-0.2,0C58.1,680.5,58.1,680.7,58.1,680.8z"/>
	<path class="st3" d="M60.3,643.6V665h10.6v-21.4H60.3z M60.8,664.5v-0.7c0.3-0.1,0.7-0.2,1.2-0.2c0.8,0,1.3,0.2,1.7,0.4
		c0.5,0.2,1,0.4,1.9,0.4s1.4-0.2,1.9-0.4c0.4-0.2,0.8-0.4,1.7-0.4c0.5,0,0.8,0.1,1.1,0.1v0.7h-9.5V664.5z M69.2,663
		c-1,0-1.4,0.2-1.9,0.4c-0.4,0.2-0.8,0.4-1.7,0.4s-1.3-0.2-1.7-0.4c-0.5-0.2-1-0.4-1.9-0.4c-0.5,0-0.9,0.1-1.2,0.2v-0.9
		c0.3-0.1,0.7-0.2,1.2-0.2c0.8,0,1.3,0.2,1.7,0.4c0.5,0.2,1,0.4,1.9,0.4s1.4-0.2,1.9-0.4c0.4-0.2,0.8-0.4,1.7-0.4
		c0.5,0,0.8,0.1,1.1,0.1v0.9C70.1,663.1,69.7,663,69.2,663z M69.2,661.5c-1,0-1.4,0.2-1.9,0.4c-0.4,0.2-0.8,0.4-1.7,0.4
		s-1.3-0.2-1.7-0.4c-0.5-0.2-1-0.4-1.9-0.4c-0.5,0-0.9,0.1-1.2,0.2v-0.9c0.3-0.1,0.7-0.2,1.2-0.2c0.8,0,1.3,0.2,1.7,0.4
		c0.5,0.2,1,0.4,1.9,0.4s1.4-0.2,1.9-0.4c0.4-0.2,0.8-0.4,1.7-0.4c0.5,0,0.8,0.1,1.1,0.1v0.9C70.1,661.5,69.7,661.5,69.2,661.5z
		 M69.2,660c-1,0-1.4,0.2-1.9,0.4c-0.4,0.2-0.8,0.4-1.7,0.4s-1.3-0.2-1.7-0.4c-0.5-0.2-1-0.4-1.9-0.4c-0.5,0-0.9,0.1-1.2,0.2v-0.9
		c0.3-0.1,0.7-0.2,1.2-0.2c0.8,0,1.3,0.2,1.7,0.4c0.5,0.2,1,0.4,1.9,0.4s1.4-0.2,1.9-0.4c0.4-0.2,0.8-0.4,1.7-0.4
		c0.5,0,0.8,0.1,1.1,0.1v0.9C70.1,660,69.7,660,69.2,660z M69.2,658.5c-1,0-1.4,0.2-1.9,0.4c-0.4,0.2-0.8,0.4-1.7,0.4
		s-1.3-0.2-1.7-0.4c-0.5-0.2-1-0.4-1.9-0.4c-0.5,0-0.9,0.1-1.2,0.2v-0.9c0.3-0.1,0.7-0.2,1.2-0.2c0.8,0,1.3,0.2,1.7,0.4
		c0.5,0.2,1,0.4,1.9,0.4s1.4-0.2,1.9-0.4c0.4-0.2,0.8-0.4,1.7-0.4c0.5,0,0.8,0.1,1.1,0.1v0.9C70.1,658.5,69.7,658.5,69.2,658.5z
		 M69.2,657c-1,0-1.4,0.2-1.9,0.4c-0.4,0.2-0.8,0.4-1.7,0.4s-1.3-0.2-1.7-0.4c-0.5-0.2-1-0.4-1.9-0.4c-0.5,0-0.9,0.1-1.2,0.2v-0.9
		c0.3-0.1,0.7-0.2,1.2-0.2c0.8,0,1.3,0.2,1.7,0.4c0.5,0.2,1,0.4,1.9,0.4s1.4-0.2,1.9-0.4c0.4-0.2,0.8-0.4,1.7-0.4
		c0.5,0,0.8,0.1,1.1,0.1v0.9C70.1,657,69.7,657,69.2,657z M69.2,655.5c-1,0-1.4,0.2-1.9,0.4c-0.4,0.2-0.8,0.4-1.7,0.4
		s-1.3-0.2-1.7-0.4c-0.5-0.2-1-0.4-1.9-0.4c-0.5,0-0.9,0.1-1.2,0.2v-0.9c0.3-0.1,0.7-0.2,1.2-0.2c0.8,0,1.3,0.2,1.7,0.4
		c0.5,0.2,1,0.4,1.9,0.4s1.4-0.2,1.9-0.4c0.4-0.2,0.8-0.4,1.7-0.4c0.5,0,0.8,0.1,1.1,0.1v0.9C70.1,655.5,69.7,655.5,69.2,655.5z
		 M69.2,654c-1,0-1.4,0.2-1.9,0.4c-0.4,0.2-0.8,0.4-1.7,0.4s-1.3-0.2-1.7-0.4c-0.5-0.2-1-0.4-1.9-0.4c-0.5,0-0.9,0.1-1.2,0.2v-0.9
		c0.3-0.1,0.7-0.2,1.2-0.2c0.8,0,1.3,0.2,1.7,0.4c0.5,0.2,1,0.4,1.9,0.4s1.4-0.2,1.9-0.4c0.4-0.2,0.8-0.4,1.7-0.4
		c0.5,0,0.8,0.1,1.1,0.1v0.9C70.1,654,69.7,654,69.2,654z M69.2,652.5c-1,0-1.4,0.2-1.9,0.4c-0.4,0.2-0.8,0.4-1.7,0.4
		s-1.3-0.2-1.7-0.4c-0.5-0.2-1-0.4-1.9-0.4c-0.5,0-0.9,0.1-1.2,0.2v-0.9c0.3-0.1,0.7-0.2,1.2-0.2c0.8,0,1.3,0.2,1.7,0.4
		c0.5,0.2,1,0.4,1.9,0.4s1.4-0.2,1.9-0.4c0.4-0.2,0.8-0.4,1.7-0.4c0.5,0,0.8,0.1,1.1,0.1v0.9C70.1,652.5,69.7,652.5,69.2,652.5z
		 M69.2,651c-1,0-1.4,0.2-1.9,0.4c-0.4,0.2-0.8,0.4-1.7,0.4s-1.3-0.2-1.7-0.4c-0.5-0.2-1-0.4-1.9-0.4c-0.5,0-0.9,0.1-1.2,0.2v-0.9
		c0.3-0.1,0.7-0.2,1.2-0.2c0.8,0,1.3,0.2,1.7,0.4c0.5,0.2,1,0.4,1.9,0.4s1.4-0.2,1.9-0.4c0.4-0.2,0.8-0.4,1.7-0.4
		c0.5,0,0.8,0.1,1.1,0.1v0.9C70.1,651,69.7,651,69.2,651z M69.2,649.5c-1,0-1.4,0.2-1.9,0.4c-0.4,0.2-0.8,0.4-1.7,0.4
		s-1.3-0.2-1.7-0.4c-0.5-0.2-1-0.4-1.9-0.4c-0.5,0-0.9,0.1-1.2,0.2v-0.9c0.3-0.1,0.7-0.2,1.2-0.2c0.8,0,1.3,0.2,1.7,0.4
		c0.5,0.2,1,0.4,1.9,0.4s1.4-0.2,1.9-0.4c0.4-0.2,0.8-0.4,1.7-0.4c0.5,0,0.8,0.1,1.1,0.1v0.9C70.1,649.5,69.7,649.5,69.2,649.5z
		 M69.2,648c-1,0-1.4,0.2-1.9,0.4c-0.4,0.2-0.8,0.4-1.7,0.4s-1.3-0.2-1.7-0.4c-0.5-0.2-1-0.4-1.9-0.4c-0.5,0-0.9,0.1-1.2,0.2v-0.9
		c0.3-0.1,0.7-0.2,1.2-0.2c0.8,0,1.3,0.2,1.7,0.4c0.5,0.2,1,0.4,1.9,0.4s1.4-0.2,1.9-0.4c0.4-0.2,0.8-0.4,1.7-0.4
		c0.5,0,0.8,0.1,1.1,0.1v0.9C70.1,648,69.7,648,69.2,648z M69.2,646.5c-1,0-1.4,0.2-1.9,0.4c-0.4,0.2-0.8,0.4-1.7,0.4
		s-1.3-0.2-1.7-0.4c-0.5-0.2-1-0.4-1.9-0.4c-0.5,0-0.9,0.1-1.2,0.2v-0.9c0.3-0.1,0.7-0.2,1.2-0.2c0.8,0,1.3,0.2,1.7,0.4
		c0.5,0.2,1,0.4,1.9,0.4s1.4-0.2,1.9-0.4c0.4-0.2,0.8-0.4,1.7-0.4c0.5,0,0.8,0.1,1.1,0.1v0.9C70.1,646.5,69.7,646.5,69.2,646.5z
		 M69.2,645c-1,0-1.4,0.2-1.9,0.4c-0.4,0.2-0.8,0.4-1.7,0.4s-1.3-0.2-1.7-0.4c-0.5-0.2-1-0.4-1.9-0.4c-0.5,0-0.9,0.1-1.2,0.2v-0.9
		c0.3-0.1,0.6-0.2,1.1-0.2h0.2c0.8,0,1.2,0.2,1.6,0.3c0.5,0.2,1,0.4,1.9,0.4s1.4-0.2,1.9-0.4c0.4-0.2,0.8-0.3,1.6-0.3h0.2
		c0.4,0,0.7,0.1,1,0.1v0.9C70.1,645,69.7,645,69.2,645z M64.5,644.1h2.2c-0.3,0.1-0.6,0.1-1.1,0.1S64.8,644.2,64.5,644.1z"/>
</g>
<g id="GEM_DECK_14_ROOMS">
	<g id="gDeck14HavenCourtyardPenthouseBalconyHF">
		<g id="hDeck14HavenCourtyardPenthouseBalconyHF">
			<g id="g14514">
				<g id="h14514">
					<path id="b14514" class="st4" d="M30.6,698.4v23.7H0.4v-11h5.2v-12.7H30.6L30.6,698.4z M5.6,698.4H0.4v12.7h5.2V698.4z"/>
					<path id="t14514" class="st2" d="M9.6,708.2l0.3-0.5h0.9v4.1h-0.5v-3.7L9.6,708.2L9.6,708.2z M14.7,710.8v0.5h-0.5v0.6h-0.5
						v-0.6h-2l2.5-3.7v3.3L14.7,710.8L14.7,710.8z M13.7,709.1L13.7,709.1l-1.2,1.7h1.2V709.1L13.7,709.1z M16.5,708.2l-0.3,0.9h0.3
						c0.8,0,1.3,0.7,1.3,1.4c0,0.9-0.7,1.5-1.5,1.5c-0.5,0-1-0.3-1.2-0.7l0.4-0.4c0.1,0.4,0.5,0.6,0.9,0.6c0.5,0,1-0.5,1-1
						s-0.4-1-1-1c-0.3,0-0.6,0.1-0.8,0.4h-0.1l0.6-2.1h1.6v0.5L16.5,708.2L16.5,708.2z M18.5,708.2l0.3-0.5h0.9v4.1h-0.5v-3.7
						L18.5,708.2L18.5,708.2z M23.7,710.8v0.5h-0.5v0.6h-0.5v-0.6h-2l2.5-3.7v3.3L23.7,710.8L23.7,710.8z M22.7,709.1L22.7,709.1
						l-1.2,1.7h1.2V709.1z"/>
				</g>
			</g>
			<g id="g14014">
				<g id="h14014">
					<path id="b14014" class="st4" d="M125.5,711.1h5.2v11h-30.2v-23.7h25V711.1L125.5,711.1z M125.5,698.4v12.7h5.2v-12.7H125.5z"
						/>
					<path id="t14014" class="st2" d="M108.2,708.2l0.3-0.5h0.9v4.1h-0.5v-3.7L108.2,708.2L108.2,708.2z M113.3,710.8v0.5h-0.5v0.6
						h-0.5v-0.6h-2l2.5-3.7v3.3L113.3,710.8L113.3,710.8z M112.4,709.1L112.4,709.1l-1.2,1.7h1.2V709.1L112.4,709.1z M113.7,709.8
						c0-0.9,0.4-2.2,1.4-2.2c1.1,0,1.4,1.3,1.4,2.2c0,0.8-0.4,2.2-1.4,2.2S113.7,710.6,113.7,709.8z M114.2,709.8
						c0,0.6,0.2,1.7,0.9,1.7c0.7,0,0.9-1.1,0.9-1.7s-0.2-1.7-0.9-1.7C114.4,708,114.2,709.2,114.2,709.8z M117,708.2l0.3-0.5h0.9
						v4.1h-0.5v-3.7L117,708.2L117,708.2z M122.2,710.8v0.5h-0.5v0.6h-0.5v-0.6h-2l2.5-3.7v3.3L122.2,710.8L122.2,710.8z
						 M121.2,709.1L121.2,709.1l-1.2,1.7h1.2V709.1L121.2,709.1z"/>
				</g>
			</g>
		</g>
	</g>
	<g id="gDeck14Haven2BedroomFamilyVillaBalconyH6">
		<g id="hDeck14Haven2BedroomFamilyVillaBalconyH6">
			<g id="g14006">
				<g id="h14006">
					<path id="b14006" class="st4" d="M130.7,605.8v11.6h-8.6v11.5H89.2v-23.1H130.7z M122.1,628.9h8.6v-11.5h-8.6V628.9z"/>
					<path id="t14006" class="st2" d="M100.2,616.2l0.3-0.5h0.9v4.1h-0.5v-3.7L100.2,616.2L100.2,616.2z M105.3,618.8v0.5h-0.5v0.6
						h-0.5v-0.6h-2l2.5-3.7v3.3L105.3,618.8L105.3,618.8z M104.3,617.1L104.3,617.1l-1.2,1.7h1.2V617.1L104.3,617.1z M105.6,617.8
						c0-0.9,0.4-2.2,1.4-2.2c1.1,0,1.4,1.3,1.4,2.2c0,0.8-0.4,2.2-1.4,2.2S105.6,618.6,105.6,617.8z M106.1,617.8
						c0,0.6,0.2,1.7,0.9,1.7c0.7,0,0.9-1.1,0.9-1.7s-0.2-1.7-0.9-1.7C106.3,616.1,106.1,617.2,106.1,617.8z M109,617.8
						c0-0.9,0.4-2.2,1.4-2.2c1.1,0,1.4,1.3,1.4,2.2c0,0.8-0.4,2.2-1.4,2.2S109,618.6,109,617.8z M109.4,617.8c0,0.6,0.2,1.7,0.9,1.7
						c0.7,0,0.9-1.1,0.9-1.7s-0.2-1.7-0.9-1.7S109.4,617.2,109.4,617.8z M114.4,615.9l-1.1,1.5l0,0c0.1-0.1,0.3-0.1,0.4-0.1
						c0.7,0,1.2,0.6,1.2,1.3c0,0.8-0.6,1.4-1.3,1.4c-0.7,0-1.4-0.6-1.4-1.3c0-0.4,0.2-0.8,0.4-1.1l1.4-1.9L114.4,615.9z
						 M114.4,618.6c0-0.5-0.4-0.9-0.9-0.9c-0.4,0-0.9,0.4-0.9,0.9s0.4,0.9,0.9,0.9S114.4,619.1,114.4,618.6z"/>
				</g>
			</g>
			<g id="g14008">
				<g id="h14008">
					<path id="b14008" class="st4" d="M130.7,628.9v11.6h-8.6V652H89.2v-23.1H130.7z M122.1,652.1h8.6v-11.5h-8.6V652.1z"/>
					<path id="t14008" class="st2" d="M100.2,639.5l0.3-0.5h0.9v4.1h-0.5v-3.7h-0.7V639.5z M105.3,642.1v0.5h-0.5v0.6h-0.5v-0.6h-2
						l2.5-3.7v3.3L105.3,642.1L105.3,642.1z M104.3,640.4L104.3,640.4l-1.2,1.7h1.2V640.4L104.3,640.4z M105.6,641.1
						c0-0.9,0.4-2.2,1.4-2.2c1.1,0,1.4,1.3,1.4,2.2c0,0.8-0.4,2.2-1.4,2.2S105.6,641.9,105.6,641.1z M106.1,641.1
						c0,0.6,0.2,1.7,0.9,1.7c0.7,0,0.9-1.1,0.9-1.7s-0.2-1.7-0.9-1.7C106.3,639.4,106.1,640.5,106.1,641.1z M108.9,641.1
						c0-0.9,0.4-2.2,1.4-2.2c1.1,0,1.4,1.3,1.4,2.2c0,0.8-0.4,2.2-1.4,2.2S108.9,641.9,108.9,641.1z M109.4,641.1
						c0,0.6,0.2,1.7,0.9,1.7c0.7,0,0.9-1.1,0.9-1.7s-0.2-1.7-0.9-1.7C109.6,639.4,109.4,640.5,109.4,641.1z M112.9,641
						c-0.3-0.2-0.5-0.5-0.5-0.9c0-0.7,0.5-1.2,1.2-1.2s1.2,0.5,1.2,1.2c0,0.4-0.2,0.7-0.5,0.9c0.4,0.1,0.6,0.5,0.6,1
						c0,0.8-0.6,1.2-1.3,1.2s-1.3-0.5-1.3-1.2C112.3,641.6,112.5,641.2,112.9,641z M112.8,642c0,0.4,0.4,0.8,0.8,0.8
						s0.8-0.4,0.8-0.8c0-0.4-0.4-0.8-0.8-0.8S112.8,641.6,112.8,642z M112.9,640.1c0,0.3,0.3,0.7,0.7,0.7c0.3,0,0.7-0.4,0.7-0.7
						c0-0.4-0.3-0.7-0.7-0.7S112.9,639.7,112.9,640.1z"/>
				</g>
			</g>
			<g id="g14010">
				<g id="h14010">
					<path id="b14010" class="st4" d="M130.7,652.1v11.6h-8.6v11.5H89.2v-23.1H130.7z M122.1,675.2h8.6v-11.5h-8.6V675.2z"/>
					<path id="t14010" class="st2" d="M100.6,662.3l0.3-0.5h0.9v4.1h-0.5v-3.7L100.6,662.3L100.6,662.3z M105.7,664.9v0.5h-0.5v0.6
						h-0.5v-0.6h-2l2.5-3.7v3.3L105.7,664.9L105.7,664.9z M104.7,663.2L104.7,663.2l-1.2,1.7h1.2V663.2L104.7,663.2z M106,663.9
						c0-0.9,0.4-2.2,1.4-2.2c1.1,0,1.4,1.3,1.4,2.2c0,0.8-0.4,2.2-1.4,2.2S106,664.7,106,663.9z M106.5,663.9c0,0.6,0.2,1.7,0.9,1.7
						c0.7,0,0.9-1.1,0.9-1.7s-0.2-1.7-0.9-1.7C106.7,662.1,106.5,663.3,106.5,663.9z M109.4,662.3l0.3-0.5h0.9v4.1h-0.5v-3.7
						L109.4,662.3L109.4,662.3z M111.7,663.9c0-0.9,0.4-2.2,1.4-2.2s1.4,1.3,1.4,2.2c0,0.8-0.4,2.2-1.4,2.2S111.7,664.7,111.7,663.9
						z M112.2,663.9c0,0.6,0.2,1.7,0.9,1.7s0.9-1.1,0.9-1.7s-0.2-1.7-0.9-1.7S112.2,663.3,112.2,663.9z"/>
				</g>
			</g>
			<g id="g14012">
				<g id="h14012">
					<path id="b14012" class="st4" d="M130.7,675.3v11.6h-8.6v11.5H89.2v-23.1H130.7z M122.1,698.4h8.6v-11.5h-8.6V698.4z"/>
					<path id="t14012" class="st2" d="M100.7,685.9l0.3-0.5h0.9v4.1h-0.5v-3.7h-0.7V685.9z M105.8,688.5v0.5h-0.5v0.6h-0.5V689h-2
						l2.5-3.7v3.3L105.8,688.5L105.8,688.5z M104.8,686.8L104.8,686.8l-1.2,1.7h1.2V686.8L104.8,686.8z M106.1,687.5
						c0-0.9,0.4-2.2,1.4-2.2c1.1,0,1.4,1.3,1.4,2.2c0,0.8-0.4,2.2-1.4,2.2S106.1,688.3,106.1,687.5z M106.6,687.4
						c0,0.6,0.2,1.7,0.9,1.7c0.7,0,0.9-1.1,0.9-1.7s-0.2-1.7-0.9-1.7C106.8,685.7,106.6,686.9,106.6,687.4z M109.5,685.9l0.3-0.5
						h0.9v4.1h-0.5v-3.7h-0.7V685.9z M114.4,689.1v0.5h-2.6l1.8-2.2c0.2-0.2,0.4-0.5,0.4-0.7c0-0.4-0.4-0.8-0.8-0.8
						s-0.8,0.3-0.8,0.8h-0.5c0.1-0.7,0.6-1.2,1.3-1.2c0.7,0,1.3,0.5,1.3,1.2c0,0.3-0.1,0.6-0.3,0.9l-1.3,1.7L114.4,689.1
						L114.4,689.1z"/>
				</g>
			</g>
			<g id="g14506">
				<g id="h14506">
					<path id="b14506" class="st4" d="M42,605.8v23.1H9.1v-11.5H0.4v-11.6H42z M0.4,617.4v11.5H9v-11.5H0.4z"/>
					<path id="t14506" class="st2" d="M15.7,616.2l0.3-0.5h0.9v4.1h-0.5v-3.7L15.7,616.2L15.7,616.2z M20.8,618.8v0.5h-0.5v0.6h-0.5
						v-0.6h-2l2.5-3.7v3.3L20.8,618.8L20.8,618.8z M19.8,617.1L19.8,617.1l-1.2,1.7h1.2V617.1z M22.6,616.2l-0.3,0.9h0.3
						c0.8,0,1.3,0.7,1.3,1.4c0,0.9-0.7,1.5-1.5,1.5c-0.5,0-1-0.3-1.2-0.7l0.4-0.4c0.1,0.4,0.5,0.6,0.9,0.6c0.5,0,1-0.5,1-1
						s-0.4-1-1-1c-0.3,0-0.6,0.1-0.8,0.4h-0.1l0.6-2.1h1.6v0.5L22.6,616.2L22.6,616.2z M24.4,617.8c0-0.9,0.4-2.2,1.4-2.2
						s1.4,1.3,1.4,2.2c0,0.8-0.4,2.2-1.4,2.2S24.4,618.6,24.4,617.8z M24.9,617.8c0,0.6,0.2,1.7,0.9,1.7c0.7,0,0.9-1.1,0.9-1.7
						s-0.2-1.7-0.9-1.7S24.9,617.2,24.9,617.8z M29.8,615.9l-1.1,1.5l0,0c0.1-0.1,0.3-0.1,0.4-0.1c0.7,0,1.2,0.6,1.2,1.3
						c0,0.8-0.6,1.4-1.3,1.4c-0.7,0-1.4-0.6-1.4-1.3c0-0.4,0.2-0.8,0.4-1.1l1.4-1.9L29.8,615.9z M29.9,618.6c0-0.5-0.4-0.9-0.9-0.9
						c-0.4,0-0.9,0.4-0.9,0.9s0.4,0.9,0.9,0.9C29.4,619.5,29.9,619.1,29.9,618.6z"/>
				</g>
			</g>
			<g id="g14508">
				<g id="h14508">
					<path id="b14508" class="st4" d="M42,628.9V652H9.1v-11.5H0.4v-11.6H42L42,628.9z M0.4,640.6v11.5H9v-11.5H0.4z"/>
					<path id="t14508" class="st2" d="M15.7,639.8l0.3-0.5h0.9v4.1h-0.5v-3.7h-0.7V639.8z M20.8,642.4v0.5h-0.5v0.6h-0.5v-0.6h-2
						l2.5-3.7v3.3L20.8,642.4L20.8,642.4z M19.8,640.7L19.8,640.7l-1.2,1.7h1.2V640.7z M22.6,639.8l-0.3,0.9h0.3
						c0.8,0,1.3,0.7,1.3,1.5c0,0.9-0.7,1.5-1.5,1.5c-0.5,0-1-0.3-1.2-0.7l0.4-0.4c0.1,0.4,0.5,0.6,0.9,0.6c0.5,0,1-0.5,1-1
						s-0.4-1-1-1c-0.3,0-0.6,0.1-0.8,0.4h-0.1l0.6-2.1h1.6v0.5h-1.2V639.8z M24.4,641.4c0-0.9,0.4-2.2,1.4-2.2s1.4,1.3,1.4,2.2
						c0,0.8-0.4,2.2-1.4,2.2S24.4,642.2,24.4,641.4z M24.9,641.4c0,0.6,0.2,1.7,0.9,1.7c0.7,0,0.9-1.1,0.9-1.7s-0.2-1.7-0.9-1.7
						C25.1,639.6,24.9,640.8,24.9,641.4z M28.4,641.3c-0.3-0.2-0.5-0.5-0.5-0.9c0-0.7,0.5-1.2,1.2-1.2c0.6,0,1.2,0.5,1.2,1.2
						c0,0.4-0.2,0.7-0.5,0.9c0.4,0.1,0.6,0.5,0.6,1c0,0.8-0.6,1.2-1.3,1.2s-1.3-0.5-1.3-1.2C27.7,641.8,28,641.4,28.4,641.3z
						 M28.2,642.3c0,0.4,0.4,0.8,0.8,0.8s0.8-0.4,0.8-0.8c0-0.4-0.4-0.8-0.8-0.8S28.2,641.8,28.2,642.3z M28.3,640.4
						c0,0.3,0.4,0.7,0.7,0.7s0.7-0.4,0.7-0.7c0-0.4-0.3-0.7-0.7-0.7S28.3,640,28.3,640.4z"/>
				</g>
			</g>
			<g id="g14510">
				<g id="h14510">
					<path id="b14510" class="st4" d="M42,652.1v23.1H9.1v-11.5H0.4v-11.6H42z M0.4,663.7v11.5H9v-11.5H0.4z"/>
					<path id="t14510" class="st2" d="M16,662.3l0.3-0.5h0.9v4.1h-0.5v-3.7L16,662.3L16,662.3z M21.1,664.9v0.5h-0.5v0.6h-0.5v-0.6
						h-2l2.5-3.7v3.3L21.1,664.9L21.1,664.9z M20.1,663.2L20.1,663.2l-1.2,1.7h1.2V663.2L20.1,663.2z M22.9,662.3l-0.3,0.9h0.3
						c0.8,0,1.3,0.7,1.3,1.4c0,0.9-0.7,1.5-1.5,1.5c-0.5,0-1-0.3-1.2-0.7l0.4-0.4c0.1,0.4,0.5,0.6,0.9,0.6c0.5,0,1-0.5,1-1
						s-0.4-1-1-1c-0.3,0-0.6,0.1-0.8,0.4h-0.1l0.6-2.1h1.6v0.5L22.9,662.3L22.9,662.3z M24.9,662.3l0.3-0.5h0.9v4.1h-0.5v-3.7
						L24.9,662.3L24.9,662.3z M27.3,663.9c0-0.9,0.4-2.2,1.4-2.2s1.4,1.3,1.4,2.2c0,0.8-0.4,2.2-1.4,2.2S27.3,664.7,27.3,663.9z
						 M27.8,663.9c0,0.6,0.2,1.7,0.9,1.7s0.9-1.1,0.9-1.7s-0.2-1.7-0.9-1.7S27.8,663.3,27.8,663.9z"/>
				</g>
			</g>
			<g id="g14512">
				<g id="h14512">
					<path id="b14512" class="st4" d="M42,675.3v23.1H9.1v-11.5H0.4v-11.6H42z M0.4,686.9v11.5H9v-11.5H0.4z"/>
					<path id="t14512" class="st2" d="M16,685.9l0.3-0.5h0.9v4.1h-0.5v-3.7H16V685.9z M21.2,688.5v0.5h-0.5v0.6h-0.5V689h-2l2.5-3.7
						v3.3L21.2,688.5L21.2,688.5z M20.2,686.8L20.2,686.8l-1.2,1.7h1.2V686.8z M23,685.9l-0.3,0.9H23c0.8,0,1.3,0.7,1.3,1.5
						c0,0.9-0.7,1.5-1.5,1.5c-0.5,0-1-0.3-1.2-0.7l0.4-0.4c0.1,0.4,0.5,0.6,0.9,0.6c0.5,0,1-0.5,1-1s-0.4-1-1-1
						c-0.3,0-0.6,0.1-0.8,0.4H22l0.6-2.1h1.6v0.5H23V685.9z M25,685.9l0.3-0.5h0.9v4.1h-0.5v-3.7H25V685.9z M29.9,689.1v0.5h-2.6
						l1.8-2.2c0.2-0.2,0.4-0.5,0.4-0.7c0-0.4-0.4-0.8-0.8-0.8s-0.8,0.3-0.8,0.8h-0.5c0.1-0.7,0.5-1.2,1.3-1.2c0.7,0,1.3,0.5,1.3,1.2
						c0,0.3-0.1,0.6-0.3,0.9l-1.3,1.7L29.9,689.1L29.9,689.1z"/>
				</g>
			</g>
		</g>
	</g>
	<g id="gDeck14Haven3BedroomGardenVillaH1">
		<g id="hDeck14Haven3BedroomGardenVillaH1">
			<g id="g14500">
				<g id="h14500">
					<path id="b14500" class="st4" d="M41.5,560.4h-9.6v-21h9.7L41.5,560.4L41.5,560.4z M0.3,586.8H9v-17H0.3v35.9h8.8v-18.9H0.3
						L0.3,586.8z M41.5,539.4h-9.7l0,0H41.5L41.5,539.4z M44.6,539.4L44.6,539.4h-3.1l0,0H44.6z M31.9,568.2v-7.8l0,0v9.5h-0.3h0.3
						v17h-0.1h-5H9.1v18.9h27.8v-18.9H32v-18.7H31.9z M31.9,586.8v-17H9.1v17H31.9z M51.4,483.6c-18,1.9-30.6,7.2-38.8,12.1
						l10.2,16.8l-10.2-16.8c-8.5,5.1-12.3,9.9-12.3,9.9v64.3h8.8v-0.2v0.2h22.8v-9.5l0,0v-21H0.3h31.5l0,0h9.7h3.1v-11.3h-3.8v-3.4
						c0,0-0.2-1.3-1.3-1.2c-0.1,0-0.2,0-0.3,0.1l0.1,0.1l-0.1-0.1c-0.5,0.2-0.8,1-0.8,1h-4.6c0.1-0.6,0.2-1.1,0.4-1.7h-0.1h0.1
						c0.6-1.3,1.6-2.4,2.9-3v-0.1v0.1c0.7-0.3,1.5-0.5,2.4-0.5c1.9,0,3.5,0.9,4.5,2.2c0.3,0.3,0.5,0.9,0.6,1.4v-10.5H0.5h44.2V523
						c0.1,0.5,0.1,0.9,0.1,0.9v4.2h-0.1v11.3h6.8v-0.2V521l13-0.1v-37v37l0,0l0.1-37.5L51.4,483.6z M51.4,539.2v0.2h0.1v-18.2h12.9
						V521l-13,0.1V539.2L51.4,539.2z M44.6,539.4h-3.1v21h-9.6v7.8v18.6h4.9v-0.2v-26.2h14.8l-0.3-21.1L44.6,539.4L44.6,539.4z
						 M44.8,523.9c0,0,0-0.4-0.1-0.9v5.1h0.1V523.9z M37.2,520l2,3.7c-0.5,0.2-0.8,1-0.8,1h-4.6c0.1-0.6,0.2-1.1,0.4-1.7l4.2,1.4
						l-4.2-1.4C34.8,521.6,35.9,520.6,37.2,520z M35.6,521.1l3.1,2.8L35.6,521.1z M44.6,523.1v5.1h-3.8v-3.4c0,0-0.2-1.3-1.3-1.2
						c-0.1,0-0.2,0-0.3,0.1l-2-3.7c0.7-0.3,1.5-0.5,2.4-0.5c1.9,0,3.5,0.9,4.5,2.2C44.4,522,44.5,522.6,44.6,523.1z M39.3,519.7
						l0.4,3.8L39.3,519.7z M40.1,523.5l1.4-3.5L40.1,523.5z M40.5,523.8l2.7-2.8L40.5,523.8z M44.2,522.4l-3.4,1.6L44.2,522.4z
						 M44.5,524.6h-3.7H44.5z M40.8,526.9h3.7H40.8z M40.8,525.7h3.7H40.8z"/>
					<path id="t14500GardenVillaHotTub" class="st2" d="M11.9,518.4v-0.2c0-1.8,0.8-2.7,1.9-2.7c0.3,0,0.5,0.1,0.7,0.2v1
						c-0.2-0.1-0.5-0.2-0.7-0.2c-0.6,0-0.9,0.6-0.9,1.8v0.3c0,1.5,0.4,1.8,0.8,1.8c0,0,0,0,0.1,0V519h-0.5v-0.9h1.4v3
						c-0.4,0.2-0.6,0.2-1,0.2C12.7,521.1,11.9,520.3,11.9,518.4z M16,515.4h1l1.1,5.6h-1l-0.2-1.1H16l-0.2,1.1h-0.9L16,515.4z
						 M16.8,519.1l-0.3-1.8l-0.3,1.8H16.8L16.8,519.1z M18.4,515.5h1c1,0,1.7,0.5,1.7,1.8v0.1c0,0.7-0.3,1.2-0.7,1.5l0.8,2.3h-1
						l-0.6-2h-0.2v2h-1L18.4,515.5L18.4,515.5z M19.4,518.2c0.4,0,0.7-0.2,0.7-0.9v-0.1c0-0.7-0.3-0.9-0.8-0.9l0,0L19.4,518.2
						L19.4,518.2z M21.6,515.5h0.9c1.2,0,2,0.9,2,2.7v0.2c0,1.8-0.7,2.7-2,2.7h-0.9V515.5z M22.6,520.2c0.5,0,0.9-0.4,0.9-1.8v-0.2
						c0-1.4-0.4-1.8-0.9-1.8l0,0V520.2L22.6,520.2z M24.9,515.5H27v0.9h-1.2v1.4h1v0.9h-1v1.4H27v0.9h-2.2v-5.5H24.9z M27.6,515.5
						h0.9l1,2.8v-2.8h1v5.6h-0.9l-1-3v3h-1V515.5z M14.9,523.5h1l0.5,3.6l0.5-3.6h1l-1,5.6h-1L14.9,523.5z M18.2,523.5h1v5.6h-1
						V523.5z M19.8,523.5h1v4.7h1v0.9h-2V523.5L19.8,523.5z M22.2,523.5h1v4.7h1v0.9h-2V523.5L22.2,523.5z M25.4,523.4h1l1.1,5.6h-1
						l-0.2-1.1h-0.9l-0.2,1.1h-0.9L25.4,523.4z M26.2,527.1l-0.3-1.8l-0.3,1.8H26.2z M11.7,531.5h1v2.3h0.8v-2.3h1v5.6h-1v-2.4h-0.8
						v2.4h-1V531.5z M15,534.4v-0.3c0-1.8,0.6-2.7,1.5-2.7s1.5,0.9,1.5,2.7v0.3c0,1.8-0.6,2.7-1.5,2.7C15.6,537.1,15,536.2,15,534.4
						z M17,534.4v-0.3c0-1.4-0.2-1.8-0.5-1.8s-0.5,0.4-0.5,1.8v0.3c0,1.4,0.2,1.8,0.5,1.8S17,535.8,17,534.4z M18.8,532.4h-0.7v-0.9
						h2.4v0.9h-0.7v4.7h-1C18.8,537.1,18.8,532.4,18.8,532.4z M22.7,532.4H22v-0.9h2.4v0.9h-0.7v4.7h-1L22.7,532.4L22.7,532.4z
						 M24.7,535.4v-4h1v4.1c0,0.5,0.2,0.7,0.4,0.7s0.4-0.2,0.4-0.7v-4.1h1v4c0,1.2-0.6,1.7-1.4,1.7
						C25.3,537.1,24.7,536.6,24.7,535.4z M28.1,531.5h0.8c0.9,0,1.8,0.4,1.8,1.4l0,0c0,0.7-0.4,1.1-0.8,1.3c0.5,0.2,0.9,0.5,0.9,1.2
						v0.1c0,1-0.8,1.6-1.9,1.6H28v-5.6H28.1z M29.1,533.8c0.4,0,0.7-0.2,0.7-0.7l0,0c0-0.5-0.3-0.7-0.7-0.7l0,0V533.8L29.1,533.8z
						 M29.1,536.2c0.4,0,0.8-0.3,0.8-0.7l0,0c0-0.5-0.3-0.7-0.8-0.7l0,0V536.2L29.1,536.2L29.1,536.2z"/>
					<path id="p14500" class="st2" d="M7.8,522.5c-2.2,0-4,1.8-4,4s1.8,4,4,4s4-1.8,4-4S10.1,522.5,7.8,522.5z M6.5,522.9
						C6.6,523,6.8,523,7,523c0.3-0.1,0.5-0.1,0.8-0.1s0.6,0.1,0.9,0.1l0,0c-0.2,0-0.5,0.1-0.8,0.1l0,0l0,0c-0.4,0-0.7,0-0.9-0.1
						C6.8,523,6.7,523,6.5,522.9L6.5,522.9z M5,524c0.1,0,0.2,0,0.3,0.1c0.2-0.2,0.5-0.4,0.8-0.6c0,0-0.1,0-0.1-0.1
						c-0.1,0-0.1,0-0.2-0.1l0,0c0.1,0,0.1,0.1,0.2,0.1h0.1c0.4,0.2,0.9,0.3,1.8,0.4c0.8,0,1.3-0.1,1.7-0.3l0,0
						c0.3,0.2,0.5,0.4,0.8,0.6l0,0c-0.3,0.1-0.5,0.2-0.7,0.2c-0.4,0.2-0.8,0.4-1.7,0.4l0,0l0,0c-0.8,0-1.3-0.2-1.7-0.4
						c-0.3-0.1-0.6-0.2-0.9-0.3C5.2,524,5.1,524,5,524L5,524z M4.4,525.4C4.5,525.4,4.5,525.4,4.4,525.4c0.2-0.3,0.3-0.6,0.5-0.9
						c-0.1,0-0.2,0-0.3,0l0,0c0.1,0,0.2,0,0.3,0c0.5,0.1,0.8,0.2,1.1,0.3c0.5,0.2,1,0.4,1.9,0.4c1,0,1.4-0.2,1.9-0.4
						c0.3-0.1,0.5-0.2,0.9-0.3l0,0c0.2,0.3,0.3,0.6,0.4,0.9l0,0c-0.7,0-1.1,0.2-1.5,0.4s-0.8,0.4-1.7,0.4l0,0l0,0
						c-0.8,0-1.3-0.2-1.7-0.4C5.8,525.6,5.3,525.4,4.4,525.4C4.4,525.4,4.4,525.4,4.4,525.4L4.4,525.4z M9.7,529.5
						c-0.5,0.3-1.2,0.5-1.8,0.5c-0.8,0-1.6-0.3-2.2-0.8c-0.1,0-0.3-0.1-0.5-0.1l0,0c0.2,0,0.3,0.1,0.5,0.1s0.3,0.1,0.4,0.2
						c0.5,0.2,1,0.4,1.9,0.4C8.8,529.8,9.3,529.6,9.7,529.5C9.7,529.4,9.7,529.4,9.7,529.5z M11.2,527.5c-0.1,0.3-0.3,0.7-0.5,0.9
						l0,0c-0.4,0.1-0.8,0.2-1.1,0.3c-0.4,0.2-0.8,0.4-1.7,0.4l0,0l0,0c-0.8,0-1.3-0.2-1.7-0.4c-0.4-0.2-0.8-0.3-1.3-0.4
						c-0.1,0-0.2,0-0.3,0l0,0c0.1,0,0.2,0,0.3,0c-0.2-0.3-0.3-0.6-0.4-0.9H4.4l0,0c0.1,0,0.1,0,0.1,0c0.7,0,1.1,0.2,1.6,0.3
						c0.5,0.2,1,0.4,1.9,0.4s1.4-0.2,1.9-0.4C10.2,527.7,10.6,527.6,11.2,527.5L11.2,527.5z M11.4,526.5c0,0.2,0,0.3,0,0.5l0,0
						c-0.8,0-1.2,0.2-1.7,0.4c-0.4,0.2-0.8,0.4-1.7,0.4l0,0l0,0c-0.8,0-1.3-0.2-1.7-0.4c-0.5-0.2-1-0.4-1.9-0.4l0,0
						c-0.1,0-0.2,0-0.2,0l0,0c0.1,0,0.2,0,0.2,0l0,0l0,0l0,0c0-0.1,0-0.3,0-0.4c0-0.2,0-0.3,0-0.5l0,0l0,0l0,0
						c0.8,0,1.2,0.2,1.7,0.4s1,0.4,1.9,0.4s1.4-0.2,1.9-0.4c0.4-0.2,0.8-0.3,1.4-0.3c0.1,0,0.2,0,0.2,0l0,0c-0.1,0-0.2,0-0.2,0
						C11.3,526.2,11.4,526.3,11.4,526.5z"/>
					<path id="t14500" class="st2" d="M37.6,497.5l0.3-0.5h0.9v4.1h-0.5v-3.7h-0.7V497.5z M42.7,500.1v0.5h-0.5v0.6h-0.5v-0.6h-2
						l2.5-3.7v3.3L42.7,500.1L42.7,500.1z M41.8,498.4L41.8,498.4l-1.2,1.7h1.2V498.4z M44.5,497.5l-0.3,0.9h0.3
						c0.8,0,1.3,0.7,1.3,1.4c0,0.9-0.7,1.5-1.5,1.5c-0.5,0-1-0.3-1.2-0.7l0.4-0.4c0.1,0.4,0.5,0.6,0.9,0.6c0.5,0,1-0.5,1-1
						s-0.4-1-1-1c-0.3,0-0.6,0.1-0.8,0.4h-0.1l0.6-2.1h1.6v0.5L44.5,497.5L44.5,497.5z M46.3,499.1c0-0.9,0.4-2.2,1.4-2.2
						s1.4,1.3,1.4,2.2c0,0.8-0.4,2.2-1.4,2.2S46.3,499.9,46.3,499.1z M46.8,499c0,0.6,0.2,1.7,0.9,1.7s0.9-1.1,0.9-1.7
						s-0.2-1.7-0.9-1.7S46.8,498.5,46.8,499z M49.6,499.1c0-0.9,0.4-2.2,1.4-2.2s1.4,1.3,1.4,2.2c0,0.8-0.4,2.2-1.4,2.2
						S49.6,499.9,49.6,499.1z M50.1,499c0,0.6,0.2,1.7,0.9,1.7s0.9-1.1,0.9-1.7s-0.2-1.7-0.9-1.7S50.1,498.5,50.1,499z"/>
				</g>
			</g>
			<g id="g14000">
				<g id="h14000">
					<path id="b14000" class="st4" d="M86.5,539.4L86.5,539.4h12.8l0,0H86.5z M99.4,539.4H86.5l0,0h-6.7l-0.3,21.1h14.8v26.2v0.2h5
						C99.4,586.8,99.4,539.4,99.4,539.4z M99.4,586.8h-5v18.9h27.7v-18.9H99.4z M118.6,495.7l-10.3,16.8L118.6,495.7
						c-8.2-4.9-20.8-10.2-38.7-12l-13.2-0.2v0.1l13.5,0.2l-13.5-0.2l0.1,37.4l13,0.1v18.1v0.2h6.7v-11.3h-0.1v-4.2
						c0,0,0-0.4,0.1-0.9v-10.5h44.3H86.5V523c0.1-0.5,0.3-1.1,0.6-1.4c1-1.4,2.6-2.2,4.5-2.2c0.9,0,1.7,0.2,2.4,0.5v-0.1v0.1
						c1.3,0.6,2.3,1.7,2.9,3H97h-0.1c0.2,0.5,0.4,1.1,0.4,1.7h-4.6c0,0-0.3-0.7-0.8-1l-0.1,0.1l0.1-0.1c-0.1,0-0.2-0.1-0.3-0.1
						c-1.1-0.1-1.3,1.2-1.3,1.2v3.4h-3.8v11.3h12.8l0,0h31.4H99.4v47.4h22.7v-17H99.6h22.5v-0.2v0.2h8.8h-8.8v17h8.7h-8.7v18.9h8.9
						V505.6C131,505.6,127.2,500.8,118.6,495.7z M86.4,523.9v4.2h0.1V523C86.4,523.5,86.4,523.9,86.4,523.9z M90.3,528.1h-3.8V523
						c0.1-0.5,0.3-1.1,0.6-1.4c1-1.4,2.6-2.2,4.5-2.2c0.9,0,1.7,0.2,2.4,0.5l-2,3.7c-0.1,0-0.2-0.1-0.3-0.1
						c-1.1-0.1-1.3,1.2-1.3,1.2L90.3,528.1L90.3,528.1L90.3,528.1z M91.8,519.7l-0.4,3.8L91.8,519.7z M91.1,523.5l-1.4-3.5
						L91.1,523.5z M90.6,523.8l-2.7-2.8L90.6,523.8z M86.7,526.9h3.7H86.7z M86.7,525.7h3.7H86.7z M86.7,524.6h3.7H86.7z
						 M86.9,522.4l3.4,1.6L86.9,522.4z M91.9,523.6l2-3.7c1.3,0.6,2.3,1.7,2.9,3l-4.2,1.4l4.2-1.4c0.2,0.5,0.4,1.1,0.4,1.7h-4.6
						C92.8,524.6,92.5,523.9,91.9,523.6z M95.5,521.1l-3.1,2.8L95.5,521.1z"/>
					<path id="t14000GardenVillaHotTub" class="st2" d="M99.3,518.4v-0.2c0-1.8,0.8-2.7,1.9-2.7c0.3,0,0.5,0.1,0.7,0.2v1
						c-0.2-0.1-0.5-0.2-0.7-0.2c-0.6,0-0.9,0.6-0.9,1.8v0.3c0,1.5,0.4,1.8,0.8,1.8c0,0,0,0,0.1,0V519h-0.5v-0.9h1.4v3
						c-0.4,0.2-0.6,0.2-1,0.2C100.1,521.1,99.3,520.3,99.3,518.4z M103.5,515.4h1l1.1,5.6h-1l-0.2-1.1h-0.9l-0.2,1.1h-0.9
						L103.5,515.4z M104.3,519.1l-0.3-1.8l-0.3,1.8H104.3z M105.9,515.5h1c1,0,1.7,0.5,1.7,1.8v0.1c0,0.7-0.3,1.2-0.7,1.5l0.8,2.3
						h-1l-0.6-2h-0.2v2h-1C105.9,521.2,105.9,515.5,105.9,515.5z M106.9,518.2c0.4,0,0.7-0.2,0.7-0.9v-0.1c0-0.7-0.3-0.9-0.8-0.9
						l0,0L106.9,518.2L106.9,518.2z M109,515.5h0.9c1.2,0,2,0.9,2,2.7v0.2c0,1.8-0.7,2.7-2,2.7H109V515.5z M110.1,520.2
						c0.5,0,0.9-0.4,0.9-1.8v-0.2c0-1.4-0.4-1.8-0.9-1.8l0,0V520.2L110.1,520.2z M112.4,515.5h2.1v0.9h-1.2v1.4h1v0.9h-1v1.4h1.2
						v0.9h-2.2L112.4,515.5L112.4,515.5z M115,515.5h0.9l1,2.8v-2.8h1v5.6H117l-1-3v3h-1V515.5L115,515.5z M102.4,523.5h1l0.5,3.6
						l0.5-3.6h1l-1,5.6h-1L102.4,523.5z M105.7,523.5h1v5.6h-1V523.5z M107.3,523.5h1v4.7h1v0.9h-2V523.5z M109.7,523.5h1v4.7h1v0.9
						h-2C109.7,529.1,109.7,523.5,109.7,523.5z M112.8,523.4h1l1.1,5.6h-1l-0.2-1.1h-0.9l-0.2,1.1h-0.9L112.8,523.4z M113.6,527.1
						l-0.3-1.8l-0.3,1.8H113.6z M99.2,531.5h1v2.3h0.8v-2.3h1v5.6h-1v-2.4h-0.8v2.4h-1V531.5z M102.5,534.4v-0.3
						c0-1.8,0.6-2.7,1.5-2.7s1.5,0.9,1.5,2.7v0.3c0,1.8-0.6,2.7-1.5,2.7S102.5,536.2,102.5,534.4z M104.5,534.4v-0.3
						c0-1.4-0.2-1.8-0.5-1.8s-0.5,0.4-0.5,1.8v0.3c0,1.4,0.2,1.8,0.5,1.8S104.5,535.8,104.5,534.4z M106.3,532.4h-0.7v-0.9h2.4v0.9
						h-0.7v4.7h-1L106.3,532.4L106.3,532.4z M110.2,532.4h-0.7v-0.9h2.4v0.9h-0.7v4.7h-1L110.2,532.4L110.2,532.4z M112.2,535.4v-4
						h1v4.1c0,0.5,0.2,0.7,0.4,0.7c0.2,0,0.4-0.2,0.4-0.7v-4.1h1v4c0,1.2-0.6,1.7-1.4,1.7C112.8,537.1,112.2,536.6,112.2,535.4z
						 M115.6,531.5h0.8c0.9,0,1.8,0.4,1.8,1.4l0,0c0,0.7-0.4,1.1-0.8,1.3c0.5,0.2,0.9,0.5,0.9,1.2v0.1c0,1-0.8,1.6-1.9,1.6h-0.9
						L115.6,531.5L115.6,531.5z M116.5,533.8c0.4,0,0.7-0.2,0.7-0.7l0,0c0-0.5-0.3-0.7-0.7-0.7l0,0V533.8L116.5,533.8z M116.6,536.2
						c0.4,0,0.8-0.3,0.8-0.7l0,0c0-0.5-0.3-0.7-0.8-0.7l0,0V536.2L116.6,536.2L116.6,536.2z"/>
					<path id="p14000" class="st2" d="M123.7,522.5c-2.2,0-4,1.8-4,4s1.8,4,4,4s4-1.8,4-4S125.9,522.5,123.7,522.5z M122.4,522.9
						c0.1,0.1,0.3,0.1,0.5,0.1c0.3-0.1,0.5-0.1,0.8-0.1s0.6,0.1,0.9,0.1l0,0c-0.2,0-0.5,0.1-0.8,0.1l0,0l0,0c-0.4,0-0.7,0-0.9-0.1
						C122.7,523,122.6,523,122.4,522.9L122.4,522.9z M120.9,524c0.1,0,0.2,0,0.3,0.1c0.2-0.2,0.5-0.4,0.8-0.6c0,0-0.1,0-0.1-0.1
						c-0.1,0-0.1,0-0.2-0.1l0,0c0.1,0,0.1,0.1,0.2,0.1h0.1c0.4,0.2,0.9,0.3,1.8,0.4c0.8,0,1.3-0.1,1.7-0.3l0,0
						c0.3,0.2,0.5,0.4,0.8,0.6l0,0c-0.3,0.1-0.5,0.2-0.7,0.2c-0.4,0.2-0.8,0.4-1.7,0.4l0,0l0,0c-0.8,0-1.3-0.2-1.7-0.4
						c-0.3-0.1-0.6-0.2-0.9-0.3C121.1,524,121,524,120.9,524L120.9,524z M120.2,525.4C120.3,525.4,120.3,525.4,120.2,525.4
						c0.2-0.3,0.3-0.6,0.5-0.9c-0.1,0-0.2,0-0.3,0l0,0c0.1,0,0.2,0,0.3,0c0.5,0.1,0.8,0.2,1.1,0.3c0.5,0.2,1,0.4,1.9,0.4
						c1,0,1.4-0.2,1.9-0.4c0.3-0.1,0.5-0.2,0.9-0.3l0,0c0.2,0.3,0.3,0.6,0.4,0.9l0,0c-0.7,0-1.1,0.2-1.5,0.4s-0.8,0.4-1.7,0.4l0,0
						l0,0c-0.8,0-1.3-0.2-1.7-0.4C121.6,525.6,121.1,525.4,120.2,525.4C120.3,525.4,120.3,525.4,120.2,525.4L120.2,525.4z
						 M125.6,529.5c-0.5,0.3-1.2,0.5-1.8,0.5c-0.8,0-1.6-0.3-2.2-0.8c-0.1,0-0.3-0.1-0.5-0.1l0,0c0.2,0,0.3,0.1,0.5,0.1
						s0.3,0.1,0.4,0.2c0.5,0.2,1,0.4,1.9,0.4C124.7,529.8,125.2,529.6,125.6,529.5C125.6,529.4,125.6,529.4,125.6,529.5z
						 M127.1,527.5c-0.1,0.3-0.3,0.7-0.5,0.9l0,0c-0.4,0.1-0.8,0.2-1.1,0.3c-0.4,0.2-0.8,0.4-1.7,0.4l0,0l0,0
						c-0.8,0-1.3-0.2-1.7-0.4c-0.4-0.2-0.8-0.3-1.3-0.4c-0.1,0-0.2,0-0.3,0l0,0c0.1,0,0.2,0,0.3,0c-0.2-0.3-0.3-0.6-0.4-0.9h-0.1
						l0,0c0.1,0,0.1,0,0.1,0c0.7,0,1.1,0.2,1.6,0.3c0.5,0.2,1,0.4,1.9,0.4s1.4-0.2,1.9-0.4C126.1,527.7,126.5,527.6,127.1,527.5
						L127.1,527.5z M127.2,526.5c0,0.2,0,0.3,0,0.5l0,0c-0.8,0-1.2,0.2-1.7,0.4c-0.4,0.2-0.8,0.4-1.7,0.4l0,0l0,0
						c-0.8,0-1.3-0.2-1.7-0.4c-0.5-0.2-1-0.4-1.9-0.4l0,0c-0.1,0-0.2,0-0.2,0l0,0c0.1,0,0.2,0,0.2,0l0,0l0,0l0,0c0-0.1,0-0.3,0-0.4
						c0-0.2,0-0.3,0-0.5l0,0l0,0l0,0c0.8,0,1.2,0.2,1.7,0.4s1,0.4,1.9,0.4s1.4-0.2,1.9-0.4c0.4-0.2,0.8-0.3,1.4-0.3
						c0.1,0,0.2,0,0.2,0l0,0c-0.1,0-0.2,0-0.2,0C127.2,526.2,127.2,526.3,127.2,526.5z"/>
					<path id="t14000" class="st2" d="M78.9,497.5l0.3-0.5h0.9v4.1h-0.5v-3.7h-0.7V497.5z M84,500.1v0.5h-0.5v0.6H83v-0.6h-2
						l2.5-3.7v3.3L84,500.1L84,500.1z M83.1,498.4L83.1,498.4l-1.2,1.7h1.2V498.4L83.1,498.4z M84.4,499.1c0-0.9,0.4-2.2,1.4-2.2
						c1.1,0,1.4,1.3,1.4,2.2c0,0.8-0.4,2.2-1.4,2.2S84.4,499.9,84.4,499.1z M84.9,499c0,0.6,0.2,1.7,0.9,1.7s0.9-1.1,0.9-1.7
						s-0.2-1.7-0.9-1.7S84.9,498.5,84.9,499z M87.7,499.1c0-0.9,0.4-2.2,1.4-2.2c1.1,0,1.4,1.3,1.4,2.2c0,0.8-0.4,2.2-1.4,2.2
						S87.7,499.9,87.7,499.1z M88.2,499c0,0.6,0.2,1.7,0.9,1.7c0.7,0,0.9-1.1,0.9-1.7s-0.2-1.7-0.9-1.7
						C88.4,497.3,88.2,498.5,88.2,499z M91,499.1c0-0.9,0.4-2.2,1.4-2.2c1.1,0,1.4,1.3,1.4,2.2c0,0.8-0.4,2.2-1.4,2.2
						S91,499.9,91,499.1z M91.5,499c0,0.6,0.2,1.7,0.9,1.7c0.7,0,0.9-1.1,0.9-1.7s-0.2-1.7-0.9-1.7S91.5,498.5,91.5,499z"/>
				</g>
			</g>
		</g>
	</g>
</g>
<g id="GEM_DECK_14_TOP">
	<g id="gDeck14Locations">
		<polygon width="130.512" height="167.4518" id="_x31_4Aft" class="st5" points="109.2,732.1 109.2,724.7 131,724.7 131,723 0.5,723 0.5,724.7 22.2,724.7 22.2,732.1 
			28.5,732.1 28.5,784.8 11.3,784.8 11.3,869.5 17.6,869.5 17.6,890.5 52.6,890.5 78.8,890.5 113.8,890.5 113.8,869.5 120.1,869.5 
			120.1,784.8 102.9,784.8 102.9,732.1 		"/>
		<path width="130.512" height="239.3462" id="_x31_4MidShip" class="st5" d="M131,505.5c-18.5-20.4-51.7-21.8-51.7-21.8H62h-9.8c0,0-33.2,1.3-51.7,21.8V723H131V505.5
			z"/>
		<path width="125.743" height="287.968" id="_x31_4Forward" class="st5" d="M2.1,178.3h21.4v111.1c0,0,18.8-16.6,43.7-16.1c25,0.4,42.4,15.7,42.4,15.7V154.5h16.6
			V12.3c0,0-16.9-9-56.8-10.8h-5.9C23.6,3.3,6.7,12.3,6.7,12.3v144.2l-6.1,8.6v13.2H2.1z"/>
	</g>
	<path class="st6" d="M2.1,178.3h21.4v111.1c0,0,18.8-16.6,43.7-16.1c25,0.4,42.4,15.7,42.4,15.7V154.5h16.6V12.3
		c0,0-16.9-9-56.8-10.8h-5.9C23.6,3.3,6.7,12.3,6.7,12.3v144.2l-6.1,8.6v13.2H2.1z"/>
	<path class="st6" d="M62,483.7h17.3c0,0,33.2,1.3,51.7,21.8v219.2h-21.8v7.4h-6.3v52.7h17.2v84.7h-6.3v21h-35H52.6h-35v-21h-6.3
		v-84.7h17.2v-52.7h-6.3v-7.4H0.4V505.5C19,485,52.2,483.7,52.2,483.7H62z"/>
</g>
</svg>
