<?xml version="1.0" encoding="utf-8"?>
<!-- Generator: Adobe Illustrator 25.4.1, SVG Export Plug-In . SVG Version: 6.00 Build 0)  -->
<svg version="1.1" id="GEM_DECK_15" xmlns="http://www.w3.org/2000/svg" xmlns:xlink="http://www.w3.org/1999/xlink" x="0px"
	 y="0px" width="131.1px" height="771.8px" viewBox="0 0 131.1 771.8" style="enable-background:new 0 0 131.1 771.8;"
	 xml:space="preserve">
<style type="text/css">
	.st0{fill:#FFFFFF;}
	.st1{fill:none;stroke:#D5DCE0;stroke-width:0.5;}
	.st2{fill:#6E8496;}
	.st3{fill:#EFF2F5;stroke:#FFFFFF;stroke-width:0.5;stroke-miterlimit:10;}
	.st4{fill:none;}
	.st5{fill:none;stroke:#076FA0;stroke-miterlimit:10;}
</style>
<g id="GEM_DECK_15_BOTTOM">
	<polygon class="st0" points="30.2,0.7 101.6,0.7 101.6,59.5 97.6,64 87.2,63.9 87.2,120.4 44.4,120.4 44.4,98.5 38.6,98.5 
		38.6,94.2 44.2,94.2 44.2,64.2 33.9,64.2 29.7,59.7 	"/>
	<path class="st0" d="M36.4,771.3h58.4V644.5h30.5v6.2h5.4V423.9c0,0-13.5-21-64.5-22c-48.4-1-65.7,22.2-65.7,22.2l0.1,226.6
		l5.4,0.1v-6.4h30.5V769L36.4,771.3L36.4,771.3z"/>
	<line class="st1" x1="78.6" y1="600.8" x2="60.8" y2="600.8"/>
	<line class="st1" x1="61.6" y1="600.9" x2="61.6" y2="607.1"/>
	<line class="st1" x1="62.9" y1="600.9" x2="62.9" y2="607.1"/>
	<line class="st1" x1="64.2" y1="600.9" x2="64.2" y2="607.1"/>
	<line class="st1" x1="65.5" y1="600.9" x2="65.5" y2="607.1"/>
	<line class="st1" x1="66.8" y1="600.9" x2="66.8" y2="607.1"/>
	<line class="st1" x1="68.1" y1="600.9" x2="68.1" y2="607.1"/>
	<line class="st1" x1="69.4" y1="600.9" x2="69.4" y2="607.1"/>
	<line class="st1" x1="70.7" y1="600.9" x2="70.7" y2="607.1"/>
	<line class="st1" x1="72" y1="600.9" x2="72" y2="607.1"/>
	<line class="st1" x1="73.3" y1="600.9" x2="73.3" y2="607.1"/>
	<line class="st1" x1="74.6" y1="600.9" x2="74.6" y2="607.1"/>
	<line class="st1" x1="75.9" y1="600.9" x2="75.9" y2="607.1"/>
	<line class="st1" x1="77.2" y1="600.9" x2="77.2" y2="607.1"/>
	<polyline class="st1" points="130.3,476.2 80.2,476.2 80.2,441.1 	"/>
	<polyline class="st1" points="0.1,476.4 50.6,476.4 50.6,473.1 	"/>
	<polyline class="st1" points="59.6,607.2 59.4,596.8 44.1,596.8 44.3,502 0.4,502 	"/>
	<polyline class="st1" points="59.4,600.8 82.2,600.8 82.2,607.2 86.2,607.2 86.1,501.4 130.8,501.4 	"/>
	<polyline class="st1" points="36.4,646.4 36.4,624.5 47.9,624.5 47.9,607 82.6,607 82.6,624.5 82.6,624.5 94.8,624.5 94.8,646.4 	
		"/>
	<polygon class="st1" points="38.3,442.8 38.3,438.3 44.5,438.3 44.5,432.9 0.5,432.9 0.5,458.9 44.5,458.9 44.5,442.8 	"/>
	<polygon class="st1" points="92.7,442.8 92.7,438.3 86.8,438.3 86.8,433 130.8,433 130.6,458.9 86.8,458.9 86.8,442.8 	"/>
	<polyline class="st1" points="130.8,459 86.8,459 86.8,442.8 92.7,442.8 92.7,438.3 86.8,438.3 86.8,433 130.8,433 	"/>
	<path class="st1" d="M88.4,449.7c1,1.4,2.6,2.2,4.5,2.2c3,0,5.4-2.3,5.7-5.2H94c0,0-0.4,1.1-1.1,1.1c-1.1,0.1-1.3-1.2-1.3-1.2v-3.4
		h-3.9v4.2C87.7,447.4,87.8,449.1,88.4,449.7z"/>
	<line class="st1" x1="91.7" y1="444.4" x2="88" y2="444.4"/>
	<line class="st1" x1="91.7" y1="445.7" x2="88" y2="445.7"/>
	<line class="st1" x1="91.7" y1="446.7" x2="88" y2="446.7"/>
	<line class="st1" x1="98.3" y1="448.4" x2="94" y2="447"/>
	<line class="st1" x1="96.9" y1="450.2" x2="93.7" y2="447.4"/>
	<line class="st1" x1="95.3" y1="451.4" x2="93.2" y2="447.6"/>
	<line class="st1" x1="93.1" y1="451.7" x2="92.7" y2="447.8"/>
	<line class="st1" x1="91" y1="451.4" x2="92.4" y2="447.8"/>
	<line class="st1" x1="89.2" y1="450.3" x2="91.9" y2="447.5"/>
	<line class="st1" x1="88.3" y1="448.9" x2="91.7" y2="447.3"/>
	<path class="st1" d="M42.4,449.7c-1,1.4-2.6,2.2-4.5,2.2c-3,0-5.4-2.3-5.7-5.2h4.6c0,0,0.4,1.1,1.1,1.1c1.1,0.1,1.3-1.2,1.3-1.2
		v-3.4h3.9v4.2C43.1,447.4,43,449.1,42.4,449.7z"/>
	<line class="st1" x1="39.2" y1="444.4" x2="42.8" y2="444.4"/>
	<line class="st1" x1="39.2" y1="445.7" x2="42.8" y2="445.7"/>
	<line class="st1" x1="39.2" y1="446.7" x2="42.8" y2="446.7"/>
	<line class="st1" x1="32.5" y1="448.4" x2="36.8" y2="447"/>
	<line class="st1" x1="34" y1="450.2" x2="37.1" y2="447.4"/>
	<line class="st1" x1="35.5" y1="451.4" x2="37.6" y2="447.6"/>
	<line class="st1" x1="37.7" y1="451.7" x2="38.1" y2="447.8"/>
	<line class="st1" x1="39.8" y1="451.4" x2="38.4" y2="447.8"/>
	<line class="st1" x1="41.6" y1="450.3" x2="38.9" y2="447.5"/>
	<line class="st1" x1="42.6" y1="448.9" x2="39.2" y2="447.3"/>
	<polyline class="st1" points="0.5,458.9 44.5,458.9 44.5,442.8 38.3,442.8 38.3,438.3 44.5,438.3 44.5,432.9 0.5,432.9 	"/>
	<polygon class="st1" points="86.2,607.2 82.2,607.2 82.2,600.8 59.4,600.8 59.4,596.8 44.1,596.8 44.2,516.8 86.1,516.8 	"/>
	<path class="st2" d="M8.8,463.7v-0.2c0-1.8,0.8-2.7,1.9-2.7c0.3,0,0.5,0.1,0.7,0.2v1c-0.2-0.1-0.5-0.2-0.7-0.2
		c-0.6,0-0.9,0.6-0.9,1.8v0.3c0,1.5,0.4,1.8,0.8,1.8c0,0,0,0,0.1,0v-1.4h-0.5v-0.9h1.4v3c-0.4,0.2-0.6,0.2-1,0.2
		C9.7,466.5,8.8,465.7,8.8,463.7z M13,460.8h1l1.1,5.6h-1l-0.2-1.1H13l-0.2,1.1h-0.9L13,460.8z M13.8,464.4l-0.3-1.8l-0.3,1.8H13.8z
		 M15.4,460.8h1c1,0,1.7,0.5,1.7,1.8v0.1c0,0.7-0.3,1.2-0.7,1.5l0.8,2.3h-1l-0.6-2h-0.2v2h-1L15.4,460.8L15.4,460.8z M16.4,463.6
		c0.4,0,0.7-0.2,0.7-0.9v-0.1c0-0.7-0.3-0.9-0.8-0.9l0,0L16.4,463.6L16.4,463.6L16.4,463.6z M18.5,460.8h0.9c1.2,0,2,0.9,2,2.7v0.2
		c0,1.8-0.7,2.7-2,2.7h-0.9V460.8z M19.6,465.5c0.5,0,0.9-0.4,0.9-1.8v-0.2c0-1.4-0.4-1.8-0.9-1.8l0,0V465.5L19.6,465.5z
		 M21.9,460.8H24v0.9h-1.2v1.4h1v0.9h-1v1.4H24v0.9h-2.2v-5.5H21.9z M24.5,460.8h0.9l1,2.8v-2.8h1v5.6h-0.9l-1-3v3h-1V460.8z
		 M29,460.8h1l0.5,3.6l0.5-3.6h1l-1,5.6h-1L29,460.8z M32.3,460.8h1v5.6h-1V460.8z M33.8,460.8h1v4.7h1v0.9h-2V460.8z M36.2,460.8h1
		v4.7h1v0.9h-2V460.8z M39.4,460.8h1l1.1,5.6h-1l-0.2-1.1h-0.9l-0.2,1.1h-0.9L39.4,460.8z M40.2,464.4l-0.3-1.8l-0.3,1.8H40.2z
		 M4.7,468.8h0.9c1.1,0,1.8,0.6,1.8,1.9l0,0c0,1.3-0.7,1.9-1.7,1.9l0,0v1.8h-1V468.8z M5.7,471.8c0.4,0,0.7-0.3,0.7-1l0,0
		c0-0.7-0.3-1-0.7-1l0,0V471.8L5.7,471.8L5.7,471.8z M7.8,468.8h1c1,0,1.7,0.5,1.7,1.8v0.1c0,0.7-0.3,1.2-0.7,1.5l0.8,2.3h-1l-0.6-2
		H8.8v2h-1V468.8z M8.8,471.6c0.4,0,0.7-0.2,0.7-0.9v-0.1c0-0.7-0.3-0.9-0.8-0.9l0,0L8.8,471.6L8.8,471.6L8.8,471.6z M11,468.8h1
		v5.6h-1V468.8z M12.3,468.8h1l0.5,3.6l0.5-3.6h1l-1,5.6h-1L12.3,468.8z M16.2,468.8h1l1.1,5.6h-1l-0.2-1.1h-0.9l-0.2,1.1h-0.9
		L16.2,468.8z M17,472.4l-0.3-1.8l-0.3,1.8H17z M18.9,469.8h-0.7v-0.9h2.4v0.9h-0.7v4.7h-1L18.9,469.8L18.9,469.8z M20.9,468.8H23
		v0.9h-1.2v1.4h1v0.9h-1v1.4H23v0.9h-2.2v-5.5H20.9z M24.7,474.2v-1c0.3,0.2,0.6,0.3,0.9,0.3s0.5-0.1,0.5-0.5l0,0
		c0-0.3-0.1-0.4-0.5-1c-0.7-0.8-0.9-1.1-0.9-1.8l0,0c0-0.9,0.6-1.5,1.4-1.5c0.4,0,0.6,0.1,0.9,0.2v1c-0.3-0.2-0.5-0.3-0.7-0.3
		c-0.3,0-0.5,0.2-0.5,0.5l0,0c0,0.3,0.1,0.4,0.5,0.9c0.8,0.9,0.9,1.2,0.9,1.9l0,0c0,0.9-0.6,1.5-1.4,1.5
		C25.3,474.5,25,474.4,24.7,474.2z M27.4,472.8v-4h1v4.1c0,0.5,0.2,0.7,0.4,0.7s0.4-0.2,0.4-0.7v-4.1h1v4c0,1.2-0.6,1.7-1.4,1.7
		S27.4,474,27.4,472.8z M30.8,468.8h0.9l1,2.8v-2.8h1v5.6h-0.9l-1-3v3h-1C30.8,474.4,30.8,468.8,30.8,468.8z M35.5,468.8h0.9
		c1.2,0,2,0.9,2,2.7v0.2c0,1.8-0.7,2.7-2,2.7h-0.9V468.8z M36.5,473.5c0.5,0,0.9-0.4,0.9-1.8v-0.2c0-1.4-0.4-1.8-0.9-1.8l0,0V473.5
		L36.5,473.5z M38.8,468.8H41v0.9h-1.2v1.4h1v0.9h-1v1.4H41v0.9h-2.2V468.8z M41.3,471.7v-0.2c0-2,0.7-2.7,1.6-2.7
		c0.3,0,0.4,0,0.6,0.1v1c-0.2-0.1-0.4-0.2-0.5-0.2c-0.4,0-0.7,0.4-0.7,1.8v0.2c0,1.5,0.3,1.8,0.8,1.8c0.2,0,0.3-0.1,0.5-0.2v1
		c-0.2,0.1-0.4,0.2-0.7,0.2C42,474.5,41.3,473.7,41.3,471.7z M44.1,468.8h1v2.3l0.8-2.3H47l-0.9,2.4l1,3.2H46l-0.6-2.1l-0.2,0.6v1.5
		h-1v-5.6H44.1z"/>
	<path class="st2" d="M14.3,600.1h0.9c1.1,0,1.8,0.6,1.8,1.9l0,0c0,1.3-0.7,1.9-1.7,1.9l0,0v1.8h-1V600.1z M15.3,603
		c0.4,0,0.7-0.3,0.7-1l0,0c0-0.7-0.3-1-0.7-1l0,0V603L15.3,603L15.3,603z M17.4,600.1h1c1,0,1.7,0.5,1.7,1.8v0.1
		c0,0.7-0.3,1.2-0.7,1.5l0.8,2.3h-1l-0.6-2h-0.2v2h-1C17.4,605.8,17.4,600.1,17.4,600.1z M18.4,602.8c0.4,0,0.7-0.2,0.7-0.9v-0.1
		c0-0.7-0.3-0.9-0.8-0.9l0,0L18.4,602.8L18.4,602.8z M20.6,600.1h1v5.6h-1V600.1z M21.9,600.1h1l0.5,3.6l0.5-3.6h1l-1,5.6h-1
		L21.9,600.1z M25.8,600.1h1l1.1,5.6h-1l-0.2-1.1h-0.9l-0.2,1.1h-0.9L25.8,600.1z M26.6,603.7l-0.3-1.8l-0.3,1.8H26.6z M28.5,601
		h-0.7v-0.9h2.4v0.9h-0.7v4.7h-1L28.5,601L28.5,601z M30.5,600.1h2.1v0.9h-1.2v1.4h1v0.9h-1v1.4h1.2v0.9h-2.2
		C30.5,605.7,30.5,600.1,30.5,600.1z M12.4,613.5v-1c0.3,0.2,0.6,0.3,0.9,0.3c0.3,0,0.5-0.1,0.5-0.5l0,0c0-0.3-0.1-0.4-0.5-1
		c-0.7-0.8-0.9-1.1-0.9-1.8l0,0c0-0.9,0.6-1.5,1.4-1.5c0.4,0,0.6,0.1,0.9,0.2v1c-0.3-0.2-0.5-0.3-0.7-0.3c-0.3,0-0.5,0.2-0.5,0.5
		l0,0c0,0.3,0.1,0.4,0.5,0.9c0.8,0.9,0.9,1.2,0.9,1.9l0,0c0,0.9-0.6,1.5-1.4,1.5C13,613.7,12.7,613.6,12.4,613.5z M15.1,612v-4h1
		v4.1c0,0.5,0.2,0.7,0.4,0.7s0.4-0.2,0.4-0.7V608h1v4c0,1.2-0.6,1.7-1.4,1.7C15.7,613.7,15.1,613.2,15.1,612z M18.4,608.1h0.9l1,2.8
		v-2.8h1v5.6h-0.9l-1-3v3h-1V608.1L18.4,608.1z M23.1,608.1H24c1.2,0,2,0.9,2,2.7v0.2c0,1.8-0.7,2.7-2,2.7h-0.9V608.1z M24.1,612.8
		c0.5,0,0.9-0.4,0.9-1.8v-0.2c0-1.4-0.4-1.8-0.9-1.8l0,0V612.8L24.1,612.8z M26.5,608.1h2.1v0.9h-1.2v1.4h1v0.9h-1v1.4h1.2v0.9h-2.2
		v-5.5H26.5z M29,611v-0.2c0-2,0.7-2.7,1.6-2.7c0.3,0,0.4,0,0.6,0.1v1c-0.2-0.1-0.4-0.2-0.5-0.2c-0.4,0-0.7,0.4-0.7,1.8v0.2
		c0,1.5,0.3,1.8,0.8,1.8c0.2,0,0.3-0.1,0.5-0.2v1c-0.2,0.1-0.4,0.2-0.7,0.2C29.6,613.7,29,612.9,29,611z M31.7,608.1h1v2.3l0.8-2.3
		h1.1l-0.9,2.4l1,3.2h-1.1l-0.6-2.1l-0.2,0.6v1.5h-1L31.7,608.1L31.7,608.1z"/>
	<path class="st2" d="M104.4,600.1h0.9c1.1,0,1.8,0.6,1.8,1.9l0,0c0,1.3-0.7,1.9-1.7,1.9l0,0v1.8h-1
		C104.4,605.7,104.4,600.1,104.4,600.1z M105.4,603c0.4,0,0.7-0.3,0.7-1l0,0c0-0.7-0.3-1-0.7-1l0,0V603L105.4,603L105.4,603z
		 M107.5,604v-4h1v4.1c0,0.5,0.2,0.7,0.4,0.7s0.4-0.2,0.4-0.7V600h1v4c0,1.2-0.6,1.7-1.4,1.7S107.5,605.2,107.5,604z M110.9,600.1
		h0.8c0.9,0,1.8,0.4,1.8,1.4l0,0c0,0.7-0.4,1.1-0.8,1.3c0.5,0.2,0.9,0.5,0.9,1.2v0.1c0,1-0.8,1.6-1.9,1.6h-0.9L110.9,600.1
		L110.9,600.1z M111.8,602.4c0.4,0,0.7-0.2,0.7-0.7l0,0c0-0.5-0.3-0.7-0.7-0.7l0,0V602.4L111.8,602.4z M111.9,604.8
		c0.4,0,0.8-0.3,0.8-0.7l0,0c0-0.5-0.3-0.7-0.8-0.7l0,0V604.8L111.9,604.8L111.9,604.8z M114,600.1h1v4.7h1v0.9h-2V600.1z
		 M116.4,600.1h1v5.6h-1V600.1z M117.9,603v-0.2c0-2,0.7-2.7,1.6-2.7c0.3,0,0.4,0,0.6,0.1v1c-0.2-0.1-0.4-0.2-0.5-0.2
		c-0.4,0-0.7,0.4-0.7,1.8v0.2c0,1.5,0.3,1.8,0.8,1.8c0.2,0,0.3-0.1,0.5-0.2v1c-0.2,0.1-0.4,0.2-0.7,0.2
		C118.6,605.7,117.9,604.9,117.9,603z M101.2,613.5v-1c0.3,0.2,0.6,0.3,0.9,0.3s0.5-0.1,0.5-0.5l0,0c0-0.3-0.1-0.4-0.5-1
		c-0.7-0.8-0.9-1.1-0.9-1.8l0,0c0-0.9,0.6-1.5,1.4-1.5c0.4,0,0.6,0.1,0.9,0.2v1c-0.3-0.2-0.5-0.3-0.7-0.3c-0.3,0-0.5,0.2-0.5,0.5
		l0,0c0,0.3,0.1,0.4,0.5,0.9c0.8,0.9,0.9,1.2,0.9,1.9l0,0c0,0.9-0.6,1.5-1.4,1.5C101.8,613.7,101.5,613.6,101.2,613.5z M103.9,612
		v-4h1v4.1c0,0.5,0.2,0.7,0.4,0.7s0.4-0.2,0.4-0.7V608h1v4c0,1.2-0.6,1.7-1.4,1.7S103.9,613.2,103.9,612z M107.3,608.1h0.9l1,2.8
		v-2.8h1v5.6h-0.9l-1-3v3h-1C107.3,613.7,107.3,608.1,107.3,608.1z M112,608.1h0.9c1.2,0,2,0.9,2,2.7v0.2c0,1.8-0.7,2.7-2,2.7H112
		V608.1z M113,612.8c0.5,0,0.9-0.4,0.9-1.8v-0.2c0-1.4-0.4-1.8-0.9-1.8l0,0V612.8L113,612.8z M115.3,608.1h2.1v0.9h-1.2v1.4h1v0.9
		h-1v1.4h1.2v0.9h-2.2L115.3,608.1L115.3,608.1z M117.8,611v-0.2c0-2,0.7-2.7,1.6-2.7c0.3,0,0.4,0,0.6,0.1v1
		c-0.2-0.1-0.4-0.2-0.5-0.2c-0.4,0-0.7,0.4-0.7,1.8v0.2c0,1.5,0.3,1.8,0.8,1.8c0.2,0,0.3-0.1,0.5-0.2v1c-0.2,0.1-0.4,0.2-0.7,0.2
		C118.5,613.7,117.8,612.9,117.8,611z M120.6,608.1h1v2.3l0.8-2.3h1.1l-0.9,2.4l1,3.2h-1.1l-0.6-2.1l-0.2,0.6v1.5h-1L120.6,608.1
		L120.6,608.1z"/>
	<path class="st2" d="M88.4,463.7v-0.2c0-1.8,0.8-2.7,1.9-2.7c0.3,0,0.5,0.1,0.7,0.2v1c-0.2-0.1-0.5-0.2-0.7-0.2
		c-0.6,0-0.9,0.6-0.9,1.8v0.3c0,1.5,0.4,1.8,0.8,1.8c0,0,0,0,0.1,0v-1.4h-0.5v-0.9h1.4v3c-0.4,0.2-0.6,0.2-1,0.2
		C89.2,466.5,88.4,465.7,88.4,463.7z M92.5,460.8h1l1.1,5.6h-1l-0.2-1.1h-0.9l-0.2,1.1h-0.9L92.5,460.8z M93.3,464.4l-0.3-1.8
		l-0.3,1.8H93.3z M94.9,460.8h1c1,0,1.7,0.5,1.7,1.8v0.1c0,0.7-0.3,1.2-0.7,1.5l0.8,2.3h-1l-0.6-2h-0.2v2h-1L94.9,460.8L94.9,460.8z
		 M95.9,463.6c0.4,0,0.7-0.2,0.7-0.9v-0.1c0-0.7-0.3-0.9-0.8-0.9l0,0L95.9,463.6L95.9,463.6L95.9,463.6z M98.1,460.8H99
		c1.2,0,2,0.9,2,2.7v0.2c0,1.8-0.7,2.7-2,2.7h-0.9V460.8z M99.1,465.5c0.5,0,0.9-0.4,0.9-1.8v-0.2c0-1.4-0.4-1.8-0.9-1.8l0,0V465.5
		L99.1,465.5z M101.4,460.8h2.1v0.9h-1.2v1.4h1v0.9h-1v1.4h1.2v0.9h-2.2L101.4,460.8L101.4,460.8z M104.1,460.8h0.9l1,2.8v-2.8h1
		v5.6h-0.9l-1-3v3h-1V460.8L104.1,460.8z M108.5,460.8h1l0.5,3.6l0.5-3.6h1l-1,5.6h-1L108.5,460.8z M111.8,460.8h1v5.6h-1V460.8z
		 M113.4,460.8h1v4.7h1v0.9h-2V460.8z M115.8,460.8h1v4.7h1v0.9h-2V460.8z M118.9,460.8h1l1.1,5.6h-1l-0.2-1.1H119l-0.2,1.1h-0.9
		L118.9,460.8z M119.7,464.4l-0.3-1.8l-0.3,1.8H119.7z M84.2,468.8h0.9c1.1,0,1.8,0.6,1.8,1.9l0,0c0,1.3-0.7,1.9-1.7,1.9l0,0v1.8h-1
		C84.2,474.4,84.2,468.8,84.2,468.8z M85.2,471.8c0.4,0,0.7-0.3,0.7-1l0,0c0-0.7-0.3-1-0.7-1l0,0V471.8L85.2,471.8L85.2,471.8z
		 M87.3,468.8h1c1,0,1.7,0.5,1.7,1.8v0.1c0,0.7-0.3,1.2-0.7,1.5l0.8,2.3h-1l-0.6-2h-0.2v2h-1C87.3,474.4,87.3,468.8,87.3,468.8z
		 M88.3,471.6c0.4,0,0.7-0.2,0.7-0.9v-0.1c0-0.7-0.3-0.9-0.8-0.9l0,0L88.3,471.6L88.3,471.6L88.3,471.6z M90.5,468.8h1v5.6h-1V468.8
		z M91.8,468.8h1l0.5,3.6l0.5-3.6h1l-1,5.6h-1L91.8,468.8z M95.7,468.8h1l1.1,5.6h-1l-0.2-1.1h-0.9l-0.2,1.1h-0.9L95.7,468.8z
		 M96.5,472.4l-0.3-1.8l-0.3,1.8H96.5z M98.4,469.8h-0.7v-0.9h2.4v0.9h-0.7v4.7h-1C98.4,474.4,98.4,469.8,98.4,469.8z M100.5,468.8
		h2.1v0.9h-1.2v1.4h1v0.9h-1v1.4h1.2v0.9h-2.2L100.5,468.8L100.5,468.8z M104.3,474.2v-1c0.3,0.2,0.6,0.3,0.9,0.3s0.5-0.1,0.5-0.5
		l0,0c0-0.3-0.1-0.4-0.5-1c-0.7-0.8-0.9-1.1-0.9-1.8l0,0c0-0.9,0.6-1.5,1.4-1.5c0.4,0,0.6,0.1,0.9,0.2v1c-0.3-0.2-0.5-0.3-0.7-0.3
		c-0.3,0-0.5,0.2-0.5,0.5l0,0c0,0.3,0.1,0.4,0.5,0.9c0.8,0.9,0.9,1.2,0.9,1.9l0,0c0,0.9-0.6,1.5-1.4,1.5
		C104.9,474.5,104.5,474.4,104.3,474.2z M107,472.8v-4h1v4.1c0,0.5,0.2,0.7,0.4,0.7s0.4-0.2,0.4-0.7v-4.1h1v4c0,1.2-0.6,1.7-1.4,1.7
		S107,474,107,472.8z M110.3,468.8h0.9l1,2.8v-2.8h1v5.6h-0.9l-1-3v3h-1V468.8z M115,468.8h0.9c1.2,0,2,0.9,2,2.7v0.2
		c0,1.8-0.7,2.7-2,2.7H115V468.8z M116,473.5c0.5,0,0.9-0.4,0.9-1.8v-0.2c0-1.4-0.4-1.8-0.9-1.8l0,0V473.5L116,473.5z M118.4,468.8
		h2.1v0.9h-1.2v1.4h1v0.9h-1v1.4h1.2v0.9h-2.2L118.4,468.8L118.4,468.8z M120.8,471.7v-0.2c0-2,0.7-2.7,1.6-2.7c0.3,0,0.4,0,0.6,0.1
		v1c-0.2-0.1-0.4-0.2-0.5-0.2c-0.4,0-0.7,0.4-0.7,1.8v0.2c0,1.5,0.3,1.8,0.8,1.8c0.2,0,0.3-0.1,0.5-0.2v1c-0.2,0.1-0.4,0.2-0.7,0.2
		C121.5,474.5,120.8,473.7,120.8,471.7z M123.6,468.8h1v2.3l0.8-2.3h1.1l-0.9,2.4l1,3.2h-1.1l-0.6-2.1l-0.2,0.6v1.5h-1L123.6,468.8
		L123.6,468.8z"/>
	<path class="st2" d="M11.4,436.2l-0.6,0.2v-1l0.9-0.3h0.7v5.6h-1C11.4,440.7,11.4,436.2,11.4,436.2z M14.4,439.7h-1.5V439l1.5-3.8
		h1v3.7h0.5v0.8h-0.5v1h-0.9v-1H14.4z M14.4,438.9v-2l-0.7,2H14.4z M16,440.6v-1c0.2,0.1,0.4,0.2,0.6,0.2c0.5,0,0.7-0.4,0.7-1v-0.1
		c0-0.6-0.2-0.8-0.5-0.8c-0.1,0-0.2,0-0.4,0.1l-0.5-0.3l0.2-2.7h2v0.9h-1.3l-0.1,1.1c0.1,0,0.2,0,0.4,0c0.6,0,1.2,0.4,1.2,1.7v0.1
		c0,1.2-0.6,1.9-1.6,1.9C16.5,440.8,16.2,440.7,16,440.6z M18.6,438.1v-0.3c0-1.9,0.5-2.7,1.4-2.7s1.4,0.8,1.4,2.7v0.3
		c0,1.9-0.5,2.7-1.4,2.7C19.1,440.8,18.6,440,18.6,438.1z M20.4,438.1v-0.3c0-1.6-0.2-1.8-0.4-1.8c-0.2,0-0.4,0.3-0.4,1.8v0.3
		c0,1.6,0.2,1.8,0.4,1.8C20.3,439.9,20.4,439.7,20.4,438.1z M21.8,438.1v-0.3c0-1.9,0.5-2.7,1.4-2.7s1.4,0.8,1.4,2.7v0.3
		c0,1.9-0.5,2.7-1.4,2.7C22.3,440.8,21.8,440,21.8,438.1z M23.6,438.1v-0.3c0-1.6-0.2-1.8-0.4-1.8c-0.2,0-0.4,0.3-0.4,1.8v0.3
		c0,1.6,0.2,1.8,0.4,1.8S23.6,439.7,23.6,438.1z M7.5,446.1v-0.3c0-1.8,0.6-2.7,1.5-2.7s1.5,0.9,1.5,2.7v0.3c0,1.8-0.6,2.7-1.5,2.7
		C8.1,448.8,7.5,447.9,7.5,446.1z M9.5,446.1v-0.3c0-1.4-0.2-1.8-0.5-1.8s-0.5,0.4-0.5,1.8v0.3c0,1.4,0.2,1.8,0.5,1.8
		S9.5,447.5,9.5,446.1z M11,443.1h0.9c1.1,0,1.8,0.6,1.8,1.9l0,0c0,1.3-0.7,1.9-1.7,1.9l0,0v1.8h-1V443.1z M12,446.1
		c0.4,0,0.7-0.3,0.7-1l0,0c0-0.7-0.3-1-0.7-1l0,0V446.1L12,446.1L12,446.1z M14.1,443.1h2.1v0.9H15v1.4h1v0.9h-1v1.4h1.2v0.9H14
		L14.1,443.1L14.1,443.1z M16.7,443.1h0.9l1,2.8v-2.8h1v5.6h-0.9l-1-3v3h-1V443.1z M21.9,444.1h-0.7v-0.9h2.4v0.9h-0.7v4.7h-1
		C21.9,448.8,21.9,444.1,21.9,444.1z M23.7,446.1v-0.3c0-1.8,0.6-2.7,1.5-2.7s1.5,0.9,1.5,2.7v0.3c0,1.8-0.6,2.7-1.5,2.7
		C24.3,448.8,23.7,447.9,23.7,446.1z M25.7,446.1v-0.3c0-1.4-0.2-1.8-0.5-1.8s-0.5,0.4-0.5,1.8v0.3c0,1.4,0.2,1.8,0.5,1.8
		S25.7,447.5,25.7,446.1z M3.5,451.1h0.9c1.2,0,2,0.9,2,2.7v0.2c0,1.8-0.7,2.7-2,2.7H3.5V451.1z M4.5,455.8c0.5,0,0.9-0.4,0.9-1.8
		v-0.2c0-1.4-0.4-1.8-0.9-1.8l0,0V455.8L4.5,455.8z M6.8,451.1H9v0.9H7.8v1.4h1v0.9h-1v1.4H9v0.9H6.8V451.1z M9.3,454v-0.2
		c0-2,0.7-2.7,1.6-2.7c0.3,0,0.4,0,0.6,0.1v1c-0.2-0.1-0.4-0.2-0.5-0.2c-0.4,0-0.7,0.4-0.7,1.8v0.2c0,1.5,0.3,1.8,0.8,1.8
		c0.2,0,0.3-0.1,0.5-0.2v1c-0.2,0.1-0.4,0.2-0.7,0.2C10,456.8,9.3,456,9.3,454z M12.1,451.1h1v2.3l0.8-2.3H15l-0.9,2.4l1,3.2H14
		l-0.6-2.1l-0.2,0.6v1.5h-1L12.1,451.1L12.1,451.1z M16.6,451.1h0.8c0.9,0,1.8,0.4,1.8,1.4l0,0c0,0.7-0.4,1.1-0.8,1.3
		c0.5,0.2,0.9,0.5,0.9,1.2v0.1c0,1-0.8,1.6-1.9,1.6h-0.9L16.6,451.1L16.6,451.1z M17.6,453.5c0.4,0,0.7-0.2,0.7-0.7l0,0
		c0-0.5-0.3-0.7-0.7-0.7l0,0V453.5L17.6,453.5z M17.6,455.8c0.4,0,0.8-0.3,0.8-0.7l0,0c0-0.5-0.3-0.7-0.8-0.7l0,0V455.8L17.6,455.8
		L17.6,455.8z M19.7,451.1h2.1v0.9h-1.2v1.4h1v0.9h-1v1.4h1.2v0.9h-2.2v-5.5H19.7z M22.4,451.1h1v4.7h1v0.9h-2V451.1L22.4,451.1z
		 M24.5,454.1v-0.3c0-1.8,0.6-2.7,1.5-2.7s1.5,0.9,1.5,2.7v0.3c0,1.8-0.6,2.7-1.5,2.7S24.5,455.9,24.5,454.1z M26.5,454.1v-0.3
		c0-1.4-0.2-1.8-0.5-1.8s-0.5,0.4-0.5,1.8v0.3c0,1.4,0.2,1.8,0.5,1.8S26.5,455.5,26.5,454.1z M27.6,451.1h1l0.4,3.4l0.5-3.4h0.9
		l0.5,3.4l0.4-3.4h1l-0.8,5.6h-1l-0.5-3.3l-0.5,3.3h-1L27.6,451.1z"/>
	<path class="st2" d="M107.5,436.2l-0.6,0.2v-1l0.9-0.3h0.7v5.6h-1V436.2z M110.5,439.7H109V439l1.5-3.8h1v3.7h0.5v0.8h-0.5v1h-0.9
		L110.5,439.7L110.5,439.7z M110.5,438.9v-2l-0.7,2H110.5z M112.1,438.1v-0.3c0-1.9,0.5-2.7,1.4-2.7s1.4,0.8,1.4,2.7v0.3
		c0,1.9-0.5,2.7-1.4,2.7C112.6,440.8,112.1,440,112.1,438.1z M113.9,438.1v-0.3c0-1.6-0.2-1.8-0.4-1.8c-0.2,0-0.4,0.3-0.4,1.8v0.3
		c0,1.6,0.2,1.8,0.4,1.8C113.7,439.9,113.9,439.7,113.9,438.1z M115.3,438.1v-0.3c0-1.9,0.5-2.7,1.4-2.7s1.4,0.8,1.4,2.7v0.3
		c0,1.9-0.5,2.7-1.4,2.7C115.7,440.8,115.3,440,115.3,438.1z M117.1,438.1v-0.3c0-1.6-0.2-1.8-0.4-1.8c-0.2,0-0.4,0.3-0.4,1.8v0.3
		c0,1.6,0.2,1.8,0.4,1.8S117.1,439.7,117.1,438.1z M118.4,438.1v-0.3c0-1.9,0.5-2.7,1.4-2.7s1.4,0.8,1.4,2.7v0.3
		c0,1.9-0.5,2.7-1.4,2.7C118.9,440.8,118.4,440,118.4,438.1z M120.2,438.1v-0.3c0-1.6-0.2-1.8-0.4-1.8c-0.2,0-0.4,0.3-0.4,1.8v0.3
		c0,1.6,0.2,1.8,0.4,1.8S120.2,439.7,120.2,438.1z M103.9,446.1v-0.3c0-1.8,0.6-2.7,1.5-2.7s1.5,0.9,1.5,2.7v0.3
		c0,1.8-0.6,2.7-1.5,2.7C104.5,448.8,103.9,447.9,103.9,446.1z M105.8,446.1v-0.3c0-1.4-0.2-1.8-0.5-1.8s-0.5,0.4-0.5,1.8v0.3
		c0,1.4,0.2,1.8,0.5,1.8S105.8,447.5,105.8,446.1z M107.3,443.1h0.9c1.1,0,1.8,0.6,1.8,1.9l0,0c0,1.3-0.7,1.9-1.7,1.9l0,0v1.8h-1
		C107.3,448.7,107.3,443.1,107.3,443.1z M108.3,446.1c0.4,0,0.7-0.3,0.7-1l0,0c0-0.7-0.3-1-0.7-1l0,0V446.1L108.3,446.1L108.3,446.1
		z M110.4,443.1h2.1v0.9h-1.2v1.4h1v0.9h-1v1.4h1.2v0.9h-2.2L110.4,443.1L110.4,443.1z M113,443.1h0.9l1,2.8v-2.8h1v5.6H115l-1-3v3
		h-1V443.1z M118.3,444.1h-0.7v-0.9h2.4v0.9h-0.7v4.7h-1L118.3,444.1L118.3,444.1z M120.1,446.1v-0.3c0-1.8,0.6-2.7,1.5-2.7
		s1.5,0.9,1.5,2.7v0.3c0,1.8-0.6,2.7-1.5,2.7S120.1,447.9,120.1,446.1z M122.1,446.1v-0.3c0-1.4-0.2-1.8-0.5-1.8s-0.5,0.4-0.5,1.8
		v0.3c0,1.4,0.2,1.8,0.5,1.8S122.1,447.5,122.1,446.1z M99.8,451.1h0.9c1.2,0,2,0.9,2,2.7v0.2c0,1.8-0.7,2.7-2,2.7h-0.9V451.1z
		 M100.8,455.8c0.5,0,0.9-0.4,0.9-1.8v-0.2c0-1.4-0.4-1.8-0.9-1.8l0,0V455.8L100.8,455.8z M103.2,451.1h2.1v0.9h-1.2v1.4h1v0.9h-1
		v1.4h1.2v0.9h-2.2L103.2,451.1L103.2,451.1z M105.6,454v-0.2c0-2,0.7-2.7,1.6-2.7c0.3,0,0.4,0,0.6,0.1v1c-0.2-0.1-0.4-0.2-0.5-0.2
		c-0.4,0-0.7,0.4-0.7,1.8v0.2c0,1.5,0.3,1.8,0.8,1.8c0.2,0,0.3-0.1,0.5-0.2v1c-0.2,0.1-0.4,0.2-0.7,0.2
		C106.3,456.8,105.6,456,105.6,454z M108.4,451.1h1v2.3l0.8-2.3h1.1l-0.9,2.4l1,3.2h-1.1l-0.6-2.1l-0.2,0.6v1.5h-1L108.4,451.1
		L108.4,451.1z M112.9,451.1h0.8c0.9,0,1.8,0.4,1.8,1.4l0,0c0,0.7-0.4,1.1-0.8,1.3c0.5,0.2,0.9,0.5,0.9,1.2v0.1c0,1-0.8,1.6-1.9,1.6
		h-0.9L112.9,451.1L112.9,451.1z M113.9,453.5c0.4,0,0.7-0.2,0.7-0.7l0,0c0-0.5-0.3-0.7-0.7-0.7l0,0V453.5L113.9,453.5z
		 M113.9,455.8c0.4,0,0.8-0.3,0.8-0.7l0,0c0-0.5-0.3-0.7-0.8-0.7l0,0V455.8L113.9,455.8L113.9,455.8z M116.1,451.1h2.1v0.9H117v1.4
		h1v0.9h-1v1.4h1.2v0.9H116L116.1,451.1L116.1,451.1z M118.7,451.1h1v4.7h1v0.9h-2V451.1z M120.8,454.1v-0.3c0-1.8,0.6-2.7,1.5-2.7
		s1.5,0.9,1.5,2.7v0.3c0,1.8-0.6,2.7-1.5,2.7S120.8,455.9,120.8,454.1z M122.8,454.1v-0.3c0-1.4-0.2-1.8-0.5-1.8s-0.5,0.4-0.5,1.8
		v0.3c0,1.4,0.2,1.8,0.5,1.8S122.8,455.5,122.8,454.1z M123.9,451.1h1l0.4,3.4l0.5-3.4h0.9l0.5,3.4l0.4-3.4h1l-0.8,5.6h-1l-0.5-3.3
		l-0.5,3.3h-1L123.9,451.1z"/>
	<path class="st2" d="M57.2,548.9v-0.3c0-1.8,0.6-2.7,1.5-2.7s1.5,0.9,1.5,2.7v0.3c0,1.8-0.6,2.7-1.5,2.7S57.2,550.8,57.2,548.9z
		 M59.2,548.9v-0.3c0-1.4-0.2-1.8-0.5-1.8s-0.5,0.4-0.5,1.8v0.3c0,1.4,0.2,1.8,0.5,1.8C59,550.8,59.2,550.4,59.2,548.9z M60.7,546
		h0.9c1.1,0,1.8,0.6,1.8,1.9l0,0c0,1.3-0.7,1.9-1.7,1.9l0,0v1.8h-1V546L60.7,546z M61.6,548.9c0.4,0,0.7-0.3,0.7-1l0,0
		c0-0.7-0.3-1-0.7-1l0,0V548.9L61.6,548.9L61.6,548.9z M63.7,546h2.1v0.9h-1.2v1.4h1v0.9h-1v1.4h1.2v0.9h-2.2L63.7,546L63.7,546z
		 M66.4,546h0.9l1,2.8V546h1v5.6h-0.9l-1-3v3h-1V546L66.4,546z M71.6,546.9h-0.7V546h2.4v0.9h-0.7v4.7h-1
		C71.6,551.6,71.6,546.9,71.6,546.9z M73.4,548.9v-0.3c0-1.8,0.6-2.7,1.5-2.7s1.5,0.9,1.5,2.7v0.3c0,1.8-0.6,2.7-1.5,2.7
		C74,551.7,73.4,550.8,73.4,548.9z M75.4,548.9v-0.3c0-1.4-0.2-1.8-0.5-1.8s-0.5,0.4-0.5,1.8v0.3c0,1.4,0.2,1.8,0.5,1.8
		C75.2,550.8,75.4,550.4,75.4,548.9z M61.2,554h0.9c1.2,0,2,0.9,2,2.7v0.2c0,1.8-0.7,2.7-2,2.7h-0.9C61.2,559.6,61.2,554,61.2,554z
		 M62.2,558.7c0.5,0,0.9-0.4,0.9-1.8v-0.2c0-1.4-0.4-1.8-0.9-1.8l0,0V558.7L62.2,558.7z M64.5,554h2.1v0.9h-1.2v1.4h1v0.9h-1v1.4
		h1.2v0.9h-2.2L64.5,554L64.5,554z M67,556.9v-0.2c0-2,0.7-2.7,1.6-2.7c0.3,0,0.4,0,0.6,0.1v1c-0.2-0.1-0.4-0.2-0.5-0.2
		c-0.4,0-0.7,0.4-0.7,1.8v0.2c0,1.5,0.3,1.8,0.8,1.8c0.2,0,0.3-0.1,0.5-0.2v1c-0.2,0.1-0.4,0.2-0.7,0.2
		C67.7,559.6,67,558.8,67,556.9z M69.8,554h1v2.3l0.8-2.3h1.1l-0.9,2.4l1,3.2h-1.1l-0.6-2.1l-0.2,0.6v1.5h-1L69.8,554L69.8,554z
		 M59.1,562h0.8c0.9,0,1.8,0.4,1.8,1.4l0,0c0,0.7-0.4,1.1-0.8,1.3c0.5,0.2,0.9,0.5,0.9,1.2v0.1c0,1-0.8,1.6-1.9,1.6H59L59.1,562
		L59.1,562z M60.1,564.3c0.4,0,0.7-0.2,0.7-0.7l0,0c0-0.5-0.3-0.7-0.7-0.7l0,0V564.3L60.1,564.3z M60.1,566.7c0.4,0,0.8-0.3,0.8-0.7
		l0,0c0-0.5-0.3-0.7-0.8-0.7l0,0V566.7L60.1,566.7L60.1,566.7z M62.2,562h2.1v0.9h-1.2v1.4h1v0.9h-1v1.4h1.2v0.9h-2.2
		C62.2,567.6,62.2,562,62.2,562z M64.9,562h1v4.7h1v0.9h-2C64.9,567.6,64.9,562,64.9,562z M67,564.9v-0.3c0-1.8,0.6-2.7,1.5-2.7
		s1.5,0.9,1.5,2.7v0.3c0,1.8-0.6,2.7-1.5,2.7S67,566.8,67,564.9z M69,564.9v-0.3c0-1.4-0.2-1.8-0.5-1.8s-0.5,0.4-0.5,1.8v0.3
		c0,1.4,0.2,1.8,0.5,1.8S69,566.4,69,564.9z M70.1,562h1l0.4,3.4L72,562h0.9l0.5,3.4l0.4-3.4h1l-0.8,5.6h-1l-0.5-3.3l-0.5,3.3h-1
		L70.1,562z"/>
	<path class="st2" d="M44.7,19.3H44v-0.9h2.4v0.9h-0.7V24h-1V19.3z M46.8,18.4h1v2.3h0.8v-2.3h1V24h-1v-2.4h-0.8V24h-1V18.4z
		 M50.2,18.4h2.1v0.9h-1.2v1.4h1v0.9h-1V23h1.2v1h-2.2C50.2,24,50.2,18.4,50.2,18.4z M54.1,18.4h1v2.3h0.8v-2.3h1V24h-1v-2.4h-0.8
		V24h-1V18.4z M58.2,18.4h1l1.1,5.6h-1l-0.2-1.1h-0.9L58.1,24h-0.9L58.2,18.4z M59,22l-0.3-1.8L58.4,22H59z M60.3,18.4h1l0.5,3.6
		l0.5-3.6h1l-1,5.6h-1L60.3,18.4z M63.6,18.4h2.1v0.9h-1.2v1.4h1v0.9h-1V23h1.2v1h-2.2C63.6,24,63.6,18.4,63.6,18.4z M66.2,18.4h0.9
		l1,2.8v-2.8h1V24h-0.9l-1-3v3h-1V18.4z M70.8,23.8v-1c0.3,0.2,0.6,0.3,0.9,0.3s0.5-0.1,0.5-0.5l0,0c0-0.3-0.1-0.4-0.5-1
		c-0.7-0.8-0.9-1.1-0.9-1.8l0,0c0-0.9,0.6-1.5,1.4-1.5c0.4,0,0.6,0.1,0.9,0.2v1c-0.3-0.2-0.5-0.3-0.7-0.3c-0.3,0-0.5,0.2-0.5,0.5
		l0,0c0,0.3,0.1,0.4,0.5,0.9c0.8,0.9,0.9,1.2,0.9,1.9l0,0c0,0.9-0.6,1.5-1.4,1.5C71.4,24.1,71.1,24,70.8,23.8z M73.5,22.4v-4h1v4.1
		c0,0.5,0.2,0.7,0.4,0.7c0.2,0,0.4-0.2,0.4-0.7v-4.1h1v4c0,1.2-0.6,1.7-1.4,1.7S73.5,23.6,73.5,22.4z M76.9,18.4h0.9l1,2.8v-2.8h1
		V24h-0.9l-1-3v3h-1V18.4L76.9,18.4z M81.5,18.4h0.9c1.2,0,2,0.9,2,2.7v0.2c0,1.8-0.7,2.7-2,2.7h-0.9V18.4z M82.6,23.1
		c0.5,0,0.9-0.4,0.9-1.8v-0.2c0-1.4-0.4-1.8-0.9-1.8l0,0V23.1C82.5,23.1,82.6,23.1,82.6,23.1z M84.9,18.4H87v0.9h-1.2v1.4h1v0.9h-1
		V23H87v1h-2.2L84.9,18.4L84.9,18.4z M87.4,21.3v-0.2c0-2,0.7-2.7,1.6-2.7c0.3,0,0.4,0,0.6,0.1v1c-0.2-0.1-0.4-0.2-0.5-0.2
		c-0.4,0-0.7,0.4-0.7,1.8v0.2c0,1.5,0.3,1.8,0.8,1.8c0.2,0,0.3-0.1,0.5-0.2v1c-0.2,0.1-0.4,0.2-0.7,0.2C88,24.1,87.4,23.3,87.4,21.3
		z M90.1,18.4h1v2.3l0.8-2.3H93l-0.9,2.4l1,3.2H92l-0.6-2.1l-0.2,0.6V24h-1L90.1,18.4L90.1,18.4z"/>
</g>
<g id="GEM_DECK_15_ROOMS">
	<g id="gDeck15HavenDeluxeOwnersSuiteLargeBalconyH2">
		<g id="hDeck15HavenDeluxeOwnersSuiteLargeBalconyH2">
			<g id="g15000">
				<g id="h15000">
					<path id="b15000" class="st3" d="M68.5,402.2c-0.1,0-2.8,0-2.9,0V441l14.5,0.1L80,429.7l22.3-22.8
						C102.4,406.9,93.5,402.2,68.5,402.2z"/>
					<path id="t15000" class="st2" d="M73.4,410.9l0.3-0.5h0.9v4.1h-0.5v-3.7h-0.7V410.9z M77.4,410.9l-0.3,0.9h0.3
						c0.8,0,1.3,0.7,1.3,1.4c0,0.9-0.7,1.5-1.5,1.5c-0.5,0-1-0.3-1.2-0.7l0.4-0.4c0.1,0.4,0.5,0.6,0.9,0.6c0.5,0,1-0.5,1-1
						s-0.4-1-1-1c-0.3,0-0.6,0.1-0.8,0.4h-0.1l0.6-2.1h1.6v0.5L77.4,410.9L77.4,410.9z M79.1,412.5c0-0.9,0.4-2.2,1.4-2.2
						s1.4,1.3,1.4,2.2c0,0.8-0.4,2.2-1.4,2.2S79.1,413.3,79.1,412.5z M79.6,412.5c0,0.6,0.2,1.7,0.9,1.7c0.7,0,0.9-1.1,0.9-1.7
						s-0.2-1.7-0.9-1.7C79.8,410.8,79.6,411.9,79.6,412.5z M82.2,412.5c0-0.9,0.4-2.2,1.4-2.2s1.4,1.3,1.4,2.2
						c0,0.8-0.4,2.2-1.4,2.2S82.2,413.3,82.2,412.5z M82.7,412.5c0,0.6,0.2,1.7,0.9,1.7s0.9-1.1,0.9-1.7s-0.2-1.7-0.9-1.7
						S82.7,411.9,82.7,412.5z M85.3,412.5c0-0.9,0.4-2.2,1.4-2.2s1.4,1.3,1.4,2.2c0,0.8-0.4,2.2-1.4,2.2S85.3,413.3,85.3,412.5z
						 M85.8,412.5c0,0.6,0.2,1.7,0.9,1.7s0.9-1.1,0.9-1.7s-0.2-1.7-0.9-1.7S85.8,411.9,85.8,412.5z"/>
				</g>
			</g>
			<g id="g15500">
				<g id="h15500">
					<path id="b15500" class="st3" d="M29.1,407.1l21.5,23.7l0.2,42.7l14.7-0.1l0.3-28.3v-3.9v-38.8
						C40.9,402.2,36.4,404.9,29.1,407.1z"/>
					<path id="t15500" class="st2" d="M43.4,410.9l0.3-0.5h0.9v4.1h-0.5v-3.7h-0.7V410.9z M47.4,410.9l-0.3,0.9h0.3
						c0.8,0,1.3,0.7,1.3,1.4c0,0.9-0.7,1.5-1.5,1.5c-0.5,0-1-0.3-1.2-0.7l0.4-0.4c0.1,0.4,0.5,0.6,0.9,0.6c0.5,0,1-0.5,1-1
						s-0.4-1-1-1c-0.3,0-0.6,0.1-0.8,0.4h-0.1l0.6-2.1h1.6v0.5L47.4,410.9L47.4,410.9z M50.6,410.9l-0.3,0.9h0.3
						c0.8,0,1.3,0.7,1.3,1.4c0,0.9-0.7,1.5-1.5,1.5c-0.5,0-1-0.3-1.2-0.7l0.4-0.4c0.1,0.4,0.5,0.6,0.9,0.6c0.5,0,1-0.5,1-1
						s-0.4-1-1-1c-0.3,0-0.6,0.1-0.8,0.4h-0.1l0.6-2.1h1.6v0.5L50.6,410.9L50.6,410.9z M52.3,412.5c0-0.9,0.4-2.2,1.4-2.2
						s1.4,1.3,1.4,2.2c0,0.8-0.4,2.2-1.4,2.2S52.3,413.3,52.3,412.5z M52.7,412.5c0,0.6,0.2,1.7,0.9,1.7s0.9-1.1,0.9-1.7
						s-0.2-1.7-0.9-1.7S52.7,411.9,52.7,412.5z M55.4,412.5c0-0.9,0.4-2.2,1.4-2.2s1.4,1.3,1.4,2.2c0,0.8-0.4,2.2-1.4,2.2
						S55.4,413.3,55.4,412.5z M55.9,412.5c0,0.6,0.2,1.7,0.9,1.7s0.9-1.1,0.9-1.7s-0.2-1.7-0.9-1.7S55.9,411.9,55.9,412.5z"/>
				</g>
			</g>
		</g>
	</g>
</g>
<g id="GEM_DECK_15_TOP">
	<line class="st1" x1="50.9" y1="455.2" x2="65.4" y2="455.2"/>
	<line class="st1" x1="50.9" y1="457.5" x2="65.4" y2="457.5"/>
	<line class="st1" x1="50.9" y1="459.8" x2="65.4" y2="459.8"/>
	<line class="st1" x1="50.9" y1="462.1" x2="65.4" y2="462.1"/>
	<line class="st1" x1="50.9" y1="464.4" x2="65.4" y2="464.4"/>
	<line class="st1" x1="50.9" y1="466.7" x2="65.4" y2="466.7"/>
	<line class="st1" x1="50.9" y1="469.1" x2="65.4" y2="469.1"/>
	<line class="st1" x1="50.9" y1="471.4" x2="65.4" y2="471.4"/>
	<path class="st1" d="M57.9,455.1v-25.8h5.9c9.1,0,7.7,9.5,1.4,9.5"/>
	<polyline class="st1" points="28.4,406.9 50.7,430.5 50.7,473 	"/>
	<polyline class="st1" points="65.6,441 80.1,441 80.1,429.7 102.4,406.9 	"/>
	<polyline class="st1" points="65.6,441.1 65.4,473.3 50.5,473.3 	"/>
	<g id="gDeck15Locations">
		<polygon width="130.1" height="136.5779" id="_x31_5Aft" class="st4" points="0.5,634.7 0.5,650.7 5.9,650.7 5.9,644.5 36.4,644.5 36.4,771.3 94.8,771.3 
			94.8,644.5 125.2,644.5 125.2,650.7 130.6,650.7 130.6,634.7 		"/>
		<polygon width="130.1" height="201.8471" id="_x31_5MidShip" class="st4" points="130.6,432.9 80.2,432.9 80.2,476.2 50.6,476.4 50.5,432.9 0.5,432.9 0.5,634.7 
			130.6,634.7 		"/>
		<path width="130.1" height="475.9" id="_x31_5Forward" class="st4" d="M50.5,432.9h-50v-9c18.5-20.3,51.7-21.6,51.7-21.6h7.9H71h7.9c0,0,33.2,1.3,51.7,21.6v9
			l-50.4-0.1v43.3l-29.6,0.2L50.5,432.9z M101.7,0.5v59.3l-4.2,4.1H87.2v56.6H44.5V98h-5.8v-4h5.8V63.9H34.1L30,59.8V0.5h31.6h8.5
			H101.7z"/>
	</g>
	<polygon class="st5" points="70.1,0.5 61.6,0.5 30,0.5 30,59.8 34.1,63.9 44.5,63.9 44.5,94 38.7,94 38.7,98 44.5,98 44.5,120.5 
		87.2,120.5 87.2,63.9 97.5,63.9 101.7,59.8 101.7,0.5 	"/>
	<path class="st5" d="M71,402.3h7.9c0,0,33.2,1.3,51.7,21.6v226.8h-5.4v-6.2H94.8v126.8H36.4V644.5H5.9v6.2H0.5V423.9
		c18.5-20.3,51.7-21.6,51.7-21.6h7.9H71z"/>
</g>
</svg>
