<?xml version="1.0" encoding="utf-8"?>
<!-- Generator: Adobe Illustrator 24.0.1, SVG Export Plug-In . SVG Version: 6.00 Build 0)  -->
<svg version="1.1" id="Getaway_Deck_Selector" xmlns="http://www.w3.org/2000/svg" xmlns:xlink="http://www.w3.org/1999/xlink"
	 x="0px" y="0px" viewBox="0 0 236.5 60.4" style="enable-background:new 0 0 236.5 60.4;" xml:space="preserve">
<style type="text/css">
	.st0{fill:#FFFFFF;stroke:#CAD2D7;stroke-width:0.5;stroke-miterlimit:10;}
	.st1{fill:none;stroke:#CAD2D7;stroke-width:0.5;stroke-miterlimit:10;}
</style>
<g id="gGetawayDeckSelectorForward">
	<g id="bGetawayDeckSelectorForward">
		<path id="f" class="st0" d="M199.6,26.5c0,0,3.1-2.2,3.2-5h-10.4V19h3.7l-2.5-2.5h-2.2V14h2.7l-3.4-2.5h-10.5
			c0.1-0.3,0-0.4-0.1-0.7l-1.4-2.3h1.5c0.6,0,1-0.4,1-1s-0.4-1-1-1h-2.6L177,5.4h0.4c0.6,0,1-0.4,1-1s-0.4-1-1-1h-5.8c0,0,0,0-0.1,0
			l-0.9-1.6c-0.3-0.5-0.9-0.6-1.4-0.4c-0.5,0.3-0.6,0.9-0.4,1.4l4.9,8.7h-16.3v48.6h63.4l15-18.6h-26.6L199.6,26.5z M173.3,6.5
			l-0.6-1.1h2l0,0l0.6,1.1H173.3z M176,11.5c0-0.2,0-0.2,0-0.3l-1.5-2.7h2l1.8,3H176z"/>
	</g>
	<g id="hDeckForward_05">
		<polygon id="_x30_5_2_" class="st0" points="157.5,51.6 227.9,51.6 229.9,49.1 157.5,49.1 		"/>
	</g>
	<g id="hDeckForward_06">
		<polygon id="_x30_6_2_" class="st0" points="157.5,49.1 229.9,49.1 231.9,46.6 157.5,46.6 		"/>
	</g>
	<g id="hDeckForward_07">
		<polygon id="_x30_7_2_" class="st0" points="157.5,46.6 231.9,46.6 233.9,44.1 157.5,44.1 		"/>
	</g>
	<g id="hDeckForward_08">
		<polygon id="_x30_8_2_" class="st0" points="157.5,44.1 233.9,44.1 236,41.6 157.5,41.6 		"/>
	</g>
	<g id="hDeckForward_09">
		<polygon id="_x30_9_2_" class="st0" points="157.5,41.6 209.4,41.6 207.7,39.1 157.5,39.1 		"/>
	</g>
	<g id="hDeckForward_10">
		<polygon id="_x31_0_2_" class="st0" points="157.5,39.1 207.7,39.1 206.1,36.6 157.5,36.6 		"/>
	</g>
	<g id="hDeckForward_11">
		<polygon id="_x31_1_2_" class="st0" points="157.5,36.6 206.1,36.6 204.5,34.1 157.5,34.1 		"/>
	</g>
	<g id="hDeckForward_12">
		<polygon id="_x31_2_2_" class="st0" points="157.5,34.1 204.5,34.1 202.8,31.6 157.5,31.6 		"/>
	</g>
	<g id="hDeckForward_13">
		<polygon id="_x31_3_2_" class="st0" points="157.5,31.6 202.8,31.6 201.2,29.1 157.5,29.1 		"/>
	</g>
	<g id="hDeckForward_14">
		<polygon id="_x31_4_2_" class="st0" points="157.5,29.1 201.2,29.1 199.6,26.6 157.5,26.6 		"/>
	</g>
	<g id="hDeckForward_15">
		<path id="_x31_5_2_" class="st0" d="M157.5,26.6h42l0,0c0,0,1.4-1,2.4-2.5h-44.4V26.6z"/>
	</g>
	<g id="hDeckForward_16">
		<path id="_x31_6_2_" class="st0" d="M157.5,24h44.4c0.5-0.7,0.8-1.6,0.9-2.5h-45.3L157.5,24L157.5,24z"/>
	</g>
	<g id="hDeckForward_17">
		<polygon id="_x31_7_2_" class="st0" points="157.5,21.5 192.4,21.5 192.4,21.5 192.4,19 157.5,19 		"/>
	</g>
	<g id="hDeckForward_18">
		<polygon id="_x31_8_2_" class="st0" points="157.5,19 192.4,19 192.4,19 196.1,19 193.6,16.5 157.5,16.5 		"/>
	</g>
	<g id="hDeckForward_19">
		<polygon id="_x31_9_2_" class="st1" points="157.5,16.5 191.4,16.5 191.4,14 157.5,14 		"/>
	</g>
	<g id="hDeckForward_20">
		<polygon id="_x32_0_2_" class="st1" points="157.5,11.5 157.5,14 194.1,14 190.7,11.5 180.2,11.5 180.2,11.5 178.2,11.5 
			178.2,11.5 176,11.5 176,11.5 173.8,11.5 173.8,11.5 		"/>
	</g>
</g>
<g id="gGetawayDeckSelectorMidShip">
	<g id="bGetawayDeckSelectorMidShip">
		<path id="m" class="st0" d="M157.4,11.5V7.6h-18.3v3.9h-4c0-0.2-0.4-0.6-0.5-0.8l-4-6.9c-0.3-0.5-0.9-0.6-1.4-0.4
			c-0.5,0.3-0.6,0.9-0.4,1.4l3.9,6.7h-8.8V14H83.4v-3.6c0,0-2.4-2.6-4.7-4.7v54.4h78.7V11.5L157.4,11.5z"/>
	</g>
	<g id="hDeckMidShip_05">
		<rect id="_x30_5_1_" x="78.8" y="49.1" class="st0" width="78.7" height="2.5"/>
	</g>
	<g id="hDeckMidShip_06">
		<rect id="_x30_6" x="78.8" y="46.6" class="st0" width="78.7" height="2.5"/>
	</g>
	<g id="hDeckMidShip_07">
		<rect id="_x30_7" x="78.8" y="44.1" class="st0" width="78.7" height="2.5"/>
	</g>
	<g id="hDeckMidShip_08">
		<rect id="_x30_8" x="78.8" y="41.6" class="st0" width="78.7" height="2.5"/>
	</g>
	<g id="hDeckMidShip_09">
		<rect id="_x30_9" x="78.8" y="39.1" class="st0" width="78.7" height="2.5"/>
	</g>
	<g id="hDeckMidShip_10">
		<rect id="_x31_0_1_" x="78.8" y="36.6" class="st0" width="78.7" height="2.5"/>
	</g>
	<g id="hDeckMidShip_11">
		<rect id="_x31_1_1_" x="78.8" y="34.1" class="st0" width="78.7" height="2.5"/>
	</g>
	<g id="hDeckMidShip_12">
		<rect id="_x31_2_1_" x="78.8" y="31.6" class="st0" width="78.7" height="2.5"/>
	</g>
	<g id="hDeckMidShip_13">
		<rect id="_x31_3_1_" x="78.8" y="29.1" class="st0" width="78.7" height="2.5"/>
	</g>
	<g id="hDeckMidShip_14">
		<rect id="_x31_4_1_" x="78.8" y="26.6" class="st0" width="78.7" height="2.5"/>
	</g>
	<g id="hDeckMidShip_15">
		<rect id="_x31_5_1_" x="78.8" y="24" class="st0" width="78.7" height="2.5"/>
	</g>
	<g id="hDeckMidShip_16">
		<rect id="_x31_6_1_" x="78.8" y="21.5" class="st0" width="78.7" height="2.5"/>
	</g>
	<g id="hDeckMidShip_17">
		<rect id="_x31_7_1_" x="78.8" y="19" class="st0" width="78.7" height="2.5"/>
	</g>
	<g id="hDeckMidShip_18">
		<rect id="_x31_8_1_" x="78.8" y="16.5" class="st0" width="78.7" height="2.5"/>
	</g>
	<g id="hDeckMidShip_19">
		<polygon id="_x31_9_1_" class="st1" points="78.7,16.5 157.5,16.5 157.5,14 124,14 124,14 83.5,14 83.5,14 78.7,14 		"/>
	</g>
	<g id="hDeckMidShip_20">
		<path id="_x32_0_1_" class="st1" d="M78.7,14v-2.5h4.8V14H78.7z M157.5,11.5h-0.1l0,0h-18.3l0,0h-4l0,0h-2.3l0,0H124V14h33.6
			L157.5,11.5L157.5,11.5z"/>
	</g>
</g>
<g id="gGetawayDeckSelectorAft">
	<g id="bGetawayDeckSelectorAft">
		<path id="a" class="st0" d="M75,3.2h-2.5v-2c0-0.6-0.4-1-1-1s-1,0.4-1,1v2h-0.8v-2c0-0.6-0.4-1-1-1s-1,0.4-1,1v2h-0.8v-2
			c0-0.6-0.4-1-1-1s-1,0.4-1,1v2h-0.6c0,0-0.2,0.1,0.6,1.4c0.7,1.3,0.8,6.9,0.8,6.9h-2.4l-2.4-3.9H47.6v1.8h-4.7v2.1h-4.1
			c0-0.1-0.1-0.2-0.1-0.3l-4-6.9c-0.3-0.5-0.9-0.6-1.4-0.4c-0.5,0.3-0.6,0.9-0.4,1.4l3.7,6.2h-7.8V14H16.2l-0.9,2.5h-1.2v5l1.6,2.5
			C12.5,27.8,4.2,44,4.2,44h-2l-0.9,2.5L2.5,49c0,0-2.6,5.3-2.2,7.2l4.4,2l-0.2,1.9H79V5.8C77.3,4.4,75.8,3.3,75,3.2z"/>
	</g>
	<g id="hDeckAft_05">
		<path id="_x30_5" class="st0" d="M78.8,49.1H2.5c0,0-0.5,1.1-1.1,2.5h77.5L78.8,49.1L78.8,49.1z"/>
	</g>
	<g id="hDeckAft_06">
		<polygon id="_x30_6_1_" class="st0" points="78.8,46.6 1.3,46.6 2.5,49.1 2.5,49.1 78.8,49.1 		"/>
	</g>
	<g id="hDeckAft_07">
		<polygon id="_x30_7_1_" class="st0" points="78.8,44.1 2.2,44.1 1.3,46.6 1.3,46.6 78.8,46.6 		"/>
	</g>
	<g id="hDeckAft_08">
		<path id="_x30_8_1_" class="st0" d="M78.8,41.6H5.4c-0.8,1.5-1.3,2.5-1.3,2.5h74.7C78.8,44.1,78.8,41.6,78.8,41.6z"/>
	</g>
	<g id="hDeckAft_09">
		<path id="_x30_9_1_" class="st0" d="M78.8,39.1h-72C6.3,40,5.9,41,5.5,41.6h73.4L78.8,39.1L78.8,39.1z"/>
	</g>
	<g id="hDeckAft_10">
		<path id="_x31_0" class="st0" d="M78.8,36.6H8.1c-0.5,0.9-0.9,1.7-1.3,2.5h72.1L78.8,36.6L78.8,36.6z"/>
	</g>
	<g id="hDeckAft_11">
		<path id="_x31_1" class="st0" d="M78.8,34.1H9.5c-0.5,0.8-0.9,1.7-1.4,2.5h70.7C78.8,36.6,78.8,34.1,78.8,34.1z"/>
	</g>
	<g id="hDeckAft_12">
		<path id="_x31_2" class="st0" d="M78.8,31.6h-68c-0.5,0.8-0.9,1.7-1.4,2.5h69.4V31.6z"/>
	</g>
	<g id="hDeckAft_13">
		<path id="_x31_3" class="st0" d="M78.8,29.1H12.3c-0.5,0.8-1,1.6-1.5,2.5h68V29.1z"/>
	</g>
	<g id="hDeckAft_14">
		<path id="_x31_4" class="st0" d="M78.8,26.6h-65c-0.5,0.8-1,1.6-1.5,2.5h66.5V26.6z"/>
	</g>
	<g id="hDeckAft_15">
		<path id="_x31_5" class="st0" d="M78.8,24H15.7c-0.5,0.6-1.1,1.4-1.8,2.5h65L78.8,24L78.8,24z"/>
	</g>
	<g id="hDeckAft_16">
		<polygon id="_x31_6" class="st0" points="78.8,21.5 14,21.5 15.7,24 15.7,24 78.8,24 		"/>
	</g>
	<g id="hDeckAft_17">
		<polygon id="_x31_7" class="st0" points="78.8,19 14,19 14,21.5 14,21.5 78.8,21.5 		"/>
	</g>
	<g id="hDeckAft_18">
		<rect id="_x31_8" x="14" y="16.5" class="st0" width="64.8" height="2.5"/>
	</g>
	<g id="hDeckAft_19">
		<polygon id="_x31_9" class="st1" points="78.7,14 28.8,14 28.8,14 16.2,14 15.3,16.5 78.7,16.5 		"/>
	</g>
	<g id="hDeckAft_20">
		<polygon id="_x32_0" class="st1" points="65.7,11.5 63.3,11.5 63.3,11.5 42.9,11.5 38.8,11.5 36.6,11.5 28.8,11.5 28.8,14 
			78.7,14 78.7,11.5 		"/>
	</g>
</g>
</svg>
