<?xml version="1.0" encoding="utf-8"?>
<!-- Generator: Adobe Illustrator 23.0.4, SVG Export Plug-In . SVG Version: 6.00 Build 0)  -->
<svg version="1.1" id="GEM_DECK_06" xmlns="http://www.w3.org/2000/svg" xmlns:xlink="http://www.w3.org/1999/xlink" x="0px"
	 y="0px" width="127.742px" height="1080.72px" viewBox="0 0 127.742 1080.72" style="enable-background:new 0 0 127.742 1080.72;"
	 xml:space="preserve">
<style type="text/css">
	.New_x0020_Cabins_x0020_2019{fill:#EFF2F5;stroke:#FFFFFF;stroke-width:0.5;stroke-miterlimit:10;}
	.st0{fill:#FFFFFF;}
	.st1{fill:none;stroke:#D5DCE0;stroke-width:0.5;}
	.st2{fill:#6E8496;}
	.st3{fill:none;stroke:#076FA0;stroke-miterlimit:10;}
	.st4{fill:none;}
</style>
<g id="GEM_DECK_06_BOTTOM">
	<path class="st0" d="M63.683,0.258c0,0,13.795,15.476,28,40.333c16,27.998,26.668,76.002,27.667,85.334
		c0.152,1.422,6.295,25.155,6.667,62.666c2.068,208.562,1,874.667,1,874.667l-5.333,5.334c0,0-10.667,11.333-57.667,12
		c-47,0.667-57.667-11.001-57.667-11.001l-5.667-7.666l0.334-870.334L8.35,125.59c0,0,5-42.334,30-90.667
		C44.998,22.068,63.683,0.258,63.683,0.258z"/>
	<path class="st1" d="M51.037,959.665c0,0.598-0.486,1.084-1.084,1.084c-0.6,0-1.084-0.486-1.084-1.084
		c0-0.598,0.484-1.084,1.084-1.084C50.55,958.581,51.037,959.068,51.037,959.665z"/>
	<path class="st1" d="M76.734,959.665c0,0.598,0.484,1.084,1.084,1.084c0.598,0,1.082-0.486,1.082-1.084
		c0-0.598-0.484-1.084-1.082-1.084C77.218,958.581,76.734,959.068,76.734,959.665z"/>
	<path class="st1" d="M62.251,962.841c-8.697-0.82-15.633-7.656-16.561-16.279"/>
	<path class="st1" d="M82.33,946.628c-0.951,8.565-7.834,15.352-16.473,16.205"/>
	<path class="st1" d="M77.089,960.501c-3.512,2.943-8.039,4.717-12.983,4.717c-4.976,0-9.533-1.799-13.055-4.781"/>
	<path class="st1" d="M62.517,960.654c-7.395-0.728-13.301-6.795-14.152-14.467"/>
	<path class="st1" d="M79.665,946.181c-0.85,7.674-6.756,13.742-14.154,14.471"/>
	<path class="st1" d="M63.04,958.488c-6.275-0.467-11.334-5.42-12.121-11.732"/>
	<path class="st1" d="M77.109,946.763c-1.24,9.898-8.466,11.521-12.123,11.732"/>
	<path class="st1" d="M55.169,955.279c0,0-3.479,5.395-4.562,5.062"/>
	<path class="st1" d="M72.73,955.408c0,0,3.35,5.266,4.432,4.934"/>
	<circle class="st1" cx="64.107" cy="963.091" r="1.812"/>
	<polyline class="st1" points="62.107,963.091 64.044,955.029 66.044,963.154 	"/>
	<path class="st1" d="M34.163,953.408c0,0,4.364,5.478,3.783,17.99"/>
	<path class="st1" d="M94.322,953.408c0,0-4.365,5.478-3.783,17.99"/>
	<path class="st1" d="M114.635,476.972c0,0-1.038,5.01-3.585,8.336c-7.171,12.729-25.188,12.191-30.746,8.605
		c-4.482-2.061-7.708-6.723-7.708-6.723l7.798-12.997c0,0,3.406-4.482,1.883-5.827c-0.358-0.627-3.138-2.061-3.138-2.061
		l4.393-9.681h32.281C115.813,456.624,116.356,472.473,114.635,476.972z"/>
	<polyline class="st1" points="24.146,1076.228 24.146,991.72 0.714,991.72 	"/>
	<polyline class="st1" points="103.785,1076.228 103.785,991.72 127.216,991.72 	"/>
	<polygon class="st1" points="58.971,943.298 53.727,943.298 53.727,946.378 45.365,946.378 45.365,917.331 52.626,917.331 
		52.626,937.576 60.197,937.576 63.629,937.576 75.953,937.576 75.953,917.331 83.214,917.331 83.214,946.378 74.852,946.378 
		74.852,943.298 63.409,943.298 	"/>
	<line class="st1" x1="0.404" y1="927.927" x2="45.472" y2="927.927"/>
	<polyline class="st1" points="83.281,927.927 104.152,927.927 104.152,895.408 127.025,895.408 	"/>
	<path class="st1" d="M62.604,894.091h27.524v44.121c0,0-0.605,5.445-2.117,9.377c-1.512,3.932-8.167,16.635-3.932,26.92
		c0,0-12.705,4.84-14.519,4.84c0,0-0.758,2.766-3.661,3.473l-2.142,0.102c-3.279-0.479-4.674-3.574-4.674-3.574
		c-1.814,0-14.519-4.84-14.519-4.84c4.235-10.285-2.42-22.988-3.932-26.92c-1.512-3.932-2.118-9.377-2.118-9.377v-44.121H66.04"/>
	<line class="st1" x1="103.601" y1="797.771" x2="127.56" y2="797.771"/>
	<polyline class="st1" points="79.902,634.419 79.902,615.892 48.308,615.892 48.308,634.766 	"/>
	<line class="st1" x1="127.324" y1="615.719" x2="0.75" y2="615.719"/>
	<polyline class="st1" points="85.517,588.905 92.294,588.905 92.294,550.504 92.294,518.584 58.935,518.584 58.935,508.246 
		50.947,508.246 50.947,505.27 31.684,505.27 31.684,592.98 	"/>
	<line class="st1" x1="117.189" y1="550.755" x2="92.294" y2="550.755"/>
	<polyline class="st1" points="127.389,485.392 119.13,485.392 112.132,493.63 112.132,532.63 119.507,540.255 127.007,540.255 	"/>
	<polygon class="st1" points="79.139,466.305 75.007,472.505 56.132,472.63 56.257,451.755 83.007,451.755 83.007,457.88 	"/>
	<polyline class="st1" points="0.628,443.755 36.095,443.755 127.125,443.755 	"/>
	<polygon class="st1" points="45.444,648.256 83.471,648.256 83.471,657.462 45.389,657.462 	"/>
	<line class="st1" x1="54.91" y1="648.147" x2="54.91" y2="657.408"/>
	<line class="st1" x1="64.43" y1="648.147" x2="64.43" y2="657.408"/>
	<line class="st1" x1="73.951" y1="648.147" x2="73.951" y2="657.408"/>
	<polygon class="st1" points="45.444,271.645 83.471,271.645 83.471,280.851 45.389,280.851 	"/>
	<line class="st1" x1="54.91" y1="271.535" x2="54.91" y2="280.796"/>
	<line class="st1" x1="64.43" y1="271.535" x2="64.43" y2="280.796"/>
	<line class="st1" x1="73.951" y1="271.535" x2="73.951" y2="280.796"/>
	<polygon class="st1" points="64.347,884.849 73.868,884.849 73.868,894.055 64.333,894.055 	"/>
	<line class="st1" x1="59.017" y1="473.07" x2="59.017" y2="509.244"/>
	<polyline class="st1" points="40.289,443.517 40.289,451.082 45.254,451.082 45.254,482.764 50.928,482.764 50.928,506.879 	"/>
	<path class="st1" d="M117.039,551.271v-5.975l-9.408-9.113v-27.264c0,0,0.17-2.898-0.427-5.37
		c-2.558-4.944-8.353-3.495-8.353-3.495s-9.377,1.96-16.708-0.17c-3.58-0.682-11.509-5.797-11.509-5.797s-1.278-1.705-2.558-1.278
		c-2.131,0.171-1.533,2.983-1.533,2.983h-7.161"/>
	<path class="st1" d="M64.887,282.331H86.94v-59.816l10.301-10.301v-17.71h-6.923c0,0,0.173,12.731,0.105,13.597
		c-0.276,3.501-5.265,3.132-5.265,3.132H72.249H56.893H43.984c0,0-5.344,0.829-5.62-2.672c-0.068-0.866,0.46-14.058,0.46-14.058
		h-6.923v17.71l10.301,10.301v59.816H64.887z"/>
	<path class="st1" d="M19.314,126.016l-9.758,45.179c0,0,8.995,5.561,17.648,10.368l4.698,12.941"/>
	<path class="st1" d="M109.609,125.837l9.759,45.897c0,0-6.701,3.503-18.086,9.322l-4.041,13.447"/>
	<line class="st1" x1="42.452" y1="248.355" x2="87.088" y2="248.355"/>
	<polyline class="st1" points="110.909,415.585 33.809,415.591 33.762,415.591 33.762,443.267 	"/>
	<polyline class="st1" points="0.749,313.832 51.56,313.832 51.56,319.989 78.79,319.989 78.79,313.548 83.781,313.548 	"/>
	<polygon class="st1" points="83.82,313.548 78.79,313.548 78.79,320.195 51.56,320.195 51.56,313.832 42.311,313.832 
		42.311,290.745 48.765,290.745 48.765,311.88 77.412,311.88 77.412,290.898 83.82,290.898 	"/>
	<path class="st1" d="M8.718,125.629h20.297v-2.927h8.198c0,0,2.589-0.144,3.596,1.294c0.933,1.333,10.878,9.085,21.143,9.303
		l4.32-0.004c10.212-0.289,20.064-7.973,20.993-9.299c1.007-1.438,3.596-1.294,3.596-1.294h8.858v2.876h20.065"/>
	<polyline class="st1" points="0.819,689.976 37.633,689.976 37.633,701.501 100.082,701.501 100.082,711.351 108.674,711.351 
		108.674,722.876 127.348,722.876 	"/>
	<path class="st1" d="M60.929,180.798c1.06,0.086,2.152,0.162,3.278,0.228"/>
	<path class="st1" d="M32.963,122.982v14.619l-6.736,5.016l7.883,11.036l-5.733,16.911c0,0,5.965,8.084,32.552,10.234"/>
	<path class="st1" d="M94.732,122.982v14.619l6.736,5.016l-7.883,11.036l5.733,16.911c0,0-6.45,8.742-35.83,10.462"/>
	<rect x="84.154" y="605.409" class="st1" width="21.339" height="10.311"/>
	<rect x="84.154" y="615.719" class="st1" width="21.339" height="10.311"/>
	<path class="st1" d="M68,495.861c-0.599-0.127-0.981-0.716-0.854-1.315c0.127-0.599,0.716-0.982,1.314-0.855
		c0.6,0.126,0.982,0.716,0.855,1.315C69.189,495.604,68.6,495.988,68,495.861z"/>
	<path class="st1" d="M69.008,494.492c0,0-2.083,7.841-1.975,8.626c0,0-0.441,1.453,4.385,1.031l4.05-0.26"/>
	<line class="st1" x1="59.033" y1="498.065" x2="67.9" y2="498.065"/>
	<line class="st1" x1="59.099" y1="500.536" x2="67.502" y2="500.536"/>
	<line class="st1" x1="58.967" y1="503.006" x2="67.172" y2="503.006"/>
	<line class="st1" x1="85.826" y1="588.905" x2="85.826" y2="605.662"/>
	<line class="st1" x1="31.659" y1="589.282" x2="31.659" y2="616.104"/>
	<line class="st1" x1="38.537" y1="939.315" x2="0.535" y2="939.315"/>
	<polyline class="st1" points="103.627,995.02 114.54,995.02 114.54,1014.931 104.106,1014.931 	"/>
	<line class="st1" x1="119.422" y1="995.694" x2="119.422" y2="1016.082"/>
	<line class="st1" x1="114.594" y1="997.512" x2="119.38" y2="997.512"/>
	<line class="st1" x1="114.594" y1="999.139" x2="119.38" y2="999.139"/>
	<line class="st1" x1="114.594" y1="1000.767" x2="119.38" y2="1000.767"/>
	<line class="st1" x1="114.594" y1="1004.022" x2="119.38" y2="1004.022"/>
	<line class="st1" x1="114.594" y1="1005.649" x2="119.38" y2="1005.649"/>
	<line class="st1" x1="114.498" y1="1007.276" x2="119.285" y2="1007.276"/>
	<line class="st1" x1="114.498" y1="1008.904" x2="119.285" y2="1008.904"/>
	<line class="st1" x1="114.211" y1="1010.531" x2="118.998" y2="1010.531"/>
	<line class="st1" x1="114.116" y1="1012.159" x2="118.902" y2="1012.159"/>
	<line class="st1" x1="114.594" y1="1013.786" x2="119.38" y2="1013.786"/>
	<line class="st1" x1="114.625" y1="1002.394" x2="119.412" y2="1002.394"/>
	<polyline class="st1" points="24.056,995.02 13.144,995.02 13.144,1014.931 23.578,1014.931 	"/>
	<line class="st1" x1="8.261" y1="995.694" x2="8.261" y2="1016.082"/>
	<line class="st1" x1="13.089" y1="997.512" x2="8.303" y2="997.512"/>
	<line class="st1" x1="13.089" y1="999.139" x2="8.303" y2="999.139"/>
	<line class="st1" x1="13.089" y1="1000.767" x2="8.303" y2="1000.767"/>
	<line class="st1" x1="13.089" y1="1004.022" x2="8.303" y2="1004.022"/>
	<line class="st1" x1="13.089" y1="1005.649" x2="8.303" y2="1005.649"/>
	<line class="st1" x1="13.185" y1="1007.276" x2="8.399" y2="1007.276"/>
	<line class="st1" x1="13.185" y1="1008.904" x2="8.399" y2="1008.904"/>
	<line class="st1" x1="13.472" y1="1010.531" x2="8.686" y2="1010.531"/>
	<line class="st1" x1="13.568" y1="1012.159" x2="8.782" y2="1012.159"/>
	<line class="st1" x1="13.089" y1="1013.786" x2="8.303" y2="1013.786"/>
	<line class="st1" x1="13.058" y1="1002.394" x2="8.272" y2="1002.394"/>
	<line class="st1" x1="104.011" y1="798.108" x2="104.011" y2="903.367"/>
	<polyline class="st1" points="24.623,313.626 24.623,291.362 0.59,291.362 	"/>
	<line class="st1" x1="24.877" y1="302.245" x2="0.336" y2="302.245"/>
	<polyline class="st1" points="73.706,415.585 114.146,415.585 114.146,443.779 	"/>
	<line class="st1" x1="106.342" y1="201.975" x2="126.582" y2="201.975"/>
	<polyline class="st1" points="125.823,179.033 106.341,179.033 106.341,216.223 127.078,216.223 	"/>
	<line class="st1" x1="106.342" y1="194.086" x2="126.582" y2="194.086"/>
	<line class="st1" x1="86.861" y1="225.352" x2="86.861" y2="210.982"/>
	<line class="st1" x1="42.217" y1="225.079" x2="42.217" y2="211.365"/>
	<line class="st1" x1="102.516" y1="658.211" x2="127.016" y2="658.211"/>
	<polyline class="st1" points="31.559,614.292 31.559,661.797 102.516,661.797 102.516,657.841 	"/>
	<path class="st1" d="M117.006,549.306v48.401v2.539c-0.746,5.527-4.482,5.139-4.482,5.139h-6.871"/>
	<polyline class="st1" points="84.438,307.051 104.955,307.051 104.955,314.477 114.31,314.477 114.31,295.069 127.113,295.069 	"/>
	<polyline class="st1" points="0.914,220.685 32.428,220.685 32.428,270.112 0.769,270.112 	"/>
	<line class="st1" x1="32.517" y1="247.892" x2="0.984" y2="247.892"/>
	<line class="st1" x1="24.031" y1="220.828" x2="24.031" y2="183.697"/>
	<line class="st1" x1="24.031" y1="183.697" x2="1.74" y2="183.697"/>
	<line class="st1" x1="45.972" y1="648.455" x2="54.904" y2="657.22"/>
	<line class="st1" x1="54.904" y1="648.455" x2="45.972" y2="657.22"/>
	<line class="st1" x1="55.177" y1="648.455" x2="64.109" y2="657.22"/>
	<line class="st1" x1="64.109" y1="648.455" x2="55.177" y2="657.22"/>
	<line class="st1" x1="64.766" y1="648.455" x2="73.698" y2="657.22"/>
	<line class="st1" x1="73.698" y1="648.455" x2="64.766" y2="657.22"/>
	<line class="st1" x1="74.519" y1="648.455" x2="83.451" y2="657.22"/>
	<line class="st1" x1="83.451" y1="648.455" x2="74.519" y2="657.22"/>
	<line class="st1" x1="45.972" y1="271.843" x2="54.904" y2="280.608"/>
	<line class="st1" x1="54.904" y1="271.843" x2="45.972" y2="280.608"/>
	<line class="st1" x1="55.177" y1="271.843" x2="64.109" y2="280.608"/>
	<line class="st1" x1="64.109" y1="271.843" x2="55.177" y2="280.608"/>
	<line class="st1" x1="64.766" y1="271.843" x2="73.698" y2="280.608"/>
	<line class="st1" x1="73.698" y1="271.843" x2="64.766" y2="280.608"/>
	<line class="st1" x1="74.519" y1="271.843" x2="83.451" y2="280.608"/>
	<line class="st1" x1="83.451" y1="271.843" x2="74.519" y2="280.608"/>
	<line class="st1" x1="64.615" y1="885.047" x2="73.546" y2="893.813"/>
	<line class="st1" x1="73.546" y1="885.047" x2="64.615" y2="893.813"/>
	<path class="st1" d="M70.545,292.407c-0.313,0-0.566,0.269-0.566,0.607"/>
	<line class="st1" x1="77.39" y1="292.407" x2="70.545" y2="292.407"/>
	<line class="st1" x1="69.979" y1="293.014" x2="69.979" y2="295.364"/>
	<line class="st1" x1="69.979" y1="295.364" x2="56.524" y2="295.364"/>
	<path class="st1" d="M56.524,293.014c0-0.338-0.249-0.607-0.562-0.607"/>
	<line class="st1" x1="56.524" y1="295.364" x2="56.524" y2="293.014"/>
	<line class="st1" x1="55.962" y1="292.407" x2="49.076" y2="292.407"/>
	<line class="st1" x1="63.403" y1="306.899" x2="63.403" y2="292.19"/>
	<line class="st1" x1="63.13" y1="306.899" x2="63.13" y2="292.19"/>
	<line class="st1" x1="77.072" y1="306.147" x2="63.403" y2="306.147"/>
	<line class="st1" x1="63.403" y1="292.19" x2="63.13" y2="292.19"/>
	<line class="st1" x1="63.403" y1="306.899" x2="63.13" y2="306.899"/>
	<line class="st1" x1="63.13" y1="306.147" x2="48.969" y2="306.147"/>
	<line class="st1" x1="63.13" y1="304.589" x2="57.107" y2="304.589"/>
	<line class="st1" x1="63.13" y1="303.03" x2="57.107" y2="303.03"/>
	<line class="st1" x1="63.13" y1="301.471" x2="57.107" y2="301.471"/>
	<line class="st1" x1="63.13" y1="299.911" x2="57.107" y2="299.911"/>
	<line class="st1" x1="63.13" y1="298.352" x2="57.107" y2="298.352"/>
	<line class="st1" x1="63.13" y1="296.792" x2="57.107" y2="296.792"/>
	<line class="st1" x1="63.13" y1="293.675" x2="56.561" y2="293.675"/>
	<line class="st1" x1="69.426" y1="304.589" x2="63.403" y2="304.589"/>
	<line class="st1" x1="69.426" y1="303.03" x2="63.403" y2="303.03"/>
	<line class="st1" x1="69.426" y1="301.471" x2="63.403" y2="301.471"/>
	<line class="st1" x1="69.426" y1="299.911" x2="63.403" y2="299.911"/>
	<line class="st1" x1="69.426" y1="298.352" x2="63.403" y2="298.352"/>
	<line class="st1" x1="69.426" y1="296.792" x2="63.403" y2="296.792"/>
	<line class="st1" x1="70.021" y1="293.675" x2="63.403" y2="293.675"/>
	<line class="st1" x1="48.919" y1="293.942" x2="56.011" y2="293.942"/>
	<line class="st1" x1="49.016" y1="295.481" x2="56.755" y2="295.481"/>
	<line class="st1" x1="48.872" y1="297.014" x2="56.011" y2="297.014"/>
	<line class="st1" x1="49.016" y1="298.55" x2="55.983" y2="298.55"/>
	<line class="st1" x1="69.962" y1="293.942" x2="77.264" y2="293.942"/>
	<line class="st1" x1="69.915" y1="295.481" x2="77.314" y2="295.481"/>
	<line class="st1" x1="70.521" y1="297.014" x2="77.362" y2="297.014"/>
	<line class="st1" x1="70.521" y1="298.55" x2="77.314" y2="298.55"/>
	<path class="st1" d="M55.918,307.075c0,0.324,0.246,0.588,0.548,0.588c0.303,0,0.547-0.264,0.547-0.588l0,0"/>
	<line class="st1" x1="57.013" y1="307.075" x2="57.013" y2="306.899"/>
	<line class="st1" x1="55.918" y1="307.075" x2="55.918" y2="306.899"/>
	<path class="st1" d="M69.426,307.075c0,0.324,0.244,0.588,0.544,0.588c0.305,0,0.551-0.264,0.551-0.588l0,0"/>
	<line class="st1" x1="70.521" y1="307.075" x2="70.521" y2="306.899"/>
	<line class="st1" x1="69.426" y1="307.075" x2="69.426" y2="306.899"/>
	<line class="st1" x1="56.473" y1="306.899" x2="56.473" y2="295.512"/>
	<line class="st1" x1="49.065" y1="301.624" x2="56.011" y2="301.624"/>
	<line class="st1" x1="49.065" y1="303.157" x2="56.011" y2="303.157"/>
	<line class="st1" x1="49.112" y1="304.696" x2="56.011" y2="304.696"/>
	<line class="st1" x1="49.016" y1="300.085" x2="56.011" y2="300.085"/>
	<line class="st1" x1="69.963" y1="306.899" x2="69.963" y2="295.305"/>
	<line class="st1" x1="70.521" y1="301.624" x2="77.264" y2="301.624"/>
	<line class="st1" x1="70.521" y1="303.157" x2="77.216" y2="303.157"/>
	<line class="st1" x1="70.521" y1="304.696" x2="77.169" y2="304.696"/>
	<line class="st1" x1="70.444" y1="300.085" x2="77.412" y2="300.085"/>
	<path class="st1" d="M56.079,632.697c0.347,0,0.627-0.256,0.627-0.578"/>
	<line class="st1" x1="48.5" y1="632.697" x2="56.079" y2="632.697"/>
	<line class="st1" x1="56.706" y1="632.119" x2="56.706" y2="629.878"/>
	<line class="st1" x1="56.706" y1="629.878" x2="71.601" y2="629.878"/>
	<path class="st1" d="M71.601,632.119c0,0.322,0.276,0.578,0.622,0.578"/>
	<line class="st1" x1="71.601" y1="629.878" x2="71.601" y2="632.119"/>
	<line class="st1" x1="72.223" y1="632.697" x2="79.847" y2="632.697"/>
	<line class="st1" x1="63.985" y1="618.884" x2="63.985" y2="632.904"/>
	<line class="st1" x1="64.289" y1="618.884" x2="64.289" y2="632.904"/>
	<line class="st1" x1="48.854" y1="619.601" x2="63.985" y2="619.601"/>
	<line class="st1" x1="63.985" y1="632.904" x2="64.289" y2="632.904"/>
	<line class="st1" x1="63.985" y1="618.884" x2="64.289" y2="618.884"/>
	<line class="st1" x1="64.289" y1="619.601" x2="79.966" y2="619.601"/>
	<line class="st1" x1="64.289" y1="621.085" x2="70.956" y2="621.085"/>
	<line class="st1" x1="64.289" y1="622.572" x2="70.956" y2="622.572"/>
	<line class="st1" x1="64.289" y1="624.058" x2="70.956" y2="624.058"/>
	<line class="st1" x1="64.289" y1="625.544" x2="70.956" y2="625.544"/>
	<line class="st1" x1="64.289" y1="627.031" x2="70.956" y2="627.031"/>
	<line class="st1" x1="64.289" y1="628.517" x2="70.956" y2="628.517"/>
	<line class="st1" x1="64.289" y1="631.488" x2="71.56" y2="631.488"/>
	<line class="st1" x1="57.317" y1="621.085" x2="63.985" y2="621.085"/>
	<line class="st1" x1="57.317" y1="622.572" x2="63.985" y2="622.572"/>
	<line class="st1" x1="57.317" y1="624.058" x2="63.985" y2="624.058"/>
	<line class="st1" x1="57.317" y1="625.544" x2="63.985" y2="625.544"/>
	<line class="st1" x1="57.317" y1="627.031" x2="63.985" y2="627.031"/>
	<line class="st1" x1="57.317" y1="628.517" x2="63.985" y2="628.517"/>
	<line class="st1" x1="56.659" y1="631.488" x2="63.985" y2="631.488"/>
	<line class="st1" x1="80.021" y1="631.234" x2="72.169" y2="631.234"/>
	<line class="st1" x1="79.915" y1="629.767" x2="71.346" y2="629.767"/>
	<line class="st1" x1="80.074" y1="628.306" x2="72.169" y2="628.306"/>
	<line class="st1" x1="79.915" y1="626.841" x2="72.201" y2="626.841"/>
	<line class="st1" x1="56.725" y1="631.234" x2="48.64" y2="631.234"/>
	<line class="st1" x1="56.777" y1="629.767" x2="48.585" y2="629.767"/>
	<line class="st1" x1="56.106" y1="628.306" x2="48.532" y2="628.306"/>
	<line class="st1" x1="56.106" y1="626.841" x2="48.585" y2="626.841"/>
	<path class="st1" d="M72.273,618.716c0-0.309-0.272-0.56-0.607-0.56c-0.335,0-0.605,0.252-0.605,0.56l0,0"/>
	<line class="st1" x1="71.06" y1="618.716" x2="71.06" y2="618.884"/>
	<line class="st1" x1="72.273" y1="618.716" x2="72.273" y2="618.884"/>
	<path class="st1" d="M57.317,618.716c0-0.309-0.27-0.56-0.602-0.56c-0.337,0-0.609,0.252-0.609,0.56l0,0"/>
	<line class="st1" x1="56.106" y1="618.716" x2="56.106" y2="618.884"/>
	<line class="st1" x1="57.317" y1="618.716" x2="57.317" y2="618.884"/>
	<line class="st1" x1="71.658" y1="618.884" x2="71.658" y2="629.738"/>
	<line class="st1" x1="79.86" y1="623.912" x2="72.169" y2="623.912"/>
	<line class="st1" x1="79.86" y1="622.451" x2="72.169" y2="622.451"/>
	<line class="st1" x1="79.807" y1="620.984" x2="72.169" y2="620.984"/>
	<line class="st1" x1="79.915" y1="625.378" x2="72.169" y2="625.378"/>
	<line class="st1" x1="56.723" y1="618.884" x2="56.723" y2="629.935"/>
	<line class="st1" x1="56.106" y1="623.912" x2="48.64" y2="623.912"/>
	<line class="st1" x1="56.106" y1="622.451" x2="48.693" y2="622.451"/>
	<line class="st1" x1="56.106" y1="620.984" x2="48.746" y2="620.984"/>
	<line class="st1" x1="56.191" y1="625.378" x2="48.477" y2="625.378"/>
	<path class="st1" d="M70.351,918.72c-0.256,0-0.463,0.268-0.463,0.606"/>
	<line class="st1" x1="75.935" y1="918.72" x2="70.351" y2="918.72"/>
	<line class="st1" x1="69.888" y1="919.326" x2="69.888" y2="921.677"/>
	<line class="st1" x1="69.888" y1="921.677" x2="58.912" y2="921.677"/>
	<path class="st1" d="M58.912,919.326c0-0.338-0.204-0.606-0.458-0.606"/>
	<line class="st1" x1="58.912" y1="921.677" x2="58.912" y2="919.326"/>
	<line class="st1" x1="58.453" y1="918.72" x2="52.835" y2="918.72"/>
	<line class="st1" x1="64.524" y1="933.211" x2="64.524" y2="918.502"/>
	<line class="st1" x1="64.301" y1="933.211" x2="64.301" y2="918.502"/>
	<line class="st1" x1="75.675" y1="932.459" x2="64.524" y2="932.459"/>
	<line class="st1" x1="64.524" y1="918.502" x2="64.301" y2="918.502"/>
	<line class="st1" x1="64.524" y1="933.211" x2="64.301" y2="933.211"/>
	<line class="st1" x1="64.301" y1="932.459" x2="52.747" y2="932.459"/>
	<line class="st1" x1="64.301" y1="930.902" x2="59.387" y2="930.902"/>
	<line class="st1" x1="64.301" y1="929.342" x2="59.387" y2="929.342"/>
	<line class="st1" x1="64.301" y1="927.783" x2="59.387" y2="927.783"/>
	<line class="st1" x1="64.301" y1="926.224" x2="59.387" y2="926.224"/>
	<line class="st1" x1="64.301" y1="924.664" x2="59.387" y2="924.664"/>
	<line class="st1" x1="64.301" y1="923.105" x2="59.387" y2="923.105"/>
	<line class="st1" x1="64.301" y1="919.988" x2="58.942" y2="919.988"/>
	<line class="st1" x1="69.438" y1="930.902" x2="64.524" y2="930.902"/>
	<line class="st1" x1="69.438" y1="929.342" x2="64.524" y2="929.342"/>
	<line class="st1" x1="69.438" y1="927.783" x2="64.524" y2="927.783"/>
	<line class="st1" x1="69.438" y1="926.224" x2="64.524" y2="926.224"/>
	<line class="st1" x1="69.438" y1="924.664" x2="64.524" y2="924.664"/>
	<line class="st1" x1="69.438" y1="923.105" x2="64.524" y2="923.105"/>
	<line class="st1" x1="69.923" y1="919.988" x2="64.524" y2="919.988"/>
	<line class="st1" x1="52.708" y1="920.254" x2="58.493" y2="920.254"/>
	<line class="st1" x1="52.786" y1="921.793" x2="59.1" y2="921.793"/>
	<line class="st1" x1="52.668" y1="923.326" x2="58.493" y2="923.326"/>
	<line class="st1" x1="52.786" y1="924.863" x2="58.47" y2="924.863"/>
	<line class="st1" x1="69.875" y1="920.254" x2="75.832" y2="920.254"/>
	<line class="st1" x1="69.836" y1="921.793" x2="75.873" y2="921.793"/>
	<line class="st1" x1="70.331" y1="923.326" x2="75.912" y2="923.326"/>
	<line class="st1" x1="70.331" y1="924.863" x2="75.873" y2="924.863"/>
	<path class="st1" d="M58.417,933.387c0,0.324,0.201,0.589,0.448,0.589c0.247,0,0.446-0.265,0.446-0.589l0,0"/>
	<line class="st1" x1="59.311" y1="933.387" x2="59.311" y2="933.211"/>
	<line class="st1" x1="58.417" y1="933.387" x2="58.417" y2="933.211"/>
	<path class="st1" d="M69.438,933.387c0,0.324,0.199,0.589,0.443,0.589c0.249,0,0.449-0.265,0.449-0.589l0,0"/>
	<line class="st1" x1="70.331" y1="933.387" x2="70.331" y2="933.211"/>
	<line class="st1" x1="69.438" y1="933.387" x2="69.438" y2="933.211"/>
	<line class="st1" x1="58.87" y1="933.211" x2="58.87" y2="921.824"/>
	<line class="st1" x1="52.826" y1="927.937" x2="58.493" y2="927.937"/>
	<line class="st1" x1="52.826" y1="929.469" x2="58.493" y2="929.469"/>
	<line class="st1" x1="52.865" y1="931.008" x2="58.493" y2="931.008"/>
	<line class="st1" x1="52.786" y1="926.398" x2="58.493" y2="926.398"/>
	<line class="st1" x1="69.875" y1="933.211" x2="69.875" y2="921.617"/>
	<line class="st1" x1="70.331" y1="927.937" x2="75.832" y2="927.937"/>
	<line class="st1" x1="70.331" y1="929.469" x2="75.793" y2="929.469"/>
	<line class="st1" x1="70.331" y1="931.008" x2="75.755" y2="931.008"/>
	<line class="st1" x1="70.268" y1="926.398" x2="75.953" y2="926.398"/>
	<path class="st2" d="M55.955,332.129v-0.192c0-1.967,0.728-2.742,1.639-2.742c0.272,0,0.432,0.032,0.64,0.128v1.007
		c-0.2-0.12-0.36-0.184-0.544-0.184c-0.432,0-0.743,0.384-0.743,1.783v0.208c0,1.479,0.312,1.783,0.759,1.783
		c0.152,0,0.344-0.056,0.544-0.176v0.959c-0.224,0.128-0.44,0.168-0.72,0.168C56.635,334.872,55.955,334.08,55.955,332.129z
		 M59.522,329.219h1.04l1.063,5.613H60.65l-0.184-1.111h-0.888l-0.176,1.111h-0.944L59.522,329.219z M60.322,332.841l-0.296-1.847
		l-0.304,1.847H60.322z M61.803,334.64v-1.016c0.344,0.2,0.616,0.312,0.879,0.312c0.28,0,0.52-0.136,0.52-0.479v-0.016
		c0-0.256-0.08-0.448-0.543-0.976c-0.664-0.751-0.936-1.111-0.936-1.791v-0.016c0-0.896,0.583-1.463,1.359-1.463
		c0.392,0,0.624,0.056,0.863,0.176v1.016c-0.304-0.176-0.488-0.256-0.744-0.256c-0.271,0-0.503,0.176-0.503,0.479v0.016
		c0,0.264,0.08,0.36,0.543,0.896c0.768,0.887,0.936,1.231,0.936,1.871v0.016c0,0.879-0.616,1.463-1.384,1.463
		C62.411,334.872,62.083,334.775,61.803,334.64z M64.539,329.235h0.976v5.597h-0.976V329.235z M66.107,329.235h0.911l0.983,2.83
		v-2.83h0.952v5.597H68.09l-1.032-2.966v2.966h-0.951V329.235z M69.435,332.177v-0.288c0-1.847,0.6-2.734,1.487-2.734
		s1.487,0.887,1.487,2.734v0.288c0,1.847-0.6,2.734-1.487,2.734S69.435,334.024,69.435,332.177z M71.417,332.177v-0.288
		c0-1.439-0.199-1.839-0.495-1.839s-0.496,0.399-0.496,1.839v0.288c0,1.439,0.2,1.839,0.496,1.839S71.417,333.616,71.417,332.177z"
		/>
	<path class="st2" d="M8.518,293.267h1.007c1,0,1.727,0.527,1.727,1.783v0.072c0,0.728-0.288,1.191-0.656,1.472l0.751,2.271h-1.039
		l-0.632-1.951H9.494v1.951H8.518V293.267z M9.542,296.033c0.424,0,0.735-0.248,0.735-0.903v-0.064c0-0.704-0.336-0.888-0.759-0.888
		H9.494v1.855H9.542z M11.702,293.267h1.008c1,0,1.727,0.527,1.727,1.783v0.072c0,0.728-0.288,1.191-0.656,1.472l0.751,2.271h-1.04
		l-0.631-1.951h-0.184v1.951h-0.976V293.267z M12.725,296.033c0.424,0,0.736-0.248,0.736-0.903v-0.064
		c0-0.704-0.336-0.888-0.76-0.888h-0.024v1.855H12.725z"/>
	<path class="st2" d="M8.518,304.192h1.007c1,0,1.727,0.527,1.727,1.783v0.072c0,0.728-0.288,1.191-0.656,1.472l0.751,2.271h-1.039
		l-0.632-1.951H9.494v1.951H8.518V304.192z M9.542,306.958c0.424,0,0.735-0.248,0.735-0.903v-0.064c0-0.704-0.336-0.888-0.759-0.888
		H9.494v1.855H9.542z M11.702,304.192h1.008c1,0,1.727,0.527,1.727,1.783v0.072c0,0.728-0.288,1.191-0.656,1.472l0.751,2.271h-1.04
		l-0.631-1.951h-0.184v1.951h-0.976V304.192z M12.725,306.958c0.424,0,0.736-0.248,0.736-0.903v-0.064
		c0-0.704-0.336-0.888-0.76-0.888h-0.024v1.855H12.725z"/>
	<path class="st2" d="M112.995,183.455h1.008c0.999,0,1.728,0.528,1.728,1.783v0.072c0,0.728-0.288,1.191-0.656,1.471l0.752,2.271
		h-1.04l-0.631-1.951h-0.185v1.951h-0.976V183.455z M114.018,186.221c0.424,0,0.736-0.248,0.736-0.903v-0.064
		c0-0.704-0.336-0.888-0.76-0.888h-0.024v1.855H114.018z M116.179,183.455h1.007c1,0,1.728,0.528,1.728,1.783v0.072
		c0,0.728-0.288,1.191-0.656,1.471l0.752,2.271h-1.039l-0.632-1.951h-0.184v1.951h-0.976V183.455z M117.203,186.221
		c0.424,0,0.735-0.248,0.735-0.903v-0.064c0-0.704-0.336-0.888-0.76-0.888h-0.023v1.855H117.203z"/>
	<path class="st2" d="M112.995,205.503h1.008c0.999,0,1.728,0.528,1.728,1.783v0.072c0,0.728-0.288,1.191-0.656,1.471l0.752,2.271
		h-1.04l-0.631-1.951h-0.185v1.951h-0.976V205.503z M114.018,208.27c0.424,0,0.736-0.248,0.736-0.903v-0.064
		c0-0.704-0.336-0.888-0.76-0.888h-0.024v1.855H114.018z M116.179,205.503h1.007c1,0,1.728,0.528,1.728,1.783v0.072
		c0,0.728-0.288,1.191-0.656,1.471l0.752,2.271h-1.039l-0.632-1.951h-0.184v1.951h-0.976V205.503z M117.203,208.27
		c0.424,0,0.735-0.248,0.735-0.903v-0.064c0-0.704-0.336-0.888-0.76-0.888h-0.023v1.855H117.203z"/>
	<path class="st2" d="M61.44,456.358v-0.144c0-1.475,0.545-2.057,1.229-2.057c0.204,0,0.324,0.024,0.479,0.096v0.756
		c-0.15-0.09-0.27-0.138-0.408-0.138c-0.324,0-0.558,0.288-0.558,1.337v0.156c0,1.109,0.234,1.337,0.569,1.337
		c0.114,0,0.258-0.042,0.408-0.132v0.72c-0.168,0.096-0.33,0.125-0.54,0.125C61.95,458.415,61.44,457.822,61.44,456.358z
		 M63.306,456.395v-0.216c0-1.385,0.45-2.051,1.115-2.051c0.666,0,1.116,0.666,1.116,2.051v0.216c0,1.385-0.45,2.051-1.116,2.051
		C63.756,458.445,63.306,457.78,63.306,456.395z M64.793,456.395v-0.216c0-1.079-0.149-1.379-0.372-1.379
		c-0.222,0-0.371,0.3-0.371,1.379v0.216c0,1.079,0.149,1.379,0.371,1.379C64.644,457.773,64.793,457.474,64.793,456.395z
		 M65.898,454.187h0.756c0.75,0,1.295,0.396,1.295,1.337v0.054c0,0.546-0.216,0.894-0.491,1.104l0.563,1.703h-0.779l-0.474-1.463
		H66.63v1.463h-0.732V454.187z M66.666,456.262c0.318,0,0.552-0.186,0.552-0.677v-0.048c0-0.527-0.252-0.666-0.569-0.666H66.63
		v1.391H66.666z M68.214,456.395v-0.216c0-1.385,0.45-2.051,1.115-2.051c0.666,0,1.115,0.666,1.115,2.051v0.216
		c0,1.385-0.449,2.051-1.115,2.051C68.665,458.445,68.214,457.78,68.214,456.395z M69.702,456.395v-0.216
		c0-1.079-0.15-1.379-0.372-1.379s-0.372,0.3-0.372,1.379v0.216c0,1.079,0.15,1.379,0.372,1.379S69.702,457.474,69.702,456.395z
		 M70.806,454.187h0.684l0.737,2.123v-2.123h0.714v4.198h-0.647l-0.773-2.225v2.225h-0.714V454.187z M73.962,454.176h0.779
		l0.798,4.209h-0.732l-0.138-0.833h-0.665l-0.133,0.833h-0.707L73.962,454.176z M74.562,456.892l-0.223-1.385l-0.228,1.385H74.562z
		 M63.36,462.358v-0.144c0-1.475,0.546-2.057,1.229-2.057c0.204,0,0.324,0.024,0.48,0.096v0.756c-0.15-0.09-0.271-0.138-0.408-0.138
		c-0.324,0-0.558,0.288-0.558,1.337v0.156c0,1.109,0.233,1.337,0.569,1.337c0.114,0,0.258-0.042,0.408-0.132v0.72
		c-0.168,0.096-0.33,0.125-0.54,0.125C63.87,464.415,63.36,463.822,63.36,462.358z M65.46,460.187h0.731v4.198H65.46V460.187z
		 M66.564,462.358v-0.144c0-1.355,0.576-2.057,1.403-2.057c0.222,0,0.408,0.048,0.558,0.12v0.762c-0.18-0.108-0.342-0.18-0.533-0.18
		c-0.42,0-0.684,0.419-0.684,1.325v0.204c0,1.098,0.323,1.35,0.623,1.35c0.024,0,0.03,0,0.066-0.006v-1.073h-0.359v-0.654h1.025
		v2.231c-0.265,0.114-0.48,0.18-0.762,0.18C67.17,464.415,66.564,463.822,66.564,462.358z M69.654,460.176h0.779l0.798,4.209H70.5
		l-0.138-0.833h-0.666l-0.132,0.833h-0.708L69.654,460.176z M70.253,462.892l-0.222-1.385l-0.228,1.385H70.253z M71.455,460.187
		h0.755c0.75,0,1.296,0.396,1.296,1.337v0.054c0,0.546-0.216,0.894-0.492,1.104l0.563,1.703h-0.779l-0.474-1.463h-0.138v1.463
		h-0.731V460.187z M72.222,462.262c0.317,0,0.552-0.186,0.552-0.677v-0.048c0-0.527-0.252-0.666-0.57-0.666h-0.018v1.391H72.222z
		 M63.78,468.358v-0.144c0-1.475,0.545-2.057,1.229-2.057c0.204,0,0.324,0.024,0.48,0.096v0.756c-0.15-0.09-0.271-0.138-0.408-0.138
		c-0.323,0-0.558,0.288-0.558,1.337v0.156c0,1.109,0.234,1.337,0.569,1.337c0.114,0,0.258-0.042,0.408-0.132v0.72
		c-0.168,0.096-0.33,0.125-0.54,0.125C64.291,470.415,63.78,469.822,63.78,468.358z M65.869,466.187H66.6v3.502h0.773v0.696h-1.505
		V466.187z M67.596,469.162v-2.975h0.726v3.046c0,0.378,0.132,0.528,0.318,0.528c0.186,0,0.317-0.15,0.317-0.528v-3.046h0.726v2.975
		c0,0.881-0.443,1.277-1.043,1.277S67.596,470.043,67.596,469.162z M70.104,466.187h0.636c0.708,0,1.367,0.288,1.367,1.067v0.03
		c0,0.54-0.306,0.803-0.605,0.947c0.354,0.156,0.659,0.402,0.659,0.936v0.054c0,0.744-0.575,1.164-1.391,1.164h-0.666V466.187z
		 M70.848,467.951c0.323,0,0.539-0.186,0.539-0.552v-0.012c0-0.366-0.216-0.521-0.539-0.521h-0.013v1.085H70.848z M70.854,469.707
		c0.336,0,0.575-0.198,0.575-0.545v-0.03c0-0.348-0.239-0.545-0.575-0.545h-0.019v1.121H70.854z"/>
	<path class="st2" d="M48.499,527.193h0.968l0.688,2.047l0.688-2.047h0.968v5.597h-0.936v-3.382l-0.712,2.119h-0.016l-0.712-2.119
		v3.382h-0.936V527.193z M53.171,527.177h1.039l1.063,5.613h-0.975l-0.184-1.111h-0.888l-0.176,1.111h-0.943L53.171,527.177z
		 M53.97,530.799l-0.296-1.847l-0.304,1.847H53.97z M55.395,530.087v-0.192c0-1.807,0.768-2.742,1.871-2.742
		c0.296,0,0.544,0.064,0.744,0.16v1.016c-0.24-0.144-0.456-0.24-0.711-0.24c-0.56,0-0.912,0.56-0.912,1.767v0.272
		c0,1.463,0.432,1.799,0.832,1.799c0.032,0,0.04,0,0.088-0.008v-1.431h-0.479v-0.872h1.367v2.975c-0.352,0.152-0.64,0.24-1.016,0.24
		C56.203,532.83,55.395,532.038,55.395,530.087z M58.731,527.193h0.912l0.983,2.83v-2.83h0.952v5.597h-0.864l-1.031-2.966v2.966
		h-0.952V527.193z M62.139,531.159v-3.966h0.967v4.062c0,0.504,0.176,0.704,0.424,0.704c0.248,0,0.424-0.2,0.424-0.704v-4.062h0.967
		v3.966c0,1.175-0.592,1.703-1.391,1.703S62.139,532.334,62.139,531.159z M65.483,527.193h0.968l0.688,2.047l0.688-2.047h0.968
		v5.597h-0.936v-3.382l-0.712,2.119H67.13l-0.712-2.119v3.382h-0.936V527.193z M69.283,529.207c0.592-0.128,0.712-0.552,0.672-0.903
		h-0.496v-1.111h1.104v0.911c0,0.848-0.407,1.392-1.199,1.495L69.283,529.207z M71.051,532.598v-1.016
		c0.344,0.2,0.615,0.312,0.879,0.312c0.28,0,0.52-0.136,0.52-0.479v-0.016c0-0.256-0.079-0.448-0.543-0.976
		c-0.664-0.751-0.936-1.111-0.936-1.791v-0.016c0-0.896,0.583-1.463,1.359-1.463c0.392,0,0.623,0.056,0.863,0.176v1.016
		c-0.304-0.176-0.488-0.256-0.744-0.256c-0.271,0-0.503,0.176-0.503,0.479v0.016c0,0.264,0.08,0.36,0.543,0.896
		c0.768,0.887,0.936,1.231,0.936,1.871v0.016c0,0.879-0.615,1.463-1.383,1.463C71.659,532.83,71.331,532.733,71.051,532.598z
		 M46.867,538.087v-0.192c0-1.967,0.728-2.742,1.639-2.742c0.272,0,0.432,0.032,0.64,0.128v1.007c-0.2-0.12-0.36-0.184-0.544-0.184
		c-0.432,0-0.744,0.384-0.744,1.783v0.208c0,1.479,0.312,1.783,0.76,1.783c0.152,0,0.344-0.056,0.544-0.176v0.959
		c-0.224,0.128-0.44,0.168-0.72,0.168C47.547,540.83,46.867,540.038,46.867,538.087z M49.651,535.193h0.976v2.318h0.848v-2.318
		h0.976v5.597h-0.976v-2.351h-0.848v2.351h-0.976V535.193z M53.811,535.177h1.04l1.063,5.613h-0.976l-0.184-1.111h-0.887
		l-0.176,1.111h-0.944L53.811,535.177z M54.61,538.799l-0.296-1.847l-0.304,1.847H54.61z M56.211,535.193h0.968l0.688,2.047
		l0.688-2.047h0.967v5.597h-0.935v-3.382l-0.712,2.119h-0.016l-0.711-2.119v3.382h-0.936V535.193z M60.099,535.193h0.872
		c1.063,0,1.807,0.575,1.807,1.887v0.016c0,1.263-0.704,1.863-1.695,1.935h-0.008v1.759h-0.975V535.193z M61.083,538.127
		c0.408-0.024,0.72-0.32,0.72-1v-0.016c0-0.712-0.272-1.016-0.696-1.016h-0.032v2.031H61.083z M63.683,535.177h1.04l1.063,5.613
		H64.81l-0.184-1.111h-0.888l-0.176,1.111h-0.943L63.683,535.177z M64.482,538.799l-0.296-1.847l-0.304,1.847H64.482z
		 M65.907,538.087v-0.192c0-1.807,0.768-2.742,1.871-2.742c0.296,0,0.544,0.064,0.744,0.16v1.016c-0.24-0.144-0.456-0.24-0.712-0.24
		c-0.56,0-0.911,0.56-0.911,1.767v0.272c0,1.463,0.432,1.799,0.831,1.799c0.032,0,0.04,0,0.088-0.008v-1.431h-0.479v-0.872h1.367
		v2.975c-0.352,0.152-0.64,0.24-1.016,0.24C66.714,540.83,65.907,540.038,65.907,538.087z M69.243,535.193h0.912l0.983,2.83v-2.83
		h0.951v5.597h-0.863l-1.031-2.966v2.966h-0.952V535.193z M72.667,535.193h2.144v0.927h-1.168v1.391h1.032v0.928h-1.032v1.423h1.191
		v0.928h-2.167V535.193z M47.011,547.358v-0.048c0-0.68,0.32-1.184,0.855-1.647c-0.312-0.503-0.472-0.879-0.472-1.271v-0.056
		c0-0.671,0.464-1.223,1.159-1.223c0.68,0,1.127,0.496,1.127,1.215v0.056c0,0.64-0.304,1.087-0.792,1.503l0.504,0.959
		c0.04-0.176,0.072-0.416,0.12-0.751l0.752,0.136c-0.072,0.632-0.2,1.08-0.36,1.439l0.464,0.792l-0.704,0.431l-0.272-0.495
		c-0.264,0.296-0.552,0.472-1.04,0.472C47.635,548.87,47.011,548.27,47.011,547.358z M48.978,547.758l-0.704-1.392
		c-0.208,0.256-0.328,0.592-0.328,0.872v0.064c0,0.432,0.208,0.72,0.528,0.72C48.682,548.022,48.842,547.926,48.978,547.758z
		 M48.506,545.231c0.248-0.24,0.344-0.528,0.344-0.824v-0.063c0-0.272-0.128-0.448-0.312-0.448c-0.192,0-0.312,0.176-0.312,0.416
		v0.08C48.227,544.616,48.314,544.864,48.506,545.231z M51.675,543.193h1l0.408,3.43l0.488-3.43h0.903l0.48,3.43l0.416-3.43h0.976
		l-0.848,5.612h-1.023l-0.464-3.318l-0.463,3.318h-1.023L51.675,543.193z M56.691,543.193h0.976v5.597h-0.976V543.193z
		 M58.259,543.193h0.912l0.983,2.83v-2.83h0.952v5.597h-0.864l-1.031-2.966v2.966h-0.952V543.193z M61.683,543.193h2.143v0.927
		h-1.167v1.391h1.032v0.928h-1.032v1.423h1.191v0.928h-2.167V543.193z M65.595,543.193h0.847c0.944,0,1.823,0.384,1.823,1.423v0.04
		c0,0.72-0.407,1.071-0.808,1.263c0.472,0.208,0.88,0.536,0.88,1.248v0.072c0,0.992-0.768,1.551-1.855,1.551h-0.887V543.193z
		 M66.586,545.543c0.432,0,0.72-0.248,0.72-0.736v-0.016c0-0.487-0.288-0.695-0.72-0.695H66.57v1.447H66.586z M66.594,547.886
		c0.448,0,0.768-0.264,0.768-0.728v-0.04c0-0.464-0.319-0.728-0.768-0.728H66.57v1.495H66.594z M69.491,543.177h1.039l1.063,5.613
		h-0.976l-0.184-1.111h-0.888l-0.176,1.111h-0.943L69.491,543.177z M70.29,546.799l-0.295-1.847l-0.305,1.847H70.29z
		 M71.891,543.193h1.007c1,0,1.728,0.527,1.728,1.783v0.072c0,0.728-0.288,1.191-0.656,1.472l0.752,2.271h-1.039l-0.632-1.951
		h-0.184v1.951h-0.976V543.193z M72.915,545.959c0.424,0,0.735-0.248,0.735-0.903v-0.064c0-0.704-0.336-0.888-0.76-0.888h-0.023
		v1.855H72.915z"/>
	<path class="st2" d="M97.637,598.894v-0.968l2.047-0.688l-2.047-0.688v-0.968h5.597v0.936h-3.382l2.118,0.712v0.016l-2.118,0.712
		h3.382v0.936H97.637z M97.621,594.222v-1.039l5.613-1.063v0.976l-1.111,0.184v0.888l1.111,0.176v0.943L97.621,594.222z
		 M101.243,593.423l-1.847,0.296l1.847,0.304V593.423z M97.637,591.822v-0.975h4.669v-1.032h0.928v2.007H97.637z M98.564,589.182
		v0.688h-0.927v-2.351h0.927v0.688h4.67v0.976H98.564z M97.637,587.094v-0.976h5.597v0.976H97.637z M97.637,585.526v-0.911
		l2.83-0.983h-2.83v-0.951h5.597v0.863l-2.967,1.031h2.967v0.951H97.637z M100.532,582.199h-0.192c-1.807,0-2.742-0.768-2.742-1.871
		c0-0.296,0.063-0.544,0.16-0.744h1.015c-0.144,0.24-0.239,0.456-0.239,0.712c0,0.56,0.56,0.911,1.767,0.911h0.272
		c1.463,0,1.799-0.432,1.799-0.831c0-0.032,0-0.04-0.008-0.088h-1.432v0.479h-0.871V579.4h2.974c0.152,0.352,0.24,0.64,0.24,1.016
		C103.274,581.391,102.482,582.199,100.532,582.199z M103.042,578.982h-1.016c0.199-0.344,0.312-0.615,0.312-0.879
		c0-0.28-0.136-0.52-0.479-0.52h-0.017c-0.256,0-0.447,0.079-0.976,0.543c-0.751,0.664-1.111,0.936-1.791,0.936H99.06
		c-0.896,0-1.463-0.583-1.463-1.359c0-0.392,0.056-0.623,0.176-0.863h1.016c-0.176,0.304-0.256,0.488-0.256,0.744
		c0,0.271,0.176,0.503,0.479,0.503h0.016c0.265,0,0.36-0.08,0.896-0.543c0.888-0.768,1.231-0.936,1.871-0.936h0.017
		c0.879,0,1.463,0.615,1.463,1.383C103.274,578.374,103.178,578.703,103.042,578.982z M97.637,574.991v-0.848
		c0-0.943,0.384-1.823,1.423-1.823h0.04c0.72,0,1.071,0.408,1.264,0.808c0.208-0.472,0.535-0.88,1.247-0.88h0.072
		c0.991,0,1.551,0.768,1.551,1.855v0.888H97.637z M99.988,573.998c0-0.432-0.248-0.719-0.735-0.719h-0.017
		c-0.487,0-0.695,0.287-0.695,0.719v0.017h1.447V573.998z M102.331,573.991c0-0.447-0.264-0.768-0.728-0.768h-0.04
		c-0.464,0-0.728,0.32-0.728,0.768v0.024h1.495V573.991z M97.637,571.838v-2.143h0.927v1.167h1.392v-1.031h0.928v1.031h1.423v-1.191
		h0.928v2.167H97.637z M97.637,569.199v-2.143h0.927v1.167h1.392v-1.031h0.928v1.031h1.423v-1.191h0.928v2.167H97.637z
		 M97.637,566.559v-1.008c0-1,0.527-1.728,1.783-1.728h0.071c0.728,0,1.191,0.288,1.472,0.656l2.271-0.752v1.04l-1.951,0.631v0.185
		h1.951v0.976H97.637z M100.404,565.536c0-0.424-0.248-0.736-0.904-0.736h-0.063c-0.704,0-0.888,0.336-0.888,0.76v0.024h1.855
		V565.536z M101.802,562.287h-0.048c-0.68,0-1.183-0.32-1.646-0.855c-0.504,0.312-0.88,0.472-1.271,0.472h-0.056
		c-0.672,0-1.224-0.464-1.224-1.159c0-0.68,0.495-1.128,1.215-1.128h0.057c0.64,0,1.087,0.304,1.503,0.792l0.959-0.504
		c-0.176-0.04-0.415-0.072-0.751-0.12l0.136-0.751c0.632,0.071,1.079,0.199,1.439,0.359l0.791-0.464l0.432,0.704l-0.495,0.271
		c0.296,0.264,0.472,0.552,0.472,1.039C103.314,561.663,102.714,562.287,101.802,562.287z M99.676,560.791
		c-0.24-0.248-0.528-0.344-0.824-0.344h-0.063c-0.272,0-0.448,0.128-0.448,0.312c0,0.192,0.176,0.312,0.416,0.312h0.08
		C99.06,561.071,99.308,560.983,99.676,560.791z M102.203,560.32l-1.392,0.703c0.256,0.208,0.592,0.328,0.872,0.328h0.063
		c0.432,0,0.72-0.208,0.72-0.527C102.466,560.616,102.371,560.456,102.203,560.32z M105.637,594.374v-1l3.43-0.407l-3.43-0.488
		v-0.903l3.43-0.479l-3.43-0.416v-0.976l5.612,0.848v1.023l-3.317,0.464l3.317,0.464v1.023L105.637,594.374z M105.637,589.374
		v-0.976h2.318v-0.848h-2.318v-0.976h5.597v0.976h-2.351v0.848h2.351v0.976H105.637z M105.637,585.982v-0.975h5.597v0.975H105.637z
		 M111.042,584.535h-1.016c0.199-0.344,0.312-0.616,0.312-0.88c0-0.28-0.136-0.52-0.479-0.52h-0.017
		c-0.256,0-0.447,0.08-0.976,0.544c-0.751,0.663-1.111,0.935-1.791,0.935h-0.016c-0.896,0-1.463-0.583-1.463-1.358
		c0-0.393,0.056-0.624,0.176-0.864h1.016c-0.176,0.304-0.256,0.488-0.256,0.744c0,0.271,0.176,0.504,0.479,0.504h0.016
		c0.265,0,0.36-0.08,0.896-0.544c0.888-0.768,1.231-0.936,1.871-0.936h0.017c0.879,0,1.463,0.615,1.463,1.383
		C111.274,583.926,111.178,584.254,111.042,584.535z M105.637,581.814v-0.975h2.343l-2.343-0.792v-1.104l2.366,0.943l3.23-0.959
		v1.087l-2.119,0.607l0.616,0.217h1.503v0.975H105.637z M105.637,578.59v-2.143h0.927v1.167h1.392v-1.031h0.928v1.031h1.423v-1.191
		h0.928v2.167H105.637z M109.027,575.199l-3.39,1.04v-1.008l2.095-0.527l-2.095-0.536v-0.983l3.39,1.039h2.207v0.976H109.027z
		 M105.637,571.622v-0.848c0-0.943,0.384-1.823,1.423-1.823h0.04c0.72,0,1.071,0.408,1.264,0.808
		c0.208-0.472,0.535-0.879,1.247-0.879h0.072c0.991,0,1.551,0.768,1.551,1.854v0.888H105.637z M107.988,570.631
		c0-0.432-0.248-0.72-0.735-0.72h-0.017c-0.487,0-0.695,0.288-0.695,0.72v0.016h1.447V570.631z M110.331,570.623
		c0-0.448-0.264-0.768-0.728-0.768h-0.04c-0.464,0-0.728,0.319-0.728,0.768v0.023h1.495V570.623z M105.621,567.727v-1.039
		l5.613-1.063v0.975l-1.111,0.185v0.888l1.111,0.176v0.943L105.621,567.727z M109.243,566.927l-1.847,0.296l1.847,0.304V566.927z
		 M105.637,565.327v-1.008c0-0.999,0.527-1.727,1.783-1.727h0.071c0.728,0,1.191,0.288,1.472,0.655l2.271-0.751v1.039l-1.951,0.632
		v0.184h1.951v0.976H105.637z M108.404,564.303c0-0.424-0.248-0.735-0.904-0.735h-0.063c-0.704,0-0.888,0.336-0.888,0.759v0.024
		h1.855V564.303z"/>
	<path class="st2" d="M74.92,509.895v-0.761c0.258,0.15,0.462,0.233,0.659,0.233c0.21,0,0.39-0.102,0.39-0.359v-0.012
		c0-0.192-0.06-0.336-0.407-0.731c-0.498-0.564-0.702-0.833-0.702-1.343v-0.012c0-0.671,0.438-1.097,1.02-1.097
		c0.294,0,0.468,0.042,0.647,0.132v0.762c-0.228-0.132-0.365-0.192-0.558-0.192c-0.203,0-0.377,0.132-0.377,0.36v0.012
		c0,0.198,0.06,0.27,0.407,0.672c0.576,0.666,0.702,0.923,0.702,1.403v0.012c0,0.66-0.462,1.097-1.038,1.097
		C75.376,510.069,75.13,509.998,74.92,509.895z M76.96,505.842h0.731v1.739h0.636v-1.739h0.731v4.198h-0.731v-1.763h-0.636v1.763
		H76.96V505.842z M80.08,505.83h0.779l0.798,4.209h-0.731l-0.138-0.833h-0.666l-0.132,0.833h-0.707L80.08,505.83z M80.679,508.546
		l-0.222-1.385l-0.228,1.385H80.679z M81.88,505.842h0.731v1.757l0.594-1.757h0.827l-0.707,1.775l0.719,2.423h-0.815l-0.455-1.589
		l-0.162,0.462v1.127H81.88V505.842z M84.298,505.842h1.606v0.696H85.03v1.043h0.773v0.695H85.03v1.067h0.894v0.696h-1.625V505.842z
		 M86.278,505.842h0.756c0.749,0,1.295,0.396,1.295,1.337v0.054c0,0.546-0.216,0.894-0.491,1.104l0.563,1.703h-0.779l-0.474-1.463
		h-0.139v1.463h-0.731V505.842z M87.045,507.916c0.318,0,0.552-0.186,0.552-0.677v-0.048c0-0.527-0.252-0.666-0.569-0.666h-0.019
		v1.391H87.045z M88.576,509.895v-0.761c0.258,0.15,0.462,0.233,0.66,0.233c0.21,0,0.39-0.102,0.39-0.359v-0.012
		c0-0.192-0.06-0.336-0.408-0.731c-0.497-0.564-0.701-0.833-0.701-1.343v-0.012c0-0.671,0.438-1.097,1.02-1.097
		c0.294,0,0.468,0.042,0.647,0.132v0.762c-0.228-0.132-0.366-0.192-0.558-0.192c-0.204,0-0.378,0.132-0.378,0.36v0.012
		c0,0.198,0.061,0.27,0.408,0.672c0.575,0.666,0.701,0.923,0.701,1.403v0.012c0,0.66-0.462,1.097-1.037,1.097
		C89.032,510.069,88.786,509.998,88.576,509.895z M61.345,511.842h0.726l0.516,1.535l0.516-1.535h0.726v4.198h-0.702v-2.537
		l-0.534,1.589h-0.012l-0.534-1.589v2.537h-0.702V511.842z M64.849,511.83h0.779l0.798,4.209h-0.731l-0.139-0.833h-0.665
		l-0.132,0.833h-0.708L64.849,511.83z M65.449,514.546l-0.222-1.385l-0.229,1.385H65.449z M66.649,511.842h0.756
		c0.75,0,1.295,0.396,1.295,1.337v0.054c0,0.546-0.216,0.894-0.491,1.104l0.563,1.703h-0.779l-0.474-1.463H67.38v1.463h-0.731
		V511.842z M67.417,513.916c0.318,0,0.552-0.186,0.552-0.677v-0.048c0-0.527-0.252-0.666-0.569-0.666H67.38v1.391H67.417z
		 M69.367,512.538h-0.516v-0.696h1.764v0.696h-0.517v3.502h-0.731V512.538z M70.933,511.842h0.731v4.198h-0.731V511.842z
		 M72.109,511.842h0.684l0.738,2.123v-2.123h0.713v4.198h-0.647l-0.773-2.225v2.225h-0.714V511.842z M74.689,511.842h0.731v4.198
		h-0.731V511.842z M76.681,514.966v-0.036c0-0.51,0.24-0.888,0.642-1.235c-0.233-0.378-0.354-0.66-0.354-0.954v-0.042
		c0-0.503,0.348-0.917,0.869-0.917c0.51,0,0.846,0.372,0.846,0.912v0.042c0,0.48-0.228,0.815-0.594,1.127l0.378,0.72
		c0.03-0.132,0.054-0.312,0.09-0.564l0.563,0.102c-0.054,0.474-0.149,0.81-0.27,1.08l0.348,0.593l-0.527,0.324l-0.204-0.372
		c-0.198,0.222-0.414,0.354-0.779,0.354C77.149,516.1,76.681,515.65,76.681,514.966z M78.157,515.266l-0.528-1.043
		c-0.155,0.192-0.246,0.444-0.246,0.653v0.048c0,0.324,0.156,0.54,0.396,0.54C77.934,515.464,78.054,515.392,78.157,515.266z
		 M77.802,513.371c0.187-0.18,0.258-0.396,0.258-0.618v-0.048c0-0.204-0.096-0.336-0.233-0.336c-0.145,0-0.234,0.132-0.234,0.312
		v0.06C77.592,512.909,77.659,513.095,77.802,513.371z M80.305,514.013v-0.144c0-1.475,0.546-2.057,1.229-2.057
		c0.203,0,0.323,0.024,0.479,0.096v0.756c-0.15-0.09-0.27-0.138-0.408-0.138c-0.323,0-0.558,0.288-0.558,1.337v0.156
		c0,1.109,0.234,1.337,0.57,1.337c0.113,0,0.258-0.042,0.407-0.132v0.72c-0.168,0.096-0.33,0.125-0.539,0.125
		C80.815,516.069,80.305,515.476,80.305,514.013z M82.171,514.049v-0.216c0-1.385,0.449-2.051,1.115-2.051
		c0.665,0,1.115,0.666,1.115,2.051v0.216c0,1.385-0.45,2.051-1.115,2.051C82.621,516.1,82.171,515.434,82.171,514.049z
		 M83.659,514.049v-0.216c0-1.079-0.15-1.379-0.372-1.379s-0.372,0.3-0.372,1.379v0.216c0,1.079,0.15,1.379,0.372,1.379
		S83.659,515.128,83.659,514.049z M84.691,514.013v-0.144c0-1.475,0.546-2.057,1.229-2.057c0.204,0,0.324,0.024,0.479,0.096v0.756
		c-0.149-0.09-0.27-0.138-0.407-0.138c-0.324,0-0.558,0.288-0.558,1.337v0.156c0,1.109,0.233,1.337,0.569,1.337
		c0.114,0,0.258-0.042,0.407-0.132v0.72c-0.167,0.096-0.329,0.125-0.539,0.125C85.201,516.069,84.691,515.476,84.691,514.013z
		 M86.779,511.842h0.731v1.757l0.594-1.757h0.828l-0.708,1.775l0.72,2.423h-0.815l-0.456-1.589l-0.162,0.462v1.127h-0.731V511.842z
		 M89.467,512.538h-0.517v-0.696h1.764v0.696h-0.516v3.502h-0.731V512.538z M91.428,511.83h0.78l0.797,4.209h-0.731l-0.138-0.833
		H91.47l-0.132,0.833h-0.707L91.428,511.83z M92.029,514.546l-0.223-1.385l-0.228,1.385H92.029z M93.241,511.842h0.731v4.198h-0.731
		V511.842z M94.417,511.842h0.732v3.502h0.773v0.696h-1.506V511.842z M97.17,511.842h0.636c0.708,0,1.367,0.288,1.367,1.067v0.03
		c0,0.54-0.306,0.803-0.605,0.947c0.354,0.156,0.66,0.402,0.66,0.936v0.054c0,0.744-0.576,1.164-1.392,1.164H97.17V511.842z
		 M97.915,513.605c0.323,0,0.54-0.186,0.54-0.552v-0.012c0-0.366-0.217-0.521-0.54-0.521h-0.012v1.085H97.915z M97.92,515.362
		c0.336,0,0.576-0.198,0.576-0.545v-0.03c0-0.348-0.24-0.545-0.576-0.545h-0.018v1.121H97.92z M100.092,511.83h0.78l0.797,4.209
		h-0.731l-0.138-0.833h-0.666l-0.132,0.833h-0.707L100.092,511.83z M100.692,514.546l-0.222-1.385l-0.228,1.385H100.692z
		 M101.893,511.842h0.756c0.749,0,1.295,0.396,1.295,1.337v0.054c0,0.546-0.216,0.894-0.492,1.104l0.564,1.703h-0.78l-0.474-1.463
		h-0.138v1.463h-0.731V511.842z M102.661,513.916c0.317,0,0.552-0.186,0.552-0.677v-0.048c0-0.527-0.252-0.666-0.57-0.666h-0.018
		v1.391H102.661z"/>
	<path class="st2" d="M57.651,679.271h0.967l0.688,2.047l0.688-2.047h0.967v5.597h-0.936v-3.382l-0.711,2.118h-0.016l-0.711-2.118
		v3.382h-0.936V679.271z M62.322,679.254h1.04l1.063,5.613H63.45l-0.184-1.111h-0.887l-0.176,1.111h-0.944L62.322,679.254z
		 M63.122,682.876l-0.296-1.847l-0.304,1.847H63.122z M64.546,682.165v-0.192c0-1.807,0.768-2.742,1.871-2.742
		c0.296,0,0.544,0.063,0.744,0.16v1.015c-0.24-0.144-0.456-0.239-0.712-0.239c-0.56,0-0.911,0.56-0.911,1.767v0.272
		c0,1.463,0.432,1.799,0.831,1.799c0.032,0,0.04,0,0.088-0.008v-1.432h-0.479v-0.871h1.367v2.974c-0.352,0.152-0.64,0.24-1.016,0.24
		C65.354,684.908,64.546,684.116,64.546,682.165z M67.882,679.271h2.144v0.928h-1.168v1.391h1.032v0.928h-1.032v1.423h1.191v0.928
		h-2.167V679.271z M70.523,679.271h0.911l0.983,2.83v-2.83h0.951v5.597h-0.863l-1.031-2.967v2.967h-0.951V679.271z M74.466,680.199
		h-0.688v-0.928h2.351v0.928h-0.688v4.669h-0.976V680.199z M77.083,679.254h1.039l1.063,5.613h-0.976l-0.184-1.111h-0.888
		l-0.176,1.111h-0.943L77.083,679.254z M77.881,682.876l-0.296-1.847l-0.304,1.847H77.881z M46.055,687.271h0.968l0.688,2.047
		l0.688-2.047h0.968v5.597H48.43v-3.382l-0.712,2.118h-0.016l-0.712-2.118v3.382h-0.936V687.271z M50.727,687.254h1.039l1.063,5.613
		h-0.975l-0.184-1.111h-0.888l-0.176,1.111h-0.943L50.727,687.254z M51.526,690.876l-0.296-1.847l-0.304,1.847H51.526z
		 M53.143,687.271h0.976v5.597h-0.976V687.271z M54.711,687.271h0.911l0.984,2.83v-2.83h0.951v5.597h-0.863l-1.032-2.967v2.967
		h-0.951V687.271z M59.407,687.271h0.912c1.247,0,1.959,0.903,1.959,2.702v0.192c0,1.799-0.712,2.702-1.959,2.702h-0.912V687.271z
		 M60.422,691.972c0.463,0,0.863-0.408,0.863-1.807v-0.192c0-1.399-0.4-1.807-0.863-1.807h-0.04v3.806H60.422z M62.774,687.271
		h0.976v5.597h-0.976V687.271z M64.342,687.271h0.912l0.983,2.83v-2.83h0.951v5.597h-0.863l-1.031-2.967v2.967h-0.952V687.271z
		 M67.783,687.271h0.976v5.597h-0.976V687.271z M69.35,687.271h0.912l0.983,2.83v-2.83h0.951v5.597h-0.863l-1.031-2.967v2.967H69.35
		V687.271z M72.678,690.165v-0.192c0-1.807,0.768-2.742,1.871-2.742c0.296,0,0.544,0.063,0.744,0.16v1.015
		c-0.24-0.144-0.456-0.239-0.712-0.239c-0.56,0-0.911,0.56-0.911,1.767v0.272c0,1.463,0.432,1.799,0.831,1.799
		c0.032,0,0.04,0,0.088-0.008v-1.432H74.11v-0.871h1.367v2.974c-0.352,0.152-0.64,0.24-1.016,0.24
		C73.486,692.908,72.678,692.116,72.678,690.165z M77.287,687.271h1.007c1,0,1.728,0.527,1.728,1.783v0.071
		c0,0.728-0.288,1.191-0.655,1.472l0.751,2.271h-1.039l-0.632-1.951h-0.184v1.951h-0.976V687.271z M78.31,690.038
		c0.424,0,0.735-0.248,0.735-0.904v-0.063c0-0.704-0.336-0.888-0.76-0.888h-0.023v1.855H78.31z M80.375,690.213v-0.288
		c0-1.847,0.6-2.734,1.487-2.734s1.487,0.888,1.487,2.734v0.288c0,1.847-0.6,2.734-1.487,2.734S80.375,692.06,80.375,690.213z
		 M82.357,690.213v-0.288c0-1.439-0.199-1.839-0.495-1.839s-0.496,0.399-0.496,1.839v0.288c0,1.438,0.2,1.839,0.496,1.839
		S82.357,691.652,82.357,690.213z M83.735,690.213v-0.288c0-1.847,0.6-2.734,1.486-2.734c0.888,0,1.487,0.888,1.487,2.734v0.288
		c0,1.847-0.6,2.734-1.487,2.734C84.334,692.948,83.735,692.06,83.735,690.213z M85.717,690.213v-0.288
		c0-1.439-0.2-1.839-0.496-1.839c-0.295,0-0.495,0.399-0.495,1.839v0.288c0,1.438,0.2,1.839,0.495,1.839
		C85.517,692.052,85.717,691.652,85.717,690.213z M87.19,687.271h0.968l0.688,2.047l0.688-2.047h0.968v5.597h-0.936v-3.382
		l-0.712,2.118h-0.016l-0.712-2.118v3.382H87.19V687.271z"/>
	<path class="st2" d="M47.745,996.232v-0.192c0-1.807,0.768-2.742,1.871-2.742c0.296,0,0.543,0.063,0.744,0.16v1.015
		c-0.24-0.144-0.456-0.239-0.712-0.239c-0.56,0-0.911,0.56-0.911,1.767v0.272c0,1.463,0.432,1.799,0.832,1.799
		c0.032,0,0.04,0,0.088-0.008v-1.432h-0.48v-0.871h1.367v2.974c-0.352,0.152-0.64,0.24-1.015,0.24
		C48.553,998.974,47.745,998.182,47.745,996.232z M51.081,993.337h1.007c1,0,1.728,0.527,1.728,1.783v0.071
		c0,0.728-0.288,1.191-0.656,1.472l0.751,2.271h-1.04l-0.631-1.951h-0.184v1.951h-0.976V993.337z M52.105,996.104
		c0.424,0,0.736-0.248,0.736-0.904v-0.063c0-0.704-0.336-0.888-0.76-0.888h-0.024v1.855H52.105z M55.049,993.321h1.04l1.063,5.613
		h-0.975l-0.184-1.111h-0.888l-0.176,1.111h-0.943L55.049,993.321z M55.848,996.943l-0.296-1.847l-0.304,1.847H55.848z
		 M57.449,993.337h0.912l0.983,2.83v-2.83h0.951v5.597h-0.863l-1.032-2.967v2.967h-0.951V993.337z M60.873,993.337h0.912
		c1.247,0,1.959,0.903,1.959,2.702v0.192c0,1.799-0.712,2.702-1.959,2.702h-0.912V993.337z M61.889,998.039
		c0.463,0,0.863-0.408,0.863-1.807v-0.192c0-1.399-0.4-1.807-0.863-1.807h-0.04v3.806H61.889z M65.497,993.337h0.872
		c1.063,0,1.807,0.575,1.807,1.887v0.016c0,1.264-0.703,1.863-1.695,1.936h-0.008v1.759h-0.976V993.337z M66.48,996.272
		c0.408-0.024,0.72-0.32,0.72-1v-0.016c0-0.712-0.271-1.016-0.695-1.016h-0.032v2.031H66.48z M69.081,993.321h1.039l1.063,5.613
		h-0.976l-0.184-1.111h-0.888l-0.176,1.111h-0.943L69.081,993.321z M69.88,996.943l-0.296-1.847l-0.304,1.847H69.88z
		 M71.305,996.232v-0.192c0-1.967,0.728-2.742,1.639-2.742c0.272,0,0.432,0.032,0.64,0.128v1.007
		c-0.199-0.119-0.359-0.184-0.543-0.184c-0.433,0-0.744,0.384-0.744,1.783v0.208c0,1.479,0.312,1.783,0.76,1.783
		c0.152,0,0.344-0.057,0.544-0.176v0.959c-0.225,0.128-0.44,0.168-0.72,0.168C71.985,998.974,71.305,998.182,71.305,996.232z
		 M74.105,993.337h0.976v5.597h-0.976V993.337z M75.673,993.337h2.038v0.928h-1.063v1.406h0.928v0.928h-0.928v2.335h-0.975V993.337z
		 M78.169,993.337h0.975v5.597h-0.975V993.337z M79.641,996.232v-0.192c0-1.967,0.728-2.742,1.639-2.742
		c0.272,0,0.432,0.032,0.64,0.128v1.007c-0.199-0.119-0.359-0.184-0.543-0.184c-0.433,0-0.744,0.384-0.744,1.783v0.208
		c0,1.479,0.312,1.783,0.76,1.783c0.152,0,0.344-0.057,0.544-0.176v0.959c-0.225,0.128-0.44,0.168-0.72,0.168
		C80.321,998.974,79.641,998.182,79.641,996.232z M42.621,1001.337h0.968l0.688,2.047l0.688-2.047h0.968v5.597h-0.936v-3.382
		l-0.712,2.118h-0.016l-0.712-2.118v3.382h-0.936V1001.337z M47.293,1001.321h1.039l1.063,5.613H48.42l-0.184-1.111h-0.888
		l-0.176,1.111H46.23L47.293,1001.321z M48.092,1004.943l-0.296-1.847l-0.304,1.847H48.092z M49.709,1001.337h0.976v5.597h-0.976
		V1001.337z M51.277,1001.337h0.911l0.984,2.83v-2.83h0.951v5.597H53.26l-1.032-2.967v2.967h-0.951V1001.337z M55.973,1001.337
		h0.912c1.247,0,1.959,0.903,1.959,2.702v0.192c0,1.799-0.712,2.702-1.959,2.702h-0.912V1001.337z M56.989,1006.039
		c0.463,0,0.863-0.408,0.863-1.807v-0.192c0-1.399-0.4-1.807-0.863-1.807h-0.04v3.806H56.989z M59.341,1001.337h0.976v5.597h-0.976
		V1001.337z M60.909,1001.337h0.911l0.984,2.83v-2.83h0.951v5.597h-0.863l-1.032-2.967v2.967h-0.951V1001.337z M64.349,1001.337
		h0.976v5.597h-0.976V1001.337z M65.917,1001.337h0.912l0.983,2.83v-2.83h0.951v5.597H67.9l-1.031-2.967v2.967h-0.952V1001.337z
		 M69.245,1004.232v-0.192c0-1.807,0.768-2.742,1.871-2.742c0.296,0,0.544,0.063,0.744,0.16v1.015
		c-0.24-0.144-0.456-0.239-0.712-0.239c-0.56,0-0.911,0.56-0.911,1.767v0.272c0,1.463,0.432,1.799,0.831,1.799
		c0.032,0,0.04,0,0.088-0.008v-1.432h-0.479v-0.871h1.367v2.974c-0.352,0.152-0.64,0.24-1.016,0.24
		C70.052,1006.974,69.245,1006.182,69.245,1004.232z M73.853,1001.337h1.007c1,0,1.728,0.527,1.728,1.783v0.071
		c0,0.728-0.288,1.191-0.655,1.472l0.751,2.271h-1.039l-0.632-1.951h-0.184v1.951h-0.976V1001.337z M74.876,1004.104
		c0.424,0,0.735-0.248,0.735-0.904v-0.063c0-0.704-0.336-0.888-0.76-0.888h-0.023v1.855H74.876z M76.941,1004.28v-0.288
		c0-1.847,0.6-2.734,1.487-2.734s1.487,0.888,1.487,2.734v0.288c0,1.847-0.6,2.734-1.487,2.734S76.941,1006.126,76.941,1004.28z
		 M78.923,1004.28v-0.288c0-1.439-0.199-1.839-0.495-1.839s-0.496,0.399-0.496,1.839v0.288c0,1.438,0.2,1.839,0.496,1.839
		S78.923,1005.718,78.923,1004.28z M80.301,1004.28v-0.288c0-1.847,0.6-2.734,1.486-2.734c0.888,0,1.487,0.888,1.487,2.734v0.288
		c0,1.847-0.6,2.734-1.487,2.734C80.901,1007.014,80.301,1006.126,80.301,1004.28z M82.284,1004.28v-0.288
		c0-1.439-0.2-1.839-0.496-1.839c-0.295,0-0.495,0.399-0.495,1.839v0.288c0,1.438,0.2,1.839,0.495,1.839
		C82.084,1006.119,82.284,1005.718,82.284,1004.28z M83.756,1001.337h0.968l0.688,2.047l0.688-2.047h0.968v5.597h-0.936v-3.382
		l-0.712,2.118h-0.016l-0.712-2.118v3.382h-0.936V1001.337z"/>
	<path class="st2" d="M11.979,477.106h0.976v4.669h1.031v0.928h-2.007V477.106z M14.379,477.106h2.143v0.927h-1.167v1.391h1.031
		v0.928h-1.031v1.423h1.191v0.928h-2.167V477.106z M18.291,477.106h0.848c0.943,0,1.823,0.384,1.823,1.423v0.04
		c0,0.72-0.408,1.071-0.808,1.263c0.472,0.208,0.879,0.536,0.879,1.248v0.072c0,0.992-0.768,1.551-1.855,1.551h-0.888V477.106z
		 M19.282,479.457c0.432,0,0.72-0.248,0.72-0.736v-0.016c0-0.487-0.288-0.695-0.72-0.695h-0.016v1.447H19.282z M19.29,481.799
		c0.448,0,0.768-0.264,0.768-0.728v-0.04c0-0.464-0.32-0.728-0.768-0.728h-0.024v1.495H19.29z M21.459,477.106h0.976v5.597h-0.976
		V477.106z M22.907,482.511v-1.016c0.344,0.2,0.616,0.312,0.879,0.312c0.28,0,0.52-0.136,0.52-0.479v-0.016
		c0-0.256-0.08-0.448-0.544-0.976c-0.664-0.751-0.936-1.111-0.936-1.791v-0.016c0-0.896,0.584-1.463,1.359-1.463
		c0.392,0,0.624,0.056,0.864,0.176v1.016c-0.304-0.176-0.488-0.256-0.744-0.256c-0.272,0-0.504,0.176-0.504,0.479v0.016
		c0,0.264,0.08,0.36,0.544,0.896c0.768,0.887,0.935,1.231,0.935,1.871v0.016c0,0.879-0.615,1.463-1.383,1.463
		C23.515,482.743,23.187,482.646,22.907,482.511z M26.026,478.033h-0.688v-0.927h2.351v0.927h-0.688v4.669h-0.976V478.033z
		 M28.099,477.106h1.007c1,0,1.727,0.527,1.727,1.783v0.072c0,0.728-0.288,1.191-0.656,1.472l0.752,2.271h-1.04l-0.632-1.951h-0.184
		v1.951h-0.976V477.106z M29.122,479.872c0.424,0,0.735-0.248,0.735-0.903v-0.064c0-0.704-0.335-0.888-0.759-0.888h-0.024v1.855
		H29.122z M31.187,480.048v-0.288c0-1.847,0.6-2.734,1.487-2.734c0.888,0,1.487,0.887,1.487,2.734v0.288
		c0,1.847-0.6,2.734-1.487,2.734C31.786,482.783,31.187,481.895,31.187,480.048z M33.169,480.048v-0.288
		c0-1.439-0.2-1.839-0.496-1.839s-0.496,0.399-0.496,1.839v0.288c0,1.439,0.2,1.839,0.496,1.839S33.169,481.487,33.169,480.048z
		 M14.415,485.106h2.039v0.927h-1.063v1.407h0.927v0.927h-0.927v2.335h-0.976V485.106z M16.895,485.106h1.007
		c1,0,1.727,0.527,1.727,1.783v0.072c0,0.728-0.288,1.191-0.656,1.472l0.752,2.271h-1.04l-0.632-1.951h-0.184v1.951h-0.976V485.106z
		 M17.918,487.872c0.424,0,0.735-0.248,0.735-0.903v-0.064c0-0.704-0.335-0.888-0.759-0.888h-0.024v1.855H17.918z M20.079,485.106
		h2.143v0.927h-1.167v1.391h1.032v0.928h-1.032v1.423h1.191v0.928h-2.167V485.106z M22.719,485.106h0.912l0.983,2.83v-2.83h0.952
		v5.597h-0.864l-1.031-2.966v2.966h-0.952V485.106z M26.047,488v-0.192c0-1.967,0.728-2.742,1.639-2.742
		c0.271,0,0.432,0.032,0.64,0.128v1.007c-0.2-0.12-0.36-0.184-0.544-0.184c-0.432,0-0.744,0.384-0.744,1.783v0.208
		c0,1.479,0.312,1.783,0.76,1.783c0.152,0,0.344-0.056,0.543-0.176v0.959c-0.224,0.128-0.439,0.168-0.719,0.168
		C26.727,490.743,26.047,489.951,26.047,488z M28.831,485.106h0.976v2.318h0.848v-2.318h0.976v5.597h-0.976v-2.351h-0.848v2.351
		h-0.976V485.106z M7.919,493.106h1.008c0.999,0,1.727,0.527,1.727,1.783v0.072c0,0.728-0.288,1.191-0.656,1.472l0.751,2.271H9.71
		l-0.631-1.951H8.895v1.951H7.919V493.106z M8.942,495.872c0.424,0,0.736-0.248,0.736-0.903v-0.064c0-0.704-0.336-0.888-0.76-0.888
		H8.895v1.855H8.942z M11.103,493.106h2.143v0.927h-1.167v1.391h1.031v0.928h-1.031v1.423h1.191v0.928h-2.167V493.106z
		 M13.623,498.511v-1.016c0.344,0.2,0.616,0.312,0.879,0.312c0.28,0,0.52-0.136,0.52-0.479v-0.016c0-0.256-0.08-0.448-0.544-0.976
		c-0.664-0.751-0.936-1.111-0.936-1.791v-0.016c0-0.896,0.584-1.463,1.359-1.463c0.392,0,0.624,0.056,0.863,0.176v1.016
		c-0.304-0.176-0.487-0.256-0.743-0.256c-0.272,0-0.504,0.176-0.504,0.479v0.016c0,0.264,0.08,0.36,0.543,0.896
		c0.768,0.887,0.936,1.231,0.936,1.871v0.016c0,0.879-0.616,1.463-1.383,1.463C14.23,498.743,13.903,498.646,13.623,498.511z
		 M16.743,494.033h-0.688v-0.927h2.351v0.927h-0.688v4.669h-0.976V494.033z M19.358,493.09h1.04l1.063,5.613h-0.976l-0.184-1.111
		h-0.887l-0.176,1.111h-0.943L19.358,493.09z M20.158,496.712l-0.296-1.847l-0.304,1.847H20.158z M21.703,497.072v-3.966h0.967
		v4.062c0,0.504,0.176,0.704,0.424,0.704c0.248,0,0.424-0.2,0.424-0.704v-4.062h0.967v3.966c0,1.175-0.592,1.703-1.391,1.703
		C22.294,498.774,21.703,498.247,21.703,497.072z M25.047,493.106h1.007c1,0,1.727,0.527,1.727,1.783v0.072
		c0,0.728-0.288,1.191-0.656,1.472l0.752,2.271h-1.04l-0.632-1.951h-0.184v1.951h-0.976V493.106z M26.07,495.872
		c0.424,0,0.735-0.248,0.735-0.903v-0.064c0-0.704-0.335-0.888-0.759-0.888h-0.024v1.855H26.07z M29.014,493.09h1.04l1.063,5.613
		h-0.976l-0.184-1.111H29.07l-0.176,1.111h-0.944L29.014,493.09z M29.814,496.712l-0.296-1.847l-0.304,1.847H29.814z
		 M31.415,493.106h0.912l0.983,2.83v-2.83h0.952v5.597h-0.864l-1.031-2.966v2.966h-0.952V493.106z M35.358,494.033h-0.688v-0.927
		h2.351v0.927h-0.688v4.669h-0.976V494.033z"/>
	<path class="st2" d="M91.025,617.773l1.008,0.001c0.999,0.001,1.727,0.529,1.726,1.784v0.072c-0.001,0.728-0.289,1.191-0.657,1.471
		l0.75,2.271l-1.04-0.001l-0.63-1.951h-0.184l-0.002,1.95H91.02L91.025,617.773z M92.046,620.54c0.424,0,0.735-0.247,0.736-0.902
		v-0.064c0-0.703-0.335-0.888-0.759-0.888H92l-0.001,1.854H92.046z M94.209,617.776l1.008,0.001
		c0.999,0.001,1.727,0.529,1.726,1.784v0.072c-0.001,0.728-0.289,1.19-0.657,1.471l0.75,2.271l-1.039-0.001l-0.63-1.952h-0.185
		l-0.001,1.951l-0.976-0.001L94.209,617.776z M95.23,620.543c0.424,0,0.736-0.248,0.736-0.903v-0.063
		c0.001-0.704-0.335-0.888-0.759-0.889h-0.024l-0.001,1.855H95.23z"/>
	<path class="st2" d="M91.025,606.905l1.008,0.001c0.999,0.001,1.727,0.529,1.726,1.784v0.072c-0.001,0.728-0.289,1.191-0.657,1.471
		l0.75,2.271l-1.04-0.001l-0.63-1.951h-0.184l-0.002,1.95H91.02L91.025,606.905z M92.046,609.672c0.424,0,0.735-0.247,0.736-0.902
		v-0.064c0-0.703-0.335-0.888-0.759-0.888H92l-0.001,1.854H92.046z M94.209,606.908l1.008,0.001
		c0.999,0.001,1.727,0.529,1.726,1.784v0.072c-0.001,0.728-0.289,1.19-0.657,1.471l0.75,2.271l-1.039-0.001l-0.63-1.952h-0.185
		l-0.001,1.951l-0.976-0.001L94.209,606.908z M95.23,609.675c0.424,0,0.736-0.248,0.736-0.903v-0.063
		c0.001-0.704-0.335-0.888-0.759-0.889h-0.024l-0.001,1.855H95.23z"/>
	<path class="st2" d="M57.236,112.957v-1.016c0.344,0.2,0.616,0.312,0.88,0.312c0.28,0,0.52-0.136,0.52-0.479v-0.016
		c0-0.256-0.08-0.448-0.543-0.976c-0.664-0.751-0.936-1.111-0.936-1.791v-0.016c0-0.896,0.583-1.463,1.359-1.463
		c0.392,0,0.624,0.056,0.864,0.176v1.016c-0.304-0.176-0.488-0.256-0.744-0.256c-0.272,0-0.504,0.176-0.504,0.479v0.016
		c0,0.264,0.08,0.36,0.544,0.896c0.768,0.887,0.936,1.231,0.936,1.871v0.016c0,0.879-0.616,1.463-1.383,1.463
		C57.844,113.189,57.517,113.093,57.236,112.957z M60.356,108.479h-0.688v-0.927h2.351v0.927h-0.688v4.669h-0.976V108.479z
		 M62.972,107.536h1.039l1.063,5.613h-0.976l-0.184-1.111h-0.888l-0.176,1.111h-0.943L62.972,107.536z M63.771,111.158l-0.296-1.847
		l-0.304,1.847H63.771z M65.197,110.446v-0.192c0-1.807,0.768-2.742,1.871-2.742c0.295,0,0.543,0.064,0.743,0.16v1.016
		c-0.24-0.144-0.456-0.24-0.712-0.24c-0.56,0-0.911,0.56-0.911,1.767v0.272c0,1.463,0.432,1.799,0.831,1.799
		c0.032,0,0.04,0,0.088-0.008v-1.431h-0.479v-0.872h1.367v2.975c-0.352,0.152-0.64,0.24-1.016,0.24
		C66.004,113.189,65.197,112.397,65.197,110.446z M68.533,107.552h2.143v0.927h-1.167v1.391h1.031v0.928h-1.031v1.423h1.19v0.928
		h-2.166V107.552z"/>
	<path class="st2" d="M41.584,189.235v-1.016c0.344,0.2,0.616,0.312,0.88,0.312c0.28,0,0.52-0.136,0.52-0.48v-0.016
		c0-0.256-0.08-0.448-0.544-0.976c-0.664-0.751-0.936-1.111-0.936-1.791v-0.016c0-0.896,0.584-1.463,1.359-1.463
		c0.392,0,0.624,0.056,0.864,0.176v1.015c-0.304-0.176-0.488-0.256-0.744-0.256c-0.272,0-0.504,0.176-0.504,0.48v0.016
		c0,0.264,0.08,0.36,0.544,0.896c0.768,0.887,0.936,1.231,0.936,1.871v0.016c0,0.88-0.616,1.463-1.383,1.463
		C42.192,189.467,41.864,189.371,41.584,189.235z M44.704,184.757h-0.688v-0.928h2.351v0.928H45.68v4.669h-0.976V184.757z
		 M47.32,183.814h1.04l1.063,5.613h-0.976l-0.184-1.111h-0.888l-0.176,1.111h-0.944L47.32,183.814z M48.12,187.436l-0.296-1.847
		l-0.304,1.847H48.12z M49.72,183.83h1.008c0.999,0,1.727,0.528,1.727,1.783v0.072c0,0.728-0.288,1.191-0.656,1.471l0.751,2.271
		h-1.04l-0.631-1.951h-0.184v1.951H49.72V183.83z M50.744,186.596c0.424,0,0.736-0.248,0.736-0.903v-0.064
		c0-0.704-0.336-0.888-0.76-0.888h-0.024v1.855H50.744z M52.904,183.83h0.912c1.247,0,1.959,0.904,1.959,2.703v0.192
		c0,1.799-0.712,2.703-1.959,2.703h-0.912V183.83z M53.92,188.531c0.463,0,0.863-0.408,0.863-1.807v-0.192
		c0-1.399-0.4-1.807-0.863-1.807h-0.04v3.806H53.92z M56.24,187.795v-3.966h0.967v4.062c0,0.504,0.176,0.704,0.424,0.704
		c0.248,0,0.424-0.2,0.424-0.704v-4.062h0.968v3.966c0,1.176-0.592,1.703-1.392,1.703C56.832,189.499,56.24,188.971,56.24,187.795z
		 M59.464,189.235v-1.016c0.344,0.2,0.616,0.312,0.879,0.312c0.28,0,0.52-0.136,0.52-0.48v-0.016c0-0.256-0.08-0.448-0.543-0.976
		c-0.664-0.751-0.936-1.111-0.936-1.791v-0.016c0-0.896,0.583-1.463,1.359-1.463c0.392,0,0.624,0.056,0.863,0.176v1.015
		c-0.304-0.176-0.488-0.256-0.744-0.256c-0.271,0-0.503,0.176-0.503,0.48v0.016c0,0.264,0.08,0.36,0.543,0.896
		c0.768,0.887,0.936,1.231,0.936,1.871v0.016c0,0.88-0.616,1.463-1.383,1.463C60.072,189.467,59.744,189.371,59.464,189.235z
		 M62.584,184.757h-0.688v-0.928h2.351v0.928h-0.688v4.669h-0.975V184.757z M66.448,184.757H65.76v-0.928h2.351v0.928h-0.688v4.669
		h-0.976V184.757z M68.52,183.83h0.976v2.319h0.848v-2.319h0.976v5.597h-0.976v-2.351h-0.848v2.351H68.52V183.83z M71.896,183.83
		h2.143v0.928h-1.167v1.391h1.031v0.928h-1.031v1.423h1.191v0.927h-2.167V183.83z M75.32,183.814h1.039l1.063,5.613h-0.976
		l-0.184-1.111h-0.888l-0.176,1.111h-0.943L75.32,183.814z M76.119,187.436l-0.296-1.847l-0.304,1.847H76.119z M78,184.757h-0.688
		v-0.928h2.351v0.928h-0.688v4.669H78V184.757z M80.072,183.83h2.143v0.928h-1.167v1.391h1.031v0.928h-1.031v1.423h1.191v0.927
		h-2.167V183.83z M82.711,183.83h1.008c0.999,0,1.727,0.528,1.727,1.783v0.072c0,0.728-0.287,1.191-0.655,1.471l0.752,2.271h-1.04
		l-0.632-1.951h-0.184v1.951h-0.976V183.83z M83.735,186.596c0.424,0,0.735-0.248,0.735-0.903v-0.064
		c0-0.704-0.335-0.888-0.759-0.888h-0.024v1.855H83.735z M51.044,195.124c0-1.623,0.504-3.014,1.839-3.406v0.704
		c-0.688,0.36-0.936,1.407-0.936,2.703c0,1.303,0.248,2.351,0.936,2.71v0.704C51.548,198.146,51.044,196.763,51.044,195.124z
		 M53.388,191.83h0.848c0.943,0,1.823,0.384,1.823,1.423v0.04c0,0.72-0.408,1.071-0.808,1.263c0.472,0.208,0.88,0.536,0.88,1.248
		v0.072c0,0.992-0.768,1.551-1.855,1.551h-0.888V191.83z M54.379,194.181c0.432,0,0.72-0.248,0.72-0.736v-0.016
		c0-0.488-0.288-0.696-0.72-0.696h-0.016v1.447H54.379z M54.388,196.523c0.448,0,0.768-0.264,0.768-0.728v-0.04
		c0-0.464-0.32-0.728-0.768-0.728h-0.024v1.496H54.388z M57.284,191.814h1.04l1.063,5.613h-0.976l-0.184-1.111H57.34l-0.176,1.111
		H56.22L57.284,191.814z M58.084,195.436l-0.296-1.847l-0.304,1.847H58.084z M59.684,191.83h0.976v4.67h1.031v0.927h-2.007V191.83z
		 M61.788,194.724v-0.192c0-1.967,0.728-2.742,1.639-2.742c0.272,0,0.432,0.032,0.64,0.128v1.007c-0.2-0.12-0.36-0.184-0.543-0.184
		c-0.432,0-0.744,0.384-0.744,1.783v0.208c0,1.479,0.312,1.783,0.759,1.783c0.152,0,0.344-0.056,0.543-0.176v0.959
		c-0.224,0.128-0.439,0.168-0.719,0.168C62.468,197.467,61.788,196.675,61.788,194.724z M64.276,194.772v-0.288
		c0-1.847,0.6-2.734,1.487-2.734s1.487,0.887,1.487,2.734v0.288c0,1.847-0.6,2.735-1.487,2.735S64.276,196.619,64.276,194.772z
		 M66.259,194.772v-0.288c0-1.439-0.2-1.839-0.496-1.839s-0.495,0.4-0.495,1.839v0.288c0,1.439,0.199,1.839,0.495,1.839
		S66.259,196.211,66.259,194.772z M67.732,191.83h0.912l0.983,2.831v-2.831h0.951v5.597h-0.863l-1.031-2.966v2.966h-0.952V191.83z
		 M71.908,195.22l-1.039-3.391h1.007l0.528,2.095l0.535-2.095h0.983l-1.039,3.391v2.207h-0.976V195.22z M74.14,197.834
		c0.688-0.36,0.936-1.407,0.936-2.71c0-1.295-0.248-2.343-0.936-2.703v-0.704c1.335,0.392,1.839,1.783,1.839,3.406
		c0,1.639-0.504,3.022-1.839,3.414V197.834z"/>
	<path class="st2" d="M106.199,1001.474l1.008,0.001c0.999,0.001,1.727,0.529,1.726,1.784v0.072
		c-0.001,0.728-0.289,1.191-0.657,1.471l0.75,2.271l-1.04-0.001l-0.63-1.951h-0.184l-0.002,1.95h-0.976L106.199,1001.474z
		 M107.22,1004.242c0.424,0,0.735-0.247,0.736-0.902v-0.064c0-0.703-0.335-0.888-0.759-0.888h-0.024l-0.001,1.854H107.22z
		 M109.382,1001.477l1.008,0.001c0.999,0.001,1.727,0.529,1.726,1.784v0.072c-0.001,0.728-0.289,1.19-0.657,1.471l0.75,2.271
		l-1.039-0.001l-0.63-1.952h-0.185l-0.001,1.951l-0.976-0.001L109.382,1001.477z M110.404,1004.245c0.424,0,0.736-0.248,0.736-0.903
		v-0.063c0.001-0.704-0.335-0.888-0.759-0.889h-0.024l-0.001,1.855H110.404z"/>
	<path class="st2" d="M16.199,1001.474l1.007,0.001c1,0.001,1.727,0.529,1.726,1.784v0.072c0,0.728-0.289,1.191-0.657,1.471
		l0.75,2.271l-1.04-0.001l-0.63-1.951h-0.184l-0.002,1.95h-0.975L16.199,1001.474z M17.22,1004.242c0.424,0,0.736-0.247,0.736-0.902
		v-0.064c0.001-0.703-0.335-0.888-0.759-0.888h-0.024l-0.001,1.854H17.22z M19.383,1001.477l1.007,0.001
		c1,0.001,1.727,0.529,1.726,1.784v0.072c0,0.728-0.289,1.19-0.657,1.471l0.75,2.271l-1.039-0.001l-0.63-1.952h-0.184l-0.001,1.951
		l-0.975-0.001L19.383,1001.477z M20.404,1004.245c0.424,0,0.736-0.248,0.736-0.903v-0.063c0-0.704-0.335-0.888-0.759-0.889h-0.024
		l-0.001,1.855H20.404z"/>
	<path class="st2" d="M11.142,254.705v-0.761c0.258,0.15,0.461,0.233,0.659,0.233c0.21,0,0.39-0.102,0.39-0.359v-0.012
		c0-0.192-0.06-0.336-0.408-0.731c-0.498-0.564-0.702-0.833-0.702-1.343v-0.012c0-0.671,0.438-1.097,1.02-1.097
		c0.293,0,0.467,0.042,0.647,0.132v0.762c-0.228-0.132-0.366-0.192-0.558-0.192c-0.204,0-0.378,0.132-0.378,0.36v0.012
		c0,0.198,0.06,0.27,0.408,0.672c0.576,0.666,0.702,0.923,0.702,1.403v0.012c0,0.66-0.462,1.097-1.038,1.097
		C11.598,254.879,11.352,254.807,11.142,254.705z M13.08,252.822v-0.144c0-1.475,0.545-2.057,1.229-2.057
		c0.204,0,0.324,0.024,0.48,0.096v0.756c-0.15-0.09-0.27-0.138-0.408-0.138c-0.324,0-0.558,0.288-0.558,1.337v0.156
		c0,1.109,0.233,1.337,0.569,1.337c0.114,0,0.258-0.042,0.408-0.132v0.72c-0.168,0.096-0.33,0.125-0.54,0.125
		C13.59,254.879,13.08,254.286,13.08,252.822z M15.755,250.64h0.78l0.797,4.209h-0.731l-0.138-0.833h-0.666l-0.132,0.833h-0.708
		L15.755,250.64z M16.355,253.356l-0.222-1.385l-0.228,1.385H16.355z M17.556,250.651h0.732v3.502h0.773v0.696h-1.505V250.651z
		 M19.278,254.268l0.965-2.927h-0.929v-0.689h1.733v0.582l-0.965,2.927h0.965v0.689h-1.769V254.268z M21.408,250.651h0.731v4.198
		h-0.731V250.651z M10.476,256.651h0.635c0.708,0,1.368,0.288,1.368,1.067v0.03c0,0.54-0.306,0.803-0.606,0.947
		c0.354,0.156,0.66,0.402,0.66,0.936v0.054c0,0.744-0.576,1.164-1.391,1.164h-0.666V256.651z M11.219,258.415
		c0.324,0,0.54-0.186,0.54-0.552v-0.012c0-0.366-0.216-0.521-0.54-0.521h-0.012v1.085H11.219z M11.226,260.171
		c0.335,0,0.576-0.198,0.576-0.545v-0.03c0-0.348-0.24-0.545-0.576-0.545h-0.018v1.121H11.226z M12.84,256.651h0.755
		c0.75,0,1.295,0.396,1.295,1.337v0.054c0,0.546-0.216,0.894-0.492,1.104l0.564,1.703h-0.78l-0.474-1.463h-0.138v1.463H12.84
		V256.651z M13.607,258.726c0.318,0,0.552-0.186,0.552-0.677V258c0-0.527-0.252-0.666-0.57-0.666h-0.018v1.391H13.607z
		 M15.24,256.651h0.731v4.198H15.24V256.651z M16.416,256.651H17.1c0.936,0,1.469,0.678,1.469,2.027v0.144
		c0,1.349-0.534,2.027-1.469,2.027h-0.684V256.651z M17.177,260.177c0.348,0,0.648-0.306,0.648-1.355v-0.144
		c0-1.049-0.3-1.355-0.648-1.355h-0.03v2.854H17.177z M18.858,258.822v-0.144c0-1.355,0.576-2.057,1.403-2.057
		c0.222,0,0.408,0.048,0.558,0.12v0.762c-0.18-0.108-0.342-0.18-0.534-0.18c-0.42,0-0.684,0.419-0.684,1.325v0.204
		c0,1.098,0.324,1.35,0.624,1.35c0.024,0,0.03,0,0.066-0.006v-1.073h-0.36v-0.654h1.025v2.231c-0.264,0.114-0.479,0.18-0.762,0.18
		C19.463,260.879,18.858,260.286,18.858,258.822z M21.36,256.651h1.607v0.696h-0.875v1.043h0.773v0.695h-0.773v1.067h0.894v0.696
		H21.36V256.651z M3.279,262.651h0.726l0.516,1.535l0.516-1.535h0.726v4.198H5.06v-2.537l-0.534,1.589H4.514l-0.534-1.589v2.537
		H3.279V262.651z M6.195,262.651h1.607v0.696H6.927v1.043H7.7v0.695H6.927v1.067H7.82v0.696H6.195V262.651z M8.175,262.651h1.607
		v0.696H8.906v1.043H9.68v0.695H8.906v1.067H9.8v0.696H8.175V262.651z M10.544,263.347h-0.516v-0.696h1.763v0.696h-0.516v3.502
		h-0.732V263.347z M12.111,262.651h0.731v4.198h-0.731V262.651z M13.287,262.651h0.684l0.738,2.123v-2.123h0.713v4.198h-0.647
		l-0.773-2.225v2.225h-0.714V262.651z M15.783,264.822v-0.144c0-1.355,0.576-2.057,1.403-2.057c0.222,0,0.408,0.048,0.558,0.12
		v0.762c-0.18-0.108-0.342-0.18-0.534-0.18c-0.42,0-0.684,0.419-0.684,1.325v0.204c0,1.098,0.324,1.35,0.624,1.35
		c0.024,0,0.03,0,0.066-0.006v-1.073h-0.36v-0.654h1.025v2.231c-0.264,0.114-0.479,0.18-0.761,0.18
		C16.388,266.879,15.783,266.286,15.783,264.822z M19.239,262.651h0.755c0.75,0,1.295,0.396,1.295,1.337v0.054
		c0,0.546-0.216,0.894-0.492,1.104l0.563,1.703h-0.779l-0.474-1.463H19.97v1.463h-0.731V262.651z M20.006,264.726
		c0.318,0,0.552-0.186,0.552-0.677V264c0-0.527-0.252-0.666-0.57-0.666H19.97v1.391H20.006z M21.555,264.858v-0.216
		c0-1.385,0.45-2.051,1.115-2.051s1.116,0.666,1.116,2.051v0.216c0,1.385-0.45,2.051-1.116,2.051S21.555,266.244,21.555,264.858z
		 M23.042,264.858v-0.216c0-1.079-0.15-1.379-0.372-1.379c-0.222,0-0.372,0.3-0.372,1.379v0.216c0,1.079,0.15,1.379,0.372,1.379
		C22.892,266.237,23.042,265.937,23.042,264.858z M24.075,264.858v-0.216c0-1.385,0.45-2.051,1.115-2.051s1.116,0.666,1.116,2.051
		v0.216c0,1.385-0.45,2.051-1.116,2.051S24.075,266.244,24.075,264.858z M25.562,264.858v-0.216c0-1.079-0.15-1.379-0.372-1.379
		c-0.222,0-0.372,0.3-0.372,1.379v0.216c0,1.079,0.15,1.379,0.372,1.379C25.412,266.237,25.562,265.937,25.562,264.858z
		 M26.667,262.651h0.726l0.516,1.535l0.516-1.535h0.726v4.198h-0.702v-2.537l-0.534,1.589h-0.012l-0.534-1.589v2.537h-0.702V262.651
		z"/>
	<path class="st2" d="M6.935,191.915H7.69c0.75,0,1.295,0.396,1.295,1.337v0.054c0,0.546-0.216,0.894-0.492,1.104l0.563,1.703H8.278
		l-0.474-1.463H7.667v1.463H6.935V191.915z M7.703,193.99c0.318,0,0.552-0.186,0.552-0.677v-0.048c0-0.527-0.252-0.666-0.57-0.666
		H7.667v1.391H7.703z M9.335,191.915h0.731v4.198H9.335V191.915z M11.099,191.903h0.779l0.798,4.209h-0.732l-0.138-0.833h-0.666
		l-0.132,0.833h-0.708L11.099,191.903z M11.698,194.62l-0.222-1.385l-0.228,1.385H11.698z M12.899,191.915h0.731v3.502h0.773v0.696
		h-1.505V191.915z M14.878,192.611h-0.516v-0.696h1.763v0.696H15.61v3.502h-0.732V192.611z M16.241,194.122v-0.216
		c0-1.385,0.45-2.051,1.116-2.051c0.666,0,1.115,0.666,1.115,2.051v0.216c0,1.385-0.45,2.051-1.115,2.051
		C16.69,196.173,16.241,195.507,16.241,194.122z M17.728,194.122v-0.216c0-1.079-0.15-1.379-0.372-1.379
		c-0.222,0-0.372,0.3-0.372,1.379v0.216c0,1.079,0.15,1.379,0.372,1.379C17.578,195.501,17.728,195.201,17.728,194.122z
		 M6.452,197.915h0.635c0.708,0,1.368,0.288,1.368,1.067v0.03c0,0.54-0.306,0.803-0.606,0.947c0.354,0.156,0.66,0.402,0.66,0.936
		v0.054c0,0.744-0.576,1.164-1.391,1.164H6.452V197.915z M7.195,199.678c0.324,0,0.54-0.186,0.54-0.552v-0.012
		c0-0.366-0.216-0.521-0.54-0.521H7.184v1.085H7.195z M7.202,201.435c0.336,0,0.576-0.198,0.576-0.545v-0.03
		c0-0.348-0.24-0.545-0.576-0.545H7.184v1.121H7.202z M8.816,197.915h0.755c0.75,0,1.295,0.396,1.295,1.337v0.054
		c0,0.546-0.216,0.894-0.492,1.104l0.564,1.703h-0.78l-0.474-1.463H9.547v1.463H8.816V197.915z M9.584,199.99
		c0.318,0,0.552-0.186,0.552-0.677v-0.048c0-0.527-0.252-0.666-0.57-0.666H9.547v1.391H9.584z M11.216,197.915h0.731v4.198h-0.731
		V197.915z M12.392,197.915h0.684c0.936,0,1.469,0.678,1.469,2.027v0.144c0,1.349-0.534,2.027-1.469,2.027h-0.684V197.915z
		 M13.153,201.441c0.348,0,0.648-0.306,0.648-1.355v-0.144c0-1.049-0.3-1.355-0.648-1.355h-0.03v2.854H13.153z M14.834,200.086
		v-0.144c0-1.355,0.576-2.057,1.403-2.057c0.222,0,0.408,0.048,0.558,0.12v0.762c-0.18-0.108-0.342-0.18-0.534-0.18
		c-0.42,0-0.684,0.419-0.684,1.325v0.204c0,1.098,0.324,1.35,0.624,1.35c0.024,0,0.03,0,0.066-0.006v-1.073h-0.36v-0.654h1.025
		v2.231c-0.264,0.114-0.479,0.18-0.761,0.18C15.439,202.143,14.834,201.549,14.834,200.086z M17.336,197.915h1.607v0.696h-0.875
		v1.043h0.773v0.695h-0.773v1.067h0.894v0.696h-1.625V197.915z M5.381,203.915h0.726l0.516,1.535l0.516-1.535h0.726v4.198H7.162
		v-2.537l-0.534,1.589H6.616l-0.534-1.589v2.537H5.381V203.915z M8.297,203.915h1.607v0.696H9.028v1.043h0.774v0.695H9.028v1.067
		h0.894v0.696H8.297V203.915z M10.277,203.915h1.607v0.696h-0.875v1.043h0.774v0.695h-0.774v1.067h0.894v0.696h-1.625V203.915z
		 M12.647,204.611h-0.516v-0.696h1.763v0.696h-0.516v3.502h-0.732V204.611z M14.213,203.915h0.731v4.198h-0.731V203.915z
		 M15.389,203.915h0.684l0.738,2.123v-2.123h0.713v4.198h-0.647l-0.773-2.225v2.225h-0.714V203.915z M17.885,206.086v-0.144
		c0-1.355,0.576-2.057,1.403-2.057c0.222,0,0.408,0.048,0.558,0.12v0.762c-0.18-0.108-0.342-0.18-0.534-0.18
		c-0.42,0-0.684,0.419-0.684,1.325v0.204c0,1.098,0.324,1.35,0.624,1.35c0.024,0,0.03,0,0.066-0.006v-1.073h-0.36v-0.654h1.025
		v2.231c-0.264,0.114-0.479,0.18-0.761,0.18C18.49,208.143,17.885,207.549,17.885,206.086z M7.235,209.915h0.756
		c0.75,0,1.295,0.396,1.295,1.337v0.054c0,0.546-0.216,0.894-0.492,1.104l0.564,1.703h-0.78l-0.474-1.463H7.966v1.463H7.235V209.915
		z M8.002,211.99c0.318,0,0.552-0.186,0.552-0.677v-0.048c0-0.527-0.252-0.666-0.57-0.666H7.966v1.391H8.002z M9.551,212.122v-0.216
		c0-1.385,0.45-2.051,1.116-2.051c0.666,0,1.115,0.666,1.115,2.051v0.216c0,1.385-0.45,2.051-1.115,2.051
		C10.001,214.173,9.551,213.507,9.551,212.122z M11.038,212.122v-0.216c0-1.079-0.15-1.379-0.372-1.379
		c-0.222,0-0.372,0.3-0.372,1.379v0.216c0,1.079,0.15,1.379,0.372,1.379C10.888,213.501,11.038,213.201,11.038,212.122z
		 M12.071,212.122v-0.216c0-1.385,0.45-2.051,1.116-2.051c0.666,0,1.115,0.666,1.115,2.051v0.216c0,1.385-0.45,2.051-1.115,2.051
		C12.521,214.173,12.071,213.507,12.071,212.122z M13.558,212.122v-0.216c0-1.079-0.15-1.379-0.372-1.379
		c-0.222,0-0.372,0.3-0.372,1.379v0.216c0,1.079,0.15,1.379,0.372,1.379C13.408,213.501,13.558,213.201,13.558,212.122z
		 M14.663,209.915h0.726l0.516,1.535l0.516-1.535h0.726v4.198h-0.702v-2.537l-0.534,1.589h-0.012l-0.534-1.589v2.537h-0.701V209.915
		z"/>
	<path class="st2" d="M7.967,222.968h0.779l0.798,4.209H8.813l-0.138-0.833H8.009l-0.132,0.833H7.169L7.967,222.968z M8.567,225.684
		l-0.222-1.385l-0.228,1.385H8.567z M9.636,225.15v-0.144c0-1.475,0.545-2.057,1.229-2.057c0.204,0,0.324,0.024,0.48,0.096v0.756
		c-0.15-0.09-0.27-0.138-0.408-0.138c-0.324,0-0.558,0.288-0.558,1.337v0.156c0,1.109,0.234,1.337,0.569,1.337
		c0.114,0,0.258-0.042,0.408-0.132v0.72c-0.167,0.096-0.33,0.125-0.54,0.125C10.146,227.207,9.636,226.614,9.636,225.15z
		 M11.501,225.15v-0.144c0-1.475,0.546-2.057,1.229-2.057c0.204,0,0.324,0.024,0.479,0.096v0.756c-0.15-0.09-0.27-0.138-0.408-0.138
		c-0.324,0-0.558,0.288-0.558,1.337v0.156c0,1.109,0.234,1.337,0.57,1.337c0.114,0,0.258-0.042,0.408-0.132v0.72
		c-0.168,0.096-0.33,0.125-0.54,0.125C12.011,227.207,11.501,226.614,11.501,225.15z M14.177,222.968h0.78l0.797,4.209h-0.731
		l-0.138-0.833h-0.666l-0.132,0.833H13.38L14.177,222.968z M14.777,225.684l-0.222-1.385l-0.228,1.385H14.777z M15.978,222.979
		h0.684c0.936,0,1.469,0.678,1.469,2.027v0.144c0,1.349-0.534,2.027-1.469,2.027h-0.684V222.979z M16.739,226.505
		c0.348,0,0.647-0.306,0.647-1.355v-0.144c0-1.049-0.3-1.355-0.647-1.355h-0.03v2.854H16.739z M18.492,222.979h1.607v0.696h-0.875
		v1.043h0.773v0.695h-0.773v1.067h0.894v0.696h-1.625V222.979z M20.471,222.979h0.726l0.516,1.535l0.516-1.535h0.726v4.198h-0.702
		v-2.537l-0.534,1.589h-0.012l-0.534-1.589v2.537h-0.702V222.979z M23.399,222.979h0.731v4.198h-0.731V222.979z M25.163,222.968
		h0.779l0.798,4.209h-0.731l-0.138-0.833h-0.666l-0.132,0.833h-0.708L25.163,222.968z M25.763,225.684l-0.222-1.385l-0.228,1.385
		H25.763z M10.74,228.979h0.635c0.708,0,1.368,0.288,1.368,1.067v0.03c0,0.54-0.306,0.803-0.606,0.947
		c0.354,0.156,0.66,0.402,0.66,0.936v0.054c0,0.744-0.576,1.164-1.391,1.164H10.74V228.979z M11.483,230.743
		c0.324,0,0.54-0.186,0.54-0.552v-0.012c0-0.366-0.216-0.521-0.54-0.521h-0.012v1.085H11.483z M11.489,232.499
		c0.335,0,0.576-0.198,0.576-0.545v-0.03c0-0.348-0.24-0.545-0.576-0.545h-0.018v1.121H11.489z M13.104,228.979h0.755
		c0.75,0,1.295,0.396,1.295,1.337v0.054c0,0.546-0.216,0.894-0.492,1.104l0.564,1.703h-0.78l-0.474-1.463h-0.138v1.463h-0.731
		V228.979z M13.871,231.054c0.318,0,0.552-0.186,0.552-0.677v-0.048c0-0.527-0.252-0.666-0.57-0.666h-0.018v1.391H13.871z
		 M15.503,228.979h0.731v4.198h-0.731V228.979z M16.68,228.979h0.684c0.936,0,1.469,0.678,1.469,2.027v0.144
		c0,1.349-0.534,2.027-1.469,2.027H16.68V228.979z M17.441,232.505c0.348,0,0.648-0.306,0.648-1.355v-0.144
		c0-1.049-0.3-1.355-0.648-1.355h-0.03v2.854H17.441z M19.122,231.15v-0.144c0-1.355,0.576-2.057,1.403-2.057
		c0.222,0,0.408,0.048,0.558,0.12v0.762c-0.18-0.108-0.342-0.18-0.534-0.18c-0.42,0-0.684,0.419-0.684,1.325v0.204
		c0,1.098,0.324,1.35,0.624,1.35c0.024,0,0.03,0,0.066-0.006v-1.073h-0.36v-0.654h1.025v2.231c-0.264,0.114-0.479,0.18-0.762,0.18
		C19.727,233.207,19.122,232.614,19.122,231.15z M21.624,228.979h1.607v0.696h-0.875v1.043h0.773v0.695h-0.773v1.067h0.894v0.696
		h-1.625V228.979z M9.668,234.979h0.726l0.516,1.535l0.516-1.535h0.726v4.198H11.45v-2.537l-0.534,1.589h-0.012l-0.534-1.589v2.537
		H9.668V234.979z M12.584,234.979h1.607v0.696h-0.876v1.043h0.774v0.695h-0.774v1.067h0.894v0.696h-1.625V234.979z M14.564,234.979
		h1.607v0.696h-0.875v1.043h0.774v0.695h-0.774v1.067h0.894v0.696h-1.625V234.979z M16.934,235.675h-0.516v-0.696h1.763v0.696
		h-0.516v3.502h-0.732V235.675z M18.501,234.979h0.731v4.198h-0.731V234.979z M19.676,234.979h0.684l0.738,2.123v-2.123h0.713v4.198
		h-0.647l-0.773-2.225v2.225h-0.714V234.979z M22.172,237.15v-0.144c0-1.355,0.576-2.057,1.403-2.057
		c0.222,0,0.408,0.048,0.558,0.12v0.762c-0.18-0.108-0.342-0.18-0.534-0.18c-0.42,0-0.684,0.419-0.684,1.325v0.204
		c0,1.098,0.324,1.35,0.624,1.35c0.024,0,0.03,0,0.066-0.006v-1.073h-0.36v-0.654h1.025v2.231c-0.264,0.114-0.479,0.18-0.761,0.18
		C22.778,239.207,22.172,238.614,22.172,237.15z M11.522,240.979h0.756c0.75,0,1.295,0.396,1.295,1.337v0.054
		c0,0.546-0.216,0.894-0.492,1.104l0.564,1.703h-0.78l-0.474-1.463h-0.138v1.463h-0.731V240.979z M12.29,243.054
		c0.318,0,0.552-0.186,0.552-0.677v-0.048c0-0.527-0.252-0.666-0.57-0.666h-0.018v1.391H12.29z M13.838,243.186v-0.216
		c0-1.385,0.45-2.051,1.116-2.051c0.666,0,1.115,0.666,1.115,2.051v0.216c0,1.385-0.45,2.051-1.115,2.051
		C14.288,245.237,13.838,244.572,13.838,243.186z M15.326,243.186v-0.216c0-1.079-0.15-1.379-0.372-1.379
		c-0.222,0-0.372,0.3-0.372,1.379v0.216c0,1.079,0.15,1.379,0.372,1.379C15.176,244.565,15.326,244.266,15.326,243.186z
		 M16.358,243.186v-0.216c0-1.385,0.45-2.051,1.116-2.051c0.666,0,1.115,0.666,1.115,2.051v0.216c0,1.385-0.45,2.051-1.115,2.051
		C16.808,245.237,16.358,244.572,16.358,243.186z M17.846,243.186v-0.216c0-1.079-0.15-1.379-0.372-1.379
		c-0.222,0-0.372,0.3-0.372,1.379v0.216c0,1.079,0.15,1.379,0.372,1.379C17.696,244.565,17.846,244.266,17.846,243.186z
		 M18.951,240.979h0.726l0.516,1.535l0.516-1.535h0.726v4.198h-0.702v-2.537l-0.534,1.589h-0.012l-0.534-1.589v2.537h-0.701V240.979
		z"/>
	<path class="st2" d="M53.975,151.55v-0.288c0-1.847,0.6-2.734,1.487-2.734c0.888,0,1.487,0.887,1.487,2.734v0.288
		c0,1.847-0.6,2.734-1.487,2.734C54.575,154.285,53.975,153.397,53.975,151.55z M55.958,151.55v-0.288
		c0-1.439-0.2-1.839-0.496-1.839c-0.295,0-0.496,0.399-0.496,1.839v0.288c0,1.439,0.2,1.839,0.496,1.839
		C55.758,153.389,55.958,152.989,55.958,151.55z M57.431,148.608h0.872c1.063,0,1.807,0.575,1.807,1.887v0.016
		c0,1.263-0.704,1.863-1.695,1.935h-0.008v1.759h-0.976V148.608z M58.415,151.542c0.408-0.024,0.719-0.32,0.719-1v-0.016
		c0-0.712-0.272-1.016-0.695-1.016h-0.032v2.031H58.415z M60.511,148.608h2.143v0.927h-1.167v1.391h1.031v0.928h-1.031v1.423h1.191
		v0.928h-2.167V148.608z M63.151,148.608h0.911l0.983,2.83v-2.83h0.952v5.597h-0.864l-1.031-2.966v2.966h-0.951V148.608z
		 M68.367,149.535h-0.688v-0.927h2.351v0.927h-0.688v4.669h-0.975V149.535z M70.183,151.55v-0.288c0-1.847,0.6-2.734,1.486-2.734
		c0.888,0,1.487,0.887,1.487,2.734v0.288c0,1.847-0.6,2.734-1.487,2.734C70.783,154.285,70.183,153.397,70.183,151.55z
		 M72.166,151.55v-0.288c0-1.439-0.2-1.839-0.496-1.839c-0.295,0-0.495,0.399-0.495,1.839v0.288c0,1.439,0.2,1.839,0.495,1.839
		C71.965,153.389,72.166,152.989,72.166,151.55z M57.943,156.608h0.912c1.247,0,1.958,0.903,1.958,2.702v0.192
		c0,1.799-0.711,2.703-1.958,2.703h-0.912V156.608z M58.959,161.309c0.463,0,0.863-0.408,0.863-1.807v-0.192
		c0-1.399-0.4-1.807-0.863-1.807h-0.04v3.806H58.959z M61.295,156.608h2.143v0.927H62.27v1.391h1.032v0.928H62.27v1.423h1.191v0.928
		h-2.167V156.608z M63.759,159.502v-0.192c0-1.967,0.727-2.742,1.639-2.742c0.271,0,0.432,0.032,0.64,0.128v1.007
		c-0.2-0.12-0.36-0.184-0.544-0.184c-0.432,0-0.743,0.384-0.743,1.783v0.208c0,1.479,0.312,1.783,0.759,1.783
		c0.152,0,0.345-0.056,0.544-0.176v0.959c-0.224,0.128-0.439,0.168-0.72,0.168C64.438,162.245,63.759,161.453,63.759,159.502z
		 M66.542,156.608h0.976v2.342l0.792-2.342h1.104l-0.944,2.366l0.96,3.23h-1.088l-0.607-2.119l-0.216,0.616v1.503h-0.976V156.608z
		 M55.851,164.608h0.847c0.944,0,1.823,0.384,1.823,1.423v0.04c0,0.72-0.408,1.071-0.808,1.263c0.472,0.208,0.879,0.536,0.879,1.248
		v0.072c0,0.992-0.768,1.551-1.855,1.551h-0.887V164.608z M56.842,166.958c0.432,0,0.72-0.248,0.72-0.736v-0.016
		c0-0.487-0.288-0.695-0.72-0.695h-0.016v1.447H56.842z M56.85,169.301c0.448,0,0.768-0.264,0.768-0.728v-0.04
		c0-0.464-0.32-0.728-0.768-0.728h-0.024v1.495H56.85z M59.003,164.608h2.143v0.927h-1.167v1.391h1.032v0.928h-1.032v1.423h1.191
		v0.928h-2.167V164.608z M61.643,164.608h0.976v4.669h1.031v0.928h-2.007V164.608z M63.747,167.55v-0.288
		c0-1.847,0.6-2.734,1.487-2.734s1.487,0.887,1.487,2.734v0.288c0,1.847-0.6,2.734-1.487,2.734S63.747,169.397,63.747,167.55z
		 M65.73,167.55v-0.288c0-1.439-0.2-1.839-0.496-1.839s-0.496,0.399-0.496,1.839v0.288c0,1.439,0.2,1.839,0.496,1.839
		S65.73,168.989,65.73,167.55z M66.859,164.608h0.999l0.408,3.43l0.487-3.43h0.904l0.479,3.43l0.416-3.43h0.975l-0.847,5.613h-1.023
		l-0.464-3.318l-0.464,3.318h-1.023L66.859,164.608z"/>
</g>
<g id="GEM_DECK_06_TOP">
	<path class="st3" d="M75.06,1080.138c16.803-0.82,46.976-4.266,51.953-18.344c0.178-20.215,0.229-825.167,0.229-825.167
		s-0.203-32.547-0.551-36.432c-0.127-1.436-0.826-21.757-1.744-31.022c-3.566-35.287-10-109.284-59.898-168.214
		c-0.293-0.243-0.596-0.391-0.904-0.459h-0.547c-0.309,0.068-0.611,0.216-0.904,0.459C10.446,61.64,5.071,146.54,2.501,171.684
		c-0.886,12.481-1.322,27.075-1.45,28.511C0.703,204.081,0.5,236.627,0.5,236.627s0.051,804.952,0.229,825.167
		c5.162,14.605,37.443,17.768,53.779,18.426L75.06,1080.138z"/>
	<g id="gDeck06Locations">
		<rect id="_x30_6Aft" y="701.501" class="st4" width="127.742" height="379.219"/>
		<rect id="_x30_6Middle" y="384.546" class="st4" width="127.742" height="316.956"/>
		<rect id="_x30_6Forward" class="st4" width="127.742" height="384.546"/>
	</g>
</g>
</svg>
