<?xml version="1.0" encoding="utf-8"?>
<!-- Generator: Adobe Illustrator 23.0.4, SVG Export Plug-In . SVG Version: 6.00 Build 0)  -->
<svg version="1.1" id="GEM_DECK_13" xmlns="http://www.w3.org/2000/svg" xmlns:xlink="http://www.w3.org/1999/xlink" x="0px"
	 y="0px" width="154.53px" height="983.76px" viewBox="0 0 154.53 983.76" style="enable-background:new 0 0 154.53 983.76;"
	 xml:space="preserve">
<style type="text/css">
	.New_x0020_Cabins_x0020_2019{fill:#EFF2F5;stroke:#FFFFFF;stroke-width:0.5;stroke-miterlimit:10;}
	.New_x0020_Cabins_x0020_2{fill:#EFF2F5;stroke:#FFFFFF;stroke-width:0.5;stroke-miterlimit:10;}
	.st0{fill:#FFFFFF;}
	.st1{fill:none;stroke:#D5DCE0;stroke-width:0.5;}
	.st2{fill:#6E8496;}
	.st3{fill:none;stroke:#076FA0;stroke-miterlimit:10;}
	.st4{fill:none;}
</style>
<g id="GEM_DECK_13_BOTTOM">
	<path class="st0" d="M11.887,36.503L0.22,36.17V17.836c0,0,37-18,78.667-17.333s74.667,17.333,74.667,17.333v18L142.22,36.17v222
		l9,16.333v388.333l-9,17.334v198.333l9,8.333l0.333,63l-9,7.667l-33.667,0.667l-33.333,25l-29.667-25.334l-33.333-0.333l-9.667-7
		L2.553,887.17l9.666-8.334V680.503l-8.666-17V273.835l8.333-16V36.503z"/>
	<polygon class="st1" points="65.663,180.953 65.663,172.365 75.747,172.365 75.747,180.953 65.663,180.953 	"/>
	<polygon class="st1" points="55.579,180.953 55.579,172.365 65.663,172.365 65.663,180.953 55.579,180.953 	"/>
	<polygon class="st1" points="85.657,180.953 85.657,172.365 95.741,172.365 95.741,180.953 85.657,180.953 	"/>
	<polygon class="st1" points="75.573,180.953 75.573,172.365 85.657,172.365 85.657,180.953 75.573,180.953 	"/>
	<polyline class="st1" points="33.813,785.581 33.813,773.766 21.678,773.766 	"/>
	<polyline class="st1" points="21.678,778.414 28.649,778.414 28.649,785.386 	"/>
	<line class="st1" x1="22.23" y1="773.914" x2="22.23" y2="778.622"/>
	<line class="st1" x1="28.73" y1="773.914" x2="28.73" y2="778.622"/>
	<line class="st1" x1="27.647" y1="773.914" x2="27.647" y2="778.622"/>
	<line class="st1" x1="26.563" y1="773.914" x2="26.563" y2="778.622"/>
	<line class="st1" x1="25.48" y1="773.914" x2="25.48" y2="778.622"/>
	<line class="st1" x1="24.397" y1="773.914" x2="24.397" y2="778.622"/>
	<line class="st1" x1="23.313" y1="773.914" x2="23.313" y2="778.622"/>
	<line class="st1" x1="28.918" y1="784.976" x2="33.626" y2="784.976"/>
	<line class="st1" x1="28.918" y1="778.476" x2="33.626" y2="778.476"/>
	<line class="st1" x1="28.918" y1="779.559" x2="33.626" y2="779.559"/>
	<line class="st1" x1="28.918" y1="780.643" x2="33.626" y2="780.643"/>
	<line class="st1" x1="28.918" y1="781.726" x2="33.626" y2="781.726"/>
	<line class="st1" x1="28.918" y1="782.809" x2="33.626" y2="782.809"/>
	<line class="st1" x1="28.918" y1="783.893" x2="33.626" y2="783.893"/>
	<polyline class="st1" points="119.01,785.581 119.01,773.766 131.147,773.766 	"/>
	<polyline class="st1" points="131.147,778.414 124.174,778.414 124.174,785.386 	"/>
	<line class="st1" x1="130.594" y1="773.914" x2="130.594" y2="778.622"/>
	<line class="st1" x1="124.094" y1="773.914" x2="124.094" y2="778.622"/>
	<line class="st1" x1="125.176" y1="773.914" x2="125.176" y2="778.622"/>
	<line class="st1" x1="126.26" y1="773.914" x2="126.26" y2="778.622"/>
	<line class="st1" x1="127.344" y1="773.914" x2="127.344" y2="778.622"/>
	<line class="st1" x1="128.426" y1="773.914" x2="128.426" y2="778.622"/>
	<line class="st1" x1="129.51" y1="773.914" x2="129.51" y2="778.622"/>
	<line class="st1" x1="123.907" y1="784.976" x2="119.198" y2="784.976"/>
	<line class="st1" x1="123.907" y1="778.476" x2="119.198" y2="778.476"/>
	<line class="st1" x1="123.907" y1="779.559" x2="119.198" y2="779.559"/>
	<line class="st1" x1="123.907" y1="780.643" x2="119.198" y2="780.643"/>
	<line class="st1" x1="123.907" y1="781.726" x2="119.198" y2="781.726"/>
	<line class="st1" x1="123.907" y1="782.809" x2="119.198" y2="782.809"/>
	<line class="st1" x1="123.907" y1="783.893" x2="119.198" y2="783.893"/>
	<polyline class="st1" points="113.552,785.336 128.922,785.336 128.922,881.586 23.673,881.586 23.673,785.336 58.886,785.336 	"/>
	<polyline class="st1" points="58.886,785.137 38.923,785.137 38.923,733.637 113.672,733.637 113.672,785.137 	"/>
	<polyline class="st1" points="102.172,733.637 128.922,733.637 128.922,768.336 113.422,768.336 	"/>
	<line class="st1" x1="113.422" y1="745.336" x2="128.922" y2="745.336"/>
	<line class="st1" x1="113.422" y1="757.086" x2="128.922" y2="757.086"/>
	<polyline class="st1" points="50.173,733.637 23.423,733.637 23.423,768.336 38.923,768.336 	"/>
	<line class="st1" x1="38.923" y1="745.336" x2="23.423" y2="745.336"/>
	<line class="st1" x1="38.923" y1="757.086" x2="23.423" y2="757.086"/>
	<path class="st1" d="M33.428,733.719v-91.939h-3.373c0,0-3.271,0.191-3.867-3.074V516.338c0,0,0.992-26.575,28.162-29.55h14.164
		h3.287h26.774c27.17,2.975,28.162,29.55,28.162,29.55v122.368c-0.827,2.498-3.867,3.074-3.867,3.074l-3.373,0.842v91.425"/>
	<line class="st1" x1="126.737" y1="630.275" x2="26.188" y2="630.275"/>
	<polyline class="st1" points="38.087,630.425 38.087,624.125 46.912,624.125 46.912,612.822 64.265,612.822 88.758,612.822 
		106.209,612.822 106.209,624.125 115.036,624.125 115.036,630.583 	"/>
	<polyline class="st1" points="26.188,578.215 37.293,578.215 37.293,585.157 80.329,585.157 	"/>
	<polyline class="st1" points="126.637,573.348 114.94,573.348 114.94,585.157 71.904,585.157 	"/>
	<polygon class="st1" points="75.606,582.387 75.606,573.799 85.69,573.799 85.69,582.387 75.606,582.387 	"/>
	<polygon class="st1" points="65.522,582.387 65.522,573.799 75.606,573.799 75.606,582.387 65.522,582.387 	"/>
	<polygon class="st1" points="85.684,582.387 85.684,573.799 95.768,573.799 95.768,582.387 85.684,582.387 	"/>
	<polygon class="st1" points="55.438,582.387 55.438,573.799 65.522,573.799 65.522,582.387 55.438,582.387 	"/>
	<polygon class="st1" points="67.01,558.159 67.01,547.523 58.813,547.523 58.813,563.525 67.107,563.525 	"/>
	<polygon class="st1" points="85.569,522.936 85.569,537.961 81.637,537.961 70.933,537.961 67.001,537.961 67.001,522.936 
		62.318,522.936 62.318,539.035 70.64,539.035 81.93,539.035 90.25,539.035 90.25,522.936 	"/>
	<polyline class="st1" points="26.422,539.035 46.841,539.035 58.131,539.035 126.817,539.035 	"/>
	<rect x="67.978" y="526.937" class="st1" width="16.585" height="9.853"/>
	<line class="st1" x1="76.571" y1="527.229" x2="76.571" y2="536.693"/>
	<polygon class="st1" points="114.526,555.718 111.696,552.401 106.721,556.402 98.719,556.402 98.719,545.376 112.965,545.376 
		112.965,539.062 117.161,539.062 117.161,553.376 	"/>
	<path class="st1" d="M86.036,539.035h7.025v15.708h1.463v5.366h1.951v-3.707h10.246l1.463-1.073l2.635,3.512l-5.269,4.879
		l-19.709,0.098v-5.756v-18.026c0-0.553-0.447-1-1-1H68.01c-0.553,0-1,0.447-1,1v18.124"/>
	<line class="st1" x1="106.2" y1="591.64" x2="106.2" y2="600.482"/>
	<line class="st1" x1="46.518" y1="600.482" x2="46.518" y2="591.64"/>
	<line class="st1" x1="26.09" y1="526.503" x2="32.424" y2="526.503"/>
	<polyline class="st1" points="40.424,526.503 58.092,526.503 58.092,518.003 90.09,518.003 90.256,522.503 	"/>
	<polyline class="st1" points="126.59,532.337 117.424,532.337 117.424,538.67 	"/>
	<path class="st1" d="M85.174,517.704c0,0,0.381-10.637,10.582-10.533c9.5,0.833,9.5,9,9.5,9v23"/>
	<line class="st1" x1="45.423" y1="526.586" x2="45.423" y2="538.586"/>
	<line class="st1" x1="27.527" y1="305.349" x2="32.247" y2="305.349"/>
	<polygon class="st1" points="32.397,312.14 32.397,305.328 27.307,305.328 27.307,314.208 	"/>
	<line class="st1" x1="27.527" y1="306.577" x2="32.247" y2="306.577"/>
	<line class="st1" x1="27.527" y1="307.805" x2="32.247" y2="307.805"/>
	<line class="st1" x1="27.527" y1="309.033" x2="32.247" y2="309.033"/>
	<line class="st1" x1="27.527" y1="310.261" x2="32.247" y2="310.261"/>
	<line class="st1" x1="30.874" y1="312.717" x2="27.527" y2="312.717"/>
	<line class="st1" x1="32.018" y1="311.489" x2="27.527" y2="311.489"/>
	<line class="st1" x1="126.352" y1="305.349" x2="121.633" y2="305.349"/>
	<polygon class="st1" points="121.483,312.14 121.483,305.328 126.573,305.328 126.573,314.208 	"/>
	<line class="st1" x1="126.352" y1="306.577" x2="121.633" y2="306.577"/>
	<line class="st1" x1="126.352" y1="307.805" x2="121.633" y2="307.805"/>
	<line class="st1" x1="126.352" y1="309.033" x2="121.633" y2="309.033"/>
	<line class="st1" x1="126.352" y1="310.261" x2="121.633" y2="310.261"/>
	<line class="st1" x1="123.006" y1="312.717" x2="126.352" y2="312.717"/>
	<line class="st1" x1="121.862" y1="311.489" x2="126.352" y2="311.489"/>
	<polyline class="st1" points="33.605,292.382 33.605,242.537 53.569,242.537 53.569,256.524 75.695,256.524 77.094,256.524 
		99.219,256.524 99.219,242.537 119.184,242.537 119.184,291.62 	"/>
	<polyline class="st1" points="33.605,247.496 33.605,162.298 17.454,162.298 	"/>
	<polyline class="st1" points="119.184,247.496 119.184,158.99 136.979,158.99 	"/>
	<line class="st1" x1="33.474" y1="183.023" x2="11.983" y2="183.023"/>
	<polyline class="st1" points="24.938,162.258 35.507,151.741 35.507,145.51 48.223,145.51 48.223,134.193 51.655,124.656 
		87.004,124.656 101.375,124.656 104.809,134.193 104.809,147.419 119.428,147.419 124.26,151.615 124.26,158.866 	"/>
	<path class="st1" d="M48.042,134.719c-5.082-5.738-3.771-11.147-3.771-11.147h6.393v-4.59h-5.082c0,0,1.147-7.541,10.984-9.836
		c12.459-2.131,17.869,6.558,17.869,6.558l-4.591,3.934l2.295,2.787v1.803"/>
	<path class="st1" d="M68.534,110.456c0,0,1.967-2.295,4.918-2.295c2.951,0,29.345,0,29.345,0s14.59,0.492,18.361,16.722
		c1.143,11.222-6.395,17.213-6.395,17.213h-3.77v5.082"/>
	<line class="st1" x1="17.676" y1="61.068" x2="26.772" y2="61.068"/>
	<line class="st1" x1="125.911" y1="61.485" x2="136.258" y2="61.485"/>
	<line class="st1" x1="47.803" y1="170.115" x2="105.22" y2="170.115"/>
	<path class="st1" d="M12.179,169.757l4.951-7.191L17.127,18.1c0,0,16.912-9.028,56.84-10.809h5.932
		c39.928,1.78,56.84,10.809,56.84,10.809v144.198l5.34,7.884"/>
	<polyline class="st1" points="89.316,193.067 89.316,217.635 45.493,217.635 	"/>
	<line class="st1" x1="59.967" y1="194.061" x2="59.967" y2="217.635"/>
	<polyline class="st1" points="77.272,217.635 77.272,194.061 68.888,194.061 	"/>
	<polyline class="st1" points="68.048,194.297 68.048,203.029 59.776,198.929 	"/>
	<line class="st1" x1="59.842" y1="195.342" x2="68.304" y2="195.342"/>
	<line class="st1" x1="59.842" y1="196.867" x2="68.304" y2="196.867"/>
	<line class="st1" x1="59.842" y1="198.393" x2="68.304" y2="198.393"/>
	<line class="st1" x1="61.272" y1="199.918" x2="68.304" y2="199.918"/>
	<line class="st1" x1="64.8" y1="201.443" x2="68.304" y2="201.443"/>
	<polygon class="st1" points="45.912,193.535 45.912,193.554 49.535,193.574 49.535,202.878 45.912,202.878 45.912,216.035 
		54.778,216.035 54.778,193.63 	"/>
	<polyline class="st1" points="45.912,193.554 42.384,193.535 42.384,202.878 45.912,202.878 	"/>
	<rect x="79.28" y="193.439" class="st1" width="8.676" height="22.5"/>
	<line class="st1" x1="23.551" y1="882.359" x2="29.904" y2="882.359"/>
	<line class="st1" x1="23.551" y1="879.628" x2="29.904" y2="879.628"/>
	<line class="st1" x1="23.551" y1="876.898" x2="29.904" y2="876.898"/>
	<line class="st1" x1="23.551" y1="874.167" x2="29.904" y2="874.167"/>
	<line class="st1" x1="23.551" y1="871.436" x2="29.904" y2="871.436"/>
	<rect x="23.693" y="868.706" class="st1" width="6.314" height="16.384"/>
	<line class="st1" x1="122.497" y1="882.359" x2="128.85" y2="882.359"/>
	<line class="st1" x1="122.497" y1="879.628" x2="128.85" y2="879.628"/>
	<line class="st1" x1="122.497" y1="876.898" x2="128.85" y2="876.898"/>
	<line class="st1" x1="122.497" y1="874.167" x2="128.85" y2="874.167"/>
	<line class="st1" x1="122.497" y1="871.436" x2="128.85" y2="871.436"/>
	<rect x="122.639" y="868.706" class="st1" width="6.313" height="16.384"/>
	<line class="st1" x1="48.22" y1="145.668" x2="48.22" y2="170.115"/>
	<line class="st1" x1="104.803" y1="146.418" x2="104.803" y2="170.242"/>
	<line class="st1" x1="42.384" y1="193.535" x2="33.605" y2="193.535"/>
	<line class="st1" x1="65.559" y1="180.571" x2="75.371" y2="172.306"/>
	<line class="st1" x1="75.246" y1="180.462" x2="65.574" y2="172.321"/>
	<line class="st1" x1="55.449" y1="180.556" x2="65.355" y2="172.243"/>
	<line class="st1" x1="65.121" y1="180.399" x2="55.527" y2="172.353"/>
	<line class="st1" x1="85.553" y1="180.571" x2="95.366" y2="172.306"/>
	<line class="st1" x1="95.241" y1="180.462" x2="85.569" y2="172.321"/>
	<line class="st1" x1="75.443" y1="180.556" x2="85.35" y2="172.243"/>
	<line class="st1" x1="85.116" y1="180.399" x2="75.521" y2="172.353"/>
	<line class="st1" x1="86.03" y1="582.421" x2="95.795" y2="574.234"/>
	<line class="st1" x1="95.858" y1="582.468" x2="86.077" y2="574.187"/>
	<line class="st1" x1="75.873" y1="582.5" x2="85.827" y2="574.048"/>
	<line class="st1" x1="85.686" y1="582.343" x2="75.998" y2="574.203"/>
	<line class="st1" x1="65.889" y1="582.437" x2="75.701" y2="574.171"/>
	<line class="st1" x1="75.576" y1="582.328" x2="65.904" y2="574.187"/>
	<line class="st1" x1="55.779" y1="582.421" x2="65.686" y2="574.109"/>
	<line class="st1" x1="65.451" y1="582.265" x2="55.857" y2="574.218"/>
	<line class="st1" x1="76.271" y1="536.693" x2="68.144" y2="527.483"/>
	<line class="st1" x1="67.754" y1="536.693" x2="75.881" y2="527.483"/>
	<line class="st1" x1="84.563" y1="536.693" x2="76.437" y2="527.483"/>
	<line class="st1" x1="76.047" y1="536.693" x2="84.174" y2="527.483"/>
	<path class="st1" d="M71.569,561.784c0.207,0,0.375-0.345,0.375-0.778"/>
	<line class="st1" x1="67.045" y1="561.784" x2="71.569" y2="561.784"/>
	<line class="st1" x1="71.944" y1="561.005" x2="71.944" y2="557.99"/>
	<line class="st1" x1="71.944" y1="557.99" x2="80.836" y2="557.99"/>
	<path class="st1" d="M80.836,561.005c0,0.434,0.165,0.778,0.372,0.778"/>
	<line class="st1" x1="80.836" y1="557.99" x2="80.836" y2="561.005"/>
	<line class="st1" x1="81.208" y1="561.784" x2="85.759" y2="561.784"/>
	<line class="st1" x1="76.289" y1="543.193" x2="76.289" y2="562.062"/>
	<line class="st1" x1="76.47" y1="543.193" x2="76.47" y2="562.062"/>
	<line class="st1" x1="67.255" y1="544.158" x2="76.289" y2="544.158"/>
	<line class="st1" x1="76.289" y1="562.062" x2="76.47" y2="562.062"/>
	<line class="st1" x1="76.289" y1="543.193" x2="76.47" y2="543.193"/>
	<line class="st1" x1="76.47" y1="544.158" x2="85.83" y2="544.158"/>
	<line class="st1" x1="76.47" y1="546.156" x2="80.452" y2="546.156"/>
	<line class="st1" x1="76.47" y1="548.156" x2="80.452" y2="548.156"/>
	<line class="st1" x1="76.47" y1="550.157" x2="80.452" y2="550.157"/>
	<line class="st1" x1="76.47" y1="552.157" x2="80.452" y2="552.157"/>
	<line class="st1" x1="76.47" y1="554.158" x2="80.452" y2="554.158"/>
	<line class="st1" x1="76.47" y1="556.158" x2="80.452" y2="556.158"/>
	<line class="st1" x1="76.47" y1="560.156" x2="80.812" y2="560.156"/>
	<line class="st1" x1="72.309" y1="546.156" x2="76.289" y2="546.156"/>
	<line class="st1" x1="72.309" y1="548.156" x2="76.289" y2="548.156"/>
	<line class="st1" x1="72.309" y1="550.157" x2="76.289" y2="550.157"/>
	<line class="st1" x1="72.309" y1="552.157" x2="76.289" y2="552.157"/>
	<line class="st1" x1="72.309" y1="554.158" x2="76.289" y2="554.158"/>
	<line class="st1" x1="72.309" y1="556.158" x2="76.289" y2="556.158"/>
	<line class="st1" x1="71.915" y1="560.156" x2="76.289" y2="560.156"/>
	<line class="st1" x1="85.864" y1="559.815" x2="81.175" y2="559.815"/>
	<line class="st1" x1="85.799" y1="557.84" x2="80.684" y2="557.84"/>
	<line class="st1" x1="85.895" y1="555.874" x2="81.175" y2="555.874"/>
	<line class="st1" x1="85.799" y1="553.903" x2="81.195" y2="553.903"/>
	<line class="st1" x1="71.955" y1="559.815" x2="67.128" y2="559.815"/>
	<line class="st1" x1="71.986" y1="557.84" x2="67.095" y2="557.84"/>
	<line class="st1" x1="71.585" y1="555.874" x2="67.064" y2="555.874"/>
	<line class="st1" x1="71.585" y1="553.903" x2="67.095" y2="553.903"/>
	<path class="st1" d="M81.238,542.967c0-0.416-0.163-0.755-0.362-0.755c-0.2,0-0.361,0.339-0.361,0.755l0,0"/>
	<line class="st1" x1="80.514" y1="542.967" x2="80.514" y2="543.193"/>
	<line class="st1" x1="81.238" y1="542.967" x2="81.238" y2="543.193"/>
	<path class="st1" d="M72.309,542.967c0-0.416-0.162-0.755-0.359-0.755c-0.201,0-0.364,0.339-0.364,0.755l0,0"/>
	<line class="st1" x1="71.585" y1="542.967" x2="71.585" y2="543.193"/>
	<line class="st1" x1="72.309" y1="542.967" x2="72.309" y2="543.193"/>
	<line class="st1" x1="80.871" y1="543.193" x2="80.871" y2="557.801"/>
	<line class="st1" x1="85.767" y1="549.959" x2="81.175" y2="549.959"/>
	<line class="st1" x1="85.767" y1="547.993" x2="81.175" y2="547.993"/>
	<line class="st1" x1="85.736" y1="546.019" x2="81.175" y2="546.019"/>
	<line class="st1" x1="85.799" y1="551.933" x2="81.175" y2="551.933"/>
	<line class="st1" x1="71.954" y1="543.193" x2="71.954" y2="558.066"/>
	<line class="st1" x1="71.585" y1="549.959" x2="67.128" y2="549.959"/>
	<line class="st1" x1="71.585" y1="547.993" x2="67.16" y2="547.993"/>
	<line class="st1" x1="71.585" y1="546.019" x2="67.191" y2="546.019"/>
	<line class="st1" x1="71.636" y1="551.933" x2="67.031" y2="551.933"/>
	<path class="st1" d="M74.649,443.443h52.206V315.658l-5.461-2.84v-18.567c0,0-12.451-14.635-41.939-16.601h-5.244
		c-29.489,1.966-41.939,16.601-41.939,16.601v18.567l-5.461,2.84v127.785h38.227H74.649z"/>
	<polygon class="st1" points="19.684,943.323 19.684,949.277 134.56,949.277 134.56,943.323 134.56,889.262 19.684,889.262 	"/>
	<line class="st1" x1="91.573" y1="512.492" x2="65.77" y2="509.682"/>
	<path class="st2" d="M67.012,349.962v-0.288c0-1.847,0.6-2.734,1.487-2.734c0.888,0,1.487,0.887,1.487,2.734v0.288
		c0,1.847-0.6,2.734-1.487,2.734C67.612,352.697,67.012,351.809,67.012,349.962z M68.995,349.962v-0.288
		c0-1.439-0.2-1.839-0.496-1.839c-0.295,0-0.496,0.399-0.496,1.839v0.288c0,1.439,0.2,1.839,0.496,1.839
		C68.795,351.801,68.995,351.401,68.995,349.962z M70.468,347.02h0.872c1.063,0,1.807,0.575,1.807,1.887v0.016
		c0,1.263-0.704,1.863-1.695,1.935h-0.008v1.759h-0.976V347.02z M71.452,349.954c0.408-0.024,0.719-0.32,0.719-1v-0.016
		c0-0.712-0.272-1.016-0.695-1.016h-0.032v2.031H71.452z M73.548,347.02h2.143v0.927h-1.167v1.391h1.031v0.928h-1.031v1.423h1.191
		v0.928h-2.167V347.02z M76.188,347.02h0.911l0.983,2.83v-2.83h0.952v5.597H78.17l-1.031-2.966v2.966h-0.951V347.02z
		 M81.404,347.947h-0.688v-0.927h2.352v0.927h-0.688v4.669h-0.976V347.947z M83.22,349.962v-0.288c0-1.847,0.6-2.734,1.486-2.734
		c0.888,0,1.487,0.887,1.487,2.734v0.288c0,1.847-0.6,2.734-1.487,2.734C83.82,352.697,83.22,351.809,83.22,349.962z
		 M85.203,349.962v-0.288c0-1.439-0.2-1.839-0.496-1.839s-0.495,0.399-0.495,1.839v0.288c0,1.439,0.199,1.839,0.495,1.839
		S85.203,351.401,85.203,349.962z M62.34,355.02h0.912c1.248,0,1.959,0.903,1.959,2.702v0.192c0,1.799-0.711,2.703-1.959,2.703
		H62.34V355.02z M63.355,359.721c0.464,0,0.864-0.408,0.864-1.807v-0.192c0-1.399-0.4-1.807-0.864-1.807h-0.04v3.806H63.355z
		 M65.692,355.02h2.143v0.927h-1.167v1.391h1.031v0.928h-1.031v1.423h1.191v0.928h-2.167V355.02z M68.156,357.914v-0.192
		c0-1.967,0.728-2.742,1.639-2.742c0.272,0,0.432,0.032,0.64,0.128v1.007c-0.2-0.12-0.36-0.184-0.543-0.184
		c-0.432,0-0.744,0.384-0.744,1.783v0.208c0,1.479,0.312,1.783,0.759,1.783c0.152,0,0.344-0.056,0.544-0.176v0.959
		c-0.224,0.128-0.44,0.168-0.72,0.168C68.835,360.657,68.156,359.865,68.156,357.914z M70.94,355.02h0.976v2.342l0.792-2.342h1.103
		l-0.943,2.366l0.959,3.23h-1.087l-0.607-2.119l-0.216,0.616v1.503H70.94V355.02z M75.436,355.02h0.847
		c0.944,0,1.823,0.384,1.823,1.423v0.04c0,0.72-0.407,1.071-0.807,1.263c0.472,0.208,0.879,0.536,0.879,1.248v0.072
		c0,0.992-0.768,1.551-1.855,1.551h-0.887V355.02z M76.427,357.371c0.432,0,0.72-0.248,0.72-0.736v-0.016
		c0-0.487-0.288-0.695-0.72-0.695h-0.016v1.447H76.427z M76.435,359.713c0.448,0,0.768-0.264,0.768-0.728v-0.04
		c0-0.464-0.319-0.728-0.768-0.728h-0.024v1.495H76.435z M78.587,355.02h2.144v0.927h-1.168v1.391h1.031v0.928h-1.031v1.423h1.191
		v0.928h-2.167V355.02z M81.228,355.02h0.976v4.669h1.031v0.928h-2.007V355.02z M83.332,357.962v-0.288
		c0-1.847,0.6-2.734,1.487-2.734s1.487,0.887,1.487,2.734v0.288c0,1.847-0.6,2.734-1.487,2.734S83.332,359.809,83.332,357.962z
		 M85.315,357.962v-0.288c0-1.439-0.2-1.839-0.496-1.839s-0.496,0.399-0.496,1.839v0.288c0,1.439,0.2,1.839,0.496,1.839
		S85.315,359.401,85.315,357.962z M86.444,355.02h0.999l0.408,3.43l0.487-3.43h0.904l0.479,3.43l0.416-3.43h0.976l-0.848,5.613
		h-1.023l-0.464-3.318l-0.464,3.318h-1.023L86.444,355.02z"/>
	<path class="st2" d="M54.529,93.612v-1.016c0.344,0.2,0.616,0.312,0.879,0.312c0.28,0,0.52-0.136,0.52-0.48v-0.016
		c0-0.256-0.08-0.448-0.544-0.976c-0.664-0.751-0.936-1.111-0.936-1.791V89.63c0-0.896,0.584-1.463,1.359-1.463
		c0.392,0,0.624,0.056,0.864,0.176v1.015c-0.304-0.176-0.488-0.256-0.744-0.256c-0.272,0-0.504,0.176-0.504,0.48v0.016
		c0,0.264,0.08,0.36,0.544,0.896c0.768,0.887,0.936,1.231,0.936,1.871v0.016c0,0.88-0.616,1.463-1.383,1.463
		C55.137,93.844,54.809,93.748,54.529,93.612z M57.249,88.207h0.871c1.063,0,1.807,0.576,1.807,1.887v0.016
		c0,1.263-0.704,1.863-1.695,1.935h-0.008v1.759h-0.975V88.207z M58.233,91.141c0.408-0.024,0.719-0.32,0.719-1v-0.016
		c0-0.711-0.271-1.015-0.695-1.015h-0.032v2.031H58.233z M60.345,88.207h0.976v5.597h-0.976V88.207z M61.913,88.207h0.912
		l0.983,2.831v-2.831h0.952v5.597h-0.864l-1.031-2.966v2.966h-0.952V88.207z M65.337,88.207h0.911l0.983,2.831v-2.831h0.952v5.597
		H67.32l-1.032-2.966v2.966h-0.951V88.207z M69.545,88.191h1.039l1.063,5.613h-0.976l-0.184-1.111h-0.888l-0.176,1.111h-0.943
		L69.545,88.191z M70.344,91.813l-0.296-1.847l-0.304,1.847H70.344z M71.945,88.207h0.975v2.343l0.792-2.343h1.104l-0.943,2.367
		l0.959,3.23h-1.087l-0.608-2.119L72.92,92.3v1.503h-0.975V88.207z M75.169,88.207h2.143v0.928h-1.167v1.391h1.031v0.928h-1.031
		v1.423h1.191v0.927h-2.167V88.207z M77.809,88.207h1.008c0.999,0,1.727,0.528,1.727,1.783v0.072c0,0.728-0.288,1.191-0.655,1.471
		l0.751,2.271H79.6l-0.632-1.951h-0.184v1.951h-0.976V88.207z M78.833,90.973c0.424,0,0.735-0.248,0.735-0.903v-0.064
		c0-0.704-0.336-0.888-0.76-0.888h-0.023v1.855H78.833z M82.265,88.207h0.976v4.67h1.031v0.927h-2.007V88.207z M84.369,91.149
		v-0.288c0-1.847,0.6-2.734,1.487-2.734s1.487,0.887,1.487,2.734v0.288c0,1.847-0.6,2.735-1.487,2.735S84.369,92.996,84.369,91.149z
		 M86.352,91.149v-0.288c0-1.439-0.2-1.839-0.496-1.839s-0.495,0.4-0.495,1.839v0.288c0,1.439,0.199,1.839,0.495,1.839
		S86.352,92.588,86.352,91.149z M87.809,92.172v-3.966h0.967v4.062c0,0.504,0.177,0.704,0.424,0.704c0.248,0,0.424-0.2,0.424-0.704
		v-4.062h0.968v3.966c0,1.176-0.592,1.703-1.392,1.703C88.401,93.875,87.809,93.348,87.809,92.172z M91.153,88.207h0.911
		l0.983,2.831v-2.831h0.952v5.597h-0.864l-1.031-2.966v2.966h-0.951V88.207z M94.481,91.101v-0.192c0-1.807,0.768-2.742,1.871-2.742
		c0.296,0,0.543,0.064,0.743,0.16v1.016c-0.24-0.144-0.456-0.24-0.712-0.24c-0.56,0-0.911,0.56-0.911,1.767v0.272
		c0,1.463,0.432,1.799,0.832,1.799c0.031,0,0.039,0,0.088-0.008v-1.431h-0.48v-0.872h1.367v2.975c-0.352,0.152-0.64,0.24-1.015,0.24
		C95.289,93.844,94.481,93.052,94.481,91.101z M97.817,88.207h2.143v0.928h-1.167v1.391h1.031v0.928h-1.031v1.423h1.191v0.927
		h-2.167V88.207z"/>
	<path class="st2" d="M52.917,264.959h0.847c0.944,0,1.823,0.384,1.823,1.423v0.04c0,0.72-0.408,1.071-0.808,1.263
		c0.472,0.208,0.879,0.536,0.879,1.248v0.072c0,0.992-0.768,1.551-1.855,1.551h-0.887V264.959z M53.909,267.31
		c0.432,0,0.72-0.248,0.72-0.736v-0.016c0-0.487-0.288-0.695-0.72-0.695h-0.016v1.447H53.909z M53.917,269.653
		c0.448,0,0.768-0.264,0.768-0.728v-0.04c0-0.464-0.32-0.728-0.768-0.728h-0.024v1.495H53.917z M56.813,264.943h1.04l1.063,5.613
		H57.94l-0.184-1.111h-0.887l-0.176,1.111h-0.943L56.813,264.943z M57.612,268.565l-0.295-1.847l-0.304,1.847H57.612z
		 M59.213,264.959h0.976v4.669h1.031v0.928h-2.007V264.959z M61.629,264.959h0.975v5.597h-0.975V264.959z M64.469,264.959h0.976
		v2.318h0.847v-2.318h0.976v5.597h-0.976v-2.351h-0.847v2.351h-0.976V264.959z M68.629,264.943h1.039l1.063,5.613h-0.975
		l-0.184-1.111h-0.888l-0.176,1.111h-0.943L68.629,264.943z M69.428,268.565l-0.296-1.847l-0.304,1.847H69.428z M71.045,264.959
		h0.976v5.597h-0.976V264.959z M73.885,264.959h0.847c0.944,0,1.823,0.384,1.823,1.423v0.04c0,0.72-0.408,1.071-0.808,1.263
		c0.472,0.208,0.879,0.536,0.879,1.248v0.072c0,0.992-0.768,1.551-1.855,1.551h-0.887V264.959z M74.876,267.31
		c0.432,0,0.72-0.248,0.72-0.736v-0.016c0-0.487-0.288-0.695-0.72-0.695H74.86v1.447H74.876z M74.885,269.653
		c0.448,0,0.768-0.264,0.768-0.728v-0.04c0-0.464-0.32-0.728-0.768-0.728H74.86v1.495H74.885z M77.781,264.943h1.039l1.063,5.613
		h-0.976l-0.184-1.111h-0.888l-0.176,1.111h-0.943L77.781,264.943z M78.581,268.565l-0.296-1.847l-0.304,1.847H78.581z
		 M80.181,264.959h1.008c0.999,0,1.727,0.527,1.727,1.783v0.072c0,0.728-0.288,1.191-0.655,1.472l0.751,2.271h-1.039l-0.632-1.951
		h-0.184v1.951h-0.976V264.959z M81.205,267.726c0.424,0,0.735-0.248,0.735-0.903v-0.064c0-0.704-0.336-0.888-0.76-0.888h-0.023
		v1.855H81.205z M84.454,269.125v-0.048c0-0.68,0.319-1.184,0.855-1.647c-0.312-0.503-0.472-0.879-0.472-1.271v-0.056
		c0-0.671,0.463-1.223,1.159-1.223c0.68,0,1.127,0.496,1.127,1.215v0.056c0,0.64-0.304,1.087-0.791,1.503l0.503,0.959
		c0.04-0.176,0.072-0.416,0.12-0.751l0.752,0.136c-0.072,0.632-0.2,1.08-0.36,1.439l0.464,0.792l-0.703,0.432l-0.272-0.496
		c-0.264,0.296-0.552,0.472-1.039,0.472C85.077,270.636,84.454,270.037,84.454,269.125z M86.42,269.525l-0.704-1.392
		c-0.208,0.256-0.328,0.592-0.328,0.872v0.064c0,0.432,0.208,0.72,0.528,0.72C86.124,269.789,86.284,269.693,86.42,269.525z
		 M85.949,266.998c0.247-0.24,0.344-0.528,0.344-0.824v-0.063c0-0.272-0.128-0.448-0.312-0.448c-0.191,0-0.312,0.176-0.312,0.416
		v0.08C85.668,266.382,85.756,266.63,85.949,266.998z M89.285,267.853v-0.192c0-1.807,0.768-2.742,1.871-2.742
		c0.296,0,0.544,0.064,0.744,0.16v1.016c-0.24-0.144-0.456-0.24-0.712-0.24c-0.56,0-0.911,0.56-0.911,1.767v0.272
		c0,1.463,0.432,1.799,0.831,1.799c0.032,0,0.04,0,0.088-0.008v-1.431h-0.479v-0.872h1.367v2.975c-0.352,0.152-0.64,0.24-1.016,0.24
		C90.092,270.596,89.285,269.805,89.285,267.853z M92.621,264.959h1.008c0.999,0,1.727,0.527,1.727,1.783v0.072
		c0,0.728-0.287,1.191-0.655,1.472l0.752,2.271h-1.04l-0.631-1.951h-0.185v1.951h-0.976V264.959z M93.644,267.726
		c0.424,0,0.736-0.248,0.736-0.903v-0.064c0-0.704-0.336-0.888-0.76-0.888h-0.024v1.855H93.644z M95.821,264.959h0.976v5.597h-0.976
		V264.959z M97.389,264.959h0.976v4.669h1.031v0.928h-2.007V264.959z M99.789,264.959h0.976v4.669h1.031v0.928h-2.007V264.959z"/>
	<path class="st2" d="M80.721,205.15h1.008c0.999,0,1.727,0.527,1.727,1.783v0.072c0,0.728-0.287,1.191-0.655,1.472l0.752,2.271
		h-1.04l-0.631-1.951h-0.185v1.951h-0.976V205.15z M81.745,207.916c0.424,0,0.736-0.248,0.736-0.903v-0.064
		c0-0.704-0.336-0.888-0.76-0.888h-0.024v1.855H81.745z M83.906,205.15h1.007c1,0,1.728,0.527,1.728,1.783v0.072
		c0,0.728-0.288,1.191-0.655,1.472l0.751,2.271h-1.039l-0.632-1.951h-0.184v1.951h-0.976V205.15z M84.929,207.916
		c0.424,0,0.735-0.248,0.735-0.903v-0.064c0-0.704-0.336-0.888-0.76-0.888h-0.023v1.855H84.929z"/>
	<path class="st2" d="M47.449,205.15h1.007c1,0,1.727,0.527,1.727,1.783v0.072c0,0.728-0.288,1.191-0.656,1.472l0.751,2.271H49.24
		l-0.632-1.951h-0.184v1.951h-0.976V205.15z M48.472,207.916c0.424,0,0.735-0.248,0.735-0.903v-0.064
		c0-0.704-0.336-0.888-0.759-0.888h-0.024v1.855H48.472z M50.632,205.15h1.008c1,0,1.727,0.527,1.727,1.783v0.072
		c0,0.728-0.288,1.191-0.656,1.472l0.751,2.271h-1.04l-0.631-1.951h-0.184v1.951h-0.976V205.15z M51.656,207.916
		c0.424,0,0.736-0.248,0.736-0.903v-0.064c0-0.704-0.336-0.888-0.76-0.888h-0.024v1.855H51.656z"/>
	<path class="st2" d="M43.016,195.336h1.007c1,0,1.727,0.527,1.727,1.783v0.072c0,0.728-0.288,1.191-0.656,1.472l0.752,2.271h-1.04
		l-0.632-1.951h-0.184v1.951h-0.975V195.336z M44.039,198.103c0.424,0,0.735-0.248,0.735-0.903v-0.064
		c0-0.704-0.335-0.888-0.759-0.888h-0.024v1.855H44.039z M46.2,195.336h1.007c1,0,1.727,0.527,1.727,1.783v0.072
		c0,0.728-0.288,1.191-0.656,1.472l0.751,2.271h-1.039l-0.632-1.951h-0.184v1.951H46.2V195.336z M47.223,198.103
		c0.423,0,0.735-0.248,0.735-0.903v-0.064c0-0.704-0.336-0.888-0.76-0.888h-0.024v1.855H47.223z"/>
	<path class="st2" d="M60.064,552.125h1.007c1,0,1.727,0.527,1.727,1.783v0.071c0,0.728-0.288,1.191-0.656,1.472l0.752,2.271h-1.04
		l-0.632-1.951H61.04v1.951h-0.975V552.125z M61.088,554.892c0.424,0,0.735-0.248,0.735-0.904v-0.063
		c0-0.704-0.335-0.888-0.759-0.888H61.04v1.855H61.088z M63.249,552.125h1.007c1,0,1.727,0.527,1.727,1.783v0.071
		c0,0.728-0.288,1.191-0.656,1.472l0.751,2.271H65.04l-0.632-1.951h-0.184v1.951h-0.975V552.125z M64.272,554.892
		c0.423,0,0.735-0.248,0.735-0.904v-0.063c0-0.704-0.336-0.888-0.76-0.888h-0.024v1.855H64.272z"/>
	<path class="st2" d="M87.354,555.798h1.008c0.999,0,1.727,0.527,1.727,1.783v0.071c0,0.728-0.287,1.191-0.655,1.472l0.752,2.271
		h-1.04l-0.631-1.951H88.33v1.951h-0.976V555.798z M88.377,558.565c0.424,0,0.736-0.248,0.736-0.904v-0.063
		c0-0.704-0.336-0.888-0.76-0.888H88.33v1.855H88.377z M90.539,555.798h1.007c1,0,1.728,0.527,1.728,1.783v0.071
		c0,0.728-0.288,1.191-0.655,1.472l0.751,2.271H92.33l-0.632-1.951h-0.184v1.951h-0.976V555.798z M91.562,558.565
		c0.424,0,0.735-0.248,0.735-0.904v-0.063c0-0.704-0.336-0.888-0.76-0.888h-0.023v1.855H91.562z"/>
	<path class="st2" d="M101.283,547.625h1.008c0.999,0,1.728,0.527,1.728,1.783v0.071c0,0.728-0.288,1.191-0.656,1.472l0.752,2.271
		h-1.04l-0.631-1.951h-0.185v1.951h-0.976V547.625z M102.306,550.392c0.424,0,0.736-0.248,0.736-0.904v-0.063
		c0-0.704-0.336-0.888-0.76-0.888h-0.024v1.855H102.306z M104.467,547.625h1.007c1,0,1.728,0.527,1.728,1.783v0.071
		c0,0.728-0.288,1.191-0.656,1.472l0.752,2.271h-1.039l-0.632-1.951h-0.184v1.951h-0.976V547.625z M105.491,550.392
		c0.424,0,0.735-0.248,0.735-0.904v-0.063c0-0.704-0.336-0.888-0.76-0.888h-0.023v1.855H105.491z"/>
	<path class="st2" d="M62.021,44.241h0.912c1.248,0,1.959,0.903,1.959,2.702v0.192c0,1.799-0.711,2.703-1.959,2.703h-0.912V44.241z
		 M63.037,48.942c0.464,0,0.863-0.408,0.863-1.807v-0.192c0-1.399-0.399-1.807-0.863-1.807h-0.04v3.806H63.037z M66.077,44.225h1.04
		l1.063,5.613h-0.976l-0.184-1.111h-0.887l-0.176,1.111h-0.943L66.077,44.225z M66.876,47.847l-0.296-1.847l-0.304,1.847H66.876z
		 M68.477,44.241h0.912l0.983,2.83v-2.83h0.952v5.597H70.46l-1.031-2.966v2.966h-0.952V44.241z M71.805,47.135v-0.192
		c0-1.967,0.728-2.742,1.639-2.742c0.271,0,0.432,0.032,0.64,0.128v1.007c-0.2-0.12-0.36-0.184-0.544-0.184
		c-0.432,0-0.744,0.384-0.744,1.783v0.208c0,1.479,0.312,1.783,0.76,1.783c0.152,0,0.344-0.056,0.543-0.176v0.959
		c-0.224,0.128-0.439,0.168-0.719,0.168C72.485,49.877,71.805,49.086,71.805,47.135z M74.589,44.241h2.143v0.927h-1.167v1.391h1.031
		v0.928h-1.031v1.423h1.191v0.928h-2.167V44.241z M78.5,44.241h2.039v0.927h-1.063v1.407h0.928v0.927h-0.928v2.335H78.5V44.241z
		 M80.981,44.241h0.976v4.669h1.031v0.928h-2.007V44.241z M83.084,47.183v-0.288c0-1.847,0.6-2.734,1.487-2.734
		s1.487,0.887,1.487,2.734v0.288c0,1.847-0.6,2.734-1.487,2.734S83.084,49.03,83.084,47.183z M85.068,47.183v-0.288
		c0-1.439-0.2-1.839-0.496-1.839s-0.495,0.399-0.495,1.839v0.288c0,1.439,0.199,1.839,0.495,1.839S85.068,48.622,85.068,47.183z
		 M86.445,47.183v-0.288c0-1.847,0.6-2.734,1.487-2.734s1.487,0.887,1.487,2.734v0.288c0,1.847-0.6,2.734-1.487,2.734
		S86.445,49.03,86.445,47.183z M88.428,47.183v-0.288c0-1.439-0.2-1.839-0.496-1.839s-0.496,0.399-0.496,1.839v0.288
		c0,1.439,0.2,1.839,0.496,1.839S88.428,48.622,88.428,47.183z M89.901,44.241h1.008c0.999,0,1.727,0.527,1.727,1.783v0.072
		c0,0.728-0.288,1.191-0.655,1.472l0.751,2.271h-1.039l-0.632-1.951h-0.184v1.951h-0.976V44.241z M90.924,47.007
		c0.424,0,0.735-0.248,0.735-0.903V46.04c0-0.704-0.336-0.888-0.76-0.888h-0.023v1.855H90.924z"/>
	<path class="st2" d="M14.236,176.466v-0.192c0-1.967,0.728-2.742,1.639-2.742c0.272,0,0.432,0.032,0.64,0.128v1.007
		c-0.2-0.12-0.36-0.184-0.543-0.184c-0.432,0-0.744,0.384-0.744,1.783v0.208c0,1.479,0.312,1.783,0.76,1.783
		c0.152,0,0.344-0.056,0.543-0.176v0.959c-0.224,0.128-0.44,0.168-0.72,0.168C14.916,179.208,14.236,178.417,14.236,176.466z
		 M17.02,173.572h0.976v2.318h0.847v-2.318h0.976v5.597h-0.976v-2.351h-0.847v2.351H17.02V173.572z M21.18,173.556h1.039
		l1.063,5.613h-0.975l-0.184-1.111h-0.888l-0.176,1.111h-0.943L21.18,173.556z M21.979,177.178l-0.296-1.847l-0.304,1.847H21.979z
		 M23.581,173.572h0.872c1.063,0,1.807,0.575,1.807,1.887v0.016c0,1.263-0.704,1.863-1.695,1.935h-0.008v1.759h-0.975V173.572z
		 M24.564,176.506c0.408-0.024,0.72-0.32,0.72-1v-0.016c0-0.712-0.272-1.016-0.696-1.016h-0.032v2.031H24.564z M26.66,173.572h2.143
		v0.927h-1.167v1.391h1.032v0.928h-1.032v1.423h1.191v0.928H26.66V173.572z M29.3,173.572h0.976v4.669h1.031v0.928H29.3V173.572z"/>
	<path class="st2" d="M27.446,665.818h-0.192c-1.967,0-2.742-0.728-2.742-1.639c0-0.272,0.032-0.432,0.128-0.64h1.007
		c-0.12,0.199-0.184,0.359-0.184,0.544c0,0.432,0.384,0.743,1.783,0.743h0.208c1.479,0,1.783-0.312,1.783-0.76
		c0-0.151-0.056-0.344-0.176-0.544h0.959c0.128,0.225,0.168,0.44,0.168,0.72C30.189,665.138,29.397,665.818,27.446,665.818z
		 M24.552,663.034v-0.975h2.318v-0.848h-2.318v-0.976h5.597v0.976h-2.351v0.848h2.351v0.975H24.552z M24.552,659.658v-2.143h0.927
		v1.168h1.391v-1.032h0.928v1.032h1.423v-1.191h0.928v2.166H24.552z M29.957,657.138h-1.016c0.2-0.344,0.312-0.615,0.312-0.88
		c0-0.279-0.136-0.52-0.479-0.52h-0.016c-0.256,0-0.448,0.08-0.976,0.544c-0.751,0.664-1.111,0.936-1.791,0.936h-0.016
		c-0.896,0-1.463-0.584-1.463-1.359c0-0.392,0.056-0.624,0.176-0.863h1.016c-0.176,0.304-0.256,0.487-0.256,0.743
		c0,0.272,0.176,0.504,0.479,0.504h0.016c0.264,0,0.36-0.08,0.896-0.544c0.887-0.768,1.231-0.936,1.871-0.936h0.016
		c0.879,0,1.463,0.616,1.463,1.384C30.189,656.531,30.093,656.858,29.957,657.138z M29.957,654.539h-1.016
		c0.2-0.344,0.312-0.616,0.312-0.88c0-0.28-0.136-0.52-0.479-0.52h-0.016c-0.256,0-0.448,0.08-0.976,0.544
		c-0.751,0.663-1.111,0.936-1.791,0.936h-0.016c-0.896,0-1.463-0.584-1.463-1.359c0-0.393,0.056-0.624,0.176-0.864h1.016
		c-0.176,0.305-0.256,0.488-0.256,0.744c0,0.271,0.176,0.504,0.479,0.504h0.016c0.264,0,0.36-0.08,0.896-0.544
		c0.887-0.768,1.231-0.936,1.871-0.936h0.016c0.879,0,1.463,0.615,1.463,1.383C30.189,653.93,30.093,654.258,29.957,654.539z"/>
	<path class="st2" d="M29.957,731.19h-1.016c0.2-0.344,0.312-0.616,0.312-0.88c0-0.279-0.136-0.52-0.479-0.52h-0.016
		c-0.256,0-0.448,0.08-0.976,0.544c-0.751,0.663-1.111,0.936-1.791,0.936h-0.016c-0.896,0-1.463-0.584-1.463-1.359
		c0-0.392,0.056-0.624,0.176-0.863h1.016c-0.176,0.304-0.256,0.487-0.256,0.743c0,0.271,0.176,0.504,0.479,0.504h0.016
		c0.264,0,0.36-0.08,0.896-0.544c0.887-0.768,1.231-0.936,1.871-0.936h0.016c0.879,0,1.463,0.616,1.463,1.384
		C30.189,730.583,30.093,730.91,29.957,731.19z M24.552,728.47v-0.976h2.318v-0.848h-2.318v-0.976h5.597v0.976h-2.351v0.848h2.351
		v0.976H24.552z M28.518,725.11h-3.966v-0.968h4.062c0.504,0,0.704-0.176,0.704-0.424c0-0.247-0.2-0.424-0.704-0.424h-4.062v-0.967
		h3.966c1.175,0,1.703,0.592,1.703,1.391C30.221,724.518,29.693,725.11,28.518,725.11z M24.552,721.766v-2.039h0.927v1.063h1.407
		v-0.928h0.927v0.928h2.335v0.976H24.552z M24.552,719.286v-2.038h0.927v1.063h1.407v-0.928h0.927v0.928h2.335v0.975H24.552z
		 M24.552,716.806v-0.976h4.669v-1.031h0.928v2.007H24.552z M24.552,714.406v-2.143h0.927v1.168h1.391v-1.032h0.928v1.032h1.423
		v-1.191h0.928v2.166H24.552z M24.552,711.766v-0.848c0-0.943,0.384-1.822,1.423-1.822h0.04c0.72,0,1.071,0.407,1.263,0.807
		c0.208-0.472,0.536-0.879,1.248-0.879h0.072c0.992,0,1.551,0.768,1.551,1.854v0.888H24.552z M26.903,710.775
		c0-0.432-0.248-0.72-0.736-0.72h-0.016c-0.487,0-0.695,0.288-0.695,0.72v0.016h1.447V710.775z M29.246,710.767
		c0-0.448-0.264-0.768-0.728-0.768h-0.04c-0.464,0-0.728,0.319-0.728,0.768v0.023h1.495V710.767z M27.495,708.71h-0.288
		c-1.847,0-2.734-0.6-2.734-1.487s0.887-1.487,2.734-1.487h0.288c1.847,0,2.734,0.6,2.734,1.487S29.341,708.71,27.495,708.71z
		 M27.495,706.727h-0.288c-1.439,0-1.839,0.2-1.839,0.496s0.399,0.496,1.839,0.496h0.288c1.439,0,1.839-0.2,1.839-0.496
		S28.934,706.727,27.495,706.727z M24.536,704.55v-1.039l5.613-1.063v0.976l-1.111,0.184v0.888l1.111,0.176v0.943L24.536,704.55z
		 M28.158,703.751l-1.847,0.296l1.847,0.304V703.751z M24.552,702.15v-1.007c0-1,0.527-1.728,1.783-1.728h0.072
		c0.728,0,1.191,0.288,1.472,0.656l2.271-0.752v1.039l-1.951,0.632v0.185h1.951v0.975H24.552z M27.318,701.126
		c0-0.424-0.248-0.735-0.903-0.735h-0.064c-0.704,0-0.888,0.336-0.888,0.76v0.024h1.855V701.126z M24.552,698.966v-0.911
		c0-1.248,0.903-1.959,2.702-1.959h0.192c1.799,0,2.703,0.711,2.703,1.959v0.911H24.552z M29.253,697.951
		c0-0.464-0.408-0.863-1.807-0.863h-0.192c-1.399,0-1.807,0.399-1.807,0.863v0.04h3.806V697.951z M27.446,694.438h-0.192
		c-1.967,0-2.742-0.728-2.742-1.639c0-0.271,0.032-0.432,0.128-0.64h1.007c-0.12,0.2-0.184,0.359-0.184,0.544
		c0,0.432,0.384,0.743,1.783,0.743h0.208c1.479,0,1.783-0.312,1.783-0.76c0-0.151-0.056-0.344-0.176-0.543h0.959
		c0.128,0.224,0.168,0.439,0.168,0.719C30.189,693.758,29.397,694.438,27.446,694.438z M27.495,691.951h-0.288
		c-1.847,0-2.734-0.6-2.734-1.487s0.887-1.487,2.734-1.487h0.288c1.847,0,2.734,0.6,2.734,1.487S29.341,691.951,27.495,691.951z
		 M27.495,689.967h-0.288c-1.439,0-1.839,0.2-1.839,0.496s0.399,0.495,1.839,0.495h0.288c1.439,0,1.839-0.199,1.839-0.495
		S28.934,689.967,27.495,689.967z M28.518,688.51h-3.966v-0.968h4.062c0.504,0,0.704-0.176,0.704-0.423
		c0-0.248-0.2-0.424-0.704-0.424h-4.062v-0.968h3.966c1.175,0,1.703,0.592,1.703,1.392C30.221,687.918,29.693,688.51,28.518,688.51z
		 M24.552,685.167v-1.008c0-0.999,0.527-1.727,1.783-1.727h0.072c0.728,0,1.191,0.288,1.472,0.655l2.271-0.751v1.039l-1.951,0.632
		v0.184h1.951v0.976H24.552z M27.318,684.143c0-0.424-0.248-0.735-0.903-0.735h-0.064c-0.704,0-0.888,0.336-0.888,0.76v0.023h1.855
		V684.143z M25.479,681.542v0.688h-0.927v-2.351h0.927v0.688h4.669v0.976H25.479z"/>
	<path class="st2" d="M17.218,590.333h-0.967c0.056-0.152,0.096-0.304,0.096-0.464c0-0.312-0.168-0.504-0.576-0.504h-4.118v-0.991
		h4.189c0.991,0,1.455,0.52,1.455,1.344C17.298,589.965,17.258,590.158,17.218,590.333z M14.596,587.91h-0.288
		c-1.847,0-2.734-0.6-2.734-1.487s0.887-1.487,2.734-1.487h0.288c1.847,0,2.734,0.6,2.734,1.487S16.443,587.91,14.596,587.91z
		 M14.596,585.926h-0.288c-1.439,0-1.839,0.2-1.839,0.496s0.399,0.496,1.839,0.496h0.288c1.439,0,1.839-0.2,1.839-0.496
		S16.035,585.926,14.596,585.926z M14.548,584.549h-0.192c-1.807,0-2.742-0.768-2.742-1.871c0-0.296,0.064-0.543,0.16-0.743h1.016
		c-0.144,0.24-0.24,0.456-0.24,0.712c0,0.56,0.56,0.911,1.767,0.911h0.272c1.463,0,1.799-0.432,1.799-0.831
		c0-0.032,0-0.04-0.008-0.089h-1.431v0.48h-0.872v-1.367h2.975c0.152,0.352,0.24,0.64,0.24,1.015
		C17.291,583.742,16.499,584.549,14.548,584.549z M14.548,581.309h-0.192c-1.807,0-2.742-0.768-2.742-1.87
		c0-0.296,0.064-0.544,0.16-0.744h1.016c-0.144,0.24-0.24,0.456-0.24,0.712c0,0.56,0.56,0.911,1.767,0.911h0.272
		c1.463,0,1.799-0.432,1.799-0.831c0-0.032,0-0.04-0.008-0.088h-1.431v0.479h-0.872v-1.367h2.975c0.152,0.352,0.24,0.64,0.24,1.016
		C17.291,580.502,16.499,581.309,14.548,581.309z M11.654,577.958v-0.976h5.597v0.976H11.654z M11.654,576.389v-0.911l2.83-0.983
		h-2.83v-0.951h5.597v0.863l-2.966,1.031h2.966v0.951H11.654z M14.548,573.062h-0.192c-1.807,0-2.742-0.768-2.742-1.871
		c0-0.296,0.064-0.544,0.16-0.744h1.016c-0.144,0.24-0.24,0.456-0.24,0.712c0,0.56,0.56,0.911,1.767,0.911h0.272
		c1.463,0,1.799-0.432,1.799-0.831c0-0.032,0-0.04-0.008-0.088h-1.431v0.479h-0.872v-1.367h2.975c0.152,0.352,0.24,0.64,0.24,1.016
		C17.291,572.254,16.499,573.062,14.548,573.062z M12.581,567.934v0.688h-0.927v-2.351h0.927v0.688h4.669v0.976H12.581z
		 M11.654,565.862v-1.008c0-0.999,0.527-1.727,1.783-1.727h0.072c0.728,0,1.191,0.288,1.472,0.655l2.271-0.751v1.039l-1.951,0.632
		v0.184h1.951v0.976H11.654z M14.42,564.838c0-0.424-0.248-0.735-0.903-0.735h-0.064c-0.704,0-0.888,0.336-0.888,0.76v0.023h1.855
		V564.838z M11.638,561.894v-1.039l5.613-1.063v0.976l-1.111,0.184v0.888l1.111,0.176v0.943L11.638,561.894z M15.26,561.094
		l-1.847,0.296l1.847,0.305V561.094z M14.548,559.669h-0.192c-1.967,0-2.742-0.728-2.742-1.639c0-0.271,0.032-0.432,0.128-0.64
		h1.007c-0.12,0.2-0.184,0.359-0.184,0.544c0,0.432,0.384,0.743,1.783,0.743h0.208c1.479,0,1.783-0.312,1.783-0.76
		c0-0.151-0.056-0.344-0.176-0.543h0.959c0.128,0.224,0.168,0.439,0.168,0.719C17.291,558.99,16.499,559.669,14.548,559.669z
		 M11.654,556.886v-0.976h2.342l-2.342-0.792v-1.104l2.366,0.943L17.25,554v1.087l-2.119,0.608l0.616,0.216h1.503v0.976H11.654z"/>
	<path class="st2" d="M137.584,853.438h-1.016c0.199-0.344,0.312-0.616,0.312-0.88c0-0.28-0.136-0.52-0.479-0.52h-0.017
		c-0.256,0-0.447,0.08-0.976,0.544c-0.751,0.663-1.111,0.936-1.791,0.936h-0.016c-0.896,0-1.463-0.584-1.463-1.359
		c0-0.393,0.056-0.624,0.176-0.864h1.016c-0.176,0.305-0.256,0.488-0.256,0.744c0,0.271,0.176,0.504,0.479,0.504h0.016
		c0.265,0,0.36-0.08,0.896-0.544c0.888-0.768,1.231-0.936,1.871-0.936h0.017c0.879,0,1.463,0.615,1.463,1.383
		C137.816,852.83,137.72,853.158,137.584,853.438z M132.179,850.717v-0.871c0-1.063,0.575-1.807,1.887-1.807h0.016
		c1.264,0,1.863,0.703,1.936,1.694v0.009h1.759v0.975H132.179z M135.114,849.734c-0.024-0.407-0.32-0.719-1-0.719h-0.016
		c-0.712,0-1.016,0.271-1.016,0.695v0.032h2.031V849.734z M135.122,847.734h-0.288c-1.847,0-2.734-0.6-2.734-1.487
		s0.888-1.487,2.734-1.487h0.288c1.847,0,2.734,0.6,2.734,1.487S136.968,847.734,135.122,847.734z M135.122,845.75h-0.288
		c-1.439,0-1.839,0.2-1.839,0.496s0.399,0.496,1.839,0.496h0.288c1.439,0,1.839-0.2,1.839-0.496S136.561,845.75,135.122,845.75z
		 M132.179,844.278v-1.008c0-0.999,0.527-1.727,1.783-1.727h0.071c0.728,0,1.191,0.288,1.472,0.655l2.271-0.751v1.039l-1.951,0.632
		v0.184h1.951v0.976H132.179z M134.946,843.254c0-0.424-0.248-0.735-0.904-0.735h-0.063c-0.704,0-0.888,0.336-0.888,0.76v0.023
		h1.855V843.254z M133.106,840.654v0.688h-0.927v-2.351h0.927v0.688h4.67v0.976H133.106z M137.584,838.702h-1.016
		c0.199-0.344,0.312-0.615,0.312-0.879c0-0.28-0.136-0.521-0.479-0.521h-0.017c-0.256,0-0.447,0.08-0.976,0.544
		c-0.751,0.664-1.111,0.936-1.791,0.936h-0.016c-0.896,0-1.463-0.584-1.463-1.359c0-0.392,0.056-0.623,0.176-0.863h1.016
		c-0.176,0.304-0.256,0.487-0.256,0.743c0,0.272,0.176,0.504,0.479,0.504h0.016c0.265,0,0.36-0.08,0.896-0.544
		c0.888-0.768,1.231-0.936,1.871-0.936h0.017c0.879,0,1.463,0.616,1.463,1.384C137.816,838.094,137.72,838.422,137.584,838.702z
		 M135.074,834.806h-0.192c-1.967,0-2.742-0.728-2.742-1.64c0-0.271,0.032-0.432,0.128-0.64h1.007
		c-0.119,0.2-0.184,0.36-0.184,0.544c0,0.432,0.384,0.743,1.783,0.743h0.208c1.479,0,1.783-0.312,1.783-0.759
		c0-0.152-0.057-0.344-0.177-0.544h0.96c0.128,0.224,0.168,0.439,0.168,0.72C137.816,834.126,137.024,834.806,135.074,834.806z
		 M135.122,832.318h-0.288c-1.847,0-2.734-0.6-2.734-1.487s0.888-1.487,2.734-1.487h0.288c1.847,0,2.734,0.6,2.734,1.487
		S136.968,832.318,135.122,832.318z M135.122,830.334h-0.288c-1.439,0-1.839,0.2-1.839,0.496s0.399,0.496,1.839,0.496h0.288
		c1.439,0,1.839-0.2,1.839-0.496S136.561,830.334,135.122,830.334z M136.145,828.877h-3.966v-0.967h4.062
		c0.504,0,0.703-0.176,0.703-0.424s-0.199-0.424-0.703-0.424h-4.062v-0.968h3.966c1.175,0,1.703,0.592,1.703,1.392
		S137.32,828.877,136.145,828.877z M132.179,825.534v-1.007c0-1,0.527-1.728,1.783-1.728h0.071c0.728,0,1.191,0.288,1.472,0.656
		l2.271-0.752v1.039l-1.951,0.632v0.184h1.951v0.976H132.179z M134.946,824.51c0-0.424-0.248-0.735-0.904-0.735h-0.063
		c-0.704,0-0.888,0.336-0.888,0.76v0.023h1.855V824.51z M133.106,821.911v0.688h-0.927v-2.351h0.927v0.688h4.67v0.976H133.106z"/>
	<path class="st2" d="M43.932,915.622h0.848c0.943,0,1.823,0.384,1.823,1.423v0.04c0,0.72-0.408,1.071-0.808,1.264
		c0.472,0.208,0.879,0.535,0.879,1.247v0.072c0,0.991-0.768,1.551-1.855,1.551h-0.888V915.622z M44.924,917.972
		c0.432,0,0.72-0.248,0.72-0.735v-0.017c0-0.487-0.288-0.695-0.72-0.695h-0.016v1.447H44.924z M44.932,920.315
		c0.448,0,0.768-0.264,0.768-0.728v-0.04c0-0.464-0.32-0.728-0.768-0.728h-0.024v1.495H44.932z M47.828,915.605h1.039l1.063,5.613
		h-0.975l-0.184-1.111h-0.888l-0.176,1.111h-0.943L47.828,915.605z M48.627,919.227l-0.296-1.847l-0.304,1.847H48.627z
		 M50.108,921.026v-1.015c0.344,0.199,0.616,0.312,0.879,0.312c0.28,0,0.52-0.136,0.52-0.479v-0.017c0-0.256-0.08-0.447-0.544-0.975
		c-0.664-0.752-0.936-1.112-0.936-1.791v-0.017c0-0.896,0.584-1.463,1.359-1.463c0.392,0,0.624,0.056,0.864,0.176v1.016
		c-0.304-0.176-0.488-0.256-0.744-0.256c-0.272,0-0.504,0.176-0.504,0.479v0.016c0,0.265,0.08,0.36,0.544,0.896
		c0.768,0.888,0.935,1.231,0.935,1.871v0.017c0,0.879-0.615,1.463-1.383,1.463C50.716,921.258,50.388,921.163,50.108,921.026z
		 M52.828,915.622h0.976v2.343l0.792-2.343h1.104l-0.943,2.366l0.959,3.23h-1.087l-0.608-2.119l-0.216,0.616v1.503h-0.976V915.622z
		 M56.052,915.622h2.143v0.928h-1.167v1.391h1.031v0.928h-1.031v1.423h1.191v0.928h-2.167V915.622z M59.212,916.549h-0.688v-0.928
		h2.351v0.928h-0.688v4.669h-0.976V916.549z M61.284,915.622h0.848c0.943,0,1.823,0.384,1.823,1.423v0.04
		c0,0.72-0.408,1.071-0.808,1.264c0.472,0.208,0.88,0.535,0.88,1.247v0.072c0,0.991-0.768,1.551-1.855,1.551h-0.888V915.622z
		 M62.275,917.972c0.432,0,0.72-0.248,0.72-0.735v-0.017c0-0.487-0.288-0.695-0.72-0.695H62.26v1.447H62.275z M62.284,920.315
		c0.448,0,0.768-0.264,0.768-0.728v-0.04c0-0.464-0.32-0.728-0.768-0.728H62.26v1.495H62.284z M65.18,915.605h1.04l1.063,5.613
		h-0.976l-0.184-1.111h-0.887l-0.176,1.111h-0.944L65.18,915.605z M65.979,919.227l-0.296-1.847l-0.304,1.847H65.979z
		 M67.58,915.622h0.976v4.669h1.031v0.928H67.58V915.622z M69.98,915.622h0.976v4.669h1.031v0.928H69.98V915.622z M73.771,915.078
		h0.792l-1.751,6.924H72.02L73.771,915.078z M75.364,916.549h-0.688v-0.928h2.351v0.928h-0.688v4.669h-0.976V916.549z
		 M77.436,915.622h2.143v0.928h-1.167v1.391h1.031v0.928h-1.031v1.423h1.191v0.928h-2.167V915.622z M80.076,915.622h0.911
		l0.984,2.83v-2.83h0.951v5.597h-0.863l-1.032-2.967v2.967h-0.951V915.622z M83.499,915.622h0.912l0.983,2.83v-2.83h0.951v5.597
		h-0.863l-1.031-2.967v2.967h-0.952V915.622z M86.94,915.622h0.976v5.597H86.94V915.622z M88.388,921.026v-1.015
		c0.344,0.199,0.615,0.312,0.879,0.312c0.28,0,0.52-0.136,0.52-0.479v-0.017c0-0.256-0.08-0.447-0.543-0.975
		c-0.664-0.752-0.936-1.112-0.936-1.791v-0.017c0-0.896,0.583-1.463,1.359-1.463c0.392,0,0.623,0.056,0.863,0.176v1.016
		c-0.304-0.176-0.488-0.256-0.744-0.256c-0.271,0-0.503,0.176-0.503,0.479v0.016c0,0.265,0.079,0.36,0.543,0.896
		c0.768,0.888,0.936,1.231,0.936,1.871v0.017c0,0.879-0.615,1.463-1.383,1.463C88.996,921.258,88.667,921.163,88.388,921.026z
		 M92.284,918.516v-0.192c0-1.967,0.728-2.742,1.639-2.742c0.272,0,0.433,0.032,0.64,0.128v1.007
		c-0.199-0.119-0.359-0.184-0.543-0.184c-0.432,0-0.744,0.384-0.744,1.783v0.208c0,1.479,0.312,1.783,0.76,1.783
		c0.152,0,0.344-0.057,0.544-0.176v0.959c-0.224,0.128-0.44,0.168-0.72,0.168C92.963,921.258,92.284,920.466,92.284,918.516z
		 M94.772,918.564v-0.288c0-1.847,0.6-2.734,1.487-2.734c0.887,0,1.486,0.888,1.486,2.734v0.288c0,1.847-0.6,2.734-1.486,2.734
		C95.372,921.298,94.772,920.411,94.772,918.564z M96.754,918.564v-0.288c0-1.439-0.199-1.839-0.495-1.839s-0.496,0.399-0.496,1.839
		v0.288c0,1.438,0.2,1.839,0.496,1.839S96.754,920.002,96.754,918.564z M98.211,919.587v-3.966h0.968v4.062
		c0,0.504,0.176,0.704,0.424,0.704s0.424-0.2,0.424-0.704v-4.062h0.967v3.966c0,1.175-0.591,1.703-1.391,1.703
		S98.211,920.762,98.211,919.587z M101.555,915.622h1.008c0.999,0,1.727,0.527,1.727,1.783v0.071c0,0.728-0.287,1.191-0.655,1.472
		l0.752,2.271h-1.04l-0.631-1.951h-0.185v1.951h-0.976V915.622z M102.579,918.388c0.424,0,0.736-0.248,0.736-0.904v-0.063
		c0-0.704-0.336-0.888-0.76-0.888h-0.024v1.855H102.579z M105.179,916.549h-0.688v-0.928h2.351v0.928h-0.688v4.669h-0.976V916.549z
		 M107.131,921.026v-1.015c0.344,0.199,0.616,0.312,0.88,0.312c0.279,0,0.52-0.136,0.52-0.479v-0.017
		c0-0.256-0.08-0.447-0.544-0.975c-0.663-0.752-0.936-1.112-0.936-1.791v-0.017c0-0.896,0.584-1.463,1.359-1.463
		c0.392,0,0.624,0.056,0.863,0.176v1.016c-0.304-0.176-0.487-0.256-0.743-0.256c-0.271,0-0.504,0.176-0.504,0.479v0.016
		c0,0.265,0.08,0.36,0.544,0.896c0.768,0.888,0.936,1.231,0.936,1.871v0.017c0,0.879-0.616,1.463-1.384,1.463
		C107.739,921.258,107.412,921.163,107.131,921.026z"/>
	<path class="st2" d="M126.119,665.818h-0.192c-1.967,0-2.742-0.728-2.742-1.639c0-0.272,0.032-0.432,0.128-0.64h1.007
		c-0.119,0.199-0.184,0.359-0.184,0.544c0,0.432,0.384,0.743,1.783,0.743h0.208c1.479,0,1.783-0.312,1.783-0.76
		c0-0.151-0.057-0.344-0.177-0.544h0.96c0.128,0.225,0.168,0.44,0.168,0.72C128.861,665.138,128.069,665.818,126.119,665.818z
		 M123.224,663.034v-0.975h2.318v-0.848h-2.318v-0.976h5.597v0.976h-2.351v0.848h2.351v0.975H123.224z M123.224,659.658v-2.143
		h0.927v1.168h1.392v-1.032h0.928v1.032h1.423v-1.191h0.928v2.166H123.224z M128.629,657.138h-1.016
		c0.199-0.344,0.312-0.615,0.312-0.88c0-0.279-0.136-0.52-0.479-0.52h-0.017c-0.256,0-0.447,0.08-0.976,0.544
		c-0.751,0.664-1.111,0.936-1.791,0.936h-0.016c-0.896,0-1.463-0.584-1.463-1.359c0-0.392,0.056-0.624,0.176-0.863h1.016
		c-0.176,0.304-0.256,0.487-0.256,0.743c0,0.272,0.176,0.504,0.479,0.504h0.016c0.265,0,0.36-0.08,0.896-0.544
		c0.888-0.768,1.231-0.936,1.871-0.936h0.017c0.879,0,1.463,0.616,1.463,1.384C128.861,656.531,128.765,656.858,128.629,657.138z
		 M128.629,654.539h-1.016c0.199-0.344,0.312-0.616,0.312-0.88c0-0.28-0.136-0.52-0.479-0.52h-0.017
		c-0.256,0-0.447,0.08-0.976,0.544c-0.751,0.663-1.111,0.936-1.791,0.936h-0.016c-0.896,0-1.463-0.584-1.463-1.359
		c0-0.393,0.056-0.624,0.176-0.864h1.016c-0.176,0.305-0.256,0.488-0.256,0.744c0,0.271,0.176,0.504,0.479,0.504h0.016
		c0.265,0,0.36-0.08,0.896-0.544c0.888-0.768,1.231-0.936,1.871-0.936h0.017c0.879,0,1.463,0.615,1.463,1.383
		C128.861,653.93,128.765,654.258,128.629,654.539z"/>
	<path class="st2" d="M50.833,606.519v-0.192c0-1.967,0.728-2.742,1.639-2.742c0.272,0,0.432,0.032,0.64,0.128v1.007
		c-0.2-0.119-0.36-0.184-0.544-0.184c-0.432,0-0.744,0.384-0.744,1.783v0.208c0,1.479,0.312,1.783,0.76,1.783
		c0.152,0,0.344-0.057,0.544-0.177v0.96c-0.224,0.128-0.44,0.168-0.72,0.168C51.513,609.261,50.833,608.469,50.833,606.519z
		 M54.401,603.608h1.04l1.063,5.613h-0.976l-0.184-1.111h-0.887l-0.176,1.111h-0.944L54.401,603.608z M55.201,607.23l-0.296-1.847
		l-0.304,1.847H55.201z M56.625,606.519v-0.192c0-1.807,0.768-2.742,1.871-2.742c0.296,0,0.543,0.063,0.744,0.16v1.015
		c-0.24-0.144-0.456-0.239-0.712-0.239c-0.56,0-0.912,0.56-0.912,1.767v0.272c0,1.463,0.432,1.799,0.832,1.799
		c0.032,0,0.04,0,0.088-0.008v-1.432h-0.48v-0.871h1.367v2.974c-0.352,0.152-0.64,0.24-1.015,0.24
		C57.433,609.261,56.625,608.469,56.625,606.519z M59.961,603.625h0.912l0.983,2.83v-2.83h0.951v5.597h-0.863l-1.031-2.967v2.967
		h-0.952V603.625z M63.385,603.625h2.143v0.927h-1.167v1.392h1.031v0.928h-1.031v1.423h1.191v0.928h-2.167V603.625z M66.777,607.014
		l-1.04-3.39h1.007l0.528,2.095l0.536-2.095h0.983l-1.039,3.39v2.207h-0.976V607.014z M68.993,605.639
		c0.592-0.128,0.711-0.552,0.672-0.903h-0.496v-1.111h1.104v0.911c0,0.848-0.408,1.392-1.199,1.495L68.993,605.639z M70.761,609.03
		v-1.016c0.344,0.199,0.616,0.312,0.879,0.312c0.28,0,0.52-0.136,0.52-0.479v-0.017c0-0.256-0.08-0.447-0.543-0.976
		c-0.664-0.751-0.936-1.111-0.936-1.791v-0.016c0-0.896,0.583-1.463,1.359-1.463c0.392,0,0.624,0.056,0.863,0.176v1.016
		c-0.304-0.176-0.488-0.256-0.744-0.256c-0.271,0-0.503,0.176-0.503,0.479v0.016c0,0.265,0.08,0.36,0.543,0.896
		c0.768,0.888,0.936,1.231,0.936,1.871v0.017c0,0.879-0.616,1.463-1.383,1.463C71.369,609.261,71.041,609.166,70.761,609.03z
		 M74.633,609.03v-1.016c0.344,0.199,0.615,0.312,0.879,0.312c0.28,0,0.52-0.136,0.52-0.479v-0.017c0-0.256-0.08-0.447-0.543-0.976
		c-0.664-0.751-0.936-1.111-0.936-1.791v-0.016c0-0.896,0.583-1.463,1.359-1.463c0.392,0,0.624,0.056,0.863,0.176v1.016
		c-0.304-0.176-0.488-0.256-0.744-0.256c-0.272,0-0.503,0.176-0.503,0.479v0.016c0,0.265,0.08,0.36,0.543,0.896
		c0.768,0.888,0.936,1.231,0.936,1.871v0.017c0,0.879-0.616,1.463-1.383,1.463C75.241,609.261,74.913,609.166,74.633,609.03z
		 M77.752,604.551h-0.688v-0.927h2.351v0.927h-0.688v4.67h-0.976V604.551z M79.825,603.625h2.143v0.927H80.8v1.392h1.031v0.928H80.8
		v1.423h1.191v0.928h-2.167V603.625z M83.249,603.608h1.039l1.063,5.613h-0.976l-0.184-1.111h-0.888l-0.176,1.111h-0.943
		L83.249,603.608z M84.048,607.23l-0.296-1.847l-0.304,1.847H84.048z M85.649,603.625h0.976v2.343l0.791-2.343h1.104l-0.943,2.366
		l0.96,3.23h-1.088l-0.607-2.119l-0.216,0.616v1.503h-0.976V603.625z M88.873,603.625h0.976v2.318h0.848v-2.318h0.976v5.597h-0.976
		v-2.351h-0.848v2.351h-0.976V603.625z M92.153,606.567v-0.288c0-1.847,0.6-2.734,1.487-2.734s1.487,0.888,1.487,2.734v0.288
		c0,1.847-0.6,2.734-1.487,2.734S92.153,608.414,92.153,606.567z M94.135,606.567v-0.288c0-1.439-0.199-1.839-0.495-1.839
		s-0.496,0.399-0.496,1.839v0.288c0,1.439,0.2,1.839,0.496,1.839S94.135,608.006,94.135,606.567z M95.592,607.59v-3.966h0.968v4.062
		c0,0.504,0.176,0.703,0.424,0.703s0.424-0.199,0.424-0.703v-4.062h0.968v3.966c0,1.175-0.592,1.703-1.392,1.703
		S95.592,608.765,95.592,607.59z M98.817,609.03v-1.016c0.344,0.199,0.615,0.312,0.879,0.312c0.28,0,0.521-0.136,0.521-0.479v-0.017
		c0-0.256-0.08-0.447-0.544-0.976c-0.664-0.751-0.936-1.111-0.936-1.791v-0.016c0-0.896,0.584-1.463,1.359-1.463
		c0.392,0,0.623,0.056,0.863,0.176v1.016c-0.304-0.176-0.487-0.256-0.743-0.256c-0.272,0-0.504,0.176-0.504,0.479v0.016
		c0,0.265,0.08,0.36,0.544,0.896c0.768,0.888,0.935,1.231,0.935,1.871v0.017c0,0.879-0.615,1.463-1.383,1.463
		C99.424,609.261,99.096,609.166,98.817,609.03z M101.537,603.625h2.143v0.927h-1.167v1.392h1.031v0.928h-1.031v1.423h1.191v0.928
		h-2.167V603.625z"/>
	<path class="st2" d="M24.601,751.354v-0.192c0-1.807,0.768-2.742,1.871-2.742c0.296,0,0.544,0.063,0.744,0.16v1.015
		c-0.24-0.144-0.456-0.239-0.711-0.239c-0.56,0-0.912,0.56-0.912,1.767v0.272c0,1.463,0.432,1.799,0.832,1.799
		c0.032,0,0.04,0,0.088-0.008v-1.432h-0.479v-0.871h1.367v2.974c-0.352,0.152-0.64,0.24-1.016,0.24
		C25.408,754.096,24.601,753.304,24.601,751.354z M27.841,751.402v-0.288c0-1.847,0.6-2.734,1.487-2.734
		c0.887,0,1.487,0.888,1.487,2.734v0.288c0,1.847-0.6,2.734-1.487,2.734C28.44,754.136,27.841,753.249,27.841,751.402z
		 M29.824,751.402v-0.288c0-1.439-0.2-1.839-0.496-1.839s-0.496,0.399-0.496,1.839v0.288c0,1.438,0.2,1.839,0.496,1.839
		S29.824,752.84,29.824,751.402z M31.297,748.459h0.976v4.669h1.031v0.928h-2.007V748.459z M33.697,748.459h2.039v0.928h-1.063
		v1.406H35.6v0.928h-0.927v2.335h-0.976V748.459z"/>
	<path class="st2" d="M115.624,751.521v-0.192c0-1.807,0.768-2.742,1.871-2.742c0.296,0,0.543,0.063,0.743,0.16v1.015
		c-0.24-0.144-0.456-0.239-0.712-0.239c-0.56,0-0.911,0.56-0.911,1.767v0.272c0,1.463,0.432,1.799,0.832,1.799
		c0.031,0,0.039,0,0.088-0.008v-1.432h-0.48v-0.871h1.367v2.974c-0.352,0.152-0.64,0.24-1.015,0.24
		C116.432,754.263,115.624,753.471,115.624,751.521z M118.865,751.569v-0.288c0-1.847,0.6-2.734,1.486-2.734
		c0.888,0,1.487,0.888,1.487,2.734v0.288c0,1.847-0.6,2.734-1.487,2.734C119.464,754.303,118.865,753.416,118.865,751.569z
		 M120.847,751.569v-0.288c0-1.439-0.2-1.839-0.496-1.839s-0.495,0.399-0.495,1.839v0.288c0,1.439,0.199,1.839,0.495,1.839
		S120.847,753.008,120.847,751.569z M122.32,748.626h0.976v4.669h1.031v0.928h-2.007V748.626z M124.72,748.626h2.039v0.927h-1.063
		v1.408h0.928v0.927h-0.928v2.335h-0.976V748.626z"/>
	<path class="st2" d="M123.205,721.014v-0.912c0-1.247,0.903-1.959,2.702-1.959h0.192c1.799,0,2.702,0.712,2.702,1.959v0.912
		H123.205z M127.906,719.999c0-0.464-0.408-0.863-1.807-0.863h-0.192c-1.399,0-1.807,0.399-1.807,0.863v0.04h3.806V719.999z
		 M123.205,717.662v-2.143h0.927v1.168h1.392v-1.032h0.928v1.032h1.423v-1.191h0.928v2.166H123.205z M126.099,715.198h-0.192
		c-1.967,0-2.742-0.728-2.742-1.639c0-0.272,0.032-0.432,0.128-0.64h1.007c-0.119,0.2-0.184,0.359-0.184,0.544
		c0,0.432,0.384,0.743,1.783,0.743h0.208c1.479,0,1.783-0.312,1.783-0.76c0-0.151-0.057-0.344-0.177-0.544h0.96
		c0.128,0.225,0.168,0.44,0.168,0.72C128.841,714.518,128.049,715.198,126.099,715.198z M123.205,712.415v-0.976h2.343l-2.343-0.792
		v-1.104l2.366,0.943l3.23-0.959v1.087l-2.119,0.608l0.616,0.216h1.503v0.976H123.205z M126.099,708.014h-0.192
		c-1.807,0-2.742-0.768-2.742-1.871c0-0.296,0.063-0.544,0.16-0.743h1.015c-0.144,0.239-0.239,0.455-0.239,0.711
		c0,0.56,0.56,0.912,1.767,0.912h0.272c1.463,0,1.799-0.432,1.799-0.832c0-0.032,0-0.04-0.008-0.088h-1.432v0.479h-0.871v-1.367
		h2.974c0.152,0.353,0.24,0.64,0.24,1.016C128.841,707.207,128.049,708.014,126.099,708.014z M123.188,703.895v-1.04l5.613-1.063
		v0.976l-1.111,0.184v0.888l1.111,0.176v0.943L123.188,703.895z M126.81,703.095l-1.847,0.296l1.847,0.304V703.095z
		 M123.205,701.495v-0.968l2.047-0.688l-2.047-0.688v-0.968h5.597v0.936h-3.382l2.118,0.712v0.016l-2.118,0.712h3.382v0.936H123.205
		z M123.205,697.606v-2.143h0.927v1.167h1.392v-1.031h0.928v1.031h1.423v-1.191h0.928v2.167H123.205z M128.61,695.086h-1.016
		c0.199-0.344,0.312-0.616,0.312-0.88c0-0.279-0.136-0.52-0.479-0.52h-0.017c-0.256,0-0.447,0.08-0.976,0.544
		c-0.751,0.663-1.111,0.936-1.791,0.936h-0.016c-0.896,0-1.463-0.584-1.463-1.359c0-0.392,0.056-0.624,0.176-0.863h1.016
		c-0.176,0.304-0.256,0.487-0.256,0.743c0,0.271,0.176,0.504,0.479,0.504h0.016c0.265,0,0.36-0.08,0.896-0.544
		c0.888-0.768,1.231-0.936,1.871-0.936h0.017c0.879,0,1.463,0.616,1.463,1.384C128.841,694.479,128.746,694.806,128.61,695.086z"/>
	<path class="st2" d="M47.856,493.643h0.967l0.688,2.047l0.688-2.047h0.967v5.597h-0.936v-3.382l-0.711,2.118h-0.016l-0.711-2.118
		v3.382h-0.936V493.643z M51.648,496.585v-0.288c0-1.847,0.6-2.734,1.487-2.734c0.887,0,1.487,0.888,1.487,2.734v0.288
		c0,1.847-0.6,2.734-1.487,2.734C52.248,499.32,51.648,498.432,51.648,496.585z M53.631,496.585v-0.288
		c0-1.439-0.2-1.839-0.496-1.839c-0.296,0-0.496,0.399-0.496,1.839v0.288c0,1.438,0.2,1.839,0.496,1.839
		C53.431,498.424,53.631,498.024,53.631,496.585z M55.104,493.643h0.911c1.248,0,1.959,0.903,1.959,2.702v0.192
		c0,1.799-0.711,2.702-1.959,2.702h-0.911V493.643z M56.12,498.344c0.464,0,0.864-0.408,0.864-1.807v-0.192
		c0-1.399-0.4-1.807-0.864-1.807h-0.04v3.806H56.12z M58.456,493.643h2.143v0.928h-1.167v1.391h1.031v0.928h-1.031v1.423h1.191
		v0.928h-2.167V493.643z M61.096,493.643h1.007c1,0,1.727,0.527,1.727,1.783v0.071c0,0.728-0.288,1.191-0.656,1.472l0.752,2.271
		h-1.04l-0.632-1.951h-0.184v1.951h-0.976V493.643z M62.12,496.41c0.424,0,0.735-0.248,0.735-0.904v-0.063
		c0-0.704-0.335-0.888-0.759-0.888h-0.024v1.855H62.12z M64.28,493.643h0.911l0.983,2.83v-2.83h0.952v5.597h-0.863l-1.032-2.967
		v2.967H64.28V493.643z M67.608,496.585v-0.288c0-1.847,0.6-2.734,1.487-2.734s1.487,0.888,1.487,2.734v0.288
		c0,1.847-0.6,2.734-1.487,2.734S67.608,498.432,67.608,496.585z M69.591,496.585v-0.288c0-1.439-0.2-1.839-0.496-1.839
		s-0.496,0.399-0.496,1.839v0.288c0,1.438,0.2,1.839,0.496,1.839S69.591,498.024,69.591,496.585z M72.24,496.538v-0.192
		c0-1.967,0.728-2.742,1.639-2.742c0.272,0,0.432,0.032,0.64,0.128v1.007c-0.2-0.119-0.359-0.184-0.543-0.184
		c-0.432,0-0.744,0.384-0.744,1.783v0.208c0,1.479,0.312,1.783,0.76,1.783c0.152,0,0.344-0.057,0.543-0.176v0.959
		c-0.224,0.128-0.439,0.168-0.72,0.168C72.919,499.28,72.24,498.488,72.24,496.538z M75.024,493.643h0.976v2.318h0.848v-2.318h0.976
		v5.597h-0.976v-2.351h-0.848v2.351h-0.976V493.643z M78.384,497.609v-3.966h0.967v4.062c0,0.504,0.176,0.704,0.424,0.704
		s0.424-0.2,0.424-0.704v-4.062h0.968v3.966c0,1.175-0.592,1.703-1.392,1.703C78.976,499.312,78.384,498.784,78.384,497.609z
		 M81.728,493.643h1.007c1,0,1.728,0.527,1.728,1.783v0.071c0,0.728-0.288,1.191-0.655,1.472l0.751,2.271h-1.039l-0.632-1.951
		h-0.184v1.951h-0.976V493.643z M82.751,496.41c0.424,0,0.735-0.248,0.735-0.904v-0.063c0-0.704-0.336-0.888-0.76-0.888h-0.023
		v1.855H82.751z M84.912,493.643h1.008c0.999,0,1.727,0.527,1.727,1.783v0.071c0,0.728-0.287,1.191-0.655,1.472l0.752,2.271h-1.04
		l-0.632-1.951h-0.184v1.951h-0.976V493.643z M85.935,496.41c0.424,0,0.735-0.248,0.735-0.904v-0.063
		c0-0.704-0.335-0.888-0.759-0.888h-0.024v1.855H85.935z M88.879,493.626h1.039l1.063,5.613h-0.976l-0.184-1.111h-0.888
		l-0.176,1.111h-0.943L88.879,493.626z M89.679,497.249l-0.296-1.847l-0.304,1.847H89.679z M91.16,499.047v-1.015
		c0.344,0.199,0.616,0.312,0.88,0.312c0.279,0,0.52-0.136,0.52-0.479v-0.017c0-0.256-0.08-0.447-0.544-0.975
		c-0.663-0.752-0.936-1.112-0.936-1.791v-0.017c0-0.896,0.584-1.463,1.359-1.463c0.392,0,0.624,0.056,0.863,0.176v1.016
		c-0.304-0.176-0.487-0.256-0.743-0.256c-0.271,0-0.504,0.176-0.504,0.479v0.016c0,0.265,0.08,0.36,0.544,0.896
		c0.768,0.888,0.936,1.231,0.936,1.871v0.017c0,0.879-0.616,1.463-1.384,1.463C91.767,499.28,91.44,499.184,91.16,499.047z
		 M93.744,496.538v-0.192c0-1.967,0.728-2.742,1.64-2.742c0.271,0,0.432,0.032,0.64,0.128v1.007c-0.2-0.119-0.36-0.184-0.544-0.184
		c-0.432,0-0.744,0.384-0.744,1.783v0.208c0,1.479,0.312,1.783,0.76,1.783c0.152,0,0.344-0.057,0.544-0.176v0.959
		c-0.224,0.128-0.439,0.168-0.72,0.168C94.423,499.28,93.744,498.488,93.744,496.538z M97.311,493.626h1.04l1.063,5.613h-0.976
		l-0.185-1.111h-0.887l-0.177,1.111h-0.943L97.311,493.626z M98.111,497.249l-0.296-1.847l-0.304,1.847H98.111z M99.711,493.643
		h1.008c0.999,0,1.727,0.527,1.727,1.783v0.071c0,0.728-0.287,1.191-0.655,1.472l0.752,2.271h-1.04l-0.632-1.951h-0.184v1.951
		h-0.976V493.643z M100.735,496.41c0.424,0,0.736-0.248,0.736-0.904v-0.063c0-0.704-0.336-0.888-0.76-0.888h-0.024v1.855H100.735z
		 M102.912,493.643h0.976v5.597h-0.976V493.643z M105.263,493.626h1.039l1.063,5.613h-0.976l-0.184-1.111h-0.888l-0.176,1.111H104.2
		L105.263,493.626z M106.063,497.249l-0.296-1.847l-0.304,1.847H106.063z"/>
	<path class="st2" d="M34.396,508.221v-1.016c0.344,0.199,0.616,0.312,0.879,0.312c0.28,0,0.52-0.136,0.52-0.479v-0.017
		c0-0.256-0.08-0.447-0.544-0.976c-0.664-0.751-0.936-1.111-0.936-1.791v-0.016c0-0.896,0.584-1.463,1.359-1.463
		c0.392,0,0.624,0.056,0.863,0.176v1.016c-0.304-0.176-0.487-0.256-0.743-0.256c-0.272,0-0.504,0.176-0.504,0.479v0.016
		c0,0.265,0.08,0.36,0.544,0.896c0.768,0.888,0.935,1.231,0.935,1.871v0.017c0,0.879-0.616,1.463-1.383,1.463
		C35.003,508.453,34.676,508.357,34.396,508.221z M37.1,506.782v-3.966h0.967v4.062c0,0.504,0.176,0.703,0.424,0.703
		c0.248,0,0.424-0.199,0.424-0.703v-4.062h0.967v3.966c0,1.175-0.592,1.703-1.391,1.703C37.691,508.485,37.1,507.957,37.1,506.782z
		 M40.348,505.71v-0.192c0-1.807,0.768-2.742,1.871-2.742c0.296,0,0.544,0.063,0.744,0.16v1.015
		c-0.24-0.144-0.456-0.239-0.711-0.239c-0.56,0-0.912,0.56-0.912,1.767v0.272c0,1.463,0.432,1.799,0.832,1.799
		c0.032,0,0.04,0,0.088-0.008v-1.432h-0.48v-0.871h1.368v2.974c-0.352,0.152-0.64,0.24-1.016,0.24
		C41.155,508.453,40.348,507.661,40.348,505.71z M44.467,502.799h1.04l1.063,5.613h-0.976l-0.184-1.111h-0.887l-0.176,1.111h-0.943
		L44.467,502.799z M45.267,506.421l-0.296-1.847l-0.304,1.847H45.267z M46.868,502.816h1.007c1,0,1.727,0.527,1.727,1.783v0.071
		c0,0.728-0.288,1.191-0.655,1.472l0.751,2.271h-1.04l-0.632-1.951h-0.184v1.951h-0.976V502.816z M47.891,505.582
		c0.424,0,0.736-0.248,0.736-0.904v-0.063c0-0.704-0.336-0.888-0.76-0.888h-0.024v1.855H47.891z M49.956,505.71v-0.192
		c0-1.967,0.728-2.742,1.639-2.742c0.272,0,0.432,0.032,0.64,0.128v1.007c-0.2-0.119-0.36-0.184-0.543-0.184
		c-0.432,0-0.744,0.384-0.744,1.783v0.208c0,1.479,0.312,1.783,0.759,1.783c0.152,0,0.344-0.057,0.544-0.177v0.96
		c-0.224,0.128-0.44,0.168-0.72,0.168C50.635,508.453,49.956,507.661,49.956,505.71z M53.523,502.799h1.039l1.063,5.613h-0.975
		l-0.184-1.111h-0.888l-0.176,1.111H52.46L53.523,502.799z M54.323,506.421l-0.296-1.847l-0.304,1.847H54.323z M55.924,502.816
		h0.911l0.984,2.83v-2.83h0.951v5.597h-0.863l-1.032-2.967v2.967h-0.951V502.816z M59.348,502.816h2.143v0.927h-1.167v1.392h1.031
		v0.928h-1.031v1.423h1.191v0.928h-2.167V502.816z M34.484,510.816h0.967l0.688,2.047l0.688-2.047h0.967v5.597h-0.936v-3.382
		l-0.711,2.118h-0.016l-0.711-2.118v3.382h-0.936V510.816z M38.276,513.758v-0.288c0-1.847,0.6-2.734,1.487-2.734
		c0.887,0,1.487,0.888,1.487,2.734v0.288c0,1.847-0.6,2.734-1.487,2.734C38.875,516.493,38.276,515.605,38.276,513.758z
		 M40.259,513.758v-0.288c0-1.439-0.2-1.839-0.496-1.839c-0.296,0-0.496,0.399-0.496,1.839v0.288c0,1.439,0.2,1.839,0.496,1.839
		C40.059,515.597,40.259,515.198,40.259,513.758z M41.372,516.38v-0.967c0.152,0.056,0.304,0.096,0.464,0.096
		c0.312,0,0.504-0.168,0.504-0.576v-4.117h0.991v4.189c0,0.991-0.52,1.455-1.343,1.455C41.74,516.46,41.548,516.42,41.372,516.38z
		 M43.908,510.816h0.976v5.597h-0.976V510.816z M45.996,511.743h-0.688v-0.927h2.351v0.927h-0.688v4.67h-0.975V511.743z
		 M47.812,513.758v-0.288c0-1.847,0.6-2.734,1.487-2.734c0.888,0,1.487,0.888,1.487,2.734v0.288c0,1.847-0.6,2.734-1.487,2.734
		C48.412,516.493,47.812,515.605,47.812,513.758z M49.794,513.758v-0.288c0-1.439-0.2-1.839-0.496-1.839s-0.496,0.399-0.496,1.839
		v0.288c0,1.439,0.2,1.839,0.496,1.839S49.794,515.198,49.794,513.758z M52.54,510.816h0.848c0.943,0,1.823,0.384,1.823,1.423v0.04
		c0,0.72-0.408,1.071-0.808,1.264c0.472,0.208,0.879,0.535,0.879,1.247v0.072c0,0.991-0.768,1.551-1.855,1.551H52.54V510.816z
		 M53.531,513.167c0.432,0,0.719-0.248,0.719-0.735v-0.017c0-0.487-0.288-0.695-0.719-0.695h-0.016v1.447H53.531z M53.539,515.509
		c0.448,0,0.768-0.264,0.768-0.728v-0.04c0-0.464-0.32-0.728-0.768-0.728h-0.024v1.495H53.539z M56.435,510.799h1.04l1.063,5.613
		h-0.976l-0.184-1.111h-0.888l-0.176,1.111h-0.943L56.435,510.799z M57.235,514.421l-0.296-1.847l-0.304,1.847H57.235z
		 M58.835,510.816h1.008c1,0,1.727,0.527,1.727,1.783v0.071c0,0.728-0.288,1.191-0.656,1.472l0.751,2.271h-1.04l-0.631-1.951h-0.184
		v1.951h-0.976V510.816z M59.859,513.583c0.424,0,0.736-0.248,0.736-0.904v-0.063c0-0.704-0.336-0.888-0.76-0.888h-0.024v1.855
		H59.859z"/>
</g>
<g id="GEM_DECK_13_TOP">
	<path class="st3" d="M79.181,0.521C96.241,1,111.198,3.303,111.198,3.303c22.84,4.924,42.832,14.215,42.832,14.215v18.797h-11.656
		v222.127l8.547,15.312v389.127l-8.609,17.551c-0.016,74.378-0.035,143.981-0.059,198.282l9.332,7.947v63.581l-9.379,7.453h-28.519
		l-5.01,0.032c-3.006,14.602-15.881,25.531-31.372,25.531l-1.85-0.047c-14.693-0.796-26.712-11.442-29.602-25.484l-5.01-0.032
		h-28.52l-9.378-7.453v-63.581l9.332-7.947c-0.023-54.301-0.043-123.904-0.059-198.282l-8.609-17.551V273.755l8.547-15.694V35.934
		L0.5,36.316V17.518c0,0,19.991-9.291,42.831-14.215c0,0,15.441-2.377,32.839-2.803L79.181,0.521z"/>
	<g id="gDeck13Locations">
		<rect id="_x31_3Aft" y="635.016" class="st4" width="154.553" height="348.745"/>
		<rect id="_x31_3Middle" y="336.066" class="st4" width="154.553" height="298.95"/>
		<rect id="_x31_3Forward" class="st4" width="154.553" height="336.066"/>
	</g>
</g>
</svg>
