<?xml version="1.0" encoding="utf-8"?>
<!-- Generator: Adobe Illustrator 23.0.4, SVG Export Plug-In . SVG Version: 6.00 Build 0)  -->
<svg version="1.1" id="GEM_DECK_15" xmlns="http://www.w3.org/2000/svg" xmlns:xlink="http://www.w3.org/1999/xlink" x="0px"
	 y="0px" width="131.136px" height="771.843px" viewBox="0 0 131.136 771.843" style="enable-background:new 0 0 131.136 771.843;"
	 xml:space="preserve">
<style type="text/css">
	.New_x0020_Cabins_x0020_2019{fill:#EFF2F5;stroke:#FFFFFF;stroke-width:0.5;stroke-miterlimit:10;}
	.st0{fill:#FFFFFF;}
	.st1{fill:none;stroke:#D5DCE0;stroke-width:0.5;}
	.st2{fill:#6E8496;}
	.st3{fill:#EFF2F5;stroke:#FFFFFF;stroke-width:0.5;stroke-miterlimit:10;}
	.st4{fill:none;stroke:#076FA0;stroke-miterlimit:10;}
	.st5{fill:none;}
</style>
<g id="GEM_DECK_15_BOTTOM">
	<polygon class="st0" points="30.23,0.685 101.564,0.685 101.564,59.519 97.564,64.019 87.231,63.852 87.231,120.352 
		44.397,120.352 44.397,98.519 38.564,98.519 38.564,94.185 44.23,94.185 44.23,64.185 33.897,64.185 29.73,59.685 	"/>
	<path class="st0" d="M36.384,771.343h58.367V644.499h30.533v6.21h5.352V423.933c0,0-13.494-20.951-64.5-22.023
		C17.742,400.893,0.5,424.076,0.5,424.076v226.633l5.373,0.142l-0.022-6.352h30.532v124.498V771.343z"/>
	<line class="st1" x1="78.628" y1="600.794" x2="60.839" y2="600.794"/>
	<line class="st1" x1="61.576" y1="600.857" x2="61.576" y2="607.052"/>
	<line class="st1" x1="62.882" y1="600.857" x2="62.882" y2="607.052"/>
	<line class="st1" x1="64.189" y1="600.857" x2="64.189" y2="607.052"/>
	<line class="st1" x1="65.495" y1="600.857" x2="65.495" y2="607.052"/>
	<line class="st1" x1="66.801" y1="600.857" x2="66.801" y2="607.052"/>
	<line class="st1" x1="68.107" y1="600.857" x2="68.107" y2="607.052"/>
	<line class="st1" x1="69.413" y1="600.857" x2="69.413" y2="607.052"/>
	<line class="st1" x1="70.72" y1="600.857" x2="70.72" y2="607.052"/>
	<line class="st1" x1="72.025" y1="600.857" x2="72.025" y2="607.052"/>
	<line class="st1" x1="73.331" y1="600.857" x2="73.331" y2="607.052"/>
	<line class="st1" x1="74.638" y1="600.857" x2="74.638" y2="607.052"/>
	<line class="st1" x1="75.944" y1="600.857" x2="75.944" y2="607.052"/>
	<line class="st1" x1="77.25" y1="600.857" x2="77.25" y2="607.052"/>
	<polyline class="st1" points="130.314,476.185 80.171,476.185 80.171,441.129 	"/>
	<polyline class="st1" points="0.064,476.435 50.62,476.435 50.62,473.062 	"/>
	<polyline class="st1" points="59.564,607.185 59.397,596.769 44.064,596.769 44.26,501.972 0.397,502.019 	"/>
	<polyline class="st1" points="59.397,600.802 82.231,600.802 82.231,607.186 86.156,607.186 86.064,501.442 130.754,501.442 	"/>
	<polyline class="st1" points="36.384,646.358 36.384,624.518 47.897,624.518 47.897,607.018 82.564,607.018 82.564,624.515 
		82.564,624.518 94.751,624.518 94.751,646.358 	"/>
	<polygon class="st1" points="38.168,442.723 38.319,438.493 44.061,438.19 44.516,432.79 1.151,432.942 0.998,458.739 
		44.061,459.042 43.909,442.874 	"/>
	<polygon class="st1" points="92.713,442.27 92.713,438.493 87.123,438.04 86.972,433.206 130.79,432.751 130.639,458.891 
		87.274,458.891 86.972,442.573 	"/>
	<polyline class="st1" points="130.837,459.042 87.296,459.042 86.801,442.837 92.53,442.837 92.53,438.254 86.801,438.254 
		86.801,432.852 130.815,432.852 	"/>
	<path class="st1" d="M88.402,449.671c0.994,1.361,2.646,2.234,4.502,2.234c2.984,0,5.44-2.27,5.734-5.178H94.07
		c0,0-0.42,1.055-1.133,1.055c-1.072,0.119-1.272-1.191-1.272-1.191v-3.373h-3.93l-0.02,4.207
		C87.717,447.424,87.816,449.051,88.402,449.671z"/>
	<line class="st1" x1="91.658" y1="444.424" x2="88.008" y2="444.424"/>
	<line class="st1" x1="91.658" y1="445.655" x2="88.008" y2="445.655"/>
	<line class="st1" x1="91.658" y1="446.725" x2="88.008" y2="446.725"/>
	<line class="st1" x1="98.294" y1="448.417" x2="94.008" y2="446.989"/>
	<line class="st1" x1="96.865" y1="450.204" x2="93.731" y2="447.424"/>
	<line class="st1" x1="95.318" y1="451.432" x2="93.178" y2="447.561"/>
	<line class="st1" x1="93.135" y1="451.671" x2="92.738" y2="447.821"/>
	<line class="st1" x1="91.031" y1="451.354" x2="92.42" y2="447.821"/>
	<line class="st1" x1="89.246" y1="450.282" x2="91.943" y2="447.504"/>
	<line class="st1" x1="88.254" y1="448.893" x2="91.666" y2="447.266"/>
	<path class="st1" d="M42.422,449.671c-0.994,1.361-2.647,2.234-4.502,2.234c-2.985,0-5.441-2.27-5.735-5.178h4.569
		c0,0,0.419,1.055,1.133,1.055c1.072,0.119,1.271-1.191,1.271-1.191v-3.373h3.93l0.021,4.207
		C43.107,447.424,43.008,449.051,42.422,449.671z"/>
	<line class="st1" x1="39.166" y1="444.424" x2="42.816" y2="444.424"/>
	<line class="st1" x1="39.166" y1="445.655" x2="42.816" y2="445.655"/>
	<line class="st1" x1="39.166" y1="446.725" x2="42.816" y2="446.725"/>
	<line class="st1" x1="32.53" y1="448.417" x2="36.816" y2="446.989"/>
	<line class="st1" x1="33.959" y1="450.204" x2="37.094" y2="447.424"/>
	<line class="st1" x1="35.506" y1="451.432" x2="37.647" y2="447.561"/>
	<line class="st1" x1="37.69" y1="451.671" x2="38.086" y2="447.821"/>
	<line class="st1" x1="39.793" y1="451.354" x2="38.403" y2="447.821"/>
	<line class="st1" x1="41.578" y1="450.282" x2="38.88" y2="447.504"/>
	<line class="st1" x1="42.57" y1="448.893" x2="39.158" y2="447.266"/>
	<polyline class="st1" points="0.482,459.042 44.023,459.042 44.023,442.837 38.294,442.837 38.294,438.254 44.023,438.254 
		44.023,432.852 0.482,432.852 	"/>
	<polygon class="st1" points="86.156,607.186 82.231,607.186 82.231,600.802 59.397,600.802 59.397,596.769 44.064,596.769 
		44.23,516.754 86.077,516.754 	"/>
	<path class="st2" d="M8.844,463.728v-0.192c0-1.807,0.768-2.742,1.871-2.742c0.295,0,0.543,0.063,0.743,0.16v1.015
		c-0.24-0.144-0.456-0.239-0.711-0.239c-0.56,0-0.912,0.56-0.912,1.767v0.272c0,1.463,0.432,1.799,0.832,1.799
		c0.032,0,0.04,0,0.088-0.008v-1.432h-0.479v-0.871h1.367v2.974c-0.352,0.152-0.64,0.24-1.016,0.24
		C9.652,466.47,8.844,465.678,8.844,463.728z M12.964,460.817h1.039l1.063,5.613h-0.976l-0.184-1.111H13.02l-0.176,1.111H11.9
		L12.964,460.817z M13.763,464.439l-0.296-1.847l-0.304,1.847H13.763z M15.364,460.834h1.007c1,0,1.727,0.527,1.727,1.783v0.071
		c0,0.728-0.288,1.191-0.656,1.472l0.751,2.271h-1.039l-0.632-1.951h-0.184v1.951h-0.975V460.834z M16.388,463.6
		c0.423,0,0.735-0.248,0.735-0.904v-0.063c0-0.704-0.336-0.888-0.76-0.888h-0.024v1.855H16.388z M18.548,460.834h0.912
		c1.248,0,1.959,0.903,1.959,2.702v0.192c0,1.799-0.711,2.702-1.959,2.702h-0.912V460.834z M19.564,465.535
		c0.464,0,0.863-0.408,0.863-1.807v-0.192c0-1.399-0.399-1.807-0.863-1.807h-0.04v3.806H19.564z M21.9,460.834h2.143v0.928h-1.167
		v1.391h1.031v0.928h-1.031v1.423h1.191v0.928H21.9V460.834z M24.54,460.834h0.911l0.983,2.83v-2.83h0.952v5.597h-0.863
		l-1.032-2.967v2.967H24.54V460.834z M28.956,460.834h0.991l0.528,3.646l0.528-3.646h0.959l-1,5.612h-1.007L28.956,460.834z
		 M32.276,460.834h0.975v5.597h-0.975V460.834z M33.844,460.834h0.976v4.669h1.031v0.928h-2.007V460.834z M36.244,460.834h0.976
		v4.669h1.031v0.928h-2.007V460.834z M39.387,460.817h1.04l1.063,5.613h-0.975l-0.184-1.111h-0.888l-0.176,1.111h-0.943
		L39.387,460.817z M40.187,464.439l-0.296-1.847l-0.304,1.847H40.187z M4.696,468.834h0.871c1.063,0,1.807,0.575,1.807,1.887v0.016
		c0,1.264-0.704,1.863-1.695,1.936H5.671v1.759H4.696V468.834z M5.68,471.768c0.408-0.024,0.72-0.32,0.72-1v-0.016
		c0-0.712-0.272-1.016-0.696-1.016H5.671v2.031H5.68z M7.776,468.834h1.008c1,0,1.727,0.527,1.727,1.783v0.071
		c0,0.728-0.288,1.191-0.656,1.472l0.751,2.271h-1.04l-0.631-1.951H8.751v1.951H7.776V468.834z M8.799,471.6
		c0.424,0,0.736-0.248,0.736-0.904v-0.063c0-0.704-0.336-0.888-0.76-0.888H8.751v1.855H8.799z M10.976,468.834h0.976v5.597h-0.976
		V468.834z M12.264,468.834h0.992l0.527,3.646l0.528-3.646h0.959l-1,5.612h-1.007L12.264,468.834z M16.191,468.817h1.04l1.063,5.613
		h-0.976l-0.184-1.111h-0.888l-0.176,1.111h-0.944L16.191,468.817z M16.991,472.439l-0.296-1.847l-0.304,1.847H16.991z
		 M18.872,469.761h-0.688v-0.928h2.351v0.928h-0.688v4.669h-0.976V469.761z M20.944,468.834h2.143v0.928h-1.167v1.391h1.031v0.928
		h-1.031v1.423h1.191v0.928h-2.167V468.834z M24.736,474.238v-1.015c0.344,0.199,0.616,0.312,0.879,0.312
		c0.28,0,0.52-0.136,0.52-0.479v-0.017c0-0.256-0.08-0.447-0.544-0.975c-0.664-0.752-0.936-1.112-0.936-1.791v-0.017
		c0-0.896,0.584-1.463,1.359-1.463c0.392,0,0.624,0.056,0.864,0.176v1.016c-0.304-0.176-0.488-0.256-0.744-0.256
		c-0.272,0-0.504,0.176-0.504,0.479v0.016c0,0.265,0.08,0.36,0.543,0.896c0.768,0.888,0.936,1.231,0.936,1.871v0.017
		c0,0.879-0.615,1.463-1.383,1.463C25.344,474.47,25.016,474.375,24.736,474.238z M27.44,472.799v-3.966h0.967v4.062
		c0,0.504,0.176,0.704,0.424,0.704s0.424-0.2,0.424-0.704v-4.062h0.967v3.966c0,1.175-0.592,1.703-1.391,1.703
		C28.031,474.502,27.44,473.974,27.44,472.799z M30.784,468.834h0.912l0.983,2.83v-2.83h0.951v5.597h-0.863l-1.031-2.967v2.967
		h-0.952V468.834z M35.48,468.834h0.912c1.247,0,1.959,0.903,1.959,2.702v0.192c0,1.799-0.712,2.702-1.959,2.702H35.48V468.834z
		 M36.495,473.535c0.464,0,0.863-0.408,0.863-1.807v-0.192c0-1.399-0.399-1.807-0.863-1.807h-0.04v3.806H36.495z M38.832,468.834
		h2.143v0.928h-1.167v1.391h1.031v0.928h-1.031v1.423h1.191v0.928h-2.167V468.834z M41.295,471.728v-0.192
		c0-1.967,0.728-2.742,1.639-2.742c0.272,0,0.432,0.032,0.64,0.128v1.007c-0.2-0.119-0.36-0.184-0.544-0.184
		c-0.432,0-0.743,0.384-0.743,1.783v0.208c0,1.479,0.312,1.783,0.759,1.783c0.152,0,0.344-0.057,0.544-0.176v0.959
		c-0.224,0.128-0.44,0.168-0.72,0.168C41.975,474.47,41.295,473.678,41.295,471.728z M44.08,468.834h0.975v2.343l0.792-2.343h1.103
		l-0.943,2.366l0.959,3.23h-1.087l-0.608-2.119l-0.216,0.616v1.503H44.08V468.834z"/>
	<path class="st2" d="M14.29,600.079h0.872c1.063,0,1.807,0.575,1.807,1.887v0.016c0,1.264-0.704,1.863-1.695,1.936h-0.008v1.759
		H14.29V600.079z M15.273,603.013c0.408-0.024,0.719-0.32,0.719-1v-0.016c0-0.712-0.271-1.016-0.695-1.016h-0.032v2.031H15.273z
		 M17.37,600.079h1.007c1,0,1.727,0.527,1.727,1.783v0.071c0,0.728-0.288,1.191-0.655,1.472l0.751,2.271h-1.04l-0.631-1.951h-0.184
		v1.951H17.37V600.079z M18.393,602.845c0.424,0,0.736-0.248,0.736-0.904v-0.063c0-0.704-0.336-0.888-0.76-0.888h-0.024v1.855
		H18.393z M20.57,600.079h0.975v5.597H20.57V600.079z M21.858,600.079h0.991l0.528,3.646l0.528-3.646h0.959l-1,5.612h-1.007
		L21.858,600.079z M25.785,600.062h1.04l1.063,5.613h-0.976l-0.184-1.111h-0.887l-0.176,1.111h-0.944L25.785,600.062z
		 M26.585,603.684l-0.296-1.847l-0.304,1.847H26.585z M28.465,601.005h-0.688v-0.927h2.351v0.927h-0.688v4.67h-0.976V601.005z
		 M30.538,600.079h2.143v0.927h-1.167v1.392h1.031v0.928h-1.031v1.423h1.191v0.928h-2.167V600.079z M12.39,613.484v-1.016
		c0.344,0.199,0.616,0.312,0.88,0.312c0.28,0,0.52-0.136,0.52-0.479v-0.017c0-0.256-0.08-0.447-0.543-0.976
		c-0.664-0.751-0.936-1.111-0.936-1.791v-0.016c0-0.896,0.583-1.463,1.359-1.463c0.392,0,0.624,0.056,0.864,0.176v1.016
		c-0.304-0.176-0.488-0.256-0.744-0.256c-0.272,0-0.504,0.176-0.504,0.479v0.016c0,0.265,0.08,0.36,0.544,0.896
		c0.768,0.888,0.936,1.231,0.936,1.871v0.017c0,0.879-0.616,1.463-1.383,1.463C12.998,613.715,12.67,613.62,12.39,613.484z
		 M15.094,612.044v-3.966h0.967v4.062c0,0.504,0.176,0.703,0.424,0.703c0.248,0,0.424-0.199,0.424-0.703v-4.062h0.968v3.966
		c0,1.175-0.592,1.703-1.392,1.703C15.686,613.748,15.094,613.219,15.094,612.044z M18.438,608.079h0.912l0.983,2.83v-2.83h0.952
		v5.597H20.42l-1.031-2.967v2.967h-0.952V608.079z M23.134,608.079h0.911c1.248,0,1.959,0.903,1.959,2.702v0.192
		c0,1.799-0.711,2.702-1.959,2.702h-0.911V608.079z M24.149,612.78c0.464,0,0.864-0.408,0.864-1.807v-0.192
		c0-1.399-0.4-1.807-0.864-1.807h-0.04v3.806H24.149z M26.485,608.079h2.143v0.927h-1.167v1.392h1.031v0.928h-1.031v1.423h1.191
		v0.928h-2.167V608.079z M28.95,610.973v-0.192c0-1.967,0.728-2.742,1.639-2.742c0.272,0,0.432,0.032,0.64,0.128v1.007
		c-0.2-0.119-0.359-0.184-0.543-0.184c-0.432,0-0.744,0.384-0.744,1.783v0.208c0,1.479,0.312,1.783,0.76,1.783
		c0.152,0,0.344-0.057,0.543-0.177v0.96c-0.224,0.128-0.439,0.168-0.72,0.168C29.629,613.715,28.95,612.923,28.95,610.973z
		 M31.733,608.079h0.976v2.343l0.792-2.343h1.104l-0.944,2.366l0.959,3.23h-1.087l-0.607-2.119l-0.216,0.616v1.503h-0.976V608.079z"
		/>
	<path class="st2" d="M104.449,600.079h0.872c1.063,0,1.807,0.575,1.807,1.887v0.016c0,1.264-0.704,1.863-1.695,1.936h-0.008v1.759
		h-0.976V600.079z M105.433,603.013c0.408-0.024,0.72-0.32,0.72-1v-0.016c0-0.712-0.271-1.016-0.695-1.016h-0.032v2.031H105.433z
		 M107.514,604.044v-3.966h0.967v4.062c0,0.504,0.176,0.703,0.424,0.703s0.424-0.199,0.424-0.703v-4.062h0.968v3.966
		c0,1.175-0.592,1.703-1.392,1.703C108.105,605.748,107.514,605.219,107.514,604.044z M110.857,600.079h0.848
		c0.943,0,1.822,0.384,1.822,1.423v0.04c0,0.72-0.407,1.071-0.808,1.264c0.473,0.208,0.88,0.535,0.88,1.247v0.072
		c0,0.991-0.768,1.551-1.854,1.551h-0.888V600.079z M111.849,602.429c0.432,0,0.72-0.248,0.72-0.735v-0.017
		c0-0.487-0.288-0.695-0.72-0.695h-0.016v1.447H111.849z M111.856,604.772c0.448,0,0.768-0.264,0.768-0.728v-0.04
		c0-0.464-0.319-0.728-0.768-0.728h-0.023v1.495H111.856z M114.009,600.079h0.976v4.669h1.031v0.928h-2.007V600.079z
		 M116.425,600.079h0.976v5.597h-0.976V600.079z M117.897,602.973v-0.192c0-1.967,0.728-2.742,1.639-2.742
		c0.271,0,0.432,0.032,0.64,0.128v1.007c-0.2-0.119-0.359-0.184-0.544-0.184c-0.432,0-0.743,0.384-0.743,1.783v0.208
		c0,1.479,0.312,1.783,0.76,1.783c0.151,0,0.344-0.057,0.543-0.177v0.96c-0.224,0.128-0.439,0.168-0.719,0.168
		C118.577,605.715,117.897,604.923,117.897,602.973z M101.222,613.484v-1.016c0.344,0.199,0.615,0.312,0.879,0.312
		c0.28,0,0.521-0.136,0.521-0.479v-0.017c0-0.256-0.08-0.447-0.544-0.976c-0.664-0.751-0.936-1.111-0.936-1.791v-0.016
		c0-0.896,0.584-1.463,1.359-1.463c0.392,0,0.623,0.056,0.863,0.176v1.016c-0.304-0.176-0.487-0.256-0.743-0.256
		c-0.272,0-0.504,0.176-0.504,0.479v0.016c0,0.265,0.08,0.36,0.543,0.896c0.768,0.888,0.936,1.231,0.936,1.871v0.017
		c0,0.879-0.615,1.463-1.383,1.463C101.829,613.715,101.501,613.62,101.222,613.484z M103.926,612.044v-3.966h0.967v4.062
		c0,0.504,0.176,0.703,0.424,0.703s0.424-0.199,0.424-0.703v-4.062h0.968v3.966c0,1.175-0.592,1.703-1.392,1.703
		S103.926,613.219,103.926,612.044z M107.27,608.079h0.911l0.983,2.83v-2.83h0.951v5.597h-0.863l-1.031-2.967v2.967h-0.951V608.079z
		 M111.965,608.079h0.912c1.247,0,1.959,0.903,1.959,2.702v0.192c0,1.799-0.712,2.702-1.959,2.702h-0.912V608.079z M112.98,612.78
		c0.464,0,0.863-0.408,0.863-1.807v-0.192c0-1.399-0.399-1.807-0.863-1.807h-0.04v3.806H112.98z M115.317,608.079h2.143v0.927
		h-1.167v1.392h1.031v0.928h-1.031v1.423h1.19v0.928h-2.166V608.079z M117.781,610.973v-0.192c0-1.967,0.728-2.742,1.639-2.742
		c0.272,0,0.432,0.032,0.64,0.128v1.007c-0.199-0.119-0.359-0.184-0.544-0.184c-0.432,0-0.743,0.384-0.743,1.783v0.208
		c0,1.479,0.312,1.783,0.76,1.783c0.151,0,0.344-0.057,0.544-0.177v0.96c-0.225,0.128-0.44,0.168-0.72,0.168
		C118.461,613.715,117.781,612.923,117.781,610.973z M120.565,608.079h0.975v2.343l0.792-2.343h1.104l-0.943,2.366l0.959,3.23
		h-1.087l-0.608-2.119l-0.216,0.616v1.503h-0.975V608.079z"/>
	<path class="st2" d="M88.374,463.728v-0.192c0-1.807,0.768-2.742,1.871-2.742c0.296,0,0.544,0.063,0.744,0.16v1.015
		c-0.24-0.144-0.456-0.239-0.712-0.239c-0.56,0-0.911,0.56-0.911,1.767v0.272c0,1.463,0.432,1.799,0.831,1.799
		c0.032,0,0.04,0,0.088-0.008v-1.432h-0.479v-0.871h1.367v2.974c-0.352,0.152-0.64,0.24-1.016,0.24
		C89.182,466.47,88.374,465.678,88.374,463.728z M92.494,460.817h1.039l1.063,5.613h-0.976l-0.184-1.111H92.55l-0.176,1.111h-0.943
		L92.494,460.817z M93.294,464.439l-0.296-1.847l-0.305,1.847H93.294z M94.895,460.834h1.007c1,0,1.728,0.527,1.728,1.783v0.071
		c0,0.728-0.288,1.191-0.655,1.472l0.751,2.271h-1.039l-0.632-1.951H95.87v1.951h-0.976V460.834z M95.918,463.6
		c0.424,0,0.735-0.248,0.735-0.904v-0.063c0-0.704-0.336-0.888-0.76-0.888H95.87v1.855H95.918z M98.078,460.834h0.912
		c1.247,0,1.958,0.903,1.958,2.702v0.192c0,1.799-0.711,2.702-1.958,2.702h-0.912V460.834z M99.094,465.535
		c0.464,0,0.863-0.408,0.863-1.807v-0.192c0-1.399-0.399-1.807-0.863-1.807h-0.04v3.806H99.094z M101.431,460.834h2.143v0.928
		h-1.168v1.391h1.032v0.928h-1.032v1.423h1.191v0.928h-2.166V460.834z M104.07,460.834h0.911l0.983,2.83v-2.83h0.952v5.597h-0.864
		l-1.031-2.967v2.967h-0.951V460.834z M108.486,460.834h0.991l0.527,3.646l0.528-3.646h0.959l-0.999,5.612h-1.008L108.486,460.834z
		 M111.806,460.834h0.976v5.597h-0.976V460.834z M113.374,460.834h0.976v4.669h1.031v0.928h-2.007V460.834z M115.773,460.834h0.976
		v4.669h1.031v0.928h-2.007V460.834z M118.917,460.817h1.04l1.063,5.613h-0.976l-0.184-1.111h-0.888l-0.176,1.111h-0.944
		L118.917,460.817z M119.717,464.439l-0.296-1.847l-0.304,1.847H119.717z M84.227,468.834h0.871c1.063,0,1.808,0.575,1.808,1.887
		v0.016c0,1.264-0.704,1.863-1.695,1.936h-0.008v1.759h-0.976V468.834z M85.21,471.768c0.407-0.024,0.72-0.32,0.72-1v-0.016
		c0-0.712-0.272-1.016-0.696-1.016h-0.031v2.031H85.21z M87.307,468.834h1.007c1,0,1.728,0.527,1.728,1.783v0.071
		c0,0.728-0.288,1.191-0.656,1.472l0.752,2.271h-1.039l-0.632-1.951h-0.184v1.951h-0.976V468.834z M88.33,471.6
		c0.424,0,0.735-0.248,0.735-0.904v-0.063c0-0.704-0.336-0.888-0.76-0.888h-0.023v1.855H88.33z M90.506,468.834h0.976v5.597h-0.976
		V468.834z M91.794,468.834h0.992l0.527,3.646l0.527-3.646h0.96l-0.999,5.612h-1.008L91.794,468.834z M95.722,468.817h1.04
		l1.063,5.613H96.85l-0.185-1.111h-0.887l-0.177,1.111h-0.943L95.722,468.817z M96.522,472.439l-0.296-1.847l-0.304,1.847H96.522z
		 M98.402,469.761h-0.688v-0.928h2.352v0.928h-0.688v4.669h-0.976V469.761z M100.475,468.834h2.143v0.928h-1.168v1.391h1.032v0.928
		h-1.032v1.423h1.191v0.928h-2.166V468.834z M104.267,474.238v-1.015c0.344,0.199,0.615,0.312,0.879,0.312
		c0.28,0,0.52-0.136,0.52-0.479v-0.017c0-0.256-0.08-0.447-0.543-0.975c-0.664-0.752-0.936-1.112-0.936-1.791v-0.017
		c0-0.896,0.583-1.463,1.359-1.463c0.392,0,0.623,0.056,0.863,0.176v1.016c-0.304-0.176-0.488-0.256-0.744-0.256
		c-0.271,0-0.504,0.176-0.504,0.479v0.016c0,0.265,0.08,0.36,0.544,0.896c0.768,0.888,0.936,1.231,0.936,1.871v0.017
		c0,0.879-0.615,1.463-1.383,1.463C104.874,474.47,104.546,474.375,104.267,474.238z M106.97,472.799v-3.966h0.968v4.062
		c0,0.504,0.176,0.704,0.424,0.704s0.424-0.2,0.424-0.704v-4.062h0.968v3.966c0,1.175-0.592,1.703-1.392,1.703
		S106.97,473.974,106.97,472.799z M110.314,468.834h0.912l0.983,2.83v-2.83h0.951v5.597h-0.863l-1.031-2.967v2.967h-0.952V468.834z
		 M115.01,468.834h0.911c1.248,0,1.959,0.903,1.959,2.702v0.192c0,1.799-0.711,2.702-1.959,2.702h-0.911V468.834z M116.025,473.535
		c0.464,0,0.863-0.408,0.863-1.807v-0.192c0-1.399-0.399-1.807-0.863-1.807h-0.04v3.806H116.025z M118.361,468.834h2.144v0.928
		h-1.168v1.391h1.031v0.928h-1.031v1.423h1.191v0.928h-2.167V468.834z M120.826,471.728v-0.192c0-1.967,0.728-2.742,1.639-2.742
		c0.271,0,0.432,0.032,0.64,0.128v1.007c-0.2-0.119-0.359-0.184-0.544-0.184c-0.432,0-0.743,0.384-0.743,1.783v0.208
		c0,1.479,0.312,1.783,0.76,1.783c0.151,0,0.344-0.057,0.543-0.176v0.959c-0.224,0.128-0.439,0.168-0.719,0.168
		C121.505,474.47,120.826,473.678,120.826,471.728z M123.609,468.834h0.976v2.343l0.792-2.343h1.104l-0.944,2.366l0.96,3.23h-1.087
		l-0.608-2.119l-0.216,0.616v1.503h-0.976V468.834z"/>
	<path class="st2" d="M11.41,436.175l-0.576,0.184v-0.983l0.864-0.271h0.696v5.637H11.41V436.175z M14.377,439.71h-1.519v-0.744
		l1.471-3.838h0.96v3.742h0.456v0.84h-0.456v1.031h-0.912V439.71z M14.377,438.87v-2.047l-0.728,2.047H14.377z M16.026,440.645
		v-0.952c0.184,0.097,0.424,0.168,0.64,0.168c0.456,0,0.712-0.375,0.712-0.967v-0.057c0-0.592-0.216-0.799-0.536-0.799
		c-0.144,0-0.248,0.023-0.384,0.08l-0.472-0.312l0.152-2.662h1.991v0.928h-1.271l-0.072,1.119c0.104-0.024,0.216-0.04,0.376-0.04
		c0.591,0,1.175,0.432,1.175,1.679v0.072c0,1.207-0.64,1.895-1.567,1.895C16.49,440.796,16.21,440.725,16.026,440.645z
		 M18.65,438.094v-0.304c0-1.936,0.48-2.727,1.383-2.727c0.888,0,1.383,0.791,1.383,2.727v0.304c0,1.935-0.496,2.727-1.383,2.727
		C19.13,440.821,18.65,440.029,18.65,438.094z M20.449,438.086v-0.288c0-1.583-0.192-1.839-0.416-1.839
		c-0.232,0-0.424,0.256-0.424,1.839v0.288c0,1.583,0.192,1.839,0.424,1.839C20.257,439.925,20.449,439.669,20.449,438.086z
		 M21.802,438.094v-0.304c0-1.936,0.48-2.727,1.383-2.727c0.888,0,1.383,0.791,1.383,2.727v0.304c0,1.935-0.496,2.727-1.383,2.727
		C22.282,440.821,21.802,440.029,21.802,438.094z M23.601,438.086v-0.288c0-1.583-0.192-1.839-0.416-1.839
		c-0.232,0-0.423,0.256-0.423,1.839v0.288c0,1.583,0.191,1.839,0.423,1.839C23.409,439.925,23.601,439.669,23.601,438.086z
		 M7.514,446.086v-0.288c0-1.847,0.6-2.734,1.487-2.734c0.887,0,1.487,0.888,1.487,2.734v0.288c0,1.847-0.6,2.734-1.487,2.734
		C8.114,448.821,7.514,447.933,7.514,446.086z M9.497,446.086v-0.288c0-1.439-0.2-1.839-0.496-1.839s-0.496,0.399-0.496,1.839v0.288
		c0,1.438,0.2,1.839,0.496,1.839S9.497,447.525,9.497,446.086z M10.97,443.144h0.872c1.063,0,1.807,0.575,1.807,1.887v0.016
		c0,1.264-0.703,1.863-1.695,1.936h-0.008v1.759H10.97V443.144z M11.954,446.079c0.408-0.024,0.72-0.32,0.72-1v-0.016
		c0-0.712-0.272-1.016-0.696-1.016h-0.032v2.031H11.954z M14.05,443.144h2.143v0.928h-1.167v1.391h1.032v0.928h-1.032v1.423h1.191
		v0.928H14.05V443.144z M16.69,443.144h0.912l0.983,2.83v-2.83h0.952v5.597h-0.864l-1.031-2.967v2.967H16.69V443.144z
		 M21.906,444.072h-0.688v-0.928h2.351v0.928h-0.688v4.669h-0.975V444.072z M23.722,446.086v-0.288c0-1.847,0.6-2.734,1.487-2.734
		c0.888,0,1.487,0.888,1.487,2.734v0.288c0,1.847-0.6,2.734-1.487,2.734C24.322,448.821,23.722,447.933,23.722,446.086z
		 M25.705,446.086v-0.288c0-1.439-0.2-1.839-0.496-1.839s-0.496,0.399-0.496,1.839v0.288c0,1.438,0.2,1.839,0.496,1.839
		S25.705,447.525,25.705,446.086z M3.478,451.144H4.39c1.248,0,1.959,0.903,1.959,2.702v0.192c0,1.799-0.711,2.702-1.959,2.702
		H3.478V451.144z M4.494,455.845c0.464,0,0.864-0.408,0.864-1.807v-0.192c0-1.399-0.4-1.807-0.864-1.807h-0.04v3.806H4.494z
		 M6.83,451.144h2.143v0.928H7.806v1.391h1.031v0.928H7.806v1.423h1.191v0.928H6.83V451.144z M9.294,454.039v-0.192
		c0-1.967,0.728-2.742,1.639-2.742c0.272,0,0.432,0.032,0.64,0.128v1.007c-0.2-0.119-0.36-0.184-0.543-0.184
		c-0.432,0-0.744,0.384-0.744,1.783v0.208c0,1.479,0.312,1.783,0.759,1.783c0.152,0,0.344-0.057,0.544-0.176v0.959
		c-0.224,0.128-0.44,0.168-0.72,0.168C9.974,456.781,9.294,455.989,9.294,454.039z M12.078,451.144h0.976v2.343l0.792-2.343h1.103
		l-0.943,2.366l0.959,3.23h-1.087l-0.607-2.119l-0.216,0.616v1.503h-0.976V451.144z M16.574,451.144h0.847
		c0.944,0,1.823,0.384,1.823,1.423v0.04c0,0.72-0.408,1.071-0.808,1.264c0.472,0.208,0.879,0.535,0.879,1.247v0.072
		c0,0.991-0.768,1.551-1.855,1.551h-0.887V451.144z M17.565,453.495c0.432,0,0.72-0.248,0.72-0.735v-0.017
		c0-0.487-0.288-0.695-0.72-0.695h-0.016v1.447H17.565z M17.573,455.837c0.448,0,0.768-0.264,0.768-0.728v-0.04
		c0-0.464-0.319-0.728-0.768-0.728h-0.024v1.495H17.573z M19.726,451.144h2.143v0.928h-1.167v1.391h1.031v0.928h-1.031v1.423h1.191
		v0.928h-2.167V451.144z M22.366,451.144h0.976v4.669h1.032v0.928h-2.007V451.144z M24.47,454.086v-0.288
		c0-1.847,0.6-2.734,1.487-2.734s1.487,0.888,1.487,2.734v0.288c0,1.847-0.6,2.734-1.487,2.734S24.47,455.933,24.47,454.086z
		 M26.453,454.086v-0.288c0-1.439-0.2-1.839-0.496-1.839s-0.496,0.399-0.496,1.839v0.288c0,1.438,0.2,1.839,0.496,1.839
		S26.453,455.525,26.453,454.086z M27.582,451.144h1l0.408,3.43l0.488-3.43h0.903l0.48,3.43l0.416-3.43h0.976l-0.848,5.612H30.38
		l-0.463-3.317l-0.464,3.317H28.43L27.582,451.144z"/>
	<path class="st2" d="M107.492,436.175l-0.575,0.184v-0.983l0.863-0.271h0.695v5.637h-0.983V436.175z M110.46,439.71h-1.52v-0.744
		l1.472-3.838h0.959v3.742h0.456v0.84h-0.456v1.031h-0.911V439.71z M110.46,438.87v-2.047l-0.728,2.047H110.46z M112.108,438.094
		v-0.304c0-1.936,0.48-2.727,1.384-2.727c0.888,0,1.383,0.791,1.383,2.727v0.304c0,1.935-0.495,2.727-1.383,2.727
		C112.589,440.821,112.108,440.029,112.108,438.094z M113.907,438.086v-0.288c0-1.583-0.191-1.839-0.415-1.839
		c-0.232,0-0.424,0.256-0.424,1.839v0.288c0,1.583,0.191,1.839,0.424,1.839C113.716,439.925,113.907,439.669,113.907,438.086z
		 M115.261,438.094v-0.304c0-1.936,0.479-2.727,1.383-2.727c0.888,0,1.384,0.791,1.384,2.727v0.304c0,1.935-0.496,2.727-1.384,2.727
		C115.74,440.821,115.261,440.029,115.261,438.094z M117.06,438.086v-0.288c0-1.583-0.191-1.839-0.416-1.839
		c-0.231,0-0.424,0.256-0.424,1.839v0.288c0,1.583,0.192,1.839,0.424,1.839C116.868,439.925,117.06,439.669,117.06,438.086z
		 M118.413,438.094v-0.304c0-1.936,0.479-2.727,1.383-2.727c0.888,0,1.383,0.791,1.383,2.727v0.304c0,1.935-0.495,2.727-1.383,2.727
		C118.893,440.821,118.413,440.029,118.413,438.094z M120.212,438.086v-0.288c0-1.583-0.192-1.839-0.416-1.839
		c-0.231,0-0.424,0.256-0.424,1.839v0.288c0,1.583,0.192,1.839,0.424,1.839C120.02,439.925,120.212,439.669,120.212,438.086z
		 M103.861,446.086v-0.288c0-1.847,0.6-2.734,1.486-2.734c0.888,0,1.487,0.888,1.487,2.734v0.288c0,1.847-0.6,2.734-1.487,2.734
		C104.461,448.821,103.861,447.933,103.861,446.086z M105.844,446.086v-0.288c0-1.439-0.2-1.839-0.496-1.839
		s-0.495,0.399-0.495,1.839v0.288c0,1.438,0.199,1.839,0.495,1.839S105.844,447.525,105.844,446.086z M107.316,443.144h0.872
		c1.063,0,1.807,0.575,1.807,1.887v0.016c0,1.264-0.703,1.863-1.695,1.936h-0.008v1.759h-0.976V443.144z M108.3,446.079
		c0.408-0.024,0.72-0.32,0.72-1v-0.016c0-0.712-0.271-1.016-0.695-1.016h-0.032v2.031H108.3z M110.397,443.144h2.144v0.928h-1.168
		v1.391h1.031v0.928h-1.031v1.423h1.191v0.928h-2.167V443.144z M113.037,443.144h0.911l0.983,2.83v-2.83h0.951v5.597h-0.863
		l-1.031-2.967v2.967h-0.951V443.144z M118.252,444.072h-0.688v-0.928h2.351v0.928h-0.688v4.669h-0.976V444.072z M120.068,446.086
		v-0.288c0-1.847,0.6-2.734,1.487-2.734s1.487,0.888,1.487,2.734v0.288c0,1.847-0.6,2.734-1.487,2.734
		S120.068,447.933,120.068,446.086z M122.052,446.086v-0.288c0-1.439-0.2-1.839-0.496-1.839s-0.495,0.399-0.495,1.839v0.288
		c0,1.438,0.199,1.839,0.495,1.839S122.052,447.525,122.052,446.086z M99.825,451.144h0.911c1.247,0,1.959,0.903,1.959,2.702v0.192
		c0,1.799-0.712,2.702-1.959,2.702h-0.911V451.144z M100.841,455.845c0.463,0,0.863-0.408,0.863-1.807v-0.192
		c0-1.399-0.4-1.807-0.863-1.807h-0.04v3.806H100.841z M103.177,451.144h2.143v0.928h-1.167v1.391h1.031v0.928h-1.031v1.423h1.191
		v0.928h-2.167V451.144z M105.641,454.039v-0.192c0-1.967,0.728-2.742,1.64-2.742c0.271,0,0.432,0.032,0.64,0.128v1.007
		c-0.2-0.119-0.36-0.184-0.544-0.184c-0.432,0-0.744,0.384-0.744,1.783v0.208c0,1.479,0.312,1.783,0.76,1.783
		c0.152,0,0.344-0.057,0.544-0.176v0.959c-0.224,0.128-0.439,0.168-0.72,0.168C106.32,456.781,105.641,455.989,105.641,454.039z
		 M108.425,451.144h0.976v2.343l0.791-2.343h1.104l-0.943,2.366l0.96,3.23h-1.088l-0.607-2.119l-0.216,0.616v1.503h-0.976V451.144z
		 M112.921,451.144h0.848c0.943,0,1.822,0.384,1.822,1.423v0.04c0,0.72-0.407,1.071-0.807,1.264
		c0.472,0.208,0.879,0.535,0.879,1.247v0.072c0,0.991-0.768,1.551-1.854,1.551h-0.888V451.144z M113.912,453.495
		c0.432,0,0.72-0.248,0.72-0.735v-0.017c0-0.487-0.288-0.695-0.72-0.695h-0.016v1.447H113.912z M113.92,455.837
		c0.448,0,0.768-0.264,0.768-0.728v-0.04c0-0.464-0.319-0.728-0.768-0.728h-0.023v1.495H113.92z M116.072,451.144h2.144v0.928
		h-1.168v1.391h1.031v0.928h-1.031v1.423h1.191v0.928h-2.167V451.144z M118.713,451.144h0.976v4.669h1.031v0.928h-2.007V451.144z
		 M120.816,454.086v-0.288c0-1.847,0.6-2.734,1.487-2.734s1.487,0.888,1.487,2.734v0.288c0,1.847-0.6,2.734-1.487,2.734
		S120.816,455.933,120.816,454.086z M122.8,454.086v-0.288c0-1.439-0.2-1.839-0.496-1.839s-0.496,0.399-0.496,1.839v0.288
		c0,1.438,0.2,1.839,0.496,1.839S122.8,455.525,122.8,454.086z M123.929,451.144h0.999l0.408,3.43l0.487-3.43h0.904l0.479,3.43
		l0.416-3.43h0.976l-0.848,5.612h-1.023l-0.464-3.317l-0.464,3.317h-1.023L123.929,451.144z"/>
	<path class="st2" d="M57.209,548.936v-0.288c0-1.847,0.6-2.734,1.487-2.734c0.888,0,1.487,0.888,1.487,2.734v0.288
		c0,1.847-0.6,2.734-1.487,2.734C57.809,551.67,57.209,550.783,57.209,548.936z M59.192,548.936v-0.288
		c0-1.439-0.2-1.839-0.496-1.839c-0.295,0-0.496,0.399-0.496,1.839v0.288c0,1.438,0.2,1.839,0.496,1.839
		C58.992,550.775,59.192,550.375,59.192,548.936z M60.665,545.994h0.872c1.063,0,1.807,0.575,1.807,1.887v0.016
		c0,1.264-0.704,1.863-1.695,1.936H61.64v1.759h-0.976V545.994z M61.648,548.928c0.408-0.024,0.719-0.32,0.719-1v-0.016
		c0-0.712-0.272-1.016-0.695-1.016H61.64v2.031H61.648z M63.745,545.994h2.143v0.928H64.72v1.391h1.032v0.928H64.72v1.423h1.191
		v0.928h-2.167V545.994z M66.385,545.994h0.911l0.983,2.83v-2.83h0.952v5.597h-0.864l-1.031-2.967v2.967h-0.951V545.994z
		 M71.601,546.921h-0.688v-0.928h2.351v0.928h-0.688v4.669h-0.975V546.921z M73.417,548.936v-0.288c0-1.847,0.6-2.734,1.486-2.734
		c0.888,0,1.487,0.888,1.487,2.734v0.288c0,1.847-0.6,2.734-1.487,2.734C74.017,551.67,73.417,550.783,73.417,548.936z
		 M75.399,548.936v-0.288c0-1.439-0.2-1.839-0.496-1.839c-0.295,0-0.495,0.399-0.495,1.839v0.288c0,1.438,0.2,1.839,0.495,1.839
		C75.199,550.775,75.399,550.375,75.399,548.936z M61.177,553.994h0.912c1.247,0,1.958,0.903,1.958,2.702v0.192
		c0,1.799-0.711,2.702-1.958,2.702h-0.912V553.994z M62.192,558.695c0.463,0,0.863-0.408,0.863-1.807v-0.192
		c0-1.399-0.4-1.807-0.863-1.807h-0.04v3.806H62.192z M64.529,553.994h2.143v0.928h-1.168v1.391h1.031v0.928h-1.031v1.423h1.191
		v0.928h-2.167V553.994z M66.992,556.888v-0.192c0-1.967,0.728-2.742,1.64-2.742c0.271,0,0.432,0.032,0.64,0.128v1.007
		c-0.2-0.119-0.36-0.184-0.544-0.184c-0.432,0-0.743,0.384-0.743,1.783v0.208c0,1.479,0.312,1.783,0.759,1.783
		c0.152,0,0.345-0.057,0.544-0.176v0.959c-0.224,0.128-0.439,0.168-0.72,0.168C67.672,559.63,66.992,558.838,66.992,556.888z
		 M69.776,553.994h0.976v2.343l0.792-2.343h1.104l-0.944,2.366l0.96,3.23h-1.088l-0.607-2.119l-0.216,0.616v1.503h-0.976V553.994z
		 M59.085,561.994h0.847c0.944,0,1.823,0.384,1.823,1.423v0.04c0,0.72-0.408,1.071-0.808,1.264c0.472,0.208,0.879,0.535,0.879,1.247
		v0.072c0,0.991-0.768,1.551-1.855,1.551h-0.887V561.994z M60.076,564.344c0.432,0,0.72-0.248,0.72-0.735v-0.017
		c0-0.487-0.288-0.695-0.72-0.695H60.06v1.447H60.076z M60.084,566.687c0.448,0,0.768-0.264,0.768-0.728v-0.04
		c0-0.464-0.32-0.728-0.768-0.728H60.06v1.495H60.084z M62.237,561.994h2.143v0.928h-1.167v1.391h1.032v0.928h-1.032v1.423h1.191
		v0.928h-2.167V561.994z M64.876,561.994h0.976v4.669h1.031v0.928h-2.007V561.994z M66.98,564.936v-0.288
		c0-1.847,0.6-2.734,1.487-2.734s1.487,0.888,1.487,2.734v0.288c0,1.847-0.6,2.734-1.487,2.734S66.98,566.783,66.98,564.936z
		 M68.964,564.936v-0.288c0-1.439-0.2-1.839-0.496-1.839s-0.496,0.399-0.496,1.839v0.288c0,1.438,0.2,1.839,0.496,1.839
		S68.964,566.375,68.964,564.936z M70.093,561.994h0.999l0.408,3.43l0.487-3.43h0.904l0.479,3.43l0.416-3.43h0.975l-0.847,5.612
		h-1.023l-0.464-3.317l-0.464,3.317H70.94L70.093,561.994z"/>
	<path class="st2" d="M44.723,19.344h-0.688v-0.928h2.351v0.928h-0.688v4.669h-0.975V19.344z M46.795,18.417h0.975v2.319h0.848
		v-2.319h0.976v5.597h-0.976v-2.351h-0.848v2.351h-0.975V18.417z M50.171,18.417h2.143v0.928h-1.167v1.391h1.032v0.928h-1.032v1.423
		h1.191v0.927h-2.167V18.417z M54.083,18.417h0.976v2.319h0.848v-2.319h0.975v5.597h-0.975v-2.351h-0.848v2.351h-0.976V18.417z
		 M58.243,18.401h1.04l1.063,5.613H59.37l-0.184-1.111h-0.887l-0.176,1.111h-0.943L58.243,18.401z M59.042,22.023l-0.296-1.847
		l-0.304,1.847H59.042z M60.283,18.417h0.991l0.528,3.646l0.528-3.646h0.959l-1,5.613h-1.007L60.283,18.417z M63.587,18.417h2.143
		v0.928h-1.167v1.391h1.031v0.928h-1.031v1.423h1.191v0.927h-2.167V18.417z M66.227,18.417h0.912l0.983,2.831v-2.831h0.951v5.597
		H68.21l-1.031-2.966v2.966h-0.952V18.417z M70.803,23.822v-1.016c0.344,0.2,0.616,0.312,0.88,0.312c0.279,0,0.52-0.136,0.52-0.48
		v-0.016c0-0.256-0.08-0.448-0.544-0.976c-0.663-0.751-0.936-1.111-0.936-1.791V19.84c0-0.896,0.584-1.463,1.359-1.463
		c0.392,0,0.624,0.056,0.863,0.176v1.015c-0.304-0.176-0.487-0.256-0.743-0.256c-0.271,0-0.504,0.176-0.504,0.48v0.016
		c0,0.264,0.08,0.36,0.544,0.896c0.768,0.887,0.936,1.231,0.936,1.871v0.016c0,0.88-0.616,1.463-1.384,1.463
		C71.41,24.054,71.083,23.958,70.803,23.822z M73.507,22.382v-3.966h0.968v4.062c0,0.504,0.176,0.704,0.424,0.704
		c0.247,0,0.423-0.2,0.423-0.704v-4.062h0.968v3.966c0,1.176-0.592,1.703-1.391,1.703C74.099,24.085,73.507,23.558,73.507,22.382z
		 M76.851,18.417h0.911l0.983,2.831v-2.831h0.952v5.597h-0.863l-1.032-2.966v2.966h-0.951V18.417z M81.547,18.417h0.911
		c1.247,0,1.959,0.904,1.959,2.703v0.192c0,1.799-0.712,2.703-1.959,2.703h-0.911V18.417z M82.562,23.118
		c0.464,0,0.864-0.408,0.864-1.807v-0.192c0-1.399-0.4-1.807-0.864-1.807h-0.039v3.806H82.562z M84.898,18.417h2.143v0.928h-1.167
		v1.391h1.031v0.928h-1.031v1.423h1.191v0.927h-2.167V18.417z M87.362,21.311v-0.192c0-1.967,0.728-2.742,1.64-2.742
		c0.271,0,0.432,0.032,0.64,0.128v1.007c-0.2-0.12-0.36-0.184-0.544-0.184c-0.432,0-0.744,0.384-0.744,1.783v0.208
		c0,1.479,0.312,1.783,0.76,1.783c0.152,0,0.344-0.056,0.544-0.176v0.959c-0.224,0.128-0.439,0.168-0.72,0.168
		C88.042,24.054,87.362,23.262,87.362,21.311z M90.147,18.417h0.976v2.343l0.791-2.343h1.104l-0.943,2.367l0.96,3.23h-1.088
		l-0.607-2.119l-0.216,0.615v1.503h-0.976V18.417z"/>
</g>
<g id="GEM_DECK_15_ROOMS">
	<g id="gDeck15HavenDeluxeOwnersSuiteLargeBalconyH2">
		<g id="hDeck15HavenDeluxeOwnersSuiteLargeBalconyH2">
			<g id="g15000">
				<g id="h15000">
					<path id="b15000" class="st3" d="M68.499,402.228c-0.086,0-2.767,0-2.852,0v38.833l14.524,0.067l-0.107-11.442l22.312-22.813
						C102.376,406.873,93.499,402.228,68.499,402.228z"/>
					<path id="t15000" class="st2" d="M73.466,410.89l0.279-0.472h0.911v4.142h-0.485v-3.67H73.466z M77.1,410.89l-0.253,0.852
						l0.285-0.016c0.786,0,1.304,0.687,1.304,1.449c0,0.874-0.668,1.473-1.503,1.473c-0.501,0-1.002-0.27-1.238-0.725l0.377-0.363
						c0.123,0.352,0.538,0.615,0.899,0.615c0.549,0,0.98-0.461,0.98-1.016c0-0.533-0.447-0.983-0.97-0.983
						c-0.286,0-0.582,0.137-0.76,0.368h-0.097l0.625-2.126h1.626v0.472H77.1z M78.873,412.489c0-0.851,0.366-2.158,1.416-2.158
						c1.051,0,1.417,1.308,1.417,2.158c0,0.847-0.372,2.159-1.417,2.159S78.873,413.335,78.873,412.489z M79.357,412.484
						c0,0.571,0.205,1.703,0.932,1.703c0.728,0,0.933-1.132,0.933-1.703s-0.205-1.714-0.933-1.714
						C79.563,410.77,79.357,411.913,79.357,412.484z M82.181,412.489c0-0.851,0.367-2.158,1.417-2.158
						c1.051,0,1.417,1.308,1.417,2.158c0,0.847-0.372,2.159-1.417,2.159S82.181,413.335,82.181,412.489z M82.666,412.484
						c0,0.571,0.204,1.703,0.932,1.703s0.932-1.132,0.932-1.703s-0.204-1.714-0.932-1.714S82.666,411.913,82.666,412.484z
						 M85.489,412.489c0-0.851,0.366-2.158,1.417-2.158c1.05,0,1.416,1.308,1.416,2.158c0,0.847-0.371,2.159-1.416,2.159
						S85.489,413.335,85.489,412.489z M85.975,412.484c0,0.571,0.204,1.703,0.932,1.703c0.727,0,0.932-1.132,0.932-1.703
						s-0.205-1.714-0.932-1.714C86.179,410.77,85.975,411.913,85.975,412.484z"/>
				</g>
			</g>
			<g id="g15500">
				<g id="h15500">
					<path id="b15500" class="st3" d="M29.064,407.061l21.5,23.667l0.167,42.667l14.656-0.096l0.26-28.314v-3.923v-38.833
						C40.872,402.246,36.371,404.902,29.064,407.061z"/>
					<path id="t15500" class="st2" d="M43.575,410.89l0.28-0.472h0.911v4.142h-0.485v-3.67H43.575z M47.21,410.89l-0.253,0.852
						l0.286-0.016c0.786,0,1.303,0.687,1.303,1.449c0,0.874-0.667,1.473-1.502,1.473c-0.501,0-1.002-0.27-1.239-0.725l0.377-0.363
						c0.124,0.352,0.539,0.615,0.899,0.615c0.549,0,0.98-0.461,0.98-1.016c0-0.533-0.447-0.983-0.97-0.983
						c-0.286,0-0.582,0.137-0.759,0.368h-0.097l0.625-2.126h1.626v0.472H47.21z M50.351,410.89l-0.253,0.852l0.285-0.016
						c0.787,0,1.304,0.687,1.304,1.449c0,0.874-0.668,1.473-1.503,1.473c-0.501,0-1.002-0.27-1.239-0.725l0.377-0.363
						c0.124,0.352,0.539,0.615,0.899,0.615c0.549,0,0.98-0.461,0.98-1.016c0-0.533-0.447-0.983-0.97-0.983
						c-0.285,0-0.582,0.137-0.759,0.368h-0.097l0.625-2.126h1.626v0.472H50.351z M52.124,412.489c0-0.851,0.367-2.158,1.417-2.158
						s1.417,1.308,1.417,2.158c0,0.847-0.372,2.159-1.417,2.159S52.124,413.335,52.124,412.489z M52.609,412.484
						c0,0.571,0.205,1.703,0.932,1.703c0.727,0,0.932-1.132,0.932-1.703s-0.205-1.714-0.932-1.714
						C52.814,410.77,52.609,411.913,52.609,412.484z M55.433,412.489c0-0.851,0.366-2.158,1.417-2.158s1.417,1.308,1.417,2.158
						c0,0.847-0.372,2.159-1.417,2.159S55.433,413.335,55.433,412.489z M55.918,412.484c0,0.571,0.205,1.703,0.932,1.703
						s0.932-1.132,0.932-1.703s-0.205-1.714-0.932-1.714S55.918,411.913,55.918,412.484z"/>
				</g>
			</g>
		</g>
	</g>
</g>
<g id="GEM_DECK_15_TOP">
	<line class="st1" x1="50.939" y1="455.185" x2="65.439" y2="455.185"/>
	<line class="st1" x1="50.939" y1="457.498" x2="65.439" y2="457.498"/>
	<line class="st1" x1="50.939" y1="459.81" x2="65.439" y2="459.81"/>
	<line class="st1" x1="50.939" y1="462.123" x2="65.439" y2="462.123"/>
	<line class="st1" x1="50.939" y1="464.435" x2="65.439" y2="464.435"/>
	<line class="st1" x1="50.939" y1="466.748" x2="65.439" y2="466.748"/>
	<line class="st1" x1="50.939" y1="469.06" x2="65.439" y2="469.06"/>
	<line class="st1" x1="50.939" y1="471.373" x2="65.439" y2="471.373"/>
	<path class="st1" d="M57.939,455.103v-25.752h5.875c9.084,0,7.667,9.502,1.417,9.502"/>
	<polygon class="st4" points="70.054,0.5 61.574,0.5 29.964,0.5 29.964,59.77 34.103,63.909 44.453,63.909 44.453,94.015 
		38.717,94.015 38.717,97.966 44.453,97.966 44.453,120.545 87.175,120.545 87.175,63.909 97.524,63.909 101.663,59.77 101.663,0.5 
			"/>
	<polyline class="st1" points="28.397,406.935 50.731,430.519 50.744,473.049 	"/>
	<polyline class="st1" points="65.598,440.98 80.064,440.998 80.064,429.686 102.376,406.873 	"/>
	<polyline class="st1" points="65.598,441.061 65.387,473.298 50.514,473.28 	"/>
	<path class="st4" d="M71.046,402.341h7.861c0,0,33.197,1.307,51.729,21.592v226.775h-5.352v-6.21H94.751v126.845H36.384V644.499
		H5.852v6.21H0.5V423.933c18.531-20.285,51.728-21.592,51.728-21.592h7.861H71.046z"/>
	<g id="gDeck15Locations">
		<rect id="_x31_5Aft" x="0.364" y="529.057" class="st5" width="130.409" height="242.786"/>
		<rect id="_x31_5Middle" x="0.364" y="230.108" class="st5" width="130.409" height="298.95"/>
		<rect id="_x31_5Forward" x="0.364" y="0.5" class="st5" width="130.409" height="229.608"/>
	</g>
</g>
</svg>
