<?xml version="1.0" encoding="utf-8"?>
<!-- Generator: Adobe Illustrator 25.4.1, SVG Export Plug-In . SVG Version: 6.00 Build 0)  -->
<svg version="1.1" id="SKY_DECK_04" xmlns="http://www.w3.org/2000/svg" xmlns:xlink="http://www.w3.org/1999/xlink" x="0px"
	 y="0px" width="115.9px" height="851.2px" viewBox="0 0 115.9 851.2" style="enable-background:new 0 0 115.9 851.2;"
	 xml:space="preserve">
<style type="text/css">
	.st0{fill:#FFFFFF;}
	.st1{fill:none;stroke:#D5DCE0;stroke-width:0.5;}
	.st2{fill:#EFF2F5;stroke:#FFFFFF;stroke-width:0.5;stroke-miterlimit:10;}
	.st3{fill:#6E8496;}
	.st4{fill:none;}
	.st5{fill:none;stroke:#076FA0;stroke-miterlimit:10;}
</style>
<g id="SKY_DECK_04_BOTTOM">
	<path class="st0" d="M7.4,844.3c-7.5-2.5-6.9-8-6.9-8s0-568.4,0-623c0-65.5,15.2-118,26.2-144.7C37.7,41.9,52.9,7.2,54.1,5
		s2.6-4.5,3.8-4.5l0,0c1.3,0,2.6,2.2,3.8,4.5s16.4,36.9,27.4,63.6c11,26.7,26.2,79.2,26.2,144.7c0,54.7,0,622.9,0,622.9
		s0.1,5.9-6.9,8c-6.9,2.1-24.2,6.5-50.4,6.5C31.8,850.7,14.8,846.7,7.4,844.3z"/>
	<polyline class="st1" points="45.9,246.7 53.9,256.8 45.9,266.5 	"/>
	<polyline class="st1" points="54.1,247 45.9,256.8 53.9,266.5 	"/>
	<polyline class="st1" points="70,246.7 62,256.8 70,266.5 	"/>
	<polyline class="st1" points="61.8,247 70,256.8 62,266.5 	"/>
	<path class="st1" d="M51.7,235.5c0.3,0,0.5-0.3,0.5-0.6"/>
	<line class="st1" x1="45.8" y1="235.5" x2="51.7" y2="235.5"/>
	<line class="st1" x1="52.1" y1="234.9" x2="52.1" y2="232.6"/>
	<line class="st1" x1="52.1" y1="232.6" x2="63.6" y2="232.6"/>
	<path class="st1" d="M63.6,234.9c0,0.3,0.2,0.6,0.5,0.6"/>
	<line class="st1" x1="63.6" y1="232.6" x2="63.6" y2="234.9"/>
	<line class="st1" x1="64.1" y1="235.5" x2="69.9" y2="235.5"/>
	<line class="st1" x1="57.7" y1="221.4" x2="57.7" y2="235.7"/>
	<line class="st1" x1="58" y1="221.4" x2="58" y2="235.7"/>
	<line class="st1" x1="46.1" y1="222.1" x2="57.7" y2="222.1"/>
	<line class="st1" x1="57.7" y1="235.7" x2="58" y2="235.7"/>
	<line class="st1" x1="57.7" y1="221.4" x2="58" y2="221.4"/>
	<line class="st1" x1="58" y1="222.1" x2="70" y2="222.1"/>
	<line class="st1" x1="58" y1="223.6" x2="63.1" y2="223.6"/>
	<line class="st1" x1="58" y1="225.2" x2="63.1" y2="225.2"/>
	<line class="st1" x1="58" y1="226.7" x2="63.1" y2="226.7"/>
	<line class="st1" x1="58" y1="228.2" x2="63.1" y2="228.2"/>
	<line class="st1" x1="58" y1="229.7" x2="63.1" y2="229.7"/>
	<line class="st1" x1="58" y1="231.2" x2="63.1" y2="231.2"/>
	<line class="st1" x1="58" y1="234.3" x2="63.6" y2="234.3"/>
	<line class="st1" x1="52.6" y1="223.6" x2="57.7" y2="223.6"/>
	<line class="st1" x1="52.6" y1="225.2" x2="57.7" y2="225.2"/>
	<line class="st1" x1="52.6" y1="226.7" x2="57.7" y2="226.7"/>
	<line class="st1" x1="52.6" y1="228.2" x2="57.7" y2="228.2"/>
	<line class="st1" x1="52.6" y1="229.7" x2="57.7" y2="229.7"/>
	<line class="st1" x1="52.6" y1="231.2" x2="57.7" y2="231.2"/>
	<line class="st1" x1="52.1" y1="234.3" x2="57.7" y2="234.3"/>
	<line class="st1" x1="70.1" y1="234" x2="64" y2="234"/>
	<line class="st1" x1="70" y1="232.5" x2="63.4" y2="232.5"/>
	<line class="st1" x1="70.1" y1="231" x2="64" y2="231"/>
	<line class="st1" x1="70" y1="229.5" x2="64" y2="229.5"/>
	<line class="st1" x1="52.2" y1="234" x2="46" y2="234"/>
	<line class="st1" x1="52.2" y1="232.5" x2="45.9" y2="232.5"/>
	<line class="st1" x1="51.7" y1="231" x2="45.9" y2="231"/>
	<line class="st1" x1="51.7" y1="229.5" x2="45.9" y2="229.5"/>
	<path class="st1" d="M64.1,221.2c0-0.3-0.2-0.6-0.5-0.6s-0.5,0.3-0.5,0.6l0,0"/>
	<line class="st1" x1="63.2" y1="221.2" x2="63.2" y2="221.4"/>
	<line class="st1" x1="64.1" y1="221.2" x2="64.1" y2="221.4"/>
	<path class="st1" d="M52.6,221.2c0-0.3-0.2-0.6-0.5-0.6c-0.3,0-0.5,0.3-0.5,0.6l0,0"/>
	<line class="st1" x1="51.7" y1="221.2" x2="51.7" y2="221.4"/>
	<line class="st1" x1="52.6" y1="221.2" x2="52.6" y2="221.4"/>
	<line class="st1" x1="63.6" y1="221.4" x2="63.6" y2="232.5"/>
	<line class="st1" x1="69.9" y1="226.5" x2="64" y2="226.5"/>
	<line class="st1" x1="69.9" y1="225" x2="64" y2="225"/>
	<line class="st1" x1="69.9" y1="223.5" x2="64" y2="223.5"/>
	<line class="st1" x1="70" y1="228" x2="64" y2="228"/>
	<line class="st1" x1="52.2" y1="221.4" x2="52.2" y2="232.7"/>
	<line class="st1" x1="51.7" y1="226.5" x2="46" y2="226.5"/>
	<line class="st1" x1="51.7" y1="225" x2="46" y2="225"/>
	<line class="st1" x1="51.7" y1="223.5" x2="46" y2="223.5"/>
	<line class="st1" x1="51.8" y1="228" x2="45.8" y2="228"/>
	<line class="st1" x1="26.9" y1="266.7" x2="26.9" y2="396"/>
	<line class="st1" x1="89" y1="266.7" x2="89" y2="514.7"/>
	<polyline class="st1" points="61.8,266.7 61.8,272 58,272 54.1,272 54.1,266.7 	"/>
	<line class="st1" x1="45.9" y1="216.7" x2="70" y2="216.7"/>
	<line class="st1" x1="20.4" y1="216.7" x2="26.9" y2="216.7"/>
	<line class="st1" x1="89" y1="216.7" x2="95.5" y2="216.7"/>
	<polyline class="st1" points="69.7,246.8 61.8,246.8 61.8,267 69.7,267 	"/>
	<polyline class="st1" points="46.1,246.7 54.2,246.7 54.2,266.9 46.1,266.9 	"/>
	<line class="st1" x1="46.2" y1="256.8" x2="54.4" y2="256.8"/>
	<line class="st1" x1="61.6" y1="256.8" x2="70" y2="256.8"/>
	<line class="st1" x1="0.6" y1="514.6" x2="95.4" y2="514.6"/>
</g>
<g id="SKY_DECK_04_ROOMS">
	<g id="gDeck04SailAwayOceanviewOX">
		<g id="hDeck04SailAwayOceanviewOX">
			<g id="g4206">
				<g id="h4206">
					<rect id="b4206" x="95.5" y="266.7" class="st2" width="19.8" height="9.9"/>
					<path id="t4206" class="st3" d="M102.2,272.3v0.5h-0.5v0.6h-0.5v-0.6h-2l2.5-3.7v3.3H102.2z M101.2,270.6L101.2,270.6l-1.2,1.7
						h1.2L101.2,270.6L101.2,270.6z M105.1,272.9v0.5h-2.6l1.8-2.2c0.2-0.2,0.4-0.5,0.4-0.7c0-0.4-0.4-0.8-0.8-0.8
						c-0.4,0-0.8,0.3-0.8,0.8h-0.5c0.1-0.7,0.6-1.2,1.3-1.2c0.7,0,1.3,0.5,1.3,1.2c0,0.3-0.1,0.6-0.3,0.9l-1.3,1.7L105.1,272.9
						L105.1,272.9z M105.5,271.3c0-0.9,0.4-2.2,1.4-2.2c1.1,0,1.4,1.3,1.4,2.2c0,0.8-0.4,2.2-1.4,2.2S105.5,272.2,105.5,271.3z
						 M106,271.3c0,0.6,0.2,1.7,0.9,1.7s0.9-1.1,0.9-1.7s-0.2-1.7-0.9-1.7S106,270.7,106,271.3z M111,269.4l-1.1,1.5l0,0
						c0.1-0.1,0.3-0.1,0.4-0.1c0.7,0,1.2,0.6,1.2,1.3c0,0.8-0.6,1.4-1.3,1.4c-0.7,0-1.4-0.6-1.4-1.3c0-0.4,0.2-0.8,0.4-1.1l1.4-1.9
						L111,269.4z M111,272.2c0-0.5-0.4-0.9-0.9-0.9c-0.4,0-0.9,0.4-0.9,0.9c0,0.5,0.4,0.9,0.9,0.9C110.6,273,111,272.6,111,272.2z"
						/>
				</g>
			</g>
		</g>
	</g>
	<g id="gDeck04InsideIF">
		<g id="hDeck04InsideIF">
			<g id="g4103">
				<g id="h4103">
					<rect id="b4103" x="26.9" y="247" class="st2" width="19" height="9.8"/>
					<path id="t4103" class="st3" d="M33.4,252.5v0.4H33v0.6h-0.5V253h-2l2.5-3.7v3.3H33.4z M32.5,250.8L32.5,250.8l-1.2,1.7h1.2
						L32.5,250.8L32.5,250.8z M33.9,249.9l0.3-0.5h0.9v4.1h-0.5v-3.7L33.9,249.9L33.9,249.9z M36.3,251.5c0-0.9,0.4-2.2,1.4-2.2
						s1.4,1.3,1.4,2.2c0,0.8-0.4,2.2-1.4,2.2S36.3,252.3,36.3,251.5z M36.7,251.5c0,0.6,0.2,1.7,0.9,1.7s0.9-1.1,0.9-1.7
						s-0.2-1.7-0.9-1.7S36.7,250.9,36.7,251.5z M40.7,251.2c0.4,0,0.8-0.2,0.8-0.7c0-0.4-0.3-0.7-0.7-0.7c-0.4,0-0.6,0.2-0.7,0.6
						h-0.5c0.1-0.7,0.5-1,1.2-1c0.6,0,1.2,0.4,1.2,1.1c0,0.4-0.2,0.7-0.5,0.9c0.4,0.2,0.6,0.6,0.6,1c0,0.8-0.6,1.2-1.3,1.2
						c-0.6,0-1.2-0.4-1.2-1.1H40c0,0.4,0.4,0.7,0.8,0.7c0.5,0,0.8-0.4,0.8-0.8c0-0.5-0.4-0.8-0.9-0.8
						C40.7,251.6,40.7,251.2,40.7,251.2z"/>
				</g>
			</g>
			<g id="g4303">
				<g id="h4303">
					<polygon id="b4303" class="st2" points="69.9,256.7 69.9,246.8 88.9,246.8 88.9,256.8 					"/>
					<path id="t4303" class="st3" d="M76.2,252.5v0.4h-0.5v0.6h-0.5V253h-2l2.5-3.7v3.3H76.2z M75.2,250.8L75.2,250.8l-1.2,1.7h1.2
						L75.2,250.8L75.2,250.8z M77.9,251.2c0.4,0,0.8-0.2,0.8-0.7c0-0.4-0.3-0.7-0.7-0.7c-0.4,0-0.6,0.2-0.7,0.6h-0.5
						c0.1-0.7,0.5-1,1.2-1c0.6,0,1.2,0.4,1.2,1.1c0,0.4-0.2,0.7-0.5,0.9c0.4,0.2,0.6,0.6,0.6,1c0,0.8-0.6,1.2-1.3,1.2
						c-0.6,0-1.2-0.4-1.2-1.1h0.5c0,0.4,0.4,0.7,0.8,0.7c0.5,0,0.8-0.4,0.8-0.8c0-0.5-0.4-0.8-0.9-0.8L77.9,251.2L77.9,251.2z
						 M79.8,251.5c0-0.9,0.4-2.2,1.4-2.2c1.1,0,1.4,1.3,1.4,2.2c0,0.8-0.4,2.2-1.4,2.2C80.1,253.7,79.8,252.3,79.8,251.5z
						 M80.2,251.5c0,0.6,0.2,1.7,0.9,1.7c0.7,0,0.9-1.1,0.9-1.7s-0.2-1.7-0.9-1.7C80.4,249.8,80.2,250.9,80.2,251.5z M84.2,251.2
						c0.4,0,0.8-0.2,0.8-0.7c0-0.4-0.3-0.7-0.7-0.7c-0.4,0-0.6,0.2-0.7,0.6h-0.5c0.1-0.7,0.5-1,1.2-1c0.6,0,1.2,0.4,1.2,1.1
						c0,0.4-0.2,0.7-0.5,0.9c0.4,0.2,0.6,0.6,0.6,1c0,0.8-0.6,1.2-1.3,1.2c-0.6,0-1.2-0.4-1.2-1.1h0.5c0,0.4,0.4,0.7,0.8,0.7
						c0.5,0,0.8-0.4,0.8-0.8c0-0.5-0.4-0.8-0.9-0.8L84.2,251.2L84.2,251.2z"/>
				</g>
			</g>
		</g>
	</g>
	<g id="gDeck04SailAwayInsideIX">
		<g id="hDeck04SailAwayInsideIX">
			<g id="g4101">
				<g id="h4101">
					<rect id="b4101" x="26.9" y="216.7" class="st2" width="19" height="10.5"/>
					<path id="t4101" class="st3" d="M33.6,223.3v0.4h-0.5v0.6h-0.5v-0.6h-2l2.5-3.7v3.3H33.6z M32.6,221.6L32.6,221.6l-1.2,1.7h1.2
						V221.6z M34.1,220.7l0.3-0.5h0.9v4.1h-0.5v-3.7L34.1,220.7L34.1,220.7z M36.4,222.3c0-0.9,0.4-2.2,1.4-2.2s1.4,1.3,1.4,2.2
						c0,0.8-0.4,2.2-1.4,2.2S36.4,223.1,36.4,222.3z M36.9,222.3c0,0.6,0.2,1.7,0.9,1.7s0.9-1.1,0.9-1.7s-0.2-1.7-0.9-1.7
						S36.9,221.7,36.9,222.3z M39.8,220.7l0.3-0.5h0.9v4.1h-0.5v-3.7L39.8,220.7L39.8,220.7z M33.6,223.3v0.4h-0.5v0.6h-0.5v-0.6h-2
						l2.5-3.7v3.3H33.6z M32.6,221.6L32.6,221.6l-1.2,1.7h1.2V221.6z M34.1,220.7l0.3-0.5h0.9v4.1h-0.5v-3.7L34.1,220.7L34.1,220.7z
						 M36.4,222.3c0-0.9,0.4-2.2,1.4-2.2s1.4,1.3,1.4,2.2c0,0.8-0.4,2.2-1.4,2.2S36.4,223.1,36.4,222.3z M36.9,222.3
						c0,0.6,0.2,1.7,0.9,1.7s0.9-1.1,0.9-1.7s-0.2-1.7-0.9-1.7S36.9,221.7,36.9,222.3z M39.8,220.7l0.3-0.5h0.9v4.1h-0.5v-3.7
						L39.8,220.7L39.8,220.7z"/>
				</g>
			</g>
		</g>
	</g>
	<g id="gDeck04FamilyInsideI4">
		<g id="hDeck04FamilyInsideI4">
			<g id="g4102">
				<g id="h4102">
					<rect id="b4102" x="26.9" y="227.2" class="st2" width="19" height="9.9"/>
					<path id="t4102" class="st3" d="M33.4,232.9v0.4H33v0.6h-0.5v-0.6h-2l2.5-3.7v3.3H33.4z M32.5,231.2L32.5,231.2l-1.2,1.7h1.2
						L32.5,231.2L32.5,231.2z M33.9,230.3l0.3-0.5h0.9v4.1h-0.5v-3.7L33.9,230.3L33.9,230.3z M36.3,231.9c0-0.9,0.4-2.2,1.4-2.2
						s1.4,1.3,1.4,2.2c0,0.8-0.4,2.2-1.4,2.2S36.3,232.8,36.3,231.9z M36.7,231.9c0,0.6,0.2,1.7,0.9,1.7c0.7,0,0.9-1.1,0.9-1.7
						s-0.2-1.7-0.9-1.7C36.9,230.2,36.7,231.4,36.7,231.9z M42.1,233.5v0.5h-2.6l1.8-2.2c0.2-0.2,0.4-0.5,0.4-0.7
						c0-0.4-0.4-0.8-0.8-0.8c-0.4,0-0.8,0.3-0.8,0.8h-0.5c0.1-0.7,0.5-1.2,1.3-1.2c0.7,0,1.3,0.5,1.3,1.2c0,0.3-0.1,0.6-0.3,0.9
						l-1.3,1.7H42.1z"/>
				</g>
			</g>
			<g id="g4301">
				<g id="h4301">
					<rect id="b4301" x="70" y="216.7" class="st2" width="19" height="10.5"/>
					<path id="t4301" class="st3" d="M76.3,223.3v0.4h-0.5v0.6h-0.5v-0.6h-2l2.5-3.7v3.3H76.3z M75.4,221.6L75.4,221.6l-1.2,1.7h1.2
						L75.4,221.6L75.4,221.6z M78,221.9c0.4,0,0.8-0.2,0.8-0.7c0-0.4-0.3-0.7-0.7-0.7c-0.4,0-0.6,0.2-0.7,0.6h-0.5
						c0.1-0.7,0.5-1,1.2-1c0.6,0,1.2,0.4,1.2,1.1c0,0.4-0.2,0.7-0.5,0.9c0.4,0.2,0.6,0.6,0.6,1c0,0.8-0.6,1.2-1.3,1.2
						c-0.6,0-1.2-0.4-1.2-1.1h0.5c0,0.4,0.4,0.7,0.8,0.7c0.5,0,0.8-0.4,0.8-0.8c0-0.5-0.4-0.8-0.9-0.8L78,221.9L78,221.9z
						 M79.9,222.3c0-0.9,0.4-2.2,1.4-2.2c1.1,0,1.4,1.3,1.4,2.2c0,0.8-0.4,2.2-1.4,2.2S79.9,223.1,79.9,222.3z M80.4,222.3
						c0,0.6,0.2,1.7,0.9,1.7c0.7,0,0.9-1.1,0.9-1.7s-0.2-1.7-0.9-1.7C80.6,220.6,80.4,221.7,80.4,222.3z M83.3,220.7l0.3-0.5h0.9
						v4.1H84v-3.7L83.3,220.7L83.3,220.7z"/>
				</g>
			</g>
			<g id="g4302">
				<g id="h4302">
					<rect id="b4302" x="70" y="227.2" class="st2" width="19" height="9.9"/>
					<path id="t4302" class="st3" d="M76.2,232.9v0.4h-0.5v0.6h-0.5v-0.6h-2l2.5-3.7v3.3H76.2z M75.2,231.2L75.2,231.2l-1.2,1.7h1.2
						V231.2z M77.9,231.6c0.4,0,0.8-0.2,0.8-0.7c0-0.4-0.3-0.7-0.7-0.7c-0.4,0-0.6,0.2-0.7,0.6h-0.5c0.1-0.7,0.5-1,1.2-1
						c0.6,0,1.2,0.4,1.2,1.1c0,0.4-0.2,0.7-0.5,0.9c0.4,0.2,0.6,0.6,0.6,1c0,0.8-0.6,1.2-1.3,1.2c-0.6,0-1.2-0.4-1.2-1.1h0.5
						c0,0.4,0.4,0.7,0.8,0.7c0.5,0,0.8-0.4,0.8-0.8c0-0.5-0.4-0.8-0.9-0.8L77.9,231.6L77.9,231.6z M79.7,231.9
						c0-0.9,0.4-2.2,1.4-2.2c1.1,0,1.4,1.3,1.4,2.2c0,0.8-0.4,2.2-1.4,2.2S79.7,232.8,79.7,231.9z M80.2,231.9
						c0,0.6,0.2,1.7,0.9,1.7s0.9-1.1,0.9-1.7s-0.2-1.7-0.9-1.7S80.2,231.4,80.2,231.9z M85.6,233.5v0.5H83l1.8-2.2
						c0.2-0.2,0.4-0.5,0.4-0.7c0-0.4-0.4-0.8-0.8-0.8c-0.4,0-0.8,0.3-0.8,0.8H83c0.1-0.7,0.6-1.2,1.3-1.2c0.7,0,1.3,0.5,1.3,1.2
						c0,0.3-0.1,0.6-0.3,0.9l-1.3,1.7H85.6z"/>
				</g>
			</g>
			<g id="g4104">
				<g id="h4104">
					<rect id="b4104" x="26.9" y="256.9" class="st2" width="19" height="9.8"/>
					<path id="t4104" class="st3" d="M33.4,262.4v0.5h-0.5v0.6h-0.5v-0.6h-2l2.5-3.7v3.3H33.4z M32.5,260.7L32.5,260.7l-1.2,1.7h1.2
						C32.5,262.4,32.5,260.7,32.5,260.7z M33.9,259.8l0.3-0.5h0.9v4.1h-0.5v-3.7L33.9,259.8C33.9,259.8,33.9,259.8,33.9,259.8z
						 M36.2,261.4c0-0.9,0.4-2.2,1.4-2.2s1.4,1.3,1.4,2.2c0,0.8-0.4,2.2-1.4,2.2C36.6,263.6,36.2,262.3,36.2,261.4z M36.7,261.4
						c0,0.6,0.2,1.7,0.9,1.7c0.7,0,0.9-1.1,0.9-1.7s-0.2-1.7-0.9-1.7C36.9,259.7,36.7,260.8,36.7,261.4z M42.2,262.4v0.5h-0.5v0.6
						h-0.5v-0.6h-2l2.5-3.7v3.3H42.2z M41.3,260.7L41.3,260.7l-1.2,1.7h1.2V260.7z"/>
				</g>
			</g>
			<g id="g4304">
				<g id="h4304">
					<polygon id="b4304" class="st2" points="69.9,266.6 69.9,256.7 88.9,256.7 88.9,266.7 					"/>
					<path id="t4304" class="st3" d="M76.2,262.4v0.5h-0.5v0.6h-0.5v-0.6h-2l2.5-3.7v3.3H76.2z M75.2,260.7L75.2,260.7l-1.2,1.7h1.2
						V260.7z M77.8,261.1c0.4,0,0.8-0.2,0.8-0.7c0-0.4-0.3-0.7-0.7-0.7c-0.4,0-0.6,0.2-0.7,0.6h-0.5c0.1-0.7,0.5-1,1.2-1
						c0.6,0,1.2,0.4,1.2,1.1c0,0.4-0.2,0.7-0.5,0.9c0.4,0.2,0.6,0.6,0.6,1c0,0.8-0.6,1.2-1.3,1.2c-0.6,0-1.2-0.4-1.2-1.1h0.5
						c0,0.4,0.4,0.7,0.8,0.7c0.5,0,0.8-0.4,0.8-0.8c0-0.5-0.4-0.8-0.9-0.8L77.8,261.1L77.8,261.1z M79.7,261.4
						c0-0.9,0.4-2.2,1.4-2.2c1.1,0,1.4,1.3,1.4,2.2c0,0.8-0.4,2.2-1.4,2.2S79.7,262.3,79.7,261.4z M80.2,261.4
						c0,0.6,0.2,1.7,0.9,1.7c0.7,0,0.9-1.1,0.9-1.7s-0.2-1.7-0.9-1.7C80.4,259.7,80.2,260.8,80.2,261.4z M85.7,262.4v0.5h-0.5v0.6
						h-0.5v-0.6h-2l2.5-3.7v3.3H85.7z M84.8,260.7L84.8,260.7l-1.2,1.7h1.2L84.8,260.7L84.8,260.7z"/>
				</g>
			</g>
			<g id="g4113">
				<g id="h4113">
					<rect id="b4113" x="26.9" y="475.3" class="st2" width="19" height="9.9"/>
					<path id="t4113" class="st3" d="M33.8,481.1v0.5h-0.5v0.6h-0.5v-0.6h-2l2.5-3.7v3.3H33.8z M32.9,479.4L32.9,479.4l-1.2,1.7h1.2
						L32.9,479.4L32.9,479.4z M34.3,478.5l0.3-0.5h0.9v4.1H35v-3.7H34.3z M36.8,478.5l0.3-0.5H38v4.1h-0.5v-3.7H36.8z M40.3,479.8
						c0.4,0,0.8-0.2,0.8-0.7c0-0.4-0.3-0.7-0.7-0.7c-0.4,0-0.6,0.2-0.7,0.6h-0.5c0.1-0.7,0.5-1,1.2-1c0.6,0,1.2,0.4,1.2,1.1
						c0,0.4-0.2,0.7-0.5,0.9c0.4,0.2,0.6,0.6,0.6,1c0,0.8-0.6,1.2-1.3,1.2c-0.6,0-1.2-0.4-1.2-1.1h0.5c0,0.4,0.4,0.7,0.8,0.7
						c0.5,0,0.8-0.4,0.8-0.8c0-0.5-0.4-0.8-0.9-0.8C40.3,480.2,40.3,479.8,40.3,479.8z"/>
				</g>
			</g>
			<g id="g4114">
				<g id="h4114">
					<rect id="b4114" x="26.9" y="485.2" class="st2" width="19" height="9.9"/>
					<path id="t4114" class="st3" d="M33.8,491.1v0.5h-0.5v0.6h-0.5v-0.6h-2l2.5-3.7v3.3H33.8z M32.8,489.3L32.8,489.3l-1.2,1.7h1.2
						V489.3z M34.3,488.4l0.3-0.5h0.9v4.1H35v-3.7H34.3z M36.8,488.4L37,488H38v4.1h-0.5v-3.7H36.8z M41.9,491.1v0.5h-0.5v0.6h-0.5
						v-0.6h-2l2.5-3.7v3.3H41.9z M40.9,489.3L40.9,489.3l-1.2,1.7h1.2L40.9,489.3L40.9,489.3z"/>
				</g>
			</g>
			<g id="g4115">
				<g id="h4115">
					<rect id="b4115" x="26.9" y="495.1" class="st2" width="19" height="9.9"/>
					<path id="t4115" class="st3" d="M33.8,500.9v0.5h-0.5v0.6h-0.5v-0.6h-2l2.5-3.7v3.3H33.8z M32.9,499.2L32.9,499.2l-1.2,1.7h1.2
						L32.9,499.2L32.9,499.2z M34.3,498.3l0.3-0.5h0.9v4.1H35v-3.7H34.3z M36.8,498.3l0.3-0.5H38v4.1h-0.5v-3.7H36.8z M40.4,498.3
						l-0.3,0.9l0.3,0c0.8,0,1.3,0.7,1.3,1.5c0,0.9-0.7,1.5-1.5,1.5c-0.5,0-1-0.3-1.2-0.7l0.4-0.4c0.1,0.4,0.5,0.6,0.9,0.6
						c0.5,0,1-0.5,1-1c0-0.5-0.4-1-1-1c-0.3,0-0.6,0.1-0.8,0.4h-0.1l0.6-2.1h1.6v0.5L40.4,498.3L40.4,498.3z"/>
				</g>
			</g>
			<g id="g4116">
				<g id="h4116">
					<rect id="b4116" x="26.9" y="505" class="st2" width="19" height="9.8"/>
					<path id="t4116" class="st3" d="M33.8,510.8v0.5h-0.5v0.6h-0.5v-0.6h-2l2.5-3.7v3.3H33.8z M32.9,509.1L32.9,509.1l-1.2,1.7h1.2
						V509.1z M34.3,508.2l0.3-0.5h0.9v4.1H35v-3.7H34.3z M36.8,508.2l0.3-0.5H38v4.1h-0.5v-3.7H36.8z M41.3,507.9l-1.1,1.5l0,0
						c0.1-0.1,0.3-0.1,0.4-0.1c0.7,0,1.2,0.6,1.2,1.3c0,0.8-0.6,1.4-1.3,1.4c-0.7,0-1.4-0.6-1.4-1.3c0-0.4,0.2-0.8,0.4-1.1l1.4-1.9
						L41.3,507.9z M41.3,510.6c0-0.5-0.4-0.9-0.9-0.9c-0.4,0-0.9,0.4-0.9,0.9c0,0.5,0.4,0.9,0.9,0.9
						C40.9,511.5,41.3,511.1,41.3,510.6z"/>
				</g>
			</g>
			<g id="g4105">
				<g id="h4105">
					<rect id="b4105" x="26.9" y="396" class="st2" width="19" height="9.9"/>
					<path id="t4105" class="st3" d="M33.4,402.1v0.5H33v0.6h-0.5v-0.6h-2l2.5-3.7v3.3H33.4z M32.5,400.4L32.5,400.4l-1.2,1.7h1.2
						V400.4z M33.9,399.5l0.3-0.5h0.9v4.1h-0.5v-3.7L33.9,399.5C33.9,399.5,33.9,399.5,33.9,399.5z M36.3,401.1
						c0-0.9,0.4-2.2,1.4-2.2c1,0,1.4,1.3,1.4,2.2c0,0.8-0.4,2.2-1.4,2.2S36.3,401.9,36.3,401.1z M36.7,401.1c0,0.6,0.2,1.7,0.9,1.7
						c0.7,0,0.9-1.1,0.9-1.7s-0.2-1.7-0.9-1.7S36.7,400.5,36.7,401.1z M40.8,399.5l-0.3,0.9l0.3,0c0.8,0,1.3,0.7,1.3,1.4
						c0,0.9-0.7,1.5-1.5,1.5c-0.5,0-1-0.3-1.2-0.7l0.4-0.4c0.1,0.4,0.5,0.6,0.9,0.6c0.5,0,1-0.5,1-1c0-0.5-0.4-1-1-1
						c-0.3,0-0.6,0.1-0.8,0.4h-0.1l0.6-2.1h1.6v0.5L40.8,399.5L40.8,399.5z"/>
				</g>
			</g>
			<g id="g4106">
				<g id="h4106">
					<rect id="b4106" x="26.9" y="405.9" class="st2" width="19" height="9.9"/>
					<path id="t4106" class="st3" d="M33.4,412v0.5h-0.5v0.6h-0.5v-0.6h-2l2.5-3.7v3.3H33.4z M32.4,410.3L32.4,410.3l-1.2,1.7h1.2
						V410.3z M33.9,409.4l0.3-0.5h0.9v4.1h-0.5v-3.7H33.9z M36.2,411c0-0.9,0.4-2.2,1.4-2.2s1.4,1.3,1.4,2.2c0,0.8-0.4,2.2-1.4,2.2
						S36.2,411.9,36.2,411z M36.7,411c0,0.6,0.2,1.7,0.9,1.7c0.7,0,0.9-1.1,0.9-1.7s-0.2-1.7-0.9-1.7
						C36.9,409.3,36.7,410.4,36.7,411z M41.7,409.1l-1.1,1.5l0,0c0.1-0.1,0.3-0.1,0.4-0.1c0.7,0,1.2,0.6,1.2,1.3
						c0,0.8-0.6,1.4-1.3,1.4c-0.7,0-1.4-0.6-1.4-1.3c0-0.4,0.2-0.8,0.4-1.1l1.4-1.9L41.7,409.1z M41.7,411.9c0-0.5-0.4-0.9-0.9-0.9
						c-0.4,0-0.9,0.4-0.9,0.9c0,0.5,0.4,0.9,0.9,0.9C41.3,412.7,41.7,412.3,41.7,411.9z"/>
				</g>
			</g>
			<g id="g4107">
				<g id="h4107">
					<rect id="b4107" x="26.9" y="415.8" class="st2" width="19" height="9.9"/>
					<path id="t4107" class="st3" d="M33.5,421.5v0.5H33v0.6h-0.5v-0.6h-2l2.5-3.7v3.3H33.5z M32.5,419.8L32.5,419.8l-1.2,1.7h1.2
						V419.8z M34,418.9l0.3-0.5h0.9v4.1h-0.5v-3.7H34z M36.3,420.5c0-0.9,0.4-2.2,1.4-2.2s1.4,1.3,1.4,2.2c0,0.8-0.4,2.2-1.4,2.2
						S36.3,421.3,36.3,420.5z M36.8,420.5c0,0.6,0.2,1.7,0.9,1.7c0.7,0,0.9-1.1,0.9-1.7s-0.2-1.7-0.9-1.7
						C37,418.7,36.8,419.9,36.8,420.5z M39.4,418.9v-0.5h2.9l-2.5,4.2l-0.4-0.2l2.1-3.5L39.4,418.9L39.4,418.9z"/>
				</g>
			</g>
			<g id="g4108">
				<g id="h4108">
					<rect id="b4108" x="26.9" y="425.7" class="st2" width="19" height="9.9"/>
					<path id="t4108" class="st3" d="M33.4,431.6v0.5H33v0.6h-0.5v-0.6h-2l2.5-3.7v3.3H33.4z M32.5,429.9L32.5,429.9l-1.2,1.7h1.2
						V429.9z M33.9,429l0.3-0.5h0.9v4.1h-0.5V429H33.9z M36.2,430.6c0-0.9,0.4-2.2,1.4-2.2s1.4,1.3,1.4,2.2c0,0.8-0.4,2.2-1.4,2.2
						S36.2,431.5,36.2,430.6z M36.7,430.6c0,0.6,0.2,1.7,0.9,1.7c0.7,0,0.9-1.1,0.9-1.7s-0.2-1.7-0.9-1.7
						C36.9,428.9,36.7,430,36.7,430.6z M40.2,430.5c-0.3-0.2-0.5-0.5-0.5-0.9c0-0.7,0.5-1.2,1.2-1.2s1.2,0.5,1.2,1.2
						c0,0.4-0.2,0.7-0.5,0.9c0.4,0.1,0.6,0.5,0.6,1c0,0.8-0.6,1.2-1.3,1.2s-1.3-0.5-1.3-1.2C39.6,431.1,39.8,430.7,40.2,430.5z
						 M40.1,431.5c0,0.4,0.4,0.8,0.8,0.8s0.8-0.4,0.8-0.8c0-0.4-0.4-0.8-0.8-0.8S40.1,431.1,40.1,431.5z M40.2,429.6
						c0,0.3,0.3,0.7,0.7,0.7s0.7-0.4,0.7-0.7c0-0.4-0.3-0.7-0.7-0.7S40.2,429.2,40.2,429.6z"/>
				</g>
			</g>
			<g id="g4109">
				<g id="h4109">
					<rect id="b4109" x="26.9" y="435.7" class="st2" width="19" height="9.9"/>
					<path id="t4109" class="st3" d="M33.4,441.4v0.5h-0.5v0.6h-0.5v-0.6h-2l2.5-3.7v3.3H33.4z M32.5,439.7L32.5,439.7l-1.2,1.7h1.2
						V439.7z M33.9,438.7l0.3-0.5h0.9v4.1h-0.5v-3.7H33.9z M36.2,440.3c0-0.9,0.4-2.2,1.4-2.2s1.4,1.3,1.4,2.2
						c0,0.8-0.4,2.2-1.4,2.2S36.2,441.2,36.2,440.3z M36.7,440.3c0,0.6,0.2,1.7,0.9,1.7s0.9-1.1,0.9-1.7s-0.2-1.7-0.9-1.7
						S36.7,439.8,36.7,440.3z M40,442.2l1.1-1.5l0,0c-0.1,0.1-0.3,0.1-0.4,0.1c-0.7,0-1.2-0.6-1.2-1.3c0-0.8,0.6-1.4,1.3-1.4
						c0.7,0,1.4,0.6,1.4,1.3c0,0.4-0.2,0.8-0.4,1.1l-1.4,1.9L40,442.2z M41.7,439.5c0-0.4-0.4-0.9-0.8-0.9c-0.5,0-0.9,0.4-0.9,0.9
						c0,0.5,0.4,0.9,0.9,0.9C41.4,440.4,41.7,440,41.7,439.5z"/>
				</g>
			</g>
			<g id="g4110">
				<g id="h4110">
					<rect id="b4110" x="26.9" y="445.6" class="st2" width="19" height="9.9"/>
					<path id="t4110" class="st3" d="M33.7,451.3v0.5h-0.5v0.6h-0.5v-0.6h-2l2.5-3.7v3.3H33.7z M32.8,449.6L32.8,449.6l-1.2,1.7h1.2
						V449.6z M34.2,448.7l0.3-0.5h0.9v4.1h-0.5v-3.7H34.2z M36.7,448.7l0.3-0.5h0.9v4.1h-0.5v-3.7H36.7z M39.1,450.3
						c0-0.9,0.4-2.2,1.4-2.2c1,0,1.4,1.3,1.4,2.2c0,0.8-0.4,2.2-1.4,2.2C39.4,452.4,39.1,451.1,39.1,450.3z M39.6,450.3
						c0,0.6,0.2,1.7,0.9,1.7c0.7,0,0.9-1.1,0.9-1.7s-0.2-1.7-0.9-1.7C39.8,448.6,39.6,449.7,39.6,450.3z M33.7,451.3v0.5h-0.5v0.6
						h-0.5v-0.6h-2l2.5-3.7v3.3H33.7z M32.8,449.6L32.8,449.6l-1.2,1.7h1.2V449.6z M34.2,448.7l0.3-0.5h0.9v4.1h-0.5v-3.7H34.2z
						 M36.7,448.7l0.3-0.5h0.9v4.1h-0.5v-3.7H36.7z M39.1,450.3c0-0.9,0.4-2.2,1.4-2.2c1,0,1.4,1.3,1.4,2.2c0,0.8-0.4,2.2-1.4,2.2
						C39.4,452.4,39.1,451.1,39.1,450.3z M39.6,450.3c0,0.6,0.2,1.7,0.9,1.7c0.7,0,0.9-1.1,0.9-1.7s-0.2-1.7-0.9-1.7
						C39.8,448.6,39.6,449.7,39.6,450.3z"/>
				</g>
			</g>
			<g id="g4111">
				<g id="h4111">
					<rect id="b4111" x="26.9" y="455.5" class="st2" width="19" height="9.9"/>
					<path id="t4111" class="st3" d="M33.9,461.2v0.5h-0.5v0.6H33v-0.6h-2l2.5-3.7v3.3H33.9z M33,459.5L33,459.5l-1.2,1.7H33V459.5z
						 M34.4,458.6l0.3-0.5h0.9v4.1h-0.5v-3.7H34.4z M36.9,458.6l0.3-0.5h0.9v4.1h-0.5v-3.7H36.9z M39.4,458.6l0.3-0.5h0.9v4.1h-0.5
						v-3.7H39.4z"/>
				</g>
			</g>
			<g id="g4112">
				<g id="h4112">
					<rect id="b4112" x="26.9" y="465.4" class="st2" width="19" height="9.9"/>
					<path id="t4112" class="st3" d="M33.8,471.2v0.5h-0.5v0.6h-0.5v-0.6h-2l2.5-3.7v3.3H33.8z M32.9,469.5L32.9,469.5l-1.2,1.7h1.2
						L32.9,469.5L32.9,469.5z M34.3,468.6l0.3-0.5h0.9v4.1H35v-3.7H34.3z M36.8,468.6l0.3-0.5H38v4.1h-0.5v-3.7H36.8z M41.7,471.8
						v0.5h-2.6l1.8-2.2c0.2-0.2,0.4-0.5,0.4-0.7c0-0.4-0.4-0.8-0.8-0.8c-0.4,0-0.8,0.3-0.8,0.8h-0.5c0.1-0.7,0.5-1.2,1.3-1.2
						c0.7,0,1.3,0.5,1.3,1.2c0,0.3-0.1,0.6-0.3,0.9l-1.3,1.7L41.7,471.8L41.7,471.8z"/>
				</g>
			</g>
		</g>
	</g>
	<g id="gDeck04OceanviewLargePortholeOD">
		<g id="hDeck04OceanviewLargePortholeOD">
			<g id="g4001">
				<g id="h4001">
					<rect id="b4001" x="0.6" y="216.9" class="st2" width="19.8" height="10.3"/>
					<path id="t4001" class="st3" d="M7.2,223.3v0.4H6.8v0.6H6.3v-0.6h-2l2.5-3.7v3.3H7.2z M6.3,221.6L6.3,221.6l-1.2,1.7h1.2V221.6
						z M7.6,222.3c0-0.9,0.4-2.2,1.4-2.2s1.4,1.3,1.4,2.2c0,0.8-0.4,2.2-1.4,2.2S7.6,223.1,7.6,222.3z M8.1,222.3
						c0,0.6,0.2,1.7,0.9,1.7s0.9-1.1,0.9-1.7s-0.2-1.7-0.9-1.7S8.1,221.7,8.1,222.3z M10.9,222.3c0-0.9,0.4-2.2,1.4-2.2
						s1.4,1.3,1.4,2.2c0,0.8-0.4,2.2-1.4,2.2S10.9,223.1,10.9,222.3z M11.4,222.3c0,0.6,0.2,1.7,0.9,1.7s0.9-1.1,0.9-1.7
						s-0.2-1.7-0.9-1.7C11.6,220.6,11.4,221.7,11.4,222.3z M14.3,220.7l0.3-0.5h0.9v4.1H15v-3.7L14.3,220.7L14.3,220.7z"/>
				</g>
			</g>
			<g id="g4201">
				<g id="h4201">
					<rect id="b4201" x="95.5" y="216.7" class="st2" width="19.8" height="10.5"/>
					<path id="t4201" class="st3" d="M102.4,223.3v0.4h-0.5v0.6h-0.5v-0.6h-2l2.5-3.7v3.3H102.4z M101.4,221.6L101.4,221.6l-1.2,1.7
						h1.2L101.4,221.6L101.4,221.6z M105.3,223.9v0.5h-2.6l1.8-2.2c0.2-0.2,0.4-0.5,0.4-0.7c0-0.4-0.4-0.8-0.8-0.8
						c-0.4,0-0.8,0.3-0.8,0.8h-0.5c0.1-0.7,0.6-1.2,1.3-1.2c0.7,0,1.3,0.5,1.3,1.2c0,0.3-0.1,0.6-0.3,0.9l-1.3,1.7H105.3z
						 M105.7,222.3c0-0.9,0.4-2.2,1.4-2.2c1.1,0,1.4,1.3,1.4,2.2c0,0.8-0.4,2.2-1.4,2.2S105.7,223.1,105.7,222.3z M106.2,222.3
						c0,0.6,0.2,1.7,0.9,1.7c0.7,0,0.9-1.1,0.9-1.7s-0.2-1.7-0.9-1.7C106.4,220.6,106.2,221.7,106.2,222.3z M109.1,220.7l0.3-0.5
						h0.9v4.1h-0.5v-3.7L109.1,220.7L109.1,220.7z"/>
				</g>
			</g>
			<g id="g4205">
				<g id="h4205">
					<rect id="b4205" x="95.5" y="256.8" class="st2" width="19.8" height="9.9"/>
					<path id="t4205" class="st3" d="M102.2,262.4v0.5h-0.5v0.6h-0.5v-0.6h-2l2.5-3.7v3.3H102.2z M101.3,260.7L101.3,260.7l-1.2,1.7
						h1.2L101.3,260.7L101.3,260.7z M105.1,263v0.5h-2.6l1.8-2.2c0.2-0.2,0.4-0.5,0.4-0.7c0-0.4-0.4-0.8-0.8-0.8
						c-0.4,0-0.8,0.3-0.8,0.8h-0.5c0.1-0.7,0.5-1.2,1.3-1.2c0.7,0,1.3,0.5,1.3,1.2c0,0.3-0.1,0.6-0.3,0.9l-1.3,1.7L105.1,263
						L105.1,263z M105.6,261.4c0-0.9,0.4-2.2,1.4-2.2c1.1,0,1.4,1.3,1.4,2.2c0,0.8-0.4,2.2-1.4,2.2S105.6,262.3,105.6,261.4z
						 M106,261.4c0,0.6,0.2,1.7,0.9,1.7c0.7,0,0.9-1.1,0.9-1.7s-0.2-1.7-0.9-1.7C106.3,259.7,106,260.8,106,261.4z M110.1,259.8
						l-0.3,0.9l0.3,0c0.8,0,1.3,0.7,1.3,1.5c0,0.9-0.7,1.5-1.5,1.5c-0.5,0-1-0.3-1.2-0.7l0.4-0.4c0.1,0.4,0.5,0.6,0.9,0.6
						c0.6,0,1-0.5,1-1c0-0.5-0.4-1-1-1c-0.3,0-0.6,0.1-0.8,0.4h-0.1l0.6-2.1h1.6v0.5L110.1,259.8L110.1,259.8z M102.2,262.4v0.5
						h-0.5v0.6h-0.5v-0.6h-2l2.5-3.7v3.3H102.2z M101.3,260.7L101.3,260.7l-1.2,1.7h1.2L101.3,260.7L101.3,260.7z M105.1,263v0.5
						h-2.6l1.8-2.2c0.2-0.2,0.4-0.5,0.4-0.7c0-0.4-0.4-0.8-0.8-0.8c-0.4,0-0.8,0.3-0.8,0.8h-0.5c0.1-0.7,0.5-1.2,1.3-1.2
						c0.7,0,1.3,0.5,1.3,1.2c0,0.3-0.1,0.6-0.3,0.9l-1.3,1.7L105.1,263L105.1,263z M105.6,261.4c0-0.9,0.4-2.2,1.4-2.2
						c1.1,0,1.4,1.3,1.4,2.2c0,0.8-0.4,2.2-1.4,2.2S105.6,262.3,105.6,261.4z M106,261.4c0,0.6,0.2,1.7,0.9,1.7
						c0.7,0,0.9-1.1,0.9-1.7s-0.2-1.7-0.9-1.7C106.3,259.7,106,260.8,106,261.4z M110.1,259.8l-0.3,0.9l0.3,0c0.8,0,1.3,0.7,1.3,1.5
						c0,0.9-0.7,1.5-1.5,1.5c-0.5,0-1-0.3-1.2-0.7l0.4-0.4c0.1,0.4,0.5,0.6,0.9,0.6c0.6,0,1-0.5,1-1c0-0.5-0.4-1-1-1
						c-0.3,0-0.6,0.1-0.8,0.4h-0.1l0.6-2.1h1.6v0.5L110.1,259.8L110.1,259.8z"/>
				</g>
			</g>
			<g id="g4204">
				<g id="h4204">
					<rect id="b4204" x="95.5" y="247" class="st2" width="19.8" height="9.9"/>
					<path id="t4204" class="st3" d="M102.2,252.5v0.4h-0.5v0.6h-0.5V253h-2l2.5-3.7v3.3H102.2z M101.2,250.8L101.2,250.8l-1.2,1.7
						h1.2L101.2,250.8L101.2,250.8z M105.1,253.1v0.5h-2.6l1.8-2.2c0.2-0.2,0.4-0.5,0.4-0.7c0-0.4-0.4-0.8-0.8-0.8
						c-0.4,0-0.8,0.3-0.8,0.8h-0.5c0.1-0.7,0.5-1.2,1.3-1.2c0.7,0,1.3,0.5,1.3,1.2c0,0.3-0.1,0.6-0.3,0.9l-1.3,1.7H105.1z
						 M105.5,251.5c0-0.9,0.4-2.2,1.4-2.2c1.1,0,1.4,1.3,1.4,2.2c0,0.8-0.4,2.2-1.4,2.2S105.5,252.3,105.5,251.5z M106,251.5
						c0,0.6,0.2,1.7,0.9,1.7c0.7,0,0.9-1.1,0.9-1.7s-0.2-1.7-0.9-1.7C106.2,249.8,106,250.9,106,251.5z M111.5,252.5v0.4h-0.5v0.6
						h-0.5V253h-2l2.5-3.7v3.3H111.5z M110.6,250.8L110.6,250.8l-1.2,1.7h1.2L110.6,250.8L110.6,250.8z"/>
				</g>
			</g>
			<g id="g4203">
				<g id="h4203">
					<rect id="b4203" x="95.5" y="237.1" class="st2" width="19.8" height="9.9"/>
					<path id="t4203" class="st3" d="M102.2,243.1v0.5h-0.5v0.6h-0.5v-0.6h-2l2.5-3.7v3.3H102.2z M101.3,241.3L101.3,241.3l-1.2,1.7
						h1.2L101.3,241.3L101.3,241.3z M105.1,243.6v0.5h-2.6l1.8-2.2c0.2-0.2,0.4-0.5,0.4-0.7c0-0.4-0.4-0.8-0.8-0.8
						c-0.4,0-0.8,0.3-0.8,0.8h-0.5c0.1-0.7,0.6-1.2,1.3-1.2c0.7,0,1.3,0.5,1.3,1.2c0,0.3-0.1,0.6-0.3,0.9l-1.3,1.7L105.1,243.6
						L105.1,243.6z M105.6,242c0-0.9,0.4-2.2,1.4-2.2c1.1,0,1.4,1.3,1.4,2.2c0,0.8-0.4,2.2-1.4,2.2S105.6,242.9,105.6,242z M106,242
						c0,0.6,0.2,1.7,0.9,1.7c0.7,0,0.9-1.1,0.9-1.7s-0.2-1.7-0.9-1.7C106.3,240.3,106,241.5,106,242z M110,241.7
						c0.4,0,0.8-0.2,0.8-0.7c0-0.4-0.3-0.7-0.7-0.7c-0.4,0-0.6,0.2-0.7,0.6h-0.5c0.1-0.7,0.5-1,1.2-1c0.6,0,1.2,0.4,1.2,1.1
						c0,0.4-0.2,0.7-0.5,0.9c0.4,0.2,0.6,0.6,0.6,1c0,0.8-0.6,1.2-1.3,1.2c-0.6,0-1.2-0.4-1.2-1.1h0.5c0,0.4,0.4,0.7,0.8,0.7
						c0.5,0,0.8-0.4,0.8-0.8c0-0.5-0.4-0.8-0.9-0.8L110,241.7L110,241.7z"/>
				</g>
			</g>
			<g id="g4005">
				<g id="h4005">
					<rect id="b4005" x="0.6" y="256.8" class="st2" width="19.8" height="9.9"/>
					<path id="t4005" class="st3" d="M7.1,262.4v0.5H6.6v0.6H6.1v-0.6h-2l2.5-3.7v3.3H7.1z M6.1,260.7L6.1,260.7L5,262.4h1.2
						C6.1,262.4,6.1,260.7,6.1,260.7z M7.5,261.4c0-0.9,0.4-2.2,1.4-2.2s1.4,1.3,1.4,2.2c0,0.8-0.4,2.2-1.4,2.2S7.5,262.3,7.5,261.4
						z M7.9,261.4c0,0.6,0.2,1.7,0.9,1.7c0.7,0,0.9-1.1,0.9-1.7s-0.2-1.7-0.9-1.7C8.1,259.7,7.9,260.8,7.9,261.4z M10.8,261.4
						c0-0.9,0.4-2.2,1.4-2.2s1.4,1.3,1.4,2.2c0,0.8-0.4,2.2-1.4,2.2S10.8,262.3,10.8,261.4z M11.2,261.4c0,0.6,0.2,1.7,0.9,1.7
						s0.9-1.1,0.9-1.7s-0.2-1.7-0.9-1.7S11.2,260.8,11.2,261.4z M15.3,259.8l-0.3,0.9l0.3,0c0.8,0,1.3,0.7,1.3,1.5
						c0,0.9-0.7,1.5-1.5,1.5c-0.5,0-1-0.3-1.2-0.7l0.4-0.4c0.1,0.4,0.5,0.6,0.9,0.6c0.5,0,1-0.5,1-1c0-0.5-0.4-1-1-1
						c-0.3,0-0.6,0.1-0.8,0.4h-0.1l0.6-2.1h1.6v0.5L15.3,259.8L15.3,259.8z"/>
				</g>
			</g>
			<g id="g4202">
				<g id="h4202">
					<rect id="b4202" x="95.5" y="227.2" class="st2" width="19.8" height="9.9"/>
					<path id="t4202" class="st3" d="M101.8,232.9v0.4h-0.5v0.6h-0.5v-0.6h-2l2.5-3.7v3.3H101.8z M100.8,231.2L100.8,231.2l-1.2,1.7
						h1.2L100.8,231.2L100.8,231.2z M104.7,233.5v0.5h-2.6l1.8-2.2c0.2-0.2,0.4-0.5,0.4-0.7c0-0.4-0.4-0.8-0.8-0.8
						c-0.4,0-0.8,0.3-0.8,0.8h-0.5c0.1-0.7,0.5-1.2,1.3-1.2c0.7,0,1.3,0.5,1.3,1.2c0,0.3-0.1,0.6-0.3,0.9l-1.3,1.7H104.7z
						 M105.1,231.9c0-0.9,0.4-2.2,1.4-2.2c1.1,0,1.4,1.3,1.4,2.2c0,0.8-0.4,2.2-1.4,2.2S105.1,232.8,105.1,231.9z M105.6,231.9
						c0,0.6,0.2,1.7,0.9,1.7c0.7,0,0.9-1.1,0.9-1.7s-0.2-1.7-0.9-1.7C105.8,230.2,105.6,231.4,105.6,231.9z M111,233.5v0.5h-2.6
						l1.8-2.2c0.2-0.2,0.4-0.5,0.4-0.7c0-0.4-0.4-0.8-0.8-0.8c-0.4,0-0.8,0.3-0.8,0.8h-0.5c0.1-0.7,0.6-1.2,1.3-1.2
						c0.7,0,1.3,0.5,1.3,1.2c0,0.3-0.1,0.6-0.3,0.9l-1.3,1.7H111z"/>
				</g>
			</g>
			<g id="g4004">
				<g id="h4004">
					<rect id="b4004" x="0.6" y="247" class="st2" width="19.8" height="9.9"/>
					<path id="t4004" class="st3" d="M7.1,252.5v0.4H6.6v0.6H6.1V253h-2l2.5-3.7v3.3H7.1z M6.1,250.8L6.1,250.8L5,252.5h1.2
						C6.1,252.5,6.1,250.8,6.1,250.8z M7.4,251.5c0-0.9,0.4-2.2,1.4-2.2s1.4,1.3,1.4,2.2c0,0.8-0.4,2.2-1.4,2.2S7.4,252.3,7.4,251.5
						z M7.9,251.5c0,0.6,0.2,1.7,0.9,1.7s0.9-1.1,0.9-1.7s-0.2-1.7-0.9-1.7S7.9,250.9,7.9,251.5z M10.7,251.5c0-0.9,0.4-2.2,1.4-2.2
						s1.4,1.3,1.4,2.2c0,0.8-0.4,2.2-1.4,2.2S10.7,252.3,10.7,251.5z M11.2,251.5c0,0.6,0.2,1.7,0.9,1.7s0.9-1.1,0.9-1.7
						s-0.2-1.7-0.9-1.7S11.2,250.9,11.2,251.5z M16.7,252.5v0.4h-0.5v0.6h-0.5V253h-2l2.5-3.7v3.3H16.7z M15.8,250.8L15.8,250.8
						l-1.2,1.7h1.2V250.8z"/>
				</g>
			</g>
			<g id="g4003">
				<g id="h4003">
					<rect id="b4003" x="0.6" y="237.1" class="st2" width="19.8" height="9.9"/>
					<path id="t4003" class="st3" d="M7.1,243.1v0.5H6.6v0.6H6.1v-0.6h-2l2.5-3.7v3.3H7.1z M6.1,241.3L6.1,241.3L5,243.1h1.2V241.3z
						 M7.5,242c0-0.9,0.4-2.2,1.4-2.2s1.4,1.3,1.4,2.2c0,0.8-0.4,2.2-1.4,2.2S7.5,242.9,7.5,242z M7.9,242c0,0.6,0.2,1.7,0.9,1.7
						c0.7,0,0.9-1.1,0.9-1.7s-0.2-1.7-0.9-1.7S7.9,241.5,7.9,242z M10.8,242c0-0.9,0.4-2.2,1.4-2.2s1.4,1.3,1.4,2.2
						c0,0.8-0.4,2.2-1.4,2.2S10.8,242.9,10.8,242z M11.2,242c0,0.6,0.2,1.7,0.9,1.7s0.9-1.1,0.9-1.7s-0.2-1.7-0.9-1.7
						S11.2,241.5,11.2,242z M15.2,241.7c0.4,0,0.8-0.2,0.8-0.7c0-0.4-0.3-0.7-0.7-0.7c-0.4,0-0.6,0.2-0.7,0.6h-0.5
						c0.1-0.7,0.5-1,1.2-1c0.6,0,1.2,0.4,1.2,1.1c0,0.4-0.2,0.7-0.5,0.9c0.4,0.2,0.6,0.6,0.6,1c0,0.8-0.6,1.2-1.3,1.2
						c-0.6,0-1.2-0.4-1.2-1.1h0.5c0,0.4,0.4,0.7,0.8,0.7c0.5,0,0.8-0.4,0.8-0.8c0-0.5-0.4-0.8-0.9-0.8
						C15.2,242.1,15.2,241.7,15.2,241.7z"/>
				</g>
			</g>
			<g id="g4002">
				<g id="h4002">
					<rect id="b4002" x="0.6" y="227.2" class="st2" width="19.8" height="9.9"/>
					<path id="t4002" class="st3" d="M7.1,232.9v0.4H6.6v0.6H6.1v-0.6h-2l2.5-3.7v3.3H7.1z M6.1,231.2L6.1,231.2L5,232.9h1.2
						C6.1,232.9,6.1,231.2,6.1,231.2z M7.4,231.9c0-0.9,0.4-2.2,1.4-2.2s1.4,1.3,1.4,2.2c0,0.8-0.4,2.2-1.4,2.2
						C7.8,234.1,7.4,232.8,7.4,231.9z M7.9,231.9c0,0.6,0.2,1.7,0.9,1.7c0.7,0,0.9-1.1,0.9-1.7s-0.2-1.7-0.9-1.7
						C8.1,230.2,7.9,231.4,7.9,231.9z M10.8,231.9c0-0.9,0.4-2.2,1.4-2.2s1.4,1.3,1.4,2.2c0,0.8-0.4,2.2-1.4,2.2
						S10.8,232.8,10.8,231.9z M11.2,231.9c0,0.6,0.2,1.7,0.9,1.7s0.9-1.1,0.9-1.7s-0.2-1.7-0.9-1.7S11.2,231.4,11.2,231.9z
						 M16.6,233.5v0.5H14l1.8-2.2c0.2-0.2,0.4-0.5,0.4-0.7c0-0.4-0.4-0.8-0.8-0.8c-0.4,0-0.8,0.3-0.8,0.8H14
						c0.1-0.7,0.5-1.2,1.3-1.2c0.7,0,1.3,0.5,1.3,1.2c0,0.3-0.1,0.6-0.3,0.9l-1.3,1.7H16.6z"/>
				</g>
			</g>
		</g>
	</g>
	<g id="gDeck04OceanviewOF">
		<g id="hDeck04OceanviewOF">
			<g id="g4028">
				<g id="h4028">
					<rect id="b4028" x="0.6" y="485.2" class="st2" width="19.8" height="9.9"/>
					<path id="t4028" class="st3" d="M7.2,491.1v0.5H6.7v0.6H6.2v-0.6h-2l2.5-3.7v3.3H7.2z M6.2,489.3L6.2,489.3l-1.2,1.7h1.2
						L6.2,489.3L6.2,489.3z M7.5,490c0-0.9,0.4-2.2,1.4-2.2s1.4,1.3,1.4,2.2c0,0.8-0.4,2.2-1.4,2.2S7.5,490.9,7.5,490z M8,490
						c0,0.6,0.2,1.7,0.9,1.7s0.9-1.1,0.9-1.7s-0.2-1.7-0.9-1.7S8,489.5,8,490z M13.4,491.6v0.5h-2.6l1.8-2.2
						c0.2-0.2,0.4-0.5,0.4-0.7c0-0.4-0.4-0.8-0.8-0.8c-0.4,0-0.8,0.3-0.8,0.8h-0.5c0.1-0.7,0.5-1.2,1.3-1.2c0.7,0,1.3,0.5,1.3,1.2
						c0,0.3-0.1,0.6-0.3,0.9l-1.3,1.7L13.4,491.6L13.4,491.6z M14.6,490c-0.3-0.2-0.5-0.5-0.5-0.9c0-0.7,0.5-1.2,1.2-1.2
						s1.2,0.5,1.2,1.2c0,0.4-0.2,0.7-0.5,0.9c0.4,0.1,0.6,0.5,0.6,1c0,0.8-0.6,1.2-1.3,1.2s-1.3-0.5-1.3-1.2
						C13.9,490.5,14.1,490.1,14.6,490z M14.4,491c0,0.4,0.4,0.8,0.8,0.8s0.8-0.4,0.8-0.8c0-0.4-0.4-0.8-0.8-0.8
						C14.8,490.2,14.4,490.5,14.4,491z M14.5,489c0,0.3,0.4,0.7,0.7,0.7s0.7-0.4,0.7-0.7c0-0.4-0.3-0.7-0.7-0.7S14.5,488.6,14.5,489
						z"/>
				</g>
			</g>
			<g id="g4008">
				<g id="h4008">
					<rect id="b4008" x="0.6" y="286.4" class="st2" width="19.8" height="9.9"/>
					<path id="t4008" class="st3" d="M7,292.2v0.5H6.6v0.6H6.1v-0.6h-2l2.5-3.7v3.3H7z M6.1,290.5L6.1,290.5l-1.2,1.7h1.2L6.1,290.5
						L6.1,290.5z M7.4,291.1c0-0.9,0.4-2.2,1.4-2.2s1.4,1.3,1.4,2.2c0,0.8-0.4,2.2-1.4,2.2S7.4,292,7.4,291.1z M7.9,291.1
						c0,0.6,0.2,1.7,0.9,1.7s0.9-1.1,0.9-1.7s-0.2-1.7-0.9-1.7S7.9,290.6,7.9,291.1z M10.7,291.1c0-0.9,0.4-2.2,1.4-2.2
						s1.4,1.3,1.4,2.2c0,0.8-0.4,2.2-1.4,2.2S10.7,292,10.7,291.1z M11.2,291.1c0,0.6,0.2,1.7,0.9,1.7s0.9-1.1,0.9-1.7
						s-0.2-1.7-0.9-1.7S11.2,290.6,11.2,291.1z M14.7,291.1c-0.3-0.2-0.5-0.5-0.5-0.9c0-0.7,0.5-1.2,1.2-1.2c0.6,0,1.2,0.5,1.2,1.2
						c0,0.4-0.2,0.7-0.5,0.9c0.4,0.1,0.6,0.5,0.6,1c0,0.8-0.6,1.2-1.3,1.2s-1.3-0.5-1.3-1.2C14.1,291.6,14.3,291.2,14.7,291.1z
						 M14.6,292.1c0,0.4,0.4,0.8,0.8,0.8c0.4,0,0.8-0.4,0.8-0.8c0-0.4-0.4-0.8-0.8-0.8C14.9,291.3,14.6,291.6,14.6,292.1z
						 M14.7,290.1c0,0.3,0.4,0.7,0.7,0.7s0.7-0.4,0.7-0.7c0-0.4-0.3-0.7-0.7-0.7S14.7,289.7,14.7,290.1z"/>
				</g>
			</g>
			<g id="g4007">
				<g id="h4007">
					<rect id="b4007" x="0.6" y="276.5" class="st2" width="19.8" height="9.9"/>
					<path id="t4007" class="st3" d="M7.1,282.3v0.5H6.7v0.6H6.2v-0.6h-2l2.5-3.7v3.3H7.1z M6.2,280.5L6.2,280.5L5,282.3h1.2V280.5z
						 M7.5,281.2c0-0.9,0.4-2.2,1.4-2.2s1.4,1.3,1.4,2.2c0,0.8-0.4,2.2-1.4,2.2C7.9,283.4,7.5,282.1,7.5,281.2z M8,281.2
						c0,0.6,0.2,1.7,0.9,1.7c0.7,0,0.9-1.1,0.9-1.7s-0.2-1.7-0.9-1.7C8.2,279.5,8,280.7,8,281.2z M10.8,281.2c0-0.9,0.4-2.2,1.4-2.2
						s1.4,1.3,1.4,2.2c0,0.8-0.4,2.2-1.4,2.2S10.8,282.1,10.8,281.2z M11.3,281.2c0,0.6,0.2,1.7,0.9,1.7s0.9-1.1,0.9-1.7
						s-0.2-1.7-0.9-1.7S11.3,280.7,11.3,281.2z M13.9,279.6v-0.5h2.9l-2.5,4.2l-0.4-0.2l2.1-3.5H13.9z"/>
				</g>
			</g>
			<g id="g4006">
				<g id="h4006">
					<rect id="b4006" x="0.6" y="266.7" class="st2" width="19.8" height="9.9"/>
					<path id="t4006" class="st3" d="M7.1,272.3v0.5H6.6v0.6H6.1v-0.6h-2l2.5-3.7v3.3H7.1z M6.1,270.6L6.1,270.6L5,272.3h1.2V270.6z
						 M7.4,271.3c0-0.9,0.4-2.2,1.4-2.2s1.4,1.3,1.4,2.2c0,0.8-0.4,2.2-1.4,2.2S7.4,272.2,7.4,271.3z M7.9,271.3
						c0,0.6,0.2,1.7,0.9,1.7s0.9-1.1,0.9-1.7s-0.2-1.7-0.9-1.7S7.9,270.7,7.9,271.3z M10.7,271.3c0-0.9,0.4-2.2,1.4-2.2
						s1.4,1.3,1.4,2.2c0,0.8-0.4,2.2-1.4,2.2S10.7,272.2,10.7,271.3z M11.2,271.3c0,0.6,0.2,1.7,0.9,1.7s0.9-1.1,0.9-1.7
						s-0.2-1.7-0.9-1.7S11.2,270.7,11.2,271.3z M16.2,269.4l-1.1,1.5l0,0c0.1-0.1,0.3-0.1,0.4-0.1c0.7,0,1.2,0.6,1.2,1.3
						c0,0.8-0.6,1.4-1.3,1.4c-0.7,0-1.4-0.6-1.4-1.3c0-0.4,0.2-0.8,0.4-1.1l1.4-1.9L16.2,269.4z M16.2,272.2c0-0.5-0.4-0.9-0.9-0.9
						c-0.4,0-0.9,0.4-0.9,0.9c0,0.5,0.4,0.9,0.9,0.9C15.8,273,16.2,272.6,16.2,272.2z"/>
				</g>
			</g>
			<g id="g4009">
				<g id="h4009">
					<rect id="b4009" x="0.6" y="296.2" class="st2" width="19.8" height="10.5"/>
					<path id="t4009" class="st3" d="M7.1,302.4v0.5H6.6v0.6H6.1v-0.6h-2l2.5-3.7v3.3H7.1z M6.1,300.7L6.1,300.7L5,302.4h1.2
						L6.1,300.7L6.1,300.7z M7.4,301.4c0-0.9,0.4-2.2,1.4-2.2s1.4,1.3,1.4,2.2c0,0.8-0.4,2.2-1.4,2.2S7.4,302.2,7.4,301.4z
						 M7.9,301.4c0,0.6,0.2,1.7,0.9,1.7s0.9-1.1,0.9-1.7s-0.2-1.7-0.9-1.7S7.9,300.8,7.9,301.4z M10.7,301.4c0-0.9,0.4-2.2,1.4-2.2
						s1.4,1.3,1.4,2.2c0,0.8-0.4,2.2-1.4,2.2S10.7,302.2,10.7,301.4z M11.2,301.4c0,0.6,0.2,1.7,0.9,1.7c0.7,0,0.9-1.1,0.9-1.7
						s-0.2-1.7-0.9-1.7S11.2,300.8,11.2,301.4z M14.5,303.3l1.1-1.5l0,0c-0.1,0.1-0.3,0.1-0.4,0.1c-0.7,0-1.2-0.6-1.2-1.3
						c0-0.8,0.6-1.4,1.3-1.4c0.7,0,1.4,0.6,1.4,1.3c0,0.4-0.2,0.8-0.4,1.1l-1.4,1.9L14.5,303.3z M16.2,300.6c0-0.4-0.4-0.9-0.8-0.9
						c-0.5,0-0.9,0.4-0.9,0.9c0,0.5,0.4,0.9,0.9,0.9C15.9,301.4,16.2,301,16.2,300.6z"/>
				</g>
			</g>
			<g id="g4010">
				<g id="h4010">
					<rect id="b4010" x="0.6" y="306.7" class="st2" width="19.8" height="9.8"/>
					<path id="t4010" class="st3" d="M7.5,312.8v0.5H7v0.6H6.5v-0.6h-2l2.5-3.7v3.3H7.5z M6.5,311.1L6.5,311.1l-1.2,1.7h1.2
						L6.5,311.1L6.5,311.1z M7.8,311.8c0-0.9,0.4-2.2,1.4-2.2s1.4,1.3,1.4,2.2c0,0.8-0.4,2.2-1.4,2.2S7.8,312.6,7.8,311.8z
						 M8.3,311.8c0,0.6,0.2,1.7,0.9,1.7s0.9-1.1,0.9-1.7S10,310,9.2,310S8.3,311.2,8.3,311.8z M11.2,310.2l0.3-0.5h0.9v4.1h-0.5
						v-3.7H11.2z M13.5,311.8c0-0.9,0.4-2.2,1.4-2.2s1.4,1.3,1.4,2.2c0,0.8-0.4,2.2-1.4,2.2S13.5,312.6,13.5,311.8z M14,311.8
						c0,0.6,0.2,1.7,0.9,1.7s0.9-1.1,0.9-1.7s-0.2-1.7-0.9-1.7S14,311.2,14,311.8z"/>
				</g>
			</g>
			<g id="g4029">
				<g id="h4029">
					<rect id="b4029" x="0.6" y="495.1" class="st2" width="19.8" height="9.9"/>
					<path id="t4029" class="st3" d="M7.2,500.9v0.5H6.7v0.6H6.2v-0.6h-2l2.5-3.7v3.3H7.2z M6.2,499.2L6.2,499.2l-1.2,1.7h1.2
						L6.2,499.2L6.2,499.2z M7.5,499.9c0-0.9,0.4-2.2,1.4-2.2s1.4,1.3,1.4,2.2c0,0.8-0.4,2.2-1.4,2.2S7.5,500.7,7.5,499.9z M8,499.8
						c0,0.6,0.2,1.7,0.9,1.7s0.9-1.1,0.9-1.7s-0.2-1.7-0.9-1.7S8,499.3,8,499.8z M13.4,501.5v0.5h-2.6l1.8-2.2
						c0.2-0.2,0.4-0.5,0.4-0.7c0-0.4-0.4-0.8-0.8-0.8c-0.4,0-0.8,0.3-0.8,0.8h-0.5c0.1-0.7,0.5-1.2,1.3-1.2c0.7,0,1.3,0.5,1.3,1.2
						c0,0.3-0.1,0.6-0.3,0.9l-1.3,1.7L13.4,501.5L13.4,501.5z M14.4,501.8l1.1-1.5l0,0c-0.1,0.1-0.3,0.1-0.4,0.1
						c-0.7,0-1.2-0.6-1.2-1.3c0-0.8,0.6-1.4,1.3-1.4c0.7,0,1.4,0.6,1.4,1.3c0,0.4-0.2,0.8-0.4,1.1l-1.4,1.9L14.4,501.8z M16.1,499
						c0-0.4-0.4-0.9-0.8-0.9c-0.5,0-0.9,0.4-0.9,0.9c0,0.5,0.4,0.9,0.9,0.9C15.8,499.9,16.1,499.5,16.1,499z"/>
				</g>
			</g>
			<g id="g4030">
				<g id="h4030">
					<rect id="b4030" x="0.6" y="505" class="st2" width="19.8" height="9.8"/>
					<path id="t4030" class="st3" d="M7.1,510.8v0.5H6.7v0.6H6.2v-0.6h-2l2.5-3.7v3.3H7.1z M6.2,509.1L6.2,509.1L5,510.8h1.2
						C6.2,510.8,6.2,509.1,6.2,509.1z M7.5,509.8c0-0.9,0.4-2.2,1.4-2.2s1.4,1.3,1.4,2.2c0,0.8-0.4,2.2-1.4,2.2
						C7.9,511.9,7.5,510.6,7.5,509.8z M8,509.8c0,0.6,0.2,1.7,0.9,1.7c0.7,0,0.9-1.1,0.9-1.7S9.6,508,8.9,508
						C8.2,508,8,509.2,8,509.8z M11.9,509.4c0.4,0,0.8-0.2,0.8-0.7c0-0.4-0.3-0.7-0.7-0.7c-0.4,0-0.6,0.2-0.7,0.6h-0.5
						c0.1-0.7,0.5-1,1.2-1c0.6,0,1.2,0.4,1.2,1.1c0,0.4-0.2,0.7-0.5,0.9c0.4,0.2,0.6,0.6,0.6,1c0,0.8-0.6,1.2-1.3,1.2
						c-0.6,0-1.2-0.4-1.2-1.1h0.5c0,0.4,0.4,0.7,0.8,0.7c0.5,0,0.8-0.4,0.8-0.8c0-0.5-0.4-0.8-0.9-0.8L11.9,509.4L11.9,509.4
						L11.9,509.4z M13.8,509.8c0-0.9,0.4-2.2,1.4-2.2s1.4,1.3,1.4,2.2c0,0.8-0.4,2.2-1.4,2.2S13.8,510.6,13.8,509.8z M14.3,509.8
						c0,0.6,0.2,1.7,0.9,1.7s0.9-1.1,0.9-1.7S16,508,15.3,508S14.3,509.2,14.3,509.8z"/>
				</g>
			</g>
			<g id="g4225">
				<g id="h4225">
					<rect id="b4225" x="95.5" y="455.5" class="st2" width="19.8" height="9.8"/>
					<path id="t4225" class="st3" d="M102.2,461.2v0.5h-0.5v0.6h-0.5v-0.6h-2l2.5-3.7v3.3H102.2z M101.2,459.5L101.2,459.5l-1.2,1.7
						h1.2L101.2,459.5L101.2,459.5z M105.1,461.8v0.5h-2.6l1.8-2.2c0.2-0.2,0.4-0.5,0.4-0.7c0-0.4-0.4-0.8-0.8-0.8
						c-0.4,0-0.8,0.3-0.8,0.8h-0.5c0.1-0.7,0.6-1.2,1.3-1.2c0.7,0,1.3,0.5,1.3,1.2c0,0.3-0.1,0.6-0.3,0.9l-1.3,1.7L105.1,461.8
						L105.1,461.8z M108.3,461.8v0.5h-2.6l1.8-2.2c0.2-0.2,0.4-0.5,0.4-0.7c0-0.4-0.4-0.8-0.8-0.8c-0.4,0-0.8,0.3-0.8,0.8h-0.5
						c0.1-0.7,0.5-1.2,1.3-1.2c0.7,0,1.3,0.5,1.3,1.2c0,0.3-0.1,0.6-0.3,0.9l-1.3,1.7L108.3,461.8L108.3,461.8z M110.1,458.6
						l-0.3,0.9l0.3,0c0.8,0,1.3,0.7,1.3,1.4c0,0.9-0.7,1.5-1.5,1.5c-0.5,0-1-0.3-1.2-0.7l0.4-0.4c0.1,0.4,0.5,0.6,0.9,0.6
						c0.5,0,1-0.5,1-1c0-0.5-0.4-1-1-1c-0.3,0-0.6,0.1-0.8,0.4h-0.1l0.6-2.1h1.6v0.5L110.1,458.6L110.1,458.6z"/>
				</g>
			</g>
			<g id="g4228">
				<g id="h4228">
					<rect id="b4228" x="95.5" y="485.1" class="st2" width="19.8" height="9.9"/>
					<path id="t4228" class="st3" d="M102.2,491.1v0.5h-0.5v0.6h-0.5v-0.6h-2l2.5-3.7v3.3H102.2z M101.3,489.3L101.3,489.3l-1.2,1.7
						h1.2L101.3,489.3L101.3,489.3z M105.1,491.6v0.5h-2.6l1.8-2.2c0.2-0.2,0.4-0.5,0.4-0.7c0-0.4-0.4-0.8-0.8-0.8
						c-0.4,0-0.8,0.3-0.8,0.8h-0.5c0.1-0.7,0.6-1.2,1.3-1.2c0.7,0,1.3,0.5,1.3,1.2c0,0.3-0.1,0.6-0.3,0.9l-1.3,1.7L105.1,491.6
						L105.1,491.6z M108.3,491.6v0.5h-2.6l1.8-2.2c0.2-0.2,0.4-0.5,0.4-0.7c0-0.4-0.4-0.8-0.8-0.8c-0.4,0-0.8,0.3-0.8,0.8h-0.5
						c0.1-0.7,0.6-1.2,1.3-1.2c0.7,0,1.3,0.5,1.3,1.2c0,0.3-0.1,0.6-0.3,0.9l-1.3,1.7L108.3,491.6L108.3,491.6z M109.4,490
						c-0.3-0.2-0.5-0.5-0.5-0.9c0-0.7,0.5-1.2,1.2-1.2s1.2,0.5,1.2,1.2c0,0.4-0.2,0.7-0.5,0.9c0.4,0.1,0.6,0.5,0.6,1
						c0,0.8-0.6,1.2-1.3,1.2s-1.3-0.5-1.3-1.2C108.8,490.5,109,490.1,109.4,490z M109.3,491c0,0.4,0.4,0.8,0.8,0.8s0.8-0.4,0.8-0.8
						c0-0.4-0.4-0.8-0.8-0.8S109.3,490.5,109.3,491z M109.4,489c0,0.3,0.4,0.7,0.7,0.7c0.3,0,0.7-0.4,0.7-0.7c0-0.4-0.3-0.7-0.7-0.7
						S109.4,488.6,109.4,489z"/>
				</g>
			</g>
			<g id="g4229">
				<g id="h4229">
					<rect id="b4229" x="95.5" y="495" class="st2" width="19.8" height="9.9"/>
					<path id="t4229" class="st3" d="M102.2,500.9v0.5h-0.5v0.6h-0.5v-0.6h-2l2.5-3.7v3.3H102.2z M101.3,499.2L101.3,499.2l-1.2,1.7
						h1.2L101.3,499.2L101.3,499.2z M105.1,501.5v0.5h-2.6l1.8-2.2c0.2-0.2,0.4-0.5,0.4-0.7c0-0.4-0.4-0.8-0.8-0.8
						c-0.4,0-0.8,0.3-0.8,0.8h-0.5c0.1-0.7,0.6-1.2,1.3-1.2c0.7,0,1.3,0.5,1.3,1.2c0,0.3-0.1,0.6-0.3,0.9l-1.3,1.7L105.1,501.5
						L105.1,501.5z M108.3,501.5v0.5h-2.6l1.8-2.2c0.2-0.2,0.4-0.5,0.4-0.7c0-0.4-0.4-0.8-0.8-0.8c-0.4,0-0.8,0.3-0.8,0.8h-0.5
						c0.1-0.7,0.6-1.2,1.3-1.2c0.7,0,1.3,0.5,1.3,1.2c0,0.3-0.1,0.6-0.3,0.9l-1.3,1.7L108.3,501.5L108.3,501.5z M109.3,501.8
						l1.1-1.5l0,0c-0.1,0.1-0.3,0.1-0.4,0.1c-0.7,0-1.2-0.6-1.2-1.3c0-0.8,0.6-1.4,1.3-1.4c0.7,0,1.4,0.6,1.4,1.3
						c0,0.4-0.2,0.8-0.4,1.1l-1.4,1.9L109.3,501.8z M111,499c0-0.4-0.4-0.9-0.8-0.9c-0.5,0-0.9,0.4-0.9,0.9c0,0.5,0.4,0.9,0.9,0.9
						C110.7,499.9,111,499.5,111,499z"/>
				</g>
			</g>
			<g id="g4230">
				<g id="h4230">
					<rect id="b4230" x="95.5" y="505" class="st2" width="19.8" height="9.7"/>
					<path id="t4230" class="st3" d="M102.2,510.8v0.5h-0.5v0.6h-0.5v-0.6h-2l2.5-3.7v3.3H102.2z M101.3,509.1L101.3,509.1l-1.2,1.7
						h1.2L101.3,509.1L101.3,509.1z M105.1,511.4v0.5h-2.6l1.8-2.2c0.2-0.2,0.4-0.5,0.4-0.7c0-0.4-0.4-0.8-0.8-0.8
						c-0.4,0-0.8,0.3-0.8,0.8h-0.5c0.1-0.7,0.6-1.2,1.3-1.2c0.7,0,1.3,0.5,1.3,1.2c0,0.3-0.1,0.6-0.3,0.9l-1.3,1.7L105.1,511.4
						L105.1,511.4z M106.8,509.4c0.4,0,0.8-0.2,0.8-0.7c0-0.4-0.3-0.7-0.7-0.7c-0.4,0-0.6,0.2-0.7,0.6h-0.5c0.1-0.7,0.5-1,1.2-1
						c0.6,0,1.2,0.4,1.2,1.1c0,0.4-0.2,0.7-0.5,0.9c0.4,0.2,0.6,0.6,0.6,1c0,0.8-0.6,1.2-1.3,1.2c-0.6,0-1.2-0.4-1.2-1.1h0.5
						c0,0.4,0.4,0.7,0.8,0.7c0.5,0,0.8-0.4,0.8-0.8c0-0.5-0.4-0.8-0.9-0.8L106.8,509.4L106.8,509.4z M108.7,509.8
						c0-0.9,0.4-2.2,1.4-2.2c1.1,0,1.4,1.3,1.4,2.2c0,0.8-0.4,2.2-1.4,2.2S108.7,510.6,108.7,509.8z M109.2,509.8
						c0,0.6,0.2,1.7,0.9,1.7c0.7,0,0.9-1.1,0.9-1.7s-0.2-1.7-0.9-1.7C109.4,508,109.2,509.2,109.2,509.8z"/>
				</g>
			</g>
			<g id="g4216">
				<g id="h4216">
					<rect id="b4216" x="95.5" y="365.7" class="st2" width="19.8" height="10.2"/>
					<path id="t4216" class="st3" d="M102.5,371.6v0.5h-0.5v0.6h-0.5v-0.6h-2l2.5-3.7v3.3H102.5z M101.6,369.9L101.6,369.9l-1.2,1.7
						h1.2L101.6,369.9L101.6,369.9z M105.4,372.2v0.5h-2.6l1.8-2.2c0.2-0.2,0.4-0.5,0.4-0.7c0-0.4-0.4-0.8-0.8-0.8
						c-0.4,0-0.8,0.3-0.8,0.8h-0.5c0.1-0.7,0.5-1.2,1.3-1.2c0.7,0,1.3,0.5,1.3,1.2c0,0.3-0.1,0.6-0.3,0.9l-1.3,1.7L105.4,372.2
						L105.4,372.2z M106.1,369l0.3-0.5h0.9v4.1h-0.5V369H106.1z M110.6,368.7l-1.1,1.5l0,0c0.1-0.1,0.3-0.1,0.4-0.1
						c0.7,0,1.2,0.6,1.2,1.3c0,0.8-0.6,1.4-1.3,1.4c-0.7,0-1.4-0.6-1.4-1.3c0-0.4,0.2-0.8,0.4-1.1l1.4-1.9L110.6,368.7z
						 M110.6,371.5c0-0.5-0.4-0.9-0.9-0.9c-0.4,0-0.9,0.4-0.9,0.9c0,0.5,0.4,0.9,0.9,0.9C110.2,372.3,110.6,371.9,110.6,371.5z"/>
				</g>
			</g>
			<g id="g4217">
				<g id="h4217">
					<rect id="b4217" x="95.5" y="375.9" class="st2" width="19.8" height="10.1"/>
					<path id="t4217" class="st3" d="M102.6,382v0.5h-0.5v0.6h-0.5v-0.6h-2l2.5-3.7v3.3H102.6z M101.6,380.3L101.6,380.3l-1.2,1.7
						h1.2L101.6,380.3L101.6,380.3z M105.5,382.6v0.5h-2.6l1.8-2.2c0.2-0.2,0.4-0.5,0.4-0.7c0-0.4-0.4-0.8-0.8-0.8
						c-0.4,0-0.8,0.3-0.8,0.8h-0.5c0.1-0.7,0.6-1.2,1.3-1.2c0.7,0,1.3,0.5,1.3,1.2c0,0.3-0.1,0.6-0.3,0.9l-1.3,1.7L105.5,382.6
						L105.5,382.6z M106.2,379.4l0.3-0.5h0.9v4.1h-0.5v-3.7L106.2,379.4L106.2,379.4z M108.4,379.4v-0.5h2.9l-2.5,4.2l-0.4-0.2
						l2.1-3.5H108.4z"/>
				</g>
			</g>
			<g id="g4218">
				<g id="h4218">
					<rect id="b4218" x="95.5" y="385.9" class="st2" width="19.8" height="10.1"/>
					<path id="t4218" class="st3" d="M102.5,391.9v0.5H102v0.6h-0.5v-0.6h-2l2.5-3.7v3.3H102.5z M101.6,390.2L101.6,390.2l-1.2,1.7
						h1.2L101.6,390.2L101.6,390.2z M105.4,392.5v0.5h-2.6l1.8-2.2c0.2-0.2,0.4-0.5,0.4-0.7c0-0.4-0.4-0.8-0.8-0.8
						c-0.4,0-0.8,0.3-0.8,0.8h-0.5c0.1-0.7,0.5-1.2,1.3-1.2c0.7,0,1.3,0.5,1.3,1.2c0,0.3-0.1,0.6-0.3,0.9l-1.3,1.7L105.4,392.5
						L105.4,392.5z M106.1,389.3l0.3-0.5h0.9v4.1h-0.5v-3.7L106.1,389.3L106.1,389.3z M109.2,390.8c-0.3-0.2-0.5-0.5-0.5-0.9
						c0-0.7,0.5-1.2,1.2-1.2s1.2,0.5,1.2,1.2c0,0.4-0.2,0.7-0.5,0.9c0.4,0.1,0.6,0.5,0.6,1c0,0.8-0.6,1.2-1.3,1.2s-1.3-0.5-1.3-1.2
						C108.5,391.4,108.7,391,109.2,390.8z M109,391.8c0,0.4,0.4,0.8,0.8,0.8s0.8-0.4,0.8-0.8c0-0.4-0.4-0.8-0.8-0.8
						S109,391.4,109,391.8z M109.1,389.9c0,0.3,0.3,0.7,0.7,0.7c0.3,0,0.7-0.4,0.7-0.7c0-0.4-0.3-0.7-0.7-0.7
						S109.1,389.5,109.1,389.9z"/>
				</g>
			</g>
			<g id="g4219">
				<g id="h4219">
					<rect id="b4219" x="95.5" y="396" class="st2" width="19.8" height="9.9"/>
					<path id="t4219" class="st3" d="M102.5,401.8v0.5h-0.5v0.6h-0.5v-0.6h-2l2.5-3.7v3.3H102.5z M101.6,400.1L101.6,400.1l-1.2,1.7
						h1.2L101.6,400.1L101.6,400.1z M105.5,402.4v0.5h-2.6l1.8-2.2c0.2-0.2,0.4-0.5,0.4-0.7c0-0.4-0.4-0.8-0.8-0.8
						c-0.4,0-0.8,0.3-0.8,0.8h-0.5c0.1-0.7,0.6-1.2,1.3-1.2c0.7,0,1.3,0.5,1.3,1.2c0,0.3-0.1,0.6-0.3,0.9l-1.3,1.7L105.5,402.4
						L105.5,402.4z M106.1,399.2l0.3-0.5h0.9v4.1h-0.5v-3.7L106.1,399.2L106.1,399.2z M109,402.7l1.1-1.5l0,0
						c-0.1,0.1-0.3,0.1-0.4,0.1c-0.7,0-1.2-0.6-1.2-1.3c0-0.8,0.6-1.4,1.3-1.4c0.7,0,1.4,0.6,1.4,1.3c0,0.4-0.2,0.8-0.4,1.1
						l-1.4,1.9L109,402.7z M110.7,400c0-0.4-0.4-0.9-0.8-0.9c-0.5,0-0.9,0.4-0.9,0.9c0,0.5,0.4,0.9,0.9,0.9
						C110.3,400.9,110.7,400.5,110.7,400z"/>
				</g>
			</g>
			<g id="g4220">
				<g id="h4220">
					<rect id="b4220" x="95.5" y="405.9" class="st2" width="19.8" height="9.9"/>
					<path id="t4220" class="st3" d="M102.2,412v0.5h-0.5v0.6h-0.5v-0.6h-2l2.5-3.7v3.3H102.2z M101.2,410.3L101.2,410.3l-1.2,1.7
						h1.2L101.2,410.3L101.2,410.3z M105.1,412.6v0.5h-2.6l1.8-2.2c0.2-0.2,0.4-0.5,0.4-0.7c0-0.4-0.4-0.8-0.8-0.8
						c-0.4,0-0.8,0.3-0.8,0.8h-0.5c0.1-0.7,0.5-1.2,1.3-1.2c0.7,0,1.3,0.5,1.3,1.2c0,0.3-0.1,0.6-0.3,0.9l-1.3,1.7L105.1,412.6
						L105.1,412.6z M108.3,412.6v0.5h-2.6l1.8-2.2c0.2-0.2,0.4-0.5,0.4-0.7c0-0.4-0.4-0.8-0.8-0.8c-0.4,0-0.8,0.3-0.8,0.8h-0.5
						c0.1-0.7,0.5-1.2,1.3-1.2c0.7,0,1.3,0.5,1.3,1.2c0,0.3-0.1,0.6-0.3,0.9l-1.3,1.7L108.3,412.6L108.3,412.6z M108.7,411
						c0-0.9,0.4-2.2,1.4-2.2c1.1,0,1.4,1.3,1.4,2.2c0,0.8-0.4,2.2-1.4,2.2S108.7,411.9,108.7,411z M109.2,411c0,0.6,0.2,1.7,0.9,1.7
						c0.7,0,0.9-1.1,0.9-1.7s-0.2-1.7-0.9-1.7C109.4,409.3,109.2,410.4,109.2,411z"/>
				</g>
			</g>
			<g id="g4221">
				<g id="h4221">
					<rect id="b4221" x="95.5" y="415.8" class="st2" width="19.8" height="9.9"/>
					<path id="t4221" class="st3" d="M102.3,421.5v0.5h-0.5v0.6h-0.5v-0.6h-2l2.5-3.7v3.3H102.3z M101.4,419.8L101.4,419.8l-1.2,1.7
						h1.2L101.4,419.8L101.4,419.8z M105.2,422.1v0.5h-2.6l1.8-2.2c0.2-0.2,0.4-0.5,0.4-0.7c0-0.4-0.4-0.8-0.8-0.8
						c-0.4,0-0.8,0.3-0.8,0.8h-0.5c0.1-0.7,0.6-1.2,1.3-1.2c0.7,0,1.3,0.5,1.3,1.2c0,0.3-0.1,0.6-0.3,0.9l-1.3,1.7L105.2,422.1
						L105.2,422.1z M108.4,422.1v0.5h-2.6l1.8-2.2c0.2-0.2,0.4-0.5,0.4-0.7c0-0.4-0.4-0.8-0.8-0.8c-0.4,0-0.8,0.3-0.8,0.8h-0.5
						c0.1-0.7,0.6-1.2,1.3-1.2c0.7,0,1.3,0.5,1.3,1.2c0,0.3-0.1,0.6-0.3,0.9l-1.3,1.7L108.4,422.1L108.4,422.1z M109.1,418.9
						l0.3-0.5h0.9v4.1h-0.5v-3.7H109.1z"/>
				</g>
			</g>
			<g id="g4222">
				<g id="h4222">
					<rect id="b4222" x="95.5" y="425.7" class="st2" width="19.8" height="9.9"/>
					<path id="t4222" class="st3" d="M102.2,431.6v0.5h-0.5v0.6h-0.5v-0.6h-2l2.5-3.7v3.3H102.2z M101.3,429.9L101.3,429.9l-1.2,1.7
						h1.2L101.3,429.9L101.3,429.9z M105.1,432.2v0.5h-2.6l1.8-2.2c0.2-0.2,0.4-0.5,0.4-0.7c0-0.4-0.4-0.8-0.8-0.8
						c-0.4,0-0.8,0.3-0.8,0.8h-0.5c0.1-0.7,0.5-1.2,1.3-1.2c0.7,0,1.3,0.5,1.3,1.2c0,0.3-0.1,0.6-0.3,0.9l-1.3,1.7L105.1,432.2
						L105.1,432.2z M108.3,432.2v0.5h-2.6l1.8-2.2c0.2-0.2,0.4-0.5,0.4-0.7c0-0.4-0.4-0.8-0.8-0.8c-0.4,0-0.8,0.3-0.8,0.8h-0.5
						c0.1-0.7,0.6-1.2,1.3-1.2c0.7,0,1.3,0.5,1.3,1.2c0,0.3-0.1,0.6-0.3,0.9l-1.3,1.7L108.3,432.2L108.3,432.2z M111.4,432.2v0.5
						h-2.6l1.8-2.2c0.2-0.2,0.4-0.5,0.4-0.7c0-0.4-0.4-0.8-0.8-0.8c-0.4,0-0.8,0.3-0.8,0.8h-0.5c0.1-0.7,0.6-1.2,1.3-1.2
						c0.7,0,1.3,0.5,1.3,1.2c0,0.3-0.1,0.6-0.3,0.9l-1.3,1.7L111.4,432.2L111.4,432.2z"/>
				</g>
			</g>
			<g id="g4223">
				<g id="h4223">
					<rect id="b4223" x="95.5" y="435.7" class="st2" width="19.8" height="9.9"/>
					<path id="t4223" class="st3" d="M102.2,441.4v0.5h-0.5v0.6h-0.5v-0.6h-2l2.5-3.7v3.3H102.2z M101.3,439.7L101.3,439.7l-1.2,1.7
						h1.2L101.3,439.7L101.3,439.7z M105.1,441.9v0.5h-2.6l1.8-2.2c0.2-0.2,0.4-0.5,0.4-0.7c0-0.4-0.4-0.8-0.8-0.8
						c-0.4,0-0.8,0.3-0.8,0.8h-0.5c0.1-0.7,0.6-1.2,1.3-1.2c0.7,0,1.3,0.5,1.3,1.2c0,0.3-0.1,0.6-0.3,0.9l-1.3,1.7L105.1,441.9
						L105.1,441.9z M108.3,441.9v0.5h-2.6l1.8-2.2c0.2-0.2,0.4-0.5,0.4-0.7c0-0.4-0.4-0.8-0.8-0.8c-0.4,0-0.8,0.3-0.8,0.8h-0.5
						c0.1-0.7,0.6-1.2,1.3-1.2c0.7,0,1.3,0.5,1.3,1.2c0,0.3-0.1,0.6-0.3,0.9l-1.3,1.7L108.3,441.9L108.3,441.9z M110,440
						c0.4,0,0.8-0.2,0.8-0.7c0-0.4-0.3-0.7-0.7-0.7c-0.4,0-0.6,0.2-0.7,0.6h-0.5c0.1-0.7,0.5-1,1.2-1c0.6,0,1.2,0.4,1.2,1.1
						c0,0.4-0.2,0.7-0.5,0.9c0.4,0.2,0.6,0.6,0.6,1c0,0.8-0.6,1.2-1.3,1.2c-0.6,0-1.2-0.4-1.2-1.1h0.5c0,0.4,0.4,0.7,0.8,0.7
						c0.5,0,0.8-0.4,0.8-0.8c0-0.5-0.4-0.8-0.9-0.8L110,440L110,440z"/>
				</g>
			</g>
			<g id="g4224">
				<g id="h4224">
					<rect id="b4224" x="95.5" y="445.6" class="st2" width="19.8" height="9.9"/>
					<path id="t4224" class="st3" d="M102.2,451.3v0.5h-0.5v0.6h-0.5v-0.6h-2l2.5-3.7v3.3H102.2z M101.2,449.6L101.2,449.6l-1.2,1.7
						h1.2L101.2,449.6L101.2,449.6z M105.1,451.9v0.5h-2.6l1.8-2.2c0.2-0.2,0.4-0.5,0.4-0.7c0-0.4-0.4-0.8-0.8-0.8
						c-0.4,0-0.8,0.3-0.8,0.8h-0.5c0.1-0.7,0.6-1.2,1.3-1.2c0.7,0,1.3,0.5,1.3,1.2c0,0.3-0.1,0.6-0.3,0.9l-1.3,1.7L105.1,451.9
						L105.1,451.9z M108.2,451.9v0.5h-2.6l1.8-2.2c0.2-0.2,0.4-0.5,0.4-0.7c0-0.4-0.4-0.8-0.8-0.8c-0.4,0-0.8,0.3-0.8,0.8h-0.5
						c0.1-0.7,0.6-1.2,1.3-1.2c0.7,0,1.3,0.5,1.3,1.2c0,0.3-0.1,0.6-0.3,0.9l-1.3,1.7L108.2,451.9L108.2,451.9z M111.6,451.3v0.5
						h-0.5v0.6h-0.5v-0.6h-2l2.5-3.7v3.3H111.6z M110.6,449.6L110.6,449.6l-1.2,1.7h1.2L110.6,449.6L110.6,449.6z"/>
				</g>
			</g>
			<g id="g4227">
				<g id="h4227">
					<rect id="b4227" x="95.5" y="475.2" class="st2" width="19.8" height="9.9"/>
					<path id="t4227" class="st3" d="M102.2,481.1v0.5h-0.5v0.6h-0.5v-0.6h-2l2.5-3.7v3.3H102.2z M101.3,479.4L101.3,479.4l-1.2,1.7
						h1.2L101.3,479.4L101.3,479.4z M105.1,481.7v0.5h-2.6l1.8-2.2c0.2-0.2,0.4-0.5,0.4-0.7c0-0.4-0.4-0.8-0.8-0.8
						c-0.4,0-0.8,0.3-0.8,0.8h-0.5c0.1-0.7,0.5-1.2,1.3-1.2c0.7,0,1.3,0.5,1.3,1.2c0,0.3-0.1,0.6-0.3,0.9l-1.3,1.7L105.1,481.7
						L105.1,481.7z M108.3,481.7v0.5h-2.6l1.8-2.2c0.2-0.2,0.4-0.5,0.4-0.7c0-0.4-0.4-0.8-0.8-0.8c-0.4,0-0.8,0.3-0.8,0.8h-0.5
						c0.1-0.7,0.6-1.2,1.3-1.2c0.7,0,1.3,0.5,1.3,1.2c0,0.3-0.1,0.6-0.3,0.9l-1.3,1.7L108.3,481.7L108.3,481.7z M108.8,478.5v-0.5
						h2.9l-2.5,4.2l-0.4-0.2l2.1-3.5L108.8,478.5L108.8,478.5z"/>
				</g>
			</g>
			<g id="g4226">
				<g id="h4226">
					<rect id="b4226" x="95.5" y="465.2" class="st2" width="19.8" height="10"/>
					<path id="t4226" class="st3" d="M102.2,471.2v0.5h-0.5v0.6h-0.5v-0.6h-2l2.5-3.7v3.3H102.2z M101.3,469.5L101.3,469.5l-1.2,1.7
						h1.2L101.3,469.5L101.3,469.5z M105.1,471.8v0.5h-2.6l1.8-2.2c0.2-0.2,0.4-0.5,0.4-0.7c0-0.4-0.4-0.8-0.8-0.8
						c-0.4,0-0.8,0.3-0.8,0.8h-0.5c0.1-0.7,0.5-1.2,1.3-1.2c0.7,0,1.3,0.5,1.3,1.2c0,0.3-0.1,0.6-0.3,0.9l-1.3,1.7L105.1,471.8
						L105.1,471.8z M108.3,471.8v0.5h-2.6l1.8-2.2c0.2-0.2,0.4-0.5,0.4-0.7c0-0.4-0.4-0.8-0.8-0.8c-0.4,0-0.8,0.3-0.8,0.8h-0.5
						c0.1-0.7,0.5-1.2,1.3-1.2c0.7,0,1.3,0.5,1.3,1.2c0,0.3-0.1,0.6-0.3,0.9l-1.3,1.7L108.3,471.8L108.3,471.8z M110.9,468.3
						l-1.1,1.5l0,0c0.1-0.1,0.3-0.1,0.4-0.1c0.7,0,1.2,0.6,1.2,1.3c0,0.8-0.6,1.4-1.3,1.4c-0.7,0-1.4-0.6-1.4-1.3
						c0-0.4,0.2-0.8,0.4-1.1l1.4-1.9L110.9,468.3z M110.9,471.1c0-0.5-0.4-0.9-0.9-0.9c-0.4,0-0.9,0.4-0.9,0.9
						c0,0.5,0.4,0.9,0.9,0.9C110.5,471.9,110.9,471.5,110.9,471.1z"/>
				</g>
			</g>
			<g id="g4207">
				<g id="h4207">
					<rect id="b4207" x="95.5" y="276.5" class="st2" width="19.8" height="9.9"/>
					<path id="t4207" class="st3" d="M102.3,282.3v0.5h-0.5v0.6h-0.5v-0.6h-2l2.5-3.7v3.3H102.3z M101.3,280.5L101.3,280.5l-1.2,1.7
						h1.2L101.3,280.5L101.3,280.5z M105.2,282.8v0.5h-2.6l1.8-2.2c0.2-0.2,0.4-0.5,0.4-0.7c0-0.4-0.4-0.8-0.8-0.8
						c-0.4,0-0.8,0.3-0.8,0.8h-0.5c0.1-0.7,0.5-1.2,1.3-1.2c0.7,0,1.3,0.5,1.3,1.2c0,0.3-0.1,0.6-0.3,0.9l-1.3,1.7L105.2,282.8
						L105.2,282.8z M105.6,281.2c0-0.9,0.4-2.2,1.4-2.2c1.1,0,1.4,1.3,1.4,2.2c0,0.8-0.4,2.2-1.4,2.2S105.6,282.1,105.6,281.2z
						 M106.1,281.2c0,0.6,0.2,1.7,0.9,1.7c0.7,0,0.9-1.1,0.9-1.7s-0.2-1.7-0.9-1.7C106.3,279.5,106.1,280.7,106.1,281.2z
						 M108.7,279.6v-0.5h2.9l-2.5,4.2l-0.4-0.2l2.1-3.5H108.7z"/>
				</g>
			</g>
			<g id="g4208">
				<g id="h4208">
					<rect id="b4208" x="95.5" y="286.4" class="st2" width="19.8" height="9.9"/>
					<path id="t4208" class="st3" d="M102.2,292.2v0.5h-0.5v0.6h-0.5v-0.6h-2l2.5-3.7v3.3H102.2z M101.2,290.5L101.2,290.5l-1.2,1.7
						h1.2L101.2,290.5L101.2,290.5z M105.1,292.7v0.5h-2.6l1.8-2.2c0.2-0.2,0.4-0.5,0.4-0.7c0-0.4-0.4-0.8-0.8-0.8
						c-0.4,0-0.8,0.3-0.8,0.8h-0.5c0.1-0.7,0.6-1.2,1.3-1.2c0.7,0,1.3,0.5,1.3,1.2c0,0.3-0.1,0.6-0.3,0.9l-1.3,1.7L105.1,292.7
						L105.1,292.7z M105.5,291.1c0-0.9,0.4-2.2,1.4-2.2c1.1,0,1.4,1.3,1.4,2.2c0,0.8-0.4,2.2-1.4,2.2S105.5,292,105.5,291.1z
						 M106,291.1c0,0.6,0.2,1.7,0.9,1.7s0.9-1.1,0.9-1.7s-0.2-1.7-0.9-1.7S106,290.6,106,291.1z M109.5,291.1
						c-0.3-0.2-0.5-0.5-0.5-0.9c0-0.7,0.5-1.2,1.2-1.2s1.2,0.5,1.2,1.2c0,0.4-0.2,0.7-0.5,0.9c0.4,0.1,0.6,0.5,0.6,1
						c0,0.8-0.6,1.2-1.3,1.2s-1.3-0.5-1.3-1.2C108.9,291.6,109.1,291.2,109.5,291.1z M109.4,292.1c0,0.4,0.4,0.8,0.8,0.8
						c0.4,0,0.8-0.4,0.8-0.8c0-0.4-0.4-0.8-0.8-0.8C109.7,291.3,109.4,291.6,109.4,292.1z M109.5,290.1c0,0.3,0.3,0.7,0.7,0.7
						c0.3,0,0.7-0.4,0.7-0.7c0-0.4-0.3-0.7-0.7-0.7C109.8,289.4,109.5,289.7,109.5,290.1z"/>
				</g>
			</g>
			<g id="g4209">
				<g id="h4209">
					<rect id="b4209" x="95.5" y="296.2" class="st2" width="19.8" height="10.5"/>
					<path id="t4209" class="st3" d="M102.2,302.4v0.5h-0.5v0.6h-0.5v-0.6h-2l2.5-3.7v3.3H102.2z M101.2,300.7L101.2,300.7l-1.2,1.7
						h1.2L101.2,300.7L101.2,300.7z M105.1,303v0.5h-2.6l1.8-2.2c0.2-0.2,0.4-0.5,0.4-0.7c0-0.4-0.4-0.8-0.8-0.8
						c-0.4,0-0.8,0.3-0.8,0.8h-0.5c0.1-0.7,0.6-1.2,1.3-1.2c0.7,0,1.3,0.5,1.3,1.2c0,0.3-0.1,0.6-0.3,0.9l-1.3,1.7L105.1,303
						L105.1,303z M105.5,301.4c0-0.9,0.4-2.2,1.4-2.2c1.1,0,1.4,1.3,1.4,2.2c0,0.8-0.4,2.2-1.4,2.2S105.5,302.2,105.5,301.4z
						 M106,301.4c0,0.6,0.2,1.7,0.9,1.7c0.7,0,0.9-1.1,0.9-1.7s-0.2-1.7-0.9-1.7C106.2,299.7,106,300.8,106,301.4z M109.3,303.3
						l1.1-1.5l0,0c-0.1,0.1-0.3,0.1-0.4,0.1c-0.7,0-1.2-0.6-1.2-1.3c0-0.8,0.6-1.4,1.3-1.4c0.7,0,1.4,0.6,1.4,1.3
						c0,0.4-0.2,0.8-0.4,1.1l-1.4,1.9L109.3,303.3z M111,300.6c0-0.4-0.4-0.9-0.8-0.9c-0.5,0-0.9,0.4-0.9,0.9c0,0.5,0.4,0.9,0.9,0.9
						C110.7,301.4,111,301,111,300.6z"/>
				</g>
			</g>
			<g id="g4210">
				<g id="h4210">
					<rect id="b4210" x="95.5" y="306.7" class="st2" width="19.8" height="9.8"/>
					<path id="t4210" class="st3" d="M102.5,312.8v0.5H102v0.6h-0.5v-0.6h-2l2.5-3.7v3.3H102.5z M101.5,311.1L101.5,311.1l-1.2,1.7
						h1.2L101.5,311.1L101.5,311.1z M105.4,313.4v0.5h-2.6l1.8-2.2c0.2-0.2,0.4-0.5,0.4-0.7c0-0.4-0.4-0.8-0.8-0.8
						c-0.4,0-0.8,0.3-0.8,0.8h-0.5c0.1-0.7,0.6-1.2,1.3-1.2c0.7,0,1.3,0.5,1.3,1.2c0,0.3-0.1,0.6-0.3,0.9l-1.3,1.7L105.4,313.4
						L105.4,313.4z M106.1,310.2l0.3-0.5h0.9v4.1h-0.5v-3.7H106.1z M108.4,311.8c0-0.9,0.4-2.2,1.4-2.2c1.1,0,1.4,1.3,1.4,2.2
						c0,0.8-0.4,2.2-1.4,2.2S108.4,312.6,108.4,311.8z M108.9,311.8c0,0.6,0.2,1.7,0.9,1.7c0.7,0,0.9-1.1,0.9-1.7s-0.2-1.7-0.9-1.7
						C109.1,310,108.9,311.2,108.9,311.8z"/>
				</g>
			</g>
			<g id="g4211">
				<g id="h4211">
					<rect id="b4211" x="95.5" y="316.5" class="st2" width="19.8" height="9.8"/>
					<path id="t4211" class="st3" d="M102.7,322.6v0.5h-0.5v0.6h-0.5V323h-2l2.5-3.7v3.3H102.7z M101.7,320.9L101.7,320.9l-1.2,1.7
						h1.2L101.7,320.9L101.7,320.9z M105.6,323.1v0.5h-2.6l1.8-2.2c0.2-0.2,0.4-0.5,0.4-0.7c0-0.4-0.4-0.8-0.8-0.8
						c-0.4,0-0.8,0.3-0.8,0.8H103c0.1-0.7,0.6-1.2,1.3-1.2c0.7,0,1.3,0.5,1.3,1.2c0,0.3-0.1,0.6-0.3,0.9l-1.3,1.7L105.6,323.1
						L105.6,323.1z M106.2,319.9l0.3-0.5h0.9v4.1H107v-3.7L106.2,319.9L106.2,319.9z M108.8,319.9l0.3-0.5h0.9v4.1h-0.5v-3.7
						L108.8,319.9L108.8,319.9z"/>
				</g>
			</g>
			<g id="g4212">
				<g id="h4212">
					<rect id="b4212" x="95.5" y="326.2" class="st2" width="19.8" height="9.8"/>
					<path id="t4212" class="st3" d="M102.6,331.9v0.5h-0.5v0.6h-0.5v-0.6h-2l2.5-3.7v3.3H102.6z M101.6,330.2L101.6,330.2l-1.2,1.7
						h1.2L101.6,330.2L101.6,330.2z M105.5,332.5v0.5h-2.6l1.8-2.2c0.2-0.2,0.4-0.5,0.4-0.7c0-0.4-0.4-0.8-0.8-0.8
						c-0.4,0-0.8,0.3-0.8,0.8h-0.5c0.1-0.7,0.5-1.2,1.3-1.2c0.7,0,1.3,0.5,1.3,1.2c0,0.3-0.1,0.6-0.3,0.9l-1.3,1.7L105.5,332.5
						L105.5,332.5z M106.2,329.3l0.3-0.5h0.9v4.1h-0.5v-3.7H106.2z M111.1,332.5v0.5h-2.6l1.8-2.2c0.2-0.2,0.4-0.5,0.4-0.7
						c0-0.4-0.4-0.8-0.8-0.8c-0.4,0-0.8,0.3-0.8,0.8h-0.5c0.1-0.7,0.6-1.2,1.3-1.2c0.7,0,1.3,0.5,1.3,1.2c0,0.3-0.1,0.6-0.3,0.9
						l-1.3,1.7L111.1,332.5L111.1,332.5z M102.6,331.9v0.5h-0.5v0.6h-0.5v-0.6h-2l2.5-3.7v3.3H102.6z M101.6,330.2L101.6,330.2
						l-1.2,1.7h1.2L101.6,330.2L101.6,330.2z M105.5,332.5v0.5h-2.6l1.8-2.2c0.2-0.2,0.4-0.5,0.4-0.7c0-0.4-0.4-0.8-0.8-0.8
						c-0.4,0-0.8,0.3-0.8,0.8h-0.5c0.1-0.7,0.5-1.2,1.3-1.2c0.7,0,1.3,0.5,1.3,1.2c0,0.3-0.1,0.6-0.3,0.9l-1.3,1.7L105.5,332.5
						L105.5,332.5z M106.2,329.3l0.3-0.5h0.9v4.1h-0.5v-3.7H106.2z M111.1,332.5v0.5h-2.6l1.8-2.2c0.2-0.2,0.4-0.5,0.4-0.7
						c0-0.4-0.4-0.8-0.8-0.8c-0.4,0-0.8,0.3-0.8,0.8h-0.5c0.1-0.7,0.6-1.2,1.3-1.2c0.7,0,1.3,0.5,1.3,1.2c0,0.3-0.1,0.6-0.3,0.9
						l-1.3,1.7L111.1,332.5L111.1,332.5z"/>
				</g>
			</g>
			<g id="g4213">
				<g id="h4213">
					<rect id="b4213" x="95.5" y="336" class="st2" width="19.8" height="9.8"/>
					<path id="t4213" class="st3" d="M102.6,341.7v0.5h-0.5v0.6h-0.5v-0.6h-2l2.5-3.7v3.3H102.6z M101.6,340L101.6,340l-1.2,1.7h1.2
						L101.6,340L101.6,340z M105.5,342.3v0.5h-2.6l1.8-2.2c0.2-0.2,0.4-0.5,0.4-0.7c0-0.4-0.4-0.8-0.8-0.8c-0.4,0-0.8,0.3-0.8,0.8
						h-0.5c0.1-0.7,0.6-1.2,1.3-1.2c0.7,0,1.3,0.5,1.3,1.2c0,0.3-0.1,0.6-0.3,0.9l-1.3,1.7L105.5,342.3L105.5,342.3z M106.2,339.1
						l0.3-0.5h0.9v4.1h-0.5v-3.7L106.2,339.1L106.2,339.1z M109.7,340.4c0.4,0,0.8-0.2,0.8-0.7c0-0.4-0.3-0.7-0.7-0.7
						c-0.4,0-0.6,0.2-0.7,0.6h-0.5c0.1-0.7,0.5-1,1.2-1c0.6,0,1.2,0.4,1.2,1.1c0,0.4-0.2,0.7-0.5,0.9c0.4,0.2,0.6,0.6,0.6,1
						c0,0.8-0.6,1.2-1.3,1.2c-0.6,0-1.2-0.4-1.2-1.1h0.5c0,0.4,0.4,0.7,0.8,0.7c0.5,0,0.8-0.4,0.8-0.8c0-0.5-0.4-0.8-0.9-0.8
						L109.7,340.4L109.7,340.4z M102.6,341.7v0.5h-0.5v0.6h-0.5v-0.6h-2l2.5-3.7v3.3H102.6z M101.6,340L101.6,340l-1.2,1.7h1.2
						L101.6,340L101.6,340z M105.5,342.3v0.5h-2.6l1.8-2.2c0.2-0.2,0.4-0.5,0.4-0.7c0-0.4-0.4-0.8-0.8-0.8c-0.4,0-0.8,0.3-0.8,0.8
						h-0.5c0.1-0.7,0.6-1.2,1.3-1.2c0.7,0,1.3,0.5,1.3,1.2c0,0.3-0.1,0.6-0.3,0.9l-1.3,1.7L105.5,342.3L105.5,342.3z M106.2,339.1
						l0.3-0.5h0.9v4.1h-0.5v-3.7L106.2,339.1L106.2,339.1z M109.7,340.4c0.4,0,0.8-0.2,0.8-0.7c0-0.4-0.3-0.7-0.7-0.7
						c-0.4,0-0.6,0.2-0.7,0.6h-0.5c0.1-0.7,0.5-1,1.2-1c0.6,0,1.2,0.4,1.2,1.1c0,0.4-0.2,0.7-0.5,0.9c0.4,0.2,0.6,0.6,0.6,1
						c0,0.8-0.6,1.2-1.3,1.2c-0.6,0-1.2-0.4-1.2-1.1h0.5c0,0.4,0.4,0.7,0.8,0.7c0.5,0,0.8-0.4,0.8-0.8c0-0.5-0.4-0.8-0.9-0.8
						L109.7,340.4L109.7,340.4z"/>
				</g>
			</g>
			<g id="g4214">
				<g id="h4214">
					<rect id="b4214" x="95.5" y="345.7" class="st2" width="19.8" height="9.9"/>
					<path id="t4214" class="st3" d="M102.5,351.6v0.5h-0.5v0.6h-0.5v-0.6h-2l2.5-3.7v3.3H102.5z M101.6,349.9L101.6,349.9l-1.2,1.7
						h1.2L101.6,349.9L101.6,349.9z M105.4,352.2v0.5h-2.6l1.8-2.2c0.2-0.2,0.4-0.5,0.4-0.7c0-0.4-0.4-0.8-0.8-0.8
						c-0.4,0-0.8,0.3-0.8,0.8h-0.5c0.1-0.7,0.6-1.2,1.3-1.2c0.7,0,1.3,0.5,1.3,1.2c0,0.3-0.1,0.6-0.3,0.9l-1.3,1.7L105.4,352.2
						L105.4,352.2z M106.1,349l0.3-0.5h0.9v4.1h-0.5V349L106.1,349L106.1,349z M111.2,351.6v0.5h-0.5v0.6h-0.5v-0.6h-2l2.5-3.7v3.3
						H111.2z M110.3,349.9L110.3,349.9l-1.2,1.7h1.2L110.3,349.9L110.3,349.9z"/>
				</g>
			</g>
			<g id="g4215">
				<g id="h4215">
					<rect id="b4215" x="95.5" y="355.7" class="st2" width="19.8" height="10"/>
					<path id="t4215" class="st3" d="M102.5,361.7v0.5h-0.5v0.6h-0.5v-0.6h-2l2.5-3.7v3.3H102.5z M101.6,360L101.6,360l-1.2,1.7h1.2
						L101.6,360L101.6,360z M105.4,362.3v0.5h-2.6l1.8-2.2c0.2-0.2,0.4-0.5,0.4-0.7c0-0.4-0.4-0.8-0.8-0.8c-0.4,0-0.8,0.3-0.8,0.8
						h-0.5c0.1-0.7,0.6-1.2,1.3-1.2c0.7,0,1.3,0.5,1.3,1.2c0,0.3-0.1,0.6-0.3,0.9l-1.3,1.7L105.4,362.3L105.4,362.3z M106.1,359.1
						l0.3-0.5h0.9v4.1h-0.5v-3.7H106.1z M109.8,359.1l-0.3,0.9l0.3,0c0.8,0,1.3,0.7,1.3,1.5c0,0.9-0.7,1.5-1.5,1.5
						c-0.5,0-1-0.3-1.2-0.7l0.4-0.4c0.1,0.4,0.5,0.6,0.9,0.6c0.6,0,1-0.5,1-1c0-0.5-0.4-1-1-1c-0.3,0-0.6,0.1-0.8,0.4h-0.1l0.6-2.1
						h1.6v0.5L109.8,359.1L109.8,359.1z"/>
				</g>
			</g>
			<g id="g4027">
				<g id="h4027">
					<rect id="b4027" x="0.6" y="475.3" class="st2" width="19.8" height="9.9"/>
					<path id="t4027" class="st3" d="M7.2,481.1v0.5H6.7v0.6H6.2v-0.6h-2l2.5-3.7v3.3H7.2z M6.2,479.4L6.2,479.4l-1.2,1.7h1.2
						L6.2,479.4L6.2,479.4z M7.5,480.1c0-0.9,0.4-2.2,1.4-2.2s1.4,1.3,1.4,2.2c0,0.8-0.4,2.2-1.4,2.2S7.5,481,7.5,480.1z M8,480.1
						c0,0.6,0.2,1.7,0.9,1.7s0.9-1.1,0.9-1.7s-0.2-1.7-0.9-1.7S8,479.6,8,480.1z M13.4,481.7v0.5h-2.6l1.8-2.2
						c0.2-0.2,0.4-0.5,0.4-0.7c0-0.4-0.4-0.8-0.8-0.8c-0.4,0-0.8,0.3-0.8,0.8h-0.5c0.1-0.7,0.5-1.2,1.3-1.2c0.7,0,1.3,0.5,1.3,1.2
						c0,0.3-0.1,0.6-0.3,0.9l-1.3,1.7L13.4,481.7L13.4,481.7z M13.9,478.5v-0.5h2.9l-2.5,4.2l-0.4-0.2l2.1-3.5L13.9,478.5
						L13.9,478.5z"/>
				</g>
			</g>
			<g id="g4024">
				<g id="h4024">
					<rect id="b4024" x="0.6" y="445.6" class="st2" width="19.8" height="9.9"/>
					<path id="t4024" class="st3" d="M7.1,451.3v0.5H6.7v0.6H6.2v-0.6h-2l2.5-3.7v3.3H7.1z M6.2,449.6L6.2,449.6L5,451.3h1.2
						L6.2,449.6L6.2,449.6z M7.5,450.3c0-0.9,0.4-2.2,1.4-2.2s1.4,1.3,1.4,2.2c0,0.8-0.4,2.2-1.4,2.2S7.5,451.1,7.5,450.3z M8,450.3
						c0,0.6,0.2,1.7,0.9,1.7c0.7,0,0.9-1.1,0.9-1.7s-0.2-1.7-0.9-1.7C8.2,448.6,8,449.7,8,450.3z M13.4,451.9v0.5h-2.6l1.8-2.2
						c0.2-0.2,0.4-0.5,0.4-0.7c0-0.4-0.4-0.8-0.8-0.8c-0.4,0-0.8,0.3-0.8,0.8h-0.5c0.1-0.7,0.5-1.2,1.3-1.2c0.7,0,1.3,0.5,1.3,1.2
						c0,0.3-0.1,0.6-0.3,0.9l-1.3,1.7L13.4,451.9L13.4,451.9z M16.7,451.3v0.5h-0.5v0.6h-0.5v-0.6h-2l2.5-3.7v3.3H16.7z M15.7,449.6
						L15.7,449.6l-1.2,1.7h1.2V449.6z"/>
				</g>
			</g>
			<g id="g4023">
				<g id="h4023">
					<rect id="b4023" x="0.6" y="435.7" class="st2" width="19.8" height="9.9"/>
					<path id="t4023" class="st3" d="M7.2,441.4v0.5H6.7v0.6H6.3v-0.6h-2l2.5-3.7v3.3H7.2z M6.3,439.7L6.3,439.7l-1.2,1.7h1.2V439.7
						z M7.6,440.3c0-0.9,0.4-2.2,1.4-2.2c1.1,0,1.4,1.3,1.4,2.2c0,0.8-0.4,2.2-1.4,2.2S7.6,441.2,7.6,440.3z M8,440.3
						c0,0.6,0.2,1.7,0.9,1.7s0.9-1.1,0.9-1.7s-0.2-1.7-0.9-1.7C8.3,438.6,8,439.8,8,440.3z M13.4,441.9v0.5h-2.6l1.8-2.2
						c0.2-0.2,0.4-0.5,0.4-0.7c0-0.4-0.4-0.8-0.8-0.8c-0.4,0-0.8,0.3-0.8,0.8h-0.5c0.1-0.7,0.5-1.2,1.3-1.2c0.7,0,1.3,0.5,1.3,1.2
						c0,0.3-0.1,0.6-0.3,0.9l-1.3,1.7L13.4,441.9L13.4,441.9z M15.1,440c0.4,0,0.8-0.2,0.8-0.7c0-0.4-0.3-0.7-0.7-0.7
						c-0.4,0-0.6,0.2-0.7,0.6H14c0.1-0.7,0.5-1,1.2-1c0.6,0,1.2,0.4,1.2,1.1c0,0.4-0.2,0.7-0.5,0.9c0.4,0.2,0.6,0.6,0.6,1
						c0,0.8-0.6,1.2-1.3,1.2c-0.6,0-1.2-0.4-1.2-1.1h0.5c0,0.4,0.4,0.7,0.8,0.7c0.5,0,0.8-0.4,0.8-0.8c0-0.5-0.4-0.8-0.9-0.8
						L15.1,440L15.1,440L15.1,440z"/>
				</g>
			</g>
			<g id="g4022">
				<g id="h4022">
					<rect id="b4022" x="0.6" y="425.7" class="st2" width="19.8" height="9.9"/>
					<path id="t4022" class="st3" d="M7.2,431.6v0.5H6.7v0.6H6.3v-0.6h-2l2.5-3.7v3.3H7.2z M6.3,429.9L6.3,429.9l-1.2,1.7h1.2
						L6.3,429.9L6.3,429.9z M7.6,430.6c0-0.9,0.4-2.2,1.4-2.2s1.4,1.3,1.4,2.2c0,0.8-0.4,2.2-1.4,2.2S7.6,431.5,7.6,430.6z M8,430.6
						c0,0.6,0.2,1.7,0.9,1.7s0.9-1.1,0.9-1.7s-0.2-1.7-0.9-1.7S8,430,8,430.6z M13.4,432.2v0.5h-2.6l1.8-2.2
						c0.2-0.2,0.4-0.5,0.4-0.7c0-0.4-0.4-0.8-0.8-0.8c-0.4,0-0.8,0.3-0.8,0.8h-0.5c0.1-0.7,0.5-1.2,1.3-1.2c0.7,0,1.3,0.5,1.3,1.2
						c0,0.3-0.1,0.6-0.3,0.9l-1.3,1.7L13.4,432.2L13.4,432.2z M16.6,432.2v0.5h-2.6l1.8-2.2c0.2-0.2,0.4-0.5,0.4-0.7
						c0-0.4-0.4-0.8-0.8-0.8c-0.4,0-0.8,0.3-0.8,0.8H14c0.1-0.7,0.5-1.2,1.3-1.2c0.7,0,1.3,0.5,1.3,1.2c0,0.3-0.1,0.6-0.3,0.9
						l-1.3,1.7L16.6,432.2L16.6,432.2z"/>
				</g>
			</g>
			<g id="g4026">
				<g id="h4026">
					<rect id="b4026" x="0.6" y="465.4" class="st2" width="19.8" height="9.9"/>
					<path id="t4026" class="st3" d="M7.2,471.2v0.5H6.7v0.6H6.3v-0.6h-2l2.5-3.7v3.3H7.2z M6.3,469.5L6.3,469.5l-1.2,1.7h1.2
						C6.3,471.2,6.3,469.5,6.3,469.5z M7.6,470.2c0-0.9,0.4-2.2,1.4-2.2s1.4,1.3,1.4,2.2c0,0.8-0.4,2.2-1.4,2.2S7.6,471.1,7.6,470.2
						z M8.1,470.2c0,0.6,0.2,1.7,0.9,1.7s0.9-1.1,0.9-1.7s-0.2-1.7-0.9-1.7S8.1,469.6,8.1,470.2z M13.4,471.8v0.5h-2.6l1.8-2.2
						c0.2-0.2,0.4-0.5,0.4-0.7c0-0.4-0.4-0.8-0.8-0.8c-0.4,0-0.8,0.3-0.8,0.8h-0.5c0.1-0.7,0.5-1.2,1.3-1.2c0.7,0,1.3,0.5,1.3,1.2
						c0,0.3-0.1,0.6-0.3,0.9l-1.3,1.7L13.4,471.8L13.4,471.8z M16,468.3l-1.1,1.5l0,0c0.1-0.1,0.3-0.1,0.4-0.1
						c0.7,0,1.2,0.6,1.2,1.3c0,0.8-0.6,1.4-1.3,1.4c-0.7,0-1.4-0.6-1.4-1.3c0-0.4,0.2-0.8,0.4-1.1l1.4-1.9L16,468.3z M16,471.1
						c0-0.5-0.4-0.9-0.9-0.9c-0.4,0-0.9,0.4-0.9,0.9c0,0.5,0.4,0.9,0.9,0.9C15.6,471.9,16,471.5,16,471.1z"/>
				</g>
			</g>
			<g id="g4025">
				<g id="h4025">
					<rect id="b4025" x="0.6" y="455.5" class="st2" width="19.8" height="9.9"/>
					<path id="t4025" class="st3" d="M7.2,461.2v0.5H6.7v0.6H6.2v-0.6h-2l2.5-3.7v3.3H7.2z M6.2,459.5L6.2,459.5l-1.2,1.7h1.2V459.5
						z M7.5,460.2c0-0.9,0.4-2.2,1.4-2.2s1.4,1.3,1.4,2.2c0,0.8-0.4,2.2-1.4,2.2S7.5,461.1,7.5,460.2z M8,460.2
						c0,0.6,0.2,1.7,0.9,1.7c0.7,0,0.9-1.1,0.9-1.7s-0.2-1.7-0.9-1.7C8.2,458.5,8,459.6,8,460.2z M13.4,461.8v0.5h-2.6l1.8-2.2
						c0.2-0.2,0.4-0.5,0.4-0.7c0-0.4-0.4-0.8-0.8-0.8c-0.4,0-0.8,0.3-0.8,0.8h-0.5c0.1-0.7,0.5-1.2,1.3-1.2c0.7,0,1.3,0.5,1.3,1.2
						c0,0.3-0.1,0.6-0.3,0.9l-1.3,1.7L13.4,461.8L13.4,461.8z M15.2,458.6l-0.3,0.9l0.3,0c0.8,0,1.3,0.7,1.3,1.4
						c0,0.9-0.7,1.5-1.5,1.5c-0.5,0-1-0.3-1.2-0.7l0.4-0.4c0.1,0.4,0.5,0.6,0.9,0.6c0.5,0,1-0.5,1-1c0-0.5-0.4-1-1-1
						c-0.3,0-0.6,0.1-0.8,0.4h-0.1l0.6-2.1h1.6v0.5L15.2,458.6L15.2,458.6z"/>
				</g>
			</g>
			<g id="g4021">
				<g id="h4021">
					<rect id="b4021" x="0.6" y="415.8" class="st2" width="19.8" height="9.9"/>
					<path id="t4021" class="st3" d="M7.3,421.5v0.5H6.8v0.6H6.3v-0.6h-2l2.5-3.7v3.3H7.3z M6.3,419.8L6.3,419.8l-1.2,1.7h1.2
						C6.3,421.5,6.3,419.8,6.3,419.8z M7.7,420.5c0-0.9,0.4-2.2,1.4-2.2s1.4,1.3,1.4,2.2c0,0.8-0.4,2.2-1.4,2.2S7.7,421.3,7.7,420.5
						z M8.1,420.5c0,0.6,0.2,1.7,0.9,1.7c0.7,0,0.9-1.1,0.9-1.7s-0.2-1.7-0.9-1.7C8.3,418.7,8.1,419.9,8.1,420.5z M13.5,422.1v0.5
						h-2.6l1.8-2.2c0.2-0.2,0.4-0.5,0.4-0.7c0-0.4-0.4-0.8-0.8-0.8c-0.4,0-0.8,0.3-0.8,0.8h-0.5c0.1-0.7,0.5-1.2,1.3-1.2
						c0.7,0,1.3,0.5,1.3,1.2c0,0.3-0.1,0.6-0.3,0.9l-1.3,1.7L13.5,422.1L13.5,422.1z M14.2,418.9l0.3-0.5h0.9v4.1h-0.5v-3.7H14.2z"
						/>
				</g>
			</g>
			<g id="g4020">
				<g id="h4020">
					<rect id="b4020" x="0.6" y="405.9" class="st2" width="19.8" height="9.9"/>
					<path id="t4020" class="st3" d="M7.2,412v0.5H6.7v0.6H6.2v-0.6h-2l2.5-3.7v3.3H7.2z M6.2,410.3L6.2,410.3L5.1,412h1.2V410.3z
						 M7.5,411c0-0.9,0.4-2.2,1.4-2.2s1.4,1.3,1.4,2.2c0,0.8-0.4,2.2-1.4,2.2S7.5,411.9,7.5,411z M8,411c0,0.6,0.2,1.7,0.9,1.7
						s0.9-1.1,0.9-1.7s-0.2-1.7-0.9-1.7S8,410.4,8,411z M13.4,412.6v0.5h-2.6l1.8-2.2c0.2-0.2,0.4-0.5,0.4-0.7
						c0-0.4-0.4-0.8-0.8-0.8c-0.4,0-0.8,0.3-0.8,0.8h-0.5c0.1-0.7,0.5-1.2,1.3-1.2c0.7,0,1.3,0.5,1.3,1.2c0,0.3-0.1,0.6-0.3,0.9
						l-1.3,1.7L13.4,412.6L13.4,412.6z M13.8,411c0-0.9,0.4-2.2,1.4-2.2s1.4,1.3,1.4,2.2c0,0.8-0.4,2.2-1.4,2.2
						C14.2,413.2,13.8,411.9,13.8,411z M14.3,411c0,0.6,0.2,1.7,0.9,1.7c0.7,0,0.9-1.1,0.9-1.7s-0.2-1.7-0.9-1.7
						C14.5,409.3,14.3,410.4,14.3,411z"/>
				</g>
			</g>
			<g id="g4019">
				<g id="h4019">
					<rect id="b4019" x="0.6" y="396" class="st2" width="19.8" height="9.9"/>
					<path id="t4019" class="st3" d="M7.5,401.8v0.5H7.1v0.6H6.6v-0.6h-2l2.5-3.7v3.3H7.5z M6.6,400.1L6.6,400.1l-1.2,1.7h1.2V400.1
						z M7.9,400.8c0-0.9,0.4-2.2,1.4-2.2s1.4,1.3,1.4,2.2c0,0.8-0.4,2.2-1.4,2.2S7.9,401.7,7.9,400.8z M8.4,400.8
						c0,0.6,0.2,1.7,0.9,1.7s0.9-1.1,0.9-1.7s-0.2-1.7-0.9-1.7S8.4,400.3,8.4,400.8z M11.2,399.2l0.3-0.5h0.9v4.1h-0.5v-3.7
						L11.2,399.2L11.2,399.2z M14.1,402.7l1.1-1.5l0,0c-0.1,0.1-0.3,0.1-0.4,0.1c-0.7,0-1.2-0.6-1.2-1.3c0-0.8,0.6-1.4,1.3-1.4
						c0.7,0,1.4,0.6,1.4,1.3c0,0.4-0.2,0.8-0.4,1.1l-1.4,1.9L14.1,402.7z M15.8,400c0-0.4-0.4-0.9-0.8-0.9c-0.5,0-0.9,0.4-0.9,0.9
						c0,0.5,0.4,0.9,0.9,0.9C15.5,400.9,15.8,400.5,15.8,400z"/>
				</g>
			</g>
			<g id="g4018">
				<g id="h4018">
					<rect id="b4018" x="0.6" y="385.9" class="st2" width="19.8" height="10.1"/>
					<path id="t4018" class="st3" d="M7.5,391.9v0.5H7v0.6H6.5v-0.6h-2l2.5-3.7v3.3H7.5z M6.5,390.2L6.5,390.2l-1.2,1.7h1.2V390.2z
						 M7.8,390.9c0-0.9,0.4-2.2,1.4-2.2c1.1,0,1.4,1.3,1.4,2.2c0,0.8-0.4,2.2-1.4,2.2C8.2,393.1,7.8,391.8,7.8,390.9z M8.3,390.9
						c0,0.6,0.2,1.7,0.9,1.7s0.9-1.1,0.9-1.7s-0.2-1.7-0.9-1.7C8.5,389.2,8.3,390.3,8.3,390.9z M11.2,389.3l0.3-0.5h0.9v4.1h-0.5
						v-3.7L11.2,389.3L11.2,389.3z M14.3,390.8c-0.3-0.2-0.5-0.5-0.5-0.9c0-0.7,0.5-1.2,1.2-1.2s1.2,0.5,1.2,1.2
						c0,0.4-0.2,0.7-0.5,0.9c0.4,0.1,0.6,0.5,0.6,1c0,0.8-0.6,1.2-1.3,1.2s-1.3-0.5-1.3-1.2C13.6,391.4,13.9,391,14.3,390.8z
						 M14.1,391.8c0,0.4,0.4,0.8,0.8,0.8c0.4,0,0.8-0.4,0.8-0.8c0-0.4-0.4-0.8-0.8-0.8C14.5,391.1,14.1,391.4,14.1,391.8z
						 M14.2,389.9c0,0.3,0.4,0.7,0.7,0.7s0.7-0.4,0.7-0.7c0-0.4-0.3-0.7-0.7-0.7S14.2,389.5,14.2,389.9z"/>
				</g>
			</g>
			<g id="g4017">
				<g id="h4017">
					<rect id="b4017" x="0.6" y="375.9" class="st2" width="19.8" height="10.1"/>
					<path id="t4017" class="st3" d="M7.5,381.9v0.5H7.1v0.6H6.6v-0.6h-2l2.5-3.7v3.3H7.5z M6.6,380.2L6.6,380.2l-1.2,1.7h1.2
						L6.6,380.2L6.6,380.2z M7.9,380.9c0-0.9,0.4-2.2,1.4-2.2s1.4,1.3,1.4,2.2c0,0.8-0.4,2.2-1.4,2.2S7.9,381.8,7.9,380.9z
						 M8.4,380.9c0,0.6,0.2,1.7,0.9,1.7s0.9-1.1,0.9-1.7s-0.2-1.7-0.9-1.7S8.4,380.3,8.4,380.9z M11.3,379.3l0.3-0.5h0.9v4.1H12
						v-3.7L11.3,379.3L11.3,379.3z M13.5,379.3v-0.5h2.9l-2.5,4.2l-0.4-0.2l2.1-3.5H13.5z"/>
				</g>
			</g>
			<g id="g4016">
				<g id="h4016">
					<rect id="b4016" x="0.6" y="365.8" class="st2" width="19.8" height="10.1"/>
					<path id="t4016" class="st3" d="M7.5,371.6v0.5H7.1v0.6H6.6v-0.6h-2l2.5-3.7v3.3H7.5z M6.6,369.9L6.6,369.9l-1.2,1.7h1.2
						L6.6,369.9L6.6,369.9z M7.9,370.6c0-0.9,0.4-2.2,1.4-2.2s1.4,1.3,1.4,2.2c0,0.8-0.4,2.2-1.4,2.2S7.9,371.4,7.9,370.6z
						 M8.4,370.6c0,0.6,0.2,1.7,0.9,1.7s0.9-1.1,0.9-1.7s-0.2-1.7-0.9-1.7S8.4,370,8.4,370.6z M11.2,369l0.3-0.5h0.9v4.1h-0.5V369
						H11.2z M15.7,368.7l-1.1,1.5l0,0c0.1-0.1,0.3-0.1,0.4-0.1c0.7,0,1.2,0.6,1.2,1.3c0,0.8-0.6,1.4-1.3,1.4c-0.7,0-1.4-0.6-1.4-1.3
						c0-0.4,0.2-0.8,0.4-1.1l1.4-1.9L15.7,368.7z M15.7,371.5c0-0.5-0.4-0.9-0.9-0.9c-0.4,0-0.9,0.4-0.9,0.9c0,0.5,0.4,0.9,0.9,0.9
						C15.3,372.3,15.7,371.9,15.7,371.5z"/>
				</g>
			</g>
			<g id="g4015">
				<g id="h4015">
					<rect id="b4015" x="0.6" y="355.7" class="st2" width="19.8" height="10.1"/>
					<path id="t4015" class="st3" d="M7.5,361.7v0.5H7.1v0.6H6.6v-0.6h-2l2.5-3.7v3.3H7.5z M6.6,360L6.6,360l-1.2,1.7h1.2L6.6,360
						L6.6,360z M7.9,360.7c0-0.9,0.4-2.2,1.4-2.2s1.4,1.3,1.4,2.2c0,0.8-0.4,2.2-1.4,2.2S7.9,361.5,7.9,360.7z M8.4,360.7
						c0,0.6,0.2,1.7,0.9,1.7s0.9-1.1,0.9-1.7S10,359,9.3,359S8.4,360.1,8.4,360.7z M11.2,359.1l0.3-0.5h0.9v4.1h-0.5v-3.7H11.2z
						 M14.9,359.1l-0.3,0.9l0.3,0c0.8,0,1.3,0.7,1.3,1.5c0,0.9-0.7,1.5-1.5,1.5c-0.5,0-1-0.3-1.2-0.7l0.4-0.4
						c0.1,0.4,0.5,0.6,0.9,0.6c0.5,0,1-0.5,1-1c0-0.5-0.4-1-1-1c-0.3,0-0.6,0.1-0.8,0.4h-0.1l0.6-2.1h1.6v0.5L14.9,359.1L14.9,359.1
						z"/>
				</g>
			</g>
			<g id="g4014">
				<g id="h4014">
					<rect id="b4014" x="0.6" y="345.7" class="st2" width="19.8" height="10"/>
					<path id="t4014" class="st3" d="M7.5,351.6v0.5H7v0.6H6.5v-0.6h-2l2.5-3.7v3.3H7.5z M6.5,349.9L6.5,349.9l-1.2,1.7h1.2
						L6.5,349.9L6.5,349.9z M7.9,350.6c0-0.9,0.4-2.2,1.4-2.2s1.4,1.3,1.4,2.2c0,0.8-0.4,2.2-1.4,2.2S7.9,351.5,7.9,350.6z
						 M8.3,350.6c0,0.6,0.2,1.7,0.9,1.7s0.9-1.1,0.9-1.7s-0.2-1.7-0.9-1.7C8.5,348.9,8.3,350,8.3,350.6z M11.2,349l0.3-0.5h0.9v4.1
						h-0.5V349L11.2,349L11.2,349z M16.3,351.6v0.5h-0.5v0.6h-0.5v-0.6h-2l2.5-3.7v3.3H16.3z M15.4,349.9L15.4,349.9l-1.2,1.7h1.2
						V349.9z"/>
				</g>
			</g>
			<g id="g4013">
				<g id="h4013">
					<rect id="b4013" x="0.6" y="336" class="st2" width="19.8" height="9.8"/>
					<path id="t4013" class="st3" d="M7.5,341.7v0.5H7.1v0.6H6.6v-0.6h-2l2.5-3.7v3.3H7.5z M6.6,340L6.6,340l-1.2,1.7h1.2
						C6.6,341.7,6.6,340,6.6,340z M7.9,340.7c0-0.9,0.4-2.2,1.4-2.2s1.4,1.3,1.4,2.2c0,0.8-0.4,2.2-1.4,2.2S7.9,341.6,7.9,340.7z
						 M8.4,340.7c0,0.6,0.2,1.7,0.9,1.7s0.9-1.1,0.9-1.7S10,339,9.3,339S8.4,340.1,8.4,340.7z M11.3,339.1l0.3-0.5h0.9v4.1H12v-3.7
						L11.3,339.1L11.3,339.1z M14.8,340.4c0.4,0,0.8-0.2,0.8-0.7c0-0.4-0.3-0.7-0.7-0.7c-0.4,0-0.6,0.2-0.7,0.6h-0.5
						c0.1-0.7,0.5-1,1.2-1c0.6,0,1.2,0.4,1.2,1.1c0,0.4-0.2,0.7-0.5,0.9c0.4,0.2,0.6,0.6,0.6,1c0,0.8-0.6,1.2-1.3,1.2
						c-0.6,0-1.2-0.4-1.2-1.1h0.5c0,0.4,0.4,0.7,0.8,0.7c0.5,0,0.8-0.4,0.8-0.8c0-0.5-0.4-0.8-0.9-0.8L14.8,340.4L14.8,340.4
						L14.8,340.4z"/>
				</g>
			</g>
			<g id="g4012">
				<g id="h4012">
					<rect id="b4012" x="0.6" y="326.2" class="st2" width="19.8" height="9.8"/>
					<path id="t4012" class="st3" d="M7.5,331.9v0.5H7.1v0.6H6.6v-0.6h-2l2.5-3.7v3.3H7.5z M6.6,330.2L6.6,330.2l-1.2,1.7h1.2
						C6.6,331.9,6.6,330.2,6.6,330.2z M7.9,330.9c0-0.9,0.4-2.2,1.4-2.2s1.4,1.3,1.4,2.2c0,0.8-0.4,2.2-1.4,2.2S7.9,331.7,7.9,330.9
						z M8.4,330.9c0,0.6,0.2,1.7,0.9,1.7s0.9-1.1,0.9-1.7s-0.2-1.7-0.9-1.7S8.4,330.3,8.4,330.9z M11.3,329.3l0.3-0.5h0.9v4.1H12
						v-3.7H11.3z M16.2,332.5v0.5h-2.6l1.8-2.2c0.2-0.2,0.4-0.5,0.4-0.7c0-0.4-0.4-0.8-0.8-0.8c-0.4,0-0.8,0.3-0.8,0.8h-0.5
						c0.1-0.7,0.5-1.2,1.3-1.2c0.7,0,1.3,0.5,1.3,1.2c0,0.3-0.1,0.6-0.3,0.9l-1.3,1.7L16.2,332.5L16.2,332.5z"/>
				</g>
			</g>
			<g id="g4011">
				<g id="h4011">
					<rect id="b4011" x="0.6" y="316.5" class="st2" width="19.8" height="9.8"/>
					<path id="t4011" class="st3" d="M7.6,322.6v0.5H7.2v0.6H6.7V323h-2l2.5-3.7v3.3H7.6z M6.7,320.9L6.7,320.9l-1.2,1.7h1.2
						C6.7,322.6,6.7,320.9,6.7,320.9z M8,321.5c0-0.9,0.4-2.2,1.4-2.2s1.4,1.3,1.4,2.2c0,0.8-0.4,2.2-1.4,2.2S8,322.4,8,321.5z
						 M8.5,321.5c0,0.6,0.2,1.7,0.9,1.7s0.9-1.1,0.9-1.7s-0.2-1.7-0.9-1.7S8.5,321,8.5,321.5z M11.4,319.9l0.3-0.5h0.9v4.1h-0.5
						v-3.7L11.4,319.9L11.4,319.9z M13.9,319.9l0.3-0.5H15v4.1h-0.5v-3.7L13.9,319.9C13.9,319.9,13.9,319.9,13.9,319.9z M7.6,322.6
						v0.5H7.2v0.6H6.7V323h-2l2.5-3.7v3.3H7.6z M6.7,320.9L6.7,320.9l-1.2,1.7h1.2C6.7,322.6,6.7,320.9,6.7,320.9z M8,321.5
						c0-0.9,0.4-2.2,1.4-2.2s1.4,1.3,1.4,2.2c0,0.8-0.4,2.2-1.4,2.2S8,322.4,8,321.5z M8.5,321.5c0,0.6,0.2,1.7,0.9,1.7
						s0.9-1.1,0.9-1.7s-0.2-1.7-0.9-1.7S8.5,321,8.5,321.5z M11.4,319.9l0.3-0.5h0.9v4.1h-0.5v-3.7L11.4,319.9L11.4,319.9z
						 M13.9,319.9l0.3-0.5H15v4.1h-0.5v-3.7L13.9,319.9C13.9,319.9,13.9,319.9,13.9,319.9z"/>
				</g>
			</g>
		</g>
	</g>
</g>
<g id="SKY_DECK_04_TOP">
	<g id="gDeck04Locations">
		<path id="_x30_4Aft" width="113.9235" height="281.4333" class="st4" d="M1,835.7c0,0-1.1,5.5,6.3,8s24.4,6.4,50.7,6.4c26.3,0,43.5-4.4,50.4-6.5c6.9-2.1,6.3-8,6.3-8
			s0-126.9,0-266.9H1C1,708.8,1,835.7,1,835.7z"/>
		<path id="_x30_4MidShip" width="113.8449" height="213.007"  class="st4" d="M1,355.7c0,63.5,0,140,0,213h113.8c0-73,0-149.5,0-213L1,355.7z"/>
		<path id="_x30_4Forward" width="113.8399" height="354.7537"  class="st4" d="M114.9,213.2c0-65.5-15.2-118-26.2-144.7c-11-26.7-26-61.1-27.3-63.4S59.2,1,57.9,1
			s-2.2,2.1-3.4,4.3S38.1,42.3,27.1,69C16.1,95.6,1,147.8,1,213.2c0,15.3,0,70.6,0,142.5h113.8C114.9,283.9,114.9,228.5,114.9,213.2
			z"/>
	</g>
	<path class="st5" d="M7.4,844.3c-7.5-2.5-6.9-8-6.9-8s0-568.4,0-623c0-65.5,15.2-118,26.2-144.7C37.7,41.9,52.9,7.2,54.1,5
		s2.6-4.5,3.8-4.5l0,0c1.3,0,2.6,2.2,3.8,4.5s16.4,36.9,27.4,63.6c11,26.7,26.2,79.2,26.2,144.7c0,54.7,0,622.9,0,622.9
		s0.1,5.9-6.9,8c-6.9,2.1-24.2,6.5-50.4,6.5C31.8,850.7,14.8,846.7,7.4,844.3z"/>
</g>
</svg>
