<?xml version="1.0" encoding="utf-8"?>
<!-- Generator: Adobe Illustrator 23.0.2, SVG Export Plug-In . SVG Version: 6.00 Build 0)  -->
<svg version="1.1" id="DAWN_DECK_06" xmlns="http://www.w3.org/2000/svg" xmlns:xlink="http://www.w3.org/1999/xlink" x="0px"
	 y="0px" width="128.039px" height="838.327px" viewBox="0 0 128.039 838.327" style="enable-background:new 0 0 128.039 838.327;"
	 xml:space="preserve">
<style type="text/css">
	.New_x0020_Cabins_x0020_2019{fill:#EFF2F5;stroke:#FFFFFF;stroke-width:0.5;stroke-miterlimit:10;}
	.st0{fill:#FFFFFF;}
	.st1{fill:none;stroke:#D5DCE0;stroke-width:0.5;}
	.st2{fill:none;stroke:#808285;stroke-width:0.75;}
	.st3{display:none;fill:none;stroke:#000000;stroke-width:0.75;}
	.st4{fill:#6E8496;}
	.st5{fill:#EFF2F5;stroke:#FFFFFF;stroke-width:0.5;stroke-miterlimit:10;}
	.st6{fill:none;stroke:#076FA0;stroke-miterlimit:10;}
	.st7{fill:none;}
</style>
<g id="DAWN_DECK_06_BOTTOM">
	<path class="st0" d="M127.67,825.343c0,0,4,10-59,12.667S1.337,825.676,1.337,825.676L0.67,153.343c0,0,1.666-35.999,14-77
		c12.333-41.002,36-68.667,36-68.667s8.333-7.999,14-7.667c5.667,0.332,12,7.667,12,7.667s17.667,16.334,34,61s17,83.333,17,83.333
		V825.343z"/>
	<polyline class="st1" points="29.683,330.676 29.683,304.984 116.132,304.951 116.119,298.926 116.039,290.713 111.603,288.355 
		111.626,282.004 116.068,280.062 116.105,233.934 108.285,233.934 108.285,226.342 	"/>
	<line class="st1" x1="0.784" y1="581.906" x2="127.535" y2="581.906"/>
	<polyline class="st1" points="77.285,456.509 77.285,444.861 86.505,444.861 86.505,397.342 	"/>
	<polyline class="st1" points="77.277,456.194 115.916,456.194 115.916,397.417 	"/>
	<polyline class="st1" points="116.132,304.951 115.964,340.983 79.535,340.983 79.535,335.509 52.284,335.509 52.284,331.009 
		0,331.009 	"/>
	<polyline class="st1" points="39.902,503.259 39.902,485.28 46.415,485.28 46.415,468.774 99.027,468.774 	"/>
	<polyline class="st1" points="99.097,455.926 99.136,485.027 80.804,485.027 80.804,468.599 	"/>
	<line class="st1" x1="81.099" y1="477.03" x2="99.082" y2="477.03"/>
	<line class="st1" x1="0.443" y1="724.676" x2="45.458" y2="724.676"/>
	<line class="st1" x1="81.878" y1="724.717" x2="127.605" y2="724.717"/>
	<polygon class="st1" points="79.066,709.488 82.042,709.399 82.042,733.389 72.576,733.448 72.576,730.579 55.748,730.579 
		55.748,733.389 45.31,733.389 45.31,709.399 48.323,709.399 48.323,726.58 79.066,726.58 	"/>
	<polyline class="st1" points="25.142,835.565 25.142,763.303 0.722,763.303 	"/>
	<polyline class="st1" points="102.605,835.724 102.605,763.553 127.619,763.553 	"/>
	<polyline class="st1" points="24.952,787.038 14.317,787.038 14.317,774.135 25.451,774.135 	"/>
	<polyline class="st1" points="40.61,724.51 40.632,693.649 88.019,693.649 88.033,725.009 	"/>
	<polyline class="st1" points="127.285,382.009 105.753,381.874 105.753,364.927 127.119,353.927 	"/>
	<rect x="40.368" y="494.846" class="st1" width="10.083" height="8.586"/>
	<polygon class="st1" points="50.454,503.432 50.454,494.846 60.479,494.846 60.479,503.432 50.454,503.432 	"/>
	<polygon class="st1" points="67.505,503.432 67.505,494.846 77.589,494.846 77.589,503.432 67.505,503.432 	"/>
	<polygon class="st1" points="77.591,503.432 77.591,494.846 87.619,494.846 87.619,503.432 77.591,503.432 	"/>
	<polygon class="st1" points="63.974,200.93 63.974,192.342 74.06,192.342 74.06,200.93 63.974,200.93 	"/>
	<polygon class="st1" points="53.89,200.93 53.89,192.342 63.974,192.342 63.974,200.93 53.89,200.93 	"/>
	<polygon class="st1" points="74.054,200.93 74.054,192.342 84.138,192.342 84.138,200.93 74.054,200.93 	"/>
	<polygon class="st1" points="43.806,200.93 43.806,192.342 53.892,192.342 53.892,200.93 43.806,200.93 	"/>
	<polygon class="st1" points="63.896,702.21 63.896,693.622 73.982,693.622 73.982,702.21 63.896,702.21 	"/>
	<polygon class="st1" points="53.812,702.21 53.812,693.622 63.896,693.622 63.896,702.21 53.812,702.21 	"/>
	<polygon class="st1" points="73.976,702.21 73.976,693.622 84.06,693.622 84.06,702.21 73.976,702.21 	"/>
	<polygon class="st1" points="43.728,702.21 43.728,693.622 53.813,693.622 53.813,702.21 43.728,702.21 	"/>
	<path class="st1" d="M61.929,749.76c-8.697-0.821-15.633-7.657-16.561-16.28"/>
	<path class="st1" d="M82.005,733.547c-0.951,8.563-7.834,15.351-16.471,16.205"/>
	<path class="st1" d="M76.765,747.419c-3.512,2.944-8.039,4.718-12.981,4.718c-4.977,0-9.533-1.799-13.055-4.781"/>
	<path class="st1" d="M62.194,747.571c-7.395-0.729-13.301-6.794-14.153-14.467"/>
	<path class="st1" d="M79.341,733.099c-0.85,7.675-6.756,13.743-14.153,14.472"/>
	<path class="st1" d="M62.718,745.405c-6.275-0.467-11.334-5.419-12.121-11.732"/>
	<path class="st1" d="M76.785,733.681c-1.24,9.899-8.467,11.522-12.122,11.733"/>
	<path class="st1" d="M54.847,742.196c0,0-3.479,5.396-4.562,5.062"/>
	<path class="st1" d="M50.713,746.584c0,0.598-0.485,1.083-1.083,1.083c-0.6,0-1.084-0.485-1.084-1.083
		c0-0.599,0.484-1.084,1.084-1.084C50.228,745.5,50.713,745.985,50.713,746.584z"/>
	<path class="st1" d="M72.406,742.326c0,0,3.35,5.266,4.432,4.933"/>
	<path class="st1" d="M76.41,746.584c0,0.598,0.484,1.083,1.084,1.083c0.598,0,1.082-0.485,1.082-1.083
		c0-0.599-0.484-1.084-1.082-1.084C76.894,745.5,76.41,745.985,76.41,746.584z"/>
	<circle class="st1" cx="63.784" cy="750.009" r="1.812"/>
	<polyline class="st1" points="61.784,750.009 63.722,741.946 65.722,750.071 	"/>
	<polyline class="st1" points="102.908,787.038 113.541,787.038 113.541,774.135 102.408,774.135 	"/>
	<polyline class="st1" points="127.458,494.822 115.732,494.822 115.732,500.186 106.195,500.186 106.195,494.822 92.013,494.822 
		92.013,503.456 87.699,503.456 87.699,494.822 40.284,494.759 	"/>
	<polyline class="st1" points="127.402,468.759 115.777,468.759 115.777,494.822 	"/>
	<polyline class="st1" points="87.764,503.432 29.784,503.432 29.784,468.774 38.561,468.842 38.561,455.804 29.672,455.804 
		29.624,385.847 54.032,385.936 56.451,385.925 56.451,368.24 63.949,368.24 63.966,397.134 95.453,397.134 95.453,395.259 
		101.869,395.259 101.869,397.759 116.035,397.759 	"/>
	<line class="st1" x1="0.618" y1="434.176" x2="29.451" y2="434.176"/>
	<line class="st1" x1="60.284" y1="368.466" x2="60.284" y2="335.509"/>
	<path class="st3" d="M115.785,331.009v22.21c-38,13-50.501,0.834-50.501,0.834v-18.21"/>
	<line class="st1" x1="0.618" y1="320.176" x2="29.451" y2="320.176"/>
	<line class="st1" x1="29.452" y1="226.509" x2="29.452" y2="192.009"/>
	<line class="st1" x1="108.277" y1="226.601" x2="0.784" y2="226.601"/>
	<line class="st1" x1="0.284" y1="192.333" x2="127.261" y2="192.333"/>
	<line class="st1" x1="0.784" y1="214.009" x2="18.813" y2="214.009"/>
	<line class="st1" x1="0.784" y1="203.009" x2="18.813" y2="203.009"/>
	<polyline class="st1" points="85.373,226.735 85.373,207.759 81.042,207.759 81.042,233.759 81.027,234.009 46.777,234.009 
		46.868,233.759 46.868,207.759 29.534,207.759 	"/>
	<line class="st1" x1="16.284" y1="130.384" x2="16.284" y2="157.342"/>
	<line class="st1" x1="18.618" y1="192.717" x2="18.618" y2="226.509"/>
	<path class="st1" d="M2.452,130.342l28.725,0.166c-0.395-0.682,2.8,6.631-1.143,11.001c0,0,5.216,5.625-0.034,11.125l10.784,10.5"
		/>
	<path class="st1" d="M125.33,130.342H96.623c0,0-3.5,6.042,1.125,11.167c0,0-5.215,5.625,0.035,11.125l-10.785,10.5"/>
	<polyline class="st1" points="11.784,130.384 21.921,89.425 22.618,69.675 31.579,69.675 31.579,61.541 	"/>
	<polyline class="st1" points="116.34,130.384 105.506,89.425 105.506,69.675 96.546,69.675 96.546,61.541 89.974,61.541 	"/>
	<line class="st1" x1="111.703" y1="130.342" x2="111.703" y2="192.009"/>
	<rect x="40.942" y="153.343" class="st1" width="45.708" height="39"/>
	<path class="st1" d="M37.243,133.842c-1.863-1.713-4.154-1.57-5.287-1.357"/>
	<path class="st1" d="M37.243,136.044c-1.66-1.525-3.658-1.579-4.876-1.422"/>
	<path class="st1" d="M37.076,138.247c-1.642-1.509-3.614-1.578-4.836-1.427"/>
	<path class="st1" d="M37.077,140.471c-1.863-1.713-4.363-1.592-5.496-1.379"/>
	<path class="st1" d="M36.909,142.617c-1.863-1.713-5.264-1.433-6.396-1.22"/>
	<path class="st1" d="M37.034,145.058c-1.863-1.713-4.82-1.774-5.953-1.561"/>
	<path class="st1" d="M36.868,147.056c-1.57-1.443-3.443-1.569-4.673-1.445"/>
	<path class="st1" d="M32.321,147.802c1.229-0.102,3.029,0.062,4.547,1.457l0.041,0.042l0.334-17.875
		c-2.584-2.375-5.99-1.182-5.99-1.182"/>
	<path class="st1" d="M90.511,133.842c1.863-1.713,4.154-1.57,5.287-1.357"/>
	<path class="st1" d="M90.511,136.044c1.66-1.525,3.658-1.579,4.877-1.422"/>
	<path class="st1" d="M90.679,138.247c1.641-1.509,3.613-1.578,4.836-1.427"/>
	<path class="st1" d="M90.677,140.471c1.863-1.713,4.365-1.592,5.498-1.379"/>
	<path class="st1" d="M90.847,142.617c1.863-1.713,5.264-1.433,6.396-1.22"/>
	<path class="st1" d="M90.72,145.058c1.863-1.713,4.822-1.774,5.955-1.561"/>
	<path class="st1" d="M90.888,147.056c1.568-1.443,3.443-1.569,4.672-1.445"/>
	<path class="st1" d="M95.433,147.802c-1.229-0.102-3.029,0.062-4.545,1.457l-0.043,0.042l-0.334-17.875
		c2.584-2.375,5.99-1.182,5.99-1.182"/>
	<line class="st1" x1="40.544" y1="503.301" x2="50.356" y2="495.02"/>
	<line class="st1" x1="50.294" y1="503.238" x2="40.575" y2="495.057"/>
	<line class="st1" x1="50.821" y1="503.033" x2="60.343" y2="495.057"/>
	<line class="st1" x1="60.272" y1="503.006" x2="50.825" y2="495.057"/>
	<line class="st1" x1="67.821" y1="502.783" x2="77.343" y2="494.807"/>
	<line class="st1" x1="77.273" y1="502.756" x2="67.825" y2="494.807"/>
	<line class="st1" x1="77.572" y1="503.283" x2="87.093" y2="495.307"/>
	<line class="st1" x1="87.023" y1="503.256" x2="77.576" y2="495.307"/>
	<line class="st1" x1="74.177" y1="200.773" x2="83.943" y2="192.586"/>
	<line class="st1" x1="84.005" y1="200.704" x2="74.224" y2="192.422"/>
	<line class="st1" x1="64.021" y1="200.657" x2="73.976" y2="192.206"/>
	<line class="st1" x1="73.833" y1="200.423" x2="64.146" y2="192.283"/>
	<line class="st1" x1="54.036" y1="200.595" x2="63.849" y2="192.329"/>
	<line class="st1" x1="63.724" y1="200.408" x2="54.052" y2="192.267"/>
	<line class="st1" x1="43.927" y1="200.579" x2="53.833" y2="192.267"/>
	<line class="st1" x1="53.599" y1="200.345" x2="44.005" y2="192.298"/>
	<line class="st1" x1="47.959" y1="724.63" x2="79.314" y2="724.63"/>
	<line class="st1" x1="55.824" y1="712.116" x2="55.824" y2="724.739"/>
	<line class="st1" x1="63.566" y1="711.991" x2="63.566" y2="724.665"/>
	<line class="st1" x1="71.085" y1="711.991" x2="71.085" y2="724.739"/>
	<line class="st1" x1="48.12" y1="722.099" x2="79.089" y2="722.099"/>
	<line class="st1" x1="48.046" y1="719.716" x2="79.087" y2="719.716"/>
	<line class="st1" x1="47.972" y1="717.185" x2="79.013" y2="717.185"/>
	<line class="st1" x1="47.972" y1="714.653" x2="79.089" y2="714.653"/>
	<line class="st1" x1="47.972" y1="712.048" x2="79.238" y2="712.048"/>
	<line class="st1" x1="74.099" y1="702.054" x2="83.865" y2="693.866"/>
	<line class="st1" x1="83.927" y1="702.101" x2="74.146" y2="693.819"/>
	<line class="st1" x1="63.942" y1="702.132" x2="73.898" y2="693.681"/>
	<line class="st1" x1="73.755" y1="701.976" x2="64.067" y2="693.835"/>
	<line class="st1" x1="53.958" y1="702.069" x2="63.771" y2="693.804"/>
	<line class="st1" x1="63.646" y1="701.96" x2="53.974" y2="693.819"/>
	<line class="st1" x1="43.849" y1="702.054" x2="53.755" y2="693.741"/>
	<line class="st1" x1="53.521" y1="701.897" x2="43.927" y2="693.851"/>
	<path class="st1" d="M54.826,484.765c0.377,0,0.683-0.237,0.683-0.538"/>
	<line class="st1" x1="46.567" y1="484.765" x2="54.826" y2="484.765"/>
	<line class="st1" x1="55.509" y1="484.227" x2="55.509" y2="482.142"/>
	<line class="st1" x1="55.509" y1="482.142" x2="71.743" y2="482.142"/>
	<path class="st1" d="M71.743,484.227c0,0.301,0.301,0.538,0.678,0.538"/>
	<line class="st1" x1="71.743" y1="482.142" x2="71.743" y2="484.227"/>
	<line class="st1" x1="72.421" y1="484.765" x2="80.729" y2="484.765"/>
	<line class="st1" x1="63.442" y1="471.905" x2="63.442" y2="484.958"/>
	<line class="st1" x1="63.772" y1="471.905" x2="63.772" y2="484.958"/>
	<line class="st1" x1="46.952" y1="472.572" x2="63.442" y2="472.572"/>
	<line class="st1" x1="63.442" y1="484.958" x2="63.772" y2="484.958"/>
	<line class="st1" x1="63.442" y1="471.905" x2="63.772" y2="471.905"/>
	<line class="st1" x1="63.772" y1="472.572" x2="80.859" y2="472.572"/>
	<line class="st1" x1="63.772" y1="473.954" x2="71.04" y2="473.954"/>
	<line class="st1" x1="63.772" y1="475.338" x2="71.04" y2="475.338"/>
	<line class="st1" x1="63.772" y1="476.722" x2="71.04" y2="476.722"/>
	<line class="st1" x1="63.772" y1="478.106" x2="71.04" y2="478.106"/>
	<line class="st1" x1="63.772" y1="479.489" x2="71.04" y2="479.489"/>
	<line class="st1" x1="63.772" y1="480.874" x2="71.04" y2="480.874"/>
	<line class="st1" x1="63.772" y1="483.64" x2="71.698" y2="483.64"/>
	<line class="st1" x1="56.176" y1="473.954" x2="63.442" y2="473.954"/>
	<line class="st1" x1="56.176" y1="475.338" x2="63.442" y2="475.338"/>
	<line class="st1" x1="56.176" y1="476.722" x2="63.442" y2="476.722"/>
	<line class="st1" x1="56.176" y1="478.106" x2="63.442" y2="478.106"/>
	<line class="st1" x1="56.176" y1="479.489" x2="63.442" y2="479.489"/>
	<line class="st1" x1="56.176" y1="480.874" x2="63.442" y2="480.874"/>
	<line class="st1" x1="55.458" y1="483.64" x2="63.442" y2="483.64"/>
	<line class="st1" x1="80.918" y1="483.403" x2="72.362" y2="483.403"/>
	<line class="st1" x1="80.802" y1="482.037" x2="71.464" y2="482.037"/>
	<line class="st1" x1="80.976" y1="480.678" x2="72.362" y2="480.678"/>
	<line class="st1" x1="80.802" y1="479.313" x2="72.396" y2="479.313"/>
	<line class="st1" x1="55.53" y1="483.403" x2="46.719" y2="483.403"/>
	<line class="st1" x1="55.587" y1="482.037" x2="46.659" y2="482.037"/>
	<line class="st1" x1="54.855" y1="480.678" x2="46.602" y2="480.678"/>
	<line class="st1" x1="54.855" y1="479.313" x2="46.659" y2="479.313"/>
	<path class="st1" d="M72.474,471.749c0-0.288-0.297-0.522-0.661-0.522c-0.365,0-0.66,0.234-0.66,0.522l0,0"/>
	<line class="st1" x1="71.153" y1="471.749" x2="71.153" y2="471.905"/>
	<line class="st1" x1="72.474" y1="471.749" x2="72.474" y2="471.905"/>
	<path class="st1" d="M56.176,471.749c0-0.288-0.294-0.522-0.656-0.522c-0.367,0-0.664,0.234-0.664,0.522l0,0"/>
	<line class="st1" x1="54.855" y1="471.749" x2="54.855" y2="471.905"/>
	<line class="st1" x1="56.176" y1="471.749" x2="56.176" y2="471.905"/>
	<line class="st1" x1="71.804" y1="471.905" x2="71.804" y2="482.011"/>
	<line class="st1" x1="80.743" y1="476.586" x2="72.362" y2="476.586"/>
	<line class="st1" x1="80.743" y1="475.226" x2="72.362" y2="475.226"/>
	<line class="st1" x1="80.685" y1="473.859" x2="72.362" y2="473.859"/>
	<line class="st1" x1="80.802" y1="477.951" x2="72.362" y2="477.951"/>
	<line class="st1" x1="55.528" y1="471.905" x2="55.528" y2="482.193"/>
	<line class="st1" x1="54.855" y1="476.586" x2="46.719" y2="476.586"/>
	<line class="st1" x1="54.855" y1="475.226" x2="46.777" y2="475.226"/>
	<line class="st1" x1="54.855" y1="473.859" x2="46.834" y2="473.859"/>
	<line class="st1" x1="54.949" y1="477.951" x2="46.542" y2="477.951"/>
	<path class="st1" d="M72.874,208.694c-0.373,0-0.675,0.256-0.675,0.578"/>
	<line class="st1" x1="81.036" y1="208.694" x2="72.874" y2="208.694"/>
	<line class="st1" x1="72.199" y1="209.272" x2="72.199" y2="211.513"/>
	<line class="st1" x1="72.199" y1="211.513" x2="56.155" y2="211.513"/>
	<path class="st1" d="M56.155,209.272c0-0.322-0.297-0.578-0.67-0.578"/>
	<line class="st1" x1="56.155" y1="211.513" x2="56.155" y2="209.272"/>
	<line class="st1" x1="55.485" y1="208.694" x2="47.273" y2="208.694"/>
	<line class="st1" x1="64.358" y1="222.507" x2="64.358" y2="208.487"/>
	<line class="st1" x1="64.032" y1="222.507" x2="64.032" y2="208.487"/>
	<line class="st1" x1="80.656" y1="221.79" x2="64.358" y2="221.79"/>
	<line class="st1" x1="64.358" y1="208.487" x2="64.032" y2="208.487"/>
	<line class="st1" x1="64.358" y1="222.507" x2="64.032" y2="222.507"/>
	<line class="st1" x1="64.032" y1="221.79" x2="47.146" y2="221.79"/>
	<line class="st1" x1="64.032" y1="220.306" x2="56.85" y2="220.306"/>
	<line class="st1" x1="64.032" y1="218.819" x2="56.85" y2="218.819"/>
	<line class="st1" x1="64.032" y1="217.333" x2="56.85" y2="217.333"/>
	<line class="st1" x1="64.032" y1="215.847" x2="56.85" y2="215.847"/>
	<line class="st1" x1="64.032" y1="214.36" x2="56.85" y2="214.36"/>
	<line class="st1" x1="64.032" y1="212.874" x2="56.85" y2="212.874"/>
	<line class="st1" x1="64.032" y1="209.903" x2="56.2" y2="209.903"/>
	<line class="st1" x1="71.54" y1="220.306" x2="64.358" y2="220.306"/>
	<line class="st1" x1="71.54" y1="218.819" x2="64.358" y2="218.819"/>
	<line class="st1" x1="71.54" y1="217.333" x2="64.358" y2="217.333"/>
	<line class="st1" x1="71.54" y1="215.847" x2="64.358" y2="215.847"/>
	<line class="st1" x1="71.54" y1="214.36" x2="64.358" y2="214.36"/>
	<line class="st1" x1="71.54" y1="212.874" x2="64.358" y2="212.874"/>
	<line class="st1" x1="72.249" y1="209.903" x2="64.358" y2="209.903"/>
	<line class="st1" x1="47.086" y1="210.157" x2="55.543" y2="210.157"/>
	<line class="st1" x1="47.202" y1="211.624" x2="56.43" y2="211.624"/>
	<line class="st1" x1="47.029" y1="213.085" x2="55.543" y2="213.085"/>
	<line class="st1" x1="47.202" y1="214.55" x2="55.509" y2="214.55"/>
	<line class="st1" x1="72.178" y1="210.157" x2="80.885" y2="210.157"/>
	<line class="st1" x1="72.122" y1="211.624" x2="80.945" y2="211.624"/>
	<line class="st1" x1="72.844" y1="213.085" x2="81.001" y2="213.085"/>
	<line class="st1" x1="72.844" y1="214.55" x2="80.945" y2="214.55"/>
	<path class="st1" d="M55.432,222.675c0,0.309,0.293,0.561,0.653,0.561c0.361,0,0.652-0.252,0.652-0.561l0,0"/>
	<line class="st1" x1="56.738" y1="222.675" x2="56.738" y2="222.507"/>
	<line class="st1" x1="55.432" y1="222.675" x2="55.432" y2="222.507"/>
	<path class="st1" d="M71.54,222.675c0,0.309,0.291,0.561,0.648,0.561c0.363,0,0.656-0.252,0.656-0.561l0,0"/>
	<line class="st1" x1="72.844" y1="222.675" x2="72.844" y2="222.507"/>
	<line class="st1" x1="71.54" y1="222.675" x2="71.54" y2="222.507"/>
	<line class="st1" x1="56.094" y1="222.507" x2="56.094" y2="211.653"/>
	<line class="st1" x1="47.26" y1="217.479" x2="55.543" y2="217.479"/>
	<line class="st1" x1="47.26" y1="218.94" x2="55.543" y2="218.94"/>
	<line class="st1" x1="47.316" y1="220.407" x2="55.543" y2="220.407"/>
	<line class="st1" x1="47.202" y1="216.013" x2="55.543" y2="216.013"/>
	<line class="st1" x1="72.18" y1="222.507" x2="72.18" y2="211.456"/>
	<line class="st1" x1="72.844" y1="217.479" x2="80.885" y2="217.479"/>
	<line class="st1" x1="72.844" y1="218.94" x2="80.829" y2="218.94"/>
	<line class="st1" x1="72.844" y1="220.407" x2="80.772" y2="220.407"/>
	<line class="st1" x1="72.752" y1="216.013" x2="81.061" y2="216.013"/>
	<path class="st1" d="M73.262,389.766 M67.533,389.766 M73.732,397.24v-7.514 M75.441,397.113v-7.615 M77.146,397.113v-7.722
		 M78.953,397.113v-7.843 M80.635,397.24v-7.924 M82.203,397.113v-7.843 M83.822,397.24v-8.357 M64.047,389.954h9.215
		 M64.09,388.541h9.215 M64.107,386.944l9.09,0.029"/>
	<path class="st1" d="M73.262,384.933 M67.533,384.933 M64.047,385.12h9.215 M64.09,383.708h9.215 M64.107,382.11l9.09,0.029"/>
	<path class="st1" d="M21.932,89.109l0.686-19.434h8.96v-8.134h5.305l-0.091,9.68l7.067-0.045c0,0,8.833,6.167,19.333,6
		c10.501-0.166,21.834-6.166,21.834-6.166l5.542-0.001l0.03-9.467l5.947,0.065v8.069h8.96v19.75l8.288,31.333"/>
	<polyline class="st1" points="86.694,397.617 85.4,388.521 73.218,389.945 73.21,381.7 64.194,381.7 	"/>
	<path class="st4" d="M55.132,268.235v-0.192c0-1.967,0.728-2.742,1.639-2.742c0.272,0,0.432,0.032,0.64,0.128v1.007
		c-0.2-0.12-0.36-0.184-0.544-0.184c-0.432,0-0.744,0.384-0.744,1.783v0.208c0,1.479,0.312,1.783,0.76,1.783
		c0.152,0,0.344-0.056,0.544-0.176v0.959c-0.224,0.128-0.44,0.168-0.72,0.168C55.812,270.978,55.132,270.186,55.132,268.235z
		 M58.7,265.325h1.04l1.063,5.613h-0.976l-0.184-1.111h-0.887l-0.176,1.111h-0.944L58.7,265.325z M59.5,268.947l-0.296-1.847
		l-0.304,1.847H59.5z M60.981,270.746v-1.016c0.344,0.2,0.616,0.312,0.879,0.312c0.28,0,0.52-0.136,0.52-0.479v-0.016
		c0-0.256-0.08-0.448-0.543-0.976c-0.664-0.751-0.936-1.111-0.936-1.791v-0.016c0-0.896,0.583-1.463,1.359-1.463
		c0.392,0,0.624,0.056,0.863,0.176v1.016c-0.304-0.176-0.488-0.256-0.744-0.256c-0.271,0-0.503,0.176-0.503,0.479v0.016
		c0,0.264,0.08,0.36,0.543,0.896c0.768,0.887,0.936,1.231,0.936,1.871v0.016c0,0.879-0.616,1.463-1.383,1.463
		C61.588,270.978,61.26,270.881,60.981,270.746z M63.716,265.341h0.976v5.597h-0.976V265.341z M65.284,265.341h0.912l0.983,2.83
		v-2.83h0.951v5.597h-0.863l-1.031-2.966v2.966h-0.952V265.341z M68.612,268.283v-0.288c0-1.847,0.6-2.734,1.487-2.734
		s1.487,0.887,1.487,2.734v0.288c0,1.847-0.6,2.734-1.487,2.734S68.612,270.13,68.612,268.283z M70.595,268.283v-0.288
		c0-1.439-0.2-1.839-0.496-1.839s-0.495,0.399-0.495,1.839v0.288c0,1.439,0.199,1.839,0.495,1.839S70.595,269.722,70.595,268.283z"
		/>
	<path class="st4" d="M18.393,349.627h0.976v4.67h1.031v0.927h-2.007V349.627z M20.793,349.627h2.143v0.928h-1.167v1.391h1.031
		v0.928h-1.031v1.423h1.191v0.927h-2.167V349.627z M24.705,349.627h0.847c0.944,0,1.823,0.384,1.823,1.423v0.04
		c0,0.72-0.408,1.071-0.808,1.263c0.472,0.208,0.879,0.536,0.879,1.248v0.072c0,0.992-0.768,1.551-1.855,1.551h-0.887V349.627z
		 M25.696,351.978c0.432,0,0.72-0.248,0.72-0.736v-0.016c0-0.488-0.288-0.696-0.72-0.696H25.68v1.447H25.696z M25.704,354.321
		c0.448,0,0.768-0.264,0.768-0.728v-0.04c0-0.464-0.32-0.728-0.768-0.728H25.68v1.496H25.704z M27.873,349.627h0.975v5.597h-0.975
		V349.627z M29.32,355.032v-1.016c0.344,0.2,0.616,0.312,0.879,0.312c0.28,0,0.52-0.136,0.52-0.48v-0.016
		c0-0.256-0.08-0.448-0.544-0.976c-0.664-0.751-0.936-1.111-0.936-1.791v-0.016c0-0.896,0.584-1.463,1.359-1.463
		c0.392,0,0.624,0.056,0.864,0.176v1.015c-0.304-0.176-0.488-0.256-0.744-0.256c-0.272,0-0.504,0.176-0.504,0.48v0.016
		c0,0.264,0.08,0.36,0.544,0.896c0.768,0.887,0.935,1.231,0.935,1.871v0.016c0,0.88-0.615,1.463-1.383,1.463
		C29.928,355.264,29.6,355.168,29.32,355.032z M32.44,350.555h-0.687v-0.928h2.351v0.928h-0.688v4.669H32.44V350.555z
		 M34.512,349.627h1.007c1,0,1.727,0.528,1.727,1.783v0.072c0,0.728-0.288,1.191-0.655,1.471l0.751,2.271h-1.04l-0.632-1.951h-0.184
		v1.951h-0.976V349.627z M35.536,352.394c0.424,0,0.735-0.248,0.735-0.903v-0.064c0-0.704-0.335-0.888-0.759-0.888h-0.024v1.855
		H35.536z M37.6,352.569v-0.288c0-1.847,0.6-2.734,1.487-2.734s1.487,0.887,1.487,2.734v0.288c0,1.847-0.6,2.735-1.487,2.735
		S37.6,354.417,37.6,352.569z M39.583,352.569v-0.288c0-1.439-0.2-1.839-0.496-1.839s-0.496,0.4-0.496,1.839v0.288
		c0,1.439,0.2,1.839,0.496,1.839S39.583,354.009,39.583,352.569z M20.192,357.627h2.039v0.928h-1.063v1.407h0.927v0.928h-0.927
		v2.334h-0.976V357.627z M22.672,357.627h1.008c0.999,0,1.727,0.528,1.727,1.783v0.072c0,0.728-0.288,1.191-0.655,1.471l0.751,2.271
		h-1.04l-0.631-1.951h-0.184v1.951h-0.976V357.627z M23.696,360.394c0.424,0,0.736-0.248,0.736-0.903v-0.064
		c0-0.704-0.336-0.888-0.76-0.888h-0.024v1.855H23.696z M25.856,357.627H28v0.928h-1.167v1.391h1.031v0.928h-1.031v1.423h1.191
		v0.927h-2.167V357.627z M28.497,357.627h0.911l0.983,2.831v-2.831h0.952v5.597h-0.864l-1.031-2.966v2.966h-0.951V357.627z
		 M31.824,360.521v-0.192c0-1.967,0.728-2.742,1.639-2.742c0.272,0,0.432,0.032,0.64,0.128v1.007c-0.2-0.12-0.36-0.184-0.543-0.184
		c-0.432,0-0.744,0.384-0.744,1.783v0.208c0,1.479,0.312,1.783,0.759,1.783c0.152,0,0.344-0.056,0.544-0.176v0.959
		c-0.224,0.128-0.44,0.168-0.72,0.168C32.504,363.264,31.824,362.473,31.824,360.521z M34.608,357.627h0.975v2.319h0.848v-2.319
		h0.976v5.597h-0.976v-2.351h-0.848v2.351h-0.975V357.627z M14.969,365.627h1.007c1,0,1.727,0.528,1.727,1.783v0.072
		c0,0.728-0.288,1.191-0.656,1.471l0.752,2.271h-1.04l-0.632-1.951h-0.184v1.951h-0.975V365.627z M15.992,368.394
		c0.424,0,0.735-0.248,0.735-0.903v-0.064c0-0.704-0.335-0.888-0.759-0.888h-0.024v1.855H15.992z M18.153,365.627h2.143v0.928
		h-1.167v1.391h1.032v0.928h-1.032v1.423h1.191v0.927h-2.167V365.627z M20.672,371.032v-1.016c0.344,0.2,0.616,0.312,0.88,0.312
		c0.28,0,0.52-0.136,0.52-0.48v-0.016c0-0.256-0.08-0.448-0.544-0.976c-0.664-0.751-0.935-1.111-0.935-1.791v-0.016
		c0-0.896,0.583-1.463,1.359-1.463c0.392,0,0.624,0.056,0.864,0.176v1.015c-0.304-0.176-0.488-0.256-0.744-0.256
		c-0.272,0-0.504,0.176-0.504,0.48v0.016c0,0.264,0.08,0.36,0.544,0.896c0.768,0.887,0.936,1.231,0.936,1.871v0.016
		c0,0.88-0.616,1.463-1.383,1.463C21.28,371.264,20.953,371.168,20.672,371.032z M23.792,366.555h-0.688v-0.928h2.351v0.928h-0.688
		v4.669h-0.976V366.555z M26.408,365.611h1.04l1.063,5.613h-0.976l-0.184-1.111h-0.888l-0.176,1.111h-0.943L26.408,365.611z
		 M27.208,369.233l-0.296-1.847l-0.304,1.847H27.208z M28.752,369.593v-3.966h0.967v4.062c0,0.504,0.176,0.704,0.424,0.704
		c0.248,0,0.424-0.2,0.424-0.704v-4.062h0.967v3.966c0,1.176-0.591,1.703-1.391,1.703C29.344,371.296,28.752,370.769,28.752,369.593
		z M32.096,365.627h1.008c0.999,0,1.727,0.528,1.727,1.783v0.072c0,0.728-0.288,1.191-0.655,1.471l0.751,2.271h-1.04l-0.631-1.951
		h-0.184v1.951h-0.976V365.627z M33.12,368.394c0.424,0,0.736-0.248,0.736-0.903v-0.064c0-0.704-0.336-0.888-0.76-0.888h-0.024
		v1.855H33.12z M36.064,365.611h1.039l1.063,5.613h-0.975l-0.184-1.111H36.12l-0.176,1.111h-0.943L36.064,365.611z M36.863,369.233
		l-0.296-1.847l-0.304,1.847H36.863z M38.464,365.627h0.911l0.984,2.831v-2.831h0.951v5.597h-0.863l-1.032-2.966v2.966h-0.951
		V365.627z M42.408,366.555H41.72v-0.928h2.351v0.928h-0.688v4.669h-0.976V366.555z"/>
	<path class="st4" d="M88.276,432.239h0.976v4.669h1.031v0.928h-2.007V432.239z M91.419,432.223h1.04l1.063,5.613h-0.976
		l-0.185-1.111h-0.887l-0.176,1.111h-0.944L91.419,432.223z M92.219,435.845l-0.296-1.847l-0.304,1.847H92.219z M94.997,435.134
		v-0.192c0-1.967,0.728-2.742,1.639-2.742c0.271,0,0.432,0.032,0.64,0.128v1.007c-0.2-0.119-0.359-0.184-0.544-0.184
		c-0.432,0-0.743,0.384-0.743,1.783v0.208c0,1.479,0.312,1.783,0.76,1.783c0.151,0,0.344-0.057,0.543-0.176v0.959
		c-0.224,0.128-0.439,0.168-0.719,0.168C95.676,437.876,94.997,437.084,94.997,435.134z M97.764,436.205v-3.966h0.968v4.062
		c0,0.504,0.176,0.704,0.424,0.704c0.247,0,0.424-0.2,0.424-0.704v-4.062h0.967v3.966c0,1.175-0.592,1.703-1.391,1.703
		C98.356,437.908,97.764,437.38,97.764,436.205z M101.012,435.134v-0.192c0-1.967,0.728-2.742,1.639-2.742
		c0.272,0,0.432,0.032,0.64,0.128v1.007c-0.199-0.119-0.359-0.184-0.543-0.184c-0.433,0-0.744,0.384-0.744,1.783v0.208
		c0,1.479,0.312,1.783,0.76,1.783c0.152,0,0.344-0.057,0.544-0.176v0.959c-0.225,0.128-0.44,0.168-0.72,0.168
		C101.692,437.876,101.012,437.084,101.012,435.134z M103.812,432.239h0.976v5.597h-0.976V432.239z M105.38,432.239h0.911
		l0.983,2.83v-2.83h0.951v5.597h-0.863l-1.031-2.967v2.967h-0.951V432.239z M109.587,432.223h1.039l1.063,5.613h-0.975l-0.185-1.111
		h-0.888l-0.176,1.111h-0.943L109.587,432.223z M110.387,435.845l-0.296-1.847l-0.304,1.847H110.387z M91.293,440.239h0.976v5.597
		h-0.976V440.239z M93.38,441.167h-0.688v-0.928h2.352v0.928h-0.688v4.669H93.38V441.167z M95.996,440.223h1.039l1.063,5.613h-0.975
		l-0.185-1.111h-0.888l-0.176,1.111h-0.943L95.996,440.223z M96.795,443.845l-0.296-1.847l-0.304,1.847H96.795z M98.396,440.239
		h0.976v4.669h1.031v0.928h-2.007V440.239z M100.812,440.239h0.976v5.597h-0.976V440.239z M103.164,440.223h1.039l1.063,5.613
		h-0.976l-0.184-1.111h-0.888l-0.176,1.111H102.1L103.164,440.223z M103.963,443.845l-0.296-1.847l-0.304,1.847H103.963z
		 M105.564,440.239h0.911l0.983,2.83v-2.83h0.952v5.597h-0.864l-1.031-2.967v2.967h-0.951V440.239z M85.377,448.239h1.008
		c0.999,0,1.727,0.527,1.727,1.783v0.071c0,0.728-0.288,1.191-0.655,1.472l0.751,2.271h-1.039l-0.632-1.951h-0.184v1.951h-0.976
		V448.239z M86.4,451.006c0.424,0,0.735-0.248,0.735-0.904v-0.063c0-0.704-0.336-0.888-0.76-0.888h-0.023v1.855H86.4z
		 M88.56,448.239h2.143v0.928h-1.167v1.391h1.031v0.928h-1.031v1.423h1.191v0.928H88.56V448.239z M91.081,453.644v-1.015
		c0.344,0.199,0.615,0.312,0.879,0.312c0.28,0,0.521-0.136,0.521-0.479v-0.017c0-0.256-0.08-0.447-0.544-0.975
		c-0.664-0.752-0.936-1.112-0.936-1.791v-0.017c0-0.896,0.583-1.463,1.359-1.463c0.392,0,0.623,0.056,0.863,0.176v1.016
		c-0.304-0.176-0.487-0.256-0.743-0.256c-0.272,0-0.504,0.176-0.504,0.479v0.016c0,0.265,0.08,0.36,0.543,0.896
		c0.768,0.888,0.936,1.231,0.936,1.871v0.017c0,0.879-0.615,1.463-1.383,1.463C91.688,453.876,91.36,453.78,91.081,453.644z
		 M94.2,449.167h-0.688v-0.928h2.351v0.928h-0.688v4.669H94.2V449.167z M96.816,448.223h1.039l1.063,5.613h-0.976l-0.184-1.111
		h-0.888l-0.176,1.111h-0.943L96.816,448.223z M97.615,451.845l-0.295-1.847l-0.305,1.847H97.615z M99.16,452.205v-3.966h0.968
		v4.062c0,0.504,0.176,0.704,0.424,0.704s0.424-0.2,0.424-0.704v-4.062h0.968v3.966c0,1.175-0.592,1.703-1.392,1.703
		S99.16,453.38,99.16,452.205z M102.504,448.239h1.007c1,0,1.728,0.527,1.728,1.783v0.071c0,0.728-0.288,1.191-0.656,1.472
		l0.752,2.271h-1.039l-0.632-1.951h-0.184v1.951h-0.976V448.239z M103.528,451.006c0.424,0,0.735-0.248,0.735-0.904v-0.063
		c0-0.704-0.336-0.888-0.76-0.888h-0.023v1.855H103.528z M106.471,448.223h1.04l1.063,5.613h-0.976l-0.184-1.111h-0.888
		l-0.176,1.111h-0.944L106.471,448.223z M107.271,451.845l-0.296-1.847l-0.304,1.847H107.271z M108.872,448.239h0.912l0.983,2.83
		v-2.83h0.951v5.597h-0.863l-1.031-2.967v2.967h-0.952V448.239z M112.816,449.167h-0.688v-0.928h2.351v0.928h-0.688v4.669h-0.976
		V449.167z"/>
	<path class="st4" d="M72.212,353.191V353c0-1.807,0.768-2.742,1.871-2.742c0.296,0,0.544,0.064,0.744,0.16v1.016
		c-0.24-0.144-0.456-0.24-0.712-0.24c-0.56,0-0.911,0.56-0.911,1.767v0.272c0,1.463,0.432,1.799,0.831,1.799
		c0.032,0,0.04,0,0.088-0.008v-1.431h-0.479v-0.872h1.367v2.975c-0.352,0.152-0.64,0.24-1.016,0.24
		C73.02,355.934,72.212,355.143,72.212,353.191z M76.333,350.281h1.039l1.063,5.613H77.46l-0.184-1.111h-0.888l-0.176,1.111h-0.943
		L76.333,350.281z M77.131,353.903l-0.296-1.847l-0.304,1.847H77.131z M79.012,351.225h-0.688v-0.928h2.351v0.928h-0.688v4.669
		h-0.976V351.225z M80.964,355.702v-1.016c0.344,0.2,0.616,0.312,0.88,0.312c0.279,0,0.52-0.136,0.52-0.48v-0.016
		c0-0.256-0.08-0.448-0.544-0.976c-0.663-0.751-0.936-1.111-0.936-1.791v-0.016c0-0.896,0.584-1.463,1.359-1.463
		c0.392,0,0.624,0.056,0.863,0.176v1.015c-0.304-0.176-0.487-0.256-0.743-0.256c-0.271,0-0.504,0.176-0.504,0.48v0.016
		c0,0.264,0.08,0.36,0.544,0.896c0.768,0.887,0.936,1.231,0.936,1.871v0.016c0,0.88-0.615,1.463-1.383,1.463
		C81.572,355.934,81.245,355.838,80.964,355.702z M83.684,350.297h0.848c0.943,0,1.823,0.384,1.823,1.423v0.04
		c0,0.72-0.408,1.071-0.808,1.263c0.472,0.208,0.88,0.536,0.88,1.248v0.072c0,0.992-0.768,1.551-1.855,1.551h-0.888V350.297z
		 M84.676,352.648c0.432,0,0.72-0.248,0.72-0.736v-0.016c0-0.488-0.288-0.696-0.72-0.696H84.66v1.447H84.676z M84.684,354.991
		c0.447,0,0.768-0.264,0.768-0.728v-0.04c0-0.464-0.32-0.728-0.768-0.728H84.66v1.496H84.684z M87.468,353.688l-1.04-3.391h1.008
		l0.527,2.095l0.536-2.095h0.983l-1.039,3.391v2.207h-0.976V353.688z M89.684,352.312c0.592-0.128,0.712-0.552,0.672-0.903h-0.495
		v-1.112h1.103v0.912c0,0.848-0.407,1.391-1.199,1.495L89.684,352.312z M91.453,355.702v-1.016c0.344,0.2,0.615,0.312,0.879,0.312
		c0.28,0,0.521-0.136,0.521-0.48v-0.016c0-0.256-0.08-0.448-0.544-0.976c-0.664-0.751-0.936-1.111-0.936-1.791v-0.016
		c0-0.896,0.584-1.463,1.359-1.463c0.392,0,0.623,0.056,0.863,0.176v1.015c-0.304-0.176-0.487-0.256-0.743-0.256
		c-0.272,0-0.504,0.176-0.504,0.48v0.016c0,0.264,0.08,0.36,0.544,0.896c0.768,0.887,0.935,1.231,0.935,1.871v0.016
		c0,0.88-0.615,1.463-1.383,1.463C92.06,355.934,91.732,355.838,91.453,355.702z M68.972,361.191V361
		c0-1.967,0.729-2.742,1.64-2.742c0.271,0,0.432,0.032,0.64,0.128v1.007c-0.2-0.12-0.359-0.184-0.544-0.184
		c-0.432,0-0.743,0.384-0.743,1.783v0.208c0,1.479,0.312,1.783,0.76,1.783c0.151,0,0.344-0.056,0.543-0.176v0.959
		c-0.224,0.128-0.439,0.168-0.72,0.168C69.652,363.934,68.972,363.143,68.972,361.191z M71.756,358.297h0.976v2.319h0.848v-2.319
		h0.976v5.597H73.58v-2.351h-0.848v2.351h-0.976V358.297z M75.917,358.281h1.039l1.063,5.613h-0.976l-0.184-1.111h-0.888
		l-0.176,1.111h-0.943L75.917,358.281z M76.715,361.903l-0.296-1.847l-0.304,1.847H76.715z M78.317,358.297h0.967l0.688,2.047
		l0.688-2.047h0.967v5.597h-0.936v-3.382l-0.711,2.119h-0.017l-0.711-2.119v3.382h-0.936V358.297z M82.205,358.297h0.871
		c1.063,0,1.808,0.576,1.808,1.887v0.016c0,1.263-0.704,1.863-1.695,1.935H83.18v1.759h-0.976V358.297z M83.188,361.231
		c0.407-0.024,0.72-0.32,0.72-1v-0.016c0-0.711-0.272-1.015-0.695-1.015H83.18v2.031H83.188z M85.789,358.281h1.039l1.063,5.613
		h-0.976l-0.184-1.111h-0.888l-0.176,1.111h-0.943L85.789,358.281z M86.587,361.903l-0.296-1.847l-0.304,1.847H86.587z
		 M88.012,361.191V361c0-1.807,0.768-2.742,1.871-2.742c0.296,0,0.544,0.064,0.744,0.16v1.016c-0.24-0.144-0.456-0.24-0.712-0.24
		c-0.56,0-0.911,0.56-0.911,1.767v0.272c0,1.463,0.432,1.799,0.831,1.799c0.032,0,0.04,0,0.088-0.008v-1.431h-0.479v-0.872h1.367
		v2.975c-0.352,0.152-0.64,0.24-1.016,0.24C88.82,363.934,88.012,363.143,88.012,361.191z M91.348,358.297h0.912l0.983,2.831v-2.831
		h0.951v5.597h-0.863l-1.031-2.966v2.966h-0.952V358.297z M94.773,358.297h2.143v0.928h-1.168v1.391h1.032v0.928h-1.032v1.423h1.191
		v0.927h-2.166V358.297z M78.501,366.297h0.848c0.943,0,1.823,0.384,1.823,1.423v0.04c0,0.72-0.408,1.071-0.808,1.263
		c0.472,0.208,0.879,0.536,0.879,1.248v0.072c0,0.992-0.768,1.551-1.854,1.551h-0.888V366.297z M79.492,368.648
		c0.432,0,0.72-0.248,0.72-0.736v-0.016c0-0.488-0.288-0.696-0.72-0.696h-0.016v1.447H79.492z M79.5,370.991
		c0.448,0,0.768-0.264,0.768-0.728v-0.04c0-0.464-0.319-0.728-0.768-0.728h-0.023v1.496H79.5z M82.396,366.281h1.039l1.063,5.613
		h-0.975l-0.185-1.111h-0.888l-0.176,1.111h-0.943L82.396,366.281z M83.196,369.903l-0.296-1.847l-0.304,1.847H83.196z
		 M84.796,366.297h1.008c0.999,0,1.727,0.528,1.727,1.783v0.072c0,0.728-0.287,1.191-0.655,1.471l0.751,2.271h-1.039l-0.632-1.951
		h-0.184v1.951h-0.976V366.297z M85.82,369.063c0.424,0,0.735-0.248,0.735-0.903v-0.064c0-0.704-0.335-0.888-0.759-0.888h-0.024
		v1.855H85.82z"/>
	<path class="st4" d="M109.722,369.189v-0.192c0-1.967,0.728-2.742,1.639-2.742c0.272,0,0.433,0.032,0.64,0.128v1.007
		c-0.199-0.12-0.359-0.184-0.543-0.184c-0.432,0-0.744,0.384-0.744,1.783v0.208c0,1.479,0.312,1.783,0.76,1.783
		c0.152,0,0.344-0.056,0.544-0.176v0.959c-0.224,0.128-0.439,0.168-0.72,0.168C110.402,371.932,109.722,371.141,109.722,369.189z
		 M112.522,366.295h0.976v5.597h-0.976V366.295z M113.994,369.189v-0.192c0-1.807,0.768-2.742,1.871-2.742
		c0.296,0,0.544,0.064,0.744,0.16v1.016c-0.24-0.144-0.456-0.24-0.712-0.24c-0.56,0-0.911,0.56-0.911,1.767v0.272
		c0,1.463,0.432,1.799,0.831,1.799c0.032,0,0.04,0,0.088-0.008v-1.431h-0.479v-0.872h1.367v2.975c-0.352,0.152-0.64,0.24-1.016,0.24
		C114.801,371.932,113.994,371.141,113.994,369.189z M118.114,366.279h1.039l1.063,5.613h-0.976l-0.184-1.111h-0.888l-0.176,1.111
		h-0.943L118.114,366.279z M118.914,369.901l-0.296-1.847l-0.304,1.847H118.914z M120.514,366.295h1.007
		c1,0,1.728,0.528,1.728,1.783v0.072c0,0.728-0.288,1.191-0.655,1.471l0.751,2.271h-1.039l-0.632-1.951h-0.184v1.951h-0.976V366.295
		z M121.538,369.062c0.424,0,0.735-0.248,0.735-0.903v-0.064c0-0.704-0.336-0.888-0.76-0.888h-0.023v1.855H121.538z
		 M112.018,374.295h0.848c0.943,0,1.823,0.384,1.823,1.423v0.04c0,0.72-0.408,1.071-0.808,1.263
		c0.472,0.208,0.879,0.536,0.879,1.248v0.072c0,0.992-0.768,1.551-1.854,1.551h-0.888V374.295z M113.009,376.646
		c0.432,0,0.72-0.248,0.72-0.736v-0.016c0-0.488-0.288-0.696-0.72-0.696h-0.016v1.447H113.009z M113.017,378.989
		c0.448,0,0.768-0.264,0.768-0.728v-0.04c0-0.464-0.319-0.728-0.768-0.728h-0.023v1.496H113.017z M115.914,374.279h1.039
		l1.063,5.613h-0.975l-0.185-1.111h-0.888l-0.176,1.111h-0.943L115.914,374.279z M116.713,377.901l-0.296-1.847l-0.304,1.847
		H116.713z M118.314,374.295h1.008c0.999,0,1.727,0.528,1.727,1.783v0.072c0,0.728-0.287,1.191-0.655,1.471l0.751,2.271h-1.039
		l-0.632-1.951h-0.184v1.951h-0.976V374.295z M119.337,377.062c0.424,0,0.735-0.248,0.735-0.903v-0.064
		c0-0.704-0.335-0.888-0.759-0.888h-0.024v1.855H119.337z"/>
	<path class="st4" d="M36.172,536.09h1.04l1.063,5.613h-0.976l-0.184-1.111h-0.887l-0.176,1.111h-0.944L36.172,536.09z
		 M36.972,539.712l-0.296-1.847l-0.304,1.847H36.972z M40.699,541.432c-0.232,0.239-0.504,0.352-0.792,0.352
		c-0.919,0-1.511-0.888-1.511-2.734v-0.288c0-1.847,0.6-2.734,1.487-2.734c0.887,0,1.487,0.888,1.487,2.734v0.288
		c0,0.76-0.112,1.359-0.304,1.799l0.504,0.464l-0.488,0.52L40.699,541.432z M40.131,540.84l-0.479-0.472l0.456-0.504l0.232,0.248
		c0.024-0.264,0.04-0.608,0.04-1.063v-0.288c0-1.439-0.2-1.839-0.496-1.839c-0.296,0-0.496,0.399-0.496,1.839v0.288
		c0,1.567,0.208,1.854,0.568,1.854C40.02,540.903,40.076,540.888,40.131,540.84z M41.892,540.072v-3.966h0.968v4.062
		c0,0.504,0.176,0.704,0.424,0.704c0.248,0,0.424-0.2,0.424-0.704v-4.062h0.967v3.966c0,1.175-0.592,1.703-1.391,1.703
		C42.484,541.775,41.892,541.247,41.892,540.072z M45.98,536.09h1.039l1.063,5.613h-0.976l-0.184-1.111h-0.888l-0.176,1.111h-0.943
		L45.98,536.09z M46.779,539.712l-0.296-1.847l-0.304,1.847H46.779z M49.652,536.106h0.967l0.688,2.047l0.688-2.047h0.968v5.597
		h-0.936v-3.382l-0.711,2.118h-0.016l-0.712-2.118v3.382h-0.935V536.106z M54.324,536.09h1.04l1.063,5.613h-0.975l-0.184-1.111
		h-0.888l-0.176,1.111H53.26L54.324,536.09z M55.123,539.712l-0.295-1.847l-0.304,1.847H55.123z M56.74,536.106h0.975v5.597H56.74
		V536.106z M58.308,536.106h0.912l0.983,2.83v-2.83h0.951v5.597h-0.863l-1.032-2.967v2.967h-0.951V536.106z M63.004,536.106h0.912
		c1.247,0,1.959,0.903,1.959,2.702v0.192c0,1.799-0.712,2.702-1.959,2.702h-0.912V536.106z M64.02,540.808
		c0.463,0,0.863-0.408,0.863-1.807v-0.192c0-1.399-0.4-1.807-0.863-1.807h-0.04v3.806H64.02z M66.372,536.106h0.975v5.597h-0.975
		V536.106z M67.94,536.106h0.911l0.983,2.83v-2.83h0.952v5.597h-0.864l-1.031-2.967v2.967H67.94V536.106z M71.379,536.106h0.976
		v5.597h-0.976V536.106z M72.948,536.106h0.911l0.984,2.83v-2.83h0.951v5.597h-0.863l-1.032-2.967v2.967h-0.951V536.106z
		 M76.276,539.001v-0.192c0-1.807,0.768-2.742,1.871-2.742c0.296,0,0.544,0.063,0.743,0.16v1.015
		c-0.239-0.144-0.455-0.239-0.711-0.239c-0.561,0-0.912,0.56-0.912,1.767v0.272c0,1.463,0.432,1.799,0.832,1.799
		c0.031,0,0.04,0,0.088-0.008V539.4h-0.48v-0.871h1.368v2.974c-0.353,0.152-0.64,0.24-1.016,0.24
		C77.084,541.743,76.276,540.951,76.276,539.001z M80.883,536.106h1.008c0.999,0,1.728,0.527,1.728,1.783v0.071
		c0,0.728-0.288,1.191-0.656,1.472l0.752,2.271h-1.04l-0.631-1.951h-0.185v1.951h-0.976V536.106z M81.907,538.873
		c0.424,0,0.736-0.248,0.736-0.904v-0.063c0-0.704-0.336-0.888-0.76-0.888h-0.024v1.855H81.907z M83.972,539.049v-0.288
		c0-1.847,0.6-2.734,1.486-2.734c0.888,0,1.487,0.888,1.487,2.734v0.288c0,1.847-0.6,2.734-1.487,2.734
		C84.572,541.783,83.972,540.896,83.972,539.049z M85.955,539.049v-0.288c0-1.439-0.2-1.839-0.496-1.839
		c-0.295,0-0.495,0.399-0.495,1.839v0.288c0,1.438,0.2,1.839,0.495,1.839C85.754,540.888,85.955,540.487,85.955,539.049z
		 M87.332,539.049v-0.288c0-1.847,0.6-2.734,1.487-2.734s1.487,0.888,1.487,2.734v0.288c0,1.847-0.6,2.734-1.487,2.734
		S87.332,540.896,87.332,539.049z M89.315,539.049v-0.288c0-1.439-0.2-1.839-0.496-1.839s-0.496,0.399-0.496,1.839v0.288
		c0,1.438,0.2,1.839,0.496,1.839S89.315,540.487,89.315,539.049z M90.788,536.106h0.968l0.688,2.047l0.688-2.047h0.968v5.597h-0.936
		v-3.382l-0.712,2.118h-0.016l-0.712-2.118v3.382h-0.936V536.106z"/>
	<path class="st4" d="M87.409,470.009h1.008c0.999,0.001,1.727,0.529,1.726,1.785v0.071c-0.001,0.728-0.289,1.191-0.657,1.471
		l0.75,2.271l-1.039-0.001l-0.631-1.951h-0.184l-0.002,1.951l-0.975-0.001L87.409,470.009z M88.43,472.775
		c0.424,0.001,0.735-0.247,0.736-0.902v-0.064c0-0.703-0.335-0.888-0.759-0.888h-0.024l-0.001,1.854H88.43z M90.592,470.011
		l1.008,0.001c1,0.001,1.727,0.529,1.726,1.784v0.072c0,0.728-0.289,1.191-0.656,1.471l0.749,2.271l-1.039-0.001l-0.63-1.951
		l-0.185-0.001l-0.001,1.951l-0.976-0.001L90.592,470.011z M91.614,472.778c0.424,0,0.736-0.247,0.736-0.903v-0.063
		c0.001-0.704-0.335-0.888-0.759-0.889h-0.023l-0.002,1.855H91.614z"/>
	<path class="st4" d="M87.41,478.104h1.007c1,0.001,1.727,0.529,1.726,1.785v0.071c0,0.728-0.288,1.191-0.656,1.471l0.75,2.271
		l-1.04-0.001l-0.63-1.951h-0.184l-0.002,1.951l-0.976-0.001L87.41,478.104z M88.43,480.87c0.424,0.001,0.736-0.247,0.736-0.902
		l0.001-0.064c0-0.703-0.336-0.888-0.76-0.888h-0.023l-0.002,1.854H88.43z M90.593,478.105l1.008,0.001
		c0.999,0.001,1.727,0.529,1.726,1.784v0.072c-0.001,0.728-0.289,1.191-0.657,1.471l0.75,2.271l-1.039-0.001l-0.631-1.951
		l-0.184-0.001l-0.002,1.951l-0.975-0.001L90.593,478.105z M91.615,480.873c0.424,0,0.735-0.247,0.736-0.903v-0.063
		c0-0.704-0.335-0.888-0.759-0.889h-0.024l-0.001,1.855H91.615z"/>
	<path class="st4" d="M6.904,205.615l1.007,0.001c1,0,1.727,0.529,1.726,1.784v0.072c0,0.728-0.289,1.191-0.657,1.47l0.75,2.271
		l-1.04,0l-0.63-1.952H7.876l-0.001,1.951l-0.976,0L6.904,205.615z M7.925,208.382c0.424,0,0.736-0.248,0.736-0.903v-0.064
		c0-0.704-0.335-0.888-0.759-0.888H7.878l-0.001,1.855L7.925,208.382z M10.087,205.617l1.008,0.001
		c0.999,0.001,1.727,0.529,1.726,1.784v0.072c-0.001,0.728-0.289,1.191-0.657,1.471l0.75,2.271l-1.04,0l-0.63-1.952H11.06
		l-0.001,1.951l-0.976,0L10.087,205.617z M11.109,208.385c0.424,0,0.736-0.248,0.736-0.903v-0.064c0-0.704-0.335-0.888-0.759-0.888
		h-0.024l-0.001,1.855H11.109z"/>
	<path class="st4" d="M6.903,218.112l1.007,0.001c1,0,1.727,0.529,1.726,1.784l0,0.072c0,0.728-0.289,1.191-0.657,1.47l0.75,2.271
		l-1.04,0l-0.63-1.952H7.876l-0.001,1.951l-0.976,0L6.903,218.112z M7.925,220.88c0.424,0,0.736-0.248,0.736-0.903v-0.064
		c0-0.704-0.335-0.888-0.759-0.888H7.878l-0.002,1.855L7.925,220.88z M10.087,218.115l1.007,0.001c1,0.001,1.727,0.529,1.726,1.784
		v0.072c0,0.728-0.289,1.191-0.657,1.471l0.75,2.271l-1.04,0l-0.63-1.952H11.06l-0.001,1.951l-0.976,0L10.087,218.115z
		 M11.108,220.882c0.424,0,0.736-0.248,0.736-0.903l0-0.064c0-0.704-0.335-0.888-0.759-0.888h-0.024l-0.001,1.855H11.108z"/>
	<path class="st4" d="M45.648,778.963h0.992l0.528,3.646l0.527-3.646h0.959l-1,5.612h-1.007L45.648,778.963z M48.952,778.963h2.143
		v0.927h-1.167v1.392h1.032v0.928h-1.032v1.423h1.191v0.928h-2.167V778.963z M51.592,778.963h0.912l0.983,2.83v-2.83h0.951v5.597
		h-0.863l-1.031-2.967v2.967h-0.952V778.963z M55.016,778.963h2.143v0.927h-1.167v1.392h1.031v0.928h-1.031v1.423h1.191v0.928
		h-2.167V778.963z M58.175,779.89h-0.688v-0.927h2.351v0.927h-0.688v4.67h-0.976V779.89z M60.264,778.963h0.975v5.597h-0.975
		V778.963z M62.615,778.946h1.04l1.063,5.613h-0.975l-0.184-1.111h-0.888l-0.176,1.111h-0.943L62.615,778.946z M63.415,782.568
		l-0.296-1.847l-0.304,1.847H63.415z M65.016,778.963h0.912l0.983,2.83v-2.83h0.951v5.597h-0.863l-1.032-2.967v2.967h-0.951V778.963
		z M69.711,778.963h0.968l0.688,2.047l0.688-2.047h0.968v5.597h-0.936v-3.382l-0.712,2.118h-0.016l-0.712-2.118v3.382h-0.936
		V778.963z M74.383,778.946h1.039l1.063,5.613H75.51l-0.184-1.111h-0.888l-0.176,1.111H73.32L74.383,778.946z M75.182,782.568
		l-0.296-1.847l-0.304,1.847H75.182z M76.799,778.963h0.976v5.597h-0.976V778.963z M78.368,778.963h0.911l0.983,2.83v-2.83h0.951
		v5.597H80.35l-1.031-2.967v2.967h-0.951V778.963z M48.024,786.963h0.911c1.248,0,1.959,0.903,1.959,2.702v0.192
		c0,1.799-0.711,2.702-1.959,2.702h-0.911V786.963z M49.039,791.664c0.464,0,0.864-0.408,0.864-1.807v-0.192
		c0-1.399-0.4-1.807-0.864-1.807H49v3.806H49.039z M51.392,786.963h0.976v5.597h-0.976V786.963z M52.96,786.963h0.912l0.983,2.83
		v-2.83h0.952v5.597h-0.863l-1.032-2.967v2.967H52.96V786.963z M56.4,786.963h0.975v5.597H56.4V786.963z M57.968,786.963h0.912
		l0.983,2.83v-2.83h0.951v5.597h-0.863l-1.032-2.967v2.967h-0.951V786.963z M61.295,789.857v-0.192c0-1.807,0.768-2.742,1.871-2.742
		c0.296,0,0.544,0.063,0.744,0.16v1.015c-0.24-0.144-0.456-0.239-0.711-0.239c-0.56,0-0.912,0.56-0.912,1.767v0.272
		c0,1.463,0.432,1.799,0.832,1.799c0.032,0,0.04,0,0.088-0.008v-1.432h-0.479v-0.871h1.367v2.974c-0.352,0.152-0.64,0.24-1.016,0.24
		C62.103,792.6,61.295,791.808,61.295,789.857z M65.904,786.963h1.007c1,0,1.727,0.527,1.727,1.783v0.071
		c0,0.728-0.288,1.191-0.656,1.472l0.751,2.271h-1.039l-0.632-1.951h-0.184v1.951h-0.975V786.963z M66.927,789.729
		c0.423,0,0.735-0.248,0.735-0.904v-0.063c0-0.704-0.336-0.888-0.76-0.888h-0.024v1.855H66.927z M68.992,789.905v-0.288
		c0-1.847,0.6-2.734,1.487-2.734s1.487,0.888,1.487,2.734v0.288c0,1.847-0.6,2.734-1.487,2.734S68.992,791.752,68.992,789.905z
		 M70.974,789.905v-0.288c0-1.439-0.199-1.839-0.495-1.839s-0.496,0.399-0.496,1.839v0.288c0,1.439,0.2,1.839,0.496,1.839
		S70.974,791.345,70.974,789.905z M72.351,789.905v-0.288c0-1.847,0.601-2.734,1.487-2.734c0.888,0,1.487,0.888,1.487,2.734v0.288
		c0,1.847-0.6,2.734-1.487,2.734C72.952,792.64,72.351,791.752,72.351,789.905z M74.335,789.905v-0.288
		c0-1.439-0.2-1.839-0.496-1.839s-0.495,0.399-0.495,1.839v0.288c0,1.439,0.199,1.839,0.495,1.839S74.335,791.345,74.335,789.905z
		 M75.807,786.963h0.968l0.688,2.047l0.688-2.047h0.968v5.597h-0.936v-3.382l-0.712,2.118h-0.016l-0.712-2.118v3.382h-0.936V786.963
		z"/>
	<path class="st4" d="M17.241,779.031h1.007c1,0.001,1.727,0.529,1.726,1.785v0.071c0,0.728-0.289,1.191-0.657,1.471l0.75,2.271
		l-1.039-0.001l-0.63-1.951h-0.184l-0.002,1.951l-0.975-0.001L17.241,779.031z M18.262,781.798c0.424,0.001,0.736-0.247,0.736-0.902
		v-0.064c0.001-0.703-0.335-0.888-0.759-0.888h-0.024l-0.001,1.854H18.262z M20.425,779.033l1.007,0.001
		c1,0.001,1.727,0.529,1.726,1.784v0.072c0,0.728-0.289,1.191-0.657,1.471l0.75,2.271l-1.04-0.001l-0.63-1.951l-0.184-0.001
		l-0.001,1.951l-0.976-0.001L20.425,779.033z M21.446,781.801c0.424,0,0.736-0.247,0.736-0.903v-0.063
		c0-0.704-0.335-0.888-0.759-0.889h-0.024l-0.001,1.855H21.446z"/>
	<path class="st4" d="M105.477,779.031h1.008c0.999,0.001,1.727,0.529,1.726,1.785v0.071c-0.001,0.728-0.289,1.191-0.657,1.471
		l0.75,2.271l-1.039-0.001l-0.631-1.951h-0.184l-0.002,1.951l-0.975-0.001L105.477,779.031z M106.499,781.798
		c0.424,0.001,0.735-0.247,0.736-0.902v-0.064c0-0.703-0.335-0.888-0.759-0.888h-0.024l-0.001,1.854H106.499z M108.661,779.033
		l1.008,0.001c1,0.001,1.727,0.529,1.726,1.784v0.072c0,0.728-0.289,1.191-0.656,1.471l0.749,2.271l-1.039-0.001l-0.63-1.951
		l-0.185-0.001l-0.001,1.951l-0.976-0.001L108.661,779.033z M109.682,781.801c0.424,0,0.736-0.247,0.736-0.903v-0.063
		c0.001-0.704-0.335-0.888-0.759-0.889h-0.023l-0.002,1.855H109.682z"/>
	<path class="st4" d="M57.181,67.635v-1.016c0.344,0.2,0.615,0.312,0.879,0.312c0.28,0,0.52-0.136,0.52-0.48v-0.016
		c0-0.256-0.08-0.448-0.543-0.976c-0.664-0.751-0.936-1.111-0.936-1.791v-0.016c0-0.896,0.583-1.463,1.359-1.463
		c0.392,0,0.624,0.056,0.863,0.176v1.015c-0.304-0.176-0.488-0.256-0.744-0.256c-0.272,0-0.503,0.176-0.503,0.48v0.016
		c0,0.264,0.08,0.36,0.543,0.896c0.768,0.887,0.936,1.231,0.936,1.871v0.016c0,0.88-0.616,1.463-1.383,1.463
		C57.789,67.867,57.461,67.771,57.181,67.635z M60.3,63.157h-0.688v-0.928h2.351v0.928h-0.688v4.669H60.3V63.157z M62.917,62.214
		h1.039l1.063,5.613h-0.976l-0.184-1.111h-0.888l-0.176,1.111h-0.943L62.917,62.214z M63.716,65.836l-0.296-1.847l-0.304,1.847
		H63.716z M65.141,65.124v-0.192c0-1.807,0.768-2.742,1.871-2.742c0.296,0,0.544,0.064,0.744,0.16v1.016
		c-0.24-0.144-0.456-0.24-0.711-0.24c-0.56,0-0.912,0.56-0.912,1.767v0.272c0,1.463,0.432,1.799,0.832,1.799
		c0.032,0,0.04,0,0.088-0.008v-1.431h-0.48v-0.872h1.368v2.975c-0.352,0.152-0.64,0.24-1.016,0.24
		C65.948,67.867,65.141,67.075,65.141,65.124z M68.477,62.229h2.143v0.928h-1.167v1.391h1.031v0.928h-1.031v1.423h1.191v0.927
		h-2.167V62.229z"/>
	<path class="st4" d="M52.742,140.736v-1.016c0.344,0.2,0.616,0.312,0.88,0.312c0.28,0,0.52-0.136,0.52-0.479v-0.016
		c0-0.256-0.08-0.448-0.543-0.976c-0.664-0.751-0.936-1.111-0.936-1.791v-0.016c0-0.896,0.583-1.463,1.359-1.463
		c0.392,0,0.624,0.056,0.864,0.176v1.016c-0.304-0.176-0.488-0.256-0.744-0.256c-0.272,0-0.504,0.176-0.504,0.479v0.016
		c0,0.264,0.08,0.36,0.544,0.896c0.768,0.887,0.936,1.231,0.936,1.871v0.016c0,0.879-0.616,1.463-1.383,1.463
		C53.35,140.968,53.022,140.872,52.742,140.736z M55.862,136.258h-0.688v-0.927h2.351v0.927h-0.688v4.669h-0.975V136.258z
		 M58.478,135.315h1.039l1.063,5.613h-0.975l-0.184-1.111h-0.888l-0.176,1.111h-0.943L58.478,135.315z M59.277,138.937l-0.296-1.847
		l-0.304,1.847H59.277z M60.878,135.331h1.007c1,0,1.727,0.527,1.727,1.783v0.072c0,0.728-0.288,1.191-0.656,1.472l0.751,2.271
		h-1.039l-0.632-1.951h-0.184v1.951h-0.975V135.331z M61.901,138.097c0.423,0,0.735-0.248,0.735-0.903v-0.064
		c0-0.704-0.336-0.888-0.759-0.888h-0.024v1.855H61.901z M64.062,135.331h0.912c1.248,0,1.959,0.903,1.959,2.702v0.192
		c0,1.799-0.711,2.703-1.959,2.703h-0.912V135.331z M65.077,140.032c0.464,0,0.864-0.408,0.864-1.807v-0.192
		c0-1.399-0.4-1.807-0.864-1.807h-0.04v3.806H65.077z M67.398,139.297v-3.966h0.967v4.062c0,0.504,0.176,0.704,0.424,0.704
		s0.424-0.2,0.424-0.704v-4.062h0.968v3.966c0,1.175-0.592,1.703-1.392,1.703C67.989,140.999,67.398,140.472,67.398,139.297z
		 M70.622,140.736v-1.016c0.344,0.2,0.615,0.312,0.88,0.312c0.279,0,0.52-0.136,0.52-0.479v-0.016c0-0.256-0.08-0.448-0.544-0.976
		c-0.663-0.751-0.936-1.111-0.936-1.791v-0.016c0-0.896,0.584-1.463,1.359-1.463c0.392,0,0.624,0.056,0.863,0.176v1.016
		c-0.304-0.176-0.487-0.256-0.743-0.256c-0.272,0-0.504,0.176-0.504,0.479v0.016c0,0.264,0.08,0.36,0.544,0.896
		c0.768,0.887,0.936,1.231,0.936,1.871v0.016c0,0.879-0.616,1.463-1.384,1.463C71.229,140.968,70.902,140.872,70.622,140.736z
		 M73.742,136.258h-0.688v-0.927h2.351v0.927h-0.688v4.669h-0.975V136.258z M54.874,144.258h-0.688v-0.927h2.351v0.927h-0.688v4.669
		h-0.976V144.258z M56.946,143.331h0.976v2.318h0.848v-2.318h0.975v5.597h-0.975v-2.351h-0.848v2.351h-0.976V143.331z
		 M60.322,143.331h2.143v0.927h-1.167v1.391h1.031v0.928h-1.031V148h1.191v0.928h-2.167V143.331z M63.745,143.315h1.04l1.063,5.613
		h-0.976l-0.184-1.111h-0.888l-0.176,1.111h-0.944L63.745,143.315z M64.545,146.937l-0.296-1.847l-0.304,1.847H64.545z
		 M66.425,144.258h-0.688v-0.927h2.351v0.927h-0.688v4.669h-0.976V144.258z M68.498,143.331h2.143v0.927h-1.167v1.391h1.031v0.928
		h-1.031V148h1.191v0.928h-2.167V143.331z M71.137,143.331h1.008c0.999,0,1.727,0.527,1.727,1.783v0.072
		c0,0.728-0.287,1.191-0.655,1.472l0.752,2.271h-1.04l-0.632-1.951h-0.184v1.951h-0.976V143.331z M72.161,146.097
		c0.424,0,0.735-0.248,0.735-0.903v-0.064c0-0.704-0.335-0.888-0.759-0.888h-0.024v1.855H72.161z"/>
	<path class="st4" d="M55.152,90.635v-0.288c0-1.847,0.6-2.734,1.487-2.734c0.888,0,1.487,0.887,1.487,2.734v0.288
		c0,1.847-0.6,2.734-1.487,2.734C55.752,93.369,55.152,92.481,55.152,90.635z M57.135,90.635v-0.288c0-1.439-0.2-1.839-0.496-1.839
		s-0.496,0.399-0.496,1.839v0.288c0,1.439,0.2,1.839,0.496,1.839S57.135,92.074,57.135,90.635z M58.608,87.692h0.872
		c1.063,0,1.807,0.575,1.807,1.887v0.016c0,1.263-0.704,1.863-1.695,1.935h-0.008v1.759h-0.976V87.692z M59.591,90.626
		c0.408-0.024,0.72-0.32,0.72-1v-0.016c0-0.712-0.271-1.016-0.695-1.016h-0.032v2.031H59.591z M61.688,87.692h2.143v0.927h-1.167
		v1.391h1.031v0.928h-1.031v1.423h1.191v0.928h-2.167V87.692z M64.328,87.692h0.911l0.984,2.83v-2.83h0.951v5.597h-0.863
		l-1.032-2.966v2.966h-0.951V87.692z M69.544,88.62h-0.688v-0.927h2.351v0.927h-0.688v4.669h-0.976V88.62z M71.36,90.635v-0.288
		c0-1.847,0.6-2.734,1.487-2.734s1.487,0.887,1.487,2.734v0.288c0,1.847-0.6,2.734-1.487,2.734S71.36,92.481,71.36,90.635z
		 M73.343,90.635v-0.288c0-1.439-0.2-1.839-0.496-1.839s-0.496,0.399-0.496,1.839v0.288c0,1.439,0.2,1.839,0.496,1.839
		S73.343,92.074,73.343,90.635z M45.42,96.62h-0.688v-0.927h2.351v0.927h-0.688v4.669H45.42V96.62z M47.492,95.692h0.976v2.318
		h0.848v-2.318h0.975v5.597h-0.975v-2.351h-0.848v2.351h-0.976V95.692z M50.868,95.692h2.143v0.927h-1.167v1.391h1.031v0.928h-1.031
		v1.423h1.191v0.928h-2.167V95.692z M54.292,95.676h1.04l1.063,5.613h-0.976l-0.184-1.111h-0.888l-0.176,1.111h-0.943L54.292,95.676
		z M55.091,99.298l-0.296-1.847l-0.304,1.847H55.091z M56.972,96.62h-0.688v-0.927h2.351v0.927h-0.688v4.669h-0.976V96.62z
		 M59.044,95.692h2.143v0.927H60.02v1.391h1.031v0.928H60.02v1.423h1.191v0.928h-2.167V95.692z M61.684,95.692h1.007
		c1,0,1.727,0.527,1.727,1.783v0.072c0,0.728-0.288,1.191-0.656,1.472l0.751,2.271h-1.039l-0.632-1.951H62.66v1.951h-0.976V95.692z
		 M62.708,98.458c0.424,0,0.735-0.248,0.735-0.903v-0.064c0-0.704-0.336-0.888-0.759-0.888H62.66v1.855H62.708z M66.02,101.097
		v-1.016c0.344,0.2,0.616,0.312,0.879,0.312c0.28,0,0.52-0.136,0.52-0.479v-0.016c0-0.256-0.08-0.448-0.544-0.976
		c-0.664-0.751-0.936-1.111-0.936-1.791v-0.016c0-0.896,0.584-1.463,1.359-1.463c0.392,0,0.624,0.056,0.863,0.176v1.016
		c-0.304-0.176-0.487-0.256-0.743-0.256c-0.272,0-0.504,0.176-0.504,0.479v0.016c0,0.264,0.08,0.36,0.543,0.896
		c0.768,0.887,0.936,1.231,0.936,1.871v0.016c0,0.879-0.616,1.463-1.384,1.463C66.627,101.329,66.3,101.233,66.02,101.097z
		 M68.74,95.692h2.143v0.927h-1.167v1.391h1.031v0.928h-1.031v1.423h1.191v0.928H68.74V95.692z M72.164,95.676h1.039l1.063,5.613
		h-0.976l-0.184-1.111h-0.888l-0.176,1.111H71.1L72.164,95.676z M72.962,99.298l-0.295-1.847l-0.305,1.847H72.962z M74.843,96.62
		h-0.688v-0.927h2.351v0.927h-0.688v4.669h-0.976V96.62z M76.931,95.692h0.976v5.597h-0.976V95.692z M78.5,95.692h0.912l0.983,2.83
		v-2.83h0.951v5.597h-0.863l-1.032-2.966v2.966H78.5V95.692z M81.828,98.586v-0.192c0-1.807,0.768-2.742,1.871-2.742
		c0.296,0,0.544,0.064,0.743,0.16v1.016c-0.239-0.144-0.455-0.24-0.711-0.24c-0.56,0-0.912,0.56-0.912,1.767v0.272
		c0,1.463,0.432,1.799,0.832,1.799c0.032,0,0.04,0,0.088-0.008v-1.431h-0.479v-0.872h1.367v2.975c-0.353,0.152-0.64,0.24-1.016,0.24
		C82.635,101.329,81.828,100.538,81.828,98.586z M46.72,106.635v-0.288c0-1.847,0.6-2.734,1.487-2.734s1.487,0.887,1.487,2.734
		v0.288c0,1.847-0.6,2.734-1.487,2.734S46.72,108.481,46.72,106.635z M48.703,106.635v-0.288c0-1.439-0.2-1.839-0.496-1.839
		s-0.496,0.399-0.496,1.839v0.288c0,1.439,0.2,1.839,0.496,1.839S48.703,108.074,48.703,106.635z M50.176,103.692h0.912l0.983,2.83
		v-2.83h0.951v5.597h-0.863l-1.032-2.966v2.966h-0.951V103.692z M54.872,103.692h0.912c1.247,0,1.959,0.903,1.959,2.702v0.192
		c0,1.799-0.712,2.703-1.959,2.703h-0.912V103.692z M55.888,108.394c0.463,0,0.863-0.408,0.863-1.807v-0.192
		c0-1.399-0.4-1.807-0.863-1.807h-0.04v3.806H55.888z M58.224,103.692h2.143v0.927H59.2v1.391h1.031v0.928H59.2v1.423h1.191v0.928
		h-2.167V103.692z M60.688,106.586v-0.192c0-1.967,0.728-2.742,1.639-2.742c0.272,0,0.432,0.032,0.64,0.128v1.007
		c-0.2-0.12-0.36-0.184-0.543-0.184c-0.432,0-0.744,0.384-0.744,1.783v0.208c0,1.479,0.312,1.783,0.759,1.783
		c0.152,0,0.344-0.056,0.544-0.176v0.959c-0.224,0.128-0.44,0.168-0.72,0.168C61.368,109.329,60.688,108.538,60.688,106.586z
		 M63.472,103.692h0.975v2.342l0.792-2.342h1.104l-0.943,2.366l0.959,3.23h-1.087l-0.607-2.119l-0.216,0.616v1.503h-0.975V103.692z
		 M68.752,103.676h1.039l1.063,5.613h-0.976l-0.184-1.111h-0.888l-0.176,1.111h-0.943L68.752,103.676z M69.551,107.298l-0.296-1.847
		l-0.304,1.847H69.551z M71.152,103.692H72c0.943,0,1.823,0.384,1.823,1.423v0.04c0,0.72-0.408,1.071-0.808,1.263
		c0.472,0.208,0.879,0.536,0.879,1.248v0.072c0,0.992-0.768,1.551-1.854,1.551h-0.888V103.692z M72.143,106.043
		c0.432,0,0.72-0.248,0.72-0.736v-0.016c0-0.487-0.288-0.695-0.72-0.695h-0.016v1.447H72.143z M72.152,108.386
		c0.447,0,0.768-0.264,0.768-0.728v-0.04c0-0.464-0.32-0.728-0.768-0.728h-0.024v1.495H72.152z M74.208,106.635v-0.288
		c0-1.847,0.601-2.734,1.487-2.734c0.888,0,1.487,0.887,1.487,2.734v0.288c0,1.847-0.6,2.734-1.487,2.734
		C74.808,109.369,74.208,108.481,74.208,106.635z M76.191,106.635v-0.288c0-1.439-0.2-1.839-0.496-1.839s-0.495,0.399-0.495,1.839
		v0.288c0,1.439,0.199,1.839,0.495,1.839S76.191,108.074,76.191,106.635z M77.304,103.692h0.991l0.528,3.646l0.527-3.646h0.959
		l-0.999,5.613h-1.008L77.304,103.692z M80.608,103.692h2.143v0.927h-1.167v1.391h1.031v0.928h-1.031v1.423h1.191v0.928h-2.167
		V103.692z"/>
</g>
<g id="DAWN_DECK_06_ROOMS">
	<g id="gDeck06FamilyOceanviewPictureWindowO1">
		<g id="hDeck06FamilyOceanviewPictureWindowO1">
			<g id="g6508">
				<g id="h6508">
					<polygon id="b6508" class="st5" points="0.509,191.761 25.177,191.691 25.132,182.861 0.509,182.861 					"/>
					<path id="t6508" class="st4" d="M8.944,185.404l-1.083,1.494l0.011,0.011c0.119-0.061,0.253-0.099,0.398-0.099
						c0.668,0,1.174,0.632,1.174,1.296c0,0.758-0.603,1.362-1.341,1.362c-0.7,0-1.352-0.593-1.352-1.324
						c0-0.417,0.205-0.769,0.441-1.093l1.384-1.9L8.944,185.404z M8.96,188.161c0-0.516-0.431-0.89-0.862-0.89
						c-0.441,0-0.862,0.412-0.862,0.862c0,0.478,0.399,0.874,0.862,0.874C8.551,189.007,8.96,188.623,8.96,188.161z M11.261,185.711
						l-0.253,0.852l0.286-0.017c0.786,0,1.303,0.687,1.303,1.45c0,0.874-0.667,1.472-1.502,1.472c-0.501,0-1.002-0.269-1.239-0.725
						l0.377-0.363c0.124,0.352,0.539,0.615,0.899,0.615c0.549,0,0.98-0.461,0.98-1.016c0-0.533-0.447-0.983-0.97-0.983
						c-0.286,0-0.582,0.137-0.759,0.368h-0.097l0.625-2.125h1.626v0.472H11.261z M13.034,187.31c0-0.852,0.366-2.159,1.417-2.159
						s1.417,1.307,1.417,2.159c0,0.846-0.372,2.159-1.417,2.159S13.034,188.156,13.034,187.31z M13.519,187.305
						c0,0.571,0.205,1.703,0.932,1.703s0.932-1.131,0.932-1.703s-0.205-1.714-0.932-1.714S13.519,186.733,13.519,187.305z
						 M17.04,187.233c-0.334-0.192-0.533-0.522-0.533-0.928c0-0.676,0.517-1.153,1.163-1.153c0.646,0,1.164,0.478,1.164,1.153
						c0,0.406-0.199,0.736-0.533,0.928c0.42,0.148,0.641,0.549,0.641,0.995c0,0.769-0.582,1.241-1.271,1.241
						s-1.271-0.473-1.271-1.241C16.398,187.782,16.619,187.381,17.04,187.233z M16.883,188.228c0,0.417,0.388,0.78,0.786,0.78
						c0.399,0,0.787-0.363,0.787-0.78c0-0.439-0.377-0.78-0.787-0.78C17.26,187.447,16.883,187.788,16.883,188.228z M16.98,186.305
						c0,0.33,0.351,0.703,0.689,0.703c0.339,0,0.689-0.374,0.689-0.703c0-0.396-0.323-0.714-0.689-0.714
						C17.303,185.591,16.98,185.909,16.98,186.305z"/>
				</g>
			</g>
			<g id="g6506">
				<g id="h6506">
					<polygon id="b6506" class="st5" points="0.509,174.381 0.509,182.861 25.132,182.861 25.088,174.381 					"/>
					<path id="t6506" class="st4" d="M8.96,176.638l-1.083,1.494l0.011,0.011c0.119-0.06,0.253-0.099,0.398-0.099
						c0.668,0,1.174,0.632,1.174,1.296c0,0.758-0.603,1.362-1.341,1.362c-0.7,0-1.352-0.593-1.352-1.324
						c0-0.417,0.205-0.769,0.441-1.093l1.384-1.901L8.96,176.638z M8.976,179.395c0-0.517-0.431-0.89-0.862-0.89
						c-0.441,0-0.862,0.412-0.862,0.862c0,0.478,0.399,0.874,0.862,0.874C8.566,180.241,8.976,179.856,8.976,179.395z
						 M11.276,176.945l-0.253,0.852l0.286-0.017c0.786,0,1.303,0.687,1.303,1.45c0,0.874-0.667,1.472-1.502,1.472
						c-0.501,0-1.002-0.269-1.239-0.725l0.377-0.362c0.124,0.352,0.539,0.615,0.899,0.615c0.549,0,0.98-0.462,0.98-1.017
						c0-0.533-0.447-0.983-0.97-0.983c-0.286,0-0.582,0.138-0.759,0.368h-0.097l0.625-2.126h1.626v0.473H11.276z M13.049,178.544
						c0-0.852,0.366-2.159,1.417-2.159s1.417,1.308,1.417,2.159c0,0.846-0.372,2.159-1.417,2.159S13.049,179.39,13.049,178.544z
						 M13.534,178.538c0,0.571,0.205,1.703,0.932,1.703s0.932-1.132,0.932-1.703s-0.205-1.714-0.932-1.714
						S13.534,177.967,13.534,178.538z M18.505,176.638l-1.083,1.494l0.011,0.011c0.119-0.06,0.253-0.099,0.399-0.099
						c0.667,0,1.174,0.632,1.174,1.296c0,0.758-0.603,1.362-1.341,1.362c-0.701,0-1.352-0.593-1.352-1.324
						c0-0.417,0.205-0.769,0.441-1.093l1.384-1.901L18.505,176.638z M18.522,179.395c0-0.517-0.431-0.89-0.862-0.89
						c-0.442,0-0.862,0.412-0.862,0.862c0,0.478,0.398,0.874,0.862,0.874C18.112,180.241,18.522,179.856,18.522,179.395z"/>
				</g>
			</g>
			<g id="g6502">
				<g id="h6502">
					<polygon id="b6502" class="st5" points="25.044,165.856 0.509,165.856 0.509,174.381 25.088,174.381 					"/>
					<path id="t6502" class="st4" d="M8.989,168.091l-1.083,1.494l0.011,0.011c0.118-0.061,0.253-0.099,0.398-0.099
						c0.668,0,1.174,0.632,1.174,1.296c0,0.758-0.604,1.362-1.341,1.362c-0.7,0-1.352-0.593-1.352-1.324
						c0-0.417,0.205-0.769,0.442-1.093l1.384-1.9L8.989,168.091z M9.005,170.849c0-0.516-0.431-0.89-0.862-0.89
						c-0.442,0-0.862,0.412-0.862,0.862c0,0.478,0.398,0.874,0.862,0.874C8.596,171.695,9.005,171.311,9.005,170.849z
						 M11.305,168.399l-0.253,0.852l0.285-0.017c0.787,0,1.304,0.687,1.304,1.45c0,0.874-0.668,1.472-1.503,1.472
						c-0.501,0-1.002-0.269-1.239-0.725l0.377-0.363c0.124,0.352,0.539,0.615,0.9,0.615c0.549,0,0.98-0.461,0.98-1.016
						c0-0.533-0.447-0.983-0.969-0.983c-0.286,0-0.582,0.137-0.76,0.368h-0.097l0.625-2.125h1.627v0.472H11.305z M13.079,169.998
						c0-0.852,0.366-2.159,1.417-2.159s1.417,1.307,1.417,2.159c0,0.846-0.372,2.159-1.417,2.159S13.079,170.843,13.079,169.998z
						 M13.563,169.992c0,0.571,0.205,1.703,0.932,1.703s0.932-1.131,0.932-1.703s-0.205-1.714-0.932-1.714
						S13.563,169.421,13.563,169.992z M18.934,171.596v0.473h-2.623l1.778-2.225c0.167-0.209,0.361-0.467,0.361-0.742
						c0-0.434-0.377-0.791-0.797-0.791c-0.415,0-0.754,0.34-0.781,0.758h-0.506c0.081-0.736,0.549-1.23,1.287-1.23
						c0.689,0,1.282,0.521,1.282,1.241c0,0.308-0.113,0.615-0.301,0.852l-1.336,1.664H18.934z"/>
				</g>
			</g>
			<g id="g6500">
				<g id="h6500">
					<polygon id="b6500" class="st5" points="25.002,157.606 0.509,157.606 0.509,165.856 25.044,165.856 					"/>
					<path id="t6500" class="st4" d="M8.899,159.693l-1.083,1.494l0.011,0.011c0.119-0.061,0.253-0.099,0.398-0.099
						c0.668,0,1.174,0.632,1.174,1.296c0,0.758-0.603,1.362-1.341,1.362c-0.7,0-1.352-0.593-1.352-1.324
						c0-0.417,0.205-0.769,0.441-1.093l1.384-1.9L8.899,159.693z M8.916,162.45c0-0.516-0.431-0.89-0.862-0.89
						c-0.441,0-0.862,0.412-0.862,0.862c0,0.478,0.399,0.874,0.862,0.874C8.506,163.296,8.916,162.912,8.916,162.45z M11.216,160
						l-0.253,0.852l0.286-0.017c0.786,0,1.303,0.687,1.303,1.45c0,0.874-0.668,1.472-1.502,1.472c-0.501,0-1.002-0.269-1.239-0.725
						l0.377-0.363c0.124,0.352,0.539,0.615,0.899,0.615c0.549,0,0.98-0.461,0.98-1.016c0-0.533-0.447-0.983-0.97-0.983
						c-0.286,0-0.582,0.137-0.76,0.368h-0.097l0.625-2.125h1.626V160H11.216z M12.989,161.599c0-0.852,0.366-2.159,1.417-2.159
						s1.417,1.307,1.417,2.159c0,0.846-0.372,2.159-1.417,2.159S12.989,162.445,12.989,161.599z M13.474,161.594
						c0,0.571,0.205,1.703,0.932,1.703s0.932-1.131,0.932-1.703s-0.205-1.714-0.932-1.714S13.474,161.022,13.474,161.594z
						 M16.297,161.599c0-0.852,0.366-2.159,1.417-2.159c1.05,0,1.417,1.307,1.417,2.159c0,0.846-0.372,2.159-1.417,2.159
						C16.669,163.758,16.297,162.445,16.297,161.599z M16.782,161.594c0,0.571,0.205,1.703,0.932,1.703
						c0.727,0,0.932-1.131,0.932-1.703s-0.205-1.714-0.932-1.714C16.987,159.88,16.782,161.022,16.782,161.594z"/>
				</g>
			</g>
		</g>
	</g>
</g>
<g id="DAWN_DECK_06_TOP">
	<path class="st6" d="M127.539,824.259c-0.845,9.25-30.627,13.491-63.391,13.491c-38.871,0-62.371-4.241-63.354-13.246
		C0.613,809.037,0.5,157.604,0.5,157.604C1.309,88.859,39.284,0.342,64.154,0.643c23.796,1.032,63.384,88.505,63.142,156.96
		L127.539,824.259z"/>
	<g id="gDeck06Locations">
		<rect id="_x30_6Aft" y="562.299" class="st7" width="128.039" height="275.451"/>
		<rect id="_x30_6Middle" y="263.349" class="st7" width="128.039" height="298.95"/>
		<rect id="_x30_6Forward" y="0.01" class="st7" width="128.039" height="263.34"/>
	</g>
</g>
</svg>
