<?xml version="1.0" encoding="utf-8"?>
<!-- Generator: Adobe Illustrator 23.0.2, SVG Export Plug-In . SVG Version: 6.00 Build 0)  -->
<svg version="1.1" id="DAWN_DECK_07" xmlns="http://www.w3.org/2000/svg" xmlns:xlink="http://www.w3.org/1999/xlink" x="0px"
	 y="0px" width="128.038px" height="856.438px" viewBox="0 0 128.038 856.438" style="enable-background:new 0 0 128.038 856.438;"
	 xml:space="preserve">
<style type="text/css">
	.st0{fill:#FFFFFF;}
	.st1{fill:none;stroke:#D5DCE0;stroke-width:0.5;}
	.st2{fill:none;stroke:#000000;stroke-width:0.5;stroke-miterlimit:3.8637;}
	.st3{fill:none;stroke:#808285;stroke-width:0.25;stroke-miterlimit:3.8637;}
	.st4{fill:#6E8496;}
	.st5{fill:none;stroke:#076FA0;stroke-miterlimit:10;}
	.st6{fill:none;}
</style>
<g id="DAWN_DECK_07_BOTTOM">
	<path class="st0" d="M127.538,842.151c-0.844,9.452-30.627,13.786-63.391,13.786c-38.871,0-62.371-4.334-63.354-13.536
		C0.613,826.596,0.5,160.899,0.5,160.899C1.309,90.649,39.284,0.193,64.154,0.501c23.796,1.055,63.384,90.443,63.142,160.397
		L127.538,842.151z"/>
	<polyline class="st1" points="60.547,385.507 60.547,416.989 92.4,416.989 92.4,501.427 80.949,501.427 80.949,484.57 	"/>
	<line class="st1" x1="34.054" y1="484.434" x2="92.4" y2="484.434"/>
	<polyline class="st1" points="34.062,441.28 34.054,501.427 46.622,501.427 46.622,484.447 	"/>
	<path class="st1" d="M33.487,629.132v-18.408h3.159l-0.005-0.934c0,0-0.524-8.94,7.068-8.619c4.004,0.169,3.837,3.336,3.837,3.336
		c3.851,1.408,11.096,2.34,16.273,2.395c5.181-0.055,12.044-0.653,15.894-2.062c0,0,1.833-3.667,4.22-3.669
		c4.506-0.004,6.152,3.029,6.747,5.496L91,609.79v1.148h1.426L92.4,639.507l-9.922-0.167v55.64l10.555,2.828l0.021,13.949"/>
	<path class="st1" d="M24.708,790.147v58.025c-6.583-1.479-16.235-4.322-18.04-9.672v-48.357L24.708,790.147L24.708,790.147z"/>
	<path class="st1" d="M102.945,790.147v58.025c6.582-1.479,16.235-4.322,18.038-9.672v-48.357h-4.7L102.945,790.147L102.945,790.147
		z"/>
	<path class="st1" d="M63.826,521.521H40.384v-4.725H33.07c0,0,3.577,6.119,3.577,9.354c0,2.521,0.517,4.557-2.533,9.818
		c0,0.549-0.626,2.832,2.533,3.225c0.991,0,3.361,0.385,7.067-2.676l5.236,2.557l-5.918,4.516c-1.284,1.061-2.401,2.057-2.401,3.652
		c0,1.764,1.385,2.394,1.385,2.394s1.063,3.182,1.043,5.262c-0.193,0.041-2.143,0.061-2.143,1.971c0,1.564,2.048,1.801,2.048,1.801
		c-0.099,2.236-1.233,5.652-1.233,5.652s-0.928,2.154,0.948,2.912c2.575,0.814,3.28-1.197,3.28-1.197
		c0.391-1.959-1.856-2.389-1.856-2.389s1.137-2.898,1.137-6.699c0-4.09-1.086-6.963-1.086-6.963c1.312-0.301,1.612-0.74,2.087-1.645
		c0.523-1.648-0.717-2.555-0.717-2.555s-0.719-0.822,0.76-1.83c4.236-2.916,8.851-10.488,8.851-10.488s1.786,0.715,2.921,0.791
		c0-0.822,0-2.721,0-2.721h5.771h5.772c0,0,0,1.898,0,2.721c1.136-0.076,2.922-0.791,2.922-0.791s4.613,7.572,8.849,10.488
		c1.479,1.008,0.76,1.83,0.76,1.83s-1.239,0.906-0.716,2.555c0.475,0.904,0.773,1.344,2.086,1.645c0,0-1.085,2.873-1.085,6.963
		c0,3.801,1.138,6.699,1.138,6.699s-2.249,0.43-1.857,2.389c0,0,0.705,2.012,3.28,1.197c1.876-0.758,0.947-2.912,0.947-2.912
		s-1.134-3.416-1.231-5.652c0,0,2.048-0.236,2.048-1.801c0-1.91-1.95-1.93-2.142-1.971c-0.022-2.08,1.041-5.262,1.041-5.262
		s1.384-0.631,1.384-2.394c0-1.596-1.116-2.592-2.399-3.652l-5.92-4.516l5.237-2.557c3.706,3.06,6.078,2.676,7.066,2.676
		c3.16-0.392,2.533-2.676,2.533-3.225c-3.049-5.262-2.533-7.297-2.533-9.818c0-3.234,3.579-9.354,3.579-9.354h-7.239l-0.076,4.725
		H63.826L63.826,521.521z"/>
	<path class="st1" d="M69.027,574.138c-1.441,0-2.608-0.965-2.608-2.156c0-1.188,1.167-2.152,2.608-2.152s2.609,0.965,2.609,2.152
		C71.637,573.173,70.469,574.138,69.027,574.138L69.027,574.138z"/>
	<path class="st1" d="M58.625,574.138c-1.441,0-2.61-0.965-2.61-2.156c0-1.188,1.169-2.152,2.61-2.152
		c1.44,0,2.609,0.965,2.609,2.152C61.234,573.173,60.065,574.138,58.625,574.138L58.625,574.138z"/>
	<path class="st1" d="M23.047,210.5h10.44v8.895h10.227l-0.001-8.855H83.94l-0.001,8.855H92.4v-8.856h12.647"/>
	<polyline class="st1" points="79.531,747.251 79.531,727.376 92.422,727.376 92.422,747.501 35.255,747.501 35.255,727.346 
		47.938,727.346 47.938,747.501 	"/>
	<path class="st1" d="M14.531,79.246l2.974-0.003c0,0,6.453-4.205,16.641-4.345s58.416-0.14,58.416-0.14s11.429-0.086,18.22,4.45
		l2.719-0.013"/>
	<line class="st1" x1="92.75" y1="629.18" x2="104.755" y2="629.18"/>
	<line class="st1" x1="22.693" y1="711.982" x2="104.714" y2="711.982"/>
	<polygon class="st1" points="43.698,219.388 43.698,210.542 53.782,210.542 53.782,219.388 	"/>
	<polygon class="st1" points="53.783,219.388 53.783,210.542 63.811,210.542 63.811,219.388 	"/>
	<polygon class="st1" points="63.811,219.388 63.811,210.542 73.896,210.542 73.896,219.388 	"/>
	<polygon class="st1" points="73.896,219.388 73.896,210.542 83.924,210.542 83.924,219.388 	"/>
	<polygon class="st1" points="40.384,521.521 40.384,512.677 50.455,512.677 50.455,521.521 	"/>
	<polygon class="st1" points="50.455,521.521 50.455,512.677 60.511,512.677 60.511,521.521 	"/>
	<polygon class="st1" points="67.501,521.521 67.501,512.677 77.587,512.677 77.587,521.521 	"/>
	<polygon class="st1" points="77.59,521.521 77.59,512.677 87.335,512.677 87.335,521.536 77.59,521.536 	"/>
	<path class="st1" d="M104.797,609.238h-2.252l-6.201-5.812c0,0-5.266-2.781-1.027-6.283c1.252-0.947,1.912-3.619,1.912-3.619
		l1.598-9.854l0,0c0.119-1.922-0.17-4.375-0.23-6.791c0-3.596,3.094-3.621,3.094-3.621l12.359,0.01"/>
	<path class="st1" d="M22.797,609.479h2.431l6.202-5.854c0,0,5.263-2.801,1.025-6.328c-1.25-0.955-1.229-3.387-1.229-3.387
		l-1.599-9.927l0,0c-0.119-1.935-0.512-4.665-0.451-7.098c0-3.621-3.095-3.648-3.095-3.648l-12.358,0.01"/>
	<polyline class="st1" points="23.047,629.142 43.545,629.142 43.595,682.136 25.842,682.146 25.842,691.571 34.501,700.993 
		34.501,711.72 	"/>
	<rect x="76.676" y="328.996" class="st1" width="15.809" height="20.03"/>
	<line class="st1" x1="76.452" y1="339.071" x2="92.547" y2="339.071"/>
	<path class="st1" d="M82.333,566.913c-4.665,3.854-10.714,4.725-10.714,4.725"/>
	<path class="st1" d="M45.319,566.913c4.666,3.854,10.714,4.725,10.714,4.725"/>
	<path class="st1" d="M85.438,566.997c0.149,0.894-8.784,7.173-14.814,6.578"/>
	<path class="st1" d="M70.996,573.622c-0.447,0.293-1.17,0.596-1.787,0.596c-0.147,0-0.604-0.054-0.744-0.075
		c-1.008,0.332-3.521,1.747-8.71,0c-0.125,0.016-0.618-0.029-0.744,0c-0.968,0.224-1.864-0.233-2.308-0.52
		c0,0-9.157-0.522-13.534-6.428"/>
	<line class="st1" x1="81.22" y1="228.008" x2="81.22" y2="245.45"/>
	<polyline class="st1" points="81.22,228.201 92.46,228.201 92.46,245.395 	"/>
	<polyline class="st1" points="35.415,245.395 35.415,228.201 46.134,228.201 	"/>
	<line class="st1" x1="46.181" y1="228.008" x2="46.181" y2="245.278"/>
	<path class="st1" d="M116.283,738.295c0-8.278-7.898-10.305-11.556-10.796v-15.642l11.724-11.431l-0.404-61.104l-11.319-10.437
		v-19.662h4.02l5.228-4.294v-42.032h-3.888v-16.122l-5.37-0.002V423.19l3.348-1.309v-5.205l-3.348-1.352l0,0v-1.022l3.348-1.311
		v-5.203l-3.348-1.352v-9.889l3.348-1.31v-5.211l-3.348-1.35v-1.022l3.348-1.309v-5.207l-3.348-1.35v-1.146l3.348-1.311v-5.207
		l-3.348-1.35V203.441l13.655-11.781v-64.752c0,0,0.677-41.146-13.875-46.201H22.96c0,0-7.526,1.064-11.039,17.273
		c-3.512,16.21-2.641,31.63-2.641,31.63v62.032l13.654,11.799v167.115l-3.559,1.437v5.207l3.559,1.393v0.96l-3.559,1.436v5.206
		l3.559,1.392v0.8l-3.559,1.437v5.21l3.559,1.392v0.8l-3.559,1.436v5.205l3.559,1.394v0.855l-3.559,1.436v5.204l3.559,1.394v0.854
		l-3.559,1.436v5.206l3.559,1.393V546.59l-5.284,0.004l-0.009,16.305h-3.966v42.032l5.23,4.294h4.019v20.37L11.201,640.1v60.806
		l11.723,11.183v15.41c-3.656,0.491-11.555,2.518-11.555,10.796v51.709H6.668v48.785c1.805,5.318,11.457,8.145,18.04,9.614
		c0,0,13.491,2.136,33.101,2.372c-0.021,0.006,6.018,0.043,6.018,0.043s6.038-0.037,6.017-0.043
		c19.61-0.236,33.103-2.372,33.103-2.372c6.582-1.47,16.235-4.296,18.038-9.614v-48.545h-4.7V738.42"/>
	<polyline class="st1" points="51.138,349.133 51.138,354.749 76.547,354.749 76.547,348.757 	"/>
	<polyline class="st1" points="92.4,401.321 92.4,349.007 23.297,349.007 	"/>
	<polyline class="st1" points="22.997,441.466 55.504,441.466 55.572,441.471 55.598,414.755 60.309,414.757 60.309,385.414 
		92.4,385.403 92.4,408.27 	"/>
	<path class="st1" d="M116.237,790.147h-13.291l-0.002,58.025c0,0-13.491,2.148-33.102,2.387c0,0.006-6.017,0.053-6.017,0.053
		s-6.039-0.047-6.018-0.053l0,0c-19.609-0.238-33.099-2.387-33.099-2.387l-0.002-58.021l-13.312-0.004"/>
	<path class="st1" d="M27.963,184.961c0,0,2.851-15.453-5.556-22.566"/>
	<path class="st1" d="M26.345,167.951c0,0,2.231-18.661-7.355-23.471"/>
	<path class="st1" d="M24.124,149.854c0,0,2.569-17.091-7.467-21.662"/>
	<path class="st1" d="M22.585,134.354c0,0,2.181-17.323-6.34-21.956c0,0-2.563-1.638-6.177-1.781"/>
	<polygon class="st1" points="64.364,720.488 64.364,711.9 74.45,711.9 74.45,720.488 	"/>
	<polygon class="st1" points="54.28,720.488 54.28,711.9 64.364,711.9 64.364,720.488 	"/>
	<polygon class="st1" points="74.444,720.488 74.444,711.9 84.527,711.9 84.527,720.488 	"/>
	<polygon class="st1" points="44.196,720.488 44.196,711.9 54.282,711.9 54.282,720.488 	"/>
	<polyline class="st1" points="83.938,219.291 92.4,219.291 92.4,200.043 83.953,200.043 83.953,187.112 43.698,187.112 
		43.698,200.043 33.487,200.043 33.487,219.291 43.714,219.291 	"/>
	<line class="st1" x1="22.935" y1="414.703" x2="55.504" y2="414.703"/>
	<line class="st1" x1="40.797" y1="512.882" x2="50.422" y2="521.382"/>
	<line class="st1" x1="40.797" y1="521.382" x2="50.172" y2="512.757"/>
	<line class="st1" x1="50.172" y1="512.757" x2="60.172" y2="521.507"/>
	<line class="st1" x1="50.422" y1="521.382" x2="60.422" y2="512.632"/>
	<line class="st1" x1="67.672" y1="512.882" x2="77.547" y2="521.382"/>
	<line class="st1" x1="67.547" y1="521.257" x2="77.422" y2="512.757"/>
	<line class="st1" x1="77.565" y1="512.925" x2="87.297" y2="521.507"/>
	<line class="st1" x1="77.797" y1="521.382" x2="87.297" y2="512.757"/>
	<line class="st1" x1="43.894" y1="210.668" x2="53.575" y2="219.037"/>
	<line class="st1" x1="43.894" y1="219.134" x2="53.59" y2="210.625"/>
	<line class="st1" x1="54.171" y1="210.981" x2="63.598" y2="219.183"/>
	<line class="st1" x1="53.965" y1="219.231" x2="63.59" y2="210.625"/>
	<line class="st1" x1="64.23" y1="210.766" x2="73.614" y2="218.904"/>
	<line class="st1" x1="64.23" y1="219.037" x2="73.59" y2="210.625"/>
	<line class="st1" x1="74.171" y1="210.981" x2="83.79" y2="219.231"/>
	<line class="st1" x1="74.06" y1="219.085" x2="83.59" y2="210.625"/>
	<path class="st2" d="M87.447,416.989"/>
	<line class="st1" x1="91.844" y1="539.007" x2="87.038" y2="547.181"/>
	<line class="st1" x1="89.495" y1="539.204" x2="85.729" y2="544.647"/>
	<line class="st1" x1="87.584" y1="538.745" x2="83.938" y2="543.018"/>
	<line class="st1" x1="85.824" y1="537.852" x2="82.109" y2="541.669"/>
	<line class="st1" x1="84.343" y1="536.839" x2="80.402" y2="540.364"/>
	<line class="st1" x1="40.642" y1="547.449" x2="35.836" y2="539.275"/>
	<line class="st1" x1="41.952" y1="544.916" x2="38.185" y2="539.473"/>
	<line class="st1" x1="43.742" y1="543.287" x2="40.096" y2="539.014"/>
	<line class="st1" x1="45.571" y1="541.938" x2="41.856" y2="538.121"/>
	<line class="st1" x1="47.278" y1="540.633" x2="43.337" y2="537.107"/>
	<path class="st1" d="M26.473,162.88c0.345-0.308,1.289-0.915,3.326-0.856c2.834,0.083,3.196,0.76,3.196,0.76"/>
	<path class="st1" d="M26.462,166.597c0,0,0.755-1.106,3.41-1.027c2.77,0.082,3.123,0.76,3.123,0.76"/>
	<path class="st1" d="M26.933,169.6c0.581-0.267,1.531-0.523,3.011-0.484c1.809,0.048,2.693,0.301,3.116,0.502"/>
	<path class="st1" d="M27.84,172.966c0.565-0.155,1.322-0.263,2.319-0.236c1.405,0.038,2.252,0.198,2.758,0.362"/>
	<path class="st1" d="M28.344,177.327c0.583-0.188,1.404-0.33,2.533-0.3c1.013,0.027,1.736,0.118,2.25,0.228"/>
	<path class="st1" d="M28.369,180.887c0.586-0.195,1.42-0.346,2.58-0.315c0.926,0.025,1.61,0.103,2.114,0.2"/>
	<path class="st1" d="M28.041,184.677c0.59-0.213,1.457-0.387,2.693-0.355c0.974,0.026,1.68,0.111,2.191,0.216"/>
	<path class="st1" d="M26.473,164.713c0.345-0.308,1.289-0.915,3.326-0.856c2.834,0.083,3.196,0.76,3.196,0.76"/>
	<path class="st1" d="M26.462,168.43c0,0,0.755-1.106,3.41-1.027c2.77,0.082,3.123,0.76,3.123,0.76"/>
	<path class="st1" d="M27.359,171.433c0.54-0.267,1.425-0.523,2.802-0.484c1.683,0.048,2.506,0.301,2.899,0.502"/>
	<path class="st1" d="M28.047,174.8c0.542-0.155,1.268-0.263,2.225-0.236c1.348,0.038,2.161,0.198,2.646,0.362"/>
	<path class="st1" d="M28.344,179.16c0.583-0.188,1.404-0.33,2.533-0.3c1.013,0.027,1.736,0.118,2.25,0.228"/>
	<path class="st1" d="M28.369,182.721c0.586-0.195,1.42-0.346,2.58-0.315c0.926,0.025,1.61,0.103,2.114,0.2"/>
	<line class="st1" x1="74.567" y1="720.332" x2="84.332" y2="712.144"/>
	<line class="st1" x1="84.395" y1="720.379" x2="74.614" y2="712.098"/>
	<line class="st1" x1="64.411" y1="720.41" x2="74.366" y2="711.959"/>
	<line class="st1" x1="74.223" y1="720.254" x2="64.536" y2="712.113"/>
	<line class="st1" x1="54.426" y1="720.348" x2="64.239" y2="712.082"/>
	<line class="st1" x1="64.114" y1="720.238" x2="54.442" y2="712.098"/>
	<line class="st1" x1="44.317" y1="720.332" x2="54.223" y2="712.019"/>
	<line class="st1" x1="53.989" y1="720.176" x2="44.395" y2="712.129"/>
	<line class="st1" x1="32.991" y1="162.308" x2="32.991" y2="184.717"/>
	<path class="st1" d="M99.795,184.961c0,0-2.851-15.453,5.556-22.566"/>
	<path class="st1" d="M101.414,167.951c0,0-2.231-18.661,7.355-23.471"/>
	<path class="st1" d="M103.635,149.854c0,0-2.569-17.091,7.467-21.662"/>
	<path class="st1" d="M105.173,134.354c0,0-2.181-17.323,6.34-21.956c0,0,2.563-1.638,6.177-1.781"/>
	<path class="st1" d="M101.286,162.88c-0.345-0.308-1.289-0.915-3.326-0.856c-2.834,0.083-3.196,0.76-3.196,0.76"/>
	<path class="st1" d="M101.297,166.597c0,0-0.755-1.106-3.41-1.027c-2.77,0.082-3.123,0.76-3.123,0.76"/>
	<path class="st1" d="M100.826,169.6c-0.581-0.267-1.531-0.523-3.011-0.484c-1.809,0.048-2.693,0.301-3.116,0.502"/>
	<path class="st1" d="M99.918,172.966c-0.565-0.155-1.322-0.263-2.319-0.236c-1.405,0.038-2.252,0.198-2.758,0.362"/>
	<path class="st1" d="M99.415,177.327c-0.583-0.188-1.404-0.33-2.533-0.3c-1.013,0.027-1.736,0.118-2.251,0.228"/>
	<path class="st1" d="M99.389,180.887c-0.586-0.195-1.42-0.346-2.58-0.315c-0.926,0.025-1.61,0.103-2.114,0.2"/>
	<path class="st1" d="M99.718,184.677c-0.59-0.213-1.457-0.387-2.693-0.355c-0.974,0.026-1.68,0.111-2.191,0.216"/>
	<path class="st1" d="M101.286,164.713c-0.345-0.308-1.289-0.915-3.326-0.856c-2.834,0.083-3.196,0.76-3.196,0.76"/>
	<path class="st1" d="M101.297,168.43c0,0-0.755-1.106-3.41-1.027c-2.77,0.082-3.123,0.76-3.123,0.76"/>
	<path class="st1" d="M100.399,171.433c-0.54-0.267-1.425-0.523-2.802-0.484c-1.683,0.048-2.506,0.301-2.899,0.502"/>
	<path class="st1" d="M99.711,174.8c-0.542-0.155-1.268-0.263-2.225-0.236c-1.348,0.038-2.161,0.198-2.646,0.362"/>
	<path class="st1" d="M99.415,179.16c-0.583-0.188-1.404-0.33-2.533-0.3c-1.013,0.027-1.736,0.118-2.251,0.228"/>
	<path class="st1" d="M99.389,182.721c-0.586-0.195-1.42-0.346-2.58-0.315c-0.926,0.025-1.61,0.103-2.114,0.2"/>
	<line class="st1" x1="94.767" y1="162.308" x2="94.767" y2="184.717"/>
	<path class="st1" d="M72.791,228.523c-0.384,0-0.695,0.256-0.695,0.578"/>
	<line class="st1" x1="81.193" y1="228.523" x2="72.791" y2="228.523"/>
	<line class="st1" x1="72.096" y1="229.101" x2="72.096" y2="231.341"/>
	<line class="st1" x1="72.096" y1="231.341" x2="55.58" y2="231.341"/>
	<path class="st1" d="M55.58,229.101c0-0.322-0.305-0.578-0.689-0.578"/>
	<line class="st1" x1="55.58" y1="231.341" x2="55.58" y2="229.101"/>
	<line class="st1" x1="54.891" y1="228.523" x2="46.437" y2="228.523"/>
	<line class="st1" x1="64.024" y1="242.335" x2="64.024" y2="228.316"/>
	<line class="st1" x1="63.689" y1="242.335" x2="63.689" y2="228.316"/>
	<line class="st1" x1="80.803" y1="241.619" x2="64.024" y2="241.619"/>
	<line class="st1" x1="64.024" y1="228.316" x2="63.689" y2="228.316"/>
	<line class="st1" x1="64.024" y1="242.335" x2="63.689" y2="242.335"/>
	<line class="st1" x1="63.689" y1="241.619" x2="46.306" y2="241.619"/>
	<line class="st1" x1="63.689" y1="240.134" x2="56.296" y2="240.134"/>
	<line class="st1" x1="63.689" y1="238.648" x2="56.296" y2="238.648"/>
	<line class="st1" x1="63.689" y1="237.162" x2="56.296" y2="237.162"/>
	<line class="st1" x1="63.689" y1="235.675" x2="56.296" y2="235.675"/>
	<line class="st1" x1="63.689" y1="234.189" x2="56.296" y2="234.189"/>
	<line class="st1" x1="63.689" y1="232.703" x2="56.296" y2="232.703"/>
	<line class="st1" x1="63.689" y1="229.732" x2="55.626" y2="229.732"/>
	<line class="st1" x1="71.418" y1="240.134" x2="64.024" y2="240.134"/>
	<line class="st1" x1="71.418" y1="238.648" x2="64.024" y2="238.648"/>
	<line class="st1" x1="71.418" y1="237.162" x2="64.024" y2="237.162"/>
	<line class="st1" x1="71.418" y1="235.675" x2="64.024" y2="235.675"/>
	<line class="st1" x1="71.418" y1="234.189" x2="64.024" y2="234.189"/>
	<line class="st1" x1="71.418" y1="232.703" x2="64.024" y2="232.703"/>
	<line class="st1" x1="72.147" y1="229.732" x2="64.024" y2="229.732"/>
	<line class="st1" x1="46.244" y1="229.986" x2="54.95" y2="229.986"/>
	<line class="st1" x1="46.363" y1="231.453" x2="55.864" y2="231.453"/>
	<line class="st1" x1="46.186" y1="232.913" x2="54.95" y2="232.913"/>
	<line class="st1" x1="46.363" y1="234.378" x2="54.916" y2="234.378"/>
	<line class="st1" x1="72.075" y1="229.986" x2="81.039" y2="229.986"/>
	<line class="st1" x1="72.017" y1="231.453" x2="81.1" y2="231.453"/>
	<line class="st1" x1="72.761" y1="232.913" x2="81.158" y2="232.913"/>
	<line class="st1" x1="72.761" y1="234.378" x2="81.1" y2="234.378"/>
	<path class="st1" d="M54.835,242.503c0,0.309,0.303,0.561,0.673,0.561c0.372,0,0.672-0.252,0.672-0.561l0,0"/>
	<line class="st1" x1="56.18" y1="242.503" x2="56.18" y2="242.335"/>
	<line class="st1" x1="54.835" y1="242.503" x2="54.835" y2="242.335"/>
	<path class="st1" d="M71.418,242.503c0,0.309,0.299,0.561,0.667,0.561c0.374,0,0.675-0.252,0.675-0.561l0,0"/>
	<line class="st1" x1="72.761" y1="242.503" x2="72.761" y2="242.335"/>
	<line class="st1" x1="71.418" y1="242.503" x2="71.418" y2="242.335"/>
	<line class="st1" x1="55.517" y1="242.335" x2="55.517" y2="231.482"/>
	<line class="st1" x1="46.423" y1="237.308" x2="54.95" y2="237.308"/>
	<line class="st1" x1="46.423" y1="238.769" x2="54.95" y2="238.769"/>
	<line class="st1" x1="46.481" y1="240.236" x2="54.95" y2="240.236"/>
	<line class="st1" x1="46.363" y1="235.841" x2="54.95" y2="235.841"/>
	<line class="st1" x1="72.077" y1="242.335" x2="72.077" y2="231.285"/>
	<line class="st1" x1="72.761" y1="237.308" x2="81.039" y2="237.308"/>
	<line class="st1" x1="72.761" y1="238.769" x2="80.98" y2="238.769"/>
	<line class="st1" x1="72.761" y1="240.236" x2="80.922" y2="240.236"/>
	<line class="st1" x1="72.666" y1="235.841" x2="81.22" y2="235.841"/>
	<path class="st1" d="M54.646,500.773c0.377,0,0.683-0.256,0.683-0.578"/>
	<line class="st1" x1="46.378" y1="500.773" x2="54.646" y2="500.773"/>
	<line class="st1" x1="55.329" y1="500.195" x2="55.329" y2="497.955"/>
	<line class="st1" x1="55.329" y1="497.955" x2="71.58" y2="497.955"/>
	<path class="st1" d="M71.58,500.195c0,0.322,0.301,0.578,0.678,0.578"/>
	<line class="st1" x1="71.58" y1="497.955" x2="71.58" y2="500.195"/>
	<line class="st1" x1="72.258" y1="500.773" x2="80.576" y2="500.773"/>
	<line class="st1" x1="63.271" y1="486.961" x2="63.271" y2="500.98"/>
	<line class="st1" x1="63.601" y1="486.961" x2="63.601" y2="500.98"/>
	<line class="st1" x1="46.763" y1="487.678" x2="63.271" y2="487.678"/>
	<line class="st1" x1="63.271" y1="500.98" x2="63.601" y2="500.98"/>
	<line class="st1" x1="63.271" y1="486.961" x2="63.601" y2="486.961"/>
	<line class="st1" x1="63.601" y1="487.678" x2="80.705" y2="487.678"/>
	<line class="st1" x1="63.601" y1="489.162" x2="70.875" y2="489.162"/>
	<line class="st1" x1="63.601" y1="490.648" x2="70.875" y2="490.648"/>
	<line class="st1" x1="63.601" y1="492.135" x2="70.875" y2="492.135"/>
	<line class="st1" x1="63.601" y1="493.621" x2="70.875" y2="493.621"/>
	<line class="st1" x1="63.601" y1="495.107" x2="70.875" y2="495.107"/>
	<line class="st1" x1="63.601" y1="496.594" x2="70.875" y2="496.594"/>
	<line class="st1" x1="63.601" y1="499.564" x2="71.534" y2="499.564"/>
	<line class="st1" x1="55.997" y1="489.162" x2="63.271" y2="489.162"/>
	<line class="st1" x1="55.997" y1="490.648" x2="63.271" y2="490.648"/>
	<line class="st1" x1="55.997" y1="492.135" x2="63.271" y2="492.135"/>
	<line class="st1" x1="55.997" y1="493.621" x2="63.271" y2="493.621"/>
	<line class="st1" x1="55.997" y1="495.107" x2="63.271" y2="495.107"/>
	<line class="st1" x1="55.997" y1="496.594" x2="63.271" y2="496.594"/>
	<line class="st1" x1="55.278" y1="499.564" x2="63.271" y2="499.564"/>
	<line class="st1" x1="80.766" y1="499.31" x2="72.199" y2="499.31"/>
	<line class="st1" x1="80.648" y1="497.844" x2="71.301" y2="497.844"/>
	<line class="st1" x1="80.823" y1="496.383" x2="72.199" y2="496.383"/>
	<line class="st1" x1="80.648" y1="494.918" x2="72.234" y2="494.918"/>
	<line class="st1" x1="55.35" y1="499.31" x2="46.53" y2="499.31"/>
	<line class="st1" x1="55.407" y1="497.844" x2="46.47" y2="497.844"/>
	<line class="st1" x1="54.675" y1="496.383" x2="46.413" y2="496.383"/>
	<line class="st1" x1="54.675" y1="494.918" x2="46.47" y2="494.918"/>
	<path class="st1" d="M72.312,486.793c0-0.309-0.297-0.56-0.662-0.56c-0.366,0-0.661,0.252-0.661,0.56l0,0"/>
	<line class="st1" x1="70.989" y1="486.793" x2="70.989" y2="486.961"/>
	<line class="st1" x1="72.312" y1="486.793" x2="72.312" y2="486.961"/>
	<path class="st1" d="M55.997,486.793c0-0.309-0.295-0.56-0.657-0.56c-0.368,0-0.665,0.252-0.665,0.56l0,0"/>
	<line class="st1" x1="54.675" y1="486.793" x2="54.675" y2="486.961"/>
	<line class="st1" x1="55.997" y1="486.793" x2="55.997" y2="486.961"/>
	<line class="st1" x1="71.641" y1="486.961" x2="71.641" y2="497.814"/>
	<line class="st1" x1="80.589" y1="491.988" x2="72.199" y2="491.988"/>
	<line class="st1" x1="80.589" y1="490.527" x2="72.199" y2="490.527"/>
	<line class="st1" x1="80.532" y1="489.06" x2="72.199" y2="489.06"/>
	<line class="st1" x1="80.648" y1="493.455" x2="72.199" y2="493.455"/>
	<line class="st1" x1="55.348" y1="486.961" x2="55.348" y2="498.012"/>
	<line class="st1" x1="54.675" y1="491.988" x2="46.53" y2="491.988"/>
	<line class="st1" x1="54.675" y1="490.527" x2="46.587" y2="490.527"/>
	<line class="st1" x1="54.675" y1="489.06" x2="46.645" y2="489.06"/>
	<line class="st1" x1="54.768" y1="493.455" x2="46.352" y2="493.455"/>
	<path class="st1" d="M71.971,728.181c-0.344,0-0.623,0.292-0.623,0.658"/>
	<line class="st1" x1="79.508" y1="728.181" x2="71.971" y2="728.181"/>
	<line class="st1" x1="71.348" y1="728.839" x2="71.348" y2="731.391"/>
	<line class="st1" x1="71.348" y1="731.391" x2="56.533" y2="731.391"/>
	<path class="st1" d="M56.533,728.839c0-0.366-0.273-0.658-0.618-0.658"/>
	<line class="st1" x1="56.533" y1="731.391" x2="56.533" y2="728.839"/>
	<line class="st1" x1="55.915" y1="728.181" x2="48.333" y2="728.181"/>
	<line class="st1" x1="64.107" y1="743.909" x2="64.107" y2="727.945"/>
	<line class="st1" x1="63.807" y1="743.909" x2="63.807" y2="727.945"/>
	<line class="st1" x1="79.157" y1="743.093" x2="64.107" y2="743.093"/>
	<line class="st1" x1="64.107" y1="727.945" x2="63.807" y2="727.945"/>
	<line class="st1" x1="64.107" y1="743.909" x2="63.807" y2="743.909"/>
	<line class="st1" x1="63.807" y1="743.093" x2="48.214" y2="743.093"/>
	<line class="st1" x1="63.807" y1="741.402" x2="57.176" y2="741.402"/>
	<line class="st1" x1="63.807" y1="739.71" x2="57.176" y2="739.71"/>
	<line class="st1" x1="63.807" y1="738.017" x2="57.176" y2="738.017"/>
	<line class="st1" x1="63.807" y1="736.325" x2="57.176" y2="736.325"/>
	<line class="st1" x1="63.807" y1="734.633" x2="57.176" y2="734.633"/>
	<line class="st1" x1="63.807" y1="732.94" x2="57.176" y2="732.94"/>
	<line class="st1" x1="63.807" y1="729.558" x2="56.575" y2="729.558"/>
	<line class="st1" x1="70.739" y1="741.402" x2="64.107" y2="741.402"/>
	<line class="st1" x1="70.739" y1="739.71" x2="64.107" y2="739.71"/>
	<line class="st1" x1="70.739" y1="738.017" x2="64.107" y2="738.017"/>
	<line class="st1" x1="70.739" y1="736.325" x2="64.107" y2="736.325"/>
	<line class="st1" x1="70.739" y1="734.633" x2="64.107" y2="734.633"/>
	<line class="st1" x1="70.739" y1="732.94" x2="64.107" y2="732.94"/>
	<line class="st1" x1="71.394" y1="729.558" x2="64.107" y2="729.558"/>
	<line class="st1" x1="48.159" y1="729.847" x2="55.968" y2="729.847"/>
	<line class="st1" x1="48.266" y1="731.517" x2="56.788" y2="731.517"/>
	<line class="st1" x1="48.107" y1="733.181" x2="55.968" y2="733.181"/>
	<line class="st1" x1="48.266" y1="734.849" x2="55.938" y2="734.849"/>
	<line class="st1" x1="71.329" y1="729.847" x2="79.369" y2="729.847"/>
	<line class="st1" x1="71.277" y1="731.517" x2="79.423" y2="731.517"/>
	<line class="st1" x1="71.944" y1="733.181" x2="79.476" y2="733.181"/>
	<line class="st1" x1="71.944" y1="734.849" x2="79.423" y2="734.849"/>
	<path class="st1" d="M55.865,744.1c0,0.351,0.272,0.639,0.604,0.639c0.334,0,0.603-0.287,0.603-0.639l0,0"/>
	<line class="st1" x1="57.072" y1="744.1" x2="57.072" y2="743.909"/>
	<line class="st1" x1="55.865" y1="744.1" x2="55.865" y2="743.909"/>
	<path class="st1" d="M70.739,744.1c0,0.351,0.269,0.639,0.599,0.639c0.336,0,0.606-0.287,0.606-0.639l0,0"/>
	<line class="st1" x1="71.944" y1="744.1" x2="71.944" y2="743.909"/>
	<line class="st1" x1="70.739" y1="744.1" x2="70.739" y2="743.909"/>
	<line class="st1" x1="56.477" y1="743.909" x2="56.477" y2="731.551"/>
	<line class="st1" x1="48.32" y1="738.185" x2="55.968" y2="738.185"/>
	<line class="st1" x1="48.32" y1="739.848" x2="55.968" y2="739.848"/>
	<line class="st1" x1="48.372" y1="741.517" x2="55.968" y2="741.517"/>
	<line class="st1" x1="48.266" y1="736.514" x2="55.968" y2="736.514"/>
	<line class="st1" x1="71.331" y1="743.909" x2="71.331" y2="731.326"/>
	<line class="st1" x1="71.944" y1="738.185" x2="79.369" y2="738.185"/>
	<line class="st1" x1="71.944" y1="739.848" x2="79.316" y2="739.848"/>
	<line class="st1" x1="71.944" y1="741.517" x2="79.264" y2="741.517"/>
	<line class="st1" x1="71.859" y1="736.514" x2="79.531" y2="736.514"/>
	<path class="st1" d="M74.573,838.712v-15.33c0-3.858-4.435-6.985-9.904-6.985c-5.47,0-9.903,3.127-9.903,6.985v15.313
		c2.914-1.084,6.283-1.707,9.878-1.707C68.259,836.988,71.646,837.617,74.573,838.712z"/>
	<path class="st1" d="M103.214,842.174l-19.146,0.911V841.1l-4.657,0.14c-1.396-0.998-3.03-1.851-4.838-2.527
		c-2.927-1.095-6.314-1.724-9.93-1.724c-3.595,0-6.964,0.623-9.878,1.707c-1.828,0.68-3.48,1.537-4.89,2.544l-4.657-0.14v1.985
		l-20.338-0.744v5.946"/>
	<polyline class="st1" points="92.355,727.346 104.683,727.346 104.683,756.107 116.192,756.107 	"/>
	<polyline class="st1" points="38.672,727.346 22.764,727.346 22.764,756.122 11.49,756.122 	"/>
	<polygon class="st1" points="78.255,747.423 78.255,747.499 35.376,747.499 35.376,756.142 92.521,756.142 92.521,747.423 	"/>
	<line class="st1" x1="22.88" y1="245.508" x2="104.714" y2="245.508"/>
	<line class="st1" x1="22.814" y1="329.042" x2="92.508" y2="329.042"/>
	<path class="st1" d="M70.149,416.823v-7.514 M71.858,416.696v-7.615 M73.562,416.696v-7.722 M75.37,416.696v-7.843 M77.051,416.823
		v-7.924 M78.62,416.696v-7.843 M80.239,416.823v-8.357 M60.464,409.536h9.215 M60.506,408.124h9.215 M60.524,406.527l9.09,0.029"/>
	<line class="st3" x1="80.274" y1="416.592" x2="80.274" y2="408.948"/>
	<line class="st1" x1="81.983" y1="416.463" x2="81.983" y2="408.716"/>
	<line class="st1" x1="83.687" y1="416.463" x2="83.687" y2="408.608"/>
	<line class="st1" x1="85.495" y1="416.463" x2="85.495" y2="408.485"/>
	<line class="st1" x1="87.176" y1="416.592" x2="87.176" y2="408.531"/>
	<line class="st1" x1="88.745" y1="416.463" x2="88.745" y2="408.485"/>
	<line class="st1" x1="90.364" y1="416.592" x2="90.364" y2="408.09"/>
	<polyline class="st1" points="60.714,403.84 69.71,406.344 69.718,409.155 92.567,408.104 92.567,385.237 60.475,385.247 
		60.475,413.489 	"/>
	<path class="st4" d="M69.886,390.082v-0.288c0-1.847,0.6-2.734,1.487-2.734c0.888,0,1.487,0.887,1.487,2.734v0.288
		c0,1.847-0.6,2.734-1.487,2.734S69.886,391.929,69.886,390.082z M71.869,390.082v-0.288c0-1.439-0.2-1.839-0.496-1.839
		s-0.496,0.399-0.496,1.839v0.288c0,1.439,0.2,1.839,0.496,1.839S71.869,391.521,71.869,390.082z M73.342,387.14h0.872
		c1.063,0,1.807,0.575,1.807,1.887v0.016c0,1.263-0.704,1.863-1.695,1.935h-0.008v1.759h-0.976V387.14z M74.325,390.074
		c0.408-0.024,0.72-0.32,0.72-1v-0.016c0-0.712-0.271-1.016-0.695-1.016h-0.032v2.031L74.325,390.074L74.325,390.074z
		 M76.422,387.14h2.143v0.927h-1.167v1.391h1.031v0.928h-1.031v1.423h1.191v0.928h-2.167V387.14z M79.062,387.14h0.911l0.984,2.83
		v-2.83h0.951v5.597h-0.863l-1.032-2.966v2.966h-0.951C79.062,392.737,79.062,387.14,79.062,387.14z M84.277,388.067H83.59v-0.927
		h2.351v0.927h-0.688v4.669h-0.976C84.277,392.736,84.277,388.067,84.277,388.067z M86.094,390.082v-0.288
		c0-1.847,0.6-2.734,1.487-2.734s1.487,0.887,1.487,2.734v0.288c0,1.847-0.6,2.734-1.487,2.734S86.094,391.929,86.094,390.082z
		 M88.077,390.082v-0.288c0-1.439-0.2-1.839-0.496-1.839s-0.496,0.399-0.496,1.839v0.288c0,1.439,0.2,1.839,0.496,1.839
		S88.077,391.521,88.077,390.082z M73.218,394.14h0.912c1.248,0,1.959,0.903,1.959,2.702v0.192c0,1.799-0.711,2.702-1.959,2.702
		h-0.912V394.14z M74.233,398.841c0.464,0,0.863-0.408,0.863-1.807v-0.192c0-1.399-0.399-1.807-0.863-1.807h-0.04v3.806H74.233z
		 M76.57,394.14h2.143v0.927h-1.167v1.391h1.031v0.928h-1.031v1.423h1.191v0.928H76.57V394.14z M79.034,397.034v-0.192
		c0-1.967,0.728-2.742,1.639-2.742c0.272,0,0.432,0.032,0.64,0.128v1.007c-0.2-0.12-0.36-0.184-0.543-0.184
		c-0.432,0-0.744,0.384-0.744,1.783v0.208c0,1.479,0.312,1.783,0.76,1.783c0.152,0,0.344-0.057,0.543-0.176v0.959
		c-0.224,0.128-0.44,0.168-0.72,0.168C79.713,399.776,79.034,398.984,79.034,397.034z M81.818,394.14h0.976v2.343l0.792-2.343h1.104
		l-0.943,2.366l0.959,3.23h-1.087l-0.608-2.119l-0.216,0.616v1.503h-0.976L81.818,394.14L81.818,394.14z M71.762,401.14h0.848
		c0.943,0,1.823,0.384,1.823,1.423v0.04c0,0.72-0.408,1.071-0.808,1.264c0.472,0.208,0.879,0.535,0.879,1.247v0.072
		c0,0.991-0.768,1.551-1.855,1.551h-0.888v-5.597H71.762z M72.753,403.49c0.432,0,0.72-0.248,0.72-0.735v-0.017
		c0-0.487-0.288-0.695-0.72-0.695h-0.016v1.447H72.753z M72.761,405.833c0.448,0,0.768-0.264,0.768-0.728v-0.04
		c0-0.464-0.32-0.728-0.768-0.728h-0.024v1.495h0.024V405.833z M74.914,401.14h2.143v0.928H75.89v1.391h1.031v0.928H75.89v1.423
		h1.191v0.928h-2.167V401.14z M77.554,401.14h0.976v4.669h1.031v0.928h-2.007V401.14z M79.658,404.082v-0.288
		c0-1.847,0.6-2.734,1.487-2.734s1.487,0.888,1.487,2.734v0.288c0,1.847-0.6,2.734-1.487,2.734S79.658,405.929,79.658,404.082z
		 M81.641,404.082v-0.288c0-1.439-0.2-1.839-0.496-1.839s-0.496,0.399-0.496,1.839v0.288c0,1.438,0.2,1.839,0.496,1.839
		S81.641,405.52,81.641,404.082z M82.77,401.14h1l0.407,3.43l0.488-3.43h0.903l0.479,3.43l0.416-3.43h0.976l-0.848,5.612h-1.023
		l-0.464-3.317l-0.464,3.317h-1.023L82.77,401.14z"/>
	<path class="st4" d="M81.491,341.718h1.007c1,0,1.727,0.528,1.727,1.783v0.072c0,0.728-0.288,1.191-0.655,1.471l0.751,2.271h-1.039
		l-0.632-1.951h-0.184v1.951h-0.975V341.718z M82.515,344.484c0.424,0,0.735-0.248,0.735-0.903v-0.064
		c0-0.704-0.336-0.888-0.759-0.888h-0.024v1.855H82.515z M84.675,341.718h1.008c0.999,0,1.727,0.528,1.727,1.783v0.072
		c0,0.728-0.287,1.191-0.655,1.471l0.752,2.271h-1.04l-0.632-1.951H85.65v1.951h-0.976L84.675,341.718L84.675,341.718z
		 M85.698,344.484c0.424,0,0.735-0.248,0.735-0.903v-0.064c0-0.704-0.335-0.888-0.759-0.888H85.65v1.855H85.698z"/>
	<path class="st4" d="M81.491,331.543h1.007c1,0,1.727,0.528,1.727,1.783v0.072c0,0.728-0.288,1.191-0.655,1.471l0.751,2.271h-1.039
		l-0.632-1.951h-0.184v1.951h-0.975V331.543z M82.515,334.31c0.424,0,0.735-0.248,0.735-0.903v-0.064
		c0-0.704-0.336-0.888-0.759-0.888h-0.024v1.855H82.515z M84.675,331.543h1.008c0.999,0,1.727,0.528,1.727,1.783v0.072
		c0,0.728-0.287,1.191-0.655,1.471l0.752,2.271h-1.04l-0.632-1.951H85.65v1.951h-0.976L84.675,331.543L84.675,331.543z
		 M85.698,334.31c0.424,0,0.735-0.248,0.735-0.903v-0.064c0-0.704-0.335-0.888-0.759-0.888H85.65v1.855H85.698z"/>
	<path class="st4" d="M38.332,239.052v-1.007c0-1,0.528-1.727,1.783-1.727h0.072c0.728,0,1.191,0.288,1.471,0.656l2.271-0.752v1.04
		l-1.951,0.632v0.184h1.951v0.975h-5.597V239.052z M41.099,238.029c0-0.424-0.248-0.735-0.903-0.735h-0.064
		c-0.704,0-0.888,0.335-0.888,0.759v0.024h1.855V238.029z M38.332,235.868v-1.007c0-1,0.528-1.727,1.783-1.727h0.072
		c0.728,0,1.191,0.288,1.471,0.656l2.271-0.751v1.039l-1.951,0.632v0.184h1.951v0.975h-5.597V235.868z M41.099,234.845
		c0-0.423-0.248-0.735-0.903-0.735h-0.064c-0.704,0-0.888,0.336-0.888,0.76v0.024h1.855V234.845z"/>
	<path class="st4" d="M83.942,238.668v-1.007c0-1,0.527-1.727,1.782-1.727h0.072c0.728,0,1.191,0.288,1.472,0.656l2.271-0.752v1.04
		l-1.951,0.632v0.184h1.951v0.975h-5.597V238.668z M86.709,237.645c0-0.424-0.248-0.735-0.904-0.735h-0.063
		c-0.704,0-0.888,0.335-0.888,0.759v0.024h1.855V237.645z M83.942,235.484v-1.007c0-1,0.527-1.727,1.782-1.727h0.072
		c0.728,0,1.191,0.288,1.472,0.656l2.271-0.751v1.039l-1.951,0.632v0.184h1.951v0.975h-5.597V235.484z M86.709,234.461
		c0-0.423-0.248-0.735-0.904-0.735h-0.063c-0.704,0-0.888,0.336-0.888,0.76v0.024h1.855V234.461z"/>
	<path class="st4" d="M51.676,362.153v-1.016c0.344,0.2,0.616,0.312,0.879,0.312c0.28,0,0.52-0.136,0.52-0.479v-0.016
		c0-0.256-0.08-0.448-0.543-0.976c-0.664-0.751-0.936-1.111-0.936-1.791v-0.016c0-0.896,0.583-1.463,1.359-1.463
		c0.392,0,0.624,0.056,0.863,0.176v1.016c-0.304-0.176-0.488-0.256-0.744-0.256c-0.271,0-0.503,0.176-0.503,0.479v0.016
		c0,0.264,0.08,0.36,0.543,0.896c0.768,0.887,0.936,1.231,0.936,1.871v0.016c0,0.879-0.616,1.463-1.383,1.463
		C52.284,362.385,51.956,362.289,51.676,362.153z M54.38,360.714v-3.966h0.968v4.062c0,0.504,0.176,0.704,0.424,0.704
		s0.424-0.2,0.424-0.704v-4.062h0.967v3.966c0,1.175-0.592,1.703-1.391,1.703C54.972,362.416,54.38,361.889,54.38,360.714z
		 M57.604,362.153v-1.016c0.344,0.2,0.616,0.312,0.879,0.312c0.28,0,0.52-0.136,0.52-0.479v-0.016c0-0.256-0.08-0.448-0.544-0.976
		c-0.664-0.751-0.936-1.111-0.936-1.791v-0.016c0-0.896,0.584-1.463,1.359-1.463c0.392,0,0.624,0.056,0.864,0.176v1.016
		c-0.304-0.176-0.488-0.256-0.744-0.256c-0.272,0-0.504,0.176-0.504,0.479v0.016c0,0.264,0.08,0.36,0.544,0.896
		c0.768,0.887,0.935,1.231,0.935,1.871v0.016c0,0.879-0.615,1.463-1.383,1.463C58.212,362.385,57.884,362.289,57.604,362.153z
		 M60.324,356.748h0.975v2.318h0.848v-2.318h0.976v5.597h-0.976v-2.351h-0.848v2.351h-0.975V356.748z M63.716,356.748h0.976v5.597
		h-0.976V356.748z M66.556,356.748h0.848c0.943,0,1.823,0.384,1.823,1.423v0.04c0,0.72-0.408,1.071-0.808,1.263
		c0.472,0.208,0.879,0.536,0.879,1.248v0.072c0,0.992-0.768,1.551-1.855,1.551h-0.888v-5.597H66.556z M67.547,359.099
		c0.432,0,0.72-0.248,0.72-0.736v-0.016c0-0.487-0.288-0.695-0.72-0.695h-0.016v1.447H67.547z M67.555,361.441
		c0.448,0,0.768-0.264,0.768-0.728v-0.04c0-0.464-0.32-0.728-0.768-0.728h-0.024v1.495h0.024V361.441z M70.452,356.732h1.04
		l1.063,5.613H71.58l-0.184-1.111h-0.888l-0.176,1.111h-0.943L70.452,356.732z M71.251,360.354l-0.296-1.847l-0.304,1.847H71.251z
		 M72.852,356.748h1.007c1,0,1.727,0.527,1.727,1.783v0.072c0,0.728-0.288,1.191-0.656,1.472l0.752,2.271h-1.04l-0.632-1.951h-0.184
		v1.951h-0.975v-5.598H72.852z M73.876,359.514c0.424,0,0.735-0.248,0.735-0.903v-0.064c0-0.704-0.335-0.888-0.759-0.888h-0.024
		v1.855H73.876z"/>
	<path class="st4" d="M78.031,370.897v-1.016c0.344,0.2,0.616,0.312,0.88,0.312c0.28,0,0.52-0.136,0.52-0.48v-0.016
		c0-0.256-0.08-0.448-0.543-0.976c-0.664-0.751-0.936-1.111-0.936-1.791v-0.016c0-0.896,0.583-1.463,1.359-1.463
		c0.392,0,0.624,0.056,0.864,0.176v1.015c-0.304-0.176-0.488-0.256-0.744-0.256c-0.272,0-0.504,0.176-0.504,0.48v0.016
		c0,0.264,0.08,0.36,0.544,0.896c0.768,0.887,0.936,1.231,0.936,1.871v0.016c0,0.88-0.616,1.463-1.383,1.463
		C78.639,371.129,78.312,371.033,78.031,370.897z M81.535,365.477h1.039l1.063,5.613h-0.976l-0.184-1.111h-0.888l-0.176,1.111H80.47
		L81.535,365.477z M82.335,369.099l-0.296-1.847l-0.304,1.847H82.335z M83.936,365.492h0.976v2.343l0.791-2.343h1.104l-0.943,2.367
		l0.96,3.23h-1.088l-0.607-2.119l-0.216,0.615v1.503h-0.976L83.936,365.492L83.936,365.492z M87.159,365.492h2.143v0.928h-1.167
		v1.391h1.031v0.928h-1.031v1.423h1.191v0.927h-2.167V365.492z M79.235,372.492h0.848c0.943,0,1.823,0.384,1.823,1.423v0.04
		c0,0.72-0.408,1.071-0.808,1.263c0.472,0.208,0.88,0.536,0.88,1.248v0.072c0,0.992-0.768,1.551-1.855,1.551h-0.888
		C79.235,378.089,79.235,372.492,79.235,372.492z M80.227,374.843c0.432,0,0.72-0.248,0.72-0.736v-0.016
		c0-0.488-0.288-0.696-0.72-0.696h-0.016v1.447h0.016V374.843z M80.235,377.186c0.448,0,0.768-0.264,0.768-0.728v-0.04
		c0-0.464-0.32-0.728-0.768-0.728h-0.024v1.496H80.235z M83.131,372.477h1.039l1.063,5.613h-0.975l-0.185-1.111h-0.887l-0.176,1.111
		h-0.944L83.131,372.477z M83.931,376.099l-0.296-1.847l-0.304,1.847H83.931z M85.531,372.492h1.008
		c0.999,0,1.727,0.528,1.727,1.783v0.072c0,0.728-0.287,1.191-0.655,1.471l0.751,2.271h-1.039l-0.632-1.951h-0.184v1.951h-0.976
		V372.492z M86.555,375.259c0.424,0,0.735-0.248,0.735-0.903v-0.064c0-0.704-0.335-0.888-0.759-0.888h-0.024v1.855H86.555z"/>
	<path class="st4" d="M25.837,424.989h-0.688v-0.927H27.5v0.927h-0.688v4.67h-0.976L25.837,424.989L25.837,424.989z M27.909,424.062
		h2.143v0.927h-1.167v1.392h1.031v0.928h-1.031v1.423h1.191v0.928h-2.167V424.062z M30.549,424.062h0.872
		c1.063,0,1.807,0.575,1.807,1.887v0.016c0,1.264-0.704,1.863-1.695,1.936h-0.008v1.759h-0.976
		C30.549,429.66,30.549,424.062,30.549,424.062z M31.532,426.997c0.408-0.024,0.72-0.32,0.72-1v-0.016
		c0-0.712-0.271-1.016-0.695-1.016h-0.032v2.031L31.532,426.997L31.532,426.997z M33.629,424.062h0.872
		c1.063,0,1.807,0.575,1.807,1.887v0.016c0,1.264-0.704,1.863-1.695,1.936h-0.008v1.759h-0.976V424.062z M34.612,426.997
		c0.408-0.024,0.72-0.32,0.72-1v-0.016c0-0.712-0.272-1.016-0.696-1.016h-0.032v2.031L34.612,426.997L34.612,426.997z
		 M37.212,424.046h1.04l1.063,5.613H38.34l-0.184-1.111h-0.888l-0.176,1.111h-0.943L37.212,424.046z M38.012,427.668l-0.296-1.847
		l-0.304,1.847H38.012z M39.613,424.062h0.912l0.983,2.83v-2.83h0.952v5.597h-0.864l-1.031-2.967v2.967h-0.952
		C39.613,429.659,39.613,424.062,39.613,424.062z M43.789,427.452l-1.04-3.39h1.007l0.528,2.095l0.536-2.095h0.983l-1.039,3.39
		v2.207h-0.976v-2.207H43.789z M46.557,424.046h1.039l1.063,5.613h-0.976l-0.184-1.111h-0.888l-0.176,1.111h-0.943L46.557,424.046z
		 M47.356,427.668l-0.296-1.847l-0.304,1.847H47.356z M48.957,424.062h0.975v2.343l0.792-2.343h1.104l-0.943,2.366l0.959,3.23
		h-1.087l-0.607-2.119l-0.216,0.616v1.503h-0.975v-5.596H48.957z M52.197,424.062h0.976v5.597h-0.976V424.062z"/>
	<path class="st4" d="M46.004,587.02v-0.192c0-1.807,0.768-2.742,1.871-2.742c0.296,0,0.543,0.063,0.743,0.16v1.015
		c-0.24-0.144-0.456-0.239-0.711-0.239c-0.56,0-0.912,0.56-0.912,1.767v0.272c0,1.463,0.432,1.799,0.832,1.799
		c0.032,0,0.04,0,0.088-0.008v-1.432h-0.48v-0.871h1.367v2.974c-0.352,0.152-0.64,0.24-1.015,0.24
		C46.812,589.763,46.004,588.971,46.004,587.02z M49.34,584.126h1.007c1,0,1.727,0.527,1.727,1.783v0.071
		c0,0.728-0.288,1.191-0.656,1.472l0.752,2.271h-1.04l-0.632-1.951h-0.184v1.951H49.34V584.126z M50.363,586.893
		c0.424,0,0.735-0.248,0.735-0.904v-0.063c0-0.704-0.335-0.888-0.759-0.888h-0.024v1.855H50.363z M53.307,584.109h1.04l1.063,5.613
		h-0.976l-0.184-1.111h-0.888l-0.176,1.111h-0.943L53.307,584.109z M54.107,587.731l-0.296-1.847l-0.304,1.847H54.107z
		 M55.708,584.126h0.912l0.983,2.83v-2.83h0.952v5.597H57.69l-1.031-2.967v2.967h-0.952L55.708,584.126L55.708,584.126z
		 M59.132,584.126h0.911c1.248,0,1.959,0.903,1.959,2.702v0.192c0,1.799-0.711,2.702-1.959,2.702h-0.911V584.126z M60.147,588.827
		c0.464,0,0.864-0.408,0.864-1.807v-0.192c0-1.399-0.4-1.807-0.864-1.807h-0.04v3.806H60.147z M64.539,584.109h1.04l1.063,5.613
		h-0.976l-0.184-1.111h-0.887l-0.176,1.111h-0.943L64.539,584.109z M65.339,587.731l-0.296-1.847l-0.304,1.847H65.339z
		 M67.219,585.054h-0.688v-0.928h2.351v0.928h-0.688v4.669h-0.976v-4.669H67.219z M69.292,584.126h1.007
		c1,0,1.727,0.527,1.727,1.783v0.071c0,0.728-0.288,1.191-0.656,1.472l0.752,2.271h-1.04l-0.632-1.951h-0.184v1.951H69.29v-5.597
		H69.292z M70.315,586.893c0.424,0,0.735-0.248,0.735-0.904v-0.063c0-0.704-0.335-0.888-0.759-0.888h-0.024v1.855H70.315z
		 M72.491,584.126h0.976v5.597h-0.976V584.126z M74.043,588.092v-3.966h0.967v4.062c0,0.504,0.176,0.704,0.424,0.704
		s0.424-0.2,0.424-0.704v-4.062h0.967v3.966c0,1.175-0.591,1.703-1.391,1.703C74.635,589.795,74.043,589.267,74.043,588.092z
		 M77.387,584.126h0.967l0.688,2.047l0.688-2.047h0.967v5.597h-0.936v-3.382l-0.711,2.118h-0.016l-0.711-2.118v3.382h-0.936
		L77.387,584.126L77.387,584.126z"/>
	<path class="st4" d="M23.722,655.259h-0.688v-0.928h2.351v0.928h-0.688v4.669h-0.976L23.722,655.259L23.722,655.259z
		 M25.794,654.331h0.976v2.318h0.847v-2.318h0.976v5.597h-0.976v-2.351H26.77v2.351h-0.976V654.331z M29.17,654.331h2.143v0.928
		h-1.167v1.391h1.031v0.928h-1.031V659h1.191v0.928H29.17V654.331z M18.518,664.226v-0.192c0-1.967,0.728-2.742,1.639-2.742
		c0.272,0,0.432,0.032,0.64,0.128v1.007c-0.2-0.119-0.36-0.184-0.544-0.184c-0.432,0-0.743,0.384-0.743,1.783v0.208
		c0,1.479,0.312,1.783,0.759,1.783c0.152,0,0.344-0.057,0.544-0.176v0.959c-0.224,0.128-0.44,0.168-0.72,0.168
		C19.198,666.968,18.518,666.176,18.518,664.226z M21.302,661.331h2.143v0.928h-1.167v1.391h1.032v0.928h-1.032V666h1.191v0.928
		h-2.167V661.331z M23.942,661.331h0.976V666h1.031v0.928h-2.007V661.331z M26.342,661.331h0.976V666h1.031v0.928h-2.007V661.331z
		 M29.485,661.314h1.04l1.063,5.613h-0.976l-0.184-1.111h-0.887l-0.176,1.111h-0.943L29.485,661.314z M30.285,664.936l-0.296-1.847
		l-0.304,1.847H30.285z M31.886,661.331h1.007c1,0,1.727,0.527,1.727,1.783v0.071c0,0.728-0.288,1.191-0.655,1.472l0.751,2.271
		h-1.04l-0.632-1.951H32.86v1.951h-0.976v-5.597H31.886z M32.909,664.098c0.424,0,0.735-0.248,0.735-0.904v-0.063
		c0-0.704-0.335-0.888-0.759-0.888h-0.024v1.855H32.909z M34.95,666.735v-1.015c0.344,0.199,0.616,0.312,0.879,0.312
		c0.28,0,0.52-0.136,0.52-0.479v-0.017c0-0.256-0.08-0.447-0.544-0.975c-0.664-0.752-0.936-1.112-0.936-1.791v-0.017
		c0-0.896,0.584-1.463,1.359-1.463c0.392,0,0.624,0.056,0.864,0.176v1.016c-0.304-0.176-0.488-0.256-0.744-0.256
		c-0.272,0-0.504,0.176-0.504,0.479v0.016c0,0.265,0.08,0.36,0.544,0.896c0.768,0.888,0.935,1.231,0.935,1.871v0.017
		c0,0.879-0.615,1.463-1.383,1.463C35.558,666.968,35.23,666.872,34.95,666.735z M15.674,668.331h1l0.408,3.43l0.488-3.43h0.903
		l0.479,3.43l0.416-3.43h0.976l-0.848,5.612h-1.023l-0.464-3.317l-0.464,3.317h-1.023L15.674,668.331z M20.69,668.331h0.976v5.597
		H20.69V668.331z M22.258,668.331h0.912l0.983,2.83v-2.83h0.952v5.597h-0.864l-1.031-2.967v2.967h-0.952V668.331z M25.682,668.331
		h2.143v0.928h-1.167v1.391h1.032v0.928h-1.032V673h1.191v0.928h-2.167V668.331z M29.594,668.331h0.848
		c0.943,0,1.823,0.384,1.823,1.423v0.04c0,0.72-0.408,1.071-0.808,1.264c0.472,0.208,0.88,0.535,0.88,1.247v0.072
		c0,0.991-0.768,1.551-1.855,1.551h-0.888C29.594,673.928,29.594,668.331,29.594,668.331z M30.585,670.682
		c0.432,0,0.72-0.248,0.72-0.735v-0.017c0-0.487-0.288-0.695-0.72-0.695h-0.016v1.447H30.585z M30.593,673.024
		c0.448,0,0.768-0.264,0.768-0.728v-0.04c0-0.464-0.32-0.728-0.768-0.728h-0.024v1.495h0.024V673.024z M33.489,668.314h1.04
		l1.063,5.613h-0.976l-0.184-1.111h-0.887l-0.176,1.111h-0.944L33.489,668.314z M34.289,671.936l-0.296-1.847l-0.304,1.847H34.289z
		 M35.89,668.331h1.008c0.999,0,1.727,0.527,1.727,1.783v0.071c0,0.728-0.288,1.191-0.655,1.472l0.751,2.271h-1.04l-0.631-1.951
		h-0.184v1.951H35.89V668.331z M36.913,671.098c0.424,0,0.736-0.248,0.736-0.904v-0.063c0-0.704-0.336-0.888-0.76-0.888h-0.024
		v1.855H36.913z"/>
	<path class="st4" d="M92.671,659.664h0.872c1.063,0,1.807,0.575,1.807,1.887v0.016c0,1.264-0.703,1.863-1.695,1.936h-0.008v1.759
		h-0.976V659.664z M93.654,662.599c0.408-0.024,0.72-0.32,0.72-1v-0.016c0-0.712-0.271-1.016-0.695-1.016h-0.032v2.031
		L93.654,662.599L93.654,662.599z M95.751,659.664h0.976v2.318h0.848v-2.318h0.976v5.597h-0.976v-2.351h-0.848v2.351h-0.976V659.664
		z M99.031,662.606v-0.288c0-1.847,0.6-2.734,1.487-2.734s1.487,0.888,1.487,2.734v0.288c0,1.847-0.6,2.734-1.487,2.734
		S99.031,664.453,99.031,662.606z M101.014,662.606v-0.288c0-1.439-0.199-1.839-0.495-1.839s-0.496,0.399-0.496,1.839v0.288
		c0,1.439,0.2,1.839,0.496,1.839S101.014,664.046,101.014,662.606z M102.847,660.591h-0.688v-0.927h2.351v0.927h-0.688v4.67h-0.976
		v-4.67H102.847z M104.663,662.606v-0.288c0-1.847,0.6-2.734,1.487-2.734s1.487,0.888,1.487,2.734v0.288
		c0,1.847-0.6,2.734-1.487,2.734S104.663,664.453,104.663,662.606z M106.647,662.606v-0.288c0-1.439-0.2-1.839-0.496-1.839
		s-0.496,0.399-0.496,1.839v0.288c0,1.439,0.2,1.839,0.496,1.839S106.647,664.046,106.647,662.606z M89.691,669.559v-0.192
		c0-1.807,0.768-2.742,1.871-2.742c0.296,0,0.544,0.063,0.743,0.16v1.015c-0.239-0.144-0.455-0.239-0.711-0.239
		c-0.56,0-0.912,0.56-0.912,1.767v0.272c0,1.463,0.433,1.799,0.832,1.799c0.032,0,0.04,0,0.088-0.008v-1.432h-0.479v-0.871h1.367
		v2.974c-0.352,0.152-0.64,0.24-1.016,0.24C90.499,672.301,89.691,671.509,89.691,669.559z M93.811,666.647h1.04l1.063,5.613h-0.976
		l-0.184-1.111h-0.888l-0.176,1.111h-0.943L93.811,666.647z M94.61,670.269l-0.296-1.847l-0.304,1.847H94.61z M96.211,666.664h0.976
		v4.669h1.032v0.928h-2.008C96.211,672.261,96.211,666.664,96.211,666.664z M98.611,666.664h0.976v4.669h1.031v0.928h-2.007
		C98.611,672.261,98.611,666.664,98.611,666.664z M101.012,666.664h2.143v0.927h-1.168v1.392h1.032v0.928h-1.032v1.423h1.191v0.928
		h-2.166V666.664z M103.651,666.664h1.007c1,0,1.728,0.527,1.728,1.783v0.071c0,0.728-0.288,1.191-0.655,1.472l0.751,2.271h-1.039
		l-0.632-1.951h-0.184v1.951h-0.976V666.664z M104.675,669.431c0.424,0,0.735-0.248,0.735-0.904v-0.063
		c0-0.704-0.336-0.888-0.76-0.888h-0.023v1.855H104.675z M107.427,670.054l-1.039-3.39h1.007l0.528,2.095l0.535-2.095h0.983
		l-1.039,3.39v2.207h-0.976L107.427,670.054L107.427,670.054z"/>
	<path class="st4" d="M40.288,773.76h0.848c0.943,0,1.823,0.384,1.823,1.423v0.04c0,0.72-0.408,1.071-0.808,1.264
		c0.472,0.208,0.88,0.535,0.88,1.247v0.072c0,0.991-0.768,1.551-1.855,1.551h-0.887v-5.597H40.288z M41.279,776.11
		c0.432,0,0.72-0.248,0.72-0.735v-0.017c0-0.487-0.288-0.695-0.72-0.695h-0.016v1.447H41.279z M41.287,778.453
		c0.448,0,0.768-0.264,0.768-0.728v-0.04c0-0.464-0.32-0.728-0.768-0.728h-0.024v1.495h0.024V778.453z M43.439,773.76h0.976v4.669
		h1.031v0.928h-2.007V773.76z M45.855,773.76h0.976v5.597h-0.976V773.76z M47.304,779.165v-1.016
		c0.344,0.199,0.615,0.312,0.879,0.312c0.28,0,0.52-0.136,0.52-0.479v-0.017c0-0.256-0.08-0.447-0.543-0.976
		c-0.664-0.751-0.936-1.111-0.936-1.791v-0.016c0-0.896,0.583-1.463,1.359-1.463c0.392,0,0.624,0.056,0.863,0.176v1.016
		c-0.304-0.176-0.488-0.256-0.744-0.256c-0.272,0-0.503,0.176-0.503,0.479v0.016c0,0.265,0.08,0.36,0.543,0.896
		c0.768,0.888,0.936,1.231,0.936,1.871v0.017c0,0.879-0.616,1.463-1.383,1.463C47.911,779.396,47.584,779.301,47.304,779.165z
		 M49.903,779.165v-1.016c0.344,0.199,0.616,0.312,0.88,0.312c0.28,0,0.52-0.136,0.52-0.479v-0.017c0-0.256-0.08-0.447-0.544-0.976
		c-0.664-0.751-0.936-1.111-0.936-1.791v-0.016c0-0.896,0.584-1.463,1.359-1.463c0.392,0,0.624,0.056,0.864,0.176v1.016
		c-0.304-0.176-0.488-0.256-0.744-0.256c-0.272,0-0.504,0.176-0.504,0.479v0.016c0,0.265,0.08,0.36,0.544,0.896
		c0.768,0.888,0.936,1.231,0.936,1.871v0.017c0,0.879-0.616,1.463-1.383,1.463C50.511,779.396,50.183,779.301,49.903,779.165z
		 M53.879,777.726v-3.966h0.967v4.062c0,0.504,0.176,0.703,0.424,0.703s0.424-0.199,0.424-0.703v-4.062h0.967v3.966
		c0,1.175-0.591,1.703-1.391,1.703C54.471,779.429,53.879,778.9,53.879,777.726z M57.223,773.76h0.976v4.669h1.031v0.928h-2.007
		V773.76z M59.863,774.686h-0.688v-0.927h2.351v0.927h-0.688v4.67h-0.976L59.863,774.686L59.863,774.686z M61.935,773.76h1.007
		c1,0,1.727,0.527,1.727,1.783v0.071c0,0.728-0.288,1.191-0.655,1.472l0.751,2.271h-1.04l-0.631-1.951H62.91v1.951h-0.976v-5.597
		H61.935z M62.959,776.526c0.424,0,0.736-0.248,0.736-0.904v-0.063c0-0.704-0.336-0.888-0.76-0.888h-0.024v1.855H62.959z
		 M65.903,773.743h1.039l1.063,5.613H67.03l-0.184-1.111h-0.888l-0.176,1.111h-0.943L65.903,773.743z M66.702,777.365l-0.296-1.847
		l-0.304,1.847H66.702z M69.575,773.76h0.975v4.669h1.032v0.928h-2.007V773.76z M71.679,776.702v-0.288
		c0-1.847,0.6-2.734,1.487-2.734c0.888,0,1.487,0.888,1.487,2.734v0.288c0,1.847-0.6,2.734-1.487,2.734
		C72.279,779.436,71.679,778.549,71.679,776.702z M73.662,776.702v-0.288c0-1.439-0.2-1.839-0.496-1.839s-0.496,0.399-0.496,1.839
		v0.288c0,1.439,0.2,1.839,0.496,1.839S73.662,778.142,73.662,776.702z M75.119,777.726v-3.966h0.967v4.062
		c0,0.504,0.176,0.703,0.424,0.703s0.424-0.199,0.424-0.703v-4.062h0.967v3.966c0,1.175-0.592,1.703-1.391,1.703
		C75.71,779.429,75.119,778.9,75.119,777.726z M78.463,773.76h0.912l0.983,2.83v-2.83h0.951v5.597h-0.863l-1.032-2.967v2.967h-0.951
		C78.463,779.357,78.463,773.76,78.463,773.76z M81.791,776.654v-0.192c0-1.807,0.768-2.742,1.871-2.742
		c0.296,0,0.543,0.063,0.743,0.16v1.015c-0.239-0.144-0.456-0.239-0.712-0.239c-0.559,0-0.911,0.56-0.911,1.767v0.272
		c0,1.463,0.432,1.799,0.832,1.799c0.031,0,0.04,0,0.088-0.008v-1.432h-0.48v-0.871h1.367v2.974c-0.352,0.152-0.64,0.24-1.015,0.24
		C82.599,779.396,81.791,778.604,81.791,776.654z M85.127,773.76h2.143v0.927h-1.167v1.392h1.031v0.928h-1.031v1.423h1.191v0.928
		h-2.167V773.76z"/>
	<path class="st4" d="M31.202,378.73h0.848c0.943,0,1.823,0.384,1.823,1.423v0.04c0,0.72-0.408,1.071-0.808,1.263
		c0.472,0.208,0.879,0.536,0.879,1.248v0.072c0,0.992-0.768,1.551-1.855,1.551h-0.888L31.202,378.73L31.202,378.73z M32.194,381.081
		c0.432,0,0.719-0.248,0.719-0.736v-0.016c0-0.488-0.288-0.696-0.719-0.696h-0.016v1.447h0.016V381.081z M32.202,383.424
		c0.448,0,0.768-0.264,0.768-0.728v-0.04c0-0.464-0.32-0.728-0.768-0.728h-0.024v1.496H32.202z M35.098,378.715h1.04l1.063,5.613
		h-0.976l-0.184-1.111h-0.888l-0.176,1.111h-0.943L35.098,378.715z M35.897,382.337l-0.296-1.847l-0.304,1.847H35.897z
		 M37.498,378.73h0.968l0.688,2.047l0.688-2.047h0.968v5.597h-0.936v-3.382l-0.712,2.119h-0.016l-0.712-2.119v3.382h-0.936
		C37.498,384.327,37.498,378.73,37.498,378.73z M41.386,378.73h0.848c0.943,0,1.823,0.384,1.823,1.423v0.04
		c0,0.72-0.408,1.071-0.808,1.263c0.472,0.208,0.88,0.536,0.88,1.248v0.072c0,0.992-0.768,1.551-1.855,1.551h-0.888V378.73z
		 M42.378,381.081c0.432,0,0.719-0.248,0.719-0.736v-0.016c0-0.488-0.288-0.696-0.719-0.696h-0.016v1.447h0.016V381.081z
		 M42.386,383.424c0.448,0,0.768-0.264,0.768-0.728v-0.04c0-0.464-0.32-0.728-0.768-0.728h-0.024v1.496H42.386z M44.442,381.673
		v-0.288c0-1.847,0.6-2.734,1.487-2.734s1.487,0.887,1.487,2.734v0.288c0,1.847-0.6,2.735-1.487,2.735S44.442,383.52,44.442,381.673
		z M46.425,381.673v-0.288c0-1.439-0.2-1.839-0.496-1.839c-0.296,0-0.496,0.4-0.496,1.839v0.288c0,1.439,0.2,1.839,0.496,1.839
		S46.425,383.112,46.425,381.673z M47.802,381.673v-0.288c0-1.847,0.6-2.734,1.487-2.734s1.487,0.887,1.487,2.734v0.288
		c0,1.847-0.6,2.735-1.487,2.735C48.402,384.408,47.802,383.52,47.802,381.673z M49.785,381.673v-0.288
		c0-1.439-0.2-1.839-0.496-1.839s-0.496,0.4-0.496,1.839v0.288c0,1.439,0.2,1.839,0.496,1.839S49.785,383.112,49.785,381.673z
		 M35.026,385.715h1.04l1.063,5.613h-0.976l-0.184-1.111h-0.887l-0.176,1.111h-0.943L35.026,385.715z M35.825,389.337l-0.295-1.847
		l-0.304,1.847H35.825z M37.306,391.136v-1.016c0.344,0.2,0.616,0.312,0.88,0.312c0.28,0,0.52-0.136,0.52-0.48v-0.016
		c0-0.256-0.08-0.448-0.543-0.976c-0.664-0.751-0.936-1.111-0.936-1.791v-0.016c0-0.896,0.583-1.463,1.359-1.463
		c0.392,0,0.624,0.056,0.864,0.176v1.015c-0.304-0.176-0.488-0.256-0.744-0.256c-0.272,0-0.504,0.176-0.504,0.48v0.016
		c0,0.264,0.08,0.36,0.544,0.896c0.768,0.887,0.936,1.231,0.936,1.871v0.016c0,0.88-0.616,1.463-1.383,1.463
		C37.914,391.368,37.586,391.271,37.306,391.136z M40.042,385.73h0.976v5.597h-0.976V385.73z M42.394,385.715h1.04l1.063,5.613
		h-0.976l-0.184-1.111H42.45l-0.176,1.111h-0.943L42.394,385.715z M43.193,389.337l-0.296-1.847l-0.304,1.847H43.193z
		 M44.794,385.73h0.912l0.983,2.831v-2.831h0.952v5.597h-0.863l-1.032-2.966v2.966h-0.952V385.73z M25.838,392.73h1.007
		c1,0,1.728,0.528,1.728,1.783v0.072c0,0.728-0.288,1.191-0.656,1.471l0.751,2.271h-1.04l-0.631-1.95h-0.184v1.95h-0.976v-5.597
		H25.838z M26.862,395.497c0.424,0,0.736-0.248,0.736-0.903v-0.064c0-0.704-0.336-0.888-0.76-0.888h-0.024v1.855H26.862z
		 M29.022,392.73h2.143v0.928h-1.167v1.391h1.031v0.927h-1.031v1.424h1.191v0.927h-2.167V392.73z M31.543,398.136v-1.016
		c0.344,0.2,0.616,0.312,0.879,0.312c0.28,0,0.52-0.137,0.52-0.48v-0.016c0-0.256-0.08-0.448-0.543-0.976
		c-0.664-0.751-0.936-1.111-0.936-1.791v-0.016c0-0.896,0.583-1.463,1.359-1.463c0.392,0,0.624,0.056,0.863,0.176v1.015
		c-0.304-0.176-0.488-0.256-0.744-0.256c-0.271,0-0.503,0.176-0.503,0.48v0.016c0,0.264,0.08,0.36,0.543,0.896
		c0.768,0.888,0.936,1.231,0.936,1.871v0.016c0,0.88-0.616,1.463-1.383,1.463C32.15,398.367,31.822,398.271,31.543,398.136z
		 M34.662,393.658h-0.688v-0.928h2.351v0.928h-0.688v4.669h-0.976L34.662,393.658L34.662,393.658z M37.278,392.715h1.04l1.063,5.612
		h-0.976l-0.184-1.111h-0.887l-0.176,1.111h-0.943L37.278,392.715z M38.077,396.337l-0.295-1.847l-0.304,1.847H38.077z
		 M39.622,396.696v-3.966h0.968v4.062c0,0.504,0.176,0.704,0.424,0.704s0.424-0.2,0.424-0.704v-4.062h0.967v3.966
		c0,1.176-0.592,1.703-1.391,1.703C40.214,398.399,39.622,397.872,39.622,396.696z M42.966,392.73h1.007
		c1,0,1.727,0.528,1.727,1.783v0.072c0,0.728-0.288,1.191-0.656,1.471l0.752,2.271h-1.04l-0.632-1.95H43.94v1.95h-0.975
		L42.966,392.73L42.966,392.73z M43.99,395.497c0.424,0,0.735-0.248,0.735-0.903v-0.064c0-0.704-0.335-0.888-0.759-0.888h-0.024
		v1.855H43.99z M46.934,392.715h1.04l1.063,5.612h-0.976l-0.184-1.111H46.99l-0.176,1.111H45.87L46.934,392.715z M47.733,396.337
		l-0.296-1.847l-0.304,1.847H47.733z M49.334,392.73h0.912l0.983,2.831v-2.831h0.952v5.597h-0.864l-1.031-2.966v2.966h-0.952
		C49.334,398.327,49.334,392.73,49.334,392.73z M53.278,393.658H52.59v-0.928h2.351v0.928h-0.688v4.669h-0.976L53.278,393.658
		L53.278,393.658z"/>
	<path class="st4" d="M8.576,505.108v0.688H7.648v-2.352h0.928v0.688h4.669v0.976H8.576z M7.648,503.036v-0.976h2.319v-0.848H7.648
		v-0.976h5.597v0.976h-2.351v0.848h2.351v0.976H7.648z M7.648,499.66v-2.144h0.928v1.168h1.391v-1.031h0.928v1.031h1.423v-1.191
		h0.927v2.167L7.648,499.66L7.648,499.66z M7.648,495.748v-0.872c0-1.063,0.576-1.807,1.887-1.807h0.016
		c1.263,0,1.863,0.703,1.935,1.695v0.008h1.759v0.976H7.648z M10.583,494.765c-0.024-0.408-0.32-0.72-1-0.72H9.567
		c-0.711,0-1.015,0.271-1.015,0.695v0.032h2.031V494.765z M7.648,492.668v-1.008c0-0.999,0.528-1.727,1.783-1.727h0.072
		c0.728,0,1.191,0.288,1.471,0.655l2.271-0.751v1.039l-1.951,0.632v0.184h1.951v0.976H7.648z M10.415,491.644
		c0-0.424-0.248-0.735-0.903-0.735H9.448c-0.704,0-0.888,0.336-0.888,0.76v0.023h1.855
		C10.415,491.692,10.415,491.644,10.415,491.644z M10.591,489.58h-0.288c-1.847,0-2.734-0.6-2.734-1.487s0.887-1.487,2.734-1.487
		h0.288c1.847,0,2.735,0.6,2.735,1.487S12.438,489.58,10.591,489.58z M10.591,487.597h-0.288c-1.439,0-1.839,0.2-1.839,0.496
		s0.4,0.496,1.839,0.496h0.288c1.439,0,1.839-0.2,1.839-0.496S12.03,487.597,10.591,487.597z M7.648,486.124v-0.968l2.047-0.688
		l-2.047-0.688v-0.968h5.597v0.936H9.863l2.119,0.712v0.016l-2.119,0.712h3.382v0.936L7.648,486.124L7.648,486.124z M7.648,482.236
		v-2.144h0.928v1.168h1.391v-1.031h0.928v1.031h1.423v-1.191h0.927v2.167L7.648,482.236L7.648,482.236z M7.648,479.596v-0.911
		l2.831-0.983H7.648v-0.951h5.597v0.863l-2.966,1.031h2.966v0.951H7.648z M7.633,475.389v-1.039l5.613-1.063v0.975l-1.111,0.185
		v0.888l1.111,0.176v0.943L7.633,475.389z M11.255,474.589l-1.847,0.296l1.847,0.304V474.589z M7.648,472.988v-0.911
		c0-1.248,0.904-1.959,2.703-1.959h0.192c1.799,0,2.703,0.711,2.703,1.959v0.911H7.648z M12.35,471.973
		c0-0.464-0.408-0.863-1.807-0.863h-0.192c-1.399,0-1.807,0.399-1.807,0.863v0.04h3.806C12.35,472.013,12.35,471.973,12.35,471.973z
		 M7.648,469.637v-2.144h0.928v1.168h1.391v-1.031h0.928v1.031h1.423v-1.191h0.927v2.167L7.648,469.637L7.648,469.637z"/>
	<path class="st4" d="M113.318,502.161v0.688h-0.928v-2.352h0.928v0.688h4.669v0.976H113.318z M112.391,500.089v-0.976h2.318v-0.848
		h-2.318v-0.976h5.597v0.976h-2.351v0.848h2.351v0.976H112.391z M112.391,496.713v-2.144h0.928v1.168h1.391v-1.031h0.928v1.031
		h1.423v-1.191h0.928v2.167L112.391,496.713L112.391,496.713z M112.391,492.801v-0.872c0-1.063,0.575-1.807,1.887-1.807h0.016
		c1.264,0,1.863,0.703,1.936,1.695v0.008h1.759v0.976H112.391z M115.325,491.817c-0.024-0.408-0.32-0.72-1-0.72h-0.016
		c-0.712,0-1.016,0.271-1.016,0.695v0.032h2.031L115.325,491.817L115.325,491.817z M112.391,489.721v-1.008
		c0-0.999,0.527-1.727,1.783-1.727h0.071c0.728,0,1.191,0.288,1.472,0.655l2.271-0.751v1.039l-1.951,0.632v0.184h1.951v0.976
		H112.391z M115.157,488.697c0-0.424-0.248-0.735-0.904-0.735h-0.063c-0.704,0-0.888,0.336-0.888,0.76v0.023h1.855V488.697z
		 M115.333,486.633h-0.288c-1.847,0-2.734-0.6-2.734-1.487s0.888-1.487,2.734-1.487h0.288c1.847,0,2.734,0.6,2.734,1.487
		S117.18,486.633,115.333,486.633z M115.333,484.649h-0.288c-1.439,0-1.839,0.2-1.839,0.496s0.399,0.496,1.839,0.496h0.288
		c1.438,0,1.839-0.2,1.839-0.496S116.772,484.649,115.333,484.649z M112.391,483.177v-0.968l2.047-0.688l-2.047-0.688v-0.968h5.597
		v0.936h-3.382l2.118,0.712v0.016l-2.118,0.712h3.382v0.936L112.391,483.177L112.391,483.177z M112.391,479.289v-2.144h0.928v1.168
		h1.391v-1.031h0.928v1.031h1.423v-1.191h0.928v2.167L112.391,479.289L112.391,479.289z M112.391,476.648v-0.911l2.83-0.983h-2.83
		v-0.951h5.597v0.863l-2.967,1.031h2.967v0.951H112.391z M112.374,472.441v-1.039l5.613-1.063v0.975l-1.111,0.185v0.888l1.111,0.176
		v0.943L112.374,472.441z M115.996,471.642l-1.847,0.296l1.847,0.304V471.642z M112.391,470.041v-0.911
		c0-1.248,0.903-1.959,2.702-1.959h0.192c1.799,0,2.702,0.711,2.702,1.959v0.911H112.391z M117.092,469.025
		c0-0.464-0.408-0.863-1.807-0.863h-0.192c-1.399,0-1.807,0.399-1.807,0.863v0.04h3.806V469.025z M112.391,466.689v-2.144h0.928
		v1.168h1.391v-1.031h0.928v1.031h1.423v-1.191h0.928v2.167L112.391,466.689L112.391,466.689z"/>
	<path class="st4" d="M37.443,491.4h1.007c1,0.001,1.727,0.529,1.726,1.785v0.071c0,0.728-0.289,1.191-0.657,1.471l0.75,2.271
		l-1.04-0.001l-0.63-1.951h-0.184l-0.001,1.951l-0.976-0.001L37.443,491.4z M38.464,494.167c0.424,0.001,0.736-0.247,0.736-0.902
		V493.2c0.001-0.703-0.335-0.888-0.759-0.888h-0.024l-0.001,1.854L38.464,494.167L38.464,494.167z M40.627,491.402l1.007,0.001
		c1,0.001,1.727,0.529,1.726,1.784v0.072c0,0.728-0.289,1.191-0.657,1.471l0.75,2.271L42.414,497l-0.63-1.951l-0.184-0.001
		L41.598,497l-0.975-0.001L40.627,491.402z M41.648,494.17c0.424,0,0.736-0.247,0.736-0.903v-0.063c0-0.704-0.335-0.888-0.759-0.889
		h-0.024L41.6,494.17H41.648z"/>
	<path class="st4" d="M83.752,491.477h1.008c0.999,0.001,1.727,0.529,1.726,1.785v0.071c-0.001,0.728-0.289,1.191-0.657,1.471
		l0.75,2.271l-1.039-0.001l-0.631-1.951h-0.184l-0.001,1.951l-0.976-0.001L83.752,491.477z M84.773,494.243
		c0.424,0.001,0.735-0.247,0.736-0.902v-0.064c0.001-0.703-0.335-0.888-0.759-0.888h-0.024l-0.001,1.854H84.773z M86.937,491.478
		l1.007,0.001c1,0.001,1.727,0.529,1.726,1.784v0.072c0,0.728-0.288,1.191-0.656,1.471l0.749,2.271l-1.039-0.001l-0.63-1.951
		l-0.184-0.001l-0.002,1.951l-0.976-0.001L86.937,491.478z M87.957,494.246c0.424,0,0.736-0.247,0.736-0.903v-0.063
		c0.001-0.704-0.335-0.888-0.759-0.889h-0.023l-0.002,1.855H87.957z"/>
	<path class="st4" d="M83.048,735.547h1.008c0.999,0.001,1.727,0.529,1.726,1.785v0.071c-0.001,0.728-0.289,1.191-0.657,1.471
		l0.75,2.271l-1.039-0.001l-0.631-1.951h-0.184l-0.002,1.951l-0.975-0.001L83.048,735.547z M84.069,738.313
		c0.424,0.001,0.735-0.247,0.736-0.902v-0.064c0-0.703-0.335-0.888-0.759-0.888h-0.024l-0.001,1.854H84.069z M86.231,735.549
		l1.008,0.001c1,0.001,1.727,0.529,1.726,1.784v0.072c0,0.728-0.289,1.191-0.656,1.471l0.749,2.271l-1.039-0.001l-0.63-1.951
		l-0.185-0.001l-0.001,1.951l-0.976-0.001L86.231,735.549z M87.253,738.316c0.424,0,0.736-0.247,0.736-0.903v-0.063
		c0.001-0.704-0.335-0.888-0.759-0.889h-0.023l-0.002,1.855H87.253z"/>
	<path class="st4" d="M38.712,735.907h1.007c1,0.001,1.727,0.529,1.726,1.785v0.071c0,0.728-0.289,1.191-0.657,1.471l0.75,2.271
		l-1.04-0.001l-0.63-1.951h-0.184l-0.001,1.951l-0.976-0.001L38.712,735.907z M39.734,738.674c0.423,0.001,0.735-0.247,0.736-0.902
		v-0.064c0-0.703-0.335-0.888-0.759-0.888h-0.024l-0.001,1.854H39.734z M41.897,735.909l1.007,0.001
		c1,0.001,1.727,0.529,1.726,1.784v0.072c0,0.728-0.289,1.191-0.657,1.471l0.75,2.271l-1.039-0.001l-0.63-1.951l-0.184-0.001
		l-0.002,1.951l-0.975-0.001L41.897,735.909z M42.918,738.677c0.424,0,0.736-0.247,0.736-0.903v-0.063
		c0.001-0.704-0.335-0.888-0.759-0.889h-0.024l-0.001,1.855H42.918z"/>
	<path class="st4" d="M52.681,151.897v-1.016c0.344,0.2,0.616,0.312,0.88,0.312c0.28,0,0.52-0.136,0.52-0.48v-0.016
		c0-0.256-0.08-0.448-0.543-0.976c-0.664-0.751-0.936-1.111-0.936-1.791v-0.016c0-0.896,0.583-1.463,1.359-1.463
		c0.392,0,0.624,0.056,0.864,0.176v1.015c-0.304-0.176-0.488-0.256-0.744-0.256c-0.272,0-0.504,0.176-0.504,0.48v0.016
		c0,0.264,0.08,0.36,0.544,0.896c0.768,0.887,0.936,1.231,0.936,1.871v0.016c0,0.88-0.616,1.463-1.383,1.463
		C53.289,152.129,52.961,152.033,52.681,151.897z M55.801,147.42h-0.688v-0.928h2.351v0.928h-0.688v4.669h-0.975
		C55.801,152.089,55.801,147.42,55.801,147.42z M58.417,146.477h1.039l1.063,5.613h-0.975l-0.184-1.111h-0.888l-0.176,1.111h-0.943
		L58.417,146.477z M59.216,150.099l-0.296-1.847l-0.304,1.847H59.216z M60.817,146.492h1.007c1,0,1.727,0.528,1.727,1.783v0.072
		c0,0.728-0.288,1.191-0.656,1.471l0.751,2.271h-1.039l-0.632-1.951h-0.184v1.951h-0.975L60.817,146.492L60.817,146.492z
		 M61.84,149.259c0.423,0,0.735-0.248,0.735-0.903v-0.064c0-0.704-0.336-0.888-0.759-0.888h-0.024v1.855H61.84z M64.001,146.492
		h0.912c1.248,0,1.959,0.904,1.959,2.703v0.192c0,1.799-0.711,2.703-1.959,2.703h-0.912V146.492z M65.016,151.194
		c0.464,0,0.864-0.408,0.864-1.807v-0.192c0-1.399-0.4-1.807-0.864-1.807h-0.04v3.806L65.016,151.194L65.016,151.194z
		 M67.336,150.458v-3.966h0.968v4.062c0,0.504,0.176,0.704,0.424,0.704s0.423-0.2,0.423-0.704v-4.062h0.968v3.966
		c0,1.176-0.592,1.703-1.391,1.703C67.928,152.161,67.336,151.634,67.336,150.458z M70.561,151.897v-1.016
		c0.344,0.2,0.616,0.312,0.879,0.312c0.28,0,0.52-0.136,0.52-0.48v-0.016c0-0.256-0.08-0.448-0.544-0.976
		c-0.664-0.751-0.936-1.111-0.936-1.791v-0.016c0-0.896,0.584-1.463,1.359-1.463c0.392,0,0.624,0.056,0.863,0.176v1.015
		c-0.304-0.176-0.487-0.256-0.743-0.256c-0.272,0-0.504,0.176-0.504,0.48v0.016c0,0.264,0.08,0.36,0.544,0.896
		c0.768,0.887,0.935,1.231,0.935,1.871v0.016c0,0.88-0.616,1.463-1.383,1.463C71.168,152.129,70.84,152.033,70.561,151.897z
		 M73.68,147.42h-0.688v-0.928h2.351v0.928h-0.688v4.669H73.68V147.42z M54.813,155.42h-0.688v-0.928h2.351v0.928h-0.688v4.669
		h-0.976L54.813,155.42L54.813,155.42z M56.885,154.492h0.976v2.319h0.848v-2.319h0.975v5.597h-0.975v-2.351H57.86v2.351h-0.976
		L56.885,154.492L56.885,154.492z M60.261,154.492h2.143v0.928h-1.167v1.391h1.031v0.928h-1.031v1.423h1.191v0.927h-2.167V154.492z
		 M63.684,154.477h1.04l1.063,5.613h-0.976l-0.184-1.111H63.74l-0.176,1.111H62.62L63.684,154.477z M64.484,158.099l-0.296-1.847
		l-0.304,1.847H64.484z M66.364,155.42h-0.688v-0.928h2.351v0.928H67.34v4.669h-0.976V155.42z M68.437,154.492h2.143v0.928h-1.167
		v1.391h1.031v0.928h-1.031v1.423h1.191v0.927h-2.167V154.492z M71.076,154.492h1.008c1,0,1.727,0.528,1.727,1.783v0.072
		c0,0.728-0.288,1.191-0.656,1.471l0.751,2.271h-1.04l-0.631-1.951h-0.184v1.951h-0.976L71.076,154.492L71.076,154.492z
		 M72.1,157.259c0.424,0,0.736-0.248,0.736-0.903v-0.064c0-0.704-0.336-0.888-0.76-0.888h-0.024v1.855H72.1z"/>
	<path class="st4" d="M54.672,93.467v-0.288c0-1.847,0.6-2.734,1.487-2.734c0.888,0,1.487,0.887,1.487,2.734v0.288
		c0,1.847-0.6,2.734-1.487,2.734C55.272,96.201,54.672,95.313,54.672,93.467z M56.655,93.467v-0.288c0-1.439-0.2-1.839-0.496-1.839
		s-0.496,0.399-0.496,1.839v0.288c0,1.439,0.2,1.839,0.496,1.839S56.655,94.906,56.655,93.467z M58.128,90.524H59
		c1.063,0,1.807,0.575,1.807,1.887v0.016c0,1.263-0.704,1.863-1.695,1.935h-0.008v1.759h-0.976V90.524z M59.111,93.458
		c0.408-0.024,0.72-0.32,0.72-1v-0.016c0-0.712-0.271-1.016-0.695-1.016h-0.032v2.031L59.111,93.458L59.111,93.458z M61.208,90.524
		h2.143v0.927h-1.167v1.391h1.031v0.928h-1.031v1.423h1.191v0.928h-2.167V90.524z M63.848,90.524h0.911l0.984,2.83v-2.83h0.951
		v5.597h-0.863l-1.032-2.966v2.966h-0.951C63.848,96.121,63.848,90.524,63.848,90.524z M69.064,91.452h-0.688v-0.927h2.351v0.927
		h-0.688v4.669h-0.976v-4.669H69.064z M70.88,93.467v-0.288c0-1.847,0.6-2.734,1.487-2.734s1.487,0.887,1.487,2.734v0.288
		c0,1.847-0.6,2.734-1.487,2.734S70.88,95.313,70.88,93.467z M72.863,93.467v-0.288c0-1.439-0.2-1.839-0.496-1.839
		s-0.496,0.399-0.496,1.839v0.288c0,1.439,0.2,1.839,0.496,1.839S72.863,94.906,72.863,93.467z M50,98.524h0.912
		c1.248,0,1.959,0.903,1.959,2.702v0.192c0,1.799-0.711,2.703-1.959,2.703H50V98.524z M51.016,103.226
		c0.464,0,0.863-0.408,0.863-1.807v-0.192c0-1.399-0.399-1.807-0.863-1.807h-0.04v3.806H51.016z M53.352,98.524h2.143v0.927h-1.167
		v1.391h1.031v0.928h-1.031v1.423h1.191v0.928h-2.167C53.352,104.121,53.352,98.524,53.352,98.524z M55.816,101.418v-0.192
		c0-1.967,0.728-2.742,1.639-2.742c0.272,0,0.432,0.032,0.64,0.128v1.007c-0.2-0.12-0.36-0.184-0.543-0.184
		c-0.432,0-0.744,0.384-0.744,1.783v0.208c0,1.479,0.312,1.783,0.76,1.783c0.152,0,0.344-0.056,0.543-0.176v0.959
		c-0.224,0.128-0.44,0.168-0.72,0.168C56.496,104.161,55.816,103.37,55.816,101.418z M58.6,98.524h0.976v2.342l0.792-2.342h1.104
		l-0.944,2.366l0.959,3.23H60.4l-0.607-2.119l-0.216,0.616v1.503H58.6V98.524z M63.096,98.524h0.847
		c0.944,0,1.823,0.384,1.823,1.423v0.04c0,0.72-0.408,1.071-0.808,1.263c0.472,0.208,0.879,0.536,0.879,1.248v0.072
		c0,0.992-0.768,1.551-1.855,1.551h-0.887v-5.597H63.096z M64.087,100.875c0.432,0,0.72-0.248,0.72-0.736v-0.016
		c0-0.487-0.288-0.695-0.72-0.695h-0.016v1.447H64.087z M64.096,103.218c0.447,0,0.768-0.264,0.768-0.728v-0.04
		c0-0.464-0.32-0.728-0.768-0.728h-0.024v1.495L64.096,103.218L64.096,103.218z M66.248,98.524h2.143v0.927h-1.167v1.391h1.031
		v0.928h-1.031v1.423h1.191v0.928h-2.167V98.524z M68.888,98.524h0.976v4.669h1.031v0.928h-2.007V98.524z M70.992,101.467v-0.288
		c0-1.847,0.6-2.734,1.487-2.734c0.888,0,1.487,0.887,1.487,2.734v0.288c0,1.847-0.6,2.734-1.487,2.734
		C71.592,104.201,70.992,103.313,70.992,101.467z M72.975,101.467v-0.288c0-1.439-0.2-1.839-0.496-1.839s-0.496,0.399-0.496,1.839
		v0.288c0,1.439,0.2,1.839,0.496,1.839S72.975,102.906,72.975,101.467z M74.104,98.524h1l0.408,3.43L76,98.524h0.903l0.48,3.43
		l0.416-3.43h0.976l-0.848,5.613h-1.023l-0.464-3.318l-0.463,3.318h-1.023L74.104,98.524z"/>
	<path class="st4" d="M56.081,538.028h1.04l1.063,5.613h-0.976l-0.184-1.111h-0.887l-0.176,1.111h-0.943L56.081,538.028z
		 M56.881,541.65l-0.296-1.847l-0.304,1.847H56.881z M58.761,538.972h-0.688v-0.927h2.351v0.927h-0.688v4.67H58.76L58.761,538.972
		L58.761,538.972z M60.834,538.045h1.007c1,0,1.727,0.527,1.727,1.783v0.071c0,0.728-0.288,1.191-0.656,1.472l0.752,2.271h-1.04
		l-0.632-1.951h-0.184v1.951h-0.976v-5.597H60.834z M61.857,540.811c0.424,0,0.735-0.248,0.735-0.904v-0.063
		c0-0.704-0.335-0.888-0.759-0.888h-0.024v1.855H61.857z M64.033,538.045h0.976v5.597h-0.976V538.045z M65.585,542.011v-3.966h0.967
		v4.062c0,0.504,0.176,0.703,0.424,0.703s0.424-0.199,0.424-0.703v-4.062h0.967v3.966c0,1.175-0.591,1.703-1.391,1.703
		C66.177,543.714,65.585,543.185,65.585,542.011z M68.929,538.045h0.967l0.688,2.047l0.688-2.047h0.967v5.597h-0.936v-3.382
		l-0.711,2.118h-0.016l-0.711-2.118v3.382h-0.936L68.929,538.045L68.929,538.045z M58.465,547.939v-0.192
		c0-1.967,0.728-2.742,1.639-2.742c0.272,0,0.432,0.032,0.64,0.128v1.007c-0.2-0.119-0.36-0.184-0.543-0.184
		c-0.432,0-0.744,0.384-0.744,1.783v0.208c0,1.479,0.312,1.783,0.76,1.783c0.152,0,0.344-0.057,0.543-0.177v0.96
		c-0.224,0.128-0.44,0.168-0.72,0.168C59.145,550.682,58.465,549.89,58.465,547.939z M62.033,545.028h1.039l1.063,5.613H63.16
		l-0.184-1.111h-0.888l-0.176,1.111H60.97L62.033,545.028z M62.833,548.65l-0.296-1.847l-0.304,1.847H62.833z M64.434,545.045h2.039
		v0.927H65.41v1.408h0.928v0.927H65.41v2.335h-0.975L64.434,545.045L64.434,545.045z M66.914,545.045h2.143v0.927H67.89v1.392h1.032
		v0.928H67.89v1.423h1.191v0.928h-2.167V545.045z M68.272,543.749l0.808,0.4l-0.792,0.615h-0.704L68.272,543.749z"/>
	<path class="st4" d="M57.809,612.503v-0.192c0-1.807,0.768-2.742,1.871-2.742c0.296,0,0.544,0.063,0.744,0.16v1.015
		c-0.24-0.144-0.456-0.239-0.711-0.239c-0.56,0-0.912,0.56-0.912,1.767v0.272c0,1.463,0.432,1.799,0.832,1.799
		c0.032,0,0.04,0,0.088-0.008v-1.432H59.24v-0.871h1.367v2.974c-0.352,0.152-0.64,0.24-1.016,0.24
		C58.616,615.245,57.809,614.453,57.809,612.503z M61.128,613.574v-3.966h0.967v4.062c0,0.504,0.176,0.704,0.424,0.704
		s0.424-0.2,0.424-0.704v-4.062h0.967v3.966c0,1.175-0.591,1.703-1.391,1.703C61.72,615.277,61.128,614.749,61.128,613.574z
		 M64.472,609.608h2.143v0.928h-1.167v1.391h1.031v0.928h-1.031v1.423h1.191v0.928h-2.167V609.608z M66.992,615.013v-1.015
		c0.344,0.199,0.616,0.312,0.879,0.312c0.28,0,0.52-0.136,0.52-0.479v-0.017c0-0.256-0.08-0.447-0.544-0.975
		c-0.664-0.752-0.936-1.112-0.936-1.791v-0.017c0-0.896,0.584-1.463,1.359-1.463c0.392,0,0.624,0.056,0.864,0.176v1.016
		c-0.304-0.176-0.488-0.256-0.744-0.256c-0.272,0-0.504,0.176-0.504,0.479v0.016c0,0.265,0.08,0.36,0.544,0.896
		c0.768,0.888,0.935,1.231,0.935,1.871v0.017c0,0.879-0.615,1.463-1.383,1.463C67.6,615.245,67.272,615.149,66.992,615.013z
		 M70.112,610.536h-0.688v-0.928h2.351v0.928h-0.688v4.669h-0.976v-4.669H70.112z M54.444,622.013v-1.015
		c0.344,0.199,0.616,0.312,0.879,0.312c0.28,0,0.52-0.136,0.52-0.479v-0.017c0-0.256-0.08-0.447-0.544-0.975
		c-0.664-0.752-0.936-1.112-0.936-1.791v-0.017c0-0.896,0.584-1.463,1.359-1.463c0.392,0,0.624,0.056,0.864,0.176v1.016
		c-0.304-0.176-0.488-0.256-0.744-0.256c-0.272,0-0.504,0.176-0.504,0.479v0.016c0,0.265,0.08,0.36,0.544,0.896
		c0.768,0.888,0.936,1.231,0.936,1.871v0.017c0,0.879-0.616,1.463-1.383,1.463C55.052,622.245,54.724,622.149,54.444,622.013z
		 M57.165,616.608h2.143v0.928H58.14v1.391h1.032v0.928H58.14v1.423h1.191v0.928h-2.167L57.165,616.608L57.165,616.608z
		 M59.804,616.608h1.007c1,0,1.727,0.527,1.727,1.783v0.071c0,0.728-0.288,1.191-0.655,1.472l0.751,2.271h-1.04l-0.632-1.951H60.78
		v1.951h-0.976C59.804,622.205,59.804,616.608,59.804,616.608z M60.828,619.375c0.424,0,0.736-0.248,0.736-0.904v-0.063
		c0-0.704-0.336-0.888-0.76-0.888H60.78v1.855H60.828z M62.709,616.608H63.7l0.528,3.646l0.528-3.646h0.959l-1,5.612h-1.007
		L62.709,616.608z M66.028,616.608h0.975v5.597h-0.975V616.608z M67.5,619.503v-0.192c0-1.967,0.728-2.742,1.639-2.742
		c0.272,0,0.432,0.032,0.64,0.128v1.007c-0.2-0.119-0.36-0.184-0.543-0.184c-0.432,0-0.744,0.384-0.744,1.783v0.208
		c0,1.479,0.312,1.783,0.759,1.783c0.152,0,0.344-0.057,0.544-0.176v0.959c-0.224,0.128-0.44,0.168-0.72,0.168
		C68.18,622.245,67.5,621.453,67.5,619.503z M70.284,616.608h2.143v0.928H71.26v1.391h1.031v0.928H71.26v1.423h1.191v0.928h-2.167
		C70.284,622.206,70.284,616.608,70.284,616.608z M72.804,622.013v-1.015c0.344,0.199,0.616,0.312,0.879,0.312
		c0.28,0,0.52-0.136,0.52-0.479v-0.017c0-0.256-0.08-0.447-0.543-0.975c-0.664-0.752-0.936-1.112-0.936-1.791v-0.017
		c0-0.896,0.583-1.463,1.359-1.463c0.392,0,0.624,0.056,0.863,0.176v1.016c-0.304-0.176-0.488-0.256-0.744-0.256
		c-0.271,0-0.503,0.176-0.503,0.479v0.016c0,0.265,0.08,0.36,0.543,0.896c0.768,0.888,0.936,1.231,0.936,1.871v0.017
		c0,0.879-0.616,1.463-1.383,1.463C73.412,622.245,73.084,622.149,72.804,622.013z"/>
	<path class="st4" d="M106.735,601.255h-0.192c-1.807,0-2.742-0.768-2.742-1.871c0-0.296,0.063-0.544,0.16-0.744h1.015
		c-0.144,0.24-0.239,0.456-0.239,0.712c0,0.56,0.56,0.912,1.767,0.912h0.272c1.463,0,1.799-0.433,1.799-0.832
		c0-0.032,0-0.04-0.008-0.088h-1.432v0.479h-0.871v-1.367h2.974c0.152,0.352,0.24,0.64,0.24,1.016
		C109.478,600.447,108.686,601.255,106.735,601.255z M103.801,597.942v-0.959h0.943v0.959H103.801z M105.152,597.935v-0.943h4.285
		v0.943H105.152z M105.92,596.351v0.264h-0.768v-0.264h-0.312c-0.735,0-1.056-0.407-1.056-1.079c0-0.16,0.009-0.256,0.032-0.352
		h0.784c-0.009,0.04-0.009,0.056-0.009,0.111c0,0.232,0.128,0.376,0.393,0.376h0.168v-0.487h0.768v0.487h3.518v0.943L105.92,596.351
		L105.92,596.351z M108.702,594.503h-2.782v0.256h-0.768v-0.256h-1.096v-0.943h1.096v-0.504h0.768v0.504h2.462
		c0.192,0,0.264-0.096,0.264-0.264c0-0.072-0.016-0.152-0.048-0.232h0.752c0.08,0.145,0.144,0.368,0.144,0.56
		C109.493,594.071,109.35,594.503,108.702,594.503z M109.246,591.487h-1.016c0.199-0.344,0.312-0.616,0.312-0.88
		c0-0.28-0.136-0.52-0.479-0.52h-0.017c-0.256,0-0.447,0.08-0.976,0.544c-0.751,0.663-1.111,0.935-1.791,0.935h-0.016
		c-0.896,0-1.463-0.583-1.463-1.358c0-0.393,0.056-0.624,0.176-0.864h1.016c-0.176,0.304-0.256,0.488-0.256,0.744
		c0,0.271,0.176,0.504,0.479,0.504h0.016c0.265,0,0.36-0.08,0.896-0.544c0.888-0.768,1.231-0.936,1.871-0.936h0.017
		c0.879,0,1.463,0.615,1.463,1.383C109.478,590.879,109.382,591.207,109.246,591.487z M103.841,588.767v-0.975h2.318v-0.848h-2.318
		v-0.976h5.597v0.976h-2.351v0.848h2.351v0.975H103.841z M106.783,585.487h-0.288c-1.847,0-2.734-0.6-2.734-1.487
		s0.888-1.487,2.734-1.487h0.288c1.847,0,2.734,0.6,2.734,1.487S108.63,585.487,106.783,585.487z M106.783,583.504h-0.288
		c-1.439,0-1.839,0.2-1.839,0.496s0.399,0.495,1.839,0.495h0.288c1.439,0,1.839-0.199,1.839-0.495S108.223,583.504,106.783,583.504z
		 M103.841,582.031v-0.872c0-1.063,0.575-1.807,1.887-1.807h0.016c1.264,0,1.863,0.703,1.936,1.695v0.008h1.759v0.976H103.841z
		 M106.775,581.048c-0.024-0.408-0.32-0.72-1-0.72h-0.016c-0.712,0-1.016,0.271-1.016,0.695v0.032h2.031L106.775,581.048
		L106.775,581.048z"/>
	<path class="st4" d="M20.625,598.31h-1.016c0.2-0.344,0.312-0.616,0.312-0.88c0-0.279-0.136-0.52-0.48-0.52h-0.016
		c-0.256,0-0.448,0.08-0.976,0.544c-0.751,0.663-1.111,0.936-1.791,0.936h-0.016c-0.896,0-1.463-0.584-1.463-1.359
		c0-0.392,0.056-0.624,0.176-0.863h1.015c-0.176,0.304-0.256,0.487-0.256,0.743c0,0.271,0.176,0.504,0.48,0.504h0.016
		c0.264,0,0.36-0.08,0.896-0.544c0.887-0.768,1.231-0.936,1.871-0.936h0.016c0.88,0,1.463,0.616,1.463,1.384
		C20.857,597.702,20.761,598.029,20.625,598.31z M15.22,595.59v-0.976h2.319v-0.848H15.22v-0.976h5.597v0.976h-2.351v0.848h2.351
		v0.976H15.22z M18.162,592.31h-0.288c-1.847,0-2.734-0.6-2.734-1.487s0.887-1.487,2.734-1.487h0.288c1.847,0,2.735,0.6,2.735,1.487
		S20.009,592.31,18.162,592.31z M18.162,590.326h-0.288c-1.439,0-1.839,0.2-1.839,0.496s0.4,0.496,1.839,0.496h0.288
		c1.439,0,1.839-0.2,1.839-0.496S19.602,590.326,18.162,590.326z M15.22,588.853v-1.008c0-0.999,0.528-1.727,1.783-1.727h0.072
		c0.728,0,1.191,0.288,1.471,0.655l2.271-0.751v1.039l-1.951,0.632v0.184h1.951v0.976L15.22,588.853L15.22,588.853z M17.986,587.83
		c0-0.424-0.248-0.735-0.903-0.735h-0.064c-0.704,0-0.888,0.336-0.888,0.76v0.023h1.855V587.83z M15.22,585.67v-2.144h0.928v1.168
		h1.391v-1.031h0.928v1.031h1.423v-1.191h0.927v2.167L15.22,585.67L15.22,585.67z M22.22,604.802v-2.144h0.928v1.168h1.391v-1.031
		h0.928v1.031h1.423v-1.191h0.927v2.167L22.22,604.802L22.22,604.802z M24.962,601.474l-2.743,0.88v-1.039l1.615-0.44l-1.615-0.447
		v-1.016l2.743,0.88l2.854-0.912v1.04l-1.703,0.472l1.703,0.479v1.016L24.962,601.474z M25.114,599.281h-0.192
		c-1.967,0-2.742-0.728-2.742-1.639c0-0.272,0.032-0.432,0.128-0.64h1.007c-0.12,0.199-0.184,0.359-0.184,0.543
		c0,0.433,0.384,0.744,1.783,0.744h0.208c1.479,0,1.783-0.312,1.783-0.76c0-0.151-0.056-0.344-0.176-0.544h0.959
		c0.128,0.225,0.168,0.44,0.168,0.72C27.857,598.602,27.065,599.281,25.114,599.281z M26.186,596.514H22.22v-0.968h4.062
		c0.504,0,0.704-0.176,0.704-0.424s-0.2-0.424-0.704-0.424H22.22v-0.967h3.966c1.176,0,1.703,0.591,1.703,1.391
		S27.361,596.514,26.186,596.514z M22.22,593.17v-1.008c0-0.999,0.528-1.727,1.783-1.727h0.072c0.728,0,1.191,0.287,1.471,0.655
		l2.271-0.752v1.04l-1.951,0.631v0.185h1.951v0.976H22.22z M24.986,592.146c0-0.424-0.248-0.736-0.903-0.736h-0.064
		c-0.704,0-0.888,0.336-0.888,0.76v0.024h1.855V592.146z M27.625,590.105h-1.016c0.2-0.344,0.312-0.615,0.312-0.88
		c0-0.279-0.136-0.52-0.48-0.52h-0.016c-0.256,0-0.448,0.08-0.976,0.544c-0.751,0.664-1.111,0.936-1.791,0.936h-0.016
		c-0.896,0-1.463-0.584-1.463-1.359c0-0.392,0.056-0.624,0.176-0.863h1.015c-0.176,0.304-0.256,0.487-0.256,0.743
		c0,0.272,0.176,0.504,0.48,0.504h0.016c0.264,0,0.36-0.08,0.896-0.544c0.887-0.768,1.231-0.936,1.871-0.936h0.016
		c0.88,0,1.463,0.616,1.463,1.384C27.857,589.498,27.761,589.826,27.625,590.105z M22.22,587.37v-0.976h5.597v0.976H22.22z
		 M25.162,585.897h-0.288c-1.847,0-2.734-0.6-2.734-1.487s0.887-1.487,2.734-1.487h0.288c1.847,0,2.735,0.6,2.735,1.487
		S27.009,585.897,25.162,585.897z M25.162,583.915h-0.288c-1.439,0-1.839,0.199-1.839,0.495s0.4,0.496,1.839,0.496h0.288
		c1.439,0,1.839-0.2,1.839-0.496S26.602,583.915,25.162,583.915z M22.22,582.441v-0.911l2.831-0.983H22.22v-0.951h5.597v0.863
		l-2.966,1.031h2.966v0.951H22.22z M27.625,579.138h-1.016c0.2-0.344,0.312-0.615,0.312-0.88c0-0.279-0.136-0.52-0.48-0.52h-0.016
		c-0.256,0-0.448,0.08-0.976,0.544c-0.751,0.663-1.111,0.936-1.791,0.936h-0.016c-0.896,0-1.463-0.584-1.463-1.359
		c0-0.392,0.056-0.624,0.176-0.863h1.015c-0.176,0.304-0.256,0.487-0.256,0.743c0,0.272,0.176,0.504,0.48,0.504h0.016
		c0.264,0,0.36-0.08,0.896-0.544c0.887-0.768,1.231-0.936,1.871-0.936h0.016c0.88,0,1.463,0.616,1.463,1.384
		C27.857,578.53,27.761,578.857,27.625,579.138z"/>
	<path class="st4" d="M50.364,283.356h-0.688v-0.927h2.351v0.927h-0.688v4.669h-0.976L50.364,283.356L50.364,283.356z
		 M52.436,282.429h1.007c1,0,1.727,0.527,1.727,1.783v0.072c0,0.728-0.288,1.191-0.656,1.472l0.751,2.271h-1.039l-0.632-1.951H53.41
		v1.951h-0.975L52.436,282.429L52.436,282.429z M53.46,285.195c0.424,0,0.735-0.248,0.735-0.903v-0.064
		c0-0.704-0.336-0.888-0.759-0.888h-0.024v1.855H53.46z M56.403,282.413h1.04l1.063,5.613H57.53l-0.184-1.111H56.46l-0.176,1.111
		H55.34L56.403,282.413z M57.203,286.035l-0.296-1.847l-0.304,1.847H57.203z M58.804,282.429h0.912c1.247,0,1.959,0.903,1.959,2.702
		v0.192c0,1.799-0.712,2.703-1.959,2.703h-0.912V282.429z M59.819,287.13c0.464,0,0.863-0.408,0.863-1.807v-0.192
		c0-1.399-0.399-1.807-0.863-1.807h-0.04v3.806H59.819z M62.156,282.429h2.143v0.927h-1.167v1.391h1.031v0.928h-1.031v1.423h1.191
		v0.928h-2.167V282.429z M64.532,282.429h1l0.408,3.43l0.488-3.43h0.903l0.48,3.43l0.416-3.43h0.976l-0.848,5.613H67.33
		l-0.463-3.318l-0.464,3.318H65.38L64.532,282.429z M69.547,282.429h0.976v5.597h-0.976V282.429z M71.116,282.429h0.911l0.984,2.83
		v-2.83h0.951v5.597h-0.863l-1.032-2.966v2.966h-0.951C71.116,288.026,71.116,282.429,71.116,282.429z M74.54,282.429h0.912
		c1.247,0,1.959,0.903,1.959,2.702v0.192c0,1.799-0.712,2.703-1.959,2.703H74.54V282.429z M75.555,287.13
		c0.463,0,0.863-0.408,0.863-1.807v-0.192c0-1.399-0.4-1.807-0.863-1.807h-0.04v3.806H75.555z M77.731,287.833v-1.016
		c0.344,0.2,0.616,0.312,0.88,0.312c0.28,0,0.52-0.136,0.52-0.479v-0.016c0-0.256-0.08-0.448-0.544-0.976
		c-0.664-0.751-0.935-1.111-0.935-1.791v-0.016c0-0.896,0.583-1.463,1.359-1.463c0.392,0,0.624,0.056,0.864,0.176v1.016
		c-0.304-0.176-0.488-0.256-0.744-0.256c-0.272,0-0.504,0.176-0.504,0.479v0.016c0,0.264,0.08,0.36,0.544,0.896
		c0.768,0.887,0.936,1.231,0.936,1.871v0.016c0,0.879-0.616,1.463-1.383,1.463C78.339,288.065,78.011,287.969,77.731,287.833z
		 M46.152,290.356h-0.688v-0.927h2.351v0.927h-0.688v4.669h-0.976L46.152,290.356L46.152,290.356z M48.768,289.413h1.04l1.063,5.613
		h-0.976l-0.184-1.111h-0.887l-0.176,1.111h-0.944L48.768,289.413z M49.567,293.035l-0.296-1.847l-0.304,1.847H49.567z
		 M51.736,292.171l-0.88-2.742h1.04l0.44,1.615l0.448-1.615h1.015l-0.879,2.742l0.912,2.854h-1.04l-0.472-1.703l-0.479,1.703h-1.016
		L51.736,292.171z M55.272,293.594v-0.048c0-0.68,0.32-1.184,0.855-1.647c-0.312-0.503-0.472-0.879-0.472-1.271v-0.056
		c0-0.671,0.464-1.223,1.16-1.223c0.68,0,1.127,0.496,1.127,1.215v0.056c0,0.64-0.304,1.087-0.792,1.503l0.504,0.959
		c0.04-0.176,0.072-0.416,0.12-0.751l0.751,0.136c-0.072,0.632-0.2,1.08-0.36,1.439l0.464,0.792l-0.704,0.432l-0.272-0.496
		c-0.264,0.296-0.552,0.472-1.04,0.472C55.896,295.105,55.272,294.506,55.272,293.594z M57.239,293.994l-0.704-1.392
		c-0.208,0.256-0.328,0.592-0.328,0.872v0.064c0,0.432,0.208,0.72,0.528,0.72C56.943,294.258,57.103,294.162,57.239,293.994z
		 M56.767,291.467c0.248-0.24,0.344-0.528,0.344-0.824v-0.063c0-0.272-0.128-0.448-0.312-0.448c-0.192,0-0.312,0.176-0.312,0.416
		v0.08C56.487,290.852,56.575,291.1,56.767,291.467z M60.2,289.429h0.912c1.248,0,1.959,0.903,1.959,2.702v0.192
		c0,1.799-0.711,2.703-1.959,2.703H60.2V289.429z M61.215,294.13c0.464,0,0.864-0.408,0.864-1.807v-0.192
		c0-1.399-0.4-1.807-0.864-1.807h-0.04v3.806H61.215z M63.536,293.394v-3.966h0.968v4.062c0,0.504,0.176,0.704,0.424,0.704
		s0.424-0.2,0.424-0.704v-4.062h0.967v3.966c0,1.175-0.592,1.703-1.391,1.703C64.127,295.097,63.536,294.57,63.536,293.394z
		 M67.399,290.356h-0.688v-0.927h2.351v0.927h-0.688v4.669h-0.976v-4.669H67.399z M70.143,292.818l-1.039-3.39h1.007l0.528,2.095
		l0.536-2.095h0.983l-1.04,3.39v2.207h-0.976L70.143,292.818L70.143,292.818z M73.72,289.429h2.039v0.927h-1.063v1.407h0.928v0.927
		h-0.928v2.335H73.72V289.429z M76.2,289.429h1.007c1,0,1.727,0.527,1.727,1.783v0.072c0,0.728-0.288,1.191-0.656,1.472l0.751,2.271
		H77.99l-0.632-1.951h-0.184v1.951H76.2V289.429z M77.223,292.195c0.424,0,0.735-0.248,0.735-0.903v-0.064
		c0-0.704-0.336-0.888-0.759-0.888h-0.024v1.855H77.223z M79.383,289.429h2.143v0.927h-1.167v1.391h1.032v0.928h-1.032v1.423h1.191
		v0.928h-2.167V289.429z M82.023,289.429h2.143v0.927h-1.167v1.391h1.031v0.928h-1.031v1.423h1.191v0.928h-2.167V289.429z"/>
	<path class="st4" d="M12.323,169.258v-0.847c0-0.944,0.384-1.823,1.423-1.823h0.04c0.72,0,1.071,0.408,1.263,0.808
		c0.208-0.472,0.536-0.879,1.248-0.879h0.072c0.992,0,1.551,0.768,1.551,1.855v0.887L12.323,169.258L12.323,169.258z
		 M14.674,168.267c0-0.432-0.248-0.72-0.736-0.72h-0.016c-0.488,0-0.696,0.288-0.696,0.72v0.016h1.447L14.674,168.267
		L14.674,168.267z M17.017,168.259c0-0.448-0.264-0.768-0.728-0.768h-0.04c-0.464,0-0.728,0.32-0.728,0.768v0.024h1.496
		C17.017,168.283,17.017,168.259,17.017,168.259z M12.308,165.362v-1.04l5.613-1.063v0.976l-1.111,0.184v0.887l1.111,0.176v0.944
		L12.308,165.362z M15.93,164.562l-1.847,0.296l1.847,0.304V164.562z M12.323,162.962v-0.975h4.67v-1.032h0.927v2.007H12.323z
		 M15.218,160.858h-0.192c-1.967,0-2.742-0.728-2.742-1.639c0-0.272,0.032-0.432,0.128-0.64h1.007c-0.12,0.2-0.184,0.36-0.184,0.544
		c0,0.432,0.384,0.743,1.783,0.743h0.208c1.479,0,1.783-0.312,1.783-0.759c0-0.152-0.056-0.344-0.176-0.544h0.959
		c0.128,0.224,0.168,0.44,0.168,0.72C17.96,160.178,17.169,160.858,15.218,160.858z M15.266,158.37h-0.288
		c-1.847,0-2.734-0.6-2.734-1.487s0.887-1.487,2.734-1.487h0.288c1.847,0,2.735,0.6,2.735,1.487
		C18.001,157.77,17.113,158.37,15.266,158.37z M15.266,156.387h-0.288c-1.439,0-1.839,0.2-1.839,0.496s0.4,0.496,1.839,0.496h0.288
		c1.439,0,1.839-0.2,1.839-0.496S16.705,156.387,15.266,156.387z M12.323,154.914v-0.911l2.831-0.983h-2.831v-0.952h5.597v0.864
		l-2.966,1.031h2.966v0.951L12.323,154.914L12.323,154.914z M15.714,150.738l-3.391,1.04v-1.007l2.095-0.528l-2.095-0.536v-0.983
		l3.391,1.039h2.207v0.976L15.714,150.738L15.714,150.738z"/>
	<path class="st4" d="M108.823,169.258v-0.847c0-0.944,0.384-1.823,1.424-1.823h0.04c0.72,0,1.071,0.408,1.263,0.808
		c0.208-0.472,0.536-0.879,1.248-0.879h0.071c0.992,0,1.552,0.768,1.552,1.855v0.887L108.823,169.258L108.823,169.258z
		 M111.175,168.267c0-0.432-0.248-0.72-0.736-0.72h-0.016c-0.487,0-0.695,0.288-0.695,0.72v0.016h1.447V168.267z M113.518,168.259
		c0-0.448-0.265-0.768-0.729-0.768h-0.039c-0.464,0-0.729,0.32-0.729,0.768v0.024h1.496L113.518,168.259L113.518,168.259z
		 M108.808,165.362v-1.04l5.613-1.063v0.976l-1.111,0.184v0.887l1.111,0.176v0.944L108.808,165.362z M112.43,164.562l-1.847,0.296
		l1.847,0.304V164.562z M108.823,162.962v-0.975h4.67v-1.032h0.928v2.007H108.823z M111.718,160.858h-0.191
		c-1.967,0-2.742-0.728-2.742-1.639c0-0.272,0.031-0.432,0.128-0.64h1.007c-0.12,0.2-0.184,0.36-0.184,0.544
		c0,0.432,0.384,0.743,1.783,0.743h0.208c1.479,0,1.782-0.312,1.782-0.759c0-0.152-0.056-0.344-0.176-0.544h0.96
		c0.128,0.224,0.168,0.44,0.168,0.72C114.461,160.178,113.669,160.858,111.718,160.858z M111.766,158.37h-0.287
		c-1.848,0-2.734-0.6-2.734-1.487s0.887-1.487,2.734-1.487h0.287c1.848,0,2.735,0.6,2.735,1.487
		C114.501,157.77,113.613,158.37,111.766,158.37z M111.766,156.387h-0.287c-1.439,0-1.839,0.2-1.839,0.496s0.399,0.496,1.839,0.496
		h0.287c1.439,0,1.84-0.2,1.84-0.496S113.205,156.387,111.766,156.387z M108.823,154.914v-0.911l2.831-0.983h-2.831v-0.952h5.598
		v0.864l-2.967,1.031h2.967v0.951L108.823,154.914L108.823,154.914z M112.214,150.738l-3.391,1.04v-1.007l2.096-0.528l-2.096-0.536
		v-0.983l3.391,1.039h2.207v0.976L112.214,150.738L112.214,150.738z"/>
</g>
<g id="DAWN_DECK_07_TOP">
	<path class="st5" d="M127.538,842.151c-0.844,9.452-30.627,13.786-63.391,13.786c-38.871,0-62.371-4.334-63.354-13.536
		C0.613,826.596,0.5,160.899,0.5,160.899C1.309,90.649,39.284,0.193,64.154,0.501c23.796,1.055,63.384,90.443,63.142,160.397
		L127.538,842.151z"/>
	<g id="gDeck07Locations">
		<rect id="_x30_7Aft" y="571.354" class="st6" width="128.038" height="284.583"/>
		<rect id="_x30_7Middle" y="272.405" class="st6" width="128.038" height="298.95"/>
		<rect id="_x30_7Forward" y="0.501" class="st6" width="128.038" height="271.904"/>
	</g>
</g>
</svg>
