<?xml version="1.0" encoding="utf-8"?>
<!-- Generator: Adobe Illustrator 23.0.2, SVG Export Plug-In . SVG Version: 6.00 Build 0)  -->
<svg version="1.1" id="DAWN_DECK_14" xmlns="http://www.w3.org/2000/svg" xmlns:xlink="http://www.w3.org/1999/xlink" x="0px"
	 y="0px" width="129.049px" height="710.78px" viewBox="0 0 129.049 710.78" style="enable-background:new 0 0 129.049 710.78;"
	 xml:space="preserve">
<style type="text/css">
	.New_x0020_Cabins_x0020_2019{fill:#EFF2F5;stroke:#FFFFFF;stroke-width:0.5;stroke-miterlimit:10;}
	.New_x0020_Cabins_x0020_2{fill:#EFF2F5;stroke:#FFFFFF;stroke-width:0.5;stroke-miterlimit:10;}
	.st0{fill:#FFFFFF;}
	.st1{fill:none;stroke:#D5DCE0;stroke-width:0.5;}
	.st2{fill:#6E8496;}
	.st3{fill:#EFF2F5;stroke:#FFFFFF;stroke-width:0.5;stroke-miterlimit:10;}
	.st4{fill:none;stroke:#EFF2F5;stroke-width:0.5;stroke-miterlimit:10;stroke-dasharray:2,2;}
	.st5{fill:none;stroke:#076FA0;stroke-miterlimit:10;}
	.st6{fill:none;}
</style>
<g id="DAWN_DECK_14_BOTTOM">
	<path class="st0" d="M26.927,459.959v132.356c0,0-8.444-0.109-11.985-0.109c-3.539,0-3.963,3.963-3.963,3.963s0,103.001,0,108.556
		c0,5.557,5.557,5.557,5.557,5.557s93.184,0,96.969,0c3.785,0,4.672-4.492,4.672-4.492s0-104.066,0-109.022
		c0-4.957-4.316-4.318-4.316-4.318l-12.385-0.134l0.01-132.372l20.5-0.028l-0.014,7.134c0,0,6.748,0.329,6.508-11.762l0.07-127.153
		c0,0,0.023-12.734-11.215-19.879c-8.422-5.351-20.37-8.59-52.735-9.743c-3.668-0.13-43.804,0.877-53.526,8.527
		C0.053,315.709,0.52,328.335,0.52,328.335L0.5,457.737c0.066,2.548-0.571,7.329,7.122,8.731c0.015,0.003-0.024-6.525-0.024-6.525
		L26.927,459.959z"/>
	<rect x="16.26" y="484.106" class="st1" width="7.858" height="16.589"/>
	<rect x="104.27" y="483.931" class="st1" width="8.033" height="16.764"/>
	<line class="st1" x1="45.107" y1="392.169" x2="52.445" y2="401.963"/>
	<line class="st1" x1="45.396" y1="401.87" x2="52.631" y2="392.316"/>
	<line class="st1" x1="52.631" y1="392.316" x2="60.549" y2="401.789"/>
	<line class="st1" x1="52.877" y1="401.42" x2="60.422" y2="392.223"/>
	<line class="st1" x1="74.984" y1="392.316" x2="67.471" y2="401.963"/>
	<line class="st1" x1="74.984" y1="401.963" x2="67.564" y2="392.316"/>
	<line class="st1" x1="82.953" y1="392.2" x2="75.17" y2="401.87"/>
	<line class="st1" x1="82.869" y1="401.87" x2="75.32" y2="392.385"/>
	<line class="st1" x1="23.506" y1="497.935" x2="16.497" y2="497.935"/>
	<line class="st1" x1="23.506" y1="495.205" x2="16.497" y2="495.205"/>
	<line class="st1" x1="23.506" y1="492.474" x2="16.497" y2="492.474"/>
	<line class="st1" x1="23.506" y1="489.744" x2="16.497" y2="489.744"/>
	<line class="st1" x1="23.506" y1="487.013" x2="16.497" y2="487.013"/>
	<rect x="16.382" y="484.282" class="st1" width="6.968" height="16.383"/>
	<line class="st1" x1="112.252" y1="497.935" x2="105.242" y2="497.935"/>
	<line class="st1" x1="112.252" y1="495.205" x2="105.242" y2="495.205"/>
	<line class="st1" x1="112.252" y1="492.474" x2="105.242" y2="492.474"/>
	<line class="st1" x1="112.252" y1="489.744" x2="105.242" y2="489.744"/>
	<line class="st1" x1="112.252" y1="487.013" x2="105.242" y2="487.013"/>
	<rect x="105.127" y="484.282" class="st1" width="6.969" height="16.383"/>
	<path class="st1" d="M72.483,360.03c-0.332,0-0.601,0.226-0.601,0.509"/>
	<line class="st1" x1="79.755" y1="360.03" x2="72.483" y2="360.03"/>
	<line class="st1" x1="71.883" y1="360.54" x2="71.883" y2="362.515"/>
	<line class="st1" x1="71.883" y1="362.515" x2="57.59" y2="362.515"/>
	<path class="st1" d="M57.59,360.54c0-0.284-0.265-0.509-0.597-0.509"/>
	<line class="st1" x1="57.59" y1="362.515" x2="57.59" y2="360.54"/>
	<line class="st1" x1="56.993" y1="360.03" x2="49.679" y2="360.03"/>
	<line class="st1" x1="64.897" y1="372.206" x2="64.897" y2="359.848"/>
	<line class="st1" x1="64.607" y1="372.206" x2="64.607" y2="359.848"/>
	<line class="st1" x1="79.416" y1="371.574" x2="64.897" y2="371.574"/>
	<line class="st1" x1="64.897" y1="359.848" x2="64.607" y2="359.848"/>
	<line class="st1" x1="64.897" y1="372.206" x2="64.607" y2="372.206"/>
	<line class="st1" x1="64.607" y1="371.574" x2="49.564" y2="371.574"/>
	<line class="st1" x1="64.607" y1="370.266" x2="58.209" y2="370.266"/>
	<line class="st1" x1="64.607" y1="368.956" x2="58.209" y2="368.956"/>
	<line class="st1" x1="64.607" y1="367.645" x2="58.209" y2="367.645"/>
	<line class="st1" x1="64.607" y1="366.335" x2="58.209" y2="366.335"/>
	<line class="st1" x1="64.607" y1="365.025" x2="58.209" y2="365.025"/>
	<line class="st1" x1="64.607" y1="363.715" x2="58.209" y2="363.715"/>
	<line class="st1" x1="64.607" y1="361.096" x2="57.63" y2="361.096"/>
	<line class="st1" x1="71.295" y1="370.266" x2="64.897" y2="370.266"/>
	<line class="st1" x1="71.295" y1="368.956" x2="64.897" y2="368.956"/>
	<line class="st1" x1="71.295" y1="367.645" x2="64.897" y2="367.645"/>
	<line class="st1" x1="71.295" y1="366.335" x2="64.897" y2="366.335"/>
	<line class="st1" x1="71.295" y1="365.025" x2="64.897" y2="365.025"/>
	<line class="st1" x1="71.295" y1="363.715" x2="64.897" y2="363.715"/>
	<line class="st1" x1="71.927" y1="361.096" x2="64.897" y2="361.096"/>
	<line class="st1" x1="49.512" y1="361.32" x2="57.045" y2="361.32"/>
	<line class="st1" x1="49.614" y1="362.613" x2="57.835" y2="362.613"/>
	<line class="st1" x1="49.461" y1="363.901" x2="57.045" y2="363.901"/>
	<line class="st1" x1="49.614" y1="365.192" x2="57.015" y2="365.192"/>
	<line class="st1" x1="71.864" y1="361.32" x2="79.621" y2="361.32"/>
	<line class="st1" x1="71.813" y1="362.613" x2="79.674" y2="362.613"/>
	<line class="st1" x1="72.457" y1="363.901" x2="79.725" y2="363.901"/>
	<line class="st1" x1="72.457" y1="365.192" x2="79.674" y2="365.192"/>
	<path class="st1" d="M56.946,372.354c0,0.272,0.261,0.494,0.582,0.494s0.581-0.222,0.581-0.494l0,0"/>
	<line class="st1" x1="58.109" y1="372.354" x2="58.109" y2="372.206"/>
	<line class="st1" x1="56.946" y1="372.354" x2="56.946" y2="372.206"/>
	<path class="st1" d="M71.295,372.354c0,0.272,0.26,0.494,0.578,0.494c0.323,0,0.584-0.222,0.584-0.494l0,0"/>
	<line class="st1" x1="72.457" y1="372.354" x2="72.457" y2="372.206"/>
	<line class="st1" x1="71.295" y1="372.354" x2="71.295" y2="372.206"/>
	<line class="st1" x1="57.536" y1="372.206" x2="57.536" y2="362.639"/>
	<line class="st1" x1="49.666" y1="367.775" x2="57.045" y2="367.775"/>
	<line class="st1" x1="49.666" y1="369.062" x2="57.045" y2="369.062"/>
	<line class="st1" x1="49.717" y1="370.355" x2="57.045" y2="370.355"/>
	<line class="st1" x1="49.614" y1="366.482" x2="57.045" y2="366.482"/>
	<line class="st1" x1="71.866" y1="372.206" x2="71.866" y2="362.465"/>
	<line class="st1" x1="72.457" y1="367.775" x2="79.621" y2="367.775"/>
	<line class="st1" x1="72.457" y1="369.062" x2="79.57" y2="369.062"/>
	<line class="st1" x1="72.457" y1="370.355" x2="79.52" y2="370.355"/>
	<line class="st1" x1="72.376" y1="366.482" x2="79.777" y2="366.482"/>
	<polygon class="st1" points="36.181,501.388 36.181,505.13 93.231,505.13 93.231,501.388 93.231,467.411 36.181,467.411 	"/>
	<path class="st1" d="M95.744,695.439c0,0,0.115,4.129-4.016,4.129c-4.129,0-55.619,0-55.619,0s-3.887-0.465-3.887-4.252
		c0-3.786,0-46.627,0-46.627s-0.531-4.496,4.496-4.496c0.035,0,0-122.679,0-122.679s0.221-4.368,4.369-4.368s45.906,0,45.906,0
		s4.086,0.411,4.086,4.085c0,3.674,0,123.138,0,123.138s4.666-0.258,4.666,4.51C95.746,653.647,95.744,695.439,95.744,695.439
		L95.744,695.439z"/>
	<line class="st1" x1="52.662" y1="392.457" x2="52.662" y2="402.097"/>
	<line class="st1" x1="75.152" y1="392.173" x2="75.152" y2="401.813"/>
	<line class="st1" x1="60.59" y1="392.173" x2="60.59" y2="401.813"/>
	<line class="st1" x1="67.494" y1="392.173" x2="67.494" y2="401.813"/>
	<polyline class="st1" points="38.387,392.726 38.387,385.674 40.082,383.694 	"/>
	<polyline class="st1" points="90.98,390.199 90.98,385.674 89.285,383.695 	"/>
	<polyline class="st1" points="45.139,401.669 45.139,392.216 82.961,392.241 82.961,401.87 	"/>
	<path class="st1" d="M38.361,403.192v-10.951h1.939v9.636H60.41h7.014h20.135v-9.636l0,0h5.34v7.137l-2.182,0.009
		c0,0,0.286,1.808,0.049,3.644"/>
	<polyline class="st1" points="83.348,338.612 83.348,378.604 86.457,381.149 	"/>
	<polyline class="st1" points="46.021,359.093 49.43,359.104 49.43,374.947 79.777,374.947 79.777,359.114 79.777,359.093 
		83.348,359.093 	"/>
	<polyline class="st1" points="43.76,380.584 46.021,378.604 46.021,338.612 	"/>
	<line class="st1" x1="38.073" y1="402.885" x2="90.621" y2="402.885"/>
	<path class="st0" d="M99.01,78.57c0.739-24.877,0.307-42.843-5.355-55.772C87.42,8.564,75.413,0,64.509,0
		c-10.904,0-23.7,8.217-29.071,22.797c-5.355,14.535-5.555,30.038-5.356,54.854l-0.153,40.083c-8.327,0-12.432,0-12.432,0
		s-16.881-1.627-16.862,12.83c0.023,16.719,0,122.635,0,122.635s21.205-8.499,63.408-8.499c42.2,0,64.419,8.719,64.419,8.719
		l-0.153-122.521c0,0,0.359-12.702-13.836-13.165c-2.075-0.068-8.745,0.158-15.387,0.158L99.01,78.57z"/>
	<path class="st1" d="M107.115,181.234h6.937 M107.115,182.989h6.937 M107.115,184.746h6.937 M107.115,186.501h6.937
		 M107.115,188.255h6.937 M107.115,190.012h6.937 M107.115,191.766h6.937 M107.115,193.522h6.937 M107.115,195.28h6.937
		 M107.115,197.034h6.937 M107.115,198.788h6.937 M107.115,200.545h6.937 M107.115,202.299h6.937"/>
	<path class="st1" d="M31.808,117.884h6.937 M31.808,119.639h6.937 M31.808,121.396h6.937 M31.808,123.151h6.937 M31.808,124.905
		h6.937 M31.808,126.662h6.937 M31.808,128.416h6.937 M31.808,130.172h6.937 M31.808,131.93h6.937 M31.808,133.684h6.937
		 M31.808,135.438h6.937 M31.808,137.195h6.937 M31.808,138.949h6.937"/>
	<path class="st1" d="M13.072,181.327h6.937 M13.072,183.082h6.937 M13.072,184.839h6.937 M13.072,186.593h6.937 M13.072,188.348
		h6.937 M13.072,190.105h6.937 M13.072,191.859h6.937 M13.072,193.615h6.937 M13.072,195.372h6.937 M13.072,197.126h6.937
		 M13.072,198.88h6.937 M13.072,200.638h6.937 M13.072,202.392h6.937"/>
	<path class="st1" d="M90.32,159.88l2.38,2.381v17.459H36.091v-17.327l2.779-2.778V46.545c0,0-0.267-31.346,25.526-31.346
		c25.791,0,25.939,29.993,25.939,31.579c0,1.587-0.015,96.85-0.015,96.85V159.88z"/>
	<path class="st1" d="M114.087,202.497v-21.642 M107.169,202.497v-21.642"/>
	<path class="st1" d="M38.78,139.147v-21.642 M31.861,139.147v-21.642"/>
	<path class="st1" d="M20.043,202.59v-21.642 M13.125,202.59v-21.642"/>
	<polygon class="st1" points="61.33,238.697 67.243,238.697 65.783,241.582 65.783,244.789 62.69,244.771 62.737,241.582 	"/>
	<path class="st2" d="M44.02,211.898h0.847c0.944,0,1.823,0.384,1.823,1.423v0.04c0,0.72-0.407,1.071-0.808,1.263
		c0.472,0.208,0.88,0.536,0.88,1.248v0.072c0,0.992-0.768,1.551-1.855,1.551H44.02V211.898z M45.012,214.249
		c0.432,0,0.72-0.248,0.72-0.736v-0.016c0-0.488-0.288-0.696-0.72-0.696h-0.017v1.447H45.012z M45.02,216.592
		c0.447,0,0.768-0.264,0.768-0.728v-0.04c0-0.464-0.32-0.728-0.768-0.728h-0.024v1.496H45.02z M47.188,211.898h0.975v5.597h-0.975
		V211.898z M48.756,211.898h0.968l0.688,2.047l0.688-2.047h0.968v5.597h-0.936v-3.382l-0.712,2.119h-0.016l-0.712-2.119v3.382
		h-0.936V211.898z M52.66,211.898h0.976v5.597H52.66V211.898z M54.228,211.898h0.912l0.983,2.831v-2.831h0.951v5.597h-0.863
		l-1.031-2.966v2.966h-0.952V211.898z M57.668,211.898h0.976v5.597h-0.976V211.898z M60.508,211.898h0.848
		c0.943,0,1.823,0.384,1.823,1.423v0.04c0,0.72-0.408,1.071-0.808,1.263c0.472,0.208,0.879,0.536,0.879,1.248v0.072
		c0,0.992-0.768,1.551-1.854,1.551h-0.888V211.898z M61.499,214.249c0.432,0,0.72-0.248,0.72-0.736v-0.016
		c0-0.488-0.288-0.696-0.72-0.696h-0.016v1.447H61.499z M61.508,216.592c0.447,0,0.768-0.264,0.768-0.728v-0.04
		c0-0.464-0.32-0.728-0.768-0.728h-0.024v1.496H61.508z M64.403,211.882h1.04l1.062,5.613h-0.975l-0.185-1.111h-0.888l-0.176,1.111
		H63.34L64.403,211.882z M65.203,215.504l-0.296-1.847l-0.304,1.847H65.203z M66.804,211.898h1.008c0.999,0,1.727,0.528,1.727,1.783
		v0.072c0,0.728-0.287,1.191-0.655,1.471l0.752,2.271h-1.04l-0.632-1.951h-0.184v1.951h-0.976V211.898z M67.827,214.664
		c0.424,0,0.735-0.248,0.735-0.903v-0.064c0-0.704-0.335-0.888-0.759-0.888h-0.024v1.855H67.827z M71.076,216.064v-0.048
		c0-0.68,0.319-1.184,0.855-1.647c-0.312-0.503-0.472-0.879-0.472-1.271v-0.056c0-0.671,0.464-1.223,1.159-1.223
		c0.68,0,1.127,0.496,1.127,1.215v0.056c0,0.64-0.304,1.087-0.791,1.503l0.504,0.959c0.04-0.176,0.071-0.416,0.119-0.751
		l0.752,0.136c-0.072,0.632-0.2,1.08-0.359,1.439l0.463,0.792l-0.703,0.432l-0.271-0.496c-0.265,0.295-0.552,0.472-1.04,0.472
		C71.699,217.575,71.076,216.975,71.076,216.064z M73.043,216.464l-0.704-1.392c-0.208,0.256-0.327,0.592-0.327,0.872v0.064
		c0,0.432,0.208,0.72,0.527,0.72C72.747,216.727,72.907,216.631,73.043,216.464z M72.571,213.937
		c0.248-0.24,0.344-0.528,0.344-0.823v-0.064c0-0.271-0.128-0.447-0.312-0.447c-0.192,0-0.312,0.176-0.312,0.416v0.08
		C72.291,213.321,72.379,213.569,72.571,213.937z M75.908,214.792V214.6c0-1.807,0.768-2.742,1.87-2.742
		c0.296,0,0.544,0.064,0.744,0.16v1.016c-0.24-0.144-0.456-0.24-0.712-0.24c-0.56,0-0.911,0.56-0.911,1.767v0.272
		c0,1.463,0.432,1.799,0.831,1.799c0.032,0,0.04,0,0.088-0.008v-1.431h-0.479v-0.872h1.367v2.975c-0.352,0.152-0.64,0.24-1.016,0.24
		C76.715,217.535,75.908,216.743,75.908,214.792z M79.244,211.898h1.007c1,0,1.728,0.528,1.728,1.783v0.072
		c0,0.728-0.288,1.191-0.656,1.471l0.752,2.271h-1.039l-0.632-1.951h-0.185v1.951h-0.975V211.898z M80.268,214.664
		c0.424,0,0.735-0.248,0.735-0.903v-0.064c0-0.704-0.336-0.888-0.76-0.888h-0.024v1.855H80.268z M82.443,211.898h0.976v5.597h-0.976
		V211.898z M84.012,211.898h0.976v4.67h1.031v0.927h-2.007V211.898z M86.411,211.898h0.976v4.67h1.031v0.927h-2.007V211.898z"/>
	<path class="st2" d="M48.607,474.912v-1.016c0.344,0.2,0.616,0.312,0.88,0.312c0.28,0,0.52-0.136,0.52-0.479v-0.016
		c0-0.256-0.08-0.448-0.544-0.976c-0.663-0.751-0.936-1.111-0.936-1.791v-0.016c0-0.896,0.584-1.463,1.359-1.463
		c0.393,0,0.624,0.056,0.864,0.176v1.016c-0.304-0.176-0.488-0.256-0.744-0.256c-0.271,0-0.504,0.176-0.504,0.479v0.016
		c0,0.264,0.08,0.36,0.544,0.896c0.768,0.887,0.936,1.231,0.936,1.871v0.016c0,0.879-0.615,1.463-1.383,1.463
		C49.216,475.144,48.888,475.048,48.607,474.912z M51.328,469.507h0.871c1.063,0,1.807,0.575,1.807,1.887v0.016
		c0,1.263-0.703,1.863-1.694,1.935h-0.009v1.759h-0.975V469.507z M52.311,472.441c0.407-0.024,0.72-0.32,0.72-1v-0.016
		c0-0.712-0.272-1.016-0.696-1.016h-0.032v2.031H52.311z M54.311,472.449v-0.288c0-1.847,0.6-2.734,1.487-2.734
		s1.487,0.887,1.487,2.734v0.288c0,1.847-0.6,2.734-1.487,2.734S54.311,474.296,54.311,472.449z M56.295,472.449v-0.288
		c0-1.439-0.2-1.839-0.496-1.839s-0.496,0.399-0.496,1.839v0.288c0,1.439,0.2,1.839,0.496,1.839S56.295,473.888,56.295,472.449z
		 M57.768,469.507h1.008c0.999,0,1.727,0.527,1.727,1.783v0.072c0,0.728-0.288,1.191-0.655,1.472l0.751,2.271h-1.039l-0.632-1.951
		h-0.184v1.951h-0.976V469.507z M58.791,472.273c0.424,0,0.735-0.248,0.735-0.903v-0.064c0-0.704-0.336-0.888-0.759-0.888h-0.024
		v1.855H58.791z M61.392,470.434h-0.688v-0.927h2.351v0.927h-0.688v4.669h-0.976V470.434z M63.344,474.912v-1.016
		c0.344,0.2,0.615,0.312,0.879,0.312c0.28,0,0.521-0.136,0.521-0.479v-0.016c0-0.256-0.08-0.448-0.544-0.976
		c-0.664-0.751-0.936-1.111-0.936-1.791v-0.016c0-0.896,0.584-1.463,1.359-1.463c0.392,0,0.623,0.056,0.863,0.176v1.016
		c-0.304-0.176-0.487-0.256-0.743-0.256c-0.272,0-0.504,0.176-0.504,0.479v0.016c0,0.264,0.08,0.36,0.544,0.896
		c0.768,0.887,0.936,1.231,0.936,1.871v0.016c0,0.879-0.616,1.463-1.384,1.463C63.951,475.144,63.623,475.048,63.344,474.912z
		 M67.239,472.401v-0.192c0-1.967,0.728-2.742,1.64-2.742c0.271,0,0.432,0.032,0.64,0.128v1.007c-0.2-0.12-0.36-0.184-0.544-0.184
		c-0.432,0-0.743,0.384-0.743,1.783v0.208c0,1.479,0.312,1.783,0.759,1.783c0.152,0,0.344-0.056,0.544-0.176v0.959
		c-0.224,0.128-0.439,0.168-0.72,0.168C67.919,475.144,67.239,474.352,67.239,472.401z M69.728,472.449v-0.288
		c0-1.847,0.6-2.734,1.487-2.734s1.487,0.887,1.487,2.734v0.288c0,1.847-0.6,2.734-1.487,2.734S69.728,474.296,69.728,472.449z
		 M71.711,472.449v-0.288c0-1.439-0.2-1.839-0.496-1.839s-0.496,0.399-0.496,1.839v0.288c0,1.439,0.2,1.839,0.496,1.839
		S71.711,473.888,71.711,472.449z M73.168,473.473v-3.966h0.967v4.062c0,0.504,0.176,0.704,0.424,0.704s0.424-0.2,0.424-0.704
		v-4.062h0.968v3.966c0,1.175-0.592,1.703-1.392,1.703S73.168,474.648,73.168,473.473z M76.512,469.507h1.007
		c1,0,1.728,0.527,1.728,1.783v0.072c0,0.728-0.288,1.191-0.656,1.472l0.752,2.271h-1.039l-0.632-1.951h-0.184v1.951h-0.976V469.507
		z M77.535,472.273c0.424,0,0.735-0.248,0.735-0.903v-0.064c0-0.704-0.336-0.888-0.76-0.888h-0.023v1.855H77.535z M80.135,470.434
		h-0.688v-0.927h2.351v0.927H81.11v4.669h-0.976V470.434z"/>
	<path class="st2" d="M57.751,407.099v-0.216c0-1.385,0.45-2.051,1.116-2.051c0.665,0,1.115,0.666,1.115,2.051v0.216
		c0,1.385-0.45,2.051-1.115,2.051C58.201,409.15,57.751,408.484,57.751,407.099z M59.238,407.099v-0.216
		c0-1.08-0.149-1.379-0.371-1.379c-0.223,0-0.372,0.3-0.372,1.379v0.216c0,1.079,0.149,1.379,0.372,1.379
		C59.089,408.478,59.238,408.178,59.238,407.099z M60.343,404.892h0.653c0.798,0,1.355,0.432,1.355,1.415v0.012
		c0,0.948-0.527,1.397-1.271,1.451h-0.006v1.319h-0.731V404.892z M61.08,407.092c0.307-0.018,0.54-0.24,0.54-0.75v-0.012
		c0-0.534-0.204-0.762-0.521-0.762h-0.024v1.523H61.08z M62.653,404.892h1.607v0.696h-0.876v1.043h0.773v0.695h-0.773v1.067h0.894
		v0.696h-1.625V404.892z M64.633,404.892h0.684l0.737,2.123v-2.123h0.714v4.198H66.12l-0.773-2.225v2.225h-0.714V404.892z
		 M68.545,405.588h-0.516v-0.696h1.763v0.696h-0.516v3.502h-0.731V405.588z M69.907,407.099v-0.216c0-1.385,0.45-2.051,1.116-2.051
		c0.665,0,1.115,0.666,1.115,2.051v0.216c0,1.385-0.45,2.051-1.115,2.051C70.357,409.15,69.907,408.484,69.907,407.099z
		 M71.395,407.099v-0.216c0-1.08-0.149-1.379-0.371-1.379c-0.223,0-0.372,0.3-0.372,1.379v0.216c0,1.079,0.149,1.379,0.372,1.379
		C71.245,408.478,71.395,408.178,71.395,407.099z M53.272,410.892h0.684c0.936,0,1.47,0.678,1.47,2.027v0.144
		c0,1.349-0.534,2.027-1.47,2.027h-0.684V410.892z M54.034,414.418c0.348,0,0.647-0.306,0.647-1.355v-0.144
		c0-1.049-0.3-1.355-0.647-1.355h-0.03v2.854H54.034z M55.786,410.892h1.607v0.696h-0.876v1.043h0.773v0.695h-0.773v1.067h0.894
		v0.696h-1.625V410.892z M57.634,413.063v-0.144c0-1.475,0.546-2.057,1.229-2.057c0.204,0,0.324,0.024,0.479,0.096v0.756
		c-0.149-0.09-0.27-0.138-0.407-0.138c-0.324,0-0.558,0.288-0.558,1.337v0.156c0,1.109,0.233,1.337,0.569,1.337
		c0.114,0,0.258-0.042,0.408-0.132v0.719c-0.168,0.096-0.33,0.126-0.54,0.126C58.144,415.119,57.634,414.526,57.634,413.063z
		 M59.723,410.892h0.731v1.757l0.594-1.757h0.828l-0.708,1.775l0.72,2.423h-0.815l-0.456-1.589l-0.162,0.462v1.127h-0.731V410.892z
		 M62.051,414.946v-0.761c0.258,0.15,0.462,0.234,0.659,0.234c0.21,0,0.391-0.102,0.391-0.36v-0.012
		c0-0.192-0.061-0.336-0.408-0.731c-0.498-0.564-0.701-0.833-0.701-1.343v-0.012c0-0.671,0.438-1.097,1.019-1.097
		c0.294,0,0.468,0.042,0.648,0.132v0.762c-0.229-0.132-0.366-0.192-0.558-0.192c-0.204,0-0.378,0.132-0.378,0.359v0.012
		c0,0.198,0.06,0.27,0.407,0.672c0.576,0.666,0.702,0.923,0.702,1.403v0.012c0,0.66-0.462,1.097-1.038,1.097
		C62.507,415.119,62.261,415.048,62.051,414.946z M65.044,410.892h0.636c0.708,0,1.367,0.288,1.367,1.067v0.03
		c0,0.54-0.306,0.803-0.605,0.947c0.354,0.156,0.659,0.402,0.659,0.936v0.054c0,0.744-0.575,1.164-1.391,1.164h-0.666V410.892z
		 M65.787,412.655c0.324,0,0.54-0.186,0.54-0.552v-0.012c0-0.366-0.216-0.521-0.54-0.521h-0.012v1.085H65.787z M65.794,414.412
		c0.336,0,0.575-0.198,0.575-0.545v-0.03c0-0.348-0.239-0.545-0.575-0.545h-0.019v1.121H65.794z M67.408,410.892h1.607v0.696H68.14
		v1.043h0.773v0.695H68.14v1.067h0.894v0.696h-1.625V410.892z M69.389,410.892h0.731v3.502h0.773v0.696h-1.505V410.892z
		 M70.966,413.099v-0.216c0-1.385,0.45-2.051,1.116-2.051c0.665,0,1.115,0.666,1.115,2.051v0.216c0,1.385-0.45,2.051-1.115,2.051
		C71.416,415.15,70.966,414.484,70.966,413.099z M72.453,413.099v-0.216c0-1.08-0.149-1.379-0.371-1.379
		c-0.223,0-0.372,0.3-0.372,1.379v0.216c0,1.079,0.149,1.379,0.372,1.379C72.304,414.478,72.453,414.178,72.453,413.099z
		 M73.3,410.892h0.75l0.306,2.573l0.366-2.573h0.678l0.359,2.573l0.312-2.573h0.732l-0.636,4.21h-0.768l-0.349-2.489l-0.348,2.489
		h-0.768L73.3,410.892z"/>
</g>
<g id="DAWN_DECK_14_ROOMS">
	<g id="gDeck143BedroomGardenVilla">
		<g id="hDeck143BedroomGardenVilla">
			<g id="g14500">
				<path id="b14500" class="st3" d="M15.543,432.62H0.504l0.004-29.76l19.188,0.01l6.459,0.005
					C20.901,412.716,15.543,432.62,15.543,432.62z M64.034,423.578c-10.264-0.785-13.828-8.99-13.828-8.99
					c-12.181,0.801-11.612-11.702-11.612-11.702l-12.439-0.01c-5.254,9.841-10.612,29.745-10.612,29.745H0.504L0.5,457.81
					c0.065,2.548-0.571,7.329,7.122,8.731c0.015,0.003-0.024-6.672-0.024-6.672l19.329,0.162l1.304-0.004l35.957,0.055
					L64.034,423.578z M0.236,370.104v32.752l24.743,0.072l0.062-6.5l5.5-5.688l0.125-20.625l0.296,0.002l-0.017-0.014H0.236z
					 M0.236,370.104h30.709l0.017,0.014l8.267,0.06l-0.059-24.504H0.236V370.104z M64.599,298.512
					c-13.842,0-40.071,3.002-50.78,6.659c-2.032,0.694-3.78,1.897-5.282,3.388l30.848,30.044l25.214,0.013
					C64.599,338.616,64.599,302.366,64.599,298.512z M0.236,326.589v19.086H39.17l-0.017-7.072l0.231,0L8.537,308.559
					C2.124,314.929,0.236,326.589,0.236,326.589z"/>
				<path id="p14500" class="st2" d="M43.696,426.527c-3.642,0-6.604,2.962-6.604,6.603s2.962,6.604,6.604,6.604
					s6.604-2.962,6.604-6.604S47.338,426.527,43.696,426.527z M49.219,435.655c-0.47-0.196-0.957-0.399-1.918-0.399
					c-0.961,0-1.448,0.203-1.918,0.399c-0.435,0.181-0.846,0.352-1.687,0.352c-0.841,0-1.252-0.171-1.687-0.352
					c-0.47-0.196-0.957-0.399-1.918-0.399c-0.961,0-1.448,0.203-1.918,0.399c-0.007,0.003-0.015,0.006-0.022,0.009
					c-0.112-0.244-0.212-0.495-0.292-0.756c0.195-0.062,0.376-0.13,0.545-0.201c0.435-0.181,0.846-0.353,1.687-0.353
					s1.252,0.171,1.687,0.353c0.47,0.196,0.957,0.398,1.918,0.398c0.961,0,1.448-0.203,1.918-0.398
					c0.435-0.181,0.846-0.353,1.687-0.353c0.841,0,1.252,0.171,1.687,0.353c0.169,0.071,0.35,0.139,0.546,0.201
					c-0.079,0.26-0.18,0.511-0.292,0.756C49.235,435.661,49.227,435.658,49.219,435.655z M48.963,436.199
					c-0.143,0.245-0.302,0.479-0.476,0.7c-0.309-0.083-0.678-0.142-1.186-0.142c-0.961,0-1.448,0.203-1.918,0.399
					c-0.435,0.181-0.846,0.352-1.687,0.352c-0.841,0-1.252-0.171-1.687-0.352c-0.47-0.196-0.957-0.399-1.918-0.399
					c-0.507,0-0.877,0.059-1.185,0.141c-0.175-0.222-0.333-0.456-0.476-0.7c0.426-0.177,0.837-0.342,1.662-0.342
					c0.841,0,1.252,0.171,1.687,0.352c0.47,0.196,0.957,0.399,1.918,0.399c0.961,0,1.448-0.203,1.918-0.399
					c0.435-0.181,0.846-0.352,1.687-0.352C48.126,435.857,48.537,436.022,48.963,436.199z M49.219,434.152
					c-0.47-0.196-0.957-0.399-1.918-0.399c-0.961,0-1.448,0.203-1.918,0.399c-0.435,0.181-0.846,0.352-1.687,0.352
					c-0.841,0-1.252-0.171-1.687-0.352c-0.47-0.196-0.957-0.399-1.918-0.399c-0.961,0-1.448,0.203-1.918,0.399
					c-0.148,0.062-0.3,0.119-0.461,0.172c-0.056-0.28-0.086-0.568-0.102-0.861c0.3-0.073,0.561-0.162,0.794-0.259
					c0.435-0.181,0.846-0.352,1.687-0.352s1.252,0.171,1.687,0.352c0.47,0.196,0.957,0.399,1.918,0.399
					c0.961,0,1.448-0.203,1.918-0.399c0.435-0.181,0.846-0.352,1.687-0.352c0.841,0,1.252,0.171,1.687,0.352
					c0.233,0.097,0.495,0.186,0.795,0.259c-0.016,0.292-0.046,0.581-0.102,0.86C49.52,434.272,49.368,434.214,49.219,434.152z
					 M49.219,432.65c-0.47-0.196-0.957-0.399-1.918-0.399c-0.961,0-1.448,0.203-1.918,0.399c-0.435,0.181-0.846,0.352-1.687,0.352
					c-0.841,0-1.252-0.171-1.687-0.352c-0.47-0.196-0.957-0.399-1.918-0.399c-0.961,0-1.448,0.203-1.918,0.399
					c-0.177,0.074-0.363,0.139-0.565,0.197c0.014-0.309,0.046-0.614,0.104-0.91c0.255-0.069,0.485-0.149,0.692-0.235
					c0.435-0.181,0.846-0.352,1.687-0.352s1.252,0.171,1.687,0.352c0.47,0.196,0.957,0.399,1.918,0.399
					c0.961,0,1.448-0.203,1.918-0.399c0.435-0.181,0.846-0.352,1.687-0.352c0.841,0,1.252,0.171,1.687,0.352
					c0.207,0.086,0.437,0.166,0.693,0.235c0.059,0.296,0.09,0.601,0.104,0.91C49.583,432.789,49.396,432.724,49.219,432.65z
					 M38.404,430.2c0.435-0.181,0.846-0.352,1.687-0.352s1.252,0.171,1.687,0.352c0.47,0.196,0.957,0.399,1.918,0.399
					c0.961,0,1.448-0.203,1.918-0.399c0.435-0.181,0.846-0.352,1.687-0.352c0.841,0,1.252,0.171,1.687,0.352
					c0.025,0.01,0.052,0.02,0.077,0.03c0.175,0.323,0.319,0.665,0.435,1.019c-0.093-0.034-0.192-0.064-0.281-0.102
					c-0.47-0.196-0.957-0.399-1.918-0.399c-0.961,0-1.448,0.203-1.918,0.399c-0.435,0.181-0.846,0.352-1.687,0.352
					c-0.841,0-1.252-0.171-1.687-0.352c-0.47-0.196-0.957-0.399-1.918-0.399c-0.961,0-1.448,0.203-1.918,0.399
					c-0.089,0.037-0.188,0.067-0.28,0.101c0.115-0.355,0.26-0.696,0.435-1.019C38.352,430.22,38.379,430.211,38.404,430.2z
					 M41.98,427.277c0.416,0.167,0.888,0.318,1.716,0.318c0.827,0,1.299-0.151,1.716-0.318c0.436,0.128,0.851,0.301,1.241,0.518
					c-0.549,0.066-0.924,0.205-1.27,0.349c-0.435,0.181-0.846,0.352-1.687,0.352c-0.841,0-1.252-0.171-1.687-0.352
					c-0.345-0.144-0.72-0.282-1.269-0.349C41.129,427.578,41.545,427.405,41.98,427.277z M39.911,428.352
					c0.059-0.002,0.115-0.006,0.18-0.006c0.841,0,1.252,0.171,1.687,0.352c0.47,0.196,0.957,0.399,1.918,0.399
					c0.961,0,1.448-0.203,1.918-0.399c0.435-0.181,0.846-0.352,1.687-0.352c0.065,0,0.121,0.004,0.181,0.006
					c0.385,0.305,0.73,0.656,1.031,1.044c-0.315-0.086-0.69-0.149-1.212-0.149c-0.961,0-1.448,0.203-1.918,0.399
					c-0.435,0.181-0.846,0.352-1.687,0.352c-0.841,0-1.252-0.171-1.687-0.352c-0.47-0.196-0.957-0.399-1.918-0.399
					c-0.522,0-0.897,0.062-1.211,0.148C39.181,429.008,39.526,428.657,39.911,428.352z M46.96,438.279
					c-0.73,0.044-1.169,0.21-1.577,0.38c-0.435,0.181-0.846,0.352-1.687,0.352c-0.841,0-1.252-0.171-1.687-0.352
					c-0.407-0.17-0.846-0.336-1.576-0.38c-0.388-0.247-0.749-0.533-1.072-0.859c0.207-0.035,0.436-0.061,0.729-0.061
					c0.841,0,1.252,0.171,1.687,0.352c0.47,0.196,0.957,0.399,1.918,0.399c0.961,0,1.448-0.203,1.918-0.399
					c0.435-0.181,0.846-0.352,1.687-0.352c0.294,0,0.523,0.026,0.73,0.062C47.709,437.746,47.348,438.032,46.96,438.279z"/>
				<line id="d14500" class="st4" x1="64.599" y1="298.512" x2="64.599" y2="338.56"/>
				<path id="t14500" class="st2" d="M35.775,311.577l1.207-3.065h0.555l-1.761,4.362l-1.767-4.362h0.555L35.775,311.577z
					 M38.447,312.654H37.94v-4.142h0.506V312.654z M41.078,309.298c-0.15-0.258-0.345-0.39-0.651-0.39
					c-0.324,0-0.679,0.226-0.679,0.588c0,0.324,0.312,0.495,0.566,0.593l0.291,0.116c0.576,0.23,1.007,0.555,1.007,1.247
					c0,0.752-0.571,1.291-1.298,1.291c-0.657,0-1.169-0.495-1.255-1.159l0.512-0.11c-0.005,0.456,0.35,0.786,0.787,0.786
					s0.749-0.374,0.749-0.808c0-0.445-0.351-0.637-0.7-0.786l-0.28-0.121c-0.463-0.203-0.884-0.472-0.884-1.049
					c0-0.67,0.582-1.071,1.196-1.071c0.452,0,0.824,0.226,1.045,0.626L41.078,309.298z M43.38,312.654h-0.506v-3.669h-0.965v-0.473
					h2.436v0.473H43.38V312.654z M45.156,311.616l-0.464,1.038h-0.544l1.939-4.318l1.938,4.318h-0.544l-0.463-1.038H45.156z
					 M46.088,309.468l-0.722,1.675h1.443L46.088,309.468z M26.705,317.167v0.165c0,1.137-0.787,2.011-1.923,2.011
					c-1.137,0-2.052-1-2.052-2.148c0-1.192,0.937-2.17,2.106-2.17c0.63,0,1.255,0.292,1.653,0.802l-0.355,0.346
					c-0.291-0.407-0.781-0.676-1.276-0.676c-0.91,0-1.621,0.752-1.621,1.681c0,0.868,0.7,1.692,1.578,1.692
					c0.63,0,1.309-0.555,1.33-1.23h-1.05v-0.472H26.705z M27.749,318.216l-0.463,1.038h-0.544l1.939-4.318l1.939,4.318h-0.544
					l-0.463-1.038H27.749z M28.681,316.068l-0.722,1.675h1.443L28.681,316.068z M33.597,319.254h-0.614l-1.196-1.752h-0.21v1.752
					H31.07v-4.142h0.614c0.361,0,0.749,0.006,1.072,0.192c0.339,0.203,0.533,0.593,0.533,0.989c0,0.593-0.388,1.088-0.975,1.159
					L33.597,319.254z M31.577,317.073h0.162c0.517,0,1.078-0.099,1.078-0.758c0-0.648-0.604-0.742-1.104-0.742h-0.135V317.073z
					 M34.051,315.112h0.84c1.244,0,2.278,0.67,2.278,2.049c0,1.412-1.013,2.093-2.294,2.093h-0.824V315.112z M34.558,318.781h0.178
					c1.034,0,1.928-0.396,1.928-1.598c0-1.208-0.894-1.599-1.928-1.599h-0.178V318.781z M37.812,315.112h2.181v0.473h-1.675v1.159
					h1.626v0.472h-1.626v1.565h1.675v0.473h-2.181V315.112z M40.642,314.914l3.049,3.258v-3.06h0.507v4.312l-3.049-3.258v3.087
					h-0.507V314.914z M47.929,318.177l1.206-3.065h0.555l-1.761,4.362l-1.768-4.362h0.556L47.929,318.177z M50.6,319.254h-0.507
					v-4.142H50.6V319.254z M51.965,318.781h1.234v0.473h-1.74v-4.142h0.506V318.781z M54.14,318.781h1.233v0.473h-1.739v-4.142
					h0.506V318.781z M56.586,318.216l-0.464,1.038h-0.544l1.939-4.318l1.938,4.318h-0.544l-0.463-1.038H56.586z M57.518,316.068
					l-0.722,1.675h1.443L57.518,316.068z M34.655,322.185l0.28-0.473h0.91v4.142h-0.485v-3.669H34.655z M39.768,324.8v0.45h-0.463
					v0.604H38.82v-0.604h-2.004l2.488-3.713v3.263H39.768z M38.82,323.091h-0.011l-1.142,1.708h1.153V323.091z M41.589,322.185
					l-0.253,0.851l0.285-0.016c0.787,0,1.304,0.687,1.304,1.45c0,0.873-0.668,1.472-1.503,1.472c-0.501,0-1.002-0.27-1.238-0.725
					l0.377-0.363c0.124,0.352,0.538,0.615,0.899,0.615c0.55,0,0.98-0.461,0.98-1.016c0-0.533-0.447-0.983-0.97-0.983
					c-0.285,0-0.582,0.137-0.76,0.368h-0.097l0.625-2.126h1.627v0.473H41.589z M43.362,323.783c0-0.851,0.366-2.159,1.417-2.159
					c1.05,0,1.416,1.308,1.416,2.159c0,0.846-0.371,2.159-1.416,2.159S43.362,324.629,43.362,323.783z M43.847,323.778
					c0,0.571,0.205,1.703,0.933,1.703c0.727,0,0.932-1.132,0.932-1.703s-0.205-1.714-0.932-1.714
					C44.052,322.064,43.847,323.206,43.847,323.778z M46.671,323.783c0-0.851,0.366-2.159,1.416-2.159
					c1.051,0,1.417,1.308,1.417,2.159c0,0.846-0.372,2.159-1.417,2.159S46.671,324.629,46.671,323.783z M47.155,323.778
					c0,0.571,0.205,1.703,0.932,1.703c0.728,0,0.933-1.132,0.933-1.703s-0.205-1.714-0.933-1.714
					C47.36,322.064,47.155,323.206,47.155,323.778z"/>
			</g>
			<g id="g14000">
				<path id="b1400" class="st3" d="M128.654,432.62l0.004,25.19c-0.065,2.548-0.861,8.015-6.805,9.359
					c-0.015,0.003-0.293-7.299-0.293-7.299l-19.329,0.162l-1.304,0.136l-35.957-0.085l0.154-36.505
					c10.264-0.785,13.828-8.99,13.828-8.99c12.029-0.425,11.612-11.702,11.612-11.702l13.314-0.011
					c5.219,9.667,9.334,29.745,9.334,29.745H128.654z M128.654,432.62l-0.004-29.76l-19.188,0.01l-5.584,0.005
					c5.219,9.667,9.334,29.745,9.334,29.745H128.654z M104.885,302.809c-6.791-1.567-26.443-4.148-40.286-4.148
					c0,11.766,0,39.898,0,39.898l26.576,0.013l28.398-28.56C114.445,305.924,108.348,303.609,104.885,302.809z M128.461,326.954
					c0.07-7.447-3.962-13.012-8.888-16.941l-28.398,28.56l0.095,0l-0.014,7.102h37.13
					C128.401,337.612,128.425,330.771,128.461,326.954z M128.385,345.675h-37.13l-0.048,24.335l8.75,0.062l0,0.031h28.4
					C128.361,361.871,128.37,353.236,128.385,345.675z M99.957,370.104l-0.059,20.459l5.241,5.863l0.065,6.459h23.152
					c0,0-0.009-15.498,0-32.781H99.957z"/>
				<path id="p1400" class="st2" d="M87.689,426.527c-3.642,0-6.604,2.962-6.604,6.603s2.962,6.604,6.604,6.604
					s6.604-2.962,6.604-6.604S91.331,426.527,87.689,426.527z M93.212,435.655c-0.47-0.196-0.957-0.399-1.918-0.399
					c-0.961,0-1.448,0.203-1.918,0.399c-0.435,0.181-0.846,0.352-1.687,0.352c-0.841,0-1.252-0.171-1.687-0.352
					c-0.47-0.196-0.957-0.399-1.918-0.399c-0.961,0-1.448,0.203-1.918,0.399c-0.007,0.003-0.015,0.006-0.022,0.009
					c-0.112-0.244-0.212-0.495-0.292-0.756c0.195-0.062,0.376-0.13,0.545-0.201c0.435-0.181,0.846-0.353,1.687-0.353
					s1.252,0.171,1.687,0.353c0.47,0.196,0.957,0.398,1.918,0.398c0.961,0,1.448-0.203,1.918-0.398
					c0.435-0.181,0.846-0.353,1.687-0.353c0.841,0,1.252,0.171,1.687,0.353c0.169,0.071,0.35,0.139,0.546,0.201
					c-0.079,0.26-0.18,0.511-0.292,0.756C93.228,435.661,93.22,435.658,93.212,435.655z M92.956,436.199
					c-0.143,0.245-0.302,0.479-0.476,0.7c-0.309-0.083-0.678-0.142-1.186-0.142c-0.961,0-1.448,0.203-1.918,0.399
					c-0.435,0.181-0.846,0.352-1.687,0.352c-0.841,0-1.252-0.171-1.687-0.352c-0.47-0.196-0.957-0.399-1.918-0.399
					c-0.507,0-0.877,0.059-1.185,0.141c-0.175-0.222-0.333-0.456-0.476-0.7c0.426-0.177,0.837-0.342,1.662-0.342
					c0.841,0,1.252,0.171,1.687,0.352c0.47,0.196,0.957,0.399,1.918,0.399c0.961,0,1.448-0.203,1.918-0.399
					c0.435-0.181,0.846-0.352,1.687-0.352C92.119,435.857,92.53,436.022,92.956,436.199z M93.212,434.152
					c-0.47-0.196-0.957-0.399-1.918-0.399c-0.961,0-1.448,0.203-1.918,0.399c-0.435,0.181-0.846,0.352-1.687,0.352
					c-0.841,0-1.252-0.171-1.687-0.352c-0.47-0.196-0.957-0.399-1.918-0.399c-0.961,0-1.448,0.203-1.918,0.399
					c-0.148,0.062-0.3,0.119-0.461,0.172c-0.056-0.28-0.086-0.568-0.102-0.861c0.3-0.073,0.561-0.162,0.794-0.259
					c0.435-0.181,0.846-0.352,1.687-0.352s1.252,0.171,1.687,0.352c0.47,0.196,0.957,0.399,1.918,0.399
					c0.961,0,1.448-0.203,1.918-0.399c0.435-0.181,0.846-0.352,1.687-0.352c0.841,0,1.252,0.171,1.687,0.352
					c0.233,0.097,0.495,0.186,0.795,0.259c-0.016,0.292-0.046,0.581-0.102,0.86C93.513,434.272,93.361,434.214,93.212,434.152z
					 M93.212,432.65c-0.47-0.196-0.957-0.399-1.918-0.399c-0.961,0-1.448,0.203-1.918,0.399c-0.435,0.181-0.846,0.352-1.687,0.352
					c-0.841,0-1.252-0.171-1.687-0.352c-0.47-0.196-0.957-0.399-1.918-0.399c-0.961,0-1.448,0.203-1.918,0.399
					c-0.177,0.074-0.363,0.139-0.565,0.197c0.014-0.309,0.046-0.614,0.104-0.91c0.255-0.069,0.485-0.149,0.692-0.235
					c0.435-0.181,0.846-0.352,1.687-0.352s1.252,0.171,1.687,0.352c0.47,0.196,0.957,0.399,1.918,0.399
					c0.961,0,1.448-0.203,1.918-0.399c0.435-0.181,0.846-0.352,1.687-0.352c0.841,0,1.252,0.171,1.687,0.352
					c0.207,0.086,0.437,0.166,0.693,0.235c0.059,0.296,0.09,0.601,0.104,0.91C93.576,432.789,93.389,432.724,93.212,432.65z
					 M82.397,430.2c0.435-0.181,0.846-0.352,1.687-0.352s1.252,0.171,1.687,0.352c0.47,0.196,0.957,0.399,1.918,0.399
					c0.961,0,1.448-0.203,1.918-0.399c0.435-0.181,0.846-0.352,1.687-0.352c0.841,0,1.252,0.171,1.687,0.352
					c0.025,0.01,0.052,0.02,0.077,0.03c0.175,0.323,0.319,0.665,0.435,1.019c-0.093-0.034-0.192-0.064-0.281-0.102
					c-0.47-0.196-0.957-0.399-1.918-0.399c-0.961,0-1.448,0.203-1.918,0.399c-0.435,0.181-0.846,0.352-1.687,0.352
					c-0.841,0-1.252-0.171-1.687-0.352c-0.47-0.196-0.957-0.399-1.918-0.399c-0.961,0-1.448,0.203-1.918,0.399
					c-0.089,0.037-0.188,0.067-0.28,0.101c0.115-0.355,0.26-0.696,0.435-1.019C82.345,430.22,82.373,430.211,82.397,430.2z
					 M85.973,427.277c0.416,0.167,0.888,0.318,1.716,0.318c0.827,0,1.299-0.151,1.716-0.318c0.436,0.128,0.851,0.301,1.241,0.518
					c-0.549,0.066-0.924,0.205-1.27,0.349c-0.435,0.181-0.846,0.352-1.687,0.352c-0.841,0-1.252-0.171-1.687-0.352
					c-0.345-0.144-0.72-0.282-1.269-0.349C85.123,427.578,85.538,427.405,85.973,427.277z M83.904,428.352
					c0.059-0.002,0.115-0.006,0.18-0.006c0.841,0,1.252,0.171,1.687,0.352c0.47,0.196,0.957,0.399,1.918,0.399
					c0.961,0,1.448-0.203,1.918-0.399c0.435-0.181,0.846-0.352,1.687-0.352c0.065,0,0.121,0.004,0.181,0.006
					c0.385,0.305,0.73,0.656,1.031,1.044c-0.315-0.086-0.69-0.149-1.212-0.149c-0.961,0-1.448,0.203-1.918,0.399
					c-0.435,0.181-0.846,0.352-1.687,0.352c-0.841,0-1.252-0.171-1.687-0.352c-0.47-0.196-0.957-0.399-1.918-0.399
					c-0.522,0-0.897,0.062-1.211,0.148C83.174,429.008,83.519,428.657,83.904,428.352z M90.953,438.279
					c-0.73,0.044-1.169,0.21-1.577,0.38c-0.435,0.181-0.846,0.352-1.687,0.352c-0.841,0-1.252-0.171-1.687-0.352
					c-0.407-0.17-0.846-0.336-1.576-0.38c-0.388-0.247-0.749-0.533-1.072-0.859c0.207-0.035,0.436-0.061,0.729-0.061
					c0.841,0,1.252,0.171,1.687,0.352c0.47,0.196,0.957,0.399,1.918,0.399c0.961,0,1.448-0.203,1.918-0.399
					c0.435-0.181,0.846-0.352,1.687-0.352c0.294,0,0.523,0.026,0.73,0.062C91.702,437.746,91.341,438.032,90.953,438.279z"/>
				<line id="d1400" class="st4" x1="64.599" y1="298.512" x2="64.599" y2="338.56"/>
				<path id="t14000" class="st2" d="M77.987,310.945v-1.67h0.507v4.142h-0.507v-1.988h-1.934v1.988h-0.506v-4.142h0.506v1.67
					H77.987z M83.35,311.345c0,1.23-0.953,2.159-2.127,2.159c-1.175,0-2.128-0.928-2.128-2.159c0-1.187,0.964-2.159,2.128-2.159
					C82.386,309.187,83.35,310.159,83.35,311.345z M82.844,311.345c0-0.912-0.668-1.675-1.621-1.675
					c-0.954,0-1.622,0.763-1.622,1.675c0,0.945,0.744,1.675,1.622,1.675S82.844,312.29,82.844,311.345z M86.503,313.416H85.89
					l-1.196-1.752h-0.21v1.752h-0.506v-4.142h0.613c0.361,0,0.749,0.005,1.072,0.192c0.34,0.204,0.533,0.593,0.533,0.989
					c0,0.593-0.388,1.088-0.975,1.159L86.503,313.416z M84.483,311.236h0.162c0.517,0,1.077-0.099,1.077-0.758
					c0-0.648-0.604-0.742-1.104-0.742h-0.135V311.236z M87.478,313.416h-0.506v-4.142h0.506V313.416z M90.844,312.944v0.473h-2.882
					l2.058-3.669h-1.767v-0.472h2.591l-2.058,3.669H90.844z M95.164,311.345c0,1.23-0.953,2.159-2.128,2.159
					c-1.174,0-2.127-0.928-2.127-2.159c0-1.187,0.964-2.159,2.127-2.159C94.2,309.187,95.164,310.159,95.164,311.345z
					 M94.657,311.345c0-0.912-0.667-1.675-1.621-1.675c-0.953,0-1.621,0.763-1.621,1.675c0,0.945,0.743,1.675,1.621,1.675
					S94.657,312.29,94.657,311.345z M95.765,309.076l3.049,3.258v-3.06h0.507v4.312l-3.049-3.257v3.087h-0.507V309.076z
					 M72.315,317.929v0.165c0,1.137-0.786,2.011-1.923,2.011s-2.053-1-2.053-2.148c0-1.192,0.938-2.17,2.106-2.17
					c0.63,0,1.255,0.292,1.653,0.802l-0.355,0.346c-0.291-0.407-0.781-0.676-1.276-0.676c-0.91,0-1.621,0.752-1.621,1.681
					c0,0.868,0.7,1.692,1.578,1.692c0.63,0,1.309-0.555,1.33-1.23h-1.05v-0.472H72.315z M73.359,318.978l-0.463,1.038h-0.545
					l1.939-4.318l1.939,4.318h-0.544l-0.464-1.038H73.359z M74.291,316.83l-0.722,1.675h1.443L74.291,316.83z M79.207,320.016
					h-0.614l-1.195-1.752h-0.21v1.752h-0.507v-4.142h0.614c0.361,0,0.749,0.006,1.072,0.192c0.339,0.203,0.533,0.593,0.533,0.989
					c0,0.593-0.388,1.088-0.976,1.159L79.207,320.016z M77.187,317.836h0.161c0.518,0,1.077-0.099,1.077-0.758
					c0-0.648-0.603-0.742-1.104-0.742h-0.135V317.836z M79.661,315.874h0.841c1.244,0,2.278,0.67,2.278,2.049
					c0,1.412-1.013,2.093-2.295,2.093h-0.824V315.874z M80.168,319.544h0.178c1.034,0,1.929-0.396,1.929-1.598
					c0-1.208-0.895-1.599-1.929-1.599h-0.178V319.544z M83.423,315.874h2.182v0.473h-1.676v1.159h1.627v0.472h-1.627v1.565h1.676
					v0.473h-2.182V315.874z M86.252,315.676l3.049,3.258v-3.06h0.507v4.312l-3.049-3.258v3.087h-0.507V315.676z M93.539,318.94
					l1.206-3.065H95.3l-1.761,4.362l-1.768-4.362h0.556L93.539,318.94z M96.21,320.016h-0.507v-4.142h0.507V320.016z
					 M97.576,319.544h1.233v0.473h-1.74v-4.142h0.507V319.544z M99.75,319.544h1.233v0.473h-1.739v-4.142h0.506V319.544z
					 M102.196,318.978l-0.464,1.038h-0.544l1.939-4.318l1.938,4.318h-0.544l-0.463-1.038H102.196z M103.128,316.83l-0.722,1.675
					h1.443L103.128,316.83z M80.228,322.947l0.28-0.473h0.91v4.142h-0.485v-3.669H80.228z M85.341,325.562v0.45h-0.463v0.604h-0.485
					v-0.604h-2.004l2.489-3.713v3.263H85.341z M84.393,323.853h-0.011l-1.142,1.708h1.152V323.853z M85.701,324.545
					c0-0.851,0.367-2.159,1.417-2.159c1.051,0,1.417,1.308,1.417,2.159c0,0.846-0.372,2.159-1.417,2.159
					S85.701,325.391,85.701,324.545z M86.186,324.54c0,0.571,0.204,1.703,0.932,1.703s0.932-1.132,0.932-1.703
					s-0.204-1.714-0.932-1.714S86.186,323.968,86.186,324.54z M89.01,324.545c0-0.851,0.366-2.159,1.417-2.159
					c1.05,0,1.416,1.308,1.416,2.159c0,0.846-0.371,2.159-1.416,2.159S89.01,325.391,89.01,324.545z M89.495,324.54
					c0,0.571,0.204,1.703,0.932,1.703c0.727,0,0.932-1.132,0.932-1.703s-0.205-1.714-0.932-1.714
					C89.699,322.826,89.495,323.968,89.495,324.54z M92.318,324.545c0-0.851,0.366-2.159,1.416-2.159
					c1.051,0,1.417,1.308,1.417,2.159c0,0.846-0.372,2.159-1.417,2.159S92.318,325.391,92.318,324.545z M92.803,324.54
					c0,0.571,0.205,1.703,0.932,1.703c0.728,0,0.933-1.132,0.933-1.703s-0.205-1.714-0.933-1.714
					C93.008,322.826,92.803,323.968,92.803,324.54z"/>
			</g>
		</g>
	</g>
</g>
<g id="DAWN_DECK_14_TOP">
	<path class="st1" d="M95.721,402.885c1.049,2.099,2.325,7.719-1.58,12.619c-2.389,3-5.879,4.609-9.43,4.708l-0.191-4.712
		 M86.056,415.316l1.014,4.571 M89.431,419.108l-1.9-4.277 M88.878,414.062l2.715,3.814 M90.048,413.039l3.416,3.198
		 M90.989,411.807l3.984,2.454 M96.06,412.026l-4.391-1.615 M92.056,408.905l4.627,0.713 M92.138,407.356l4.676-0.223
		 M91.911,405.819l4.537-1.145 M83.929,415.465c0.521,0.097,0.066,0.048,0.592,0.036c2.234-0.045,4.432-1.047,5.934-2.93
		c2.676-3.361,1.284-8.776-0.046-9.686"/>
	<path class="st1" d="M44.168,415.501l-0.191,4.712c-3.553-0.099-7.041-1.708-9.43-4.708c-3.904-4.9-2.658-10.463-1.609-12.562
		 M42.633,415.316l-1.016,4.571 M41.156,414.831l-1.9,4.277 M39.809,414.062l-2.713,3.814 M38.641,413.039l-3.418,3.198
		 M37.697,411.807l-3.984,2.454 M37.02,410.411l-4.393,1.615 M32.004,409.618l4.627-0.713 M36.549,407.356l-4.676-0.223
		 M36.777,405.819l-4.539-1.145 M38.158,402.972c-1.328,0.909-2.6,6.237,0.074,9.599c1.502,1.883,3.701,2.885,5.936,2.93
		c0.525,0.012,0.07,0.061,0.592-0.036"/>
	<path class="st1" d="M90.719,402.62c0,2.25-0.537,5.09-2.872,8.194c-3.041,4.042-8.815,3.798-8.815,3.798
		s-3.604,8.797-14.128,8.893c-10.524,0.095-14.697-8.989-14.697-8.989s-5.947,0.951-9.61-3.962
		c-1.705-2.288-2.002-7.667-2.002-7.667"/>
	<line class="st1" x1="0.578" y1="402.86" x2="38.995" y2="402.86"/>
	<line class="st1" x1="128.903" y1="402.885" x2="90.133" y2="402.885"/>
	<path class="st5" d="M99.01,78.57c0.739-24.877,0.307-42.843-5.355-55.772C87.42,8.564,75.413,0,64.509,0
		c-10.904,0-23.7,8.217-29.071,22.797c-5.355,14.535-5.555,30.038-5.356,54.854l-0.153,40.083c-8.327,0-12.432,0-12.432,0
		s-16.881-1.627-16.862,12.83c0.023,16.719,0,122.635,0,122.635s21.205-8.499,63.408-8.499c42.2,0,64.419,8.719,64.419,8.719
		l-0.153-122.521c0,0,0.359-12.702-13.836-13.165c-2.075-0.068-8.745,0.158-15.387,0.158L99.01,78.57z"/>
	<path class="st5" d="M26.927,459.959v132.356c0,0-8.444-0.109-11.985-0.109c-3.539,0-3.963,3.963-3.963,3.963s0,103.001,0,108.556
		c0,5.557,5.557,5.557,5.557,5.557s93.184,0,96.969,0c3.785,0,4.672-4.492,4.672-4.492s0-104.066,0-109.022
		c0-4.957-4.316-4.318-4.316-4.318l-12.385-0.134l0.01-132.372l20.5-0.028l-0.014,7.134c0,0,6.748,0.329,6.508-11.762l0.07-127.153
		c0,0,0.023-12.734-11.215-19.879c-8.422-5.351-20.482-8.59-52.848-9.743c-3.668-0.13-43.691,0.877-53.414,8.527
		C0.053,315.709,0.52,328.335,0.52,328.335L0.5,457.737c0.066,2.548-0.571,7.329,7.122,8.731c0.015,0.003-0.024-6.525-0.024-6.525
		L26.927,459.959z"/>
	<g id="gDeck14Locations">
		<rect id="_x31_4Aft" y="498.271" class="st6" width="129.049" height="212.01"/>
		<rect id="_x31_4Middle" y="199.321" class="st6" width="129.049" height="298.95"/>
		<rect id="_x31_4Forward" class="st6" width="129.049" height="199.321"/>
	</g>
</g>
</svg>
