<?xml version="1.0" encoding="utf-8"?>
<!-- Generator: Adobe Illustrator 25.4.1, SVG Export Plug-In . SVG Version: 6.00 Build 0)  -->
<svg version="1.1" id="POA_DECK_05" xmlns="http://www.w3.org/2000/svg" xmlns:xlink="http://www.w3.org/1999/xlink" x="0px"
	 y="0px" width="126.2px" height="1073.4px" viewBox="0 0 126.2 1073.4" style="enable-background:new 0 0 126.2 1073.4;"
	 xml:space="preserve">
<style type="text/css">
	.st0{fill:#FFFFFF;}
	.st1{fill:none;stroke:#D5DCE0;stroke-width:0.5;}
	.st2{fill:none;stroke:#D5DCE0;stroke-width:0.5;stroke-miterlimit:4;}
	.st3{fill:#6E8496;}
	.st4{fill:none;}
	.st5{fill:none;stroke:#076FA0;stroke-miterlimit:10;}
</style>
<g id="POA_DECK_05_BOTTOM">
	<path class="st0" d="M125.2,1054.7l-4.8,4.7c0,0,4.4,5.3-0.3,9.8c-4.9,4.6-9.5,0.1-9.5,0.1l-3.7,3.7H18.3l-3.6-3.7
		c0,0-4.7,4.6-9.5-0.1c-4.7-4.5-0.3-9.8-0.3-9.8l-4.3-4.2l-0.1-28.5H19v-42.8H0.6V267.7l0-88.7l0.1-8.3l0.2-6.5l0.1-3.2l0.4-8.9
		l0.1-1.6l0.5-6.5l0.2-1.6l0.6-5.6l0.3-2.4l0.7-4.9l0.6-3.5l0.7-3.9l0.5-2.8l0.7-3.9l0.6-2.8l0.7-3.4l0.4-1.7l0.3-1.4l0.7-3.3
		l0.1-0.4l2-7.8l1.7-5.5l0.6-2l2.7-7.6l0.5-1.5l0.5-1.5l0.1-0.1l0.7-1.9l1.3-3.5l0.7-1.8l2.3-5.7l3.2-7.4l0.8-1.8l0.8-1.7l0.9-1.9
		l0.7-1.6l0.8-1.6l1.4-2.8l0.1-0.3l3.1-5.7l3.2-5.4l3.9-6.4l3.4-5.6l3-4.9l3.3-5.2l2.5-3.8l2.4-2.9l2.7-2.4l1.3-0.8l1.5-0.4l1.7-0.1
		l1.7,0.1L65.9,1l1.3,0.8l2.7,2.4l2.4,2.9l2.5,3.8l3.3,5.2l3,4.9l3.4,5.6l3.9,6.4l3.2,5.4l3.1,5.7l0.1,0.3l1.4,2.8l0.8,1.6l0.7,1.5
		l0.9,2l0.8,1.7l0.8,1.8l3.2,7.4l2.3,5.7l0.7,1.8l1.3,3.5l0.7,1.9l0.1,0.1l0.5,1.5l0.6,1.5l2.7,7.6l0.6,2l1.7,5.5l2,7.8l0.1,0.4
		l0.7,3.3l0.3,1.4l0.4,1.7l0,0.1l0.7,3.3l0.6,2.8l0.7,3.9l1.2,6.7l0.6,3.5l0.7,4.9l0.3,2.4l0.6,5.6l0.2,1.6l0.5,6.5l0.1,1.6l0.4,8.9
		l0.1,3.2l0.3,7.4l0.7,96v716.2h-18.8v42.9h18.2L125.2,1054.7L125.2,1054.7z"/>
	<line class="st1" x1="46.4" y1="303.6" x2="54.8" y2="293.1"/>
	<line class="st1" x1="54.8" y1="303.6" x2="46.3" y2="293.1"/>
	<line class="st1" x1="54.8" y1="303.6" x2="63.2" y2="293.1"/>
	<line class="st1" x1="63.2" y1="303.6" x2="54.7" y2="293.1"/>
	<line class="st1" x1="63.7" y1="303.6" x2="72" y2="293.1"/>
	<line class="st1" x1="72.1" y1="303.6" x2="63.6" y2="293.1"/>
	<line class="st1" x1="72" y1="303.6" x2="80.4" y2="293.1"/>
	<line class="st1" x1="80.4" y1="303.6" x2="72" y2="293.1"/>
	<path class="st1" d="M126.1,288.3l-26.2,0V266h3.5v-6.4h-3.5c0,0,0-4.4,0-5.7c4.6-1.4,23.5-9.9,23.5-9.9s-0.3-26.4-0.2-36.2
		c-1.6-13.9-12.6-55.2-24.5-76.4c-2.5,0-4.1,0-4.1,0v-6.9H32.8l0,7.1c-1.3,0-2.4,0-4.9,0C16,153,5,194.3,3.4,208.2
		c0.2,9.8-0.2,36.2-0.2,36.2s19.2,8,23.8,9.4l-0.2,50.2H19v-3L0.6,301"/>
	<polygon class="st1" points="42.4,245.6 71.4,245.6 71.4,248.6 85.6,248.6 85.6,255.7 89.6,255.7 89.6,303.9 36.5,303.9 
		36.5,255.8 42.4,255.8 	"/>
	<path class="st1" d="M32.7,128.8c0,0,3.4,0.1,6,0c1.4,2.1,8,15.6,24.3,15.6c14.8,0,22.5-10.4,24.5-15.4c1.6,0,7.4,0,7.4,0"/>
	<path class="st1" d="M36.4,251.5c0.4-5.5,3.9-16.6,16.4-16.5c12,0.1,20.4,0.1,20.4,0.1s15.6-0.6,16.9,16.5"/>
	<polyline class="st1" points="43.1,238.2 45.3,241 49.1,238.9 77.1,238.9 83.5,243.4 86.3,241 	"/>
	<polyline class="st1" points="46.2,303.5 46.2,293 80.4,293 80.4,303.5 	"/>
	<line class="st1" x1="54.8" y1="292.9" x2="54.8" y2="303.6"/>
	<line class="st1" x1="63.4" y1="292.9" x2="63.4" y2="303.7"/>
	<line class="st1" x1="71.9" y1="293.1" x2="71.9" y2="303.5"/>
	<polyline class="st1" points="40.1,316.9 40.1,333.3 86.8,333.3 86.8,316.9 	"/>
	<polyline class="st1" points="40,319.2 36.5,319.2 36.5,356.7 44,364.3 59.5,364.3 	"/>
	<polyline class="st1" points="67.4,364.5 89.7,364.5 89.7,319.2 86.9,319.2 	"/>
	<polyline class="st1" points="99.9,288.3 99.9,303.5 107.5,303.5 107.5,315.7 112,315.7 112,320.5 	"/>
	<polyline class="st1" points="126,320.8 100,320.8 100,342 126.2,342 	"/>
	<polyline class="st1" points="126,342 100,342.1 100,416.3 126.2,416.3 	"/>
	<polyline class="st1" points="103.9,416.1 103.9,442.9 115.7,442.9 115.7,447 	"/>
	<line class="st1" x1="126" y1="447.1" x2="100" y2="447.1"/>
	<line class="st1" x1="119.3" y1="425" x2="103.9" y2="425"/>
	<polyline class="st1" points="59.3,381 40.7,381 40.7,377.6 27.1,364.2 27.1,355.6 	"/>
	<polyline class="st1" points="67.5,381.3 89.7,381.3 89.7,415.9 	"/>
	<line class="st1" x1="27.1" y1="348.3" x2="27.1" y2="340.1"/>
	<polyline class="st1" points="36.5,356.7 36.5,339.9 45.8,339.9 	"/>
	<polyline class="st1" points="19,303.9 19,316 14.4,316 14.4,320.3 	"/>
	<polyline class="st1" points="0.2,445.5 38.6,445.5 38.6,421.4 89.8,421.4 89.8,447.3 88.5,447.3 88.5,464.3 77.2,464.3 
		77.2,469.2 46.5,469.2 46.5,445.5 38.6,445.5 	"/>
	<path class="st1" d="M13.9,445.7v18.8c0,0,1.8,0,2.8,0s2.4,1.8,2.4,3.8c0,2,0,31.3,0,32.6c0,1.6-1,3.6-2.4,3.8
		c-1.5,0.3-2.9,0.1-2.9,0.1l-0.1,6.5H0.6"/>
	<line class="st1" x1="41.5" y1="455.8" x2="13.6" y2="455.8"/>
	<line class="st1" x1="27.7" y1="455.8" x2="27.7" y2="445.7"/>
	<path class="st1" d="M41.5,468.9v-23.4V468.9z"/>
	<polyline class="st1" points="29.4,527.1 28.2,530.2 0.4,530.2 	"/>
	<line class="st1" x1="13.5" y1="511.2" x2="13.5" y2="530.2"/>
	<polyline class="st1" points="124.9,511.1 112.9,511.1 112.9,530.1 125.8,530.1 	"/>
	<line class="st1" x1="50.9" y1="594.1" x2="59.3" y2="583.6"/>
	<line class="st1" x1="59.3" y1="594.1" x2="50.8" y2="583.6"/>
	
		<rect x="49.7" y="584.5" transform="matrix(1.499998e-03 -1 1 1.499998e-03 -533.8539 642.8561)" class="st2" width="10.6" height="8.6"/>
	<line class="st1" x1="68" y1="594.1" x2="76.4" y2="583.5"/>
	<line class="st1" x1="76.4" y1="594" x2="67.9" y2="583.5"/>
	<rect x="67.8" y="583.4" class="st1" width="8.6" height="10.6"/>
	<line class="st1" x1="53" y1="571.7" x2="58.7" y2="564.6"/>
	<line class="st1" x1="58.7" y1="571.7" x2="53" y2="564.6"/>
	<path class="st1" d="M52.9,571.6l0-7.1c0,0,1.1-1.1,2.8-1.1s3,1.1,3,1.1l0,7.1L52.9,571.6z"/>
	<line class="st1" x1="68.3" y1="571.7" x2="73.9" y2="564.6"/>
	<line class="st1" x1="73.9" y1="571.7" x2="68.2" y2="564.6"/>
	<path class="st1" d="M68.2,571.6v-7.1c0,0,1.3-1.1,2.8-1.1s3,1.1,3,1.1v7.1H68.2z"/>
	<polyline class="st1" points="42.9,399.3 38.4,399.3 38.4,382.3 40.7,382.3 40.7,381 	"/>
	<polyline class="st1" points="38.2,409.3 42.4,409.3 42.4,421.3 	"/>
	<line class="st1" x1="84.2" y1="414.6" x2="84.2" y2="421.3"/>
	<line class="st1" x1="57.2" y1="414.8" x2="69.4" y2="414.8"/>
	<line class="st1" x1="66.7" y1="415.1" x2="66.7" y2="421.3"/>
	<polyline class="st1" points="41,607.8 41,624.2 85.7,624.2 85.7,607.8 	"/>
	<polyline class="st1" points="59.4,594.1 41,594.1 41,607.8 	"/>
	<path class="st1" d="M67.6,594h22v-2.6c0,0-7.6,1.1-7.6-3.6c0-1.5,0-4.8,0-4.8h-7.9"/>
	<polyline class="st1" points="76.3,541.8 76.3,571.8 73.5,571.8 	"/>
	<polyline class="st1" points="68.4,572 66.4,572 66.4,566.8 60.2,566.8 60.2,572 58.4,572 	"/>
	<polyline class="st1" points="40.4,531.3 39,534.4 42.4,535.8 48.9,572.3 53,572.3 	"/>
	<rect x="0.7" y="571.9" class="st1" width="22.6" height="53.3"/>
	<line class="st1" x1="23.3" y1="617.3" x2="41" y2="617.3"/>
	<polyline class="st1" points="48.9,572.3 43.9,572.3 43.9,580.2 46.3,580.2 46.3,592.3 40.9,592.3 40.9,594.1 	"/>
	<line class="st1" x1="50.9" y1="572.3" x2="50.9" y2="583.4"/>
	<polyline class="st1" points="125.7,595.9 116.2,595.8 116.2,592.8 98.7,592.8 98.7,608.8 125.8,608.8 	"/>
	<polyline class="st1" points="126,624.8 98.9,624.8 98.9,619.1 104.2,619.1 104.2,608.8 	"/>
	<polyline class="st1" points="116.7,609.1 116.7,614.6 103.9,614.6 	"/>
	<polyline class="st1" points="101.2,625.1 101.2,636.3 118.4,644.6 125.8,644.6 	"/>
	<polyline class="st1" points="116.2,866.1 116.2,886.6 110.2,886.6 105.4,885.3 101.2,885.3 100.9,867.3 92.7,867.3 92.7,876.6 
		100.9,876.6 	"/>
	<path class="st1" d="M85.7,607.8h1.4v6c0,0,2.1,0,2.1,2.1s0,8.6,0,8.6H67.4v19.3h-4.2v8.2h17v6.2h-3.2v54.2h3.8v3.5h4v3.8h29.8
		v37.8"/>
	<polyline class="st1" points="114.7,699.3 114.7,655.3 89.7,643.6 89.7,624.7 	"/>
	<polyline class="st1" points="99.9,867.3 99.9,854.8 85.9,854.8 85.9,876.6 76.2,876.6 76.2,854.8 85.9,854.8 	"/>
	<polyline class="st1" points="75.9,858.1 51.4,858.1 51.4,888.3 76.7,888.3 76.7,898.3 89.4,898.3 89.4,900.3 88.2,905.1 
		80.7,904.3 47.7,917.6 42.4,925.3 33.4,928.1 18.9,921.1 18.2,919.1 0.9,922.3 	"/>
	<polyline class="st1" points="125.5,900.1 100.7,900.1 99.9,906.8 88.2,905.1 	"/>
	<line class="st1" x1="55.6" y1="896.9" x2="62.4" y2="888.4"/>
	<line class="st1" x1="62.4" y1="896.9" x2="55.6" y2="888.4"/>
	
		<rect x="54.7" y="889.1" transform="matrix(1.499998e-03 -1 1 1.499998e-03 -833.7213 950.1647)" class="st2" width="8.5" height="6.9"/>
	<line class="st1" x1="64.4" y1="896.9" x2="71.2" y2="888.4"/>
	<line class="st1" x1="71.2" y1="896.9" x2="64.4" y2="888.4"/>
	<rect x="64.3" y="888.3" class="st1" width="6.9" height="8.5"/>
	<line class="st1" x1="85.9" y1="871.8" x2="92.6" y2="871.8"/>
	<line class="st1" x1="114.7" y1="699.3" x2="114.7" y2="719.8"/>
	<line class="st1" x1="59.3" y1="586.4" x2="67.8" y2="586.4"/>
	<polyline class="st1" points="107.5,303.5 110.9,303.5 110.9,288.3 	"/>
	<line class="st1" x1="0.3" y1="335.2" x2="16.9" y2="335.2"/>
	<polyline class="st1" points="20.8,335.1 27.1,335.1 27.1,320.3 0.5,320.3 	"/>
	<polyline class="st1" points="36.5,335 50,335 50,345.3 76.7,345.3 76.7,335.3 89.7,335.3 	"/>
	<line class="st1" x1="85.8" y1="468.8" x2="85.8" y2="464.3"/>
	<line class="st1" x1="83.6" y1="335.5" x2="83.6" y2="340.8"/>
	<line class="st1" x1="76.7" y1="345.3" x2="85.1" y2="345.3"/>
	<polyline class="st1" points="38.4,382.6 38.4,380.2 34.7,380.2 34.7,376.3 36.8,374.1 	"/>
	<polyline class="st1" points="0.6,339.2 16.5,339.2 16.5,335.3 	"/>
	<line class="st1" x1="22.7" y1="340.6" x2="27.2" y2="340.6"/>
	<line class="st1" x1="23.6" y1="347.7" x2="27.1" y2="347.7"/>
	<line class="st1" x1="23.6" y1="356.2" x2="27.1" y2="356.2"/>
	<path class="st1" d="M38.4,455.8c0,0,0,4.4,0,6.2s0.4,2.2,1.6,2.2s1.7,0,1.7,0"/>
	<path class="st1" d="M43.8,543.6c1.5,0,5.9-0.1,7.4-0.6s4-2.5,4.6-4s0.7-4.7-1.1-6.2c-1.5-0.9-1.8,0.5-1.7,1.1
		c0.9,1.5,2.4,0.1,2.4,0.1"/>
	<path class="st1" d="M76.3,543.2c-0.3-0.1-0.6-0.1-0.8-0.2c-1.5-0.5-4-2.5-4.6-4c-0.6-1.5-0.7-4.7,1.1-6.2c1.5-0.9,1.8,0.5,1.7,1.1
		c-0.9,1.5-2.4,0.1-2.4,0.1"/>
	<path class="st1" d="M50.4,572.3v-5.5h0.8V565c0,0,1.5-2.8,4.7-2.8s4.5,2.8,4.5,2.8v0.7h6.1l-0.1-0.8c0,0,1.3-2.8,4.6-2.8
		c2.6,0.1,3.3,1.2,3.3,1.2v-14.5c0,0-3.4-1.2-5.7-3.2c-2.3-2-2.1,0.3-1.8,0.6s0.4,0.6-0.1,1c-0.4,0.4-3.3,2.3-6.5,0.1
		c-0.4-0.4-0.7-0.6-0.3-1.1c0,0-0.1-2.1-1.3-1c-1.2,1.1-3.7,2.9-5.9,3.5c-0.4-1.2-1.3-5.7-1.3-5.7"/>
	<line class="st1" x1="52.3" y1="542.8" x2="54.8" y2="548.1"/>
	<line class="st1" x1="53.1" y1="542.1" x2="56.3" y2="547"/>
	<line class="st1" x1="54" y1="541.5" x2="57.8" y2="546.1"/>
	<line class="st1" x1="54.9" y1="540.6" x2="58.9" y2="545.2"/>
	<line class="st1" x1="74.4" y1="542.8" x2="71.9" y2="548.1"/>
	<line class="st1" x1="73.6" y1="542.1" x2="70.4" y2="547"/>
	<line class="st1" x1="72.8" y1="541.5" x2="69" y2="546.1"/>
	<line class="st1" x1="71.8" y1="540.6" x2="67.8" y2="545.2"/>
	<line class="st1" x1="73.6" y1="548.7" x2="75.5" y2="543"/>
	<path class="st1" d="M63,532c0,0.9,0,4.9,0,5.6c0,0.7,1.1,0.8,1.1-0.1s0-5.6,0-5.6c1-0.5,0.7-2.2-0.8-2.2
		C61.9,529.7,62,531.6,63,532z"/>
	<path class="st1" d="M54,532.7c3-1.2,5.8-1.5,8.2-1.7"/>
	<path class="st1" d="M55.5,533.6c1.2-0.4,5-1.1,7.1-1.1"/>
	<path class="st1" d="M56.1,535.1c1.5-0.4,4.2-1,6.8-1"/>
	<path class="st1" d="M56.4,536.4c1.3-0.2,3.5-0.9,6.4-0.8"/>
	<path class="st1" d="M56.2,538c1.5-0.4,5.1-1,6.7-1"/>
	<path class="st1" d="M72.9,532.6c-3-1.2-5.8-1.5-8.2-1.7"/>
	<path class="st1" d="M71.3,533.5c-1.2-0.4-5-1.1-7.1-1.1"/>
	<path class="st1" d="M70.8,535c-1.5-0.4-4.2-1-6.8-1"/>
	<path class="st1" d="M70.5,536.3c-1.3-0.2-3.5-0.9-6.4-0.8"/>
	<path class="st1" d="M70.7,537.9c-1.5-0.4-5.1-1-6.7-1"/>
	<polyline class="st1" points="0.5,540.3 23,540.3 23,535.5 25.3,530.3 	"/>
	<polyline class="st1" points="40.8,535.2 40.8,542 43.4,542 	"/>
	<line class="st1" x1="29.1" y1="527.7" x2="40" y2="532"/>
	<line class="st1" x1="67.4" y1="643.8" x2="75.8" y2="643.8"/>
	<polyline class="st1" points="114.6,699.7 106.6,699.7 106.6,719.8 	"/>
	<path class="st1" d="M31.9,927.6c-0.1,2.3-1.6,5.7-3,7.7c1,1.1,9.6,7.3,12.5,8.2c0.5-0.5,1.1-1.5,1.1-1.5s2-2.3,4.6-2.8
		c1.9-0.4,3.4-0.4,5.2,0.1c2.6,0.8,5.4,1.8,10.8,1.6s8.3-1,11-1.6s7.1-0.7,9.9,2.1c0.9,0.9,1.4,2.6,1.4,2.6s6.9-2.7,13.2-9.5
		c-0.6-0.7-1.5-1.7-1.7-2c-0.3-0.4-2.5-4.2,0.8-9.3c1.9-3.5,2.7-5,4-8.1c1.3-3.2,3-7.8,3.5-14.8"/>
	<path class="st1" d="M47.7,917.9c3.2,1.9,10.8,3.9,17.7,1.2c5.4-2.2,10.8-7.4,11.2-13.1"/>
	<path class="st1" d="M49.1,918.5c-1.1,3-1.4,9.8,5.3,12.4c4.3,1.7,16.2,0.6,21.9-3.8c0,0,1,0.2,1.4,0.4c0.6,0.3,1.1,1.8,0.9,2.3
		c-0.5,1.5-1.8,0.5-1.7-0.3"/>
	<path class="st1" d="M75.6,916.1c-0.6-0.9,0.8-2.2,1.8-0.9c0.7,0.9-0.1,1.9-0.5,2.5s-1.3,0.6-2.2,1.7c-0.6,0.7-1.3,2.3-1.3,2.3
		c-3.8,1.8-9.6,3.8-14.9,3.1l-0.6,6.8"/>
	<path class="st1" d="M84.1,923.3c1-0.6,2.3,1,0.4,1.5c-1.5,0.4-2.8-1.2-3-2.4c-0.2-1.2,0.3-3,2.2-3.4c1.4-0.3,1.3,2,0.2,1.6"/>
	<path class="st1" d="M84.9,922c0,0.5-0.4,0.9-0.9,0.9c-0.5,0-0.9-0.4-0.9-0.9s0.4-0.9,0.9-0.9C84.4,921,84.9,921.5,84.9,922z"/>
	<path class="st1" d="M77.6,915.5c1.3,0,3.9,0.5,5.9,3.4"/>
	<path class="st1" d="M77.5,916.8c0.8,0.1,3.5,0.4,4.7,3"/>
	<path class="st1" d="M76.3,918c1-0.2,4.3,0.5,5.2,3.3"/>
	<path class="st1" d="M78.9,929.9c0.8-0.1,5-1.7,5.6-4.9"/>
	<path class="st1" d="M78.7,928.6c0.8-0.3,3.2-1.1,4.4-3.8"/>
	<path class="st1" d="M77.4,927.4c1,0,4.1-1.3,4.5-4.1"/>
	<line class="st1" x1="73.4" y1="913.3" x2="76.3" y2="914.7"/>
	<line class="st1" x1="73.4" y1="921.7" x2="76.4" y2="927.1"/>
	<line class="st1" x1="71.9" y1="922.5" x2="74.8" y2="928.2"/>
	<line class="st1" x1="70.4" y1="923.1" x2="72.8" y2="929.3"/>
	<line class="st1" x1="68.8" y1="923.5" x2="70.9" y2="929.9"/>
	<line class="st1" x1="67.2" y1="924.1" x2="68.9" y2="930.4"/>
	<line class="st1" x1="65.4" y1="924.6" x2="66.9" y2="931.2"/>
	<line class="st1" x1="63.5" y1="924.8" x2="64.6" y2="931.4"/>
	<line class="st1" x1="61.8" y1="925" x2="62.5" y2="931.6"/>
	<line class="st1" x1="60.1" y1="925" x2="60.1" y2="931.7"/>
	<path class="st1" d="M87,948.4c2.7-2.5,6.9-2.3,9.4,0.4c2.5,2.7,2.3,6.9-0.4,9.4"/>
	<path class="st1" d="M39.6,948.4c-2.7-2.5-6.9-2.3-9.4,0.4c-2.5,2.7-2.3,6.9,0.4,9.4"/>
	<path class="st1" d="M87,1041.3c2.7,2.5,6.9,2.3,9.4-0.4c2.5-2.7,2.3-6.9-0.4-9.4"/>
	<path class="st1" d="M39.6,1041.3c-2.7,2.5-6.9,2.3-9.4-0.4c-2.5-2.7-2.3-6.9,0.4-9.4"/>
	<path class="st1" d="M57.3,950.1c0.1-3.3,2.8-5.9,6.1-5.8c3.3,0.1,5.9,2.8,5.8,6.1"/>
	<polyline class="st1" points="33,966.7 33,962.8 29.9,962.8 29.9,978.8 33,978.8 	"/>
	<polyline class="st1" points="33.1,983.6 30.1,983.6 30.1,1005.9 33,1005.9 	"/>
	<polyline class="st1" points="32.9,1010.7 30.1,1010.7 30.1,1026.6 32.8,1026.6 32.8,1023.7 	"/>
	<polyline class="st1" points="38.1,983.5 39.9,983.5 39.9,1006 38.3,1006 	"/>
	<polyline class="st1" points="38.3,1010.8 39.9,1010.8 39.9,1026.6 38.3,1026.6 	"/>
	<polyline class="st1" points="93.5,966.7 93.5,962.8 96.6,962.8 96.6,978.8 93.5,978.8 	"/>
	<polyline class="st1" points="93.4,983.6 96.4,983.6 96.4,1005.9 93.5,1005.9 	"/>
	<polyline class="st1" points="93.6,1010.7 96.4,1010.7 96.4,1026.6 93.7,1026.6 93.7,1023.7 	"/>
	<polyline class="st1" points="88.5,983.5 86.6,983.5 86.6,1006 88.2,1006 	"/>
	<polyline class="st1" points="88.2,1010.8 86.6,1010.8 86.6,1026.6 88.2,1026.6 	"/>
	<polyline class="st1" points="43.8,1039.6 43.8,1037.1 82.6,1037.1 82.6,1039.6 	"/>
	<line class="st1" x1="51.4" y1="1046.8" x2="75.1" y2="1046.8"/>
	<path class="st1" d="M51.9,1045.6c0,0.8-0.6,1.4-1.4,1.4s-1.4-0.6-1.4-1.4c0-0.8,0.6-1.4,1.4-1.4S51.9,1044.9,51.9,1045.6z"/>
	<path class="st1" d="M77.5,1045.6c0,0.8-0.6,1.4-1.4,1.4s-1.4-0.6-1.4-1.4c0-0.8,0.6-1.4,1.4-1.4S77.5,1044.9,77.5,1045.6z"/>
	<path class="st1" d="M75.4,317.7c-0.5,0-0.9,0.2-0.9,0.5"/>
	<line class="st1" x1="86.5" y1="317.7" x2="75.4" y2="317.7"/>
	<line class="st1" x1="74.5" y1="318.2" x2="74.5" y2="320.3"/>
	<line class="st1" x1="74.5" y1="320.3" x2="52.5" y2="320.3"/>
	<path class="st1" d="M52.5,318.2c0-0.3-0.4-0.5-0.9-0.5"/>
	<line class="st1" x1="52.5" y1="320.3" x2="52.5" y2="318.2"/>
	<line class="st1" x1="51.6" y1="317.7" x2="40.4" y2="317.7"/>
	<line class="st1" x1="63.7" y1="330.5" x2="63.7" y2="317.5"/>
	<line class="st1" x1="63.3" y1="330.5" x2="63.3" y2="317.5"/>
	<line class="st1" x1="86" y1="329.9" x2="63.7" y2="329.9"/>
	<line class="st1" x1="63.7" y1="317.5" x2="63.3" y2="317.5"/>
	<line class="st1" x1="63.7" y1="330.5" x2="63.3" y2="330.5"/>
	<line class="st1" x1="63.3" y1="329.9" x2="40.2" y2="329.9"/>
	<line class="st1" x1="63.3" y1="328.5" x2="53.5" y2="328.5"/>
	<line class="st1" x1="63.3" y1="327.1" x2="53.5" y2="327.1"/>
	<line class="st1" x1="63.3" y1="325.7" x2="53.5" y2="325.7"/>
	<line class="st1" x1="63.3" y1="324.4" x2="53.5" y2="324.4"/>
	<line class="st1" x1="63.3" y1="323" x2="53.5" y2="323"/>
	<line class="st1" x1="63.3" y1="321.6" x2="53.5" y2="321.6"/>
	<line class="st1" x1="63.3" y1="318.8" x2="52.6" y2="318.8"/>
	<line class="st1" x1="73.6" y1="328.5" x2="63.7" y2="328.5"/>
	<line class="st1" x1="73.6" y1="327.1" x2="63.7" y2="327.1"/>
	<line class="st1" x1="73.6" y1="325.7" x2="63.7" y2="325.7"/>
	<line class="st1" x1="73.6" y1="324.4" x2="63.7" y2="324.4"/>
	<line class="st1" x1="73.6" y1="323" x2="63.7" y2="323"/>
	<line class="st1" x1="73.6" y1="321.6" x2="63.7" y2="321.6"/>
	<line class="st1" x1="74.5" y1="318.8" x2="63.7" y2="318.8"/>
	<line class="st1" x1="40.2" y1="319.1" x2="51.7" y2="319.1"/>
	<line class="st1" x1="40.3" y1="320.4" x2="52.9" y2="320.4"/>
	<line class="st1" x1="40.1" y1="321.8" x2="51.7" y2="321.8"/>
	<line class="st1" x1="40.3" y1="323.1" x2="51.7" y2="323.1"/>
	<line class="st1" x1="74.4" y1="319.1" x2="86.3" y2="319.1"/>
	<line class="st1" x1="74.4" y1="320.4" x2="86.4" y2="320.4"/>
	<line class="st1" x1="75.3" y1="321.8" x2="86.5" y2="321.8"/>
	<line class="st1" x1="75.3" y1="323.1" x2="86.4" y2="323.1"/>
	<path class="st1" d="M51.6,330.7c0,0.3,0.4,0.5,0.9,0.5c0.5,0,0.9-0.2,0.9-0.5l0,0"/>
	<line class="st1" x1="53.3" y1="330.7" x2="53.3" y2="330.5"/>
	<line class="st1" x1="51.6" y1="330.7" x2="51.6" y2="330.5"/>
	<path class="st1" d="M73.6,330.7c0,0.3,0.4,0.5,0.9,0.5c0.5,0,0.9-0.2,0.9-0.5l0,0"/>
	<line class="st1" x1="75.3" y1="330.7" x2="75.3" y2="330.5"/>
	<line class="st1" x1="73.6" y1="330.7" x2="73.6" y2="330.5"/>
	<line class="st1" x1="52.5" y1="330.5" x2="52.5" y2="320.5"/>
	<line class="st1" x1="40.4" y1="325.9" x2="51.7" y2="325.9"/>
	<line class="st1" x1="40.4" y1="327.2" x2="51.7" y2="327.2"/>
	<line class="st1" x1="40.5" y1="328.6" x2="51.7" y2="328.6"/>
	<line class="st1" x1="40.3" y1="324.5" x2="51.7" y2="324.5"/>
	<line class="st1" x1="74.4" y1="330.5" x2="74.4" y2="320.3"/>
	<line class="st1" x1="75.3" y1="325.9" x2="86.3" y2="325.9"/>
	<line class="st1" x1="75.3" y1="327.2" x2="86.2" y2="327.2"/>
	<line class="st1" x1="75.3" y1="328.6" x2="86.2" y2="328.6"/>
	<line class="st1" x1="75.2" y1="324.5" x2="86.6" y2="324.5"/>
	<path class="st1" d="M57.4,875.7c0.3,0,0.5-0.3,0.5-0.6"/>
	<line class="st1" x1="51.4" y1="875.7" x2="57.4" y2="875.7"/>
	<line class="st1" x1="57.9" y1="875.1" x2="57.9" y2="872.8"/>
	<line class="st1" x1="57.9" y1="872.8" x2="69.6" y2="872.8"/>
	<path class="st1" d="M69.6,875.1c0,0.3,0.2,0.6,0.5,0.6"/>
	<line class="st1" x1="69.6" y1="872.8" x2="69.6" y2="875.1"/>
	<line class="st1" x1="70.1" y1="875.7" x2="76.1" y2="875.7"/>
	<line class="st1" x1="63.6" y1="861.8" x2="63.6" y2="875.9"/>
	<line class="st1" x1="63.8" y1="861.8" x2="63.8" y2="875.9"/>
	<line class="st1" x1="51.7" y1="862.6" x2="63.6" y2="862.6"/>
	<line class="st1" x1="63.6" y1="875.9" x2="63.8" y2="875.9"/>
	<line class="st1" x1="63.6" y1="861.8" x2="63.8" y2="861.8"/>
	<line class="st1" x1="63.8" y1="862.6" x2="76.2" y2="862.6"/>
	<line class="st1" x1="63.8" y1="864" x2="69.1" y2="864"/>
	<line class="st1" x1="63.8" y1="865.5" x2="69.1" y2="865.5"/>
	<line class="st1" x1="63.8" y1="867" x2="69.1" y2="867"/>
	<line class="st1" x1="63.8" y1="868.5" x2="69.1" y2="868.5"/>
	<line class="st1" x1="63.8" y1="870" x2="69.1" y2="870"/>
	<line class="st1" x1="63.8" y1="871.5" x2="69.1" y2="871.5"/>
	<line class="st1" x1="63.8" y1="874.4" x2="69.6" y2="874.4"/>
	<line class="st1" x1="58.3" y1="864" x2="63.6" y2="864"/>
	<line class="st1" x1="58.3" y1="865.5" x2="63.6" y2="865.5"/>
	<line class="st1" x1="58.3" y1="867" x2="63.6" y2="867"/>
	<line class="st1" x1="58.3" y1="868.5" x2="63.6" y2="868.5"/>
	<line class="st1" x1="58.3" y1="870" x2="63.6" y2="870"/>
	<line class="st1" x1="58.3" y1="871.5" x2="63.6" y2="871.5"/>
	<line class="st1" x1="57.8" y1="874.4" x2="63.6" y2="874.4"/>
	<line class="st1" x1="76.3" y1="874.2" x2="70.1" y2="874.2"/>
	<line class="st1" x1="76.2" y1="872.7" x2="69.4" y2="872.7"/>
	<line class="st1" x1="76.3" y1="871.3" x2="70.1" y2="871.3"/>
	<line class="st1" x1="76.2" y1="869.8" x2="70.1" y2="869.8"/>
	<line class="st1" x1="57.9" y1="874.2" x2="51.5" y2="874.2"/>
	<line class="st1" x1="57.9" y1="872.7" x2="51.4" y2="872.7"/>
	<line class="st1" x1="57.4" y1="871.3" x2="51.4" y2="871.3"/>
	<line class="st1" x1="57.4" y1="869.8" x2="51.4" y2="869.8"/>
	<path class="st1" d="M70.1,861.7c0-0.3-0.2-0.6-0.5-0.6c-0.3,0-0.5,0.3-0.5,0.6l0,0"/>
	<line class="st1" x1="69.2" y1="861.7" x2="69.2" y2="861.8"/>
	<line class="st1" x1="70.1" y1="861.7" x2="70.1" y2="861.8"/>
	<path class="st1" d="M58.3,861.7c0-0.3-0.2-0.6-0.5-0.6c-0.3,0-0.5,0.3-0.5,0.6l0,0"/>
	<line class="st1" x1="57.4" y1="861.7" x2="57.4" y2="861.8"/>
	<line class="st1" x1="58.3" y1="861.7" x2="58.3" y2="861.8"/>
	<line class="st1" x1="69.7" y1="861.8" x2="69.7" y2="872.7"/>
	<line class="st1" x1="76.1" y1="866.9" x2="70.1" y2="866.9"/>
	<line class="st1" x1="76.1" y1="865.4" x2="70.1" y2="865.4"/>
	<line class="st1" x1="76.1" y1="863.9" x2="70.1" y2="863.9"/>
	<line class="st1" x1="76.2" y1="868.3" x2="70.1" y2="868.3"/>
	<line class="st1" x1="57.9" y1="861.8" x2="57.9" y2="872.9"/>
	<line class="st1" x1="57.4" y1="866.9" x2="51.5" y2="866.9"/>
	<line class="st1" x1="57.4" y1="865.4" x2="51.5" y2="865.4"/>
	<line class="st1" x1="57.4" y1="863.9" x2="51.6" y2="863.9"/>
	<line class="st1" x1="57.4" y1="868.3" x2="51.4" y2="868.3"/>
	<path class="st1" d="M75,608.6c-0.5,0-0.9,0.2-0.9,0.5"/>
	<line class="st1" x1="85.6" y1="608.6" x2="75" y2="608.6"/>
	<line class="st1" x1="74.1" y1="609.1" x2="74.1" y2="611.2"/>
	<line class="st1" x1="74.1" y1="611.2" x2="53.2" y2="611.2"/>
	<path class="st1" d="M53.2,609.1c0-0.3-0.4-0.5-0.9-0.5"/>
	<line class="st1" x1="53.2" y1="611.2" x2="53.2" y2="609.1"/>
	<line class="st1" x1="52.3" y1="608.6" x2="41.6" y2="608.6"/>
	<line class="st1" x1="63.9" y1="621.4" x2="63.9" y2="608.4"/>
	<line class="st1" x1="63.4" y1="621.4" x2="63.4" y2="608.4"/>
	<line class="st1" x1="85.1" y1="620.8" x2="63.9" y2="620.8"/>
	<line class="st1" x1="63.9" y1="608.4" x2="63.4" y2="608.4"/>
	<line class="st1" x1="63.9" y1="621.4" x2="63.4" y2="621.4"/>
	<line class="st1" x1="63.4" y1="620.8" x2="41.4" y2="620.8"/>
	<line class="st1" x1="63.4" y1="619.4" x2="54.1" y2="619.4"/>
	<line class="st1" x1="63.4" y1="618" x2="54.1" y2="618"/>
	<line class="st1" x1="63.4" y1="616.6" x2="54.1" y2="616.6"/>
	<line class="st1" x1="63.4" y1="615.2" x2="54.1" y2="615.2"/>
	<line class="st1" x1="63.4" y1="613.9" x2="54.1" y2="613.9"/>
	<line class="st1" x1="63.4" y1="612.5" x2="54.1" y2="612.5"/>
	<line class="st1" x1="63.4" y1="609.7" x2="53.2" y2="609.7"/>
	<line class="st1" x1="73.2" y1="619.4" x2="63.9" y2="619.4"/>
	<line class="st1" x1="73.2" y1="618" x2="63.9" y2="618"/>
	<line class="st1" x1="73.2" y1="616.6" x2="63.9" y2="616.6"/>
	<line class="st1" x1="73.2" y1="615.2" x2="63.9" y2="615.2"/>
	<line class="st1" x1="73.2" y1="613.9" x2="63.9" y2="613.9"/>
	<line class="st1" x1="73.2" y1="612.5" x2="63.9" y2="612.5"/>
	<line class="st1" x1="74.1" y1="609.7" x2="63.9" y2="609.7"/>
	<line class="st1" x1="41.4" y1="610" x2="52.4" y2="610"/>
	<line class="st1" x1="41.5" y1="611.3" x2="53.5" y2="611.3"/>
	<line class="st1" x1="41.3" y1="612.7" x2="52.4" y2="612.7"/>
	<line class="st1" x1="41.5" y1="614" x2="52.3" y2="614"/>
	<line class="st1" x1="74" y1="610" x2="85.4" y2="610"/>
	<line class="st1" x1="74" y1="611.3" x2="85.5" y2="611.3"/>
	<line class="st1" x1="74.9" y1="612.7" x2="85.5" y2="612.7"/>
	<line class="st1" x1="74.9" y1="614" x2="85.5" y2="614"/>
	<path class="st1" d="M52.2,621.6c0,0.3,0.4,0.5,0.9,0.5c0.5,0,0.8-0.2,0.8-0.5l0,0"/>
	<line class="st1" x1="53.9" y1="621.6" x2="53.9" y2="621.4"/>
	<line class="st1" x1="52.2" y1="621.6" x2="52.2" y2="621.4"/>
	<path class="st1" d="M73.2,621.6c0,0.3,0.4,0.5,0.8,0.5c0.5,0,0.9-0.2,0.9-0.5l0,0"/>
	<line class="st1" x1="74.9" y1="621.6" x2="74.9" y2="621.4"/>
	<line class="st1" x1="73.2" y1="621.6" x2="73.2" y2="621.4"/>
	<line class="st1" x1="53.1" y1="621.4" x2="53.1" y2="611.3"/>
	<line class="st1" x1="41.6" y1="616.8" x2="52.4" y2="616.8"/>
	<line class="st1" x1="41.6" y1="618.1" x2="52.4" y2="618.1"/>
	<line class="st1" x1="41.7" y1="619.5" x2="52.4" y2="619.5"/>
	<line class="st1" x1="41.5" y1="615.4" x2="52.4" y2="615.4"/>
	<line class="st1" x1="74.1" y1="621.4" x2="74.1" y2="611.2"/>
	<line class="st1" x1="74.9" y1="616.8" x2="85.4" y2="616.8"/>
	<line class="st1" x1="74.9" y1="618.1" x2="85.3" y2="618.1"/>
	<line class="st1" x1="74.9" y1="619.5" x2="85.2" y2="619.5"/>
	<line class="st1" x1="74.8" y1="615.4" x2="85.6" y2="615.4"/>
	<polyline class="st1" points="125.7,866.2 110.7,866.2 110.7,757.6 125.7,757.6 	"/>
	<path class="st3" d="M49.4,127.9h1v2.3h0.8v-2.3h1v5.6h-1v-2.4h-0.8v2.4h-1V127.9z M52.7,130.9v-0.3c0-1.8,0.6-2.7,1.5-2.7
		s1.5,0.9,1.5,2.7v0.3c0,1.8-0.6,2.7-1.5,2.7S52.7,132.7,52.7,130.9z M54.6,130.9v-0.3c0-1.4-0.2-1.8-0.5-1.8s-0.5,0.4-0.5,1.8v0.3
		c0,1.4,0.2,1.8,0.5,1.8S54.6,132.3,54.6,130.9z M56.1,127.9h1v4.7h1v0.9h-2V127.9z M58.5,127.9h1v4.7h1v0.9h-2V127.9z M61.3,131.3
		l-1-3.4h1l0.5,2.1l0.5-2.1h1l-1,3.4v2.2h-1V131.3z M63.3,127.9h1l0.4,3.4l0.5-3.4h0.9l0.5,3.4l0.4-3.4h1l-0.8,5.6h-1l-0.5-3.3
		l-0.5,3.3h-1L63.3,127.9z M68.1,130.9v-0.3c0-1.8,0.6-2.7,1.5-2.7c0.9,0,1.5,0.9,1.5,2.7v0.3c0,1.8-0.6,2.7-1.5,2.7
		C68.7,133.6,68.1,132.7,68.1,130.9z M70.1,130.9v-0.3c0-1.4-0.2-1.8-0.5-1.8s-0.5,0.4-0.5,1.8v0.3c0,1.4,0.2,1.8,0.5,1.8
		S70.1,132.3,70.1,130.9z M71.5,130.9v-0.3c0-1.8,0.6-2.7,1.5-2.7s1.5,0.9,1.5,2.7v0.3c0,1.8-0.6,2.7-1.5,2.7
		C72.1,133.6,71.5,132.7,71.5,130.9z M73.5,130.9v-0.3c0-1.4-0.2-1.8-0.5-1.8c-0.3,0-0.5,0.4-0.5,1.8v0.3c0,1.4,0.2,1.8,0.5,1.8
		C73.3,132.7,73.5,132.3,73.5,130.9z M75,127.9h0.9c1.2,0,2,0.9,2,2.7v0.2c0,1.8-0.7,2.7-2,2.7H75V127.9z M76,132.6
		c0.5,0,0.9-0.4,0.9-1.8v-0.2c0-1.4-0.4-1.8-0.9-1.8h0L76,132.6L76,132.6L76,132.6z M54.4,136.9h-0.7v-0.9H56v0.9h-0.7v4.7h-1
		L54.4,136.9L54.4,136.9z M56.5,135.9h1v2.3h0.8v-2.3h1v5.6h-1v-2.4h-0.8v2.4h-1V135.9z M59.8,135.9H62v0.9h-1.2v1.4h1v0.9h-1v1.4
		H62v0.9h-2.2C59.8,141.5,59.8,135.9,59.8,135.9z M63.2,135.9h1l1.1,5.6h-1l-0.2-1.1h-0.9l-0.2,1.1h-0.9L63.2,135.9z M64.1,139.5
		l-0.3-1.8l-0.3,1.8H64.1z M65.9,136.9h-0.7v-0.9h2.4v0.9h-0.7v4.7h-1V136.9z M68,135.9h2.1v0.9H69v1.4h1v0.9h-1v1.4h1.2v0.9H68
		V135.9z M70.6,135.9h1c1,0,1.7,0.5,1.7,1.8v0.1c0,0.7-0.3,1.2-0.7,1.5l0.8,2.3h-1l-0.6-2h-0.2v2h-1L70.6,135.9L70.6,135.9z
		 M71.7,138.7c0.4,0,0.7-0.2,0.7-0.9v-0.1c0-0.7-0.3-0.9-0.8-0.9h0L71.7,138.7L71.7,138.7z"/>
	<path class="st3" d="M53.8,393.5h2v0.9h-1.1v1.4h0.9v0.9h-0.9v2.3h-1V393.5z M56.9,393.4h1l1.1,5.6h-1l-0.2-1.1h-0.9l-0.2,1.1h-0.9
		L56.9,393.4z M57.7,397.1l-0.3-1.8l-0.3,1.8H57.7z M59.2,398.9v-1c0.3,0.2,0.6,0.3,0.9,0.3c0.3,0,0.5-0.1,0.5-0.5v0
		c0-0.3-0.1-0.4-0.5-1c-0.7-0.8-0.9-1.1-0.9-1.8v0c0-0.9,0.6-1.5,1.4-1.5c0.4,0,0.6,0.1,0.9,0.2v1c-0.3-0.2-0.5-0.3-0.7-0.3
		c-0.3,0-0.5,0.2-0.5,0.5v0c0,0.3,0.1,0.4,0.5,0.9c0.8,0.9,0.9,1.2,0.9,1.9v0c0,0.9-0.6,1.5-1.4,1.5C59.8,399.1,59.4,399,59.2,398.9
		z M61.9,393.5h1v2.3h0.8v-2.3h1v5.6h-1v-2.4h-0.8v2.4h-1C61.9,399.1,61.9,393.5,61.9,393.5z M65.3,393.5h1v5.6h-1V393.5z
		 M66.7,396.4v-0.3c0-1.8,0.6-2.7,1.5-2.7s1.5,0.9,1.5,2.7v0.3c0,1.8-0.6,2.7-1.5,2.7C67.3,399.1,66.7,398.2,66.7,396.4z
		 M68.7,396.4v-0.3c0-1.4-0.2-1.8-0.5-1.8c-0.3,0-0.5,0.4-0.5,1.8v0.3c0,1.4,0.2,1.8,0.5,1.8C68.5,398.2,68.7,397.8,68.7,396.4z
		 M70.2,393.5h0.9l1,2.8v-2.8h1v5.6h-0.9l-1-3v3h-1V393.5z M58.4,401.4h1l1.1,5.6h-1l-0.2-1.1h-0.9l-0.2,1.1h-0.9L58.4,401.4z
		 M59.2,405.1l-0.3-1.8l-0.3,1.8H59.2z M60.8,401.5h1c1,0,1.7,0.5,1.7,1.8v0.1c0,0.7-0.3,1.2-0.7,1.5l0.8,2.3h-1l-0.6-2h-0.2v2h-1
		L60.8,401.5L60.8,401.5L60.8,401.5z M61.8,404.2c0.4,0,0.7-0.2,0.7-0.9v-0.1c0-0.7-0.3-0.9-0.8-0.9h0L61.8,404.2L61.8,404.2z
		 M64,401.5h2.1v0.9H65v1.4h1v0.9h-1v1.4h1.2v0.9H64C64,407.1,64,401.5,64,401.5z M67.4,401.4h1l1.1,5.6h-1l-0.2-1.1h-0.9l-0.2,1.1
		h-0.9L67.4,401.4z M68.2,405.1l-0.3-1.8l-0.3,1.8H68.2z"/>
	<path class="st3" d="M45.7,512.7v-0.2c0-2,0.7-2.7,1.6-2.7c0.3,0,0.4,0,0.6,0.1v1c-0.2-0.1-0.4-0.2-0.5-0.2c-0.4,0-0.7,0.4-0.7,1.8
		v0.2c0,1.5,0.3,1.8,0.8,1.8c0.2,0,0.3-0.1,0.5-0.2v1c-0.2,0.1-0.4,0.2-0.7,0.2C46.4,515.4,45.7,514.6,45.7,512.7z M49.2,509.8h1
		l1.1,5.6h-1l-0.2-1.1h-0.9l-0.2,1.1h-0.9L49.2,509.8z M50,513.4l-0.3-1.8l-0.3,1.8H50z M51.6,509.8h0.9c1.1,0,1.8,0.6,1.8,1.9v0
		c0,1.3-0.7,1.9-1.7,1.9h0v1.8h-1V509.8z M52.6,512.7c0.4,0,0.7-0.3,0.7-1v0c0-0.7-0.3-1-0.7-1h0L52.6,512.7L52.6,512.7L52.6,512.7z
		 M54.7,509.8h1v5.6h-1V509.8z M56.8,510.7h-0.7v-0.9h2.4v0.9h-0.7v4.7h-1L56.8,510.7L56.8,510.7z M58.6,512.7v-0.3
		c0-1.8,0.6-2.7,1.5-2.7s1.5,0.9,1.5,2.7v0.3c0,1.8-0.6,2.7-1.5,2.7S58.6,514.6,58.6,512.7z M60.6,512.7v-0.3c0-1.4-0.2-1.8-0.5-1.8
		s-0.5,0.4-0.5,1.8v0.3c0,1.4,0.2,1.8,0.5,1.8S60.6,514.2,60.6,512.7z M62.1,509.8h1v4.7h1v0.9h-2V509.8z M66.6,509.8h1l1.1,5.6h-1
		l-0.2-1.1h-0.9l-0.2,1.1h-0.9L66.6,509.8z M67.4,513.4l-0.3-1.8l-0.3,1.8H67.4z M69.2,510.7h-0.7v-0.9h2.4v0.9h-0.7v4.7h-1
		L69.2,510.7L69.2,510.7L69.2,510.7z M71.3,509.8h1c1,0,1.7,0.5,1.7,1.8v0.1c0,0.7-0.3,1.2-0.7,1.5l0.8,2.3h-1l-0.6-2h-0.2v2h-1
		L71.3,509.8L71.3,509.8z M72.3,512.5c0.4,0,0.7-0.2,0.7-0.9v-0.1c0-0.7-0.3-0.9-0.8-0.9h0L72.3,512.5L72.3,512.5z M74.5,509.8h1
		v5.6h-1V509.8z M76.1,513.7v-4h1v4.1c0,0.5,0.2,0.7,0.4,0.7s0.4-0.2,0.4-0.7v-4.1h1v4c0,1.2-0.6,1.7-1.4,1.7
		C76.7,515.4,76.1,514.9,76.1,513.7z M79.4,509.8h1l0.7,2l0.7-2h1v5.6h-0.9V512l-0.7,2.1h0l-0.7-2.1v3.4h-0.9L79.4,509.8L79.4,509.8
		z"/>
	<path class="st3" d="M47,490.9v-0.2c0-1.8,0.8-2.7,1.9-2.7c0.3,0,0.5,0.1,0.7,0.2v1c-0.2-0.1-0.5-0.2-0.7-0.2
		c-0.6,0-0.9,0.6-0.9,1.8v0.3c0,1.5,0.4,1.8,0.8,1.8c0,0,0,0,0.1,0v-1.4h-0.5v-0.9h1.4v3c-0.4,0.2-0.6,0.2-1,0.2
		C47.8,493.6,47,492.8,47,490.9z M50.3,492v-4h1v4.1c0,0.5,0.2,0.7,0.4,0.7s0.4-0.2,0.4-0.7V488h1v4c0,1.2-0.6,1.7-1.4,1.7
		S50.3,493.1,50.3,492z M53.6,488h2.1v0.9h-1.2v1.4h1v0.9h-1v1.4h1.2v0.9h-2.2V488z M56.1,493.4v-1c0.3,0.2,0.6,0.3,0.9,0.3
		c0.3,0,0.5-0.1,0.5-0.5v0c0-0.3-0.1-0.4-0.5-1c-0.7-0.8-0.9-1.1-0.9-1.8v0c0-0.9,0.6-1.5,1.4-1.5c0.4,0,0.6,0.1,0.9,0.2v1
		c-0.3-0.2-0.5-0.3-0.7-0.3c-0.3,0-0.5,0.2-0.5,0.5v0c0,0.3,0.1,0.4,0.5,0.9c0.8,0.9,0.9,1.2,0.9,1.9v0c0,0.9-0.6,1.5-1.4,1.5
		C56.8,493.6,56.4,493.5,56.1,493.4z M59.3,488.9h-0.7V488h2.4v0.9h-0.7v4.7h-1L59.3,488.9L59.3,488.9z M62.5,493.4v-1
		c0.3,0.2,0.6,0.3,0.9,0.3c0.3,0,0.5-0.1,0.5-0.5v0c0-0.3-0.1-0.4-0.5-1c-0.7-0.8-0.9-1.1-0.9-1.8v0c0-0.9,0.6-1.5,1.4-1.5
		c0.4,0,0.6,0.1,0.9,0.2v1c-0.3-0.2-0.5-0.3-0.7-0.3c-0.3,0-0.5,0.2-0.5,0.5v0c0,0.3,0.1,0.4,0.5,0.9c0.8,0.9,0.9,1.2,0.9,1.9v0
		c0,0.9-0.6,1.5-1.4,1.5C63.1,493.6,62.8,493.5,62.5,493.4z M65.2,488h2.1v0.9h-1.2v1.4h1v0.9h-1v1.4h1.2v0.9h-2.2V488z M67.8,488h1
		c1,0,1.7,0.5,1.7,1.8v0.1c0,0.7-0.3,1.2-0.7,1.5l0.8,2.3h-1l-0.6-2h-0.2v2h-1L67.8,488L67.8,488L67.8,488z M68.9,490.8
		c0.4,0,0.7-0.2,0.7-0.9v-0.1c0-0.7-0.3-0.9-0.8-0.9h0L68.9,490.8L68.9,490.8z M70.8,488h1l0.5,3.6l0.5-3.6h1l-1,5.6h-1L70.8,488z
		 M74.1,488h1v5.6h-1V488z M75.5,490.9v-0.2c0-2,0.7-2.7,1.6-2.7c0.3,0,0.4,0,0.6,0.1v1c-0.2-0.1-0.4-0.2-0.5-0.2
		c-0.4,0-0.7,0.4-0.7,1.8v0.2c0,1.5,0.3,1.8,0.8,1.8c0.2,0,0.3-0.1,0.5-0.2v1c-0.2,0.1-0.4,0.2-0.7,0.2
		C76.2,493.6,75.5,492.8,75.5,490.9z M78.3,488h2.1v0.9h-1.2v1.4h1v0.9h-1v1.4h1.2v0.9h-2.2V488z M80.8,493.4v-1
		c0.3,0.2,0.6,0.3,0.9,0.3c0.3,0,0.5-0.1,0.5-0.5v0c0-0.3-0.1-0.4-0.5-1c-0.7-0.8-0.9-1.1-0.9-1.8v0c0-0.9,0.6-1.5,1.4-1.5
		c0.4,0,0.6,0.1,0.9,0.2v1c-0.3-0.2-0.5-0.3-0.7-0.3c-0.3,0-0.5,0.2-0.5,0.5v0c0,0.3,0.1,0.4,0.5,0.9c0.8,0.9,0.9,1.2,0.9,1.9v0
		c0,0.9-0.6,1.5-1.4,1.5C81.5,493.6,81.1,493.5,80.8,493.4z"/>
	<path class="st3" d="M52,353.2v-1c0.3,0.2,0.6,0.3,0.9,0.3c0.3,0,0.5-0.1,0.5-0.5v0c0-0.3-0.1-0.4-0.5-1c-0.7-0.8-0.9-1.1-0.9-1.8
		v0c0-0.9,0.6-1.5,1.4-1.5c0.4,0,0.6,0.1,0.9,0.2v1c-0.3-0.2-0.5-0.3-0.7-0.3c-0.3,0-0.5,0.2-0.5,0.5v0c0,0.3,0.1,0.4,0.5,0.9
		c0.8,0.9,0.9,1.2,0.9,1.9v0c0,0.9-0.6,1.5-1.4,1.5C52.7,353.4,52.3,353.3,52,353.2z M54.6,350.7v-0.3c0-1.8,0.6-2.7,1.5-2.7
		s1.5,0.9,1.5,2.7v0.3c0,1.8-0.6,2.7-1.5,2.7C55.2,353.5,54.6,352.6,54.6,350.7z M56.6,350.7v-0.3c0-1.4-0.2-1.8-0.5-1.8
		c-0.3,0-0.5,0.4-0.5,1.8v0.3c0,1.4,0.2,1.8,0.5,1.8C56.4,352.6,56.6,352.2,56.6,350.7z M58.1,351.8v-4h1v4.1c0,0.5,0.2,0.7,0.4,0.7
		s0.4-0.2,0.4-0.7v-4.1h1v4c0,1.2-0.6,1.7-1.4,1.7C58.7,353.5,58.1,352.9,58.1,351.8z M61.1,347.8h1l0.5,3.6l0.5-3.6h1l-1,5.6h-1
		L61.1,347.8z M64.4,347.8h2.1v0.9h-1.2v1.4h1v0.9h-1v1.4h1.2v0.9h-2.2V347.8z M67.1,347.8H68l1,2.8v-2.8h1v5.6h-0.9l-1-3v3h-1
		V347.8z M70.5,347.8h1v5.6h-1V347.8z M72.1,347.8h1c1,0,1.7,0.5,1.7,1.8v0.1c0,0.7-0.3,1.2-0.7,1.5l0.8,2.3h-1l-0.6-2h-0.2v2h-1
		L72.1,347.8L72.1,347.8L72.1,347.8z M73.1,350.6c0.4,0,0.7-0.2,0.7-0.9v-0.1c0-0.7-0.3-0.9-0.8-0.9h0L73.1,350.6L73.1,350.6z
		 M57.4,361.2v-1c0.3,0.2,0.6,0.3,0.9,0.3c0.3,0,0.5-0.1,0.5-0.5v0c0-0.3-0.1-0.4-0.5-1c-0.7-0.8-0.9-1.1-0.9-1.8v0
		c0-0.9,0.6-1.5,1.4-1.5c0.4,0,0.6,0.1,0.9,0.2v1c-0.3-0.2-0.5-0.3-0.7-0.3c-0.3,0-0.5,0.2-0.5,0.5v0c0,0.3,0.1,0.4,0.5,0.9
		c0.8,0.9,0.9,1.2,0.9,1.9v0c0,0.9-0.6,1.5-1.4,1.5C58,361.4,57.7,361.3,57.4,361.2z M60.1,355.8h1v2.3h0.8v-2.3h1v5.6h-1V359h-0.8
		v2.4h-1V355.8z M63.4,358.7v-0.3c0-1.8,0.6-2.7,1.5-2.7s1.5,0.9,1.5,2.7v0.3c0,1.8-0.6,2.7-1.5,2.7C64,361.5,63.4,360.6,63.4,358.7
		z M65.4,358.7v-0.3c0-1.4-0.2-1.8-0.5-1.8c-0.3,0-0.5,0.4-0.5,1.8v0.3c0,1.4,0.2,1.8,0.5,1.8C65.2,360.6,65.4,360.2,65.4,358.7z
		 M66.8,355.8h0.9c1.1,0,1.8,0.6,1.8,1.9v0c0,1.3-0.7,1.9-1.7,1.9h0v1.8h-1L66.8,355.8L66.8,355.8z M67.8,358.7c0.4,0,0.7-0.3,0.7-1
		v0c0-0.7-0.3-1-0.7-1h0L67.8,358.7L67.8,358.7L67.8,358.7z"/>
	<path class="st3" d="M8.8,391.3v-1c0.2,0.1,0.3,0.1,0.5,0.1c0.3,0,0.5-0.2,0.5-0.6v-4.1h1v4.2c0,1-0.5,1.5-1.3,1.5
		C9.2,391.4,9,391.3,8.8,391.3z M11.3,385.7h2.1v0.9h-1.2v1.4h1v0.9h-1v1.4h1.2v0.9h-2.2V385.7z M13.7,385.7h1l0.4,3.4l0.5-3.4h0.9
		l0.5,3.4l0.4-3.4h1l-0.8,5.6h-1L16,388l-0.5,3.3h-1L13.7,385.7z M18.7,385.7h2.1v0.9h-1.2v1.4h1v0.9h-1v1.4h1.2v0.9h-2.2V385.7z
		 M21.3,385.7h1v4.7h1v0.9h-2V385.7z M23.7,385.7h1c1,0,1.7,0.5,1.7,1.8v0.1c0,0.7-0.3,1.2-0.7,1.5l0.8,2.3h-1l-0.6-2h-0.2v2h-1
		V385.7z M24.8,388.5c0.4,0,0.7-0.2,0.7-0.9v-0.1c0-0.7-0.3-0.9-0.8-0.9h0L24.8,388.5L24.8,388.5z M27.5,389.1l-1-3.4h1l0.5,2.1
		l0.5-2.1h1l-1,3.4v2.2h-1V389.1z M14.1,393.7h1l1.1,5.6h-1l-0.2-1.1h-0.9l-0.2,1.1H13L14.1,393.7z M14.9,397.3l-0.3-1.8l-0.3,1.8
		H14.9z M16.5,393.7h1c1,0,1.7,0.5,1.7,1.8v0.1c0,0.7-0.3,1.2-0.7,1.5l0.8,2.3h-1l-0.6-2h-0.2v2h-1L16.5,393.7L16.5,393.7z
		 M17.5,396.5c0.4,0,0.7-0.2,0.7-0.9v-0.1c0-0.7-0.3-0.9-0.8-0.9h0L17.5,396.5L17.5,396.5z M19.7,393.7h2.1v0.9h-1.2v1.4h1v0.9h-1
		v1.4h1.2v0.9h-2.2V393.7z M23.1,393.7h1l1.1,5.6h-1l-0.2-1.1h-0.9l-0.2,1.1H22L23.1,393.7z M23.9,397.3l-0.3-1.8l-0.3,1.8H23.9z"/>
	<path class="st3" d="M107.7,397.9v-0.9c0-1.1,0.6-1.8,1.9-1.8h0c1.3,0,1.9,0.7,1.9,1.7v0h1.8v1L107.7,397.9L107.7,397.9z
		 M110.6,397c0-0.4-0.3-0.7-1-0.7h0c-0.7,0-1,0.3-1,0.7v0L110.6,397L110.6,397z M107.7,394.9v-2.1h0.9v1.2h1.4v-1h0.9v1h1.4v-1.2
		h0.9v2.2L107.7,394.9L107.7,394.9z M107.7,392.2v-1c0-1,0.5-1.7,1.8-1.7h0.1c0.7,0,1.2,0.3,1.5,0.7l2.3-0.8v1l-2,0.6v0.2h2v1
		L107.7,392.2L107.7,392.2z M110.4,391.2c0-0.4-0.2-0.7-0.9-0.7h-0.1c-0.7,0-0.9,0.3-0.9,0.8v0L110.4,391.2L110.4,391.2z
		 M113.1,389.2h-1c0.2-0.3,0.3-0.6,0.3-0.9c0-0.3-0.1-0.5-0.5-0.5h0c-0.3,0-0.4,0.1-1,0.5c-0.8,0.7-1.1,0.9-1.8,0.9h0
		c-0.9,0-1.5-0.6-1.5-1.4c0-0.4,0.1-0.6,0.2-0.9h1c-0.2,0.3-0.3,0.5-0.3,0.7c0,0.3,0.2,0.5,0.5,0.5h0c0.3,0,0.4-0.1,0.9-0.5
		c0.9-0.8,1.2-0.9,1.9-0.9h0c0.9,0,1.5,0.6,1.5,1.4C113.3,388.6,113.2,388.9,113.1,389.2z M107.7,386.4v-0.9c0-1.1,0.6-1.8,1.9-1.8
		h0c1.3,0,1.9,0.7,1.9,1.7v0h1.8v1H107.7z M110.6,385.5c0-0.4-0.3-0.7-1-0.7h0c-0.7,0-1,0.3-1,0.7v0L110.6,385.5L110.6,385.5z
		 M107.7,383.4v-2.1h0.9v1.2h1.4v-1h0.9v1h1.4v-1.2h0.9v2.2L107.7,383.4L107.7,383.4z M110.6,380.9h-0.2c-2,0-2.7-0.7-2.7-1.6
		c0-0.3,0-0.4,0.1-0.6h1c-0.1,0.2-0.2,0.4-0.2,0.5c0,0.4,0.4,0.7,1.8,0.7h0.2c1.5,0,1.8-0.3,1.8-0.8c0-0.2-0.1-0.3-0.2-0.5h1
		c0.1,0.2,0.2,0.4,0.2,0.7C113.3,380.2,112.5,380.9,110.6,380.9z M108.6,377.6v0.7h-0.9v-2.4h0.9v0.7h4.7v1L108.6,377.6L108.6,377.6
		z M107.7,375.5v-1h5.6v1H107.7z M107.7,374.2v-1l3.6-0.5l-3.6-0.5v-1l5.6,1v1L107.7,374.2z M107.7,370.9v-2.1h0.9v1.2h1.4v-1h0.9v1
		h1.4v-1.2h0.9v2.2L107.7,370.9L107.7,370.9z M113.1,368.4h-1c0.2-0.3,0.3-0.6,0.3-0.9c0-0.3-0.1-0.5-0.5-0.5h0
		c-0.3,0-0.4,0.1-1,0.5c-0.8,0.7-1.1,0.9-1.8,0.9h0c-0.9,0-1.5-0.6-1.5-1.4c0-0.4,0.1-0.6,0.2-0.9h1c-0.2,0.3-0.3,0.5-0.3,0.7
		c0,0.3,0.2,0.5,0.5,0.5h0c0.3,0,0.4-0.1,0.9-0.5c0.9-0.8,1.2-0.9,1.9-0.9h0c0.9,0,1.5,0.6,1.5,1.4
		C113.3,367.8,113.2,368.1,113.1,368.4z M121.1,390.3h-1c0.2-0.3,0.3-0.6,0.3-0.9c0-0.3-0.1-0.5-0.5-0.5h0c-0.3,0-0.4,0.1-1,0.5
		c-0.8,0.7-1.1,0.9-1.8,0.9h0c-0.9,0-1.5-0.6-1.5-1.4c0-0.4,0.1-0.6,0.2-0.9h1c-0.2,0.3-0.3,0.5-0.3,0.7c0,0.3,0.2,0.5,0.5,0.5h0
		c0.3,0,0.4-0.1,0.9-0.5c0.9-0.8,1.2-0.9,1.9-0.9h0c0.9,0,1.5,0.6,1.5,1.4C121.3,389.7,121.2,390,121.1,390.3z M116.6,387.2v0.7
		h-0.9v-2.4h0.9v0.7h4.7v1L116.6,387.2L116.6,387.2z M119.6,385.1h-4v-1h4.1c0.5,0,0.7-0.2,0.7-0.4s-0.2-0.4-0.7-0.4h-4.1v-1h4
		c1.2,0,1.7,0.6,1.7,1.4C121.3,384.5,120.8,385.1,119.6,385.1z M115.7,381.8v-0.9c0-1.2,0.9-2,2.7-2h0.2c1.8,0,2.7,0.7,2.7,2v0.9
		H115.7z M120.4,380.7c0-0.5-0.4-0.9-1.8-0.9h-0.2c-1.4,0-1.8,0.4-1.8,0.9v0L120.4,380.7L120.4,380.7z M115.7,378.4v-1h5.6v1H115.7z
		 M118.6,376.9h-0.3c-1.8,0-2.7-0.6-2.7-1.5s0.9-1.5,2.7-1.5h0.3c1.8,0,2.7,0.6,2.7,1.5S120.5,376.9,118.6,376.9z M118.6,374.9h-0.3
		c-1.4,0-1.8,0.2-1.8,0.5s0.4,0.5,1.8,0.5h0.3c1.4,0,1.8-0.2,1.8-0.5S120.1,374.9,118.6,374.9z"/>
	<path class="st3" d="M9.1,491.1h-1c0.2-0.3,0.3-0.6,0.3-0.9c0-0.3-0.1-0.5-0.5-0.5h0c-0.3,0-0.4,0.1-1,0.5
		c-0.8,0.7-1.1,0.9-1.8,0.9h0c-0.9,0-1.5-0.6-1.5-1.4c0-0.4,0.1-0.6,0.2-0.9h1c-0.2,0.3-0.3,0.5-0.3,0.7c0,0.3,0.2,0.5,0.5,0.5h0
		c0.3,0,0.4-0.1,0.9-0.5c0.9-0.8,1.2-0.9,1.9-0.9h0c0.9,0,1.5,0.6,1.5,1.4C9.3,490.5,9.2,490.9,9.1,491.1z M3.7,488.4v-1H6v-0.8H3.7
		v-1h5.6v1H6.9v0.8h2.4v1H3.7z M6.6,485.1H6.3c-1.8,0-2.7-0.6-2.7-1.5s0.9-1.5,2.7-1.5h0.3c1.8,0,2.7,0.6,2.7,1.5
		S8.5,485.1,6.6,485.1z M6.6,483.1H6.3c-1.4,0-1.8,0.2-1.8,0.5s0.4,0.5,1.8,0.5h0.3c1.4,0,1.8-0.2,1.8-0.5S8.1,483.1,6.6,483.1z
		 M3.7,481.7v-1c0-1,0.5-1.7,1.8-1.7h0.1c0.7,0,1.2,0.3,1.5,0.7l2.3-0.8v1l-2,0.6v0.2h2v1L3.7,481.7L3.7,481.7z M6.4,480.7
		c0-0.4-0.2-0.7-0.9-0.7H5.5c-0.7,0-0.9,0.3-0.9,0.8v0L6.4,480.7L6.4,480.7z M3.7,478.5v-2.1h0.9v1.2H6v-1h0.9v1h1.4v-1.2h0.9v2.2
		L3.7,478.5L3.7,478.5z M11.7,497.6v-2.1h0.9v1.2H14v-1h0.9v1h1.4v-1.2h0.9v2.2L11.7,497.6L11.7,497.6z M14.4,494.3l-2.7,0.9v-1
		l1.6-0.4l-1.6-0.4v-1l2.7,0.9l2.9-0.9v1l-1.7,0.5l1.7,0.5v1L14.4,494.3z M14.6,492.1h-0.2c-2,0-2.7-0.7-2.7-1.6
		c0-0.3,0-0.4,0.1-0.6h1c-0.1,0.2-0.2,0.4-0.2,0.5c0,0.4,0.4,0.7,1.8,0.7h0.2c1.5,0,1.8-0.3,1.8-0.8c0-0.2-0.1-0.3-0.2-0.5h1
		c0.1,0.2,0.2,0.4,0.2,0.7C17.3,491.4,16.5,492.1,14.6,492.1z M15.6,489.3h-4v-1h4.1c0.5,0,0.7-0.2,0.7-0.4c0-0.2-0.2-0.4-0.7-0.4
		h-4.1v-1h4c1.2,0,1.7,0.6,1.7,1.4C17.3,488.7,16.8,489.3,15.6,489.3z M11.7,486v-1c0-1,0.5-1.7,1.8-1.7h0.1c0.7,0,1.2,0.3,1.5,0.7
		l2.3-0.8v1l-2,0.6v0.2h2v1L11.7,486C11.7,486,11.7,486,11.7,486z M14.4,485c0-0.4-0.2-0.7-0.9-0.7h-0.1c-0.7,0-0.9,0.3-0.9,0.8v0
		L14.4,485C14.4,485,14.4,485,14.4,485z M17.1,482.9h-1c0.2-0.3,0.3-0.6,0.3-0.9c0-0.3-0.1-0.5-0.5-0.5h0c-0.3,0-0.4,0.1-1,0.5
		c-0.8,0.7-1.1,0.9-1.8,0.9h0c-0.9,0-1.5-0.6-1.5-1.4c0-0.4,0.1-0.6,0.2-0.9h1c-0.2,0.3-0.3,0.5-0.3,0.7c0,0.3,0.2,0.5,0.5,0.5h0
		c0.3,0,0.4-0.1,0.9-0.5c0.9-0.8,1.2-0.9,1.9-0.9h0c0.9,0,1.5,0.6,1.5,1.4C17.3,482.3,17.2,482.6,17.1,482.9z M11.7,480.2v-1h5.6v1
		H11.7z M14.6,478.7h-0.3c-1.8,0-2.7-0.6-2.7-1.5c0-0.9,0.9-1.5,2.7-1.5h0.3c1.8,0,2.7,0.6,2.7,1.5
		C17.3,478.1,16.5,478.7,14.6,478.7z M14.6,476.7h-0.3c-1.4,0-1.8,0.2-1.8,0.5c0,0.3,0.4,0.5,1.8,0.5h0.3c1.4,0,1.8-0.2,1.8-0.5
		C16.5,476.9,16,476.7,14.6,476.7z M11.7,475.3v-0.9l2.8-1h-2.8v-1h5.6v0.9l-3,1h3v1L11.7,475.3L11.7,475.3z M17.1,472h-1
		c0.2-0.3,0.3-0.6,0.3-0.9c0-0.3-0.1-0.5-0.5-0.5h0c-0.3,0-0.4,0.1-1,0.5c-0.8,0.7-1.1,0.9-1.8,0.9h0c-0.9,0-1.5-0.6-1.5-1.4
		c0-0.4,0.1-0.6,0.2-0.9h1c-0.2,0.3-0.3,0.5-0.3,0.7c0,0.3,0.2,0.5,0.5,0.5h0c0.3,0,0.4-0.1,0.9-0.5c0.9-0.8,1.2-0.9,1.9-0.9h0
		c0.9,0,1.5,0.6,1.5,1.4C17.3,471.4,17.2,471.7,17.1,472z"/>
	<path class="st3" d="M98.9,472.2h1l1.1,5.6h-1l-0.2-1.1H99l-0.2,1.1h-0.9L98.9,472.2z M99.7,475.9l-0.3-1.8l-0.3,1.8H99.7z
		 M101.6,473.2h-0.7v-0.9h2.4v0.9h-0.7v4.7h-1L101.6,473.2L101.6,473.2z M103.7,472.2h1c1,0,1.7,0.5,1.7,1.8v0.1
		c0,0.7-0.3,1.2-0.7,1.5l0.8,2.3h-1l-0.6-2h-0.2v2h-1L103.7,472.2L103.7,472.2L103.7,472.2z M104.7,475c0.4,0,0.7-0.2,0.7-0.9V474
		c0-0.7-0.3-0.9-0.8-0.9h0L104.7,475L104.7,475z M106.8,472.2h1v5.6h-1V472.2z M108.4,476.2v-4h1v4.1c0,0.5,0.2,0.7,0.4,0.7
		s0.4-0.2,0.4-0.7v-4.1h1v4c0,1.2-0.6,1.7-1.4,1.7C109,477.9,108.4,477.4,108.4,476.2z M111.7,472.2h1l0.7,2l0.7-2h1v5.6h-0.9v-3.4
		l-0.7,2.1h0l-0.7-2.1v3.4h-0.9L111.7,472.2L111.7,472.2z M97.8,480.2h1v4.7h1v0.9h-2V480.2z M99.9,483.2v-0.3
		c0-1.8,0.6-2.7,1.5-2.7s1.5,0.9,1.5,2.7v0.3c0,1.8-0.6,2.7-1.5,2.7S99.9,485,99.9,483.2z M101.9,483.2v-0.3c0-1.4-0.2-1.8-0.5-1.8
		s-0.5,0.4-0.5,1.8v0.3c0,1.4,0.2,1.8,0.5,1.8S101.9,484.6,101.9,483.2z M103.3,484.2v-4h1v4.1c0,0.5,0.2,0.7,0.4,0.7
		s0.4-0.2,0.4-0.7v-4.1h1v4c0,1.2-0.6,1.7-1.4,1.7C103.9,485.9,103.3,485.4,103.3,484.2z M106.7,480.2h0.9l1,2.8v-2.8h1v5.6h-0.9
		l-1-3v3h-1C106.7,485.8,106.7,480.2,106.7,480.2z M110,483.1V483c0-1.8,0.8-2.7,1.9-2.7c0.3,0,0.5,0.1,0.7,0.2v1
		c-0.2-0.1-0.5-0.2-0.7-0.2c-0.6,0-0.9,0.6-0.9,1.8v0.3c0,1.5,0.4,1.8,0.8,1.8c0,0,0,0,0.1,0v-1.4h-0.5v-0.9h1.4v3
		c-0.4,0.2-0.6,0.2-1,0.2C110.8,485.9,110,485.1,110,483.1z M113.3,480.2h2.1v0.9h-1.2v1.4h1v0.9h-1v1.4h1.2v0.9h-2.2V480.2z"/>
	<path class="st3" d="M9.2,546.8h2.1v0.9h-1.2v1.4h1v0.9h-1v1.4h1.2v0.9H9.2V546.8z M12.6,546.7h1l1.1,5.6h-1l-0.2-1.1h-0.9
		l-0.2,1.1h-0.9L12.6,546.7z M13.4,550.4l-0.3-1.8l-0.3,1.8H13.4z M14.9,552.2v-1c0.3,0.2,0.6,0.3,0.9,0.3c0.3,0,0.5-0.1,0.5-0.5v0
		c0-0.3-0.1-0.4-0.5-1c-0.7-0.8-0.9-1.1-0.9-1.8v0c0-0.9,0.6-1.5,1.4-1.5c0.4,0,0.6,0.1,0.9,0.2v1c-0.3-0.2-0.5-0.3-0.7-0.3
		c-0.3,0-0.5,0.2-0.5,0.5v0c0,0.3,0.1,0.4,0.5,0.9c0.8,0.9,0.9,1.2,0.9,1.9v0c0,0.9-0.6,1.5-1.4,1.5
		C15.5,552.4,15.2,552.3,14.9,552.2z M18,547.7h-0.7v-0.9h2.4v0.9H19v4.7h-1V547.7z M21.3,546.8h1l0.7,2l0.7-2h1v5.6h-0.9V549
		l-0.7,2.1h0l-0.7-2.1v3.4h-0.9C21.3,552.3,21.3,546.8,21.3,546.8z M25.2,546.8h2.1v0.9h-1.2v1.4h1v0.9h-1v1.4h1.2v0.9h-2.2V546.8z
		 M27.9,546.8H30v0.9h-1.2v1.4h1v0.9h-1v1.4H30v0.9h-2.2V546.8z M31,547.7h-0.7v-0.9h2.4v0.9H32v4.7h-1L31,547.7L31,547.7z
		 M33,552.2v-1c0.3,0.2,0.6,0.3,0.9,0.3c0.3,0,0.5-0.1,0.5-0.5v0c0-0.3-0.1-0.4-0.5-1c-0.7-0.8-0.9-1.1-0.9-1.8v0
		c0-0.9,0.6-1.5,1.4-1.5c0.4,0,0.6,0.1,0.9,0.2v1c-0.3-0.2-0.5-0.3-0.7-0.3c-0.3,0-0.5,0.2-0.5,0.5v0c0,0.3,0.1,0.4,0.5,0.9
		c0.8,0.9,0.9,1.2,0.9,1.9v0c0,0.9-0.6,1.5-1.4,1.5C33.6,552.4,33.3,552.3,33,552.2z M8.3,554.8h1l0.4,3.4l0.5-3.4h0.9l0.5,3.4
		l0.4-3.4h1l-0.8,5.6h-1l-0.5-3.3l-0.5,3.3h-1L8.3,554.8z M13.3,554.8h2.1v0.9h-1.2v1.4h1v0.9h-1v1.4h1.2v0.9h-2.2V554.8z
		 M15.8,560.2v-1c0.3,0.2,0.6,0.3,0.9,0.3c0.3,0,0.5-0.1,0.5-0.5v0c0-0.3-0.1-0.4-0.5-1c-0.7-0.8-0.9-1.1-0.9-1.8v0
		c0-0.9,0.6-1.5,1.4-1.5c0.4,0,0.6,0.1,0.9,0.2v1c-0.3-0.2-0.5-0.3-0.7-0.3c-0.3,0-0.5,0.2-0.5,0.5v0c0,0.3,0.1,0.4,0.5,0.9
		c0.8,0.9,0.9,1.2,0.9,1.9v0c0,0.9-0.6,1.5-1.4,1.5C16.5,560.4,16.1,560.3,15.8,560.2z M19,555.7h-0.7v-0.9h2.4v0.9h-0.7v4.7h-1
		L19,555.7L19,555.7z M23.1,554.7h1l1.1,5.6h-1l-0.2-1.1h-0.9l-0.2,1.1H22L23.1,554.7z M23.9,558.4l-0.3-1.8l-0.3,1.8H23.9z
		 M25.4,560.2v-1c0.3,0.2,0.6,0.3,0.9,0.3c0.3,0,0.5-0.1,0.5-0.5v0c0-0.3-0.1-0.4-0.5-1c-0.7-0.8-0.9-1.1-0.9-1.8v0
		c0-0.9,0.6-1.5,1.4-1.5c0.4,0,0.6,0.1,0.9,0.2v1c-0.3-0.2-0.5-0.3-0.7-0.3c-0.3,0-0.5,0.2-0.5,0.5v0c0,0.3,0.1,0.4,0.5,0.9
		c0.8,0.9,0.9,1.2,0.9,1.9v0c0,0.9-0.6,1.5-1.4,1.5C26,560.4,25.7,560.3,25.4,560.2z M28.1,554.8h1v5.6h-1V554.8z M30.5,554.7h1
		l1.1,5.6h-1l-0.2-1.1h-0.9l-0.2,1.1h-0.9L30.5,554.7z M31.3,558.4l-0.3-1.8l-0.3,1.8H31.3z M32.9,554.8h0.9l1,2.8v-2.8h1v5.6h-0.9
		l-1-3v3h-1C32.9,560.3,32.9,554.8,32.9,554.8z M8.3,562.8h1c1,0,1.7,0.5,1.7,1.8v0.1c0,0.7-0.3,1.2-0.7,1.5l0.8,2.3h-1l-0.6-2H9.3
		v2h-1V562.8z M9.3,565.5c0.4,0,0.7-0.2,0.7-0.9v-0.1c0-0.7-0.3-0.9-0.8-0.9h0L9.3,565.5L9.3,565.5z M11.5,562.8h2.1v0.9h-1.2v1.4h1
		v0.9h-1v1.4h1.2v0.9h-2.2V562.8z M14,568.2v-1c0.3,0.2,0.6,0.3,0.9,0.3c0.3,0,0.5-0.1,0.5-0.5v0c0-0.3-0.1-0.4-0.5-1
		c-0.7-0.8-0.9-1.1-0.9-1.8v0c0-0.9,0.6-1.5,1.4-1.5c0.4,0,0.6,0.1,0.9,0.2v1c-0.3-0.2-0.5-0.3-0.7-0.3c-0.3,0-0.5,0.2-0.5,0.5v0
		c0,0.3,0.1,0.4,0.5,0.9c0.8,0.9,0.9,1.2,0.9,1.9v0c0,0.9-0.6,1.5-1.4,1.5C14.6,568.4,14.3,568.3,14,568.2z M17.1,563.7h-0.7v-0.9
		h2.4v0.9h-0.7v4.7h-1C17.1,568.3,17.1,563.7,17.1,563.7z M19.8,562.7h1l1.1,5.6h-1l-0.2-1.1h-0.9l-0.2,1.1h-0.9L19.8,562.7z
		 M20.6,566.4l-0.3-1.8l-0.3,1.8H20.6z M22.1,566.7v-4h1v4.1c0,0.5,0.2,0.7,0.4,0.7s0.4-0.2,0.4-0.7v-4.1h1v4c0,1.2-0.6,1.7-1.4,1.7
		S22.1,567.9,22.1,566.7z M25.4,562.8h1c1,0,1.7,0.5,1.7,1.8v0.1c0,0.7-0.3,1.2-0.7,1.5l0.8,2.3h-1l-0.6-2h-0.2v2h-1L25.4,562.8
		L25.4,562.8z M26.5,565.5c0.4,0,0.7-0.2,0.7-0.9v-0.1c0-0.7-0.3-0.9-0.8-0.9h0L26.5,565.5L26.5,565.5z M29.4,562.7h1l1.1,5.6h-1
		l-0.2-1.1h-0.9l-0.2,1.1h-0.9L29.4,562.7z M30.2,566.4l-0.3-1.8l-0.3,1.8H30.2z M31.8,562.8h0.9l1,2.8v-2.8h1v5.6h-0.9l-1-3v3h-1
		C31.8,568.3,31.8,562.8,31.8,562.8z M35.8,563.7h-0.7v-0.9h2.4v0.9h-0.7v4.7h-1V563.7z"/>
	<path class="st3" d="M6.1,614v0.7H5.1v-2.4h0.9v0.7h4.7v1L6.1,614L6.1,614z M5.1,611.9v-2.1h0.9v1.2h1.4v-1h0.9v1h1.4v-1.2h0.9v2.2
		H5.1z M5.1,609.3v-0.9c0-1.1,0.6-1.8,1.9-1.8h0c1.3,0,1.9,0.7,1.9,1.7v0h1.8v1L5.1,609.3L5.1,609.3z M8.1,608.3
		c0-0.4-0.3-0.7-1-0.7h0c-0.7,0-1,0.3-1,0.7v0L8.1,608.3L8.1,608.3z M5.1,606.2v-0.9c0-1.1,0.6-1.8,1.9-1.8h0c1.3,0,1.9,0.7,1.9,1.7
		v0h1.8v1L5.1,606.2L5.1,606.2z M8.1,605.2c0-0.4-0.3-0.7-1-0.7h0c-0.7,0-1,0.3-1,0.7v0L8.1,605.2L8.1,605.2z M5.1,602.6v-1l5.6-1.1
		v1l-1.1,0.2v0.9l1.1,0.2v0.9L5.1,602.6z M8.7,601.8l-1.8,0.3l1.8,0.3V601.8z M5.1,600.2v-0.9l2.8-1H5.1v-1h5.6v0.9l-3,1h3v1
		L5.1,600.2L5.1,600.2z M8.5,596l-3.4,1v-1l2.1-0.5L5.1,595v-1l3.4,1h2.2v1H8.5z M5.1,593.2v-1l5.6-1.1v1l-1.1,0.2v0.9l1.1,0.2v0.9
		L5.1,593.2z M8.7,592.4l-1.8,0.3l1.8,0.3V592.4z M5.1,590.8v-1h2.3l-2.3-0.8V588l2.4,0.9l3.2-1v1.1l-2.1,0.6l0.6,0.2h1.5v1
		L5.1,590.8L5.1,590.8z M5.1,587.6v-1h5.6v1H5.1z M13.1,607.2v-1c0-1,0.5-1.7,1.8-1.7H15c0.7,0,1.2,0.3,1.5,0.7l2.3-0.8v1l-2,0.6
		v0.2h2v1L13.1,607.2L13.1,607.2z M15.9,606.1c0-0.4-0.2-0.7-0.9-0.7h-0.1c-0.7,0-0.9,0.3-0.9,0.8v0L15.9,606.1L15.9,606.1z
		 M16.1,604.1h-0.3c-1.8,0-2.7-0.6-2.7-1.5c0-0.9,0.9-1.5,2.7-1.5h0.3c1.8,0,2.7,0.6,2.7,1.5C18.8,603.5,17.9,604.1,16.1,604.1z
		 M16.1,602.1h-0.3c-1.4,0-1.8,0.2-1.8,0.5s0.4,0.5,1.8,0.5h0.3c1.4,0,1.8-0.2,1.8-0.5S17.5,602.1,16.1,602.1z M16.1,600.7h-0.3
		c-1.8,0-2.7-0.6-2.7-1.5s0.9-1.5,2.7-1.5h0.3c1.8,0,2.7,0.6,2.7,1.5S17.9,600.7,16.1,600.7z M16.1,598.7h-0.3
		c-1.4,0-1.8,0.2-1.8,0.5s0.4,0.5,1.8,0.5h0.3c1.4,0,1.8-0.2,1.8-0.5S17.5,598.7,16.1,598.7z M13.1,597.3v-1l2-0.7l-2-0.7v-1h5.6
		v0.9h-3.4l2.1,0.7v0l-2.1,0.7h3.4v0.9L13.1,597.3L13.1,597.3z"/>
	<path class="st3" d="M86,546.6v-1c0.2,0.1,0.3,0.1,0.5,0.1c0.3,0,0.5-0.2,0.5-0.6v-4.1h1v4.2c0,1-0.5,1.5-1.3,1.5
		C86.3,546.7,86.1,546.7,86,546.6z M88.4,544v-0.3c0-1.8,0.6-2.7,1.5-2.7c0.9,0,1.5,0.9,1.5,2.7v0.3c0,1.8-0.6,2.7-1.5,2.7
		C89,546.8,88.4,545.9,88.4,544z M90.4,544v-0.3c0-1.4-0.2-1.8-0.5-1.8s-0.5,0.4-0.5,1.8v0.3c0,1.4,0.2,1.8,0.5,1.8
		S90.4,545.5,90.4,544z M91.8,541.1h1v2.3h0.8v-2.3h1v5.6h-1v-2.4h-0.8v2.4h-1V541.1z M95.2,541.1h0.9l1,2.8v-2.8h1v5.6h-0.9l-1-3v3
		h-1C95.2,546.7,95.2,541.1,95.2,541.1z M100.7,541.1h1l1.1,5.6h-1l-0.2-1.1h-0.9l-0.2,1.1h-0.9L100.7,541.1z M101.5,544.7l-0.3-1.8
		l-0.3,1.8H101.5z M103.1,541.1h0.9c1.2,0,2,0.9,2,2.7v0.2c0,1.8-0.7,2.7-2,2.7h-0.9V541.1z M104.1,545.8c0.5,0,0.9-0.4,0.9-1.8
		v-0.2c0-1.4-0.4-1.8-0.9-1.8h0L104.1,545.8L104.1,545.8z M107.2,541.1h1l1.1,5.6h-1l-0.2-1.1h-0.9l-0.2,1.1h-0.9L107.2,541.1z
		 M108,544.7l-0.3-1.8l-0.3,1.8H108z M109.6,541.1h1l0.7,2l0.7-2h1v5.6h-0.9v-3.4l-0.7,2.1h0l-0.7-2.1v3.4h-0.9L109.6,541.1
		L109.6,541.1z M113.3,546.5v-1c0.3,0.2,0.6,0.3,0.9,0.3c0.3,0,0.5-0.1,0.5-0.5v0c0-0.3-0.1-0.4-0.5-1c-0.7-0.8-0.9-1.1-0.9-1.8v0
		c0-0.9,0.6-1.5,1.4-1.5c0.4,0,0.6,0.1,0.9,0.2v1c-0.3-0.2-0.5-0.3-0.7-0.3c-0.3,0-0.5,0.2-0.5,0.5v0c0,0.3,0.1,0.4,0.5,0.9
		c0.8,0.9,0.9,1.2,0.9,1.9v0c0,0.9-0.6,1.5-1.4,1.5C113.9,546.7,113.6,546.6,113.3,546.5z M87.6,552v-0.2c0-2,0.7-2.7,1.6-2.7
		c0.3,0,0.4,0,0.6,0.1v1c-0.2-0.1-0.4-0.2-0.5-0.2c-0.4,0-0.7,0.4-0.7,1.8v0.2c0,1.5,0.3,1.8,0.8,1.8c0.2,0,0.3-0.1,0.5-0.2v1
		c-0.2,0.1-0.4,0.2-0.7,0.2C88.2,554.7,87.6,553.9,87.6,552z M90.1,552v-0.3c0-1.8,0.6-2.7,1.5-2.7c0.9,0,1.5,0.9,1.5,2.7v0.3
		c0,1.8-0.6,2.7-1.5,2.7C90.7,554.8,90.1,553.9,90.1,552z M92,552v-0.3c0-1.4-0.2-1.8-0.5-1.8s-0.5,0.4-0.5,1.8v0.3
		c0,1.4,0.2,1.8,0.5,1.8S92,553.5,92,552z M93.5,549.1h2v0.9h-1.1v1.4h0.9v0.9h-0.9v2.3h-1V549.1z M96,549.1h2v0.9H97v1.4h0.9v0.9
		H97v2.3h-1V549.1z M98.5,549.1h2.1v0.9h-1.2v1.4h1v0.9h-1v1.4h1.2v0.9h-2.2V549.1z M101.1,549.1h2.1v0.9h-1.2v1.4h1v0.9h-1v1.4h1.2
		v0.9h-2.2V549.1z M105,549.1h0.8c0.9,0,1.8,0.4,1.8,1.4v0c0,0.7-0.4,1.1-0.8,1.3c0.5,0.2,0.9,0.5,0.9,1.2v0.1c0,1-0.8,1.6-1.9,1.6
		H105L105,549.1L105,549.1z M106,551.4c0.4,0,0.7-0.2,0.7-0.7v0c0-0.5-0.3-0.7-0.7-0.7h0L106,551.4L106,551.4z M106,553.8
		c0.4,0,0.8-0.3,0.8-0.7v0c0-0.5-0.3-0.7-0.8-0.7h0L106,553.8L106,553.8L106,553.8z M108.9,549.1h1l1.1,5.6h-1l-0.2-1.1H109
		l-0.2,1.1h-0.9L108.9,549.1z M109.7,552.7l-0.3-1.8l-0.3,1.8H109.7z M111.3,549.1h1c1,0,1.7,0.5,1.7,1.8v0.1c0,0.7-0.3,1.2-0.7,1.5
		l0.8,2.3h-1l-0.6-2h-0.2v2h-1L111.3,549.1L111.3,549.1z M112.3,551.8c0.4,0,0.7-0.2,0.7-0.9v-0.1c0-0.7-0.3-0.9-0.8-0.9h0
		L112.3,551.8L112.3,551.8z"/>
	<path class="st3" d="M28.2,585.1v-1c0.3,0.2,0.6,0.3,0.9,0.3c0.3,0,0.5-0.1,0.5-0.5v0c0-0.3-0.1-0.4-0.5-1
		c-0.7-0.8-0.9-1.1-0.9-1.8v0c0-0.9,0.6-1.5,1.4-1.5c0.4,0,0.6,0.1,0.9,0.2v1c-0.3-0.2-0.5-0.3-0.7-0.3c-0.3,0-0.5,0.2-0.5,0.5v0
		c0,0.3,0.1,0.4,0.5,0.9c0.8,0.9,0.9,1.2,0.9,1.9v0c0,0.9-0.6,1.5-1.4,1.5C28.8,585.3,28.5,585.2,28.2,585.1z M30.9,583.7v-4h1v4.1
		c0,0.5,0.2,0.7,0.4,0.7s0.4-0.2,0.4-0.7v-4.1h1v4c0,1.2-0.6,1.7-1.4,1.7S30.9,584.8,30.9,583.7z M34.1,585.1v-1
		c0.3,0.2,0.6,0.3,0.9,0.3c0.3,0,0.5-0.1,0.5-0.5v0c0-0.3-0.1-0.4-0.5-1c-0.7-0.8-0.9-1.1-0.9-1.8v0c0-0.9,0.6-1.5,1.4-1.5
		c0.4,0,0.6,0.1,0.9,0.2v1c-0.3-0.2-0.5-0.3-0.7-0.3c-0.3,0-0.5,0.2-0.5,0.5v0c0,0.3,0.1,0.4,0.5,0.9c0.8,0.9,0.9,1.2,0.9,1.9v0
		c0,0.9-0.6,1.5-1.4,1.5C34.7,585.3,34.4,585.2,34.1,585.1z M36.8,579.7h1v2.3h0.8v-2.3h1v5.6h-1V583h-0.8v2.4h-1V579.7z
		 M40.2,579.7h1v5.6h-1V579.7z M30.3,587.7h0.8c0.9,0,1.8,0.4,1.8,1.4v0c0,0.7-0.4,1.1-0.8,1.3c0.5,0.2,0.9,0.5,0.9,1.2v0.1
		c0,1-0.8,1.6-1.9,1.6h-0.9L30.3,587.7L30.3,587.7z M31.3,590.1c0.4,0,0.7-0.2,0.7-0.7v0c0-0.5-0.3-0.7-0.7-0.7h0L31.3,590.1
		L31.3,590.1z M31.3,592.4c0.4,0,0.8-0.3,0.8-0.7v0c0-0.5-0.3-0.7-0.8-0.7h0L31.3,592.4L31.3,592.4L31.3,592.4z M34.2,587.7h1
		l1.1,5.6h-1l-0.2-1.1h-0.9l-0.2,1.1h-0.9L34.2,587.7z M35,591.3l-0.3-1.8l-0.3,1.8H35z M36.6,587.7h1c1,0,1.7,0.5,1.7,1.8v0.1
		c0,0.7-0.3,1.2-0.7,1.5l0.8,2.3h-1l-0.6-2h-0.2v2h-1L36.6,587.7L36.6,587.7z M37.6,590.5c0.4,0,0.7-0.2,0.7-0.9v-0.1
		c0-0.7-0.3-0.9-0.8-0.9h0L37.6,590.5L37.6,590.5z"/>
	<path class="st3" d="M81.1,678.3v-1c0.2,0.1,0.3,0.1,0.5,0.1c0.3,0,0.5-0.2,0.5-0.6v-4.1h1v4.2c0,1-0.5,1.5-1.3,1.5
		C81.5,678.3,81.3,678.3,81.1,678.3z M83.7,672.7h2.1v0.9h-1.2v1.4h1v0.9h-1v1.4h1.2v0.9h-2.2V672.7z M86.3,672.7h2v0.9h-1.1v1.4
		h0.9v0.9h-0.9v2.3h-1V672.7z M88.8,672.7h2v0.9h-1.1v1.4h0.9v0.9h-0.9v2.3h-1V672.7z M91.3,672.7h2.1v0.9h-1.2v1.4h1v0.9h-1v1.4
		h1.2v0.9h-2.2V672.7z M93.9,672.7h1c1,0,1.7,0.5,1.7,1.8v0.1c0,0.7-0.3,1.2-0.7,1.5l0.8,2.3h-1l-0.6-2h-0.2v2h-1L93.9,672.7
		L93.9,672.7z M94.9,675.5c0.4,0,0.7-0.2,0.7-0.9v-0.1c0-0.7-0.3-0.9-0.8-0.9h0L94.9,675.5L94.9,675.5z M97,678.1v-1
		c0.3,0.2,0.6,0.3,0.9,0.3c0.3,0,0.5-0.1,0.5-0.5v0c0-0.3-0.1-0.4-0.5-1c-0.7-0.8-0.9-1.1-0.9-1.8v0c0-0.9,0.6-1.5,1.4-1.5
		c0.4,0,0.6,0.1,0.9,0.2v1c-0.3-0.2-0.5-0.3-0.7-0.3c-0.3,0-0.5,0.2-0.5,0.5v0c0,0.3,0.1,0.4,0.5,0.9c0.8,0.9,0.9,1.2,0.9,1.9v0
		c0,0.9-0.6,1.5-1.4,1.5C97.6,678.3,97.3,678.2,97,678.1z M99.6,675.6v-0.3c0-1.8,0.6-2.7,1.5-2.7s1.5,0.9,1.5,2.7v0.3
		c0,1.8-0.6,2.7-1.5,2.7C100.2,678.4,99.6,677.5,99.6,675.6z M101.5,675.6v-0.3c0-1.4-0.2-1.8-0.5-1.8c-0.3,0-0.5,0.4-0.5,1.8v0.3
		c0,1.4,0.2,1.8,0.5,1.8C101.3,677.5,101.5,677.1,101.5,675.6z M103,672.7h0.9l1,2.8v-2.8h1v5.6H105l-1-3v3h-1L103,672.7L103,672.7z
		 M106.3,674.7c0.6-0.1,0.7-0.6,0.7-0.9h-0.5v-1.1h1.1v0.9c0,0.8-0.4,1.4-1.2,1.5L106.3,674.7z M108.1,678.1v-1
		c0.3,0.2,0.6,0.3,0.9,0.3c0.3,0,0.5-0.1,0.5-0.5v0c0-0.3-0.1-0.4-0.5-1c-0.7-0.8-0.9-1.1-0.9-1.8v0c0-0.9,0.6-1.5,1.4-1.5
		c0.4,0,0.6,0.1,0.9,0.2v1c-0.3-0.2-0.5-0.3-0.7-0.3c-0.3,0-0.5,0.2-0.5,0.5v0c0,0.3,0.1,0.4,0.5,0.9c0.8,0.9,0.9,1.2,0.9,1.9v0
		c0,0.9-0.6,1.5-1.4,1.5C108.7,678.3,108.4,678.2,108.1,678.1z M87.9,680.7h0.8c0.9,0,1.8,0.4,1.8,1.4v0c0,0.7-0.4,1.1-0.8,1.3
		c0.5,0.2,0.9,0.5,0.9,1.2v0.1c0,1-0.8,1.6-1.9,1.6h-0.9L87.9,680.7L87.9,680.7z M88.9,683c0.4,0,0.7-0.2,0.7-0.7v0
		c0-0.5-0.3-0.7-0.7-0.7h0L88.9,683L88.9,683z M88.9,685.4c0.4,0,0.8-0.3,0.8-0.7v0c0-0.5-0.3-0.7-0.8-0.7h0L88.9,685.4L88.9,685.4
		L88.9,685.4z M91.1,680.7h1v5.6h-1V680.7z M92.5,686.1v-1c0.3,0.2,0.6,0.3,0.9,0.3c0.3,0,0.5-0.1,0.5-0.5v0c0-0.3-0.1-0.4-0.5-1
		c-0.7-0.8-0.9-1.1-0.9-1.8v0c0-0.9,0.6-1.5,1.4-1.5c0.4,0,0.6,0.1,0.9,0.2v1c-0.3-0.2-0.5-0.3-0.7-0.3c-0.3,0-0.5,0.2-0.5,0.5v0
		c0,0.3,0.1,0.4,0.5,0.9c0.8,0.9,0.9,1.2,0.9,1.9v0c0,0.9-0.6,1.5-1.4,1.5C93.1,686.3,92.8,686.2,92.5,686.1z M95.6,681.6h-0.7v-0.9
		h2.4v0.9h-0.7v4.7h-1L95.6,681.6L95.6,681.6z M97.7,680.7h1c1,0,1.7,0.5,1.7,1.8v0.1c0,0.7-0.3,1.2-0.7,1.5l0.8,2.3h-1l-0.6-2h-0.2
		v2h-1L97.7,680.7L97.7,680.7z M98.7,683.5c0.4,0,0.7-0.2,0.7-0.9v-0.1c0-0.7-0.3-0.9-0.8-0.9h0L98.7,683.5L98.7,683.5z
		 M100.8,683.6v-0.3c0-1.8,0.6-2.7,1.5-2.7s1.5,0.9,1.5,2.7v0.3c0,1.8-0.6,2.7-1.5,2.7C101.4,686.4,100.8,685.5,100.8,683.6z
		 M102.8,683.6v-0.3c0-1.4-0.2-1.8-0.5-1.8s-0.5,0.4-0.5,1.8v0.3c0,1.4,0.2,1.8,0.5,1.8S102.8,685.1,102.8,683.6z"/>
	<path class="st3" d="M118,836.1h-0.2c-2,0-2.7-0.7-2.7-1.6c0-0.3,0-0.4,0.1-0.6h1c-0.1,0.2-0.2,0.4-0.2,0.5c0,0.4,0.4,0.7,1.8,0.7
		h0.2c1.5,0,1.8-0.3,1.8-0.8c0-0.2-0.1-0.3-0.2-0.5h1c0.1,0.2,0.2,0.4,0.2,0.7C120.7,835.4,119.9,836.1,118,836.1z M115.1,833.3v-1
		c0-1,0.5-1.7,1.8-1.7h0.1c0.7,0,1.2,0.3,1.5,0.7l2.3-0.8v1l-2,0.6v0.2h2v1L115.1,833.3L115.1,833.3z M117.9,832.3
		c0-0.4-0.2-0.7-0.9-0.7h-0.1c-0.7,0-0.9,0.3-0.9,0.8v0L117.9,832.3L117.9,832.3z M119.1,830.2h-4v-1h4.1c0.5,0,0.7-0.2,0.7-0.4
		s-0.2-0.4-0.7-0.4h-4.1v-1h4c1.2,0,1.7,0.6,1.7,1.4S120.2,830.2,119.1,830.2z M115.1,826.8v-1h5.6v1H115.1z M120.5,825.4h-1
		c0.2-0.3,0.3-0.6,0.3-0.9c0-0.3-0.1-0.5-0.5-0.5h0c-0.3,0-0.4,0.1-1,0.5c-0.8,0.7-1.1,0.9-1.8,0.9h0c-0.9,0-1.5-0.6-1.5-1.4
		c0-0.4,0.1-0.6,0.2-0.9h1c-0.2,0.3-0.3,0.5-0.3,0.7c0,0.3,0.2,0.5,0.5,0.5h0c0.3,0,0.4-0.1,0.9-0.5c0.9-0.8,1.2-0.9,1.9-0.9h0
		c0.9,0,1.5,0.6,1.5,1.4C120.7,824.8,120.6,825.1,120.5,825.4z M115.1,822.7v-2.1h0.9v1.2h1.4v-1h0.9v1h1.4v-1.2h0.9v2.2H115.1z
		 M115.1,818.8v-0.9l2.8-1h-2.8v-1h5.6v0.9l-3,1h3v1H115.1z M115.1,815.3v-2.1h0.9v1.2h1.4v-1h0.9v1h1.4v-1.2h0.9v2.2H115.1z
		 M117.8,812l-2.7,0.9v-1l1.6-0.4l-1.6-0.4v-1l2.7,0.9l2.9-0.9v1l-1.7,0.5l1.7,0.5v1L117.8,812z M116,809.1v0.7h-0.9v-2.4h0.9v0.7
		h4.7v1L116,809.1L116,809.1z M118,805.8h-0.3c-1.8,0-2.7-0.6-2.7-1.5s0.9-1.5,2.7-1.5h0.3c1.8,0,2.7,0.6,2.7,1.5
		S119.9,805.8,118,805.8z M118,803.9h-0.3c-1.4,0-1.8,0.2-1.8,0.5s0.4,0.5,1.8,0.5h0.3c1.4,0,1.8-0.2,1.8-0.5S119.5,803.9,118,803.9
		z M115.1,802.4v-2h0.9v1.1h1.4v-0.9h0.9v0.9h2.3v1H115.1z M115.1,799.9v-2h0.9v1.1h1.4V798h0.9v0.9h2.3v1H115.1z M115.1,797.4v-1
		h5.6v1H115.1z M118,795.9h-0.2c-2,0-2.7-0.7-2.7-1.6c0-0.3,0-0.4,0.1-0.6h1c-0.1,0.2-0.2,0.4-0.2,0.5c0,0.4,0.4,0.7,1.8,0.7h0.2
		c1.5,0,1.8-0.3,1.8-0.8c0-0.2-0.1-0.3-0.2-0.5h1c0.1,0.2,0.2,0.4,0.2,0.7C120.7,795.3,119.9,795.9,118,795.9z M115.1,793.2V791h0.9
		v1.2h1.4v-1h0.9v1h1.4V791h0.9v2.2L115.1,793.2L115.1,793.2z"/>
	<path class="st3" d="M107.4,609.6h0.8c0.8,0,1.3,0.4,1.3,1.3v0.1c0,0.5-0.2,0.9-0.5,1.1l0.6,1.7h-0.8l-0.5-1.5h-0.1v1.5h-0.7
		L107.4,609.6L107.4,609.6z M108.2,611.7c0.3,0,0.6-0.2,0.6-0.7v0c0-0.5-0.3-0.7-0.6-0.7h0L108.2,611.7L108.2,611.7L108.2,611.7z
		 M109.8,609.6h0.8c0.8,0,1.3,0.4,1.3,1.3v0.1c0,0.5-0.2,0.9-0.5,1.1l0.6,1.7h-0.8l-0.5-1.5h-0.1v1.5h-0.7V609.6z M110.6,611.7
		c0.3,0,0.6-0.2,0.6-0.7v0c0-0.5-0.3-0.7-0.6-0.7h0L110.6,611.7L110.6,611.7L110.6,611.7z"/>
	<path class="st3" d="M111.5,616.5h1c1,0,1.7,0.5,1.7,1.8v0.1c0,0.7-0.3,1.2-0.7,1.5l0.8,2.3h-1l-0.6-2h-0.2v2h-1L111.5,616.5
		L111.5,616.5z M112.5,619.3c0.4,0,0.7-0.2,0.7-0.9v-0.1c0-0.7-0.3-0.9-0.8-0.9h0L112.5,619.3L112.5,619.3z M114.6,616.5h1
		c1,0,1.7,0.5,1.7,1.8v0.1c0,0.7-0.3,1.2-0.7,1.5l0.8,2.3h-1l-0.6-2h-0.2v2h-1L114.6,616.5L114.6,616.5z M115.7,619.3
		c0.4,0,0.7-0.2,0.7-0.9v-0.1c0-0.7-0.3-0.9-0.8-0.9h0L115.7,619.3L115.7,619.3z"/>
	<path class="st3" d="M111.7,628.5h1c1,0,1.7,0.5,1.7,1.8v0.1c0,0.7-0.3,1.2-0.7,1.5l0.8,2.3h-1l-0.6-2h-0.2v2h-1L111.7,628.5
		L111.7,628.5z M112.7,631.3c0.4,0,0.7-0.2,0.7-0.9v-0.1c0-0.7-0.3-0.9-0.8-0.9h0L112.7,631.3L112.7,631.3z M114.9,628.5h1
		c1,0,1.7,0.5,1.7,1.8v0.1c0,0.7-0.3,1.2-0.7,1.5l0.8,2.3h-1l-0.6-2h-0.2v2h-1L114.9,628.5L114.9,628.5z M115.9,631.3
		c0.4,0,0.7-0.2,0.7-0.9v-0.1c0-0.7-0.3-0.9-0.8-0.9h0L115.9,631.3L115.9,631.3z"/>
	<path class="st3" d="M78.5,858.2h1c1,0,1.7,0.5,1.7,1.8v0.1c0,0.7-0.3,1.2-0.7,1.5l0.8,2.3h-1l-0.6-2h-0.2v2h-1L78.5,858.2
		L78.5,858.2z M79.5,861c0.4,0,0.7-0.2,0.7-0.9V860c0-0.7-0.3-0.9-0.8-0.9h0L79.5,861L79.5,861z M81.6,858.2h1c1,0,1.7,0.5,1.7,1.8
		v0.1c0,0.7-0.3,1.2-0.7,1.5l0.8,2.3h-1l-0.6-2h-0.2v2h-1L81.6,858.2L81.6,858.2z M82.7,861c0.4,0,0.7-0.2,0.7-0.9V860
		c0-0.7-0.3-0.9-0.8-0.9h0L82.7,861L82.7,861z"/>
	<path class="st3" d="M94,868.7h1c1,0,1.7,0.5,1.7,1.8v0.1c0,0.7-0.3,1.2-0.7,1.5l0.8,2.3h-1l-0.6-2h-0.2v2h-1L94,868.7L94,868.7z
		 M95,871.5c0.4,0,0.7-0.2,0.7-0.9v-0.1c0-0.7-0.3-0.9-0.8-0.9h0L95,871.5L95,871.5z M97.1,868.7h1c1,0,1.7,0.5,1.7,1.8v0.1
		c0,0.7-0.3,1.2-0.7,1.5l0.8,2.3h-1l-0.6-2h-0.2v2h-1L97.1,868.7L97.1,868.7z M98.2,871.5c0.4,0,0.7-0.2,0.7-0.9v-0.1
		c0-0.7-0.3-0.9-0.8-0.9h0L98.2,871.5L98.2,871.5z"/>
	<path class="st3" d="M89.7,858.2h1c1,0,1.7,0.5,1.7,1.8v0.1c0,0.7-0.3,1.2-0.7,1.5l0.8,2.3h-1l-0.6-2h-0.2v2h-1L89.7,858.2
		L89.7,858.2z M90.7,861c0.4,0,0.7-0.2,0.7-0.9V860c0-0.7-0.3-0.9-0.8-0.9h0L90.7,861L90.7,861z M92.9,858.2h1c1,0,1.7,0.5,1.7,1.8
		v0.1c0,0.7-0.3,1.2-0.7,1.5l0.8,2.3h-1l-0.6-2h-0.2v2h-1L92.9,858.2L92.9,858.2z M93.9,861c0.4,0,0.7-0.2,0.7-0.9V860
		c0-0.7-0.3-0.9-0.8-0.9h0L93.9,861L93.9,861z"/>
	<path class="st3" d="M6.2,305.7h1c1,0,1.7,0.5,1.7,1.8v0.1c0,0.7-0.3,1.2-0.7,1.5l0.8,2.3H8l-0.6-2H7.2v2h-1V305.7z M7.2,308.5
		c0.4,0,0.7-0.2,0.7-0.9v-0.1c0-0.7-0.3-0.9-0.8-0.9h0L7.2,308.5L7.2,308.5z M9.4,305.7h1c1,0,1.7,0.5,1.7,1.8v0.1
		c0,0.7-0.3,1.2-0.7,1.5l0.8,2.3h-1l-0.6-2h-0.2v2h-1V305.7z M10.4,308.5c0.4,0,0.7-0.2,0.7-0.9v-0.1c0-0.7-0.3-0.9-0.8-0.9h0
		L10.4,308.5L10.4,308.5z"/>
	<path class="st3" d="M114.2,305.7h1c1,0,1.7,0.5,1.7,1.8v0.1c0,0.7-0.3,1.2-0.7,1.5l0.8,2.3h-1l-0.6-2h-0.2v2h-1L114.2,305.7
		L114.2,305.7L114.2,305.7z M115.2,308.5c0.4,0,0.7-0.2,0.7-0.9v-0.1c0-0.7-0.3-0.9-0.8-0.9h0L115.2,308.5L115.2,308.5z
		 M117.4,305.7h1c1,0,1.7,0.5,1.7,1.8v0.1c0,0.7-0.3,1.2-0.7,1.5l0.8,2.3h-1l-0.6-2h-0.2v2h-1L117.4,305.7L117.4,305.7z
		 M118.4,308.5c0.4,0,0.7-0.2,0.7-0.9v-0.1c0-0.7-0.3-0.9-0.8-0.9h0L118.4,308.5L118.4,308.5z"/>
	<path class="st3" d="M102.7,292.7h1c1,0,1.7,0.5,1.7,1.8v0.1c0,0.7-0.3,1.2-0.7,1.5l0.8,2.3h-1l-0.6-2h-0.2v2h-1L102.7,292.7
		L102.7,292.7L102.7,292.7z M103.7,295.5c0.4,0,0.7-0.2,0.7-0.9v-0.1c0-0.7-0.3-0.9-0.8-0.9h0L103.7,295.5L103.7,295.5z
		 M105.9,292.7h1c1,0,1.7,0.5,1.7,1.8v0.1c0,0.7-0.3,1.2-0.7,1.5l0.8,2.3h-1l-0.6-2h-0.2v2h-1L105.9,292.7L105.9,292.7z
		 M106.9,295.5c0.4,0,0.7-0.2,0.7-0.9v-0.1c0-0.7-0.3-0.9-0.8-0.9h0L106.9,295.5L106.9,295.5z"/>
	<path class="st3" d="M54.9,970.8v-1c0.3,0.2,0.6,0.3,0.9,0.3c0.3,0,0.5-0.1,0.5-0.5v0c0-0.3-0.1-0.4-0.5-1
		c-0.7-0.8-0.9-1.1-0.9-1.8v0c0-0.9,0.6-1.5,1.4-1.5c0.4,0,0.6,0.1,0.9,0.2v1c-0.3-0.2-0.5-0.3-0.7-0.3c-0.3,0-0.5,0.2-0.5,0.5v0
		c0,0.3,0.1,0.4,0.5,0.9c0.8,0.9,0.9,1.2,0.9,1.9v0c0,0.9-0.6,1.5-1.4,1.5C55.5,971,55.2,970.9,54.9,970.8z M57.6,965.4h1v2.3
		l0.8-2.3h1.1l-0.9,2.4l1,3.2h-1.1l-0.6-2.1l-0.2,0.6v1.5h-1L57.6,965.4L57.6,965.4z M61.4,968.8l-1-3.4h1l0.5,2.1l0.5-2.1h1l-1,3.4
		v2.2h-1L61.4,968.8L61.4,968.8z M63.7,965.4h1v4.7h1v0.9h-2C63.7,971,63.7,965.4,63.7,965.4z M66.1,965.4h1v5.6h-1V965.4z
		 M67.7,965.4h0.9l1,2.8v-2.8h1v5.6h-0.9l-1-3v3h-1V965.4z M71.1,965.4h2.1v0.9h-1.2v1.4h1v0.9h-1v1.4h1.2v0.9h-2.2V965.4z
		 M42.5,973.4h1l0.7,2l0.7-2h1v5.6h-0.9v-3.4l-0.7,2.1h0l-0.7-2.1v3.4h-0.9V973.4z M47.2,973.4h1l1.1,5.6h-1l-0.2-1.1h-0.9l-0.2,1.1
		h-0.9L47.2,973.4z M48,977l-0.3-1.8l-0.3,1.8H48z M49.6,973.4h1v5.6h-1V973.4z M51.2,973.4h0.9l1,2.8v-2.8h1v5.6h-0.9l-1-3v3h-1
		C51.2,979,51.2,973.4,51.2,973.4z M55.9,973.4h0.9c1.2,0,2,0.9,2,2.7v0.2c0,1.8-0.7,2.7-2,2.7h-0.9V973.4z M56.9,978.1
		c0.5,0,0.9-0.4,0.9-1.8v-0.2c0-1.4-0.4-1.8-0.9-1.8h0L56.9,978.1L56.9,978.1z M59.2,973.4h1v5.6h-1V973.4z M60.8,973.4h0.9l1,2.8
		v-2.8h1v5.6h-0.9l-1-3v3h-1C60.8,979,60.8,973.4,60.8,973.4z M64.2,973.4h1v5.6h-1V973.4z M65.8,973.4h0.9l1,2.8v-2.8h1v5.6h-0.9
		l-1-3v3h-1L65.8,973.4L65.8,973.4z M69.1,976.3v-0.2c0-1.8,0.8-2.7,1.9-2.7c0.3,0,0.5,0.1,0.7,0.2v1c-0.2-0.1-0.5-0.2-0.7-0.2
		c-0.6,0-0.9,0.6-0.9,1.8v0.3c0,1.5,0.4,1.8,0.8,1.8c0,0,0,0,0.1,0v-1.4h-0.5v-0.9h1.4v3c-0.4,0.2-0.6,0.2-1,0.2
		C69.9,979,69.1,978.2,69.1,976.3z M73.7,973.4h1c1,0,1.7,0.5,1.7,1.8v0.1c0,0.7-0.3,1.2-0.7,1.5l0.8,2.3h-1l-0.6-2h-0.2v2h-1
		C73.7,979,73.7,973.4,73.7,973.4z M74.8,976.2c0.4,0,0.7-0.2,0.7-0.9v-0.1c0-0.7-0.3-0.9-0.8-0.9h0L74.8,976.2L74.8,976.2z
		 M76.8,976.3v-0.3c0-1.8,0.6-2.7,1.5-2.7c0.9,0,1.5,0.9,1.5,2.7v0.3c0,1.8-0.6,2.7-1.5,2.7C77.4,979.1,76.8,978.2,76.8,976.3z
		 M78.8,976.3v-0.3c0-1.4-0.2-1.8-0.5-1.8s-0.5,0.4-0.5,1.8v0.3c0,1.4,0.2,1.8,0.5,1.8S78.8,977.8,78.8,976.3z M80.2,976.3v-0.3
		c0-1.8,0.6-2.7,1.5-2.7s1.5,0.9,1.5,2.7v0.3c0,1.8-0.6,2.7-1.5,2.7C80.8,979.1,80.2,978.2,80.2,976.3z M82.2,976.3v-0.3
		c0-1.4-0.2-1.8-0.5-1.8c-0.3,0-0.5,0.4-0.5,1.8v0.3c0,1.4,0.2,1.8,0.5,1.8S82.2,977.8,82.2,976.3z M83.6,973.4h1l0.7,2l0.7-2h1v5.6
		H86v-3.4l-0.7,2.1h0l-0.7-2.1v3.4h-0.9L83.6,973.4L83.6,973.4z"/>
	<path class="st3" d="M51.5,372.6v-0.2c0-1.8,0.8-2.7,1.9-2.7c0.3,0,0.5,0.1,0.7,0.2v1c-0.2-0.1-0.5-0.2-0.7-0.2
		c-0.6,0-0.9,0.6-0.9,1.8v0.3c0,1.5,0.4,1.8,0.8,1.8c0,0,0,0,0.1,0V373H53v-0.9h1.4v3c-0.4,0.2-0.6,0.2-1,0.2
		C52.4,375.3,51.5,374.5,51.5,372.6z M54.9,369.7h1v5.6h-1V369.7z M56.5,369.7h2v0.9h-1.1v1.4h0.9v0.9h-0.9v2.3h-1
		C56.5,375.3,56.5,369.7,56.5,369.7z M59.5,370.6h-0.7v-0.9h2.4v0.9h-0.7v4.7h-1L59.5,370.6L59.5,370.6z M62.7,375.1v-1
		c0.3,0.2,0.6,0.3,0.9,0.3c0.3,0,0.5-0.1,0.5-0.5v0c0-0.3-0.1-0.4-0.5-1c-0.7-0.8-0.9-1.1-0.9-1.8v0c0-0.9,0.6-1.5,1.4-1.5
		c0.4,0,0.6,0.1,0.9,0.2v1c-0.3-0.2-0.5-0.3-0.7-0.3c-0.3,0-0.5,0.2-0.5,0.5v0c0,0.3,0.1,0.4,0.5,0.9c0.8,0.9,0.9,1.2,0.9,1.9v0
		c0,0.9-0.6,1.5-1.4,1.5C63.3,375.3,63,375.2,62.7,375.1z M65.4,369.7h1v2.3h0.8v-2.3h1v5.6h-1v-2.4h-0.8v2.4h-1L65.4,369.7
		L65.4,369.7z M68.7,372.6v-0.3c0-1.8,0.6-2.7,1.5-2.7c0.9,0,1.5,0.9,1.5,2.7v0.3c0,1.8-0.6,2.7-1.5,2.7S68.7,374.5,68.7,372.6z
		 M70.7,372.6v-0.3c0-1.4-0.2-1.8-0.5-1.8s-0.5,0.4-0.5,1.8v0.3c0,1.4,0.2,1.8,0.5,1.8S70.7,374,70.7,372.6z M72.1,369.7H73
		c1.1,0,1.8,0.6,1.8,1.9v0c0,1.3-0.7,1.9-1.7,1.9h0v1.8h-1C72.1,375.3,72.1,369.7,72.1,369.7z M73.1,372.6c0.4,0,0.7-0.3,0.7-1v0
		c0-0.7-0.3-1-0.7-1h0L73.1,372.6L73.1,372.6L73.1,372.6z M75.1,375.1v-1c0.3,0.2,0.6,0.3,0.9,0.3c0.3,0,0.5-0.1,0.5-0.5v0
		c0-0.3-0.1-0.4-0.5-1c-0.7-0.8-0.9-1.1-0.9-1.8v0c0-0.9,0.6-1.5,1.4-1.5c0.4,0,0.6,0.1,0.9,0.2v1c-0.3-0.2-0.5-0.3-0.7-0.3
		c-0.3,0-0.5,0.2-0.5,0.5v0c0,0.3,0.1,0.4,0.5,0.9c0.8,0.9,0.9,1.2,0.9,1.9v0c0,0.9-0.6,1.5-1.4,1.5
		C75.7,375.3,75.4,375.2,75.1,375.1z"/>
	<path class="st3" d="M105.6,324.5h0.9c1.1,0,1.8,0.6,1.8,1.9v0c0,1.3-0.7,1.9-1.7,1.9h0v1.8h-1L105.6,324.5L105.6,324.5z
		 M106.5,327.4c0.4,0,0.7-0.3,0.7-1v0c0-0.7-0.3-1-0.7-1h0L106.5,327.4L106.5,327.4z M108.6,324.5h1v2.3h0.8v-2.3h1v5.6h-1v-2.4
		h-0.8v2.4h-1V324.5z M111.9,327.4v-0.3c0-1.8,0.6-2.7,1.5-2.7s1.5,0.9,1.5,2.7v0.3c0,1.8-0.6,2.7-1.5,2.7
		C112.5,330.1,111.9,329.2,111.9,327.4z M113.9,327.4v-0.3c0-1.4-0.2-1.8-0.5-1.8s-0.5,0.4-0.5,1.8v0.3c0,1.4,0.2,1.8,0.5,1.8
		S113.9,328.8,113.9,327.4z M115.7,325.4H115v-0.9h2.4v0.9h-0.7v4.7h-1C115.7,330.1,115.7,325.4,115.7,325.4z M117.5,327.4v-0.3
		c0-1.8,0.6-2.7,1.5-2.7c0.9,0,1.5,0.9,1.5,2.7v0.3c0,1.8-0.6,2.7-1.5,2.7S117.5,329.2,117.5,327.4z M119.5,327.4v-0.3
		c0-1.4-0.2-1.8-0.5-1.8s-0.5,0.4-0.5,1.8v0.3c0,1.4,0.2,1.8,0.5,1.8S119.5,328.8,119.5,327.4z M103.2,335.4v-0.2
		c0-1.8,0.8-2.7,1.9-2.7c0.3,0,0.5,0.1,0.7,0.2v1c-0.2-0.1-0.5-0.2-0.7-0.2c-0.6,0-0.9,0.6-0.9,1.8v0.3c0,1.5,0.4,1.8,0.8,1.8
		c0,0,0,0,0.1,0v-1.4h-0.5v-0.9h1.4v3c-0.4,0.2-0.6,0.2-1,0.2C104,338.1,103.2,337.3,103.2,335.4z M107.3,332.4h1l1.1,5.6h-1
		l-0.2-1.1h-0.9l-0.2,1.1h-0.9L107.3,332.4z M108.1,336.1l-0.3-1.8l-0.3,1.8H108.1z M109.7,332.5h1v4.7h1v0.9h-2V332.5z
		 M112.1,332.5h1v4.7h1v0.9h-2L112.1,332.5L112.1,332.5z M114.5,332.5h2.1v0.9h-1.2v1.4h1v0.9h-1v1.4h1.2v0.9h-2.2V332.5z
		 M117.2,332.5h1c1,0,1.7,0.5,1.7,1.8v0.1c0,0.7-0.3,1.2-0.7,1.5l0.8,2.3h-1l-0.6-2h-0.2v2h-1L117.2,332.5L117.2,332.5L117.2,332.5z
		 M118.2,335.2c0.4,0,0.7-0.2,0.7-0.9v-0.1c0-0.7-0.3-0.9-0.8-0.9h0L118.2,335.2L118.2,335.2z M120.9,335.9l-1-3.4h1l0.5,2.1
		l0.5-2.1h1l-1,3.4v2.2h-1L120.9,335.9L120.9,335.9z"/>
</g>
<g id="POA_DECK_05_TOP">
	<g id="gDeck05Locations">
		<path width="125.204" height="381.907" id="_x30_5Aft" class="st4" d="M0.6,983.8H19v42.8H0.5l0.1,28.5l4.3,4.2c0,0-4.4,5.3,0.3,9.8c4.9,4.6,9.5,0.1,9.5,0.1
			l3.6,3.7h88.5l3.7-3.7c0,0,4.7,4.6,9.5-0.1c4.7-4.5,0.3-9.8,0.3-9.8l4.1-4l0.8-0.8l-0.1-27.9h-18.2v-42.9h18.8V691H0.6V983.8z"/>
		<rect width="125.123" height="326.659" id="_x30_5MidShip" x="0.6" y="364.3" class="st4"/>
		<polygon width="125.123" height="363.8391" id="_x30_5Forward" class="st4" points="125.7,267.6 125,171.6 124.7,164.2 124.6,160.9 124.2,152 124,150.4 123.5,143.9 
			123.3,142.2 122.7,136.6 122.4,134.2 121.7,129.2 121.1,125.8 119.9,119 119.2,115.1 118.7,112.3 118,109 118,108.9 117.6,107.2 
			117.3,105.8 116.6,102.6 116.5,102.2 114.5,94.3 112.8,88.8 112.2,86.8 109.5,79.2 109,77.7 108.4,76.2 108.4,76.1 107.7,74.2 
			106.4,70.7 105.7,68.9 103.4,63.2 100.2,55.8 99.4,54 98.5,52.3 97.6,50.3 96.9,48.8 96.1,47.2 94.7,44.4 94.6,44.1 91.5,38.4 
			88.4,33 84.5,26.6 81.1,21 78.1,16.1 74.8,10.9 72.3,7.1 69.9,4.2 67.2,1.8 65.9,1.1 64.5,0.6 62.8,0.5 61.1,0.6 59.6,1.1 
			58.3,1.8 55.6,4.2 53.2,7.1 50.7,10.9 47.4,16.1 44.4,21 41,26.6 37.1,33 34,38.4 30.9,44.1 30.8,44.4 29.4,47.2 28.6,48.8 
			27.9,50.3 27,52.3 26.2,54 25.3,55.8 22.1,63.2 19.9,68.9 19.2,70.7 17.8,74.2 17.1,76.1 17.1,76.2 16.5,77.7 16,79.2 13.3,86.8 
			12.7,88.8 11.1,94.3 9.1,102.2 9,102.6 8.2,105.9 7.9,107.2 7.6,108.9 6.9,112.3 6.3,115.1 5.6,119 5.1,121.8 4.4,125.8 
			3.9,129.2 3.2,134.2 2.8,136.6 2.2,142.2 2,143.9 1.5,150.4 1.3,152 0.9,160.9 0.8,164.2 0.6,170.6 0.6,179 0.6,267.7 0.6,364.3 
			125.7,364.3 		"/>
	</g>
	<path class="st5" d="M124.5,1055.4l-4.1,4c0,0,4.4,5.3-0.3,9.8c-4.9,4.6-9.5,0.1-9.5,0.1l-3.7,3.7H18.3l-3.6-3.7
		c0,0-4.7,4.6-9.5-0.1c-4.7-4.5-0.3-9.8-0.3-9.8l-4.3-4.2l-0.1-28.5H19v-42.8H0.6V267.7l0-88.7l0.1-8.3l0.2-6.5l0.1-3.2l0.4-8.9
		l0.1-1.6l0.5-6.5l0.2-1.6l0.6-5.6l0.3-2.4l0.7-4.9l0.6-3.5l0.7-3.9l0.5-2.8l0.7-3.9l0.6-2.8l0.7-3.4l0.4-1.7l0.3-1.4l0.7-3.3
		l0.1-0.4l2-7.8l1.7-5.5l0.6-2l2.7-7.6l0.5-1.5l0.5-1.5l0.1-0.1l0.7-1.9l1.3-3.5l0.7-1.8l2.3-5.7l3.2-7.4l0.8-1.8l0.8-1.7l0.9-1.9
		l0.7-1.6l0.8-1.6l1.4-2.8l0.1-0.3l3.1-5.7l3.2-5.4l3.9-6.4l3.4-5.6l3-4.9l3.3-5.2l2.5-3.8l2.4-2.9l2.7-2.4l1.3-0.8l1.5-0.4l1.7-0.1
		l1.7,0.1L65.9,1l1.3,0.8l2.7,2.4l2.4,2.9l2.5,3.8l3.3,5.2l3,4.9l3.4,5.6l3.9,6.4l3.2,5.4l3.1,5.7l0.1,0.3l1.4,2.8l0.8,1.6l0.7,1.5
		l0.9,2l0.8,1.7l0.8,1.8l3.2,7.4l2.3,5.7l0.7,1.8l1.3,3.5l0.7,1.9l0.1,0.1l0.5,1.5l0.6,1.5l2.7,7.6l0.6,2l1.7,5.5l2,7.8l0.1,0.4
		l0.7,3.3l0.3,1.4l0.4,1.7l0,0.1l0.7,3.3l0.6,2.8l0.7,3.9l1.2,6.7l0.6,3.5l0.7,4.9l0.3,2.4l0.6,5.6l0.2,1.6l0.5,6.5l0.1,1.6l0.4,8.9
		l0.1,3.2l0.3,7.4l0.7,96v716.2h-18.8v42.9h18.2l0.1,27.9L124.5,1055.4z"/>
</g>
</svg>
