<?xml version="1.0" encoding="utf-8"?>
<!-- Generator: Adobe Illustrator 25.4.1, SVG Export Plug-In . SVG Version: 6.00 Build 0)  -->
<svg version="1.1" id="POA_DECK_14" xmlns="http://www.w3.org/2000/svg" xmlns:xlink="http://www.w3.org/1999/xlink" x="0px"
	 y="0px" width="130.767px" height="896.678px" viewBox="0 0 130.767 896.678" style="enable-background:new 0 0 130.767 896.678;"
	 xml:space="preserve">
<style type="text/css">
	.st0{fill:#FFFFFF;}
	.st1{fill:none;stroke:#D5DCE0;stroke-width:0.5;}
	.st2{fill:#6E8496;}
	.st3{fill:none;}
	.st4{fill:none;stroke:#076FA0;stroke-miterlimit:10;}
</style>
<g id="POA_DECK_14_BOTTOM">
	<path class="st0" d="M90.079,388.6L90.079,388.6c0-5.5-2.4-10.6-6.7-14.1l0,0c-5.3-4.9-12.3-7.7-19.6-7.7l0,0
		c-7.3,0-14.3,2.8-19.6,7.7l0,0c-4.4,3.3-6.9,8.6-6.7,14.1l0,0v357.9h52.4L90.079,388.6z"/>
	<path class="st0" d="M22.079,278.9c-3.8,0-3.5-3.5-3.5-3.5v-78.6h5.7V97.1h-5.9c0,0,0.2-15.8,0.2-49.9c0-9.5,7.9-23.7,19.9-30.6
		s25.5-6,25.5-6s13-0.8,25.1,6c12,6.9,19.9,21.1,19.9,30.6c0,34.1,0.2,49.9,0.2,49.9h-5.9v78.7h5.7v99.7c0,0,0.3,3.5-3.5,3.5
		S25.879,278.9,22.079,278.9z"/>
	<line class="st1" x1="43.279" y1="696.6" x2="84.579" y2="696.6"/>
	<path class="st1" d="M68.979,696.4c0,2.9-2.4,5.3-5.3,5.3s-5.3-2.4-5.3-5.3s2.4-5.3,5.3-5.3C66.579,691,68.979,693.4,68.979,696.4z
		"/>
	<path class="st1" d="M68.979,677.4c0,2.9-2.4,5.3-5.3,5.3s-5.3-2.4-5.3-5.3s2.4-5.3,5.3-5.3
		C66.579,672.1,68.979,674.5,68.979,677.4z"/>
	<path class="st1" d="M68.979,715.5c0,2.9-2.4,5.3-5.3,5.3s-5.3-2.4-5.3-5.3s2.4-5.3,5.3-5.3S68.979,712.6,68.979,715.5z"/>
	<line class="st1" x1="56.779" y1="658.6" x2="58.379" y2="676.8"/>
	<line class="st1" x1="70.879" y1="658.5" x2="68.979" y2="676.8"/>
	<line class="st1" x1="58.579" y1="716.9" x2="56.879" y2="734.4"/>
	<line class="st1" x1="68.979" y1="716.6" x2="70.779" y2="734.4"/>
	<path class="st1" d="M77.979,654.3c0,0,3.5,0,3.8-3.7v-0.2V397.1c0,0-0.1-17.6-17.6-18h-0.5c-17.6,0.4-17.6,18-17.6,18v253.3v0.2
		c0.3,3.6,3.8,3.7,3.8,3.7L77.979,654.3L77.979,654.3z"/>
	<path class="st1" d="M41.679,101.9V85.5h3.3v-2.2c0-6.8,3.6-13,9.4-16.4c5.9-3.4,13.1-3.4,18.9,0c5.9,3.4,9.5,9.6,9.5,16.4v2.3h3.3
		v16.3h-3.3v2.2h1.3V231h-21.4h-19V104.1h1.3v-2.2H41.679z"/>
	<path class="st1" d="M18.579,262.2h10.6c0,0,6.8,0.2,6.8,7s0,9.7,0,9.7"/>
	<path class="st1" d="M23.879,269.1c0-3,2.4-5.4,5.4-5.4s5.4,2.4,5.4,5.4s-2.4,5.4-5.4,5.4S23.879,272.1,23.879,269.1z"/>
	<line class="st1" x1="29.179" y1="263.7" x2="29.179" y2="274.5"/>
	<line class="st1" x1="23.879" y1="269.1" x2="34.579" y2="269.1"/>
	<path class="st1" d="M109.079,262.2h-10.7c0,0-6.8,0.2-6.8,7s0,9.7,0,9.7"/>
	<path class="st1" d="M103.779,269.1c0-3-2.4-5.4-5.4-5.4s-5.4,2.4-5.4,5.4s2.4,5.4,5.4,5.4S103.779,272.1,103.779,269.1z"/>
	<line class="st1" x1="98.379" y1="263.7" x2="98.379" y2="274.5"/>
	<line class="st1" x1="103.779" y1="269.1" x2="93.079" y2="269.1"/>
	<line class="st1" x1="44.779" y1="83.5" x2="36.079" y2="83.5"/>
	<line class="st1" x1="91.579" y1="83.5" x2="82.879" y2="83.5"/>
	<line class="st1" x1="24.279" y1="97.1" x2="36.079" y2="97.1"/>
	<line class="st1" x1="91.179" y1="97.1" x2="103.079" y2="97.1"/>
	<line class="st1" x1="93.779" y1="103.9" x2="93.779" y2="114.1"/>
	<polyline class="st1" points="82.879,103.9 97.679,103.9 97.679,162.5 	"/>
	<line class="st1" x1="93.779" y1="105.4" x2="97.479" y2="105.4"/>
	<line class="st1" x1="93.779" y1="106.9" x2="97.479" y2="106.9"/>
	<line class="st1" x1="93.779" y1="108.5" x2="97.479" y2="108.5"/>
	<line class="st1" x1="93.779" y1="110" x2="97.479" y2="110"/>
	<line class="st1" x1="93.779" y1="111.5" x2="97.479" y2="111.5"/>
	<line class="st1" x1="93.779" y1="113" x2="97.479" y2="113"/>
	<line class="st1" x1="33.879" y1="103.9" x2="33.879" y2="114.1"/>
	<polyline class="st1" points="44.779,103.9 29.979,103.9 29.979,162.5 	"/>
	<line class="st1" x1="33.879" y1="105.4" x2="30.179" y2="105.4"/>
	<line class="st1" x1="33.879" y1="106.9" x2="30.179" y2="106.9"/>
	<line class="st1" x1="33.879" y1="108.5" x2="30.179" y2="108.5"/>
	<line class="st1" x1="33.879" y1="110" x2="30.179" y2="110"/>
	<line class="st1" x1="33.879" y1="111.5" x2="30.179" y2="111.5"/>
	<line class="st1" x1="33.879" y1="113" x2="30.179" y2="113"/>
	<line class="st1" x1="29.479" y1="170.5" x2="43.479" y2="170.5"/>
	<line class="st1" x1="84.279" y1="170.5" x2="98.279" y2="170.5"/>
	<polyline class="st1" points="81.079,231.2 81.079,236.2 46.279,236.2 46.279,231.1 	"/>
	<line class="st1" x1="47.779" y1="231.1" x2="47.779" y2="236.1"/>
	<line class="st1" x1="49.379" y1="231.1" x2="49.379" y2="236.1"/>
	<line class="st1" x1="50.979" y1="231.1" x2="50.979" y2="236.1"/>
	<line class="st1" x1="52.479" y1="231.1" x2="52.479" y2="236.1"/>
	<line class="st1" x1="54.079" y1="231.1" x2="54.079" y2="236.1"/>
	<line class="st1" x1="55.679" y1="231.1" x2="55.679" y2="236.1"/>
	<rect x="60.379" y="26" class="st1" width="7" height="7.1"/>
	<path class="st1" d="M65.679,29.6c0,1-0.8,1.9-1.9,1.9c-1,0-1.9-0.8-1.9-1.9s0.8-1.9,1.9-1.9C64.879,27.7,65.679,28.5,65.679,29.6z
		"/>
	<rect x="43.279" y="658.5" class="st1" width="41.3" height="76"/>
	<rect x="90.579" y="623.4" class="st1" width="5.8" height="21"/>
	<line class="st1" x1="90.479" y1="625" x2="96.179" y2="625"/>
	<line class="st1" x1="90.479" y1="626.5" x2="96.179" y2="626.5"/>
	<line class="st1" x1="90.479" y1="628" x2="96.179" y2="628"/>
	<line class="st1" x1="90.479" y1="629.5" x2="96.179" y2="629.5"/>
	<line class="st1" x1="90.479" y1="631" x2="96.179" y2="631"/>
	<line class="st1" x1="90.479" y1="632.5" x2="96.179" y2="632.5"/>
	<line class="st1" x1="90.479" y1="634" x2="96.179" y2="634"/>
	<line class="st1" x1="90.479" y1="635.5" x2="96.179" y2="635.5"/>
	<line class="st1" x1="90.479" y1="637" x2="96.179" y2="637"/>
	<line class="st1" x1="90.479" y1="638.5" x2="96.179" y2="638.5"/>
	<line class="st1" x1="90.479" y1="623.5" x2="96.179" y2="623.5"/>
	<rect x="90.579" y="623.4" class="st1" width="5.8" height="21"/>
	<line class="st1" x1="90.479" y1="625" x2="96.179" y2="625"/>
	<line class="st1" x1="90.479" y1="626.5" x2="96.179" y2="626.5"/>
	<line class="st1" x1="90.479" y1="628" x2="96.179" y2="628"/>
	<line class="st1" x1="90.479" y1="629.5" x2="96.179" y2="629.5"/>
	<line class="st1" x1="90.479" y1="631" x2="96.179" y2="631"/>
	<line class="st1" x1="90.479" y1="632.5" x2="96.179" y2="632.5"/>
	<line class="st1" x1="90.479" y1="634" x2="96.179" y2="634"/>
	<line class="st1" x1="90.479" y1="635.5" x2="96.179" y2="635.5"/>
	<line class="st1" x1="90.479" y1="637" x2="96.179" y2="637"/>
	<line class="st1" x1="90.479" y1="638.5" x2="96.179" y2="638.5"/>
	<line class="st1" x1="90.479" y1="623.5" x2="96.179" y2="623.5"/>
	<rect x="31.479" y="647.4" class="st1" width="5.8" height="21"/>
	<line class="st1" x1="31.479" y1="649.1" x2="37.179" y2="649.1"/>
	<line class="st1" x1="31.479" y1="650.6" x2="37.179" y2="650.6"/>
	<line class="st1" x1="31.479" y1="652.1" x2="37.179" y2="652.1"/>
	<line class="st1" x1="31.479" y1="653.6" x2="37.179" y2="653.6"/>
	<line class="st1" x1="31.479" y1="655.1" x2="37.179" y2="655.1"/>
	<line class="st1" x1="31.479" y1="656.6" x2="37.179" y2="656.6"/>
	<line class="st1" x1="31.479" y1="658.1" x2="37.179" y2="658.1"/>
	<line class="st1" x1="31.479" y1="659.6" x2="37.179" y2="659.6"/>
	<line class="st1" x1="31.479" y1="661.1" x2="37.179" y2="661.1"/>
	<line class="st1" x1="31.479" y1="662.6" x2="37.179" y2="662.6"/>
	<line class="st1" x1="31.479" y1="647.5" x2="37.179" y2="647.5"/>
	<rect x="17.979" y="171.1" class="st1" width="5.8" height="21"/>
	<line class="st1" x1="23.779" y1="190.5" x2="18.079" y2="190.5"/>
	<line class="st1" x1="23.779" y1="189" x2="18.079" y2="189"/>
	<line class="st1" x1="23.779" y1="187.5" x2="18.079" y2="187.5"/>
	<line class="st1" x1="23.779" y1="186" x2="18.079" y2="186"/>
	<line class="st1" x1="23.779" y1="184.5" x2="18.079" y2="184.5"/>
	<line class="st1" x1="23.779" y1="182.9" x2="18.079" y2="182.9"/>
	<line class="st1" x1="23.779" y1="181.4" x2="18.079" y2="181.4"/>
	<line class="st1" x1="23.779" y1="179.9" x2="18.079" y2="179.9"/>
	<line class="st1" x1="23.779" y1="178.4" x2="18.079" y2="178.4"/>
	<line class="st1" x1="23.779" y1="176.9" x2="18.079" y2="176.9"/>
	<line class="st1" x1="23.779" y1="192" x2="18.079" y2="192"/>
	<path class="st2" d="M55.079,687.5v-1c0.3,0.2,0.6,0.3,0.9,0.3c0.3,0,0.5-0.1,0.5-0.5l0,0c0-0.3-0.1-0.4-0.5-1
		c-0.7-0.8-0.9-1.1-0.9-1.8l0,0c0-0.9,0.6-1.5,1.4-1.5c0.4,0,0.6,0.1,0.9,0.2v1c-0.3-0.2-0.5-0.3-0.7-0.3c-0.3,0-0.5,0.2-0.5,0.5
		l0,0c0,0.3,0.1,0.4,0.5,0.9c0.8,0.9,0.9,1.2,0.9,1.9l0,0c0,0.9-0.6,1.5-1.4,1.5C55.679,687.7,55.279,687.6,55.079,687.5z
		 M57.779,682.1h0.9c1.1,0,1.8,0.6,1.8,1.9l0,0c0,1.3-0.7,1.9-1.7,1.9l0,0v1.8h-1C57.779,687.7,57.779,682.1,57.779,682.1z
		 M58.779,685c0.4,0,0.7-0.3,0.7-1l0,0c0-0.7-0.3-1-0.7-1l0,0V685L58.779,685L58.779,685z M60.779,685v-0.3c0-1.8,0.6-2.7,1.5-2.7
		s1.5,0.9,1.5,2.7v0.3c0,1.8-0.6,2.7-1.5,2.7S60.779,686.8,60.779,685z M62.679,685v-0.3c0-1.4-0.2-1.8-0.5-1.8s-0.5,0.4-0.5,1.8
		v0.3c0,1.4,0.2,1.8,0.5,1.8S62.679,686.4,62.679,685z M64.179,682.1h1c1,0,1.7,0.5,1.7,1.8v0.1c0,0.7-0.3,1.2-0.7,1.5l0.8,2.3h-1
		l-0.6-2h-0.2v2h-1L64.179,682.1L64.179,682.1z M65.179,684.8c0.4,0,0.7-0.2,0.7-0.9v-0.1c0-0.7-0.3-0.9-0.8-0.9l0,0L65.179,684.8
		L65.179,684.8z M67.779,683h-0.7v-0.9h2.4v0.9h-0.7v4.7h-1C67.779,687.6,67.779,683,67.779,683z M69.779,687.5v-1
		c0.3,0.2,0.6,0.3,0.9,0.3s0.5-0.1,0.5-0.5l0,0c0-0.3-0.1-0.4-0.5-1c-0.7-0.8-0.9-1.1-0.9-1.8l0,0c0-0.9,0.6-1.5,1.4-1.5
		c0.4,0,0.6,0.1,0.9,0.2v1c-0.3-0.2-0.5-0.3-0.7-0.3c-0.3,0-0.5,0.2-0.5,0.5l0,0c0,0.3,0.1,0.4,0.5,0.9c0.8,0.9,0.9,1.2,0.9,1.9l0,0
		c0,0.9-0.6,1.5-1.4,1.5C70.379,687.7,70.079,687.6,69.779,687.5z M56.279,692.9v-0.2c0-2,0.7-2.7,1.6-2.7c0.3,0,0.4,0,0.6,0.1v1
		c-0.2-0.1-0.4-0.2-0.5-0.2c-0.4,0-0.7,0.4-0.7,1.8v0.2c0,1.5,0.3,1.8,0.8,1.8c0.2,0,0.3-0.1,0.5-0.2v1c-0.2,0.1-0.4,0.2-0.7,0.2
		C56.979,695.7,56.279,694.9,56.279,692.9z M58.779,693v-0.3c0-1.8,0.6-2.7,1.5-2.7s1.5,0.9,1.5,2.7v0.3c0,1.8-0.6,2.7-1.5,2.7
		S58.779,694.8,58.779,693z M60.779,693v-0.3c0-1.4-0.2-1.8-0.5-1.8s-0.5,0.4-0.5,1.8v0.3c0,1.4,0.2,1.8,0.5,1.8
		C60.579,694.8,60.779,694.4,60.779,693z M62.179,694v-4h1v4.1c0,0.5,0.2,0.7,0.4,0.7c0.2,0,0.4-0.2,0.4-0.7V690h1v4
		c0,1.2-0.6,1.7-1.4,1.7S62.179,695.2,62.179,694z M65.579,690.1h1c1,0,1.7,0.5,1.7,1.8v0.1c0,0.7-0.3,1.2-0.7,1.5l0.8,2.3h-1
		l-0.6-2h-0.2v2h-1L65.579,690.1L65.579,690.1z M66.579,692.8c0.4,0,0.7-0.2,0.7-0.9v-0.1c0-0.7-0.3-0.9-0.8-0.9l0,0L66.579,692.8
		L66.579,692.8z M69.179,691h-0.7v-0.9h2.4v0.9h-0.7v4.7h-1L69.179,691L69.179,691z"/>
	<path class="st2" d="M52.279,52v-1c0.3,0.2,0.6,0.3,0.9,0.3c0.3,0,0.5-0.1,0.5-0.5l0,0c0-0.3-0.1-0.4-0.5-1
		c-0.7-0.8-0.9-1.1-0.9-1.8l0,0c0-0.9,0.6-1.5,1.4-1.5c0.4,0,0.6,0.1,0.9,0.2v1c-0.3-0.2-0.5-0.3-0.7-0.3c-0.3,0-0.5,0.2-0.5,0.5
		l0,0c0,0.3,0.1,0.4,0.5,0.9c0.8,0.9,0.9,1.2,0.9,1.9l0,0c0,0.9-0.6,1.5-1.4,1.5C52.879,52.2,52.479,52.1,52.279,52z M54.979,50.5
		v-4h1v4.1c0,0.5,0.2,0.7,0.4,0.7s0.4-0.2,0.4-0.7v-4.1h1v4c0,1.2-0.6,1.7-1.4,1.7C55.479,52.2,54.979,51.7,54.979,50.5z
		 M58.279,46.6h0.9l1,2.8v-2.8h1v5.6h-0.9l-1-3v3h-1V46.6z M62.979,46.6h0.9c1.2,0,2,0.9,2,2.7v0.2c0,1.8-0.7,2.7-2,2.7h-0.9V46.6z
		 M63.979,51.3c0.5,0,0.9-0.4,0.9-1.8v-0.2c0-1.4-0.4-1.8-0.9-1.8l0,0V51.3L63.979,51.3z M66.279,46.6h2.2v0.9h-1.2v1.4h1v0.9h-1
		v1.4h1.2v0.9h-2.2V46.6z M68.779,49.5v-0.2c0-2,0.7-2.7,1.6-2.7c0.3,0,0.4,0,0.6,0.1v1c-0.2-0.1-0.4-0.2-0.5-0.2
		c-0.4,0-0.7,0.4-0.7,1.8v0.2c0,1.5,0.3,1.8,0.8,1.8c0.2,0,0.3-0.1,0.5-0.2v1c-0.2,0.1-0.4,0.2-0.7,0.2
		C69.479,52.2,68.779,51.4,68.779,49.5z M71.579,46.6h1v2.3l0.8-2.3h1.1l-1,2.3l1,3.2h-1.1l-0.6-2.1l-0.2,0.6v1.5h-1L71.579,46.6
		L71.579,46.6z"/>
</g>
<g id="POA_DECK_14_TOP">
	<g id="gDeck14Locations">
		<path width="125.8" height="207.108" id="_x31_4Aft" class="st3" d="M8.414,685.8v161.608c0,0-3.3,0-4.1,0.2s-2,0.8-2,3.7c0,3,0,13,0.3,15.2
			c2.1,14.8,23.3,15.8,55.7,25.5c2.3,0.7,6.9,0.9,7.3,0.9c0.3,0,4.1-0.2,6.5-0.7c32.3-9.7,53.5-10.7,55.7-25.5
			c0.3-2.2,0.3-12.2,0.3-15.2c0-2.9-1.2-3.5-2-3.7c-0.9-0.2-4.1-0.2-4.1-0.2V685.8H8.414z"/>
		<path width="113.6" height="395.05" id="_x31_4MidShip" class="st3" d="M122.014,540.608l-1.3-1.3c0,0,0-182.299,0-248.558h-111c0,66.354,0,248.458,0,248.458
			l-1.3,1.3V685.8h113.6V540.608z"/>
		<path width="125.8056" height="290.3163" id="_x31_4Forward" class="st3" d="M128.142,23.2c-2.5-4-25.6-21.6-62.6-22.6S4.692,21.7,2.692,23.7c0,0-0.1,257.3,0,260
			c0.2,4.8,3.15,6.55,7.35,7.05c3.8,0.3,110.8,0,111.3,0c5.8-0.6,6.5-3.85,6.8-9.35C128.842,270.2,128.142,23.2,128.142,23.2z"/>
	</g>
	<path class="st4" d="M90.079,388.6L90.079,388.6c0-5.5-2.4-10.6-6.7-14.1l0,0c-5.3-4.9-12.3-7.7-19.6-7.7l0,0
		c-7.3,0-14.3,2.8-19.6,7.7l0,0c-4.4,3.3-6.9,8.6-6.7,14.1l0,0v357.9h52.4L90.079,388.6z"/>
	<path class="st4" d="M22.079,278.9c-3.8,0-3.5-3.5-3.5-3.5v-78.6h5.7V97.1h-5.9c0,0,0.2-15.8,0.2-49.9c0-9.5,7.9-23.7,19.9-30.6
		s25.5-6,25.5-6s13-0.8,25.1,6c12,6.9,19.9,21.1,19.9,30.6c0,34.1,0.2,49.9,0.2,49.9h-5.9v78.7h5.7v99.7c0,0,0.3,3.5-3.5,3.5
		S25.879,278.9,22.079,278.9z"/>
</g>
</svg>
