<?xml version="1.0" encoding="utf-8"?>
<!-- Generator: Adobe Illustrator 23.0.2, SVG Export Plug-In . SVG Version: 6.00 Build 0)  -->
<svg version="1.1" id="SPIRIT_DECK_13" xmlns="http://www.w3.org/2000/svg" xmlns:xlink="http://www.w3.org/1999/xlink" x="0px"
	 y="0px" width="134.791px" height="696.505px" viewBox="0 0 134.791 696.505" style="enable-background:new 0 0 134.791 696.505;"
	 xml:space="preserve">
<style type="text/css">
	.Bizzaro{fill:#FDE92B;stroke:#005E35;stroke-width:3;}
	.Black_x0020_Red_x0020_Dashes{fill:none;stroke:#000000;stroke-width:10;}
	.Fantasmic{fill:url(#SVGID_1_);}
	.Purple_x0020_Puddle{fill:#A52A90;stroke:#333B97;}
	.Patriotic_x0020_Ribbon{fill:none;stroke:#353695;stroke-width:0.75;}
	.Rainbow_x0020_Plaid{fill:url(#SVGID_2_);}
	
		.Rounded_x0020_Edges{fill:#CFE4AB;stroke:#000000;stroke-width:14;stroke-linecap:round;stroke-linejoin:round;stroke-dasharray:0,15;}
	.Scribbly{fill:#00542C;stroke:#F08231;stroke-width:2;}
	.Soft_x0020_Red_x0020_Highlight{fill:url(#SVGID_3_);}
	.Rustic_x0020_Pen{fill:none;stroke:#000000;stroke-width:6;}
	.Textured_x0020_Light{fill:url(#SVGID_4_);}
	.Sketchy{fill:none;stroke:#000000;}
	.Ice_x0020_Pot{fill:url(#SVGID_5_);}
	.Acidic{fill:url(#SVGID_6_);}
	.Engraving_x0020_Plate{fill:url(#SVGID_7_);stroke:#000000;stroke-width:5;stroke-linecap:round;stroke-linejoin:round;}
	.Bristly{fill:#0DB14B;stroke:#000000;stroke-width:2;}
	.New_x0020_Cabins_x0020_2019{fill:#EFF2F5;stroke:#FFFFFF;stroke-width:0.5;stroke-miterlimit:10;}
	.st0{fill:#FFFFFF;}
	.st1{fill:none;stroke:#D5DCE0;stroke-width:0.5;}
	.st2{fill:#6E8496;}
	.st3{fill:none;stroke:#076FA0;stroke-miterlimit:10;}
	.st4{fill:none;}
</style>
<linearGradient id="SVGID_1_" gradientUnits="userSpaceOnUse" x1="-330.4111" y1="743.7402" x2="-329.4111" y2="743.7402">
	<stop  offset="0" style="stop-color:#EB2D2E"/>
	<stop  offset="0.2" style="stop-color:#FDE92B"/>
	<stop  offset="0.4" style="stop-color:#009E53"/>
	<stop  offset="0.6" style="stop-color:#00A6DE"/>
	<stop  offset="0.8" style="stop-color:#34328F"/>
	<stop  offset="1" style="stop-color:#EA0E88"/>
</linearGradient>
<linearGradient id="SVGID_2_" gradientUnits="userSpaceOnUse" x1="-330.4111" y1="743.7402" x2="-329.4111" y2="743.7402">
	<stop  offset="0" style="stop-color:#EB2D2E"/>
	<stop  offset="0.2" style="stop-color:#FDE92B"/>
	<stop  offset="0.4" style="stop-color:#009E53"/>
	<stop  offset="0.6" style="stop-color:#00A6DE"/>
	<stop  offset="0.8" style="stop-color:#34328F"/>
	<stop  offset="1" style="stop-color:#EA0E88"/>
</linearGradient>
<radialGradient id="SVGID_3_" cx="-330.4111" cy="743.7402" r="1" gradientUnits="userSpaceOnUse">
	<stop  offset="0" style="stop-color:#FFFFFF"/>
	<stop  offset="0.0026" style="stop-color:#FFFDFC"/>
	<stop  offset="0.1198" style="stop-color:#FBCDBC"/>
	<stop  offset="0.2395" style="stop-color:#F6A58D"/>
	<stop  offset="0.3609" style="stop-color:#F2866C"/>
	<stop  offset="0.4834" style="stop-color:#F06B54"/>
	<stop  offset="0.6073" style="stop-color:#ED5441"/>
	<stop  offset="0.7332" style="stop-color:#EC4036"/>
	<stop  offset="0.8624" style="stop-color:#EB3330"/>
	<stop  offset="1" style="stop-color:#EB2D2E"/>
</radialGradient>
<radialGradient id="SVGID_4_" cx="-330.4111" cy="743.7402" r="1" gradientUnits="userSpaceOnUse">
	<stop  offset="0.0056" style="stop-color:#00BBEF"/>
	<stop  offset="0.1176" style="stop-color:#31AFCF"/>
	<stop  offset="0.5569" style="stop-color:#9D8572"/>
	<stop  offset="0.8598" style="stop-color:#BD673F"/>
	<stop  offset="1" style="stop-color:#C8582D"/>
</radialGradient>
<linearGradient id="SVGID_5_" gradientUnits="userSpaceOnUse" x1="-330.4111" y1="743.7402" x2="-331.0482" y2="742.9694">
	<stop  offset="0.3258" style="stop-color:#2F3D98"/>
	<stop  offset="0.3869" style="stop-color:#734D74"/>
	<stop  offset="0.4392" style="stop-color:#9C5D55"/>
	<stop  offset="0.4761" style="stop-color:#B6673A"/>
	<stop  offset="0.4944" style="stop-color:#C06B2E"/>
	<stop  offset="0.5562" style="stop-color:#FDE92B"/>
	<stop  offset="0.573" style="stop-color:#005728"/>
	<stop  offset="1" style="stop-color:#008539"/>
</linearGradient>
<linearGradient id="SVGID_6_" gradientUnits="userSpaceOnUse" x1="-330.4111" y1="743.7402" x2="-331.1712" y2="743.0904">
	<stop  offset="0.3258" style="stop-color:#2F3D98"/>
	<stop  offset="0.3869" style="stop-color:#734D74"/>
	<stop  offset="0.4392" style="stop-color:#9C5D55"/>
	<stop  offset="0.4761" style="stop-color:#B6673A"/>
	<stop  offset="0.4944" style="stop-color:#C06B2E"/>
	<stop  offset="0.5562" style="stop-color:#FDE92B"/>
	<stop  offset="0.573" style="stop-color:#005728"/>
	<stop  offset="1" style="stop-color:#008539"/>
</linearGradient>
<linearGradient id="SVGID_7_" gradientUnits="userSpaceOnUse" x1="-330.4111" y1="743.7402" x2="-330.11" y2="744.6938">
	<stop  offset="0" style="stop-color:#8C2F24"/>
	<stop  offset="0.3708" style="stop-color:#D6B7A9"/>
	<stop  offset="0.3731" style="stop-color:#D6B6A8"/>
	<stop  offset="0.6821" style="stop-color:#865141"/>
	<stop  offset="0.8977" style="stop-color:#5D2111"/>
	<stop  offset="1" style="stop-color:#4E0C00"/>
</linearGradient>
<g id="SPIRIT_DECK_13_BOTTOM">
	<path class="st0" d="M0.744,271.988v138.185l4.805,6.037v264.484c0.64,16.398,15.758,17.339,15.758,13.305
		c0-17.749,6.626-19.763,11.202-19.763c4.576,0,9.143,17.69,33.493,17.69s29.476-17.69,33.869-17.69
		c4.394,0,11.698,2.177,11.698,20.034c0,3.763,15.825,0.623,15.029-13.815V415.964l4.8-6.031V271.745l-5-6.63V17.692h7.867
		c0,0,3.038-9.571-57.326-16.57l-1.537-0.621L58.66,0.656l-1.688,0.776C-1.457,8.122,0.508,17.692,0.508,17.692h6.355v247.423
		L0.744,271.988z"/>
	<path class="st1" d="M38.867,150.736l0.055-46.028c3.664-28.912,50.634-31.719,55.986,0v46.028H38.867z"/>
	<polyline class="st1" points="94.908,150.692 104.351,150.7 119.567,164.119 	"/>
	<polyline class="st1" points="13.608,164.302 29.247,150.654 38.922,150.654 	"/>
	<polyline class="st1" points="7.159,179.003 14.694,179.003 27.095,168.512 	"/>
	<polyline class="st1" points="126.099,179.734 118.563,179.734 106.162,169.243 	"/>
	<polygon class="st1" points="94.804,598.626 94.804,632.602 124.645,632.602 124.645,598.626 124.645,564.649 94.804,564.649 	"/>
	<rect x="14.724" y="560.537" class="st1" width="17.823" height="57.343"/>
	<circle class="st1" cx="65.856" cy="665.959" r="20.5"/>
	<path class="st1" d="M78.497,157.43L78.497,157.43h16.045c4.274-0.102,4.746,2.987,4.746,2.987V185.3
		c-0.105,1.657-1.081,2.668-2.142,3.281h29.404 M7.016,188.581h26.682c-2.058-1.287-1.781-3.461-1.781-3.461l0.013-10.583
		l-0.013-13.587c0.353-3.903,3.9-3.52,3.9-3.52h12.876h0.416 M24.896,31.097c8.028-3.736,41.072-6.688,41.072-6.688
		c15.882,1.291,35.443,4.059,42.987,6.688l0.026,26.714l-84.086,0.005V31.097z M33.003,188.581h65.501"/>
	<polyline class="st1" points="99.376,432.395 82.586,623.251 50.584,623.251 33.327,432.44 	"/>
	<polyline class="st1" points="73.386,432.413 99.376,432.395 82.586,623.251 50.584,623.251 33.327,432.44 43.714,432.434 	"/>
	<line class="st1" x1="40.731" y1="157.584" x2="40.731" y2="174.584"/>
	<polyline class="st1" points="31.929,174.537 78.523,174.537 78.523,157.459 	"/>
	<path class="st1" d="M7.007,57.697h9.312v-35.18c0,0,43.074-9.051,50.121-9.051c7.047,0,51.021,8.922,51.021,8.922v35.309h8.665"/>
	<path class="st1" d="M66.59,86.285c-10.079,0.208-21.642,6.177-23.349,18.778c0,0.625-0.041,34.312-0.049,41.353
		c6.751,0,40.652,0,47.396,0c0-7.02,0-40.483,0-41.267C88.04,90.929,76.102,86.09,66.59,86.285z"/>
	<line class="st1" x1="49.108" y1="157.459" x2="49.108" y2="174.76"/>
	<polyline class="st1" points="73.708,432.485 73.708,447.298 43.347,447.298 43.347,432.485 	"/>
	<path class="st1" d="M71.536,158.582c-0.324,0-0.586,0.24-0.586,0.543"/>
	<line class="st1" x1="78.615" y1="158.582" x2="71.536" y2="158.582"/>
	<line class="st1" x1="70.95" y1="159.126" x2="70.95" y2="161.229"/>
	<line class="st1" x1="70.95" y1="161.229" x2="57.034" y2="161.229"/>
	<path class="st1" d="M57.034,159.126c0-0.303-0.258-0.543-0.581-0.543"/>
	<line class="st1" x1="57.034" y1="161.229" x2="57.034" y2="159.126"/>
	<line class="st1" x1="56.453" y1="158.582" x2="49.331" y2="158.582"/>
	<line class="st1" x1="64.149" y1="171.552" x2="64.149" y2="158.388"/>
	<line class="st1" x1="63.866" y1="171.552" x2="63.866" y2="158.388"/>
	<line class="st1" x1="78.286" y1="170.879" x2="64.149" y2="170.879"/>
	<line class="st1" x1="64.149" y1="158.388" x2="63.866" y2="158.388"/>
	<line class="st1" x1="64.149" y1="171.552" x2="63.866" y2="171.552"/>
	<line class="st1" x1="63.866" y1="170.879" x2="49.22" y2="170.879"/>
	<line class="st1" x1="63.866" y1="169.485" x2="57.638" y2="169.485"/>
	<line class="st1" x1="63.866" y1="168.089" x2="57.638" y2="168.089"/>
	<line class="st1" x1="63.866" y1="166.694" x2="57.638" y2="166.694"/>
	<line class="st1" x1="63.866" y1="165.298" x2="57.638" y2="165.298"/>
	<line class="st1" x1="63.866" y1="163.903" x2="57.638" y2="163.903"/>
	<line class="st1" x1="63.866" y1="162.507" x2="57.638" y2="162.507"/>
	<line class="st1" x1="63.866" y1="159.718" x2="57.072" y2="159.718"/>
	<line class="st1" x1="70.379" y1="169.485" x2="64.149" y2="169.485"/>
	<line class="st1" x1="70.379" y1="168.089" x2="64.149" y2="168.089"/>
	<line class="st1" x1="70.379" y1="166.694" x2="64.149" y2="166.694"/>
	<line class="st1" x1="70.379" y1="165.298" x2="64.149" y2="165.298"/>
	<line class="st1" x1="70.379" y1="163.903" x2="64.149" y2="163.903"/>
	<line class="st1" x1="70.379" y1="162.507" x2="64.149" y2="162.507"/>
	<line class="st1" x1="70.994" y1="159.718" x2="64.149" y2="159.718"/>
	<line class="st1" x1="49.168" y1="159.956" x2="56.504" y2="159.956"/>
	<line class="st1" x1="49.269" y1="161.333" x2="57.273" y2="161.333"/>
	<line class="st1" x1="49.119" y1="162.705" x2="56.504" y2="162.705"/>
	<line class="st1" x1="49.269" y1="164.08" x2="56.475" y2="164.08"/>
	<line class="st1" x1="70.933" y1="159.956" x2="78.484" y2="159.956"/>
	<line class="st1" x1="70.884" y1="161.333" x2="78.537" y2="161.333"/>
	<line class="st1" x1="71.51" y1="162.705" x2="78.586" y2="162.705"/>
	<line class="st1" x1="71.51" y1="164.08" x2="78.537" y2="164.08"/>
	<path class="st1" d="M56.407,171.709c0,0.29,0.254,0.526,0.567,0.526c0.313,0,0.566-0.237,0.566-0.526l0,0"/>
	<line class="st1" x1="57.54" y1="171.709" x2="57.54" y2="171.552"/>
	<line class="st1" x1="56.407" y1="171.709" x2="56.407" y2="171.552"/>
	<path class="st1" d="M70.379,171.709c0,0.29,0.252,0.526,0.562,0.526c0.315,0,0.568-0.237,0.568-0.526l0,0"/>
	<line class="st1" x1="71.51" y1="171.709" x2="71.51" y2="171.552"/>
	<line class="st1" x1="70.379" y1="171.709" x2="70.379" y2="171.552"/>
	<line class="st1" x1="56.982" y1="171.552" x2="56.982" y2="161.361"/>
	<line class="st1" x1="49.319" y1="166.831" x2="56.504" y2="166.831"/>
	<line class="st1" x1="49.319" y1="168.203" x2="56.504" y2="168.203"/>
	<line class="st1" x1="49.367" y1="169.58" x2="56.504" y2="169.58"/>
	<line class="st1" x1="49.269" y1="165.454" x2="56.504" y2="165.454"/>
	<line class="st1" x1="70.935" y1="171.552" x2="70.935" y2="161.176"/>
	<line class="st1" x1="71.51" y1="166.831" x2="78.484" y2="166.831"/>
	<line class="st1" x1="71.51" y1="168.203" x2="78.437" y2="168.203"/>
	<line class="st1" x1="71.51" y1="169.58" x2="78.387" y2="169.58"/>
	<line class="st1" x1="71.432" y1="165.454" x2="78.638" y2="165.454"/>
	<path class="st1" d="M117.166,414.647l-9.138,9.131l-83.305-0.186l-8.95-8.945V289.406c0,0,2.675-46.38,50.755-46.38
		c48.08,0,50.638,46.38,50.638,46.38V414.647z"/>
	<path class="st1" d="M42.564,423.609l0.003-6.688c0,0,2.599-1.327,4.981-1.327c2.381,0,5.521,1.372,5.521,1.372
		s2.959-1.51,5.432-1.51c2.473,0,5.251,1.373,5.251,1.373s3.366-1.373,5.839-1.373c2.473,0,5.432,1.236,5.432,1.236v7.125"/>
	<line class="st1" x1="63.706" y1="416.951" x2="63.706" y2="423.897"/>
	<line class="st1" x1="53.114" y1="416.986" x2="53.114" y2="423.897"/>
	<line class="st1" x1="42.564" y1="423.609" x2="53.247" y2="417.058"/>
	<line class="st1" x1="53.044" y1="416.986" x2="63.779" y2="423.648"/>
	<line class="st1" x1="63.779" y1="423.684" x2="74.847" y2="416.809"/>
	<line class="st1" x1="74.917" y1="423.779" x2="63.779" y2="417.058"/>
	<line class="st1" x1="63.779" y1="416.88" x2="53.044" y2="423.684"/>
	<line class="st1" x1="53.044" y1="423.684" x2="42.567" y2="416.921"/>
	<path class="st1" d="M66.443,433.143c-0.332,0-0.6,0.208-0.6,0.47"/>
	<line class="st1" x1="73.685" y1="433.143" x2="66.443" y2="433.143"/>
	<line class="st1" x1="65.844" y1="433.613" x2="65.844" y2="435.434"/>
	<line class="st1" x1="65.844" y1="435.434" x2="51.607" y2="435.434"/>
	<path class="st1" d="M51.607,433.613c0-0.262-0.263-0.47-0.594-0.47"/>
	<line class="st1" x1="51.607" y1="435.434" x2="51.607" y2="433.613"/>
	<line class="st1" x1="51.014" y1="433.143" x2="43.728" y2="433.143"/>
	<line class="st1" x1="58.887" y1="444.363" x2="58.887" y2="432.976"/>
	<line class="st1" x1="58.597" y1="444.363" x2="58.597" y2="432.976"/>
	<line class="st1" x1="73.349" y1="443.781" x2="58.887" y2="443.781"/>
	<line class="st1" x1="58.887" y1="432.976" x2="58.597" y2="432.976"/>
	<line class="st1" x1="58.887" y1="444.363" x2="58.597" y2="444.363"/>
	<line class="st1" x1="58.597" y1="443.781" x2="43.613" y2="443.781"/>
	<line class="st1" x1="58.597" y1="442.576" x2="52.226" y2="442.576"/>
	<line class="st1" x1="58.597" y1="441.369" x2="52.226" y2="441.369"/>
	<line class="st1" x1="58.597" y1="440.162" x2="52.226" y2="440.162"/>
	<line class="st1" x1="58.597" y1="438.953" x2="52.226" y2="438.953"/>
	<line class="st1" x1="58.597" y1="437.746" x2="52.226" y2="437.746"/>
	<line class="st1" x1="58.597" y1="436.539" x2="52.226" y2="436.539"/>
	<line class="st1" x1="58.597" y1="434.126" x2="51.647" y2="434.126"/>
	<line class="st1" x1="65.259" y1="442.576" x2="58.887" y2="442.576"/>
	<line class="st1" x1="65.259" y1="441.369" x2="58.887" y2="441.369"/>
	<line class="st1" x1="65.259" y1="440.162" x2="58.887" y2="440.162"/>
	<line class="st1" x1="65.259" y1="438.953" x2="58.887" y2="438.953"/>
	<line class="st1" x1="65.259" y1="437.746" x2="58.887" y2="437.746"/>
	<line class="st1" x1="65.259" y1="436.539" x2="58.887" y2="436.539"/>
	<line class="st1" x1="65.889" y1="434.126" x2="58.887" y2="434.126"/>
	<line class="st1" x1="43.561" y1="434.332" x2="51.065" y2="434.332"/>
	<line class="st1" x1="43.664" y1="435.523" x2="51.853" y2="435.523"/>
	<line class="st1" x1="43.511" y1="436.71" x2="51.065" y2="436.71"/>
	<line class="st1" x1="43.664" y1="437.9" x2="51.035" y2="437.9"/>
	<line class="st1" x1="65.826" y1="434.332" x2="73.552" y2="434.332"/>
	<line class="st1" x1="65.775" y1="435.523" x2="73.604" y2="435.523"/>
	<line class="st1" x1="66.416" y1="436.71" x2="73.655" y2="436.71"/>
	<line class="st1" x1="66.416" y1="437.9" x2="73.604" y2="437.9"/>
	<path class="st1" d="M50.966,444.501c0,0.251,0.261,0.455,0.581,0.455c0.32,0,0.578-0.204,0.578-0.455l0,0"/>
	<line class="st1" x1="52.125" y1="444.501" x2="52.125" y2="444.363"/>
	<line class="st1" x1="50.966" y1="444.501" x2="50.966" y2="444.363"/>
	<path class="st1" d="M65.259,444.501c0,0.251,0.258,0.455,0.576,0.455c0.321,0,0.581-0.204,0.581-0.455l0,0"/>
	<line class="st1" x1="66.416" y1="444.501" x2="66.416" y2="444.363"/>
	<line class="st1" x1="65.259" y1="444.501" x2="65.259" y2="444.363"/>
	<line class="st1" x1="51.555" y1="444.363" x2="51.555" y2="435.547"/>
	<line class="st1" x1="43.716" y1="440.28" x2="51.065" y2="440.28"/>
	<line class="st1" x1="43.716" y1="441.467" x2="51.065" y2="441.467"/>
	<line class="st1" x1="43.765" y1="442.658" x2="51.065" y2="442.658"/>
	<line class="st1" x1="43.664" y1="439.089" x2="51.065" y2="439.089"/>
	<line class="st1" x1="65.827" y1="444.363" x2="65.827" y2="435.388"/>
	<line class="st1" x1="66.416" y1="440.28" x2="73.552" y2="440.28"/>
	<line class="st1" x1="66.416" y1="441.467" x2="73.502" y2="441.467"/>
	<line class="st1" x1="66.416" y1="442.658" x2="73.451" y2="442.658"/>
	<line class="st1" x1="66.336" y1="439.089" x2="73.708" y2="439.089"/>
	<path class="st2" d="M126.831,371.151h-1.015c0.199-0.344,0.312-0.615,0.312-0.88c0-0.279-0.136-0.52-0.479-0.52h-0.017
		c-0.256,0-0.447,0.08-0.975,0.544c-0.752,0.664-1.112,0.936-1.791,0.936h-0.017c-0.896,0-1.463-0.584-1.463-1.359
		c0-0.392,0.056-0.624,0.176-0.863h1.016c-0.176,0.304-0.256,0.487-0.256,0.743c0,0.272,0.176,0.504,0.479,0.504h0.016
		c0.265,0,0.36-0.08,0.896-0.544c0.888-0.768,1.231-0.936,1.871-0.936h0.017c0.879,0,1.463,0.616,1.463,1.384
		C127.064,370.544,126.968,370.872,126.831,371.151z M122.355,368.032v0.688h-0.928v-2.351h0.928v0.688h4.669v0.976H122.355z
		 M121.41,365.416v-1.039l5.613-1.063v0.976l-1.111,0.184v0.888l1.111,0.176v0.943L121.41,365.416z M125.032,364.616l-1.847,0.296
		l1.847,0.304V364.616z M121.427,363.016v-1.008c0-0.999,0.527-1.727,1.783-1.727h0.071c0.728,0,1.191,0.288,1.472,0.655
		l2.271-0.751v1.039l-1.951,0.632v0.184h1.951v0.976H121.427z M124.193,361.992c0-0.424-0.248-0.735-0.904-0.735h-0.063
		c-0.704,0-0.888,0.336-0.888,0.76v0.023h1.855V361.992z M122.355,358.04v0.688h-0.928v-2.351h0.928v0.688h4.669v0.976H122.355z
		 M121.427,355.968v-1.008c0-0.999,0.527-1.727,1.783-1.727h0.071c0.728,0,1.191,0.288,1.472,0.655l2.271-0.751v1.039l-1.951,0.632
		v0.184h1.951v0.976H121.427z M124.193,354.944c0-0.424-0.248-0.735-0.904-0.735h-0.063c-0.704,0-0.888,0.336-0.888,0.76v0.023
		h1.855V354.944z M121.41,352v-1.039l5.613-1.063v0.976l-1.111,0.184v0.888l1.111,0.176v0.943L121.41,352z M125.032,351.201
		l-1.847,0.295l1.847,0.305V351.201z M124.321,349.775h-0.192c-1.967,0-2.742-0.728-2.742-1.639c0-0.272,0.032-0.432,0.128-0.64
		h1.007c-0.119,0.2-0.184,0.36-0.184,0.543c0,0.432,0.384,0.744,1.783,0.744h0.208c1.479,0,1.783-0.312,1.783-0.759
		c0-0.152-0.057-0.344-0.176-0.544h0.959c0.128,0.224,0.168,0.44,0.168,0.72C127.064,349.096,126.272,349.775,124.321,349.775z
		 M121.427,346.992v-0.975h2.343l-2.343-0.792v-1.103l2.366,0.943l3.23-0.959v1.087l-2.119,0.607l0.616,0.216h1.503v0.975H121.427z"
		/>
	<path class="st2" d="M53.422,101.153h2.143v0.927h-1.167v1.391h1.031v0.928h-1.031v1.423h1.191v0.928h-2.167V101.153z
		 M56.062,101.153h0.911l0.983,2.83v-2.83h0.952v5.597h-0.863l-1.032-2.966v2.966h-0.951V101.153z M60.005,102.081h-0.688v-0.927
		h2.351v0.927h-0.688v4.669h-0.976V102.081z M61.821,104.096v-0.288c0-1.847,0.6-2.734,1.487-2.734c0.888,0,1.487,0.887,1.487,2.734
		v0.288c0,1.847-0.6,2.734-1.487,2.734C62.421,106.83,61.821,105.942,61.821,104.096z M63.805,104.096v-0.288
		c0-1.439-0.2-1.839-0.496-1.839s-0.495,0.399-0.495,1.839v0.288c0,1.439,0.199,1.839,0.495,1.839S63.805,105.535,63.805,104.096z
		 M65.262,105.119v-3.966h0.967v4.062c0,0.504,0.177,0.704,0.424,0.704c0.248,0,0.424-0.2,0.424-0.704v-4.062h0.968v3.966
		c0,1.175-0.592,1.703-1.392,1.703C65.854,106.822,65.262,106.294,65.262,105.119z M68.606,101.153h1.008
		c0.999,0,1.727,0.527,1.727,1.783v0.072c0,0.728-0.288,1.191-0.655,1.472l0.751,2.271h-1.039l-0.632-1.951h-0.184v1.951h-0.976
		V101.153z M69.629,103.919c0.424,0,0.735-0.248,0.735-0.903v-0.064c0-0.704-0.336-0.888-0.76-0.888h-0.023v1.855H69.629z
		 M72.573,101.137h1.039l1.063,5.613H73.7l-0.184-1.111h-0.888l-0.176,1.111H71.51L72.573,101.137z M73.372,104.759l-0.296-1.847
		l-0.304,1.847H73.372z M74.798,104.047v-0.192c0-1.807,0.768-2.742,1.87-2.742c0.296,0,0.544,0.064,0.744,0.16v1.016
		c-0.24-0.144-0.456-0.24-0.712-0.24c-0.56,0-0.911,0.56-0.911,1.767v0.272c0,1.463,0.432,1.799,0.831,1.799
		c0.032,0,0.04,0,0.088-0.008v-1.431h-0.479v-0.872h1.367v2.975c-0.352,0.152-0.64,0.24-1.016,0.24
		C75.605,106.79,74.798,105.998,74.798,104.047z M78.134,101.153h2.143v0.927h-1.168v1.391h1.032v0.928h-1.032v1.423H80.3v0.928
		h-2.166V101.153z M55.59,110.081h-0.688v-0.927h2.352v0.927h-0.688v4.669H55.59V110.081z M57.661,109.153h2.144v0.927h-1.168v1.391
		h1.032v0.928h-1.032v1.423h1.191v0.928h-2.167V109.153z M60.302,109.153h2.143v0.927h-1.167v1.391h1.031v0.928h-1.031v1.423h1.191
		v0.928h-2.167V109.153z M62.941,109.153h0.911l0.983,2.83v-2.83h0.952v5.597h-0.863l-1.032-2.966v2.966h-0.951V109.153z
		 M67.541,112.047v-0.192c0-1.967,0.728-2.742,1.64-2.742c0.271,0,0.432,0.032,0.64,0.128v1.007c-0.2-0.12-0.36-0.184-0.544-0.184
		c-0.432,0-0.743,0.384-0.743,1.783v0.208c0,1.479,0.312,1.783,0.759,1.783c0.152,0,0.344-0.056,0.544-0.176v0.959
		c-0.224,0.128-0.439,0.168-0.72,0.168C68.221,114.79,67.541,113.998,67.541,112.047z M70.325,109.153h0.976v4.669h1.031v0.928
		h-2.007V109.153z M72.629,113.119v-3.966h0.968v4.062c0,0.504,0.176,0.704,0.424,0.704s0.424-0.2,0.424-0.704v-4.062h0.968v3.966
		c0,1.175-0.592,1.703-1.392,1.703S72.629,114.294,72.629,113.119z M75.974,109.153h0.847c0.944,0,1.823,0.384,1.823,1.423v0.04
		c0,0.72-0.407,1.071-0.808,1.263c0.472,0.208,0.88,0.536,0.88,1.248v0.072c0,0.992-0.768,1.551-1.855,1.551h-0.887V109.153z
		 M76.965,111.504c0.432,0,0.72-0.248,0.72-0.736v-0.016c0-0.487-0.288-0.695-0.72-0.695h-0.017v1.447H76.965z M76.973,113.847
		c0.447,0,0.768-0.264,0.768-0.728v-0.04c0-0.464-0.32-0.728-0.768-0.728h-0.024v1.495H76.973z M64.609,117.153h0.976v5.597h-0.976
		V117.153z M66.178,117.153h0.911l0.983,2.83v-2.83h0.951v5.597H68.16l-1.031-2.966v2.966h-0.951V117.153z M55.074,128.047v-0.192
		c0-1.967,0.728-2.742,1.639-2.742c0.271,0,0.432,0.032,0.64,0.128v1.007c-0.2-0.12-0.359-0.184-0.544-0.184
		c-0.432,0-0.743,0.384-0.743,1.783v0.208c0,1.479,0.312,1.783,0.76,1.783c0.151,0,0.344-0.056,0.543-0.176v0.959
		c-0.224,0.128-0.439,0.168-0.72,0.168C55.753,130.79,55.074,129.998,55.074,128.047z M57.857,125.153h2.144v0.927h-1.168v1.391
		h1.031v0.928h-1.031v1.423h1.191v0.928h-2.167V125.153z M60.498,125.153h0.975v4.669h1.032v0.928h-2.007V125.153z M62.898,125.153
		h2.143v0.927h-1.167v1.391h1.031v0.928h-1.031v1.423h1.191v0.928h-2.167V125.153z M65.537,125.153h0.848
		c0.943,0,1.823,0.384,1.823,1.423v0.04c0,0.72-0.408,1.071-0.808,1.263c0.472,0.208,0.88,0.536,0.88,1.248v0.072
		c0,0.992-0.768,1.551-1.855,1.551h-0.888V125.153z M66.529,127.504c0.432,0,0.719-0.248,0.719-0.736v-0.016
		c0-0.487-0.287-0.695-0.719-0.695h-0.017v1.447H66.529z M66.537,129.847c0.447,0,0.768-0.264,0.768-0.728v-0.04
		c0-0.464-0.32-0.728-0.768-0.728h-0.024v1.495H66.537z M68.689,125.153h1.008c0.999,0,1.727,0.527,1.727,1.783v0.072
		c0,0.728-0.288,1.191-0.655,1.472l0.751,2.271h-1.039l-0.632-1.951h-0.184v1.951h-0.976V125.153z M69.713,127.919
		c0.424,0,0.735-0.248,0.735-0.903v-0.064c0-0.704-0.336-0.888-0.76-0.888h-0.023v1.855H69.713z M71.89,125.153h0.976v5.597H71.89
		V125.153z M73.977,126.081h-0.688v-0.927h2.351v0.927h-0.688v4.669h-0.976V126.081z M76.721,128.543l-1.039-3.39h1.007l0.528,2.095
		l0.535-2.095h0.983l-1.039,3.39v2.207h-0.976V128.543z M60.426,133.153h0.911c1.247,0,1.959,0.903,1.959,2.702v0.192
		c0,1.799-0.712,2.703-1.959,2.703h-0.911V133.153z M61.44,137.854c0.464,0,0.864-0.408,0.864-1.807v-0.192
		c0-1.399-0.4-1.807-0.864-1.807H61.4v3.806H61.44z M63.793,133.153h0.976v5.597h-0.976V133.153z M65.241,138.558v-1.016
		c0.344,0.2,0.616,0.312,0.88,0.312c0.279,0,0.52-0.136,0.52-0.479v-0.016c0-0.256-0.08-0.448-0.544-0.976
		c-0.663-0.751-0.936-1.111-0.936-1.791v-0.016c0-0.896,0.584-1.463,1.359-1.463c0.392,0,0.624,0.056,0.863,0.176v1.016
		c-0.304-0.176-0.487-0.256-0.743-0.256c-0.271,0-0.504,0.176-0.504,0.479v0.016c0,0.264,0.08,0.36,0.544,0.896
		c0.768,0.887,0.936,1.231,0.936,1.871v0.016c0,0.879-0.616,1.463-1.384,1.463C65.849,138.79,65.522,138.694,65.241,138.558z
		 M67.825,136.047v-0.192c0-1.967,0.728-2.742,1.64-2.742c0.271,0,0.432,0.032,0.64,0.128v1.007c-0.2-0.12-0.36-0.184-0.544-0.184
		c-0.432,0-0.744,0.384-0.744,1.783v0.208c0,1.479,0.312,1.783,0.76,1.783c0.152,0,0.344-0.056,0.544-0.176v0.959
		c-0.224,0.128-0.439,0.168-0.72,0.168C68.505,138.79,67.825,137.998,67.825,136.047z M70.314,136.096v-0.288
		c0-1.847,0.6-2.734,1.487-2.734s1.487,0.887,1.487,2.734v0.288c0,1.847-0.6,2.734-1.487,2.734S70.314,137.942,70.314,136.096z
		 M72.296,136.096v-0.288c0-1.439-0.199-1.839-0.495-1.839s-0.496,0.399-0.496,1.839v0.288c0,1.439,0.2,1.839,0.496,1.839
		S72.296,137.535,72.296,136.096z"/>
	<path class="st2" d="M18.411,119.881v-1.016c0.344,0.2,0.615,0.312,0.879,0.312c0.28,0,0.521-0.136,0.521-0.48v-0.016
		c0-0.256-0.08-0.448-0.544-0.976c-0.664-0.751-0.936-1.111-0.936-1.791v-0.016c0-0.896,0.584-1.463,1.359-1.463
		c0.392,0,0.623,0.056,0.863,0.176v1.015c-0.304-0.176-0.487-0.256-0.743-0.256c-0.272,0-0.504,0.176-0.504,0.48v0.016
		c0,0.264,0.08,0.36,0.544,0.896c0.768,0.887,0.936,1.231,0.936,1.871v0.016c0,0.88-0.616,1.463-1.384,1.463
		C19.019,120.113,18.69,120.017,18.411,119.881z M21.115,118.441v-3.966h0.967v4.062c0,0.504,0.176,0.704,0.424,0.704
		s0.424-0.2,0.424-0.704v-4.062h0.968v3.966c0,1.176-0.592,1.703-1.392,1.703C21.707,120.144,21.115,119.617,21.115,118.441z
		 M24.459,114.476h0.911l0.983,2.831v-2.831h0.952v5.597h-0.864l-1.031-2.966v2.966h-0.951V114.476z M17.295,122.476h0.911
		c1.248,0,1.959,0.904,1.959,2.703v0.192c0,1.799-0.711,2.703-1.959,2.703h-0.911V122.476z M18.311,127.177
		c0.464,0,0.863-0.408,0.863-1.807v-0.192c0-1.399-0.399-1.807-0.863-1.807h-0.04v3.806H18.311z M20.647,122.476h2.144v0.928h-1.168
		v1.391h1.031v0.928h-1.031v1.423h1.191v0.927h-2.167V122.476z M23.11,125.37v-0.192c0-1.967,0.728-2.742,1.64-2.742
		c0.271,0,0.432,0.032,0.64,0.128v1.007c-0.2-0.12-0.36-0.184-0.544-0.184c-0.432,0-0.743,0.384-0.743,1.783v0.208
		c0,1.479,0.312,1.783,0.759,1.783c0.152,0,0.345-0.056,0.544-0.176v0.959c-0.224,0.128-0.439,0.168-0.72,0.168
		C23.79,128.113,23.11,127.321,23.11,125.37z M25.895,122.476h0.976v2.343l0.792-2.343h1.103l-0.943,2.367l0.96,3.23h-1.088
		l-0.607-2.119l-0.216,0.615v1.503h-0.976V122.476z"/>
	<path class="st2" d="M52.507,211.435h0.848c0.943,0,1.822,0.384,1.822,1.423v0.04c0,0.72-0.407,1.071-0.807,1.263
		c0.472,0.208,0.879,0.536,0.879,1.248v0.072c0,0.992-0.768,1.551-1.854,1.551h-0.888V211.435z M53.498,213.785
		c0.432,0,0.72-0.248,0.72-0.736v-0.016c0-0.487-0.288-0.695-0.72-0.695h-0.016v1.447H53.498z M53.506,216.128
		c0.448,0,0.768-0.264,0.768-0.728v-0.04c0-0.464-0.319-0.728-0.768-0.728h-0.023v1.495H53.506z M55.675,211.435h0.976v5.597h-0.976
		V211.435z M57.242,211.435h2.144v0.927h-1.168v1.391h1.032v0.928h-1.032v1.423h1.191v0.928h-2.167V211.435z M59.883,211.435h1.007
		c1,0,1.728,0.527,1.728,1.783v0.072c0,0.728-0.288,1.191-0.656,1.472l0.752,2.271h-1.039l-0.632-1.951h-0.184v1.951h-0.976V211.435
		z M60.906,214.201c0.424,0,0.735-0.248,0.735-0.903v-0.064c0-0.704-0.336-0.888-0.76-0.888h-0.023v1.855H60.906z M64.242,214.329
		v-0.192c0-1.807,0.768-2.742,1.871-2.742c0.296,0,0.544,0.064,0.744,0.16v1.016c-0.24-0.144-0.456-0.24-0.712-0.24
		c-0.56,0-0.911,0.56-0.911,1.767v0.272c0,1.463,0.432,1.799,0.831,1.799c0.032,0,0.04,0,0.088-0.008v-1.431h-0.479v-0.872h1.367
		v2.975c-0.352,0.152-0.64,0.24-1.016,0.24C65.05,217.071,64.242,216.28,64.242,214.329z M68.362,211.418h1.039l1.063,5.613h-0.976
		l-0.184-1.111h-0.888l-0.176,1.111h-0.943L68.362,211.418z M69.161,215.04l-0.295-1.847l-0.305,1.847H69.161z M70.763,211.435
		h1.007c1,0,1.728,0.527,1.728,1.783v0.072c0,0.728-0.288,1.191-0.656,1.472l0.752,2.271h-1.039l-0.632-1.951h-0.184v1.951h-0.976
		V211.435z M71.786,214.201c0.424,0,0.735-0.248,0.735-0.903v-0.064c0-0.704-0.336-0.888-0.76-0.888h-0.023v1.855H71.786z
		 M74.386,212.362h-0.688v-0.927h2.351v0.927h-0.688v4.669h-0.976V212.362z M76.458,211.435h2.144v0.927h-1.168v1.391h1.031v0.928
		h-1.031v1.423h1.191v0.928h-2.167V211.435z M79.099,211.435h0.911l0.983,2.83v-2.83h0.951v5.597h-0.863l-1.031-2.966v2.966h-0.951
		V211.435z"/>
	<path class="st2" d="M45.367,20.67v-0.288c0-1.847,0.6-2.734,1.487-2.734s1.487,0.887,1.487,2.734v0.288
		c0,1.847-0.6,2.734-1.487,2.734S45.367,22.517,45.367,20.67z M47.351,20.67v-0.288c0-1.439-0.2-1.839-0.496-1.839
		s-0.496,0.399-0.496,1.839v0.288c0,1.439,0.2,1.839,0.496,1.839S47.351,22.109,47.351,20.67z M48.823,17.727h0.848
		c0.943,0,1.823,0.384,1.823,1.423v0.04c0,0.72-0.408,1.071-0.808,1.263c0.472,0.208,0.879,0.536,0.879,1.248v0.072
		c0,0.992-0.768,1.551-1.854,1.551h-0.888V17.727z M49.814,20.078c0.432,0,0.72-0.248,0.72-0.736v-0.016
		c0-0.487-0.288-0.695-0.72-0.695h-0.016v1.447H49.814z M49.823,22.421c0.447,0,0.768-0.264,0.768-0.728v-0.04
		c0-0.464-0.32-0.728-0.768-0.728h-0.024v1.495H49.823z M51.856,23.132v-1.016c0.344,0.2,0.615,0.312,0.88,0.312
		c0.279,0,0.52-0.136,0.52-0.479v-0.016c0-0.256-0.08-0.448-0.544-0.976c-0.664-0.751-0.936-1.111-0.936-1.791V19.15
		c0-0.896,0.584-1.463,1.359-1.463c0.392,0,0.624,0.056,0.863,0.176v1.016c-0.304-0.176-0.487-0.256-0.743-0.256
		c-0.272,0-0.504,0.176-0.504,0.479v0.016c0,0.264,0.08,0.36,0.544,0.896c0.768,0.887,0.936,1.231,0.936,1.871v0.016
		c0,0.879-0.616,1.463-1.384,1.463C52.463,23.364,52.135,23.268,51.856,23.132z M54.575,17.727h2.143v0.927h-1.167v1.391h1.031
		v0.928h-1.031v1.423h1.191v0.928h-2.167V17.727z M57.215,17.727h1.008c0.999,0,1.727,0.527,1.727,1.783v0.072
		c0,0.728-0.287,1.191-0.655,1.472l0.752,2.271h-1.04l-0.632-1.951H58.19v1.951h-0.976V17.727z M58.238,20.494
		c0.424,0,0.736-0.248,0.736-0.903v-0.064c0-0.704-0.336-0.888-0.76-0.888H58.19v1.855H58.238z M60.119,17.727h0.991l0.528,3.646
		l0.527-3.646h0.96l-1,5.613h-1.007L60.119,17.727z M64.047,17.711h1.039l1.063,5.613h-0.976l-0.184-1.111h-0.888l-0.176,1.111
		h-0.943L64.047,17.711z M64.847,21.333l-0.296-1.847l-0.304,1.847H64.847z M66.727,18.655h-0.688v-0.927h2.351v0.927h-0.688v4.669
		h-0.976V18.655z M68.815,17.727h0.975v5.597h-0.975V17.727z M70.287,20.67v-0.288c0-1.847,0.6-2.734,1.487-2.734
		s1.487,0.887,1.487,2.734v0.288c0,1.847-0.6,2.734-1.487,2.734S70.287,22.517,70.287,20.67z M72.27,20.67v-0.288
		c0-1.439-0.199-1.839-0.495-1.839s-0.496,0.399-0.496,1.839v0.288c0,1.439,0.2,1.839,0.496,1.839S72.27,22.109,72.27,20.67z
		 M73.743,17.727h0.911l0.983,2.83v-2.83h0.952v5.597h-0.864l-1.031-2.966v2.966h-0.951V17.727z M78.439,17.727h0.912
		c1.247,0,1.959,0.903,1.959,2.702v0.192c0,1.799-0.712,2.703-1.959,2.703h-0.912V17.727z M79.454,22.429
		c0.464,0,0.863-0.408,0.863-1.807V20.43c0-1.399-0.399-1.807-0.863-1.807h-0.04v3.806H79.454z M81.791,17.727h2.143v0.927h-1.167
		v1.391h1.031v0.928h-1.031v1.423h1.191v0.928h-2.167V17.727z M84.255,20.622V20.43c0-1.967,0.728-2.742,1.639-2.742
		c0.272,0,0.432,0.032,0.64,0.128v1.007c-0.199-0.12-0.359-0.184-0.543-0.184c-0.433,0-0.744,0.384-0.744,1.783v0.208
		c0,1.479,0.312,1.783,0.76,1.783c0.152,0,0.344-0.056,0.544-0.176v0.959c-0.225,0.128-0.44,0.168-0.72,0.168
		C84.935,23.364,84.255,22.573,84.255,20.622z M87.039,17.727h0.976v2.342l0.791-2.342h1.104l-0.943,2.366l0.959,3.23h-1.087
		l-0.607-2.119l-0.216,0.616v1.503h-0.976V17.727z"/>
	<path class="st2" d="M23.504,610.821h-0.192c-1.807,0-2.742-0.768-2.742-1.871c0-0.296,0.063-0.544,0.16-0.743h1.015
		c-0.144,0.239-0.239,0.455-0.239,0.711c0,0.561,0.56,0.912,1.767,0.912h0.272c1.463,0,1.799-0.432,1.799-0.832
		c0-0.031,0-0.04-0.008-0.088h-1.432v0.479h-0.871v-1.367h2.974c0.152,0.353,0.24,0.64,0.24,1.016
		C26.246,610.014,25.454,610.821,23.504,610.821z M23.552,607.581h-0.288c-1.847,0-2.734-0.6-2.734-1.487
		c0-0.887,0.888-1.486,2.734-1.486h0.288c1.847,0,2.734,0.6,2.734,1.486C26.286,606.981,25.398,607.581,23.552,607.581z
		 M23.552,605.599h-0.288c-1.439,0-1.839,0.199-1.839,0.495s0.399,0.496,1.839,0.496h0.288c1.439,0,1.839-0.2,1.839-0.496
		S24.991,605.599,23.552,605.599z M20.609,604.125v-0.975h4.669v-1.032h0.928v2.007H20.609z M20.609,601.726v-2.039h0.927v1.063
		h1.408v-0.928h0.927v0.928h2.335v0.976H20.609z M20.609,597.974v-0.911c0-1.248,0.903-1.959,2.702-1.959h0.192
		c1.799,0,2.702,0.711,2.702,1.959v0.911H20.609z M25.311,596.958c0-0.464-0.408-0.863-1.807-0.863h-0.192
		c-1.399,0-1.807,0.399-1.807,0.863v0.04h3.806V596.958z M20.609,594.621v-1.007c0-1,0.527-1.728,1.783-1.728h0.071
		c0.728,0,1.191,0.288,1.472,0.656l2.271-0.752v1.039l-1.951,0.632v0.185h1.951v0.975H20.609z M23.376,593.598
		c0-0.423-0.248-0.735-0.904-0.735h-0.063c-0.704,0-0.888,0.336-0.888,0.76v0.024h1.855V593.598z M20.609,591.422v-0.976h5.597
		v0.976H20.609z M20.609,590.134v-0.992l3.646-0.527l-3.646-0.527v-0.96l5.612,1v1.007L20.609,590.134z M20.609,586.813v-0.976
		h5.597v0.976H20.609z M20.609,585.246v-0.912l2.83-0.983h-2.83v-0.951h5.597v0.863l-2.967,1.031h2.967v0.952H20.609z
		 M23.504,581.918h-0.192c-1.807,0-2.742-0.768-2.742-1.871c0-0.296,0.063-0.544,0.16-0.744h1.015
		c-0.144,0.24-0.239,0.456-0.239,0.712c0,0.56,0.56,0.911,1.767,0.911h0.272c1.463,0,1.799-0.432,1.799-0.831
		c0-0.032,0-0.04-0.008-0.088h-1.432v0.479h-0.871v-1.367h2.974c0.152,0.352,0.24,0.64,0.24,1.016
		C26.246,581.11,25.454,581.918,23.504,581.918z M20.609,577.31v-0.911l2.83-0.983h-2.83v-0.952h5.597v0.864l-2.967,1.031h2.967
		v0.951H20.609z M20.609,573.886v-2.143h0.927v1.167h1.392v-1.031h0.928v1.031h1.423v-1.191h0.928v2.167H20.609z M21.536,570.727
		v0.688h-0.927v-2.351h0.927v0.688h4.67v0.976H21.536z"/>
	<path class="st2" d="M56.546,329.366v-0.288c0-1.847,0.6-2.734,1.487-2.734s1.487,0.887,1.487,2.734v0.288
		c0,1.847-0.6,2.734-1.487,2.734S56.546,331.213,56.546,329.366z M58.528,329.366v-0.288c0-1.439-0.199-1.839-0.495-1.839
		s-0.496,0.399-0.496,1.839v0.288c0,1.439,0.2,1.839,0.496,1.839S58.528,330.805,58.528,329.366z M60.002,326.424h0.871
		c1.063,0,1.808,0.575,1.808,1.887v0.016c0,1.263-0.704,1.863-1.695,1.935h-0.008v1.759h-0.976V326.424z M60.985,329.358
		c0.407-0.024,0.72-0.32,0.72-1v-0.016c0-0.712-0.272-1.016-0.696-1.016h-0.031v2.031H60.985z M63.082,326.424h2.143v0.927h-1.168
		v1.391h1.032v0.928h-1.032v1.423h1.191v0.928h-2.166V326.424z M65.722,326.424h0.911l0.983,2.83v-2.83h0.952v5.597h-0.864
		l-1.031-2.966v2.966h-0.951V326.424z M70.938,327.351h-0.688v-0.927h2.352v0.927h-0.688v4.669h-0.976V327.351z M72.754,329.366
		v-0.288c0-1.847,0.6-2.734,1.486-2.734c0.888,0,1.487,0.887,1.487,2.734v0.288c0,1.847-0.6,2.734-1.487,2.734
		C73.354,332.101,72.754,331.213,72.754,329.366z M74.736,329.366v-0.288c0-1.439-0.2-1.839-0.496-1.839s-0.495,0.399-0.495,1.839
		v0.288c0,1.439,0.199,1.839,0.495,1.839S74.736,330.805,74.736,329.366z M60.514,334.424h0.911c1.248,0,1.959,0.903,1.959,2.702
		v0.192c0,1.799-0.711,2.703-1.959,2.703h-0.911V334.424z M61.529,339.125c0.464,0,0.863-0.408,0.863-1.807v-0.192
		c0-1.399-0.399-1.807-0.863-1.807h-0.04v3.806H61.529z M63.865,334.424h2.144v0.927h-1.168v1.391h1.031v0.928h-1.031v1.423h1.191
		v0.928h-2.167V334.424z M66.329,337.318v-0.192c0-1.967,0.729-2.742,1.64-2.742c0.271,0,0.432,0.032,0.64,0.128v1.007
		c-0.2-0.12-0.36-0.184-0.544-0.184c-0.432,0-0.743,0.384-0.743,1.783v0.208c0,1.479,0.312,1.783,0.76,1.783
		c0.151,0,0.344-0.056,0.543-0.176v0.959c-0.224,0.128-0.439,0.168-0.72,0.168C67.009,340.06,66.329,339.269,66.329,337.318z
		 M69.113,334.424h0.976v2.342l0.792-2.342h1.103l-0.943,2.366l0.96,3.23h-1.088l-0.607-2.119l-0.216,0.616v1.503h-0.976V334.424z
		 M58.422,342.424h0.848c0.943,0,1.822,0.384,1.822,1.423v0.04c0,0.72-0.407,1.071-0.808,1.263c0.473,0.208,0.88,0.536,0.88,1.248
		v0.072c0,0.992-0.768,1.551-1.854,1.551h-0.888V342.424z M59.413,344.774c0.432,0,0.72-0.248,0.72-0.736v-0.016
		c0-0.487-0.288-0.695-0.72-0.695h-0.016v1.447H59.413z M59.421,347.117c0.448,0,0.768-0.264,0.768-0.728v-0.04
		c0-0.464-0.319-0.728-0.768-0.728h-0.023v1.495H59.421z M61.573,342.424h2.144v0.927h-1.168v1.391h1.031v0.928h-1.031v1.423h1.191
		v0.928h-2.167V342.424z M64.214,342.424h0.975v4.669h1.032v0.928h-2.007V342.424z M66.317,345.366v-0.288
		c0-1.847,0.6-2.734,1.487-2.734s1.487,0.887,1.487,2.734v0.288c0,1.847-0.6,2.734-1.487,2.734S66.317,347.213,66.317,345.366z
		 M68.301,345.366v-0.288c0-1.439-0.2-1.839-0.496-1.839s-0.496,0.399-0.496,1.839v0.288c0,1.439,0.2,1.839,0.496,1.839
		S68.301,346.805,68.301,345.366z M69.43,342.424h0.999l0.408,3.43l0.487-3.43h0.904l0.479,3.43l0.416-3.43h0.975l-0.847,5.613
		h-1.023l-0.464-3.318l-0.464,3.318h-1.023L69.43,342.424z"/>
	<path class="st2" d="M11.235,371.151h-1.015c0.199-0.344,0.312-0.615,0.312-0.88c0-0.279-0.136-0.52-0.479-0.52h-0.017
		c-0.256,0-0.447,0.08-0.975,0.544c-0.752,0.664-1.112,0.936-1.791,0.936H7.254c-0.896,0-1.463-0.584-1.463-1.359
		c0-0.392,0.056-0.624,0.176-0.863h1.016c-0.176,0.304-0.256,0.487-0.256,0.743c0,0.272,0.176,0.504,0.479,0.504h0.016
		c0.265,0,0.36-0.08,0.896-0.544c0.888-0.768,1.231-0.936,1.871-0.936h0.017c0.879,0,1.463,0.616,1.463,1.384
		C11.468,370.544,11.372,370.872,11.235,371.151z M6.759,368.032v0.688H5.831v-2.351h0.928v0.688h4.669v0.976H6.759z M5.814,365.416
		v-1.039l5.613-1.063v0.976l-1.111,0.184v0.888l1.111,0.176v0.943L5.814,365.416z M9.437,364.616l-1.847,0.296l1.847,0.304V364.616z
		 M5.831,363.016v-1.008c0-0.999,0.527-1.727,1.783-1.727h0.071c0.728,0,1.191,0.288,1.472,0.655l2.271-0.751v1.039l-1.951,0.632
		v0.184h1.951v0.976H5.831z M8.598,361.992c0-0.424-0.248-0.735-0.904-0.735H7.63c-0.704,0-0.888,0.336-0.888,0.76v0.023h1.855
		V361.992z M6.759,358.04v0.688H5.831v-2.351h0.928v0.688h4.669v0.976H6.759z M5.831,355.968v-1.008
		c0-0.999,0.527-1.727,1.783-1.727h0.071c0.728,0,1.191,0.288,1.472,0.655l2.271-0.751v1.039l-1.951,0.632v0.184h1.951v0.976H5.831z
		 M8.598,354.944c0-0.424-0.248-0.735-0.904-0.735H7.63c-0.704,0-0.888,0.336-0.888,0.76v0.023h1.855V354.944z M5.814,352v-1.039
		l5.613-1.063v0.976l-1.111,0.184v0.888l1.111,0.176v0.943L5.814,352z M9.437,351.201l-1.847,0.295l1.847,0.305V351.201z
		 M8.726,349.775H8.533c-1.967,0-2.742-0.728-2.742-1.639c0-0.272,0.032-0.432,0.128-0.64h1.007c-0.119,0.2-0.184,0.36-0.184,0.543
		c0,0.432,0.384,0.744,1.783,0.744h0.208c1.479,0,1.783-0.312,1.783-0.759c0-0.152-0.057-0.344-0.176-0.544H11.3
		c0.128,0.224,0.168,0.44,0.168,0.72C11.468,349.096,10.676,349.775,8.726,349.775z M5.831,346.992v-0.975h2.343l-2.343-0.792
		v-1.103l2.366,0.943l3.23-0.959v1.087L9.309,345.8l0.616,0.216h1.503v0.975H5.831z"/>
	<path class="st2" d="M33.358,163.888h1.008c0.999,0,1.727,0.528,1.727,1.783v0.072c0,0.728-0.287,1.191-0.655,1.471l0.752,2.271
		h-1.04l-0.631-1.951h-0.185v1.951h-0.976V163.888z M34.382,166.654c0.424,0,0.736-0.248,0.736-0.903v-0.064
		c0-0.704-0.336-0.888-0.76-0.888h-0.024v1.855H34.382z M36.543,163.888h1.007c1,0,1.728,0.528,1.728,1.783v0.072
		c0,0.728-0.288,1.191-0.655,1.471l0.751,2.271h-1.039l-0.632-1.951h-0.184v1.951h-0.976V163.888z M37.566,166.654
		c0.424,0,0.735-0.248,0.735-0.903v-0.064c0-0.704-0.336-0.888-0.76-0.888h-0.023v1.855H37.566z"/>
	<path class="st2" d="M42.11,163.888h1.008c0.999,0,1.727,0.528,1.727,1.783v0.072c0,0.728-0.287,1.191-0.655,1.471l0.752,2.271
		h-1.04l-0.631-1.951h-0.185v1.951H42.11V163.888z M43.134,166.654c0.424,0,0.736-0.248,0.736-0.903v-0.064
		c0-0.704-0.336-0.888-0.76-0.888h-0.024v1.855H43.134z M45.295,163.888h1.007c1,0,1.728,0.528,1.728,1.783v0.072
		c0,0.728-0.288,1.191-0.655,1.471l0.751,2.271h-1.039l-0.632-1.951h-0.184v1.951h-0.976V163.888z M46.318,166.654
		c0.424,0,0.735-0.248,0.735-0.903v-0.064c0-0.704-0.336-0.888-0.76-0.888h-0.023v1.855H46.318z"/>
	<path class="st2" d="M53.827,638.828v-1.015c0.344,0.199,0.615,0.312,0.879,0.312c0.28,0,0.52-0.136,0.52-0.479v-0.017
		c0-0.256-0.08-0.447-0.543-0.975c-0.664-0.752-0.936-1.112-0.936-1.791v-0.017c0-0.896,0.583-1.463,1.359-1.463
		c0.392,0,0.623,0.056,0.863,0.176v1.016c-0.304-0.176-0.488-0.256-0.744-0.256c-0.271,0-0.503,0.176-0.503,0.479v0.016
		c0,0.265,0.079,0.36,0.543,0.896c0.768,0.888,0.936,1.231,0.936,1.871v0.017c0,0.879-0.615,1.463-1.383,1.463
		C54.435,639.06,54.106,638.965,53.827,638.828z M56.946,634.352h-0.688v-0.928h2.351v0.928h-0.688v4.669h-0.976V634.352z
		 M59.563,633.407h1.039l1.063,5.613h-0.976l-0.184-1.111h-0.888l-0.176,1.111h-0.943L59.563,633.407z M60.361,637.029l-0.296-1.847
		l-0.304,1.847H60.361z M61.963,633.424h1.007c1,0,1.728,0.527,1.728,1.783v0.071c0,0.728-0.288,1.191-0.656,1.472l0.752,2.271
		h-1.039l-0.632-1.951h-0.184v1.951h-0.976V633.424z M62.986,636.19c0.424,0,0.735-0.248,0.735-0.904v-0.063
		c0-0.704-0.336-0.888-0.76-0.888h-0.023v1.855H62.986z M66.419,633.424h0.911c1.247,0,1.959,0.903,1.959,2.702v0.192
		c0,1.799-0.712,2.702-1.959,2.702h-0.911V633.424z M67.434,638.125c0.464,0,0.864-0.408,0.864-1.807v-0.192
		c0-1.399-0.4-1.807-0.864-1.807h-0.04v3.806H67.434z M69.771,633.424h2.143v0.928h-1.167v1.391h1.031v0.928h-1.031v1.423h1.191
		v0.928h-2.167V633.424z M72.234,636.318v-0.192c0-1.967,0.728-2.742,1.639-2.742c0.272,0,0.433,0.032,0.64,0.128v1.007
		c-0.199-0.119-0.359-0.184-0.543-0.184c-0.432,0-0.744,0.384-0.744,1.783v0.208c0,1.479,0.312,1.783,0.76,1.783
		c0.152,0,0.344-0.057,0.544-0.176v0.959c-0.224,0.128-0.44,0.168-0.72,0.168C72.914,639.06,72.234,638.268,72.234,636.318z
		 M75.019,633.424h0.976v2.343l0.791-2.343h1.104l-0.943,2.366l0.959,3.23h-1.087l-0.607-2.119l-0.216,0.616v1.503h-0.976V633.424z"
		/>
	<path class="st2" d="M107.729,621.376v-0.848c0-0.943,0.384-1.823,1.423-1.823h0.04c0.72,0,1.071,0.408,1.264,0.808
		c0.208-0.472,0.535-0.879,1.247-0.879h0.072c0.991,0,1.551,0.768,1.551,1.854v0.888H107.729z M110.079,620.385
		c0-0.432-0.248-0.72-0.735-0.72h-0.017c-0.487,0-0.695,0.288-0.695,0.72v0.016h1.447V620.385z M112.422,620.377
		c0-0.448-0.264-0.768-0.728-0.768h-0.04c-0.464,0-0.728,0.319-0.728,0.768v0.023h1.495V620.377z M107.712,617.48v-1.039
		l5.613-1.063v0.976l-1.111,0.184v0.888l1.111,0.176v0.943L107.712,617.48z M111.334,616.681l-1.847,0.296l1.847,0.304V616.681z
		 M113.134,615.2h-1.016c0.199-0.344,0.312-0.616,0.312-0.88c0-0.279-0.136-0.52-0.479-0.52h-0.017c-0.256,0-0.447,0.08-0.976,0.544
		c-0.751,0.663-1.111,0.936-1.791,0.936h-0.016c-0.896,0-1.463-0.584-1.463-1.359c0-0.392,0.056-0.624,0.176-0.864h1.016
		c-0.176,0.305-0.256,0.488-0.256,0.744c0,0.271,0.176,0.504,0.479,0.504h0.016c0.265,0,0.36-0.08,0.896-0.544
		c0.888-0.768,1.231-0.936,1.871-0.936h0.017c0.879,0,1.463,0.616,1.463,1.384C113.365,614.592,113.27,614.92,113.134,615.2z
		 M107.729,612.48v-0.976h2.343l-2.343-0.792v-1.104l2.366,0.943l3.23-0.959v1.087l-2.119,0.608l0.616,0.216h1.503v0.976H107.729z
		 M107.729,609.256v-2.143h0.927v1.167h1.392v-1.031h0.928v1.031h1.423v-1.191h0.928v2.167H107.729z M108.655,606.097v0.688h-0.927
		v-2.351h0.927v0.688h4.67v0.976H108.655z M107.729,604.024v-0.848c0-0.943,0.384-1.823,1.423-1.823h0.04
		c0.72,0,1.071,0.408,1.264,0.808c0.208-0.472,0.535-0.88,1.247-0.88h0.072c0.991,0,1.551,0.768,1.551,1.855v0.888H107.729z
		 M110.079,603.033c0-0.433-0.248-0.72-0.735-0.72h-0.017c-0.487,0-0.695,0.287-0.695,0.72v0.016h1.447V603.033z M112.422,603.024
		c0-0.447-0.264-0.768-0.728-0.768h-0.04c-0.464,0-0.728,0.32-0.728,0.768v0.024h1.495V603.024z M107.712,600.129v-1.04l5.613-1.063
		v0.976l-1.111,0.185v0.887l1.111,0.176v0.944L107.712,600.129z M111.334,599.329l-1.847,0.296l1.847,0.304V599.329z
		 M107.729,597.728v-0.976h4.669v-1.031h0.928v2.007H107.729z M107.729,595.328v-0.976h4.669v-1.031h0.928v2.007H107.729z
		 M110.623,591.752h-0.192c-1.967,0-2.742-0.728-2.742-1.639c0-0.271,0.032-0.432,0.128-0.64h1.007
		c-0.119,0.2-0.184,0.359-0.184,0.544c0,0.432,0.384,0.743,1.783,0.743h0.208c1.479,0,1.783-0.312,1.783-0.76
		c0-0.151-0.057-0.344-0.177-0.543h0.96c0.128,0.224,0.168,0.439,0.168,0.72C113.365,591.072,112.573,591.752,110.623,591.752z
		 M110.671,589.265h-0.288c-1.847,0-2.734-0.6-2.734-1.487s0.888-1.487,2.734-1.487h0.288c1.847,0,2.734,0.6,2.734,1.487
		S112.518,589.265,110.671,589.265z M110.671,587.281h-0.288c-1.439,0-1.839,0.2-1.839,0.496s0.399,0.495,1.839,0.495h0.288
		c1.439,0,1.839-0.199,1.839-0.495S112.11,587.281,110.671,587.281z M111.694,585.824h-3.966v-0.967h4.062
		c0.504,0,0.703-0.177,0.703-0.424c0-0.248-0.199-0.424-0.703-0.424h-4.062v-0.968h3.966c1.175,0,1.703,0.592,1.703,1.392
		C113.397,585.232,112.869,585.824,111.694,585.824z M107.729,582.48v-1.008c0-0.999,0.527-1.727,1.783-1.727h0.071
		c0.728,0,1.191,0.288,1.472,0.655l2.271-0.751v1.039l-1.951,0.632v0.184h1.951v0.976H107.729z M110.495,581.457
		c0-0.424-0.248-0.735-0.904-0.735h-0.063c-0.704,0-0.888,0.336-0.888,0.76v0.023h1.855V581.457z M108.655,578.856v0.688h-0.927
		v-2.352h0.927v0.688h4.67v0.976H108.655z"/>
	<path class="st2" d="M56.427,662.758h0.976v2.318h0.848v-2.318h0.976v5.597H58.25v-2.351h-0.848v2.351h-0.976V662.758z
		 M59.803,662.758h2.143v0.928h-1.167v1.391h1.031v0.928h-1.031v1.423h1.191v0.928h-2.167V662.758z M62.442,662.758h0.976v4.669
		h1.031v0.928h-2.007V662.758z M64.858,662.758h0.976v5.597h-0.976V662.758z M66.427,662.758h0.871c1.063,0,1.807,0.575,1.807,1.887
		v0.016c0,1.264-0.703,1.863-1.694,1.936h-0.009v1.759h-0.975V662.758z M67.41,665.692c0.407-0.024,0.72-0.32,0.72-1v-0.016
		c0-0.712-0.272-1.016-0.696-1.016h-0.032v2.031H67.41z M70.01,662.741h1.04l1.063,5.613h-0.976l-0.185-1.111h-0.887l-0.177,1.111
		h-0.943L70.01,662.741z M70.81,666.363l-0.296-1.847l-0.304,1.847H70.81z M72.41,662.758h0.912c1.247,0,1.959,0.903,1.959,2.702
		v0.192c0,1.799-0.712,2.702-1.959,2.702H72.41V662.758z M73.426,667.459c0.464,0,0.863-0.408,0.863-1.807v-0.192
		c0-1.399-0.399-1.807-0.863-1.807h-0.04v3.806H73.426z"/>
</g>
<g id="SPIRIT_DECK_13_TOP">
	<path class="st3" d="M0.744,271.988v138.185l4.805,6.037v264.484c0.64,16.398,15.758,17.339,15.758,13.305
		c0-17.749,6.626-19.763,11.202-19.763c4.576,0,9.143,17.69,33.493,17.69s29.476-17.69,33.869-17.69
		c4.394,0,11.698,2.177,11.698,20.034c0,3.763,15.825,0.623,15.029-13.815V415.964l4.8-6.031V271.745l-5-6.63V17.692h7.867
		c0,0,3.038-9.571-57.326-16.57l-1.537-0.621L58.66,0.656l-1.688,0.776C-1.457,8.122,0.508,17.692,0.508,17.692h6.355v247.423
		L0.744,271.988z"/>
	<g id="gDeck13Locations">
		<rect id="_x31_3Aft" x="-0.547" y="502.248" class="st4" width="134.789" height="194.257"/>
		<rect id="_x31_3Middle" x="0.002" y="201.148" class="st4" width="134.789" height="301.2"/>
		<rect id="_x31_3Forward_1_" x="0.002" class="st4" width="134.789" height="201.148"/>
	</g>
</g>
</svg>
