<?xml version="1.0" encoding="utf-8"?>
<!-- Generator: Adobe Illustrator 25.4.1, SVG Export Plug-In . SVG Version: 6.00 Build 0)  -->
<svg version="1.1" id="GETAWAY_DECK_06" xmlns="http://www.w3.org/2000/svg" xmlns:xlink="http://www.w3.org/1999/xlink" x="0px"
	 y="0px" width="150px" height="1150.4px" viewBox="0 0 150 1150.4" style="enable-background:new 0 0 150 1150.4;"
	 xml:space="preserve">
<style type="text/css">
	.st0{fill:#FFFFFF;}
	.st1{fill:none;stroke:#D5DCE0;stroke-width:0.5;}
	.st2{fill:#6E8496;}
	.st3{fill:none;}
	.st4{fill:none;stroke:#076FA0;stroke-miterlimit:10;}
</style>
<g id="GETAWAY_DECK_06_BOTTOM">
	<path class="st0" d="M85.1,11.8l3.8,6.6l3.6,6.7l3.5,6.8l3.3,6.8l3.3,6.9l3.2,6.9l3.1,6.9l3.1,6.9l3,7l2.9,7l5.6,14.1l2.7,7.1
		l2.6,7.2l4.8,14.4l2.2,7.3l2.1,7.3l1.9,7.4l1.7,7.4l1.6,7.5l1.4,7.5l1.2,7.5l1,7.6l0.9,7.6l0.7,7.6l0.5,7.6l0.4,7.6l0.3,15.2l0,0.2
		v367.1v159.8l0.1,274.4l-0.7,96.3c-0.3,13.4-13.1,20.9-31.6,22.5c-18,1.6-40.9,1.5-42.5,1.5c-1.6,0-24.5,0.1-42.5-1.5
		c-18.5-1.6-31.3-9.1-31.6-22.5l0,0L0.6,334.7l1.9-144.4l0.9-7.6l2.2-15.1L7,160l3.3-14.9l1.9-7.4l2.1-7.3l2.2-7.3l4.8-14.4l2.6-7.2
		l2.7-7.1l5.6-14.1l5.9-14l3.1-7l3.1-6.9l3.2-6.9l3.3-6.9l3.3-6.8l3.5-6.8l3.6-6.7l3.8-6.6c0,0,6-11.3,9.8-11.3
		C74.7,0.6,78.5-0.3,85.1,11.8z"/>
	<path class="st1" d="M75.1,364c-11.1,0-20.2,9-20.2,20.1c0,11.1,9,20.2,20.2,20.2c11.1,0,20.1-9,20.1-20.2
		C95.2,373.1,86.2,364,75.1,364L75.1,364L75.1,364z"/>
	<path class="st1" d="M75.5,305.1c15.8-0.1,35.2-4.7,49.2-13.3"/>
	<path class="st1" d="M64.5,312.4c2.7,0.3,7.9,0.6,10.6,0.5"/>
	<path class="st1" d="M25,296.5c12.4,7.5,29.5,12,42.8,12.4"/>
	<path class="st1" d="M82.3,308.9c13.1-0.3,30.1-4.9,42.4-12.3"/>
	<path class="st1" d="M75,313c2.7,0,7.9-0.2,10.5-0.5l0.7,0"/>
	<path class="st1" d="M75.1,309.2c1.8,0,5.4-0.1,7.2-0.3"/>
	<path class="st1" d="M67.9,308.9c1.8,0.1,5.3,0.3,7.2,0.3"/>
	<path class="st1" d="M25,291.7c13.7,9,34.6,14.2,50.5,13.5"/>
	<path class="st1" d="M75.5,317.2c15.8-0.1,35.2-4,49.2-11.3"/>
	<path class="st1" d="M25,305.8c13.7,7.6,34.6,12.1,50.5,11.4"/>
	<path class="st1" d="M74.7,321.4c15.8-0.1,35.9-3.9,50-11"/>
	<path class="st1" d="M25,310.3c13.7,7.4,34,11.7,49.9,11.1"/>
	<path class="st1" d="M74.4,324.9c15.8-0.1,36.3-3.2,50.3-10.2"/>
	<path class="st1" d="M25,314.7c13.7,7.3,34,10.9,49.8,10.3"/>
	<path class="st1" d="M86.1,312.4c11.6-0.7,27.2-4.9,38.5-11.4"/>
	<path class="st1" d="M25,301.2c11.4,6.6,27.8,10.5,39.4,11.2"/>
	<line class="st1" x1="148.5" y1="230.3" x2="2" y2="230.3"/>
	<line class="st1" x1="49.4" y1="815.3" x2="49.4" y2="781.5"/>
	<path class="st1" d="M52.4,702.7c-0.7-2.2-1.1-4.5-1.1-6.9c0-2.5,0.4-4.9,1.1-7.1"/>
	<polyline class="st1" points="57.4,508.5 51.9,508.5 51.9,470.5 66.5,470.5 66.5,475.8 	"/>
	<rect x="56.3" y="470.5" class="st1" width="10.2" height="38"/>
	<line class="st1" x1="56.7" y1="479.9" x2="66.4" y2="470.5"/>
	<line class="st1" x1="56.8" y1="470.5" x2="66.5" y2="479.9"/>
	<polygon class="st1" points="56.7,489.1 66.4,480.1 56.8,480.1 66.5,489.1 	"/>
	<line class="st1" x1="56.7" y1="498.7" x2="66.4" y2="489.6"/>
	<line class="st1" x1="56.8" y1="489.7" x2="66.5" y2="498.7"/>
	<polyline class="st1" points="66.5,507.9 56.8,498.9 66.4,498.9 56.7,507.9 	"/>
	<polyline class="st1" points="93.2,508.5 97.7,508.5 97.7,470.5 83.2,470.5 83.2,475.8 	"/>
	<rect x="83.2" y="470.5" class="st1" width="10.2" height="38"/>
	<line class="st1" x1="93.1" y1="479.9" x2="83.3" y2="470.5"/>
	<line class="st1" x1="93" y1="470.5" x2="83.2" y2="479.9"/>
	<polygon class="st1" points="93.1,489.1 83.3,480.1 93,480.1 83.2,489.1 	"/>
	<line class="st1" x1="93.1" y1="498.7" x2="83.3" y2="489.6"/>
	<line class="st1" x1="93" y1="489.7" x2="83.2" y2="498.7"/>
	<polyline class="st1" points="83.2,507.9 93,498.9 83.3,498.9 93.1,507.9 	"/>
	<line class="st1" x1="63.9" y1="696.7" x2="59.6" y2="694.1"/>
	<line class="st1" x1="64.2" y1="695.9" x2="60" y2="693.4"/>
	<line class="st1" x1="64.6" y1="695.1" x2="60.4" y2="692.7"/>
	<line class="st1" x1="64.9" y1="694.4" x2="60.8" y2="692"/>
	<line class="st1" x1="65.7" y1="693.2" x2="61.5" y2="690.8"/>
	<line class="st1" x1="66" y1="692.6" x2="62.1" y2="690.1"/>
	<line class="st1" x1="66.7" y1="692.2" x2="62.5" y2="689.4"/>
	<line class="st1" x1="65.3" y1="693.8" x2="61.2" y2="691.4"/>
	<path class="st1" d="M62.5,685.6c0,0,0.5,2.7,0.2,3.5c0,0-5.4,7-5.1,11.4c0,0,2.4,0.8,5.3-0.7c0,0,1.9-6.7,3.8-7.6l3.7-0.1
		C70.3,692.1,70.2,687.7,62.5,685.6z"/>
	<path class="st1" d="M62.8,688.6c0,0,1.9,0.9,2.4,1.2c0,0,1.8,1.3,2.1,2.4"/>
	<path class="st1" d="M62.8,687.7c0,0,1.6,0.2,2.9,1.2c0,0,1.9,1.1,2.7,3.2"/>
	<path class="st1" d="M62.6,686.7c0,0,2.4,0.4,4,1.6c0,0,1.8,1,2.9,3.8"/>
	<path class="st1" d="M67.5,447.4c0.3,0,0.7,0.1,0.7,0.3"/>
	<line class="st1" x1="68.2" y1="447.7" x2="68.2" y2="448.9"/>
	<line class="st1" x1="68.2" y1="448.9" x2="81.3" y2="448.9"/>
	<path class="st1" d="M81.3,447.7c0-0.2,0.2-0.3,0.6-0.3"/>
	<line class="st1" x1="81.3" y1="448.9" x2="81.3" y2="447.7"/>
	<line class="st1" x1="74.6" y1="459" x2="74.6" y2="447.3"/>
	<line class="st1" x1="74.8" y1="459" x2="74.8" y2="447.3"/>
	<line class="st1" x1="74.6" y1="447.3" x2="74.8" y2="447.3"/>
	<line class="st1" x1="74.6" y1="459" x2="74.8" y2="459"/>
	<line class="st1" x1="74.8" y1="457.9" x2="81.3" y2="457.9"/>
	<line class="st1" x1="74.8" y1="453.4" x2="81.3" y2="453.4"/>
	<line class="st1" x1="74.8" y1="452.5" x2="81.3" y2="452.5"/>
	<line class="st1" x1="74.8" y1="451.6" x2="81.3" y2="451.6"/>
	<line class="st1" x1="74.8" y1="450.7" x2="81.3" y2="450.7"/>
	<line class="st1" x1="74.8" y1="449.8" x2="81.3" y2="449.8"/>
	<line class="st1" x1="74.8" y1="448" x2="81.3" y2="448"/>
	<line class="st1" x1="68.2" y1="457.9" x2="74.6" y2="457.9"/>
	<line class="st1" x1="74.8" y1="457" x2="81.3" y2="457"/>
	<line class="st1" x1="68.2" y1="457" x2="74.6" y2="457"/>
	<line class="st1" x1="74.8" y1="456.1" x2="81.3" y2="456.1"/>
	<line class="st1" x1="68.2" y1="456.1" x2="74.6" y2="456.1"/>
	<line class="st1" x1="74.8" y1="455.2" x2="81.3" y2="455.2"/>
	<line class="st1" x1="68.2" y1="455.2" x2="74.6" y2="455.2"/>
	<line class="st1" x1="74.8" y1="454.3" x2="81.3" y2="454.3"/>
	<line class="st1" x1="68.2" y1="454.3" x2="74.6" y2="454.3"/>
	<line class="st1" x1="68.2" y1="453.4" x2="74.6" y2="453.4"/>
	<line class="st1" x1="68.2" y1="452.5" x2="74.6" y2="452.5"/>
	<line class="st1" x1="68.2" y1="451.6" x2="74.6" y2="451.6"/>
	<line class="st1" x1="68.2" y1="450.7" x2="74.6" y2="450.7"/>
	<line class="st1" x1="68.2" y1="449.8" x2="74.6" y2="449.8"/>
	<line class="st1" x1="61" y1="449" x2="68.2" y2="449"/>
	<line class="st1" x1="61" y1="453.4" x2="68.2" y2="453.4"/>
	<line class="st1" x1="61" y1="452.5" x2="68.2" y2="452.5"/>
	<line class="st1" x1="61" y1="451.6" x2="68.2" y2="451.6"/>
	<line class="st1" x1="61" y1="450.7" x2="68.2" y2="450.7"/>
	<line class="st1" x1="61" y1="449.8" x2="68.2" y2="449.8"/>
	<line class="st1" x1="81.3" y1="449" x2="88.7" y2="449"/>
	<line class="st1" x1="81.3" y1="453.4" x2="88.7" y2="453.4"/>
	<line class="st1" x1="81.3" y1="452.5" x2="88.7" y2="452.5"/>
	<line class="st1" x1="81.3" y1="451.6" x2="88.7" y2="451.6"/>
	<line class="st1" x1="81.3" y1="450.7" x2="88.7" y2="450.7"/>
	<line class="st1" x1="81.3" y1="449.8" x2="88.7" y2="449.8"/>
	<line class="st1" x1="68.2" y1="448" x2="74.6" y2="448"/>
	<path class="st1" d="M81.9,459.1c0,0.2-0.2,0.3-0.5,0.3c-0.3,0-0.5-0.1-0.5-0.3l0,0"/>
	<line class="st1" x1="80.9" y1="459.1" x2="80.9" y2="459"/>
	<line class="st1" x1="81.9" y1="459.1" x2="81.9" y2="459"/>
	<path class="st1" d="M68.6,459.1c0,0.2-0.2,0.3-0.5,0.3c-0.3,0-0.5-0.1-0.5-0.3l0,0"/>
	<line class="st1" x1="67.5" y1="459.1" x2="67.5" y2="459"/>
	<line class="st1" x1="68.6" y1="459.1" x2="68.6" y2="459"/>
	<line class="st1" x1="81.4" y1="459" x2="81.3" y2="449"/>
	<line class="st1" x1="68.1" y1="459" x2="68.2" y2="448.9"/>
	<polyline class="st1" points="0.6,458.6 25.6,458.7 25.6,453.8 51.7,453.8 	"/>
	<path class="st1" d="M33.9,478.7H25v46.2h-9.2v7.3c0.2,1.6,7.3,2.9,7.3,2.9c2.1,0.3,3-0.9,3.1-0.5c0.1,0.5,1.1,0.6,1.1,0.6
		c14.3-8.7,9.4-31.7,9.4-31.7c-2.4-6.9-2.6-24.9-2.6-24.9"/>
	<line class="st1" x1="124.6" y1="572" x2="149.4" y2="572"/>
	<line class="st1" x1="119.4" y1="487" x2="149.4" y2="487"/>
	<path class="st1" d="M25.3,558.4l0.8-0.1c0,0,1.6,3,1.3,6.3l-0.6,0.1c0,0-1.5,26.2,25.5,23.1l-0.1-0.7c0,0,7-2.7,12.6-0.5l0,0
		l0,88.1"/>
	<line class="st1" x1="149.4" y1="609.9" x2="102.8" y2="609.9"/>
	<polyline class="st1" points="1.8,743.1 25.2,743.1 41,743.1 41.8,743.1 64.9,742.9 64.9,716.8 	"/>
	<polyline class="st1" points="24.9,743.4 25,752.4 25,781.5 	"/>
	<path class="st1" d="M54.1,684.9c3.9-7.3,11.7-12.3,20.6-12.3c11.5,0,21,8.3,22.9,19.1l-0.1,0H84.8v8.2h12.5l0.2,0.1
		c-2,10.7-11.5,18.9-22.9,18.9c-8.5,0-15.9-4.5-20-11.3"/>
	<polyline class="st1" points="49.4,781.8 49.4,752.4 64.9,752.4 64.9,782.7 	"/>
	<line class="st1" x1="25" y1="752.4" x2="49.4" y2="752.4"/>
	<line class="st1" x1="36.5" y1="752.4" x2="36.5" y2="781.7"/>
	<line class="st1" x1="51.6" y1="459.3" x2="59.7" y2="459.3"/>
	<polyline class="st1" points="67.5,447.4 61,447.4 61,459.3 59.7,459.3 	"/>
	<line class="st1" x1="49.4" y1="781.6" x2="0.6" y2="781.6"/>
	<polyline class="st1" points="49.4,815.2 41.1,815.2 41.1,823.2 49.3,823.2 49.3,824.8 64.9,824.8 64.9,781.8 	"/>
	<line class="st1" x1="100.2" y1="781.7" x2="149.4" y2="781.6"/>
	<polyline class="st1" points="100.3,781.1 100.3,815.1 108.4,815.1 108.4,823.6 100.3,823.6 100.3,825 84.9,825 84.9,781.6 
		84.9,781.6 	"/>
	<rect x="56.4" y="881.2" class="st1" width="10.7" height="37.9"/>
	<line class="st1" x1="56.7" y1="890.6" x2="66.9" y2="881.5"/>
	<line class="st1" x1="56.8" y1="881.5" x2="67" y2="890.6"/>
	<polygon class="st1" points="56.7,899.8 66.9,890.7 56.8,890.7 67,899.8 	"/>
	<line class="st1" x1="56.7" y1="909.4" x2="66.9" y2="900.3"/>
	<line class="st1" x1="56.8" y1="900.3" x2="67" y2="909.4"/>
	<polyline class="st1" points="67,918.6 56.8,909.5 66.9,909.5 56.7,918.6 	"/>
	<rect x="82.7" y="881.4" class="st1" width="10.9" height="37.9"/>
	<line class="st1" x1="93.2" y1="890.7" x2="82.9" y2="881.7"/>
	<line class="st1" x1="93.1" y1="881.7" x2="82.8" y2="890.7"/>
	<polygon class="st1" points="93.2,899.9 82.9,890.9 93.1,890.9 82.8,899.9 	"/>
	<line class="st1" x1="93.2" y1="909.5" x2="82.9" y2="900.4"/>
	<line class="st1" x1="93.1" y1="900.5" x2="82.8" y2="909.5"/>
	<polyline class="st1" points="82.8,918.7 93.1,909.7 82.9,909.6 93.2,918.7 	"/>
	<polyline class="st1" points="47.1,942.7 36.3,942.7 36.3,916.5 42.7,916.5 42.7,904.9 51.5,904.9 51.6,919.2 51.2,920.7 
		50.1,924.2 47.2,932.9 47.2,953.2 	"/>
	<polyline class="st1" points="102.5,942.9 113.7,942.8 113.6,917 98.2,916.8 98.2,919.1 102.6,933.2 102.6,952.7 	"/>
	<polyline class="st1" points="110.6,916.9 110.6,909.7 107.8,909.7 107.8,905 98.2,905.1 98.2,916.9 	"/>
	<line class="st1" x1="60.8" y1="943.3" x2="63.9" y2="943.3"/>
	<path class="st1" d="M73.9,944.5c0,0.2,0.2,0.3,0.6,0.3"/>
	<line class="st1" x1="73.9" y1="943.3" x2="73.9" y2="944.5"/>
	<line class="st1" x1="67.4" y1="933.2" x2="67.4" y2="944.9"/>
	<line class="st1" x1="67.1" y1="944.9" x2="67.4" y2="944.9"/>
	<line class="st1" x1="67.1" y1="933.2" x2="67.4" y2="933.2"/>
	<line class="st1" x1="67.4" y1="934.3" x2="73.9" y2="934.3"/>
	<line class="st1" x1="67.4" y1="938.8" x2="73.9" y2="938.8"/>
	<line class="st1" x1="67.4" y1="939.7" x2="73.9" y2="939.7"/>
	<line class="st1" x1="67.4" y1="940.6" x2="73.9" y2="940.6"/>
	<line class="st1" x1="67.4" y1="941.5" x2="73.9" y2="941.5"/>
	<line class="st1" x1="67.4" y1="942.4" x2="73.9" y2="942.4"/>
	<line class="st1" x1="67.4" y1="944.2" x2="73.9" y2="944.2"/>
	<line class="st1" x1="60.8" y1="934.3" x2="63.7" y2="934.3"/>
	<line class="st1" x1="67.4" y1="935.2" x2="73.9" y2="935.2"/>
	<line class="st1" x1="60.8" y1="935.2" x2="63.7" y2="935.2"/>
	<line class="st1" x1="67.4" y1="936.1" x2="73.9" y2="936.1"/>
	<line class="st1" x1="60.8" y1="936.1" x2="63.7" y2="936.1"/>
	<line class="st1" x1="67.4" y1="937" x2="73.9" y2="937"/>
	<line class="st1" x1="60.8" y1="937" x2="63.7" y2="937"/>
	<line class="st1" x1="67.4" y1="937.9" x2="73.9" y2="937.9"/>
	<line class="st1" x1="60.8" y1="937.9" x2="63.7" y2="937.9"/>
	<line class="st1" x1="60.8" y1="938.8" x2="63.7" y2="938.8"/>
	<line class="st1" x1="60.8" y1="939.7" x2="63.7" y2="939.7"/>
	<line class="st1" x1="60.8" y1="940.6" x2="63.7" y2="940.6"/>
	<line class="st1" x1="60.8" y1="941.5" x2="63.7" y2="941.5"/>
	<line class="st1" x1="60.8" y1="942.4" x2="63.7" y2="942.4"/>
	<line class="st1" x1="57.3" y1="943.2" x2="60.8" y2="943.2"/>
	<line class="st1" x1="57.3" y1="938.8" x2="60.8" y2="938.8"/>
	<line class="st1" x1="57.3" y1="939.7" x2="60.8" y2="939.7"/>
	<line class="st1" x1="57.3" y1="940.6" x2="60.8" y2="940.6"/>
	<line class="st1" x1="57.3" y1="941.5" x2="60.8" y2="941.5"/>
	<line class="st1" x1="57.3" y1="942.4" x2="60.8" y2="942.4"/>
	<line class="st1" x1="57.3" y1="937.9" x2="60.8" y2="937.9"/>
	<line class="st1" x1="57.3" y1="933.6" x2="60.8" y2="933.6"/>
	<line class="st1" x1="57.3" y1="932.3" x2="63.7" y2="932.3"/>
	<line class="st1" x1="60.5" y1="933.6" x2="64" y2="933.6"/>
	<line class="st1" x1="57.3" y1="934.5" x2="60.8" y2="934.5"/>
	<line class="st1" x1="57.3" y1="935.4" x2="60.8" y2="935.4"/>
	<line class="st1" x1="57.3" y1="936.2" x2="60.8" y2="936.2"/>
	<line class="st1" x1="57.3" y1="937.1" x2="60.8" y2="937.1"/>
	<line class="st1" x1="73.9" y1="943.2" x2="81.2" y2="943.2"/>
	<line class="st1" x1="73.9" y1="938.8" x2="81.2" y2="938.8"/>
	<line class="st1" x1="73.9" y1="939.7" x2="81.2" y2="939.7"/>
	<line class="st1" x1="73.9" y1="940.6" x2="81.2" y2="940.6"/>
	<line class="st1" x1="73.9" y1="941.5" x2="81.2" y2="941.5"/>
	<line class="st1" x1="73.9" y1="942.4" x2="81.2" y2="942.4"/>
	<polyline class="st1" points="57.3,944 64,943.9 63.8,943.9 63.8,931.3 	"/>
	<path class="st1" d="M74.5,933.1c0-0.2-0.2-0.3-0.5-0.3c-0.3,0-0.5,0.1-0.5,0.3l0,0"/>
	<line class="st1" x1="73.4" y1="933.1" x2="73.4" y2="933.2"/>
	<line class="st1" x1="74.5" y1="933.1" x2="74.5" y2="933.2"/>
	<path class="st1" d="M61.2,933.1c0-0.2-0.2-0.3-0.5-0.3c-0.3,0-0.5,0.1-0.5,0.3l0,0"/>
	<line class="st1" x1="60.1" y1="933.1" x2="60.1" y2="933.2"/>
	<line class="st1" x1="61.2" y1="933.1" x2="61.2" y2="933.2"/>
	<line class="st1" x1="74" y1="933.2" x2="73.9" y2="943.2"/>
	<line class="st1" x1="60.6" y1="933.2" x2="60.8" y2="946.4"/>
	<polyline class="st1" points="81.2,933 81.2,944.8 74.5,944.8 	"/>
	<line class="st1" x1="57.3" y1="931.6" x2="57.3" y2="944.8"/>
	<line class="st1" x1="56.6" y1="931.6" x2="56.6" y2="944.8"/>
	<path class="st1" d="M83.1,935.3c-0.2,0-0.4,0.2-0.4,0.4"/>
	<line class="st1" x1="87.6" y1="935.3" x2="83.1" y2="935.3"/>
	<line class="st1" x1="82.7" y1="935.8" x2="82.7" y2="952.5"/>
	<polyline class="st1" points="56.6,935.3 48.1,935.3 47.3,936.1 	"/>
	<line class="st1" x1="85.5" y1="943.2" x2="92.3" y2="943.2"/>
	<line class="st1" x1="85.5" y1="938.8" x2="92.3" y2="938.8"/>
	<line class="st1" x1="85.5" y1="939.7" x2="92.3" y2="939.7"/>
	<line class="st1" x1="85.5" y1="940.6" x2="92.3" y2="940.6"/>
	<line class="st1" x1="85.5" y1="941.5" x2="92.3" y2="941.5"/>
	<line class="st1" x1="85.5" y1="942.4" x2="92.3" y2="942.4"/>
	<line class="st1" x1="85.5" y1="937.9" x2="92.3" y2="937.9"/>
	<line class="st1" x1="85.5" y1="933.6" x2="89.3" y2="933.6"/>
	<line class="st1" x1="85.5" y1="932.3" x2="92.4" y2="932.3"/>
	<line class="st1" x1="89.2" y1="933.6" x2="92.7" y2="933.6"/>
	<line class="st1" x1="85.5" y1="934.5" x2="92.3" y2="934.5"/>
	<line class="st1" x1="86" y1="935.4" x2="92.3" y2="935.4"/>
	<line class="st1" x1="85.5" y1="936.2" x2="92.3" y2="936.2"/>
	<line class="st1" x1="85.5" y1="937.1" x2="92.3" y2="937.1"/>
	<path class="st1" d="M89.6,933.1c0-0.2-0.2-0.3-0.5-0.3c-0.3,0-0.5,0.1-0.5,0.3l0,0"/>
	<line class="st1" x1="88.9" y1="945.3" x2="88.9" y2="944"/>
	<line class="st1" x1="89" y1="933.1" x2="88.9" y2="944.1"/>
	<path class="st1" d="M96.8,936.1c0-0.2-0.2-0.3-0.5-0.3c-0.3,0-0.5,0.1-0.5,0.3l0,0"/>
	<polyline class="st1" points="85.4,931.6 85.3,944.1 92.7,944.1 	"/>
	<line class="st1" x1="93" y1="931.5" x2="93" y2="944.1"/>
	<path class="st1" d="M66.9,935.8c0-0.2-0.1-0.4-0.2-0.4"/>
	<line class="st1" x1="66.9" y1="952.7" x2="66.9" y2="935.8"/>
	<line class="st1" x1="66.7" y1="935.4" x2="64" y2="935.4"/>
	<line class="st1" x1="92.7" y1="942.3" x2="99" y2="942.3"/>
	<line class="st1" x1="92.7" y1="937.9" x2="99" y2="937.9"/>
	<line class="st1" x1="92.7" y1="938.8" x2="99" y2="938.8"/>
	<line class="st1" x1="92.7" y1="939.7" x2="99" y2="939.7"/>
	<line class="st1" x1="92.7" y1="940.6" x2="99" y2="940.6"/>
	<line class="st1" x1="92.7" y1="941.5" x2="99" y2="941.5"/>
	<polyline class="st1" points="102.1,931.5 99,932.1 99,943.9 93.2,943.9 	"/>
	<line class="st1" x1="92.5" y1="931.3" x2="92.5" y2="952.7"/>
	<line class="st1" x1="96.1" y1="946.6" x2="96.1" y2="945.5"/>
	<line class="st1" x1="96.2" y1="936.2" x2="96.1" y2="945.6"/>
	<path class="st1" d="M89.7,946.7c-0.3,0-0.7-0.1-0.7-0.3"/>
	<line class="st1" x1="89" y1="946.4" x2="88.9" y2="945.2"/>
	<path class="st1" d="M95.4,946.7c0.3,0,0.7-0.1,0.7-0.3"/>
	<line class="st1" x1="96.1" y1="946.4" x2="96.1" y2="945.2"/>
	<line class="st1" x1="89.6" y1="946.7" x2="95.5" y2="946.7"/>
	<path class="st1" d="M52.8,936.1c0-0.2,0.2-0.3,0.5-0.3c0.3,0,0.5,0.1,0.5,0.3l0,0"/>
	<line class="st1" x1="56.9" y1="942.3" x2="50.5" y2="942.3"/>
	<line class="st1" x1="56.9" y1="937.9" x2="50.5" y2="937.9"/>
	<line class="st1" x1="56.9" y1="938.8" x2="50.5" y2="938.8"/>
	<line class="st1" x1="56.9" y1="939.7" x2="50.5" y2="939.7"/>
	<line class="st1" x1="56.9" y1="940.6" x2="50.5" y2="940.6"/>
	<line class="st1" x1="56.9" y1="941.5" x2="50.5" y2="941.5"/>
	<polyline class="st1" points="47.4,931.5 50.5,932.1 50.5,943.9 56.3,943.9 	"/>
	<line class="st1" x1="53.4" y1="946.6" x2="53.4" y2="945.5"/>
	<line class="st1" x1="53.4" y1="936.2" x2="53.4" y2="945.6"/>
	<path class="st1" d="M60,946.7c0.3,0,0.7-0.1,0.7-0.3"/>
	<line class="st1" x1="60.8" y1="946.4" x2="60.8" y2="944.7"/>
	<path class="st1" d="M54.2,946.7c-0.3,0-0.7-0.1-0.7-0.3"/>
	<line class="st1" x1="53.4" y1="946.4" x2="53.4" y2="945.2"/>
	<line class="st1" x1="60.1" y1="946.7" x2="54.1" y2="946.7"/>
	<polyline class="st1" points="0.6,952.7 142,952.7 149.4,952.7 	"/>
	<line class="st1" x1="98.1" y1="230.4" x2="98.1" y2="249.8"/>
	<polyline class="st1" points="124.7,327.5 124.6,249.8 113.2,249.8 109.2,249.8 97.8,249.8 	"/>
	<polyline class="st1" points="25,230.3 25,324.9 124.7,324.9 	"/>
	<polyline class="st1" points="51.6,230.2 51.6,249.8 31.9,249.8 31.9,254.3 25,254.3 	"/>
	<polyline class="st1" points="124.7,327.5 124.6,334.4 138.1,334.5 138.1,382.2 124.6,382.2 	"/>
	<line class="st1" x1="82" y1="522.5" x2="112.4" y2="525.5"/>
	<polyline class="st1" points="126.5,683.8 126.5,733.7 98,733.7 98,735.2 98,739.7 98,752.5 84.9,752.5 84.9,781.5 	"/>
	<path class="st1" d="M51.7,692.5c0,0,2.4,0.4,3.6-2.6c0,0,3.7-9,7.7-10.7c0,0,4.3-3,3.6-4.9"/>
	<path class="st1" d="M72,672.7c0,0,2.2,6.2-7.1,12.4c0,0-3.6,2.4-4.7,6c0,0-2.2,5.2-5.6,7.1l-2.6,1.1"/>
	<line class="st1" x1="51.9" y1="466.8" x2="51.9" y2="470.5"/>
	<line class="st1" x1="25.6" y1="439.4" x2="25.6" y2="453.8"/>
	<polyline class="st1" points="131.4,389 131.1,389 131.1,439.4 117.5,439.4 117.5,439.2 117.5,458.6 	"/>
	<line class="st1" x1="149.4" y1="389" x2="131.1" y2="389"/>
	<polyline class="st1" points="97.9,752.5 100.4,752.5 100.3,781.4 	"/>
	<polyline class="st1" points="115.6,512.8 115.6,470.5 115.5,470.5 97.9,470.5 	"/>
	<path class="st1" d="M85.5,848.4c0,8-4.6,14.4-10.4,14.4c-5.7,0-10.4-6.5-10.4-14.4c0-8,4.6-14.4,10.4-14.4
		C80.8,834,85.5,840.5,85.5,848.4z"/>
	<line class="st1" x1="102.7" y1="658" x2="84.8" y2="658"/>
	<polyline class="st1" points="84.8,675 84.8,605.1 102.8,605.1 	"/>
	<path class="st1" d="M106.3,592.3c0,6.5-5.4,11.8-12.1,11.8c-6.7,0-12.1-5.3-12.1-11.8s5.4-11.8,12.1-11.8
		C100.9,580.4,106.3,585.7,106.3,592.3z"/>
	<polyline class="st1" points="124.6,249.8 130.4,249.8 130.4,324.8 146,324.8 146,389.2 	"/>
	<polyline class="st1" points="0.6,439.3 51.6,439.3 51.6,439.4 51.6,459.3 	"/>
	<polyline class="st1" points="41.9,407.2 98,407.2 98,439.3 91.6,439.3 91.5,439.5 91.5,457.2 89.5,459.2 88.7,459.2 88.7,447.4 
		81.9,447.4 	"/>
	<polyline class="st1" points="109.5,431.7 109.5,402.7 124.6,402.7 124.6,363.3 122,363.1 115.6,354.5 111.3,348.7 109.4,346.1 
		109.4,329.8 84.3,329.8 81.1,329.8 76.1,329.8 61.3,332 51.5,335 39.4,342.7 33.2,350 25,362.9 25,363.2 25,401 41.9,401 
		41.9,439.5 	"/>
	<polyline class="st1" points="124.6,402.7 124.6,431.8 98.1,431.7 	"/>
	<path class="st1" d="M81.1,521c0,0-13.6,44.4,6.3,48.5c0,0,17.3,5.7,24-8.5c0,0,4.2-3.5,3-37.2l-1.6-0.2l0.1-1.1l-29-3.1l-0.3,1.8
		L81.1,521z"/>
	<line class="st1" x1="49.3" y1="824.8" x2="49.3" y2="869.4"/>
	<line class="st1" x1="100.3" y1="825" x2="100.3" y2="869.5"/>
	<polyline class="st1" points="67.1,881.2 67.1,874.1 67,874.1 54.5,874.1 54.5,869.4 49.3,869.4 45.9,873.2 39.3,873.2 39.3,879 
		51.6,879 51.6,904.9 	"/>
	<polyline class="st1" points="82.7,881.2 82.7,874.1 82.8,874.1 95.3,874.1 95.2,869.5 100.4,869.5 103.6,873.1 110.2,873.1 
		110.2,878.8 98.2,878.8 98.2,905.1 	"/>
	<line class="st1" x1="51.6" y1="919.2" x2="56.4" y2="919.2"/>
	<line class="st1" x1="93.6" y1="919.3" x2="98.2" y2="919.3"/>
	<polyline class="st1" points="65,717 46.8,737.9 48.6,739.9 48.7,742.8 	"/>
	<polyline class="st1" points="149.4,683.8 117.8,683.8 102.7,658 102.8,658 102.8,605.1 	"/>
	<polyline class="st1" points="80.5,718.4 80.5,724.1 85,724.1 85,733.7 85,733.7 98,733.7 	"/>
	<line class="st1" x1="97.9" y1="492.1" x2="115.6" y2="492.1"/>
	<line class="st1" x1="25" y1="325.1" x2="25" y2="362.9"/>
	<line class="st1" x1="109.4" y1="329.8" x2="124.6" y2="329.8"/>
	<polyline class="st1" points="148.2,458.6 117.5,458.6 119.4,458.7 119.4,470.5 119.4,512.8 119.4,524.6 119.4,524.6 149.4,524.6 	
		"/>
	<line class="st1" x1="83.2" y1="508.5" x2="83.2" y2="514.7"/>
	<polyline class="st1" points="97.7,508.5 97.7,512.8 115.6,512.8 115.6,522.4 113.5,522.4 110.9,519.7 110.9,514.9 51.9,514.9 
		51.9,508.5 	"/>
	<line class="st1" x1="110.9" y1="514.9" x2="115.5" y2="514.9"/>
	<rect x="52" y="508.3" class="st1" width="14.6" height="6.5"/>
	<line class="st1" x1="20.7" y1="524.8" x2="0.6" y2="524.8"/>
	<polyline class="st1" points="19.3,562.9 19.3,590.9 27.7,590.9 27.7,598 64.8,598 	"/>
	<polyline class="st1" points="0.6,562.9 19.3,562.9 19.3,558.9 25.3,558.4 	"/>
	<line class="st1" x1="111.8" y1="609.9" x2="111.8" y2="673.8"/>
	<polyline class="st1" points="20.4,648.6 39.8,648.6 39.8,653.2 48,653.2 48,658 	"/>
	<polyline class="st1" points="64.9,674.7 64.9,667 48,667 48,666.8 48,658 	"/>
	<polyline class="st1" points="60.9,677.1 48,677.1 48,667 	"/>
	<rect x="112.1" y="599.5" class="st1" width="37.2" height="10.4"/>
	<line class="st1" x1="130.2" y1="595.4" x2="125.5" y2="605.7"/>
	<line class="st1" x1="38.3" y1="590.6" x2="23.4" y2="603.5"/>
	<polyline class="st1" points="20.6,648.6 20.6,676.8 0.6,676.8 	"/>
	<line class="st1" x1="94" y1="592.3" x2="80.2" y2="594.3"/>
	<line class="st1" x1="30.2" y1="525.6" x2="41.5" y2="532.5"/>
	<path class="st2" d="M28.2,764.5h1c1,0,1.7,0.5,1.7,1.8v0.1c0,0.7-0.3,1.2-0.7,1.5l0.8,2.3h-1l-0.6-2h-0.2v2h-1
		C28.2,770.1,28.2,764.5,28.2,764.5z M29.3,767.2c0.4,0,0.7-0.2,0.7-0.9v-0.1c0-0.7-0.3-0.9-0.8-0.9h0L29.3,767.2L29.3,767.2
		L29.3,767.2z M31.4,764.5h1c1,0,1.7,0.5,1.7,1.8v0.1c0,0.7-0.3,1.2-0.7,1.5l0.8,2.3h-1l-0.6-2h-0.2v2h-1V764.5z M32.5,767.2
		c0.4,0,0.7-0.2,0.7-0.9v-0.1c0-0.7-0.3-0.9-0.8-0.9h0L32.5,767.2L32.5,767.2L32.5,767.2z"/>
	<path class="st2" d="M40.7,764.5h1c1,0,1.7,0.5,1.7,1.8v0.1c0,0.7-0.3,1.2-0.7,1.5l0.8,2.3h-1l-0.6-2h-0.2v2h-1L40.7,764.5
		L40.7,764.5z M41.7,767.2c0.4,0,0.7-0.2,0.7-0.9v-0.1c0-0.7-0.3-0.9-0.8-0.9h0L41.7,767.2L41.7,767.2L41.7,767.2z M43.9,764.5h1
		c1,0,1.7,0.5,1.7,1.8v0.1c0,0.7-0.3,1.2-0.7,1.5l0.8,2.3h-1l-0.6-2h-0.2v2h-1V764.5z M44.9,767.2c0.4,0,0.7-0.2,0.7-0.9v-0.1
		c0-0.7-0.3-0.9-0.8-0.9h0L44.9,767.2L44.9,767.2L44.9,767.2z"/>
	<path class="st2" d="M70.1,588.2h0.8c0.9,0,1.8,0.4,1.8,1.4v0c0,0.7-0.4,1.1-0.8,1.3c0.5,0.2,0.9,0.5,0.9,1.2v0.1
		c0,1-0.8,1.6-1.9,1.6h-0.9V588.2z M71.1,590.6c0.4,0,0.7-0.2,0.7-0.7v0c0-0.5-0.3-0.7-0.7-0.7h0L71.1,590.6L71.1,590.6z
		 M71.1,592.9c0.4,0,0.8-0.3,0.8-0.7v0c0-0.5-0.3-0.7-0.8-0.7h0L71.1,592.9L71.1,592.9L71.1,592.9z M74,588.2h1l1.1,5.6h-1l-0.2-1.1
		h-0.9l-0.2,1.1h-0.9L74,588.2z M74.8,591.8l-0.3-1.8l-0.3,1.8H74.8z M76.4,588.2h1c1,0,1.7,0.5,1.7,1.8v0.1c0,0.7-0.3,1.2-0.7,1.5
		l0.8,2.3h-1l-0.6-2h-0.2v2h-1C76.4,593.8,76.4,588.2,76.4,588.2z M77.4,591c0.4,0,0.7-0.2,0.7-0.9V590c0-0.7-0.3-0.9-0.8-0.9h0
		L77.4,591L77.4,591z M67.9,596.2h1l1.1,5.6h-1l-0.2-1.1H68l-0.2,1.1h-0.9L67.9,596.2z M68.7,599.8l-0.3-1.8l-0.3,1.8H68.7z
		 M70.6,597.2h-0.7v-0.9h2.4v0.9h-0.7v4.7h-1L70.6,597.2L70.6,597.2z M74.5,597.2h-0.7v-0.9h2.4v0.9h-0.7v4.7h-1L74.5,597.2
		L74.5,597.2z M76.5,596.2h1v2.3h0.8v-2.3h1v5.6h-1v-2.4h-0.8v2.4h-1V596.2z M79.9,596.2h2.1v0.9h-1.2v1.4h1v0.9h-1v1.4h1.2v0.9
		h-2.2V596.2z M67.5,604.2h1l1.1,5.6h-1l-0.2-1.1h-0.9l-0.2,1.1h-0.9L67.5,604.2z M68.3,607.8L68,606l-0.3,1.8H68.3z M70.2,605.2
		h-0.7v-0.9h2.4v0.9h-0.7v4.7h-1L70.2,605.2L70.2,605.2z M72.3,604.2h1c1,0,1.7,0.5,1.7,1.8v0.1c0,0.7-0.3,1.2-0.7,1.5l0.8,2.3h-1
		l-0.6-2h-0.2v2h-1L72.3,604.2L72.3,604.2z M73.3,607c0.4,0,0.7-0.2,0.7-0.9V606c0-0.7-0.3-0.9-0.8-0.9h0L73.3,607L73.3,607z
		 M75.5,604.2h1v5.6h-1V604.2z M77,608.2v-4h1v4.1c0,0.5,0.2,0.7,0.4,0.7s0.4-0.2,0.4-0.7v-4.1h1v4c0,1.2-0.6,1.7-1.4,1.7
		S77,609.4,77,608.2z M80.3,604.2h1l0.7,2l0.7-2h1v5.6h-0.9v-3.4l-0.7,2.1h0l-0.7-2.1v3.4h-0.9V604.2z"/>
	<path class="st2" d="M58.1,382.3h1v5.6h-1V382.3z M59.7,382.3h1v4.7h1v0.9h-2V382.3z M62.1,382.3h1v4.7h1v0.9h-2
		C62.1,387.9,62.1,382.3,62.1,382.3z M64.4,386.3v-4h1v4.1c0,0.5,0.2,0.7,0.4,0.7s0.4-0.2,0.4-0.7v-4.1h1v4c0,1.2-0.6,1.7-1.4,1.7
		S64.4,387.4,64.4,386.3z M67.6,387.7v-1c0.3,0.2,0.6,0.3,0.9,0.3c0.3,0,0.5-0.1,0.5-0.5v0c0-0.3-0.1-0.4-0.5-1
		c-0.7-0.8-0.9-1.1-0.9-1.8v0c0-0.9,0.6-1.5,1.4-1.5c0.4,0,0.6,0.1,0.9,0.2v1c-0.3-0.2-0.5-0.3-0.7-0.3c-0.3,0-0.5,0.2-0.5,0.5v0
		c0,0.3,0.1,0.4,0.5,0.9c0.8,0.9,0.9,1.2,0.9,1.9v0c0,0.9-0.6,1.5-1.4,1.5C68.2,387.9,67.9,387.8,67.6,387.7z M70.3,382.3h1v5.6h-1
		V382.3z M71.8,385.2v-0.3c0-1.8,0.6-2.7,1.5-2.7c0.9,0,1.5,0.9,1.5,2.7v0.3c0,1.8-0.6,2.7-1.5,2.7C72.4,388,71.8,387.1,71.8,385.2z
		 M73.8,385.2v-0.3c0-1.4-0.2-1.8-0.5-1.8s-0.5,0.4-0.5,1.8v0.3c0,1.4,0.2,1.8,0.5,1.8S73.8,386.7,73.8,385.2z M75.3,382.3h0.9
		l1,2.8v-2.8h1v5.6h-0.9l-1-3v3h-1L75.3,382.3L75.3,382.3z M79.5,382.3h1l1.1,5.6h-1l-0.2-1.1h-0.9l-0.2,1.1h-0.9L79.5,382.3z
		 M80.3,385.9L80,384l-0.3,1.8H80.3z M81.9,382.3h1c1,0,1.7,0.5,1.7,1.8v0.1c0,0.7-0.3,1.2-0.7,1.5l0.8,2.3h-1l-0.6-2h-0.2v2h-1
		V382.3z M82.9,385.1c0.4,0,0.7-0.2,0.7-0.9v-0.1c0-0.7-0.3-0.9-0.8-0.9h0L82.9,385.1L82.9,385.1z M85.1,382.3h1v5.6h-1V382.3z
		 M86.6,386.3v-4h1v4.1c0,0.5,0.2,0.7,0.4,0.7s0.4-0.2,0.4-0.7v-4.1h1v4c0,1.2-0.6,1.7-1.4,1.7S86.6,387.4,86.6,386.3z M90,382.3h1
		l0.7,2l0.7-2h1v5.6h-0.9v-3.4l-0.7,2.1h0l-0.7-2.1v3.4H90L90,382.3L90,382.3z"/>
	<path class="st2" d="M121.6,552.3l1,0l0,5.6l-1,0L121.6,552.3z M123.2,552.3l0.9,0l1,2.8l0-2.8l1,0l0,5.6l-0.9,0l-1-3l0,3l-1,0
		L123.2,552.3z M127.1,553.2l-0.7,0l0-0.9l2.4,0l0,0.9l-0.7,0l0,4.7l-1,0L127.1,553.2z M129.2,552.3l2.1,0l0,0.9l-1.2,0l0,1.4l1,0
		l0,0.9l-1,0l0,1.4l1.2,0l0,0.9l-2.2,0L129.2,552.3z M131.9,552.3l1,0c1,0,1.7,0.5,1.7,1.8v0.1c0,0.7-0.3,1.2-0.7,1.5l0.8,2.3l-1,0
		l-0.6-2h-0.2l0,2l-1,0L131.9,552.3z M132.9,555.1c0.4,0,0.7-0.2,0.7-0.9v-0.1c0-0.7-0.3-0.9-0.8-0.9h0L132.9,555.1L132.9,555.1z
		 M135,552.3l0.9,0l1,2.8l0-2.8l1,0l0,5.6l-0.9,0l-1-3l0,3l-1,0L135,552.3z M138.5,552.3l2.1,0l0,0.9l-1.2,0l0,1.4l1,0l0,0.9l-1,0
		l0,1.4l1.2,0l0,0.9l-2.2,0L138.5,552.3z M141.6,553.2l-0.7,0l0-0.9l2.4,0l0,0.9l-0.7,0l0,4.7l-1,0L141.6,553.2z M127.1,563.2V563
		c0-2,0.7-2.7,1.6-2.7c0.3,0,0.4,0,0.6,0.1l0,1c-0.2-0.1-0.4-0.2-0.5-0.2c-0.4,0-0.7,0.4-0.7,1.8v0.2c0,1.5,0.3,1.8,0.8,1.8
		c0.2,0,0.3-0.1,0.5-0.2l0,1c-0.2,0.1-0.4,0.2-0.7,0.2C127.8,566,127.1,565.2,127.1,563.2z M130.7,560.3l1,0l1.1,5.6l-1,0l-0.2-1.1
		l-0.9,0l-0.2,1.1l-0.9,0L130.7,560.3z M131.5,563.9l-0.3-1.8l-0.3,1.8L131.5,563.9z M133.1,560.3l2,0l0,0.9l-1.1,0l0,1.4l0.9,0
		l0,0.9l-0.9,0l0,2.3l-1,0L133.1,560.3z M135.5,560.3l2.1,0l0,0.9l-1.2,0l0,1.4l1,0l0,0.9l-1,0l0,1.4l1.2,0l0,0.9l-2.2,0
		L135.5,560.3z M136.9,559l0.8,0.4l-0.8,0.6l-0.7,0L136.9,559z"/>
	<path class="st2" d="M97.7,708.6h1v4.7h1v0.9h-2V708.6z M100.1,708.6h2.1v0.9H101v1.4h1v0.9h-1v1.4h1.2v0.9h-2.2V708.6z M104,708.6
		h0.8c0.9,0,1.8,0.4,1.8,1.4v0c0,0.7-0.4,1.1-0.8,1.3c0.5,0.2,0.9,0.5,0.9,1.2v0.1c0,1-0.8,1.6-1.9,1.6H104V708.6z M105,711
		c0.4,0,0.7-0.2,0.7-0.7v0c0-0.5-0.3-0.7-0.7-0.7h0L105,711L105,711z M105,713.3c0.4,0,0.8-0.3,0.8-0.7v0c0-0.5-0.3-0.7-0.8-0.7h0
		L105,713.3L105,713.3L105,713.3z M107.1,708.6h1v5.6h-1V708.6z M108.6,714v-1c0.3,0.2,0.6,0.3,0.9,0.3c0.3,0,0.5-0.1,0.5-0.5v0
		c0-0.3-0.1-0.4-0.5-1c-0.7-0.8-0.9-1.1-0.9-1.8v0c0-0.9,0.6-1.5,1.4-1.5c0.4,0,0.6,0.1,0.9,0.2v1c-0.3-0.2-0.5-0.3-0.7-0.3
		c-0.3,0-0.5,0.2-0.5,0.5v0c0,0.3,0.1,0.4,0.5,0.9c0.8,0.9,0.9,1.2,0.9,1.9v0c0,0.9-0.6,1.5-1.4,1.5
		C109.2,714.3,108.9,714.2,108.6,714z M111.7,709.5H111v-0.9h2.4v0.9h-0.7v4.7h-1V709.5z M113.8,708.6h1c1,0,1.7,0.5,1.7,1.8v0.1
		c0,0.7-0.3,1.2-0.7,1.5l0.8,2.3h-1l-0.6-2h-0.2v2h-1C113.8,714.2,113.8,708.6,113.8,708.6z M114.8,711.4c0.4,0,0.7-0.2,0.7-0.9
		v-0.1c0-0.7-0.3-0.9-0.8-0.9h0L114.8,711.4L114.8,711.4z M116.9,711.6v-0.3c0-1.8,0.6-2.7,1.5-2.7c0.9,0,1.5,0.9,1.5,2.7v0.3
		c0,1.8-0.6,2.7-1.5,2.7C117.5,714.3,116.9,713.4,116.9,711.6z M118.8,711.6v-0.3c0-1.4-0.2-1.8-0.5-1.8s-0.5,0.4-0.5,1.8v0.3
		c0,1.4,0.2,1.8,0.5,1.8S118.8,713,118.8,711.6z M100.1,716.6h2v0.9h-1.1v1.4h0.9v0.9h-0.9v2.3h-1V716.6z M102.6,716.6h1
		c1,0,1.7,0.5,1.7,1.8v0.1c0,0.7-0.3,1.2-0.7,1.5l0.8,2.3h-1l-0.6-2h-0.2v2h-1C102.6,722.2,102.6,716.6,102.6,716.6z M103.6,719.4
		c0.4,0,0.7-0.2,0.7-0.9v-0.1c0-0.7-0.3-0.9-0.8-0.9h0L103.6,719.4L103.6,719.4z M105.8,716.6h2.1v0.9h-1.2v1.4h1v0.9h-1v1.4h1.2
		v0.9h-2.2V716.6z M108.4,716.6h0.9l1,2.8v-2.8h1v5.6h-0.9l-1-3v3h-1C108.4,722.2,108.4,716.6,108.4,716.6z M111.7,719.5v-0.2
		c0-2,0.7-2.7,1.6-2.7c0.3,0,0.4,0,0.6,0.1v1c-0.2-0.1-0.4-0.2-0.5-0.2c-0.4,0-0.7,0.4-0.7,1.8v0.2c0,1.5,0.3,1.8,0.8,1.8
		c0.2,0,0.3-0.1,0.5-0.2v1c-0.2,0.1-0.4,0.2-0.7,0.2C112.4,722.3,111.7,721.5,111.7,719.5z M114.5,716.6h1v2.3h0.8v-2.3h1v5.6h-1
		v-2.4h-0.8v2.4h-1V716.6z M94.2,724.6h1c1,0,1.7,0.5,1.7,1.8v0.1c0,0.7-0.3,1.2-0.7,1.5l0.8,2.3h-1l-0.6-2h-0.2v2h-1
		C94.2,730.2,94.2,724.6,94.2,724.6z M95.3,727.4c0.4,0,0.7-0.2,0.7-0.9v-0.1c0-0.7-0.3-0.9-0.8-0.9h0L95.3,727.4L95.3,727.4z
		 M97.4,724.6h2.1v0.9h-1.2v1.4h1v0.9h-1v1.4h1.2v0.9h-2.2V724.6z M99.9,730v-1c0.3,0.2,0.6,0.3,0.9,0.3c0.3,0,0.5-0.1,0.5-0.5v0
		c0-0.3-0.1-0.4-0.5-1c-0.7-0.8-0.9-1.1-0.9-1.8v0c0-0.9,0.6-1.5,1.4-1.5c0.4,0,0.6,0.1,0.9,0.2v1c-0.3-0.2-0.5-0.3-0.7-0.3
		c-0.3,0-0.5,0.2-0.5,0.5v0c0,0.3,0.1,0.4,0.5,0.9c0.8,0.9,0.9,1.2,0.9,1.9v0c0,0.9-0.6,1.5-1.4,1.5
		C100.5,730.3,100.2,730.2,99.9,730z M103.1,725.5h-0.7v-0.9h2.4v0.9H104v4.7h-1L103.1,725.5L103.1,725.5z M105.7,724.6h1l1.1,5.6
		h-1l-0.2-1.1h-0.9l-0.2,1.1h-0.9L105.7,724.6z M106.5,728.2l-0.3-1.8l-0.3,1.8H106.5z M108,728.6v-4h1v4.1c0,0.5,0.2,0.7,0.4,0.7
		s0.4-0.2,0.4-0.7v-4.1h1v4c0,1.2-0.6,1.7-1.4,1.7S108,729.8,108,728.6z M111.4,724.6h1c1,0,1.7,0.5,1.7,1.8v0.1
		c0,0.7-0.3,1.2-0.7,1.5l0.8,2.3h-1l-0.6-2h-0.2v2h-1C111.4,730.2,111.4,724.6,111.4,724.6z M112.4,727.4c0.4,0,0.7-0.2,0.7-0.9
		v-0.1c0-0.7-0.3-0.9-0.8-0.9h0L112.4,727.4L112.4,727.4z M115.3,724.6h1l1.1,5.6h-1l-0.2-1.1h-0.9l-0.2,1.1h-0.9L115.3,724.6z
		 M116.1,728.2l-0.3-1.8l-0.3,1.8H116.1z M117.7,724.6h0.9l1,2.8v-2.8h1v5.6h-0.9l-1-3v3h-1L117.7,724.6L117.7,724.6z M121.7,725.5
		H121v-0.9h2.4v0.9h-0.7v4.7h-1L121.7,725.5L121.7,725.5z"/>
	<path class="st2" d="M64.3,701.9v-0.3c0-1.8,0.6-2.7,1.5-2.7c0.9,0,1.5,0.9,1.5,2.7v0.3c0,1.8-0.6,2.7-1.5,2.7
		C64.9,704.6,64.3,703.7,64.3,701.9z M66.3,701.9v-0.3c0-1.4-0.2-1.8-0.5-1.8c-0.3,0-0.5,0.4-0.5,1.8v0.3c0,1.4,0.2,1.8,0.5,1.8
		C66.1,703.7,66.3,703.3,66.3,701.9z M67.7,698.9h0.9c1.1,0,1.8,0.6,1.8,1.9v0c0,1.3-0.7,1.9-1.7,1.9h0v1.8h-1V698.9z M68.7,701.9
		c0.4,0,0.7-0.3,0.7-1v0c0-0.7-0.3-1-0.7-1h0L68.7,701.9L68.7,701.9L68.7,701.9z M70.8,698.9H73v0.9h-1.2v1.4h1v0.9h-1v1.4H73v0.9
		h-2.2V698.9z M73.5,698.9h0.9l1,2.8v-2.8h1v5.6h-0.9l-1-3v3h-1L73.5,698.9L73.5,698.9z M78.7,699.8H78v-0.9h2.4v0.9h-0.7v4.7h-1
		V699.8z M80.5,701.9v-0.3c0-1.8,0.6-2.7,1.5-2.7c0.9,0,1.5,0.9,1.5,2.7v0.3c0,1.8-0.6,2.7-1.5,2.7
		C81.1,704.6,80.5,703.7,80.5,701.9z M82.5,701.9v-0.3c0-1.4-0.2-1.8-0.5-1.8s-0.5,0.4-0.5,1.8v0.3c0,1.4,0.2,1.8,0.5,1.8
		S82.5,703.3,82.5,701.9z M60,706.9h0.9c1.2,0,2,0.9,2,2.7v0.2c0,1.8-0.7,2.7-2,2.7H60V706.9z M61,711.6c0.5,0,0.9-0.4,0.9-1.8v-0.2
		c0-1.4-0.4-1.8-0.9-1.8h0L61,711.6L61,711.6z M63.3,706.9h2.1v0.9h-1.2v1.4h1v0.9h-1v1.4h1.2v0.9h-2.2
		C63.3,712.5,63.3,706.9,63.3,706.9z M65.8,709.8v-0.2c0-2,0.7-2.7,1.6-2.7c0.3,0,0.4,0,0.6,0.1v1c-0.2-0.1-0.4-0.2-0.5-0.2
		c-0.4,0-0.7,0.4-0.7,1.8v0.2c0,1.5,0.3,1.8,0.8,1.8c0.2,0,0.3-0.1,0.5-0.2v1c-0.2,0.1-0.4,0.2-0.7,0.2
		C66.5,712.6,65.8,711.8,65.8,709.8z M68.6,706.9h1v2.3l0.8-2.3h1.1l-0.9,2.4l1,3.2h-1.1l-0.6-2.1l-0.2,0.6v1.5h-1L68.6,706.9
		L68.6,706.9z M73.9,706.9h1l1.1,5.6h-1l-0.2-1.1h-0.9l-0.2,1.1h-0.9L73.9,706.9z M74.7,710.5l-0.3-1.8l-0.3,1.8H74.7z M76.3,706.9
		h0.8c0.9,0,1.8,0.4,1.8,1.4v0c0,0.7-0.4,1.1-0.8,1.3c0.5,0.2,0.9,0.5,0.9,1.2v0.1c0,1-0.8,1.6-1.9,1.6h-0.9V706.9z M77.2,709.3
		c0.4,0,0.7-0.2,0.7-0.7v0c0-0.5-0.3-0.7-0.7-0.7h0L77.2,709.3L77.2,709.3z M77.3,711.6c0.4,0,0.8-0.3,0.8-0.7v0
		c0-0.5-0.3-0.7-0.8-0.7h0L77.3,711.6L77.3,711.6L77.3,711.6z M79.3,709.9v-0.3c0-1.8,0.6-2.7,1.5-2.7s1.5,0.9,1.5,2.7v0.3
		c0,1.8-0.6,2.7-1.5,2.7S79.3,711.7,79.3,709.9z M81.3,709.9v-0.3c0-1.4-0.2-1.8-0.5-1.8s-0.5,0.4-0.5,1.8v0.3
		c0,1.4,0.2,1.8,0.5,1.8S81.3,711.3,81.3,709.9z M82.4,706.9h1l0.5,3.6l0.5-3.6h1l-1,5.6h-1L82.4,706.9z M85.7,706.9h2.1v0.9h-1.2
		v1.4h1v0.9h-1v1.4h1.2v0.9h-2.2V706.9z"/>
	<path class="st2" d="M14.1,711.6h1v2.3H16v-2.3h1v5.6h-1v-2.4h-0.8v2.4h-1V711.6z M17.5,711.6h2.1v0.9h-1.2v1.4h1v0.9h-1v1.4h1.2
		v0.9h-2.2V711.6z M20.9,711.6h1l1.1,5.6h-1l-0.2-1.1H21l-0.2,1.1h-0.9L20.9,711.6z M21.7,715.2l-0.3-1.8l-0.3,1.8H21.7z
		 M23.3,711.6h0.9c1.2,0,2,0.9,2,2.7v0.2c0,1.8-0.7,2.7-2,2.7h-0.9V711.6z M24.4,716.3c0.5,0,0.9-0.4,0.9-1.8v-0.2
		c0-1.4-0.4-1.8-0.9-1.8h0L24.4,716.3L24.4,716.3L24.4,716.3z M26.7,711.6h1v4.7h1v0.9h-2V711.6z M29.1,711.6h1v5.6h-1V711.6z
		 M30.7,711.6h0.9l1,2.8v-2.8h1v5.6h-0.9l-1-3v3h-1C30.7,717.2,30.7,711.6,30.7,711.6z M34.1,711.6h2.1v0.9h-1.2v1.4h1v0.9h-1v1.4
		h1.2v0.9h-2.2C34.1,717.2,34.1,711.6,34.1,711.6z M36.7,711.6h1c1,0,1.7,0.5,1.7,1.8v0.1c0,0.7-0.3,1.2-0.7,1.5l0.8,2.3h-1l-0.6-2
		h-0.2v2h-1V711.6z M37.8,714.4c0.4,0,0.7-0.2,0.7-0.9v-0.1c0-0.7-0.3-0.9-0.8-0.9h0L37.8,714.4L37.8,714.4z M39.8,717v-1
		c0.3,0.2,0.6,0.3,0.9,0.3c0.3,0,0.5-0.1,0.5-0.5v0c0-0.3-0.1-0.4-0.5-1c-0.7-0.8-0.9-1.1-0.9-1.8v0c0-0.9,0.6-1.5,1.4-1.5
		c0.4,0,0.6,0.1,0.9,0.2v1c-0.3-0.2-0.5-0.3-0.7-0.3c-0.3,0-0.5,0.2-0.5,0.5v0c0,0.3,0.1,0.4,0.5,0.9c0.8,0.9,0.9,1.2,0.9,1.9v0
		c0,0.9-0.6,1.5-1.4,1.5C40.4,717.3,40.1,717.2,39.8,717z M12.5,722.5v-0.2c0-2,0.7-2.7,1.6-2.7c0.3,0,0.4,0,0.6,0.1v1
		c-0.2-0.1-0.4-0.2-0.5-0.2c-0.4,0-0.7,0.4-0.7,1.8v0.2c0,1.5,0.3,1.8,0.8,1.8c0.2,0,0.3-0.1,0.5-0.2v1c-0.2,0.1-0.4,0.2-0.7,0.2
		C13.2,725.3,12.5,724.5,12.5,722.5z M15,722.6v-0.3c0-1.8,0.6-2.7,1.5-2.7c0.9,0,1.5,0.9,1.5,2.7v0.3c0,1.8-0.6,2.7-1.5,2.7
		C15.6,725.3,15,724.4,15,722.6z M17,722.6v-0.3c0-1.4-0.2-1.8-0.5-1.8s-0.5,0.4-0.5,1.8v0.3c0,1.4,0.2,1.8,0.5,1.8S17,724,17,722.6
		z M18.5,719.6h1l0.7,2l0.7-2h1v5.6h-0.9v-3.4l-0.7,2.1h0l-0.7-2.1v3.4h-0.9V719.6z M22.4,719.6h2.1v0.9h-1.2v1.4h1v0.9h-1v1.4h1.2
		v0.9h-2.2V719.6z M25,719.6h0.9c1.2,0,2,0.9,2,2.7v0.2c0,1.8-0.7,2.7-2,2.7H25V719.6z M26,724.3c0.5,0,0.9-0.4,0.9-1.8v-0.2
		c0-1.4-0.4-1.8-0.9-1.8h0L26,724.3L26,724.3L26,724.3z M29,723l-1-3.4h1l0.5,2.1l0.5-2.1h1l-1,3.4v2.2h-1L29,723L29,723z
		 M32.4,722.5v-0.2c0-2,0.7-2.7,1.6-2.7c0.3,0,0.4,0,0.6,0.1v1c-0.2-0.1-0.4-0.2-0.5-0.2c-0.4,0-0.7,0.4-0.7,1.8v0.2
		c0,1.5,0.3,1.8,0.8,1.8c0.2,0,0.3-0.1,0.5-0.2v1c-0.2,0.1-0.4,0.2-0.7,0.2C33.1,725.3,32.4,724.5,32.4,722.5z M35.2,719.6h1v4.7h1
		v0.9h-2V719.6z M37.5,723.6v-4h1v4.1c0,0.5,0.2,0.7,0.4,0.7s0.4-0.2,0.4-0.7v-4.1h1v4c0,1.2-0.6,1.7-1.4,1.7S37.5,724.8,37.5,723.6
		z M40.9,719.6h0.8c0.9,0,1.8,0.4,1.8,1.4v0c0,0.7-0.4,1.1-0.8,1.3c0.5,0.2,0.9,0.5,0.9,1.2v0.1c0,1-0.8,1.6-1.9,1.6h-0.9V719.6z
		 M41.9,722c0.4,0,0.7-0.2,0.7-0.7v0c0-0.5-0.3-0.7-0.7-0.7h0L41.9,722L41.9,722z M41.9,724.3c0.4,0,0.8-0.3,0.8-0.7v0
		c0-0.5-0.3-0.7-0.8-0.7h0L41.9,724.3L41.9,724.3L41.9,724.3z"/>
	<path class="st2" d="M106,754.3h-0.7v-0.9h2.4v0.9H107v4.7h-1L106,754.3L106,754.3z M108.1,753.4h2.1v0.9H109v1.4h1v0.9h-1v1.4h1.2
		v0.9h-2.2V753.4z M110.7,753.4h0.9c1.1,0,1.8,0.6,1.8,1.9v0c0,1.3-0.7,1.9-1.7,1.9h0v1.8h-1V753.4z M111.7,756.3
		c0.4,0,0.7-0.3,0.7-1v0c0-0.7-0.3-1-0.7-1h0L111.7,756.3L111.7,756.3L111.7,756.3z M113.8,753.4h0.9c1.1,0,1.8,0.6,1.8,1.9v0
		c0,1.3-0.7,1.9-1.7,1.9h0v1.8h-1V753.4z M114.8,756.3c0.4,0,0.7-0.3,0.7-1v0c0-0.7-0.3-1-0.7-1h0L114.8,756.3L114.8,756.3
		L114.8,756.3z M117.4,753.4h1l1.1,5.6h-1l-0.2-1.1h-0.9l-0.2,1.1h-0.9L117.4,753.4z M118.2,757l-0.3-1.8l-0.3,1.8H118.2z
		 M119.8,753.4h0.9l1,2.8v-2.8h1v5.6h-0.9l-1-3v3h-1C119.8,759,119.8,753.4,119.8,753.4z M123.9,756.8l-1-3.4h1l0.5,2.1l0.5-2.1h1
		l-1,3.4v2.2h-1L123.9,756.8L123.9,756.8z M126.7,753.4h1l1.1,5.6h-1l-0.2-1.1h-0.9l-0.2,1.1h-0.9L126.7,753.4z M127.5,757l-0.3-1.8
		l-0.3,1.8H127.5z M129.1,753.4h1v2.3l0.8-2.3h1.1l-0.9,2.4l1,3.2h-1.1l-0.6-2.1l-0.2,0.6v1.5h-1L129.1,753.4L129.1,753.4z
		 M132.4,753.4h1v5.6h-1V753.4z"/>
	<path class="st2" d="M69.8,841h1l0.7,2l0.7-2h1v5.6h-0.9v-3.4l-0.7,2.1h0l-0.7-2.1v3.4h-0.9L69.8,841L69.8,841z M73.7,841h1v5.6h-1
		V841z M75.9,843.7l-0.9-2.7h1l0.4,1.6L77,841h1l-0.9,2.7l0.9,2.9h-1l-0.5-1.7l-0.5,1.7h-1L75.9,843.7z M79,843.7l-0.9-2.7h1
		l0.4,1.6l0.4-1.6h1l-0.9,2.7l0.9,2.9h-1l-0.5-1.7l-0.5,1.7h-1L79,843.7z M70.9,849h0.8c0.9,0,1.8,0.4,1.8,1.4v0
		c0,0.7-0.4,1.1-0.8,1.3c0.5,0.2,0.9,0.5,0.9,1.2v0.1c0,1-0.8,1.6-1.9,1.6h-0.9C70.9,854.6,70.9,849,70.9,849z M71.9,851.4
		c0.4,0,0.7-0.2,0.7-0.7v0c0-0.5-0.3-0.7-0.7-0.7h0L71.9,851.4L71.9,851.4z M71.9,853.7c0.4,0,0.8-0.3,0.8-0.7v0
		c0-0.5-0.3-0.7-0.8-0.7h0L71.9,853.7L71.9,853.7L71.9,853.7z M74.8,849h1l1.1,5.6h-1l-0.2-1.1h-0.9l-0.2,1.1h-0.9L74.8,849z
		 M75.6,852.6l-0.3-1.8l-0.3,1.8H75.6z M77.2,849h1c1,0,1.7,0.5,1.7,1.8v0.1c0,0.7-0.3,1.2-0.7,1.5l0.8,2.3h-1l-0.6-2h-0.2v2h-1
		L77.2,849L77.2,849z M78.2,851.8c0.4,0,0.7-0.2,0.7-0.9v-0.1c0-0.7-0.3-0.9-0.8-0.9h0L78.2,851.8L78.2,851.8z"/>
	<path class="st2" d="M120.9,888.5h-0.7v-0.9h2.4v0.9h-0.7v4.7h-1C120.9,893.2,120.9,888.5,120.9,888.5z M123.5,887.6h1l1.1,5.6h-1
		l-0.2-1.1h-0.9l-0.2,1.1h-0.9L123.5,887.6z M124.3,891.2l-0.3-1.8l-0.3,1.8H124.3z M125.8,893v-1c0.3,0.2,0.6,0.3,0.9,0.3
		c0.3,0,0.5-0.1,0.5-0.5v0c0-0.3-0.1-0.4-0.5-1c-0.7-0.8-0.9-1.1-0.9-1.8v0c0-0.9,0.6-1.5,1.4-1.5c0.4,0,0.6,0.1,0.9,0.2v1
		c-0.3-0.2-0.5-0.3-0.7-0.3c-0.3,0-0.5,0.2-0.5,0.5v0c0,0.3,0.1,0.4,0.5,0.9c0.8,0.9,0.9,1.2,0.9,1.9v0c0,0.9-0.6,1.5-1.4,1.5
		C126.4,893.3,126.1,893.2,125.8,893z M128.9,888.5h-0.7v-0.9h2.4v0.9h-0.7v4.7h-1L128.9,888.5L128.9,888.5z M131,887.6h2.1v0.9H132
		v1.4h1v0.9h-1v1.4h1.2v0.9H131L131,887.6L131,887.6z M112.2,895.6h1c1,0,1.7,0.5,1.7,1.8v0.1c0,0.7-0.3,1.2-0.7,1.5l0.8,2.3h-1
		l-0.6-2h-0.2v2h-1C112.2,901.2,112.2,895.6,112.2,895.6z M113.3,898.4c0.4,0,0.7-0.2,0.7-0.9v-0.1c0-0.7-0.3-0.9-0.8-0.9h0
		L113.3,898.4L113.3,898.4z M115.4,895.6h2.1v0.9h-1.2v1.4h1v0.9h-1v1.4h1.2v0.9h-2.2V895.6z M117.9,901v-1c0.3,0.2,0.6,0.3,0.9,0.3
		c0.3,0,0.5-0.1,0.5-0.5v0c0-0.3-0.1-0.4-0.5-1c-0.7-0.8-0.9-1.1-0.9-1.8v0c0-0.9,0.6-1.5,1.4-1.5c0.4,0,0.6,0.1,0.9,0.2v1
		c-0.3-0.2-0.5-0.3-0.7-0.3c-0.3,0-0.5,0.2-0.5,0.5v0c0,0.3,0.1,0.4,0.5,0.9c0.8,0.9,0.9,1.2,0.9,1.9v0c0,0.9-0.6,1.5-1.4,1.5
		C118.5,901.3,118.2,901.2,117.9,901z M121.1,896.5h-0.7v-0.9h2.4v0.9H122v4.7h-1L121.1,896.5L121.1,896.5z M123.7,895.6h1l1.1,5.6
		h-1l-0.2-1.1h-0.9l-0.2,1.1h-0.9L123.7,895.6z M124.5,899.2l-0.3-1.8l-0.3,1.8H124.5z M126,899.6v-4h1v4.1c0,0.5,0.2,0.7,0.4,0.7
		s0.4-0.2,0.4-0.7v-4.1h1v4c0,1.2-0.6,1.7-1.4,1.7C126.6,901.3,126,900.8,126,899.6z M129.4,895.6h1c1,0,1.7,0.5,1.7,1.8v0.1
		c0,0.7-0.3,1.2-0.7,1.5l0.8,2.3h-1l-0.6-2h-0.2v2h-1V895.6z M130.4,898.4c0.4,0,0.7-0.2,0.7-0.9v-0.1c0-0.7-0.3-0.9-0.8-0.9h0
		L130.4,898.4L130.4,898.4z M133.3,895.6h1l1.1,5.6h-1l-0.2-1.1h-0.9l-0.2,1.1h-0.9L133.3,895.6z M134.1,899.2l-0.3-1.8l-0.3,1.8
		H134.1z M135.7,895.6h0.9l1,2.8v-2.8h1v5.6h-0.9l-1-3v3h-1L135.7,895.6L135.7,895.6z M139.7,896.5H139v-0.9h2.4v0.9h-0.7v4.7h-1
		L139.7,896.5L139.7,896.5z"/>
	<path class="st2" d="M35.4,443.7h1c1,0,1.7,0.5,1.7,1.8v0.1c0,0.7-0.3,1.2-0.7,1.5l0.8,2.3h-1l-0.6-2h-0.2v2h-1L35.4,443.7
		L35.4,443.7z M36.4,446.5c0.4,0,0.7-0.2,0.7-0.9v-0.1c0-0.7-0.3-0.9-0.8-0.9h0L36.4,446.5L36.4,446.5z M38.6,443.7h1
		c1,0,1.7,0.5,1.7,1.8v0.1c0,0.7-0.3,1.2-0.7,1.5l0.8,2.3h-1l-0.6-2h-0.2v2h-1L38.6,443.7L38.6,443.7z M39.6,446.5
		c0.4,0,0.7-0.2,0.7-0.9v-0.1c0-0.7-0.3-0.9-0.8-0.9h0L39.6,446.5L39.6,446.5z"/>
	<path class="st2" d="M10.1,446h1c1,0,1.7,0.5,1.7,1.8v0.1c0,0.7-0.3,1.2-0.7,1.5l0.8,2.3h-1l-0.6-2H11v2h-1
		C10.1,451.6,10.1,446,10.1,446z M11.1,448.8c0.4,0,0.7-0.2,0.7-0.9v-0.1c0-0.7-0.3-0.9-0.8-0.9h0L11.1,448.8L11.1,448.8z M13.3,446
		h1c1,0,1.7,0.5,1.7,1.8v0.1c0,0.7-0.3,1.2-0.7,1.5l0.8,2.3h-1l-0.6-2h-0.2v2h-1C13.3,451.6,13.3,446,13.3,446z M14.3,448.8
		c0.4,0,0.7-0.2,0.7-0.9v-0.1c0-0.7-0.3-0.9-0.8-0.9h0L14.3,448.8L14.3,448.8z"/>
	<path class="st2" d="M128.1,468.4v-0.2c0-2,0.7-2.7,1.6-2.7c0.3,0,0.4,0,0.6,0.1v1c-0.2-0.1-0.4-0.2-0.5-0.2
		c-0.4,0-0.7,0.4-0.7,1.8v0.2c0,1.5,0.3,1.8,0.8,1.8c0.2,0,0.3-0.1,0.5-0.2v1c-0.2,0.1-0.4,0.2-0.7,0.2
		C128.8,471.2,128.1,470.4,128.1,468.4z M131.7,465.5h1l1.1,5.6h-1l-0.2-1.1h-0.9l-0.2,1.1h-0.9L131.7,465.5z M132.5,469.1l-0.3-1.8
		l-0.3,1.8H132.5z M134.1,465.5h1c1,0,1.7,0.5,1.7,1.8v0.1c0,0.7-0.3,1.2-0.7,1.5l0.8,2.3h-1l-0.6-2h-0.2v2h-1L134.1,465.5
		L134.1,465.5z M135.1,468.3c0.4,0,0.7-0.2,0.7-0.9v-0.1c0-0.7-0.3-0.9-0.8-0.9h0L135.1,468.3L135.1,468.3z M137.3,465.5h0.9
		c1.2,0,2,0.9,2,2.7v0.2c0,1.8-0.7,2.7-2,2.7h-0.9V465.5z M138.3,470.2c0.5,0,0.9-0.4,0.9-1.8v-0.2c0-1.4-0.4-1.8-0.9-1.8h0
		L138.3,470.2L138.3,470.2z M127.5,473.5h1c1,0,1.7,0.5,1.7,1.8v0.1c0,0.7-0.3,1.2-0.7,1.5l0.8,2.3h-1l-0.6-2h-0.2v2h-1
		C127.5,479.1,127.5,473.5,127.5,473.5z M128.6,476.3c0.4,0,0.7-0.2,0.7-0.9v-0.1c0-0.7-0.3-0.9-0.8-0.9h0L128.6,476.3L128.6,476.3z
		 M130.6,476.5v-0.3c0-1.8,0.6-2.7,1.5-2.7c0.9,0,1.5,0.9,1.5,2.7v0.3c0,1.8-0.6,2.7-1.5,2.7C131.2,479.2,130.6,478.3,130.6,476.5z
		 M132.6,476.5v-0.3c0-1.4-0.2-1.8-0.5-1.8s-0.5,0.4-0.5,1.8v0.3c0,1.4,0.2,1.8,0.5,1.8S132.6,477.9,132.6,476.5z M134,476.5v-0.3
		c0-1.8,0.6-2.7,1.5-2.7c0.9,0,1.5,0.9,1.5,2.7v0.3c0,1.8-0.6,2.7-1.5,2.7S134,478.3,134,476.5z M136,476.5v-0.3
		c0-1.4-0.2-1.8-0.5-1.8s-0.5,0.4-0.5,1.8v0.3c0,1.4,0.2,1.8,0.5,1.8S136,477.9,136,476.5z M137.5,473.5h1l0.7,2l0.7-2h1v5.6h-0.9
		v-3.4l-0.7,2.1h0l-0.7-2.1v3.4h-0.9L137.5,473.5L137.5,473.5z"/>
	<path class="st2" d="M120.6,495.4h0.8c0.9,0,1.6,0.5,1.6,1.7v0c0,1.1-0.6,1.6-1.5,1.7h0v1.5h-0.9L120.6,495.4L120.6,495.4z
		 M121.4,497.9c0.4,0,0.6-0.3,0.6-0.9v0c0-0.6-0.2-0.9-0.6-0.9h0L121.4,497.9L121.4,497.9L121.4,497.9z M123.3,495.4h1.9v0.8h-1v1.2
		h0.9v0.8h-0.9v1.2h1v0.8h-1.9L123.3,495.4L123.3,495.4z M125.6,495.4h0.9c0.9,0,1.5,0.5,1.5,1.6v0.1c0,0.6-0.3,1-0.6,1.3l0.7,2
		h-0.9l-0.6-1.7h-0.2v1.7h-0.9L125.6,495.4L125.6,495.4z M126.5,497.8c0.4,0,0.6-0.2,0.6-0.8v-0.1c0-0.6-0.3-0.8-0.7-0.8h0
		L126.5,497.8L126.5,497.8z M128.2,500.1v-0.9c0.3,0.2,0.5,0.3,0.8,0.3c0.2,0,0.5-0.1,0.5-0.4v0c0-0.2-0.1-0.4-0.5-0.9
		c-0.6-0.7-0.8-1-0.8-1.6v0c0-0.8,0.5-1.3,1.2-1.3c0.3,0,0.5,0,0.8,0.2v0.9c-0.3-0.2-0.4-0.2-0.7-0.2c-0.2,0-0.4,0.2-0.4,0.4v0
		c0,0.2,0.1,0.3,0.5,0.8c0.7,0.8,0.8,1.1,0.8,1.6v0c0,0.8-0.5,1.3-1.2,1.3C128.8,500.3,128.5,500.2,128.2,500.1z M130.6,495.4h0.8
		c0.9,0,1.6,0.5,1.6,1.7v0c0,1.1-0.6,1.6-1.5,1.7h0v1.5h-0.9L130.6,495.4L130.6,495.4z M131.5,497.9c0.4,0,0.6-0.3,0.6-0.9v0
		c0-0.6-0.2-0.9-0.6-0.9h0L131.5,497.9L131.5,497.9L131.5,497.9z M133.3,495.4h1.9v0.8h-1v1.2h0.9v0.8h-0.9v1.2h1v0.8h-1.9
		L133.3,495.4L133.3,495.4z M135.5,497.9v-0.2c0-1.7,0.6-2.4,1.4-2.4c0.2,0,0.4,0,0.6,0.1v0.9c-0.2-0.1-0.3-0.2-0.5-0.2
		c-0.4,0-0.7,0.3-0.7,1.6v0.2c0,1.3,0.3,1.6,0.7,1.6c0.1,0,0.3,0,0.5-0.2v0.8c-0.2,0.1-0.4,0.1-0.6,0.1
		C136.1,500.3,135.5,499.6,135.5,497.9z M138.4,496.2h-0.6v-0.8h2.1v0.8h-0.6v4.1h-0.9V496.2z M140.2,495.4h0.9v4.9h-0.9V495.4z
		 M141.3,495.4h0.9l0.5,3.2l0.5-3.2h0.8l-0.9,4.9h-0.9L141.3,495.4z M144.2,495.4h1.9v0.8h-1v1.2h0.9v0.8h-0.9v1.2h1v0.8h-1.9
		L144.2,495.4L144.2,495.4z M146.4,500.1v-0.9c0.3,0.2,0.5,0.3,0.8,0.3c0.2,0,0.5-0.1,0.5-0.4v0c0-0.2-0.1-0.4-0.5-0.9
		c-0.6-0.7-0.8-1-0.8-1.6v0c0-0.8,0.5-1.3,1.2-1.3c0.3,0,0.5,0,0.8,0.2v0.9c-0.3-0.2-0.4-0.2-0.7-0.2c-0.2,0-0.4,0.2-0.4,0.4v0
		c0,0.2,0.1,0.3,0.5,0.8c0.7,0.8,0.8,1.1,0.8,1.6v0c0,0.8-0.5,1.3-1.2,1.3C146.9,500.3,146.7,500.2,146.4,500.1z M127.9,503.4h0.8
		c0.9,0,1.6,0.5,1.6,1.7v0c0,1.1-0.6,1.6-1.5,1.7h0v1.5h-0.9L127.9,503.4L127.9,503.4z M128.8,505.9c0.4,0,0.6-0.3,0.6-0.9v0
		c0-0.6-0.2-0.9-0.6-0.9h0L128.8,505.9L128.8,505.9L128.8,505.9z M130.6,503.4h0.9v2h0.7v-2h0.9v4.9h-0.9v-2.1h-0.7v2.1h-0.9V503.4z
		 M133.5,505.9v-0.3c0-1.6,0.5-2.4,1.3-2.4s1.3,0.8,1.3,2.4v0.3c0,1.6-0.5,2.4-1.3,2.4S133.5,507.6,133.5,505.9z M135.2,505.9v-0.3
		c0-1.3-0.2-1.6-0.4-1.6s-0.4,0.4-0.4,1.6v0.3c0,1.3,0.2,1.6,0.4,1.6S135.2,507.2,135.2,505.9z M136.8,504.2h-0.6v-0.8h2.1v0.8h-0.6
		v4.1h-0.9V504.2z M138.4,505.9v-0.3c0-1.6,0.5-2.4,1.3-2.4s1.3,0.8,1.3,2.4v0.3c0,1.6-0.5,2.4-1.3,2.4S138.4,507.6,138.4,505.9z
		 M140.1,505.9v-0.3c0-1.3-0.2-1.6-0.4-1.6s-0.4,0.4-0.4,1.6v0.3c0,1.3,0.2,1.6,0.4,1.6S140.1,507.2,140.1,505.9z M127.3,516.1v-0.9
		c0.3,0.2,0.5,0.3,0.8,0.3c0.2,0,0.5-0.1,0.5-0.4v0c0-0.2-0.1-0.4-0.5-0.9c-0.6-0.7-0.8-1-0.8-1.6v0c0-0.8,0.5-1.3,1.2-1.3
		c0.3,0,0.5,0,0.8,0.2v0.9c-0.3-0.2-0.4-0.2-0.7-0.2c-0.2,0-0.4,0.2-0.4,0.4v0c0,0.2,0.1,0.3,0.5,0.8c0.7,0.8,0.8,1.1,0.8,1.6v0
		c0,0.8-0.5,1.3-1.2,1.3C127.8,516.3,127.5,516.2,127.3,516.1z M130,512.2h-0.6v-0.8h2.1v0.8h-0.6v4.1H130V512.2z M131.8,514.8v-3.5
		h0.8v3.6c0,0.4,0.2,0.6,0.4,0.6c0.2,0,0.4-0.2,0.4-0.6v-3.6h0.8v3.5c0,1-0.5,1.5-1.2,1.5S131.8,515.9,131.8,514.8z M134.7,511.4
		h0.8c1.1,0,1.7,0.8,1.7,2.4v0.2c0,1.6-0.6,2.4-1.7,2.4h-0.8V511.4z M135.6,515.5c0.4,0,0.8-0.4,0.8-1.6v-0.2c0-1.2-0.4-1.6-0.8-1.6
		h0L135.6,515.5L135.6,515.5L135.6,515.5z M137.7,511.4h0.9v4.9h-0.9V511.4z M139,513.9v-0.3c0-1.6,0.5-2.4,1.3-2.4s1.3,0.8,1.3,2.4
		v0.3c0,1.6-0.5,2.4-1.3,2.4S139,515.6,139,513.9z M140.7,513.9v-0.3c0-1.3-0.2-1.6-0.4-1.6s-0.4,0.4-0.4,1.6v0.3
		c0,1.3,0.2,1.6,0.4,1.6S140.7,515.2,140.7,513.9z"/>
	<path class="st2" d="M18.1,892.7v-1c0.3,0.2,0.6,0.3,0.9,0.3c0.3,0,0.5-0.1,0.5-0.5v0c0-0.3-0.1-0.4-0.5-1
		c-0.7-0.8-0.9-1.1-0.9-1.8v0c0-0.9,0.6-1.5,1.4-1.5c0.4,0,0.6,0.1,0.9,0.2v1c-0.3-0.2-0.5-0.3-0.7-0.3c-0.3,0-0.5,0.2-0.5,0.5v0
		c0,0.3,0.1,0.4,0.5,0.9c0.8,0.9,0.9,1.2,0.9,1.9v0c0,0.9-0.6,1.5-1.4,1.5C18.7,893,18.4,892.9,18.1,892.7z M21.6,887.3h1l1.1,5.6
		h-1l-0.2-1.1h-0.9l-0.2,1.1h-0.9L21.6,887.3z M22.4,890.9l-0.3-1.8l-0.3,1.8H22.4z M23.7,887.3h1l0.5,3.6l0.5-3.6h1l-1,5.6h-1
		L23.7,887.3z M26.8,890.3V890c0-1.8,0.6-2.7,1.5-2.7c0.9,0,1.5,0.9,1.5,2.7v0.3c0,1.8-0.6,2.7-1.5,2.7
		C27.4,893,26.8,892.1,26.8,890.3z M28.8,890.3V890c0-1.4-0.2-1.8-0.5-1.8s-0.5,0.4-0.5,1.8v0.3c0,1.4,0.2,1.8,0.5,1.8
		S28.8,891.7,28.8,890.3z M30.2,887.3h1c1,0,1.7,0.5,1.7,1.8v0.1c0,0.7-0.3,1.2-0.7,1.5l0.8,2.3h-1l-0.6-2h-0.2v2h-1V887.3z
		 M31.3,890.1c0.4,0,0.7-0.2,0.7-0.9v-0.1c0-0.7-0.3-0.9-0.8-0.9h0L31.3,890.1L31.3,890.1z M11.1,895.3h1c1,0,1.7,0.5,1.7,1.8v0.1
		c0,0.7-0.3,1.2-0.7,1.5l0.8,2.3h-1l-0.6-2h-0.2v2h-1C11.1,900.9,11.1,895.3,11.1,895.3z M12.1,898.1c0.4,0,0.7-0.2,0.7-0.9v-0.1
		c0-0.7-0.3-0.9-0.8-0.9h0L12.1,898.1L12.1,898.1z M14.3,895.3h2.1v0.9h-1.2v1.4h1v0.9h-1v1.4h1.2v0.9h-2.2
		C14.3,900.9,14.3,895.3,14.3,895.3z M16.8,900.7v-1c0.3,0.2,0.6,0.3,0.9,0.3c0.3,0,0.5-0.1,0.5-0.5v0c0-0.3-0.1-0.4-0.5-1
		c-0.7-0.8-0.9-1.1-0.9-1.8v0c0-0.9,0.6-1.5,1.4-1.5c0.4,0,0.6,0.1,0.9,0.2v1c-0.3-0.2-0.5-0.3-0.7-0.3c-0.3,0-0.5,0.2-0.5,0.5v0
		c0,0.3,0.1,0.4,0.5,0.9c0.8,0.9,0.9,1.2,0.9,1.9v0c0,0.9-0.6,1.5-1.4,1.5C17.4,901,17.1,900.9,16.8,900.7z M19.9,896.2h-0.7v-0.9
		h2.4v0.9h-0.7v4.7h-1L19.9,896.2L19.9,896.2z M22.5,895.3h1l1.1,5.6h-1l-0.2-1.1h-0.9l-0.2,1.1h-0.9L22.5,895.3z M23.3,898.9
		l-0.3-1.8l-0.3,1.8H23.3z M24.9,899.3v-4h1v4.1c0,0.5,0.2,0.7,0.4,0.7s0.4-0.2,0.4-0.7v-4.1h1v4c0,1.2-0.6,1.7-1.4,1.7
		S24.9,900.5,24.9,899.3z M28.2,895.3h1c1,0,1.7,0.5,1.7,1.8v0.1c0,0.7-0.3,1.2-0.7,1.5l0.8,2.3h-1l-0.6-2h-0.2v2h-1V895.3z
		 M29.2,898.1c0.4,0,0.7-0.2,0.7-0.9v-0.1c0-0.7-0.3-0.9-0.8-0.9h0L29.2,898.1L29.2,898.1z M32.2,895.3h1l1.1,5.6h-1l-0.2-1.1h-0.9
		l-0.2,1.1h-0.9L32.2,895.3z M33,898.9l-0.3-1.8l-0.3,1.8H33z M34.6,895.3h0.9l1,2.8v-2.8h1v5.6h-0.9l-1-3v3h-1V895.3z M38.5,896.2
		h-0.7v-0.9h2.4v0.9h-0.7v4.7h-1L38.5,896.2L38.5,896.2z"/>
	<path class="st2" d="M64.8,275.9v-0.2c0-1.8,0.8-2.7,1.9-2.7c0.3,0,0.5,0.1,0.7,0.2v1c-0.2-0.1-0.5-0.2-0.7-0.2
		c-0.6,0-0.9,0.6-0.9,1.8v0.3c0,1.5,0.4,1.8,0.8,1.8c0,0,0,0,0.1,0v-1.4h-0.5v-0.9h1.4v3c-0.4,0.2-0.6,0.2-1,0.2
		C65.6,278.6,64.8,277.9,64.8,275.9z M68.1,273h2.1v0.9h-1.2v1.4h1v0.9h-1v1.4h1.2v0.9h-2.2V273z M71.3,273.9h-0.7V273h2.4v0.9h-0.7
		v4.7h-1L71.3,273.9L71.3,273.9z M73.9,273h1l1.1,5.6h-1l-0.2-1.1h-0.9l-0.2,1.1h-0.9L73.9,273z M74.7,276.6l-0.3-1.8l-0.3,1.8H74.7
		z M76,273h1l0.4,3.4l0.5-3.4h0.9l0.5,3.4l0.4-3.4h1l-0.8,5.6h-1l-0.5-3.3l-0.5,3.3h-1L76,273z M81.7,273h1l1.1,5.6h-1l-0.2-1.1
		h-0.9l-0.2,1.1h-0.9L81.7,273z M82.5,276.6l-0.3-1.8l-0.3,1.8H82.5z M84.5,276.4l-1-3.4h1l0.5,2.1l0.5-2.1h1l-1,3.4v2.2h-1V276.4z
		 M66.4,281.9h-0.7V281H68v0.9h-0.7v4.7h-1V281.9z M68.4,281h1v2.3h0.8V281h1v5.6h-1v-2.4h-0.8v2.4h-1V281z M71.8,281H74v0.9h-1.2
		v1.4h1v0.9h-1v1.4H74v0.9h-2.2V281z M75.2,281h1l1.1,5.6h-1l-0.2-1.1h-0.9l-0.2,1.1h-0.9L75.2,281z M76,284.6l-0.3-1.8l-0.3,1.8H76
		z M77.9,281.9h-0.7V281h2.4v0.9h-0.7v4.7h-1L77.9,281.9L77.9,281.9z M80,281h2.1v0.9H81v1.4h1v0.9h-1v1.4h1.2v0.9H80V281z
		 M82.6,281h1c1,0,1.7,0.5,1.7,1.8v0.1c0,0.7-0.3,1.2-0.7,1.5l0.8,2.3h-1l-0.6-2h-0.2v2h-1L82.6,281L82.6,281z M83.7,283.8
		c0.4,0,0.7-0.2,0.7-0.9v-0.1c0-0.7-0.3-0.9-0.8-0.9h0L83.7,283.8L83.7,283.8z"/>
	<path class="st2" d="M37.4,540.5v-1c0.3,0.2,0.6,0.3,0.9,0.3c0.3,0,0.5-0.1,0.5-0.5v0c0-0.3-0.1-0.4-0.5-1
		c-0.7-0.8-0.9-1.1-0.9-1.8v0c0-0.9,0.6-1.5,1.4-1.5c0.4,0,0.6,0.1,0.9,0.2v1c-0.3-0.2-0.5-0.3-0.7-0.3c-0.3,0-0.5,0.2-0.5,0.5v0
		c0,0.3,0.1,0.4,0.5,0.9c0.8,0.9,0.9,1.2,0.9,1.9v0c0,0.9-0.6,1.5-1.4,1.5C38,540.7,37.7,540.6,37.4,540.5z M40.1,535.1h1v2.3h0.8
		v-2.3h1v5.6h-1v-2.4h-0.8v2.4h-1L40.1,535.1L40.1,535.1z M43.4,538v-0.3c0-1.8,0.6-2.7,1.5-2.7c0.9,0,1.5,0.9,1.5,2.7v0.3
		c0,1.8-0.6,2.7-1.5,2.7C44,540.8,43.4,539.9,43.4,538z M45.4,538v-0.3c0-1.4-0.2-1.8-0.5-1.8s-0.5,0.4-0.5,1.8v0.3
		c0,1.4,0.2,1.8,0.5,1.8S45.4,539.5,45.4,538z M46.9,535.1h1c1,0,1.7,0.5,1.7,1.8v0.1c0,0.7-0.3,1.2-0.7,1.5l0.8,2.3h-1l-0.6-2h-0.2
		v2h-1V535.1z M47.9,537.8c0.4,0,0.7-0.2,0.7-0.9v-0.1c0-0.7-0.3-0.9-0.8-0.9h0L47.9,537.8L47.9,537.8L47.9,537.8z M50,535.1h2.1
		v0.9H51v1.4h1v0.9h-1v1.4h1.2v0.9H50L50,535.1L50,535.1z M32.8,543.1H35v0.9h-1.2v1.4h1v0.9h-1v1.4H35v0.9h-2.2
		C32.8,548.7,32.8,543.1,32.8,543.1z M36.2,545.8l-0.9-2.7h1l0.4,1.6l0.4-1.6h1l-0.9,2.7l0.9,2.9h-1l-0.5-1.7l-0.5,1.7h-1
		L36.2,545.8z M38.4,546v-0.2c0-2,0.7-2.7,1.6-2.7c0.3,0,0.4,0,0.6,0.1v1c-0.2-0.1-0.4-0.2-0.5-0.2c-0.4,0-0.7,0.4-0.7,1.8v0.2
		c0,1.5,0.3,1.8,0.8,1.8c0.2,0,0.3-0.1,0.5-0.2v1c-0.2,0.1-0.4,0.2-0.7,0.2C39,548.7,38.4,547.9,38.4,546z M41.1,547v-4h1v4.1
		c0,0.5,0.2,0.7,0.4,0.7s0.4-0.2,0.4-0.7v-4.1h1v4c0,1.2-0.6,1.7-1.4,1.7S41.1,548.2,41.1,547z M44.5,543.1h1c1,0,1.7,0.5,1.7,1.8
		v0.1c0,0.7-0.3,1.2-0.7,1.5l0.8,2.3h-1l-0.6-2h-0.2v2h-1V543.1z M45.5,545.8c0.4,0,0.7-0.2,0.7-0.9v-0.1c0-0.7-0.3-0.9-0.8-0.9h0
		L45.5,545.8L45.5,545.8L45.5,545.8z M47.5,548.5v-1c0.3,0.2,0.6,0.3,0.9,0.3c0.3,0,0.5-0.1,0.5-0.5v0c0-0.3-0.1-0.4-0.5-1
		c-0.7-0.8-0.9-1.1-0.9-1.8v0c0-0.9,0.6-1.5,1.4-1.5c0.4,0,0.6,0.1,0.9,0.2v1c-0.3-0.2-0.5-0.3-0.7-0.3c-0.3,0-0.5,0.2-0.5,0.5v0
		c0,0.3,0.1,0.4,0.5,0.9c0.8,0.9,0.9,1.2,0.9,1.9v0c0,0.9-0.6,1.5-1.4,1.5C48.1,548.7,47.8,548.6,47.5,548.5z M50.3,543.1h1v5.6h-1
		V543.1z M51.7,546v-0.3c0-1.8,0.6-2.7,1.5-2.7c0.9,0,1.5,0.9,1.5,2.7v0.3c0,1.8-0.6,2.7-1.5,2.7C52.3,548.8,51.7,547.9,51.7,546z
		 M53.7,546v-0.3c0-1.4-0.2-1.8-0.5-1.8s-0.5,0.4-0.5,1.8v0.3c0,1.4,0.2,1.8,0.5,1.8S53.7,547.5,53.7,546z M55.2,543.1h0.9l1,2.8
		v-2.8h1v5.6h-0.9l-1-3v3h-1C55.2,548.7,55.2,543.1,55.2,543.1z M39.8,551.1h0.9c1.2,0,2,0.9,2,2.7v0.2c0,1.8-0.7,2.7-2,2.7h-0.9
		V551.1z M40.8,555.8c0.5,0,0.9-0.4,0.9-1.8v-0.2c0-1.4-0.4-1.8-0.9-1.8h0L40.8,555.8L40.8,555.8z M43.2,551.1h2.1v0.9h-1.2v1.4h1
		v0.9h-1v1.4h1.2v0.9h-2.2C43.2,556.7,43.2,551.1,43.2,551.1z M45.7,556.5v-1c0.3,0.2,0.6,0.3,0.9,0.3c0.3,0,0.5-0.1,0.5-0.5v0
		c0-0.3-0.1-0.4-0.5-1c-0.7-0.8-0.9-1.1-0.9-1.8v0c0-0.9,0.6-1.5,1.4-1.5c0.4,0,0.6,0.1,0.9,0.2v1c-0.3-0.2-0.5-0.3-0.7-0.3
		c-0.3,0-0.5,0.2-0.5,0.5v0c0,0.3,0.1,0.4,0.5,0.9c0.8,0.9,0.9,1.2,0.9,1.9v0c0,0.9-0.6,1.5-1.4,1.5C46.3,556.7,46,556.6,45.7,556.5
		z M48.4,551.1h1v2.3l0.8-2.3h1.1l-0.9,2.4l1,3.2h-1.1l-0.6-2.1l-0.2,0.6v1.5h-1L48.4,551.1L48.4,551.1z"/>
	<path class="st2" d="M115.9,590.5v-1c0.3,0.2,0.6,0.3,0.9,0.3c0.3,0,0.5-0.1,0.5-0.5v0c0-0.3-0.1-0.4-0.5-1
		c-0.7-0.8-0.9-1.1-0.9-1.8v0c0-0.9,0.6-1.5,1.4-1.5c0.4,0,0.6,0.1,0.9,0.2v1c-0.3-0.2-0.5-0.3-0.7-0.3c-0.3,0-0.5,0.2-0.5,0.5v0
		c0,0.3,0.1,0.4,0.5,0.9c0.8,0.9,0.9,1.2,0.9,1.9v0c0,0.9-0.6,1.5-1.4,1.5C116.6,590.7,116.2,590.6,115.9,590.5z M119.1,586h-0.7
		V585h2.4v0.9H120v4.7h-1L119.1,586L119.1,586z M121.7,585h1l1.1,5.6h-1l-0.2-1.1h-0.9l-0.2,1.1h-0.9L121.7,585z M122.5,588.7
		l-0.3-1.8l-0.3,1.8H122.5z M124.1,585h1c1,0,1.7,0.5,1.7,1.8v0.1c0,0.7-0.3,1.2-0.7,1.5l0.8,2.3h-1l-0.6-2h-0.2v2h-1V585z
		 M125.1,587.8c0.4,0,0.7-0.2,0.7-0.9v-0.1c0-0.7-0.3-0.9-0.8-0.9h0L125.1,587.8L125.1,587.8L125.1,587.8z M127.3,585h0.8
		c0.9,0,1.8,0.4,1.8,1.4v0c0,0.7-0.4,1.1-0.8,1.3c0.5,0.2,0.9,0.5,0.9,1.2v0.1c0,1-0.8,1.6-1.9,1.6h-0.9
		C127.3,590.6,127.3,585,127.3,585z M128.3,587.4c0.4,0,0.7-0.2,0.7-0.7v0c0-0.5-0.3-0.7-0.7-0.7h0L128.3,587.4L128.3,587.4z
		 M128.3,589.7c0.4,0,0.8-0.3,0.8-0.7v0c0-0.5-0.3-0.7-0.8-0.7h0L128.3,589.7L128.3,589.7L128.3,589.7z M130.4,589v-4h1v4.1
		c0,0.5,0.2,0.7,0.4,0.7s0.4-0.2,0.4-0.7V585h1v4c0,1.2-0.6,1.7-1.4,1.7S130.4,590.2,130.4,589z M133.6,587.9v-0.2
		c0-2,0.7-2.7,1.6-2.7c0.3,0,0.4,0,0.6,0.1v1c-0.2-0.1-0.4-0.2-0.5-0.2c-0.4,0-0.7,0.4-0.7,1.8v0.2c0,1.5,0.3,1.8,0.8,1.8
		c0.2,0,0.3-0.1,0.5-0.2v1c-0.2,0.1-0.4,0.2-0.7,0.2C134.3,590.7,133.6,589.9,133.6,587.9z M136.4,585h1v2.3l0.8-2.3h1.1l-0.9,2.4
		l1,3.2h-1.1l-0.6-2.1l-0.2,0.6v1.5h-1L136.4,585L136.4,585z M139.5,590.5v-1c0.3,0.2,0.6,0.3,0.9,0.3c0.3,0,0.5-0.1,0.5-0.5v0
		c0-0.3-0.1-0.4-0.5-1c-0.7-0.8-0.9-1.1-0.9-1.8v0c0-0.9,0.6-1.5,1.4-1.5c0.4,0,0.6,0.1,0.9,0.2v1c-0.3-0.2-0.5-0.3-0.7-0.3
		c-0.3,0-0.5,0.2-0.5,0.5v0c0,0.3,0.1,0.4,0.5,0.9c0.8,0.9,0.9,1.2,0.9,1.9v0c0,0.9-0.6,1.5-1.4,1.5
		C140.1,590.7,139.8,590.6,139.5,590.5z M142.2,586.4v-0.1c0-0.8,0.4-1.4,1-1.4s1,0.5,1,1.4v0.1c0,0.8-0.4,1.4-1,1.4
		S142.2,587.3,142.2,586.4z M144,586.3c0-0.7-0.3-1.2-0.8-1.2s-0.8,0.5-0.8,1.2v0.1c0,0.7,0.3,1.2,0.8,1.2s0.8-0.5,0.8-1.2V586.3z
		 M142.8,585.6h0.3c0.3,0,0.5,0.2,0.5,0.5v0c0,0.2-0.1,0.3-0.2,0.4l0.2,0.6h-0.3l-0.2-0.5h-0.1v0.5h-0.3V585.6z M143.2,586.3
		c0.1,0,0.2-0.1,0.2-0.2v0c0-0.2-0.1-0.2-0.2-0.2h0L143.2,586.3L143.2,586.3L143.2,586.3z"/>
	<path class="st2" d="M68.9,661.9v0.7h-0.9v-2.4h0.9v0.7h4.7v1L68.9,661.9L68.9,661.9z M67.9,659.8v-1h2.3V658h-2.3v-1h5.6v1h-2.4
		v0.8h2.4v1H67.9z M67.9,656.5v-2.1h0.9v1.2h1.4v-1h0.9v1h1.4v-1.2h0.9v2.2H67.9z M70.8,652.7h-0.2c-2,0-2.7-0.7-2.7-1.6
		c0-0.3,0-0.4,0.1-0.6h1c-0.1,0.2-0.2,0.4-0.2,0.5c0,0.4,0.4,0.7,1.8,0.7h0.2c1.5,0,1.8-0.3,1.8-0.8c0-0.2-0.1-0.3-0.2-0.5h1
		c0.1,0.2,0.2,0.4,0.2,0.7C73.6,652,72.8,652.7,70.8,652.7z M70.9,650.2h-0.3c-1.8,0-2.7-0.6-2.7-1.5c0-0.9,0.9-1.5,2.7-1.5h0.3
		c1.8,0,2.7,0.6,2.7,1.5C73.6,649.6,72.7,650.2,70.9,650.2z M70.9,648.2h-0.3c-1.4,0-1.8,0.2-1.8,0.5s0.4,0.5,1.8,0.5h0.3
		c1.4,0,1.8-0.2,1.8-0.5S72.3,648.2,70.9,648.2z M67.9,646.7v-1h4.7v-1h0.9v2L67.9,646.7L67.9,646.7z M67.9,644.3v-1h4.7v-1h0.9v2
		H67.9z M67.9,641.9v-2.1h0.9v1.2h1.4v-1h0.9v1h1.4v-1.2h0.9v2.2L67.9,641.9L67.9,641.9z M70.8,639.4h-0.2c-2,0-2.7-0.7-2.7-1.6
		c0-0.3,0-0.4,0.1-0.6h1c-0.1,0.2-0.2,0.4-0.2,0.5c0,0.4,0.4,0.7,1.8,0.7h0.2c1.5,0,1.8-0.3,1.8-0.8c0-0.2-0.1-0.3-0.2-0.5h1
		c0.1,0.2,0.2,0.4,0.2,0.7C73.6,638.8,72.8,639.4,70.8,639.4z M68.9,636.1v0.7h-0.9v-2.4h0.9v0.7h4.7v1L68.9,636.1L68.9,636.1z
		 M67.9,634.1v-1h5.6v1H67.9z M70.9,632.6h-0.3c-1.8,0-2.7-0.6-2.7-1.5c0-0.9,0.9-1.5,2.7-1.5h0.3c1.8,0,2.7,0.6,2.7,1.5
		C73.6,632,72.7,632.6,70.9,632.6z M70.9,630.6h-0.3c-1.4,0-1.8,0.2-1.8,0.5s0.4,0.5,1.8,0.5h0.3c1.4,0,1.8-0.2,1.8-0.5
		S72.3,630.6,70.9,630.6z M67.9,629.1v-0.9l2.8-1h-2.8v-1h5.6v0.9l-3,1h3v1H67.9z M75.9,658.3v-1l5.6-1.1v1l-1.1,0.2v0.9l1.1,0.2
		v0.9L75.9,658.3z M79.5,657.5l-1.8,0.3l1.8,0.3V657.5z M75.9,655.9v-1c0-1,0.5-1.7,1.8-1.7h0.1c0.7,0,1.2,0.3,1.5,0.7l2.3-0.8v1
		l-2,0.6v0.2h2v1L75.9,655.9L75.9,655.9z M78.7,654.9c0-0.4-0.2-0.7-0.9-0.7h-0.1c-0.7,0-0.9,0.3-0.9,0.8v0L78.7,654.9
		C78.7,655,78.7,654.9,78.7,654.9z M76.9,652.3v0.7h-0.9v-2.4h0.9v0.7h4.7v1L76.9,652.3L76.9,652.3z M78.8,649.1h-0.2
		c-1.8,0-2.7-0.8-2.7-1.9c0-0.3,0.1-0.5,0.2-0.7h1c-0.1,0.2-0.2,0.5-0.2,0.7c0,0.6,0.6,0.9,1.8,0.9h0.3c1.5,0,1.8-0.4,1.8-0.8
		c0,0,0,0,0-0.1h-1.4v0.5h-0.9v-1.4h3c0.2,0.4,0.2,0.6,0.2,1C81.6,648.3,80.8,649.1,78.8,649.1z M75.9,644.9v-1l5.6-1.1v1l-1.1,0.2
		v0.9l1.1,0.2v0.9L75.9,644.9z M79.5,644.1l-1.8,0.3l1.8,0.3V644.1z M75.9,642.5v-1h4.7v-1h0.9v2H75.9z M75.9,640.1v-1h4.7v-1h0.9v2
		H75.9z M75.9,637.7v-2.1h0.9v1.2h1.4v-1h0.9v1h1.4v-1.2h0.9v2.2H75.9z M75.9,635.1v-1c0-1,0.5-1.7,1.8-1.7h0.1
		c0.7,0,1.2,0.3,1.5,0.7l2.3-0.8v1l-2,0.6v0.2h2v1L75.9,635.1L75.9,635.1z M78.7,634.1c0-0.4-0.2-0.7-0.9-0.7h-0.1
		c-0.7,0-0.9,0.3-0.9,0.8v0L78.7,634.1C78.7,634.1,78.7,634.1,78.7,634.1z M79.3,631.3l-3.4,1v-1l2.1-0.5l-2.1-0.5v-1l3.4,1h2.2v1
		L79.3,631.3L79.3,631.3z"/>
	<path class="st2" d="M39.8,921.9h1c1,0,1.7,0.5,1.7,1.8v0.1c0,0.7-0.3,1.2-0.7,1.5l0.8,2.3h-1l-0.6-2h-0.2v2h-1
		C39.8,927.5,39.8,921.9,39.8,921.9z M40.8,924.6c0.4,0,0.7-0.2,0.7-0.9v-0.1c0-0.7-0.3-0.9-0.8-0.9h0L40.8,924.6L40.8,924.6z
		 M43,921.9h1c1,0,1.7,0.5,1.7,1.8v0.1c0,0.7-0.3,1.2-0.7,1.5l0.8,2.3h-1l-0.6-2h-0.2v2h-1V921.9z M44,924.6c0.4,0,0.7-0.2,0.7-0.9
		v-0.1c0-0.7-0.3-0.9-0.8-0.9h0L44,924.6L44,924.6z"/>
	<path class="st2" d="M104.5,921.9h1c1,0,1.7,0.5,1.7,1.8v0.1c0,0.7-0.3,1.2-0.7,1.5l0.8,2.3h-1l-0.6-2h-0.2v2h-1
		C104.5,927.5,104.5,921.9,104.5,921.9z M105.6,924.6c0.4,0,0.7-0.2,0.7-0.9v-0.1c0-0.7-0.3-0.9-0.8-0.9h0L105.6,924.6L105.6,924.6z
		 M107.7,921.9h1c1,0,1.7,0.5,1.7,1.8v0.1c0,0.7-0.3,1.2-0.7,1.5l0.8,2.3h-1l-0.6-2h-0.2v2h-1V921.9z M108.8,924.6
		c0.4,0,0.7-0.2,0.7-0.9v-0.1c0-0.7-0.3-0.9-0.8-0.9h0L108.8,924.6L108.8,924.6z"/>
	<path class="st2" d="M51.2,669.4h1c1,0,1.7,0.5,1.7,1.8v0.1c0,0.7-0.3,1.2-0.7,1.5l0.8,2.3h-1l-0.6-2h-0.2v2h-1V669.4z M52.3,672.1
		c0.4,0,0.7-0.2,0.7-0.9v-0.1c0-0.7-0.3-0.9-0.8-0.9h0L52.3,672.1L52.3,672.1z M54.4,669.4h1c1,0,1.7,0.5,1.7,1.8v0.1
		c0,0.7-0.3,1.2-0.7,1.5l0.8,2.3h-1l-0.6-2h-0.2v2h-1V669.4z M55.4,672.1c0.4,0,0.7-0.2,0.7-0.9v-0.1c0-0.7-0.3-0.9-0.8-0.9h0
		L55.4,672.1L55.4,672.1z"/>
	<path class="st2" d="M32,570.7h-0.7v-0.9h2.4v0.9h-0.7v4.7h-1L32,570.7L32,570.7z M34,569.7h1v2.3h0.8v-2.3h1v5.6h-1V573H35v2.4h-1
		V569.7z M37.4,569.7h2.1v0.9h-1.2v1.4h1v0.9h-1v1.4h1.2v0.9h-2.2V569.7z M42.1,569.7h1l1.1,5.6h-1l-0.2-1.1h-0.9l-0.2,1.1h-0.9
		L42.1,569.7z M42.9,573.3l-0.3-1.8l-0.3,1.8H42.9z M44.8,570.7h-0.7v-0.9h2.4v0.9h-0.7v4.7h-1L44.8,570.7L44.8,570.7z M46.9,569.7
		h1c1,0,1.7,0.5,1.7,1.8v0.1c0,0.7-0.3,1.2-0.7,1.5l0.8,2.3h-1l-0.6-2h-0.2v2h-1V569.7z M47.9,572.5c0.4,0,0.7-0.2,0.7-0.9v-0.1
		c0-0.7-0.3-0.9-0.8-0.9h0L47.9,572.5L47.9,572.5L47.9,572.5z M50.1,569.7h1v5.6h-1V569.7z M51.6,573.7v-4h1v4.1
		c0,0.5,0.2,0.7,0.4,0.7s0.4-0.2,0.4-0.7v-4.1h1v4c0,1.2-0.6,1.7-1.4,1.7S51.6,574.9,51.6,573.7z M55,569.7h1l0.7,2l0.7-2h1v5.6
		h-0.9V572l-0.7,2.1h0l-0.7-2.1v3.4H55L55,569.7L55,569.7z"/>
	<path class="st2" d="M5.1,609.8v-0.2c0-1.8,0.8-2.7,1.9-2.7c0.3,0,0.5,0.1,0.7,0.2v1c-0.2-0.1-0.5-0.2-0.7-0.2
		c-0.6,0-0.9,0.6-0.9,1.8v0.3c0,1.5,0.4,1.8,0.8,1.8c0,0,0,0,0.1,0v-1.4H6.6v-0.9h1.4v3c-0.4,0.2-0.6,0.2-1,0.2
		C5.9,612.6,5.1,611.8,5.1,609.8z M8.5,610.9v-4h1v4.1c0,0.5,0.2,0.7,0.4,0.7s0.4-0.2,0.4-0.7V607h1v4c0,1.2-0.6,1.7-1.4,1.7
		S8.5,612.1,8.5,610.9z M11.8,607h2.1v0.9h-1.2v1.4h1v0.9h-1v1.4H14v0.9h-2.2V607z M14.3,612.4v-1c0.3,0.2,0.6,0.3,0.9,0.3
		c0.3,0,0.5-0.1,0.5-0.5v0c0-0.3-0.1-0.4-0.5-1c-0.7-0.8-0.9-1.1-0.9-1.8v0c0-0.9,0.6-1.5,1.4-1.5c0.4,0,0.6,0.1,0.9,0.2v1
		c-0.3-0.2-0.5-0.3-0.7-0.3c-0.3,0-0.5,0.2-0.5,0.5v0c0,0.3,0.1,0.4,0.5,0.9c0.8,0.9,0.9,1.2,0.9,1.9v0c0,0.9-0.6,1.5-1.4,1.5
		C14.9,612.6,14.6,612.5,14.3,612.4z M17.4,607.9h-0.7V607h2.4v0.9h-0.7v4.7h-1V607.9z M20.7,612.4v-1c0.3,0.2,0.6,0.3,0.9,0.3
		c0.3,0,0.5-0.1,0.5-0.5v0c0-0.3-0.1-0.4-0.5-1c-0.7-0.8-0.9-1.1-0.9-1.8v0c0-0.9,0.6-1.5,1.4-1.5c0.4,0,0.6,0.1,0.9,0.2v1
		c-0.3-0.2-0.5-0.3-0.7-0.3c-0.3,0-0.5,0.2-0.5,0.5v0c0,0.3,0.1,0.4,0.5,0.9c0.8,0.9,0.9,1.2,0.9,1.9v0c0,0.9-0.6,1.5-1.4,1.5
		C21.3,612.6,20.9,612.5,20.7,612.4z M23.4,607h2.1v0.9h-1.2v1.4h1v0.9h-1v1.4h1.2v0.9h-2.2V607z M26,607h1c1,0,1.7,0.5,1.7,1.8v0.1
		c0,0.7-0.3,1.2-0.7,1.5l0.8,2.3h-1l-0.6-2H27v2h-1V607z M27,609.7c0.4,0,0.7-0.2,0.7-0.9v-0.1c0-0.7-0.3-0.9-0.8-0.9h0L27,609.7
		L27,609.7z M28.9,607h1l0.5,3.6L31,607h1l-1,5.6h-1L28.9,607z M32.2,607h1v5.6h-1V607z M33.7,609.8v-0.2c0-2,0.7-2.7,1.6-2.7
		c0.3,0,0.4,0,0.6,0.1v1c-0.2-0.1-0.4-0.2-0.5-0.2c-0.4,0-0.7,0.4-0.7,1.8v0.2c0,1.5,0.3,1.8,0.8,1.8c0.2,0,0.3-0.1,0.5-0.2v1
		c-0.2,0.1-0.4,0.2-0.7,0.2C34.4,612.6,33.7,611.8,33.7,609.8z M36.5,607h2.1v0.9h-1.2v1.4h1v0.9h-1v1.4h1.2v0.9h-2.2L36.5,607
		L36.5,607z M39,612.4v-1c0.3,0.2,0.6,0.3,0.9,0.3c0.3,0,0.5-0.1,0.5-0.5v0c0-0.3-0.1-0.4-0.5-1c-0.7-0.8-0.9-1.1-0.9-1.8v0
		c0-0.9,0.6-1.5,1.4-1.5c0.4,0,0.6,0.1,0.9,0.2v1c-0.3-0.2-0.5-0.3-0.7-0.3c-0.3,0-0.5,0.2-0.5,0.5v0c0,0.3,0.1,0.4,0.5,0.9
		c0.8,0.9,0.9,1.2,0.9,1.9v0c0,0.9-0.6,1.5-1.4,1.5C39.6,612.6,39.3,612.5,39,612.4z"/>
	<path class="st2" d="M98,475.1h0.8l0.6,1.8l0.6-1.8h0.8l0,4.9h-0.8l0-3l-0.6,1.9h0l-0.6-1.9l0,3h-0.8L98,475.1z M101.4,475.1l1.9,0
		l0,0.8l-1,0v1.2h0.9l0,0.8h-0.9v1.2l1,0l0,0.8l-1.9,0L101.4,475.1z M103.8,475.1l1.9,0l0,0.8h-1v1.2h0.9l0,0.8h-0.9v1.2h1l0,0.8
		l-1.9,0L103.8,475.1z M106.5,475.9h-0.6l0-0.8l2.1,0l0,0.8h-0.6l0,4.1h-0.9L106.5,475.9z M108.4,475.1h0.9l0,4.9h-0.9L108.4,475.1z
		 M109.7,475.1h0.8l0.9,2.5l0-2.5h0.8l0,4.9h-0.8l-0.9-2.6l0,2.6h-0.8L109.7,475.1z M112.6,477.7l0-0.2c0-1.6,0.7-2.4,1.6-2.4
		c0.3,0,0.5,0.1,0.7,0.1l0,0.9c-0.2-0.1-0.4-0.2-0.6-0.2c-0.5,0-0.8,0.5-0.8,1.5l0,0.2c0,1.3,0.4,1.6,0.7,1.6c0,0,0,0,0.1,0V478
		h-0.4l0-0.8h1.2l0,2.6c-0.3,0.1-0.6,0.2-0.9,0.2C113.3,480.1,112.6,479.4,112.6,477.7z M100.8,483.1h0.9c0.9,0,1.5,0.5,1.5,1.6v0.1
		c0,0.6-0.3,1-0.6,1.3l0.7,2h-0.9l-0.6-1.7h-0.2l0,1.7h-0.9L100.8,483.1z M101.7,485.6c0.4,0,0.6-0.2,0.6-0.8v-0.1
		c0-0.6-0.3-0.8-0.7-0.8h0L101.7,485.6L101.7,485.6z M103.5,485.7v-0.3c0-1.6,0.5-2.4,1.3-2.4s1.3,0.8,1.3,2.4v0.3
		c0,1.6-0.5,2.4-1.3,2.4S103.5,487.3,103.5,485.7z M105.2,485.7v-0.3c0-1.3-0.2-1.6-0.4-1.6s-0.4,0.4-0.4,1.6v0.3
		c0,1.3,0.2,1.6,0.4,1.6S105.2,487,105.2,485.7z M106.4,485.7v-0.3c0-1.6,0.5-2.4,1.3-2.4s1.3,0.8,1.3,2.4v0.3
		c0,1.6-0.5,2.4-1.3,2.4S106.4,487.3,106.4,485.7z M108.2,485.7v-0.3c0-1.3-0.2-1.6-0.4-1.6c-0.3,0-0.4,0.4-0.4,1.6v0.3
		c0,1.3,0.2,1.6,0.4,1.6C108,487.3,108.2,487,108.2,485.7z M109.4,483.1h0.8l0.6,1.8l0.6-1.8h0.8l0,4.9h-0.8l0-3l-0.6,1.9h0
		l-0.6-1.9l0,3h-0.8L109.4,483.1z"/>
	<path class="st2" d="M98,496.6h0.8l0.6,1.8l0.6-1.8h0.8l0,4.9h-0.8l0-3l-0.6,1.9h0l-0.6-1.9l0,3h-0.8L98,496.6z M101.4,496.6l1.9,0
		l0,0.8l-1,0v1.2h0.9l0,0.8h-0.9v1.2l1,0l0,0.8l-1.9,0L101.4,496.6z M103.8,496.6l1.9,0l0,0.8h-1v1.2h0.9l0,0.8h-0.9v1.2h1l0,0.8
		l-1.9,0L103.8,496.6z M106.5,497.4h-0.6l0-0.8l2.1,0l0,0.8h-0.6l0,4.1h-0.9L106.5,497.4z M108.4,496.6h0.9l0,4.9h-0.9L108.4,496.6z
		 M109.7,496.6h0.8l0.9,2.5l0-2.5h0.8l0,4.9h-0.8l-0.9-2.6l0,2.6h-0.8L109.7,496.6z M112.6,499.2l0-0.2c0-1.6,0.7-2.4,1.6-2.4
		c0.3,0,0.5,0.1,0.7,0.1l0,0.9c-0.2-0.1-0.4-0.2-0.6-0.2c-0.5,0-0.8,0.5-0.8,1.5l0,0.2c0,1.3,0.4,1.6,0.7,1.6c0,0,0,0,0.1,0v-1.3
		h-0.4l0-0.8h1.2l0,2.6c-0.3,0.1-0.6,0.2-0.9,0.2C113.3,501.6,112.6,500.9,112.6,499.2z M100.8,504.6h0.9c0.9,0,1.5,0.5,1.5,1.6v0.1
		c0,0.6-0.3,1-0.6,1.3l0.7,2h-0.9l-0.6-1.7h-0.2l0,1.7h-0.9L100.8,504.6z M101.7,507.1c0.4,0,0.6-0.2,0.6-0.8v-0.1
		c0-0.6-0.3-0.8-0.7-0.8h0L101.7,507.1L101.7,507.1z M103.5,507.2V507c0-1.6,0.5-2.4,1.3-2.4s1.3,0.8,1.3,2.4v0.3
		c0,1.6-0.5,2.4-1.3,2.4S103.5,508.8,103.5,507.2z M105.2,507.2V507c0-1.3-0.2-1.6-0.4-1.6s-0.4,0.4-0.4,1.6v0.3
		c0,1.3,0.2,1.6,0.4,1.6S105.2,508.5,105.2,507.2z M106.4,507.2V507c0-1.6,0.5-2.4,1.3-2.4s1.3,0.8,1.3,2.4v0.3
		c0,1.6-0.5,2.4-1.3,2.4S106.4,508.8,106.4,507.2z M108.2,507.2V507c0-1.3-0.2-1.6-0.4-1.6c-0.3,0-0.4,0.4-0.4,1.6v0.3
		c0,1.3,0.2,1.6,0.4,1.6C108,508.8,108.2,508.5,108.2,507.2z M109.4,504.6h0.8l0.6,1.8l0.6-1.8h0.8l0,4.9h-0.8l0-3l-0.6,1.9h0
		l-0.6-1.9l0,3h-0.8L109.4,504.6z"/>
</g>
<g id="GETAWAY_DECK_06_TOP">
	<g id="gDeck06Locations">
		<path width="148.9222" height="416.4644" id="_x30_6Aft" class="st3" d="M0.6,733.7l0,392.4c0.3,13.4,13.1,20.9,31.6,22.5c18,1.6,40.9,1.5,42.5,1.5
			c1.6,0,24.5,0,42.5-1.5c18.5-1.6,31.3-9.1,31.6-22.5l0.7-96.3l-0.1-274.4v-21.7H0.6z"/>
		<polygon width="148.833" height="314.3" id="_x30_6MidShip" class="st3" points="149.4,595.6 149.4,419.4 0.6,419.4 0.6,733.7 149.4,733.7 		"/>
		<path width="148.84" height="418.8276" id="_x30_6Forward" class="st3" d="M149.4,228.5l0-0.2l-0.3-15.2l-0.4-7.6l-0.5-7.6l-0.7-7.6l-0.9-7.6l-1-7.6l-1.2-7.5
			L143,160l-1.6-7.5l-1.7-7.4l-1.9-7.4l-2.1-7.3l-2.2-7.3l-4.8-14.4l-2.6-7.2l-2.7-7.1l-5.6-14.1l-2.9-7l-3-7l-3.1-6.9l-3.1-6.9
			l-3.2-6.9l-3.3-6.9l-3.4-6.8l-3.5-6.8l-3.6-6.7l-3.8-6.6C78.5-0.3,74.7,0.6,74.7,0.6C71,0.6,65,11.9,65,11.9l-3.8,6.6l-3.6,6.7
			l-3.5,6.8l-3.3,6.8l-3.3,6.9l-3.2,6.9l-3.1,6.9l-3.1,7l-5.9,14l-5.6,14.1l-2.7,7.1l-2.6,7.2l-4.8,14.4l-2.2,7.3l-2.1,7.3l-1.9,7.4
			L7,160l-1.4,7.5l-2.2,15.1l-0.9,7.6L0.6,334.7l0,84.7h148.8V228.5z"/>
	</g>
	<path class="st4" d="M85.1,11.8l3.8,6.6l3.6,6.7l3.5,6.8l3.3,6.8l3.3,6.9l3.2,6.9l3.1,6.9l3.1,6.9l3,7l2.9,7l5.6,14.1l2.7,7.1
		l2.6,7.2l4.8,14.4l2.2,7.3l2.1,7.3l1.9,7.4l1.7,7.4l1.6,7.5l1.4,7.5l1.2,7.5l1,7.6l0.9,7.6l0.7,7.6l0.5,7.6l0.4,7.6l0.3,15.2l0,0.2
		v367.1v159.8l0.1,274.4l-0.7,96.3c-0.3,13.4-13.1,20.9-31.6,22.5c-18,1.6-40.9,1.5-42.5,1.5c-1.6,0-24.5,0.1-42.5-1.5
		c-18.5-1.6-31.3-9.1-31.6-22.5l0,0L0.6,334.7l1.9-144.4l0.9-7.6l2.2-15.1L7,160l3.3-14.9l1.9-7.4l2.1-7.3l2.2-7.3l4.8-14.4l2.6-7.2
		l2.7-7.1l5.6-14.1l5.9-14l3.1-7l3.1-6.9l3.2-6.9l3.3-6.9l3.3-6.8l3.5-6.8l3.6-6.7l3.8-6.6c0,0,6-11.3,9.8-11.3
		C74.7,0.6,78.5-0.3,85.1,11.8z"/>
</g>
</svg>
