<?xml version="1.0" encoding="utf-8"?>
<!-- Generator: Adobe Illustrator 25.4.1, SVG Export Plug-In . SVG Version: 6.00 Build 0)  -->
<svg version="1.1" id="GETAWAY_DECK_17" xmlns="http://www.w3.org/2000/svg" xmlns:xlink="http://www.w3.org/1999/xlink" x="0px"
	 y="0px" width="151.9px" height="997.1px" viewBox="0 0 151.9 997.1" style="enable-background:new 0 0 151.9 997.1;"
	 xml:space="preserve">
<style type="text/css">
	.st0{fill:#FFFFFF;}
	.st1{fill:#FFFFFF;stroke:#D5DCE0;stroke-width:0.5;}
	.st2{fill:none;stroke:#D5DCE0;stroke-width:0.5;stroke-miterlimit:10;}
	.st3{fill:none;stroke:#D5DCE0;stroke-width:0.4;}
	.st4{fill:none;stroke:#D5DCE0;stroke-width:0.3;}
	.st5{fill:none;stroke:#D5DCE0;stroke-width:0.5;}
	.st6{fill:none;stroke:#D5DCE0;stroke-width:0.3425;}
	.st7{fill:#DFEDF1;stroke:#CEDFE5;stroke-width:0.5;}
	.st8{fill:#6E8496;}
	.st9{fill:none;}
	.st10{fill:none;stroke:#076FA0;stroke-miterlimit:10;}
</style>
<g id="GETAWAY_DECK_17_BOTTOM">
	<path class="st0" d="M0.5,899h7.4v16.5h11.6v10.1h10.1v40.6h93.7v-51h28.2V744.3h-38h-11.9V767c0,0-0.3,3-2.7,3.6H54.4
		c0,0-3-0.3-3-3.3v-23h-51L0.5,899L0.5,899z"/>
	<path class="st0" d="M116.4,424.7H98.9h-18H46.5h-10V342v82.7v-83.1H10.8v-323c0,0,0.3-5.7,6.7-8c0,0,28-10.8,59-10
		c28.3-0.7,59,10,59,10c6.3,2.3,6.7,8,6.7,8v323h-25.7L116.4,424.7V342V424.7z"/>
	<path class="st1" d="M29.5,949c-1.6-0.8-3.7-1-5.6-1c-7.6,0-15.4,6.5-15.5,16.3c-0.1,10,8.2,16.8,15.7,16.8c6.8,0,10-1.3,14.3-6.3
		h76.1c7.2,8.5,18.3,7.2,23,3.4c3.6-2.9,6.5-6.9,7-12.4c0.4-5.1-1.6-10.9-5.3-13.5v-36.9h-15.9"/>
	<path class="st0" d="M0.5,898.8h7.4v16.5h11.6v10.1h10.1V966h93.7v-51h28.2V744.3h-38h-11.9v22.4c0,0-0.3,3-2.7,3.6H54.4
		c0,0-3-0.3-3-3.3v-22.7h-51L0.5,898.8L0.5,898.8z"/>
	<rect x="57.9" y="682" class="st0" width="36.4" height="73.4"/>
	<path class="st0" d="M116.4,424.7v-83.1h25.7v-323c0,0-0.3-5.7-6.7-8c0,0-30.7-10.7-59-10c-30.9-0.8-59,10-59,10
		c-6.3,2.3-6.7,8-6.7,8v323h25.7v83.1H116.4z"/>
	<polyline class="st2" points="70.5,1 70.5,17.4 82.4,17.4 82.4,0.6 	"/>
	<path class="st2" d="M37.9,115.2h63.6V47.8c0,0-7.5-4.5-25.3-5.2c0,0-19.7,1.3-25.1,5.6v67"/>
	<polyline class="st2" points="38,118 82.3,118 82.3,115.2 	"/>
	<path class="st2" d="M63.8,139v10.8h-5c0,0-2.6,0.3-2.7,2.6v5H54c0,0-1.7,0.3-1.9,2.6v54.5c0,0-0.1,3.1,2.4,2.9h44.1
		c0,0,2.6,0,2.4-2.3v-54.9c0,0,0-2.4-2.4-2.4h-1.9V152c0,0-0.1-2.1-2.2-2.2H89v-10.2c0,0-0.3-2.1-2.3-2.1H66.5
		C66.5,137.3,63.8,136.8,63.8,139z"/>
	<rect x="37.8" y="225.8" class="st2" width="61.6" height="10.4"/>
	<polyline class="st2" points="50.9,341.6 50.9,279.9 101.5,279.9 101.4,322.8 104.7,322.8 104.7,342 	"/>
	<line class="st2" x1="36.4" y1="341.5" x2="116.5" y2="341.5"/>
	<line class="st3" x1="19.5" y1="348.5" x2="12.9" y2="348.5"/>
	<line class="st3" x1="19.5" y1="347.4" x2="12.9" y2="347.4"/>
	<line class="st3" x1="19.4" y1="346.3" x2="12.9" y2="346.3"/>
	<line class="st3" x1="19.4" y1="345.2" x2="12.9" y2="345.2"/>
	<line class="st3" x1="19.4" y1="344.2" x2="12.9" y2="344.2"/>
	<line class="st3" x1="19.4" y1="343.1" x2="12.9" y2="343.1"/>
	<line class="st3" x1="19.3" y1="359" x2="19.3" y2="342.1"/>
	<line class="st3" x1="19.3" y1="359" x2="19.3" y2="342.1"/>
	<line class="st3" x1="12.9" y1="349.6" x2="19.4" y2="349.6"/>
	<line class="st3" x1="12.9" y1="350.6" x2="19.4" y2="350.6"/>
	<line class="st3" x1="13" y1="351.6" x2="19.5" y2="351.6"/>
	<polyline class="st3" points="19.5,342.2 13,342.2 13,358.9 19.4,358.9 	"/>
	<line class="st3" x1="19.5" y1="358.1" x2="12.9" y2="358.1"/>
	<line class="st3" x1="19.5" y1="357" x2="12.9" y2="357"/>
	<line class="st3" x1="19.4" y1="356" x2="12.9" y2="356"/>
	<line class="st3" x1="19.4" y1="354.8" x2="12.9" y2="354.8"/>
	<line class="st3" x1="19.4" y1="353.8" x2="12.9" y2="353.8"/>
	<line class="st3" x1="19.4" y1="352.7" x2="12.9" y2="352.7"/>
	<line class="st3" x1="110.6" y1="348.3" x2="110.6" y2="341.7"/>
	<line class="st3" x1="111.6" y1="348.3" x2="111.6" y2="341.7"/>
	<line class="st3" x1="112.6" y1="348.2" x2="112.6" y2="341.7"/>
	<line class="st3" x1="113.6" y1="348.2" x2="113.6" y2="341.7"/>
	<line class="st3" x1="114.6" y1="348.2" x2="114.6" y2="341.7"/>
	<line class="st3" x1="115.6" y1="348.2" x2="115.6" y2="341.7"/>
	<line class="st3" x1="101.1" y1="348.1" x2="116.5" y2="348.1"/>
	<line class="st3" x1="101.1" y1="348.1" x2="116.5" y2="348.1"/>
	<line class="st3" x1="109.7" y1="341.7" x2="109.7" y2="348.2"/>
	<line class="st3" x1="108.7" y1="341.7" x2="108.7" y2="348.2"/>
	<line class="st3" x1="107.8" y1="341.8" x2="107.8" y2="348.3"/>
	<polyline class="st3" points="116.4,348.3 116.4,341.8 101.2,341.8 101.2,348.2 	"/>
	<line class="st3" x1="101.9" y1="348.3" x2="101.9" y2="341.7"/>
	<line class="st3" x1="102.9" y1="348.3" x2="102.9" y2="341.7"/>
	<line class="st3" x1="103.9" y1="348.2" x2="103.9" y2="341.7"/>
	<line class="st3" x1="104.9" y1="348.2" x2="104.9" y2="341.7"/>
	<line class="st3" x1="105.9" y1="348.2" x2="105.9" y2="341.7"/>
	<line class="st3" x1="106.8" y1="348.2" x2="106.8" y2="341.7"/>
	<line class="st4" x1="133.3" y1="347" x2="133.3" y2="342.3"/>
	<line class="st4" x1="133.8" y1="347" x2="133.8" y2="342.3"/>
	<line class="st4" x1="134.4" y1="346.9" x2="134.4" y2="342.3"/>
	<line class="st4" x1="134.9" y1="346.9" x2="134.9" y2="342.3"/>
	<line class="st4" x1="135.4" y1="346.9" x2="135.4" y2="342.3"/>
	<line class="st4" x1="136" y1="346.9" x2="136" y2="342.3"/>
	<line class="st4" x1="128" y1="346.8" x2="136.5" y2="346.8"/>
	<line class="st4" x1="128" y1="346.8" x2="136.5" y2="346.8"/>
	<line class="st4" x1="132.8" y1="342.3" x2="132.8" y2="346.9"/>
	<line class="st4" x1="132.2" y1="342.3" x2="132.2" y2="346.9"/>
	<line class="st4" x1="131.7" y1="342.3" x2="131.7" y2="346.9"/>
	<polyline class="st4" points="136.4,346.9 136.4,342.3 128.1,342.3 128.1,346.9 	"/>
	<line class="st4" x1="128.5" y1="347" x2="128.5" y2="342.3"/>
	<line class="st4" x1="129" y1="347" x2="129" y2="342.3"/>
	<line class="st4" x1="129.6" y1="346.9" x2="129.6" y2="342.3"/>
	<line class="st4" x1="130.1" y1="346.9" x2="130.1" y2="342.3"/>
	<line class="st4" x1="130.6" y1="346.9" x2="130.6" y2="342.3"/>
	<line class="st4" x1="131.2" y1="346.9" x2="131.2" y2="342.3"/>
	<line class="st4" x1="133.3" y1="351.5" x2="133.3" y2="346.8"/>
	<line class="st4" x1="133.8" y1="351.5" x2="133.8" y2="346.8"/>
	<line class="st4" x1="134.4" y1="351.4" x2="134.4" y2="346.8"/>
	<line class="st4" x1="134.9" y1="351.4" x2="134.9" y2="346.8"/>
	<line class="st4" x1="135.4" y1="351.4" x2="135.4" y2="346.8"/>
	<line class="st4" x1="136" y1="351.4" x2="136" y2="346.8"/>
	<line class="st4" x1="128" y1="351.3" x2="136.5" y2="351.3"/>
	<line class="st4" x1="128" y1="351.3" x2="136.5" y2="351.3"/>
	<line class="st4" x1="132.8" y1="346.8" x2="132.8" y2="351.4"/>
	<line class="st4" x1="132.2" y1="346.8" x2="132.2" y2="351.4"/>
	<line class="st4" x1="131.7" y1="346.8" x2="131.7" y2="351.4"/>
	<polyline class="st4" points="128.1,351.4 128.1,346.8 136.4,346.8 136.4,351.4 	"/>
	<line class="st4" x1="128.5" y1="351.5" x2="128.5" y2="346.8"/>
	<line class="st4" x1="129" y1="351.5" x2="129" y2="346.8"/>
	<line class="st4" x1="129.6" y1="351.4" x2="129.6" y2="346.8"/>
	<line class="st4" x1="130.1" y1="351.4" x2="130.1" y2="346.8"/>
	<line class="st4" x1="130.6" y1="351.4" x2="130.6" y2="346.8"/>
	<line class="st4" x1="131.2" y1="351.4" x2="131.2" y2="346.8"/>
	<polyline class="st5" points="116.5,356.8 128.5,356.8 128.5,351.8 136.1,351.8 140.7,351.8 140.7,341.4 	"/>
	<path class="st5" d="M36.4,966.4c-0.8,5.5-5.6,9.7-11.3,9.7c-6.3,0-11.4-5.1-11.4-11.4s5.1-11.4,11.4-11.4c1.6,0,3.1,0.3,4.4,0.9"
		/>
	<path class="st5" d="M123.4,954.1c1.4-0.6,2.9-0.9,4.4-0.9c6.3,0,11.4,5.1,11.4,11.4s-5.1,11.4-11.4,11.4c-5.8,0-10.5-4.3-11.3-9.8
		"/>
	<polyline class="st5" points="106.6,899.4 106.6,878.3 101.6,862.7 84.9,862.7 84.9,819.7 77.5,819.7 77.5,816.1 51.1,816.6 
		51.1,862.9 46.4,877.4 46.4,899 	"/>
	<line class="st5" x1="7.9" y1="899" x2="46.4" y2="899"/>
	<line class="st5" x1="106.6" y1="899.4" x2="151.4" y2="899.4"/>
	<rect x="57.9" y="682" class="st5" width="36.4" height="73.4"/>
	<polyline class="st5" points="84.9,819.7 84.9,816.8 101.9,816.8 101.9,862.7 	"/>
	<line class="st5" x1="106.8" y1="852.2" x2="102.2" y2="852.2"/>
	<line class="st5" x1="106.8" y1="851.1" x2="102.2" y2="851.1"/>
	<line class="st5" x1="106.8" y1="850" x2="102.2" y2="850"/>
	<line class="st5" x1="106.8" y1="848.9" x2="102.2" y2="848.9"/>
	<line class="st5" x1="106.8" y1="847.9" x2="102.2" y2="847.9"/>
	<line class="st5" x1="106.8" y1="846.8" x2="102.2" y2="846.8"/>
	<line class="st5" x1="106.7" y1="862.7" x2="106.7" y2="845.8"/>
	<line class="st5" x1="106.7" y1="862.7" x2="106.7" y2="845.8"/>
	<line class="st5" x1="102.2" y1="853.3" x2="106.8" y2="853.3"/>
	<line class="st5" x1="102.2" y1="854.3" x2="106.8" y2="854.3"/>
	<line class="st5" x1="102.2" y1="855.3" x2="106.8" y2="855.3"/>
	<polyline class="st5" points="106.8,845.9 102.2,845.9 102.2,862.6 106.8,862.6 	"/>
	<line class="st5" x1="106.8" y1="861.8" x2="102.2" y2="861.8"/>
	<line class="st5" x1="106.8" y1="860.7" x2="102.2" y2="860.7"/>
	<line class="st5" x1="106.8" y1="859.7" x2="102.2" y2="859.7"/>
	<line class="st5" x1="106.8" y1="858.5" x2="102.2" y2="858.5"/>
	<line class="st5" x1="106.8" y1="857.5" x2="102.2" y2="857.5"/>
	<line class="st5" x1="106.8" y1="856.4" x2="102.2" y2="856.4"/>
	<line class="st5" x1="65.3" y1="811.2" x2="65.3" y2="815.8"/>
	<line class="st5" x1="64.2" y1="811.2" x2="64.2" y2="815.8"/>
	<line class="st5" x1="63.1" y1="811.2" x2="63.1" y2="815.8"/>
	<line class="st5" x1="62" y1="811.2" x2="62" y2="815.8"/>
	<line class="st5" x1="61" y1="811.2" x2="61" y2="815.8"/>
	<line class="st5" x1="59.9" y1="811.2" x2="59.9" y2="815.8"/>
	<line class="st5" x1="75.8" y1="811.3" x2="58.9" y2="811.3"/>
	<line class="st5" x1="75.8" y1="811.3" x2="58.9" y2="811.3"/>
	<line class="st5" x1="66.4" y1="815.8" x2="66.4" y2="811.2"/>
	<line class="st5" x1="67.4" y1="815.8" x2="67.4" y2="811.2"/>
	<line class="st5" x1="68.4" y1="815.8" x2="68.4" y2="811.2"/>
	<polyline class="st5" points="59,811.2 59,815.8 75.7,815.8 75.7,811.2 	"/>
	<line class="st5" x1="74.9" y1="811.2" x2="74.9" y2="815.8"/>
	<line class="st5" x1="73.8" y1="811.2" x2="73.8" y2="815.8"/>
	<line class="st5" x1="72.7" y1="811.2" x2="72.7" y2="815.8"/>
	<line class="st5" x1="71.6" y1="811.2" x2="71.6" y2="815.8"/>
	<line class="st5" x1="70.6" y1="811.2" x2="70.6" y2="815.8"/>
	<line class="st5" x1="69.5" y1="811.2" x2="69.5" y2="815.8"/>
	<line class="st5" x1="16.5" y1="741.3" x2="21.1" y2="741.3"/>
	<line class="st5" x1="16.5" y1="742.3" x2="21.1" y2="742.3"/>
	<line class="st5" x1="16.5" y1="743.3" x2="21.1" y2="743.3"/>
	<line class="st5" x1="16.6" y1="726" x2="16.6" y2="744.3"/>
	<line class="st5" x1="16.6" y1="726" x2="16.6" y2="744.3"/>
	<polyline class="st5" points="16.5,744.1 21.1,744.1 21.1,726.2 	"/>
	<line class="st5" x1="85.1" y1="815.5" x2="102.2" y2="815.5"/>
	<line class="st5" x1="85.1" y1="815.5" x2="102.2" y2="815.5"/>
	<line class="st5" x1="99.3" y1="815.6" x2="99.3" y2="808.9"/>
	<line class="st5" x1="100.3" y1="815.6" x2="100.3" y2="808.9"/>
	<line class="st5" x1="101.3" y1="815.6" x2="101.3" y2="808.9"/>
	<line class="st5" x1="97.4" y1="815.6" x2="97.4" y2="808.9"/>
	<line class="st5" x1="98.3" y1="815.6" x2="98.3" y2="808.9"/>
	<polyline class="st5" points="102,815.6 102,809 85.3,809 	"/>
	<polyline class="st5" points="74.6,661.4 116,661.4 116.3,714 113.4,714 113.4,744.3 	"/>
	<rect x="57.9" y="661.7" class="st5" width="10.1" height="16.5"/>
	<line class="st5" x1="58.4" y1="678.1" x2="58.4" y2="682"/>
	<polyline class="st5" points="74.7,661.1 74.7,671.4 70.2,674.1 67.9,674.1 	"/>
	<polyline class="st5" points="67.7,677.7 71.2,677.7 84.9,671.9 	"/>
	<line class="st5" x1="84.9" y1="661.3" x2="84.9" y2="682"/>
	<line class="st6" x1="50.7" y1="290.5" x2="45.7" y2="290.5"/>
	<line class="st6" x1="50.7" y1="289.4" x2="45.7" y2="289.4"/>
	<line class="st6" x1="50.7" y1="288.4" x2="45.7" y2="288.4"/>
	<line class="st6" x1="50.7" y1="287.3" x2="45.7" y2="287.3"/>
	<line class="st6" x1="50.7" y1="286.3" x2="45.7" y2="286.3"/>
	<line class="st6" x1="50.7" y1="285.3" x2="45.7" y2="285.3"/>
	<line class="st6" x1="50.6" y1="300.4" x2="50.6" y2="284.3"/>
	<line class="st6" x1="50.6" y1="300.4" x2="50.6" y2="284.3"/>
	<line class="st6" x1="45.7" y1="291.4" x2="50.7" y2="291.4"/>
	<line class="st6" x1="45.7" y1="292.5" x2="50.7" y2="292.5"/>
	<line class="st6" x1="45.7" y1="293.4" x2="50.7" y2="293.4"/>
	<polyline class="st6" points="50.7,284.5 45.7,284.5 45.7,300.3 50.7,300.3 	"/>
	<line class="st6" x1="50.7" y1="299.6" x2="45.7" y2="299.6"/>
	<line class="st6" x1="50.7" y1="298.5" x2="45.7" y2="298.5"/>
	<line class="st6" x1="50.7" y1="297.5" x2="45.7" y2="297.5"/>
	<line class="st6" x1="50.7" y1="296.4" x2="45.7" y2="296.4"/>
	<line class="st6" x1="50.7" y1="295.5" x2="45.7" y2="295.5"/>
	<line class="st6" x1="50.7" y1="294.4" x2="45.7" y2="294.4"/>
	<path class="st2" d="M51,279.9v-4.7c0,0-0.7-9.8,10.6-10.2h42.9c0,0,11.4-0.3,11.6,10.8v25c0,0-0.8,8.4-10.6,8.8c-1.9,0.1-4,0-4,0
		v-29.7L51,279.9"/>
	<line class="st2" x1="46.6" y1="225.9" x2="46.6" y2="236.1"/>
	<line class="st2" x1="51.4" y1="225.9" x2="51.4" y2="236.1"/>
	<line class="st2" x1="56.3" y1="225.9" x2="56.3" y2="236.1"/>
	<line class="st2" x1="63" y1="225.9" x2="63" y2="236.1"/>
	<line class="st2" x1="67.7" y1="225.9" x2="67.7" y2="236.1"/>
	<line class="st2" x1="72.5" y1="225.9" x2="72.5" y2="236.1"/>
	<line class="st2" x1="80.9" y1="225.9" x2="80.9" y2="236.1"/>
	<line class="st2" x1="89.3" y1="225.9" x2="89.3" y2="236.1"/>
	<line class="st2" x1="94.1" y1="225.9" x2="94.1" y2="236.1"/>
	<path class="st5" d="M37.8,225.8V115.4c0,0,0.1-12.1,13-13.4"/>
	<polyline class="st5" points="141.4,147.5 104.8,147.5 104.8,225.8 99.4,225.8 	"/>
	<line class="st5" x1="101.5" y1="2" x2="101.5" y2="47.6"/>
	<polyline class="st5" points="84.9,816.8 101.8,829.3 84.9,829.3 101.9,816.8 	"/>
	<line class="st2" x1="44.6" y1="243.3" x2="43.5" y2="234.1"/>
	<path class="st5" d="M57.9,750c0,0-1.1-0.2-1.1,0.8c0,0.9,0,3.8,0,5.2c0,0,0.2,0.7,0.8,0.7c0,0,36,0,37.1-0.1c1,0,1.1-1.5,1.1-1.5
		s0-3.3,0-4.1c-0.1-1-1.2-0.8-1.2-0.8"/>
	<path class="st2" d="M47.1,243c-0.5,1.9-0.4,1.4,2.4-8.3"/>
	<path class="st2" d="M49,243.6c0.8-1,5-9.1,5-9.1"/>
	<line class="st2" x1="61.2" y1="243.3" x2="60.1" y2="234.1"/>
	<path class="st2" d="M64.3,243.3c0.3-2.7,0.6-3.7,1.4-9.7"/>
	<path class="st2" d="M66.9,243.6c0.8-1.5,3.6-9.1,3.6-9.1"/>
	<line class="st2" x1="86.2" y1="242.9" x2="85.2" y2="234.3"/>
	<line class="st2" x1="82.9" y1="243.3" x2="76.7" y2="234.1"/>
	<path class="st2" d="M89.4,242.9c1.2-3,1.1-2.8,2.9-8.5"/>
	<path class="st2" d="M92.7,243.6c0.8-1,4.6-9.9,4.6-9.9"/>
	<line class="st5" x1="116.4" y1="596.5" x2="120.5" y2="607.6"/>
	<line class="st5" x1="55.6" y1="613.5" x2="59.8" y2="624.6"/>
	<path class="st7" d="M149.7,619.4c-2.5-11-14.2-12.9-14.2-12.9c-10.2-0.7-16.4,4.9-16.4,4.9c-9.2,8.8-12.7,26.6-12.7,26.6
		c1.5,1.2,3.8,0.8,3.8,0.8c0.1-2.7,4-13.9,4-13.9c5.9-13,15.6-14.5,15.6-14.5c11.9-2.1,15.3,6.8,15.3,6.8
		c4.8,12.9-9.7,22.5-9.7,22.5c-8.8,8.2-20.2,11.2-20.2,11.2l-0.5,0.1c-2.5,2.3-24.9,2-24.9,2c-1,0-1.8,0.7-1.8,1.7
		c0,0.9,0.8,1.7,1.8,1.7c1.8,0.4,17.2-0.2,17.2-0.2c20.6-2.8,34-16.8,34-16.8C152.5,629.4,149.7,619.4,149.7,619.4z"/>
	<path class="st7" d="M57.2,628.5c0.3-0.6-2.6-2.2-3-1.8c-2,2.6-3.1,5.9-3.1,9.5c0,8.6,6.7,15.6,15.1,15.6c4.2,0,8-1.8,10.7-4.6
		c0,0-4.2,4.5-12,2.5C61.8,648.8,50.3,642.5,57.2,628.5z"/>
	<path class="st7" d="M68.4,623.4c-7.4,0-13.5,6-13.5,13.5s6,13.5,13.5,13.5s13.5-6,13.5-13.5C81.8,629.4,75.8,623.4,68.4,623.4z
		 M69.9,643.4c-4.2,0-7.6-3.3-7.6-7.3s3.4-7.3,7.6-7.3s7.6,3.3,7.6,7.3C77.4,640.1,74.1,643.4,69.9,643.4z"/>
	<path class="st7" d="M68.4,626.3c-5.8,0-10.6,4.7-10.6,10.6c0,5.8,4.7,10.6,10.6,10.6c5.8,0,10.6-4.7,10.6-10.6
		C78.9,631,74.2,626.3,68.4,626.3z M69.7,643.2c-4.2,0-7.5-3.2-7.5-7.2s3.4-7.2,7.5-7.2c4.2,0,7.5,3.2,7.5,7.2
		S73.8,643.2,69.7,643.2z"/>
	<path class="st7" d="M77.2,662.7c0,0,3,1.5,5-0.1v-12.9c0,0,0.7-2.7,2.8-3.7l11.5-4.6c0,0,8.9-4,7.2-11.7L103,627l-3.9,1.6
		l-0.4,0.2c0,0,2.2,5.6-4.8,8.3l-11.3,4.5c0,0-5.6,2.6-5.3,9.1L77.2,662.7z"/>
	<path class="st7" d="M84.6,668h8.6c0,0,20.5-2.3,29.7-9.2c0,0,17.3-10,15.4-23.5c0,0,0.2-2.5,3.3-1.3s-1.4,13.8-5.4,18
		c0,0-8.3,9-18.9,13.7c0,0-14.1,6.1-29.4,5.7h-3.6c0,0-2.5,0.2-2.2-1.9C82.2,669.5,82,667.7,84.6,668z"/>
	<path class="st7" d="M106.7,638.2v27.5l3.4-0.8l0.1-26C110.2,638.8,108.8,639.3,106.7,638.2z"/>
	<path class="st0" d="M99.3,629.2c0,0,2.8,4.3-3.7,8.7c0,0-3.3,1.9-3.2,2.4c0,0,0.1,0.7,3.3-0.4c0,0,8.8-2.7,7.3-10.4l-0.5-1.9
		l-3.3,1.3L99.3,629.2z"/>
	<path class="st8" d="M59.1,795.2v-1c0.3,0.2,0.6,0.3,0.9,0.3c0.3,0,0.5-0.1,0.5-0.5l0,0c0-0.3-0.1-0.4-0.5-1
		c-0.7-0.8-0.9-1.1-0.9-1.8l0,0c0-0.9,0.6-1.5,1.4-1.5c0.4,0,0.6,0.1,0.9,0.2v1c-0.3-0.2-0.5-0.3-0.7-0.3c-0.3,0-0.5,0.2-0.5,0.5
		l0,0c0,0.3,0.1,0.4,0.5,0.9c0.8,0.9,0.9,1.2,0.9,1.9l0,0c0,0.9-0.6,1.5-1.4,1.5C59.7,795.5,59.4,795.4,59.1,795.2z M61.8,789.8h0.9
		c1.1,0,1.8,0.6,1.8,1.9l0,0c0,1.3-0.7,1.9-1.7,1.9l0,0v1.8h-1V789.8z M62.8,792.7c0.4,0,0.7-0.3,0.7-1l0,0c0-0.7-0.3-1-0.7-1l0,0
		V792.7L62.8,792.7L62.8,792.7z M64.8,792.8v-0.3c0-1.8,0.6-2.7,1.5-2.7s1.5,0.9,1.5,2.7v0.3c0,1.8-0.6,2.7-1.5,2.7
		S64.8,794.6,64.8,792.8z M66.8,792.8v-0.3c0-1.4-0.2-1.8-0.5-1.8s-0.5,0.4-0.5,1.8v0.3c0,1.4,0.2,1.8,0.5,1.8
		S66.8,794.2,66.8,792.8z M68.3,789.8h1c1,0,1.7,0.5,1.7,1.8v0.1c0,0.7-0.3,1.2-0.7,1.5l0.8,2.3h-1l-0.6-2h-0.2v2h-1L68.3,789.8
		L68.3,789.8z M69.3,792.6c0.4,0,0.7-0.2,0.7-0.9v-0.1c0-0.7-0.3-0.9-0.8-0.9l0,0L69.3,792.6L69.3,792.6z M71.9,790.7h-0.7v-0.9h2.4
		v0.9h-0.7v4.7h-1L71.9,790.7L71.9,790.7z M73.8,795.2v-1c0.3,0.2,0.6,0.3,0.9,0.3s0.5-0.1,0.5-0.5l0,0c0-0.3-0.1-0.4-0.5-1
		c-0.7-0.8-0.9-1.1-0.9-1.8l0,0c0-0.9,0.6-1.5,1.4-1.5c0.4,0,0.6,0.1,0.9,0.2v1c-0.3-0.2-0.5-0.3-0.7-0.3c-0.3,0-0.5,0.2-0.5,0.5
		l0,0c0,0.3,0.1,0.4,0.5,0.9c0.8,0.9,0.9,1.2,0.9,1.9l0,0c0,0.9-0.6,1.5-1.4,1.5C74.5,795.5,74.1,795.4,73.8,795.2z M77.7,792.7
		v-0.2c0-2,0.7-2.7,1.6-2.7c0.3,0,0.4,0,0.6,0.1v1c-0.2-0.1-0.4-0.2-0.5-0.2c-0.4,0-0.7,0.4-0.7,1.8v0.2c0,1.5,0.3,1.8,0.8,1.8
		c0.2,0,0.3-0.1,0.5-0.2v1c-0.2,0.1-0.4,0.2-0.7,0.2C78.4,795.5,77.7,794.7,77.7,792.7z M80.2,792.8v-0.3c0-1.8,0.6-2.7,1.5-2.7
		s1.5,0.9,1.5,2.7v0.3c0,1.8-0.6,2.7-1.5,2.7C80.8,795.5,80.2,794.6,80.2,792.8z M82.2,792.8v-0.3c0-1.4-0.2-1.8-0.5-1.8
		s-0.5,0.4-0.5,1.8v0.3c0,1.4,0.2,1.8,0.5,1.8S82.2,794.2,82.2,792.8z M83.7,789.8h1l0.7,2l0.7-2h1v5.6h-0.9V792l-0.7,2.1l0,0
		l-0.7-2.1v3.4h-0.9L83.7,789.8L83.7,789.8z M87.6,789.8h0.9c1.1,0,1.8,0.6,1.8,1.9l0,0c0,1.3-0.7,1.9-1.7,1.9l0,0v1.8h-1
		C87.6,795.4,87.6,789.8,87.6,789.8z M88.6,792.7c0.4,0,0.7-0.3,0.7-1l0,0c0-0.7-0.3-1-0.7-1l0,0V792.7L88.6,792.7L88.6,792.7z
		 M90.7,789.8h1v4.7h1v0.9h-2V789.8z M93.1,789.8h2.1v0.9H94v1.4h1v0.9h-1v1.4h1.2v0.9H93L93.1,789.8L93.1,789.8z M96.4,792.6
		l-0.9-2.7h1l0.4,1.6l0.4-1.6h1l-0.9,2.7l0.9,2.9h-1l-0.5-1.7l-0.5,1.7h-1L96.4,792.6z"/>
	<path class="st8" d="M118,171.4h1l0.5,3.6l0.5-3.6h1l-1,5.6h-1L118,171.4z M121.3,171.4h1v5.6h-1V171.4z M122.9,171.4h0.8
		c0.9,0,1.8,0.4,1.8,1.4l0,0c0,0.7-0.4,1.1-0.8,1.3c0.5,0.2,0.9,0.5,0.9,1.2v0.1c0,1-0.8,1.6-1.9,1.6h-0.9L122.9,171.4L122.9,171.4z
		 M123.9,173.8c0.4,0,0.7-0.2,0.7-0.7l0,0c0-0.5-0.3-0.7-0.7-0.7l0,0V173.8L123.9,173.8z M123.9,176.1c0.4,0,0.8-0.3,0.8-0.7l0,0
		c0-0.5-0.3-0.7-0.8-0.7l0,0V176.1L123.9,176.1L123.9,176.1z M126,171.4h2.1v0.9H127v1.4h1v0.9h-1v1.4h1.2v0.9H126V171.4z
		 M116,179.4h0.8c0.9,0,1.8,0.4,1.8,1.4l0,0c0,0.7-0.4,1.1-0.8,1.3c0.5,0.2,0.9,0.5,0.9,1.2v0.1c0,1-0.8,1.6-1.9,1.6H116V179.4z
		 M117,181.8c0.4,0,0.7-0.2,0.7-0.7l0,0c0-0.5-0.3-0.7-0.7-0.7l0,0V181.8L117,181.8z M117,184.1c0.4,0,0.8-0.3,0.8-0.7l0,0
		c0-0.5-0.3-0.7-0.8-0.7l0,0V184.1L117,184.1L117,184.1z M119.1,179.4h2.1v0.9H120v1.4h1v0.9h-1v1.4h1.2v0.9H119L119.1,179.4
		L119.1,179.4z M122.6,179.4h1l1.1,5.6h-1l-0.2-1.1h-0.9l-0.2,1.1h-0.9L122.6,179.4z M123.4,183l-0.3-1.8l-0.3,1.8H123.4z
		 M124.8,182.3v-0.2c0-2,0.7-2.7,1.6-2.7c0.3,0,0.4,0,0.6,0.1v1c-0.2-0.1-0.4-0.2-0.5-0.2c-0.4,0-0.7,0.4-0.7,1.8v0.2
		c0,1.5,0.3,1.8,0.8,1.8c0.2,0,0.3-0.1,0.5-0.2v1c-0.2,0.1-0.4,0.2-0.7,0.2C125.5,185.1,124.8,184.3,124.8,182.3z M127.6,179.4h1
		v2.3h0.8v-2.3h1v5.6h-1v-2.4h-0.8v2.4h-1C127.6,185,127.6,179.4,127.6,179.4z M117.6,190.3v-0.2c0-2,0.7-2.7,1.6-2.7
		c0.3,0,0.4,0,0.6,0.1v1c-0.2-0.1-0.4-0.2-0.5-0.2c-0.4,0-0.7,0.4-0.7,1.8v0.2c0,1.5,0.3,1.8,0.8,1.8c0.2,0,0.3-0.1,0.5-0.2v1
		c-0.2,0.1-0.4,0.2-0.7,0.2C118.3,193.1,117.6,192.3,117.6,190.3z M120.4,187.4h1v4.7h1v0.9h-2V187.4z M122.7,191.4v-4h1v4.1
		c0,0.5,0.2,0.7,0.4,0.7s0.4-0.2,0.4-0.7v-4.1h1v4c0,1.2-0.6,1.7-1.4,1.7S122.7,192.6,122.7,191.4z M126.1,187.4h0.8
		c0.9,0,1.8,0.4,1.8,1.4l0,0c0,0.7-0.4,1.1-0.8,1.3c0.5,0.2,0.9,0.5,0.9,1.2v0.1c0,1-0.8,1.6-1.9,1.6H126
		C126.1,193,126.1,187.4,126.1,187.4z M127.1,189.8c0.4,0,0.7-0.2,0.7-0.7l0,0c0-0.5-0.3-0.7-0.7-0.7l0,0V189.8L127.1,189.8z
		 M127.1,192.1c0.4,0,0.8-0.3,0.8-0.7l0,0c0-0.5-0.3-0.7-0.8-0.7l0,0V192.1L127.1,192.1L127.1,192.1z"/>
	<path class="st8" d="M19.6,171.4h1l0.5,3.6l0.5-3.6h1l-1,5.6h-1L19.6,171.4z M22.9,171.4h1v5.6h-1V171.4z M24.5,171.4h0.8
		c0.9,0,1.8,0.4,1.8,1.4l0,0c0,0.7-0.4,1.1-0.8,1.3c0.5,0.2,0.9,0.5,0.9,1.2v0.1c0,1-0.8,1.6-1.9,1.6h-0.9
		C24.5,177,24.5,171.4,24.5,171.4z M25.4,173.8c0.4,0,0.7-0.2,0.7-0.7l0,0c0-0.5-0.3-0.7-0.7-0.7l0,0V173.8L25.4,173.8z M25.5,176.1
		c0.4,0,0.8-0.3,0.8-0.7l0,0c0-0.5-0.3-0.7-0.8-0.7l0,0V176.1L25.5,176.1L25.5,176.1z M27.6,171.4h2.1v0.9h-1.2v1.4h1v0.9h-1v1.4
		h1.2v0.9h-2.2v-5.5L27.6,171.4L27.6,171.4z M17.6,179.4h0.8c0.9,0,1.8,0.4,1.8,1.4l0,0c0,0.7-0.4,1.1-0.8,1.3
		c0.5,0.2,0.9,0.5,0.9,1.2v0.1c0,1-0.8,1.6-1.9,1.6h-0.9C17.6,185,17.6,179.4,17.6,179.4z M18.6,181.8c0.4,0,0.7-0.2,0.7-0.7l0,0
		c0-0.5-0.3-0.7-0.7-0.7l0,0V181.8L18.6,181.8z M18.6,184.1c0.4,0,0.8-0.3,0.8-0.7l0,0c0-0.5-0.3-0.7-0.8-0.7l0,0V184.1L18.6,184.1
		L18.6,184.1z M20.7,179.4h2.1v0.9h-1.2v1.4h1v0.9h-1v1.4h1.2v0.9h-2.2v-5.5L20.7,179.4L20.7,179.4z M24.1,179.4h1l1.1,5.6h-1
		l-0.2-1.1h-0.9L24,185h-0.9L24.1,179.4z M24.9,183l-0.3-1.8l-0.3,1.8H24.9z M26.4,182.3v-0.2c0-2,0.7-2.7,1.6-2.7
		c0.3,0,0.4,0,0.6,0.1v1c-0.2-0.1-0.4-0.2-0.5-0.2c-0.4,0-0.7,0.4-0.7,1.8v0.2c0,1.5,0.3,1.8,0.8,1.8c0.2,0,0.3-0.1,0.5-0.2v1
		c-0.2,0.1-0.4,0.2-0.7,0.2C27,185.1,26.4,184.3,26.4,182.3z M29.1,179.4h1v2.3H31v-2.3h1v5.6h-1v-2.4h-0.8v2.4h-1v-5.6H29.1z
		 M19.2,190.3v-0.2c0-2,0.7-2.7,1.6-2.7c0.3,0,0.4,0,0.6,0.1v1c-0.2-0.1-0.4-0.2-0.5-0.2c-0.4,0-0.7,0.4-0.7,1.8v0.2
		c0,1.5,0.3,1.8,0.8,1.8c0.2,0,0.3-0.1,0.5-0.2v1c-0.2,0.1-0.4,0.2-0.7,0.2C19.9,193.1,19.2,192.3,19.2,190.3z M22,187.4h1v4.7h1
		v0.9h-2V187.4z M24.3,191.4v-4h1v4.1c0,0.5,0.2,0.7,0.4,0.7s0.4-0.2,0.4-0.7v-4.1h1v4c0,1.2-0.6,1.7-1.4,1.7S24.3,192.6,24.3,191.4
		z M27.6,187.4h0.8c0.9,0,1.8,0.4,1.8,1.4l0,0c0,0.7-0.4,1.1-0.8,1.3c0.5,0.2,0.9,0.5,0.9,1.2v0.1c0,1-0.8,1.6-1.9,1.6h-0.9
		C27.6,193,27.6,187.4,27.6,187.4z M28.6,189.8c0.4,0,0.7-0.2,0.7-0.7l0,0c0-0.5-0.3-0.7-0.7-0.7l0,0V189.8L28.6,189.8z M28.6,192.1
		c0.4,0,0.8-0.3,0.8-0.7l0,0c0-0.5-0.3-0.7-0.8-0.7l0,0V192.1L28.6,192.1L28.6,192.1z"/>
	<path class="st8" d="M59.5,270.4h0.8c0.9,0,1.8,0.4,1.8,1.4l0,0c0,0.7-0.4,1.1-0.8,1.3c0.5,0.2,0.9,0.5,0.9,1.2v0.1
		c0,1-0.8,1.6-1.9,1.6h-0.9v-5.6H59.5z M60.5,272.8c0.4,0,0.7-0.2,0.7-0.7l0,0c0-0.5-0.3-0.7-0.7-0.7l0,0V272.8L60.5,272.8z
		 M60.5,275.1c0.4,0,0.8-0.3,0.8-0.7l0,0c0-0.5-0.3-0.7-0.8-0.7l0,0V275.1L60.5,275.1L60.5,275.1z M63.4,270.4h1l1.1,5.6h-1
		l-0.2-1.1h-0.9l-0.2,1.1h-0.9L63.4,270.4z M64.2,274l-0.3-1.8l-0.3,1.8H64.2z M65.8,270.4h1c1,0,1.7,0.5,1.7,1.8v0.1
		c0,0.7-0.3,1.2-0.7,1.5l0.8,2.3h-1l-0.6-2h-0.2v2h-1C65.8,276,65.8,270.4,65.8,270.4z M66.8,273.2c0.4,0,0.7-0.2,0.7-0.9v-0.1
		c0-0.7-0.3-0.9-0.8-0.9l0,0L66.8,273.2L66.8,273.2z"/>
	<path class="st8" d="M83.6,270.6h0.8c0.9,0,1.8,0.4,1.8,1.4l0,0c0,0.7-0.4,1.1-0.8,1.3c0.5,0.2,0.9,0.5,0.9,1.2v0.1
		c0,1-0.8,1.6-1.9,1.6h-0.9L83.6,270.6L83.6,270.6z M84.6,273c0.4,0,0.7-0.2,0.7-0.7l0,0c0-0.5-0.3-0.7-0.7-0.7l0,0V273L84.6,273z
		 M84.6,275.3c0.4,0,0.8-0.3,0.8-0.7l0,0c0-0.5-0.3-0.7-0.8-0.7l0,0V275.3L84.6,275.3L84.6,275.3z M87.5,270.6h1l1.1,5.6h-1
		l-0.2-1.1h-0.9l-0.2,1.1h-0.9L87.5,270.6z M88.3,274.2l-0.3-1.8l-0.3,1.8H88.3z M89.9,270.6h1c1,0,1.7,0.5,1.7,1.8v0.1
		c0,0.7-0.3,1.2-0.7,1.5l0.8,2.3h-1l-0.6-2h-0.2v2h-1L89.9,270.6L89.9,270.6z M90.9,273.4c0.4,0,0.7-0.2,0.7-0.9v-0.1
		c0-0.7-0.3-0.9-0.8-0.9l0,0L90.9,273.4L90.9,273.4z"/>
	<path class="st8" d="M43.3,245.6h1c1,0,1.7,0.5,1.7,1.8v0.1c0,0.7-0.3,1.2-0.7,1.5l0.8,2.3h-1l-0.6-2h-0.2v2h-1V245.6z M44.3,248.4
		c0.4,0,0.7-0.2,0.7-0.9v-0.1c0-0.7-0.3-0.9-0.8-0.9l0,0L44.3,248.4L44.3,248.4z M46.5,245.6h1c1,0,1.7,0.5,1.7,1.8v0.1
		c0,0.7-0.3,1.2-0.7,1.5l0.8,2.3h-1l-0.6-2h-0.2v2h-1V245.6z M47.5,248.4c0.4,0,0.7-0.2,0.7-0.9v-0.1c0-0.7-0.3-0.9-0.8-0.9l0,0
		L47.5,248.4L47.5,248.4z"/>
	<path class="st8" d="M84.1,245.6h1c1,0,1.7,0.5,1.7,1.8v0.1c0,0.7-0.3,1.2-0.7,1.5l0.8,2.3h-1l-0.6-2h-0.2v2h-1
		C84.1,251.2,84.1,245.6,84.1,245.6z M85.1,248.4c0.4,0,0.7-0.2,0.7-0.9v-0.1c0-0.7-0.3-0.9-0.8-0.9l0,0L85.1,248.4L85.1,248.4z
		 M87.3,245.6h1c1,0,1.7,0.5,1.7,1.8v0.1c0,0.7-0.3,1.2-0.7,1.5l0.8,2.3h-1l-0.6-2h-0.2v2h-1C87.3,251.3,87.3,245.6,87.3,245.6z
		 M88.3,248.4c0.4,0,0.7-0.2,0.7-0.9v-0.1c0-0.7-0.3-0.9-0.8-0.9l0,0L88.3,248.4L88.3,248.4z"/>
	<path class="st8" d="M61.5,245.6h1c1,0,1.7,0.5,1.7,1.8v0.1c0,0.7-0.3,1.2-0.7,1.5l0.8,2.3h-1l-0.6-2h-0.2v2h-1
		C61.5,251.3,61.5,245.6,61.5,245.6z M62.5,248.4c0.4,0,0.7-0.2,0.7-0.9v-0.1c0-0.7-0.3-0.9-0.8-0.9l0,0L62.5,248.4L62.5,248.4z
		 M64.6,245.6h1c1,0,1.7,0.5,1.7,1.8v0.1c0,0.7-0.3,1.2-0.7,1.5l0.8,2.3h-1l-0.6-2h-0.2v2h-1C64.6,251.3,64.6,245.6,64.6,245.6z
		 M65.7,248.4c0.4,0,0.7-0.2,0.7-0.9v-0.1c0-0.7-0.3-0.9-0.8-0.9l0,0L65.7,248.4L65.7,248.4z"/>
	<path class="st8" d="M111.3,62.8h-0.7v-0.9h2.4v0.9h-0.7v4.7h-1L111.3,62.8L111.3,62.8z M113.3,61.9h1v2.3h0.8v-2.3h1v5.6h-1v-2.4
		h-0.8v2.4h-1V61.9z M116.7,61.9h2.1v0.9h-1.2v1.4h1v0.9h-1v1.4h1.2v0.9h-2.2L116.7,61.9L116.7,61.9z M120.6,61.9h1v2.3h0.8v-2.3h1
		v5.6h-1v-2.4h-0.8v2.4h-1V61.9z M124.8,61.8h1l1.1,5.6h-1l-0.2-1.1h-0.9l-0.2,1.1h-0.9L124.8,61.8z M125.6,65.5l-0.3-1.8l-0.3,1.8
		H125.6z M126.8,61.9h1l0.5,3.6l0.5-3.6h1l-1,5.6h-1L126.8,61.9z M130.1,61.9h2.1v0.9H131v1.4h1v0.9h-1v1.4h1.2v0.9H130L130.1,61.9
		L130.1,61.9z M132.8,61.9h0.9l1,2.8v-2.8h1v5.6h-0.9l-1-3v3h-1V61.9L132.8,61.9z M114,69.9h0.9c1.1,0,1.8,0.6,1.8,1.9l0,0
		c0,1.3-0.7,1.9-1.7,1.9l0,0v1.8h-1C114,75.5,114,69.9,114,69.9z M115,72.8c0.4,0,0.7-0.3,0.7-1l0,0c0-0.7-0.3-1-0.7-1l0,0V72.8
		L115,72.8L115,72.8z M117.1,69.9h1c1,0,1.7,0.5,1.7,1.8v0.1c0,0.7-0.3,1.2-0.7,1.5l0.8,2.3h-1l-0.6-2h-0.2v2h-1
		C117.1,75.6,117.1,69.9,117.1,69.9z M118.1,72.6c0.4,0,0.7-0.2,0.7-0.9v-0.1c0-0.7-0.3-0.9-0.8-0.9l0,0L118.1,72.6L118.1,72.6z
		 M120.3,69.9h1v5.6h-1V69.9z M121.6,69.9h1l0.5,3.6l0.5-3.6h1l-1,5.6h-1L121.6,69.9z M125.5,69.8h1l1.1,5.6h-1l-0.2-1.1h-0.9
		l-0.2,1.1h-0.9L125.5,69.8z M126.3,73.5l-0.3-1.8l-0.3,1.8H126.3z M128.2,70.8h-0.7v-0.9h2.4v0.9h-0.7v4.7h-1V70.8z M130.3,69.9
		h2.1v0.9h-1.2v1.4h1v0.9h-1v1.4h1.2v0.9h-2.2L130.3,69.9L130.3,69.9z M112.1,83.3v-1c0.3,0.2,0.6,0.3,0.9,0.3s0.5-0.1,0.5-0.5l0,0
		c0-0.3-0.1-0.4-0.5-1c-0.7-0.8-0.9-1.1-0.9-1.8l0,0c0-0.9,0.6-1.5,1.4-1.5c0.4,0,0.6,0.1,0.9,0.2v1c-0.3-0.2-0.5-0.3-0.7-0.3
		c-0.3,0-0.5,0.2-0.5,0.5l0,0c0,0.3,0.1,0.4,0.5,0.9c0.8,0.9,0.9,1.2,0.9,1.9l0,0c0,0.9-0.6,1.5-1.4,1.5
		C112.7,83.5,112.4,83.4,112.1,83.3z M114.8,81.8v-4h1v4.1c0,0.5,0.2,0.7,0.4,0.7s0.4-0.2,0.4-0.7v-4.1h1v4c0,1.2-0.6,1.7-1.4,1.7
		S114.8,83,114.8,81.8z M118.2,77.9h0.9l1,2.8v-2.8h1v5.6h-0.9l-1-3v3h-1V77.9L118.2,77.9z M122.9,77.9h0.9c1.2,0,2,0.9,2,2.7v0.2
		c0,1.8-0.7,2.7-2,2.7h-0.9V77.9z M123.9,82.6c0.5,0,0.9-0.4,0.9-1.8v-0.2c0-1.4-0.4-1.8-0.9-1.8l0,0V82.6L123.9,82.6z M126.2,77.9
		h2.1v0.9h-1.2v1.4h1v0.9h-1v1.4h1.2v0.9h-2.2C126.2,83.5,126.2,77.9,126.2,77.9z M128.7,80.8v-0.2c0-2,0.7-2.7,1.6-2.7
		c0.3,0,0.4,0,0.6,0.1v1c-0.2-0.1-0.4-0.2-0.5-0.2c-0.4,0-0.7,0.4-0.7,1.8v0.2c0,1.5,0.3,1.8,0.8,1.8c0.2,0,0.3-0.1,0.5-0.2v1
		c-0.2,0.1-0.4,0.2-0.7,0.2C129.4,83.5,128.7,82.7,128.7,80.8z M131.5,77.9h1v2.3l0.8-2.3h1.1l-0.9,2.4l1,3.2h-1.1l-0.6-2.1
		l-0.2,0.6v1.5h-1L131.5,77.9L131.5,77.9z"/>
	<path class="st8" d="M58.9,762.3v-0.2c0-2,0.7-2.7,1.6-2.7c0.3,0,0.4,0,0.6,0.1v1c-0.2-0.1-0.4-0.2-0.5-0.2c-0.4,0-0.7,0.4-0.7,1.8
		v0.2c0,1.5,0.3,1.8,0.8,1.8c0.2,0,0.3-0.1,0.5-0.2v1c-0.2,0.1-0.4,0.2-0.7,0.2C59.5,765.1,58.9,764.3,58.9,762.3z M61.7,759.4h1
		v4.7h1v0.9h-2V759.4z M64.1,759.4h1v5.6h-1V759.4z M65.6,759.4h1l0.7,2l0.7-2h1v5.6h-1v-3.4l-0.7,2.1l0,0l-0.7-2.1v3.4h-0.9
		L65.6,759.4L65.6,759.4z M69.5,759.4h0.8c0.9,0,1.8,0.4,1.8,1.4l0,0c0,0.7-0.4,1.1-0.8,1.3c0.5,0.2,0.9,0.5,0.9,1.2v0.1
		c0,1-0.8,1.6-1.9,1.6h-0.9L69.5,759.4L69.5,759.4z M70.5,761.8c0.4,0,0.7-0.2,0.7-0.7l0,0c0-0.5-0.3-0.7-0.7-0.7l0,0V761.8
		L70.5,761.8z M70.5,764.1c0.4,0,0.8-0.3,0.8-0.7l0,0c0-0.5-0.3-0.7-0.8-0.7l0,0V764.1L70.5,764.1L70.5,764.1z M72.7,759.4h1v5.6h-1
		V759.4z M74.3,759.4h0.9l1,2.8v-2.8h1v5.6h-0.9l-1-3v3h-1V759.4L74.3,759.4z M77.6,762.3v-0.2c0-1.8,0.8-2.7,1.9-2.7
		c0.3,0,0.5,0.1,0.7,0.2v1c-0.2-0.1-0.5-0.2-0.7-0.2c-0.6,0-0.9,0.6-0.9,1.8v0.3c0,1.5,0.4,1.8,0.8,1.8c0,0,0,0,0.1,0v-1.4H79V762
		h1.4v3c-0.4,0.2-0.6,0.2-1,0.2C78.4,765.1,77.6,764.3,77.6,762.3z M81.9,759.4h1l0.4,3.4l0.5-3.4h0.9l0.5,3.4l0.4-3.4h1l-0.8,5.6
		h-1l-0.5-3.3l-0.5,3.3h-1L81.9,759.4z M87.6,759.4h1l1.1,5.6h-1l-0.2-1.1h-0.9l-0.2,1.1h-0.9L87.6,759.4z M88.4,763l-0.3-1.8
		l-0.3,1.8H88.4z M90,759.4h1v4.7h1v0.9h-2V759.4z M92.4,759.4h1v4.7h1v0.9h-2V759.4z"/>
	<path class="st8" d="M123.2,795.6h1c1,0,1.7,0.5,1.7,1.8v0.1c0,0.7-0.3,1.2-0.7,1.5l0.8,2.3h-1l-0.6-2h-0.2v2h-1
		C123.2,801.2,123.2,795.6,123.2,795.6z M124.2,798.4c0.4,0,0.7-0.2,0.7-0.9v-0.1c0-0.7-0.3-0.9-0.8-0.9l0,0L124.2,798.4
		L124.2,798.4z M126.3,798.6v-0.3c0-1.8,0.6-2.7,1.5-2.7c0.9,0,1.5,0.9,1.5,2.7v0.3c0,1.8-0.6,2.7-1.5,2.7
		C126.9,801.3,126.3,800.4,126.3,798.6z M128.3,798.6v-0.3c0-1.4-0.2-1.8-0.5-1.8s-0.5,0.4-0.5,1.8v0.3c0,1.4,0.2,1.8,0.5,1.8
		S128.3,800,128.3,798.6z M129.8,795.6h0.9c1.1,0,1.8,0.6,1.8,1.9l0,0c0,1.3-0.7,1.9-1.7,1.9l0,0v1.8h-1V795.6z M130.7,798.6
		c0.4,0,0.7-0.3,0.7-1l0,0c0-0.7-0.3-1-0.7-1l0,0V798.6L130.7,798.6L130.7,798.6z M132.8,795.6h2.1v0.9h-1.2v1.4h1v0.9h-1v1.4h1.2
		v0.9h-2.2L132.8,795.6L132.8,795.6z M135.4,801v-1c0.3,0.2,0.6,0.3,0.9,0.3c0.3,0,0.5-0.1,0.5-0.5l0,0c0-0.3-0.1-0.4-0.5-1
		c-0.7-0.8-0.9-1.1-0.9-1.8l0,0c0-0.9,0.6-1.5,1.4-1.5c0.4,0,0.6,0.1,0.9,0.2v1c-0.3-0.2-0.5-0.3-0.7-0.3c-0.3,0-0.5,0.2-0.5,0.5
		l0,0c0,0.3,0.1,0.4,0.5,0.9c0.8,0.9,0.9,1.2,0.9,1.9l0,0c0,0.9-0.6,1.5-1.4,1.5C136,801.3,135.6,801.2,135.4,801z M121.7,806.5
		v-0.2c0-2,0.7-2.7,1.6-2.7c0.3,0,0.4,0,0.6,0.1v1c-0.2-0.1-0.4-0.2-0.5-0.2c-0.4,0-0.7,0.4-0.7,1.8v0.2c0,1.5,0.3,1.8,0.8,1.8
		c0.2,0,0.3-0.1,0.5-0.2v1c-0.2,0.1-0.4,0.2-0.7,0.2C122.4,809.3,121.7,808.5,121.7,806.5z M124.2,806.6v-0.3c0-1.8,0.6-2.7,1.5-2.7
		s1.5,0.9,1.5,2.7v0.3c0,1.8-0.6,2.7-1.5,2.7C124.8,809.3,124.2,808.4,124.2,806.6z M126.2,806.6v-0.3c0-1.4-0.2-1.8-0.5-1.8
		s-0.5,0.4-0.5,1.8v0.3c0,1.4,0.2,1.8,0.5,1.8S126.2,808,126.2,806.6z M127.7,807.6v-4h1v4.1c0,0.5,0.2,0.7,0.4,0.7s0.4-0.2,0.4-0.7
		v-4.1h1v4c0,1.2-0.6,1.7-1.4,1.7S127.7,808.8,127.7,807.6z M131,803.6h1c1,0,1.7,0.5,1.7,1.8v0.1c0,0.7-0.3,1.2-0.7,1.5l0.8,2.3h-1
		l-0.6-2H132v2h-1V803.6z M132,806.4c0.4,0,0.7-0.2,0.7-0.9v-0.1c0-0.7-0.3-0.9-0.8-0.9l0,0L132,806.4L132,806.4z M134.1,809v-1
		c0.3,0.2,0.6,0.3,0.9,0.3c0.3,0,0.5-0.1,0.5-0.5l0,0c0-0.3-0.1-0.4-0.5-1c-0.7-0.8-0.9-1.1-0.9-1.8l0,0c0-0.9,0.6-1.5,1.4-1.5
		c0.4,0,0.6,0.1,0.9,0.2v1c-0.3-0.2-0.5-0.3-0.7-0.3c-0.3,0-0.5,0.2-0.5,0.5l0,0c0,0.3,0.1,0.4,0.5,0.9c0.8,0.9,0.9,1.2,0.9,1.9l0,0
		c0,0.9-0.6,1.5-1.4,1.5C134.7,809.3,134.4,809.2,134.1,809z M136.8,803.6h2.1v0.9h-1.2v1.4h1v0.9h-1v1.4h1.2v0.9h-2.2L136.8,803.6
		L136.8,803.6z"/>
	<path class="st8" d="M118.3,829h1l0.7,2l0.7-2h1v5.6h-0.9v-3.4l-0.7,2.1l0,0l-0.7-2.1v3.4h-0.9L118.3,829L118.3,829z M122.2,829h1
		v5.6h-1V829z M123.8,829h0.9l1,2.8V829h1v5.6h-0.9l-1-3v3h-1V829L123.8,829z M127.2,829h1v5.6h-1V829z M128.8,831.7h2.1v1h-2.1
		V831.7z M131.4,831.9v-0.2c0-1.8,0.8-2.7,1.9-2.7c0.3,0,0.5,0.1,0.7,0.2v1c-0.2-0.1-0.5-0.2-0.7-0.2c-0.6,0-0.9,0.6-0.9,1.8v0.3
		c0,1.5,0.4,1.8,0.8,1.8c0,0,0,0,0.1,0v-1.4h-0.5v-0.9h1.4v3c-0.4,0.2-0.6,0.2-1,0.2C132.2,834.7,131.4,833.9,131.4,831.9z
		 M134.6,832v-0.3c0-1.8,0.6-2.7,1.5-2.7s1.5,0.9,1.5,2.7v0.3c0,1.8-0.6,2.7-1.5,2.7S134.6,833.8,134.6,832z M136.6,832v-0.3
		c0-1.4-0.2-1.8-0.5-1.8s-0.5,0.4-0.5,1.8v0.3c0,1.4,0.2,1.8,0.5,1.8S136.6,833.4,136.6,832z M138.1,829h1v4.7h1v0.9h-2V829z
		 M140.5,829h2v0.9h-1.1v1.4h0.9v0.9h-0.9v2.3h-1V829H140.5z"/>
	<path class="st8" d="M116.4,854.9v-1c0.3,0.2,0.6,0.3,0.9,0.3s0.5-0.1,0.5-0.5l0,0c0-0.3-0.1-0.4-0.5-1c-0.7-0.8-0.9-1.1-0.9-1.8
		l0,0c0-0.9,0.6-1.5,1.4-1.5c0.4,0,0.6,0.1,0.9,0.2v1c-0.3-0.2-0.5-0.3-0.7-0.3c-0.3,0-0.5,0.2-0.5,0.5l0,0c0,0.3,0.1,0.4,0.5,0.9
		c0.8,0.9,0.9,1.2,0.9,1.9l0,0c0,0.9-0.6,1.5-1.4,1.5C117,855.2,116.7,855.1,116.4,854.9z M119.1,849.5h0.9c1.1,0,1.8,0.6,1.8,1.9
		l0,0c0,1.3-0.7,1.9-1.7,1.9l0,0v1.8h-1C119.1,855.1,119.1,849.5,119.1,849.5z M120.1,852.5c0.4,0,0.7-0.3,0.7-1l0,0
		c0-0.7-0.3-1-0.7-1l0,0V852.5L120.1,852.5L120.1,852.5z M122.2,849.5h1v5.6h-1V849.5z M123.8,849.5h0.9c1.2,0,2,0.9,2,2.7v0.2
		c0,1.8-0.7,2.7-2,2.7h-0.9V849.5z M124.8,854.2c0.5,0,0.9-0.4,0.9-1.8v-0.2c0-1.4-0.4-1.8-0.9-1.8l0,0V854.2L124.8,854.2z
		 M127.1,849.5h2.1v0.9H128v1.4h1v0.9h-1v1.4h1.2v0.9H127C127.1,855.1,127.1,849.5,127.1,849.5z M129.8,849.5h1c1,0,1.7,0.5,1.7,1.8
		v0.1c0,0.7-0.3,1.2-0.7,1.5l0.8,2.3h-1l-0.6-2h-0.2v2h-1V849.5z M130.8,852.3c0.4,0,0.7-0.2,0.7-0.9v-0.1c0-0.7-0.3-0.9-0.8-0.9
		l0,0L130.8,852.3L130.8,852.3z M134,849.5h1l0.4,3.4l0.5-3.4h0.9l0.5,3.4l0.4-3.4h1l-0.8,5.6h-1l-0.5-3.3l-0.5,3.3h-1L134,849.5z
		 M139,849.5h2.1v0.9h-1.2v1.4h1v0.9h-1v1.4h1.2v0.9H139V849.5L139,849.5z M141.6,849.5h0.8c0.9,0,1.8,0.4,1.8,1.4l0,0
		c0,0.7-0.4,1.1-0.8,1.3c0.5,0.2,0.9,0.5,0.9,1.2v0.1c0,1-0.8,1.6-1.9,1.6h-0.9L141.6,849.5L141.6,849.5z M142.6,851.9
		c0.4,0,0.7-0.2,0.7-0.7l0,0c0-0.5-0.3-0.7-0.7-0.7l0,0V851.9L142.6,851.9z M142.6,854.2c0.4,0,0.8-0.3,0.8-0.7l0,0
		c0-0.5-0.3-0.7-0.8-0.7l0,0V854.2L142.6,854.2L142.6,854.2z"/>
	<path class="st8" d="M121.4,873h0.8c0.9,0,1.8,0.4,1.8,1.4l0,0c0,0.7-0.4,1.1-0.8,1.3c0.5,0.2,0.9,0.5,0.9,1.2v0.1
		c0,1-0.8,1.6-1.9,1.6h-0.9L121.4,873L121.4,873z M122.4,875.3c0.4,0,0.7-0.2,0.7-0.7l0,0c0-0.5-0.3-0.7-0.7-0.7l0,0V875.3
		L122.4,875.3z M122.4,877.7c0.4,0,0.8-0.3,0.8-0.7l0,0c0-0.5-0.3-0.7-0.8-0.7l0,0V877.7L122.4,877.7L122.4,877.7z M124.6,876.9v-4
		h1v4.1c0,0.5,0.2,0.7,0.4,0.7s0.4-0.2,0.4-0.7v-4h1v4c0,1.2-0.6,1.7-1.4,1.7S124.6,878.1,124.6,876.9z M127.9,873h0.9l1,2.8V873h1
		v5.6h-0.9l-1-3v3h-1C127.9,878.6,127.9,873,127.9,873z M131.2,875.9v-0.2c0-1.8,0.8-2.7,1.9-2.7c0.3,0,0.5,0.1,0.7,0.2v1
		c-0.2-0.1-0.5-0.2-0.7-0.2c-0.6,0-0.9,0.6-0.9,1.8v0.3c0,1.5,0.4,1.8,0.8,1.8c0,0,0,0,0.1,0v-1.4h-0.5v-0.9h1.4v3
		c-0.4,0.2-0.6,0.2-1,0.2C132,878.6,131.2,877.8,131.2,875.9z M134.6,873h2.1v0.9h-1.2v1.4h1v0.9h-1v1.4h1.2v0.9h-2.2L134.6,873
		L134.6,873z M137.2,873h2.1v0.9h-1.2v1.4h1v0.9h-1v1.4h1.2v0.9h-2.2L137.2,873L137.2,873z M116.5,881.9h-0.7V881h2.4v0.9h-0.7v4.7
		h-1L116.5,881.9L116.5,881.9z M118.6,881h1c1,0,1.7,0.5,1.7,1.8v0.1c0,0.7-0.3,1.2-0.7,1.5l0.8,2.3h-1l-0.6-2h-0.2v2h-1
		C118.6,886.7,118.6,881,118.6,881z M119.6,883.7c0.4,0,0.7-0.2,0.7-0.9v-0.1c0-0.7-0.3-0.9-0.8-0.9l0,0L119.6,883.7L119.6,883.7z
		 M122.5,881h1l1.1,5.6h-1l-0.2-1.1h-0.9l-0.2,1.1h-0.9L122.5,881z M123.3,884.6l-0.3-1.8l-0.3,1.8H123.3z M124.9,881h1l0.7,2l0.7-2
		h1v5.6h-0.9v-3.4l-0.7,2.1l0,0l-0.7-2.1v3.4h-0.9L124.9,881L124.9,881z M128.8,881h0.9c1.1,0,1.8,0.6,1.8,1.9l0,0
		c0,1.3-0.7,1.9-1.7,1.9l0,0v1.8h-1V881z M129.8,883.9c0.4,0,0.7-0.3,0.7-1l0,0c0-0.7-0.3-1-0.7-1l0,0V883.9L129.8,883.9
		L129.8,883.9z M131.8,883.9v-0.3c0-1.8,0.6-2.7,1.5-2.7s1.5,0.9,1.5,2.7v0.3c0,1.8-0.6,2.7-1.5,2.7
		C132.4,886.7,131.8,885.8,131.8,883.9z M133.8,883.9v-0.3c0-1.4-0.2-1.8-0.5-1.8s-0.5,0.4-0.5,1.8v0.3c0,1.4,0.2,1.8,0.5,1.8
		S133.8,885.4,133.8,883.9z M135.3,881h1v4.7h1v0.9h-2V881z M137.7,881h1v5.6h-1V881z M139.2,881h0.9l1,2.8V881h1v5.6h-0.9l-1-3v3
		h-1V881L139.2,881z M142.7,881h2.1v0.9h-1.2v1.4h1v0.9h-1v1.4h1.2v0.9h-2.2L142.7,881L142.7,881z"/>
	<path class="st8" d="M105.1,589.1h2v0.9H106v1.4h0.9v0.9H106v2.3h-1L105.1,589.1L105.1,589.1z M107.6,589.1h1c1,0,1.7,0.5,1.7,1.8
		v0.1c0,0.7-0.3,1.2-0.7,1.5l0.8,2.3h-1l-0.6-2h-0.2v2h-1C107.6,594.8,107.6,589.1,107.6,589.1z M108.6,591.9c0.4,0,0.7-0.2,0.7-0.9
		v-0.1c0-0.7-0.3-0.9-0.8-0.9l0,0L108.6,591.9L108.6,591.9z M110.8,589.1h2.1v0.9h-1.2v1.4h1v0.9h-1v1.4h1.2v0.9h-2.2L110.8,589.1
		L110.8,589.1z M113.4,589.1h2.1v0.9h-1.2v1.4h1v0.9h-1v1.4h1.2v0.9h-2.2L113.4,589.1L113.4,589.1z M117.3,589.1h2v0.9h-1.1v1.4h0.9
		v0.9h-0.9v2.3h-1L117.3,589.1L117.3,589.1z M120.4,589.1h1l1.1,5.6h-1l-0.2-1.1h-0.9l-0.2,1.1h-0.9L120.4,589.1z M121.2,592.7
		l-0.3-1.8l-0.3,1.8H121.2z M122.8,589.1h1v4.7h1v0.9h-2V589.1z M125.2,589.1h1v4.7h1v0.9h-2V589.1z"/>
	<path class="st8" d="M42.4,607.2h-0.7v-0.9H44v0.9h-0.7v4.7h-1L42.4,607.2L42.4,607.2z M44.4,606.2h1v2.3h0.8v-2.3h1v5.6h-1v-2.4
		h-0.8v2.4h-1V606.2z M47.8,606.2h2.1v0.9h-1.2v1.4h1v0.9h-1v1.4H50v0.9h-2.2V606.2L47.8,606.2z M51.5,606.2h1l0.4,3.4l0.5-3.4h0.9
		l0.5,3.4l0.4-3.4h1l-0.8,5.6h-1l-0.5-3.3l-0.5,3.3h-1L51.5,606.2z M56.5,606.2h1v2.3h0.8v-2.3h1v5.6h-1v-2.4h-0.8v2.4h-1V606.2z
		 M59.8,606.2h1v5.6h-1V606.2z M61.4,606.2h0.9c1.1,0,1.8,0.6,1.8,1.9l0,0c0,1.3-0.7,1.9-1.7,1.9l0,0v1.8h-1
		C61.4,611.8,61.4,606.2,61.4,606.2z M62.4,609.2c0.4,0,0.7-0.3,0.7-1l0,0c0-0.7-0.3-1-0.7-1l0,0V609.2L62.4,609.2L62.4,609.2z"/>
</g>
<g id="GETAWAY_DECK_17_TOP">
	<g id="gDeck17Locations">
		<path width="150.8942" height="250.3911" id="_x31_7Aft" class="st9" d="M0.5,744.2V916v48.3c-0.1,13,11.9,18,11.9,18c25.5,11.5,63.4,12.2,63.4,12.2H76
			c0,0,37.9-0.7,63.4-12.2c0,0,12.1-5,11.9-18V916V744.3L0.5,744.2z"/>
		<polygon width="150.892" height="402.6833" id="_x31_7MidShip" class="st9" points="151.4,370.1 142.1,349.2 142.1,341.6 116.1,341.6 116.4,424.7 36.5,424.7 
			36.4,341.6 10.8,341.6 10.8,349.2 0.5,370.1 0.5,744.3 151.4,744.3 		"/>
		<path width="131.794" height="424.2001" id="_x31_7Forward" class="st9" d="M141.9,19.5c0,0-0.4-5.7-5.8-7.8c0,0-26.3-10.7-59.9-11.1H76l0,0
			c-33.8,0.3-60.1,11-60.1,11c-5.4,2.1-5.8,7.8-5.8,7.8l0.7,322.1h25.6l0.1,83.1h79.9l-0.3-83.1h25.8V19.5z"/>
	</g>
	<path class="st10" d="M0.5,899h7.4v16.5h11.6v10.1h10.1v40.6h93.7v-51h28.2V744.3h-38h-11.9V767c0,0-0.3,3-2.7,3.6H54.4
		c0,0-3-0.3-3-3.3v-23h-51L0.5,899L0.5,899z"/>
	<path class="st10" d="M116.4,424.7H98.9h-18H46.5h-10V342v82.7v-83.1H10.8v-323c0,0,0.3-5.7,6.7-8c0,0,28-10.8,59-10
		c28.3-0.7,59,10,59,10c6.3,2.3,6.7,8,6.7,8v323h-25.7L116.4,424.7V342V424.7z"/>
</g>
</svg>
