<svg id="nclh" data-name="nclh" xmlns="http://www.w3.org/2000/svg" viewBox="0 0 300 156.47"><defs><style>.cls-1{fill:#fff;fill-rule:evenodd;}</style></defs><title>nclh</title><path class="cls-1" d="M0,0V153s33.71-16.27,72.71-16.27c1.16,0,2.31,0,3.47,0,46.63,1.17,83.77,19.69,129.57,19.71h.12c66.86,0,94.13-25.67,94.13-25.67V0ZM295,128.44a87.43,87.43,0,0,1-19.55,10.84c-24.18,10.07-51.18,12.19-69.58,12.19h-.12c-22.88,0-43.27-4.69-64.86-9.64-20.32-4.67-41.33-9.49-64.58-10.07-1.19,0-2.4,0-3.6,0-29.39,0-55.55,8.82-67.71,13.67V5H295Z"/><polygon class="cls-1" points="38.06 61.71 71.66 106.07 84.65 106.07 84.65 36.28 69.58 36.28 69.58 79.24 37.07 36.28 22.99 36.28 22.99 106.07 38.06 106.07 38.06 61.71"/><path class="cls-1" d="M126.33,108.21c13.19,0,21-4.85,28.05-12.65l-9.59-10c-5.37,5.07-10.16,8.3-18,8.3C115.09,93.83,107,83.71,107,71.56v-.21c0-12.14,8.31-22.06,19.83-22.06,6.84,0,12.22,3,17.5,8l9.58-11.45c-6.36-6.47-14.09-10.93-27-10.93-21,0-35.65,16.5-35.65,36.65v.21C91.25,92.12,106.19,108.21,126.33,108.21Z"/><polygon class="cls-1" points="211.97 92.11 177.66 92.11 177.66 36.28 162.51 36.28 162.51 106.07 211.97 106.07 211.97 92.11"/><polygon class="cls-1" points="234.72 78.98 263.16 78.98 263.16 106.45 278 106.45 278 36.67 263.16 36.67 263.16 64.17 234.72 64.17 234.72 36.67 219.88 36.67 219.88 106.45 234.72 106.45 234.72 78.98"/></svg>