<?xml version="1.0" encoding="utf-8"?>
<!-- Generator: Adobe Illustrator 24.0.1, SVG Export Plug-In . SVG Version: 6.00 Build 0)  -->
<svg version="1.1" id="nclh" xmlns="http://www.w3.org/2000/svg" xmlns:xlink="http://www.w3.org/1999/xlink" x="0px" y="0px"
	 viewBox="0 0 300 156.5" style="enable-background:new 0 0 300 156.5;" xml:space="preserve">
<style type="text/css">
	.st0{fill:#00538A;}
	.st1{fill-rule:evenodd;clip-rule:evenodd;fill:#FFFFFF;}
</style>
<title>nclh</title>
<path class="st0" d="M0,153c0,0,35.7-17.2,76.2-16.2c46.6,1.2,83.8,19.7,129.6,19.7c66.9,0,94.2-25.7,94.2-25.7V0H0V153z"/>
<polygon class="st1" points="69.6,79.2 37.1,36.3 23,36.3 23,106.1 38.1,106.1 38.1,61.7 71.7,106.1 84.7,106.1 84.7,36.3
	69.6,36.3 "/>
<path class="st1" d="M126.8,93.8c-11.7,0-19.8-10.1-19.8-22.3v-0.2c0-12.1,8.3-22.1,19.8-22.1c6.8,0,12.2,3,17.5,8l9.6-11.5
	c-6.4-6.5-14.1-10.9-27-10.9c-21,0-35.7,16.5-35.7,36.6v0.2c0,20.3,14.9,36.4,35.1,36.4c13.2,0,21-4.8,28-12.7l-9.6-10
	C139.4,90.6,134.6,93.8,126.8,93.8z"/>
<polygon class="st1" points="177.7,36.3 162.5,36.3 162.5,106.1 212,106.1 212,92.1 177.7,92.1 "/>
<polygon class="st1" points="263.2,36.7 263.2,64.2 234.7,64.2 234.7,36.7 219.9,36.7 219.9,106.4 234.7,106.4 234.7,79 263.2,79
	263.2,106.4 278,106.4 278,36.7 "/>
</svg>
