<svg id="Layer_1" data-name="Layer 1" xmlns="http://www.w3.org/2000/svg" viewBox="0 0 240.91 24.06"><defs><style>.cls-1{fill:#00538a;}.cls-1,.cls-2,.cls-3{fill-rule:evenodd;}.cls-2{fill:#fffffe;}</style></defs><title>nclh-logo</title><g id="logo-nclh-horizontal"><g id="Group-4"><path id="Fill-190" class="cls-1" d="M45.58,19.91V.16H0V23.41A24.18,24.18,0,0,1,9.65,21c8-.3,11.28,2,18.85,2.74,9.27.92,15.32-2.41,16.73-3.38.35-.25.29-.31.33-.37Z"/><polygon id="Fill-191" class="cls-2" points="3.43 5.7 5.56 5.7 10.49 12.23 10.49 5.7 12.78 5.7 12.78 16.3 10.81 16.3 5.71 9.56 5.71 16.3 3.43 16.3 3.43 5.7"/><path id="Fill-192" class="cls-2" d="M13.81,11v0A5.37,5.37,0,0,1,19.3,5.52a5.42,5.42,0,0,1,4.15,1.64L22,8.87a3.86,3.86,0,0,0-2.69-1.2A3.14,3.14,0,0,0,16.23,11v0a3.14,3.14,0,0,0,3.05,3.33,3.78,3.78,0,0,0,2.77-1.24l1.47,1.5a5.33,5.33,0,0,1-4.31,1.89A5.33,5.33,0,0,1,13.81,11"/><polygon id="Fill-193" class="cls-2" points="24.65 5.74 26.96 5.74 26.96 14.21 32.21 14.21 32.21 16.34 24.65 16.34 24.65 5.74"/><polygon id="Fill-194" class="cls-2" points="33.28 5.74 35.6 5.74 35.6 9.93 39.87 9.93 39.87 5.74 42.18 5.74 42.18 16.34 39.87 16.34 39.87 12.08 35.6 12.08 35.6 16.34 33.28 16.34 33.28 5.74"/></g><g id="Group-2"><polygon id="Fill-195" class="cls-3" points="58.64 0.16 58.64 7.63 52.81 0.16 51.83 0.16 51.83 9.48 52.85 9.48 52.85 1.84 58.82 9.48 59.66 9.48 59.66 0.16 58.64 0.16"/><path id="Fill-196" class="cls-3" d="M62.53,4.84v0a4.72,4.72,0,1,1,9.43,0s0,0,0,0a4.72,4.72,0,1,1-9.43,0m8.35,0v0A3.69,3.69,0,0,0,67.23,1a3.65,3.65,0,0,0-3.62,3.82v0a3.7,3.7,0,0,0,3.65,3.85,3.66,3.66,0,0,0,3.62-3.83"/><path id="Fill-197" class="cls-3" d="M74.83.16h4a3.65,3.65,0,0,1,2.63.93,2.58,2.58,0,0,1,.71,1.84V3a2.72,2.72,0,0,1-2.51,2.72l2.84,3.81H81.2L78.52,5.86H75.88V9.48h-1Zm3.89,4.75c1.39,0,2.38-.72,2.38-1.92V3c0-1.15-.88-1.84-2.37-1.84H75.88V4.91Z"/><polygon id="Fill-198" class="cls-3" points="84.14 0.16 85.28 0.16 87.92 7.92 90.46 0.13 91.32 0.13 93.85 7.92 96.5 0.16 97.59 0.16 94.29 9.54 93.4 9.54 90.87 1.98 88.32 9.54 87.44 9.54 84.14 0.16"/><polygon id="Fill-199" class="cls-3" points="100.15 0.16 106.83 0.16 106.83 1.12 101.19 1.12 101.19 4.3 106.24 4.3 106.24 5.26 101.19 5.26 101.19 8.52 106.9 8.52 106.9 9.48 100.15 9.48 100.15 0.16"/><path id="Fill-200" class="cls-3" d="M109.26,4.84v0A4.66,4.66,0,0,1,113.89,0a4.83,4.83,0,0,1,3.45,1.24l-.67.8A3.91,3.91,0,0,0,113.85,1a3.63,3.63,0,0,0-3.51,3.82v0A3.59,3.59,0,0,0,114,8.69a4.34,4.34,0,0,0,2.67-.93V5.44h-2.82V4.5h3.82V8.21A5.59,5.59,0,0,1,114,9.64a4.55,4.55,0,0,1-4.7-4.8"/><polygon id="Fill-201" class="cls-3" points="120.78 9.48 121.83 9.48 121.83 0.16 120.78 0.16 120.78 9.48"/><path id="Fill-202" class="cls-3" d="M128.62.09h1l4.21,9.39h-1.12L131.61,7h-5l-1.09,2.47H124.4Zm2.58,6-2.1-4.75L127,6.07Z"/><polygon id="Fill-203" class="cls-3" points="136.3 0.16 137.28 0.16 143.11 7.63 143.11 0.16 144.13 0.16 144.13 9.48 143.29 9.48 137.32 1.84 137.32 9.48 136.3 9.48 136.3 0.16"/><path id="Fill-204" class="cls-3" d="M151.33,4.84v0A4.68,4.68,0,0,1,156,0a4.8,4.8,0,0,1,3.61,1.48l-.72.77A4,4,0,0,0,156,1a3.65,3.65,0,0,0-3.58,3.82v0A3.67,3.67,0,0,0,156,8.67a4,4,0,0,0,3-1.35l.69.68A4.83,4.83,0,0,1,156,9.64a4.64,4.64,0,0,1-4.64-4.8"/><path id="Fill-205" class="cls-3" d="M162.11.16h4a3.68,3.68,0,0,1,2.63.93,2.63,2.63,0,0,1,.71,1.84V3a2.72,2.72,0,0,1-2.51,2.72l2.84,3.81h-1.28l-2.69-3.62h-2.64V9.48h-1ZM166,4.91c1.39,0,2.38-.72,2.38-1.92V3c0-1.15-.87-1.84-2.36-1.84h-2.86V4.91Z"/><path id="Fill-206" class="cls-3" d="M172.11,5.58V.16h1V5.51c0,2,1.06,3.14,2.83,3.14s2.79-1,2.79-3.07V.16h1V5.5c0,2.71-1.54,4.12-3.86,4.12s-3.84-1.41-3.84-4"/><polygon id="Fill-207" class="cls-3" points="182.84 9.48 183.89 9.48 183.89 0.16 182.84 0.16 182.84 9.48"/><path id="Fill-208" class="cls-3" d="M186.6,8.12l.65-.77a4.39,4.39,0,0,0,3.17,1.32c1.24,0,2.06-.67,2.06-1.59v0c0-.86-.46-1.35-2.4-1.77C188,4.82,187,4.13,187,2.6v0C187,1.1,188.25,0,190,0a4.77,4.77,0,0,1,3.25,1.14l-.6.81A4.08,4.08,0,0,0,190,1c-1.21,0-2,.67-2,1.51v0c0,.88.47,1.37,2.51,1.81s3,1.21,3,2.64V7c0,1.6-1.32,2.64-3.16,2.64a5.4,5.4,0,0,1-3.78-1.49"/><polygon id="Fill-209" class="cls-3" points="196.19 0.16 202.87 0.16 202.87 1.12 197.23 1.12 197.23 4.3 202.28 4.3 202.28 5.26 197.23 5.26 197.23 8.52 202.94 8.52 202.94 9.48 196.19 9.48 196.19 0.16"/><polygon id="Fill-210" class="cls-3" points="210.06 0.16 211.11 0.16 211.11 8.51 216.31 8.51 216.31 9.48 210.06 9.48 210.06 0.16"/><polygon id="Fill-211" class="cls-3" points="219 9.48 220.04 9.48 220.04 0.16 219 0.16 219 9.48"/><polygon id="Fill-212" class="cls-3" points="223.27 0.16 224.25 0.16 230.07 7.63 230.07 0.16 231.09 0.16 231.09 9.48 230.26 9.48 224.29 1.84 224.29 9.48 223.27 9.48 223.27 0.16"/><polygon id="Fill-213" class="cls-3" points="234.15 0.16 234.15 9.48 240.91 9.48 240.91 8.52 235.2 8.52 235.2 5.26 240.25 5.26 240.25 4.3 235.2 4.3 235.2 1.12 240.84 1.12 240.84 0.16 234.15 0.16"/><polygon id="Fill-214" class="cls-3" points="58.22 14.58 58.22 18.72 52.88 18.72 52.88 14.58 51.83 14.58 51.83 23.9 52.88 23.9 52.88 19.71 58.22 19.71 58.22 23.9 59.26 23.9 59.26 14.58 58.22 14.58"/><path id="Fill-215" class="cls-3" d="M62.13,19.27v0a4.72,4.72,0,1,1,9.44,0s0,0,0,0a4.71,4.71,0,0,1-4.74,4.82,4.66,4.66,0,0,1-4.7-4.79m8.35,0v0a3.69,3.69,0,0,0-3.65-3.84,3.65,3.65,0,0,0-3.62,3.82v0a3.7,3.7,0,0,0,3.65,3.85,3.64,3.64,0,0,0,3.62-3.82"/><polygon id="Fill-216" class="cls-3" points="74.44 14.58 74.44 23.9 80.69 23.9 80.69 22.93 75.48 22.93 75.48 14.58 74.44 14.58"/><path id="Fill-217" class="cls-3" d="M83.28,14.58h3.21a4.63,4.63,0,0,1,4.92,4.64v0a4.65,4.65,0,0,1-4.92,4.66H83.28Zm3.21,8.35a3.59,3.59,0,0,0,3.83-3.66v0a3.61,3.61,0,0,0-3.83-3.68H84.32v7.37Z"/><polygon id="Fill-218" class="cls-3" points="94.37 23.9 95.41 23.9 95.41 14.58 94.37 14.58 94.37 23.9"/><polygon id="Fill-219" class="cls-3" points="105.66 14.58 105.66 22.05 99.84 14.58 98.86 14.58 98.86 23.9 99.88 23.9 99.88 16.26 105.85 23.9 106.68 23.9 106.68 14.58 105.66 14.58"/><path id="Fill-220" class="cls-3" d="M109.55,19.27v0a4.66,4.66,0,0,1,4.64-4.82,4.89,4.89,0,0,1,3.45,1.24l-.67.8a3.92,3.92,0,0,0-2.82-1.06,3.62,3.62,0,0,0-3.51,3.82v0a3.59,3.59,0,0,0,3.66,3.88,4.37,4.37,0,0,0,2.67-.94V19.87h-2.82v-.95H118v3.72a5.58,5.58,0,0,1-3.71,1.42,4.56,4.56,0,0,1-4.71-4.79"/><path id="Fill-221" class="cls-3" d="M120.38,22.54l.65-.77a4.36,4.36,0,0,0,3.17,1.32c1.24,0,2.06-.67,2.06-1.58v0c0-.87-.46-1.36-2.41-1.77-2.12-.47-3.1-1.16-3.1-2.69v0c0-1.46,1.28-2.54,3-2.54A4.84,4.84,0,0,1,127,15.59l-.61.82a4,4,0,0,0-2.67-1c-1.2,0-2,.67-2,1.51v0c0,.87.48,1.37,2.51,1.81s3,1.21,3,2.63v0c0,1.6-1.33,2.63-3.16,2.63a5.38,5.38,0,0,1-3.78-1.49"/><polygon id="Fill-222" class="cls-3" points="136.88 14.58 136.88 23.9 143.13 23.9 143.13 22.93 137.93 22.93 137.93 14.58 136.88 14.58"/><polygon id="Fill-223" class="cls-3" points="143.74 14.58 143.74 15.56 146.85 15.56 146.85 23.9 147.91 23.9 147.91 15.56 151.01 15.56 151.01 14.58 143.74 14.58"/><path id="Fill-224" class="cls-3" d="M153.63,14.58h3.21a4.63,4.63,0,0,1,4.92,4.64v0a4.65,4.65,0,0,1-4.92,4.66h-3.21Zm3.21,8.35a3.59,3.59,0,0,0,3.83-3.66v0a3.61,3.61,0,0,0-3.83-3.68h-2.17v7.37Z"/><polygon id="Fill-225" class="cls-3" points="163.81 23.9 165.03 23.9 165.03 22.5 163.81 22.5 163.81 23.9"/></g></g></svg>