<svg id="Layer_1" data-name="Layer 1" xmlns="http://www.w3.org/2000/svg" viewBox="0 0 182.49 50.74"><defs><style>.cls-1{fill:#fffffe;fill-rule:evenodd;}</style></defs><title>logo-nclh</title><g id="logo-nclh-vertical-white"><g id="NCLH-Logo-and-Font-Usage-Guidelines"><g id="Group-9"><path id="Fill-524" class="cls-1" d="M108.89,14.7h-2.1V10.83h-3.88V14.7H100.8V5.07h2.11V8.88h3.88V5.07h2.1Zm-9.06,0H93V5.07h2.1v7.7h4.77ZM88,14.84a4.85,4.85,0,0,1-4.9-5v0a5.13,5.13,0,0,1,8.75-3.5L90.53,7.91a3.54,3.54,0,0,0-2.45-1.08,2.84,2.84,0,0,0-2.77,3v0a2.84,2.84,0,0,0,2.77,3,3.43,3.43,0,0,0,2.51-1.13l1.34,1.37A4.86,4.86,0,0,1,88,14.84Zm-5.84-.17H80.38L75.75,8.55v6.12H73.67V5h1.94L80.09,11V5h2.08ZM112,0H70.55V21.13a22,22,0,0,1,8.77-2.2c7.25-.28,10.25,1.8,17.14,2.49,8.42.84,13.92-2.19,15.2-3.07.32-.23.27-.28.3-.34l0-.06V0Z"/><polygon id="Fill-525" class="cls-1" points="6.57 27.67 6.57 34.88 0.94 27.67 0 27.67 0 36.67 0.98 36.67 0.98 29.29 6.75 36.67 7.55 36.67 7.55 27.67 6.57 27.67"/><path id="Fill-526" class="cls-1" d="M10.32,32.2v0a4.54,4.54,0,0,1,4.57-4.65,4.49,4.49,0,0,1,4.54,4.62s0,0,0,0a4.56,4.56,0,1,1-9.11,0m8.06,0v0a3.56,3.56,0,0,0-3.52-3.71,3.51,3.51,0,0,0-3.49,3.68v0a3.56,3.56,0,0,0,3.52,3.71,3.51,3.51,0,0,0,3.49-3.68"/><path id="Fill-527" class="cls-1" d="M22.2,27.67H26a3.53,3.53,0,0,1,2.54.9,2.53,2.53,0,0,1,.69,1.78v0A2.62,2.62,0,0,1,26.84,33l2.75,3.68H28.35l-2.59-3.5H23.21v3.5h-1ZM26,32.26c1.34,0,2.3-.69,2.3-1.85v0c0-1.1-.85-1.77-2.29-1.77H23.21v3.65Z"/><polygon id="Fill-528" class="cls-1" points="31.18 27.67 32.28 27.67 34.83 35.16 37.28 27.65 38.11 27.65 40.56 35.16 43.11 27.67 44.17 27.67 40.98 36.73 40.12 36.73 37.67 29.43 35.21 36.73 34.37 36.73 31.18 27.67"/><polygon id="Fill-529" class="cls-1" points="46.63 27.67 53.09 27.67 53.09 28.6 47.64 28.6 47.64 31.67 52.51 31.67 52.51 32.59 47.64 32.59 47.64 35.74 53.15 35.74 53.15 36.67 46.63 36.67 46.63 27.67"/><path id="Fill-530" class="cls-1" d="M55.42,32.2v0a4.5,4.5,0,0,1,4.48-4.65,4.71,4.71,0,0,1,3.33,1.19l-.65.77a3.79,3.79,0,0,0-2.72-1,3.5,3.5,0,0,0-3.39,3.68v0A3.46,3.46,0,0,0,60,35.91a4.2,4.2,0,0,0,2.58-.9V32.77H59.86v-.91h3.69v3.59A5.41,5.41,0,0,1,60,36.82a4.4,4.4,0,0,1-4.55-4.62"/><polygon id="Fill-531" class="cls-1" points="66.55 36.67 67.56 36.67 67.56 27.67 66.55 27.67 66.55 36.67"/><path id="Fill-532" class="cls-1" d="M74.11,27.61h1l4.07,9.06H78l-1-2.38H72.14l-1.06,2.38h-1Zm2.49,5.77-2-4.59-2,4.59Z"/><polygon id="Fill-533" class="cls-1" points="81.53 27.67 82.47 27.67 88.1 34.88 88.1 27.67 89.08 27.67 89.08 36.67 88.28 36.67 82.51 29.29 82.51 36.67 81.53 36.67 81.53 27.67"/><path id="Fill-534" class="cls-1" d="M96,32.2v0a4.52,4.52,0,0,1,4.52-4.65A4.62,4.62,0,0,1,104,29l-.69.74a3.85,3.85,0,0,0-2.8-1.23,3.51,3.51,0,0,0-3.46,3.68v0a3.53,3.53,0,0,0,3.46,3.71,3.87,3.87,0,0,0,2.88-1.29l.66.65a4.63,4.63,0,0,1-3.57,1.58A4.47,4.47,0,0,1,96,32.2"/><path id="Fill-535" class="cls-1" d="M106.44,27.67h3.83a3.53,3.53,0,0,1,2.54.9,2.48,2.48,0,0,1,.69,1.78v0A2.62,2.62,0,0,1,111.08,33l2.74,3.68h-1.24L110,33.17h-2.55v3.5h-1Zm3.75,4.59c1.33,0,2.29-.69,2.29-1.85v0c0-1.1-.84-1.77-2.28-1.77h-2.76v3.65Z"/><path id="Fill-536" class="cls-1" d="M116.09,32.9V27.67h1v5.17c0,1.94,1,3,2.73,3s2.7-1,2.7-3V27.67h1v5.16c0,2.62-1.49,4-3.72,4s-3.71-1.36-3.71-3.91"/><polygon id="Fill-537" class="cls-1" points="126.45 36.67 127.46 36.67 127.46 27.67 126.45 27.67 126.45 36.67"/><path id="Fill-538" class="cls-1" d="M130.08,35.36l.62-.75a4.23,4.23,0,0,0,3.06,1.27c1.2,0,2-.64,2-1.53v0c0-.84-.44-1.31-2.32-1.71-2.05-.45-3-1.12-3-2.6v0c0-1.41,1.23-2.45,2.93-2.45a4.66,4.66,0,0,1,3.14,1.1l-.59.78a3.91,3.91,0,0,0-2.58-1c-1.16,0-1.9.64-1.9,1.45v0c0,.85.46,1.33,2.43,1.75s2.91,1.17,2.91,2.55v0c0,1.54-1.28,2.55-3.05,2.55a5.22,5.22,0,0,1-3.65-1.44"/><polygon id="Fill-539" class="cls-1" points="139.33 27.67 145.78 27.67 145.78 28.6 140.34 28.6 140.34 31.67 145.21 31.67 145.21 32.59 140.34 32.59 140.34 35.74 145.85 35.74 145.85 36.67 139.33 36.67 139.33 27.67"/><polygon id="Fill-540" class="cls-1" points="152.72 27.67 153.73 27.67 153.73 35.73 158.75 35.73 158.75 36.67 152.72 36.67 152.72 27.67"/><polygon id="Fill-541" class="cls-1" points="161.34 36.67 162.35 36.67 162.35 27.67 161.34 27.67 161.34 36.67"/><polygon id="Fill-542" class="cls-1" points="165.47 27.67 166.41 27.67 172.03 34.88 172.03 27.67 173.02 27.67 173.02 36.67 172.21 36.67 166.45 29.29 166.45 36.67 165.47 36.67 165.47 27.67"/><polygon id="Fill-543" class="cls-1" points="175.97 27.67 175.97 36.67 182.49 36.67 182.49 35.74 176.98 35.74 176.98 32.59 181.85 32.59 181.85 31.67 176.98 31.67 176.98 28.6 182.43 28.6 182.43 27.67 175.97 27.67"/><polygon id="Fill-544" class="cls-1" points="42.35 41.59 42.35 45.59 37.2 45.59 37.2 41.59 36.19 41.59 36.19 50.59 37.2 50.59 37.2 46.54 42.35 46.54 42.35 50.59 43.36 50.59 43.36 41.59 42.35 41.59"/><path id="Fill-545" class="cls-1" d="M46.13,46.12v0a4.55,4.55,0,1,1,9.1,0s0,0,0,0a4.54,4.54,0,0,1-4.56,4.65,4.49,4.49,0,0,1-4.54-4.62m8.06,0v0a3.56,3.56,0,0,0-3.52-3.71,3.52,3.52,0,0,0-3.5,3.69v0a3.57,3.57,0,0,0,3.52,3.72,3.53,3.53,0,0,0,3.5-3.69"/><polygon id="Fill-546" class="cls-1" points="58 41.59 58 50.59 64.04 50.59 64.04 49.65 59.01 49.65 59.01 41.59 58 41.59"/><path id="Fill-547" class="cls-1" d="M66.54,41.6h3.1a4.46,4.46,0,0,1,4.74,4.47v0a4.48,4.48,0,0,1-4.74,4.5h-3.1Zm3.1,8a3.47,3.47,0,0,0,3.7-3.53v0a3.49,3.49,0,0,0-3.7-3.56H67.55v7.12Z"/><polygon id="Fill-548" class="cls-1" points="77.24 50.59 78.25 50.59 78.25 41.6 77.24 41.6 77.24 50.59"/><polygon id="Fill-549" class="cls-1" points="88.14 41.59 88.14 48.8 82.52 41.59 81.58 41.59 81.58 50.59 82.56 50.59 82.56 43.21 88.32 50.59 89.13 50.59 89.13 41.59 88.14 41.59"/><path id="Fill-550" class="cls-1" d="M91.9,46.12v0a4.5,4.5,0,0,1,4.47-4.65,4.67,4.67,0,0,1,3.33,1.2l-.65.77a3.75,3.75,0,0,0-2.71-1,3.51,3.51,0,0,0-3.4,3.69v0a3.47,3.47,0,0,0,3.54,3.74,4.17,4.17,0,0,0,2.57-.9V46.7H96.34v-.92H100v3.59a5.41,5.41,0,0,1-3.58,1.37,4.39,4.39,0,0,1-4.54-4.62"/><path id="Fill-551" class="cls-1" d="M102.35,49.28l.62-.75A4.24,4.24,0,0,0,106,49.81c1.2,0,2-.65,2-1.53v0c0-.83-.44-1.31-2.32-1.71-2-.45-3-1.12-3-2.59v0c0-1.41,1.24-2.45,2.94-2.45a4.66,4.66,0,0,1,3.14,1.1l-.59.79a3.87,3.87,0,0,0-2.58-1c-1.16,0-1.9.64-1.9,1.45v0c0,.84.46,1.32,2.42,1.74S109,46.77,109,48.15v0c0,1.55-1.27,2.55-3.05,2.55a5.21,5.21,0,0,1-3.64-1.44"/><polygon id="Fill-552" class="cls-1" points="118.28 41.59 118.28 50.59 124.31 50.59 124.31 49.65 119.29 49.65 119.29 41.59 118.28 41.59"/><polygon id="Fill-553" class="cls-1" points="124.9 41.59 124.9 42.53 127.9 42.53 127.9 50.59 128.92 50.59 128.92 42.53 131.91 42.53 131.91 41.59 124.9 41.59"/><path id="Fill-554" class="cls-1" d="M134.44,41.6h3.1a4.47,4.47,0,0,1,4.75,4.47v0a4.49,4.49,0,0,1-4.75,4.5h-3.1Zm3.1,8a3.47,3.47,0,0,0,3.7-3.53v0a3.49,3.49,0,0,0-3.7-3.56h-2.09v7.12Z"/><polygon id="Fill-555" class="cls-1" points="144.26 50.59 145.44 50.59 145.44 49.24 144.26 49.24 144.26 50.59"/></g></g></g></svg>