<?xml version="1.0" encoding="utf-8"?>
<!-- Generator: Adobe Illustrator 25.4.1, SVG Export Plug-In . SVG Version: 6.00 Build 0)  -->
<svg version="1.1" id="DAWN_DECK_07" xmlns="http://www.w3.org/2000/svg" xmlns:xlink="http://www.w3.org/1999/xlink" x="0px"
	 y="0px" width="128px" height="856.4px" viewBox="0 0 128 856.4" style="enable-background:new 0 0 128 856.4;"
	 xml:space="preserve">
<style type="text/css">
	.st0{fill:#FFFFFF;}
	.st1{fill:none;stroke:#D5DCE0;stroke-width:0.5;}
	.st2{fill:none;stroke:#000000;stroke-width:0.5;stroke-miterlimit:3.8637;}
	.st3{fill:#6E8496;}
	.st4{fill:#6E8396;}
	.st5{fill:none;}
	.st6{fill:none;stroke:#076FA0;stroke-miterlimit:10;}
</style>
<g id="DAWN_DECK_07_BOTTOM">
	<path class="st0" d="M127.5,842.2c-0.8,9.5-30.6,13.8-63.4,13.8c-38.9,0-62.4-4.3-63.4-13.5c-0.2-15.8-0.3-681.5-0.3-681.5
		C1.3,90.6,39.3,0.2,64.2,0.5c23.8,1.1,63.4,90.4,63.1,160.4L127.5,842.2z"/>
	<polyline class="st1" points="60.5,385.5 60.5,417 92.4,417 92.4,501.4 80.9,501.4 80.9,484.6 	"/>
	<line class="st1" x1="34.1" y1="484.4" x2="92.4" y2="484.4"/>
	<polyline class="st1" points="34.1,441.3 34.1,501.4 46.6,501.4 46.6,484.4 	"/>
	<path class="st1" d="M33.5,629.1v-18.4h3.2l0-0.9c0,0-0.5-8.9,7.1-8.6c4,0.2,3.8,3.3,3.8,3.3c3.9,1.4,11.1,2.3,16.3,2.4
		c5.2-0.1,12-0.7,15.9-2.1c0,0,1.8-3.7,4.2-3.7c4.5,0,6.2,3,6.7,5.5l0.3,3.1v1.1h1.4l0,28.6l-9.9-0.2V695l10.6,2.8l0,13.9"/>
	<path class="st1" d="M24.7,790.1v58c-6.6-1.5-16.2-4.3-18-9.7v-48.4L24.7,790.1L24.7,790.1z"/>
	<path class="st1" d="M102.9,790.1v58c6.6-1.5,16.2-4.3,18-9.7v-48.4h-4.7L102.9,790.1L102.9,790.1z"/>
	<path class="st1" d="M63.8,521.5H40.4v-4.7h-7.3c0,0,3.6,6.1,3.6,9.4c0,2.5,0.5,4.6-2.5,9.8c0,0.5-0.6,2.8,2.5,3.2
		c1,0,3.4,0.4,7.1-2.7l5.2,2.6l-5.9,4.5c-1.3,1.1-2.4,2.1-2.4,3.7c0,1.8,1.4,2.4,1.4,2.4s1.1,3.2,1,5.3c-0.2,0-2.1,0.1-2.1,2
		c0,1.6,2,1.8,2,1.8c-0.1,2.2-1.2,5.7-1.2,5.7s-0.9,2.2,0.9,2.9C45.3,568,46,566,46,566c0.4-2-1.9-2.4-1.9-2.4s1.1-2.9,1.1-6.7
		c0-4.1-1.1-7-1.1-7c1.3-0.3,1.6-0.7,2.1-1.6c0.5-1.6-0.7-2.6-0.7-2.6s-0.7-0.8,0.8-1.8c4.2-2.9,8.9-10.5,8.9-10.5s1.8,0.7,2.9,0.8
		c0-0.8,0-2.7,0-2.7h5.8h5.8c0,0,0,1.9,0,2.7c1.1-0.1,2.9-0.8,2.9-0.8s4.6,7.6,8.8,10.5c1.5,1,0.8,1.8,0.8,1.8s-1.2,0.9-0.7,2.6
		c0.5,0.9,0.8,1.3,2.1,1.6c0,0-1.1,2.9-1.1,7c0,3.8,1.1,6.7,1.1,6.7s-2.2,0.4-1.9,2.4c0,0,0.7,2,3.3,1.2c1.9-0.8,0.9-2.9,0.9-2.9
		s-1.1-3.4-1.2-5.7c0,0,2-0.2,2-1.8c0-1.9-1.9-1.9-2.1-2c0-2.1,1-5.3,1-5.3s1.4-0.6,1.4-2.4c0-1.6-1.1-2.6-2.4-3.7l-5.9-4.5l5.2-2.6
		c3.7,3.1,6.1,2.7,7.1,2.7c3.2-0.4,2.5-2.7,2.5-3.2c-3-5.3-2.5-7.3-2.5-9.8c0-3.2,3.6-9.4,3.6-9.4h-7.2l-0.1,4.7H63.8L63.8,521.5z"
		/>
	<path class="st1" d="M69,574.1c-1.4,0-2.6-1-2.6-2.2c0-1.2,1.2-2.2,2.6-2.2s2.6,1,2.6,2.2C71.6,573.2,70.5,574.1,69,574.1L69,574.1
		z"/>
	<path class="st1" d="M58.6,574.1c-1.4,0-2.6-1-2.6-2.2c0-1.2,1.2-2.2,2.6-2.2c1.4,0,2.6,1,2.6,2.2
		C61.2,573.2,60.1,574.1,58.6,574.1L58.6,574.1z"/>
	<path class="st1" d="M23,210.5h10.4v8.9h10.2l0-8.9h40.2l0,8.9h8.5v-8.9H105"/>
	<polyline class="st1" points="79.5,747.3 79.5,727.4 92.4,727.4 92.4,747.5 35.3,747.5 35.3,727.3 47.9,727.3 47.9,747.5 	"/>
	<path class="st1" d="M14.5,79.2l3,0c0,0,6.5-4.2,16.6-4.3s58.4-0.1,58.4-0.1s11.4-0.1,18.2,4.4l2.7,0"/>
	<line class="st1" x1="92.8" y1="629.2" x2="104.8" y2="629.2"/>
	<line class="st1" x1="22.7" y1="712" x2="104.7" y2="712"/>
	<polygon class="st1" points="43.7,219.4 43.7,210.5 53.8,210.5 53.8,219.4 	"/>
	<polygon class="st1" points="53.8,219.4 53.8,210.5 63.8,210.5 63.8,219.4 	"/>
	<polygon class="st1" points="63.8,219.4 63.8,210.5 73.9,210.5 73.9,219.4 	"/>
	<polygon class="st1" points="73.9,219.4 73.9,210.5 83.9,210.5 83.9,219.4 	"/>
	<polygon class="st1" points="40.4,521.5 40.4,512.7 50.5,512.7 50.5,521.5 	"/>
	<polygon class="st1" points="50.5,521.5 50.5,512.7 60.5,512.7 60.5,521.5 	"/>
	<polygon class="st1" points="67.5,521.5 67.5,512.7 77.6,512.7 77.6,521.5 	"/>
	<polygon class="st1" points="77.6,521.5 77.6,512.7 87.3,512.7 87.3,521.5 77.6,521.5 	"/>
	<path class="st1" d="M104.8,609.2h-2.3l-6.2-5.8c0,0-5.3-2.8-1-6.3c1.3-0.9,1.9-3.6,1.9-3.6l1.6-9.9l0,0c0.1-1.9-0.2-4.4-0.2-6.8
		c0-3.6,3.1-3.6,3.1-3.6l12.4,0"/>
	<path class="st1" d="M22.8,609.5h2.4l6.2-5.9c0,0,5.3-2.8,1-6.3c-1.2-1-1.2-3.4-1.2-3.4l-1.6-9.9l0,0c-0.1-1.9-0.5-4.7-0.5-7.1
		c0-3.6-3.1-3.6-3.1-3.6l-12.4,0"/>
	<polyline class="st1" points="23,629.1 43.5,629.1 43.6,682.1 25.8,682.1 25.8,691.6 34.5,701 34.5,711.7 	"/>
	<rect x="76.7" y="329" class="st1" width="15.8" height="20"/>
	<line class="st1" x1="76.5" y1="339.1" x2="92.5" y2="339.1"/>
	<path class="st1" d="M82.3,566.9c-4.7,3.9-10.7,4.7-10.7,4.7"/>
	<path class="st1" d="M45.3,566.9c4.7,3.9,10.7,4.7,10.7,4.7"/>
	<path class="st1" d="M85.4,567c0.1,0.9-8.8,7.2-14.8,6.6"/>
	<path class="st1" d="M71,573.6c-0.4,0.3-1.2,0.6-1.8,0.6c-0.1,0-0.6-0.1-0.7-0.1c-1,0.3-3.5,1.7-8.7,0c-0.1,0-0.6,0-0.7,0
		c-1,0.2-1.9-0.2-2.3-0.5c0,0-9.2-0.5-13.5-6.4"/>
	<line class="st1" x1="81.2" y1="228" x2="81.2" y2="245.4"/>
	<polyline class="st1" points="81.2,228.2 92.5,228.2 92.5,245.4 	"/>
	<polyline class="st1" points="35.4,245.4 35.4,228.2 46.1,228.2 	"/>
	<line class="st1" x1="46.2" y1="228" x2="46.2" y2="245.3"/>
	<path class="st1" d="M116.3,738.3c0-8.3-7.9-10.3-11.6-10.8v-15.6l11.7-11.4l-0.4-61.1l-11.3-10.4v-19.7h4l5.2-4.3v-42h-3.9v-16.1
		l-5.4,0V423.2l3.3-1.3v-5.2l-3.3-1.4l0,0v-1l3.3-1.3v-5.2l-3.3-1.4v-9.9l3.3-1.3V390l-3.3-1.4v-1l3.3-1.3v-5.2l-3.3-1.4v-1.1
		l3.3-1.3v-5.2l-3.3-1.4V203.4l13.7-11.8v-64.8c0,0,0.7-41.1-13.9-46.2H23c0,0-7.5,1.1-11,17.3c-3.5,16.2-2.6,31.6-2.6,31.6v62
		l13.7,11.8v167.1l-3.6,1.4v5.2l3.6,1.4v1l-3.6,1.4v5.2l3.6,1.4v0.8l-3.6,1.4v5.2l3.6,1.4v0.8l-3.6,1.4v5.2l3.6,1.4v0.9l-3.6,1.4
		v5.2l3.6,1.4v0.9l-3.6,1.4v5.2l3.6,1.4v123.6l-5.3,0l0,16.3h-4v42l5.2,4.3h4v20.4l-11.7,10.5v60.8l11.7,11.2v15.4
		c-3.7,0.5-11.6,2.5-11.6,10.8V790H6.7v48.8c1.8,5.3,11.5,8.1,18,9.6c0,0,13.5,2.1,33.1,2.4c0,0,6,0,6,0s6,0,6,0
		c19.6-0.2,33.1-2.4,33.1-2.4c6.6-1.5,16.2-4.3,18-9.6v-48.5h-4.7v-51.8"/>
	<polyline class="st1" points="51.1,349.1 51.1,354.7 76.5,354.7 76.5,348.8 	"/>
	<polyline class="st1" points="92.4,401.3 92.4,349 23.3,349 	"/>
	<polyline class="st1" points="23,441.5 55.5,441.5 55.6,441.5 55.6,414.8 60.3,414.8 60.3,385.4 92.4,385.4 92.4,408.3 	"/>
	<path class="st1" d="M116.2,790.1h-13.3l0,58c0,0-13.5,2.1-33.1,2.4c0,0-6,0.1-6,0.1s-6,0-6-0.1l0,0c-19.6-0.2-33.1-2.4-33.1-2.4
		l0-58l-13.3,0"/>
	<path class="st1" d="M28,185c0,0,2.9-15.5-5.6-22.6"/>
	<path class="st1" d="M26.3,168c0,0,2.2-18.7-7.4-23.5"/>
	<path class="st1" d="M24.1,149.9c0,0,2.6-17.1-7.5-21.7"/>
	<path class="st1" d="M22.6,134.4c0,0,2.2-17.3-6.3-22c0,0-2.6-1.6-6.2-1.8"/>
	<polygon class="st1" points="64.4,720.5 64.4,711.9 74.4,711.9 74.4,720.5 	"/>
	<polygon class="st1" points="54.3,720.5 54.3,711.9 64.4,711.9 64.4,720.5 	"/>
	<polygon class="st1" points="74.4,720.5 74.4,711.9 84.5,711.9 84.5,720.5 	"/>
	<polygon class="st1" points="44.2,720.5 44.2,711.9 54.3,711.9 54.3,720.5 	"/>
	<polyline class="st1" points="83.9,219.3 92.4,219.3 92.4,200 84,200 84,187.1 43.7,187.1 43.7,200 33.5,200 33.5,219.3 
		43.7,219.3 	"/>
	<line class="st1" x1="22.9" y1="414.7" x2="55.5" y2="414.7"/>
	<line class="st1" x1="40.8" y1="512.9" x2="50.4" y2="521.4"/>
	<line class="st1" x1="40.8" y1="521.4" x2="50.2" y2="512.8"/>
	<line class="st1" x1="50.2" y1="512.8" x2="60.2" y2="521.5"/>
	<line class="st1" x1="50.4" y1="521.4" x2="60.4" y2="512.6"/>
	<line class="st1" x1="67.7" y1="512.9" x2="77.5" y2="521.4"/>
	<line class="st1" x1="67.5" y1="521.3" x2="77.4" y2="512.8"/>
	<line class="st1" x1="77.6" y1="512.9" x2="87.3" y2="521.5"/>
	<line class="st1" x1="77.8" y1="521.4" x2="87.3" y2="512.8"/>
	<line class="st1" x1="43.9" y1="210.7" x2="53.6" y2="219"/>
	<line class="st1" x1="43.9" y1="219.1" x2="53.6" y2="210.6"/>
	<line class="st1" x1="54.2" y1="211" x2="63.6" y2="219.2"/>
	<line class="st1" x1="54" y1="219.2" x2="63.6" y2="210.6"/>
	<line class="st1" x1="64.2" y1="210.8" x2="73.6" y2="218.9"/>
	<line class="st1" x1="64.2" y1="219" x2="73.6" y2="210.6"/>
	<line class="st1" x1="74.2" y1="211" x2="83.8" y2="219.2"/>
	<line class="st1" x1="74.1" y1="219.1" x2="83.6" y2="210.6"/>
	<path class="st2" d="M87.4,417"/>
	<line class="st1" x1="91.8" y1="539" x2="87" y2="547.2"/>
	<line class="st1" x1="89.5" y1="539.2" x2="85.7" y2="544.6"/>
	<line class="st1" x1="87.6" y1="538.7" x2="83.9" y2="543"/>
	<line class="st1" x1="85.8" y1="537.9" x2="82.1" y2="541.7"/>
	<line class="st1" x1="84.3" y1="536.8" x2="80.4" y2="540.4"/>
	<line class="st1" x1="40.6" y1="547.4" x2="35.8" y2="539.3"/>
	<line class="st1" x1="42" y1="544.9" x2="38.2" y2="539.5"/>
	<line class="st1" x1="43.7" y1="543.3" x2="40.1" y2="539"/>
	<line class="st1" x1="45.6" y1="541.9" x2="41.9" y2="538.1"/>
	<line class="st1" x1="47.3" y1="540.6" x2="43.3" y2="537.1"/>
	<path class="st1" d="M26.5,162.9c0.3-0.3,1.3-0.9,3.3-0.9c2.8,0.1,3.2,0.8,3.2,0.8"/>
	<path class="st1" d="M26.5,166.6c0,0,0.8-1.1,3.4-1c2.8,0.1,3.1,0.8,3.1,0.8"/>
	<path class="st1" d="M26.9,169.6c0.6-0.3,1.5-0.5,3-0.5c1.8,0,2.7,0.3,3.1,0.5"/>
	<path class="st1" d="M27.8,173c0.6-0.2,1.3-0.3,2.3-0.2c1.4,0,2.3,0.2,2.8,0.4"/>
	<path class="st1" d="M28.3,177.3c0.6-0.2,1.4-0.3,2.5-0.3c1,0,1.7,0.1,2.2,0.2"/>
	<path class="st1" d="M28.4,180.9c0.6-0.2,1.4-0.3,2.6-0.3c0.9,0,1.6,0.1,2.1,0.2"/>
	<path class="st1" d="M28,184.7c0.6-0.2,1.5-0.4,2.7-0.4c1,0,1.7,0.1,2.2,0.2"/>
	<path class="st1" d="M26.5,164.7c0.3-0.3,1.3-0.9,3.3-0.9c2.8,0.1,3.2,0.8,3.2,0.8"/>
	<path class="st1" d="M26.5,168.4c0,0,0.8-1.1,3.4-1c2.8,0.1,3.1,0.8,3.1,0.8"/>
	<path class="st1" d="M27.4,171.4c0.5-0.3,1.4-0.5,2.8-0.5c1.7,0,2.5,0.3,2.9,0.5"/>
	<path class="st1" d="M28,174.8c0.5-0.2,1.3-0.3,2.2-0.2c1.3,0,2.2,0.2,2.6,0.4"/>
	<path class="st1" d="M28.3,179.2c0.6-0.2,1.4-0.3,2.5-0.3c1,0,1.7,0.1,2.2,0.2"/>
	<path class="st1" d="M28.4,182.7c0.6-0.2,1.4-0.3,2.6-0.3c0.9,0,1.6,0.1,2.1,0.2"/>
	<line class="st1" x1="74.6" y1="720.3" x2="84.3" y2="712.1"/>
	<line class="st1" x1="84.4" y1="720.4" x2="74.6" y2="712.1"/>
	<line class="st1" x1="64.4" y1="720.4" x2="74.4" y2="712"/>
	<line class="st1" x1="74.2" y1="720.3" x2="64.5" y2="712.1"/>
	<line class="st1" x1="54.4" y1="720.3" x2="64.2" y2="712.1"/>
	<line class="st1" x1="64.1" y1="720.2" x2="54.4" y2="712.1"/>
	<line class="st1" x1="44.3" y1="720.3" x2="54.2" y2="712"/>
	<line class="st1" x1="54" y1="720.2" x2="44.4" y2="712.1"/>
	<line class="st1" x1="33" y1="162.3" x2="33" y2="184.7"/>
	<path class="st1" d="M99.8,185c0,0-2.9-15.5,5.6-22.6"/>
	<path class="st1" d="M101.4,168c0,0-2.2-18.7,7.4-23.5"/>
	<path class="st1" d="M103.6,149.9c0,0-2.6-17.1,7.5-21.7"/>
	<path class="st1" d="M105.2,134.4c0,0-2.2-17.3,6.3-22c0,0,2.6-1.6,6.2-1.8"/>
	<path class="st1" d="M101.3,162.9c-0.3-0.3-1.3-0.9-3.3-0.9c-2.8,0.1-3.2,0.8-3.2,0.8"/>
	<path class="st1" d="M101.3,166.6c0,0-0.8-1.1-3.4-1c-2.8,0.1-3.1,0.8-3.1,0.8"/>
	<path class="st1" d="M100.8,169.6c-0.6-0.3-1.5-0.5-3-0.5c-1.8,0-2.7,0.3-3.1,0.5"/>
	<path class="st1" d="M99.9,173c-0.6-0.2-1.3-0.3-2.3-0.2c-1.4,0-2.3,0.2-2.8,0.4"/>
	<path class="st1" d="M99.4,177.3c-0.6-0.2-1.4-0.3-2.5-0.3c-1,0-1.7,0.1-2.3,0.2"/>
	<path class="st1" d="M99.4,180.9c-0.6-0.2-1.4-0.3-2.6-0.3c-0.9,0-1.6,0.1-2.1,0.2"/>
	<path class="st1" d="M99.7,184.7c-0.6-0.2-1.5-0.4-2.7-0.4c-1,0-1.7,0.1-2.2,0.2"/>
	<path class="st1" d="M101.3,164.7c-0.3-0.3-1.3-0.9-3.3-0.9c-2.8,0.1-3.2,0.8-3.2,0.8"/>
	<path class="st1" d="M101.3,168.4c0,0-0.8-1.1-3.4-1c-2.8,0.1-3.1,0.8-3.1,0.8"/>
	<path class="st1" d="M100.4,171.4c-0.5-0.3-1.4-0.5-2.8-0.5c-1.7,0-2.5,0.3-2.9,0.5"/>
	<path class="st1" d="M99.7,174.8c-0.5-0.2-1.3-0.3-2.2-0.2c-1.3,0-2.2,0.2-2.6,0.4"/>
	<path class="st1" d="M99.4,179.2c-0.6-0.2-1.4-0.3-2.5-0.3c-1,0-1.7,0.1-2.3,0.2"/>
	<path class="st1" d="M99.4,182.7c-0.6-0.2-1.4-0.3-2.6-0.3c-0.9,0-1.6,0.1-2.1,0.2"/>
	<line class="st1" x1="94.8" y1="162.3" x2="94.8" y2="184.7"/>
	<path class="st1" d="M72.8,228.5c-0.4,0-0.7,0.3-0.7,0.6"/>
	<line class="st1" x1="81.2" y1="228.5" x2="72.8" y2="228.5"/>
	<line class="st1" x1="72.1" y1="229.1" x2="72.1" y2="231.3"/>
	<line class="st1" x1="72.1" y1="231.3" x2="55.6" y2="231.3"/>
	<path class="st1" d="M55.6,229.1c0-0.3-0.3-0.6-0.7-0.6"/>
	<line class="st1" x1="55.6" y1="231.3" x2="55.6" y2="229.1"/>
	<line class="st1" x1="54.9" y1="228.5" x2="46.4" y2="228.5"/>
	<line class="st1" x1="64" y1="242.3" x2="64" y2="228.3"/>
	<line class="st1" x1="63.7" y1="242.3" x2="63.7" y2="228.3"/>
	<line class="st1" x1="80.8" y1="241.6" x2="64" y2="241.6"/>
	<line class="st1" x1="64" y1="228.3" x2="63.7" y2="228.3"/>
	<line class="st1" x1="64" y1="242.3" x2="63.7" y2="242.3"/>
	<line class="st1" x1="63.7" y1="241.6" x2="46.3" y2="241.6"/>
	<line class="st1" x1="63.7" y1="240.1" x2="56.3" y2="240.1"/>
	<line class="st1" x1="63.7" y1="238.6" x2="56.3" y2="238.6"/>
	<line class="st1" x1="63.7" y1="237.2" x2="56.3" y2="237.2"/>
	<line class="st1" x1="63.7" y1="235.7" x2="56.3" y2="235.7"/>
	<line class="st1" x1="63.7" y1="234.2" x2="56.3" y2="234.2"/>
	<line class="st1" x1="63.7" y1="232.7" x2="56.3" y2="232.7"/>
	<line class="st1" x1="63.7" y1="229.7" x2="55.6" y2="229.7"/>
	<line class="st1" x1="71.4" y1="240.1" x2="64" y2="240.1"/>
	<line class="st1" x1="71.4" y1="238.6" x2="64" y2="238.6"/>
	<line class="st1" x1="71.4" y1="237.2" x2="64" y2="237.2"/>
	<line class="st1" x1="71.4" y1="235.7" x2="64" y2="235.7"/>
	<line class="st1" x1="71.4" y1="234.2" x2="64" y2="234.2"/>
	<line class="st1" x1="71.4" y1="232.7" x2="64" y2="232.7"/>
	<line class="st1" x1="72.1" y1="229.7" x2="64" y2="229.7"/>
	<line class="st1" x1="46.2" y1="230" x2="55" y2="230"/>
	<line class="st1" x1="46.4" y1="231.5" x2="55.9" y2="231.5"/>
	<line class="st1" x1="46.2" y1="232.9" x2="55" y2="232.9"/>
	<line class="st1" x1="46.4" y1="234.4" x2="54.9" y2="234.4"/>
	<line class="st1" x1="72.1" y1="230" x2="81" y2="230"/>
	<line class="st1" x1="72" y1="231.5" x2="81.1" y2="231.5"/>
	<line class="st1" x1="72.8" y1="232.9" x2="81.2" y2="232.9"/>
	<line class="st1" x1="72.8" y1="234.4" x2="81.1" y2="234.4"/>
	<path class="st1" d="M54.8,242.5c0,0.3,0.3,0.6,0.7,0.6c0.4,0,0.7-0.3,0.7-0.6l0,0"/>
	<line class="st1" x1="56.2" y1="242.5" x2="56.2" y2="242.3"/>
	<line class="st1" x1="54.8" y1="242.5" x2="54.8" y2="242.3"/>
	<path class="st1" d="M71.4,242.5c0,0.3,0.3,0.6,0.7,0.6c0.4,0,0.7-0.3,0.7-0.6l0,0"/>
	<line class="st1" x1="72.8" y1="242.5" x2="72.8" y2="242.3"/>
	<line class="st1" x1="71.4" y1="242.5" x2="71.4" y2="242.3"/>
	<line class="st1" x1="55.5" y1="242.3" x2="55.5" y2="231.5"/>
	<line class="st1" x1="46.4" y1="237.3" x2="55" y2="237.3"/>
	<line class="st1" x1="46.4" y1="238.8" x2="55" y2="238.8"/>
	<line class="st1" x1="46.5" y1="240.2" x2="55" y2="240.2"/>
	<line class="st1" x1="46.4" y1="235.8" x2="55" y2="235.8"/>
	<line class="st1" x1="72.1" y1="242.3" x2="72.1" y2="231.3"/>
	<line class="st1" x1="72.8" y1="237.3" x2="81" y2="237.3"/>
	<line class="st1" x1="72.8" y1="238.8" x2="81" y2="238.8"/>
	<line class="st1" x1="72.8" y1="240.2" x2="80.9" y2="240.2"/>
	<line class="st1" x1="72.7" y1="235.8" x2="81.2" y2="235.8"/>
	<path class="st1" d="M54.6,500.8c0.4,0,0.7-0.3,0.7-0.6"/>
	<line class="st1" x1="46.4" y1="500.8" x2="54.6" y2="500.8"/>
	<line class="st1" x1="55.3" y1="500.2" x2="55.3" y2="498"/>
	<line class="st1" x1="55.3" y1="498" x2="71.6" y2="498"/>
	<path class="st1" d="M71.6,500.2c0,0.3,0.3,0.6,0.7,0.6"/>
	<line class="st1" x1="71.6" y1="498" x2="71.6" y2="500.2"/>
	<line class="st1" x1="72.3" y1="500.8" x2="80.6" y2="500.8"/>
	<line class="st1" x1="63.3" y1="487" x2="63.3" y2="501"/>
	<line class="st1" x1="63.6" y1="487" x2="63.6" y2="501"/>
	<line class="st1" x1="46.8" y1="487.7" x2="63.3" y2="487.7"/>
	<line class="st1" x1="63.3" y1="501" x2="63.6" y2="501"/>
	<line class="st1" x1="63.3" y1="487" x2="63.6" y2="487"/>
	<line class="st1" x1="63.6" y1="487.7" x2="80.7" y2="487.7"/>
	<line class="st1" x1="63.6" y1="489.2" x2="70.9" y2="489.2"/>
	<line class="st1" x1="63.6" y1="490.6" x2="70.9" y2="490.6"/>
	<line class="st1" x1="63.6" y1="492.1" x2="70.9" y2="492.1"/>
	<line class="st1" x1="63.6" y1="493.6" x2="70.9" y2="493.6"/>
	<line class="st1" x1="63.6" y1="495.1" x2="70.9" y2="495.1"/>
	<line class="st1" x1="63.6" y1="496.6" x2="70.9" y2="496.6"/>
	<line class="st1" x1="63.6" y1="499.6" x2="71.5" y2="499.6"/>
	<line class="st1" x1="56" y1="489.2" x2="63.3" y2="489.2"/>
	<line class="st1" x1="56" y1="490.6" x2="63.3" y2="490.6"/>
	<line class="st1" x1="56" y1="492.1" x2="63.3" y2="492.1"/>
	<line class="st1" x1="56" y1="493.6" x2="63.3" y2="493.6"/>
	<line class="st1" x1="56" y1="495.1" x2="63.3" y2="495.1"/>
	<line class="st1" x1="56" y1="496.6" x2="63.3" y2="496.6"/>
	<line class="st1" x1="55.3" y1="499.6" x2="63.3" y2="499.6"/>
	<line class="st1" x1="80.8" y1="499.3" x2="72.2" y2="499.3"/>
	<line class="st1" x1="80.6" y1="497.8" x2="71.3" y2="497.8"/>
	<line class="st1" x1="80.8" y1="496.4" x2="72.2" y2="496.4"/>
	<line class="st1" x1="80.6" y1="494.9" x2="72.2" y2="494.9"/>
	<line class="st1" x1="55.3" y1="499.3" x2="46.5" y2="499.3"/>
	<line class="st1" x1="55.4" y1="497.8" x2="46.5" y2="497.8"/>
	<line class="st1" x1="54.7" y1="496.4" x2="46.4" y2="496.4"/>
	<line class="st1" x1="54.7" y1="494.9" x2="46.5" y2="494.9"/>
	<path class="st1" d="M72.3,486.8c0-0.3-0.3-0.6-0.7-0.6c-0.4,0-0.7,0.3-0.7,0.6l0,0"/>
	<line class="st1" x1="71" y1="486.8" x2="71" y2="487"/>
	<line class="st1" x1="72.3" y1="486.8" x2="72.3" y2="487"/>
	<path class="st1" d="M56,486.8c0-0.3-0.3-0.6-0.7-0.6c-0.4,0-0.7,0.3-0.7,0.6l0,0"/>
	<line class="st1" x1="54.7" y1="486.8" x2="54.7" y2="487"/>
	<line class="st1" x1="56" y1="486.8" x2="56" y2="487"/>
	<line class="st1" x1="71.6" y1="487" x2="71.6" y2="497.8"/>
	<line class="st1" x1="80.6" y1="492" x2="72.2" y2="492"/>
	<line class="st1" x1="80.6" y1="490.5" x2="72.2" y2="490.5"/>
	<line class="st1" x1="80.5" y1="489.1" x2="72.2" y2="489.1"/>
	<line class="st1" x1="80.6" y1="493.5" x2="72.2" y2="493.5"/>
	<line class="st1" x1="55.3" y1="487" x2="55.3" y2="498"/>
	<line class="st1" x1="54.7" y1="492" x2="46.5" y2="492"/>
	<line class="st1" x1="54.7" y1="490.5" x2="46.6" y2="490.5"/>
	<line class="st1" x1="54.7" y1="489.1" x2="46.6" y2="489.1"/>
	<line class="st1" x1="54.8" y1="493.5" x2="46.4" y2="493.5"/>
	<path class="st1" d="M72,728.2c-0.3,0-0.6,0.3-0.6,0.7"/>
	<line class="st1" x1="79.5" y1="728.2" x2="72" y2="728.2"/>
	<line class="st1" x1="71.3" y1="728.8" x2="71.3" y2="731.4"/>
	<line class="st1" x1="71.3" y1="731.4" x2="56.5" y2="731.4"/>
	<path class="st1" d="M56.5,728.8c0-0.4-0.3-0.7-0.6-0.7"/>
	<line class="st1" x1="56.5" y1="731.4" x2="56.5" y2="728.8"/>
	<line class="st1" x1="55.9" y1="728.2" x2="48.3" y2="728.2"/>
	<line class="st1" x1="64.1" y1="743.9" x2="64.1" y2="727.9"/>
	<line class="st1" x1="63.8" y1="743.9" x2="63.8" y2="727.9"/>
	<line class="st1" x1="79.2" y1="743.1" x2="64.1" y2="743.1"/>
	<line class="st1" x1="64.1" y1="727.9" x2="63.8" y2="727.9"/>
	<line class="st1" x1="64.1" y1="743.9" x2="63.8" y2="743.9"/>
	<line class="st1" x1="63.8" y1="743.1" x2="48.2" y2="743.1"/>
	<line class="st1" x1="63.8" y1="741.4" x2="57.2" y2="741.4"/>
	<line class="st1" x1="63.8" y1="739.7" x2="57.2" y2="739.7"/>
	<line class="st1" x1="63.8" y1="738" x2="57.2" y2="738"/>
	<line class="st1" x1="63.8" y1="736.3" x2="57.2" y2="736.3"/>
	<line class="st1" x1="63.8" y1="734.6" x2="57.2" y2="734.6"/>
	<line class="st1" x1="63.8" y1="732.9" x2="57.2" y2="732.9"/>
	<line class="st1" x1="63.8" y1="729.6" x2="56.6" y2="729.6"/>
	<line class="st1" x1="70.7" y1="741.4" x2="64.1" y2="741.4"/>
	<line class="st1" x1="70.7" y1="739.7" x2="64.1" y2="739.7"/>
	<line class="st1" x1="70.7" y1="738" x2="64.1" y2="738"/>
	<line class="st1" x1="70.7" y1="736.3" x2="64.1" y2="736.3"/>
	<line class="st1" x1="70.7" y1="734.6" x2="64.1" y2="734.6"/>
	<line class="st1" x1="70.7" y1="732.9" x2="64.1" y2="732.9"/>
	<line class="st1" x1="71.4" y1="729.6" x2="64.1" y2="729.6"/>
	<line class="st1" x1="48.2" y1="729.8" x2="56" y2="729.8"/>
	<line class="st1" x1="48.3" y1="731.5" x2="56.8" y2="731.5"/>
	<line class="st1" x1="48.1" y1="733.2" x2="56" y2="733.2"/>
	<line class="st1" x1="48.3" y1="734.8" x2="55.9" y2="734.8"/>
	<line class="st1" x1="71.3" y1="729.8" x2="79.4" y2="729.8"/>
	<line class="st1" x1="71.3" y1="731.5" x2="79.4" y2="731.5"/>
	<line class="st1" x1="71.9" y1="733.2" x2="79.5" y2="733.2"/>
	<line class="st1" x1="71.9" y1="734.8" x2="79.4" y2="734.8"/>
	<path class="st1" d="M55.9,744.1c0,0.4,0.3,0.6,0.6,0.6c0.3,0,0.6-0.3,0.6-0.6l0,0"/>
	<line class="st1" x1="57.1" y1="744.1" x2="57.1" y2="743.9"/>
	<line class="st1" x1="55.9" y1="744.1" x2="55.9" y2="743.9"/>
	<path class="st1" d="M70.7,744.1c0,0.4,0.3,0.6,0.6,0.6c0.3,0,0.6-0.3,0.6-0.6l0,0"/>
	<line class="st1" x1="71.9" y1="744.1" x2="71.9" y2="743.9"/>
	<line class="st1" x1="70.7" y1="744.1" x2="70.7" y2="743.9"/>
	<line class="st1" x1="56.5" y1="743.9" x2="56.5" y2="731.6"/>
	<line class="st1" x1="48.3" y1="738.2" x2="56" y2="738.2"/>
	<line class="st1" x1="48.3" y1="739.8" x2="56" y2="739.8"/>
	<line class="st1" x1="48.4" y1="741.5" x2="56" y2="741.5"/>
	<line class="st1" x1="48.3" y1="736.5" x2="56" y2="736.5"/>
	<line class="st1" x1="71.3" y1="743.9" x2="71.3" y2="731.3"/>
	<line class="st1" x1="71.9" y1="738.2" x2="79.4" y2="738.2"/>
	<line class="st1" x1="71.9" y1="739.8" x2="79.3" y2="739.8"/>
	<line class="st1" x1="71.9" y1="741.5" x2="79.3" y2="741.5"/>
	<line class="st1" x1="71.9" y1="736.5" x2="79.5" y2="736.5"/>
	<path class="st1" d="M74.6,838.7v-15.3c0-3.9-4.4-7-9.9-7c-5.5,0-9.9,3.1-9.9,7v15.3c2.9-1.1,6.3-1.7,9.9-1.7
		C68.3,837,71.6,837.6,74.6,838.7z"/>
	<path class="st1" d="M103.2,842.2l-19.1,0.9v-2l-4.7,0.1c-1.4-1-3-1.9-4.8-2.5c-2.9-1.1-6.3-1.7-9.9-1.7c-3.6,0-7,0.6-9.9,1.7
		c-1.8,0.7-3.5,1.5-4.9,2.5l-4.7-0.1v2l-20.3-0.7v5.9"/>
	<polyline class="st1" points="92.4,727.3 104.7,727.3 104.7,756.1 116.2,756.1 	"/>
	<polyline class="st1" points="38.7,727.3 22.8,727.3 22.8,756.1 11.5,756.1 	"/>
	<polygon class="st1" points="78.3,747.4 78.3,747.5 35.4,747.5 35.4,756.1 92.5,756.1 92.5,747.4 	"/>
	<line class="st1" x1="22.9" y1="245.5" x2="104.7" y2="245.5"/>
	<line class="st1" x1="22.8" y1="329" x2="92.5" y2="329"/>
	<path class="st1" d="M70.1,416.8v-7.5 M71.9,416.7v-7.6 M73.6,416.7V409 M75.4,416.7v-7.8 M77.1,416.8v-7.9 M78.6,416.7v-7.8
		 M80.2,416.8v-8.4 M60.5,409.5h9.2 M60.5,408.1h9.2 M60.5,406.5l9.1,0"/>
	<line class="st1" x1="82" y1="417" x2="82" y2="408.7"/>
	<line class="st1" x1="83.7" y1="417" x2="83.7" y2="408.6"/>
	<line class="st1" x1="85.5" y1="417" x2="85.5" y2="408.5"/>
	<line class="st1" x1="87.2" y1="417" x2="87.2" y2="408.5"/>
	<line class="st1" x1="88.7" y1="417" x2="88.7" y2="408.5"/>
	<line class="st1" x1="90.4" y1="417" x2="90.4" y2="408.1"/>
	<polyline class="st1" points="60.7,403.8 69.7,406.3 69.7,409.2 92.6,408.1 92.6,385.2 60.5,385.2 60.5,413.5 	"/>
	<path class="st3" d="M69.9,390.1v-0.3c0-1.8,0.6-2.7,1.5-2.7c0.9,0,1.5,0.9,1.5,2.7v0.3c0,1.8-0.6,2.7-1.5,2.7
		S69.9,391.9,69.9,390.1z M71.9,390.1v-0.3c0-1.4-0.2-1.8-0.5-1.8s-0.5,0.4-0.5,1.8v0.3c0,1.4,0.2,1.8,0.5,1.8
		S71.9,391.5,71.9,390.1z M73.3,387.1h0.9c1.1,0,1.8,0.6,1.8,1.9v0c0,1.3-0.7,1.9-1.7,1.9h0v1.8h-1V387.1z M74.3,390.1
		c0.4,0,0.7-0.3,0.7-1v0c0-0.7-0.3-1-0.7-1h0L74.3,390.1L74.3,390.1L74.3,390.1z M76.4,387.1h2.1v0.9h-1.2v1.4h1v0.9h-1v1.4h1.2v0.9
		h-2.2V387.1z M79.1,387.1H80l1,2.8v-2.8h1v5.6H81l-1-3v3h-1C79.1,392.7,79.1,387.1,79.1,387.1z M84.3,388.1h-0.7v-0.9h2.4v0.9h-0.7
		v4.7h-1C84.3,392.7,84.3,388.1,84.3,388.1z M86.1,390.1v-0.3c0-1.8,0.6-2.7,1.5-2.7s1.5,0.9,1.5,2.7v0.3c0,1.8-0.6,2.7-1.5,2.7
		S86.1,391.9,86.1,390.1z M88.1,390.1v-0.3c0-1.4-0.2-1.8-0.5-1.8s-0.5,0.4-0.5,1.8v0.3c0,1.4,0.2,1.8,0.5,1.8
		S88.1,391.5,88.1,390.1z M73.2,394.1h0.9c1.2,0,2,0.9,2,2.7v0.2c0,1.8-0.7,2.7-2,2.7h-0.9V394.1z M74.2,398.8
		c0.5,0,0.9-0.4,0.9-1.8v-0.2c0-1.4-0.4-1.8-0.9-1.8h0L74.2,398.8L74.2,398.8z M76.6,394.1h2.1v0.9h-1.2v1.4h1v0.9h-1v1.4h1.2v0.9
		h-2.2V394.1z M79,397v-0.2c0-2,0.7-2.7,1.6-2.7c0.3,0,0.4,0,0.6,0.1v1c-0.2-0.1-0.4-0.2-0.5-0.2c-0.4,0-0.7,0.4-0.7,1.8v0.2
		c0,1.5,0.3,1.8,0.8,1.8c0.2,0,0.3-0.1,0.5-0.2v1c-0.2,0.1-0.4,0.2-0.7,0.2C79.7,399.8,79,399,79,397z M81.8,394.1h1v2.3l0.8-2.3
		h1.1l-0.9,2.4l1,3.2h-1.1l-0.6-2.1l-0.2,0.6v1.5h-1L81.8,394.1L81.8,394.1z M71.8,401.1h0.8c0.9,0,1.8,0.4,1.8,1.4v0
		c0,0.7-0.4,1.1-0.8,1.3c0.5,0.2,0.9,0.5,0.9,1.2v0.1c0,1-0.8,1.6-1.9,1.6h-0.9L71.8,401.1L71.8,401.1z M72.8,403.5
		c0.4,0,0.7-0.2,0.7-0.7v0c0-0.5-0.3-0.7-0.7-0.7h0L72.8,403.5L72.8,403.5z M72.8,405.8c0.4,0,0.8-0.3,0.8-0.7v0
		c0-0.5-0.3-0.7-0.8-0.7h0L72.8,405.8L72.8,405.8L72.8,405.8z M74.9,401.1h2.1v0.9h-1.2v1.4h1v0.9h-1v1.4h1.2v0.9h-2.2V401.1z
		 M77.6,401.1h1v4.7h1v0.9h-2V401.1z M79.7,404.1v-0.3c0-1.8,0.6-2.7,1.5-2.7s1.5,0.9,1.5,2.7v0.3c0,1.8-0.6,2.7-1.5,2.7
		S79.7,405.9,79.7,404.1z M81.6,404.1v-0.3c0-1.4-0.2-1.8-0.5-1.8s-0.5,0.4-0.5,1.8v0.3c0,1.4,0.2,1.8,0.5,1.8
		S81.6,405.5,81.6,404.1z M82.8,401.1h1l0.4,3.4l0.5-3.4h0.9l0.5,3.4l0.4-3.4h1l-0.8,5.6h-1l-0.5-3.3l-0.5,3.3h-1L82.8,401.1z"/>
	<path class="st3" d="M81.5,341.7h1c1,0,1.7,0.5,1.7,1.8v0.1c0,0.7-0.3,1.2-0.7,1.5l0.8,2.3h-1l-0.6-2h-0.2v2h-1V341.7z M82.5,344.5
		c0.4,0,0.7-0.2,0.7-0.9v-0.1c0-0.7-0.3-0.9-0.8-0.9h0L82.5,344.5L82.5,344.5z M84.7,341.7h1c1,0,1.7,0.5,1.7,1.8v0.1
		c0,0.7-0.3,1.2-0.7,1.5l0.8,2.3h-1l-0.6-2h-0.2v2h-1L84.7,341.7L84.7,341.7z M85.7,344.5c0.4,0,0.7-0.2,0.7-0.9v-0.1
		c0-0.7-0.3-0.9-0.8-0.9h0L85.7,344.5L85.7,344.5z"/>
	<path class="st3" d="M81.5,331.5h1c1,0,1.7,0.5,1.7,1.8v0.1c0,0.7-0.3,1.2-0.7,1.5l0.8,2.3h-1l-0.6-2h-0.2v2h-1V331.5z M82.5,334.3
		c0.4,0,0.7-0.2,0.7-0.9v-0.1c0-0.7-0.3-0.9-0.8-0.9h0L82.5,334.3L82.5,334.3z M84.7,331.5h1c1,0,1.7,0.5,1.7,1.8v0.1
		c0,0.7-0.3,1.2-0.7,1.5l0.8,2.3h-1l-0.6-2h-0.2v2h-1L84.7,331.5L84.7,331.5z M85.7,334.3c0.4,0,0.7-0.2,0.7-0.9v-0.1
		c0-0.7-0.3-0.9-0.8-0.9h0L85.7,334.3L85.7,334.3z"/>
	<path class="st3" d="M38.3,239.1v-1c0-1,0.5-1.7,1.8-1.7h0.1c0.7,0,1.2,0.3,1.5,0.7l2.3-0.8v1l-2,0.6v0.2h2v1L38.3,239.1
		L38.3,239.1z M41.1,238c0-0.4-0.2-0.7-0.9-0.7h-0.1c-0.7,0-0.9,0.3-0.9,0.8v0L41.1,238L41.1,238z M38.3,235.9v-1
		c0-1,0.5-1.7,1.8-1.7h0.1c0.7,0,1.2,0.3,1.5,0.7l2.3-0.8v1l-2,0.6v0.2h2v1L38.3,235.9L38.3,235.9z M41.1,234.8
		c0-0.4-0.2-0.7-0.9-0.7h-0.1c-0.7,0-0.9,0.3-0.9,0.8v0L41.1,234.8L41.1,234.8z"/>
	<path class="st3" d="M83.9,238.7v-1c0-1,0.5-1.7,1.8-1.7h0.1c0.7,0,1.2,0.3,1.5,0.7l2.3-0.8v1l-2,0.6v0.2h2v1L83.9,238.7
		L83.9,238.7z M86.7,237.6c0-0.4-0.2-0.7-0.9-0.7h-0.1c-0.7,0-0.9,0.3-0.9,0.8v0L86.7,237.6L86.7,237.6z M83.9,235.5v-1
		c0-1,0.5-1.7,1.8-1.7h0.1c0.7,0,1.2,0.3,1.5,0.7l2.3-0.8v1l-2,0.6v0.2h2v1L83.9,235.5L83.9,235.5z M86.7,234.5
		c0-0.4-0.2-0.7-0.9-0.7h-0.1c-0.7,0-0.9,0.3-0.9,0.8v0L86.7,234.5L86.7,234.5z"/>
	<path class="st3" d="M51.7,362.2v-1c0.3,0.2,0.6,0.3,0.9,0.3c0.3,0,0.5-0.1,0.5-0.5v0c0-0.3-0.1-0.4-0.5-1
		c-0.7-0.8-0.9-1.1-0.9-1.8v0c0-0.9,0.6-1.5,1.4-1.5c0.4,0,0.6,0.1,0.9,0.2v1c-0.3-0.2-0.5-0.3-0.7-0.3c-0.3,0-0.5,0.2-0.5,0.5v0
		c0,0.3,0.1,0.4,0.5,0.9c0.8,0.9,0.9,1.2,0.9,1.9v0c0,0.9-0.6,1.5-1.4,1.5C52.3,362.4,52,362.3,51.7,362.2z M54.4,360.7v-4h1v4.1
		c0,0.5,0.2,0.7,0.4,0.7s0.4-0.2,0.4-0.7v-4.1h1v4c0,1.2-0.6,1.7-1.4,1.7C55,362.4,54.4,361.9,54.4,360.7z M57.6,362.2v-1
		c0.3,0.2,0.6,0.3,0.9,0.3c0.3,0,0.5-0.1,0.5-0.5v0c0-0.3-0.1-0.4-0.5-1c-0.7-0.8-0.9-1.1-0.9-1.8v0c0-0.9,0.6-1.5,1.4-1.5
		c0.4,0,0.6,0.1,0.9,0.2v1c-0.3-0.2-0.5-0.3-0.7-0.3c-0.3,0-0.5,0.2-0.5,0.5v0c0,0.3,0.1,0.4,0.5,0.9c0.8,0.9,0.9,1.2,0.9,1.9v0
		c0,0.9-0.6,1.5-1.4,1.5C58.2,362.4,57.9,362.3,57.6,362.2z M60.3,356.7h1v2.3h0.8v-2.3h1v5.6h-1V360h-0.8v2.4h-1V356.7z
		 M63.7,356.7h1v5.6h-1V356.7z M66.6,356.7h0.8c0.9,0,1.8,0.4,1.8,1.4v0c0,0.7-0.4,1.1-0.8,1.3c0.5,0.2,0.9,0.5,0.9,1.2v0.1
		c0,1-0.8,1.6-1.9,1.6h-0.9L66.6,356.7L66.6,356.7z M67.5,359.1c0.4,0,0.7-0.2,0.7-0.7v0c0-0.5-0.3-0.7-0.7-0.7h0L67.5,359.1
		L67.5,359.1z M67.6,361.4c0.4,0,0.8-0.3,0.8-0.7v0c0-0.5-0.3-0.7-0.8-0.7h0L67.6,361.4L67.6,361.4L67.6,361.4z M70.5,356.7h1
		l1.1,5.6h-1l-0.2-1.1h-0.9l-0.2,1.1h-0.9L70.5,356.7z M71.3,360.4l-0.3-1.8l-0.3,1.8H71.3z M72.9,356.7h1c1,0,1.7,0.5,1.7,1.8v0.1
		c0,0.7-0.3,1.2-0.7,1.5l0.8,2.3h-1l-0.6-2h-0.2v2h-1L72.9,356.7L72.9,356.7L72.9,356.7z M73.9,359.5c0.4,0,0.7-0.2,0.7-0.9v-0.1
		c0-0.7-0.3-0.9-0.8-0.9h0L73.9,359.5L73.9,359.5z"/>
	<path class="st3" d="M78,370.9v-1c0.3,0.2,0.6,0.3,0.9,0.3c0.3,0,0.5-0.1,0.5-0.5v0c0-0.3-0.1-0.4-0.5-1c-0.7-0.8-0.9-1.1-0.9-1.8
		v0c0-0.9,0.6-1.5,1.4-1.5c0.4,0,0.6,0.1,0.9,0.2v1c-0.3-0.2-0.5-0.3-0.7-0.3c-0.3,0-0.5,0.2-0.5,0.5v0c0,0.3,0.1,0.4,0.5,0.9
		c0.8,0.9,0.9,1.2,0.9,1.9v0c0,0.9-0.6,1.5-1.4,1.5C78.6,371.1,78.3,371,78,370.9z M81.5,365.5h1l1.1,5.6h-1l-0.2-1.1h-0.9l-0.2,1.1
		h-0.9L81.5,365.5z M82.3,369.1l-0.3-1.8l-0.3,1.8H82.3z M83.9,365.5h1v2.3l0.8-2.3h1.1l-0.9,2.4l1,3.2h-1.1l-0.6-2.1l-0.2,0.6v1.5
		h-1L83.9,365.5L83.9,365.5z M87.2,365.5h2.1v0.9h-1.2v1.4h1v0.9h-1v1.4h1.2v0.9h-2.2V365.5z M79.2,372.5h0.8c0.9,0,1.8,0.4,1.8,1.4
		v0c0,0.7-0.4,1.1-0.8,1.3c0.5,0.2,0.9,0.5,0.9,1.2v0.1c0,1-0.8,1.6-1.9,1.6h-0.9C79.2,378.1,79.2,372.5,79.2,372.5z M80.2,374.8
		c0.4,0,0.7-0.2,0.7-0.7v0c0-0.5-0.3-0.7-0.7-0.7h0L80.2,374.8L80.2,374.8L80.2,374.8z M80.2,377.2c0.4,0,0.8-0.3,0.8-0.7v0
		c0-0.5-0.3-0.7-0.8-0.7h0L80.2,377.2L80.2,377.2z M83.1,372.5h1l1.1,5.6h-1l-0.2-1.1h-0.9l-0.2,1.1h-0.9L83.1,372.5z M83.9,376.1
		l-0.3-1.8l-0.3,1.8H83.9z M85.5,372.5h1c1,0,1.7,0.5,1.7,1.8v0.1c0,0.7-0.3,1.2-0.7,1.5l0.8,2.3h-1l-0.6-2h-0.2v2h-1V372.5z
		 M86.6,375.3c0.4,0,0.7-0.2,0.7-0.9v-0.1c0-0.7-0.3-0.9-0.8-0.9h0L86.6,375.3L86.6,375.3z"/>
	<path class="st3" d="M25.8,425h-0.7v-0.9h2.4v0.9h-0.7v4.7h-1L25.8,425L25.8,425z M27.9,424.1h2.1v0.9h-1.2v1.4h1v0.9h-1v1.4h1.2
		v0.9h-2.2V424.1z M30.5,424.1h0.9c1.1,0,1.8,0.6,1.8,1.9v0c0,1.3-0.7,1.9-1.7,1.9h0v1.8h-1C30.5,429.7,30.5,424.1,30.5,424.1z
		 M31.5,427c0.4,0,0.7-0.3,0.7-1v0c0-0.7-0.3-1-0.7-1h0L31.5,427L31.5,427L31.5,427z M33.6,424.1h0.9c1.1,0,1.8,0.6,1.8,1.9v0
		c0,1.3-0.7,1.9-1.7,1.9h0v1.8h-1V424.1z M34.6,427c0.4,0,0.7-0.3,0.7-1v0c0-0.7-0.3-1-0.7-1h0L34.6,427L34.6,427L34.6,427z
		 M37.2,424h1l1.1,5.6h-1l-0.2-1.1h-0.9l-0.2,1.1h-0.9L37.2,424z M38,427.7l-0.3-1.8l-0.3,1.8H38z M39.6,424.1h0.9l1,2.8v-2.8h1v5.6
		h-0.9l-1-3v3h-1C39.6,429.7,39.6,424.1,39.6,424.1z M43.8,427.5l-1-3.4h1l0.5,2.1l0.5-2.1h1l-1,3.4v2.2h-1L43.8,427.5L43.8,427.5z
		 M46.6,424h1l1.1,5.6h-1l-0.2-1.1h-0.9l-0.2,1.1h-0.9L46.6,424z M47.4,427.7l-0.3-1.8l-0.3,1.8H47.4z M49,424.1h1v2.3l0.8-2.3h1.1
		l-0.9,2.4l1,3.2h-1.1l-0.6-2.1l-0.2,0.6v1.5h-1L49,424.1L49,424.1z M52.2,424.1h1v5.6h-1V424.1z"/>
	<path class="st3" d="M46,587v-0.2c0-1.8,0.8-2.7,1.9-2.7c0.3,0,0.5,0.1,0.7,0.2v1c-0.2-0.1-0.5-0.2-0.7-0.2c-0.6,0-0.9,0.6-0.9,1.8
		v0.3c0,1.5,0.4,1.8,0.8,1.8c0,0,0,0,0.1,0v-1.4h-0.5v-0.9h1.4v3c-0.4,0.2-0.6,0.2-1,0.2C46.8,589.8,46,589,46,587z M49.3,584.1h1
		c1,0,1.7,0.5,1.7,1.8v0.1c0,0.7-0.3,1.2-0.7,1.5l0.8,2.3h-1l-0.6-2h-0.2v2h-1V584.1z M50.4,586.9c0.4,0,0.7-0.2,0.7-0.9v-0.1
		c0-0.7-0.3-0.9-0.8-0.9h0L50.4,586.9L50.4,586.9z M53.3,584.1h1l1.1,5.6h-1l-0.2-1.1h-0.9l-0.2,1.1h-0.9L53.3,584.1z M54.1,587.7
		l-0.3-1.8l-0.3,1.8H54.1z M55.7,584.1h0.9l1,2.8v-2.8h1v5.6h-0.9l-1-3v3h-1L55.7,584.1L55.7,584.1z M59.1,584.1H60
		c1.2,0,2,0.9,2,2.7v0.2c0,1.8-0.7,2.7-2,2.7h-0.9V584.1z M60.1,588.8c0.5,0,0.9-0.4,0.9-1.8v-0.2c0-1.4-0.4-1.8-0.9-1.8h0
		L60.1,588.8L60.1,588.8z M64.5,584.1h1l1.1,5.6h-1l-0.2-1.1h-0.9l-0.2,1.1h-0.9L64.5,584.1z M65.3,587.7l-0.3-1.8l-0.3,1.8H65.3z
		 M67.2,585.1h-0.7v-0.9h2.4v0.9h-0.7v4.7h-1L67.2,585.1L67.2,585.1z M69.3,584.1h1c1,0,1.7,0.5,1.7,1.8v0.1c0,0.7-0.3,1.2-0.7,1.5
		l0.8,2.3h-1l-0.6-2h-0.2v2h-1L69.3,584.1L69.3,584.1z M70.3,586.9c0.4,0,0.7-0.2,0.7-0.9v-0.1c0-0.7-0.3-0.9-0.8-0.9h0L70.3,586.9
		L70.3,586.9z M72.5,584.1h1v5.6h-1V584.1z M74,588.1v-4h1v4.1c0,0.5,0.2,0.7,0.4,0.7s0.4-0.2,0.4-0.7v-4.1h1v4
		c0,1.2-0.6,1.7-1.4,1.7C74.6,589.8,74,589.3,74,588.1z M77.4,584.1h1l0.7,2l0.7-2h1v5.6h-0.9v-3.4l-0.7,2.1h0l-0.7-2.1v3.4h-0.9
		L77.4,584.1L77.4,584.1z"/>
	<path class="st3" d="M23.7,655.3H23v-0.9h2.4v0.9h-0.7v4.7h-1L23.7,655.3L23.7,655.3z M25.8,654.3h1v2.3h0.8v-2.3h1v5.6h-1v-2.4
		h-0.8v2.4h-1V654.3z M29.2,654.3h2.1v0.9h-1.2v1.4h1v0.9h-1v1.4h1.2v0.9h-2.2V654.3z M18.5,664.2V664c0-2,0.7-2.7,1.6-2.7
		c0.3,0,0.4,0,0.6,0.1v1c-0.2-0.1-0.4-0.2-0.5-0.2c-0.4,0-0.7,0.4-0.7,1.8v0.2c0,1.5,0.3,1.8,0.8,1.8c0.2,0,0.3-0.1,0.5-0.2v1
		c-0.2,0.1-0.4,0.2-0.7,0.2C19.2,667,18.5,666.2,18.5,664.2z M21.3,661.3h2.1v0.9h-1.2v1.4h1v0.9h-1v1.4h1.2v0.9h-2.2V661.3z
		 M23.9,661.3h1v4.7h1v0.9h-2V661.3z M26.3,661.3h1v4.7h1v0.9h-2V661.3z M29.5,661.3h1l1.1,5.6h-1l-0.2-1.1h-0.9l-0.2,1.1h-0.9
		L29.5,661.3z M30.3,664.9l-0.3-1.8l-0.3,1.8H30.3z M31.9,661.3h1c1,0,1.7,0.5,1.7,1.8v0.1c0,0.7-0.3,1.2-0.7,1.5l0.8,2.3h-1l-0.6-2
		h-0.2v2h-1L31.9,661.3L31.9,661.3z M32.9,664.1c0.4,0,0.7-0.2,0.7-0.9v-0.1c0-0.7-0.3-0.9-0.8-0.9h0L32.9,664.1L32.9,664.1z
		 M35,666.7v-1c0.3,0.2,0.6,0.3,0.9,0.3c0.3,0,0.5-0.1,0.5-0.5v0c0-0.3-0.1-0.4-0.5-1c-0.7-0.8-0.9-1.1-0.9-1.8v0
		c0-0.9,0.6-1.5,1.4-1.5c0.4,0,0.6,0.1,0.9,0.2v1c-0.3-0.2-0.5-0.3-0.7-0.3c-0.3,0-0.5,0.2-0.5,0.5v0c0,0.3,0.1,0.4,0.5,0.9
		c0.8,0.9,0.9,1.2,0.9,1.9v0c0,0.9-0.6,1.5-1.4,1.5C35.6,667,35.2,666.9,35,666.7z M15.7,668.3h1l0.4,3.4l0.5-3.4h0.9l0.5,3.4
		l0.4-3.4h1l-0.8,5.6h-1l-0.5-3.3l-0.5,3.3h-1L15.7,668.3z M20.7,668.3h1v5.6h-1V668.3z M22.3,668.3h0.9l1,2.8v-2.8h1v5.6h-0.9l-1-3
		v3h-1V668.3z M25.7,668.3h2.1v0.9h-1.2v1.4h1v0.9h-1v1.4h1.2v0.9h-2.2V668.3z M29.6,668.3h0.8c0.9,0,1.8,0.4,1.8,1.4v0
		c0,0.7-0.4,1.1-0.8,1.3c0.5,0.2,0.9,0.5,0.9,1.2v0.1c0,1-0.8,1.6-1.9,1.6h-0.9C29.6,673.9,29.6,668.3,29.6,668.3z M30.6,670.7
		c0.4,0,0.7-0.2,0.7-0.7v0c0-0.5-0.3-0.7-0.7-0.7h0L30.6,670.7L30.6,670.7z M30.6,673c0.4,0,0.8-0.3,0.8-0.7v0
		c0-0.5-0.3-0.7-0.8-0.7h0L30.6,673L30.6,673L30.6,673z M33.5,668.3h1l1.1,5.6h-1l-0.2-1.1h-0.9l-0.2,1.1h-0.9L33.5,668.3z
		 M34.3,671.9l-0.3-1.8l-0.3,1.8H34.3z M35.9,668.3h1c1,0,1.7,0.5,1.7,1.8v0.1c0,0.7-0.3,1.2-0.7,1.5l0.8,2.3h-1l-0.6-2h-0.2v2h-1
		V668.3z M36.9,671.1c0.4,0,0.7-0.2,0.7-0.9v-0.1c0-0.7-0.3-0.9-0.8-0.9h0L36.9,671.1L36.9,671.1z"/>
	<path class="st3" d="M92.7,659.7h0.9c1.1,0,1.8,0.6,1.8,1.9v0c0,1.3-0.7,1.9-1.7,1.9h0v1.8h-1V659.7z M93.7,662.6
		c0.4,0,0.7-0.3,0.7-1v0c0-0.7-0.3-1-0.7-1h0L93.7,662.6L93.7,662.6L93.7,662.6z M95.8,659.7h1v2.3h0.8v-2.3h1v5.6h-1v-2.4h-0.8v2.4
		h-1V659.7z M99,662.6v-0.3c0-1.8,0.6-2.7,1.5-2.7s1.5,0.9,1.5,2.7v0.3c0,1.8-0.6,2.7-1.5,2.7S99,664.5,99,662.6z M101,662.6v-0.3
		c0-1.4-0.2-1.8-0.5-1.8s-0.5,0.4-0.5,1.8v0.3c0,1.4,0.2,1.8,0.5,1.8S101,664,101,662.6z M102.8,660.6h-0.7v-0.9h2.4v0.9h-0.7v4.7
		h-1L102.8,660.6L102.8,660.6z M104.7,662.6v-0.3c0-1.8,0.6-2.7,1.5-2.7s1.5,0.9,1.5,2.7v0.3c0,1.8-0.6,2.7-1.5,2.7
		S104.7,664.5,104.7,662.6z M106.6,662.6v-0.3c0-1.4-0.2-1.8-0.5-1.8s-0.5,0.4-0.5,1.8v0.3c0,1.4,0.2,1.8,0.5,1.8
		S106.6,664,106.6,662.6z M89.7,669.6v-0.2c0-1.8,0.8-2.7,1.9-2.7c0.3,0,0.5,0.1,0.7,0.2v1c-0.2-0.1-0.5-0.2-0.7-0.2
		c-0.6,0-0.9,0.6-0.9,1.8v0.3c0,1.5,0.4,1.8,0.8,1.8c0,0,0,0,0.1,0V670h-0.5v-0.9h1.4v3c-0.4,0.2-0.6,0.2-1,0.2
		C90.5,672.3,89.7,671.5,89.7,669.6z M93.8,666.6h1l1.1,5.6h-1l-0.2-1.1h-0.9l-0.2,1.1h-0.9L93.8,666.6z M94.6,670.3l-0.3-1.8
		l-0.3,1.8H94.6z M96.2,666.7h1v4.7h1v0.9h-2C96.2,672.3,96.2,666.7,96.2,666.7z M98.6,666.7h1v4.7h1v0.9h-2
		C98.6,672.3,98.6,666.7,98.6,666.7z M101,666.7h2.1v0.9H102v1.4h1v0.9h-1v1.4h1.2v0.9H101V666.7z M103.7,666.7h1
		c1,0,1.7,0.5,1.7,1.8v0.1c0,0.7-0.3,1.2-0.7,1.5l0.8,2.3h-1l-0.6-2h-0.2v2h-1V666.7z M104.7,669.4c0.4,0,0.7-0.2,0.7-0.9v-0.1
		c0-0.7-0.3-0.9-0.8-0.9h0L104.7,669.4L104.7,669.4z M107.4,670.1l-1-3.4h1l0.5,2.1l0.5-2.1h1l-1,3.4v2.2h-1L107.4,670.1
		L107.4,670.1z"/>
	<path class="st3" d="M40.3,773.8h0.8c0.9,0,1.8,0.4,1.8,1.4v0c0,0.7-0.4,1.1-0.8,1.3c0.5,0.2,0.9,0.5,0.9,1.2v0.1
		c0,1-0.8,1.6-1.9,1.6h-0.9L40.3,773.8L40.3,773.8z M41.3,776.1c0.4,0,0.7-0.2,0.7-0.7v0c0-0.5-0.3-0.7-0.7-0.7h0L41.3,776.1
		L41.3,776.1z M41.3,778.5c0.4,0,0.8-0.3,0.8-0.7v0c0-0.5-0.3-0.7-0.8-0.7h0L41.3,778.5L41.3,778.5L41.3,778.5z M43.4,773.8h1v4.7h1
		v0.9h-2V773.8z M45.9,773.8h1v5.6h-1V773.8z M47.3,779.2v-1c0.3,0.2,0.6,0.3,0.9,0.3c0.3,0,0.5-0.1,0.5-0.5v0c0-0.3-0.1-0.4-0.5-1
		c-0.7-0.8-0.9-1.1-0.9-1.8v0c0-0.9,0.6-1.5,1.4-1.5c0.4,0,0.6,0.1,0.9,0.2v1c-0.3-0.2-0.5-0.3-0.7-0.3c-0.3,0-0.5,0.2-0.5,0.5v0
		c0,0.3,0.1,0.4,0.5,0.9c0.8,0.9,0.9,1.2,0.9,1.9v0c0,0.9-0.6,1.5-1.4,1.5C47.9,779.4,47.6,779.3,47.3,779.2z M49.9,779.2v-1
		c0.3,0.2,0.6,0.3,0.9,0.3c0.3,0,0.5-0.1,0.5-0.5v0c0-0.3-0.1-0.4-0.5-1c-0.7-0.8-0.9-1.1-0.9-1.8v0c0-0.9,0.6-1.5,1.4-1.5
		c0.4,0,0.6,0.1,0.9,0.2v1c-0.3-0.2-0.5-0.3-0.7-0.3c-0.3,0-0.5,0.2-0.5,0.5v0c0,0.3,0.1,0.4,0.5,0.9c0.8,0.9,0.9,1.2,0.9,1.9v0
		c0,0.9-0.6,1.5-1.4,1.5C50.5,779.4,50.2,779.3,49.9,779.2z M53.9,777.7v-4h1v4.1c0,0.5,0.2,0.7,0.4,0.7s0.4-0.2,0.4-0.7v-4.1h1v4
		c0,1.2-0.6,1.7-1.4,1.7C54.5,779.4,53.9,778.9,53.9,777.7z M57.2,773.8h1v4.7h1v0.9h-2V773.8z M59.9,774.7h-0.7v-0.9h2.4v0.9h-0.7
		v4.7h-1L59.9,774.7L59.9,774.7z M61.9,773.8h1c1,0,1.7,0.5,1.7,1.8v0.1c0,0.7-0.3,1.2-0.7,1.5l0.8,2.3h-1l-0.6-2h-0.2v2h-1
		L61.9,773.8L61.9,773.8z M63,776.5c0.4,0,0.7-0.2,0.7-0.9v-0.1c0-0.7-0.3-0.9-0.8-0.9h0L63,776.5L63,776.5z M65.9,773.7h1l1.1,5.6
		h-1l-0.2-1.1H66l-0.2,1.1h-0.9L65.9,773.7z M66.7,777.4l-0.3-1.8l-0.3,1.8H66.7z M69.6,773.8h1v4.7h1v0.9h-2V773.8z M71.7,776.7
		v-0.3c0-1.8,0.6-2.7,1.5-2.7c0.9,0,1.5,0.9,1.5,2.7v0.3c0,1.8-0.6,2.7-1.5,2.7C72.3,779.4,71.7,778.5,71.7,776.7z M73.7,776.7v-0.3
		c0-1.4-0.2-1.8-0.5-1.8s-0.5,0.4-0.5,1.8v0.3c0,1.4,0.2,1.8,0.5,1.8S73.7,778.1,73.7,776.7z M75.1,777.7v-4h1v4.1
		c0,0.5,0.2,0.7,0.4,0.7s0.4-0.2,0.4-0.7v-4.1h1v4c0,1.2-0.6,1.7-1.4,1.7C75.7,779.4,75.1,778.9,75.1,777.7z M78.5,773.8h0.9l1,2.8
		v-2.8h1v5.6h-0.9l-1-3v3h-1C78.5,779.4,78.5,773.8,78.5,773.8z M81.8,776.7v-0.2c0-1.8,0.8-2.7,1.9-2.7c0.3,0,0.5,0.1,0.7,0.2v1
		c-0.2-0.1-0.5-0.2-0.7-0.2c-0.6,0-0.9,0.6-0.9,1.8v0.3c0,1.5,0.4,1.8,0.8,1.8c0,0,0,0,0.1,0v-1.4h-0.5v-0.9h1.4v3
		c-0.4,0.2-0.6,0.2-1,0.2C82.6,779.4,81.8,778.6,81.8,776.7z M85.1,773.8h2.1v0.9h-1.2v1.4h1v0.9h-1v1.4h1.2v0.9h-2.2V773.8z"/>
	<path class="st3" d="M31.2,378.7H32c0.9,0,1.8,0.4,1.8,1.4v0c0,0.7-0.4,1.1-0.8,1.3c0.5,0.2,0.9,0.5,0.9,1.2v0.1
		c0,1-0.8,1.6-1.9,1.6h-0.9L31.2,378.7L31.2,378.7z M32.2,381.1c0.4,0,0.7-0.2,0.7-0.7v0c0-0.5-0.3-0.7-0.7-0.7h0L32.2,381.1
		L32.2,381.1L32.2,381.1z M32.2,383.4c0.4,0,0.8-0.3,0.8-0.7v0c0-0.5-0.3-0.7-0.8-0.7h0L32.2,383.4L32.2,383.4z M35.1,378.7h1
		l1.1,5.6h-1l-0.2-1.1h-0.9l-0.2,1.1H34L35.1,378.7z M35.9,382.3l-0.3-1.8l-0.3,1.8H35.9z M37.5,378.7h1l0.7,2l0.7-2h1v5.6h-0.9
		v-3.4l-0.7,2.1h0l-0.7-2.1v3.4h-0.9C37.5,384.3,37.5,378.7,37.5,378.7z M41.4,378.7h0.8c0.9,0,1.8,0.4,1.8,1.4v0
		c0,0.7-0.4,1.1-0.8,1.3c0.5,0.2,0.9,0.5,0.9,1.2v0.1c0,1-0.8,1.6-1.9,1.6h-0.9V378.7z M42.4,381.1c0.4,0,0.7-0.2,0.7-0.7v0
		c0-0.5-0.3-0.7-0.7-0.7h0L42.4,381.1L42.4,381.1L42.4,381.1z M42.4,383.4c0.4,0,0.8-0.3,0.8-0.7v0c0-0.5-0.3-0.7-0.8-0.7h0
		L42.4,383.4L42.4,383.4z M44.4,381.7v-0.3c0-1.8,0.6-2.7,1.5-2.7s1.5,0.9,1.5,2.7v0.3c0,1.8-0.6,2.7-1.5,2.7S44.4,383.5,44.4,381.7
		z M46.4,381.7v-0.3c0-1.4-0.2-1.8-0.5-1.8c-0.3,0-0.5,0.4-0.5,1.8v0.3c0,1.4,0.2,1.8,0.5,1.8S46.4,383.1,46.4,381.7z M47.8,381.7
		v-0.3c0-1.8,0.6-2.7,1.5-2.7s1.5,0.9,1.5,2.7v0.3c0,1.8-0.6,2.7-1.5,2.7C48.4,384.4,47.8,383.5,47.8,381.7z M49.8,381.7v-0.3
		c0-1.4-0.2-1.8-0.5-1.8s-0.5,0.4-0.5,1.8v0.3c0,1.4,0.2,1.8,0.5,1.8S49.8,383.1,49.8,381.7z M35,385.7h1l1.1,5.6h-1l-0.2-1.1h-0.9
		l-0.2,1.1H34L35,385.7z M35.8,389.3l-0.3-1.8l-0.3,1.8H35.8z M37.3,391.1v-1c0.3,0.2,0.6,0.3,0.9,0.3c0.3,0,0.5-0.1,0.5-0.5v0
		c0-0.3-0.1-0.4-0.5-1c-0.7-0.8-0.9-1.1-0.9-1.8v0c0-0.9,0.6-1.5,1.4-1.5c0.4,0,0.6,0.1,0.9,0.2v1c-0.3-0.2-0.5-0.3-0.7-0.3
		c-0.3,0-0.5,0.2-0.5,0.5v0c0,0.3,0.1,0.4,0.5,0.9c0.8,0.9,0.9,1.2,0.9,1.9v0c0,0.9-0.6,1.5-1.4,1.5
		C37.9,391.4,37.6,391.3,37.3,391.1z M40,385.7h1v5.6h-1V385.7z M42.4,385.7h1l1.1,5.6h-1l-0.2-1.1h-0.9l-0.2,1.1h-0.9L42.4,385.7z
		 M43.2,389.3l-0.3-1.8l-0.3,1.8H43.2z M44.8,385.7h0.9l1,2.8v-2.8h1v5.6h-0.9l-1-3v3h-1V385.7z M25.8,392.7h1c1,0,1.7,0.5,1.7,1.8
		v0.1c0,0.7-0.3,1.2-0.7,1.5l0.8,2.3h-1l-0.6-2h-0.2v2h-1L25.8,392.7L25.8,392.7L25.8,392.7z M26.9,395.5c0.4,0,0.7-0.2,0.7-0.9
		v-0.1c0-0.7-0.3-0.9-0.8-0.9h0L26.9,395.5L26.9,395.5z M29,392.7h2.1v0.9H30v1.4h1v0.9h-1v1.4h1.2v0.9H29V392.7z M31.5,398.1v-1
		c0.3,0.2,0.6,0.3,0.9,0.3c0.3,0,0.5-0.1,0.5-0.5v0c0-0.3-0.1-0.4-0.5-1c-0.7-0.8-0.9-1.1-0.9-1.8v0c0-0.9,0.6-1.5,1.4-1.5
		c0.4,0,0.6,0.1,0.9,0.2v1c-0.3-0.2-0.5-0.3-0.7-0.3c-0.3,0-0.5,0.2-0.5,0.5v0c0,0.3,0.1,0.4,0.5,0.9c0.8,0.9,0.9,1.2,0.9,1.9v0
		c0,0.9-0.6,1.5-1.4,1.5C32.2,398.4,31.8,398.3,31.5,398.1z M34.7,393.7H34v-0.9h2.4v0.9h-0.7v4.7h-1L34.7,393.7L34.7,393.7z
		 M37.3,392.7h1l1.1,5.6h-1l-0.2-1.1h-0.9l-0.2,1.1h-0.9L37.3,392.7z M38.1,396.3l-0.3-1.8l-0.3,1.8H38.1z M39.6,396.7v-4h1v4.1
		c0,0.5,0.2,0.7,0.4,0.7s0.4-0.2,0.4-0.7v-4.1h1v4c0,1.2-0.6,1.7-1.4,1.7C40.2,398.4,39.6,397.9,39.6,396.7z M43,392.7h1
		c1,0,1.7,0.5,1.7,1.8v0.1c0,0.7-0.3,1.2-0.7,1.5l0.8,2.3h-1l-0.6-2h-0.2v2h-1L43,392.7L43,392.7z M44,395.5c0.4,0,0.7-0.2,0.7-0.9
		v-0.1c0-0.7-0.3-0.9-0.8-0.9h0L44,395.5L44,395.5z M46.9,392.7h1l1.1,5.6h-1l-0.2-1.1H47l-0.2,1.1h-0.9L46.9,392.7z M47.7,396.3
		l-0.3-1.8l-0.3,1.8H47.7z M49.3,392.7h0.9l1,2.8v-2.8h1v5.6h-0.9l-1-3v3h-1C49.3,398.3,49.3,392.7,49.3,392.7z M53.3,393.7h-0.7
		v-0.9h2.4v0.9h-0.7v4.7h-1L53.3,393.7L53.3,393.7z"/>
	<path class="st3" d="M8.6,505.1v0.7H7.6v-2.4h0.9v0.7h4.7v1H8.6z M7.6,503v-1H10v-0.8H7.6v-1h5.6v1h-2.4v0.8h2.4v1H7.6z M7.6,499.7
		v-2.1h0.9v1.2H10v-1h0.9v1h1.4v-1.2h0.9v2.2L7.6,499.7L7.6,499.7z M7.6,495.7v-0.9c0-1.1,0.6-1.8,1.9-1.8h0c1.3,0,1.9,0.7,1.9,1.7
		v0h1.8v1H7.6z M10.6,494.8c0-0.4-0.3-0.7-1-0.7h0c-0.7,0-1,0.3-1,0.7v0L10.6,494.8L10.6,494.8z M7.6,492.7v-1c0-1,0.5-1.7,1.8-1.7
		h0.1c0.7,0,1.2,0.3,1.5,0.7l2.3-0.8v1l-2,0.6v0.2h2v1H7.6z M10.4,491.6c0-0.4-0.2-0.7-0.9-0.7H9.4c-0.7,0-0.9,0.3-0.9,0.8v0
		L10.4,491.6C10.4,491.7,10.4,491.6,10.4,491.6z M10.6,489.6h-0.3c-1.8,0-2.7-0.6-2.7-1.5s0.9-1.5,2.7-1.5h0.3
		c1.8,0,2.7,0.6,2.7,1.5S12.4,489.6,10.6,489.6z M10.6,487.6h-0.3c-1.4,0-1.8,0.2-1.8,0.5s0.4,0.5,1.8,0.5h0.3
		c1.4,0,1.8-0.2,1.8-0.5S12,487.6,10.6,487.6z M7.6,486.1v-1l2-0.7l-2-0.7v-1h5.6v0.9H9.9l2.1,0.7v0l-2.1,0.7h3.4v0.9L7.6,486.1
		L7.6,486.1z M7.6,482.2v-2.1h0.9v1.2H10v-1h0.9v1h1.4v-1.2h0.9v2.2L7.6,482.2L7.6,482.2z M7.6,479.6v-0.9l2.8-1H7.6v-1h5.6v0.9
		l-3,1h3v1H7.6z M7.6,475.4v-1l5.6-1.1v1l-1.1,0.2v0.9l1.1,0.2v0.9L7.6,475.4z M11.3,474.6l-1.8,0.3l1.8,0.3V474.6z M7.6,473v-0.9
		c0-1.2,0.9-2,2.7-2h0.2c1.8,0,2.7,0.7,2.7,2v0.9H7.6z M12.4,472c0-0.5-0.4-0.9-1.8-0.9h-0.2c-1.4,0-1.8,0.4-1.8,0.9v0L12.4,472
		C12.4,472,12.4,472,12.4,472z M7.6,469.6v-2.1h0.9v1.2H10v-1h0.9v1h1.4v-1.2h0.9v2.2L7.6,469.6L7.6,469.6z"/>
	<path class="st3" d="M113.3,502.2v0.7h-0.9v-2.4h0.9v0.7h4.7v1H113.3z M112.4,500.1v-1h2.3v-0.8h-2.3v-1h5.6v1h-2.4v0.8h2.4v1
		H112.4z M112.4,496.7v-2.1h0.9v1.2h1.4v-1h0.9v1h1.4v-1.2h0.9v2.2L112.4,496.7L112.4,496.7z M112.4,492.8v-0.9
		c0-1.1,0.6-1.8,1.9-1.8h0c1.3,0,1.9,0.7,1.9,1.7v0h1.8v1H112.4z M115.3,491.8c0-0.4-0.3-0.7-1-0.7h0c-0.7,0-1,0.3-1,0.7v0
		L115.3,491.8L115.3,491.8L115.3,491.8z M112.4,489.7v-1c0-1,0.5-1.7,1.8-1.7h0.1c0.7,0,1.2,0.3,1.5,0.7l2.3-0.8v1l-2,0.6v0.2h2v1
		H112.4z M115.2,488.7c0-0.4-0.2-0.7-0.9-0.7h-0.1c-0.7,0-0.9,0.3-0.9,0.8v0L115.2,488.7L115.2,488.7z M115.3,486.6H115
		c-1.8,0-2.7-0.6-2.7-1.5s0.9-1.5,2.7-1.5h0.3c1.8,0,2.7,0.6,2.7,1.5S117.2,486.6,115.3,486.6z M115.3,484.6H115
		c-1.4,0-1.8,0.2-1.8,0.5s0.4,0.5,1.8,0.5h0.3c1.4,0,1.8-0.2,1.8-0.5S116.8,484.6,115.3,484.6z M112.4,483.2v-1l2-0.7l-2-0.7v-1h5.6
		v0.9h-3.4l2.1,0.7v0l-2.1,0.7h3.4v0.9L112.4,483.2L112.4,483.2z M112.4,479.3v-2.1h0.9v1.2h1.4v-1h0.9v1h1.4v-1.2h0.9v2.2
		L112.4,479.3L112.4,479.3z M112.4,476.6v-0.9l2.8-1h-2.8v-1h5.6v0.9l-3,1h3v1H112.4z M112.4,472.4v-1l5.6-1.1v1l-1.1,0.2v0.9
		l1.1,0.2v0.9L112.4,472.4z M116,471.6l-1.8,0.3l1.8,0.3V471.6z M112.4,470v-0.9c0-1.2,0.9-2,2.7-2h0.2c1.8,0,2.7,0.7,2.7,2v0.9
		H112.4z M117.1,469c0-0.5-0.4-0.9-1.8-0.9h-0.2c-1.4,0-1.8,0.4-1.8,0.9v0L117.1,469L117.1,469z M112.4,466.7v-2.1h0.9v1.2h1.4v-1
		h0.9v1h1.4v-1.2h0.9v2.2L112.4,466.7L112.4,466.7z"/>
	<path class="st3" d="M37.4,491.4h1c1,0,1.7,0.5,1.7,1.8v0.1c0,0.7-0.3,1.2-0.7,1.5l0.8,2.3l-1,0l-0.6-2h-0.2l0,2l-1,0L37.4,491.4z
		 M38.5,494.2c0.4,0,0.7-0.2,0.7-0.9v-0.1c0-0.7-0.3-0.9-0.8-0.9h0L38.5,494.2L38.5,494.2L38.5,494.2z M40.6,491.4l1,0
		c1,0,1.7,0.5,1.7,1.8v0.1c0,0.7-0.3,1.2-0.7,1.5l0.8,2.3l-1,0l-0.6-2l-0.2,0l0,2l-1,0L40.6,491.4z M41.6,494.2
		c0.4,0,0.7-0.2,0.7-0.9v-0.1c0-0.7-0.3-0.9-0.8-0.9h0L41.6,494.2L41.6,494.2z"/>
	<path class="st3" d="M83.8,491.5h1c1,0,1.7,0.5,1.7,1.8v0.1c0,0.7-0.3,1.2-0.7,1.5l0.8,2.3l-1,0l-0.6-2h-0.2l0,2l-1,0L83.8,491.5z
		 M84.8,494.2c0.4,0,0.7-0.2,0.7-0.9v-0.1c0-0.7-0.3-0.9-0.8-0.9h0L84.8,494.2L84.8,494.2z M86.9,491.5l1,0c1,0,1.7,0.5,1.7,1.8v0.1
		c0,0.7-0.3,1.2-0.7,1.5l0.7,2.3l-1,0l-0.6-2l-0.2,0l0,2l-1,0L86.9,491.5z M88,494.2c0.4,0,0.7-0.2,0.7-0.9v-0.1
		c0-0.7-0.3-0.9-0.8-0.9h0L88,494.2L88,494.2z"/>
	<path class="st3" d="M83,735.5h1c1,0,1.7,0.5,1.7,1.8v0.1c0,0.7-0.3,1.2-0.7,1.5l0.8,2.3l-1,0l-0.6-2H84l0,2l-1,0L83,735.5z
		 M84.1,738.3c0.4,0,0.7-0.2,0.7-0.9v-0.1c0-0.7-0.3-0.9-0.8-0.9h0L84.1,738.3L84.1,738.3z M86.2,735.5l1,0c1,0,1.7,0.5,1.7,1.8v0.1
		c0,0.7-0.3,1.2-0.7,1.5l0.7,2.3l-1,0l-0.6-2l-0.2,0l0,2l-1,0L86.2,735.5z M87.3,738.3c0.4,0,0.7-0.2,0.7-0.9v-0.1
		c0-0.7-0.3-0.9-0.8-0.9h0L87.3,738.3L87.3,738.3z"/>
	<path class="st3" d="M38.7,735.9h1c1,0,1.7,0.5,1.7,1.8v0.1c0,0.7-0.3,1.2-0.7,1.5l0.8,2.3l-1,0l-0.6-2h-0.2l0,2l-1,0L38.7,735.9z
		 M39.7,738.7c0.4,0,0.7-0.2,0.7-0.9v-0.1c0-0.7-0.3-0.9-0.8-0.9h0L39.7,738.7L39.7,738.7z M41.9,735.9l1,0c1,0,1.7,0.5,1.7,1.8v0.1
		c0,0.7-0.3,1.2-0.7,1.5l0.8,2.3l-1,0l-0.6-2l-0.2,0l0,2l-1,0L41.9,735.9z M42.9,738.7c0.4,0,0.7-0.2,0.7-0.9v-0.1
		c0-0.7-0.3-0.9-0.8-0.9h0L42.9,738.7L42.9,738.7z"/>
	<path class="st3" d="M52.7,151.9v-1c0.3,0.2,0.6,0.3,0.9,0.3c0.3,0,0.5-0.1,0.5-0.5v0c0-0.3-0.1-0.4-0.5-1
		c-0.7-0.8-0.9-1.1-0.9-1.8v0c0-0.9,0.6-1.5,1.4-1.5c0.4,0,0.6,0.1,0.9,0.2v1c-0.3-0.2-0.5-0.3-0.7-0.3c-0.3,0-0.5,0.2-0.5,0.5v0
		c0,0.3,0.1,0.4,0.5,0.9c0.8,0.9,0.9,1.2,0.9,1.9v0c0,0.9-0.6,1.5-1.4,1.5C53.3,152.1,53,152,52.7,151.9z M55.8,147.4h-0.7v-0.9h2.4
		v0.9h-0.7v4.7h-1C55.8,152.1,55.8,147.4,55.8,147.4z M58.4,146.5h1l1.1,5.6h-1l-0.2-1.1h-0.9l-0.2,1.1h-0.9L58.4,146.5z
		 M59.2,150.1l-0.3-1.8l-0.3,1.8H59.2z M60.8,146.5h1c1,0,1.7,0.5,1.7,1.8v0.1c0,0.7-0.3,1.2-0.7,1.5l0.8,2.3h-1l-0.6-2h-0.2v2h-1
		L60.8,146.5L60.8,146.5z M61.8,149.3c0.4,0,0.7-0.2,0.7-0.9v-0.1c0-0.7-0.3-0.9-0.8-0.9h0L61.8,149.3L61.8,149.3z M64,146.5h0.9
		c1.2,0,2,0.9,2,2.7v0.2c0,1.8-0.7,2.7-2,2.7H64V146.5z M65,151.2c0.5,0,0.9-0.4,0.9-1.8v-0.2c0-1.4-0.4-1.8-0.9-1.8h0L65,151.2
		L65,151.2L65,151.2z M67.3,150.5v-4h1v4.1c0,0.5,0.2,0.7,0.4,0.7s0.4-0.2,0.4-0.7v-4.1h1v4c0,1.2-0.6,1.7-1.4,1.7
		C67.9,152.2,67.3,151.6,67.3,150.5z M70.6,151.9v-1c0.3,0.2,0.6,0.3,0.9,0.3c0.3,0,0.5-0.1,0.5-0.5v0c0-0.3-0.1-0.4-0.5-1
		c-0.7-0.8-0.9-1.1-0.9-1.8v0c0-0.9,0.6-1.5,1.4-1.5c0.4,0,0.6,0.1,0.9,0.2v1c-0.3-0.2-0.5-0.3-0.7-0.3c-0.3,0-0.5,0.2-0.5,0.5v0
		c0,0.3,0.1,0.4,0.5,0.9c0.8,0.9,0.9,1.2,0.9,1.9v0c0,0.9-0.6,1.5-1.4,1.5C71.2,152.1,70.8,152,70.6,151.9z M73.7,147.4H73v-0.9h2.4
		v0.9h-0.7v4.7h-1V147.4z M54.8,155.4h-0.7v-0.9h2.4v0.9h-0.7v4.7h-1L54.8,155.4L54.8,155.4z M56.9,154.5h1v2.3h0.8v-2.3h1v5.6h-1
		v-2.4h-0.8v2.4h-1L56.9,154.5L56.9,154.5z M60.3,154.5h2.1v0.9h-1.2v1.4h1v0.9h-1v1.4h1.2v0.9h-2.2V154.5z M63.7,154.5h1l1.1,5.6
		h-1l-0.2-1.1h-0.9l-0.2,1.1h-0.9L63.7,154.5z M64.5,158.1l-0.3-1.8l-0.3,1.8H64.5z M66.4,155.4h-0.7v-0.9H68v0.9h-0.7v4.7h-1V155.4
		z M68.4,154.5h2.1v0.9h-1.2v1.4h1v0.9h-1v1.4h1.2v0.9h-2.2V154.5z M71.1,154.5h1c1,0,1.7,0.5,1.7,1.8v0.1c0,0.7-0.3,1.2-0.7,1.5
		l0.8,2.3h-1l-0.6-2h-0.2v2h-1L71.1,154.5L71.1,154.5z M72.1,157.3c0.4,0,0.7-0.2,0.7-0.9v-0.1c0-0.7-0.3-0.9-0.8-0.9h0L72.1,157.3
		L72.1,157.3z"/>
	<path class="st3" d="M54.7,93.5v-0.3c0-1.8,0.6-2.7,1.5-2.7c0.9,0,1.5,0.9,1.5,2.7v0.3c0,1.8-0.6,2.7-1.5,2.7
		C55.3,96.2,54.7,95.3,54.7,93.5z M56.7,93.5v-0.3c0-1.4-0.2-1.8-0.5-1.8s-0.5,0.4-0.5,1.8v0.3c0,1.4,0.2,1.8,0.5,1.8
		S56.7,94.9,56.7,93.5z M58.1,90.5H59c1.1,0,1.8,0.6,1.8,1.9v0c0,1.3-0.7,1.9-1.7,1.9h0v1.8h-1V90.5z M59.1,93.5
		c0.4,0,0.7-0.3,0.7-1v0c0-0.7-0.3-1-0.7-1h0L59.1,93.5L59.1,93.5L59.1,93.5z M61.2,90.5h2.1v0.9h-1.2v1.4h1v0.9h-1v1.4h1.2v0.9
		h-2.2V90.5z M63.8,90.5h0.9l1,2.8v-2.8h1v5.6h-0.9l-1-3v3h-1C63.8,96.1,63.8,90.5,63.8,90.5z M69.1,91.5h-0.7v-0.9h2.4v0.9H70v4.7
		h-1L69.1,91.5L69.1,91.5z M70.9,93.5v-0.3c0-1.8,0.6-2.7,1.5-2.7s1.5,0.9,1.5,2.7v0.3c0,1.8-0.6,2.7-1.5,2.7S70.9,95.3,70.9,93.5z
		 M72.9,93.5v-0.3c0-1.4-0.2-1.8-0.5-1.8s-0.5,0.4-0.5,1.8v0.3c0,1.4,0.2,1.8,0.5,1.8S72.9,94.9,72.9,93.5z M50,98.5h0.9
		c1.2,0,2,0.9,2,2.7v0.2c0,1.8-0.7,2.7-2,2.7H50V98.5z M51,103.2c0.5,0,0.9-0.4,0.9-1.8v-0.2c0-1.4-0.4-1.8-0.9-1.8h0L51,103.2
		L51,103.2z M53.4,98.5h2.1v0.9h-1.2v1.4h1v0.9h-1v1.4h1.2v0.9h-2.2C53.4,104.1,53.4,98.5,53.4,98.5z M55.8,101.4v-0.2
		c0-2,0.7-2.7,1.6-2.7c0.3,0,0.4,0,0.6,0.1v1c-0.2-0.1-0.4-0.2-0.5-0.2c-0.4,0-0.7,0.4-0.7,1.8v0.2c0,1.5,0.3,1.8,0.8,1.8
		c0.2,0,0.3-0.1,0.5-0.2v1c-0.2,0.1-0.4,0.2-0.7,0.2C56.5,104.2,55.8,103.4,55.8,101.4z M58.6,98.5h1v2.3l0.8-2.3h1.1l-0.9,2.4
		l1,3.2h-1.1l-0.6-2.1l-0.2,0.6v1.5h-1V98.5z M63.1,98.5h0.8c0.9,0,1.8,0.4,1.8,1.4v0c0,0.7-0.4,1.1-0.8,1.3
		c0.5,0.2,0.9,0.5,0.9,1.2v0.1c0,1-0.8,1.6-1.9,1.6h-0.9L63.1,98.5L63.1,98.5z M64.1,100.9c0.4,0,0.7-0.2,0.7-0.7v0
		c0-0.5-0.3-0.7-0.7-0.7h0L64.1,100.9L64.1,100.9z M64.1,103.2c0.4,0,0.8-0.3,0.8-0.7v0c0-0.5-0.3-0.7-0.8-0.7h0L64.1,103.2
		L64.1,103.2L64.1,103.2z M66.2,98.5h2.1v0.9h-1.2v1.4h1v0.9h-1v1.4h1.2v0.9h-2.2V98.5z M68.9,98.5h1v4.7h1v0.9h-2V98.5z M71,101.5
		v-0.3c0-1.8,0.6-2.7,1.5-2.7c0.9,0,1.5,0.9,1.5,2.7v0.3c0,1.8-0.6,2.7-1.5,2.7C71.6,104.2,71,103.3,71,101.5z M73,101.5v-0.3
		c0-1.4-0.2-1.8-0.5-1.8s-0.5,0.4-0.5,1.8v0.3c0,1.4,0.2,1.8,0.5,1.8S73,102.9,73,101.5z M74.1,98.5h1l0.4,3.4l0.5-3.4h0.9l0.5,3.4
		l0.4-3.4h1l-0.8,5.6h-1l-0.5-3.3l-0.5,3.3h-1L74.1,98.5z"/>
	<path class="st3" d="M56.1,538h1l1.1,5.6h-1l-0.2-1.1h-0.9l-0.2,1.1H55L56.1,538z M56.9,541.7l-0.3-1.8l-0.3,1.8H56.9z M58.8,539
		h-0.7V538h2.4v0.9h-0.7v4.7h-1L58.8,539L58.8,539z M60.8,538h1c1,0,1.7,0.5,1.7,1.8v0.1c0,0.7-0.3,1.2-0.7,1.5l0.8,2.3h-1l-0.6-2
		h-0.2v2h-1L60.8,538L60.8,538z M61.9,540.8c0.4,0,0.7-0.2,0.7-0.9v-0.1c0-0.7-0.3-0.9-0.8-0.9h0L61.9,540.8L61.9,540.8z M64,538h1
		v5.6h-1V538z M65.6,542v-4h1v4.1c0,0.5,0.2,0.7,0.4,0.7s0.4-0.2,0.4-0.7V538h1v4c0,1.2-0.6,1.7-1.4,1.7
		C66.2,543.7,65.6,543.2,65.6,542z M68.9,538h1l0.7,2l0.7-2h1v5.6h-0.9v-3.4l-0.7,2.1h0l-0.7-2.1v3.4h-0.9L68.9,538L68.9,538z
		 M58.5,547.9v-0.2c0-2,0.7-2.7,1.6-2.7c0.3,0,0.4,0,0.6,0.1v1c-0.2-0.1-0.4-0.2-0.5-0.2c-0.4,0-0.7,0.4-0.7,1.8v0.2
		c0,1.5,0.3,1.8,0.8,1.8c0.2,0,0.3-0.1,0.5-0.2v1c-0.2,0.1-0.4,0.2-0.7,0.2C59.1,550.7,58.5,549.9,58.5,547.9z M62,545h1l1.1,5.6h-1
		l-0.2-1.1h-0.9l-0.2,1.1H61L62,545z M62.8,548.7l-0.3-1.8l-0.3,1.8H62.8z M64.4,545h2v0.9h-1.1v1.4h0.9v0.9h-0.9v2.3h-1L64.4,545
		L64.4,545z M66.9,545h2.1v0.9h-1.2v1.4h1v0.9h-1v1.4h1.2v0.9h-2.2V545z M68.3,543.7l0.8,0.4l-0.8,0.6h-0.7L68.3,543.7z"/>
	<path class="st3" d="M57.8,612.5v-0.2c0-1.8,0.8-2.7,1.9-2.7c0.3,0,0.5,0.1,0.7,0.2v1c-0.2-0.1-0.5-0.2-0.7-0.2
		c-0.6,0-0.9,0.6-0.9,1.8v0.3c0,1.5,0.4,1.8,0.8,1.8c0,0,0,0,0.1,0v-1.4h-0.5V612h1.4v3c-0.4,0.2-0.6,0.2-1,0.2
		C58.6,615.2,57.8,614.5,57.8,612.5z M61.1,613.6v-4h1v4.1c0,0.5,0.2,0.7,0.4,0.7s0.4-0.2,0.4-0.7v-4.1h1v4c0,1.2-0.6,1.7-1.4,1.7
		C61.7,615.3,61.1,614.7,61.1,613.6z M64.5,609.6h2.1v0.9h-1.2v1.4h1v0.9h-1v1.4h1.2v0.9h-2.2V609.6z M67,615v-1
		c0.3,0.2,0.6,0.3,0.9,0.3c0.3,0,0.5-0.1,0.5-0.5v0c0-0.3-0.1-0.4-0.5-1c-0.7-0.8-0.9-1.1-0.9-1.8v0c0-0.9,0.6-1.5,1.4-1.5
		c0.4,0,0.6,0.1,0.9,0.2v1c-0.3-0.2-0.5-0.3-0.7-0.3c-0.3,0-0.5,0.2-0.5,0.5v0c0,0.3,0.1,0.4,0.5,0.9c0.8,0.9,0.9,1.2,0.9,1.9v0
		c0,0.9-0.6,1.5-1.4,1.5C67.6,615.2,67.3,615.1,67,615z M70.1,610.5h-0.7v-0.9h2.4v0.9h-0.7v4.7h-1L70.1,610.5L70.1,610.5z
		 M54.4,622v-1c0.3,0.2,0.6,0.3,0.9,0.3c0.3,0,0.5-0.1,0.5-0.5v0c0-0.3-0.1-0.4-0.5-1c-0.7-0.8-0.9-1.1-0.9-1.8v0
		c0-0.9,0.6-1.5,1.4-1.5c0.4,0,0.6,0.1,0.9,0.2v1c-0.3-0.2-0.5-0.3-0.7-0.3c-0.3,0-0.5,0.2-0.5,0.5v0c0,0.3,0.1,0.4,0.5,0.9
		c0.8,0.9,0.9,1.2,0.9,1.9v0c0,0.9-0.6,1.5-1.4,1.5C55.1,622.2,54.7,622.1,54.4,622z M57.2,616.6h2.1v0.9h-1.2v1.4h1v0.9h-1v1.4h1.2
		v0.9h-2.2L57.2,616.6L57.2,616.6z M59.8,616.6h1c1,0,1.7,0.5,1.7,1.8v0.1c0,0.7-0.3,1.2-0.7,1.5l0.8,2.3h-1l-0.6-2h-0.2v2h-1
		C59.8,622.2,59.8,616.6,59.8,616.6z M60.8,619.4c0.4,0,0.7-0.2,0.7-0.9v-0.1c0-0.7-0.3-0.9-0.8-0.9h0L60.8,619.4L60.8,619.4z
		 M62.7,616.6h1l0.5,3.6l0.5-3.6h1l-1,5.6h-1L62.7,616.6z M66,616.6h1v5.6h-1V616.6z M67.5,619.5v-0.2c0-2,0.7-2.7,1.6-2.7
		c0.3,0,0.4,0,0.6,0.1v1c-0.2-0.1-0.4-0.2-0.5-0.2c-0.4,0-0.7,0.4-0.7,1.8v0.2c0,1.5,0.3,1.8,0.8,1.8c0.2,0,0.3-0.1,0.5-0.2v1
		c-0.2,0.1-0.4,0.2-0.7,0.2C68.2,622.2,67.5,621.5,67.5,619.5z M70.3,616.6h2.1v0.9h-1.2v1.4h1v0.9h-1v1.4h1.2v0.9h-2.2
		C70.3,622.2,70.3,616.6,70.3,616.6z M72.8,622v-1c0.3,0.2,0.6,0.3,0.9,0.3c0.3,0,0.5-0.1,0.5-0.5v0c0-0.3-0.1-0.4-0.5-1
		c-0.7-0.8-0.9-1.1-0.9-1.8v0c0-0.9,0.6-1.5,1.4-1.5c0.4,0,0.6,0.1,0.9,0.2v1c-0.3-0.2-0.5-0.3-0.7-0.3c-0.3,0-0.5,0.2-0.5,0.5v0
		c0,0.3,0.1,0.4,0.5,0.9c0.8,0.9,0.9,1.2,0.9,1.9v0c0,0.9-0.6,1.5-1.4,1.5C73.4,622.2,73.1,622.1,72.8,622z"/>
	<path class="st3" d="M20.6,598.3h-1c0.2-0.3,0.3-0.6,0.3-0.9c0-0.3-0.1-0.5-0.5-0.5h0c-0.3,0-0.4,0.1-1,0.5
		c-0.8,0.7-1.1,0.9-1.8,0.9h0c-0.9,0-1.5-0.6-1.5-1.4c0-0.4,0.1-0.6,0.2-0.9h1c-0.2,0.3-0.3,0.5-0.3,0.7c0,0.3,0.2,0.5,0.5,0.5h0
		c0.3,0,0.4-0.1,0.9-0.5c0.9-0.8,1.2-0.9,1.9-0.9h0c0.9,0,1.5,0.6,1.5,1.4C20.9,597.7,20.8,598,20.6,598.3z M15.2,595.6v-1h2.3v-0.8
		h-2.3v-1h5.6v1h-2.4v0.8h2.4v1H15.2z M18.2,592.3h-0.3c-1.8,0-2.7-0.6-2.7-1.5s0.9-1.5,2.7-1.5h0.3c1.8,0,2.7,0.6,2.7,1.5
		S20,592.3,18.2,592.3z M18.2,590.3h-0.3c-1.4,0-1.8,0.2-1.8,0.5s0.4,0.5,1.8,0.5h0.3c1.4,0,1.8-0.2,1.8-0.5S19.6,590.3,18.2,590.3z
		 M15.2,588.9v-1c0-1,0.5-1.7,1.8-1.7h0.1c0.7,0,1.2,0.3,1.5,0.7l2.3-0.8v1l-2,0.6v0.2h2v1L15.2,588.9L15.2,588.9z M18,587.8
		c0-0.4-0.2-0.7-0.9-0.7H17c-0.7,0-0.9,0.3-0.9,0.8v0L18,587.8L18,587.8z M15.2,585.7v-2.1h0.9v1.2h1.4v-1h0.9v1h1.4v-1.2h0.9v2.2
		L15.2,585.7L15.2,585.7z M22.2,604.8v-2.1h0.9v1.2h1.4v-1h0.9v1h1.4v-1.2h0.9v2.2L22.2,604.8L22.2,604.8z M25,601.5l-2.7,0.9v-1
		l1.6-0.4l-1.6-0.4v-1l2.7,0.9l2.9-0.9v1l-1.7,0.5l1.7,0.5v1L25,601.5z M25.1,599.3h-0.2c-2,0-2.7-0.7-2.7-1.6c0-0.3,0-0.4,0.1-0.6
		h1c-0.1,0.2-0.2,0.4-0.2,0.5c0,0.4,0.4,0.7,1.8,0.7h0.2c1.5,0,1.8-0.3,1.8-0.8c0-0.2-0.1-0.3-0.2-0.5h1c0.1,0.2,0.2,0.4,0.2,0.7
		C27.9,598.6,27.1,599.3,25.1,599.3z M26.2,596.5h-4v-1h4.1c0.5,0,0.7-0.2,0.7-0.4s-0.2-0.4-0.7-0.4h-4.1v-1h4
		c1.2,0,1.7,0.6,1.7,1.4S27.4,596.5,26.2,596.5z M22.2,593.2v-1c0-1,0.5-1.7,1.8-1.7h0.1c0.7,0,1.2,0.3,1.5,0.7l2.3-0.8v1l-2,0.6
		v0.2h2v1H22.2z M25,592.1c0-0.4-0.2-0.7-0.9-0.7H24c-0.7,0-0.9,0.3-0.9,0.8v0L25,592.1L25,592.1z M27.6,590.1h-1
		c0.2-0.3,0.3-0.6,0.3-0.9c0-0.3-0.1-0.5-0.5-0.5h0c-0.3,0-0.4,0.1-1,0.5c-0.8,0.7-1.1,0.9-1.8,0.9h0c-0.9,0-1.5-0.6-1.5-1.4
		c0-0.4,0.1-0.6,0.2-0.9h1c-0.2,0.3-0.3,0.5-0.3,0.7c0,0.3,0.2,0.5,0.5,0.5h0c0.3,0,0.4-0.1,0.9-0.5c0.9-0.8,1.2-0.9,1.9-0.9h0
		c0.9,0,1.5,0.6,1.5,1.4C27.9,589.5,27.8,589.8,27.6,590.1z M22.2,587.4v-1h5.6v1H22.2z M25.2,585.9h-0.3c-1.8,0-2.7-0.6-2.7-1.5
		s0.9-1.5,2.7-1.5h0.3c1.8,0,2.7,0.6,2.7,1.5S27,585.9,25.2,585.9z M25.2,583.9h-0.3c-1.4,0-1.8,0.2-1.8,0.5s0.4,0.5,1.8,0.5h0.3
		c1.4,0,1.8-0.2,1.8-0.5S26.6,583.9,25.2,583.9z M22.2,582.4v-0.9l2.8-1h-2.8v-1h5.6v0.9l-3,1h3v1H22.2z M27.6,579.1h-1
		c0.2-0.3,0.3-0.6,0.3-0.9c0-0.3-0.1-0.5-0.5-0.5h0c-0.3,0-0.4,0.1-1,0.5c-0.8,0.7-1.1,0.9-1.8,0.9h0c-0.9,0-1.5-0.6-1.5-1.4
		c0-0.4,0.1-0.6,0.2-0.9h1c-0.2,0.3-0.3,0.5-0.3,0.7c0,0.3,0.2,0.5,0.5,0.5h0c0.3,0,0.4-0.1,0.9-0.5c0.9-0.8,1.2-0.9,1.9-0.9h0
		c0.9,0,1.5,0.6,1.5,1.4C27.9,578.5,27.8,578.9,27.6,579.1z"/>
	<path class="st3" d="M50.4,283.4h-0.7v-0.9H52v0.9h-0.7v4.7h-1L50.4,283.4L50.4,283.4z M52.4,282.4h1c1,0,1.7,0.5,1.7,1.8v0.1
		c0,0.7-0.3,1.2-0.7,1.5l0.8,2.3h-1l-0.6-2h-0.2v2h-1L52.4,282.4L52.4,282.4z M53.5,285.2c0.4,0,0.7-0.2,0.7-0.9v-0.1
		c0-0.7-0.3-0.9-0.8-0.9h0L53.5,285.2L53.5,285.2z M56.4,282.4h1l1.1,5.6h-1l-0.2-1.1h-0.9l-0.2,1.1h-0.9L56.4,282.4z M57.2,286
		l-0.3-1.8l-0.3,1.8H57.2z M58.8,282.4h0.9c1.2,0,2,0.9,2,2.7v0.2c0,1.8-0.7,2.7-2,2.7h-0.9V282.4z M59.8,287.1
		c0.5,0,0.9-0.4,0.9-1.8v-0.2c0-1.4-0.4-1.8-0.9-1.8h0L59.8,287.1L59.8,287.1z M62.2,282.4h2.1v0.9h-1.2v1.4h1v0.9h-1v1.4h1.2v0.9
		h-2.2V282.4z M64.5,282.4h1l0.4,3.4l0.5-3.4h0.9l0.5,3.4l0.4-3.4h1l-0.8,5.6h-1l-0.5-3.3l-0.5,3.3h-1L64.5,282.4z M69.5,282.4h1
		v5.6h-1V282.4z M71.1,282.4H72l1,2.8v-2.8h1v5.6h-0.9l-1-3v3h-1C71.1,288,71.1,282.4,71.1,282.4z M74.5,282.4h0.9
		c1.2,0,2,0.9,2,2.7v0.2c0,1.8-0.7,2.7-2,2.7h-0.9V282.4z M75.6,287.1c0.5,0,0.9-0.4,0.9-1.8v-0.2c0-1.4-0.4-1.8-0.9-1.8h0
		L75.6,287.1L75.6,287.1z M77.7,287.8v-1c0.3,0.2,0.6,0.3,0.9,0.3c0.3,0,0.5-0.1,0.5-0.5v0c0-0.3-0.1-0.4-0.5-1
		c-0.7-0.8-0.9-1.1-0.9-1.8v0c0-0.9,0.6-1.5,1.4-1.5c0.4,0,0.6,0.1,0.9,0.2v1c-0.3-0.2-0.5-0.3-0.7-0.3c-0.3,0-0.5,0.2-0.5,0.5v0
		c0,0.3,0.1,0.4,0.5,0.9c0.8,0.9,0.9,1.2,0.9,1.9v0c0,0.9-0.6,1.5-1.4,1.5C78.3,288.1,78,288,77.7,287.8z M46.2,290.4h-0.7v-0.9h2.4
		v0.9h-0.7v4.7h-1L46.2,290.4L46.2,290.4z M48.8,289.4h1l1.1,5.6h-1l-0.2-1.1h-0.9l-0.2,1.1h-0.9L48.8,289.4z M49.6,293l-0.3-1.8
		L49,293H49.6z M51.7,292.2l-0.9-2.7h1l0.4,1.6l0.4-1.6h1l-0.9,2.7l0.9,2.9h-1l-0.5-1.7l-0.5,1.7h-1L51.7,292.2z M55.3,293.6
		L55.3,293.6c0-0.7,0.3-1.2,0.9-1.7c-0.3-0.5-0.5-0.9-0.5-1.3v-0.1c0-0.7,0.5-1.2,1.2-1.2c0.7,0,1.1,0.5,1.1,1.2v0.1
		c0,0.6-0.3,1.1-0.8,1.5l0.5,1c0-0.2,0.1-0.4,0.1-0.8l0.8,0.1c-0.1,0.6-0.2,1.1-0.4,1.4l0.5,0.8l-0.7,0.4l-0.3-0.5
		c-0.3,0.3-0.6,0.5-1,0.5C55.9,295.1,55.3,294.5,55.3,293.6z M57.2,294l-0.7-1.4c-0.2,0.3-0.3,0.6-0.3,0.9v0.1
		c0,0.4,0.2,0.7,0.5,0.7C56.9,294.3,57.1,294.2,57.2,294z M56.8,291.5c0.2-0.2,0.3-0.5,0.3-0.8v-0.1c0-0.3-0.1-0.4-0.3-0.4
		c-0.2,0-0.3,0.2-0.3,0.4v0.1C56.5,290.9,56.6,291.1,56.8,291.5z M60.2,289.4h0.9c1.2,0,2,0.9,2,2.7v0.2c0,1.8-0.7,2.7-2,2.7h-0.9
		V289.4z M61.2,294.1c0.5,0,0.9-0.4,0.9-1.8v-0.2c0-1.4-0.4-1.8-0.9-1.8h0L61.2,294.1L61.2,294.1z M63.5,293.4v-4h1v4.1
		c0,0.5,0.2,0.7,0.4,0.7s0.4-0.2,0.4-0.7v-4.1h1v4c0,1.2-0.6,1.7-1.4,1.7C64.1,295.1,63.5,294.6,63.5,293.4z M67.4,290.4h-0.7v-0.9
		h2.4v0.9h-0.7v4.7h-1L67.4,290.4L67.4,290.4z M70.1,292.8l-1-3.4h1l0.5,2.1l0.5-2.1h1l-1,3.4v2.2h-1L70.1,292.8L70.1,292.8z
		 M73.7,289.4h2v0.9h-1.1v1.4h0.9v0.9h-0.9v2.3h-1V289.4z M76.2,289.4h1c1,0,1.7,0.5,1.7,1.8v0.1c0,0.7-0.3,1.2-0.7,1.5L79,295h-1
		l-0.6-2h-0.2v2h-1V289.4z M77.2,292.2c0.4,0,0.7-0.2,0.7-0.9v-0.1c0-0.7-0.3-0.9-0.8-0.9h0L77.2,292.2L77.2,292.2z M79.4,289.4h2.1
		v0.9h-1.2v1.4h1v0.9h-1v1.4h1.2v0.9h-2.2V289.4z M82,289.4h2.1v0.9H83v1.4h1v0.9h-1v1.4h1.2v0.9H82V289.4z"/>
	<path class="st3" d="M12.3,169.3v-0.8c0-0.9,0.4-1.8,1.4-1.8h0c0.7,0,1.1,0.4,1.3,0.8c0.2-0.5,0.5-0.9,1.2-0.9h0.1
		c1,0,1.6,0.8,1.6,1.9v0.9L12.3,169.3L12.3,169.3z M14.7,168.3c0-0.4-0.2-0.7-0.7-0.7h0c-0.5,0-0.7,0.3-0.7,0.7v0L14.7,168.3
		L14.7,168.3L14.7,168.3z M17,168.3c0-0.4-0.3-0.8-0.7-0.8h0c-0.5,0-0.7,0.3-0.7,0.8v0L17,168.3C17,168.3,17,168.3,17,168.3z
		 M12.3,165.4v-1l5.6-1.1v1l-1.1,0.2v0.9l1.1,0.2v0.9L12.3,165.4z M15.9,164.6l-1.8,0.3l1.8,0.3V164.6z M12.3,163v-1H17v-1h0.9v2
		H12.3z M15.2,160.9H15c-2,0-2.7-0.7-2.7-1.6c0-0.3,0-0.4,0.1-0.6h1c-0.1,0.2-0.2,0.4-0.2,0.5c0,0.4,0.4,0.7,1.8,0.7h0.2
		c1.5,0,1.8-0.3,1.8-0.8c0-0.2-0.1-0.3-0.2-0.5h1c0.1,0.2,0.2,0.4,0.2,0.7C18,160.2,17.2,160.9,15.2,160.9z M15.3,158.4H15
		c-1.8,0-2.7-0.6-2.7-1.5s0.9-1.5,2.7-1.5h0.3c1.8,0,2.7,0.6,2.7,1.5C18,157.8,17.1,158.4,15.3,158.4z M15.3,156.4H15
		c-1.4,0-1.8,0.2-1.8,0.5s0.4,0.5,1.8,0.5h0.3c1.4,0,1.8-0.2,1.8-0.5S16.7,156.4,15.3,156.4z M12.3,154.9V154l2.8-1h-2.8v-1h5.6v0.9
		l-3,1h3v1L12.3,154.9L12.3,154.9z M15.7,150.7l-3.4,1v-1l2.1-0.5l-2.1-0.5v-1l3.4,1h2.2v1L15.7,150.7L15.7,150.7z"/>
	<path class="st3" d="M108.8,169.3v-0.8c0-0.9,0.4-1.8,1.4-1.8h0c0.7,0,1.1,0.4,1.3,0.8c0.2-0.5,0.5-0.9,1.2-0.9h0.1
		c1,0,1.6,0.8,1.6,1.9v0.9L108.8,169.3L108.8,169.3z M111.2,168.3c0-0.4-0.2-0.7-0.7-0.7h0c-0.5,0-0.7,0.3-0.7,0.7v0L111.2,168.3
		L111.2,168.3z M113.5,168.3c0-0.4-0.3-0.8-0.7-0.8h0c-0.5,0-0.7,0.3-0.7,0.8v0L113.5,168.3L113.5,168.3L113.5,168.3z M108.8,165.4
		v-1l5.6-1.1v1l-1.1,0.2v0.9l1.1,0.2v0.9L108.8,165.4z M112.4,164.6l-1.8,0.3l1.8,0.3V164.6z M108.8,163v-1h4.7v-1h0.9v2H108.8z
		 M111.7,160.9h-0.2c-2,0-2.7-0.7-2.7-1.6c0-0.3,0-0.4,0.1-0.6h1c-0.1,0.2-0.2,0.4-0.2,0.5c0,0.4,0.4,0.7,1.8,0.7h0.2
		c1.5,0,1.8-0.3,1.8-0.8c0-0.2-0.1-0.3-0.2-0.5h1c0.1,0.2,0.2,0.4,0.2,0.7C114.5,160.2,113.7,160.9,111.7,160.9z M111.8,158.4h-0.3
		c-1.8,0-2.7-0.6-2.7-1.5s0.9-1.5,2.7-1.5h0.3c1.8,0,2.7,0.6,2.7,1.5C114.5,157.8,113.6,158.4,111.8,158.4z M111.8,156.4h-0.3
		c-1.4,0-1.8,0.2-1.8,0.5s0.4,0.5,1.8,0.5h0.3c1.4,0,1.8-0.2,1.8-0.5S113.2,156.4,111.8,156.4z M108.8,154.9V154l2.8-1h-2.8v-1h5.6
		v0.9l-3,1h3v1L108.8,154.9L108.8,154.9z M112.2,150.7l-3.4,1v-1l2.1-0.5l-2.1-0.5v-1l3.4,1h2.2v1L112.2,150.7L112.2,150.7z"/>
	<path class="st4" d="M106.7,601.9h-0.2c-1.8,0-2.7-0.8-2.7-1.9c0-0.3,0.1-0.5,0.2-0.7h1c-0.1,0.2-0.2,0.5-0.2,0.7
		c0,0.6,0.6,0.9,1.8,0.9h0.3c1.5,0,1.8-0.4,1.8-0.8c0,0,0,0,0-0.1h-1.4v0.5h-0.9v-1.4h3c0.2,0.4,0.2,0.6,0.2,1
		C109.5,601.1,108.7,601.9,106.7,601.9z M103.8,598.6v-1h5.6v1H103.8z M103.8,597v-2h0.9v1.1h1.4v-0.9h0.9v0.9h2.3v1L103.8,597
		L103.8,597z M104.8,594v0.7h-0.9v-2.4h0.9v0.7h4.7v1L104.8,594L104.8,594z M109.2,590.8h-1c0.2-0.3,0.3-0.6,0.3-0.9
		c0-0.3-0.1-0.5-0.5-0.5h0c-0.3,0-0.4,0.1-1,0.5c-0.8,0.7-1.1,0.9-1.8,0.9h0c-0.9,0-1.5-0.6-1.5-1.4c0-0.4,0.1-0.6,0.2-0.9h1
		c-0.2,0.3-0.3,0.5-0.3,0.7c0,0.3,0.2,0.5,0.5,0.5h0c0.3,0,0.4-0.1,0.9-0.5c0.9-0.8,1.2-0.9,1.9-0.9h0c0.9,0,1.5,0.6,1.5,1.4
		C109.5,590.2,109.4,590.5,109.2,590.8z M103.8,588.1v-1h2.3v-0.8h-2.3v-1h5.6v1h-2.4v0.8h2.4v1H103.8z M106.8,584.8h-0.3
		c-1.8,0-2.7-0.6-2.7-1.5s0.9-1.5,2.7-1.5h0.3c1.8,0,2.7,0.6,2.7,1.5S108.6,584.8,106.8,584.8z M106.8,582.8h-0.3
		c-1.4,0-1.8,0.2-1.8,0.5s0.4,0.5,1.8,0.5h0.3c1.4,0,1.8-0.2,1.8-0.5S108.2,582.8,106.8,582.8z M103.8,581.3v-0.9
		c0-1.1,0.6-1.8,1.9-1.8h0c1.3,0,1.9,0.7,1.9,1.7v0h1.8v1L103.8,581.3L103.8,581.3z M106.8,580.4c0-0.4-0.3-0.7-1-0.7h0
		c-0.7,0-1,0.3-1,0.7v0L106.8,580.4L106.8,580.4L106.8,580.4z"/>
</g>
<g id="DAWN_DECK_07_TOP">
	<g id="gDeck07Locations">
		<path width="126.9347" height="284.8402" id="_x30_7Aft" class="st5" d="M0.7,842.4c1,9.2,24.5,13.5,63.4,13.5c32.8,0,62.5-4.3,63.4-13.8l-0.1-271.1H0.6
			C0.6,711.6,0.7,835.7,0.7,842.4z"/>
		<path width="126.9197" height="298.6918" id="_x30_7MidShip" class="st5" d="M0.6,272.4c0,81.1,0,194.4,0.1,298.7h126.8l-0.1-298.7H0.6z"/>
		<path width="126.8356" height="271.9048" id="_x30_7Forward" class="st5" d="M127.4,160.9c0.2-70-39.3-159.3-63.1-160.4C39.4,0.2,1.4,90.6,0.6,160.9
			c0,0,0,44.8,0,111.5h126.8L127.4,160.9z"/>
	</g>
	<path class="st6" d="M127.5,842.2c-0.8,9.5-30.6,13.8-63.4,13.8c-38.9,0-62.4-4.3-63.4-13.5c-0.2-15.8-0.3-681.5-0.3-681.5
		C1.3,90.6,39.3,0.2,64.2,0.5c23.8,1.1,63.4,90.4,63.1,160.4L127.5,842.2z"/>
</g>
</svg>
