<?xml version="1.0" encoding="utf-8"?>
<!-- Generator: Adobe Illustrator 25.4.1, SVG Export Plug-In . SVG Version: 6.00 Build 0)  -->
<svg version="1.1" id="DAWN_DECK_14" xmlns="http://www.w3.org/2000/svg" xmlns:xlink="http://www.w3.org/1999/xlink" x="0px"
	 y="0px" width="129px" height="710.8px" viewBox="0 0 129 710.8" style="enable-background:new 0 0 129 710.8;"
	 xml:space="preserve">
<style type="text/css">
	.st0{fill:#FFFFFF;}
	.st1{fill:none;stroke:#D5DCE0;stroke-width:0.5;}
	.st2{fill:#6E8496;}
	.st3{fill:#EFF2F5;stroke:#FFFFFF;stroke-width:0.5;stroke-miterlimit:10;}
	.st4{fill:none;stroke:#EFF2F5;stroke-width:0.5;stroke-miterlimit:10;stroke-dasharray:2,2;}
	.st5{fill:none;}
	.st6{fill:none;stroke:#076FA0;stroke-miterlimit:10;}
</style>
<g id="DAWN_DECK_14_BOTTOM">
	<path class="st0" d="M99,78.6c0.7-24.9,0.3-42.8-5.4-55.8C87.4,8.6,75.4,0,64.5,0S40.8,8.2,35.4,22.8c-5.4,14.5-5.6,30-5.4,54.9
		l-0.2,40.1c-8.3,0-12.4,0-12.4,0s-16.9-1.6-16.9,12.8c0,16.7,0,122.6,0,122.6s21.2-8.5,63.4-8.5c42.2,0,64.4,8.7,64.4,8.7
		l-0.2-122.5c0,0,0.4-12.7-13.8-13.2c-2.1-0.1-8.7,0.2-15.4,0.2L99,78.6z"/>
	<path class="st0" d="M26.9,460v132.4c0,0-8.4-0.1-12-0.1c-3.5,0-4,4-4,4s0,103,0,108.6c0,5.6,5.6,5.6,5.6,5.6s93.2,0,97,0
		s4.7-4.5,4.7-4.5s0-104.1,0-109c0-5-4.3-4.3-4.3-4.3l-12.4-0.1l0-132.4l20.5,0l0,7.1c0,0,6.7,0.3,6.5-11.8l0.1-127.2
		c0,0,0-12.7-11.2-19.9c-8.4-5.4-20.4-8.6-52.7-9.7c-3.7-0.1-43.8,0.9-53.5,8.5c-11,8.7-10.6,21.3-10.6,21.3l0,129.4
		c0.1,2.5-0.6,7.3,7.1,8.7c0,0,0-6.5,0-6.5L26.9,460z"/>
	<rect x="16.3" y="484.1" class="st1" width="7.9" height="16.6"/>
	<rect x="104.3" y="483.9" class="st1" width="8" height="16.8"/>
	<line class="st1" x1="45.1" y1="392.2" x2="52.4" y2="402"/>
	<line class="st1" x1="45.4" y1="401.9" x2="52.6" y2="392.3"/>
	<line class="st1" x1="52.6" y1="392.3" x2="60.5" y2="401.8"/>
	<line class="st1" x1="52.9" y1="401.4" x2="60.4" y2="392.2"/>
	<line class="st1" x1="75" y1="392.3" x2="67.5" y2="402"/>
	<line class="st1" x1="75" y1="402" x2="67.6" y2="392.3"/>
	<line class="st1" x1="83" y1="392.2" x2="75.2" y2="401.9"/>
	<line class="st1" x1="82.9" y1="401.9" x2="75.3" y2="392.4"/>
	<line class="st1" x1="23.5" y1="497.9" x2="16.5" y2="497.9"/>
	<line class="st1" x1="23.5" y1="495.2" x2="16.5" y2="495.2"/>
	<line class="st1" x1="23.5" y1="492.5" x2="16.5" y2="492.5"/>
	<line class="st1" x1="23.5" y1="489.7" x2="16.5" y2="489.7"/>
	<line class="st1" x1="23.5" y1="487" x2="16.5" y2="487"/>
	<rect x="16.4" y="484.3" class="st1" width="7" height="16.4"/>
	<line class="st1" x1="112.3" y1="497.9" x2="105.2" y2="497.9"/>
	<line class="st1" x1="112.3" y1="495.2" x2="105.2" y2="495.2"/>
	<line class="st1" x1="112.3" y1="492.5" x2="105.2" y2="492.5"/>
	<line class="st1" x1="112.3" y1="489.7" x2="105.2" y2="489.7"/>
	<line class="st1" x1="112.3" y1="487" x2="105.2" y2="487"/>
	<rect x="105.1" y="484.3" class="st1" width="7" height="16.4"/>
	<path class="st1" d="M72.5,360c-0.3,0-0.6,0.2-0.6,0.5"/>
	<line class="st1" x1="79.8" y1="360" x2="72.5" y2="360"/>
	<line class="st1" x1="71.9" y1="360.5" x2="71.9" y2="362.5"/>
	<line class="st1" x1="71.9" y1="362.5" x2="57.6" y2="362.5"/>
	<path class="st1" d="M57.6,360.5c0-0.3-0.3-0.5-0.6-0.5"/>
	<line class="st1" x1="57.6" y1="362.5" x2="57.6" y2="360.5"/>
	<line class="st1" x1="57" y1="360" x2="49.7" y2="360"/>
	<line class="st1" x1="64.9" y1="372.2" x2="64.9" y2="359.8"/>
	<line class="st1" x1="64.6" y1="372.2" x2="64.6" y2="359.8"/>
	<line class="st1" x1="79.4" y1="371.6" x2="64.9" y2="371.6"/>
	<line class="st1" x1="64.9" y1="359.8" x2="64.6" y2="359.8"/>
	<line class="st1" x1="64.9" y1="372.2" x2="64.6" y2="372.2"/>
	<line class="st1" x1="64.6" y1="371.6" x2="49.6" y2="371.6"/>
	<line class="st1" x1="64.6" y1="370.3" x2="58.2" y2="370.3"/>
	<line class="st1" x1="64.6" y1="369" x2="58.2" y2="369"/>
	<line class="st1" x1="64.6" y1="367.6" x2="58.2" y2="367.6"/>
	<line class="st1" x1="64.6" y1="366.3" x2="58.2" y2="366.3"/>
	<line class="st1" x1="64.6" y1="365" x2="58.2" y2="365"/>
	<line class="st1" x1="64.6" y1="363.7" x2="58.2" y2="363.7"/>
	<line class="st1" x1="64.6" y1="361.1" x2="57.6" y2="361.1"/>
	<line class="st1" x1="71.3" y1="370.3" x2="64.9" y2="370.3"/>
	<line class="st1" x1="71.3" y1="369" x2="64.9" y2="369"/>
	<line class="st1" x1="71.3" y1="367.6" x2="64.9" y2="367.6"/>
	<line class="st1" x1="71.3" y1="366.3" x2="64.9" y2="366.3"/>
	<line class="st1" x1="71.3" y1="365" x2="64.9" y2="365"/>
	<line class="st1" x1="71.3" y1="363.7" x2="64.9" y2="363.7"/>
	<line class="st1" x1="71.9" y1="361.1" x2="64.9" y2="361.1"/>
	<line class="st1" x1="49.5" y1="361.3" x2="57" y2="361.3"/>
	<line class="st1" x1="49.6" y1="362.6" x2="57.8" y2="362.6"/>
	<line class="st1" x1="49.5" y1="363.9" x2="57" y2="363.9"/>
	<line class="st1" x1="49.6" y1="365.2" x2="57" y2="365.2"/>
	<line class="st1" x1="71.9" y1="361.3" x2="79.6" y2="361.3"/>
	<line class="st1" x1="71.8" y1="362.6" x2="79.7" y2="362.6"/>
	<line class="st1" x1="72.5" y1="363.9" x2="79.7" y2="363.9"/>
	<line class="st1" x1="72.5" y1="365.2" x2="79.7" y2="365.2"/>
	<path class="st1" d="M56.9,372.4c0,0.3,0.3,0.5,0.6,0.5s0.6-0.2,0.6-0.5l0,0"/>
	<line class="st1" x1="58.1" y1="372.4" x2="58.1" y2="372.2"/>
	<line class="st1" x1="56.9" y1="372.4" x2="56.9" y2="372.2"/>
	<path class="st1" d="M71.3,372.4c0,0.3,0.3,0.5,0.6,0.5c0.3,0,0.6-0.2,0.6-0.5l0,0"/>
	<line class="st1" x1="72.5" y1="372.4" x2="72.5" y2="372.2"/>
	<line class="st1" x1="71.3" y1="372.4" x2="71.3" y2="372.2"/>
	<line class="st1" x1="57.5" y1="372.2" x2="57.5" y2="362.6"/>
	<line class="st1" x1="49.7" y1="367.8" x2="57" y2="367.8"/>
	<line class="st1" x1="49.7" y1="369.1" x2="57" y2="369.1"/>
	<line class="st1" x1="49.7" y1="370.4" x2="57" y2="370.4"/>
	<line class="st1" x1="49.6" y1="366.5" x2="57" y2="366.5"/>
	<line class="st1" x1="71.9" y1="372.2" x2="71.9" y2="362.5"/>
	<line class="st1" x1="72.5" y1="367.8" x2="79.6" y2="367.8"/>
	<line class="st1" x1="72.5" y1="369.1" x2="79.6" y2="369.1"/>
	<line class="st1" x1="72.5" y1="370.4" x2="79.5" y2="370.4"/>
	<line class="st1" x1="72.4" y1="366.5" x2="79.8" y2="366.5"/>
	<polygon class="st1" points="36.2,501.4 36.2,505.1 93.2,505.1 93.2,501.4 93.2,467.4 36.2,467.4 	"/>
	<path class="st1" d="M95.7,695.4c0,0,0.1,4.1-4,4.1c-4.1,0-55.6,0-55.6,0s-3.9-0.5-3.9-4.3c0-3.8,0-46.6,0-46.6s-0.5-4.5,4.5-4.5
		c0,0,0-122.7,0-122.7s0.2-4.4,4.4-4.4s45.9,0,45.9,0s4.1,0.4,4.1,4.1s0,123.1,0,123.1s4.7-0.3,4.7,4.5
		C95.7,653.6,95.7,695.4,95.7,695.4L95.7,695.4z"/>
	<line class="st1" x1="52.7" y1="392.5" x2="52.7" y2="402.1"/>
	<line class="st1" x1="75.2" y1="392.2" x2="75.2" y2="401.8"/>
	<line class="st1" x1="60.6" y1="392.2" x2="60.6" y2="401.8"/>
	<line class="st1" x1="67.5" y1="392.2" x2="67.5" y2="401.8"/>
	<polyline class="st1" points="38.4,392.7 38.4,385.7 40.1,383.7 	"/>
	<polyline class="st1" points="91,390.2 91,385.7 89.3,383.7 	"/>
	<polyline class="st1" points="45.1,401.7 45.1,392.2 83,392.2 83,401.9 	"/>
	<path class="st1" d="M38.4,403.2v-11h1.9v9.6h20.1h7h20.1v-9.6l0,0h5.3v7.1l-2.2,0c0,0,0.3,1.8,0,3.6"/>
	<polyline class="st1" points="83.3,338.6 83.3,378.6 86.5,381.1 	"/>
	<polyline class="st1" points="46,359.1 49.4,359.1 49.4,374.9 79.8,374.9 79.8,359.1 79.8,359.1 83.3,359.1 	"/>
	<polyline class="st1" points="43.8,380.6 46,378.6 46,338.6 	"/>
	<line class="st1" x1="38.1" y1="402.9" x2="90.6" y2="402.9"/>
	<path class="st1" d="M107.1,181.2h6.9 M107.1,183h6.9 M107.1,184.7h6.9 M107.1,186.5h6.9 M107.1,188.3h6.9 M107.1,190h6.9
		 M107.1,191.8h6.9 M107.1,193.5h6.9 M107.1,195.3h6.9 M107.1,197h6.9 M107.1,198.8h6.9 M107.1,200.5h6.9 M107.1,202.3h6.9"/>
	<path class="st1" d="M31.8,117.9h6.9 M31.8,119.6h6.9 M31.8,121.4h6.9 M31.8,123.2h6.9 M31.8,124.9h6.9 M31.8,126.7h6.9
		 M31.8,128.4h6.9 M31.8,130.2h6.9 M31.8,131.9h6.9 M31.8,133.7h6.9 M31.8,135.4h6.9 M31.8,137.2h6.9 M31.8,138.9h6.9"/>
	<path class="st1" d="M13.1,181.3H20 M13.1,183.1H20 M13.1,184.8H20 M13.1,186.6H20 M13.1,188.3H20 M13.1,190.1H20 M13.1,191.9H20
		 M13.1,193.6H20 M13.1,195.4H20 M13.1,197.1H20 M13.1,198.9H20 M13.1,200.6H20 M13.1,202.4H20"/>
	<path class="st1" d="M90.3,159.9l2.4,2.4v17.5H36.1v-17.3l2.8-2.8V46.5c0,0-0.3-31.3,25.5-31.3c25.8,0,25.9,30,25.9,31.6
		c0,1.6,0,96.8,0,96.8L90.3,159.9z"/>
	<path class="st1" d="M114.1,202.5v-21.6 M107.2,202.5v-21.6"/>
	<path class="st1" d="M38.8,139.1v-21.6 M31.9,139.1v-21.6"/>
	<path class="st1" d="M20,202.6v-21.6 M13.1,202.6v-21.6"/>
	<polygon class="st1" points="61.3,238.7 67.2,238.7 65.8,241.6 65.8,244.8 62.7,244.8 62.7,241.6 	"/>
	<path class="st2" d="M44,211.9h0.8c0.9,0,1.8,0.4,1.8,1.4v0c0,0.7-0.4,1.1-0.8,1.3c0.5,0.2,0.9,0.5,0.9,1.2v0.1
		c0,1-0.8,1.6-1.9,1.6H44V211.9z M45,214.2c0.4,0,0.7-0.2,0.7-0.7v0c0-0.5-0.3-0.7-0.7-0.7h0L45,214.2L45,214.2L45,214.2z M45,216.6
		c0.4,0,0.8-0.3,0.8-0.7v0c0-0.5-0.3-0.7-0.8-0.7h0L45,216.6L45,216.6L45,216.6z M47.2,211.9h1v5.6h-1V211.9z M48.8,211.9h1l0.7,2
		l0.7-2h1v5.6h-0.9v-3.4l-0.7,2.1h0l-0.7-2.1v3.4h-0.9C48.8,217.5,48.8,211.9,48.8,211.9z M52.7,211.9h1v5.6h-1V211.9z M54.2,211.9
		h0.9l1,2.8v-2.8h1v5.6h-0.9l-1-3v3h-1C54.2,217.5,54.2,211.9,54.2,211.9z M57.7,211.9h1v5.6h-1V211.9z M60.5,211.9h0.8
		c0.9,0,1.8,0.4,1.8,1.4v0c0,0.7-0.4,1.1-0.8,1.3c0.5,0.2,0.9,0.5,0.9,1.2v0.1c0,1-0.8,1.6-1.9,1.6h-0.9
		C60.5,217.5,60.5,211.9,60.5,211.9z M61.5,214.2c0.4,0,0.7-0.2,0.7-0.7v0c0-0.5-0.3-0.7-0.7-0.7h0L61.5,214.2L61.5,214.2
		L61.5,214.2z M61.5,216.6c0.4,0,0.8-0.3,0.8-0.7v0c0-0.5-0.3-0.7-0.8-0.7h0L61.5,216.6L61.5,216.6L61.5,216.6z M64.4,211.9h1
		l1.1,5.6h-1l-0.2-1.1h-0.9l-0.2,1.1h-0.9L64.4,211.9z M65.2,215.5l-0.3-1.8l-0.3,1.8H65.2z M66.8,211.9h1c1,0,1.7,0.5,1.7,1.8v0.1
		c0,0.7-0.3,1.2-0.7,1.5l0.8,2.3h-1l-0.6-2h-0.2v2h-1V211.9z M67.8,214.7c0.4,0,0.7-0.2,0.7-0.9v-0.1c0-0.7-0.3-0.9-0.8-0.9h0
		L67.8,214.7L67.8,214.7z M71.1,216.1L71.1,216.1c0-0.7,0.3-1.2,0.9-1.7c-0.3-0.5-0.5-0.9-0.5-1.3V213c0-0.7,0.5-1.2,1.2-1.2
		c0.7,0,1.1,0.5,1.1,1.2v0.1c0,0.6-0.3,1.1-0.8,1.5l0.5,1c0-0.2,0.1-0.4,0.1-0.8l0.8,0.1c-0.1,0.6-0.2,1.1-0.4,1.4l0.5,0.8l-0.7,0.4
		l-0.3-0.5c-0.3,0.3-0.6,0.5-1,0.5C71.7,217.6,71.1,217,71.1,216.1z M73,216.5l-0.7-1.4c-0.2,0.3-0.3,0.6-0.3,0.9v0.1
		c0,0.4,0.2,0.7,0.5,0.7C72.7,216.7,72.9,216.6,73,216.5z M72.6,213.9c0.2-0.2,0.3-0.5,0.3-0.8v-0.1c0-0.3-0.1-0.4-0.3-0.4
		c-0.2,0-0.3,0.2-0.3,0.4v0.1C72.3,213.3,72.4,213.6,72.6,213.9z M75.9,214.8v-0.2c0-1.8,0.8-2.7,1.9-2.7c0.3,0,0.5,0.1,0.7,0.2v1
		c-0.2-0.1-0.5-0.2-0.7-0.2c-0.6,0-0.9,0.6-0.9,1.8v0.3c0,1.5,0.4,1.8,0.8,1.8c0,0,0,0,0.1,0v-1.4h-0.5v-0.9h1.4v3
		c-0.4,0.2-0.6,0.2-1,0.2C76.7,217.5,75.9,216.7,75.9,214.8z M79.2,211.9h1c1,0,1.7,0.5,1.7,1.8v0.1c0,0.7-0.3,1.2-0.7,1.5l0.8,2.3
		h-1l-0.6-2h-0.2v2h-1V211.9z M80.3,214.7c0.4,0,0.7-0.2,0.7-0.9v-0.1c0-0.7-0.3-0.9-0.8-0.9h0L80.3,214.7L80.3,214.7z M82.4,211.9
		h1v5.6h-1V211.9z M84,211.9h1v4.7h1v0.9h-2C84,217.5,84,211.9,84,211.9z M86.4,211.9h1v4.7h1v0.9h-2
		C86.4,217.5,86.4,211.9,86.4,211.9z"/>
	<path class="st2" d="M48.6,474.9v-1c0.3,0.2,0.6,0.3,0.9,0.3c0.3,0,0.5-0.1,0.5-0.5v0c0-0.3-0.1-0.4-0.5-1
		c-0.7-0.8-0.9-1.1-0.9-1.8v0c0-0.9,0.6-1.5,1.4-1.5c0.4,0,0.6,0.1,0.9,0.2v1c-0.3-0.2-0.5-0.3-0.7-0.3c-0.3,0-0.5,0.2-0.5,0.5v0
		c0,0.3,0.1,0.4,0.5,0.9c0.8,0.9,0.9,1.2,0.9,1.9v0c0,0.9-0.6,1.5-1.4,1.5C49.2,475.1,48.9,475,48.6,474.9z M51.3,469.5h0.9
		c1.1,0,1.8,0.6,1.8,1.9v0c0,1.3-0.7,1.9-1.7,1.9h0v1.8h-1V469.5z M52.3,472.4c0.4,0,0.7-0.3,0.7-1v0c0-0.7-0.3-1-0.7-1h0
		L52.3,472.4L52.3,472.4L52.3,472.4z M54.3,472.4v-0.3c0-1.8,0.6-2.7,1.5-2.7s1.5,0.9,1.5,2.7v0.3c0,1.8-0.6,2.7-1.5,2.7
		S54.3,474.3,54.3,472.4z M56.3,472.4v-0.3c0-1.4-0.2-1.8-0.5-1.8s-0.5,0.4-0.5,1.8v0.3c0,1.4,0.2,1.8,0.5,1.8
		S56.3,473.9,56.3,472.4z M57.8,469.5h1c1,0,1.7,0.5,1.7,1.8v0.1c0,0.7-0.3,1.2-0.7,1.5l0.8,2.3h-1l-0.6-2h-0.2v2h-1V469.5z
		 M58.8,472.3c0.4,0,0.7-0.2,0.7-0.9v-0.1c0-0.7-0.3-0.9-0.8-0.9h0L58.8,472.3L58.8,472.3z M61.4,470.4h-0.7v-0.9h2.4v0.9h-0.7v4.7
		h-1L61.4,470.4L61.4,470.4z M63.3,474.9v-1c0.3,0.2,0.6,0.3,0.9,0.3c0.3,0,0.5-0.1,0.5-0.5v0c0-0.3-0.1-0.4-0.5-1
		c-0.7-0.8-0.9-1.1-0.9-1.8v0c0-0.9,0.6-1.5,1.4-1.5c0.4,0,0.6,0.1,0.9,0.2v1c-0.3-0.2-0.5-0.3-0.7-0.3c-0.3,0-0.5,0.2-0.5,0.5v0
		c0,0.3,0.1,0.4,0.5,0.9c0.8,0.9,0.9,1.2,0.9,1.9v0c0,0.9-0.6,1.5-1.4,1.5C64,475.1,63.6,475,63.3,474.9z M67.2,472.4v-0.2
		c0-2,0.7-2.7,1.6-2.7c0.3,0,0.4,0,0.6,0.1v1c-0.2-0.1-0.4-0.2-0.5-0.2c-0.4,0-0.7,0.4-0.7,1.8v0.2c0,1.5,0.3,1.8,0.8,1.8
		c0.2,0,0.3-0.1,0.5-0.2v1c-0.2,0.1-0.4,0.2-0.7,0.2C67.9,475.1,67.2,474.4,67.2,472.4z M69.7,472.4v-0.3c0-1.8,0.6-2.7,1.5-2.7
		s1.5,0.9,1.5,2.7v0.3c0,1.8-0.6,2.7-1.5,2.7S69.7,474.3,69.7,472.4z M71.7,472.4v-0.3c0-1.4-0.2-1.8-0.5-1.8s-0.5,0.4-0.5,1.8v0.3
		c0,1.4,0.2,1.8,0.5,1.8S71.7,473.9,71.7,472.4z M73.2,473.5v-4h1v4.1c0,0.5,0.2,0.7,0.4,0.7s0.4-0.2,0.4-0.7v-4.1h1v4
		c0,1.2-0.6,1.7-1.4,1.7S73.2,474.6,73.2,473.5z M76.5,469.5h1c1,0,1.7,0.5,1.7,1.8v0.1c0,0.7-0.3,1.2-0.7,1.5l0.8,2.3h-1l-0.6-2
		h-0.2v2h-1C76.5,475.1,76.5,469.5,76.5,469.5z M77.5,472.3c0.4,0,0.7-0.2,0.7-0.9v-0.1c0-0.7-0.3-0.9-0.8-0.9h0L77.5,472.3
		L77.5,472.3z M80.1,470.4h-0.7v-0.9h2.4v0.9h-0.7v4.7h-1L80.1,470.4L80.1,470.4z"/>
	<path class="st2" d="M57.8,407.1v-0.2c0-1.4,0.5-2.1,1.1-2.1c0.7,0,1.1,0.7,1.1,2.1v0.2c0,1.4-0.5,2.1-1.1,2.1
		C58.2,409.1,57.8,408.5,57.8,407.1z M59.2,407.1v-0.2c0-1.1-0.1-1.4-0.4-1.4c-0.2,0-0.4,0.3-0.4,1.4v0.2c0,1.1,0.1,1.4,0.4,1.4
		C59.1,408.5,59.2,408.2,59.2,407.1z M60.3,404.9H61c0.8,0,1.4,0.4,1.4,1.4v0c0,0.9-0.5,1.4-1.3,1.5h0v1.3h-0.7V404.9z M61.1,407.1
		c0.3,0,0.5-0.2,0.5-0.8v0c0-0.5-0.2-0.8-0.5-0.8h0L61.1,407.1L61.1,407.1L61.1,407.1z M62.7,404.9h1.6v0.7h-0.9v1h0.8v0.7h-0.8v1.1
		h0.9v0.7h-1.6C62.7,409.1,62.7,404.9,62.7,404.9z M64.6,404.9h0.7l0.7,2.1v-2.1h0.7v4.2h-0.6l-0.8-2.2v2.2h-0.7V404.9z M68.5,405.6
		H68v-0.7h1.8v0.7h-0.5v3.5h-0.7V405.6z M69.9,407.1v-0.2c0-1.4,0.4-2.1,1.1-2.1c0.7,0,1.1,0.7,1.1,2.1v0.2c0,1.4-0.4,2.1-1.1,2.1
		C70.4,409.1,69.9,408.5,69.9,407.1z M71.4,407.1v-0.2c0-1.1-0.1-1.4-0.4-1.4c-0.2,0-0.4,0.3-0.4,1.4v0.2c0,1.1,0.1,1.4,0.4,1.4
		C71.2,408.5,71.4,408.2,71.4,407.1z M53.3,410.9H54c0.9,0,1.5,0.7,1.5,2v0.1c0,1.3-0.5,2-1.5,2h-0.7
		C53.3,415.1,53.3,410.9,53.3,410.9z M54,414.4c0.3,0,0.6-0.3,0.6-1.4v-0.1c0-1-0.3-1.4-0.6-1.4h0L54,414.4L54,414.4L54,414.4z
		 M55.8,410.9h1.6v0.7h-0.9v1h0.8v0.7h-0.8v1.1h0.9v0.7h-1.6V410.9z M57.6,413.1v-0.1c0-1.5,0.5-2.1,1.2-2.1c0.2,0,0.3,0,0.5,0.1
		v0.8c-0.1-0.1-0.3-0.1-0.4-0.1c-0.3,0-0.6,0.3-0.6,1.3v0.2c0,1.1,0.2,1.3,0.6,1.3c0.1,0,0.3,0,0.4-0.1v0.7
		c-0.2,0.1-0.3,0.1-0.5,0.1C58.1,415.1,57.6,414.5,57.6,413.1z M59.7,410.9h0.7v1.8l0.6-1.8h0.8l-0.7,1.8l0.7,2.4h-0.8l-0.5-1.6
		l-0.2,0.5v1.1h-0.7L59.7,410.9L59.7,410.9L59.7,410.9z M62.1,414.9v-0.8c0.3,0.1,0.5,0.2,0.7,0.2c0.2,0,0.4-0.1,0.4-0.4v0
		c0-0.2-0.1-0.3-0.4-0.7c-0.5-0.6-0.7-0.8-0.7-1.3v0c0-0.7,0.4-1.1,1-1.1c0.3,0,0.5,0,0.6,0.1v0.8c-0.2-0.1-0.4-0.2-0.6-0.2
		c-0.2,0-0.4,0.1-0.4,0.4v0c0,0.2,0.1,0.3,0.4,0.7c0.6,0.7,0.7,0.9,0.7,1.4v0c0,0.7-0.5,1.1-1,1.1C62.5,415.1,62.3,415,62.1,414.9z
		 M65,410.9h0.6c0.7,0,1.4,0.3,1.4,1.1v0c0,0.5-0.3,0.8-0.6,0.9c0.4,0.2,0.7,0.4,0.7,0.9v0.1c0,0.7-0.6,1.2-1.4,1.2H65
		C65,415.1,65,410.9,65,410.9z M65.8,412.7c0.3,0,0.5-0.2,0.5-0.6v0c0-0.4-0.2-0.5-0.5-0.5h0L65.8,412.7L65.8,412.7z M65.8,414.4
		c0.3,0,0.6-0.2,0.6-0.5v0c0-0.3-0.2-0.5-0.6-0.5h0L65.8,414.4L65.8,414.4L65.8,414.4z M67.4,410.9H69v0.7h-0.9v1h0.8v0.7h-0.8v1.1
		H69v0.7h-1.6L67.4,410.9L67.4,410.9z M69.4,410.9h0.7v3.5h0.8v0.7h-1.5L69.4,410.9L69.4,410.9z M71,413.1v-0.2
		c0-1.4,0.4-2.1,1.1-2.1c0.7,0,1.1,0.7,1.1,2.1v0.2c0,1.4-0.4,2.1-1.1,2.1C71.4,415.1,71,414.5,71,413.1z M72.5,413.1v-0.2
		c0-1.1-0.1-1.4-0.4-1.4c-0.2,0-0.4,0.3-0.4,1.4v0.2c0,1.1,0.1,1.4,0.4,1.4C72.3,414.5,72.5,414.2,72.5,413.1z M73.3,410.9h0.8
		l0.3,2.6l0.4-2.6h0.7l0.4,2.6l0.3-2.6h0.7l-0.6,4.2h-0.8l-0.3-2.5l-0.3,2.5h-0.8L73.3,410.9z"/>
</g>
<g id="DAWN_DECK_14_ROOMS">
	<g id="gDeck143BedroomGardenVillaS1">
		<g id="hDeck143BedroomGardenVillaS1">
			<g id="g14500">
				<g id="h14500">
					<path id="b14500" class="st3" d="M15.5,432.6h-15l0-29.8l19.2,0l6.5,0C20.9,412.7,15.5,432.6,15.5,432.6z M64,423.6
						c-10.3-0.8-13.8-9-13.8-9c-12.2,0.8-11.6-11.7-11.6-11.7l-12.4,0c-5.3,9.8-10.6,29.7-10.6,29.7h-15l0,25.2
						c0.1,2.5-0.6,7.3,7.1,8.7c0,0,0-6.7,0-6.7l19.3,0.2l1.3,0l36,0.1L64,423.6z M0.2,370.1v32.8l24.7,0.1l0.1-6.5l5.5-5.7l0.1-20.6
						l0.3,0l0,0L0.2,370.1L0.2,370.1z M0.2,370.1h30.7l0,0l8.3,0.1l-0.1-24.5H0.2V370.1z M64.6,298.5c-13.8,0-40.1,3-50.8,6.7
						c-2,0.7-3.8,1.9-5.3,3.4l30.8,30l25.2,0C64.6,338.6,64.6,302.4,64.6,298.5z M0.2,326.6v19.1h38.9l0-7.1h0.2l-30.8-30
						C2.1,314.9,0.2,326.6,0.2,326.6z"/>
					<path id="p14500" class="st2" d="M43.7,426.5c-3.6,0-6.6,3-6.6,6.6s3,6.6,6.6,6.6s6.6-3,6.6-6.6S47.3,426.5,43.7,426.5z
						 M49.2,435.7c-0.5-0.2-1-0.4-1.9-0.4s-1.4,0.2-1.9,0.4c-0.4,0.2-0.8,0.4-1.7,0.4s-1.3-0.2-1.7-0.4c-0.5-0.2-1-0.4-1.9-0.4
						s-1.4,0.2-1.9,0.4c0,0,0,0,0,0c-0.1-0.2-0.2-0.5-0.3-0.8c0.2-0.1,0.4-0.1,0.5-0.2c0.4-0.2,0.8-0.4,1.7-0.4s1.3,0.2,1.7,0.4
						c0.5,0.2,1,0.4,1.9,0.4s1.4-0.2,1.9-0.4c0.4-0.2,0.8-0.4,1.7-0.4s1.3,0.2,1.7,0.4c0.2,0.1,0.3,0.1,0.5,0.2
						C49.5,435.2,49.4,435.4,49.2,435.7C49.2,435.7,49.2,435.7,49.2,435.7z M49,436.2c-0.1,0.2-0.3,0.5-0.5,0.7
						c-0.3-0.1-0.7-0.1-1.2-0.1c-1,0-1.4,0.2-1.9,0.4c-0.4,0.2-0.8,0.4-1.7,0.4s-1.3-0.2-1.7-0.4c-0.5-0.2-1-0.4-1.9-0.4
						c-0.5,0-0.9,0.1-1.2,0.1c-0.2-0.2-0.3-0.5-0.5-0.7c0.4-0.2,0.8-0.3,1.7-0.3c0.8,0,1.3,0.2,1.7,0.4c0.5,0.2,1,0.4,1.9,0.4
						s1.4-0.2,1.9-0.4c0.4-0.2,0.8-0.4,1.7-0.4C48.1,435.9,48.5,436,49,436.2z M49.2,434.2c-0.5-0.2-1-0.4-1.9-0.4s-1.4,0.2-1.9,0.4
						c-0.4,0.2-0.8,0.4-1.7,0.4s-1.3-0.2-1.7-0.4c-0.5-0.2-1-0.4-1.9-0.4s-1.4,0.2-1.9,0.4c-0.1,0.1-0.3,0.1-0.5,0.2
						c-0.1-0.3-0.1-0.6-0.1-0.9c0.3-0.1,0.6-0.2,0.8-0.3c0.4-0.2,0.8-0.4,1.7-0.4s1.3,0.2,1.7,0.4c0.5,0.2,1,0.4,1.9,0.4
						s1.4-0.2,1.9-0.4c0.4-0.2,0.8-0.4,1.7-0.4s1.3,0.2,1.7,0.4c0.2,0.1,0.5,0.2,0.8,0.3c0,0.3,0,0.6-0.1,0.9
						C49.5,434.3,49.4,434.2,49.2,434.2z M49.2,432.6c-0.5-0.2-1-0.4-1.9-0.4s-1.4,0.2-1.9,0.4c-0.4,0.2-0.8,0.4-1.7,0.4
						s-1.3-0.2-1.7-0.4c-0.5-0.2-1-0.4-1.9-0.4s-1.4,0.2-1.9,0.4c-0.2,0.1-0.4,0.1-0.6,0.2c0-0.3,0-0.6,0.1-0.9
						c0.3-0.1,0.5-0.1,0.7-0.2c0.4-0.2,0.8-0.4,1.7-0.4s1.3,0.2,1.7,0.4c0.5,0.2,1,0.4,1.9,0.4s1.4-0.2,1.9-0.4
						c0.4-0.2,0.8-0.4,1.7-0.4s1.3,0.2,1.7,0.4c0.2,0.1,0.4,0.2,0.7,0.2c0.1,0.3,0.1,0.6,0.1,0.9C49.6,432.8,49.4,432.7,49.2,432.6z
						 M38.4,430.2c0.4-0.2,0.8-0.4,1.7-0.4s1.3,0.2,1.7,0.4c0.5,0.2,1,0.4,1.9,0.4s1.4-0.2,1.9-0.4c0.4-0.2,0.8-0.4,1.7-0.4
						s1.3,0.2,1.7,0.4c0,0,0.1,0,0.1,0c0.2,0.3,0.3,0.7,0.4,1c-0.1,0-0.2-0.1-0.3-0.1c-0.5-0.2-1-0.4-1.9-0.4s-1.4,0.2-1.9,0.4
						c-0.4,0.2-0.8,0.4-1.7,0.4s-1.3-0.2-1.7-0.4c-0.5-0.2-1-0.4-1.9-0.4s-1.4,0.2-1.9,0.4c-0.1,0-0.2,0.1-0.3,0.1
						C38,430.9,38.2,430.6,38.4,430.2C38.4,430.2,38.4,430.2,38.4,430.2z M42,427.3c0.4,0.2,0.9,0.3,1.7,0.3c0.8,0,1.3-0.2,1.7-0.3
						c0.4,0.1,0.9,0.3,1.2,0.5c-0.5,0.1-0.9,0.2-1.3,0.3c-0.4,0.2-0.8,0.4-1.7,0.4s-1.3-0.2-1.7-0.4c-0.3-0.1-0.7-0.3-1.3-0.3
						C41.1,427.6,41.5,427.4,42,427.3z M39.9,428.4c0.1,0,0.1,0,0.2,0c0.8,0,1.3,0.2,1.7,0.4c0.5,0.2,1,0.4,1.9,0.4s1.4-0.2,1.9-0.4
						c0.4-0.2,0.8-0.4,1.7-0.4c0.1,0,0.1,0,0.2,0c0.4,0.3,0.7,0.7,1,1c-0.3-0.1-0.7-0.1-1.2-0.1c-1,0-1.4,0.2-1.9,0.4
						c-0.4,0.2-0.8,0.4-1.7,0.4s-1.3-0.2-1.7-0.4c-0.5-0.2-1-0.4-1.9-0.4c-0.5,0-0.9,0.1-1.2,0.1C39.2,429,39.5,428.7,39.9,428.4z
						 M47,438.3c-0.7,0-1.2,0.2-1.6,0.4c-0.4,0.2-0.8,0.4-1.7,0.4s-1.3-0.2-1.7-0.4c-0.4-0.2-0.8-0.3-1.6-0.4
						c-0.4-0.2-0.7-0.5-1.1-0.9c0.2,0,0.4-0.1,0.7-0.1c0.8,0,1.3,0.2,1.7,0.4c0.5,0.2,1,0.4,1.9,0.4s1.4-0.2,1.9-0.4
						c0.4-0.2,0.8-0.4,1.7-0.4c0.3,0,0.5,0,0.7,0.1C47.7,437.7,47.3,438,47,438.3z"/>
					<line id="d14500" class="st4" x1="64.6" y1="298.5" x2="64.6" y2="338.6"/>
					<path id="t14500" class="st2" d="M35.8,311.6l1.2-3.1h0.6l-1.8,4.4l-1.8-4.4h0.6L35.8,311.6z M38.4,312.7h-0.5v-4.1h0.5
						L38.4,312.7L38.4,312.7z M41.1,309.3c-0.2-0.3-0.3-0.4-0.7-0.4c-0.3,0-0.7,0.2-0.7,0.6c0,0.3,0.3,0.5,0.6,0.6l0.3,0.1
						c0.6,0.2,1,0.6,1,1.2c0,0.8-0.6,1.3-1.3,1.3c-0.7,0-1.2-0.5-1.3-1.2l0.5-0.1c0,0.5,0.3,0.8,0.8,0.8s0.7-0.4,0.7-0.8
						c0-0.4-0.4-0.6-0.7-0.8l-0.3-0.1c-0.5-0.2-0.9-0.5-0.9-1c0-0.7,0.6-1.1,1.2-1.1c0.5,0,0.8,0.2,1,0.6L41.1,309.3z M43.4,312.7
						h-0.5V309h-1v-0.5h2.4v0.5h-1V312.7z M45.2,311.6l-0.5,1h-0.5l1.9-4.3l1.9,4.3h-0.5l-0.5-1H45.2z M46.1,309.5l-0.7,1.7h1.4
						L46.1,309.5z M26.7,317.2v0.2c0,1.1-0.8,2-1.9,2c-1.1,0-2.1-1-2.1-2.1c0-1.2,0.9-2.2,2.1-2.2c0.6,0,1.3,0.3,1.7,0.8l-0.4,0.3
						c-0.3-0.4-0.8-0.7-1.3-0.7c-0.9,0-1.6,0.8-1.6,1.7c0,0.9,0.7,1.7,1.6,1.7c0.6,0,1.3-0.6,1.3-1.2h-1v-0.5L26.7,317.2L26.7,317.2z
						 M27.7,318.2l-0.5,1h-0.5l1.9-4.3l1.9,4.3h-0.5l-0.5-1H27.7z M28.7,316.1l-0.7,1.7h1.4L28.7,316.1z M33.6,319.3H33l-1.2-1.8
						h-0.2v1.8h-0.5v-4.1h0.6c0.4,0,0.7,0,1.1,0.2c0.3,0.2,0.5,0.6,0.5,1c0,0.6-0.4,1.1-1,1.2L33.6,319.3z M31.6,317.1h0.2
						c0.5,0,1.1-0.1,1.1-0.8c0-0.6-0.6-0.7-1.1-0.7h-0.1L31.6,317.1L31.6,317.1z M34.1,315.1h0.8c1.2,0,2.3,0.7,2.3,2
						c0,1.4-1,2.1-2.3,2.1h-0.8V315.1z M34.6,318.8h0.2c1,0,1.9-0.4,1.9-1.6c0-1.2-0.9-1.6-1.9-1.6h-0.2V318.8z M37.8,315.1H40v0.5
						h-1.7v1.2h1.6v0.5h-1.6v1.6H40v0.5h-2.2V315.1z M40.6,314.9l3,3.3v-3.1h0.5v4.3l-3-3.3v3.1h-0.5V314.9z M47.9,318.2l1.2-3.1h0.6
						l-1.8,4.4l-1.8-4.4h0.6L47.9,318.2z M50.6,319.3h-0.5v-4.1h0.5V319.3z M52,318.8h1.2v0.5h-1.7v-4.1H52V318.8z M54.1,318.8h1.2
						v0.5h-1.7v-4.1h0.5C54.1,315.1,54.1,318.8,54.1,318.8z M56.6,318.2l-0.5,1h-0.5l1.9-4.3l1.9,4.3h-0.5l-0.5-1H56.6z M57.5,316.1
						l-0.7,1.7h1.4L57.5,316.1z M34.7,322.2l0.3-0.5h0.9v4.1h-0.5v-3.7H34.7z M39.8,324.8v0.5h-0.5v0.6h-0.5v-0.6h-2l2.5-3.7v3.3
						H39.8z M38.8,323.1L38.8,323.1l-1.2,1.7h1.2V323.1z M41.6,322.2l-0.3,0.9l0.3,0c0.8,0,1.3,0.7,1.3,1.5c0,0.9-0.7,1.5-1.5,1.5
						c-0.5,0-1-0.3-1.2-0.7l0.4-0.4c0.1,0.4,0.5,0.6,0.9,0.6c0.5,0,1-0.5,1-1c0-0.5-0.4-1-1-1c-0.3,0-0.6,0.1-0.8,0.4h-0.1l0.6-2.1
						h1.6v0.5H41.6z M43.4,323.8c0-0.9,0.4-2.2,1.4-2.2c1,0,1.4,1.3,1.4,2.2c0,0.8-0.4,2.2-1.4,2.2S43.4,324.6,43.4,323.8z
						 M43.8,323.8c0,0.6,0.2,1.7,0.9,1.7c0.7,0,0.9-1.1,0.9-1.7s-0.2-1.7-0.9-1.7C44.1,322.1,43.8,323.2,43.8,323.8z M46.7,323.8
						c0-0.9,0.4-2.2,1.4-2.2c1.1,0,1.4,1.3,1.4,2.2c0,0.8-0.4,2.2-1.4,2.2S46.7,324.6,46.7,323.8z M47.2,323.8c0,0.6,0.2,1.7,0.9,1.7
						c0.7,0,0.9-1.1,0.9-1.7s-0.2-1.7-0.9-1.7C47.4,322.1,47.2,323.2,47.2,323.8z"/>
				</g>
			</g>
			<g id="g14000">
				<g id="h14000">
					<path id="b14000" class="st3" d="M128.7,432.6l0,25.2c-0.1,2.5-0.9,8-6.8,9.4c0,0-0.3-7.3-0.3-7.3l-19.3,0.2l-1.3,0.1l-36-0.1
						l0.2-36.5c10.3-0.8,13.8-9,13.8-9c12-0.4,11.6-11.7,11.6-11.7l13.3,0c5.2,9.7,9.3,29.7,9.3,29.7H128.7z M128.7,432.6l0-29.8
						l-19.2,0l-5.6,0c5.2,9.7,9.3,29.7,9.3,29.7H128.7z M104.9,302.8c-6.8-1.6-26.4-4.1-40.3-4.1c0,11.8,0,39.9,0,39.9l26.6,0
						l28.4-28.6C114.4,305.9,108.3,303.6,104.9,302.8z M128.5,327c0.1-7.4-4-13-8.9-16.9l-28.4,28.6h0.1l0,7.1h37.1
						C128.4,337.6,128.4,330.8,128.5,327z M128.4,345.7H91.3l0,24.3l8.8,0.1v0h28.4C128.4,361.9,128.4,353.2,128.4,345.7z M100,370.1
						l-0.1,20.5l5.2,5.9l0.1,6.5h23.2c0,0,0-15.5,0-32.8H100z"/>
					<path id="p14000" class="st2" d="M87.7,426.5c-3.6,0-6.6,3-6.6,6.6s3,6.6,6.6,6.6s6.6-3,6.6-6.6S91.3,426.5,87.7,426.5z
						 M93.2,435.7c-0.5-0.2-1-0.4-1.9-0.4s-1.4,0.2-1.9,0.4c-0.4,0.2-0.8,0.4-1.7,0.4c-0.8,0-1.3-0.2-1.7-0.4c-0.5-0.2-1-0.4-1.9-0.4
						s-1.4,0.2-1.9,0.4c0,0,0,0,0,0c-0.1-0.2-0.2-0.5-0.3-0.8c0.2-0.1,0.4-0.1,0.5-0.2c0.4-0.2,0.8-0.4,1.7-0.4s1.3,0.2,1.7,0.4
						c0.5,0.2,1,0.4,1.9,0.4s1.4-0.2,1.9-0.4c0.4-0.2,0.8-0.4,1.7-0.4c0.8,0,1.3,0.2,1.7,0.4c0.2,0.1,0.3,0.1,0.5,0.2
						C93.4,435.2,93.3,435.4,93.2,435.7C93.2,435.7,93.2,435.7,93.2,435.7z M93,436.2c-0.1,0.2-0.3,0.5-0.5,0.7
						c-0.3-0.1-0.7-0.1-1.2-0.1c-1,0-1.4,0.2-1.9,0.4c-0.4,0.2-0.8,0.4-1.7,0.4c-0.8,0-1.3-0.2-1.7-0.4c-0.5-0.2-1-0.4-1.9-0.4
						c-0.5,0-0.9,0.1-1.2,0.1c-0.2-0.2-0.3-0.5-0.5-0.7c0.4-0.2,0.8-0.3,1.7-0.3c0.8,0,1.3,0.2,1.7,0.4c0.5,0.2,1,0.4,1.9,0.4
						s1.4-0.2,1.9-0.4c0.4-0.2,0.8-0.4,1.7-0.4C92.1,435.9,92.5,436,93,436.2z M93.2,434.2c-0.5-0.2-1-0.4-1.9-0.4s-1.4,0.2-1.9,0.4
						c-0.4,0.2-0.8,0.4-1.7,0.4c-0.8,0-1.3-0.2-1.7-0.4c-0.5-0.2-1-0.4-1.9-0.4s-1.4,0.2-1.9,0.4c-0.1,0.1-0.3,0.1-0.5,0.2
						c-0.1-0.3-0.1-0.6-0.1-0.9c0.3-0.1,0.6-0.2,0.8-0.3c0.4-0.2,0.8-0.4,1.7-0.4s1.3,0.2,1.7,0.4c0.5,0.2,1,0.4,1.9,0.4
						s1.4-0.2,1.9-0.4c0.4-0.2,0.8-0.4,1.7-0.4c0.8,0,1.3,0.2,1.7,0.4c0.2,0.1,0.5,0.2,0.8,0.3c0,0.3,0,0.6-0.1,0.9
						C93.5,434.3,93.4,434.2,93.2,434.2z M93.2,432.6c-0.5-0.2-1-0.4-1.9-0.4s-1.4,0.2-1.9,0.4c-0.4,0.2-0.8,0.4-1.7,0.4
						c-0.8,0-1.3-0.2-1.7-0.4c-0.5-0.2-1-0.4-1.9-0.4s-1.4,0.2-1.9,0.4c-0.2,0.1-0.4,0.1-0.6,0.2c0-0.3,0-0.6,0.1-0.9
						c0.3-0.1,0.5-0.1,0.7-0.2c0.4-0.2,0.8-0.4,1.7-0.4s1.3,0.2,1.7,0.4c0.5,0.2,1,0.4,1.9,0.4s1.4-0.2,1.9-0.4
						c0.4-0.2,0.8-0.4,1.7-0.4c0.8,0,1.3,0.2,1.7,0.4c0.2,0.1,0.4,0.2,0.7,0.2c0.1,0.3,0.1,0.6,0.1,0.9
						C93.6,432.8,93.4,432.7,93.2,432.6z M82.4,430.2c0.4-0.2,0.8-0.4,1.7-0.4s1.3,0.2,1.7,0.4c0.5,0.2,1,0.4,1.9,0.4
						s1.4-0.2,1.9-0.4c0.4-0.2,0.8-0.4,1.7-0.4c0.8,0,1.3,0.2,1.7,0.4c0,0,0.1,0,0.1,0c0.2,0.3,0.3,0.7,0.4,1c-0.1,0-0.2-0.1-0.3-0.1
						c-0.5-0.2-1-0.4-1.9-0.4s-1.4,0.2-1.9,0.4c-0.4,0.2-0.8,0.4-1.7,0.4c-0.8,0-1.3-0.2-1.7-0.4c-0.5-0.2-1-0.4-1.9-0.4
						s-1.4,0.2-1.9,0.4c-0.1,0-0.2,0.1-0.3,0.1C82,430.9,82.1,430.6,82.4,430.2C82.3,430.2,82.4,430.2,82.4,430.2z M86,427.3
						c0.4,0.2,0.9,0.3,1.7,0.3c0.8,0,1.3-0.2,1.7-0.3c0.4,0.1,0.9,0.3,1.2,0.5c-0.5,0.1-0.9,0.2-1.3,0.3c-0.4,0.2-0.8,0.4-1.7,0.4
						c-0.8,0-1.3-0.2-1.7-0.4c-0.3-0.1-0.7-0.3-1.3-0.3C85.1,427.6,85.5,427.4,86,427.3z M83.9,428.4c0.1,0,0.1,0,0.2,0
						c0.8,0,1.3,0.2,1.7,0.4c0.5,0.2,1,0.4,1.9,0.4s1.4-0.2,1.9-0.4c0.4-0.2,0.8-0.4,1.7-0.4c0.1,0,0.1,0,0.2,0c0.4,0.3,0.7,0.7,1,1
						c-0.3-0.1-0.7-0.1-1.2-0.1c-1,0-1.4,0.2-1.9,0.4c-0.4,0.2-0.8,0.4-1.7,0.4c-0.8,0-1.3-0.2-1.7-0.4c-0.5-0.2-1-0.4-1.9-0.4
						c-0.5,0-0.9,0.1-1.2,0.1C83.2,429,83.5,428.7,83.9,428.4z M91,438.3c-0.7,0-1.2,0.2-1.6,0.4c-0.4,0.2-0.8,0.4-1.7,0.4
						c-0.8,0-1.3-0.2-1.7-0.4c-0.4-0.2-0.8-0.3-1.6-0.4c-0.4-0.2-0.7-0.5-1.1-0.9c0.2,0,0.4-0.1,0.7-0.1c0.8,0,1.3,0.2,1.7,0.4
						c0.5,0.2,1,0.4,1.9,0.4s1.4-0.2,1.9-0.4c0.4-0.2,0.8-0.4,1.7-0.4c0.3,0,0.5,0,0.7,0.1C91.7,437.7,91.3,438,91,438.3z"/>
					<line id="d14000" class="st4" x1="64.6" y1="298.5" x2="64.6" y2="338.6"/>
					<path id="t14000" class="st2" d="M78,310.9v-1.7h0.5v4.1H78v-2h-1.9v2h-0.5v-4.1h0.5v1.7H78z M83.3,311.3c0,1.2-1,2.2-2.1,2.2
						c-1.2,0-2.1-0.9-2.1-2.2c0-1.2,1-2.2,2.1-2.2C82.4,309.2,83.3,310.2,83.3,311.3z M82.8,311.3c0-0.9-0.7-1.7-1.6-1.7
						c-1,0-1.6,0.8-1.6,1.7c0,0.9,0.7,1.7,1.6,1.7S82.8,312.3,82.8,311.3z M86.5,313.4h-0.6l-1.2-1.8h-0.2v1.8H84v-4.1h0.6
						c0.4,0,0.7,0,1.1,0.2c0.3,0.2,0.5,0.6,0.5,1c0,0.6-0.4,1.1-1,1.2L86.5,313.4z M84.5,311.2h0.2c0.5,0,1.1-0.1,1.1-0.8
						c0-0.6-0.6-0.7-1.1-0.7h-0.1C84.5,309.7,84.5,311.2,84.5,311.2z M87.5,313.4H87v-4.1h0.5V313.4z M90.8,312.9v0.5H88l2.1-3.7
						h-1.8v-0.5h2.6l-2.1,3.7L90.8,312.9C90.8,312.9,90.8,312.9,90.8,312.9z M95.2,311.3c0,1.2-1,2.2-2.1,2.2c-1.2,0-2.1-0.9-2.1-2.2
						c0-1.2,1-2.2,2.1-2.2C94.2,309.2,95.2,310.2,95.2,311.3z M94.7,311.3c0-0.9-0.7-1.7-1.6-1.7c-1,0-1.6,0.8-1.6,1.7
						c0,0.9,0.7,1.7,1.6,1.7S94.7,312.3,94.7,311.3z M95.8,309.1l3,3.3v-3.1h0.5v4.3l-3-3.3v3.1h-0.5V309.1z M72.3,317.9v0.2
						c0,1.1-0.8,2-1.9,2s-2.1-1-2.1-2.1c0-1.2,0.9-2.2,2.1-2.2c0.6,0,1.3,0.3,1.7,0.8l-0.4,0.3c-0.3-0.4-0.8-0.7-1.3-0.7
						c-0.9,0-1.6,0.8-1.6,1.7c0,0.9,0.7,1.7,1.6,1.7c0.6,0,1.3-0.6,1.3-1.2h-1.1v-0.5L72.3,317.9L72.3,317.9z M73.4,319l-0.5,1h-0.5
						l1.9-4.3l1.9,4.3h-0.5l-0.5-1H73.4z M74.3,316.8l-0.7,1.7H75L74.3,316.8z M79.2,320h-0.6l-1.2-1.8h-0.2v1.8h-0.5v-4.1h0.6
						c0.4,0,0.7,0,1.1,0.2c0.3,0.2,0.5,0.6,0.5,1c0,0.6-0.4,1.1-1,1.2L79.2,320z M77.2,317.8h0.2c0.5,0,1.1-0.1,1.1-0.8
						c0-0.6-0.6-0.7-1.1-0.7h-0.1L77.2,317.8L77.2,317.8z M79.7,315.9h0.8c1.2,0,2.3,0.7,2.3,2c0,1.4-1,2.1-2.3,2.1h-0.8
						C79.7,320,79.7,315.9,79.7,315.9z M80.2,319.5h0.2c1,0,1.9-0.4,1.9-1.6c0-1.2-0.9-1.6-1.9-1.6h-0.2V319.5z M83.4,315.9h2.2v0.5
						h-1.7v1.2h1.6v0.5h-1.6v1.6h1.7v0.5h-2.2V315.9z M86.3,315.7l3,3.3v-3.1h0.5v4.3l-3-3.3v3.1h-0.5V315.7z M93.5,318.9l1.2-3.1
						h0.6l-1.8,4.4l-1.8-4.4h0.6L93.5,318.9z M96.2,320h-0.5v-4.1h0.5V320z M97.6,319.5h1.2v0.5h-1.7v-4.1h0.5
						C97.6,315.9,97.6,319.5,97.6,319.5z M99.8,319.5h1.2v0.5h-1.7v-4.1h0.5V319.5z M102.2,319l-0.5,1h-0.5l1.9-4.3l1.9,4.3h-0.5
						l-0.5-1H102.2z M103.1,316.8l-0.7,1.7h1.4L103.1,316.8z M80.2,322.9l0.3-0.5h0.9v4.1h-0.5v-3.7H80.2z M85.3,325.6v0.5h-0.5v0.6
						h-0.5V326h-2l2.5-3.7v3.3H85.3z M84.4,323.9L84.4,323.9l-1.2,1.7h1.2L84.4,323.9L84.4,323.9z M85.7,324.5c0-0.9,0.4-2.2,1.4-2.2
						c1.1,0,1.4,1.3,1.4,2.2c0,0.8-0.4,2.2-1.4,2.2S85.7,325.4,85.7,324.5z M86.2,324.5c0,0.6,0.2,1.7,0.9,1.7s0.9-1.1,0.9-1.7
						s-0.2-1.7-0.9-1.7S86.2,324,86.2,324.5z M89,324.5c0-0.9,0.4-2.2,1.4-2.2c1.1,0,1.4,1.3,1.4,2.2c0,0.8-0.4,2.2-1.4,2.2
						S89,325.4,89,324.5z M89.5,324.5c0,0.6,0.2,1.7,0.9,1.7c0.7,0,0.9-1.1,0.9-1.7s-0.2-1.7-0.9-1.7C89.7,322.8,89.5,324,89.5,324.5
						z M92.3,324.5c0-0.9,0.4-2.2,1.4-2.2c1.1,0,1.4,1.3,1.4,2.2c0,0.8-0.4,2.2-1.4,2.2S92.3,325.4,92.3,324.5z M92.8,324.5
						c0,0.6,0.2,1.7,0.9,1.7c0.7,0,0.9-1.1,0.9-1.7s-0.2-1.7-0.9-1.7C93,322.8,92.8,324,92.8,324.5z"/>
				</g>
			</g>
		</g>
	</g>
</g>
<g id="DAWN_DECK_14_TOP">
	<path class="st1" d="M95.7,402.9c1,2.1,2.3,7.7-1.6,12.6c-2.4,3-5.9,4.6-9.4,4.7l-0.2-4.7 M86.1,415.3l1,4.6 M89.4,419.1l-1.9-4.3
		 M88.9,414.1l2.7,3.8 M90,413l3.4,3.2 M91,411.8l4,2.5 M96.1,412l-4.4-1.6 M92.1,408.9l4.6,0.7 M92.1,407.4l4.7-0.2 M91.9,405.8
		l4.5-1.1 M83.9,415.5c0.5,0.1,0.1,0,0.6,0c2.2,0,4.4-1,5.9-2.9c2.7-3.4,1.3-8.8,0-9.7"/>
	<path class="st1" d="M44.2,415.5l-0.2,4.7c-3.6-0.1-7-1.7-9.4-4.7c-3.9-4.9-2.7-10.5-1.6-12.6 M42.6,415.3l-1,4.6 M41.2,414.8
		l-1.9,4.3 M39.8,414.1l-2.7,3.8 M38.6,413l-3.4,3.2 M37.7,411.8l-4,2.5 M37,410.4l-4.4,1.6 M32,409.6l4.6-0.7 M36.5,407.4l-4.7-0.2
		 M36.8,405.8l-4.5-1.1 M38.2,403c-1.3,0.9-2.6,6.2,0.1,9.6c1.5,1.9,3.7,2.9,5.9,2.9c0.5,0,0.1,0.1,0.6,0"/>
	<path class="st1" d="M90.7,402.6c0,2.2-0.5,5.1-2.9,8.2c-3,4-8.8,3.8-8.8,3.8s-3.6,8.8-14.1,8.9c-10.5,0.1-14.7-9-14.7-9
		s-5.9,1-9.6-4c-1.7-2.3-2-7.7-2-7.7"/>
	<line class="st1" x1="0.6" y1="402.9" x2="39" y2="402.9"/>
	<line class="st1" x1="128.9" y1="402.9" x2="90.1" y2="402.9"/>
	<g id="gDeck14Locations">
		<path width="107.198" height="205.152" id="_x31_4Aft" class="st5" d="M26.9,592.3c0,0-8.4-0.1-12-0.1c-3.5,0-4,4-4,4s0,103,0,108.6c0,5.6,5.6,5.6,5.6,5.6
			s93.2,0,97,0c3.8,0,4.7-4.5,4.7-4.5s0-104.1,0-109c0-5-4.3-4.3-4.3-4.3l-12.4-0.1l0-87.2H26.9V592.3z"/>
		<path width="128.05" height="206.6274" id="_x31_4MidShip" class="st5" d="M128.5,455.3l0.1-127.2c0,0,0-12.7-11.2-19.9c-8.4-5.4-20.5-8.6-52.8-9.7
			c-3.7-0.1-43.7,0.9-53.4,8.5c-11,8.7-10.6,21.3-10.6,21.3l0,129.4c0.1,2.5-0.6,7.3,7.1,8.7c0,0,0-6.5,0-6.5l19.3,0v45.2h74.6
			l0-45.2l20.5,0l0,7.1C122,467,128.7,467.4,128.5,455.3z"/>
		<path width="127.827" height="253.419" id="_x31_4Forward" class="st5" d="M99,78.6c0.7-24.9,0.3-42.8-5.4-55.8C87.4,8.6,75.4,0,64.5,0S40.8,8.2,35.4,22.8
			c-5.4,14.5-5.6,30-5.4,54.9l-0.2,40.1c-8.3,0-12.4,0-12.4,0s-16.9-1.6-16.9,12.8c0,16.7,0,122.6,0,122.6s21.2-8.5,63.4-8.5
			c42.2,0,64.4,8.7,64.4,8.7l-0.2-122.5c0,0,0.4-12.7-13.8-13.2c-2.1-0.1-8.7,0.2-15.4,0.2L99,78.6z"/>
	</g>
	<path class="st6" d="M99,78.6c0.7-24.9,0.3-42.8-5.4-55.8C87.4,8.6,75.4,0,64.5,0S40.8,8.2,35.4,22.8c-5.4,14.5-5.6,30-5.4,54.9
		l-0.2,40.1c-8.3,0-12.4,0-12.4,0s-16.9-1.6-16.9,12.8c0,16.7,0,122.6,0,122.6s21.2-8.5,63.4-8.5c42.2,0,64.4,8.7,64.4,8.7
		l-0.2-122.5c0,0,0.4-12.7-13.8-13.2c-2.1-0.1-8.7,0.2-15.4,0.2L99,78.6z"/>
	<path class="st6" d="M26.9,460v132.4c0,0-8.4-0.1-12-0.1c-3.5,0-4,4-4,4s0,103,0,108.6c0,5.6,5.6,5.6,5.6,5.6s93.2,0,97,0
		s4.7-4.5,4.7-4.5s0-104.1,0-109c0-5-4.3-4.3-4.3-4.3l-12.4-0.1l0-132.4l20.5,0l0,7.1c0,0,6.7,0.3,6.5-11.8l0.1-127.2
		c0,0,0-12.7-11.2-19.9c-8.4-5.4-20.5-8.6-52.8-9.7c-3.7-0.1-43.7,0.9-53.4,8.5c-11,8.7-10.6,21.3-10.6,21.3l0,129.4
		c0.1,2.5-0.6,7.3,7.1,8.7c0,0,0-6.5,0-6.5L26.9,460z"/>
</g>
</svg>
