<?xml version="1.0" encoding="utf-8"?>
<!-- Generator: Adobe Illustrator 25.4.1, SVG Export Plug-In . SVG Version: 6.00 Build 0)  -->
<svg version="1.1" id="SPIRIT_DECK_04" xmlns="http://www.w3.org/2000/svg" xmlns:xlink="http://www.w3.org/1999/xlink" x="0px"
	 y="0px" width="120.3px" height="830.6px" viewBox="0 0 120.3 830.6" style="enable-background:new 0 0 120.3 830.6;"
	 xml:space="preserve">
<style type="text/css">
	.st0{fill:#FFFFFF;}
	.st1{fill:none;stroke:#D5DCE0;stroke-width:0.5;}
	.st2{fill:#6E8496;}
	.st3{fill:#EFF2F5;stroke:#FFFFFF;stroke-width:0.5;stroke-miterlimit:10;}
	.st4{fill:none;}
	.st5{fill:none;stroke:#076FA0;stroke-miterlimit:10;}
</style>
<g id="SPIRIT_DECK_04_BOTTOM">
	<path class="st0" d="M0.6,747.6c-1,21.6,6.5,70.3,14.9,76.3c7.5,7.1,45.1,6.2,45.1,6.2s39.2,0.8,43.7-6.5
		c15.7-21.3,15.4-75.8,15.4-75.8V181.9c0-26.3-28.1-179.4-59.4-181.5C27.6,5.5,2.1,137,0.5,181.7C0.5,181.7,0.6,705.8,0.6,747.6z"/>
	<polyline class="st1" points="27.4,245.6 27.4,197.4 45.3,197.4 45.3,216.8 77.6,216.8 77.6,197.2 89.6,197.2 89.6,192.7 
		75.3,192.7 	"/>
	<polyline class="st1" points="41.8,186.4 30.9,186.4 30.9,165.2 37.9,165.2 37.9,157 40.7,157 	"/>
	<rect x="42" y="182.9" class="st1" width="33.2" height="9.9"/>
	<line class="st1" x1="53.1" y1="192.8" x2="53.1" y2="182.9"/>
	<line class="st1" x1="64.1" y1="192.8" x2="64.1" y2="182.9"/>
	<polyline class="st1" points="58.1,216.7 58.1,237.4 87.9,237.4 87.9,285 47.1,285 47.1,275.3 	"/>
	<polyline class="st1" points="43,456.4 43,446.5 76.2,446.5 76.2,456.5 	"/>
	<line class="st1" x1="54.1" y1="456.4" x2="54.1" y2="446.5"/>
	<line class="st1" x1="65.1" y1="456.4" x2="65.1" y2="446.5"/>
	<polyline class="st1" points="27.3,446.1 27.3,456.4 119.8,456.4 	"/>
	<line class="st1" x1="30.8" y1="177.7" x2="119.7" y2="177.7"/>
	<polyline class="st1" points="119.7,498.2 96.6,498.2 96.6,471.3 23.4,471.3 23.4,498.2 0.4,498.2 	"/>
	<polyline class="st1" points="40.7,111.6 46.6,105.5 77.4,105.5 77.4,100.2 	"/>
	<polyline class="st1" points="38.1,67.7 70.3,67.7 70.3,71.7 	"/>
	<line class="st1" x1="64.2" y1="183.2" x2="75" y2="192.5"/>
	<line class="st1" x1="64.2" y1="192.5" x2="75" y2="183.2"/>
	<line class="st1" x1="42.3" y1="183.1" x2="53" y2="192.4"/>
	<line class="st1" x1="42.2" y1="192.6" x2="53.1" y2="183"/>
	<line class="st1" x1="53.2" y1="183.2" x2="63.9" y2="192.4"/>
	<line class="st1" x1="52.9" y1="192.6" x2="64" y2="183"/>
	<line class="st1" x1="43.1" y1="446.6" x2="53.9" y2="456.2"/>
	<line class="st1" x1="43.2" y1="456.2" x2="54.2" y2="446.5"/>
	<line class="st1" x1="54.2" y1="446.7" x2="64.9" y2="456"/>
	<line class="st1" x1="54.2" y1="456.2" x2="65" y2="446.9"/>
	<line class="st1" x1="65.2" y1="446.8" x2="75.9" y2="456.1"/>
	<line class="st1" x1="65.2" y1="456.1" x2="75.9" y2="446.8"/>
	<line class="st1" x1="43.8" y1="471.2" x2="43.8" y2="489.2"/>
	<line class="st1" x1="75.9" y1="471.1" x2="75.9" y2="489.2"/>
	<path class="st1" d="M69.8,199.1c-0.4,0-0.6,0.3-0.6,0.6"/>
	<line class="st1" x1="77.5" y1="199.1" x2="69.8" y2="199.1"/>
	<line class="st1" x1="69.2" y1="199.7" x2="69.2" y2="201.9"/>
	<line class="st1" x1="69.2" y1="201.9" x2="53.9" y2="201.9"/>
	<path class="st1" d="M53.9,199.7c0-0.3-0.3-0.6-0.6-0.6"/>
	<line class="st1" x1="53.9" y1="201.9" x2="53.9" y2="199.7"/>
	<line class="st1" x1="53.3" y1="199.1" x2="45.5" y2="199.1"/>
	<line class="st1" x1="61.7" y1="212.9" x2="61.7" y2="198.9"/>
	<line class="st1" x1="61.4" y1="212.9" x2="61.4" y2="198.9"/>
	<line class="st1" x1="77.2" y1="212.2" x2="61.7" y2="212.2"/>
	<line class="st1" x1="61.7" y1="198.9" x2="61.4" y2="198.9"/>
	<line class="st1" x1="61.7" y1="212.9" x2="61.4" y2="212.9"/>
	<line class="st1" x1="61.4" y1="212.2" x2="45.3" y2="212.2"/>
	<line class="st1" x1="61.4" y1="210.7" x2="54.6" y2="210.7"/>
	<line class="st1" x1="61.4" y1="209.2" x2="54.6" y2="209.2"/>
	<line class="st1" x1="61.4" y1="207.7" x2="54.6" y2="207.7"/>
	<line class="st1" x1="61.4" y1="206.2" x2="54.6" y2="206.2"/>
	<line class="st1" x1="61.4" y1="204.8" x2="54.6" y2="204.8"/>
	<line class="st1" x1="61.4" y1="203.3" x2="54.6" y2="203.3"/>
	<line class="st1" x1="61.4" y1="200.3" x2="53.9" y2="200.3"/>
	<line class="st1" x1="68.5" y1="210.7" x2="61.7" y2="210.7"/>
	<line class="st1" x1="68.5" y1="209.2" x2="61.7" y2="209.2"/>
	<line class="st1" x1="68.5" y1="207.7" x2="61.7" y2="207.7"/>
	<line class="st1" x1="68.5" y1="206.2" x2="61.7" y2="206.2"/>
	<line class="st1" x1="68.5" y1="204.8" x2="61.7" y2="204.8"/>
	<line class="st1" x1="68.5" y1="203.3" x2="61.7" y2="203.3"/>
	<line class="st1" x1="69.2" y1="200.3" x2="61.7" y2="200.3"/>
	<line class="st1" x1="45.3" y1="200.6" x2="53.3" y2="200.6"/>
	<line class="st1" x1="45.4" y1="202" x2="54.2" y2="202"/>
	<line class="st1" x1="45.2" y1="203.5" x2="53.3" y2="203.5"/>
	<line class="st1" x1="45.4" y1="204.9" x2="53.3" y2="204.9"/>
	<line class="st1" x1="69.1" y1="200.6" x2="77.4" y2="200.6"/>
	<line class="st1" x1="69.1" y1="202" x2="77.5" y2="202"/>
	<line class="st1" x1="69.8" y1="203.5" x2="77.5" y2="203.5"/>
	<line class="st1" x1="69.8" y1="204.9" x2="77.5" y2="204.9"/>
	<path class="st1" d="M53.2,213.1c0,0.3,0.3,0.6,0.6,0.6s0.6-0.3,0.6-0.6l0,0"/>
	<line class="st1" x1="54.5" y1="213.1" x2="54.5" y2="212.9"/>
	<line class="st1" x1="53.2" y1="213.1" x2="53.2" y2="212.9"/>
	<path class="st1" d="M68.5,213.1c0,0.3,0.3,0.6,0.6,0.6c0.3,0,0.6-0.3,0.6-0.6l0,0"/>
	<line class="st1" x1="69.8" y1="213.1" x2="69.8" y2="212.9"/>
	<line class="st1" x1="68.5" y1="213.1" x2="68.5" y2="212.9"/>
	<line class="st1" x1="53.8" y1="212.9" x2="53.8" y2="202.1"/>
	<line class="st1" x1="45.5" y1="207.9" x2="53.3" y2="207.9"/>
	<line class="st1" x1="45.5" y1="209.3" x2="53.3" y2="209.3"/>
	<line class="st1" x1="45.5" y1="210.8" x2="53.3" y2="210.8"/>
	<line class="st1" x1="45.4" y1="206.4" x2="53.3" y2="206.4"/>
	<line class="st1" x1="69.1" y1="212.9" x2="69.1" y2="201.9"/>
	<line class="st1" x1="69.8" y1="207.9" x2="77.4" y2="207.9"/>
	<line class="st1" x1="69.8" y1="209.3" x2="77.4" y2="209.3"/>
	<line class="st1" x1="69.8" y1="210.8" x2="77.3" y2="210.8"/>
	<line class="st1" x1="69.7" y1="206.4" x2="77.6" y2="206.4"/>
	<path class="st1" d="M51.3,488c0.4,0,0.6-0.3,0.6-0.6"/>
	<line class="st1" x1="43.5" y1="488" x2="51.3" y2="488"/>
	<line class="st1" x1="51.9" y1="487.4" x2="51.9" y2="485.2"/>
	<line class="st1" x1="51.9" y1="485.2" x2="67.2" y2="485.2"/>
	<path class="st1" d="M67.2,487.4c0,0.3,0.3,0.6,0.6,0.6"/>
	<line class="st1" x1="67.2" y1="485.2" x2="67.2" y2="487.4"/>
	<line class="st1" x1="67.8" y1="488" x2="75.6" y2="488"/>
	<line class="st1" x1="59.4" y1="474.2" x2="59.4" y2="488.2"/>
	<line class="st1" x1="59.7" y1="474.2" x2="59.7" y2="488.2"/>
	<line class="st1" x1="43.9" y1="474.9" x2="59.4" y2="474.9"/>
	<line class="st1" x1="59.4" y1="488.2" x2="59.7" y2="488.2"/>
	<line class="st1" x1="59.4" y1="474.2" x2="59.7" y2="474.2"/>
	<line class="st1" x1="59.7" y1="474.9" x2="75.7" y2="474.9"/>
	<line class="st1" x1="59.7" y1="476.4" x2="66.5" y2="476.4"/>
	<line class="st1" x1="59.7" y1="477.9" x2="66.5" y2="477.9"/>
	<line class="st1" x1="59.7" y1="479.4" x2="66.5" y2="479.4"/>
	<line class="st1" x1="59.7" y1="480.9" x2="66.5" y2="480.9"/>
	<line class="st1" x1="59.7" y1="482.4" x2="66.5" y2="482.4"/>
	<line class="st1" x1="59.7" y1="483.8" x2="66.5" y2="483.8"/>
	<line class="st1" x1="59.7" y1="486.8" x2="67.1" y2="486.8"/>
	<line class="st1" x1="52.5" y1="476.4" x2="59.4" y2="476.4"/>
	<line class="st1" x1="52.5" y1="477.9" x2="59.4" y2="477.9"/>
	<line class="st1" x1="52.5" y1="479.4" x2="59.4" y2="479.4"/>
	<line class="st1" x1="52.5" y1="480.9" x2="59.4" y2="480.9"/>
	<line class="st1" x1="52.5" y1="482.4" x2="59.4" y2="482.4"/>
	<line class="st1" x1="52.5" y1="483.8" x2="59.4" y2="483.8"/>
	<line class="st1" x1="51.9" y1="486.8" x2="59.4" y2="486.8"/>
	<line class="st1" x1="75.8" y1="486.6" x2="67.7" y2="486.6"/>
	<line class="st1" x1="75.7" y1="485.1" x2="66.9" y2="485.1"/>
	<line class="st1" x1="75.8" y1="483.6" x2="67.7" y2="483.6"/>
	<line class="st1" x1="75.7" y1="482.2" x2="67.8" y2="482.2"/>
	<line class="st1" x1="51.9" y1="486.6" x2="43.7" y2="486.6"/>
	<line class="st1" x1="52" y1="485.1" x2="43.6" y2="485.1"/>
	<line class="st1" x1="51.3" y1="483.6" x2="43.6" y2="483.6"/>
	<line class="st1" x1="51.3" y1="482.2" x2="43.6" y2="482.2"/>
	<path class="st1" d="M67.8,474c0-0.3-0.3-0.6-0.6-0.6s-0.6,0.3-0.6,0.6l0,0"/>
	<line class="st1" x1="66.6" y1="474" x2="66.6" y2="474.2"/>
	<line class="st1" x1="67.8" y1="474" x2="67.8" y2="474.2"/>
	<path class="st1" d="M52.5,474c0-0.3-0.3-0.6-0.6-0.6s-0.6,0.3-0.6,0.6l0,0"/>
	<line class="st1" x1="51.3" y1="474" x2="51.3" y2="474.2"/>
	<line class="st1" x1="52.5" y1="474" x2="52.5" y2="474.2"/>
	<line class="st1" x1="67.2" y1="474.2" x2="67.2" y2="485.1"/>
	<line class="st1" x1="75.6" y1="479.2" x2="67.7" y2="479.2"/>
	<line class="st1" x1="75.6" y1="477.8" x2="67.7" y2="477.8"/>
	<line class="st1" x1="75.6" y1="476.3" x2="67.7" y2="476.3"/>
	<line class="st1" x1="75.7" y1="480.7" x2="67.7" y2="480.7"/>
	<line class="st1" x1="51.9" y1="474.2" x2="51.9" y2="485.3"/>
	<line class="st1" x1="51.3" y1="479.2" x2="43.7" y2="479.2"/>
	<line class="st1" x1="51.3" y1="477.8" x2="43.7" y2="477.8"/>
	<line class="st1" x1="51.3" y1="476.3" x2="43.8" y2="476.3"/>
	<line class="st1" x1="51.4" y1="480.7" x2="43.5" y2="480.7"/>
	<path class="st2" d="M58,256.2h1l0.7,2l0.7-2h1v5.6h-0.9v-3.4l-0.7,2.1l0,0l-0.7-2.1v3.4H58C58,261.8,58,256.2,58,256.2z
		 M61.8,256.2H64v0.9h-1.2v1.4h1v0.9h-1v1.4H64v0.9h-2.2V256.2L61.8,256.2z M64.5,256.2h0.9c1.2,0,2,0.9,2,2.7v0.2
		c0,1.8-0.7,2.7-2,2.7h-0.9V256.2z M65.5,260.9c0.5,0,0.9-0.4,0.9-1.8v-0.2c0-1.4-0.4-1.8-0.9-1.8l0,0V260.9L65.5,260.9z
		 M67.9,256.2h1v5.6h-1V256.2z M69.3,259.1v-0.2c0-2,0.7-2.7,1.6-2.7c0.3,0,0.4,0,0.6,0.1v1c-0.2-0.1-0.4-0.2-0.5-0.2
		c-0.4,0-0.7,0.4-0.7,1.8v0.2c0,1.5,0.3,1.8,0.8,1.8c0.2,0,0.3-0.1,0.5-0.2v1c-0.2,0.1-0.4,0.2-0.7,0.2
		C70,261.9,69.3,261.1,69.3,259.1z M72.9,256.2h1l1.1,5.6h-1l-0.2-1.1h-0.9l-0.2,1.1h-0.9L72.9,256.2z M73.7,259.8l-0.3-1.8
		l-0.3,1.8H73.7z M75.3,256.2h1v4.7h1v0.9h-2V256.2z M59.1,267.1v-0.2c0-2,0.7-2.7,1.6-2.7c0.3,0,0.4,0,0.6,0.1v1
		c-0.2-0.1-0.4-0.2-0.5-0.2c-0.4,0-0.7,0.4-0.7,1.8v0.2c0,1.5,0.3,1.8,0.8,1.8c0.2,0,0.3-0.1,0.5-0.2v1c-0.2,0.1-0.4,0.2-0.7,0.2
		C59.8,269.9,59.1,269.1,59.1,267.1z M61.9,264.2H64v0.9h-1.2v1.4h1v0.9h-1v1.4H64v0.9h-2.2v-5.5H61.9z M64.6,264.2h0.9l1,2.8v-2.8
		h1v5.6h-0.9l-1-3v3h-1C64.6,269.8,64.6,264.2,64.6,264.2z M68.5,265.1h-0.7v-0.9h2.4v0.9h-0.7v4.7h-1L68.5,265.1L68.5,265.1z
		 M70.6,264.2h2.1v0.9h-1.2v1.4h1v0.9h-1v1.4h1.2v0.9h-2.2L70.6,264.2L70.6,264.2z M73.2,264.2h1c1,0,1.7,0.5,1.7,1.8v0.1
		c0,0.7-0.3,1.2-0.7,1.5l0.8,2.3h-1l-0.6-2h-0.2v2h-1L73.2,264.2L73.2,264.2z M74.2,267c0.4,0,0.7-0.2,0.7-0.9V266
		c0-0.7-0.3-0.9-0.8-0.9l0,0L74.2,267L74.2,267z"/>
</g>
<g id="SPIRIT_DECK_04_ROOMS">
	<g id="gDeck04InsideIF">
		<g id="hDeck04InsideIF">
			<g id="g4487">
				<g id="h4487">
					<polygon id="b4487" class="st3" points="13.5,106.5 13.6,96.6 34.3,96.6 34.3,106.4 					"/>
					<path id="t4487" class="st2" d="M20.3,102.3v0.4h-0.5v0.6h-0.5v-0.6h-2l2.5-3.7v3.3C19.8,102.3,20.3,102.3,20.3,102.3z
						 M19.4,100.5L19.4,100.5l-1.2,1.7h1.2C19.4,102.3,19.4,100.5,19.4,100.5z M23.6,102.3v0.4h-0.5v0.6h-0.5v-0.6h-2l2.5-3.7v3.3
						C23.1,102.3,23.6,102.3,23.6,102.3z M22.7,100.5L22.7,100.5l-1.2,1.7h1.2V100.5L22.7,100.5z M24.8,101.2
						c-0.3-0.2-0.5-0.5-0.5-0.9c0-0.7,0.5-1.2,1.2-1.2c0.6,0,1.2,0.5,1.2,1.2c0,0.4-0.2,0.7-0.5,0.9c0.4,0.1,0.6,0.5,0.6,1
						c0,0.8-0.6,1.2-1.3,1.2s-1.3-0.5-1.3-1.2C24.1,101.7,24.3,101.3,24.8,101.2z M24.6,102.2c0,0.4,0.4,0.8,0.8,0.8
						s0.8-0.4,0.8-0.8s-0.4-0.8-0.8-0.8C25,101.4,24.6,101.7,24.6,102.2z M24.7,100.2c0,0.3,0.4,0.7,0.7,0.7s0.7-0.4,0.7-0.7
						c0-0.4-0.3-0.7-0.7-0.7S24.7,99.8,24.7,100.2z M27.1,99.6v-0.5H30l-2.5,4.2l-0.4-0.2l2.1-3.5H27.1z"/>
				</g>
			</g>
			<g id="g4485">
				<g id="h4485">
					<polygon id="b4485" class="st3" points="46.2,86.1 46.2,100.1 62,100.2 62,86.1 					"/>
					<path id="t4485" class="st2" d="M50.6,93.6V94h-0.5v0.6h-0.5V94h-2l2.5-3.7v3.3L50.6,93.6L50.6,93.6z M49.6,91.9L49.6,91.9
						l-1.2,1.7h1.2V91.9L49.6,91.9z M53.9,93.6V94h-0.5v0.6h-0.5V94h-2l2.5-3.7v3.3L53.9,93.6L53.9,93.6z M52.9,91.9L52.9,91.9
						l-1.2,1.7h1.2V91.9z M55,92.5c-0.3-0.2-0.5-0.5-0.5-0.9c0-0.7,0.5-1.2,1.2-1.2s1.2,0.5,1.2,1.2c0,0.4-0.2,0.7-0.5,0.9
						c0.4,0.1,0.6,0.5,0.6,1c0,0.8-0.6,1.2-1.3,1.2s-1.3-0.5-1.3-1.2C54.4,93,54.6,92.6,55,92.5z M54.9,93.5c0,0.4,0.4,0.8,0.8,0.8
						c0.4,0,0.8-0.4,0.8-0.8s-0.4-0.8-0.8-0.8C55.2,92.7,54.9,93,54.9,93.5z M55,91.5c0,0.3,0.3,0.7,0.7,0.7s0.7-0.4,0.7-0.7
						c0-0.4-0.3-0.7-0.7-0.7S55,91.2,55,91.5z M58.8,91l-0.3,0.9h0.3c0.8,0,1.3,0.7,1.3,1.4c0,0.9-0.7,1.5-1.5,1.5
						c-0.5,0-1-0.3-1.2-0.7l0.4-0.4c0.1,0.4,0.5,0.6,0.9,0.6c0.5,0,1-0.5,1-1s-0.4-1-1-1c-0.3,0-0.6,0.1-0.8,0.4h-0.1l0.6-2.1H60V91
						C60.1,91,58.8,91,58.8,91z"/>
				</g>
			</g>
			<g id="g4483">
				<g id="h4483">
					<polygon id="b4483" class="st3" points="77.5,86.1 62,86.1 62,100.2 77.5,100.2 					"/>
					<path id="t4483" class="st2" d="M66.3,93.6V94h-0.5v0.6h-0.5V94h-2l2.5-3.7v3.3L66.3,93.6L66.3,93.6z M65.3,91.9L65.3,91.9
						l-1.2,1.7h1.2V91.9z M69.6,93.6V94h-0.5v0.6h-0.5V94h-2l2.5-3.7v3.3L69.6,93.6L69.6,93.6z M68.6,91.9L68.6,91.9l-1.2,1.7h1.2
						V91.9z M70.7,92.5c-0.3-0.2-0.5-0.5-0.5-0.9c0-0.7,0.5-1.2,1.2-1.2s1.2,0.5,1.2,1.2c0,0.4-0.2,0.7-0.5,0.9
						c0.4,0.1,0.6,0.5,0.6,1c0,0.8-0.6,1.2-1.3,1.2s-1.3-0.5-1.3-1.2C70.1,93,70.3,92.6,70.7,92.5z M70.5,93.5
						c0,0.4,0.4,0.8,0.8,0.8s0.8-0.4,0.8-0.8s-0.4-0.8-0.8-0.8S70.5,93,70.5,93.5z M70.6,91.5c0,0.3,0.3,0.7,0.7,0.7
						s0.7-0.4,0.7-0.7c0-0.4-0.3-0.7-0.7-0.7S70.6,91.2,70.6,91.5z M74.4,92.2c0.4,0,0.8-0.2,0.8-0.7c0-0.4-0.3-0.7-0.7-0.7
						c-0.4,0-0.6,0.2-0.7,0.6h-0.5c0.1-0.7,0.5-1,1.2-1c0.6,0,1.2,0.4,1.2,1.1c0,0.4-0.2,0.7-0.5,0.9c0.4,0.2,0.6,0.6,0.6,1
						c0,0.8-0.6,1.2-1.3,1.2c-0.6,0-1.2-0.4-1.2-1.1h0.5c0,0.4,0.4,0.7,0.8,0.7c0.5,0,0.8-0.4,0.8-0.8c0-0.5-0.4-0.8-0.9-0.8
						L74.4,92.2L74.4,92.2z"/>
				</g>
			</g>
			<g id="g4481">
				<g id="h4481">
					<polygon id="b4481" class="st3" points="16.1,96.6 16.2,87.1 37.9,87.1 37.9,96.6 					"/>
					<path id="t4481" class="st2" d="M23.6,92.9v0.5h-0.5V94h-0.5v-0.6h-2l2.5-3.7V93h0.5V92.9z M22.7,91.2L22.7,91.2l-1.2,1.7h1.2
						V91.2L22.7,91.2z M26.9,92.9v0.5h-0.5V94H26v-0.6h-2l2.5-3.7V93h0.4V92.9z M26,91.2L26,91.2l-1.2,1.7H26V91.2z M28.1,91.9
						c-0.3-0.2-0.5-0.5-0.5-0.9c0-0.7,0.5-1.2,1.2-1.2S30,90.3,30,91c0,0.4-0.2,0.7-0.5,0.9c0.4,0.1,0.6,0.5,0.6,1
						c0,0.8-0.6,1.2-1.3,1.2s-1.3-0.5-1.3-1.2C27.4,92.4,27.6,92,28.1,91.9z M27.9,92.8c0,0.4,0.4,0.8,0.8,0.8s0.8-0.4,0.8-0.8
						S29.1,92,28.7,92C28.3,92.1,27.9,92.4,27.9,92.8z M28,90.9c0,0.3,0.4,0.7,0.7,0.7c0.3,0,0.7-0.4,0.7-0.7c0-0.4-0.3-0.7-0.7-0.7
						C28.3,90.2,28,90.5,28,90.9z M30.6,90.3l0.3-0.5h0.9V94h-0.5v-3.7H30.6z"/>
				</g>
			</g>
			<g id="g4479">
				<g id="h4479">
					<polygon id="b4479" class="st3" points="21.4,67.5 21.4,78.7 17.8,78.7 17.8,87.1 38,87.1 37.9,67.6 					"/>
					<path id="t4479" class="st2" d="M24.6,83.4v0.5h-0.5v0.6h-0.5v-0.6h-2l2.5-3.7v3.3h0.5V83.4z M23.6,81.7L23.6,81.7l-1.2,1.7
						h1.2V81.7z M27.9,83.4v0.5h-0.5v0.6h-0.5v-0.6h-2l2.5-3.7v3.3h0.5V83.4z M26.9,81.7L26.9,81.7l-1.2,1.7h1.2V81.7z M28.2,80.8
						v-0.5h2.9l-2.5,4.2l-0.4-0.2l2.1-3.5H28.2z M31.8,84.3l1.1-1.5l0,0c-0.1,0.1-0.3,0.1-0.4,0.1c-0.7,0-1.2-0.6-1.2-1.3
						c0-0.8,0.6-1.4,1.3-1.4c0.7,0,1.4,0.6,1.4,1.3c0,0.4-0.2,0.8-0.4,1.1l-1.4,1.9L31.8,84.3z M33.5,81.6c0-0.4-0.4-0.9-0.8-0.9
						c-0.5,0-0.9,0.4-0.9,0.9s0.4,0.9,0.9,0.9S33.5,82,33.5,81.6z"/>
				</g>
			</g>
			<g id="g4577">
				<g id="h4577">
					<polygon id="b4577" class="st3" points="27.2,446 46.7,446 46.7,436.5 27.2,436.5 					"/>
					<path id="t4577" class="st2" d="M33.9,442.3v0.5h-0.5v0.6H33v-0.6h-2l2.5-3.7v3.3L33.9,442.3L33.9,442.3z M33,440.6L33,440.6
						l-1.2,1.7H33V440.6L33,440.6z M35.7,439.7l-0.3,0.9h0.3c0.8,0,1.3,0.7,1.3,1.4c0,0.9-0.7,1.5-1.5,1.5c-0.5,0-1-0.3-1.2-0.7
						l0.4-0.4c0.1,0.4,0.5,0.6,0.9,0.6c0.5,0,1-0.5,1-1s-0.4-1-1-1c-0.3,0-0.6,0.1-0.8,0.4h-0.1l0.6-2.1H37v0.5L35.7,439.7
						L35.7,439.7z M37.6,439.7v-0.5h2.9l-2.5,4.2l-0.4-0.2l2.1-3.5H37.6L37.6,439.7z M40.8,439.7v-0.5h2.9l-2.5,4.2l-0.4-0.2
						l2.1-3.5H40.8L40.8,439.7z"/>
				</g>
			</g>
			<g id="g4575">
				<g id="h4575">
					<polygon id="b4575" class="st3" points="27.2,427 27.2,436.5 46.7,436.5 46.8,427 					"/>
					<path id="t4575" class="st2" d="M33.9,432.8v0.5h-0.5v0.6h-0.5v-0.6h-2l2.5-3.7v3.3L33.9,432.8L33.9,432.8z M32.9,431.1
						L32.9,431.1l-1.2,1.7h1.2V431.1z M35.7,430.1l-0.3,0.9h0.3c0.8,0,1.3,0.7,1.3,1.5c0,0.9-0.7,1.5-1.5,1.5c-0.5,0-1-0.3-1.2-0.7
						l0.4-0.4c0.1,0.4,0.5,0.6,0.9,0.6c0.5,0,1-0.5,1-1s-0.4-1-1-1c-0.3,0-0.6,0.1-0.8,0.4h-0.1l0.6-2.1H37v0.5L35.7,430.1
						L35.7,430.1z M37.5,430.1v-0.5h2.9l-2.5,4.2l-0.4-0.2l2.1-3.5H37.5L37.5,430.1z M41.7,430.1l-0.3,0.9h0.3
						c0.8,0,1.3,0.7,1.3,1.5c0,0.9-0.7,1.5-1.5,1.5c-0.5,0-1-0.3-1.2-0.7l0.4-0.4c0.1,0.4,0.5,0.6,0.9,0.6c0.5,0,1-0.5,1-1
						s-0.4-1-1-1c-0.3,0-0.6,0.1-0.8,0.4h-0.1l0.6-2.1H43v0.5L41.7,430.1L41.7,430.1z"/>
				</g>
			</g>
			<g id="g4571">
				<g id="h4571">
					<polygon id="b4571" class="st3" points="46.8,417.7 27.2,417.7 27.2,427 46.8,427 					"/>
					<path id="t4571" class="st2" d="M34,423.2v0.5h-0.5v0.6H33v-0.6h-2l2.5-3.7v3.3L34,423.2L34,423.2z M33.1,421.5L33.1,421.5
						l-1.2,1.7h1.2V421.5L33.1,421.5z M35.9,420.6l-0.3,0.9h0.3c0.8,0,1.3,0.7,1.3,1.5c0,0.9-0.7,1.5-1.5,1.5c-0.5,0-1-0.3-1.2-0.7
						l0.4-0.4c0.1,0.4,0.5,0.6,0.9,0.6c0.5,0,1-0.5,1-1s-0.4-1-1-1c-0.3,0-0.6,0.1-0.8,0.4h-0.1l0.6-2.1h1.6v0.5L35.9,420.6
						L35.9,420.6z M37.7,420.6v-0.5h2.9l-2.5,4.2l-0.4-0.2l2.1-3.5H37.7L37.7,420.6z M41.1,420.6l0.3-0.5h0.9v4.1h-0.5v-3.7h-0.7
						V420.6z"/>
				</g>
			</g>
			<g id="g4569">
				<g id="h4569">
					<polygon id="b4569" class="st3" points="46.8,408.3 27.2,408.3 27.2,417.7 46.8,417.7 					"/>
					<path id="t4569" class="st2" d="M34,414.3v0.5h-0.5v0.6H33v-0.6h-2l2.5-3.7v3.3L34,414.3L34,414.3z M33.1,412.6L33.1,412.6
						l-1.2,1.7h1.2V412.6z M35.9,411.6l-0.3,0.9h0.3c0.8,0,1.3,0.7,1.3,1.5c0,0.9-0.7,1.5-1.5,1.5c-0.5,0-1-0.3-1.2-0.7l0.4-0.4
						c0.1,0.4,0.5,0.6,0.9,0.6c0.5,0,1-0.5,1-1s-0.4-1-1-1c-0.3,0-0.6,0.1-0.8,0.4h-0.1l0.6-2.1h1.6v0.5L35.9,411.6L35.9,411.6z
						 M39.9,411.3l-1.1,1.5l0,0c0.1-0.1,0.3-0.1,0.4-0.1c0.7,0,1.2,0.6,1.2,1.3c0,0.8-0.6,1.4-1.3,1.4s-1.4-0.6-1.4-1.3
						c0-0.4,0.2-0.8,0.4-1.1l1.4-1.9L39.9,411.3z M39.9,414.1c0-0.5-0.4-0.9-0.9-0.9c-0.4,0-0.9,0.4-0.9,0.9s0.4,0.9,0.9,0.9
						C39.5,414.9,39.9,414.6,39.9,414.1z M41.2,415.1l1.1-1.5l0,0c-0.1,0.1-0.3,0.1-0.4,0.1c-0.7,0-1.2-0.6-1.2-1.3
						c0-0.8,0.6-1.4,1.3-1.4s1.4,0.6,1.4,1.3c0,0.4-0.2,0.8-0.4,1.1l-1.4,1.9L41.2,415.1z M42.9,412.4c0-0.4-0.4-0.9-0.8-0.9
						c-0.5,0-0.9,0.4-0.9,0.9s0.4,0.9,0.9,0.9C42.6,413.3,42.9,412.9,42.9,412.4z"/>
				</g>
			</g>
			<g id="g4567">
				<g id="h4567">
					<polygon id="b4567" class="st3" points="27.2,408.1 46.7,408.1 46.7,398.8 27.2,398.8 					"/>
					<path id="t4567" class="st2" d="M34,404.7v0.5h-0.5v0.6H33v-0.6h-2l2.5-3.7v3.3L34,404.7L34,404.7z M33.1,403L33.1,403
						l-1.2,1.7h1.2V403L33.1,403z M35.8,402.1l-0.3,0.9h0.3c0.8,0,1.3,0.7,1.3,1.5c0,0.9-0.7,1.5-1.5,1.5c-0.5,0-1-0.3-1.2-0.7
						l0.4-0.4c0.1,0.4,0.5,0.6,0.9,0.6c0.5,0,1-0.5,1-1s-0.4-1-1-1c-0.3,0-0.6,0.1-0.8,0.4h-0.1l0.6-2.1H37v0.5L35.8,402.1
						L35.8,402.1z M39.9,401.8l-1.1,1.5l0,0c0.1-0.1,0.3-0.1,0.4-0.1c0.7,0,1.2,0.6,1.2,1.3c0,0.8-0.6,1.4-1.3,1.4s-1.4-0.6-1.4-1.3
						c0-0.4,0.2-0.8,0.4-1.1l1.4-1.9L39.9,401.8z M39.9,404.6c0-0.5-0.4-0.9-0.9-0.9c-0.4,0-0.9,0.4-0.9,0.9s0.4,0.9,0.9,0.9
						C39.5,405.4,39.9,405,39.9,404.6z M40.7,402.1v-0.5h2.9l-2.5,4.2l-0.4-0.2l2.1-3.5H40.7z"/>
				</g>
			</g>
			<g id="g4565">
				<g id="h4565">
					<polygon id="b4565" class="st3" points="27.2,398.8 46.7,398.8 46.7,389.1 27.2,389.1 					"/>
					<path id="t4565" class="st2" d="M33.9,395.2v0.5h-0.5v0.6H33v-0.6h-2l2.5-3.7v3.3L33.9,395.2L33.9,395.2z M33,393.5L33,393.5
						l-1.2,1.7H33V393.5z M35.8,392.5l-0.3,0.9h0.3c0.8,0,1.3,0.7,1.3,1.5c0,0.9-0.7,1.5-1.5,1.5c-0.5,0-1-0.3-1.2-0.7l0.4-0.4
						c0.1,0.4,0.5,0.6,0.9,0.6c0.5,0,1-0.5,1-1s-0.4-1-1-1c-0.3,0-0.6,0.1-0.8,0.4h-0.1l0.6-2.1H37v0.5L35.8,392.5L35.8,392.5z
						 M39.8,392.2l-1.1,1.5l0,0c0.1-0.1,0.3-0.1,0.4-0.1c0.7,0,1.2,0.6,1.2,1.3c0,0.8-0.6,1.4-1.3,1.4s-1.4-0.6-1.4-1.3
						c0-0.4,0.2-0.8,0.4-1.1l1.4-1.9L39.8,392.2z M39.8,395c0-0.5-0.4-0.9-0.9-0.9c-0.4,0-0.9,0.4-0.9,0.9s0.4,0.9,0.9,0.9
						C39.4,395.8,39.8,395.5,39.8,395z M42.1,392.5l-0.3,0.9h0.3c0.8,0,1.3,0.7,1.3,1.5c0,0.9-0.7,1.5-1.5,1.5c-0.5,0-1-0.3-1.2-0.7
						l0.4-0.4c0.1,0.4,0.5,0.6,0.9,0.6c0.5,0,1-0.5,1-1s-0.4-1-1-1c-0.3,0-0.6,0.1-0.8,0.4h-0.1l0.6-2.1h1.6v0.5L42.1,392.5
						L42.1,392.5z"/>
				</g>
			</g>
			<g id="g4561">
				<g id="h4561">
					<polygon id="b4561" class="st3" points="46.7,389.1 46.7,379.8 27.2,379.8 27.2,389.1 					"/>
					<path id="t4561" class="st2" d="M34.2,385.6v0.5h-0.5v0.6h-0.5V386h-2l2.5-3.7v3.3L34.2,385.6L34.2,385.6z M33.2,383.9
						L33.2,383.9l-1.2,1.7h1.2V383.9z M36,383l-0.3,0.9H36c0.8,0,1.3,0.7,1.3,1.5c0,0.9-0.7,1.5-1.5,1.5c-0.5,0-1-0.3-1.2-0.7
						l0.4-0.4c0.1,0.4,0.5,0.6,0.9,0.6c0.5,0,1-0.5,1-1s-0.4-1-1-1c-0.3,0-0.6,0.1-0.8,0.4H35l0.6-2.1h1.6v0.5L36,383L36,383z
						 M40,382.7l-1.1,1.5l0,0c0.1-0.1,0.3-0.1,0.4-0.1c0.7,0,1.2,0.6,1.2,1.3c0,0.8-0.6,1.4-1.3,1.4s-1.4-0.6-1.4-1.3
						c0-0.4,0.2-0.8,0.4-1.1l1.4-1.9L40,382.7z M40,385.4c0-0.5-0.4-0.9-0.9-0.9c-0.4,0-0.9,0.4-0.9,0.9s0.4,0.9,0.9,0.9
						S40,385.9,40,385.4z M41,383l0.3-0.5h0.9v4.1h-0.5V383H41z"/>
				</g>
			</g>
			<g id="g4559">
				<g id="h4559">
					<polygon id="b4559" class="st3" points="46.8,370.2 27.2,370.2 27.2,379.8 46.7,379.8 					"/>
					<path id="t4559" class="st2" d="M34,376v0.5h-0.5v0.6H33v-0.6h-2l2.5-3.7v3.3L34,376L34,376z M33.1,374.3L33.1,374.3l-1.2,1.7
						h1.2V374.3L33.1,374.3z M35.8,373.4l-0.3,0.9h0.3c0.8,0,1.3,0.7,1.3,1.5c0,0.9-0.7,1.5-1.5,1.5c-0.5,0-1-0.3-1.2-0.7l0.4-0.4
						c0.1,0.4,0.5,0.6,0.9,0.6c0.5,0,1-0.5,1-1s-0.4-1-1-1c-0.3,0-0.6,0.1-0.8,0.4h-0.1l0.6-2.1H37v0.5L35.8,373.4L35.8,373.4z
						 M39,373.4l-0.3,0.9H39c0.8,0,1.3,0.7,1.3,1.5c0,0.9-0.7,1.5-1.5,1.5c-0.5,0-1-0.3-1.2-0.7l0.4-0.4c0.1,0.4,0.5,0.6,0.9,0.6
						c0.5,0,1-0.5,1-1s-0.4-1-1-1c-0.3,0-0.6,0.1-0.8,0.4H38l0.6-2.1h1.6v0.5L39,373.4L39,373.4z M41.2,376.9l1.1-1.5l0,0
						c-0.1,0.1-0.3,0.1-0.4,0.1c-0.7,0-1.2-0.6-1.2-1.3c0-0.8,0.6-1.4,1.3-1.4s1.4,0.6,1.4,1.3c0,0.4-0.2,0.8-0.4,1.1l-1.4,1.9
						L41.2,376.9z M42.9,374.2c0-0.4-0.4-0.9-0.8-0.9c-0.5,0-0.9,0.4-0.9,0.9s0.4,0.9,0.9,0.9C42.6,375.1,42.9,374.6,42.9,374.2z"/>
				</g>
			</g>
			<g id="g4557">
				<g id="h4557">
					<polygon id="b4557" class="st3" points="46.8,360.9 27.2,360.9 27.2,370.2 46.8,370.2 					"/>
					<path id="t4557" class="st2" d="M34,366.5v0.5h-0.5v0.6H33V367h-2l2.5-3.7v3.3L34,366.5L34,366.5z M33,364.8L33,364.8l-1.2,1.7
						H33V364.8z M35.8,363.9l-0.3,0.9h0.3c0.8,0,1.3,0.7,1.3,1.5c0,0.9-0.7,1.5-1.5,1.5c-0.5,0-1-0.3-1.2-0.7l0.4-0.4
						c0.1,0.4,0.5,0.6,0.9,0.6c0.5,0,1-0.5,1-1s-0.4-1-1-1c-0.3,0-0.6,0.1-0.8,0.4h-0.1l0.6-2.1H37v0.5L35.8,363.9L35.8,363.9z
						 M38.9,363.9l-0.3,0.9h0.3c0.8,0,1.3,0.7,1.3,1.5c0,0.9-0.7,1.5-1.5,1.5c-0.5,0-1-0.3-1.2-0.7l0.4-0.4c0.1,0.4,0.5,0.6,0.9,0.6
						c0.5,0,1-0.5,1-1s-0.4-1-1-1c-0.3,0-0.6,0.1-0.8,0.4h0l0.6-2.1h1.6v0.5L38.9,363.9L38.9,363.9z M40.8,363.9v-0.5h2.9l-2.5,4.2
						l-0.4-0.2l2.1-3.5H40.8z"/>
				</g>
			</g>
			<g id="g4555">
				<g id="h4555">
					<polygon id="b4555" class="st3" points="46.8,351.5 27.2,351.5 27.2,360.9 46.8,360.9 					"/>
					<path id="t4555" class="st2" d="M33.8,357.2v0.5h-0.5v0.6h-0.5v-0.6h-2l2.5-3.7v3.3L33.8,357.2L33.8,357.2z M32.8,355.5
						L32.8,355.5l-1.2,1.7h1.2V355.5z M35.6,354.6l-0.3,0.9h0.3c0.8,0,1.3,0.7,1.3,1.5c0,0.9-0.7,1.5-1.5,1.5c-0.5,0-1-0.3-1.2-0.7
						l0.4-0.4c0.1,0.4,0.5,0.6,0.9,0.6c0.5,0,1-0.5,1-1s-0.4-1-1-1c-0.3,0-0.6,0.1-0.8,0.4h-0.1l0.6-2.1h1.6v0.5L35.6,354.6
						L35.6,354.6z M38.7,354.6l-0.3,0.9h0.3c0.8,0,1.3,0.7,1.3,1.5c0,0.9-0.7,1.5-1.5,1.5c-0.5,0-1-0.3-1.2-0.7l0.4-0.4
						c0.1,0.4,0.5,0.6,0.9,0.6c0.5,0,1-0.5,1-1s-0.4-1-1-1c-0.3,0-0.6,0.1-0.8,0.4h-0.1l0.6-2.1H40v0.5L38.7,354.6L38.7,354.6z
						 M41.9,354.6l-0.3,0.9h0.3c0.8,0,1.3,0.7,1.3,1.5c0,0.9-0.7,1.5-1.5,1.5c-0.5,0-1-0.3-1.2-0.7l0.4-0.4c0.1,0.4,0.5,0.6,0.9,0.6
						c0.5,0,1-0.5,1-1s-0.4-1-1-1c-0.3,0-0.6,0.1-0.8,0.4h-0.1l0.6-2.1h1.6v0.5L41.9,354.6L41.9,354.6z"/>
				</g>
			</g>
			<g id="g4553">
				<g id="h4553">
					<polygon id="b4553" class="st3" points="46.8,341.9 27.2,341.9 27.2,351.5 46.8,351.5 					"/>
					<path id="t4553" class="st2" d="M34.2,347.6v0.5h-0.5v0.6h-0.5v-0.6h-2l2.5-3.7v3.3L34.2,347.6L34.2,347.6z M33.3,345.9
						L33.3,345.9l-1.2,1.7h1.2V345.9z M36,345l-0.3,0.9H36c0.8,0,1.3,0.7,1.3,1.5c0,0.9-0.7,1.5-1.5,1.5c-0.5,0-1-0.3-1.2-0.7
						l0.4-0.4c0.1,0.4,0.5,0.6,0.9,0.6c0.5,0,1-0.5,1-1s-0.4-1-1-1c-0.3,0-0.6,0.1-0.8,0.4H35l0.6-2.1h1.6v0.5L36,345L36,345z
						 M39.2,345l-0.3,0.9h0.3c0.8,0,1.3,0.7,1.3,1.5c0,0.9-0.7,1.5-1.5,1.5c-0.5,0-1-0.3-1.2-0.7l0.4-0.4c0.1,0.4,0.5,0.6,0.9,0.6
						c0.5,0,1-0.5,1-1s-0.4-1-1-1c-0.3,0-0.6,0.1-0.8,0.4h-0.1l0.6-2.1h1.6v0.5L39.2,345L39.2,345z M42.2,346.3
						c0.4,0,0.8-0.2,0.8-0.7c0-0.4-0.3-0.7-0.7-0.7s-0.6,0.2-0.7,0.6h-0.5c0.1-0.7,0.5-1,1.2-1c0.6,0,1.2,0.4,1.2,1.1
						c0,0.4-0.2,0.7-0.5,0.9c0.4,0.2,0.6,0.6,0.6,1c0,0.8-0.6,1.2-1.3,1.2c-0.6,0-1.2-0.4-1.2-1.1h0.5c0,0.4,0.4,0.7,0.8,0.7
						c0.5,0,0.8-0.4,0.8-0.8c0-0.5-0.4-0.8-0.9-0.8L42.2,346.3L42.2,346.3z"/>
				</g>
			</g>
			<g id="g4551">
				<g id="h4551">
					<polygon id="b4551" class="st3" points="46.8,332.3 27.2,332.3 27.2,341.9 46.8,341.9 					"/>
					<path id="t4551" class="st2" d="M34.3,338.2v0.5h-0.5v0.6h-0.5v-0.6h-2l2.5-3.7v3.3L34.3,338.2L34.3,338.2z M33.4,336.5
						L33.4,336.5l-1.2,1.7h1.2V336.5z M36.1,335.6l-0.3,0.9h0.3c0.8,0,1.3,0.7,1.3,1.5c0,0.9-0.7,1.5-1.5,1.5c-0.5,0-1-0.3-1.2-0.7
						l0.4-0.4c0.1,0.4,0.5,0.6,0.9,0.6c0.5,0,1-0.5,1-1s-0.4-1-1-1c-0.3,0-0.6,0.1-0.8,0.4h-0.1l0.6-2.1h1.6v0.5L36.1,335.6
						L36.1,335.6z M39.3,335.6l-0.3,0.9h0.3c0.8,0,1.3,0.7,1.3,1.5c0,0.9-0.7,1.5-1.5,1.5c-0.5,0-1-0.3-1.2-0.7l0.4-0.4
						c0.1,0.4,0.5,0.6,0.9,0.6c0.5,0,1-0.5,1-1s-0.4-1-1-1c-0.3,0-0.6,0.1-0.8,0.4h-0.1l0.6-2.1h1.6v0.5L39.3,335.6L39.3,335.6z
						 M41.3,335.6l0.3-0.5h0.9v4.1H42v-3.7h-0.7V335.6z"/>
				</g>
			</g>
			<g id="g4539">
				<g id="h4539">
					<polygon id="b4539" class="st3" points="46.8,322.7 27.2,322.7 27.2,332.3 46.8,332.3 					"/>
					<path id="t4539" class="st2" d="M34.3,328.7v0.5h-0.5v0.6h-0.5v-0.6h-2l2.5-3.7v3.3L34.3,328.7L34.3,328.7z M33.3,327L33.3,327
						l-1.2,1.7h1.2V327L33.3,327z M36.1,326.1l-0.3,0.9h0.3c0.8,0,1.3,0.7,1.3,1.5c0,0.9-0.7,1.5-1.5,1.5c-0.5,0-1-0.3-1.2-0.7
						l0.4-0.4c0.1,0.4,0.5,0.6,0.9,0.6c0.5,0,1-0.5,1-1s-0.4-1-1-1c-0.3,0-0.6,0.1-0.8,0.4h-0.1l0.6-2.1h1.6v0.5L36.1,326.1
						L36.1,326.1z M39.1,327.3c0.4,0,0.8-0.2,0.8-0.7c0-0.4-0.3-0.7-0.7-0.7s-0.6,0.2-0.7,0.6H38c0.1-0.7,0.5-1,1.2-1
						c0.6,0,1.2,0.4,1.2,1.1c0,0.4-0.2,0.7-0.5,0.9c0.4,0.2,0.6,0.6,0.6,1c0,0.8-0.6,1.2-1.3,1.2c-0.6,0-1.2-0.4-1.2-1.1h0.5
						c0,0.4,0.4,0.7,0.8,0.7c0.5,0,0.8-0.4,0.8-0.8c0-0.5-0.4-0.8-0.9-0.8L39.1,327.3L39.1,327.3z M41.5,329.6l1.1-1.5l0,0
						c-0.1,0.1-0.3,0.1-0.4,0.1c-0.7,0-1.2-0.6-1.2-1.3c0-0.8,0.6-1.4,1.3-1.4s1.4,0.6,1.4,1.3c0,0.4-0.2,0.8-0.4,1.1l-1.4,1.9
						L41.5,329.6z M43.2,326.8c0-0.4-0.4-0.9-0.8-0.9c-0.5,0-0.9,0.4-0.9,0.9s0.4,0.9,0.9,0.9C42.9,327.7,43.2,327.3,43.2,326.8z"/>
				</g>
			</g>
			<g id="g4527">
				<g id="h4527">
					<polygon id="b4527" class="st3" points="27.3,294.6 27.3,285 47.4,285 47.4,294.6 					"/>
					<path id="t4527" class="st2" d="M34.3,290.7v0.5h-0.5v0.6h-0.5v-0.6h-2l2.5-3.7v3.3L34.3,290.7L34.3,290.7z M33.3,289L33.3,289
						l-1.2,1.7h1.2V289z M36.1,288.1l-0.3,0.9h0.3c0.8,0,1.3,0.7,1.3,1.5c0,0.9-0.7,1.5-1.5,1.5c-0.5,0-1-0.3-1.2-0.7l0.4-0.4
						c0.1,0.4,0.5,0.6,0.9,0.6c0.5,0,1-0.5,1-1s-0.4-1-1-1c-0.3,0-0.6,0.1-0.8,0.4h-0.1l0.6-2.1h1.6v0.5L36.1,288.1L36.1,288.1z
						 M40.4,291.2v0.5h-2.6l1.8-2.2c0.2-0.2,0.4-0.5,0.4-0.7c0-0.4-0.4-0.8-0.8-0.8c-0.4,0-0.8,0.3-0.8,0.8h-0.5
						c0.1-0.7,0.5-1.2,1.3-1.2c0.7,0,1.3,0.5,1.3,1.2c0,0.3-0.1,0.6-0.3,0.9l-1.3,1.7L40.4,291.2L40.4,291.2z M41,288.1v-0.5h2.9
						l-2.5,4.2l-0.4-0.2l2.1-3.5H41z"/>
				</g>
			</g>
			<g id="g4521">
				<g id="h4521">
					<polygon id="b4521" class="st3" points="27.3,275.5 47.4,275.4 47.4,265.7 27.3,265.7 					"/>
					<path id="t4521" class="st2" d="M34.4,271.3v0.5h-0.5v0.6h-0.5v-0.6h-2l2.5-3.7v3.3L34.4,271.3L34.4,271.3z M33.5,269.6
						L33.5,269.6l-1.2,1.7h1.2V269.6z M36.2,268.6l-0.3,0.9h0.3c0.8,0,1.3,0.7,1.3,1.5c0,0.9-0.7,1.5-1.5,1.5c-0.5,0-1-0.3-1.2-0.7
						l0.4-0.4c0.1,0.4,0.5,0.6,0.9,0.6c0.5,0,1-0.5,1-1s-0.4-1-1-1c-0.3,0-0.6,0.1-0.8,0.4h-0.1l0.6-2.1h1.6v0.5L36.2,268.6
						L36.2,268.6z M40.6,271.8v0.5H38l1.8-2.2c0.2-0.2,0.4-0.5,0.4-0.7c0-0.4-0.4-0.8-0.8-0.8c-0.4,0-0.8,0.3-0.8,0.8H38
						c0.1-0.7,0.5-1.2,1.3-1.2c0.7,0,1.3,0.5,1.3,1.2c0,0.3-0.1,0.6-0.3,0.9L39,272L40.6,271.8L40.6,271.8z M41.2,268.6l0.3-0.5h0.9
						v4.1H42v-3.7h-0.8V268.6z"/>
				</g>
			</g>
			<g id="g4519">
				<g id="h4519">
					<polygon id="b4519" class="st3" points="27.3,255.8 27.3,265.7 47.4,265.7 47.4,255.8 					"/>
					<path id="t4519" class="st2" d="M34.5,261.2v0.5H34v0.6h-0.5v-0.6h-2L34,258v3.3L34.5,261.2L34.5,261.2z M33.6,259.5
						L33.6,259.5l-1.2,1.7h1.2V259.5z M36.3,258.6l-0.3,0.9h0.3c0.8,0,1.3,0.7,1.3,1.5c0,0.9-0.7,1.5-1.5,1.5c-0.5,0-1-0.3-1.2-0.7
						l0.4-0.4c0.1,0.4,0.5,0.6,0.9,0.6c0.5,0,1-0.5,1-1s-0.4-1-1-1c-0.3,0-0.6,0.1-0.8,0.4h-0.1l0.6-2.1h1.6v0.5h-1.2V258.6z
						 M38.4,258.6l0.3-0.5h0.9v4.1h-0.5v-3.7h-0.7V258.6z M41.2,262.1l1.1-1.5l0,0c-0.1,0.1-0.3,0.1-0.4,0.1c-0.7,0-1.2-0.6-1.2-1.3
						c0-0.8,0.6-1.4,1.3-1.4s1.4,0.6,1.4,1.3c0,0.4-0.2,0.8-0.4,1.1l-1.4,1.9L41.2,262.1z M43,259.4c0-0.4-0.4-0.9-0.8-0.9
						c-0.5,0-0.9,0.4-0.9,0.9s0.4,0.9,0.9,0.9C42.6,260.3,43,259.9,43,259.4z"/>
				</g>
			</g>
			<g id="g4517">
				<g id="h4517">
					<polygon id="b4517" class="st3" points="47.4,245.6 27.3,245.6 27.3,255.8 47.4,255.8 					"/>
					<path id="t4517" class="st2" d="M34.5,251.7v0.5H34v0.6h-0.5v-0.6h-2l2.5-3.7v3.3h0.5V251.7z M33.6,250L33.6,250l-1.2,1.7h1.2
						V250L33.6,250z M36.4,249.1l-0.3,0.9h0.3c0.8,0,1.3,0.7,1.3,1.4c0,0.9-0.7,1.5-1.5,1.5c-0.5,0-1-0.3-1.2-0.7l0.4-0.4
						c0.1,0.4,0.5,0.6,0.9,0.6c0.5,0,1-0.5,1-1s-0.4-1-1-1c-0.3,0-0.6,0.1-0.8,0.4h-0.1l0.6-2.1h1.6v0.5L36.4,249.1L36.4,249.1z
						 M38.4,249.1l0.3-0.5h0.9v4.1h-0.5V249L38.4,249.1L38.4,249.1z M40.7,249.1v-0.5h2.9l-2.5,4.2l-0.4-0.2l2.1-3.5H40.7z"/>
				</g>
			</g>
			<g id="g4491">
				<g id="h4491">
					<rect id="b4491" x="40.7" y="111.6" class="st3" width="10.2" height="22.8"/>
					<path id="t4491" class="st2" d="M46.7,125.9h0.5v0.5h0.6v0.5h-0.6v2l-3.7-2.5h3.3L46.7,125.9L46.7,125.9z M45,126.9L45,126.9
						l1.7,1.2v-1.2L45,126.9L45,126.9z M46.7,122.6h0.5v0.5h0.6v0.5h-0.6v2l-3.7-2.5h3.3L46.7,122.6L46.7,122.6z M45,123.6L45,123.6
						l1.7,1.2v-1.2H45z M47.6,121.8l-1.5-1.1l0,0c0.1,0.1,0.1,0.3,0.1,0.4c0,0.7-0.6,1.2-1.3,1.2c-0.8,0-1.4-0.6-1.4-1.3
						c0-0.7,0.6-1.4,1.3-1.4c0.4,0,0.8,0.2,1.1,0.4l1.9,1.4L47.6,121.8z M44.9,120.1c-0.4,0-0.9,0.4-0.9,0.8c0,0.5,0.4,0.9,0.9,0.9
						s0.9-0.4,0.9-0.9C45.7,120.4,45.3,120.1,44.9,120.1z M44.1,119l-0.5-0.3v-0.9h4.1v0.5H44C44.1,118.3,44.1,119,44.1,119z"/>
				</g>
			</g>
			<g id="g4477">
				<g id="h4477">
					<polygon id="b4477" class="st3" points="46.2,71.8 46.2,85.9 62,85.9 62,71.8 					"/>
					<path id="t4477" class="st2" d="M50.6,79.8v0.4h-0.5v0.6h-0.5v-0.6h-2l2.5-3.7v3.3C50.1,79.8,50.6,79.8,50.6,79.8z M49.6,78.1
						L49.6,78.1l-1.2,1.7h1.2V78.1z M53.9,79.8v0.4h-0.5v0.6h-0.5v-0.6h-2l2.5-3.7v3.3C53.4,79.8,53.9,79.8,53.9,79.8z M52.9,78.1
						L52.9,78.1l-1.2,1.7h1.2V78.1L52.9,78.1z M54.2,77.2v-0.5h2.9l-2.5,4.2l-0.4-0.2l2.1-3.5H54.2z M57.5,77.2v-0.5h2.9l-2.5,4.2
						l-0.4-0.2l2.1-3.5H57.5z"/>
				</g>
			</g>
			<g id="g4475">
				<g id="h4475">
					<polygon id="b4475" class="st3" points="77.5,71.8 62,71.8 62,85.9 77.5,85.9 					"/>
					<path id="t4475" class="st2" d="M66.8,79.8v0.5h-0.5v0.6h-0.5v-0.6h-2l2.5-3.7v3.3h0.5V79.8z M65.9,78.1L65.9,78.1l-1.2,1.7
						h1.2V78.1z M70.1,79.8v0.5h-0.5v0.6h-0.5v-0.6h-2l2.5-3.7v3.3h0.5V79.8z M69.2,78.1L69.2,78.1L68,79.8h1.2V78.1z M70.5,77.2
						v-0.5h2.9l-2.5,4.2l-0.4-0.2l2.1-3.5H70.5z M74.6,77.2L74.4,78h0.3c0.8,0,1.3,0.7,1.3,1.4c0,0.9-0.7,1.5-1.5,1.5
						c-0.5,0-1-0.3-1.2-0.7l0.4-0.4c0.1,0.4,0.5,0.6,0.9,0.6c0.5,0,1-0.5,1-1s-0.4-1-1-1c-0.3,0-0.6,0.1-0.8,0.4h-0.1l0.6-2.1h1.6
						v0.5C75.9,77.2,74.6,77.2,74.6,77.2z"/>
				</g>
			</g>
		</g>
	</g>
	<g id="gDeck04OceanviewOF">
		<g id="hDeck04OceanviewOF">
			<g id="g4498">
				<g id="h4498">
					<polygon id="b4498" class="st3" points="2.8,157.1 0.7,178.1 23,178.2 23,157.1 13.2,157.1 					"/>
					<path id="t4498" class="st2" d="M9,167v0.4H8.6v0.6H8.1v-0.6h-2l2.5-3.7v3.3H9z M8.1,165.2L8.1,165.2L6.9,167h1.2V165.2z
						 M12.3,167v0.4h-0.5v0.6h-0.5v-0.6h-2l2.5-3.7v3.3H12.3z M11.4,165.2L11.4,165.2l-1.2,1.7h1.2V165.2L11.4,165.2z M13.2,167.8
						l1.1-1.5l0,0c-0.1,0.1-0.3,0.1-0.4,0.1c-0.7,0-1.2-0.6-1.2-1.3c0-0.8,0.6-1.4,1.3-1.4s1.4,0.6,1.4,1.3c0,0.4-0.2,0.8-0.4,1.1
						l-1.4,1.9L13.2,167.8z M14.9,165.1c0-0.4-0.4-0.9-0.8-0.9c-0.5,0-0.9,0.4-0.9,0.9s0.4,0.9,0.9,0.9
						C14.5,166,14.9,165.6,14.9,165.1z M16.5,165.9c-0.3-0.2-0.5-0.5-0.5-0.9c0-0.7,0.5-1.2,1.2-1.2s1.2,0.5,1.2,1.2
						c0,0.4-0.2,0.7-0.5,0.9c0.4,0.1,0.6,0.5,0.6,1c0,0.8-0.6,1.2-1.3,1.2s-1.3-0.5-1.3-1.2C15.8,166.4,16,166,16.5,165.9z
						 M16.3,166.9c0,0.4,0.4,0.8,0.8,0.8s0.8-0.4,0.8-0.8c0-0.4-0.4-0.8-0.8-0.8C16.7,166.1,16.3,166.4,16.3,166.9z M16.4,164.9
						c0,0.3,0.4,0.7,0.7,0.7s0.7-0.4,0.7-0.7c0-0.4-0.3-0.7-0.7-0.7S16.4,164.5,16.4,164.9z"/>
				</g>
			</g>
			<g id="g4496">
				<g id="h4496">
					<polyline id="b4496" class="st3" points="2.8,157.1 4.1,147.2 27.7,147.1 27.7,157.1 2.8,157.1 					"/>
					<path id="t4496" class="st2" d="M12,152.8v0.5h-0.5v0.6H11v-0.6H9l2.5-3.7v3.3H12V152.8z M11,151.1L11,151.1l-1.2,1.7H11V151.1
						z M15.3,152.8v0.5h-0.5v0.6h-0.5v-0.6h-2l2.5-3.7v3.3h0.5V152.8z M14.3,151.1L14.3,151.1l-1.2,1.7h1.2V151.1z M16.1,153.7
						l1.1-1.5l0,0c-0.1,0.1-0.3,0.1-0.4,0.1c-0.7,0-1.2-0.6-1.2-1.3c0-0.8,0.6-1.4,1.3-1.4s1.4,0.6,1.4,1.3c0,0.4-0.2,0.8-0.4,1.1
						l-1.4,1.9L16.1,153.7z M17.8,151c0-0.4-0.4-0.9-0.8-0.9c-0.5,0-0.9,0.4-0.9,0.9s0.4,0.9,0.9,0.9
						C17.5,151.8,17.8,151.4,17.8,151z M20.8,149.9l-1.1,1.5l0,0c0.1-0.1,0.3-0.1,0.4-0.1c0.7,0,1.2,0.6,1.2,1.3
						c0,0.8-0.6,1.4-1.3,1.4c-0.7,0-1.4-0.6-1.4-1.3c0-0.4,0.2-0.8,0.4-1.1l1.4-1.9L20.8,149.9z M20.8,152.6c0-0.5-0.4-0.9-0.9-0.9
						c-0.4,0-0.9,0.4-0.9,0.9s0.4,0.9,0.9,0.9S20.8,153.1,20.8,152.6z"/>
				</g>
			</g>
			<g id="g4492">
				<g id="h4492">
					<polygon id="b4492" class="st3" points="5.7,137 7.4,126.7 30.4,126.7 30.4,137.1 					"/>
					<path id="t4492" class="st2" d="M14.4,132.5v0.4H14v0.6h-0.5v-0.6h-2l2.5-3.7v3.3H14.4z M13.5,130.8L13.5,130.8l-1.2,1.7h1.2
						V130.8z M17.7,132.5v0.4h-0.5v0.6h-0.5v-0.6h-2l2.5-3.7v3.3H17.7z M16.8,130.8L16.8,130.8l-1.2,1.7h1.2V130.8z M18.6,133.4
						l1.1-1.5l0,0c-0.1,0.1-0.3,0.1-0.4,0.1c-0.7,0-1.2-0.6-1.2-1.3c0-0.8,0.6-1.4,1.3-1.4c0.7,0,1.4,0.6,1.4,1.3
						c0,0.4-0.2,0.8-0.4,1.1l-1.4,1.9L18.6,133.4z M20.3,130.6c0-0.4-0.4-0.9-0.8-0.9c-0.5,0-0.9,0.4-0.9,0.9s0.4,0.9,0.9,0.9
						C19.9,131.5,20.3,131.1,20.3,130.6z M23.8,133.1v0.5h-2.6l1.8-2.2c0.2-0.2,0.4-0.5,0.4-0.7c0-0.4-0.4-0.8-0.8-0.8
						s-0.8,0.3-0.8,0.8h-0.5c0.1-0.7,0.5-1.2,1.3-1.2c0.7,0,1.3,0.5,1.3,1.2c0,0.3-0.1,0.6-0.3,0.9l-1.3,1.7h1.5V133.1z"/>
				</g>
			</g>
			<g id="g4490">
				<g id="h4490">
					<polygon id="b4490" class="st3" points="7.4,126.7 9.4,116.4 30.4,116.4 30.4,126.7 					"/>
					<path id="t4490" class="st2" d="M15.7,122.3v0.5h-0.5v0.6h-0.5v-0.6h-2l2.5-3.7v3.3h0.5V122.3z M14.8,120.6L14.8,120.6
						l-1.2,1.7h1.2V120.6L14.8,120.6z M19,122.3v0.5h-0.5v0.6H18v-0.6h-2l2.5-3.7v3.3H19V122.3z M18.1,120.6L18.1,120.6l-1.2,1.7
						h1.2V120.6z M19.9,123.2l1.1-1.5l0,0c-0.1,0.1-0.3,0.1-0.4,0.1c-0.7,0-1.2-0.6-1.2-1.3c0-0.8,0.6-1.4,1.3-1.4
						c0.7,0,1.4,0.6,1.4,1.3c0,0.4-0.2,0.8-0.4,1.1l-1.4,1.9L19.9,123.2z M21.6,120.5c0-0.4-0.4-0.9-0.8-0.9c-0.5,0-0.9,0.4-0.9,0.9
						s0.4,0.9,0.9,0.9C21.2,121.3,21.6,120.9,21.6,120.5z M22.4,121.3c0-0.9,0.4-2.2,1.4-2.2s1.4,1.3,1.4,2.2c0,0.8-0.4,2.2-1.4,2.2
						S22.4,122.1,22.4,121.3z M22.9,121.3c0,0.6,0.2,1.7,0.9,1.7c0.7,0,0.9-1.1,0.9-1.7s-0.2-1.7-0.9-1.7
						C23.1,119.6,22.9,120.7,22.9,121.3z"/>
				</g>
			</g>
			<g id="g4488">
				<g id="h4488">
					<polygon id="b4488" class="st3" points="32.9,106.4 32.9,116.4 9.4,116.4 11.4,106.5 					"/>
					<path id="t4488" class="st2" d="M17.8,112.4v0.4h-0.5v0.6h-0.5v-0.6h-2l2.5-3.7v3.3C17.3,112.4,17.8,112.4,17.8,112.4z
						 M16.8,110.6L16.8,110.6l-1.2,1.7h1.2V110.6z M21.1,112.4v0.4h-0.5v0.6h-0.5v-0.6h-2l2.5-3.7v3.3
						C20.6,112.4,21.1,112.4,21.1,112.4z M20.1,110.6L20.1,110.6l-1.2,1.7h1.2V110.6L20.1,110.6z M22.2,111.3
						c-0.3-0.2-0.5-0.5-0.5-0.9c0-0.7,0.5-1.2,1.2-1.2s1.2,0.5,1.2,1.2c0,0.4-0.2,0.7-0.5,0.9c0.4,0.1,0.6,0.5,0.6,1
						c0,0.8-0.6,1.2-1.3,1.2s-1.3-0.5-1.3-1.2C21.6,111.8,21.8,111.4,22.2,111.3z M22,112.3c0,0.4,0.4,0.8,0.8,0.8s0.8-0.4,0.8-0.8
						s-0.4-0.8-0.8-0.8S22,111.8,22,112.3z M22.1,110.3c0,0.3,0.4,0.7,0.7,0.7s0.7-0.4,0.7-0.7c0-0.4-0.3-0.7-0.7-0.7
						S22.1,109.9,22.1,110.3z M25.4,111.3c-0.3-0.2-0.5-0.5-0.5-0.9c0-0.7,0.5-1.2,1.2-1.2s1.2,0.5,1.2,1.2c0,0.4-0.2,0.7-0.5,0.9
						c0.4,0.1,0.6,0.5,0.6,1c0,0.8-0.6,1.2-1.3,1.2s-1.3-0.5-1.3-1.2C24.7,111.8,25,111.4,25.4,111.3z M25.2,112.3
						c0,0.4,0.4,0.8,0.8,0.8s0.8-0.4,0.8-0.8s-0.4-0.8-0.8-0.8S25.2,111.8,25.2,112.3z M25.3,110.3c0,0.3,0.4,0.7,0.7,0.7
						s0.7-0.4,0.7-0.7c0-0.4-0.3-0.7-0.7-0.7S25.3,109.9,25.3,110.3z"/>
				</g>
			</g>
			<g id="g4580">
				<g id="h4580">
					<rect id="b4580" x="0.5" y="446" class="st3" width="19.9" height="9.5"/>
					<path id="t4580" class="st2" d="M7,451.7v0.5H6.6v0.6H6.1v-0.6h-2l2.5-3.7v3.3L7,451.7L7,451.7z M6.1,450L6.1,450l-1.2,1.7h1.2
						C6.1,451.7,6.1,450,6.1,450z M8.8,449.1L8.6,450h0.3c0.8,0,1.3,0.7,1.3,1.4c0,0.9-0.7,1.5-1.5,1.5c-0.5,0-1-0.3-1.2-0.7
						l0.4-0.4c0.1,0.4,0.5,0.6,0.9,0.6c0.5,0,1-0.5,1-1s-0.4-1-1-1c-0.3,0-0.6,0.1-0.8,0.4H7.9l0.6-2.1h1.6v0.5L8.8,449.1L8.8,449.1
						z M11.4,450.6c-0.3-0.2-0.5-0.5-0.5-0.9c0-0.7,0.5-1.2,1.2-1.2c0.6,0,1.2,0.5,1.2,1.2c0,0.4-0.2,0.7-0.5,0.9
						c0.4,0.1,0.6,0.5,0.6,1c0,0.8-0.6,1.2-1.3,1.2s-1.3-0.5-1.3-1.2C10.7,451.2,10.9,450.8,11.4,450.6z M11.2,451.6
						c0,0.4,0.4,0.8,0.8,0.8c0.4,0,0.8-0.4,0.8-0.8s-0.4-0.8-0.8-0.8C11.6,450.9,11.2,451.2,11.2,451.6z M11.3,449.7
						c0,0.3,0.4,0.7,0.7,0.7s0.7-0.4,0.7-0.7c0-0.4-0.3-0.7-0.7-0.7S11.3,449.3,11.3,449.7z M13.8,450.7c0-0.9,0.4-2.2,1.4-2.2
						s1.4,1.3,1.4,2.2c0,0.8-0.4,2.2-1.4,2.2S13.8,451.6,13.8,450.7z M14.3,450.7c0,0.6,0.2,1.7,0.9,1.7s0.9-1.1,0.9-1.7
						s-0.2-1.7-0.9-1.7S14.3,450.1,14.3,450.7z"/>
				</g>
			</g>
			<g id="g4578">
				<g id="h4578">
					<rect id="b4578" x="0.5" y="436.5" class="st3" width="19.9" height="9.5"/>
					<path id="t4578" class="st2" d="M7.1,442.3v0.5H6.6v0.6H6.2v-0.6h-2l2.5-3.7v3.3L7.1,442.3L7.1,442.3z M6.2,440.6L6.2,440.6
						L5,442.3h1.2V440.6z M8.9,439.7l-0.3,0.9h0.3c0.8,0,1.3,0.7,1.3,1.4c0,0.9-0.7,1.5-1.5,1.5c-0.5,0-1-0.3-1.2-0.7l0.4-0.4
						c0.1,0.4,0.5,0.6,0.9,0.6c0.6,0,1-0.5,1-1s-0.4-1-1-1c-0.3,0-0.6,0.1-0.8,0.4l0,0l0.6-2.1h1.6v0.5L8.9,439.7L8.9,439.7z
						 M10.8,439.7v-0.5h2.9l-2.5,4.2l-0.4-0.2l2.1-3.5H10.8L10.8,439.7z M14.5,441.2c-0.3-0.2-0.5-0.5-0.5-0.9
						c0-0.7,0.5-1.2,1.2-1.2c0.6,0,1.2,0.5,1.2,1.2c0,0.4-0.2,0.7-0.5,0.9c0.4,0.1,0.6,0.5,0.6,1c0,0.8-0.6,1.2-1.3,1.2
						s-1.3-0.5-1.3-1.2C13.8,441.8,14.1,441.4,14.5,441.2z M14.3,442.2c0,0.4,0.4,0.8,0.8,0.8c0.4,0,0.8-0.4,0.8-0.8
						s-0.4-0.8-0.8-0.8C14.7,441.5,14.3,441.8,14.3,442.2z M14.4,440.3c0,0.3,0.4,0.7,0.7,0.7s0.7-0.4,0.7-0.7
						c0-0.4-0.3-0.7-0.7-0.7S14.4,439.9,14.4,440.3z"/>
				</g>
			</g>
			<g id="g4576">
				<g id="h4576">
					<rect id="b4576" x="0.5" y="427.1" class="st3" width="19.9" height="9.5"/>
					<path id="t4576" class="st2" d="M7.1,433v0.5H6.6v0.6H6.1v-0.6h-2l2.5-3.7v3.3L7.1,433L7.1,433z M6.1,431.3L6.1,431.3L5,433
						h1.2L6.1,431.3L6.1,431.3z M8.9,430.4l-0.3,0.9h0.3c0.8,0,1.3,0.7,1.3,1.5c0,0.9-0.7,1.5-1.5,1.5c-0.5,0-1-0.3-1.2-0.7l0.4-0.4
						c0.1,0.4,0.5,0.6,0.9,0.6c0.5,0,1-0.5,1-1s-0.4-1-1-1c-0.3,0-0.6,0.1-0.8,0.4H7.9l0.6-2.1h1.6v0.5L8.9,430.4L8.9,430.4z
						 M10.7,430.4v-0.5h2.9l-2.5,4.2l-0.4-0.2l2.1-3.5H10.7L10.7,430.4z M15.6,430.1l-1.1,1.5l0,0c0.1-0.1,0.3-0.1,0.4-0.1
						c0.7,0,1.2,0.6,1.2,1.3c0,0.8-0.6,1.4-1.3,1.4s-1.4-0.6-1.4-1.3c0-0.4,0.2-0.8,0.4-1.1l1.4-1.9L15.6,430.1z M15.6,432.9
						c0-0.5-0.4-0.9-0.9-0.9c-0.4,0-0.9,0.4-0.9,0.9s0.4,0.9,0.9,0.9C15.2,433.7,15.6,433.3,15.6,432.9z"/>
				</g>
			</g>
			<g id="g4572">
				<g id="h4572">
					<rect id="b4572" x="0.5" y="417.7" class="st3" width="19.9" height="9.4"/>
					<path id="t4572" class="st2" d="M7.1,423.2v0.5H6.6v0.6H6.2v-0.6h-2l2.5-3.7v3.3L7.1,423.2L7.1,423.2z M6.2,421.5L6.2,421.5
						L5,423.2h1.2V421.5z M8.9,420.6l-0.3,0.9h0.3c0.8,0,1.3,0.7,1.3,1.5c0,0.9-0.7,1.5-1.5,1.5c-0.5,0-1-0.3-1.2-0.7l0.4-0.4
						c0.1,0.4,0.5,0.6,0.9,0.6c0.5,0,1-0.5,1-1s-0.4-1-1-1c-0.3,0-0.6,0.1-0.8,0.4l0,0l0.6-2.1h1.6v0.5L8.9,420.6L8.9,420.6z
						 M10.7,420.6v-0.5h2.9l-2.5,4.2l-0.4-0.2l2.1-3.5H10.7L10.7,420.6z M16.4,423.8v0.5h-2.6l1.8-2.2c0.2-0.2,0.4-0.5,0.4-0.7
						c0-0.4-0.4-0.8-0.8-0.8c-0.4,0-0.8,0.3-0.8,0.8h-0.5c0.1-0.7,0.5-1.2,1.3-1.2c0.7,0,1.3,0.5,1.3,1.2c0,0.3-0.1,0.6-0.3,0.9
						l-1.3,1.7L16.4,423.8L16.4,423.8z"/>
				</g>
			</g>
			<g id="g4570">
				<g id="h4570">
					<rect id="b4570" x="0.5" y="408.4" class="st3" width="19.8" height="9.3"/>
					<path id="t4570" class="st2" d="M7.1,414.3v0.5H6.7v0.6H6.2v-0.6h-2l2.5-3.7v3.3L7.1,414.3L7.1,414.3z M6.2,412.6L6.2,412.6
						L5,414.3h1.2V412.6z M8.9,411.7l-0.3,0.9h0.3c0.8,0,1.3,0.7,1.3,1.4c0,0.9-0.7,1.5-1.5,1.5c-0.5,0-1-0.3-1.2-0.7l0.4-0.4
						c0.1,0.4,0.5,0.6,0.9,0.6c0.6,0,1-0.5,1-1s-0.4-1-1-1c-0.3,0-0.6,0.1-0.8,0.4l0,0l0.6-2.1h1.6v0.5L8.9,411.7L8.9,411.7z
						 M10.8,411.7v-0.5h2.9l-2.5,4.2l-0.4-0.2l2.1-3.5H10.8L10.8,411.7z M13.7,413.3c0-0.9,0.4-2.2,1.4-2.2s1.4,1.3,1.4,2.2
						c0,0.8-0.4,2.2-1.4,2.2S13.7,414.1,13.7,413.3z M14.2,413.3c0,0.6,0.2,1.7,0.9,1.7s0.9-1.1,0.9-1.7s-0.2-1.7-0.9-1.7
						C14.4,411.6,14.2,412.7,14.2,413.3z"/>
				</g>
			</g>
			<g id="g4568">
				<g id="h4568">
					<rect id="b4568" x="0.5" y="398.8" class="st3" width="19.8" height="9.6"/>
					<path id="t4568" class="st2" d="M7,404.7v0.5H6.6v0.6H6.1v-0.6h-2l2.5-3.7v3.3L7,404.7L7,404.7z M6.1,403L6.1,403l-1.2,1.7h1.2
						L6.1,403L6.1,403z M8.9,402.1L8.6,403h0.3c0.8,0,1.3,0.7,1.3,1.5c0,0.9-0.7,1.5-1.5,1.5c-0.5,0-1-0.3-1.2-0.7l0.4-0.4
						c0.1,0.4,0.5,0.6,0.9,0.6c0.5,0,1-0.5,1-1s-0.4-1-1-1c-0.3,0-0.6,0.1-0.8,0.4H7.9l0.6-2.1h1.6v0.5L8.9,402.1L8.9,402.1z
						 M12.9,401.8l-1.1,1.5l0,0c0.1-0.1,0.3-0.1,0.4-0.1c0.7,0,1.2,0.6,1.2,1.3c0,0.8-0.6,1.4-1.3,1.4s-1.4-0.6-1.4-1.3
						c0-0.4,0.2-0.8,0.4-1.1l1.4-1.9L12.9,401.8z M12.9,404.6c0-0.5-0.4-0.9-0.9-0.9c-0.4,0-0.9,0.4-0.9,0.9s0.4,0.9,0.9,0.9
						C12.5,405.4,12.9,405,12.9,404.6z M14.6,403.6c-0.3-0.2-0.5-0.5-0.5-0.9c0-0.7,0.5-1.2,1.2-1.2s1.2,0.5,1.2,1.2
						c0,0.4-0.2,0.7-0.5,0.9c0.4,0.1,0.6,0.5,0.6,1c0,0.8-0.6,1.2-1.3,1.2s-1.3-0.5-1.3-1.2C13.9,404.2,14.1,403.8,14.6,403.6z
						 M14.4,404.6c0,0.4,0.4,0.8,0.8,0.8c0.4,0,0.8-0.4,0.8-0.8s-0.4-0.8-0.8-0.8C14.8,403.8,14.4,404.2,14.4,404.6z M14.5,402.7
						c0,0.3,0.4,0.7,0.7,0.7s0.7-0.4,0.7-0.7c0-0.4-0.3-0.7-0.7-0.7S14.5,402.3,14.5,402.7z"/>
				</g>
			</g>
			<g id="g4566">
				<g id="h4566">
					<rect id="b4566" x="0.5" y="389.3" class="st3" width="19.8" height="9.5"/>
					<path id="t4566" class="st2" d="M7,395.2v0.5H6.6v0.6H6.1v-0.6h-2l2.5-3.7v3.3L7,395.2L7,395.2z M6.1,393.5L6.1,393.5l-1.2,1.7
						h1.2C6.1,395.2,6.1,393.5,6.1,393.5z M8.9,392.5l-0.3,0.9h0.3c0.8,0,1.3,0.7,1.3,1.5c0,0.9-0.7,1.5-1.5,1.5
						c-0.5,0-1-0.3-1.2-0.7l0.4-0.4c0.1,0.4,0.5,0.6,0.9,0.6c0.5,0,1-0.5,1-1s-0.4-1-1-1c-0.3,0-0.6,0.1-0.8,0.4H7.9l0.6-2.1h1.6
						v0.5L8.9,392.5L8.9,392.5z M12.9,392.2l-1.1,1.5l0,0c0.1-0.1,0.3-0.1,0.4-0.1c0.7,0,1.2,0.6,1.2,1.3c0,0.8-0.6,1.4-1.3,1.4
						s-1.4-0.6-1.4-1.3c0-0.4,0.2-0.8,0.4-1.1l1.4-1.9L12.9,392.2z M12.9,395c0-0.5-0.4-0.9-0.9-0.9c-0.4,0-0.9,0.4-0.9,0.9
						s0.4,0.9,0.9,0.9C12.5,395.8,12.9,395.5,12.9,395z M16.1,392.2l-1.1,1.5l0,0c0.1-0.1,0.3-0.1,0.4-0.1c0.7,0,1.2,0.6,1.2,1.3
						c0,0.8-0.6,1.4-1.3,1.4s-1.4-0.6-1.4-1.3c0-0.4,0.2-0.8,0.4-1.1l1.4-1.9L16.1,392.2z M16.1,395c0-0.5-0.4-0.9-0.9-0.9
						c-0.4,0-0.9,0.4-0.9,0.9s0.4,0.9,0.9,0.9C15.7,395.8,16.1,395.5,16.1,395z"/>
				</g>
			</g>
			<g id="g4562">
				<g id="h4562">
					<rect id="b4562" x="0.5" y="379.7" class="st3" width="19.8" height="9.6"/>
					<path id="t4562" class="st2" d="M7.1,385.6v0.5H6.7v0.6H6.2V386h-2l2.5-3.7v3.3L7.1,385.6L7.1,385.6z M6.2,383.9L6.2,383.9
						L5,385.6h1.2V383.9z M9,383l-0.3,0.9H9c0.8,0,1.3,0.7,1.3,1.5c0,0.9-0.7,1.5-1.5,1.5c-0.5,0-1-0.3-1.2-0.7l0.4-0.4
						c0.1,0.4,0.5,0.6,0.9,0.6c0.5,0,1-0.5,1-1s-0.4-1-1-1c-0.3,0-0.6,0.1-0.8,0.4H8l0.6-2.1h1.6v0.5L9,383L9,383z M13,382.7
						l-1.1,1.5l0,0c0.1-0.1,0.3-0.1,0.4-0.1c0.7,0,1.2,0.6,1.2,1.3c0,0.8-0.6,1.4-1.3,1.4s-1.4-0.6-1.4-1.3c0-0.4,0.2-0.8,0.4-1.1
						l1.4-1.9L13,382.7z M13,385.4c0-0.5-0.4-0.9-0.9-0.9c-0.4,0-0.9,0.4-0.9,0.9s0.4,0.9,0.9,0.9S13,385.9,13,385.4z M16.4,386.2
						v0.5h-2.6l1.8-2.2c0.2-0.2,0.4-0.5,0.4-0.7c0-0.4-0.4-0.8-0.8-0.8c-0.4,0-0.8,0.3-0.8,0.8h-0.5c0.1-0.7,0.5-1.2,1.3-1.2
						c0.7,0,1.3,0.5,1.3,1.2c0,0.3-0.1,0.6-0.3,0.9l-1.3,1.7L16.4,386.2L16.4,386.2z"/>
				</g>
			</g>
			<g id="g4560">
				<g id="h4560">
					<rect id="b4560" x="0.5" y="370.4" class="st3" width="19.8" height="9.3"/>
					<path id="t4560" class="st2" d="M7,376v0.5H6.6v0.6H6.1v-0.6h-2l2.5-3.7v3.3L7,376L7,376z M6.1,374.3L6.1,374.3L4.9,376h1.2
						L6.1,374.3L6.1,374.3z M8.8,373.4l-0.3,0.9h0.3c0.8,0,1.3,0.7,1.3,1.5c0,0.9-0.7,1.5-1.5,1.5c-0.5,0-1-0.3-1.2-0.7l0.4-0.4
						c0.1,0.4,0.5,0.6,0.9,0.6c0.6,0,1-0.5,1-1s-0.4-1-1-1c-0.3,0-0.6,0.1-0.8,0.4h0l0.6-2.1h1.6v0.5L8.8,373.4L8.8,373.4z
						 M12.9,373.1l-1.1,1.5l0,0c0.1-0.1,0.3-0.1,0.4-0.1c0.7,0,1.2,0.6,1.2,1.3c0,0.8-0.6,1.4-1.3,1.4s-1.4-0.6-1.4-1.3
						c0-0.4,0.2-0.8,0.4-1.1l1.4-1.9L12.9,373.1z M12.9,375.9c0-0.5-0.4-0.9-0.9-0.9c-0.4,0-0.9,0.4-0.9,0.9s0.4,0.9,0.9,0.9
						C12.5,376.7,12.9,376.3,12.9,375.9z M13.8,375c0-0.9,0.4-2.2,1.4-2.2s1.4,1.3,1.4,2.2c0,0.8-0.4,2.2-1.4,2.2
						S13.8,375.9,13.8,375z M14.3,375c0,0.6,0.2,1.7,0.9,1.7s0.9-1.1,0.9-1.7s-0.2-1.7-0.9-1.7C14.5,373.3,14.3,374.4,14.3,375z"/>
				</g>
			</g>
			<g id="g4558">
				<g id="h4558">
					<rect id="b4558" x="0.5" y="360.9" class="st3" width="19.8" height="9.6"/>
					<path id="t4558" class="st2" d="M7.1,366.5v0.5H6.6v0.6H6.1V367h-2l2.5-3.7v3.3L7.1,366.5L7.1,366.5z M6.1,364.8L6.1,364.8
						L5,366.5h1.2L6.1,364.8L6.1,364.8z M8.9,363.9l-0.3,0.9h0.3c0.8,0,1.3,0.7,1.3,1.5c0,0.9-0.7,1.5-1.5,1.5c-0.5,0-1-0.3-1.2-0.7
						l0.4-0.4c0.1,0.4,0.5,0.6,0.9,0.6c0.5,0,1-0.5,1-1s-0.4-1-1-1c-0.3,0-0.6,0.1-0.8,0.4H7.9l0.6-2.1h1.6v0.5L8.9,363.9L8.9,363.9
						z M12,363.9l-0.3,0.9H12c0.8,0,1.3,0.7,1.3,1.5c0,0.9-0.7,1.5-1.5,1.5c-0.5,0-1-0.3-1.2-0.7l0.4-0.4c0.1,0.4,0.5,0.6,0.9,0.6
						c0.5,0,1-0.5,1-1s-0.4-1-1-1c-0.3,0-0.6,0.1-0.8,0.4H11l0.6-2.1h1.6v0.5L12,363.9L12,363.9z M14.5,365.4
						c-0.3-0.2-0.5-0.5-0.5-0.9c0-0.7,0.5-1.2,1.2-1.2s1.2,0.5,1.2,1.2c0,0.4-0.2,0.7-0.5,0.9c0.4,0.1,0.6,0.5,0.6,1
						c0,0.8-0.6,1.2-1.3,1.2s-1.3-0.5-1.3-1.2C13.9,365.9,14.1,365.5,14.5,365.4z M14.4,366.4c0,0.4,0.4,0.8,0.8,0.8
						c0.4,0,0.8-0.4,0.8-0.8s-0.4-0.8-0.8-0.8C14.8,365.6,14.4,365.9,14.4,366.4z M14.5,364.4c0,0.3,0.4,0.7,0.7,0.7
						s0.7-0.4,0.7-0.7c0-0.4-0.3-0.7-0.7-0.7C14.8,363.7,14.5,364,14.5,364.4z"/>
				</g>
			</g>
			<g id="g4556">
				<g id="h4556">
					<rect id="b4556" x="0.5" y="351.5" class="st3" width="19.8" height="9.4"/>
					<path id="t4556" class="st2" d="M7,357.2v0.5H6.6v0.6H6.1v-0.6h-2l2.5-3.7v3.3L7,357.2L7,357.2z M6.1,355.5L6.1,355.5l-1.2,1.7
						h1.2L6.1,355.5L6.1,355.5z M8.9,354.6l-0.3,0.9h0.3c0.8,0,1.3,0.7,1.3,1.5c0,0.9-0.7,1.5-1.5,1.5c-0.5,0-1-0.3-1.2-0.7l0.4-0.4
						c0.1,0.4,0.5,0.6,0.9,0.6c0.5,0,1-0.5,1-1s-0.4-1-1-1c-0.3,0-0.6,0.1-0.8,0.4H7.9l0.6-2.1h1.6v0.5L8.9,354.6L8.9,354.6z
						 M12,354.6l-0.3,0.9H12c0.8,0,1.3,0.7,1.3,1.5c0,0.9-0.7,1.5-1.5,1.5c-0.5,0-1-0.3-1.2-0.7l0.4-0.4c0.1,0.4,0.5,0.6,0.9,0.6
						c0.5,0,1-0.5,1-1s-0.4-1-1-1c-0.3,0-0.6,0.1-0.8,0.4H11l0.6-2.1h1.6v0.5L12,354.6L12,354.6z M16,354.3l-1.1,1.5l0,0
						c0.1-0.1,0.3-0.1,0.4-0.1c0.7,0,1.2,0.6,1.2,1.3c0,0.8-0.6,1.4-1.3,1.4s-1.4-0.6-1.4-1.3c0-0.4,0.2-0.8,0.4-1.1l1.4-1.9
						L16,354.3z M16,357c0-0.5-0.4-0.9-0.9-0.9c-0.4,0-0.9,0.4-0.9,0.9s0.4,0.9,0.9,0.9S16,357.5,16,357z"/>
				</g>
			</g>
			<g id="g4538">
				<g id="h4538">
					<polygon id="b4538" class="st3" points="0.5,332.3 20.3,332.3 20.3,322.9 0.5,322.9 					"/>
					<path id="t4538" class="st2" d="M7,328.7v0.5H6.6v0.6H6.1v-0.6h-2l2.5-3.7v3.3L7,328.7L7,328.7z M6.1,327L6.1,327l-1.2,1.7h1.2
						C6.1,328.7,6.1,327,6.1,327z M8.9,326.1L8.6,327h0.3c0.8,0,1.3,0.7,1.3,1.5c0,0.9-0.7,1.5-1.5,1.5c-0.5,0-1-0.3-1.2-0.7
						l0.4-0.4c0.1,0.4,0.5,0.6,0.9,0.6c0.5,0,1-0.5,1-1s-0.4-1-1-1c-0.3,0-0.6,0.1-0.8,0.4H7.9l0.6-2.1h1.6v0.5L8.9,326.1L8.9,326.1
						z M11.9,327.3c0.4,0,0.8-0.2,0.8-0.7c0-0.4-0.3-0.7-0.7-0.7s-0.6,0.2-0.7,0.6h-0.5c0.1-0.7,0.5-1,1.2-1c0.6,0,1.2,0.4,1.2,1.1
						c0,0.4-0.2,0.7-0.5,0.9c0.4,0.2,0.6,0.6,0.6,1c0,0.8-0.6,1.2-1.3,1.2c-0.6,0-1.2-0.4-1.2-1.1h0.5c0,0.4,0.4,0.7,0.8,0.7
						c0.5,0,0.8-0.4,0.8-0.8c0-0.5-0.4-0.8-0.9-0.8L11.9,327.3L11.9,327.3z M14.6,327.6c-0.3-0.2-0.5-0.5-0.5-0.9
						c0-0.7,0.5-1.2,1.2-1.2s1.2,0.5,1.2,1.2c0,0.4-0.2,0.7-0.5,0.9c0.4,0.1,0.6,0.5,0.6,1c0,0.8-0.6,1.2-1.3,1.2s-1.3-0.5-1.3-1.2
						C13.9,328.1,14.1,327.7,14.6,327.6z M14.4,328.6c0,0.4,0.4,0.8,0.8,0.8s0.8-0.4,0.8-0.8s-0.4-0.8-0.8-0.8
						S14.4,328.1,14.4,328.6z M14.5,326.6c0,0.3,0.4,0.7,0.7,0.7s0.7-0.4,0.7-0.7c0-0.4-0.3-0.7-0.7-0.7S14.5,326.3,14.5,326.6z"/>
				</g>
			</g>
			<g id="g4536">
				<g id="h4536">
					<polygon id="b4536" class="st3" points="0.5,322.9 20.3,322.9 20.3,313.6 0.5,313.6 					"/>
					<path id="t4536" class="st2" d="M7.1,319.2v0.5H6.7v0.6H6.2v-0.6h-2l2.5-3.7v3.3L7.1,319.2L7.1,319.2z M6.2,317.5L6.2,317.5
						L5,319.2h1.2V317.5z M8.9,316.6l-0.3,0.9h0.3c0.8,0,1.3,0.7,1.3,1.5c0,0.9-0.7,1.5-1.5,1.5c-0.5,0-1-0.3-1.2-0.7l0.4-0.4
						c0.1,0.4,0.5,0.6,0.9,0.6c0.5,0,1-0.5,1-1s-0.4-1-1-1c-0.3,0-0.6,0.1-0.8,0.4l0,0l0.6-2.1h1.6v0.5L8.9,316.6L8.9,316.6z
						 M12,317.8c0.4,0,0.8-0.2,0.8-0.7c0-0.4-0.3-0.7-0.7-0.7s-0.6,0.2-0.7,0.6h-0.5c0.1-0.7,0.5-1,1.2-1c0.6,0,1.2,0.4,1.2,1.1
						c0,0.4-0.2,0.7-0.5,0.9c0.4,0.2,0.6,0.6,0.6,1c0,0.8-0.6,1.2-1.3,1.2c-0.6,0-1.2-0.4-1.2-1.1h0.5c0,0.4,0.4,0.7,0.8,0.7
						c0.5,0,0.8-0.4,0.8-0.8c0-0.5-0.4-0.8-0.9-0.8L12,317.8L12,317.8z M16.1,316.3l-1.1,1.5l0,0c0.1-0.1,0.3-0.1,0.4-0.1
						c0.7,0,1.2,0.6,1.2,1.3c0,0.8-0.6,1.4-1.3,1.4s-1.4-0.6-1.4-1.3c0-0.4,0.2-0.8,0.4-1.1l1.4-1.9L16.1,316.3z M16.1,319
						c0-0.5-0.4-0.9-0.9-0.9c-0.4,0-0.9,0.4-0.9,0.9s0.4,0.9,0.9,0.9C15.7,319.9,16.1,319.5,16.1,319z"/>
				</g>
			</g>
			<g id="g4532">
				<g id="h4532">
					<polygon id="b4532" class="st3" points="20.3,313.6 20.3,304.1 0.5,304.1 0.5,313.6 					"/>
					<path id="t4532" class="st2" d="M7.1,309.9v0.5H6.6v0.6H6.2v-0.6h-2l2.5-3.7v3.3L7.1,309.9L7.1,309.9z M6.2,308.2L6.2,308.2
						L5,309.9h1.2V308.2z M8.9,307.3l-0.3,0.9h0.3c0.8,0,1.3,0.7,1.3,1.5c0,0.9-0.7,1.5-1.5,1.5c-0.5,0-1-0.3-1.2-0.7l0.4-0.4
						c0.1,0.4,0.5,0.6,0.9,0.6c0.5,0,1-0.5,1-1s-0.4-1-1-1c-0.3,0-0.6,0.1-0.8,0.4H7.9l0.6-2.1h1.6v0.5L8.9,307.3L8.9,307.3z
						 M12,308.5c0.4,0,0.8-0.2,0.8-0.7c0-0.4-0.3-0.7-0.7-0.7s-0.6,0.2-0.7,0.6h-0.5c0.1-0.7,0.5-1,1.2-1c0.6,0,1.2,0.4,1.2,1.1
						c0,0.4-0.2,0.7-0.5,0.9c0.4,0.2,0.6,0.6,0.6,1c0,0.8-0.6,1.2-1.3,1.2c-0.6,0-1.2-0.4-1.2-1.1h0.5c0,0.4,0.4,0.7,0.8,0.7
						c0.5,0,0.8-0.4,0.8-0.8c0-0.5-0.4-0.8-0.9-0.8L12,308.5L12,308.5L12,308.5z M16.4,310.5v0.5h-2.6l1.8-2.2
						c0.2-0.2,0.4-0.5,0.4-0.7c0-0.4-0.4-0.8-0.8-0.8c-0.4,0-0.8,0.3-0.8,0.8h-0.5c0.1-0.7,0.5-1.2,1.3-1.2c0.7,0,1.3,0.5,1.3,1.2
						c0,0.3-0.1,0.6-0.3,0.9l-1.3,1.7L16.4,310.5L16.4,310.5z"/>
				</g>
			</g>
			<g id="g4530">
				<g id="h4530">
					<polygon id="b4530" class="st3" points="20.3,294.5 0.5,294.5 0.5,304.1 20.3,304.1 					"/>
					<path id="t4530" class="st2" d="M7,300.3v0.5H6.6v0.6H6.1v-0.6h-2l2.5-3.7v3.3L7,300.3L7,300.3z M6.1,298.6L6.1,298.6l-1.2,1.7
						h1.2C6.1,300.3,6.1,298.6,6.1,298.6z M8.8,297.7l-0.3,0.9h0.3c0.8,0,1.3,0.7,1.3,1.5c0,0.9-0.7,1.5-1.5,1.5
						c-0.5,0-1-0.3-1.2-0.7l0.4-0.4c0.1,0.4,0.5,0.6,0.9,0.6c0.6,0,1-0.5,1-1s-0.4-1-1-1c-0.3,0-0.6,0.1-0.8,0.4h0l0.6-2.1h1.6v0.5
						L8.8,297.7L8.8,297.7z M11.9,298.9c0.4,0,0.8-0.2,0.8-0.7c0-0.4-0.3-0.7-0.7-0.7s-0.6,0.2-0.7,0.6h-0.5c0.1-0.7,0.5-1,1.2-1
						c0.6,0,1.2,0.4,1.2,1.1c0,0.4-0.2,0.7-0.5,0.9c0.4,0.2,0.6,0.6,0.6,1c0,0.8-0.6,1.2-1.3,1.2c-0.6,0-1.2-0.4-1.2-1.1h0.5
						c0,0.4,0.4,0.7,0.8,0.7c0.5,0,0.8-0.4,0.8-0.8c0-0.5-0.4-0.8-0.9-0.8L11.9,298.9L11.9,298.9L11.9,298.9z M13.8,299.3
						c0-0.9,0.4-2.2,1.4-2.2s1.4,1.3,1.4,2.2c0,0.8-0.4,2.2-1.4,2.2S13.8,300.1,13.8,299.3z M14.3,299.3c0,0.6,0.2,1.7,0.9,1.7
						s0.9-1.1,0.9-1.7s-0.2-1.7-0.9-1.7C14.5,297.5,14.3,298.7,14.3,299.3z"/>
				</g>
			</g>
			<g id="g4528">
				<g id="h4528">
					<polygon id="b4528" class="st3" points="20.3,284.9 0.5,284.9 0.5,294.5 20.3,294.5 					"/>
					<path id="t4528" class="st2" d="M7.1,290.7v0.5H6.7v0.6H6.2v-0.6h-2l2.5-3.7v3.3L7.1,290.7L7.1,290.7z M6.2,289L6.2,289
						L5,290.7h1.2V289z M9,288.1L8.7,289H9c0.8,0,1.3,0.7,1.3,1.5c0,0.9-0.7,1.5-1.5,1.5c-0.5,0-1-0.3-1.2-0.7l0.4-0.4
						c0.1,0.4,0.5,0.6,0.9,0.6c0.6,0,1-0.5,1-1s-0.4-1-1-1c-0.3,0-0.6,0.1-0.8,0.4H8l0.6-2.1h1.6v0.5L9,288.1L9,288.1z M13.3,291.2
						v0.5h-2.6l1.8-2.2c0.2-0.2,0.4-0.5,0.4-0.7c0-0.4-0.4-0.8-0.8-0.8c-0.4,0-0.8,0.3-0.8,0.8h-0.5c0.1-0.7,0.5-1.2,1.3-1.2
						c0.7,0,1.3,0.5,1.3,1.2c0,0.3-0.1,0.6-0.3,0.9l-1.3,1.7L13.3,291.2L13.3,291.2z M14.5,289.6c-0.3-0.2-0.5-0.5-0.5-0.9
						c0-0.7,0.5-1.2,1.2-1.2s1.2,0.5,1.2,1.2c0,0.4-0.2,0.7-0.5,0.9c0.4,0.1,0.6,0.5,0.6,1c0,0.8-0.6,1.2-1.3,1.2s-1.3-0.5-1.3-1.2
						C13.8,290.1,14,289.7,14.5,289.6z M14.3,290.6c0,0.4,0.4,0.8,0.8,0.8c0.4,0,0.8-0.4,0.8-0.8s-0.4-0.8-0.8-0.8
						C14.7,289.8,14.3,290.1,14.3,290.6z M14.4,288.6c0,0.3,0.4,0.7,0.7,0.7s0.7-0.4,0.7-0.7c0-0.4-0.3-0.7-0.7-0.7
						S14.4,288.2,14.4,288.6z"/>
				</g>
			</g>
			<g id="g4526">
				<g id="h4526">
					<polygon id="b4526" class="st3" points="20.3,275.1 0.5,275.1 0.5,284.9 20.3,284.9 					"/>
					<path id="t4526" class="st2" d="M7.2,281.1v0.5H6.7v0.6H6.2v-0.6h-2l2.5-3.7v3.3L7.2,281.1L7.2,281.1z M6.2,279.4L6.2,279.4
						L5,281.1h1.2V279.4z M9,278.5l-0.3,0.9H9c0.8,0,1.3,0.7,1.3,1.5c0,0.9-0.7,1.5-1.5,1.5c-0.5,0-1-0.3-1.2-0.7l0.4-0.4
						c0.1,0.4,0.5,0.6,0.9,0.6c0.5,0,1-0.5,1-1s-0.4-1-1-1c-0.3,0-0.6,0.1-0.8,0.4H8l0.6-2.1h1.6v0.5L9,278.5L9,278.5z M13.3,281.7
						v0.5h-2.6l1.8-2.2c0.2-0.2,0.4-0.5,0.4-0.7c0-0.4-0.4-0.8-0.8-0.8c-0.4,0-0.8,0.3-0.8,0.8h-0.5c0.1-0.7,0.6-1.2,1.3-1.2
						s1.3,0.5,1.3,1.2c0,0.3-0.1,0.6-0.3,0.9l-1.3,1.7L13.3,281.7L13.3,281.7z M15.9,278.2l-1.1,1.5l0,0c0.1-0.1,0.3-0.1,0.4-0.1
						c0.7,0,1.2,0.6,1.2,1.3c0,0.8-0.6,1.4-1.3,1.4s-1.4-0.6-1.4-1.3c0-0.4,0.2-0.8,0.4-1.1l1.4-1.9L15.9,278.2z M15.9,281
						c0-0.5-0.4-0.9-0.9-0.9c-0.4,0-0.9,0.4-0.9,0.9s0.4,0.9,0.9,0.9C15.5,281.8,15.9,281.4,15.9,281z"/>
				</g>
			</g>
			<g id="g4522">
				<g id="h4522">
					<polygon id="b4522" class="st3" points="20.3,265.6 0.5,265.6 0.5,275.1 20.3,275.1 					"/>
					<path id="t4522" class="st2" d="M7.1,271.3v0.5H6.7v0.6H6.2v-0.6h-2l2.5-3.7v3.3L7.1,271.3L7.1,271.3z M6.2,269.6L6.2,269.6
						L5,271.3h1.2V269.6z M8.9,268.6l-0.3,0.9h0.3c0.8,0,1.3,0.7,1.3,1.5c0,0.9-0.7,1.5-1.5,1.5c-0.5,0-1-0.3-1.2-0.7l0.4-0.4
						c0.1,0.4,0.5,0.6,0.9,0.6c0.5,0,1-0.5,1-1s-0.4-1-1-1c-0.3,0-0.6,0.1-0.8,0.4l0,0l0.6-2.1h1.6v0.5L8.9,268.6L8.9,268.6z
						 M13.3,271.8v0.5h-2.6l1.8-2.2c0.2-0.2,0.4-0.5,0.4-0.7c0-0.4-0.4-0.8-0.8-0.8c-0.4,0-0.8,0.3-0.8,0.8h-0.5
						c0.1-0.7,0.6-1.2,1.3-1.2s1.3,0.5,1.3,1.2c0,0.3-0.1,0.6-0.3,0.9l-1.3,1.7L13.3,271.8L13.3,271.8z M16.4,271.8v0.5h-2.6
						l1.8-2.2c0.2-0.2,0.4-0.5,0.4-0.7c0-0.4-0.4-0.8-0.8-0.8c-0.4,0-0.8,0.3-0.8,0.8h-0.5c0.1-0.7,0.5-1.2,1.3-1.2
						c0.7,0,1.3,0.5,1.3,1.2c0,0.3-0.1,0.6-0.3,0.9l-1.3,1.7L16.4,271.8L16.4,271.8z"/>
				</g>
			</g>
			<g id="g4520">
				<g id="h4520">
					<polygon id="b4520" class="st3" points="20.3,255.7 0.5,255.7 0.5,265.6 20.3,265.6 					"/>
					<path id="t4520" class="st2" d="M7.2,261.2v0.5H6.8v0.6H6.3v-0.6h-2l2.5-3.7v3.3L7.2,261.2L7.2,261.2z M6.3,259.5L6.3,259.5
						l-1.2,1.7h1.2V259.5L6.3,259.5z M9.1,258.6l-0.3,0.9h0.3c0.8,0,1.3,0.7,1.3,1.5c0,0.9-0.7,1.5-1.5,1.5c-0.5,0-1-0.3-1.2-0.7
						l0.4-0.4c0.1,0.4,0.5,0.6,0.9,0.6c0.5,0,1-0.5,1-1s-0.4-1-1-1c-0.3,0-0.6,0.1-0.8,0.4H8.1l0.6-2.1h1.6v0.5L9.1,258.6L9.1,258.6
						z M13.4,261.8v0.5h-2.6l1.8-2.2c0.2-0.2,0.4-0.5,0.4-0.7c0-0.4-0.4-0.8-0.8-0.8c-0.4,0-0.8,0.3-0.8,0.8h-0.5
						c0.1-0.7,0.5-1.2,1.3-1.2c0.7,0,1.3,0.5,1.3,1.2c0,0.3-0.1,0.6-0.3,0.9l-1.3,1.7L13.4,261.8L13.4,261.8z M13.8,260.2
						c0-0.9,0.4-2.2,1.4-2.2s1.4,1.3,1.4,2.2c0,0.8-0.4,2.2-1.4,2.2S13.8,261.1,13.8,260.2z M14.3,260.2c0,0.6,0.2,1.7,0.9,1.7
						s0.9-1.1,0.9-1.7s-0.2-1.7-0.9-1.7S14.3,259.7,14.3,260.2z"/>
				</g>
			</g>
			<g id="g4518">
				<g id="h4518">
					<polygon id="b4518" class="st3" points="20.3,245.6 0.5,245.6 0.5,255.7 20.3,255.7 					"/>
					<path id="t4518" class="st2" d="M7.3,251.7v0.5H6.9v0.6H6.4v-0.6h-2l2.5-3.7v3.3h0.4V251.7z M6.4,250L6.4,250l-1.2,1.7h1.2
						C6.4,251.7,6.4,250,6.4,250z M9.2,249.1L8.9,250h0.3c0.8,0,1.3,0.7,1.3,1.4c0,0.9-0.7,1.5-1.5,1.5c-0.5,0-1-0.3-1.2-0.7
						l0.4-0.4c0.1,0.4,0.5,0.6,0.9,0.6c0.5,0,1-0.5,1-1s-0.4-1-1-1c-0.3,0-0.6,0.1-0.8,0.4H8.2l0.6-2.1h1.6v0.5L9.2,249.1L9.2,249.1
						z M11.2,249.1l0.3-0.5h0.9v4.1h-0.5V249L11.2,249.1L11.2,249.1z M14.3,250.6c-0.3-0.2-0.5-0.5-0.5-0.9c0-0.7,0.5-1.2,1.2-1.2
						s1.2,0.5,1.2,1.2c0,0.4-0.2,0.7-0.5,0.9c0.4,0.1,0.6,0.5,0.6,1c0,0.8-0.6,1.2-1.3,1.2s-1.3-0.5-1.3-1.2
						C13.6,251.1,13.8,250.7,14.3,250.6z M14.1,251.6c0,0.4,0.4,0.8,0.8,0.8c0.4,0,0.8-0.4,0.8-0.8c0-0.4-0.4-0.8-0.8-0.8
						S14.1,251.1,14.1,251.6z M14.2,249.7c0,0.3,0.4,0.7,0.7,0.7s0.7-0.4,0.7-0.7c0-0.4-0.3-0.7-0.7-0.7S14.2,249.3,14.2,249.7z"/>
				</g>
			</g>
		</g>
	</g>
	<g id="gDeck04SailAwayInsideIX">
		<g id="hDeck04SailAwayInsideIX">
			<g id="g4493">
				<g id="h4493">
					<polygon id="b4493" class="st3" points="40.7,134.4 40.6,157.2 50.8,157.1 50.8,134.4 					"/>
					<path id="t4493" class="st2" d="M47,149.1h0.5v0.5h0.6v0.5h-0.6v2l-3.7-2.5H47V149.1z M45.3,150L45.3,150l1.7,1.2V150H45.3
						L45.3,150z M47,145.8h0.5v0.5h0.6v0.5h-0.6v2l-3.7-2.5H47V145.8z M45.3,146.7L45.3,146.7l1.7,1.2v-1.2H45.3L45.3,146.7z
						 M47.9,144.9l-1.5-1.1l0,0c0.1,0.1,0.1,0.3,0.1,0.4c0,0.7-0.6,1.2-1.3,1.2c-0.8,0-1.4-0.6-1.4-1.3s0.6-1.4,1.3-1.4
						c0.4,0,0.8,0.2,1.1,0.4l1.9,1.4L47.9,144.9z M45.2,143.2c-0.4,0-0.9,0.4-0.9,0.8c0,0.5,0.4,0.9,0.9,0.9s0.9-0.4,0.9-0.9
						C46,143.6,45.6,143.2,45.2,143.2z M45.6,141.1c0-0.4-0.2-0.8-0.7-0.8c-0.4,0-0.7,0.3-0.7,0.7s0.2,0.6,0.6,0.7v0.5
						c-0.7-0.1-1-0.5-1-1.2c0-0.6,0.4-1.2,1.1-1.2c0.4,0,0.7,0.2,0.9,0.5c0.2-0.4,0.6-0.6,1-0.6c0.8,0,1.2,0.6,1.2,1.3
						c0,0.6-0.4,1.2-1.1,1.2v-0.5c0.4,0,0.7-0.4,0.7-0.8c0-0.5-0.4-0.8-0.8-0.8c-0.5,0-0.8,0.4-0.8,0.9L45.6,141.1L45.6,141.1z"/>
				</g>
			</g>
		</g>
	</g>
	<g id="gDeck04FamilyOceanviewO4">
		<g id="hDeck04FamilyOceanviewO4">
			<g id="g4552">
				<g id="h4552">
					<polygon id="b4552" class="st3" points="20.3,351.3 20.3,341.9 0.5,341.9 0.5,351.3 					"/>
					<path id="t4552" class="st2" d="M7.1,347.6v0.5H6.7v0.6H6.2v-0.6h-2l2.5-3.7v3.3L7.1,347.6L7.1,347.6z M6.2,345.9L6.2,345.9
						L5,347.6h1.2V345.9z M8.9,345l-0.3,0.9h0.3c0.8,0,1.3,0.7,1.3,1.5c0,0.9-0.7,1.5-1.5,1.5c-0.5,0-1-0.3-1.2-0.7l0.4-0.4
						c0.1,0.4,0.5,0.6,0.9,0.6c0.5,0,1-0.5,1-1s-0.4-1-1-1c-0.3,0-0.6,0.1-0.8,0.4l0,0l0.6-2.1h1.6v0.5L8.9,345L8.9,345z M12.1,345
						l-0.3,0.9h0.3c0.8,0,1.3,0.7,1.3,1.5c0,0.9-0.7,1.5-1.5,1.5c-0.5,0-1-0.3-1.2-0.7l0.4-0.4c0.1,0.4,0.5,0.6,0.9,0.6
						c0.6,0,1-0.5,1-1s-0.4-1-1-1c-0.3,0-0.6,0.1-0.8,0.4h-0.1l0.6-2.1h1.6v0.5L12.1,345L12.1,345z M16.4,348.2v0.5h-2.6l1.8-2.2
						c0.2-0.2,0.4-0.5,0.4-0.7c0-0.4-0.4-0.8-0.8-0.8c-0.4,0-0.8,0.3-0.8,0.8h-0.5c0.1-0.7,0.5-1.2,1.3-1.2c0.7,0,1.3,0.5,1.3,1.2
						c0,0.3-0.1,0.6-0.3,0.9l-1.3,1.7L16.4,348.2L16.4,348.2z"/>
				</g>
			</g>
			<g id="g4550">
				<g id="h4550">
					<polygon id="b4550" class="st3" points="20.3,332.3 0.5,332.3 0.5,341.9 20.3,341.9 					"/>
					<path id="t4550" class="st2" d="M7,338.2v0.5H6.6v0.6H6.1v-0.6h-2l2.5-3.7v3.3L7,338.2L7,338.2z M6.1,336.5L6.1,336.5l-1.2,1.7
						h1.2L6.1,336.5L6.1,336.5z M8.9,335.6l-0.3,0.9h0.3c0.8,0,1.3,0.7,1.3,1.5c0,0.9-0.7,1.5-1.5,1.5c-0.5,0-1-0.3-1.2-0.7l0.4-0.4
						c0.1,0.4,0.5,0.6,0.9,0.6c0.5,0,1-0.5,1-1s-0.4-1-1-1c-0.3,0-0.6,0.1-0.8,0.4H7.9l0.6-2.1h1.6v0.5L8.9,335.6L8.9,335.6z
						 M12,335.6l-0.3,0.9H12c0.8,0,1.3,0.7,1.3,1.5c0,0.9-0.7,1.5-1.5,1.5c-0.5,0-1-0.3-1.2-0.7l0.4-0.4c0.1,0.4,0.5,0.6,0.9,0.6
						c0.5,0,1-0.5,1-1s-0.4-1-1-1c-0.3,0-0.6,0.1-0.8,0.4H11l0.6-2.1h1.6v0.5L12,335.6L12,335.6z M13.8,337.2c0-0.9,0.4-2.2,1.4-2.2
						s1.4,1.3,1.4,2.2c0,0.8-0.4,2.2-1.4,2.2S13.8,338,13.8,337.2z M14.3,337.2c0,0.6,0.2,1.7,0.9,1.7s0.9-1.1,0.9-1.7
						s-0.2-1.7-0.9-1.7S14.3,336.6,14.3,337.2z"/>
				</g>
			</g>
			<g id="g4516">
				<g id="h4516">
					<polygon id="b4516" class="st3" points="0.5,245.6 20.3,245.6 20.3,235.9 0.5,235.9 					"/>
					<path id="t4516" class="st2" d="M7.1,241.5v0.5H6.7v0.6H6.2V242h-2l2.5-3.7v3.3h0.4V241.5z M6.2,239.8L6.2,239.8L5,241.5h1.2
						V239.8L6.2,239.8z M9,238.9l-0.3,0.9H9c0.8,0,1.3,0.7,1.3,1.4c0,0.9-0.7,1.5-1.5,1.5c-0.5,0-1-0.3-1.2-0.7l0.4-0.4
						c0.1,0.4,0.5,0.6,0.9,0.6c0.5,0,1-0.5,1-1s-0.4-1-1-1c-0.3,0-0.6,0.1-0.8,0.4H8l0.6-2.1h1.6v0.5L9,238.9L9,238.9z M11,238.9
						l0.3-0.5h0.9v4.1h-0.5v-3.7L11,238.9L11,238.9z M15.5,238.6l-1.1,1.5l0,0c0.1-0.1,0.3-0.1,0.4-0.1c0.7,0,1.2,0.6,1.2,1.3
						c0,0.8-0.6,1.4-1.3,1.4s-1.4-0.6-1.4-1.3c0-0.4,0.2-0.8,0.4-1.1l1.4-1.9L15.5,238.6z M15.5,241.4c0-0.5-0.4-0.9-0.9-0.9
						c-0.4,0-0.9,0.4-0.9,0.9s0.4,0.9,0.9,0.9C15.1,242.2,15.5,241.8,15.5,241.4z"/>
				</g>
			</g>
			<g id="g4512">
				<g id="h4512">
					<polygon id="b4512" class="st3" points="0.5,235.9 20.3,235.9 20.3,226.3 0.5,226.3 					"/>
					<path id="t4512" class="st2" d="M7.2,232.1v0.5H6.7v0.6H6.2v-0.6h-2l2.5-3.7v3.3h0.5V232.1z M6.2,230.4L6.2,230.4L5,232.1h1.2
						V230.4L6.2,230.4z M9,229.5l-0.3,0.9H9c0.8,0,1.3,0.7,1.3,1.4c0,0.9-0.7,1.5-1.5,1.5c-0.5,0-1-0.3-1.2-0.7l0.4-0.4
						c0.1,0.4,0.5,0.6,0.9,0.6c0.5,0,1-0.5,1-1s-0.4-1-1-1c-0.3,0-0.6,0.1-0.8,0.4H8l0.6-2.1h1.6v0.5L9,229.5L9,229.5z M11,229.5
						l0.3-0.5h0.9v4.1h-0.5v-3.7L11,229.5L11,229.5z M15.9,232.7v0.5h-2.6l1.8-2.2c0.2-0.2,0.4-0.5,0.4-0.7c0-0.4-0.4-0.8-0.8-0.8
						c-0.4,0-0.8,0.3-0.8,0.8h-0.5c0.1-0.7,0.5-1.2,1.3-1.2c0.7,0,1.3,0.5,1.3,1.2c0,0.3-0.1,0.6-0.3,0.9l-1.3,1.7L15.9,232.7
						L15.9,232.7z"/>
				</g>
			</g>
			<g id="g4510">
				<g id="h4510">
					<polygon id="b4510" class="st3" points="0.5,226.3 20.3,226.3 20.3,216.7 0.5,216.7 					"/>
					<path id="t4510" class="st2" d="M6.6,222.4v0.4H6.1v0.6H5.6v-0.6h-2l2.5-3.7v3.3H6.6z M5.6,220.7L5.6,220.7l-1.2,1.7h1.2
						C5.6,222.4,5.6,220.7,5.6,220.7z M8.4,219.8l-0.3,0.9h0.3c0.8,0,1.3,0.7,1.3,1.4c0,0.9-0.7,1.5-1.5,1.5c-0.5,0-1-0.3-1.2-0.7
						l0.4-0.4c0.1,0.4,0.5,0.6,0.9,0.6c0.5,0,1-0.5,1-1s-0.4-1-1-1c-0.3,0-0.6,0.1-0.8,0.4H7.4l0.6-2.1h1.6v0.5L8.4,219.8L8.4,219.8
						z M10.4,219.8l0.3-0.5h0.9v4.1h-0.5v-3.7L10.4,219.8L10.4,219.8z M12.8,221.4c0-0.9,0.4-2.2,1.4-2.2s1.4,1.3,1.4,2.2
						c0,0.8-0.4,2.2-1.4,2.2S12.8,222.2,12.8,221.4z M13.2,221.4c0,0.6,0.2,1.7,0.9,1.7s0.9-1.1,0.9-1.7s-0.2-1.7-0.9-1.7
						C13.5,219.6,13.2,220.8,13.2,221.4z"/>
				</g>
			</g>
			<g id="g4508">
				<g id="h4508">
					<polygon id="b4508" class="st3" points="20.3,216.7 20.3,207 0.6,207 0.5,216.7 					"/>
					<path id="t4508" class="st2" d="M6.2,213v0.4H5.7v0.6H5.2v-0.6h-2l2.5-3.7v3.3H6.2z M5.2,211.3L5.2,211.3L4.1,213h1.2v-1.7H5.2
						z M8,210.3l-0.3,0.9H8c0.8,0,1.3,0.7,1.3,1.4c0,0.9-0.7,1.5-1.5,1.5c-0.5,0-1-0.3-1.2-0.7L7,213c0.1,0.4,0.5,0.6,0.9,0.6
						c0.5,0,1-0.5,1-1s-0.4-1-1-1c-0.3,0-0.6,0.1-0.8,0.4H7l0.6-2.1h1.6v0.5L8,210.3L8,210.3z M9.8,211.9c0-0.9,0.4-2.2,1.4-2.2
						s1.4,1.3,1.4,2.2c0,0.8-0.4,2.2-1.4,2.2S9.8,212.8,9.8,211.9z M10.3,211.9c0,0.6,0.2,1.7,0.9,1.7s0.9-1.1,0.9-1.7
						s-0.2-1.7-0.9-1.7S10.3,211.4,10.3,211.9z M13.8,211.9c-0.3-0.2-0.5-0.5-0.5-0.9c0-0.7,0.5-1.2,1.2-1.2s1.2,0.5,1.2,1.2
						c0,0.4-0.2,0.7-0.5,0.9c0.4,0.1,0.6,0.5,0.6,1c0,0.8-0.6,1.2-1.3,1.2s-1.3-0.5-1.3-1.2C13.2,212.4,13.4,212,13.8,211.9z
						 M13.6,212.9c0,0.4,0.4,0.8,0.8,0.8s0.8-0.4,0.8-0.8c0-0.4-0.4-0.8-0.8-0.8C14,212.1,13.6,212.4,13.6,212.9z M13.7,210.9
						c0,0.3,0.4,0.7,0.7,0.7s0.7-0.4,0.7-0.7c0-0.4-0.3-0.7-0.7-0.7S13.7,210.5,13.7,210.9z"/>
				</g>
			</g>
			<g id="g4506">
				<g id="h4506">
					<polygon id="b4506" class="st3" points="20.3,197.4 0.6,197.4 0.6,207 20.3,207 					"/>
					<path id="t4506" class="st2" d="M6.7,203v0.5H6.2v0.6H5.7v-0.6h-2l2.5-3.7v3.3h0.5V203z M5.7,201.3L5.7,201.3L4.6,203h1.2
						L5.7,201.3L5.7,201.3z M8.5,200.4l-0.3,0.9h0.3c0.8,0,1.3,0.7,1.3,1.4c0,0.9-0.7,1.5-1.5,1.5c-0.5,0-1-0.3-1.2-0.7l0.4-0.4
						c0.1,0.4,0.5,0.6,0.9,0.6c0.5,0,1-0.5,1-1s-0.4-1-1-1c-0.3,0-0.6,0.1-0.8,0.4H7.5l0.6-2.1h1.6v0.5L8.5,200.4L8.5,200.4z
						 M10.3,202c0-0.9,0.4-2.2,1.4-2.2s1.4,1.3,1.4,2.2c0,0.8-0.4,2.2-1.4,2.2S10.3,202.9,10.3,202z M10.8,202
						c0,0.6,0.2,1.7,0.9,1.7s0.9-1.1,0.9-1.7s-0.2-1.7-0.9-1.7S10.8,201.4,10.8,202z M15.7,200.1l-1.1,1.5l0,0
						c0.1-0.1,0.3-0.1,0.4-0.1c0.7,0,1.2,0.6,1.2,1.3c0,0.8-0.6,1.4-1.3,1.4s-1.4-0.6-1.4-1.3c0-0.4,0.2-0.8,0.4-1.1l1.4-1.9
						L15.7,200.1z M15.7,202.9c0-0.5-0.4-0.9-0.9-0.9c-0.4,0-0.9,0.4-0.9,0.9s0.4,0.9,0.9,0.9C15.3,203.7,15.7,203.3,15.7,202.9z"/>
				</g>
			</g>
			<g id="g4502">
				<g id="h4502">
					<polygon id="b4502" class="st3" points="20.3,187.6 0.6,187.6 0.6,197.4 20.3,197.4 					"/>
					<path id="t4502" class="st2" d="M6.8,193.4v0.4H6.4v0.6H5.9v-0.6h-2l2.5-3.7v3.3H6.8z M5.9,191.7L5.9,191.7l-1.2,1.7h1.2
						C5.9,193.4,5.9,191.7,5.9,191.7z M8.6,190.8l-0.3,0.9h0.3c0.8,0,1.3,0.7,1.3,1.4c0,0.9-0.7,1.5-1.5,1.5c-0.5,0-1-0.3-1.2-0.7
						l0.4-0.4c0.1,0.4,0.5,0.6,0.9,0.6c0.6,0,1-0.5,1-1s-0.4-1-1-1c-0.3,0-0.6,0.1-0.8,0.4h0l0.6-2.1h1.6v0.5L8.6,190.8L8.6,190.8z
						 M10.4,192.4c0-0.9,0.4-2.2,1.4-2.2s1.4,1.3,1.4,2.2c0,0.8-0.4,2.2-1.4,2.2S10.4,193.2,10.4,192.4z M10.9,192.4
						c0,0.6,0.2,1.7,0.9,1.7s0.9-1.1,0.9-1.7s-0.2-1.7-0.9-1.7S10.9,191.8,10.9,192.4z M16.3,194v0.5h-2.6l1.8-2.2
						c0.2-0.2,0.4-0.5,0.4-0.7c0-0.4-0.4-0.8-0.8-0.8c-0.4,0-0.8,0.3-0.8,0.8h-0.5c0.1-0.7,0.6-1.2,1.3-1.2s1.3,0.5,1.3,1.2
						c0,0.3-0.1,0.6-0.3,0.9l-1.3,1.7h1.5V194z"/>
				</g>
			</g>
			<g id="g4500">
				<g id="h4500">
					<polygon id="b4500" class="st3" points="20.3,178.1 0.6,178.1 0.6,187.6 20.3,187.6 					"/>
					<path id="t4500" class="st2" d="M6.2,184v0.4H5.7v0.6H5.3v-0.6h-2l2.5-3.7v3.3H6.2z M5.3,182.3L5.3,182.3L4.1,184h1.2V182.3z
						 M8,181.4l-0.3,0.9H8c0.8,0,1.3,0.7,1.3,1.4c0,0.9-0.7,1.5-1.5,1.5c-0.5,0-1-0.3-1.2-0.7l0.4-0.4c0.1,0.4,0.5,0.6,0.9,0.6
						c0.5,0,1-0.5,1-1s-0.4-1-1-1c-0.3,0-0.6,0.1-0.8,0.4h0l0.6-2.1h1.6v0.5L8,181.4L8,181.4z M9.8,183c0-0.9,0.4-2.2,1.4-2.2
						s1.4,1.3,1.4,2.2c0,0.8-0.4,2.2-1.4,2.2S9.8,183.8,9.8,183z M10.3,183c0,0.6,0.2,1.7,0.9,1.7s0.9-1.1,0.9-1.7s-0.2-1.7-0.9-1.7
						S10.3,182.4,10.3,183z M13.1,183c0-0.9,0.4-2.2,1.4-2.2s1.4,1.3,1.4,2.2c0,0.8-0.4,2.2-1.4,2.2S13.1,183.8,13.1,183z M13.6,183
						c0,0.6,0.2,1.7,0.9,1.7s0.9-1.1,0.9-1.7s-0.2-1.7-0.9-1.7S13.6,182.4,13.6,183z"/>
				</g>
			</g>
		</g>
	</g>
	<g id="gDeck04SailAwayOceanviewOX">
		<g id="hDeck04SailAwayOceanviewOX">
			<g id="g4494">
				<g id="h4494">
					<polygon id="b4494" class="st3" points="4.1,147.2 5.7,137 27.8,137.1 27.8,147.1 					"/>
					<path id="t4494" class="st2" d="M12.8,143v0.4h-0.5v0.6h-0.5v-0.6h-2l2.5-3.7v3.3H12.8z M11.8,141.3L11.8,141.3l-1.2,1.7h1.2
						V141.3z M16.1,143v0.4h-0.5v0.6h-0.5v-0.6h-2l2.5-3.7v3.3H16.1z M15.1,141.3L15.1,141.3L14,143h1.2L15.1,141.3L15.1,141.3z
						 M16.9,143.9l1.1-1.5l0,0c-0.1,0.1-0.3,0.1-0.4,0.1c-0.7,0-1.2-0.6-1.2-1.3c0-0.8,0.6-1.4,1.3-1.4c0.7,0,1.4,0.6,1.4,1.3
						c0,0.4-0.2,0.8-0.4,1.1l-1.4,1.9L16.9,143.9z M18.6,141.1c0-0.4-0.4-0.9-0.8-0.9c-0.5,0-0.9,0.4-0.9,0.9s0.4,0.9,0.9,0.9
						C18.3,142,18.6,141.6,18.6,141.1z M21.9,143v0.4h-0.5v0.6H21v-0.6h-2l2.5-3.7v3.3H21.9z M21,141.3L21,141.3l-1.2,1.7H21V141.3z
						"/>
				</g>
			</g>
		</g>
	</g>
</g>
<g id="SPIRIT_DECK_04_TOP">
	<g id="gDeck04Locations">
		<path width="119.1902" height="266.2368" id="_x30_4Aft" class="st4" d="M0.6,563.9c0,92.2,0,168.8,0,183.7c-1,21.6,6.5,70.3,14.9,76.3c7.5,7.1,45.1,6.2,45.1,6.2
			s39.2,0.8,43.7-6.5c15.7-21.3,15.4-75.8,15.4-75.8V563.9H0.6z"/>
		<path width="119.1716" height="243.4" id="_x30_4MidShip" class="st4" d="M119.7,320.5H23.5v11.8h-23c0,71,0,156.5,0,231.6h119.1V320.5z"/>
		<path width="119.2" height="331.9" id="_x30_4Forward" class="st4" d="M23.6,320.5h96.2V181.9c0-26.3-28.1-179.4-59.4-181.5C27.7,5.5,2.2,137,0.5,181.7
			c0,0,0,64.8,0,150.6h23V320.5z"/>
	</g>
	<path class="st5" d="M0.6,747.6c-1,21.6,6.5,70.3,14.9,76.3c7.5,7.1,45.1,6.2,45.1,6.2s39.2,0.8,43.7-6.5
		c15.7-21.3,15.4-75.8,15.4-75.8V181.9c0-26.3-28.1-179.4-59.4-181.5C27.6,5.5,2.1,137,0.5,181.7C0.5,181.7,0.6,705.8,0.6,747.6z"/>
</g>
</svg>
