<?xml version="1.0" encoding="utf-8"?>
<!-- Generator: Adobe Illustrator 25.4.1, SVG Export Plug-In . SVG Version: 6.00 Build 0)  -->
<svg version="1.1" id="SPIRIT_DECK_07" xmlns="http://www.w3.org/2000/svg" xmlns:xlink="http://www.w3.org/1999/xlink" x="0px"
	 y="0px" width="122.9px" height="902.3px" viewBox="0 0 122.9 902.3" style="enable-background:new 0 0 122.9 902.3;"
	 xml:space="preserve">
<style type="text/css">
	.st0{fill:#FFFFFF;}
	.st1{fill:none;stroke:#D5DCE0;stroke-width:0.5;}
	.st2{fill:#6E8496;}
	.st3{fill:none;}
	.st4{fill:none;stroke:#076FA0;stroke-miterlimit:10;}
</style>
<g id="SPIRIT_DECK_07_BOTTOM">
	<path class="st0" d="M59.5,7.9c-39.1,24.5-59,130.2-59,130.2v741.7c-0.4,8.9,5.7,16.6,23.4,19.6c25.9,2.7,50.7,4.1,77.9-1.2
		c10.8-1.7,21.8-8.2,20.6-17.8L122.2,138c0,0-19.2-104.8-52.5-129.1c-0.5-0.5-2-1.8-2-2.7c0-3.7-0.6-5.8-3.5-5.8c-3,0-3.6,1-4,2.4
		C59.7,4.2,60.8,5.5,59.5,7.9z"/>
	<polyline class="st1" points="27.2,61.5 52.6,61.5 55.9,63.8 63.8,63.8 66,61.7 71.6,61.7 71.7,47.6 	"/>
	<path class="st1" d="M33.3,39.5c23-3.7,38.2-3.7,58.6,0.1"/>
	<line class="st1" x1="103.5" y1="261" x2="20" y2="261.1"/>
	<path class="st1" d="M25.1,261.1v-33.2L6.8,213v-75C11,83.7,33.6,50,33.6,50s14.2-2.1,27.7-2.3c18-1,31.6,2.4,31.6,2.4
		s18.5,36.7,23.8,86c0.1-0.2,0,75.7,0,75.7L98,228.1V261"/>
	<polyline class="st1" points="109.1,95.2 70.3,95.2 70.3,97.9 110,97.9 	"/>
	<line class="st1" x1="116.4" y1="136.4" x2="7.3" y2="136.4"/>
	<line class="st1" x1="58.2" y1="158.9" x2="7" y2="158.9"/>
	<polyline class="st1" points="14.4,95.2 53.2,95.2 53.2,97.9 13.6,97.9 	"/>
	<polyline class="st1" points="19.9,223.8 19.9,309.6 17.1,309.5 14.9,311.5 14.9,340.5 17.3,343 17.3,573 	"/>
	<polyline class="st1" points="106,721.8 103.4,718.5 103.5,223.5 	"/>
	<polyline class="st1" points="63,354.1 63,303.6 45.6,303.6 	"/>
	<polyline class="st1" points="19.9,279.4 45.7,279.4 45.7,347.8 62.7,347.8 	"/>
	<polygon class="st1" points="91.9,651.4 18.7,651.4 18.7,709 91.9,709 	"/>
	<polygon class="st1" points="76.1,573 76.1,563 91.8,563 91.9,573 	"/>
	<polygon class="st1" points="28.8,572.9 28.8,562.9 45.5,562.9 45.5,572.9 	"/>
	<rect x="34.4" y="572.9" class="st1" width="57.6" height="39.4"/>
	<polygon class="st1" points="18.6,651.4 18.6,650.6 15.4,647.6 15.4,624.8 17.9,622.5 17.9,612.2 14.4,609.2 14.4,575.6 
		17.5,572.9 34.2,573 34.1,612.2 91.9,612.2 91.9,651.5 	"/>
	<path class="st1" d="M34.7,536.3v-11l-17.3-0.1V544h71v-4.9h-2.5c-3.7,2.6-7.9,1.2-8.1-2.9H77H44.3c-0.4,4.1-4.2,5.4-7.7,3.2
		l-0.8-1C34.5,537.9,34.7,536.3,34.7,536.3z"/>
	<polyline class="st1" points="55,536 55,544 50,544 44.2,544 44.2,536 	"/>
	<polyline class="st1" points="66,536 66,544 71.5,544 77.8,544 77.8,536 	"/>
	<polyline class="st1" points="66.1,536 66.1,544 60.8,544 54.9,544 54.9,536 	"/>
	<polygon class="st1" points="17.3,429.1 17.3,351.2 55.1,351.3 55.3,402.3 30.9,402.2 31,429.1 	"/>
	<polyline class="st1" points="103.5,303.5 79.2,303.4 68.4,306.9 68.4,346.8 74,346.8 74,402.7 103.2,402.7 	"/>
	<line class="st1" x1="80.7" y1="289.5" x2="92.6" y2="289.5"/>
	<rect x="17.4" y="470" class="st1" width="15.5" height="55.2"/>
	<rect x="88.9" y="470" class="st1" width="14.6" height="55.2"/>
	<polygon class="st1" points="99.3,894.7 102.1,894.2 116.2,879.8 116.2,797.7 104.1,797.6 104.1,855.7 99.4,855.6 	"/>
	<polyline class="st1" points="17.3,358.9 17.3,342.9 45.5,343 45.6,299.5 	"/>
	<path class="st1" d="M90.9,402.4l-0.1,29.2c0.2,7.4-9.2,7-9.2,7c-2,0-41.1,0-41.1,0c-5.9-0.4-8.6-4.4-9.5-9.4"/>
	<polyline class="st1" points="45.6,303.9 62.9,303.4 62.9,354.1 74,354.1 	"/>
	<path class="st1" d="M40.6,438.7l0.1,6.1c-6.7,6.1,5.4,12.9,9.5,6.6c1.4-2.7-1.3-3.3-2.4-2.1c-4.1,4.4-7.7-1-4.5-2.3
		c6.4-3.4,12.5-4.5,17.7-4.6c5.2,0.1,11,1.1,17.5,4.5c3.2,1.3-0.4,6.7-4.5,2.3c-1.1-1.3-3.8-0.7-2.4,2.1c4.1,6.4,16.5-0.5,9.9-6.6
		l0.1-6H40.6L40.6,438.7z"/>
	<path class="st1" d="M53.2,449.9c-2.1-1.6,0-2.7,0-2.7c5.6-1.7,14.1,0,14.1,0c3.2,1.7,0,2.7,0,2.7S58.9,448,53.2,449.9z"/>
	<path class="st1" d="M40.6,519.3L40.6,519.3c0.7-4.8,2.3-8.2,4.6-10c2.9-2.2,3.7-3.7,2.6-4.6l-2.1-2.5c-0.8-0.2-1.1-0.1-1.3,0.6
		c-0.4,2,0.1,4.2,1.2,6.1"/>
	<path class="st1" d="M81.1,519.3l-7.8,1.9c-0.1-18.9-27.5-14.6-24.3,0l-8.3-1.9"/>
	<path class="st1" d="M42.4,519.8c0.3-3.4,1.3-6.2,3.1-8.4c1-1.2,1.7-2.1,3.1-3c1.4-1.2,1.7-2.3,1-3.6c-2.1-2.1-3.2-3.8-4.3-4.5
		c-0.8-1.7-3.3-0.1-1.7,0.9c-1.6,3.6-0.5,6.7,1.1,8.6"/>
	<path class="st1" d="M45.2,500.1c4.3-2.6,8.7-3.9,13.1-4.1c0-2.4,4.7-2.4,4.7,0c5,0.2,9.9,1.9,13.2,4.2"/>
	<path class="st1" d="M49.4,504.7c2.7-1.8,6-2.8,9.8-3.1c0,1.5,3.1,1.4,3.1,0c4.5,0.5,8.1,1.7,9.9,2.9"/>
	<line class="st1" x1="59.2" y1="501.6" x2="58.3" y2="496.1"/>
	<line class="st1" x1="63" y1="496" x2="62.3" y2="501.6"/>
	<line class="st1" x1="53.8" y1="502.6" x2="51.3" y2="497.3"/>
	<line class="st1" x1="67.8" y1="502.5" x2="70.3" y2="497.2"/>
	<path class="st1" d="M48.5,503.8c4.1-2.3,7.6-3.3,10.6-3.2"/>
	<path class="st1" d="M47.7,502.9c3.2-1.9,6.9-3.1,11.1-3.4"/>
	<path class="st1" d="M47,502c4.4-2.6,8.3-3.8,11.6-3.6"/>
	<path class="st1" d="M46.2,501.1c3.3-2.4,7.4-3.7,12.2-3.8"/>
	<path class="st1" d="M62.5,500.5c3.1,0.1,7.1,1.4,10.7,3"/>
	<path class="st1" d="M62.6,499.5c3.7,0.1,7.8,1.4,11.2,3.2"/>
	<path class="st1" d="M62.8,498.4c3.7,0.1,8.1,1.5,11.8,3.5"/>
	<path class="st1" d="M62.9,497.3c3.8,0.1,8.5,1.6,12.4,3.8"/>
	<line class="st1" x1="58.5" y1="497.3" x2="62.9" y2="497.3"/>
	<line class="st1" x1="58.7" y1="498.5" x2="62.7" y2="498.5"/>
	<line class="st1" x1="58.8" y1="499.5" x2="62.6" y2="499.6"/>
	<line class="st1" x1="59.1" y1="500.6" x2="62.5" y2="500.5"/>
	<line class="st1" x1="58.4" y1="496.1" x2="63" y2="496.1"/>
	<path class="st1" d="M81.1,519.4L81.1,519.4c-0.7-4.8-2.3-8.2-4.6-10c-2.9-2.2-3.7-3.7-2.6-4.6l2.1-2.5c0.8-0.2,1.1-0.1,1.3,0.6
		c0.4,2-0.1,4.2-1.2,6.1"/>
	<path class="st1" d="M79.1,519.7c-0.3-3.4-1.3-6.2-3.1-8.4c-1-1.2-1.7-2.1-3.1-3c-1.4-1.2-1.7-2.3-1-3.6c2.1-2.1,3.2-3.8,4.3-4.5
		c0.8-1.7,3.3-0.1,1.7,0.9c1.6,3.6,0.5,6.7-1.1,8.6"/>
	<line class="st1" x1="59.2" y1="501.6" x2="62.4" y2="501.6"/>
	<path class="st1" d="M46.6,520.8c1-19.1,28.9-16.8,28.4,0.1"/>
	<path class="st1" d="M37.6,537.2c0-1.1,1-2,2.3-2s2.3,0.9,2.3,2s-1,2-2.3,2C38.6,539.1,37.6,538.3,37.6,537.2z"/>
	<path class="st1" d="M43,535.3c0.4,0.6,0.7,1.2,0.7,1.9c0,1.9-1.8,3.5-4,3.5s-4-1.6-4-3.5c0-1.3,0.8-2.4,2-3
		c6.8-4.4,10.3-8.4,7.7-13.7"/>
	<path class="st1" d="M35.7,538.5c-1.8-2.3-0.9-3.5,1.6-5.2c3.6-2.5,5.7-4.3,6.8-6.3c1.5-2.9,1-4.1,0.1-6.9"/>
	<path class="st1" d="M79.8,537.1c0-1.1,1-2,2.3-2s2.3,0.9,2.3,2s-1,2-2.3,2S79.8,538.2,79.8,537.1z"/>
	<path class="st1" d="M79,535.2c-0.4,0.6-0.7,1.2-0.7,1.9c0,1.9,1.6,3.4,3.8,3.4c2.2,0,4.2-1.5,4.2-3.4c0-1.3-0.8-2.4-2-3
		c-7.3-4.3-9.4-9.1-7.7-13.7"/>
	<path class="st1" d="M86.3,539.2c1.8-2.3,1.1-3.9-1-5.6c-3.6-2.5-6.4-4.7-7.5-6.7c-1.5-2.9-1-4.1-0.1-6.9"/>
	<path class="st1" d="M50.2,519.6c0-5,4.7-9.1,10.5-9.1s10.5,4.1,10.5,9.1s-4.7,9.1-10.5,9.1C54.9,528.8,50.2,524.7,50.2,519.6z"/>
	<line class="st1" x1="47" y1="507.8" x2="51.9" y2="511.9"/>
	<line class="st1" x1="46" y1="508.7" x2="51.3" y2="512.5"/>
	<line class="st1" x1="44.9" y1="509.6" x2="50.6" y2="513.3"/>
	<line class="st1" x1="43.9" y1="510.6" x2="50.1" y2="514"/>
	<line class="st1" x1="43" y1="512" x2="49.6" y2="514.8"/>
	<line class="st1" x1="42.5" y1="513" x2="49.3" y2="515.5"/>
	<line class="st1" x1="41.9" y1="514.3" x2="49.1" y2="516.3"/>
	<line class="st1" x1="41.4" y1="515.8" x2="48.9" y2="517"/>
	<line class="st1" x1="41" y1="517.1" x2="48.7" y2="517.6"/>
	<line class="st1" x1="40.8" y1="518.1" x2="48.7" y2="518.7"/>
	<line class="st1" x1="41.5" y1="519.5" x2="48.7" y2="519.8"/>
	<line class="st1" x1="74.7" y1="507.7" x2="69.8" y2="511.9"/>
	<line class="st1" x1="75.7" y1="508.6" x2="70.4" y2="512.5"/>
	<line class="st1" x1="76.8" y1="509.5" x2="71" y2="513.3"/>
	<line class="st1" x1="77.8" y1="510.6" x2="71.4" y2="514"/>
	<line class="st1" x1="78.7" y1="511.9" x2="71.9" y2="514.8"/>
	<line class="st1" x1="79.3" y1="512.9" x2="72.2" y2="515.5"/>
	<line class="st1" x1="79.8" y1="514.2" x2="72.4" y2="516.2"/>
	<line class="st1" x1="80.3" y1="515.7" x2="72.6" y2="516.9"/>
	<line class="st1" x1="80.7" y1="517" x2="72.8" y2="517.5"/>
	<line class="st1" x1="80.9" y1="518.1" x2="73" y2="518.6"/>
	<line class="st1" x1="80.2" y1="519.4" x2="73" y2="519.7"/>
	<path class="st1" d="M16.9,721.8l-9.2,13.7L7.6,879.2l14.1,14.9c22.2,4.3,66.8,1.5,77.8,0.6c-0.1,0,2.8-0.6,2.8-0.6l14-14.5
		l0.1-143.5l-10.2-14.2H88.9L85,738.6l-43.4-0.3l-4.9-16.5H16.9z"/>
	<polygon class="st1" points="24.3,894.6 21.6,894.1 7.6,879.3 7.6,797.5 19.5,797.5 19.5,855.6 24.2,855.6 	"/>
	<polyline class="st1" points="18.6,709.3 18.6,719.7 16.9,721.8 	"/>
	<path class="st1" d="M84.8,738.7l-43.2-0.4l-4.9-16.4h-5.2l-12.2,17V778h2.2v-1.8h1.9l5.1-2.8c3,4.9,7.6,6.1,13.7,3.6
		c4.8,4.8,11.4,7.3,19.7,7.7c8.3-0.4,14.9-2.9,19.7-7.7c6.1,2.5,10.7,1.3,13.7-3.6l5.1,2.8h1.9v1.8h2.2l-0.1-38.5L93,722h-4
		L84.8,738.7z"/>
	<line class="st1" x1="76" y1="555.9" x2="76" y2="571.1"/>
	<line class="st1" x1="45.6" y1="555.9" x2="45.6" y2="571.1"/>
	<line class="st1" x1="46.2" y1="699.3" x2="57" y2="708.8"/>
	<line class="st1" x1="46.3" y1="708.8" x2="57.1" y2="699.2"/>
	<line class="st1" x1="57.3" y1="699.3" x2="68" y2="708.7"/>
	<line class="st1" x1="57.3" y1="708.9" x2="68" y2="699.4"/>
	<line class="st1" x1="68.3" y1="699.4" x2="79.3" y2="708.8"/>
	<line class="st1" x1="68.3" y1="708.7" x2="79.2" y2="699.2"/>
	<line class="st1" x1="46.9" y1="261" x2="57.6" y2="270.7"/>
	<line class="st1" x1="46.9" y1="270.7" x2="57.8" y2="261.1"/>
	<line class="st1" x1="58" y1="261" x2="68.7" y2="270.8"/>
	<line class="st1" x1="57.9" y1="270.9" x2="68.8" y2="261.1"/>
	<line class="st1" x1="68.9" y1="261.2" x2="79.7" y2="270.6"/>
	<line class="st1" x1="68.9" y1="270.6" x2="79.7" y2="261.3"/>
	<line class="st1" x1="45.7" y1="297.5" x2="63.4" y2="297.5"/>
	<line class="st1" x1="93.1" y1="297.5" x2="63.3" y2="297.5"/>
	<line class="st1" x1="93.3" y1="280.9" x2="80.1" y2="280.9"/>
	<line class="st1" x1="80.6" y1="280.9" x2="80.6" y2="297.5"/>
	<line class="st1" x1="92.8" y1="297.8" x2="92.8" y2="280.6"/>
	<line class="st1" x1="47.2" y1="738.5" x2="62.7" y2="738.5"/>
	<line class="st1" x1="77.9" y1="738.5" x2="62.6" y2="738.5"/>
	<line class="st1" x1="77.8" y1="723.4" x2="77.8" y2="738.6"/>
	<line class="st1" x1="47.3" y1="723.4" x2="47.3" y2="738.6"/>
	<rect x="46" y="699.1" class="st1" width="33.2" height="9.9"/>
	<line class="st1" x1="57.2" y1="709" x2="57.2" y2="699.1"/>
	<line class="st1" x1="68.1" y1="709" x2="68.1" y2="699.1"/>
	<rect x="46.7" y="261.1" class="st1" width="33.2" height="9.9"/>
	<line class="st1" x1="57.8" y1="270.9" x2="57.8" y2="261"/>
	<line class="st1" x1="68.8" y1="271.1" x2="68.8" y2="261.2"/>
	<path class="st1" d="M72.2,280.9c-0.4,0-0.7,0.3-0.7,0.6"/>
	<line class="st1" x1="80.6" y1="280.9" x2="72.2" y2="280.9"/>
	<line class="st1" x1="71.6" y1="281.4" x2="71.6" y2="283.7"/>
	<line class="st1" x1="71.6" y1="283.7" x2="55.2" y2="283.7"/>
	<path class="st1" d="M55.2,281.4c0-0.3-0.3-0.6-0.7-0.6"/>
	<line class="st1" x1="55.2" y1="283.7" x2="55.2" y2="281.4"/>
	<line class="st1" x1="54.5" y1="280.9" x2="46.2" y2="280.9"/>
	<line class="st1" x1="63.6" y1="294.7" x2="63.6" y2="280.6"/>
	<line class="st1" x1="63.2" y1="294.7" x2="63.2" y2="280.6"/>
	<line class="st1" x1="80.2" y1="293.9" x2="63.6" y2="293.9"/>
	<line class="st1" x1="63.6" y1="280.6" x2="63.2" y2="280.6"/>
	<line class="st1" x1="63.6" y1="294.7" x2="63.2" y2="294.7"/>
	<line class="st1" x1="63.2" y1="293.9" x2="46" y2="293.9"/>
	<line class="st1" x1="63.2" y1="292.5" x2="55.9" y2="292.5"/>
	<line class="st1" x1="63.2" y1="291" x2="55.9" y2="291"/>
	<line class="st1" x1="63.2" y1="289.5" x2="55.9" y2="289.5"/>
	<line class="st1" x1="63.2" y1="288" x2="55.9" y2="288"/>
	<line class="st1" x1="63.2" y1="286.5" x2="55.9" y2="286.5"/>
	<line class="st1" x1="63.2" y1="285" x2="55.9" y2="285"/>
	<line class="st1" x1="63.2" y1="282.1" x2="55.3" y2="282.1"/>
	<line class="st1" x1="70.9" y1="292.5" x2="63.6" y2="292.5"/>
	<line class="st1" x1="70.9" y1="291" x2="63.6" y2="291"/>
	<line class="st1" x1="70.9" y1="289.5" x2="63.6" y2="289.5"/>
	<line class="st1" x1="70.9" y1="288" x2="63.6" y2="288"/>
	<line class="st1" x1="70.9" y1="286.5" x2="63.6" y2="286.5"/>
	<line class="st1" x1="70.9" y1="285" x2="63.6" y2="285"/>
	<line class="st1" x1="71.6" y1="282.1" x2="63.6" y2="282.1"/>
	<line class="st1" x1="46" y1="282.3" x2="54.6" y2="282.3"/>
	<line class="st1" x1="46.1" y1="283.8" x2="55.5" y2="283.8"/>
	<line class="st1" x1="45.9" y1="285.2" x2="54.6" y2="285.2"/>
	<line class="st1" x1="46.1" y1="286.7" x2="54.6" y2="286.7"/>
	<line class="st1" x1="71.5" y1="282.3" x2="80.4" y2="282.3"/>
	<line class="st1" x1="71.5" y1="283.8" x2="80.5" y2="283.8"/>
	<line class="st1" x1="72.2" y1="285.2" x2="80.5" y2="285.2"/>
	<line class="st1" x1="72.2" y1="286.7" x2="80.5" y2="286.7"/>
	<path class="st1" d="M54.5,294.8c0,0.3,0.3,0.6,0.7,0.6s0.7-0.3,0.7-0.6l0,0"/>
	<line class="st1" x1="55.8" y1="294.8" x2="55.8" y2="294.7"/>
	<line class="st1" x1="54.5" y1="294.8" x2="54.5" y2="294.7"/>
	<path class="st1" d="M70.9,294.8c0,0.3,0.3,0.6,0.7,0.6c0.4,0,0.7-0.3,0.7-0.6l0,0"/>
	<line class="st1" x1="72.2" y1="294.8" x2="72.2" y2="294.7"/>
	<line class="st1" x1="70.9" y1="294.8" x2="70.9" y2="294.7"/>
	<line class="st1" x1="55.2" y1="294.7" x2="55.2" y2="283.8"/>
	<line class="st1" x1="46.2" y1="289.6" x2="54.6" y2="289.6"/>
	<line class="st1" x1="46.2" y1="291.1" x2="54.6" y2="291.1"/>
	<line class="st1" x1="46.2" y1="292.6" x2="54.6" y2="292.6"/>
	<line class="st1" x1="46.1" y1="288.2" x2="54.6" y2="288.2"/>
	<line class="st1" x1="71.5" y1="294.7" x2="71.5" y2="283.6"/>
	<line class="st1" x1="72.2" y1="289.6" x2="80.4" y2="289.6"/>
	<line class="st1" x1="72.2" y1="291.1" x2="80.4" y2="291.1"/>
	<line class="st1" x1="72.2" y1="292.6" x2="80.3" y2="292.6"/>
	<line class="st1" x1="72.1" y1="288.2" x2="80.6" y2="288.2"/>
	<path class="st1" d="M68.8,556.9c-0.3,0-0.6,0.2-0.6,0.5"/>
	<line class="st1" x1="76.1" y1="556.9" x2="68.8" y2="556.9"/>
	<line class="st1" x1="68.2" y1="557.5" x2="68.2" y2="559.6"/>
	<line class="st1" x1="68.2" y1="559.6" x2="53.8" y2="559.6"/>
	<path class="st1" d="M53.8,557.5c0-0.3-0.3-0.5-0.6-0.5"/>
	<line class="st1" x1="53.8" y1="559.6" x2="53.8" y2="557.5"/>
	<line class="st1" x1="53.2" y1="556.9" x2="45.9" y2="556.9"/>
	<line class="st1" x1="61.2" y1="570" x2="61.2" y2="556.7"/>
	<line class="st1" x1="60.9" y1="570" x2="60.9" y2="556.7"/>
	<line class="st1" x1="75.8" y1="569.3" x2="61.2" y2="569.3"/>
	<line class="st1" x1="61.2" y1="556.7" x2="60.9" y2="556.7"/>
	<line class="st1" x1="61.2" y1="570" x2="60.9" y2="570"/>
	<line class="st1" x1="60.9" y1="569.3" x2="45.8" y2="569.3"/>
	<line class="st1" x1="60.9" y1="567.9" x2="54.4" y2="567.9"/>
	<line class="st1" x1="60.9" y1="566.5" x2="54.4" y2="566.5"/>
	<line class="st1" x1="60.9" y1="565.1" x2="54.4" y2="565.1"/>
	<line class="st1" x1="60.9" y1="563.7" x2="54.4" y2="563.7"/>
	<line class="st1" x1="60.9" y1="562.3" x2="54.4" y2="562.3"/>
	<line class="st1" x1="60.9" y1="560.9" x2="54.4" y2="560.9"/>
	<line class="st1" x1="60.9" y1="558" x2="53.9" y2="558"/>
	<line class="st1" x1="67.6" y1="567.9" x2="61.2" y2="567.9"/>
	<line class="st1" x1="67.6" y1="566.5" x2="61.2" y2="566.5"/>
	<line class="st1" x1="67.6" y1="565.1" x2="61.2" y2="565.1"/>
	<line class="st1" x1="67.6" y1="563.7" x2="61.2" y2="563.7"/>
	<line class="st1" x1="67.6" y1="562.3" x2="61.2" y2="562.3"/>
	<line class="st1" x1="67.6" y1="560.9" x2="61.2" y2="560.9"/>
	<line class="st1" x1="68.2" y1="558" x2="61.2" y2="558"/>
	<line class="st1" x1="45.7" y1="558.3" x2="53.3" y2="558.3"/>
	<line class="st1" x1="45.8" y1="559.7" x2="54.1" y2="559.7"/>
	<line class="st1" x1="45.6" y1="561.1" x2="53.3" y2="561.1"/>
	<line class="st1" x1="45.8" y1="562.4" x2="53.2" y2="562.4"/>
	<line class="st1" x1="68.2" y1="558.3" x2="76" y2="558.3"/>
	<line class="st1" x1="68.1" y1="559.7" x2="76" y2="559.7"/>
	<line class="st1" x1="68.8" y1="561.1" x2="76.1" y2="561.1"/>
	<line class="st1" x1="68.8" y1="562.4" x2="76" y2="562.4"/>
	<path class="st1" d="M53.2,570.1c0,0.3,0.3,0.5,0.6,0.5s0.6-0.2,0.6-0.5l0,0"/>
	<line class="st1" x1="54.3" y1="570.1" x2="54.3" y2="570"/>
	<line class="st1" x1="53.2" y1="570.1" x2="53.2" y2="570"/>
	<path class="st1" d="M67.6,570.1c0,0.3,0.3,0.5,0.6,0.5c0.3,0,0.6-0.2,0.6-0.5l0,0"/>
	<line class="st1" x1="68.8" y1="570.1" x2="68.8" y2="570"/>
	<line class="st1" x1="67.6" y1="570.1" x2="67.6" y2="570"/>
	<line class="st1" x1="53.8" y1="570" x2="53.8" y2="559.7"/>
	<line class="st1" x1="45.9" y1="565.2" x2="53.3" y2="565.2"/>
	<line class="st1" x1="45.9" y1="566.6" x2="53.3" y2="566.6"/>
	<line class="st1" x1="45.9" y1="568" x2="53.3" y2="568"/>
	<line class="st1" x1="45.8" y1="563.8" x2="53.3" y2="563.8"/>
	<line class="st1" x1="68.2" y1="570" x2="68.2" y2="559.5"/>
	<line class="st1" x1="68.8" y1="565.2" x2="76" y2="565.2"/>
	<line class="st1" x1="68.8" y1="566.6" x2="75.9" y2="566.6"/>
	<line class="st1" x1="68.8" y1="568" x2="75.9" y2="568"/>
	<line class="st1" x1="68.7" y1="563.8" x2="76.1" y2="563.8"/>
	<path class="st1" d="M70.8,724.2c-0.3,0-0.6,0.2-0.6,0.5"/>
	<line class="st1" x1="78.1" y1="724.2" x2="70.8" y2="724.2"/>
	<line class="st1" x1="70.2" y1="724.7" x2="70.2" y2="726.6"/>
	<line class="st1" x1="70.2" y1="726.6" x2="55.8" y2="726.6"/>
	<path class="st1" d="M55.8,724.7c0-0.3-0.3-0.5-0.6-0.5"/>
	<line class="st1" x1="55.8" y1="726.6" x2="55.8" y2="724.7"/>
	<line class="st1" x1="55.2" y1="724.2" x2="47.9" y2="724.2"/>
	<line class="st1" x1="63.2" y1="736.1" x2="63.2" y2="724"/>
	<line class="st1" x1="62.9" y1="736.1" x2="62.9" y2="724"/>
	<line class="st1" x1="77.7" y1="735.5" x2="63.2" y2="735.5"/>
	<line class="st1" x1="63.2" y1="724" x2="62.9" y2="724"/>
	<line class="st1" x1="63.2" y1="736.1" x2="62.9" y2="736.1"/>
	<line class="st1" x1="62.9" y1="735.5" x2="47.7" y2="735.5"/>
	<line class="st1" x1="62.9" y1="734.2" x2="56.4" y2="734.2"/>
	<line class="st1" x1="62.9" y1="732.9" x2="56.4" y2="732.9"/>
	<line class="st1" x1="62.9" y1="731.6" x2="56.4" y2="731.6"/>
	<line class="st1" x1="62.9" y1="730.3" x2="56.4" y2="730.3"/>
	<line class="st1" x1="62.9" y1="729.1" x2="56.4" y2="729.1"/>
	<line class="st1" x1="62.9" y1="727.8" x2="56.4" y2="727.8"/>
	<line class="st1" x1="62.9" y1="725.2" x2="55.8" y2="725.2"/>
	<line class="st1" x1="69.6" y1="734.2" x2="63.2" y2="734.2"/>
	<line class="st1" x1="69.6" y1="732.9" x2="63.2" y2="732.9"/>
	<line class="st1" x1="69.6" y1="731.6" x2="63.2" y2="731.6"/>
	<line class="st1" x1="69.6" y1="730.3" x2="63.2" y2="730.3"/>
	<line class="st1" x1="69.6" y1="729.1" x2="63.2" y2="729.1"/>
	<line class="st1" x1="69.6" y1="727.8" x2="63.2" y2="727.8"/>
	<line class="st1" x1="70.2" y1="725.2" x2="63.2" y2="725.2"/>
	<line class="st1" x1="47.7" y1="725.4" x2="55.3" y2="725.4"/>
	<line class="st1" x1="47.8" y1="726.7" x2="56.1" y2="726.7"/>
	<line class="st1" x1="47.6" y1="728" x2="55.3" y2="728"/>
	<line class="st1" x1="47.8" y1="729.2" x2="55.2" y2="729.2"/>
	<line class="st1" x1="70.2" y1="725.4" x2="78" y2="725.4"/>
	<line class="st1" x1="70.1" y1="726.7" x2="78" y2="726.7"/>
	<line class="st1" x1="70.8" y1="728" x2="78.1" y2="728"/>
	<line class="st1" x1="70.8" y1="729.2" x2="78" y2="729.2"/>
	<path class="st1" d="M55.2,736.2c0,0.3,0.3,0.5,0.6,0.5s0.6-0.2,0.6-0.5l0,0"/>
	<line class="st1" x1="56.3" y1="736.2" x2="56.3" y2="736.1"/>
	<line class="st1" x1="55.2" y1="736.2" x2="55.2" y2="736.1"/>
	<path class="st1" d="M69.6,736.2c0,0.3,0.3,0.5,0.6,0.5c0.3,0,0.6-0.2,0.6-0.5l0,0"/>
	<line class="st1" x1="70.8" y1="736.2" x2="70.8" y2="736.1"/>
	<line class="st1" x1="69.6" y1="736.2" x2="69.6" y2="736.1"/>
	<line class="st1" x1="55.8" y1="736.1" x2="55.8" y2="726.7"/>
	<line class="st1" x1="47.8" y1="731.7" x2="55.3" y2="731.7"/>
	<line class="st1" x1="47.8" y1="733" x2="55.3" y2="733"/>
	<line class="st1" x1="47.9" y1="734.3" x2="55.3" y2="734.3"/>
	<line class="st1" x1="47.8" y1="730.5" x2="55.3" y2="730.5"/>
	<line class="st1" x1="70.2" y1="736.1" x2="70.2" y2="726.6"/>
	<line class="st1" x1="70.8" y1="731.7" x2="78" y2="731.7"/>
	<line class="st1" x1="70.8" y1="733" x2="77.9" y2="733"/>
	<line class="st1" x1="70.8" y1="734.3" x2="77.9" y2="734.3"/>
	<line class="st1" x1="70.7" y1="730.5" x2="78.1" y2="730.5"/>
	<path class="st1" d="M44.2,543.8v-7.5c0,0,2.7-1.5,5.2-1.5s5.7,1.5,5.7,1.5s3.1-1.7,5.6-1.7c2.6,0,5.4,1.5,5.4,1.5s3.5-1.5,6-1.5
		c2.6,0,5.6,1.4,5.6,1.4v7.9"/>
	<line class="st1" x1="44.2" y1="544" x2="55.1" y2="536.4"/>
	<line class="st1" x1="55.1" y1="536.4" x2="65.9" y2="543.8"/>
	<line class="st1" x1="66" y1="544" x2="77.8" y2="536.4"/>
	<line class="st1" x1="77.8" y1="544" x2="66" y2="536"/>
	<line class="st1" x1="66" y1="536" x2="55" y2="544"/>
	<line class="st1" x1="55" y1="544" x2="44.2" y2="536.3"/>
	<path class="st0" d="M33.8,520.2h-2.7v-27h2.7V520.2z"/>
	<path class="st2" d="M79.7,164.4v-0.2c0-2,0.7-2.7,1.6-2.7c0.3,0,0.4,0,0.6,0.1v1c-0.2-0.1-0.4-0.2-0.5-0.2c-0.4,0-0.7,0.4-0.7,1.8
		v0.2c0,1.5,0.3,1.8,0.8,1.8c0.2,0,0.3-0.1,0.5-0.2v1c-0.2,0.1-0.4,0.2-0.7,0.2C80.4,167.1,79.7,166.3,79.7,164.4z M83.3,161.5h1
		l1.1,5.6h-1l-0.2-1.1h-0.9l-0.2,1.1h-0.9L83.3,161.5z M84.1,165.1l-0.3-1.8l-0.3,1.8H84.1z M85.6,166.9v-1c0.3,0.2,0.6,0.3,0.9,0.3
		s0.5-0.1,0.5-0.5l0,0c0-0.3-0.1-0.4-0.5-1c-0.7-0.8-0.9-1.1-0.9-1.8l0,0c0-0.9,0.6-1.5,1.4-1.5c0.4,0,0.6,0.1,0.9,0.2v1
		c-0.3-0.2-0.5-0.3-0.7-0.3c-0.3,0-0.5,0.2-0.5,0.5l0,0c0,0.3,0.1,0.4,0.5,0.9c0.8,0.9,0.9,1.2,0.9,1.9l0,0c0,0.9-0.6,1.5-1.4,1.5
		C86.2,167.1,85.9,167,85.6,166.9z M88.3,161.5h1v5.6h-1V161.5z M89.9,161.5h0.9l1,2.8v-2.8h1v5.6h-0.9l-1-3v3h-1V161.5L89.9,161.5z
		 M93.2,164.4v-0.3c0-1.8,0.6-2.7,1.5-2.7s1.5,0.9,1.5,2.7v0.3c0,1.8-0.6,2.7-1.5,2.7S93.2,166.3,93.2,164.4z M95.2,164.4v-0.3
		c0-1.4-0.2-1.8-0.5-1.8s-0.5,0.4-0.5,1.8v0.3c0,1.4,0.2,1.8,0.5,1.8S95.2,165.9,95.2,164.4z"/>
	<path class="st2" d="M34.7,83.5h1l0.7,2l0.7-2h1v5.6h-0.9v-3.4l-0.7,2.1l0,0l-0.7-2.1v3.4h-0.9L34.7,83.5L34.7,83.5z M39.4,83.5h1
		l1.1,5.6h-1L40.3,88h-0.9l-0.2,1.1h-0.9L39.4,83.5z M40.2,87.1l-0.3-1.8l-0.3,1.8H40.2z M41.8,83.5h1v2.3h0.8v-2.3h1v5.6h-1v-2.4
		h-0.8v2.4h-1V83.5z M45.9,83.5h1l1.1,5.6h-1L46.9,88H46l-0.2,1.1h-0.9L45.9,83.5z M46.7,87.1l-0.3-1.8l-0.3,1.8H46.7z M48.3,83.5h1
		c1,0,1.7,0.5,1.7,1.8v0.1c0,0.7-0.3,1.2-0.7,1.5l0.8,2.3h-1l-0.6-2h-0.2v2h-1V83.5z M49.3,86.3c0.4,0,0.7-0.2,0.7-0.9v-0.1
		c0-0.7-0.3-0.9-0.8-0.9l0,0L49.3,86.3L49.3,86.3L49.3,86.3z M51.5,83.5h1v5.6h-1V83.5z M53.1,83.5H54l1,2.8v-2.8h1v5.6h-0.9l-1-3v3
		h-1V83.5z M56.5,83.5h1v5.6h-1V83.5z M58,85.5c0.6-0.1,0.7-0.6,0.7-0.9h-0.5v-1.1h1.1v0.9c0,0.8-0.4,1.4-1.2,1.5L58,85.5z
		 M59.8,88.9v-1c0.3,0.2,0.6,0.3,0.9,0.3c0.3,0,0.5-0.1,0.5-0.5l0,0c0-0.3-0.1-0.4-0.5-1c-0.7-0.7-1-1.1-1-1.7l0,0
		c0-0.9,0.6-1.5,1.4-1.5c0.4,0,0.6,0.1,0.9,0.2v1c-0.3-0.2-0.5-0.3-0.7-0.3c-0.3,0-0.5,0.2-0.5,0.5l0,0c0,0.3,0.1,0.4,0.5,0.9
		c0.8,0.9,0.9,1.2,0.9,1.9l0,0c0,0.9-0.6,1.5-1.4,1.5C60.4,89.2,60,89.1,59.8,88.9z M63.8,83.5h0.9l1,2.8v-2.8h1v5.6h-0.9l-1-3v3h-1
		C63.8,89.1,63.8,83.5,63.8,83.5z M67.2,83.5h1v5.6h-1V83.5z M68.7,86.4v-0.2c0-1.8,0.8-2.7,1.9-2.7c0.3,0,0.5,0.1,0.7,0.2v1
		c-0.2-0.1-0.5-0.2-0.7-0.2c-0.6,0-0.9,0.6-0.9,1.8v0.3c0,1.5,0.4,1.8,0.8,1.8c0,0,0,0,0.1,0V87h-0.5v-0.9h1.4v3
		c-0.4,0.2-0.6,0.2-1,0.2C69.5,89.2,68.7,88.4,68.7,86.4z M72,83.5h1v2.3h0.8v-2.3h1v5.6h-1v-2.4H73v2.4h-1V83.5z M75.9,84.4h-0.7
		v-0.9h2.4v0.9h-0.7v4.7h-1L75.9,84.4L75.9,84.4z M77.7,86.4v-0.2c0-2,0.7-2.7,1.6-2.7c0.3,0,0.4,0,0.6,0.1v1
		c-0.2-0.1-0.4-0.2-0.5-0.2c-0.4,0-0.7,0.4-0.7,1.8v0.2c0,1.5,0.3,1.8,0.8,1.8c0.2,0,0.3-0.1,0.5-0.2v1c-0.2,0.1-0.4,0.2-0.7,0.2
		C78.4,89.2,77.7,88.4,77.7,86.4z M80.5,83.5h1v4.7h1v0.9h-2V83.5z M82.8,87.5v-4h1v4.1c0,0.5,0.2,0.7,0.4,0.7s0.4-0.2,0.4-0.7v-4.1
		h1v4c0,1.2-0.6,1.7-1.4,1.7S82.8,88.7,82.8,87.5z M86.2,83.5H87c0.9,0,1.8,0.4,1.8,1.4l0,0c0,0.7-0.4,1.1-0.8,1.3
		c0.5,0.2,0.9,0.5,0.9,1.2v0.1c0,1-0.8,1.6-1.9,1.6h-0.9C86.2,89.1,86.2,83.5,86.2,83.5z M87.1,85.9c0.4,0,0.7-0.2,0.7-0.7l0,0
		c0-0.5-0.3-0.7-0.7-0.7l0,0V85.9L87.1,85.9z M87.2,88.2c0.4,0,0.8-0.3,0.8-0.7l0,0c0-0.5-0.3-0.7-0.8-0.7l0,0V88.2L87.2,88.2
		L87.2,88.2z"/>
	<path class="st2" d="M38.4,107.2h1l0.7,2l0.7-2h1v5.6h-0.9v-3.4l-0.7,2.1l0,0l-0.7-2.1v3.4h-0.9C38.4,112.8,38.4,107.2,38.4,107.2z
		 M43,107.2h1l1.1,5.6h-1l-0.2-1.1H43l-0.2,1.1H42L43,107.2z M43.8,110.8l-0.3-1.8l-0.3,1.8H43.8z M45.4,107.2h1v2.3h0.8v-2.3h1v5.6
		h-1v-2.4h-0.8v2.4h-1V107.2z M49.6,107.2h1l1.1,5.6h-1l-0.2-1.1h-0.9l-0.2,1.1h-0.9L49.6,107.2z M50.4,110.8l-0.3-1.8l-0.3,1.8
		H50.4z M52,107.2h1c1,0,1.7,0.5,1.7,1.8v0.1c0,0.7-0.3,1.2-0.7,1.5l0.8,2.3h-1l-0.6-2H53v2h-1V107.2z M53,110
		c0.4,0,0.7-0.2,0.7-0.9V109c0-0.7-0.3-0.9-0.8-0.9l0,0L53,110L53,110z M55.2,107.2h1v5.6h-1V107.2z M56.8,107.2h0.9l1,2.8v-2.8h1
		v5.6h-0.9l-1-3v3h-1C56.8,112.8,56.8,107.2,56.8,107.2z M60.2,107.2h1v5.6h-1V107.2z M61.7,109.2c0.6-0.1,0.7-0.6,0.7-0.9h-0.5
		v-1.1H63v0.9c0,0.8-0.4,1.4-1.2,1.5L61.7,109.2z M63.4,112.6v-1c0.3,0.2,0.6,0.3,0.9,0.3s0.5-0.1,0.5-0.5l0,0c0-0.3-0.1-0.4-0.5-1
		c-0.7-0.8-0.9-1.1-0.9-1.8l0,0c0-0.9,0.6-1.5,1.4-1.5c0.4,0,0.6,0.1,0.9,0.2v1c-0.3-0.2-0.5-0.3-0.7-0.3c-0.3,0-0.5,0.2-0.5,0.5
		l0,0c0,0.3,0.1,0.4,0.5,0.9c0.8,0.9,0.9,1.2,0.9,1.9l0,0c0,0.9-0.6,1.5-1.4,1.5C64.1,112.8,63.7,112.7,63.4,112.6z M67.4,107.2h1
		v4.7h1v0.9h-2C67.4,112.8,67.4,107.2,67.4,107.2z M69.5,110.1v-0.3c0-1.8,0.6-2.7,1.5-2.7s1.5,0.9,1.5,2.7v0.3
		c0,1.8-0.6,2.7-1.5,2.7S69.5,112,69.5,110.1z M71.5,110.1v-0.3c0-1.4-0.2-1.8-0.5-1.8s-0.5,0.4-0.5,1.8v0.3c0,1.4,0.2,1.8,0.5,1.8
		S71.5,111.6,71.5,110.1z M73,111.2v-4h1v4.1c0,0.5,0.2,0.7,0.4,0.7s0.4-0.2,0.4-0.7v-4.1h1v4c0,1.2-0.6,1.7-1.4,1.7
		S73,112.3,73,111.2z M76.3,107.2h0.9l1,2.8v-2.8h1v5.6h-0.9l-1-3v3h-1C76.3,112.8,76.3,107.2,76.3,107.2z M79.7,110.1v-0.2
		c0-1.8,0.8-2.7,1.9-2.7c0.3,0,0.5,0.1,0.7,0.2v1c-0.2-0.1-0.5-0.2-0.7-0.2c-0.6,0-0.9,0.6-0.9,1.8v0.3c0,1.5,0.4,1.8,0.8,1.8
		c0,0,0,0,0.1,0v-1.4h-0.5v-0.9h1.4v3c-0.4,0.2-0.6,0.2-1,0.2C80.5,112.8,79.7,112,79.7,110.1z M83,107.2h2.1v0.9H84v1.4h1v0.9h-1
		v1.4h1.2v0.9H83V107.2z"/>
	<path class="st2" d="M34,565.4h1c1,0,1.7,0.5,1.7,1.8v0.1c0,0.7-0.3,1.2-0.7,1.5l0.8,2.3h-1l-0.6-2H35v2h-1V565.4z M35,568.1
		c0.4,0,0.7-0.2,0.7-0.9v-0.1c0-0.7-0.3-0.9-0.8-0.9l0,0L35,568.1L35,568.1z M37.2,565.4h1c1,0,1.7,0.5,1.7,1.8v0.1
		c0,0.7-0.3,1.2-0.7,1.5L40,571h-1l-0.6-2h-0.2v2h-1V565.4z M38.2,568.1c0.4,0,0.7-0.2,0.7-0.9v-0.1c0-0.7-0.3-0.9-0.8-0.9l0,0
		L38.2,568.1L38.2,568.1z"/>
	<path class="st2" d="M84.5,290.9h1c1,0,1.7,0.5,1.7,1.8v0.1c0,0.7-0.3,1.2-0.7,1.5l0.8,2.3h-1l-0.6-2h-0.2v2h-1
		C84.5,296.6,84.5,290.9,84.5,290.9z M85.5,293.6c0.4,0,0.7-0.2,0.7-0.9v-0.1c0-0.7-0.3-0.9-0.8-0.9l0,0L85.5,293.6L85.5,293.6z
		 M87.7,290.9h1c1,0,1.7,0.5,1.7,1.8v0.1c0,0.7-0.3,1.2-0.7,1.5l0.8,2.3h-1l-0.6-2h-0.2v2h-1C87.7,296.6,87.7,290.9,87.7,290.9z
		 M88.7,293.6c0.4,0,0.7-0.2,0.7-0.9v-0.1c0-0.7-0.3-0.9-0.8-0.9l0,0L88.7,293.6L88.7,293.6z"/>
	<path class="st2" d="M84.5,283h1c1,0,1.7,0.5,1.7,1.8v0.1c0,0.7-0.3,1.2-0.7,1.5l0.8,2.3h-1l-0.6-2h-0.2v2h-1
		C84.5,288.7,84.5,283,84.5,283z M85.5,285.8c0.4,0,0.7-0.2,0.7-0.9v-0.1c0-0.7-0.3-0.9-0.8-0.9l0,0L85.5,285.8L85.5,285.8z
		 M87.7,283h1c1,0,1.7,0.5,1.7,1.8v0.1c0,0.7-0.3,1.2-0.7,1.5l0.8,2.3h-1l-0.6-2h-0.2v2h-1C87.7,288.7,87.7,283,87.7,283z
		 M88.7,285.8c0.4,0,0.7-0.2,0.7-0.9v-0.1c0-0.7-0.3-0.9-0.8-0.9l0,0L88.7,285.8L88.7,285.8z"/>
	<path class="st2" d="M19.9,322.5h1v4.7h1v0.9h-2V322.5z M22.3,322.5h2.1v0.9h-1.2v1.4h1v0.9h-1v1.4h1.2v0.9h-2.2v-5.5H22.3z
		 M26.2,322.5H27c0.9,0,1.8,0.4,1.8,1.4l0,0c0,0.7-0.4,1.1-0.8,1.3c0.5,0.2,0.9,0.5,0.9,1.2v0.1c0,1-0.8,1.6-1.9,1.6h-0.9
		C26.2,328.1,26.2,322.5,26.2,322.5z M27.2,324.8c0.4,0,0.7-0.2,0.7-0.7l0,0c0-0.5-0.3-0.7-0.7-0.7l0,0V324.8L27.2,324.8z
		 M27.2,327.2c0.4,0,0.8-0.3,0.8-0.7l0,0c0-0.5-0.3-0.7-0.8-0.7l0,0V327.2L27.2,327.2L27.2,327.2z M29.4,322.5h1v5.6h-1V322.5z
		 M30.8,327.9v-1c0.3,0.2,0.6,0.3,0.9,0.3s0.5-0.1,0.5-0.5l0,0c0-0.3-0.1-0.4-0.5-1c-0.7-0.8-0.9-1.1-0.9-1.8l0,0
		c0-0.9,0.6-1.5,1.4-1.5c0.4,0,0.6,0.1,0.9,0.2v1c-0.3-0.2-0.5-0.3-0.7-0.3c-0.3,0-0.5,0.2-0.5,0.5l0,0c0,0.3,0.1,0.4,0.5,0.9
		c0.8,0.9,0.9,1.2,0.9,1.9l0,0c0,0.9-0.6,1.5-1.4,1.5C31.4,328.1,31.1,328,30.8,327.9z M34,323.4h-0.7v-0.9h2.4v0.9H35v4.7h-1V323.4
		L34,323.4z M36,322.5h1c1,0,1.7,0.5,1.7,1.8v0.1c0,0.7-0.3,1.2-0.7,1.5l0.8,2.3h-1l-0.6-2H37v2h-1C36,328.1,36,322.5,36,322.5z
		 M37,325.3c0.4,0,0.7-0.2,0.7-0.9v-0.1c0-0.7-0.3-0.9-0.8-0.9l0,0L37,325.3L37,325.3z M39.1,325.4v-0.3c0-1.8,0.6-2.7,1.5-2.7
		s1.5,0.9,1.5,2.7v0.3c0,1.8-0.6,2.7-1.5,2.7C39.7,328.2,39.1,327.3,39.1,325.4z M41.1,325.4v-0.3c0-1.4-0.2-1.8-0.5-1.8
		s-0.5,0.4-0.5,1.8v0.3c0,1.4,0.2,1.8,0.5,1.8C40.9,327.3,41.1,326.9,41.1,325.4z"/>
	<path class="st2" d="M51.5,342.3v-1l3.6-0.5l-3.6-0.5v-1l5.6,1v1L51.5,342.3z M51.5,339v-1h5.6v1H51.5z M51.5,337.4v-0.9
		c0-1.2,0.9-2,2.7-2h0.2c1.8,0,2.7,0.7,2.7,2v0.9H51.5z M56.2,336.4c0-0.5-0.4-0.9-1.8-0.9h-0.2c-1.4,0-1.8,0.4-1.8,0.9l0,0H56.2
		L56.2,336.4z M51.5,334.1V332h0.9v1.2h1.4v-1h0.9v1h1.4V332H57v2.2L51.5,334.1L51.5,334.1z M54.5,331.6h-0.3
		c-1.8,0-2.7-0.6-2.7-1.5s0.9-1.5,2.7-1.5h0.3c1.8,0,2.7,0.6,2.7,1.5S56.3,331.6,54.5,331.6z M54.5,329.6h-0.3
		c-1.4,0-1.8,0.2-1.8,0.5s0.4,0.5,1.8,0.5h0.3c1.4,0,1.8-0.2,1.8-0.5C56.3,329.8,55.9,329.6,54.5,329.6z M51.5,326.1v-1l5.6-1.1v1
		l-1.1,0.2v0.9l1.1,0.2v0.9L51.5,326.1z M55.1,325.3l-1.8,0.3l1.8,0.3V325.3z M51.5,323.7v-1c0-1,0.5-1.7,1.8-1.7h0.1
		c0.7,0,1.2,0.3,1.5,0.7l2.3-0.8v1l-2,0.6v0.2h2v1L51.5,323.7L51.5,323.7z M54.3,322.7c0-0.4-0.2-0.7-0.9-0.7h-0.1
		c-0.7,0-0.9,0.3-0.9,0.8l0,0L54.3,322.7L54.3,322.7z M54.4,320.6h-0.2c-2,0-2.7-0.7-2.7-1.6c0-0.3,0-0.4,0.1-0.6h1
		c-0.1,0.2-0.2,0.4-0.2,0.5c0,0.4,0.4,0.7,1.8,0.7h0.2c1.5,0,1.8-0.3,1.8-0.8c0-0.2-0.1-0.3-0.2-0.5h1c0.1,0.2,0.2,0.4,0.2,0.7
		C57.2,319.9,56.4,320.6,54.4,320.6z M51.5,317v-1l5.6-1.1v1l-1.1,0.2v0.9l1.1,0.2v0.9L51.5,317z M55.1,316.2l-1.8,0.3l1.8,0.3
		V316.2z M51.5,314.6v-0.9c0-1.2,0.9-2,2.7-2h0.2c1.8,0,2.7,0.7,2.7,2v0.9H51.5z M56.2,313.6c0-0.5-0.4-0.9-1.8-0.9h-0.2
		c-1.4,0-1.8,0.4-1.8,0.9l0,0H56.2L56.2,313.6z M51.5,311.3v-2.1h0.9v1.2h1.4v-1h0.9v1h1.4v-1.2H57v2.2L51.5,311.3L51.5,311.3z"/>
	<path class="st2" d="M75.1,324.6v-1c0.3,0.2,0.6,0.3,0.9,0.3s0.5-0.1,0.5-0.5l0,0c0-0.3-0.1-0.4-0.5-1c-0.7-0.8-0.9-1.1-0.9-1.8
		l0,0c0-0.9,0.6-1.5,1.4-1.5c0.4,0,0.6,0.1,0.9,0.2v1c-0.3-0.2-0.5-0.3-0.7-0.3c-0.3,0-0.5,0.2-0.5,0.5l0,0c0,0.3,0.1,0.4,0.5,0.9
		c0.8,0.9,0.9,1.2,0.9,1.9l0,0c0,0.9-0.6,1.5-1.4,1.5C75.8,324.8,75.4,324.7,75.1,324.6z M77.9,319.2h1v2.3h0.8v-2.3h1v5.6h-1v-2.4
		h-0.8v2.4h-1V319.2z M82,319.2h1l1.1,5.6h-1l-0.2-1.1H82l-0.2,1.1H81L82,319.2z M82.8,322.8l-0.3-1.8l-0.3,1.8H82.8z M84.4,319.2
		h0.9l1,2.8v-2.8h1v5.6h-0.9l-1-3v3h-1V319.2L84.4,319.2z M87.8,322.1v-0.2c0-1.8,0.8-2.7,1.9-2.7c0.3,0,0.5,0.1,0.7,0.2v1
		c-0.2-0.1-0.5-0.2-0.7-0.2c-0.6,0-0.9,0.6-0.9,1.8v0.3c0,1.5,0.4,1.8,0.8,1.8c0,0,0,0,0.1,0v-1.4h-0.5v-0.9h1.4v3
		c-0.4,0.2-0.6,0.2-1,0.2C88.6,324.8,87.8,324,87.8,322.1z M91.1,319.2h1v2.3h0.8v-2.3h1v5.6h-1v-2.4h-0.8v2.4h-1V319.2L91.1,319.2z
		 M95.2,319.2h1l1.1,5.6h-1l-0.2-1.1h-0.9l-0.2,1.1h-0.9L95.2,319.2z M96,322.8l-0.3-1.8l-0.3,1.8H96z M97.7,319.2h1v5.6h-1V319.2z
		 M82.5,327.2h0.8c0.9,0,1.8,0.4,1.8,1.4l0,0c0,0.7-0.4,1.1-0.8,1.3c0.5,0.2,0.9,0.5,0.9,1.2v0.1c0,1-0.8,1.6-1.9,1.6h-0.9
		L82.5,327.2L82.5,327.2z M83.5,329.5c0.4,0,0.7-0.2,0.7-0.7l0,0c0-0.5-0.3-0.7-0.7-0.7l0,0V329.5L83.5,329.5z M83.5,331.9
		c0.4,0,0.8-0.3,0.8-0.7l0,0c0-0.5-0.3-0.7-0.8-0.7l0,0V331.9L83.5,331.9L83.5,331.9z M86.4,327.2h1l1.1,5.6h-1l-0.2-1.1h-0.9
		l-0.2,1.1h-0.9L86.4,327.2z M87.2,330.8l-0.3-1.8l-0.3,1.8H87.2z M88.8,327.2h1c1,0,1.7,0.5,1.7,1.8v0.1c0,0.7-0.3,1.2-0.7,1.5
		l0.8,2.3h-1l-0.6-2h-0.2v2h-1C88.8,332.9,88.8,327.2,88.8,327.2z M89.8,329.9c0.4,0,0.7-0.2,0.7-0.9l0,0c0-0.7-0.3-0.9-0.8-0.9l0,0
		L89.8,329.9L89.8,329.9z"/>
	<path class="st2" d="M111.3,362.1v0.7h-0.9v-2.4h0.9v0.7h4.7v1L111.3,362.1L111.3,362.1z M110.4,360.1v-1h2.3v-0.8h-2.3v-1h5.6v1
		h-2.4v0.8h2.4v1H110.4z M110.4,356.7v-2.1h0.9v1.2h1.4v-1h0.9v1h1.4v-1.2h0.9v2.2L110.4,356.7L110.4,356.7z M110.4,352.8v-0.9
		c0-1.1,0.6-1.8,1.9-1.8l0,0c1.3,0,1.9,0.7,1.9,1.7l0,0h1.8v1L110.4,352.8L110.4,352.8z M113.3,351.8c0-0.4-0.3-0.7-1-0.7l0,0
		c-0.7,0-1,0.3-1,0.7l0,0H113.3L113.3,351.8L113.3,351.8z M110.4,349.7v-1c0-1,0.5-1.7,1.8-1.7h0.1c0.7,0,1.2,0.3,1.5,0.7l2.3-0.8v1
		l-2,0.6v0.2h2v1L110.4,349.7L110.4,349.7z M113.2,348.7c0-0.4-0.2-0.7-0.9-0.7h-0.1c-0.7,0-0.9,0.3-0.9,0.8l0,0L113.2,348.7
		L113.2,348.7z M113.3,346.6H113c-1.8,0-2.7-0.6-2.7-1.5s0.9-1.5,2.7-1.5h0.3c1.8,0,2.7,0.6,2.7,1.5S115.2,346.6,113.3,346.6z
		 M113.3,344.6H113c-1.4,0-1.8,0.2-1.8,0.5s0.4,0.5,1.8,0.5h0.3c1.4,0,1.8-0.2,1.8-0.5S114.8,344.6,113.3,344.6z M110.4,343.2v-1
		l2-0.7l-2-0.7v-1h5.6v0.9h-3.4l2.1,0.7l0,0l-2.1,0.7h3.4v0.9L110.4,343.2L110.4,343.2z M110.4,339.3v-2.1h0.9v1.2h1.4v-1h0.9v1h1.4
		v-1.2h0.9v2.2h-5.5V339.3z M110.4,336.6v-0.9l2.8-1h-2.8v-1h5.6v0.9l-3,1h3v1H110.4z M110.4,332.4v-1l5.6-1.1v1l-1.1,0.2v0.9
		l1.1,0.2v0.9L110.4,332.4z M114,331.6l-1.8,0.3l1.8,0.3V331.6z M110.4,330v-0.9c0-1.2,0.9-2,2.7-2h0.2c1.8,0,2.7,0.7,2.7,2v0.9
		H110.4z M115.1,329c0-0.5-0.4-0.9-1.8-0.9h-0.2c-1.4,0-1.8,0.4-1.8,0.9l0,0H115.1L115.1,329z M110.4,326.7v-2.1h0.9v1.2h1.4v-1h0.9
		v1h1.4v-1.2h0.9v2.2h-5.5V326.7z"/>
	<path class="st2" d="M6.5,362.1v0.7H5.6v-2.4h0.9v0.7h4.7v1L6.5,362.1L6.5,362.1z M5.6,360.1v-1h2.3v-0.8H5.6v-1h5.6v1H8.8v0.8h2.4
		v1H5.6z M5.6,356.7v-2.1h0.9v1.2h1.4v-1h0.9v1h1.4v-1.2h0.9v2.2L5.6,356.7L5.6,356.7z M5.6,352.8v-0.9c0-1.1,0.6-1.8,1.9-1.8l0,0
		c1.3,0,1.9,0.7,1.9,1.7l0,0h1.8v1L5.6,352.8L5.6,352.8z M8.5,351.8c0-0.4-0.3-0.7-1-0.7l0,0c-0.7,0-1,0.3-1,0.7l0,0H8.5L8.5,351.8z
		 M5.6,349.7v-1c0-1,0.5-1.7,1.8-1.7h0.1c0.7,0,1.2,0.3,1.5,0.7l2.3-0.8v1l-2,0.6v0.2h2v1L5.6,349.7L5.6,349.7z M8.3,348.7
		c0-0.4-0.2-0.7-0.9-0.7l0,0c-0.7,0-0.9,0.3-0.9,0.8l0,0L8.3,348.7L8.3,348.7L8.3,348.7z M8.5,346.6H8.2c-1.8,0-2.7-0.6-2.7-1.5
		s0.9-1.5,2.7-1.5h0.3c1.8,0,2.7,0.6,2.7,1.5S10.3,346.6,8.5,346.6z M8.5,344.6H8.2c-1.4,0-1.8,0.2-1.8,0.5s0.4,0.5,1.8,0.5h0.3
		c1.4,0,1.8-0.2,1.8-0.5S9.9,344.6,8.5,344.6z M5.6,343.2v-1l2-0.7l-2-0.7v-1h5.6v0.9H7.8l2.1,0.7l0,0l-2.1,0.7h3.4v0.9L5.6,343.2
		L5.6,343.2z M5.6,339.3v-2.1h0.9v1.2h1.4v-1h0.9v1h1.4v-1.2h0.9v2.2L5.6,339.3L5.6,339.3z M5.6,336.6v-0.9l2.8-1H5.6v-1h5.6v0.9
		l-3,1h3v1H5.6z M5.5,332.4v-1l5.6-1.1v1l-1.1,0.2v0.9l1.1,0.2v0.9L5.5,332.4z M9.2,331.6l-1.8,0.3l1.8,0.3V331.6z M5.6,330v-0.9
		c0-1.2,0.9-2,2.7-2h0.2c1.8,0,2.7,0.7,2.7,2v0.9H5.6z M10.3,329c0-0.5-0.4-0.9-1.8-0.9H8.3c-1.4,0-1.8,0.4-1.8,0.9l0,0H10.3
		L10.3,329z M5.6,326.7v-2.1h0.9v1.2h1.4v-1h0.9v1h1.4v-1.2h0.9v2.2L5.6,326.7L5.6,326.7z"/>
	<path class="st2" d="M21.3,374.6h1v2.3h0.8v-2.3h1v5.6h-1v-2.4h-0.8v2.4h-1V374.6z M24.7,374.6h2.1v0.9h-1.2v1.4h1v0.9h-1v1.4h1.2
		v0.9h-2.2v-5.5H24.7z M27.4,374.6h0.9l1,2.8v-2.8h1v5.6h-0.9l-1-3v3h-1V374.6z M30.8,374.6h1c1,0,1.7,0.5,1.7,1.8v0.1
		c0,0.7-0.3,1.2-0.7,1.5l0.8,2.3h-1l-0.6-2h-0.2v2h-1C30.8,380.3,30.8,374.6,30.8,374.6z M31.8,377.3c0.4,0,0.7-0.2,0.7-0.9v-0.1
		c0-0.7-0.3-0.9-0.8-0.9l0,0L31.8,377.3L31.8,377.3z M34.6,378l-1-3.4h1l0.5,2.1l0.5-2.1h1l-1,3.4v2.2h-1V378L34.6,378z M36.8,376.6
		c0.6-0.1,0.7-0.6,0.7-0.9H37v-1.1h1.1v0.9c0,0.8-0.4,1.4-1.2,1.5L36.8,376.6z M38.5,380v-1c0.3,0.2,0.6,0.3,0.9,0.3
		c0.3,0,0.5-0.1,0.5-0.5l0,0c0-0.3-0.1-0.4-0.5-1c-0.7-0.8-0.9-1.1-0.9-1.8l0,0c0-0.9,0.6-1.5,1.4-1.5c0.4,0,0.6,0.1,0.9,0.2v1
		c-0.3-0.2-0.5-0.3-0.7-0.3c-0.3,0-0.5,0.2-0.5,0.5l0,0c0,0.3,0.1,0.4,0.5,0.9c0.8,0.9,0.9,1.2,0.9,1.9l0,0c0,0.9-0.6,1.5-1.4,1.5
		C39.2,380.2,38.8,380.1,38.5,380z M42.5,374.6h0.9c1.1,0,1.8,0.6,1.8,1.9l0,0c0,1.3-0.7,1.9-1.7,1.9l0,0v1.8h-1V374.6z M43.5,377.5
		c0.4,0,0.7-0.3,0.7-1l0,0c0-0.7-0.3-1-0.7-1l0,0V377.5L43.5,377.5L43.5,377.5z M45.6,378.5v-4h1v4.1c0,0.5,0.2,0.7,0.4,0.7
		s0.4-0.2,0.4-0.7v-4.1h1v4c0,1.2-0.6,1.7-1.4,1.7S45.6,379.7,45.6,378.5z M48.9,374.6h0.8c0.9,0,1.8,0.4,1.8,1.4l0,0
		c0,0.7-0.4,1.1-0.8,1.3c0.5,0.2,0.9,0.5,0.9,1.2v0.1c0,1-0.8,1.6-1.9,1.6h-0.9v-5.6H48.9z M49.9,376.9c0.4,0,0.7-0.2,0.7-0.7l0,0
		c0-0.5-0.3-0.7-0.7-0.7l0,0V376.9L49.9,376.9z M49.9,379.3c0.4,0,0.8-0.3,0.8-0.7l0,0c0-0.5-0.3-0.7-0.8-0.7l0,0V379.3L49.9,379.3
		L49.9,379.3z"/>
	<path class="st2" d="M83.5,366.1h0.8c0.9,0,1.8,0.4,1.8,1.4l0,0c0,0.7-0.4,1.1-0.8,1.3c0.5,0.2,0.9,0.5,0.9,1.2v0.1
		c0,1-0.8,1.6-1.9,1.6h-0.9C83.5,371.7,83.5,366.1,83.5,366.1z M84.5,368.5c0.4,0,0.7-0.2,0.7-0.7l0,0c0-0.5-0.3-0.7-0.7-0.7l0,0
		V368.5L84.5,368.5L84.5,368.5z M84.5,370.8c0.4,0,0.8-0.3,0.8-0.7l0,0c0-0.5-0.3-0.7-0.8-0.7l0,0V370.8L84.5,370.8z M86.7,366.1h1
		v4.7h1v0.9h-2V366.1z M89,370.1v-4h1v4.1c0,0.5,0.2,0.7,0.4,0.7s0.4-0.2,0.4-0.7v-4.1h1v4c0,1.2-0.6,1.7-1.4,1.7S89,371.3,89,370.1
		z M92.3,366.1h2.1v0.9h-1.2v1.4h1v0.9h-1v1.4h1.2v0.9h-2.2L92.3,366.1L92.3,366.1z M80.5,374.1h1v4.7h1v0.9h-2V374.1z M83.6,374.1
		h1l1.1,5.6h-1l-0.2-1.1h-0.9l-0.2,1.1h-0.9L83.6,374.1z M84.4,377.7l-0.3-1.8l-0.3,1.8H84.4z M85.8,377v-0.2c0-1.8,0.8-2.7,1.9-2.7
		c0.3,0,0.5,0.1,0.7,0.2v1c-0.2-0.1-0.5-0.2-0.7-0.2c-0.6,0-0.9,0.6-0.9,1.8v0.3c0,1.5,0.4,1.8,0.8,1.8c0,0,0,0,0.1,0v-1.4h-0.5
		v-0.9h1.4v3c-0.4,0.2-0.6,0.2-1,0.2C86.6,379.8,85.8,379,85.8,377z M89.1,377.1v-0.3c0-1.8,0.6-2.7,1.5-2.7s1.5,0.9,1.5,2.7v0.3
		c0,1.8-0.6,2.7-1.5,2.7S89.1,378.9,89.1,377.1z M91.1,377.1v-0.3c0-1.4-0.2-1.8-0.5-1.8s-0.5,0.4-0.5,1.8v0.3
		c0,1.4,0.2,1.8,0.5,1.8S91.1,378.5,91.1,377.1z M92.4,377.1v-0.3c0-1.8,0.6-2.7,1.5-2.7s1.5,0.9,1.5,2.7v0.3c0,1.8-0.6,2.7-1.5,2.7
		S92.4,378.9,92.4,377.1z M94.4,377.1v-0.3c0-1.4-0.2-1.8-0.5-1.8s-0.5,0.4-0.5,1.8v0.3c0,1.4,0.2,1.8,0.5,1.8
		S94.4,378.5,94.4,377.1z M95.9,374.1h0.9l1,2.8v-2.8h1v5.6h-0.9l-1-3v3h-1V374.1L95.9,374.1z M78.4,386.9l0.9-2.2
		c0.3-0.6,0.4-1,0.4-1.2c0-0.3-0.2-0.5-0.5-0.5s-0.5,0.1-0.7,0.2v-0.9c0.3-0.1,0.6-0.2,0.9-0.2c0.7,0,1.2,0.4,1.2,1.2l0,0
		c0,0.4-0.1,0.8-0.4,1.5l-0.8,1.9h1.2v1h-2.3v-0.8H78.4z M82.3,386.7h-1.5V386l1.5-3.8h1v3.7h0.5v0.8h-0.5v1h-0.9L82.3,386.7
		L82.3,386.7z M82.3,385.9v-2l-0.7,2H82.3z M84.1,384.8h2.1v1h-2.1V384.8z M86.8,382.1h1v2.3h0.8v-2.3h1v5.6h-1v-2.4h-0.8v2.4h-1
		V382.1z M90,385.1v-0.3c0-1.8,0.6-2.7,1.5-2.7s1.5,0.9,1.5,2.7v0.3c0,1.8-0.6,2.7-1.5,2.7S90,386.9,90,385.1z M92,385.1v-0.3
		c0-1.4-0.2-1.8-0.5-1.8s-0.5,0.4-0.5,1.8v0.3c0,1.4,0.2,1.8,0.5,1.8S92,386.5,92,385.1z M93.5,386.1v-4h1v4.1
		c0,0.5,0.2,0.7,0.4,0.7c0.2,0,0.4-0.2,0.4-0.7v-4.1h1v4c0,1.2-0.6,1.7-1.4,1.7C94.1,387.8,93.5,387.3,93.5,386.1z M96.8,382.1h1
		c1,0,1.7,0.5,1.7,1.8v0.1c0,0.7-0.3,1.2-0.7,1.5l0.8,2.3h-1l-0.6-2h-0.2v2h-1C96.8,387.8,96.8,382.1,96.8,382.1z M97.8,384.9
		c0.4,0,0.7-0.2,0.7-0.9v-0.1c0-0.7-0.3-0.9-0.8-0.9l0,0L97.8,384.9L97.8,384.9z M81.4,390.1h2.1v0.9h-1.2v1.4h1v0.9h-1v1.4h1.2v0.9
		h-2.2L81.4,390.1L81.4,390.1z M84.9,390.1h1l1.1,5.6h-1l-0.2-1.1h-0.9l-0.2,1.1h-0.9L84.9,390.1z M85.7,393.7l-0.3-1.8l-0.3,1.8
		H85.7z M87.5,391.1h-0.7v-0.9h2.4v0.9h-0.7v4.7h-1L87.5,391.1L87.5,391.1z M89.6,390.1h2.1v0.9h-1.2v1.4h1v0.9h-1v1.4h1.2v0.9h-2.2
		L89.6,390.1L89.6,390.1z M92.3,390.1h1c1,0,1.7,0.5,1.7,1.8v0.1c0,0.7-0.3,1.2-0.7,1.5l0.8,2.3h-1l-0.6-2h-0.2v2h-1
		C92.3,395.7,92.3,390.1,92.3,390.1z M93.3,392.9c0.4,0,0.7-0.2,0.7-0.9v-0.1c0-0.7-0.3-0.9-0.8-0.9l0,0L93.3,392.9L93.3,392.9z
		 M96,393.5l-1-3.4h1l0.5,2.1l0.5-2.1h1l-1,3.4v2.2h-1V393.5L96,393.5z"/>
	<path class="st2" d="M43.3,458.8v-0.2c0-1.8,0.8-2.7,1.9-2.7c0.3,0,0.5,0.1,0.7,0.2v1c-0.2-0.1-0.5-0.2-0.7-0.2
		c-0.6,0-0.9,0.6-0.9,1.8v0.3c0,1.5,0.4,1.8,0.8,1.8c0,0,0,0,0.1,0v-1.4h-0.5v-0.9h1.4v3c-0.4,0.2-0.6,0.2-1,0.2
		C44.1,461.6,43.3,460.8,43.3,458.8z M46.6,459.9v-4h1v4.1c0,0.5,0.2,0.7,0.4,0.7s0.4-0.2,0.4-0.7v-4.1h1v4c0,1.2-0.6,1.7-1.4,1.7
		S46.6,461.1,46.6,459.9z M49.9,455.9H52v0.9h-1.2v1.4h1v0.9h-1v1.4H52v0.9h-2.2v-5.5H49.9z M52.5,461.3v-1c0.3,0.2,0.6,0.3,0.9,0.3
		c0.3,0,0.5-0.1,0.5-0.5l0,0c0-0.3-0.1-0.4-0.5-1c-0.7-0.8-0.9-1.1-0.9-1.8l0,0c0-0.9,0.6-1.5,1.4-1.5c0.4,0,0.6,0.1,0.9,0.2v1
		c-0.3-0.2-0.5-0.3-0.7-0.3c-0.3,0-0.5,0.2-0.5,0.5l0,0c0,0.3,0.1,0.4,0.5,0.9c0.8,0.9,0.9,1.2,0.9,1.9l0,0c0,0.9-0.6,1.5-1.4,1.5
		C53.1,461.6,52.7,461.5,52.5,461.3z M55.6,456.8h-0.7v-0.9h2.4v0.9h-0.7v4.7h-1V456.8L55.6,456.8z M58.8,461.3v-1
		c0.3,0.2,0.6,0.3,0.9,0.3c0.3,0,0.5-0.1,0.5-0.5l0,0c0-0.3-0.1-0.4-0.5-1c-0.7-0.8-0.9-1.1-0.9-1.8l0,0c0-0.9,0.6-1.5,1.4-1.5
		c0.4,0,0.6,0.1,0.9,0.2v1c-0.3-0.2-0.5-0.3-0.7-0.3c-0.3,0-0.5,0.2-0.5,0.5l0,0c0,0.3,0.1,0.4,0.5,0.9c0.8,0.9,0.9,1.2,0.9,1.9l0,0
		c0,0.9-0.6,1.5-1.4,1.5C59.4,461.6,59.1,461.5,58.8,461.3z M61.5,455.9h2.1v0.9h-1.2v1.4h1v0.9h-1v1.4h1.2v0.9h-2.2v-5.5H61.5z
		 M64.2,455.9h1c1,0,1.7,0.5,1.7,1.8v0.1c0,0.7-0.3,1.2-0.7,1.5l0.8,2.3h-1l-0.6-2h-0.2v2h-1C64.2,461.5,64.2,455.9,64.2,455.9z
		 M65.2,458.7c0.4,0,0.7-0.2,0.7-0.9v-0.1c0-0.7-0.3-0.9-0.8-0.9l0,0L65.2,458.7L65.2,458.7L65.2,458.7z M67.1,455.9h1l0.5,3.6
		l0.5-3.6h1l-1,5.6h-1L67.1,455.9z M70.4,455.9h1v5.6h-1V455.9z M71.9,458.8v-0.2c0-2,0.7-2.7,1.6-2.7c0.3,0,0.4,0,0.6,0.1v1
		c-0.2-0.1-0.4-0.2-0.5-0.2c-0.4,0-0.7,0.4-0.7,1.8v0.2c0,1.5,0.3,1.8,0.8,1.8c0.2,0,0.3-0.1,0.5-0.2v1c-0.2,0.1-0.4,0.2-0.7,0.2
		C72.5,461.6,71.9,460.8,71.9,458.8z M74.6,455.9h2.1v0.9h-1.2v1.4h1v0.9h-1v1.4h1.2v0.9h-2.2L74.6,455.9L74.6,455.9z M77.2,461.3
		v-1c0.3,0.2,0.6,0.3,0.9,0.3s0.5-0.1,0.5-0.5l0,0c0-0.3-0.1-0.4-0.5-1c-0.7-0.8-0.9-1.1-0.9-1.8l0,0c0-0.9,0.6-1.5,1.4-1.5
		c0.4,0,0.6,0.1,0.9,0.2v1c-0.3-0.2-0.5-0.3-0.7-0.3c-0.3,0-0.5,0.2-0.5,0.5l0,0c0,0.3,0.1,0.4,0.5,0.9c0.8,0.9,0.9,1.2,0.9,1.9l0,0
		c0,0.9-0.6,1.5-1.4,1.5C77.8,461.6,77.4,461.5,77.2,461.3z"/>
	<path class="st2" d="M41.7,482.4v-0.2c0-1.8,0.8-2.7,1.9-2.7c0.3,0,0.5,0.1,0.7,0.2v1c-0.2-0.1-0.5-0.2-0.7-0.2
		c-0.6,0-0.9,0.6-0.9,1.8v0.3c0,1.5,0.4,1.8,0.8,1.8c0,0,0,0,0.1,0V483h-0.5v-0.9h1.4v3c-0.4,0.2-0.6,0.2-1,0.2
		C42.5,485.1,41.7,484.4,41.7,482.4z M45.1,479.5h1c1,0,1.7,0.5,1.7,1.8v0.1c0,0.7-0.3,1.2-0.7,1.5l0.8,2.3h-1l-0.6-2H46v2h-1
		C45.1,485.1,45.1,479.5,45.1,479.5z M46.1,482.3c0.4,0,0.7-0.2,0.7-0.9v-0.1c0-0.7-0.3-0.9-0.8-0.9l0,0L46.1,482.3L46.1,482.3
		L46.1,482.3z M49,479.5h1l1.1,5.6h-1L50,484h-0.9l-0.2,1.1H48L49,479.5z M49.8,483.1l-0.3-1.8l-0.3,1.8H49.8z M51.4,479.5h0.9
		l1,2.8v-2.8h1v5.6h-0.9l-1-3v3h-1V479.5z M54.8,479.5h0.9c1.2,0,2,0.9,2,2.7v0.2c0,1.8-0.7,2.7-2,2.7h-0.9V479.5z M55.9,484.2
		c0.5,0,0.9-0.4,0.9-1.8v-0.2c0-1.4-0.4-1.8-0.9-1.8l0,0V484.2L55.9,484.2z M59.4,482.4v-0.2c0-2,0.7-2.7,1.6-2.7
		c0.3,0,0.4,0,0.6,0.1v1c-0.2-0.1-0.4-0.2-0.5-0.2c-0.4,0-0.7,0.4-0.7,1.8v0.2c0,1.5,0.3,1.8,0.8,1.8c0.2,0,0.3-0.1,0.5-0.2v1
		c-0.2,0.1-0.4,0.2-0.7,0.2C60.1,485.1,59.4,484.4,59.4,482.4z M62.2,479.5h2.1v0.9h-1.2v1.4h1v0.9h-1v1.4h1.2v0.9h-2.2L62.2,479.5
		L62.2,479.5z M64.8,479.5h0.9l1,2.8v-2.8h1v5.6h-0.9l-1-3v3h-1V479.5L64.8,479.5z M68.7,480.4H68v-0.9h2.4v0.9h-0.7v4.7h-1
		L68.7,480.4L68.7,480.4z M70.8,479.5h1c1,0,1.7,0.5,1.7,1.8v0.1c0,0.7-0.3,1.2-0.7,1.5l0.8,2.3h-1l-0.6-2h-0.2v2h-1
		C70.8,485.2,70.8,479.5,70.8,479.5z M71.8,482.3c0.4,0,0.7-0.2,0.7-0.9v-0.1c0-0.7-0.3-0.9-0.8-0.9l0,0L71.8,482.3L71.8,482.3
		L71.8,482.3z M73.9,483.5v-4h1v4.1c0,0.5,0.2,0.7,0.4,0.7s0.4-0.2,0.4-0.7v-4.1h1v4c0,1.2-0.6,1.7-1.4,1.7S73.9,484.6,73.9,483.5z
		 M77.3,479.5h1l0.7,2l0.7-2h1v5.6h-0.9v-3.4l-0.7,2.1l0,0l-0.7-2.1v3.4h-0.9C77.3,485.1,77.3,479.5,77.3,479.5z"/>
	<path class="st2" d="M99,520.5h-1c0.2-0.3,0.3-0.6,0.3-0.9c0-0.3-0.1-0.5-0.5-0.5l0,0c-0.3,0-0.4,0.1-1,0.5
		c-0.8,0.7-1.1,0.9-1.8,0.9l0,0c-0.9,0-1.5-0.6-1.5-1.4c0-0.4,0.1-0.6,0.2-0.9h1c-0.2,0.3-0.3,0.5-0.3,0.7c0,0.3,0.2,0.5,0.5,0.5
		l0,0c0.3,0,0.4-0.1,0.9-0.5c0.9-0.8,1.2-0.9,1.9-0.9l0,0c0.9,0,1.5,0.6,1.5,1.4C99.3,519.9,99.2,520.2,99,520.5z M93.6,517.8v-1
		h2.3V516h-2.3v-1h5.6v1h-2.4v0.8h2.4v1H93.6z M96.6,514.5h-0.3c-1.8,0-2.7-0.6-2.7-1.5s0.9-1.5,2.7-1.5h0.3c1.8,0,2.7,0.6,2.7,1.5
		S98.4,514.5,96.6,514.5z M96.6,512.5h-0.3c-1.4,0-1.8,0.2-1.8,0.5s0.4,0.5,1.8,0.5h0.3c1.4,0,1.8-0.2,1.8-0.5S98,512.5,96.6,512.5z
		 M93.6,511v-1c0-1,0.5-1.7,1.8-1.7h0.1c0.7,0,1.2,0.3,1.5,0.7l2.3-0.8v1l-2,0.6v0.2h2v1L93.6,511L93.6,511z M96.4,510
		c0-0.4-0.2-0.7-0.9-0.7h-0.1c-0.7,0-0.9,0.3-0.9,0.8l0,0L96.4,510L96.4,510z M93.6,507.8v-2.1h0.9v1.2h1.4v-1h0.9v1h1.4v-1.2h0.9
		v2.2L93.6,507.8L93.6,507.8z M93.6,503.9v-2.1h0.9v1.2h1.4v-1h0.9v1h1.4v-1.2h0.9v2.2L93.6,503.9L93.6,503.9z M96.4,500.6l-2.7,0.9
		v-1l1.6-0.4l-1.6-0.4v-1l2.7,0.9l2.9-0.9v1l-1.7,0.5l1.7,0.5v1L96.4,500.6z M96.5,498.4h-0.2c-2,0-2.7-0.7-2.7-1.6
		c0-0.3,0-0.4,0.1-0.6h1c-0.1,0.2-0.2,0.4-0.2,0.5c0,0.4,0.4,0.7,1.8,0.7h0.2c1.5,0,1.8-0.3,1.8-0.8c0-0.2-0.1-0.3-0.2-0.5h1
		c0.1,0.2,0.2,0.4,0.2,0.7C99.3,497.7,98.5,498.4,96.5,498.4z M97.6,495.6h-4v-1h4.1c0.5,0,0.7-0.2,0.7-0.4s-0.2-0.4-0.7-0.4h-4.1
		v-1h4c1.2,0,1.7,0.6,1.7,1.4S98.8,495.6,97.6,495.6z M93.6,492.3v-1c0-1,0.5-1.7,1.8-1.7h0.1c0.7,0,1.2,0.3,1.5,0.7l2.3-0.8v1
		l-2,0.6v0.2h2v1L93.6,492.3L93.6,492.3z M96.4,491.3c0-0.4-0.2-0.7-0.9-0.7h-0.1c-0.7,0-0.9,0.3-0.9,0.8l0,0L96.4,491.3L96.4,491.3
		z M99,489.2h-1c0.2-0.3,0.3-0.6,0.3-0.9s-0.1-0.5-0.5-0.5l0,0c-0.3,0-0.4,0.1-1,0.5c-0.8,0.7-1.1,0.9-1.8,0.9l0,0
		c-0.9,0-1.5-0.6-1.5-1.4c0-0.4,0.1-0.6,0.2-0.9h1c-0.2,0.3-0.3,0.5-0.3,0.7c0,0.3,0.2,0.5,0.5,0.5l0,0c0.3,0,0.4-0.1,0.9-0.5
		c0.9-0.8,1.2-0.9,1.9-0.9l0,0c0.9,0,1.5,0.6,1.5,1.4C99.3,488.6,99.2,489,99,489.2z M93.6,486.5v-1h5.6v1H93.6z M96.6,485h-0.3
		c-1.8,0-2.7-0.6-2.7-1.5s0.9-1.5,2.7-1.5h0.3c1.8,0,2.7,0.6,2.7,1.5S98.4,485,96.6,485z M96.6,483h-0.3c-1.4,0-1.8,0.2-1.8,0.5
		s0.4,0.5,1.8,0.5h0.3c1.4,0,1.8-0.2,1.8-0.5S98,483,96.6,483z M93.6,481.6v-0.9l2.8-1h-2.8v-1h5.6v0.9l-3,1h3v1H93.6z M99,478.3h-1
		c0.2-0.3,0.3-0.6,0.3-0.9s-0.1-0.5-0.5-0.5l0,0c-0.3,0-0.4,0.1-1,0.5c-0.8,0.7-1.1,0.9-1.8,0.9l0,0c-0.9,0-1.5-0.6-1.5-1.4
		c0-0.4,0.1-0.6,0.2-0.9h1c-0.2,0.3-0.3,0.5-0.3,0.7c0,0.3,0.2,0.5,0.5,0.5l0,0c0.3,0,0.4-0.1,0.9-0.5c0.9-0.8,1.2-0.9,1.9-0.9l0,0
		c0.9,0,1.5,0.6,1.5,1.4C99.3,477.7,99.2,478,99,478.3z"/>
	<path class="st2" d="M28.1,629.9v-0.2c0-2,0.7-2.7,1.6-2.7c0.3,0,0.4,0,0.6,0.1v1c-0.2-0.1-0.4-0.2-0.5-0.2c-0.4,0-0.7,0.4-0.7,1.8
		v0.2c0,1.5,0.3,1.8,0.8,1.8c0.2,0,0.3-0.1,0.5-0.2v1c-0.2,0.1-0.4,0.2-0.7,0.2C28.7,632.7,28.1,631.9,28.1,629.9z M31.6,627h1
		l1.1,5.6h-1l-0.2-1.1h-0.9l-0.2,1.1h-0.9L31.6,627z M32.4,630.6l-0.3-1.8l-0.3,1.8H32.4z M33.8,629.9v-0.2c0-1.8,0.8-2.7,1.9-2.7
		c0.3,0,0.5,0.1,0.7,0.2v1c-0.2-0.1-0.5-0.2-0.7-0.2c-0.6,0-0.9,0.6-0.9,1.8v0.3c0,1.5,0.4,1.8,0.8,1.8c0,0,0,0,0.1,0v-1.4h-0.5
		v-0.9h1.4v3c-0.4,0.2-0.6,0.2-1,0.2C34.7,632.7,33.8,631.9,33.8,629.9z M37.2,627h0.9l1,2.8V627h1v5.6h-0.9l-1-3v3h-1V627z
		 M40.6,627h2.1v0.9h-1.2v1.4h1v0.9h-1v1.4h1.2v0.9h-2.2C40.6,632.6,40.6,627,40.6,627z M44,630.4l-1-3.4h1l0.5,2.1L45,627h1l-1,3.4
		v2.2h-1V630.4L44,630.4z M46.2,629c0.6-0.1,0.7-0.6,0.7-0.9h-0.5V627h1.1v0.9c0,0.8-0.4,1.4-1.2,1.5L46.2,629z M48,632.4v-1
		c0.3,0.2,0.6,0.3,0.9,0.3c0.3,0,0.5-0.1,0.5-0.5l0,0c0-0.3-0.1-0.4-0.5-1c-0.7-0.8-0.9-1.1-0.9-1.8l0,0c0-0.9,0.6-1.5,1.4-1.5
		c0.4,0,0.6,0.1,0.9,0.2v1c-0.3-0.2-0.5-0.3-0.7-0.3c-0.3,0-0.5,0.2-0.5,0.5l0,0c0,0.3,0.1,0.4,0.5,0.9c0.8,0.9,0.9,1.2,0.9,1.9l0,0
		c0,0.9-0.6,1.5-1.4,1.5C48.6,632.7,48.3,632.6,48,632.4z M51.9,632.4v-1c0.3,0.2,0.6,0.3,0.9,0.3c0.3,0,0.5-0.1,0.5-0.5l0,0
		c0-0.3-0.1-0.4-0.5-1c-0.7-0.8-0.9-1.1-0.9-1.8l0,0c0-0.9,0.6-1.5,1.4-1.5c0.4,0,0.6,0.1,0.9,0.2v1c-0.3-0.2-0.5-0.3-0.7-0.3
		c-0.3,0-0.5,0.2-0.5,0.5l0,0c0,0.3,0.1,0.4,0.5,0.9c0.8,0.9,0.9,1.2,0.9,1.9l0,0c0,0.9-0.6,1.5-1.4,1.5
		C52.5,632.7,52.1,632.6,51.9,632.4z M55,628h-0.7v-1h2.4v0.9H56v4.7h-1V628z M57,627h2.1v0.9H58v1.4h1v0.9h-1v1.4h1.2v0.9H57V627z
		 M60.5,627h1l1.1,5.6h-1l-0.2-1.1h-0.9l-0.2,1.1h-0.9L60.5,627z M61.3,630.6l-0.3-1.8l-0.3,1.8H61.3z M62.9,627h1v2.3l0.8-2.3h1.1
		l-0.9,2.4l1,3.2h-1.1l-0.6-2.1l-0.2,0.6v1.5h-1L62.9,627L62.9,627z M66.1,627h1v2.3h0.8V627h1v5.6h-1v-2.4h-0.8v2.4h-1V627z
		 M69.4,630v-0.3c0-1.8,0.6-2.7,1.5-2.7s1.5,0.9,1.5,2.7v0.3c0,1.8-0.6,2.7-1.5,2.7S69.4,631.8,69.4,630z M71.4,630v-0.3
		c0-1.4-0.2-1.8-0.5-1.8s-0.5,0.4-0.5,1.8v0.3c0,1.4,0.2,1.8,0.5,1.8S71.4,631.4,71.4,630z M72.8,631v-4h1v4.1
		c0,0.5,0.2,0.7,0.4,0.7s0.4-0.2,0.4-0.7V627h1v4c0,1.2-0.6,1.7-1.4,1.7S72.8,632.2,72.8,631z M76,632.4v-1c0.3,0.2,0.6,0.3,0.9,0.3
		s0.5-0.1,0.5-0.5l0,0c0-0.3-0.1-0.4-0.5-1c-0.7-0.8-0.9-1.1-0.9-1.8l0,0c0-0.9,0.6-1.5,1.4-1.5c0.4,0,0.6,0.1,0.9,0.2v1
		c-0.3-0.2-0.5-0.3-0.7-0.3c-0.3,0-0.5,0.2-0.5,0.5l0,0c0,0.3,0.1,0.4,0.5,0.9c0.8,0.9,0.9,1.2,0.9,1.9l0,0c0,0.9-0.6,1.5-1.4,1.5
		C76.6,632.7,76.3,632.6,76,632.4z M78.8,627h2.1v0.9h-1.2v1.4h1v0.9h-1v1.4h1.2v0.9h-2.2C78.8,632.6,78.8,627,78.8,627z"/>
	<path class="st2" d="M5.7,670.9v0.7h-1v-2.4h0.9v0.7h4.7v1H5.7L5.7,670.9z M4.7,668.8v-1H7V667H4.7v-1h5.6v1H8v0.8h2.4v1H4.7z
		 M4.7,665.4v-2.1h0.9v1.2H7v-1h1v1h1.4v-1.2h0.9v2.2H4.7V665.4z M4.7,661.5v-0.9c0-1.1,0.6-1.8,1.9-1.8l0,0c1.3,0,1.9,0.7,1.9,1.7
		l0,0h1.8v1H4.7z M7.7,660.5c0-0.4-0.3-0.7-1-0.7l0,0c-0.7,0-1,0.3-1,0.7l0,0H7.7L7.7,660.5L7.7,660.5z M4.7,658.4v-1
		c0-1,0.5-1.7,1.8-1.7h0.1c0.7,0,1.2,0.3,1.5,0.7l2.3-0.8v1l-2,0.6v0.2h2v1H4.7L4.7,658.4z M7.5,657.4c0-0.4-0.2-0.7-0.9-0.7H6.5
		c-0.7,0-0.9,0.3-0.9,0.8l0,0L7.5,657.4L7.5,657.4z M7.7,655.4H7.4c-1.8,0-2.7-0.6-2.7-1.5s0.9-1.5,2.7-1.5h0.3
		c1.8,0,2.7,0.6,2.7,1.5C10.4,654.8,9.5,655.4,7.7,655.4z M7.7,653.4H7.4c-1.4,0-1.8,0.2-1.8,0.5s0.4,0.5,1.8,0.5h0.3
		c1.4,0,1.8-0.2,1.8-0.5S9.1,653.4,7.7,653.4z M4.7,651.9v-1l2-0.7l-2-0.7v-1h5.6v0.9H6.9l2.1,0.7l0,0L6.9,651h3.4v0.9H4.7
		L4.7,651.9z M4.7,648v-2.1h0.9v1.2H7v-1h1v1h1.4v-1.2h0.9v2.2L4.7,648L4.7,648z M4.7,645.4v-0.9l2.8-1H4.7v-1h5.6v0.9l-3,1h3v1H4.7
		z M4.7,641.2v-1l5.6-1.1v1l-1.1,0.2v0.9l1.1,0.2v0.9L4.7,641.2z M8.3,640.4l-1.8,0.3l1.8,0.3V640.4z M4.7,638.8v-0.9
		c0-1.2,0.9-2,2.7-2h0.2c1.8,0,2.7,0.7,2.7,2v0.9H4.7z M9.4,637.7c0-0.5-0.4-0.9-1.8-0.9H7.4c-1.4,0-1.8,0.4-1.8,0.9l0,0H9.4
		C9.4,637.8,9.4,637.7,9.4,637.7z M4.7,635.4v-2.1h0.9v1.2H7v-1h1v1h1.4v-1.2h0.9v2.2H4.7V635.4z"/>
	<path class="st2" d="M111.3,670.9v0.7h-0.9v-2.4h0.9v0.7h4.7v1H111.3L111.3,670.9z M110.4,668.8v-1h2.3V667h-2.3v-1h5.6v1h-2.4v0.8
		h2.4v1H110.4z M110.4,665.4v-2.1h0.9v1.2h1.4v-1h0.9v1h1.4v-1.2h0.9v2.2h-5.5V665.4z M110.4,661.5v-0.9c0-1.1,0.6-1.8,1.9-1.8l0,0
		c1.3,0,1.9,0.7,1.9,1.7l0,0h1.8v1H110.4z M113.3,660.5c0-0.4-0.3-0.7-1-0.7l0,0c-0.7,0-1,0.3-1,0.7l0,0H113.3L113.3,660.5
		L113.3,660.5z M110.4,658.4v-1c0-1,0.5-1.7,1.8-1.7h0.1c0.7,0,1.2,0.3,1.5,0.7l2.3-0.8v1l-2,0.6v0.2h2v1H110.4L110.4,658.4z
		 M113.2,657.4c0-0.4-0.2-0.7-0.9-0.7h-0.1c-0.7,0-0.9,0.3-0.9,0.8l0,0L113.2,657.4L113.2,657.4z M113.3,655.4H113
		c-1.8,0-2.7-0.6-2.7-1.5s0.9-1.5,2.7-1.5h0.3c1.8,0,2.7,0.6,2.7,1.5C116.1,654.8,115.2,655.4,113.3,655.4z M113.3,653.4H113
		c-1.4,0-1.8,0.2-1.8,0.5s0.4,0.5,1.8,0.5h0.3c1.4,0,1.8-0.2,1.8-0.5S114.8,653.4,113.3,653.4z M110.4,651.9v-1l2-0.7l-2-0.7v-1h5.6
		v0.9h-3.4l2.1,0.7l0,0l-2.1,0.7h3.4v0.9L110.4,651.9L110.4,651.9z M110.4,648v-2.1h0.9v1.2h1.4v-1h0.9v1h1.4v-1.2h0.9v2.2
		L110.4,648L110.4,648z M110.4,645.4v-0.9l2.8-1h-2.8v-1h5.6v0.9l-3,1h3v1H110.4z M110.4,641.2v-1l5.6-1.1v1l-1.1,0.2v0.9l1.1,0.2
		v0.9L110.4,641.2z M114,640.4l-1.8,0.3l1.8,0.3V640.4z M110.4,638.8v-0.9c0-1.2,0.9-2,2.7-2h0.2c1.8,0,2.7,0.7,2.7,2v0.9H110.4z
		 M115.1,637.7c0-0.5-0.4-0.9-1.8-0.9h-0.2c-1.4,0-1.8,0.4-1.8,0.9l0,0H115.1L115.1,637.7z M110.4,635.4v-2.1h0.9v1.2h1.4v-1h0.9v1
		h1.4v-1.2h0.9v2.2h-5.5V635.4z"/>
	<path class="st2" d="M94.7,674.1v-1h4.7v-1h0.9v2H94.7z M97.6,672h-0.3c-1.8,0-2.7-0.6-2.7-1.5s0.9-1.5,2.7-1.5h0.3
		c1.8,0,2.7,0.6,2.7,1.5S99.5,672,97.6,672z M97.6,670h-0.3c-1.4,0-1.8,0.2-1.8,0.5s0.4,0.5,1.8,0.5h0.3c1.4,0,1.8-0.2,1.8-0.5
		S99,670,97.6,670z M94.7,668.5v-0.8c0-0.9,0.4-1.8,1.4-1.8l0,0c0.7,0,1.1,0.4,1.3,0.8c0.2-0.5,0.5-0.9,1.2-0.9h0.1
		c1,0,1.6,0.8,1.6,1.9v0.9L94.7,668.5L94.7,668.5z M97,667.5c0-0.4-0.2-0.7-0.7-0.7l0,0c-0.5,0-0.7,0.3-0.7,0.7l0,0H97L97,667.5z
		 M99.4,667.5c0-0.4-0.3-0.8-0.7-0.8l0,0c-0.5,0-0.7,0.3-0.7,0.8l0,0H99.4L99.4,667.5L99.4,667.5z M94.7,665.4v-0.8
		c0-0.9,0.4-1.8,1.4-1.8l0,0c0.7,0,1.1,0.4,1.3,0.8c0.2-0.5,0.5-0.9,1.2-0.9h0.1c1,0,1.6,0.8,1.6,1.9v0.9L94.7,665.4L94.7,665.4z
		 M97,664.4c0-0.4-0.2-0.7-0.7-0.7l0,0c-0.5,0-0.7,0.3-0.7,0.7l0,0H97L97,664.4z M99.4,664.4c0-0.4-0.3-0.8-0.7-0.8l0,0
		c-0.5,0-0.7,0.3-0.7,0.8l0,0H99.4L99.4,664.4L99.4,664.4z M98.1,661.6l-3.4,1v-1l2.1-0.5l-2.1-0.5v-1l3.4,1h2.2v1H98.1L98.1,661.6z
		 M94.7,658v-0.8c0-0.9,0.4-1.8,1.4-1.8l0,0c0.7,0,1.1,0.4,1.3,0.8c0.2-0.5,0.5-0.9,1.2-0.9h0.1c1,0,1.6,0.8,1.6,1.9v0.9h-5.6V658z
		 M97,657c0-0.4-0.2-0.7-0.7-0.7l0,0c-0.5,0-0.7,0.3-0.7,0.7l0,0H97L97,657z M99.4,657c0-0.4-0.3-0.8-0.7-0.8l0,0
		c-0.5,0-0.7,0.3-0.7,0.8l0,0H99.4L99.4,657L99.4,657z M97.6,654.9h-0.3c-1.8,0-2.7-0.6-2.7-1.5s0.9-1.5,2.7-1.5h0.3
		c1.8,0,2.7,0.6,2.7,1.5C100.3,654.3,99.5,654.9,97.6,654.9z M97.6,653h-0.3c-1.4,0-1.8,0.2-1.8,0.5s0.4,0.5,1.8,0.5h0.3
		c1.4,0,1.8-0.2,1.8-0.5S99,653,97.6,653z M98.6,651.5h-4v-1h4.1c0.5,0,0.7-0.2,0.7-0.4s-0.2-0.4-0.7-0.4h-4.1v-1h4
		c1.2,0,1.7,0.6,1.7,1.4C100.3,650.9,99.8,651.5,98.6,651.5z M94.7,648.2v-1h4.7v-1h0.9v2H94.7z M94.7,645.8v-2.1h0.9v1.2H97v-1h0.9
		v1h1.4v-1.2h0.9v2.2h-5.5V645.8z M94.7,643.4v-1l3.6-0.5l-3.6-0.5v-1l5.6,1v1L94.7,643.4z M94.6,639.5v-1l5.6-1.1v1l-1.1,0.2v0.9
		l1.1,0.2v0.9L94.6,639.5z M98.3,638.7l-1.8,0.3l1.8,0.3V638.7z M94.7,637.1v-1c0-1,0.5-1.7,1.8-1.7h0.1c0.7,0,1.2,0.3,1.5,0.7
		l2.3-0.8v1l-2,0.6v0.2h2v1H94.7L94.7,637.1z M97.4,636c0-0.4-0.2-0.7-0.9-0.7h-0.1c-0.7,0-0.9,0.3-0.9,0.8l0,0L97.4,636L97.4,636z
		 M94.7,633.9V633c0-1.2,0.9-2,2.7-2h0.2c1.8,0,2.7,0.7,2.7,2v0.9H94.7z M99.4,632.9c0-0.5-0.4-0.9-1.8-0.9h-0.2
		c-1.4,0-1.8,0.4-1.8,0.9l0,0H99.4L99.4,632.9z"/>
	<path class="st2" d="M55.2,771.5v-1c0.3,0.2,0.6,0.3,0.9,0.3c0.3,0,0.5-0.1,0.5-0.5l0,0c0-0.3-0.1-0.4-0.5-1
		c-0.7-0.8-0.9-1.1-0.9-1.8l0,0c0-0.9,0.6-1.5,1.4-1.5c0.4,0,0.6,0.1,0.9,0.2v1c-0.3-0.2-0.5-0.3-0.7-0.3c-0.3,0-0.5,0.2-0.5,0.5
		l0,0c0,0.3,0.1,0.4,0.5,0.9c0.8,0.9,0.9,1.2,0.9,1.9l0,0c0,0.9-0.6,1.5-1.4,1.5C55.9,771.8,55.5,771.7,55.2,771.5z M58.4,767.1
		h-0.7v-0.9H60v0.9h-0.7v4.7h-1v-4.7H58.4z M61,766.1h1l1.1,5.6h-1l-0.2-1.1H61l-0.2,1.1h-0.9L61,766.1z M61.8,769.7l-0.3-1.8
		l-0.3,1.8H61.8z M63.2,769v-0.2c0-1.8,0.8-2.7,1.9-2.7c0.3,0,0.5,0.1,0.7,0.2v1c-0.2-0.1-0.5-0.2-0.7-0.2c-0.6,0-0.9,0.6-0.9,1.8
		v0.3c0,1.5,0.4,1.8,0.8,1.8c0,0,0,0,0.1,0v-1.4h-0.5v-0.9H66v3c-0.4,0.2-0.6,0.2-1,0.2C64,771.8,63.2,771,63.2,769z M66.5,766.1
		h2.1v0.9h-1.2v1.4h1v0.9h-1v1.4h1.2v0.9h-2.2L66.5,766.1L66.5,766.1z"/>
	<path class="st2" d="M39.8,801.8v-1c0.3,0.2,0.6,0.3,0.9,0.3c0.3,0,0.5-0.1,0.5-0.5l0,0c0-0.3-0.1-0.4-0.5-1
		c-0.7-0.8-0.9-1.1-0.9-1.8l0,0c0-0.9,0.6-1.5,1.4-1.5c0.4,0,0.6,0.1,0.9,0.2v1c-0.3-0.2-0.5-0.3-0.7-0.3c-0.3,0-0.5,0.2-0.5,0.5
		l0,0c0,0.3,0.1,0.4,0.5,0.9c0.8,0.9,0.9,1.2,0.9,1.9l0,0c0,0.9-0.6,1.5-1.4,1.5C40.4,802,40.1,801.9,39.8,801.8z M42.9,797.3h-0.7
		v-0.9h2.4v0.9h-0.7v4.7h-1V797.3z M45.5,796.4h1l1.1,5.6h-1l-0.2-1.1h-0.9l-0.2,1.1h-0.9L45.5,796.4z M46.3,800l-0.3-1.8l-0.3,1.8
		H46.3z M47.9,796.4h1c1,0,1.7,0.5,1.7,1.8v0.1c0,0.7-0.3,1.2-0.7,1.5l0.8,2.3h-1l-0.6-2h-0.2v2h-1V796.4z M48.9,799.2
		c0.4,0,0.7-0.2,0.7-0.9v-0.1c0-0.7-0.3-0.9-0.8-0.9l0,0L48.9,799.2L48.9,799.2z M51.1,796.4H52c1.2,0,2,0.9,2,2.7v0.2
		c0,1.8-0.7,2.7-2,2.7h-0.9V796.4z M52.1,801.1c0.5,0,0.9-0.4,0.9-1.8v-0.2c0-1.4-0.4-1.8-0.9-1.8l0,0V801.1L52.1,801.1z
		 M54.4,800.4v-4h1v4.1c0,0.5,0.2,0.7,0.4,0.7s0.4-0.2,0.4-0.7v-4.1h1v4c0,1.2-0.6,1.7-1.4,1.7S54.4,801.5,54.4,800.4z M57.7,801.8
		v-1c0.3,0.2,0.6,0.3,0.9,0.3c0.3,0,0.5-0.1,0.5-0.5l0,0c0-0.3-0.1-0.4-0.5-1c-0.7-0.8-0.9-1.1-0.9-1.8l0,0c0-0.9,0.6-1.5,1.4-1.5
		c0.4,0,0.6,0.1,0.9,0.2v1c-0.3-0.2-0.5-0.3-0.7-0.3c-0.3,0-0.5,0.2-0.5,0.5l0,0c0,0.3,0.1,0.4,0.5,0.9c0.8,0.9,0.9,1.2,0.9,1.9l0,0
		c0,0.9-0.6,1.5-1.4,1.5C58.3,802,57.9,801.9,57.7,801.8z M60.8,797.3h-0.7v-0.9h2.4v0.9h-0.7v4.7h-1V797.3L60.8,797.3z M64.6,797.3
		H64v-0.9h2.4v0.9h-0.7v4.7h-1C64.6,802,64.6,797.3,64.6,797.3z M66.7,796.4h1v2.3h0.8v-2.3h1v5.6h-1v-2.4h-0.8v2.4h-1V796.4z
		 M70.1,796.4h2.1v0.9H71v1.4h1v0.9h-1v1.4h1.2v0.9H70L70.1,796.4L70.1,796.4z M73.5,796.4h1l1.1,5.6h-1l-0.2-1.1h-0.9l-0.2,1.1
		h-0.9L73.5,796.4z M74.3,800l-0.3-1.8l-0.3,1.8H74.3z M76.2,797.3h-0.7v-0.9h2.4v0.9h-0.7v4.7h-1L76.2,797.3L76.2,797.3z
		 M78.3,796.4h2.1v0.9h-1.2v1.4h1v0.9h-1v1.4h1.2v0.9h-2.2L78.3,796.4L78.3,796.4z M80.9,796.4h1c1,0,1.7,0.5,1.7,1.8v0.1
		c0,0.7-0.3,1.2-0.7,1.5l0.8,2.3h-1l-0.6-2h-0.2v2h-1L80.9,796.4L80.9,796.4z M81.9,799.2c0.4,0,0.7-0.2,0.7-0.9v-0.1
		c0-0.7-0.3-0.9-0.8-0.9l0,0L81.9,799.2L81.9,799.2z"/>
	<path class="st2" d="M80.9,565.5h1c1,0,1.7,0.5,1.7,1.8v0.1c0,0.7-0.3,1.2-0.7,1.5l0.8,2.3h-1l-0.6-2h-0.2v2h-1L80.9,565.5z
		 M82,568.3c0.4,0,0.7-0.2,0.7-0.9v-0.1c0-0.7-0.3-0.9-0.8-0.9l0,0L82,568.3L82,568.3z M84.1,565.5h1c1,0,1.7,0.5,1.7,1.8v0.1
		c0,0.7-0.3,1.2-0.7,1.5l0.7,2.3h-1l-0.6-2H85v2h-1L84.1,565.5z M85.1,568.3c0.4,0,0.7-0.2,0.7-0.9v-0.1c0-0.7-0.3-0.9-0.8-0.9l0,0
		L85.1,568.3L85.1,568.3z"/>
	<path class="st2" d="M21.6,495.9h1l1.1,5.6h-1l-0.2-1.1h-0.9l-0.2,1.1h-0.9L21.6,495.9z M22.4,499.5l-0.3-1.8l-0.3,1.8H22.4z
		 M24.3,496.8h-0.7v-0.9H26v0.9h-0.7v4.7h-1V496.8z M26.4,495.9h1c1,0,1.7,0.5,1.7,1.8v0.1c0,0.7-0.3,1.2-0.7,1.5l0.8,2.3h-1l-0.6-2
		h-0.2v2h-1C26.4,501.5,26.4,495.9,26.4,495.9z M27.4,498.7c0.4,0,0.7-0.2,0.7-0.9v-0.1c0-0.7-0.3-0.9-0.8-0.9l0,0L27.4,498.7
		L27.4,498.7L27.4,498.7z M29.6,495.9h1v5.6h-1V495.9z M31.1,499.9v-4h1v4.1c0,0.5,0.2,0.7,0.4,0.7s0.4-0.2,0.4-0.7v-4.1h1v4
		c0,1.2-0.6,1.7-1.4,1.7S31.1,501,31.1,499.9z M34.5,495.9h1l0.7,2l0.7-2h1v5.6H37v-3.4l-0.7,2.1l0,0l-0.7-2.1v3.4h-0.9v-5.6H34.5z
		 M24,506.8v-0.2c0-2,0.7-2.7,1.6-2.7c0.3,0,0.4,0,0.6,0.1v1c-0.2-0.1-0.4-0.2-0.5-0.2c-0.4,0-0.7,0.4-0.7,1.8v0.2
		c0,1.5,0.3,1.8,0.8,1.8c0.2,0,0.3-0.1,0.5-0.2v1c-0.2,0.1-0.4,0.2-0.7,0.2C24.7,509.5,24,508.7,24,506.8z M27.6,503.9h1l1.1,5.6h-1
		l-0.2-1.1h-0.9l-0.2,1.1h-0.9L27.6,503.9z M28.4,507.5l-0.3-1.8l-0.3,1.8H28.4z M30,503.9h2v0.9h-1v1.4h0.9v0.9H31v2.3h-1V503.9z
		 M32.5,503.9h2.1v0.9h-1.2v1.4h1v0.9h-1v1.4h1.2v0.9h-2.2C32.5,509.5,32.5,503.9,32.5,503.9z M33.8,502.6l0.8,0.4l-0.8,0.6h-0.7
		L33.8,502.6z M22.3,516.1L22.3,516.1c0-0.7,0.3-1.2,0.9-1.7c-0.3-0.5-0.5-0.9-0.5-1.3V513c0-0.7,0.5-1.2,1.2-1.2s1.1,0.5,1.1,1.2
		v0.1c0,0.6-0.3,1.1-0.8,1.5l0.5,1c0-0.2,0.1-0.4,0.1-0.8l0.8,0.1c-0.1,0.6-0.2,1.1-0.4,1.4l0.5,0.8l-0.7,0.4l-0.3-0.5
		c-0.3,0.3-0.6,0.5-1,0.5C22.9,517.6,22.3,517,22.3,516.1z M24.3,516.5l-0.7-1.4c-0.2,0.3-0.3,0.6-0.3,0.9v0.1
		c0,0.4,0.2,0.7,0.5,0.7C24,516.7,24.1,516.6,24.3,516.5z M23.8,513.9c0.2-0.2,0.3-0.5,0.3-0.8V513c0-0.3-0.1-0.4-0.3-0.4
		c-0.2,0-0.3,0.2-0.3,0.4v0.1C23.5,513.3,23.6,513.6,23.8,513.9z M27.2,511.9H28c0.9,0,1.8,0.4,1.8,1.4l0,0c0,0.7-0.4,1.1-0.8,1.3
		c0.5,0.2,0.9,0.5,0.9,1.2v0.1c0,1-0.8,1.6-1.9,1.6h-0.9C27.2,517.5,27.2,511.9,27.2,511.9z M28.2,514.2c0.4,0,0.7-0.2,0.7-0.7l0,0
		c0-0.5-0.3-0.7-0.7-0.7l0,0V514.2L28.2,514.2z M28.2,516.6c0.4,0,0.8-0.3,0.8-0.7l0,0c0-0.5-0.3-0.7-0.8-0.7l0,0V516.6L28.2,516.6
		L28.2,516.6z M31.1,511.9h1l1.1,5.6h-1l-0.2-1.1h-0.9l-0.2,1.1H30L31.1,511.9z M31.9,515.5l-0.3-1.8l-0.3,1.8H31.9z M33.5,511.9h1
		c1,0,1.7,0.5,1.7,1.8v0.1c0,0.7-0.3,1.2-0.7,1.5l0.8,2.3h-1l-0.6-2h-0.2v2h-1V511.9z M34.5,514.7c0.4,0,0.7-0.2,0.7-0.9v-0.1
		c0-0.7-0.3-0.9-0.8-0.9l0,0L34.5,514.7L34.5,514.7z"/>
</g>
<g id="SPIRIT_DECK_07_TOP">
	<g id="gDeck07Locations">
		<path width="122.0084" height="307.7004" id="_x30_7Aft" class="st3" d="M0.5,879.8c-0.4,8.9,5.7,16.6,23.4,19.6c25.9,2.7,50.7,4.1,77.9-1.2
			c10.8-1.7,21.8-8.2,20.6-17.8l-0.1-286.3H0.5V879.8z"/>
		<polygon width="121.8229" height="296.6" id="_x30_7MidShip" class="st3" points="0.5,297.5 0.5,594.1 122.3,594.1 122.2,297.5 		"/>
		<path width="121.743" height="297.1" id="_x30_7Forward" class="st3" d="M122.2,138c0,0-19.2-104.8-52.5-129.1c-0.5-0.5-2-1.8-2-2.7c0-3.7-0.6-5.8-3.5-5.8
			c-3,0-3.6,1-4,2.4c-0.5,1.4,0.6,2.7-0.7,5.1c-39.1,24.5-59,130.2-59,130.2v159.4h121.7L122.2,138z"/>
	</g>
	<path class="st4" d="M59.5,7.9c-39.1,24.5-59,130.2-59,130.2v741.7c-0.4,8.9,5.7,16.6,23.4,19.6c25.9,2.7,50.7,4.1,77.9-1.2
		c10.8-1.7,21.8-8.2,20.6-17.8L122.2,138c0,0-19.2-104.8-52.5-129.1c-0.5-0.5-2-1.8-2-2.7c0-3.7-0.6-5.8-3.5-5.8c-3,0-3.6,1-4,2.4
		C59.7,4.2,60.8,5.5,59.5,7.9z"/>
</g>
</svg>
