<?xml version="1.0" encoding="utf-8"?>
<!-- Generator: Adobe Illustrator 25.4.1, SVG Export Plug-In . SVG Version: 6.00 Build 0)  -->
<svg version="1.1" id="SPIRIT_DECK_13" xmlns="http://www.w3.org/2000/svg" xmlns:xlink="http://www.w3.org/1999/xlink" x="0px"
	 y="0px" width="134.8px" height="696.5px" viewBox="0 0 134.8 696.5" style="enable-background:new 0 0 134.8 696.5;"
	 xml:space="preserve">
<style type="text/css">
	.st0{fill:#FFFFFF;}
	.st1{fill:none;stroke:#D5DCE0;stroke-width:0.5;}
	.st2{fill:#6E8496;}
	.st3{fill:none;}
	.st4{fill:none;stroke:#076FA0;stroke-miterlimit:10;}
</style>
<g id="SPIRIT_DECK_13_BOTTOM">
	<path class="st0" d="M0.7,272v138.2l4.8,6v264.5C6.2,697.1,21.3,698,21.3,694c0-17.7,6.6-19.8,11.2-19.8s9.1,17.7,33.5,17.7
		s29.5-17.7,33.9-17.7c4.4,0,11.7,2.2,11.7,20c0,3.8,15.8,0.6,15-13.8V416l4.8-6V271.7l-5-6.6V17.7h7.9c0,0,3-9.6-57.3-16.6
		l-1.5-0.6L58.7,0.7L57,1.4C-1.5,8.1,0.5,17.7,0.5,17.7h6.4v247.4L0.7,272z"/>
	<path class="st1" d="M38.9,150.7l0.1-46c3.7-28.9,50.6-31.7,56,0v46H38.9z"/>
	<polyline class="st1" points="94.9,150.7 104.4,150.7 119.6,164.1 	"/>
	<polyline class="st1" points="13.6,164.3 29.2,150.7 38.9,150.7 	"/>
	<polyline class="st1" points="7.2,179 14.7,179 27.1,168.5 	"/>
	<polyline class="st1" points="126.1,179.7 118.6,179.7 106.2,169.2 	"/>
	<polygon class="st1" points="94.8,598.6 94.8,632.6 124.6,632.6 124.6,598.6 124.6,564.6 94.8,564.6 	"/>
	<rect x="14.7" y="560.5" class="st1" width="17.8" height="57.3"/>
	<circle class="st1" cx="65.9" cy="666" r="20.5"/>
	<path class="st1" d="M78.5,157.4L78.5,157.4h16c4.3-0.1,4.7,3,4.7,3v24.9c-0.1,1.7-1.1,2.7-2.1,3.3h29.4 M7,188.6h26.7
		c-2.1-1.3-1.8-3.5-1.8-3.5l0-10.6l0-13.6c0.4-3.9,3.9-3.5,3.9-3.5h12.9h0.4 M24.9,31.1c8-3.7,41.1-6.7,41.1-6.7
		c15.9,1.3,35.4,4.1,43,6.7l0,26.7l-84.1,0L24.9,31.1L24.9,31.1z M33,188.6h65.5"/>
	<polyline class="st1" points="99.4,432.4 82.6,623.3 50.6,623.3 33.3,432.4 	"/>
	<polyline class="st1" points="73.4,432.4 99.4,432.4 82.6,623.3 50.6,623.3 33.3,432.4 43.7,432.4 	"/>
	<line class="st1" x1="40.7" y1="157.6" x2="40.7" y2="174.6"/>
	<polyline class="st1" points="31.9,174.5 78.5,174.5 78.5,157.5 	"/>
	<path class="st1" d="M7,57.7h9.3V22.5c0,0,43.1-9.1,50.1-9.1s51,8.9,51,8.9v35.3h8.7"/>
	<path class="st1" d="M66.6,86.3c-10.1,0.2-21.6,6.2-23.3,18.8c0,0.6,0,34.3,0,41.4c6.8,0,40.7,0,47.4,0c0-7,0-40.5,0-41.3
		C88,90.9,76.1,86.1,66.6,86.3z"/>
	<line class="st1" x1="49.1" y1="157.5" x2="49.1" y2="174.8"/>
	<polyline class="st1" points="73.7,432.5 73.7,447.3 43.3,447.3 43.3,432.5 	"/>
	<path class="st1" d="M71.5,158.6c-0.3,0-0.6,0.2-0.6,0.5"/>
	<line class="st1" x1="78.6" y1="158.6" x2="71.5" y2="158.6"/>
	<line class="st1" x1="70.9" y1="159.1" x2="70.9" y2="161.2"/>
	<line class="st1" x1="70.9" y1="161.2" x2="57" y2="161.2"/>
	<path class="st1" d="M57,159.1c0-0.3-0.3-0.5-0.6-0.5"/>
	<line class="st1" x1="57" y1="161.2" x2="57" y2="159.1"/>
	<line class="st1" x1="56.5" y1="158.6" x2="49.3" y2="158.6"/>
	<line class="st1" x1="64.1" y1="171.6" x2="64.1" y2="158.4"/>
	<line class="st1" x1="63.9" y1="171.6" x2="63.9" y2="158.4"/>
	<line class="st1" x1="78.3" y1="170.9" x2="64.1" y2="170.9"/>
	<line class="st1" x1="64.1" y1="158.4" x2="63.9" y2="158.4"/>
	<line class="st1" x1="64.1" y1="171.6" x2="63.9" y2="171.6"/>
	<line class="st1" x1="63.9" y1="170.9" x2="49.2" y2="170.9"/>
	<line class="st1" x1="63.9" y1="169.5" x2="57.6" y2="169.5"/>
	<line class="st1" x1="63.9" y1="168.1" x2="57.6" y2="168.1"/>
	<line class="st1" x1="63.9" y1="166.7" x2="57.6" y2="166.7"/>
	<line class="st1" x1="63.9" y1="165.3" x2="57.6" y2="165.3"/>
	<line class="st1" x1="63.9" y1="163.9" x2="57.6" y2="163.9"/>
	<line class="st1" x1="63.9" y1="162.5" x2="57.6" y2="162.5"/>
	<line class="st1" x1="63.9" y1="159.7" x2="57.1" y2="159.7"/>
	<line class="st1" x1="70.4" y1="169.5" x2="64.1" y2="169.5"/>
	<line class="st1" x1="70.4" y1="168.1" x2="64.1" y2="168.1"/>
	<line class="st1" x1="70.4" y1="166.7" x2="64.1" y2="166.7"/>
	<line class="st1" x1="70.4" y1="165.3" x2="64.1" y2="165.3"/>
	<line class="st1" x1="70.4" y1="163.9" x2="64.1" y2="163.9"/>
	<line class="st1" x1="70.4" y1="162.5" x2="64.1" y2="162.5"/>
	<line class="st1" x1="71" y1="159.7" x2="64.1" y2="159.7"/>
	<line class="st1" x1="49.2" y1="160" x2="56.5" y2="160"/>
	<line class="st1" x1="49.3" y1="161.3" x2="57.3" y2="161.3"/>
	<line class="st1" x1="49.1" y1="162.7" x2="56.5" y2="162.7"/>
	<line class="st1" x1="49.3" y1="164.1" x2="56.5" y2="164.1"/>
	<line class="st1" x1="70.9" y1="160" x2="78.5" y2="160"/>
	<line class="st1" x1="70.9" y1="161.3" x2="78.5" y2="161.3"/>
	<line class="st1" x1="71.5" y1="162.7" x2="78.6" y2="162.7"/>
	<line class="st1" x1="71.5" y1="164.1" x2="78.5" y2="164.1"/>
	<path class="st1" d="M56.4,171.7c0,0.3,0.3,0.5,0.6,0.5s0.6-0.2,0.6-0.5l0,0"/>
	<line class="st1" x1="57.5" y1="171.7" x2="57.5" y2="171.6"/>
	<line class="st1" x1="56.4" y1="171.7" x2="56.4" y2="171.6"/>
	<path class="st1" d="M70.4,171.7c0,0.3,0.3,0.5,0.6,0.5c0.3,0,0.6-0.2,0.6-0.5l0,0"/>
	<line class="st1" x1="71.5" y1="171.7" x2="71.5" y2="171.6"/>
	<line class="st1" x1="70.4" y1="171.7" x2="70.4" y2="171.6"/>
	<line class="st1" x1="57" y1="171.6" x2="57" y2="161.4"/>
	<line class="st1" x1="49.3" y1="166.8" x2="56.5" y2="166.8"/>
	<line class="st1" x1="49.3" y1="168.2" x2="56.5" y2="168.2"/>
	<line class="st1" x1="49.4" y1="169.6" x2="56.5" y2="169.6"/>
	<line class="st1" x1="49.3" y1="165.5" x2="56.5" y2="165.5"/>
	<line class="st1" x1="70.9" y1="171.6" x2="70.9" y2="161.2"/>
	<line class="st1" x1="71.5" y1="166.8" x2="78.5" y2="166.8"/>
	<line class="st1" x1="71.5" y1="168.2" x2="78.4" y2="168.2"/>
	<line class="st1" x1="71.5" y1="169.6" x2="78.4" y2="169.6"/>
	<line class="st1" x1="71.4" y1="165.5" x2="78.6" y2="165.5"/>
	<path class="st1" d="M117.2,414.6l-9.1,9.1l-83.3-0.2l-8.9-8.9V289.4c0,0,2.7-46.4,50.8-46.4s50.6,46.4,50.6,46.4V414.6z"/>
	<path class="st1" d="M42.6,423.6l0-6.7c0,0,2.6-1.3,5-1.3c2.4,0,5.5,1.4,5.5,1.4s3-1.5,5.4-1.5s5.3,1.4,5.3,1.4s3.4-1.4,5.8-1.4
		s5.4,1.2,5.4,1.2v7.1"/>
	<line class="st1" x1="63.7" y1="417" x2="63.7" y2="423.9"/>
	<line class="st1" x1="53.1" y1="417" x2="53.1" y2="423.9"/>
	<line class="st1" x1="42.6" y1="423.6" x2="53.2" y2="417.1"/>
	<line class="st1" x1="53" y1="417" x2="63.8" y2="423.6"/>
	<line class="st1" x1="63.8" y1="423.7" x2="74.8" y2="416.8"/>
	<line class="st1" x1="74.9" y1="423.8" x2="63.8" y2="417.1"/>
	<line class="st1" x1="63.8" y1="416.9" x2="53" y2="423.7"/>
	<line class="st1" x1="53" y1="423.7" x2="42.6" y2="416.9"/>
	<path class="st1" d="M66.4,433.1c-0.3,0-0.6,0.2-0.6,0.5"/>
	<line class="st1" x1="73.7" y1="433.1" x2="66.4" y2="433.1"/>
	<line class="st1" x1="65.8" y1="433.6" x2="65.8" y2="435.4"/>
	<line class="st1" x1="65.8" y1="435.4" x2="51.6" y2="435.4"/>
	<path class="st1" d="M51.6,433.6c0-0.3-0.3-0.5-0.6-0.5"/>
	<line class="st1" x1="51.6" y1="435.4" x2="51.6" y2="433.6"/>
	<line class="st1" x1="51" y1="433.1" x2="43.7" y2="433.1"/>
	<line class="st1" x1="58.9" y1="444.4" x2="58.9" y2="433"/>
	<line class="st1" x1="58.6" y1="444.4" x2="58.6" y2="433"/>
	<line class="st1" x1="73.3" y1="443.8" x2="58.9" y2="443.8"/>
	<line class="st1" x1="58.9" y1="433" x2="58.6" y2="433"/>
	<line class="st1" x1="58.9" y1="444.4" x2="58.6" y2="444.4"/>
	<line class="st1" x1="58.6" y1="443.8" x2="43.6" y2="443.8"/>
	<line class="st1" x1="58.6" y1="442.6" x2="52.2" y2="442.6"/>
	<line class="st1" x1="58.6" y1="441.4" x2="52.2" y2="441.4"/>
	<line class="st1" x1="58.6" y1="440.2" x2="52.2" y2="440.2"/>
	<line class="st1" x1="58.6" y1="439" x2="52.2" y2="439"/>
	<line class="st1" x1="58.6" y1="437.7" x2="52.2" y2="437.7"/>
	<line class="st1" x1="58.6" y1="436.5" x2="52.2" y2="436.5"/>
	<line class="st1" x1="58.6" y1="434.1" x2="51.6" y2="434.1"/>
	<line class="st1" x1="65.3" y1="442.6" x2="58.9" y2="442.6"/>
	<line class="st1" x1="65.3" y1="441.4" x2="58.9" y2="441.4"/>
	<line class="st1" x1="65.3" y1="440.2" x2="58.9" y2="440.2"/>
	<line class="st1" x1="65.3" y1="439" x2="58.9" y2="439"/>
	<line class="st1" x1="65.3" y1="437.7" x2="58.9" y2="437.7"/>
	<line class="st1" x1="65.3" y1="436.5" x2="58.9" y2="436.5"/>
	<line class="st1" x1="65.9" y1="434.1" x2="58.9" y2="434.1"/>
	<line class="st1" x1="43.6" y1="434.3" x2="51.1" y2="434.3"/>
	<line class="st1" x1="43.7" y1="435.5" x2="51.9" y2="435.5"/>
	<line class="st1" x1="43.5" y1="436.7" x2="51.1" y2="436.7"/>
	<line class="st1" x1="43.7" y1="437.9" x2="51" y2="437.9"/>
	<line class="st1" x1="65.8" y1="434.3" x2="73.6" y2="434.3"/>
	<line class="st1" x1="65.8" y1="435.5" x2="73.6" y2="435.5"/>
	<line class="st1" x1="66.4" y1="436.7" x2="73.7" y2="436.7"/>
	<line class="st1" x1="66.4" y1="437.9" x2="73.6" y2="437.9"/>
	<path class="st1" d="M51,444.5c0,0.3,0.3,0.5,0.6,0.5s0.6-0.2,0.6-0.5l0,0"/>
	<line class="st1" x1="52.1" y1="444.5" x2="52.1" y2="444.4"/>
	<line class="st1" x1="51" y1="444.5" x2="51" y2="444.4"/>
	<path class="st1" d="M65.3,444.5c0,0.3,0.3,0.5,0.6,0.5c0.3,0,0.6-0.2,0.6-0.5l0,0"/>
	<line class="st1" x1="66.4" y1="444.5" x2="66.4" y2="444.4"/>
	<line class="st1" x1="65.3" y1="444.5" x2="65.3" y2="444.4"/>
	<line class="st1" x1="51.6" y1="444.4" x2="51.6" y2="435.5"/>
	<line class="st1" x1="43.7" y1="440.3" x2="51.1" y2="440.3"/>
	<line class="st1" x1="43.7" y1="441.5" x2="51.1" y2="441.5"/>
	<line class="st1" x1="43.8" y1="442.7" x2="51.1" y2="442.7"/>
	<line class="st1" x1="43.7" y1="439.1" x2="51.1" y2="439.1"/>
	<line class="st1" x1="65.8" y1="444.4" x2="65.8" y2="435.4"/>
	<line class="st1" x1="66.4" y1="440.3" x2="73.6" y2="440.3"/>
	<line class="st1" x1="66.4" y1="441.5" x2="73.5" y2="441.5"/>
	<line class="st1" x1="66.4" y1="442.7" x2="73.5" y2="442.7"/>
	<line class="st1" x1="66.3" y1="439.1" x2="73.7" y2="439.1"/>
	<path class="st2" d="M126.8,371.2h-1c0.2-0.3,0.3-0.6,0.3-0.9c0-0.3-0.1-0.5-0.5-0.5h0c-0.3,0-0.4,0.1-1,0.5
		c-0.8,0.7-1.1,0.9-1.8,0.9h0c-0.9,0-1.5-0.6-1.5-1.4c0-0.4,0.1-0.6,0.2-0.9h1c-0.2,0.3-0.3,0.5-0.3,0.7c0,0.3,0.2,0.5,0.5,0.5h0
		c0.3,0,0.4-0.1,0.9-0.5c0.9-0.8,1.2-0.9,1.9-0.9h0c0.9,0,1.5,0.6,1.5,1.4C127.1,370.5,127,370.9,126.8,371.2z M122.4,368v0.7h-0.9
		v-2.4h0.9v0.7h4.7v1L122.4,368L122.4,368z M121.4,365.4v-1l5.6-1.1v1l-1.1,0.2v0.9l1.1,0.2v0.9L121.4,365.4z M125,364.6l-1.8,0.3
		l1.8,0.3V364.6z M121.4,363v-1c0-1,0.5-1.7,1.8-1.7h0.1c0.7,0,1.2,0.3,1.5,0.7l2.3-0.8v1l-2,0.6v0.2h2v1H121.4z M124.2,362
		c0-0.4-0.2-0.7-0.9-0.7h-0.1c-0.7,0-0.9,0.3-0.9,0.8v0L124.2,362L124.2,362z M122.4,358v0.7h-0.9v-2.4h0.9v0.7h4.7v1L122.4,358
		L122.4,358z M121.4,356v-1c0-1,0.5-1.7,1.8-1.7h0.1c0.7,0,1.2,0.3,1.5,0.7l2.3-0.8v1l-2,0.6v0.2h2v1H121.4z M124.2,354.9
		c0-0.4-0.2-0.7-0.9-0.7h-0.1c-0.7,0-0.9,0.3-0.9,0.8v0L124.2,354.9L124.2,354.9z M121.4,352v-1l5.6-1.1v1l-1.1,0.2v0.9l1.1,0.2v0.9
		L121.4,352z M125,351.2l-1.8,0.3l1.8,0.3V351.2z M124.3,349.8h-0.2c-2,0-2.7-0.7-2.7-1.6c0-0.3,0-0.4,0.1-0.6h1
		c-0.1,0.2-0.2,0.4-0.2,0.5c0,0.4,0.4,0.7,1.8,0.7h0.2c1.5,0,1.8-0.3,1.8-0.8c0-0.2-0.1-0.3-0.2-0.5h1c0.1,0.2,0.2,0.4,0.2,0.7
		C127.1,349.1,126.3,349.8,124.3,349.8z M121.4,347v-1h2.3l-2.3-0.8v-1.1l2.4,0.9l3.2-1v1.1l-2.1,0.6l0.6,0.2h1.5v1L121.4,347
		C121.4,347,121.4,347,121.4,347z"/>
	<path class="st2" d="M53.4,101.2h2.1v0.9h-1.2v1.4h1v0.9h-1v1.4h1.2v0.9h-2.2C53.4,106.8,53.4,101.2,53.4,101.2z M56.1,101.2H57
		l1,2.8v-2.8h1v5.6H58l-1-3v3h-1V101.2z M60,102.1h-0.7v-0.9h2.4v0.9H61v4.7h-1L60,102.1L60,102.1z M61.8,104.1v-0.3
		c0-1.8,0.6-2.7,1.5-2.7c0.9,0,1.5,0.9,1.5,2.7v0.3c0,1.8-0.6,2.7-1.5,2.7C62.4,106.8,61.8,105.9,61.8,104.1z M63.8,104.1v-0.3
		c0-1.4-0.2-1.8-0.5-1.8s-0.5,0.4-0.5,1.8v0.3c0,1.4,0.2,1.8,0.5,1.8S63.8,105.5,63.8,104.1z M65.3,105.1v-4h1v4.1
		c0,0.5,0.2,0.7,0.4,0.7c0.2,0,0.4-0.2,0.4-0.7v-4.1h1v4c0,1.2-0.6,1.7-1.4,1.7C65.9,106.8,65.3,106.3,65.3,105.1z M68.6,101.2h1
		c1,0,1.7,0.5,1.7,1.8v0.1c0,0.7-0.3,1.2-0.7,1.5l0.8,2.3h-1l-0.6-2h-0.2v2h-1V101.2z M69.6,103.9c0.4,0,0.7-0.2,0.7-0.9V103
		c0-0.7-0.3-0.9-0.8-0.9h0L69.6,103.9L69.6,103.9z M72.6,101.1h1l1.1,5.6h-1l-0.2-1.1h-0.9l-0.2,1.1h-0.9L72.6,101.1z M73.4,104.8
		l-0.3-1.8l-0.3,1.8H73.4z M74.8,104v-0.2c0-1.8,0.8-2.7,1.9-2.7c0.3,0,0.5,0.1,0.7,0.2v1c-0.2-0.1-0.5-0.2-0.7-0.2
		c-0.6,0-0.9,0.6-0.9,1.8v0.3c0,1.5,0.4,1.8,0.8,1.8c0,0,0,0,0.1,0v-1.4h-0.5v-0.9h1.4v3c-0.4,0.2-0.6,0.2-1,0.2
		C75.6,106.8,74.8,106,74.8,104z M78.1,101.2h2.1v0.9h-1.2v1.4h1v0.9h-1v1.4h1.2v0.9h-2.2V101.2z M55.6,110.1h-0.7v-0.9h2.4v0.9
		h-0.7v4.7h-1V110.1z M57.7,109.2h2.1v0.9h-1.2v1.4h1v0.9h-1v1.4h1.2v0.9h-2.2C57.7,114.8,57.7,109.2,57.7,109.2z M60.3,109.2h2.1
		v0.9h-1.2v1.4h1v0.9h-1v1.4h1.2v0.9h-2.2C60.3,114.8,60.3,109.2,60.3,109.2z M62.9,109.2h0.9l1,2.8v-2.8h1v5.6h-0.9l-1-3v3h-1
		V109.2z M67.5,112v-0.2c0-2,0.7-2.7,1.6-2.7c0.3,0,0.4,0,0.6,0.1v1c-0.2-0.1-0.4-0.2-0.5-0.2c-0.4,0-0.7,0.4-0.7,1.8v0.2
		c0,1.5,0.3,1.8,0.8,1.8c0.2,0,0.3-0.1,0.5-0.2v1c-0.2,0.1-0.4,0.2-0.7,0.2C68.2,114.8,67.5,114,67.5,112z M70.3,109.2h1v4.7h1v0.9
		h-2V109.2z M72.6,113.1v-4h1v4.1c0,0.5,0.2,0.7,0.4,0.7s0.4-0.2,0.4-0.7v-4.1h1v4c0,1.2-0.6,1.7-1.4,1.7S72.6,114.3,72.6,113.1z
		 M76,109.2h0.8c0.9,0,1.8,0.4,1.8,1.4v0c0,0.7-0.4,1.1-0.8,1.3c0.5,0.2,0.9,0.5,0.9,1.2v0.1c0,1-0.8,1.6-1.9,1.6H76
		C76,114.8,76,109.2,76,109.2z M77,111.5c0.4,0,0.7-0.2,0.7-0.7v0c0-0.5-0.3-0.7-0.7-0.7h0L77,111.5L77,111.5z M77,113.8
		c0.4,0,0.8-0.3,0.8-0.7v0c0-0.5-0.3-0.7-0.8-0.7h0L77,113.8L77,113.8L77,113.8z M64.6,117.2h1v5.6h-1V117.2z M66.2,117.2h0.9l1,2.8
		v-2.8h1v5.6h-0.9l-1-3v3h-1C66.2,122.8,66.2,117.2,66.2,117.2z M55.1,128v-0.2c0-2,0.7-2.7,1.6-2.7c0.3,0,0.4,0,0.6,0.1v1
		c-0.2-0.1-0.4-0.2-0.5-0.2c-0.4,0-0.7,0.4-0.7,1.8v0.2c0,1.5,0.3,1.8,0.8,1.8c0.2,0,0.3-0.1,0.5-0.2v1c-0.2,0.1-0.4,0.2-0.7,0.2
		C55.8,130.8,55.1,130,55.1,128z M57.9,125.2H60v0.9h-1.2v1.4h1v0.9h-1v1.4H60v0.9h-2.2C57.9,130.8,57.9,125.2,57.9,125.2z
		 M60.5,125.2h1v4.7h1v0.9h-2V125.2z M62.9,125.2H65v0.9h-1.2v1.4h1v0.9h-1v1.4h1.2v0.9h-2.2C62.9,130.8,62.9,125.2,62.9,125.2z
		 M65.5,125.2h0.8c0.9,0,1.8,0.4,1.8,1.4v0c0,0.7-0.4,1.1-0.8,1.3c0.5,0.2,0.9,0.5,0.9,1.2v0.1c0,1-0.8,1.6-1.9,1.6h-0.9
		C65.5,130.8,65.5,125.2,65.5,125.2z M66.5,127.5c0.4,0,0.7-0.2,0.7-0.7v0c0-0.5-0.3-0.7-0.7-0.7h0L66.5,127.5L66.5,127.5z
		 M66.5,129.8c0.4,0,0.8-0.3,0.8-0.7v0c0-0.5-0.3-0.7-0.8-0.7h0L66.5,129.8L66.5,129.8L66.5,129.8z M68.7,125.2h1
		c1,0,1.7,0.5,1.7,1.8v0.1c0,0.7-0.3,1.2-0.7,1.5l0.8,2.3h-1l-0.6-2h-0.2v2h-1V125.2z M69.7,127.9c0.4,0,0.7-0.2,0.7-0.9V127
		c0-0.7-0.3-0.9-0.8-0.9h0L69.7,127.9L69.7,127.9z M71.9,125.2h1v5.6h-1V125.2z M74,126.1h-0.7v-0.9h2.4v0.9H75v4.7h-1L74,126.1
		L74,126.1z M76.7,128.5l-1-3.4h1l0.5,2.1l0.5-2.1h1l-1,3.4v2.2h-1L76.7,128.5L76.7,128.5z M60.4,133.2h0.9c1.2,0,2,0.9,2,2.7v0.2
		c0,1.8-0.7,2.7-2,2.7h-0.9V133.2z M61.4,137.9c0.5,0,0.9-0.4,0.9-1.8v-0.2c0-1.4-0.4-1.8-0.9-1.8h0L61.4,137.9L61.4,137.9
		L61.4,137.9z M63.8,133.2h1v5.6h-1C63.8,138.8,63.8,133.2,63.8,133.2z M65.2,138.6v-1c0.3,0.2,0.6,0.3,0.9,0.3
		c0.3,0,0.5-0.1,0.5-0.5v0c0-0.3-0.1-0.4-0.5-1c-0.7-0.8-0.9-1.1-0.9-1.8v0c0-0.9,0.6-1.5,1.4-1.5c0.4,0,0.6,0.1,0.9,0.2v1
		c-0.3-0.2-0.5-0.3-0.7-0.3c-0.3,0-0.5,0.2-0.5,0.5v0c0,0.3,0.1,0.4,0.5,0.9c0.8,0.9,0.9,1.2,0.9,1.9v0c0,0.9-0.6,1.5-1.4,1.5
		C65.8,138.8,65.5,138.7,65.2,138.6z M67.8,136v-0.2c0-2,0.7-2.7,1.6-2.7c0.3,0,0.4,0,0.6,0.1v1c-0.2-0.1-0.4-0.2-0.5-0.2
		c-0.4,0-0.7,0.4-0.7,1.8v0.2c0,1.5,0.3,1.8,0.8,1.8c0.2,0,0.3-0.1,0.5-0.2v1c-0.2,0.1-0.4,0.2-0.7,0.2
		C68.5,138.8,67.8,138,67.8,136z M70.3,136.1v-0.3c0-1.8,0.6-2.7,1.5-2.7s1.5,0.9,1.5,2.7v0.3c0,1.8-0.6,2.7-1.5,2.7
		S70.3,137.9,70.3,136.1z M72.3,136.1v-0.3c0-1.4-0.2-1.8-0.5-1.8s-0.5,0.4-0.5,1.8v0.3c0,1.4,0.2,1.8,0.5,1.8
		S72.3,137.5,72.3,136.1z"/>
	<path class="st2" d="M18.4,119.9v-1c0.3,0.2,0.6,0.3,0.9,0.3c0.3,0,0.5-0.1,0.5-0.5v0c0-0.3-0.1-0.4-0.5-1
		c-0.7-0.8-0.9-1.1-0.9-1.8v0c0-0.9,0.6-1.5,1.4-1.5c0.4,0,0.6,0.1,0.9,0.2v1c-0.3-0.2-0.5-0.3-0.7-0.3c-0.3,0-0.5,0.2-0.5,0.5v0
		c0,0.3,0.1,0.4,0.5,0.9c0.8,0.9,0.9,1.2,0.9,1.9v0c0,0.9-0.6,1.5-1.4,1.5C19,120.1,18.7,120,18.4,119.9z M21.1,118.4v-4h1v4.1
		c0,0.5,0.2,0.7,0.4,0.7s0.4-0.2,0.4-0.7v-4.1h1v4c0,1.2-0.6,1.7-1.4,1.7C21.7,120.1,21.1,119.6,21.1,118.4z M24.5,114.5h0.9l1,2.8
		v-2.8h1v5.6h-0.9l-1-3v3h-1C24.5,120.1,24.5,114.5,24.5,114.5z M17.3,122.5h0.9c1.2,0,2,0.9,2,2.7v0.2c0,1.8-0.7,2.7-2,2.7h-0.9
		V122.5z M18.3,127.2c0.5,0,0.9-0.4,0.9-1.8v-0.2c0-1.4-0.4-1.8-0.9-1.8h0L18.3,127.2L18.3,127.2z M20.6,122.5h2.1v0.9h-1.2v1.4h1
		v0.9h-1v1.4h1.2v0.9h-2.2C20.6,128.1,20.6,122.5,20.6,122.5z M23.1,125.4v-0.2c0-2,0.7-2.7,1.6-2.7c0.3,0,0.4,0,0.6,0.1v1
		c-0.2-0.1-0.4-0.2-0.5-0.2c-0.4,0-0.7,0.4-0.7,1.8v0.2c0,1.5,0.3,1.8,0.8,1.8c0.2,0,0.3-0.1,0.5-0.2v1c-0.2,0.1-0.4,0.2-0.7,0.2
		C23.8,128.1,23.1,127.3,23.1,125.4z M25.9,122.5h1v2.3l0.8-2.3h1.1l-0.9,2.4l1,3.2h-1.1l-0.6-2.1l-0.2,0.6v1.5h-1L25.9,122.5
		L25.9,122.5z"/>
	<path class="st2" d="M52.5,211.4h0.8c0.9,0,1.8,0.4,1.8,1.4v0c0,0.7-0.4,1.1-0.8,1.3c0.5,0.2,0.9,0.5,0.9,1.2v0.1
		c0,1-0.8,1.6-1.9,1.6h-0.9V211.4z M53.5,213.8c0.4,0,0.7-0.2,0.7-0.7v0c0-0.5-0.3-0.7-0.7-0.7h0L53.5,213.8L53.5,213.8z
		 M53.5,216.1c0.4,0,0.8-0.3,0.8-0.7v0c0-0.5-0.3-0.7-0.8-0.7h0L53.5,216.1L53.5,216.1L53.5,216.1z M55.7,211.4h1v5.6h-1V211.4z
		 M57.2,211.4h2.1v0.9h-1.2v1.4h1v0.9h-1v1.4h1.2v0.9h-2.2C57.2,217,57.2,211.4,57.2,211.4z M59.9,211.4h1c1,0,1.7,0.5,1.7,1.8v0.1
		c0,0.7-0.3,1.2-0.7,1.5l0.8,2.3h-1l-0.6-2h-0.2v2h-1V211.4z M60.9,214.2c0.4,0,0.7-0.2,0.7-0.9v-0.1c0-0.7-0.3-0.9-0.8-0.9h0
		L60.9,214.2L60.9,214.2z M64.2,214.3v-0.2c0-1.8,0.8-2.7,1.9-2.7c0.3,0,0.5,0.1,0.7,0.2v1c-0.2-0.1-0.5-0.2-0.7-0.2
		c-0.6,0-0.9,0.6-0.9,1.8v0.3c0,1.5,0.4,1.8,0.8,1.8c0,0,0,0,0.1,0v-1.4h-0.5v-0.9H67v3c-0.4,0.2-0.6,0.2-1,0.2
		C65.1,217.1,64.2,216.3,64.2,214.3z M68.4,211.4h1l1.1,5.6h-1l-0.2-1.1h-0.9l-0.2,1.1h-0.9L68.4,211.4z M69.2,215l-0.3-1.8
		l-0.3,1.8H69.2z M70.8,211.4h1c1,0,1.7,0.5,1.7,1.8v0.1c0,0.7-0.3,1.2-0.7,1.5l0.8,2.3h-1l-0.6-2h-0.2v2h-1V211.4z M71.8,214.2
		c0.4,0,0.7-0.2,0.7-0.9v-0.1c0-0.7-0.3-0.9-0.8-0.9h0L71.8,214.2L71.8,214.2z M74.4,212.4h-0.7v-0.9H76v0.9h-0.7v4.7h-1L74.4,212.4
		L74.4,212.4z M76.5,211.4h2.1v0.9h-1.2v1.4h1v0.9h-1v1.4h1.2v0.9h-2.2V211.4z M79.1,211.4H80l1,2.8v-2.8h1v5.6h-0.9l-1-3v3h-1
		C79.1,217,79.1,211.4,79.1,211.4z"/>
	<path class="st2" d="M45.4,20.7v-0.3c0-1.8,0.6-2.7,1.5-2.7s1.5,0.9,1.5,2.7v0.3c0,1.8-0.6,2.7-1.5,2.7S45.4,22.5,45.4,20.7z
		 M47.4,20.7v-0.3c0-1.4-0.2-1.8-0.5-1.8s-0.5,0.4-0.5,1.8v0.3c0,1.4,0.2,1.8,0.5,1.8S47.4,22.1,47.4,20.7z M48.8,17.7h0.8
		c0.9,0,1.8,0.4,1.8,1.4v0c0,0.7-0.4,1.1-0.8,1.3c0.5,0.2,0.9,0.5,0.9,1.2v0.1c0,1-0.8,1.6-1.9,1.6h-0.9
		C48.8,23.3,48.8,17.7,48.8,17.7z M49.8,20.1c0.4,0,0.7-0.2,0.7-0.7v0c0-0.5-0.3-0.7-0.7-0.7h0L49.8,20.1L49.8,20.1z M49.8,22.4
		c0.4,0,0.8-0.3,0.8-0.7v0c0-0.5-0.3-0.7-0.8-0.7h0L49.8,22.4L49.8,22.4L49.8,22.4z M51.9,23.1v-1c0.3,0.2,0.6,0.3,0.9,0.3
		c0.3,0,0.5-0.1,0.5-0.5v0c0-0.3-0.1-0.4-0.5-1c-0.7-0.8-0.9-1.1-0.9-1.8v0c0-0.9,0.6-1.5,1.4-1.5c0.4,0,0.6,0.1,0.9,0.2v1
		c-0.3-0.2-0.5-0.3-0.7-0.3c-0.3,0-0.5,0.2-0.5,0.5v0c0,0.3,0.1,0.4,0.5,0.9c0.8,0.9,0.9,1.2,0.9,1.9v0c0,0.9-0.6,1.5-1.4,1.5
		C52.5,23.4,52.1,23.3,51.9,23.1z M54.6,17.7h2.1v0.9h-1.2V20h1V21h-1v1.4h1.2v0.9h-2.2C54.6,23.3,54.6,17.7,54.6,17.7z M57.2,17.7
		h1c1,0,1.7,0.5,1.7,1.8v0.1c0,0.7-0.3,1.2-0.7,1.5l0.8,2.3h-1l-0.6-2h-0.2v2h-1L57.2,17.7L57.2,17.7z M58.2,20.5
		c0.4,0,0.7-0.2,0.7-0.9v-0.1c0-0.7-0.3-0.9-0.8-0.9h0L58.2,20.5L58.2,20.5z M60.1,17.7h1l0.5,3.6l0.5-3.6h1l-1,5.6h-1L60.1,17.7z
		 M64,17.7h1l1.1,5.6h-1L65,22.2h-0.9l-0.2,1.1H63L64,17.7z M64.8,21.3l-0.3-1.8l-0.3,1.8H64.8z M66.7,18.7H66v-0.9h2.4v0.9h-0.7
		v4.7h-1L66.7,18.7L66.7,18.7z M68.8,17.7h1v5.6h-1V17.7z M70.3,20.7v-0.3c0-1.8,0.6-2.7,1.5-2.7s1.5,0.9,1.5,2.7v0.3
		c0,1.8-0.6,2.7-1.5,2.7S70.3,22.5,70.3,20.7z M72.3,20.7v-0.3c0-1.4-0.2-1.8-0.5-1.8s-0.5,0.4-0.5,1.8v0.3c0,1.4,0.2,1.8,0.5,1.8
		S72.3,22.1,72.3,20.7z M73.7,17.7h0.9l1,2.8v-2.8h1v5.6h-0.9l-1-3v3h-1L73.7,17.7L73.7,17.7z M78.4,17.7h0.9c1.2,0,2,0.9,2,2.7v0.2
		c0,1.8-0.7,2.7-2,2.7h-0.9V17.7z M79.5,22.4c0.5,0,0.9-0.4,0.9-1.8v-0.2c0-1.4-0.4-1.8-0.9-1.8h0L79.5,22.4L79.5,22.4z M81.8,17.7
		h2.1v0.9h-1.2V20h1V21h-1v1.4H84v0.9h-2.2V17.7z M84.3,20.6v-0.2c0-2,0.7-2.7,1.6-2.7c0.3,0,0.4,0,0.6,0.1v1
		c-0.2-0.1-0.4-0.2-0.5-0.2c-0.4,0-0.7,0.4-0.7,1.8v0.2c0,1.5,0.3,1.8,0.8,1.8c0.2,0,0.3-0.1,0.5-0.2v1c-0.2,0.1-0.4,0.2-0.7,0.2
		C84.9,23.4,84.3,22.6,84.3,20.6z M87,17.7h1v2.3l0.8-2.3h1.1L89,20.1l1,3.2h-1.1l-0.6-2.1L88,21.8v1.5h-1L87,17.7L87,17.7z"/>
	<path class="st2" d="M23.5,610.8h-0.2c-1.8,0-2.7-0.8-2.7-1.9c0-0.3,0.1-0.5,0.2-0.7h1c-0.1,0.2-0.2,0.5-0.2,0.7
		c0,0.6,0.6,0.9,1.8,0.9h0.3c1.5,0,1.8-0.4,1.8-0.8c0,0,0,0,0-0.1h-1.4v0.5H23V608h3c0.2,0.4,0.2,0.6,0.2,1
		C26.2,610,25.5,610.8,23.5,610.8z M23.6,607.6h-0.3c-1.8,0-2.7-0.6-2.7-1.5s0.9-1.5,2.7-1.5h0.3c1.8,0,2.7,0.6,2.7,1.5
		C26.3,607,25.4,607.6,23.6,607.6z M23.6,605.6h-0.3c-1.4,0-1.8,0.2-1.8,0.5s0.4,0.5,1.8,0.5h0.3c1.4,0,1.8-0.2,1.8-0.5
		S25,605.6,23.6,605.6z M20.6,604.1v-1h4.7v-1h0.9v2L20.6,604.1L20.6,604.1z M20.6,601.7v-2h0.9v1.1h1.4v-0.9h0.9v0.9h2.3v1H20.6z
		 M20.6,598v-0.9c0-1.2,0.9-2,2.7-2h0.2c1.8,0,2.7,0.7,2.7,2v0.9H20.6z M25.3,597c0-0.5-0.4-0.9-1.8-0.9h-0.2
		c-1.4,0-1.8,0.4-1.8,0.9v0L25.3,597C25.3,597,25.3,597,25.3,597z M20.6,594.6v-1c0-1,0.5-1.7,1.8-1.7h0.1c0.7,0,1.2,0.3,1.5,0.7
		l2.3-0.8v1l-2,0.6v0.2h2v1L20.6,594.6L20.6,594.6z M23.4,593.6c0-0.4-0.2-0.7-0.9-0.7h-0.1c-0.7,0-0.9,0.3-0.9,0.8v0L23.4,593.6
		L23.4,593.6z M20.6,591.4v-1h5.6v1H20.6z M20.6,590.1v-1l3.6-0.5l-3.6-0.5v-1l5.6,1v1L20.6,590.1z M20.6,586.8v-1h5.6v1H20.6z
		 M20.6,585.2v-0.9l2.8-1h-2.8v-1h5.6v0.9l-3,1h3v1L20.6,585.2L20.6,585.2z M23.5,581.9h-0.2c-1.8,0-2.7-0.8-2.7-1.9
		c0-0.3,0.1-0.5,0.2-0.7h1c-0.1,0.2-0.2,0.5-0.2,0.7c0,0.6,0.6,0.9,1.8,0.9h0.3c1.5,0,1.8-0.4,1.8-0.8c0,0,0,0,0-0.1h-1.4v0.5H23
		v-1.4h3c0.2,0.4,0.2,0.6,0.2,1C26.2,581.1,25.5,581.9,23.5,581.9z M20.6,577.3v-0.9l2.8-1h-2.8v-1h5.6v0.9l-3,1h3v1H20.6z
		 M20.6,573.9v-2.1h0.9v1.2h1.4v-1h0.9v1h1.4v-1.2h0.9v2.2H20.6z M21.5,570.7v0.7h-0.9v-2.4h0.9v0.7h4.7v1L21.5,570.7L21.5,570.7z"
		/>
	<path class="st2" d="M56.5,329.4v-0.3c0-1.8,0.6-2.7,1.5-2.7s1.5,0.9,1.5,2.7v0.3c0,1.8-0.6,2.7-1.5,2.7S56.5,331.2,56.5,329.4z
		 M58.5,329.4v-0.3c0-1.4-0.2-1.8-0.5-1.8s-0.5,0.4-0.5,1.8v0.3c0,1.4,0.2,1.8,0.5,1.8S58.5,330.8,58.5,329.4z M60,326.4h0.9
		c1.1,0,1.8,0.6,1.8,1.9v0c0,1.3-0.7,1.9-1.7,1.9h0v1.8h-1C60,332,60,326.4,60,326.4z M61,329.4c0.4,0,0.7-0.3,0.7-1v0
		c0-0.7-0.3-1-0.7-1h0L61,329.4L61,329.4L61,329.4z M63.1,326.4h2.1v0.9h-1.2v1.4h1v0.9h-1v1.4h1.2v0.9h-2.2V326.4z M65.7,326.4h0.9
		l1,2.8v-2.8h1v5.6h-0.9l-1-3v3h-1L65.7,326.4L65.7,326.4z M70.9,327.4h-0.7v-0.9h2.4v0.9h-0.7v4.7h-1
		C70.9,332,70.9,327.4,70.9,327.4z M72.8,329.4v-0.3c0-1.8,0.6-2.7,1.5-2.7c0.9,0,1.5,0.9,1.5,2.7v0.3c0,1.8-0.6,2.7-1.5,2.7
		C73.4,332.1,72.8,331.2,72.8,329.4z M74.7,329.4v-0.3c0-1.4-0.2-1.8-0.5-1.8s-0.5,0.4-0.5,1.8v0.3c0,1.4,0.2,1.8,0.5,1.8
		S74.7,330.8,74.7,329.4z M60.5,334.4h0.9c1.2,0,2,0.9,2,2.7v0.2c0,1.8-0.7,2.7-2,2.7h-0.9V334.4z M61.5,339.1
		c0.5,0,0.9-0.4,0.9-1.8v-0.2c0-1.4-0.4-1.8-0.9-1.8h0L61.5,339.1L61.5,339.1z M63.9,334.4H66v0.9h-1.2v1.4h1v0.9h-1v1.4H66v0.9
		h-2.2C63.9,340,63.9,334.4,63.9,334.4z M66.3,337.3v-0.2c0-2,0.7-2.7,1.6-2.7c0.3,0,0.4,0,0.6,0.1v1c-0.2-0.1-0.4-0.2-0.5-0.2
		c-0.4,0-0.7,0.4-0.7,1.8v0.2c0,1.5,0.3,1.8,0.8,1.8c0.2,0,0.3-0.1,0.5-0.2v1c-0.2,0.1-0.4,0.2-0.7,0.2
		C67,340.1,66.3,339.3,66.3,337.3z M69.1,334.4h1v2.3l0.8-2.3H72l-0.9,2.4l1,3.2h-1.1l-0.6-2.1l-0.2,0.6v1.5h-1L69.1,334.4
		L69.1,334.4z M58.4,342.4h0.8c0.9,0,1.8,0.4,1.8,1.4v0c0,0.7-0.4,1.1-0.8,1.3c0.5,0.2,0.9,0.5,0.9,1.2v0.1c0,1-0.8,1.6-1.9,1.6
		h-0.9V342.4z M59.4,344.8c0.4,0,0.7-0.2,0.7-0.7v0c0-0.5-0.3-0.7-0.7-0.7h0L59.4,344.8L59.4,344.8z M59.4,347.1
		c0.4,0,0.8-0.3,0.8-0.7v0c0-0.5-0.3-0.7-0.8-0.7h0L59.4,347.1L59.4,347.1L59.4,347.1z M61.6,342.4h2.1v0.9h-1.2v1.4h1v0.9h-1v1.4
		h1.2v0.9h-2.2C61.6,348,61.6,342.4,61.6,342.4z M64.2,342.4h1v4.7h1v0.9h-2C64.2,348,64.2,342.4,64.2,342.4z M66.3,345.4v-0.3
		c0-1.8,0.6-2.7,1.5-2.7s1.5,0.9,1.5,2.7v0.3c0,1.8-0.6,2.7-1.5,2.7S66.3,347.2,66.3,345.4z M68.3,345.4v-0.3c0-1.4-0.2-1.8-0.5-1.8
		s-0.5,0.4-0.5,1.8v0.3c0,1.4,0.2,1.8,0.5,1.8S68.3,346.8,68.3,345.4z M69.4,342.4h1l0.4,3.4l0.5-3.4h0.9l0.5,3.4l0.4-3.4h1
		l-0.8,5.6h-1l-0.5-3.3l-0.5,3.3h-1L69.4,342.4z"/>
	<path class="st2" d="M11.2,371.2h-1c0.2-0.3,0.3-0.6,0.3-0.9c0-0.3-0.1-0.5-0.5-0.5h0c-0.3,0-0.4,0.1-1,0.5
		c-0.8,0.7-1.1,0.9-1.8,0.9h0c-0.9,0-1.5-0.6-1.5-1.4c0-0.4,0.1-0.6,0.2-0.9h1c-0.2,0.3-0.3,0.5-0.3,0.7c0,0.3,0.2,0.5,0.5,0.5h0
		c0.3,0,0.4-0.1,0.9-0.5c0.9-0.8,1.2-0.9,1.9-0.9h0c0.9,0,1.5,0.6,1.5,1.4C11.5,370.5,11.4,370.9,11.2,371.2z M6.8,368v0.7H5.8v-2.4
		h0.9v0.7h4.7v1L6.8,368L6.8,368z M5.8,365.4v-1l5.6-1.1v1l-1.1,0.2v0.9l1.1,0.2v0.9L5.8,365.4z M9.4,364.6l-1.8,0.3l1.8,0.3V364.6z
		 M5.8,363v-1c0-1,0.5-1.7,1.8-1.7h0.1c0.7,0,1.2,0.3,1.5,0.7l2.3-0.8v1l-2,0.6v0.2h2v1H5.8z M8.6,362c0-0.4-0.2-0.7-0.9-0.7H7.6
		c-0.7,0-0.9,0.3-0.9,0.8v0L8.6,362L8.6,362L8.6,362z M6.8,358v0.7H5.8v-2.4h0.9v0.7h4.7v1L6.8,358L6.8,358z M5.8,356v-1
		c0-1,0.5-1.7,1.8-1.7h0.1c0.7,0,1.2,0.3,1.5,0.7l2.3-0.8v1l-2,0.6v0.2h2v1H5.8z M8.6,354.9c0-0.4-0.2-0.7-0.9-0.7H7.6
		c-0.7,0-0.9,0.3-0.9,0.8v0L8.6,354.9L8.6,354.9L8.6,354.9z M5.8,352v-1l5.6-1.1v1l-1.1,0.2v0.9l1.1,0.2v0.9L5.8,352z M9.4,351.2
		l-1.8,0.3l1.8,0.3V351.2z M8.7,349.8H8.5c-2,0-2.7-0.7-2.7-1.6c0-0.3,0-0.4,0.1-0.6h1c-0.1,0.2-0.2,0.4-0.2,0.5
		c0,0.4,0.4,0.7,1.8,0.7h0.2c1.5,0,1.8-0.3,1.8-0.8c0-0.2-0.1-0.3-0.2-0.5h1c0.1,0.2,0.2,0.4,0.2,0.7
		C11.5,349.1,10.7,349.8,8.7,349.8z M5.8,347v-1h2.3l-2.3-0.8v-1.1l2.4,0.9l3.2-1v1.1l-2.1,0.6l0.6,0.2h1.5v1L5.8,347L5.8,347z"/>
	<path class="st2" d="M33.4,163.9h1c1,0,1.7,0.5,1.7,1.8v0.1c0,0.7-0.3,1.2-0.7,1.5l0.8,2.3h-1l-0.6-2h-0.2v2h-1
		C33.4,169.5,33.4,163.9,33.4,163.9z M34.4,166.7c0.4,0,0.7-0.2,0.7-0.9v-0.1c0-0.7-0.3-0.9-0.8-0.9h0L34.4,166.7L34.4,166.7z
		 M36.5,163.9h1c1,0,1.7,0.5,1.7,1.8v0.1c0,0.7-0.3,1.2-0.7,1.5l0.8,2.3h-1l-0.6-2h-0.2v2h-1V163.9z M37.6,166.7
		c0.4,0,0.7-0.2,0.7-0.9v-0.1c0-0.7-0.3-0.9-0.8-0.9h0L37.6,166.7L37.6,166.7z"/>
	<path class="st2" d="M42.1,163.9h1c1,0,1.7,0.5,1.7,1.8v0.1c0,0.7-0.3,1.2-0.7,1.5l0.8,2.3h-1l-0.6-2h-0.2v2h-1V163.9z M43.1,166.7
		c0.4,0,0.7-0.2,0.7-0.9v-0.1c0-0.7-0.3-0.9-0.8-0.9h0L43.1,166.7L43.1,166.7z M45.3,163.9h1c1,0,1.7,0.5,1.7,1.8v0.1
		c0,0.7-0.3,1.2-0.7,1.5l0.8,2.3h-1l-0.6-2h-0.2v2h-1V163.9z M46.3,166.7c0.4,0,0.7-0.2,0.7-0.9v-0.1c0-0.7-0.3-0.9-0.8-0.9h0
		L46.3,166.7L46.3,166.7z"/>
	<path class="st2" d="M53.8,638.8v-1c0.3,0.2,0.6,0.3,0.9,0.3c0.3,0,0.5-0.1,0.5-0.5v0c0-0.3-0.1-0.4-0.5-1
		c-0.7-0.8-0.9-1.1-0.9-1.8v0c0-0.9,0.6-1.5,1.4-1.5c0.4,0,0.6,0.1,0.9,0.2v1c-0.3-0.2-0.5-0.3-0.7-0.3c-0.3,0-0.5,0.2-0.5,0.5v0
		c0,0.3,0.1,0.4,0.5,0.9c0.8,0.9,0.9,1.2,0.9,1.9v0c0,0.9-0.6,1.5-1.4,1.5C54.4,639.1,54.1,639,53.8,638.8z M56.9,634.4h-0.7v-0.9
		h2.4v0.9h-0.7v4.7h-1L56.9,634.4L56.9,634.4z M59.6,633.4h1l1.1,5.6h-1l-0.2-1.1h-0.9l-0.2,1.1h-0.9L59.6,633.4z M60.4,637
		l-0.3-1.8l-0.3,1.8H60.4z M62,633.4h1c1,0,1.7,0.5,1.7,1.8v0.1c0,0.7-0.3,1.2-0.7,1.5l0.8,2.3h-1l-0.6-2h-0.2v2h-1
		C62,639,62,633.4,62,633.4z M63,636.2c0.4,0,0.7-0.2,0.7-0.9v-0.1c0-0.7-0.3-0.9-0.8-0.9h0L63,636.2L63,636.2z M66.4,633.4h0.9
		c1.2,0,2,0.9,2,2.7v0.2c0,1.8-0.7,2.7-2,2.7h-0.9V633.4z M67.4,638.1c0.5,0,0.9-0.4,0.9-1.8v-0.2c0-1.4-0.4-1.8-0.9-1.8h0
		L67.4,638.1L67.4,638.1z M69.8,633.4h2.1v0.9h-1.2v1.4h1v0.9h-1v1.4h1.2v0.9h-2.2V633.4z M72.2,636.3v-0.2c0-2,0.7-2.7,1.6-2.7
		c0.3,0,0.4,0,0.6,0.1v1c-0.2-0.1-0.4-0.2-0.5-0.2c-0.4,0-0.7,0.4-0.7,1.8v0.2c0,1.5,0.3,1.8,0.8,1.8c0.2,0,0.3-0.1,0.5-0.2v1
		c-0.2,0.1-0.4,0.2-0.7,0.2C72.9,639.1,72.2,638.3,72.2,636.3z M75,633.4h1v2.3l0.8-2.3h1.1l-0.9,2.4l1,3.2h-1.1l-0.6-2.1l-0.2,0.6
		v1.5h-1L75,633.4L75,633.4z"/>
	<path class="st2" d="M107.7,621.4v-0.8c0-0.9,0.4-1.8,1.4-1.8h0c0.7,0,1.1,0.4,1.3,0.8c0.2-0.5,0.5-0.9,1.2-0.9h0.1
		c1,0,1.6,0.8,1.6,1.9v0.9L107.7,621.4L107.7,621.4z M110.1,620.4c0-0.4-0.2-0.7-0.7-0.7h0c-0.5,0-0.7,0.3-0.7,0.7v0L110.1,620.4
		L110.1,620.4z M112.4,620.4c0-0.4-0.3-0.8-0.7-0.8h0c-0.5,0-0.7,0.3-0.7,0.8v0L112.4,620.4L112.4,620.4L112.4,620.4z M107.7,617.5
		v-1l5.6-1.1v1l-1.1,0.2v0.9l1.1,0.2v0.9L107.7,617.5z M111.3,616.7l-1.8,0.3l1.8,0.3V616.7z M113.1,615.2h-1
		c0.2-0.3,0.3-0.6,0.3-0.9c0-0.3-0.1-0.5-0.5-0.5h0c-0.3,0-0.4,0.1-1,0.5c-0.8,0.7-1.1,0.9-1.8,0.9h0c-0.9,0-1.5-0.6-1.5-1.4
		c0-0.4,0.1-0.6,0.2-0.9h1c-0.2,0.3-0.3,0.5-0.3,0.7c0,0.3,0.2,0.5,0.5,0.5h0c0.3,0,0.4-0.1,0.9-0.5c0.9-0.8,1.2-0.9,1.9-0.9h0
		c0.9,0,1.5,0.6,1.5,1.4C113.4,614.6,113.3,614.9,113.1,615.2z M107.7,612.5v-1h2.3l-2.3-0.8v-1.1l2.4,0.9l3.2-1v1.1l-2.1,0.6
		l0.6,0.2h1.5v1L107.7,612.5C107.7,612.5,107.7,612.5,107.7,612.5z M107.7,609.3v-2.1h0.9v1.2h1.4v-1h0.9v1h1.4v-1.2h0.9v2.2H107.7z
		 M108.7,606.1v0.7h-0.9v-2.4h0.9v0.7h4.7v1L108.7,606.1L108.7,606.1z M107.7,604v-0.8c0-0.9,0.4-1.8,1.4-1.8h0
		c0.7,0,1.1,0.4,1.3,0.8c0.2-0.5,0.5-0.9,1.2-0.9h0.1c1,0,1.6,0.8,1.6,1.9v0.9L107.7,604L107.7,604z M110.1,603
		c0-0.4-0.2-0.7-0.7-0.7h0c-0.5,0-0.7,0.3-0.7,0.7v0L110.1,603L110.1,603z M112.4,603c0-0.4-0.3-0.8-0.7-0.8h0
		c-0.5,0-0.7,0.3-0.7,0.8v0L112.4,603L112.4,603L112.4,603z M107.7,600.1v-1l5.6-1.1v1l-1.1,0.2v0.9l1.1,0.2v0.9L107.7,600.1z
		 M111.3,599.3l-1.8,0.3l1.8,0.3V599.3z M107.7,597.7v-1h4.7v-1h0.9v2H107.7z M107.7,595.3v-1h4.7v-1h0.9v2H107.7z M110.6,591.8
		h-0.2c-2,0-2.7-0.7-2.7-1.6c0-0.3,0-0.4,0.1-0.6h1c-0.1,0.2-0.2,0.4-0.2,0.5c0,0.4,0.4,0.7,1.8,0.7h0.2c1.5,0,1.8-0.3,1.8-0.8
		c0-0.2-0.1-0.3-0.2-0.5h1c0.1,0.2,0.2,0.4,0.2,0.7C113.4,591.1,112.6,591.8,110.6,591.8z M110.7,589.3h-0.3c-1.8,0-2.7-0.6-2.7-1.5
		s0.9-1.5,2.7-1.5h0.3c1.8,0,2.7,0.6,2.7,1.5S112.5,589.3,110.7,589.3z M110.7,587.3h-0.3c-1.4,0-1.8,0.2-1.8,0.5s0.4,0.5,1.8,0.5
		h0.3c1.4,0,1.8-0.2,1.8-0.5S112.1,587.3,110.7,587.3z M111.7,585.8h-4v-1h4.1c0.5,0,0.7-0.2,0.7-0.4c0-0.2-0.2-0.4-0.7-0.4h-4.1v-1
		h4c1.2,0,1.7,0.6,1.7,1.4C113.4,585.2,112.9,585.8,111.7,585.8z M107.7,582.5v-1c0-1,0.5-1.7,1.8-1.7h0.1c0.7,0,1.2,0.3,1.5,0.7
		l2.3-0.8v1l-2,0.6v0.2h2v1L107.7,582.5L107.7,582.5z M110.5,581.5c0-0.4-0.2-0.7-0.9-0.7h-0.1c-0.7,0-0.9,0.3-0.9,0.8v0
		L110.5,581.5L110.5,581.5z M108.7,578.9v0.7h-0.9v-2.4h0.9v0.7h4.7v1H108.7z"/>
	<path class="st2" d="M56.4,662.8h1v2.3h0.8v-2.3h1v5.6h-1V666h-0.8v2.4h-1L56.4,662.8L56.4,662.8z M59.8,662.8h2.1v0.9h-1.2v1.4h1
		v0.9h-1v1.4H62v0.9h-2.2V662.8z M62.4,662.8h1v4.7h1v0.9h-2C62.4,668.4,62.4,662.8,62.4,662.8z M64.9,662.8h1v5.6h-1V662.8z
		 M66.4,662.8h0.9c1.1,0,1.8,0.6,1.8,1.9v0c0,1.3-0.7,1.9-1.7,1.9h0v1.8h-1V662.8z M67.4,665.7c0.4,0,0.7-0.3,0.7-1v0
		c0-0.7-0.3-1-0.7-1h0L67.4,665.7L67.4,665.7L67.4,665.7z M70,662.7h1l1.1,5.6h-1l-0.2-1.1h-0.9l-0.2,1.1h-0.9L70,662.7z
		 M70.8,666.4l-0.3-1.8l-0.3,1.8H70.8z M72.4,662.8h0.9c1.2,0,2,0.9,2,2.7v0.2c0,1.8-0.7,2.7-2,2.7h-0.9V662.8z M73.4,667.5
		c0.5,0,0.9-0.4,0.9-1.8v-0.2c0-1.4-0.4-1.8-0.9-1.8h0L73.4,667.5L73.4,667.5z"/>
</g>
<g id="SPIRIT_DECK_13_TOP">
	<g id="gDeck13Locations">
		<path width="121.078" height="193.6563" id="_x31_3Aft" class="st3" d="M5.5,502.3v178.3C6.1,697.1,21.3,698,21.3,694c0-17.7,6.6-19.8,11.2-19.8s9.1,17.7,33.5,17.7
			c24.3,0,29.5-17.7,33.9-17.7c4.4,0,11.7,2.2,11.7,20c0,3.8,15.8,0.6,15-13.8V502.3H5.5z"/>
		<polygon width="130.654" height="301.2" id="_x31_3MidShip" class="st3" points="126.6,416 131.4,409.9 131.4,271.7 126.4,265.1 126.4,201.1 6.8,201.1 6.8,265.1 
			0.7,272 0.7,410.2 5.5,416.2 5.5,502.3 126.6,502.3 		"/>
		<path width="134" height="200.647" id="_x31_3Forward" class="st3" d="M126.4,17.7h7.9c0,0,3-9.6-57.4-16.6l-1.5-0.6L58.5,0.7l-1.7,0.8
			C-1.7,8.1,0.3,17.7,0.3,17.7h6.4v183.5h119.7V17.7z"/>
	</g>
	<path class="st4" d="M0.7,272v138.2l4.8,6v264.5C6.2,697.1,21.3,698,21.3,694c0-17.7,6.6-19.8,11.2-19.8s9.1,17.7,33.5,17.7
		s29.5-17.7,33.9-17.7c4.4,0,11.7,2.2,11.7,20c0,3.8,15.8,0.6,15-13.8V416l4.8-6V271.7l-5-6.6V17.7h7.9c0,0,3-9.6-57.3-16.6
		l-1.5-0.6L58.7,0.7L57,1.4C-1.5,8.1,0.5,17.7,0.5,17.7h6.4v247.4L0.7,272z"/>
</g>
</svg>
