<?xml version="1.0" encoding="utf-8"?>
<!-- Generator: Adobe Illustrator 25.4.1, SVG Export Plug-In . SVG Version: 6.00 Build 0)  -->
<svg version="1.1" id="PRIMA_DECK_06" xmlns="http://www.w3.org/2000/svg" xmlns:xlink="http://www.w3.org/1999/xlink" x="0px"
	 y="0px" width="176.5px" height="1039.6px" viewBox="0 0 176.5 1039.6" style="enable-background:new 0 0 176.5 1039.6;"
	 xml:space="preserve">
<style type="text/css">
	.st0{fill:#FFFFFF;}
	.st1{fill:none;stroke:#D8DCDA;stroke-width:0.5;}
	.st2{fill:#616E7E;}
	.st3{fill:none;}
	.st4{fill:none;stroke:#204F88;stroke-miterlimit:10;}
</style>
<g id="PRIMA_DECK_06_BOTTOM">
	<path class="st0" d="M88.1,1038.3c43.2,0,73-37.7,73-37.7v-187h11.7v-20.8h-5V216.5l-6.8-10.5c0,0,0.2-72-0.8-83.8
		s-8.5-46.5-19.5-66.5S107.3,1,88.1,1S46.3,35.8,35.3,55.8s-18.5,54.8-19.5,66.5S15.1,206,15.1,206l-6.8,10.5v576.2h-5v20.8h11.7
		v187C15.1,1000.5,44.9,1038.3,88.1,1038.3z"/>
	<rect x="56.3" y="368.4" class="st1" width="9.6" height="10.3"/>
	<rect x="56.3" y="378.8" class="st1" width="9.6" height="10.3"/>
	<rect x="78.6" y="368.4" class="st1" width="9.6" height="10.3"/>
	<rect x="78.6" y="378.8" class="st1" width="9.6" height="10.3"/>
	<rect x="88.1" y="368.4" class="st1" width="9.6" height="10.3"/>
	<rect x="88.1" y="378.8" class="st1" width="9.6" height="10.3"/>
	<line class="st1" x1="56.3" y1="368.4" x2="65.9" y2="378.8"/>
	<polyline class="st1" points="56.3,378.8 65.9,389.1 78.6,389.1 97.7,368.4 	"/>
	<line class="st1" x1="56.3" y1="389.1" x2="65.9" y2="378.8"/>
	<line class="st1" x1="56.3" y1="378.8" x2="65.9" y2="368.4"/>
	<rect x="110.1" y="368.4" class="st1" width="9.6" height="10.3"/>
	<rect x="110.1" y="378.8" class="st1" width="9.6" height="10.3"/>
	<line class="st1" x1="110.1" y1="368.4" x2="119.7" y2="378.8"/>
	<line class="st1" x1="110.1" y1="378.8" x2="119.7" y2="389.1"/>
	<line class="st1" x1="110.1" y1="378.8" x2="119.7" y2="368.4"/>
	<polyline class="st1" points="78.6,368.4 97.7,389.1 110.1,389.1 119.7,378.8 	"/>
	<line class="st1" x1="78.6" y1="378.8" x2="88.2" y2="389.1"/>
	<line class="st1" x1="88.2" y1="368.4" x2="78.6" y2="378.8"/>
	<line class="st1" x1="97.7" y1="378.8" x2="88.2" y2="368.4"/>
	<line class="st1" x1="88.2" y1="389.1" x2="97.7" y2="378.8"/>
	<g>
		<rect x="65.9" y="343.6" class="st1" width="10" height="1.1"/>
		<rect x="65.9" y="344.7" class="st1" width="10" height="1.1"/>
		<rect x="65.9" y="345.8" class="st1" width="10" height="1.1"/>
		<polygon class="st1" points="74.3,348 65.9,348 65.9,346.9 75.9,346.9 		"/>
		<polygon class="st1" points="72.6,349.1 65.9,349.1 65.9,348 74.3,348 		"/>
		<polygon class="st1" points="71,350.2 65.9,350.2 65.9,349.1 72.6,349.1 		"/>
		<rect x="65.9" y="350.2" class="st1" width="5" height="1.1"/>
		<path class="st1" d="M71.4,343.8c0-0.2-0.1-0.3-0.2-0.3l0,0c-0.1,0-0.2,0.1-0.2,0.3v7.6c0,0.2,0.1,0.3,0.2,0.3l0,0
			c0.1,0,0.2-0.1,0.2-0.3V343.8z"/>
	</g>
	<g>
		<rect x="100.4" y="343.6" class="st1" width="9" height="1.1"/>
		<rect x="100.4" y="344.7" class="st1" width="9" height="1.1"/>
		<rect x="100.4" y="345.8" class="st1" width="9" height="1.1"/>
		<polygon class="st1" points="101.9,348 109.4,348 109.4,346.9 100.4,346.9 		"/>
		<polygon class="st1" points="103.3,349.1 109.4,349.1 109.4,348 101.9,348 		"/>
		<polygon class="st1" points="104.7,350.2 109.4,350.2 109.4,349.1 103.3,349.1 		"/>
		<rect x="104.9" y="350.2" class="st1" width="4.5" height="1.1"/>
		<path class="st1" d="M104.4,343.8c0-0.2,0.1-0.3,0.2-0.3l0,0c0.1,0,0.2,0.1,0.2,0.3v7.6c0,0.2-0.1,0.3-0.2,0.3l0,0
			c-0.1,0-0.2-0.1-0.2-0.3V343.8z"/>
	</g>
	<rect x="78.9" y="343.6" class="st1" width="18.4" height="1.1"/>
	<rect x="78.9" y="344.7" class="st1" width="18.4" height="1.1"/>
	<rect x="78.9" y="345.8" class="st1" width="18.4" height="1.1"/>
	<rect x="78.9" y="346.9" class="st1" width="18.4" height="1.1"/>
	<rect x="78.9" y="348" class="st1" width="18.4" height="1.1"/>
	<rect x="78.9" y="349.1" class="st1" width="18.4" height="1.1"/>
	<rect x="78.9" y="350.2" class="st1" width="18.4" height="1.1"/>
	<path class="st1" d="M92.4,343.8c0-0.2,0.1-0.3,0.2-0.3l0,0c0.1,0,0.2,0.1,0.2,0.3v7.6c0,0.2-0.1,0.3-0.2,0.3l0,0
		c-0.1,0-0.2-0.1-0.2-0.3V343.8z"/>
	<path class="st1" d="M83.3,343.8c0-0.2,0.1-0.3,0.2-0.3l0,0c0.1,0,0.2,0.1,0.2,0.3v7.6c0,0.2-0.1,0.3-0.2,0.3l0,0
		c-0.1,0-0.2-0.1-0.2-0.3V343.8z"/>
	<path class="st1" d="M55.2,355.4h10.7V338h10v16.2c0,0.8,0.7,1.5,1.5,1.5c0.8,0,1.5-0.7,1.5-1.5V338h18.4v16.2
		c0,0.8,0.7,1.5,1.5,1.5l0,0c0.8,0,1.5-0.7,1.5-1.5V338h9v17.7H121"/>
	<g>
		<rect x="100.4" y="695.3" class="st1" width="9" height="1.1"/>
		<rect x="100.4" y="694.2" class="st1" width="9" height="1.1"/>
		<rect x="100.4" y="693.1" class="st1" width="9" height="1.1"/>
		<polygon class="st1" points="101.8,692 109.4,692 109.4,693.1 100.4,693.1 		"/>
		<polygon class="st1" points="103.3,690.9 109.4,690.9 109.4,691.9 101.8,691.9 		"/>
		<polygon class="st1" points="104.7,689.8 109.4,689.8 109.4,690.9 103.3,690.9 		"/>
		<rect x="104.9" y="688.7" class="st1" width="4.5" height="1.1"/>
		<path class="st1" d="M104.4,696.2c0,0.2,0.1,0.3,0.2,0.3l0,0c0.1,0,0.2-0.1,0.2-0.3l0-7.6c0-0.2-0.1-0.3-0.2-0.3l0,0
			c-0.1,0-0.2,0.1-0.2,0.3L104.4,696.2z"/>
	</g>
	<g>
		<rect x="66.9" y="695.3" class="st1" width="9" height="1.1"/>
		<rect x="66.9" y="694.2" class="st1" width="9" height="1.1"/>
		<rect x="66.9" y="693.1" class="st1" width="9" height="1.1"/>
		<polygon class="st1" points="74.4,692 66.9,692 66.9,693.1 75.9,693.1 		"/>
		<polygon class="st1" points="73,690.9 66.9,690.9 66.9,691.9 74.4,691.9 		"/>
		<polygon class="st1" points="71.6,689.8 66.9,689.8 66.9,690.9 73,690.9 		"/>
		<rect x="66.9" y="688.7" class="st1" width="4.5" height="1.1"/>
		<path class="st1" d="M71.9,696.2c0,0.2-0.1,0.3-0.2,0.3l0,0c-0.1,0-0.2-0.1-0.2-0.3v-7.6c0-0.2,0.1-0.3,0.2-0.3l0,0
			c0.1,0,0.2,0.1,0.2,0.3V696.2z"/>
	</g>
	<rect x="78.9" y="695.3" class="st1" width="18.4" height="1.1"/>
	<rect x="78.9" y="694.2" class="st1" width="18.4" height="1.1"/>
	<rect x="78.9" y="693.1" class="st1" width="18.4" height="1.1"/>
	<rect x="78.9" y="692" class="st1" width="18.4" height="1.1"/>
	<rect x="78.9" y="690.9" class="st1" width="18.4" height="1.1"/>
	<rect x="78.9" y="689.8" class="st1" width="18.4" height="1.1"/>
	<rect x="78.9" y="688.7" class="st1" width="18.4" height="1.1"/>
	<path class="st1" d="M83.9,696.2c0,0.2-0.1,0.3-0.2,0.3l0,0c-0.1,0-0.2-0.1-0.2-0.3l0-7.6c0-0.2,0.1-0.3,0.2-0.3l0,0
		c0.1,0,0.2,0.1,0.2,0.3L83.9,696.2z"/>
	<path class="st1" d="M93,696.2c0,0.2-0.1,0.3-0.2,0.3l0,0c-0.1,0-0.2-0.1-0.2-0.3l0-7.6c0-0.2,0.1-0.3,0.2-0.3l0,0
		c0.1,0,0.2,0.1,0.2,0.3L93,696.2z"/>
	<path class="st1" d="M64.2,684.4l2.8-0.9l0,18.5h9l0-18.2c0-0.8,0.7-1.5,1.5-1.5h0c0.8,0,1.5,0.7,1.5,1.5l0,18.2h18.4l0-18.2
		c0-0.8,0.7-1.5,1.5-1.5c0.8,0,1.5,0.7,1.5,1.5l0,18.2h9.1v-18.3l2.8,0.5"/>
	<polyline class="st1" points="54,671.5 78.1,671.5 78.1,641.7 98.3,641.7 98.3,671.9 121.3,671.9 	"/>
	<line class="st1" x1="78.1" y1="641.7" x2="68.3" y2="641.7"/>
	<line class="st1" x1="68.3" y1="641.5" x2="68.3" y2="671.5"/>
	<line class="st1" x1="107.7" y1="641.5" x2="107.7" y2="671.9"/>
	<line class="st1" x1="68.3" y1="651.4" x2="78.1" y2="651.4"/>
	<line class="st1" x1="68.3" y1="661.4" x2="78.1" y2="661.4"/>
	<line class="st1" x1="68.3" y1="641.7" x2="78.1" y2="651.4"/>
	<line class="st1" x1="68.3" y1="651.4" x2="78.1" y2="661.4"/>
	<line class="st1" x1="68.3" y1="661.4" x2="78.1" y2="671.5"/>
	<line class="st1" x1="78.1" y1="661.4" x2="68.3" y2="671.5"/>
	<line class="st1" x1="78.1" y1="651.4" x2="68.7" y2="661.1"/>
	<line class="st1" x1="78.1" y1="641.7" x2="68.3" y2="651.4"/>
	<line class="st1" x1="98.3" y1="641.7" x2="107.7" y2="641.7"/>
	<line class="st1" x1="107.8" y1="651.4" x2="98.3" y2="651.4"/>
	<line class="st1" x1="98.3" y1="661.6" x2="107.7" y2="661.6"/>
	<line class="st1" x1="98.3" y1="661.6" x2="107.7" y2="671.9"/>
	<line class="st1" x1="107.7" y1="661.6" x2="98.3" y2="671.9"/>
	<line class="st1" x1="98.3" y1="651.4" x2="107.7" y2="661.6"/>
	<line class="st1" x1="98.3" y1="641.7" x2="107.5" y2="651.1"/>
	<line class="st1" x1="107.7" y1="641.5" x2="98.3" y2="651.4"/>
	<line class="st1" x1="107.8" y1="651.4" x2="98.3" y2="661.6"/>
	<rect x="78.4" y="803.4" class="st1" width="20.5" height="10.3"/>
	<line class="st1" x1="88.2" y1="803.4" x2="88.2" y2="813.8"/>
	<line class="st1" x1="98.8" y1="803.4" x2="88.2" y2="813.8"/>
	<polyline class="st1" points="88.2,813.8 78.4,803.4 78.4,781.3 96.7,781.3 96.7,795.3 	"/>
	<line class="st1" x1="78.4" y1="813.8" x2="88.2" y2="803.4"/>
	<line class="st1" x1="98.8" y1="813.8" x2="88.2" y2="803.4"/>
	<path class="st2" d="M79.7,537.3H79v-0.9h2.4v0.9h-0.7v4.7h-1V537.3z M81.5,539.4v-0.3c0-1.8,0.6-2.7,1.5-2.7
		c0.9,0,1.5,0.9,1.5,2.7v0.3c0,1.8-0.6,2.7-1.5,2.7C82.1,542.1,81.5,541.2,81.5,539.4z M83.5,539.4v-0.3c0-1.4-0.2-1.8-0.5-1.8
		s-0.5,0.4-0.5,1.8v0.3c0,1.4,0.2,1.8,0.5,1.8S83.5,540.8,83.5,539.4z M86.2,539.3v-0.2c0-2,0.7-2.7,1.6-2.7c0.3,0,0.4,0,0.6,0.1v1
		c-0.2-0.1-0.4-0.2-0.5-0.2c-0.4,0-0.7,0.4-0.7,1.8v0.2c0,1.5,0.3,1.8,0.8,1.8c0.2,0,0.3-0.1,0.5-0.2v1c-0.2,0.1-0.4,0.2-0.7,0.2
		C86.8,542.1,86.2,541.3,86.2,539.3z M88.6,539.4v-0.3c0-1.8,0.6-2.7,1.5-2.7s1.5,0.9,1.5,2.7v0.3c0,1.8-0.6,2.7-1.5,2.7
		S88.6,541.2,88.6,539.4z M90.6,539.4v-0.3c0-1.4-0.2-1.8-0.5-1.8s-0.5,0.4-0.5,1.8v0.3c0,1.4,0.2,1.8,0.5,1.8
		S90.6,540.8,90.6,539.4z M92.1,536.4h1l0.7,2l0.7-2h1v5.6h-0.9v-3.4l-0.7,2.1h0l-0.7-2.1v3.4h-0.9V536.4z M96,536.4h2.1v0.9H97v1.4
		h1v0.9h-1v1.4h1.2v0.9H96V536.4z"/>
	<path class="st2" d="M76,816.4h-0.7v-0.9h2.4v0.9H77v4.7h-1V816.4z M78.1,815.4h1v2.3h0.8v-2.3h1v5.6h-1v-2.4h-0.8v2.4h-1V815.4z
		 M81.5,815.4h2.1v0.9h-1.2v1.4h1v0.9h-1v1.4h1.2v0.9h-2.2V815.4z M85.4,815.4h1v2.3h0.8v-2.3h1v5.6h-1v-2.4h-0.8v2.4h-1V815.4z
		 M89.5,815.4h1l1.1,5.6h-1l-0.2-1.1h-0.9l-0.2,1.1h-0.9L89.5,815.4z M90.3,819l-0.3-1.8l-0.3,1.8H90.3z M91.6,815.4h1l0.5,3.6
		l0.5-3.6h1l-1,5.6h-1L91.6,815.4z M94.9,815.4H97v0.9h-1.2v1.4h1v0.9h-1v1.4H97v0.9h-2.2V815.4z M97.5,815.4h0.9l1,2.8v-2.8h1v5.6
		h-0.9l-1-3v3h-1V815.4z M78.8,823.4h0.9c1.1,0,1.8,0.6,1.8,1.9v0c0,1.3-0.7,1.9-1.7,1.9h0v1.8h-1V823.4z M79.8,826.4
		c0.4,0,0.7-0.3,0.7-1v0c0-0.7-0.3-1-0.7-1h0L79.8,826.4L79.8,826.4z M81.8,823.4h1c1,0,1.7,0.5,1.7,1.8v0.1c0,0.7-0.3,1.2-0.7,1.5
		l0.8,2.3h-1l-0.6-2h-0.2v2h-1V823.4z M82.9,826.2c0.4,0,0.7-0.2,0.7-0.9v-0.1c0-0.7-0.3-0.9-0.8-0.9h0L82.9,826.2L82.9,826.2z
		 M85,823.4h1v5.6h-1V823.4z M86.3,823.4h1l0.5,3.6l0.5-3.6h1l-1,5.6h-1L86.3,823.4z M90.3,823.4h1l1.1,5.6h-1l-0.2-1.1h-0.9
		l-0.2,1.1h-0.9L90.3,823.4z M91.1,827l-0.3-1.8l-0.3,1.8H91.1z M92.9,824.4h-0.7v-0.9h2.4v0.9h-0.7v4.7h-1V824.4z M95,823.4h2.1
		v0.9H96v1.4h1v0.9h-1v1.4h1.2v0.9H95V823.4z M75.7,831.4h2.1v0.9h-1.2v1.4h1v0.9h-1v1.4h1.2v0.9h-2.2V831.4z M78.3,831.4h1v4.7h1
		v0.9h-2V831.4z M80.7,831.4h2.1v0.9h-1.2v1.4h1v0.9h-1v1.4h1.2v0.9h-2.2V831.4z M83.1,831.4h1l0.5,3.6l0.5-3.6h1l-1,5.6h-1
		L83.1,831.4z M87,831.4h1l1.1,5.6h-1l-0.2-1.1h-0.9l-0.2,1.1h-0.9L87,831.4z M87.8,835l-0.3-1.8l-0.3,1.8H87.8z M89.7,832.4H89
		v-0.9h2.4v0.9h-0.7v4.7h-1V832.4z M91.5,834.4v-0.3c0-1.8,0.6-2.7,1.5-2.7c0.9,0,1.5,0.9,1.5,2.7v0.3c0,1.8-0.6,2.7-1.5,2.7
		C92.1,837.1,91.5,836.2,91.5,834.4z M93.5,834.4v-0.3c0-1.4-0.2-1.8-0.5-1.8s-0.5,0.4-0.5,1.8v0.3c0,1.4,0.2,1.8,0.5,1.8
		S93.5,835.8,93.5,834.4z M95,831.4h1c1,0,1.7,0.5,1.7,1.8v0.1c0,0.7-0.3,1.2-0.7,1.5l0.8,2.3h-1l-0.6-2h-0.2v2h-1V831.4z M96,834.2
		c0.4,0,0.7-0.2,0.7-0.9v-0.1c0-0.7-0.3-0.9-0.8-0.9h0L96,834.2L96,834.2z M98,836.8v-1c0.3,0.2,0.6,0.3,0.9,0.3
		c0.3,0,0.5-0.1,0.5-0.5v0c0-0.3-0.1-0.4-0.5-1c-0.7-0.8-0.9-1.1-0.9-1.8v0c0-0.9,0.6-1.5,1.4-1.5c0.4,0,0.6,0.1,0.9,0.2v1
		c-0.3-0.2-0.5-0.3-0.7-0.3c-0.3,0-0.5,0.2-0.5,0.5v0c0,0.3,0.1,0.4,0.5,0.9c0.8,0.9,0.9,1.2,0.9,1.9v0c0,0.9-0.6,1.5-1.4,1.5
		C98.6,837.1,98.3,837,98,836.8z"/>
</g>
<g id="PRIMA_DECK_06_TOP">
	<g id="gDeck06Locations">
		<path width="169.4417" height="359.2698" id="_x30_6Aft" class="st3" d="M8.3,679v113.8h-5v20.8h11.7v187c0,0,29.8,37.7,73,37.7c43.2,0,73-37.7,73-37.7v-187h11.7
			v-20.8h-5V679H8.3z"/>
		<rect width="159.5226" height="317" id="_x30_6MidShip" x="8.3" y="362" class="st3"/>
		<path width="159.5226" height="360.9802" id="_x30_6Forward" class="st3" d="M167.9,216.5l-6.8-10.5c0,0,0.2-72-0.8-83.8s-8.5-46.5-19.5-66.5S107.3,1,88.1,1
			C68.9,1,46.3,35.8,35.3,55.8s-18.5,54.8-19.5,66.5S15.1,206,15.1,206l-6.8,10.5V362h159.5V216.5z"/>
	</g>
	<path class="st4" d="M88.1,1038.3c43.2,0,73-37.7,73-37.7v-187h11.7v-20.8h-5V216.5l-6.8-10.5c0,0,0.2-72-0.8-83.8
		s-8.5-46.5-19.5-66.5S107.3,1,88.1,1S46.3,35.8,35.3,55.8s-18.5,54.8-19.5,66.5S15.1,206,15.1,206l-6.8,10.5v576.2h-5v20.8h11.7
		v187C15.1,1000.5,44.9,1038.3,88.1,1038.3z"/>
</g>
</svg>
