<?xml version="1.0" encoding="utf-8"?>
<!-- Generator: Adobe Illustrator 25.4.1, SVG Export Plug-In . SVG Version: 6.00 Build 0)  -->
<svg version="1.1" id="PRIMA_DECK_07" xmlns="http://www.w3.org/2000/svg" xmlns:xlink="http://www.w3.org/1999/xlink" x="0px"
	 y="0px" width="189.9px" height="1030.6px" viewBox="0 0 189.9 1030.6" style="enable-background:new 0 0 189.9 1030.6;"
	 xml:space="preserve">
<style type="text/css">
	.st0{fill:#FFFFFF;}
	.st1{fill:none;stroke:#D8DCDA;stroke-width:0.5;}
	.st2{fill:#616E7E;}
	.st3{fill:none;}
	.st4{fill:none;stroke:#204F88;stroke-miterlimit:10;}
</style>
<g id="PRIMA_DECK_07_BOTTOM">
	<path class="st0" d="M167.1,145.3c0-89-40.9-143.7-72.1-143.7c-32.3,0-72.1,54.5-72.1,143.7v59.5l-5,3.5v36h14.2v120.6h-8.3v27.7
		l-8.2,8v47l16.5,15.5v320.8h-24v20.3h15v100.2c-7.1,12.3-11.3,26.5-11.3,41.8c0,45.9,37.2,83.1,83.1,83.1
		c45.9,0,83.1-37.2,83.1-83.1c0-15.3-4.1-29.5-11.3-41.8V804.1h15v-20.3h-24V463.1l16.5-15.5v-47l-8.2-8v-27.7h-8.3V244.3h14.2v-36
		l-5-3.5V145.3z"/>
	<rect x="62.8" y="364.9" class="st1" width="9.6" height="10.3"/>
	<rect x="62.8" y="375.2" class="st1" width="9.6" height="10.3"/>
	<rect x="85.1" y="364.9" class="st1" width="9.6" height="10.3"/>
	<rect x="85.1" y="375.2" class="st1" width="9.6" height="10.3"/>
	<rect x="94.6" y="364.9" class="st1" width="9.6" height="10.3"/>
	<rect x="94.6" y="375.2" class="st1" width="9.6" height="10.3"/>
	<line class="st1" x1="62.8" y1="364.9" x2="72.4" y2="375.2"/>
	<polyline class="st1" points="62.8,375.2 72.4,385.5 85.1,385.5 104.2,364.9 	"/>
	<line class="st1" x1="62.8" y1="385.5" x2="72.4" y2="375.2"/>
	<line class="st1" x1="62.8" y1="375.2" x2="72.4" y2="364.9"/>
	<rect x="116.6" y="364.9" class="st1" width="9.6" height="10.3"/>
	<rect x="116.6" y="375.2" class="st1" width="9.6" height="10.3"/>
	<line class="st1" x1="116.6" y1="364.9" x2="126.2" y2="375.2"/>
	<line class="st1" x1="116.6" y1="375.2" x2="126.2" y2="385.5"/>
	<line class="st1" x1="116.6" y1="375.2" x2="126.2" y2="364.9"/>
	<polyline class="st1" points="85.1,364.9 104.2,385.5 116.6,385.5 126.2,375.2 	"/>
	<line class="st1" x1="85.1" y1="375.2" x2="94.7" y2="385.5"/>
	<line class="st1" x1="94.7" y1="364.9" x2="85.1" y2="375.2"/>
	<line class="st1" x1="104.2" y1="375.2" x2="94.7" y2="364.9"/>
	<line class="st1" x1="94.7" y1="385.5" x2="104.2" y2="375.2"/>
	<rect x="72.4" y="340" class="st1" width="10" height="1.1"/>
	<rect x="72.4" y="341.1" class="st1" width="10" height="1.1"/>
	<rect x="72.4" y="342.3" class="st1" width="10" height="1.1"/>
	<polygon class="st1" points="80.8,344.4 72.4,344.4 72.4,343.3 82.4,343.3 	"/>
	<polygon class="st1" points="79.1,345.6 72.4,345.6 72.4,344.5 80.8,344.5 	"/>
	<polygon class="st1" points="77.6,346.6 72.4,346.6 72.4,345.6 79.1,345.6 	"/>
	<rect x="72.4" y="346.6" class="st1" width="5" height="1.1"/>
	<path class="st1" d="M77.9,340.2c0-0.2-0.1-0.3-0.2-0.3l0,0c-0.1,0-0.2,0.1-0.2,0.3v7.6c0,0.2,0.1,0.3,0.2,0.3l0,0
		c0.1,0,0.2-0.1,0.2-0.3V340.2z"/>
	<rect x="106.9" y="340" class="st1" width="9" height="1.1"/>
	<rect x="106.9" y="341.1" class="st1" width="9" height="1.1"/>
	<rect x="106.9" y="342.3" class="st1" width="9" height="1.1"/>
	<polygon class="st1" points="108.4,344.4 115.9,344.4 115.9,343.3 106.9,343.3 	"/>
	<polygon class="st1" points="109.9,345.6 115.9,345.6 115.9,344.5 108.4,344.5 	"/>
	<polygon class="st1" points="111.3,346.6 115.9,346.6 115.9,345.6 109.9,345.6 	"/>
	<rect x="111.4" y="346.6" class="st1" width="4.5" height="1.1"/>
	<path class="st1" d="M110.9,340.2c0-0.2,0.1-0.3,0.2-0.3l0,0c0.1,0,0.2,0.1,0.2,0.3v7.6c0,0.2-0.1,0.3-0.2,0.3l0,0
		c-0.1,0-0.2-0.1-0.2-0.3V340.2z"/>
	<rect x="85.4" y="340" class="st1" width="18.4" height="1.1"/>
	<rect x="85.4" y="341.1" class="st1" width="18.4" height="1.1"/>
	<rect x="85.4" y="342.3" class="st1" width="18.4" height="1.1"/>
	<rect x="85.4" y="343.3" class="st1" width="18.4" height="1.1"/>
	<rect x="85.4" y="344.5" class="st1" width="18.4" height="1.1"/>
	<rect x="85.4" y="345.6" class="st1" width="18.4" height="1.1"/>
	<rect x="85.4" y="346.6" class="st1" width="18.4" height="1.1"/>
	<path class="st1" d="M98.9,340.2c0-0.2,0.1-0.3,0.2-0.3l0,0c0.1,0,0.2,0.1,0.2,0.3v7.6c0,0.2-0.1,0.3-0.2,0.3l0,0
		c-0.1,0-0.2-0.1-0.2-0.3V340.2z"/>
	<path class="st1" d="M89.8,340.2c0-0.2,0.1-0.3,0.2-0.3l0,0c0.1,0,0.2,0.1,0.2,0.3v7.6c0,0.2-0.1,0.3-0.2,0.3l0,0
		c-0.1,0-0.2-0.1-0.2-0.3V340.2z"/>
	<path class="st1" d="M61.7,351.8h10.7v-17.3h10v16.2c0,0.8,0.7,1.5,1.5,1.5c0.8,0,1.5-0.7,1.5-1.5v-16.2h18.4v16.2
		c0,0.8,0.7,1.5,1.5,1.5l0,0c0.8,0,1.5-0.7,1.5-1.5v-16.2h9v17.7h11.7"/>
	<rect x="107.1" y="686.9" class="st1" width="9" height="1.1"/>
	<rect x="107.1" y="685.9" class="st1" width="9" height="1.1"/>
	<rect x="107.1" y="684.7" class="st1" width="9" height="1.1"/>
	<polygon class="st1" points="108.6,683.6 116.1,683.6 116.1,684.7 107.1,684.7 	"/>
	<polygon class="st1" points="110.1,682.5 116.1,682.5 116.1,683.6 108.6,683.6 	"/>
	<polygon class="st1" points="111.5,681.4 116.1,681.4 116.1,682.5 110.1,682.5 	"/>
	<rect x="111.6" y="680.4" class="st1" width="4.5" height="1.1"/>
	<path class="st1" d="M111.2,687.9c0,0.2,0.1,0.3,0.2,0.3l0,0c0.1,0,0.2-0.1,0.2-0.3v-7.6c0-0.2-0.1-0.3-0.2-0.3l0,0
		c-0.1,0-0.2,0.1-0.2,0.3V687.9z"/>
	<rect x="73.7" y="686.9" class="st1" width="9" height="1.1"/>
	<rect x="73.7" y="685.9" class="st1" width="9" height="1.1"/>
	<rect x="73.7" y="684.7" class="st1" width="9" height="1.1"/>
	<polygon class="st1" points="81.2,683.6 73.7,683.6 73.7,684.7 82.7,684.7 	"/>
	<polygon class="st1" points="79.7,682.5 73.7,682.5 73.7,683.6 81.2,683.6 	"/>
	<polygon class="st1" points="78.3,681.4 73.7,681.4 73.7,682.5 79.7,682.5 	"/>
	<rect x="73.7" y="680.4" class="st1" width="4.5" height="1.1"/>
	<path class="st1" d="M78.6,687.9c0,0.2-0.1,0.3-0.2,0.3l0,0c-0.1,0-0.2-0.1-0.2-0.3l0-7.6c0-0.2,0.1-0.3,0.2-0.3l0,0
		c0.1,0,0.2,0.1,0.2,0.3L78.6,687.9z"/>
	<rect x="85.7" y="686.9" class="st1" width="18.4" height="1.1"/>
	<rect x="85.7" y="685.9" class="st1" width="18.4" height="1.1"/>
	<rect x="85.7" y="684.7" class="st1" width="18.4" height="1.1"/>
	<rect x="85.7" y="683.6" class="st1" width="18.4" height="1.1"/>
	<rect x="85.7" y="682.5" class="st1" width="18.4" height="1.1"/>
	<rect x="85.7" y="681.4" class="st1" width="18.4" height="1.1"/>
	<rect x="85.7" y="680.4" class="st1" width="18.4" height="1.1"/>
	<path class="st1" d="M90.7,687.9c0,0.2-0.1,0.3-0.2,0.3l0,0c-0.1,0-0.2-0.1-0.2-0.3l0-7.6c0-0.2,0.1-0.3,0.2-0.3l0,0
		c0.1,0,0.2,0.1,0.2,0.3L90.7,687.9z"/>
	<path class="st1" d="M99.7,687.9c0,0.2-0.1,0.3-0.2,0.3l0,0c-0.1,0-0.2-0.1-0.2-0.3l0-7.6c0-0.2,0.1-0.3,0.2-0.3l0,0
		c0.1,0,0.2,0.1,0.2,0.3L99.7,687.9z"/>
	<path class="st1" d="M70.9,676.1l2.8-0.9l0,18.5h9l0-18.2c0-0.8,0.7-1.5,1.5-1.5l0,0c0.8,0,1.5,0.7,1.5,1.5l0,18.2h18.4l0-18.2
		c0-0.8,0.7-1.5,1.5-1.5c0.8,0,1.5,0.7,1.5,1.5l0,18.2l9.1,0v-18.3l2.8,0.5"/>
	<polyline class="st1" points="60.8,663.1 84.8,663.1 84.8,633.4 105.1,633.4 105.1,663.6 128.1,663.6 	"/>
	<line class="st1" x1="84.8" y1="633.4" x2="75.1" y2="633.4"/>
	<line class="st1" x1="75.1" y1="633.1" x2="75.1" y2="663.1"/>
	<line class="st1" x1="114.4" y1="633.1" x2="114.4" y2="663.6"/>
	<line class="st1" x1="75.1" y1="643.1" x2="84.8" y2="643.1"/>
	<line class="st1" x1="75.1" y1="653" x2="84.8" y2="653"/>
	<line class="st1" x1="75.1" y1="633.4" x2="84.8" y2="643.1"/>
	<line class="st1" x1="75.1" y1="643.1" x2="84.8" y2="653"/>
	<line class="st1" x1="75.1" y1="653" x2="84.8" y2="663.1"/>
	<line class="st1" x1="84.8" y1="653" x2="75.1" y2="663.1"/>
	<line class="st1" x1="84.8" y1="643.1" x2="75.4" y2="652.7"/>
	<line class="st1" x1="84.8" y1="633.4" x2="75.1" y2="643.1"/>
	<line class="st1" x1="105.1" y1="633.4" x2="114.4" y2="633.4"/>
	<line class="st1" x1="114.6" y1="643.1" x2="105.1" y2="643.1"/>
	<line class="st1" x1="105.1" y1="653.2" x2="114.4" y2="653.2"/>
	<line class="st1" x1="105.1" y1="653.2" x2="114.4" y2="663.6"/>
	<line class="st1" x1="114.4" y1="653.2" x2="105.1" y2="663.6"/>
	<line class="st1" x1="105.1" y1="643.1" x2="114.4" y2="653.2"/>
	<line class="st1" x1="105.1" y1="633.4" x2="114.3" y2="642.8"/>
	<line class="st1" x1="114.4" y1="633.1" x2="105.1" y2="643.1"/>
	<line class="st1" x1="114.5" y1="643.1" x2="105.1" y2="653.2"/>
	<rect x="84.7" y="793.8" class="st1" width="20.5" height="10.3"/>
	<line class="st1" x1="94.6" y1="793.8" x2="94.6" y2="804.1"/>
	<line class="st1" x1="105.2" y1="793.8" x2="94.6" y2="804.1"/>
	<polyline class="st1" points="94.6,804.1 84.7,793.8 84.7,779 103.1,779 103.1,785.6 	"/>
	<line class="st1" x1="84.7" y1="804.1" x2="94.6" y2="793.8"/>
	<line class="st1" x1="105.2" y1="804.1" x2="94.6" y2="793.8"/>
	<path class="st1" d="M28.6,903.6c-7.9,12.3-12.4,26.9-12.4,42.5c0,43.5,35.3,78.8,78.8,78.8s78.8-35.3,78.8-78.8
		c0-15.6-4.5-30.2-12.4-42.4"/>
	<rect x="79.9" y="804.5" class="st1" width="29.3" height="24.9"/>
	<path class="st2" d="M86,542.5h-0.7v-0.9h2.4v0.9H87v4.7h-1V542.5z M87.9,544.5v-0.3c0-1.8,0.6-2.7,1.5-2.7c0.9,0,1.5,0.9,1.5,2.7
		v0.3c0,1.8-0.6,2.7-1.5,2.7C88.5,547.3,87.9,546.4,87.9,544.5z M89.8,544.5v-0.3c0-1.4-0.2-1.8-0.5-1.8s-0.5,0.4-0.5,1.8v0.3
		c0,1.4,0.2,1.8,0.5,1.8S89.8,546,89.8,544.5z M92.5,544.5v-0.2c0-2,0.7-2.7,1.6-2.7c0.3,0,0.4,0,0.6,0.1v1
		c-0.2-0.1-0.4-0.2-0.5-0.2c-0.4,0-0.7,0.4-0.7,1.8v0.2c0,1.5,0.3,1.8,0.8,1.8c0.2,0,0.3-0.1,0.5-0.2v1c-0.2,0.1-0.4,0.2-0.7,0.2
		C93.2,547.2,92.5,546.4,92.5,544.5z M95,544.5v-0.3c0-1.8,0.6-2.7,1.5-2.7s1.5,0.9,1.5,2.7v0.3c0,1.8-0.6,2.7-1.5,2.7
		S95,546.4,95,544.5z M97,544.5v-0.3c0-1.4-0.2-1.8-0.5-1.8s-0.5,0.4-0.5,1.8v0.3c0,1.4,0.2,1.8,0.5,1.8S97,546,97,544.5z
		 M98.4,541.6h1l0.7,2l0.7-2h1v5.6h-0.9v-3.4l-0.7,2.1h0l-0.7-2.1v3.4h-0.9V541.6z M102.3,541.6h2.1v0.9h-1.2v1.4h1v0.9h-1v1.4h1.2
		v0.9h-2.2V541.6z"/>
	<path class="st2" d="M82.4,831.6h-0.7v-0.9H84v0.9h-0.7v4.7h-1V831.6z M84.5,830.7h1v2.3h0.8v-2.3h1v5.6h-1V834h-0.8v2.4h-1V830.7z
		 M87.8,830.7H90v0.9h-1.2v1.4h1v0.9h-1v1.4H90v0.9h-2.2V830.7z M91.7,830.7h1v2.3h0.8v-2.3h1v5.6h-1V834h-0.8v2.4h-1V830.7z
		 M95.9,830.7h1l1.1,5.6h-1l-0.2-1.1H96l-0.2,1.1h-0.9L95.9,830.7z M96.7,834.3l-0.3-1.8l-0.3,1.8H96.7z M97.9,830.7h1l0.5,3.6
		l0.5-3.6h1l-1,5.6h-1L97.9,830.7z M101.2,830.7h2.1v0.9h-1.2v1.4h1v0.9h-1v1.4h1.2v0.9h-2.2V830.7z M103.9,830.7h0.9l1,2.8v-2.8h1
		v5.6h-0.9l-1-3v3h-1V830.7z M85.1,838.7H86c1.1,0,1.8,0.6,1.8,1.9v0c0,1.3-0.7,1.9-1.7,1.9h0v1.8h-1V838.7z M86.1,841.7
		c0.4,0,0.7-0.3,0.7-1v0c0-0.7-0.3-1-0.7-1h0L86.1,841.7L86.1,841.7z M88.2,838.7h1c1,0,1.7,0.5,1.7,1.8v0.1c0,0.7-0.3,1.2-0.7,1.5
		l0.8,2.3h-1l-0.6-2h-0.2v2h-1V838.7z M89.2,841.5c0.4,0,0.7-0.2,0.7-0.9v-0.1c0-0.7-0.3-0.9-0.8-0.9h0L89.2,841.5L89.2,841.5z
		 M91.4,838.7h1v5.6h-1V838.7z M92.7,838.7h1l0.5,3.6l0.5-3.6h1l-1,5.6h-1L92.7,838.7z M96.6,838.7h1l1.1,5.6h-1l-0.2-1.1h-0.9
		l-0.2,1.1h-0.9L96.6,838.7z M97.4,842.3l-0.3-1.8l-0.3,1.8H97.4z M99.3,839.6h-0.7v-0.9h2.4v0.9h-0.7v4.7h-1V839.6z M101.4,838.7
		h2.1v0.9h-1.2v1.4h1v0.9h-1v1.4h1.2v0.9h-2.2V838.7z M82.1,846.7h2.1v0.9H83v1.4h1v0.9h-1v1.4h1.2v0.9h-2.2V846.7z M84.7,846.7h1
		v4.7h1v0.9h-2V846.7z M87.1,846.7h2.1v0.9h-1.2v1.4h1v0.9h-1v1.4h1.2v0.9h-2.2V846.7z M89.5,846.7h1l0.5,3.6l0.5-3.6h1l-1,5.6h-1
		L89.5,846.7z M93.4,846.7h1l1.1,5.6h-1l-0.2-1.1h-0.9l-0.2,1.1h-0.9L93.4,846.7z M94.2,850.3l-0.3-1.8l-0.3,1.8H94.2z M96.1,847.6
		h-0.7v-0.9h2.4v0.9H97v4.7h-1V847.6z M97.9,849.7v-0.3c0-1.8,0.6-2.7,1.5-2.7c0.9,0,1.5,0.9,1.5,2.7v0.3c0,1.8-0.6,2.7-1.5,2.7
		C98.5,852.4,97.9,851.5,97.9,849.7z M99.9,849.7v-0.3c0-1.4-0.2-1.8-0.5-1.8s-0.5,0.4-0.5,1.8v0.3c0,1.4,0.2,1.8,0.5,1.8
		S99.9,851.1,99.9,849.7z M101.3,846.7h1c1,0,1.7,0.5,1.7,1.8v0.1c0,0.7-0.3,1.2-0.7,1.5l0.8,2.3h-1l-0.6-2h-0.2v2h-1V846.7z
		 M102.4,849.5c0.4,0,0.7-0.2,0.7-0.9v-0.1c0-0.7-0.3-0.9-0.8-0.9h0L102.4,849.5L102.4,849.5z M104.4,852.1v-1
		c0.3,0.2,0.6,0.3,0.9,0.3c0.3,0,0.5-0.1,0.5-0.5v0c0-0.3-0.1-0.4-0.5-1c-0.7-0.8-0.9-1.1-0.9-1.8v0c0-0.9,0.6-1.5,1.4-1.5
		c0.4,0,0.6,0.1,0.9,0.2v1c-0.3-0.2-0.5-0.3-0.7-0.3c-0.3,0-0.5,0.2-0.5,0.5v0c0,0.3,0.1,0.4,0.5,0.9c0.8,0.9,0.9,1.2,0.9,1.9v0
		c0,0.9-0.6,1.5-1.4,1.5C105,852.4,104.7,852.3,104.4,852.1z"/>
</g>
<g id="PRIMA_DECK_07_TOP">
	<g id="gDeck07Locations">
		<path width="173.6994" height="355.2747" id="_x30_7Aft" class="st3" d="M32.1,673.9v109.9h-24v20.3h15v100.2c-7.1,12.3-11.3,26.5-11.3,41.8
			c0,45.9,37.2,83.1,83.1,83.1c45.9,0,83.1-37.2,83.1-83.1c0-15.3-4.1-29.5-11.3-41.8V804.1h15v-20.3h-24V673.9H32.1z"/>
		<polygon width="158.6994" height="321.7579" id="_x30_7MidShip" class="st3" points="157.8,463.1 174.3,447.6 174.3,400.6 166.1,392.6 166.1,364.9 157.8,364.9 
			157.8,352.2 32.1,352.2 32.1,364.9 23.9,364.9 23.9,392.6 15.6,400.6 15.6,447.6 32.1,463.1 32.1,673.9 157.8,673.9 		"/>
		<path width="154.1994" height="350.5991" id="_x30_7Forward" class="st3" d="M157.8,244.3h14.2v-36l-5-3.5v-59.5c0-89-40.9-143.7-72.1-143.7
			c-32.3,0-72.1,54.5-72.1,143.7v59.5l-5,3.5v36h14.2v107.8h125.7V244.3z"/>
	</g>
	<path class="st4" d="M167.1,145.3c0-89-40.9-143.7-72.1-143.7c-32.3,0-72.1,54.5-72.1,143.7v59.5l-5,3.5v36h14.2v120.6h-8.3v27.7
		l-8.2,8v47l16.5,15.5v320.8h-24v20.3h15v100.2c-7.1,12.3-11.3,26.5-11.3,41.8c0,45.9,37.2,83.1,83.1,83.1
		c45.9,0,83.1-37.2,83.1-83.1c0-15.3-4.1-29.5-11.3-41.8V804.1h15v-20.3h-24V463.1l16.5-15.5v-47l-8.2-8v-27.7h-8.3V244.3h14.2v-36
		l-5-3.5V145.3z"/>
</g>
</svg>
