<?xml version="1.0" encoding="utf-8"?>
<!-- Generator: Adobe Illustrator 25.4.1, SVG Export Plug-In . SVG Version: 6.00 Build 0)  -->
<svg version="1.1" id="PRIMA_DECK_17" xmlns="http://www.w3.org/2000/svg" xmlns:xlink="http://www.w3.org/1999/xlink" x="0px"
	 y="0px" width="185.5px" height="875px" viewBox="0 0 185.5 875" style="enable-background:new 0 0 185.5 875;"
	 xml:space="preserve">
<style type="text/css">
	.st0{fill:#FFFFFF;}
	.st1{fill:none;stroke:#D5DCE0;stroke-width:0.5;}
	.st2{fill:none;stroke:#D5DCE0;stroke-width:0.4696;}
	.st3{fill:none;stroke:#D5DCE0;stroke-width:0.4851;}
	.st4{fill:none;stroke:#D5DCE0;stroke-width:0.4556;}
	.st5{fill:none;}
	.st6{fill:#CCDDE2;}
	.st7{fill:#6E8496;}
	.st8{fill:none;stroke:#076FA0;stroke-miterlimit:10;}
</style>
<g id="PRIMA_DECK_17_BOTTOM">
	<path class="st0" d="M92.3,866.9c18.9,0,34.2-15.3,34.2-34.2V776c52.3-76.7,14.3-147.4,14.3-147.4c23.2-26.5,40.4-68.8,40.4-112.6
		c0-72.3-12-97.3-12-97.3v-45.3c13.3-72-4.5-162.1-4.5-162.1c4.6-25.3,10.1-39.5,10.1-103c0-55.5-36.8-98.9-82.2-98.9l-0.1,0
		c-45.3,0.1-82,43.5-82,98.9c0,63.4,5.6,77.7,10.1,103c0,0-17.8,90.1-4.5,162.1v45.3c0,0-12,25-12,97.3c0,43.9,17.2,86.1,40.4,112.6
		c0,0-38,70.7,14.3,147.4v56.7c0,18.5,14.6,33.5,32.9,34.2L92.3,866.9z"/>
	<path class="st1" d="M103.2,776v22.7H80.8v14h-9.3v-21.5h9.3v-14.9h-19l-2.9,0v56.3c0,18.8,15.1,34,33.8,34.2
		c18.7-0.2,33.8-15.5,33.8-34.2V776H103.2z"/>
	<rect x="69.7" y="227.6" class="st1" width="10.4" height="1.2"/>
	<rect x="69.7" y="228.8" class="st1" width="10.4" height="1.2"/>
	<rect x="69.7" y="230" class="st1" width="10.4" height="1.2"/>
	<polygon class="st1" points="78.1,232.3 69.7,232.3 69.7,231.1 79.9,231.1 79.9,231.3 	"/>
	<polygon class="st1" points="76.3,233.5 69.7,233.5 69.7,232.4 78.1,232.4 	"/>
	<polygon class="st1" points="74.6,234.7 69.7,234.7 69.7,233.5 76.3,233.5 	"/>
	<rect x="69.7" y="234.7" class="st1" width="4.9" height="1.2"/>
	<path class="st2" d="M75.1,227.8c0-0.2-0.1-0.3-0.2-0.3l0,0c-0.1,0-0.2,0.1-0.2,0.3v8.1c0,0.2,0.1,0.3,0.2,0.3l0,0
		c0.1,0,0.2-0.1,0.2-0.3V227.8z"/>
	<rect x="106.7" y="227.6" class="st3" width="9.7" height="1.2"/>
	<rect x="106.7" y="228.8" class="st3" width="9.7" height="1.2"/>
	<rect x="106.7" y="230" class="st3" width="9.7" height="1.2"/>
	<polygon class="st3" points="108.5,232.3 116.5,232.3 116.5,231.1 106.8,231.1 106.8,231.3 	"/>
	<polygon class="st3" points="110.2,233.5 116.5,233.5 116.5,232.4 108.5,232.4 	"/>
	<polygon class="st3" points="111.8,234.7 116.5,234.7 116.5,233.5 110.2,233.5 	"/>
	<rect x="111.8" y="234.7" class="st3" width="4.6" height="1.2"/>
	<path class="st4" d="M111.4,227.8c0-0.2,0.1-0.3,0.2-0.3l0,0c0.1,0,0.2,0.1,0.2,0.3v8.1c0,0.2-0.1,0.3-0.2,0.3l0,0
		c-0.1,0-0.2-0.1-0.2-0.3V227.8z"/>
	<path class="st1" d="M59.3,211.2v34.2h10.4v-23.1H80v20.1c0,0.9,0.7,1.6,1.6,1.6c0.9,0,1.6-0.7,1.6-1.6v-31.1h-24V211.2z"/>
	<path class="st1" d="M127.2,211.2l-27.3,0.1v11h3.5v20.1c0,0.9,0.7,1.6,1.6,1.6l0,0c0.9,0,1.6-0.7,1.6-1.6v-20.1h9.7v23.1h10.7
		L127.2,211.2L127.2,211.2z"/>
	<rect x="59.3" y="255.1" class="st1" width="10.4" height="11.1"/>
	<line class="st1" x1="59.3" y1="277.3" x2="69.7" y2="266.2"/>
	<polyline class="st1" points="59.3,266.2 69.7,255.1 69.7,252.4 59.3,252.4 59.3,255.1 69.7,266.2 	"/>
	<line class="st1" x1="59.3" y1="266.2" x2="69.7" y2="277.3"/>
	<rect x="81.8" y="255.1" class="st1" width="11.6" height="11.1"/>
	<rect x="93.4" y="255.1" class="st1" width="11.6" height="11.1"/>
	<line class="st1" x1="81.8" y1="266.2" x2="93.4" y2="277.3"/>
	<line class="st1" x1="93.4" y1="255.1" x2="81.8" y2="266.2"/>
	<line class="st1" x1="104.9" y1="266.2" x2="93.4" y2="255.1"/>
	<line class="st1" x1="93.4" y1="277.3" x2="104.9" y2="266.2"/>
	<line class="st1" x1="81.8" y1="255.1" x2="104.9" y2="277.3"/>
	<line class="st1" x1="104.9" y1="255.1" x2="81.8" y2="277.3"/>
	<rect x="116.5" y="255.1" class="st1" width="10.7" height="11.1"/>
	<polyline class="st1" points="127.2,266.2 116.5,255.1 116.5,252.4 127.2,252.4 127.2,255.1 116.5,266.2 	"/>
	<line class="st1" x1="116.5" y1="266.2" x2="127.2" y2="277.3"/>
	<line class="st1" x1="127.2" y1="266.2" x2="116.5" y2="277.3"/>
	<polyline class="st1" points="69.7,277.3 59.3,277.3 59.3,266.2 69.7,266.2 69.7,284.2 73.2,284.2 	"/>
	<polyline class="st1" points="78.3,284.2 81.8,284.2 81.8,266.2 93.4,266.2 93.4,277.3 81.8,277.3 	"/>
	<polyline class="st1" points="102.3,277.3 93.4,277.3 93.4,266.2 104.9,266.2 104.9,284.2 108.4,284.2 	"/>
	<polyline class="st1" points="112.9,284.2 116.5,284.2 116.5,266.2 127.2,266.2 127.2,277.3 116.5,277.3 	"/>
	<line class="st1" x1="71.9" y1="580.9" x2="71.9" y2="547.5"/>
	<line class="st1" x1="114.5" y1="569.8" x2="103.5" y2="569.8"/>
	<line class="st1" x1="114.5" y1="558.6" x2="103.5" y2="558.6"/>
	<polyline class="st1" points="103.5,569.8 114.5,580.4 114.5,547.5 	"/>
	<line class="st1" x1="114.5" y1="569.8" x2="103.4" y2="559"/>
	<line class="st1" x1="114.5" y1="558.6" x2="103.4" y2="547.5"/>
	<line class="st1" x1="103.4" y1="558.2" x2="114.4" y2="547.7"/>
	<line class="st1" x1="103.5" y1="569.8" x2="114.5" y2="558.6"/>
	<line class="st1" x1="103.4" y1="580.6" x2="114.5" y2="569.8"/>
	<line class="st1" x1="71.7" y1="569.8" x2="82" y2="569.8"/>
	<line class="st1" x1="82.2" y1="558.3" x2="71.9" y2="558.3"/>
	<line class="st1" x1="82.2" y1="558.3" x2="71.9" y2="547.4"/>
	<line class="st1" x1="71.9" y1="558.3" x2="82.2" y2="547.5"/>
	<line class="st1" x1="82" y1="569.9" x2="71.9" y2="558.3"/>
	<line class="st1" x1="82.2" y1="580.6" x2="72.1" y2="570"/>
	<line class="st1" x1="71.9" y1="580.6" x2="82" y2="569.9"/>
	<line class="st1" x1="71.8" y1="569.7" x2="82.2" y2="558.3"/>
	<line class="st1" x1="114.8" y1="580.6" x2="102.4" y2="580.6"/>
	<line class="st1" x1="82.2" y1="580.6" x2="71.9" y2="580.6"/>
	<polyline class="st1" points="114.7,547.5 114.5,547.5 103.4,547.5 103.4,580.6 82.2,580.6 82.2,547.5 71.7,547.5 	"/>
	<line class="st1" x1="51.4" y1="211.2" x2="20.7" y2="211.2"/>
	<line class="st1" x1="164.7" y1="211.2" x2="134.9" y2="211.2"/>
	<rect x="93.1" y="606.7" class="st1" width="10.4" height="1.2"/>
	<rect x="93.1" y="605.6" class="st1" width="10.4" height="1.2"/>
	<rect x="93.1" y="604.4" class="st1" width="10.4" height="1.2"/>
	<polygon class="st1" points="94.9,603.2 103.5,603.2 103.5,604.4 93.1,604.4 	"/>
	<polygon class="st1" points="96.7,602 103.5,602 103.5,603.2 94.9,603.2 	"/>
	<polygon class="st1" points="98.4,600.8 103.5,600.8 103.5,602 96.7,602 	"/>
	<rect x="98.6" y="599.7" class="st1" width="4.9" height="1.2"/>
	<path class="st1" d="M98,607.7c0,0.2,0.1,0.3,0.3,0.3l0,0c0.1,0,0.3-0.1,0.3-0.3v-8.1c0-0.2-0.1-0.3-0.3-0.3l0,0
		c-0.1,0-0.3,0.1-0.3,0.3V607.7z"/>
	<line class="st1" x1="136.8" y1="624.4" x2="141.1" y2="629.1"/>
	<path class="st1" d="M131.9,619l-4.7-5.2H91.6v-20c0-0.4,0.3-0.7,0.7-0.7c0.4,0,0.7,0.3,0.7,0.7V608h10.4v-16.6h16.1l-0.2,22.4"/>
	<line class="st1" x1="48.9" y1="624.2" x2="44.6" y2="628.6"/>
	<polyline class="st1" points="54,619.4 59.4,613.8 82.2,613.8 82.2,591.5 66.6,591.5 66.6,613.4 	"/>
	<path class="st1" d="M140.7,628.4c-14.6,17.2-31.5,27.7-48,27.7s-33.4-10.5-48-27.7"/>
	<path class="st5" d="M98.8,825.2c-0.4-0.2-0.8-0.4-1.7-0.4c-0.8,0-1.3,0.2-1.7,0.4c-0.5,0.2-1,0.4-1.9,0.4c-0.9,0-1.4-0.2-1.8-0.4
		v0.9c0,0,0.1,0,0.1,0c0.4,0.2,0.8,0.4,1.7,0.4c0.8,0,1.3-0.2,1.7-0.4c0.5-0.2,1-0.4,1.9-0.4c1,0,1.4,0.2,1.9,0.4
		c0.4,0.2,0.8,0.4,1.7,0.4c0.8,0,1.3-0.2,1.7-0.4c0,0,0.1,0,0.1,0v-0.9c-0.4,0.2-0.9,0.3-1.8,0.3C99.8,825.6,99.3,825.4,98.8,825.2z
		"/>
	<path class="st5" d="M98.8,826.7c-0.4-0.2-0.8-0.4-1.7-0.4c-0.8,0-1.3,0.2-1.7,0.4c-0.5,0.2-1,0.4-1.9,0.4c-0.9,0-1.4-0.2-1.8-0.4
		v0.9c0,0,0.1,0,0.1,0c0.4,0.2,0.8,0.4,1.7,0.4c0.8,0,1.3-0.2,1.7-0.4c0.5-0.2,1-0.4,1.9-0.4c1,0,1.4,0.2,1.9,0.4
		c0.4,0.2,0.8,0.4,1.7,0.4c0.8,0,1.3-0.2,1.7-0.4c0,0,0.1,0,0.1,0v-0.9c-0.4,0.2-0.9,0.3-1.8,0.3C99.8,827.1,99.3,826.9,98.8,826.7z
		"/>
	<path class="st5" d="M102.5,828.3L102.5,828.3C102.5,828.3,102.5,828.3,102.5,828.3L102.5,828.3z"/>
	<path class="st5" d="M91.7,828.3L91.7,828.3C91.8,828.3,91.7,828.2,91.7,828.3L91.7,828.3z"/>
	<path class="st5" d="M93.5,820.5c0.8,0,1.3-0.2,1.7-0.4c0.2-0.1,0.5-0.2,0.8-0.3h-4.3v0.2c0,0,0.1,0,0.1,0
		C92.3,820.3,92.7,820.5,93.5,820.5z"/>
	<path class="st5" d="M97.1,827.8c-0.8,0-1.3,0.2-1.7,0.4c-0.1,0-0.1,0-0.2,0.1H99c-0.1,0-0.1,0-0.2-0.1
		C98.4,828,98,827.8,97.1,827.8z"/>
	<path class="st5" d="M98.8,823.7c-0.4-0.2-0.8-0.4-1.7-0.4c-0.8,0-1.3,0.2-1.7,0.4c-0.5,0.2-1,0.4-1.9,0.4c-0.9,0-1.4-0.2-1.8-0.4
		v0.9c0,0,0.1,0,0.1,0c0.4,0.2,0.8,0.4,1.7,0.4c0.8,0,1.3-0.2,1.7-0.4c0.5-0.2,1-0.4,1.9-0.4c1,0,1.4,0.2,1.9,0.4
		c0.4,0.2,0.8,0.4,1.7,0.4c0.8,0,1.3-0.2,1.7-0.4c0,0,0.1,0,0.1,0v-0.9c-0.4,0.2-0.9,0.3-1.8,0.3C99.8,824.1,99.3,823.9,98.8,823.7z
		"/>
	<path class="st5" d="M99,820.1c0.4,0.2,0.8,0.4,1.7,0.4c0.8,0,1.3-0.2,1.7-0.4c0,0,0.1,0,0.1,0v-0.2h-4.2
		C98.6,819.9,98.8,820,99,820.1z"/>
	<path class="st5" d="M98.8,820.7c-0.4-0.2-0.8-0.4-1.7-0.4c-0.8,0-1.3,0.2-1.7,0.4c-0.5,0.2-1,0.4-1.9,0.4c-0.9,0-1.4-0.2-1.8-0.4
		v0.9c0,0,0.1,0,0.1,0c0.4,0.2,0.8,0.4,1.7,0.4c0.8,0,1.3-0.2,1.7-0.4c0.5-0.2,1-0.4,1.9-0.4c1,0,1.4,0.2,1.9,0.4
		c0.4,0.2,0.8,0.4,1.7,0.4c0.8,0,1.3-0.2,1.7-0.4c0,0,0.1,0,0.1,0v-0.9c-0.4,0.2-0.9,0.3-1.8,0.3C99.8,821.1,99.3,820.9,98.8,820.7z
		"/>
	<path class="st5" d="M98.8,822.2c-0.4-0.2-0.8-0.4-1.7-0.4c-0.8,0-1.3,0.2-1.7,0.4c-0.5,0.2-1,0.4-1.9,0.4c-0.9,0-1.4-0.2-1.8-0.4
		v0.9c0,0,0.1,0,0.1,0c0.4,0.2,0.8,0.4,1.7,0.4c0.8,0,1.3-0.2,1.7-0.4c0.5-0.2,1-0.4,1.9-0.4c1,0,1.4,0.2,1.9,0.4
		c0.4,0.2,0.8,0.4,1.7,0.4c0.8,0,1.3-0.2,1.7-0.4c0,0,0.1,0,0.1,0v-0.9c-0.4,0.2-0.9,0.3-1.8,0.3C99.8,822.6,99.3,822.4,98.8,822.2z
		"/>
	<path class="st6" d="M91.2,819.4v9.4H103v-9.4H91.2z M91.7,819.9H96c-0.3,0.1-0.5,0.2-0.8,0.3c-0.4,0.2-0.8,0.4-1.7,0.4
		c-0.8,0-1.3-0.2-1.7-0.4c0,0-0.1,0-0.1,0V819.9z M91.7,828.3L91.7,828.3C91.7,828.2,91.8,828.3,91.7,828.3L91.7,828.3z M95.3,828.3
		c0.1,0,0.1,0,0.2-0.1c0.4-0.2,0.8-0.4,1.7-0.4c0.8,0,1.3,0.2,1.7,0.4c0.1,0,0.1,0,0.2,0.1H95.3z M102.5,828.3L102.5,828.3
		C102.5,828.3,102.5,828.3,102.5,828.3L102.5,828.3z M102.5,827.6c0,0-0.1,0-0.1,0c-0.4,0.2-0.8,0.4-1.7,0.4c-0.8,0-1.3-0.2-1.7-0.4
		c-0.5-0.2-1-0.4-1.9-0.4c-1,0-1.4,0.2-1.9,0.4c-0.4,0.2-0.8,0.4-1.7,0.4c-0.8,0-1.3-0.2-1.7-0.4c0,0-0.1,0-0.1,0v-0.9
		c0.4,0.2,0.9,0.4,1.8,0.4c1,0,1.4-0.2,1.9-0.4c0.4-0.2,0.8-0.4,1.7-0.4c0.8,0,1.3,0.2,1.7,0.4c0.5,0.2,1,0.4,1.9,0.4
		c0.9,0,1.4-0.2,1.8-0.3V827.6z M102.5,826.1c0,0-0.1,0-0.1,0c-0.4,0.2-0.8,0.4-1.7,0.4c-0.8,0-1.3-0.2-1.7-0.4
		c-0.5-0.2-1-0.4-1.9-0.4c-1,0-1.4,0.2-1.9,0.4c-0.4,0.2-0.8,0.4-1.7,0.4c-0.8,0-1.3-0.2-1.7-0.4c0,0-0.1,0-0.1,0v-0.9
		c0.4,0.2,0.9,0.4,1.8,0.4c1,0,1.4-0.2,1.9-0.4c0.4-0.2,0.8-0.4,1.7-0.4c0.8,0,1.3,0.2,1.7,0.4c0.5,0.2,1,0.4,1.9,0.4
		c0.9,0,1.4-0.2,1.8-0.3V826.1z M102.5,824.6c0,0-0.1,0-0.1,0c-0.4,0.2-0.8,0.4-1.7,0.4c-0.8,0-1.3-0.2-1.7-0.4
		c-0.5-0.2-1-0.4-1.9-0.4c-1,0-1.4,0.2-1.9,0.4c-0.4,0.2-0.8,0.4-1.7,0.4c-0.8,0-1.3-0.2-1.7-0.4c0,0-0.1,0-0.1,0v-0.9
		c0.4,0.2,0.9,0.4,1.8,0.4c1,0,1.4-0.2,1.9-0.4c0.4-0.2,0.8-0.4,1.7-0.4c0.8,0,1.3,0.2,1.7,0.4c0.5,0.2,1,0.4,1.9,0.4
		c0.9,0,1.4-0.2,1.8-0.3V824.6z M102.5,823.1c0,0-0.1,0-0.1,0c-0.4,0.2-0.8,0.4-1.7,0.4c-0.8,0-1.3-0.2-1.7-0.4
		c-0.5-0.2-1-0.4-1.9-0.4c-1,0-1.4,0.2-1.9,0.4c-0.4,0.2-0.8,0.4-1.7,0.4c-0.8,0-1.3-0.2-1.7-0.4c0,0-0.1,0-0.1,0v-0.9
		c0.4,0.2,0.9,0.4,1.8,0.4c1,0,1.4-0.2,1.9-0.4c0.4-0.2,0.8-0.4,1.7-0.4c0.8,0,1.3,0.2,1.7,0.4c0.5,0.2,1,0.4,1.9,0.4
		c0.9,0,1.4-0.2,1.8-0.3V823.1z M102.5,821.6c0,0-0.1,0-0.1,0c-0.4,0.2-0.8,0.4-1.7,0.4c-0.8,0-1.3-0.2-1.7-0.4
		c-0.5-0.2-1-0.4-1.9-0.4c-1,0-1.4,0.2-1.9,0.4c-0.4,0.2-0.8,0.4-1.7,0.4c-0.8,0-1.3-0.2-1.7-0.4c0,0-0.1,0-0.1,0v-0.9
		c0.4,0.2,0.9,0.4,1.8,0.4c1,0,1.4-0.2,1.9-0.4c0.4-0.2,0.8-0.4,1.7-0.4c0.8,0,1.3,0.2,1.7,0.4c0.5,0.2,1,0.4,1.9,0.4
		c0.9,0,1.4-0.2,1.8-0.3V821.6z M102.5,820.1c0,0-0.1,0-0.1,0c-0.4,0.2-0.8,0.4-1.7,0.4c-0.8,0-1.3-0.2-1.7-0.4
		c-0.2-0.1-0.5-0.2-0.8-0.3h4.2V820.1z"/>
	<path class="st6" d="M83.2,807.6v9.4h11.8v-9.4H83.2z M83.7,808.1H88c-0.3,0.1-0.5,0.2-0.8,0.3c-0.4,0.2-0.8,0.4-1.7,0.4
		c-0.8,0-1.3-0.2-1.7-0.4c0,0-0.1,0-0.1,0V808.1z M83.7,816.5L83.7,816.5C83.8,816.5,83.8,816.5,83.7,816.5L83.7,816.5z M87.3,816.5
		c0.1,0,0.1,0,0.2-0.1c0.4-0.2,0.8-0.4,1.7-0.4c0.8,0,1.3,0.2,1.7,0.4c0.1,0,0.1,0,0.2,0.1H87.3z M94.6,816.5L94.6,816.5
		C94.5,816.5,94.5,816.5,94.6,816.5L94.6,816.5z M94.6,815.8c0,0-0.1,0-0.1,0c-0.4,0.2-0.8,0.4-1.7,0.4c-0.8,0-1.3-0.2-1.7-0.4
		c-0.5-0.2-1-0.4-1.9-0.4c-1,0-1.4,0.2-1.9,0.4c-0.4,0.2-0.8,0.4-1.7,0.4c-0.8,0-1.3-0.2-1.7-0.4c0,0-0.1,0-0.1,0V815
		c0.4,0.2,0.9,0.4,1.8,0.4c1,0,1.4-0.2,1.9-0.4c0.4-0.2,0.8-0.4,1.7-0.4c0.8,0,1.3,0.2,1.7,0.4c0.5,0.2,1,0.4,1.9,0.4
		c0.9,0,1.4-0.2,1.8-0.3V815.8z M94.6,814.3c0,0-0.1,0-0.1,0c-0.4,0.2-0.8,0.4-1.7,0.4c-0.8,0-1.3-0.2-1.7-0.4
		c-0.5-0.2-1-0.4-1.9-0.4c-1,0-1.4,0.2-1.9,0.4c-0.4,0.2-0.8,0.4-1.7,0.4c-0.8,0-1.3-0.2-1.7-0.4c0,0-0.1,0-0.1,0v-0.9
		c0.4,0.2,0.9,0.4,1.8,0.4c1,0,1.4-0.2,1.9-0.4c0.4-0.2,0.8-0.4,1.7-0.4c0.8,0,1.3,0.2,1.7,0.4c0.5,0.2,1,0.4,1.9,0.4
		c0.9,0,1.4-0.2,1.8-0.3V814.3z M94.6,812.8c0,0-0.1,0-0.1,0c-0.4,0.2-0.8,0.4-1.7,0.4c-0.8,0-1.3-0.2-1.7-0.4
		c-0.5-0.2-1-0.4-1.9-0.4c-1,0-1.4,0.2-1.9,0.4c-0.4,0.2-0.8,0.4-1.7,0.4c-0.8,0-1.3-0.2-1.7-0.4c0,0-0.1,0-0.1,0V812
		c0.4,0.2,0.9,0.4,1.8,0.4c1,0,1.4-0.2,1.9-0.4c0.4-0.2,0.8-0.4,1.7-0.4c0.8,0,1.3,0.2,1.7,0.4c0.5,0.2,1,0.4,1.9,0.4
		c0.9,0,1.4-0.2,1.8-0.3V812.8z M94.6,811.3c0,0-0.1,0-0.1,0c-0.4,0.2-0.8,0.4-1.7,0.4c-0.8,0-1.3-0.2-1.7-0.4
		c-0.5-0.2-1-0.4-1.9-0.4c-1,0-1.4,0.2-1.9,0.4c-0.4,0.2-0.8,0.4-1.7,0.4c-0.8,0-1.3-0.2-1.7-0.4c0,0-0.1,0-0.1,0v-0.9
		c0.4,0.2,0.9,0.4,1.8,0.4c1,0,1.4-0.2,1.9-0.4c0.4-0.2,0.8-0.4,1.7-0.4c0.8,0,1.3,0.2,1.7,0.4c0.5,0.2,1,0.4,1.9,0.4
		c0.9,0,1.4-0.2,1.8-0.3V811.3z M94.6,809.8c0,0-0.1,0-0.1,0c-0.4,0.2-0.8,0.4-1.7,0.4c-0.8,0-1.3-0.2-1.7-0.4
		c-0.5-0.2-1-0.4-1.9-0.4c-1,0-1.4,0.2-1.9,0.4c-0.4,0.2-0.8,0.4-1.7,0.4c-0.8,0-1.3-0.2-1.7-0.4c0,0-0.1,0-0.1,0V809
		c0.4,0.2,0.9,0.4,1.8,0.4c1,0,1.4-0.2,1.9-0.4c0.4-0.2,0.8-0.4,1.7-0.4c0.8,0,1.3,0.2,1.7,0.4c0.5,0.2,1,0.4,1.9,0.4
		c0.9,0,1.4-0.2,1.8-0.3V809.8z M94.6,808.3c0,0-0.1,0-0.1,0c-0.4,0.2-0.8,0.4-1.7,0.4c-0.8,0-1.3-0.2-1.7-0.4
		c-0.2-0.1-0.5-0.2-0.8-0.3h4.2V808.3z"/>
	<path class="st7" d="M80.4,835.9h-0.7V835h2.4v0.9h-0.7v4.7h-1V835.9z M82.5,835h1v2.3h0.8V835h1v5.6h-1v-2.4h-0.8v2.4h-1V835z
		 M85.9,835H88v0.9h-1.2v1.4h1v0.9h-1v1.4H88v0.9h-2.2V835z M89.8,835h1v2.3h0.8V835h1v5.6h-1v-2.4h-0.8v2.4h-1V835z M93.9,834.9h1
		l1.1,5.6h-1l-0.2-1.1H94l-0.2,1.1h-0.9L93.9,834.9z M94.7,838.6l-0.3-1.8l-0.3,1.8H94.7z M96,835h1l0.5,3.6L98,835h1l-1,5.6h-1
		L96,835z M99.3,835h2.1v0.9h-1.2v1.4h1v0.9h-1v1.4h1.2v0.9h-2.2V835z M101.9,835h0.9l1,2.8V835h1v5.6h-0.9l-1-3v3h-1V835z
		 M81.9,848.4v-1c0.3,0.2,0.6,0.3,0.9,0.3c0.3,0,0.5-0.1,0.5-0.5v0c0-0.3-0.1-0.4-0.5-1c-0.7-0.8-0.9-1.1-0.9-1.8v0
		c0-0.9,0.6-1.5,1.4-1.5c0.4,0,0.6,0.1,0.9,0.2v1c-0.3-0.2-0.5-0.3-0.7-0.3c-0.3,0-0.5,0.2-0.5,0.5v0c0,0.3,0.1,0.4,0.5,0.9
		c0.8,0.9,0.9,1.2,0.9,1.9v0c0,0.9-0.6,1.5-1.4,1.5C82.5,848.6,82.2,848.5,81.9,848.4z M84.6,846.9v-4h1v4.1c0,0.5,0.2,0.7,0.4,0.7
		c0.2,0,0.4-0.2,0.4-0.7V843h1v4c0,1.2-0.6,1.7-1.4,1.7C85.2,848.6,84.6,848.1,84.6,846.9z M88,843h0.9l1,2.8V843h1v5.6h-0.9l-1-3v3
		h-1V843z M91.4,843h0.9c1.2,0,2,0.9,2,2.7v0.2c0,1.8-0.7,2.7-2,2.7h-0.9V843z M92.4,847.7c0.5,0,0.9-0.4,0.9-1.8v-0.2
		c0-1.4-0.4-1.8-0.9-1.8h0L92.4,847.7L92.4,847.7z M94.7,843h2.1v0.9h-1.2v1.4h1v0.9h-1v1.4h1.2v0.9h-2.2V843z M97.2,845.8v-0.2
		c0-2,0.7-2.7,1.6-2.7c0.3,0,0.4,0,0.6,0.1v1c-0.2-0.1-0.4-0.2-0.5-0.2c-0.4,0-0.7,0.4-0.7,1.8v0.2c0,1.5,0.3,1.8,0.8,1.8
		c0.2,0,0.3-0.1,0.5-0.2v1c-0.2,0.1-0.4,0.2-0.7,0.2C97.9,848.6,97.2,847.8,97.2,845.8z M100,843h1v2.3l0.8-2.3h1.1l-0.9,2.4l1,3.2
		h-1.1l-0.6-2.1l-0.2,0.6v1.5h-1V843z"/>
	<path class="st7" d="M97.2,809.5h1v2.3H99v-2.3h1v5.6h-1v-2.4h-0.8v2.4h-1V809.5z M100.5,812.5v-0.3c0-1.8,0.6-2.7,1.5-2.7
		c0.9,0,1.5,0.9,1.5,2.7v0.3c0,1.8-0.6,2.7-1.5,2.7C101.1,815.2,100.5,814.3,100.5,812.5z M102.5,812.5v-0.3c0-1.4-0.2-1.8-0.5-1.8
		s-0.5,0.4-0.5,1.8v0.3c0,1.4,0.2,1.8,0.5,1.8S102.5,813.9,102.5,812.5z M104.3,810.5h-0.7v-0.9h2.4v0.9h-0.7v4.7h-1V810.5z
		 M108.2,810.5h-0.7v-0.9h2.4v0.9h-0.7v4.7h-1V810.5z M110.2,813.5v-4h1v4.1c0,0.5,0.2,0.7,0.4,0.7c0.2,0,0.4-0.2,0.4-0.7v-4.1h1v4
		c0,1.2-0.6,1.7-1.4,1.7C110.8,815.2,110.2,814.7,110.2,813.5z M113.6,809.5h0.8c0.9,0,1.8,0.4,1.8,1.4v0c0,0.7-0.4,1.1-0.8,1.3
		c0.5,0.2,0.9,0.5,0.9,1.2v0.1c0,1-0.8,1.6-1.9,1.6h-0.9V809.5z M114.6,811.9c0.4,0,0.7-0.2,0.7-0.7v0c0-0.5-0.3-0.7-0.7-0.7h0
		L114.6,811.9L114.6,811.9z M114.6,814.2c0.4,0,0.8-0.3,0.8-0.7v0c0-0.5-0.3-0.7-0.8-0.7h0L114.6,814.2L114.6,814.2z"/>
	<path class="st7" d="M105.4,821.3h1v2.3h0.8v-2.3h1v5.6h-1v-2.4h-0.8v2.4h-1V821.3z M108.7,824.3V824c0-1.8,0.6-2.7,1.5-2.7
		c0.9,0,1.5,0.9,1.5,2.7v0.3c0,1.8-0.6,2.7-1.5,2.7C109.3,827,108.7,826.1,108.7,824.3z M110.7,824.3V824c0-1.4-0.2-1.8-0.5-1.8
		s-0.5,0.4-0.5,1.8v0.3c0,1.4,0.2,1.8,0.5,1.8S110.7,825.7,110.7,824.3z M112.5,822.2h-0.7v-0.9h2.4v0.9h-0.7v4.7h-1V822.2z
		 M116.4,822.2h-0.7v-0.9h2.4v0.9h-0.7v4.7h-1V822.2z M118.4,825.3v-4h1v4.1c0,0.5,0.2,0.7,0.4,0.7c0.2,0,0.4-0.2,0.4-0.7v-4.1h1v4
		c0,1.2-0.6,1.7-1.4,1.7C119,827,118.4,826.5,118.4,825.3z M121.8,821.3h0.8c0.9,0,1.8,0.4,1.8,1.4v0c0,0.7-0.4,1.1-0.8,1.3
		c0.5,0.2,0.9,0.5,0.9,1.2v0.1c0,1-0.8,1.6-1.9,1.6h-0.9V821.3z M122.8,823.7c0.4,0,0.7-0.2,0.7-0.7v0c0-0.5-0.3-0.7-0.7-0.7h0
		L122.8,823.7L122.8,823.7z M122.8,826c0.4,0,0.8-0.3,0.8-0.7v0c0-0.5-0.3-0.7-0.8-0.7h0L122.8,826L122.8,826z"/>
	<rect x="75.9" y="811.8" class="st1" width="5" height="1"/>
	<rect x="75.9" y="810.8" class="st1" width="5" height="1"/>
	<rect x="75.9" y="809.7" class="st1" width="5" height="1"/>
	<rect x="75.9" y="808.7" class="st1" width="5" height="1"/>
	<rect x="75.9" y="807.7" class="st1" width="5" height="1"/>
	<rect x="75.9" y="806.6" class="st1" width="5" height="1"/>
	<rect x="75.9" y="805.6" class="st1" width="5" height="1"/>
	<rect x="75.9" y="805.6" class="st1" width="5" height="1"/>
	<rect x="75.9" y="804.6" class="st1" width="5" height="1"/>
	<rect x="75.9" y="803.5" class="st1" width="5" height="1"/>
	<rect x="75.9" y="802.5" class="st1" width="5" height="1"/>
	<rect x="75.9" y="801.5" class="st1" width="5" height="1"/>
	<rect x="75.9" y="800.5" class="st1" width="5" height="1"/>
	<rect x="75.9" y="799.5" class="st1" width="5" height="1"/>
	<rect x="75.9" y="798.5" class="st1" width="5" height="1"/>
	<rect x="75.9" y="797.5" class="st1" width="5" height="1"/>
	<rect x="75.9" y="796.5" class="st1" width="5" height="1"/>
	<rect x="75.9" y="795.5" class="st1" width="5" height="1"/>
	<rect x="75.9" y="794.4" class="st1" width="5" height="1"/>
	<rect x="75.9" y="793.4" class="st1" width="5" height="1"/>
	<rect x="75.9" y="792.4" class="st1" width="5" height="1"/>
	<rect x="75.9" y="791.4" class="st1" width="5" height="1"/>
</g>
<g id="PRIMA_DECK_17_TOP">
	<g id="gDeck17Locations">
		<path width="166.2627" height="307.9104" id="_x31_7Aft" class="st5" d="M9.6,559c6.8,27.4,19.6,52,35,69.6c0,0-38,70.7,14.3,147.4v56.7c0,18.5,14.6,33.5,32.9,34.2
			l0.6,0c18.9,0,34.2-15.3,34.2-34.2V776c52.3-76.7,14.3-147.4,14.3-147.4c15.4-17.6,28.2-42.2,35-69.6H9.6z"/>
		<path width="177.0199" height="245.3947" id="_x31_7MidShip" class="st5" d="M181.2,516c0-72.3-12-97.3-12-97.3v-45.3c3.6-19.3,4.9-39.9,4.9-59.7H11.3
			c0,19.8,1.4,40.4,4.9,59.7v45.3c0,0-12,25-12,97.3c0,14.7,1.9,29.2,5.4,43h166.3C179.3,545.2,181.2,530.7,181.2,516z"/>
		<path width="164" height="304.2783" id="_x31_7Forward" class="st5" d="M164.6,211.2c4.6-25.3,10.1-39.5,10.1-103c0-55.5-36.7-98.9-82-98.9l-0.1,0
			c-45.2,0.1-81.9,43.5-81.9,98.9c0,63.4,5.6,77.7,10.1,103c0,0-9.5,48.3-9.4,102.4H174C174.1,259.5,164.6,211.2,164.6,211.2z"/>
	</g>
	<path class="st8" d="M92.3,866.9c18.9,0,34.2-15.3,34.2-34.2V776c52.3-76.7,14.3-147.4,14.3-147.4c23.2-26.5,40.4-68.8,40.4-112.6
		c0-72.3-12-97.3-12-97.3v-45.3c13.3-72-4.5-162.1-4.5-162.1c4.6-25.3,10.1-39.5,10.1-103c0-55.5-36.8-98.9-82.2-98.9l-0.1,0
		c-45.3,0.1-82,43.5-82,98.9c0,63.4,5.6,77.7,10.1,103c0,0-17.8,90.1-4.5,162.1v45.3c0,0-12,25-12,97.3c0,43.9,17.2,86.1,40.4,112.6
		c0,0-38,70.7,14.3,147.4v56.7c0,18.5,14.6,33.5,32.9,34.2L92.3,866.9z"/>
</g>
</svg>
