<?xml version="1.0" encoding="utf-8"?>
<!-- Generator: Adobe Illustrator 25.4.1, SVG Export Plug-In . SVG Version: 6.00 Build 0)  -->
<svg version="1.1" id="PRIMA_DECK_19" xmlns="http://www.w3.org/2000/svg" xmlns:xlink="http://www.w3.org/1999/xlink" x="0px"
	 y="0px" width="204.425px" height="955.678px" viewBox="0 0 204.425 955.678" style="enable-background:new 0 0 204.425 955.678;"
	 xml:space="preserve">
<style type="text/css">
	.st0{fill:none;stroke:#D5DCE0;stroke-width:0.5;}
	.st1{fill:none;stroke:#808285;stroke-width:0.25;stroke-linecap:round;stroke-miterlimit:500;}
	.st2{fill:#FFFFFF;stroke:#D5DCE0;stroke-width:0.5;}
	.st3{fill:#FFFFFF;}
	.st4{fill:none;stroke:#076FA0;stroke-miterlimit:10;}
	.st5{fill:none;}
</style>
<g id="PRIMA_DECK_19_BOTTOM">
	<rect x="108.725" y="29.3" class="st0" width="1.2" height="7.4"/>
	<rect x="109.825" y="29.3" class="st0" width="1.2" height="7.4"/>
	<rect x="111.125" y="29.3" class="st0" width="1.2" height="7.4"/>
	<polygon class="st0" points="113.425,31.8 113.425,36.7 112.225,36.7 112.225,29.3 	"/>
	<polygon class="st0" points="114.625,34.3 114.625,36.7 113.425,36.7 113.425,31.8 	"/>
	<polygon class="st0" points="115.825,36.7 115.825,36.7 114.625,36.7 114.625,34.3 	"/>
	<rect x="115.725" y="36.7" class="st1" width="1.2" height="0.2"/>
	<path class="st2" d="M108.925,36.1c-0.2,0-0.3,0.2-0.3,0.4l0,0c0,0.2,0.1,0.4,0.3,0.4h8.1c0.2,0,0.3-0.2,0.3-0.4l0,0
		c0-0.2-0.1-0.4-0.3-0.4H108.925z"/>
	<line class="st0" x1="92.125" y1="29.3" x2="108.325" y2="29.3"/>
	<path class="st3" d="M101.025,283.6c0,0,23.3,0.3,41.7,7c18.3,6.7,20,10.3,22.3,18.3s20.7,76,20.7,165.7s-21.3,165-21.3,165v24
		l-6.3,14.7h-11c0,0-15.4,19.3-44.5,19.3h-3c-29.2,0-44.5-19.3-44.5-19.3h-11l-6.5-14.7v-24c0,0-21.3-75.3-21.3-165
		s18.3-157.7,20.7-165.7s4-11.7,22.3-18.3C77.625,283.9,101.025,283.6,101.025,283.6"/>
	<path class="st0" d="M101.025,283.6c0,0,23.3,0.3,41.7,7c18.3,6.7,20,10.3,22.3,18.3s20.7,76,20.7,165.7s-21.3,165-21.3,165v24
		l-6.3,14.7h-11c0,0-15.4,19.3-44.5,19.3h-3c-29.2,0-44.5-19.3-44.5-19.3h-11l-6.5-14.7v-24c0,0-21.3-75.3-21.3-165
		s18.3-157.7,20.7-165.7s4-11.7,22.3-18.3C77.625,283.9,101.025,283.6,101.025,283.6"/>
	<path class="st0" d="M62.525,498.4l-15.4-32.4c2.8-103.5,35.7-162.2,35.7-162.2"/>
	<path class="st0" d="M62.625,495.8l-12.5-33.8c0,0,0.8-75.9,20-123.2c0,0-0.4,42.2-1.1,54.9s-1,26.3-1.5,32.5"/>
	<path class="st2" d="M65.025,497L65.025,497c-0.5,0-0.8-0.4-0.7-0.8c6.8-80.5,3.3-147.9,3.3-148.6c0-0.4,0.3-0.8,0.7-0.8
		c0.4,0,0.8,0.3,0.8,0.7c0,0.7,3.5,68.2-3.3,148.8C65.725,496.7,65.425,497,65.025,497z"/>
	<path class="st2" d="M63.025,491.8L63.025,491.8c-0.5,0-0.8-0.4-0.7-0.8c5.7-70.4,2.4-132.2,2.4-132.8c0-0.4,0.3-0.8,0.7-0.8
		c0.4,0,0.8,0.3,0.8,0.7c0,0.6,3.4,62.5-2.4,133C63.725,491.5,63.425,491.8,63.025,491.8z"/>
	<path class="st2" d="M61.025,486.6L61.025,486.6c-0.5,0-0.8-0.4-0.7-0.8c4.7-60.2,2-116.3,2-116.8c0-0.4,0.3-0.8,0.7-0.8
		c0.4,0,0.8,0.3,0.8,0.7c0,0.6,2.7,56.7-2,117C61.825,486.3,61.425,486.6,61.025,486.6z"/>
	<path class="st2" d="M59.025,481.4L59.025,481.4c-0.5,0-0.8-0.4-0.7-0.8c3.6-50,1.1-98.3,1.1-98.8c0-0.4,0.3-0.8,0.7-0.8
		c0.4,0,0.8,0.3,0.8,0.7c0,0.5,2.5,48.9-1.1,99C59.825,481.1,59.425,481.4,59.025,481.4z"/>
	<path class="st2" d="M57.025,476.2L57.025,476.2c-0.5,0-0.8-0.4-0.7-0.8c2.5-39.9,0.8-79.1,0.8-79.5s0.3-0.8,0.7-0.8
		s0.8,0.3,0.8,0.7c0,0.4,1.8,39.7-0.8,79.6C57.825,475.9,57.425,476.2,57.025,476.2z"/>
	<path class="st2" d="M55.125,471C55.025,471,55.025,471,55.125,471c-0.5,0-0.8-0.4-0.7-0.8c1.5-29.7,0.5-57.4,0.5-57.7
		c0-0.4,0.3-0.8,0.7-0.8s0.8,0.3,0.8,0.7c0,0.3,1,28-0.5,57.8C55.825,470.7,55.525,471,55.125,471z"/>
	<path class="st2" d="M53.125,465.8L53.125,465.8c-0.4,0-0.8-0.4-0.8-0.8c0.4-19.6,0.2-32.6,0.2-32.7c0-0.4,0.3-0.8,0.7-0.8l0,0
		c0.4,0,0.7,0.3,0.8,0.7c0,0.1,0.2,13.2-0.2,32.8C53.825,465.5,53.525,465.8,53.125,465.8z"/>
	<path class="st0" d="M64.325,504.3c0.9-12.3,1.7-24.2,2.5-36.7c1.7-25.8,3.5-52.5,6.8-86.9c4.9-50.5,9.2-76.8,9.2-77.1
		c0,0.3-6.6,26.6-11.5,77.1c-3.4,34.4-5.1,61.1-6.8,86.9c-0.8,12.5-1.6,24.4-2.5,36.7c-3,39.5-8.2,70.4-10.5,84.5l1.2,6.5
		C55.025,581.3,61.325,543.8,64.325,504.3z"/>
	<path class="st0" d="M137.425,498.4l15.3-32.4c-2.8-103.5-35.8-162.2-35.8-162.2"/>
	<path class="st0" d="M137.325,495.8l12.6-33.8c0,0-0.8-75.9-20-123.2c0,0,0.4,42.2,1.1,54.9s1,26.3,1.5,32.5"/>
	<path class="st2" d="M134.925,497L134.925,497c0.5,0,0.8-0.4,0.7-0.8c-6.8-80.5-3.3-147.9-3.3-148.6c0-0.4-0.3-0.8-0.7-0.8
		s-0.8,0.3-0.8,0.7c0,0.7-3.5,68.2,3.3,148.8C134.225,496.7,134.525,497,134.925,497z"/>
	<path class="st2" d="M136.925,491.8L136.925,491.8c0.5,0,0.8-0.4,0.7-0.8c-5.7-70.4-2.4-132.2-2.4-132.8c0-0.4-0.3-0.8-0.7-0.8
		s-0.8,0.3-0.8,0.7c0,0.6-3.4,62.5,2.4,133C136.225,491.5,136.525,491.8,136.925,491.8z"/>
	<path class="st2" d="M138.925,486.6L138.925,486.6c0.5,0,0.8-0.4,0.7-0.8c-4.7-60.2-2-116.3-2-116.8c0-0.4-0.3-0.8-0.7-0.8
		s-0.8,0.3-0.8,0.7c0,0.6-2.7,56.7,2,117C138.225,486.3,138.525,486.6,138.925,486.6z"/>
	<path class="st2" d="M140.925,481.4L140.925,481.4c0.5,0,0.8-0.4,0.7-0.8c-3.6-50-1.1-98.3-1.1-98.8c0-0.4-0.3-0.8-0.7-0.8
		s-0.8,0.3-0.8,0.7c0,0.5-2.5,48.9,1.1,99C140.125,481.1,140.525,481.4,140.925,481.4z"/>
	<path class="st2" d="M142.925,476.2L142.925,476.2c0.5,0,0.8-0.4,0.7-0.8c-2.5-39.9-0.8-79.1-0.8-79.5s-0.3-0.8-0.7-0.8
		s-0.8,0.3-0.8,0.7c0,0.4-1.8,39.7,0.8,79.6C142.125,475.9,142.525,476.2,142.925,476.2z"/>
	<path class="st2" d="M144.825,471C144.925,471,144.925,471,144.825,471c0.5,0,0.8-0.4,0.7-0.8c-1.5-29.7-0.5-57.4-0.5-57.7
		c0-0.4-0.3-0.8-0.7-0.8s-0.8,0.3-0.8,0.7c0,0.3-1,28,0.5,57.8C144.125,470.7,144.525,471,144.825,471z"/>
	<path class="st2" d="M146.825,465.8C146.825,465.8,146.925,465.8,146.825,465.8c0.4,0,0.8-0.4,0.8-0.8c-0.4-19.6-0.2-32.6-0.2-32.7
		c0-0.4-0.3-0.8-0.7-0.8l0,0c-0.4,0-0.7,0.3-0.8,0.7c0,0.1-0.2,13.2,0.2,32.8C146.125,465.5,146.425,465.8,146.825,465.8z"/>
	<path class="st0" d="M135.625,504.3c-0.9-12.3-1.7-24.2-2.5-36.7c-1.7-25.8-3.5-52.5-6.8-86.9c-4.9-50.5-9.2-76.8-9.2-77.1
		c0,0.3,6.6,26.6,11.5,77.1c3.4,34.4,5.1,61.1,6.8,86.9c0.8,12.5,1.6,24.4,2.5,36.7c3,39.5,8.2,70.4,10.5,84.5l-1.2,6.5
		C144.925,581.3,138.625,543.8,135.625,504.3z"/>
	<path class="st0" d="M70.025,478.8c0,0,28-4.7,59.8,0"/>
	<path class="st0" d="M70.025,477.7c0,0,28-4.7,59.8,0"/>
	<path class="st0" d="M70.225,475.3c0,0,27.9-4.7,59.6,0"/>
	<path class="st0" d="M85.625,308.7l-0.6-1.9c0.6-0.2,15.8-4.7,29.9,0l-0.6,1.9C100.825,304.2,85.825,308.7,85.625,308.7z"/>
	<path class="st0" d="M84.925,314.1l-0.6-2c0.6-0.2,16.5-4.7,31.3,0l-0.6,1.9C100.825,309.6,85.125,314.1,84.925,314.1z"/>
	<path class="st0" d="M84.325,319.6l-0.6-2c0.6-0.2,17.2-4.7,32.6,0l-0.6,2C100.925,315,84.425,319.5,84.325,319.6z"/>
	<path class="st0" d="M83.625,325l-0.6-2c0.5-0.2,17.9-4.7,33.9,0l-0.6,2C100.925,320.5,83.825,324.9,83.625,325z"/>
	<path class="st0" d="M82.925,330.4l-0.5-2.1c0.5-0.1,18.6-4.7,35.2,0l-0.6,2.1C100.925,325.9,83.125,330.4,82.925,330.4z"/>
	<path class="st0" d="M82.225,335.9l-0.5-2.1c0.5-0.1,19.3-4.7,36.6,0l-0.6,2.1C101.025,331.3,82.425,335.8,82.225,335.9z"/>
	<path class="st0" d="M81.625,341.3l-0.5-2.2c0.5-0.1,20-4.7,37.9,0l-0.6,2.2C101.025,336.7,81.825,341.2,81.625,341.3z"/>
	<path class="st0" d="M80.925,346.7l-0.5-2.2c0.4-0.1,20.7-4.7,39.2,0l-0.6,2.2C101.125,342.2,81.125,346.7,80.925,346.7z"/>
	<path class="st0" d="M80.225,352.1l-0.5-2.3c0.4-0.1,21.4-4.7,40.5,0l-0.6,2.2C101.125,347.6,80.425,352.1,80.225,352.1z"/>
	<path class="st0" d="M79.625,357.6l-0.5-2.3c0.4-0.1,22.1-4.7,41.9,0l-0.6,2.3C101.125,353,79.825,357.5,79.625,357.6z"/>
	<path class="st0" d="M78.925,363l-0.5-2.3c0.3-0.1,22.8-4.7,43.2,0l-0.5,2.3C101.225,358.4,79.125,363,78.925,363z"/>
	<path class="st0" d="M78.225,368.4l-0.5-2.4c0.3-0.1,23.5-4.7,44.5,0l-0.5,2.4C101.225,363.9,78.525,368.4,78.225,368.4z"/>
	<path class="st0" d="M77.625,373.9l-0.5-2.4c0.3-0.1,24.2-4.7,45.8,0l-0.5,2.4C101.225,369.3,77.825,373.8,77.625,373.9z"/>
	<path class="st0" d="M76.925,379.3l-0.5-2.5c0.2,0,24.9-4.7,47.2,0l-0.5,2.5C101.325,374.7,77.125,379.2,76.925,379.3z"/>
	<path class="st2" d="M56.725,595.4h-4.1c2.4-14.1,8.6-51.6,11.6-91.1c0.9-12.3,1.7-24.2,2.5-36.7c1.7-25.8,3.5-52.5,6.8-86.9
		c4.9-50.5,9.2-76.8,9.2-77.1h4.3c0,0.3-4.7,27.1-9.6,77.4c-3.4,34.3-5.1,61-6.8,86.7c-0.8,12.5-1.6,24.4-2.5,36.7
		C65.225,544.3,59.125,581.3,56.725,595.4z"/>
	<path class="st2" d="M143.225,595.4h4.1c-2.4-14.1-8.6-51.6-11.6-91.1c-0.9-12.3-1.7-24.2-2.5-36.7c-1.7-25.8-3.5-52.5-6.8-86.9
		c-4.9-50.5-9.2-76.8-9.2-77.1h-4.3c0,0.3,4.7,27.1,9.6,77.4c3.4,34.3,5.1,61,6.8,86.7c0.8,12.5,1.6,24.4,2.5,36.7
		C134.725,544.3,140.825,581.3,143.225,595.4z"/>
	<rect x="27.825" y="507.9" class="st0" width="9.2" height="1.3"/>
	<rect x="27.825" y="509.3" class="st0" width="9.2" height="1.3"/>
	<rect x="27.825" y="510.6" class="st0" width="9.2" height="1.3"/>
	<rect x="27.825" y="506.6" class="st0" width="9.2" height="1.3"/>
	<rect x="27.825" y="505.2" class="st0" width="9.2" height="1.3"/>
	<polygon class="st0" points="34.025,503.9 27.825,503.9 27.825,505.2 37.125,505.2 	"/>
	<polygon class="st0" points="30.825,502.5 27.825,502.5 27.825,503.9 33.825,503.9 	"/>
	<polygon class="st0" points="27.925,501.2 27.825,501.2 27.825,502.6 30.825,502.6 	"/>
	<path class="st0" d="M36.125,513.3h-7.4c-0.5,0-0.9-0.4-0.9-0.9v-24.5c0-0.5,0.4-0.9,0.9-0.9h7.4c0.5,0,0.9,0.4,0.9,0.9v24.5
		C37.125,512.8,36.625,513.3,36.125,513.3z"/>
	<rect x="163.525" y="490.9" class="st0" width="9.2" height="1.3"/>
	<rect x="163.525" y="489.5" class="st0" width="9.2" height="1.3"/>
	<rect x="163.525" y="488.2" class="st0" width="9.2" height="1.3"/>
	<rect x="163.525" y="492.2" class="st0" width="9.2" height="1.3"/>
	<rect x="163.525" y="493.6" class="st0" width="9.2" height="1.3"/>
	<polygon class="st0" points="166.625,496.2 172.825,496.2 172.825,494.9 163.525,494.9 	"/>
	<polygon class="st0" points="169.825,497.6 172.825,497.6 172.825,496.3 166.825,496.3 	"/>
	<polygon class="st0" points="172.725,498.9 172.825,498.9 172.825,497.6 169.825,497.6 	"/>
	<path class="st0" d="M164.525,486.9h7.4c0.5,0,0.9,0.4,0.9,0.9v24.5c0,0.5-0.4,0.9-0.9,0.9h-7.4c-0.5,0-0.9-0.4-0.9-0.9v-24.5
		C163.525,487.3,163.925,486.9,164.525,486.9z"/>
	<path class="st3" d="M157.825,37.4h-49.4V27.2h-16.3v10.1h-49c-3.3,0-6,2.7-6,6V158c0,3.3,2.7,6,6,6h114.7c3.3,0,6-2.7,6-6V43.4
		C163.825,40.1,161.125,37.4,157.825,37.4z"/>
</g>
<g id="PRIMA_DECK_19_TOP">
	<path class="st4" d="M157.825,37.4h-49.4V27.2h-16.3v10.1h-49c-3.3,0-6,2.7-6,6V158c0,3.3,2.7,6,6,6h114.7c3.3,0,6-2.7,6-6V43.4
		C163.825,40.1,161.125,37.4,157.825,37.4z"/>
	<g id="gDeck19Locations">
		<path width="139.0892" height="271.9563" id="_x31_9Aft" class="st5" d="M101.553,711.209c-35.505,0-57.226-31.036-57.226-31.036S5.313,765.705,63.369,850.924v63.007
			c0,20.552,16.144,37.264,36.427,38.095h0.621c21.007,0,37.979-17.023,37.979-38.095v-63.007
			c58.055-85.22,19.869-170.855,19.869-170.855S137.059,711.209,101.553,711.209z"/>
		<path width="200.3474" height="391.6198" id="_x31_9MidShip" class="st5" d="M201.521,552.603c0-80.445-13.66-108.782-13.66-108.782l-0.207-36.33
			c3.932-21.487,2.763-59.209,2.763-81.318h-0.207c0.004-2.185-0.01-4.381-0.038-6.583H9.981c-0.03,2.237-0.046,4.467-0.042,6.687
			H9.732c0,22.006,0.652,62.634,4.584,84.121v33.424c0,0-13.143,31.14-13.143,100.479c0,16.297,3.726,50.032,7.554,65.394
			c9.624,29.479,18.524,50.862,35.599,70.48c0,0,21.721,31.036,57.226,31.036s56.711-31.14,56.711-31.14
			c17.075-19.618,25.457-41.312,34.771-70.48C196.865,594.331,201.521,569.003,201.521,552.603z"/>
		<path width="180.1916" height="317.1272" id="_x31_9Forward" class="st5" d="M179.065,208.506c5.071-28.13,10.142-29.064,10.142-99.544
			c0-70.895-38.083-106.499-88.376-106.499h-2.173C48.57,2.774,13.385,43.048,13.385,108.442c0,70.584,5.071,72.141,10.142,100.167
			c0,0-12.76,52.542-13.545,110.98h180.192C189.449,261.122,179.065,208.506,179.065,208.506z"/>
	</g>
</g>
</svg>
