<?xml version="1.0" encoding="utf-8"?>
<!-- Generator: Adobe Illustrator 25.4.1, SVG Export Plug-In . SVG Version: 6.00 Build 0)  -->
<svg version="1.1" id="PRIMA_DECK_20" xmlns="http://www.w3.org/2000/svg" xmlns:xlink="http://www.w3.org/1999/xlink" x="0px"
	 y="0px" width="209.8px" height="956px" viewBox="0 0 209.8 956" style="enable-background:new 0 0 209.8 956;"
	 xml:space="preserve">
<style type="text/css">
	.st0{fill:none;stroke:#D5DCE0;stroke-width:0.5;}
	.st1{fill:#FFFFFF;stroke:#D5DCE0;stroke-width:0.5;}
	.st2{fill:none;}
</style>
<g id="PRIMA_DECK_20_BOTTOM">
	<path class="st0" d="M67.9,498.4L52.5,466c2.8-103.5,35.7-162.2,35.7-162.2"/>
	<path class="st0" d="M68,495.8L55.5,462c0,0,0.8-75.9,20-123.2c0,0-0.4,42.2-1.1,54.9s-1,26.3-1.5,32.5"/>
	<path class="st1" d="M70.4,497L70.4,497c-0.5,0-0.8-0.4-0.7-0.8c6.8-80.5,3.3-147.9,3.3-148.6c0-0.4,0.3-0.8,0.7-0.8
		c0.4,0,0.8,0.3,0.8,0.7c0,0.7,3.5,68.2-3.3,148.8C71.1,496.7,70.8,497,70.4,497z"/>
	<path class="st1" d="M68.4,491.8L68.4,491.8c-0.5,0-0.8-0.4-0.7-0.8c5.7-70.4,2.4-132.2,2.4-132.8c0-0.4,0.3-0.8,0.7-0.8
		c0.4,0,0.8,0.3,0.8,0.7c0,0.6,3.4,62.5-2.4,133C69.1,491.5,68.8,491.8,68.4,491.8z"/>
	<path class="st1" d="M66.4,486.6L66.4,486.6c-0.5,0-0.8-0.4-0.7-0.8c4.7-60.2,2-116.3,2-116.8c0-0.4,0.3-0.8,0.7-0.8
		c0.4,0,0.8,0.3,0.8,0.7c0,0.6,2.7,56.7-2,117C67.2,486.3,66.8,486.6,66.4,486.6z"/>
	<path class="st1" d="M64.4,481.4L64.4,481.4c-0.5,0-0.8-0.4-0.7-0.8c3.6-50,1.1-98.3,1.1-98.8c0-0.4,0.3-0.8,0.7-0.8
		c0.4,0,0.8,0.3,0.8,0.7c0,0.5,2.5,48.9-1.1,99C65.2,481.1,64.8,481.4,64.4,481.4z"/>
	<path class="st1" d="M62.4,476.2L62.4,476.2c-0.5,0-0.8-0.4-0.7-0.8c2.5-39.9,0.8-79.1,0.8-79.5s0.3-0.8,0.7-0.8s0.8,0.3,0.8,0.7
		c0,0.4,1.8,39.7-0.8,79.6C63.2,475.9,62.8,476.2,62.4,476.2z"/>
	<path class="st1" d="M60.5,471C60.4,471,60.4,471,60.5,471c-0.5,0-0.8-0.4-0.7-0.8c1.5-29.7,0.5-57.4,0.5-57.7
		c0-0.4,0.3-0.8,0.7-0.8s0.8,0.3,0.8,0.7c0,0.3,1,28-0.5,57.8C61.2,470.7,60.9,471,60.5,471z"/>
	<path class="st1" d="M58.5,465.8L58.5,465.8c-0.4,0-0.8-0.4-0.8-0.8c0.4-19.6,0.2-32.6,0.2-32.7c0-0.4,0.3-0.8,0.7-0.8l0,0
		c0.4,0,0.7,0.3,0.8,0.7c0,0.1,0.2,13.2-0.2,32.8C59.2,465.5,58.9,465.8,58.5,465.8z"/>
	<path class="st0" d="M69.7,504.3c0.9-12.3,1.7-24.2,2.5-36.7c1.7-25.8,3.5-52.5,6.8-86.9c4.9-50.5,9.2-76.8,9.2-77.1
		c0,0.3-6.6,26.6-11.5,77.1c-3.4,34.4-5.1,61.1-6.8,86.9c-0.8,12.5-1.6,24.4-2.5,36.7c-3,39.5-8.2,70.4-10.5,84.5l1.2,6.5
		C60.4,581.3,66.7,543.8,69.7,504.3z"/>
	<path class="st0" d="M142.8,498.4l15.3-32.4c-2.8-103.5-35.8-162.2-35.8-162.2"/>
	<path class="st0" d="M142.7,495.8l12.6-33.8c0,0-0.8-75.9-20-123.2c0,0,0.4,42.2,1.1,54.9s1,26.3,1.5,32.5"/>
	<path class="st1" d="M140.3,497L140.3,497c0.5,0,0.8-0.4,0.7-0.8c-6.8-80.5-3.3-147.9-3.3-148.6c0-0.4-0.3-0.8-0.7-0.8
		s-0.8,0.3-0.8,0.7c0,0.7-3.5,68.2,3.3,148.8C139.6,496.7,139.9,497,140.3,497z"/>
	<path class="st1" d="M142.3,491.8L142.3,491.8c0.5,0,0.8-0.4,0.7-0.8c-5.7-70.4-2.4-132.2-2.4-132.8c0-0.4-0.3-0.8-0.7-0.8
		s-0.8,0.3-0.8,0.7c0,0.6-3.4,62.5,2.4,133C141.6,491.5,141.9,491.8,142.3,491.8z"/>
	<path class="st1" d="M144.3,486.6L144.3,486.6c0.5,0,0.8-0.4,0.7-0.8c-4.7-60.2-2-116.3-2-116.8c0-0.4-0.3-0.8-0.7-0.8
		s-0.8,0.3-0.8,0.7c0,0.6-2.7,56.7,2,117C143.6,486.3,143.9,486.6,144.3,486.6z"/>
	<path class="st1" d="M146.3,481.4L146.3,481.4c0.5,0,0.8-0.4,0.7-0.8c-3.6-50-1.1-98.3-1.1-98.8c0-0.4-0.3-0.8-0.7-0.8
		s-0.8,0.3-0.8,0.7c0,0.5-2.5,48.9,1.1,99C145.5,481.1,145.9,481.4,146.3,481.4z"/>
	<path class="st1" d="M148.3,476.2L148.3,476.2c0.5,0,0.8-0.4,0.7-0.8c-2.5-39.9-0.8-79.1-0.8-79.5s-0.3-0.8-0.7-0.8
		s-0.8,0.3-0.8,0.7c0,0.4-1.8,39.7,0.8,79.6C147.5,475.9,147.9,476.2,148.3,476.2z"/>
	<path class="st1" d="M150.2,471C150.3,471,150.3,471,150.2,471c0.5,0,0.8-0.4,0.7-0.8c-1.5-29.7-0.5-57.4-0.5-57.7
		c0-0.4-0.3-0.8-0.7-0.8s-0.8,0.3-0.8,0.7c0,0.3-1,28,0.5,57.8C149.5,470.7,149.9,471,150.2,471z"/>
	<path class="st1" d="M152.2,465.8C152.2,465.8,152.3,465.8,152.2,465.8c0.4,0,0.8-0.4,0.8-0.8c-0.4-19.6-0.2-32.6-0.2-32.7
		c0-0.4-0.3-0.8-0.7-0.8l0,0c-0.4,0-0.7,0.3-0.8,0.7c0,0.1-0.2,13.2,0.2,32.8C151.5,465.5,151.8,465.8,152.2,465.8z"/>
	<path class="st0" d="M141,504.3c-0.9-12.3-1.7-24.2-2.5-36.7c-1.7-25.8-3.5-52.5-6.8-86.9c-4.9-50.5-9.2-76.8-9.2-77.1
		c0,0.3,6.6,26.6,11.5,77.1c3.4,34.4,5.1,61.1,6.8,86.9c0.8,12.5,1.6,24.4,2.5,36.7c3,39.5,8.2,70.4,10.5,84.5l-1.2,6.5
		C150.3,581.3,144,543.8,141,504.3z"/>
	<path class="st0" d="M75.4,478.8c0,0,28-4.7,59.8,0"/>
	<path class="st0" d="M75.4,477.7c0,0,28-4.7,59.8,0"/>
	<path class="st0" d="M75.6,475.3c0,0,27.9-4.7,59.6,0"/>
	<path class="st0" d="M91,308.7l-0.6-1.9c0.6-0.2,15.8-4.7,29.9,0l-0.6,1.9C106.2,304.2,91.2,308.7,91,308.7z"/>
	<path class="st0" d="M90.3,314.1l-0.6-2c0.6-0.2,16.5-4.7,31.3,0l-0.6,1.9C106.2,309.6,90.5,314.1,90.3,314.1z"/>
	<path class="st0" d="M89.7,319.6l-0.6-2c0.6-0.2,17.2-4.7,32.6,0l-0.6,2C106.3,315,89.8,319.5,89.7,319.6z"/>
	<path class="st0" d="M89,325l-0.6-2c0.5-0.2,17.9-4.7,33.9,0l-0.6,2C106.3,320.5,89.2,324.9,89,325z"/>
	<path class="st0" d="M88.3,330.4l-0.5-2.1c0.5-0.1,18.6-4.7,35.2,0l-0.6,2.1C106.3,325.9,88.5,330.4,88.3,330.4z"/>
	<path class="st0" d="M87.6,335.9l-0.5-2.1c0.5-0.1,19.3-4.7,36.6,0l-0.6,2.1C106.4,331.3,87.8,335.8,87.6,335.9z"/>
	<path class="st0" d="M87,341.3l-0.5-2.2c0.5-0.1,20-4.7,37.9,0l-0.6,2.2C106.4,336.7,87.2,341.2,87,341.3z"/>
	<path class="st0" d="M86.3,346.7l-0.5-2.2c0.4-0.1,20.7-4.7,39.2,0l-0.6,2.2C106.5,342.2,86.5,346.7,86.3,346.7z"/>
	<path class="st0" d="M85.6,352.1l-0.5-2.3c0.4-0.1,21.4-4.7,40.5,0L125,352C106.5,347.6,85.8,352.1,85.6,352.1z"/>
	<path class="st0" d="M85,357.6l-0.5-2.3c0.4-0.1,22.1-4.7,41.9,0l-0.6,2.3C106.5,353,85.2,357.5,85,357.6z"/>
	<path class="st0" d="M84.3,363l-0.5-2.3c0.3-0.1,22.8-4.7,43.2,0l-0.5,2.3C106.6,358.4,84.5,363,84.3,363z"/>
	<path class="st0" d="M83.6,368.4l-0.5-2.4c0.3-0.1,23.5-4.7,44.5,0l-0.5,2.4C106.6,363.9,83.9,368.4,83.6,368.4z"/>
	<path class="st0" d="M83,373.9l-0.5-2.4c0.3-0.1,24.2-4.7,45.8,0l-0.5,2.4C106.6,369.3,83.2,373.8,83,373.9z"/>
	<path class="st0" d="M82.3,379.3l-0.5-2.5c0.2,0,24.9-4.7,47.2,0l-0.5,2.5C106.7,374.7,82.5,379.2,82.3,379.3z"/>
	<path class="st1" d="M62.1,595.4H58c2.4-14.1,8.6-51.6,11.6-91.1c0.9-12.3,1.7-24.2,2.5-36.7c1.7-25.8,3.5-52.5,6.8-86.9
		c4.9-50.5,9.2-76.8,9.2-77.1h4.3c0,0.3-4.7,27.1-9.6,77.4c-3.4,34.3-5.1,61-6.8,86.7c-0.8,12.5-1.6,24.4-2.5,36.7
		C70.6,544.3,64.5,581.3,62.1,595.4z"/>
	<path class="st1" d="M148.6,595.4h4.1c-2.4-14.1-8.6-51.6-11.6-91.1c-0.9-12.3-1.7-24.2-2.5-36.7c-1.7-25.8-3.5-52.5-6.8-86.9
		c-4.9-50.5-9.2-76.8-9.2-77.1h-4.3c0,0.3,4.7,27.1,9.6,77.4c3.4,34.3,5.1,61,6.8,86.7c0.8,12.5,1.6,24.4,2.5,36.7
		C140.1,544.3,146.2,581.3,148.6,595.4z"/>
</g>
<g id="PRIMA_DECK_20_TOP">
	<g id="gDeck20Locations">
		<path width="139.0892" height="271.9563" id="_x32_0Aft" class="st2" d="M105.106,711.209c-35.505,0-57.226-31.036-57.226-31.036S8.866,765.705,66.921,850.924v63.007
			c0,20.552,16.144,37.264,36.427,38.095h0.621c21.007,0,37.979-17.023,37.979-38.095v-63.007
			c58.055-85.22,19.869-170.855,19.869-170.855S140.611,711.209,105.106,711.209z"/>
		<path width="200.3474" height="391.6198" id="_x32_0MidShip" class="st2" d="M205.074,552.603c0-80.445-13.66-108.782-13.66-108.782l-0.207-36.33
			c3.932-21.487,2.763-59.209,2.763-81.318h-0.207c0.004-2.185-0.01-4.381-0.038-6.583H13.534c-0.03,2.237-0.046,4.467-0.042,6.687
			h-0.207c0,22.006,0.652,62.634,4.584,84.121v33.424c0,0-13.143,31.14-13.143,100.479c0,16.297,3.726,50.032,7.554,65.394
			c9.624,29.479,18.524,50.862,35.599,70.48c0,0,21.721,31.036,57.226,31.036s56.711-31.14,56.711-31.14
			c17.075-19.618,25.457-41.312,34.771-70.48C200.417,594.331,205.074,569.003,205.074,552.603z"/>
		<path width="180.1916" height="317.1272" id="_x32_0Forward" class="st2" d="M182.617,208.506c5.071-28.13,10.142-29.064,10.142-99.544
			c0-70.895-38.083-106.499-88.376-106.499h-2.173c-50.087,0.311-85.272,40.586-85.272,105.98c0,70.584,5.071,72.141,10.142,100.167
			c0,0-12.76,52.542-13.545,110.98h180.192C193.002,261.122,182.617,208.506,182.617,208.506z"/>
	</g>
</g>
</svg>
