<?xml version="1.0" encoding="utf-8"?>
<svg width="1025px" height="64px" viewBox="0 0 1025px 64" version="1.1" xmlns="http://www.w3.org/2000/svg">
  <g id="Page-1" stroke="none" stroke-width="1" fill="none" fill-rule="evenodd">
    <path d="M 1025 0 L 1025 64 L 0 64 L 0 33.073 C 69.413 18.847 157.045 11.082 262.895 9.778 C 421.671 7.822 511.311 47.529 684.607 47.529 C 800.137 47.529 913.602 31.686 1025 0 Z" id="wave" fill="#0D2236"/>
    <path d="M 681.49 46.556 C 797.02 46.556 911.524 31.037 1025 0 C 934.548 41.5 820.044 60.983 681.49 58.448 C 514.708 55.396 427.709 0.678 262.895 0.678 C 153.02 0.678 65.388 11.821 0 34.107 C 69.413 19.169 157.045 11.049 262.895 9.749 C 421.671 7.799 508.194 46.556 681.49 46.556 Z" id="highlight" fill="#0A84BD" opacity="0.501528533"/>
  </g>
</svg>