
<svg width="320px" height="59px" viewBox="0 0 320 59" version="1.1" xmlns="http://www.w3.org/2000/svg" xmlns:xlink="http://www.w3.org/1999/xlink">
    <!-- Generator: Sketch 49.3 (51167) - http://www.bohemiancoding.com/sketch -->
    <desc>Created with Sketch.</desc>
    <defs>
        <polygon id="path-1" points="0 0 320 0 320 59 0 59"></polygon>
    </defs>
    <g id="Navigation" stroke="none" stroke-width="1" fill="none" fill-rule="evenodd" opacity="0.5">
        <g id="MyNCL_Medium" transform="translate(-425.000000, -60.000000)">
            <g id="Navigation">
                <g id="Profile" transform="translate(425.000000, 60.000000)">
                    <g id="Top">
                        <g id="graphic-Wave">
                            <mask id="mask-2" fill="white">
                                <use xlink:href="#path-1"></use>
                            </mask>
                            <g id="Clip-3" transform="translate(160.000000, 29.500000) scale(-1, 1) translate(-160.000000, -29.500000) "></g>
                            <g id="Group" mask="url(#mask-2)" fill="#EDF1F5">
                                <g transform="translate(-176.305732, -192.000000)">
                                    <path d="M576.815592,0.517235247 L0.265273885,0.517235247 L0.265273885,190.7342 C74.0894777,207.7842 145.977376,242.7242 218.914955,242.7242 C220.739159,242.7242 222.553172,242.7042 224.377376,242.6642 C319.083108,240.4442 415.083108,181.5942 509.737885,181.5942 C532.035975,181.5942 554.405401,184.8542 576.815592,189.8842 L576.815592,0.517235247 Z" id="Fill-2" transform="translate(288.540433, 121.620718) scale(-1, 1) translate(-288.540433, -121.620718) "></path>
                                    <path d="M66.986293,250.9542 C44.6780127,250.9542 22.4614522,247.6842 0.265273885,242.6642 C94.9710064,240.4442 190.971006,181.5942 285.625783,181.5942 C307.923873,181.5942 330.293299,184.8542 352.70349,189.8842 C257.875465,191.9642 161.763363,250.9542 66.986293,250.9542 Z" id="Fill-8" transform="translate(176.484382, 216.274200) scale(-1, 1) translate(-176.484382, -216.274200) "></path>
                                    <path d="M571.352662,242.724 C498.415083,242.724 426.527185,207.784 352.702981,190.734 L352.702981,189.824 C429.360306,189.824 503.021452,225.954 576.815083,242.664 C574.990879,242.704 573.176866,242.724 571.352662,242.724 Z" id="Fill-5" style="mix-blend-mode: multiply;" transform="translate(464.759032, 216.274000) scale(-1, 1) translate(-464.759032, -216.274000) "></path>
                                </g>
                            </g>
                        </g>
                    </g>
                </g>
            </g>
        </g>
    </g>
</svg>