
<svg width="1025px" height="64px" viewBox="0 0 1025 64" version="1.1" xmlns="http://www.w3.org/2000/svg" xmlns:xlink="http://www.w3.org/1999/xlink">
    <g id="Symbols" stroke="none" stroke-width="1" fill="#FFFFFF" fill-rule="evenodd">
        <g id="Group-5" transform="translate(0.000000, -338.000000)">
            <g id="Group-3">
                <g>
                    <g id="Group" transform="translate(0.000000, 338.000000)">
                        <path d="M1025,0 L1025,63.3506944 L0,63.3506944 L0,33.6775746 C69.412861,19.1918244 157.044652,11.2850226 262.895372,9.95716914 C421.671453,7.96538891 511.311008,48.3974267 684.606798,48.3974267 C800.137325,48.3974267 913.601725,32.2649511 1025,0 Z" id="wave" fill="#FFFFFF"></path>
                        <path d="M681.489868,47.4482748 C797.020395,47.4482748 911.523772,31.6321832 1025,0 C934.547771,42.2959432 820.044394,62.1521355 681.489868,59.5685768 C514.707709,56.4586711 427.708944,0.691398668 262.895372,0.691398668 C153.019658,0.691398668 65.3878671,12.0481077 0,34.7615258 C69.412861,19.5363104 157.044652,11.2611787 262.895372,9.93613085 C421.671453,7.94855901 508.194078,47.4482748 681.489868,47.4482748 Z" id="highlight" fill="#99D1D6" opacity="0.659999967"></path>
                    </g>
                </g>
            </g>
        </g>
    </g>
</svg>