<?xml version="1.0" encoding="utf-8"?>
<!-- Generator: Adobe Illustrator 25.4.1, SVG Export Plug-In . SVG Version: 6.00 Build 0)  -->
<svg version="1.1" id="BREAKAWAY_DECK_07" xmlns="http://www.w3.org/2000/svg" xmlns:xlink="http://www.w3.org/1999/xlink" x="0px"
	 y="0px" width="148.9px" height="1171.3px" viewBox="0 0 148.9 1171.3" style="enable-background:new 0 0 148.9 1171.3;"
	 xml:space="preserve">
<style type="text/css">
	.st0{fill:#FFFFFF;}
	.st1{fill:none;stroke:#D5DCE0;stroke-width:0.5;}
	.st2{fill:none;stroke:#D5DCE0;stroke-width:0.5;stroke-linecap:round;stroke-linejoin:round;}
	.st3{fill:none;stroke:#D5DBDF;stroke-width:0.346;stroke-dasharray:0.346,0.346,0.346,0.346,0.346,0.346;}
	.st4{fill:none;stroke:#D5DBDF;stroke-width:0.3451;stroke-dasharray:0.3451,0.3451,0.3451,0.3451,0.3451,0.3451;}
	.st5{fill:none;stroke:#D5DBDF;stroke-width:0.3396;stroke-dasharray:0.3396,0.3396,0.3396,0.3396,0.3396,0.3396;}
	.st6{fill:none;stroke:#D5DBDF;stroke-width:0.3925;stroke-dasharray:0.3925,0.3925,0.3925,0.3925,0.3925,0.3925;}
	.st7{fill:none;stroke:#D5DBDF;stroke-width:0.3485;stroke-dasharray:0.3485,0.3485,0.3485,0.3485,0.3485,0.3485;}
	.st8{fill:#6E8496;}
	.st9{fill:none;}
	.st10{fill:none;stroke:#076FA0;stroke-miterlimit:10;}
</style>
<g id="BREAKAWAY_DECK_07_BOTTOM">
	<path class="st0" d="M148.4,1153.2c-13.8,16.2-35.9,16.4-35.9,16.4c-6.7,1-38.3,1.3-38.3,1.3c-20,0.5-45.8-2-45.8-2
		c-17.2-0.9-27.9-16.1-27.9-16.1V207.7l0,3.2c0,0-0.7-63.2,3.8-84.7h2.2c0,0,6.6-28.1,20.3-56.8C42.6,36.2,66.3,1.8,74.4,1.2
		l0.4-0.1c8.1,0.6,31.8,35.1,47.7,68.2c13.7,28.7,20.3,56.8,20.3,56.8h2.2c4.5,21.5,3.3,84.7,3.3,84.7l0-0.8v416.9v-0.3v156.8v370.1
		"/>
	<line class="st1" x1="63.1" y1="969.4" x2="63.1" y2="954.1"/>
	<line class="st1" x1="46.4" y1="969.3" x2="63.1" y2="969.3"/>
	<line class="st1" x1="54.5" y1="714.1" x2="58.8" y2="715.5"/>
	<line class="st1" x1="54.3" y1="714.8" x2="58.4" y2="716.9"/>
	<line class="st1" x1="54.2" y1="715.7" x2="57.7" y2="718.1"/>
	<line class="st1" x1="53.9" y1="716.7" x2="57.2" y2="719.2"/>
	<line class="st1" x1="53.2" y1="717.4" x2="56.5" y2="720.2"/>
	<line class="st1" x1="52.8" y1="717.9" x2="55.6" y2="720.8"/>
	<line class="st1" x1="51.7" y1="718.3" x2="53.2" y2="721.8"/>
	<line class="st1" x1="54.6" y1="713.2" x2="59.2" y2="714.1"/>
	<path class="st1" d="M59.8,956.8c-0.2,0-0.3,0.2-0.3,0.4"/>
	<line class="st1" x1="59.5" y1="957.3" x2="59.5" y2="966.9"/>
	<line class="st1" x1="63.2" y1="958.9" x2="46.4" y2="958.8"/>
	<path class="st1" d="M50.9,957.2c0-0.2-0.1-0.4-0.3-0.4"/>
	<line class="st1" x1="50.9" y1="958.8" x2="50.9" y2="957.2"/>
	<line class="st1" x1="50.6" y1="956.7" x2="46.4" y2="956.7"/>
	<line class="st1" x1="56.1" y1="968" x2="56.1" y2="953.9"/>
	<line class="st1" x1="55.9" y1="968" x2="55.9" y2="953.8"/>
	<line class="st1" x1="63.2" y1="966.4" x2="55.6" y2="966.3"/>
	<line class="st1" x1="63.2" y1="967.4" x2="55.6" y2="967.4"/>
	<line class="st1" x1="56.1" y1="968" x2="55.9" y2="968"/>
	<line class="st1" x1="55.9" y1="966.3" x2="46.5" y2="966.2"/>
	<line class="st1" x1="46.3" y1="957.8" x2="63.1" y2="957.8"/>
	<line class="st1" x1="46.3" y1="959.9" x2="63.1" y2="959.9"/>
	<line class="st1" x1="46.3" y1="961" x2="63" y2="961"/>
	<path class="st1" d="M50.6,966.9c0,0.2,0.1,0.4,0.3,0.4c0.2,0,0.3-0.2,0.3-0.4l0,0"/>
	<line class="st1" x1="51.2" y1="966.9" x2="51.2" y2="966.8"/>
	<line class="st1" x1="50.6" y1="966.9" x2="50.6" y2="966.8"/>
	<path class="st1" d="M59.1,967c0,0.2,0.1,0.4,0.3,0.4c0.2,0,0.3-0.2,0.3-0.4l0,0"/>
	<line class="st1" x1="59.8" y1="967" x2="59.8" y2="966.9"/>
	<line class="st1" x1="59.1" y1="967" x2="59.1" y2="966.9"/>
	<line class="st1" x1="50.9" y1="966.8" x2="50.9" y2="958.9"/>
	<line class="st1" x1="46.4" y1="963.1" x2="63.1" y2="963.1"/>
	<line class="st1" x1="46.4" y1="964.2" x2="63.1" y2="964.2"/>
	<line class="st1" x1="46.5" y1="965.2" x2="63.1" y2="965.2"/>
	<line class="st1" x1="46.3" y1="962.1" x2="63.1" y2="962.1"/>
	<path class="st1" d="M57.7,734.6l2.1-2.8l-3.8-2.3l-1.4,1.4l0,0c-1.6-2.4-2.7-5.1-3.3-8l-0.1-0.1l3.2-1.4l-2-3.2h-1.5
		c0-12.8,10.4-23.2,23.2-23.2s23.2,10.4,23.2,23.2c0,12.8-10.4,23.2-23.2,23.2C67.7,741.4,61.9,738.8,57.7,734.6L57.7,734.6z"/>
	<path class="st1" d="M63.6,697.6c0,0,1.3,2.3-2,5c0,0-5.6,4.4-7.2,10.5c0,0,0.3,4.3-2.7,5"/>
	<path class="st1" d="M67.2,696c0,0,2.1,2.7,0.3,6.1c0,0-2.1,2.9-3.7,4c0,0-3.9,3-4.7,8.3c0,0-1.3,5.9-4.7,7.1"/>
	<polyline class="st1" points="97.7,481.4 97.7,383.5 90.6,383.5 	"/>
	<polyline class="st1" points="91.1,383.5 50.7,383.5 50.7,407.3 37.8,407.3 37.8,460.1 	"/>
	<line class="st1" x1="24.2" y1="431.1" x2="37.8" y2="431.1"/>
	<polyline class="st1" points="124.4,433.6 124.4,449.9 136.5,449.9 	"/>
	<polyline class="st1" points="124.5,402.5 129.9,402.5 136.6,421.3 136.6,421.5 136.6,480.7 136.5,487.8 136.5,595.5 136.5,601.3 
		136.5,653.2 136.5,662.1 136.5,891 136.5,894.3 136.5,958.4 136.5,964.5 136.5,976.1 	"/>
	<polyline class="st1" points="50.9,460.1 50.9,481.4 60.3,481.4 	"/>
	<line class="st1" x1="63.1" y1="955.6" x2="56" y2="955.6"/>
	<polyline class="st1" points="55.9,954.7 63.1,954.7 64.1,954.7 64.1,975.7 	"/>
	<line class="st1" x1="59.5" y1="957" x2="50.9" y2="957"/>
	<path class="st1" d="M59.8,956.8l5.5,0c0,0,1,0.1,1,1.4l0-0.1v13.3c0,0,0.2,0.9-1.4,0.7l-0.9,0l0,0.5h1.6c0,0,0.6,0.2,0.6,0.8v1.9
		c0,0-0.2,0.4-0.6,0.5H47.3c0,0-0.6,0.1-0.6-1v-5.4"/>
	<line class="st1" x1="85.5" y1="969.4" x2="85.5" y2="954.1"/>
	<line class="st1" x1="100.3" y1="969.3" x2="100.3" y2="956.8"/>
	<line class="st1" x1="100.3" y1="969.3" x2="84.7" y2="969.3"/>
	<path class="st1" d="M87.4,956.8c0.2,0,0.3,0.2,0.3,0.4"/>
	<line class="st1" x1="87.7" y1="957.3" x2="87.7" y2="958.8"/>
	<line class="st1" x1="85.5" y1="959.6" x2="100.3" y2="959.5"/>
	<path class="st1" d="M96.6,957.2c0-0.2,0.1-0.4,0.3-0.4"/>
	<line class="st1" x1="96.6" y1="958.9" x2="96.6" y2="957.2"/>
	<path class="st1" d="M96.9,956.7h3.4l2-0.6h9.9c3.4,0.4,3.4,3.5,3.4,3.5v16.5"/>
	<line class="st1" x1="92.4" y1="968" x2="92.4" y2="953.9"/>
	<line class="st1" x1="92.5" y1="968" x2="92.5" y2="953.8"/>
	<line class="st1" x1="85.5" y1="967.4" x2="92.4" y2="967.5"/>
	<line class="st1" x1="85.6" y1="966.2" x2="100.3" y2="966.2"/>
	<line class="st1" x1="100.3" y1="958.3" x2="85.5" y2="958.3"/>
	<line class="st1" x1="100.3" y1="960.5" x2="85.7" y2="960.5"/>
	<line class="st1" x1="100.3" y1="961.3" x2="85.5" y2="961.3"/>
	<path class="st1" d="M96.9,966.9c0,0.2-0.1,0.4-0.3,0.4c-0.2,0-0.3-0.2-0.3-0.4l0,0"/>
	<line class="st1" x1="96.3" y1="966.9" x2="96.3" y2="966.8"/>
	<line class="st1" x1="96.9" y1="966.9" x2="96.9" y2="966.8"/>
	<path class="st1" d="M88,967c0,0.2-0.1,0.4-0.3,0.4c-0.2,0-0.3-0.2-0.3-0.4l0,0"/>
	<line class="st1" x1="87.4" y1="967" x2="87.4" y2="966.9"/>
	<line class="st1" x1="88" y1="967" x2="88" y2="966.9"/>
	<line class="st1" x1="96.6" y1="966.8" x2="96.6" y2="958.9"/>
	<line class="st1" x1="100.4" y1="963.4" x2="85.5" y2="963.4"/>
	<line class="st1" x1="100.4" y1="964.5" x2="85.5" y2="964.5"/>
	<line class="st1" x1="100.3" y1="965.5" x2="85.5" y2="965.5"/>
	<line class="st1" x1="100.1" y1="962.3" x2="85.5" y2="962.3"/>
	<line class="st1" x1="87.7" y1="966.9" x2="87.7" y2="958.8"/>
	<line class="st1" x1="85.5" y1="956.2" x2="92.4" y2="956.2"/>
	<polyline class="st1" points="92.4,955.2 85,955.2 84,955.2 84,976.2 	"/>
	<line class="st1" x1="87.7" y1="957.5" x2="96.6" y2="957.5"/>
	<path class="st1" d="M87.4,956.8l-3.4,0c0,0-1.9-0.3-2,1.5l0,0v13.3c0,0-0.2,0.8,1.2,0.6l0.8,0l0,0.5h-1.5c0,0-0.6,0.2-0.6,0.8v1.9
		c0,0,0.2,0.4,0.6,0.5h16.9c0,0,0.6,0.1,0.6-1v-5.2"/>
	<line class="st1" x1="121.7" y1="460.1" x2="34.7" y2="460.1"/>
	<line class="st1" x1="12" y1="460.1" x2="34.6" y2="460.1"/>
	<line class="st1" x1="24.2" y1="431.1" x2="11.8" y2="431.1"/>
	<line class="st1" x1="82.1" y1="976.1" x2="136.4" y2="976.1"/>
	<line class="st1" x1="81.5" y1="471.5" x2="88.2" y2="471.5"/>
	<line class="st1" x1="81.5" y1="475.9" x2="84.9" y2="475.9"/>
	<line class="st1" x1="81.5" y1="476.8" x2="88.2" y2="476.8"/>
	<line class="st1" x1="81.7" y1="477.7" x2="85" y2="477.7"/>
	<line class="st1" x1="81.7" y1="478.6" x2="85" y2="478.6"/>
	<line class="st1" x1="81.7" y1="479.5" x2="85" y2="479.5"/>
	<path class="st1" d="M81.7,481.4h6.5V462c0,0,0-0.6-1-0.6H61c0,0-0.7,0-0.6,0.6l0,7.1"/>
	<line class="st1" x1="71" y1="471.5" x2="77.8" y2="471.5"/>
	<line class="st1" x1="81.5" y1="472.4" x2="88.2" y2="472.4"/>
	<line class="st1" x1="71" y1="472.4" x2="77.8" y2="472.4"/>
	<line class="st1" x1="81.5" y1="473.3" x2="88.2" y2="473.3"/>
	<line class="st1" x1="71" y1="473.3" x2="77.8" y2="473.3"/>
	<line class="st1" x1="81.5" y1="474.1" x2="88.2" y2="474.1"/>
	<line class="st1" x1="71" y1="474.1" x2="77.8" y2="474.1"/>
	<line class="st1" x1="81.5" y1="475" x2="88.2" y2="475"/>
	<line class="st1" x1="77.8" y1="471.5" x2="80.9" y2="471.5"/>
	<line class="st1" x1="77.8" y1="475.9" x2="80.9" y2="475.9"/>
	<line class="st1" x1="77.8" y1="476.8" x2="80.9" y2="476.8"/>
	<line class="st1" x1="77.8" y1="477.7" x2="80.9" y2="477.7"/>
	<line class="st1" x1="77.8" y1="478.6" x2="80.9" y2="478.6"/>
	<line class="st1" x1="77.7" y1="479.5" x2="80.9" y2="479.5"/>
	<line class="st1" x1="74.3" y1="481.4" x2="80.9" y2="481.4"/>
	<line class="st1" x1="77.8" y1="472.4" x2="80.9" y2="472.4"/>
	<line class="st1" x1="77.8" y1="473.3" x2="80.9" y2="473.3"/>
	<line class="st1" x1="77.8" y1="474.1" x2="80.9" y2="474.1"/>
	<line class="st1" x1="77.8" y1="475" x2="80.9" y2="475"/>
	<line class="st1" x1="71.1" y1="475" x2="77.8" y2="475"/>
	<line class="st1" x1="71.1" y1="475.9" x2="77.8" y2="475.9"/>
	<line class="st1" x1="71.1" y1="476.8" x2="77.8" y2="476.8"/>
	<line class="st1" x1="71.1" y1="477.7" x2="77.8" y2="477.7"/>
	<line class="st1" x1="71.1" y1="478.6" x2="77.8" y2="478.6"/>
	<line class="st1" x1="71.1" y1="479.5" x2="77.5" y2="479.5"/>
	<line class="st1" x1="67.5" y1="475.9" x2="71.1" y2="475.9"/>
	<line class="st1" x1="67.5" y1="476.8" x2="71.1" y2="476.8"/>
	<line class="st1" x1="67.5" y1="477.7" x2="71.1" y2="477.7"/>
	<line class="st1" x1="67.5" y1="478.6" x2="71.1" y2="478.6"/>
	<line class="st1" x1="67.5" y1="479.5" x2="71.1" y2="479.5"/>
	<line class="st1" x1="67.5" y1="475.1" x2="71.1" y2="475.1"/>
	<line class="st1" x1="67.5" y1="470.7" x2="71.1" y2="470.7"/>
	<line class="st1" x1="67.5" y1="470" x2="80.9" y2="470"/>
	<line class="st1" x1="67.5" y1="469" x2="80.9" y2="469"/>
	<line class="st1" x1="71.1" y1="470.7" x2="80.9" y2="470.7"/>
	<line class="st1" x1="67.5" y1="471.6" x2="71" y2="471.6"/>
	<line class="st1" x1="67.5" y1="472.5" x2="71" y2="472.5"/>
	<line class="st1" x1="67.5" y1="473.4" x2="71" y2="473.4"/>
	<line class="st1" x1="67.5" y1="474.3" x2="71" y2="474.3"/>
	<line class="st1" x1="81.6" y1="480.3" x2="88.2" y2="480.3"/>
	<line class="st1" x1="85" y1="475.9" x2="88.2" y2="475.9"/>
	<line class="st1" x1="85" y1="477.7" x2="88.2" y2="477.7"/>
	<line class="st1" x1="85" y1="478.6" x2="88.2" y2="478.6"/>
	<line class="st1" x1="85" y1="479.5" x2="88.2" y2="479.5"/>
	<line class="st1" x1="67.6" y1="481.4" x2="74.1" y2="481.4"/>
	<path class="st1" d="M66.9,481.4l0-12.6c0,0-0.1-0.4,0.3-0.4c0,0,0.3,0,0.3,0.4l0,12.6"/>
	<line class="st1" x1="81.6" y1="468.7" x2="81.5" y2="481.4"/>
	<line class="st1" x1="80.9" y1="468.7" x2="80.9" y2="481.4"/>
	<line class="st1" x1="66.9" y1="479.4" x2="60.5" y2="479.4"/>
	<line class="st1" x1="66.9" y1="475" x2="60.2" y2="475"/>
	<line class="st1" x1="66.9" y1="473.9" x2="60.2" y2="473.9"/>
	<line class="st1" x1="66.9" y1="473" x2="60.2" y2="473"/>
	<line class="st1" x1="66.9" y1="471.9" x2="60.2" y2="471.9"/>
	<line class="st1" x1="66.9" y1="470.9" x2="60.2" y2="470.9"/>
	<line class="st1" x1="66.9" y1="469.9" x2="60.2" y2="469.9"/>
	<line class="st1" x1="66.9" y1="475.9" x2="60.5" y2="475.9"/>
	<line class="st1" x1="66.9" y1="476.8" x2="60.5" y2="476.8"/>
	<line class="st1" x1="66.9" y1="477.7" x2="60.5" y2="477.7"/>
	<line class="st1" x1="66.9" y1="478.6" x2="60.5" y2="478.6"/>
	<polyline class="st1" points="56.9,468.6 60.3,469.2 60.3,481.4 66.9,481.4 	"/>
	<path class="st1" d="M77.2,479.8c0,0.2,0.2,0.3,0.5,0.3c0.3,0,0.5-0.1,0.5-0.3l0,0"/>
	<line class="st1" x1="77.7" y1="479.7" x2="77.6" y2="466.5"/>
	<line class="st1" x1="84.9" y1="466.6" x2="85" y2="467.4"/>
	<line class="st1" x1="85" y1="476.4" x2="85" y2="467.3"/>
	<path class="st1" d="M78.3,466.2c-0.3,0-0.7,0.1-0.7,0.3"/>
	<path class="st1" d="M84.2,466.2c0.3,0,0.7,0.1,0.7,0.3"/>
	<line class="st1" x1="78.3" y1="466.2" x2="84.3" y2="466.2"/>
	<path class="st1" d="M77.2,479.8c0,0.2,0.2,0.3,0.5,0.3c0.3,0,0.5-0.1,0.5-0.3l0,0"/>
	<path class="st1" d="M78.3,466.2c-0.3,0-0.8,0.1-0.8,0.3"/>
	<line class="st1" x1="77.6" y1="467.3" x2="77.6" y2="468.2"/>
	<path class="st1" d="M84.2,466.2c0.3,0,0.7,0.2,0.7,0.3"/>
	<line class="st1" x1="78.3" y1="466.2" x2="84.3" y2="466.2"/>
	<path class="st1" d="M71.4,479.8c0,0.2-0.2,0.3-0.5,0.3c-0.3,0-0.5-0.1-0.5-0.3l0,0"/>
	<line class="st1" x1="70.9" y1="479.7" x2="71.1" y2="466.5"/>
	<line class="st1" x1="63.7" y1="467.1" x2="63.7" y2="467.4"/>
	<line class="st1" x1="63.7" y1="476.7" x2="63.7" y2="467.3"/>
	<line class="st1" x1="71" y1="467.3" x2="71" y2="468.2"/>
	<line class="st1" x1="63.7" y1="466.5" x2="63.7" y2="467.7"/>
	<path class="st1" d="M63.7,466.5c0-0.2,0.1-0.3,0.7-0.3h-0.1h6.1h-0.1c0.8,0,0.7,0,0.7,0.3"/>
	<polyline class="st1" points="129.9,250.9 129.9,263.2 129.9,266.8 129.9,311.1 129.9,314.1 129.9,329.8 129.9,333.1 129.9,402.6 	
		"/>
	<line class="st1" x1="124.4" y1="342.1" x2="124.4" y2="402.6"/>
	<path class="st1" d="M24.4,288.7l9-14.1v-5.1h64.2h16.6c0,0,1.5-0.5,1.4,1.5v3.6l8.8,13.9v53.7"/>
	<polyline class="st1" points="97.8,489.3 97.8,536.7 82.2,536.7 82.2,529.8 	"/>
	<polyline class="st1" points="51.2,489.1 51.2,536.7 66.4,536.7 66.4,529.8 	"/>
	<polyline class="st1" points="11.8,488.9 31.8,488.9 66.4,488.9 66.4,491.6 	"/>
	<polyline class="st1" points="136.4,488.9 124.7,488.9 82.2,488.9 82.2,491.9 	"/>
	<line class="st1" x1="74.1" y1="468.4" x2="74" y2="481.4"/>
	<rect x="57.1" y="491.6" class="st1" width="9.3" height="38.2"/>
	<line class="st1" x1="57.4" y1="520.3" x2="66.4" y2="529.5"/>
	<line class="st1" x1="57.5" y1="529.5" x2="66.4" y2="520.3"/>
	<polygon class="st1" points="57.4,511.1 66.4,520.2 57.5,520.2 66.4,511.1 	"/>
	<line class="st1" x1="57.4" y1="501.4" x2="66.4" y2="510.6"/>
	<line class="st1" x1="57.5" y1="510.5" x2="66.4" y2="501.4"/>
	<polyline class="st1" points="66.4,492.1 57.5,501.3 66.4,501.3 57.4,492.1 	"/>
	<rect x="82.2" y="491.6" class="st1" width="9.3" height="38.2"/>
	<line class="st1" x1="91.2" y1="520.3" x2="82.2" y2="529.5"/>
	<line class="st1" x1="91.1" y1="529.5" x2="82.2" y2="520.3"/>
	<polygon class="st1" points="91.2,511.1 82.2,520.2 91.1,520.2 82.2,511.1 	"/>
	<line class="st1" x1="91.2" y1="501.4" x2="82.2" y2="510.6"/>
	<line class="st1" x1="91.1" y1="510.5" x2="82.2" y2="501.4"/>
	<polyline class="st1" points="82.2,492.1 91.1,501.3 82.2,501.3 91.2,492.1 	"/>
	<path class="st1" d="M85.5,539.6l24.1,2.1c0,0,1,0.1,0.8,1.4l-0.1,1.2c0,0,0,0.8,1,1h1.5c0,0,1.2-0.2,1,1.5l-1.2,29.9
		c0,0-3,17.8-20.3,16.3c0,0-14.7-0.5-16.6-17.9c0,0,0.8-6.7,1-7.7l3.1-23c0,0-0.1-2,1.7-2l1.4,0.3c0,0,1-0.2,1-1.6
		C84,541,83.7,539.2,85.5,539.6z"/>
	<line class="st1" x1="64.2" y1="627" x2="64.2" y2="680"/>
	<polyline class="st1" points="11.7,593.5 36.4,593.6 44.8,593.6 55.2,593.6 55.2,593.6 55.2,594.9 63.2,594.9 63.2,614.6 65,614.6 
		65,622.6 	"/>
	<polyline class="st1" points="84.4,651.1 84.4,639.1 84.7,638.9 136.3,638.9 	"/>
	<polyline class="st1" points="84.4,651.1 84.4,680 102.1,680 102.1,673 110.9,673 110.9,665.2 136.5,665.2 	"/>
	<polyline class="st1" points="64.2,680 46.3,680.1 46.3,673 37.4,673 37.4,665.4 12,665.4 	"/>
	<rect x="56.6" y="904.6" class="st1" width="9.3" height="37.4"/>
	<line class="st1" x1="56.9" y1="913.9" x2="65.8" y2="904.9"/>
	<line class="st1" x1="57" y1="904.9" x2="65.8" y2="913.9"/>
	<polygon class="st2" points="56.9,923 65.8,914 57,914 65.8,923 	"/>
	<line class="st1" x1="56.9" y1="932.5" x2="65.8" y2="923.5"/>
	<line class="st1" x1="56.9" y1="923" x2="65.8" y2="932.5"/>
	<polyline class="st2" points="65.8,942 57,932.6 65.8,932.6 56.9,942 	"/>
	<rect x="82.2" y="904.6" class="st1" width="9.3" height="37.4"/>
	<line class="st1" x1="91.2" y1="913.9" x2="82.2" y2="904.9"/>
	<line class="st1" x1="91.1" y1="904.9" x2="82.2" y2="913.9"/>
	<polygon class="st2" points="91.2,923 82.2,914 91.1,914 82.2,923 	"/>
	<line class="st1" x1="91.2" y1="932.5" x2="82.2" y2="923.5"/>
	<line class="st1" x1="91.2" y1="923" x2="82.2" y2="932.5"/>
	<polyline class="st2" points="82.2,942 91.1,932.6 82.2,932.6 91.2,942 	"/>
	<polyline class="st1" points="136.4,947.2 108.2,947.2 104.4,947.2 99.3,947.2 97.2,942 91.5,942 	"/>
	<polyline class="st1" points="11.9,976.1 66.5,976.3 66.5,976.3 66.5,1033.8 38.7,1033.8 29,1033.8 12.1,1033.8 	"/>
	<line class="st1" x1="81.2" y1="477.8" x2="88.8" y2="475"/>
	<line class="st1" x1="59.4" y1="475" x2="67.2" y2="477.9"/>
	<path class="st1" d="M109.3,382.7v9c0,0-0.1,1.5,1,1.6c0,0,1.1,0.2,1-1.5v-8.9c0,0,0.1-1-0.8-1.1
		C110.4,381.8,109.2,381.7,109.3,382.7z"/>
	<line class="st1" x1="18.5" y1="402.5" x2="24.3" y2="402.5"/>
	<line class="st1" x1="102" y1="976.2" x2="102" y2="956.2"/>
	<line class="st1" x1="0.5" y1="250.7" x2="148.9" y2="250.7"/>
	<polyline class="st1" points="65,614.6 65,626.8 46.3,626.8 46.3,593.7 	"/>
	<path class="st1" d="M32.9,976.1v-15.5c0,0-0.4-3.8,3.2-4.4l10.3,0v13.2"/>
	<rect x="84" y="770.3" class="st1" width="16" height="77.5"/>
	<polyline class="st1" points="11.7,767 51.7,767 51.7,770.3 51.8,770.3 64.6,770.3 64.6,801.8 64.6,804.7 64.6,847.8 48.4,847.8 
		48.4,829.6 48.5,829.5 12.1,829.5 	"/>
	<rect x="50.7" y="862.1" class="st1" width="13.9" height="37.7"/>
	<polyline class="st1" points="82.2,904.6 82.2,899.8 97.9,899.8 97.9,914 98,914 124.3,914 136.6,914 	"/>
	<polyline class="st1" points="12,937.7 24.1,937.7 24.1,935.5 50.8,935.5 	"/>
	<polyline class="st1" points="62.2,1166.8 62.2,1098.4 64.8,1095 83.5,1095 86.4,1097.9 86.4,1166.9 	"/>
	<rect x="11.8" y="947.3" class="st1" width="12.7" height="9.9"/>
	<line class="st1" x1="50.7" y1="899.8" x2="50.7" y2="942"/>
	<polyline class="st1" points="64.6,899.8 65.8,899.8 65.8,904.3 	"/>
	<rect x="14.2" y="862.2" class="st1" width="10.5" height="35.9"/>
	<polyline class="st1" points="26.5,562.8 26.6,547 21.2,547 21.2,584.2 26.6,584.2 26.6,567.5 	"/>
	<path class="st1" d="M26.6,567.4h3.6c0.1,0,0.8,0,0.9-0.1c0.2-0.1,1.2-0.9,1.2-2.2c0-1.2-0.6-2.2-1.4-2.3v0h-4.2"/>
	<line class="st1" x1="88.2" y1="481.4" x2="97.7" y2="481.4"/>
	<polyline class="st1" points="24.2,288.7 24.3,298.3 24.3,402.5 	"/>
	<polyline class="st1" points="11.8,947.3 49.3,947.3 51,942 56.6,942 	"/>
	<rect x="37.8" y="460.1" class="st1" width="13.1" height="14.9"/>
	<rect x="121.8" y="460.1" class="st1" width="14.7" height="19.9"/>
	<polyline class="st1" points="136.6,433.6 97.7,433.6 97.7,398.8 124.4,398.8 124.4,402.5 	"/>
	<path class="st1" d="M63.9,1167v-15.7c0,0,9.8-6.2,20.2,0.4v15.3"/>
	<path class="st1" d="M18.6,250.7V376v5.8v20.7l-6.8,19v30.3v6.4v23v6.9v97v5.7v62.5v9.2v295.8l0.2,7.1V1100l6.8-0.1l-0.3,63.2
		l0.1,0c0,0,22.4,4.5,55.7,3.8c33.3,0.6,55.5-3.8,55.5-3.8l0.1,0v-68.8l-0.1-3.4l6.6-0.1l0.1,0v-102l0-0.1h-34l-0.1,0.1v30.7H82.1
		v-43.3"/>
	<line class="st1" x1="81.4" y1="885.4" x2="136.5" y2="885.4"/>
	<polygon class="st1" points="111.7,614.2 79.2,614.2 79.2,622.3 111.7,622.3 111.7,631.6 115.1,631.6 115.1,622.3 115.1,614.2 	"/>
	<path class="st1" d="M50.6,385.8h-5.4c-5.6,0.8-5.1,5.8-5.1,5.8V403H44v-10.7c0,0,0.1-2.3,2-2.5h4.6"/>
	<line class="st1" x1="46.4" y1="614.6" x2="63.2" y2="614.6"/>
	<line class="st1" x1="64.6" y1="847.8" x2="64.6" y2="862.2"/>
	<path class="st1" d="M123.2,350.8c-4.4,4-13.5,9.5-19.1,11.6l-1.3-3"/>
	<path class="st1" d="M73.7,358c18-0.4,43.4-10.5,50.7-22.6"/>
	<path class="st1" d="M65.1,364.5c2.2,0.3,7.1,0.6,9.3,0.5"/>
	<path class="st1" d="M24.2,340.3c9.5,11.1,29.7,20.7,44.2,21.1"/>
	<path class="st1" d="M80.4,361.4c14.6-0.4,34.6-10,44-21.1"/>
	<path class="st1" d="M74.4,365c2.3,0,7-0.2,9.3-0.5"/>
	<path class="st1" d="M74.4,361.7c1.5,0,4.5-0.1,6-0.3"/>
	<path class="st1" d="M68.5,361.4c1.5,0.1,4.5,0.3,6,0.3"/>
	<path class="st1" d="M24.4,335.1c7.8,12.8,32.9,22.7,49.3,22.9"/>
	<path class="st1" d="M65.2,367.1c4.7,1.4,13.9,1.4,18.5,0"/>
	<path class="st1" d="M83.7,364.4c-0.2,0-0.4,0.3-0.4,0.5"/>
	<path class="st1" d="M65.6,364.9c0-0.2-0.1-0.5-0.4-0.5"/>
	<path class="st1" d="M25.7,350.8c4.4,4,13.5,9.5,19.1,11.6l1.3-3"/>
	<path class="st1" d="M24.4,342.1c1.4,2.5,2,6.2,1.4,8.8"/>
	<path class="st1" d="M83.7,364.4c12.4-0.9,30.6-9.2,39.4-18"/>
	<path class="st1" d="M83.7,364.4c-0.2,0-0.4,0.3-0.4,0.5"/>
	<line class="st1" x1="83.3" y1="364.9" x2="83.5" y2="366.7"/>
	<line class="st1" x1="83.3" y1="364.9" x2="83.5" y2="366.7"/>
	<path class="st1" d="M25.8,346.4c8.8,8.8,27,17.2,39.4,18"/>
	<path class="st1" d="M124.4,342.3c-1.2,2.5-1.8,6.1-1.3,8.5"/>
	<line class="st1" x1="83.6" y1="367.2" x2="83.3" y2="364.9"/>
	<line class="st1" x1="65.3" y1="366.7" x2="65.6" y2="364.9"/>
	<line class="st1" x1="65.3" y1="366.7" x2="65.6" y2="364.9"/>
	<line class="st1" x1="65.3" y1="367.2" x2="65.6" y2="364.9"/>
	<path class="st1" d="M65.6,364.9c0-0.2-0.1-0.5-0.4-0.5"/>
	<rect x="97.8" y="489" class="st1" width="14.3" height="47.7"/>
	<line class="st1" x1="89.2" y1="1154.3" x2="74.5" y2="1159.6"/>
	<line class="st3" x1="54.9" y1="712.2" x2="59.3" y2="713.1"/>
	<line class="st4" x1="55.2" y1="711.2" x2="59.6" y2="712.2"/>
	<line class="st5" x1="55.7" y1="710.5" x2="59.8" y2="711.5"/>
	<line class="st6" x1="56.1" y1="709.4" x2="60.4" y2="710.5"/>
	<line class="st7" x1="56.5" y1="708.4" x2="60.8" y2="709.9"/>
	<path class="st8" d="M19.7,745.3h0.8c0.9,0,1.8,0.4,1.8,1.4v0c0,0.7-0.4,1.1-0.8,1.3c0.5,0.2,0.9,0.5,0.9,1.2v0.1
		c0,1-0.8,1.6-1.9,1.6h-0.9C19.7,750.9,19.7,745.3,19.7,745.3z M20.7,747.7c0.4,0,0.7-0.2,0.7-0.7v0c0-0.5-0.3-0.7-0.7-0.7h0
		L20.7,747.7L20.7,747.7z M20.7,750c0.4,0,0.8-0.3,0.8-0.7v0c0-0.5-0.3-0.7-0.8-0.7h0L20.7,750L20.7,750L20.7,750z M22.8,745.3h1
		c1,0,1.7,0.5,1.7,1.8v0.1c0,0.7-0.3,1.2-0.7,1.5l0.8,2.3h-1l-0.6-2h-0.2v2h-1C22.8,750.9,22.8,745.3,22.8,745.3z M23.9,748.1
		c0.4,0,0.7-0.2,0.7-0.9v-0.1c0-0.7-0.3-0.9-0.8-0.9h0L23.9,748.1L23.9,748.1z M26,745.3h2.1v0.9H27v1.4h1v0.9h-1v1.4h1.2v0.9H26
		L26,745.3L26,745.3z M29.4,745.3h1l1.1,5.6h-1l-0.2-1.1h-0.9l-0.2,1.1h-0.9L29.4,745.3z M30.2,748.9l-0.3-1.8l-0.3,1.8H30.2z
		 M31.8,745.3h1v2.3l0.8-2.3h1.1l-0.9,2.4l1,3.2h-1.1l-0.6-2.1l-0.2,0.6v1.5h-1L31.8,745.3L31.8,745.3z M35.7,745.3h1l1.1,5.6h-1
		l-0.2-1.1h-0.9l-0.2,1.1h-0.9L35.7,745.3z M36.5,748.9l-0.3-1.8l-0.3,1.8H36.5z M37.8,745.3h1l0.4,3.4l0.5-3.4h0.9l0.5,3.4l0.4-3.4
		h1l-0.8,5.6h-1l-0.5-3.3l-0.5,3.3h-1L37.8,745.3z M43.5,745.3h1l1.1,5.6h-1l-0.2-1.1h-0.9l-0.2,1.1h-0.9L43.5,745.3z M44.3,748.9
		l-0.3-1.8l-0.3,1.8H44.3z M46.4,748.7l-1-3.4h1l0.5,2.1l0.5-2.1h1l-1,3.4v2.2h-1L46.4,748.7L46.4,748.7z M25.7,756.2V756
		c0-2,0.7-2.7,1.6-2.7c0.3,0,0.4,0,0.6,0.1v1c-0.2-0.1-0.4-0.2-0.5-0.2c-0.4,0-0.7,0.4-0.7,1.8v0.2c0,1.5,0.3,1.8,0.8,1.8
		c0.2,0,0.3-0.1,0.5-0.2v1c-0.2,0.1-0.4,0.2-0.7,0.2C26.3,759,25.7,758.2,25.7,756.2z M29.2,753.3h1l1.1,5.6h-1l-0.2-1.1h-0.9
		l-0.2,1.1h-0.9L29.2,753.3z M30,756.9l-0.3-1.8l-0.3,1.8H30z M31.5,758.7v-1c0.3,0.2,0.6,0.3,0.9,0.3c0.3,0,0.5-0.1,0.5-0.5v0
		c0-0.3-0.1-0.4-0.5-1c-0.7-0.8-0.9-1.1-0.9-1.8v0c0-0.9,0.6-1.5,1.4-1.5c0.4,0,0.6,0.1,0.9,0.2v1c-0.3-0.2-0.5-0.3-0.7-0.3
		c-0.3,0-0.5,0.2-0.5,0.5v0c0,0.3,0.1,0.4,0.5,0.9c0.8,0.9,0.9,1.2,0.9,1.9v0c0,0.9-0.6,1.5-1.4,1.5C32.1,759,31.8,758.9,31.5,758.7
		z M34.2,753.3h1v5.6h-1V753.3z M35.8,753.3h0.9l1,2.8v-2.8h1v5.6h-0.9l-1-3v3h-1C35.8,758.9,35.8,753.3,35.8,753.3z M39.1,756.3
		V756c0-1.8,0.6-2.7,1.5-2.7c0.9,0,1.5,0.9,1.5,2.7v0.3c0,1.8-0.6,2.7-1.5,2.7C39.7,759,39.1,758.1,39.1,756.3z M41.1,756.3V756
		c0-1.4-0.2-1.8-0.5-1.8s-0.5,0.4-0.5,1.8v0.3c0,1.4,0.2,1.8,0.5,1.8S41.1,757.7,41.1,756.3z"/>
	<path class="st8" d="M31.7,870.9h0.8c0.9,0,1.8,0.4,1.8,1.4v0c0,0.7-0.4,1.1-0.8,1.3c0.5,0.2,0.9,0.5,0.9,1.2v0.1
		c0,1-0.8,1.6-1.9,1.6h-0.9C31.7,876.5,31.7,870.9,31.7,870.9z M32.7,873.3c0.4,0,0.7-0.2,0.7-0.7v0c0-0.5-0.3-0.7-0.7-0.7h0
		L32.7,873.3L32.7,873.3z M32.7,875.6c0.4,0,0.8-0.3,0.8-0.7v0c0-0.5-0.3-0.7-0.8-0.7h0L32.7,875.6L32.7,875.6L32.7,875.6z
		 M34.9,870.9h1v4.7h1v0.9h-2V870.9z M37.3,870.9h1v5.6h-1V870.9z M38.8,876.3v-1c0.3,0.2,0.6,0.3,0.9,0.3c0.3,0,0.5-0.1,0.5-0.5v0
		c0-0.3-0.1-0.4-0.5-1c-0.7-0.8-0.9-1.1-0.9-1.8v0c0-0.9,0.6-1.5,1.4-1.5c0.4,0,0.6,0.1,0.9,0.2v1c-0.3-0.2-0.5-0.3-0.7-0.3
		c-0.3,0-0.5,0.2-0.5,0.5v0c0,0.3,0.1,0.4,0.5,0.9c0.8,0.9,0.9,1.2,0.9,1.9v0c0,0.9-0.6,1.5-1.4,1.5C39.4,876.6,39,876.5,38.8,876.3
		z M41.4,876.3v-1c0.3,0.2,0.6,0.3,0.9,0.3c0.3,0,0.5-0.1,0.5-0.5v0c0-0.3-0.1-0.4-0.5-1c-0.7-0.8-0.9-1.1-0.9-1.8v0
		c0-0.9,0.6-1.5,1.4-1.5c0.4,0,0.6,0.1,0.9,0.2v1c-0.3-0.2-0.5-0.3-0.7-0.3c-0.3,0-0.5,0.2-0.5,0.5v0c0,0.3,0.1,0.4,0.5,0.9
		c0.8,0.9,0.9,1.2,0.9,1.9v0c0,0.9-0.6,1.5-1.4,1.5C42,876.6,41.6,876.5,41.4,876.3z M30.7,882.9v-4h1v4.1c0,0.5,0.2,0.7,0.4,0.7
		s0.4-0.2,0.4-0.7v-4.1h1v4c0,1.2-0.6,1.7-1.4,1.7C31.3,884.6,30.7,884.1,30.7,882.9z M34,878.9h1v4.7h1v0.9h-2V878.9z M36.7,879.9
		H36v-0.9h2.4v0.9h-0.7v4.7h-1L36.7,879.9L36.7,879.9z M38.8,878.9h1c1,0,1.7,0.5,1.7,1.8v0.1c0,0.7-0.3,1.2-0.7,1.5l0.8,2.3h-1
		l-0.6-2h-0.2v2h-1V878.9z M39.8,881.7c0.4,0,0.7-0.2,0.7-0.9v-0.1c0-0.7-0.3-0.9-0.8-0.9h0L39.8,881.7L39.8,881.7z M42.7,878.9h1
		l1.1,5.6h-1l-0.2-1.1h-0.9l-0.2,1.1h-0.9L42.7,878.9z M43.5,882.5l-0.3-1.8l-0.3,1.8H43.5z M28.8,886.9h1v4.7h1v0.9h-2V886.9z
		 M30.9,889.9v-0.3c0-1.8,0.6-2.7,1.5-2.7c0.9,0,1.5,0.9,1.5,2.7v0.3c0,1.8-0.6,2.7-1.5,2.7C31.5,892.6,30.9,891.7,30.9,889.9z
		 M32.9,889.9v-0.3c0-1.4-0.2-1.8-0.5-1.8s-0.5,0.4-0.5,1.8v0.3c0,1.4,0.2,1.8,0.5,1.8S32.9,891.3,32.9,889.9z M34.4,890.9v-4h1v4.1
		c0,0.5,0.2,0.7,0.4,0.7s0.4-0.2,0.4-0.7v-4.1h1v4c0,1.2-0.6,1.7-1.4,1.7S34.4,892.1,34.4,890.9z M37.7,886.9h0.9l1,2.8v-2.8h1v5.6
		h-0.9l-1-3v3h-1C37.7,892.5,37.7,886.9,37.7,886.9z M41,889.8v-0.2c0-1.8,0.8-2.7,1.9-2.7c0.3,0,0.5,0.1,0.7,0.2v1
		c-0.2-0.1-0.5-0.2-0.7-0.2c-0.6,0-0.9,0.6-0.9,1.8v0.3c0,1.5,0.4,1.8,0.8,1.8c0,0,0,0,0.1,0v-1.4h-0.5v-0.9h1.4v3
		c-0.4,0.2-0.6,0.2-1,0.2C41.8,892.6,41,891.8,41,889.8z M44.4,886.9h2.1v0.9h-1.2v1.4h1v0.9h-1v1.4h1.2v0.9h-2.2
		C44.4,892.5,44.4,886.9,44.4,886.9z"/>
	<path class="st8" d="M53.3,875.5h0.8c0.9,0,1.8,0.4,1.8,1.4v0c0,0.7-0.4,1.1-0.8,1.3c0.5,0.2,0.9,0.5,0.9,1.2v0.1
		c0,1-0.8,1.6-1.9,1.6h-0.9V875.5z M54.2,877.9c0.4,0,0.7-0.2,0.7-0.7v0c0-0.5-0.3-0.7-0.7-0.7h0L54.2,877.9L54.2,877.9z
		 M54.2,880.2c0.4,0,0.8-0.3,0.8-0.7v0c0-0.5-0.3-0.7-0.8-0.7h0L54.2,880.2L54.2,880.2L54.2,880.2z M57.1,875.5h1l1.1,5.6h-1
		l-0.2-1.1h-0.9l-0.2,1.1h-0.9L57.1,875.5z M57.9,879.1l-0.3-1.8l-0.3,1.8H57.9z M59.5,875.5h1c1,0,1.7,0.5,1.7,1.8v0.1
		c0,0.7-0.3,1.2-0.7,1.5l0.8,2.3h-1l-0.6-2h-0.2v2h-1V875.5z M60.6,878.3c0.4,0,0.7-0.2,0.7-0.9v-0.1c0-0.7-0.3-0.9-0.8-0.9h0
		L60.6,878.3L60.6,878.3z M55.6,888.3l0.9-2.2c0.3-0.6,0.4-1,0.4-1.2c0-0.3-0.2-0.5-0.5-0.5c-0.3,0-0.5,0.1-0.7,0.2v-0.9
		c0.3-0.1,0.6-0.2,0.9-0.2c0.7,0,1.2,0.4,1.2,1.2v0c0,0.4-0.1,0.8-0.4,1.5l-0.8,1.9h1.2v1h-2.3V888.3z M58.7,884.6l-0.6,0.2v-1
		l0.9-0.3h0.7v5.6h-1C58.7,889.1,58.7,884.6,58.7,884.6z"/>
	<path class="st8" d="M52,602.9h1c1,0,1.7,0.5,1.7,1.8v0.1c0,0.7-0.3,1.2-0.7,1.5l0.8,2.3h-1l-0.6-2H53v2h-1V602.9z M53,605.7
		c0.4,0,0.7-0.2,0.7-0.9v-0.1c0-0.7-0.3-0.9-0.8-0.9h0L53,605.7L53,605.7L53,605.7z M55.2,602.9h1c1,0,1.7,0.5,1.7,1.8v0.1
		c0,0.7-0.3,1.2-0.7,1.5l0.8,2.3h-1l-0.6-2h-0.2v2h-1L55.2,602.9L55.2,602.9z M56.2,605.7c0.4,0,0.7-0.2,0.7-0.9v-0.1
		c0-0.7-0.3-0.9-0.8-0.9h0L56.2,605.7L56.2,605.7L56.2,605.7z"/>
	<path class="st8" d="M52,617.6h1c1,0,1.7,0.5,1.7,1.8v0.1c0,0.7-0.3,1.2-0.7,1.5l0.8,2.3h-1l-0.6-2H53v2h-1V617.6z M53,620.4
		c0.4,0,0.7-0.2,0.7-0.9v-0.1c0-0.7-0.3-0.9-0.8-0.9h0L53,620.4L53,620.4z M55.2,617.6h1c1,0,1.7,0.5,1.7,1.8v0.1
		c0,0.7-0.3,1.2-0.7,1.5l0.8,2.3h-1l-0.6-2h-0.2v2h-1L55.2,617.6L55.2,617.6z M56.2,620.4c0.4,0,0.7-0.2,0.7-0.9v-0.1
		c0-0.7-0.3-0.9-0.8-0.9h0L56.2,620.4L56.2,620.4z"/>
	<path class="st8" d="M66.7,714.5v-0.3c0-1.8,0.6-2.7,1.5-2.7c0.9,0,1.5,0.9,1.5,2.7v0.3c0,1.8-0.6,2.7-1.5,2.7
		C67.3,717.3,66.7,716.4,66.7,714.5z M68.7,714.5v-0.3c0-1.4-0.2-1.8-0.5-1.8s-0.5,0.4-0.5,1.8v0.3c0,1.4,0.2,1.8,0.5,1.8
		S68.7,716,68.7,714.5z M70.2,711.6H71c1.1,0,1.8,0.6,1.8,1.9v0c0,1.3-0.7,1.9-1.7,1.9h0v1.8h-1V711.6z M71.1,714.5
		c0.4,0,0.7-0.3,0.7-1v0c0-0.7-0.3-1-0.7-1h0L71.1,714.5L71.1,714.5L71.1,714.5z M73.2,711.6h2.1v0.9h-1.2v1.4h1v0.9h-1v1.4h1.2v0.9
		h-2.2V711.6z M75.9,711.6h0.9l1,2.8v-2.8h1v5.6h-0.9l-1-3v3h-1V711.6z M81.1,712.5h-0.7v-0.9h2.4v0.9h-0.7v4.7h-1L81.1,712.5
		L81.1,712.5L81.1,712.5z M82.9,714.5v-0.3c0-1.8,0.6-2.7,1.5-2.7s1.5,0.9,1.5,2.7v0.3c0,1.8-0.6,2.7-1.5,2.7S82.9,716.4,82.9,714.5
		z M84.9,714.5v-0.3c0-1.4-0.2-1.8-0.5-1.8s-0.5,0.4-0.5,1.8v0.3c0,1.4,0.2,1.8,0.5,1.8S84.9,716,84.9,714.5z M62,719.6h0.9
		c1.2,0,2,0.9,2,2.7v0.2c0,1.8-0.7,2.7-2,2.7H62C62,725.2,62,719.6,62,719.6z M63,724.3c0.5,0,0.9-0.4,0.9-1.8v-0.2
		c0-1.4-0.4-1.8-0.9-1.8h0L63,724.3L63,724.3z M65.4,719.6h2.1v0.9h-1.2v1.4h1v0.9h-1v1.4h1.2v0.9h-2.2V719.6z M67.8,722.5v-0.2
		c0-2,0.7-2.7,1.6-2.7c0.3,0,0.4,0,0.6,0.1v1c-0.2-0.1-0.4-0.2-0.5-0.2c-0.4,0-0.7,0.4-0.7,1.8v0.2c0,1.5,0.3,1.8,0.8,1.8
		c0.2,0,0.3-0.1,0.5-0.2v1c-0.2,0.1-0.4,0.2-0.7,0.2C68.5,725.2,67.8,724.4,67.8,722.5z M70.6,719.6h1v2.3l0.8-2.3h1.1l-0.9,2.4
		l1,3.2h-1.1l-0.6-2.1l-0.2,0.6v1.5h-1L70.6,719.6L70.6,719.6z M75.1,719.6H76c0.9,0,1.8,0.4,1.8,1.4v0c0,0.7-0.4,1.1-0.8,1.3
		c0.5,0.2,0.9,0.5,0.9,1.2v0.1c0,1-0.8,1.6-1.9,1.6h-0.9C75.1,725.2,75.1,719.6,75.1,719.6z M76.1,722c0.4,0,0.7-0.2,0.7-0.7v0
		c0-0.5-0.3-0.7-0.7-0.7h0L76.1,722L76.1,722z M76.1,724.3c0.4,0,0.8-0.3,0.8-0.7v0c0-0.5-0.3-0.7-0.8-0.7h0L76.1,724.3L76.1,724.3
		L76.1,724.3z M78.3,719.6h2.1v0.9h-1.2v1.4h1v0.9h-1v1.4h1.2v0.9h-2.2V719.6z M80.9,719.6h1v4.7h1v0.9h-2
		C80.9,725.2,80.9,719.6,80.9,719.6z M83,722.5v-0.3c0-1.8,0.6-2.7,1.5-2.7s1.5,0.9,1.5,2.7v0.3c0,1.8-0.6,2.7-1.5,2.7
		C83.6,725.3,83,724.4,83,722.5z M85,722.5v-0.3c0-1.4-0.2-1.8-0.5-1.8s-0.5,0.4-0.5,1.8v0.3c0,1.4,0.2,1.8,0.5,1.8S85,724,85,722.5
		z M86.1,719.6h1l0.4,3.4l0.5-3.4h0.9l0.5,3.4l0.4-3.4h1l-0.8,5.6h-1l-0.5-3.3l-0.5,3.3h-1L86.1,719.6z"/>
	<path class="st8" d="M84.7,564.5v-0.3c0-1.8,0.6-2.7,1.5-2.7s1.5,0.9,1.5,2.7v0.3c0,1.8-0.6,2.7-1.5,2.7S84.7,566.4,84.7,564.5z
		 M86.7,564.5v-0.3c0-1.4-0.2-1.8-0.5-1.8s-0.5,0.4-0.5,1.8v0.3c0,1.4,0.2,1.8,0.5,1.8S86.7,566,86.7,564.5z M88.2,561.6H89
		c1.1,0,1.8,0.6,1.8,1.9v0c0,1.3-0.7,1.9-1.7,1.9h0v1.8h-1V561.6z M89.1,564.5c0.4,0,0.7-0.3,0.7-1v0c0-0.7-0.3-1-0.7-1h0
		L89.1,564.5L89.1,564.5L89.1,564.5z M91.2,561.6h2.1v0.9h-1.2v1.4h1v0.9h-1v1.4h1.2v0.9h-2.2V561.6z M93.9,561.6h0.9l1,2.8v-2.8h1
		v5.6h-0.9l-1-3v3h-1L93.9,561.6L93.9,561.6z M99.1,562.5h-0.7v-0.9h2.4v0.9h-0.7v4.7h-1L99.1,562.5L99.1,562.5z M100.9,564.5v-0.3
		c0-1.8,0.6-2.7,1.5-2.7c0.9,0,1.5,0.9,1.5,2.7v0.3c0,1.8-0.6,2.7-1.5,2.7C101.5,567.3,100.9,566.4,100.9,564.5z M102.9,564.5v-0.3
		c0-1.4-0.2-1.8-0.5-1.8s-0.5,0.4-0.5,1.8v0.3c0,1.4,0.2,1.8,0.5,1.8S102.9,566,102.9,564.5z M80,569.6h0.9c1.2,0,2,0.9,2,2.7v0.2
		c0,1.8-0.7,2.7-2,2.7H80V569.6z M81,574.3c0.5,0,0.9-0.4,0.9-1.8v-0.2c0-1.4-0.4-1.8-0.9-1.8h0L81,574.3L81,574.3z M83.4,569.6h2.1
		v0.9h-1.2v1.4h1v0.9h-1v1.4h1.2v0.9h-2.2V569.6z M85.8,572.5v-0.2c0-2,0.7-2.7,1.6-2.7c0.3,0,0.4,0,0.6,0.1v1
		c-0.2-0.1-0.4-0.2-0.5-0.2c-0.4,0-0.7,0.4-0.7,1.8v0.2c0,1.5,0.3,1.8,0.8,1.8c0.2,0,0.3-0.1,0.5-0.2v1c-0.2,0.1-0.4,0.2-0.7,0.2
		C86.5,575.2,85.8,574.4,85.8,572.5z M88.6,569.6h1v2.3l0.8-2.3h1.1l-0.9,2.4l1,3.2h-1.1l-0.6-2.1l-0.2,0.6v1.5h-1L88.6,569.6
		L88.6,569.6z M93.1,569.6H94c0.9,0,1.8,0.4,1.8,1.4v0c0,0.7-0.4,1.1-0.8,1.3c0.5,0.2,0.9,0.5,0.9,1.2v0.1c0,1-0.8,1.6-1.9,1.6h-0.9
		V569.6z M94.1,572c0.4,0,0.7-0.2,0.7-0.7v0c0-0.5-0.3-0.7-0.7-0.7h0L94.1,572L94.1,572z M94.1,574.3c0.4,0,0.8-0.3,0.8-0.7v0
		c0-0.5-0.3-0.7-0.8-0.7h0L94.1,574.3L94.1,574.3L94.1,574.3z M96.3,569.6h2.1v0.9h-1.2v1.4h1v0.9h-1v1.4h1.2v0.9h-2.2V569.6z
		 M98.9,569.6h1v4.7h1v0.9h-2C98.9,575.2,98.9,569.6,98.9,569.6z M101,572.5v-0.3c0-1.8,0.6-2.7,1.5-2.7s1.5,0.9,1.5,2.7v0.3
		c0,1.8-0.6,2.7-1.5,2.7S101,574.4,101,572.5z M103,572.5v-0.3c0-1.4-0.2-1.8-0.5-1.8s-0.5,0.4-0.5,1.8v0.3c0,1.4,0.2,1.8,0.5,1.8
		S103,574,103,572.5z M104.1,569.6h1l0.4,3.4l0.5-3.4h0.9l0.5,3.4l0.4-3.4h1l-0.8,5.6h-1l-0.5-3.3l-0.5,3.3h-1L104.1,569.6z"/>
	<path class="st8" d="M38.1,548.9v-0.3c0-1.8,0.6-2.7,1.5-2.7s1.5,0.9,1.5,2.7v0.3c0,1.8-0.6,2.7-1.5,2.7S38.1,550.8,38.1,548.9z
		 M40.1,548.9v-0.3c0-1.4-0.2-1.8-0.5-1.8s-0.5,0.4-0.5,1.8v0.3c0,1.4,0.2,1.8,0.5,1.8S40.1,550.4,40.1,548.9z M41.4,548
		c0.6-0.1,0.7-0.6,0.7-0.9h-0.5V546h1.1v0.9c0,0.8-0.4,1.4-1.2,1.5L41.4,548z M43.2,551.4v-1c0.3,0.2,0.6,0.3,0.9,0.3
		c0.3,0,0.5-0.1,0.5-0.5v0c0-0.3-0.1-0.4-0.5-1c-0.7-0.8-0.9-1.1-0.9-1.8v0c0-0.9,0.6-1.5,1.4-1.5c0.4,0,0.6,0.1,0.9,0.2v1
		c-0.3-0.2-0.5-0.3-0.7-0.3c-0.3,0-0.5,0.2-0.5,0.5v0c0,0.3,0.1,0.4,0.5,0.9c0.8,0.9,0.9,1.2,0.9,1.9v0c0,0.9-0.6,1.5-1.4,1.5
		C43.8,551.6,43.5,551.5,43.2,551.4z M45.9,546h1v2.3h0.8V546h1v5.6h-1v-2.4h-0.8v2.4h-1V546z M49.3,546h2.1v0.9h-1.2v1.4h1v0.9h-1
		v1.4h1.2v0.9h-2.2V546z M51.9,546h2.1v0.9h-1.2v1.4h1v0.9h-1v1.4h1.2v0.9h-2.2V546z M54.6,546h1v2.3h0.8V546h1v5.6h-1v-2.4h-0.8
		v2.4h-1L54.6,546L54.6,546z M58.7,546h1l1.1,5.6h-1l-0.2-1.1h-0.9l-0.2,1.1h-0.9L58.7,546z M59.5,549.6l-0.3-1.8l-0.3,1.8H59.5z
		 M61.1,546h0.9l1,2.8V546h1v5.6h-0.9l-1-3v3h-1C61.1,551.6,61.1,546,61.1,546z M64.5,548c0.6-0.1,0.7-0.6,0.7-0.9h-0.5V546h1.1v0.9
		c0,0.8-0.4,1.4-1.2,1.5L64.5,548z M66.3,551.4v-1c0.3,0.2,0.6,0.3,0.9,0.3c0.3,0,0.5-0.1,0.5-0.5v0c0-0.3-0.1-0.4-0.5-1
		c-0.7-0.8-0.9-1.1-0.9-1.8v0c0-0.9,0.6-1.5,1.4-1.5c0.4,0,0.6,0.1,0.9,0.2v1c-0.3-0.2-0.5-0.3-0.7-0.3c-0.3,0-0.5,0.2-0.5,0.5v0
		c0,0.3,0.1,0.4,0.5,0.9c0.8,0.9,0.9,1.2,0.9,1.9v0c0,0.9-0.6,1.5-1.4,1.5C66.9,551.6,66.5,551.5,66.3,551.4z M34.9,554h0.9l1,2.8
		V554h1v5.6h-0.9l-1-3v3h-1V554z M38.3,554h2.1v0.9h-1.2v1.4h1v0.9h-1v1.4h1.2v0.9h-2.2V554z M40.9,554h1v5.6h-1V554z M42.4,556.9
		v-0.2c0-1.8,0.8-2.7,1.9-2.7c0.3,0,0.5,0.1,0.7,0.2v1c-0.2-0.1-0.5-0.2-0.7-0.2c-0.6,0-0.9,0.6-0.9,1.8v0.3c0,1.5,0.4,1.8,0.8,1.8
		c0,0,0,0,0.1,0v-1.4h-0.5v-0.9h1.4v3c-0.4,0.2-0.6,0.2-1,0.2C43.2,559.6,42.4,558.8,42.4,556.9z M45.8,554h1v2.3h0.8V554h1v5.6h-1
		v-2.4h-0.8v2.4h-1L45.8,554L45.8,554z M49.1,554H50c0.9,0,1.8,0.4,1.8,1.4v0c0,0.7-0.4,1.1-0.8,1.3c0.5,0.2,0.9,0.5,0.9,1.2v0.1
		c0,1-0.8,1.6-1.9,1.6h-0.9L49.1,554L49.1,554z M50.1,556.3c0.4,0,0.7-0.2,0.7-0.7v0c0-0.5-0.3-0.7-0.7-0.7h0L50.1,556.3L50.1,556.3
		z M50.1,558.7c0.4,0,0.8-0.3,0.8-0.7v0c0-0.5-0.3-0.7-0.8-0.7h0L50.1,558.7L50.1,558.7L50.1,558.7z M52.2,556.9v-0.3
		c0-1.8,0.6-2.7,1.5-2.7s1.5,0.9,1.5,2.7v0.3c0,1.8-0.6,2.7-1.5,2.7S52.2,558.8,52.2,556.9z M54.2,556.9v-0.3c0-1.4-0.2-1.8-0.5-1.8
		s-0.5,0.4-0.5,1.8v0.3c0,1.4,0.2,1.8,0.5,1.8S54.2,558.4,54.2,556.9z M55.6,554h1c1,0,1.7,0.5,1.7,1.8v0.1c0,0.7-0.3,1.2-0.7,1.5
		l0.8,2.3h-1l-0.6-2h-0.2v2h-1L55.6,554L55.6,554z M56.7,556.7c0.4,0,0.7-0.2,0.7-0.9v-0.1c0-0.7-0.3-0.9-0.8-0.9h0L56.7,556.7
		L56.7,556.7L56.7,556.7z M58.8,554h1v2.3h0.8V554h1v5.6h-1v-2.4h-0.8v2.4h-1C58.8,559.6,58.8,554,58.8,554z M62.1,556.9v-0.3
		c0-1.8,0.6-2.7,1.5-2.7c0.9,0,1.5,0.9,1.5,2.7v0.3c0,1.8-0.6,2.7-1.5,2.7S62.1,558.8,62.1,556.9z M64.1,556.9v-0.3
		c0-1.4-0.2-1.8-0.5-1.8s-0.5,0.4-0.5,1.8v0.3c0,1.4,0.2,1.8,0.5,1.8S64.1,558.4,64.1,556.9z M65.5,556.9v-0.3
		c0-1.8,0.6-2.7,1.5-2.7s1.5,0.9,1.5,2.7v0.3c0,1.8-0.6,2.7-1.5,2.7S65.5,558.8,65.5,556.9z M67.4,556.9v-0.3c0-1.4-0.2-1.8-0.5-1.8
		s-0.5,0.4-0.5,1.8v0.3c0,1.4,0.2,1.8,0.5,1.8S67.4,558.4,67.4,556.9z M68.9,554h0.9c1.2,0,2,0.9,2,2.7v0.2c0,1.8-0.7,2.7-2,2.7
		h-0.9V554z M69.9,558.7c0.5,0,0.9-0.4,0.9-1.8v-0.2c0-1.4-0.4-1.8-0.9-1.8h0L69.9,558.7L69.9,558.7z M39.4,562h0.8
		c0.9,0,1.8,0.4,1.8,1.4v0c0,0.7-0.4,1.1-0.8,1.3c0.5,0.2,0.9,0.5,0.9,1.2v0.1c0,1-0.8,1.6-1.9,1.6h-0.9L39.4,562L39.4,562z
		 M40.4,564.3c0.4,0,0.7-0.2,0.7-0.7v0c0-0.5-0.3-0.7-0.7-0.7h0L40.4,564.3L40.4,564.3z M40.4,566.7c0.4,0,0.8-0.3,0.8-0.7v0
		c0-0.5-0.3-0.7-0.8-0.7h0L40.4,566.7L40.4,566.7L40.4,566.7z M43.3,562h1l1.1,5.6h-1l-0.2-1.1h-0.9l-0.2,1.1h-0.9L43.3,562z
		 M44.1,565.6l-0.3-1.8l-0.3,1.8H44.1z M45.7,562h1c1,0,1.7,0.5,1.7,1.8v0.1c0,0.7-0.3,1.2-0.7,1.5l0.8,2.3h-1l-0.6-2h-0.2v2h-1
		L45.7,562L45.7,562z M46.7,564.7c0.4,0,0.7-0.2,0.7-0.9v-0.1c0-0.7-0.3-0.9-0.8-0.9h0L46.7,564.7L46.7,564.7L46.7,564.7z M50,566.1
		L50,566.1c0-0.7,0.3-1.2,0.9-1.7c-0.3-0.5-0.5-0.9-0.5-1.3v-0.1c0-0.7,0.5-1.2,1.2-1.2c0.7,0,1.1,0.5,1.1,1.2v0.1
		c0,0.6-0.3,1.1-0.8,1.5l0.5,1c0-0.2,0.1-0.4,0.1-0.8l0.8,0.1c-0.1,0.6-0.2,1.1-0.4,1.4l0.5,0.8l-0.7,0.4l-0.3-0.5
		c-0.3,0.3-0.6,0.5-1,0.5C50.6,567.6,50,567,50,566.1z M52,566.5l-0.7-1.4c-0.2,0.3-0.3,0.6-0.3,0.9v0.1c0,0.4,0.2,0.7,0.5,0.7
		C51.7,566.8,51.8,566.7,52,566.5z M51.5,564c0.2-0.2,0.3-0.5,0.3-0.8v-0.1c0-0.3-0.1-0.4-0.3-0.4c-0.2,0-0.3,0.2-0.3,0.4v0.1
		C51.2,563.4,51.3,563.6,51.5,564z M54.8,564.9v-0.2c0-1.8,0.8-2.7,1.9-2.7c0.3,0,0.5,0.1,0.7,0.2v1c-0.2-0.1-0.5-0.2-0.7-0.2
		c-0.6,0-0.9,0.6-0.9,1.8v0.3c0,1.5,0.4,1.8,0.8,1.8c0,0,0,0,0.1,0v-1.4h-0.5v-0.9h1.4v3c-0.4,0.2-0.6,0.2-1,0.2
		C55.6,567.6,54.8,566.8,54.8,564.9z M58.2,562h1c1,0,1.7,0.5,1.7,1.8v0.1c0,0.7-0.3,1.2-0.7,1.5l0.8,2.3h-1l-0.6-2h-0.2v2h-1
		C58.2,567.6,58.2,562,58.2,562z M59.2,564.7c0.4,0,0.7-0.2,0.7-0.9v-0.1c0-0.7-0.3-0.9-0.8-0.9h0L59.2,564.7L59.2,564.7L59.2,564.7
		z M61.4,562h1v5.6h-1V562z M62.9,562h1v4.7h1v0.9h-2V562z M65.3,562h1v4.7h1v0.9h-2L65.3,562L65.3,562z"/>
	<path class="st8" d="M49.2,1063.2h-0.7v-0.9h2.4v0.9h-0.7v4.7h-1L49.2,1063.2L49.2,1063.2z M51.3,1062.3h1v2.3h0.8v-2.3h1v5.6h-1
		v-2.4h-0.8v2.4h-1V1062.3z M54.7,1062.3h2.1v0.9h-1.2v1.4h1v0.9h-1v1.4h1.2v0.9h-2.2C54.7,1067.9,54.7,1062.3,54.7,1062.3z
		 M58.6,1062.3h1l0.7,2l0.7-2h1v5.6H61v-3.4l-0.7,2.1h0l-0.7-2.1v3.4h-0.9L58.6,1062.3L58.6,1062.3z M63.3,1062.3h1l1.1,5.6h-1
		l-0.2-1.1h-0.9l-0.2,1.1h-0.9L63.3,1062.3z M64.1,1065.9l-0.3-1.8l-0.3,1.8H64.1z M65.7,1062.3h0.9l1,2.8v-2.8h1v5.6h-0.9l-1-3v3
		h-1L65.7,1062.3L65.7,1062.3z M69.1,1062.3h1v2.3h0.8v-2.3h1v5.6h-1v-2.4h-0.8v2.4h-1L69.1,1062.3L69.1,1062.3z M73.3,1062.3h1
		l1.1,5.6h-1l-0.2-1.1h-0.9l-0.2,1.1h-0.9L73.3,1062.3z M74.1,1065.9l-0.3-1.8l-0.3,1.8H74.1z M75.9,1063.2h-0.7v-0.9h2.4v0.9h-0.7
		v4.7h-1L75.9,1063.2L75.9,1063.2z M78.5,1063.2h-0.7v-0.9h2.4v0.9h-0.7v4.7h-1L78.5,1063.2L78.5,1063.2z M81.1,1062.3h1l1.1,5.6h-1
		l-0.2-1.1h-0.9l-0.2,1.1h-0.9L81.1,1062.3z M81.9,1065.9l-0.3-1.8l-0.3,1.8H81.9z M83.5,1062.3h0.9l1,2.8v-2.8h1v5.6h-0.9l-1-3v3
		h-1C83.5,1067.9,83.5,1062.3,83.5,1062.3z M88.2,1062.3h1c1,0,1.7,0.5,1.7,1.8v0.1c0,0.7-0.3,1.2-0.7,1.5l0.8,2.3h-1l-0.6-2h-0.2v2
		h-1V1062.3z M89.3,1065c0.4,0,0.7-0.2,0.7-0.9v-0.1c0-0.7-0.3-0.9-0.8-0.9h0L89.3,1065L89.3,1065z M91.3,1065.2v-0.3
		c0-1.8,0.6-2.7,1.5-2.7c0.9,0,1.5,0.9,1.5,2.7v0.3c0,1.8-0.6,2.7-1.5,2.7C91.9,1068,91.3,1067.1,91.3,1065.2z M93.3,1065.2v-0.3
		c0-1.4-0.2-1.8-0.5-1.8s-0.5,0.4-0.5,1.8v0.3c0,1.4,0.2,1.8,0.5,1.8S93.3,1066.7,93.3,1065.2z M94.7,1065.2v-0.3
		c0-1.8,0.6-2.7,1.5-2.7c0.9,0,1.5,0.9,1.5,2.7v0.3c0,1.8-0.6,2.7-1.5,2.7C95.3,1068,94.7,1067.1,94.7,1065.2z M96.7,1065.2v-0.3
		c0-1.4-0.2-1.8-0.5-1.8s-0.5,0.4-0.5,1.8v0.3c0,1.4,0.2,1.8,0.5,1.8S96.7,1066.7,96.7,1065.2z M98.1,1062.3h1l0.7,2l0.7-2h1v5.6
		h-0.9v-3.4l-0.7,2.1h0l-0.7-2.1v3.4h-0.9L98.1,1062.3L98.1,1062.3z M60.6,1070.3h1c1,0,1.7,0.5,1.7,1.8v0.1c0,0.7-0.3,1.2-0.7,1.5
		l0.8,2.3h-1l-0.6-2h-0.2v2h-1V1070.3z M61.6,1073c0.4,0,0.7-0.2,0.7-0.9v-0.1c0-0.7-0.3-0.9-0.8-0.9h0L61.6,1073L61.6,1073z
		 M63.8,1070.3h2.1v0.9h-1.2v1.4h1v0.9h-1v1.4H66v0.9h-2.2L63.8,1070.3L63.8,1070.3z M66.3,1075.7v-1c0.3,0.2,0.6,0.3,0.9,0.3
		c0.3,0,0.5-0.1,0.5-0.5v0c0-0.3-0.1-0.4-0.5-1c-0.7-0.8-0.9-1.1-0.9-1.8v0c0-0.9,0.6-1.5,1.4-1.5c0.4,0,0.6,0.1,0.9,0.2v1
		c-0.3-0.2-0.5-0.3-0.7-0.3c-0.3,0-0.5,0.2-0.5,0.5v0c0,0.3,0.1,0.4,0.5,0.9c0.8,0.9,0.9,1.2,0.9,1.9v0c0,0.9-0.6,1.5-1.4,1.5
		C66.9,1075.9,66.6,1075.8,66.3,1075.7z M69.4,1071.2h-0.7v-0.9h2.4v0.9h-0.7v4.7h-1V1071.2z M72.1,1070.3h1l1.1,5.6h-1l-0.2-1.1
		h-0.9l-0.2,1.1H71L72.1,1070.3z M72.9,1073.9l-0.3-1.8l-0.3,1.8H72.9z M74.4,1074.2v-4h1v4.1c0,0.5,0.2,0.7,0.4,0.7
		s0.4-0.2,0.4-0.7v-4.1h1v4c0,1.2-0.6,1.7-1.4,1.7S74.4,1075.4,74.4,1074.2z M77.7,1070.3h1c1,0,1.7,0.5,1.7,1.8v0.1
		c0,0.7-0.3,1.2-0.7,1.5l0.8,2.3h-1l-0.6-2h-0.2v2h-1L77.7,1070.3L77.7,1070.3z M78.8,1073c0.4,0,0.7-0.2,0.7-0.9v-0.1
		c0-0.7-0.3-0.9-0.8-0.9h0L78.8,1073L78.8,1073z M81.7,1070.3h1l1.1,5.6h-1l-0.2-1.1h-0.9l-0.2,1.1h-0.9L81.7,1070.3z M82.5,1073.9
		l-0.3-1.8l-0.3,1.8H82.5z M84.1,1070.3H85l1,2.8v-2.8h1v5.6h-0.9l-1-3v3h-1L84.1,1070.3L84.1,1070.3z M88.1,1071.2h-0.7v-0.9h2.4
		v0.9H89v4.7h-1L88.1,1071.2L88.1,1071.2z"/>
	<path class="st8" d="M102.8,899.4v-1c0.3,0.2,0.6,0.3,0.9,0.3c0.3,0,0.5-0.1,0.5-0.5v0c0-0.3-0.1-0.4-0.5-1
		c-0.7-0.8-0.9-1.1-0.9-1.8v0c0-0.9,0.6-1.5,1.4-1.5c0.4,0,0.6,0.1,0.9,0.2v1c-0.3-0.2-0.5-0.3-0.7-0.3c-0.3,0-0.5,0.2-0.5,0.5v0
		c0,0.3,0.1,0.4,0.5,0.9c0.8,0.9,0.9,1.2,0.9,1.9v0c0,0.9-0.6,1.5-1.4,1.5C103.4,899.7,103.1,899.6,102.8,899.4z M105.5,894h1v2.3
		h0.8V894h1v5.6h-1v-2.4h-0.8v2.4h-1V894z M109.7,894h1l1.1,5.6h-1l-0.2-1.1h-0.9l-0.2,1.1h-0.9L109.7,894z M110.5,897.6l-0.3-1.8
		l-0.3,1.8H110.5z M112.1,894h0.9l1,2.8V894h1v5.6h-0.9l-1-3v3h-1L112.1,894L112.1,894z M115.4,896.9v-0.2c0-1.8,0.8-2.7,1.9-2.7
		c0.3,0,0.5,0.1,0.7,0.2v1c-0.2-0.1-0.5-0.2-0.7-0.2c-0.6,0-0.9,0.6-0.9,1.8v0.3c0,1.5,0.4,1.8,0.8,1.8c0,0,0,0,0.1,0v-1.4h-0.5
		v-0.9h1.4v3c-0.4,0.2-0.6,0.2-1,0.2C116.2,899.7,115.4,898.9,115.4,896.9z M118.7,894h1v2.3h0.8V894h1v5.6h-1v-2.4h-0.8v2.4h-1V894
		z M122.9,894h1l1.1,5.6h-1l-0.2-1.1H123l-0.2,1.1h-0.9L122.9,894z M123.7,897.6l-0.3-1.8l-0.3,1.8H123.7z M125.3,894h1v5.6h-1V894z
		 M126.8,896.1c0.6-0.1,0.7-0.6,0.7-0.9H127V894h1.1v0.9c0,0.8-0.4,1.4-1.2,1.5L126.8,896.1z M128.6,899.4v-1
		c0.3,0.2,0.6,0.3,0.9,0.3c0.3,0,0.5-0.1,0.5-0.5v0c0-0.3-0.1-0.4-0.5-1c-0.7-0.8-0.9-1.1-0.9-1.8v0c0-0.9,0.6-1.5,1.4-1.5
		c0.4,0,0.6,0.1,0.9,0.2v1c-0.3-0.2-0.5-0.3-0.7-0.3c-0.3,0-0.5,0.2-0.5,0.5v0c0,0.3,0.1,0.4,0.5,0.9c0.8,0.9,0.9,1.2,0.9,1.9v0
		c0,0.9-0.6,1.5-1.4,1.5C129.2,899.7,128.8,899.6,128.6,899.4z M102.5,902h0.9l1,2.8V902h1v5.6h-0.9l-1-3v3h-1
		C102.5,907.6,102.5,902,102.5,902z M105.8,905v-0.3c0-1.8,0.6-2.7,1.5-2.7c0.9,0,1.5,0.9,1.5,2.7v0.3c0,1.8-0.6,2.7-1.5,2.7
		C106.4,907.7,105.8,906.8,105.8,905z M107.8,905v-0.3c0-1.4-0.2-1.8-0.5-1.8s-0.5,0.4-0.5,1.8v0.3c0,1.4,0.2,1.8,0.5,1.8
		S107.8,906.4,107.8,905z M109.1,905v-0.3c0-1.8,0.6-2.7,1.5-2.7c0.9,0,1.5,0.9,1.5,2.7v0.3c0,1.8-0.6,2.7-1.5,2.7
		S109.1,906.8,109.1,905z M111.1,905v-0.3c0-1.4-0.2-1.8-0.5-1.8s-0.5,0.4-0.5,1.8v0.3c0,1.4,0.2,1.8,0.5,1.8S111.1,906.4,111.1,905
		z M112.6,902h0.9c1.2,0,2,0.9,2,2.7v0.2c0,1.8-0.7,2.7-2,2.7h-0.9V902z M113.6,906.7c0.5,0,0.9-0.4,0.9-1.8v-0.2
		c0-1.4-0.4-1.8-0.9-1.8h0L113.6,906.7L113.6,906.7z M116,902h1v4.7h1v0.9h-2C116,907.6,116,902,116,902z M118.4,902h2.1v0.9h-1.2
		v1.4h1v0.9h-1v1.4h1.2v0.9h-2.2V902z M122.3,902h0.8c0.9,0,1.8,0.4,1.8,1.4v0c0,0.7-0.4,1.1-0.8,1.3c0.5,0.2,0.9,0.5,0.9,1.2v0.1
		c0,1-0.8,1.6-1.9,1.6h-0.9V902z M123.3,904.4c0.4,0,0.7-0.2,0.7-0.7v0c0-0.5-0.3-0.7-0.7-0.7h0L123.3,904.4L123.3,904.4z
		 M123.3,906.7c0.4,0,0.8-0.3,0.8-0.7v0c0-0.5-0.3-0.7-0.8-0.7h0L123.3,906.7L123.3,906.7L123.3,906.7z M126.2,902h1l1.1,5.6h-1
		l-0.2-1.1h-0.9l-0.2,1.1h-0.9L126.2,902z M127,905.6l-0.3-1.8l-0.3,1.8H127z M128.6,902h1c1,0,1.7,0.5,1.7,1.8v0.1
		c0,0.7-0.3,1.2-0.7,1.5l0.8,2.3h-1l-0.6-2h-0.2v2h-1L128.6,902L128.6,902z M129.6,904.8c0.4,0,0.7-0.2,0.7-0.9v-0.1
		c0-0.7-0.3-0.9-0.8-0.9h0L129.6,904.8L129.6,904.8z"/>
	<path class="st8" d="M126.8,467.8h1c1,0,1.7,0.5,1.7,1.8v0.1c0,0.7-0.3,1.2-0.7,1.5l0.8,2.3h-1l-0.6-2h-0.2v2h-1L126.8,467.8
		L126.8,467.8z M127.8,470.5c0.4,0,0.7-0.2,0.7-0.9v-0.1c0-0.7-0.3-0.9-0.8-0.9h0L127.8,470.5L127.8,470.5z M129.9,467.8h1
		c1,0,1.7,0.5,1.7,1.8v0.1c0,0.7-0.3,1.2-0.7,1.5l0.8,2.3h-1l-0.6-2h-0.2v2h-1L129.9,467.8L129.9,467.8z M131,470.5
		c0.4,0,0.7-0.2,0.7-0.9v-0.1c0-0.7-0.3-0.9-0.8-0.9h0L131,470.5L131,470.5z"/>
	<path class="st8" d="M41.6,464.7h1c1,0,1.7,0.5,1.7,1.8v0.1c0,0.7-0.3,1.2-0.7,1.5l0.8,2.3h-1l-0.6-2h-0.2v2h-1V464.7z M42.6,467.5
		c0.4,0,0.7-0.2,0.7-0.9v-0.1c0-0.7-0.3-0.9-0.8-0.9h0L42.6,467.5L42.6,467.5z M44.7,464.7h1c1,0,1.7,0.5,1.7,1.8v0.1
		c0,0.7-0.3,1.2-0.7,1.5l0.8,2.3h-1l-0.6-2h-0.2v2h-1V464.7z M45.8,467.5c0.4,0,0.7-0.2,0.7-0.9v-0.1c0-0.7-0.3-0.9-0.8-0.9h0
		L45.8,467.5L45.8,467.5z"/>
	<path class="st8" d="M107.9,409h0.8c0.9,0,1.8,0.4,1.8,1.4v0c0,0.7-0.4,1.1-0.8,1.3c0.5,0.2,0.9,0.5,0.9,1.2v0.1
		c0,1-0.8,1.6-1.9,1.6h-0.9V409z M108.9,411.3c0.4,0,0.7-0.2,0.7-0.7v0c0-0.5-0.3-0.7-0.7-0.7h0L108.9,411.3L108.9,411.3z
		 M108.9,413.7c0.4,0,0.8-0.3,0.8-0.7v0c0-0.5-0.3-0.7-0.8-0.7h0L108.9,413.7L108.9,413.7L108.9,413.7z M111,411.9v-0.3
		c0-1.8,0.6-2.7,1.5-2.7c0.9,0,1.5,0.9,1.5,2.7v0.3c0,1.8-0.6,2.7-1.5,2.7C111.6,414.7,111,413.8,111,411.9z M113,411.9v-0.3
		c0-1.4-0.2-1.8-0.5-1.8s-0.5,0.4-0.5,1.8v0.3c0,1.4,0.2,1.8,0.5,1.8S113,413.4,113,411.9z M115,411.7l-0.9-2.7h1l0.4,1.6l0.4-1.6h1
		l-0.9,2.7l0.9,2.9h-1l-0.5-1.7l-0.5,1.7h-1L115,411.7z M105,419.9v-0.3c0-1.8,0.6-2.7,1.5-2.7c0.9,0,1.5,0.9,1.5,2.7v0.3
		c0,1.8-0.6,2.7-1.5,2.7C105.6,422.7,105,421.8,105,419.9z M106.9,419.9v-0.3c0-1.4-0.2-1.8-0.5-1.8s-0.5,0.4-0.5,1.8v0.3
		c0,1.4,0.2,1.8,0.5,1.8S106.9,421.4,106.9,419.9z M108.4,417h2v0.9h-1.1v1.4h0.9v0.9h-0.9v2.3h-1V417z M110.9,417h2v0.9h-1.1v1.4
		h0.9v0.9h-0.9v2.3h-1V417z M113.4,417h1v5.6h-1V417z M114.9,419.9v-0.2c0-2,0.7-2.7,1.6-2.7c0.3,0,0.4,0,0.6,0.1v1
		c-0.2-0.1-0.4-0.2-0.5-0.2c-0.4,0-0.7,0.4-0.7,1.8v0.2c0,1.5,0.3,1.8,0.8,1.8c0.2,0,0.3-0.1,0.5-0.2v1c-0.2,0.1-0.4,0.2-0.7,0.2
		C115.6,422.6,114.9,421.8,114.9,419.9z M117.7,417h2.1v0.9h-1.2v1.4h1v0.9h-1v1.4h1.2v0.9h-2.2V417z"/>
	<path class="st8" d="M66.4,1124.3h0.9c1.2,0,2,0.9,2,2.7v0.2c0,1.8-0.7,2.7-2,2.7h-0.9V1124.3z M67.4,1129c0.5,0,0.9-0.4,0.9-1.8
		v-0.2c0-1.4-0.4-1.8-0.9-1.8h0L67.4,1129L67.4,1129z M70.5,1124.3h1l1.1,5.6h-1l-0.2-1.1h-0.9l-0.2,1.1h-0.9L70.5,1124.3z
		 M71.3,1127.9L71,1126l-0.3,1.8H71.3z M72.9,1124.3h0.9l1,2.8v-2.8h1v5.6h-0.9l-1-3v3h-1L72.9,1124.3L72.9,1124.3z M76.2,1127.2
		v-0.2c0-2,0.7-2.7,1.6-2.7c0.3,0,0.4,0,0.6,0.1v1c-0.2-0.1-0.4-0.2-0.5-0.2c-0.4,0-0.7,0.4-0.7,1.8v0.2c0,1.5,0.3,1.8,0.8,1.8
		c0.2,0,0.3-0.1,0.5-0.2v1c-0.2,0.1-0.4,0.2-0.7,0.2C76.9,1129.9,76.2,1129.1,76.2,1127.2z M79,1124.3h2.1v0.9H80v1.4h1v0.9h-1v1.4
		h1.2v0.9H79V1124.3z M66.7,1132.3h2v0.9h-1.1v1.4h0.9v0.9h-0.9v2.3h-1V1132.3z M69.2,1132.3h1v4.7h1v0.9h-2V1132.3z M71.3,1135.2
		v-0.3c0-1.8,0.6-2.7,1.5-2.7c0.9,0,1.5,0.9,1.5,2.7v0.3c0,1.8-0.6,2.7-1.5,2.7C71.9,1138,71.3,1137.1,71.3,1135.2z M73.3,1135.2
		v-0.3c0-1.4-0.2-1.8-0.5-1.8s-0.5,0.4-0.5,1.8v0.3c0,1.4,0.2,1.8,0.5,1.8S73.3,1136.7,73.3,1135.2z M74.7,1135.2v-0.3
		c0-1.8,0.6-2.7,1.5-2.7c0.9,0,1.5,0.9,1.5,2.7v0.3c0,1.8-0.6,2.7-1.5,2.7C75.3,1138,74.7,1137.1,74.7,1135.2z M76.7,1135.2v-0.3
		c0-1.4-0.2-1.8-0.5-1.8s-0.5,0.4-0.5,1.8v0.3c0,1.4,0.2,1.8,0.5,1.8S76.7,1136.7,76.7,1135.2z M78.1,1132.3h1c1,0,1.7,0.5,1.7,1.8
		v0.1c0,0.7-0.3,1.2-0.7,1.5l0.8,2.3h-1l-0.6-2h-0.2v2h-1V1132.3z M79.2,1135c0.4,0,0.7-0.2,0.7-0.9v-0.1c0-0.7-0.3-0.9-0.8-0.9h0
		L79.2,1135L79.2,1135z"/>
	<path class="st8" d="M36.3,963.7h1c1,0,1.7,0.5,1.7,1.8v0.1c0,0.7-0.3,1.2-0.7,1.5l0.8,2.3h-1l-0.6-2h-0.2v2h-1V963.7z M37.3,966.5
		c0.4,0,0.7-0.2,0.7-0.9v-0.1c0-0.7-0.3-0.9-0.8-0.9h0L37.3,966.5L37.3,966.5z M39.5,963.7h1c1,0,1.7,0.5,1.7,1.8v0.1
		c0,0.7-0.3,1.2-0.7,1.5l0.8,2.3h-1l-0.6-2h-0.2v2h-1V963.7z M40.5,966.5c0.4,0,0.7-0.2,0.7-0.9v-0.1c0-0.7-0.3-0.9-0.8-0.9h0
		L40.5,966.5L40.5,966.5z"/>
	<path class="st8" d="M106.2,963.7h1c1,0,1.7,0.5,1.7,1.8v0.1c0,0.7-0.3,1.2-0.7,1.5l0.8,2.3h-1l-0.6-2h-0.2v2h-1
		C106.2,969.3,106.2,963.7,106.2,963.7z M107.2,966.5c0.4,0,0.7-0.2,0.7-0.9v-0.1c0-0.7-0.3-0.9-0.8-0.9h0L107.2,966.5L107.2,966.5z
		 M109.4,963.7h1c1,0,1.7,0.5,1.7,1.8v0.1c0,0.7-0.3,1.2-0.7,1.5l0.8,2.3h-1l-0.6-2h-0.2v2h-1V963.7z M110.4,966.5
		c0.4,0,0.7-0.2,0.7-0.9v-0.1c0-0.7-0.3-0.9-0.8-0.9h0L110.4,966.5L110.4,966.5z"/>
	<path class="st8" d="M92.4,615.4h0.8c0.9,0,1.8,0.4,1.8,1.4v0c0,0.7-0.4,1.1-0.8,1.3c0.5,0.2,0.9,0.5,0.9,1.2v0.1
		c0,1-0.8,1.6-1.9,1.6h-0.9V615.4z M93.4,617.7c0.4,0,0.7-0.2,0.7-0.7v0c0-0.5-0.3-0.7-0.7-0.7h0L93.4,617.7L93.4,617.7z
		 M93.4,620.1c0.4,0,0.8-0.3,0.8-0.7v0c0-0.5-0.3-0.7-0.8-0.7h0L93.4,620.1L93.4,620.1L93.4,620.1z M96.3,615.4h1l1.1,5.6h-1
		l-0.2-1.1h-0.9l-0.2,1.1h-0.9L96.3,615.4z M97.1,619l-0.3-1.8l-0.3,1.8H97.1z M98.7,615.4h1c1,0,1.7,0.5,1.7,1.8v0.1
		c0,0.7-0.3,1.2-0.7,1.5l0.8,2.3h-1l-0.6-2h-0.2v2h-1V615.4z M99.7,618.1c0.4,0,0.7-0.2,0.7-0.9v-0.1c0-0.7-0.3-0.9-0.8-0.9h0
		L99.7,618.1L99.7,618.1z"/>
	<path class="st8" d="M15.5,949.1h1c1,0,1.7,0.5,1.7,1.8v0.1c0,0.7-0.3,1.2-0.7,1.5l0.8,2.3h-1l-0.6-2h-0.2v2h-1
		C15.5,954.6,15.5,949.1,15.5,949.1z M16.5,951.8c0.4,0,0.7-0.2,0.7-0.9v-0.1c0-0.7-0.3-0.9-0.8-0.9h0L16.5,951.8L16.5,951.8z
		 M18.7,949.1h1c1,0,1.7,0.5,1.7,1.8v0.1c0,0.7-0.3,1.2-0.7,1.5l0.8,2.3h-1l-0.6-2h-0.2v2h-1C18.7,954.6,18.7,949.1,18.7,949.1z
		 M19.7,951.8c0.4,0,0.7-0.2,0.7-0.9v-0.1c0-0.7-0.3-0.9-0.8-0.9h0L19.7,951.8L19.7,951.8z"/>
	<path class="st8" d="M40.2,379.3H41c0.9,0,1.8,0.4,1.8,1.4v0c0,0.7-0.4,1.1-0.8,1.3c0.5,0.2,0.9,0.5,0.9,1.2v0.1
		c0,1-0.8,1.6-1.9,1.6h-0.9V379.3z M41.2,381.6c0.4,0,0.7-0.2,0.7-0.7v0c0-0.5-0.3-0.7-0.7-0.7h0L41.2,381.6L41.2,381.6z M41.2,384
		c0.4,0,0.8-0.3,0.8-0.7v0c0-0.5-0.3-0.7-0.8-0.7h0L41.2,384L41.2,384L41.2,384z M44.1,379.2h1l1.1,5.6h-1l-0.2-1.1h-0.9l-0.2,1.1
		H43L44.1,379.2z M44.9,382.9l-0.3-1.8l-0.3,1.8H44.9z M46.5,379.3h1c1,0,1.7,0.5,1.7,1.8v0.1c0,0.7-0.3,1.2-0.7,1.5l0.8,2.3h-1
		l-0.6-2h-0.2v2h-1L46.5,379.3L46.5,379.3L46.5,379.3z M47.5,382c0.4,0,0.7-0.2,0.7-0.9v-0.1c0-0.7-0.3-0.9-0.8-0.9h0L47.5,382
		L47.5,382z"/>
	<path class="st8" d="M50.2,288.7H51c0.9,0,1.8,0.4,1.8,1.4v0c0,0.7-0.4,1.1-0.8,1.3c0.5,0.2,0.9,0.5,0.9,1.2v0.1
		c0,1-0.8,1.6-1.9,1.6h-0.9V288.7z M51.2,291.1c0.4,0,0.7-0.2,0.7-0.7v0c0-0.5-0.3-0.7-0.7-0.7h0L51.2,291.1L51.2,291.1z
		 M51.2,293.4c0.4,0,0.8-0.3,0.8-0.7v0c0-0.5-0.3-0.7-0.8-0.7h0L51.2,293.4L51.2,293.4L51.2,293.4z M53.3,288.7h1
		c1,0,1.7,0.5,1.7,1.8v0.1c0,0.7-0.3,1.2-0.7,1.5l0.8,2.3h-1l-0.6-2h-0.2v2h-1V288.7z M54.4,291.5c0.4,0,0.7-0.2,0.7-0.9v-0.1
		c0-0.7-0.3-0.9-0.8-0.9h0L54.4,291.5L54.4,291.5z M56.5,288.7h2.1v0.9h-1.2v1.4h1v0.9h-1v1.4h1.2v0.9h-2.2V288.7z M59.9,288.7h1
		l1.1,5.6h-1l-0.2-1.1H60l-0.2,1.1h-0.9L59.9,288.7z M60.7,292.4l-0.3-1.8l-0.3,1.8H60.7z M62.3,288.7h1v2.3l0.8-2.3h1.1l-0.9,2.4
		l1,3.2h-1.1l-0.6-2.1l-0.2,0.6v1.5h-1V288.7z M66.2,288.7h1l1.1,5.6h-1l-0.2-1.1h-0.9l-0.2,1.1h-0.9L66.2,288.7z M67,292.4
		l-0.3-1.8l-0.3,1.8H67z M68.3,288.7h1l0.4,3.4l0.5-3.4h0.9l0.5,3.4l0.4-3.4h1l-0.8,5.6h-1l-0.5-3.3l-0.5,3.3h-1L68.3,288.7z
		 M74,288.7h1l1.1,5.6h-1l-0.2-1.1h-0.9l-0.2,1.1H73L74,288.7z M74.8,292.4l-0.3-1.8l-0.3,1.8H74.8z M76.9,292.1l-1-3.4h1l0.5,2.1
		l0.5-2.1h1l-1,3.4v2.2h-1L76.9,292.1L76.9,292.1z M81,289.7h-0.7v-0.9h2.4v0.9h-0.7v4.7h-1L81,289.7L81,289.7z M83,288.7h1v2.3h0.8
		v-2.3h1v5.6h-1V292H84v2.4h-1V288.7z M86.4,288.7h2.1v0.9h-1.2v1.4h1v0.9h-1v1.4h1.2v0.9h-2.2V288.7z M89.8,288.7h1l1.1,5.6h-1
		l-0.2-1.1h-0.9l-0.2,1.1h-0.9L89.8,288.7z M90.6,292.4l-0.3-1.8l-0.3,1.8H90.6z M92.5,289.7h-0.7v-0.9h2.4v0.9h-0.7v4.7h-1
		L92.5,289.7L92.5,289.7z M94.6,288.7h2.1v0.9h-1.2v1.4h1v0.9h-1v1.4h1.2v0.9h-2.2V288.7z M97.2,288.7h1c1,0,1.7,0.5,1.7,1.8v0.1
		c0,0.7-0.3,1.2-0.7,1.5l0.8,2.3h-1l-0.6-2h-0.2v2h-1L97.2,288.7L97.2,288.7z M98.2,291.5c0.4,0,0.7-0.2,0.7-0.9v-0.1
		c0-0.7-0.3-0.9-0.8-0.9h0L98.2,291.5L98.2,291.5z"/>
	<path class="st8" d="M66.8,333.3v-0.3c0-1.8,0.6-2.7,1.5-2.7c0.9,0,1.5,0.9,1.5,2.7v0.3c0,1.8-0.6,2.7-1.5,2.7
		C67.4,336.1,66.8,335.2,66.8,333.3z M68.8,333.3v-0.3c0-1.4-0.2-1.8-0.5-1.8c-0.3,0-0.5,0.4-0.5,1.8v0.3c0,1.4,0.2,1.8,0.5,1.8
		C68.6,335.2,68.8,334.8,68.8,333.3z M70.3,330.4h0.9c1.1,0,1.8,0.6,1.8,1.9v0c0,1.3-0.7,1.9-1.7,1.9h0v1.8h-1V330.4z M71.2,333.3
		c0.4,0,0.7-0.3,0.7-1v0c0-0.7-0.3-1-0.7-1h0L71.2,333.3L71.2,333.3L71.2,333.3z M73.3,330.4h2.1v0.9h-1.2v1.4h1v0.9h-1v1.4h1.2v0.9
		h-2.2V330.4z M76,330.4h0.9l1,2.8v-2.8h1v5.6H78l-1-3v3h-1L76,330.4L76,330.4z M81.2,331.3h-0.7v-0.9h2.4v0.9h-0.7v4.7h-1
		C81.2,336,81.2,331.3,81.2,331.3z M83,333.3v-0.3c0-1.8,0.6-2.7,1.5-2.7c0.9,0,1.5,0.9,1.5,2.7v0.3c0,1.8-0.6,2.7-1.5,2.7
		C83.6,336.1,83,335.2,83,333.3z M85,333.3v-0.3c0-1.4-0.2-1.8-0.5-1.8c-0.3,0-0.5,0.4-0.5,1.8v0.3c0,1.4,0.2,1.8,0.5,1.8
		C84.8,335.2,85,334.8,85,333.3z M62.1,338.4H63c1.2,0,2,0.9,2,2.7v0.2c0,1.8-0.7,2.7-2,2.7h-0.9C62.1,344,62.1,338.4,62.1,338.4z
		 M63.2,343.1c0.5,0,0.9-0.4,0.9-1.8v-0.2c0-1.4-0.4-1.8-0.9-1.8h0L63.2,343.1L63.2,343.1z M65.5,338.4h2.1v0.9h-1.2v1.4h1v0.9h-1
		v1.4h1.2v0.9h-2.2V338.4z M68,341.3v-0.2c0-2,0.7-2.7,1.6-2.7c0.3,0,0.4,0,0.6,0.1v1c-0.2-0.1-0.4-0.2-0.5-0.2
		c-0.4,0-0.7,0.4-0.7,1.8v0.2c0,1.5,0.3,1.8,0.8,1.8c0.2,0,0.3-0.1,0.5-0.2v1c-0.2,0.1-0.4,0.2-0.7,0.2C68.6,344,68,343.2,68,341.3z
		 M70.7,338.4h1v2.3l0.8-2.3h1.1l-0.9,2.4l1,3.2h-1.1l-0.6-2.1l-0.2,0.6v1.5h-1L70.7,338.4L70.7,338.4z M75.2,338.4h0.8
		c0.9,0,1.8,0.4,1.8,1.4v0c0,0.7-0.4,1.1-0.8,1.3c0.5,0.2,0.9,0.5,0.9,1.2v0.1c0,1-0.8,1.6-1.9,1.6h-0.9
		C75.2,344,75.2,338.4,75.2,338.4z M76.2,340.7c0.4,0,0.7-0.2,0.7-0.7v0c0-0.5-0.3-0.7-0.7-0.7h0L76.2,340.7L76.2,340.7z
		 M76.2,343.1c0.4,0,0.8-0.3,0.8-0.7v0c0-0.5-0.3-0.7-0.8-0.7h0L76.2,343.1L76.2,343.1L76.2,343.1z M78.4,338.4h2.1v0.9h-1.2v1.4h1
		v0.9h-1v1.4h1.2v0.9h-2.2L78.4,338.4L78.4,338.4z M81,338.4h1v4.7h1v0.9h-2C81,344,81,338.4,81,338.4z M83.1,341.3v-0.3
		c0-1.8,0.6-2.7,1.5-2.7s1.5,0.9,1.5,2.7v0.3c0,1.8-0.6,2.7-1.5,2.7S83.1,343.2,83.1,341.3z M85.1,341.3v-0.3c0-1.4-0.2-1.8-0.5-1.8
		s-0.5,0.4-0.5,1.8v0.3c0,1.4,0.2,1.8,0.5,1.8S85.1,342.8,85.1,341.3z M86.2,338.4h1l0.4,3.4l0.5-3.4H89l0.5,3.4l0.4-3.4h1l-0.8,5.6
		h-1l-0.5-3.3l-0.5,3.3h-1L86.2,338.4z"/>
	<path class="st8" d="M103.8,819.9h0.8c0.9,0,1.8,0.4,1.8,1.4v0c0,0.7-0.4,1.1-0.8,1.3c0.5,0.2,0.9,0.5,0.9,1.2v0.1
		c0,1-0.8,1.6-1.9,1.6h-0.9V819.9z M104.8,822.2c0.4,0,0.7-0.2,0.7-0.7v0c0-0.5-0.3-0.7-0.7-0.7h0L104.8,822.2L104.8,822.2z
		 M104.8,824.6c0.4,0,0.8-0.3,0.8-0.7v0c0-0.5-0.3-0.7-0.8-0.7h0L104.8,824.6L104.8,824.6L104.8,824.6z M106.9,819.9h1
		c1,0,1.7,0.5,1.7,1.8v0.1c0,0.7-0.3,1.2-0.7,1.5l0.8,2.3h-1l-0.6-2h-0.2v2h-1V819.9z M108,822.7c0.4,0,0.7-0.2,0.7-0.9v-0.1
		c0-0.7-0.3-0.9-0.8-0.9h0L108,822.7L108,822.7z M110.1,819.9h2.1v0.9h-1.2v1.4h1v0.9h-1v1.4h1.2v0.9h-2.2V819.9z M113.5,819.9h1
		l1.1,5.6h-1l-0.2-1.1h-0.9l-0.2,1.1h-0.9L113.5,819.9z M114.3,823.5l-0.3-1.8l-0.3,1.8H114.3z M115.9,819.9h1v2.3l0.8-2.3h1.1
		l-0.9,2.4l1,3.2h-1.1l-0.6-2.1l-0.2,0.6v1.5h-1L115.9,819.9L115.9,819.9z M119.8,819.9h1l1.1,5.6h-1l-0.2-1.1h-0.9l-0.2,1.1h-0.9
		L119.8,819.9z M120.6,823.5l-0.3-1.8l-0.3,1.8H120.6z M121.9,819.9h1l0.4,3.4l0.5-3.4h0.9l0.5,3.4l0.4-3.4h1l-0.8,5.6h-1l-0.5-3.3
		l-0.5,3.3h-1L121.9,819.9z M127.6,819.9h1l1.1,5.6h-1l-0.2-1.1h-0.9l-0.2,1.1h-0.9L127.6,819.9z M128.4,823.5l-0.3-1.8l-0.3,1.8
		H128.4z M130.5,823.3l-1-3.4h1l0.5,2.1l0.5-2.1h1l-1,3.4v2.2h-1L130.5,823.3L130.5,823.3z M109.8,830.8v-0.2c0-2,0.7-2.7,1.6-2.7
		c0.3,0,0.4,0,0.6,0.1v1c-0.2-0.1-0.4-0.2-0.5-0.2c-0.4,0-0.7,0.4-0.7,1.8v0.2c0,1.5,0.3,1.8,0.8,1.8c0.2,0,0.3-0.1,0.5-0.2v1
		c-0.2,0.1-0.4,0.2-0.7,0.2C110.4,833.5,109.8,832.7,109.8,830.8z M113.3,827.9h1l1.1,5.6h-1l-0.2-1.1h-0.9l-0.2,1.1h-0.9
		L113.3,827.9z M114.1,831.5l-0.3-1.8l-0.3,1.8H114.1z M115.6,833.3v-1c0.3,0.2,0.6,0.3,0.9,0.3c0.3,0,0.5-0.1,0.5-0.5v0
		c0-0.3-0.1-0.4-0.5-1c-0.7-0.8-0.9-1.1-0.9-1.8v0c0-0.9,0.6-1.5,1.4-1.5c0.4,0,0.6,0.1,0.9,0.2v1c-0.3-0.2-0.5-0.3-0.7-0.3
		c-0.3,0-0.5,0.2-0.5,0.5v0c0,0.3,0.1,0.4,0.5,0.9c0.8,0.9,0.9,1.2,0.9,1.9v0c0,0.9-0.6,1.5-1.4,1.5
		C116.2,833.5,115.9,833.4,115.6,833.3z M118.3,827.9h1v5.6h-1V827.9z M119.9,827.9h0.9l1,2.8v-2.8h1v5.6h-0.9l-1-3v3h-1
		L119.9,827.9L119.9,827.9z M123.2,830.8v-0.3c0-1.8,0.6-2.7,1.5-2.7c0.9,0,1.5,0.9,1.5,2.7v0.3c0,1.8-0.6,2.7-1.5,2.7
		C123.8,833.6,123.2,832.7,123.2,830.8z M125.2,830.8v-0.3c0-1.4-0.2-1.8-0.5-1.8s-0.5,0.4-0.5,1.8v0.3c0,1.4,0.2,1.8,0.5,1.8
		S125.2,832.3,125.2,830.8z"/>
	<path class="st8" d="M91.1,1149.8H92c0.9,0,1.8,0.4,1.8,1.4v0c0,0.7-0.4,1.1-0.8,1.3c0.5,0.2,0.9,0.5,0.9,1.2v0.1
		c0,1-0.8,1.6-1.9,1.6h-0.9L91.1,1149.8L91.1,1149.8z M92.1,1152.1c0.4,0,0.7-0.2,0.7-0.7v0c0-0.5-0.3-0.7-0.7-0.7h0L92.1,1152.1
		L92.1,1152.1L92.1,1152.1z M92.1,1154.5c0.4,0,0.8-0.3,0.8-0.7v0c0-0.5-0.3-0.7-0.8-0.7h0L92.1,1154.5L92.1,1154.5L92.1,1154.5z
		 M95,1149.8h1l1.1,5.6h-1l-0.2-1.1h-0.9l-0.2,1.1H94L95,1149.8z M95.8,1153.4l-0.3-1.8l-0.3,1.8H95.8z M97.4,1149.8h0.9l1,2.8v-2.8
		h1v5.6h-0.9l-1-3v3h-1C97.4,1155.4,97.4,1149.8,97.4,1149.8z M100.9,1149.8h0.9c1.2,0,2,0.9,2,2.7v0.2c0,1.8-0.7,2.7-2,2.7h-0.9
		V1149.8z M101.9,1154.5c0.5,0,0.9-0.4,0.9-1.8v-0.2c0-1.4-0.4-1.8-0.9-1.8h0L101.9,1154.5L101.9,1154.5z M104.1,1155.2v-1
		c0.3,0.2,0.6,0.3,0.9,0.3c0.3,0,0.5-0.1,0.5-0.5v0c0-0.3-0.1-0.4-0.5-1c-0.7-0.8-0.9-1.1-0.9-1.8v0c0-0.9,0.6-1.5,1.4-1.5
		c0.4,0,0.6,0.1,0.9,0.2v1c-0.3-0.2-0.5-0.3-0.7-0.3c-0.3,0-0.5,0.2-0.5,0.5v0c0,0.3,0.1,0.4,0.5,0.9c0.8,0.9,0.9,1.2,0.9,1.9v0
		c0,0.9-0.6,1.5-1.4,1.5C104.7,1155.4,104.3,1155.3,104.1,1155.2z M107.2,1150.7h-0.7v-0.9h2.4v0.9h-0.7v4.7h-1L107.2,1150.7
		L107.2,1150.7z M109.8,1149.8h1l1.1,5.6h-1l-0.2-1.1h-0.9l-0.2,1.1h-0.9L109.8,1149.8z M110.6,1153.4l-0.3-1.8l-0.3,1.8H110.6z
		 M112.2,1149.8h0.9l1,2.8v-2.8h1v5.6h-0.9l-1-3v3h-1C112.2,1155.4,112.2,1149.8,112.2,1149.8z M115.6,1149.8h0.9c1.2,0,2,0.9,2,2.7
		v0.2c0,1.8-0.7,2.7-2,2.7h-0.9V1149.8z M116.6,1154.5c0.5,0,0.9-0.4,0.9-1.8v-0.2c0-1.4-0.4-1.8-0.9-1.8h0L116.6,1154.5
		L116.6,1154.5z"/>
</g>
<g id="BREAKAWAY_DECK_07_TOP">
	<g id="gDeck07Locations">
		<path width="147.9" height="442.4661" id="_x30_7Aft" class="st9" d="M0.5,1152.4c0,0,10.6,15.2,27.9,16.1c0,0,25.8,2.5,45.8,2c0,0,31.6-0.3,38.3-1.3
			c0,0,22.1-0.3,35.9-16.4V783v-54.9H0.5V1152.4z"/>
		<polygon width="147.9" height="298.9" id="_x30_7MidShip" class="st9" points="148.4,626.2 148.4,429.2 0.5,429.2 0.5,728.1 148.4,728.1 148.4,626.5 		"/>
		<path width="148.0846" height="428.5" id="_x30_7Forward" class="st9" d="M148.4,209.6l0,0.8c0,0,1.2-63.2-3.3-84.7h-2.2c0,0-6.6-28.1-20.3-56.8
			C106.7,35.8,83,1.3,74.9,0.7l-0.4,0.1C66.3,1.5,42.6,35.9,26.8,69C13,97.7,6.5,125.8,6.5,125.8H4.3c-4.5,21.5-3.8,84.7-3.8,84.7
			l0-3.2v221.9h147.9V209.6z"/>
	</g>
	<path class="st10" d="M148.4,1152.8c-13.8,16.2-35.9,16.4-35.9,16.4c-6.7,1-38.3,1.3-38.3,1.3c-20,0.5-45.8-2-45.8-2
		c-17.2-0.9-27.9-16.1-27.9-16.1V207.3l0,3.2c0,0-0.7-63.2,3.8-84.7h2.2c0,0,6.6-28.1,20.3-56.8C42.6,35.9,66.3,1.5,74.4,0.8
		l0.4-0.1c8.1,0.6,31.8,35.1,47.7,68.2c13.7,28.7,20.3,56.8,20.3,56.8h2.2c4.5,21.5,3.3,84.7,3.3,84.7l0-0.8v416.9v-0.3V783v370.1"
		/>
</g>
</svg>
