<?xml version="1.0" encoding="utf-8"?>
<!-- Generator: Adobe Illustrator 22.1.0, SVG Export Plug-In . SVG Version: 6.00 Build 0)  -->
<svg version="1.1" id="POA_FMA_Profile" xmlns="http://www.w3.org/2000/svg" xmlns:xlink="http://www.w3.org/1999/xlink" x="0px"
	 y="0px" viewBox="0 0 271.6 87.5" style="enable-background:new 0 0 271.6 87.5;" xml:space="preserve">
<style type="text/css">
	.st0{fill:#FFFFFF;}
	.st1{fill:#B7DAEA;}
	.st2{fill:none;}
	.st3{fill:none;stroke:#D3DADF;stroke-width:0.52;stroke-miterlimit:10;}
	.st4{fill:#0E84BD;}
	.st5{font-family:'Futura-Bold';}
	.st6{font-size:6.25px;}
	.st7{fill:#231F20;}
	.st8{font-family:'Futura-Medium';}
	.st9{font-size:9px;}
</style>
<g id="gPOAForward">
	<g id="hPOAForward">
		<rect id="back" x="177.8" y="0.3" class="st0" width="93.6" height="87"/>
		<path id="ship_2_" class="st1" d="M244,72.3V72c1.9-3.3,4.1-6.4,6.4-9.4c2.3-3,6.5-7.8,6.5-7.9l0.6-0.6h-13.3L235,39.6h-1l0.4-1.1
			l-2-3.1h-2.7v-0.9h0.7l-2.6-3.8h-12.1c-0.2-0.5-0.6-0.8-1.1-0.8c-0.5,0-0.9,0.3-1,0.8h-7.3l3.5-1.1l-3.2-0.2l-0.7-1.3h-0.8
			l-0.7-1.2h-1.2l-0.3-0.6h1.3l-0.8-2h-3.1v-3.8H199V24l-1.3-2.4h-2.4l1.9,4.5h0.7l0.3,0.5h-0.8l0.5,1.2h-2.1l-0.6,1.3H195l-0.2,0.3
			h-12.7v1.2h-1v1.8H178v39.8h66V72.3z"/>
		<rect id="check" x="177.8" y="84.1" class="st2" width="93.6" height="3.1"/>
		<rect id="border" x="177.8" y="0.3" class="st3" width="93.6" height="87"/>
		<text id="title" transform="matrix(1 0 0 1 207.4 15.7)" class="st4 st5 st6">FORWARD</text>
		<text id="text" transform="matrix(1 0 0 1 196.8527 55.1036)" class="st7 st8 st9">+  $0</text>
	</g>
</g>
<g id="gPOAMidShip">
	<g id="hPOAMidShip">
		<rect id="back_1_" x="98" y="0.3" class="st0" width="79.8" height="87"/>
		<path id="ship_1_" class="st1" d="M175.1,32.4c0-0.6-0.1-1.2-0.4-1.7c-0.3-0.4-0.8-0.6-1.3-0.5c-0.6,0-1.1,0.2-1.4,0.7
			c-0.4,0.7-0.4,1.6-0.1,2.4h-1.3l0.9,3l0.7-0.5v0.8h-1.5v0.9h-35.5l-0.5-1.6l-1.3,0.2l-0.4-3.4h-2.6l-0.2-1.1h-0.3v-0.5
			c0.2-0.3,0.8-2.2,0.1-3.2c-0.3-0.5-0.8-0.7-1.4-0.7c-0.6,0-1.1,0.2-1.5,0.7c-0.7,1-0.1,2.8,0.1,3.2v0.5h-25.3
			c-0.7-0.9-2-2.5-3.7-4.3v45H178v-40L175.1,32.4z"/>
		<rect id="check_1_" x="98" y="84.1" class="st2" width="79.8" height="3.1"/>
		<rect id="border_1_" x="98" y="0.3" class="st3" width="79.8" height="87"/>
		<text id="text_1_" transform="matrix(1 0 0 1 121.8527 55.1036)" class="st7 st8 st9">+  $15</text>
		<text id="title_1_" transform="matrix(1 0 0 1 123.2 15.7)" class="st4 st5 st6">MID-SHIP</text>
	</g>
</g>
<g id="gPOAAft">
	<g id="hPOAAft">
		<rect id="back_2_" x="0.3" y="0.3" class="st0" width="97.7" height="87"/>
		<path id="ship_2_" class="st1" d="M95.9,24.9c-2.9-2.6-6.8-5.4-6.8-5.4h-1L86.7,18h-0.8c0.5,0.4,1,0.9,1.4,1.4h-0.5
			c-0.1,0-1.2-1.5-1.3-1.5h-1.2c-0.1,0,1.4,1.5,1.3,1.5H85c-0.1,0-1.2-1.4-1.3-1.4h-1.1c-0.1,0,1.4,1.6,1.3,1.6s-0.4,0-0.6,0
			l-1.2-1.5h-0.9c-0.1,0,1.3,1.6,1.2,1.6h-1.7c1.4,2,2.1,4.4,2,6.9c0,0.9,0,3.6-1.9,5h-5.5v-2h-0.4c-4.1-0.1-24.4-0.4-25.8,0.7
			s-0.3,0.9-0.3,2.1s0.1,1.1,0.1,1.2h-0.6c-0.3-0.1-0.7-0.1-1,0.1c-0.2,0.2-0.3,0.5-0.3,0.8l-4.2-0.3l-5.5,1.1l1.7,2l-0.3,0.4H35V39
			l-0.8,0.2L32.9,41L31,41.2l-1.2,1.2h-4.7l-2.6,3.7c-3,3.8-4,12.3-4.1,12.7L19.3,72h78.9V27L95.9,24.9z"/>
		<rect id="check_2_" x="0.3" y="84.1" class="st2" width="97.7" height="3.1"/>
		<rect id="border_2_" x="0.3" y="0.3" class="st3" width="97.7" height="87"/>
		<text id="text_2_" transform="matrix(1 0 0 1 55.0385 55.1036)" class="st7 st8 st9">+  $0</text>
		<text id="title_2_" transform="matrix(1 0 0 1 42.4 15.7)" class="st4 st5 st6">AFT</text>
	</g>
</g>
</svg>
