<?xml version="1.0" encoding="utf-8"?>
<!-- Generator: Adobe Illustrator 23.0.2, SVG Export Plug-In . SVG Version: 6.00 Build 0)  -->
<svg version="1.1" id="PEARL_DECK_06" xmlns="http://www.w3.org/2000/svg" xmlns:xlink="http://www.w3.org/1999/xlink" x="0px"
	 y="0px" width="127.742px" height="1080.72px" viewBox="0 0 127.742 1080.72" style="enable-background:new 0 0 127.742 1080.72;"
	 xml:space="preserve">
<style type="text/css">
	.New_x0020_Cabins_x0020_2019{fill:#EFF2F5;stroke:#FFFFFF;stroke-width:0.5;stroke-miterlimit:10;}
	.New_x0020_Cabins_x0020_2{fill:#EFF2F5;stroke:#FFFFFF;stroke-width:0.5;stroke-miterlimit:10;}
	.st0{fill:#FFFFFF;}
	.st1{fill:none;stroke:#D5DCE0;stroke-width:0.5;}
	.st2{fill:#6E8496;}
	.st3{fill:none;stroke:#076FA0;stroke-miterlimit:10;}
	.st4{fill:none;}
</style>
<g id="PEARL_DECK_06_BOTTOM">
	<path class="st0" d="M75.06,1080.138c16.803-0.82,46.976-4.266,51.953-18.344c0.178-20.215,0.229-825.167,0.229-825.167
		s-0.203-32.547-0.551-36.432c-0.127-1.436-0.826-21.757-1.744-31.022c-3.566-35.287-10-109.284-59.898-168.214
		c-0.293-0.243-0.596-0.391-0.904-0.459h-0.547c-0.309,0.068-0.611,0.216-0.904,0.459C10.446,61.64,5.071,146.54,2.501,171.684
		c-0.886,12.481-1.322,27.075-1.45,28.511C0.703,204.081,0.5,236.627,0.5,236.627s0.051,804.952,0.229,825.167
		c5.162,14.605,37.443,17.768,53.779,18.426L75.06,1080.138z"/>
	<path class="st1" d="M51.037,959.665c0,0.598-0.486,1.084-1.084,1.084c-0.6,0-1.084-0.486-1.084-1.084
		c0-0.598,0.484-1.084,1.084-1.084C50.55,958.581,51.037,959.068,51.037,959.665z"/>
	<path class="st1" d="M76.734,959.665c0,0.598,0.484,1.084,1.084,1.084c0.598,0,1.082-0.486,1.082-1.084
		c0-0.598-0.484-1.084-1.082-1.084C77.218,958.581,76.734,959.068,76.734,959.665z"/>
	<path class="st1" d="M62.251,962.841c-8.697-0.82-15.633-7.656-16.561-16.279"/>
	<path class="st1" d="M82.33,946.628c-0.951,8.565-7.834,15.352-16.473,16.205"/>
	<path class="st1" d="M77.089,960.501c-3.512,2.943-8.039,4.717-12.983,4.717c-4.976,0-9.533-1.799-13.055-4.781"/>
	<path class="st1" d="M62.517,960.654c-7.395-0.728-13.301-6.795-14.152-14.467"/>
	<path class="st1" d="M79.665,946.181c-0.85,7.674-6.756,13.742-14.154,14.471"/>
	<path class="st1" d="M63.04,958.488c-6.275-0.467-11.334-5.42-12.121-11.732"/>
	<path class="st1" d="M77.109,946.763c-1.24,9.898-8.466,11.521-12.123,11.732"/>
	<path class="st1" d="M55.169,955.279c0,0-3.479,5.395-4.562,5.062"/>
	<path class="st1" d="M72.73,955.408c0,0,3.35,5.266,4.432,4.934"/>
	<circle class="st1" cx="64.107" cy="963.091" r="1.812"/>
	<polyline class="st1" points="62.107,963.091 64.044,955.029 66.044,963.154 	"/>
	<path class="st1" d="M34.163,953.408c0,0,4.364,5.478,3.783,17.99"/>
	<path class="st1" d="M94.322,953.408c0,0-4.365,5.478-3.783,17.99"/>
	<path class="st1" d="M114.635,476.972c0,0-1.038,5.01-3.585,8.336c-7.171,12.729-25.188,12.191-30.746,8.605
		c-4.482-2.061-7.708-6.723-7.708-6.723l7.798-12.997c0,0,3.406-4.482,1.883-5.827c-0.358-0.627-3.138-2.061-3.138-2.061
		l4.393-9.681h32.281C115.813,456.624,116.356,472.473,114.635,476.972z"/>
	<polyline class="st1" points="24.146,1076.228 24.146,991.72 0.714,991.72 	"/>
	<polyline class="st1" points="103.785,1076.228 103.785,991.72 127.216,991.72 	"/>
	<polygon class="st1" points="58.971,943.298 53.727,943.298 53.727,946.378 45.365,946.378 45.365,917.331 52.626,917.331 
		52.626,937.576 60.197,937.576 63.629,937.576 75.953,937.576 75.953,917.331 83.214,917.331 83.214,946.378 74.852,946.378 
		74.852,943.298 63.409,943.298 	"/>
	<line class="st1" x1="0.404" y1="927.927" x2="45.472" y2="927.927"/>
	<polyline class="st1" points="83.281,927.927 104.152,927.927 104.152,895.408 127.025,895.408 	"/>
	<path class="st1" d="M62.604,894.091h27.524v44.121c0,0-0.605,5.445-2.117,9.377c-1.512,3.932-8.167,16.635-3.932,26.92
		c0,0-12.705,4.84-14.519,4.84c0,0-0.758,2.766-3.661,3.473l-2.142,0.102c-3.279-0.479-4.674-3.574-4.674-3.574
		c-1.814,0-14.519-4.84-14.519-4.84c4.235-10.285-2.42-22.988-3.932-26.92c-1.512-3.932-2.118-9.377-2.118-9.377v-44.121H66.04"/>
	<line class="st1" x1="103.601" y1="797.771" x2="127.56" y2="797.771"/>
	<polyline class="st1" points="79.902,634.419 79.902,615.892 48.308,615.892 48.308,634.766 	"/>
	<line class="st1" x1="127.324" y1="615.719" x2="0.75" y2="615.719"/>
	<polyline class="st1" points="85.517,588.905 92.294,588.905 92.294,550.504 92.294,518.584 58.935,518.584 58.935,508.246 
		50.947,508.246 50.947,505.27 31.684,505.27 31.684,592.98 	"/>
	<line class="st1" x1="117.189" y1="550.755" x2="92.294" y2="550.755"/>
	<polyline class="st1" points="127.389,485.392 119.13,485.392 112.132,493.63 112.132,532.63 119.507,540.255 127.007,540.255 	"/>
	<polygon class="st1" points="79.139,466.305 75.007,472.505 56.132,472.63 56.257,451.755 83.007,451.755 83.007,457.88 	"/>
	<polyline class="st1" points="0.628,443.755 36.095,443.755 127.125,443.755 	"/>
	<polygon class="st1" points="45.444,648.256 83.471,648.256 83.471,657.462 45.389,657.462 	"/>
	<line class="st1" x1="54.91" y1="648.147" x2="54.91" y2="657.408"/>
	<line class="st1" x1="64.43" y1="648.147" x2="64.43" y2="657.408"/>
	<line class="st1" x1="73.951" y1="648.147" x2="73.951" y2="657.408"/>
	<polygon class="st1" points="45.444,271.645 83.471,271.645 83.471,280.851 45.389,280.851 	"/>
	<line class="st1" x1="54.91" y1="271.535" x2="54.91" y2="280.796"/>
	<line class="st1" x1="64.43" y1="271.535" x2="64.43" y2="280.796"/>
	<line class="st1" x1="73.951" y1="271.535" x2="73.951" y2="280.796"/>
	<polygon class="st1" points="64.347,884.849 73.868,884.849 73.868,894.055 64.333,894.055 	"/>
	<line class="st1" x1="59.017" y1="473.07" x2="59.017" y2="509.244"/>
	<polyline class="st1" points="40.289,443.517 40.289,451.082 45.254,451.082 45.254,482.764 50.928,482.764 50.928,506.879 	"/>
	<path class="st1" d="M117.039,551.271v-5.975l-9.408-9.113v-27.264c0,0,0.17-2.898-0.427-5.37
		c-2.558-4.944-8.353-3.495-8.353-3.495s-9.377,1.96-16.708-0.17c-3.58-0.682-11.509-5.797-11.509-5.797s-1.278-1.705-2.558-1.278
		c-2.131,0.171-1.533,2.983-1.533,2.983h-7.161"/>
	<path class="st1" d="M64.887,282.331H86.94v-59.816l10.301-10.301v-17.71h-6.923c0,0,0.173,12.731,0.105,13.597
		c-0.276,3.501-5.265,3.132-5.265,3.132H72.249H56.893H43.984c0,0-5.344,0.829-5.62-2.672c-0.068-0.866,0.46-14.058,0.46-14.058
		h-6.923v17.71l10.301,10.301v59.816H64.887z"/>
	<path class="st1" d="M19.314,126.016l-9.758,45.179c0,0,8.995,5.561,17.648,10.368l4.698,12.941"/>
	<path class="st1" d="M109.609,125.837l9.759,45.897c0,0-6.701,3.503-18.086,9.322l-4.041,13.447"/>
	<line class="st1" x1="42.452" y1="248.355" x2="87.088" y2="248.355"/>
	<polyline class="st1" points="110.909,415.585 33.809,415.591 33.762,415.591 33.762,443.267 	"/>
	<polyline class="st1" points="0.749,313.832 51.56,313.832 51.56,319.989 78.79,319.989 78.79,313.548 83.781,313.548 	"/>
	<polygon class="st1" points="83.82,313.548 78.79,313.548 78.79,320.195 51.56,320.195 51.56,313.832 42.311,313.832 
		42.311,290.745 48.765,290.745 48.765,311.88 77.412,311.88 77.412,290.898 83.82,290.898 	"/>
	<path class="st1" d="M8.718,125.629h20.297v-2.927h8.198c0,0,2.589-0.144,3.596,1.294c0.933,1.333,10.878,9.085,21.143,9.303
		l4.32-0.004c10.212-0.289,20.064-7.973,20.993-9.299c1.007-1.438,3.596-1.294,3.596-1.294h8.858v2.876h20.065"/>
	<polyline class="st1" points="0.819,689.976 37.633,689.976 37.633,701.501 100.082,701.501 100.082,711.351 108.674,711.351 
		108.674,722.876 127.348,722.876 	"/>
	<path class="st1" d="M60.929,180.798c1.06,0.086,2.152,0.162,3.278,0.228"/>
	<path class="st1" d="M32.963,122.982v14.619l-6.736,5.016l7.883,11.036l-5.733,16.911c0,0,5.965,8.084,32.552,10.234"/>
	<path class="st1" d="M94.732,122.982v14.619l6.736,5.016l-7.883,11.036l5.733,16.911c0,0-6.45,8.742-35.83,10.462"/>
	<rect x="84.154" y="605.409" class="st1" width="21.339" height="10.311"/>
	<rect x="84.154" y="615.719" class="st1" width="21.339" height="10.311"/>
	<path class="st1" d="M68,495.861c-0.599-0.127-0.981-0.716-0.854-1.315c0.127-0.599,0.716-0.982,1.314-0.855
		c0.6,0.126,0.982,0.716,0.855,1.315C69.189,495.604,68.6,495.988,68,495.861z"/>
	<path class="st1" d="M69.008,494.492c0,0-2.083,7.841-1.975,8.626c0,0-0.441,1.453,4.385,1.031l4.05-0.26"/>
	<line class="st1" x1="59.033" y1="498.065" x2="67.9" y2="498.065"/>
	<line class="st1" x1="59.099" y1="500.536" x2="67.502" y2="500.536"/>
	<line class="st1" x1="58.967" y1="503.006" x2="67.172" y2="503.006"/>
	<line class="st1" x1="85.826" y1="588.905" x2="85.826" y2="605.662"/>
	<line class="st1" x1="31.659" y1="589.282" x2="31.659" y2="616.104"/>
	<line class="st1" x1="38.537" y1="939.315" x2="0.535" y2="939.315"/>
	<polyline class="st1" points="103.627,995.02 114.54,995.02 114.54,1014.931 104.106,1014.931 	"/>
	<line class="st1" x1="119.422" y1="995.694" x2="119.422" y2="1016.082"/>
	<line class="st1" x1="114.594" y1="997.512" x2="119.38" y2="997.512"/>
	<line class="st1" x1="114.594" y1="999.139" x2="119.38" y2="999.139"/>
	<line class="st1" x1="114.594" y1="1000.767" x2="119.38" y2="1000.767"/>
	<line class="st1" x1="114.594" y1="1004.022" x2="119.38" y2="1004.022"/>
	<line class="st1" x1="114.594" y1="1005.649" x2="119.38" y2="1005.649"/>
	<line class="st1" x1="114.498" y1="1007.276" x2="119.285" y2="1007.276"/>
	<line class="st1" x1="114.498" y1="1008.904" x2="119.285" y2="1008.904"/>
	<line class="st1" x1="114.211" y1="1010.531" x2="118.998" y2="1010.531"/>
	<line class="st1" x1="114.116" y1="1012.159" x2="118.902" y2="1012.159"/>
	<line class="st1" x1="114.594" y1="1013.786" x2="119.38" y2="1013.786"/>
	<line class="st1" x1="114.625" y1="1002.394" x2="119.412" y2="1002.394"/>
	<polyline class="st1" points="24.056,995.02 13.144,995.02 13.144,1014.931 23.578,1014.931 	"/>
	<line class="st1" x1="8.261" y1="995.694" x2="8.261" y2="1016.082"/>
	<line class="st1" x1="13.089" y1="997.512" x2="8.303" y2="997.512"/>
	<line class="st1" x1="13.089" y1="999.139" x2="8.303" y2="999.139"/>
	<line class="st1" x1="13.089" y1="1000.767" x2="8.303" y2="1000.767"/>
	<line class="st1" x1="13.089" y1="1004.022" x2="8.303" y2="1004.022"/>
	<line class="st1" x1="13.089" y1="1005.649" x2="8.303" y2="1005.649"/>
	<line class="st1" x1="13.185" y1="1007.276" x2="8.399" y2="1007.276"/>
	<line class="st1" x1="13.185" y1="1008.904" x2="8.399" y2="1008.904"/>
	<line class="st1" x1="13.472" y1="1010.531" x2="8.686" y2="1010.531"/>
	<line class="st1" x1="13.568" y1="1012.159" x2="8.782" y2="1012.159"/>
	<line class="st1" x1="13.089" y1="1013.786" x2="8.303" y2="1013.786"/>
	<line class="st1" x1="13.058" y1="1002.394" x2="8.272" y2="1002.394"/>
	<line class="st1" x1="104.011" y1="798.108" x2="104.011" y2="903.367"/>
	<polyline class="st1" points="24.623,313.626 24.623,291.362 0.59,291.362 	"/>
	<line class="st1" x1="24.877" y1="302.245" x2="0.336" y2="302.245"/>
	<polyline class="st1" points="73.706,415.585 114.146,415.585 114.146,443.779 	"/>
	<line class="st1" x1="106.342" y1="201.975" x2="126.582" y2="201.975"/>
	<polyline class="st1" points="125.823,179.033 106.341,179.033 106.341,216.223 127.078,216.223 	"/>
	<line class="st1" x1="106.342" y1="194.086" x2="126.582" y2="194.086"/>
	<line class="st1" x1="86.861" y1="225.352" x2="86.861" y2="210.982"/>
	<line class="st1" x1="42.217" y1="225.079" x2="42.217" y2="211.365"/>
	<line class="st1" x1="102.516" y1="658.211" x2="127.016" y2="658.211"/>
	<polyline class="st1" points="31.559,614.292 31.559,661.797 102.516,661.797 102.516,657.841 	"/>
	<path class="st1" d="M117.006,549.306v48.401v2.539c-0.746,5.527-4.482,5.139-4.482,5.139h-6.871"/>
	<polyline class="st1" points="84.438,307.051 104.955,307.051 104.955,314.477 114.31,314.477 114.31,295.069 127.113,295.069 	"/>
	<polyline class="st1" points="0.914,220.685 32.428,220.685 32.428,270.112 0.769,270.112 	"/>
	<line class="st1" x1="32.517" y1="247.892" x2="0.984" y2="247.892"/>
	<line class="st1" x1="24.031" y1="220.828" x2="24.031" y2="183.697"/>
	<line class="st1" x1="24.031" y1="183.697" x2="1.74" y2="183.697"/>
	<line class="st1" x1="45.972" y1="648.455" x2="54.904" y2="657.22"/>
	<line class="st1" x1="54.904" y1="648.455" x2="45.972" y2="657.22"/>
	<line class="st1" x1="55.177" y1="648.455" x2="64.109" y2="657.22"/>
	<line class="st1" x1="64.109" y1="648.455" x2="55.177" y2="657.22"/>
	<line class="st1" x1="64.766" y1="648.455" x2="73.698" y2="657.22"/>
	<line class="st1" x1="73.698" y1="648.455" x2="64.766" y2="657.22"/>
	<line class="st1" x1="74.519" y1="648.455" x2="83.451" y2="657.22"/>
	<line class="st1" x1="83.451" y1="648.455" x2="74.519" y2="657.22"/>
	<line class="st1" x1="45.972" y1="271.843" x2="54.904" y2="280.608"/>
	<line class="st1" x1="54.904" y1="271.843" x2="45.972" y2="280.608"/>
	<line class="st1" x1="55.177" y1="271.843" x2="64.109" y2="280.608"/>
	<line class="st1" x1="64.109" y1="271.843" x2="55.177" y2="280.608"/>
	<line class="st1" x1="64.766" y1="271.843" x2="73.698" y2="280.608"/>
	<line class="st1" x1="73.698" y1="271.843" x2="64.766" y2="280.608"/>
	<line class="st1" x1="74.519" y1="271.843" x2="83.451" y2="280.608"/>
	<line class="st1" x1="83.451" y1="271.843" x2="74.519" y2="280.608"/>
	<line class="st1" x1="64.615" y1="885.047" x2="73.546" y2="893.813"/>
	<line class="st1" x1="73.546" y1="885.047" x2="64.615" y2="893.813"/>
	<path class="st1" d="M70.545,292.407c-0.313,0-0.566,0.269-0.566,0.607"/>
	<line class="st1" x1="77.39" y1="292.407" x2="70.545" y2="292.407"/>
	<line class="st1" x1="69.979" y1="293.014" x2="69.979" y2="295.364"/>
	<line class="st1" x1="69.979" y1="295.364" x2="56.524" y2="295.364"/>
	<path class="st1" d="M56.524,293.014c0-0.338-0.249-0.607-0.562-0.607"/>
	<line class="st1" x1="56.524" y1="295.364" x2="56.524" y2="293.014"/>
	<line class="st1" x1="55.962" y1="292.407" x2="49.076" y2="292.407"/>
	<line class="st1" x1="63.403" y1="306.899" x2="63.403" y2="292.19"/>
	<line class="st1" x1="63.13" y1="306.899" x2="63.13" y2="292.19"/>
	<line class="st1" x1="77.072" y1="306.147" x2="63.403" y2="306.147"/>
	<line class="st1" x1="63.403" y1="292.19" x2="63.13" y2="292.19"/>
	<line class="st1" x1="63.403" y1="306.899" x2="63.13" y2="306.899"/>
	<line class="st1" x1="63.13" y1="306.147" x2="48.969" y2="306.147"/>
	<line class="st1" x1="63.13" y1="304.589" x2="57.107" y2="304.589"/>
	<line class="st1" x1="63.13" y1="303.03" x2="57.107" y2="303.03"/>
	<line class="st1" x1="63.13" y1="301.471" x2="57.107" y2="301.471"/>
	<line class="st1" x1="63.13" y1="299.911" x2="57.107" y2="299.911"/>
	<line class="st1" x1="63.13" y1="298.352" x2="57.107" y2="298.352"/>
	<line class="st1" x1="63.13" y1="296.792" x2="57.107" y2="296.792"/>
	<line class="st1" x1="63.13" y1="293.675" x2="56.561" y2="293.675"/>
	<line class="st1" x1="69.426" y1="304.589" x2="63.403" y2="304.589"/>
	<line class="st1" x1="69.426" y1="303.03" x2="63.403" y2="303.03"/>
	<line class="st1" x1="69.426" y1="301.471" x2="63.403" y2="301.471"/>
	<line class="st1" x1="69.426" y1="299.911" x2="63.403" y2="299.911"/>
	<line class="st1" x1="69.426" y1="298.352" x2="63.403" y2="298.352"/>
	<line class="st1" x1="69.426" y1="296.792" x2="63.403" y2="296.792"/>
	<line class="st1" x1="70.021" y1="293.675" x2="63.403" y2="293.675"/>
	<line class="st1" x1="48.919" y1="293.942" x2="56.011" y2="293.942"/>
	<line class="st1" x1="49.016" y1="295.481" x2="56.755" y2="295.481"/>
	<line class="st1" x1="48.872" y1="297.014" x2="56.011" y2="297.014"/>
	<line class="st1" x1="49.016" y1="298.55" x2="55.983" y2="298.55"/>
	<line class="st1" x1="69.962" y1="293.942" x2="77.264" y2="293.942"/>
	<line class="st1" x1="69.915" y1="295.481" x2="77.314" y2="295.481"/>
	<line class="st1" x1="70.521" y1="297.014" x2="77.362" y2="297.014"/>
	<line class="st1" x1="70.521" y1="298.55" x2="77.314" y2="298.55"/>
	<path class="st1" d="M55.918,307.075c0,0.324,0.246,0.588,0.548,0.588c0.303,0,0.547-0.264,0.547-0.588l0,0"/>
	<line class="st1" x1="57.013" y1="307.075" x2="57.013" y2="306.899"/>
	<line class="st1" x1="55.918" y1="307.075" x2="55.918" y2="306.899"/>
	<path class="st1" d="M69.426,307.075c0,0.324,0.244,0.588,0.544,0.588c0.305,0,0.551-0.264,0.551-0.588l0,0"/>
	<line class="st1" x1="70.521" y1="307.075" x2="70.521" y2="306.899"/>
	<line class="st1" x1="69.426" y1="307.075" x2="69.426" y2="306.899"/>
	<line class="st1" x1="56.473" y1="306.899" x2="56.473" y2="295.512"/>
	<line class="st1" x1="49.065" y1="301.624" x2="56.011" y2="301.624"/>
	<line class="st1" x1="49.065" y1="303.157" x2="56.011" y2="303.157"/>
	<line class="st1" x1="49.112" y1="304.696" x2="56.011" y2="304.696"/>
	<line class="st1" x1="49.016" y1="300.085" x2="56.011" y2="300.085"/>
	<line class="st1" x1="69.963" y1="306.899" x2="69.963" y2="295.305"/>
	<line class="st1" x1="70.521" y1="301.624" x2="77.264" y2="301.624"/>
	<line class="st1" x1="70.521" y1="303.157" x2="77.216" y2="303.157"/>
	<line class="st1" x1="70.521" y1="304.696" x2="77.169" y2="304.696"/>
	<line class="st1" x1="70.444" y1="300.085" x2="77.412" y2="300.085"/>
	<path class="st1" d="M56.079,632.697c0.347,0,0.627-0.256,0.627-0.578"/>
	<line class="st1" x1="48.5" y1="632.697" x2="56.079" y2="632.697"/>
	<line class="st1" x1="56.706" y1="632.119" x2="56.706" y2="629.878"/>
	<line class="st1" x1="56.706" y1="629.878" x2="71.601" y2="629.878"/>
	<path class="st1" d="M71.601,632.119c0,0.322,0.276,0.578,0.622,0.578"/>
	<line class="st1" x1="71.601" y1="629.878" x2="71.601" y2="632.119"/>
	<line class="st1" x1="72.223" y1="632.697" x2="79.847" y2="632.697"/>
	<line class="st1" x1="63.985" y1="618.884" x2="63.985" y2="632.904"/>
	<line class="st1" x1="64.289" y1="618.884" x2="64.289" y2="632.904"/>
	<line class="st1" x1="48.854" y1="619.601" x2="63.985" y2="619.601"/>
	<line class="st1" x1="63.985" y1="632.904" x2="64.289" y2="632.904"/>
	<line class="st1" x1="63.985" y1="618.884" x2="64.289" y2="618.884"/>
	<line class="st1" x1="64.289" y1="619.601" x2="79.966" y2="619.601"/>
	<line class="st1" x1="64.289" y1="621.085" x2="70.956" y2="621.085"/>
	<line class="st1" x1="64.289" y1="622.572" x2="70.956" y2="622.572"/>
	<line class="st1" x1="64.289" y1="624.058" x2="70.956" y2="624.058"/>
	<line class="st1" x1="64.289" y1="625.544" x2="70.956" y2="625.544"/>
	<line class="st1" x1="64.289" y1="627.031" x2="70.956" y2="627.031"/>
	<line class="st1" x1="64.289" y1="628.517" x2="70.956" y2="628.517"/>
	<line class="st1" x1="64.289" y1="631.488" x2="71.56" y2="631.488"/>
	<line class="st1" x1="57.317" y1="621.085" x2="63.985" y2="621.085"/>
	<line class="st1" x1="57.317" y1="622.572" x2="63.985" y2="622.572"/>
	<line class="st1" x1="57.317" y1="624.058" x2="63.985" y2="624.058"/>
	<line class="st1" x1="57.317" y1="625.544" x2="63.985" y2="625.544"/>
	<line class="st1" x1="57.317" y1="627.031" x2="63.985" y2="627.031"/>
	<line class="st1" x1="57.317" y1="628.517" x2="63.985" y2="628.517"/>
	<line class="st1" x1="56.659" y1="631.488" x2="63.985" y2="631.488"/>
	<line class="st1" x1="80.021" y1="631.234" x2="72.169" y2="631.234"/>
	<line class="st1" x1="79.915" y1="629.767" x2="71.346" y2="629.767"/>
	<line class="st1" x1="80.074" y1="628.306" x2="72.169" y2="628.306"/>
	<line class="st1" x1="79.915" y1="626.841" x2="72.201" y2="626.841"/>
	<line class="st1" x1="56.725" y1="631.234" x2="48.64" y2="631.234"/>
	<line class="st1" x1="56.777" y1="629.767" x2="48.585" y2="629.767"/>
	<line class="st1" x1="56.106" y1="628.306" x2="48.532" y2="628.306"/>
	<line class="st1" x1="56.106" y1="626.841" x2="48.585" y2="626.841"/>
	<path class="st1" d="M72.273,618.716c0-0.309-0.272-0.56-0.607-0.56c-0.335,0-0.605,0.252-0.605,0.56l0,0"/>
	<line class="st1" x1="71.06" y1="618.716" x2="71.06" y2="618.884"/>
	<line class="st1" x1="72.273" y1="618.716" x2="72.273" y2="618.884"/>
	<path class="st1" d="M57.317,618.716c0-0.309-0.27-0.56-0.602-0.56c-0.337,0-0.609,0.252-0.609,0.56l0,0"/>
	<line class="st1" x1="56.106" y1="618.716" x2="56.106" y2="618.884"/>
	<line class="st1" x1="57.317" y1="618.716" x2="57.317" y2="618.884"/>
	<line class="st1" x1="71.658" y1="618.884" x2="71.658" y2="629.738"/>
	<line class="st1" x1="79.86" y1="623.912" x2="72.169" y2="623.912"/>
	<line class="st1" x1="79.86" y1="622.451" x2="72.169" y2="622.451"/>
	<line class="st1" x1="79.807" y1="620.984" x2="72.169" y2="620.984"/>
	<line class="st1" x1="79.915" y1="625.378" x2="72.169" y2="625.378"/>
	<line class="st1" x1="56.723" y1="618.884" x2="56.723" y2="629.935"/>
	<line class="st1" x1="56.106" y1="623.912" x2="48.64" y2="623.912"/>
	<line class="st1" x1="56.106" y1="622.451" x2="48.693" y2="622.451"/>
	<line class="st1" x1="56.106" y1="620.984" x2="48.746" y2="620.984"/>
	<line class="st1" x1="56.191" y1="625.378" x2="48.477" y2="625.378"/>
	<path class="st1" d="M70.351,918.72c-0.256,0-0.463,0.268-0.463,0.606"/>
	<line class="st1" x1="75.935" y1="918.72" x2="70.351" y2="918.72"/>
	<line class="st1" x1="69.888" y1="919.326" x2="69.888" y2="921.677"/>
	<line class="st1" x1="69.888" y1="921.677" x2="58.912" y2="921.677"/>
	<path class="st1" d="M58.912,919.326c0-0.338-0.204-0.606-0.458-0.606"/>
	<line class="st1" x1="58.912" y1="921.677" x2="58.912" y2="919.326"/>
	<line class="st1" x1="58.453" y1="918.72" x2="52.835" y2="918.72"/>
	<line class="st1" x1="64.524" y1="933.211" x2="64.524" y2="918.502"/>
	<line class="st1" x1="64.301" y1="933.211" x2="64.301" y2="918.502"/>
	<line class="st1" x1="75.675" y1="932.459" x2="64.524" y2="932.459"/>
	<line class="st1" x1="64.524" y1="918.502" x2="64.301" y2="918.502"/>
	<line class="st1" x1="64.524" y1="933.211" x2="64.301" y2="933.211"/>
	<line class="st1" x1="64.301" y1="932.459" x2="52.747" y2="932.459"/>
	<line class="st1" x1="64.301" y1="930.902" x2="59.387" y2="930.902"/>
	<line class="st1" x1="64.301" y1="929.342" x2="59.387" y2="929.342"/>
	<line class="st1" x1="64.301" y1="927.783" x2="59.387" y2="927.783"/>
	<line class="st1" x1="64.301" y1="926.224" x2="59.387" y2="926.224"/>
	<line class="st1" x1="64.301" y1="924.664" x2="59.387" y2="924.664"/>
	<line class="st1" x1="64.301" y1="923.105" x2="59.387" y2="923.105"/>
	<line class="st1" x1="64.301" y1="919.988" x2="58.942" y2="919.988"/>
	<line class="st1" x1="69.438" y1="930.902" x2="64.524" y2="930.902"/>
	<line class="st1" x1="69.438" y1="929.342" x2="64.524" y2="929.342"/>
	<line class="st1" x1="69.438" y1="927.783" x2="64.524" y2="927.783"/>
	<line class="st1" x1="69.438" y1="926.224" x2="64.524" y2="926.224"/>
	<line class="st1" x1="69.438" y1="924.664" x2="64.524" y2="924.664"/>
	<line class="st1" x1="69.438" y1="923.105" x2="64.524" y2="923.105"/>
	<line class="st1" x1="69.923" y1="919.988" x2="64.524" y2="919.988"/>
	<line class="st1" x1="52.708" y1="920.254" x2="58.493" y2="920.254"/>
	<line class="st1" x1="52.786" y1="921.793" x2="59.1" y2="921.793"/>
	<line class="st1" x1="52.668" y1="923.326" x2="58.493" y2="923.326"/>
	<line class="st1" x1="52.786" y1="924.863" x2="58.47" y2="924.863"/>
	<line class="st1" x1="69.875" y1="920.254" x2="75.832" y2="920.254"/>
	<line class="st1" x1="69.836" y1="921.793" x2="75.873" y2="921.793"/>
	<line class="st1" x1="70.331" y1="923.326" x2="75.912" y2="923.326"/>
	<line class="st1" x1="70.331" y1="924.863" x2="75.873" y2="924.863"/>
	<path class="st1" d="M58.417,933.387c0,0.324,0.201,0.589,0.448,0.589c0.247,0,0.446-0.265,0.446-0.589l0,0"/>
	<line class="st1" x1="59.311" y1="933.387" x2="59.311" y2="933.211"/>
	<line class="st1" x1="58.417" y1="933.387" x2="58.417" y2="933.211"/>
	<path class="st1" d="M69.438,933.387c0,0.324,0.199,0.589,0.443,0.589c0.249,0,0.449-0.265,0.449-0.589l0,0"/>
	<line class="st1" x1="70.331" y1="933.387" x2="70.331" y2="933.211"/>
	<line class="st1" x1="69.438" y1="933.387" x2="69.438" y2="933.211"/>
	<line class="st1" x1="58.87" y1="933.211" x2="58.87" y2="921.824"/>
	<line class="st1" x1="52.826" y1="927.937" x2="58.493" y2="927.937"/>
	<line class="st1" x1="52.826" y1="929.469" x2="58.493" y2="929.469"/>
	<line class="st1" x1="52.865" y1="931.008" x2="58.493" y2="931.008"/>
	<line class="st1" x1="52.786" y1="926.398" x2="58.493" y2="926.398"/>
	<line class="st1" x1="69.875" y1="933.211" x2="69.875" y2="921.617"/>
	<line class="st1" x1="70.331" y1="927.937" x2="75.832" y2="927.937"/>
	<line class="st1" x1="70.331" y1="929.469" x2="75.793" y2="929.469"/>
	<line class="st1" x1="70.331" y1="931.008" x2="75.755" y2="931.008"/>
	<line class="st1" x1="70.268" y1="926.398" x2="75.953" y2="926.398"/>
	<path class="st2" d="M8.518,293.267h1.007c1,0,1.727,0.527,1.727,1.783v0.072c0,0.728-0.288,1.191-0.656,1.472l0.751,2.271h-1.039
		l-0.632-1.951H9.494v1.951H8.518V293.267z M9.542,296.033c0.424,0,0.735-0.248,0.735-0.903v-0.064c0-0.704-0.336-0.888-0.759-0.888
		H9.494v1.855H9.542z M11.702,293.267h1.008c1,0,1.727,0.527,1.727,1.783v0.072c0,0.728-0.288,1.191-0.656,1.472l0.751,2.271h-1.04
		l-0.631-1.951h-0.184v1.951h-0.976V293.267z M12.725,296.033c0.424,0,0.736-0.248,0.736-0.903v-0.064
		c0-0.704-0.336-0.888-0.76-0.888h-0.024v1.855H12.725z"/>
	<path class="st2" d="M8.518,304.192h1.007c1,0,1.727,0.527,1.727,1.783v0.072c0,0.728-0.288,1.191-0.656,1.472l0.751,2.271h-1.039
		l-0.632-1.951H9.494v1.951H8.518V304.192z M9.542,306.958c0.424,0,0.735-0.248,0.735-0.903v-0.064c0-0.704-0.336-0.888-0.759-0.888
		H9.494v1.855H9.542z M11.702,304.192h1.008c1,0,1.727,0.527,1.727,1.783v0.072c0,0.728-0.288,1.191-0.656,1.472l0.751,2.271h-1.04
		l-0.631-1.951h-0.184v1.951h-0.976V304.192z M12.725,306.958c0.424,0,0.736-0.248,0.736-0.903v-0.064
		c0-0.704-0.336-0.888-0.76-0.888h-0.024v1.855H12.725z"/>
	<path class="st2" d="M112.995,183.455h1.008c0.999,0,1.728,0.528,1.728,1.783v0.072c0,0.728-0.288,1.191-0.656,1.471l0.752,2.271
		h-1.04l-0.631-1.951h-0.185v1.951h-0.976V183.455z M114.018,186.221c0.424,0,0.736-0.248,0.736-0.903v-0.064
		c0-0.704-0.336-0.888-0.76-0.888h-0.024v1.855H114.018z M116.179,183.455h1.007c1,0,1.728,0.528,1.728,1.783v0.072
		c0,0.728-0.288,1.191-0.656,1.471l0.752,2.271h-1.039l-0.632-1.951h-0.184v1.951h-0.976V183.455z M117.203,186.221
		c0.424,0,0.735-0.248,0.735-0.903v-0.064c0-0.704-0.336-0.888-0.76-0.888h-0.023v1.855H117.203z"/>
	<path class="st2" d="M112.995,205.503h1.008c0.999,0,1.728,0.528,1.728,1.783v0.072c0,0.728-0.288,1.191-0.656,1.471l0.752,2.271
		h-1.04l-0.631-1.951h-0.185v1.951h-0.976V205.503z M114.018,208.27c0.424,0,0.736-0.248,0.736-0.903v-0.064
		c0-0.704-0.336-0.888-0.76-0.888h-0.024v1.855H114.018z M116.179,205.503h1.007c1,0,1.728,0.528,1.728,1.783v0.072
		c0,0.728-0.288,1.191-0.656,1.471l0.752,2.271h-1.039l-0.632-1.951h-0.184v1.951h-0.976V205.503z M117.203,208.27
		c0.424,0,0.735-0.248,0.735-0.903v-0.064c0-0.704-0.336-0.888-0.76-0.888h-0.023v1.855H117.203z"/>
	<path class="st2" d="M91.025,617.773l1.008,0.001c0.999,0.001,1.727,0.529,1.726,1.784v0.072c-0.001,0.728-0.289,1.191-0.657,1.471
		l0.75,2.271l-1.04-0.001l-0.63-1.951h-0.184l-0.002,1.95H91.02L91.025,617.773z M92.046,620.54c0.424,0,0.735-0.247,0.736-0.902
		v-0.064c0-0.703-0.335-0.888-0.759-0.888H92l-0.001,1.854H92.046z M94.209,617.776l1.008,0.001
		c0.999,0.001,1.727,0.529,1.726,1.784v0.072c-0.001,0.728-0.289,1.19-0.657,1.471l0.75,2.271l-1.039-0.001l-0.63-1.952h-0.185
		l-0.001,1.951l-0.976-0.001L94.209,617.776z M95.23,620.543c0.424,0,0.736-0.248,0.736-0.903v-0.063
		c0.001-0.704-0.335-0.888-0.759-0.889h-0.024l-0.001,1.855H95.23z"/>
	<path class="st2" d="M91.025,606.905l1.008,0.001c0.999,0.001,1.727,0.529,1.726,1.784v0.072c-0.001,0.728-0.289,1.191-0.657,1.471
		l0.75,2.271l-1.04-0.001l-0.63-1.951h-0.184l-0.002,1.95H91.02L91.025,606.905z M92.046,609.672c0.424,0,0.735-0.247,0.736-0.902
		v-0.064c0-0.703-0.335-0.888-0.759-0.888H92l-0.001,1.854H92.046z M94.209,606.908l1.008,0.001
		c0.999,0.001,1.727,0.529,1.726,1.784v0.072c-0.001,0.728-0.289,1.19-0.657,1.471l0.75,2.271l-1.039-0.001l-0.63-1.952h-0.185
		l-0.001,1.951l-0.976-0.001L94.209,606.908z M95.23,609.675c0.424,0,0.736-0.248,0.736-0.903v-0.063
		c0.001-0.704-0.335-0.888-0.759-0.889h-0.024l-0.001,1.855H95.23z"/>
	<path class="st2" d="M106.199,1001.474l1.008,0.001c0.999,0.001,1.727,0.529,1.726,1.784v0.072
		c-0.001,0.728-0.289,1.191-0.657,1.471l0.75,2.271l-1.04-0.001l-0.63-1.951h-0.184l-0.002,1.95h-0.976L106.199,1001.474z
		 M107.22,1004.242c0.424,0,0.735-0.247,0.736-0.902v-0.064c0-0.703-0.335-0.888-0.759-0.888h-0.024l-0.001,1.854H107.22z
		 M109.382,1001.477l1.008,0.001c0.999,0.001,1.727,0.529,1.726,1.784v0.072c-0.001,0.728-0.289,1.19-0.657,1.471l0.75,2.271
		l-1.039-0.001l-0.63-1.952h-0.185l-0.001,1.951l-0.976-0.001L109.382,1001.477z M110.404,1004.245c0.424,0,0.736-0.248,0.736-0.903
		v-0.063c0.001-0.704-0.335-0.888-0.759-0.889h-0.024l-0.001,1.855H110.404z"/>
	<path class="st2" d="M16.199,1001.474l1.007,0.001c1,0.001,1.727,0.529,1.726,1.784v0.072c0,0.728-0.289,1.191-0.657,1.471
		l0.75,2.271l-1.04-0.001l-0.63-1.951h-0.184l-0.002,1.95h-0.975L16.199,1001.474z M17.22,1004.242c0.424,0,0.736-0.247,0.736-0.902
		v-0.064c0.001-0.703-0.335-0.888-0.759-0.888h-0.024l-0.001,1.854H17.22z M19.383,1001.477l1.007,0.001
		c1,0.001,1.727,0.529,1.726,1.784v0.072c0,0.728-0.289,1.19-0.657,1.471l0.75,2.271l-1.039-0.001l-0.63-1.952h-0.184l-0.001,1.951
		l-0.975-0.001L19.383,1001.477z M20.404,1004.245c0.424,0,0.736-0.248,0.736-0.903v-0.063c0-0.704-0.335-0.888-0.759-0.889h-0.024
		l-0.001,1.855H20.404z"/>
	<path class="st2" d="M57.236,112.957v-1.016c0.344,0.2,0.616,0.312,0.88,0.312c0.28,0,0.52-0.136,0.52-0.479v-0.016
		c0-0.256-0.08-0.448-0.543-0.976c-0.664-0.751-0.936-1.111-0.936-1.791v-0.016c0-0.896,0.583-1.463,1.359-1.463
		c0.392,0,0.624,0.056,0.864,0.176v1.016c-0.304-0.176-0.488-0.256-0.744-0.256c-0.272,0-0.504,0.176-0.504,0.479v0.016
		c0,0.264,0.08,0.36,0.544,0.896c0.768,0.887,0.936,1.231,0.936,1.871v0.016c0,0.879-0.616,1.463-1.383,1.463
		C57.844,113.189,57.517,113.093,57.236,112.957z M60.356,108.479h-0.688v-0.927h2.351v0.927h-0.688v4.669h-0.976V108.479z
		 M62.972,107.536h1.039l1.063,5.613h-0.976l-0.184-1.111h-0.888l-0.176,1.111h-0.943L62.972,107.536z M63.771,111.158l-0.296-1.847
		l-0.304,1.847H63.771z M65.197,110.446v-0.192c0-1.807,0.768-2.742,1.871-2.742c0.295,0,0.543,0.064,0.743,0.16v1.016
		c-0.24-0.144-0.456-0.24-0.712-0.24c-0.56,0-0.911,0.56-0.911,1.767v0.272c0,1.463,0.432,1.799,0.831,1.799
		c0.032,0,0.04,0,0.088-0.008v-1.431h-0.479v-0.872h1.367v2.975c-0.352,0.152-0.64,0.24-1.016,0.24
		C66.004,113.189,65.197,112.397,65.197,110.446z M68.533,107.552h2.143v0.927h-1.167v1.391h1.031v0.928h-1.031v1.423h1.19v0.928
		h-2.166V107.552z"/>
	<path class="st2" d="M61.44,456.358v-0.144c0-1.475,0.545-2.057,1.229-2.057c0.204,0,0.324,0.024,0.479,0.096v0.756
		c-0.15-0.09-0.27-0.138-0.408-0.138c-0.324,0-0.558,0.288-0.558,1.337v0.156c0,1.109,0.234,1.337,0.569,1.337
		c0.114,0,0.258-0.042,0.408-0.132v0.72c-0.168,0.096-0.33,0.125-0.54,0.125C61.95,458.415,61.44,457.822,61.44,456.358z
		 M63.306,456.395v-0.216c0-1.385,0.45-2.051,1.115-2.051c0.666,0,1.116,0.666,1.116,2.051v0.216c0,1.385-0.45,2.051-1.116,2.051
		C63.756,458.445,63.306,457.78,63.306,456.395z M64.793,456.395v-0.216c0-1.079-0.149-1.379-0.372-1.379
		c-0.222,0-0.371,0.3-0.371,1.379v0.216c0,1.079,0.149,1.379,0.371,1.379C64.644,457.773,64.793,457.474,64.793,456.395z
		 M65.898,454.187h0.756c0.75,0,1.295,0.396,1.295,1.337v0.054c0,0.546-0.216,0.894-0.491,1.104l0.563,1.703h-0.779l-0.474-1.463
		H66.63v1.463h-0.732V454.187z M66.666,456.262c0.318,0,0.552-0.186,0.552-0.677v-0.048c0-0.527-0.252-0.666-0.569-0.666H66.63
		v1.391H66.666z M68.214,456.395v-0.216c0-1.385,0.45-2.051,1.115-2.051c0.666,0,1.115,0.666,1.115,2.051v0.216
		c0,1.385-0.449,2.051-1.115,2.051C68.665,458.445,68.214,457.78,68.214,456.395z M69.702,456.395v-0.216
		c0-1.079-0.15-1.379-0.372-1.379c-0.222,0-0.372,0.3-0.372,1.379v0.216c0,1.079,0.15,1.379,0.372,1.379
		C69.551,457.773,69.702,457.474,69.702,456.395z M70.806,454.187h0.684l0.737,2.123v-2.123h0.714v4.198h-0.647l-0.773-2.225v2.225
		h-0.714V454.187z M73.962,454.176h0.779l0.798,4.209h-0.732l-0.138-0.833h-0.665l-0.133,0.833h-0.707L73.962,454.176z
		 M74.562,456.892l-0.223-1.385l-0.228,1.385H74.562z M63.36,462.358v-0.144c0-1.475,0.546-2.057,1.229-2.057
		c0.204,0,0.324,0.024,0.48,0.096v0.756c-0.15-0.09-0.271-0.138-0.408-0.138c-0.324,0-0.558,0.288-0.558,1.337v0.156
		c0,1.109,0.233,1.337,0.569,1.337c0.114,0,0.258-0.042,0.408-0.132v0.72c-0.168,0.096-0.33,0.125-0.54,0.125
		C63.87,464.415,63.36,463.822,63.36,462.358z M65.46,460.187h0.731v4.198H65.46V460.187z M66.564,462.358v-0.144
		c0-1.355,0.576-2.057,1.403-2.057c0.222,0,0.408,0.048,0.558,0.12v0.762c-0.18-0.108-0.342-0.18-0.533-0.18
		c-0.42,0-0.684,0.419-0.684,1.325v0.204c0,1.098,0.323,1.35,0.623,1.35c0.024,0,0.03,0,0.066-0.006v-1.073h-0.359v-0.654h1.025
		v2.231c-0.265,0.114-0.48,0.18-0.762,0.18C67.17,464.415,66.564,463.822,66.564,462.358z M69.654,460.176h0.779l0.798,4.209H70.5
		l-0.138-0.833h-0.666l-0.132,0.833h-0.708L69.654,460.176z M70.253,462.892l-0.222-1.385l-0.228,1.385H70.253z M71.455,460.187
		h0.755c0.75,0,1.296,0.396,1.296,1.337v0.054c0,0.546-0.216,0.894-0.492,1.104l0.563,1.703h-0.779l-0.474-1.463h-0.138v1.463
		h-0.731V460.187z M72.222,462.262c0.317,0,0.552-0.186,0.552-0.677v-0.048c0-0.527-0.252-0.666-0.57-0.666h-0.018v1.391H72.222z
		 M63.78,468.358v-0.144c0-1.475,0.545-2.057,1.229-2.057c0.204,0,0.324,0.024,0.48,0.096v0.756c-0.15-0.09-0.271-0.138-0.408-0.138
		c-0.323,0-0.558,0.288-0.558,1.337v0.156c0,1.109,0.234,1.337,0.569,1.337c0.114,0,0.258-0.042,0.408-0.132v0.72
		c-0.168,0.096-0.33,0.125-0.54,0.125C64.291,470.415,63.78,469.822,63.78,468.358z M65.869,466.187H66.6v3.502h0.773v0.696h-1.505
		V466.187z M67.596,469.162v-2.975h0.726v3.046c0,0.378,0.132,0.528,0.318,0.528c0.186,0,0.317-0.15,0.317-0.528v-3.046h0.726v2.975
		c0,0.881-0.443,1.277-1.043,1.277S67.596,470.043,67.596,469.162z M70.104,466.187h0.636c0.708,0,1.367,0.288,1.367,1.067v0.03
		c0,0.54-0.306,0.803-0.605,0.947c0.354,0.156,0.659,0.402,0.659,0.936v0.054c0,0.744-0.575,1.164-1.391,1.164h-0.666V466.187z
		 M70.848,467.951c0.323,0,0.539-0.186,0.539-0.552v-0.012c0-0.366-0.216-0.521-0.539-0.521h-0.013v1.085H70.848z M70.854,469.707
		c0.336,0,0.575-0.198,0.575-0.545v-0.03c0-0.348-0.239-0.545-0.575-0.545h-0.019v1.121H70.854z"/>
	<path class="st2" d="M61.103,506.41h0.726l0.516,1.535l0.516-1.535h0.726v4.198h-0.702v-2.537l-0.534,1.589h-0.012l-0.534-1.589
		v2.537h-0.702V506.41z M64.606,506.398h0.779l0.798,4.209h-0.731l-0.138-0.833h-0.666l-0.132,0.833h-0.708L64.606,506.398z
		 M65.206,509.114l-0.222-1.385l-0.228,1.385H65.206z M66.274,508.581v-0.144c0-1.355,0.576-2.057,1.403-2.057
		c0.223,0,0.408,0.048,0.558,0.12v0.762c-0.18-0.108-0.342-0.18-0.533-0.18c-0.42,0-0.684,0.419-0.684,1.325v0.204
		c0,1.098,0.323,1.35,0.624,1.35c0.023,0,0.029,0,0.065-0.006v-1.073h-0.359v-0.654h1.025v2.231c-0.265,0.114-0.48,0.18-0.762,0.18
		C66.88,510.637,66.274,510.044,66.274,508.581z M68.776,506.41h0.684l0.738,2.123v-2.123h0.714v4.198h-0.648l-0.773-2.225v2.225
		h-0.714V506.41z M71.333,509.384v-2.975h0.726v3.046c0,0.378,0.132,0.528,0.317,0.528c0.187,0,0.318-0.15,0.318-0.528v-3.046h0.726
		v2.975c0,0.881-0.444,1.277-1.044,1.277S71.333,510.266,71.333,509.384z M73.84,506.41h0.726l0.516,1.535l0.516-1.535h0.726v4.198
		h-0.701v-2.537l-0.534,1.589h-0.012l-0.534-1.589v2.537H73.84V506.41z M76.69,507.921c0.444-0.096,0.534-0.414,0.504-0.678h-0.372
		v-0.833h0.828v0.684c0,0.636-0.306,1.043-0.899,1.122L76.69,507.921z M78.016,510.463v-0.761c0.258,0.15,0.462,0.234,0.659,0.234
		c0.21,0,0.391-0.102,0.391-0.36v-0.012c0-0.192-0.061-0.336-0.408-0.731c-0.498-0.564-0.701-0.833-0.701-1.343v-0.012
		c0-0.671,0.438-1.097,1.02-1.097c0.293,0,0.467,0.042,0.647,0.132v0.762c-0.229-0.132-0.366-0.192-0.558-0.192
		c-0.204,0-0.378,0.132-0.378,0.359v0.012c0,0.198,0.06,0.27,0.407,0.672c0.576,0.666,0.702,0.923,0.702,1.403v0.012
		c0,0.66-0.462,1.097-1.038,1.097C78.472,510.637,78.226,510.565,78.016,510.463z M80.938,508.581v-0.144
		c0-1.475,0.546-2.057,1.229-2.057c0.204,0,0.324,0.024,0.479,0.096v0.756c-0.149-0.09-0.27-0.138-0.407-0.138
		c-0.324,0-0.558,0.288-0.558,1.337v0.156c0,1.109,0.233,1.337,0.569,1.337c0.114,0,0.258-0.042,0.407-0.132v0.719
		c-0.167,0.096-0.329,0.126-0.539,0.126C81.448,510.637,80.938,510.044,80.938,508.581z M83.026,506.41h0.731v1.739h0.636v-1.739
		h0.731v4.198h-0.731v-1.763h-0.636v1.763h-0.731V506.41z M86.146,506.398h0.779l0.798,4.209h-0.731l-0.139-0.833h-0.665
		l-0.132,0.833h-0.708L86.146,506.398z M86.746,509.114l-0.222-1.385l-0.229,1.385H86.746z M87.946,506.41h0.726l0.516,1.535
		l0.516-1.535h0.726v4.198h-0.701v-2.537l-0.534,1.589h-0.012l-0.533-1.589v2.537h-0.702V506.41z M90.862,506.41h0.653
		c0.798,0,1.355,0.432,1.355,1.415v0.012c0,0.948-0.527,1.397-1.271,1.451h-0.006v1.319h-0.731V506.41z M91.599,508.61
		c0.307-0.018,0.54-0.24,0.54-0.75v-0.012c0-0.534-0.204-0.762-0.521-0.762h-0.024v1.523H91.599z M93.549,506.398h0.78l0.797,4.209
		h-0.731l-0.138-0.833h-0.666l-0.132,0.833h-0.707L93.549,506.398z M94.149,509.114l-0.222-1.385l-0.228,1.385H94.149z
		 M95.218,508.581v-0.144c0-1.355,0.575-2.057,1.403-2.057c0.222,0,0.407,0.048,0.558,0.12v0.762c-0.18-0.108-0.342-0.18-0.534-0.18
		c-0.42,0-0.684,0.419-0.684,1.325v0.204c0,1.098,0.324,1.35,0.624,1.35c0.023,0,0.03,0,0.065-0.006v-1.073h-0.359v-0.654h1.025
		v2.231c-0.264,0.114-0.479,0.18-0.762,0.18C95.824,510.637,95.218,510.044,95.218,508.581z M97.72,506.41h0.684l0.737,2.123v-2.123
		h0.714v4.198h-0.647l-0.774-2.225v2.225H97.72V506.41z M100.288,506.41h1.607v0.696h-0.875v1.043h0.773v0.695h-0.773v1.067h0.893
		v0.696h-1.625V506.41z M71.092,515.534v-0.036c0-0.51,0.24-0.888,0.642-1.235c-0.233-0.378-0.354-0.66-0.354-0.954v-0.042
		c0-0.503,0.348-0.917,0.869-0.917c0.51,0,0.846,0.372,0.846,0.912v0.042c0,0.48-0.228,0.815-0.594,1.127l0.378,0.72
		c0.03-0.132,0.054-0.312,0.09-0.564l0.563,0.102c-0.054,0.474-0.149,0.81-0.27,1.08l0.348,0.593l-0.527,0.324l-0.204-0.372
		c-0.198,0.222-0.414,0.354-0.779,0.354C71.56,516.667,71.092,516.218,71.092,515.534z M72.568,515.834l-0.528-1.043
		c-0.155,0.192-0.245,0.444-0.245,0.653v0.048c0,0.324,0.155,0.54,0.396,0.54C72.345,516.032,72.465,515.96,72.568,515.834z
		 M72.213,513.939c0.187-0.18,0.258-0.396,0.258-0.618v-0.048c0-0.204-0.096-0.336-0.233-0.336c-0.144,0-0.234,0.132-0.234,0.312
		v0.06C72.003,513.477,72.07,513.663,72.213,513.939z M74.59,512.41h0.75l0.306,2.573l0.365-2.573h0.678l0.36,2.573l0.312-2.573
		h0.731l-0.636,4.21h-0.768l-0.348-2.489l-0.348,2.489h-0.768L74.59,512.41z M78.352,512.41h0.731v4.198h-0.731V512.41z
		 M79.528,512.41h0.684l0.738,2.123v-2.123h0.713v4.198h-0.647l-0.773-2.225v2.225h-0.714V512.41z M82.096,512.41h1.607v0.696
		h-0.876v1.043h0.773v0.695h-0.773v1.067h0.894v0.696h-1.625V512.41z M85.03,512.41h0.636c0.708,0,1.367,0.288,1.367,1.067v0.03
		c0,0.54-0.306,0.803-0.605,0.947c0.354,0.156,0.659,0.402,0.659,0.936v0.054c0,0.744-0.575,1.164-1.391,1.164H85.03V512.41z
		 M85.774,514.173c0.323,0,0.539-0.186,0.539-0.552v-0.012c0-0.366-0.216-0.521-0.539-0.521h-0.013v1.085H85.774z M85.78,515.93
		c0.336,0,0.575-0.198,0.575-0.545v-0.03c0-0.348-0.239-0.545-0.575-0.545h-0.019v1.121H85.78z M87.952,512.398h0.779l0.798,4.209
		h-0.731l-0.138-0.833h-0.666l-0.132,0.833h-0.708L87.952,512.398z M88.551,515.114l-0.222-1.385l-0.228,1.385H88.551z
		 M89.752,512.41h0.755c0.75,0,1.296,0.396,1.296,1.337v0.054c0,0.546-0.216,0.894-0.492,1.104l0.563,1.703h-0.779l-0.474-1.463
		h-0.138v1.463h-0.731V512.41z M90.52,514.484c0.317,0,0.552-0.186,0.552-0.677v-0.048c0-0.527-0.252-0.666-0.57-0.666h-0.018v1.391
		H90.52z"/>
	<path class="st2" d="M97.637,598.894v-0.968l2.047-0.688l-2.047-0.688v-0.968h5.597v0.936h-3.382l2.118,0.712v0.016l-2.118,0.712
		h3.382v0.936H97.637z M97.621,594.222v-1.039l5.613-1.063v0.976l-1.111,0.184v0.888l1.111,0.176v0.943L97.621,594.222z
		 M101.243,593.423l-1.847,0.296l1.847,0.304V593.423z M97.637,591.822v-0.975h4.669v-1.032h0.928v2.007H97.637z M98.564,589.182
		v0.688h-0.927v-2.352h0.927v0.688h4.67v0.976H98.564z M97.637,587.094v-0.976h5.597v0.976H97.637z M97.637,585.526v-0.911
		l2.83-0.983h-2.83v-0.951h5.597v0.863l-2.967,1.031h2.967v0.951H97.637z M100.532,582.199h-0.192c-1.807,0-2.742-0.768-2.742-1.871
		c0-0.296,0.063-0.544,0.16-0.744h1.015c-0.144,0.24-0.239,0.456-0.239,0.712c0,0.56,0.56,0.911,1.767,0.911h0.272
		c1.463,0,1.799-0.432,1.799-0.831c0-0.032,0-0.04-0.008-0.088h-1.432v0.479h-0.871V579.4h2.974c0.152,0.352,0.24,0.64,0.24,1.016
		C103.274,581.391,102.482,582.199,100.532,582.199z M103.042,578.982h-1.016c0.199-0.344,0.312-0.615,0.312-0.879
		c0-0.28-0.136-0.52-0.479-0.52h-0.017c-0.256,0-0.447,0.079-0.976,0.543c-0.751,0.664-1.111,0.936-1.791,0.936H99.06
		c-0.896,0-1.463-0.583-1.463-1.359c0-0.392,0.056-0.623,0.176-0.863h1.016c-0.176,0.304-0.256,0.488-0.256,0.744
		c0,0.271,0.176,0.503,0.479,0.503h0.016c0.265,0,0.36-0.079,0.896-0.543c0.888-0.768,1.231-0.936,1.871-0.936h0.017
		c0.879,0,1.463,0.615,1.463,1.383C103.274,578.374,103.178,578.703,103.042,578.982z M97.637,574.991v-0.848
		c0-0.943,0.384-1.823,1.423-1.823h0.04c0.72,0,1.071,0.408,1.264,0.808c0.208-0.472,0.535-0.88,1.247-0.88h0.072
		c0.991,0,1.551,0.768,1.551,1.855v0.888H97.637z M99.988,573.998c0-0.432-0.248-0.719-0.735-0.719h-0.017
		c-0.487,0-0.695,0.287-0.695,0.719v0.017h1.447V573.998z M102.331,573.991c0-0.447-0.264-0.768-0.728-0.768h-0.04
		c-0.464,0-0.728,0.32-0.728,0.768v0.024h1.495V573.991z M97.637,571.838v-2.143h0.927v1.167h1.392v-1.031h0.928v1.031h1.423v-1.191
		h0.928v2.167H97.637z M97.637,569.199v-2.143h0.927v1.167h1.392v-1.031h0.928v1.031h1.423v-1.191h0.928v2.167H97.637z
		 M97.637,566.559v-1.008c0-0.999,0.527-1.728,1.783-1.728h0.071c0.728,0,1.191,0.288,1.472,0.656l2.271-0.752v1.04l-1.951,0.631
		v0.185h1.951v0.976H97.637z M100.404,565.536c0-0.424-0.248-0.736-0.904-0.736h-0.063c-0.704,0-0.888,0.336-0.888,0.76v0.024h1.855
		V565.536z M101.802,562.287h-0.048c-0.68,0-1.183-0.32-1.646-0.855c-0.504,0.312-0.88,0.472-1.271,0.472h-0.056
		c-0.672,0-1.224-0.464-1.224-1.159c0-0.68,0.495-1.128,1.215-1.128h0.057c0.64,0,1.087,0.304,1.503,0.792l0.959-0.504
		c-0.176-0.04-0.415-0.072-0.751-0.12l0.136-0.751c0.632,0.071,1.079,0.199,1.439,0.359l0.791-0.464l0.432,0.704l-0.495,0.272
		c0.296,0.264,0.472,0.552,0.472,1.039C103.314,561.663,102.714,562.287,101.802,562.287z M99.676,560.791
		c-0.24-0.248-0.528-0.344-0.824-0.344h-0.063c-0.272,0-0.448,0.128-0.448,0.312c0,0.192,0.176,0.312,0.416,0.312h0.08
		C99.06,561.072,99.308,560.983,99.676,560.791z M102.203,560.32l-1.392,0.703c0.256,0.208,0.592,0.328,0.872,0.328h0.063
		c0.432,0,0.72-0.208,0.72-0.527C102.466,560.616,102.371,560.456,102.203,560.32z M105.637,594.374v-1l3.43-0.407l-3.43-0.488
		v-0.903l3.43-0.479l-3.43-0.416v-0.976l5.612,0.848v1.023l-3.317,0.464l3.317,0.464v1.023L105.637,594.374z M105.637,589.374
		v-0.976h2.318v-0.848h-2.318v-0.976h5.597v0.976h-2.351v0.848h2.351v0.976H105.637z M105.637,585.982v-0.975h5.597v0.975H105.637z
		 M111.042,584.535h-1.016c0.199-0.344,0.312-0.616,0.312-0.88c0-0.28-0.136-0.52-0.479-0.52h-0.017
		c-0.256,0-0.447,0.08-0.976,0.544c-0.751,0.663-1.111,0.936-1.791,0.936h-0.016c-0.896,0-1.463-0.584-1.463-1.359
		c0-0.393,0.056-0.624,0.176-0.864h1.016c-0.176,0.304-0.256,0.488-0.256,0.744c0,0.271,0.176,0.504,0.479,0.504h0.016
		c0.265,0,0.36-0.08,0.896-0.544c0.888-0.768,1.231-0.936,1.871-0.936h0.017c0.879,0,1.463,0.615,1.463,1.383
		C111.274,583.926,111.178,584.254,111.042,584.535z M105.637,581.814v-0.975h2.343l-2.343-0.792v-1.104l2.366,0.943l3.23-0.959
		v1.087l-2.119,0.607l0.616,0.217h1.503v0.975H105.637z M105.637,578.59v-2.143h0.927v1.167h1.392v-1.031h0.928v1.031h1.423v-1.191
		h0.928v2.167H105.637z M109.027,575.199l-3.39,1.04v-1.008l2.095-0.527l-2.095-0.536v-0.983l3.39,1.039h2.207v0.976H109.027z
		 M105.637,571.622v-0.848c0-0.943,0.384-1.823,1.423-1.823h0.04c0.72,0,1.071,0.408,1.264,0.808
		c0.208-0.472,0.535-0.879,1.247-0.879h0.072c0.991,0,1.551,0.768,1.551,1.854v0.888H105.637z M107.988,570.631
		c0-0.432-0.248-0.72-0.735-0.72h-0.017c-0.487,0-0.695,0.288-0.695,0.72v0.016h1.447V570.631z M110.331,570.623
		c0-0.448-0.264-0.768-0.728-0.768h-0.04c-0.464,0-0.728,0.319-0.728,0.768v0.023h1.495V570.623z M105.621,567.727v-1.039
		l5.613-1.063v0.975l-1.111,0.185v0.888l1.111,0.176v0.943L105.621,567.727z M109.243,566.927l-1.847,0.296l1.847,0.304V566.927z
		 M105.637,565.327v-1.008c0-0.999,0.527-1.727,1.783-1.727h0.071c0.728,0,1.191,0.288,1.472,0.655l2.271-0.751v1.039l-1.951,0.632
		v0.184h1.951v0.976H105.637z M108.404,564.303c0-0.424-0.248-0.735-0.904-0.735h-0.063c-0.704,0-0.888,0.336-0.888,0.76v0.023
		h1.855V564.303z"/>
	<path class="st2" d="M98.743,549.343h-0.762c0.149-0.258,0.233-0.462,0.233-0.659c0-0.21-0.102-0.39-0.359-0.39h-0.012
		c-0.192,0-0.336,0.06-0.732,0.408c-0.563,0.498-0.833,0.702-1.343,0.702h-0.012c-0.672,0-1.098-0.439-1.098-1.02
		c0-0.294,0.042-0.468,0.132-0.648h0.762c-0.132,0.228-0.192,0.366-0.192,0.558c0,0.204,0.132,0.378,0.36,0.378h0.012
		c0.198,0,0.27-0.061,0.672-0.408c0.665-0.576,0.923-0.702,1.403-0.702h0.012c0.659,0,1.098,0.462,1.098,1.038
		C98.917,548.888,98.844,549.133,98.743,549.343z M94.689,547.304v-0.732h1.738v-0.635h-1.738v-0.732h4.197v0.732h-1.763v0.635
		h1.763v0.732H94.689z M94.676,544.184v-0.78l4.21-0.797v0.731l-0.834,0.138v0.666l0.834,0.132v0.708L94.676,544.184z
		 M97.393,543.584l-1.386,0.222l1.386,0.228V543.584z M94.689,542.384v-0.732h1.757l-1.757-0.593v-0.828l1.774,0.708l2.423-0.72
		v0.815l-1.589,0.456l0.462,0.162h1.127v0.732H94.689z M94.689,539.966v-1.607h0.695v0.875h1.043v-0.773h0.696v0.773h1.067v-0.894
		h0.695v1.625H94.689z M94.689,537.986v-0.756c0-0.75,0.396-1.295,1.337-1.295h0.054c0.546,0,0.894,0.216,1.104,0.492l1.703-0.564
		v0.78l-1.463,0.474v0.138h1.463v0.731H94.689z M96.763,537.218c0-0.318-0.186-0.552-0.678-0.552h-0.048
		c-0.527,0-0.665,0.252-0.665,0.57v0.018h1.391V537.218z M98.743,535.687h-0.762c0.149-0.258,0.233-0.461,0.233-0.659
		c0-0.21-0.102-0.39-0.359-0.39h-0.012c-0.192,0-0.336,0.06-0.732,0.408c-0.563,0.498-0.833,0.702-1.343,0.702h-0.012
		c-0.672,0-1.098-0.438-1.098-1.02c0-0.293,0.042-0.467,0.132-0.647h0.762c-0.132,0.228-0.192,0.366-0.192,0.558
		c0,0.204,0.132,0.378,0.36,0.378h0.012c0.198,0,0.27-0.06,0.672-0.408c0.665-0.576,0.923-0.702,1.403-0.702h0.012
		c0.659,0,1.098,0.462,1.098,1.038C98.917,535.232,98.844,535.478,98.743,535.687z M94.689,532.694v-0.726l1.535-0.516l-1.535-0.516
		v-0.726h4.197v0.701H96.35l1.589,0.534v0.012l-1.589,0.534h2.536v0.702H94.689z M94.676,529.19v-0.779l4.21-0.797v0.731
		l-0.834,0.138v0.666l0.834,0.132v0.708L94.676,529.19z M97.393,528.59l-1.386,0.222l1.386,0.228V528.59z M94.689,527.39v-0.756
		c0-0.75,0.396-1.295,1.337-1.295h0.054c0.546,0,0.894,0.216,1.104,0.492l1.703-0.563v0.779l-1.463,0.474v0.138h1.463v0.732H94.689z
		 M96.763,526.622c0-0.318-0.186-0.552-0.678-0.552h-0.048c-0.527,0-0.665,0.251-0.665,0.569v0.018h1.391V526.622z M95.384,524.672
		v0.516h-0.695v-1.763h0.695v0.516h3.502v0.731H95.384z M94.689,523.106v-0.731h4.197v0.731H94.689z M94.689,521.93v-0.684
		l2.122-0.738h-2.122v-0.714h4.197v0.648l-2.225,0.773h2.225v0.714H94.689z M94.689,519.35v-0.731h4.197v0.731H94.689z
		 M103.813,547.582h-0.036c-0.51,0-0.888-0.24-1.235-0.642c-0.378,0.234-0.659,0.354-0.953,0.354h-0.042
		c-0.504,0-0.918-0.348-0.918-0.87c0-0.51,0.372-0.846,0.912-0.846h0.042c0.479,0,0.815,0.228,1.127,0.594l0.72-0.378
		c-0.132-0.03-0.312-0.054-0.563-0.09l0.102-0.563c0.474,0.054,0.81,0.15,1.079,0.27l0.594-0.348l0.324,0.528l-0.372,0.204
		c0.222,0.198,0.354,0.414,0.354,0.78C104.946,547.115,104.497,547.582,103.813,547.582z M102.217,546.461
		c-0.18-0.186-0.396-0.258-0.617-0.258h-0.048c-0.204,0-0.336,0.096-0.336,0.233c0,0.144,0.132,0.234,0.312,0.234h0.061
		C101.756,546.671,101.942,546.605,102.217,546.461z M104.113,546.107l-1.044,0.528c0.192,0.156,0.444,0.246,0.654,0.246h0.048
		c0.323,0,0.539-0.156,0.539-0.396C104.31,546.329,104.239,546.209,104.113,546.107z M102.859,543.958h-0.144
		c-1.476,0-2.057-0.545-2.057-1.229c0-0.204,0.023-0.324,0.096-0.48h0.756c-0.09,0.15-0.138,0.27-0.138,0.408
		c0,0.324,0.287,0.558,1.337,0.558h0.156c1.109,0,1.337-0.234,1.337-0.57c0-0.114-0.042-0.258-0.132-0.408h0.72
		c0.096,0.168,0.126,0.33,0.126,0.54C104.917,543.449,104.323,543.958,102.859,543.958z M102.895,542.093h-0.216
		c-1.385,0-2.051-0.45-2.051-1.115c0-0.666,0.666-1.116,2.051-1.116h0.216c1.386,0,2.051,0.45,2.051,1.116
		C104.946,541.643,104.281,542.093,102.895,542.093z M102.895,540.605h-0.216c-1.079,0-1.379,0.15-1.379,0.372
		c0,0.222,0.3,0.372,1.379,0.372h0.216c1.08,0,1.38-0.15,1.38-0.372C104.275,540.755,103.975,540.605,102.895,540.605z
		 M102.859,539.573h-0.144c-1.476,0-2.057-0.546-2.057-1.229c0-0.204,0.023-0.324,0.096-0.479h0.756
		c-0.09,0.15-0.138,0.27-0.138,0.408c0,0.324,0.287,0.558,1.337,0.558h0.156c1.109,0,1.337-0.234,1.337-0.57
		c0-0.114-0.042-0.258-0.132-0.408h0.72c0.096,0.168,0.126,0.33,0.126,0.54C104.917,539.063,104.323,539.573,102.859,539.573z
		 M100.689,537.485v-0.731h1.757l-1.757-0.594v-0.828l1.774,0.708l2.423-0.72v0.816l-1.589,0.456l0.462,0.162h1.127v0.731H100.689z
		 M101.384,534.797v0.516h-0.695v-1.763h0.695v0.516h3.502v0.731H101.384z M100.676,532.835v-0.779l4.21-0.798v0.732l-0.834,0.138
		v0.666l0.834,0.132v0.708L100.676,532.835z M103.393,532.235l-1.386,0.222l1.386,0.228V532.235z M100.689,531.023v-0.732h4.197
		v0.732H100.689z M100.689,529.847v-0.731h3.502v-0.773h0.695v1.505H100.689z M100.689,527.093v-0.636
		c0-0.708,0.287-1.367,1.067-1.367h0.029c0.54,0,0.804,0.306,0.948,0.606c0.155-0.354,0.401-0.66,0.935-0.66h0.055
		c0.743,0,1.163,0.576,1.163,1.391v0.666H100.689z M102.452,526.349c0-0.324-0.186-0.54-0.552-0.54h-0.012
		c-0.366,0-0.522,0.216-0.522,0.54v0.012h1.086V526.349z M104.209,526.343c0-0.336-0.198-0.576-0.546-0.576h-0.029
		c-0.349,0-0.546,0.24-0.546,0.576v0.018h1.121V526.343z M100.676,524.171v-0.78l4.21-0.797v0.731l-0.834,0.138v0.666l0.834,0.132
		v0.708L100.676,524.171z M103.393,523.571l-1.386,0.222l1.386,0.228V523.571z M100.689,522.371v-0.756
		c0-0.75,0.396-1.295,1.337-1.295h0.054c0.546,0,0.894,0.216,1.104,0.492l1.703-0.563v0.78l-1.463,0.474v0.138h1.463v0.732H100.689z
		 M102.763,521.603c0-0.318-0.186-0.552-0.678-0.552h-0.048c-0.527,0-0.665,0.251-0.665,0.569v0.018h1.391V521.603z"/>
	<path class="st2" d="M60.311,679.271h0.976v5.597h-0.976V679.271z M61.879,679.271h0.911l0.984,2.83v-2.83h0.951v5.597h-0.863
		l-1.032-2.967v2.967h-0.951V679.271z M65.302,679.271h0.912c1.247,0,1.959,0.903,1.959,2.702v0.192
		c0,1.799-0.712,2.702-1.959,2.702h-0.912V679.271z M66.318,683.972c0.464,0,0.863-0.408,0.863-1.807v-0.192
		c0-1.399-0.399-1.807-0.863-1.807h-0.04v3.806H66.318z M68.67,679.271h0.976v5.597H68.67V679.271z M70.143,682.165v-0.192
		c0-1.807,0.768-2.742,1.87-2.742c0.296,0,0.544,0.063,0.744,0.16v1.015c-0.24-0.144-0.456-0.239-0.712-0.239
		c-0.56,0-0.911,0.56-0.911,1.767v0.272c0,1.463,0.432,1.799,0.831,1.799c0.032,0,0.04,0,0.088-0.008v-1.432h-0.479v-0.871h1.367
		v2.974c-0.352,0.152-0.64,0.24-1.016,0.24C70.951,684.908,70.143,684.116,70.143,682.165z M73.382,682.213v-0.288
		c0-1.847,0.6-2.734,1.487-2.734s1.487,0.888,1.487,2.734v0.288c0,1.847-0.6,2.734-1.487,2.734S73.382,684.06,73.382,682.213z
		 M75.366,682.213v-0.288c0-1.439-0.2-1.839-0.496-1.839s-0.495,0.399-0.495,1.839v0.288c0,1.438,0.199,1.839,0.495,1.839
		S75.366,683.652,75.366,682.213z M46.055,687.271h0.967l0.688,2.047l0.688-2.047h0.968v5.597H48.43v-3.382l-0.711,2.118h-0.016
		l-0.712-2.118v3.382h-0.935V687.271z M50.727,687.254h1.04l1.063,5.613h-0.975l-0.184-1.111h-0.888l-0.176,1.111h-0.943
		L50.727,687.254z M51.526,690.876l-0.296-1.847l-0.304,1.847H51.526z M53.143,687.271h0.975v5.597h-0.975V687.271z M54.711,687.271
		h0.912l0.983,2.83v-2.83h0.951v5.597h-0.863l-1.032-2.967v2.967h-0.951V687.271z M59.407,687.271h0.912
		c1.247,0,1.959,0.903,1.959,2.702v0.192c0,1.799-0.712,2.702-1.959,2.702h-0.912V687.271z M60.422,691.972
		c0.463,0,0.863-0.408,0.863-1.807v-0.192c0-1.399-0.4-1.807-0.863-1.807h-0.04v3.806H60.422z M62.775,687.271h0.975v5.597h-0.975
		V687.271z M64.342,687.271h0.912l0.983,2.83v-2.83h0.951v5.597h-0.863l-1.031-2.967v2.967h-0.952V687.271z M67.783,687.271h0.976
		v5.597h-0.976V687.271z M69.351,687.271h0.911l0.983,2.83v-2.83h0.951v5.597h-0.863l-1.031-2.967v2.967h-0.951V687.271z
		 M72.678,690.165v-0.192c0-1.807,0.768-2.742,1.871-2.742c0.296,0,0.544,0.063,0.744,0.16v1.015
		c-0.24-0.144-0.456-0.239-0.712-0.239c-0.56,0-0.911,0.56-0.911,1.767v0.272c0,1.463,0.432,1.799,0.831,1.799
		c0.032,0,0.04,0,0.088-0.008v-1.432H74.11v-0.871h1.367v2.974c-0.352,0.152-0.64,0.24-1.016,0.24
		C73.486,692.908,72.678,692.116,72.678,690.165z M77.287,687.271h1.008c0.999,0,1.727,0.527,1.727,1.783v0.071
		c0,0.728-0.288,1.191-0.655,1.472l0.751,2.271h-1.039l-0.632-1.951h-0.184v1.951h-0.976V687.271z M78.31,690.038
		c0.424,0,0.735-0.248,0.735-0.904v-0.063c0-0.704-0.336-0.888-0.76-0.888h-0.023v1.855H78.31z M80.375,690.213v-0.288
		c0-1.847,0.6-2.734,1.487-2.734s1.487,0.888,1.487,2.734v0.288c0,1.847-0.6,2.734-1.487,2.734S80.375,692.06,80.375,690.213z
		 M82.357,690.213v-0.288c0-1.439-0.199-1.839-0.495-1.839s-0.496,0.399-0.496,1.839v0.288c0,1.438,0.2,1.839,0.496,1.839
		S82.357,691.652,82.357,690.213z M83.735,690.213v-0.288c0-1.847,0.6-2.734,1.487-2.734c0.887,0,1.486,0.888,1.486,2.734v0.288
		c0,1.847-0.6,2.734-1.486,2.734C84.334,692.948,83.735,692.06,83.735,690.213z M85.717,690.213v-0.288
		c0-1.439-0.2-1.839-0.495-1.839c-0.296,0-0.496,0.399-0.496,1.839v0.288c0,1.438,0.2,1.839,0.496,1.839
		C85.517,692.052,85.717,691.652,85.717,690.213z M87.191,687.271h0.967l0.688,2.047l0.688-2.047h0.968v5.597h-0.936v-3.382
		l-0.712,2.118h-0.016l-0.712-2.118v3.382h-0.935V687.271z"/>
	<path class="st2" d="M46.226,998.742v-1.015c0.344,0.199,0.616,0.312,0.879,0.312c0.28,0,0.52-0.136,0.52-0.479v-0.017
		c0-0.256-0.08-0.447-0.543-0.975c-0.664-0.752-0.936-1.112-0.936-1.791v-0.017c0-0.896,0.583-1.463,1.359-1.463
		c0.392,0,0.624,0.056,0.863,0.176v1.016c-0.304-0.176-0.488-0.256-0.744-0.256c-0.271,0-0.503,0.176-0.503,0.479v0.016
		c0,0.265,0.08,0.36,0.543,0.896c0.768,0.888,0.936,1.231,0.936,1.871v0.017c0,0.879-0.616,1.463-1.383,1.463
		C46.833,998.974,46.505,998.878,46.226,998.742z M48.929,997.303v-3.966h0.968v4.062c0,0.504,0.176,0.704,0.424,0.704
		c0.248,0,0.423-0.2,0.423-0.704v-4.062h0.968v3.966c0,1.175-0.592,1.703-1.391,1.703C49.521,999.006,48.929,998.478,48.929,997.303
		z M52.273,993.337h0.968l0.688,2.047l0.688-2.047h0.968v5.597h-0.936v-3.382l-0.712,2.118H53.92l-0.712-2.118v3.382h-0.936V993.337
		z M56.161,993.337h0.967l0.688,2.047l0.688-2.047h0.967v5.597h-0.936v-3.382l-0.711,2.118h-0.016l-0.711-2.118v3.382h-0.936
		V993.337z M60.049,993.337h2.143v0.928h-1.167v1.391h1.032v0.928h-1.032v1.423h1.191v0.928h-2.167V993.337z M62.689,993.337h1.007
		c1,0,1.727,0.527,1.727,1.783v0.071c0,0.728-0.288,1.191-0.655,1.472l0.751,2.271H64.48l-0.632-1.951h-0.184v1.951h-0.976V993.337z
		 M63.712,996.104c0.424,0,0.735-0.248,0.735-0.904v-0.063c0-0.704-0.336-0.888-0.759-0.888h-0.024v1.855H63.712z M67.145,993.337
		h0.871c1.063,0,1.808,0.575,1.808,1.887v0.016c0,1.264-0.704,1.863-1.695,1.936h-0.008v1.759h-0.976V993.337z M68.128,996.272
		c0.408-0.024,0.72-0.32,0.72-1v-0.016c0-0.712-0.272-1.016-0.696-1.016h-0.031v2.031H68.128z M70.728,993.321h1.04l1.063,5.613
		h-0.976l-0.184-1.111h-0.888l-0.176,1.111h-0.943L70.728,993.321z M71.528,996.943l-0.296-1.847l-0.304,1.847H71.528z
		 M73.128,993.337h0.976v4.669h1.032v0.928h-2.008V993.337z M76.273,993.321h1.039l1.063,5.613H77.4l-0.184-1.111h-0.888
		l-0.176,1.111h-0.943L76.273,993.321z M77.072,996.943l-0.296-1.847l-0.304,1.847H77.072z M78.497,996.232v-0.192
		c0-1.967,0.728-2.742,1.64-2.742c0.271,0,0.432,0.032,0.64,0.128v1.007c-0.2-0.119-0.36-0.184-0.544-0.184
		c-0.432,0-0.743,0.384-0.743,1.783v0.208c0,1.479,0.312,1.783,0.759,1.783c0.152,0,0.344-0.057,0.544-0.176v0.959
		c-0.224,0.128-0.439,0.168-0.72,0.168C79.176,998.974,78.497,998.182,78.497,996.232z M81.281,993.337h2.143v0.928h-1.167v1.391
		h1.031v0.928h-1.031v1.423h1.191v0.928h-2.167V993.337z M42.622,1001.337h0.967l0.688,2.047l0.688-2.047h0.968v5.597h-0.936v-3.382
		l-0.711,2.118h-0.016l-0.712-2.118v3.382h-0.935V1001.337z M47.293,1001.321h1.04l1.063,5.613H48.42l-0.184-1.111h-0.888
		l-0.176,1.111H46.23L47.293,1001.321z M48.092,1004.943l-0.296-1.847l-0.304,1.847H48.092z M49.709,1001.337h0.975v5.597h-0.975
		V1001.337z M51.277,1001.337h0.912l0.983,2.83v-2.83h0.951v5.597H53.26l-1.032-2.967v2.967h-0.951V1001.337z M55.973,1001.337
		h0.912c1.247,0,1.959,0.903,1.959,2.702v0.192c0,1.799-0.712,2.702-1.959,2.702h-0.912V1001.337z M56.989,1006.039
		c0.463,0,0.863-0.408,0.863-1.807v-0.192c0-1.399-0.4-1.807-0.863-1.807h-0.04v3.806H56.989z M59.341,1001.337h0.975v5.597h-0.975
		V1001.337z M60.909,1001.337h0.912l0.983,2.83v-2.83h0.951v5.597h-0.863l-1.032-2.967v2.967h-0.951V1001.337z M64.349,1001.337
		h0.976v5.597h-0.976V1001.337z M65.917,1001.337h0.911l0.983,2.83v-2.83h0.951v5.597H67.9l-1.031-2.967v2.967h-0.951V1001.337z
		 M69.245,1004.232v-0.192c0-1.807,0.768-2.742,1.871-2.742c0.296,0,0.544,0.063,0.744,0.16v1.015
		c-0.24-0.144-0.456-0.239-0.712-0.239c-0.56,0-0.911,0.56-0.911,1.767v0.272c0,1.463,0.432,1.799,0.831,1.799
		c0.032,0,0.04,0,0.088-0.008v-1.432h-0.479v-0.871h1.367v2.974c-0.352,0.152-0.64,0.24-1.016,0.24
		C70.052,1006.974,69.245,1006.182,69.245,1004.232z M73.853,1001.337h1.008c0.999,0,1.727,0.527,1.727,1.783v0.071
		c0,0.728-0.288,1.191-0.655,1.472l0.751,2.271h-1.039l-0.632-1.951h-0.184v1.951h-0.976V1001.337z M74.876,1004.104
		c0.424,0,0.735-0.248,0.735-0.904v-0.063c0-0.704-0.336-0.888-0.76-0.888h-0.023v1.855H74.876z M76.941,1004.28v-0.288
		c0-1.847,0.6-2.734,1.487-2.734s1.487,0.888,1.487,2.734v0.288c0,1.847-0.6,2.734-1.487,2.734S76.941,1006.126,76.941,1004.28z
		 M78.923,1004.28v-0.288c0-1.439-0.199-1.839-0.495-1.839s-0.496,0.399-0.496,1.839v0.288c0,1.438,0.2,1.839,0.496,1.839
		S78.923,1005.718,78.923,1004.28z M80.301,1004.28v-0.288c0-1.847,0.6-2.734,1.487-2.734c0.887,0,1.486,0.888,1.486,2.734v0.288
		c0,1.847-0.6,2.734-1.486,2.734C80.901,1007.014,80.301,1006.126,80.301,1004.28z M82.284,1004.28v-0.288
		c0-1.439-0.2-1.839-0.495-1.839c-0.296,0-0.496,0.399-0.496,1.839v0.288c0,1.438,0.2,1.839,0.496,1.839
		C82.084,1006.119,82.284,1005.718,82.284,1004.28z M83.757,1001.337h0.967l0.688,2.047l0.688-2.047h0.968v5.597h-0.936v-3.382
		l-0.712,2.118h-0.016l-0.712-2.118v3.382h-0.935V1001.337z"/>
	<path class="st2" d="M11.979,477.106h0.976v4.669h1.031v0.928h-2.007V477.106z M14.379,477.106h2.143v0.927h-1.167v1.391h1.031
		v0.928h-1.031v1.423h1.191v0.928h-2.167V477.106z M18.291,477.106h0.848c0.943,0,1.823,0.384,1.823,1.423v0.04
		c0,0.72-0.408,1.071-0.808,1.263c0.472,0.208,0.879,0.536,0.879,1.248v0.072c0,0.992-0.768,1.551-1.855,1.551h-0.888V477.106z
		 M19.282,479.457c0.432,0,0.72-0.248,0.72-0.736v-0.016c0-0.487-0.288-0.695-0.72-0.695h-0.016v1.447H19.282z M19.29,481.799
		c0.448,0,0.768-0.264,0.768-0.728v-0.04c0-0.464-0.32-0.728-0.768-0.728h-0.024v1.495H19.29z M21.459,477.106h0.976v5.597h-0.976
		V477.106z M22.907,482.511v-1.016c0.344,0.2,0.616,0.312,0.879,0.312c0.28,0,0.52-0.136,0.52-0.479v-0.016
		c0-0.256-0.08-0.448-0.544-0.976c-0.664-0.751-0.936-1.111-0.936-1.791v-0.016c0-0.896,0.584-1.463,1.359-1.463
		c0.392,0,0.624,0.056,0.864,0.176v1.016c-0.304-0.176-0.488-0.256-0.744-0.256c-0.272,0-0.504,0.176-0.504,0.479v0.016
		c0,0.264,0.08,0.36,0.544,0.896c0.768,0.887,0.935,1.231,0.935,1.871v0.016c0,0.879-0.615,1.463-1.383,1.463
		C23.515,482.743,23.187,482.646,22.907,482.511z M26.026,478.033h-0.688v-0.927h2.351v0.927h-0.688v4.669h-0.976V478.033z
		 M28.099,477.106h1.007c1,0,1.727,0.527,1.727,1.783v0.072c0,0.728-0.288,1.191-0.656,1.472l0.752,2.271h-1.04l-0.632-1.951h-0.184
		v1.951h-0.976V477.106z M29.122,479.872c0.424,0,0.735-0.248,0.735-0.903v-0.064c0-0.704-0.335-0.888-0.759-0.888h-0.024v1.855
		H29.122z M31.187,480.048v-0.288c0-1.847,0.6-2.734,1.487-2.734c0.888,0,1.487,0.887,1.487,2.734v0.288
		c0,1.847-0.6,2.734-1.487,2.734C31.786,482.783,31.187,481.895,31.187,480.048z M33.169,480.048v-0.288
		c0-1.439-0.2-1.839-0.496-1.839s-0.496,0.399-0.496,1.839v0.288c0,1.439,0.2,1.839,0.496,1.839S33.169,481.487,33.169,480.048z
		 M14.415,485.106h2.039v0.927h-1.063v1.407h0.927v0.927h-0.927v2.335h-0.976V485.106z M16.895,485.106h1.007
		c1,0,1.727,0.527,1.727,1.783v0.072c0,0.728-0.288,1.191-0.656,1.472l0.752,2.271h-1.04l-0.632-1.951h-0.184v1.951h-0.976V485.106z
		 M17.918,487.872c0.424,0,0.735-0.248,0.735-0.903v-0.064c0-0.704-0.335-0.888-0.759-0.888h-0.024v1.855H17.918z M20.079,485.106
		h2.143v0.927h-1.167v1.391h1.032v0.928h-1.032v1.423h1.191v0.928h-2.167V485.106z M22.719,485.106h0.912l0.983,2.83v-2.83h0.952
		v5.597h-0.864l-1.031-2.966v2.966h-0.952V485.106z M26.047,488v-0.192c0-1.967,0.728-2.742,1.639-2.742
		c0.271,0,0.432,0.032,0.64,0.128v1.007c-0.2-0.12-0.36-0.184-0.544-0.184c-0.432,0-0.744,0.384-0.744,1.783v0.208
		c0,1.479,0.312,1.783,0.76,1.783c0.152,0,0.344-0.056,0.543-0.176v0.959c-0.224,0.128-0.439,0.168-0.719,0.168
		C26.727,490.743,26.047,489.951,26.047,488z M28.831,485.106h0.976v2.318h0.848v-2.318h0.976v5.597h-0.976v-2.351h-0.848v2.351
		h-0.976V485.106z M7.919,493.106h1.008c0.999,0,1.727,0.527,1.727,1.783v0.072c0,0.728-0.288,1.191-0.656,1.472l0.751,2.271H9.71
		l-0.631-1.951H8.895v1.951H7.919V493.106z M8.942,495.872c0.424,0,0.736-0.248,0.736-0.903v-0.064c0-0.704-0.336-0.888-0.76-0.888
		H8.895v1.855H8.942z M11.103,493.106h2.143v0.927h-1.167v1.391h1.031v0.928h-1.031v1.423h1.191v0.928h-2.167V493.106z
		 M13.623,498.511v-1.016c0.344,0.2,0.616,0.312,0.879,0.312c0.28,0,0.52-0.136,0.52-0.479v-0.016c0-0.256-0.08-0.448-0.544-0.976
		c-0.664-0.751-0.936-1.111-0.936-1.791v-0.016c0-0.896,0.584-1.463,1.359-1.463c0.392,0,0.624,0.056,0.863,0.176v1.016
		c-0.304-0.176-0.487-0.256-0.743-0.256c-0.272,0-0.504,0.176-0.504,0.479v0.016c0,0.264,0.08,0.36,0.543,0.896
		c0.768,0.887,0.936,1.231,0.936,1.871v0.016c0,0.879-0.616,1.463-1.383,1.463C14.23,498.743,13.903,498.646,13.623,498.511z
		 M16.743,494.033h-0.688v-0.927h2.351v0.927h-0.688v4.669h-0.976V494.033z M19.358,493.09h1.04l1.063,5.613h-0.976l-0.184-1.111
		h-0.887l-0.176,1.111h-0.943L19.358,493.09z M20.158,496.712l-0.296-1.847l-0.304,1.847H20.158z M21.703,497.072v-3.966h0.967
		v4.062c0,0.504,0.176,0.704,0.424,0.704c0.248,0,0.424-0.2,0.424-0.704v-4.062h0.967v3.966c0,1.175-0.592,1.703-1.391,1.703
		C22.294,498.774,21.703,498.247,21.703,497.072z M25.047,493.106h1.007c1,0,1.727,0.527,1.727,1.783v0.072
		c0,0.728-0.288,1.191-0.656,1.472l0.752,2.271h-1.04l-0.632-1.951h-0.184v1.951h-0.976V493.106z M26.07,495.872
		c0.424,0,0.735-0.248,0.735-0.903v-0.064c0-0.704-0.335-0.888-0.759-0.888h-0.024v1.855H26.07z M29.014,493.09h1.04l1.063,5.613
		h-0.976l-0.184-1.111H29.07l-0.176,1.111h-0.944L29.014,493.09z M29.814,496.712l-0.296-1.847l-0.304,1.847H29.814z
		 M31.415,493.106h0.912l0.983,2.83v-2.83h0.952v5.597h-0.864l-1.031-2.966v2.966h-0.952V493.106z M35.358,494.033h-0.688v-0.927
		h2.351v0.927h-0.688v4.669h-0.976V494.033z"/>
	<path class="st2" d="M41.584,189.235v-1.016c0.344,0.2,0.616,0.312,0.88,0.312c0.28,0,0.52-0.136,0.52-0.48v-0.016
		c0-0.256-0.08-0.448-0.544-0.976c-0.664-0.751-0.936-1.111-0.936-1.791v-0.016c0-0.896,0.584-1.463,1.359-1.463
		c0.392,0,0.624,0.056,0.864,0.176v1.015c-0.304-0.176-0.488-0.256-0.744-0.256c-0.272,0-0.504,0.176-0.504,0.48v0.016
		c0,0.264,0.08,0.36,0.544,0.896c0.768,0.887,0.936,1.231,0.936,1.871v0.016c0,0.88-0.616,1.463-1.383,1.463
		C42.192,189.467,41.864,189.371,41.584,189.235z M44.704,184.757h-0.688v-0.928h2.351v0.928H45.68v4.669h-0.976V184.757z
		 M47.32,183.814h1.04l1.063,5.613h-0.976l-0.184-1.111h-0.888l-0.176,1.111h-0.944L47.32,183.814z M48.12,187.436l-0.296-1.847
		l-0.304,1.847H48.12z M49.72,183.83h1.008c0.999,0,1.727,0.528,1.727,1.783v0.072c0,0.728-0.288,1.191-0.656,1.471l0.751,2.271
		h-1.04l-0.631-1.951h-0.184v1.951H49.72V183.83z M50.744,186.596c0.424,0,0.736-0.248,0.736-0.903v-0.064
		c0-0.704-0.336-0.888-0.76-0.888h-0.024v1.855H50.744z M52.904,183.83h0.912c1.247,0,1.959,0.904,1.959,2.703v0.192
		c0,1.799-0.712,2.703-1.959,2.703h-0.912V183.83z M53.92,188.531c0.463,0,0.863-0.408,0.863-1.807v-0.192
		c0-1.399-0.4-1.807-0.863-1.807h-0.04v3.806H53.92z M56.24,187.795v-3.966h0.967v4.062c0,0.504,0.176,0.704,0.424,0.704
		c0.248,0,0.424-0.2,0.424-0.704v-4.062h0.968v3.966c0,1.176-0.592,1.703-1.392,1.703C56.832,189.499,56.24,188.971,56.24,187.795z
		 M59.464,189.235v-1.016c0.344,0.2,0.616,0.312,0.879,0.312c0.28,0,0.52-0.136,0.52-0.48v-0.016c0-0.256-0.08-0.448-0.543-0.976
		c-0.664-0.751-0.936-1.111-0.936-1.791v-0.016c0-0.896,0.583-1.463,1.359-1.463c0.392,0,0.624,0.056,0.863,0.176v1.015
		c-0.304-0.176-0.488-0.256-0.744-0.256c-0.271,0-0.503,0.176-0.503,0.48v0.016c0,0.264,0.08,0.36,0.543,0.896
		c0.768,0.887,0.936,1.231,0.936,1.871v0.016c0,0.88-0.616,1.463-1.383,1.463C60.072,189.467,59.744,189.371,59.464,189.235z
		 M62.584,184.757h-0.688v-0.928h2.351v0.928h-0.688v4.669h-0.975V184.757z M66.448,184.757H65.76v-0.928h2.351v0.928h-0.688v4.669
		h-0.976V184.757z M68.52,183.83h0.976v2.319h0.848v-2.319h0.976v5.597h-0.976v-2.351h-0.848v2.351H68.52V183.83z M71.896,183.83
		h2.143v0.928h-1.167v1.391h1.031v0.928h-1.031v1.423h1.191v0.927h-2.167V183.83z M75.32,183.814h1.039l1.063,5.613h-0.976
		l-0.184-1.111h-0.888l-0.176,1.111h-0.943L75.32,183.814z M76.119,187.436l-0.296-1.847l-0.304,1.847H76.119z M78,184.757h-0.688
		v-0.928h2.351v0.928h-0.688v4.669H78V184.757z M80.072,183.83h2.143v0.928h-1.167v1.391h1.031v0.928h-1.031v1.423h1.191v0.927
		h-2.167V183.83z M82.711,183.83h1.008c0.999,0,1.727,0.528,1.727,1.783v0.072c0,0.728-0.287,1.191-0.655,1.471l0.752,2.271h-1.04
		l-0.632-1.951h-0.184v1.951h-0.976V183.83z M83.735,186.596c0.424,0,0.735-0.248,0.735-0.903v-0.064
		c0-0.704-0.335-0.888-0.759-0.888h-0.024v1.855H83.735z M51.044,195.124c0-1.623,0.504-3.014,1.839-3.406v0.704
		c-0.688,0.36-0.936,1.407-0.936,2.703c0,1.303,0.248,2.351,0.936,2.71v0.704C51.548,198.146,51.044,196.763,51.044,195.124z
		 M53.388,191.83h0.848c0.943,0,1.823,0.384,1.823,1.423v0.04c0,0.72-0.408,1.071-0.808,1.263c0.472,0.208,0.88,0.536,0.88,1.248
		v0.072c0,0.992-0.768,1.551-1.855,1.551h-0.888V191.83z M54.379,194.181c0.432,0,0.72-0.248,0.72-0.736v-0.016
		c0-0.488-0.288-0.696-0.72-0.696h-0.016v1.447H54.379z M54.388,196.523c0.448,0,0.768-0.264,0.768-0.728v-0.04
		c0-0.464-0.32-0.728-0.768-0.728h-0.024v1.496H54.388z M57.284,191.814h1.04l1.063,5.613h-0.976l-0.184-1.111H57.34l-0.176,1.111
		H56.22L57.284,191.814z M58.084,195.436l-0.296-1.847l-0.304,1.847H58.084z M59.684,191.83h0.976v4.67h1.031v0.927h-2.007V191.83z
		 M61.788,194.724v-0.192c0-1.967,0.728-2.742,1.639-2.742c0.272,0,0.432,0.032,0.64,0.128v1.007c-0.2-0.12-0.36-0.184-0.543-0.184
		c-0.432,0-0.744,0.384-0.744,1.783v0.208c0,1.479,0.312,1.783,0.759,1.783c0.152,0,0.344-0.056,0.543-0.176v0.959
		c-0.224,0.128-0.439,0.168-0.719,0.168C62.468,197.467,61.788,196.675,61.788,194.724z M64.276,194.772v-0.288
		c0-1.847,0.6-2.734,1.487-2.734s1.487,0.887,1.487,2.734v0.288c0,1.847-0.6,2.735-1.487,2.735S64.276,196.619,64.276,194.772z
		 M66.259,194.772v-0.288c0-1.439-0.2-1.839-0.496-1.839s-0.495,0.4-0.495,1.839v0.288c0,1.439,0.199,1.839,0.495,1.839
		S66.259,196.211,66.259,194.772z M67.732,191.83h0.912l0.983,2.831v-2.831h0.951v5.597h-0.863l-1.031-2.966v2.966h-0.952V191.83z
		 M71.908,195.22l-1.039-3.391h1.007l0.528,2.095l0.535-2.095h0.983l-1.039,3.391v2.207h-0.976V195.22z M74.14,197.834
		c0.688-0.36,0.936-1.407,0.936-2.71c0-1.295-0.248-2.343-0.936-2.703v-0.704c1.335,0.392,1.839,1.783,1.839,3.406
		c0,1.639-0.504,3.022-1.839,3.414V197.834z"/>
	<path class="st2" d="M6.792,250.651h0.636c0.708,0,1.367,0.288,1.367,1.067v0.03c0,0.54-0.306,0.803-0.606,0.947
		c0.354,0.156,0.66,0.402,0.66,0.936v0.054c0,0.744-0.576,1.164-1.391,1.164H6.792V250.651z M7.536,252.415
		c0.324,0,0.54-0.186,0.54-0.552v-0.012c0-0.366-0.216-0.521-0.54-0.521H7.523v1.085H7.536z M7.542,254.171
		c0.336,0,0.576-0.198,0.576-0.545v-0.03c0-0.348-0.24-0.545-0.576-0.545H7.523v1.121H7.542z M9.713,250.64h0.78l0.797,4.209h-0.731
		l-0.138-0.833H9.755l-0.132,0.833H8.916L9.713,250.64z M10.313,253.356l-0.222-1.385l-0.228,1.385H10.313z M11.514,250.651h0.756
		c0.75,0,1.295,0.396,1.295,1.337v0.054c0,0.546-0.216,0.894-0.492,1.104l0.563,1.703h-0.78l-0.474-1.463h-0.138v1.463h-0.732
		V250.651z M12.281,252.726c0.318,0,0.552-0.186,0.552-0.677V252c0-0.527-0.251-0.666-0.569-0.666h-0.018v1.391H12.281z
		 M13.83,252.822v-0.144c0-1.475,0.545-2.057,1.229-2.057c0.204,0,0.324,0.024,0.48,0.096v0.756c-0.15-0.09-0.27-0.138-0.408-0.138
		c-0.324,0-0.558,0.288-0.558,1.337v0.156c0,1.109,0.233,1.337,0.569,1.337c0.114,0,0.258-0.042,0.408-0.132v0.72
		c-0.167,0.096-0.33,0.125-0.54,0.125C14.34,254.879,13.83,254.286,13.83,252.822z M15.918,250.651h1.607v0.696h-0.875v1.043h0.773
		v0.695h-0.773v1.067h0.894v0.696h-1.625V250.651z M17.898,250.651h0.731v3.502h0.773v0.696h-1.505V250.651z M19.476,252.858v-0.216
		c0-1.385,0.45-2.051,1.116-2.051c0.666,0,1.115,0.666,1.115,2.051v0.216c0,1.385-0.45,2.051-1.115,2.051
		C19.925,254.909,19.476,254.244,19.476,252.858z M20.963,252.858v-0.216c0-1.079-0.15-1.379-0.372-1.379
		c-0.222,0-0.372,0.3-0.372,1.379v0.216c0,1.079,0.15,1.379,0.372,1.379C20.813,254.237,20.963,253.937,20.963,252.858z
		 M22.068,250.651h0.684l0.737,2.123v-2.123h0.714v4.198h-0.648l-0.773-2.225v2.225h-0.713V250.651z M25.223,250.64h0.78
		l0.797,4.209h-0.731l-0.138-0.833h-0.666l-0.132,0.833h-0.708L25.223,250.64z M25.823,253.356l-0.222-1.385l-0.228,1.385H25.823z
		 M9.405,256.651h0.726l0.516,1.535l0.516-1.535h0.726v4.198h-0.702v-2.537l-0.534,1.589H10.64l-0.534-1.589v2.537H9.405V256.651z
		 M12.321,256.651h1.607v0.696h-0.876v1.043h0.774v0.695h-0.774v1.067h0.894v0.696h-1.625V256.651z M14.301,256.651h1.607v0.696
		h-0.875v1.043h0.774v0.695h-0.774v1.067h0.894v0.696h-1.625V256.651z M16.67,257.347h-0.516v-0.696h1.763v0.696h-0.516v3.502H16.67
		V257.347z M18.237,256.651h0.731v4.198h-0.731V256.651z M19.413,256.651h0.684l0.738,2.123v-2.123h0.713v4.198H20.9l-0.773-2.225
		v2.225h-0.714V256.651z M21.909,258.822v-0.144c0-1.355,0.576-2.057,1.403-2.057c0.222,0,0.408,0.048,0.558,0.12v0.762
		c-0.18-0.108-0.342-0.18-0.534-0.18c-0.42,0-0.684,0.419-0.684,1.325v0.204c0,1.098,0.324,1.35,0.624,1.35
		c0.024,0,0.03,0,0.066-0.006v-1.073h-0.36v-0.654h1.025v2.231c-0.264,0.114-0.479,0.18-0.761,0.18
		C22.514,260.879,21.909,260.286,21.909,258.822z M11.736,262.651h0.755c0.75,0,1.295,0.396,1.295,1.337v0.054
		c0,0.546-0.216,0.894-0.492,1.104l0.564,1.703h-0.78l-0.474-1.463h-0.138v1.463h-0.731V262.651z M12.503,264.726
		c0.318,0,0.552-0.186,0.552-0.677V264c0-0.527-0.252-0.666-0.57-0.666h-0.018v1.391H12.503z M14.052,264.858v-0.216
		c0-1.385,0.45-2.051,1.115-2.051c0.666,0,1.116,0.666,1.116,2.051v0.216c0,1.385-0.45,2.051-1.116,2.051
		C14.501,266.909,14.052,266.244,14.052,264.858z M15.539,264.858v-0.216c0-1.079-0.15-1.379-0.372-1.379
		c-0.222,0-0.372,0.3-0.372,1.379v0.216c0,1.079,0.15,1.379,0.372,1.379C15.389,266.237,15.539,265.937,15.539,264.858z
		 M16.572,264.858v-0.216c0-1.385,0.45-2.051,1.115-2.051c0.666,0,1.116,0.666,1.116,2.051v0.216c0,1.385-0.45,2.051-1.116,2.051
		C17.022,266.909,16.572,266.244,16.572,264.858z M18.059,264.858v-0.216c0-1.079-0.15-1.379-0.372-1.379
		c-0.222,0-0.372,0.3-0.372,1.379v0.216c0,1.079,0.15,1.379,0.372,1.379C17.909,266.237,18.059,265.937,18.059,264.858z
		 M19.164,262.651h0.726l0.516,1.535l0.516-1.535h0.726v4.198h-0.702v-2.537l-0.534,1.589h-0.012l-0.534-1.589v2.537h-0.702V262.651
		z"/>
	<path class="st2" d="M6.473,193.247h0.744l0.396,2.734l0.396-2.734h0.72l-0.75,4.21H7.223L6.473,193.247z M8.963,193.247h0.731
		v4.198H8.963V193.247z M10.139,193.247h1.607v0.696h-0.875v1.043h0.774v0.695h-0.774v1.067h0.894v0.696h-1.625V193.247z
		 M12.119,193.247h0.684l0.738,2.123v-2.123h0.713v4.198h-0.647l-0.774-2.225v2.225h-0.713V193.247z M14.687,193.247h0.684
		l0.738,2.123v-2.123h0.713v4.198h-0.647l-0.773-2.225v2.225h-0.714V193.247z M17.843,193.235h0.779l0.798,4.209h-0.731
		l-0.138-0.833h-0.666l-0.132,0.833h-0.708L17.843,193.235z M18.442,195.952l-0.222-1.385l-0.228,1.385H18.442z M5.66,199.247h0.726
		l0.516,1.535l0.516-1.535h0.726v4.198H7.441v-2.537l-0.534,1.589H6.896l-0.534-1.589v2.537H5.66V199.247z M8.576,199.247h1.607
		v0.696H9.308v1.043h0.773v0.695H9.308v1.067h0.893v0.696H8.576V199.247z M10.556,199.247h1.607v0.696h-0.875v1.043h0.774v0.695
		h-0.774v1.067h0.894v0.696h-1.625V199.247z M12.926,199.943H12.41v-0.696h1.763v0.696h-0.516v3.502h-0.732V199.943z
		 M14.492,199.247h0.731v4.198h-0.731V199.247z M15.668,199.247h0.684l0.738,2.123v-2.123h0.713v4.198h-0.647l-0.773-2.225v2.225
		h-0.714V199.247z M18.164,201.418v-0.144c0-1.355,0.576-2.057,1.403-2.057c0.222,0,0.408,0.048,0.558,0.12v0.762
		c-0.18-0.108-0.342-0.18-0.534-0.18c-0.42,0-0.684,0.419-0.684,1.325v0.204c0,1.098,0.324,1.35,0.624,1.35
		c0.024,0,0.03,0,0.066-0.006v-1.073h-0.36v-0.654h1.025v2.231c-0.264,0.114-0.479,0.18-0.761,0.18
		C18.77,203.475,18.164,202.881,18.164,201.418z M7.991,205.247h0.755c0.75,0,1.295,0.396,1.295,1.337v0.054
		c0,0.546-0.216,0.894-0.492,1.104l0.564,1.703h-0.78l-0.474-1.463H8.723v1.463H7.991V205.247z M8.759,207.322
		c0.318,0,0.552-0.186,0.552-0.677v-0.048c0-0.527-0.252-0.666-0.57-0.666H8.723v1.391H8.759z M10.307,207.454v-0.216
		c0-1.385,0.45-2.051,1.115-2.051c0.666,0,1.116,0.666,1.116,2.051v0.216c0,1.385-0.45,2.051-1.116,2.051
		C10.757,209.505,10.307,208.839,10.307,207.454z M11.794,207.454v-0.216c0-1.079-0.15-1.379-0.372-1.379
		c-0.222,0-0.372,0.3-0.372,1.379v0.216c0,1.079,0.15,1.379,0.372,1.379C11.645,208.833,11.794,208.533,11.794,207.454z
		 M12.827,207.454v-0.216c0-1.385,0.45-2.051,1.115-2.051c0.666,0,1.116,0.666,1.116,2.051v0.216c0,1.385-0.45,2.051-1.116,2.051
		C13.277,209.505,12.827,208.839,12.827,207.454z M14.314,207.454v-0.216c0-1.079-0.15-1.379-0.372-1.379
		c-0.222,0-0.372,0.3-0.372,1.379v0.216c0,1.079,0.15,1.379,0.372,1.379C14.165,208.833,14.314,208.533,14.314,207.454z
		 M15.419,205.247h0.726l0.516,1.535l0.516-1.535h0.726v4.198H17.2v-2.537l-0.534,1.589h-0.012l-0.534-1.589v2.537h-0.702V205.247z"
		/>
	<path class="st2" d="M9.848,225.912h0.654c0.797,0,1.355,0.432,1.355,1.415v0.012c0,0.948-0.528,1.397-1.271,1.451H10.58v1.319
		H9.848V225.912z M10.586,228.112c0.306-0.018,0.54-0.24,0.54-0.75v-0.012c0-0.534-0.204-0.762-0.522-0.762H10.58v1.523H10.586z
		 M12.158,225.912h0.755c0.75,0,1.295,0.396,1.295,1.337v0.054c0,0.546-0.216,0.894-0.492,1.104l0.563,1.703h-0.779l-0.474-1.463
		H12.89v1.463h-0.731V225.912z M12.926,227.986c0.318,0,0.552-0.186,0.552-0.677v-0.048c0-0.527-0.252-0.666-0.57-0.666H12.89v1.391
		H12.926z M15.134,225.9h0.78l0.797,4.209H15.98l-0.138-0.833h-0.666l-0.132,0.833h-0.708L15.134,225.9z M15.733,228.616
		l-0.222-1.385l-0.228,1.385H15.733z M16.802,228.082v-0.144c0-1.355,0.576-2.057,1.403-2.057c0.222,0,0.408,0.048,0.558,0.12v0.762
		c-0.18-0.108-0.342-0.18-0.534-0.18c-0.42,0-0.684,0.419-0.684,1.325v0.204c0,1.098,0.324,1.35,0.624,1.35
		c0.024,0,0.03,0,0.066-0.006v-1.073h-0.36v-0.654h1.025v2.231c-0.264,0.114-0.479,0.18-0.762,0.18
		C17.408,230.139,16.802,229.546,16.802,228.082z M19.292,228.886v-2.975h0.726v3.046c0,0.378,0.132,0.528,0.318,0.528
		s0.318-0.15,0.318-0.528v-3.046h0.726v2.975c0,0.881-0.444,1.277-1.043,1.277S19.292,229.768,19.292,228.886z M21.8,225.912h1.607
		v0.696h-0.875v1.043h0.773v0.695h-0.773v1.067h0.894v0.696H21.8V225.912z M9.311,231.912h0.726l0.516,1.535l0.516-1.535h0.726
		v4.198h-0.702v-2.537l-0.534,1.589h-0.012l-0.534-1.589v2.537H9.311V231.912z M12.227,231.912h1.607v0.696h-0.876v1.043h0.774
		v0.695h-0.774v1.067h0.894v0.696h-1.625V231.912z M14.207,231.912h1.607v0.696h-0.875v1.043h0.774v0.695h-0.774v1.067h0.894v0.696
		h-1.625V231.912z M16.577,232.607h-0.516v-0.696h1.763v0.696h-0.516v3.502h-0.732V232.607z M18.143,231.912h0.731v4.198h-0.731
		V231.912z M19.319,231.912h0.684l0.738,2.123v-2.123h0.713v4.198h-0.647l-0.773-2.225v2.225h-0.714V231.912z M21.815,234.082
		v-0.144c0-1.355,0.576-2.057,1.403-2.057c0.222,0,0.408,0.048,0.558,0.12v0.762c-0.18-0.108-0.342-0.18-0.534-0.18
		c-0.42,0-0.684,0.419-0.684,1.325v0.204c0,1.098,0.324,1.35,0.624,1.35c0.024,0,0.03,0,0.066-0.006v-1.073h-0.36v-0.654h1.025
		v2.231c-0.264,0.114-0.479,0.18-0.761,0.18C22.42,236.139,21.815,235.546,21.815,234.082z M11.642,237.912h0.755
		c0.75,0,1.295,0.396,1.295,1.337v0.054c0,0.546-0.216,0.894-0.492,1.104l0.564,1.703h-0.78l-0.474-1.463h-0.138v1.463h-0.731
		V237.912z M12.41,239.986c0.318,0,0.552-0.186,0.552-0.677v-0.048c0-0.527-0.252-0.666-0.57-0.666h-0.018v1.391H12.41z
		 M13.958,240.119v-0.216c0-1.385,0.45-2.051,1.115-2.051c0.666,0,1.116,0.666,1.116,2.051v0.216c0,1.385-0.45,2.051-1.116,2.051
		C14.408,242.169,13.958,241.504,13.958,240.119z M15.445,240.119v-0.216c0-1.08-0.15-1.379-0.372-1.379
		c-0.222,0-0.372,0.3-0.372,1.379v0.216c0,1.079,0.15,1.379,0.372,1.379C15.295,241.498,15.445,241.198,15.445,240.119z
		 M16.478,240.119v-0.216c0-1.385,0.45-2.051,1.115-2.051c0.666,0,1.116,0.666,1.116,2.051v0.216c0,1.385-0.45,2.051-1.116,2.051
		C16.928,242.169,16.478,241.504,16.478,240.119z M17.965,240.119v-0.216c0-1.08-0.15-1.379-0.372-1.379
		c-0.222,0-0.372,0.3-0.372,1.379v0.216c0,1.079,0.15,1.379,0.372,1.379C17.815,241.498,17.965,241.198,17.965,240.119z
		 M19.07,237.912h0.726l0.516,1.535l0.516-1.535h0.726v4.198h-0.702v-2.537l-0.534,1.589h-0.012l-0.534-1.589v2.537H19.07V237.912z"
		/>
	<path class="st2" d="M53.975,149.236v-0.288c0-1.847,0.6-2.734,1.487-2.734c0.888,0,1.487,0.887,1.487,2.734v0.288
		c0,1.847-0.6,2.734-1.487,2.734C54.575,151.97,53.975,151.082,53.975,149.236z M55.958,149.236v-0.288
		c0-1.439-0.2-1.839-0.496-1.839c-0.295,0-0.496,0.399-0.496,1.839v0.288c0,1.439,0.2,1.839,0.496,1.839
		C55.758,151.075,55.958,150.675,55.958,149.236z M57.431,146.293h0.872c1.063,0,1.807,0.575,1.807,1.887v0.016
		c0,1.263-0.704,1.863-1.695,1.935h-0.008v1.759h-0.976V146.293z M58.415,149.228c0.408-0.024,0.719-0.32,0.719-1v-0.016
		c0-0.712-0.272-1.016-0.695-1.016h-0.032v2.031H58.415z M60.511,146.293h2.143v0.927h-1.167v1.391h1.031v0.928h-1.031v1.423h1.191
		v0.928h-2.167V146.293z M63.151,146.293h0.911l0.983,2.83v-2.83h0.952v5.597h-0.864l-1.031-2.966v2.966h-0.951V146.293z
		 M68.367,147.221h-0.688v-0.927h2.351v0.927h-0.688v4.669h-0.975V147.221z M70.183,149.236v-0.288c0-1.847,0.6-2.734,1.486-2.734
		c0.888,0,1.487,0.887,1.487,2.734v0.288c0,1.847-0.6,2.734-1.487,2.734C70.783,151.97,70.183,151.082,70.183,149.236z
		 M72.166,149.236v-0.288c0-1.439-0.2-1.839-0.496-1.839c-0.295,0-0.495,0.399-0.495,1.839v0.288c0,1.439,0.2,1.839,0.495,1.839
		C71.965,151.075,72.166,150.675,72.166,149.236z M57.943,154.293h0.912c1.247,0,1.958,0.903,1.958,2.702v0.192
		c0,1.799-0.711,2.703-1.958,2.703h-0.912V154.293z M58.959,158.995c0.463,0,0.863-0.408,0.863-1.807v-0.192
		c0-1.399-0.4-1.807-0.863-1.807h-0.04v3.806H58.959z M61.295,154.293h2.143v0.927H62.27v1.391h1.032v0.928H62.27v1.423h1.191v0.928
		h-2.167V154.293z M63.759,157.187v-0.192c0-1.967,0.727-2.742,1.639-2.742c0.271,0,0.432,0.032,0.64,0.128v1.007
		c-0.2-0.12-0.36-0.184-0.544-0.184c-0.432,0-0.743,0.384-0.743,1.783v0.208c0,1.479,0.312,1.783,0.759,1.783
		c0.152,0,0.345-0.056,0.544-0.176v0.959c-0.224,0.128-0.439,0.168-0.72,0.168C64.438,159.93,63.759,159.139,63.759,157.187z
		 M66.542,154.293h0.976v2.342l0.792-2.342h1.104l-0.944,2.366l0.96,3.23h-1.088l-0.607-2.119l-0.216,0.616v1.503h-0.976V154.293z
		 M55.851,162.293h0.847c0.944,0,1.823,0.384,1.823,1.423v0.04c0,0.72-0.408,1.071-0.808,1.263c0.472,0.208,0.879,0.536,0.879,1.248
		v0.072c0,0.992-0.768,1.551-1.855,1.551h-0.887V162.293z M56.842,164.644c0.432,0,0.72-0.248,0.72-0.736v-0.016
		c0-0.487-0.288-0.695-0.72-0.695h-0.016v1.447H56.842z M56.85,166.987c0.448,0,0.768-0.264,0.768-0.728v-0.04
		c0-0.464-0.32-0.728-0.768-0.728h-0.024v1.495H56.85z M59.003,162.293h2.143v0.927h-1.167v1.391h1.032v0.928h-1.032v1.423h1.191
		v0.928h-2.167V162.293z M61.643,162.293h0.976v4.669h1.031v0.928h-2.007V162.293z M63.747,165.236v-0.288
		c0-1.847,0.6-2.734,1.487-2.734s1.487,0.887,1.487,2.734v0.288c0,1.847-0.6,2.734-1.487,2.734S63.747,167.082,63.747,165.236z
		 M65.73,165.236v-0.288c0-1.439-0.2-1.839-0.496-1.839s-0.496,0.399-0.496,1.839v0.288c0,1.439,0.2,1.839,0.496,1.839
		S65.73,166.675,65.73,165.236z M66.859,162.293h0.999l0.408,3.43l0.487-3.43h0.904l0.479,3.43l0.416-3.43h0.975l-0.847,5.613
		h-1.023l-0.464-3.318l-0.464,3.318h-1.023L66.859,162.293z"/>
	<path class="st1" d="M99.719,122.702h-8.858c0,0-2.589-0.144-3.596,1.294c-0.929,1.326-10.781,9.01-20.993,9.299l-4.32,0.004
		c-10.265-0.218-20.21-7.97-21.143-9.303c-1.007-1.438-3.596-1.294-3.596-1.294h-8.198v-10.665h6.701V96.257h57.14v16.019h6.934
		L99.719,122.702z"/>
	<path class="st2" d="M41.479,364.28h0.871c1.063,0,1.807,0.575,1.807,1.887v0.016c0,1.263-0.704,1.863-1.695,1.935h-0.008v1.759
		h-0.975V364.28z M42.462,367.214c0.408-0.024,0.72-0.32,0.72-1v-0.016c0-0.712-0.272-1.016-0.696-1.016h-0.032v2.031H42.462z
		 M44.559,364.28h2.143v0.927h-1.167v1.391h1.032v0.928h-1.032v1.423h1.191v0.928h-2.167V364.28z M47.982,364.264h1.039l1.063,5.613
		H49.11l-0.184-1.111h-0.888l-0.176,1.111h-0.943L47.982,364.264z M48.782,367.886l-0.296-1.847l-0.304,1.847H48.782z
		 M50.383,364.28h1.007c1,0,1.727,0.527,1.727,1.783v0.072c0,0.728-0.288,1.191-0.656,1.472l0.751,2.271h-1.039l-0.632-1.951h-0.184
		v1.951h-0.975V364.28z M51.406,367.046c0.423,0,0.735-0.248,0.735-0.903v-0.064c0-0.704-0.336-0.888-0.759-0.888h-0.024v1.855
		H51.406z M53.566,364.28h0.976v4.669h1.032v0.928h-2.007V364.28z M57.143,367.174v-0.192c0-1.967,0.728-2.742,1.639-2.742
		c0.271,0,0.432,0.032,0.64,0.128v1.007c-0.2-0.12-0.36-0.184-0.544-0.184c-0.432,0-0.744,0.384-0.744,1.783v0.208
		c0,1.479,0.312,1.783,0.76,1.783c0.152,0,0.344-0.056,0.543-0.176v0.959c-0.224,0.128-0.439,0.168-0.719,0.168
		C57.822,369.916,57.143,369.125,57.143,367.174z M59.926,364.28h0.976v4.669h1.031v0.928h-2.007V364.28z M62.23,368.246v-3.966
		h0.967v4.062c0,0.504,0.176,0.704,0.424,0.704s0.424-0.2,0.424-0.704v-4.062h0.968v3.966c0,1.175-0.592,1.703-1.392,1.703
		C62.822,369.948,62.23,369.421,62.23,368.246z M65.575,364.28h0.847c0.944,0,1.823,0.384,1.823,1.423v0.04
		c0,0.72-0.407,1.071-0.808,1.263c0.472,0.208,0.88,0.536,0.88,1.248v0.072c0,0.992-0.768,1.551-1.855,1.551h-0.887V364.28z
		 M66.566,366.63c0.432,0,0.72-0.248,0.72-0.736v-0.016c0-0.487-0.288-0.695-0.72-0.695h-0.017v1.447H66.566z M66.574,368.973
		c0.447,0,0.768-0.264,0.768-0.728v-0.04c0-0.464-0.32-0.728-0.768-0.728h-0.024v1.495H66.574z M69.902,367.174v-0.192
		c0-1.967,0.729-2.742,1.64-2.742c0.271,0,0.432,0.032,0.64,0.128v1.007c-0.2-0.12-0.36-0.184-0.544-0.184
		c-0.432,0-0.743,0.384-0.743,1.783v0.208c0,1.479,0.312,1.783,0.76,1.783c0.151,0,0.344-0.056,0.543-0.176v0.959
		c-0.224,0.128-0.439,0.168-0.72,0.168C70.582,369.916,69.902,369.125,69.902,367.174z M73.47,364.264h1.039l1.063,5.613h-0.976
		l-0.184-1.111h-0.888l-0.176,1.111h-0.943L73.47,364.264z M74.269,367.886l-0.296-1.847l-0.304,1.847H74.269z M75.751,369.685
		v-1.016c0.344,0.2,0.615,0.312,0.879,0.312c0.28,0,0.521-0.136,0.521-0.479v-0.016c0-0.256-0.08-0.448-0.544-0.976
		c-0.664-0.751-0.936-1.111-0.936-1.791v-0.016c0-0.896,0.584-1.463,1.359-1.463c0.392,0,0.623,0.056,0.863,0.176v1.016
		c-0.304-0.176-0.487-0.256-0.743-0.256c-0.272,0-0.504,0.176-0.504,0.479v0.016c0,0.264,0.08,0.36,0.543,0.896
		c0.768,0.887,0.936,1.231,0.936,1.871v0.016c0,0.879-0.615,1.463-1.383,1.463C76.358,369.916,76.03,369.82,75.751,369.685z
		 M78.486,364.28h0.976v5.597h-0.976V364.28z M80.054,364.28h0.911l0.983,2.83v-2.83h0.952v5.597h-0.864l-1.031-2.966v2.966h-0.951
		V364.28z M83.382,367.222v-0.288c0-1.847,0.6-2.734,1.487-2.734s1.487,0.887,1.487,2.734v0.288c0,1.847-0.6,2.734-1.487,2.734
		S83.382,369.069,83.382,367.222z M85.365,367.222v-0.288c0-1.439-0.199-1.839-0.495-1.839s-0.496,0.399-0.496,1.839v0.288
		c0,1.439,0.2,1.839,0.496,1.839S85.365,368.661,85.365,367.222z"/>
</g>
<g id="PEARL_DECK_06_TOP">
	<path class="st3" d="M75.06,1080.138c16.803-0.82,46.976-4.266,51.953-18.344c0.178-20.215,0.229-825.167,0.229-825.167
		s-0.203-32.547-0.551-36.432c-0.127-1.436-0.826-21.757-1.744-31.022c-3.566-35.287-10-109.284-59.898-168.214
		c-0.293-0.243-0.596-0.391-0.904-0.459h-0.547c-0.309,0.068-0.611,0.216-0.904,0.459C10.446,61.64,5.071,146.54,2.501,171.684
		c-0.886,12.481-1.322,27.075-1.45,28.511C0.703,204.081,0.5,236.627,0.5,236.627s0.051,804.952,0.229,825.167
		c5.162,14.605,37.443,17.768,53.779,18.426L75.06,1080.138z"/>
	<g id="gDeck06Locations">
		<rect id="_x30_6Aft" y="701.501" class="st4" width="127.742" height="379.219"/>
		<rect id="_x30_6Middle" y="384.546" class="st4" width="127.742" height="316.956"/>
		<rect id="_x30_6Forward" class="st4" width="127.742" height="384.546"/>
	</g>
</g>
</svg>
