<?xml version="1.0" encoding="utf-8"?>
<!-- Generator: Adobe Illustrator 23.0.4, SVG Export Plug-In . SVG Version: 6.00 Build 0)  -->
<svg version="1.1" id="PEARL_DECK_07" xmlns="http://www.w3.org/2000/svg" xmlns:xlink="http://www.w3.org/1999/xlink" x="0px"
	 y="0px" width="127.751px" height="1122.356px" viewBox="0 0 127.751 1122.356"
	 style="enable-background:new 0 0 127.751 1122.356;" xml:space="preserve">
<style type="text/css">
	.New_x0020_Cabins_x0020_2019{fill:#EFF2F5;stroke:#FFFFFF;stroke-width:0.5;stroke-miterlimit:10;}
	.New_x0020_Cabins_x0020_2{fill:#EFF2F5;stroke:#FFFFFF;stroke-width:0.5;stroke-miterlimit:10;}
	.st0{fill:#FFFFFF;}
	.st1{fill:none;stroke:#D5DCE0;stroke-width:0.5;}
	.st2{fill:#6E8496;}
	.st3{fill:none;stroke:#076FA0;stroke-miterlimit:10;}
	.st4{fill:none;}
</style>
<g id="PEARL_DECK_07_BOTTOM">
	<path class="st0" d="M127.251,236.627c0,0-0.203-32.547-0.551-36.432c-0.127-1.437-0.229-16.152-1.449-28.511
		c0,0-6.594-56.271-9.576-66.758c-5.672-19.94-7.934-34.2-30.918-73.872c0,0-16.427-28.454-19.71-30.096
		c-0.293-0.243-0.596-0.391-0.904-0.459h-0.547c-0.31,0.068-0.612,0.216-0.904,0.459c-3.283,1.642-19.699,30.096-19.699,30.096
		c-22.982,39.672-24.947,53.638-30.916,73.872c-3.085,10.457-9.576,66.758-9.576,66.758c-1.222,12.359-1.322,27.075-1.45,28.511
		C0.703,204.081,0.5,236.627,0.5,236.627s0.001,15.092,0.003,41.192c-0.002,0.296-0.003,0.469-0.003,0.469
		s0.051,804.927,0.229,825.142c5.162,14.605,37.443,17.768,53.778,18.426l20.562-0.082c16.803-0.82,46.977-4.266,51.953-18.344
		c0.178-20.215,0.229-825.142,0.229-825.142s-0.001-0.173-0.003-0.469C127.25,251.719,127.251,236.627,127.251,236.627z"/>
	<polygon class="st1" points="44.845,312.157 44.845,303.311 54.929,303.311 54.929,312.157 44.845,312.157 	"/>
	<polygon class="st1" points="54.93,312.157 54.93,303.311 64.957,303.311 64.957,312.157 54.93,312.157 	"/>
	<polygon class="st1" points="64.957,312.157 64.957,303.311 75.042,303.311 75.042,312.157 64.957,312.157 	"/>
	<polygon class="st1" points="75.043,312.157 75.043,303.311 85.071,303.311 85.071,312.157 75.043,312.157 	"/>
	<polygon class="st1" points="44.845,697.167 44.845,688.321 54.929,688.321 54.929,697.167 44.845,697.167 	"/>
	<polygon class="st1" points="54.93,697.167 54.93,688.321 64.957,688.321 64.957,697.167 54.93,697.167 	"/>
	<polygon class="st1" points="64.957,697.167 64.957,688.321 75.042,688.321 75.042,697.167 64.957,697.167 	"/>
	<polygon class="st1" points="75.043,697.167 75.043,688.321 85.071,688.321 85.071,697.167 75.043,697.167 	"/>
	<polygon class="st1" points="44.694,949.542 44.694,940.697 54.778,940.697 54.778,949.542 44.694,949.542 	"/>
	<polygon class="st1" points="54.779,949.542 54.779,940.697 64.806,940.697 64.806,949.542 54.779,949.542 	"/>
	<polygon class="st1" points="64.806,949.542 64.806,940.697 74.891,940.697 74.891,949.542 64.806,949.542 	"/>
	<polygon class="st1" points="74.892,949.542 74.892,940.697 84.919,940.697 84.919,949.542 74.892,949.542 	"/>
	<path class="st1" d="M64.744,811.59c8.75,0.25,16-2.667,16-2.667l1.5,3.334l3.917-1.584l-1.5-4.083
		c1.333-0.583,3.833-0.833,5.583-1.083c-0.417-5.083-3.824-7.916-3.824-7.916l1.094-1.094c0,0,1.312,1.354,2.562,3.438
		c2.094,3.531,1.919,10.155,1.919,10.155h3.166"/>
	<line class="st1" x1="22.699" y1="864.131" x2="10.84" y2="864.131"/>
	<polygon class="st1" points="26.667,840.797 34.694,840.797 43.602,840.575 43.503,865.639 43.691,914.136 43.865,940.698 
		34.694,940.652 26.841,940.652 	"/>
	<polygon class="st1" points="102.183,840.797 94.157,840.797 85.248,840.575 85.347,865.639 85.16,914.136 85.045,940.698 
		94.157,940.652 102.009,940.652 	"/>
	<line class="st1" x1="22.699" y1="839.125" x2="22.699" y2="942.263"/>
	<path class="st1" d="M119.205,184.848h-8.804l-12.1,18.874l1.937,5.324l-11.546,4.217l2.834,23.368c0,0-11.33,2.386-21.78,2.556
		c-2.022,0.345-10.62,0-10.62,0c-9.203-0.197-21.78-2.556-21.78-2.556l2.834-23.368l-11.546-4.217l1.937-5.324l-12.1-18.874H8.869"
		/>
	<polygon class="st1" points="61.553,300.936 61.553,292.09 71.638,292.09 71.638,300.936 61.553,300.936 	"/>
	<polygon class="st1" points="71.639,300.936 71.639,292.09 81.666,292.09 81.666,300.936 71.639,300.936 	"/>
	<polygon class="st1" points="60.515,478.556 60.515,469.71 70.6,469.71 70.6,478.556 60.515,478.556 	"/>
	<polygon class="st1" points="70.601,478.556 70.601,469.71 80.628,469.71 80.628,478.556 70.601,478.556 	"/>
	<rect x="80.628" y="464.002" class="st1" width="14.338" height="14.568"/>
	<line class="st1" x1="80.935" y1="471.287" x2="94.813" y2="471.287"/>
	<polygon class="st1" points="52.117,579.207 94.072,579.207 94.072,559.541 89.577,554.671 52.491,554.671 	"/>
	<polyline class="st1" points="81.852,655.343 94.136,655.343 94.136,578.642 	"/>
	<line class="st1" x1="36.046" y1="655.343" x2="46.813" y2="655.343"/>
	<line class="st1" x1="52.117" y1="566.659" x2="22.527" y2="566.659"/>
	<polygon class="st1" points="58.673,507.281 95.946,507.281 95.946,542.868 84.707,545.116 84.707,554.481 58.673,554.481 	"/>
	<path class="st1" d="M23.085,797.037c1.124,0.375,2.622-0.375,3.184-0.936c0.562-0.562,0.874-1.29,6.181-5.994
		c5.307-4.704-0.749-13.111-1.311-15.546c-0.562-2.435-1.499-13.485-1.312-17.419c0.188-3.934-3.184-4.308-3.184-4.308
		s-6.421-2.374-14.369,1.601"/>
	<path class="st1" d="M105.193,798.161c-2.435-0.187-2.317,0.186-2.317-0.562c0-0.749-5.244-6.556-6.93-8.99
		c-1.686-2.435-0.562-4.495,1.686-8.616c2.248-4.121,4.121-13.673,2.81-19.854s2.997-7.492,2.997-7.492s6.11-1.458,12.158,2.171"/>
	<polyline class="st1" points="58.569,507.167 77.444,507.167 77.444,499.893 85.87,499.893 93.506,492.255 93.506,478.556 
		34.439,478.556 34.439,484.041 45.584,484.041 45.584,492.4 53.175,499.992 78.804,499.904 	"/>
	<line class="st1" x1="105.798" y1="341.618" x2="22.638" y2="341.618"/>
	<path class="st1" d="M83.872,1115.199c11.432-1.258,22.525-3.6,22.525-3.6l-0.043-66.566h10.662v-68.947
		c0,0-0.406-13.217-11.134-13.535l-0.681-21.854l11.716-11.709v-77.365l-11.752-11.018v-44.182h3.521l4.801-5.1h2.101V725.31h-1.95
		l-5.551-5.551h-2.852V566.125v-45.159l0.149,0.021l3.001-1.519l-0.15-6.601l-2.851-1.631v-1.501l2.852-1.368v-6.151l-2.852-1.932
		v-1.2l3.151-1.969v-5.701l-3.151-1.631v-1.952l3.602-1.668v-6.301l-3.602-1.481V266.834l13.956-13.221l-0.15-78.466
		c0,0-1.499-42.458-6.601-50.56c-5.102-8.102-10.653-9.902-16.204-9.902c-5.551,0-30.307,0-30.307,0h-6.601c0,0-22.354,0-27.905,0
		s-11.102,1.8-16.204,9.902c-5.102,8.102-6.601,50.56-6.601,50.56l-0.15,78.466l13.956,13.221v211.722l-3.602,1.303v6.301
		l3.602,1.668v1.952l-3.151,1.631v5.701l3.151,1.969v1.2l-2.852,1.932v6.151l2.852,1.368v1.501l-2.851,1.631l-0.15,6.601
		l3.001,1.519v1.2l-3.001,1.781v6.151l3.001,1.969v1.35l-3.001,1.782v6.002l3.001,1.519v1.201l-2.851,1.932v6.001l3,1.97v1.33
		l-3.001,1.801v6.301l3.001,1.801v154.683h-2.851l-5.551,5.551h-1.95v66.014h2.101l4.801,5.1h3.521v44.182L11.04,851.623v77.365
		l11.716,11.709l-0.681,21.854c-10.728,0.318-11.134,13.535-11.134,13.535v68.947h12.493v66.566c0,0,12.723,2.424,24.633,3.717
		C48.068,1115.316,63.462,1117.046,83.872,1115.199z"/>
	<polyline class="st1" points="22.818,456.351 52.521,456.311 52.533,449.983 78.146,449.983 78.146,456.392 95.144,456.392 
		95.144,449.67 105.001,449.67 	"/>
	<path class="st1" d="M65.193,811.59c-8.75,0.25-16-2.667-16-2.667l-1.5,3.334l-3.917-1.584l1.5-4.083
		c-1.333-0.583-3.833-0.833-5.583-1.083c0.417-5.083,3.824-7.916,3.824-7.916l-1.094-1.094c0,0-1.313,1.354-2.563,3.438
		c-2.094,3.531-1.919,10.155-1.919,10.155h-3.166"/>
	<polyline class="st1" points="22.792,840.606 105.165,840.606 105.165,940.698 22.699,940.698 	"/>
	<line class="st1" x1="81.852" y1="654.952" x2="81.852" y2="672.383"/>
	<polyline class="st1" points="46.813,655.48 36.046,655.48 36.046,672.527 94.132,672.527 94.132,655.48 81.852,655.48 	"/>
	<line class="st1" x1="46.813" y1="655.03" x2="46.813" y2="672.483"/>
	<polyline class="st1" points="116.866,1008.685 103.747,1008.685 103.747,999.12 93.59,999.12 81.09,1014.134 49.34,1014.134 
		36.465,999.12 26.81,999.12 26.81,1008.685 10.957,1008.685 	"/>
	<path class="st1" d="M23.426,1111.599v-66.566H7.017v55.469C7.017,1100.501,11.632,1107.027,23.426,1111.599z"/>
	<path class="st1" d="M88.903,1114.26v-76.234h17.41v73.573C106.313,1111.599,98.063,1112.955,88.903,1114.26z"/>
	<path class="st1" d="M106.35,1111.599v-66.566h16.409v55.469C122.759,1100.501,118.144,1107.027,106.35,1111.599z"/>
	<line class="st1" x1="22.553" y1="312.189" x2="105.267" y2="312.189"/>
	<line class="st1" x1="22.553" y1="266.88" x2="105.267" y2="266.88"/>
	<rect x="50.901" y="286.342" class="st1" width="4.958" height="8.922"/>
	<line class="st1" x1="50.859" y1="288.543" x2="55.68" y2="288.543"/>
	<line class="st1" x1="50.859" y1="290.805" x2="55.68" y2="290.805"/>
	<line class="st1" x1="50.859" y1="293.067" x2="55.68" y2="293.067"/>
	<rect x="55.987" y="288.454" class="st1" width="4.958" height="8.922"/>
	<line class="st1" x1="55.945" y1="290.655" x2="60.766" y2="290.655"/>
	<line class="st1" x1="55.945" y1="292.917" x2="60.766" y2="292.917"/>
	<line class="st1" x1="55.945" y1="295.179" x2="60.766" y2="295.179"/>
	<rect x="50.477" y="464.17" class="st1" width="4.958" height="8.922"/>
	<line class="st1" x1="50.435" y1="466.372" x2="55.257" y2="466.372"/>
	<line class="st1" x1="50.435" y1="468.633" x2="55.257" y2="468.633"/>
	<line class="st1" x1="50.435" y1="470.895" x2="55.257" y2="470.895"/>
	<rect x="55.563" y="466.282" class="st1" width="4.958" height="8.922"/>
	<line class="st1" x1="55.521" y1="468.483" x2="60.342" y2="468.483"/>
	<line class="st1" x1="55.521" y1="470.745" x2="60.342" y2="470.745"/>
	<line class="st1" x1="55.521" y1="473.007" x2="60.342" y2="473.007"/>
	<rect x="69.569" y="548.199" class="st1" width="8.922" height="4.958"/>
	<line class="st1" x1="71.77" y1="553.199" x2="71.77" y2="548.378"/>
	<line class="st1" x1="74.032" y1="553.199" x2="74.032" y2="548.378"/>
	<line class="st1" x1="76.293" y1="553.199" x2="76.293" y2="548.378"/>
	<rect x="71.68" y="543.113" class="st1" width="8.923" height="4.958"/>
	<line class="st1" x1="73.882" y1="548.113" x2="73.882" y2="543.292"/>
	<line class="st1" x1="76.144" y1="548.113" x2="76.144" y2="543.292"/>
	<line class="st1" x1="78.406" y1="548.113" x2="78.406" y2="543.292"/>
	<line class="st1" x1="36.046" y1="672.6" x2="22.632" y2="672.6"/>
	<polyline class="st1" points="22.139,962.965 22.215,999.21 26.726,999.16 	"/>
	<polyline class="st1" points="105.955,962.329 105.879,999.149 101.369,999.097 	"/>
	<line class="st1" x1="97.215" y1="1038.247" x2="97.215" y2="1112.738"/>
	<line class="st1" x1="98.59" y1="1038.247" x2="98.59" y2="1112.738"/>
	<polygon class="st1" points="31.479,1112.988 23.725,1111.599 23.725,1037.738 31.479,1037.738 	"/>
	<polygon class="st1" points="40.718,1114.26 32.963,1113.238 32.963,1037.738 40.718,1037.738 	"/>
	<polyline class="st1" points="40.726,1038.239 40.726,1019.322 31.632,1008.657 26.215,1008.657 26.215,1014.987 36.799,1014.987 	
		"/>
	<polyline class="st1" points="88.903,1038.239 88.903,1019.322 97.965,1008.657 103.382,1008.657 103.382,1014.987 
		92.882,1014.987 	"/>
	<path class="st1" d="M32.892,1037.759v-8.047c0-0.374-0.303-0.526-0.677-0.526l0,0c-0.374,0-0.677,0.152-0.677,0.526v8.047H32.892z
		"/>
	<path class="st1" d="M98.582,1038.017v-8.047c0-0.374-0.303-0.526-0.677-0.526l0,0c-0.374,0-0.677,0.152-0.677,0.526v8.047H98.582z
		"/>
	<path class="st1" d="M95.178,785.677c-1.713-0.262-6.049,0.668-6.049,0.668s-6.119,3.512-14.104-3.561
		c0,0-2.822-3.265-10.399-2.998c-7.239,0.255-9.647,2.998-9.647,2.998c-7.984,7.073-14.064,3.561-14.064,3.561
		s-3.893-0.93-6.36-0.668"/>
	<polyline class="st1" points="22.715,719.738 22.736,725.301 14.361,725.301 	"/>
	<polyline class="st1" points="105.212,719.738 105.191,725.301 113.566,725.301 	"/>
	<line class="st1" x1="22.682" y1="692.903" x2="44.815" y2="692.903"/>
	<line class="st1" x1="85.148" y1="692.903" x2="105.277" y2="692.903"/>
	<polyline class="st1" points="44.845,697.167 44.845,700.384 38.258,700.384 38.258,707.479 22.68,707.479 	"/>
	<path class="st1" d="M46.857,759.612c0,0,2.17-0.14,4.103-1.464"/>
	<path class="st1" d="M46.038,758.008c0,0,2.156-0.124,4.208-1.254"/>
	<path class="st1" d="M45.232,756.363c0,0,2.194-0.116,4.364-1.136"/>
	<path class="st1" d="M44.575,754.744c0,0,2.171-0.106,4.406-1.02"/>
	<path class="st1" d="M43.996,753.139c0,0,2.155-0.099,4.464-0.905"/>
	<path class="st1" d="M43.484,751.465c0,0,2.148-0.088,4.559-0.779"/>
	<path class="st1" d="M43.145,749.849c0,0,0.421,4.94,4.685,11.263c0,0,2.262,0.066,4.02-1.498l-0.07-0.126
		c-3.511-5.85-4.027-10.366-4.027-10.366L43.145,749.849z"/>
	<path class="st1" d="M46.881,721.532c0,0,2.17,0.14,4.103,1.464"/>
	<path class="st1" d="M46.063,723.135c0,0,2.156,0.124,4.208,1.254"/>
	<path class="st1" d="M45.257,724.781c0,0,2.194,0.116,4.364,1.136"/>
	<path class="st1" d="M44.6,726.4c0,0,2.171,0.107,4.406,1.021"/>
	<path class="st1" d="M44.02,728.004c0,0,2.155,0.099,4.464,0.905"/>
	<path class="st1" d="M43.509,729.678c0,0,2.148,0.088,4.559,0.779"/>
	<path class="st1" d="M43.169,731.294c0,0,0.421-4.939,4.686-11.263c0,0,2.262-0.066,4.02,1.498l-0.07,0.126
		c-3.511,5.85-4.027,10.366-4.027,10.366L43.169,731.294z"/>
	<line class="st1" x1="22.75" y1="725.18" x2="22.75" y2="752.123"/>
	<line class="st1" x1="105.223" y1="725.18" x2="105.223" y2="752.123"/>
	<path class="st1" d="M52.373,740.453c0,2.502-1.014,4.53-2.265,4.53s-2.266-2.028-2.266-4.53c0-2.502,1.015-4.53,2.266-4.53
		S52.373,737.951,52.373,740.453z"/>
	<path class="st1" d="M41.407,749.914c1.727,0,8.149-0.276,9.53-3.177c1.022-2.147,1.561-3.729,1.561-6.25
		c0-2.52-0.801-5.42-1.837-6.732s-6.699-2.279-9.392-2.141"/>
	<line class="st1" x1="34.799" y1="810.074" x2="34.799" y2="840.775"/>
	<line class="st1" x1="95.132" y1="809.722" x2="95.132" y2="840.776"/>
	<path class="st1" d="M101.198,151.786h-8.858c0,0-2.589-0.144-3.596,1.294c-0.929,1.326-10.781,9.01-20.993,9.299l-4.32,0.004
		c-10.265-0.218-20.21-7.97-21.143-9.303c-1.007-1.438-3.596-1.294-3.596-1.294h-8.198v-10.665h6.7v-15.779h57.141v16.019h6.934
		L101.198,151.786z"/>
	<line class="st1" x1="65.491" y1="941.053" x2="74.874" y2="949.192"/>
	<line class="st1" x1="45.154" y1="940.956" x2="54.835" y2="949.325"/>
	<line class="st1" x1="45.154" y1="949.421" x2="54.85" y2="940.913"/>
	<line class="st1" x1="55.432" y1="941.269" x2="64.858" y2="949.47"/>
	<line class="st1" x1="55.225" y1="949.519" x2="64.85" y2="940.913"/>
	<line class="st1" x1="65.491" y1="949.325" x2="74.85" y2="940.913"/>
	<line class="st1" x1="75.432" y1="941.269" x2="85.05" y2="949.519"/>
	<line class="st1" x1="75.32" y1="949.373" x2="84.85" y2="940.913"/>
	<line class="st1" x1="65.491" y1="688.732" x2="74.874" y2="696.871"/>
	<line class="st1" x1="45.154" y1="688.634" x2="54.835" y2="697.003"/>
	<line class="st1" x1="45.154" y1="697.1" x2="54.85" y2="688.591"/>
	<line class="st1" x1="55.432" y1="688.948" x2="64.858" y2="697.149"/>
	<line class="st1" x1="55.225" y1="697.198" x2="64.85" y2="688.591"/>
	<line class="st1" x1="65.491" y1="697.003" x2="74.85" y2="688.591"/>
	<line class="st1" x1="75.432" y1="688.948" x2="85.05" y2="697.198"/>
	<line class="st1" x1="75.32" y1="697.052" x2="84.85" y2="688.591"/>
	<line class="st1" x1="45.057" y1="303.547" x2="54.739" y2="311.916"/>
	<line class="st1" x1="45.057" y1="312.013" x2="54.753" y2="303.504"/>
	<line class="st1" x1="55.335" y1="303.86" x2="64.761" y2="312.061"/>
	<line class="st1" x1="55.128" y1="312.11" x2="64.753" y2="303.504"/>
	<line class="st1" x1="61.955" y1="292.374" x2="71.339" y2="300.513"/>
	<line class="st1" x1="61.955" y1="300.645" x2="71.315" y2="292.233"/>
	<line class="st1" x1="71.897" y1="292.59" x2="81.515" y2="300.84"/>
	<line class="st1" x1="71.785" y1="300.694" x2="81.315" y2="292.233"/>
	<line class="st1" x1="65.585" y1="303.645" x2="74.969" y2="311.784"/>
	<line class="st1" x1="65.585" y1="311.917" x2="74.945" y2="303.504"/>
	<line class="st1" x1="75.527" y1="303.861" x2="85.145" y2="312.111"/>
	<line class="st1" x1="75.414" y1="311.965" x2="84.945" y2="303.504"/>
	<line class="st1" x1="60.685" y1="469.88" x2="70.574" y2="478.043"/>
	<line class="st1" x1="60.515" y1="478.556" x2="70.588" y2="470.07"/>
	<line class="st1" x1="70.783" y1="469.987" x2="80.596" y2="478.188"/>
	<line class="st1" x1="70.963" y1="478.237" x2="80.588" y2="469.631"/>
	<line class="st1" x1="81.853" y1="323.847" x2="81.853" y2="341.43"/>
	<polyline class="st1" points="46.844,324.181 36.047,324.181 36.047,341.374 93.093,341.374 93.093,324.181 81.614,324.181 	"/>
	<line class="st1" x1="46.814" y1="323.847" x2="46.814" y2="341.258"/>
	<polyline class="st1" points="80.705,981.061 80.705,961.186 93.595,961.186 93.595,981.311 36.428,981.311 36.428,961.156 
		49.111,961.156 49.111,981.311 	"/>
	<line class="st1" x1="36.465" y1="980.239" x2="36.465" y2="999.12"/>
	<line class="st1" x1="93.632" y1="980.905" x2="93.632" y2="999.286"/>
	<path class="st1" d="M73.12,962.267c-0.346,0-0.627,0.256-0.627,0.578"/>
	<line class="st1" x1="80.681" y1="962.267" x2="73.12" y2="962.267"/>
	<line class="st1" x1="72.494" y1="962.845" x2="72.494" y2="965.085"/>
	<line class="st1" x1="72.494" y1="965.085" x2="57.632" y2="965.085"/>
	<path class="st1" d="M57.632,962.845c0-0.322-0.275-0.578-0.621-0.578"/>
	<line class="st1" x1="57.632" y1="965.085" x2="57.632" y2="962.845"/>
	<line class="st1" x1="57.011" y1="962.267" x2="49.405" y2="962.267"/>
	<line class="st1" x1="65.231" y1="976.08" x2="65.231" y2="962.06"/>
	<line class="st1" x1="64.929" y1="976.08" x2="64.929" y2="962.06"/>
	<line class="st1" x1="80.329" y1="975.363" x2="65.231" y2="975.363"/>
	<line class="st1" x1="65.231" y1="962.06" x2="64.929" y2="962.06"/>
	<line class="st1" x1="65.231" y1="976.08" x2="64.929" y2="976.08"/>
	<line class="st1" x1="64.929" y1="975.363" x2="49.287" y2="975.363"/>
	<line class="st1" x1="64.929" y1="973.878" x2="58.276" y2="973.878"/>
	<line class="st1" x1="64.929" y1="972.392" x2="58.276" y2="972.392"/>
	<line class="st1" x1="64.929" y1="970.906" x2="58.276" y2="970.906"/>
	<line class="st1" x1="64.929" y1="969.419" x2="58.276" y2="969.419"/>
	<line class="st1" x1="64.929" y1="967.933" x2="58.276" y2="967.933"/>
	<line class="st1" x1="64.929" y1="966.447" x2="58.276" y2="966.447"/>
	<line class="st1" x1="64.929" y1="963.476" x2="57.673" y2="963.476"/>
	<line class="st1" x1="71.884" y1="973.878" x2="65.231" y2="973.878"/>
	<line class="st1" x1="71.884" y1="972.392" x2="65.231" y2="972.392"/>
	<line class="st1" x1="71.884" y1="970.906" x2="65.231" y2="970.906"/>
	<line class="st1" x1="71.884" y1="969.419" x2="65.231" y2="969.419"/>
	<line class="st1" x1="71.884" y1="967.933" x2="65.231" y2="967.933"/>
	<line class="st1" x1="71.884" y1="966.447" x2="65.231" y2="966.447"/>
	<line class="st1" x1="72.54" y1="963.476" x2="65.231" y2="963.476"/>
	<line class="st1" x1="49.231" y1="963.73" x2="57.066" y2="963.73"/>
	<line class="st1" x1="49.338" y1="965.197" x2="57.887" y2="965.197"/>
	<line class="st1" x1="49.179" y1="966.658" x2="57.066" y2="966.658"/>
	<line class="st1" x1="49.338" y1="968.123" x2="57.034" y2="968.123"/>
	<line class="st1" x1="72.476" y1="963.73" x2="80.541" y2="963.73"/>
	<line class="st1" x1="72.423" y1="965.197" x2="80.596" y2="965.197"/>
	<line class="st1" x1="73.093" y1="966.658" x2="80.649" y2="966.658"/>
	<line class="st1" x1="73.093" y1="968.123" x2="80.596" y2="968.123"/>
	<path class="st1" d="M56.962,976.248c0,0.309,0.271,0.56,0.605,0.56c0.335,0,0.604-0.252,0.604-0.56l0,0"/>
	<line class="st1" x1="58.172" y1="976.248" x2="58.172" y2="976.08"/>
	<line class="st1" x1="56.962" y1="976.248" x2="56.962" y2="976.08"/>
	<path class="st1" d="M71.884,976.248c0,0.309,0.27,0.56,0.601,0.56c0.337,0,0.608-0.252,0.608-0.56l0,0"/>
	<line class="st1" x1="73.093" y1="976.248" x2="73.093" y2="976.08"/>
	<line class="st1" x1="71.884" y1="976.248" x2="71.884" y2="976.08"/>
	<line class="st1" x1="57.576" y1="976.08" x2="57.576" y2="965.226"/>
	<line class="st1" x1="49.392" y1="971.052" x2="57.066" y2="971.052"/>
	<line class="st1" x1="49.392" y1="972.513" x2="57.066" y2="972.513"/>
	<line class="st1" x1="49.445" y1="973.98" x2="57.066" y2="973.98"/>
	<line class="st1" x1="49.338" y1="969.585" x2="57.066" y2="969.585"/>
	<line class="st1" x1="72.478" y1="976.08" x2="72.478" y2="965.029"/>
	<line class="st1" x1="73.093" y1="971.052" x2="80.541" y2="971.052"/>
	<line class="st1" x1="73.093" y1="972.513" x2="80.489" y2="972.513"/>
	<line class="st1" x1="73.093" y1="973.98" x2="80.437" y2="973.98"/>
	<line class="st1" x1="73.008" y1="969.585" x2="80.705" y2="969.585"/>
	<path class="st1" d="M73.564,656.341c-0.386,0-0.697,0.242-0.697,0.546"/>
	<line class="st1" x1="81.997" y1="656.341" x2="73.564" y2="656.341"/>
	<line class="st1" x1="72.867" y1="656.887" x2="72.867" y2="659.003"/>
	<line class="st1" x1="72.867" y1="659.003" x2="56.29" y2="659.003"/>
	<path class="st1" d="M56.29,656.887c0-0.304-0.307-0.546-0.692-0.546"/>
	<line class="st1" x1="56.29" y1="659.003" x2="56.29" y2="656.887"/>
	<line class="st1" x1="55.598" y1="656.341" x2="47.114" y2="656.341"/>
	<line class="st1" x1="64.766" y1="669.386" x2="64.766" y2="656.146"/>
	<line class="st1" x1="64.429" y1="669.386" x2="64.429" y2="656.146"/>
	<line class="st1" x1="81.605" y1="668.708" x2="64.766" y2="668.708"/>
	<line class="st1" x1="64.766" y1="656.146" x2="64.429" y2="656.146"/>
	<line class="st1" x1="64.766" y1="669.386" x2="64.429" y2="669.386"/>
	<line class="st1" x1="64.429" y1="668.708" x2="46.983" y2="668.708"/>
	<line class="st1" x1="64.429" y1="667.307" x2="57.008" y2="667.307"/>
	<line class="st1" x1="64.429" y1="665.904" x2="57.008" y2="665.904"/>
	<line class="st1" x1="64.429" y1="664.5" x2="57.008" y2="664.5"/>
	<line class="st1" x1="64.429" y1="663.096" x2="57.008" y2="663.096"/>
	<line class="st1" x1="64.429" y1="661.693" x2="57.008" y2="661.693"/>
	<line class="st1" x1="64.429" y1="660.289" x2="57.008" y2="660.289"/>
	<line class="st1" x1="64.429" y1="657.483" x2="56.336" y2="657.483"/>
	<line class="st1" x1="72.186" y1="667.307" x2="64.766" y2="667.307"/>
	<line class="st1" x1="72.186" y1="665.904" x2="64.766" y2="665.904"/>
	<line class="st1" x1="72.186" y1="664.5" x2="64.766" y2="664.5"/>
	<line class="st1" x1="72.186" y1="663.096" x2="64.766" y2="663.096"/>
	<line class="st1" x1="72.186" y1="661.693" x2="64.766" y2="661.693"/>
	<line class="st1" x1="72.186" y1="660.289" x2="64.766" y2="660.289"/>
	<line class="st1" x1="72.918" y1="657.483" x2="64.766" y2="657.483"/>
	<line class="st1" x1="46.92" y1="657.723" x2="55.658" y2="657.723"/>
	<line class="st1" x1="47.039" y1="659.108" x2="56.575" y2="659.108"/>
	<line class="st1" x1="46.862" y1="660.488" x2="55.658" y2="660.488"/>
	<line class="st1" x1="47.039" y1="661.872" x2="55.623" y2="661.872"/>
	<line class="st1" x1="72.846" y1="657.723" x2="81.842" y2="657.723"/>
	<line class="st1" x1="72.788" y1="659.108" x2="81.904" y2="659.108"/>
	<line class="st1" x1="73.534" y1="660.488" x2="81.962" y2="660.488"/>
	<line class="st1" x1="73.534" y1="661.872" x2="81.904" y2="661.872"/>
	<path class="st1" d="M55.543,669.544c0,0.291,0.303,0.529,0.675,0.529c0.374,0,0.674-0.238,0.674-0.529l0,0"/>
	<line class="st1" x1="56.892" y1="669.544" x2="56.892" y2="669.386"/>
	<line class="st1" x1="55.543" y1="669.544" x2="55.543" y2="669.386"/>
	<path class="st1" d="M72.186,669.544c0,0.291,0.301,0.529,0.67,0.529c0.376,0,0.678-0.238,0.678-0.529l0,0"/>
	<line class="st1" x1="73.534" y1="669.544" x2="73.534" y2="669.386"/>
	<line class="st1" x1="72.186" y1="669.544" x2="72.186" y2="669.386"/>
	<line class="st1" x1="56.227" y1="669.386" x2="56.227" y2="659.136"/>
	<line class="st1" x1="47.1" y1="664.638" x2="55.658" y2="664.638"/>
	<line class="st1" x1="47.1" y1="666.018" x2="55.658" y2="666.018"/>
	<line class="st1" x1="47.159" y1="667.403" x2="55.658" y2="667.403"/>
	<line class="st1" x1="47.039" y1="663.252" x2="55.658" y2="663.252"/>
	<line class="st1" x1="72.848" y1="669.386" x2="72.848" y2="658.95"/>
	<line class="st1" x1="73.534" y1="664.638" x2="81.842" y2="664.638"/>
	<line class="st1" x1="73.534" y1="666.018" x2="81.784" y2="666.018"/>
	<line class="st1" x1="73.534" y1="667.403" x2="81.725" y2="667.403"/>
	<line class="st1" x1="73.439" y1="663.252" x2="82.024" y2="663.252"/>
	<path class="st1" d="M73.488,325.485c-0.382,0-0.689,0.231-0.689,0.522"/>
	<line class="st1" x1="81.827" y1="325.485" x2="73.488" y2="325.485"/>
	<line class="st1" x1="72.799" y1="326.007" x2="72.799" y2="328.031"/>
	<line class="st1" x1="72.799" y1="328.031" x2="56.405" y2="328.031"/>
	<path class="st1" d="M56.405,326.007c0-0.29-0.303-0.522-0.684-0.522"/>
	<line class="st1" x1="56.405" y1="328.031" x2="56.405" y2="326.007"/>
	<line class="st1" x1="55.722" y1="325.485" x2="47.331" y2="325.485"/>
	<line class="st1" x1="64.788" y1="337.961" x2="64.788" y2="325.298"/>
	<line class="st1" x1="64.453" y1="337.961" x2="64.453" y2="325.298"/>
	<line class="st1" x1="81.439" y1="337.313" x2="64.788" y2="337.313"/>
	<line class="st1" x1="64.788" y1="325.298" x2="64.453" y2="325.298"/>
	<line class="st1" x1="64.788" y1="337.961" x2="64.453" y2="337.961"/>
	<line class="st1" x1="64.453" y1="337.313" x2="47.202" y2="337.313"/>
	<line class="st1" x1="64.453" y1="335.973" x2="57.116" y2="335.973"/>
	<line class="st1" x1="64.453" y1="334.631" x2="57.116" y2="334.631"/>
	<line class="st1" x1="64.453" y1="333.288" x2="57.116" y2="333.288"/>
	<line class="st1" x1="64.453" y1="331.945" x2="57.116" y2="331.945"/>
	<line class="st1" x1="64.453" y1="330.603" x2="57.116" y2="330.603"/>
	<line class="st1" x1="64.453" y1="329.26" x2="57.116" y2="329.26"/>
	<line class="st1" x1="64.453" y1="326.577" x2="56.452" y2="326.577"/>
	<line class="st1" x1="72.124" y1="335.973" x2="64.788" y2="335.973"/>
	<line class="st1" x1="72.124" y1="334.631" x2="64.788" y2="334.631"/>
	<line class="st1" x1="72.124" y1="333.288" x2="64.788" y2="333.288"/>
	<line class="st1" x1="72.124" y1="331.945" x2="64.788" y2="331.945"/>
	<line class="st1" x1="72.124" y1="330.603" x2="64.788" y2="330.603"/>
	<line class="st1" x1="72.124" y1="329.26" x2="64.788" y2="329.26"/>
	<line class="st1" x1="72.849" y1="326.577" x2="64.788" y2="326.577"/>
	<line class="st1" x1="47.141" y1="326.806" x2="55.781" y2="326.806"/>
	<line class="st1" x1="47.258" y1="328.131" x2="56.687" y2="328.131"/>
	<line class="st1" x1="47.083" y1="329.451" x2="55.781" y2="329.451"/>
	<line class="st1" x1="47.258" y1="330.774" x2="55.747" y2="330.774"/>
	<line class="st1" x1="72.777" y1="326.806" x2="81.673" y2="326.806"/>
	<line class="st1" x1="72.72" y1="328.131" x2="81.734" y2="328.131"/>
	<line class="st1" x1="73.457" y1="329.451" x2="81.792" y2="329.451"/>
	<line class="st1" x1="73.457" y1="330.774" x2="81.734" y2="330.774"/>
	<path class="st1" d="M55.667,338.113c0,0.278,0.299,0.506,0.667,0.506c0.37,0,0.667-0.228,0.667-0.506l0,0"/>
	<line class="st1" x1="57.002" y1="338.113" x2="57.002" y2="337.961"/>
	<line class="st1" x1="55.667" y1="338.113" x2="55.667" y2="337.961"/>
	<path class="st1" d="M72.124,338.113c0,0.278,0.298,0.506,0.663,0.506c0.371,0,0.67-0.228,0.67-0.506l0,0"/>
	<line class="st1" x1="73.457" y1="338.113" x2="73.457" y2="337.961"/>
	<line class="st1" x1="72.124" y1="338.113" x2="72.124" y2="337.961"/>
	<line class="st1" x1="56.343" y1="337.961" x2="56.343" y2="328.158"/>
	<line class="st1" x1="47.318" y1="333.42" x2="55.781" y2="333.42"/>
	<line class="st1" x1="47.318" y1="334.74" x2="55.781" y2="334.74"/>
	<line class="st1" x1="47.376" y1="336.064" x2="55.781" y2="336.064"/>
	<line class="st1" x1="47.258" y1="332.095" x2="55.781" y2="332.095"/>
	<line class="st1" x1="72.779" y1="337.961" x2="72.779" y2="327.979"/>
	<line class="st1" x1="73.457" y1="333.42" x2="81.673" y2="333.42"/>
	<line class="st1" x1="73.457" y1="334.74" x2="81.616" y2="334.74"/>
	<line class="st1" x1="73.457" y1="336.064" x2="81.557" y2="336.064"/>
	<line class="st1" x1="73.365" y1="332.095" x2="81.853" y2="332.095"/>
	<rect x="109.681" y="356.765" class="st1" width="17.553" height="33.178"/>
	<path class="st1" d="M122.459,385.775c0,0,1.055,0.188,3.002-3.101v-17.14l-2.692-3.702c0,0-0.879-0.901-2.367-0.901
		c-1.492,0-2.396,0-3.888,0c-1.489,0-2.369,0.901-2.369,0.901l-2.69,3.702v17.14c1.947,3.289,3.001,3.101,3.001,3.101H122.459z"/>
	<rect x="0.542" y="356.765" class="st1" width="17.553" height="33.178"/>
	<path class="st1" d="M13.32,385.775c0,0,1.055,0.188,3.002-3.101v-17.14l-2.692-3.702c0,0-0.879-0.901-2.367-0.901
		c-1.492,0-2.397,0-3.888,0c-1.489,0-2.369,0.901-2.369,0.901l-2.69,3.702v17.14c1.947,3.289,3.001,3.101,3.001,3.101H13.32z"/>
	<rect x="15.572" y="763.52" class="st0" width="30.192" height="17.045"/>
	<path class="st2" d="M38.403,330.113h1.007c1,0,1.727,0.527,1.727,1.783v0.072c0,0.728-0.288,1.191-0.656,1.472l0.751,2.271h-1.039
		l-0.632-1.951h-0.184v1.951h-0.976V330.113z M39.426,332.879c0.424,0,0.735-0.248,0.735-0.903v-0.064
		c0-0.704-0.336-0.888-0.759-0.888h-0.024v1.855H39.426z M41.586,330.113h1.008c1,0,1.727,0.527,1.727,1.783v0.072
		c0,0.728-0.288,1.191-0.656,1.472l0.751,2.271h-1.04l-0.631-1.951h-0.184v1.951h-0.976V330.113z M42.61,332.879
		c0.424,0,0.736-0.248,0.736-0.903v-0.064c0-0.704-0.336-0.888-0.76-0.888h-0.024v1.855H42.61z"/>
	<path class="st2" d="M84.403,330.113h1.008c0.999,0,1.727,0.527,1.727,1.783v0.072c0,0.728-0.287,1.191-0.655,1.472l0.752,2.271
		h-1.04l-0.631-1.951h-0.185v1.951h-0.976V330.113z M85.426,332.879c0.424,0,0.736-0.248,0.736-0.903v-0.064
		c0-0.704-0.336-0.888-0.76-0.888h-0.024v1.855H85.426z M87.587,330.113h1.007c1,0,1.728,0.527,1.728,1.783v0.072
		c0,0.728-0.288,1.191-0.655,1.472l0.751,2.271h-1.039l-0.632-1.951h-0.184v1.951h-0.976V330.113z M88.611,332.879
		c0.424,0,0.735-0.248,0.735-0.903v-0.064c0-0.704-0.336-0.888-0.76-0.888h-0.023v1.855H88.611z"/>
	<path class="st2" d="M76.417,487.435v-1.016c0.344,0.2,0.616,0.312,0.88,0.312c0.279,0,0.52-0.136,0.52-0.479v-0.016
		c0-0.256-0.08-0.448-0.544-0.976c-0.663-0.751-0.936-1.111-0.936-1.791v-0.016c0-0.896,0.584-1.463,1.359-1.463
		c0.392,0,0.624,0.056,0.864,0.176v1.016c-0.305-0.176-0.488-0.256-0.744-0.256c-0.271,0-0.504,0.176-0.504,0.479v0.016
		c0,0.264,0.08,0.36,0.544,0.896c0.768,0.887,0.936,1.231,0.936,1.871v0.016c0,0.879-0.615,1.463-1.383,1.463
		C77.026,487.666,76.698,487.57,76.417,487.435z M79.921,482.014h1.039l1.063,5.613h-0.976l-0.184-1.111h-0.888l-0.176,1.111h-0.943
		L79.921,482.014z M80.721,485.636l-0.296-1.847l-0.304,1.847H80.721z M82.322,482.03h0.976v2.342l0.791-2.342h1.104l-0.943,2.366
		l0.96,3.23h-1.088l-0.607-2.119l-0.216,0.616v1.503h-0.976V482.03z M85.545,482.03h2.143v0.927h-1.167v1.391h1.031v0.928h-1.031
		v1.423h1.191v0.928h-2.167V482.03z M77.622,490.03h0.848c0.943,0,1.823,0.384,1.823,1.423v0.04c0,0.72-0.408,1.071-0.808,1.263
		c0.472,0.208,0.879,0.536,0.879,1.248v0.072c0,0.992-0.768,1.551-1.854,1.551h-0.888V490.03z M78.613,492.38
		c0.432,0,0.72-0.248,0.72-0.736v-0.016c0-0.487-0.288-0.695-0.72-0.695h-0.016v1.447H78.613z M78.621,494.723
		c0.448,0,0.768-0.264,0.768-0.728v-0.04c0-0.464-0.319-0.728-0.768-0.728h-0.023v1.495H78.621z M81.517,490.014h1.04l1.062,5.613
		h-0.975l-0.185-1.111h-0.888l-0.176,1.111h-0.943L81.517,490.014z M82.317,493.636l-0.296-1.847l-0.304,1.847H82.317z
		 M83.917,490.03h1.008c0.999,0,1.727,0.527,1.727,1.783v0.072c0,0.728-0.287,1.191-0.655,1.472l0.752,2.271h-1.04l-0.632-1.951
		h-0.184v1.951h-0.976V490.03z M84.941,492.796c0.424,0,0.735-0.248,0.735-0.903v-0.064c0-0.704-0.335-0.888-0.759-0.888h-0.024
		v1.855H84.941z"/>
	<path class="st2" d="M51.045,487.435v-1.016c0.344,0.2,0.616,0.312,0.88,0.312c0.28,0,0.52-0.136,0.52-0.479v-0.016
		c0-0.256-0.08-0.448-0.544-0.976c-0.664-0.751-0.935-1.111-0.935-1.791v-0.016c0-0.896,0.583-1.463,1.359-1.463
		c0.392,0,0.624,0.056,0.864,0.176v1.016c-0.304-0.176-0.488-0.256-0.744-0.256c-0.272,0-0.504,0.176-0.504,0.479v0.016
		c0,0.264,0.08,0.36,0.544,0.896c0.768,0.887,0.936,1.231,0.936,1.871v0.016c0,0.879-0.616,1.463-1.383,1.463
		C51.653,487.666,51.325,487.57,51.045,487.435z M53.749,485.996v-3.966h0.967v4.062c0,0.504,0.176,0.704,0.424,0.704
		c0.248,0,0.424-0.2,0.424-0.704v-4.062h0.967v3.966c0,1.175-0.591,1.703-1.391,1.703C54.341,487.698,53.749,487.171,53.749,485.996
		z M56.974,487.435v-1.016c0.344,0.2,0.615,0.312,0.879,0.312c0.28,0,0.52-0.136,0.52-0.479v-0.016c0-0.256-0.08-0.448-0.543-0.976
		c-0.664-0.751-0.936-1.111-0.936-1.791v-0.016c0-0.896,0.583-1.463,1.359-1.463c0.392,0,0.624,0.056,0.863,0.176v1.016
		c-0.304-0.176-0.488-0.256-0.744-0.256c-0.272,0-0.503,0.176-0.503,0.479v0.016c0,0.264,0.08,0.36,0.543,0.896
		c0.768,0.887,0.936,1.231,0.936,1.871v0.016c0,0.879-0.616,1.463-1.383,1.463C57.581,487.666,57.253,487.57,56.974,487.435z
		 M59.693,482.03h0.976v2.318h0.847v-2.318h0.976v5.597h-0.976v-2.351h-0.847v2.351h-0.976V482.03z M63.085,482.03h0.975v5.597
		h-0.975V482.03z M53.169,490.03h0.848c0.943,0,1.823,0.384,1.823,1.423v0.04c0,0.72-0.408,1.071-0.808,1.263
		c0.472,0.208,0.88,0.536,0.88,1.248v0.072c0,0.992-0.768,1.551-1.855,1.551h-0.888V490.03z M54.161,492.38
		c0.432,0,0.719-0.248,0.719-0.736v-0.016c0-0.487-0.288-0.695-0.719-0.695h-0.016v1.447H54.161z M54.169,494.723
		c0.448,0,0.768-0.264,0.768-0.728v-0.04c0-0.464-0.32-0.728-0.768-0.728h-0.024v1.495H54.169z M57.065,490.014h1.04l1.063,5.613
		h-0.976l-0.184-1.111h-0.888l-0.176,1.111h-0.944L57.065,490.014z M57.865,493.636l-0.296-1.847l-0.304,1.847H57.865z
		 M59.465,490.03h1.008c0.999,0,1.727,0.527,1.727,1.783v0.072c0,0.728-0.288,1.191-0.656,1.472l0.751,2.271h-1.04l-0.631-1.951
		h-0.184v1.951h-0.976V490.03z M60.489,492.796c0.424,0,0.736-0.248,0.736-0.903v-0.064c0-0.704-0.336-0.888-0.76-0.888h-0.024
		v1.855H60.489z"/>
	<path class="st2" d="M59.13,563.368h-0.688v-0.927h2.351v0.927h-0.688v4.669H59.13V563.368z M61.202,562.441h2.143v0.927h-1.167
		v1.391h1.031v0.928h-1.031v1.423h1.191v0.928h-2.167V562.441z M63.842,562.441h0.872c1.063,0,1.807,0.575,1.807,1.887v0.016
		c0,1.263-0.704,1.863-1.695,1.935h-0.008v1.759h-0.976V562.441z M64.826,565.375c0.408-0.024,0.72-0.32,0.72-1v-0.016
		c0-0.712-0.272-1.016-0.696-1.016h-0.032v2.031H64.826z M66.922,562.441h0.871c1.063,0,1.807,0.575,1.807,1.887v0.016
		c0,1.263-0.704,1.863-1.695,1.935h-0.008v1.759h-0.975V562.441z M67.906,565.375c0.408-0.024,0.719-0.32,0.719-1v-0.016
		c0-0.712-0.271-1.016-0.695-1.016h-0.032v2.031H67.906z M70.506,562.425h1.04l1.063,5.613h-0.975l-0.184-1.111h-0.888l-0.176,1.111
		h-0.943L70.506,562.425z M71.305,566.047l-0.296-1.847l-0.304,1.847H71.305z M72.906,562.441h0.912l0.983,2.83v-2.83h0.951v5.597
		h-0.863l-1.032-2.966v2.966h-0.951V562.441z M77.082,565.831l-1.039-3.39h1.007l0.528,2.095l0.535-2.095h0.983l-1.039,3.39v2.207
		h-0.976V565.831z M79.85,562.425h1.039l1.063,5.613h-0.976l-0.184-1.111h-0.888l-0.176,1.111h-0.943L79.85,562.425z
		 M80.649,566.047l-0.296-1.847l-0.304,1.847H80.649z M82.25,562.441h0.975v2.342l0.792-2.342h1.104l-0.943,2.366l0.959,3.23h-1.087
		l-0.608-2.119l-0.216,0.616v1.503H82.25V562.441z M85.49,562.441h0.976v5.597H85.49V562.441z"/>
	<path class="st2" d="M114.106,676.335v-0.872c0-1.063,0.575-1.807,1.887-1.807h0.016c1.264,0,1.863,0.703,1.936,1.695v0.008h1.759
		v0.976H114.106z M117.041,675.352c-0.024-0.408-0.32-0.72-1-0.72h-0.016c-0.712,0-1.016,0.271-1.016,0.695v0.032h2.031V675.352z
		 M114.106,673.255v-1.008c0-0.999,0.527-1.727,1.783-1.727h0.071c0.728,0,1.191,0.288,1.472,0.655l2.271-0.751v1.039l-1.951,0.632
		v0.184h1.951v0.976H114.106z M116.873,672.232c0-0.424-0.248-0.735-0.904-0.735h-0.063c-0.704,0-0.888,0.336-0.888,0.759v0.024
		h1.855V672.232z M117.048,670.167h-0.288c-1.847,0-2.734-0.6-2.734-1.487s0.888-1.487,2.734-1.487h0.288
		c1.847,0,2.734,0.6,2.734,1.487S118.895,670.167,117.048,670.167z M117.048,668.184h-0.288c-1.439,0-1.839,0.2-1.839,0.496
		s0.399,0.496,1.839,0.496h0.288c1.438,0,1.839-0.2,1.839-0.496S118.487,668.184,117.048,668.184z M114.106,666.711v-0.968
		l2.047-0.688l-2.047-0.688v-0.968h5.597v0.936h-3.382l2.118,0.712v0.016l-2.118,0.712h3.382v0.936H114.106z M114.106,662.824
		v-2.144h0.928v1.168h1.391v-1.031h0.928v1.031h1.423v-1.191h0.928v2.167H114.106z M114.106,660.183v-0.911l2.83-0.983h-2.83v-0.951
		h5.597v0.863l-2.967,1.031h2.967v0.951H114.106z M114.089,655.976v-1.039l5.613-1.063v0.975l-1.111,0.185v0.888l1.111,0.176v0.943
		L114.089,655.976z M117.711,655.176l-1.847,0.296l1.847,0.304V655.176z M114.106,653.576v-0.911c0-1.248,0.903-1.959,2.702-1.959
		H117c1.799,0,2.702,0.711,2.702,1.959v0.911H114.106z M118.807,652.56c0-0.464-0.408-0.863-1.807-0.863h-0.192
		c-1.399,0-1.807,0.399-1.807,0.863v0.04h3.806V652.56z M114.106,650.224v-2.144h0.928v1.168h1.391v-1.032h0.928v1.032h1.423v-1.191
		h0.928v2.167H114.106z M114.106,646.312V645.4c0-1.247,0.903-1.959,2.702-1.959H117c1.799,0,2.702,0.712,2.702,1.959v0.912H114.106
		z M118.807,645.296c0-0.464-0.408-0.863-1.807-0.863h-0.192c-1.399,0-1.807,0.399-1.807,0.863v0.04h3.806V645.296z
		 M114.106,642.959v-2.143h0.928v1.168h1.391v-1.032h0.928v1.032h1.423v-1.191h0.928v2.166H114.106z M117,640.496h-0.192
		c-1.967,0-2.742-0.728-2.742-1.639c0-0.272,0.032-0.432,0.128-0.64h1.007c-0.119,0.2-0.184,0.359-0.184,0.544
		c0,0.432,0.384,0.743,1.783,0.743h0.208c1.479,0,1.783-0.312,1.783-0.76c0-0.151-0.057-0.344-0.176-0.544h0.959
		c0.128,0.225,0.168,0.44,0.168,0.72C119.743,639.816,118.951,640.496,117,640.496z M114.106,637.712v-0.976h2.343l-2.343-0.792
		v-1.104l2.366,0.943l3.23-0.959v1.087l-2.119,0.608l0.616,0.216h1.503v0.976H114.106z"/>
	<path class="st2" d="M9.975,679.001v-0.872c0-1.063,0.575-1.807,1.887-1.807h0.016c1.263,0,1.863,0.703,1.935,1.695v0.008h1.759
		v0.976H9.975z M12.909,678.018c-0.024-0.408-0.32-0.72-1-0.72h-0.016c-0.712,0-1.016,0.271-1.016,0.695v0.032h2.031V678.018z
		 M9.975,675.921v-1.008c0-0.999,0.527-1.727,1.783-1.727h0.072c0.728,0,1.191,0.288,1.472,0.655l2.271-0.751v1.039l-1.951,0.632
		v0.184h1.951v0.976H9.975z M12.741,674.898c0-0.424-0.248-0.735-0.903-0.735h-0.064c-0.704,0-0.888,0.336-0.888,0.759v0.024h1.855
		V674.898z M12.917,672.833h-0.288c-1.847,0-2.734-0.6-2.734-1.487s0.887-1.487,2.734-1.487h0.288c1.847,0,2.734,0.6,2.734,1.487
		S14.764,672.833,12.917,672.833z M12.917,670.85h-0.288c-1.439,0-1.839,0.2-1.839,0.496s0.399,0.496,1.839,0.496h0.288
		c1.439,0,1.839-0.2,1.839-0.496S14.356,670.85,12.917,670.85z M9.975,669.377v-0.968l2.047-0.688l-2.047-0.688v-0.968h5.597v0.936
		h-3.382l2.119,0.712v0.016l-2.119,0.712h3.382v0.936H9.975z M9.975,665.49v-2.144h0.927v1.168h1.391v-1.031h0.928v1.031h1.423
		v-1.191h0.928v2.167H9.975z M9.975,662.849v-0.911l2.83-0.983h-2.83v-0.951h5.597v0.863l-2.966,1.031h2.966v0.951H9.975z
		 M9.959,658.642v-1.039l5.613-1.063v0.975l-1.111,0.185v0.888l1.111,0.176v0.943L9.959,658.642z M13.581,657.842l-1.847,0.296
		l1.847,0.304V657.842z M9.975,656.242v-0.911c0-1.248,0.903-1.959,2.702-1.959h0.192c1.799,0,2.703,0.711,2.703,1.959v0.911H9.975z
		 M14.676,655.226c0-0.464-0.408-0.863-1.807-0.863h-0.192c-1.399,0-1.807,0.399-1.807,0.863v0.04h3.806V655.226z M9.975,652.89
		v-2.144h0.927v1.168h1.391v-1.032h0.928v1.032h1.423v-1.191h0.928v2.167H9.975z M9.975,648.978v-0.912
		c0-1.247,0.903-1.959,2.702-1.959h0.192c1.799,0,2.703,0.712,2.703,1.959v0.912H9.975z M14.676,647.962
		c0-0.464-0.408-0.863-1.807-0.863h-0.192c-1.399,0-1.807,0.399-1.807,0.863v0.04h3.806V647.962z M9.975,645.625v-2.143h0.927v1.168
		h1.391v-1.032h0.928v1.032h1.423v-1.191h0.928v2.166H9.975z M12.869,643.162h-0.192c-1.967,0-2.742-0.728-2.742-1.639
		c0-0.272,0.032-0.432,0.128-0.64h1.007c-0.12,0.2-0.184,0.359-0.184,0.544c0,0.432,0.384,0.743,1.783,0.743h0.208
		c1.479,0,1.783-0.312,1.783-0.76c0-0.151-0.056-0.344-0.176-0.544h0.959c0.128,0.225,0.168,0.44,0.168,0.72
		C15.612,642.482,14.82,643.162,12.869,643.162z M9.975,640.378v-0.976h2.342l-2.342-0.792v-1.104l2.366,0.943l3.23-0.959v1.087
		l-2.119,0.608l0.616,0.216h1.503v0.976H9.975z"/>
	<path class="st2" d="M58.833,1018.475h0.847c0.944,0,1.823,0.384,1.823,1.423v0.04c0,0.72-0.408,1.071-0.808,1.264
		c0.472,0.208,0.879,0.535,0.879,1.247v0.072c0,0.991-0.768,1.551-1.855,1.551h-0.887V1018.475z M59.824,1020.826
		c0.432,0,0.72-0.248,0.72-0.735v-0.017c0-0.487-0.288-0.695-0.72-0.695h-0.016v1.447H59.824z M59.832,1023.168
		c0.448,0,0.768-0.264,0.768-0.728v-0.04c0-0.464-0.32-0.728-0.768-0.728h-0.024v1.495H59.832z M61.985,1018.475h0.976v4.669h1.031
		v0.928h-2.007V1018.475z M64.401,1018.475h0.975v5.597h-0.975V1018.475z M65.849,1023.88v-1.016
		c0.344,0.199,0.616,0.312,0.879,0.312c0.28,0,0.52-0.136,0.52-0.479v-0.017c0-0.256-0.08-0.447-0.544-0.976
		c-0.664-0.751-0.936-1.111-0.936-1.791v-0.016c0-0.896,0.584-1.463,1.359-1.463c0.392,0,0.624,0.056,0.864,0.176v1.016
		c-0.304-0.176-0.488-0.256-0.744-0.256c-0.272,0-0.504,0.176-0.504,0.479v0.016c0,0.265,0.08,0.36,0.544,0.896
		c0.768,0.888,0.936,1.231,0.936,1.871v0.017c0,0.879-0.616,1.463-1.383,1.463C66.457,1024.112,66.128,1024.016,65.849,1023.88z
		 M68.449,1023.88v-1.016c0.344,0.199,0.616,0.312,0.879,0.312c0.28,0,0.52-0.136,0.52-0.479v-0.017c0-0.256-0.08-0.447-0.544-0.976
		c-0.664-0.751-0.936-1.111-0.936-1.791v-0.016c0-0.896,0.584-1.463,1.359-1.463c0.392,0,0.624,0.056,0.863,0.176v1.016
		c-0.304-0.176-0.487-0.256-0.743-0.256c-0.272,0-0.504,0.176-0.504,0.479v0.016c0,0.265,0.08,0.36,0.543,0.896
		c0.768,0.888,0.936,1.231,0.936,1.871v0.017c0,0.879-0.616,1.463-1.383,1.463C69.056,1024.112,68.728,1024.016,68.449,1023.88z
		 M48.049,1030.441v-3.966h0.967v4.062c0,0.504,0.176,0.703,0.424,0.703c0.248,0,0.424-0.199,0.424-0.703v-4.062h0.967v3.966
		c0,1.175-0.592,1.703-1.391,1.703C48.641,1032.144,48.049,1031.616,48.049,1030.441z M51.393,1026.475h0.976v4.669H53.4v0.928
		h-2.007V1026.475z M54.033,1027.402h-0.688v-0.927h2.351v0.927h-0.688v4.67h-0.976V1027.402z M56.105,1026.475h1.007
		c1,0,1.727,0.527,1.727,1.783v0.071c0,0.728-0.288,1.191-0.656,1.472l0.751,2.271h-1.039l-0.632-1.951h-0.184v1.951h-0.976
		V1026.475z M57.128,1029.242c0.424,0,0.735-0.248,0.735-0.904v-0.063c0-0.704-0.336-0.888-0.759-0.888h-0.024v1.855H57.128z
		 M60.072,1026.458h1.04l1.063,5.613H61.2l-0.184-1.111h-0.888l-0.176,1.111h-0.944L60.072,1026.458z M60.872,1030.081l-0.296-1.847
		l-0.304,1.847H60.872z M63.745,1026.475h0.976v4.669h1.031v0.928h-2.007V1026.475z M65.849,1029.417v-0.288
		c0-1.847,0.6-2.734,1.487-2.734s1.487,0.888,1.487,2.734v0.288c0,1.847-0.6,2.734-1.487,2.734S65.849,1031.264,65.849,1029.417z
		 M67.832,1029.417v-0.288c0-1.439-0.2-1.839-0.496-1.839s-0.496,0.399-0.496,1.839v0.288c0,1.439,0.2,1.839,0.496,1.839
		S67.832,1030.857,67.832,1029.417z M69.289,1030.441v-3.966h0.968v4.062c0,0.504,0.176,0.703,0.424,0.703
		c0.248,0,0.423-0.199,0.423-0.703v-4.062h0.968v3.966c0,1.175-0.592,1.703-1.391,1.703
		C69.88,1032.144,69.289,1031.616,69.289,1030.441z M72.632,1026.475h0.912l0.984,2.83v-2.83h0.951v5.597h-0.863l-1.032-2.967v2.967
		h-0.952V1026.475z M75.96,1029.37v-0.192c0-1.807,0.768-2.742,1.871-2.742c0.296,0,0.544,0.063,0.743,0.16v1.015
		c-0.239-0.144-0.455-0.239-0.711-0.239c-0.56,0-0.912,0.56-0.912,1.767v0.272c0,1.463,0.432,1.799,0.832,1.799
		c0.032,0,0.04,0,0.088-0.008v-1.432h-0.479v-0.871h1.367v2.974c-0.353,0.152-0.64,0.24-1.016,0.24
		C76.768,1032.112,75.96,1031.32,75.96,1029.37z M79.296,1026.475h2.143v0.927h-1.167v1.392h1.031v0.928h-1.031v1.423h1.191v0.928
		h-2.167V1026.475z M51.513,1034.475h0.911l0.983,2.83v-2.83h0.952v5.597h-0.863l-1.032-2.967v2.967h-0.951V1034.475z
		 M54.953,1034.475h0.975v5.597h-0.975V1034.475z M56.425,1037.37v-0.192c0-1.807,0.768-2.742,1.871-2.742
		c0.296,0,0.544,0.063,0.744,0.16v1.015c-0.24-0.144-0.456-0.239-0.711-0.239c-0.56,0-0.912,0.56-0.912,1.767v0.272
		c0,1.463,0.432,1.799,0.832,1.799c0.032,0,0.04,0,0.088-0.008v-1.432h-0.48v-0.871h1.368v2.974c-0.352,0.152-0.64,0.24-1.016,0.24
		C57.232,1040.112,56.425,1039.32,56.425,1037.37z M59.761,1034.475h0.976v2.318h0.848v-2.318h0.976v5.597h-0.976v-2.351h-0.848
		v2.351h-0.976V1034.475z M63.657,1035.402h-0.688v-0.927h2.351v0.927h-0.688v4.67h-0.975V1035.402z M66.905,1037.37v-0.192
		c0-1.967,0.728-2.742,1.639-2.742c0.272,0,0.432,0.032,0.64,0.128v1.007c-0.2-0.119-0.36-0.184-0.544-0.184
		c-0.432,0-0.743,0.384-0.743,1.783v0.208c0,1.479,0.312,1.783,0.759,1.783c0.152,0,0.344-0.057,0.544-0.177v0.96
		c-0.224,0.128-0.44,0.168-0.72,0.168C67.584,1040.112,66.905,1039.32,66.905,1037.37z M69.689,1034.475h0.975v4.669h1.032v0.928
		h-2.007V1034.475z M71.993,1038.441v-3.966h0.967v4.062c0,0.504,0.176,0.703,0.424,0.703c0.248,0,0.424-0.199,0.424-0.703v-4.062
		h0.967v3.966c0,1.175-0.591,1.703-1.391,1.703C72.584,1040.144,71.993,1039.616,71.993,1038.441z M75.336,1034.475h0.848
		c0.943,0,1.823,0.384,1.823,1.423v0.04c0,0.72-0.408,1.071-0.808,1.264c0.472,0.208,0.879,0.535,0.879,1.247v0.072
		c0,0.991-0.768,1.551-1.854,1.551h-0.888V1034.475z M76.328,1036.826c0.433,0,0.72-0.248,0.72-0.735v-0.017
		c0-0.487-0.287-0.695-0.72-0.695h-0.016v1.447H76.328z M76.336,1039.168c0.447,0,0.768-0.264,0.768-0.728v-0.04
		c0-0.464-0.32-0.728-0.768-0.728h-0.024v1.495H76.336z"/>
	<path class="st2" d="M74.436,700.944h1.039l1.063,5.613h-0.976l-0.184-1.111h-0.888l-0.176,1.111h-0.943L74.436,700.944z
		 M75.236,704.566l-0.296-1.847l-0.304,1.847H75.236z M77.116,701.888h-0.688v-0.928h2.352v0.928h-0.688v4.669h-0.976V701.888z
		 M79.188,700.96h1.008c1,0,1.728,0.527,1.728,1.783v0.071c0,0.728-0.288,1.191-0.656,1.472l0.752,2.271h-1.04l-0.631-1.951h-0.185
		v1.951h-0.976V700.96z M80.211,703.727c0.424,0,0.736-0.248,0.736-0.904v-0.063c0-0.704-0.336-0.888-0.76-0.888h-0.024v1.855
		H80.211z M82.388,700.96h0.976v5.597h-0.976V700.96z M83.94,704.926v-3.966h0.968v4.062c0,0.504,0.176,0.704,0.424,0.704
		s0.424-0.2,0.424-0.704v-4.062h0.968v3.966c0,1.175-0.592,1.703-1.392,1.703S83.94,706.101,83.94,704.926z M87.285,700.96h0.967
		l0.688,2.047l0.688-2.047h0.967v5.597h-0.936v-3.382l-0.711,2.118h-0.017l-0.712-2.118v3.382h-0.935V700.96z M69.073,711.855
		v-0.192c0-1.967,0.728-2.742,1.639-2.742c0.272,0,0.432,0.032,0.64,0.128v1.007c-0.2-0.119-0.359-0.184-0.543-0.184
		c-0.432,0-0.744,0.384-0.744,1.783v0.208c0,1.479,0.312,1.783,0.76,1.783c0.152,0,0.344-0.057,0.543-0.176v0.959
		c-0.224,0.128-0.439,0.168-0.719,0.168C69.752,714.597,69.073,713.805,69.073,711.855z M72.64,708.944h1.04l1.063,5.613h-0.975
		l-0.184-1.111h-0.888l-0.176,1.111h-0.943L72.64,708.944z M73.439,712.566l-0.295-1.847l-0.304,1.847H73.439z M75.041,708.96h2.039
		v0.928h-1.063v1.406h0.928v0.928h-0.928v2.335h-0.976V708.96z M77.52,708.96h2.144v0.928h-1.168v1.391h1.032v0.928h-1.032v1.423
		h1.191v0.928H77.52V708.96z M78.879,707.665l0.808,0.4l-0.791,0.615h-0.704L78.879,707.665z M81.249,713.125v-0.048
		c0-0.68,0.319-1.183,0.855-1.646c-0.312-0.504-0.472-0.88-0.472-1.271v-0.056c0-0.672,0.464-1.224,1.159-1.224
		c0.68,0,1.127,0.496,1.127,1.215v0.057c0,0.64-0.304,1.087-0.791,1.503l0.504,0.959c0.04-0.176,0.071-0.415,0.12-0.751l0.751,0.136
		c-0.072,0.632-0.199,1.079-0.359,1.439l0.464,0.791l-0.704,0.432l-0.271-0.495c-0.264,0.296-0.552,0.472-1.04,0.472
		C81.872,714.637,81.249,714.038,81.249,713.125z M83.215,713.526l-0.703-1.392c-0.208,0.256-0.328,0.592-0.328,0.872v0.063
		c0,0.432,0.208,0.72,0.527,0.72C82.919,713.79,83.08,713.694,83.215,713.526z M82.744,711c0.248-0.24,0.344-0.528,0.344-0.824
		v-0.063c0-0.272-0.128-0.448-0.312-0.448c-0.192,0-0.312,0.176-0.312,0.416v0.08C82.463,710.383,82.551,710.631,82.744,711z
		 M86.176,708.96h0.848c0.943,0,1.823,0.384,1.823,1.423v0.04c0,0.72-0.408,1.071-0.808,1.264c0.472,0.208,0.879,0.535,0.879,1.247
		v0.072c0,0.991-0.768,1.551-1.854,1.551h-0.888V708.96z M87.167,711.311c0.432,0,0.72-0.248,0.72-0.735v-0.017
		c0-0.487-0.288-0.695-0.72-0.695h-0.016v1.447H87.167z M87.175,713.654c0.448,0,0.768-0.264,0.768-0.728v-0.04
		c0-0.464-0.319-0.728-0.768-0.728h-0.023v1.495H87.175z M90.072,708.944h1.039l1.063,5.613H91.2l-0.185-1.111h-0.888l-0.176,1.111
		h-0.943L90.072,708.944z M90.872,712.566l-0.296-1.847l-0.304,1.847H90.872z M92.472,708.96h1.008c0.999,0,1.727,0.527,1.727,1.783
		v0.071c0,0.728-0.288,1.191-0.655,1.472l0.751,2.271h-1.039l-0.632-1.951h-0.184v1.951h-0.976V708.96z M93.496,711.727
		c0.424,0,0.735-0.248,0.735-0.904v-0.063c0-0.704-0.336-0.888-0.76-0.888h-0.023v1.855H93.496z"/>
	<path class="st2" d="M58.004,818.281v-0.192c0-1.807,0.768-2.742,1.871-2.742c0.296,0,0.544,0.063,0.744,0.16v1.015
		c-0.24-0.144-0.456-0.239-0.711-0.239c-0.56,0-0.912,0.56-0.912,1.767v0.272c0,1.463,0.432,1.799,0.832,1.799
		c0.032,0,0.04,0,0.088-0.008v-1.432h-0.479v-0.871h1.367v2.974c-0.352,0.152-0.64,0.24-1.016,0.24
		C58.811,821.023,58.004,820.231,58.004,818.281z M61.324,819.352v-3.966h0.967v4.062c0,0.504,0.176,0.704,0.424,0.704
		c0.248,0,0.424-0.2,0.424-0.704v-4.062h0.967v3.966c0,1.175-0.591,1.703-1.391,1.703C61.916,821.055,61.324,820.527,61.324,819.352
		z M64.667,815.386h2.143v0.928h-1.167v1.391h1.031v0.928h-1.031v1.423h1.191v0.928h-2.167V815.386z M67.187,820.791v-1.015
		c0.344,0.199,0.616,0.312,0.879,0.312c0.28,0,0.52-0.136,0.52-0.479v-0.017c0-0.256-0.08-0.447-0.544-0.975
		c-0.664-0.752-0.936-1.112-0.936-1.791v-0.017c0-0.896,0.584-1.463,1.359-1.463c0.392,0,0.624,0.056,0.864,0.176v1.016
		c-0.304-0.176-0.488-0.256-0.744-0.256c-0.272,0-0.504,0.176-0.504,0.479v0.016c0,0.265,0.08,0.36,0.543,0.896
		c0.768,0.888,0.936,1.231,0.936,1.871v0.017c0,0.879-0.615,1.463-1.383,1.463C67.795,821.023,67.467,820.927,67.187,820.791z
		 M70.307,816.314H69.62v-0.928h2.351v0.928h-0.688v4.669h-0.976V816.314z M54.64,828.791v-1.015
		c0.344,0.199,0.616,0.312,0.879,0.312c0.28,0,0.52-0.136,0.52-0.479v-0.017c0-0.256-0.08-0.447-0.544-0.975
		c-0.664-0.752-0.935-1.112-0.935-1.791v-0.017c0-0.896,0.583-1.463,1.359-1.463c0.392,0,0.624,0.056,0.864,0.176v1.016
		c-0.304-0.176-0.488-0.256-0.744-0.256c-0.272,0-0.504,0.176-0.504,0.479v0.016c0,0.265,0.08,0.36,0.544,0.896
		c0.768,0.888,0.936,1.231,0.936,1.871v0.017c0,0.879-0.616,1.463-1.383,1.463C55.248,829.023,54.919,828.927,54.64,828.791z
		 M57.36,823.386h2.143v0.928h-1.167v1.391h1.032v0.928h-1.032v1.423h1.191v0.928H57.36V823.386z M59.999,823.386h1.007
		c1,0,1.727,0.527,1.727,1.783v0.071c0,0.728-0.288,1.191-0.655,1.472l0.751,2.271h-1.04l-0.632-1.951h-0.184v1.951h-0.976V823.386z
		 M61.023,826.153c0.424,0,0.736-0.248,0.736-0.904v-0.063c0-0.704-0.336-0.888-0.76-0.888h-0.024v1.855H61.023z M62.904,823.386
		h0.991l0.528,3.646l0.528-3.646h0.959l-1,5.612h-1.007L62.904,823.386z M66.224,823.386h0.975v5.597h-0.975V823.386z
		 M67.695,826.281v-0.192c0-1.967,0.728-2.742,1.639-2.742c0.272,0,0.432,0.032,0.64,0.128v1.007c-0.2-0.119-0.36-0.184-0.543-0.184
		c-0.432,0-0.744,0.384-0.744,1.783v0.208c0,1.479,0.312,1.783,0.76,1.783c0.152,0,0.344-0.057,0.543-0.176v0.959
		c-0.224,0.128-0.44,0.168-0.72,0.168C68.375,829.023,67.695,828.231,67.695,826.281z M70.479,823.386h2.143v0.928h-1.167v1.391
		h1.031v0.928h-1.031v1.423h1.191v0.928h-2.167V823.386z M72.999,828.791v-1.015c0.344,0.199,0.616,0.312,0.879,0.312
		c0.28,0,0.52-0.136,0.52-0.479v-0.017c0-0.256-0.08-0.447-0.543-0.975c-0.664-0.752-0.936-1.112-0.936-1.791v-0.017
		c0-0.896,0.583-1.463,1.359-1.463c0.392,0,0.624,0.056,0.863,0.176v1.016c-0.304-0.176-0.487-0.256-0.744-0.256
		c-0.271,0-0.503,0.176-0.503,0.479v0.016c0,0.265,0.08,0.36,0.543,0.896c0.768,0.888,0.936,1.231,0.936,1.871v0.017
		c0,0.879-0.616,1.463-1.384,1.463C73.607,829.023,73.279,828.927,72.999,828.791z"/>
	<path class="st2" d="M32.744,906.027v-1.04l5.613-1.063v0.976l-1.111,0.185v0.887l1.111,0.177v0.943L32.744,906.027z
		 M36.366,905.227l-1.847,0.296l1.847,0.304V905.227z M32.76,903.626v-1.008c0-0.999,0.527-1.727,1.783-1.727h0.072
		c0.728,0,1.191,0.287,1.472,0.655l2.271-0.752v1.04l-1.951,0.632v0.184h1.951v0.976H32.76z M35.526,902.603
		c0-0.424-0.248-0.735-0.903-0.735h-0.064c-0.704,0-0.888,0.335-0.888,0.759v0.024h1.855V902.603z M33.687,900.002v0.688H32.76
		v-2.351h0.927v0.688h4.669v0.976H33.687z M35.654,896.754h-0.192c-1.807,0-2.742-0.768-2.742-1.871c0-0.296,0.064-0.544,0.16-0.743
		h1.016c-0.144,0.239-0.24,0.455-0.24,0.711c0,0.56,0.56,0.912,1.767,0.912h0.272c1.463,0,1.799-0.432,1.799-0.832
		c0-0.032,0-0.04-0.008-0.088h-1.431v0.479h-0.872v-1.367h2.975c0.152,0.353,0.24,0.64,0.24,1.016
		C38.397,895.947,37.605,896.754,35.654,896.754z M32.744,892.635v-1.04l5.613-1.063v0.976l-1.111,0.184v0.888l1.111,0.176v0.943
		L32.744,892.635z M36.366,891.835l-1.847,0.296l1.847,0.304V891.835z M32.76,890.235v-0.976h4.669v-1.032h0.928v2.008H32.76z
		 M32.76,887.834v-0.976h4.669v-1.031h0.928v2.007H32.76z M32.76,885.435v-2.144h0.927v1.168h1.391v-1.032h0.928v1.032h1.423v-1.191
		h0.928v2.167H32.76z M32.76,882.794v-1.007c0-1,0.527-1.728,1.783-1.728h0.072c0.728,0,1.191,0.288,1.472,0.656l2.271-0.752v1.039
		l-1.951,0.632v0.184h1.951v0.976H32.76z M35.526,881.771c0-0.424-0.248-0.735-0.903-0.735h-0.064c-0.704,0-0.888,0.336-0.888,0.76
		v0.023h1.855V881.771z M36.15,879.019l-3.39,1.039v-1.007l2.095-0.528l-2.095-0.535v-0.983l3.39,1.039h2.207v0.976H36.15z"/>
	<path class="st2" d="M33.846,1085.114v-0.848c0-0.943,0.384-1.823,1.423-1.823h0.04c0.72,0,1.071,0.408,1.263,0.808
		c0.208-0.472,0.536-0.879,1.248-0.879h0.072c0.992,0,1.551,0.768,1.551,1.854v0.888H33.846z M36.197,1084.123
		c0-0.432-0.248-0.72-0.736-0.72h-0.016c-0.487,0-0.695,0.288-0.695,0.72v0.016h1.447V1084.123z M38.54,1084.115
		c0-0.448-0.264-0.768-0.728-0.768h-0.04c-0.464,0-0.728,0.319-0.728,0.768v0.023h1.495V1084.115z M36.789,1082.058H36.5
		c-1.847,0-2.734-0.6-2.734-1.487s0.887-1.487,2.734-1.487h0.288c1.847,0,2.734,0.6,2.734,1.487S38.635,1082.058,36.789,1082.058z
		 M36.789,1080.075H36.5c-1.439,0-1.839,0.2-1.839,0.496s0.399,0.495,1.839,0.495h0.288c1.439,0,1.839-0.199,1.839-0.495
		S38.228,1080.075,36.789,1080.075z M33.846,1078.946v-1l3.43-0.407l-3.43-0.488v-0.903l3.43-0.479l-3.43-0.416v-0.976l5.613,0.848
		v1.023l-3.318,0.464l3.318,0.464v1.023L33.846,1078.946z M33.846,1073.946v-0.976h4.669v-1.031h0.928v2.007H33.846z
		 M33.846,1071.53v-0.976h5.597v0.976H33.846z M33.846,1069.961v-0.911l2.83-0.983h-2.83v-0.951h5.597v0.863l-2.966,1.031h2.966
		v0.951H33.846z M36.74,1066.634h-0.192c-1.807,0-2.742-0.768-2.742-1.871c0-0.296,0.064-0.544,0.16-0.744h1.016
		c-0.144,0.24-0.24,0.456-0.24,0.712c0,0.56,0.56,0.911,1.767,0.911h0.272c1.463,0,1.799-0.432,1.799-0.831
		c0-0.032,0-0.04-0.008-0.088H37.14v0.479h-0.872v-1.367h2.975c0.152,0.352,0.24,0.64,0.24,1.016
		C39.483,1065.827,38.691,1066.634,36.74,1066.634z"/>
	<path class="st2" d="M90.545,1085.114v-0.848c0-0.943,0.384-1.823,1.423-1.823h0.04c0.72,0,1.071,0.408,1.264,0.808
		c0.208-0.472,0.535-0.879,1.247-0.879h0.072c0.991,0,1.551,0.768,1.551,1.854v0.888H90.545z M92.896,1084.123
		c0-0.432-0.248-0.72-0.735-0.72h-0.017c-0.487,0-0.695,0.288-0.695,0.72v0.016h1.447V1084.123z M95.239,1084.115
		c0-0.448-0.264-0.768-0.728-0.768h-0.04c-0.464,0-0.728,0.319-0.728,0.768v0.023h1.495V1084.115z M93.488,1082.058H93.2
		c-1.847,0-2.734-0.6-2.734-1.487s0.888-1.487,2.734-1.487h0.288c1.847,0,2.734,0.6,2.734,1.487S95.334,1082.058,93.488,1082.058z
		 M93.488,1080.075H93.2c-1.439,0-1.839,0.2-1.839,0.496s0.399,0.495,1.839,0.495h0.288c1.438,0,1.839-0.199,1.839-0.495
		S94.926,1080.075,93.488,1080.075z M90.545,1078.946v-1l3.43-0.407l-3.43-0.488v-0.903l3.43-0.479l-3.43-0.416v-0.976l5.612,0.848
		v1.023l-3.317,0.464l3.317,0.464v1.023L90.545,1078.946z M90.545,1073.946v-0.976h4.669v-1.031h0.928v2.007H90.545z
		 M90.545,1071.53v-0.976h5.597v0.976H90.545z M90.545,1069.961v-0.911l2.83-0.983h-2.83v-0.951h5.597v0.863l-2.967,1.031h2.967
		v0.951H90.545z M93.44,1066.634h-0.192c-1.807,0-2.742-0.768-2.742-1.871c0-0.296,0.063-0.544,0.16-0.744h1.015
		c-0.144,0.24-0.239,0.456-0.239,0.712c0,0.56,0.56,0.911,1.767,0.911h0.272c1.463,0,1.799-0.432,1.799-0.831
		c0-0.032,0-0.04-0.008-0.088h-1.432v0.479h-0.871v-1.367h2.974c0.152,0.352,0.24,0.64,0.24,1.016
		C96.182,1065.827,95.39,1066.634,93.44,1066.634z"/>
	<path class="st2" d="M14.092,919.001v-0.976h5.597v0.976H14.092z M14.092,917.433v-0.911l2.83-0.983h-2.83v-0.951h5.597v0.863
		l-2.966,1.031h2.966v0.951H14.092z M15.02,913.49v0.688h-0.927v-2.351h0.927v0.688h4.669v0.976H15.02z M14.092,911.417v-2.143
		h0.927v1.167h1.391v-1.031h0.928v1.031h1.423v-1.191h0.928v2.167H14.092z M14.092,908.778v-1.008c0-0.999,0.527-1.727,1.783-1.727
		h0.072c0.728,0,1.191,0.287,1.472,0.655l2.271-0.752v1.04l-1.951,0.632v0.184h1.951v0.976H14.092z M16.858,907.754
		c0-0.424-0.248-0.735-0.903-0.735h-0.064c-0.704,0-0.888,0.335-0.888,0.759v0.024h1.855V907.754z M14.092,905.593v-0.911
		l2.83-0.983h-2.83v-0.951h5.597v0.863l-2.966,1.031h2.966v0.951H14.092z M14.092,902.169v-2.143h0.927v1.167h1.391v-1.031h0.928
		v1.031h1.423v-1.191h0.928v2.167H14.092z M15.02,899.01v0.688h-0.927v-2.351h0.927v0.688h4.669v0.976H15.02z M16.986,895.762
		h-0.192c-1.967,0-2.742-0.728-2.742-1.64c0-0.271,0.032-0.432,0.128-0.64h1.007c-0.12,0.2-0.184,0.36-0.184,0.544
		c0,0.432,0.384,0.743,1.783,0.743h0.208c1.479,0,1.783-0.312,1.783-0.759c0-0.152-0.056-0.344-0.176-0.544h0.959
		c0.128,0.224,0.168,0.439,0.168,0.72C19.729,895.083,18.937,895.762,16.986,895.762z M14.076,892.195v-1.04l5.613-1.063v0.976
		l-1.111,0.184v0.888l1.111,0.176v0.943L14.076,892.195z M17.698,891.395l-1.847,0.296l1.847,0.304V891.395z M14.092,889.794v-2.039
		h0.927v1.063h1.407v-0.928h0.927v0.928h2.335v0.976H14.092z M12.797,885.955l0.4-0.808l0.615,0.792v0.703L12.797,885.955z
		 M14.092,887.314v-2.143h0.927v1.167h1.391v-1.031h0.928v1.031h1.423v-1.191h0.928v2.167H14.092z"/>
	<path class="st2" d="M90.785,909.919v-0.871c0-1.063,0.575-1.808,1.887-1.808h0.016c1.264,0,1.863,0.704,1.936,1.695v0.008h1.759
		v0.976H90.785z M93.719,908.936c-0.024-0.408-0.32-0.72-1-0.72h-0.016c-0.712,0-1.016,0.271-1.016,0.695v0.032h2.031V908.936z
		 M90.785,906.839v-0.976h2.318v-0.848h-2.318v-0.975h5.597v0.975h-2.351v0.848h2.351v0.976H90.785z M93.727,903.559h-0.288
		c-1.847,0-2.734-0.6-2.734-1.486c0-0.888,0.888-1.487,2.734-1.487h0.288c1.847,0,2.734,0.6,2.734,1.487
		C96.461,902.959,95.574,903.559,93.727,903.559z M93.727,901.577h-0.288c-1.439,0-1.839,0.2-1.839,0.496
		c0,0.295,0.399,0.495,1.839,0.495h0.288c1.439,0,1.839-0.2,1.839-0.495C95.566,901.777,95.166,901.577,93.727,901.577z
		 M91.711,899.744v0.688h-0.927v-2.351h0.927v0.688h4.67v0.976H91.711z M93.727,897.927h-0.288c-1.847,0-2.734-0.6-2.734-1.487
		s0.888-1.487,2.734-1.487h0.288c1.847,0,2.734,0.6,2.734,1.487S95.574,897.927,93.727,897.927z M93.727,895.945h-0.288
		c-1.439,0-1.839,0.199-1.839,0.495s0.399,0.496,1.839,0.496h0.288c1.439,0,1.839-0.2,1.839-0.496S95.166,895.945,93.727,895.945z
		 M93.679,893.295h-0.192c-1.807,0-2.742-0.768-2.742-1.871c0-0.296,0.063-0.544,0.16-0.743h1.015
		c-0.144,0.239-0.239,0.455-0.239,0.711c0,0.561,0.56,0.912,1.767,0.912h0.272c1.463,0,1.799-0.432,1.799-0.832
		c0-0.031,0-0.04-0.008-0.088h-1.432v0.479h-0.871v-1.367h2.974c0.152,0.353,0.24,0.64,0.24,1.016
		C96.421,892.488,95.629,893.295,93.679,893.295z M90.768,889.176v-1.04l5.613-1.063v0.976l-1.111,0.185v0.887l1.111,0.176v0.944
		L90.768,889.176z M94.39,888.376l-1.847,0.296l1.847,0.304V888.376z M90.785,886.776V885.8h4.669v-1.031h0.928v2.007H90.785z
		 M90.785,884.375V883.4h4.669v-1.031h0.928v2.007H90.785z M90.785,881.976v-2.144h0.927V881h1.392v-1.031h0.928V881h1.423v-1.191
		h0.928v2.167H90.785z M90.785,879.335v-1.007c0-1,0.527-1.728,1.783-1.728h0.071c0.728,0,1.191,0.288,1.472,0.656l2.271-0.752
		v1.039l-1.951,0.632v0.185h1.951v0.975H90.785z M93.551,878.312c0-0.424-0.248-0.735-0.904-0.735h-0.063
		c-0.704,0-0.888,0.336-0.888,0.76v0.024h1.855V878.312z M94.174,875.56l-3.39,1.04v-1.008l2.095-0.527l-2.095-0.536v-0.983
		l3.39,1.039h2.207v0.976H94.174z"/>
	<path class="st2" d="M102.928,772.097v-0.192c0-1.807,0.768-2.742,1.871-2.742c0.296,0,0.543,0.063,0.743,0.16v1.015
		c-0.24-0.144-0.456-0.239-0.712-0.239c-0.56,0-0.911,0.56-0.911,1.767v0.272c0,1.463,0.432,1.799,0.832,1.799
		c0.031,0,0.039,0,0.088-0.008v-1.432h-0.48v-0.871h1.367v2.974c-0.352,0.152-0.64,0.24-1.015,0.24
		C103.736,774.839,102.928,774.047,102.928,772.097z M106.28,769.203h0.976v5.597h-0.976V769.203z M107.848,769.203h2.039v0.928
		h-1.063v1.406h0.927v0.928h-0.927v2.335h-0.976V769.203z M110.847,770.13h-0.688v-0.928h2.351v0.928h-0.688v4.669h-0.976V770.13z
		 M101.644,782.607v-1.015c0.344,0.199,0.615,0.312,0.88,0.312c0.279,0,0.52-0.136,0.52-0.479v-0.017
		c0-0.256-0.08-0.447-0.544-0.975c-0.664-0.752-0.936-1.112-0.936-1.791v-0.017c0-0.896,0.584-1.463,1.359-1.463
		c0.392,0,0.624,0.056,0.863,0.176v1.016c-0.304-0.176-0.487-0.256-0.743-0.256c-0.272,0-0.504,0.176-0.504,0.479v0.016
		c0,0.265,0.08,0.36,0.544,0.896c0.768,0.888,0.936,1.231,0.936,1.871v0.017c0,0.879-0.616,1.463-1.384,1.463
		C102.251,782.839,101.924,782.744,101.644,782.607z M104.364,777.203h0.976v2.318h0.848v-2.318h0.976v5.597h-0.976v-2.351h-0.848
		v2.351h-0.976V777.203z M107.644,780.145v-0.288c0-1.847,0.6-2.734,1.487-2.734s1.487,0.888,1.487,2.734v0.288
		c0,1.847-0.6,2.734-1.487,2.734S107.644,781.992,107.644,780.145z M109.626,780.145v-0.288c0-1.439-0.199-1.839-0.495-1.839
		s-0.496,0.399-0.496,1.839v0.288c0,1.438,0.2,1.839,0.496,1.839S109.626,781.583,109.626,780.145z M111.1,777.203h0.871
		c1.063,0,1.808,0.575,1.808,1.887v0.016c0,1.264-0.704,1.863-1.695,1.936h-0.008v1.759H111.1V777.203z M112.083,780.137
		c0.407-0.024,0.72-0.32,0.72-1v-0.016c0-0.712-0.272-1.016-0.696-1.016h-0.031v2.031H112.083z"/>
	<path class="st2" d="M33.241,510.331h0.975V515h1.032v0.927h-2.007V510.331z M35.345,513.273v-0.288c0-1.847,0.6-2.734,1.487-2.734
		c0.888,0,1.487,0.887,1.487,2.734v0.288c0,1.847-0.6,2.735-1.487,2.735C35.944,516.008,35.345,515.12,35.345,513.273z
		 M37.328,513.273v-0.288c0-1.439-0.2-1.839-0.496-1.839s-0.496,0.4-0.496,1.839v0.288c0,1.439,0.2,1.839,0.496,1.839
		S37.328,514.712,37.328,513.273z M39.16,511.258h-0.688v-0.928h2.351v0.928h-0.688v4.669H39.16V511.258z M41.216,514.296v-3.966
		h0.968v4.062c0,0.504,0.176,0.704,0.424,0.704c0.248,0,0.424-0.2,0.424-0.704v-4.062h0.967v3.966c0,1.176-0.592,1.703-1.391,1.703
		C41.808,516,41.216,515.472,41.216,514.296z M44.44,515.736v-1.016c0.344,0.2,0.616,0.312,0.879,0.312c0.28,0,0.52-0.136,0.52-0.48
		v-0.016c0-0.256-0.08-0.448-0.544-0.976c-0.664-0.751-0.936-1.111-0.936-1.791v-0.016c0-0.896,0.584-1.463,1.359-1.463
		c0.392,0,0.624,0.056,0.864,0.176v1.015c-0.304-0.176-0.488-0.256-0.744-0.256c-0.272,0-0.504,0.176-0.504,0.48v0.016
		c0,0.264,0.08,0.36,0.543,0.896c0.768,0.887,0.936,1.231,0.936,1.871v0.016c0,0.88-0.615,1.463-1.383,1.463
		C45.048,515.968,44.72,515.872,44.44,515.736z M29.957,521.225v-0.192c0-1.807,0.768-2.742,1.871-2.742
		c0.296,0,0.544,0.064,0.744,0.16v1.016c-0.24-0.144-0.456-0.24-0.711-0.24c-0.56,0-0.912,0.56-0.912,1.767v0.272
		c0,1.463,0.432,1.799,0.832,1.799c0.032,0,0.04,0,0.088-0.008v-1.431h-0.48v-0.872h1.368v2.975c-0.352,0.152-0.64,0.24-1.016,0.24
		C30.764,523.968,29.957,523.176,29.957,521.225z M34.076,518.315h1.04l1.063,5.613h-0.976l-0.184-1.111h-0.887l-0.176,1.111h-0.943
		L34.076,518.315z M34.875,521.937l-0.295-1.847l-0.304,1.847H34.875z M36.477,518.331h1.007c1,0,1.727,0.528,1.727,1.783v0.072
		c0,0.728-0.288,1.191-0.656,1.471l0.752,2.271h-1.04l-0.632-1.951h-0.184v1.951h-0.976V518.331z M37.5,521.097
		c0.424,0,0.736-0.248,0.736-0.903v-0.064c0-0.704-0.336-0.888-0.76-0.888h-0.024v1.855H37.5z M39.661,518.331h0.911
		c1.248,0,1.959,0.904,1.959,2.703v0.192c0,1.799-0.711,2.703-1.959,2.703h-0.911V518.331z M40.676,523.032
		c0.464,0,0.864-0.408,0.864-1.807v-0.192c0-1.399-0.4-1.807-0.864-1.807h-0.04v3.806H40.676z M43.012,518.331h2.143v0.928h-1.167
		v1.391h1.032v0.928h-1.032V523h1.191v0.927h-2.167V518.331z M45.652,518.331h0.912l0.983,2.831v-2.831h0.951v5.597h-0.863
		l-1.031-2.966v2.966h-0.952V518.331z M33.36,526.315h1.04l1.063,5.613h-0.976l-0.184-1.111h-0.888l-0.176,1.111h-0.943
		L33.36,526.315z M34.16,529.937l-0.296-1.847l-0.304,1.847H34.16z M35.641,531.736v-1.016c0.344,0.2,0.616,0.312,0.879,0.312
		c0.28,0,0.52-0.136,0.52-0.48v-0.016c0-0.256-0.08-0.448-0.543-0.976c-0.664-0.751-0.936-1.111-0.936-1.791v-0.016
		c0-0.896,0.583-1.463,1.359-1.463c0.392,0,0.624,0.056,0.863,0.176v1.015c-0.304-0.176-0.488-0.256-0.744-0.256
		c-0.271,0-0.503,0.176-0.503,0.48v0.016c0,0.264,0.08,0.36,0.543,0.896c0.768,0.887,0.936,1.231,0.936,1.871v0.016
		c0,0.88-0.616,1.463-1.383,1.463C36.248,531.968,35.92,531.872,35.641,531.736z M38.376,526.331h0.976v5.597h-0.976V526.331z
		 M40.728,526.315h1.04l1.063,5.613h-0.976l-0.184-1.111h-0.887l-0.176,1.111h-0.943L40.728,526.315z M41.528,529.937l-0.296-1.847
		l-0.304,1.847H41.528z M43.128,526.331h0.912l0.983,2.831v-2.831h0.952v5.597h-0.864l-1.031-2.966v2.966h-0.952V526.331z
		 M25.445,534.331h1.007c1,0,1.727,0.528,1.727,1.783v0.072c0,0.728-0.288,1.191-0.656,1.471l0.751,2.271h-1.039l-0.632-1.951H26.42
		v1.951h-0.976V534.331z M26.468,537.097c0.424,0,0.735-0.248,0.735-0.903v-0.064c0-0.704-0.336-0.888-0.759-0.888H26.42v1.855
		H26.468z M28.628,534.331h2.143v0.928h-1.167v1.391h1.032v0.928h-1.032V539h1.191v0.927h-2.167V534.331z M31.148,539.736v-1.016
		c0.344,0.2,0.616,0.312,0.88,0.312c0.28,0,0.52-0.136,0.52-0.48v-0.016c0-0.256-0.08-0.448-0.543-0.976
		c-0.664-0.751-0.936-1.111-0.936-1.791v-0.016c0-0.896,0.583-1.463,1.359-1.463c0.392,0,0.624,0.056,0.864,0.176v1.015
		c-0.304-0.176-0.488-0.256-0.744-0.256c-0.272,0-0.504,0.176-0.504,0.48v0.016c0,0.264,0.08,0.36,0.544,0.896
		c0.768,0.887,0.936,1.231,0.936,1.871v0.016c0,0.88-0.616,1.463-1.383,1.463C31.756,539.968,31.428,539.872,31.148,539.736z
		 M34.268,535.258h-0.688v-0.928h2.351v0.928h-0.688v4.669h-0.976V535.258z M36.884,534.315h1.039l1.063,5.613h-0.976l-0.184-1.111
		H36.94l-0.176,1.111h-0.943L36.884,534.315z M37.684,537.937l-0.296-1.847l-0.304,1.847H37.684z M39.228,538.296v-3.966h0.967
		v4.062c0,0.504,0.176,0.704,0.424,0.704c0.248,0,0.424-0.2,0.424-0.704v-4.062h0.968v3.966c0,1.176-0.592,1.703-1.392,1.703
		C39.82,540,39.228,539.472,39.228,538.296z M42.572,534.331h1.007c1,0,1.728,0.528,1.728,1.783v0.072
		c0,0.728-0.288,1.191-0.656,1.471l0.751,2.271h-1.04l-0.631-1.951h-0.184v1.951h-0.976V534.331z M43.596,537.097
		c0.424,0,0.736-0.248,0.736-0.903v-0.064c0-0.704-0.336-0.888-0.76-0.888h-0.024v1.855H43.596z M46.54,534.315h1.04l1.063,5.613
		h-0.975l-0.184-1.111h-0.888l-0.176,1.111h-0.943L46.54,534.315z M47.339,537.937l-0.296-1.847l-0.304,1.847H47.339z
		 M48.94,534.331h0.912l0.983,2.831v-2.831h0.951v5.597h-0.863l-1.032-2.966v2.966H48.94V534.331z M52.884,535.258h-0.688v-0.928
		h2.351v0.928h-0.688v4.669h-0.976V535.258z"/>
	<path class="st2" d="M39.104,967.751l1.007,0.001c1,0.001,1.727,0.529,1.726,1.784v0.072c0,0.728-0.289,1.191-0.657,1.471
		l0.75,2.271l-1.039-0.001l-0.63-1.951h-0.184l-0.001,1.95H39.1L39.104,967.751z M40.125,970.519c0.424,0,0.736-0.247,0.736-0.902
		v-0.064c0.001-0.703-0.335-0.888-0.759-0.888h-0.024l-0.001,1.854H40.125z M42.289,967.754l1.007,0.001
		c1,0.001,1.727,0.529,1.726,1.784v0.072c0,0.728-0.289,1.19-0.657,1.471l0.75,2.271l-1.04-0.001l-0.63-1.952h-0.184l-0.001,1.951
		l-0.976-0.001L42.289,967.754z M43.31,970.522c0.424,0,0.736-0.248,0.736-0.903v-0.063c0-0.704-0.335-0.888-0.759-0.889h-0.024
		l-0.001,1.855H43.31z"/>
	<path class="st2" d="M84.249,967.391l1.008,0.001c0.999,0.001,1.727,0.529,1.726,1.784v0.072c-0.001,0.728-0.289,1.191-0.657,1.471
		l0.75,2.271l-1.04-0.001l-0.63-1.951h-0.184l-0.002,1.95h-0.976L84.249,967.391z M85.27,970.159c0.424,0,0.735-0.247,0.736-0.902
		v-0.064c0-0.703-0.335-0.888-0.759-0.888h-0.024l-0.001,1.854H85.27z M87.432,967.394l1.008,0.001
		c0.999,0.001,1.727,0.529,1.726,1.784v0.072c-0.001,0.728-0.289,1.19-0.657,1.471l0.75,2.271l-1.039-0.001l-0.63-1.952h-0.185
		l-0.001,1.951l-0.976-0.001L87.432,967.394z M88.454,970.162c0.424,0,0.736-0.248,0.736-0.903v-0.063
		c0.001-0.704-0.335-0.888-0.759-0.889h-0.024l-0.001,1.855H88.454z"/>
	<path class="st2" d="M84.076,464.412h1.008c0.999,0,1.728,0.527,1.728,1.783v0.072c0,0.728-0.288,1.191-0.656,1.472l0.752,2.271
		h-1.04l-0.631-1.951h-0.185v1.951h-0.976V464.412z M85.099,467.178c0.424,0,0.736-0.248,0.736-0.903v-0.064
		c0-0.704-0.336-0.888-0.76-0.888h-0.024v1.855H85.099z M87.26,464.412h1.007c1,0,1.728,0.527,1.728,1.783v0.072
		c0,0.728-0.288,1.191-0.656,1.472l0.752,2.271h-1.039l-0.632-1.951h-0.184v1.951H87.26V464.412z M88.284,467.178
		c0.424,0,0.735-0.248,0.735-0.903v-0.064c0-0.704-0.336-0.888-0.76-0.888h-0.023v1.855H88.284z"/>
	<path class="st2" d="M84.076,472.064h1.008c0.999,0,1.728,0.527,1.728,1.783v0.072c0,0.728-0.288,1.191-0.656,1.472l0.752,2.271
		h-1.04l-0.631-1.951h-0.185v1.951h-0.976V472.064z M85.099,474.83c0.424,0,0.736-0.248,0.736-0.903v-0.064
		c0-0.704-0.336-0.888-0.76-0.888h-0.024v1.855H85.099z M87.26,472.064h1.007c1,0,1.728,0.527,1.728,1.783v0.072
		c0,0.728-0.288,1.191-0.656,1.472l0.752,2.271h-1.039l-0.632-1.951h-0.184v1.951H87.26V472.064z M88.284,474.83
		c0.424,0,0.735-0.248,0.735-0.903v-0.064c0-0.704-0.336-0.888-0.76-0.888h-0.023v1.855H88.284z"/>
	<path class="st2" d="M57.135,146.145v-1.016c0.344,0.2,0.616,0.312,0.88,0.312c0.28,0,0.52-0.136,0.52-0.479v-0.016
		c0-0.256-0.08-0.448-0.543-0.976c-0.664-0.751-0.936-1.111-0.936-1.791v-0.016c0-0.896,0.583-1.463,1.359-1.463
		c0.392,0,0.624,0.056,0.864,0.176v1.016c-0.304-0.176-0.488-0.256-0.744-0.256c-0.272,0-0.504,0.176-0.504,0.479v0.016
		c0,0.264,0.08,0.36,0.544,0.896c0.768,0.887,0.936,1.231,0.936,1.871v0.016c0,0.879-0.616,1.463-1.383,1.463
		C57.743,146.377,57.416,146.281,57.135,146.145z M60.255,141.668h-0.688v-0.927h2.351v0.927H61.23v4.669h-0.976V141.668z
		 M62.871,140.725h1.039l1.063,5.613h-0.976l-0.184-1.111h-0.888l-0.176,1.111h-0.943L62.871,140.725z M63.67,144.347l-0.296-1.847
		l-0.304,1.847H63.67z M65.095,143.635v-0.192c0-1.807,0.768-2.742,1.871-2.742c0.296,0,0.544,0.064,0.744,0.16v1.016
		c-0.24-0.144-0.456-0.24-0.711-0.24c-0.56,0-0.912,0.56-0.912,1.767v0.272c0,1.463,0.432,1.799,0.832,1.799
		c0.032,0,0.04,0,0.088-0.008v-1.431h-0.48v-0.872h1.368v2.975c-0.352,0.152-0.64,0.24-1.016,0.24
		C65.903,146.377,65.095,145.586,65.095,143.635z M68.431,140.741h2.143v0.927h-1.167v1.391h1.031v0.928h-1.031v1.423h1.191v0.928
		h-2.167V140.741z"/>
	<path class="st2" d="M41.948,251.813v-1.016c0.344,0.2,0.616,0.312,0.88,0.312c0.28,0,0.52-0.136,0.52-0.479v-0.016
		c0-0.256-0.08-0.448-0.544-0.976c-0.664-0.751-0.936-1.111-0.936-1.791v-0.016c0-0.896,0.584-1.463,1.359-1.463
		c0.392,0,0.624,0.056,0.864,0.176v1.016c-0.304-0.176-0.488-0.256-0.744-0.256c-0.272,0-0.504,0.176-0.504,0.479v0.016
		c0,0.264,0.08,0.36,0.544,0.896c0.768,0.887,0.936,1.231,0.936,1.871v0.016c0,0.879-0.616,1.463-1.383,1.463
		C42.556,252.045,42.228,251.949,41.948,251.813z M45.067,247.336H44.38v-0.927h2.351v0.927h-0.688v4.669h-0.976V247.336z
		 M47.683,246.393h1.04l1.063,5.613h-0.976l-0.184-1.111h-0.888l-0.176,1.111H46.62L47.683,246.393z M48.483,250.015l-0.296-1.847
		l-0.304,1.847H48.483z M50.083,246.409h1.008c0.999,0,1.727,0.527,1.727,1.783v0.072c0,0.728-0.288,1.191-0.656,1.472l0.751,2.271
		h-1.04l-0.631-1.951h-0.184v1.951h-0.976V246.409z M51.107,249.175c0.424,0,0.736-0.248,0.736-0.903v-0.064
		c0-0.704-0.336-0.888-0.76-0.888h-0.024v1.855H51.107z M53.268,246.409h0.912c1.247,0,1.959,0.903,1.959,2.702v0.192
		c0,1.799-0.712,2.703-1.959,2.703h-0.912V246.409z M54.283,251.11c0.463,0,0.863-0.408,0.863-1.807v-0.192
		c0-1.399-0.4-1.807-0.863-1.807h-0.04v3.806H54.283z M56.603,250.374v-3.966h0.967v4.062c0,0.504,0.176,0.704,0.424,0.704
		c0.248,0,0.424-0.2,0.424-0.704v-4.062h0.968v3.966c0,1.175-0.592,1.703-1.392,1.703C57.195,252.077,56.603,251.55,56.603,250.374z
		 M59.828,251.813v-1.016c0.344,0.2,0.616,0.312,0.879,0.312c0.28,0,0.52-0.136,0.52-0.479v-0.016c0-0.256-0.08-0.448-0.543-0.976
		c-0.664-0.751-0.936-1.111-0.936-1.791v-0.016c0-0.896,0.583-1.463,1.359-1.463c0.392,0,0.624,0.056,0.863,0.176v1.016
		c-0.304-0.176-0.488-0.256-0.744-0.256c-0.271,0-0.503,0.176-0.503,0.479v0.016c0,0.264,0.08,0.36,0.543,0.896
		c0.768,0.887,0.936,1.231,0.936,1.871v0.016c0,0.879-0.616,1.463-1.383,1.463C60.435,252.045,60.107,251.949,59.828,251.813z
		 M62.947,247.336h-0.688v-0.927h2.351v0.927h-0.688v4.669h-0.975V247.336z M66.811,247.336h-0.688v-0.927h2.351v0.927h-0.688v4.669
		h-0.976V247.336z M68.883,246.409h0.976v2.318h0.847v-2.318h0.976v5.597h-0.976v-2.351h-0.847v2.351h-0.976V246.409z
		 M72.259,246.409h2.143v0.927h-1.167v1.391h1.031v0.928h-1.031v1.423h1.191v0.928h-2.167V246.409z M75.683,246.393h1.039
		l1.063,5.613H76.81l-0.184-1.111h-0.888l-0.176,1.111H74.62L75.683,246.393z M76.482,250.015l-0.296-1.847l-0.304,1.847H76.482z
		 M78.363,247.336h-0.688v-0.927h2.351v0.927h-0.688v4.669h-0.976V247.336z M80.435,246.409h2.143v0.927h-1.167v1.391h1.031v0.928
		h-1.031v1.423h1.191v0.928h-2.167V246.409z M83.075,246.409h1.008c0.999,0,1.727,0.527,1.727,1.783v0.072
		c0,0.728-0.287,1.191-0.655,1.472l0.752,2.271h-1.04l-0.632-1.951H84.05v1.951h-0.976V246.409z M84.098,249.175
		c0.424,0,0.735-0.248,0.735-0.903v-0.064c0-0.704-0.335-0.888-0.759-0.888H84.05v1.855H84.098z M51.407,257.703
		c0-1.623,0.504-3.014,1.839-3.406V255c-0.688,0.36-0.936,1.407-0.936,2.703c0,1.303,0.248,2.351,0.936,2.71v0.704
		C51.911,260.725,51.407,259.342,51.407,257.703z M53.751,254.409h0.848c0.943,0,1.823,0.384,1.823,1.423v0.04
		c0,0.72-0.408,1.071-0.808,1.263c0.472,0.208,0.88,0.536,0.88,1.248v0.072c0,0.992-0.768,1.551-1.855,1.551h-0.888V254.409z
		 M54.743,256.759c0.432,0,0.72-0.248,0.72-0.736v-0.016c0-0.487-0.288-0.695-0.72-0.695h-0.016v1.447H54.743z M54.751,259.102
		c0.448,0,0.768-0.264,0.768-0.728v-0.04c0-0.464-0.32-0.728-0.768-0.728h-0.024v1.495H54.751z M57.647,254.393h1.04l1.063,5.613
		h-0.976l-0.184-1.111h-0.887l-0.176,1.111h-0.944L57.647,254.393z M58.447,258.015l-0.296-1.847l-0.304,1.847H58.447z
		 M60.047,254.409h0.976v4.669h1.031v0.928h-2.007V254.409z M62.151,257.303v-0.192c0-1.967,0.728-2.742,1.639-2.742
		c0.272,0,0.432,0.032,0.64,0.128v1.007c-0.2-0.12-0.36-0.184-0.543-0.184c-0.432,0-0.744,0.384-0.744,1.783v0.208
		c0,1.479,0.312,1.783,0.759,1.783c0.152,0,0.344-0.056,0.544-0.176v0.959c-0.224,0.128-0.44,0.168-0.72,0.168
		C62.831,260.045,62.151,259.254,62.151,257.303z M64.64,257.351v-0.288c0-1.847,0.6-2.734,1.487-2.734
		c0.888,0,1.487,0.887,1.487,2.734v0.288c0,1.847-0.6,2.734-1.487,2.734C65.239,260.085,64.64,259.198,64.64,257.351z
		 M66.623,257.351v-0.288c0-1.439-0.2-1.839-0.496-1.839c-0.295,0-0.496,0.399-0.496,1.839v0.288c0,1.439,0.2,1.839,0.496,1.839
		C66.422,259.19,66.623,258.79,66.623,257.351z M68.095,254.409h0.912l0.983,2.83v-2.83h0.952v5.597h-0.864l-1.031-2.966v2.966
		h-0.952V254.409z M72.271,257.798l-1.04-3.39h1.007l0.528,2.095l0.536-2.095h0.983l-1.039,3.39v2.207h-0.976V257.798z
		 M74.503,260.413c0.688-0.36,0.936-1.407,0.936-2.71c0-1.295-0.248-2.343-0.936-2.703v-0.704c1.335,0.392,1.839,1.783,1.839,3.406
		c0,1.639-0.504,3.022-1.839,3.414V260.413z"/>
	<path class="st2" d="M54.284,186.326v-0.288c0-1.847,0.6-2.734,1.487-2.734c0.888,0,1.487,0.887,1.487,2.734v0.288
		c0,1.847-0.6,2.734-1.487,2.734C54.883,189.06,54.284,188.172,54.284,186.326z M56.267,186.326v-0.288
		c0-1.439-0.2-1.839-0.496-1.839c-0.295,0-0.496,0.399-0.496,1.839v0.288c0,1.439,0.2,1.839,0.496,1.839
		C56.066,188.165,56.267,187.765,56.267,186.326z M57.739,183.383h0.872c1.063,0,1.807,0.575,1.807,1.887v0.016
		c0,1.263-0.704,1.863-1.695,1.935h-0.008v1.759h-0.976V183.383z M58.723,186.317c0.408-0.024,0.719-0.32,0.719-1v-0.016
		c0-0.712-0.272-1.016-0.695-1.016h-0.032v2.031H58.723z M60.819,183.383h2.143v0.927h-1.167v1.391h1.031v0.928h-1.031v1.423h1.191
		v0.928h-2.167V183.383z M63.459,183.383h0.911l0.983,2.83v-2.83h0.952v5.597h-0.863l-1.032-2.966v2.966h-0.951V183.383z
		 M68.675,184.311h-0.688v-0.927h2.351v0.927H69.65v4.669h-0.976V184.311z M70.491,186.326v-0.288c0-1.847,0.6-2.734,1.487-2.734
		c0.887,0,1.487,0.887,1.487,2.734v0.288c0,1.847-0.6,2.734-1.487,2.734C71.091,189.06,70.491,188.172,70.491,186.326z
		 M72.474,186.326v-0.288c0-1.439-0.2-1.839-0.496-1.839s-0.496,0.399-0.496,1.839v0.288c0,1.439,0.2,1.839,0.496,1.839
		S72.474,187.765,72.474,186.326z M48.311,191.383h0.912c1.247,0,1.959,0.903,1.959,2.702v0.192c0,1.799-0.712,2.703-1.959,2.703
		h-0.912V191.383z M49.327,196.084c0.463,0,0.863-0.408,0.863-1.807v-0.192c0-1.399-0.4-1.807-0.863-1.807h-0.04v3.806H49.327z
		 M51.664,191.383h2.143v0.927h-1.167v1.391h1.031v0.928h-1.031v1.423h1.191v0.928h-2.167V191.383z M54.127,194.277v-0.192
		c0-1.967,0.728-2.742,1.639-2.742c0.272,0,0.432,0.032,0.64,0.128v1.007c-0.2-0.12-0.36-0.184-0.544-0.184
		c-0.432,0-0.744,0.384-0.744,1.783v0.208c0,1.479,0.312,1.783,0.76,1.783c0.152,0,0.344-0.056,0.544-0.176v0.959
		c-0.224,0.128-0.44,0.168-0.72,0.168C54.807,197.02,54.127,196.229,54.127,194.277z M56.912,191.383h0.975v2.342l0.792-2.342h1.104
		l-0.943,2.366l0.959,3.23H58.71l-0.608-2.119l-0.216,0.616v1.503h-0.975V191.383z M60.016,196.788v-1.016
		c0.344,0.2,0.616,0.312,0.879,0.312c0.28,0,0.52-0.136,0.52-0.479v-0.016c0-0.256-0.08-0.448-0.543-0.976
		c-0.664-0.751-0.936-1.111-0.936-1.791v-0.016c0-0.896,0.583-1.463,1.359-1.463c0.392,0,0.624,0.056,0.863,0.176v1.016
		c-0.304-0.176-0.488-0.256-0.744-0.256c-0.271,0-0.503,0.176-0.503,0.479v0.016c0,0.264,0.08,0.36,0.543,0.896
		c0.768,0.887,0.936,1.231,0.936,1.871v0.016c0,0.879-0.616,1.463-1.383,1.463C60.623,197.02,60.295,196.924,60.016,196.788z
		 M64.007,191.383h0.848c0.943,0,1.823,0.384,1.823,1.423v0.04c0,0.72-0.408,1.071-0.808,1.263c0.472,0.208,0.88,0.536,0.88,1.248
		v0.072c0,0.992-0.768,1.551-1.855,1.551h-0.888V191.383z M64.999,193.734c0.432,0,0.72-0.248,0.72-0.736v-0.016
		c0-0.487-0.288-0.695-0.72-0.695h-0.016v1.447H64.999z M65.007,196.077c0.448,0,0.768-0.264,0.768-0.728v-0.04
		c0-0.464-0.32-0.728-0.768-0.728h-0.024v1.495H65.007z M67.159,191.383h2.143v0.927h-1.167v1.391h1.031v0.928h-1.031v1.423h1.191
		v0.928h-2.167V191.383z M69.799,191.383h0.976v4.669h1.031v0.928h-2.007V191.383z M71.903,194.326v-0.288
		c0-1.847,0.6-2.734,1.487-2.734c0.888,0,1.487,0.887,1.487,2.734v0.288c0,1.847-0.6,2.734-1.487,2.734
		C72.503,197.06,71.903,196.172,71.903,194.326z M73.886,194.326v-0.288c0-1.439-0.2-1.839-0.496-1.839
		c-0.295,0-0.496,0.399-0.496,1.839v0.288c0,1.439,0.2,1.839,0.496,1.839C73.686,196.165,73.886,195.765,73.886,194.326z
		 M75.015,191.383h1l0.407,3.43l0.488-3.43h0.903l0.479,3.43l0.416-3.43h0.976l-0.848,5.613h-1.023l-0.464-3.318l-0.464,3.318
		h-1.023L75.015,191.383z"/>
	<path class="st2" d="M49.38,371.745h-0.688v-0.928h2.351v0.928h-0.688v4.669H49.38V371.745z M51.452,370.817h1.007
		c1,0,1.727,0.528,1.727,1.783v0.072c0,0.728-0.288,1.191-0.656,1.471l0.751,2.271h-1.039l-0.632-1.951h-0.184v1.951h-0.975V370.817
		z M52.476,373.583c0.424,0,0.735-0.248,0.735-0.903v-0.064c0-0.704-0.336-0.888-0.759-0.888h-0.024v1.855H52.476z M55.419,370.801
		h1.04l1.063,5.613h-0.976l-0.184-1.111h-0.887l-0.176,1.111h-0.944L55.419,370.801z M56.219,374.423l-0.296-1.847l-0.304,1.847
		H56.219z M57.82,370.817h0.912c1.247,0,1.959,0.904,1.959,2.703v0.192c0,1.799-0.712,2.703-1.959,2.703H57.82V370.817z
		 M58.835,375.519c0.464,0,0.863-0.408,0.863-1.807v-0.192c0-1.399-0.399-1.807-0.863-1.807h-0.04v3.806H58.835z M61.172,370.817
		h2.143v0.928h-1.167v1.391h1.031v0.928h-1.031v1.423h1.191v0.927h-2.167V370.817z M63.548,370.817h1l0.408,3.43l0.488-3.43h0.903
		l0.48,3.43l0.416-3.43h0.976l-0.848,5.613h-1.023l-0.463-3.318l-0.464,3.318h-1.023L63.548,370.817z M68.563,370.817h0.976v5.597
		h-0.976V370.817z M70.132,370.817h0.911l0.984,2.831v-2.831h0.951v5.597h-0.863l-1.032-2.966v2.966h-0.951V370.817z
		 M73.556,370.817h0.912c1.247,0,1.959,0.904,1.959,2.703v0.192c0,1.799-0.712,2.703-1.959,2.703h-0.912V370.817z M74.571,375.519
		c0.464,0,0.864-0.408,0.864-1.807v-0.192c0-1.399-0.4-1.807-0.864-1.807h-0.04v3.806H74.571z M76.748,376.222v-1.016
		c0.344,0.2,0.616,0.312,0.88,0.312c0.279,0,0.52-0.136,0.52-0.48v-0.016c0-0.256-0.08-0.448-0.544-0.976
		c-0.663-0.751-0.936-1.111-0.936-1.791v-0.016c0-0.896,0.584-1.463,1.359-1.463c0.392,0,0.624,0.056,0.863,0.176v1.015
		c-0.304-0.176-0.487-0.256-0.743-0.256c-0.271,0-0.504,0.176-0.504,0.48v0.016c0,0.264,0.08,0.36,0.544,0.896
		c0.768,0.887,0.936,1.231,0.936,1.871v0.016c0,0.88-0.616,1.463-1.384,1.463C77.355,376.454,77.028,376.358,76.748,376.222z
		 M45.168,379.745H44.48v-0.928h2.351v0.928h-0.688v4.669h-0.976V379.745z M47.784,378.801h1.04l1.063,5.613h-0.976l-0.184-1.111
		H47.84l-0.176,1.111H46.72L47.784,378.801z M48.583,382.423l-0.296-1.847l-0.304,1.847H48.583z M50.752,381.56l-0.88-2.743h1.04
		l0.44,1.615l0.448-1.615h1.015l-0.879,2.743l0.912,2.854h-1.04l-0.472-1.703l-0.479,1.703H49.84L50.752,381.56z M54.288,382.983
		v-0.048c0-0.68,0.32-1.184,0.855-1.647c-0.312-0.503-0.472-0.879-0.472-1.271v-0.056c0-0.671,0.464-1.223,1.16-1.223
		c0.68,0,1.127,0.496,1.127,1.215v0.056c0,0.64-0.304,1.087-0.792,1.503l0.504,0.959c0.04-0.176,0.072-0.416,0.12-0.751l0.751,0.136
		c-0.072,0.632-0.2,1.08-0.36,1.439l0.464,0.792l-0.704,0.432l-0.272-0.496c-0.264,0.295-0.552,0.472-1.04,0.472
		C54.912,384.494,54.288,383.895,54.288,382.983z M56.255,383.383l-0.704-1.392c-0.208,0.256-0.328,0.592-0.328,0.872v0.064
		c0,0.432,0.208,0.72,0.528,0.72C55.959,383.646,56.119,383.55,56.255,383.383z M55.783,380.856c0.248-0.24,0.344-0.528,0.344-0.823
		v-0.064c0-0.271-0.128-0.447-0.312-0.447c-0.192,0-0.312,0.176-0.312,0.416v0.08C55.503,380.24,55.591,380.488,55.783,380.856z
		 M59.216,378.817h0.912c1.248,0,1.959,0.904,1.959,2.703v0.192c0,1.799-0.711,2.703-1.959,2.703h-0.912V378.817z M60.231,383.519
		c0.464,0,0.864-0.408,0.864-1.807v-0.192c0-1.399-0.4-1.807-0.864-1.807h-0.04v3.806H60.231z M62.552,382.783v-3.966h0.968v4.062
		c0,0.504,0.176,0.704,0.424,0.704c0.248,0,0.424-0.2,0.424-0.704v-4.062h0.967v3.966c0,1.176-0.592,1.703-1.391,1.703
		C63.144,384.486,62.552,383.958,62.552,382.783z M66.416,379.745h-0.688v-0.928h2.351v0.928h-0.688v4.669h-0.976V379.745z
		 M69.159,382.207l-1.039-3.391h1.007l0.528,2.095l0.536-2.095h0.983l-1.04,3.391v2.207h-0.976V382.207z M72.736,378.817h2.039
		v0.928h-1.064v1.407h0.927v0.928h-0.927v2.334h-0.975V378.817z M75.215,378.817h1.008c0.999,0,1.727,0.528,1.727,1.783v0.072
		c0,0.728-0.287,1.191-0.655,1.471l0.752,2.271h-1.04l-0.631-1.951h-0.185v1.951h-0.976V378.817z M76.239,381.583
		c0.424,0,0.736-0.248,0.736-0.903v-0.064c0-0.704-0.336-0.888-0.76-0.888h-0.024v1.855H76.239z M78.4,378.817h2.143v0.928h-1.167
		v1.391h1.031v0.928h-1.031v1.423h1.191v0.927H78.4V378.817z M81.04,378.817h2.143v0.928h-1.167v1.391h1.031v0.928h-1.031v1.423
		h1.191v0.927H81.04V378.817z"/>
	<path class="st2" d="M22.772,770.607v-1.015c0.344,0.199,0.616,0.312,0.879,0.312c0.28,0,0.52-0.136,0.52-0.479v-0.017
		c0-0.256-0.08-0.447-0.544-0.975c-0.664-0.752-0.936-1.112-0.936-1.791v-0.017c0-0.896,0.584-1.463,1.359-1.463
		c0.392,0,0.624,0.056,0.864,0.176v1.016c-0.304-0.176-0.488-0.256-0.744-0.256c-0.272,0-0.504,0.176-0.504,0.479v0.016
		c0,0.265,0.08,0.36,0.544,0.896c0.768,0.888,0.936,1.231,0.936,1.871v0.017c0,0.879-0.616,1.463-1.383,1.463
		C23.38,770.839,23.052,770.744,22.772,770.607z M25.492,765.203h0.975v2.318h0.848v-2.318h0.976v5.597h-0.976v-2.351h-0.848v2.351
		h-0.975V765.203z M28.772,768.145v-0.288c0-1.847,0.6-2.734,1.487-2.734c0.887,0,1.487,0.888,1.487,2.734v0.288
		c0,1.847-0.6,2.734-1.487,2.734C29.372,770.879,28.772,769.992,28.772,768.145z M30.755,768.145v-0.288
		c0-1.439-0.2-1.839-0.496-1.839s-0.496,0.399-0.496,1.839v0.288c0,1.438,0.2,1.839,0.496,1.839S30.755,769.583,30.755,768.145z
		 M32.228,765.203h1.007c1,0,1.727,0.527,1.727,1.783v0.071c0,0.728-0.288,1.191-0.656,1.472l0.752,2.271h-1.04l-0.632-1.951h-0.184
		v1.951h-0.976V765.203z M33.251,767.969c0.424,0,0.735-0.248,0.735-0.904v-0.063c0-0.704-0.335-0.888-0.759-0.888h-0.024v1.855
		H33.251z M35.412,765.203h2.143v0.928h-1.167v1.391h1.032v0.928h-1.032v1.423h1.191v0.928h-2.167V765.203z M16.28,773.203h2.143
		v0.928h-1.167v1.391h1.032v0.928h-1.032v1.423h1.191v0.928H16.28V773.203z M19.607,775.945l-0.879-2.742h1.04l0.44,1.615
		l0.448-1.615h1.015l-0.879,2.742l0.912,2.854h-1.04l-0.472-1.703l-0.48,1.703h-1.015L19.607,775.945z M21.8,776.097v-0.192
		c0-1.967,0.728-2.742,1.639-2.742c0.271,0,0.432,0.032,0.64,0.128v1.007c-0.2-0.119-0.36-0.184-0.544-0.184
		c-0.432,0-0.744,0.384-0.744,1.783v0.208c0,1.479,0.312,1.783,0.76,1.783c0.152,0,0.344-0.057,0.543-0.176v0.959
		c-0.224,0.128-0.439,0.168-0.719,0.168C22.48,778.839,21.8,778.047,21.8,776.097z M24.568,777.168v-3.966h0.968v4.062
		c0,0.504,0.176,0.704,0.424,0.704c0.248,0,0.424-0.2,0.424-0.704v-4.062h0.967v3.966c0,1.175-0.592,1.703-1.391,1.703
		C25.16,778.872,24.568,778.343,24.568,777.168z M27.912,773.203h1.007c1,0,1.727,0.527,1.727,1.783v0.071
		c0,0.728-0.288,1.191-0.656,1.472l0.751,2.271h-1.039l-0.632-1.951h-0.184v1.951h-0.975V773.203z M28.936,775.969
		c0.424,0,0.735-0.248,0.735-0.904v-0.063c0-0.704-0.336-0.888-0.759-0.888h-0.024v1.855H28.936z M30.976,778.607v-1.015
		c0.344,0.199,0.616,0.312,0.879,0.312c0.28,0,0.52-0.136,0.52-0.479v-0.017c0-0.256-0.08-0.447-0.543-0.975
		c-0.664-0.752-0.936-1.112-0.936-1.791v-0.017c0-0.896,0.583-1.463,1.359-1.463c0.392,0,0.624,0.056,0.863,0.176v1.016
		c-0.304-0.176-0.488-0.256-0.744-0.256c-0.271,0-0.503,0.176-0.503,0.479v0.016c0,0.265,0.08,0.36,0.543,0.896
		c0.768,0.888,0.936,1.231,0.936,1.871v0.017c0,0.879-0.616,1.463-1.383,1.463C31.583,778.839,31.256,778.744,30.976,778.607z
		 M33.712,773.203h0.976v5.597h-0.976V773.203z M35.184,776.145v-0.288c0-1.847,0.6-2.734,1.487-2.734
		c0.888,0,1.487,0.888,1.487,2.734v0.288c0,1.847-0.6,2.734-1.487,2.734C35.784,778.879,35.184,777.992,35.184,776.145z
		 M37.167,776.145v-0.288c0-1.439-0.2-1.839-0.496-1.839c-0.295,0-0.496,0.399-0.496,1.839v0.288c0,1.438,0.2,1.839,0.496,1.839
		C36.967,777.984,37.167,777.583,37.167,776.145z M38.64,773.203h0.912l0.983,2.83v-2.83h0.952v5.597h-0.864l-1.031-2.967v2.967
		H38.64V773.203z M41.944,778.607v-1.015c0.344,0.199,0.616,0.312,0.879,0.312c0.28,0,0.52-0.136,0.52-0.479v-0.017
		c0-0.256-0.08-0.447-0.544-0.975c-0.664-0.752-0.936-1.112-0.936-1.791v-0.017c0-0.896,0.584-1.463,1.359-1.463
		c0.392,0,0.624,0.056,0.864,0.176v1.016c-0.304-0.176-0.488-0.256-0.744-0.256c-0.272,0-0.504,0.176-0.504,0.479v0.016
		c0,0.265,0.08,0.36,0.544,0.896c0.768,0.888,0.935,1.231,0.935,1.871v0.017c0,0.879-0.615,1.463-1.383,1.463
		C42.552,778.839,42.224,778.744,41.944,778.607z"/>
	<path class="st2" d="M63.201,726.569h0.976v5.597h-0.976V726.569z M64.769,726.569h0.911l0.983,2.83v-2.83h0.952v5.597h-0.864
		l-1.031-2.967v2.967h-0.951V726.569z M68.712,727.496h-0.688v-0.927h2.351v0.927h-0.688v4.67h-0.976V727.496z M70.785,726.569
		h2.143v0.927H71.76v1.392h1.031v0.928H71.76v1.423h1.191v0.928h-2.167V726.569z M73.424,726.569h1.008
		c0.999,0,1.727,0.527,1.727,1.783v0.071c0,0.728-0.287,1.191-0.655,1.472l0.752,2.271h-1.04l-0.632-1.951H74.4v1.951h-0.976
		V726.569z M74.448,729.335c0.424,0,0.736-0.248,0.736-0.904v-0.063c0-0.704-0.336-0.888-0.76-0.888H74.4v1.855H74.448z
		 M76.609,726.569h0.911l0.983,2.83v-2.83h0.951v5.597h-0.863l-1.031-2.967v2.967h-0.951V726.569z M80.033,726.569h2.143v0.927
		h-1.167v1.392h1.031v0.928h-1.031v1.423H82.2v0.928h-2.167V726.569z M83.192,727.496h-0.688v-0.927h2.351v0.927h-0.688v4.67h-0.976
		V727.496z M86.44,729.463v-0.192c0-1.967,0.728-2.742,1.64-2.742c0.271,0,0.432,0.032,0.64,0.128v1.007
		c-0.2-0.119-0.36-0.184-0.544-0.184c-0.432,0-0.743,0.384-0.743,1.783v0.208c0,1.479,0.312,1.783,0.759,1.783
		c0.152,0,0.345-0.057,0.544-0.177v0.96c-0.224,0.128-0.439,0.168-0.72,0.168C87.12,732.206,86.44,731.414,86.44,729.463z
		 M90.008,726.552h1.039l1.063,5.613h-0.976l-0.184-1.111h-0.888l-0.176,1.111h-0.943L90.008,726.552z M90.807,730.174l-0.296-1.847
		l-0.304,1.847H90.807z M92.409,726.569h2.038v0.927h-1.063v1.408h0.928v0.927h-0.928v2.335h-0.975V726.569z M94.888,726.569h2.143
		v0.927h-1.167v1.392h1.031v0.928h-1.031v1.423h1.191v0.928h-2.167V726.569z M96.248,725.273l0.808,0.4l-0.792,0.615H95.56
		L96.248,725.273z"/>
</g>
<g id="PEARL_DECK_07_TOP">
	<path class="st3" d="M127.251,236.627c0,0-0.203-32.547-0.551-36.432c-0.127-1.437-0.229-16.152-1.449-28.511
		c0,0-5.198-50.919-9.576-66.758c-5.601-20.265-7.934-34.2-30.918-73.872c0,0-16.427-28.454-19.71-30.096
		c-0.293-0.243-0.596-0.391-0.904-0.459h-0.547c-0.31,0.068-0.612,0.216-0.904,0.459c-3.283,1.642-19.699,30.096-19.699,30.096
		c-22.982,39.672-25.518,53.552-30.916,73.872c-4.583,17.254-9.576,66.758-9.576,66.758c-1.222,12.359-1.322,27.075-1.45,28.511
		C0.703,204.081,0.5,236.627,0.5,236.627s0.001,15.092,0.003,41.192c-0.002,0.296-0.003,0.469-0.003,0.469
		s0.051,804.927,0.229,825.142c5.162,14.605,37.443,17.768,53.778,18.426l20.562-0.082c16.803-0.82,46.977-4.266,51.953-18.344
		c0.178-20.215,0.229-825.142,0.229-825.142s-0.001-0.173-0.003-0.469C127.25,251.719,127.251,236.627,127.251,236.627z"/>
	<g id="gDeck07Locations">
		<rect id="_x30_7Aft" x="0" y="716.688" class="st4" width="127.751" height="405.668"/>
		<rect id="_x30_7Middle" x="0" y="405.364" class="st4" width="127.751" height="311.324"/>
		<rect id="_x30_7Forward" x="0" y="0.959" class="st4" width="127.751" height="404.405"/>
	</g>
</g>
</svg>
