<?xml version="1.0" encoding="utf-8"?>
<!-- Generator: Adobe Illustrator 23.0.4, SVG Export Plug-In . SVG Version: 6.00 Build 0)  -->
<svg version="1.1" id="PEARL_DECK_14" xmlns="http://www.w3.org/2000/svg" xmlns:xlink="http://www.w3.org/1999/xlink" x="0px"
	 y="0px" width="131.447px" height="891px" viewBox="0 0 131.447 891" style="enable-background:new 0 0 131.447 891;"
	 xml:space="preserve">
<style type="text/css">
	.New_x0020_Cabins_x0020_2019{fill:#EFF2F5;stroke:#FFFFFF;stroke-width:0.5;stroke-miterlimit:10;}
	.New_x0020_Cabins_x0020_2{fill:#EFF2F5;stroke:#FFFFFF;stroke-width:0.5;stroke-miterlimit:10;}
	.New_x0020_Cabins_x0020_3{fill:#EFF2F5;stroke:#FFFFFF;stroke-width:0.5;stroke-miterlimit:10;}
	.st0{fill:#FFFFFF;}
	.st1{fill:none;stroke:#D5DCE0;stroke-width:0.5;}
	.st2{fill:none;stroke:#808285;stroke-width:0.75;stroke-miterlimit:3.8636;}
	.st3{fill:#6E8496;}
	.st4{fill:#CCDDE2;}
	.st5{fill:#EFF2F5;stroke:#FFFFFF;stroke-width:0.5;stroke-miterlimit:10;}
	.st6{fill:none;stroke:#076FA0;stroke-miterlimit:10;}
	.st7{fill:none;}
</style>
<g id="PEARL_DECK_14_BOTTOM">
	<path class="st0" d="M61.967,483.702h17.254c0,0,33.196,1.317,51.727,21.758v219.244h-21.752v7.441h-6.297v52.666h17.173v84.721
		h-6.297V890.5h-34.97H52.58H17.61v-20.969h-6.297v-84.721h17.173v-52.666h-6.297v-7.441H0.436V505.46
		c18.531-20.441,51.728-21.758,51.728-21.758H61.967z"/>
	<path class="st0" d="M2.135,177.34h21.351v111.128c0,0,18.779-16.57,43.745-16.128c24.965,0.442,42.419,15.686,42.419,15.686
		V153.478h16.623V11.309c0,0-16.912-9.028-56.84-10.809h-5.932C23.574,2.28,6.662,11.309,6.662,11.309v144.198l-6.132,8.591
		l0.002,13.244L2.135,177.34z"/>
	<path class="st1" d="M121.625,153.109l0.404-134.616c-56.19-18.596-111.17,0-111.17,0v135.425L0.753,169.279"/>
	<path class="st1" d="M16.645,17.211l16.102,27.997c0,0,4.852,10.106-7.681,15.362H10.747"/>
	<path class="st1" d="M30.321,49.8c0,4.354-3.529,7.883-7.883,7.883s-7.883-3.529-7.883-7.883c0-4.354,3.529-7.883,7.883-7.883
		S30.321,45.447,30.321,49.8z"/>
	<path class="st1" d="M116.83,17.005l-16.345,28.203c0,0-4.851,10.106,7.681,15.362h13.893"/>
	<path class="st1" d="M102.911,49.8c0,4.354,3.529,7.883,7.883,7.883c4.354,0,7.884-3.529,7.884-7.883
		c0-4.354-3.529-7.883-7.884-7.883C106.44,41.917,102.911,45.447,102.911,49.8z"/>
	<polyline class="st1" points="87.755,150.681 98.086,150.681 102.178,146.589 102.178,87.456 68.591,87.456 64.12,87.456 
		30.534,87.456 30.534,146.589 34.626,150.681 51.089,150.681 	"/>
	<polyline class="st1" points="92.736,87.865 92.736,98.71 101.943,98.71 	"/>
	<polyline class="st1" points="39.754,87.865 39.754,98.71 30.547,98.71 	"/>
	<polyline class="st1" points="50.909,150.586 50.909,165.795 46.129,165.795 46.129,169.489 	"/>
	<line class="st1" x1="88.081" y1="151.137" x2="88.081" y2="170.234"/>
	<line class="st1" x1="24.258" y1="224.536" x2="30.611" y2="224.536"/>
	<line class="st1" x1="24.258" y1="221.806" x2="30.611" y2="221.806"/>
	<line class="st1" x1="24.258" y1="219.075" x2="30.611" y2="219.075"/>
	<line class="st1" x1="24.258" y1="216.345" x2="30.611" y2="216.345"/>
	<line class="st1" x1="24.258" y1="213.613" x2="30.611" y2="213.613"/>
	<rect x="24.4" y="210.883" class="st1" width="6.313" height="16.384"/>
	<line class="st1" x1="39.879" y1="198.228" x2="45.019" y2="198.228"/>
	<line class="st1" x1="39.879" y1="195.497" x2="45.019" y2="195.497"/>
	<line class="st1" x1="39.879" y1="192.767" x2="45.019" y2="192.767"/>
	<line class="st1" x1="39.879" y1="190.036" x2="45.019" y2="190.036"/>
	<line class="st1" x1="39.879" y1="187.305" x2="45.019" y2="187.305"/>
	<rect x="39.994" y="184.574" class="st1" width="5.107" height="16.384"/>
	<line class="st1" x1="101.951" y1="224.536" x2="108.304" y2="224.536"/>
	<line class="st1" x1="101.951" y1="221.806" x2="108.304" y2="221.806"/>
	<line class="st1" x1="101.951" y1="219.075" x2="108.304" y2="219.075"/>
	<line class="st1" x1="101.951" y1="216.345" x2="108.304" y2="216.345"/>
	<line class="st1" x1="101.951" y1="213.613" x2="108.304" y2="213.613"/>
	<rect x="102.092" y="210.883" class="st1" width="6.313" height="16.384"/>
	<polyline class="st1" points="87.98,170.047 87.98,206.172 46.156,206.172 46.156,167.531 	"/>
	<path class="st1" d="M78.155,206.178c-0.517,6.677-5.545,11.916-11.671,11.916c-6.063,0-11.049-5.129-11.654-11.705"/>
	<path class="st1" d="M57.033,206.163c0.025,0.911,0.15,1.881,0.421,2.887c3.083,7.194,9.044,6.577,9.044,6.577h0.19
		c0,0,5.961,0.617,9.044-6.577c0.312-1.155,0.431-2.263,0.426-3.289"/>
	<rect x="43.875" y="583.17" class="st1" width="42.875" height="16.375"/>
	<rect x="48.025" y="606.085" class="st1" width="35.375" height="68.625"/>
	<rect x="58.719" y="620.273" class="st1" width="14" height="47.125"/>
	<rect x="48.025" y="687.17" class="st1" width="10.25" height="16.375"/>
	<line class="st1" x1="48.025" y1="673.67" x2="48.025" y2="688.42"/>
	<rect x="73.226" y="686.92" class="st1" width="10.125" height="16.625"/>
	<line class="st1" x1="83.402" y1="673.67" x2="83.402" y2="688.42"/>
	<polygon class="st1" points="36.625,703.545 94.25,703.545 93.875,845.549 37.125,845.549 	"/>
	<polyline class="st1" points="78.812,674.795 78.812,681.045 64.125,681.045 	"/>
	<line class="st1" x1="83.375" y1="685.795" x2="64.125" y2="685.795"/>
	<rect x="59.75" y="624.42" class="st1" width="11.812" height="11.813"/>
	<line class="st1" x1="77.125" y1="681.205" x2="77.125" y2="685.517"/>
	<line class="st1" x1="75.9" y1="681.205" x2="75.9" y2="685.517"/>
	<line class="st1" x1="74.675" y1="681.205" x2="74.675" y2="685.517"/>
	<line class="st1" x1="78.736" y1="678.135" x2="83.049" y2="678.135"/>
	<line class="st1" x1="78.736" y1="679.36" x2="83.049" y2="679.36"/>
	<line class="st1" x1="78.736" y1="680.585" x2="83.049" y2="680.585"/>
	<line class="st1" x1="73.45" y1="681.205" x2="73.45" y2="685.517"/>
	<line class="st1" x1="72.225" y1="681.205" x2="72.225" y2="685.517"/>
	<line class="st1" x1="71" y1="681.205" x2="71" y2="685.517"/>
	<line class="st1" x1="69.775" y1="681.142" x2="69.775" y2="685.455"/>
	<line class="st1" x1="68.55" y1="681.142" x2="68.55" y2="685.455"/>
	<line class="st1" x1="67.325" y1="681.142" x2="67.325" y2="685.455"/>
	<line class="st1" x1="66.1" y1="681.142" x2="66.1" y2="685.455"/>
	<line class="st1" x1="64.875" y1="681.142" x2="64.875" y2="685.455"/>
	<polygon class="st1" points="55.883,581.118 55.883,572.53 65.967,572.53 65.967,581.118 55.883,581.118 	"/>
	<polygon class="st1" points="45.799,581.118 45.799,572.53 55.883,572.53 55.883,581.118 45.799,581.118 	"/>
	<polygon class="st1" points="75.921,581.118 75.921,572.53 86.005,572.53 86.005,581.118 75.921,581.118 	"/>
	<polygon class="st1" points="65.837,581.118 65.837,572.53 75.921,572.53 75.921,581.118 65.837,581.118 	"/>
	<path class="st1" d="M74.969,560.247V538.31c0-0.553-0.445-1-0.995-1H57.848c-0.55,0-0.996,0.447-0.996,1v21.937H74.969z"/>
	<polygon class="st1" points="55.762,793.76 55.762,785.172 65.846,785.172 65.846,793.76 55.762,793.76 	"/>
	<polygon class="st1" points="45.678,793.76 45.678,785.172 55.762,785.172 55.762,793.76 45.678,793.76 	"/>
	<polygon class="st1" points="75.801,793.76 75.801,785.172 85.885,785.172 85.885,793.76 75.801,793.76 	"/>
	<polygon class="st1" points="65.717,793.76 65.717,785.172 75.801,785.172 75.801,793.76 65.717,793.76 	"/>
	<line class="st1" x1="36.862" y1="785.154" x2="93.909" y2="785.154"/>
	<line class="st1" x1="36.453" y1="733.192" x2="94.113" y2="733.192"/>
	<line class="st1" x1="65.849" y1="537.688" x2="65.849" y2="560.247"/>
	<line class="st1" x1="66.1" y1="547.636" x2="74.895" y2="547.636"/>
	<line class="st1" x1="66.1" y1="549.134" x2="74.895" y2="549.134"/>
	<line class="st1" x1="66.1" y1="550.633" x2="74.895" y2="550.633"/>
	<line class="st1" x1="66.1" y1="552.131" x2="74.895" y2="552.131"/>
	<line class="st1" x1="66.1" y1="553.63" x2="74.895" y2="553.63"/>
	<line class="st1" x1="66.1" y1="555.128" x2="74.895" y2="555.128"/>
	<line class="st1" x1="56.815" y1="547.636" x2="65.611" y2="547.636"/>
	<line class="st1" x1="56.815" y1="549.134" x2="65.611" y2="549.134"/>
	<line class="st1" x1="56.815" y1="550.633" x2="65.611" y2="550.633"/>
	<line class="st1" x1="56.815" y1="552.131" x2="65.611" y2="552.131"/>
	<line class="st1" x1="56.815" y1="553.63" x2="65.611" y2="553.63"/>
	<line class="st1" x1="56.815" y1="555.128" x2="65.611" y2="555.128"/>
	<line class="st1" x1="94.317" y1="711.827" x2="100.716" y2="711.827"/>
	<line class="st1" x1="30.492" y1="711.827" x2="36.891" y2="711.827"/>
	<path class="st1" d="M94.06,845.554c7.248,0.024,13.654-0.501,13.654,9.164c0,9.585,0,14.019,0,14.019"/>
	<path class="st1" d="M37.929,845.554c-7.248,0.024-13.654-0.501-13.654,9.164c0,9.585,0,14.019,0,14.019"/>
	<rect x="52.638" y="845.689" class="st1" width="26.037" height="22.348"/>
	<line class="st1" x1="56.15" y1="581.008" x2="65.961" y2="572.743"/>
	<line class="st1" x1="65.836" y1="580.899" x2="56.165" y2="572.758"/>
	<line class="st1" x1="46.04" y1="580.993" x2="55.947" y2="572.68"/>
	<line class="st1" x1="55.712" y1="580.836" x2="46.119" y2="572.789"/>
	<line class="st1" x1="76.186" y1="581.008" x2="85.999" y2="572.743"/>
	<line class="st1" x1="85.874" y1="580.899" x2="76.202" y2="572.758"/>
	<line class="st1" x1="66.077" y1="580.993" x2="75.983" y2="572.68"/>
	<line class="st1" x1="75.749" y1="580.836" x2="66.155" y2="572.789"/>
	<line class="st1" x1="56.03" y1="793.651" x2="65.841" y2="785.385"/>
	<line class="st1" x1="65.716" y1="793.542" x2="56.045" y2="785.401"/>
	<line class="st1" x1="45.92" y1="793.635" x2="55.827" y2="785.323"/>
	<line class="st1" x1="55.592" y1="793.479" x2="45.998" y2="785.432"/>
	<line class="st1" x1="76.065" y1="793.651" x2="85.878" y2="785.385"/>
	<line class="st1" x1="85.753" y1="793.542" x2="76.081" y2="785.401"/>
	<line class="st1" x1="65.956" y1="793.635" x2="75.862" y2="785.323"/>
	<line class="st1" x1="75.628" y1="793.479" x2="66.034" y2="785.432"/>
	<path class="st3" d="M55.653,79.712v-1.016c0.344,0.2,0.615,0.312,0.879,0.312c0.28,0,0.52-0.136,0.52-0.479v-0.016
		c0-0.256-0.08-0.448-0.543-0.976c-0.664-0.751-0.936-1.111-0.936-1.791V75.73c0-0.896,0.583-1.463,1.359-1.463
		c0.392,0,0.624,0.056,0.863,0.176v1.016c-0.304-0.176-0.488-0.256-0.744-0.256c-0.272,0-0.503,0.176-0.503,0.479v0.016
		c0,0.264,0.08,0.36,0.543,0.896c0.768,0.887,0.936,1.231,0.936,1.871v0.016c0,0.879-0.616,1.463-1.383,1.463
		C56.261,79.944,55.933,79.848,55.653,79.712z M58.357,78.273v-3.966h0.967v4.062c0,0.504,0.176,0.704,0.424,0.704
		c0.248,0,0.424-0.2,0.424-0.704v-4.062h0.968v3.966c0,1.175-0.592,1.703-1.392,1.703C58.949,79.976,58.357,79.448,58.357,78.273z
		 M61.701,74.307h0.912l0.983,2.83v-2.83h0.952v5.597h-0.864l-1.031-2.966v2.966h-0.952V74.307z M66.396,74.307h0.912
		c1.247,0,1.959,0.903,1.959,2.702v0.192c0,1.799-0.712,2.703-1.959,2.703h-0.912V74.307z M67.412,79.008
		c0.464,0,0.863-0.408,0.863-1.807v-0.192c0-1.399-0.399-1.807-0.863-1.807h-0.04v3.806H67.412z M69.749,74.307h2.143v0.927h-1.167
		v1.391h1.031v0.928h-1.031v1.423h1.191v0.928h-2.167V74.307z M72.213,77.201v-0.192c0-1.967,0.728-2.742,1.639-2.742
		c0.272,0,0.432,0.032,0.64,0.128v1.007c-0.199-0.12-0.359-0.184-0.544-0.184c-0.432,0-0.743,0.384-0.743,1.783v0.208
		c0,1.479,0.312,1.783,0.76,1.783c0.151,0,0.344-0.056,0.544-0.176v0.959c-0.225,0.128-0.44,0.168-0.72,0.168
		C72.893,79.944,72.213,79.152,72.213,77.201z M74.997,74.307h0.975v2.342l0.792-2.342h1.104l-0.943,2.366l0.959,3.23h-1.087
		l-0.608-2.119l-0.216,0.616v1.503h-0.975V74.307z"/>
	<path class="st3" d="M51.48,670.18v0.688h-0.928v-2.351h0.928v0.688h4.669v0.976H51.48z M50.553,668.108v-0.976h2.319v-0.848
		h-2.319v-0.976h5.597v0.976h-2.351v0.848h2.351v0.976H50.553z M50.553,664.732v-2.143h0.928v1.167h1.391v-1.031h0.928v1.031h1.423
		v-1.191h0.927v2.167H50.553z M50.553,660.82v-0.871c0-1.063,0.576-1.807,1.887-1.807h0.016c1.263,0,1.863,0.703,1.935,1.694v0.008
		h1.759v0.976H50.553z M53.487,659.836c-0.024-0.407-0.32-0.72-1-0.72h-0.016c-0.711,0-1.015,0.272-1.015,0.696v0.031h2.031V659.836
		z M50.553,657.741v-1.008c0-1,0.528-1.728,1.783-1.728h0.072c0.728,0,1.191,0.288,1.471,0.656l2.271-0.752v1.04l-1.951,0.631v0.185
		h1.951v0.976H50.553z M53.319,656.717c0-0.424-0.248-0.736-0.903-0.736h-0.064c-0.704,0-0.888,0.336-0.888,0.76v0.024h1.855
		V656.717z M50.553,654.541v-0.976h5.597v0.976H50.553z M50.553,653.252v-0.992l3.646-0.527l-3.646-0.527v-0.96l5.613,1v1.007
		L50.553,653.252z M50.537,649.325v-1.039l5.613-1.063v0.976l-1.111,0.184v0.888l1.111,0.176v0.943L50.537,649.325z M54.159,648.525
		l-1.847,0.296l1.847,0.304V648.525z M51.48,646.645v0.688h-0.928v-2.351h0.928v0.688h4.669v0.976H51.48z M50.553,644.573v-2.144
		h0.928v1.168h1.391v-1.031h0.928v1.031h1.423v-1.191h0.927v2.167H50.553z M53.447,640.756h-0.192c-1.967,0-2.742-0.728-2.742-1.639
		c0-0.272,0.032-0.432,0.128-0.64h1.007c-0.12,0.199-0.184,0.359-0.184,0.543c0,0.433,0.384,0.744,1.783,0.744h0.208
		c1.479,0,1.783-0.312,1.783-0.76c0-0.151-0.056-0.344-0.176-0.544h0.959c0.128,0.225,0.168,0.44,0.168,0.72
		C56.19,640.077,55.398,640.756,53.447,640.756z M53.495,638.268h-0.288c-1.847,0-2.734-0.6-2.734-1.486
		c0-0.888,0.887-1.487,2.734-1.487h0.288c1.847,0,2.735,0.6,2.735,1.487C56.23,637.668,55.342,638.268,53.495,638.268z
		 M53.495,636.286h-0.288c-1.439,0-1.839,0.2-1.839,0.496c0,0.295,0.4,0.495,1.839,0.495h0.288c1.439,0,1.839-0.2,1.839-0.495
		C55.334,636.486,54.935,636.286,53.495,636.286z M54.519,634.829h-3.966v-0.968h4.062c0.504,0,0.704-0.176,0.704-0.424
		s-0.2-0.424-0.704-0.424h-4.062v-0.967h3.966c1.176,0,1.703,0.591,1.703,1.391S55.694,634.829,54.519,634.829z M50.553,631.485
		v-1.008c0-0.999,0.528-1.727,1.783-1.727h0.072c0.728,0,1.191,0.287,1.471,0.655l2.271-0.752v1.04l-1.951,0.632v0.184h1.951v0.976
		H50.553z M53.319,630.461c0-0.424-0.248-0.736-0.903-0.736h-0.064c-0.704,0-0.888,0.336-0.888,0.76v0.024h1.855V630.461z
		 M51.48,627.861v0.688h-0.928v-2.351h0.928v0.688h4.669v0.976H51.48z M53.943,625.117l-3.391,1.04v-1.008l2.095-0.527l-2.095-0.536
		v-0.983l3.391,1.039h2.207v0.976H53.943z M50.537,622.349v-1.039l5.613-1.063v0.976l-1.111,0.184v0.888l1.111,0.176v0.943
		L50.537,622.349z M54.159,621.549l-1.847,0.296l1.847,0.304V621.549z M50.553,619.949v-1.008c0-0.999,0.528-1.727,1.783-1.727
		h0.072c0.728,0,1.191,0.288,1.471,0.655l2.271-0.751v1.039l-1.951,0.632v0.184h1.951v0.976H50.553z M53.319,618.925
		c0-0.424-0.248-0.735-0.903-0.735h-0.064c-0.704,0-0.888,0.336-0.888,0.76v0.023h1.855V618.925z M50.553,616.765v-0.912
		c0-1.247,0.904-1.959,2.703-1.959h0.192c1.799,0,2.703,0.712,2.703,1.959v0.912H50.553z M55.254,615.75
		c0-0.464-0.408-0.863-1.807-0.863h-0.192c-1.399,0-1.807,0.399-1.807,0.863v0.04h3.806V615.75z"/>
	<path class="st3" d="M74.996,692.524h1.008c0.999,0,1.727,0.527,1.727,1.783v0.071c0,0.728-0.287,1.191-0.655,1.472l0.752,2.271
		h-1.04l-0.631-1.951h-0.185v1.951h-0.976V692.524z M76.02,695.291c0.424,0,0.736-0.248,0.736-0.904v-0.063
		c0-0.704-0.336-0.888-0.76-0.888h-0.024v1.855H76.02z M78.181,692.524h1.007c1,0,1.728,0.527,1.728,1.783v0.071
		c0,0.728-0.288,1.191-0.655,1.472l0.751,2.271h-1.039l-0.632-1.951h-0.184v1.951h-0.976V692.524z M79.204,695.291
		c0.424,0,0.735-0.248,0.735-0.904v-0.063c0-0.704-0.336-0.888-0.76-0.888h-0.023v1.855H79.204z"/>
	<path class="st3" d="M50.355,692.524h1.007c1,0,1.727,0.527,1.727,1.783v0.071c0,0.728-0.288,1.191-0.656,1.472l0.751,2.271h-1.039
		l-0.632-1.951h-0.184v1.951h-0.976V692.524z M51.379,695.291c0.424,0,0.735-0.248,0.735-0.904v-0.063
		c0-0.704-0.336-0.888-0.759-0.888h-0.024v1.855H51.379z M53.539,692.524h1.008c1,0,1.727,0.527,1.727,1.783v0.071
		c0,0.728-0.288,1.191-0.656,1.472l0.751,2.271h-1.04l-0.631-1.951h-0.184v1.951h-0.976V692.524z M54.562,695.291
		c0.424,0,0.736-0.248,0.736-0.904v-0.063c0-0.704-0.336-0.888-0.76-0.888h-0.024v1.855H54.562z"/>
	<path class="st3" d="M54.629,854.246v-0.192c0-1.967,0.728-2.742,1.639-2.742c0.271,0,0.432,0.032,0.64,0.128v1.007
		c-0.2-0.119-0.36-0.184-0.544-0.184c-0.432,0-0.744,0.384-0.744,1.783v0.208c0,1.479,0.312,1.783,0.76,1.783
		c0.152,0,0.344-0.057,0.543-0.177v0.96c-0.224,0.128-0.439,0.168-0.719,0.168C55.309,856.988,54.629,856.196,54.629,854.246z
		 M57.413,851.351h0.976v4.669h1.031v0.928h-2.007V851.351z M59.829,851.351h0.976v5.597h-0.976V851.351z M61.396,851.351h0.968
		l0.688,2.047l0.688-2.047h0.968v5.597h-0.936v-3.382l-0.712,2.118h-0.016l-0.712-2.118v3.382h-0.936V851.351z M65.284,851.351
		h0.848c0.943,0,1.823,0.384,1.823,1.423v0.04c0,0.72-0.408,1.071-0.808,1.264c0.472,0.208,0.88,0.535,0.88,1.247v0.072
		c0,0.991-0.768,1.551-1.855,1.551h-0.888V851.351z M66.276,853.702c0.432,0,0.72-0.248,0.72-0.735v-0.017
		c0-0.487-0.288-0.695-0.72-0.695H66.26v1.447H66.276z M66.284,856.044c0.447,0,0.768-0.264,0.768-0.728v-0.04
		c0-0.464-0.32-0.728-0.768-0.728H66.26v1.495H66.284z M68.452,851.351h0.976v5.597h-0.976V851.351z M70.021,851.351h0.911
		l0.983,2.83v-2.83h0.952v5.597h-0.863l-1.032-2.967v2.967h-0.951V851.351z M73.349,854.246v-0.192c0-1.807,0.768-2.742,1.871-2.742
		c0.296,0,0.544,0.063,0.743,0.16v1.015c-0.239-0.144-0.455-0.239-0.711-0.239c-0.561,0-0.912,0.56-0.912,1.767v0.272
		c0,1.463,0.432,1.799,0.832,1.799c0.031,0,0.04,0,0.088-0.008v-1.432h-0.48v-0.871h1.368v2.974c-0.353,0.152-0.64,0.24-1.016,0.24
		C74.156,856.988,73.349,856.196,73.349,854.246z M59.757,859.351h1l0.408,3.43l0.488-3.43h0.903l0.48,3.43l0.416-3.43h0.976
		l-0.848,5.612h-1.023l-0.464-3.317l-0.463,3.317h-1.023L59.757,859.351z M65.46,859.334h1.04l1.063,5.613h-0.976l-0.185-1.111
		h-0.887l-0.177,1.111h-0.943L65.46,859.334z M66.26,862.957l-0.296-1.847l-0.304,1.847H66.26z M67.86,859.351h0.976v4.669h1.031
		v0.928H67.86V859.351z M70.261,859.351h0.976v4.669h1.031v0.928h-2.007V859.351z"/>
	<path class="st4" d="M54.56,676.786c-2.217,0-4.021,1.804-4.021,4.021s1.804,4.021,4.021,4.021s4.021-1.804,4.021-4.021
		S56.778,676.786,54.56,676.786z M53.247,677.259c0.143,0.054,0.3,0.1,0.474,0.139c0.271-0.067,0.549-0.112,0.84-0.112
		c0.31,0,0.604,0.053,0.891,0.128c0.002,0,0.003,0.001,0.005,0.001c-0.226,0.045-0.487,0.075-0.823,0.075c-0.002,0-0.003,0-0.005,0
		c-0.002,0-0.004,0-0.006,0c-0.376,0-0.661-0.037-0.905-0.091c-0.174-0.039-0.331-0.085-0.474-0.139
		C53.244,677.261,53.245,677.26,53.247,677.259z M51.763,678.285c0.106,0.014,0.2,0.032,0.293,0.051
		c0.232-0.235,0.504-0.426,0.794-0.589c-0.045-0.018-0.093-0.036-0.137-0.055c-0.06-0.025-0.121-0.049-0.181-0.072
		c0.005-0.003,0.008-0.007,0.013-0.009c0.068,0.027,0.137,0.054,0.205,0.082c0.038,0.016,0.078,0.031,0.116,0.046
		c0.434,0.179,0.912,0.349,1.784,0.351c0.803-0.003,1.271-0.147,1.68-0.31c0.005,0.003,0.01,0.005,0.016,0.008
		c0.281,0.167,0.539,0.366,0.763,0.602c0.001,0.001,0.001,0.002,0.002,0.003c-0.277,0.071-0.523,0.155-0.743,0.247
		c-0.435,0.181-0.846,0.352-1.687,0.352c-0.002,0-0.004,0-0.006,0s-0.004,0-0.006,0c-0.841,0-1.252-0.171-1.687-0.352
		c-0.271-0.113-0.555-0.225-0.927-0.302c-0.093-0.019-0.188-0.037-0.293-0.051C51.762,678.287,51.763,678.286,51.763,678.285z
		 M51.08,679.744c0.052,0,0.089,0.006,0.138,0.008c0.098-0.308,0.225-0.602,0.398-0.867c-0.089-0.01-0.174-0.022-0.275-0.027
		c0,0,0,0,0,0c0.101,0.005,0.185,0.017,0.275,0.027c0.491,0.056,0.825,0.176,1.149,0.311c0.47,0.196,0.956,0.398,1.916,0.399
		c0.96,0,1.446-0.203,1.917-0.399c0.274-0.114,0.548-0.22,0.918-0.286c0,0,0,0,0,0c0.17,0.264,0.295,0.554,0.39,0.86c0,0,0,0,0,0
		c-0.701,0.048-1.137,0.207-1.535,0.373c-0.435,0.181-0.846,0.352-1.687,0.352c0,0,0,0,0,0s0,0,0,0
		c-0.841,0-1.252-0.171-1.687-0.352c-0.445-0.185-0.918-0.371-1.779-0.391C51.169,679.75,51.132,679.744,51.08,679.744
		C51.08,679.744,51.08,679.744,51.08,679.744z M56.398,683.797c-0.537,0.331-1.162,0.531-1.837,0.531
		c-0.824,0-1.572-0.296-2.172-0.772c-0.147-0.05-0.308-0.093-0.487-0.128c-0.004-0.004-0.008-0.007-0.012-0.01
		c0.178,0.032,0.333,0.074,0.479,0.121c0.152,0.049,0.293,0.104,0.433,0.162c0.468,0.195,0.953,0.396,1.904,0.398
		c0.866-0.002,1.343-0.169,1.775-0.346C56.452,683.77,56.424,683.781,56.398,683.797z M57.899,681.874
		c-0.109,0.341-0.258,0.662-0.459,0.949c0,0,0,0,0,0.001c-0.439,0.075-0.761,0.198-1.063,0.323
		c-0.435,0.181-0.846,0.352-1.687,0.352c-0.001,0-0.001,0-0.002,0s-0.001,0-0.002,0c-0.841,0-1.252-0.171-1.687-0.352
		c-0.359-0.15-0.755-0.292-1.341-0.354c-0.097-0.01-0.188-0.024-0.297-0.029c0,0,0,0,0,0c0.109,0.005,0.199,0.019,0.297,0.029
		c-0.195-0.284-0.335-0.603-0.44-0.938c-0.049-0.001-0.085-0.007-0.137-0.007c0,0,0,0,0,0c0.052,0,0.088,0.006,0.137,0.007
		c0.742,0.019,1.142,0.175,1.55,0.345c0.47,0.196,0.957,0.399,1.918,0.399c0.961,0,1.448-0.203,1.918-0.399
		C56.959,682.051,57.323,681.919,57.899,681.874L57.899,681.874z M58.082,680.807c0,0.155-0.026,0.303-0.046,0.453v0
		c-0.785,0.034-1.24,0.208-1.664,0.385c-0.435,0.181-0.846,0.352-1.687,0.352c0,0,0,0,0,0s0,0,0,0c-0.841,0-1.252-0.171-1.687-0.352
		c-0.47-0.196-0.956-0.398-1.913-0.398c-0.002,0-0.003,0-0.004,0c-0.092,0-0.16,0.01-0.244,0.013v0
		c0.083-0.004,0.152-0.013,0.243-0.013c0,0,0,0,0,0s0,0,0,0c0.002,0,0.003,0,0.004,0c-0.018-0.146-0.044-0.289-0.044-0.44
		c0-0.158,0.026-0.309,0.047-0.462c-0.002,0-0.004,0-0.006,0c0,0,0,0,0,0c0.002,0,0.004,0,0.006,0
		c0.837,0.001,1.247,0.171,1.681,0.352c0.47,0.196,0.957,0.399,1.918,0.399c0.961,0,1.448-0.203,1.918-0.399
		c0.385-0.161,0.77-0.306,1.433-0.339c0.084-0.004,0.156-0.013,0.25-0.013v0c-0.094,0-0.166,0.009-0.25,0.013
		C58.056,680.507,58.082,680.653,58.082,680.807z"/>
	<path class="st4" d="M60.311,643.577v21.375h10.562v-21.375H60.311z M60.811,664.452v-0.674c0.309-0.102,0.672-0.177,1.223-0.177
		c0.841,0,1.252,0.171,1.687,0.352c0.47,0.196,0.957,0.399,1.918,0.399s1.448-0.203,1.918-0.399
		c0.435-0.181,0.846-0.352,1.687-0.352c0.495,0,0.84,0.06,1.129,0.146v0.705H60.811z M69.244,663c-0.961,0-1.448,0.203-1.918,0.399
		c-0.435,0.181-0.846,0.352-1.687,0.352s-1.252-0.171-1.687-0.352c-0.47-0.196-0.957-0.399-1.918-0.399
		c-0.528,0-0.907,0.063-1.223,0.151v-0.876c0.309-0.102,0.672-0.177,1.223-0.177c0.841,0,1.252,0.171,1.687,0.352
		c0.47,0.196,0.957,0.399,1.918,0.399s1.448-0.203,1.918-0.399c0.435-0.181,0.846-0.352,1.687-0.352c0.495,0,0.84,0.06,1.129,0.146
		v0.883C70.076,663.052,69.722,663,69.244,663z M69.244,661.497c-0.961,0-1.448,0.203-1.918,0.399
		c-0.435,0.181-0.846,0.352-1.687,0.352s-1.252-0.171-1.687-0.352c-0.47-0.196-0.957-0.399-1.918-0.399
		c-0.528,0-0.907,0.063-1.223,0.151v-0.876c0.309-0.102,0.672-0.177,1.223-0.177c0.841,0,1.252,0.171,1.687,0.352
		c0.47,0.196,0.957,0.399,1.918,0.399s1.448-0.203,1.918-0.399c0.435-0.181,0.846-0.352,1.687-0.352c0.495,0,0.84,0.06,1.129,0.146
		v0.883C70.076,661.55,69.722,661.497,69.244,661.497z M69.244,659.995c-0.961,0-1.448,0.203-1.918,0.399
		c-0.435,0.181-0.846,0.352-1.687,0.352s-1.252-0.171-1.687-0.352c-0.47-0.196-0.957-0.399-1.918-0.399
		c-0.528,0-0.907,0.063-1.223,0.151v-0.876c0.309-0.102,0.672-0.177,1.223-0.177c0.841,0,1.252,0.171,1.687,0.352
		c0.47,0.196,0.957,0.399,1.918,0.399s1.448-0.203,1.918-0.399c0.435-0.181,0.846-0.352,1.687-0.352c0.495,0,0.84,0.06,1.129,0.146
		v0.883C70.076,660.048,69.722,659.995,69.244,659.995z M69.244,658.493c-0.961,0-1.448,0.203-1.918,0.399
		c-0.435,0.181-0.846,0.352-1.687,0.352s-1.252-0.171-1.687-0.352c-0.47-0.196-0.957-0.399-1.918-0.399
		c-0.528,0-0.907,0.063-1.223,0.151v-0.876c0.309-0.102,0.672-0.177,1.223-0.177c0.841,0,1.252,0.171,1.687,0.352
		c0.47,0.196,0.957,0.399,1.918,0.399s1.448-0.203,1.918-0.399c0.435-0.181,0.846-0.352,1.687-0.352c0.495,0,0.84,0.06,1.129,0.146
		v0.883C70.076,658.545,69.722,658.493,69.244,658.493z M69.244,656.991c-0.961,0-1.448,0.203-1.918,0.399
		c-0.435,0.181-0.846,0.352-1.687,0.352s-1.252-0.171-1.687-0.352c-0.47-0.196-0.957-0.399-1.918-0.399
		c-0.528,0-0.907,0.063-1.223,0.151v-0.876c0.309-0.102,0.672-0.177,1.223-0.177c0.841,0,1.252,0.171,1.687,0.352
		c0.47,0.196,0.957,0.399,1.918,0.399s1.448-0.203,1.918-0.399c0.435-0.181,0.846-0.352,1.687-0.352c0.495,0,0.84,0.06,1.129,0.146
		v0.883C70.076,657.043,69.722,656.991,69.244,656.991z M69.244,655.488c-0.961,0-1.448,0.203-1.918,0.399
		c-0.435,0.181-0.846,0.352-1.687,0.352s-1.252-0.171-1.687-0.352c-0.47-0.196-0.957-0.399-1.918-0.399
		c-0.528,0-0.907,0.063-1.223,0.151v-0.876c0.309-0.102,0.672-0.177,1.223-0.177c0.841,0,1.252,0.171,1.687,0.352
		c0.47,0.196,0.957,0.399,1.918,0.399s1.448-0.203,1.918-0.399c0.435-0.181,0.846-0.352,1.687-0.352c0.495,0,0.84,0.06,1.129,0.146
		v0.883C70.076,655.541,69.722,655.488,69.244,655.488z M69.244,653.986c-0.961,0-1.448,0.203-1.918,0.399
		c-0.435,0.181-0.846,0.352-1.687,0.352s-1.252-0.171-1.687-0.352c-0.47-0.196-0.957-0.399-1.918-0.399
		c-0.528,0-0.907,0.063-1.223,0.151v-0.876c0.309-0.102,0.672-0.177,1.223-0.177c0.841,0,1.252,0.171,1.687,0.352
		c0.47,0.196,0.957,0.399,1.918,0.399s1.448-0.203,1.918-0.399c0.435-0.181,0.846-0.352,1.687-0.352c0.495,0,0.84,0.06,1.129,0.146
		v0.883C70.076,654.039,69.722,653.986,69.244,653.986z M69.244,652.484c-0.961,0-1.448,0.203-1.918,0.399
		c-0.435,0.181-0.846,0.352-1.687,0.352s-1.252-0.171-1.687-0.352c-0.47-0.196-0.957-0.399-1.918-0.399
		c-0.528,0-0.907,0.063-1.223,0.151v-0.876c0.309-0.102,0.672-0.177,1.223-0.177c0.841,0,1.252,0.171,1.687,0.352
		c0.47,0.196,0.957,0.399,1.918,0.399s1.448-0.203,1.918-0.399c0.435-0.181,0.846-0.352,1.687-0.352c0.495,0,0.84,0.06,1.129,0.146
		v0.883C70.076,652.536,69.722,652.484,69.244,652.484z M69.244,650.982c-0.961,0-1.448,0.203-1.918,0.399
		c-0.435,0.181-0.846,0.352-1.687,0.352s-1.252-0.171-1.687-0.352c-0.47-0.196-0.957-0.399-1.918-0.399
		c-0.528,0-0.907,0.063-1.223,0.151v-0.876c0.309-0.102,0.672-0.177,1.223-0.177c0.841,0,1.252,0.171,1.687,0.352
		c0.47,0.196,0.957,0.399,1.918,0.399s1.448-0.203,1.918-0.399c0.435-0.181,0.846-0.352,1.687-0.352c0.495,0,0.84,0.06,1.129,0.146
		v0.883C70.076,651.034,69.722,650.982,69.244,650.982z M69.244,649.48c-0.961,0-1.448,0.203-1.918,0.399
		c-0.435,0.181-0.846,0.352-1.687,0.352s-1.252-0.171-1.687-0.352c-0.47-0.196-0.957-0.399-1.918-0.399
		c-0.528,0-0.907,0.063-1.223,0.151v-0.876c0.309-0.102,0.672-0.177,1.223-0.177c0.841,0,1.252,0.171,1.687,0.352
		c0.47,0.196,0.957,0.399,1.918,0.399s1.448-0.203,1.918-0.399c0.435-0.181,0.846-0.352,1.687-0.352c0.495,0,0.84,0.06,1.129,0.146
		v0.883C70.076,649.532,69.722,649.48,69.244,649.48z M69.244,647.977c-0.961,0-1.448,0.203-1.918,0.399
		c-0.435,0.181-0.846,0.352-1.687,0.352s-1.252-0.171-1.687-0.352c-0.47-0.196-0.957-0.399-1.918-0.399
		c-0.528,0-0.907,0.063-1.223,0.151v-0.876c0.309-0.102,0.672-0.177,1.223-0.177c0.841,0,1.252,0.171,1.687,0.352
		c0.47,0.196,0.957,0.399,1.918,0.399s1.448-0.203,1.918-0.399c0.435-0.181,0.846-0.352,1.687-0.352c0.495,0,0.84,0.06,1.129,0.146
		v0.883C70.076,648.03,69.722,647.977,69.244,647.977z M69.244,646.475c-0.961,0-1.448,0.203-1.918,0.399
		c-0.435,0.181-0.846,0.352-1.687,0.352s-1.252-0.171-1.687-0.352c-0.47-0.196-0.957-0.399-1.918-0.399
		c-0.528,0-0.907,0.063-1.223,0.151v-0.876c0.309-0.102,0.672-0.177,1.223-0.177c0.841,0,1.252,0.171,1.687,0.352
		c0.47,0.196,0.957,0.399,1.918,0.399s1.448-0.203,1.918-0.399c0.435-0.181,0.846-0.352,1.687-0.352c0.495,0,0.84,0.06,1.129,0.146
		v0.883C70.076,646.528,69.722,646.475,69.244,646.475z M69.244,644.973c-0.961,0-1.448,0.203-1.918,0.399
		c-0.435,0.181-0.846,0.352-1.687,0.352s-1.252-0.171-1.687-0.352c-0.47-0.196-0.957-0.399-1.918-0.399
		c-0.528,0-0.907,0.063-1.223,0.151v-0.876c0.285-0.094,0.626-0.161,1.108-0.172h0.211c0.77,0.014,1.174,0.174,1.591,0.347
		c0.47,0.196,0.957,0.399,1.918,0.399s1.448-0.203,1.918-0.399c0.416-0.173,0.821-0.333,1.591-0.347h0.223
		c0.424,0.01,0.74,0.063,1.002,0.141v0.883C70.076,645.025,69.722,644.973,69.244,644.973z M64.524,644.077h2.229
		c-0.288,0.084-0.625,0.145-1.114,0.145S64.812,644.161,64.524,644.077z"/>
</g>
<g id="PEARL_DECK_14_ROOMS">
	<g id="gDeck14Haven3BedroomGardenVillaH1">
		<g id="hDeck14Haven3BedroomGardenVillaH1">
			<g id="g14500">
				<g id="h14500">
					<path id="b14500" class="st5" d="M41.546,560.376h-9.647l-0.012-20.97h9.66V560.376z M0.338,586.802h8.72v-16.96H0.292v35.881
						h8.766v-18.921H0.338z M41.546,539.4h-9.66v0.006h9.66V539.4z M44.64,539.406V539.4h-3.094v0.006H44.64z M31.903,568.192
						l-0.005-7.816h-5.054v9.467h4.725h-4.725v16.96h4.951h-4.951H9.058v18.921h27.781V586.8h-4.936V568.192z M26.845,586.802
						v-16.96H9.058v16.96H26.845z M51.351,483.65c-18.022,1.872-30.621,7.164-38.801,12.081l10.229,16.785L12.55,495.731
						c-8.535,5.131-12.258,9.854-12.258,9.854v64.257h8.766v-0.161v0.161h17.787v-9.467h5.054l-0.012-20.97H0.348h31.539V539.4h9.66
						h3.094v-11.277h-3.832v-3.373c0,0-0.198-1.31-1.27-1.191c-0.115,0-0.219,0.034-0.319,0.08l0.078,0.141l-0.078-0.141
						c-0.517,0.239-0.814,0.976-0.814,0.976h-4.569c0.059-0.586,0.227-1.135,0.448-1.656l-0.103-0.034l0.103,0.034
						c0.564-1.326,1.599-2.392,2.907-2.989l-0.034-0.061l0.034,0.061c0.728-0.332,1.528-0.534,2.38-0.534
						c1.854,0,3.508,0.873,4.502,2.235c0.298,0.315,0.47,0.891,0.567,1.381v-10.471H0.461H44.64v10.471
						c0.094,0.472,0.119,0.864,0.119,0.864l-0.021,4.207H44.64V539.4h6.771l-0.003-0.236v-18.116l13-0.098v-37.002v37.002l0.044,0
						l0.143-37.5L51.351,483.65z M51.408,539.164l0.003,0.236h0.135v-18.25h12.863v-0.201l-13,0.098V539.164z M44.64,539.406h-3.094
						v20.97h-9.647l0.005,7.816V586.8h4.936v-0.198l-0.003-26.15h14.84L51.411,539.4H44.64V539.406z M44.759,523.916
						c0,0-0.025-0.393-0.119-0.864v5.071h0.098L44.759,523.916z M37.191,519.969l2.028,3.669c-0.517,0.239-0.814,0.976-0.814,0.976
						h-4.569c0.059-0.586,0.227-1.135,0.448-1.656l4.183,1.394l-4.183-1.394C34.847,521.631,35.883,520.566,37.191,519.969z
						 M35.609,521.137l3.135,2.778L35.609,521.137z M44.64,523.051v5.071h-3.832v-3.373c0,0-0.198-1.31-1.27-1.191
						c-0.115,0-0.219,0.034-0.319,0.08l-2.028-3.669c0.728-0.332,1.528-0.534,2.38-0.534c1.854,0,3.508,0.873,4.502,2.235
						C44.371,521.985,44.543,522.561,44.64,523.051z M39.34,519.669l0.397,3.85L39.34,519.669z M40.054,523.519l1.389-3.532
						L40.054,523.519z M40.531,523.836l2.699-2.778L40.531,523.836z M44.222,522.448l-3.413,1.627L44.222,522.448z M44.468,524.615
						h-3.651H44.468z M40.816,526.917h3.651H40.816z M40.816,525.686h3.651H40.816z"/>
					<path id="t14500GardenVillaHotTub" class="st3" d="M11.876,518.356v-0.192c0-1.807,0.768-2.742,1.871-2.742
						c0.295,0,0.543,0.063,0.743,0.16v1.015c-0.24-0.144-0.456-0.239-0.711-0.239c-0.56,0-0.912,0.56-0.912,1.767v0.272
						c0,1.463,0.432,1.799,0.832,1.799c0.032,0,0.04,0,0.088-0.008v-1.432h-0.479v-0.871h1.367v2.974
						c-0.352,0.152-0.64,0.24-1.016,0.24C12.684,521.098,11.876,520.306,11.876,518.356z M15.996,515.445h1.039l1.063,5.613h-0.976
						l-0.184-1.111h-0.888l-0.176,1.111h-0.943L15.996,515.445z M16.795,519.067L16.5,517.22l-0.304,1.847H16.795z M18.396,515.461
						h1.007c1,0,1.727,0.527,1.727,1.783v0.071c0,0.728-0.288,1.191-0.656,1.472l0.751,2.271h-1.039l-0.632-1.951h-0.184v1.951
						h-0.975V515.461z M19.42,518.228c0.423,0,0.735-0.248,0.735-0.904v-0.063c0-0.704-0.336-0.888-0.76-0.888h-0.024v1.855H19.42z
						 M21.58,515.461h0.912c1.248,0,1.959,0.903,1.959,2.702v0.192c0,1.799-0.711,2.702-1.959,2.702H21.58V515.461z M22.596,520.163
						c0.464,0,0.863-0.408,0.863-1.807v-0.192c0-1.399-0.399-1.807-0.863-1.807h-0.04v3.806H22.596z M24.932,515.461h2.143v0.928
						h-1.167v1.391h1.031v0.928h-1.031v1.423h1.191v0.928h-2.167V515.461z M27.572,515.461h0.911l0.983,2.83v-2.83h0.952v5.597
						h-0.863l-1.032-2.967v2.967h-0.951V515.461z M14.928,523.461h0.992l0.528,3.646l0.527-3.646h0.959l-1,5.612h-1.007
						L14.928,523.461z M18.248,523.461h0.976v5.597h-0.976V523.461z M19.816,523.461h0.976v4.669h1.032v0.928h-2.007V523.461z
						 M22.216,523.461h0.976v4.669h1.032v0.928h-2.007V523.461z M25.359,523.445h1.04l1.063,5.613h-0.976l-0.184-1.111h-0.888
						l-0.176,1.111h-0.943L25.359,523.445z M26.159,527.067l-0.296-1.847l-0.304,1.847H26.159z M11.728,531.461h0.976v2.318h0.848
						v-2.318h0.976v5.597h-0.976v-2.351h-0.848v2.351h-0.976V531.461z M15.008,534.404v-0.288c0-1.847,0.6-2.734,1.487-2.734
						c0.887,0,1.487,0.888,1.487,2.734v0.288c0,1.847-0.6,2.734-1.487,2.734C15.608,537.138,15.008,536.25,15.008,534.404z
						 M16.991,534.404v-0.288c0-1.439-0.2-1.839-0.496-1.839S16,532.676,16,534.116v0.288c0,1.438,0.2,1.839,0.496,1.839
						S16.991,535.842,16.991,534.404z M18.824,532.389h-0.688v-0.928h2.351v0.928h-0.688v4.669h-0.975V532.389z M22.688,532.389H22
						v-0.928h2.351v0.928h-0.688v4.669h-0.976V532.389z M24.744,535.427v-3.966h0.967v4.062c0,0.504,0.176,0.704,0.424,0.704
						c0.248,0,0.424-0.2,0.424-0.704v-4.062h0.967v3.966c0,1.175-0.591,1.703-1.391,1.703
						C25.336,537.13,24.744,536.602,24.744,535.427z M28.088,531.461h0.848c0.943,0,1.823,0.384,1.823,1.423v0.04
						c0,0.72-0.408,1.071-0.807,1.264c0.472,0.208,0.879,0.535,0.879,1.247v0.072c0,0.991-0.768,1.551-1.855,1.551h-0.888V531.461z
						 M29.08,533.812c0.432,0,0.719-0.248,0.719-0.735v-0.017c0-0.487-0.288-0.695-0.719-0.695h-0.016v1.447H29.08z M29.087,536.155
						c0.448,0,0.768-0.264,0.768-0.728v-0.04c0-0.464-0.32-0.728-0.768-0.728h-0.024v1.495H29.087z"/>
					<path id="p14500" class="st3" d="M7.836,522.453c-2.217,0-4.021,1.804-4.021,4.021s1.804,4.021,4.021,4.021
						s4.021-1.804,4.021-4.021S10.054,522.453,7.836,522.453z M6.523,522.926c0.143,0.054,0.3,0.1,0.474,0.139
						c0.271-0.067,0.549-0.112,0.84-0.112c0.31,0,0.604,0.053,0.891,0.128c0.002,0,0.003,0.001,0.005,0.001
						c-0.226,0.045-0.487,0.075-0.823,0.075c-0.002,0-0.003,0-0.005,0c-0.002,0-0.004,0-0.006,0c-0.376,0-0.661-0.037-0.905-0.091
						c-0.174-0.039-0.331-0.085-0.474-0.139C6.52,522.928,6.521,522.927,6.523,522.926z M5.039,523.952
						c0.106,0.014,0.2,0.032,0.293,0.051c0.232-0.235,0.504-0.426,0.794-0.589c-0.045-0.018-0.093-0.036-0.137-0.055
						c-0.06-0.025-0.121-0.049-0.181-0.072c0.005-0.003,0.008-0.007,0.013-0.009c0.068,0.027,0.137,0.054,0.205,0.082
						c0.038,0.016,0.078,0.031,0.116,0.046c0.434,0.179,0.912,0.349,1.784,0.351c0.803-0.003,1.271-0.147,1.68-0.31
						c0.005,0.003,0.01,0.005,0.016,0.008c0.281,0.167,0.539,0.366,0.763,0.602c0.001,0.001,0.001,0.002,0.002,0.003
						c-0.277,0.071-0.523,0.155-0.743,0.247c-0.435,0.181-0.846,0.352-1.687,0.352c-0.002,0-0.004,0-0.006,0s-0.004,0-0.006,0
						c-0.841,0-1.252-0.171-1.687-0.352c-0.271-0.113-0.555-0.225-0.927-0.302c-0.093-0.019-0.188-0.037-0.293-0.051
						C5.038,523.954,5.039,523.953,5.039,523.952z M4.356,525.411c0.052,0,0.089,0.006,0.138,0.008
						c0.098-0.308,0.225-0.602,0.398-0.867c-0.089-0.01-0.174-0.022-0.275-0.027c0,0,0,0,0,0c0.101,0.005,0.185,0.017,0.275,0.027
						c0.491,0.056,0.825,0.176,1.149,0.311c0.47,0.196,0.956,0.398,1.916,0.399c0.96,0,1.446-0.203,1.917-0.399
						c0.274-0.114,0.548-0.22,0.918-0.286c0,0,0,0,0,0c0.17,0.264,0.295,0.554,0.39,0.86c0,0,0,0,0,0
						c-0.701,0.048-1.137,0.207-1.535,0.373c-0.435,0.181-0.846,0.352-1.687,0.352c0,0,0,0,0,0s0,0,0,0
						c-0.841,0-1.252-0.171-1.687-0.352c-0.445-0.185-0.918-0.371-1.779-0.391C4.445,525.417,4.408,525.411,4.356,525.411
						C4.356,525.411,4.356,525.411,4.356,525.411z M9.674,529.464c-0.537,0.331-1.162,0.531-1.837,0.531
						c-0.824,0-1.572-0.296-2.172-0.772c-0.147-0.05-0.308-0.093-0.487-0.128c-0.004-0.004-0.008-0.007-0.012-0.01
						c0.178,0.032,0.333,0.074,0.479,0.121c0.152,0.049,0.293,0.104,0.433,0.162c0.468,0.195,0.953,0.396,1.904,0.398
						c0.866-0.002,1.343-0.169,1.775-0.346C9.728,529.437,9.7,529.448,9.674,529.464z M11.175,527.541
						c-0.109,0.341-0.258,0.662-0.459,0.949c0,0,0,0,0,0.001c-0.439,0.075-0.761,0.198-1.063,0.323
						c-0.435,0.181-0.846,0.352-1.687,0.352c-0.001,0-0.001,0-0.002,0s-0.001,0-0.002,0c-0.841,0-1.252-0.171-1.687-0.352
						c-0.359-0.15-0.755-0.292-1.341-0.354c-0.097-0.01-0.188-0.024-0.297-0.029c0,0,0,0,0,0c0.109,0.005,0.199,0.019,0.297,0.029
						c-0.195-0.284-0.335-0.603-0.44-0.938c-0.049-0.001-0.085-0.007-0.137-0.007c0,0,0,0,0,0c0.052,0,0.088,0.006,0.137,0.007
						c0.742,0.019,1.142,0.175,1.55,0.345c0.47,0.196,0.957,0.399,1.918,0.399c0.961,0,1.448-0.203,1.918-0.399
						C10.235,527.718,10.599,527.586,11.175,527.541L11.175,527.541z M11.358,526.474c0,0.155-0.026,0.303-0.046,0.453v0
						c-0.785,0.034-1.24,0.208-1.664,0.385c-0.435,0.181-0.846,0.352-1.687,0.352c0,0,0,0,0,0s0,0,0,0
						c-0.841,0-1.252-0.171-1.687-0.352c-0.47-0.196-0.956-0.398-1.913-0.398c-0.002,0-0.003,0-0.004,0
						c-0.092,0-0.16,0.01-0.244,0.013v0c0.083-0.004,0.152-0.013,0.243-0.013c0,0,0,0,0,0s0,0,0,0c0.002,0,0.003,0,0.004,0
						c-0.018-0.146-0.044-0.289-0.044-0.44c0-0.158,0.026-0.309,0.047-0.462c-0.002,0-0.004,0-0.006,0c0,0,0,0,0,0
						c0.002,0,0.004,0,0.006,0c0.837,0.001,1.247,0.171,1.681,0.352c0.47,0.196,0.957,0.399,1.918,0.399
						c0.961,0,1.448-0.203,1.918-0.399c0.385-0.161,0.77-0.306,1.433-0.339c0.084-0.004,0.156-0.013,0.25-0.013v0
						c-0.094,0-0.166,0.009-0.25,0.013C11.332,526.174,11.358,526.32,11.358,526.474z"/>
					<path id="t14500" class="st3" d="M37.594,497.454l0.28-0.472h0.91v4.142h-0.485v-3.67H37.594z M42.706,500.069v0.45h-0.463
						v0.604h-0.484v-0.604h-2.004l2.488-3.713v3.263H42.706z M41.758,498.361h-0.011l-1.142,1.708h1.153V498.361z M44.528,497.454
						l-0.253,0.852l0.286-0.016c0.787,0,1.304,0.687,1.304,1.449c0,0.874-0.668,1.473-1.503,1.473c-0.501,0-1.002-0.27-1.239-0.725
						l0.377-0.363c0.124,0.352,0.539,0.615,0.899,0.615c0.549,0,0.98-0.461,0.98-1.016c0-0.533-0.447-0.983-0.97-0.983
						c-0.286,0-0.582,0.137-0.759,0.368h-0.097l0.625-2.126h1.626v0.472H44.528z M46.301,499.052c0-0.851,0.366-2.158,1.417-2.158
						s1.417,1.308,1.417,2.158c0,0.847-0.372,2.159-1.417,2.159S46.301,499.899,46.301,499.052z M46.786,499.047
						c0,0.571,0.205,1.703,0.932,1.703c0.728,0,0.932-1.132,0.932-1.703s-0.205-1.714-0.932-1.714
						C46.99,497.333,46.786,498.476,46.786,499.047z M49.609,499.052c0-0.851,0.366-2.158,1.417-2.158s1.417,1.308,1.417,2.158
						c0,0.847-0.372,2.159-1.417,2.159S49.609,499.899,49.609,499.052z M50.094,499.047c0,0.571,0.205,1.703,0.932,1.703
						s0.932-1.132,0.932-1.703s-0.205-1.714-0.932-1.714S50.094,498.476,50.094,499.047z"/>
				</g>
			</g>
			<g id="g14000">
				<g id="h14000">
					<path id="b14000" class="st5" d="M86.517,539.406V539.4h12.845v0.006H86.517z M99.361,539.406H86.517V539.4h-6.682
						l-0.265,21.052h14.84l-0.003,26.15v0.2h4.954V539.406z M99.361,586.802h-4.954v18.921h27.691v-18.921H99.361z M118.631,495.692
						l-10.254,16.824L118.631,495.692c-8.182-4.906-20.76-10.175-38.734-12.042l-13.245-0.201l0,0.1l13.488,0.189l-13.488-0.189
						l0.141,37.4l13.045,0.099v18.116l-0.003,0.236h6.682v-11.277h-0.098l-0.021-4.207c0,0,0.025-0.392,0.118-0.863v-10.471h44.292
						H86.517v10.471c0.097-0.49,0.269-1.066,0.567-1.382c0.994-1.362,2.647-2.235,4.502-2.235c0.852,0,1.652,0.202,2.38,0.534
						L94,519.908l-0.034,0.061c1.308,0.597,2.344,1.662,2.907,2.989l0.104-0.035l-0.104,0.035c0.221,0.521,0.388,1.07,0.447,1.656
						h-4.568c0,0-0.298-0.737-0.815-0.976l-0.078,0.141l0.078-0.141c-0.099-0.046-0.203-0.08-0.318-0.08
						c-1.072-0.118-1.271,1.191-1.271,1.191v3.373h-3.832V539.4h12.845v0.006h31.447H99.361v47.396h22.737v-16.96H99.588h22.511
						v-0.161v0.161h8.796h-8.796v16.96h8.72h-8.72v18.921h8.857V505.585C130.955,505.585,127.212,500.838,118.631,495.692z
						 M86.398,523.916l0.021,4.207h0.098v-5.07C86.423,523.523,86.398,523.916,86.398,523.916z M90.349,528.122h-3.832v-5.07
						c0.097-0.49,0.269-1.066,0.567-1.382c0.994-1.362,2.647-2.235,4.502-2.235c0.852,0,1.652,0.202,2.38,0.534l-2.029,3.669
						c-0.099-0.046-0.203-0.08-0.318-0.08c-1.072-0.118-1.271,1.191-1.271,1.191V528.122z M91.816,519.669l-0.397,3.85
						L91.816,519.669z M91.102,523.519l-1.39-3.532L91.102,523.519z M90.626,523.836l-2.698-2.778L90.626,523.836z M86.69,526.917
						h3.65H86.69z M86.69,525.686h3.65H86.69z M86.69,524.615h3.65H86.69z M86.935,522.448l3.412,1.627L86.935,522.448z
						 M91.937,523.638l2.029-3.669c1.308,0.597,2.344,1.662,2.907,2.989l-4.183,1.394l4.183-1.394
						c0.221,0.521,0.388,1.07,0.447,1.656h-4.568C92.752,524.614,92.454,523.877,91.937,523.638z M95.547,521.137l-3.135,2.778
						L95.547,521.137z"/>
					<path id="t1400GardenVillaHotTub" class="st3" d="M99.342,518.356v-0.192c0-1.807,0.768-2.742,1.871-2.742
						c0.296,0,0.544,0.063,0.744,0.16v1.015c-0.24-0.144-0.456-0.239-0.712-0.239c-0.56,0-0.911,0.56-0.911,1.767v0.272
						c0,1.463,0.432,1.799,0.831,1.799c0.032,0,0.04,0,0.088-0.008v-1.432h-0.479v-0.871h1.367v2.974
						c-0.352,0.152-0.64,0.24-1.016,0.24C100.149,521.098,99.342,520.306,99.342,518.356z M103.462,515.445h1.039l1.063,5.613
						h-0.976l-0.184-1.111h-0.888l-0.176,1.111h-0.943L103.462,515.445z M104.262,519.067l-0.296-1.847l-0.305,1.847H104.262z
						 M105.862,515.461h1.007c1,0,1.728,0.527,1.728,1.783v0.071c0,0.728-0.288,1.191-0.655,1.472l0.751,2.271h-1.039l-0.632-1.951
						h-0.184v1.951h-0.976V515.461z M106.886,518.228c0.424,0,0.735-0.248,0.735-0.904v-0.063c0-0.704-0.336-0.888-0.76-0.888
						h-0.023v1.855H106.886z M109.046,515.461h0.912c1.247,0,1.958,0.903,1.958,2.702v0.192c0,1.799-0.711,2.702-1.958,2.702h-0.912
						V515.461z M110.062,520.163c0.464,0,0.863-0.408,0.863-1.807v-0.192c0-1.399-0.399-1.807-0.863-1.807h-0.04v3.806H110.062z
						 M112.398,515.461h2.143v0.928h-1.168v1.391h1.032v0.928h-1.032v1.423h1.191v0.928h-2.166V515.461z M115.038,515.461h0.911
						l0.983,2.83v-2.83h0.952v5.597h-0.864l-1.031-2.967v2.967h-0.951V515.461z M102.395,523.461h0.991l0.527,3.646l0.528-3.646
						h0.959l-0.999,5.612h-1.008L102.395,523.461z M105.714,523.461h0.976v5.597h-0.976V523.461z M107.282,523.461h0.976v4.669
						h1.031v0.928h-2.007V523.461z M109.682,523.461h0.976v4.669h1.031v0.928h-2.007V523.461z M112.825,523.445h1.04l1.063,5.613
						h-0.976l-0.185-1.111h-0.887l-0.177,1.111h-0.943L112.825,523.445z M113.625,527.067l-0.296-1.847l-0.304,1.847H113.625z
						 M99.194,531.461h0.976v2.318h0.847v-2.318h0.976v5.597h-0.976v-2.351h-0.847v2.351h-0.976V531.461z M102.474,534.404v-0.288
						c0-1.847,0.601-2.734,1.487-2.734c0.888,0,1.487,0.888,1.487,2.734v0.288c0,1.847-0.6,2.734-1.487,2.734
						C103.074,537.138,102.474,536.25,102.474,534.404z M104.457,534.404v-0.288c0-1.439-0.2-1.839-0.496-1.839
						s-0.495,0.399-0.495,1.839v0.288c0,1.438,0.199,1.839,0.495,1.839S104.457,535.842,104.457,534.404z M106.29,532.389h-0.688
						v-0.928h2.351v0.928h-0.688v4.669h-0.976V532.389z M110.153,532.389h-0.688v-0.928h2.351v0.928h-0.688v4.669h-0.976V532.389z
						 M112.21,535.427v-3.966h0.968v4.062c0,0.504,0.176,0.704,0.424,0.704c0.247,0,0.424-0.2,0.424-0.704v-4.062h0.967v3.966
						c0,1.175-0.592,1.703-1.391,1.703C112.802,537.13,112.21,536.602,112.21,535.427z M115.554,531.461h0.848
						c0.943,0,1.823,0.384,1.823,1.423v0.04c0,0.72-0.408,1.071-0.808,1.264c0.472,0.208,0.879,0.535,0.879,1.247v0.072
						c0,0.991-0.768,1.551-1.854,1.551h-0.888V531.461z M116.545,533.812c0.432,0,0.72-0.248,0.72-0.735v-0.017
						c0-0.487-0.288-0.695-0.72-0.695h-0.016v1.447H116.545z M116.554,536.155c0.447,0,0.768-0.264,0.768-0.728v-0.04
						c0-0.464-0.32-0.728-0.768-0.728h-0.024v1.495H116.554z"/>
					<path id="p14000" class="st3" d="M123.727,522.453c-2.217,0-4.021,1.804-4.021,4.021s1.804,4.021,4.021,4.021
						s4.021-1.804,4.021-4.021S125.945,522.453,123.727,522.453z M122.414,522.926c0.143,0.054,0.3,0.1,0.474,0.139
						c0.271-0.067,0.549-0.112,0.84-0.112c0.31,0,0.604,0.053,0.891,0.128c0.002,0,0.003,0.001,0.005,0.001
						c-0.226,0.045-0.487,0.075-0.823,0.075c-0.002,0-0.003,0-0.005,0c-0.002,0-0.004,0-0.006,0c-0.376,0-0.661-0.037-0.905-0.091
						c-0.174-0.039-0.331-0.085-0.474-0.139C122.411,522.928,122.412,522.927,122.414,522.926z M120.93,523.952
						c0.106,0.014,0.2,0.032,0.293,0.051c0.232-0.235,0.504-0.426,0.794-0.589c-0.045-0.018-0.093-0.036-0.137-0.055
						c-0.06-0.025-0.121-0.049-0.181-0.072c0.005-0.003,0.008-0.007,0.013-0.009c0.068,0.027,0.137,0.054,0.205,0.082
						c0.038,0.016,0.078,0.031,0.116,0.046c0.434,0.179,0.912,0.349,1.784,0.351c0.803-0.003,1.271-0.147,1.68-0.31
						c0.005,0.003,0.01,0.005,0.016,0.008c0.281,0.167,0.539,0.366,0.763,0.602c0.001,0.001,0.001,0.002,0.002,0.003
						c-0.277,0.071-0.523,0.155-0.743,0.247c-0.435,0.181-0.846,0.352-1.687,0.352c-0.002,0-0.004,0-0.006,0s-0.004,0-0.006,0
						c-0.841,0-1.252-0.171-1.687-0.352c-0.271-0.113-0.555-0.225-0.927-0.302c-0.093-0.019-0.188-0.037-0.293-0.051
						C120.929,523.954,120.93,523.953,120.93,523.952z M120.247,525.411c0.052,0,0.089,0.006,0.138,0.008
						c0.098-0.308,0.225-0.602,0.398-0.867c-0.089-0.01-0.174-0.022-0.275-0.027c0,0,0,0,0,0c0.101,0.005,0.185,0.017,0.275,0.027
						c0.491,0.056,0.825,0.176,1.149,0.311c0.47,0.196,0.956,0.398,1.916,0.399c0.96,0,1.446-0.203,1.917-0.399
						c0.274-0.114,0.548-0.22,0.918-0.286c0,0,0,0,0,0c0.17,0.264,0.295,0.554,0.39,0.86c0,0,0,0,0,0
						c-0.701,0.048-1.137,0.207-1.535,0.373c-0.435,0.181-0.846,0.352-1.687,0.352c0,0,0,0,0,0s0,0,0,0
						c-0.841,0-1.252-0.171-1.687-0.352c-0.445-0.185-0.918-0.371-1.779-0.391C120.336,525.417,120.299,525.411,120.247,525.411
						C120.247,525.411,120.247,525.411,120.247,525.411z M125.565,529.464c-0.537,0.331-1.162,0.531-1.837,0.531
						c-0.824,0-1.572-0.296-2.172-0.772c-0.147-0.05-0.308-0.093-0.487-0.128c-0.004-0.004-0.008-0.007-0.012-0.01
						c0.178,0.032,0.333,0.074,0.479,0.121c0.152,0.049,0.293,0.104,0.433,0.162c0.468,0.195,0.953,0.396,1.904,0.398
						c0.866-0.002,1.343-0.169,1.775-0.346C125.619,529.437,125.591,529.448,125.565,529.464z M127.066,527.541
						c-0.109,0.341-0.258,0.662-0.459,0.949c0,0,0,0,0,0.001c-0.439,0.075-0.761,0.198-1.063,0.323
						c-0.435,0.181-0.846,0.352-1.687,0.352c-0.001,0-0.001,0-0.002,0s-0.001,0-0.002,0c-0.841,0-1.252-0.171-1.687-0.352
						c-0.359-0.15-0.755-0.292-1.341-0.354c-0.097-0.01-0.188-0.024-0.297-0.029c0,0,0,0,0,0c0.109,0.005,0.199,0.019,0.297,0.029
						c-0.195-0.284-0.335-0.603-0.44-0.938c-0.049-0.001-0.085-0.007-0.137-0.007c0,0,0,0,0,0c0.052,0,0.088,0.006,0.137,0.007
						c0.742,0.019,1.142,0.175,1.55,0.345c0.47,0.196,0.957,0.399,1.918,0.399c0.961,0,1.448-0.203,1.918-0.399
						C126.126,527.718,126.49,527.586,127.066,527.541L127.066,527.541z M127.249,526.474c0,0.155-0.026,0.303-0.046,0.453v0
						c-0.785,0.034-1.24,0.208-1.664,0.385c-0.435,0.181-0.846,0.352-1.687,0.352c0,0,0,0,0,0s0,0,0,0
						c-0.841,0-1.252-0.171-1.687-0.352c-0.47-0.196-0.956-0.398-1.913-0.398c-0.002,0-0.003,0-0.004,0
						c-0.092,0-0.16,0.01-0.244,0.013v0c0.083-0.004,0.152-0.013,0.243-0.013c0,0,0,0,0,0s0,0,0,0c0.002,0,0.003,0,0.004,0
						c-0.018-0.146-0.044-0.289-0.044-0.44c0-0.158,0.026-0.309,0.047-0.462c-0.002,0-0.004,0-0.006,0c0,0,0,0,0,0
						c0.002,0,0.004,0,0.006,0c0.837,0.001,1.247,0.171,1.681,0.352c0.47,0.196,0.957,0.399,1.918,0.399
						c0.961,0,1.448-0.203,1.918-0.399c0.385-0.161,0.77-0.306,1.433-0.339c0.084-0.004,0.156-0.013,0.25-0.013v0
						c-0.094,0-0.166,0.009-0.25,0.013C127.223,526.174,127.249,526.32,127.249,526.474z"/>
					<path id="t14000" class="st3" d="M78.929,497.454l0.28-0.472h0.91v4.142h-0.485v-3.67H78.929z M84.041,500.069v0.45h-0.463
						v0.604h-0.485v-0.604h-2.004l2.489-3.713v3.263H84.041z M83.093,498.361h-0.011l-1.142,1.708h1.152V498.361z M84.401,499.052
						c0-0.851,0.366-2.158,1.417-2.158c1.05,0,1.417,1.308,1.417,2.158c0,0.847-0.372,2.159-1.417,2.159
						S84.401,499.899,84.401,499.052z M84.887,499.047c0,0.571,0.204,1.703,0.932,1.703s0.932-1.132,0.932-1.703
						s-0.204-1.714-0.932-1.714S84.887,498.476,84.887,499.047z M87.71,499.052c0-0.851,0.366-2.158,1.417-2.158
						c1.05,0,1.416,1.308,1.416,2.158c0,0.847-0.371,2.159-1.416,2.159S87.71,499.899,87.71,499.052z M88.194,499.047
						c0,0.571,0.205,1.703,0.933,1.703c0.727,0,0.932-1.132,0.932-1.703s-0.205-1.714-0.932-1.714
						C88.399,497.333,88.194,498.476,88.194,499.047z M91.019,499.052c0-0.851,0.366-2.158,1.416-2.158
						c1.051,0,1.417,1.308,1.417,2.158c0,0.847-0.372,2.159-1.417,2.159S91.019,499.899,91.019,499.052z M91.503,499.047
						c0,0.571,0.205,1.703,0.932,1.703c0.728,0,0.933-1.132,0.933-1.703s-0.205-1.714-0.933-1.714
						C91.708,497.333,91.503,498.476,91.503,499.047z"/>
				</g>
			</g>
		</g>
	</g>
	<g id="gDeck14HavenCourtyardPenthouseBalconyH5">
		<g id="hDeck14HavenCourtyardPenthouseBalconyH5">
			<g id="g14514">
				<g id="h14514">
					<path id="b14514" class="st5" d="M30.631,698.382v23.681H0.425v-11.005h5.218v-12.676H30.631z M5.643,698.382H0.425v12.676
						h5.218V698.382z"/>
					<path id="t14514" class="st3" d="M9.557,708.157l0.28-0.472h0.91v4.142h-0.484v-3.67H9.557z M14.669,710.772v0.45h-0.463v0.604
						h-0.485v-0.604h-2.003l2.488-3.713v3.263H14.669z M13.721,709.064H13.71l-1.142,1.708h1.152V709.064z M16.491,708.157
						l-0.253,0.852l0.286-0.016c0.786,0,1.303,0.687,1.303,1.449c0,0.874-0.668,1.473-1.503,1.473c-0.5,0-1.001-0.27-1.239-0.725
						l0.377-0.363c0.124,0.352,0.539,0.615,0.9,0.615c0.549,0,0.98-0.461,0.98-1.016c0-0.533-0.447-0.983-0.969-0.983
						c-0.286,0-0.582,0.137-0.76,0.368h-0.097l0.625-2.126h1.627v0.472H16.491z M18.539,708.157l0.28-0.472h0.91v4.142h-0.485v-3.67
						H18.539z M23.651,710.772v0.45h-0.463v0.604h-0.485v-0.604H20.7l2.489-3.713v3.263H23.651z M22.704,709.064h-0.011
						l-1.142,1.708h1.153V709.064z"/>
				</g>
			</g>
			<g id="g14014">
				<g id="h14014">
					<path id="b14014" class="st5" d="M125.527,711.058h5.218v11.005h-30.207v-23.681h24.988V711.058z M125.527,698.382v12.676
						h5.218v-12.676H125.527z"/>
					<path id="t14014" class="st3" d="M108.207,708.157l0.28-0.472h0.91v4.142h-0.484v-3.67H108.207z M113.319,710.772v0.45h-0.463
						v0.604h-0.484v-0.604h-2.004l2.488-3.713v3.263H113.319z M112.372,709.064h-0.011l-1.143,1.708h1.153V709.064z
						 M113.681,709.755c0-0.851,0.366-2.158,1.416-2.158c1.051,0,1.417,1.308,1.417,2.158c0,0.847-0.372,2.159-1.417,2.159
						S113.681,710.602,113.681,709.755z M114.165,709.75c0,0.571,0.205,1.703,0.932,1.703c0.728,0,0.933-1.132,0.933-1.703
						s-0.205-1.714-0.933-1.714C114.37,708.037,114.165,709.179,114.165,709.75z M117.039,708.157l0.28-0.472h0.91v4.142h-0.484
						v-3.67H117.039z M122.151,710.772v0.45h-0.463v0.604h-0.485v-0.604H119.2l2.488-3.713v3.263H122.151z M121.203,709.064h-0.011
						l-1.142,1.708h1.152V709.064z"/>
				</g>
			</g>
		</g>
	</g>
	<g id="gDeck14Haven2BedroomFamilyVillaBalconyH4">
		<g id="hDeck14Haven2BedroomFamilyVillaBalconyH4">
			<g id="g14006">
				<g id="h14006">
					<path id="b14006" class="st5" d="M130.745,605.815v11.634h-8.632v11.487H89.206v-23.121H130.745z M122.114,628.936h8.632
						v-11.487h-8.632V628.936z"/>
					<path id="t14006" class="st3" d="M100.174,616.174l0.28-0.472h0.91v4.142h-0.484v-3.67H100.174z M105.286,618.79v0.45h-0.463
						v0.604h-0.484v-0.604h-2.004l2.488-3.713v3.263H105.286z M104.339,617.082h-0.011l-1.143,1.708h1.153V617.082z
						 M105.647,617.773c0-0.851,0.366-2.158,1.417-2.158c1.05,0,1.416,1.308,1.416,2.158c0,0.847-0.371,2.159-1.416,2.159
						S105.647,618.62,105.647,617.773z M106.132,617.768c0,0.571,0.205,1.703,0.933,1.703c0.727,0,0.932-1.132,0.932-1.703
						s-0.205-1.714-0.932-1.714C106.337,616.054,106.132,617.197,106.132,617.768z M108.956,617.773
						c0-0.851,0.366-2.158,1.416-2.158c1.051,0,1.417,1.308,1.417,2.158c0,0.847-0.372,2.159-1.417,2.159
						S108.956,618.62,108.956,617.773z M109.44,617.768c0,0.571,0.205,1.703,0.932,1.703c0.728,0,0.932-1.132,0.932-1.703
						s-0.204-1.714-0.932-1.714C109.646,616.054,109.44,617.197,109.44,617.768z M114.411,615.868l-1.082,1.494l0.011,0.011
						c0.118-0.061,0.253-0.099,0.398-0.099c0.668,0,1.174,0.631,1.174,1.296c0,0.758-0.603,1.362-1.341,1.362
						c-0.7,0-1.352-0.594-1.352-1.324c0-0.417,0.204-0.769,0.441-1.093l1.384-1.9L114.411,615.868z M114.428,618.625
						c0-0.517-0.431-0.89-0.862-0.89c-0.441,0-0.861,0.412-0.861,0.862c0,0.478,0.398,0.874,0.861,0.874
						C114.019,619.471,114.428,619.086,114.428,618.625z"/>
				</g>
			</g>
			<g id="g14008">
				<g id="h14008">
					<path id="b14008" class="st5" d="M130.745,628.936v11.634h-8.632v11.487H89.206v-23.121H130.745z M122.114,652.056h8.632
						V640.57h-8.632V652.056z"/>
					<path id="t14008" class="st3" d="M100.158,639.481l0.28-0.473h0.91v4.142h-0.484v-3.669H100.158z M105.271,642.095v0.45h-0.463
						v0.604h-0.484v-0.604h-2.004l2.488-3.713v3.263H105.271z M104.323,640.387h-0.011l-1.143,1.708h1.153V640.387z
						 M105.632,641.079c0-0.852,0.366-2.158,1.417-2.158c1.05,0,1.416,1.307,1.416,2.158c0,0.847-0.371,2.159-1.416,2.159
						S105.632,641.925,105.632,641.079z M106.116,641.074c0,0.571,0.205,1.702,0.933,1.702c0.727,0,0.932-1.131,0.932-1.702
						s-0.205-1.714-0.932-1.714C106.321,639.36,106.116,640.502,106.116,641.074z M108.94,641.079c0-0.852,0.366-2.158,1.416-2.158
						c1.051,0,1.417,1.307,1.417,2.158c0,0.847-0.372,2.159-1.417,2.159S108.94,641.925,108.94,641.079z M109.425,641.074
						c0,0.571,0.205,1.702,0.932,1.702c0.728,0,0.932-1.131,0.932-1.702s-0.204-1.714-0.932-1.714
						C109.63,639.36,109.425,640.502,109.425,641.074z M112.946,641.002c-0.334-0.192-0.533-0.522-0.533-0.929
						c0-0.676,0.517-1.153,1.163-1.153s1.163,0.478,1.163,1.153c0,0.406-0.199,0.736-0.533,0.929
						c0.42,0.148,0.642,0.549,0.642,0.994c0,0.769-0.582,1.241-1.271,1.241s-1.271-0.473-1.271-1.241
						C112.305,641.551,112.525,641.151,112.946,641.002z M112.79,641.997c0,0.417,0.388,0.779,0.786,0.779s0.786-0.362,0.786-0.779
						c0-0.439-0.377-0.78-0.786-0.78S112.79,641.557,112.79,641.997z M112.887,640.074c0,0.329,0.35,0.703,0.689,0.703
						c0.339,0,0.689-0.374,0.689-0.703c0-0.396-0.323-0.714-0.689-0.714S112.887,639.678,112.887,640.074z"/>
				</g>
			</g>
			<g id="g14010">
				<g id="h14010">
					<path id="b14010" class="st5" d="M130.745,652.056v11.634h-8.632v11.487H89.206v-23.121H130.745z M122.114,675.177h8.632
						V663.69h-8.632V675.177z"/>
					<path id="t14010" class="st3" d="M100.57,662.264l0.28-0.472h0.91v4.142h-0.484v-3.67H100.57z M105.683,664.879v0.45h-0.463
						v0.604h-0.484v-0.604h-2.004l2.488-3.713v3.263H105.683z M104.735,663.171h-0.011l-1.143,1.708h1.153V663.171z
						 M106.044,663.863c0-0.851,0.366-2.158,1.417-2.158c1.05,0,1.416,1.308,1.416,2.158c0,0.847-0.371,2.159-1.416,2.159
						S106.044,664.709,106.044,663.863z M106.528,663.858c0,0.571,0.205,1.703,0.933,1.703c0.727,0,0.932-1.132,0.932-1.703
						s-0.205-1.714-0.932-1.714C106.733,662.144,106.528,663.287,106.528,663.858z M109.402,662.264l0.28-0.472h0.91v4.142h-0.484
						v-3.67H109.402z M111.747,663.863c0-0.851,0.366-2.158,1.417-2.158s1.417,1.308,1.417,2.158c0,0.847-0.372,2.159-1.417,2.159
						S111.747,664.709,111.747,663.863z M112.232,663.858c0,0.571,0.204,1.703,0.932,1.703s0.932-1.132,0.932-1.703
						s-0.204-1.714-0.932-1.714S112.232,663.287,112.232,663.858z"/>
				</g>
			</g>
			<g id="g14012">
				<g id="h14012">
					<path id="b14012" class="st5" d="M130.745,675.262v11.634h-8.632v11.487H89.206v-23.121H130.745z M122.114,698.382h8.632
						v-11.487h-8.632V698.382z"/>
					<path id="t14012" class="st3" d="M100.658,685.856l0.279-0.473h0.91v4.142h-0.484v-3.669H100.658z M105.771,688.47v0.45h-0.464
						v0.604h-0.484v-0.604h-2.004l2.488-3.713v3.263H105.771z M104.822,686.762h-0.011l-1.143,1.708h1.153V686.762z
						 M106.131,687.454c0-0.852,0.366-2.158,1.417-2.158c1.05,0,1.416,1.307,1.416,2.158c0,0.847-0.371,2.159-1.416,2.159
						S106.131,688.3,106.131,687.454z M106.615,687.449c0,0.571,0.205,1.702,0.933,1.702c0.727,0,0.932-1.131,0.932-1.702
						s-0.205-1.714-0.932-1.714C106.82,685.735,106.615,686.877,106.615,687.449z M109.489,685.856l0.28-0.473h0.91v4.142h-0.484
						v-3.669H109.489z M114.386,689.052v0.473h-2.623l1.777-2.225c0.167-0.209,0.361-0.467,0.361-0.741
						c0-0.435-0.377-0.791-0.798-0.791c-0.414,0-0.754,0.34-0.78,0.758h-0.507c0.081-0.736,0.55-1.23,1.287-1.23
						c0.689,0,1.282,0.521,1.282,1.241c0,0.308-0.113,0.615-0.302,0.852l-1.336,1.664H114.386z"/>
				</g>
			</g>
			<g id="g14506">
				<g id="h14506">
					<path id="b14506" class="st5" d="M41.966,605.815v23.121H9.058v-11.487H0.426v-11.634H41.966z M0.426,617.449v11.487h8.632
						v-11.487H0.426z"/>
					<path id="t14506" class="st3" d="M15.675,616.174l0.28-0.472h0.91v4.142h-0.485v-3.67H15.675z M20.788,618.79v0.45h-0.463
						v0.604H19.84v-0.604h-2.004l2.488-3.713v3.263H20.788z M19.84,617.082h-0.011l-1.142,1.708h1.153V617.082z M22.609,616.174
						l-0.253,0.852l0.286-0.016c0.787,0,1.304,0.687,1.304,1.449c0,0.874-0.668,1.473-1.503,1.473c-0.501,0-1.002-0.27-1.239-0.725
						l0.377-0.363c0.124,0.352,0.539,0.615,0.899,0.615c0.549,0,0.98-0.461,0.98-1.016c0-0.533-0.447-0.983-0.97-0.983
						c-0.285,0-0.582,0.137-0.759,0.368h-0.097l0.625-2.126h1.626v0.472H22.609z M24.382,617.773c0-0.851,0.366-2.158,1.417-2.158
						c1.051,0,1.417,1.308,1.417,2.158c0,0.847-0.372,2.159-1.417,2.159S24.382,618.62,24.382,617.773z M24.867,617.768
						c0,0.571,0.205,1.703,0.932,1.703c0.728,0,0.932-1.132,0.932-1.703s-0.205-1.714-0.932-1.714
						C25.072,616.054,24.867,617.197,24.867,617.768z M29.838,615.868l-1.083,1.494l0.011,0.011
						c0.119-0.061,0.253-0.099,0.399-0.099c0.668,0,1.174,0.631,1.174,1.296c0,0.758-0.604,1.362-1.341,1.362
						c-0.7,0-1.352-0.594-1.352-1.324c0-0.417,0.205-0.769,0.441-1.093l1.384-1.9L29.838,615.868z M29.854,618.625
						c0-0.517-0.431-0.89-0.862-0.89c-0.442,0-0.862,0.412-0.862,0.862c0,0.478,0.398,0.874,0.862,0.874
						C29.445,619.471,29.854,619.086,29.854,618.625z"/>
				</g>
			</g>
			<g id="g14508">
				<g id="h14508">
					<path id="b14508" class="st5" d="M41.966,628.936v23.121H9.058V640.57H0.426v-11.634H41.966z M0.426,640.57v11.487h8.632
						V640.57H0.426z"/>
					<path id="t14508" class="st3" d="M15.66,639.766l0.28-0.473h0.91v4.142h-0.485v-3.669H15.66z M20.772,642.38v0.45h-0.463v0.604
						h-0.484v-0.604H17.82l2.488-3.713v3.263H20.772z M19.824,640.672h-0.011l-1.142,1.708h1.153V640.672z M22.594,639.766
						l-0.253,0.851l0.286-0.017c0.787,0,1.304,0.688,1.304,1.451c0,0.873-0.668,1.472-1.503,1.472c-0.501,0-1.002-0.27-1.239-0.726
						l0.377-0.362c0.124,0.352,0.539,0.615,0.899,0.615c0.549,0,0.98-0.461,0.98-1.016c0-0.533-0.447-0.983-0.97-0.983
						c-0.286,0-0.582,0.137-0.759,0.368h-0.097l0.625-2.126h1.626v0.473H22.594z M24.367,641.364c0-0.852,0.366-2.158,1.417-2.158
						c1.051,0,1.417,1.307,1.417,2.158c0,0.847-0.372,2.159-1.417,2.159S24.367,642.21,24.367,641.364z M24.852,641.359
						c0,0.571,0.205,1.702,0.932,1.702c0.728,0,0.932-1.131,0.932-1.702s-0.205-1.714-0.932-1.714
						C25.056,639.645,24.852,640.788,24.852,641.359z M28.373,641.288c-0.334-0.192-0.533-0.522-0.533-0.929
						c0-0.676,0.517-1.153,1.164-1.153c0.646,0,1.163,0.478,1.163,1.153c0,0.406-0.199,0.736-0.533,0.929
						c0.42,0.148,0.641,0.549,0.641,0.994c0,0.769-0.582,1.241-1.271,1.241s-1.271-0.473-1.271-1.241
						C27.731,641.836,27.953,641.436,28.373,641.288z M28.216,642.282c0,0.417,0.388,0.779,0.787,0.779
						c0.398,0,0.786-0.362,0.786-0.779c0-0.439-0.377-0.78-0.786-0.78C28.593,641.501,28.216,641.842,28.216,642.282z
						 M28.313,640.359c0,0.329,0.35,0.703,0.689,0.703s0.689-0.374,0.689-0.703c0-0.396-0.323-0.714-0.689-0.714
						S28.313,639.963,28.313,640.359z"/>
				</g>
			</g>
			<g id="g14510">
				<g id="h14510">
					<path id="b14510" class="st5" d="M41.966,652.056v23.121H9.058V663.69H0.426v-11.634H41.966z M0.426,663.69v11.487h8.632
						V663.69H0.426z"/>
					<path id="t14510" class="st3" d="M15.959,662.264l0.28-0.472h0.911v4.142h-0.485v-3.67H15.959z M21.072,664.879v0.45h-0.463
						v0.604h-0.485v-0.604H18.12l2.488-3.713v3.263H21.072z M20.124,663.171h-0.011l-1.142,1.708h1.152V663.171z M22.894,662.264
						l-0.253,0.852l0.286-0.016c0.786,0,1.303,0.687,1.303,1.449c0,0.874-0.668,1.473-1.502,1.473c-0.501,0-1.002-0.27-1.239-0.725
						l0.377-0.363c0.124,0.352,0.539,0.615,0.899,0.615c0.549,0,0.98-0.461,0.98-1.016c0-0.533-0.447-0.983-0.97-0.983
						c-0.286,0-0.582,0.137-0.76,0.368h-0.097l0.625-2.126h1.626v0.472H22.894z M24.941,662.264l0.28-0.472h0.91v4.142h-0.485v-3.67
						H24.941z M27.287,663.863c0-0.851,0.366-2.158,1.417-2.158s1.417,1.308,1.417,2.158c0,0.847-0.372,2.159-1.417,2.159
						S27.287,664.709,27.287,663.863z M27.771,663.858c0,0.571,0.205,1.703,0.932,1.703s0.932-1.132,0.932-1.703
						s-0.205-1.714-0.932-1.714S27.771,663.287,27.771,663.858z"/>
				</g>
			</g>
			<g id="g14512">
				<g id="h14512">
					<path id="b14512" class="st5" d="M41.966,675.262v23.121H9.058v-11.487H0.426v-11.634H41.966z M0.426,686.896v11.487h8.632
						v-11.487H0.426z"/>
					<path id="t14512" class="st3" d="M16.046,685.856l0.28-0.473h0.91v4.142h-0.485v-3.669H16.046z M21.159,688.47v0.45h-0.463
						v0.604h-0.484v-0.604h-2.004l2.488-3.713v3.263H21.159z M20.211,686.762H20.2l-1.142,1.708h1.153V686.762z M22.98,685.856
						l-0.253,0.851l0.286-0.017c0.787,0,1.304,0.688,1.304,1.451c0,0.873-0.668,1.472-1.503,1.472c-0.501,0-1.002-0.27-1.239-0.726
						l0.377-0.362c0.124,0.352,0.539,0.615,0.899,0.615c0.549,0,0.98-0.461,0.98-1.016c0-0.533-0.447-0.983-0.97-0.983
						c-0.285,0-0.582,0.137-0.759,0.368h-0.097l0.625-2.126h1.626v0.473H22.98z M25.029,685.856l0.28-0.473h0.91v4.142h-0.484
						v-3.669H25.029z M29.925,689.052v0.473h-2.623l1.777-2.225c0.167-0.209,0.361-0.467,0.361-0.741
						c0-0.435-0.377-0.791-0.797-0.791c-0.415,0-0.754,0.34-0.781,0.758h-0.506c0.081-0.736,0.55-1.23,1.288-1.23
						c0.689,0,1.282,0.521,1.282,1.241c0,0.308-0.113,0.615-0.302,0.852l-1.335,1.664H29.925z"/>
				</g>
			</g>
		</g>
	</g>
</g>
<g id="PEARL_DECK_14_TOP">
	<path class="st6" d="M2.135,177.34h21.351v111.128c0,0,18.779-16.57,43.745-16.128c24.965,0.442,42.419,15.686,42.419,15.686
		V153.478h16.623V11.309c0,0-16.912-9.028-56.84-10.809h-5.932C23.574,2.28,6.662,11.309,6.662,11.309v144.198l-6.132,8.591
		l0.002,13.244L2.135,177.34z"/>
	<path class="st6" d="M61.967,483.702h17.254c0,0,33.196,1.317,51.727,21.758v219.244h-21.752v7.441h-6.297v52.666h17.173v84.721
		h-6.297V890.5h-34.97H52.58H17.61v-20.969h-6.297v-84.721h17.173v-52.666h-6.297v-7.441H0.436V505.46
		c18.531-20.441,51.728-21.758,51.728-21.758H61.967z"/>
	<g id="gDeck14Locations">
		<rect id="_x31_4Aft" y="588.636" class="st7" width="131.447" height="302.365"/>
		<rect id="_x31_4Middle" y="289.686" class="st7" width="131.447" height="298.95"/>
		<rect id="_x31_4Forward" y="0.5" class="st7" width="131.447" height="289.186"/>
	</g>
</g>
</svg>
