<?xml version="1.0" encoding="utf-8"?>
<!-- Generator: Adobe Illustrator 23.0.2, SVG Export Plug-In . SVG Version: 6.00 Build 0)  -->
<svg version="1.1" id="GETAWAY_DECK_06" xmlns="http://www.w3.org/2000/svg" xmlns:xlink="http://www.w3.org/1999/xlink" x="0px"
	 y="0px" width="150px" height="1150.402px" viewBox="0 0 150 1150.402" style="enable-background:new 0 0 150 1150.402;"
	 xml:space="preserve">
<style type="text/css">
	.st0{fill:#FFFFFF;}
	.st1{fill:none;stroke:#D5DCE0;stroke-width:0.5;}
	.st2{fill:#6E8496;}
	.st3{fill:none;stroke:#076FA0;stroke-miterlimit:10;}
	.st4{fill:none;}
</style>
<g id="GETAWAY_DECK_06_BOTTOM">
	<path class="st0" d="M74.422,0.301L72.516,1.37l-1.137,0.991l-0.652,0.714l-0.619,0.756l-1.123,1.557l-1.049,1.597l-2.975,4.873
		l-3.75,6.612l-3.601,6.7l-3.467,6.764l-3.35,6.814l-3.267,6.853l-3.202,6.882l-3.137,6.913l-3.066,6.95l-5.9,14.006l-5.597,14.141
		l-2.683,7.124l-2.593,7.155l-4.845,14.408l-2.226,7.266l-2.076,7.319l-1.905,7.369l-3.304,14.897l-1.394,7.51l-2.25,15.105
		l-0.864,7.592l-1.89,144.429l0.065,791.444l0,0c0.303,13.411,13.138,20.92,31.597,22.523c18.031,1.566,40.937,1.523,42.53,1.517
		c1.594,0.006,24.5,0.05,42.53-1.517c18.46-1.603,31.266-9.112,31.58-22.522l0.652-96.331l-0.115-274.382V595.562V228.558
		l-0.003-0.307l-0.283-15.147l-0.372-7.638l-0.533-7.626l-0.698-7.614l-0.863-7.592l-1.036-7.565l-1.216-7.541l-1.396-7.509
		l-1.567-7.476l-1.736-7.422l-1.907-7.368l-2.071-7.318l-2.23-7.269l-4.848-14.406l-2.588-7.15l-2.684-7.125l-5.596-14.14
		l-2.91-7.022l-2.992-6.982l-3.065-6.95l-3.136-6.912l-3.201-6.882l-3.269-6.854l-3.35-6.816l-3.467-6.765l-3.603-6.701
		l-3.753-6.614l-1.964-3.255l-2.062-3.223l-1.131-1.561l-0.615-0.755L78.62,2.331l-0.729-0.67L77.486,1.35l-0.884-0.525L76.037,0.61
		l-1.528-0.366"/>
	<path class="st1" d="M75.078,364.046c-11.128,0-20.151,9.021-20.151,20.145c0,11.129,9.023,20.151,20.151,20.151
		c11.123,0,20.148-9.022,20.148-20.151C95.226,373.067,86.201,364.046,75.078,364.046L75.078,364.046L75.078,364.046z"/>
	<path class="st1" d="M75.473,305.142c15.847-0.097,35.195-4.656,49.224-13.348"/>
	<path class="st1" d="M64.464,312.422c2.677,0.315,7.851,0.581,10.551,0.539"/>
	<path class="st1" d="M25.023,296.533c12.428,7.518,29.527,12.044,42.796,12.352"/>
	<path class="st1" d="M82.311,308.888c13.132-0.313,30.091-4.881,42.444-12.281"/>
	<path class="st1" d="M75.015,312.961c2.702,0.042,7.871-0.223,10.549-0.539l0.666-0.044"/>
	<path class="st1" d="M75.073,309.154c1.821,0.018,5.425-0.116,7.238-0.267"/>
	<path class="st1" d="M67.902,308.894c1.812,0.15,5.349,0.279,7.171,0.26"/>
	<path class="st1" d="M25.023,291.692c13.707,8.956,34.561,14.234,50.451,13.45"/>
	<path class="st1" d="M75.473,317.216c15.847-0.082,35.195-3.95,49.224-11.322"/>
	<path class="st1" d="M25.023,305.808c13.707,7.597,34.561,12.074,50.451,11.409"/>
	<path class="st1" d="M74.742,321.379c15.847-0.08,35.927-3.869,49.955-11.006"/>
	<path class="st1" d="M25.023,310.29c13.707,7.355,34.001,11.743,49.891,11.099"/>
	<path class="st1" d="M74.377,324.94c15.847-0.079,36.291-3.153,50.32-10.204"/>
	<path class="st1" d="M25.023,314.653c13.707,7.266,33.957,10.923,49.847,10.287"/>
	<path class="st1" d="M86.101,312.378c11.589-0.68,27.172-4.914,38.538-11.397"/>
	<path class="st1" d="M25.023,301.204c11.392,6.563,27.759,10.533,39.442,11.218"/>
	<line class="st1" x1="148.548" y1="230.301" x2="1.961" y2="230.301"/>
	<line class="st1" x1="49.428" y1="815.307" x2="49.428" y2="781.511"/>
	<path class="st1" d="M52.418,702.739c-0.686-2.188-1.056-4.515-1.056-6.928c-0.001-2.493,0.394-4.894,1.124-7.144"/>
	<polyline class="st1" points="57.432,508.458 51.942,508.464 51.942,470.454 66.546,470.454 66.546,475.838 	"/>
	<rect x="56.314" y="470.454" class="st1" width="10.246" height="38.002"/>
	<line class="st1" x1="56.652" y1="479.938" x2="66.402" y2="470.454"/>
	<line class="st1" x1="56.751" y1="470.454" x2="66.508" y2="479.935"/>
	<polygon class="st1" points="56.652,489.142 66.402,480.06 56.751,480.066 66.508,489.139 	"/>
	<line class="st1" x1="56.652" y1="498.729" x2="66.402" y2="489.647"/>
	<line class="st1" x1="56.751" y1="489.653" x2="66.508" y2="498.726"/>
	<polyline class="st1" points="66.508,507.929 56.751,498.856 66.402,498.851 56.652,507.932 	"/>
	<polyline class="st1" points="93.18,508.497 97.727,508.464 97.727,470.465 83.174,470.465 83.174,475.838 	"/>
	<rect x="83.161" y="470.465" class="st1" width="10.246" height="37.99"/>
	<line class="st1" x1="93.069" y1="479.938" x2="83.318" y2="470.465"/>
	<line class="st1" x1="92.969" y1="470.465" x2="83.212" y2="479.935"/>
	<polygon class="st1" points="93.069,489.142 83.318,480.06 92.969,480.066 83.212,489.139 	"/>
	<line class="st1" x1="93.069" y1="498.729" x2="83.318" y2="489.647"/>
	<line class="st1" x1="92.969" y1="489.653" x2="83.212" y2="498.726"/>
	<polyline class="st1" points="83.212,507.929 92.969,498.856 83.318,498.851 93.069,507.932 	"/>
	<line class="st1" x1="63.923" y1="696.666" x2="59.595" y2="694.057"/>
	<line class="st1" x1="64.22" y1="695.9" x2="59.955" y2="693.4"/>
	<line class="st1" x1="64.595" y1="695.104" x2="60.377" y2="692.729"/>
	<line class="st1" x1="64.939" y1="694.369" x2="60.767" y2="692.025"/>
	<line class="st1" x1="65.73" y1="693.193" x2="61.517" y2="690.76"/>
	<line class="st1" x1="66.033" y1="692.572" x2="62.095" y2="690.104"/>
	<line class="st1" x1="66.678" y1="692.192" x2="62.492" y2="689.427"/>
	<line class="st1" x1="65.298" y1="693.775" x2="61.158" y2="691.4"/>
	<path class="st1" d="M62.482,685.574c0,0,0.533,2.66,0.237,3.546c0,0-5.437,7.032-5.142,11.405c0,0,2.423,0.767,5.319-0.71
		c0,0,1.891-6.678,3.782-7.623l3.664-0.118C70.342,692.074,70.223,687.702,62.482,685.574z"/>
	<path class="st1" d="M62.837,688.588c0,0,1.891,0.887,2.364,1.241c0,0,1.773,1.3,2.128,2.363"/>
	<path class="st1" d="M62.837,687.701c0,0,1.595,0.236,2.896,1.217c0,0,1.95,1.088,2.659,3.216"/>
	<path class="st1" d="M62.597,686.725c0,0,2.37,0.435,3.967,1.582c0,0,1.822,1.032,2.922,3.781"/>
	<path class="st1" d="M67.509,447.4c0.31,0,0.717,0.137,0.717,0.31"/>
	<line class="st1" x1="68.226" y1="447.71" x2="68.226" y2="448.911"/>
	<line class="st1" x1="68.226" y1="448.94" x2="81.298" y2="448.94"/>
	<path class="st1" d="M81.341,447.71c0-0.173,0.247-0.31,0.556-0.31"/>
	<line class="st1" x1="81.298" y1="448.911" x2="81.341" y2="447.71"/>
	<line class="st1" x1="74.555" y1="459.046" x2="74.555" y2="447.289"/>
	<line class="st1" x1="74.824" y1="459.046" x2="74.824" y2="447.289"/>
	<line class="st1" x1="74.555" y1="447.289" x2="74.824" y2="447.289"/>
	<line class="st1" x1="74.555" y1="459.046" x2="74.824" y2="459.046"/>
	<line class="st1" x1="74.824" y1="457.866" x2="81.298" y2="457.866"/>
	<line class="st1" x1="74.824" y1="453.403" x2="81.298" y2="453.403"/>
	<line class="st1" x1="74.824" y1="452.511" x2="81.298" y2="452.511"/>
	<line class="st1" x1="74.824" y1="451.618" x2="81.298" y2="451.618"/>
	<line class="st1" x1="74.824" y1="450.726" x2="81.298" y2="450.726"/>
	<line class="st1" x1="74.824" y1="449.833" x2="81.298" y2="449.833"/>
	<line class="st1" x1="74.824" y1="448.048" x2="81.304" y2="448.048"/>
	<line class="st1" x1="68.226" y1="457.866" x2="74.555" y2="457.866"/>
	<line class="st1" x1="74.824" y1="456.973" x2="81.298" y2="456.973"/>
	<line class="st1" x1="68.226" y1="456.973" x2="74.555" y2="456.973"/>
	<line class="st1" x1="74.824" y1="456.081" x2="81.298" y2="456.081"/>
	<line class="st1" x1="68.226" y1="456.081" x2="74.555" y2="456.081"/>
	<line class="st1" x1="74.824" y1="455.188" x2="81.298" y2="455.188"/>
	<line class="st1" x1="68.226" y1="455.188" x2="74.555" y2="455.188"/>
	<line class="st1" x1="74.824" y1="454.296" x2="81.298" y2="454.296"/>
	<line class="st1" x1="68.226" y1="454.296" x2="74.555" y2="454.296"/>
	<line class="st1" x1="68.226" y1="453.403" x2="74.555" y2="453.403"/>
	<line class="st1" x1="68.226" y1="452.511" x2="74.555" y2="452.511"/>
	<line class="st1" x1="68.226" y1="451.618" x2="74.555" y2="451.618"/>
	<line class="st1" x1="68.226" y1="450.726" x2="74.555" y2="450.726"/>
	<line class="st1" x1="68.226" y1="449.833" x2="74.555" y2="449.833"/>
	<line class="st1" x1="60.955" y1="449.046" x2="68.226" y2="449.046"/>
	<line class="st1" x1="60.955" y1="453.403" x2="68.226" y2="453.403"/>
	<line class="st1" x1="60.955" y1="452.511" x2="68.226" y2="452.511"/>
	<line class="st1" x1="60.955" y1="451.618" x2="68.226" y2="451.618"/>
	<line class="st1" x1="60.955" y1="450.726" x2="68.226" y2="450.726"/>
	<line class="st1" x1="60.955" y1="449.833" x2="68.226" y2="449.833"/>
	<line class="st1" x1="81.298" y1="449.046" x2="88.68" y2="449.046"/>
	<line class="st1" x1="81.298" y1="453.403" x2="88.68" y2="453.403"/>
	<line class="st1" x1="81.298" y1="452.511" x2="88.68" y2="452.511"/>
	<line class="st1" x1="81.298" y1="451.618" x2="88.68" y2="451.618"/>
	<line class="st1" x1="81.298" y1="450.726" x2="88.68" y2="450.726"/>
	<line class="st1" x1="81.298" y1="449.833" x2="88.68" y2="449.833"/>
	<line class="st1" x1="68.226" y1="448.048" x2="74.555" y2="448.048"/>
	<path class="st1" d="M81.939,459.136c0,0.165-0.24,0.3-0.54,0.3c-0.298,0-0.54-0.135-0.54-0.3l0,0"/>
	<line class="st1" x1="80.859" y1="459.136" x2="80.859" y2="459.046"/>
	<line class="st1" x1="81.939" y1="459.136" x2="81.939" y2="459.046"/>
	<path class="st1" d="M68.613,459.136c0,0.165-0.241,0.3-0.537,0.3c-0.301,0-0.542-0.135-0.542-0.3l0,0"/>
	<line class="st1" x1="67.534" y1="459.136" x2="67.534" y2="459.046"/>
	<line class="st1" x1="68.613" y1="459.136" x2="68.613" y2="459.046"/>
	<line class="st1" x1="81.392" y1="459.046" x2="81.298" y2="448.986"/>
	<line class="st1" x1="68.084" y1="459.046" x2="68.226" y2="448.881"/>
	<polyline class="st1" points="0.591,458.59 25.645,458.699 25.645,453.828 51.675,453.828 	"/>
	<path class="st1" d="M33.901,478.674h-8.896v46.162h-9.179v7.264c0.183,1.561,7.252,2.938,7.252,2.938
		c2.111,0.275,3.029-0.918,3.122-0.459c0.092,0.459,1.101,0.643,1.101,0.643c14.321-8.721,9.364-31.672,9.364-31.672
		c-2.387-6.885-2.571-24.876-2.571-24.876"/>
	<line class="st1" x1="124.61" y1="572.033" x2="149.441" y2="572.033"/>
	<line class="st1" x1="119.412" y1="486.977" x2="149.441" y2="487.018"/>
	<path class="st1" d="M25.344,558.408l0.764-0.053c0,0,1.561,3.03,1.285,6.335l-0.551,0.092c0,0-1.468,26.162,25.521,23.133
		l-0.092-0.734c0,0,7.049-2.654,12.649-0.543l-0.046,0.036l0.018,88.123"/>
	<line class="st1" x1="149.441" y1="609.87" x2="102.808" y2="609.87"/>
	<polyline class="st1" points="1.794,743.081 25.152,743.081 41.035,743.081 41.766,743.081 64.91,742.922 64.864,716.778 	"/>
	<polyline class="st1" points="24.921,743.354 25.001,752.365 25.001,781.455 	"/>
	<path class="st1" d="M54.069,684.943c3.916-7.295,11.65-12.261,20.552-12.261c11.486,0,21.03,8.268,22.932,19.141l-0.062-0.009
		H84.818v8.19h12.521l0.166,0.056c-2.008,10.743-11.489,18.878-22.884,18.878c-8.504,0-15.943-4.532-20.004-11.298"/>
	<polyline class="st1" points="49.428,781.832 49.428,752.365 64.857,752.365 64.857,782.696 	"/>
	<line class="st1" x1="25.001" y1="752.365" x2="49.428" y2="752.365"/>
	<line class="st1" x1="36.548" y1="752.365" x2="36.548" y2="781.656"/>
	<line class="st1" x1="51.611" y1="459.294" x2="59.736" y2="459.294"/>
	<polyline class="st1" points="67.509,447.4 60.955,447.4 60.986,459.294 59.736,459.294 	"/>
	<line class="st1" x1="49.428" y1="781.643" x2="0.591" y2="781.606"/>
	<polyline class="st1" points="49.428,815.15 41.148,815.15 41.148,823.25 49.309,823.25 49.309,824.772 64.857,824.772 
		64.857,781.776 	"/>
	<line class="st1" x1="100.215" y1="781.727" x2="149.441" y2="781.606"/>
	<polyline class="st1" points="100.298,781.139 100.283,815.091 108.443,815.091 108.443,823.556 100.283,823.556 100.283,825.018 
		84.915,825.018 84.915,781.594 84.915,781.606 	"/>
	<rect x="56.356" y="881.24" class="st1" width="10.666" height="37.891"/>
	<line class="st1" x1="56.708" y1="890.614" x2="66.857" y2="881.532"/>
	<line class="st1" x1="56.81" y1="881.538" x2="66.967" y2="890.611"/>
	<polygon class="st1" points="56.708,899.817 66.857,890.736 56.81,890.742 66.967,899.814 	"/>
	<line class="st1" x1="56.708" y1="909.404" x2="66.857" y2="900.322"/>
	<line class="st1" x1="56.81" y1="900.328" x2="66.967" y2="909.401"/>
	<polyline class="st1" points="66.967,918.605 56.81,909.532 66.857,909.526 56.708,918.607 	"/>
	<rect x="82.708" y="881.362" class="st1" width="10.855" height="37.891"/>
	<line class="st1" x1="93.206" y1="890.736" x2="82.874" y2="881.654"/>
	<line class="st1" x1="93.099" y1="881.66" x2="82.761" y2="890.733"/>
	<polygon class="st1" points="93.206,899.939 82.874,890.858 93.099,890.864 82.761,899.937 	"/>
	<line class="st1" x1="93.206" y1="909.526" x2="82.874" y2="900.444"/>
	<line class="st1" x1="93.099" y1="900.45" x2="82.761" y2="909.523"/>
	<polyline class="st1" points="82.761,918.727 93.099,909.654 82.874,909.648 93.206,918.729 	"/>
	<polyline class="st1" points="47.072,942.713 36.251,942.713 36.251,916.453 42.744,916.453 42.744,904.91 51.545,904.91 
		51.619,919.24 51.155,920.746 50.102,924.244 47.216,932.901 47.216,953.246 	"/>
	<polyline class="st1" points="102.478,942.852 113.686,942.812 113.591,916.968 98.185,916.85 98.185,919.125 102.645,933.19 
		102.645,952.702 	"/>
	<polyline class="st1" points="110.599,916.938 110.644,909.702 107.85,909.684 107.85,905.015 98.185,905.055 98.185,916.888 	"/>
	<line class="st1" x1="60.787" y1="943.267" x2="63.908" y2="943.295"/>
	<path class="st1" d="M73.903,944.497c0,0.173,0.246,0.31,0.555,0.31"/>
	<line class="st1" x1="73.86" y1="943.296" x2="73.903" y2="944.497"/>
	<line class="st1" x1="67.385" y1="933.161" x2="67.385" y2="944.918"/>
	<line class="st1" x1="67.116" y1="944.918" x2="67.385" y2="944.918"/>
	<line class="st1" x1="67.116" y1="933.161" x2="67.385" y2="933.161"/>
	<line class="st1" x1="67.385" y1="934.342" x2="73.86" y2="934.342"/>
	<line class="st1" x1="67.385" y1="938.804" x2="73.86" y2="938.804"/>
	<line class="st1" x1="67.385" y1="939.696" x2="73.86" y2="939.696"/>
	<line class="st1" x1="67.385" y1="940.589" x2="73.86" y2="940.589"/>
	<line class="st1" x1="67.385" y1="941.481" x2="73.86" y2="941.481"/>
	<line class="st1" x1="67.385" y1="942.374" x2="73.86" y2="942.374"/>
	<line class="st1" x1="67.385" y1="944.159" x2="73.866" y2="944.159"/>
	<line class="st1" x1="60.787" y1="934.342" x2="63.671" y2="934.342"/>
	<line class="st1" x1="67.385" y1="935.234" x2="73.86" y2="935.234"/>
	<line class="st1" x1="60.787" y1="935.234" x2="63.671" y2="935.234"/>
	<line class="st1" x1="67.385" y1="936.127" x2="73.86" y2="936.127"/>
	<line class="st1" x1="60.787" y1="936.127" x2="63.671" y2="936.127"/>
	<line class="st1" x1="67.385" y1="937.02" x2="73.86" y2="937.02"/>
	<line class="st1" x1="60.787" y1="937.02" x2="63.671" y2="937.02"/>
	<line class="st1" x1="67.385" y1="937.911" x2="73.86" y2="937.911"/>
	<line class="st1" x1="60.787" y1="937.911" x2="63.671" y2="937.911"/>
	<line class="st1" x1="60.787" y1="938.804" x2="63.671" y2="938.804"/>
	<line class="st1" x1="60.787" y1="939.696" x2="63.671" y2="939.696"/>
	<line class="st1" x1="60.787" y1="940.589" x2="63.671" y2="940.589"/>
	<line class="st1" x1="60.787" y1="941.481" x2="63.671" y2="941.481"/>
	<line class="st1" x1="60.787" y1="942.374" x2="63.671" y2="942.374"/>
	<line class="st1" x1="57.285" y1="943.161" x2="60.787" y2="943.161"/>
	<line class="st1" x1="57.285" y1="938.804" x2="60.787" y2="938.804"/>
	<line class="st1" x1="57.285" y1="939.696" x2="60.787" y2="939.696"/>
	<line class="st1" x1="57.285" y1="940.589" x2="60.787" y2="940.589"/>
	<line class="st1" x1="57.285" y1="941.481" x2="60.787" y2="941.481"/>
	<line class="st1" x1="57.285" y1="942.374" x2="60.787" y2="942.374"/>
	<line class="st1" x1="57.285" y1="937.928" x2="60.787" y2="937.928"/>
	<line class="st1" x1="57.285" y1="933.57" x2="60.787" y2="933.57"/>
	<line class="st1" x1="57.285" y1="932.279" x2="63.69" y2="932.279"/>
	<line class="st1" x1="60.494" y1="933.57" x2="63.996" y2="933.57"/>
	<line class="st1" x1="57.285" y1="934.463" x2="60.787" y2="934.463"/>
	<line class="st1" x1="57.285" y1="935.355" x2="60.787" y2="935.355"/>
	<line class="st1" x1="57.285" y1="936.248" x2="60.787" y2="936.248"/>
	<line class="st1" x1="57.285" y1="937.141" x2="60.787" y2="937.141"/>
	<line class="st1" x1="73.86" y1="943.161" x2="81.242" y2="943.161"/>
	<line class="st1" x1="73.86" y1="938.804" x2="81.242" y2="938.804"/>
	<line class="st1" x1="73.86" y1="939.696" x2="81.242" y2="939.696"/>
	<line class="st1" x1="73.86" y1="940.589" x2="81.242" y2="940.589"/>
	<line class="st1" x1="73.86" y1="941.481" x2="81.242" y2="941.481"/>
	<line class="st1" x1="73.86" y1="942.374" x2="81.242" y2="942.374"/>
	<polyline class="st1" points="57.328,943.969 63.951,943.906 63.83,943.932 63.802,931.271 	"/>
	<path class="st1" d="M74.501,933.07c0-0.165-0.24-0.3-0.541-0.3c-0.297,0-0.539,0.135-0.539,0.3l0,0"/>
	<line class="st1" x1="73.421" y1="933.07" x2="73.421" y2="933.161"/>
	<line class="st1" x1="74.501" y1="933.07" x2="74.501" y2="933.161"/>
	<path class="st1" d="M61.174,933.07c0-0.165-0.241-0.3-0.537-0.3c-0.301,0-0.542,0.135-0.542,0.3l0,0"/>
	<line class="st1" x1="60.096" y1="933.07" x2="60.096" y2="933.161"/>
	<line class="st1" x1="61.174" y1="933.07" x2="61.174" y2="933.161"/>
	<line class="st1" x1="73.954" y1="933.161" x2="73.86" y2="943.221"/>
	<line class="st1" x1="60.646" y1="933.161" x2="60.787" y2="946.385"/>
	<polyline class="st1" points="81.242,932.963 81.242,944.807 74.458,944.807 	"/>
	<line class="st1" x1="57.292" y1="931.609" x2="57.276" y2="944.807"/>
	<line class="st1" x1="56.638" y1="931.609" x2="56.622" y2="944.807"/>
	<path class="st1" d="M83.068,935.329c-0.207,0-0.375,0.185-0.375,0.421"/>
	<line class="st1" x1="87.605" y1="935.329" x2="83.068" y2="935.329"/>
	<line class="st1" x1="82.693" y1="935.75" x2="82.693" y2="952.521"/>
	<polyline class="st1" points="56.603,935.348 48.088,935.348 47.298,936.147 	"/>
	<line class="st1" x1="85.478" y1="943.161" x2="92.296" y2="943.161"/>
	<line class="st1" x1="85.478" y1="938.804" x2="92.296" y2="938.804"/>
	<line class="st1" x1="85.478" y1="939.696" x2="92.296" y2="939.696"/>
	<line class="st1" x1="85.478" y1="940.589" x2="92.296" y2="940.589"/>
	<line class="st1" x1="85.478" y1="941.481" x2="92.296" y2="941.481"/>
	<line class="st1" x1="85.478" y1="942.374" x2="92.296" y2="942.374"/>
	<line class="st1" x1="85.478" y1="937.928" x2="92.296" y2="937.928"/>
	<line class="st1" x1="85.492" y1="933.57" x2="89.263" y2="933.57"/>
	<line class="st1" x1="85.492" y1="932.279" x2="92.389" y2="932.279"/>
	<line class="st1" x1="89.193" y1="933.57" x2="92.695" y2="933.57"/>
	<line class="st1" x1="85.492" y1="934.463" x2="92.289" y2="934.463"/>
	<line class="st1" x1="85.984" y1="935.355" x2="92.296" y2="935.355"/>
	<line class="st1" x1="85.478" y1="936.248" x2="92.296" y2="936.248"/>
	<line class="st1" x1="85.478" y1="937.141" x2="92.296" y2="937.141"/>
	<path class="st1" d="M89.58,933.07c0-0.165-0.241-0.3-0.536-0.3c-0.301,0-0.543,0.135-0.543,0.3l0,0"/>
	<line class="st1" x1="88.945" y1="945.307" x2="88.945" y2="944.023"/>
	<line class="st1" x1="88.968" y1="933.143" x2="88.945" y2="944.056"/>
	<path class="st1" d="M96.779,936.098c0-0.165-0.241-0.3-0.536-0.3c-0.301,0-0.543,0.135-0.543,0.3l0,0"/>
	<polyline class="st1" points="85.356,931.609 85.321,944.086 92.671,944.086 	"/>
	<line class="st1" x1="93.042" y1="931.456" x2="93.006" y2="944.086"/>
	<path class="st1" d="M66.874,935.847c0-0.235-0.096-0.421-0.217-0.421"/>
	<line class="st1" x1="66.874" y1="952.682" x2="66.874" y2="935.847"/>
	<line class="st1" x1="66.657" y1="935.426" x2="64.001" y2="935.426"/>
	<line class="st1" x1="92.698" y1="942.256" x2="99.019" y2="942.256"/>
	<line class="st1" x1="92.698" y1="937.898" x2="99.019" y2="937.898"/>
	<line class="st1" x1="92.698" y1="938.791" x2="99.019" y2="938.791"/>
	<line class="st1" x1="92.698" y1="939.684" x2="99.019" y2="939.684"/>
	<line class="st1" x1="92.698" y1="940.576" x2="99.019" y2="940.576"/>
	<line class="st1" x1="92.698" y1="941.469" x2="99.019" y2="941.469"/>
	<polyline class="st1" points="102.113,931.494 99.019,932.058 99.019,943.901 93.211,943.901 	"/>
	<line class="st1" x1="92.502" y1="931.271" x2="92.502" y2="952.656"/>
	<line class="st1" x1="96.144" y1="946.63" x2="96.144" y2="945.526"/>
	<line class="st1" x1="96.168" y1="936.171" x2="96.144" y2="945.555"/>
	<path class="st1" d="M89.677,946.694c-0.31,0-0.717-0.137-0.717-0.31"/>
	<line class="st1" x1="88.961" y1="946.385" x2="88.945" y2="945.184"/>
	<path class="st1" d="M95.41,946.694c0.31,0,0.717-0.137,0.717-0.31"/>
	<line class="st1" x1="96.127" y1="946.385" x2="96.144" y2="945.184"/>
	<line class="st1" x1="89.595" y1="946.682" x2="95.517" y2="946.682"/>
	<path class="st1" d="M52.776,936.098c0-0.165,0.241-0.3,0.536-0.3c0.301,0,0.543,0.135,0.543,0.3l0,0"/>
	<line class="st1" x1="56.857" y1="942.256" x2="50.536" y2="942.256"/>
	<line class="st1" x1="56.857" y1="937.898" x2="50.536" y2="937.898"/>
	<line class="st1" x1="56.857" y1="938.791" x2="50.536" y2="938.791"/>
	<line class="st1" x1="56.857" y1="939.684" x2="50.536" y2="939.684"/>
	<line class="st1" x1="56.857" y1="940.576" x2="50.536" y2="940.576"/>
	<line class="st1" x1="56.857" y1="941.469" x2="50.536" y2="941.469"/>
	<polyline class="st1" points="47.442,931.494 50.536,932.058 50.536,943.901 56.344,943.901 	"/>
	<line class="st1" x1="53.411" y1="946.63" x2="53.411" y2="945.526"/>
	<line class="st1" x1="53.387" y1="936.171" x2="53.411" y2="945.555"/>
	<path class="st1" d="M60.025,946.694c0.316,0,0.733-0.137,0.733-0.31"/>
	<line class="st1" x1="60.757" y1="946.385" x2="60.774" y2="944.705"/>
	<path class="st1" d="M54.162,946.694c-0.316,0-0.733-0.137-0.733-0.31"/>
	<line class="st1" x1="53.429" y1="946.385" x2="53.411" y2="945.184"/>
	<line class="st1" x1="60.109" y1="946.682" x2="54.052" y2="946.682"/>
	<polyline class="st1" points="0.592,952.669 141.982,952.67 149.441,952.67 	"/>
	<line class="st1" x1="98.055" y1="230.365" x2="98.055" y2="249.773"/>
	<polyline class="st1" points="124.677,327.459 124.585,249.773 113.161,249.773 109.228,249.773 97.805,249.773 	"/>
	<polyline class="st1" points="25.023,230.319 25.023,324.94 124.667,324.94 	"/>
	<polyline class="st1" points="51.612,230.247 51.612,249.836 31.886,249.836 31.886,254.33 25.023,254.33 	"/>
	<polyline class="st1" points="124.677,327.459 124.62,334.438 138.067,334.46 138.067,382.234 124.644,382.234 	"/>
	<line class="st1" x1="82.016" y1="522.548" x2="112.369" y2="525.532"/>
	<polyline class="st1" points="126.472,683.827 126.472,733.687 97.957,733.687 97.957,735.195 97.957,739.746 97.957,752.484 
		84.915,752.484 84.915,781.548 	"/>
	<path class="st1" d="M51.737,692.535c0,0,2.434,0.374,3.558-2.622c0,0,3.746-8.988,7.678-10.674c0,0,4.307-2.996,3.558-4.869"/>
	<path class="st1" d="M71.962,672.685c0,0,2.247,6.179-7.116,12.359c0,0-3.558,2.436-4.682,5.993c0,0-2.248,5.243-5.618,7.116
		l-2.622,1.123"/>
	<line class="st1" x1="51.942" y1="466.813" x2="51.942" y2="470.454"/>
	<line class="st1" x1="25.645" y1="439.382" x2="25.645" y2="453.828"/>
	<polyline class="st1" points="131.4,388.976 131.138,388.976 131.138,439.352 117.505,439.352 117.505,439.219 117.505,458.624 	
		"/>
	<line class="st1" x1="149.441" y1="388.976" x2="131.14" y2="388.976"/>
	<polyline class="st1" points="97.906,752.535 100.355,752.537 100.319,781.447 	"/>
	<polyline class="st1" points="115.565,512.815 115.565,470.465 115.535,470.465 97.862,470.465 	"/>
	<path class="st1" d="M85.488,848.432c0,7.963-4.639,14.417-10.363,14.417c-5.723,0-10.363-6.454-10.363-14.417
		c0-7.962,4.64-14.416,10.363-14.416C80.849,834.016,85.488,840.47,85.488,848.432z"/>
	<line class="st1" x1="102.725" y1="657.955" x2="84.819" y2="657.955"/>
	<polyline class="st1" points="84.819,675.048 84.819,605.12 102.808,605.12 	"/>
	<path class="st1" d="M106.285,592.251c0,6.544-5.396,11.846-12.051,11.846c-6.655,0-12.052-5.303-12.052-11.846
		s5.396-11.847,12.052-11.847C100.888,580.404,106.285,585.708,106.285,592.251z"/>
	<polyline class="st1" points="124.585,249.773 130.353,249.773 130.353,324.759 145.968,324.759 145.968,389.168 	"/>
	<polyline class="st1" points="0.592,439.3 51.573,439.3 51.647,439.365 51.647,459.294 	"/>
	<polyline class="st1" points="41.903,407.23 97.978,407.23 97.978,439.3 91.587,439.3 91.548,439.494 91.548,457.244 
		89.548,459.244 88.68,459.244 88.68,447.4 81.897,447.4 	"/>
	<polyline class="st1" points="109.519,431.719 109.477,402.655 124.644,402.655 124.644,363.32 121.963,363.133 115.612,354.507 
		111.341,348.707 109.416,346.091 109.416,329.799 84.306,329.799 81.129,329.799 76.081,329.799 61.298,332.048 51.549,335.042 
		39.377,342.721 33.196,350.024 25.023,362.932 25.023,363.229 25.023,400.961 41.903,400.961 41.903,439.52 	"/>
	<polyline class="st1" points="124.644,402.667 124.644,431.754 98.076,431.719 	"/>
	<path class="st1" d="M81.101,521.005c0,0-13.552,44.384,6.281,48.55c0,0,17.334,5.667,24-8.5c0,0,4.167-3.5,3-37.167l-1.625-0.21
		l0.125-1.123l-29.038-3.098l-0.281,1.759L81.101,521.005z"/>
	<line class="st1" x1="49.309" y1="824.772" x2="49.309" y2="869.353"/>
	<line class="st1" x1="100.283" y1="825.018" x2="100.283" y2="869.547"/>
	<polyline class="st1" points="67.089,881.24 67.089,874.087 67.049,874.098 54.545,874.098 54.545,869.353 49.29,869.353 
		45.897,873.185 39.258,873.185 39.258,879.031 51.56,879.031 51.56,904.91 	"/>
	<polyline class="st1" points="82.726,881.24 82.726,874.087 82.798,874.098 95.287,874.098 95.226,869.547 100.404,869.547 
		103.63,873.123 110.208,873.123 110.208,878.787 98.185,878.787 98.185,905.055 	"/>
	<line class="st1" x1="51.619" y1="919.24" x2="56.356" y2="919.24"/>
	<line class="st1" x1="93.563" y1="919.253" x2="98.185" y2="919.253"/>
	<polyline class="st1" points="64.966,717.005 46.838,737.887 48.641,739.88 48.736,742.823 	"/>
	<polyline class="st1" points="149.441,683.827 117.75,683.827 102.725,657.955 102.798,657.955 102.798,605.08 	"/>
	<polyline class="st1" points="80.507,718.387 80.507,724.089 85.04,724.089 85.04,733.687 85.04,733.687 97.957,733.687 	"/>
	<line class="st1" x1="97.867" y1="492.101" x2="115.565" y2="492.101"/>
	<line class="st1" x1="25.023" y1="325.062" x2="25.023" y2="362.929"/>
	<line class="st1" x1="109.416" y1="329.799" x2="124.627" y2="329.799"/>
	<polyline class="st1" points="148.185,458.624 117.505,458.624 119.412,458.709 119.412,470.465 119.412,512.815 119.412,524.584 
		119.412,524.599 149.441,524.599 	"/>
	<line class="st1" x1="83.161" y1="508.456" x2="83.161" y2="514.743"/>
	<polyline class="st1" points="97.731,508.464 97.731,512.815 115.565,512.815 115.597,522.393 113.538,522.397 110.889,519.667 
		110.889,514.885 51.942,514.885 51.942,508.464 	"/>
	<line class="st1" x1="110.889" y1="514.885" x2="115.509" y2="514.885"/>
	<rect x="52.042" y="508.345" class="st1" width="14.613" height="6.479"/>
	<line class="st1" x1="20.682" y1="524.836" x2="0.592" y2="524.836"/>
	<polyline class="st1" points="19.314,562.935 19.314,590.944 27.668,590.944 27.668,598.013 64.798,598.013 	"/>
	<polyline class="st1" points="0.592,562.854 19.316,562.854 19.316,558.906 25.344,558.408 	"/>
	<line class="st1" x1="111.798" y1="609.87" x2="111.798" y2="673.808"/>
	<polyline class="st1" points="20.417,648.631 39.766,648.631 39.766,653.247 47.982,653.247 47.982,657.973 	"/>
	<polyline class="st1" points="64.89,674.749 64.89,667.015 47.982,667.015 47.982,666.842 47.982,657.973 	"/>
	<polyline class="st1" points="60.88,677.107 47.982,677.107 47.982,667.015 	"/>
	<rect x="112.133" y="599.476" class="st1" width="37.168" height="10.395"/>
	<line class="st1" x1="130.215" y1="595.39" x2="125.548" y2="605.724"/>
	<line class="st1" x1="38.3" y1="590.644" x2="23.413" y2="603.458"/>
	<polyline class="st1" points="20.575,648.562 20.575,676.791 0.591,676.791 	"/>
	<line class="st1" x1="94.045" y1="592.347" x2="80.16" y2="594.33"/>
	<line class="st1" x1="30.181" y1="525.579" x2="41.463" y2="532.541"/>
	<path class="st2" d="M28.247,764.478h1.007c1,0,1.728,0.527,1.728,1.783v0.071c0,0.728-0.288,1.191-0.656,1.472l0.752,2.271h-1.039
		l-0.632-1.951h-0.184v1.951h-0.976C28.247,770.075,28.247,764.478,28.247,764.478z M29.27,767.244c0.424,0,0.735-0.247,0.735-0.902
		v-0.064c0-0.703-0.336-0.888-0.76-0.888h-0.023v1.854H29.27z M31.43,764.478h1.007c1,0,1.728,0.527,1.728,1.783v0.071
		c0,0.728-0.288,1.191-0.656,1.472l0.752,2.271h-1.039l-0.632-1.951h-0.184v1.951H31.43V764.478z M32.454,767.244
		c0.424,0,0.735-0.247,0.735-0.902v-0.064c0-0.703-0.336-0.888-0.76-0.888h-0.023v1.854H32.454z"/>
	<path class="st2" d="M40.719,764.478h1.007c1,0,1.728,0.527,1.728,1.783v0.071c0,0.728-0.288,1.191-0.656,1.472l0.752,2.271h-1.04
		l-0.632-1.951h-0.184v1.951h-0.976v-5.597H40.719z M41.742,767.244c0.424,0,0.735-0.247,0.735-0.902v-0.064
		c0-0.703-0.336-0.888-0.76-0.888h-0.023v1.854H41.742z M43.902,764.478h1.007c1,0,1.728,0.527,1.728,1.783v0.071
		c0,0.728-0.288,1.191-0.656,1.472l0.752,2.271h-1.039l-0.632-1.951h-0.184v1.951h-0.976V764.478z M44.926,767.244
		c0.424,0,0.735-0.247,0.735-0.902v-0.064c0-0.703-0.336-0.888-0.76-0.888h-0.023v1.854H44.926z"/>
	<path class="st2" d="M70.102,588.234h0.848c0.943,0,1.822,0.384,1.822,1.423v0.04c0,0.72-0.407,1.071-0.808,1.263
		c0.473,0.208,0.88,0.536,0.88,1.248v0.072c0,0.992-0.768,1.551-1.854,1.551h-0.888V588.234z M71.093,590.585
		c0.432,0,0.72-0.248,0.72-0.736v-0.016c0-0.487-0.288-0.695-0.72-0.695h-0.016v1.447H71.093z M71.101,592.928
		c0.448,0,0.768-0.264,0.768-0.728v-0.04c0-0.464-0.319-0.728-0.768-0.728h-0.023v1.495h0.023V592.928z M73.998,588.218h1.039
		l1.063,5.613h-0.975l-0.185-1.111h-0.888l-0.176,1.111h-0.943L73.998,588.218z M74.797,591.84l-0.296-1.847l-0.304,1.847H74.797z
		 M76.398,588.234h1.007c1,0,1.728,0.527,1.728,1.783v0.072c0,0.728-0.288,1.191-0.656,1.472l0.752,2.271H78.19l-0.632-1.951h-0.184
		v1.951h-0.976C76.398,593.832,76.398,588.234,76.398,588.234z M77.422,591c0.424,0,0.735-0.248,0.735-0.903v-0.064
		c0-0.704-0.336-0.888-0.76-0.888h-0.023V591H77.422z M67.918,596.218h1.039l1.063,5.613h-0.975l-0.185-1.111h-0.888l-0.176,1.111
		h-0.943L67.918,596.218z M68.717,599.84l-0.296-1.847l-0.304,1.847H68.717z M70.598,597.162H69.91v-0.927h2.351v0.927h-0.688v4.669
		h-0.976v-4.669H70.598z M74.462,597.162h-0.688v-0.927h2.351v0.927h-0.688v4.669h-0.976v-4.669H74.462z M76.534,596.234h0.976
		v2.318h0.848v-2.318h0.975v5.597h-0.975v-2.351H77.51v2.351h-0.976V596.234z M79.91,596.234h2.143v0.927h-1.167v1.391h1.031v0.928
		h-1.031v1.423h1.191v0.928H79.91V596.234z M67.502,604.218h1.039l1.063,5.613H68.63l-0.185-1.111h-0.888l-0.176,1.111h-0.943
		L67.502,604.218z M68.301,607.84l-0.296-1.847l-0.304,1.847H68.301z M70.182,605.161h-0.688v-0.927h2.351v0.927h-0.688v4.67h-0.976
		v-4.67H70.182z M72.255,604.234h1.007c1,0,1.728,0.527,1.728,1.782v0.072c0,0.728-0.288,1.191-0.655,1.472l0.751,2.271h-1.039
		l-0.632-1.951H73.23v1.951h-0.976L72.255,604.234L72.255,604.234z M73.278,607c0.424,0,0.735-0.247,0.735-0.903v-0.063
		c0-0.704-0.336-0.888-0.76-0.888H73.23V607H73.278z M75.454,604.234h0.976v5.597h-0.976V604.234z M77.005,608.2v-3.966h0.968v4.062
		c0,0.504,0.176,0.703,0.424,0.703s0.424-0.199,0.424-0.703v-4.062h0.968v3.966c0,1.175-0.592,1.702-1.392,1.702
		S77.005,609.375,77.005,608.2z M80.35,604.234h0.967l0.688,2.047l0.688-2.047h0.967v5.597h-0.936v-3.383l-0.711,2.119h-0.017
		l-0.711-2.119v3.383H80.35V604.234z"/>
	<path class="st2" d="M58.103,382.289h0.976v5.597h-0.976V382.289z M59.672,382.289h0.976v4.669h1.031v0.928h-2.007V382.289z
		 M62.072,382.289h0.976v4.669h1.031v0.928h-2.007C62.072,387.886,62.072,382.289,62.072,382.289z M64.375,386.255v-3.966h0.968
		v4.062c0,0.504,0.176,0.704,0.424,0.704s0.424-0.2,0.424-0.704v-4.062h0.968v3.966c0,1.175-0.592,1.703-1.392,1.703
		S64.375,387.43,64.375,386.255z M67.599,387.694v-1.016c0.344,0.2,0.615,0.312,0.88,0.312c0.279,0,0.52-0.136,0.52-0.479v-0.016
		c0-0.256-0.08-0.448-0.544-0.976c-0.664-0.751-0.936-1.111-0.936-1.791v-0.016c0-0.896,0.584-1.463,1.359-1.463
		c0.392,0,0.624,0.056,0.863,0.176v1.016c-0.304-0.176-0.487-0.256-0.743-0.256c-0.272,0-0.504,0.176-0.504,0.479v0.016
		c0,0.264,0.08,0.36,0.544,0.896c0.768,0.887,0.936,1.231,0.936,1.871v0.016c0,0.879-0.616,1.463-1.384,1.463
		C68.207,387.926,67.88,387.83,67.599,387.694z M70.335,382.289h0.976v5.597h-0.976V382.289z M71.807,385.231v-0.288
		c0-1.847,0.6-2.734,1.486-2.734c0.888,0,1.487,0.887,1.487,2.734v0.288c0,1.847-0.6,2.734-1.487,2.734
		C72.407,387.966,71.807,387.078,71.807,385.231z M73.79,385.231v-0.288c0-1.439-0.2-1.839-0.496-1.839s-0.495,0.399-0.495,1.839
		v0.288c0,1.439,0.199,1.839,0.495,1.839S73.79,386.67,73.79,385.231z M75.263,382.289h0.911l0.983,2.83v-2.83h0.952v5.597h-0.864
		l-1.031-2.966v2.966h-0.951L75.263,382.289L75.263,382.289z M79.47,382.273h1.04l1.062,5.613h-0.975l-0.185-1.111h-0.888
		l-0.176,1.111h-0.943L79.47,382.273z M80.27,385.895l-0.296-1.847l-0.304,1.847H80.27z M81.871,382.289h1.007
		c1,0,1.728,0.527,1.728,1.783v0.072c0,0.728-0.288,1.191-0.655,1.472l0.751,2.271h-1.039l-0.632-1.951h-0.184v1.951h-0.976V382.289
		z M82.894,385.055c0.424,0,0.735-0.248,0.735-0.903v-0.064c0-0.704-0.336-0.888-0.76-0.888h-0.023v1.855H82.894z M85.071,382.289
		h0.976v5.597h-0.976V382.289z M86.623,386.255v-3.966h0.968v4.062c0,0.504,0.176,0.704,0.424,0.704s0.424-0.2,0.424-0.704v-4.062
		h0.968v3.966c0,1.175-0.592,1.703-1.392,1.703S86.623,387.43,86.623,386.255z M89.966,382.289h0.967l0.688,2.047l0.688-2.047h0.967
		v5.597H92.34v-3.382l-0.711,2.119h-0.017l-0.711-2.119v3.382h-0.936L89.966,382.289L89.966,382.289z"/>
	<path class="st2" d="M121.635,554.873l0.976-0.002l0.011,5.597l-0.976,0.002L121.635,554.873z M123.204,554.871l0.911-0.002
		l0.989,2.829l-0.006-2.83l0.952-0.002l0.011,5.597l-0.864,0.001l-1.037-2.964l0.006,2.966l-0.951,0.002L123.204,554.871z
		 M127.149,555.79l-0.688,0.001l-0.002-0.927l2.351-0.004l0.002,0.927l-0.688,0.001l0.009,4.669l-0.976,0.002L127.149,555.79z
		 M129.219,554.859l2.143-0.004l0.002,0.927l-1.167,0.002l0.003,1.391l1.031-0.002l0.002,0.928l-1.031,0.002l0.002,1.423
		l1.191-0.002l0.002,0.928l-2.167,0.004L129.219,554.859z M131.86,554.854l1.007-0.001c1-0.002,1.729,0.524,1.731,1.779v0.072
		c0.001,0.728-0.286,1.192-0.652,1.473l0.755,2.269l-1.039,0.002l-0.636-1.95h-0.184l0.004,1.951l-0.976,0.001L131.86,554.854z
		 M132.889,557.618c0.424,0,0.734-0.249,0.733-0.904v-0.064c-0.002-0.704-0.338-0.887-0.762-0.886h-0.023l0.004,1.855
		L132.889,557.618z M135.044,554.848l0.911-0.001l0.989,2.828l-0.006-2.83l0.952-0.002l0.011,5.597l-0.864,0.001L136,557.477
		l0.006,2.966l-0.951,0.002L135.044,554.848z M138.467,554.842l2.143-0.004l0.002,0.927l-1.167,0.002l0.003,1.391l1.031-0.002
		l0.002,0.928l-1.031,0.002l0.002,1.423l1.191-0.002l0.002,0.928l-2.167,0.004L138.467,554.842z M141.629,555.763l-0.688,0.001
		l-0.002-0.927l2.351-0.004l0.002,0.927l-0.688,0.001l0.009,4.669l-0.976,0.002L141.629,555.763z M127.089,565.757v-0.192
		c-0.004-1.967,0.723-2.744,1.634-2.745c0.271,0,0.432,0.031,0.64,0.126l0.002,1.007c-0.2-0.12-0.361-0.183-0.545-0.183
		c-0.432,0.001-0.742,0.385-0.739,1.785v0.208c0.003,1.479,0.315,1.782,0.764,1.781c0.151,0,0.344-0.056,0.542-0.177l0.002,0.959
		c-0.223,0.128-0.438,0.169-0.719,0.169C127.773,568.498,127.092,567.708,127.089,565.757z M130.651,562.84l1.04-0.002l1.073,5.611
		l-0.975,0.002l-0.188-1.111l-0.888,0.001l-0.173,1.112l-0.943,0.001L130.651,562.84z M131.458,566.461l-0.3-1.847l-0.3,1.848
		L131.458,566.461z M133.051,562.852l2.039-0.004l0.002,0.927l-1.063,0.002l0.002,1.407l0.927-0.001l0.002,0.927l-0.927,0.001
		l0.005,2.335l-0.976,0.002L133.051,562.852z M135.531,562.847l2.143-0.004l0.002,0.927l-1.167,0.002l0.002,1.391l1.031-0.002
		l0.002,0.928l-1.031,0.002l0.003,1.423l1.191-0.002l0.002,0.928l-2.167,0.004L135.531,562.847z M136.887,561.549l0.809,0.398
		l-0.791,0.617l-0.703,0.001L136.887,561.549z"/>
	<path class="st2" d="M97.651,708.619h0.976v4.669h1.031v0.928h-2.007V708.619z M100.05,708.619h2.143v0.928h-1.167v1.391h1.031
		v0.928h-1.031v1.423h1.191v0.928h-2.167V708.619z M103.963,708.619h0.848c0.943,0,1.822,0.384,1.822,1.423v0.04
		c0,0.72-0.407,1.071-0.808,1.264c0.473,0.207,0.88,0.535,0.88,1.247v0.071c0,0.992-0.768,1.552-1.854,1.552h-0.888V708.619z
		 M104.954,710.97c0.432,0,0.72-0.248,0.72-0.735v-0.017c0-0.487-0.288-0.695-0.72-0.695h-0.016v1.447H104.954z M104.962,713.312
		c0.448,0,0.768-0.264,0.768-0.728v-0.04c0-0.464-0.319-0.728-0.768-0.728h-0.023v1.495h0.023V713.312z M107.13,708.619h0.976v5.597
		h-0.976V708.619z M108.579,714.023v-1.016c0.344,0.201,0.615,0.312,0.88,0.312c0.279,0,0.52-0.136,0.52-0.479v-0.017
		c0-0.256-0.08-0.447-0.544-0.975c-0.664-0.752-0.936-1.111-0.936-1.791v-0.017c0-0.896,0.584-1.463,1.359-1.463
		c0.392,0,0.624,0.056,0.863,0.176v1.016c-0.304-0.177-0.487-0.256-0.743-0.256c-0.272,0-0.504,0.176-0.504,0.479v0.016
		c0,0.264,0.08,0.36,0.544,0.896c0.768,0.887,0.936,1.23,0.936,1.87v0.017c0,0.879-0.616,1.463-1.384,1.463
		C109.186,714.256,108.858,714.16,108.579,714.023z M111.698,709.547h-0.688v-0.928h2.351v0.928h-0.688v4.669h-0.976v-4.669H111.698
		z M113.771,708.619h1.007c1,0,1.728,0.527,1.728,1.783v0.071c0,0.728-0.288,1.191-0.655,1.472l0.751,2.271h-1.039l-0.632-1.951
		h-0.184v1.951h-0.976C113.771,714.216,113.771,708.619,113.771,708.619z M114.795,711.385c0.424,0,0.735-0.247,0.735-0.902v-0.064
		c0-0.703-0.336-0.888-0.76-0.888h-0.023v1.854H114.795z M116.858,711.561v-0.288c0-1.848,0.601-2.734,1.487-2.734
		c0.888,0,1.487,0.887,1.487,2.734v0.288c0,1.847-0.6,2.734-1.487,2.734C117.459,714.296,116.858,713.408,116.858,711.561z
		 M118.841,711.561v-0.288c0-1.439-0.2-1.839-0.496-1.839s-0.495,0.399-0.495,1.839v0.288c0,1.438,0.199,1.839,0.495,1.839
		S118.841,713,118.841,711.561z M100.088,716.619h2.039v0.928h-1.063v1.406h0.927v0.928h-0.927v2.335h-0.976V716.619z
		 M102.568,716.619h1.007c1,0,1.728,0.527,1.728,1.783v0.071c0,0.728-0.288,1.191-0.655,1.472l0.751,2.271h-1.039l-0.632-1.951
		h-0.184v1.951h-0.976C102.568,722.216,102.568,716.619,102.568,716.619z M103.591,719.385c0.424,0,0.735-0.247,0.735-0.902v-0.064
		c0-0.703-0.336-0.888-0.76-0.888h-0.023v1.854H103.591z M105.752,716.619h2.143v0.928h-1.167v1.391h1.031v0.928h-1.031v1.423h1.191
		v0.928h-2.167V716.619z M108.391,716.619h0.911l0.983,2.83v-2.83h0.951v5.597h-0.863l-1.031-2.966v2.966h-0.951
		C108.391,722.216,108.391,716.619,108.391,716.619z M111.719,719.514v-0.192c0-1.967,0.728-2.742,1.639-2.742
		c0.271,0,0.432,0.032,0.64,0.128v1.008c-0.2-0.121-0.36-0.185-0.544-0.185c-0.432,0-0.743,0.384-0.743,1.783v0.208
		c0,1.479,0.312,1.783,0.76,1.783c0.151,0,0.344-0.057,0.543-0.176v0.959c-0.224,0.128-0.439,0.168-0.72,0.168
		C112.398,722.256,111.719,721.465,111.719,719.514z M114.504,716.619h0.976v2.318h0.848v-2.318h0.975v5.597h-0.975v-2.351h-0.848
		v2.351h-0.976V716.619z M94.227,724.619h1.007c1,0,1.728,0.527,1.728,1.783v0.071c0,0.728-0.288,1.191-0.656,1.472l0.752,2.271
		h-1.039l-0.632-1.951h-0.184v1.951h-0.976C94.227,730.216,94.227,724.619,94.227,724.619z M95.251,727.385
		c0.424,0,0.735-0.247,0.735-0.902v-0.064c0-0.703-0.336-0.888-0.76-0.888h-0.023v1.854H95.251z M97.411,724.619h2.143v0.928h-1.167
		v1.391h1.031v0.928h-1.031v1.423h1.191v0.928h-2.167V724.619z M99.931,730.023v-1.016c0.344,0.201,0.615,0.312,0.88,0.312
		c0.279,0,0.52-0.136,0.52-0.479v-0.017c0-0.256-0.08-0.447-0.544-0.975c-0.664-0.752-0.936-1.111-0.936-1.791v-0.017
		c0-0.896,0.584-1.463,1.359-1.463c0.392,0,0.624,0.056,0.863,0.176v1.016c-0.304-0.177-0.487-0.256-0.743-0.256
		c-0.272,0-0.504,0.176-0.504,0.479v0.016c0,0.264,0.08,0.36,0.544,0.896c0.768,0.887,0.936,1.23,0.936,1.87v0.017
		c0,0.879-0.616,1.463-1.384,1.463C100.539,730.256,100.212,730.16,99.931,730.023z M103.05,725.547h-0.688v-0.928h2.351v0.928
		h-0.688v4.669h-0.976v-4.669H103.05z M105.666,724.603h1.04l1.062,5.612h-0.975l-0.185-1.111h-0.888l-0.176,1.111h-0.943
		L105.666,724.603z M106.465,728.225l-0.296-1.847l-0.304,1.847H106.465z M108.01,728.585v-3.966h0.968v4.062
		c0,0.504,0.176,0.704,0.424,0.704s0.424-0.2,0.424-0.704v-4.062h0.968v3.966c0,1.175-0.592,1.702-1.392,1.702
		S108.01,729.76,108.01,728.585z M111.355,724.619h1.007c1,0,1.728,0.527,1.728,1.783v0.071c0,0.728-0.288,1.191-0.655,1.472
		l0.751,2.271h-1.039l-0.632-1.951h-0.184v1.951h-0.976C111.355,730.216,111.355,724.619,111.355,724.619z M112.379,727.385
		c0.424,0,0.735-0.247,0.735-0.902v-0.064c0-0.703-0.336-0.888-0.76-0.888h-0.023v1.854H112.379z M115.322,724.603h1.04l1.062,5.612
		h-0.975l-0.185-1.111h-0.888l-0.176,1.111h-0.943L115.322,724.603z M116.122,728.225l-0.296-1.847l-0.304,1.847H116.122z
		 M117.722,724.619h0.911l0.983,2.83v-2.83h0.952v5.597h-0.864l-1.031-2.966v2.966h-0.951L117.722,724.619L117.722,724.619z
		 M121.667,725.547h-0.688v-0.928h2.351v0.928h-0.688v4.669h-0.976v-4.669H121.667z"/>
	<path class="st2" d="M64.283,701.858v-0.288c0-1.847,0.6-2.734,1.487-2.734c0.888,0,1.487,0.888,1.487,2.734v0.288
		c0,1.847-0.6,2.734-1.487,2.734C64.882,704.593,64.283,703.705,64.283,701.858z M66.266,701.858v-0.288
		c0-1.439-0.2-1.839-0.496-1.839c-0.295,0-0.496,0.399-0.496,1.839v0.288c0,1.438,0.2,1.839,0.496,1.839
		C66.066,703.697,66.266,703.297,66.266,701.858z M67.738,698.916h0.872c1.063,0,1.807,0.575,1.807,1.887v0.016
		c0,1.264-0.704,1.863-1.695,1.936h-0.008v1.759h-0.976V698.916z M68.722,701.851c0.408-0.024,0.719-0.32,0.719-1v-0.016
		c0-0.712-0.272-1.016-0.695-1.016h-0.032v2.031L68.722,701.851L68.722,701.851z M70.818,698.916h2.143v0.928h-1.167v1.391h1.031
		v0.928h-1.031v1.423h1.191v0.928h-2.167V698.916z M73.459,698.916h0.911l0.983,2.83v-2.83h0.952v5.597h-0.863l-1.032-2.967v2.967
		h-0.951L73.459,698.916L73.459,698.916z M78.674,699.844h-0.688v-0.928h2.352v0.928H79.65v4.669h-0.976V699.844z M80.491,701.858
		v-0.288c0-1.847,0.6-2.734,1.486-2.734c0.888,0,1.487,0.888,1.487,2.734v0.288c0,1.847-0.6,2.734-1.487,2.734
		C81.09,704.593,80.491,703.705,80.491,701.858z M82.473,701.858v-0.288c0-1.439-0.2-1.839-0.496-1.839s-0.495,0.399-0.495,1.839
		v0.288c0,1.438,0.199,1.839,0.495,1.839S82.473,703.297,82.473,701.858z M59.975,706.916h0.912c1.247,0,1.959,0.903,1.959,2.702
		v0.192c0,1.799-0.712,2.702-1.959,2.702h-0.912V706.916z M60.99,711.617c0.464,0,0.864-0.408,0.864-1.807v-0.192
		c0-1.399-0.4-1.807-0.864-1.807h-0.04v3.806H60.99z M63.327,706.916h2.143v0.928h-1.167v1.391h1.032v0.928h-1.032v1.423h1.191
		v0.928h-2.167C63.327,712.514,63.327,706.916,63.327,706.916z M65.791,709.81v-0.192c0-1.967,0.728-2.742,1.639-2.742
		c0.272,0,0.432,0.032,0.64,0.128v1.007c-0.2-0.119-0.36-0.184-0.544-0.184c-0.432,0-0.744,0.384-0.744,1.783v0.208
		c0,1.479,0.312,1.783,0.76,1.783c0.152,0,0.344-0.057,0.544-0.176v0.959c-0.224,0.128-0.44,0.168-0.72,0.168
		C66.47,712.553,65.791,711.761,65.791,709.81z M68.574,706.916h0.976v2.343l0.792-2.343h1.104l-0.943,2.366l0.959,3.23h-1.087
		l-0.608-2.119l-0.216,0.616v1.503h-0.976L68.574,706.916L68.574,706.916z M73.854,706.899h1.04l1.063,5.613h-0.975l-0.184-1.111
		H73.91l-0.176,1.111h-0.943L73.854,706.899z M74.653,710.521l-0.295-1.847l-0.304,1.847H74.653z M76.255,706.916h0.848
		c0.943,0,1.823,0.384,1.823,1.423v0.04c0,0.72-0.408,1.071-0.808,1.264c0.472,0.208,0.879,0.535,0.879,1.247v0.072
		c0,0.991-0.768,1.551-1.854,1.551h-0.888V706.916z M77.246,709.267c0.432,0,0.72-0.248,0.72-0.735v-0.017
		c0-0.487-0.288-0.695-0.72-0.695H77.23v1.447H77.246z M77.254,711.609c0.448,0,0.768-0.264,0.768-0.728v-0.04
		c0-0.464-0.319-0.728-0.768-0.728H77.23v1.495h0.024V711.609z M79.31,709.858v-0.288c0-1.847,0.6-2.734,1.487-2.734
		s1.487,0.888,1.487,2.734v0.288c0,1.847-0.6,2.734-1.487,2.734S79.31,711.705,79.31,709.858z M81.294,709.858v-0.288
		c0-1.439-0.2-1.839-0.496-1.839s-0.495,0.399-0.495,1.839v0.288c0,1.438,0.199,1.839,0.495,1.839S81.294,711.297,81.294,709.858z
		 M82.407,706.916h0.991l0.527,3.646l0.528-3.646h0.959l-0.999,5.612h-1.008L82.407,706.916z M85.711,706.916h2.143v0.928h-1.167
		v1.391h1.031v0.928h-1.031v1.423h1.191v0.928h-2.167V706.916z"/>
	<path class="st2" d="M14.143,711.643h0.976v2.318h0.847v-2.318h0.976v5.597h-0.976v-2.351h-0.847v2.351h-0.976V711.643z
		 M17.519,711.643h2.143v0.927h-1.167v1.392h1.031v0.928h-1.031v1.423h1.191v0.928h-2.167V711.643z M20.942,711.627h1.039
		l1.063,5.613h-0.975l-0.185-1.111h-0.888l-0.176,1.111h-0.943L20.942,711.627z M21.741,715.25l-0.296-1.848l-0.304,1.848H21.741z
		 M23.343,711.643h0.911c1.247,0,1.959,0.903,1.959,2.702v0.191c0,1.8-0.712,2.703-1.959,2.703h-0.911V711.643z M24.359,716.345
		c0.463,0,0.863-0.407,0.863-1.808v-0.191c0-1.398-0.4-1.807-0.863-1.807h-0.04v3.806L24.359,716.345L24.359,716.345z
		 M26.694,711.643h0.976v4.669h1.031v0.928h-2.007V711.643z M29.11,711.643h0.976v5.597H29.11V711.643z M30.679,711.643h0.911
		l0.983,2.83v-2.83h0.952v5.597h-0.864l-1.031-2.967v2.967h-0.951C30.679,717.24,30.679,711.643,30.679,711.643z M34.103,711.643
		h2.143v0.927h-1.167v1.392h1.031v0.928h-1.031v1.423h1.191v0.928h-2.167C34.103,717.241,34.103,711.643,34.103,711.643z
		 M36.742,711.643h1.007c1,0,1.728,0.527,1.728,1.782v0.072c0,0.729-0.288,1.191-0.656,1.472l0.752,2.271h-1.039l-0.632-1.951
		h-0.184v1.951h-0.976V711.643z M37.766,714.41c0.424,0,0.735-0.248,0.735-0.904v-0.063c0-0.704-0.336-0.888-0.76-0.888h-0.023
		v1.855H37.766z M39.806,717.049v-1.016c0.344,0.199,0.615,0.312,0.88,0.312c0.279,0,0.52-0.136,0.52-0.479v-0.016
		c0-0.256-0.08-0.448-0.544-0.977c-0.664-0.751-0.936-1.111-0.936-1.791v-0.016c0-0.896,0.584-1.463,1.359-1.463
		c0.392,0,0.624,0.056,0.863,0.176v1.016c-0.304-0.176-0.487-0.256-0.743-0.256c-0.272,0-0.504,0.176-0.504,0.479v0.017
		c0,0.264,0.08,0.359,0.544,0.895c0.768,0.888,0.936,1.231,0.936,1.871v0.016c0,0.88-0.616,1.464-1.384,1.464
		C40.413,717.28,40.086,717.184,39.806,717.049z M12.547,722.537v-0.191c0-1.967,0.728-2.742,1.639-2.742
		c0.271,0,0.432,0.031,0.64,0.128v1.007c-0.2-0.119-0.36-0.184-0.544-0.184c-0.432,0-0.743,0.384-0.743,1.783v0.208
		c0,1.479,0.312,1.782,0.76,1.782c0.151,0,0.344-0.055,0.543-0.176v0.96c-0.224,0.128-0.439,0.168-0.72,0.168
		C13.226,725.28,12.547,724.488,12.547,722.537z M15.035,722.586v-0.288c0-1.847,0.6-2.734,1.486-2.734
		c0.888,0,1.487,0.888,1.487,2.734v0.288c0,1.847-0.6,2.734-1.487,2.734C15.635,725.32,15.035,724.433,15.035,722.586z
		 M17.018,722.586v-0.288c0-1.439-0.2-1.839-0.496-1.839s-0.495,0.399-0.495,1.839v0.288c0,1.439,0.199,1.839,0.495,1.839
		S17.018,724.025,17.018,722.586z M18.49,719.643h0.967l0.688,2.047l0.688-2.047H21.8v5.597h-0.936v-3.383l-0.711,2.119h-0.017
		l-0.711-2.119v3.383H18.49V719.643z M22.379,719.643h2.143v0.927h-1.167v1.392h1.031v0.928h-1.031v1.423h1.191v0.928h-2.167
		V719.643z M25.019,719.643h0.911c1.247,0,1.959,0.903,1.959,2.702v0.191c0,1.8-0.712,2.703-1.959,2.703h-0.911V719.643z
		 M26.034,724.345c0.463,0,0.863-0.407,0.863-1.808v-0.191c0-1.398-0.4-1.807-0.863-1.807h-0.04v3.806L26.034,724.345
		L26.034,724.345z M28.961,723.033l-1.039-3.39h1.008l0.527,2.095l0.536-2.095h0.983l-1.04,3.39v2.207H28.96L28.961,723.033
		L28.961,723.033z M32.442,722.537v-0.191c0-1.967,0.729-2.742,1.64-2.742c0.271,0,0.432,0.031,0.64,0.128v1.007
		c-0.2-0.119-0.359-0.184-0.544-0.184c-0.432,0-0.743,0.384-0.743,1.783v0.208c0,1.479,0.312,1.782,0.76,1.782
		c0.151,0,0.344-0.055,0.543-0.176v0.96c-0.224,0.128-0.439,0.168-0.72,0.168C33.121,725.28,32.442,724.488,32.442,722.537z
		 M35.227,719.643h0.976v4.669h1.031v0.928h-2.007V719.643z M37.529,723.609v-3.966h0.968v4.062c0,0.504,0.176,0.703,0.424,0.703
		s0.424-0.199,0.424-0.703v-4.062h0.968v3.966c0,1.176-0.592,1.703-1.392,1.703S37.529,724.785,37.529,723.609z M40.874,719.643
		h0.848c0.943,0,1.822,0.384,1.822,1.423v0.04c0,0.72-0.407,1.071-0.808,1.263c0.473,0.209,0.88,0.536,0.88,1.248v0.072
		c0,0.991-0.768,1.551-1.854,1.551h-0.888V719.643z M41.865,721.994c0.432,0,0.72-0.248,0.72-0.736v-0.016
		c0-0.487-0.288-0.695-0.72-0.695H41.85v1.447H41.865z M41.873,724.337c0.448,0,0.768-0.265,0.768-0.728v-0.04
		c0-0.464-0.319-0.728-0.768-0.728H41.85v1.495h0.023V724.337z"/>
	<path class="st2" d="M105.996,754.332h-0.688v-0.927h2.351v0.927h-0.688v4.67h-0.976v-4.67H105.996z M108.068,753.405h2.143v0.927
		h-1.167v1.392h1.031v0.928h-1.031v1.423h1.191v0.928h-2.167V753.405z M110.708,753.405h0.871c1.063,0,1.808,0.575,1.808,1.887
		v0.017c0,1.263-0.704,1.862-1.695,1.935h-0.008v1.759h-0.976V753.405z M111.691,756.34c0.407-0.024,0.72-0.32,0.72-1v-0.016
		c0-0.712-0.272-1.016-0.696-1.016h-0.031v2.031L111.691,756.34L111.691,756.34z M113.788,753.405h0.871
		c1.063,0,1.808,0.575,1.808,1.887v0.017c0,1.263-0.704,1.862-1.695,1.935h-0.008v1.759h-0.976V753.405z M114.771,756.34
		c0.407-0.024,0.72-0.32,0.72-1v-0.016c0-0.712-0.272-1.016-0.696-1.016h-0.031v2.031L114.771,756.34L114.771,756.34z
		 M117.371,753.389h1.04l1.062,5.613h-0.975l-0.185-1.111h-0.888l-0.176,1.111h-0.943L117.371,753.389z M118.171,757.012
		l-0.296-1.848l-0.304,1.848H118.171z M119.772,753.405h0.911l0.983,2.83v-2.83h0.951v5.597h-0.863l-1.031-2.967v2.967h-0.951
		C119.772,759.002,119.772,753.405,119.772,753.405z M123.947,756.795l-1.039-3.39h1.008l0.527,2.095l0.536-2.095h0.983l-1.04,3.39
		v2.207h-0.976L123.947,756.795L123.947,756.795z M126.715,753.389h1.039l1.063,5.613h-0.975l-0.185-1.111h-0.888l-0.176,1.111
		h-0.943L126.715,753.389z M127.515,757.012l-0.296-1.848l-0.304,1.848H127.515z M129.116,753.405h0.976v2.343l0.791-2.343h1.104
		l-0.943,2.366l0.959,3.23h-1.087l-0.607-2.119l-0.216,0.616v1.503h-0.976v-5.596H129.116z M132.355,753.405h0.976v5.597h-0.976
		V753.405z"/>
	<path class="st2" d="M69.781,841.007h0.967l0.688,2.047l0.688-2.047h0.968v5.597h-0.936v-3.382l-0.711,2.118h-0.016l-0.712-2.118
		v3.382h-0.935v-5.597H69.781z M73.685,841.007h0.976v5.597h-0.976V841.007z M75.941,843.749l-0.879-2.742h1.04l0.44,1.615
		l0.447-1.615h1.016l-0.88,2.742l0.912,2.854h-1.04l-0.471-1.703l-0.48,1.703h-1.015L75.941,843.749z M79.037,843.749l-0.88-2.742
		h1.04l0.439,1.615l0.448-1.615h1.015l-0.879,2.742l0.911,2.854h-1.039L79.62,844.9l-0.48,1.703h-1.015L79.037,843.749z
		 M70.893,849.007h0.848c0.943,0,1.823,0.384,1.823,1.423v0.04c0,0.72-0.408,1.071-0.808,1.264c0.472,0.208,0.88,0.535,0.88,1.247
		v0.072c0,0.991-0.768,1.551-1.855,1.551h-0.888C70.893,854.604,70.893,849.007,70.893,849.007z M71.884,851.357
		c0.432,0,0.72-0.248,0.72-0.735v-0.017c0-0.487-0.288-0.695-0.72-0.695h-0.016v1.447H71.884z M71.893,853.7
		c0.448,0,0.768-0.264,0.768-0.728v-0.04c0-0.464-0.32-0.728-0.768-0.728h-0.024v1.495h0.024V853.7z M74.789,848.99h1.04
		l1.063,5.613h-0.975l-0.184-1.111h-0.887l-0.176,1.111h-0.944L74.789,848.99z M75.589,852.612l-0.296-1.847l-0.304,1.847H75.589z
		 M77.189,849.007h1.008c0.999,0,1.727,0.527,1.727,1.783v0.071c0,0.728-0.287,1.191-0.655,1.472l0.751,2.271h-1.04l-0.632-1.951
		h-0.184v1.951h-0.976L77.189,849.007L77.189,849.007z M78.213,851.773c0.424,0,0.735-0.248,0.735-0.904v-0.063
		c0-0.704-0.335-0.888-0.759-0.888h-0.024v1.855H78.213z"/>
	<path class="st2" d="M120.887,888.543H120.2v-0.927h2.351v0.927h-0.688v4.67h-0.976
		C120.887,893.213,120.887,888.543,120.887,888.543z M123.503,887.6h1.04l1.062,5.613h-0.975l-0.185-1.111h-0.888l-0.176,1.111
		h-0.943L123.503,887.6z M124.302,891.223l-0.296-1.848l-0.304,1.848H124.302z M125.784,893.021v-1.016
		c0.344,0.199,0.615,0.312,0.88,0.312c0.279,0,0.52-0.136,0.52-0.479v-0.016c0-0.256-0.08-0.448-0.544-0.977
		c-0.664-0.751-0.936-1.111-0.936-1.791v-0.016c0-0.896,0.584-1.463,1.359-1.463c0.392,0,0.624,0.056,0.863,0.176v1.016
		c-0.304-0.176-0.487-0.256-0.743-0.256c-0.272,0-0.504,0.176-0.504,0.479v0.017c0,0.264,0.08,0.359,0.544,0.895
		c0.768,0.888,0.936,1.231,0.936,1.871v0.016c0,0.88-0.616,1.464-1.384,1.464C126.391,893.253,126.064,893.156,125.784,893.021z
		 M128.903,888.543h-0.688v-0.927h2.351v0.927h-0.688v4.67h-0.976v-4.67H128.903z M130.975,887.616h2.143v0.927h-1.167v1.392h1.031
		v0.928h-1.031v1.423h1.191v0.928h-2.167L130.975,887.616L130.975,887.616z M112.236,895.616h1.007c1,0,1.728,0.527,1.728,1.782
		v0.072c0,0.729-0.288,1.191-0.656,1.472l0.752,2.271h-1.039l-0.632-1.951h-0.184v1.951h-0.976
		C112.236,901.213,112.236,895.616,112.236,895.616z M113.259,898.383c0.424,0,0.735-0.248,0.735-0.904v-0.063
		c0-0.704-0.336-0.888-0.76-0.888h-0.023v1.855H113.259z M115.42,895.616h2.143v0.927h-1.167v1.392h1.031v0.928h-1.031v1.423h1.191
		v0.928h-2.167V895.616z M117.94,901.021v-1.016c0.344,0.199,0.615,0.312,0.88,0.312c0.279,0,0.52-0.136,0.52-0.479v-0.016
		c0-0.256-0.08-0.448-0.544-0.977c-0.664-0.751-0.936-1.111-0.936-1.791v-0.016c0-0.896,0.584-1.463,1.359-1.463
		c0.392,0,0.624,0.056,0.863,0.176v1.016c-0.304-0.176-0.487-0.256-0.743-0.256c-0.272,0-0.504,0.176-0.504,0.479v0.017
		c0,0.264,0.08,0.359,0.544,0.895c0.768,0.888,0.936,1.231,0.936,1.871v0.016c0,0.88-0.616,1.464-1.384,1.464
		C118.547,901.253,118.22,901.156,117.94,901.021z M121.059,896.543h-0.688v-0.927h2.351v0.927h-0.688v4.67h-0.976v-4.67H121.059z
		 M123.674,895.6h1.04l1.062,5.613h-0.975l-0.185-1.111h-0.888l-0.176,1.111h-0.943L123.674,895.6z M124.474,899.223l-0.296-1.848
		l-0.304,1.848H124.474z M126.019,899.582v-3.966h0.968v4.062c0,0.504,0.176,0.703,0.424,0.703s0.424-0.199,0.424-0.703v-4.062
		h0.968v3.966c0,1.176-0.592,1.703-1.392,1.703S126.019,900.758,126.019,899.582z M129.364,895.616h1.007
		c1,0,1.728,0.527,1.728,1.782v0.072c0,0.729-0.288,1.191-0.655,1.472l0.751,2.271h-1.039l-0.632-1.951h-0.184v1.951h-0.976V895.616
		z M130.387,898.383c0.424,0,0.735-0.248,0.735-0.904v-0.063c0-0.704-0.336-0.888-0.76-0.888h-0.023v1.855H130.387z M133.331,895.6
		h1.04l1.062,5.613h-0.975l-0.185-1.111h-0.888l-0.176,1.111h-0.943L133.331,895.6z M134.13,899.223l-0.296-1.848l-0.304,1.848
		H134.13z M135.731,895.616h0.911l0.983,2.83v-2.83h0.952v5.597h-0.864l-1.031-2.967v2.967h-0.951L135.731,895.616L135.731,895.616z
		 M139.675,896.543h-0.688v-0.927h2.351v0.927h-0.688v4.67h-0.976v-4.67H139.675z"/>
	<path class="st2" d="M35.405,443.701h1.007c1,0,1.728,0.527,1.728,1.783v0.072c0,0.728-0.288,1.191-0.656,1.472l0.752,2.271h-1.039
		l-0.632-1.951H36.38v1.951h-0.976L35.405,443.701L35.405,443.701z M36.428,446.467c0.424,0,0.735-0.248,0.735-0.903V445.5
		c0-0.704-0.336-0.888-0.76-0.888H36.38v1.855H36.428z M38.589,443.701h1.007c1,0,1.728,0.527,1.728,1.783v0.072
		c0,0.728-0.288,1.191-0.656,1.472l0.752,2.271h-1.04l-0.632-1.951h-0.184v1.951h-0.976L38.589,443.701L38.589,443.701z
		 M39.612,446.467c0.424,0,0.735-0.248,0.735-0.903V445.5c0-0.704-0.336-0.888-0.76-0.888h-0.023v1.855H39.612z"/>
	<path class="st2" d="M10.072,446.021h1.007c1,0,1.728,0.527,1.728,1.783v0.072c0,0.728-0.288,1.191-0.656,1.472l0.752,2.271h-1.039
		l-0.632-1.951h-0.184v1.951h-0.976C10.072,451.619,10.072,446.021,10.072,446.021z M11.096,448.788
		c0.424,0,0.735-0.248,0.735-0.903v-0.064c0-0.704-0.336-0.888-0.76-0.888h-0.023v1.855H11.096z M13.256,446.021h1.007
		c1,0,1.728,0.527,1.728,1.783v0.072c0,0.728-0.288,1.191-0.656,1.472l0.752,2.271h-1.039l-0.632-1.951h-0.184v1.951h-0.976
		C13.256,451.619,13.256,446.021,13.256,446.021z M14.279,448.788c0.424,0,0.735-0.248,0.735-0.903v-0.064
		c0-0.704-0.336-0.888-0.76-0.888h-0.023v1.855H14.279z"/>
	<path class="st2" d="M128.144,468.417v-0.192c0-1.967,0.729-2.742,1.64-2.742c0.271,0,0.432,0.032,0.64,0.128v1.007
		c-0.2-0.12-0.359-0.184-0.544-0.184c-0.432,0-0.743,0.384-0.743,1.783v0.208c0,1.479,0.312,1.783,0.76,1.783
		c0.151,0,0.344-0.056,0.543-0.176v0.959c-0.224,0.128-0.439,0.168-0.72,0.168C128.824,471.16,128.144,470.369,128.144,468.417z
		 M131.712,465.507h1.04l1.062,5.613h-0.975l-0.185-1.111h-0.888l-0.176,1.111h-0.943L131.712,465.507z M132.511,469.129
		l-0.296-1.847l-0.304,1.847H132.511z M134.113,465.523h1.007c1,0,1.728,0.527,1.728,1.783v0.072c0,0.728-0.288,1.191-0.656,1.472
		l0.752,2.271h-1.039l-0.632-1.951h-0.184v1.951h-0.976L134.113,465.523L134.113,465.523z M135.136,468.29
		c0.424,0,0.735-0.248,0.735-0.903v-0.064c0-0.704-0.336-0.888-0.76-0.888h-0.023v1.855H135.136z M137.297,465.523h0.911
		c1.247,0,1.959,0.903,1.959,2.702v0.192c0,1.799-0.712,2.703-1.959,2.703h-0.911V465.523z M138.312,470.225
		c0.463,0,0.863-0.408,0.863-1.807v-0.192c0-1.399-0.4-1.807-0.863-1.807h-0.04v3.806H138.312z M127.549,473.523h1.007
		c1,0,1.728,0.527,1.728,1.783v0.072c0,0.728-0.288,1.191-0.655,1.472l0.751,2.271h-1.039l-0.632-1.951h-0.184v1.951h-0.976
		C127.549,479.121,127.549,473.523,127.549,473.523z M128.573,476.29c0.424,0,0.735-0.248,0.735-0.903v-0.064
		c0-0.704-0.336-0.888-0.76-0.888h-0.023v1.855H128.573z M130.636,476.466v-0.288c0-1.847,0.601-2.734,1.487-2.734
		c0.888,0,1.487,0.887,1.487,2.734v0.288c0,1.847-0.6,2.734-1.487,2.734C131.237,479.2,130.636,478.312,130.636,476.466z
		 M132.62,476.466v-0.288c0-1.439-0.2-1.839-0.496-1.839s-0.495,0.399-0.495,1.839v0.288c0,1.439,0.199,1.839,0.495,1.839
		S132.62,477.905,132.62,476.466z M133.998,476.466v-0.288c0-1.847,0.6-2.734,1.486-2.734c0.888,0,1.487,0.887,1.487,2.734v0.288
		c0,1.847-0.6,2.734-1.487,2.734S133.998,478.312,133.998,476.466z M135.98,476.466v-0.288c0-1.439-0.2-1.839-0.496-1.839
		s-0.495,0.399-0.495,1.839v0.288c0,1.439,0.199,1.839,0.495,1.839S135.98,477.905,135.98,476.466z M137.454,473.523h0.967
		l0.688,2.047l0.688-2.047h0.967v5.597h-0.936v-3.382l-0.711,2.119H139.1l-0.711-2.119v3.382h-0.936L137.454,473.523
		L137.454,473.523z"/>
	<path class="st2" d="M120.29,497.013h0.764c0.932,0,1.583,0.504,1.583,1.652v0.015c0,1.106-0.616,1.632-1.485,1.694h-0.007v1.541
		h-0.854L120.29,497.013L120.29,497.013z M121.151,499.583c0.357-0.021,0.631-0.28,0.631-0.875v-0.015
		c0-0.623-0.238-0.89-0.609-0.89h-0.028v1.779h0.006V499.583z M122.985,497.013h1.877v0.812h-1.022v1.219h0.903v0.812h-0.903v1.246
		h1.044v0.812h-1.898L122.985,497.013L122.985,497.013z M125.295,497.013h0.883c0.875,0,1.513,0.462,1.513,1.562v0.063
		c0,0.637-0.252,1.043-0.574,1.288l0.658,1.989h-0.91l-0.554-1.709h-0.161v1.709h-0.854L125.295,497.013L125.295,497.013z
		 M126.191,499.436c0.371,0,0.645-0.217,0.645-0.791v-0.056c0-0.617-0.294-0.777-0.665-0.777h-0.021v1.624H126.191z
		 M127.976,501.747v-0.89c0.301,0.176,0.539,0.273,0.771,0.273c0.245,0,0.455-0.119,0.455-0.42v-0.015
		c0-0.224-0.07-0.392-0.477-0.854c-0.581-0.658-0.819-0.974-0.819-1.568v-0.014c0-0.785,0.511-1.282,1.19-1.282
		c0.344,0,0.547,0.049,0.757,0.154v0.89c-0.267-0.154-0.428-0.225-0.651-0.225c-0.238,0-0.441,0.154-0.441,0.42v0.015
		c0,0.231,0.07,0.315,0.477,0.784c0.672,0.777,0.819,1.079,0.819,1.639v0.015c0,0.771-0.54,1.281-1.212,1.281
		C128.508,501.95,128.221,501.866,127.976,501.747z M130.355,497.013h0.764c0.932,0,1.583,0.504,1.583,1.652v0.015
		c0,1.106-0.616,1.632-1.485,1.694h-0.007v1.541h-0.854L130.355,497.013L130.355,497.013z M131.216,499.583
		c0.357-0.021,0.631-0.28,0.631-0.875v-0.015c0-0.623-0.238-0.89-0.609-0.89h-0.028v1.779h0.006V499.583z M133.05,497.013h1.877
		v0.812h-1.022v1.219h0.903v0.812h-0.903v1.246h1.044v0.812h-1.898v-4.901H133.05z M135.207,499.548v-0.168
		c0-1.723,0.638-2.402,1.436-2.402c0.238,0,0.379,0.028,0.561,0.112v0.882c-0.175-0.104-0.315-0.16-0.477-0.16
		c-0.378,0-0.651,0.336-0.651,1.562v0.182c0,1.296,0.273,1.562,0.666,1.562c0.133,0,0.301-0.05,0.476-0.154v0.84
		c-0.195,0.112-0.385,0.147-0.63,0.147C135.802,501.95,135.207,501.257,135.207,499.548z M138.097,497.825h-0.602v-0.812h2.059
		v0.812h-0.603v4.09h-0.854V497.825z M139.925,497.013h0.854v4.902h-0.854V497.013z M141.051,497.013h0.868l0.463,3.193l0.462-3.193
		h0.841l-0.876,4.917h-0.882L141.051,497.013z M143.942,497.013h1.877v0.812h-1.022v1.219h0.903v0.812h-0.903v1.246h1.044v0.812
		h-1.898v-4.901H143.942z M146.148,501.747v-0.89c0.301,0.176,0.539,0.273,0.771,0.273c0.245,0,0.455-0.119,0.455-0.42v-0.015
		c0-0.224-0.07-0.392-0.477-0.854c-0.581-0.658-0.819-0.974-0.819-1.568v-0.014c0-0.785,0.511-1.282,1.19-1.282
		c0.344,0,0.547,0.049,0.757,0.154v0.89c-0.267-0.154-0.428-0.225-0.651-0.225c-0.238,0-0.441,0.154-0.441,0.42v0.015
		c0,0.231,0.07,0.315,0.477,0.784c0.672,0.777,0.819,1.079,0.819,1.639v0.015c0,0.771-0.54,1.281-1.212,1.281
		C146.68,501.95,146.393,501.866,146.148,501.747z M127.65,505.013h0.764c0.932,0,1.583,0.504,1.583,1.652v0.015
		c0,1.106-0.616,1.632-1.485,1.694h-0.007v1.541h-0.854L127.65,505.013L127.65,505.013z M128.511,507.583
		c0.357-0.021,0.631-0.28,0.631-0.875v-0.015c0-0.623-0.238-0.89-0.609-0.89h-0.028v1.779h0.006V507.583z M130.345,505.013h0.854
		v2.031h0.742v-2.031h0.854v4.902h-0.854v-2.059H131.2v2.059h-0.854L130.345,505.013L130.345,505.013z M133.215,507.59v-0.252
		c0-1.618,0.525-2.396,1.303-2.396s1.303,0.777,1.303,2.396v0.252c0,1.618-0.525,2.396-1.303,2.396S133.215,509.208,133.215,507.59z
		 M134.953,507.59v-0.252c0-1.261-0.176-1.611-0.435-1.611s-0.435,0.351-0.435,1.611v0.252c0,1.261,0.176,1.611,0.435,1.611
		S134.953,508.851,134.953,507.59z M136.554,505.825h-0.602v-0.812h2.059v0.812h-0.603v4.09h-0.854V505.825z M138.143,507.59v-0.252
		c0-1.618,0.525-2.396,1.303-2.396s1.303,0.777,1.303,2.396v0.252c0,1.618-0.525,2.396-1.303,2.396S138.143,509.208,138.143,507.59z
		 M139.88,507.59v-0.252c0-1.261-0.176-1.611-0.435-1.611s-0.435,0.351-0.435,1.611v0.252c0,1.261,0.176,1.611,0.435,1.611
		S139.88,508.851,139.88,507.59z M127,517.747v-0.89c0.301,0.176,0.539,0.273,0.771,0.273c0.245,0,0.455-0.119,0.455-0.42v-0.015
		c0-0.224-0.07-0.392-0.477-0.854c-0.581-0.658-0.819-0.974-0.819-1.568v-0.014c0-0.785,0.511-1.282,1.19-1.282
		c0.344,0,0.547,0.049,0.757,0.154v0.89c-0.267-0.154-0.428-0.225-0.651-0.225c-0.238,0-0.441,0.154-0.441,0.42v0.015
		c0,0.231,0.07,0.315,0.477,0.784c0.672,0.777,0.819,1.079,0.819,1.639v0.015c0,0.771-0.54,1.281-1.212,1.281
		C127.532,517.95,127.245,517.866,127,517.747z M129.729,513.825h-0.602v-0.812h2.059v0.812h-0.603v4.09h-0.854V513.825z
		 M131.528,516.486v-3.474h0.848v3.558c0,0.441,0.153,0.616,0.371,0.616c0.217,0,0.371-0.175,0.371-0.616v-3.558h0.848v3.474
		c0,1.029-0.519,1.492-1.219,1.492S131.528,517.516,131.528,516.486z M134.454,513.013h0.799c1.093,0,1.716,0.791,1.716,2.367v0.168
		c0,1.576-0.623,2.367-1.716,2.367h-0.799V513.013z M135.343,517.131c0.406,0,0.757-0.357,0.757-1.583v-0.168
		c0-1.226-0.351-1.583-0.757-1.583h-0.035v3.334L135.343,517.131L135.343,517.131z M137.402,513.013h0.854v4.902h-0.854V513.013z
		 M138.689,515.59v-0.252c0-1.618,0.525-2.396,1.303-2.396s1.303,0.777,1.303,2.396v0.252c0,1.618-0.525,2.396-1.303,2.396
		S138.689,517.208,138.689,515.59z M140.426,515.59v-0.252c0-1.261-0.176-1.611-0.435-1.611s-0.435,0.351-0.435,1.611v0.252
		c0,1.261,0.176,1.611,0.435,1.611S140.426,516.851,140.426,515.59z"/>
	<path class="st2" d="M18.115,892.725v-1.016c0.344,0.201,0.615,0.312,0.88,0.312c0.279,0,0.52-0.136,0.52-0.479v-0.017
		c0-0.256-0.08-0.447-0.544-0.975c-0.664-0.752-0.936-1.111-0.936-1.791v-0.017c0-0.896,0.584-1.463,1.359-1.463
		c0.392,0,0.624,0.056,0.863,0.176v1.016c-0.304-0.177-0.487-0.256-0.743-0.256c-0.272,0-0.504,0.176-0.504,0.479v0.016
		c0,0.264,0.08,0.36,0.544,0.896c0.768,0.887,0.936,1.23,0.936,1.87v0.017c0,0.879-0.616,1.463-1.384,1.463
		C18.723,892.957,18.396,892.861,18.115,892.725z M21.618,887.305h1.039l1.063,5.612h-0.975l-0.185-1.111h-0.888l-0.176,1.111
		h-0.943L21.618,887.305z M22.418,890.926l-0.296-1.847l-0.304,1.847H22.418z M23.659,887.32h0.991l0.528,3.646l0.527-3.646h0.96
		l-1,5.613h-1.007L23.659,887.32z M26.786,890.263v-0.288c0-1.848,0.601-2.734,1.487-2.734c0.888,0,1.487,0.887,1.487,2.734v0.288
		c0,1.847-0.6,2.734-1.487,2.734C27.387,892.997,26.786,892.109,26.786,890.263z M28.77,890.263v-0.288
		c0-1.439-0.2-1.839-0.496-1.839s-0.495,0.399-0.495,1.839v0.288c0,1.438,0.199,1.839,0.495,1.839S28.77,891.701,28.77,890.263z
		 M30.243,887.32h1.007c1,0,1.728,0.527,1.728,1.783v0.071c0,0.728-0.288,1.191-0.656,1.472l0.752,2.271h-1.039l-0.632-1.951h-0.184
		v1.951h-0.976V887.32z M31.267,890.086c0.424,0,0.735-0.247,0.735-0.902v-0.064c0-0.703-0.336-0.888-0.76-0.888h-0.023v1.854
		H31.267z M11.075,895.32h1.007c1,0,1.728,0.527,1.728,1.783v0.071c0,0.728-0.288,1.191-0.656,1.472l0.752,2.271h-1.039
		l-0.632-1.951h-0.184v1.951h-0.976C11.075,900.917,11.075,895.32,11.075,895.32z M12.099,898.086c0.424,0,0.735-0.247,0.735-0.902
		v-0.064c0-0.703-0.336-0.888-0.76-0.888h-0.023v1.854H12.099z M14.259,895.32h2.143v0.928h-1.167v1.391h1.031v0.928h-1.031v1.423
		h1.191v0.928h-2.167C14.259,900.918,14.259,895.32,14.259,895.32z M16.779,900.725v-1.016c0.344,0.201,0.615,0.312,0.88,0.312
		c0.279,0,0.52-0.136,0.52-0.479v-0.017c0-0.256-0.08-0.447-0.544-0.975c-0.664-0.752-0.936-1.111-0.936-1.791v-0.017
		c0-0.896,0.584-1.463,1.359-1.463c0.392,0,0.624,0.056,0.863,0.176v1.016c-0.304-0.177-0.487-0.256-0.743-0.256
		c-0.272,0-0.504,0.176-0.504,0.479v0.016c0,0.264,0.08,0.36,0.544,0.896c0.768,0.887,0.936,1.23,0.936,1.87v0.017
		c0,0.879-0.616,1.463-1.384,1.463C17.387,900.957,17.06,900.861,16.779,900.725z M19.899,896.248h-0.688v-0.928h2.351v0.928h-0.688
		v4.669h-0.976L19.899,896.248L19.899,896.248z M22.514,895.305h1.04l1.062,5.612h-0.975l-0.185-1.111h-0.888l-0.176,1.111H21.45
		L22.514,895.305z M23.314,898.926l-0.296-1.847l-0.304,1.847H23.314z M24.859,899.286v-3.966h0.968v4.062
		c0,0.504,0.176,0.704,0.424,0.704s0.424-0.2,0.424-0.704v-4.062h0.968v3.966c0,1.175-0.592,1.702-1.392,1.702
		S24.859,900.461,24.859,899.286z M28.203,895.32h1.007c1,0,1.728,0.527,1.728,1.783v0.071c0,0.728-0.288,1.191-0.655,1.472
		l0.751,2.271h-1.039l-0.632-1.951h-0.184v1.951h-0.976V895.32z M29.227,898.086c0.424,0,0.735-0.247,0.735-0.902v-0.064
		c0-0.703-0.336-0.888-0.76-0.888h-0.023v1.854H29.227z M32.17,895.305h1.04l1.062,5.612h-0.975l-0.185-1.111h-0.888l-0.176,1.111
		h-0.943L32.17,895.305z M32.97,898.926l-0.296-1.847l-0.304,1.847H32.97z M34.57,895.32h0.911l0.983,2.83v-2.83h0.952v5.597h-0.864
		l-1.031-2.966v2.966H34.57V895.32z M38.515,896.248h-0.688v-0.928h2.351v0.928H39.49v4.669h-0.976L38.515,896.248L38.515,896.248z"
		/>
	<path class="st2" d="M64.756,268.635v-0.192c0-1.807,0.768-2.742,1.871-2.742c0.296,0,0.544,0.064,0.744,0.16v1.016
		c-0.24-0.144-0.456-0.24-0.711-0.24c-0.56,0-0.912,0.56-0.912,1.767v0.272c0,1.463,0.432,1.799,0.832,1.799
		c0.032,0,0.04,0,0.088-0.008v-1.431h-0.479v-0.872h1.367v2.975c-0.352,0.152-0.64,0.24-1.016,0.24
		C65.564,271.377,64.756,270.586,64.756,268.635z M68.092,265.74h2.143v0.928h-1.167v1.391h1.031v0.928h-1.031v1.423h1.191v0.927
		h-2.167V265.74z M71.252,266.668h-0.688v-0.928h2.351v0.928h-0.688v4.669h-0.976v-4.669H71.252z M73.868,265.725h1.04l1.063,5.613
		h-0.976l-0.184-1.111h-0.888l-0.176,1.111h-0.944L73.868,265.725z M74.668,269.347l-0.296-1.847l-0.304,1.847H74.668z
		 M75.964,265.74h1l0.407,3.43l0.488-3.43h0.903l0.479,3.43l0.416-3.43h0.976l-0.848,5.613h-1.023l-0.464-3.318l-0.464,3.318h-1.023
		L75.964,265.74z M81.668,265.725h1.04l1.063,5.613h-0.976l-0.184-1.111h-0.888l-0.176,1.111h-0.943L81.668,265.725z
		 M82.467,269.347l-0.296-1.847l-0.304,1.847H82.467z M84.5,269.131l-1.039-3.391h1.008l0.527,2.095l0.536-2.095h0.983l-1.04,3.391
		v2.207H84.5V269.131z M66.364,274.668h-0.688v-0.928h2.351v0.928H67.34v4.669h-0.976V274.668z M68.437,273.74h0.976v2.319h0.847
		v-2.319h0.976v5.597H70.26v-2.351h-0.847v2.351h-0.976V273.74z M71.813,273.74h2.143v0.928h-1.167v1.391h1.031v0.928h-1.031v1.423
		h1.191v0.927h-2.167V273.74z M75.236,273.725h1.04l1.063,5.613h-0.975l-0.184-1.111h-0.887l-0.176,1.111h-0.944L75.236,273.725z
		 M76.036,277.347L75.74,275.5l-0.304,1.847H76.036z M77.917,274.668h-0.688v-0.928h2.352v0.928h-0.688v4.669h-0.975L77.917,274.668
		L77.917,274.668z M79.988,273.74h2.144v0.928h-1.168v1.391h1.032v0.928h-1.032v1.423h1.191v0.927h-2.167V273.74z M82.629,273.74
		h1.007c1,0,1.728,0.528,1.728,1.783v0.072c0,0.728-0.288,1.191-0.656,1.471l0.752,2.271h-1.04l-0.632-1.951h-0.184v1.951h-0.976
		L82.629,273.74L82.629,273.74z M83.652,276.507c0.424,0,0.735-0.248,0.735-0.903v-0.064c0-0.704-0.336-0.888-0.76-0.888h-0.023
		v1.855H83.652z"/>
	<path class="st2" d="M37.395,540.486v-1.016c0.344,0.2,0.615,0.312,0.88,0.312c0.279,0,0.52-0.136,0.52-0.479v-0.016
		c0-0.256-0.08-0.448-0.544-0.976c-0.664-0.751-0.936-1.111-0.936-1.791v-0.016c0-0.896,0.584-1.463,1.359-1.463
		c0.392,0,0.624,0.056,0.863,0.176v1.016c-0.304-0.176-0.487-0.256-0.743-0.256c-0.272,0-0.504,0.176-0.504,0.479v0.016
		c0,0.264,0.08,0.36,0.544,0.896c0.768,0.887,0.936,1.231,0.936,1.871v0.016c0,0.879-0.616,1.463-1.384,1.463
		C38.003,540.718,37.674,540.622,37.395,540.486z M40.115,535.081h0.976v2.318h0.848v-2.318h0.975v5.597h-0.975v-2.351H41.09v2.351
		h-0.976v-5.597H40.115z M43.395,538.023v-0.288c0-1.847,0.6-2.734,1.486-2.734c0.888,0,1.487,0.887,1.487,2.734v0.288
		c0,1.847-0.6,2.734-1.487,2.734C43.995,540.758,43.395,539.87,43.395,538.023z M45.378,538.023v-0.288
		c0-1.439-0.2-1.839-0.496-1.839s-0.495,0.399-0.495,1.839v0.288c0,1.439,0.199,1.839,0.495,1.839S45.378,539.462,45.378,538.023z
		 M46.851,535.081h1.007c1,0,1.728,0.527,1.728,1.783v0.072c0,0.728-0.288,1.191-0.655,1.472l0.751,2.271h-1.039l-0.632-1.951
		h-0.184v1.951h-0.976V535.081z M47.875,537.847c0.424,0,0.735-0.248,0.735-0.903v-0.064c0-0.704-0.336-0.888-0.76-0.888h-0.023
		v1.855L47.875,537.847L47.875,537.847z M50.035,535.081h2.143v0.927H51.01v1.391h1.031v0.928H51.01v1.423h1.191v0.928h-2.167
		v-5.597H50.035z M32.839,543.081h2.143v0.927h-1.167v1.391h1.031v0.928h-1.031v1.423h1.191v0.928h-2.167
		C32.839,548.678,32.839,543.081,32.839,543.081z M36.167,545.823l-0.88-2.742h1.04l0.439,1.615l0.447-1.615h1.016l-0.879,2.742
		l0.911,2.854h-1.039l-0.472-1.703l-0.48,1.703h-1.016L36.167,545.823z M38.36,545.975v-0.192c0-1.967,0.728-2.742,1.639-2.742
		c0.271,0,0.432,0.032,0.64,0.128v1.007c-0.2-0.12-0.36-0.184-0.544-0.184c-0.432,0-0.743,0.384-0.743,1.783v0.208
		c0,1.479,0.312,1.783,0.76,1.783c0.151,0,0.344-0.056,0.543-0.176v0.959c-0.224,0.128-0.439,0.168-0.72,0.168
		C39.039,548.718,38.36,547.926,38.36,545.975z M41.127,547.047v-3.966h0.968v4.062c0,0.504,0.176,0.704,0.424,0.704
		s0.424-0.2,0.424-0.704v-4.062h0.968v3.966c0,1.175-0.592,1.703-1.392,1.703S41.127,548.222,41.127,547.047z M44.471,543.081h1.007
		c1,0,1.728,0.527,1.728,1.783v0.072c0,0.728-0.288,1.191-0.656,1.472l0.752,2.271h-1.039l-0.632-1.951h-0.184v1.951h-0.976V543.081
		z M45.495,545.847c0.424,0,0.735-0.248,0.735-0.903v-0.064c0-0.704-0.336-0.888-0.76-0.888h-0.023v1.855L45.495,545.847
		L45.495,545.847z M47.535,548.486v-1.016c0.344,0.2,0.615,0.312,0.88,0.312c0.279,0,0.52-0.136,0.52-0.479v-0.016
		c0-0.256-0.08-0.448-0.544-0.976c-0.664-0.751-0.936-1.111-0.936-1.791v-0.016c0-0.896,0.584-1.463,1.359-1.463
		c0.392,0,0.624,0.056,0.863,0.176v1.016c-0.304-0.176-0.487-0.256-0.743-0.256c-0.272,0-0.504,0.176-0.504,0.479v0.016
		c0,0.264,0.08,0.36,0.544,0.896c0.768,0.887,0.936,1.231,0.936,1.871v0.016c0,0.879-0.616,1.463-1.384,1.463
		C48.142,548.718,47.815,548.622,47.535,548.486z M50.271,543.081h0.976v5.597h-0.976V543.081z M51.743,546.023v-0.288
		c0-1.847,0.601-2.734,1.487-2.734c0.888,0,1.487,0.887,1.487,2.734v0.288c0,1.847-0.6,2.734-1.487,2.734
		C52.343,548.758,51.743,547.87,51.743,546.023z M53.726,546.023v-0.288c0-1.439-0.2-1.839-0.496-1.839s-0.495,0.399-0.495,1.839
		v0.288c0,1.439,0.199,1.839,0.495,1.839S53.726,547.462,53.726,546.023z M55.199,543.081h0.911l0.983,2.83v-2.83h0.952v5.597
		h-0.864l-1.031-2.966v2.966h-0.951C55.199,548.678,55.199,543.081,55.199,543.081z M39.823,551.081h0.911
		c1.247,0,1.959,0.903,1.959,2.702v0.192c0,1.799-0.712,2.703-1.959,2.703h-0.911V551.081z M40.839,555.782
		c0.463,0,0.863-0.408,0.863-1.807v-0.192c0-1.399-0.4-1.807-0.863-1.807h-0.04v3.806H40.839z M43.174,551.081h2.143v0.927H44.15
		v1.391h1.031v0.928H44.15v1.423h1.191v0.928h-2.167C43.174,556.678,43.174,551.081,43.174,551.081z M45.695,556.486v-1.016
		c0.344,0.2,0.615,0.312,0.88,0.312c0.279,0,0.52-0.136,0.52-0.479v-0.016c0-0.256-0.08-0.448-0.544-0.976
		c-0.664-0.751-0.936-1.111-0.936-1.791v-0.016c0-0.896,0.584-1.463,1.359-1.463c0.392,0,0.624,0.056,0.863,0.176v1.016
		c-0.304-0.176-0.487-0.256-0.743-0.256c-0.272,0-0.504,0.176-0.504,0.479v0.016c0,0.264,0.08,0.36,0.544,0.896
		c0.768,0.887,0.936,1.231,0.936,1.871v0.016c0,0.879-0.616,1.463-1.384,1.463C46.302,556.718,45.975,556.622,45.695,556.486z
		 M48.415,551.081h0.976v2.342l0.791-2.342h1.104l-0.943,2.366l0.959,3.23h-1.087l-0.607-2.119l-0.216,0.616v1.503h-0.976
		L48.415,551.081L48.415,551.081z"/>
	<path class="st2" d="M115.946,592.155v-1.016c0.344,0.2,0.615,0.312,0.88,0.312c0.279,0,0.52-0.136,0.52-0.479v-0.016
		c0-0.256-0.08-0.448-0.544-0.976c-0.664-0.751-0.936-1.111-0.936-1.791v-0.016c0-0.896,0.584-1.463,1.359-1.463
		c0.392,0,0.624,0.056,0.863,0.176v1.016c-0.304-0.176-0.487-0.256-0.743-0.256c-0.272,0-0.504,0.176-0.504,0.479v0.016
		c0,0.264,0.08,0.36,0.544,0.896c0.768,0.887,0.936,1.231,0.936,1.871v0.016c0,0.879-0.616,1.463-1.384,1.463
		C116.553,592.387,116.226,592.29,115.946,592.155z M119.065,587.677h-0.688v-0.927h2.351v0.927h-0.688v4.669h-0.976v-4.669H119.065
		z M121.681,586.734h1.039l1.063,5.613h-0.975l-0.185-1.111h-0.888l-0.176,1.111h-0.943L121.681,586.734z M122.481,590.356
		l-0.296-1.847l-0.304,1.847H122.481z M124.082,586.75h1.007c1,0,1.728,0.527,1.728,1.783v0.072c0,0.728-0.288,1.191-0.656,1.472
		l0.752,2.271h-1.039l-0.632-1.951h-0.184v1.951h-0.976V586.75z M125.105,589.516c0.424,0,0.735-0.248,0.735-0.903v-0.064
		c0-0.704-0.336-0.888-0.76-0.888h-0.023v1.855L125.105,589.516L125.105,589.516z M127.266,586.75h0.848
		c0.943,0,1.822,0.384,1.822,1.423v0.04c0,0.72-0.407,1.071-0.808,1.263c0.473,0.208,0.88,0.536,0.88,1.248v0.072
		c0,0.992-0.768,1.551-1.854,1.551h-0.888C127.266,592.347,127.266,586.75,127.266,586.75z M128.257,589.101
		c0.432,0,0.72-0.248,0.72-0.736v-0.016c0-0.487-0.288-0.695-0.72-0.695h-0.016v1.447H128.257z M128.265,591.443
		c0.448,0,0.768-0.264,0.768-0.728v-0.04c0-0.464-0.319-0.728-0.768-0.728h-0.023v1.495h0.023V591.443z M130.401,590.716v-3.966
		h0.968v4.062c0,0.504,0.176,0.704,0.424,0.704s0.424-0.2,0.424-0.704v-4.062h0.968v3.966c0,1.175-0.592,1.703-1.392,1.703
		S130.401,591.891,130.401,590.716z M133.65,589.644v-0.192c0-1.967,0.728-2.742,1.639-2.742c0.271,0,0.432,0.032,0.64,0.128v1.007
		c-0.2-0.12-0.36-0.184-0.544-0.184c-0.432,0-0.743,0.384-0.743,1.783v0.208c0,1.479,0.312,1.783,0.76,1.783
		c0.151,0,0.344-0.056,0.543-0.176v0.959c-0.224,0.128-0.439,0.168-0.72,0.168C134.329,592.387,133.65,591.595,133.65,589.644z
		 M136.434,586.75h0.976v2.342l0.791-2.342h1.104l-0.943,2.366l0.959,3.23h-1.087l-0.607-2.119l-0.216,0.616v1.503h-0.976v-5.596
		H136.434z M139.538,592.155v-1.016c0.344,0.2,0.615,0.312,0.88,0.312c0.279,0,0.52-0.136,0.52-0.479v-0.016
		c0-0.256-0.08-0.448-0.544-0.976c-0.664-0.751-0.936-1.111-0.936-1.791v-0.016c0-0.896,0.584-1.463,1.359-1.463
		c0.392,0,0.624,0.056,0.863,0.176v1.016c-0.304-0.176-0.487-0.256-0.743-0.256c-0.272,0-0.504,0.176-0.504,0.479v0.016
		c0,0.264,0.08,0.36,0.544,0.896c0.768,0.887,0.936,1.231,0.936,1.871v0.016c0,0.879-0.616,1.463-1.384,1.463
		C140.145,592.387,139.818,592.29,139.538,592.155z M142.201,588.125v-0.128c0-0.839,0.416-1.383,1.016-1.383
		s1.016,0.544,1.016,1.383v0.128c0,0.839-0.416,1.383-1.016,1.383S142.201,588.964,142.201,588.125z M144.032,587.997
		c0-0.711-0.304-1.199-0.815-1.199s-0.815,0.488-0.815,1.199v0.128c0,0.711,0.304,1.199,0.815,1.199s0.815-0.488,0.815-1.199
		V587.997z M142.833,587.269h0.328c0.304,0,0.496,0.168,0.496,0.488v0.024c0,0.2-0.097,0.336-0.208,0.408l0.231,0.616h-0.296
		l-0.199-0.528h-0.08v0.528h-0.272V587.269z M143.161,588.029c0.12,0,0.208-0.08,0.208-0.248v-0.016c0-0.192-0.096-0.24-0.216-0.24
		h-0.048v0.504L143.161,588.029L143.161,588.029z"/>
	<path class="st2" d="M68.866,661.915v0.688h-0.927v-2.351h0.927v0.688h4.669v0.976L68.866,661.915L68.866,661.915z M67.939,659.843
		v-0.976h2.318v-0.848h-2.318v-0.975h5.597v0.975h-2.351v0.848h2.351v0.976H67.939z M67.939,656.467v-2.143h0.927v1.167h1.391
		v-1.031h0.928v1.031h1.423V654.3h0.928v2.167H67.939z M70.833,652.65h-0.192c-1.967,0-2.742-0.728-2.742-1.639
		c0-0.271,0.032-0.432,0.128-0.64h1.007c-0.12,0.2-0.184,0.36-0.184,0.544c0,0.432,0.384,0.743,1.783,0.743h0.208
		c1.479,0,1.783-0.312,1.783-0.76c0-0.151-0.056-0.344-0.176-0.543h0.959c0.128,0.224,0.168,0.439,0.168,0.72
		C73.576,651.972,72.784,652.65,70.833,652.65z M70.881,650.162h-0.288c-1.847,0-2.734-0.6-2.734-1.486
		c0-0.888,0.887-1.487,2.734-1.487h0.288c1.847,0,2.734,0.6,2.734,1.487C73.616,649.562,72.728,650.162,70.881,650.162z
		 M70.881,648.18h-0.288c-1.439,0-1.839,0.2-1.839,0.496s0.399,0.495,1.839,0.495h0.288c1.439,0,1.839-0.199,1.839-0.495
		S72.32,648.18,70.881,648.18z M67.939,646.707v-0.976h4.669V644.7h0.928v2.007L67.939,646.707L67.939,646.707z M67.939,644.307
		v-0.976h4.669V642.3h0.928v2.007H67.939z M67.939,641.907v-2.143h0.927v1.167h1.391V639.9h0.928v1.031h1.423v-1.191h0.928v2.167
		L67.939,641.907L67.939,641.907z M70.833,639.443h-0.192c-1.967,0-2.742-0.729-2.742-1.64c0-0.271,0.032-0.432,0.128-0.64h1.007
		c-0.12,0.2-0.184,0.359-0.184,0.544c0,0.432,0.384,0.743,1.783,0.743h0.208c1.479,0,1.783-0.312,1.783-0.76
		c0-0.151-0.056-0.344-0.176-0.543h0.959c0.128,0.224,0.168,0.439,0.168,0.72C73.576,638.764,72.784,639.443,70.833,639.443z
		 M68.866,636.14v0.688h-0.927v-2.351h0.927v0.688h4.669v0.976L68.866,636.14L68.866,636.14z M67.939,634.052v-0.976h5.597v0.976
		H67.939z M70.881,632.58h-0.288c-1.847,0-2.734-0.601-2.734-1.487c0-0.888,0.887-1.487,2.734-1.487h0.288
		c1.847,0,2.734,0.6,2.734,1.487C73.616,631.979,72.728,632.58,70.881,632.58z M70.881,630.597h-0.288
		c-1.439,0-1.839,0.2-1.839,0.496s0.399,0.495,1.839,0.495h0.288c1.439,0,1.839-0.199,1.839-0.495S72.32,630.597,70.881,630.597z
		 M67.939,629.123v-0.911l2.83-0.983h-2.83v-0.951h5.597v0.863l-2.966,1.031h2.966v0.951H67.939z M75.923,658.331v-1.04l5.613-1.062
		v0.975l-1.111,0.185v0.888l1.111,0.176v0.943L75.923,658.331z M79.545,657.531l-1.847,0.296l1.847,0.304V657.531z M75.939,655.931
		v-1.007c0-1,0.527-1.728,1.783-1.728h0.071c0.728,0,1.191,0.288,1.472,0.655l2.271-0.751v1.039l-1.951,0.632v0.184h1.951v0.976
		L75.939,655.931L75.939,655.931z M78.705,654.907c0-0.424-0.247-0.735-0.902-0.735h-0.064c-0.703,0-0.888,0.336-0.888,0.76v0.023
		h1.854C78.705,654.955,78.705,654.907,78.705,654.907z M76.867,652.307v0.688h-0.928v-2.351h0.928v0.688h4.669v0.976
		L76.867,652.307L76.867,652.307z M78.834,649.059h-0.192c-1.807,0-2.742-0.768-2.742-1.871c0-0.296,0.064-0.544,0.16-0.744h1.015
		c-0.144,0.24-0.239,0.456-0.239,0.712c0,0.56,0.56,0.911,1.767,0.911h0.271c1.464,0,1.8-0.432,1.8-0.831
		c0-0.032,0-0.04-0.009-0.088h-1.431v0.479h-0.872v-1.367h2.975c0.152,0.352,0.24,0.64,0.24,1.016
		C81.576,648.251,80.785,649.059,78.834,649.059z M75.923,644.939V643.9l5.613-1.063v0.975l-1.111,0.185v0.888l1.111,0.176v0.943
		L75.923,644.939z M79.545,644.14l-1.847,0.296l1.847,0.304V644.14z M75.939,642.538v-0.976h4.669v-1.031h0.928v2.007H75.939z
		 M75.939,640.139v-0.976h4.669v-1.031h0.928v2.007H75.939z M75.939,637.738v-2.143h0.928v1.167h1.391v-1.031h0.928v1.031h1.423
		v-1.191h0.928v2.167H75.939z M75.939,635.099v-1.007c0-1,0.527-1.728,1.783-1.728h0.071c0.728,0,1.191,0.288,1.472,0.655
		l2.271-0.751v1.039l-1.951,0.632v0.184h1.951v0.976L75.939,635.099L75.939,635.099z M78.705,634.075
		c0-0.424-0.247-0.735-0.902-0.735h-0.064c-0.703,0-0.888,0.336-0.888,0.76v0.023h1.854
		C78.705,634.123,78.705,634.075,78.705,634.075z M79.329,631.324l-3.39,1.039v-1.008l2.095-0.527l-2.095-0.536v-0.983l3.39,1.04
		h2.207v0.976h-2.207V631.324z"/>
	<path class="st2" d="M39.784,921.87h1.007c1,0,1.728,0.527,1.728,1.782v0.072c0,0.729-0.288,1.191-0.656,1.472l0.752,2.271h-1.039
		l-0.632-1.951H40.76v1.951h-0.976C39.784,927.467,39.784,921.87,39.784,921.87z M40.808,924.637c0.424,0,0.735-0.248,0.735-0.904
		v-0.063c0-0.704-0.336-0.888-0.76-0.888H40.76v1.855H40.808z M42.968,921.87h1.007c1,0,1.728,0.527,1.728,1.782v0.072
		c0,0.729-0.288,1.191-0.656,1.472l0.752,2.271H44.76l-0.632-1.951h-0.184v1.951h-0.976V921.87z M43.991,924.637
		c0.424,0,0.735-0.248,0.735-0.904v-0.063c0-0.704-0.336-0.888-0.76-0.888h-0.023v1.855H43.991z"/>
	<path class="st2" d="M104.549,921.87h1.007c1,0,1.728,0.527,1.728,1.782v0.072c0,0.729-0.288,1.191-0.656,1.472l0.752,2.271h-1.039
		l-0.632-1.951h-0.184v1.951h-0.976C104.549,927.467,104.549,921.87,104.549,921.87z M105.573,924.637
		c0.424,0,0.735-0.248,0.735-0.904v-0.063c0-0.704-0.336-0.888-0.76-0.888h-0.023v1.855H105.573z M107.733,921.87h1.007
		c1,0,1.728,0.527,1.728,1.782v0.072c0,0.729-0.288,1.191-0.656,1.472l0.752,2.271h-1.039l-0.632-1.951h-0.184v1.951h-0.976V921.87z
		 M108.756,924.637c0.424,0,0.735-0.248,0.735-0.904v-0.063c0-0.704-0.336-0.888-0.76-0.888h-0.023v1.855H108.756z"/>
	<path class="st2" d="M51.233,669.377h1.007c1,0,1.728,0.527,1.728,1.783v0.071c0,0.728-0.288,1.191-0.656,1.472l0.752,2.271h-1.039
		l-0.632-1.951h-0.184v1.951h-0.976V669.377z M52.256,672.143c0.424,0,0.735-0.247,0.735-0.902v-0.064
		c0-0.703-0.336-0.888-0.76-0.888h-0.023v1.854H52.256z M54.416,669.377h1.007c1,0,1.728,0.527,1.728,1.783v0.071
		c0,0.728-0.288,1.191-0.656,1.472l0.752,2.271h-1.039l-0.632-1.951h-0.184v1.951h-0.976V669.377z M55.44,672.143
		c0.424,0,0.735-0.247,0.735-0.902v-0.064c0-0.703-0.336-0.888-0.76-0.888h-0.023v1.854H55.44z"/>
	<path class="st2" d="M31.971,570.671h-0.688v-0.927h2.351v0.927h-0.688v4.669H31.97L31.971,570.671L31.971,570.671z
		 M34.043,569.744h0.976v2.318h0.848v-2.318h0.975v5.597h-0.975v-2.351h-0.848v2.351h-0.976V569.744z M37.419,569.744h2.143v0.927
		h-1.167v1.391h1.031v0.928h-1.031v1.423h1.191v0.928h-2.167V569.744z M42.114,569.728h1.039l1.063,5.613h-0.975l-0.185-1.111H42.17
		l-0.176,1.111h-0.943L42.114,569.728z M42.914,573.35l-0.296-1.847l-0.304,1.847H42.914z M44.795,570.671h-0.688v-0.927h2.351
		v0.927H45.77v4.669h-0.976L44.795,570.671L44.795,570.671z M46.867,569.744h1.007c1,0,1.728,0.527,1.728,1.783v0.072
		c0,0.728-0.288,1.191-0.655,1.472l0.751,2.271h-1.039l-0.632-1.951h-0.184v1.951h-0.976V569.744z M47.891,572.51
		c0.424,0,0.735-0.248,0.735-0.903v-0.064c0-0.704-0.336-0.888-0.76-0.888h-0.023v1.855L47.891,572.51L47.891,572.51z
		 M50.067,569.744h0.976v5.597h-0.976V569.744z M51.618,573.71v-3.966h0.968v4.062c0,0.504,0.176,0.704,0.424,0.704
		s0.424-0.2,0.424-0.704v-4.062h0.968v3.966c0,1.175-0.592,1.703-1.392,1.703S51.618,574.885,51.618,573.71z M54.963,569.744h0.967
		l0.688,2.047l0.688-2.047h0.967v5.597h-0.936v-3.382l-0.711,2.119h-0.017l-0.711-2.119v3.382h-0.936L54.963,569.744L54.963,569.744
		z"/>
	<path class="st2" d="M5.137,609.85v-0.192c0-1.807,0.768-2.742,1.87-2.742c0.296,0,0.544,0.063,0.744,0.159v1.016
		c-0.24-0.144-0.456-0.239-0.712-0.239c-0.56,0-0.911,0.56-0.911,1.767v0.271c0,1.464,0.432,1.8,0.831,1.8
		c0.032,0,0.04,0,0.088-0.009v-1.431H6.568v-0.872h1.367v2.975c-0.352,0.152-0.64,0.24-1.016,0.24
		C5.944,612.592,5.137,611.801,5.137,609.85z M8.457,610.921v-3.966h0.968v4.062c0,0.504,0.176,0.704,0.424,0.704
		s0.424-0.2,0.424-0.704v-4.062h0.968v3.966c0,1.175-0.592,1.702-1.392,1.702S8.457,612.096,8.457,610.921z M11.8,606.955h2.143
		v0.928h-1.167v1.391h1.031v0.928h-1.031v1.423h1.191v0.928H11.8V606.955z M14.321,612.359v-1.016
		c0.344,0.201,0.615,0.312,0.88,0.312c0.279,0,0.52-0.136,0.52-0.479v-0.017c0-0.256-0.08-0.447-0.544-0.975
		c-0.664-0.752-0.936-1.111-0.936-1.791v-0.017c0-0.896,0.584-1.463,1.359-1.463c0.392,0,0.624,0.056,0.863,0.176v1.016
		c-0.304-0.177-0.487-0.256-0.743-0.256c-0.272,0-0.504,0.176-0.504,0.479v0.016c0,0.264,0.08,0.36,0.544,0.896
		c0.768,0.887,0.936,1.23,0.936,1.87v0.017c0,0.879-0.616,1.463-1.384,1.463C14.928,612.592,14.6,612.496,14.321,612.359z
		 M17.44,607.883h-0.688v-0.928h2.351v0.928h-0.688v4.669H17.44V607.883z M20.665,612.359v-1.016
		c0.344,0.201,0.615,0.312,0.88,0.312c0.279,0,0.52-0.136,0.52-0.479v-0.017c0-0.256-0.08-0.447-0.544-0.975
		c-0.664-0.752-0.936-1.111-0.936-1.791v-0.017c0-0.896,0.584-1.463,1.359-1.463c0.392,0,0.624,0.056,0.863,0.176v1.016
		c-0.304-0.177-0.487-0.256-0.743-0.256c-0.272,0-0.504,0.176-0.504,0.479v0.016c0,0.264,0.08,0.36,0.544,0.896
		c0.768,0.887,0.936,1.23,0.936,1.87v0.017c0,0.879-0.616,1.463-1.384,1.463C21.272,612.592,20.944,612.496,20.665,612.359z
		 M23.384,606.955h2.143v0.928H24.36v1.391h1.031v0.928H24.36v1.423h1.191v0.928h-2.167V606.955z M26.025,606.955h1.007
		c1,0,1.728,0.527,1.728,1.783v0.071c0,0.728-0.288,1.191-0.655,1.472l0.751,2.271h-1.039l-0.632-1.951h-0.184v1.951h-0.976V606.955
		z M27.048,609.721c0.424,0,0.735-0.247,0.735-0.902v-0.064c0-0.703-0.336-0.888-0.76-0.888H27v1.854H27.048z M28.928,606.955h0.991
		l0.528,3.646l0.527-3.646h0.96l-1,5.613h-1.007L28.928,606.955z M32.248,606.955h0.976v5.597h-0.976V606.955z M33.719,609.85
		v-0.192c0-1.967,0.729-2.742,1.64-2.742c0.271,0,0.432,0.032,0.64,0.128v1.008c-0.2-0.121-0.359-0.185-0.544-0.185
		c-0.432,0-0.743,0.384-0.743,1.783v0.208c0,1.479,0.312,1.783,0.76,1.783c0.151,0,0.344-0.057,0.543-0.176v0.959
		c-0.224,0.128-0.439,0.168-0.72,0.168C34.399,612.592,33.719,611.801,33.719,609.85z M36.505,606.955h2.143v0.928H37.48v1.391
		h1.031v0.928H37.48v1.423h1.191v0.928h-2.167v-5.598H36.505z M39.024,612.359v-1.016c0.344,0.201,0.615,0.312,0.88,0.312
		c0.279,0,0.52-0.136,0.52-0.479v-0.017c0-0.256-0.08-0.447-0.544-0.975c-0.664-0.752-0.936-1.111-0.936-1.791v-0.017
		c0-0.896,0.584-1.463,1.359-1.463c0.392,0,0.624,0.056,0.863,0.176v1.016c-0.304-0.177-0.487-0.256-0.743-0.256
		c-0.272,0-0.504,0.176-0.504,0.479v0.016c0,0.264,0.08,0.36,0.544,0.896c0.768,0.887,0.936,1.23,0.936,1.87v0.017
		c0,0.879-0.616,1.463-1.384,1.463C39.631,612.592,39.303,612.496,39.024,612.359z"/>
	<path class="st2" d="M98.047,475.133h0.848l0.604,1.793l0.602-1.793h0.847l0.003,4.902h-0.819l-0.002-2.962l-0.622,1.856h-0.014
		l-0.625-1.856l0.002,2.962h-0.819L98.047,475.133z M101.45,475.131l1.877-0.001l0.001,0.812l-1.022,0.001v1.219h0.903l0.001,0.812
		h-0.903v1.246l1.044-0.001l0.001,0.812l-1.898,0.001L101.45,475.131z M103.759,475.13l1.877-0.001l0.001,0.812h-1.022v1.219h0.903
		l0.001,0.812h-0.903v1.246h1.044l0.001,0.812l-1.898,0.001L103.759,475.13z M106.525,475.941h-0.602l-0.001-0.812l2.059-0.001
		l0.001,0.812h-0.603l0.002,4.09h-0.854L106.525,475.941z M108.352,475.127h0.854l0.003,4.902h-0.854L108.352,475.127z
		 M109.723,475.127h0.799l0.862,2.479l-0.002-2.479h0.833l0.003,4.902h-0.756l-0.904-2.598l0.002,2.598h-0.834L109.723,475.127z
		 M112.636,477.661l-0.001-0.168c0-1.583,0.672-2.402,1.638-2.403c0.26,0,0.477,0.055,0.651,0.14l0.001,0.889
		c-0.21-0.126-0.398-0.21-0.623-0.209c-0.49,0-0.799,0.49-0.799,1.548l0.001,0.238c0,1.281,0.379,1.575,0.729,1.575
		c0.028,0,0.035,0,0.077-0.007v-1.253h-0.42l-0.001-0.763h1.197l0.002,2.604c-0.308,0.133-0.56,0.21-0.89,0.211
		C113.344,480.062,112.637,479.369,112.636,477.661z M100.771,483.131h0.883c0.875,0,1.513,0.462,1.513,1.562v0.063
		c0.001,0.637-0.251,1.043-0.573,1.289l0.659,1.989h-0.91l-0.555-1.709h-0.161l0.001,1.709h-0.854L100.771,483.131z
		 M101.669,485.554c0.371,0,0.645-0.217,0.644-0.792v-0.056c0-0.617-0.294-0.777-0.665-0.777h-0.021l0.001,1.625H101.669z
		 M103.474,485.707v-0.252c-0.001-1.618,0.524-2.396,1.302-2.396s1.303,0.776,1.304,2.395v0.252
		c0.001,1.618-0.524,2.396-1.302,2.396S103.475,487.325,103.474,485.707z M105.212,485.706v-0.252
		c-0.001-1.261-0.177-1.611-0.436-1.611s-0.435,0.351-0.434,1.611v0.252c0.001,1.261,0.177,1.611,0.436,1.611
		S105.213,486.967,105.212,485.706z M106.414,485.706v-0.252c-0.001-1.618,0.524-2.396,1.302-2.396s1.303,0.776,1.304,2.395v0.252
		c0.001,1.618-0.524,2.396-1.302,2.396S106.415,487.323,106.414,485.706z M108.151,485.705v-0.252
		c-0.001-1.261-0.177-1.611-0.436-1.611c-0.259,0-0.435,0.351-0.434,1.611v0.252c0.001,1.261,0.177,1.611,0.436,1.611
		C107.976,487.315,108.152,486.965,108.151,485.705z M109.437,483.126h0.848l0.604,1.792l0.601-1.793h0.847l0.002,4.903h-0.819
		l-0.001-2.962l-0.621,1.856h-0.014l-0.625-1.855l0.001,2.962h-0.819L109.437,483.126z"/>
	<path class="st2" d="M98.047,496.633h0.848l0.604,1.793l0.602-1.793h0.847l0.003,4.902h-0.819l-0.002-2.962l-0.622,1.856h-0.014
		l-0.625-1.856l0.002,2.962h-0.819L98.047,496.633z M101.45,496.631l1.877-0.001l0.001,0.812l-1.022,0.001v1.219h0.903l0.001,0.812
		h-0.903v1.246l1.044-0.001l0.001,0.812l-1.898,0.001L101.45,496.631z M103.759,496.63l1.877-0.001l0.001,0.812h-1.022v1.219h0.903
		l0.001,0.812h-0.903v1.246h1.044l0.001,0.812l-1.898,0.001L103.759,496.63z M106.525,497.441h-0.602l-0.001-0.812l2.059-0.001
		l0.001,0.812h-0.603l0.002,4.09h-0.854L106.525,497.441z M108.352,496.627h0.854l0.003,4.902h-0.854L108.352,496.627z
		 M109.723,496.627h0.799l0.862,2.479l-0.002-2.479h0.833l0.003,4.902h-0.756l-0.904-2.598l0.002,2.598h-0.834L109.723,496.627z
		 M112.636,499.161l-0.001-0.168c0-1.583,0.672-2.402,1.638-2.403c0.26,0,0.477,0.055,0.651,0.14l0.001,0.889
		c-0.21-0.126-0.398-0.21-0.623-0.209c-0.49,0-0.799,0.49-0.799,1.548l0.001,0.238c0,1.281,0.379,1.575,0.729,1.575
		c0.028,0,0.035,0,0.077-0.007v-1.253h-0.42l-0.001-0.763h1.197l0.002,2.604c-0.308,0.133-0.56,0.21-0.89,0.211
		C113.344,501.562,112.637,500.869,112.636,499.161z M100.771,504.631h0.883c0.875,0,1.513,0.462,1.513,1.562v0.063
		c0.001,0.637-0.251,1.043-0.573,1.289l0.659,1.989h-0.91l-0.555-1.709h-0.161l0.001,1.709h-0.854L100.771,504.631z
		 M101.669,507.054c0.371,0,0.645-0.217,0.644-0.792v-0.056c0-0.617-0.294-0.777-0.665-0.777h-0.021l0.001,1.625H101.669z
		 M103.474,507.207v-0.252c-0.001-1.618,0.524-2.396,1.302-2.396s1.303,0.776,1.304,2.395v0.252
		c0.001,1.618-0.524,2.396-1.302,2.396S103.475,508.825,103.474,507.207z M105.212,507.206v-0.252
		c-0.001-1.261-0.177-1.611-0.436-1.611s-0.435,0.351-0.434,1.611v0.252c0.001,1.261,0.177,1.611,0.436,1.611
		S105.213,508.467,105.212,507.206z M106.414,507.206v-0.252c-0.001-1.618,0.524-2.396,1.302-2.396s1.303,0.776,1.304,2.395v0.252
		c0.001,1.618-0.524,2.396-1.302,2.396S106.415,508.823,106.414,507.206z M108.151,507.205v-0.252
		c-0.001-1.261-0.177-1.611-0.436-1.611c-0.259,0-0.435,0.351-0.434,1.611v0.252c0.001,1.261,0.177,1.611,0.436,1.611
		C107.976,508.815,108.152,508.465,108.151,507.205z M109.437,504.626h0.848l0.604,1.792l0.601-1.793h0.847l0.002,4.903h-0.819
		l-0.001-2.962l-0.621,1.856h-0.014l-0.625-1.855l0.001,2.962h-0.819L109.437,504.626z"/>
</g>
<g id="GETAWAY_DECK_06_TOP">
	<path class="st3" d="M74.422,0.301L72.516,1.37l-1.137,0.991l-0.652,0.714l-0.619,0.756l-1.123,1.557l-1.049,1.597l-2.975,4.873
		l-3.75,6.612l-3.601,6.7l-3.467,6.764l-3.35,6.814l-3.267,6.853l-3.202,6.882l-3.137,6.913l-3.066,6.95l-5.9,14.006l-5.597,14.141
		l-2.683,7.124l-2.593,7.155l-4.845,14.408l-2.226,7.266l-2.076,7.319l-1.905,7.369l-3.304,14.897l-1.394,7.51l-2.25,15.105
		l-0.864,7.592l-1.89,144.429l0.065,791.444l0,0c0.303,13.411,13.138,20.92,31.597,22.523c18.031,1.566,40.937,1.523,42.53,1.517
		c1.594,0.006,24.5,0.05,42.53-1.517c18.46-1.603,31.266-9.112,31.58-22.522l0.652-96.331l-0.115-274.382V595.562V228.558
		l-0.003-0.307l-0.283-15.147l-0.372-7.638l-0.533-7.626l-0.698-7.614l-0.863-7.592l-1.036-7.565l-1.216-7.541l-1.396-7.509
		l-1.567-7.476l-1.736-7.422l-1.907-7.368l-2.071-7.318l-2.23-7.269l-4.848-14.406l-2.588-7.15l-2.684-7.125l-5.596-14.14
		l-2.91-7.022l-2.992-6.982l-3.065-6.95l-3.136-6.912l-3.201-6.882l-3.269-6.854l-3.35-6.816l-3.467-6.765l-3.603-6.701
		l-3.753-6.614l-1.964-3.255l-2.062-3.223l-1.131-1.561l-0.615-0.755L78.62,2.331l-0.729-0.67L77.486,1.35l-0.884-0.525L76.037,0.61
		l-1.528-0.366"/>
	<g id="gDeck06Locations">
		<rect id="_x30_6Aft" y="733.687" class="st4" width="150" height="416.466"/>
		<rect id="_x30_6Middle" y="419.387" class="st4" width="150" height="314.299"/>
		<rect id="_x30_6Forward" y="0.243" class="st4" width="150" height="419.144"/>
	</g>
</g>
</svg>
