<?xml version="1.0" encoding="utf-8"?>
<!-- Generator: Adobe Illustrator 23.0.2, SVG Export Plug-In . SVG Version: 6.00 Build 0)  -->
<svg version="1.1" id="GETAWAY_DECK_07" xmlns="http://www.w3.org/2000/svg" xmlns:xlink="http://www.w3.org/1999/xlink" x="0px"
	 y="0px" width="148.878px" height="1171.298px" viewBox="0 0 148.878 1171.298"
	 style="enable-background:new 0 0 148.878 1171.298;" xml:space="preserve">
<style type="text/css">
	.New_x0020_Cabins_x0020_2019{fill:#EFF2F5;stroke:#FFFFFF;stroke-width:0.5;stroke-miterlimit:10;}
	.New_x0020_Cabins_x0020_2{fill:#EFF2F5;stroke:#FFFFFF;stroke-width:0.5;stroke-miterlimit:10;}
	.New_x0020_Cabins_x0020_3{fill:#EFF2F5;stroke:#FFFFFF;stroke-width:0.5;stroke-miterlimit:10;}
	.st0{fill:#FFFFFF;}
	.st1{fill:none;stroke:#808285;stroke-width:0.5;stroke-linecap:round;stroke-linejoin:round;}
	.st2{fill:none;stroke:#D5DCE0;stroke-width:0.5;}
	.st3{fill:none;stroke:#D5DCE0;stroke-width:0.5;stroke-linecap:round;stroke-linejoin:round;}
	.st4{fill:#6E8496;}
	.st5{fill:none;stroke:#076FA0;stroke-miterlimit:10;}
	.st6{fill:none;}
</style>
<g id="GETAWAY_DECK_07_BOTTOM">
	<path class="st0" d="M148.378,1153.162c-13.826,16.183-35.904,16.435-35.904,16.435c-6.698,1.012-38.326,1.265-38.326,1.265
		c-19.97,0.506-45.768-2.024-45.768-2.024c-17.241-0.885-27.879-16.11-27.879-16.11V207.671l-0.033,3.174
		c0,0-0.683-63.167,3.817-84.667H6.45c0,0,6.595-28.085,20.333-56.834C42.606,36.232,66.332,1.802,74.45,1.178l0.418-0.124
		c8.118,0.624,31.843,35.054,47.665,68.166c13.738,28.749,20.334,56.834,20.334,56.834l2.166,0c4.5,21.5,3.297,84.667,3.297,84.667
		l0.048-0.766v416.869v-0.267v156.826v370.115"/>
	<line class="st2" x1="63.095" y1="969.405" x2="63.095" y2="954.072"/>
	<line class="st2" x1="46.405" y1="969.326" x2="63.101" y2="969.326"/>
	<line class="st2" x1="54.519" y1="714.091" x2="58.768" y2="715.453"/>
	<line class="st2" x1="54.288" y1="714.819" x2="58.352" y2="716.913"/>
	<line class="st2" x1="54.215" y1="715.672" x2="57.744" y2="718.056"/>
	<line class="st2" x1="53.883" y1="716.697" x2="57.208" y2="719.224"/>
	<line class="st2" x1="53.239" y1="717.383" x2="56.502" y2="720.222"/>
	<line class="st2" x1="52.79" y1="717.886" x2="55.578" y2="720.783"/>
	<line class="st2" x1="51.707" y1="718.299" x2="53.189" y2="721.847"/>
	<line class="st2" x1="54.587" y1="713.224" x2="59.238" y2="714.051"/>
	<line class="st2" x1="54.876" y1="712.219" x2="59.206" y2="713.096"/>
	<line class="st2" x1="55.185" y1="711.219" x2="59.505" y2="712.188"/>
	<line class="st2" x1="55.636" y1="710.531" x2="59.798" y2="711.522"/>
	<line class="st2" x1="56.039" y1="709.426" x2="60.343" y2="710.526"/>
	<line class="st2" x1="56.438" y1="708.359" x2="60.743" y2="709.933"/>
	<path class="st2" d="M59.803,956.836c-0.184,0-0.331,0.186-0.331,0.421"/>
	<line class="st2" x1="59.472" y1="957.256" x2="59.472" y2="966.923"/>
	<line class="st2" x1="63.156" y1="958.871" x2="46.416" y2="958.838"/>
	<path class="st2" d="M50.905,957.164c0-0.235-0.146-0.421-0.329-0.421"/>
	<line class="st2" x1="50.905" y1="958.79" x2="50.905" y2="957.164"/>
	<line class="st2" x1="50.576" y1="956.743" x2="46.416" y2="956.743"/>
	<line class="st2" x1="56.104" y1="967.979" x2="56.104" y2="953.934"/>
	<line class="st2" x1="55.943" y1="967.979" x2="55.943" y2="953.823"/>
	<line class="st2" x1="63.183" y1="966.37" x2="55.617" y2="966.342"/>
	<line class="st2" x1="63.183" y1="967.433" x2="55.617" y2="967.406"/>
	<line class="st2" x1="56.104" y1="967.979" x2="55.943" y2="967.979"/>
	<line class="st2" x1="55.943" y1="966.342" x2="46.476" y2="966.25"/>
	<line class="st2" x1="46.342" y1="957.806" x2="63.129" y2="957.806"/>
	<line class="st2" x1="46.31" y1="959.93" x2="63.101" y2="959.93"/>
	<line class="st2" x1="46.294" y1="960.994" x2="63.039" y2="960.994"/>
	<path class="st2" d="M50.596,966.89c0,0.224,0.145,0.406,0.326,0.406c0.179,0,0.324-0.183,0.324-0.406l0,0"/>
	<line class="st2" x1="51.246" y1="966.89" x2="51.246" y2="966.768"/>
	<line class="st2" x1="50.596" y1="966.89" x2="50.596" y2="966.768"/>
	<path class="st2" d="M59.14,966.983c0,0.224,0.145,0.406,0.323,0.406c0.179,0,0.324-0.183,0.324-0.406l0,0"/>
	<line class="st2" x1="59.788" y1="966.983" x2="59.788" y2="966.861"/>
	<line class="st2" x1="59.14" y1="966.983" x2="59.14" y2="966.861"/>
	<line class="st2" x1="50.926" y1="966.768" x2="50.926" y2="958.889"/>
	<line class="st2" x1="46.413" y1="963.12" x2="63.101" y2="963.12"/>
	<line class="st2" x1="46.413" y1="964.179" x2="63.101" y2="964.179"/>
	<line class="st2" x1="46.523" y1="965.245" x2="63.101" y2="965.245"/>
	<line class="st2" x1="46.294" y1="962.054" x2="63.101" y2="962.054"/>
	<path class="st2" d="M57.715,734.595l2.146-2.776l-3.786-2.271l-1.388,1.388l-0.002,0.008c-1.576-2.401-2.718-5.113-3.313-8.024
		l-0.091-0.06l3.155-1.389l-2.019-3.218h-1.515c0-12.79,10.368-23.157,23.157-23.157c12.789,0,23.157,10.367,23.157,23.157
		c0,12.789-10.367,23.156-23.157,23.156c-6.394,0-12.183-2.592-16.374-6.781L57.715,734.595z"/>
	<path class="st2" d="M63.646,697.62c0,0,1.262,2.272-2.019,5.048c0,0-5.553,4.418-7.193,10.475c0,0,0.252,4.291-2.65,5.048"/>
	<path class="st2" d="M67.18,695.979c0,0,2.146,2.65,0.252,6.058c0,0-2.145,2.902-3.66,4.038c0,0-3.912,3.029-4.67,8.329
		c0,0-1.262,5.931-4.669,7.066"/>
	<polyline class="st2" points="97.737,481.358 97.737,383.537 90.59,383.537 	"/>
	<polyline class="st2" points="91.117,383.537 50.684,383.537 50.684,407.342 37.757,407.342 37.757,460.071 	"/>
	<line class="st2" x1="24.207" y1="431.091" x2="37.758" y2="431.091"/>
	<polyline class="st2" points="124.362,433.634 124.362,449.918 136.54,449.918 	"/>
	<polyline class="st2" points="124.518,402.505 129.936,402.505 136.561,421.319 136.564,421.544 136.564,480.732 136.48,487.768 
		136.48,595.501 136.48,601.296 136.48,653.171 136.48,662.078 136.48,890.975 136.48,894.288 136.48,958.44 136.48,964.464 
		136.48,976.146 	"/>
	<polyline class="st2" points="50.873,460.071 50.873,481.358 60.271,481.358 	"/>
	<line class="st2" x1="63.083" y1="955.639" x2="56.041" y2="955.639"/>
	<polyline class="st2" points="55.891,954.654 63.139,954.654 64.117,954.654 64.117,975.688 	"/>
	<line class="st2" x1="59.491" y1="956.966" x2="50.873" y2="956.966"/>
	<path class="st2" d="M59.803,956.836l5.49,0.016c0,0,0.975,0.143,0.962,1.449l0.02-0.085v13.309c0,0,0.164,0.928-1.364,0.709
		l-0.9-0.027l0.027,0.491h1.636c0,0,0.6,0.219,0.6,0.764v1.854c0,0-0.218,0.436-0.6,0.49H47.294c0,0-0.627,0.137-0.627-1.036v-5.435
		"/>
	<line class="st2" x1="85.483" y1="969.405" x2="85.483" y2="954.072"/>
	<line class="st2" x1="100.269" y1="969.326" x2="100.269" y2="956.76"/>
	<line class="st2" x1="100.269" y1="969.326" x2="84.748" y2="969.326"/>
	<path class="st2" d="M87.428,956.834c0.169,0,0.305,0.185,0.305,0.421"/>
	<line class="st2" x1="87.732" y1="957.255" x2="87.692" y2="958.84"/>
	<line class="st2" x1="85.488" y1="959.589" x2="100.301" y2="959.536"/>
	<path class="st2" d="M96.607,957.164c0-0.235,0.134-0.421,0.302-0.421"/>
	<line class="st2" x1="96.606" y1="958.889" x2="96.607" y2="957.164"/>
	<path class="st2" d="M96.909,956.743h3.375l1.964-0.582h9.925c3.412,0.413,3.411,3.515,3.411,3.515v16.471"/>
	<line class="st2" x1="92.366" y1="967.979" x2="92.366" y2="953.934"/>
	<line class="st2" x1="92.513" y1="967.979" x2="92.513" y2="953.823"/>
	<line class="st2" x1="85.46" y1="967.433" x2="92.372" y2="967.483"/>
	<line class="st2" x1="85.606" y1="966.24" x2="100.302" y2="966.25"/>
	<line class="st2" x1="100.301" y1="958.349" x2="85.494" y2="958.349"/>
	<line class="st2" x1="100.295" y1="960.473" x2="85.657" y2="960.473"/>
	<line class="st2" x1="100.301" y1="961.265" x2="85.488" y2="961.265"/>
	<path class="st2" d="M96.908,966.89c0,0.224-0.134,0.406-0.3,0.406c-0.164,0-0.297-0.183-0.297-0.406l0,0"/>
	<line class="st2" x1="96.312" y1="966.89" x2="96.312" y2="966.768"/>
	<line class="st2" x1="96.908" y1="966.89" x2="96.908" y2="966.768"/>
	<path class="st2" d="M87.984,966.983c0,0.224-0.133,0.406-0.296,0.406c-0.165,0-0.297-0.183-0.297-0.406l0,0"/>
	<line class="st2" x1="87.392" y1="966.983" x2="87.392" y2="966.861"/>
	<line class="st2" x1="87.984" y1="966.983" x2="87.984" y2="966.861"/>
	<line class="st2" x1="96.606" y1="966.768" x2="96.606" y2="958.889"/>
	<line class="st2" x1="100.352" y1="963.391" x2="85.471" y2="963.391"/>
	<line class="st2" x1="100.352" y1="964.451" x2="85.488" y2="964.451"/>
	<line class="st2" x1="100.271" y1="965.516" x2="85.488" y2="965.516"/>
	<line class="st2" x1="100.123" y1="962.326" x2="85.536" y2="962.326"/>
	<line class="st2" x1="87.692" y1="966.861" x2="87.692" y2="958.84"/>
	<line class="st2" x1="85.484" y1="956.182" x2="92.354" y2="956.182"/>
	<polyline class="st2" points="92.372,955.197 84.992,955.197 84.008,955.197 84.008,976.184 	"/>
	<line class="st2" x1="87.745" y1="957.509" x2="96.622" y2="957.509"/>
	<path class="st2" d="M87.428,956.834l-3.409,0.036c0,0-1.942-0.265-1.969,1.454l0.02,0.01v13.309c0,0-0.194,0.81,1.208,0.591
		l0.826-0.027l-0.025,0.491h-1.502c0,0-0.551,0.219-0.551,0.764v1.854c0,0,0.199,0.436,0.551,0.49h16.876
		c0,0,0.576,0.137,0.576-1.036v-5.182"/>
	<line class="st2" x1="121.706" y1="460.071" x2="34.686" y2="460.071"/>
	<line class="st2" x1="11.999" y1="460.071" x2="34.635" y2="460.071"/>
	<line class="st2" x1="24.207" y1="431.091" x2="11.779" y2="431.091"/>
	<line class="st2" x1="82.144" y1="976.144" x2="136.436" y2="976.144"/>
	<line class="st2" x1="81.541" y1="471.467" x2="88.166" y2="471.467"/>
	<line class="st2" x1="81.541" y1="475.929" x2="84.943" y2="475.929"/>
	<line class="st2" x1="81.541" y1="476.822" x2="88.166" y2="476.822"/>
	<line class="st2" x1="81.662" y1="477.715" x2="85.002" y2="477.715"/>
	<line class="st2" x1="81.662" y1="478.607" x2="85.002" y2="478.607"/>
	<line class="st2" x1="81.662" y1="479.5" x2="85.002" y2="479.5"/>
	<path class="st2" d="M81.662,481.358h6.507V462.05c0,0-0.024-0.551-0.958-0.551H60.968c0,0-0.694,0.024-0.647,0.647l-0.05,7.051"/>
	<line class="st2" x1="70.995" y1="471.467" x2="77.816" y2="471.467"/>
	<line class="st2" x1="81.541" y1="472.36" x2="88.166" y2="472.36"/>
	<line class="st2" x1="70.995" y1="472.36" x2="77.816" y2="472.36"/>
	<line class="st2" x1="81.541" y1="473.253" x2="88.166" y2="473.253"/>
	<line class="st2" x1="70.995" y1="473.253" x2="77.816" y2="473.253"/>
	<line class="st2" x1="81.541" y1="474.145" x2="88.166" y2="474.145"/>
	<line class="st2" x1="70.995" y1="474.145" x2="77.816" y2="474.145"/>
	<line class="st2" x1="81.541" y1="475.037" x2="88.166" y2="475.037"/>
	<line class="st2" x1="77.816" y1="471.467" x2="80.935" y2="471.467"/>
	<line class="st2" x1="77.816" y1="475.929" x2="80.935" y2="475.929"/>
	<line class="st2" x1="77.816" y1="476.822" x2="80.935" y2="476.822"/>
	<line class="st2" x1="77.816" y1="477.715" x2="80.935" y2="477.715"/>
	<line class="st2" x1="77.816" y1="478.607" x2="80.935" y2="478.607"/>
	<line class="st2" x1="77.697" y1="479.5" x2="80.935" y2="479.5"/>
	<line class="st2" x1="74.29" y1="481.358" x2="80.938" y2="481.358"/>
	<line class="st2" x1="77.816" y1="472.36" x2="80.935" y2="472.36"/>
	<line class="st2" x1="77.816" y1="473.253" x2="80.935" y2="473.253"/>
	<line class="st2" x1="77.816" y1="474.145" x2="80.935" y2="474.145"/>
	<line class="st2" x1="77.816" y1="475.037" x2="80.935" y2="475.037"/>
	<line class="st2" x1="71.073" y1="475.037" x2="77.816" y2="475.037"/>
	<line class="st2" x1="71.073" y1="475.929" x2="77.816" y2="475.929"/>
	<line class="st2" x1="71.073" y1="476.822" x2="77.816" y2="476.822"/>
	<line class="st2" x1="71.073" y1="477.715" x2="77.816" y2="477.715"/>
	<line class="st2" x1="71.073" y1="478.607" x2="77.816" y2="478.607"/>
	<line class="st2" x1="71.051" y1="479.5" x2="77.538" y2="479.5"/>
	<line class="st2" x1="67.549" y1="475.929" x2="71.073" y2="475.929"/>
	<line class="st2" x1="67.549" y1="476.822" x2="71.073" y2="476.822"/>
	<line class="st2" x1="67.549" y1="477.715" x2="71.073" y2="477.715"/>
	<line class="st2" x1="67.549" y1="478.607" x2="71.073" y2="478.607"/>
	<line class="st2" x1="67.549" y1="479.5" x2="71.051" y2="479.5"/>
	<line class="st2" x1="67.549" y1="475.053" x2="71.073" y2="475.053"/>
	<line class="st2" x1="67.549" y1="470.696" x2="71.073" y2="470.696"/>
	<line class="st2" x1="67.549" y1="469.971" x2="80.935" y2="469.971"/>
	<line class="st2" x1="67.549" y1="468.969" x2="80.935" y2="468.969"/>
	<line class="st2" x1="71.073" y1="470.696" x2="80.935" y2="470.696"/>
	<line class="st2" x1="67.549" y1="471.589" x2="70.995" y2="471.589"/>
	<line class="st2" x1="67.549" y1="472.481" x2="70.995" y2="472.481"/>
	<line class="st2" x1="67.549" y1="473.374" x2="70.995" y2="473.374"/>
	<line class="st2" x1="67.549" y1="474.266" x2="70.995" y2="474.266"/>
	<line class="st2" x1="81.59" y1="480.287" x2="88.159" y2="480.287"/>
	<line class="st2" x1="85" y1="475.929" x2="88.159" y2="475.929"/>
	<line class="st2" x1="85" y1="477.715" x2="88.159" y2="477.715"/>
	<line class="st2" x1="85" y1="478.607" x2="88.159" y2="478.607"/>
	<line class="st2" x1="85" y1="479.5" x2="88.159" y2="479.5"/>
	<line class="st2" x1="67.643" y1="481.358" x2="74.142" y2="481.358"/>
	<path class="st2" d="M66.886,481.358l0.017-12.622c0,0-0.07-0.393,0.309-0.393c0,0,0.345,0,0.345,0.393l-0.017,12.622"/>
	<line class="st2" x1="81.561" y1="468.735" x2="81.545" y2="481.358"/>
	<line class="st2" x1="80.935" y1="468.735" x2="80.891" y2="481.358"/>
	<line class="st2" x1="66.873" y1="479.381" x2="60.495" y2="479.381"/>
	<line class="st2" x1="66.873" y1="475.024" x2="60.24" y2="475.024"/>
	<line class="st2" x1="66.873" y1="473.891" x2="60.24" y2="473.891"/>
	<line class="st2" x1="66.873" y1="473.02" x2="60.24" y2="473.02"/>
	<line class="st2" x1="66.873" y1="471.887" x2="60.24" y2="471.887"/>
	<line class="st2" x1="66.873" y1="470.929" x2="60.24" y2="470.929"/>
	<line class="st2" x1="66.873" y1="469.928" x2="60.24" y2="469.928"/>
	<line class="st2" x1="66.873" y1="475.917" x2="60.495" y2="475.917"/>
	<line class="st2" x1="66.873" y1="476.809" x2="60.495" y2="476.809"/>
	<line class="st2" x1="66.873" y1="477.702" x2="60.495" y2="477.702"/>
	<line class="st2" x1="66.873" y1="478.594" x2="60.495" y2="478.594"/>
	<polyline class="st2" points="56.881,468.62 60.271,469.197 60.271,481.358 66.899,481.358 	"/>
	<path class="st2" d="M77.193,479.83c0,0.165,0.241,0.3,0.536,0.3c0.301,0,0.543-0.135,0.543-0.3l0,0"/>
	<line class="st2" x1="77.722" y1="479.739" x2="77.581" y2="466.516"/>
	<line class="st2" x1="84.947" y1="466.557" x2="84.956" y2="467.374"/>
	<line class="st2" x1="84.994" y1="476.401" x2="84.956" y2="467.346"/>
	<path class="st2" d="M78.343,466.213c-0.316,0-0.732,0.13-0.732,0.303"/>
	<path class="st2" d="M84.206,466.213c0.316,0,0.732,0.13,0.732,0.303"/>
	<line class="st2" x1="78.259" y1="466.213" x2="84.315" y2="466.213"/>
	<path class="st2" d="M77.193,479.83c0,0.165,0.241,0.3,0.536,0.3c0.301,0,0.543-0.135,0.543-0.3l0,0"/>
	<path class="st2" d="M78.343,466.213c-0.316,0-0.762,0.13-0.762,0.303"/>
	<line class="st2" x1="77.61" y1="467.307" x2="77.595" y2="468.195"/>
	<path class="st2" d="M84.206,466.213c0.316,0,0.741,0.172,0.741,0.345"/>
	<line class="st2" x1="78.259" y1="466.213" x2="84.315" y2="466.213"/>
	<path class="st2" d="M71.438,479.83c0,0.165-0.241,0.3-0.536,0.3c-0.301,0-0.543-0.135-0.543-0.3l0,0"/>
	<line class="st2" x1="70.91" y1="479.739" x2="71.051" y2="466.516"/>
	<line class="st2" x1="63.676" y1="467.073" x2="63.676" y2="467.374"/>
	<line class="st2" x1="63.651" y1="476.73" x2="63.676" y2="467.346"/>
	<line class="st2" x1="71.021" y1="467.323" x2="71.037" y2="468.195"/>
	<line class="st2" x1="63.693" y1="466.516" x2="63.676" y2="467.717"/>
	<path class="st2" d="M63.693,466.516c0-0.228,0.109-0.303,0.732-0.303h-0.109h6.057h-0.084c0.795,0,0.732,0.02,0.732,0.303"/>
	<polyline class="st2" points="129.918,250.882 129.918,263.183 129.918,266.76 129.918,311.064 129.918,314.09 129.918,329.793 
		129.918,333.078 129.918,402.644 	"/>
	<line class="st2" x1="124.449" y1="342.099" x2="124.449" y2="402.611"/>
	<path class="st2" d="M24.436,288.674l9.004-14.095v-5.15h64.188h16.642c0,0,1.536-0.477,1.374,1.543v3.555l8.806,13.896v53.677"/>
	<polyline class="st2" points="97.812,489.273 97.812,536.65 82.203,536.65 82.203,529.827 	"/>
	<polyline class="st2" points="51.234,489.107 51.234,536.678 66.4,536.678 66.4,529.77 	"/>
	<polyline class="st2" points="11.785,488.941 31.841,488.941 66.38,488.882 66.38,491.61 	"/>
	<polyline class="st2" points="136.438,488.941 124.664,488.941 82.229,488.941 82.229,491.866 	"/>
	<line class="st2" x1="74.066" y1="468.396" x2="74.034" y2="481.358"/>
	<rect x="57.123" y="491.61" class="st2" width="9.257" height="38.165"/>
	<line class="st2" x1="57.43" y1="520.334" x2="66.38" y2="529.481"/>
	<line class="st2" x1="57.52" y1="529.475" x2="66.38" y2="520.337"/>
	<polygon class="st2" points="57.43,511.064 66.38,520.211 57.52,520.205 66.38,511.067 	"/>
	<line class="st2" x1="57.43" y1="501.407" x2="66.38" y2="510.555"/>
	<line class="st2" x1="57.52" y1="510.549" x2="66.38" y2="501.41"/>
	<polyline class="st2" points="66.38,492.14 57.52,501.278 66.38,501.285 57.43,492.137 	"/>
	<rect x="82.229" y="491.61" class="st2" width="9.267" height="38.165"/>
	<line class="st2" x1="91.188" y1="520.334" x2="82.229" y2="529.481"/>
	<line class="st2" x1="91.099" y1="529.475" x2="82.229" y2="520.337"/>
	<polygon class="st2" points="91.188,511.064 82.229,520.211 91.099,520.205 82.229,511.067 	"/>
	<line class="st2" x1="91.188" y1="501.407" x2="82.229" y2="510.555"/>
	<line class="st2" x1="91.099" y1="510.549" x2="82.229" y2="501.41"/>
	<polyline class="st2" points="82.229,492.14 91.099,501.278 82.229,501.285 91.188,492.137 	"/>
	<path class="st2" d="M85.521,539.589l24.145,2.084c0,0,0.956,0.086,0.782,1.39l-0.087,1.216c0,0-0.001,0.781,0.955,0.955h1.477
		c0,0,1.215-0.174,1.042,1.477l-1.216,29.877c0,0-2.953,17.805-20.323,16.328c0,0-14.678-0.521-16.588-17.892
		c0,0,0.782-6.687,0.956-7.729l3.126-23.016c0,0-0.087-1.998,1.737-1.998l1.39,0.26c0,0,1.042-0.174,1.042-1.563
		C83.957,540.978,83.697,539.241,85.521,539.589z"/>
	<line class="st2" x1="64.229" y1="627.001" x2="64.229" y2="680.01"/>
	<polyline class="st2" points="11.736,593.55 36.437,593.568 44.839,593.568 55.248,593.568 55.248,593.568 55.248,594.894 
		63.236,594.894 63.236,614.592 64.983,614.592 64.983,622.647 	"/>
	<polyline class="st2" points="84.419,651.093 84.419,639.051 84.713,638.854 136.335,638.854 	"/>
	<polyline class="st2" points="84.419,651.093 84.373,679.96 102.091,679.96 102.091,673.024 110.938,673.024 110.938,665.171 
		136.538,665.171 	"/>
	<polyline class="st2" points="64.229,680.01 46.271,680.061 46.271,673.01 37.398,673.024 37.398,665.374 12.001,665.374 	"/>
	<rect x="56.566" y="904.59" class="st2" width="9.277" height="37.448"/>
	<line class="st2" x1="56.873" y1="913.871" x2="65.844" y2="904.879"/>
	<line class="st2" x1="56.963" y1="904.884" x2="65.844" y2="913.87"/>
	<polygon class="st3" points="56.873,922.987 65.844,913.992 56.963,913.998 65.844,922.983 	"/>
	<line class="st2" x1="56.873" y1="932.48" x2="65.844" y2="923.486"/>
	<line class="st2" x1="56.873" y1="922.987" x2="65.844" y2="932.476"/>
	<polyline class="st3" points="65.844,942.038 56.963,932.607 65.844,932.6 56.873,942.038 	"/>
	<rect x="82.218" y="904.59" class="st2" width="9.324" height="37.448"/>
	<line class="st2" x1="91.234" y1="913.871" x2="82.218" y2="904.879"/>
	<line class="st2" x1="91.145" y1="904.884" x2="82.218" y2="913.87"/>
	<polygon class="st3" points="91.234,922.987 82.218,913.992 91.145,913.998 82.218,922.983 	"/>
	<line class="st2" x1="91.234" y1="932.48" x2="82.218" y2="923.486"/>
	<line class="st2" x1="91.234" y1="922.987" x2="82.218" y2="932.476"/>
	<polyline class="st3" points="82.218,942.038 91.145,932.607 82.218,932.6 91.234,942.038 	"/>
	<polyline class="st2" points="136.41,947.205 108.161,947.205 104.434,947.205 99.297,947.205 97.151,942.038 91.542,942.038 	"/>
	<polyline class="st2" points="11.949,976.144 66.525,976.293 66.525,976.293 66.492,1033.777 38.656,1033.777 28.963,1033.777 
		12.067,1033.777 	"/>
	<line class="st2" x1="81.177" y1="477.805" x2="88.791" y2="475.004"/>
	<line class="st2" x1="59.414" y1="474.98" x2="67.217" y2="477.853"/>
	<path class="st2" d="M109.317,382.695v8.958c0,0-0.05,1.518,0.962,1.569c0,0,1.062,0.152,0.962-1.468v-8.857
		c0,0,0.101-1.013-0.811-1.114C110.431,381.784,109.217,381.682,109.317,382.695z"/>
	<line class="st2" x1="18.507" y1="402.526" x2="24.316" y2="402.526"/>
	<line class="st2" x1="101.982" y1="976.164" x2="101.982" y2="956.214"/>
	<line class="st2" x1="0.5" y1="250.706" x2="148.878" y2="250.706"/>
	<polyline class="st2" points="64.983,614.592 64.983,626.751 46.317,626.751 46.317,593.667 	"/>
	<path class="st2" d="M32.879,976.127v-15.521c0,0-0.413-3.825,3.205-4.445l10.321-0.033v13.198"/>
	<rect x="84.027" y="770.299" class="st2" width="15.988" height="77.509"/>
	<polyline class="st2" points="11.749,767.038 51.694,767.038 51.712,770.27 51.805,770.318 64.632,770.318 64.632,801.832 
		64.632,804.668 64.632,847.808 48.448,847.808 48.448,829.619 48.494,829.534 12.051,829.534 	"/>
	<rect x="50.739" y="862.149" class="st2" width="13.893" height="37.675"/>
	<polyline class="st2" points="82.218,904.59 82.218,899.824 97.933,899.824 97.933,914.009 97.973,914.009 124.311,914.009 
		136.594,914.009 	"/>
	<polyline class="st2" points="12.003,937.729 24.067,937.729 24.067,935.486 50.848,935.478 	"/>
	<polyline class="st2" points="62.15,1166.792 62.15,1098.417 64.775,1095.042 83.525,1095.042 86.4,1097.917 86.4,1166.917 	"/>
	<rect x="11.81" y="947.302" class="st2" width="12.72" height="9.872"/>
	<line class="st2" x1="50.739" y1="899.824" x2="50.739" y2="942.038"/>
	<polyline class="st2" points="64.632,899.824 65.844,899.824 65.844,904.345 	"/>
	<rect x="14.213" y="862.209" class="st2" width="10.491" height="35.872"/>
	<polyline class="st2" points="26.518,562.758 26.565,546.968 21.235,546.968 21.235,584.194 26.565,584.194 26.578,567.473 	"/>
	<path class="st2" d="M26.65,567.443h3.551c0.137,0.05,0.798-0.021,0.94-0.061c0.213-0.061,1.177-0.915,1.177-2.223
		c0-1.187-0.626-2.161-1.439-2.333v-0.036h-4.23"/>
	<line class="st2" x1="88.169" y1="481.358" x2="97.737" y2="481.358"/>
	<polyline class="st2" points="24.18,288.652 24.31,298.317 24.31,402.498 	"/>
	<polyline class="st2" points="11.848,947.327 49.333,947.327 50.967,942.038 56.566,942.038 	"/>
	<rect x="37.757" y="460.071" class="st2" width="13.116" height="14.93"/>
	<rect x="121.816" y="460.071" class="st2" width="14.748" height="19.93"/>
	<polyline class="st2" points="136.593,433.634 97.737,433.634 97.737,398.806 124.399,398.806 124.399,402.543 	"/>
	<path class="st2" d="M63.934,1166.984v-15.749c0,0,9.841-6.193,20.152,0.356v15.315"/>
	<path class="st2" d="M18.552,250.715v125.291v5.769v20.66l-6.773,18.954v30.276v6.376v23v6.875v97.024v5.719v62.475v9.179v295.823
		l0.183,7.08v134.824l6.802-0.137l-0.262,63.168l0.052-0.003c0,0,22.424,4.469,55.748,3.842c33.324,0.627,55.513-3.842,55.513-3.842
		l0.053,0.031v-68.833l-0.073-3.382l6.606-0.071l0.08-0.037V988.729l-0.011-0.06h-34.038l-0.069,0.06v30.715H82.148v-43.297"/>
	<line class="st2" x1="81.401" y1="885.422" x2="136.545" y2="885.422"/>
	<polygon class="st2" points="111.736,614.194 79.175,614.194 79.175,622.335 111.736,622.335 111.736,631.603 115.118,631.603 
		115.118,622.335 115.118,614.194 	"/>
	<path class="st2" d="M50.608,385.802h-5.353c-5.58,0.797-5.125,5.808-5.125,5.808v11.389h3.872v-10.705c0,0,0.114-2.277,2.05-2.505
		h4.556"/>
	<line class="st2" x1="46.381" y1="614.592" x2="63.162" y2="614.592"/>
	<line class="st2" x1="64.632" y1="847.826" x2="64.632" y2="862.21"/>
	<path class="st2" d="M123.192,350.776c-4.413,3.963-13.543,9.512-19.097,11.601l-1.326-2.958"/>
	<path class="st2" d="M73.699,357.989c17.963-0.432,43.398-10.536,50.739-22.627"/>
	<path class="st2" d="M65.118,364.481c2.238,0.314,7.064,0.59,9.321,0.548"/>
	<path class="st2" d="M24.214,340.285c9.456,11.093,29.679,20.722,44.247,21.124"/>
	<path class="st2" d="M80.437,361.397c14.562-0.412,34.581-10.038,44.024-21.125"/>
	<path class="st2" d="M74.439,365.029c2.258,0.042,7.023-0.234,9.263-0.548"/>
	<path class="st2" d="M74.439,361.685c1.522,0.019,4.481-0.138,5.997-0.288"/>
	<path class="st2" d="M68.462,361.409c1.516,0.149,4.455,0.294,5.978,0.275"/>
	<path class="st2" d="M24.386,335.103c7.772,12.782,32.904,22.713,49.313,22.886"/>
	<path class="st2" d="M65.217,367.051c4.664,1.41,13.869,1.434,18.534,0.024"/>
	<path class="st2" d="M83.709,364.439c-0.25,0.031-0.427,0.258-0.396,0.508"/>
	<path class="st2" d="M65.564,364.947c0.032-0.25-0.146-0.477-0.395-0.508"/>
	<path class="st2" d="M25.689,350.765c4.411,3.964,13.542,9.523,19.094,11.612l1.266-2.958"/>
	<path class="st2" d="M24.352,342.072c1.351,2.477,1.973,6.184,1.431,8.772"/>
	<path class="st2" d="M83.709,364.439c12.436-0.866,30.595-9.16,39.391-17.998"/>
	<path class="st2" d="M83.709,364.439c-0.25,0.031-0.427,0.258-0.396,0.508"/>
	<line class="st2" x1="83.312" y1="364.947" x2="83.535" y2="366.748"/>
	<line class="st2" x1="83.312" y1="364.947" x2="83.535" y2="366.748"/>
	<path class="st2" d="M25.757,346.417c8.795,8.838,26.976,17.157,39.413,18.023"/>
	<path class="st2" d="M124.445,342.292c-1.197,2.501-1.762,6.054-1.253,8.484"/>
	<line class="st2" x1="83.603" y1="367.174" x2="83.312" y2="364.947"/>
	<line class="st2" x1="65.344" y1="366.748" x2="65.564" y2="364.947"/>
	<line class="st2" x1="65.344" y1="366.748" x2="65.564" y2="364.947"/>
	<line class="st2" x1="65.291" y1="367.224" x2="65.564" y2="364.947"/>
	<path class="st2" d="M65.564,364.947c0.032-0.25-0.146-0.477-0.395-0.508"/>
	<rect x="97.801" y="488.981" class="st2" width="14.254" height="47.669"/>
	<path class="st4" d="M23.099,748.217v-0.192c0-1.807,0.768-2.742,1.871-2.742c0.296,0,0.544,0.063,0.744,0.159v1.016
		c-0.24-0.144-0.456-0.239-0.712-0.239c-0.56,0-0.911,0.56-0.911,1.767v0.271c0,1.464,0.432,1.8,0.831,1.8
		c0.032,0,0.04,0,0.088-0.009v-1.431H24.53v-0.872h1.367v2.975c-0.352,0.152-0.64,0.24-1.016,0.24
		C23.906,750.96,23.099,750.169,23.099,748.217z M26.436,745.323h2.143v0.928h-1.167v1.391h1.031v0.928h-1.031v1.423h1.191v0.928
		h-2.167V745.323z M29.595,746.251h-0.688v-0.928h2.351v0.928H30.57v4.669h-0.976V746.251z M32.21,745.307h1.039l1.063,5.612h-0.975
		l-0.185-1.111h-0.888l-0.176,1.111h-0.943L32.21,745.307z M33.01,748.928l-0.296-1.847l-0.304,1.847H33.01z M34.308,745.323h0.999
		l0.408,3.43l0.487-3.43h0.903l0.479,3.43l0.416-3.43h0.976l-0.848,5.613h-1.023l-0.464-3.318l-0.464,3.318h-1.023L34.308,745.323z
		 M40.011,745.307h1.039l1.063,5.612h-0.975l-0.185-1.111h-0.888l-0.176,1.111h-0.943L40.011,745.307z M40.811,748.928l-0.296-1.847
		l-0.304,1.847H40.811z M42.842,748.713l-1.039-3.39h1.008l0.527,2.095l0.536-2.095h0.983l-1.04,3.39v2.207h-0.976V748.713z
		 M25.655,756.217v-0.192c0-1.967,0.728-2.742,1.639-2.742c0.271,0,0.432,0.032,0.64,0.128v1.008c-0.2-0.121-0.36-0.185-0.544-0.185
		c-0.432,0-0.743,0.384-0.743,1.783v0.208c0,1.479,0.312,1.783,0.76,1.783c0.151,0,0.344-0.057,0.543-0.176v0.959
		c-0.224,0.128-0.439,0.168-0.72,0.168C26.334,758.96,25.655,758.169,25.655,756.217z M29.223,753.307h1.04l1.062,5.612h-0.975
		l-0.185-1.111h-0.888l-0.176,1.111h-0.943L29.223,753.307z M30.022,756.928l-0.296-1.847l-0.304,1.847H30.022z M31.503,758.727
		v-1.016c0.344,0.201,0.615,0.312,0.88,0.312c0.279,0,0.52-0.136,0.52-0.479v-0.017c0-0.256-0.08-0.447-0.544-0.975
		c-0.664-0.752-0.936-1.111-0.936-1.791v-0.017c0-0.896,0.584-1.463,1.359-1.463c0.392,0,0.624,0.056,0.863,0.176v1.016
		c-0.304-0.177-0.487-0.256-0.743-0.256c-0.272,0-0.504,0.176-0.504,0.479v0.016c0,0.264,0.08,0.36,0.544,0.896
		c0.768,0.887,0.936,1.23,0.936,1.87v0.017c0,0.879-0.616,1.463-1.384,1.463C32.11,758.96,31.782,758.864,31.503,758.727z
		 M34.238,753.323h0.976v5.597h-0.976V753.323z M35.807,753.323h0.911l0.983,2.83v-2.83h0.952v5.597h-0.864l-1.031-2.966v2.966
		h-0.951V753.323z M39.134,756.265v-0.288c0-1.848,0.601-2.734,1.487-2.734c0.888,0,1.487,0.887,1.487,2.734v0.288
		c0,1.847-0.6,2.734-1.487,2.734C39.734,759,39.134,758.112,39.134,756.265z M41.117,756.265v-0.288c0-1.439-0.2-1.839-0.496-1.839
		s-0.495,0.399-0.495,1.839v0.288c0,1.438,0.199,1.839,0.495,1.839S41.117,757.704,41.117,756.265z"/>
	<path class="st4" d="M31.747,870.945h0.848c0.943,0,1.822,0.384,1.822,1.423v0.04c0,0.72-0.407,1.071-0.808,1.264
		c0.473,0.208,0.88,0.535,0.88,1.247v0.072c0,0.991-0.768,1.551-1.854,1.551h-0.888V870.945z M32.738,873.296
		c0.432,0,0.72-0.248,0.72-0.735v-0.017c0-0.487-0.288-0.695-0.72-0.695h-0.016v1.447H32.738z M32.746,875.638
		c0.448,0,0.768-0.264,0.768-0.728v-0.04c0-0.464-0.319-0.728-0.768-0.728h-0.023v1.495H32.746z M34.899,870.945h0.976v4.669h1.031
		v0.928h-2.007V870.945z M37.314,870.945h0.976v5.597h-0.976V870.945z M38.762,876.349v-1.015c0.344,0.199,0.615,0.312,0.88,0.312
		c0.279,0,0.52-0.136,0.52-0.479v-0.017c0-0.256-0.08-0.447-0.544-0.975c-0.664-0.752-0.936-1.112-0.936-1.791v-0.017
		c0-0.896,0.584-1.463,1.359-1.463c0.392,0,0.624,0.056,0.863,0.176v1.016c-0.304-0.176-0.487-0.256-0.743-0.256
		c-0.272,0-0.504,0.176-0.504,0.479v0.016c0,0.265,0.08,0.36,0.544,0.896c0.768,0.888,0.936,1.231,0.936,1.871v0.017
		c0,0.879-0.616,1.463-1.384,1.463C39.37,876.582,39.042,876.486,38.762,876.349z M41.363,876.349v-1.015
		c0.344,0.199,0.615,0.312,0.88,0.312c0.279,0,0.52-0.136,0.52-0.479v-0.017c0-0.256-0.08-0.447-0.544-0.975
		c-0.664-0.752-0.936-1.112-0.936-1.791v-0.017c0-0.896,0.584-1.463,1.359-1.463c0.392,0,0.624,0.056,0.863,0.176v1.016
		c-0.304-0.176-0.487-0.256-0.743-0.256c-0.272,0-0.504,0.176-0.504,0.479v0.016c0,0.265,0.08,0.36,0.544,0.896
		c0.768,0.888,0.936,1.231,0.936,1.871v0.017c0,0.879-0.616,1.463-1.384,1.463C41.97,876.582,41.642,876.486,41.363,876.349z
		 M30.694,882.911v-3.966h0.968v4.062c0,0.504,0.176,0.704,0.424,0.704c0.248,0,0.424-0.2,0.424-0.704v-4.062h0.968v3.966
		c0,1.175-0.592,1.703-1.392,1.703C31.286,884.614,30.694,884.086,30.694,882.911z M34.039,878.945h0.976v4.669h1.031v0.928h-2.007
		V878.945z M36.678,879.873h-0.688v-0.928h2.351v0.928h-0.688v4.669h-0.976V879.873z M38.751,878.945h1.007
		c1,0,1.728,0.527,1.728,1.783v0.071c0,0.728-0.288,1.191-0.655,1.472l0.751,2.271h-1.039l-0.632-1.951h-0.184v1.951h-0.976V878.945
		z M39.774,881.712c0.424,0,0.735-0.248,0.735-0.904v-0.063c0-0.704-0.336-0.888-0.76-0.888h-0.023v1.855H39.774z M42.717,878.928
		h1.04l1.062,5.613h-0.975l-0.185-1.111h-0.888l-0.176,1.111h-0.943L42.717,878.928z M43.517,882.55l-0.296-1.847l-0.304,1.847
		H43.517z M28.819,886.945h0.976v4.669h1.031v0.928h-2.007V886.945z M30.923,889.887v-0.288c0-1.847,0.6-2.734,1.486-2.734
		c0.888,0,1.487,0.888,1.487,2.734v0.288c0,1.847-0.6,2.734-1.487,2.734C31.523,892.622,30.923,891.734,30.923,889.887z
		 M32.906,889.887v-0.288c0-1.439-0.2-1.839-0.496-1.839s-0.495,0.399-0.495,1.839v0.288c0,1.438,0.199,1.839,0.495,1.839
		S32.906,891.326,32.906,889.887z M34.362,890.911v-3.966h0.968v4.062c0,0.504,0.176,0.704,0.424,0.704s0.424-0.2,0.424-0.704
		v-4.062h0.968v3.966c0,1.175-0.592,1.703-1.392,1.703S34.362,892.086,34.362,890.911z M37.707,886.945h0.911l0.983,2.83v-2.83
		h0.951v5.597h-0.863l-1.031-2.967v2.967h-0.951V886.945z M41.035,889.839v-0.192c0-1.807,0.768-2.742,1.87-2.742
		c0.296,0,0.544,0.063,0.744,0.16v1.015c-0.24-0.144-0.456-0.239-0.712-0.239c-0.56,0-0.911,0.56-0.911,1.767v0.272
		c0,1.463,0.432,1.799,0.831,1.799c0.032,0,0.04,0,0.088-0.008v-1.432h-0.479v-0.871h1.367v2.974c-0.352,0.152-0.64,0.24-1.016,0.24
		C41.841,892.582,41.035,891.79,41.035,889.839z M44.371,886.945h2.143v0.928h-1.167v1.391h1.031v0.928h-1.031v1.423h1.191v0.928
		h-2.167V886.945z"/>
	<path class="st4" d="M53.251,875.537h0.848c0.943,0,1.822,0.384,1.822,1.423V877c0,0.72-0.407,1.071-0.808,1.264
		c0.473,0.208,0.88,0.535,0.88,1.247v0.072c0,0.991-0.768,1.551-1.854,1.551h-0.888V875.537z M54.242,877.887
		c0.432,0,0.72-0.248,0.72-0.735v-0.017c0-0.487-0.288-0.695-0.72-0.695h-0.016v1.447H54.242z M54.25,880.23
		c0.448,0,0.768-0.264,0.768-0.728v-0.04c0-0.464-0.319-0.728-0.768-0.728h-0.023v1.495H54.25z M57.147,875.52h1.039l1.063,5.613
		h-0.975l-0.185-1.111h-0.888l-0.176,1.111h-0.943L57.147,875.52z M57.946,879.142l-0.296-1.847l-0.304,1.847H57.946z
		 M59.547,875.537h1.007c1,0,1.728,0.527,1.728,1.783v0.071c0,0.728-0.288,1.191-0.656,1.472l0.752,2.271h-1.039l-0.632-1.951
		h-0.184v1.951h-0.976V875.537z M60.57,878.303c0.424,0,0.735-0.248,0.735-0.904v-0.063c0-0.704-0.336-0.888-0.76-0.888h-0.023
		v1.855H60.57z M55.579,888.31l0.943-2.159c0.288-0.647,0.384-0.976,0.384-1.224c0-0.287-0.191-0.487-0.496-0.487
		c-0.271,0-0.512,0.104-0.719,0.231v-0.943c0.264-0.136,0.567-0.231,0.936-0.231c0.711,0,1.23,0.432,1.23,1.247v0.04
		c0,0.424-0.111,0.768-0.439,1.52l-0.8,1.854h1.216v0.976h-2.255V888.31z M58.658,884.568l-0.575,0.184v-0.983l0.863-0.271h0.695
		v5.637h-0.983V884.568z"/>
	<path class="st4" d="M51.996,602.905h1.007c1,0,1.728,0.527,1.728,1.783v0.072c0,0.728-0.288,1.191-0.656,1.472l0.752,2.271h-1.039
		l-0.632-1.951h-0.184v1.951h-0.976V602.905z M53.019,605.671c0.424,0,0.735-0.248,0.735-0.903v-0.064
		c0-0.704-0.336-0.888-0.76-0.888h-0.023v1.855H53.019z M55.179,602.905h1.007c1,0,1.728,0.527,1.728,1.783v0.072
		c0,0.728-0.288,1.191-0.656,1.472l0.752,2.271H56.97l-0.632-1.951h-0.184v1.951h-0.976V602.905z M56.203,605.671
		c0.424,0,0.735-0.248,0.735-0.903v-0.064c0-0.704-0.336-0.888-0.76-0.888h-0.023v1.855H56.203z"/>
	<path class="st4" d="M51.996,617.618h1.007c1,0,1.728,0.527,1.728,1.783v0.071c0,0.728-0.288,1.191-0.656,1.472l0.752,2.271h-1.039
		l-0.632-1.951h-0.184v1.951h-0.976V617.618z M53.019,620.383c0.424,0,0.735-0.247,0.735-0.902v-0.064
		c0-0.703-0.336-0.888-0.76-0.888h-0.023v1.854H53.019z M55.179,617.618h1.007c1,0,1.728,0.527,1.728,1.783v0.071
		c0,0.728-0.288,1.191-0.656,1.472l0.752,2.271H56.97l-0.632-1.951h-0.184v1.951h-0.976V617.618z M56.203,620.383
		c0.424,0,0.735-0.247,0.735-0.902v-0.064c0-0.703-0.336-0.888-0.76-0.888h-0.023v1.854H56.203z"/>
	<path class="st4" d="M66.698,714.543v-0.288c0-1.847,0.6-2.734,1.487-2.734c0.888,0,1.487,0.888,1.487,2.734v0.288
		c0,1.847-0.6,2.734-1.487,2.734C67.297,717.277,66.698,716.389,66.698,714.543z M68.681,714.543v-0.288
		c0-1.439-0.2-1.839-0.496-1.839s-0.496,0.399-0.496,1.839v0.288c0,1.438,0.2,1.839,0.496,1.839S68.681,715.981,68.681,714.543z
		 M70.153,711.6h0.872c1.063,0,1.807,0.575,1.807,1.887v0.016c0,1.264-0.704,1.863-1.695,1.936h-0.008v1.759h-0.976V711.6z
		 M71.137,714.535c0.408-0.024,0.72-0.32,0.72-1v-0.016c0-0.712-0.271-1.016-0.695-1.016h-0.032v2.031H71.137z M73.233,711.6h2.143
		v0.928h-1.167v1.391h1.031v0.928h-1.031v1.423H75.4v0.928h-2.167V711.6z M75.874,711.6h0.912l0.983,2.83v-2.83h0.951v5.597h-0.863
		l-1.031-2.967v2.967h-0.952V711.6z M81.089,712.528h-0.688V711.6h2.351v0.928h-0.688v4.669h-0.976V712.528z M82.905,714.543v-0.288
		c0-1.847,0.6-2.734,1.487-2.734s1.487,0.888,1.487,2.734v0.288c0,1.847-0.6,2.734-1.487,2.734S82.905,716.389,82.905,714.543z
		 M84.889,714.543v-0.288c0-1.439-0.2-1.839-0.496-1.839s-0.496,0.399-0.496,1.839v0.288c0,1.438,0.2,1.839,0.496,1.839
		S84.889,715.981,84.889,714.543z M62.025,719.6h0.912c1.248,0,1.959,0.903,1.959,2.702v0.192c0,1.799-0.711,2.702-1.959,2.702
		h-0.912V719.6z M63.041,724.301c0.464,0,0.863-0.408,0.863-1.807v-0.192c0-1.399-0.399-1.807-0.863-1.807h-0.04v3.806H63.041z
		 M65.377,719.6h2.143v0.928h-1.167v1.391h1.031v0.928h-1.031v1.423h1.191v0.928h-2.167V719.6z M67.841,722.495v-0.192
		c0-1.967,0.728-2.742,1.639-2.742c0.272,0,0.432,0.032,0.64,0.128v1.007c-0.2-0.119-0.36-0.184-0.543-0.184
		c-0.432,0-0.744,0.384-0.744,1.783v0.208c0,1.479,0.312,1.783,0.76,1.783c0.152,0,0.344-0.057,0.543-0.176v0.959
		c-0.224,0.128-0.44,0.168-0.72,0.168C68.521,725.237,67.841,724.445,67.841,722.495z M70.626,719.6h0.976v2.343l0.792-2.343h1.104
		l-0.944,2.366l0.959,3.23h-1.087l-0.607-2.119l-0.216,0.616v1.503h-0.976V719.6z M75.122,719.6h0.847
		c0.943,0,1.823,0.384,1.823,1.423v0.04c0,0.72-0.408,1.071-0.808,1.264c0.472,0.208,0.88,0.535,0.88,1.247v0.072
		c0,0.991-0.768,1.551-1.855,1.551h-0.887V719.6z M76.113,721.951c0.432,0,0.719-0.248,0.719-0.735v-0.017
		c0-0.487-0.288-0.695-0.719-0.695h-0.016v1.447H76.113z M76.121,724.294c0.447,0,0.768-0.264,0.768-0.728v-0.04
		c0-0.464-0.32-0.728-0.768-0.728h-0.024v1.495H76.121z M78.273,719.6h2.143v0.928h-1.167v1.391h1.031v0.928h-1.031v1.423h1.191
		v0.928h-2.167V719.6z M80.913,719.6h0.976v4.669h1.031v0.928h-2.007V719.6z M83.018,722.543v-0.288c0-1.847,0.6-2.734,1.487-2.734
		c0.887,0,1.486,0.888,1.486,2.734v0.288c0,1.847-0.6,2.734-1.486,2.734C83.617,725.277,83.018,724.389,83.018,722.543z M85,722.543
		v-0.288c0-1.439-0.199-1.839-0.495-1.839s-0.496,0.399-0.496,1.839v0.288c0,1.438,0.2,1.839,0.496,1.839S85,723.981,85,722.543z
		 M86.129,719.6h1l0.408,3.43l0.487-3.43h0.903l0.479,3.43l0.416-3.43h0.976l-0.848,5.612h-1.023l-0.464-3.317L88,725.213h-1.023
		L86.129,719.6z"/>
	<path class="st4" d="M89.837,561.6h0.848c0.943,0,1.823,0.384,1.823,1.423v0.04c0,0.72-0.408,1.071-0.808,1.263
		c0.472,0.208,0.879,0.536,0.879,1.248v0.072c0,0.992-0.768,1.551-1.854,1.551h-0.888V561.6z M90.828,563.951
		c0.432,0,0.72-0.248,0.72-0.736v-0.016c0-0.487-0.288-0.695-0.72-0.695h-0.016v1.447H90.828z M90.836,566.294
		c0.448,0,0.768-0.264,0.768-0.728v-0.04c0-0.464-0.319-0.728-0.768-0.728h-0.023v1.495H90.836z M93.732,561.584h1.039l1.063,5.613
		H94.86l-0.185-1.111h-0.888l-0.176,1.111h-0.943L93.732,561.584z M94.532,565.206l-0.296-1.847l-0.304,1.847H94.532z M96.133,561.6
		h1.008c0.999,0,1.727,0.527,1.727,1.783v0.072c0,0.728-0.287,1.191-0.655,1.472l0.751,2.271h-1.039l-0.632-1.951h-0.184v1.951
		h-0.976V561.6z M97.156,564.366c0.424,0,0.735-0.248,0.735-0.903v-0.064c0-0.704-0.335-0.888-0.759-0.888h-0.024v1.855H97.156z"/>
	<path class="st4" d="M16.518,502.814v-0.288c0-1.847,0.6-2.734,1.487-2.734s1.487,0.887,1.487,2.734v0.288
		c0,1.847-0.6,2.735-1.487,2.735S16.518,504.661,16.518,502.814z M18.501,502.814v-0.288c0-1.439-0.2-1.839-0.496-1.839
		s-0.496,0.4-0.496,1.839v0.288c0,1.439,0.2,1.839,0.496,1.839S18.501,504.254,18.501,502.814z M19.886,501.887
		c0.592-0.128,0.711-0.552,0.672-0.903h-0.496v-1.112h1.104v0.912c0,0.848-0.408,1.391-1.199,1.495L19.886,501.887z M21.654,505.277
		v-1.016c0.344,0.2,0.616,0.312,0.879,0.312c0.28,0,0.52-0.136,0.52-0.48v-0.016c0-0.256-0.08-0.448-0.543-0.976
		c-0.664-0.751-0.936-1.111-0.936-1.791v-0.016c0-0.896,0.583-1.463,1.359-1.463c0.392,0,0.624,0.056,0.863,0.176v1.015
		c-0.304-0.176-0.488-0.256-0.744-0.256c-0.271,0-0.503,0.176-0.503,0.48v0.016c0,0.264,0.08,0.36,0.543,0.896
		c0.768,0.887,0.936,1.231,0.936,1.871v0.016c0,0.88-0.616,1.463-1.383,1.463C22.261,505.509,21.934,505.413,21.654,505.277z
		 M24.374,499.872h0.976v2.319h0.848v-2.319h0.975v5.597h-0.975v-2.351h-0.848v2.351h-0.976V499.872z M27.75,499.872h2.143v0.928
		h-1.167v1.391h1.031v0.928h-1.031v1.423h1.191v0.927H27.75V499.872z M30.39,499.872h2.143v0.928h-1.167v1.391h1.032v0.928h-1.032
		v1.423h1.191v0.927H30.39V499.872z M33.029,499.872h0.976v2.319h0.848v-2.319h0.975v5.597h-0.975v-2.351h-0.848v2.351h-0.976
		V499.872z M37.189,499.856h1.04l1.063,5.613h-0.976l-0.184-1.111h-0.887l-0.176,1.111h-0.943L37.189,499.856z M37.988,503.478
		l-0.296-1.847l-0.304,1.847H37.988z M39.589,499.872h0.912l0.983,2.831v-2.831h0.951v5.597h-0.863l-1.031-2.966v2.966h-0.952
		V499.872z M42.925,501.887c0.592-0.128,0.711-0.552,0.671-0.903h-0.496v-1.112h1.104v0.912c0,0.848-0.408,1.391-1.199,1.495
		L42.925,501.887z M44.693,505.277v-1.016c0.344,0.2,0.616,0.312,0.879,0.312c0.28,0,0.52-0.136,0.52-0.48v-0.016
		c0-0.256-0.08-0.448-0.543-0.976c-0.664-0.751-0.936-1.111-0.936-1.791v-0.016c0-0.896,0.583-1.463,1.359-1.463
		c0.392,0,0.624,0.056,0.863,0.176v1.015c-0.304-0.176-0.488-0.256-0.744-0.256c-0.271,0-0.503,0.176-0.503,0.48v0.016
		c0,0.264,0.08,0.36,0.543,0.896c0.768,0.887,0.936,1.231,0.936,1.871v0.016c0,0.88-0.616,1.463-1.383,1.463
		C45.301,505.509,44.973,505.413,44.693,505.277z M13.31,507.872h0.912l0.983,2.831v-2.831h0.952v5.597h-0.864l-1.031-2.966v2.966
		H13.31V507.872z M16.733,507.872h2.143v0.928h-1.167v1.391h1.031v0.928h-1.031v1.423H18.9v0.927h-2.167V507.872z M19.39,507.872
		h0.975v5.597H19.39V507.872z M20.861,510.766v-0.192c0-1.807,0.768-2.742,1.871-2.742c0.296,0,0.544,0.064,0.744,0.16v1.016
		c-0.24-0.144-0.456-0.24-0.711-0.24c-0.56,0-0.912,0.56-0.912,1.767v0.272c0,1.463,0.432,1.799,0.832,1.799
		c0.032,0,0.04,0,0.088-0.008v-1.431h-0.479v-0.872h1.367v2.975c-0.352,0.152-0.64,0.24-1.016,0.24
		C21.669,513.509,20.861,512.717,20.861,510.766z M24.197,507.872h0.976v2.319h0.848v-2.319h0.976v5.597h-0.976v-2.351h-0.848v2.351
		h-0.976V507.872z M27.573,507.872h0.848c0.943,0,1.823,0.384,1.823,1.423v0.04c0,0.72-0.408,1.071-0.808,1.263
		c0.472,0.208,0.879,0.536,0.879,1.248v0.072c0,0.992-0.768,1.551-1.855,1.551h-0.888V507.872z M28.565,510.223
		c0.432,0,0.72-0.248,0.72-0.736v-0.016c0-0.488-0.288-0.696-0.72-0.696h-0.016v1.447H28.565z M28.573,512.566
		c0.448,0,0.768-0.264,0.768-0.728v-0.04c0-0.464-0.32-0.728-0.768-0.728h-0.024v1.496H28.573z M30.629,510.814v-0.288
		c0-1.847,0.6-2.734,1.487-2.734c0.887,0,1.487,0.887,1.487,2.734v0.288c0,1.847-0.6,2.735-1.487,2.735
		C31.229,513.549,30.629,512.661,30.629,510.814z M32.612,510.814v-0.288c0-1.439-0.2-1.839-0.496-1.839
		c-0.296,0-0.496,0.4-0.496,1.839v0.288c0,1.439,0.2,1.839,0.496,1.839C32.413,512.653,32.612,512.254,32.612,510.814z
		 M34.085,507.872h1.007c1,0,1.727,0.528,1.727,1.783v0.072c0,0.728-0.288,1.191-0.656,1.471l0.752,2.271h-1.04l-0.632-1.951h-0.184
		v1.951h-0.976V507.872z M35.109,510.638c0.424,0,0.735-0.248,0.735-0.903v-0.064c0-0.704-0.335-0.888-0.759-0.888h-0.024v1.855
		H35.109z M37.27,507.872h0.975v2.319h0.848v-2.319h0.976v5.597h-0.976v-2.351h-0.848v2.351H37.27V507.872z M40.549,510.814v-0.288
		c0-1.847,0.6-2.734,1.487-2.734c0.887,0,1.487,0.887,1.487,2.734v0.288c0,1.847-0.6,2.735-1.487,2.735
		C41.149,513.549,40.549,512.661,40.549,510.814z M42.532,510.814v-0.288c0-1.439-0.2-1.839-0.496-1.839s-0.496,0.4-0.496,1.839
		v0.288c0,1.439,0.2,1.839,0.496,1.839S42.532,512.254,42.532,510.814z M43.909,510.814v-0.288c0-1.847,0.6-2.734,1.487-2.734
		s1.487,0.887,1.487,2.734v0.288c0,1.847-0.6,2.735-1.487,2.735S43.909,512.661,43.909,510.814z M45.892,510.814v-0.288
		c0-1.439-0.2-1.839-0.496-1.839s-0.496,0.4-0.496,1.839v0.288c0,1.439,0.2,1.839,0.496,1.839S45.892,512.254,45.892,510.814z
		 M47.365,507.872h0.912c1.247,0,1.959,0.904,1.959,2.703v0.192c0,1.799-0.712,2.703-1.959,2.703h-0.912V507.872z M48.381,512.573
		c0.464,0,0.863-0.408,0.863-1.807v-0.192c0-1.399-0.399-1.807-0.863-1.807h-0.04v3.806H48.381z M17.862,515.872h0.847
		c0.944,0,1.823,0.384,1.823,1.423v0.04c0,0.72-0.408,1.071-0.808,1.263c0.472,0.208,0.879,0.536,0.879,1.248v0.072
		c0,0.992-0.768,1.551-1.855,1.551h-0.887V515.872z M18.853,518.223c0.432,0,0.72-0.248,0.72-0.736v-0.016
		c0-0.488-0.288-0.696-0.72-0.696h-0.016v1.447H18.853z M18.861,520.566c0.447,0,0.768-0.264,0.768-0.728v-0.04
		c0-0.464-0.32-0.728-0.768-0.728h-0.024v1.496H18.861z M21.757,515.856h1.04l1.063,5.613h-0.976l-0.184-1.111h-0.887l-0.176,1.111
		h-0.943L21.757,515.856z M22.557,519.478l-0.296-1.847l-0.304,1.847H22.557z M24.158,515.872h1.007c1,0,1.727,0.528,1.727,1.783
		v0.072c0,0.728-0.288,1.191-0.656,1.471l0.752,2.271h-1.04l-0.632-1.951h-0.184v1.951h-0.976V515.872z M25.181,518.638
		c0.424,0,0.735-0.248,0.735-0.903v-0.064c0-0.704-0.335-0.888-0.759-0.888h-0.024v1.855H25.181z M28.43,520.038v-0.048
		c0-0.68,0.32-1.184,0.855-1.647c-0.312-0.503-0.472-0.879-0.472-1.271v-0.056c0-0.671,0.464-1.223,1.159-1.223
		c0.68,0,1.127,0.496,1.127,1.215v0.056c0,0.64-0.304,1.087-0.792,1.503l0.504,0.959c0.04-0.176,0.072-0.416,0.12-0.751l0.752,0.136
		c-0.072,0.632-0.2,1.08-0.36,1.439l0.464,0.792l-0.704,0.432l-0.271-0.496c-0.264,0.295-0.552,0.472-1.04,0.472
		C29.053,521.549,28.43,520.949,28.43,520.038z M30.397,520.438l-0.704-1.392c-0.208,0.256-0.328,0.592-0.328,0.872v0.064
		c0,0.432,0.208,0.72,0.528,0.72C30.101,520.701,30.261,520.605,30.397,520.438z M29.925,517.911
		c0.248-0.24,0.344-0.528,0.344-0.823v-0.064c0-0.271-0.128-0.447-0.312-0.447c-0.192,0-0.312,0.176-0.312,0.416v0.08
		C29.645,517.295,29.733,517.543,29.925,517.911z M33.262,518.766v-0.192c0-1.807,0.768-2.742,1.871-2.742
		c0.296,0,0.544,0.064,0.744,0.16v1.016c-0.24-0.144-0.456-0.24-0.711-0.24c-0.56,0-0.912,0.56-0.912,1.767v0.272
		c0,1.463,0.432,1.799,0.832,1.799c0.032,0,0.04,0,0.088-0.008v-1.431h-0.479v-0.872h1.367v2.975c-0.352,0.152-0.64,0.24-1.016,0.24
		C34.069,521.509,33.262,520.717,33.262,518.766z M36.598,515.872h1.007c1,0,1.727,0.528,1.727,1.783v0.072
		c0,0.728-0.288,1.191-0.656,1.471l0.751,2.271h-1.039l-0.632-1.951h-0.184v1.951h-0.975V515.872z M37.621,518.638
		c0.424,0,0.735-0.248,0.735-0.903v-0.064c0-0.704-0.336-0.888-0.76-0.888h-0.024v1.855H37.621z M39.797,515.872h0.976v5.597h-0.976
		V515.872z M41.365,515.872h0.976v4.67h1.031v0.927h-2.007V515.872z M43.765,515.872h0.976v4.67h1.032v0.927h-2.007V515.872z"/>
	<path class="st4" d="M50.285,1063.204h-0.688v-0.927h2.351v0.927h-0.688v4.67h-0.976V1063.204z M52.357,1062.277h0.976v2.318h0.847
		v-2.318h0.976v5.597H54.18v-2.351h-0.847v2.351h-0.976V1062.277z M55.733,1062.277h2.143v0.927h-1.167v1.392h1.031v0.928h-1.031
		v1.423H57.9v0.928h-2.167V1062.277z M60.165,1063.204h-0.688v-0.927h2.351v0.927h-0.688v4.67h-0.976V1063.204z M62.237,1062.277
		h1.007c1,0,1.728,0.527,1.728,1.782v0.072c0,0.729-0.288,1.191-0.655,1.472l0.751,2.271h-1.039l-0.632-1.951h-0.184v1.951h-0.976
		V1062.277z M63.261,1065.044c0.424,0,0.735-0.248,0.735-0.904v-0.063c0-0.704-0.336-0.888-0.76-0.888h-0.023v1.855H63.261z
		 M65.324,1065.219v-0.288c0-1.847,0.601-2.734,1.487-2.734c0.888,0,1.487,0.888,1.487,2.734v0.288c0,1.847-0.6,2.734-1.487,2.734
		C65.925,1067.954,65.324,1067.066,65.324,1065.219z M67.308,1065.219v-0.288c0-1.439-0.2-1.839-0.496-1.839
		s-0.495,0.399-0.495,1.839v0.288c0,1.439,0.199,1.839,0.495,1.839S67.308,1066.659,67.308,1065.219z M68.781,1062.277h0.871
		c1.063,0,1.808,0.575,1.808,1.887v0.017c0,1.263-0.704,1.862-1.695,1.935h-0.008v1.759h-0.976V1062.277z M69.765,1065.212
		c0.407-0.024,0.72-0.32,0.72-1v-0.016c0-0.712-0.272-1.016-0.696-1.016h-0.031v2.031H69.765z M71.877,1062.277h0.976v5.597h-0.976
		V1062.277z M73.35,1065.171v-0.191c0-1.967,0.728-2.742,1.639-2.742c0.271,0,0.432,0.031,0.64,0.128v1.007
		c-0.2-0.119-0.36-0.184-0.544-0.184c-0.432,0-0.743,0.384-0.743,1.783v0.208c0,1.479,0.312,1.782,0.76,1.782
		c0.151,0,0.344-0.055,0.543-0.176v0.96c-0.224,0.128-0.439,0.168-0.72,0.168C74.028,1067.914,73.35,1067.122,73.35,1065.171z
		 M76.916,1062.26h1.039l1.063,5.613h-0.975l-0.185-1.111h-0.888l-0.176,1.111h-0.943L76.916,1062.26z M77.716,1065.883
		l-0.296-1.848l-0.304,1.848H77.716z M79.317,1062.277h0.911l0.983,2.83v-2.83h0.952v5.597H81.3l-1.031-2.967v2.967h-0.951V1062.277
		z M83.524,1062.26h1.04l1.062,5.613h-0.975l-0.185-1.111H83.58l-0.176,1.111h-0.943L83.524,1062.26z M84.324,1065.883l-0.296-1.848
		l-0.304,1.848H84.324z M87.197,1062.277h1.007c1,0,1.728,0.527,1.728,1.782v0.072c0,0.729-0.288,1.191-0.656,1.472l0.752,2.271
		h-1.039l-0.632-1.951h-0.184v1.951h-0.976V1062.277z M88.221,1065.044c0.424,0,0.735-0.248,0.735-0.904v-0.063
		c0-0.704-0.336-0.888-0.76-0.888h-0.023v1.855H88.221z M90.285,1065.219v-0.288c0-1.847,0.6-2.734,1.486-2.734
		c0.888,0,1.487,0.888,1.487,2.734v0.288c0,1.847-0.6,2.734-1.487,2.734C90.885,1067.954,90.285,1067.066,90.285,1065.219z
		 M92.268,1065.219v-0.288c0-1.439-0.2-1.839-0.496-1.839s-0.495,0.399-0.495,1.839v0.288c0,1.439,0.199,1.839,0.495,1.839
		S92.268,1066.659,92.268,1065.219z M93.645,1065.219v-0.288c0-1.847,0.601-2.734,1.487-2.734c0.888,0,1.487,0.888,1.487,2.734
		v0.288c0,1.847-0.6,2.734-1.487,2.734C94.245,1067.954,93.645,1067.066,93.645,1065.219z M95.628,1065.219v-0.288
		c0-1.439-0.2-1.839-0.496-1.839s-0.495,0.399-0.495,1.839v0.288c0,1.439,0.199,1.839,0.495,1.839S95.628,1066.659,95.628,1065.219z
		 M97.101,1062.277h0.967l0.688,2.047l0.688-2.047h0.967v5.597h-0.936v-3.383l-0.711,2.119h-0.017l-0.711-2.119v3.383h-0.936
		V1062.277z"/>
	<path class="st4" d="M102.795,899.447v-1.015c0.344,0.199,0.615,0.312,0.88,0.312c0.279,0,0.52-0.136,0.52-0.479v-0.017
		c0-0.256-0.08-0.447-0.544-0.975c-0.664-0.752-0.936-1.112-0.936-1.791v-0.017c0-0.896,0.584-1.463,1.359-1.463
		c0.392,0,0.624,0.056,0.863,0.176v1.016c-0.304-0.176-0.487-0.256-0.743-0.256c-0.272,0-0.504,0.176-0.504,0.479v0.016
		c0,0.265,0.08,0.36,0.544,0.896c0.768,0.888,0.936,1.231,0.936,1.871v0.017c0,0.879-0.616,1.463-1.384,1.463
		C103.402,899.679,103.074,899.584,102.795,899.447z M105.515,894.043h0.976v2.318h0.848v-2.318h0.975v5.597h-0.975v-2.351h-0.848
		v2.351h-0.976V894.043z M109.674,894.026h1.039l1.063,5.613h-0.975l-0.185-1.111h-0.888l-0.176,1.111h-0.943L109.674,894.026z
		 M110.474,897.648l-0.296-1.847l-0.304,1.847H110.474z M112.075,894.043h0.911l0.983,2.83v-2.83h0.952v5.597h-0.864l-1.031-2.967
		v2.967h-0.951V894.043z M115.402,896.937v-0.192c0-1.807,0.768-2.742,1.871-2.742c0.296,0,0.544,0.063,0.744,0.16v1.015
		c-0.24-0.144-0.456-0.239-0.712-0.239c-0.56,0-0.911,0.56-0.911,1.767v0.272c0,1.463,0.432,1.799,0.831,1.799
		c0.032,0,0.04,0,0.088-0.008v-1.432h-0.479v-0.871h1.367v2.974c-0.352,0.152-0.64,0.24-1.016,0.24
		C116.21,899.679,115.402,898.887,115.402,896.937z M118.739,894.043h0.976v2.318h0.848v-2.318h0.975v5.597h-0.975v-2.351h-0.848
		v2.351h-0.976V894.043z M122.898,894.026h1.039l1.063,5.613h-0.975l-0.185-1.111h-0.888l-0.176,1.111h-0.943L122.898,894.026z
		 M123.698,897.648l-0.296-1.847l-0.304,1.847H123.698z M125.314,894.043h0.976v5.597h-0.976V894.043z M126.795,896.057
		c0.592-0.128,0.711-0.552,0.671-0.903h-0.495v-1.111h1.104v0.911c0,0.848-0.408,1.392-1.199,1.495L126.795,896.057z
		 M128.563,899.447v-1.015c0.344,0.199,0.615,0.312,0.88,0.312c0.279,0,0.52-0.136,0.52-0.479v-0.017
		c0-0.256-0.08-0.447-0.544-0.975c-0.664-0.752-0.936-1.112-0.936-1.791v-0.017c0-0.896,0.584-1.463,1.359-1.463
		c0.392,0,0.624,0.056,0.863,0.176v1.016c-0.304-0.176-0.487-0.256-0.743-0.256c-0.272,0-0.504,0.176-0.504,0.479v0.016
		c0,0.265,0.08,0.36,0.544,0.896c0.768,0.888,0.936,1.231,0.936,1.871v0.017c0,0.879-0.616,1.463-1.384,1.463
		C129.17,899.679,128.842,899.584,128.563,899.447z M102.455,902.043h0.911l0.983,2.83v-2.83h0.951v5.597h-0.863l-1.031-2.967v2.967
		h-0.951V902.043z M105.783,904.985v-0.288c0-1.847,0.6-2.734,1.486-2.734c0.888,0,1.487,0.888,1.487,2.734v0.288
		c0,1.847-0.6,2.734-1.487,2.734C106.383,907.719,105.783,906.832,105.783,904.985z M107.766,904.985v-0.288
		c0-1.439-0.2-1.839-0.496-1.839s-0.495,0.399-0.495,1.839v0.288c0,1.438,0.199,1.839,0.495,1.839S107.766,906.423,107.766,904.985z
		 M109.143,904.985v-0.288c0-1.847,0.601-2.734,1.487-2.734c0.888,0,1.487,0.888,1.487,2.734v0.288c0,1.847-0.6,2.734-1.487,2.734
		C109.743,907.719,109.143,906.832,109.143,904.985z M111.126,904.985v-0.288c0-1.439-0.2-1.839-0.496-1.839
		s-0.495,0.399-0.495,1.839v0.288c0,1.438,0.199,1.839,0.495,1.839S111.126,906.423,111.126,904.985z M112.599,902.043h0.911
		c1.247,0,1.959,0.903,1.959,2.702v0.192c0,1.799-0.712,2.702-1.959,2.702h-0.911V902.043z M113.614,906.744
		c0.463,0,0.863-0.408,0.863-1.807v-0.192c0-1.399-0.4-1.807-0.863-1.807h-0.04v3.806H113.614z M115.951,902.043h0.976v4.669h1.031
		v0.928h-2.007V902.043z M118.351,902.043h2.143v0.928h-1.167v1.391h1.031v0.928h-1.031v1.423h1.191v0.928h-2.167V902.043z
		 M122.263,902.043h0.848c0.943,0,1.822,0.384,1.822,1.423v0.04c0,0.72-0.407,1.071-0.808,1.264c0.473,0.208,0.88,0.535,0.88,1.247
		v0.072c0,0.991-0.768,1.551-1.854,1.551h-0.888V902.043z M123.254,904.393c0.432,0,0.72-0.248,0.72-0.735v-0.017
		c0-0.487-0.288-0.695-0.72-0.695h-0.016v1.447H123.254z M123.262,906.736c0.448,0,0.768-0.264,0.768-0.728v-0.04
		c0-0.464-0.319-0.728-0.768-0.728h-0.023v1.495H123.262z M126.158,902.026h1.039l1.063,5.613h-0.975l-0.185-1.111h-0.888
		l-0.176,1.111h-0.943L126.158,902.026z M126.958,905.648l-0.296-1.847l-0.304,1.847H126.958z M128.559,902.043h1.007
		c1,0,1.728,0.527,1.728,1.783v0.071c0,0.728-0.288,1.191-0.656,1.472l0.752,2.271h-1.039l-0.632-1.951h-0.184v1.951h-0.976V902.043
		z M129.582,904.809c0.424,0,0.735-0.248,0.735-0.904v-0.063c0-0.704-0.336-0.888-0.76-0.888h-0.023v1.855H129.582z"/>
	<path class="st4" d="M126.753,467.76h1.007c1,0,1.728,0.527,1.728,1.783v0.072c0,0.728-0.288,1.191-0.656,1.472l0.752,2.271h-1.039
		l-0.632-1.951h-0.184v1.951h-0.976V467.76z M127.776,470.527c0.424,0,0.735-0.248,0.735-0.903v-0.064
		c0-0.704-0.336-0.888-0.76-0.888h-0.023v1.855H127.776z M129.937,467.76h1.007c1,0,1.728,0.527,1.728,1.783v0.072
		c0,0.728-0.288,1.191-0.656,1.472l0.752,2.271h-1.039l-0.632-1.951h-0.184v1.951h-0.976V467.76z M130.96,470.527
		c0.424,0,0.735-0.248,0.735-0.903v-0.064c0-0.704-0.336-0.888-0.76-0.888h-0.023v1.855H130.96z"/>
	<path class="st4" d="M41.563,464.741h1.007c1,0,1.728,0.527,1.728,1.783v0.072c0,0.728-0.288,1.191-0.656,1.472l0.752,2.271h-1.039
		l-0.632-1.951h-0.184v1.951h-0.976V464.741z M42.586,467.507c0.424,0,0.735-0.248,0.735-0.903v-0.064
		c0-0.704-0.336-0.888-0.76-0.888h-0.023v1.855H42.586z M44.746,464.741h1.007c1,0,1.728,0.527,1.728,1.783v0.072
		c0,0.728-0.288,1.191-0.656,1.472l0.752,2.271h-1.039l-0.632-1.951h-0.184v1.951h-0.976V464.741z M45.77,467.507
		c0.424,0,0.735-0.248,0.735-0.903v-0.064c0-0.704-0.336-0.888-0.76-0.888h-0.023v1.855H45.77z"/>
	<path class="st4" d="M107.935,408.991h0.848c0.943,0,1.822,0.384,1.822,1.423v0.04c0,0.72-0.407,1.071-0.808,1.263
		c0.472,0.208,0.88,0.536,0.88,1.248v0.072c0,0.992-0.768,1.551-1.854,1.551h-0.888V408.991z M108.926,411.341
		c0.432,0,0.72-0.248,0.72-0.736v-0.016c0-0.487-0.288-0.695-0.72-0.695h-0.016v1.447H108.926z M108.934,413.684
		c0.448,0,0.768-0.264,0.768-0.728v-0.04c0-0.464-0.319-0.728-0.768-0.728h-0.023v1.495H108.934z M110.991,411.933v-0.288
		c0-1.847,0.6-2.734,1.486-2.734c0.888,0,1.487,0.887,1.487,2.734v0.288c0,1.847-0.6,2.734-1.487,2.734
		C111.591,414.668,110.991,413.78,110.991,411.933z M112.974,411.933v-0.288c0-1.439-0.2-1.839-0.496-1.839
		s-0.495,0.399-0.495,1.839v0.288c0,1.439,0.199,1.839,0.495,1.839S112.974,413.372,112.974,411.933z M114.975,411.733l-0.88-2.742
		h1.04l0.439,1.615l0.447-1.615h1.016l-0.879,2.742l0.911,2.854h-1.039l-0.472-1.703l-0.48,1.703h-1.015L114.975,411.733z
		 M104.966,419.933v-0.288c0-1.847,0.601-2.734,1.487-2.734c0.888,0,1.487,0.887,1.487,2.734v0.288c0,1.847-0.6,2.734-1.487,2.734
		C105.566,422.668,104.966,421.78,104.966,419.933z M106.949,419.933v-0.288c0-1.439-0.2-1.839-0.496-1.839
		s-0.495,0.399-0.495,1.839v0.288c0,1.439,0.199,1.839,0.495,1.839S106.949,421.372,106.949,419.933z M108.423,416.991h2.039v0.927
		h-1.063v1.407h0.927v0.927h-0.927v2.335h-0.976V416.991z M110.902,416.991h2.039v0.927h-1.063v1.407h0.927v0.927h-0.927v2.335
		h-0.976V416.991z M113.398,416.991h0.976v5.597h-0.976V416.991z M114.87,419.885v-0.192c0-1.967,0.729-2.742,1.64-2.742
		c0.271,0,0.432,0.032,0.64,0.128v1.007c-0.2-0.12-0.359-0.184-0.544-0.184c-0.432,0-0.743,0.384-0.743,1.783v0.208
		c0,1.479,0.312,1.783,0.76,1.783c0.151,0,0.344-0.056,0.543-0.176v0.959c-0.224,0.128-0.439,0.168-0.72,0.168
		C115.55,422.628,114.87,421.836,114.87,419.885z M117.654,416.991h2.143v0.927h-1.167v1.391h1.031v0.928h-1.031v1.423h1.191v0.928
		h-2.167V416.991z"/>
	<path class="st4" d="M36.312,963.739h1.007c1,0,1.728,0.527,1.728,1.783v0.071c0,0.728-0.288,1.191-0.656,1.472l0.752,2.271h-1.039
		l-0.632-1.951h-0.184v1.951h-0.976V963.739z M37.335,966.505c0.424,0,0.735-0.247,0.735-0.902v-0.064
		c0-0.703-0.336-0.888-0.76-0.888h-0.023v1.854H37.335z M39.495,963.739h1.007c1,0,1.728,0.527,1.728,1.783v0.071
		c0,0.728-0.288,1.191-0.656,1.472l0.752,2.271h-1.039l-0.632-1.951h-0.184v1.951h-0.976V963.739z M40.519,966.505
		c0.424,0,0.735-0.247,0.735-0.902v-0.064c0-0.703-0.336-0.888-0.76-0.888h-0.023v1.854H40.519z"/>
	<path class="st4" d="M106.186,963.739h1.007c1,0,1.728,0.527,1.728,1.783v0.071c0,0.728-0.288,1.191-0.656,1.472l0.752,2.271
		h-1.039l-0.632-1.951h-0.184v1.951h-0.976V963.739z M107.209,966.505c0.424,0,0.735-0.247,0.735-0.902v-0.064
		c0-0.703-0.336-0.888-0.76-0.888h-0.023v1.854H107.209z M109.369,963.739h1.007c1,0,1.728,0.527,1.728,1.783v0.071
		c0,0.728-0.288,1.191-0.656,1.472l0.752,2.271h-1.039l-0.632-1.951h-0.184v1.951h-0.976V963.739z M110.393,966.505
		c0.424,0,0.735-0.247,0.735-0.902v-0.064c0-0.703-0.336-0.888-0.76-0.888h-0.023v1.854H110.393z"/>
	<path class="st4" d="M92.402,615.375h0.848c0.943,0,1.822,0.384,1.822,1.423v0.04c0,0.72-0.407,1.071-0.808,1.263
		c0.472,0.209,0.88,0.536,0.88,1.248v0.072c0,0.991-0.768,1.551-1.854,1.551h-0.888V615.375z M93.394,617.725
		c0.432,0,0.72-0.248,0.72-0.736v-0.016c0-0.487-0.288-0.695-0.72-0.695h-0.016v1.447H93.394z M93.401,620.068
		c0.448,0,0.768-0.265,0.768-0.728v-0.04c0-0.464-0.319-0.728-0.768-0.728h-0.023v1.495H93.401z M96.298,615.358h1.04l1.062,5.613
		h-0.975l-0.185-1.111h-0.888l-0.176,1.111h-0.943L96.298,615.358z M97.098,618.981l-0.296-1.848l-0.304,1.848H97.098z
		 M98.698,615.375h1.007c1,0,1.728,0.527,1.728,1.782v0.072c0,0.729-0.288,1.191-0.655,1.472l0.751,2.271h-1.039l-0.632-1.951
		h-0.184v1.951h-0.976V615.375z M99.722,618.141c0.424,0,0.735-0.248,0.735-0.904v-0.063c0-0.704-0.336-0.888-0.76-0.888h-0.023
		v1.855H99.722z"/>
	<path class="st4" d="M15.473,949.051h1.007c1,0,1.728,0.527,1.728,1.783v0.071c0,0.728-0.288,1.191-0.656,1.472l0.752,2.271h-1.039
		l-0.632-1.951h-0.184v1.951h-0.976V949.051z M16.496,951.817c0.424,0,0.735-0.247,0.735-0.902v-0.064
		c0-0.703-0.336-0.888-0.76-0.888h-0.023v1.854H16.496z M18.656,949.051h1.007c1,0,1.728,0.527,1.728,1.783v0.071
		c0,0.728-0.288,1.191-0.656,1.472l0.752,2.271h-1.039l-0.632-1.951h-0.184v1.951h-0.976V949.051z M19.68,951.817
		c0.424,0,0.735-0.247,0.735-0.902v-0.064c0-0.703-0.336-0.888-0.76-0.888h-0.023v1.854H19.68z"/>
	<path class="st4" d="M40.173,379.262h0.848c0.943,0,1.822,0.384,1.822,1.423v0.04c0,0.72-0.407,1.071-0.808,1.263
		c0.472,0.208,0.88,0.536,0.88,1.248v0.072c0,0.992-0.768,1.551-1.854,1.551h-0.888V379.262z M41.165,381.613
		c0.432,0,0.72-0.248,0.72-0.736v-0.016c0-0.487-0.288-0.695-0.72-0.695h-0.016v1.447H41.165z M41.172,383.956
		c0.448,0,0.768-0.264,0.768-0.728v-0.04c0-0.464-0.319-0.728-0.768-0.728h-0.023v1.495H41.172z M44.069,379.246h1.04l1.062,5.613
		h-0.975l-0.185-1.111h-0.888l-0.176,1.111h-0.943L44.069,379.246z M44.869,382.868l-0.296-1.847l-0.304,1.847H44.869z
		 M46.469,379.262h1.007c1,0,1.728,0.527,1.728,1.783v0.072c0,0.728-0.288,1.191-0.655,1.472l0.751,2.271H48.26l-0.632-1.951h-0.184
		v1.951h-0.976V379.262z M47.493,382.028c0.424,0,0.735-0.248,0.735-0.903v-0.064c0-0.704-0.336-0.888-0.76-0.888h-0.023v1.855
		H47.493z"/>
	<path class="st4" d="M64.219,291.643v-0.192c0-1.807,0.768-2.742,1.871-2.742c0.296,0,0.544,0.064,0.744,0.16v1.016
		c-0.24-0.144-0.456-0.24-0.712-0.24c-0.56,0-0.911,0.56-0.911,1.767v0.272c0,1.463,0.432,1.799,0.831,1.799
		c0.032,0,0.04,0,0.088-0.008v-1.431H65.65v-0.872h1.367v2.975c-0.352,0.152-0.64,0.24-1.016,0.24
		C65.026,294.385,64.219,293.594,64.219,291.643z M67.556,288.749h2.143v0.927h-1.167v1.391h1.031v0.928h-1.031v1.423h1.191v0.928
		h-2.167V288.749z M70.715,289.676h-0.688v-0.927h2.351v0.927H71.69v4.669h-0.976V289.676z M73.33,288.733h1.039l1.063,5.613h-0.975
		l-0.185-1.111h-0.888l-0.176,1.111h-0.943L73.33,288.733z M74.13,292.355l-0.296-1.847l-0.304,1.847H74.13z M75.428,288.749h0.999
		l0.408,3.43l0.487-3.43h0.903l0.479,3.43l0.416-3.43h0.976l-0.848,5.613h-1.023l-0.464-3.318l-0.464,3.318h-1.023L75.428,288.749z
		 M81.131,288.733h1.039l1.063,5.613h-0.975l-0.185-1.111h-0.888l-0.176,1.111h-0.943L81.131,288.733z M81.931,292.355l-0.296-1.847
		l-0.304,1.847H81.931z M83.962,292.138l-1.039-3.39h1.008l0.527,2.095l0.536-2.095h0.983l-1.04,3.39v2.207h-0.976V292.138z
		 M65.827,297.676H65.14v-0.927h2.351v0.927h-0.688v4.669h-0.976V297.676z M67.899,296.749h0.976v2.318h0.848v-2.318h0.975v5.597
		h-0.975v-2.351h-0.848v2.351h-0.976V296.749z M71.275,296.749h2.143v0.927h-1.167v1.391h1.031v0.928h-1.031v1.423h1.191v0.928
		h-2.167V296.749z M74.698,296.733h1.04l1.062,5.613h-0.975l-0.185-1.111h-0.888l-0.176,1.111h-0.943L74.698,296.733z
		 M75.498,300.355l-0.296-1.847l-0.304,1.847H75.498z M77.379,297.676h-0.688v-0.927h2.351v0.927h-0.688v4.669h-0.976V297.676z
		 M79.451,296.749h2.143v0.927h-1.167v1.391h1.031v0.928h-1.031v1.423h1.191v0.928h-2.167V296.749z M82.091,296.749h1.007
		c1,0,1.728,0.527,1.728,1.783v0.072c0,0.728-0.288,1.191-0.655,1.472l0.751,2.271h-1.039l-0.632-1.951h-0.184v1.951h-0.976V296.749
		z M83.114,299.515c0.424,0,0.735-0.248,0.735-0.903v-0.064c0-0.704-0.336-0.888-0.76-0.888h-0.023v1.855H83.114z"/>
	<path class="st4" d="M66.81,333.338v-0.288c0-1.847,0.6-2.734,1.487-2.734c0.888,0,1.487,0.887,1.487,2.734v0.288
		c0,1.847-0.6,2.734-1.487,2.734C67.409,336.072,66.81,335.184,66.81,333.338z M68.792,333.338v-0.288
		c0-1.439-0.2-1.839-0.496-1.839c-0.295,0-0.496,0.399-0.496,1.839v0.288c0,1.439,0.2,1.839,0.496,1.839
		C68.592,335.176,68.792,334.777,68.792,333.338z M70.265,330.395h0.872c1.063,0,1.807,0.575,1.807,1.887v0.016
		c0,1.263-0.704,1.863-1.695,1.935h-0.008v1.759h-0.976V330.395z M71.249,333.329c0.408-0.024,0.719-0.32,0.719-1v-0.016
		c0-0.712-0.272-1.016-0.695-1.016h-0.032v2.031H71.249z M73.345,330.395h2.143v0.927h-1.167v1.391h1.031v0.928h-1.031v1.423h1.191
		v0.928h-2.167V330.395z M75.985,330.395h0.911l0.983,2.83v-2.83h0.952v5.597h-0.864l-1.031-2.966v2.966h-0.951V330.395z
		 M81.201,331.322h-0.688v-0.927h2.351v0.927h-0.688v4.669h-0.975V331.322z M83.018,333.338v-0.288c0-1.847,0.6-2.734,1.486-2.734
		c0.888,0,1.487,0.887,1.487,2.734v0.288c0,1.847-0.6,2.734-1.487,2.734C83.617,336.072,83.018,335.184,83.018,333.338z M85,333.338
		v-0.288c0-1.439-0.2-1.839-0.496-1.839c-0.295,0-0.495,0.399-0.495,1.839v0.288c0,1.439,0.2,1.839,0.495,1.839
		C84.8,335.176,85,334.777,85,333.338z M62.137,338.395h0.912c1.248,0,1.959,0.903,1.959,2.702v0.192
		c0,1.799-0.711,2.703-1.959,2.703h-0.912V338.395z M63.153,343.096c0.464,0,0.864-0.408,0.864-1.807v-0.192
		c0-1.399-0.4-1.807-0.864-1.807h-0.04v3.806H63.153z M65.489,338.395h2.143v0.927h-1.167v1.391h1.031v0.928h-1.031v1.423h1.191
		v0.928h-2.167V338.395z M67.953,341.289v-0.192c0-1.967,0.728-2.742,1.639-2.742c0.272,0,0.432,0.032,0.64,0.128v1.007
		c-0.2-0.12-0.36-0.184-0.543-0.184c-0.432,0-0.744,0.384-0.744,1.783v0.208c0,1.479,0.312,1.783,0.759,1.783
		c0.152,0,0.344-0.056,0.544-0.176v0.959c-0.224,0.128-0.44,0.168-0.72,0.168C68.633,344.032,67.953,343.24,67.953,341.289z
		 M70.737,338.395h0.976v2.342l0.792-2.342h1.103l-0.943,2.366l0.959,3.23h-1.087l-0.607-2.119l-0.216,0.616v1.503h-0.976V338.395z
		 M75.233,338.395h0.847c0.944,0,1.823,0.384,1.823,1.423v0.04c0,0.72-0.407,1.071-0.808,1.263c0.473,0.208,0.88,0.536,0.88,1.248
		v0.072c0,0.992-0.768,1.551-1.855,1.551h-0.887V338.395z M76.225,340.746c0.432,0,0.72-0.248,0.72-0.736v-0.016
		c0-0.487-0.288-0.695-0.72-0.695h-0.016v1.447H76.225z M76.232,343.089c0.448,0,0.768-0.264,0.768-0.728v-0.04
		c0-0.464-0.319-0.728-0.768-0.728h-0.024v1.495H76.232z M78.385,338.395h2.144v0.927H79.36v1.391h1.032v0.928H79.36v1.423h1.191
		v0.928h-2.167V338.395z M81.025,338.395h0.976v4.669h1.031v0.928h-2.007V338.395z M83.129,341.338v-0.288
		c0-1.847,0.6-2.734,1.487-2.734s1.487,0.887,1.487,2.734v0.288c0,1.847-0.6,2.734-1.487,2.734S83.129,343.184,83.129,341.338z
		 M85.112,341.338v-0.288c0-1.439-0.2-1.839-0.496-1.839s-0.496,0.399-0.496,1.839v0.288c0,1.439,0.2,1.839,0.496,1.839
		S85.112,342.777,85.112,341.338z M86.241,338.395h0.999l0.408,3.43l0.487-3.43h0.904l0.479,3.43l0.416-3.43h0.975l-0.847,5.613
		H89.04l-0.464-3.318l-0.464,3.318h-1.023L86.241,338.395z"/>
	<path class="st4" d="M107.198,822.788v-0.191c0-1.807,0.768-2.742,1.871-2.742c0.296,0,0.544,0.064,0.744,0.16v1.016
		c-0.24-0.145-0.456-0.24-0.712-0.24c-0.56,0-0.911,0.56-0.911,1.767v0.272c0,1.463,0.432,1.799,0.831,1.799
		c0.032,0,0.04,0,0.088-0.008v-1.432h-0.479v-0.871h1.367v2.975c-0.352,0.151-0.64,0.239-1.016,0.239
		C108.006,825.531,107.198,824.739,107.198,822.788z M110.535,819.894h2.143v0.927h-1.167v1.392h1.031v0.928h-1.031v1.423h1.191
		v0.928h-2.167V819.894z M113.694,820.821h-0.688v-0.927h2.351v0.927h-0.688v4.67h-0.976V820.821z M116.31,819.878h1.039
		l1.063,5.613h-0.975l-0.185-1.111h-0.888l-0.176,1.111h-0.943L116.31,819.878z M117.109,823.501l-0.296-1.848l-0.304,1.848H117.109
		z M118.407,819.894h0.999l0.408,3.43l0.487-3.43h0.903l0.479,3.43l0.416-3.43h0.976l-0.848,5.612h-1.023l-0.464-3.318l-0.464,3.318
		h-1.023L118.407,819.894z M124.11,819.878h1.039l1.063,5.613h-0.975l-0.185-1.111h-0.888l-0.176,1.111h-0.943L124.11,819.878z
		 M124.91,823.501l-0.296-1.848l-0.304,1.848H124.91z M126.941,823.284l-1.039-3.39h1.008l0.527,2.095l0.536-2.095h0.983l-1.04,3.39
		v2.207h-0.976V823.284z M109.755,830.788v-0.191c0-1.967,0.728-2.742,1.639-2.742c0.271,0,0.432,0.031,0.64,0.128v1.007
		c-0.2-0.119-0.36-0.184-0.544-0.184c-0.432,0-0.743,0.384-0.743,1.783v0.208c0,1.479,0.312,1.782,0.76,1.782
		c0.151,0,0.344-0.055,0.543-0.176v0.96c-0.224,0.128-0.439,0.168-0.72,0.168C110.434,833.531,109.755,832.739,109.755,830.788z
		 M113.322,827.878h1.04l1.062,5.613h-0.975l-0.185-1.111h-0.888l-0.176,1.111h-0.943L113.322,827.878z M114.122,831.501
		l-0.296-1.848l-0.304,1.848H114.122z M115.603,833.299v-1.016c0.344,0.199,0.615,0.312,0.88,0.312c0.279,0,0.52-0.136,0.52-0.479
		V832.1c0-0.256-0.08-0.448-0.544-0.977c-0.664-0.751-0.936-1.111-0.936-1.791v-0.016c0-0.896,0.584-1.463,1.359-1.463
		c0.392,0,0.624,0.056,0.863,0.176v1.016c-0.304-0.176-0.487-0.256-0.743-0.256c-0.272,0-0.504,0.176-0.504,0.479v0.017
		c0,0.264,0.08,0.359,0.544,0.895c0.768,0.888,0.936,1.231,0.936,1.871v0.016c0,0.88-0.616,1.464-1.384,1.464
		C116.21,833.531,115.882,833.434,115.603,833.299z M118.338,827.894h0.976v5.597h-0.976V827.894z M119.906,827.894h0.911
		l0.983,2.83v-2.83h0.952v5.597h-0.864l-1.031-2.967v2.967h-0.951V827.894z M123.233,830.837v-0.288
		c0-1.847,0.601-2.734,1.487-2.734c0.888,0,1.487,0.888,1.487,2.734v0.288c0,1.847-0.6,2.734-1.487,2.734
		C123.834,833.571,123.233,832.683,123.233,830.837z M125.217,830.837v-0.288c0-1.439-0.2-1.839-0.496-1.839
		s-0.495,0.399-0.495,1.839v0.288c0,1.439,0.199,1.839,0.495,1.839S125.217,832.276,125.217,830.837z"/>
</g>
<g id="GETAWAY_DECK_07_TOP">
	<path class="st5" d="M148.378,1152.818c-13.826,16.182-35.904,16.435-35.904,16.435c-6.698,1.012-38.326,1.265-38.326,1.265
		c-19.97,0.506-45.768-2.024-45.768-2.024c-17.241-0.885-27.879-16.11-27.879-16.11V207.327l-0.033,3.174
		c0,0-0.683-63.167,3.817-84.667H6.45c0,0,6.595-28.085,20.333-56.834C42.606,35.888,66.332,1.458,74.45,0.834l0.418-0.124
		c8.118,0.624,31.843,35.054,47.665,68.166c13.738,28.749,20.334,56.834,20.334,56.834l2.166,0c4.5,21.5,3.297,84.667,3.297,84.667
		l0.048-0.766V626.48v-0.267V783.04v370.115"/>
	<g id="gDeck07Locations">
		<rect id="_x30_7Aft" x="0.25" y="728.133" class="st6" width="148.378" height="443.165"/>
		<rect id="_x30_7Middle" x="0.25" y="429.183" class="st6" width="148.378" height="298.95"/>
		<rect id="_x30_7Forward" x="0.25" class="st6" width="148.378" height="429.183"/>
	</g>
</g>
</svg>
