<?xml version="1.0" encoding="utf-8"?>
<!-- Generator: Adobe Illustrator 23.0.2, SVG Export Plug-In . SVG Version: 6.00 Build 0)  -->
<svg version="1.1" id="GETAWAY_DECK_17" xmlns="http://www.w3.org/2000/svg" xmlns:xlink="http://www.w3.org/1999/xlink" x="0px"
	 y="0px" width="151.935px" height="981.381px" viewBox="0 0 151.935 981.381" style="enable-background:new 0 0 151.935 981.381;"
	 xml:space="preserve">
<style type="text/css">
	.New_x0020_Cabins_x0020_2019{fill:#EFF2F5;stroke:#FFFFFF;stroke-width:0.5;stroke-miterlimit:10;}
	.New_x0020_Cabins_x0020_2{fill:#EFF2F5;stroke:#FFFFFF;stroke-width:0.5;stroke-miterlimit:10;}
	.New_x0020_Cabins_x0020_3{fill:#EFF2F5;stroke:#FFFFFF;stroke-width:0.5;stroke-miterlimit:10;}
	.st0{fill:#FFFFFF;}
	.st1{fill:none;stroke:#D5DCE0;stroke-width:0.5;stroke-miterlimit:10;}
	.st2{fill:none;stroke:#D5DCE0;stroke-width:0.4;stroke-linejoin:round;}
	.st3{fill:none;stroke:#D5DCE0;stroke-width:0.4;}
	.st4{fill:none;stroke:#D5DCE0;stroke-width:0.3;stroke-linejoin:round;}
	.st5{fill:none;stroke:#D5DCE0;stroke-width:0.3;}
	.st6{fill:none;stroke:#D5DCE0;stroke-width:0.5;}
	.st7{fill:none;stroke:#ED1C8F;stroke-width:0.5;stroke-miterlimit:10;}
	.st8{fill:none;stroke:#808285;stroke-width:0.5;stroke-miterlimit:10;}
	.st9{fill:#FFFFFF;stroke:#D5DCE0;stroke-width:0.5;}
	.st10{fill:none;stroke:#808285;stroke-width:0.4;}
	.st11{fill:none;stroke:#D5DCE0;stroke-width:0.3425;stroke-linejoin:round;}
	.st12{fill:none;stroke:#D5DCE0;stroke-width:0.3425;}
	.st13{fill:#DFEDF1;stroke:#CEDFE5;stroke-width:0.5;}
	.st14{fill:#6E8496;}
	.st15{fill:none;stroke:#076FA0;stroke-miterlimit:10;}
	.st16{fill:none;}
</style>
<g id="GETAWAY_DECK_17_BOTTOM">
	<path class="st0" d="M135.413,10.642c0,0-30.676-10.696-58.968-10c-30.947-0.809-58.967,10-58.967,10c-6.333,2.333-6.667,8-6.667,8
		v323h25.665v0.333v82.748h79.937v-82.748v-0.333h25.665v-323C142.079,18.642,141.747,12.976,135.413,10.642z"/>
	<path class="st0" d="M0.5,898.81h7.379v16.541h11.568v10.085h10.085v40.636h93.73v-51.017h28.178V744.208h-37.966h-11.865v22.54
		c0,0-0.296,2.967-2.669,3.56H54.448c0,0-2.966-0.297-2.966-3.263v-22.246H0.5L0.5,898.81z"/>
	<polyline class="st1" points="70.464,0.992 70.464,17.397 82.376,17.397 82.376,0.574 	"/>
	<path class="st1" d="M37.877,115.202h63.622V47.804c0,0-7.505-4.493-25.326-5.206c0,0-19.675,1.283-25.092,5.56v67.008"/>
	<polyline class="st1" points="37.968,118.018 82.303,118.018 82.303,115.166 	"/>
	<path class="st1" d="M63.769,138.977v10.835h-4.99c0,0-2.566,0.286-2.709,2.566v4.99h-2.139c0,0-1.711,0.286-1.854,2.566v54.462
		c0,0-0.143,3.137,2.424,2.852h44.055c0,0,2.565-0.001,2.423-2.281v-54.889c0,0,0-2.424-2.424-2.424h-1.854v-5.845
		c0,0-0.143-2.139-2.21-2.21h-5.489v-10.194c0,0-0.286-2.139-2.281-2.139H66.477C66.477,137.266,63.769,136.838,63.769,138.977z"/>
	<rect x="37.821" y="225.836" class="st1" width="61.59" height="10.374"/>
	<polyline class="st1" points="50.938,341.557 50.938,279.863 101.485,279.863 101.408,322.752 104.687,322.752 104.687,341.999 	
		"/>
	<line class="st1" x1="36.363" y1="341.523" x2="116.52" y2="341.523"/>
	<line class="st3" x1="19.49" y1="348.531" x2="12.928" y2="348.531"/>
	<line class="st3" x1="19.49" y1="347.425" x2="12.928" y2="347.425"/>
	<line class="st3" x1="19.431" y1="346.349" x2="12.926" y2="346.349"/>
	<line class="st3" x1="19.431" y1="345.225" x2="12.926" y2="345.225"/>
	<line class="st3" x1="19.431" y1="344.181" x2="12.926" y2="344.181"/>
	<line class="st3" x1="19.418" y1="343.101" x2="12.914" y2="343.101"/>
	<line class="st3" x1="19.314" y1="359.021" x2="19.314" y2="342.1"/>
	<line class="st3" x1="19.314" y1="359.021" x2="19.314" y2="342.1"/>
	<line class="st3" x1="12.926" y1="349.57" x2="19.431" y2="349.57"/>
	<line class="st3" x1="12.926" y1="350.632" x2="19.431" y2="350.632"/>
	<line class="st3" x1="12.953" y1="351.638" x2="19.457" y2="351.638"/>
	<polyline class="st3" points="19.469,342.218 13.03,342.218 13.03,358.896 19.443,358.896 	"/>
	<line class="st3" x1="19.49" y1="358.141" x2="12.928" y2="358.141"/>
	<line class="st3" x1="19.49" y1="357.035" x2="12.928" y2="357.035"/>
	<line class="st3" x1="19.431" y1="355.959" x2="12.926" y2="355.959"/>
	<line class="st3" x1="19.431" y1="354.835" x2="12.926" y2="354.835"/>
	<line class="st3" x1="19.431" y1="353.791" x2="12.926" y2="353.791"/>
	<line class="st3" x1="19.418" y1="352.711" x2="12.914" y2="352.711"/>
	<line class="st3" x1="110.642" y1="348.291" x2="110.642" y2="341.729"/>
	<line class="st3" x1="111.646" y1="348.291" x2="111.646" y2="341.729"/>
	<line class="st3" x1="112.621" y1="348.233" x2="112.621" y2="341.727"/>
	<line class="st3" x1="113.643" y1="348.233" x2="113.643" y2="341.727"/>
	<line class="st3" x1="114.589" y1="348.233" x2="114.589" y2="341.727"/>
	<line class="st3" x1="115.57" y1="348.219" x2="115.57" y2="341.715"/>
	<line class="st3" x1="101.124" y1="348.116" x2="116.477" y2="348.116"/>
	<line class="st3" x1="101.124" y1="348.116" x2="116.477" y2="348.116"/>
	<line class="st3" x1="109.7" y1="341.727" x2="109.7" y2="348.233"/>
	<line class="st3" x1="108.737" y1="341.727" x2="108.737" y2="348.233"/>
	<line class="st3" x1="107.823" y1="341.754" x2="107.823" y2="348.258"/>
	<polyline class="st3" points="116.37,348.27 116.37,341.831 101.239,341.831 101.239,348.244 	"/>
	<line class="st3" x1="101.923" y1="348.291" x2="101.923" y2="341.729"/>
	<line class="st3" x1="102.926" y1="348.291" x2="102.926" y2="341.729"/>
	<line class="st3" x1="103.903" y1="348.233" x2="103.903" y2="341.727"/>
	<line class="st3" x1="104.923" y1="348.233" x2="104.923" y2="341.727"/>
	<line class="st3" x1="105.87" y1="348.233" x2="105.87" y2="341.727"/>
	<line class="st3" x1="106.85" y1="348.219" x2="106.85" y2="341.715"/>
	<line class="st5" x1="133.273" y1="346.952" x2="133.273" y2="342.263"/>
	<line class="st5" x1="133.824" y1="346.952" x2="133.824" y2="342.263"/>
	<line class="st5" x1="134.361" y1="346.91" x2="134.361" y2="342.262"/>
	<line class="st5" x1="134.922" y1="346.91" x2="134.922" y2="342.262"/>
	<line class="st5" x1="135.442" y1="346.91" x2="135.442" y2="342.262"/>
	<line class="st5" x1="135.981" y1="346.901" x2="135.981" y2="342.253"/>
	<line class="st5" x1="128.04" y1="346.827" x2="136.48" y2="346.827"/>
	<line class="st5" x1="128.04" y1="346.827" x2="136.48" y2="346.827"/>
	<line class="st5" x1="132.755" y1="342.262" x2="132.755" y2="346.91"/>
	<line class="st5" x1="132.225" y1="342.262" x2="132.225" y2="346.91"/>
	<line class="st5" x1="131.722" y1="342.281" x2="131.722" y2="346.929"/>
	<polyline class="st5" points="136.421,346.937 136.421,342.336 128.103,342.336 128.103,346.919 	"/>
	<line class="st5" x1="128.48" y1="346.952" x2="128.48" y2="342.263"/>
	<line class="st5" x1="129.031" y1="346.952" x2="129.031" y2="342.263"/>
	<line class="st5" x1="129.568" y1="346.91" x2="129.568" y2="342.262"/>
	<line class="st5" x1="130.128" y1="346.91" x2="130.128" y2="342.262"/>
	<line class="st5" x1="130.65" y1="346.91" x2="130.65" y2="342.262"/>
	<line class="st5" x1="131.188" y1="346.901" x2="131.188" y2="342.253"/>
	<line class="st5" x1="133.273" y1="351.453" x2="133.273" y2="346.764"/>
	<line class="st5" x1="133.824" y1="351.453" x2="133.824" y2="346.764"/>
	<line class="st5" x1="134.361" y1="351.411" x2="134.361" y2="346.763"/>
	<line class="st5" x1="134.922" y1="351.411" x2="134.922" y2="346.763"/>
	<line class="st5" x1="135.442" y1="351.411" x2="135.442" y2="346.763"/>
	<line class="st5" x1="135.981" y1="351.402" x2="135.981" y2="346.754"/>
	<line class="st5" x1="128.04" y1="351.328" x2="136.48" y2="351.328"/>
	<line class="st5" x1="128.04" y1="351.328" x2="136.48" y2="351.328"/>
	<line class="st5" x1="132.755" y1="346.763" x2="132.755" y2="351.411"/>
	<line class="st5" x1="132.225" y1="346.763" x2="132.225" y2="351.411"/>
	<line class="st5" x1="131.722" y1="346.782" x2="131.722" y2="351.43"/>
	<polyline class="st5" points="128.103,351.42 128.103,346.837 136.421,346.837 136.421,351.438 	"/>
	<line class="st5" x1="128.48" y1="351.453" x2="128.48" y2="346.764"/>
	<line class="st5" x1="129.031" y1="351.453" x2="129.031" y2="346.764"/>
	<line class="st5" x1="129.568" y1="351.411" x2="129.568" y2="346.763"/>
	<line class="st5" x1="130.128" y1="351.411" x2="130.128" y2="346.763"/>
	<line class="st5" x1="130.65" y1="351.411" x2="130.65" y2="346.763"/>
	<line class="st5" x1="131.188" y1="351.402" x2="131.188" y2="346.754"/>
	<polyline class="st6" points="116.52,356.827 128.495,356.827 128.515,351.765 136.129,351.765 140.698,351.765 140.698,341.423 	
		"/>
	<path class="st6" d="M36.361,966.366c-0.835,5.473-5.562,9.666-11.269,9.666c-6.296,0-11.4-5.104-11.4-11.4s5.104-11.4,11.4-11.4
		c1.574,0,3.074,0.318,4.438,0.895"/>
	<path class="st6" d="M123.366,954.127c1.364-0.577,2.864-0.896,4.438-0.896c6.297,0,11.4,5.104,11.4,11.4s-5.103,11.4-11.4,11.4
		c-5.766,0-10.53-4.278-11.294-9.832"/>
	<path class="st6" d="M29.513,948.978c-1.638-0.822-3.683-1.021-5.571-1.021c-7.556,0-15.415,6.5-15.508,16.343
		c-0.095,10.031,8.172,16.75,15.728,16.75c6.849,0,9.995-1.335,14.266-6.35h76.051c7.151,8.45,18.27,7.22,23.03,3.434
		c3.622-2.88,6.5-6.871,6.973-12.384c0.438-5.102-1.596-10.864-5.302-13.523v-36.866"/>
	<polyline class="st6" points="106.63,899.434 106.633,878.275 101.551,862.68 84.905,862.68 84.905,819.749 77.545,819.749 
		77.545,816.07 51.086,816.595 51.086,862.855 46.43,877.398 46.43,899.05 	"/>
	<line class="st6" x1="7.932" y1="899.05" x2="46.43" y2="899.05"/>
	<line class="st6" x1="106.63" y1="899.434" x2="151.429" y2="899.442"/>
	<rect x="57.919" y="682.02" class="st9" width="36.447" height="73.42"/>
	<polyline class="st6" points="84.905,819.749 84.905,816.772 101.902,816.772 101.902,862.68 	"/>
	<line class="st6" x1="106.804" y1="852.226" x2="102.165" y2="852.226"/>
	<line class="st6" x1="106.804" y1="851.118" x2="102.165" y2="851.118"/>
	<line class="st6" x1="106.762" y1="850.044" x2="102.163" y2="850.044"/>
	<line class="st6" x1="106.762" y1="848.919" x2="102.163" y2="848.919"/>
	<line class="st6" x1="106.762" y1="847.876" x2="102.163" y2="847.876"/>
	<line class="st6" x1="106.753" y1="846.795" x2="102.156" y2="846.795"/>
	<line class="st6" x1="106.68" y1="862.716" x2="106.68" y2="845.794"/>
	<line class="st6" x1="106.68" y1="862.716" x2="106.68" y2="845.794"/>
	<line class="st6" x1="102.163" y1="853.264" x2="106.762" y2="853.264"/>
	<line class="st6" x1="102.163" y1="854.326" x2="106.762" y2="854.326"/>
	<line class="st6" x1="102.183" y1="855.333" x2="106.781" y2="855.333"/>
	<polyline class="st6" points="106.788,845.912 102.238,845.912 102.238,862.59 106.771,862.59 	"/>
	<line class="st6" x1="106.804" y1="861.835" x2="102.165" y2="861.835"/>
	<line class="st6" x1="106.804" y1="860.73" x2="102.165" y2="860.73"/>
	<line class="st6" x1="106.762" y1="859.654" x2="102.163" y2="859.654"/>
	<line class="st6" x1="106.762" y1="858.53" x2="102.163" y2="858.53"/>
	<line class="st6" x1="106.762" y1="857.486" x2="102.163" y2="857.486"/>
	<line class="st6" x1="106.753" y1="856.406" x2="102.156" y2="856.406"/>
	<line class="st6" x1="65.318" y1="811.2" x2="65.318" y2="815.838"/>
	<line class="st6" x1="64.21" y1="811.2" x2="64.21" y2="815.838"/>
	<line class="st6" x1="63.136" y1="811.242" x2="63.136" y2="815.84"/>
	<line class="st6" x1="62.011" y1="811.242" x2="62.011" y2="815.84"/>
	<line class="st6" x1="60.968" y1="811.242" x2="60.968" y2="815.84"/>
	<line class="st6" x1="59.887" y1="811.25" x2="59.887" y2="815.848"/>
	<line class="st6" x1="75.808" y1="811.324" x2="58.886" y2="811.324"/>
	<line class="st6" x1="75.808" y1="811.324" x2="58.886" y2="811.324"/>
	<line class="st6" x1="66.356" y1="815.84" x2="66.356" y2="811.242"/>
	<line class="st6" x1="67.418" y1="815.84" x2="67.418" y2="811.242"/>
	<line class="st6" x1="68.425" y1="815.821" x2="68.425" y2="811.223"/>
	<polyline class="st6" points="59.004,811.215 59.004,815.766 75.682,815.766 75.682,811.233 	"/>
	<line class="st6" x1="74.927" y1="811.2" x2="74.927" y2="815.838"/>
	<line class="st6" x1="73.822" y1="811.2" x2="73.822" y2="815.838"/>
	<line class="st6" x1="72.745" y1="811.242" x2="72.745" y2="815.84"/>
	<line class="st6" x1="71.621" y1="811.242" x2="71.621" y2="815.84"/>
	<line class="st6" x1="70.577" y1="811.242" x2="70.577" y2="815.84"/>
	<line class="st6" x1="69.497" y1="811.25" x2="69.497" y2="815.848"/>
	<line class="st6" x1="16.533" y1="741.253" x2="21.128" y2="741.253"/>
	<line class="st6" x1="16.533" y1="742.259" x2="21.128" y2="742.259"/>
	<line class="st6" x1="16.542" y1="743.301" x2="21.136" y2="743.301"/>
	<line class="st6" x1="16.615" y1="726.015" x2="16.615" y2="744.266"/>
	<line class="st6" x1="16.615" y1="726.015" x2="16.615" y2="744.266"/>
	<polyline class="st6" points="16.506,744.138 21.055,744.138 21.055,726.15 	"/>
	<line class="st6" x1="85.131" y1="815.485" x2="102.156" y2="815.485"/>
	<line class="st6" x1="85.131" y1="815.485" x2="102.156" y2="815.485"/>
	<line class="st6" x1="99.345" y1="815.605" x2="99.345" y2="808.923"/>
	<line class="st6" x1="100.283" y1="815.605" x2="100.283" y2="808.923"/>
	<line class="st6" x1="101.256" y1="815.591" x2="101.256" y2="808.91"/>
	<line class="st6" x1="97.357" y1="815.605" x2="97.357" y2="808.923"/>
	<line class="st6" x1="98.329" y1="815.591" x2="98.329" y2="808.91"/>
	<polyline class="st6" points="102.036,815.643 102.036,809.029 85.257,809.029 	"/>
	<polyline class="st6" points="74.56,661.405 115.997,661.405 116.286,714.001 113.397,714.001 113.397,744.635 	"/>
	<rect x="57.91" y="661.694" class="st9" width="10.115" height="16.473"/>
	<line class="st6" x1="58.41" y1="678.09" x2="58.41" y2="682.02"/>
	<polyline class="st6" points="74.685,661.139 74.747,671.355 70.161,674.077 67.868,674.077 	"/>
	<polyline class="st6" points="67.725,677.66 71.165,677.66 84.923,671.928 	"/>
	<line class="st6" x1="84.923" y1="661.307" x2="84.923" y2="681.96"/>
	<line class="st12" x1="50.73" y1="290.456" x2="45.67" y2="290.456"/>
	<line class="st12" x1="50.73" y1="289.405" x2="45.67" y2="289.405"/>
	<line class="st12" x1="50.685" y1="288.382" x2="45.668" y2="288.382"/>
	<line class="st12" x1="50.685" y1="287.313" x2="45.668" y2="287.313"/>
	<line class="st12" x1="50.685" y1="286.322" x2="45.668" y2="286.322"/>
	<line class="st12" x1="50.675" y1="285.294" x2="45.659" y2="285.294"/>
	<line class="st12" x1="50.595" y1="300.429" x2="50.595" y2="284.343"/>
	<line class="st12" x1="50.595" y1="300.429" x2="50.595" y2="284.343"/>
	<line class="st12" x1="45.668" y1="291.444" x2="50.685" y2="291.444"/>
	<line class="st12" x1="45.668" y1="292.453" x2="50.685" y2="292.453"/>
	<line class="st12" x1="45.689" y1="293.41" x2="50.705" y2="293.41"/>
	<polyline class="st12" points="50.714,284.455 45.749,284.455 45.749,300.309 50.694,300.309 	"/>
	<line class="st12" x1="50.73" y1="299.592" x2="45.67" y2="299.592"/>
	<line class="st12" x1="50.73" y1="298.54" x2="45.67" y2="298.54"/>
	<line class="st12" x1="50.685" y1="297.518" x2="45.668" y2="297.518"/>
	<line class="st12" x1="50.685" y1="296.449" x2="45.668" y2="296.449"/>
	<line class="st12" x1="50.685" y1="295.457" x2="45.668" y2="295.457"/>
	<line class="st12" x1="50.675" y1="294.43" x2="45.659" y2="294.43"/>
	<path class="st1" d="M51.023,279.863v-4.676c0,0-0.717-9.814,10.639-10.228h42.869c0,0,11.421-0.313,11.577,10.795v25.033
		c0,0-0.778,8.387-10.639,8.761c-1.889,0.072-3.985,0-3.985,0v-29.686H50.938"/>
	<line class="st1" x1="46.618" y1="225.855" x2="46.618" y2="236.123"/>
	<line class="st1" x1="51.426" y1="225.855" x2="51.426" y2="236.123"/>
	<line class="st1" x1="56.292" y1="225.855" x2="56.292" y2="236.123"/>
	<line class="st1" x1="62.999" y1="225.855" x2="62.999" y2="236.123"/>
	<line class="st1" x1="67.747" y1="225.855" x2="67.747" y2="236.123"/>
	<line class="st1" x1="72.495" y1="225.855" x2="72.495" y2="236.123"/>
	<line class="st1" x1="80.864" y1="225.855" x2="80.864" y2="236.123"/>
	<line class="st1" x1="89.35" y1="225.855" x2="89.35" y2="236.123"/>
	<line class="st1" x1="94.098" y1="225.855" x2="94.098" y2="236.123"/>
	<path class="st6" d="M37.821,225.836V115.388c0,0,0.147-12.068,13.035-13.429"/>
	<polyline class="st6" points="141.36,147.457 104.848,147.457 104.848,225.836 99.411,225.836 	"/>
	<line class="st6" x1="101.48" y1="1.987" x2="101.48" y2="47.628"/>
	<polyline class="st6" points="84.905,816.772 101.806,829.324 84.894,829.324 101.902,816.772 	"/>
	<line class="st1" x1="44.616" y1="243.306" x2="43.489" y2="234.064"/>
	<path class="st6" d="M57.927,749.955c0,0-1.127-0.211-1.127,0.75c0,0.936,0,3.793,0,5.203c0,0,0.246,0.74,0.795,0.695
		c0,0,35.993-0.045,37.11-0.088c0.977-0.037,1.104-1.455,1.104-1.455s0.043-3.283,0-4.117c-0.051-1.021-1.152-0.824-1.152-0.824"/>
	<path class="st1" d="M47.096,242.968c-0.478,1.913-0.414,1.392,2.367-8.341"/>
	<path class="st1" d="M49.012,243.644c0.789-1.015,4.959-9.13,4.959-9.13"/>
	<line class="st1" x1="61.185" y1="243.306" x2="60.058" y2="234.064"/>
	<path class="st1" d="M64.341,243.305c0.338-2.705,0.564-3.719,1.353-9.693"/>
	<path class="st1" d="M66.934,243.644c0.789-1.465,3.606-9.129,3.606-9.129"/>
	<line class="st1" x1="86.207" y1="242.855" x2="85.194" y2="234.289"/>
	<line class="st1" x1="82.939" y1="243.306" x2="76.74" y2="234.064"/>
	<path class="st1" d="M89.364,242.855c1.24-3.043,1.127-2.818,2.931-8.453"/>
	<path class="st1" d="M92.745,243.644c0.789-1.015,4.621-9.919,4.621-9.919"/>
	<line class="st6" x1="116.395" y1="596.472" x2="120.543" y2="607.576"/>
	<line class="st6" x1="55.614" y1="613.499" x2="59.762" y2="624.603"/>
	<path class="st13" d="M149.698,619.391c-2.478-11.043-14.18-12.853-14.18-12.853c-10.197-0.664-16.354,4.888-16.354,4.888
		c-9.172,8.75-12.731,26.551-12.731,26.551c1.509,1.207,3.801,0.845,3.801,0.845c0.12-2.715,4.043-13.879,4.043-13.879
		c5.913-13.034,15.629-14.481,15.629-14.481c11.888-2.052,15.267,6.823,15.267,6.823c4.827,12.856-9.715,22.507-9.715,22.507
		c-8.809,8.206-20.215,11.164-20.215,11.164l-0.543,0.06c-2.474,2.293-24.861,2.021-24.861,2.021c-0.967,0-1.75,0.743-1.75,1.66
		c0,0.916,0.783,1.659,1.75,1.659c1.81,0.398,17.198-0.157,17.198-0.157c20.637-2.836,33.972-16.774,33.972-16.774
		C152.533,629.407,149.698,619.391,149.698,619.391z"/>
	<path class="st13" d="M57.16,628.492c0.315-0.644-2.643-2.238-2.956-1.816c-1.952,2.628-3.112,5.919-3.112,9.49
		c0,8.609,6.739,15.589,15.052,15.589c4.178,0,7.959-1.763,10.686-4.609c0,0-4.249,4.549-11.98,2.457
		C61.782,648.772,50.325,642.454,57.16,628.492z"/>
	<path class="st13" d="M68.374,623.365c-7.442,0-13.476,6.033-13.476,13.476c0,7.443,6.034,13.476,13.476,13.476
		c7.442,0,13.475-6.032,13.475-13.476C81.849,629.398,75.816,623.365,68.374,623.365z M69.861,643.355
		c-4.189,0-7.586-3.276-7.586-7.317c0-4.042,3.396-7.318,7.586-7.318c4.189,0,7.586,3.276,7.586,7.318
		C77.447,640.078,74.051,643.355,69.861,643.355z"/>
	<path class="st13" d="M68.374,626.28c-5.833,0-10.561,4.729-10.561,10.56c0,5.833,4.728,10.56,10.561,10.56
		c5.832,0,10.56-4.727,10.56-10.56C78.934,631.008,74.206,626.28,68.374,626.28z M69.682,643.236c-4.157,0-7.527-3.223-7.527-7.198
		c0-3.977,3.37-7.199,7.527-7.199c4.156,0,7.526,3.223,7.526,7.199C77.208,640.013,73.838,643.236,69.682,643.236z"/>
	<path class="st13" d="M77.168,662.718c0,0,2.982,1.518,5.003-0.09v-12.859c0,0,0.672-2.737,2.783-3.703l11.525-4.647
		c0,0,8.931-4.044,7.24-11.707l-0.725-2.655l-3.9,1.625l-0.444,0.186c0,0,2.233,5.611-4.827,8.267l-11.284,4.526
		c0,0-5.552,2.594-5.311,9.051L77.168,662.718z"/>
	<path class="st13" d="M84.59,668.024h8.629c0,0,20.456-2.293,29.688-9.172c0,0,17.316-10.015,15.386-23.531
		c0,0,0.242-2.533,3.319-1.327c3.077,1.206-1.447,13.818-5.37,18.042c0,0-8.328,8.991-18.888,13.697c0,0-14.059,6.094-29.446,5.672
		h-3.561c0,0-2.475,0.241-2.173-1.87C82.175,669.534,81.994,667.724,84.59,668.024z"/>
	<path class="st13" d="M106.736,638.156v27.455l3.379-0.784l0.119-26.005C110.234,638.822,108.849,639.302,106.736,638.156z"/>
	<path class="st0" d="M99.313,629.231c0,0,2.775,4.283-3.741,8.749c0,0-3.259,1.931-3.198,2.354c0,0,0.121,0.663,3.319-0.362
		c0,0,8.81-2.654,7.301-10.438l-0.482-1.932l-3.319,1.328L99.313,629.231z"/>
	<path class="st14" d="M59.481,270.421h0.848c0.943,0,1.822,0.384,1.822,1.423v0.04c0,0.72-0.407,1.071-0.808,1.263
		c0.472,0.208,0.88,0.536,0.88,1.248v0.072c0,0.992-0.768,1.551-1.854,1.551h-0.888V270.421z M60.472,272.772
		c0.432,0,0.72-0.248,0.72-0.736v-0.016c0-0.487-0.288-0.695-0.72-0.695h-0.016v1.447H60.472z M60.48,275.115
		c0.448,0,0.768-0.264,0.768-0.728v-0.04c0-0.464-0.319-0.728-0.768-0.728h-0.023v1.495H60.48z M63.377,270.405h1.04l1.062,5.613
		h-0.975l-0.185-1.111h-0.888l-0.176,1.111h-0.943L63.377,270.405z M64.176,274.027l-0.296-1.847l-0.304,1.847H64.176z
		 M65.777,270.421h1.007c1,0,1.728,0.527,1.728,1.783v0.072c0,0.728-0.288,1.191-0.655,1.472l0.751,2.271h-1.039l-0.632-1.951
		h-0.184v1.951h-0.976V270.421z M66.8,273.187c0.424,0,0.735-0.248,0.735-0.903v-0.064c0-0.704-0.336-0.888-0.76-0.888h-0.023v1.855
		H66.8z"/>
	<path class="st14" d="M83.589,270.615h0.848c0.943,0,1.822,0.384,1.822,1.423v0.04c0,0.72-0.407,1.071-0.808,1.263
		c0.472,0.208,0.88,0.536,0.88,1.248v0.072c0,0.992-0.768,1.551-1.854,1.551h-0.888V270.615z M84.58,272.965
		c0.432,0,0.72-0.248,0.72-0.736v-0.016c0-0.487-0.288-0.695-0.72-0.695h-0.016v1.447H84.58z M84.588,275.308
		c0.448,0,0.768-0.264,0.768-0.728v-0.04c0-0.464-0.319-0.728-0.768-0.728h-0.023v1.495H84.588z M87.484,270.598h1.04l1.062,5.613
		h-0.975l-0.185-1.111H87.54l-0.176,1.111h-0.943L87.484,270.598z M88.284,274.221l-0.296-1.847l-0.304,1.847H88.284z
		 M89.885,270.615h1.007c1,0,1.728,0.527,1.728,1.783v0.072c0,0.728-0.288,1.191-0.655,1.472l0.751,2.271h-1.039l-0.632-1.951H90.86
		v1.951h-0.976V270.615z M90.908,273.381c0.424,0,0.735-0.248,0.735-0.903v-0.064c0-0.704-0.336-0.888-0.76-0.888H90.86v1.855
		H90.908z"/>
	<path class="st14" d="M43.31,245.625h1.007c1,0,1.728,0.527,1.728,1.783v0.072c0,0.728-0.288,1.191-0.656,1.472l0.752,2.271h-1.039
		l-0.632-1.951h-0.184v1.951H43.31V245.625z M44.333,248.391c0.424,0,0.735-0.248,0.735-0.903v-0.064
		c0-0.704-0.336-0.888-0.76-0.888h-0.023v1.855H44.333z M46.493,245.625H47.5c1,0,1.728,0.527,1.728,1.783v0.072
		c0,0.728-0.288,1.191-0.656,1.472l0.752,2.271h-1.039l-0.632-1.951h-0.184v1.951h-0.976V245.625z M47.517,248.391
		c0.424,0,0.735-0.248,0.735-0.903v-0.064c0-0.704-0.336-0.888-0.76-0.888h-0.023v1.855H47.517z"/>
	<path class="st14" d="M84.111,245.625h1.007c1,0,1.728,0.527,1.728,1.783v0.072c0,0.728-0.288,1.191-0.656,1.472l0.752,2.271
		h-1.039l-0.632-1.951h-0.184v1.951h-0.976V245.625z M85.135,248.391c0.424,0,0.735-0.248,0.735-0.903v-0.064
		c0-0.704-0.336-0.888-0.76-0.888h-0.023v1.855H85.135z M87.295,245.625h1.007c1,0,1.728,0.527,1.728,1.783v0.072
		c0,0.728-0.288,1.191-0.656,1.472l0.752,2.271h-1.039l-0.632-1.951h-0.184v1.951h-0.976V245.625z M88.318,248.391
		c0.424,0,0.735-0.248,0.735-0.903v-0.064c0-0.704-0.336-0.888-0.76-0.888h-0.023v1.855H88.318z"/>
	<path class="st14" d="M61.456,245.625h1.007c1,0,1.728,0.527,1.728,1.783v0.072c0,0.728-0.288,1.191-0.656,1.472l0.752,2.271
		h-1.039l-0.632-1.951h-0.184v1.951h-0.976V245.625z M62.48,248.391c0.424,0,0.735-0.248,0.735-0.903v-0.064
		c0-0.704-0.336-0.888-0.76-0.888h-0.023v1.855H62.48z M64.64,245.625h1.007c1,0,1.728,0.527,1.728,1.783v0.072
		c0,0.728-0.288,1.191-0.656,1.472l0.752,2.271h-1.039l-0.632-1.951h-0.184v1.951H64.64V245.625z M65.663,248.391
		c0.424,0,0.735-0.248,0.735-0.903v-0.064c0-0.704-0.336-0.888-0.76-0.888h-0.023v1.855H65.663z"/>
	<path class="st14" d="M59.109,795.219v-1.016c0.344,0.199,0.615,0.312,0.88,0.312c0.279,0,0.52-0.136,0.52-0.479v-0.016
		c0-0.256-0.08-0.448-0.544-0.977c-0.664-0.751-0.936-1.111-0.936-1.791v-0.016c0-0.896,0.584-1.463,1.359-1.463
		c0.392,0,0.624,0.056,0.863,0.176v1.016c-0.304-0.176-0.487-0.256-0.743-0.256c-0.272,0-0.504,0.176-0.504,0.479v0.017
		c0,0.264,0.08,0.359,0.544,0.895c0.768,0.888,0.936,1.231,0.936,1.871v0.016c0,0.88-0.616,1.464-1.384,1.464
		C59.716,795.451,59.388,795.354,59.109,795.219z M61.829,789.814H62.7c1.063,0,1.808,0.575,1.808,1.887v0.017
		c0,1.263-0.704,1.862-1.695,1.935h-0.008v1.759h-0.976V789.814z M62.812,792.748c0.407-0.024,0.72-0.32,0.72-1v-0.016
		c0-0.712-0.272-1.016-0.696-1.016h-0.031v2.031H62.812z M64.812,792.756v-0.288c0-1.847,0.601-2.734,1.487-2.734
		c0.888,0,1.487,0.888,1.487,2.734v0.288c0,1.847-0.6,2.734-1.487,2.734C65.413,795.491,64.812,794.603,64.812,792.756z
		 M66.795,792.756v-0.288c0-1.439-0.2-1.839-0.496-1.839s-0.495,0.399-0.495,1.839v0.288c0,1.439,0.199,1.839,0.495,1.839
		S66.795,794.196,66.795,792.756z M68.269,789.814h1.007c1,0,1.728,0.527,1.728,1.782v0.072c0,0.729-0.288,1.191-0.656,1.472
		l0.752,2.271H70.06l-0.632-1.951h-0.184v1.951h-0.976V789.814z M69.293,792.58c0.424,0,0.735-0.248,0.735-0.904v-0.063
		c0-0.704-0.336-0.888-0.76-0.888h-0.023v1.855H69.293z M71.892,790.741h-0.688v-0.927h2.351v0.927h-0.688v4.67h-0.976V790.741z
		 M73.845,795.219v-1.016c0.344,0.199,0.615,0.312,0.88,0.312c0.279,0,0.52-0.136,0.52-0.479v-0.016c0-0.256-0.08-0.448-0.544-0.977
		c-0.664-0.751-0.936-1.111-0.936-1.791v-0.016c0-0.896,0.584-1.463,1.359-1.463c0.392,0,0.624,0.056,0.863,0.176v1.016
		c-0.304-0.176-0.487-0.256-0.743-0.256c-0.272,0-0.504,0.176-0.504,0.479v0.017c0,0.264,0.08,0.359,0.544,0.895
		c0.768,0.888,0.936,1.231,0.936,1.871v0.016c0,0.88-0.616,1.464-1.384,1.464C74.453,795.451,74.125,795.354,73.845,795.219z
		 M77.74,792.707v-0.191c0-1.967,0.729-2.742,1.639-2.742c0.271,0,0.432,0.031,0.64,0.128v1.007c-0.2-0.119-0.359-0.184-0.544-0.184
		c-0.431,0-0.743,0.384-0.743,1.783v0.208c0,1.479,0.312,1.782,0.759,1.782c0.151,0,0.344-0.055,0.543-0.176v0.96
		c-0.224,0.128-0.439,0.168-0.72,0.168C78.419,795.451,77.74,794.659,77.74,792.707z M80.228,792.756v-0.288
		c0-1.847,0.601-2.734,1.487-2.734c0.888,0,1.487,0.888,1.487,2.734v0.288c0,1.847-0.6,2.734-1.487,2.734
		C80.828,795.491,80.228,794.603,80.228,792.756z M82.211,792.756v-0.288c0-1.439-0.2-1.839-0.496-1.839s-0.495,0.399-0.495,1.839
		v0.288c0,1.439,0.199,1.839,0.495,1.839S82.211,794.196,82.211,792.756z M83.685,789.814h0.967l0.688,2.047l0.688-2.047h0.967
		v5.597h-0.936v-3.383l-0.711,2.119h-0.017l-0.711-2.119v3.383h-0.936V789.814z M87.572,789.814h0.871
		c1.063,0,1.808,0.575,1.808,1.887v0.017c0,1.263-0.704,1.862-1.695,1.935h-0.008v1.759h-0.976V789.814z M88.556,792.748
		c0.407-0.024,0.72-0.32,0.72-1v-0.016c0-0.712-0.272-1.016-0.696-1.016h-0.031v2.031H88.556z M90.652,789.814h0.976v4.669h1.031
		v0.928h-2.007V789.814z M93.052,789.814h2.143v0.927h-1.167v1.392h1.031v0.928h-1.031v1.423h1.191v0.928h-2.167V789.814z
		 M96.38,792.556l-0.88-2.742h1.04l0.439,1.614l0.447-1.614h1.016l-0.879,2.742l0.911,2.854h-1.039l-0.472-1.703l-0.48,1.703h-1.016
		L96.38,792.556z"/>
	<path class="st14" d="M117.987,171.416h0.991l0.528,3.646l0.527-3.646h0.96l-1,5.613h-1.007L117.987,171.416z M121.307,171.416
		h0.976v5.597h-0.976V171.416z M122.875,171.416h0.848c0.943,0,1.822,0.384,1.822,1.423v0.04c0,0.72-0.407,1.071-0.808,1.263
		c0.473,0.208,0.88,0.536,0.88,1.248v0.072c0,0.992-0.768,1.551-1.854,1.551h-0.888V171.416z M123.866,173.767
		c0.432,0,0.72-0.248,0.72-0.736v-0.016c0-0.487-0.288-0.695-0.72-0.695h-0.016v1.447H123.866z M123.874,176.11
		c0.448,0,0.768-0.264,0.768-0.728v-0.04c0-0.464-0.319-0.728-0.768-0.728h-0.023v1.495H123.874z M126.027,171.416h2.143v0.927
		h-1.167v1.391h1.031v0.928h-1.031v1.423h1.191v0.928h-2.167V171.416z M115.988,179.416h0.848c0.943,0,1.822,0.384,1.822,1.423v0.04
		c0,0.72-0.407,1.071-0.808,1.263c0.473,0.208,0.88,0.536,0.88,1.248v0.072c0,0.992-0.768,1.551-1.854,1.551h-0.888V179.416z
		 M116.98,181.767c0.432,0,0.72-0.248,0.72-0.736v-0.016c0-0.487-0.288-0.695-0.72-0.695h-0.016v1.447H116.98z M116.987,184.11
		c0.448,0,0.768-0.264,0.768-0.728v-0.04c0-0.464-0.319-0.728-0.768-0.728h-0.023v1.495H116.987z M119.141,179.416h2.143v0.927
		h-1.167v1.391h1.031v0.928h-1.031v1.423h1.191v0.928h-2.167V179.416z M122.564,179.4h1.039l1.063,5.613h-0.975l-0.185-1.111h-0.888
		l-0.176,1.111H121.5L122.564,179.4z M123.363,183.022l-0.296-1.847l-0.304,1.847H123.363z M124.788,182.31v-0.192
		c0-1.967,0.728-2.742,1.639-2.742c0.271,0,0.432,0.032,0.64,0.128v1.007c-0.2-0.12-0.36-0.184-0.544-0.184
		c-0.432,0-0.743,0.384-0.743,1.783v0.208c0,1.479,0.312,1.783,0.76,1.783c0.151,0,0.344-0.056,0.543-0.176v0.959
		c-0.224,0.128-0.439,0.168-0.72,0.168C125.467,185.053,124.788,184.262,124.788,182.31z M127.572,179.416h0.976v2.318h0.848v-2.318
		h0.975v5.597h-0.975v-2.351h-0.848v2.351h-0.976V179.416z M117.628,190.31v-0.192c0-1.967,0.728-2.742,1.639-2.742
		c0.271,0,0.432,0.032,0.64,0.128v1.007c-0.2-0.12-0.36-0.184-0.544-0.184c-0.432,0-0.743,0.384-0.743,1.783v0.208
		c0,1.479,0.312,1.783,0.76,1.783c0.151,0,0.344-0.056,0.543-0.176v0.959c-0.224,0.128-0.439,0.168-0.72,0.168
		C118.307,193.053,117.628,192.262,117.628,190.31z M120.412,187.416h0.976v4.669h1.031v0.928h-2.007V187.416z M122.715,191.382
		v-3.966h0.968v4.062c0,0.504,0.176,0.704,0.424,0.704s0.424-0.2,0.424-0.704v-4.062h0.968v3.966c0,1.175-0.592,1.703-1.392,1.703
		S122.715,192.557,122.715,191.382z M126.06,187.416h0.848c0.943,0,1.822,0.384,1.822,1.423v0.04c0,0.72-0.407,1.071-0.808,1.263
		c0.472,0.208,0.88,0.536,0.88,1.248v0.072c0,0.992-0.768,1.551-1.854,1.551h-0.888V187.416z M127.051,189.767
		c0.432,0,0.72-0.248,0.72-0.736v-0.016c0-0.487-0.288-0.695-0.72-0.695h-0.016v1.447H127.051z M127.059,192.11
		c0.448,0,0.768-0.264,0.768-0.728v-0.04c0-0.464-0.319-0.728-0.768-0.728h-0.023v1.495H127.059z"/>
	<path class="st14" d="M18.905,171.416h0.991l0.528,3.646l0.527-3.646h0.96l-1,5.613h-1.007L18.905,171.416z M22.224,171.416H23.2
		v5.597h-0.976V171.416z M23.793,171.416h0.848c0.943,0,1.822,0.384,1.822,1.423v0.04c0,0.72-0.407,1.071-0.808,1.263
		c0.473,0.208,0.88,0.536,0.88,1.248v0.072c0,0.992-0.768,1.551-1.854,1.551h-0.888V171.416z M24.784,173.767
		c0.432,0,0.72-0.248,0.72-0.736v-0.016c0-0.487-0.288-0.695-0.72-0.695h-0.016v1.447H24.784z M24.792,176.11
		c0.448,0,0.768-0.264,0.768-0.728v-0.04c0-0.464-0.319-0.728-0.768-0.728h-0.023v1.495H24.792z M26.945,171.416h2.143v0.927H27.92
		v1.391h1.031v0.928H27.92v1.423h1.191v0.928h-2.167V171.416z M16.906,179.416h0.848c0.943,0,1.822,0.384,1.822,1.423v0.04
		c0,0.72-0.407,1.071-0.808,1.263c0.473,0.208,0.88,0.536,0.88,1.248v0.072c0,0.992-0.768,1.551-1.854,1.551h-0.888V179.416z
		 M17.897,181.767c0.432,0,0.72-0.248,0.72-0.736v-0.016c0-0.487-0.288-0.695-0.72-0.695h-0.016v1.447H17.897z M17.905,184.11
		c0.448,0,0.768-0.264,0.768-0.728v-0.04c0-0.464-0.319-0.728-0.768-0.728h-0.023v1.495H17.905z M20.058,179.416h2.143v0.927h-1.167
		v1.391h1.031v0.928h-1.031v1.423h1.191v0.928h-2.167V179.416z M23.481,179.4h1.039l1.063,5.613h-0.975l-0.185-1.111h-0.888
		l-0.176,1.111h-0.943L23.481,179.4z M24.281,183.022l-0.296-1.847l-0.304,1.847H24.281z M25.706,182.31v-0.192
		c0-1.967,0.728-2.742,1.639-2.742c0.271,0,0.432,0.032,0.64,0.128v1.007c-0.2-0.12-0.36-0.184-0.544-0.184
		c-0.432,0-0.743,0.384-0.743,1.783v0.208c0,1.479,0.312,1.783,0.76,1.783c0.151,0,0.344-0.056,0.543-0.176v0.959
		c-0.224,0.128-0.439,0.168-0.72,0.168C26.384,185.053,25.706,184.262,25.706,182.31z M28.49,179.416h0.976v2.318h0.848v-2.318
		h0.975v5.597h-0.975v-2.351h-0.848v2.351H28.49V179.416z M18.545,190.31v-0.192c0-1.967,0.728-2.742,1.639-2.742
		c0.271,0,0.432,0.032,0.64,0.128v1.007c-0.2-0.12-0.36-0.184-0.544-0.184c-0.432,0-0.743,0.384-0.743,1.783v0.208
		c0,1.479,0.312,1.783,0.76,1.783c0.151,0,0.344-0.056,0.543-0.176v0.959c-0.224,0.128-0.439,0.168-0.72,0.168
		C19.224,193.053,18.545,192.262,18.545,190.31z M21.33,187.416h0.976v4.669h1.031v0.928H21.33V187.416z M23.632,191.382v-3.966
		H24.6v4.062c0,0.504,0.176,0.704,0.424,0.704s0.424-0.2,0.424-0.704v-4.062h0.968v3.966c0,1.175-0.592,1.703-1.392,1.703
		S23.632,192.557,23.632,191.382z M26.977,187.416h0.848c0.943,0,1.822,0.384,1.822,1.423v0.04c0,0.72-0.407,1.071-0.808,1.263
		c0.472,0.208,0.88,0.536,0.88,1.248v0.072c0,0.992-0.768,1.551-1.854,1.551h-0.888V187.416z M27.968,189.767
		c0.432,0,0.72-0.248,0.72-0.736v-0.016c0-0.487-0.288-0.695-0.72-0.695h-0.016v1.447H27.968z M27.976,192.11
		c0.448,0,0.768-0.264,0.768-0.728v-0.04c0-0.464-0.319-0.728-0.768-0.728h-0.023v1.495H27.976z"/>
	<path class="st14" d="M111.255,62.784h-0.688v-0.927h2.351v0.927h-0.688v4.669h-0.976V62.784z M113.327,61.857h0.976v2.318h0.848
		v-2.318h0.975v5.597h-0.975v-2.351h-0.848v2.351h-0.976V61.857z M116.703,61.857h2.143v0.927h-1.167v1.391h1.031v0.928h-1.031
		v1.423h1.191v0.928h-2.167V61.857z M120.615,61.857h0.976v2.318h0.847v-2.318h0.976v5.597h-0.976v-2.351h-0.847v2.351h-0.976
		V61.857z M124.774,61.841h1.04l1.062,5.613h-0.975l-0.185-1.111h-0.888l-0.176,1.111h-0.943L124.774,61.841z M125.574,65.463
		l-0.296-1.847l-0.304,1.847H125.574z M126.814,61.857h0.991l0.528,3.646l0.527-3.646h0.96l-1,5.613h-1.007L126.814,61.857z
		 M130.119,61.857h2.143v0.927h-1.167v1.391h1.031v0.928h-1.031v1.423h1.191v0.928h-2.167V61.857z M132.759,61.857h0.911l0.983,2.83
		v-2.83h0.952v5.597h-0.864l-1.031-2.966v2.966h-0.951V61.857z M114.015,69.857h0.871c1.063,0,1.808,0.575,1.808,1.887v0.016
		c0,1.263-0.704,1.863-1.695,1.935h-0.008v1.759h-0.976V69.857z M114.998,72.791c0.407-0.024,0.72-0.32,0.72-1v-0.016
		c0-0.712-0.272-1.016-0.696-1.016h-0.031v2.031H114.998z M117.095,69.857h1.007c1,0,1.728,0.527,1.728,1.783v0.072
		c0,0.728-0.288,1.191-0.655,1.472l0.751,2.271h-1.039l-0.632-1.951h-0.184v1.951h-0.976V69.857z M118.118,72.623
		c0.424,0,0.735-0.248,0.735-0.903v-0.064c0-0.704-0.336-0.888-0.76-0.888h-0.023v1.855H118.118z M120.294,69.857h0.976v5.597
		h-0.976V69.857z M121.582,69.857h0.991l0.528,3.646l0.527-3.646h0.96l-1,5.613h-1.007L121.582,69.857z M125.51,69.841h1.039
		l1.063,5.613h-0.975l-0.185-1.111h-0.888l-0.176,1.111h-0.943L125.51,69.841z M126.31,73.463l-0.296-1.847l-0.304,1.847H126.31z
		 M128.19,70.784h-0.687v-0.927h2.351v0.927h-0.688v4.669h-0.976V70.784z M130.263,69.857h2.143v0.927h-1.167v1.391h1.031v0.928
		h-1.031v1.423h1.191v0.928h-2.167V69.857z M112.115,83.262v-1.016c0.344,0.2,0.615,0.312,0.88,0.312c0.279,0,0.52-0.136,0.52-0.479
		v-0.016c0-0.256-0.08-0.448-0.544-0.976c-0.664-0.751-0.936-1.111-0.936-1.791V79.28c0-0.896,0.584-1.463,1.359-1.463
		c0.392,0,0.624,0.056,0.863,0.176v1.016c-0.304-0.176-0.487-0.256-0.743-0.256c-0.272,0-0.504,0.176-0.504,0.479v0.016
		c0,0.264,0.08,0.36,0.544,0.896c0.768,0.887,0.936,1.231,0.936,1.871v0.016c0,0.879-0.616,1.463-1.384,1.463
		C112.723,83.493,112.395,83.397,112.115,83.262z M114.818,81.823v-3.966h0.968v4.062c0,0.504,0.176,0.704,0.424,0.704
		s0.424-0.2,0.424-0.704v-4.062h0.968v3.966c0,1.175-0.592,1.703-1.392,1.703S114.818,82.998,114.818,81.823z M118.163,77.857h0.911
		l0.983,2.83v-2.83h0.952v5.597h-0.864l-1.031-2.966v2.966h-0.951V77.857z M122.859,77.857h0.911c1.247,0,1.959,0.903,1.959,2.702
		v0.192c0,1.799-0.712,2.703-1.959,2.703h-0.911V77.857z M123.875,82.558c0.463,0,0.863-0.408,0.863-1.807v-0.192
		c0-1.399-0.4-1.807-0.863-1.807h-0.04v3.806H123.875z M126.211,77.857h2.143v0.927h-1.167v1.391h1.031v0.928h-1.031v1.423h1.191
		v0.928h-2.167V77.857z M128.674,80.751v-0.192c0-1.967,0.729-2.742,1.64-2.742c0.271,0,0.432,0.032,0.64,0.128v1.007
		c-0.2-0.12-0.359-0.184-0.544-0.184c-0.432,0-0.743,0.384-0.743,1.783v0.208c0,1.479,0.312,1.783,0.76,1.783
		c0.151,0,0.344-0.056,0.543-0.176v0.959c-0.224,0.128-0.439,0.168-0.72,0.168C129.354,83.493,128.674,82.702,128.674,80.751z
		 M131.459,77.857h0.976v2.342l0.791-2.342h1.104l-0.943,2.366l0.959,3.23h-1.087l-0.607-2.119l-0.216,0.616v1.503h-0.976V77.857z"
		/>
	<path class="st14" d="M58.867,762.33v-0.192c0-1.967,0.728-2.742,1.639-2.742c0.271,0,0.432,0.032,0.64,0.128v1.008
		c-0.2-0.121-0.36-0.185-0.544-0.185c-0.432,0-0.743,0.384-0.743,1.783v0.208c0,1.479,0.312,1.783,0.76,1.783
		c0.151,0,0.344-0.057,0.543-0.176v0.959c-0.224,0.128-0.439,0.168-0.72,0.168C59.546,765.073,58.867,764.282,58.867,762.33z
		 M61.651,759.436h0.976v4.669h1.031v0.928h-2.007V759.436z M64.066,759.436h0.976v5.597h-0.976V759.436z M65.635,759.436h0.967
		l0.688,2.047l0.688-2.047h0.967v5.597h-0.936v-3.382l-0.711,2.119h-0.017l-0.711-2.119v3.382h-0.936V759.436z M69.522,759.436
		h0.848c0.943,0,1.822,0.384,1.822,1.423v0.04c0,0.72-0.407,1.071-0.808,1.264c0.473,0.207,0.88,0.535,0.88,1.247v0.071
		c0,0.992-0.768,1.552-1.854,1.552h-0.888V759.436z M70.514,761.786c0.432,0,0.72-0.248,0.72-0.735v-0.017
		c0-0.487-0.288-0.695-0.72-0.695h-0.016v1.447H70.514z M70.522,764.129c0.448,0,0.768-0.264,0.768-0.728v-0.04
		c0-0.464-0.319-0.728-0.768-0.728h-0.023v1.495H70.522z M72.69,759.436h0.976v5.597H72.69V759.436z M74.259,759.436h0.911
		l0.983,2.83v-2.83h0.952v5.597h-0.864l-1.031-2.966v2.966h-0.951V759.436z M77.586,762.33v-0.192c0-1.807,0.768-2.742,1.871-2.742
		c0.296,0,0.544,0.063,0.744,0.159v1.016c-0.24-0.144-0.456-0.239-0.712-0.239c-0.56,0-0.911,0.56-0.911,1.767v0.271
		c0,1.464,0.432,1.8,0.831,1.8c0.032,0,0.04,0,0.088-0.009v-1.431h-0.479v-0.872h1.367v2.975c-0.352,0.152-0.64,0.24-1.016,0.24
		C78.394,765.073,77.586,764.282,77.586,762.33z M81.931,759.436h0.999l0.408,3.43l0.487-3.43h0.903l0.479,3.43l0.416-3.43H86.6
		l-0.848,5.613h-1.023l-0.464-3.318l-0.464,3.318h-1.023L81.931,759.436z M87.634,759.42h1.04l1.062,5.612h-0.975l-0.185-1.111
		h-0.888l-0.176,1.111H86.57L87.634,759.42z M88.434,763.041l-0.296-1.847l-0.304,1.847H88.434z M90.034,759.436h0.976v4.669h1.031
		v0.928h-2.007V759.436z M92.435,759.436h0.976v4.669h1.031v0.928h-2.007V759.436z"/>
	<path class="st14" d="M123.214,795.643h1.007c1,0,1.728,0.527,1.728,1.783v0.071c0,0.728-0.288,1.191-0.656,1.472l0.752,2.271
		h-1.039l-0.632-1.951h-0.184v1.951h-0.976V795.643z M124.237,798.409c0.424,0,0.735-0.247,0.735-0.902v-0.064
		c0-0.703-0.336-0.888-0.76-0.888h-0.023v1.854H124.237z M126.302,798.585v-0.288c0-1.848,0.6-2.734,1.486-2.734
		c0.888,0,1.487,0.887,1.487,2.734v0.288c0,1.847-0.6,2.734-1.487,2.734C126.901,801.32,126.302,800.432,126.302,798.585z
		 M128.284,798.585v-0.288c0-1.439-0.2-1.839-0.496-1.839c-0.296,0-0.495,0.399-0.495,1.839v0.288c0,1.438,0.199,1.839,0.495,1.839
		C128.084,800.424,128.284,800.024,128.284,798.585z M129.758,795.643h0.871c1.063,0,1.808,0.575,1.808,1.887v0.016
		c0,1.264-0.704,1.863-1.695,1.936h-0.008v1.759h-0.976V795.643z M130.741,798.576c0.407-0.023,0.72-0.319,0.72-0.999v-0.016
		c0-0.712-0.272-1.016-0.696-1.016h-0.031v2.03H130.741z M132.838,795.643h2.143v0.928h-1.167v1.391h1.031v0.928h-1.031v1.423h1.191
		v0.928h-2.167V795.643z M135.357,801.047v-1.016c0.344,0.201,0.615,0.312,0.88,0.312c0.279,0,0.52-0.136,0.52-0.479v-0.017
		c0-0.256-0.08-0.447-0.544-0.975c-0.664-0.752-0.936-1.111-0.936-1.791v-0.017c0-0.896,0.584-1.463,1.359-1.463
		c0.392,0,0.624,0.056,0.863,0.176v1.016c-0.304-0.177-0.487-0.256-0.743-0.256c-0.272,0-0.504,0.176-0.504,0.479v0.016
		c0,0.264,0.08,0.36,0.544,0.896c0.768,0.887,0.936,1.23,0.936,1.87v0.017c0,0.879-0.616,1.463-1.384,1.463
		C135.965,801.28,135.638,801.184,135.357,801.047z M121.749,806.537v-0.192c0-1.967,0.729-2.742,1.64-2.742
		c0.271,0,0.432,0.032,0.64,0.128v1.008c-0.2-0.121-0.359-0.185-0.544-0.185c-0.432,0-0.743,0.384-0.743,1.783v0.208
		c0,1.479,0.312,1.783,0.76,1.783c0.151,0,0.344-0.057,0.543-0.176v0.959c-0.224,0.128-0.439,0.168-0.72,0.168
		C122.429,809.28,121.749,808.489,121.749,806.537z M124.237,806.585v-0.288c0-1.848,0.601-2.734,1.487-2.734
		c0.888,0,1.487,0.887,1.487,2.734v0.288c0,1.847-0.6,2.734-1.487,2.734C124.838,809.32,124.237,808.432,124.237,806.585z
		 M126.221,806.585v-0.288c0-1.439-0.2-1.839-0.496-1.839s-0.495,0.399-0.495,1.839v0.288c0,1.438,0.199,1.839,0.495,1.839
		S126.221,808.024,126.221,806.585z M127.677,807.609v-3.966h0.968v4.062c0,0.504,0.176,0.704,0.424,0.704s0.424-0.2,0.424-0.704
		v-4.062h0.968v3.966c0,1.175-0.592,1.702-1.392,1.702S127.677,808.784,127.677,807.609z M131.022,803.643h1.007
		c1,0,1.728,0.527,1.728,1.783v0.071c0,0.728-0.288,1.191-0.655,1.472l0.751,2.271h-1.039l-0.632-1.951h-0.184v1.951h-0.976V803.643
		z M132.045,806.409c0.424,0,0.735-0.247,0.735-0.902v-0.064c0-0.703-0.336-0.888-0.76-0.888h-0.023v1.854H132.045z
		 M134.085,809.047v-1.016c0.344,0.201,0.615,0.312,0.88,0.312c0.279,0,0.52-0.136,0.52-0.479v-0.017
		c0-0.256-0.08-0.447-0.544-0.975c-0.664-0.752-0.936-1.111-0.936-1.791v-0.017c0-0.896,0.584-1.463,1.359-1.463
		c0.392,0,0.624,0.056,0.863,0.176v1.016c-0.304-0.177-0.487-0.256-0.743-0.256c-0.272,0-0.504,0.176-0.504,0.479v0.016
		c0,0.264,0.08,0.36,0.544,0.896c0.768,0.887,0.936,1.23,0.936,1.87v0.017c0,0.879-0.616,1.463-1.384,1.463
		C134.692,809.28,134.364,809.184,134.085,809.047z M136.806,803.643h2.143v0.928h-1.167v1.391h1.031v0.928h-1.031v1.423h1.191
		v0.928h-2.167V803.643z"/>
	<path class="st14" d="M118.321,829.037h0.967l0.688,2.047l0.688-2.047h0.967v5.597h-0.936v-3.382l-0.711,2.119h-0.017l-0.711-2.119
		v3.382h-0.936V829.037z M122.225,829.037h0.976v5.597h-0.976V829.037z M123.793,829.037h0.911l0.983,2.83v-2.83h0.952v5.597h-0.864
		l-1.031-2.966v2.966h-0.951V829.037z M127.232,829.037h0.976v5.597h-0.976V829.037z M128.824,831.676h2.063v0.959h-2.063V831.676z
		 M131.394,831.932v-0.192c0-1.807,0.768-2.742,1.87-2.742c0.296,0,0.544,0.063,0.744,0.159v1.016
		c-0.24-0.144-0.456-0.239-0.712-0.239c-0.56,0-0.911,0.56-0.911,1.767v0.271c0,1.464,0.432,1.8,0.831,1.8
		c0.032,0,0.04,0,0.088-0.009v-1.431h-0.479v-0.872h1.367v2.975c-0.352,0.152-0.64,0.24-1.016,0.24
		C132.2,834.674,131.394,833.883,131.394,831.932z M134.634,831.98v-0.288c0-1.848,0.6-2.734,1.486-2.734
		c0.888,0,1.487,0.887,1.487,2.734v0.288c0,1.847-0.6,2.734-1.487,2.734C135.233,834.714,134.634,833.826,134.634,831.98z
		 M136.616,831.98v-0.288c0-1.439-0.2-1.839-0.496-1.839s-0.495,0.399-0.495,1.839v0.288c0,1.438,0.199,1.839,0.495,1.839
		S136.616,833.418,136.616,831.98z M138.089,829.037h0.976v4.669h1.031v0.928h-2.007V829.037z M140.489,829.037h2.039v0.928h-1.063
		v1.406h0.927v0.928h-0.927v2.335h-0.976V829.037z"/>
	<path class="st14" d="M116.405,854.948v-1.016c0.344,0.201,0.615,0.312,0.88,0.312c0.279,0,0.52-0.136,0.52-0.479v-0.017
		c0-0.256-0.08-0.447-0.544-0.975c-0.664-0.752-0.936-1.111-0.936-1.791v-0.017c0-0.896,0.584-1.463,1.359-1.463
		c0.392,0,0.624,0.056,0.863,0.176v1.016c-0.304-0.177-0.487-0.256-0.743-0.256c-0.272,0-0.504,0.176-0.504,0.479v0.016
		c0,0.264,0.08,0.36,0.544,0.896c0.768,0.887,0.936,1.23,0.936,1.87v0.017c0,0.879-0.616,1.463-1.384,1.463
		C117.013,855.18,116.685,855.084,116.405,854.948z M119.125,849.543h0.871c1.063,0,1.808,0.575,1.808,1.887v0.016
		c0,1.264-0.704,1.863-1.695,1.936h-0.008v1.759h-0.976V849.543z M120.108,852.477c0.407-0.023,0.72-0.319,0.72-0.999v-0.016
		c0-0.712-0.272-1.016-0.696-1.016h-0.031v2.03H120.108z M122.221,849.543h0.976v5.597h-0.976V849.543z M123.789,849.543h0.911
		c1.247,0,1.959,0.903,1.959,2.702v0.192c0,1.799-0.712,2.702-1.959,2.702h-0.911V849.543z M124.805,854.244
		c0.463,0,0.863-0.408,0.863-1.807v-0.192c0-1.399-0.4-1.807-0.863-1.807h-0.04v3.806H124.805z M127.142,849.543h2.143v0.928h-1.167
		v1.391h1.031v0.928h-1.031v1.423h1.191v0.928h-2.167V849.543z M129.781,849.543h1.007c1,0,1.728,0.527,1.728,1.783v0.071
		c0,0.728-0.288,1.191-0.655,1.472l0.751,2.271h-1.039l-0.632-1.951h-0.184v1.951h-0.976V849.543z M130.805,852.309
		c0.424,0,0.735-0.247,0.735-0.902v-0.064c0-0.703-0.336-0.888-0.76-0.888h-0.023v1.854H130.805z M133.974,849.543h0.999l0.408,3.43
		l0.487-3.43h0.903l0.479,3.43l0.416-3.43h0.976l-0.848,5.613h-1.023l-0.464-3.318l-0.464,3.318h-1.023L133.974,849.543z
		 M138.973,849.543h2.143v0.928h-1.167v1.391h1.031v0.928h-1.031v1.423h1.191v0.928h-2.167V849.543z M141.613,849.543h0.848
		c0.943,0,1.822,0.384,1.822,1.423v0.04c0,0.72-0.407,1.071-0.808,1.264c0.473,0.207,0.88,0.535,0.88,1.247v0.071
		c0,0.992-0.768,1.552-1.854,1.552h-0.888V849.543z M142.605,851.894c0.432,0,0.72-0.248,0.72-0.735v-0.017
		c0-0.487-0.288-0.695-0.72-0.695h-0.016v1.447H142.605z M142.612,854.237c0.448,0,0.768-0.264,0.768-0.728v-0.04
		c0-0.464-0.319-0.728-0.768-0.728h-0.023v1.495H142.612z"/>
	<path class="st14" d="M121.434,872.979h0.848c0.943,0,1.822,0.384,1.822,1.423v0.04c0,0.72-0.407,1.071-0.808,1.264
		c0.473,0.207,0.88,0.535,0.88,1.247v0.071c0,0.992-0.768,1.552-1.854,1.552h-0.888V872.979z M122.425,875.329
		c0.432,0,0.72-0.248,0.72-0.735v-0.017c0-0.487-0.288-0.695-0.72-0.695h-0.016v1.447H122.425z M122.433,877.672
		c0.448,0,0.768-0.264,0.768-0.728v-0.04c0-0.464-0.319-0.728-0.768-0.728h-0.023v1.495H122.433z M124.569,876.945v-3.966h0.968
		v4.062c0,0.504,0.176,0.704,0.424,0.704s0.424-0.2,0.424-0.704v-4.062h0.968v3.966c0,1.175-0.592,1.702-1.392,1.702
		S124.569,878.119,124.569,876.945z M127.913,872.979h0.911l0.983,2.83v-2.83h0.951v5.597h-0.863l-1.031-2.966v2.966h-0.951V872.979
		z M131.241,875.873v-0.192c0-1.807,0.768-2.742,1.871-2.742c0.296,0,0.544,0.063,0.744,0.159v1.016
		c-0.24-0.144-0.456-0.239-0.712-0.239c-0.56,0-0.911,0.56-0.911,1.767v0.271c0,1.464,0.432,1.8,0.831,1.8
		c0.032,0,0.04,0,0.088-0.009v-1.431h-0.479v-0.872h1.367v2.975c-0.352,0.152-0.64,0.24-1.016,0.24
		C132.049,878.616,131.241,877.825,131.241,875.873z M134.577,872.979h2.143v0.928h-1.167v1.391h1.031v0.928h-1.031v1.423h1.191
		v0.928h-2.167V872.979z M137.217,872.979h2.143v0.928h-1.167v1.391h1.031v0.928h-1.031v1.423h1.191v0.928h-2.167V872.979z
		 M116.497,881.907h-0.688v-0.928h2.351v0.928h-0.688v4.669h-0.976V881.907z M118.569,880.979h1.007c1,0,1.728,0.527,1.728,1.783
		v0.071c0,0.728-0.288,1.191-0.656,1.472l0.752,2.271h-1.039l-0.632-1.951h-0.184v1.951h-0.976V880.979z M119.593,883.744
		c0.424,0,0.735-0.247,0.735-0.902v-0.064c0-0.703-0.336-0.888-0.76-0.888h-0.023v1.854H119.593z M122.537,880.963h1.04l1.062,5.612
		h-0.975l-0.185-1.111h-0.888l-0.176,1.111h-0.943L122.537,880.963z M123.337,884.584l-0.296-1.847l-0.304,1.847H123.337z
		 M124.938,880.979h0.967l0.688,2.047l0.688-2.047h0.967v5.597h-0.936v-3.382l-0.711,2.119h-0.017l-0.711-2.119v3.382h-0.936
		V880.979z M128.825,880.979h0.871c1.063,0,1.808,0.575,1.808,1.887v0.016c0,1.264-0.704,1.863-1.695,1.936h-0.008v1.759h-0.976
		V880.979z M129.809,883.912c0.407-0.023,0.72-0.319,0.72-0.999v-0.016c0-0.712-0.272-1.016-0.696-1.016h-0.031v2.03H129.809z
		 M131.81,883.921v-0.288c0-1.848,0.6-2.734,1.486-2.734c0.888,0,1.487,0.887,1.487,2.734v0.288c0,1.847-0.6,2.734-1.487,2.734
		C132.409,886.656,131.81,885.768,131.81,883.921z M133.792,883.921v-0.288c0-1.439-0.2-1.839-0.496-1.839s-0.495,0.399-0.495,1.839
		v0.288c0,1.438,0.199,1.839,0.495,1.839S133.792,885.36,133.792,883.921z M135.266,880.979h0.976v4.669h1.031v0.928h-2.007V880.979
		z M137.681,880.979h0.976v5.597h-0.976V880.979z M139.249,880.979h0.911l0.983,2.83v-2.83h0.951v5.597h-0.863l-1.031-2.966v2.966
		h-0.951V880.979z M142.673,880.979h2.143v0.928h-1.167v1.391h1.031v0.928h-1.031v1.423h1.191v0.928h-2.167V880.979z"/>
	<path class="st14" d="M105.132,589.09h2.039v0.928h-1.063v1.406h0.927v0.928h-0.927v2.335h-0.976V589.09z M107.612,589.09h1.007
		c1,0,1.728,0.527,1.728,1.783v0.071c0,0.728-0.288,1.191-0.655,1.472l0.751,2.271h-1.039l-0.632-1.951h-0.184v1.951h-0.976V589.09z
		 M108.636,591.856c0.424,0,0.735-0.247,0.735-0.902v-0.064c0-0.703-0.336-0.888-0.76-0.888h-0.023v1.854H108.636z M110.796,589.09
		h2.143v0.928h-1.167v1.391h1.031v0.928h-1.031v1.423h1.191v0.928h-2.167V589.09z M113.436,589.09h2.143v0.928h-1.167v1.391h1.031
		v0.928h-1.031v1.423h1.191v0.928h-2.167V589.09z M117.348,589.09h2.039v0.928h-1.063v1.406h0.927v0.928h-0.927v2.335h-0.976V589.09
		z M120.411,589.075h1.04l1.062,5.612h-0.975l-0.185-1.111h-0.888l-0.176,1.111h-0.943L120.411,589.075z M121.211,592.696
		l-0.296-1.847l-0.304,1.847H121.211z M122.812,589.09h0.976v4.669h1.031v0.928h-2.007V589.09z M125.212,589.09h0.976v4.669h1.031
		v0.928h-2.007V589.09z"/>
	<path class="st14" d="M42.356,607.16h-0.688v-0.928h2.351v0.928h-0.688v4.669h-0.976V607.16z M44.429,606.233h0.976v2.318h0.847
		v-2.318h0.976v5.597h-0.976v-2.351h-0.847v2.351h-0.976V606.233z M47.805,606.233h2.143v0.928H48.78v1.391h1.031v0.928H48.78v1.423
		h1.191v0.928h-2.167V606.233z M51.453,606.233h0.999l0.408,3.43l0.487-3.43h0.903l0.479,3.43l0.416-3.43h0.976l-0.848,5.613h-1.023
		l-0.464-3.318l-0.464,3.318H52.3L51.453,606.233z M56.453,606.233h0.976v2.318h0.848v-2.318h0.975v5.597h-0.975v-2.351h-0.848
		v2.351h-0.976V606.233z M59.844,606.233h0.976v5.597h-0.976V606.233z M61.412,606.233h0.871c1.063,0,1.808,0.575,1.808,1.887v0.016
		c0,1.264-0.704,1.863-1.695,1.936h-0.008v1.759h-0.976V606.233z M62.396,609.166c0.407-0.023,0.72-0.319,0.72-0.999v-0.016
		c0-0.712-0.272-1.016-0.696-1.016h-0.031v2.03H62.396z"/>
</g>
<g id="GETAWAY_DECK_17_TOP">
	<path class="st15" d="M0.5,899.05h7.379v16.541h11.568v10.085h10.085v40.636h93.73v-51.017h28.178V744.448h-37.966h-11.865v22.54
		c0,0-0.296,2.967-2.669,3.56H54.448c0,0-2.966-0.297-2.966-3.263v-22.246H0.5L0.5,899.05z"/>
	<path class="st15" d="M116.414,424.723H98.893h-18.03H46.477h-10v-82.748v82.748v-83.081H10.812v-323c0,0,0.333-5.666,6.666-8
		c0,0,28.02-10.809,58.967-10c28.292-0.696,58.968,10,58.968,10c6.334,2.333,6.666,8,6.666,8v323h-25.665V424.723v-82.748V424.723z"
		/>
	<g id="gDeck17Locations">
		<rect id="_x31_7Aft" y="633.085" class="st16" width="152.176" height="346.536"/>
		<rect id="_x31_7Middle" y="335.646" class="st16" width="152.176" height="297.439"/>
		<rect id="_x31_7Forward" y="3.198" class="st16" width="152.176" height="332.448"/>
	</g>
</g>
</svg>
