<?xml version="1.0" encoding="utf-8"?>
<!-- Generator: Adobe Illustrator 23.0.2, SVG Export Plug-In . SVG Version: 6.00 Build 0)  -->
<svg version="1.1" id="GETAWAY_DECK_18" xmlns="http://www.w3.org/2000/svg" xmlns:xlink="http://www.w3.org/1999/xlink" x="0px"
	 y="0px" width="149.446px" height="1019.066px" viewBox="0 0 149.446 1019.066"
	 style="enable-background:new 0 0 149.446 1019.066;" xml:space="preserve">
<style type="text/css">
	.New_x0020_Cabins_x0020_2019{fill:#EFF2F5;stroke:#FFFFFF;stroke-width:0.5;stroke-miterlimit:10;}
	.New_x0020_Cabins_x0020_2{fill:#EFF2F5;stroke:#FFFFFF;stroke-width:0.5;stroke-miterlimit:10;}
	.st0{fill:#FFFFFF;}
	.st1{fill:none;stroke:#D5DCE0;stroke-width:0.5;}
	.st2{fill:#FFFFFF;stroke:#D5DCE0;stroke-width:0.5;}
	.st3{fill:#6E8496;}
	.st4{fill:none;stroke:#076FA0;stroke-miterlimit:10;}
	.st5{fill:none;}
</style>
<g id="GETAWAY_DECK_18_BOTTOM">
	<path class="st0" d="M38.216,107.334h-21v114.167h115.666v-114.5h-16.5v-28h-4.834V48.5h16.334v-39c0,0-0.334-8-8.334-9H53.883
		c0,0-8.334,1-9.667,8v8h-6v29.667h-10v11.5h10L38.216,107.334z"/>
	<polyline class="st0" points="87.188,1013.023 143.492,1013.023 143.492,920.359 119.027,920.359 119.027,889.616 111.666,867.103 
		112.099,805.833 38.272,805.833 38.272,867.103 31.149,888.753 31.149,920.216 6.663,920.216 6.663,1013.023 62.835,1013.023 	"/>
	<path class="st1" d="M44.297,937.586l10.686-0.012l-0.087-1.747l5.464-5.126l10.349-0.116l-0.093-11.055
		c0,0,0.006-5.895,5.248-5.807s5.766,5.504,5.766,5.504l0.175,11.096h6.115l0.175,7.251h19.656l9.522,58.97l-4.63,0.088l0.087,2.184
		l-2.708,0.786l-1.943-0.793l0.281,1.797l-1.984,0.562l-1.281-1.578l-1.734,1.453l-0.734-2.469l-0.969,0.375l-1.094,1.5
		l-0.234,0.328l0.234,0.297l0.859,0.266l-0.344,2.766l-2.359,1.531l-2.969-1.266l-2.969,1.453l-1.562-1.906l0.312-2.641l0.859-0.609
		l-1,0.562l-0.984-0.906l-1.594,1.188l-2.297-1.984l-3.016,1.922l-2.219-2l-1.578,1.109l-2.865-1.724l-2.666,2.292l-3-0.125
		l-2.042-1.5l-1.583,1.417l-2.458-1.417l-1.209,0.792l-1.875-0.667l-1.25,0.792l-1.125-0.959l-0.625,1.292h-2l-1.541-1.042
		l-0.959-0.083l-1,0.75l-1.083-0.458l-1.208,1.583l-2.084-2l-0.833-0.083l-0.667,0.5l-2.083,0.166l-1.458-0.958l-1.792,0.625
		l-3.292-0.667l0.25-2.416l-5.291,0.166L44.297,937.586z"/>
	<path class="st1" d="M62.736,1012.81v3.029c0,0,0.433,2.815,3.247,2.815h17.537c0,0,3.896,0.217,3.896-2.382v-3.302"/>
	<polyline class="st1" points="39.588,805.937 39.588,791.608 75.49,791.608 	"/>
	<polyline class="st1" points="48.267,805.832 48.267,798.6 75.269,798.6 	"/>
	<line class="st1" x1="48.8" y1="791.666" x2="48.8" y2="798.531"/>
	<line class="st1" x1="50.651" y1="791.512" x2="50.651" y2="798.608"/>
	<line class="st1" x1="52.348" y1="791.589" x2="52.348" y2="798.686"/>
	<line class="st1" x1="54.122" y1="791.666" x2="54.122" y2="798.377"/>
	<line class="st1" x1="55.665" y1="791.666" x2="55.665" y2="798.608"/>
	<line class="st1" x1="57.285" y1="791.666" x2="57.285" y2="798.608"/>
	<line class="st1" x1="37.159" y1="31.704" x2="30.596" y2="31.704"/>
	<line class="st1" x1="37.159" y1="30.205" x2="30.596" y2="30.205"/>
	<line class="st1" x1="37.1" y1="28.749" x2="30.594" y2="28.749"/>
	<line class="st1" x1="37.1" y1="27.226" x2="30.594" y2="27.226"/>
	<line class="st1" x1="37.1" y1="25.812" x2="30.594" y2="25.812"/>
	<line class="st1" x1="37.086" y1="24.349" x2="30.582" y2="24.349"/>
	<line class="st1" x1="36.983" y1="45.914" x2="36.983" y2="22.993"/>
	<line class="st1" x1="36.983" y1="45.914" x2="36.983" y2="22.993"/>
	<line class="st1" x1="30.594" y1="33.111" x2="37.1" y2="33.111"/>
	<line class="st1" x1="30.594" y1="34.55" x2="37.1" y2="34.55"/>
	<line class="st1" x1="30.622" y1="35.914" x2="37.125" y2="35.914"/>
	<polyline class="st1" points="37.137,23.152 30.7,23.152 30.7,45.744 37.112,45.744 	"/>
	<line class="st1" x1="37.159" y1="44.722" x2="30.596" y2="44.722"/>
	<line class="st1" x1="37.159" y1="43.224" x2="30.596" y2="43.224"/>
	<line class="st1" x1="37.1" y1="41.767" x2="30.594" y2="41.767"/>
	<line class="st1" x1="37.1" y1="40.244" x2="30.594" y2="40.244"/>
	<line class="st1" x1="37.1" y1="38.83" x2="30.594" y2="38.83"/>
	<line class="st1" x1="37.086" y1="37.366" x2="30.582" y2="37.366"/>
	<line class="st1" x1="126.309" y1="114.71" x2="126.309" y2="108.147"/>
	<line class="st1" x1="127.873" y1="114.71" x2="127.873" y2="108.147"/>
	<line class="st1" x1="129.393" y1="114.651" x2="129.393" y2="108.145"/>
	<line class="st1" x1="130.983" y1="114.651" x2="130.983" y2="108.145"/>
	<line class="st1" x1="132.457" y1="114.651" x2="132.457" y2="108.145"/>
	<line class="st1" x1="133.984" y1="114.637" x2="133.984" y2="108.133"/>
	<line class="st1" x1="111.479" y1="114.534" x2="135.399" y2="114.534"/>
	<line class="st1" x1="111.479" y1="114.534" x2="135.399" y2="114.534"/>
	<line class="st1" x1="124.84" y1="108.145" x2="124.84" y2="114.651"/>
	<line class="st1" x1="123.338" y1="108.145" x2="123.338" y2="114.651"/>
	<line class="st1" x1="121.916" y1="108.172" x2="121.916" y2="114.676"/>
	<polyline class="st1" points="135.232,114.688 135.232,108.251 111.655,108.251 111.655,114.663 	"/>
	<line class="st1" x1="112.724" y1="114.71" x2="112.724" y2="108.147"/>
	<line class="st1" x1="114.286" y1="114.71" x2="114.286" y2="108.147"/>
	<line class="st1" x1="115.808" y1="114.651" x2="115.808" y2="108.145"/>
	<line class="st1" x1="117.396" y1="114.651" x2="117.396" y2="108.145"/>
	<line class="st1" x1="118.873" y1="114.651" x2="118.873" y2="108.145"/>
	<line class="st1" x1="120.399" y1="114.637" x2="120.399" y2="108.133"/>
	<path class="st2" d="M138.8,217.251c0,5.615-4.552,10.167-10.167,10.167c-5.615,0-10.167-4.552-10.167-10.167
		c0-5.615,4.552-10.167,10.167-10.167C134.248,207.084,138.8,211.636,138.8,217.251z"/>
	<path class="st2" d="M31.55,217.251c0,5.615-4.552,10.167-10.167,10.167c-5.615,0-10.167-4.552-10.167-10.167
		c0-5.615,4.552-10.167,10.167-10.167C26.998,207.084,31.55,211.636,31.55,217.251z"/>
	<path class="st2" d="M149.214,1008.668c0,5.615-4.552,10.166-10.167,10.166c-5.615,0-10.167-4.551-10.167-10.166
		c0-5.615,4.552-10.167,10.167-10.167C144.662,998.501,149.214,1003.053,149.214,1008.668z"/>
	<path class="st2" d="M20.566,1008.668c0,5.615-4.552,10.166-10.167,10.166c-5.615,0-10.167-4.551-10.167-10.166
		c0-5.615,4.552-10.167,10.167-10.167C16.014,998.501,20.566,1003.053,20.566,1008.668z"/>
	<rect x="75.216" y="89.666" class="st1" width="28.333" height="17.333"/>
	<rect x="87.217" y="807.501" class="st1" width="17.667" height="15"/>
	<polyline class="st1" points="111.811,867.178 113.511,867.178 113.511,843.943 	"/>
	<polyline class="st1" points="119.857,844.057 119.857,876.132 115.098,877.832 	"/>
	<line class="st1" x1="113.567" y1="866.725" x2="119.744" y2="866.725"/>
	<line class="st1" x1="113.567" y1="865.024" x2="119.744" y2="865.024"/>
	<line class="st1" x1="113.567" y1="863.664" x2="119.744" y2="863.664"/>
	<line class="st1" x1="113.567" y1="862.304" x2="119.744" y2="862.304"/>
	<line class="st1" x1="113.567" y1="860.831" x2="119.744" y2="860.831"/>
	<polyline class="st1" points="31.17,920.391 30.901,937.542 118.621,937.542 118.89,920.712 	"/>
	<polyline class="st1" points="38.292,107.455 38.292,136.587 111.931,136.587 111.931,115.224 	"/>
	<path class="st3" d="M60.698,863.092h0.848c0.943,0,1.822,0.384,1.822,1.423v0.04c0,0.72-0.407,1.071-0.808,1.264
		c0.472,0.207,0.88,0.535,0.88,1.247v0.071c0,0.992-0.768,1.552-1.854,1.552h-0.888V863.092z M61.689,865.442
		c0.432,0,0.72-0.248,0.72-0.735v-0.017c0-0.487-0.288-0.695-0.72-0.695h-0.016v1.447H61.689z M61.697,867.785
		c0.448,0,0.768-0.264,0.768-0.728v-0.04c0-0.464-0.319-0.728-0.768-0.728h-0.023v1.495H61.697z M64.593,863.076h1.04l1.062,5.612
		h-0.975l-0.185-1.111h-0.888l-0.176,1.111H63.53L64.593,863.076z M65.393,866.697l-0.296-1.847l-0.304,1.847H65.393z
		 M66.874,868.496v-1.016c0.344,0.201,0.615,0.312,0.88,0.312c0.279,0,0.52-0.136,0.52-0.479v-0.017c0-0.256-0.08-0.447-0.544-0.975
		c-0.664-0.752-0.936-1.111-0.936-1.791v-0.017c0-0.896,0.584-1.463,1.359-1.463c0.392,0,0.624,0.056,0.863,0.176v1.016
		c-0.304-0.177-0.487-0.256-0.743-0.256c-0.272,0-0.504,0.176-0.504,0.479v0.016c0,0.264,0.08,0.36,0.544,0.896
		c0.768,0.887,0.936,1.23,0.936,1.87v0.017c0,0.879-0.616,1.463-1.384,1.463C67.481,868.729,67.153,868.633,66.874,868.496z
		 M69.593,863.092h0.976v2.342l0.791-2.342h1.104l-0.943,2.366l0.959,3.23h-1.087l-0.607-2.118l-0.216,0.615v1.503h-0.976V863.092z
		 M72.818,863.092h2.143v0.928h-1.167v1.391h1.031v0.928h-1.031v1.423h1.191v0.928h-2.167V863.092z M75.977,864.02H75.29v-0.928
		h2.351v0.928h-0.688v4.669h-0.976V864.02z M78.049,863.092h0.847c0.943,0,1.822,0.384,1.822,1.423v0.04
		c0,0.72-0.406,1.071-0.807,1.264c0.471,0.207,0.879,0.535,0.879,1.247v0.071c0,0.992-0.768,1.552-1.854,1.552h-0.888V863.092z
		 M79.041,865.442c0.432,0,0.719-0.248,0.719-0.735v-0.017c0-0.487-0.287-0.695-0.719-0.695h-0.016v1.447H79.041z M79.049,867.785
		c0.447,0,0.768-0.264,0.768-0.728v-0.04c0-0.464-0.32-0.728-0.768-0.728h-0.023v1.495H79.049z M81.945,863.076h1.039l1.062,5.612
		h-0.975l-0.184-1.111H82l-0.176,1.111h-0.943L81.945,863.076z M82.744,866.697l-0.295-1.847l-0.305,1.847H82.744z M84.346,863.092
		h0.975v4.669h1.031v0.928h-2.006V863.092z M86.746,863.092h0.975v4.669h1.031v0.928h-2.006V863.092z M68.026,873.986v-0.192
		c0-1.967,0.728-2.742,1.639-2.742c0.271,0,0.432,0.032,0.64,0.128v1.008c-0.2-0.121-0.36-0.185-0.544-0.185
		c-0.432,0-0.743,0.384-0.743,1.783v0.208c0,1.479,0.312,1.783,0.76,1.783c0.151,0,0.344-0.057,0.543-0.176v0.959
		c-0.224,0.128-0.439,0.168-0.72,0.168C68.705,876.729,68.026,875.938,68.026,873.986z M70.514,874.034v-0.288
		c0-1.848,0.6-2.734,1.486-2.734c0.888,0,1.487,0.887,1.487,2.734v0.288c0,1.847-0.6,2.734-1.487,2.734
		C71.114,876.769,70.514,875.881,70.514,874.034z M72.497,874.034v-0.288c0-1.439-0.2-1.839-0.496-1.839s-0.495,0.399-0.495,1.839
		v0.288c0,1.438,0.199,1.839,0.495,1.839S72.497,875.473,72.497,874.034z M73.953,875.058v-3.966h0.968v4.062
		c0,0.504,0.176,0.704,0.424,0.704s0.424-0.2,0.424-0.704v-4.062h0.968v3.966c0,1.175-0.592,1.702-1.392,1.702
		S73.953,876.232,73.953,875.058z M77.297,871.092h1.007c1,0,1.727,0.527,1.727,1.783v0.071c0,0.728-0.287,1.191-0.656,1.472
		l0.752,2.271h-1.039l-0.631-1.951h-0.184v1.951h-0.976V871.092z M78.321,873.857c0.423,0,0.736-0.247,0.736-0.902v-0.064
		c0-0.703-0.336-0.888-0.76-0.888h-0.023v1.854H78.321z M80.922,872.02h-0.688v-0.928h2.35v0.928h-0.688v4.669h-0.975V872.02z"/>
	<path class="st3" d="M64.189,174.68v-1.016c0.344,0.2,0.615,0.312,0.88,0.312c0.279,0,0.52-0.136,0.52-0.479v-0.016
		c0-0.256-0.08-0.448-0.544-0.976c-0.664-0.751-0.936-1.111-0.936-1.791v-0.016c0-0.896,0.584-1.463,1.359-1.463
		c0.392,0,0.624,0.056,0.863,0.176v1.016c-0.304-0.176-0.487-0.256-0.743-0.256c-0.272,0-0.504,0.176-0.504,0.479v0.016
		c0,0.264,0.08,0.36,0.544,0.896c0.768,0.887,0.936,1.231,0.936,1.871v0.016c0,0.879-0.616,1.463-1.384,1.463
		C64.796,174.912,64.468,174.816,64.189,174.68z M66.892,173.241v-3.966h0.968v4.062c0,0.504,0.176,0.704,0.424,0.704
		s0.424-0.2,0.424-0.704v-4.062h0.968v3.966c0,1.175-0.592,1.703-1.392,1.703S66.892,174.417,66.892,173.241z M70.236,169.275h0.911
		l0.983,2.83v-2.83h0.952v5.597h-0.864l-1.031-2.966v2.966h-0.951V169.275z M74.933,169.275h0.911c1.247,0,1.959,0.903,1.959,2.702
		v0.192c0,1.799-0.712,2.703-1.959,2.703h-0.911V169.275z M75.948,173.977c0.463,0,0.863-0.408,0.863-1.807v-0.192
		c0-1.399-0.4-1.807-0.863-1.807h-0.04v3.806H75.948z M78.284,169.275h2.143v0.927H79.26v1.391h1.031v0.928H79.26v1.423h1.191v0.928
		h-2.167V169.275z M80.747,172.169v-0.192c0-1.967,0.729-2.742,1.64-2.742c0.271,0,0.432,0.032,0.64,0.128v1.007
		c-0.2-0.12-0.359-0.184-0.544-0.184c-0.432,0-0.743,0.384-0.743,1.783v0.208c0,1.479,0.312,1.783,0.76,1.783
		c0.151,0,0.344-0.056,0.543-0.176v0.959c-0.224,0.128-0.439,0.168-0.72,0.168C81.427,174.912,80.747,174.121,80.747,172.169z
		 M83.532,169.275h0.976v2.342l0.791-2.342h1.104l-0.943,2.366l0.959,3.23h-1.087l-0.607-2.119l-0.216,0.616v1.503h-0.976V169.275z"
		/>
</g>
<g id="GETAWAY_DECK_18_TOP">
	<path class="st4" d="M38.216,107.334h-21v114.167h115.666v-114.5h-16.5v-28h-4.834V48.5h16.334v-39c0,0-0.334-8-8.334-9H53.883
		c0,0-8.334,1-9.667,8v8h-6v29.667h-10v11.5h10L38.216,107.334z"/>
	<polyline class="st4" points="87.188,1013.023 143.492,1013.023 143.492,920.359 119.027,920.359 119.027,889.616 111.666,867.103 
		112.099,805.833 38.272,805.833 38.272,867.103 31.149,888.753 31.149,920.216 6.663,920.216 6.663,1013.023 62.835,1013.023 	"/>
	<g id="gDeck18Locations">
		<rect id="_x31_8Aft" x="0" y="652.669" class="st5" width="149.446" height="366.398"/>
		<rect id="_x31_8Middle" x="0" y="353.719" class="st5" width="149.446" height="298.95"/>
		<rect id="_x31_8Forward" x="0" class="st5" width="149.446" height="353.719"/>
	</g>
</g>
</svg>
