<?xml version="1.0" encoding="utf-8"?>
<!-- Generator: Adobe Illustrator 23.0.2, SVG Export Plug-In . SVG Version: 6.00 Build 0)  -->
<svg version="1.1" id="EPIC_DECK_18" xmlns="http://www.w3.org/2000/svg" xmlns:xlink="http://www.w3.org/1999/xlink" x="0px"
	 y="0px" width="151.315px" height="747.634px" viewBox="0 0 151.315 747.634" style="enable-background:new 0 0 151.315 747.634;"
	 xml:space="preserve">
<style type="text/css">
	.st0{fill:#FFFFFF;}
	.st1{fill:#DFEDF1;stroke:#CEDFE5;stroke-width:0.5;}
	.st2{fill:none;stroke:#CEDFE5;stroke-width:0.5;}
	.st3{fill:#FFFFFF;stroke:#CEDFE5;stroke-width:0.5;}
	.st4{fill:none;stroke:#D5DCE0;stroke-width:0.5;}
	.st5{fill:#6E8496;}
	.st6{fill:none;stroke:#076FA0;stroke-miterlimit:10;}
	.st7{fill:none;}
</style>
<g id="EPIC_DECK_18_BOTTOM">
	<path class="st0" d="M107.44,661.259l-33.752-0.134l-0.003-0.127l14.206,0.018l0.042-6.01l-0.084-0.877l-6.177,0.042l-0.292-0.292
		l0.042-4.007l0.042-7.262c0,0-0.126-0.584-0.418-1.502c-0.292-0.918-0.626-1.503-1.794-2.505c-1.168-1.002-1.461-0.918-2.963-1.21
		c-1.502-0.292-2.003,0.292-3.464,1.085c-1.461,0.793-2.462,3.84-2.545,4.09s0.042,5.176,0.042,5.176l0.083,3.964l-4.006,2.588
		l-6.26-0.083l-5.133,5.008l0.167,1.753l11.025,0.014l-0.002,0.106l-21.63-0.086l-10,58.625l82.375-0.375L107.44,661.259z"/>
	<path class="st0" d="M-0.015,296.349l0.2,1.83c0,0,11.463,14.705,26.047,22.955s26.334,11.417,26.334,11.417l-0.917,4.833
		l-1.75,0.417l-2.044,2.198l-1.456,1.802l-0.833,2.667l1.833,0.583l0.417,2.667l1.666,2.333l3,1.417h3.25l2.5-1.417l1.667-2.417
		l1.667,0.167l0.833-2.833l-0.833-3l-1.167-2.167l-1.667-1.5l0.917-3.75c0,0,11.666,1.25,16.666,1.333s16.182-1.487,16.182-1.487
		l0.568,3.904l-1.917,1.5l-1,2.583l-0.416,2.583l0.333,3.167l1.917-0.667l1.416,2.167l2.417,1.583l3.333,0.667l2.917-1.667
		l2.25-2.083l0.25-2.917l1.75-0.333l-0.417-2.833l-1.75-2.833l-2-1.583l-1.916-0.75l-0.667-3.583c0,0,20.333-6.499,33.083-15.583
		c12.75-9.083,18.335-17.916,18.335-17.916l-0.001-5.25L150.564,7.8c0,0-0.333-1.584-2.5-2.667s-5.749-2.083-10.333-2.5
		S84.897,0.55,84.897,0.55L75.44,0.551L60.064,0.716L13.397,2.633c0,0-7.166,0.917-9.666,2.084S0.397,6.633,0.064,7.633
		s-0.167,3.583-0.167,3.583L-0.015,296.349z"/>
	<path class="st1" d="M40.054,632.446c-1.938,0.625-4.188,2.438-5.438,4.562s-3.062,6.125-2.937,10s1,15.875,1,15.875
		s0.644,13.826,1.062,20c0.436,6.435,0.147,11.774-0.142,16.32c-0.263,4.14-0.874,7.961-0.858,10.617
		c0.016,2.628,0.063,8.5,3.375,16.188c3.313,7.688,8.5,12.688,11.875,14.5s8.25,4.5,14.625,1.938s10.063-9.812,11.125-19.125
		l2.797-2.536l1.266,1.599c0.125,0.875-0.875,8.875-4.125,14.875s-9.125,10.125-16.25,10.125c-5.5,0-9.344-1.225-15.625-6.25
		c-6.25-5-11.821-18.325-12.625-24.625c-0.75-5.875-0.375-11.25,0-14.625s1.052-9.728,0.625-17.25
		c-0.631-11.113-1.767-33.847-1.892-37.472s0.448-7.044,2.729-11.149c2.138-3.848,3.699-4.968,5.719-6.381L40.054,632.446z"/>
	<path class="st1" d="M54.536,634.984c-1.91-4.542-6.522-7.744-11.91-7.744"/>
	<path class="st1" d="M117.062,638.585c0,0,3.452-2.011,7.114-2.461c3.924-0.628,10.463,1.465,10.463,9.521
		c-0.204,3.956-3.238,8.908-5.918,16.407c2-2.875,5.959-2.917,7.459-2.709s3.5,0.667,5.791,3.417
		c2.115,2.539,2.25,6.917,0.417,9.792c-1.164,1.826-2.875,3.541-5.667,4.083c-2.792,0.542-4.458,0.125-6.583-1.208
		c-2.38-1.493-4.25-4.334-5.083-7c-0.868-2.778-0.583-6.376,0.167-8.501s2.25-5.666,2.25-5.666s2.291-5.375,2.708-6.625
		c0.417-1.25,1.083-3.958-0.917-6s-4.958-1.458-6.5-0.875s-6.006,2.296-6.006,2.296"/>
	<path class="st1" d="M87.894,588.282c0,0-3.178-5.975-8.994-10.465c-5.02-3.874-9.971-6.092-17.414-6.215
		c-9.687-0.16-30.333,7.604-30.333,31.233c0,7.194,2.138,16.84,11.236,24.016c5.917,4.666,12.084,7.975,17.167,10.75
		c3.319,1.812,6.943,4.717,9.88,9.734c2.49,4.255,2.245,12.733,2.245,12.733l-4.719,0.016c0,0,0.331-6.832-1.712-10.167
		c-2.789-4.551-7.777-7.273-7.777-7.273s-2.761-1.56-17.07-10.202c-15.471-9.343-18.863-32.164-10.606-47.372
		c7.676-14.138,20.707-18.889,31.414-18.889s22.121,4.748,29.494,15.455c7.373,10.707,7.879,25.251,7.879,25.251L87.894,588.282z"/>
	<path class="st2" d="M133.346,672.718c-2.212-0.656-3.43-2.885-4.167-4.852c-0.737-1.967-0.999-4.773-0.246-6.637
		c0.936-2.314,2.622-6.064,2.622-6.064s2.131-5.244,2.786-7.62"/>
	<path class="st3" d="M139.749,668.112c0,2.67-2.164,4.834-4.834,4.834c-2.671,0-4.835-2.164-4.835-4.834
		c0-2.671,2.164-4.835,4.835-4.835C137.585,663.278,139.749,665.442,139.749,668.112z"/>
	<path class="st1" d="M49.609,637.996c0.459,1.122,0.51,1.293,0.51,2.313s-0.612,6.071,0.867,9.387
		c1.479,3.315,2.856,5.662,4.387,7.295c1.531,1.633,3.571,4.694,5.408,2.5c1.836-2.194-0.612-3.265-1.836-4.489
		c-1.225-1.225-3.316-3.57-4.132-6.632c-0.816-3.061-0.918-4.489-0.816-5.714c0.102-1.225,0-1.989,0-1.989"/>
	<path class="st1" d="M112.82,640.196c-1.297,0.535-2.265,0.943-2.731,1.123c-1.721,0.663-3.483,0.777-4.819-0.189
		c-1.62-1.173-2.063-2.559-2.063-3.908c0-0.896,0.812-4.179,4.67-4.179c3.732,0,5.413,4.52,4.87,9.082
		c-0.507,4.259-2.739,7.797-6.345,10.092c-3.605,2.295-8.521,3.031-11.062,3.031c-2.54,0-8.784,0.053-8.784,0.053
		s-2.916-0.249-2.916,1.876s2.124,2.208,2.916,2.208s5.084,0,5.084,0s2.041-0.083,4.333-0.083s7.376-0.916,10.792-2.625
		s7.417-5.293,9.125-10.334s1-7.542,0.333-10.375c-0.667-2.834-3.875-6.875-8.75-6.875s-8.292,4.376-8.292,8.417
		s2.292,5.541,3.042,6.333s3.126,2.042,5.542,2.042s4.375-1.167,4.375-1.167"/>
	<path class="st1" d="M98.59,607.343c0,12.413-10.061,22.475-22.474,22.475c-12.412,0-22.474-10.062-22.474-22.475
		c0-12.411,10.062-22.473,22.474-22.473C88.529,584.87,98.59,594.932,98.59,607.343z"/>
	<path class="st0" d="M60.139,654.214l6.26,0.083l4.006-2.588l-0.083-3.964c0,0-0.125-4.926-0.042-5.176
		c0.084-0.25,1.085-3.297,2.545-4.09c1.461-0.793,1.962-1.377,3.464-1.085s1.795,0.208,2.963,1.21s1.502,1.587,1.794,2.505
		s0.418,1.502,0.418,1.502l-0.042,7.262l-0.042,4.007l0.292,0.292l6.177-0.042l0.084,0.877l-0.042,6.01l-32.72-0.042l-0.167-1.753
		L60.139,654.214z"/>
	<path class="st4" d="M0.315,298.301c15.249,21.355,50.247,38.744,76.445,37.257"/>
	<path class="st4" d="M76.76,335.558c26.198,1.487,59.057-14.401,74.305-35.757"/>
	<path class="st4" d="M137.713,47.23l0.001,30.478c0,0,0.115,1.284-0.834,2.21s-2.214,0.773-2.214,0.773l-12.173,0.028h7.027
		l0.018,19.558"/>
	<polyline class="st4" points="48.094,83.694 74.715,83.676 74.715,50.576 74.502,49.341 	"/>
	<line class="st4" x1="105.426" y1="107.77" x2="105.426" y2="83.694"/>
	<line class="st4" x1="128.554" y1="255.801" x2="128.554" y2="194.642"/>
	<line class="st4" x1="129.521" y1="119.797" x2="129.521" y2="80.719"/>
	<line class="st4" x1="48.094" y1="107.626" x2="48.094" y2="83.694"/>
	<line class="st4" x1="109.566" y1="119.797" x2="129.521" y2="119.797"/>
	<line class="st4" x1="24" y1="119.797" x2="24" y2="80.719"/>
	<polyline class="st4" points="122.582,80.715 105.426,80.719 105.426,83.645 	"/>
	<polyline class="st4" points="24,119.797 24,80.173 48.094,80.173 	"/>
	<line class="st4" x1="48.094" y1="80.173" x2="48.094" y2="83.645"/>
	<path class="st4" d="M60.758,100.909c-3.365,0.012-6.131,2.744-6.187,6.107"/>
	<polyline class="st4" points="54.572,107.017 54.572,107.805 45.881,107.805 	"/>
	<path class="st4" d="M45.881,107.805c-1.026,0-1.858,0.833-1.858,1.859l0,0"/>
	<line class="st4" x1="44.023" y1="109.664" x2="44.023" y2="178.896"/>
	<line class="st4" x1="109.498" y1="177.656" x2="109.498" y2="109.664"/>
	<path class="st4" d="M109.498,109.664c0-1.026-0.833-1.859-1.859-1.859l0,0"/>
	<polyline class="st4" points="107.639,107.805 98.947,107.805 98.947,107.017 	"/>
	<path class="st4" d="M98.947,107.017c-0.053-3.363-2.818-6.095-6.186-6.107"/>
	<polyline class="st4" points="92.761,100.909 60.845,100.909 60.758,100.909 	"/>
	<line class="st4" x1="52.22" y1="187.094" x2="100.061" y2="187.094"/>
	<line class="st4" x1="51.827" y1="186.931" x2="44.186" y2="179.29"/>
	<line class="st4" x1="100.455" y1="186.931" x2="109.334" y2="178.05"/>
	<path class="st4" d="M100.061,187.094c0.129,0.007,0.308-0.066,0.395-0.163"/>
	<path class="st4" d="M109.334,178.05c0.099-0.086,0.172-0.264,0.164-0.394"/>
	<path class="st4" d="M44.023,178.896c-0.008,0.13,0.066,0.308,0.163,0.394"/>
	<path class="st4" d="M51.827,186.931c0.085,0.097,0.265,0.17,0.394,0.163"/>
	<line class="st4" x1="78.805" y1="303.099" x2="78.805" y2="276.144"/>
	<line class="st4" x1="95.053" y1="276.144" x2="81.037" y2="276.144"/>
	<line class="st4" x1="95.053" y1="308.367" x2="95.053" y2="266.477"/>
	<line class="st4" x1="95.053" y1="295.476" x2="95.053" y2="272.919"/>
	<line class="st4" x1="114.425" y1="279.113" x2="114.425" y2="269.353"/>
	<line class="st4" x1="116.655" y1="279.113" x2="116.655" y2="269.353"/>
	<line class="st4" x1="112.195" y1="267.123" x2="110.315" y2="267.123"/>
	<line class="st4" x1="112.195" y1="264.892" x2="109.963" y2="264.892"/>
	<path class="st4" d="M114.425,269.353c0-1.23-0.998-2.23-2.231-2.23l0,0"/>
	<path class="st4" d="M116.655,269.353c0-2.463-1.995-4.461-4.46-4.461l0,0"/>
	<line class="st4" x1="116.655" y1="279.113" x2="114.425" y2="279.113"/>
	<line class="st4" x1="78.805" y1="276.144" x2="78.805" y2="269.45"/>
	<line class="st4" x1="81.037" y1="276.144" x2="81.037" y2="269.455"/>
	<path class="st4" d="M83.266,267.225c-1.23,0-2.229,0.998-2.229,2.229l0,0"/>
	<path class="st4" d="M83.478,264.994c-2.462-0.115-4.551,1.786-4.668,4.247c-0.003,0.053-0.005,0.156-0.005,0.209"/>
	<line class="st4" x1="85.31" y1="267.225" x2="83.266" y2="267.225"/>
	<line class="st4" x1="85.31" y1="264.994" x2="85.31" y2="267.225"/>
	<line class="st4" x1="85.31" y1="264.994" x2="83.478" y2="264.994"/>
	<polyline class="st4" points="89.297,256.809 89.297,265.434 90.574,265.434 	"/>
	<path class="st4" d="M74.715,50.576c0-1.848-1.498-3.347-3.347-3.347l0,0"/>
	<path class="st4" d="M82.152,47.23c-1.849,0-3.347,1.499-3.347,3.347l0,0"/>
	<line class="st4" x1="129.521" y1="119.797" x2="129.521" y2="80.719"/>
	<line class="st4" x1="43.909" y1="119.797" x2="24" y2="119.797"/>
	<line class="st4" x1="24" y1="119.797" x2="24" y2="80.719"/>
	<polyline class="st4" points="0.44,250.051 24.966,250.051 24.966,194.635 128.554,194.642 	"/>
	<path class="st4" d="M60.758,100.909c-3.365,0.012-6.131,2.744-6.187,6.107"/>
	<polyline class="st4" points="54.572,107.017 54.572,107.805 45.881,107.805 	"/>
	<path class="st4" d="M45.881,107.805c-1.026,0-1.858,0.833-1.858,1.859l0,0"/>
	<line class="st4" x1="44.023" y1="109.664" x2="44.023" y2="178.896"/>
	<line class="st4" x1="109.498" y1="177.656" x2="109.498" y2="109.664"/>
	<path class="st4" d="M109.498,109.664c0-1.026-0.833-1.859-1.859-1.859l0,0"/>
	<polyline class="st4" points="107.639,107.805 98.947,107.805 98.947,107.017 	"/>
	<path class="st4" d="M98.947,107.017c-0.053-3.363-2.818-6.095-6.186-6.107"/>
	<polyline class="st4" points="92.761,100.909 60.845,100.909 60.758,100.909 	"/>
	<line class="st4" x1="52.22" y1="187.094" x2="100.061" y2="187.094"/>
	<line class="st4" x1="51.827" y1="186.931" x2="44.186" y2="179.29"/>
	<line class="st4" x1="100.455" y1="186.931" x2="109.334" y2="178.05"/>
	<path class="st4" d="M100.061,187.094c0.129,0.007,0.308-0.066,0.395-0.163"/>
	<path class="st4" d="M109.334,178.05c0.099-0.086,0.172-0.264,0.164-0.394"/>
	<path class="st4" d="M44.023,178.896c-0.008,0.13,0.066,0.308,0.163,0.394"/>
	<path class="st4" d="M51.827,186.931c0.085,0.097,0.265,0.17,0.394,0.163"/>
	<polyline class="st4" points="89.03,256.809 30.69,256.809 30.69,250.054 23.426,250.054 	"/>
	<line class="st4" x1="95.053" y1="308.367" x2="95.053" y2="266.477"/>
	<line class="st4" x1="124.629" y1="256.809" x2="127.439" y2="256.809"/>
	<line class="st4" x1="137.632" y1="47.23" x2="82.152" y2="47.23"/>
	<path class="st4" d="M127.439,256.809c0.615,0,1.115-0.5,1.115-1.115l0,0"/>
	<path class="st4" d="M71.369,47.23H16.474v29.392c0,0,0.026,1.746,1.034,2.681c1.046,0.971,2.962,0.871,2.962,0.871"/>
	<polyline class="st4" points="78.805,50.576 78.805,83.676 105.315,83.676 	"/>
	<line class="st4" x1="31.027" y1="80.173" x2="19.784" y2="80.173"/>
	<line class="st4" x1="95.089" y1="308.367" x2="109.963" y2="308.367"/>
	<polyline class="st4" points="95.053,308.367 95.053,265.407 90.574,265.434 	"/>
	<line class="st4" x1="95.053" y1="308.367" x2="109.963" y2="308.367"/>
	<polyline class="st4" points="109.935,256.891 109.963,266.477 109.963,308.367 	"/>
	<line class="st4" x1="109.963" y1="256.809" x2="124.815" y2="256.809"/>
	<line class="st4" x1="0.25" y1="237.095" x2="24.9" y2="237.095"/>
	<line class="st4" x1="30.568" y1="265.003" x2="25.472" y2="265.003"/>
	<line class="st4" x1="30.568" y1="265.003" x2="30.568" y2="258.018"/>
	<line class="st4" x1="25.472" y1="265.003" x2="25.472" y2="257.495"/>
	<line class="st4" x1="30.535" y1="264.382" x2="25.519" y2="264.382"/>
	<line class="st4" x1="30.568" y1="258.018" x2="25.472" y2="257.495"/>
	<line class="st4" x1="30.535" y1="262.64" x2="25.519" y2="262.64"/>
	<line class="st4" x1="30.535" y1="263.519" x2="25.519" y2="263.519"/>
	<line class="st4" x1="30.535" y1="261.778" x2="25.519" y2="261.778"/>
	<line class="st4" x1="30.535" y1="260.914" x2="25.519" y2="260.914"/>
	<line class="st4" x1="30.535" y1="260.053" x2="25.519" y2="260.053"/>
	<line class="st4" x1="30.535" y1="259.189" x2="25.519" y2="259.189"/>
	<line class="st4" x1="30.535" y1="258.327" x2="25.519" y2="258.327"/>
	<line class="st4" x1="115.523" y1="283.547" x2="109.971" y2="283.547"/>
	<line class="st4" x1="115.523" y1="283.547" x2="115.523" y2="291.154"/>
	<line class="st4" x1="109.971" y1="283.547" x2="109.971" y2="291.724"/>
	<line class="st4" x1="115.487" y1="284.223" x2="110.025" y2="284.223"/>
	<line class="st4" x1="115.523" y1="291.154" x2="109.971" y2="291.724"/>
	<line class="st4" x1="115.487" y1="286.121" x2="110.025" y2="286.121"/>
	<line class="st4" x1="115.487" y1="285.164" x2="110.025" y2="285.164"/>
	<line class="st4" x1="115.487" y1="287.059" x2="110.025" y2="287.059"/>
	<line class="st4" x1="115.487" y1="288.001" x2="110.025" y2="288.001"/>
	<line class="st4" x1="115.487" y1="288.938" x2="110.025" y2="288.938"/>
	<line class="st4" x1="115.487" y1="289.88" x2="110.025" y2="289.88"/>
	<line class="st4" x1="115.487" y1="290.818" x2="110.025" y2="290.818"/>
	<polyline class="st4" points="99.124,333.444 99.935,337.591 102.117,338.44 103.91,340.003 105.175,342.138 105.652,344.501 
		104.035,344.815 104.042,345.173 103.507,347.572 101.757,349.816 99.169,351.008 96.329,350.881 93.863,349.466 92.458,347.444 
		92.353,347.107 90.714,347.43 90.261,345.063 90.621,342.618 91.742,340.468 93.4,338.869 92.611,334.798 	"/>
	<polyline class="st4" points="52.85,332.768 51.947,337.591 49.766,338.44 47.973,340.003 46.707,342.138 46.23,344.501 
		47.848,344.815 47.84,345.173 48.375,347.572 50.125,349.816 52.713,351.008 55.553,350.881 58.019,349.466 59.424,347.444 
		59.529,347.107 61.168,347.43 61.621,345.063 61.262,342.618 60.141,340.468 58.482,338.869 59.449,334.375 	"/>
	<line class="st4" x1="69.221" y1="90.364" x2="74.773" y2="90.364"/>
	<line class="st4" x1="69.221" y1="90.364" x2="69.221" y2="84.533"/>
	<line class="st4" x1="74.773" y1="90.364" x2="74.773" y2="83.964"/>
	<line class="st4" x1="69.221" y1="84.533" x2="74.773" y2="83.964"/>
	<line class="st4" x1="69.257" y1="89.567" x2="74.719" y2="89.567"/>
	<line class="st4" x1="69.257" y1="88.629" x2="74.719" y2="88.629"/>
	<line class="st4" x1="69.257" y1="87.687" x2="74.719" y2="87.687"/>
	<line class="st4" x1="69.257" y1="86.75" x2="74.719" y2="86.75"/>
	<line class="st4" x1="69.257" y1="85.808" x2="74.719" y2="85.808"/>
	<line class="st4" x1="69.257" y1="84.87" x2="74.719" y2="84.87"/>
	<rect x="109.94" y="256.801" class="st4" width="15.75" height="8.083"/>
	<polyline class="st4" points="59.742,340.389 48.381,346.966 50.864,338.023 	"/>
	<polygon class="st4" points="57.441,349.384 50.864,338.023 60.141,340.468 	"/>
	<polygon class="st4" points="93.761,349.471 101.574,338.257 92.16,339.943 103.372,347.755 	"/>
	<line class="st4" x1="94.848" y1="250.29" x2="89.75" y2="250.29"/>
	<line class="st4" x1="94.848" y1="250.29" x2="94.848" y2="243.304"/>
	<line class="st4" x1="89.75" y1="250.29" x2="89.75" y2="242.782"/>
	<line class="st4" x1="94.815" y1="249.669" x2="89.799" y2="249.669"/>
	<line class="st4" x1="94.848" y1="243.304" x2="89.75" y2="242.782"/>
	<line class="st4" x1="94.815" y1="247.926" x2="89.799" y2="247.926"/>
	<line class="st4" x1="94.815" y1="248.805" x2="89.799" y2="248.805"/>
	<line class="st4" x1="94.815" y1="247.065" x2="89.799" y2="247.065"/>
	<line class="st4" x1="94.815" y1="246.2" x2="89.799" y2="246.2"/>
	<line class="st4" x1="94.815" y1="245.34" x2="89.799" y2="245.34"/>
	<line class="st4" x1="94.815" y1="244.475" x2="89.799" y2="244.475"/>
	<line class="st4" x1="94.815" y1="243.614" x2="89.799" y2="243.614"/>
	<line class="st4" x1="48.306" y1="346.9" x2="57.464" y2="349.642"/>
	<line class="st4" x1="101.574" y1="338.257" x2="103.372" y2="347.755"/>
	<line class="st4" x1="92.24" y1="340.026" x2="93.816" y2="349.323"/>
	<line class="st4" x1="17.234" y1="47.212" x2="0.659" y2="47.212"/>
	<line class="st4" x1="136.775" y1="47.226" x2="150.861" y2="47.226"/>
	<line class="st4" x1="78.861" y1="295.788" x2="95.049" y2="295.788"/>
	<line class="st4" x1="78.892" y1="303.048" x2="95.049" y2="303.048"/>
	<line class="st4" x1="95.053" y1="308.367" x2="99.224" y2="333.705"/>
	<path class="st4" d="M70.377,649.212l0.005-6.249c0-3.071,2.49-5.56,5.561-5.56s5.561,2.489,5.561,5.56l-0.002,11.09v17.675"/>
	<polyline class="st4" points="75.94,642.759 75.883,661.157 73.69,661.163 73.721,654.165 60.127,654.134 55.127,659.165 
		55.127,660.913 	"/>
	<line class="st4" x1="70.565" y1="643.093" x2="81.524" y2="643.093"/>
	<line class="st4" x1="70.565" y1="644.301" x2="81.524" y2="644.301"/>
	<line class="st4" x1="75.898" y1="645.301" x2="81.524" y2="645.301"/>
	<line class="st4" x1="75.898" y1="646.385" x2="81.524" y2="646.385"/>
	<line class="st4" x1="75.898" y1="647.385" x2="81.524" y2="647.385"/>
	<line class="st4" x1="75.898" y1="648.385" x2="81.524" y2="648.385"/>
	<line class="st4" x1="75.898" y1="649.51" x2="81.524" y2="649.51"/>
	<line class="st4" x1="75.898" y1="650.51" x2="81.524" y2="650.51"/>
	<line class="st4" x1="75.898" y1="651.551" x2="81.524" y2="651.551"/>
	<line class="st4" x1="81.44" y1="665.004" x2="85.857" y2="665.004"/>
	<line class="st4" x1="81.44" y1="666.088" x2="85.857" y2="666.088"/>
	<line class="st4" x1="81.44" y1="667.088" x2="85.857" y2="667.088"/>
	<line class="st4" x1="81.44" y1="668.088" x2="85.857" y2="668.088"/>
	<line class="st4" x1="81.44" y1="669.213" x2="85.857" y2="669.213"/>
	<line class="st4" x1="81.44" y1="670.213" x2="85.857" y2="670.213"/>
	<line class="st4" x1="81.44" y1="671.254" x2="85.857" y2="671.254"/>
	<line class="st4" x1="68.324" y1="682.462" x2="68.324" y2="678.51"/>
	<line class="st4" x1="69.408" y1="682.462" x2="69.408" y2="678.51"/>
	<line class="st4" x1="70.408" y1="682.462" x2="70.408" y2="678.51"/>
	<line class="st4" x1="71.408" y1="682.462" x2="71.408" y2="678.51"/>
	<line class="st4" x1="68.17" y1="678.565" x2="63.41" y2="678.565"/>
	<line class="st4" x1="68.17" y1="677.481" x2="63.41" y2="677.481"/>
	<line class="st4" x1="68.17" y1="676.481" x2="63.41" y2="676.481"/>
	<line class="st4" x1="68.17" y1="675.481" x2="63.41" y2="675.481"/>
	<line class="st4" x1="72.533" y1="682.462" x2="72.533" y2="678.51"/>
	<line class="st4" x1="73.533" y1="682.462" x2="73.533" y2="678.51"/>
	<line class="st4" x1="74.574" y1="682.462" x2="74.574" y2="678.51"/>
	<line class="st4" x1="75.587" y1="682.462" x2="75.587" y2="678.51"/>
	<line class="st4" x1="76.712" y1="682.462" x2="76.712" y2="678.51"/>
	<line class="st4" x1="77.712" y1="682.462" x2="77.712" y2="678.51"/>
	<line class="st4" x1="78.753" y1="682.462" x2="78.753" y2="678.51"/>
	<polyline class="st4" points="81.526,653.985 87.898,653.968 87.897,664.752 85.862,664.765 85.857,671.802 	"/>
	<path class="st4" d="M73.713,660.153v8.98c0,0-0.383,2.733-3.819,2.733s-3.67-2.811-3.67-2.811l-0.008-8.981H65.13v-5.856"/>
	<polygon class="st4" points="34.565,719.634 44.565,661.009 66.195,661.095 66.215,660.074 73.668,660.121 73.688,661.125 
		107.44,661.259 116.94,719.259 	"/>
	<line class="st4" x1="63.315" y1="661.134" x2="63.315" y2="719.509"/>
	<line class="st4" x1="87.893" y1="661.195" x2="87.893" y2="719.384"/>
	<path class="st1" d="M124.565,673.927c0,0-0.016-2.668,0.156-3.98c0.056-0.42,0.25-1.547,0.25-1.547s0.672,1.75,1.453,2.953
		c1.109,1.708,1.984,2.656,1.984,2.656l-0.01,32.334h-3.834L124.565,673.927L124.565,673.927z"/>
	<polyline class="st4" points="39.694,719.77 39.694,721.927 42.018,722.37 44.01,721.706 45.504,722.536 47.108,722.481 
		48.104,722.038 49.211,722.315 50.871,723.697 51.922,722.259 53.084,722.702 54.246,722.093 55.518,722.425 56.68,723.199 
		58.174,723.421 59.336,721.595 60.442,722.702 61.826,722.259 63.264,722.757 65.035,722.038 67.247,723.365 68.908,721.872 
		70.954,723.587 73.278,723.643 76.487,720.82 79.033,723.089 81.246,721.872 83.238,723.919 86.335,722.259 88.438,724.029 
		90.098,722.923 91.537,724.085 92.699,721.651 93.861,722.757 95.133,721.927 96.24,723.255 97.622,722.37 98.674,723.809 
		100.001,723.365 101.329,722.038 102.768,721.651 103.598,723.643 104.981,722.536 106.143,724.085 107.747,723.697 
		107.747,721.651 109.628,722.315 112.285,721.927 112.229,719.272 	"/>
	<polyline class="st4" points="91.924,723.311 92.533,724.361 91.592,726.906 92.643,728.179 95.465,727.018 98.342,728.234 
		100.445,727.404 100.777,725.081 99.503,724.915 99.503,723.531 	"/>
	<polyline class="st4" points="92.367,725.357 93.749,725.247 93.971,724.085 95.852,723.975 97.402,725.357 99.338,724.693 	"/>
	<polyline class="st4" points="73.704,667.703 73.727,675.185 68.323,675.232 68.3,678.557 79.015,678.58 	"/>
	<line class="st4" x1="63.312" y1="682.32" x2="79.223" y2="682.32"/>
	<rect x="67.629" y="661.166" class="st4" width="4.573" height="3.52"/>
	<path class="st4" d="M92.643,721.898l1.328,0.859c0,0,0.984-0.656,1.031-0.656s1.237,1.154,1.237,1.154l1.419-0.654l1.016,1.208
		l0.766-0.271l-0.172,1.078c0,0-1.875,0.656-1.891,0.578s-1.391-1.203-1.469-1.25s-1.891,0-1.891,0l-0.438,0.984l-1.156,0.203
		l0.078-0.859l-0.422-0.844L92.643,721.898z"/>
	<path class="st5" d="M51.523,95.596v-0.192c0-1.967,0.729-2.742,1.64-2.742c0.271,0,0.432,0.032,0.64,0.128v1.007
		c-0.2-0.12-0.359-0.184-0.544-0.184c-0.432,0-0.743,0.384-0.743,1.783v0.208c0,1.479,0.312,1.783,0.76,1.783
		c0.151,0,0.344-0.056,0.543-0.176v0.959c-0.224,0.128-0.439,0.168-0.72,0.168C52.203,98.339,51.523,97.547,51.523,95.596z
		 M54.011,95.645v-0.288c0-1.847,0.601-2.734,1.487-2.734c0.888,0,1.487,0.887,1.487,2.734v0.288c0,1.847-0.6,2.734-1.487,2.734
		C54.612,98.379,54.011,97.491,54.011,95.645z M55.995,95.645v-0.288c0-1.439-0.2-1.839-0.496-1.839s-0.495,0.399-0.495,1.839v0.288
		c0,1.439,0.199,1.839,0.495,1.839S55.995,97.084,55.995,95.645z M57.451,96.668v-3.966h0.968v4.062
		c0,0.504,0.176,0.704,0.424,0.704s0.424-0.2,0.424-0.704v-4.062h0.968v3.966c0,1.175-0.592,1.703-1.392,1.703
		S57.451,97.843,57.451,96.668z M60.795,92.702h1.007c1,0,1.728,0.527,1.728,1.783v0.072c0,0.728-0.288,1.191-0.655,1.472
		l0.751,2.271h-1.039l-0.632-1.951h-0.184V98.3h-0.976V92.702z M61.819,95.468c0.424,0,0.735-0.248,0.735-0.903v-0.064
		c0-0.704-0.336-0.888-0.76-0.888h-0.023v1.855H61.819z M64.419,93.63h-0.688v-0.927h2.351v0.927h-0.688v4.669h-0.976L64.419,93.63
		L64.419,93.63z M67.163,96.092l-1.039-3.39h1.008l0.527,2.095l0.536-2.095h0.983l-1.04,3.39v2.207h-0.976L67.163,96.092
		L67.163,96.092z M69.93,92.686h1.04l1.062,5.613h-0.975l-0.185-1.111h-0.888l-0.176,1.111h-0.943L69.93,92.686z M70.73,96.308
		l-0.296-1.847l-0.304,1.847H70.73z M72.332,92.702h1.007c1,0,1.728,0.527,1.728,1.783v0.072c0,0.728-0.288,1.191-0.656,1.472
		l0.752,2.271h-1.039l-0.632-1.951h-0.184V98.3h-0.976V92.702z M73.355,95.468c0.424,0,0.735-0.248,0.735-0.903v-0.064
		c0-0.704-0.336-0.888-0.76-0.888h-0.023v1.855H73.355z M75.515,92.702h0.911c1.247,0,1.959,0.903,1.959,2.702v0.192
		c0,1.799-0.712,2.703-1.959,2.703h-0.911V92.702z M76.531,97.403c0.463,0,0.863-0.408,0.863-1.807v-0.192
		c0-1.399-0.4-1.807-0.863-1.807h-0.04v3.806H76.531z M80.019,98.107v-1.016c0.344,0.2,0.615,0.312,0.88,0.312
		c0.279,0,0.52-0.136,0.52-0.479v-0.016c0-0.256-0.08-0.448-0.544-0.976c-0.664-0.751-0.936-1.111-0.936-1.791v-0.016
		c0-0.896,0.584-1.463,1.359-1.463c0.392,0,0.624,0.056,0.863,0.176v1.016c-0.304-0.176-0.487-0.256-0.743-0.256
		c-0.272,0-0.504,0.176-0.504,0.479v0.016c0,0.264,0.08,0.36,0.544,0.896c0.768,0.887,0.936,1.231,0.936,1.871v0.016
		c0,0.879-0.616,1.463-1.384,1.463C80.626,98.339,80.298,98.243,80.019,98.107z M82.722,96.668v-3.966h0.968v4.062
		c0,0.504,0.176,0.704,0.424,0.704s0.424-0.2,0.424-0.704v-4.062h0.968v3.966c0,1.175-0.592,1.703-1.392,1.703
		S82.722,97.843,82.722,96.668z M86.067,92.702h0.911l0.983,2.83v-2.83h0.952v5.597h-0.864l-1.031-2.966v2.966h-0.951L86.067,92.702
		L86.067,92.702z M90.763,92.702h0.911c1.247,0,1.959,0.903,1.959,2.702v0.192c0,1.799-0.712,2.703-1.959,2.703h-0.911V92.702z
		 M91.779,97.403c0.463,0,0.863-0.408,0.863-1.807v-0.192c0-1.399-0.4-1.807-0.863-1.807h-0.04v3.806H91.779z M94.115,92.702h2.143
		v0.927H95.09v1.391h1.031v0.928H95.09v1.423h1.191v0.928h-2.167L94.115,92.702L94.115,92.702z M96.58,95.596v-0.192
		c0-1.967,0.728-2.742,1.639-2.742c0.271,0,0.432,0.032,0.64,0.128v1.007c-0.2-0.12-0.36-0.184-0.544-0.184
		c-0.432,0-0.743,0.384-0.743,1.783v0.208c0,1.479,0.312,1.783,0.76,1.783c0.151,0,0.344-0.056,0.543-0.176v0.959
		c-0.224,0.128-0.439,0.168-0.72,0.168C97.258,98.339,96.58,97.547,96.58,95.596z M99.363,92.702h0.976v2.342l0.791-2.342h1.104
		l-0.943,2.366l0.959,3.23h-1.087l-0.607-2.119l-0.216,0.616v1.503h-0.976L99.363,92.702L99.363,92.702z"/>
	<path class="st5" d="M14.154,153.869h0.871c1.063,0,1.808,0.575,1.808,1.887v0.016c0,1.263-0.704,1.863-1.695,1.935H15.13v1.759
		h-0.976V153.869z M15.137,156.803c0.407-0.024,0.72-0.32,0.72-1v-0.016c0-0.712-0.272-1.016-0.696-1.016H15.13v2.031h0.007V156.803
		z M17.217,157.835v-3.966h0.968v4.062c0,0.504,0.176,0.704,0.424,0.704s0.424-0.2,0.424-0.704v-4.062H20v3.966
		c0,1.175-0.592,1.703-1.392,1.703S17.217,159.01,17.217,157.835z M20.562,153.869h0.848c0.943,0,1.822,0.384,1.822,1.423v0.04
		c0,0.72-0.407,1.071-0.808,1.263c0.473,0.208,0.88,0.536,0.88,1.248v0.072c0,0.992-0.768,1.551-1.854,1.551h-0.888
		C20.562,159.466,20.562,153.869,20.562,153.869z M21.553,156.22c0.432,0,0.72-0.248,0.72-0.736v-0.016
		c0-0.487-0.288-0.695-0.72-0.695h-0.016v1.447H21.553z M21.561,158.563c0.448,0,0.768-0.264,0.768-0.728v-0.04
		c0-0.464-0.319-0.728-0.768-0.728h-0.023v1.495L21.561,158.563L21.561,158.563z M23.713,153.869h0.976v4.669h1.031v0.928h-2.007
		V153.869z M26.129,153.869h0.976v5.597h-0.976V153.869z M27.602,156.763v-0.192c0-1.967,0.728-2.742,1.639-2.742
		c0.271,0,0.432,0.032,0.64,0.128v1.007c-0.2-0.12-0.36-0.184-0.544-0.184c-0.432,0-0.743,0.384-0.743,1.783v0.208
		c0,1.479,0.312,1.783,0.76,1.783c0.151,0,0.344-0.056,0.543-0.176v0.959c-0.224,0.128-0.439,0.168-0.72,0.168
		C28.281,159.506,27.602,158.714,27.602,156.763z M10.926,167.274v-1.016c0.344,0.2,0.615,0.312,0.88,0.312
		c0.279,0,0.52-0.136,0.52-0.479v-0.016c0-0.256-0.08-0.448-0.544-0.976c-0.664-0.751-0.936-1.111-0.936-1.791v-0.016
		c0-0.896,0.584-1.463,1.359-1.463c0.392,0,0.624,0.056,0.863,0.176v1.016c-0.304-0.176-0.487-0.256-0.743-0.256
		c-0.272,0-0.504,0.176-0.504,0.479v0.016c0,0.264,0.08,0.36,0.544,0.896c0.768,0.887,0.936,1.231,0.936,1.871v0.016
		c0,0.879-0.616,1.463-1.384,1.463C11.534,167.506,11.206,167.41,10.926,167.274z M13.629,165.835v-3.966h0.968v4.062
		c0,0.504,0.176,0.704,0.424,0.704s0.424-0.2,0.424-0.704v-4.062h0.968v3.966c0,1.175-0.592,1.703-1.392,1.703
		S13.629,167.01,13.629,165.835z M16.974,161.869h0.911l0.983,2.83v-2.83h0.952v5.597h-0.864l-1.031-2.966v2.966h-0.951
		C16.974,167.466,16.974,161.869,16.974,161.869z M21.67,161.869h0.911c1.247,0,1.959,0.903,1.959,2.702v0.192
		c0,1.799-0.712,2.703-1.959,2.703H21.67V161.869z M22.686,166.57c0.463,0,0.863-0.408,0.863-1.807v-0.192
		c0-1.399-0.4-1.807-0.863-1.807h-0.04v3.806L22.686,166.57L22.686,166.57z M25.022,161.869h2.143v0.927h-1.167v1.391h1.031v0.928
		h-1.031v1.423h1.191v0.928h-2.167V161.869z M27.485,164.763v-0.192c0-1.967,0.729-2.742,1.64-2.742c0.271,0,0.432,0.032,0.64,0.128
		v1.007c-0.2-0.12-0.359-0.184-0.544-0.184c-0.432,0-0.743,0.384-0.743,1.783v0.208c0,1.479,0.312,1.783,0.76,1.783
		c0.151,0,0.344-0.056,0.543-0.176v0.959c-0.224,0.128-0.439,0.168-0.72,0.168C28.165,167.506,27.485,166.714,27.485,164.763z
		 M30.27,161.869h0.976v2.342l0.791-2.342h1.104l-0.943,2.366l0.959,3.23H32.07l-0.607-2.119l-0.216,0.616v1.503H30.27V161.869z"/>
	<path class="st5" d="M123.154,153.869h0.871c1.063,0,1.808,0.575,1.808,1.887v0.016c0,1.263-0.704,1.863-1.695,1.935h-0.008v1.759
		h-0.976V153.869z M124.137,156.803c0.407-0.024,0.72-0.32,0.72-1v-0.016c0-0.712-0.272-1.016-0.696-1.016h-0.031v2.031h0.007
		V156.803z M126.217,157.835v-3.966h0.968v4.062c0,0.504,0.176,0.704,0.424,0.704s0.424-0.2,0.424-0.704v-4.062H129v3.966
		c0,1.175-0.592,1.703-1.392,1.703S126.217,159.01,126.217,157.835z M129.562,153.869h0.848c0.943,0,1.822,0.384,1.822,1.423v0.04
		c0,0.72-0.407,1.071-0.808,1.263c0.473,0.208,0.88,0.536,0.88,1.248v0.072c0,0.992-0.768,1.551-1.854,1.551h-0.888L129.562,153.869
		L129.562,153.869z M130.553,156.22c0.432,0,0.72-0.248,0.72-0.736v-0.016c0-0.487-0.288-0.695-0.72-0.695h-0.016v1.447H130.553z
		 M130.561,158.563c0.448,0,0.768-0.264,0.768-0.728v-0.04c0-0.464-0.319-0.728-0.768-0.728h-0.023v1.495L130.561,158.563
		L130.561,158.563z M132.713,153.869h0.976v4.669h1.031v0.928h-2.007V153.869z M135.129,153.869h0.976v5.597h-0.976V153.869z
		 M136.602,156.763v-0.192c0-1.967,0.728-2.742,1.639-2.742c0.271,0,0.432,0.032,0.64,0.128v1.007c-0.2-0.12-0.36-0.184-0.544-0.184
		c-0.432,0-0.743,0.384-0.743,1.783v0.208c0,1.479,0.312,1.783,0.76,1.783c0.151,0,0.344-0.056,0.543-0.176v0.959
		c-0.224,0.128-0.439,0.168-0.72,0.168C137.281,159.506,136.602,158.714,136.602,156.763z M119.926,167.274v-1.016
		c0.344,0.2,0.615,0.312,0.88,0.312c0.279,0,0.52-0.136,0.52-0.479v-0.016c0-0.256-0.08-0.448-0.544-0.976
		c-0.664-0.751-0.936-1.111-0.936-1.791v-0.016c0-0.896,0.584-1.463,1.359-1.463c0.392,0,0.624,0.056,0.863,0.176v1.016
		c-0.304-0.176-0.487-0.256-0.743-0.256c-0.272,0-0.504,0.176-0.504,0.479v0.016c0,0.264,0.08,0.36,0.544,0.896
		c0.768,0.887,0.936,1.231,0.936,1.871v0.016c0,0.879-0.616,1.463-1.384,1.463C120.534,167.506,120.206,167.41,119.926,167.274z
		 M122.629,165.835v-3.966h0.968v4.062c0,0.504,0.176,0.704,0.424,0.704s0.424-0.2,0.424-0.704v-4.062h0.968v3.966
		c0,1.175-0.592,1.703-1.392,1.703S122.629,167.01,122.629,165.835z M125.974,161.869h0.911l0.983,2.83v-2.83h0.952v5.597h-0.864
		l-1.031-2.966v2.966h-0.951L125.974,161.869L125.974,161.869z M130.67,161.869h0.911c1.247,0,1.959,0.903,1.959,2.702v0.192
		c0,1.799-0.712,2.703-1.959,2.703h-0.911V161.869z M131.686,166.57c0.463,0,0.863-0.408,0.863-1.807v-0.192
		c0-1.399-0.4-1.807-0.863-1.807h-0.04v3.806L131.686,166.57L131.686,166.57z M134.022,161.869h2.143v0.927h-1.167v1.391h1.031
		v0.928h-1.031v1.423h1.191v0.928h-2.167L134.022,161.869L134.022,161.869z M136.485,164.763v-0.192c0-1.967,0.729-2.742,1.64-2.742
		c0.271,0,0.432,0.032,0.64,0.128v1.007c-0.2-0.12-0.359-0.184-0.544-0.184c-0.432,0-0.743,0.384-0.743,1.783v0.208
		c0,1.479,0.312,1.783,0.76,1.783c0.151,0,0.344-0.056,0.543-0.176v0.959c-0.224,0.128-0.439,0.168-0.72,0.168
		C137.165,167.506,136.485,166.714,136.485,164.763z M139.27,161.869h0.976v2.342l0.791-2.342h1.104l-0.943,2.366l0.959,3.23h-1.087
		l-0.607-2.119l-0.216,0.616v1.503h-0.976v-5.596H139.27z"/>
	<path class="st5" d="M37.191,291.41h0.871c1.063,0,1.808,0.575,1.808,1.887v0.016c0,1.263-0.704,1.863-1.695,1.935h-0.008v1.759
		h-0.976C37.191,297.007,37.191,291.41,37.191,291.41z M38.175,294.344c0.407-0.024,0.72-0.32,0.72-1v-0.016
		c0-0.712-0.272-1.016-0.696-1.016h-0.031v2.031L38.175,294.344L38.175,294.344z M40.175,294.353v-0.288
		c0-1.847,0.601-2.734,1.487-2.734c0.888,0,1.487,0.887,1.487,2.734v0.288c0,1.847-0.6,2.734-1.487,2.734
		C40.775,297.087,40.175,296.199,40.175,294.353z M42.158,294.353v-0.288c0-1.439-0.2-1.839-0.496-1.839s-0.495,0.399-0.495,1.839
		v0.288c0,1.439,0.199,1.839,0.495,1.839S42.158,295.792,42.158,294.353z M43.472,296.815v-1.016c0.344,0.2,0.615,0.312,0.88,0.312
		c0.279,0,0.52-0.136,0.52-0.479v-0.016c0-0.256-0.08-0.448-0.544-0.976c-0.664-0.751-0.936-1.111-0.936-1.791v-0.016
		c0-0.896,0.584-1.463,1.359-1.463c0.392,0,0.624,0.056,0.863,0.176v1.016c-0.304-0.176-0.487-0.256-0.743-0.256
		c-0.272,0-0.504,0.176-0.504,0.479v0.016c0,0.264,0.08,0.36,0.544,0.896c0.768,0.887,0.936,1.231,0.936,1.871v0.016
		c0,0.879-0.616,1.463-1.384,1.463C44.079,297.047,43.751,296.951,43.472,296.815z M46.191,291.41h0.976v2.318h0.848v-2.318h0.975
		v5.597h-0.975v-2.351h-0.848v2.351h-0.976V291.41z"/>
	<path class="st5" d="M114.961,257.744h1.007c1,0,1.728,0.527,1.728,1.783v0.072c0,0.728-0.288,1.191-0.656,1.472l0.752,2.271
		h-1.039l-0.632-1.951h-0.184v1.951h-0.976V257.744z M115.985,260.51c0.424,0,0.735-0.248,0.735-0.903v-0.064
		c0-0.704-0.336-0.888-0.76-0.888h-0.023v1.855H115.985z M118.145,257.744h1.007c1,0,1.728,0.527,1.728,1.783v0.072
		c0,0.728-0.288,1.191-0.656,1.472l0.752,2.271h-1.039l-0.632-1.951h-0.184v1.951h-0.976
		C118.145,263.342,118.145,257.744,118.145,257.744z M119.168,260.51c0.424,0,0.735-0.248,0.735-0.903v-0.064
		c0-0.704-0.336-0.888-0.76-0.888h-0.023v1.855H119.168z"/>
	<path class="st5" d="M83.79,296.635h1.007c1,0,1.728,0.527,1.728,1.783v0.072c0,0.728-0.288,1.191-0.656,1.472l0.752,2.271h-1.039
		l-0.632-1.951h-0.184v1.951H83.79V296.635z M84.814,299.401c0.424,0,0.735-0.248,0.735-0.903v-0.064
		c0-0.704-0.336-0.888-0.76-0.888h-0.023v1.855H84.814z M86.974,296.635h1.007c1,0,1.728,0.527,1.728,1.783v0.072
		c0,0.728-0.288,1.191-0.656,1.472l0.752,2.271h-1.039l-0.632-1.951H87.95v1.951h-0.976V296.635z M87.998,299.401
		c0.424,0,0.735-0.248,0.735-0.903v-0.064c0-0.704-0.336-0.888-0.76-0.888H87.95v1.855H87.998z"/>
	<path class="st5" d="M62.249,605.498h2.143v0.927h-1.167v1.392h1.031v0.928h-1.031v1.423h1.191v0.928h-2.167V605.498z
		 M64.889,605.498h0.871c1.063,0,1.808,0.575,1.808,1.887v0.016c0,1.264-0.704,1.863-1.695,1.936h-0.008v1.759h-0.976V605.498z
		 M65.872,608.432c0.407-0.023,0.72-0.319,0.72-0.999v-0.016c0-0.712-0.272-1.016-0.696-1.016h-0.031v2.03L65.872,608.432
		L65.872,608.432z M67.984,605.498h0.976v5.597h-0.976V605.498z M69.457,608.392V608.2c0-1.967,0.728-2.742,1.639-2.742
		c0.271,0,0.432,0.031,0.64,0.128v1.007c-0.2-0.12-0.36-0.184-0.544-0.184c-0.432,0-0.743,0.384-0.743,1.783v0.208
		c0,1.479,0.312,1.782,0.76,1.782c0.151,0,0.344-0.056,0.543-0.176v0.96c-0.224,0.128-0.439,0.168-0.72,0.168
		C70.136,611.135,69.457,610.343,69.457,608.392z M73.513,605.498h0.871c1.063,0,1.808,0.575,1.808,1.887v0.016
		c0,1.264-0.704,1.863-1.695,1.936h-0.008v1.759h-0.976V605.498z M74.496,608.432c0.407-0.023,0.72-0.319,0.72-0.999v-0.016
		c0-0.712-0.272-1.016-0.696-1.016h-0.031v2.03L74.496,608.432L74.496,608.432z M76.593,605.498h0.976v4.669H78.6v0.928h-2.007
		V605.498z M78.897,609.464v-3.966h0.967v4.062c0,0.504,0.176,0.703,0.424,0.703s0.424-0.199,0.424-0.703v-4.062h0.969v3.966
		c0,1.175-0.592,1.702-1.393,1.702C79.489,611.166,78.897,610.639,78.897,609.464z M82.241,605.498h0.91l0.984,2.83v-2.83h0.951
		v5.597h-0.863l-1.031-2.967v2.967h-0.951C82.241,611.095,82.241,605.498,82.241,605.498z M85.569,608.392V608.2
		c0-1.807,0.768-2.742,1.871-2.742c0.295,0,0.543,0.063,0.744,0.159v1.016c-0.24-0.144-0.457-0.239-0.713-0.239
		c-0.559,0-0.91,0.56-0.91,1.767v0.271c0,1.464,0.432,1.8,0.83,1.8c0.033,0,0.041,0,0.088-0.009v-1.431H87v-0.872h1.367v2.975
		c-0.352,0.152-0.641,0.24-1.016,0.24C86.375,611.135,85.569,610.343,85.569,608.392z M88.905,605.498h2.143v0.927H89.88v1.392
		h1.031v0.928H89.88v1.423h1.191v0.928h-2.166V605.498z"/>
	<path class="st5" d="M45.441,728.657v-0.192c0-1.967,0.729-2.742,1.64-2.742c0.271,0,0.432,0.032,0.64,0.128v1.008
		c-0.2-0.121-0.359-0.185-0.544-0.185c-0.432,0-0.743,0.384-0.743,1.783v0.208c0,1.479,0.312,1.783,0.76,1.783
		c0.151,0,0.344-0.057,0.543-0.176v0.959c-0.224,0.128-0.439,0.168-0.72,0.168C46.121,731.4,45.441,730.609,45.441,728.657z
		 M48.226,725.763h0.976v4.669h1.031v0.928h-2.007V725.763z M50.642,725.763h0.976v5.597h-0.976V725.763z M52.21,725.763h0.967
		l0.688,2.047l0.688-2.047h0.967v5.597h-0.936v-3.382l-0.711,2.119h-0.017l-0.711-2.119v3.382H52.21V725.763z M56.098,725.763h0.848
		c0.943,0,1.822,0.384,1.822,1.423v0.04c0,0.72-0.407,1.071-0.808,1.264c0.472,0.207,0.88,0.535,0.88,1.247v0.071
		c0,0.992-0.768,1.552-1.854,1.552h-0.888V725.763z M57.089,728.113c0.432,0,0.72-0.248,0.72-0.735v-0.017
		c0-0.487-0.288-0.695-0.72-0.695h-0.016v1.447H57.089z M57.097,730.456c0.448,0,0.768-0.264,0.768-0.728v-0.04
		c0-0.464-0.319-0.728-0.768-0.728h-0.023v1.495h0.023V730.456z M59.266,725.763h0.976v5.597h-0.976V725.763z M60.834,725.763h0.911
		l0.983,2.83v-2.83h0.951v5.597h-0.863l-1.031-2.966v2.966h-0.951C60.834,731.36,60.834,725.763,60.834,725.763z M64.162,728.657
		v-0.192c0-1.807,0.768-2.742,1.87-2.742c0.296,0,0.544,0.063,0.744,0.159v1.016c-0.24-0.144-0.456-0.239-0.712-0.239
		c-0.56,0-0.911,0.56-0.911,1.767v0.271c0,1.464,0.432,1.8,0.831,1.8c0.032,0,0.04,0,0.088-0.009v-1.431h-0.479v-0.872h1.367v2.975
		c-0.352,0.152-0.64,0.24-1.016,0.24C64.969,731.4,64.162,730.609,64.162,728.657z M49.934,733.763h0.999l0.408,3.43l0.487-3.43
		h0.903l0.479,3.43l0.416-3.43h0.976l-0.848,5.613h-1.023l-0.464-3.318l-0.464,3.318H50.78L49.934,733.763z M55.637,733.747h1.039
		l1.063,5.612h-0.975l-0.185-1.111h-0.888l-0.176,1.111h-0.943L55.637,733.747z M56.436,737.368l-0.296-1.847l-0.304,1.847H56.436z
		 M58.037,733.763h0.976v4.669h1.031v0.928h-2.007V733.763z M60.437,733.763h0.976v4.669h1.031v0.928h-2.007V733.763z"/>
	<path class="st5" d="M87.389,732.747v-0.191c0-1.967,0.729-2.742,1.64-2.742c0.271,0,0.432,0.031,0.64,0.128v1.007
		c-0.2-0.119-0.359-0.184-0.544-0.184c-0.432,0-0.743,0.384-0.743,1.783v0.208c0,1.479,0.312,1.782,0.76,1.782
		c0.151,0,0.344-0.055,0.543-0.176v0.96c-0.224,0.128-0.439,0.168-0.72,0.168C88.069,735.49,87.389,734.698,87.389,732.747z
		 M90.173,729.854h0.976v4.669h1.031v0.928h-2.007C90.173,735.451,90.173,729.854,90.173,729.854z M92.589,729.854h0.976v5.597
		h-0.976V729.854z M94.158,729.854h0.967l0.688,2.047l0.688-2.047h0.967v5.597h-0.936v-3.383l-0.711,2.119h-0.017l-0.711-2.119
		v3.383h-0.936L94.158,729.854L94.158,729.854z M98.045,729.854h0.848c0.943,0,1.822,0.384,1.822,1.423v0.04
		c0,0.72-0.407,1.071-0.808,1.263c0.472,0.209,0.88,0.536,0.88,1.248v0.072c0,0.991-0.768,1.551-1.854,1.551h-0.888V729.854z
		 M99.037,732.204c0.432,0,0.72-0.248,0.72-0.736v-0.016c0-0.487-0.288-0.695-0.72-0.695h-0.016v1.447H99.037z M99.044,734.547
		c0.448,0,0.768-0.265,0.768-0.728v-0.04c0-0.464-0.319-0.728-0.768-0.728h-0.023v1.495h0.023V734.547z M101.213,729.854h0.976
		v5.597h-0.976V729.854z M102.782,729.854h0.911l0.983,2.83v-2.83h0.951v5.597h-0.863l-1.031-2.967v2.967h-0.951
		C102.782,735.451,102.782,729.854,102.782,729.854z M106.11,732.747v-0.191c0-1.807,0.768-2.742,1.87-2.742
		c0.296,0,0.544,0.064,0.744,0.16v1.016c-0.24-0.145-0.456-0.24-0.712-0.24c-0.56,0-0.911,0.56-0.911,1.767v0.272
		c0,1.463,0.432,1.799,0.831,1.799c0.032,0,0.04,0,0.088-0.008v-1.432h-0.479v-0.871h1.367v2.975
		c-0.352,0.151-0.64,0.239-1.016,0.239C106.916,735.49,106.11,734.698,106.11,732.747z M91.881,737.854h0.999l0.408,3.43l0.487-3.43
		h0.903l0.479,3.43l0.416-3.43h0.976l-0.848,5.612h-1.023l-0.464-3.318l-0.464,3.318h-1.023L91.881,737.854z M97.584,737.837h1.039
		l1.063,5.613h-0.975l-0.185-1.111H97.64l-0.176,1.111h-0.943L97.584,737.837z M98.384,741.46l-0.296-1.848l-0.304,1.848H98.384z
		 M99.985,737.854h0.976v4.669h1.031v0.928h-2.007V737.854z M102.385,737.854h0.976v4.669h1.031v0.928h-2.007
		C102.385,743.451,102.385,737.854,102.385,737.854z"/>
	<path class="st5" d="M66.318,27.572v-1.016c0.344,0.2,0.615,0.312,0.88,0.312c0.279,0,0.52-0.136,0.52-0.479v-0.016
		c0-0.256-0.08-0.448-0.544-0.976c-0.664-0.751-0.936-1.111-0.936-1.791V23.59c0-0.896,0.584-1.463,1.359-1.463
		c0.392,0,0.624,0.056,0.863,0.176v1.016c-0.304-0.176-0.487-0.256-0.743-0.256c-0.272,0-0.504,0.176-0.504,0.479v0.016
		c0,0.264,0.08,0.36,0.544,0.896c0.768,0.887,0.936,1.231,0.936,1.871v0.016c0,0.879-0.616,1.463-1.384,1.463
		C66.926,27.804,66.598,27.708,66.318,27.572z M69.021,26.133v-3.966h0.968v4.062c0,0.504,0.176,0.704,0.424,0.704
		s0.424-0.2,0.424-0.704v-4.062h0.968v3.966c0,1.175-0.592,1.703-1.392,1.703S69.021,27.308,69.021,26.133z M72.366,22.167h0.911
		l0.983,2.83v-2.83h0.952v5.597h-0.864l-1.031-2.966v2.966h-0.951L72.366,22.167L72.366,22.167z M77.062,22.167h0.911
		c1.247,0,1.958,0.903,1.958,2.702v0.192c0,1.799-0.712,2.703-1.958,2.703h-0.911V22.167z M78.078,26.868
		c0.462,0,0.863-0.408,0.863-1.807v-0.192c0-1.399-0.4-1.807-0.863-1.807h-0.04v3.806C78.038,26.868,78.078,26.868,78.078,26.868z
		 M80.414,22.167h2.143v0.927H81.39v1.391h1.031v0.928H81.39v1.423h1.191v0.928h-2.167V22.167z M82.876,25.061v-0.192
		c0-1.967,0.729-2.742,1.64-2.742c0.271,0,0.432,0.032,0.64,0.128v1.007c-0.2-0.12-0.359-0.184-0.544-0.184
		c-0.432,0-0.743,0.384-0.743,1.783v0.208c0,1.479,0.312,1.783,0.76,1.783c0.151,0,0.344-0.056,0.543-0.176v0.959
		c-0.224,0.128-0.439,0.168-0.72,0.168C83.556,27.804,82.876,27.012,82.876,25.061z M85.662,22.167h0.976v2.342l0.791-2.342h1.104
		l-0.943,2.366l0.959,3.23H87.46l-0.607-2.119l-0.216,0.616v1.503h-0.976v-5.596H85.662z"/>
	<path class="st5" d="M66.633,138.581v-0.288c0-1.847,0.6-2.734,1.487-2.734s1.487,0.887,1.487,2.734v0.288
		c0,1.847-0.6,2.734-1.487,2.734S66.633,140.428,66.633,138.581z M68.616,138.581v-0.288c0-1.439-0.2-1.839-0.496-1.839
		s-0.496,0.399-0.496,1.839v0.288c0,1.439,0.2,1.839,0.496,1.839S68.616,140.02,68.616,138.581z M70.089,135.639h0.872
		c1.063,0,1.807,0.575,1.807,1.887v0.016c0,1.263-0.704,1.863-1.695,1.935h-0.008v1.759h-0.976V135.639z M71.073,138.573
		c0.408-0.024,0.72-0.32,0.72-1v-0.016c0-0.712-0.272-1.016-0.696-1.016h-0.032v2.031h0.008V138.573z M73.169,135.639h2.143v0.927
		h-1.167v1.391h1.032v0.928h-1.032v1.423h1.191v0.928h-2.167V135.639z M75.809,135.639h0.912l0.983,2.83v-2.83h0.952v5.597h-0.864
		l-1.031-2.966v2.966h-0.952C75.809,141.236,75.809,135.639,75.809,135.639z M81.025,136.566h-0.688v-0.927h2.351v0.927H82v4.669
		h-0.976L81.025,136.566L81.025,136.566z M82.841,138.581v-0.288c0-1.847,0.6-2.734,1.487-2.734s1.487,0.887,1.487,2.734v0.288
		c0,1.847-0.601,2.734-1.487,2.734C83.441,141.316,82.841,140.428,82.841,138.581z M84.824,138.581v-0.288
		c0-1.439-0.199-1.839-0.495-1.839s-0.496,0.399-0.496,1.839v0.288c0,1.439,0.2,1.839,0.496,1.839S84.824,140.02,84.824,138.581z
		 M62.597,143.639h0.912c1.248,0,1.959,0.903,1.959,2.702v0.192c0,1.799-0.711,2.703-1.959,2.703h-0.912
		C62.597,149.236,62.597,143.639,62.597,143.639z M63.613,148.34c0.464,0,0.863-0.408,0.863-1.807v-0.192
		c0-1.399-0.399-1.807-0.863-1.807h-0.04v3.806L63.613,148.34L63.613,148.34z M65.949,143.639h2.143v0.927h-1.167v1.391h1.031v0.928
		h-1.031v1.423h1.191v0.928h-2.167V143.639z M68.413,146.533v-0.192c0-1.967,0.728-2.742,1.639-2.742
		c0.272,0,0.432,0.032,0.64,0.128v1.007c-0.2-0.12-0.36-0.184-0.543-0.184c-0.432,0-0.744,0.384-0.744,1.783v0.208
		c0,1.479,0.312,1.783,0.76,1.783c0.152,0,0.344-0.056,0.543-0.176v0.959c-0.224,0.128-0.44,0.168-0.72,0.168
		C69.093,149.275,68.413,148.484,68.413,146.533z M71.197,143.639h0.976v2.342l0.792-2.342h1.104l-0.944,2.366l0.959,3.23h-1.087
		l-0.607-2.119l-0.216,0.616v1.503h-0.976L71.197,143.639L71.197,143.639z M75.693,143.639h0.847c0.944,0,1.823,0.384,1.823,1.423
		v0.04c0,0.72-0.408,1.071-0.808,1.263c0.472,0.208,0.88,0.536,0.88,1.248v0.072c0,0.992-0.768,1.551-1.855,1.551h-0.887
		C75.693,149.236,75.693,143.639,75.693,143.639z M76.685,145.989c0.432,0,0.72-0.248,0.72-0.736v-0.016
		c0-0.487-0.288-0.695-0.72-0.695h-0.016v1.447H76.685z M76.693,148.332c0.447,0,0.768-0.264,0.768-0.728v-0.04
		c0-0.464-0.32-0.728-0.768-0.728h-0.024v1.495L76.693,148.332L76.693,148.332z M78.845,143.639h2.143v0.927h-1.167v1.391h1.031
		v0.928h-1.031v1.423h1.191v0.928h-2.167V143.639z M81.485,143.639h0.976v4.669h1.031v0.928h-2.007V143.639z M83.589,146.581v-0.288
		c0-1.847,0.6-2.734,1.487-2.734s1.486,0.887,1.486,2.734v0.288c0,1.847-0.6,2.734-1.486,2.734
		C84.189,149.316,83.589,148.428,83.589,146.581z M85.572,146.581v-0.288c0-1.439-0.2-1.839-0.495-1.839
		c-0.296,0-0.496,0.399-0.496,1.839v0.288c0,1.439,0.2,1.839,0.496,1.839C85.372,148.42,85.572,148.02,85.572,146.581z
		 M86.702,143.639h0.999l0.407,3.43l0.488-3.43h0.903l0.479,3.43l0.416-3.43h0.976l-0.848,5.613h-1.023l-0.464-3.318l-0.464,3.318
		h-1.023L86.702,143.639z"/>
</g>
<g id="EPIC_DECK_18_TOP">
	<path class="st6" d="M-0.015,296.349l0.2,1.83c0,0,11.463,14.705,26.047,22.955s26.334,11.417,26.334,11.417l-0.917,4.833
		l-1.75,0.417l-2.044,2.198l-1.456,1.802l-0.833,2.667l1.833,0.583l0.417,2.667l1.666,2.333l3,1.417h3.25l2.5-1.417l1.667-2.417
		l1.667,0.167l0.833-2.833l-0.833-3l-1.167-2.167l-1.667-1.5l0.917-3.75c0,0,11.666,1.25,16.666,1.333s16.182-1.487,16.182-1.487
		l0.568,3.904l-1.917,1.5l-1,2.583l-0.416,2.583l0.333,3.167l1.917-0.667l1.416,2.167l2.417,1.583l3.333,0.667l2.917-1.667
		l2.25-2.083l0.25-2.917l1.75-0.333l-0.417-2.833l-1.75-2.833l-2-1.583l-1.916-0.75l-0.667-3.583c0,0,20.333-6.499,33.083-15.583
		c12.75-9.083,18.335-17.916,18.335-17.916l-0.001-5.25L150.564,7.8c0,0-0.333-1.584-2.5-2.667s-5.749-2.083-10.333-2.5
		S84.897,0.55,84.897,0.55L75.44,0.551L60.064,0.716L13.397,2.633c0,0-7.166,0.917-9.666,2.084S0.397,6.633,0.064,7.633
		s-0.167,3.583-0.167,3.583L-0.015,296.349z"/>
	<g id="gDeck18Locations">
		<rect id="_x31_8Aft" x="0.06" y="517.186" class="st7" width="151.046" height="230.117"/>
		<rect id="_x31_8Middle" x="0.06" y="218.237" class="st7" width="151.046" height="298.95"/>
		<rect id="_x31_8Forward" x="0.06" y="0.003" class="st7" width="151.046" height="218.234"/>
	</g>
</g>
</svg>
