<?xml version="1.0" encoding="utf-8"?>
<!-- Generator: Adobe Illustrator 23.0.2, SVG Export Plug-In . SVG Version: 6.00 Build 0)  -->
<svg version="1.1" id="EPIC_DECK_19" xmlns="http://www.w3.org/2000/svg" xmlns:xlink="http://www.w3.org/1999/xlink" x="0px"
	 y="0px" width="146.302px" height="711.786px" viewBox="0 0 146.302 711.786" style="enable-background:new 0 0 146.302 711.786;"
	 xml:space="preserve">
<style type="text/css">
	.st0{fill:#FFFFFF;}
	.st1{fill:none;stroke:#D5DCE0;stroke-width:0.5;}
	.st2{fill:none;stroke:#D5DCE0;stroke-width:0.25;}
	.st3{fill:#6E8496;}
	.st4{fill:none;stroke:#076FA0;stroke-miterlimit:10;}
	.st5{fill:none;}
</style>
<g id="EPIC_DECK_19_BOTTOM">
	<path class="st0" d="M44.5,637.607l20.215,0.017v21.983l24.57,0.199l-0.1-22.382l19.896-0.1c0,0,4.476,22.382,6.664,36.309
		s4.179,37.801,4.179,37.801l-15.519-0.1c0,0-7.361-0.597-10.843-4.477c-3.481-3.88-4.277-7.361-4.277-9.351
		c0-1.989,0.1-5.173,0.1-5.173l-24.67,0.1c0,0,0.697,8.952-3.083,12.832c-3.78,3.88-8.256,5.869-12.235,5.969
		s-15.419-0.1-15.419-0.1s2.984-28.052,4.775-38.895C40.542,661.398,44.5,637.607,44.5,637.607z"/>
	<path class="st0" d="M31.583,9.524c0.167-0.5,14.5-8.667,14.5-8.667L73.25,1.024l1.167,1.5l0.666,2.167h3.667l1-2.5l1.833-1.167
		l26.167-0.167l14.667,7.834l0.5,25.333l6.333,0.167l0.333,39.983l-19.484-0.166l-0.016-13.317l-4.5-0.5l-0.5-22.334l-16.666-1
		l-0.5,10.978H65.916L65.75,37.357l-17.334-0.333v23.333h-4.833l0.167,12.834l-19.667-0.334v-38.5l7-0.333L31.583,9.524z"/>
	<path class="st0" d="M25.75,148.191l102.833,0.167v61.666l-18.333,0.667v50.833l-27,0.167l-2-0.5c0,0-1.333-2-1.833-2.5
		s-0.667-4.833-0.667-4.833l0.333-43.667l-47.333-0.333l-0.667-6.167l-29.989-0.167l0-13.041l23.822-0.125L25.75,148.191z"/>
	<line class="st1" x1="99.774" y1="261.795" x2="99.774" y2="179.434"/>
	<polyline class="st1" points="46.437,179.372 46.437,190.483 71,190.483 71,200.525 77.05,200.525 77.05,179.362 	"/>
	<line class="st1" x1="77.007" y1="179.362" x2="25.235" y2="179.362"/>
	<line class="st1" x1="77" y1="179.362" x2="128.422" y2="179.362"/>
	<rect x="69.584" y="10.232" class="st1" width="14.875" height="23.792"/>
	<line class="st1" x1="29.406" y1="203.757" x2="29.72" y2="203.757"/>
	<line class="st1" x1="24.623" y1="203.757" x2="24.623" y2="210.742"/>
	<line class="st1" x1="29.72" y1="203.757" x2="29.72" y2="211.265"/>
	<line class="st1" x1="24.656" y1="205.256" x2="29.672" y2="205.256"/>
	<line class="st1" x1="24.623" y1="203.757" x2="24.941" y2="203.757"/>
	<line class="st1" x1="24.623" y1="210.742" x2="29.72" y2="211.265"/>
	<line class="st1" x1="24.656" y1="206.12" x2="29.672" y2="206.12"/>
	<line class="st1" x1="24.656" y1="206.982" x2="29.672" y2="206.982"/>
	<line class="st1" x1="24.656" y1="207.846" x2="29.672" y2="207.846"/>
	<line class="st1" x1="24.656" y1="208.707" x2="29.672" y2="208.707"/>
	<line class="st1" x1="24.656" y1="209.571" x2="29.672" y2="209.571"/>
	<line class="st1" x1="24.656" y1="210.433" x2="29.672" y2="210.433"/>
	<line class="st1" x1="116.781" y1="252.318" x2="111.734" y2="252.318"/>
	<line class="st1" x1="111.718" y1="253.494" x2="111.718" y2="245.349"/>
	<line class="st1" x1="111.797" y1="253.494" x2="116.734" y2="253.494"/>
	<line class="st1" x1="110.25" y1="258.59" x2="116.814" y2="258.59"/>
	<line class="st1" x1="116.814" y1="252.922" x2="116.814" y2="244.594"/>
	<line class="st1" x1="111.718" y1="253.494" x2="110.208" y2="253.494"/>
	<line class="st1" x1="116.814" y1="252.922" x2="116.814" y2="258.59"/>
	<line class="st1" x1="116.814" y1="244.594" x2="111.718" y2="245.349"/>
	<line class="st1" x1="116.781" y1="251.459" x2="111.734" y2="251.459"/>
	<line class="st1" x1="116.781" y1="250.6" x2="111.734" y2="250.6"/>
	<line class="st1" x1="116.781" y1="249.742" x2="111.734" y2="249.742"/>
	<line class="st1" x1="116.781" y1="248.883" x2="111.734" y2="248.883"/>
	<line class="st1" x1="116.781" y1="248.023" x2="111.734" y2="248.023"/>
	<line class="st1" x1="116.781" y1="247.167" x2="111.734" y2="247.167"/>
	<line class="st1" x1="116.781" y1="246.308" x2="111.734" y2="246.308"/>
	<line class="st1" x1="116.781" y1="245.448" x2="111.734" y2="245.448"/>
	<line class="st2" x1="116.75" y1="224.274" x2="105" y2="231.691"/>
	<path class="st3" d="M118.968,220.362h2.039v0.927h-1.063v1.407h0.927v0.927h-0.927v2.335h-0.976V220.362z M121.447,220.362h1.007
		c1,0,1.728,0.527,1.728,1.783v0.072c0,0.728-0.288,1.191-0.655,1.472l0.751,2.271h-1.039l-0.632-1.951h-0.184v1.951h-0.976
		C121.447,225.96,121.447,220.362,121.447,220.362z M122.471,223.128c0.424,0,0.735-0.248,0.735-0.903v-0.064
		c0-0.704-0.336-0.888-0.76-0.888h-0.023v1.855H122.471z M124.632,220.362h2.143v0.927h-1.167v1.391h1.031v0.928h-1.031v1.423h1.191
		v0.928h-2.167V220.362z M127.271,220.362h2.143v0.927h-1.167v1.391h1.031v0.928h-1.031v1.423h1.191v0.928h-2.167L127.271,220.362
		L127.271,220.362z M129.791,225.767v-1.016c0.344,0.2,0.615,0.312,0.88,0.312c0.279,0,0.52-0.136,0.52-0.479v-0.016
		c0-0.256-0.08-0.448-0.544-0.976c-0.664-0.751-0.936-1.111-0.936-1.791v-0.016c0-0.896,0.584-1.463,1.359-1.463
		c0.392,0,0.624,0.056,0.863,0.176v1.016c-0.304-0.176-0.487-0.256-0.743-0.256c-0.272,0-0.504,0.176-0.504,0.479v0.016
		c0,0.264,0.08,0.36,0.544,0.896c0.768,0.887,0.936,1.231,0.936,1.871v0.016c0,0.879-0.616,1.463-1.384,1.463
		C130.398,225.999,130.071,225.903,129.791,225.767z M132.911,221.29h-0.688v-0.927h2.351v0.927h-0.688v4.669h-0.976v-4.669H132.911
		z M135.654,223.752l-1.039-3.39h1.008l0.527,2.095l0.536-2.095h0.983l-1.04,3.39v2.207h-0.976v-2.207H135.654z M137.959,220.362
		h0.976v4.669h1.031v0.928h-2.007V220.362z M140.359,220.362h2.143v0.927h-1.167v1.391h1.031v0.928h-1.031v1.423h1.191v0.928h-2.167
		L140.359,220.362L140.359,220.362z M119.64,233.767v-1.016c0.344,0.2,0.615,0.312,0.88,0.312c0.279,0,0.52-0.136,0.52-0.479v-0.016
		c0-0.256-0.08-0.448-0.544-0.976c-0.664-0.751-0.936-1.111-0.936-1.791v-0.016c0-0.896,0.584-1.463,1.359-1.463
		c0.392,0,0.624,0.056,0.863,0.176v1.016c-0.304-0.176-0.487-0.256-0.743-0.256c-0.272,0-0.504,0.176-0.504,0.479v0.016
		c0,0.264,0.08,0.36,0.544,0.896c0.768,0.887,0.936,1.231,0.936,1.871v0.016c0,0.879-0.616,1.463-1.384,1.463
		C120.247,233.999,119.919,233.903,119.64,233.767z M122.343,232.328v-3.966h0.968v4.062c0,0.504,0.176,0.704,0.424,0.704
		s0.424-0.2,0.424-0.704v-4.062h0.968v3.966c0,1.175-0.592,1.703-1.392,1.703S122.343,233.503,122.343,232.328z M125.688,228.362
		h0.911l0.983,2.83v-2.83h0.952v5.597h-0.864l-1.031-2.966v2.966h-0.951L125.688,228.362L125.688,228.362z M130.384,228.362h0.911
		c1.247,0,1.959,0.903,1.959,2.702v0.192c0,1.799-0.712,2.703-1.959,2.703h-0.911V228.362z M131.399,233.063
		c0.463,0,0.863-0.408,0.863-1.807v-0.192c0-1.399-0.4-1.807-0.863-1.807h-0.04v3.806L131.399,233.063L131.399,233.063z
		 M133.735,228.362h2.143v0.927h-1.167v1.391h1.031v0.928h-1.031v1.423h1.191v0.928h-2.167L133.735,228.362L133.735,228.362z
		 M136.198,231.256v-0.192c0-1.967,0.729-2.742,1.64-2.742c0.271,0,0.432,0.032,0.64,0.128v1.007c-0.2-0.12-0.359-0.184-0.544-0.184
		c-0.432,0-0.743,0.384-0.743,1.783v0.208c0,1.479,0.312,1.783,0.76,1.783c0.151,0,0.344-0.056,0.543-0.176v0.959
		c-0.224,0.128-0.439,0.168-0.72,0.168C136.878,233.999,136.198,233.207,136.198,231.256z M138.983,228.362h0.976v2.342l0.791-2.342
		h1.104l-0.943,2.366l0.959,3.23h-1.087l-0.607-2.119l-0.216,0.616v1.503h-0.976v-5.596H138.983z"/>
</g>
<g id="EPIC_DECK_19_TOP">
	<path class="st4" d="M79.209,3.057l-0.115,0.868l0,0c0-1.85,1.499-3.348,3.35-3.348l-0.869,0.114L80.77,1.026l-0.694,0.531
		l-0.53,0.694L79.209,3.057z M75.004,3.925c0-1.85-1.501-3.348-3.348-3.348l0,0 M74.024,1.557L73.33,1.026 M72.521,0.691
		l0.809,0.335 M75.004,3.925L74.89,3.057 M74.556,2.251l0.334,0.806 M74.556,2.251l-0.531-0.694 M79.094,3.925V4.75h-4.09V3.925
		 M72.521,0.691l-0.865-0.114h-1.713H46.065l-0.16,0.152L32.261,8.532l-0.962,0.57v24.977H24.27V73.17h19.564V60.274h3.579h0.959
		V37.053H58.93l6.882,0.002v10.78h22.395v-10.78h0.012h14.06h3.446v23.219h4.539v13.9h19.565V34.079h-7.03V9.102l-14.767-8.525
		H82.443"/>
	<path class="st4" d="M77.05,692.344h-1.86 M117.992,692.344c-1.502-14.021-5.872-41.109-8.855-54.892 M120.002,711.286l-0.64-6.601
		l-0.628-5.906l-0.676-5.872l-0.066-0.563 M120.002,711.286h-15.456 M89.323,696.063c0,8.406,6.816,15.223,15.223,15.223l0,0
		 M89.323,696.063v-3.72 M89.323,692.344H77.05 M77.05,692.344H64.775 M64.775,692.344v3.72 M49.551,711.286
		c8.408,0,15.225-6.816,15.225-15.223l0,0 M49.551,711.286H34.095 M36.103,692.344l-0.067,0.563l-0.674,5.872l-0.627,5.906
		l-0.641,6.601 M44.96,637.452c-2.983,13.782-7.353,40.87-8.857,54.892 M44.96,637.452h19.815 M89.323,637.452h19.813
		 M64.775,637.452v22.245h24.548v-22.245 M77.05,692.344h11.157 M65.891,692.344H77.05 M89.323,647.83v10.381 M89.323,637.452
		v10.378 M64.775,658.211V647.83 M64.775,647.83v-10.378 M104.546,711.286h15.456 M117.992,692.344L117.992,692.344 M64.775,637.452
		H44.96 M34.095,711.286h15.456 M109.137,637.452H89.323 M36.103,692.344L36.103,692.344"/>
	<path class="st4" d="M25.235,190.483v-42.417h103.624 M1.094,203.787h30.205v6.446h48.703 M110.264,261.814v-52.455
		 M79.094,210.232v47.418 M110.264,210.232h18.596v-63.083 M26.208,190.524l-25.114-0.041v13.304 M83.46,261.814h27.709
		 M79.087,257.349l0.087,0.871l0.253,0.836l0.413,0.772l0.555,0.677l0.678,0.554l0.771,0.414l0.837,0.254l0.871,0.087"/>
	<g id="gDeck09Locations">
		<rect id="_x30_9Aft" x="0.013" y="499.029" class="st5" width="145.981" height="212.183"/>
		<rect id="_x30_9Middle" x="0.013" y="200.079" class="st5" width="145.981" height="298.95"/>
		<rect id="_x30_9Forward" x="0.013" y="0.131" class="st5" width="145.981" height="199.948"/>
	</g>
</g>
</svg>
