<?xml version="1.0" encoding="utf-8"?>
<svg id="accessibility-white" viewBox="0 0 24 24" xmlns="http://www.w3.org/2000/svg">
  <path class="st0" d="M 9.772 2.728 C 9.772 1.494 10.774 0.5 12 0.5 C 13.226 0.5 14.228 1.494 14.228 2.72 C 14.228 3.954 13.226 4.948 12 4.948 C 10.774 4.948 9.772 3.954 9.772 2.728 Z M 21.703 6.71 C 21.734 7.323 21.26 7.851 20.647 7.882 L 14.67 8.2 L 14.67 14.03 L 16.541 21.831 C 16.712 22.56 16.269 23.29 15.54 23.461 C 14.81 23.632 14.08 23.189 13.91 22.46 L 12.225 15.38 L 11.798 15.38 L 10.114 22.46 C 9.935 23.189 9.213 23.639 8.484 23.461 C 7.754 23.282 7.312 22.56 7.482 21.831 L 9.322 14.107 L 9.322 8.2 L 3.345 7.882 C 2.732 7.843 2.266 7.323 2.297 6.71 C 2.328 6.097 2.856 5.623 3.469 5.662 L 9.33 5.98 L 14.67 5.98 L 20.531 5.662 C 21.144 5.623 21.672 6.097 21.703 6.71 Z" style="fill: rgb(255, 255, 255);"/>
</svg>