<?xml version="1.0" encoding="utf-8"?>
<svg id="add-guest" viewBox="0 0 24 24" xmlns="http://www.w3.org/2000/svg" xmlns:bx="https://boxy-svg.com">
  <path class="cls-2" d="M 23.371 18.251 C 23.739 18.889 23.279 19.688 22.542 19.688 L 19.668 19.688 L 19.668 22.561 C 19.668 22.904 19.487 23.22 19.19 23.391 C 18.552 23.758 17.753 23.299 17.753 22.561 L 17.753 19.688 L 14.88 19.688 C 14.537 19.688 14.221 19.506 14.05 19.209 C 13.683 18.571 14.142 17.773 14.88 17.773 L 17.753 17.773 L 17.753 14.899 C 17.753 14.556 17.935 14.24 18.232 14.07 C 18.87 13.702 19.668 14.162 19.668 14.899 L 19.668 17.773 L 22.542 17.773 C 22.885 17.773 23.201 17.955 23.371 18.251 Z M 13.794 22.082 C 14.161 22.72 13.702 23.519 12.964 23.519 L 1.471 23.519 C 0.977 23.521 0.563 23.147 0.513 22.657 L 0.513 22.37 C 0.496 22.115 0.496 21.858 0.513 21.604 C 0.508 16.769 3.793 12.553 8.482 11.375 C 6.421 10.346 5.174 8.185 5.314 5.885 C 5.58 1.47 10.528 -0.999 14.217 1.439 C 17.908 3.879 17.573 9.398 13.616 11.375 C 14.562 11.61 15.472 11.978 16.316 12.467 C 16.613 12.637 16.797 12.955 16.799 13.298 C 16.799 14.037 16 14.501 15.359 14.133 C 15.357 14.133 15.355 14.131 15.353 14.131 C 9.604 10.815 2.425 14.968 2.429 21.604 L 12.964 21.604 C 13.307 21.604 13.623 21.786 13.794 22.082 Z M 11.049 10.111 C 11.721 10.111 12.382 9.934 12.964 9.597 C 15.518 8.122 15.518 4.437 12.964 2.962 C 10.411 1.487 7.218 3.33 7.218 6.28 C 7.218 8.396 8.932 10.111 11.049 10.111 Z" style="fill: rgb(160, 153, 137);" bx:origin="1.747664 1.748157"/>
</svg>