<?xml version="1.0" encoding="utf-8"?>
<svg id="beverages" viewBox="0 0 24 24" xmlns="http://www.w3.org/2000/svg">
  <path d="M 19.495 7.5 L 19.495 19.944 C 19.495 20.833 18.717 23.5 17.051 23.5 L 6.939 23.5 C 5.273 23.5 4.495 20.722 4.495 19.944 L 4.495 7.5 C 4.495 6.611 5.273 3.944 6.939 3.944 L 17.162 3.944 C 18.828 3.944 19.606 6.611 19.495 7.5 Z M 9.939 13.944 C 9.495 13.389 9.051 12.611 8.717 11.833 C 7.606 9.5 8.495 7.389 9.606 5.944 L 7.051 5.944 C 6.717 6.167 6.384 7.167 6.384 7.5 L 6.384 19.944 C 6.384 20.278 6.717 21.278 7.051 21.5 L 8.828 21.5 C 12.162 17.611 11.384 16.278 9.939 13.944 Z M 12.495 18.833 C 13.606 16.833 14.606 14.389 13.162 12.611 C 11.384 10.278 10.717 8.278 11.162 6.611 C 10.273 7.5 9.384 9.167 10.273 11.056 C 10.606 11.833 11.051 12.389 11.384 13.056 C 12.495 15.056 13.273 16.611 12.495 18.833 Z M 17.606 19.944 L 17.606 7.5 C 17.606 7.167 17.162 6.167 16.939 5.944 L 13.717 5.944 C 13.384 6.056 12.939 6.5 12.828 7.167 C 12.495 8.278 13.051 9.833 14.495 11.611 C 17.051 14.833 14.384 19.167 12.606 21.5 L 17.051 21.5 C 17.384 21.278 17.599 20.278 17.599 19.944 Z M 5.384 1.5 C 5.384 0.944 5.828 0.5 6.384 0.5 L 17.828 0.5 C 18.384 0.5 18.828 0.944 18.828 1.5 C 18.828 2.056 18.384 2.5 17.828 2.5 L 6.384 2.5 C 5.828 2.5 5.384 2.056 5.384 1.5 Z" style="fill: rgb(80, 170, 207);"/>
</svg>