<?xml version="1.0" encoding="utf-8"?>
<svg id="bike" viewBox="0 0 24 24" xmlns="http://www.w3.org/2000/svg">
  <path d="M 5.19 2.038 C 5.19 1.229 5.847 0.573 6.656 0.573 C 7.465 0.573 8.122 1.229 8.122 2.038 C 8.122 2.847 7.465 3.502 6.656 3.502 C 5.847 3.502 5.19 2.847 5.19 2.038 Z M 2.826 9.082 C 2.826 8.906 2.879 8.743 2.963 8.602 C 2.973 8.494 2.991 8.385 3.029 8.279 L 4.314 4.685 C 4.559 4.004 5.314 3.646 5.995 3.889 C 6.193 3.96 6.36 4.076 6.496 4.219 C 6.567 4.243 6.634 4.281 6.692 4.334 L 8.491 5.992 L 10.521 4.635 C 10.774 4.467 11.117 4.536 11.287 4.788 C 11.457 5.041 11.388 5.385 11.136 5.554 L 8.882 7.06 C 8.876 7.067 8.87 7.078 8.861 7.085 C 8.75 7.208 8.594 7.265 8.438 7.26 C 8.25 7.269 8.062 7.184 7.95 7.017 C 7.941 7.004 7.936 6.99 7.928 6.976 L 6.694 5.84 L 5.871 8.144 L 7.634 8.144 C 7.658 8.144 7.68 8.149 7.702 8.15 C 8.025 8.12 8.347 8.297 8.48 8.611 L 10.394 13.138 C 10.558 13.527 10.374 13.979 9.986 14.142 C 9.598 14.306 9.144 14.122 8.982 13.735 L 7.412 10.02 L 4.435 10.02 C 4.314 10.035 4.192 10.038 4.068 10.02 L 3.764 10.02 C 3.248 10.02 2.826 9.597 2.826 9.082 Z M 11.932 10.249 C 11.932 11.629 13.054 12.75 14.434 12.75 C 15.816 12.75 16.939 11.629 16.939 10.249 C 16.939 8.87 15.816 7.747 14.434 7.747 C 13.054 7.747 11.932 8.87 11.932 10.249 Z M 1.852 14.811 C 1.852 16.191 2.976 17.313 4.356 17.313 C 5.734 17.313 6.859 16.191 6.859 14.811 C 6.859 13.431 5.734 12.309 4.356 12.309 C 2.976 12.309 1.852 13.431 1.852 14.811 Z M 23.5 11.174 L 23.5 23.428 L 0.504 23.428 L 0.504 20.296 L 4.223 19.62 L 4.63 18.651 C 4.541 18.658 4.447 18.664 4.356 18.664 C 2.23 18.664 0.5 16.937 0.5 14.811 C 0.5 12.685 2.23 10.957 4.356 10.957 C 6.481 10.957 8.211 12.685 8.211 14.811 C 8.211 15.425 8.064 16.002 7.806 16.519 L 9.497 16.713 L 12.003 14.684 L 13.082 14.978 L 14.598 14.701 L 14.797 14.085 C 14.679 14.095 14.556 14.103 14.434 14.103 C 12.309 14.103 10.579 12.374 10.579 10.249 C 10.579 8.124 12.309 6.395 14.434 6.395 C 16.56 6.395 18.29 8.124 18.29 10.249 C 18.29 10.599 18.238 10.935 18.151 11.256 L 19.169 10.989 L 20.274 8.555 L 22.146 7.946 Z"/>
</svg>