<?xml version="1.0" encoding="utf-8"?>
<svg id="calendar" viewBox="0 0 24 24" xmlns="http://www.w3.org/2000/svg">
  <path class="cls-1" d="M 22.449 3.264 L 17.065 3.264 L 17.065 2.069 C 17.065 1.26 16.189 0.754 15.488 1.159 C 15.163 1.347 14.963 1.694 14.963 2.069 L 14.963 3.264 L 9.053 3.264 L 9.053 2.069 C 9.053 1.26 8.177 0.754 7.476 1.159 C 7.151 1.347 6.951 1.694 6.951 2.069 L 6.951 3.264 L 1.551 3.264 C 0.971 3.264 0.5 3.735 0.5 4.315 L 0.5 19.128 C 0.5 21.263 2.235 22.992 4.37 22.983 L 19.63 22.983 C 21.765 22.992 23.5 21.263 23.5 19.128 L 23.5 4.315 C 23.5 3.735 23.029 3.264 22.449 3.264 Z M 21.398 19.192 C 21.398 20.159 20.613 20.944 19.645 20.944 L 4.37 20.944 C 3.403 20.944 2.618 20.159 2.618 19.192 L 2.618 13.267 L 21.398 13.267 Z M 2.602 5.366 L 6.935 5.366 L 6.935 6.099 C 6.935 6.908 7.811 7.414 8.512 7.009 C 8.837 6.822 9.037 6.475 9.037 6.099 L 9.037 5.366 L 14.947 5.366 L 14.947 6.099 C 14.947 6.908 15.823 7.414 16.524 7.009 C 16.849 6.822 17.049 6.475 17.049 6.099 L 17.049 5.366 L 21.398 5.366 L 21.398 11.18 L 2.602 11.18 Z" style="fill: rgb(169, 181, 191);"/>
</svg>