<?xml version="1.0" encoding="utf-8"?>
<svg id="camera" viewBox="0 0 24 24" xmlns="http://www.w3.org/2000/svg">
  <path class="cls-2" d="M 23.5 7.209 L 23.5 18.709 C 23.5 20.296 22.212 21.584 20.625 21.584 L 3.375 21.584 C 1.788 21.584 0.5 20.296 0.5 18.709 L 0.5 7.209 C 0.5 5.622 1.788 4.334 3.375 4.334 L 4.333 4.334 L 4.333 3.375 C 4.333 2.846 4.763 2.417 5.292 2.417 L 9.125 2.417 C 9.654 2.417 10.083 2.846 10.083 3.375 L 10.083 4.334 L 20.625 4.334 C 22.212 4.334 23.5 5.622 23.5 7.209 Z M 21.583 7.209 C 21.583 6.68 21.154 6.25 20.625 6.25 L 3.375 6.25 C 2.846 6.25 2.417 6.68 2.417 7.209 L 2.417 18.709 C 2.417 19.238 2.846 19.667 3.375 19.667 L 20.625 19.667 C 21.154 19.667 21.583 19.238 21.583 18.709 Z M 16.792 12.959 C 16.792 13.8 16.569 14.626 16.15 15.355 C 14.306 18.55 9.694 18.55 7.85 15.355 C 6.007 12.159 8.31 8.167 12 8.167 C 14.647 8.167 16.792 10.312 16.792 12.959 Z M 14.875 12.959 C 14.875 12.455 14.743 11.958 14.49 11.521 C 13.384 9.605 10.616 9.605 9.51 11.521 C 8.404 13.438 9.786 15.834 12 15.834 C 13.587 15.834 14.875 14.546 14.875 12.959 Z" style="fill: rgb(160, 153, 137);"/>
</svg>