<?xml version="1.0" encoding="utf-8"?>
<svg id="cart-solid" viewBox="0 0 24 24" xmlns="http://www.w3.org/2000/svg">
  <path d="M 23.357 6.656 C 23.506 6.867 23.541 7.139 23.449 7.383 L 20.652 14.468 C 20.532 14.772 20.239 14.971 19.913 14.97 L 6.334 14.97 C 5.957 14.971 5.631 14.706 5.555 14.336 L 3.774 5.31 L 1.293 5.31 C 1.01 5.31 0.749 5.16 0.607 4.914 C 0.302 4.387 0.683 3.726 1.293 3.726 L 4.433 3.726 C 4.81 3.725 5.137 3.991 5.211 4.36 L 5.542 6.299 L 22.697 6.299 C 22.962 6.302 23.208 6.435 23.357 6.656 Z M 8.287 18.36 C 8.287 19.417 7.43 20.274 6.373 20.274 C 5.316 20.274 4.459 19.417 4.459 18.36 C 4.459 17.303 5.316 16.446 6.373 16.446 C 7.43 16.446 8.287 17.303 8.287 18.36 Z M 21.023 18.36 C 21.023 19.417 20.166 20.274 19.109 20.274 C 18.052 20.274 17.195 19.417 17.195 18.36 C 17.195 17.303 18.052 16.446 19.109 16.446 C 20.166 16.446 21.023 17.303 21.023 18.36 Z"/>
</svg>