<?xml version="1.0" encoding="utf-8"?>
<svg id="cart" viewBox="0 0 24 24" xmlns="http://www.w3.org/2000/svg">
  <path d="M 22.571 4.647 L 22.571 4.651 C 22.62 4.656 22.668 4.665 22.717 4.677 C 23.273 4.817 23.608 5.383 23.468 5.937 L 23.279 6.675 L 21.027 15.48 C 20.866 15.885 20.464 16.152 20.016 16.152 L 6.791 16.152 C 6.272 16.152 5.827 15.798 5.728 15.305 L 3.301 3.317 L 1.589 3.317 C 0.989 3.317 0.5 2.848 0.5 2.27 C 0.5 1.689 0.989 1.222 1.589 1.222 L 4.193 1.222 C 4.711 1.222 5.156 1.577 5.256 2.069 L 5.779 4.647 L 22.4 4.647 C 22.441 4.645 22.482 4.645 22.523 4.647 Z M 7.058 18.131 C 8.384 18.131 9.461 19.172 9.461 20.453 C 9.461 21.734 8.384 22.777 7.058 22.777 C 5.734 22.777 4.656 21.734 4.656 20.453 C 4.656 19.172 5.734 18.131 7.058 18.131 Z M 18.721 18.131 C 20.045 18.131 21.124 19.172 21.124 20.453 C 21.124 21.734 20.045 22.777 18.721 22.777 C 17.394 22.777 16.318 21.734 16.318 20.453 C 16.318 19.172 17.394 18.131 18.721 18.131 Z M 7.683 14.055 L 19.27 14.055 L 19.525 13.05 L 19.652 12.544 L 19.906 11.549 L 21.118 6.762 L 6.208 6.762 Z" style=""/>
</svg>