<?xml version="1.0" encoding="utf-8"?>
<svg id="check-user" viewBox="0 0 24 24" xmlns="http://www.w3.org/2000/svg">
  <path d="M 11.041 10.083 C 13.156 10.083 14.875 8.364 14.875 6.25 C 14.875 4.136 13.156 2.416 11.041 2.416 C 8.927 2.416 7.208 4.136 7.208 6.25 C 7.208 8.364 8.927 10.083 11.041 10.083 Z M 12.958 21.583 C 13.487 21.583 13.916 22.012 13.916 22.541 C 13.916 23.07 13.487 23.5 12.958 23.5 L 1.554 23.5 C 1.062 23.5 0.649 23.127 0.602 22.636 L 0.565 22.348 C 0.53 22.097 0.5 21.846 0.5 21.583 C 0.5 16.656 3.901 12.52 8.479 11.368 C 6.598 10.424 5.291 8.495 5.291 6.25 C 5.291 3.079 7.871 0.5 11.041 0.5 C 14.211 0.5 16.791 3.079 16.791 6.25 C 16.791 8.495 15.487 10.42 13.608 11.367 C 14.553 11.605 15.467 11.961 16.312 12.452 C 16.771 12.719 16.928 13.303 16.663 13.762 C 16.396 14.222 15.809 14.379 15.354 14.112 C 14.049 13.357 12.558 12.958 11.041 12.958 C 6.287 12.958 2.416 16.828 2.416 21.583 Z M 23.5 15.45 L 17.603 21.583 L 13.916 17.75 L 15.39 16.216 L 17.603 18.516 L 22.026 13.916 Z"/>
</svg>