<?xml version="1.0" encoding="utf-8"?>
<svg id="circle-exclamation-red" viewBox="0 0 24 24" xmlns="http://www.w3.org/2000/svg">
  <circle style="fill: rgb(255, 231, 235);" cx="12" cy="12" r="10.415"/>
  <path d="M 12 0.5 C 18.351 0.5 23.5 5.649 23.5 12 C 23.5 18.351 18.351 23.5 12 23.5 C 5.649 23.5 0.5 18.351 0.5 12 C 0.5 5.649 5.649 0.5 12 0.5 Z M 12 2.471 C 6.738 2.471 2.471 6.738 2.471 12 C 2.471 17.262 6.738 21.529 12 21.529 C 17.262 21.529 21.529 17.262 21.529 12 C 21.529 6.738 17.262 2.471 12 2.471 Z" style="fill: rgb(255, 193, 193);"/>
  <path d="M 10.33 5.5 L 13.487 5.5 L 13.487 14.006 L 10.33 14.006 L 10.33 5.5 Z M 10.015 16.584 C 10.013 16.329 10.064 16.078 10.164 15.844 C 10.266 15.613 10.411 15.404 10.593 15.23 C 10.776 15.056 10.994 14.919 11.229 14.826 C 11.723 14.63 12.272 14.63 12.766 14.826 C 13.002 14.919 13.219 15.056 13.402 15.23 C 13.585 15.404 13.729 15.613 13.83 15.844 C 14.036 16.32 14.036 16.858 13.83 17.335 C 13.729 17.567 13.585 17.775 13.402 17.947 C 13.219 18.124 13.002 18.261 12.766 18.353 C 12.272 18.549 11.723 18.549 11.229 18.353 C 10.994 18.261 10.776 18.124 10.593 17.947 C 10.411 17.775 10.266 17.567 10.164 17.335 C 10.063 17.098 10.012 16.842 10.015 16.584 Z" style="fill: rgb(215, 86, 86);"/>
</svg>