<?xml version="1.0" encoding="utf-8"?>
<svg id="circle-exclamation" viewBox="0 0 24 24" xmlns="http://www.w3.org/2000/svg">
  <path d="M 10.202 5 L 13.602 5 L 13.602 14.16 L 10.202 14.16 Z M 9.863 16.937 C 9.861 16.662 9.916 16.392 10.024 16.14 C 10.133 15.891 10.29 15.666 10.486 15.479 C 10.683 15.291 10.917 15.144 11.17 15.044 C 11.702 14.832 12.294 14.832 12.826 15.044 C 13.08 15.144 13.314 15.291 13.511 15.479 C 13.708 15.666 13.863 15.891 13.972 16.14 C 14.193 16.653 14.193 17.232 13.972 17.746 C 13.863 17.995 13.708 18.219 13.511 18.405 C 13.314 18.595 13.08 18.743 12.826 18.842 C 12.294 19.053 11.702 19.053 11.17 18.842 C 10.917 18.743 10.683 18.595 10.486 18.405 C 10.29 18.219 10.133 17.995 10.024 17.746 C 9.915 17.49 9.86 17.215 9.863 16.937 Z M 12 0.5 C 18.351 0.5 23.5 5.649 23.5 12 C 23.5 18.351 18.351 23.5 12 23.5 C 5.649 23.5 0.5 18.351 0.5 12 C 0.5 5.649 5.649 0.5 12 0.5 Z M 12 2.471 C 6.738 2.471 2.471 6.738 2.471 12 C 2.471 17.262 6.738 21.529 12 21.529 C 17.262 21.529 21.529 17.262 21.529 12 C 21.529 6.738 17.262 2.471 12 2.471 Z"/>
</svg>