<?xml version="1.0" encoding="utf-8"?>
<svg id="circle-check" viewBox="0 0 24 24" xmlns="http://www.w3.org/2000/svg">
  <path d="M 12 0.5 C 18.351 0.5 23.5 5.649 23.5 12 C 23.5 18.351 18.351 23.5 12 23.5 C 5.649 23.5 0.5 18.351 0.5 12 C 0.5 5.649 5.649 0.5 12 0.5 Z M 12 2.471 C 6.738 2.471 2.471 6.738 2.471 12 C 2.471 17.262 6.738 21.529 12 21.529 C 17.262 21.529 21.529 17.262 21.529 12 C 21.529 6.738 17.262 2.471 12 2.471 Z M 5.691 12.581 L 7.138 11.15 L 10.302 14.17 L 16.495 8.115 L 17.964 9.525 C 15.788 11.614 12.333 15.04 10.302 16.989 Z"/>
</svg>