<?xml version="1.0" encoding="utf-8"?>
<svg id="clock" viewBox="0 0 24 24" xmlns="http://www.w3.org/2000/svg">
  <path d="M 12 23.5 C 5.718 23.5 0.5 18.282 0.5 12 C 0.5 5.718 5.718 0.5 12 0.5 C 18.282 0.5 23.5 5.718 23.5 12 C 23.5 18.282 18.282 23.5 12 23.5 Z M 12 1.273 C 6.105 1.273 1.273 6.105 1.273 12 C 1.273 17.895 6.105 22.727 12 22.727 C 17.895 22.727 22.727 17.895 22.727 12 C 22.727 6.105 17.895 1.273 12 1.273 Z M 12 21.664 C 11.806 21.664 11.614 21.47 11.614 21.278 L 11.614 20.311 C 11.614 20.118 11.806 19.924 12 19.924 C 12.194 19.924 12.386 20.118 12.386 20.311 L 12.386 21.278 C 12.386 21.47 12.194 21.664 12 21.664 Z M 12 4.076 C 11.806 4.076 11.614 3.882 11.614 3.689 L 11.614 2.722 C 11.614 2.53 11.806 2.336 12 2.336 C 12.194 2.336 12.386 2.53 12.386 2.722 L 12.386 3.689 C 12.386 3.882 12.194 4.076 12 4.076 Z M 3.689 12.386 L 2.722 12.386 C 2.53 12.386 2.336 12.194 2.336 12 C 2.336 11.806 2.53 11.614 2.722 11.614 L 3.689 11.614 C 3.882 11.614 4.076 11.806 4.076 12 C 4.076 12.194 3.882 12.386 3.689 12.386 Z M 21.278 12.386 L 20.311 12.386 C 20.118 12.386 19.924 12.194 19.924 12 C 19.924 11.806 20.118 11.614 20.311 11.614 L 21.278 11.614 C 21.47 11.614 21.664 11.806 21.664 12 C 21.664 12.194 21.47 12.386 21.278 12.386 Z M 5.08 18.823 C 4.943 18.687 4.943 18.414 5.08 18.278 L 5.763 17.595 C 5.899 17.457 6.172 17.457 6.309 17.595 C 6.446 17.731 6.446 18.004 6.309 18.14 L 5.626 18.823 C 5.489 18.961 5.216 18.961 5.08 18.823 Z M 17.516 6.387 C 17.379 6.251 17.379 5.978 17.516 5.841 L 18.199 5.158 C 18.336 5.02 18.609 5.02 18.746 5.158 C 18.883 5.295 18.883 5.568 18.746 5.704 L 18.062 6.387 C 17.926 6.524 17.652 6.524 17.516 6.387 Z M 18.819 18.837 C 18.682 18.975 18.409 18.975 18.273 18.837 L 17.59 18.154 C 17.452 18.017 17.452 17.744 17.59 17.608 C 17.726 17.471 17.999 17.471 18.135 17.608 L 18.819 18.291 C 18.956 18.428 18.956 18.701 18.819 18.837 Z M 6.381 6.4 C 6.245 6.538 5.972 6.538 5.835 6.4 L 5.152 5.717 C 5.015 5.581 5.015 5.308 5.152 5.172 C 5.289 5.034 5.562 5.034 5.698 5.172 L 6.381 5.855 C 6.518 5.991 6.518 6.264 6.381 6.4 Z"/>
</svg>