<?xml version="1.0" encoding="utf-8"?>
<svg id="cocktail-solid" viewBox="0 0 24 24" xmlns="http://www.w3.org/2000/svg">
  <path d="M 15.347 4.615 C 15.414 4.622 15.487 4.628 15.56 4.622 C 15.847 4.602 16.067 4.488 16.241 4.295 C 16.334 4.195 16.467 3.995 16.507 3.868 C 16.594 3.588 16.561 3.395 16.461 3.235 C 16.381 3.101 16.254 2.995 16.127 2.941 C 16.027 2.895 15.934 2.875 15.834 2.848 L 16.614 1.301 C 16.614 1.301 16.994 0.534 16.927 0.501 C 16.854 0.467 16.447 1.214 16.447 1.214 L 15.66 2.768 C 15.5 2.695 15.4 2.588 15.22 2.568 C 14.907 2.535 14.634 2.768 14.493 3.048 C 14.347 3.335 14.333 3.615 14.36 3.795 C 14.38 3.908 14.413 4.062 14.654 4.288 C 14.674 4.308 14.707 4.335 14.747 4.355 C 14.12 4.182 13.453 4.215 12.846 4.375 C 12.66 4.422 12.526 4.522 12.393 4.622 L 12.206 4.749 C 11.593 5.102 11.386 5.442 11.313 5.675 C 11.253 5.862 11.186 6.062 11.119 6.296 L 11.406 6.376 L 9.266 6.376 L 8.392 3.855 C 8.385 3.848 8.379 3.842 8.372 3.848 L 8.032 3.968 C 8.025 3.968 8.019 3.982 8.025 3.988 L 8.852 6.382 L 8.445 6.382 L 8.419 6.396 C 8.399 6.402 8.225 6.469 8.159 6.649 C 8.125 6.736 8.112 6.876 8.219 7.062 C 8.392 7.356 8.919 8.783 8.839 9.823 C 8.799 10.317 8.625 11.357 8.459 12.364 C 8.259 13.591 8.065 14.751 8.065 15.158 L 8.065 15.271 C 8.059 16.071 8.052 17.732 9.152 18.879 C 9.572 19.312 9.939 19.552 10.252 19.692 C 10.259 19.705 10.259 19.719 10.266 19.732 C 10.139 19.779 10.039 19.852 10.039 19.952 C 10.039 20.079 10.199 20.172 10.399 20.206 C 10.432 20.352 10.459 20.526 10.486 20.719 C 10.272 20.872 10.132 21.092 10.132 21.346 C 10.132 21.619 10.299 21.846 10.539 22.006 C 10.539 22.099 10.539 22.186 10.533 22.286 C 9.986 22.379 9.519 22.573 9.119 22.72 C 7.899 22.793 7.065 22.926 7.065 23.08 C 7.065 23.313 8.892 23.5 11.153 23.5 C 13.407 23.5 15.24 23.313 15.24 23.08 C 15.24 22.926 14.393 22.786 13.153 22.72 C 12.76 22.58 12.3 22.393 11.773 22.299 C 11.766 22.193 11.766 22.106 11.766 22.006 C 12.006 21.853 12.173 21.619 12.173 21.346 C 12.173 21.092 12.033 20.872 11.819 20.719 C 11.846 20.526 11.873 20.352 11.906 20.206 C 12.106 20.179 12.266 20.086 12.266 19.952 C 12.266 19.852 12.166 19.786 12.04 19.732 C 12.046 19.719 12.053 19.705 12.053 19.692 C 12.366 19.552 12.733 19.312 13.153 18.879 C 14.253 17.738 14.247 16.071 14.24 15.271 L 14.24 15.158 C 14.24 14.751 14.047 13.591 13.847 12.364 C 13.68 11.357 13.507 10.317 13.467 9.823 C 13.387 8.83 13.867 7.489 14.06 7.116 L 14.06 7.116 L 14.06 7.116 L 14.46 7.229 C 14.46 7.229 14.453 7.222 14.453 7.222 L 14.774 7.309 L 16.281 7.729 L 16.281 7.729 L 16.781 7.869 C 16.914 7.443 16.927 6.996 16.781 6.536 C 16.427 5.542 15.927 4.955 15.347 4.615 Z"/>
</svg>