<?xml version="1.0" encoding="utf-8"?>
<svg id="dining" viewBox="0 0 24 24" xmlns="http://www.w3.org/2000/svg">
  <path d="M 21.528 23.5 L 16.82 23.5 C 16.38 23.5 16.052 23.172 16.052 22.734 C 16.052 22.296 16.38 21.966 16.82 21.966 L 18.352 21.966 L 18.352 17.696 L 3.128 17.696 C 2.69 17.696 2.362 17.366 2.362 16.928 C 2.362 12.986 5.428 8.714 9.042 7.51 C 8.934 7.072 8.824 6.852 8.824 6.634 C 8.824 5.32 9.92 4.334 11.124 4.334 C 12.328 4.334 13.424 5.32 13.424 6.634 C 13.424 6.852 13.424 7.18 13.314 7.4 C 14.19 7.62 15.066 8.166 15.942 8.934 C 15.834 6.634 15.834 3.896 15.834 1.266 C 15.834 0.828 16.162 0.5 16.6 0.5 L 21.638 0.5 C 22.076 0.5 22.404 0.828 22.404 1.266 C 22.404 9.92 22.186 15.724 19.886 16.82 L 19.886 21.858 L 21.42 21.858 C 21.858 21.858 22.186 22.186 22.186 22.624 C 22.186 23.062 21.966 23.5 21.528 23.5 Z M 16.71 22.952 L 16.71 22.952 C 16.71 22.952 16.71 22.952 16.71 22.952 Z M 4.004 16.052 L 17.366 16.052 C 16.82 15.176 16.38 13.642 16.162 11.452 C 14.958 10.028 13.534 9.042 12.11 8.714 C 11.452 9.042 10.796 9.042 10.248 8.714 C 7.51 9.262 4.442 12.328 4.004 16.052 Z M 17.476 6.304 C 17.696 13.862 18.462 15.504 19.12 15.504 C 19.776 15.504 20.652 13.862 20.762 6.304 L 17.476 6.304 Z M 11.124 5.976 C 10.796 5.976 10.466 6.304 10.466 6.634 C 10.466 6.962 10.796 7.29 11.124 7.29 C 11.452 7.29 11.78 6.962 11.78 6.634 C 11.78 6.304 11.452 5.976 11.124 5.976 Z M 17.366 2.142 C 17.366 2.91 17.366 3.786 17.366 4.662 L 20.762 4.662 C 20.762 3.786 20.762 2.91 20.762 2.142 L 17.366 2.142 Z M 22.734 20.542 L 20.872 20.542 C 20.434 20.542 20.104 20.214 20.104 19.776 C 20.104 19.338 20.434 19.01 20.872 19.01 L 22.734 19.01 C 23.172 19.01 23.5 19.338 23.5 19.776 C 23.5 20.214 23.172 20.542 22.734 20.542 Z M 17.366 20.542 L 1.266 20.542 C 0.828 20.542 0.5 20.214 0.5 19.776 C 0.5 19.338 0.828 19.01 1.266 19.01 L 17.366 19.01 C 17.804 19.01 18.134 19.338 18.134 19.776 C 18.134 20.214 17.804 20.542 17.366 20.542 Z"/>
</svg>