<?xml version="1.0" encoding="utf-8"?>
<svg id="email-back" viewBox="0 0 24 24" xmlns="http://www.w3.org/2000/svg">
  <path d="M 17.864 19.236 C 17.864 19.635 17.54 19.959 17.141 19.959 L 2.671 19.959 C 1.474 19.959 0.5 18.985 0.5 17.789 L 0.5 6.213 C 0.5 5.016 1.474 4.042 2.671 4.042 L 17.141 4.042 C 17.54 4.042 17.864 4.366 17.864 4.766 C 17.864 5.165 17.54 5.489 17.141 5.489 L 2.834 5.489 L 10.362 11.617 C 10.673 11.87 10.72 12.326 10.467 12.634 C 10.324 12.811 10.116 12.902 9.906 12.902 C 9.745 12.902 9.583 12.849 9.45 12.74 L 1.947 6.632 L 1.947 17.789 C 1.947 18.188 2.273 18.512 2.671 18.512 L 17.141 18.512 C 17.54 18.512 17.864 18.836 17.864 19.236 Z M 23.5 15.871 C 23.5 16.479 23.411 17.058 23.23 17.606 C 23.195 17.709 23.053 17.715 23.002 17.619 C 21.949 15.656 19.899 14.529 17.628 14.39 C 17.556 14.385 17.494 14.443 17.494 14.516 L 17.494 16.628 C 17.494 16.761 17.336 16.832 17.236 16.742 L 12.363 12.307 C 12.309 12.258 12.309 12.174 12.363 12.125 L 17.236 7.665 C 17.336 7.576 17.494 7.645 17.494 7.78 L 17.494 9.963 C 17.494 10.03 17.547 10.083 17.612 10.083 C 20.768 10.146 23.5 12.705 23.5 15.871 Z"/>
</svg>