<?xml version="1.0" encoding="utf-8"?>
<svg id="exclamation" viewBox="0 0 24 24" xmlns="http://www.w3.org/2000/svg">
  <path d="M 9.045 0.495 L 14.633 0.495 L 14.633 15.55 L 9.045 15.55 Z M 8.488 20.112 C 8.485 19.662 8.576 19.217 8.754 18.802 C 8.932 18.394 9.189 18.025 9.511 17.717 C 9.836 17.408 10.219 17.165 10.636 17.002 C 11.51 16.654 12.484 16.654 13.358 17.002 C 13.776 17.165 14.159 17.408 14.484 17.717 C 14.807 18.025 15.063 18.394 15.241 18.802 C 15.603 19.646 15.603 20.6 15.241 21.443 C 15.063 21.851 14.807 22.22 14.484 22.526 C 14.159 22.838 13.776 23.08 13.358 23.244 C 12.484 23.591 11.51 23.591 10.636 23.244 C 10.219 23.08 9.836 22.838 9.511 22.526 C 9.189 22.22 8.932 21.851 8.754 21.443 C 8.573 21.022 8.484 20.57 8.488 20.112 Z" />
</svg>