<?xml version="1.0" encoding="utf-8"?>
<svg id="pinterest" viewBox="0 0 24 24" xmlns="http://www.w3.org/2000/svg">
  <g id="Specs" stroke="none" stroke-width="1" fill="none" fill-rule="evenodd" transform="matrix(1.277778, 0, 0, 1.277778, 0.499998, 0.499998)">
    <g id="Multiple-Itineraries-ordered-port-defualt-—-Large-Copy-29" transform="translate(-615.000000, -511.000000)">
      <g id="Group-7-Copy-2" transform="translate(585.000000, 480.000000)">
        <g id="Group-37-Copy-2" transform="translate(0.000000, 26.000000)">
          <g id="Group-13" transform="translate(30.000000, 5.000000)">
            <rect id="Rectangle-27-Copy-68" fill="#34C2B2" x="0" y="0" width="18" height="18" rx="9"/>
            <g id="DLS/assets/icons/itinerary-Copy-62" transform="translate(3.000000, 3.000000)">
              <g id="Page-1" transform="translate(4.173913, 2.086957)">
                <mask id="mask-2" fill="white">
                  <polygon points="0 0 5.739 0 5.739 8.348 0 8.348"/>
                </mask>
                <g id="Clip-2"/>
                <path d="M5.54795708,2.69981018 L0.53863661,0.0436391697 C0.295522248,-0.0853565248 0,0.0871128568 0,0.357932547 L0,4.82503207 L0,7.87032821 C0,8.13402107 0.218366193,8.34782609 0.487684498,8.34782609 C0.757002803,8.34782609 0.975368996,8.13402107 0.975368996,7.87032821 L0.975368996,5.85129615 L5.55305229,3.3255462 C5.80344553,3.18799831 5.80053398,2.83379466 5.54795708,2.69981018" id="Fill-1" fill="#FFFFFF" mask="url(#mask-2)"/>
              </g>
            </g>
          </g>
        </g>
      </g>
    </g>
  </g>
</svg>