<?xml version="1.0" encoding="utf-8"?>
<svg id="google" viewBox="0 0 24 24" xmlns="http://www.w3.org/2000/svg">
  <path d="M 7.814 10.954 L 7.814 13.43 C 9.218 13.43 10.609 13.43 12 13.43 C 11.702 14.678 10.824 15.708 9.638 16.2 C 6.433 17.717 2.786 15.196 3.074 11.661 C 3.234 9.702 4.62 8.059 6.525 7.572 C 8.016 7.188 9.601 7.497 10.839 8.414 C 11.49 7.814 12.115 7.138 12.689 6.512 C 11.253 5.243 9.371 4.596 7.456 4.713 C 1.852 4.976 -1.366 11.206 1.664 15.928 C 2.554 17.316 3.891 18.362 5.452 18.893 C 8.246 19.877 11.358 19.046 13.289 16.8 C 14.501 15.112 15.03 13.028 14.77 10.967 C 12.472 10.941 10.136 10.954 7.814 10.954 Z"/>
  <path d="M 21.419 10.941 C 21.419 10.252 21.419 9.55 21.419 8.861 L 19.326 8.861 C 19.326 9.55 19.326 10.252 19.326 10.941 L 17.233 10.941 L 17.233 13.021 L 19.313 13.021 C 19.313 13.711 19.313 14.413 19.313 15.102 L 21.394 15.102 C 21.394 14.413 21.394 13.711 21.394 13.021 L 23.5 13.021 L 23.5 10.954 Z"/>
</svg>