<?xml version="1.0" encoding="utf-8"?>
<svg id="helicopter" viewBox="0 0 24 24" xmlns="http://www.w3.org/2000/svg">
  <path d="M 17.12 12.649 L 13.532 12.649 L 13.532 9.494 C 13.532 9.494 14.932 9.444 16.23 10.552 C 17.526 11.66 17.629 12.649 17.12 12.649 L 17.12 12.649 Z M 15.916 16.915 C 14.664 16.928 12.81 16.928 11.532 16.916 L 12.268 15.337 C 13.189 15.374 14.253 15.391 15.208 15.396 L 15.916 16.915 Z M 10.835 12.649 C 10.835 12.649 10.123 11.479 10.835 9.494 L 12.947 9.494 L 12.947 12.649 L 10.835 12.649 Z M 15.135 8.654 C 14.677 8.62 14.119 8.597 13.532 8.586 L 13.532 7.571 L 23.5 6.951 L 23.472 6.51 L 13.532 7.128 L 13.532 6.771 L 12.947 6.771 L 12.947 7.133 L 2.921 6.51 L 2.894 6.951 L 12.947 7.576 L 12.947 8.579 C 11.98 8.573 10.999 8.599 10.301 8.654 C 9.029 8.756 8.342 10.715 8.342 10.715 C 8.342 10.715 2.999 10.995 2.439 10.562 C 1.88 10.13 1.752 8.934 1.752 8.934 L 0.5 8.934 C 0.5 11.256 1.346 11.758 1.956 12.42 C 2.567 13.081 7.222 13.132 7.96 13.412 C 8.698 13.691 9.13 14.786 10.079 15.116 C 10.346 15.209 10.977 15.273 11.773 15.315 L 11.039 16.891 L 11.083 16.911 C 10.791 16.908 10.549 16.903 10.377 16.897 C 9.231 16.861 8.8 16.312 8.8 16.312 L 8.597 17 C 8.597 17 8.597 17.279 9.538 17.399 C 10.48 17.52 16.891 17.52 17.832 17.399 C 18.773 17.279 18.773 17 18.773 17 L 18.57 16.312 C 18.57 16.312 18.14 16.861 16.993 16.897 C 16.838 16.903 16.624 16.907 16.369 16.91 L 16.411 16.891 L 15.715 15.398 C 16.63 15.401 17.388 15.396 17.73 15.396 C 18.85 15.396 20.198 14.303 19.435 12.953 C 18.672 11.605 16.484 8.756 15.135 8.654 L 15.135 8.654 Z" id="Fill-1" fill="#7A8E9E" mask="url(#mask-4)" stroke="none" stroke-width="1" fill-rule="evenodd"/>
</svg>