<?xml version="1.0" encoding="utf-8"?>
<svg id="hourglass" viewBox="0 0 24 24" xmlns="http://www.w3.org/2000/svg">
  <path class="cls-1" d="M 20.914 17.97 L 20.914 21.52 C 20.873 22.651 19.926 23.535 18.794 23.499 L 5.195 23.499 C 4.059 23.535 3.109 22.644 3.075 21.507 L 3.075 20.09 C 3.011 16.974 3.19 16.706 3.356 16.438 L 6.689 11.841 L 3.483 7.295 C 3.254 6.905 3.114 6.468 3.075 6.018 L 3.075 2.493 C 3.109 1.358 4.059 0.465 5.195 0.501 L 18.82 0.501 C 19.955 0.465 20.905 1.358 20.939 2.493 L 20.939 5.979 C 20.909 6.429 20.777 6.864 20.556 7.256 L 17.326 11.853 L 20.416 16.412 C 20.687 16.892 20.855 17.422 20.914 17.97 Z M 18.781 18.059 C 18.737 17.884 18.678 17.713 18.603 17.549 L 14.772 11.841 L 18.794 6.094 C 18.785 6.036 18.785 5.976 18.794 5.916 L 18.794 2.595 L 5.195 2.595 L 5.195 5.916 C 5.214 6.002 5.239 6.088 5.271 6.171 L 9.281 11.853 L 5.207 17.459 C 5.161 18.311 5.161 19.163 5.207 20.013 L 5.207 21.405 L 18.794 21.405 Z M 12.154 11.764 L 16.687 18.404 L 16.687 19.26 L 7.314 19.26 C 7.314 18.736 7.314 18.366 7.314 18.11 L 11.873 11.828 L 8.681 7.295 L 15.308 7.295 Z"/>
</svg>