<?xml version="1.0" encoding="utf-8"?>
<svg id="level" viewBox="0 0 24 24" xmlns="http://www.w3.org/2000/svg">
  <path d="M 23.426 1.227 L 23.426 6.031 C 23.426 6.468 23.136 6.759 22.699 6.759 L 1.3 6.759 C 0.863 6.759 0.573 6.322 0.573 5.885 L 0.573 1.227 C 0.573 0.79 0.863 0.5 1.3 0.5 L 22.699 0.5 C 23.136 0.5 23.426 0.79 23.426 1.227 Z M 21.826 2.247 L 7.851 2.247 L 7.851 5.012 L 21.826 5.012 Z M 23.426 9.67 L 23.426 14.329 C 23.426 14.766 23.136 15.056 22.699 15.056 L 1.3 15.056 C 0.863 15.056 0.573 14.766 0.573 14.329 L 0.573 9.67 C 0.573 9.234 0.863 8.942 1.3 8.942 L 22.699 8.942 C 23.136 8.942 23.426 9.234 23.426 9.67 Z M 21.826 10.689 L 11.926 10.689 L 11.926 13.455 L 21.826 13.455 Z M 23.426 18.114 L 23.426 22.771 C 23.426 23.208 23.136 23.5 22.699 23.5 L 1.3 23.5 C 0.863 23.5 0.573 23.208 0.573 22.771 L 0.573 18.114 C 0.573 17.677 0.863 17.385 1.3 17.385 L 22.699 17.385 C 23.136 17.385 23.426 17.677 23.426 18.114 Z M 21.826 19.133 L 17.459 19.133 L 17.459 21.899 L 21.826 21.899 Z"/>
</svg>