<?xml version="1.0" encoding="utf-8"?>
<svg id="map" viewBox="0 0 24 24" xmlns="http://www.w3.org/2000/svg">
  <path d="M 16.196 19.139 L 15.867 6.536 L 20.576 4.919 L 21.565 17.296 L 16.196 19.139 Z M 3.472 6.481 L 8.12 4.885 L 7.794 17.19 L 2.489 19.01 L 3.472 6.481 Z M 9.208 17.204 L 9.536 4.863 L 14.452 6.551 L 14.782 19.116 L 9.208 17.204 Z M 22.354 3.557 C 22.33 3.267 22.174 3.004 21.933 2.844 C 21.688 2.686 21.388 2.646 21.113 2.741 L 15.139 4.792 L 9.165 2.741 C 9.129 2.728 9.091 2.734 9.053 2.725 C 8.989 2.713 8.928 2.7 8.863 2.7 C 8.795 2.7 8.733 2.713 8.668 2.725 C 8.631 2.734 8.595 2.728 8.557 2.741 L 2.28 4.897 C 1.925 5.02 1.676 5.34 1.647 5.715 L 0.503 20.293 C 0.478 20.609 0.615 20.917 0.864 21.113 C 1.03 21.242 1.235 21.31 1.44 21.31 C 1.542 21.31 1.646 21.294 1.744 21.26 L 8.482 18.947 L 15.216 21.26 C 15.221 21.262 15.225 21.26 15.227 21.262 C 15.322 21.292 15.42 21.31 15.52 21.31 C 15.622 21.31 15.721 21.292 15.814 21.262 C 15.817 21.26 15.821 21.262 15.825 21.26 L 22.864 18.842 C 23.272 18.702 23.531 18.306 23.497 17.874 L 22.354 3.557 Z" />
</svg>