<?xml version="1.0" encoding="utf-8"?>
<svg id="pinterest" viewBox="0 0 24 24" xmlns="http://www.w3.org/2000/svg">
  <g id="Specs" stroke="none" stroke-width="1" fill="none" fill-rule="evenodd" transform="matrix(1.277778, 0, 0, 1.277778, 0.499998, 0.499998)">
    <g id="Multiple-Itineraries-ordered-port-defualt-—-Large-Copy-29" transform="translate(-170.000000, -1341.000000)">
      <g id="Group" transform="translate(140.000000, 1284.000000)">
        <g id="Group-4-Copy-2" transform="translate(0.000000, 26.000000)">
          <g id="Group-38-Copy-4">
            <g id="Group-12" transform="translate(30.000000, 31.000000)">
              <rect id="Rectangle-27-Copy-56" fill="#0874A6" x="0" y="0" width="18" height="18" rx="9"/>
              <g id="DLS/assets/icons/itinerary-Copy-12" transform="translate(3.000000, 3.000000)">
                <rect id="Rectangle" x="0" y="0" width="12" height="12"/>
                <path d="M5.94279339,6.43300009 C5.0981553,6.43300009 4.40910843,5.74395322 4.40910843,4.89931513 C4.40910843,4.05467703 5.0981553,3.37303928 5.94279339,3.37303928 C6.78743148,3.37303928 7.47647835,4.05467703 7.47647835,4.89931513 C7.47647835,5.74395322 6.78743148,6.43300009 5.94279339,6.43300009 M5.94279339,1.56521739 C4.10533508,1.56521739 2.60869565,3.06185682 2.60869565,4.89931513 C2.60869565,8.10004896 5.54270166,10.1375531 5.66865646,10.2264624 C5.75015663,10.2857353 5.84647501,10.3153717 5.94279339,10.3153717 C6.03911177,10.3153717 6.13543015,10.2857353 6.22433942,10.2264624 C6.34288512,10.1375531 9.28430023,8.10004896 9.28430023,4.89931513 C9.28430023,3.06185682 7.7876608,1.56521739 5.94279339,1.56521739" id="Fill-1" fill="#FFFFFF" fill-rule="evenodd"/>
              </g>
            </g>
          </g>
        </g>
      </g>
    </g>
  </g>
</svg>