<?xml version="1.0" encoding="utf-8"?>
<svg id="mony" viewBox="0 0 24 24" xmlns="http://www.w3.org/2000/svg">
  <path d="M 23.5 6.25 L 23.5 17.75 C 23.5 19.868 21.785 21.584 19.667 21.584 L 4.333 21.584 C 2.215 21.584 0.5 19.868 0.5 17.75 L 0.5 6.25 C 0.5 4.132 2.215 2.417 4.333 2.417 L 19.667 2.417 C 21.785 2.417 23.5 4.132 23.5 6.25 Z M 21.583 6.25 C 21.583 5.192 20.725 4.334 19.667 4.334 L 4.333 4.334 C 3.275 4.334 2.417 5.192 2.417 6.25 L 2.417 17.75 C 2.417 18.808 3.275 19.667 4.333 19.667 L 19.667 19.667 C 20.725 19.667 21.583 18.808 21.583 17.75 Z M 11.063 9.514 C 10.645 10.235 11.166 11.138 12 11.138 C 13.56 11.117 14.844 12.359 14.875 13.917 C 14.86 15.172 14.016 16.267 12.805 16.6 L 12.805 16.869 C 12.805 17.183 12.636 17.474 12.364 17.631 C 11.776 17.971 11.042 17.547 11.042 16.869 L 11.042 16.581 C 9.897 16.196 9.127 15.124 9.125 13.917 C 9.125 13.603 9.294 13.311 9.566 13.154 C 10.154 12.815 10.888 13.238 10.888 13.917 C 10.884 14.099 10.929 14.277 11.013 14.438 C 11.4 15.169 12.433 15.205 12.872 14.505 C 13.309 13.804 12.826 12.892 12 12.863 C 10.44 12.884 9.156 11.642 9.125 10.084 C 9.14 8.828 9.984 7.734 11.195 7.4 L 11.195 7.113 C 11.195 6.798 11.364 6.507 11.636 6.35 C 12.224 6.011 12.958 6.434 12.958 7.113 L 12.958 7.419 C 14.103 7.805 14.873 8.876 14.875 10.084 C 14.875 10.398 14.706 10.689 14.434 10.846 C 13.846 11.186 13.112 10.762 13.112 10.084 C 13.123 9.465 12.619 8.96 12 8.972 C 11.613 8.972 11.256 9.179 11.063 9.514 Z"/>
</svg>