<?xml version="1.0" encoding="utf-8"?>
<svg version="1.1" id="museum" x="0px" y="0px" viewBox="0 0 24 24" style="enable-background:new 0 0 24 24;" xmlns="http://www.w3.org/2000/svg">
  <style type="text/css">
	.st0{fill-rule:evenodd;clip-rule:evenodd;fill:#7A8E9E;}
</style>
  <path class="st0" d="M 22.4 21.8 L 23 21.8 L 23 23.5 L 0.9 23.5 L 0.9 21.8 L 1.6 21.8 L 1.6 20.1 L 3.5 20.1 L 3.5 8.9 L 1.6 8.9 L 1.6 7.6 L 22.4 7.6 L 22.4 8.9 L 20.5 8.9 L 20.5 20.1 L 22.4 20.1 Z M 8.5 8.9 L 5.7 8.9 L 5.7 20.1 L 8.5 20.1 Z M 13.4 8.9 L 10.6 8.9 L 10.6 20.1 L 13.4 20.1 Z M 18.3 8.9 L 15.5 8.9 L 15.5 20.1 L 18.3 20.1 Z M 23.4 6.8 L 0.6 6.8 L 12.1 0.5 Z"/>
</svg>