<?xml version="1.0" encoding="utf-8"?>
<svg id="pinterest" viewBox="0 0 24 24" xmlns="http://www.w3.org/2000/svg">
  <circle style="fill: rgb(122, 142, 158);" cx="12" cy="12" r="11.5"/>
  <path d="M 17.327 15.939 C 16.957 16.429 16.466 16.798 15.976 17.167 C 13.027 19.008 9.099 18.149 7.257 15.325 C 5.415 12.499 6.15 8.571 9.099 6.729 C 9.836 6.36 10.572 5.991 11.308 5.868 C 9.589 7.957 9.22 10.903 10.816 13.237 C 12.29 15.447 14.869 16.429 17.327 15.939 Z M 16.345 7.71 C 16.345 7.833 16.345 7.833 16.345 7.71 L 15.73 8.693 L 15.86 9.667 L 14.869 9.431 L 14.011 10.044 L 14.011 8.937 L 13.147 8.392 L 14.256 7.833 L 14.613 6.95 L 15.361 7.71 Z" id="Fill-1" style="fill: rgb(255, 255, 255);"/>
  <g id="Group-2" transform="matrix(1, 0, 0, 1, -11.50762, -2.656111)" stroke="none" stroke-width="1" fill="none" fill-rule="evenodd"/>
</svg>