<?xml version="1.0" encoding="utf-8"?>
<svg id="pencil" viewBox="0 0 24 24" xmlns="http://www.w3.org/2000/svg">
  <path class="cls-1" d="M 19.133 3.184 C 19.065 2.977 18.918 2.806 18.722 2.707 L 14.563 0.587 C 14.159 0.385 13.667 0.546 13.462 0.949 L 4.915 17.829 C 4.851 17.962 4.823 18.11 4.833 18.256 L 5.161 22.743 C 5.181 23.031 5.351 23.286 5.606 23.418 C 5.724 23.475 5.853 23.504 5.983 23.499 C 6.136 23.496 6.284 23.45 6.411 23.369 L 10.274 20.952 C 10.401 20.873 10.504 20.758 10.57 20.623 L 19.083 3.792 C 19.177 3.603 19.195 3.387 19.133 3.184 Z M 9.271 19.703 L 6.756 21.347 L 6.542 18.454 L 11.999 7.343 C 12.075 7.44 12.17 7.518 12.279 7.573 L 14.366 8.624 C 14.474 8.678 14.591 8.705 14.711 8.707 Z M 15.5 7.392 C 15.417 7.257 15.298 7.148 15.155 7.079 L 13.067 6.027 C 12.954 6.003 12.836 6.003 12.722 6.027 L 14.547 2.445 L 17.258 3.792 Z"/>
</svg>