<?xml version="1.0" encoding="utf-8"?>
<svg id="phone-on" viewBox="0 0 24 24" xmlns="http://www.w3.org/2000/svg">
  <path d="M 14.6 22.843 C 10.734 21.236 7.349 18.655 4.775 15.353 C 3.137 13.251 1.827 10.913 0.891 8.418 C 0.525 7.55 0.412 6.596 0.567 5.667 C 0.701 4.938 1.056 4.268 1.585 3.748 L 4.336 0.95 C 4.769 0.433 5.469 0.224 6.116 0.419 C 6.44 0.561 6.703 0.816 6.856 1.135 L 9.167 5.435 C 9.351 5.727 9.484 6.047 9.56 6.383 C 9.663 7.055 9.42 7.733 8.913 8.186 L 7.988 9.065 C 7.885 9.148 7.885 9.305 7.988 9.389 C 8.41 10.295 8.913 11.162 9.491 11.978 C 10.484 13.247 11.66 14.362 12.982 15.284 C 13.421 15.584 13.86 15.838 14.323 16.116 C 14.396 16.15 14.48 16.15 14.554 16.116 C 14.729 16.029 14.892 15.92 15.039 15.792 L 15.964 14.891 C 16.457 14.404 17.184 14.242 17.837 14.474 C 18.119 14.559 18.39 14.675 18.646 14.821 L 22.391 17.133 C 22.574 17.231 22.751 17.339 22.923 17.457 C 23.499 17.856 23.67 18.632 23.316 19.237 C 23.128 19.555 22.903 19.85 22.645 20.115 C 21.836 20.971 20.981 21.757 20.333 22.635 C 19.748 23.295 18.904 23.666 18.022 23.652 C 16.837 23.622 15.672 23.347 14.6 22.843 Z"/>
</svg>