<?xml version="1.0" encoding="utf-8"?>
<svg id="plane-dual" viewBox="0 0 24 24" xmlns="http://www.w3.org/2000/svg">
  <path d="M 21.197 18.261 C 20.519 18.358 19.721 18.337 18.616 18.309 C 18.426 18.303 18.227 18.299 18.015 18.294 L 17.284 19.648 L 17.289 19.649 C 17.375 19.648 17.46 19.684 17.522 19.746 C 17.585 19.808 17.619 19.894 17.619 19.981 L 17.618 20.359 C 17.618 20.446 17.585 20.529 17.523 20.592 C 17.461 20.652 17.376 20.688 17.289 20.689 L 16.724 20.689 L 16.62 20.882 C 16.691 20.89 16.758 20.923 16.813 20.976 C 16.874 21.038 16.909 21.122 16.91 21.21 L 16.909 21.589 C 16.909 21.676 16.874 21.759 16.813 21.822 C 16.751 21.883 16.666 21.92 16.579 21.919 L 16.061 21.919 L 15.316 23.298 C 15.3 23.326 15.279 23.355 15.253 23.381 C 15.176 23.455 15.081 23.497 14.98 23.5 L 14.229 23.498 C 14.145 23.5 14.066 23.468 14.008 23.41 C 13.927 23.329 13.899 23.211 13.932 23.102 L 14.916 19.63 C 14.923 19.61 14.93 19.555 14.93 19.534 L 14.93 18.261 C 13.71 18.23 12.572 18.154 11.629 18.038 C 11.54 18.026 11.456 18.016 11.373 18.003 L 9.797 19.894 C 9.793 19.897 9.785 19.905 9.775 19.915 C 9.695 19.995 9.585 20.04 9.478 20.044 L 9.12 20.044 C 9.038 20.044 8.959 20.013 8.902 19.956 L 8.901 19.955 C 8.818 19.872 8.792 19.746 8.834 19.633 L 9.471 17.846 C 9.477 17.832 9.484 17.785 9.484 17.769 L 9.484 17.564 C 9.365 17.507 9.272 17.446 9.205 17.381 C 9.114 17.29 9.067 17.187 9.066 17.075 L 9.065 17.072 L 9.065 17.064 C 9.065 16.952 9.113 16.846 9.204 16.755 C 9.272 16.689 9.366 16.627 9.485 16.571 L 9.484 16.369 C 9.484 16.352 9.478 16.305 9.472 16.29 L 8.834 14.499 C 8.792 14.39 8.818 14.261 8.903 14.179 C 8.958 14.122 9.039 14.091 9.124 14.091 L 9.472 14.091 C 9.586 14.094 9.694 14.139 9.775 14.216 C 9.787 14.228 9.796 14.24 9.803 14.249 L 11.373 16.131 C 11.456 16.12 11.541 16.108 11.629 16.098 C 12.57 15.983 13.709 15.906 14.931 15.875 L 14.931 14.602 C 14.931 14.579 14.922 14.523 14.919 14.507 L 13.933 11.029 C 13.9 10.921 13.93 10.803 14.01 10.723 C 14.065 10.669 14.146 10.636 14.229 10.636 L 14.977 10.636 C 15.078 10.636 15.176 10.677 15.252 10.753 C 15.28 10.779 15.3 10.808 15.318 10.84 L 16.061 12.218 L 16.579 12.218 C 16.666 12.217 16.749 12.25 16.812 12.313 C 16.874 12.376 16.91 12.462 16.91 12.548 L 16.909 12.926 C 16.91 13.015 16.874 13.098 16.813 13.161 C 16.761 13.211 16.693 13.245 16.62 13.253 L 16.723 13.447 L 17.289 13.447 C 17.377 13.446 17.46 13.481 17.523 13.544 C 17.585 13.606 17.62 13.691 17.62 13.778 L 17.619 14.156 C 17.619 14.242 17.585 14.329 17.521 14.389 C 17.462 14.449 17.378 14.485 17.29 14.485 L 17.285 14.486 L 18.015 15.841 C 18.223 15.837 18.421 15.831 18.61 15.828 C 19.716 15.799 20.516 15.777 21.197 15.875 C 22.04 15.996 22.754 16.282 23.111 16.637 C 23.227 16.752 23.296 16.866 23.319 16.984 C 23.32 16.991 23.329 17.022 23.33 17.067 C 23.331 17.109 23.322 17.144 23.318 17.156 C 23.295 17.268 23.227 17.382 23.112 17.498 C 22.754 17.853 22.04 18.138 21.197 18.261 Z M 13.053 8.125 C 12.375 8.222 11.578 8.201 10.473 8.173 C 10.283 8.167 10.084 8.163 9.872 8.158 L 9.141 9.512 L 9.145 9.514 C 9.231 9.512 9.317 9.548 9.378 9.61 C 9.442 9.672 9.476 9.759 9.476 9.846 L 9.475 10.224 C 9.475 10.311 9.442 10.394 9.379 10.456 C 9.317 10.517 9.233 10.553 9.145 10.553 L 8.581 10.553 L 8.476 10.746 C 8.547 10.754 8.615 10.787 8.669 10.84 C 8.731 10.902 8.766 10.987 8.767 11.074 L 8.766 11.453 C 8.766 11.541 8.731 11.624 8.669 11.686 C 8.607 11.748 8.522 11.784 8.435 11.783 L 7.918 11.783 L 7.173 13.163 C 7.157 13.191 7.136 13.22 7.11 13.246 C 7.033 13.319 6.938 13.361 6.837 13.364 L 6.085 13.363 C 6.001 13.364 5.923 13.332 5.865 13.275 C 5.784 13.193 5.755 13.075 5.789 12.966 L 6.773 9.495 C 6.779 9.475 6.787 9.419 6.787 9.399 L 6.787 8.125 C 5.566 8.094 4.428 8.018 3.485 7.902 C 3.397 7.89 3.312 7.88 3.23 7.867 L 1.653 9.758 C 1.649 9.762 1.642 9.769 1.632 9.779 C 1.551 9.859 1.441 9.904 1.335 9.908 L 0.977 9.909 C 0.895 9.909 0.816 9.877 0.759 9.82 L 0.757 9.819 C 0.674 9.736 0.648 9.61 0.691 9.498 L 1.328 7.71 C 1.334 7.696 1.34 7.65 1.34 7.634 L 1.34 7.429 C 1.221 7.371 1.129 7.311 1.061 7.245 C 0.971 7.154 0.923 7.051 0.923 6.939 L 0.922 6.936 L 0.921 6.929 C 0.922 6.817 0.97 6.71 1.061 6.62 C 1.128 6.554 1.223 6.492 1.342 6.436 L 1.34 6.234 C 1.341 6.216 1.335 6.17 1.329 6.155 L 0.691 4.364 C 0.648 4.254 0.674 4.125 0.76 4.043 C 0.815 3.987 0.895 3.955 0.981 3.956 L 1.329 3.956 C 1.442 3.958 1.55 4.004 1.632 4.08 C 1.644 4.093 1.652 4.104 1.659 4.113 L 3.229 5.996 C 3.313 5.984 3.398 5.973 3.485 5.963 C 4.427 5.847 5.566 5.77 6.788 5.739 L 6.788 4.466 C 6.788 4.444 6.778 4.387 6.775 4.371 L 5.79 0.893 C 5.756 0.785 5.787 0.667 5.867 0.588 C 5.921 0.534 6.002 0.5 6.086 0.5 L 6.833 0.5 C 6.935 0.501 7.033 0.542 7.109 0.617 C 7.136 0.644 7.157 0.673 7.175 0.704 L 7.918 2.082 L 8.436 2.082 C 8.523 2.081 8.605 2.114 8.668 2.178 C 8.731 2.241 8.767 2.326 8.767 2.412 L 8.766 2.79 C 8.767 2.879 8.731 2.962 8.669 3.026 C 8.617 3.075 8.55 3.109 8.476 3.117 L 8.58 3.312 L 9.145 3.312 C 9.234 3.31 9.317 3.345 9.379 3.408 C 9.442 3.47 9.477 3.555 9.477 3.643 L 9.476 4.02 C 9.476 4.106 9.442 4.193 9.378 4.253 C 9.319 4.313 9.234 4.349 9.147 4.349 L 9.141 4.35 L 9.872 5.706 C 10.08 5.702 10.278 5.696 10.467 5.692 C 11.573 5.663 12.372 5.642 13.054 5.74 C 13.896 5.86 14.611 6.146 14.968 6.501 C 15.084 6.617 15.153 6.73 15.175 6.848 C 15.177 6.855 15.185 6.886 15.186 6.931 C 15.188 6.974 15.179 7.009 15.175 7.021 C 15.152 7.133 15.083 7.246 14.969 7.363 C 14.611 7.717 13.896 8.003 13.053 8.125 Z"/>
</svg>