<?xml version="1.0" encoding="utf-8"?>
<svg id="plane-solid" viewBox="0 0 24 24" xmlns="http://www.w3.org/2000/svg">
  <path d="M 15.167 17.284 L 16.817 11.997 C 21.279 10.708 21.507 10.591 22.968 9.554 C 23.51 9.043 24.194 8.061 21.876 8.163 C 21.648 7.998 20.501 7.558 19.409 8.359 L 15.34 9.514 L 8.065 7.802 L 2.48 6.568 C 1.796 6.513 1.513 6.419 1.262 7.008 L 7.398 9.624 L 9.613 11.085 L 6.565 11.95 L 4.805 10.347 C 4.499 10.127 4.491 10.064 4.224 10.096 C 3.957 10.119 3.627 10.158 3.627 10.158 L 3.902 11.95 L 1.686 11.117 C 1.325 10.968 0.775 10.897 0.5 11.305 L 3.312 13.395 C 2.755 13.843 3.674 13.984 4.004 13.953 L 5.434 15.375 C 5.716 15.438 6.086 15.336 6.046 14.998 L 5.897 14.008 C 7.303 13.921 9.911 13.584 12.017 13.238 L 13.659 14.511 L 14.099 17.417 C 14.531 17.543 14.884 17.441 15.167 17.284"/>
</svg>