<?xml version="1.0" encoding="utf-8"?>
<svg id="plane-up" viewBox="0 0 24 24" xmlns="http://www.w3.org/2000/svg">
  <path class="st0" d="M 15.571 23.434 C 15.412 23.434 15.412 23.434 15.253 23.434 L 13.031 22.799 C 12.904 22.954 12.838 23.015 12.838 23.015 C 12.361 23.65 11.444 23.593 11.127 22.958 C 11.127 22.958 11.127 22.799 10.968 22.799 L 8.746 23.434 C 8.428 23.593 8.111 23.434 7.793 23.275 C 7.476 23.116 7.317 22.799 7.317 22.481 L 7.317 21.212 C 7.317 20.736 7.635 20.259 8.111 20.101 C 8.27 20.101 8.428 20.101 8.587 20.101 L 10.016 19.148 C 9.857 18.513 9.698 17.402 9.698 16.45 L 9.698 14.863 L 2.556 17.085 C 2.238 17.244 1.822 17.093 1.603 16.926 C 1.392 16.468 1.286 16.133 1.286 15.815 L 1.286 14.545 C 1.286 14.069 1.603 13.593 1.921 13.434 C 2.08 13.34 2.238 13.276 2.556 13.434 L 6.841 10.577 C 6.841 10.26 6.841 9.784 6.841 9.466 C 6.841 9.149 7 8.72 7.476 8.514 C 7.674 8.393 7.952 8.197 8.587 8.197 C 8.904 8.197 9.168 8.144 9.485 8.303 C 9.657 8.367 9.857 8.514 9.857 8.673 L 10.016 3.435 L 10.016 3.276 C 10.016 3.118 10.204 2.329 10.333 2.007 C 10.414 1.805 10.557 1.545 10.793 1.215 C 11.587 0.262 12.555 0.261 13.349 1.213 C 13.666 1.689 13.876 1.989 13.891 2.165 C 14.027 2.503 14.142 3.276 14.142 3.435 L 14.142 3.594 L 14.301 8.832 C 14.46 8.673 14.536 8.659 14.695 8.5 C 15.012 8.341 15.253 8.355 15.571 8.355 C 16.206 8.355 16.563 8.486 16.721 8.644 C 17.026 8.847 17.317 9.149 17.317 9.466 C 17.317 9.784 17.317 10.101 17.158 10.577 L 21.443 13.434 C 21.761 13.434 21.741 13.341 22.078 13.434 C 22.554 13.593 22.713 14.069 22.713 14.545 L 22.713 15.815 C 22.713 16.133 22.554 16.45 22.237 16.768 C 21.961 16.971 21.602 17.085 21.285 16.926 L 14.301 14.704 L 14.301 16.291 C 14.301 17.244 14.142 18.196 13.984 18.99 L 15.412 19.942 C 15.571 19.942 15.729 19.942 15.888 19.942 C 16.364 20.101 16.682 20.577 16.682 21.053 L 16.682 22.323 C 16.682 22.64 16.523 22.958 16.206 23.116 C 16.047 23.275 15.729 23.434 15.571 23.434 Z M 15.412 22.005 Z M 12.555 21.212 L 15.253 22.005 L 15.253 21.37 L 15.095 21.37 L 12.872 19.625 C 12.714 19.466 12.714 19.307 12.714 19.307 C 12.872 18.831 13.031 17.402 13.031 16.291 L 13.031 14.069 C 13.031 13.752 13.19 13.593 13.349 13.434 C 13.507 13.276 13.825 13.276 13.984 13.276 L 21.443 15.657 L 21.443 15.022 L 21.285 15.022 L 16.206 11.689 C 15.888 11.371 15.729 11.054 15.729 10.736 C 15.888 10.419 15.888 10.101 15.888 9.784 C 15.729 9.784 15.412 9.784 15.253 9.784 C 15.253 9.943 15.253 9.943 15.253 10.101 C 15.253 10.26 15.116 10.527 14.938 10.61 C 14.748 10.725 14.46 10.736 14.301 10.577 L 13.349 9.784 C 13.19 9.625 13.031 9.466 13.031 8.99 L 12.872 3.594 C 12.872 3.435 12.734 2.957 12.555 2.641 C 12.45 2.424 12.079 2.007 12.079 2.007 C 12.079 2.007 11.717 2.391 11.557 2.694 C 11.406 2.97 11.285 3.435 11.285 3.753 L 11.127 8.99 C 11.127 9.466 10.968 9.625 10.65 9.784 L 9.698 10.419 C 9.539 10.577 9.381 10.577 9.063 10.577 C 8.904 10.419 8.746 10.26 8.746 9.943 C 8.746 9.784 8.746 9.784 8.746 9.625 C 8.587 9.625 8.27 9.625 8.111 9.784 C 8.111 10.101 8.111 10.419 8.27 10.736 C 8.428 11.054 8.27 11.53 7.952 11.689 L 2.873 14.863 L 2.714 14.863 L 2.714 15.339 L 10.174 12.958 C 10.333 12.958 10.65 12.958 10.809 13.117 C 10.968 13.434 11.127 13.593 11.127 13.911 L 11.127 16.133 C 11.127 17.402 11.444 18.831 11.444 19.148 C 11.444 19.307 11.444 19.466 11.285 19.466 L 9.063 21.212 L 8.904 21.212 L 8.904 21.847 L 11.444 21.053 C 11.603 21.053 11.92 21.053 11.92 21.37 C 11.92 21.529 12.079 21.529 12.079 21.688 C 12.079 21.529 12.238 21.529 12.238 21.37 C 12.238 21.212 12.396 21.212 12.555 21.212 Z M 14.46 9.943 Z M 9.222 9.784 Z M 14.777 9.784 Z"/>
</svg>