<?xml version="1.0" encoding="utf-8"?>
<svg id="plane" viewBox="0 0 24 24" xmlns="http://www.w3.org/2000/svg">
  <path class="cls-1" d="M 21.853 13.999 L 13.654 14.048 L 7.426 6.788 C 7.229 6.56 6.862 6.611 6.739 6.886 L 5.718 9.198 C 5.663 9.324 5.671 9.468 5.743 9.585 L 8.512 14.048 L 4.398 14.048 L 1.174 11.378 C 0.928 11.178 0.558 11.316 0.506 11.628 C 0.5 11.666 0.498 11.703 0.503 11.74 L 0.815 14.521 C 0.828 14.63 0.881 14.729 0.968 14.797 L 3.999 17.265 C 4.073 17.325 4.165 17.356 4.259 17.355 L 10.767 17.355 C 10.815 17.354 10.861 17.345 10.907 17.327 L 10.943 17.327 L 10.979 17.327 C 10.992 17.317 11.002 17.305 11.013 17.294 C 11.036 17.278 11.056 17.258 11.074 17.236 C 11.107 17.195 11.132 17.149 11.149 17.1 C 11.152 17.074 11.152 17.046 11.149 17.018 C 11.149 17.004 11.149 16.988 11.149 16.973 C 11.149 16.973 11.149 16.973 11.149 16.944 C 11.141 16.89 11.126 16.838 11.103 16.788 C 11.103 16.788 11.103 16.788 11.103 16.759 L 9.651 14.41 C 9.631 14.338 9.592 14.272 9.536 14.222 L 6.559 9.339 L 7.241 7.816 L 15.242 17.195 C 15.281 17.23 15.324 17.261 15.369 17.29 L 15.439 17.29 C 15.467 17.293 15.497 17.293 15.526 17.29 L 21.853 17.29 C 23.119 17.29 23.91 15.919 23.278 14.821 C 22.983 14.313 22.44 13.999 21.853 13.999 Z M 1.614 14.246 L 1.432 12.645 L 3.99 14.776 C 4.065 14.838 4.158 14.87 4.255 14.87 L 9.022 14.87 L 10.03 16.517 L 4.398 16.517 L 1.614 14.246 Z M 21.853 16.517 L 15.743 16.517 L 14.357 14.87 L 21.853 14.87 C 22.486 14.87 22.882 15.557 22.565 16.106 C 22.418 16.361 22.147 16.517 21.853 16.517 Z" style="fill: rgb(80, 170, 207);"/>
</svg>