<?xml version="1.0" encoding="utf-8"?>
<svg id="search" viewBox="0 0 24 24" xmlns="http://www.w3.org/2000/svg">
  <path d="M 8.685 0.497 C 2.394 0.497 -1.538 7.307 1.607 12.755 C 4.754 18.204 12.617 18.204 15.762 12.755 C 16.482 11.507 16.86 10.092 16.857 8.652 C 16.847 4.145 13.191 0.497 8.685 0.497 Z M 14.328 8.652 C 14.328 12.995 9.625 15.71 5.864 13.538 C 2.102 11.366 2.102 5.936 5.864 3.764 C 6.722 3.27 7.694 3.009 8.685 3.009 C 11.808 3.009 14.338 5.546 14.328 8.669 Z"/>
  <path d="M 23.137 21.369 L 17.246 15.479 C 16.749 15.012 15.975 15.012 15.477 15.479 C 14.991 15.969 14.991 16.758 15.477 17.248 L 21.368 23.138 C 21.858 23.624 22.647 23.624 23.137 23.138 C 23.622 22.648 23.622 21.859 23.137 21.369 Z"/>
</svg>