<?xml version="1.0" encoding="utf-8"?>
<svg id="share" viewBox="0 0 24 24" xmlns="http://www.w3.org/2000/svg">
  <path d="M 1.406 21.604 L 1.133 21.604 C 0.806 21.498 0.573 21.208 0.539 20.866 C 0.267 17.182 1.416 13.533 3.75 10.67 C 5.958 8.379 8.997 7.076 12.179 7.058 L 12.372 7.058 L 12.372 3.252 C 12.374 2.912 12.575 2.604 12.886 2.466 C 13.201 2.33 13.566 2.393 13.817 2.626 L 23.226 11.393 C 23.409 11.562 23.509 11.802 23.499 12.051 C 23.49 12.301 23.373 12.536 23.178 12.693 L 13.913 20.191 C 13.76 20.317 13.566 20.386 13.368 20.384 C 12.895 20.384 12.509 20.006 12.501 19.533 L 12.501 15.262 L 12.308 15.262 C 10.413 15.262 6.64 16.033 2.112 21.251 C 1.949 21.478 1.685 21.61 1.406 21.604 Z M 14.074 7.812 C 14.074 8.291 13.686 8.679 13.207 8.679 C 10.158 8.47 7.167 9.588 5.002 11.746 C 3.518 13.493 2.594 15.647 2.353 17.927 L 2.353 18.489 L 2.755 18.104 C 6.961 14.154 10.542 13.56 12.388 13.56 C 12.814 13.555 13.24 13.598 13.657 13.689 C 14.035 13.79 14.298 14.132 14.299 14.524 L 14.299 17.735 L 21.283 11.971 L 14.074 5.227 Z"/>
</svg>