<?xml version="1.0" encoding="utf-8"?>
<svg id="pinterest" viewBox="0 0 24 24" xmlns="http://www.w3.org/2000/svg">
  <g id="Specs" stroke="none" stroke-width="1" fill="none" fill-rule="evenodd" transform="matrix(1.161111, 0, 0, 1.161111, 0.38889, 0.38889)">
    <g id="Multiple-Itineraries-ordered-port-defualt-—-Large-Copy-29" transform="translate(-1059.000000, -678.000000)">
      <g id="Group-3" transform="translate(1030.000000, 568.000000)">
        <g id="Group-13" transform="translate(30.000000, 111.000000)">
          <rect id="Rectangle-27-Copy-69" stroke="#EDF1F5" stroke-width="2" fill="#FFFFFF" x="0" y="0" width="18" height="18" rx="9"/>
          <g id="DLS/assets/icons/itinerary-Copy-17" transform="translate(3.000000, 3.000000)">
            <rect id="Rectangle" x="0" y="0" width="12" height="12"/>
            <g id="Page-1" stroke-width="1" fill-rule="evenodd" transform="translate(1.043478, 1.043478)">
              <mask id="mask-2" fill="white">
                <polygon points="0 0 10.435 0 10.435 9.913 0 9.913"/>
              </mask>
              <g id="Clip-2"/>
              <path d="M7.68251244,5.55738432 C7.39645241,5.83346083 7.26659024,6.22964855 7.33379164,6.6177691 L7.68705307,8.71881891 L5.78271061,7.73014232 C5.60562583,7.63871438 5.41219476,7.59300041 5.21785557,7.59300041 C5.02351638,7.59300041 4.82917718,7.63871438 4.65209241,7.73014232 L2.73776054,8.7116481 L3.10101137,6.61866545 C3.1691209,6.22964855 3.0383506,5.83346083 2.75138245,5.55648797 L1.21483145,4.06226867 L3.3434813,3.75661253 C3.7394247,3.70014233 4.08178861,3.45543815 4.25887338,3.10137899 L5.22421246,1.19663033 L6.17592963,3.09958629 C6.35210628,3.4545418 6.69447019,3.70014233 7.09041359,3.75661253 L9.22360408,4.07392125 L7.68251244,5.55738432 Z M10.3742011,3.69924598 C10.230717,3.2609297 9.85566052,2.94810275 9.39342384,2.88177268 L7.25932522,2.57253113 L6.30669993,0.668678823 C6.10146321,0.256356761 5.68372476,0 5.21785557,0 C4.75198638,0 4.33424793,0.256356761 4.12810309,0.668678823 L3.17002903,2.57701289 L1.04137917,2.88266903 C0.580050623,2.94810275 0.204994143,3.2609297 0.0606019393,3.69834963 C-0.0837902649,4.13576956 0.0342662543,4.60635452 0.367548889,4.92724865 L1.91136491,6.41608983 L1.54720595,8.50996883 C1.4681989,8.96262674 1.65345682,9.41169925 2.03032955,9.68239765 C2.40720229,9.95309605 2.89759091,9.98805379 3.3098806,9.77382558 L5.21422306,8.78514899 L5.21513119,8.78514899 C5.21694744,8.78514899 5.22148808,8.78514899 5.22057995,8.78514899 L7.12583054,9.77382558 C7.30473158,9.86704622 7.49816264,9.91276019 7.69159371,9.91276019 C7.94314491,9.91276019 8.19197172,9.83477754 8.40447346,9.68239765 C8.78134619,9.41169925 8.96660412,8.96262674 8.88759706,8.50996883 L8.52616249,6.40981537 L10.066346,4.92724865 C10.4005368,4.60635452 10.5185933,4.13576956 10.3742011,3.69924598 Z" id="Fill-1" fill="#50AACF" mask="url(#mask-2)"/>
            </g>
          </g>
        </g>
      </g>
    </g>
  </g>
</svg>