<?xml version="1.0" encoding="utf-8"?>
<svg id="suitcase-off" viewBox="0 0 24 24" xmlns="http://www.w3.org/2000/svg">
  <path d="M 22.707 6.611 L 16.676 6.611 L 16.676 4.558 C 16.677 3.048 15.49 1.804 13.981 1.735 L 10.131 1.735 C 8.623 1.804 7.435 3.048 7.437 4.558 L 7.437 6.611 L 1.406 6.611 C 0.904 6.596 0.493 7.007 0.508 7.509 L 0.508 21.239 C 0.438 21.782 0.859 22.262 1.406 22.266 L 22.578 22.266 C 23.125 22.262 23.546 21.782 23.476 21.239 L 23.476 7.509 C 23.605 7.023 23.207 6.558 22.707 6.611 Z M 5.769 20.341 L 2.432 20.341 L 2.432 8.536 L 5.769 8.536 Z M 9.362 4.558 C 9.339 4.102 9.677 3.707 10.131 3.66 L 13.853 3.66 C 14.366 3.66 14.623 4.045 14.623 4.558 L 14.623 6.611 L 9.362 6.611 Z M 16.419 20.341 L 7.693 20.341 L 7.693 8.536 L 16.547 8.536 L 16.547 20.341 Z M 21.68 20.341 L 18.344 20.341 L 18.344 8.536 L 21.68 8.536 Z"/>
</svg>