<?xml version="1.0" encoding="utf-8"?>
<svg id="sunglass" viewBox="0 0 24 24" xmlns="http://www.w3.org/2000/svg">
<path d="M17.6,16.1c-2.5,0-4.5-1.9-4.8-4.3h-1.3c-0.3,2.4-2.3,4.3-4.8,4.3c-2.6,0-4.8-2.1-4.9-4.7H0.5v-1.2h1.3
	c0.2-1.9,1-2.3,4.8-2.3c3.5,0,4.5,0.4,4.8,1.9c0.4-0.1,1-0.1,1.4,0C13,8.2,14,7.9,17.6,7.9c3.8,0,4.7,0.4,4.8,2.3h1.1v1.2h-1.1
	C22.3,14,20.2,16.1,17.6,16.1z M17.6,9.1c-3.7,0-3.7,0-3.7,2.2c0,2,1.6,3.7,3.7,3.7c2,0,3.7-1.6,3.7-3.7C21.2,9.1,21.2,9.1,17.6,9.1
	z M6.6,9.1c-3.7,0-3.7,0-3.7,2.2c0,2,1.6,3.7,3.7,3.7c2,0,3.7-1.6,3.7-3.7C10.3,9.1,10.3,9.1,6.6,9.1z"/>
</svg>
