<?xml version="1.0" encoding="utf-8"?>
<svg id="tachometer-medium" viewBox="0 0 24 24" xmlns="http://www.w3.org/2000/svg">
  <path class="cls-2" d="M 9.005 12.578 C 7.28 12.98 5.623 13.67 4.128 14.625 C 3.783 14.832 3.346 14.729 3.139 14.395 L 0.608 10.392 C 0.424 10.105 0.482 9.714 0.735 9.484 C 3.208 7.471 6.245 6.263 9.431 6.044 L 9.339 7.505 C 6.751 7.724 4.266 8.644 2.161 10.162 L 3.979 13.072 C 5.566 12.141 7.291 11.473 9.097 11.117 Z M 23.371 10.611 L 20.668 14.418 C 20.45 14.717 20.047 14.809 19.736 14.636 C 18.253 13.797 16.665 13.153 15.021 12.716 L 14.917 11.232 C 16.631 11.623 18.299 12.244 19.863 13.072 L 21.83 10.335 C 19.713 8.839 17.252 7.896 14.676 7.597 L 14.572 6.136 C 17.747 6.447 20.772 7.666 23.268 9.668 C 23.532 9.909 23.578 10.312 23.371 10.611 Z M 13.594 15.568 C 14.515 16.109 15.078 17.086 15.09 18.156 C 15.124 20.514 12.594 22.021 10.535 20.871 C 8.476 19.72 8.43 16.764 10.454 15.568 L 11.397 1.478 C 11.42 1.156 11.685 0.903 12.007 0.903 C 12.318 0.915 12.582 1.156 12.605 1.467 Z"/>
</svg>