<?xml version="1.0" encoding="utf-8"?>
<svg id="tachometer-low" viewBox="0 0 24 24" xmlns="http://www.w3.org/2000/svg">
  <path class="cls-2" d="M 12.159 15.146 C 13.229 15.215 14.185 15.839 14.68 16.79 C 15.77 18.882 14.185 21.369 11.828 21.267 C 9.472 21.164 8.109 18.548 9.377 16.558 L 3.623 3.64 C 3.523 3.44 3.536 3.202 3.659 3.014 C 3.923 2.611 4.525 2.644 4.743 3.075 Z M 23.372 10.575 L 20.663 14.393 C 20.453 14.691 20.05 14.782 19.732 14.602 C 17.479 13.266 14.949 12.464 12.337 12.259 L 11.448 10.826 L 11.667 10.826 C 14.535 10.891 17.343 11.656 19.847 13.054 L 21.814 10.293 C 18.697 7.908 13.801 6.966 9.377 7.468 L 8.55 6.14 C 13.78 5.366 19.701 6.496 23.257 9.634 C 23.53 9.872 23.58 10.278 23.372 10.575 Z M 6.218 13.483 C 5.497 13.806 4.798 14.178 4.126 14.592 C 3.791 14.801 3.349 14.699 3.142 14.362 L 0.611 10.366 C 0.425 10.073 0.478 9.688 0.736 9.456 C 1.601 8.69 2.574 8.056 3.623 7.573 L 4.188 8.87 C 3.459 9.209 2.772 9.631 2.138 10.125 L 3.958 13.012 C 4.504 12.705 5.067 12.426 5.642 12.176 Z"/>
</svg>