<?xml version="1.0" encoding="utf-8"?>
<svg id="thermometer" viewBox="0 0 24 24" xmlns="http://www.w3.org/2000/svg">
  <path d="M 14.843 9.001 L 16.536 7.707 C 16.679 7.598 16.884 7.699 16.884 7.876 L 16.884 10.465 C 16.884 10.643 16.679 10.744 16.536 10.634 L 14.843 9.341 C 14.73 9.256 14.73 9.086 14.843 9.001 Z M 17.718 12.587 C 17.916 12.49 18.042 12.291 18.042 12.07 L 18.042 6.272 C 18.042 6.051 17.916 5.852 17.718 5.754 C 17.523 5.657 17.284 5.681 17.109 5.813 L 13.318 8.714 C 13.175 8.823 13.09 8.992 13.09 9.17 C 13.09 9.35 13.175 9.518 13.318 9.628 L 17.109 12.528 C 17.213 12.606 17.336 12.647 17.463 12.647 C 17.55 12.647 17.638 12.628 17.718 12.587 Z M 12.546 19.646 C 12.546 18.65 11.985 17.738 11.084 17.266 C 10.892 17.167 10.773 16.97 10.773 16.756 L 10.773 15.011 L 10.165 15.011 C 9.845 15.011 9.585 14.752 9.585 14.434 C 9.585 14.116 9.845 13.858 10.165 13.858 L 10.773 13.858 L 10.773 12.379 L 10.165 12.379 C 9.845 12.379 9.585 12.121 9.585 11.803 C 9.585 11.484 9.845 11.226 10.165 11.226 L 10.773 11.226 L 10.773 9.747 L 10.165 9.747 C 9.845 9.747 9.585 9.49 9.585 9.17 C 9.585 8.852 9.845 8.594 10.165 8.594 L 10.773 8.594 L 10.773 7.115 L 10.165 7.115 C 9.845 7.115 9.585 6.857 9.585 6.538 C 9.585 6.219 9.845 5.961 10.165 5.961 L 10.773 5.961 L 10.773 4.483 L 10.165 4.483 C 9.845 4.483 9.585 4.224 9.585 3.906 C 9.585 3.588 9.845 3.33 10.165 3.33 L 10.773 3.33 L 10.773 2.591 C 10.773 2.074 10.35 1.653 9.831 1.653 C 9.312 1.653 8.888 2.074 8.888 2.591 L 8.888 16.756 C 8.888 16.97 8.77 17.167 8.578 17.266 C 7.677 17.738 7.118 18.65 7.118 19.646 C 7.118 21.135 8.336 22.347 9.831 22.347 C 11.328 22.347 12.546 21.135 12.546 19.646 Z M 13.704 19.646 C 13.704 21.771 11.967 23.5 9.831 23.5 C 7.696 23.5 5.959 21.771 5.959 19.646 C 5.959 18.34 6.628 17.135 7.729 16.425 L 7.729 2.591 C 7.729 1.438 8.672 0.5 9.831 0.5 C 10.99 0.5 11.931 1.438 11.931 2.591 L 11.931 16.425 C 13.034 17.135 13.704 18.34 13.704 19.646 Z M 9.831 20.981 C 9.097 20.981 8.501 20.39 8.501 19.659 C 8.501 18.928 9.097 18.336 9.831 18.336 C 10.566 18.336 11.16 18.928 11.16 19.659 C 11.16 20.39 10.566 20.981 9.831 20.981 Z"/>
</svg>