<?xml version="1.0" encoding="utf-8"?>
<svg id="times" viewBox="0 0 24 24" xmlns="http://www.w3.org/2000/svg">
  <path d="M 22.769 20.907 L 13.915 12.034 L 22.788 3.161 C 23.553 2.395 23.724 1.421 23.189 0.865 C 22.963 0.664 22.671 0.556 22.368 0.56 L 22.368 0.56 C 21.797 0.595 21.264 0.848 20.875 1.269 L 12.004 10.121 L 3.13 1.269 C 2.838 0.936 2.461 0.691 2.039 0.56 C 1.278 0.238 0.448 0.846 0.53 1.67 C 0.565 2.239 0.818 2.774 1.236 3.161 L 10.091 12.034 L 1.236 20.907 C 0.927 21.206 0.701 21.582 0.586 21.996 C 0.277 22.734 0.839 23.541 1.638 23.508 L 1.638 23.508 C 2.208 23.472 2.742 23.219 3.13 22.799 L 12.004 13.947 L 20.875 22.818 C 21.264 23.238 21.797 23.491 22.368 23.527 C 22.664 23.537 22.955 23.426 23.17 23.222 C 23.706 22.647 23.476 21.595 22.769 20.907 Z"/>
</svg>