<?xml version="1.0" encoding="utf-8"?>
<svg id="times-bold" viewBox="0 0 24 24" xmlns="http://www.w3.org/2000/svg">
  <path d="M 15.613 12 L 22.752 4.864 C 23.749 3.864 23.749 2.247 22.752 1.25 C 21.751 0.249 20.139 0.249 19.137 1.25 L 12.001 8.386 L 4.863 1.25 C 3.862 0.249 2.248 0.249 1.248 1.25 C 0.25 2.247 0.25 3.864 1.248 4.864 L 8.388 12 L 1.248 19.139 C 0.25 20.137 0.25 21.753 1.248 22.753 C 1.749 23.25 2.401 23.501 3.057 23.501 C 3.71 23.501 4.365 23.25 4.863 22.753 L 12.001 15.615 L 19.137 22.753 C 19.635 23.25 20.291 23.501 20.946 23.501 C 21.599 23.501 22.254 23.25 22.752 22.753 C 23.749 21.753 23.749 20.137 22.752 19.139 L 15.613 12 Z" id="Fill-1" style="fill: rgb(0, 0, 0);"/>
</svg>