<?xml version="1.0" encoding="utf-8"?>
<svg id="tropical" viewBox="0 0 24 24" xmlns="http://www.w3.org/2000/svg">
  <path d="M 7.139 4.324 C 7.064 4.145 7.091 3.94 7.208 3.786 C 7.461 3.454 7.979 3.521 8.14 3.906 L 9.328 6.809 C 9.36 6.948 9.335 7.094 9.259 7.214 C 9.041 7.567 8.522 7.549 8.327 7.183 Z M 14.672 6.809 L 15.871 3.906 C 15.946 3.727 16.11 3.601 16.302 3.577 C 16.716 3.523 17.032 3.939 16.872 4.324 L 15.684 7.183 C 15.572 7.466 15.249 7.6 14.969 7.48 C 14.71 7.369 14.58 7.075 14.672 6.809 Z M 11.439 6.303 L 11.439 3.202 C 11.439 3.005 11.544 2.824 11.714 2.726 C 12.08 2.514 12.539 2.779 12.539 3.202 L 12.539 6.27 C 12.539 6.567 12.298 6.809 12 6.809 C 11.706 6.821 11.457 6.597 11.439 6.303 Z M 17.072 8.256 L 17.259 8.072 L 19.291 6.039 C 19.429 5.902 19.629 5.848 19.817 5.899 C 19.958 5.936 20.066 6.022 20.135 6.13 C 20.276 6.335 20.27 6.631 20.068 6.829 L 18.712 8.159 L 17.862 9.009 C 17.774 9.124 17.643 9.2 17.499 9.218 L 17.477 9.163 C 17.425 9.164 17.373 9.156 17.324 9.143 C 16.972 9.044 16.829 8.641 17.005 8.348 C 17.024 8.316 17.046 8.285 17.072 8.256 Z M 3.939 6.809 C 3.801 6.672 3.748 6.472 3.798 6.284 C 3.906 5.879 4.412 5.742 4.709 6.039 L 6.908 8.239 C 7.046 8.376 7.1 8.577 7.049 8.765 C 6.94 9.169 6.434 9.305 6.138 9.009 Z M 18.829 10.724 L 21.689 9.537 C 21.867 9.462 22.073 9.488 22.227 9.606 C 22.559 9.859 22.492 10.377 22.107 10.537 L 19.247 11.725 C 18.968 11.845 18.644 11.711 18.532 11.428 C 18.419 11.152 18.552 10.836 18.829 10.724 Z M 1.565 10.106 C 1.511 9.692 1.926 9.376 2.311 9.537 L 5.171 10.724 C 5.349 10.799 5.474 10.963 5.499 11.155 C 5.552 11.569 5.138 11.886 4.753 11.725 L 1.893 10.537 C 1.714 10.463 1.589 10.299 1.565 10.106 Z M 23.282 13.658 C 23.5 14.172 23.079 14.73 22.525 14.661 L 1.475 14.661 C 1.153 14.701 0.844 14.523 0.718 14.224 C 0.5 13.709 0.921 13.151 1.475 13.221 L 6.061 13.221 C 6.258 11.606 7.104 10.141 8.404 9.164 C 12.084 6.396 17.381 8.649 17.939 13.221 L 22.525 13.221 C 22.847 13.181 23.156 13.359 23.282 13.658 Z M 7.601 11.923 C 7.359 12.497 7.749 13.139 8.371 13.188 L 15.695 13.188 C 16.332 13.186 16.75 12.52 16.476 11.945 C 15.701 10.162 13.943 9.01 12 9.009 C 10.09 9.036 8.371 10.174 7.601 11.923 Z M 18.649 20.289 C 18.986 20.735 18.713 21.378 18.159 21.447 L 5.841 21.447 C 5.519 21.486 5.21 21.308 5.084 21.009 C 4.866 20.494 5.287 19.937 5.841 20.006 L 18.159 20.006 C 18.353 20.03 18.53 20.133 18.649 20.289 Z M 6.006 18.027 L 2.707 18.027 C 2.385 18.066 2.076 17.888 1.949 17.589 C 1.732 17.074 2.153 16.517 2.707 16.586 L 6.006 16.586 C 6.407 16.586 6.732 16.91 6.732 17.312 C 6.726 17.708 6.403 18.027 6.006 18.027 Z M 21.996 17.035 C 22.213 17.548 21.792 18.106 21.238 18.038 L 9.262 18.038 C 8.939 18.077 8.63 17.899 8.504 17.6 C 8.286 17.085 8.707 16.528 9.262 16.597 L 21.238 16.597 C 21.56 16.557 21.869 16.735 21.996 17.035 Z" style="fill: rgb(80, 170, 207);"/>
</svg>