<?xml version="1.0" encoding="utf-8"?>
<svg id="twitter" viewBox="0 0 24 24" xmlns="http://www.w3.org/2000/svg">
  <path d="M 20.888 11.13 C 21.942 11.158 22.919 10.582 23.404 9.645 C 22.549 10.06 21.578 10.167 20.654 9.948 C 20.654 9.769 20.572 9.59 20.53 9.425 C 19.985 7.181 17.96 5.612 15.65 5.645 L 16.186 5.452 C 16.42 5.37 17.836 5.136 17.561 4.641 C 17.286 4.146 15.65 4.971 15.32 5.067 C 15.746 4.916 16.461 4.641 16.53 4.16 C 15.859 4.251 15.231 4.544 14.729 4.999 C 14.912 4.816 15.032 4.58 15.073 4.325 C 13.327 5.425 12.323 7.652 11.471 9.824 C 10.951 9.292 10.364 8.83 9.725 8.449 C 7.816 7.457 5.841 6.598 3.813 5.878 C 3.837 7.161 4.653 8.295 5.862 8.724 C 5.398 8.716 4.935 8.772 4.487 8.889 C 4.679 9.92 5.325 10.759 7.071 11.158 C 6.481 11.136 5.909 11.36 5.49 11.776 C 6.034 12.802 7.18 13.358 8.322 13.151 C 6.563 13.907 7.608 15.296 9.051 15.089 C 6.726 17.45 2.951 17.553 0.5 15.323 C 6.26 23.132 18.853 19.942 20.75 12.409 C 21.771 12.486 22.775 12.114 23.5 11.391 C 22.621 11.505 21.727 11.416 20.888 11.13"/>
</svg>