<?xml version="1.0" encoding="utf-8"?>
<svg id="user" viewBox="0 0 24 24" xmlns="http://www.w3.org/2000/svg">
  <path id="Fill-1" d="M 8.67 8.091 C 8.733 9.871 10.221 11.266 12 11.216 C 13.779 11.266 15.267 9.871 15.33 8.091 C 15.267 6.312 13.779 4.916 12 4.967 C 10.221 4.916 8.733 6.312 8.67 8.091 Z M 6.6 8.091 C 6.698 5.204 9.112 2.938 12 3.026 C 14.888 2.938 17.302 5.204 17.4 8.091 C 17.302 10.979 14.888 13.244 12 13.157 C 9.112 13.244 6.698 10.979 6.6 8.091 Z M 21 18.878 L 21 20.074 C 20.968 20.354 20.822 20.609 20.594 20.777 C 19.965 21.242 19.07 20.851 18.981 20.074 L 18.981 18.878 C 18.926 17.333 17.634 16.123 16.089 16.166 L 7.911 16.166 C 6.366 16.123 5.075 17.333 5.019 18.878 L 5.019 20.074 C 4.987 20.354 4.84 20.609 4.613 20.777 C 3.984 21.242 3.087 20.851 3 20.074 L 3 18.878 C 3.084 16.25 5.283 14.189 7.911 14.276 L 16.089 14.276 C 18.717 14.189 20.916 16.25 21 18.878 Z" style="fill: rgb(122, 142, 158);"/>
</svg>