<?xml version="1.0" encoding="utf-8"?>
<svg id="user" viewBox="0 0 24 24" xmlns="http://www.w3.org/2000/svg">
  <path d="M 23.5 20.79 L 23.5 22.317 C 23.459 22.676 23.272 23.001 22.981 23.216 C 22.178 23.809 21.033 23.31 20.921 22.317 L 20.921 20.79 C 20.849 18.815 19.199 17.268 17.224 17.323 L 6.776 17.323 C 4.801 17.268 3.151 18.815 3.079 20.79 L 3.079 22.317 C 3.039 22.676 2.851 23.001 2.561 23.216 C 1.757 23.809 0.612 23.31 0.5 22.317 L 0.5 20.79 C 0.607 17.432 3.418 14.798 6.776 14.908 L 17.224 14.908 C 20.582 14.798 23.393 17.432 23.5 20.79 Z M 7.745 7.006 C 7.825 9.28 9.726 11.063 12 10.998 C 14.274 11.063 16.175 9.28 16.255 7.006 C 16.175 4.732 14.274 2.949 12 3.014 C 9.726 2.949 7.825 4.732 7.745 7.006 Z M 5.1 7.006 C 5.225 3.316 8.31 0.422 12 0.533 C 15.69 0.422 18.775 3.316 18.9 7.006 C 18.775 10.696 15.69 13.59 12 13.479 C 8.31 13.59 5.225 10.696 5.1 7.006 Z"/>
</svg>