<?xml version="1.0" encoding="utf-8"?>
<svg id="view-grid" viewBox="0 0 24 24" xmlns="http://www.w3.org/2000/svg">
  <path d="M 18.192 18.192 L 23.5 18.192 L 23.5 23.5 L 18.192 23.5 Z M 18.192 9.346 L 23.5 9.346 L 23.5 14.654 L 18.192 14.654 Z M 18.192 0.5 L 23.5 0.5 L 23.5 5.808 L 18.192 5.808 Z M 9.346 18.192 L 14.654 18.192 L 14.654 23.5 L 9.346 23.5 Z M 9.346 9.346 L 14.654 9.346 L 14.654 14.654 L 9.346 14.654 Z M 9.346 0.5 L 14.654 0.5 L 14.654 5.808 L 9.346 5.808 Z M 0.5 18.192 L 5.808 18.192 L 5.808 23.5 L 0.5 23.5 Z M 0.5 9.346 L 5.808 9.346 L 5.808 14.654 L 0.5 14.654 Z M 0.5 0.5 L 5.808 0.5 L 5.808 5.808 L 0.5 5.808 Z"/>
</svg>