<?xml version="1.0" encoding="utf-8"?>
<svg id="wave" viewBox="0 0 24 24" xmlns="http://www.w3.org/2000/svg">
  <path d="M 23.276 16.171 C 23.683 15.552 23.52 14.716 22.917 14.3 C 22.313 13.889 21.494 14.053 21.091 14.67 C 20.515 15.542 19.778 15.546 19.204 14.67 C 17.634 12.274 14.515 12.274 12.945 14.67 C 12.37 15.542 11.631 15.546 11.057 14.67 C 9.487 12.274 6.368 12.274 4.798 14.67 C 4.223 15.545 3.484 15.545 2.91 14.67 C 2.505 14.049 1.687 13.889 1.084 14.3 C 0.48 14.716 0.319 15.552 0.723 16.171 C 2.293 18.564 5.415 18.564 6.985 16.171 C 7.559 15.293 8.297 15.293 8.872 16.171 C 10.442 18.566 13.562 18.564 15.13 16.171 C 15.705 15.293 16.443 15.293 17.017 16.171 C 17.802 17.367 18.943 18.053 20.147 18.053 C 21.35 18.053 22.493 17.367 23.276 16.171 M 20.147 11.128 C 18.943 11.128 17.802 10.44 17.017 9.244 C 16.443 8.368 15.705 8.368 15.13 9.244 C 13.562 11.636 10.442 11.637 8.872 9.244 C 8.297 8.368 7.559 8.368 6.985 9.244 C 5.415 11.636 2.293 11.636 0.723 9.244 C 0.319 8.627 0.48 7.79 1.084 7.374 C 1.687 6.961 2.505 7.123 2.91 7.741 C 3.484 8.618 4.223 8.618 4.798 7.741 C 6.368 5.35 9.487 5.35 11.057 7.741 C 11.631 8.618 12.37 8.617 12.945 7.741 C 14.515 5.35 17.634 5.35 19.204 7.741 C 19.778 8.618 20.515 8.617 21.091 7.741 C 21.494 7.123 22.313 6.961 22.917 7.374 C 23.52 7.788 23.683 8.624 23.276 9.244 C 22.493 10.44 21.35 11.128 20.147 11.128"/>
</svg>