<?xml version="1.0" encoding="utf-8"?>
<svg id="wave" viewBox="0 0 24 24" xmlns="http://www.w3.org/2000/svg">
  <path class="st1" d="M 23.16 3.787 C 22.821 4.126 22.991 3.956 22.142 4.466 C 20.613 5.315 18.745 6.164 15.349 5.654 C 10.934 4.975 9.236 3.277 4.651 3.617 C 2.783 3.617 1.934 3.956 1.085 4.296 C 0.915 4.296 0.745 4.466 0.576 4.636 C 0.406 4.636 0.576 4.296 0.576 4.296 C 0.745 3.956 1.085 3.787 1.085 3.787 C 3.123 2.428 7.538 1.919 11.274 2.937 C 15.009 4.296 19.594 5.654 22.991 3.277 C 22.991 3.277 23.16 3.107 23.33 3.107 C 23.5 2.937 23.5 2.937 23.5 3.107 C 23.5 3.277 23.5 3.447 23.16 3.787 Z M 23.16 11.768 C 22.821 12.107 22.991 11.937 22.142 12.447 C 20.613 13.296 18.745 14.145 15.349 13.636 C 10.934 12.956 9.236 11.258 4.651 11.428 C 2.783 11.598 1.934 11.768 1.085 12.277 C 0.915 12.277 0.745 12.447 0.576 12.617 C 0.406 12.617 0.576 12.277 0.576 12.277 C 0.745 11.937 0.915 11.937 0.915 11.937 C 2.953 10.579 7.368 10.07 11.104 11.088 C 15.009 12.277 19.425 13.636 22.821 11.258 C 22.821 11.258 22.991 11.088 23.16 11.088 C 23.33 10.919 23.33 10.919 23.33 11.088 C 23.5 11.258 23.5 11.428 23.16 11.768 Z M 23.16 19.579 C 22.821 19.919 22.991 19.749 22.142 20.258 C 20.613 21.107 18.745 21.956 15.349 21.447 C 10.934 20.768 9.236 19.07 4.651 19.409 C 2.783 19.579 1.934 19.749 1.085 20.258 C 0.915 20.258 0.745 20.428 0.576 20.598 C 0.406 20.598 0.576 20.258 0.576 20.258 C 0.745 19.919 0.915 19.919 0.915 19.919 C 2.953 18.56 7.368 18.051 11.104 19.07 C 15.009 20.258 19.425 21.617 22.821 19.239 C 22.821 19.239 22.991 19.07 23.16 19.07 C 23.33 18.9 23.33 18.9 23.33 19.07 C 23.5 19.07 23.5 19.239 23.16 19.579 Z"/>
</svg>