<?xml version="1.0" encoding="utf-8"?>
<svg id="pinterest" viewBox="0 0 24 24" xmlns="http://www.w3.org/2000/svg">
  <g id="Specs" stroke="none" stroke-width="1" fill="none" fill-rule="evenodd" transform="matrix(1.163228, 0, 0, 1.163228, 0.36772, 0.36772)">
    <g id="Multiple-Itineraries-ordered-port-defualt-—-Large-Copy-29" transform="translate(-169.000000, -468.000000)">
      <g id="Group-44-Copy-2" transform="translate(140.000000, 431.000000)">
        <g id="Group-12" transform="translate(30.000000, 38.000000)">
          <rect id="Rectangle-27-Copy-82" stroke="#EDF1F5" stroke-width="2" fill="#FFFFFF" x="0" y="0" width="18" height="18" rx="9"/>
          <g id="DLS/assets/icons/itinerary-Copy-14" transform="translate(3.000000, 3.000000)">
            <rect id="Rectangle" x="0" y="0" width="12" height="12"/>
            <g id="Page-1" stroke-width="1" fill-rule="evenodd" transform="translate(1.043478, 3.652174)">
              <mask id="mask-2" fill="white">
                <polygon points="0 0 9.913 0 9.913 5.217 0 5.217"/>
              </mask>
              <g id="Clip-2"/>
              <path d="M9.81668436,4.4060494 C9.99160919,4.13967773 9.92163926,3.77898429 9.66138525,3.5999476 C9.40113123,3.4226576 9.0487217,3.49339893 8.87465017,3.75889725 C8.62634224,4.13531099 8.30891768,4.13705768 8.06146304,3.75889725 C7.38480261,2.72659787 6.04001466,2.72659787 5.36335423,3.75889725 C5.1158996,4.13531099 4.79762174,4.13705768 4.55016711,3.75889725 C3.87350667,2.72659787 2.52871873,2.72659787 1.8520583,3.75889725 C1.60460366,4.13618434 1.28632581,4.13618434 1.03887117,3.75889725 C0.863946344,3.49165223 0.511536813,3.4226576 0.251282801,3.5999476 C-0.00897121136,3.77898429 -0.0780878507,4.13967773 0.0959836853,4.4060494 C0.772644117,5.43747544 2.11828535,5.43747544 2.79494579,4.4060494 C3.04240042,4.02788897 3.36067828,4.02788897 3.60813291,4.4060494 C4.28479334,5.43834879 5.62958129,5.43747544 6.30538843,4.4060494 C6.55284306,4.02788897 6.87112092,4.02788897 7.11857555,4.4060494 C7.45733242,4.92132574 7.94882852,5.2173913 8.46762996,5.2173913 C8.9864314,5.2173913 9.47878079,4.92132574 9.81668436,4.4060494 M8.46762996,2.23228192 C7.94882852,2.23228192 7.45733242,1.93621636 7.11857555,1.42094002 C6.87112092,1.04277958 6.55284306,1.04277958 6.30538843,1.42094002 C5.62958129,2.4514927 4.28479334,2.45236605 3.60813291,1.42094002 C3.36067828,1.04277958 3.04240042,1.04277958 2.79494579,1.42094002 C2.11828535,2.4514927 0.772644117,2.4514927 0.0959836853,1.42094002 C-0.0780878507,1.15456835 -0.00897121136,0.793874907 0.251282801,0.614838212 C0.511536813,0.436674866 0.863946344,0.506542845 1.03887117,0.772914514 C1.28632581,1.15107495 1.60460366,1.15107495 1.8520583,0.772914514 C2.52871873,-0.257638171 3.87350667,-0.257638171 4.55016711,0.772914514 C4.79762174,1.15107495 5.1158996,1.1502016 5.36335423,0.772914514 C6.04001466,-0.257638171 7.38480261,-0.257638171 8.06146304,0.772914514 C8.30891768,1.15107495 8.62634224,1.1502016 8.87465017,0.772914514 C9.0487217,0.506542845 9.40113123,0.436674866 9.66138525,0.614838212 C9.92163926,0.793001557 9.99160919,1.153695 9.81668436,1.42094002 C9.47878079,1.93621636 8.9864314,2.23228192 8.46762996,2.23228192" id="Fill-1" fill="#50AACF" mask="url(#mask-2)"/>
            </g>
          </g>
        </g>
      </g>
    </g>
  </g>
</svg>