<?xml version="1.0" encoding="utf-8"?>
<svg id="wheelchair" viewBox="0 0 24 24" xmlns="http://www.w3.org/2000/svg">
  <path d="M 22.477 20.252 C 22.5 20.966 21.928 21.551 21.219 21.551 L 18.288 21.551 C 17.841 21.551 17.44 21.279 17.275 20.864 L 15.16 15.534 L 8.587 15.534 C 7.979 15.534 7.486 15.041 7.486 14.433 L 7.486 6.337 C 7.475 5.782 7.922 5.326 8.477 5.326 L 9.474 5.326 C 10.021 5.326 10.465 5.769 10.465 6.317 L 10.465 8.6 L 15.579 8.6 C 16.303 8.6 16.892 9.189 16.892 9.913 C 16.892 10.638 16.303 11.226 15.579 11.226 L 10.465 11.226 L 10.465 12.583 L 16.118 12.539 C 16.522 12.535 16.89 12.779 17.044 13.154 L 19.461 19.029 L 21.165 19.029 C 21.854 19.029 22.454 19.561 22.477 20.252 Z M 15.111 18.029 L 16.241 20.729 C 14.695 22.431 12.462 23.5 9.981 23.5 C 5.309 23.5 1.522 19.713 1.522 15.041 C 1.522 11.62 3.556 8.674 6.478 7.342 L 6.478 10.247 C 5.003 11.329 4.043 13.073 4.043 15.041 C 4.043 18.321 6.701 20.978 9.981 20.978 C 12.17 20.978 14.082 19.793 15.111 18.029 Z M 10.703 2.578 C 10.703 3.726 9.773 4.656 8.625 4.656 C 7.477 4.656 6.547 3.726 6.547 2.578 C 6.547 1.43 7.477 0.5 8.625 0.5 C 9.773 0.5 10.703 1.43 10.703 2.578 Z"/>
</svg>