<?xml version="1.0" encoding="utf-8"?>
<svg id="wings" viewBox="0 0 24 24" xmlns="http://www.w3.org/2000/svg">
  <path d="M 19.058 8.999 C 19.598 11.871 20.127 14.687 20.664 17.54 L 8.961 17.54 C 9.004 17.63 9.027 17.688 9.056 17.739 C 9.606 18.659 10.361 19.134 11.323 19.135 C 14.931 19.138 18.538 19.137 22.146 19.136 C 22.215 19.136 22.283 19.128 22.357 19.124 C 22.353 19.07 22.353 19.032 22.346 18.997 C 21.835 16.273 21.341 13.545 20.801 10.83 C 20.598 9.815 19.971 9.239 19.058 8.999 Z M 18.884 15.872 C 18.872 15.789 18.867 15.736 18.857 15.682 C 18.329 12.877 17.798 10.072 17.276 7.265 C 16.983 5.687 16.119 4.862 14.733 4.862 C 10.39 4.862 6.046 4.862 1.703 4.862 C 1.608 4.862 1.514 4.862 1.391 4.862 C 1.426 4.988 1.451 5.092 1.483 5.193 C 1.916 6.567 2.977 7.415 4.286 7.42 C 6.157 7.426 8.029 7.421 9.901 7.421 C 9.993 7.421 10.085 7.421 10.184 7.421 L 10.184 9.097 L 2.684 9.097 C 2.748 9.304 2.786 9.474 2.85 9.628 C 3.408 10.972 4.338 11.643 5.609 11.65 C 7.52 11.662 9.432 11.654 11.343 11.654 C 11.434 11.654 11.524 11.654 11.614 11.654 L 11.614 13.319 L 4.121 13.319 C 4.157 13.461 4.178 13.568 4.211 13.669 C 4.647 15.02 5.722 15.871 7.009 15.871 C 10.887 15.874 14.765 15.872 18.642 15.872 L 18.884 15.872 Z M 0.513 3.661 C 5.242 3.661 9.97 3.66 14.7 3.662 C 16.34 3.663 17.677 4.772 18.178 6.546 C 18.245 6.786 18.307 7.032 18.335 7.281 C 18.36 7.514 18.452 7.57 18.638 7.584 C 20.097 7.7 21.304 8.87 21.661 10.533 C 21.848 11.404 21.999 12.286 22.163 13.163 C 22.599 15.481 23.513 20.338 23.513 20.338 C 19.465 20.338 15.416 20.343 11.368 20.337 C 9.686 20.334 8.329 19.246 7.701 17.415 C 7.64 17.235 7.546 17.238 7.425 17.243 C 6.29 17.286 5.285 16.893 4.443 15.996 C 3.523 15.018 3.084 13.785 3.093 12.337 C 3.095 12.101 3.037 11.937 2.894 11.766 C 2.093 10.803 1.722 9.635 1.74 8.3 C 1.744 8.004 1.683 7.784 1.507 7.555 C 0.977 6.862 0.665 6.039 0.554 5.115 C 0.548 5.066 0.502 4.422 0.488 4.374 C 0.488 3.937 0.513 4.098 0.513 3.661 Z" />
</svg>