<?xml version="1.0" encoding="utf-8"?>
<!-- Generator: Adobe Illustrator 25.4.1, SVG Export Plug-In . SVG Version: 6.00 Build 0)  -->
<svg version="1.1" id="JADE_DECK_04" xmlns="http://www.w3.org/2000/svg" xmlns:xlink="http://www.w3.org/1999/xlink" x="0px"
	 y="0px" width="127.7px" height="1080.7px" viewBox="0 0 127.7 1080.7" style="enable-background:new 0 0 127.7 1080.7;"
	 xml:space="preserve">
<style type="text/css">
	.st0{fill:#FFFFFF;}
	.st1{fill:none;stroke:#D5DCE0;stroke-width:0.5;}
	.st2{fill:#6E8496;}
	.st3{fill:#EFF2F5;stroke:#FFFFFF;stroke-width:0.5;stroke-miterlimit:10;}
	.st4{fill:none;stroke:#EFF2F5;stroke-width:0.5;stroke-miterlimit:10;stroke-dasharray:1.9798,1.9798;}
	.st5{fill:none;}
	.st6{fill:none;stroke:#076FA0;stroke-miterlimit:10;}
</style>
<g id="JADE_DECK_04_BOTTOM">
	<path class="st0" d="M75.1,1080.1c16.8-0.8,47-4.3,52-18.3c0.2-20.2,0.2-825.2,0.2-825.2s-0.2-32.5-0.6-36.4
		c-0.1-1.4-0.8-21.8-1.7-31C121.4,133.9,114.9,59.9,65,1c-0.3-0.2-0.6-0.4-0.9-0.5h-0.5C63.3,0.6,63,0.7,62.7,1
		C10.4,61.6,5.1,146.5,2.5,171.7c-0.9,12.5-1.3,27.1-1.5,28.5c-0.3,3.9-0.6,36.4-0.6,36.4s0.1,805,0.2,825.2
		c5.2,14.6,37.4,17.8,53.8,18.4L75.1,1080.1z"/>
	<line class="st1" x1="53.1" y1="250.1" x2="53.1" y2="259.4"/>
	<line class="st1" x1="62.6" y1="250.1" x2="62.6" y2="259.4"/>
	<line class="st1" x1="72.1" y1="250.1" x2="72.1" y2="259.4"/>
	<polygon class="st1" points="43.6,250.3 81.7,250.3 81.7,259.5 43.6,259.5 	"/>
	<line class="st1" x1="51.3" y1="629.4" x2="51.3" y2="638.7"/>
	<line class="st1" x1="61.2" y1="629.4" x2="61.2" y2="638.7"/>
	<line class="st1" x1="71.1" y1="629.4" x2="71.1" y2="638.7"/>
	<polygon class="st1" points="41.4,629.6 81.1,629.6 81.1,638.8 41.4,638.8 	"/>
	<line class="st1" x1="43.8" y1="250.4" x2="53" y2="259.5"/>
	<line class="st1" x1="53" y1="250.7" x2="44.1" y2="259.5"/>
	<line class="st1" x1="53.1" y1="250.5" x2="62.2" y2="259.5"/>
	<line class="st1" x1="62.6" y1="250.1" x2="53.3" y2="259.5"/>
	<line class="st1" x1="62.5" y1="250.4" x2="71.8" y2="259.5"/>
	<line class="st1" x1="72.2" y1="250.4" x2="62.9" y2="259.5"/>
	<line class="st1" x1="72.2" y1="250.4" x2="81.6" y2="259.5"/>
	<line class="st1" x1="81.6" y1="250.7" x2="72.7" y2="259.5"/>
	<line class="st1" x1="41.6" y1="629.6" x2="51.1" y2="638.7"/>
	<line class="st1" x1="51.3" y1="629.8" x2="41.5" y2="638.7"/>
	<line class="st1" x1="51.3" y1="630.3" x2="61" y2="638.7"/>
	<line class="st1" x1="61.1" y1="629.7" x2="51.3" y2="638.7"/>
	<line class="st1" x1="61.3" y1="630.3" x2="71.1" y2="638.7"/>
	<line class="st1" x1="71.2" y1="629.7" x2="61.2" y2="638.7"/>
	<line class="st1" x1="71.2" y1="629.5" x2="81.1" y2="638.8"/>
	<line class="st1" x1="81.1" y1="629.6" x2="71.1" y2="638.7"/>
	<path class="st1" d="M70.9,271.5c-0.3,0-0.6,0.2-0.6,0.5"/>
	<line class="st1" x1="77.8" y1="271.5" x2="70.9" y2="271.5"/>
	<line class="st1" x1="70.3" y1="272.1" x2="70.3" y2="274.1"/>
	<line class="st1" x1="70.3" y1="274.1" x2="56.8" y2="274.1"/>
	<path class="st1" d="M56.8,272.1c0-0.3-0.3-0.5-0.6-0.5"/>
	<line class="st1" x1="56.8" y1="274.1" x2="56.8" y2="272.1"/>
	<line class="st1" x1="56.2" y1="271.5" x2="49.3" y2="271.5"/>
	<line class="st1" x1="63.7" y1="284.2" x2="63.7" y2="271.4"/>
	<line class="st1" x1="63.4" y1="284.2" x2="63.4" y2="271.4"/>
	<line class="st1" x1="77.5" y1="283.5" x2="63.7" y2="283.5"/>
	<line class="st1" x1="63.7" y1="271.4" x2="63.4" y2="271.4"/>
	<line class="st1" x1="63.7" y1="284.2" x2="63.4" y2="284.2"/>
	<line class="st1" x1="63.4" y1="283.5" x2="49.1" y2="283.5"/>
	<line class="st1" x1="63.4" y1="282.2" x2="57.4" y2="282.2"/>
	<line class="st1" x1="63.4" y1="280.8" x2="57.4" y2="280.8"/>
	<line class="st1" x1="63.4" y1="279.4" x2="57.4" y2="279.4"/>
	<line class="st1" x1="63.4" y1="278.1" x2="57.4" y2="278.1"/>
	<line class="st1" x1="63.4" y1="276.7" x2="57.4" y2="276.7"/>
	<line class="st1" x1="63.4" y1="275.4" x2="57.4" y2="275.4"/>
	<line class="st1" x1="63.4" y1="272.6" x2="56.8" y2="272.6"/>
	<line class="st1" x1="69.8" y1="282.2" x2="63.7" y2="282.2"/>
	<line class="st1" x1="69.8" y1="280.8" x2="63.7" y2="280.8"/>
	<line class="st1" x1="69.8" y1="279.4" x2="63.7" y2="279.4"/>
	<line class="st1" x1="69.8" y1="278.1" x2="63.7" y2="278.1"/>
	<line class="st1" x1="69.8" y1="276.7" x2="63.7" y2="276.7"/>
	<line class="st1" x1="69.8" y1="275.4" x2="63.7" y2="275.4"/>
	<line class="st1" x1="70.4" y1="272.6" x2="63.7" y2="272.6"/>
	<line class="st1" x1="49.1" y1="272.9" x2="56.3" y2="272.9"/>
	<line class="st1" x1="49.2" y1="274.2" x2="57" y2="274.2"/>
	<line class="st1" x1="49" y1="275.6" x2="56.3" y2="275.6"/>
	<line class="st1" x1="49.2" y1="276.9" x2="56.2" y2="276.9"/>
	<line class="st1" x1="70.3" y1="272.9" x2="77.7" y2="272.9"/>
	<line class="st1" x1="70.3" y1="274.2" x2="77.7" y2="274.2"/>
	<line class="st1" x1="70.9" y1="275.6" x2="77.8" y2="275.6"/>
	<line class="st1" x1="70.9" y1="276.9" x2="77.7" y2="276.9"/>
	<path class="st1" d="M56.2,284.3c0,0.3,0.2,0.5,0.6,0.5c0.3,0,0.6-0.2,0.6-0.5l0,0"/>
	<line class="st1" x1="57.3" y1="284.3" x2="57.3" y2="284.2"/>
	<line class="st1" x1="56.2" y1="284.3" x2="56.2" y2="284.2"/>
	<path class="st1" d="M69.8,284.3c0,0.3,0.2,0.5,0.5,0.5c0.3,0,0.6-0.2,0.6-0.5l0,0"/>
	<line class="st1" x1="70.9" y1="284.3" x2="70.9" y2="284.2"/>
	<line class="st1" x1="69.8" y1="284.3" x2="69.8" y2="284.2"/>
	<line class="st1" x1="56.7" y1="284.2" x2="56.7" y2="274.2"/>
	<line class="st1" x1="49.2" y1="279.6" x2="56.3" y2="279.6"/>
	<line class="st1" x1="49.2" y1="280.9" x2="56.3" y2="280.9"/>
	<line class="st1" x1="49.3" y1="282.2" x2="56.3" y2="282.2"/>
	<line class="st1" x1="49.2" y1="278.2" x2="56.3" y2="278.2"/>
	<line class="st1" x1="70.3" y1="284.2" x2="70.3" y2="274.1"/>
	<line class="st1" x1="70.9" y1="279.6" x2="77.7" y2="279.6"/>
	<line class="st1" x1="70.9" y1="280.9" x2="77.7" y2="280.9"/>
	<line class="st1" x1="70.9" y1="282.2" x2="77.6" y2="282.2"/>
	<line class="st1" x1="70.8" y1="278.2" x2="77.8" y2="278.2"/>
	<path class="st1" d="M55.5,616.1c0.3,0,0.6-0.2,0.6-0.5"/>
	<line class="st1" x1="48.5" y1="616.1" x2="55.5" y2="616.1"/>
	<line class="st1" x1="56" y1="615.6" x2="56" y2="613.6"/>
	<line class="st1" x1="56" y1="613.6" x2="69.6" y2="613.6"/>
	<path class="st1" d="M69.6,615.6c0,0.3,0.3,0.5,0.6,0.5"/>
	<line class="st1" x1="69.6" y1="613.6" x2="69.6" y2="615.6"/>
	<line class="st1" x1="70.2" y1="616.1" x2="77.2" y2="616.1"/>
	<line class="st1" x1="62.7" y1="603.8" x2="62.7" y2="616.3"/>
	<line class="st1" x1="63" y1="603.8" x2="63" y2="616.3"/>
	<line class="st1" x1="48.9" y1="604.5" x2="62.7" y2="604.5"/>
	<line class="st1" x1="62.7" y1="616.3" x2="63" y2="616.3"/>
	<line class="st1" x1="62.7" y1="603.8" x2="63" y2="603.8"/>
	<line class="st1" x1="63" y1="604.5" x2="77.3" y2="604.5"/>
	<line class="st1" x1="63" y1="605.8" x2="69" y2="605.8"/>
	<line class="st1" x1="63" y1="607.1" x2="69" y2="607.1"/>
	<line class="st1" x1="63" y1="608.4" x2="69" y2="608.4"/>
	<line class="st1" x1="63" y1="609.8" x2="69" y2="609.8"/>
	<line class="st1" x1="63" y1="611.1" x2="69" y2="611.1"/>
	<line class="st1" x1="63" y1="612.4" x2="69" y2="612.4"/>
	<line class="st1" x1="63" y1="615" x2="69.6" y2="615"/>
	<line class="st1" x1="56.6" y1="605.8" x2="62.7" y2="605.8"/>
	<line class="st1" x1="56.6" y1="607.1" x2="62.7" y2="607.1"/>
	<line class="st1" x1="56.6" y1="608.4" x2="62.7" y2="608.4"/>
	<line class="st1" x1="56.6" y1="609.8" x2="62.7" y2="609.8"/>
	<line class="st1" x1="56.6" y1="611.1" x2="62.7" y2="611.1"/>
	<line class="st1" x1="56.6" y1="612.4" x2="62.7" y2="612.4"/>
	<line class="st1" x1="56" y1="615" x2="62.7" y2="615"/>
	<line class="st1" x1="77.3" y1="614.8" x2="70.1" y2="614.8"/>
	<line class="st1" x1="77.2" y1="613.5" x2="69.4" y2="613.5"/>
	<line class="st1" x1="77.4" y1="612.2" x2="70.1" y2="612.2"/>
	<line class="st1" x1="77.2" y1="610.9" x2="70.2" y2="610.9"/>
	<line class="st1" x1="56.1" y1="614.8" x2="48.7" y2="614.8"/>
	<line class="st1" x1="56.1" y1="613.5" x2="48.6" y2="613.5"/>
	<line class="st1" x1="55.5" y1="612.2" x2="48.6" y2="612.2"/>
	<line class="st1" x1="55.5" y1="610.9" x2="48.6" y2="610.9"/>
	<path class="st1" d="M70.2,603.7c0-0.3-0.2-0.5-0.6-0.5s-0.6,0.2-0.6,0.5l0,0"/>
	<line class="st1" x1="69.1" y1="603.7" x2="69.1" y2="603.8"/>
	<line class="st1" x1="70.2" y1="603.7" x2="70.2" y2="603.8"/>
	<path class="st1" d="M56.6,603.7c0-0.3-0.2-0.5-0.5-0.5c-0.3,0-0.6,0.2-0.6,0.5l0,0"/>
	<line class="st1" x1="55.5" y1="603.7" x2="55.5" y2="603.8"/>
	<line class="st1" x1="56.6" y1="603.7" x2="56.6" y2="603.8"/>
	<line class="st1" x1="69.7" y1="603.8" x2="69.7" y2="613.5"/>
	<line class="st1" x1="77.2" y1="608.3" x2="70.1" y2="608.3"/>
	<line class="st1" x1="77.2" y1="607" x2="70.1" y2="607"/>
	<line class="st1" x1="77.1" y1="605.7" x2="70.1" y2="605.7"/>
	<line class="st1" x1="77.2" y1="609.6" x2="70.1" y2="609.6"/>
	<line class="st1" x1="56" y1="603.8" x2="56" y2="613.7"/>
	<line class="st1" x1="55.5" y1="608.3" x2="48.7" y2="608.3"/>
	<line class="st1" x1="55.5" y1="607" x2="48.7" y2="607"/>
	<line class="st1" x1="55.5" y1="605.7" x2="48.8" y2="605.7"/>
	<line class="st1" x1="55.6" y1="609.6" x2="48.5" y2="609.6"/>
	<polyline class="st1" points="89.5,270.2 89.5,541.2 89.2,541.2 86.4,541.2 86.4,596.1 90.7,596.1 90.7,616.3 77.2,616.3 
		77.2,600.6 48.2,600.6 48.2,616.9 41.3,616.9 41.3,596.6 30,596.6 30,553.1 	"/>
	<rect x="30" y="629.4" class="st1" width="58.8" height="75.9"/>
	<polyline class="st1" points="55.2,295.1 30.4,294.9 30.2,270.4 48.8,270.4 48.8,287 77.8,287 77.8,270.2 89.7,270.2 	"/>
	<polyline class="st1" points="55.3,368.5 55.3,379.5 30.7,379.6 30.4,434.5 	"/>
	<path class="st2" d="M42.3,663.6h1l0.7,2l0.7-2h1v5.6h-0.9v-3.4l-0.7,2.1h0l-0.7-2.1v3.4h-0.9C42.3,669.2,42.3,663.6,42.3,663.6z
		 M46.2,663.6h2.1v0.9h-1.2v1.4h1v0.9h-1v1.4h1.2v0.9h-2.2C46.2,669.2,46.2,663.6,46.2,663.6z M48.9,663.6h0.9c1.2,0,2,0.9,2,2.7
		v0.2c0,1.8-0.7,2.7-2,2.7h-0.9V663.6z M49.9,668.3c0.5,0,0.9-0.4,0.9-1.8v-0.2c0-1.4-0.4-1.8-0.9-1.8h0L49.9,668.3L49.9,668.3z
		 M52.2,663.6h1v5.6h-1V663.6z M53.7,666.5v-0.2c0-2,0.7-2.7,1.6-2.7c0.3,0,0.4,0,0.6,0.1v1c-0.2-0.1-0.4-0.2-0.5-0.2
		c-0.4,0-0.7,0.4-0.7,1.8v0.2c0,1.5,0.3,1.8,0.8,1.8c0.2,0,0.3-0.1,0.5-0.2v1c-0.2,0.1-0.4,0.2-0.7,0.2
		C54.4,669.2,53.7,668.4,53.7,666.5z M57.3,663.6h1l1.1,5.6h-1l-0.2-1.1h-0.9l-0.2,1.1h-0.9L57.3,663.6z M58.1,667.2l-0.3-1.8
		l-0.3,1.8H58.1z M59.7,663.6h1v4.7h1v0.9h-2V663.6z M63.2,666.5v-0.2c0-2,0.7-2.7,1.6-2.7c0.3,0,0.4,0,0.6,0.1v1
		c-0.2-0.1-0.4-0.2-0.5-0.2c-0.4,0-0.7,0.4-0.7,1.8v0.2c0,1.5,0.3,1.8,0.8,1.8c0.2,0,0.3-0.1,0.5-0.2v1c-0.2,0.1-0.4,0.2-0.7,0.2
		C63.9,669.2,63.2,668.4,63.2,666.5z M66,663.6h2.1v0.9H67v1.4h1v0.9h-1v1.4h1.2v0.9H66V663.6z M68.7,663.6h0.9l1,2.8v-2.8h1v5.6
		h-0.9l-1-3v3h-1C68.7,669.2,68.7,663.6,68.7,663.6z M72.6,664.5h-0.7v-0.9h2.4v0.9h-0.7v4.7h-1V664.5z M74.7,663.6h2.1v0.9h-1.2
		v1.4h1v0.9h-1v1.4h1.2v0.9h-2.2V663.6z M77.3,663.6h1c1,0,1.7,0.5,1.7,1.8v0.1c0,0.7-0.3,1.2-0.7,1.5l0.8,2.3h-1l-0.6-2h-0.2v2h-1
		L77.3,663.6L77.3,663.6z M78.3,666.4c0.4,0,0.7-0.2,0.7-0.9v-0.1c0-0.7-0.3-0.9-0.8-0.9h0L78.3,666.4L78.3,666.4L78.3,666.4z"/>
</g>
<g id="JADE_DECK_04_ROOMS">
	<g id="gDeck04InsideIF">
		<g id="hDeck04InsideIF">
			<g id="g4505">
				<g id="h4505">
					<rect id="b4505" x="45.1" y="152.1" class="st3" width="21.5" height="10.7"/>
					<path id="t4505" class="st2" d="M52.3,158.1v0.4h-0.5v0.6h-0.5v-0.6h-2l2.5-3.7v3.3H52.3z M51.3,156.4L51.3,156.4l-1.2,1.7h1.2
						V156.4z M54.1,155.5l-0.3,0.9l0.3,0c0.8,0,1.3,0.7,1.3,1.4c0,0.9-0.7,1.5-1.5,1.5c-0.5,0-1-0.3-1.2-0.7l0.4-0.4
						c0.1,0.4,0.5,0.6,0.9,0.6c0.5,0,1-0.5,1-1c0-0.5-0.4-1-1-1c-0.3,0-0.6,0.1-0.8,0.4h-0.1l0.6-2.1h1.6v0.5L54.1,155.5L54.1,155.5
						z M55.9,157.1c0-0.9,0.4-2.2,1.4-2.2s1.4,1.3,1.4,2.2c0,0.8-0.4,2.2-1.4,2.2S55.9,157.9,55.9,157.1z M56.3,157.1
						c0,0.6,0.2,1.7,0.9,1.7s0.9-1.1,0.9-1.7s-0.2-1.7-0.9-1.7S56.3,156.5,56.3,157.1z M60.4,155.5l-0.3,0.9l0.3,0
						c0.8,0,1.3,0.7,1.3,1.4c0,0.9-0.7,1.5-1.5,1.5c-0.5,0-1-0.3-1.2-0.7l0.4-0.4c0.1,0.4,0.5,0.6,0.9,0.6c0.5,0,1-0.5,1-1
						c0-0.5-0.4-1-1-1c-0.3,0-0.6,0.1-0.8,0.4h-0.1l0.6-2.1h1.6v0.5L60.4,155.5L60.4,155.5z"/>
				</g>
			</g>
			<g id="g4507">
				<g id="h4507">
					<rect id="b4507" x="45.1" y="162.7" class="st3" width="21.5" height="11.1"/>
					<path id="t4507" class="st2" d="M52.6,169.5v0.4h-0.5v0.6h-0.5V170h-2l2.5-3.7v3.3H52.6z M51.6,167.8L51.6,167.8l-1.2,1.7h1.2
						V167.8z M54.4,166.9l-0.3,0.9l0.3,0c0.8,0,1.3,0.7,1.3,1.4c0,0.9-0.7,1.5-1.5,1.5c-0.5,0-1-0.3-1.2-0.7l0.4-0.4
						c0.1,0.4,0.5,0.6,0.9,0.6c0.5,0,1-0.5,1-1c0-0.5-0.4-1-1-1c-0.3,0-0.6,0.1-0.8,0.4h-0.1l0.6-2.1h1.6v0.5L54.4,166.9L54.4,166.9
						z M56.2,168.5c0-0.9,0.4-2.2,1.4-2.2s1.4,1.3,1.4,2.2c0,0.8-0.4,2.2-1.4,2.2S56.2,169.3,56.2,168.5z M56.7,168.5
						c0,0.6,0.2,1.7,0.9,1.7s0.9-1.1,0.9-1.7s-0.2-1.7-0.9-1.7S56.7,167.9,56.7,168.5z M59.3,166.9v-0.5h2.9l-2.5,4.2l-0.4-0.2
						l2.1-3.5L59.3,166.9L59.3,166.9z"/>
				</g>
			</g>
			<g id="g4509">
				<g id="h4509">
					<polygon id="b4509" class="st3" points="66.6,173.8 45.1,173.8 45.1,184 66.6,184.1 					"/>
					<path id="t4509" class="st2" d="M52,179.7v0.4h-0.5v0.6h-0.5v-0.6h-2l2.5-3.7v3.3H52z M51.1,178L51.1,178l-1.2,1.7h1.2
						L51.1,178L51.1,178z M53.8,177.1l-0.3,0.9l0.3,0c0.8,0,1.3,0.7,1.3,1.4c0,0.9-0.7,1.5-1.5,1.5c-0.5,0-1-0.3-1.2-0.7l0.4-0.4
						c0.1,0.4,0.5,0.6,0.9,0.6c0.5,0,1-0.5,1-1c0-0.5-0.4-1-1-1c-0.3,0-0.6,0.1-0.8,0.4h-0.1l0.6-2.1h1.6v0.5L53.8,177.1L53.8,177.1
						z M55.6,178.7c0-0.9,0.4-2.2,1.4-2.2s1.4,1.3,1.4,2.2c0,0.8-0.4,2.2-1.4,2.2S55.6,179.5,55.6,178.7z M56.1,178.7
						c0,0.6,0.2,1.7,0.9,1.7s0.9-1.1,0.9-1.7S57.8,177,57,177S56.1,178.1,56.1,178.7z M59.4,180.6l1.1-1.5l0,0
						c-0.1,0.1-0.3,0.1-0.4,0.1c-0.7,0-1.2-0.6-1.2-1.3c0-0.8,0.6-1.4,1.3-1.4c0.7,0,1.4,0.6,1.4,1.3c0,0.4-0.2,0.8-0.4,1.1
						l-1.4,1.9L59.4,180.6z M61.1,177.8c0-0.4-0.4-0.9-0.8-0.9c-0.5,0-0.9,0.4-0.9,0.9c0,0.5,0.4,0.9,0.9,0.9
						C60.8,178.7,61.1,178.3,61.1,177.8z"/>
				</g>
			</g>
			<g id="g4533">
				<g id="h4533">
					<rect id="b4533" x="55.1" y="293.8" class="st3" width="20.1" height="10.4"/>
					<path id="t4533" class="st2" d="M61.8,299.6v0.5h-0.5v0.6h-0.5V300h-2l2.5-3.7v3.3H61.8z M60.9,297.9L60.9,297.9l-1.2,1.7h1.2
						V297.9z M63.7,297l-0.3,0.9l0.3,0c0.8,0,1.3,0.7,1.3,1.5c0,0.9-0.7,1.5-1.5,1.5c-0.5,0-1-0.3-1.2-0.7l0.4-0.4
						c0.1,0.4,0.5,0.6,0.9,0.6c0.5,0,1-0.5,1-1c0-0.5-0.4-1-1-1c-0.3,0-0.6,0.1-0.8,0.4h-0.1l0.6-2.1h1.6v0.5L63.7,297L63.7,297z
						 M66.7,298.2c0.4,0,0.8-0.2,0.8-0.7c0-0.4-0.3-0.7-0.7-0.7c-0.4,0-0.6,0.2-0.7,0.6h-0.5c0.1-0.7,0.5-1,1.2-1
						c0.6,0,1.2,0.4,1.2,1.1c0,0.4-0.2,0.7-0.5,0.9c0.4,0.2,0.6,0.6,0.6,1c0,0.8-0.6,1.2-1.3,1.2c-0.6,0-1.2-0.4-1.2-1.1H66
						c0,0.4,0.4,0.7,0.8,0.7c0.5,0,0.8-0.4,0.8-0.8c0-0.5-0.4-0.8-0.9-0.8L66.7,298.2L66.7,298.2z M69.8,298.2
						c0.4,0,0.8-0.2,0.8-0.7c0-0.4-0.3-0.7-0.7-0.7c-0.4,0-0.6,0.2-0.7,0.6h-0.5c0.1-0.7,0.5-1,1.2-1c0.6,0,1.2,0.4,1.2,1.1
						c0,0.4-0.2,0.7-0.5,0.9c0.4,0.2,0.6,0.6,0.6,1c0,0.8-0.6,1.2-1.3,1.2c-0.6,0-1.2-0.4-1.2-1.1h0.5c0,0.4,0.4,0.7,0.8,0.7
						c0.5,0,0.8-0.4,0.8-0.8c0-0.5-0.4-0.8-0.9-0.8L69.8,298.2L69.8,298.2z"/>
				</g>
			</g>
			<g id="g4535">
				<g id="h4535">
					<rect id="b4535" x="55.1" y="304.3" class="st3" width="20.1" height="10.7"/>
					<path id="t4535" class="st2" d="M61.8,310.9v0.5h-0.5v0.6h-0.5v-0.6h-2l2.5-3.7v3.3H61.8z M60.9,309.2L60.9,309.2l-1.2,1.7h1.2
						V309.2z M63.7,308.3l-0.3,0.9l0.3,0c0.8,0,1.3,0.7,1.3,1.5c0,0.9-0.7,1.5-1.5,1.5c-0.5,0-1-0.3-1.2-0.7l0.4-0.4
						c0.1,0.4,0.5,0.6,0.9,0.6c0.5,0,1-0.5,1-1c0-0.5-0.4-1-1-1c-0.3,0-0.6,0.1-0.8,0.4h-0.1l0.6-2.1h1.6v0.5L63.7,308.3L63.7,308.3
						z M66.7,309.5c0.4,0,0.8-0.2,0.8-0.7c0-0.4-0.3-0.7-0.7-0.7c-0.4,0-0.6,0.2-0.7,0.6h-0.5c0.1-0.7,0.5-1,1.2-1
						c0.6,0,1.2,0.4,1.2,1.1c0,0.4-0.2,0.7-0.5,0.9c0.4,0.2,0.6,0.6,0.6,1c0,0.8-0.6,1.2-1.3,1.2c-0.6,0-1.2-0.4-1.2-1.1H66
						c0,0.4,0.4,0.7,0.8,0.7c0.5,0,0.8-0.4,0.8-0.8c0-0.5-0.4-0.8-0.9-0.8L66.7,309.5L66.7,309.5z M69.9,308.3l-0.3,0.9l0.3,0
						c0.8,0,1.3,0.7,1.3,1.5c0,0.9-0.7,1.5-1.5,1.5c-0.5,0-1-0.3-1.2-0.7l0.4-0.4c0.1,0.4,0.5,0.6,0.9,0.6c0.5,0,1-0.5,1-1
						c0-0.5-0.4-1-1-1c-0.3,0-0.6,0.1-0.8,0.4H69l0.6-2.1h1.6v0.5L69.9,308.3L69.9,308.3z"/>
				</g>
			</g>
			<g id="g4537">
				<g id="h4537">
					<rect id="b4537" x="55.1" y="314.9" class="st3" width="20.1" height="11.1"/>
					<path id="t4537" class="st2" d="M61.9,321.6v0.5h-0.5v0.6h-0.5V322h-2l2.5-3.7v3.3H61.9z M60.9,319.9L60.9,319.9l-1.2,1.7h1.2
						V319.9z M63.7,318.9l-0.3,0.9l0.3,0c0.8,0,1.3,0.7,1.3,1.5c0,0.9-0.7,1.5-1.5,1.5c-0.5,0-1-0.3-1.2-0.7l0.4-0.4
						c0.1,0.4,0.5,0.6,0.9,0.6c0.5,0,1-0.5,1-1c0-0.5-0.4-1-1-1c-0.3,0-0.6,0.1-0.8,0.4h-0.1l0.6-2.1H65v0.5L63.7,318.9L63.7,318.9z
						 M66.7,320.2c0.4,0,0.8-0.2,0.8-0.7c0-0.4-0.3-0.7-0.7-0.7c-0.4,0-0.6,0.2-0.7,0.6h-0.5c0.1-0.7,0.5-1,1.2-1
						c0.6,0,1.2,0.4,1.2,1.1c0,0.4-0.2,0.7-0.5,0.9c0.4,0.2,0.6,0.6,0.6,1c0,0.8-0.6,1.2-1.3,1.2c-0.6,0-1.2-0.4-1.2-1.1H66
						c0,0.4,0.4,0.7,0.8,0.7c0.5,0,0.8-0.4,0.8-0.8c0-0.5-0.4-0.8-0.9-0.8L66.7,320.2L66.7,320.2z M68.6,318.9v-0.5h2.9l-2.5,4.2
						l-0.4-0.2l2.1-3.5H68.6z"/>
				</g>
			</g>
			<g id="g4539">
				<g id="h4539">
					<rect id="b4539" x="55.1" y="326" class="st3" width="20.1" height="10.9"/>
					<path id="t4539" class="st2" d="M61.9,331.9v0.5h-0.5v0.6h-0.5v-0.6h-2l2.5-3.7v3.3H61.9z M60.9,330.2L60.9,330.2l-1.2,1.7h1.2
						L60.9,330.2L60.9,330.2z M63.7,329.3l-0.3,0.9l0.3,0c0.8,0,1.3,0.7,1.3,1.5c0,0.9-0.7,1.5-1.5,1.5c-0.5,0-1-0.3-1.2-0.7
						l0.4-0.4c0.1,0.4,0.5,0.6,0.9,0.6c0.5,0,1-0.5,1-1c0-0.5-0.4-1-1-1c-0.3,0-0.6,0.1-0.8,0.4h-0.1l0.6-2.1H65v0.5L63.7,329.3
						L63.7,329.3z M66.7,330.6c0.4,0,0.8-0.2,0.8-0.7c0-0.4-0.3-0.7-0.7-0.7c-0.4,0-0.6,0.2-0.7,0.6h-0.5c0.1-0.7,0.5-1,1.2-1
						c0.6,0,1.2,0.4,1.2,1.1c0,0.4-0.2,0.7-0.5,0.9c0.4,0.2,0.6,0.6,0.6,1c0,0.8-0.6,1.2-1.3,1.2c-0.6,0-1.2-0.4-1.2-1.1H66
						c0,0.4,0.4,0.7,0.8,0.7c0.5,0,0.8-0.4,0.8-0.8c0-0.5-0.4-0.8-0.9-0.8L66.7,330.6L66.7,330.6z M69.1,332.8l1.1-1.5l0,0
						c-0.1,0.1-0.3,0.1-0.4,0.1c-0.7,0-1.2-0.6-1.2-1.3c0-0.8,0.6-1.4,1.3-1.4c0.7,0,1.4,0.6,1.4,1.3c0,0.4-0.2,0.8-0.4,1.1
						l-1.4,1.9L69.1,332.8z M70.8,330.1c0-0.4-0.4-0.9-0.8-0.9c-0.5,0-0.9,0.4-0.9,0.9c0,0.5,0.4,0.9,0.9,0.9
						C70.5,330.9,70.8,330.5,70.8,330.1z"/>
				</g>
			</g>
			<g id="g4541">
				<g id="h4541">
					<rect id="b4541" x="55.1" y="336.9" class="st3" width="20.1" height="10.7"/>
					<path id="t4541" class="st2" d="M62,343.1v0.5h-0.5v0.6H61v-0.6h-2l2.5-3.7v3.3H62z M61,341.4L61,341.4l-1.2,1.7H61V341.4z
						 M63.8,340.5l-0.3,0.9l0.3,0c0.8,0,1.3,0.7,1.3,1.5c0,0.9-0.7,1.5-1.5,1.5c-0.5,0-1-0.3-1.2-0.7l0.4-0.4
						c0.1,0.4,0.5,0.6,0.9,0.6c0.5,0,1-0.5,1-1c0-0.5-0.4-1-1-1c-0.3,0-0.6,0.1-0.8,0.4h-0.1l0.6-2.1h1.6v0.5L63.8,340.5L63.8,340.5
						z M68.4,343.1v0.5h-0.5v0.6h-0.5v-0.6h-2l2.5-3.7v3.3H68.4z M67.5,341.4L67.5,341.4l-1.2,1.7h1.2V341.4z M68.9,340.5l0.3-0.5
						h0.9v4.1h-0.5v-3.7H68.9z"/>
				</g>
			</g>
			<g id="g4543">
				<g id="h4543">
					<rect id="b4543" x="55.1" y="347.5" class="st3" width="20.1" height="10.6"/>
					<path id="t4543" class="st2" d="M61.8,353.6v0.5h-0.5v0.6h-0.5v-0.6h-2l2.5-3.7v3.3H61.8z M60.8,351.9L60.8,351.9l-1.2,1.7h1.2
						V351.9z M63.6,351l-0.3,0.9l0.3,0c0.8,0,1.3,0.7,1.3,1.5c0,0.9-0.7,1.5-1.5,1.5c-0.5,0-1-0.3-1.2-0.7l0.4-0.4
						c0.1,0.4,0.5,0.6,0.9,0.6c0.5,0,1-0.5,1-1c0-0.5-0.4-1-1-1c-0.3,0-0.6,0.1-0.8,0.4h-0.1l0.6-2.1h1.6v0.5L63.6,351L63.6,351z
						 M68.2,353.6v0.5h-0.5v0.6h-0.5v-0.6h-2l2.5-3.7v3.3H68.2z M67.3,351.9L67.3,351.9l-1.2,1.7h1.2L67.3,351.9L67.3,351.9z
						 M69.9,352.3c0.4,0,0.8-0.2,0.8-0.7c0-0.4-0.3-0.7-0.7-0.7c-0.4,0-0.6,0.2-0.7,0.6h-0.5c0.1-0.7,0.5-1,1.2-1
						c0.6,0,1.2,0.4,1.2,1.1c0,0.4-0.2,0.7-0.5,0.9c0.4,0.2,0.6,0.6,0.6,1c0,0.8-0.6,1.2-1.3,1.2c-0.6,0-1.2-0.4-1.2-1.1h0.5
						c0,0.4,0.4,0.7,0.8,0.7c0.5,0,0.8-0.4,0.8-0.8c0-0.5-0.4-0.8-0.9-0.8L69.9,352.3L69.9,352.3z"/>
				</g>
			</g>
			<g id="g4549">
				<g id="h4549">
					<rect id="b4549" x="30.3" y="314.7" class="st3" width="20.1" height="10.9"/>
					<path id="t4549" class="st2" d="M37,321v0.5h-0.5v0.6H36v-0.6h-2l2.5-3.7v3.3H37z M36,319.3L36,319.3l-1.2,1.7H36V319.3z
						 M38.8,318.4l-0.3,0.9l0.3,0c0.8,0,1.3,0.7,1.3,1.5c0,0.9-0.7,1.5-1.5,1.5c-0.5,0-1-0.3-1.2-0.7l0.4-0.4
						c0.1,0.4,0.5,0.6,0.9,0.6c0.5,0,1-0.5,1-1c0-0.5-0.4-1-1-1c-0.3,0-0.6,0.1-0.8,0.4h-0.1l0.6-2.1h1.6v0.5L38.8,318.4L38.8,318.4
						z M43.4,321v0.5h-0.5v0.6h-0.5v-0.6h-2l2.5-3.7v3.3H43.4z M42.5,319.3L42.5,319.3l-1.2,1.7h1.2V319.3z M44.2,321.9l1.1-1.5l0,0
						c-0.1,0.1-0.3,0.1-0.4,0.1c-0.7,0-1.2-0.6-1.2-1.3c0-0.8,0.6-1.4,1.3-1.4c0.7,0,1.4,0.6,1.4,1.3c0,0.4-0.2,0.8-0.4,1.1
						l-1.4,1.9L44.2,321.9z M45.9,319.2c0-0.4-0.4-0.9-0.8-0.9c-0.5,0-0.9,0.4-0.9,0.9c0,0.5,0.4,0.9,0.9,0.9
						C45.6,320,45.9,319.6,45.9,319.2z"/>
				</g>
			</g>
			<g id="g4551">
				<g id="h4551">
					<rect id="b4551" x="30.3" y="325.6" class="st3" width="20.1" height="10.7"/>
					<path id="t4551" class="st2" d="M37,331.9v0.5h-0.5v0.6h-0.5v-0.6h-2l2.5-3.7v3.3H37z M36.1,330.2L36.1,330.2l-1.2,1.7h1.2
						V330.2z M38.9,329.3l-0.3,0.9l0.3,0c0.8,0,1.3,0.7,1.3,1.5c0,0.9-0.7,1.5-1.5,1.5c-0.5,0-1-0.3-1.2-0.7l0.4-0.4
						c0.1,0.4,0.5,0.6,0.9,0.6c0.5,0,1-0.5,1-1c0-0.5-0.4-1-1-1c-0.3,0-0.6,0.1-0.8,0.4h-0.1l0.6-2.1h1.6v0.5L38.9,329.3L38.9,329.3
						z M42,329.3l-0.3,0.9l0.3,0c0.8,0,1.3,0.7,1.3,1.5c0,0.9-0.7,1.5-1.5,1.5c-0.5,0-1-0.3-1.2-0.7L41,332c0.1,0.4,0.5,0.6,0.9,0.6
						c0.5,0,1-0.5,1-1c0-0.5-0.4-1-1-1c-0.3,0-0.6,0.1-0.8,0.4H41l0.6-2.1h1.6v0.5L42,329.3L42,329.3z M44,329.3l0.3-0.5h0.9v4.1
						h-0.5v-3.7H44z"/>
				</g>
			</g>
			<g id="g4531">
				<g id="h4531">
					<rect id="b4531" x="30.2" y="276.7" class="st3" width="11" height="18.3"/>
					<path id="t4531" class="st2" d="M36.6,289H37v0.5h0.6v0.5H37v2l-3.7-2.5h3.3V289z M34.9,290L34.9,290l1.7,1.2V290L34.9,290
						L34.9,290z M34,287.2l0.9,0.3l0-0.3c0-0.8,0.7-1.3,1.5-1.3c0.9,0,1.5,0.7,1.5,1.5c0,0.5-0.3,1-0.7,1.2l-0.4-0.4
						c0.4-0.1,0.6-0.5,0.6-0.9c0-0.5-0.5-1-1-1c-0.5,0-1,0.4-1,1c0,0.3,0.1,0.6,0.4,0.8v0.1l-2.1-0.6v-1.6H34
						C34,285.9,34,287.2,34,287.2z M35.2,284.1c0-0.4-0.2-0.8-0.7-0.8c-0.4,0-0.7,0.3-0.7,0.7c0,0.4,0.2,0.6,0.6,0.7v0.5
						c-0.7-0.1-1-0.5-1-1.2c0-0.6,0.4-1.2,1.1-1.2c0.4,0,0.7,0.2,0.9,0.5c0.2-0.4,0.6-0.6,1-0.6c0.8,0,1.2,0.6,1.2,1.3
						c0,0.6-0.4,1.2-1.1,1.2v-0.5c0.4,0,0.7-0.4,0.7-0.8c0-0.5-0.4-0.8-0.8-0.8c-0.5,0-0.8,0.4-0.8,0.9L35.2,284.1
						C35.2,284.1,35.2,284.1,35.2,284.1z M34,282.1l-0.5-0.3v-0.9h4.1v0.5H34V282.1z"/>
				</g>
			</g>
			<g id="g4547">
				<g id="h4547">
					<rect id="b4547" x="30.3" y="301.5" class="st3" width="20.1" height="13.2"/>
					<path id="t4547" class="st2" d="M36.9,309.8v0.5h-0.5v0.6H36v-0.6h-2l2.5-3.7v3.3H36.9z M36,308L36,308l-1.2,1.7H36V308z
						 M38.8,307.1l-0.3,0.9l0.3,0c0.8,0,1.3,0.7,1.3,1.5c0,0.9-0.7,1.5-1.5,1.5c-0.5,0-1-0.3-1.2-0.7l0.4-0.4
						c0.1,0.4,0.5,0.6,0.9,0.6c0.5,0,1-0.5,1-1c0-0.5-0.4-1-1-1c-0.3,0-0.6,0.1-0.8,0.4h-0.1l0.6-2.1H40v0.5L38.8,307.1L38.8,307.1z
						 M43.4,309.8v0.5h-0.5v0.6h-0.5v-0.6h-2l2.5-3.7v3.3H43.4z M42.4,308L42.4,308l-1.2,1.7h1.2V308z M43.7,307.1v-0.5h2.9
						l-2.5,4.2l-0.4-0.2l2.1-3.5H43.7z"/>
				</g>
			</g>
			<g id="g4545">
				<g id="h4545">
					<rect id="b4545" x="55.1" y="358.1" class="st3" width="20.1" height="10.5"/>
					<path id="t4545" class="st2" d="M61.8,364.3v0.5h-0.5v0.6h-0.5v-0.6h-2l2.5-3.7v3.3H61.8z M60.8,362.6L60.8,362.6l-1.2,1.7h1.2
						L60.8,362.6L60.8,362.6z M63.6,361.7l-0.3,0.9l0.3,0c0.8,0,1.3,0.7,1.3,1.5c0,0.9-0.7,1.5-1.5,1.5c-0.5,0-1-0.3-1.2-0.7
						l0.4-0.4c0.1,0.4,0.5,0.6,0.9,0.6c0.5,0,1-0.5,1-1c0-0.5-0.4-1-1-1c-0.3,0-0.6,0.1-0.8,0.4h-0.1l0.6-2.1h1.6v0.5L63.6,361.7
						L63.6,361.7z M68.2,364.3v0.5h-0.5v0.6h-0.5v-0.6h-2l2.5-3.7v3.3H68.2z M67.2,362.6L67.2,362.6l-1.2,1.7h1.2L67.2,362.6
						L67.2,362.6z M70,361.7l-0.3,0.9l0.3,0c0.8,0,1.3,0.7,1.3,1.5c0,0.9-0.7,1.5-1.5,1.5c-0.5,0-1-0.3-1.2-0.7l0.4-0.4
						c0.1,0.4,0.5,0.6,0.9,0.6c0.5,0,1-0.5,1-1c0-0.5-0.4-1-1-1c-0.3,0-0.6,0.1-0.8,0.4H69l0.6-2.1h1.6v0.5L70,361.7L70,361.7z"/>
				</g>
			</g>
			<g id="g4557">
				<g id="h4557">
					<rect id="b4557" x="30.2" y="357.1" class="st3" width="20.1" height="11.5"/>
					<path id="t4557" class="st2" d="M36.9,363.9v0.5h-0.5v0.6H36v-0.6h-2l2.5-3.7v3.3H36.9z M36,362.2L36,362.2l-1.2,1.7H36V362.2z
						 M38.8,361.3l-0.3,0.9l0.3,0c0.8,0,1.3,0.7,1.3,1.5c0,0.9-0.7,1.5-1.5,1.5c-0.5,0-1-0.3-1.2-0.7l0.4-0.4
						c0.1,0.4,0.5,0.6,0.9,0.6c0.5,0,1-0.5,1-1c0-0.5-0.4-1-1-1c-0.3,0-0.6,0.1-0.8,0.4h-0.1l0.6-2.1H40v0.5L38.8,361.3L38.8,361.3z
						 M41.9,361.3l-0.3,0.9l0.3,0c0.8,0,1.3,0.7,1.3,1.5c0,0.9-0.7,1.5-1.5,1.5c-0.5,0-1-0.3-1.2-0.7l0.4-0.4
						c0.1,0.4,0.5,0.6,0.9,0.6c0.5,0,1-0.5,1-1c0-0.5-0.4-1-1-1c-0.3,0-0.6,0.1-0.8,0.4h-0.1l0.6-2.1h1.6v0.5L41.9,361.3L41.9,361.3
						z M43.7,361.3v-0.5h2.9l-2.5,4.2l-0.4-0.2l2.1-3.5L43.7,361.3L43.7,361.3z"/>
				</g>
			</g>
			<g id="g4604">
				<g id="h4604">
					<rect id="b4604" x="2.6" y="650.1" class="st3" width="21.3" height="22.4"/>
					<path id="t4604" class="st2" d="M9.8,661.7v0.5H9.4v0.6H8.9v-0.6h-2l2.5-3.7v3.3H9.8z M8.9,660L8.9,660l-1.2,1.7h1.2
						C8.9,661.7,8.9,660,8.9,660z M12.5,658.7l-1.1,1.5l0,0c0.1-0.1,0.3-0.1,0.4-0.1c0.7,0,1.2,0.6,1.2,1.3c0,0.8-0.6,1.4-1.3,1.4
						c-0.7,0-1.4-0.6-1.4-1.3c0-0.4,0.2-0.8,0.4-1.1l1.4-1.9L12.5,658.7z M12.5,661.5c0-0.5-0.4-0.9-0.9-0.9c-0.4,0-0.9,0.4-0.9,0.9
						c0,0.5,0.4,0.9,0.9,0.9C12.1,662.4,12.5,662,12.5,661.5z M13.4,660.7c0-0.9,0.4-2.2,1.4-2.2s1.4,1.3,1.4,2.2
						c0,0.8-0.4,2.2-1.4,2.2S13.4,661.5,13.4,660.7z M13.9,660.6c0,0.6,0.2,1.7,0.9,1.7s0.9-1.1,0.9-1.7s-0.2-1.7-0.9-1.7
						S13.9,660.1,13.9,660.6z M19.4,661.7v0.5h-0.5v0.6h-0.5v-0.6h-2l2.5-3.7v3.3H19.4z M18.5,660L18.5,660l-1.2,1.7h1.2V660z"/>
				</g>
			</g>
			<g id="g4501">
				<g id="h4501">
					<rect id="b4501" x="48.5" y="130.2" class="st3" width="20.3" height="11.3"/>
					<path id="t4501" class="st2" d="M55.4,136.6v0.5h-0.5v0.6h-0.5V137h-2l2.5-3.7v3.3H55.4z M54.4,134.9L54.4,134.9l-1.2,1.7h1.2
						V134.9z M57.2,134l-0.3,0.9l0.3,0c0.8,0,1.3,0.7,1.3,1.4c0,0.9-0.7,1.5-1.5,1.5c-0.5,0-1-0.3-1.2-0.7l0.4-0.4
						c0.1,0.4,0.5,0.6,0.9,0.6c0.5,0,1-0.5,1-1c0-0.5-0.4-1-1-1c-0.3,0-0.6,0.1-0.8,0.4h-0.1l0.6-2.1h1.6v0.5H57.2z M59,135.6
						c0-0.9,0.4-2.2,1.4-2.2c1,0,1.4,1.3,1.4,2.2c0,0.8-0.4,2.2-1.4,2.2C59.3,137.7,59,136.4,59,135.6z M59.5,135.6
						c0,0.6,0.2,1.7,0.9,1.7c0.7,0,0.9-1.1,0.9-1.7s-0.2-1.7-0.9-1.7C59.7,133.9,59.5,135,59.5,135.6z M62.3,134l0.3-0.5h0.9v4.1H63
						V134L62.3,134L62.3,134z"/>
				</g>
			</g>
			<g id="g4503">
				<g id="h4503">
					<rect id="b4503" x="48.5" y="141.4" class="st3" width="20.3" height="10.7"/>
					<path id="t4503" class="st2" d="M55.4,148v0.5h-0.5v0.6h-0.5v-0.6h-2l2.5-3.7v3.3H55.4z M54.4,146.3L54.4,146.3l-1.2,1.7h1.2
						V146.3z M57.2,145.4l-0.3,0.9l0.3,0c0.8,0,1.3,0.7,1.3,1.4c0,0.9-0.7,1.5-1.5,1.5c-0.5,0-1-0.3-1.2-0.7l0.4-0.4
						c0.1,0.4,0.5,0.6,0.9,0.6c0.5,0,1-0.5,1-1c0-0.5-0.4-1-1-1c-0.3,0-0.6,0.1-0.8,0.4h-0.1l0.6-2.1h1.6v0.5H57.2z M59,147
						c0-0.9,0.4-2.2,1.4-2.2s1.4,1.3,1.4,2.2c0,0.8-0.4,2.2-1.4,2.2S59,147.8,59,147z M59.4,147c0,0.6,0.2,1.7,0.9,1.7
						c0.7,0,0.9-1.1,0.9-1.7s-0.2-1.7-0.9-1.7C59.7,145.2,59.4,146.4,59.4,147z M63.4,146.6c0.4,0,0.8-0.2,0.8-0.7
						c0-0.4-0.3-0.7-0.7-0.7c-0.4,0-0.6,0.2-0.7,0.6h-0.5c0.1-0.7,0.5-1,1.2-1c0.6,0,1.2,0.4,1.2,1.1c0,0.4-0.2,0.7-0.5,0.9
						c0.4,0.2,0.6,0.6,0.6,1c0,0.8-0.6,1.2-1.3,1.2c-0.6,0-1.2-0.4-1.2-1.1h0.5c0,0.4,0.4,0.7,0.8,0.7c0.5,0,0.8-0.4,0.8-0.8
						c0-0.5-0.4-0.8-0.9-0.8L63.4,146.6L63.4,146.6L63.4,146.6z"/>
				</g>
			</g>
			<g id="g4553">
				<g id="h4553">
					<rect id="b4553" x="30.3" y="336.2" class="st3" width="20" height="10.7"/>
					<path id="t4553" class="st2" d="M36.9,342.6v0.5h-0.5v0.6H36v-0.6h-2l2.5-3.7v3.3H36.9z M36,340.9L36,340.9l-1.2,1.7H36V340.9z
						 M38.8,340l-0.3,0.9l0.3,0c0.8,0,1.3,0.7,1.3,1.5c0,0.9-0.7,1.5-1.5,1.5c-0.5,0-1-0.3-1.2-0.7l0.4-0.4c0.1,0.4,0.5,0.6,0.9,0.6
						c0.5,0,1-0.5,1-1c0-0.5-0.4-1-1-1c-0.3,0-0.6,0.1-0.8,0.4h-0.1l0.6-2.1H40v0.5L38.8,340L38.8,340z M41.9,340l-0.3,0.9l0.3,0
						c0.8,0,1.3,0.7,1.3,1.5c0,0.9-0.7,1.5-1.5,1.5c-0.5,0-1-0.3-1.2-0.7l0.4-0.4c0.1,0.4,0.5,0.6,0.9,0.6c0.5,0,1-0.5,1-1
						c0-0.5-0.4-1-1-1c-0.3,0-0.6,0.1-0.8,0.4h-0.1l0.6-2.1h1.6v0.5L41.9,340L41.9,340z M45,341.3c0.4,0,0.8-0.2,0.8-0.7
						c0-0.4-0.3-0.7-0.7-0.7c-0.4,0-0.6,0.2-0.7,0.6h-0.5c0.1-0.7,0.5-1,1.2-1c0.6,0,1.2,0.4,1.2,1.1c0,0.4-0.2,0.7-0.5,0.9
						c0.4,0.2,0.6,0.6,0.6,1c0,0.8-0.6,1.2-1.3,1.2c-0.6,0-1.2-0.4-1.2-1.1h0.5c0,0.4,0.4,0.7,0.8,0.7c0.5,0,0.8-0.4,0.8-0.8
						c0-0.5-0.4-0.8-0.9-0.8L45,341.3L45,341.3z"/>
				</g>
			</g>
			<g id="g4569">
				<g id="h4569">
					<rect id="b4569" x="29.9" y="434.4" class="st3" width="19.6" height="10.6"/>
					<path id="t4569" class="st2" d="M36.4,441.1v0.5H36v0.6h-0.5v-0.6h-2l2.5-3.7v3.3H36.4z M35.5,439.4L35.5,439.4l-1.2,1.7h1.2
						V439.4z M38.3,438.5l-0.3,0.9l0.3,0c0.8,0,1.3,0.7,1.3,1.5c0,0.9-0.7,1.5-1.5,1.5c-0.5,0-1-0.3-1.2-0.7l0.4-0.4
						c0.1,0.4,0.5,0.6,0.9,0.6c0.5,0,1-0.5,1-1c0-0.5-0.4-1-1-1c-0.3,0-0.6,0.1-0.8,0.4h-0.1l0.6-2.1h1.6v0.5L38.3,438.5L38.3,438.5
						z M42.3,438.2l-1.1,1.5l0,0c0.1-0.1,0.3-0.1,0.4-0.1c0.7,0,1.2,0.6,1.2,1.3c0,0.8-0.6,1.4-1.3,1.4c-0.7,0-1.4-0.6-1.4-1.3
						c0-0.4,0.2-0.8,0.4-1.1l1.4-1.9L42.3,438.2z M42.3,441c0-0.5-0.4-0.9-0.9-0.9c-0.4,0-0.9,0.4-0.9,0.9c0,0.5,0.4,0.9,0.9,0.9
						C41.9,441.8,42.3,441.4,42.3,441z M43.6,442l1.1-1.5l0,0c-0.1,0.1-0.3,0.1-0.4,0.1c-0.7,0-1.2-0.6-1.2-1.3
						c0-0.8,0.6-1.4,1.3-1.4c0.7,0,1.4,0.6,1.4,1.3c0,0.4-0.2,0.8-0.4,1.1l-1.4,1.9L43.6,442z M45.3,439.3c0-0.4-0.4-0.9-0.8-0.9
						c-0.5,0-0.9,0.4-0.9,0.9c0,0.5,0.4,0.9,0.9,0.9C45,440.2,45.3,439.7,45.3,439.3z"/>
				</g>
			</g>
			<g id="g4571">
				<g id="h4571">
					<rect id="b4571" x="29.9" y="445" class="st3" width="19.6" height="10.7"/>
					<path id="t4571" class="st2" d="M36.5,451.6v0.5H36v0.6h-0.5v-0.6h-2l2.5-3.7v3.3L36.5,451.6L36.5,451.6z M35.5,449.9
						L35.5,449.9l-1.2,1.7h1.2V449.9z M38.3,449l-0.3,0.9l0.3,0c0.8,0,1.3,0.7,1.3,1.5c0,0.9-0.7,1.5-1.5,1.5c-0.5,0-1-0.3-1.2-0.7
						l0.4-0.4c0.1,0.4,0.5,0.6,0.9,0.6c0.5,0,1-0.5,1-1c0-0.5-0.4-1-1-1c-0.3,0-0.6,0.1-0.8,0.4h-0.1l0.6-2.1h1.6v0.5L38.3,449
						L38.3,449z M40.1,449v-0.5H43l-2.5,4.2l-0.4-0.2l2.1-3.5H40.1z M43.5,449l0.3-0.5h0.9v4.1h-0.5V449H43.5z"/>
				</g>
			</g>
			<g id="g4573">
				<g id="h4573">
					<rect id="b4573" x="29.9" y="455.7" class="st3" width="19.6" height="11"/>
					<path id="t4573" class="st2" d="M36.4,462.8v0.5H36v0.6h-0.5v-0.6h-2l2.5-3.7v3.3H36.4z M35.5,461.1L35.5,461.1l-1.2,1.7h1.2
						V461.1z M38.2,460.2l-0.3,0.9l0.3,0c0.8,0,1.3,0.7,1.3,1.5c0,0.9-0.7,1.5-1.5,1.5c-0.5,0-1-0.3-1.2-0.7l0.4-0.4
						c0.1,0.4,0.5,0.6,0.9,0.6c0.5,0,1-0.5,1-1c0-0.5-0.4-1-1-1c-0.3,0-0.6,0.1-0.8,0.4h-0.1l0.6-2.1h1.6v0.5L38.2,460.2L38.2,460.2
						z M40.1,460.2v-0.5H43l-2.5,4.2l-0.4-0.2l2.1-3.5H40.1z M44.4,461.5c0.4,0,0.8-0.2,0.8-0.7c0-0.4-0.3-0.7-0.7-0.7
						c-0.4,0-0.6,0.2-0.7,0.6h-0.5c0.1-0.7,0.5-1,1.2-1c0.6,0,1.2,0.4,1.2,1.1c0,0.4-0.2,0.7-0.5,0.9c0.4,0.2,0.6,0.6,0.6,1
						c0,0.8-0.6,1.2-1.3,1.2c-0.6,0-1.2-0.4-1.2-1.1h0.5c0,0.4,0.4,0.7,0.8,0.7c0.5,0,0.8-0.4,0.8-0.8c0-0.5-0.4-0.8-0.9-0.8
						L44.4,461.5L44.4,461.5z"/>
				</g>
			</g>
			<g id="g4575">
				<g id="h4575">
					<rect id="b4575" x="29.9" y="466.7" class="st3" width="19.6" height="10.9"/>
					<path id="t4575" class="st2" d="M36.5,473.1v0.5h-0.5v0.6h-0.5v-0.6h-2l2.5-3.7v3.3H36.5z M35.6,471.4L35.6,471.4l-1.2,1.7h1.2
						V471.4z M38.4,470.5l-0.3,0.9l0.3,0c0.8,0,1.3,0.7,1.3,1.5c0,0.9-0.7,1.5-1.5,1.5c-0.5,0-1-0.3-1.2-0.7l0.4-0.4
						c0.1,0.4,0.5,0.6,0.9,0.6c0.5,0,1-0.5,1-1c0-0.5-0.4-1-1-1c-0.3,0-0.6,0.1-0.8,0.4h-0.1l0.6-2.1h1.6v0.5L38.4,470.5L38.4,470.5
						z M40.2,470.5v-0.5h2.9l-2.5,4.2l-0.4-0.2l2.1-3.5H40.2z M44.3,470.5l-0.3,0.9l0.3,0c0.8,0,1.3,0.7,1.3,1.5
						c0,0.9-0.7,1.5-1.5,1.5c-0.5,0-1-0.3-1.2-0.7l0.4-0.4c0.1,0.4,0.5,0.6,0.9,0.6c0.5,0,1-0.5,1-1c0-0.5-0.4-1-1-1
						c-0.3,0-0.6,0.1-0.8,0.4h-0.1l0.6-2.1h1.6v0.5L44.3,470.5L44.3,470.5z"/>
				</g>
			</g>
			<g id="g4577">
				<g id="h4577">
					<rect id="b4577" x="29.9" y="477.5" class="st3" width="19.6" height="10.9"/>
					<path id="t4577" class="st2" d="M36.3,483.9v0.5h-0.5v0.6h-0.5v-0.6h-2l2.5-3.7v3.3H36.3z M35.4,482.2L35.4,482.2l-1.2,1.7h1.2
						L35.4,482.2L35.4,482.2z M38.2,481.3l-0.3,0.9l0.3,0c0.8,0,1.3,0.7,1.3,1.5c0,0.9-0.7,1.5-1.5,1.5c-0.5,0-1-0.3-1.2-0.7
						l0.4-0.4c0.1,0.4,0.5,0.6,0.9,0.6c0.5,0,1-0.5,1-1c0-0.5-0.4-1-1-1c-0.3,0-0.6,0.1-0.8,0.4h-0.1l0.6-2.1h1.6v0.5L38.2,481.3
						L38.2,481.3z M40,481.3v-0.5h2.9l-2.5,4.2l-0.4-0.2l2.1-3.5H40z M43.2,481.3v-0.5h2.9l-2.5,4.2l-0.4-0.2l2.1-3.5H43.2z"/>
				</g>
			</g>
			<g id="g4579">
				<g id="h4579">
					<rect id="b4579" x="29.9" y="488.4" class="st3" width="19.6" height="10.9"/>
					<path id="t4579" class="st2" d="M36.4,494.7v0.5H36v0.6h-0.5v-0.6h-2l2.5-3.7v3.3H36.4z M35.5,493L35.5,493l-1.2,1.7h1.2V493z
						 M38.2,492.1L38,493l0.3,0c0.8,0,1.3,0.7,1.3,1.5c0,0.9-0.7,1.5-1.5,1.5c-0.5,0-1-0.3-1.2-0.7l0.4-0.4c0.1,0.4,0.5,0.6,0.9,0.6
						c0.5,0,1-0.5,1-1c0-0.5-0.4-1-1-1c-0.3,0-0.6,0.1-0.8,0.4h-0.1l0.6-2.1h1.6v0.5L38.2,492.1L38.2,492.1z M40.1,492.1v-0.5H43
						l-2.5,4.2l-0.4-0.2l2.1-3.5H40.1z M43.7,495.6l1.1-1.5l0,0c-0.1,0.1-0.3,0.1-0.4,0.1c-0.7,0-1.2-0.6-1.2-1.3
						c0-0.8,0.6-1.4,1.3-1.4c0.7,0,1.4,0.6,1.4,1.3c0,0.4-0.2,0.8-0.4,1.1l-1.4,1.9L43.7,495.6z M45.4,492.9c0-0.4-0.4-0.9-0.8-0.9
						c-0.5,0-0.9,0.4-0.9,0.9c0,0.5,0.4,0.9,0.9,0.9C45,493.8,45.4,493.3,45.4,492.9z"/>
				</g>
			</g>
			<g id="g4581">
				<g id="h4581">
					<rect id="b4581" x="29.9" y="499.2" class="st3" width="19.6" height="10.7"/>
					<path id="t4581" class="st2" d="M36.5,505.5v0.5h-0.5v0.6h-0.5v-0.6h-2l2.5-3.7v3.3H36.5z M35.6,503.8L35.6,503.8l-1.2,1.7h1.2
						L35.6,503.8L35.6,503.8z M38.3,502.9l-0.3,0.9l0.3,0c0.8,0,1.3,0.7,1.3,1.5c0,0.9-0.7,1.5-1.5,1.5c-0.5,0-1-0.3-1.2-0.7
						l0.4-0.4c0.1,0.4,0.5,0.6,0.9,0.6c0.5,0,1-0.5,1-1c0-0.5-0.4-1-1-1c-0.3,0-0.6,0.1-0.8,0.4h-0.1l0.6-2.1h1.6v0.5L38.3,502.9
						L38.3,502.9z M40.9,504.4c-0.3-0.2-0.5-0.5-0.5-0.9c0-0.7,0.5-1.2,1.2-1.2s1.2,0.5,1.2,1.2c0,0.4-0.2,0.7-0.5,0.9
						c0.4,0.1,0.6,0.5,0.6,1c0,0.8-0.6,1.2-1.3,1.2s-1.3-0.5-1.3-1.2C40.2,504.9,40.4,504.5,40.9,504.4z M40.7,505.4
						c0,0.4,0.4,0.8,0.8,0.8c0.4,0,0.8-0.4,0.8-0.8c0-0.4-0.4-0.8-0.8-0.8C41.1,504.6,40.7,504.9,40.7,505.4z M40.8,503.5
						c0,0.3,0.3,0.7,0.7,0.7s0.7-0.4,0.7-0.7c0-0.4-0.3-0.7-0.7-0.7S40.8,503.1,40.8,503.5z M43.4,502.9l0.3-0.5h0.9v4.1h-0.5v-3.7
						H43.4z"/>
				</g>
			</g>
			<g id="g4583">
				<g id="h4583">
					<rect id="b4583" x="29.9" y="509.9" class="st3" width="19.6" height="10.9"/>
					<path id="t4583" class="st2" d="M36.4,516.3v0.5h-0.5v0.6h-0.5v-0.6h-2l2.5-3.7v3.3H36.4z M35.4,514.6L35.4,514.6l-1.2,1.7h1.2
						L35.4,514.6L35.4,514.6z M38.2,513.7l-0.3,0.9l0.3,0c0.8,0,1.3,0.7,1.3,1.5c0,0.9-0.7,1.5-1.5,1.5c-0.5,0-1-0.3-1.2-0.7
						l0.4-0.4c0.1,0.4,0.5,0.6,0.9,0.6c0.5,0,1-0.5,1-1c0-0.5-0.4-1-1-1c-0.3,0-0.6,0.1-0.8,0.4h-0.1l0.6-2.1h1.6v0.5H38.2z
						 M40.7,515.3c-0.3-0.2-0.5-0.5-0.5-0.9c0-0.7,0.5-1.2,1.2-1.2s1.2,0.5,1.2,1.2c0,0.4-0.2,0.7-0.5,0.9c0.4,0.1,0.6,0.5,0.6,1
						c0,0.8-0.6,1.2-1.3,1.2s-1.3-0.5-1.3-1.2C40.1,515.8,40.3,515.4,40.7,515.3z M40.6,516.2c0,0.4,0.4,0.8,0.8,0.8
						s0.8-0.4,0.8-0.8c0-0.4-0.4-0.8-0.8-0.8C40.9,515.5,40.6,515.8,40.6,516.2z M40.7,514.3c0,0.3,0.3,0.7,0.7,0.7s0.7-0.4,0.7-0.7
						c0-0.4-0.3-0.7-0.7-0.7S40.7,513.9,40.7,514.3z M44.4,515c0.4,0,0.8-0.2,0.8-0.7c0-0.4-0.3-0.7-0.7-0.7c-0.4,0-0.6,0.2-0.7,0.6
						h-0.5c0.1-0.7,0.5-1,1.2-1c0.6,0,1.2,0.4,1.2,1.1c0,0.4-0.2,0.7-0.5,0.9c0.4,0.2,0.6,0.6,0.6,1c0,0.8-0.6,1.2-1.3,1.2
						c-0.6,0-1.2-0.4-1.2-1.1h0.5c0,0.4,0.4,0.7,0.8,0.7c0.5,0,0.8-0.4,0.8-0.8c0-0.5-0.4-0.8-0.9-0.8L44.4,515L44.4,515z"/>
				</g>
			</g>
			<g id="g4585">
				<g id="h4585">
					<rect id="b4585" x="29.9" y="520.8" class="st3" width="19.6" height="11.1"/>
					<path id="t4585" class="st2" d="M36.4,527.3v0.5h-0.5v0.6h-0.5v-0.6h-2l2.5-3.7v3.3H36.4z M35.4,525.6L35.4,525.6l-1.2,1.7h1.2
						L35.4,525.6L35.4,525.6z M38.2,524.7l-0.3,0.9l0.3,0c0.8,0,1.3,0.7,1.3,1.5c0,0.9-0.7,1.5-1.5,1.5c-0.5,0-1-0.3-1.2-0.7
						l0.4-0.4c0.1,0.4,0.5,0.6,0.9,0.6c0.5,0,1-0.5,1-1c0-0.5-0.4-1-1-1c-0.3,0-0.6,0.1-0.8,0.4h-0.1l0.6-2.1h1.6v0.5H38.2z
						 M40.7,526.2c-0.3-0.2-0.5-0.5-0.5-0.9c0-0.7,0.5-1.2,1.2-1.2s1.2,0.5,1.2,1.2c0,0.4-0.2,0.7-0.5,0.9c0.4,0.1,0.6,0.5,0.6,1
						c0,0.8-0.6,1.2-1.3,1.2s-1.3-0.5-1.3-1.2C40.1,526.7,40.3,526.3,40.7,526.2z M40.6,527.2c0,0.4,0.4,0.8,0.8,0.8
						c0.4,0,0.8-0.4,0.8-0.8c0-0.4-0.4-0.8-0.8-0.8C40.9,526.4,40.6,526.7,40.6,527.2z M40.7,525.3c0,0.3,0.3,0.7,0.7,0.7
						s0.7-0.4,0.7-0.7c0-0.4-0.3-0.7-0.7-0.7S40.7,524.9,40.7,525.3z M44.5,524.7l-0.3,0.9l0.3,0c0.8,0,1.3,0.7,1.3,1.5
						c0,0.9-0.7,1.5-1.5,1.5c-0.5,0-1-0.3-1.2-0.7l0.4-0.4c0.1,0.4,0.5,0.6,0.9,0.6c0.5,0,1-0.5,1-1c0-0.5-0.4-1-1-1
						c-0.3,0-0.6,0.1-0.8,0.4h-0.1l0.6-2.1h1.6v0.5H44.5z"/>
				</g>
			</g>
			<g id="g4587">
				<g id="h4587">
					<rect id="b4587" x="29.9" y="531.8" class="st3" width="19.6" height="10.4"/>
					<path id="t4587" class="st2" d="M36.4,537.9v0.5H36v0.6h-0.5v-0.6h-2l2.5-3.7v3.3H36.4z M35.5,536.2L35.5,536.2l-1.2,1.7h1.2
						V536.2z M38.3,535.3l-0.3,0.9l0.3,0c0.8,0,1.3,0.7,1.3,1.5c0,0.9-0.7,1.5-1.5,1.5c-0.5,0-1-0.3-1.2-0.7l0.4-0.4
						c0.1,0.4,0.5,0.6,0.9,0.6c0.5,0,1-0.5,1-1c0-0.5-0.4-1-1-1c-0.3,0-0.6,0.1-0.8,0.4h-0.1l0.6-2.1h1.6v0.5H38.3z M40.8,536.8
						c-0.3-0.2-0.5-0.5-0.5-0.9c0-0.7,0.5-1.2,1.2-1.2c0.6,0,1.2,0.5,1.2,1.2c0,0.4-0.2,0.7-0.5,0.9c0.4,0.1,0.6,0.5,0.6,1
						c0,0.8-0.6,1.2-1.3,1.2s-1.3-0.5-1.3-1.2C40.1,537.4,40.3,537,40.8,536.8z M40.6,537.8c0,0.4,0.4,0.8,0.8,0.8
						c0.4,0,0.8-0.4,0.8-0.8c0-0.4-0.4-0.8-0.8-0.8C41,537,40.6,537.4,40.6,537.8z M40.7,535.9c0,0.3,0.3,0.7,0.7,0.7
						s0.7-0.4,0.7-0.7c0-0.4-0.3-0.7-0.7-0.7C41,535.2,40.7,535.5,40.7,535.9z M43.1,535.3v-0.5H46l-2.5,4.2l-0.4-0.2l2.1-3.5H43.1z
						"/>
				</g>
			</g>
			<g id="g4589">
				<g id="h4589">
					<rect id="b4589" x="29.9" y="542.3" class="st3" width="19.6" height="11"/>
					<path id="t4589" class="st2" d="M36.4,548.9v0.5H36v0.6h-0.5v-0.6h-2l2.5-3.7v3.3H36.4z M35.5,547.2L35.5,547.2l-1.2,1.7h1.2
						V547.2z M38.2,546.3l-0.3,0.9l0.3,0c0.8,0,1.3,0.7,1.3,1.5c0,0.9-0.7,1.5-1.5,1.5c-0.5,0-1-0.3-1.2-0.7l0.4-0.4
						c0.1,0.4,0.5,0.6,0.9,0.6c0.5,0,1-0.5,1-1c0-0.5-0.4-1-1-1c-0.3,0-0.6,0.1-0.8,0.4h-0.1l0.6-2.1h1.6v0.5H38.2z M40.7,547.8
						c-0.3-0.2-0.5-0.5-0.5-0.9c0-0.7,0.5-1.2,1.2-1.2c0.6,0,1.2,0.5,1.2,1.2c0,0.4-0.2,0.7-0.5,0.9c0.4,0.1,0.6,0.5,0.6,1
						c0,0.8-0.6,1.2-1.3,1.2s-1.3-0.5-1.3-1.2C40.1,548.4,40.3,548,40.7,547.8z M40.6,548.8c0,0.4,0.4,0.8,0.8,0.8
						c0.4,0,0.8-0.4,0.8-0.8c0-0.4-0.4-0.8-0.8-0.8C41,548,40.6,548.4,40.6,548.8z M40.7,546.9c0,0.3,0.3,0.7,0.7,0.7
						s0.7-0.4,0.7-0.7c0-0.4-0.3-0.7-0.7-0.7S40.7,546.5,40.7,546.9z M43.7,549.8l1.1-1.5l0,0c-0.1,0.1-0.3,0.1-0.4,0.1
						c-0.7,0-1.2-0.6-1.2-1.3c0-0.8,0.6-1.4,1.3-1.4c0.7,0,1.4,0.6,1.4,1.3c0,0.4-0.2,0.8-0.4,1.1L44,550L43.7,549.8z M45.4,547.1
						c0-0.4-0.4-0.9-0.8-0.9c-0.5,0-0.9,0.4-0.9,0.9c0,0.5,0.4,0.9,0.9,0.9C45,547.9,45.4,547.5,45.4,547.1z"/>
				</g>
			</g>
			<g id="g4567">
				<g id="h4567">
					<polygon id="b4567" class="st3" points="49.5,434.4 49.5,445 49.5,455.7 61.5,455.7 61.5,434.4 					"/>
					<path id="t4567" class="st2" d="M56.5,448.3H57v0.5h0.6v0.5H57v2l-3.7-2.5h3.3V448.3z M54.8,449.2L54.8,449.2l1.7,1.2v-1.2
						L54.8,449.2L54.8,449.2z M53.9,446.5l0.9,0.3l0-0.3c0-0.8,0.7-1.3,1.5-1.3c0.9,0,1.5,0.7,1.5,1.5c0,0.5-0.3,1-0.7,1.2l-0.4-0.4
						c0.4-0.1,0.6-0.5,0.6-0.9c0-0.5-0.5-1-1-1c-0.5,0-1,0.4-1,1c0,0.3,0.1,0.6,0.4,0.8v0.1l-2.1-0.6v-1.6h0.5
						C53.9,445.2,53.9,446.5,53.9,446.5z M53.6,442.5l1.5,1.1l0,0c-0.1-0.1-0.1-0.3-0.1-0.4c0-0.7,0.6-1.2,1.3-1.2
						c0.8,0,1.4,0.6,1.4,1.3c0,0.7-0.6,1.4-1.3,1.4c-0.4,0-0.8-0.2-1.1-0.4l-1.9-1.4L53.6,442.5z M56.4,442.4
						c-0.5,0-0.9,0.4-0.9,0.9c0,0.4,0.4,0.9,0.9,0.9c0.5,0,0.9-0.4,0.9-0.9C57.2,442.8,56.8,442.4,56.4,442.4z M53.9,441.6h-0.5
						v-2.9l4.2,2.5l-0.2,0.4l-3.5-2.1V441.6z"/>
				</g>
			</g>
			<g id="g4565">
				<g id="h4565">
					<rect id="b4565" x="61.5" y="434.4" class="st3" width="11.5" height="21.3"/>
					<path id="t4565" class="st2" d="M68.5,448.4H69v0.5h0.6v0.5H69v2l-3.7-2.5h3.3V448.4z M66.8,449.3L66.8,449.3l1.7,1.2v-1.2
						L66.8,449.3L66.8,449.3z M65.9,446.6l0.9,0.3l0-0.3c0-0.8,0.7-1.3,1.4-1.3c0.9,0,1.5,0.7,1.5,1.5c0,0.5-0.3,1-0.7,1.2l-0.4-0.4
						c0.4-0.1,0.6-0.5,0.6-0.9c0-0.5-0.5-1-1-1c-0.5,0-1,0.4-1,1c0,0.3,0.1,0.6,0.4,0.8v0.1l-2.1-0.6v-1.6h0.5
						C65.9,445.3,65.9,446.6,65.9,446.6z M65.6,442.5l1.5,1.1l0,0c-0.1-0.1-0.1-0.3-0.1-0.4c0-0.7,0.6-1.2,1.3-1.2
						c0.8,0,1.4,0.6,1.4,1.3c0,0.7-0.6,1.4-1.3,1.4c-0.4,0-0.8-0.2-1.1-0.4l-1.9-1.4L65.6,442.5z M68.4,442.5
						c-0.5,0-0.9,0.4-0.9,0.9c0,0.4,0.4,0.9,0.9,0.9c0.5,0,0.9-0.4,0.9-0.9C69.2,442.9,68.8,442.5,68.4,442.5z M65.9,440.2l0.9,0.3
						l0-0.3c0-0.8,0.7-1.3,1.4-1.3c0.9,0,1.5,0.7,1.5,1.5c0,0.5-0.3,1-0.7,1.2l-0.4-0.4c0.4-0.1,0.6-0.5,0.6-0.9c0-0.5-0.5-1-1-1
						c-0.5,0-1,0.4-1,1c0,0.3,0.1,0.6,0.4,0.8v0.1l-2.1-0.6v-1.6h0.5C65.9,438.9,65.9,440.2,65.9,440.2z"/>
				</g>
			</g>
			<g id="g4563">
				<g id="h4563">
					<rect id="b4563" x="30.2" y="379.5" class="st3" width="19.9" height="10.7"/>
					<path id="t4563" class="st2" d="M36.8,385.8v0.5h-0.5v0.6h-0.5v-0.6h-2l2.5-3.7v3.3H36.8z M35.9,384.1L35.9,384.1l-1.2,1.7h1.2
						V384.1z M38.6,383.2l-0.3,0.9l0.3,0c0.8,0,1.3,0.7,1.3,1.5c0,0.9-0.7,1.5-1.5,1.5c-0.5,0-1-0.3-1.2-0.7l0.4-0.4
						c0.1,0.4,0.5,0.6,0.9,0.6c0.5,0,1-0.5,1-1c0-0.5-0.4-1-1-1c-0.3,0-0.6,0.1-0.8,0.4h-0.1l0.6-2.1h1.6v0.5L38.6,383.2L38.6,383.2
						z M42.6,382.9l-1.1,1.5l0,0c0.1-0.1,0.3-0.1,0.4-0.1c0.7,0,1.2,0.6,1.2,1.3c0,0.8-0.6,1.4-1.3,1.4c-0.7,0-1.4-0.6-1.4-1.3
						c0-0.4,0.2-0.8,0.4-1.1l1.4-1.9L42.6,382.9z M42.7,385.7c0-0.5-0.4-0.9-0.9-0.9c-0.4,0-0.9,0.4-0.9,0.9c0,0.5,0.4,0.9,0.9,0.9
						C42.3,386.5,42.7,386.1,42.7,385.7z M44.9,384.5c0.4,0,0.8-0.2,0.8-0.7c0-0.4-0.3-0.7-0.7-0.7c-0.4,0-0.6,0.2-0.7,0.6h-0.5
						c0.1-0.7,0.5-1,1.2-1c0.6,0,1.2,0.4,1.2,1.1c0,0.4-0.2,0.7-0.5,0.9c0.4,0.2,0.6,0.6,0.6,1c0,0.8-0.6,1.2-1.3,1.2
						c-0.6,0-1.2-0.4-1.2-1.1h0.5c0,0.4,0.4,0.7,0.8,0.7c0.5,0,0.8-0.4,0.8-0.8c0-0.5-0.4-0.8-0.9-0.8
						C44.9,384.9,44.9,384.5,44.9,384.5z"/>
				</g>
			</g>
			<g id="g4511">
				<g id="h4511">
					<rect id="b4511" x="39.2" y="184" class="st3" width="19.8" height="11.3"/>
					<path id="t4511" class="st2" d="M46.2,190.6v0.5h-0.5v0.6h-0.5V191h-2l2.5-3.7v3.3H46.2z M45.3,188.9L45.3,188.9l-1.2,1.7h1.2
						V188.9z M48.1,188l-0.3,0.9l0.3,0c0.8,0,1.3,0.7,1.3,1.4c0,0.9-0.7,1.5-1.5,1.5c-0.5,0-1-0.3-1.2-0.7l0.4-0.4
						c0.1,0.4,0.5,0.6,0.9,0.6c0.5,0,1-0.5,1-1c0-0.5-0.4-1-1-1c-0.3,0-0.6,0.1-0.8,0.4h-0.1l0.6-2.1h1.6v0.5H48.1z M50.1,188
						l0.3-0.5h0.9v4.1h-0.5V188L50.1,188L50.1,188z M52.6,188l0.3-0.5h0.9v4.1h-0.5V188L52.6,188L52.6,188z"/>
				</g>
			</g>
		</g>
	</g>
	<g id="gDeck04OceanviewOF">
		<g id="hDeck04OceanviewOF">
			<g id="g4500">
				<g id="h4500">
					<path id="b4500" class="st3" d="M43.2,130.1H7.7c-0.5,3.7-1,7.6-1.5,11.4h37.1L43.2,130.1L43.2,130.1z"/>
					<path id="t4500" class="st2" d="M21.5,136.6v0.5H21v0.6h-0.5V137h-2l2.5-3.7v3.3H21.5z M20.6,134.9L20.6,134.9l-1.2,1.7h1.2
						L20.6,134.9L20.6,134.9z M23.3,134l-0.3,0.9l0.3,0c0.8,0,1.3,0.7,1.3,1.4c0,0.9-0.7,1.5-1.5,1.5c-0.5,0-1-0.3-1.2-0.7l0.4-0.4
						c0.1,0.4,0.5,0.6,0.9,0.6c0.5,0,1-0.5,1-1c0-0.5-0.4-1-1-1c-0.3,0-0.6,0.1-0.8,0.4h-0.1l0.6-2.1h1.6v0.5H23.3z M25.1,135.6
						c0-0.9,0.4-2.2,1.4-2.2s1.4,1.3,1.4,2.2c0,0.8-0.4,2.2-1.4,2.2S25.1,136.4,25.1,135.6z M25.6,135.6c0,0.6,0.2,1.7,0.9,1.7
						s0.9-1.1,0.9-1.7s-0.2-1.7-0.9-1.7S25.6,135,25.6,135.6z M28.4,135.6c0-0.9,0.4-2.2,1.4-2.2s1.4,1.3,1.4,2.2
						c0,0.8-0.4,2.2-1.4,2.2S28.4,136.4,28.4,135.6z M28.9,135.6c0,0.6,0.2,1.7,0.9,1.7c0.7,0,0.9-1.1,0.9-1.7s-0.2-1.7-0.9-1.7
						C29.1,133.9,28.9,135,28.9,135.6z"/>
				</g>
			</g>
			<g id="g4502">
				<g id="h4502">
					<path id="b4502" class="st3" d="M36.8,152.1L36.8,152.1l2.7,0v-10.6H6.1c-0.5,3.6-0.9,7.2-1.3,10.6h23.1L36.8,152.1z"/>
					<path id="t4502" class="st2" d="M18.8,147.9v0.4h-0.5v0.6h-0.5v-0.6h-2l2.5-3.7v3.3H18.8z M17.8,146.2L17.8,146.2l-1.2,1.7h1.2
						V146.2z M20.6,145.3l-0.3,0.9l0.3,0c0.8,0,1.3,0.7,1.3,1.4c0,0.9-0.7,1.5-1.5,1.5c-0.5,0-1-0.3-1.2-0.7l0.4-0.4
						c0.1,0.4,0.5,0.6,0.9,0.6c0.5,0,1-0.5,1-1c0-0.5-0.4-1-1-1c-0.3,0-0.6,0.1-0.8,0.4h-0.1l0.6-2.1h1.6v0.5L20.6,145.3L20.6,145.3
						z M22.4,146.9c0-0.9,0.4-2.2,1.4-2.2s1.4,1.3,1.4,2.2c0,0.8-0.4,2.2-1.4,2.2S22.4,147.7,22.4,146.9z M22.9,146.9
						c0,0.6,0.2,1.7,0.9,1.7s0.9-1.1,0.9-1.7s-0.2-1.7-0.9-1.7C23.1,145.2,22.9,146.3,22.9,146.9z M28.2,148.5v0.5h-2.6l1.8-2.2
						c0.2-0.2,0.4-0.5,0.4-0.7c0-0.4-0.4-0.8-0.8-0.8c-0.4,0-0.8,0.3-0.8,0.8h-0.5c0.1-0.7,0.5-1.2,1.3-1.2c0.7,0,1.3,0.5,1.3,1.2
						c0,0.3-0.1,0.6-0.3,0.9l-1.3,1.7H28.2z"/>
				</g>
			</g>
			<g id="g4504">
				<g id="h4504">
					<path id="b4504" class="st3" d="M36.2,162.7l0.5-10.7h-8.9l-23.1,0.1c-0.5,3.9-0.9,7.6-1.3,10.6H36.2z"/>
					<path id="t4504" class="st2" d="M16.4,158.1v0.4h-0.5v0.6h-0.5v-0.6h-2l2.5-3.7v3.3H16.4z M15.4,156.4L15.4,156.4l-1.2,1.7h1.2
						V156.4z M18.2,155.5l-0.3,0.9l0.3,0c0.8,0,1.3,0.7,1.3,1.4c0,0.9-0.7,1.5-1.5,1.5c-0.5,0-1-0.3-1.2-0.7l0.4-0.4
						c0.1,0.4,0.5,0.6,0.9,0.6c0.5,0,1-0.5,1-1c0-0.5-0.4-1-1-1c-0.3,0-0.6,0.1-0.8,0.4h-0.1l0.6-2.1h1.6v0.5L18.2,155.5L18.2,155.5
						z M20,157.1c0-0.9,0.4-2.2,1.4-2.2s1.4,1.3,1.4,2.2c0,0.8-0.4,2.2-1.4,2.2S20,157.9,20,157.1z M20.5,157.1
						c0,0.6,0.2,1.7,0.9,1.7s0.9-1.1,0.9-1.7s-0.2-1.7-0.9-1.7S20.5,156.5,20.5,157.1z M26,158.1v0.4h-0.5v0.6h-0.5v-0.6h-2l2.5-3.7
						v3.3H26z M25.1,156.4L25.1,156.4l-1.2,1.7h1.2L25.1,156.4L25.1,156.4z"/>
				</g>
			</g>
			<g id="g4506">
				<g id="h4506">
					<path id="b4506" class="st3" d="M36.3,162.7L36.3,162.7H3.5c-0.6,5.4-1,8.9-1,8.9c-0.1,0.7-0.1,1.4-0.2,2.1h33.4L36.3,162.7z"
						/>
					<path id="t4506" class="st2" d="M14.5,169.5v0.4H14v0.6h-0.5V170h-2l2.5-3.7v3.3H14.5z M13.6,167.8L13.6,167.8l-1.2,1.7h1.2
						L13.6,167.8L13.6,167.8z M16.3,166.9l-0.3,0.9l0.3,0c0.8,0,1.3,0.7,1.3,1.4c0,0.9-0.7,1.5-1.5,1.5c-0.5,0-1-0.3-1.2-0.7
						l0.4-0.4c0.1,0.4,0.5,0.6,0.9,0.6c0.5,0,1-0.5,1-1c0-0.5-0.4-1-1-1c-0.3,0-0.6,0.1-0.8,0.4h-0.1l0.6-2.1h1.6v0.5L16.3,166.9
						L16.3,166.9z M18.1,168.5c0-0.9,0.4-2.2,1.4-2.2s1.4,1.3,1.4,2.2c0,0.8-0.4,2.2-1.4,2.2S18.1,169.3,18.1,168.5z M18.6,168.5
						c0,0.6,0.2,1.7,0.9,1.7s0.9-1.1,0.9-1.7s-0.2-1.7-0.9-1.7S18.6,167.9,18.6,168.5z M23.6,166.6l-1.1,1.5l0,0
						c0.1-0.1,0.3-0.1,0.4-0.1c0.7,0,1.2,0.6,1.2,1.3c0,0.8-0.6,1.4-1.3,1.4c-0.7,0-1.4-0.6-1.4-1.3c0-0.4,0.2-0.8,0.4-1.1l1.4-1.9
						L23.6,166.6z M23.6,169.3c0-0.5-0.4-0.9-0.9-0.9c-0.4,0-0.9,0.4-0.9,0.9c0,0.5,0.4,0.9,0.9,0.9
						C23.2,170.2,23.6,169.8,23.6,169.3z"/>
				</g>
			</g>
			<g id="g4508">
				<g id="h4508">
					<path id="b4508" class="st3" d="M32.8,184.1v-10.2H2.3c-0.3,3.4-0.5,6.9-0.7,10.2H32.8z"/>
					<path id="t4508" class="st2" d="M13.8,179.7v0.4h-0.5v0.6h-0.5v-0.6h-2l2.5-3.7v3.3H13.8z M12.9,178L12.9,178l-1.2,1.7h1.2
						L12.9,178L12.9,178z M15.6,177.1l-0.3,0.9l0.3,0c0.8,0,1.3,0.7,1.3,1.4c0,0.9-0.7,1.5-1.5,1.5c-0.5,0-1-0.3-1.2-0.7l0.4-0.4
						c0.1,0.4,0.5,0.6,0.9,0.6c0.5,0,1-0.5,1-1c0-0.5-0.4-1-1-1c-0.3,0-0.6,0.1-0.8,0.4h-0.1l0.6-2.1h1.6v0.5L15.6,177.1L15.6,177.1
						z M17.4,178.7c0-0.9,0.4-2.2,1.4-2.2s1.4,1.3,1.4,2.2c0,0.8-0.4,2.2-1.4,2.2S17.4,179.5,17.4,178.7z M17.9,178.7
						c0,0.6,0.2,1.7,0.9,1.7s0.9-1.1,0.9-1.7s-0.2-1.7-0.9-1.7S17.9,178.1,17.9,178.7z M21.4,178.6c-0.3-0.2-0.5-0.5-0.5-0.9
						c0-0.7,0.5-1.2,1.2-1.2s1.2,0.5,1.2,1.2c0,0.4-0.2,0.7-0.5,0.9c0.4,0.1,0.6,0.5,0.6,1c0,0.8-0.6,1.2-1.3,1.2s-1.3-0.5-1.3-1.2
						C20.8,179.1,21,178.7,21.4,178.6z M21.2,179.6c0,0.4,0.4,0.8,0.8,0.8c0.4,0,0.8-0.4,0.8-0.8c0-0.4-0.4-0.8-0.8-0.8
						S21.2,179.1,21.2,179.6z M21.3,177.7c0,0.3,0.4,0.7,0.7,0.7s0.7-0.4,0.7-0.7c0-0.4-0.3-0.7-0.7-0.7S21.3,177.3,21.3,177.7z"/>
				</g>
			</g>
			<g id="g4510">
				<g id="h4510">
					<path id="b4510" class="st3" d="M32.8,184.1H1.6c-0.2,4.3-0.3,8.3-0.4,11.3h31.6V184.1z"/>
					<path id="t4510" class="st2" d="M13.2,190.5v0.4h-0.5v0.6h-0.5v-0.6h-2l2.5-3.7v3.3H13.2z M12.3,188.8L12.3,188.8l-1.2,1.7h1.2
						V188.8z M15.1,187.9l-0.3,0.9l0.3,0c0.8,0,1.3,0.7,1.3,1.4c0,0.9-0.7,1.5-1.5,1.5c-0.5,0-1-0.3-1.2-0.7l0.4-0.4
						c0.1,0.4,0.5,0.6,0.9,0.6c0.5,0,1-0.5,1-1c0-0.5-0.4-1-1-1c-0.3,0-0.6,0.1-0.8,0.4h-0.1l0.6-2.1h1.6v0.5L15.1,187.9L15.1,187.9
						z M17.1,187.9l0.3-0.5h0.9v4.1h-0.5v-3.7L17.1,187.9L17.1,187.9z M19.5,189.5c0-0.9,0.4-2.2,1.4-2.2s1.4,1.3,1.4,2.2
						c0,0.8-0.4,2.2-1.4,2.2S19.5,190.3,19.5,189.5z M19.9,189.5c0,0.6,0.2,1.7,0.9,1.7s0.9-1.1,0.9-1.7s-0.2-1.7-0.9-1.7
						S19.9,188.9,19.9,189.5z"/>
				</g>
			</g>
			<g id="g4512">
				<g id="h4512">
					<path id="b4512" class="st3" d="M0.8,206h28h1v-10.6H1.2c-0.1,2.6-0.1,4.4-0.1,4.9C1,201,0.9,203.2,0.8,206z"/>
					<path id="t4512" class="st2" d="M11.7,201.9v0.5h-0.5v0.6h-0.5v-0.6h-2l2.5-3.7v3.3H11.7z M10.8,200.2L10.8,200.2l-1.2,1.7h1.2
						L10.8,200.2L10.8,200.2z M13.6,199.3l-0.3,0.9l0.3,0c0.8,0,1.3,0.7,1.3,1.4c0,0.9-0.7,1.5-1.5,1.5c-0.5,0-1-0.3-1.2-0.7
						l0.4-0.4c0.1,0.4,0.5,0.6,0.9,0.6c0.5,0,1-0.5,1-1c0-0.5-0.4-1-1-1c-0.3,0-0.6,0.1-0.8,0.4h-0.1l0.6-2.1h1.6v0.5H13.6z
						 M15.6,199.3l0.3-0.5h0.9v4.1h-0.5v-3.7L15.6,199.3L15.6,199.3z M20.5,202.5v0.5h-2.6l1.8-2.2c0.2-0.2,0.4-0.5,0.4-0.7
						c0-0.4-0.4-0.8-0.8-0.8c-0.4,0-0.8,0.3-0.8,0.8h-0.5c0.1-0.7,0.5-1.2,1.3-1.2c0.7,0,1.3,0.5,1.3,1.2c0,0.3-0.1,0.6-0.3,0.9
						l-1.3,1.7L20.5,202.5L20.5,202.5z"/>
				</g>
			</g>
			<g id="g4514">
				<g id="h4514">
					<path id="b4514" class="st3" d="M28.8,206h-28c-0.1,3-0.1,6.8-0.2,10.7h28.1C28.8,216.6,28.8,206,28.8,206z"/>
					<path id="t4514" class="st2" d="M11.7,212.4v0.5h-0.5v0.6h-0.5v-0.6h-2l2.5-3.7v3.3H11.7z M10.7,210.7L10.7,210.7l-1.2,1.7h1.2
						V210.7z M13.5,209.8l-0.3,0.9l0.3,0c0.8,0,1.3,0.7,1.3,1.4c0,0.9-0.7,1.5-1.5,1.5c-0.5,0-1-0.3-1.2-0.7l0.4-0.4
						c0.1,0.4,0.5,0.6,0.9,0.6c0.6,0,1-0.5,1-1c0-0.5-0.4-1-1-1c-0.3,0-0.6,0.1-0.8,0.4h-0.1l0.6-2.1h1.6v0.5H13.5z M15.6,209.8
						l0.3-0.5h0.9v4.1h-0.5v-3.7L15.6,209.8L15.6,209.8z M20.7,212.4v0.5h-0.5v0.6h-0.5v-0.6h-2l2.5-3.7v3.3H20.7z M19.7,210.7
						L19.7,210.7l-1.2,1.7h1.2V210.7z"/>
				</g>
			</g>
			<g id="g4516">
				<g id="h4516">
					<path id="b4516" class="st3" d="M24.9,227.9h4v-11.2H0.7c0,3.9-0.1,7.9-0.1,11.2H24.9z"/>
					<path id="t4516" class="st2" d="M11.7,223.7v0.5h-0.5v0.6h-0.5v-0.6h-2l2.5-3.7v3.3H11.7z M10.7,222L10.7,222l-1.2,1.7h1.2
						L10.7,222L10.7,222z M13.5,221.1l-0.3,0.9l0.3,0c0.8,0,1.3,0.7,1.3,1.4c0,0.9-0.7,1.5-1.5,1.5c-0.5,0-1-0.3-1.2-0.7l0.4-0.4
						c0.1,0.4,0.5,0.6,0.9,0.6c0.5,0,1-0.5,1-1c0-0.5-0.4-1-1-1c-0.3,0-0.6,0.1-0.8,0.4h-0.1l0.6-2.1h1.6v0.5H13.5z M15.5,221.1
						l0.3-0.5h0.9v4.1h-0.5v-3.7L15.5,221.1L15.5,221.1z M20,220.8l-1.1,1.5l0,0c0.1-0.1,0.3-0.1,0.4-0.1c0.7,0,1.2,0.6,1.2,1.3
						c0,0.8-0.6,1.4-1.3,1.4c-0.7,0-1.4-0.6-1.4-1.3c0-0.4,0.2-0.8,0.4-1.1l1.4-1.9L20,220.8z M20,223.5c0-0.5-0.4-0.9-0.9-0.9
						c-0.4,0-0.9,0.4-0.9,0.9c0,0.5,0.4,0.9,0.9,0.9C19.6,224.4,20,224,20,223.5z"/>
				</g>
			</g>
			<g id="g4518">
				<g id="h4518">
					<path id="b4518" class="st3" d="M24.9,227.9H0.6c0,5-0.1,8.7-0.1,8.7s0,0.7,0,2.2h24.4C24.9,238.8,24.9,227.9,24.9,227.9z"/>
					<path id="t4518" class="st2" d="M9.7,234.8v0.4H9.2v0.6H8.7v-0.6h-2l2.5-3.7v3.3H9.7z M8.7,233.1L8.7,233.1l-1.2,1.7h1.2
						C8.7,234.8,8.7,233.1,8.7,233.1z M11.5,232.2l-0.3,0.9l0.3,0c0.8,0,1.3,0.7,1.3,1.4c0,0.9-0.7,1.5-1.5,1.5
						c-0.5,0-1-0.3-1.2-0.7l0.4-0.4c0.1,0.4,0.5,0.6,0.9,0.6c0.5,0,1-0.5,1-1c0-0.5-0.4-1-1-1c-0.3,0-0.6,0.1-0.8,0.4h-0.1l0.6-2.1
						h1.6v0.5L11.5,232.2L11.5,232.2z M13.5,232.2l0.3-0.5h0.9v4.1h-0.5v-3.7L13.5,232.2L13.5,232.2z M16.6,233.7
						c-0.3-0.2-0.5-0.5-0.5-0.9c0-0.7,0.5-1.2,1.2-1.2s1.2,0.5,1.2,1.2c0,0.4-0.2,0.7-0.5,0.9c0.4,0.1,0.6,0.5,0.6,1
						c0,0.8-0.6,1.2-1.3,1.2s-1.3-0.5-1.3-1.2C15.9,234.2,16.2,233.8,16.6,233.7z M16.4,234.7c0,0.4,0.4,0.8,0.8,0.8
						c0.4,0,0.8-0.4,0.8-0.8c0-0.4-0.4-0.8-0.8-0.8C16.8,233.9,16.4,234.2,16.4,234.7z M16.5,232.8c0,0.3,0.4,0.7,0.7,0.7
						s0.7-0.4,0.7-0.7c0-0.4-0.3-0.7-0.7-0.7S16.5,232.4,16.5,232.8z"/>
				</g>
			</g>
			<g id="g4520">
				<g id="h4520">
					<rect id="b4520" x="0.6" y="238.8" class="st3" width="24.3" height="10.8"/>
					<path id="t4520" class="st2" d="M9.2,245.5v0.4H8.7v0.6H8.3v-0.6h-2l2.5-3.7v3.3H9.2z M8.3,243.7L8.3,243.7l-1.2,1.7h1.2
						L8.3,243.7L8.3,243.7z M11,242.8l-0.3,0.9l0.3,0c0.8,0,1.3,0.7,1.3,1.4c0,0.9-0.7,1.5-1.5,1.5c-0.5,0-1-0.3-1.2-0.7l0.4-0.4
						c0.1,0.4,0.5,0.6,0.9,0.6c0.5,0,1-0.5,1-1c0-0.5-0.4-1-1-1c-0.3,0-0.6,0.1-0.8,0.4h-0.1l0.6-2.1h1.6v0.5L11,242.8L11,242.8z
						 M15.4,246v0.5h-2.6l1.8-2.2c0.2-0.2,0.4-0.5,0.4-0.7c0-0.4-0.4-0.8-0.8-0.8c-0.4,0-0.8,0.3-0.8,0.8h-0.5
						c0.1-0.7,0.5-1.2,1.3-1.2c0.7,0,1.3,0.5,1.3,1.2c0,0.3-0.1,0.6-0.3,0.9l-1.3,1.7H15.4z M15.8,244.4c0-0.9,0.4-2.2,1.4-2.2
						s1.4,1.3,1.4,2.2c0,0.8-0.4,2.2-1.4,2.2S15.8,245.3,15.8,244.4z M16.3,244.4c0,0.6,0.2,1.7,0.9,1.7s0.9-1.1,0.9-1.7
						s-0.2-1.7-0.9-1.7S16.3,243.9,16.3,244.4z"/>
				</g>
			</g>
			<g id="g4522">
				<g id="h4522">
					<rect id="b4522" x="0.6" y="249.6" class="st3" width="24.3" height="10.8"/>
					<path id="d4522" class="st4" d="M0.9,260.4h1 M3.9,260.4h18.8 M23.7,260.4h1"/>
					<path id="t4522" class="st2" d="M9.8,255.7v0.5H9.3v0.6H8.8v-0.6h-2l2.5-3.7v3.3L9.8,255.7L9.8,255.7z M8.8,254L8.8,254
						l-1.2,1.7h1.2V254z M11.6,253.1l-0.3,0.9l0.3,0c0.8,0,1.3,0.7,1.3,1.4c0,0.9-0.7,1.5-1.5,1.5c-0.5,0-1-0.3-1.2-0.7l0.4-0.4
						c0.1,0.4,0.5,0.6,0.9,0.6c0.5,0,1-0.5,1-1c0-0.5-0.4-1-1-1c-0.3,0-0.6,0.1-0.8,0.4h-0.1l0.6-2.1h1.6v0.5L11.6,253.1L11.6,253.1
						z M15.9,256.3v0.5h-2.6l1.8-2.2c0.2-0.2,0.4-0.5,0.4-0.7c0-0.4-0.4-0.8-0.8-0.8c-0.4,0-0.8,0.3-0.8,0.8h-0.5
						c0.1-0.7,0.6-1.2,1.3-1.2c0.7,0,1.3,0.5,1.3,1.2c0,0.3-0.1,0.6-0.3,0.9l-1.3,1.7L15.9,256.3L15.9,256.3z M19.1,256.3v0.5h-2.6
						l1.8-2.2c0.2-0.2,0.4-0.5,0.4-0.7c0-0.4-0.4-0.8-0.8-0.8c-0.4,0-0.8,0.3-0.8,0.8h-0.5c0.1-0.7,0.5-1.2,1.3-1.2
						c0.7,0,1.3,0.5,1.3,1.2c0,0.3-0.1,0.6-0.3,0.9l-1.3,1.7L19.1,256.3L19.1,256.3z"/>
				</g>
			</g>
			<g id="g4524">
				<g id="h4524">
					<rect id="b4524" x="0.6" y="260.4" class="st3" width="24.3" height="10.8"/>
					<path id="d4524" class="st4" d="M0.9,260.4h1 M3.9,260.4h18.8 M23.7,260.4h1"/>
					<path id="t4524" class="st2" d="M9.7,267.3v0.5H9.3v0.6H8.8v-0.6h-2l2.5-3.7v3.3H9.7z M8.8,265.6L8.8,265.6l-1.2,1.7h1.2
						L8.8,265.6L8.8,265.6z M11.6,264.7l-0.3,0.9l0.3,0c0.8,0,1.3,0.7,1.3,1.5c0,0.9-0.7,1.5-1.5,1.5c-0.5,0-1-0.3-1.2-0.7l0.4-0.4
						c0.1,0.4,0.5,0.6,0.9,0.6c0.5,0,1-0.5,1-1c0-0.5-0.4-1-1-1c-0.3,0-0.6,0.1-0.8,0.4h-0.1l0.6-2.1h1.6v0.5L11.6,264.7L11.6,264.7
						z M15.9,267.9v0.5h-2.6l1.8-2.2c0.2-0.2,0.4-0.5,0.4-0.7c0-0.4-0.4-0.8-0.8-0.8c-0.4,0-0.8,0.3-0.8,0.8h-0.5
						c0.1-0.7,0.5-1.2,1.3-1.2c0.7,0,1.3,0.5,1.3,1.2c0,0.3-0.1,0.6-0.3,0.9l-1.3,1.7L15.9,267.9L15.9,267.9z M19.2,267.3v0.5h-0.5
						v0.6h-0.5v-0.6h-2l2.5-3.7v3.3H19.2z M18.3,265.6L18.3,265.6l-1.2,1.7h1.2L18.3,265.6L18.3,265.6z"/>
				</g>
			</g>
			<g id="g4526">
				<g id="h4526">
					<rect id="b4526" x="0.6" y="271.2" class="st3" width="24.3" height="10.8"/>
					<path id="t4526" class="st2" d="M9.7,277.9v0.5H9.2v0.6H8.7v-0.6h-2l2.5-3.7v3.3H9.7z M8.7,276.2L8.7,276.2l-1.2,1.7h1.2
						L8.7,276.2L8.7,276.2z M11.5,275.3l-0.3,0.9l0.3,0c0.8,0,1.3,0.7,1.3,1.5c0,0.9-0.7,1.5-1.5,1.5c-0.5,0-1-0.3-1.2-0.7l0.4-0.4
						c0.1,0.4,0.5,0.6,0.9,0.6c0.5,0,1-0.5,1-1c0-0.5-0.4-1-1-1c-0.3,0-0.6,0.1-0.8,0.4h-0.1l0.6-2.1h1.6v0.5L11.5,275.3L11.5,275.3
						z M15.8,278.5v0.5h-2.6l1.8-2.2c0.2-0.2,0.4-0.5,0.4-0.7c0-0.4-0.4-0.8-0.8-0.8c-0.4,0-0.8,0.3-0.8,0.8h-0.5
						c0.1-0.7,0.6-1.2,1.3-1.2c0.7,0,1.3,0.5,1.3,1.2c0,0.3-0.1,0.6-0.3,0.9l-1.3,1.7L15.8,278.5L15.8,278.5z M18.4,275l-1.1,1.5
						l0,0c0.1-0.1,0.3-0.1,0.4-0.1c0.7,0,1.2,0.6,1.2,1.3c0,0.8-0.6,1.4-1.3,1.4c-0.7,0-1.4-0.6-1.4-1.3c0-0.4,0.2-0.8,0.4-1.1
						l1.4-1.9L18.4,275z M18.4,277.7c0-0.5-0.4-0.9-0.9-0.9c-0.4,0-0.9,0.4-0.9,0.9c0,0.5,0.4,0.9,0.9,0.9
						C18,278.6,18.4,278.2,18.4,277.7z"/>
				</g>
			</g>
			<g id="g4528">
				<g id="h4528">
					<rect id="b4528" x="0.6" y="282.1" class="st3" width="24.3" height="10.8"/>
					<path id="t4528" class="st2" d="M9.3,289v0.5H8.9v0.6H8.4v-0.6h-2l2.5-3.7v3.3H9.3z M8.4,287.3L8.4,287.3L7.2,289h1.2V287.3z
						 M11.1,286.4l-0.3,0.9l0.3,0c0.8,0,1.3,0.7,1.3,1.5c0,0.9-0.7,1.5-1.5,1.5c-0.5,0-1-0.3-1.2-0.7l0.4-0.4
						c0.1,0.4,0.5,0.6,0.9,0.6c0.6,0,1-0.5,1-1c0-0.5-0.4-1-1-1c-0.3,0-0.6,0.1-0.8,0.4h-0.1l0.6-2.1h1.6v0.5L11.1,286.4L11.1,286.4
						z M15.5,289.6v0.5h-2.6l1.8-2.2c0.2-0.2,0.4-0.5,0.4-0.7c0-0.4-0.4-0.8-0.8-0.8c-0.4,0-0.8,0.3-0.8,0.8h-0.5
						c0.1-0.7,0.5-1.2,1.3-1.2c0.7,0,1.3,0.5,1.3,1.2c0,0.3-0.1,0.6-0.3,0.9l-1.3,1.7L15.5,289.6L15.5,289.6z M16.6,287.9
						c-0.3-0.2-0.5-0.5-0.5-0.9c0-0.7,0.5-1.2,1.2-1.2s1.2,0.5,1.2,1.2c0,0.4-0.2,0.7-0.5,0.9c0.4,0.1,0.6,0.5,0.6,1
						c0,0.8-0.6,1.2-1.3,1.2s-1.3-0.5-1.3-1.2C16,288.5,16.2,288.1,16.6,287.9z M16.5,288.9c0,0.4,0.4,0.8,0.8,0.8
						c0.4,0,0.8-0.4,0.8-0.8c0-0.4-0.4-0.8-0.8-0.8C16.9,288.1,16.5,288.5,16.5,288.9z M16.6,287c0,0.3,0.4,0.7,0.7,0.7
						s0.7-0.4,0.7-0.7c0-0.4-0.3-0.7-0.7-0.7S16.6,286.6,16.6,287z"/>
				</g>
			</g>
			<g id="g4530">
				<g id="h4530">
					<rect id="b4530" x="0.6" y="292.8" class="st3" width="24.3" height="11.3"/>
					<path id="t4530" class="st2" d="M9.2,300.2v0.5H8.7v0.6H8.3v-0.6h-2l2.5-3.7v3.3H9.2z M8.3,298.4L8.3,298.4l-1.2,1.7h1.2V298.4
						z M11,297.5l-0.3,0.9l0.3,0c0.8,0,1.3,0.7,1.3,1.5c0,0.9-0.7,1.5-1.5,1.5c-0.5,0-1-0.3-1.2-0.7l0.4-0.4
						c0.1,0.4,0.5,0.6,0.9,0.6c0.6,0,1-0.5,1-1c0-0.5-0.4-1-1-1c-0.3,0-0.6,0.1-0.8,0.4h-0.1l0.6-2.1h1.6v0.5H11z M14.1,298.8
						c0.4,0,0.8-0.2,0.8-0.7c0-0.4-0.3-0.7-0.7-0.7c-0.4,0-0.6,0.2-0.7,0.6H13c0.1-0.7,0.5-1,1.2-1c0.6,0,1.2,0.4,1.2,1.1
						c0,0.4-0.2,0.7-0.5,0.9c0.4,0.2,0.6,0.6,0.6,1c0,0.8-0.6,1.2-1.3,1.2c-0.6,0-1.2-0.4-1.2-1.1h0.5c0,0.4,0.4,0.7,0.8,0.7
						c0.5,0,0.8-0.4,0.8-0.8c0-0.5-0.4-0.8-0.9-0.8L14.1,298.8L14.1,298.8z M16,299.1c0-0.9,0.4-2.2,1.4-2.2s1.4,1.3,1.4,2.2
						c0,0.8-0.4,2.2-1.4,2.2S16,300,16,299.1z M16.5,299.1c0,0.6,0.2,1.7,0.9,1.7s0.9-1.1,0.9-1.7s-0.2-1.7-0.9-1.7
						C16.7,297.4,16.5,298.6,16.5,299.1z"/>
				</g>
			</g>
			<g id="g4548">
				<g id="h4548">
					<rect id="b4548" x="0.6" y="304.1" class="st3" width="24.3" height="10.8"/>
					<path id="t4548" class="st2" d="M9.2,310.9v0.5H8.7v0.6H8.2v-0.6h-2l2.5-3.7v3.3H9.2z M8.2,309.2L8.2,309.2l-1.2,1.7h1.2V309.2
						z M11,308.3l-0.3,0.9l0.3,0c0.8,0,1.3,0.7,1.3,1.5c0,0.9-0.7,1.5-1.5,1.5c-0.5,0-1-0.3-1.2-0.7l0.4-0.4
						c0.1,0.4,0.5,0.6,0.9,0.6c0.5,0,1-0.5,1-1c0-0.5-0.4-1-1-1c-0.3,0-0.6,0.1-0.8,0.4H10l0.6-2.1h1.6v0.5L11,308.3L11,308.3z
						 M15.6,310.9v0.5h-0.5v0.6h-0.5v-0.6h-2l2.5-3.7v3.3H15.6z M14.7,309.2L14.7,309.2l-1.2,1.7h1.2L14.7,309.2L14.7,309.2z
						 M16.8,309.8c-0.3-0.2-0.5-0.5-0.5-0.9c0-0.7,0.5-1.2,1.2-1.2c0.6,0,1.2,0.5,1.2,1.2c0,0.4-0.2,0.7-0.5,0.9
						c0.4,0.1,0.6,0.5,0.6,1c0,0.8-0.6,1.2-1.3,1.2s-1.3-0.5-1.3-1.2C16.1,310.3,16.3,309.9,16.8,309.8z M16.6,310.8
						c0,0.4,0.4,0.8,0.8,0.8c0.4,0,0.8-0.4,0.8-0.8c0-0.4-0.4-0.8-0.8-0.8C17,310,16.6,310.3,16.6,310.8z M16.7,308.9
						c0,0.3,0.4,0.7,0.7,0.7s0.7-0.4,0.7-0.7c0-0.4-0.3-0.7-0.7-0.7C17,308.1,16.7,308.5,16.7,308.9z"/>
				</g>
			</g>
			<g id="g4550">
				<g id="h4550">
					<rect id="b4550" x="0.6" y="314.9" class="st3" width="24.3" height="10.8"/>
					<path id="d4550" class="st4" d="M0.9,325.8h1 M3.9,325.8h18.8 M23.7,325.8h1"/>
					<path id="t4550" class="st2" d="M9.2,321.6v0.5H8.8v0.6H8.3V322h-2l2.5-3.7v3.3H9.2z M8.3,319.9L8.3,319.9l-1.2,1.7h1.2V319.9z
						 M11,318.9l-0.3,0.9l0.3,0c0.8,0,1.3,0.7,1.3,1.5c0,0.9-0.7,1.5-1.5,1.5c-0.5,0-1-0.3-1.2-0.7l0.4-0.4c0.1,0.4,0.5,0.6,0.9,0.6
						c0.5,0,1-0.5,1-1c0-0.5-0.4-1-1-1c-0.3,0-0.6,0.1-0.8,0.4h-0.1l0.6-2.1h1.6v0.5L11,318.9L11,318.9z M14.2,318.9l-0.3,0.9l0.3,0
						c0.8,0,1.3,0.7,1.3,1.5c0,0.9-0.7,1.5-1.5,1.5c-0.5,0-1-0.3-1.2-0.7l0.4-0.4c0.1,0.4,0.5,0.6,0.9,0.6c0.5,0,1-0.5,1-1
						c0-0.5-0.4-1-1-1c-0.3,0-0.6,0.1-0.8,0.4h-0.1l0.6-2.1h1.6v0.5L14.2,318.9L14.2,318.9z M16,320.5c0-0.9,0.4-2.2,1.4-2.2
						s1.4,1.3,1.4,2.2c0,0.8-0.4,2.2-1.4,2.2S16,321.4,16,320.5z M16.4,320.5c0,0.6,0.2,1.7,0.9,1.7s0.9-1.1,0.9-1.7
						s-0.2-1.7-0.9-1.7S16.4,320,16.4,320.5z"/>
				</g>
			</g>
			<g id="g4552">
				<g id="h4552">
					<rect id="b4552" x="0.6" y="325.8" class="st3" width="24.3" height="10.8"/>
					<path id="d4552" class="st4" d="M0.9,325.8h1 M3.9,325.8h18.8 M23.7,325.8h1"/>
					<path id="t4552" class="st2" d="M9.3,332.6v0.5H8.8v0.6H8.4v-0.6h-2l2.5-3.7v3.3H9.3z M8.4,330.9L8.4,330.9l-1.2,1.7h1.2V330.9
						z M11.1,330l-0.3,0.9l0.3,0c0.8,0,1.3,0.7,1.3,1.5c0,0.9-0.7,1.5-1.5,1.5c-0.5,0-1-0.3-1.2-0.7l0.4-0.4
						c0.1,0.4,0.5,0.6,0.9,0.6c0.5,0,1-0.5,1-1c0-0.5-0.4-1-1-1c-0.3,0-0.6,0.1-0.8,0.4h-0.1l0.6-2.1h1.6v0.5L11.1,330L11.1,330z
						 M14.3,330l-0.3,0.9l0.3,0c0.8,0,1.3,0.7,1.3,1.5c0,0.9-0.7,1.5-1.5,1.5c-0.5,0-1-0.3-1.2-0.7l0.4-0.4c0.1,0.4,0.5,0.6,0.9,0.6
						c0.6,0,1-0.5,1-1c0-0.5-0.4-1-1-1c-0.3,0-0.6,0.1-0.8,0.4h-0.1l0.6-2.1h1.6v0.5L14.3,330L14.3,330z M18.6,333.2v0.5H16l1.8-2.2
						c0.2-0.2,0.4-0.5,0.4-0.7c0-0.4-0.4-0.8-0.8-0.8c-0.4,0-0.8,0.3-0.8,0.8H16c0.1-0.7,0.5-1.2,1.3-1.2c0.7,0,1.3,0.5,1.3,1.2
						c0,0.3-0.1,0.6-0.3,0.9l-1.3,1.7L18.6,333.2L18.6,333.2z"/>
				</g>
			</g>
			<g id="g4554">
				<g id="h4554">
					<rect id="b4554" x="0.6" y="336.6" class="st3" width="24.3" height="10.8"/>
					<path id="d4554" class="st4" d="M0.9,347.3h1 M3.9,347.3h18.8 M23.7,347.3h1"/>
					<path id="t4554" class="st2" d="M9.2,342.6v0.5H8.8v0.6H8.3v-0.6h-2l2.5-3.7v3.3H9.2z M8.3,340.9L8.3,340.9l-1.2,1.7h1.2V340.9
						z M11,340l-0.3,0.9l0.3,0c0.8,0,1.3,0.7,1.3,1.5c0,0.9-0.7,1.5-1.5,1.5c-0.5,0-1-0.3-1.2-0.7l0.4-0.4c0.1,0.4,0.5,0.6,0.9,0.6
						c0.5,0,1-0.5,1-1c0-0.5-0.4-1-1-1c-0.3,0-0.6,0.1-0.8,0.4h-0.1l0.6-2.1h1.6v0.5L11,340L11,340z M14.2,340l-0.3,0.9l0.3,0
						c0.8,0,1.3,0.7,1.3,1.5c0,0.9-0.7,1.5-1.5,1.5c-0.5,0-1-0.3-1.2-0.7l0.4-0.4c0.1,0.4,0.5,0.6,0.9,0.6c0.5,0,1-0.5,1-1
						c0-0.5-0.4-1-1-1c-0.3,0-0.6,0.1-0.8,0.4h-0.1l0.6-2.1h1.6v0.5L14.2,340L14.2,340z M18.8,342.6v0.5h-0.5v0.6h-0.5v-0.6h-2
						l2.5-3.7v3.3H18.8z M17.9,340.9L17.9,340.9l-1.2,1.7h1.2V340.9z"/>
				</g>
			</g>
			<g id="g4556">
				<g id="h4556">
					<rect id="b4556" x="0.6" y="347.3" class="st3" width="24.3" height="10.8"/>
					<path id="d4556" class="st4" d="M0.9,347.3h1 M3.9,347.3h18.8 M23.7,347.3h1"/>
					<path id="t4556" class="st2" d="M9.2,353.6v0.5H8.8v0.6H8.3v-0.6h-2l2.5-3.7v3.3H9.2z M8.3,351.9L8.3,351.9l-1.2,1.7h1.2
						L8.3,351.9L8.3,351.9z M11.1,351l-0.3,0.9l0.3,0c0.8,0,1.3,0.7,1.3,1.5c0,0.9-0.7,1.5-1.5,1.5c-0.5,0-1-0.3-1.2-0.7l0.4-0.4
						c0.1,0.4,0.5,0.6,0.9,0.6c0.5,0,1-0.5,1-1c0-0.5-0.4-1-1-1c-0.3,0-0.6,0.1-0.8,0.4h-0.1l0.6-2.1h1.6v0.5L11.1,351L11.1,351z
						 M14.2,351l-0.3,0.9l0.3,0c0.8,0,1.3,0.7,1.3,1.5c0,0.9-0.7,1.5-1.5,1.5c-0.5,0-1-0.3-1.2-0.7l0.4-0.4c0.1,0.4,0.5,0.6,0.9,0.6
						c0.5,0,1-0.5,1-1c0-0.5-0.4-1-1-1c-0.3,0-0.6,0.1-0.8,0.4h-0.1l0.6-2.1h1.6v0.5L14.2,351L14.2,351z M18.2,350.7l-1.1,1.5l0,0
						c0.1-0.1,0.3-0.1,0.4-0.1c0.7,0,1.2,0.6,1.2,1.3c0,0.8-0.6,1.4-1.3,1.4c-0.7,0-1.4-0.6-1.4-1.3c0-0.4,0.2-0.8,0.4-1.1l1.4-1.9
						L18.2,350.7z M18.2,353.5c0-0.5-0.4-0.9-0.9-0.9c-0.4,0-0.9,0.4-0.9,0.9c0,0.5,0.4,0.9,0.9,0.9
						C17.8,354.3,18.2,353.9,18.2,353.5z"/>
				</g>
			</g>
			<g id="g4558">
				<g id="h4558">
					<rect id="b4558" x="0.6" y="358.2" class="st3" width="24.3" height="10.6"/>
					<path id="t4558" class="st2" d="M9.2,364.3v0.5H8.8v0.6H8.3v-0.6h-2l2.5-3.7v3.3H9.2z M8.3,362.6L8.3,362.6l-1.2,1.7h1.2V362.6
						z M11.1,361.7l-0.3,0.9l0.3,0c0.8,0,1.3,0.7,1.3,1.5c0,0.9-0.7,1.5-1.5,1.5c-0.5,0-1-0.3-1.2-0.7l0.4-0.4
						c0.1,0.4,0.5,0.6,0.9,0.6c0.5,0,1-0.5,1-1c0-0.5-0.4-1-1-1c-0.3,0-0.6,0.1-0.8,0.4h-0.1l0.6-2.1h1.6v0.5L11.1,361.7L11.1,361.7
						z M14.2,361.7l-0.3,0.9l0.3,0c0.8,0,1.3,0.7,1.3,1.5c0,0.9-0.7,1.5-1.5,1.5c-0.5,0-1-0.3-1.2-0.7l0.4-0.4
						c0.1,0.4,0.5,0.6,0.9,0.6c0.5,0,1-0.5,1-1c0-0.5-0.4-1-1-1c-0.3,0-0.6,0.1-0.8,0.4h-0.1l0.6-2.1h1.6v0.5L14.2,361.7L14.2,361.7
						z M16.7,363.2c-0.3-0.2-0.5-0.5-0.5-0.9c0-0.7,0.5-1.2,1.2-1.2s1.2,0.5,1.2,1.2c0,0.4-0.2,0.7-0.5,0.9c0.4,0.1,0.6,0.5,0.6,1
						c0,0.8-0.6,1.2-1.3,1.2s-1.3-0.5-1.3-1.2C16.1,363.8,16.3,363.4,16.7,363.2z M16.6,364.2c0,0.4,0.4,0.8,0.8,0.8
						c0.4,0,0.8-0.4,0.8-0.8c0-0.4-0.4-0.8-0.8-0.8C16.9,363.5,16.6,363.8,16.6,364.2z M16.7,362.3c0,0.3,0.4,0.7,0.7,0.7
						s0.7-0.4,0.7-0.7c0-0.4-0.3-0.7-0.7-0.7C17,361.6,16.7,361.9,16.7,362.3z"/>
				</g>
			</g>
			<g id="g4560">
				<g id="h4560">
					<rect id="b4560" x="0.6" y="368.7" class="st3" width="24.3" height="10.8"/>
					<path id="t4560" class="st2" d="M9.2,374.9v0.5H8.7v0.6H8.3v-0.6h-2l2.5-3.7v3.3H9.2z M8.3,373.1L8.3,373.1l-1.2,1.7h1.2V373.1
						z M11,372.2l-0.3,0.9l0.3,0c0.8,0,1.3,0.7,1.3,1.5c0,0.9-0.7,1.5-1.5,1.5c-0.5,0-1-0.3-1.2-0.7l0.4-0.4
						c0.1,0.4,0.5,0.6,0.9,0.6c0.6,0,1-0.5,1-1c0-0.5-0.4-1-1-1c-0.3,0-0.6,0.1-0.8,0.4H10l0.6-2.1h1.6v0.5L11,372.2L11,372.2z
						 M15,371.9l-1.1,1.5l0,0c0.1-0.1,0.3-0.1,0.4-0.1c0.7,0,1.2,0.6,1.2,1.3c0,0.8-0.6,1.4-1.3,1.4c-0.7,0-1.4-0.6-1.4-1.3
						c0-0.4,0.2-0.8,0.4-1.1l1.4-1.9L15,371.9z M15.1,374.7c0-0.5-0.4-0.9-0.9-0.9c-0.4,0-0.9,0.4-0.9,0.9c0,0.5,0.4,0.9,0.9,0.9
						C14.7,375.5,15.1,375.2,15.1,374.7z M16,373.8c0-0.9,0.4-2.2,1.4-2.2s1.4,1.3,1.4,2.2c0,0.8-0.4,2.2-1.4,2.2S16,374.7,16,373.8
						z M16.5,373.8c0,0.6,0.2,1.7,0.9,1.7s0.9-1.1,0.9-1.7s-0.2-1.7-0.9-1.7C16.7,372.1,16.5,373.3,16.5,373.8z"/>
				</g>
			</g>
			<g id="g4562">
				<g id="h4562">
					<rect id="b4562" x="0.6" y="379.6" class="st3" width="24.3" height="10.8"/>
					<path id="t4562" class="st2" d="M9.3,386.1v0.5H8.9v0.6H8.4v-0.6h-2l2.5-3.7v3.3H9.3z M8.4,384.4L8.4,384.4l-1.2,1.7h1.2
						L8.4,384.4L8.4,384.4z M11.1,383.5l-0.3,0.9l0.3,0c0.8,0,1.3,0.7,1.3,1.5c0,0.9-0.7,1.5-1.5,1.5c-0.5,0-1-0.3-1.2-0.7l0.4-0.4
						c0.1,0.4,0.5,0.6,0.9,0.6c0.5,0,1-0.5,1-1c0-0.5-0.4-1-1-1c-0.3,0-0.6,0.1-0.8,0.4h-0.1l0.6-2.1h1.6v0.5L11.1,383.5L11.1,383.5
						z M15.2,383.2l-1.1,1.5l0,0c0.1-0.1,0.3-0.1,0.4-0.1c0.7,0,1.2,0.6,1.2,1.3c0,0.8-0.6,1.4-1.3,1.4c-0.7,0-1.4-0.6-1.4-1.3
						c0-0.4,0.2-0.8,0.4-1.1l1.4-1.9L15.2,383.2z M15.2,385.9c0-0.5-0.4-0.9-0.9-0.9c-0.4,0-0.9,0.4-0.9,0.9c0,0.5,0.4,0.9,0.9,0.9
						C14.8,386.8,15.2,386.4,15.2,385.9z M18.6,386.7v0.5H16l1.8-2.2c0.2-0.2,0.4-0.5,0.4-0.7c0-0.4-0.4-0.8-0.8-0.8
						c-0.4,0-0.8,0.3-0.8,0.8H16c0.1-0.7,0.5-1.2,1.3-1.2c0.7,0,1.3,0.5,1.3,1.2c0,0.3-0.1,0.6-0.3,0.9l-1.3,1.7L18.6,386.7
						L18.6,386.7z"/>
				</g>
			</g>
			<g id="g4564">
				<g id="h4564">
					<rect id="b4564" x="0.6" y="390.3" class="st3" width="24.3" height="10.8"/>
					<path id="t4564" class="st2" d="M9.2,396.7v0.5H8.7v0.6H8.2v-0.6h-2l2.5-3.7v3.3H9.2z M8.2,395L8.2,395l-1.2,1.7h1.2V395z
						 M11,394.1l-0.3,0.9l0.3,0c0.8,0,1.3,0.7,1.3,1.5c0,0.9-0.7,1.5-1.5,1.5c-0.5,0-1-0.3-1.2-0.7l0.4-0.4c0.1,0.4,0.5,0.6,0.9,0.6
						c0.5,0,1-0.5,1-1c0-0.5-0.4-1-1-1c-0.3,0-0.6,0.1-0.8,0.4H10l0.6-2.1h1.6v0.5L11,394.1L11,394.1z M15,393.8l-1.1,1.5l0,0
						c0.1-0.1,0.3-0.1,0.4-0.1c0.7,0,1.2,0.6,1.2,1.3c0,0.8-0.6,1.4-1.3,1.4c-0.7,0-1.4-0.6-1.4-1.3c0-0.4,0.2-0.8,0.4-1.1l1.4-1.9
						L15,393.8z M15.1,396.5c0-0.5-0.4-0.9-0.9-0.9c-0.4,0-0.9,0.4-0.9,0.9c0,0.5,0.4,0.9,0.9,0.9C14.6,397.4,15.1,397,15.1,396.5z
						 M18.8,396.7v0.5h-0.5v0.6h-0.5v-0.6h-2l2.5-3.7v3.3H18.8z M17.9,395L17.9,395l-1.2,1.7h1.2V395z"/>
				</g>
			</g>
			<g id="g4568">
				<g id="h4568">
					<rect id="b4568" x="0.5" y="422.8" class="st3" width="24.1" height="11.6"/>
					<path id="t4568" class="st2" d="M9.1,430.3v0.5H8.7v0.6H8.2v-0.6h-2l2.5-3.7v3.3H9.1z M8.2,428.6L8.2,428.6L7,430.3h1.2
						L8.2,428.6L8.2,428.6z M11,427.7l-0.3,0.9l0.3,0c0.8,0,1.3,0.7,1.3,1.5c0,0.9-0.7,1.5-1.5,1.5c-0.5,0-1-0.3-1.2-0.7l0.4-0.4
						c0.1,0.4,0.5,0.6,0.9,0.6c0.5,0,1-0.5,1-1c0-0.5-0.4-1-1-1c-0.3,0-0.6,0.1-0.8,0.4H10l0.6-2.1h1.6v0.5L11,427.7L11,427.7z
						 M15,427.4l-1.1,1.5l0,0c0.1-0.1,0.3-0.1,0.4-0.1c0.7,0,1.2,0.6,1.2,1.3c0,0.8-0.6,1.4-1.3,1.4c-0.7,0-1.4-0.6-1.4-1.3
						c0-0.4,0.2-0.8,0.4-1.1l1.4-1.9L15,427.4z M15,430.1c0-0.5-0.4-0.9-0.9-0.9c-0.4,0-0.9,0.4-0.9,0.9c0,0.5,0.4,0.9,0.9,0.9
						C14.6,431,15,430.6,15,430.1z M16.7,429.2c-0.3-0.2-0.5-0.5-0.5-0.9c0-0.7,0.5-1.2,1.2-1.2s1.2,0.5,1.2,1.2
						c0,0.4-0.2,0.7-0.5,0.9c0.4,0.1,0.6,0.5,0.6,1c0,0.8-0.6,1.2-1.3,1.2S16,431,16,430.2C16,429.7,16.2,429.3,16.7,429.2z
						 M16.5,430.2c0,0.4,0.4,0.8,0.8,0.8c0.4,0,0.8-0.4,0.8-0.8c0-0.4-0.4-0.8-0.8-0.8C16.9,429.4,16.5,429.7,16.5,430.2z
						 M16.6,428.3c0,0.3,0.4,0.7,0.7,0.7s0.7-0.4,0.7-0.7c0-0.4-0.3-0.7-0.7-0.7S16.6,427.9,16.6,428.3z"/>
				</g>
			</g>
			<g id="g4570">
				<g id="h4570">
					<rect id="b4570" x="0.5" y="434.5" class="st3" width="24.1" height="10.7"/>
					<path id="t4570" class="st2" d="M9.2,441.1v0.5H8.8v0.6H8.3v-0.6h-2l2.5-3.7v3.3H9.2z M8.3,439.4L8.3,439.4l-1.2,1.7h1.2
						L8.3,439.4L8.3,439.4z M11,438.5l-0.3,0.9l0.3,0c0.8,0,1.3,0.7,1.3,1.5c0,0.9-0.7,1.5-1.5,1.5c-0.5,0-1-0.3-1.2-0.7l0.4-0.4
						c0.1,0.4,0.5,0.6,0.9,0.6c0.6,0,1-0.5,1-1c0-0.5-0.4-1-1-1c-0.3,0-0.6,0.1-0.8,0.4h-0.1l0.6-2.1h1.6v0.5L11,438.5L11,438.5z
						 M12.9,438.5v-0.5h2.9l-2.5,4.2l-0.4-0.2l2.1-3.5H12.9z M15.8,440.1c0-0.9,0.4-2.2,1.4-2.2s1.4,1.3,1.4,2.2
						c0,0.8-0.4,2.2-1.4,2.2S15.8,441,15.8,440.1z M16.3,440.1c0,0.6,0.2,1.7,0.9,1.7s0.9-1.1,0.9-1.7s-0.2-1.7-0.9-1.7
						S16.3,439.5,16.3,440.1z"/>
				</g>
			</g>
			<g id="g4572">
				<g id="h4572">
					<rect id="b4572" x="0.5" y="445.1" class="st3" width="24.1" height="10.7"/>
					<path id="d4572" class="st4" d="M0.6,455.8h1 M3.6,455.8h18.8 M23.4,455.8h1"/>
					<path id="t4572" class="st2" d="M9.2,451.6v0.5H8.7v0.6H8.3v-0.6h-2l2.5-3.7v3.3L9.2,451.6L9.2,451.6z M8.3,449.9L8.3,449.9
						l-1.2,1.7h1.2V449.9z M11,449l-0.3,0.9l0.3,0c0.8,0,1.3,0.7,1.3,1.5c0,0.9-0.7,1.5-1.5,1.5c-0.5,0-1-0.3-1.2-0.7l0.4-0.4
						c0.1,0.4,0.5,0.6,0.9,0.6c0.5,0,1-0.5,1-1c0-0.5-0.4-1-1-1c-0.3,0-0.6,0.1-0.8,0.4h-0.1l0.6-2.1h1.6v0.5L11,449L11,449z
						 M12.9,449v-0.5h2.9l-2.5,4.2l-0.4-0.2L15,449H12.9z M18.5,452.2v0.5h-2.6l1.8-2.2c0.2-0.2,0.4-0.5,0.4-0.7
						c0-0.4-0.4-0.8-0.8-0.8c-0.4,0-0.8,0.3-0.8,0.8H16c0.1-0.7,0.5-1.2,1.3-1.2c0.7,0,1.3,0.5,1.3,1.2c0,0.3-0.1,0.6-0.3,0.9
						l-1.3,1.7L18.5,452.2L18.5,452.2z"/>
				</g>
			</g>
			<g id="g4574">
				<g id="h4574">
					<rect id="b4574" x="0.5" y="455.8" class="st3" width="24.1" height="10.9"/>
					<path id="d4574" class="st4" d="M0.6,455.8h1 M3.6,455.8h18.8 M23.4,455.8h1"/>
					<path id="t4574" class="st2" d="M9.5,462.8v0.5H9v0.6H8.5v-0.6h-2l2.5-3.7v3.3H9.5z M8.5,461.1L8.5,461.1l-1.2,1.7h1.2V461.1z
						 M11.3,460.2l-0.3,0.9l0.3,0c0.8,0,1.3,0.7,1.3,1.5c0,0.9-0.7,1.5-1.5,1.5c-0.5,0-1-0.3-1.2-0.7l0.4-0.4
						c0.1,0.4,0.5,0.6,0.9,0.6c0.5,0,1-0.5,1-1c0-0.5-0.4-1-1-1c-0.3,0-0.6,0.1-0.8,0.4h-0.1l0.6-2.1h1.6v0.5L11.3,460.2L11.3,460.2
						z M13.1,460.2v-0.5H16l-2.5,4.2l-0.4-0.2l2.1-3.5H13.1z M18.4,462.8v0.5h-0.5v0.6h-0.5v-0.6h-2l2.5-3.7v3.3H18.4z M17.5,461.1
						L17.5,461.1l-1.2,1.7h1.2L17.5,461.1L17.5,461.1z"/>
				</g>
			</g>
			<g id="g4576">
				<g id="h4576">
					<rect id="b4576" x="0.5" y="466.7" class="st3" width="24.1" height="10.9"/>
					<path id="t4576" class="st2" d="M9.4,473.1v0.5H8.9v0.6H8.5v-0.6h-2l2.5-3.7v3.3H9.4z M8.5,471.4L8.5,471.4l-1.2,1.7h1.2
						L8.5,471.4L8.5,471.4z M11.2,470.5l-0.3,0.9l0.3,0c0.8,0,1.3,0.7,1.3,1.5c0,0.9-0.7,1.5-1.5,1.5c-0.5,0-1-0.3-1.2-0.7l0.4-0.4
						c0.1,0.4,0.5,0.6,0.9,0.6c0.5,0,1-0.5,1-1c0-0.5-0.4-1-1-1c-0.3,0-0.6,0.1-0.8,0.4h-0.1l0.6-2.1h1.6v0.5L11.2,470.5L11.2,470.5
						z M13,470.5v-0.5H16l-2.5,4.2L13,474l2.1-3.5H13z M17.9,470.2l-1.1,1.5l0,0c0.1-0.1,0.3-0.1,0.4-0.1c0.7,0,1.2,0.6,1.2,1.3
						c0,0.8-0.6,1.4-1.3,1.4c-0.7,0-1.4-0.6-1.4-1.3c0-0.4,0.2-0.8,0.4-1.1l1.4-1.9L17.9,470.2z M17.9,473c0-0.5-0.4-0.9-0.9-0.9
						c-0.4,0-0.9,0.4-0.9,0.9c0,0.5,0.4,0.9,0.9,0.9C17.5,473.8,17.9,473.4,17.9,473z"/>
				</g>
			</g>
			<g id="g4578">
				<g id="h4578">
					<rect id="b4578" x="0.5" y="477.5" class="st3" width="24.1" height="10.9"/>
					<path id="t4578" class="st2" d="M9.2,483.9v0.5H8.8v0.6H8.3v-0.6h-2l2.5-3.7v3.3H9.2z M8.3,482.2L8.3,482.2l-1.2,1.7h1.2V482.2
						z M11,481.3l-0.3,0.9l0.3,0c0.8,0,1.3,0.7,1.3,1.5c0,0.9-0.7,1.5-1.5,1.5c-0.5,0-1-0.3-1.2-0.7l0.4-0.4
						c0.1,0.4,0.5,0.6,0.9,0.6c0.6,0,1-0.5,1-1c0-0.5-0.4-1-1-1c-0.3,0-0.6,0.1-0.8,0.4h-0.1l0.6-2.1h1.6v0.5L11,481.3L11,481.3z
						 M12.9,481.3v-0.5h2.9l-2.5,4.2l-0.4-0.2l2.1-3.5H12.9z M16.6,482.8c-0.3-0.2-0.5-0.5-0.5-0.9c0-0.7,0.5-1.2,1.2-1.2
						c0.6,0,1.2,0.5,1.2,1.2c0,0.4-0.2,0.7-0.5,0.9c0.4,0.1,0.6,0.5,0.6,1c0,0.8-0.6,1.2-1.3,1.2s-1.3-0.5-1.3-1.2
						C15.9,483.3,16.2,482.9,16.6,482.8z M16.4,483.8c0,0.4,0.4,0.8,0.8,0.8c0.4,0,0.8-0.4,0.8-0.8c0-0.4-0.4-0.8-0.8-0.8
						C16.8,483,16.4,483.3,16.4,483.8z M16.5,481.9c0,0.3,0.4,0.7,0.7,0.7s0.7-0.4,0.7-0.7c0-0.4-0.3-0.7-0.7-0.7
						S16.5,481.5,16.5,481.9z"/>
				</g>
			</g>
			<g id="g4580">
				<g id="h4580">
					<rect id="b4580" x="0.5" y="488.4" class="st3" width="24.1" height="10.9"/>
					<path id="t4580" class="st2" d="M9.1,494.7v0.5H8.7v0.6H8.2v-0.6h-2l2.5-3.7v3.3H9.1z M8.2,493L8.2,493L7,494.7h1.2V493z
						 M10.9,492.1l-0.3,0.9l0.3,0c0.8,0,1.3,0.7,1.3,1.5c0,0.9-0.7,1.5-1.5,1.5c-0.5,0-1-0.3-1.2-0.7l0.4-0.4
						c0.1,0.4,0.5,0.6,0.9,0.6c0.5,0,1-0.5,1-1c0-0.5-0.4-1-1-1c-0.3,0-0.6,0.1-0.8,0.4H10l0.6-2.1h1.6v0.5L10.9,492.1L10.9,492.1z
						 M13.5,493.6c-0.3-0.2-0.5-0.5-0.5-0.9c0-0.7,0.5-1.2,1.2-1.2c0.6,0,1.2,0.5,1.2,1.2c0,0.4-0.2,0.7-0.5,0.9
						c0.4,0.1,0.6,0.5,0.6,1c0,0.8-0.6,1.2-1.3,1.2s-1.3-0.5-1.3-1.2C12.8,494.2,13,493.8,13.5,493.6z M13.3,494.6
						c0,0.4,0.4,0.8,0.8,0.8c0.4,0,0.8-0.4,0.8-0.8c0-0.4-0.4-0.8-0.8-0.8C13.7,493.9,13.3,494.2,13.3,494.6z M13.4,492.7
						c0,0.3,0.4,0.7,0.7,0.7s0.7-0.4,0.7-0.7c0-0.4-0.3-0.7-0.7-0.7S13.4,492.3,13.4,492.7z M15.9,493.7c0-0.9,0.4-2.2,1.4-2.2
						c1,0,1.4,1.3,1.4,2.2c0,0.8-0.4,2.2-1.4,2.2S15.9,494.6,15.9,493.7z M16.4,493.7c0,0.6,0.2,1.7,0.9,1.7s0.9-1.1,0.9-1.7
						S18,492,17.3,492S16.4,493.1,16.4,493.7z"/>
				</g>
			</g>
			<g id="g4582">
				<g id="h4582">
					<rect id="b4582" x="0.5" y="499.2" class="st3" width="24.1" height="10.7"/>
					<path id="t4582" class="st2" d="M9.2,505.5v0.5H8.7v0.6H8.3v-0.6h-2l2.5-3.7v3.3H9.2z M8.3,503.8L8.3,503.8l-1.2,1.7h1.2
						L8.3,503.8L8.3,503.8z M11,502.9l-0.3,0.9l0.3,0c0.8,0,1.3,0.7,1.3,1.5c0,0.9-0.7,1.5-1.5,1.5c-0.5,0-1-0.3-1.2-0.7l0.4-0.4
						c0.1,0.4,0.5,0.6,0.9,0.6c0.6,0,1-0.5,1-1c0-0.5-0.4-1-1-1c-0.3,0-0.6,0.1-0.8,0.4h-0.1l0.6-2.1h1.6v0.5L11,502.9L11,502.9z
						 M13.5,504.4c-0.3-0.2-0.5-0.5-0.5-0.9c0-0.7,0.5-1.2,1.2-1.2s1.2,0.5,1.2,1.2c0,0.4-0.2,0.7-0.5,0.9c0.4,0.1,0.6,0.5,0.6,1
						c0,0.8-0.6,1.2-1.3,1.2s-1.3-0.5-1.3-1.2C12.9,504.9,13.1,504.5,13.5,504.4z M13.4,505.4c0,0.4,0.4,0.8,0.8,0.8
						c0.4,0,0.8-0.4,0.8-0.8c0-0.4-0.4-0.8-0.8-0.8C13.8,504.6,13.4,504.9,13.4,505.4z M13.5,503.5c0,0.3,0.4,0.7,0.7,0.7
						s0.7-0.4,0.7-0.7c0-0.4-0.3-0.7-0.7-0.7S13.5,503.1,13.5,503.5z M18.5,506.1v0.5h-2.6l1.8-2.2c0.2-0.2,0.4-0.5,0.4-0.7
						c0-0.4-0.4-0.8-0.8-0.8c-0.4,0-0.8,0.3-0.8,0.8H16c0.1-0.7,0.6-1.2,1.3-1.2c0.7,0,1.3,0.5,1.3,1.2c0,0.3-0.1,0.6-0.3,0.9
						l-1.3,1.7L18.5,506.1L18.5,506.1z"/>
				</g>
			</g>
			<g id="g4584">
				<g id="h4584">
					<rect id="b4584" x="0.5" y="509.9" class="st3" width="24.1" height="10.9"/>
					<path id="t4584" class="st2" d="M9.1,516.3v0.5H8.7v0.6H8.2v-0.6h-2l2.5-3.7v3.3H9.1z M8.2,514.6L8.2,514.6L7,516.3h1.2
						L8.2,514.6L8.2,514.6z M11,513.7l-0.3,0.9l0.3,0c0.8,0,1.3,0.7,1.3,1.5c0,0.9-0.7,1.5-1.5,1.5c-0.5,0-1-0.3-1.2-0.7l0.4-0.4
						c0.1,0.4,0.5,0.6,0.9,0.6c0.6,0,1-0.5,1-1c0-0.5-0.4-1-1-1c-0.3,0-0.6,0.1-0.8,0.4H10l0.6-2.1h1.6v0.5H11z M13.5,515.3
						c-0.3-0.2-0.5-0.5-0.5-0.9c0-0.7,0.5-1.2,1.2-1.2s1.2,0.5,1.2,1.2c0,0.4-0.2,0.7-0.5,0.9c0.4,0.1,0.6,0.5,0.6,1
						c0,0.8-0.6,1.2-1.3,1.2s-1.3-0.5-1.3-1.2C12.8,515.8,13.1,515.4,13.5,515.3z M13.3,516.2c0,0.4,0.4,0.8,0.8,0.8
						s0.8-0.4,0.8-0.8c0-0.4-0.4-0.8-0.8-0.8S13.3,515.8,13.3,516.2z M13.4,514.3c0,0.3,0.4,0.7,0.7,0.7s0.7-0.4,0.7-0.7
						c0-0.4-0.3-0.7-0.7-0.7S13.4,513.9,13.4,514.3z M18.7,516.3v0.5h-0.5v0.6h-0.5v-0.6h-2l2.5-3.7v3.3H18.7z M17.8,514.6
						L17.8,514.6l-1.2,1.7h1.2L17.8,514.6L17.8,514.6z"/>
				</g>
			</g>
			<g id="g4586">
				<g id="h4586">
					<rect id="b4586" x="0.5" y="520.8" class="st3" width="24.1" height="11.1"/>
					<path id="t4586" class="st2" d="M9.2,527.3v0.5H8.7v0.6H8.2v-0.6h-2l2.5-3.7v3.3H9.2z M8.2,525.6L8.2,525.6l-1.2,1.7h1.2V525.6
						z M11,524.7l-0.3,0.9l0.3,0c0.8,0,1.3,0.7,1.3,1.5c0,0.9-0.7,1.5-1.5,1.5c-0.5,0-1-0.3-1.2-0.7l0.4-0.4
						c0.1,0.4,0.5,0.6,0.9,0.6c0.5,0,1-0.5,1-1c0-0.5-0.4-1-1-1c-0.3,0-0.6,0.1-0.8,0.4H10l0.6-2.1h1.6v0.5H11z M13.5,526.2
						c-0.3-0.2-0.5-0.5-0.5-0.9c0-0.7,0.5-1.2,1.2-1.2s1.2,0.5,1.2,1.2c0,0.4-0.2,0.7-0.5,0.9c0.4,0.1,0.6,0.5,0.6,1
						c0,0.8-0.6,1.2-1.3,1.2s-1.3-0.5-1.3-1.2C12.9,526.7,13.1,526.3,13.5,526.2z M13.3,527.2c0,0.4,0.4,0.8,0.8,0.8
						c0.4,0,0.8-0.4,0.8-0.8c0-0.4-0.4-0.8-0.8-0.8C13.7,526.4,13.3,526.7,13.3,527.2z M13.4,525.3c0,0.3,0.4,0.7,0.7,0.7
						s0.7-0.4,0.7-0.7c0-0.4-0.3-0.7-0.7-0.7S13.4,524.9,13.4,525.3z M18.1,524.4l-1.1,1.5l0,0c0.1-0.1,0.3-0.1,0.4-0.1
						c0.7,0,1.2,0.6,1.2,1.3c0,0.8-0.6,1.4-1.3,1.4c-0.7,0-1.4-0.6-1.4-1.3c0-0.4,0.2-0.8,0.4-1.1l1.4-1.9L18.1,524.4z M18.1,527.1
						c0-0.5-0.4-0.9-0.9-0.9c-0.4,0-0.9,0.4-0.9,0.9c0,0.5,0.4,0.9,0.9,0.9C17.7,528,18.1,527.6,18.1,527.1z"/>
				</g>
			</g>
			<g id="g4588">
				<g id="h4588">
					<rect id="b4588" x="0.5" y="531.8" class="st3" width="24.1" height="10.4"/>
					<path id="t4588" class="st2" d="M9.1,537.9v0.5H8.7v0.6H8.2v-0.6h-2l2.5-3.7v3.3H9.1z M8.2,536.2L8.2,536.2L7,537.9h1.2V536.2z
						 M11,535.3l-0.3,0.9l0.3,0c0.8,0,1.3,0.7,1.3,1.5c0,0.9-0.7,1.5-1.5,1.5c-0.5,0-1-0.3-1.2-0.7l0.4-0.4c0.1,0.4,0.5,0.6,0.9,0.6
						c0.5,0,1-0.5,1-1c0-0.5-0.4-1-1-1c-0.3,0-0.6,0.1-0.8,0.4H10l0.6-2.1h1.6v0.5H11z M13.5,536.8c-0.3-0.2-0.5-0.5-0.5-0.9
						c0-0.7,0.5-1.2,1.2-1.2c0.6,0,1.2,0.5,1.2,1.2c0,0.4-0.2,0.7-0.5,0.9c0.4,0.1,0.6,0.5,0.6,1c0,0.8-0.6,1.2-1.3,1.2
						s-1.3-0.5-1.3-1.2C12.8,537.4,13.1,537,13.5,536.8z M13.3,537.8c0,0.4,0.4,0.8,0.8,0.8c0.4,0,0.8-0.4,0.8-0.8
						c0-0.4-0.4-0.8-0.8-0.8C13.7,537,13.3,537.4,13.3,537.8z M13.4,535.9c0,0.3,0.4,0.7,0.7,0.7s0.7-0.4,0.7-0.7
						c0-0.4-0.3-0.7-0.7-0.7S13.4,535.5,13.4,535.9z M16.7,536.8c-0.3-0.2-0.5-0.5-0.5-0.9c0-0.7,0.5-1.2,1.2-1.2s1.2,0.5,1.2,1.2
						c0,0.4-0.2,0.7-0.5,0.9c0.4,0.1,0.6,0.5,0.6,1c0,0.8-0.6,1.2-1.3,1.2s-1.3-0.5-1.3-1.2C16,537.4,16.2,537,16.7,536.8z
						 M16.5,537.8c0,0.4,0.4,0.8,0.8,0.8s0.8-0.4,0.8-0.8c0-0.4-0.4-0.8-0.8-0.8C16.9,537,16.5,537.4,16.5,537.8z M16.6,535.9
						c0,0.3,0.4,0.7,0.7,0.7s0.7-0.4,0.7-0.7c0-0.4-0.3-0.7-0.7-0.7S16.6,535.5,16.6,535.9z"/>
				</g>
			</g>
			<g id="g4590">
				<g id="h4590">
					<rect id="b4590" x="0.5" y="542.3" class="st3" width="24.1" height="10.9"/>
					<path id="t4590" class="st2" d="M9.2,548.9v0.5H8.7v0.6H8.2v-0.6h-2l2.5-3.7v3.3H9.2z M8.2,547.2L8.2,547.2l-1.2,1.7h1.2
						C8.2,548.9,8.2,547.2,8.2,547.2z M11,546.3l-0.3,0.9l0.3,0c0.8,0,1.3,0.7,1.3,1.5c0,0.9-0.7,1.5-1.5,1.5c-0.5,0-1-0.3-1.2-0.7
						L10,549c0.1,0.4,0.5,0.6,0.9,0.6c0.6,0,1-0.5,1-1c0-0.5-0.4-1-1-1c-0.3,0-0.6,0.1-0.8,0.4H10l0.6-2.1h1.6v0.5H11z M13.3,549.8
						l1.1-1.5l0,0c-0.1,0.1-0.3,0.1-0.4,0.1c-0.7,0-1.2-0.6-1.2-1.3c0-0.8,0.6-1.4,1.3-1.4c0.7,0,1.4,0.6,1.4,1.3
						c0,0.4-0.2,0.8-0.4,1.1l-1.4,1.9L13.3,549.8z M15,547.1c0-0.4-0.4-0.9-0.8-0.9c-0.5,0-0.9,0.4-0.9,0.9c0,0.5,0.4,0.9,0.9,0.9
						C14.6,547.9,15,547.5,15,547.1z M15.8,547.9c0-0.9,0.4-2.2,1.4-2.2s1.4,1.3,1.4,2.2c0,0.8-0.4,2.2-1.4,2.2
						S15.8,548.7,15.8,547.9z M16.3,547.9c0,0.6,0.2,1.7,0.9,1.7s0.9-1.1,0.9-1.7s-0.2-1.7-0.9-1.7
						C16.5,546.2,16.3,547.3,16.3,547.9z"/>
				</g>
			</g>
			<g id="g4592">
				<g id="h4592">
					<rect id="b4592" x="0.5" y="553.1" class="st3" width="24.1" height="10.7"/>
					<path id="t4592" class="st2" d="M9.2,559.7v0.5H8.7v0.6H8.3v-0.6h-2l2.5-3.7v3.3H9.2z M8.3,558L8.3,558l-1.2,1.7h1.2L8.3,558
						L8.3,558z M11,557.1l-0.3,0.9l0.3,0c0.8,0,1.3,0.7,1.3,1.4c0,0.9-0.7,1.5-1.5,1.5c-0.5,0-1-0.3-1.2-0.7l0.4-0.4
						c0.1,0.4,0.5,0.6,0.9,0.6c0.5,0,1-0.5,1-1c0-0.5-0.4-1-1-1c-0.3,0-0.6,0.1-0.8,0.4h-0.1l0.6-2.1h1.6v0.5L11,557.1L11,557.1z
						 M13.3,560.6l1.1-1.5l0,0c-0.1,0.1-0.3,0.1-0.4,0.1c-0.7,0-1.2-0.6-1.2-1.3c0-0.8,0.6-1.4,1.3-1.4c0.7,0,1.4,0.6,1.4,1.3
						c0,0.4-0.2,0.8-0.4,1.1l-1.4,1.9L13.3,560.6z M15,557.9c0-0.4-0.4-0.9-0.8-0.9c-0.5,0-0.9,0.4-0.9,0.9c0,0.5,0.4,0.9,0.9,0.9
						C14.6,558.8,15,558.3,15,557.9z M18.5,560.3v0.5h-2.6l1.8-2.2c0.2-0.2,0.4-0.5,0.4-0.7c0-0.4-0.4-0.8-0.8-0.8
						c-0.4,0-0.8,0.3-0.8,0.8H16c0.1-0.7,0.5-1.2,1.3-1.2c0.7,0,1.3,0.5,1.3,1.2c0,0.3-0.1,0.6-0.3,0.9l-1.3,1.7L18.5,560.3
						C18.5,560.3,18.5,560.3,18.5,560.3z"/>
				</g>
			</g>
			<g id="g4594">
				<g id="h4594">
					<rect id="b4594" x="0.5" y="563.8" class="st3" width="24.1" height="10.7"/>
					<path id="t4594" class="st2" d="M9.4,570.1v0.5H8.9v0.6H8.4v-0.6h-2l2.5-3.7v3.3H9.4z M8.4,568.4L8.4,568.4l-1.2,1.7h1.2V568.4
						z M11.2,567.5l-0.3,0.9l0.3,0c0.8,0,1.3,0.7,1.3,1.4c0,0.9-0.7,1.5-1.5,1.5c-0.5,0-1-0.3-1.2-0.7l0.4-0.4
						c0.1,0.4,0.5,0.6,0.9,0.6c0.5,0,1-0.5,1-1c0-0.5-0.4-1-1-1c-0.3,0-0.6,0.1-0.8,0.4h-0.1l0.6-2.1h1.6v0.5L11.2,567.5L11.2,567.5
						z M13.5,571l1.1-1.5l0,0c-0.1,0.1-0.3,0.1-0.4,0.1c-0.7,0-1.2-0.6-1.2-1.3c0-0.8,0.6-1.4,1.3-1.4c0.7,0,1.4,0.6,1.4,1.3
						c0,0.4-0.2,0.8-0.4,1.1l-1.4,1.9L13.5,571z M15.2,568.3c0-0.4-0.4-0.9-0.8-0.9c-0.5,0-0.9,0.4-0.9,0.9c0,0.5,0.4,0.9,0.9,0.9
						C14.8,569.2,15.2,568.7,15.2,568.3z M18.5,570.1v0.5H18v0.6h-0.5v-0.6h-2l2.5-3.7v3.3H18.5z M17.5,568.4L17.5,568.4l-1.2,1.7
						h1.2V568.4z"/>
				</g>
			</g>
			<g id="g4596">
				<g id="h4596">
					<rect id="b4596" x="0.5" y="574.4" class="st3" width="24.1" height="11.5"/>
					<path id="d4596" class="st4" d="M0.6,585.9h1 M3.6,585.9h18.8 M23.4,585.9h1"/>
					<path id="t4596" class="st2" d="M9.3,581.1v0.5H8.8v0.6H8.3v-0.6h-2l2.5-3.7v3.3H9.3z M8.3,579.4L8.3,579.4l-1.2,1.7h1.2V579.4
						z M11.1,578.5l-0.3,0.9l0.3,0c0.8,0,1.3,0.7,1.3,1.5c0,0.9-0.7,1.5-1.5,1.5c-0.5,0-1-0.3-1.2-0.7l0.4-0.4
						c0.1,0.4,0.5,0.6,0.9,0.6c0.5,0,1-0.5,1-1c0-0.5-0.4-1-1-1c-0.3,0-0.6,0.1-0.8,0.4h-0.1l0.6-2.1h1.6v0.5H11.1z M13.4,582
						l1.1-1.5l0,0c-0.1,0.1-0.3,0.1-0.4,0.1c-0.7,0-1.2-0.6-1.2-1.3c0-0.8,0.6-1.4,1.3-1.4c0.7,0,1.4,0.6,1.4,1.3
						c0,0.4-0.2,0.8-0.4,1.1l-1.4,1.9L13.4,582z M15.1,579.3c0-0.4-0.4-0.9-0.8-0.9c-0.5,0-0.9,0.4-0.9,0.9c0,0.5,0.4,0.9,0.9,0.9
						C14.7,580.1,15.1,579.7,15.1,579.3z M18,578.2l-1.1,1.5l0,0c0.1-0.1,0.3-0.1,0.4-0.1c0.7,0,1.2,0.6,1.2,1.3
						c0,0.8-0.6,1.4-1.3,1.4c-0.7,0-1.4-0.6-1.4-1.3c0-0.4,0.2-0.8,0.4-1.1l1.4-1.9L18,578.2z M18,580.9c0-0.5-0.4-0.9-0.9-0.9
						c-0.4,0-0.9,0.4-0.9,0.9c0,0.5,0.4,0.9,0.9,0.9C17.6,581.8,18,581.4,18,580.9z"/>
				</g>
			</g>
			<g id="g4598">
				<g id="h4598">
					<rect id="b4598" x="0.5" y="585.9" class="st3" width="24.1" height="10.4"/>
					<path id="d4598" class="st4" d="M0.6,585.9h1 M3.6,585.9h18.8 M23.4,585.9h1"/>
					<path id="t4598" class="st2" d="M9.2,592.4v0.5H8.8v0.6H8.3v-0.6h-2l2.5-3.7v3.3H9.2z M8.3,590.7L8.3,590.7l-1.2,1.7h1.2
						C8.3,592.4,8.3,590.7,8.3,590.7z M11.1,589.8l-0.3,0.9l0.3,0c0.8,0,1.3,0.7,1.3,1.4c0,0.9-0.7,1.5-1.5,1.5
						c-0.5,0-1-0.3-1.2-0.7l0.4-0.4c0.1,0.4,0.5,0.6,0.9,0.6c0.5,0,1-0.5,1-1c0-0.5-0.4-1-1-1c-0.3,0-0.6,0.1-0.8,0.4h-0.1l0.6-2.1
						h1.6v0.5L11.1,589.8L11.1,589.8z M13.3,593.3l1.1-1.5l0,0c-0.1,0.1-0.3,0.1-0.4,0.1c-0.7,0-1.2-0.6-1.2-1.3
						c0-0.8,0.6-1.4,1.3-1.4c0.7,0,1.4,0.6,1.4,1.3c0,0.4-0.2,0.8-0.4,1.1l-1.4,1.9L13.3,593.3z M15,590.5c0-0.4-0.4-0.9-0.8-0.9
						c-0.5,0-0.9,0.4-0.9,0.9c0,0.5,0.4,0.9,0.9,0.9C14.7,591.4,15,591,15,590.5z M16.6,591.3c-0.3-0.2-0.5-0.5-0.5-0.9
						c0-0.7,0.5-1.2,1.2-1.2c0.6,0,1.2,0.5,1.2,1.2c0,0.4-0.2,0.7-0.5,0.9c0.4,0.1,0.6,0.5,0.6,1c0,0.8-0.6,1.2-1.3,1.2
						s-1.3-0.5-1.3-1.2C15.9,591.8,16.2,591.4,16.6,591.3z M16.4,592.3c0,0.4,0.4,0.8,0.8,0.8c0.4,0,0.8-0.4,0.8-0.8
						c0-0.4-0.4-0.8-0.8-0.8C16.8,591.5,16.4,591.9,16.4,592.3z M16.5,590.4c0,0.3,0.4,0.7,0.7,0.7c0.3,0,0.7-0.4,0.7-0.7
						c0-0.4-0.3-0.7-0.7-0.7C16.8,589.7,16.5,590,16.5,590.4z"/>
				</g>
			</g>
			<g id="g4600">
				<g id="h4600">
					<rect id="b4600" x="0.8" y="629.2" class="st3" width="24.4" height="10.9"/>
					<path id="t4600" class="st2" d="M9.8,636.2v0.5H9.3v0.6H8.8v-0.6h-2l2.5-3.7v3.3H9.8z M8.8,634.5L8.8,634.5l-1.2,1.7h1.2
						L8.8,634.5L8.8,634.5z M12.4,633.2l-1.1,1.5l0,0c0.1-0.1,0.3-0.1,0.4-0.1c0.7,0,1.2,0.6,1.2,1.3c0,0.8-0.6,1.4-1.3,1.4
						c-0.7,0-1.4-0.6-1.4-1.3c0-0.4,0.2-0.8,0.4-1.1L12,633L12.4,633.2z M12.4,636c0-0.5-0.4-0.9-0.9-0.9c-0.4,0-0.9,0.4-0.9,0.9
						c0,0.5,0.4,0.9,0.9,0.9C12,636.8,12.4,636.5,12.4,636z M13.3,635.1c0-0.9,0.4-2.2,1.4-2.2s1.4,1.3,1.4,2.2
						c0,0.8-0.4,2.2-1.4,2.2S13.3,636,13.3,635.1z M13.8,635.1c0,0.6,0.2,1.7,0.9,1.7s0.9-1.1,0.9-1.7s-0.2-1.7-0.9-1.7
						S13.8,634.6,13.8,635.1z M16.6,635.1c0-0.9,0.4-2.2,1.4-2.2s1.4,1.3,1.4,2.2c0,0.8-0.4,2.2-1.4,2.2S16.6,636,16.6,635.1z
						 M17.1,635.1c0,0.6,0.2,1.7,0.9,1.7s0.9-1.1,0.9-1.7s-0.2-1.7-0.9-1.7C17.3,633.4,17.1,634.6,17.1,635.1z"/>
				</g>
			</g>
			<g id="g4602">
				<g id="h4602">
					<rect id="b4602" x="0.8" y="640.1" class="st3" width="24.4" height="10"/>
					<path id="t4602" class="st2" d="M9.8,646.2v0.5H9.4v0.6H8.9v-0.6h-2l2.5-3.7v3.3H9.8z M8.9,644.5L8.9,644.5l-1.2,1.7h1.2V644.5
						z M12.5,643.3l-1.1,1.5l0,0c0.1-0.1,0.3-0.1,0.4-0.1c0.7,0,1.2,0.6,1.2,1.3c0,0.8-0.6,1.4-1.3,1.4c-0.7,0-1.4-0.6-1.4-1.3
						c0-0.4,0.2-0.8,0.4-1.1l1.4-1.9L12.5,643.3z M12.5,646.1c0-0.5-0.4-0.9-0.9-0.9c-0.4,0-0.9,0.4-0.9,0.9c0,0.5,0.4,0.9,0.9,0.9
						C12.1,646.9,12.5,646.5,12.5,646.1z M13.4,645.2c0-0.9,0.4-2.2,1.4-2.2s1.4,1.3,1.4,2.2c0,0.8-0.4,2.2-1.4,2.2
						S13.4,646.1,13.4,645.2z M13.9,645.2c0,0.6,0.2,1.7,0.9,1.7s0.9-1.1,0.9-1.7s-0.2-1.7-0.9-1.7S13.9,644.6,13.9,645.2z
						 M19.3,646.8v0.5h-2.6l1.8-2.2c0.2-0.2,0.4-0.5,0.4-0.7c0-0.4-0.4-0.8-0.8-0.8c-0.4,0-0.8,0.3-0.8,0.8h-0.5
						c0.1-0.7,0.5-1.2,1.3-1.2c0.7,0,1.3,0.5,1.3,1.2c0,0.3-0.1,0.6-0.3,0.9l-1.3,1.7L19.3,646.8L19.3,646.8z"/>
				</g>
			</g>
		</g>
	</g>
	<g id="gDeck04SailAwayInsideIX">
		<g id="hDeck04SailAwayInsideIX">
			<g id="g4555">
				<g id="h4555">
					<rect id="b4555" x="30.3" y="346.9" class="st3" width="20" height="10.3"/>
					<path id="t4555" class="st2" d="M36.9,352.9v0.5h-0.5v0.6H36v-0.6h-2l2.5-3.7v3.3H36.9z M36,351.2L36,351.2l-1.2,1.7H36V351.2z
						 M38.8,350.3l-0.3,0.9l0.3,0c0.8,0,1.3,0.7,1.3,1.5c0,0.9-0.7,1.5-1.5,1.5c-0.5,0-1-0.3-1.2-0.7l0.4-0.4
						c0.1,0.4,0.5,0.6,0.9,0.6c0.5,0,1-0.5,1-1c0-0.5-0.4-1-1-1c-0.3,0-0.6,0.1-0.8,0.4h-0.1l0.6-2.1H40v0.5L38.8,350.3L38.8,350.3z
						 M41.9,350.3l-0.3,0.9l0.3,0c0.8,0,1.3,0.7,1.3,1.5c0,0.9-0.7,1.5-1.5,1.5c-0.5,0-1-0.3-1.2-0.7l0.4-0.4
						c0.1,0.4,0.5,0.6,0.9,0.6c0.5,0,1-0.5,1-1c0-0.5-0.4-1-1-1c-0.3,0-0.6,0.1-0.8,0.4h-0.1l0.6-2.1h1.6v0.5L41.9,350.3L41.9,350.3
						z M45,350.3l-0.3,0.9l0.3,0c0.8,0,1.3,0.7,1.3,1.5c0,0.9-0.7,1.5-1.5,1.5c-0.5,0-1-0.3-1.2-0.7l0.4-0.4
						c0.1,0.4,0.5,0.6,0.9,0.6c0.5,0,1-0.5,1-1c0-0.5-0.4-1-1-1c-0.3,0-0.6,0.1-0.8,0.4h-0.1l0.6-2.1h1.6v0.5L45,350.3L45,350.3z"/>
				</g>
			</g>
		</g>
	</g>
</g>
<g id="JADE_DECK_04_TOP">
	<g id="gDeck04Locations">
		<path width="126.6345" height="407.662" id="_x30_4Aft" class="st5" d="M0.7,1061.8c5.2,14.6,37.4,17.8,53.8,18.4l20.6-0.1c16.8-0.8,47-4.3,52-18.3
			c0.1-9.6,0.1-196,0.2-389.2H0.6C0.6,865.8,0.6,1052.2,0.7,1061.8z"/>
		<path width="126.7393" height="423" id="_x30_4MidShip" class="st5" d="M0.5,249.6c0,50.4,0,239.7,0.1,423h126.6c0-183.3,0-372.6,0.1-423H0.5z"/>
		<path width="126.741" height="249.057" id="_x30_4Forward" class="st5" d="M127.2,236.6c0,0-0.2-32.5-0.6-36.4c-0.1-1.4-0.8-21.8-1.7-31
			C121.4,133.9,114.9,59.9,65,1c-0.3-0.2-0.6-0.4-0.9-0.5h-0.5C63.3,0.6,63,0.7,62.7,1C10.4,61.6,5.1,146.5,2.5,171.7
			c-0.9,12.5-1.3,27.1-1.5,28.5c-0.3,3.9-0.6,36.4-0.6,36.4s0,4.5,0,12.9h126.7C127.2,241.2,127.2,236.6,127.2,236.6z"/>
	</g>
	<path class="st6" d="M75.1,1080.1c16.8-0.8,47-4.3,52-18.3c0.2-20.2,0.2-825.2,0.2-825.2s-0.2-32.5-0.6-36.4
		c-0.1-1.4-0.8-21.8-1.7-31C121.4,133.9,114.9,59.9,65,1c-0.3-0.2-0.6-0.4-0.9-0.5h-0.5C63.3,0.6,63,0.7,62.7,1
		C10.4,61.6,5.1,146.5,2.5,171.7c-0.9,12.5-1.3,27.1-1.5,28.5c-0.3,3.9-0.6,36.4-0.6,36.4s0.1,805,0.2,825.2
		c5.2,14.6,37.4,17.8,53.8,18.4L75.1,1080.1z"/>
</g>
</svg>
