<?xml version="1.0" encoding="utf-8"?>
<!-- Generator: Adobe Illustrator 25.4.1, SVG Export Plug-In . SVG Version: 6.00 Build 0)  -->
<svg version="1.1" id="JADE_DECK_06" xmlns="http://www.w3.org/2000/svg" xmlns:xlink="http://www.w3.org/1999/xlink" x="0px"
	 y="0px" width="127.7px" height="1080.7px" viewBox="0 0 127.7 1080.7" style="enable-background:new 0 0 127.7 1080.7;"
	 xml:space="preserve">
<style type="text/css">
	.st0{fill:#FFFFFF;}
	.st1{fill:none;stroke:#D5DCE0;stroke-width:0.5;}
	.st2{fill:#6E8496;}
	.st3{fill:none;}
	.st4{fill:none;stroke:#076FA0;stroke-miterlimit:10;}
</style>
<g id="JADE_DECK_06_BOTTOM">
	<path class="st0" d="M63.7,0.3c0,0,13.8,15.5,28,40.3c16,28,26.7,76,27.7,85.3c0.2,1.4,6.3,25.2,6.7,62.7
		c2.1,208.6,1,874.7,1,874.7l-5.3,5.3c0,0-10.7,11.3-57.7,12s-57.7-11-57.7-11l-5.7-7.7L1,191.6l7.3-66c0,0,5-42.3,30-90.7
		C45,22.1,63.7,0.3,63.7,0.3z"/>
	<path class="st1" d="M51,959.7c0,0.6-0.5,1.1-1.1,1.1c-0.6,0-1.1-0.5-1.1-1.1c0-0.6,0.5-1.1,1.1-1.1C50.5,958.6,51,959.1,51,959.7z
		"/>
	<path class="st1" d="M76.7,959.7c0,0.6,0.5,1.1,1.1,1.1c0.6,0,1.1-0.5,1.1-1.1c0-0.6-0.5-1.1-1.1-1.1
		C77.2,958.6,76.7,959.1,76.7,959.7z"/>
	<path class="st1" d="M62.3,962.8c-8.7-0.8-15.6-7.7-16.6-16.3"/>
	<path class="st1" d="M82.3,946.6c-1,8.6-7.8,15.4-16.5,16.2"/>
	<path class="st1" d="M77.1,960.5c-3.5,2.9-8,4.7-13,4.7c-5,0-9.5-1.8-13.1-4.8"/>
	<path class="st1" d="M62.5,960.7c-7.4-0.7-13.3-6.8-14.2-14.5"/>
	<path class="st1" d="M79.7,946.2c-0.8,7.7-6.8,13.7-14.2,14.5"/>
	<path class="st1" d="M63,958.5c-6.3-0.5-11.3-5.4-12.1-11.7"/>
	<path class="st1" d="M77.1,946.8c-1.2,9.9-8.5,11.5-12.1,11.7"/>
	<path class="st1" d="M55.2,955.3c0,0-3.5,5.4-4.6,5.1"/>
	<path class="st1" d="M72.7,955.4c0,0,3.3,5.3,4.4,4.9"/>
	
		<ellipse transform="matrix(3.327807e-02 -0.9994 0.9994 3.327807e-02 -900.5839 995.1127)" class="st1" cx="64.1" cy="963.1" rx="1.8" ry="1.8"/>
	<polyline class="st1" points="62.1,963.1 64,955 66,963.2 	"/>
	<path class="st1" d="M34.2,953.4c0,0,4.4,5.5,3.8,18"/>
	<path class="st1" d="M94.3,953.4c0,0-4.4,5.5-3.8,18"/>
	<path class="st1" d="M114.6,477c0,0-1,5-3.6,8.3c-7.2,12.7-25.2,12.2-30.7,8.6c-4.5-2.1-7.7-6.7-7.7-6.7l7.8-13
		c0,0,3.4-4.5,1.9-5.8c-0.4-0.6-3.1-2.1-3.1-2.1l4.4-9.7h32.3C115.8,456.6,116.4,472.5,114.6,477z"/>
	<polyline class="st1" points="24.1,1076.2 24.1,991.7 0.7,991.7 	"/>
	<polyline class="st1" points="103.8,1076.2 103.8,991.7 127.2,991.7 	"/>
	<polygon class="st1" points="59,943.3 53.7,943.3 53.7,946.4 45.4,946.4 45.4,917.3 52.6,917.3 52.6,937.6 60.2,937.6 63.6,937.6 
		76,937.6 76,917.3 83.2,917.3 83.2,946.4 74.9,946.4 74.9,943.3 63.4,943.3 	"/>
	<line class="st1" x1="0.4" y1="927.9" x2="45.5" y2="927.9"/>
	<polyline class="st1" points="83.3,927.9 104.2,927.9 104.2,895.4 127,895.4 	"/>
	<path class="st1" d="M62.6,894.1h27.5v44.1c0,0-0.6,5.4-2.1,9.4c-1.5,3.9-8.2,16.6-3.9,26.9c0,0-12.7,4.8-14.5,4.8
		c0,0-0.8,2.8-3.7,3.5l-2.1,0.1c-3.3-0.5-4.7-3.6-4.7-3.6c-1.8,0-14.5-4.8-14.5-4.8c4.2-10.3-2.4-23-3.9-26.9s-2.1-9.4-2.1-9.4
		v-44.1H66"/>
	<line class="st1" x1="103.6" y1="797.8" x2="127.6" y2="797.8"/>
	<polyline class="st1" points="79.9,634.4 79.9,615.9 48.3,615.9 48.3,634.8 	"/>
	<line class="st1" x1="127.3" y1="615.7" x2="0.8" y2="615.7"/>
	<polyline class="st1" points="85.5,588.9 92.3,588.9 92.3,550.5 92.3,518.6 58.9,518.6 58.9,508.2 50.9,508.2 50.9,505.3 
		31.7,505.3 31.7,593 	"/>
	<line class="st1" x1="117.2" y1="550.8" x2="92.3" y2="550.8"/>
	<polyline class="st1" points="127.4,485.4 119.1,485.4 112.1,493.6 112.1,532.6 119.5,540.3 127,540.3 	"/>
	<polygon class="st1" points="79.1,466.3 75,472.5 56.1,472.6 56.3,451.8 83,451.8 83,457.9 	"/>
	<polyline class="st1" points="0.6,443.8 36.1,443.8 127.1,443.8 	"/>
	<polygon class="st1" points="45.4,648.3 83.5,648.3 83.5,657.5 45.4,657.5 	"/>
	<line class="st1" x1="54.9" y1="648.1" x2="54.9" y2="657.4"/>
	<line class="st1" x1="64.4" y1="648.1" x2="64.4" y2="657.4"/>
	<line class="st1" x1="74" y1="648.1" x2="74" y2="657.4"/>
	<polygon class="st1" points="45.4,271.6 83.5,271.6 83.5,280.9 45.4,280.9 	"/>
	<line class="st1" x1="54.9" y1="271.5" x2="54.9" y2="280.8"/>
	<line class="st1" x1="64.4" y1="271.5" x2="64.4" y2="280.8"/>
	<line class="st1" x1="74" y1="271.5" x2="74" y2="280.8"/>
	<polygon class="st1" points="64.3,884.8 73.9,884.8 73.9,894.1 64.3,894.1 	"/>
	<line class="st1" x1="59" y1="473.1" x2="59" y2="509.2"/>
	<polyline class="st1" points="40.3,443.5 40.3,451.1 45.3,451.1 45.3,482.8 50.9,482.8 50.9,506.9 	"/>
	<path class="st1" d="M117,551.3v-6l-9.4-9.1v-27.3c0,0,0.2-2.9-0.4-5.4c-2.6-4.9-8.4-3.5-8.4-3.5s-9.4,2-16.7-0.2
		c-3.6-0.7-11.5-5.8-11.5-5.8s-1.3-1.7-2.6-1.3c-2.1,0.2-1.5,3-1.5,3h-7.2"/>
	<path class="st1" d="M64.9,282.3h22.1v-59.8l10.3-10.3v-17.7h-6.9c0,0,0.2,12.7,0.1,13.6c-0.3,3.5-5.3,3.1-5.3,3.1H72.2H56.9H44
		c0,0-5.3,0.8-5.6-2.7c-0.1-0.9,0.5-14.1,0.5-14.1h-6.9v17.7l10.3,10.3v59.8L64.9,282.3L64.9,282.3z"/>
	<path class="st1" d="M19.3,126l-9.8,45.2c0,0,9,5.6,17.6,10.4l4.7,12.9"/>
	<path class="st1" d="M109.6,125.8l9.8,45.9c0,0-6.7,3.5-18.1,9.3l-4,13.4"/>
	<line class="st1" x1="42.5" y1="248.4" x2="87.1" y2="248.4"/>
	<polyline class="st1" points="110.9,415.6 33.8,415.6 33.8,415.6 33.8,443.3 	"/>
	<polyline class="st1" points="0.7,313.8 51.6,313.8 51.6,320 78.8,320 78.8,313.5 83.8,313.5 	"/>
	<polygon class="st1" points="83.8,313.5 78.8,313.5 78.8,320.2 51.6,320.2 51.6,313.8 42.3,313.8 42.3,290.7 48.8,290.7 
		48.8,311.9 77.4,311.9 77.4,290.9 83.8,290.9 	"/>
	<path class="st1" d="M8.7,125.6H29v-2.9h8.2c0,0,2.6-0.1,3.6,1.3c0.9,1.3,10.9,9.1,21.1,9.3l4.3,0c10.2-0.3,20.1-8,21-9.3
		c1-1.4,3.6-1.3,3.6-1.3h8.9v2.9h20.1"/>
	<polyline class="st1" points="0.8,690 37.6,690 37.6,701.5 100.1,701.5 100.1,711.4 108.7,711.4 108.7,722.9 127.3,722.9 	"/>
	<path class="st1" d="M60.9,180.8c1.1,0.1,2.2,0.2,3.3,0.2"/>
	<path class="st1" d="M33,123v14.6l-6.7,5l7.9,11l-5.7,16.9c0,0,6,8.1,32.6,10.2"/>
	<path class="st1" d="M94.7,123v14.6l6.7,5l-7.9,11l5.7,16.9c0,0-6.4,8.7-35.8,10.5"/>
	<rect x="84.2" y="605.4" class="st1" width="21.3" height="10.3"/>
	<rect x="84.2" y="615.7" class="st1" width="21.3" height="10.3"/>
	<path class="st1" d="M68,495.9c-0.6-0.1-1-0.7-0.9-1.3c0.1-0.6,0.7-1,1.3-0.9c0.6,0.1,1,0.7,0.9,1.3C69.2,495.6,68.6,496,68,495.9z
		"/>
	<path class="st1" d="M69,494.5c0,0-2.1,7.8-2,8.6c0,0-0.4,1.5,4.4,1l4.1-0.3"/>
	<line class="st1" x1="59" y1="498.1" x2="67.9" y2="498.1"/>
	<line class="st1" x1="59.1" y1="500.5" x2="67.5" y2="500.5"/>
	<line class="st1" x1="59" y1="503" x2="67.2" y2="503"/>
	<line class="st1" x1="85.8" y1="588.9" x2="85.8" y2="605.7"/>
	<line class="st1" x1="31.7" y1="589.3" x2="31.7" y2="616.1"/>
	<line class="st1" x1="38.5" y1="939.3" x2="0.5" y2="939.3"/>
	<polyline class="st1" points="103.6,995 114.5,995 114.5,1014.9 104.1,1014.9 	"/>
	<line class="st1" x1="119.4" y1="995.7" x2="119.4" y2="1016.1"/>
	<line class="st1" x1="114.6" y1="997.5" x2="119.4" y2="997.5"/>
	<line class="st1" x1="114.6" y1="999.1" x2="119.4" y2="999.1"/>
	<line class="st1" x1="114.6" y1="1000.8" x2="119.4" y2="1000.8"/>
	<line class="st1" x1="114.6" y1="1004" x2="119.4" y2="1004"/>
	<line class="st1" x1="114.6" y1="1005.6" x2="119.4" y2="1005.6"/>
	<line class="st1" x1="114.5" y1="1007.3" x2="119.3" y2="1007.3"/>
	<line class="st1" x1="114.5" y1="1008.9" x2="119.3" y2="1008.9"/>
	<line class="st1" x1="114.2" y1="1010.5" x2="119" y2="1010.5"/>
	<line class="st1" x1="114.1" y1="1012.2" x2="118.9" y2="1012.2"/>
	<line class="st1" x1="114.6" y1="1013.8" x2="119.4" y2="1013.8"/>
	<line class="st1" x1="114.6" y1="1002.4" x2="119.4" y2="1002.4"/>
	<polyline class="st1" points="24.1,995 13.1,995 13.1,1014.9 23.6,1014.9 	"/>
	<line class="st1" x1="8.3" y1="995.7" x2="8.3" y2="1016.1"/>
	<line class="st1" x1="13.1" y1="997.5" x2="8.3" y2="997.5"/>
	<line class="st1" x1="13.1" y1="999.1" x2="8.3" y2="999.1"/>
	<line class="st1" x1="13.1" y1="1000.8" x2="8.3" y2="1000.8"/>
	<line class="st1" x1="13.1" y1="1004" x2="8.3" y2="1004"/>
	<line class="st1" x1="13.1" y1="1005.6" x2="8.3" y2="1005.6"/>
	<line class="st1" x1="13.2" y1="1007.3" x2="8.4" y2="1007.3"/>
	<line class="st1" x1="13.2" y1="1008.9" x2="8.4" y2="1008.9"/>
	<line class="st1" x1="13.5" y1="1010.5" x2="8.7" y2="1010.5"/>
	<line class="st1" x1="13.6" y1="1012.2" x2="8.8" y2="1012.2"/>
	<line class="st1" x1="13.1" y1="1013.8" x2="8.3" y2="1013.8"/>
	<line class="st1" x1="13.1" y1="1002.4" x2="8.3" y2="1002.4"/>
	<line class="st1" x1="104" y1="798.1" x2="104" y2="903.4"/>
	<polyline class="st1" points="24.6,313.6 24.6,291.4 0.6,291.4 	"/>
	<line class="st1" x1="24.9" y1="302.2" x2="0.3" y2="302.2"/>
	<polyline class="st1" points="73.7,415.6 114.1,415.6 114.1,443.8 	"/>
	<line class="st1" x1="106.3" y1="202" x2="126.6" y2="202"/>
	<polyline class="st1" points="125.8,179 106.3,179 106.3,216.2 127.1,216.2 	"/>
	<line class="st1" x1="106.3" y1="194.1" x2="126.6" y2="194.1"/>
	<line class="st1" x1="86.9" y1="225.4" x2="86.9" y2="211"/>
	<line class="st1" x1="42.2" y1="225.1" x2="42.2" y2="211.4"/>
	<line class="st1" x1="102.5" y1="658.2" x2="127" y2="658.2"/>
	<polyline class="st1" points="31.6,614.3 31.6,661.8 102.5,661.8 102.5,657.8 	"/>
	<path class="st1" d="M117,549.3v48.4v2.5c-0.7,5.5-4.5,5.1-4.5,5.1h-6.9"/>
	<polyline class="st1" points="84.4,307.1 105,307.1 105,314.5 114.3,314.5 114.3,295.1 127.1,295.1 	"/>
	<polyline class="st1" points="0.9,220.7 32.4,220.7 32.4,270.1 0.8,270.1 	"/>
	<line class="st1" x1="32.5" y1="247.9" x2="1" y2="247.9"/>
	<line class="st1" x1="24" y1="220.8" x2="24" y2="183.7"/>
	<line class="st1" x1="24" y1="183.7" x2="1.7" y2="183.7"/>
	<line class="st1" x1="46" y1="648.5" x2="54.9" y2="657.2"/>
	<line class="st1" x1="54.9" y1="648.5" x2="46" y2="657.2"/>
	<line class="st1" x1="55.2" y1="648.5" x2="64.1" y2="657.2"/>
	<line class="st1" x1="64.1" y1="648.5" x2="55.2" y2="657.2"/>
	<line class="st1" x1="64.8" y1="648.5" x2="73.7" y2="657.2"/>
	<line class="st1" x1="73.7" y1="648.5" x2="64.8" y2="657.2"/>
	<line class="st1" x1="74.5" y1="648.5" x2="83.5" y2="657.2"/>
	<line class="st1" x1="83.5" y1="648.5" x2="74.5" y2="657.2"/>
	<line class="st1" x1="46" y1="271.8" x2="54.9" y2="280.6"/>
	<line class="st1" x1="54.9" y1="271.8" x2="46" y2="280.6"/>
	<line class="st1" x1="55.2" y1="271.8" x2="64.1" y2="280.6"/>
	<line class="st1" x1="64.1" y1="271.8" x2="55.2" y2="280.6"/>
	<line class="st1" x1="64.8" y1="271.8" x2="73.7" y2="280.6"/>
	<line class="st1" x1="73.7" y1="271.8" x2="64.8" y2="280.6"/>
	<line class="st1" x1="74.5" y1="271.8" x2="83.5" y2="280.6"/>
	<line class="st1" x1="83.5" y1="271.8" x2="74.5" y2="280.6"/>
	<line class="st1" x1="64.6" y1="885" x2="73.5" y2="893.8"/>
	<line class="st1" x1="73.5" y1="885" x2="64.6" y2="893.8"/>
	<path class="st1" d="M70.5,292.4c-0.3,0-0.6,0.3-0.6,0.6"/>
	<line class="st1" x1="77.4" y1="292.4" x2="70.5" y2="292.4"/>
	<line class="st1" x1="70" y1="293" x2="70" y2="295.4"/>
	<line class="st1" x1="70" y1="295.4" x2="56.5" y2="295.4"/>
	<path class="st1" d="M56.5,293c0-0.3-0.2-0.6-0.6-0.6"/>
	<line class="st1" x1="56.5" y1="295.4" x2="56.5" y2="293"/>
	<line class="st1" x1="56" y1="292.4" x2="49.1" y2="292.4"/>
	<line class="st1" x1="63.4" y1="306.9" x2="63.4" y2="292.2"/>
	<line class="st1" x1="63.1" y1="306.9" x2="63.1" y2="292.2"/>
	<line class="st1" x1="77.1" y1="306.1" x2="63.4" y2="306.1"/>
	<line class="st1" x1="63.4" y1="292.2" x2="63.1" y2="292.2"/>
	<line class="st1" x1="63.4" y1="306.9" x2="63.1" y2="306.9"/>
	<line class="st1" x1="63.1" y1="306.1" x2="49" y2="306.1"/>
	<line class="st1" x1="63.1" y1="304.6" x2="57.1" y2="304.6"/>
	<line class="st1" x1="63.1" y1="303" x2="57.1" y2="303"/>
	<line class="st1" x1="63.1" y1="301.5" x2="57.1" y2="301.5"/>
	<line class="st1" x1="63.1" y1="299.9" x2="57.1" y2="299.9"/>
	<line class="st1" x1="63.1" y1="298.4" x2="57.1" y2="298.4"/>
	<line class="st1" x1="63.1" y1="296.8" x2="57.1" y2="296.8"/>
	<line class="st1" x1="63.1" y1="293.7" x2="56.6" y2="293.7"/>
	<line class="st1" x1="69.4" y1="304.6" x2="63.4" y2="304.6"/>
	<line class="st1" x1="69.4" y1="303" x2="63.4" y2="303"/>
	<line class="st1" x1="69.4" y1="301.5" x2="63.4" y2="301.5"/>
	<line class="st1" x1="69.4" y1="299.9" x2="63.4" y2="299.9"/>
	<line class="st1" x1="69.4" y1="298.4" x2="63.4" y2="298.4"/>
	<line class="st1" x1="69.4" y1="296.8" x2="63.4" y2="296.8"/>
	<line class="st1" x1="70" y1="293.7" x2="63.4" y2="293.7"/>
	<line class="st1" x1="48.9" y1="293.9" x2="56" y2="293.9"/>
	<line class="st1" x1="49" y1="295.5" x2="56.8" y2="295.5"/>
	<line class="st1" x1="48.9" y1="297" x2="56" y2="297"/>
	<line class="st1" x1="49" y1="298.5" x2="56" y2="298.5"/>
	<line class="st1" x1="70" y1="293.9" x2="77.3" y2="293.9"/>
	<line class="st1" x1="69.9" y1="295.5" x2="77.3" y2="295.5"/>
	<line class="st1" x1="70.5" y1="297" x2="77.4" y2="297"/>
	<line class="st1" x1="70.5" y1="298.5" x2="77.3" y2="298.5"/>
	<path class="st1" d="M55.9,307.1c0,0.3,0.2,0.6,0.5,0.6c0.3,0,0.5-0.3,0.5-0.6l0,0"/>
	<line class="st1" x1="57" y1="307.1" x2="57" y2="306.9"/>
	<line class="st1" x1="55.9" y1="307.1" x2="55.9" y2="306.9"/>
	<path class="st1" d="M69.4,307.1c0,0.3,0.2,0.6,0.5,0.6c0.3,0,0.6-0.3,0.6-0.6l0,0"/>
	<line class="st1" x1="70.5" y1="307.1" x2="70.5" y2="306.9"/>
	<line class="st1" x1="69.4" y1="307.1" x2="69.4" y2="306.9"/>
	<line class="st1" x1="56.5" y1="306.9" x2="56.5" y2="295.5"/>
	<line class="st1" x1="49.1" y1="301.6" x2="56" y2="301.6"/>
	<line class="st1" x1="49.1" y1="303.2" x2="56" y2="303.2"/>
	<line class="st1" x1="49.1" y1="304.7" x2="56" y2="304.7"/>
	<line class="st1" x1="49" y1="300.1" x2="56" y2="300.1"/>
	<line class="st1" x1="70" y1="306.9" x2="70" y2="295.3"/>
	<line class="st1" x1="70.5" y1="301.6" x2="77.3" y2="301.6"/>
	<line class="st1" x1="70.5" y1="303.2" x2="77.2" y2="303.2"/>
	<line class="st1" x1="70.5" y1="304.7" x2="77.2" y2="304.7"/>
	<line class="st1" x1="70.4" y1="300.1" x2="77.4" y2="300.1"/>
	<path class="st1" d="M56.1,632.7c0.3,0,0.6-0.3,0.6-0.6"/>
	<line class="st1" x1="48.5" y1="632.7" x2="56.1" y2="632.7"/>
	<line class="st1" x1="56.7" y1="632.1" x2="56.7" y2="629.9"/>
	<line class="st1" x1="56.7" y1="629.9" x2="71.6" y2="629.9"/>
	<path class="st1" d="M71.6,632.1c0,0.3,0.3,0.6,0.6,0.6"/>
	<line class="st1" x1="71.6" y1="629.9" x2="71.6" y2="632.1"/>
	<line class="st1" x1="72.2" y1="632.7" x2="79.8" y2="632.7"/>
	<line class="st1" x1="64" y1="618.9" x2="64" y2="632.9"/>
	<line class="st1" x1="64.3" y1="618.9" x2="64.3" y2="632.9"/>
	<line class="st1" x1="48.9" y1="619.6" x2="64" y2="619.6"/>
	<line class="st1" x1="64" y1="632.9" x2="64.3" y2="632.9"/>
	<line class="st1" x1="64" y1="618.9" x2="64.3" y2="618.9"/>
	<line class="st1" x1="64.3" y1="619.6" x2="80" y2="619.6"/>
	<line class="st1" x1="64.3" y1="621.1" x2="71" y2="621.1"/>
	<line class="st1" x1="64.3" y1="622.6" x2="71" y2="622.6"/>
	<line class="st1" x1="64.3" y1="624.1" x2="71" y2="624.1"/>
	<line class="st1" x1="64.3" y1="625.5" x2="71" y2="625.5"/>
	<line class="st1" x1="64.3" y1="627" x2="71" y2="627"/>
	<line class="st1" x1="64.3" y1="628.5" x2="71" y2="628.5"/>
	<line class="st1" x1="64.3" y1="631.5" x2="71.6" y2="631.5"/>
	<line class="st1" x1="57.3" y1="621.1" x2="64" y2="621.1"/>
	<line class="st1" x1="57.3" y1="622.6" x2="64" y2="622.6"/>
	<line class="st1" x1="57.3" y1="624.1" x2="64" y2="624.1"/>
	<line class="st1" x1="57.3" y1="625.5" x2="64" y2="625.5"/>
	<line class="st1" x1="57.3" y1="627" x2="64" y2="627"/>
	<line class="st1" x1="57.3" y1="628.5" x2="64" y2="628.5"/>
	<line class="st1" x1="56.7" y1="631.5" x2="64" y2="631.5"/>
	<line class="st1" x1="80" y1="631.2" x2="72.2" y2="631.2"/>
	<line class="st1" x1="79.9" y1="629.8" x2="71.3" y2="629.8"/>
	<line class="st1" x1="80.1" y1="628.3" x2="72.2" y2="628.3"/>
	<line class="st1" x1="79.9" y1="626.8" x2="72.2" y2="626.8"/>
	<line class="st1" x1="56.7" y1="631.2" x2="48.6" y2="631.2"/>
	<line class="st1" x1="56.8" y1="629.8" x2="48.6" y2="629.8"/>
	<line class="st1" x1="56.1" y1="628.3" x2="48.5" y2="628.3"/>
	<line class="st1" x1="56.1" y1="626.8" x2="48.6" y2="626.8"/>
	<path class="st1" d="M72.3,618.7c0-0.3-0.3-0.6-0.6-0.6s-0.6,0.3-0.6,0.6l0,0"/>
	<line class="st1" x1="71.1" y1="618.7" x2="71.1" y2="618.9"/>
	<line class="st1" x1="72.3" y1="618.7" x2="72.3" y2="618.9"/>
	<path class="st1" d="M57.3,618.7c0-0.3-0.3-0.6-0.6-0.6c-0.3,0-0.6,0.3-0.6,0.6l0,0"/>
	<line class="st1" x1="56.1" y1="618.7" x2="56.1" y2="618.9"/>
	<line class="st1" x1="57.3" y1="618.7" x2="57.3" y2="618.9"/>
	<line class="st1" x1="71.7" y1="618.9" x2="71.7" y2="629.7"/>
	<line class="st1" x1="79.9" y1="623.9" x2="72.2" y2="623.9"/>
	<line class="st1" x1="79.9" y1="622.5" x2="72.2" y2="622.5"/>
	<line class="st1" x1="79.8" y1="621" x2="72.2" y2="621"/>
	<line class="st1" x1="79.9" y1="625.4" x2="72.2" y2="625.4"/>
	<line class="st1" x1="56.7" y1="618.9" x2="56.7" y2="629.9"/>
	<line class="st1" x1="56.1" y1="623.9" x2="48.6" y2="623.9"/>
	<line class="st1" x1="56.1" y1="622.5" x2="48.7" y2="622.5"/>
	<line class="st1" x1="56.1" y1="621" x2="48.7" y2="621"/>
	<line class="st1" x1="56.2" y1="625.4" x2="48.5" y2="625.4"/>
	<path class="st1" d="M70.4,918.7c-0.3,0-0.5,0.3-0.5,0.6"/>
	<line class="st1" x1="75.9" y1="918.7" x2="70.4" y2="918.7"/>
	<line class="st1" x1="69.9" y1="919.3" x2="69.9" y2="921.7"/>
	<line class="st1" x1="69.9" y1="921.7" x2="58.9" y2="921.7"/>
	<path class="st1" d="M58.9,919.3c0-0.3-0.2-0.6-0.5-0.6"/>
	<line class="st1" x1="58.9" y1="921.7" x2="58.9" y2="919.3"/>
	<line class="st1" x1="58.5" y1="918.7" x2="52.8" y2="918.7"/>
	<line class="st1" x1="64.5" y1="933.2" x2="64.5" y2="918.5"/>
	<line class="st1" x1="64.3" y1="933.2" x2="64.3" y2="918.5"/>
	<line class="st1" x1="75.7" y1="932.5" x2="64.5" y2="932.5"/>
	<line class="st1" x1="64.5" y1="918.5" x2="64.3" y2="918.5"/>
	<line class="st1" x1="64.5" y1="933.2" x2="64.3" y2="933.2"/>
	<line class="st1" x1="64.3" y1="932.5" x2="52.7" y2="932.5"/>
	<line class="st1" x1="64.3" y1="930.9" x2="59.4" y2="930.9"/>
	<line class="st1" x1="64.3" y1="929.3" x2="59.4" y2="929.3"/>
	<line class="st1" x1="64.3" y1="927.8" x2="59.4" y2="927.8"/>
	<line class="st1" x1="64.3" y1="926.2" x2="59.4" y2="926.2"/>
	<line class="st1" x1="64.3" y1="924.7" x2="59.4" y2="924.7"/>
	<line class="st1" x1="64.3" y1="923.1" x2="59.4" y2="923.1"/>
	<line class="st1" x1="64.3" y1="920" x2="58.9" y2="920"/>
	<line class="st1" x1="69.4" y1="930.9" x2="64.5" y2="930.9"/>
	<line class="st1" x1="69.4" y1="929.3" x2="64.5" y2="929.3"/>
	<line class="st1" x1="69.4" y1="927.8" x2="64.5" y2="927.8"/>
	<line class="st1" x1="69.4" y1="926.2" x2="64.5" y2="926.2"/>
	<line class="st1" x1="69.4" y1="924.7" x2="64.5" y2="924.7"/>
	<line class="st1" x1="69.4" y1="923.1" x2="64.5" y2="923.1"/>
	<line class="st1" x1="69.9" y1="920" x2="64.5" y2="920"/>
	<line class="st1" x1="52.7" y1="920.3" x2="58.5" y2="920.3"/>
	<line class="st1" x1="52.8" y1="921.8" x2="59.1" y2="921.8"/>
	<line class="st1" x1="52.7" y1="923.3" x2="58.5" y2="923.3"/>
	<line class="st1" x1="52.8" y1="924.9" x2="58.5" y2="924.9"/>
	<line class="st1" x1="69.9" y1="920.3" x2="75.8" y2="920.3"/>
	<line class="st1" x1="69.8" y1="921.8" x2="75.9" y2="921.8"/>
	<line class="st1" x1="70.3" y1="923.3" x2="75.9" y2="923.3"/>
	<line class="st1" x1="70.3" y1="924.9" x2="75.9" y2="924.9"/>
	<path class="st1" d="M58.4,933.4c0,0.3,0.2,0.6,0.4,0.6s0.4-0.3,0.4-0.6l0,0"/>
	<line class="st1" x1="59.3" y1="933.4" x2="59.3" y2="933.2"/>
	<line class="st1" x1="58.4" y1="933.4" x2="58.4" y2="933.2"/>
	<path class="st1" d="M69.4,933.4c0,0.3,0.2,0.6,0.4,0.6c0.2,0,0.4-0.3,0.4-0.6l0,0"/>
	<line class="st1" x1="70.3" y1="933.4" x2="70.3" y2="933.2"/>
	<line class="st1" x1="69.4" y1="933.4" x2="69.4" y2="933.2"/>
	<line class="st1" x1="58.9" y1="933.2" x2="58.9" y2="921.8"/>
	<line class="st1" x1="52.8" y1="927.9" x2="58.5" y2="927.9"/>
	<line class="st1" x1="52.8" y1="929.5" x2="58.5" y2="929.5"/>
	<line class="st1" x1="52.9" y1="931" x2="58.5" y2="931"/>
	<line class="st1" x1="52.8" y1="926.4" x2="58.5" y2="926.4"/>
	<line class="st1" x1="69.9" y1="933.2" x2="69.9" y2="921.6"/>
	<line class="st1" x1="70.3" y1="927.9" x2="75.8" y2="927.9"/>
	<line class="st1" x1="70.3" y1="929.5" x2="75.8" y2="929.5"/>
	<line class="st1" x1="70.3" y1="931" x2="75.8" y2="931"/>
	<line class="st1" x1="70.3" y1="926.4" x2="76" y2="926.4"/>
	<path class="st2" d="M8.5,293.3h1c1,0,1.7,0.5,1.7,1.8v0.1c0,0.7-0.3,1.2-0.7,1.5l0.8,2.3h-1l-0.6-2H9.5v2h-1V293.3z M9.5,296
		c0.4,0,0.7-0.2,0.7-0.9v-0.1c0-0.7-0.3-0.9-0.8-0.9h0L9.5,296L9.5,296z M11.7,293.3h1c1,0,1.7,0.5,1.7,1.8v0.1
		c0,0.7-0.3,1.2-0.7,1.5l0.8,2.3h-1l-0.6-2h-0.2v2h-1L11.7,293.3L11.7,293.3z M12.7,296c0.4,0,0.7-0.2,0.7-0.9v-0.1
		c0-0.7-0.3-0.9-0.8-0.9h0L12.7,296L12.7,296z"/>
	<path class="st2" d="M8.5,304.2h1c1,0,1.7,0.5,1.7,1.8v0.1c0,0.7-0.3,1.2-0.7,1.5l0.8,2.3h-1l-0.6-2H9.5v2h-1V304.2z M9.5,307
		c0.4,0,0.7-0.2,0.7-0.9V306c0-0.7-0.3-0.9-0.8-0.9h0L9.5,307L9.5,307z M11.7,304.2h1c1,0,1.7,0.5,1.7,1.8v0.1
		c0,0.7-0.3,1.2-0.7,1.5l0.8,2.3h-1l-0.6-2h-0.2v2h-1L11.7,304.2L11.7,304.2z M12.7,307c0.4,0,0.7-0.2,0.7-0.9V306
		c0-0.7-0.3-0.9-0.8-0.9h0L12.7,307L12.7,307z"/>
	<path class="st2" d="M113,183.5h1c1,0,1.7,0.5,1.7,1.8v0.1c0,0.7-0.3,1.2-0.7,1.5l0.8,2.3h-1l-0.6-2H114v2h-1
		C113,189.1,113,183.5,113,183.5z M114,186.2c0.4,0,0.7-0.2,0.7-0.9v-0.1c0-0.7-0.3-0.9-0.8-0.9h0L114,186.2L114,186.2z
		 M116.2,183.5h1c1,0,1.7,0.5,1.7,1.8v0.1c0,0.7-0.3,1.2-0.7,1.5l0.8,2.3h-1l-0.6-2h-0.2v2h-1V183.5z M117.2,186.2
		c0.4,0,0.7-0.2,0.7-0.9v-0.1c0-0.7-0.3-0.9-0.8-0.9h0L117.2,186.2L117.2,186.2z"/>
	<path class="st2" d="M113,205.5h1c1,0,1.7,0.5,1.7,1.8v0.1c0,0.7-0.3,1.2-0.7,1.5l0.8,2.3h-1l-0.6-2H114v2h-1
		C113,211.1,113,205.5,113,205.5z M114,208.3c0.4,0,0.7-0.2,0.7-0.9v-0.1c0-0.7-0.3-0.9-0.8-0.9h0L114,208.3L114,208.3z
		 M116.2,205.5h1c1,0,1.7,0.5,1.7,1.8v0.1c0,0.7-0.3,1.2-0.7,1.5l0.8,2.3h-1l-0.6-2h-0.2v2h-1V205.5z M117.2,208.3
		c0.4,0,0.7-0.2,0.7-0.9v-0.1c0-0.7-0.3-0.9-0.8-0.9h0L117.2,208.3L117.2,208.3z"/>
	<path class="st2" d="M91,617.8l1,0c1,0,1.7,0.5,1.7,1.8v0.1c0,0.7-0.3,1.2-0.7,1.5l0.8,2.3l-1,0l-0.6-2H92l0,2h-1L91,617.8z
		 M92,620.5c0.4,0,0.7-0.2,0.7-0.9v-0.1c0-0.7-0.3-0.9-0.8-0.9h0L92,620.5L92,620.5z M94.2,617.8l1,0c1,0,1.7,0.5,1.7,1.8v0.1
		c0,0.7-0.3,1.2-0.7,1.5l0.8,2.3l-1,0l-0.6-2h-0.2l0,2l-1,0L94.2,617.8z M95.2,620.5c0.4,0,0.7-0.2,0.7-0.9v-0.1
		c0-0.7-0.3-0.9-0.8-0.9h0L95.2,620.5L95.2,620.5z"/>
	<path class="st2" d="M91,606.9l1,0c1,0,1.7,0.5,1.7,1.8v0.1c0,0.7-0.3,1.2-0.7,1.5l0.8,2.3l-1,0l-0.6-2H92l0,2h-1L91,606.9z
		 M92,609.7c0.4,0,0.7-0.2,0.7-0.9v-0.1c0-0.7-0.3-0.9-0.8-0.9h0L92,609.7L92,609.7z M94.2,606.9l1,0c1,0,1.7,0.5,1.7,1.8v0.1
		c0,0.7-0.3,1.2-0.7,1.5l0.8,2.3l-1,0l-0.6-2h-0.2l0,2l-1,0L94.2,606.9z M95.2,609.7c0.4,0,0.7-0.2,0.7-0.9v-0.1
		c0-0.7-0.3-0.9-0.8-0.9h0L95.2,609.7L95.2,609.7z"/>
	<path class="st2" d="M106.2,1001.5l1,0c1,0,1.7,0.5,1.7,1.8v0.1c0,0.7-0.3,1.2-0.7,1.5l0.8,2.3l-1,0l-0.6-2h-0.2l0,2h-1
		L106.2,1001.5z M107.2,1004.2c0.4,0,0.7-0.2,0.7-0.9v-0.1c0-0.7-0.3-0.9-0.8-0.9h0L107.2,1004.2L107.2,1004.2z M109.4,1001.5l1,0
		c1,0,1.7,0.5,1.7,1.8v0.1c0,0.7-0.3,1.2-0.7,1.5l0.8,2.3l-1,0l-0.6-2h-0.2l0,2l-1,0L109.4,1001.5z M110.4,1004.2
		c0.4,0,0.7-0.2,0.7-0.9v-0.1c0-0.7-0.3-0.9-0.8-0.9h0L110.4,1004.2L110.4,1004.2z"/>
	<path class="st2" d="M16.2,1001.5l1,0c1,0,1.7,0.5,1.7,1.8v0.1c0,0.7-0.3,1.2-0.7,1.5l0.8,2.3l-1,0l-0.6-2h-0.2l0,2h-1L16.2,1001.5
		z M17.2,1004.2c0.4,0,0.7-0.2,0.7-0.9v-0.1c0-0.7-0.3-0.9-0.8-0.9h0L17.2,1004.2L17.2,1004.2z M19.4,1001.5l1,0
		c1,0,1.7,0.5,1.7,1.8v0.1c0,0.7-0.3,1.2-0.7,1.5l0.8,2.3l-1,0l-0.6-2h-0.2l0,2l-1,0L19.4,1001.5z M20.4,1004.2
		c0.4,0,0.7-0.2,0.7-0.9v-0.1c0-0.7-0.3-0.9-0.8-0.9h0L20.4,1004.2L20.4,1004.2z"/>
	<path class="st2" d="M57.2,113v-1c0.3,0.2,0.6,0.3,0.9,0.3c0.3,0,0.5-0.1,0.5-0.5v0c0-0.3-0.1-0.4-0.5-1c-0.7-0.8-0.9-1.1-0.9-1.8
		v0c0-0.9,0.6-1.5,1.4-1.5c0.4,0,0.6,0.1,0.9,0.2v1c-0.3-0.2-0.5-0.3-0.7-0.3c-0.3,0-0.5,0.2-0.5,0.5v0c0,0.3,0.1,0.4,0.5,0.9
		c0.8,0.9,0.9,1.2,0.9,1.9v0c0,0.9-0.6,1.5-1.4,1.5C57.8,113.2,57.5,113.1,57.2,113z M60.4,108.5h-0.7v-0.9H62v0.9h-0.7v4.7h-1
		L60.4,108.5L60.4,108.5z M63,107.5h1l1.1,5.6h-1l-0.2-1.1H63l-0.2,1.1h-0.9L63,107.5z M63.8,111.2l-0.3-1.8l-0.3,1.8H63.8z
		 M65.2,110.4v-0.2c0-1.8,0.8-2.7,1.9-2.7c0.3,0,0.5,0.1,0.7,0.2v1c-0.2-0.1-0.5-0.2-0.7-0.2c-0.6,0-0.9,0.6-0.9,1.8v0.3
		c0,1.5,0.4,1.8,0.8,1.8c0,0,0,0,0.1,0v-1.4h-0.5V110H68v3c-0.4,0.2-0.6,0.2-1,0.2C66,113.2,65.2,112.4,65.2,110.4z M68.5,107.6h2.1
		v0.9h-1.2v1.4h1v0.9h-1v1.4h1.2v0.9h-2.2V107.6z"/>
	<path class="st2" d="M47.7,996.2V996c0-1.8,0.8-2.7,1.9-2.7c0.3,0,0.5,0.1,0.7,0.2v1c-0.2-0.1-0.5-0.2-0.7-0.2
		c-0.6,0-0.9,0.6-0.9,1.8v0.3c0,1.5,0.4,1.8,0.8,1.8c0,0,0,0,0.1,0v-1.4h-0.5v-0.9h1.4v3c-0.4,0.2-0.6,0.2-1,0.2
		C48.6,999,47.7,998.2,47.7,996.2z M51.1,993.3h1c1,0,1.7,0.5,1.7,1.8v0.1c0,0.7-0.3,1.2-0.7,1.5l0.8,2.3h-1l-0.6-2h-0.2v2h-1
		L51.1,993.3L51.1,993.3z M52.1,996.1c0.4,0,0.7-0.2,0.7-0.9v-0.1c0-0.7-0.3-0.9-0.8-0.9h0L52.1,996.1L52.1,996.1z M55,993.3h1
		l1.1,5.6h-1l-0.2-1.1h-0.9l-0.2,1.1H54L55,993.3z M55.8,996.9l-0.3-1.8l-0.3,1.8H55.8z M57.4,993.3h0.9l1,2.8v-2.8h1v5.6h-0.9l-1-3
		v3h-1V993.3z M60.9,993.3h0.9c1.2,0,2,0.9,2,2.7v0.2c0,1.8-0.7,2.7-2,2.7h-0.9V993.3z M61.9,998c0.5,0,0.9-0.4,0.9-1.8V996
		c0-1.4-0.4-1.8-0.9-1.8h0L61.9,998L61.9,998z M65.5,993.3h0.9c1.1,0,1.8,0.6,1.8,1.9v0c0,1.3-0.7,1.9-1.7,1.9h0v1.8h-1V993.3z
		 M66.5,996.3c0.4,0,0.7-0.3,0.7-1v0c0-0.7-0.3-1-0.7-1h0L66.5,996.3L66.5,996.3L66.5,996.3z M69.1,993.3h1l1.1,5.6h-1l-0.2-1.1
		h-0.9l-0.2,1.1H68L69.1,993.3z M69.9,996.9l-0.3-1.8l-0.3,1.8H69.9z M71.3,996.2V996c0-2,0.7-2.7,1.6-2.7c0.3,0,0.4,0,0.6,0.1v1
		c-0.2-0.1-0.4-0.2-0.5-0.2c-0.4,0-0.7,0.4-0.7,1.8v0.2c0,1.5,0.3,1.8,0.8,1.8c0.2,0,0.3-0.1,0.5-0.2v1c-0.2,0.1-0.4,0.2-0.7,0.2
		C72,999,71.3,998.2,71.3,996.2z M74.1,993.3h1v5.6h-1V993.3z M75.7,993.3h2v0.9h-1.1v1.4h0.9v0.9h-0.9v2.3h-1V993.3z M78.2,993.3h1
		v5.6h-1V993.3z M79.6,996.2V996c0-2,0.7-2.7,1.6-2.7c0.3,0,0.4,0,0.6,0.1v1c-0.2-0.1-0.4-0.2-0.5-0.2c-0.4,0-0.7,0.4-0.7,1.8v0.2
		c0,1.5,0.3,1.8,0.8,1.8c0.2,0,0.3-0.1,0.5-0.2v1c-0.2,0.1-0.4,0.2-0.7,0.2C80.3,999,79.6,998.2,79.6,996.2z M49.3,1001.3h0.9
		c1.2,0,2,0.9,2,2.7v0.2c0,1.8-0.7,2.7-2,2.7h-0.9V1001.3z M50.3,1006c0.5,0,0.9-0.4,0.9-1.8v-0.2c0-1.4-0.4-1.8-0.9-1.8h0
		L50.3,1006L50.3,1006z M52.7,1001.3h1v5.6h-1V1001.3z M54.2,1001.3h0.9l1,2.8v-2.8h1v5.6h-0.9l-1-3v3h-1V1001.3z M57.7,1001.3h1
		v5.6h-1V1001.3z M59.2,1001.3h0.9l1,2.8v-2.8h1v5.6h-0.9l-1-3v3h-1V1001.3z M62.6,1004.2v-0.2c0-1.8,0.8-2.7,1.9-2.7
		c0.3,0,0.5,0.1,0.7,0.2v1c-0.2-0.1-0.5-0.2-0.7-0.2c-0.6,0-0.9,0.6-0.9,1.8v0.3c0,1.5,0.4,1.8,0.8,1.8c0,0,0,0,0.1,0v-1.4H64v-0.9
		h1.4v3c-0.4,0.2-0.6,0.2-1,0.2C63.4,1007,62.6,1006.2,62.6,1004.2z M67.2,1001.3h1c1,0,1.7,0.5,1.7,1.8v0.1c0,0.7-0.3,1.2-0.7,1.5
		l0.8,2.3h-1l-0.6-2h-0.2v2h-1V1001.3z M68.2,1004.1c0.4,0,0.7-0.2,0.7-0.9v-0.1c0-0.7-0.3-0.9-0.8-0.9h0L68.2,1004.1L68.2,1004.1z
		 M70.3,1004.3v-0.3c0-1.8,0.6-2.7,1.5-2.7s1.5,0.9,1.5,2.7v0.3c0,1.8-0.6,2.7-1.5,2.7S70.3,1006.1,70.3,1004.3z M72.2,1004.3v-0.3
		c0-1.4-0.2-1.8-0.5-1.8s-0.5,0.4-0.5,1.8v0.3c0,1.4,0.2,1.8,0.5,1.8S72.2,1005.7,72.2,1004.3z M73.6,1004.3v-0.3
		c0-1.8,0.6-2.7,1.5-2.7c0.9,0,1.5,0.9,1.5,2.7v0.3c0,1.8-0.6,2.7-1.5,2.7C74.2,1007,73.6,1006.1,73.6,1004.3z M75.6,1004.3v-0.3
		c0-1.4-0.2-1.8-0.5-1.8s-0.5,0.4-0.5,1.8v0.3c0,1.4,0.2,1.8,0.5,1.8S75.6,1005.7,75.6,1004.3z M77.1,1001.3h1l0.7,2l0.7-2h1v5.6
		h-0.9v-3.4l-0.7,2.1h0l-0.7-2.1v3.4h-0.9L77.1,1001.3L77.1,1001.3z"/>
	<path class="st2" d="M12,477.1h1v4.7h1v0.9h-2V477.1z M14.4,477.1h2.1v0.9h-1.2v1.4h1v0.9h-1v1.4h1.2v0.9h-2.2V477.1z M18.3,477.1
		h0.8c0.9,0,1.8,0.4,1.8,1.4v0c0,0.7-0.4,1.1-0.8,1.3c0.5,0.2,0.9,0.5,0.9,1.2v0.1c0,1-0.8,1.6-1.9,1.6h-0.9L18.3,477.1L18.3,477.1z
		 M19.3,479.5c0.4,0,0.7-0.2,0.7-0.7v0c0-0.5-0.3-0.7-0.7-0.7h0L19.3,479.5L19.3,479.5z M19.3,481.8c0.4,0,0.8-0.3,0.8-0.7v0
		c0-0.5-0.3-0.7-0.8-0.7h0L19.3,481.8L19.3,481.8L19.3,481.8z M21.5,477.1h1v5.6h-1V477.1z M22.9,482.5v-1c0.3,0.2,0.6,0.3,0.9,0.3
		c0.3,0,0.5-0.1,0.5-0.5v0c0-0.3-0.1-0.4-0.5-1c-0.7-0.8-0.9-1.1-0.9-1.8v0c0-0.9,0.6-1.5,1.4-1.5c0.4,0,0.6,0.1,0.9,0.2v1
		c-0.3-0.2-0.5-0.3-0.7-0.3c-0.3,0-0.5,0.2-0.5,0.5v0c0,0.3,0.1,0.4,0.5,0.9c0.8,0.9,0.9,1.2,0.9,1.9v0c0,0.9-0.6,1.5-1.4,1.5
		C23.5,482.7,23.2,482.6,22.9,482.5z M26,478h-0.7v-0.9h2.4v0.9H27v4.7h-1L26,478L26,478z M28.1,477.1h1c1,0,1.7,0.5,1.7,1.8v0.1
		c0,0.7-0.3,1.2-0.7,1.5l0.8,2.3h-1l-0.6-2h-0.2v2h-1L28.1,477.1L28.1,477.1z M29.1,479.9c0.4,0,0.7-0.2,0.7-0.9v-0.1
		c0-0.7-0.3-0.9-0.8-0.9h0L29.1,479.9L29.1,479.9z M31.2,480v-0.3c0-1.8,0.6-2.7,1.5-2.7c0.9,0,1.5,0.9,1.5,2.7v0.3
		c0,1.8-0.6,2.7-1.5,2.7C31.8,482.8,31.2,481.9,31.2,480z M33.2,480v-0.3c0-1.4-0.2-1.8-0.5-1.8s-0.5,0.4-0.5,1.8v0.3
		c0,1.4,0.2,1.8,0.5,1.8S33.2,481.5,33.2,480z M14.4,485.1h2v0.9h-1.1v1.4h0.9v0.9h-0.9v2.3h-1C14.4,490.7,14.4,485.1,14.4,485.1z
		 M16.9,485.1h1c1,0,1.7,0.5,1.7,1.8v0.1c0,0.7-0.3,1.2-0.7,1.5l0.8,2.3h-1l-0.6-2h-0.2v2h-1L16.9,485.1L16.9,485.1z M17.9,487.9
		c0.4,0,0.7-0.2,0.7-0.9v-0.1c0-0.7-0.3-0.9-0.8-0.9h0L17.9,487.9L17.9,487.9z M20.1,485.1h2.1v0.9h-1.2v1.4h1v0.9h-1v1.4h1.2v0.9
		h-2.2V485.1z M22.7,485.1h0.9l1,2.8v-2.8h1v5.6h-0.9l-1-3v3h-1V485.1z M26,488v-0.2c0-2,0.7-2.7,1.6-2.7c0.3,0,0.4,0,0.6,0.1v1
		c-0.2-0.1-0.4-0.2-0.5-0.2c-0.4,0-0.7,0.4-0.7,1.8v0.2c0,1.5,0.3,1.8,0.8,1.8c0.2,0,0.3-0.1,0.5-0.2v1c-0.2,0.1-0.4,0.2-0.7,0.2
		C26.7,490.7,26,490,26,488z M28.8,485.1h1v2.3h0.8v-2.3h1v5.6h-1v-2.4h-0.8v2.4h-1V485.1z M7.9,493.1h1c1,0,1.7,0.5,1.7,1.8v0.1
		c0,0.7-0.3,1.2-0.7,1.5l0.8,2.3h-1l-0.6-2H8.9v2h-1V493.1z M8.9,495.9c0.4,0,0.7-0.2,0.7-0.9v-0.1c0-0.7-0.3-0.9-0.8-0.9h0
		L8.9,495.9L8.9,495.9z M11.1,493.1h2.1v0.9h-1.2v1.4h1v0.9h-1v1.4h1.2v0.9h-2.2V493.1z M13.6,498.5v-1c0.3,0.2,0.6,0.3,0.9,0.3
		c0.3,0,0.5-0.1,0.5-0.5v0c0-0.3-0.1-0.4-0.5-1c-0.7-0.8-0.9-1.1-0.9-1.8v0c0-0.9,0.6-1.5,1.4-1.5c0.4,0,0.6,0.1,0.9,0.2v1
		c-0.3-0.2-0.5-0.3-0.7-0.3c-0.3,0-0.5,0.2-0.5,0.5v0c0,0.3,0.1,0.4,0.5,0.9c0.8,0.9,0.9,1.2,0.9,1.9v0c0,0.9-0.6,1.5-1.4,1.5
		C14.2,498.7,13.9,498.6,13.6,498.5z M16.7,494h-0.7v-0.9h2.4v0.9h-0.7v4.7h-1L16.7,494L16.7,494z M19.4,493.1h1l1.1,5.6h-1
		l-0.2-1.1h-0.9l-0.2,1.1h-0.9L19.4,493.1z M20.2,496.7l-0.3-1.8l-0.3,1.8H20.2z M21.7,497.1v-4h1v4.1c0,0.5,0.2,0.7,0.4,0.7
		s0.4-0.2,0.4-0.7v-4.1h1v4c0,1.2-0.6,1.7-1.4,1.7C22.3,498.8,21.7,498.2,21.7,497.1z M25,493.1h1c1,0,1.7,0.5,1.7,1.8v0.1
		c0,0.7-0.3,1.2-0.7,1.5l0.8,2.3h-1l-0.6-2H26v2h-1L25,493.1L25,493.1z M26.1,495.9c0.4,0,0.7-0.2,0.7-0.9v-0.1
		c0-0.7-0.3-0.9-0.8-0.9h0L26.1,495.9L26.1,495.9z M29,493.1h1l1.1,5.6h-1l-0.2-1.1h-0.9l-0.2,1.1h-0.9L29,493.1z M29.8,496.7
		l-0.3-1.8l-0.3,1.8H29.8z M31.4,493.1h0.9l1,2.8v-2.8h1v5.6h-0.9l-1-3v3h-1C31.4,498.7,31.4,493.1,31.4,493.1z M35.4,494h-0.7v-0.9
		H37v0.9h-0.7v4.7h-1L35.4,494L35.4,494z"/>
	<path class="st2" d="M11.1,254.7v-0.8c0.3,0.1,0.5,0.2,0.7,0.2c0.2,0,0.4-0.1,0.4-0.4v0c0-0.2-0.1-0.3-0.4-0.7
		c-0.5-0.6-0.7-0.8-0.7-1.3v0c0-0.7,0.4-1.1,1-1.1c0.3,0,0.5,0,0.6,0.1v0.8c-0.2-0.1-0.4-0.2-0.6-0.2c-0.2,0-0.4,0.1-0.4,0.4v0
		c0,0.2,0.1,0.3,0.4,0.7c0.6,0.7,0.7,0.9,0.7,1.4v0c0,0.7-0.5,1.1-1,1.1C11.6,254.9,11.4,254.8,11.1,254.7z M13.1,252.8v-0.1
		c0-1.5,0.5-2.1,1.2-2.1c0.2,0,0.3,0,0.5,0.1v0.8c-0.1-0.1-0.3-0.1-0.4-0.1c-0.3,0-0.6,0.3-0.6,1.3v0.2c0,1.1,0.2,1.3,0.6,1.3
		c0.1,0,0.3,0,0.4-0.1v0.7c-0.2,0.1-0.3,0.1-0.5,0.1C13.6,254.9,13.1,254.3,13.1,252.8z M15.8,250.6h0.8l0.8,4.2h-0.7l-0.1-0.8h-0.7
		l-0.1,0.8H15L15.8,250.6z M16.4,253.4l-0.2-1.4l-0.2,1.4H16.4z M17.6,250.7h0.7v3.5h0.8v0.7h-1.5C17.6,254.8,17.6,250.7,17.6,250.7
		z M19.3,254.3l1-2.9h-0.9v-0.7H21v0.6l-1,2.9h1v0.7h-1.8V254.3z M21.4,250.7h0.7v4.2h-0.7V250.7z M10.5,256.7h0.6
		c0.7,0,1.4,0.3,1.4,1.1v0c0,0.5-0.3,0.8-0.6,0.9c0.4,0.2,0.7,0.4,0.7,0.9v0.1c0,0.7-0.6,1.2-1.4,1.2h-0.7V256.7z M11.2,258.4
		c0.3,0,0.5-0.2,0.5-0.6v0c0-0.4-0.2-0.5-0.5-0.5h0L11.2,258.4L11.2,258.4z M11.2,260.2c0.3,0,0.6-0.2,0.6-0.5v0
		c0-0.3-0.2-0.5-0.6-0.5h0L11.2,260.2L11.2,260.2L11.2,260.2z M12.8,256.7h0.8c0.8,0,1.3,0.4,1.3,1.3v0.1c0,0.5-0.2,0.9-0.5,1.1
		l0.6,1.7h-0.8l-0.5-1.5h-0.1v1.5h-0.7V256.7z M13.6,258.7c0.3,0,0.6-0.2,0.6-0.7v0c0-0.5-0.3-0.7-0.6-0.7h0L13.6,258.7L13.6,258.7
		L13.6,258.7z M15.2,256.7H16v4.2h-0.7V256.7z M16.4,256.7h0.7c0.9,0,1.5,0.7,1.5,2v0.1c0,1.3-0.5,2-1.5,2h-0.7V256.7z M17.2,260.2
		c0.3,0,0.6-0.3,0.6-1.4v-0.1c0-1-0.3-1.4-0.6-1.4h0L17.2,260.2L17.2,260.2L17.2,260.2z M18.9,258.8v-0.1c0-1.4,0.6-2.1,1.4-2.1
		c0.2,0,0.4,0,0.6,0.1v0.8c-0.2-0.1-0.3-0.2-0.5-0.2c-0.4,0-0.7,0.4-0.7,1.3v0.2c0,1.1,0.3,1.4,0.6,1.4c0,0,0,0,0.1,0v-1.1h-0.4
		v-0.7h1v2.2c-0.3,0.1-0.5,0.2-0.8,0.2C19.5,260.9,18.9,260.3,18.9,258.8z M21.4,256.7H23v0.7h-0.9v1h0.8v0.7h-0.8v1.1H23v0.7h-1.6
		V256.7z M3.3,262.7H4l0.5,1.5l0.5-1.5h0.7v4.2H5.1v-2.5l-0.5,1.6h0L4,264.3v2.5H3.3V262.7z M6.2,262.7h1.6v0.7H6.9v1h0.8v0.7H6.9
		v1.1h0.9v0.7H6.2V262.7z M8.2,262.7h1.6v0.7H8.9v1h0.8v0.7H8.9v1.1h0.9v0.7H8.2V262.7z M10.5,263.3H10v-0.7h1.8v0.7h-0.5v3.5h-0.7
		L10.5,263.3L10.5,263.3z M12.1,262.7h0.7v4.2h-0.7V262.7z M13.3,262.7H14l0.7,2.1v-2.1h0.7v4.2h-0.6l-0.8-2.2v2.2h-0.7L13.3,262.7
		L13.3,262.7z M15.8,264.8v-0.1c0-1.4,0.6-2.1,1.4-2.1c0.2,0,0.4,0,0.6,0.1v0.8c-0.2-0.1-0.3-0.2-0.5-0.2c-0.4,0-0.7,0.4-0.7,1.3
		v0.2c0,1.1,0.3,1.4,0.6,1.4c0,0,0,0,0.1,0v-1.1h-0.4v-0.7h1v2.2c-0.3,0.1-0.5,0.2-0.8,0.2C16.4,266.9,15.8,266.3,15.8,264.8z
		 M19.2,262.7H20c0.8,0,1.3,0.4,1.3,1.3v0.1c0,0.5-0.2,0.9-0.5,1.1l0.6,1.7h-0.8l-0.5-1.5H20v1.5h-0.7
		C19.2,266.8,19.2,262.7,19.2,262.7z M20,264.7c0.3,0,0.6-0.2,0.6-0.7v0c0-0.5-0.3-0.7-0.6-0.7h0L20,264.7L20,264.7L20,264.7z
		 M21.6,264.9v-0.2c0-1.4,0.5-2.1,1.1-2.1s1.1,0.7,1.1,2.1v0.2c0,1.4-0.5,2.1-1.1,2.1S21.6,266.2,21.6,264.9z M23,264.9v-0.2
		c0-1.1-0.1-1.4-0.4-1.4s-0.4,0.3-0.4,1.4v0.2c0,1.1,0.1,1.4,0.4,1.4S23,265.9,23,264.9z M24.1,264.9v-0.2c0-1.4,0.5-2.1,1.1-2.1
		s1.1,0.7,1.1,2.1v0.2c0,1.4-0.5,2.1-1.1,2.1S24.1,266.2,24.1,264.9z M25.6,264.9v-0.2c0-1.1-0.1-1.4-0.4-1.4s-0.4,0.3-0.4,1.4v0.2
		c0,1.1,0.1,1.4,0.4,1.4S25.6,265.9,25.6,264.9z M26.7,262.7h0.7l0.5,1.5l0.5-1.5h0.7v4.2h-0.7v-2.5l-0.5,1.6h0l-0.5-1.6v2.5h-0.7
		C26.7,266.8,26.7,262.7,26.7,262.7z"/>
	<path class="st2" d="M6.9,191.9h0.8c0.8,0,1.3,0.4,1.3,1.3v0.1c0,0.5-0.2,0.9-0.5,1.1l0.6,1.7H8.3l-0.5-1.5H7.7v1.5H6.9V191.9z
		 M7.7,194c0.3,0,0.6-0.2,0.6-0.7v0c0-0.5-0.3-0.7-0.6-0.7h0L7.7,194L7.7,194z M9.3,191.9h0.7v4.2H9.3V191.9z M11.1,191.9h0.8
		l0.8,4.2h-0.7l-0.1-0.8h-0.7l-0.1,0.8h-0.7L11.1,191.9z M11.7,194.6l-0.2-1.4l-0.2,1.4H11.7z M12.9,191.9h0.7v3.5h0.8v0.7h-1.5
		L12.9,191.9L12.9,191.9z M14.9,192.6h-0.5v-0.7h1.8v0.7h-0.5v3.5h-0.7C14.9,196.1,14.9,192.6,14.9,192.6z M16.2,194.1v-0.2
		c0-1.4,0.5-2.1,1.1-2.1c0.7,0,1.1,0.7,1.1,2.1v0.2c0,1.4-0.5,2.1-1.1,2.1C16.7,196.2,16.2,195.5,16.2,194.1z M17.7,194.1v-0.2
		c0-1.1-0.1-1.4-0.4-1.4s-0.4,0.3-0.4,1.4v0.2c0,1.1,0.1,1.4,0.4,1.4C17.6,195.5,17.7,195.2,17.7,194.1z M6.5,197.9h0.6
		c0.7,0,1.4,0.3,1.4,1.1v0c0,0.5-0.3,0.8-0.6,0.9c0.4,0.2,0.7,0.4,0.7,0.9v0.1c0,0.7-0.6,1.2-1.4,1.2H6.5V197.9z M7.2,199.7
		c0.3,0,0.5-0.2,0.5-0.6v0c0-0.4-0.2-0.5-0.5-0.5h0L7.2,199.7L7.2,199.7L7.2,199.7z M7.2,201.4c0.3,0,0.6-0.2,0.6-0.5v0
		c0-0.3-0.2-0.5-0.6-0.5h0L7.2,201.4L7.2,201.4L7.2,201.4z M8.8,197.9h0.8c0.8,0,1.3,0.4,1.3,1.3v0.1c0,0.5-0.2,0.9-0.5,1.1l0.6,1.7
		h-0.8l-0.5-1.5H9.5v1.5H8.8V197.9z M9.6,200c0.3,0,0.6-0.2,0.6-0.7v0c0-0.5-0.3-0.7-0.6-0.7h0L9.6,200L9.6,200z M11.2,197.9h0.7
		v4.2h-0.7V197.9z M12.4,197.9h0.7c0.9,0,1.5,0.7,1.5,2v0.1c0,1.3-0.5,2-1.5,2h-0.7V197.9z M13.2,201.4c0.3,0,0.6-0.3,0.6-1.4v-0.1
		c0-1-0.3-1.4-0.6-1.4h0L13.2,201.4L13.2,201.4L13.2,201.4z M14.8,200.1v-0.1c0-1.4,0.6-2.1,1.4-2.1c0.2,0,0.4,0,0.6,0.1v0.8
		c-0.2-0.1-0.3-0.2-0.5-0.2c-0.4,0-0.7,0.4-0.7,1.3v0.2c0,1.1,0.3,1.4,0.6,1.4c0,0,0,0,0.1,0v-1.1h-0.4v-0.7h1v2.2
		c-0.3,0.1-0.5,0.2-0.8,0.2C15.4,202.1,14.8,201.5,14.8,200.1z M17.3,197.9h1.6v0.7h-0.9v1h0.8v0.7h-0.8v1.1H19v0.7h-1.6L17.3,197.9
		L17.3,197.9z M5.4,203.9h0.7l0.5,1.5l0.5-1.5h0.7v4.2H7.2v-2.5l-0.5,1.6h0l-0.5-1.6v2.5H5.4V203.9z M8.3,203.9h1.6v0.7H9v1h0.8v0.7
		H9v1.1h0.9v0.7H8.3V203.9z M10.3,203.9h1.6v0.7H11v1h0.8v0.7H11v1.1h0.9v0.7h-1.6L10.3,203.9L10.3,203.9z M12.6,204.6h-0.5v-0.7
		h1.8v0.7h-0.5v3.5h-0.7L12.6,204.6L12.6,204.6z M14.2,203.9h0.7v4.2h-0.7V203.9z M15.4,203.9h0.7l0.7,2.1v-2.1h0.7v4.2h-0.6
		l-0.8-2.2v2.2h-0.7L15.4,203.9L15.4,203.9z M17.9,206.1v-0.1c0-1.4,0.6-2.1,1.4-2.1c0.2,0,0.4,0,0.6,0.1v0.8
		c-0.2-0.1-0.3-0.2-0.5-0.2c-0.4,0-0.7,0.4-0.7,1.3v0.2c0,1.1,0.3,1.4,0.6,1.4c0,0,0,0,0.1,0v-1.1H19v-0.7h1v2.2
		c-0.3,0.1-0.5,0.2-0.8,0.2C18.5,208.1,17.9,207.5,17.9,206.1z M7.2,209.9H8c0.8,0,1.3,0.4,1.3,1.3v0.1c0,0.5-0.2,0.9-0.5,1.1
		l0.6,1.7H8.6l-0.5-1.5H8v1.5H7.2V209.9z M8,212c0.3,0,0.6-0.2,0.6-0.7v0c0-0.5-0.3-0.7-0.6-0.7h0L8,212L8,212z M9.6,212.1v-0.2
		c0-1.4,0.4-2.1,1.1-2.1s1.1,0.7,1.1,2.1v0.2c0,1.4-0.4,2.1-1.1,2.1C10,214.2,9.6,213.5,9.6,212.1z M11,212.1v-0.2
		c0-1.1-0.1-1.4-0.4-1.4s-0.4,0.3-0.4,1.4v0.2c0,1.1,0.1,1.4,0.4,1.4C10.9,213.5,11,213.2,11,212.1z M12.1,212.1v-0.2
		c0-1.4,0.4-2.1,1.1-2.1s1.1,0.7,1.1,2.1v0.2c0,1.4-0.4,2.1-1.1,2.1C12.5,214.2,12.1,213.5,12.1,212.1z M13.6,212.1v-0.2
		c0-1.1-0.1-1.4-0.4-1.4s-0.4,0.3-0.4,1.4v0.2c0,1.1,0.1,1.4,0.4,1.4C13.4,213.5,13.6,213.2,13.6,212.1z M14.7,209.9h0.7l0.5,1.5
		l0.5-1.5h0.7v4.2h-0.7v-2.5l-0.5,1.6h0l-0.5-1.6v2.5h-0.7L14.7,209.9L14.7,209.9z"/>
	<path class="st2" d="M8,223h0.8l0.8,4.2H8.8l-0.1-0.8H8l-0.1,0.8H7.2L8,223z M8.6,225.7l-0.2-1.4l-0.2,1.4H8.6z M9.6,225.1V225
		c0-1.5,0.5-2.1,1.2-2.1c0.2,0,0.3,0,0.5,0.1v0.8c-0.1-0.1-0.3-0.1-0.4-0.1c-0.3,0-0.6,0.3-0.6,1.3v0.2c0,1.1,0.2,1.3,0.6,1.3
		c0.1,0,0.3,0,0.4-0.1v0.7c-0.2,0.1-0.3,0.1-0.5,0.1C10.1,227.2,9.6,226.6,9.6,225.1z M11.5,225.1V225c0-1.5,0.5-2.1,1.2-2.1
		c0.2,0,0.3,0,0.5,0.1v0.8c-0.1-0.1-0.3-0.1-0.4-0.1c-0.3,0-0.6,0.3-0.6,1.3v0.2c0,1.1,0.2,1.3,0.6,1.3c0.1,0,0.3,0,0.4-0.1v0.7
		c-0.2,0.1-0.3,0.1-0.5,0.1C12,227.2,11.5,226.6,11.5,225.1z M14.2,223H15l0.8,4.2H15l-0.1-0.8h-0.7l-0.1,0.8h-0.7L14.2,223z
		 M14.8,225.7l-0.2-1.4l-0.2,1.4H14.8z M16,223h0.7c0.9,0,1.5,0.7,1.5,2v0.1c0,1.3-0.5,2-1.5,2H16C16,227.2,16,223,16,223z
		 M16.7,226.5c0.3,0,0.6-0.3,0.6-1.4V225c0-1-0.3-1.4-0.6-1.4h0L16.7,226.5L16.7,226.5L16.7,226.5z M18.5,223h1.6v0.7h-0.9v1H20v0.7
		h-0.8v1.1h0.9v0.7h-1.6L18.5,223L18.5,223z M20.5,223h0.7l0.5,1.5l0.5-1.5H23v4.2h-0.7v-2.5l-0.5,1.6h0l-0.5-1.6v2.5h-0.7
		C20.5,227.2,20.5,223,20.5,223z M23.4,223h0.7v4.2h-0.7V223z M25.2,223h0.8l0.8,4.2H26l-0.1-0.8h-0.7l-0.1,0.8h-0.7L25.2,223z
		 M25.8,225.7l-0.2-1.4l-0.2,1.4H25.8z M10.7,229h0.6c0.7,0,1.4,0.3,1.4,1.1v0c0,0.5-0.3,0.8-0.6,0.9c0.4,0.2,0.7,0.4,0.7,0.9v0.1
		c0,0.7-0.6,1.2-1.4,1.2h-0.7V229z M11.5,230.7c0.3,0,0.5-0.2,0.5-0.6v0c0-0.4-0.2-0.5-0.5-0.5h0L11.5,230.7L11.5,230.7L11.5,230.7z
		 M11.5,232.5c0.3,0,0.6-0.2,0.6-0.5v0c0-0.3-0.2-0.5-0.6-0.5h0L11.5,232.5L11.5,232.5L11.5,232.5z M13.1,229h0.8
		c0.8,0,1.3,0.4,1.3,1.3v0.1c0,0.5-0.2,0.9-0.5,1.1l0.6,1.7h-0.8l-0.5-1.5h-0.1v1.5h-0.7L13.1,229L13.1,229z M13.9,231.1
		c0.3,0,0.6-0.2,0.6-0.7v0c0-0.5-0.3-0.7-0.6-0.7h0L13.9,231.1L13.9,231.1z M15.5,229h0.7v4.2h-0.7C15.5,233.2,15.5,229,15.5,229z
		 M16.7,229h0.7c0.9,0,1.5,0.7,1.5,2v0.1c0,1.3-0.5,2-1.5,2h-0.7V229z M17.4,232.5c0.3,0,0.6-0.3,0.6-1.4V231c0-1-0.3-1.4-0.6-1.4h0
		L17.4,232.5L17.4,232.5L17.4,232.5z M19.1,231.1V231c0-1.4,0.6-2.1,1.4-2.1c0.2,0,0.4,0,0.6,0.1v0.8c-0.2-0.1-0.3-0.2-0.5-0.2
		c-0.4,0-0.7,0.4-0.7,1.3v0.2c0,1.1,0.3,1.4,0.6,1.4c0,0,0,0,0.1,0v-1.1h-0.4v-0.7h1v2.2c-0.3,0.1-0.5,0.2-0.8,0.2
		C19.7,233.2,19.1,232.6,19.1,231.1z M21.6,229h1.6v0.7h-0.9v1h0.8v0.7h-0.8v1.1h0.9v0.7h-1.6L21.6,229L21.6,229z M9.7,235h0.7
		l0.5,1.5l0.5-1.5h0.7v4.2h-0.7v-2.5l-0.5,1.6h0l-0.5-1.6v2.5H9.7V235z M12.6,235h1.6v0.7h-0.9v1h0.8v0.7h-0.8v1.1h0.9v0.7h-1.6V235
		z M14.6,235h1.6v0.7h-0.9v1h0.8v0.7h-0.8v1.1h0.9v0.7h-1.6L14.6,235L14.6,235z M16.9,235.7h-0.5V235h1.8v0.7h-0.5v3.5h-0.7
		L16.9,235.7L16.9,235.7z M18.5,235h0.7v4.2h-0.7V235z M19.7,235h0.7l0.7,2.1V235h0.7v4.2h-0.6l-0.8-2.2v2.2h-0.7L19.7,235L19.7,235
		z M22.2,237.1V237c0-1.4,0.6-2.1,1.4-2.1c0.2,0,0.4,0,0.6,0.1v0.8c-0.2-0.1-0.3-0.2-0.5-0.2c-0.4,0-0.7,0.4-0.7,1.3v0.2
		c0,1.1,0.3,1.4,0.6,1.4c0,0,0,0,0.1,0v-1.1h-0.4v-0.7h1v2.2c-0.3,0.1-0.5,0.2-0.8,0.2C22.8,239.2,22.2,238.6,22.2,237.1z M11.5,241
		h0.8c0.8,0,1.3,0.4,1.3,1.3v0.1c0,0.5-0.2,0.9-0.5,1.1l0.6,1.7h-0.8l-0.5-1.5h-0.1v1.5h-0.7C11.5,245.2,11.5,241,11.5,241z
		 M12.3,243.1c0.3,0,0.6-0.2,0.6-0.7v0c0-0.5-0.3-0.7-0.6-0.7h0L12.3,243.1L12.3,243.1z M13.8,243.2V243c0-1.4,0.4-2.1,1.1-2.1
		s1.1,0.7,1.1,2.1v0.2c0,1.4-0.4,2.1-1.1,2.1C14.3,245.2,13.8,244.6,13.8,243.2z M15.3,243.2V243c0-1.1-0.1-1.4-0.4-1.4
		s-0.4,0.3-0.4,1.4v0.2c0,1.1,0.1,1.4,0.4,1.4C15.2,244.6,15.3,244.3,15.3,243.2z M16.4,243.2V243c0-1.4,0.5-2.1,1.1-2.1
		c0.7,0,1.1,0.7,1.1,2.1v0.2c0,1.4-0.5,2.1-1.1,2.1C16.8,245.2,16.4,244.6,16.4,243.2z M17.8,243.2V243c0-1.1-0.1-1.4-0.4-1.4
		s-0.4,0.3-0.4,1.4v0.2c0,1.1,0.1,1.4,0.4,1.4C17.7,244.6,17.8,244.3,17.8,243.2z M19,241h0.7l0.5,1.5l0.5-1.5h0.7v4.2h-0.7v-2.5
		l-0.5,1.6h0l-0.5-1.6v2.5H19L19,241L19,241z"/>
	<path class="st2" d="M54,151.6v-0.3c0-1.8,0.6-2.7,1.5-2.7c0.9,0,1.5,0.9,1.5,2.7v0.3c0,1.8-0.6,2.7-1.5,2.7
		C54.6,154.3,54,153.4,54,151.6z M56,151.6v-0.3c0-1.4-0.2-1.8-0.5-1.8c-0.3,0-0.5,0.4-0.5,1.8v0.3c0,1.4,0.2,1.8,0.5,1.8
		S56,153,56,151.6z M57.4,148.6h0.9c1.1,0,1.8,0.6,1.8,1.9v0c0,1.3-0.7,1.9-1.7,1.9h0v1.8h-1V148.6z M58.4,151.5
		c0.4,0,0.7-0.3,0.7-1v0c0-0.7-0.3-1-0.7-1h0L58.4,151.5L58.4,151.5L58.4,151.5z M60.5,148.6h2.1v0.9h-1.2v1.4h1v0.9h-1v1.4h1.2v0.9
		h-2.2V148.6z M63.2,148.6h0.9l1,2.8v-2.8h1v5.6h-0.9l-1-3v3h-1L63.2,148.6L63.2,148.6z M68.4,149.5h-0.7v-0.9H70v0.9h-0.7v4.7h-1
		C68.4,154.2,68.4,149.5,68.4,149.5z M70.2,151.6v-0.3c0-1.8,0.6-2.7,1.5-2.7c0.9,0,1.5,0.9,1.5,2.7v0.3c0,1.8-0.6,2.7-1.5,2.7
		C70.8,154.3,70.2,153.4,70.2,151.6z M72.2,151.6v-0.3c0-1.4-0.2-1.8-0.5-1.8c-0.3,0-0.5,0.4-0.5,1.8v0.3c0,1.4,0.2,1.8,0.5,1.8
		C72,153.4,72.2,153,72.2,151.6z M57.9,156.6h0.9c1.2,0,2,0.9,2,2.7v0.2c0,1.8-0.7,2.7-2,2.7h-0.9V156.6z M59,161.3
		c0.5,0,0.9-0.4,0.9-1.8v-0.2c0-1.4-0.4-1.8-0.9-1.8h0L59,161.3L59,161.3L59,161.3z M61.3,156.6h2.1v0.9h-1.2v1.4h1v0.9h-1v1.4h1.2
		v0.9h-2.2L61.3,156.6L61.3,156.6z M63.8,159.5v-0.2c0-2,0.7-2.7,1.6-2.7c0.3,0,0.4,0,0.6,0.1v1c-0.2-0.1-0.4-0.2-0.5-0.2
		c-0.4,0-0.7,0.4-0.7,1.8v0.2c0,1.5,0.3,1.8,0.8,1.8c0.2,0,0.3-0.1,0.5-0.2v1c-0.2,0.1-0.4,0.2-0.7,0.2
		C64.4,162.2,63.8,161.5,63.8,159.5z M66.5,156.6h1v2.3l0.8-2.3h1.1l-0.9,2.4l1,3.2h-1.1l-0.6-2.1l-0.2,0.6v1.5h-1L66.5,156.6
		L66.5,156.6z M55.9,164.6h0.8c0.9,0,1.8,0.4,1.8,1.4v0c0,0.7-0.4,1.1-0.8,1.3c0.5,0.2,0.9,0.5,0.9,1.2v0.1c0,1-0.8,1.6-1.9,1.6
		h-0.9L55.9,164.6L55.9,164.6z M56.8,167c0.4,0,0.7-0.2,0.7-0.7v0c0-0.5-0.3-0.7-0.7-0.7h0L56.8,167L56.8,167z M56.8,169.3
		c0.4,0,0.8-0.3,0.8-0.7v0c0-0.5-0.3-0.7-0.8-0.7h0L56.8,169.3L56.8,169.3L56.8,169.3z M59,164.6h2.1v0.9H60v1.4h1v0.9h-1v1.4h1.2
		v0.9H59V164.6z M61.6,164.6h1v4.7h1v0.9h-2V164.6z M63.7,167.6v-0.3c0-1.8,0.6-2.7,1.5-2.7s1.5,0.9,1.5,2.7v0.3
		c0,1.8-0.6,2.7-1.5,2.7S63.7,169.4,63.7,167.6z M65.7,167.6v-0.3c0-1.4-0.2-1.8-0.5-1.8s-0.5,0.4-0.5,1.8v0.3
		c0,1.4,0.2,1.8,0.5,1.8S65.7,169,65.7,167.6z M66.9,164.6h1l0.4,3.4l0.5-3.4h0.9l0.5,3.4l0.4-3.4h1l-0.8,5.6h-1l-0.5-3.3l-0.5,3.3
		h-1L66.9,164.6z"/>
	<path class="st2" d="M58,453.9h-0.5v-0.7h1.8v0.7h-0.5v3.5H58L58,453.9L58,453.9z M59.6,453.2h0.7v1.7H61v-1.7h0.7v4.2H61v-1.8
		h-0.6v1.8h-0.7V453.2z M62.1,453.2h1.6v0.7h-0.9v1h0.8v0.7h-0.8v1.1h0.9v0.7h-1.6V453.2z M65.1,453.2h0.7v1.7h0.6v-1.7h0.7v4.2
		h-0.7v-1.8h-0.6v1.8h-0.7V453.2z M67.6,456.2v-3h0.7v3c0,0.4,0.1,0.5,0.3,0.5c0.2,0,0.3-0.1,0.3-0.5v-3h0.7v3c0,0.9-0.4,1.3-1,1.3
		S67.6,457,67.6,456.2z M70.1,453.2h0.7l0.5,1.5l0.5-1.5h0.7v4.2h-0.7v-2.5l-0.5,1.6h0l-0.5-1.6v2.5h-0.7L70.1,453.2L70.1,453.2z
		 M73,453.2h0.7v4.2H73V453.2z M74.2,453.2h0.7c0.9,0,1.5,0.7,1.5,2v0.1c0,1.3-0.5,2-1.5,2h-0.7V453.2z M75,456.7
		c0.3,0,0.6-0.3,0.6-1.4v-0.1c0-1-0.3-1.4-0.6-1.4h0L75,456.7L75,456.7L75,456.7z M76.6,455.4v-0.2c0-1.4,0.4-2.1,1.1-2.1
		c0.7,0,1.1,0.7,1.1,2.1v0.2c0,1.4-0.4,2.1-1.1,2.1C77.1,457.4,76.6,456.8,76.6,455.4z M78.1,455.4v-0.2c0-1.1-0.2-1.4-0.4-1.4
		s-0.4,0.3-0.4,1.4v0.2c0,1.1,0.2,1.4,0.4,1.4S78.1,456.5,78.1,455.4z M79.2,453.2H80c0.7,0,1.3,0.4,1.3,1.3v0.1
		c0,0.5-0.2,0.9-0.5,1.1l0.6,1.7h-0.8l-0.5-1.5H80v1.5h-0.7V453.2z M80,455.3c0.3,0,0.6-0.2,0.6-0.7v0c0-0.5-0.3-0.7-0.6-0.7h0
		L80,455.3L80,455.3z M63.9,461.4v-0.1c0-1.5,0.5-2.1,1.2-2.1c0.2,0,0.3,0,0.5,0.1v0.8c-0.1-0.1-0.3-0.1-0.4-0.1
		c-0.3,0-0.6,0.3-0.6,1.3v0.2c0,1.1,0.2,1.3,0.6,1.3c0.1,0,0.3,0,0.4-0.1v0.7c-0.2,0.1-0.3,0.1-0.5,0.1
		C64.4,463.4,63.9,462.8,63.9,461.4z M66,459.2h0.7v4.2H66V459.2z M67.1,461.4v-0.1c0-1.4,0.6-2.1,1.4-2.1c0.2,0,0.4,0,0.6,0.1v0.8
		c-0.2-0.1-0.3-0.2-0.5-0.2c-0.4,0-0.7,0.4-0.7,1.3v0.2c0,1.1,0.3,1.4,0.6,1.4c0,0,0,0,0.1,0v-1.1h-0.4V461h1v2.2
		c-0.3,0.1-0.5,0.2-0.8,0.2C67.7,463.4,67.1,462.8,67.1,461.4z M70.2,459.2H71l0.8,4.2H71l-0.1-0.8h-0.7l-0.1,0.8h-0.7L70.2,459.2z
		 M70.8,461.9l-0.2-1.4l-0.2,1.4H70.8z M72,459.2h0.8c0.8,0,1.3,0.4,1.3,1.3v0.1c0,0.5-0.2,0.9-0.5,1.1l0.6,1.7h-0.8l-0.5-1.5h-0.1
		v1.5H72V459.2z M72.7,461.3c0.3,0,0.6-0.2,0.6-0.7v0c0-0.5-0.3-0.7-0.6-0.7h0L72.7,461.3L72.7,461.3z M62.8,465.2h0.7v3.5h0.8v0.7
		h-1.5V465.2z M64.4,467.4v-0.2c0-1.4,0.4-2.1,1.1-2.1c0.7,0,1.1,0.7,1.1,2.1v0.2c0,1.4-0.4,2.1-1.1,2.1
		C64.8,469.4,64.4,468.8,64.4,467.4z M65.9,467.4v-0.2c0-1.1-0.1-1.4-0.4-1.4c-0.2,0-0.4,0.3-0.4,1.4v0.2c0,1.1,0.1,1.4,0.4,1.4
		C65.7,468.8,65.9,468.5,65.9,467.4z M67,468.2v-3h0.7v3c0,0.4,0.1,0.5,0.3,0.5s0.3-0.1,0.3-0.5v-3h0.7v3c0,0.9-0.4,1.3-1,1.3
		S67,469,67,468.2z M69.5,465.2h0.7l0.7,2.1v-2.1h0.7v4.2H71l-0.8-2.2v2.2h-0.7L69.5,465.2L69.5,465.2z M72,467.4v-0.1
		c0-1.4,0.6-2.1,1.4-2.1c0.2,0,0.4,0,0.6,0.1v0.8c-0.2-0.1-0.3-0.2-0.5-0.2c-0.4,0-0.7,0.4-0.7,1.3v0.2c0,1.1,0.3,1.4,0.6,1.4
		c0,0,0,0,0.1,0v-1.1h-0.4V467h1v2.2c-0.3,0.1-0.5,0.2-0.8,0.2C72.6,469.4,72,468.8,72,467.4z M74.5,465.2h1.6v0.7h-0.9v1H76v0.7
		h-0.8v1.1h0.9v0.7h-1.6V465.2z"/>
	<path class="st2" d="M61.2,506.7h0.7l0.5,1.5l0.5-1.5h0.7v4.2H63v-2.5l-0.5,1.6h0l-0.5-1.6v2.5h-0.7V506.7z M64.7,506.7h0.8
		l0.8,4.2h-0.7l-0.1-0.8h-0.7l-0.1,0.8h-0.7L64.7,506.7z M65.3,509.4l-0.2-1.4l-0.2,1.4H65.3z M66.3,508.9v-0.1
		c0-1.4,0.6-2.1,1.4-2.1c0.2,0,0.4,0,0.6,0.1v0.8c-0.2-0.1-0.3-0.2-0.5-0.2c-0.4,0-0.7,0.4-0.7,1.3v0.2c0,1.1,0.3,1.4,0.6,1.4
		c0,0,0,0,0.1,0v-1.1h-0.4v-0.7h1v2.2c-0.3,0.1-0.5,0.2-0.8,0.2C67,510.9,66.3,510.3,66.3,508.9z M68.9,506.7h0.7l0.7,2.1v-2.1H71
		v4.2h-0.6l-0.8-2.2v2.2h-0.7L68.9,506.7L68.9,506.7z M71.4,509.7v-3h0.7v3c0,0.4,0.1,0.5,0.3,0.5c0.2,0,0.3-0.1,0.3-0.5v-3h0.7v3
		c0,0.9-0.4,1.3-1,1.3S71.4,510.5,71.4,509.7z M73.9,506.7h0.7l0.5,1.5l0.5-1.5h0.7v4.2h-0.7v-2.5l-0.5,1.6h0l-0.5-1.6v2.5h-0.7
		L73.9,506.7L73.9,506.7z M76.8,508.2c0.4-0.1,0.5-0.4,0.5-0.7h-0.4v-0.8h0.8v0.7c0,0.6-0.3,1-0.9,1.1L76.8,508.2z M78.1,510.7V510
		c0.3,0.1,0.5,0.2,0.7,0.2c0.2,0,0.4-0.1,0.4-0.4v0c0-0.2-0.1-0.3-0.4-0.7c-0.5-0.6-0.7-0.8-0.7-1.3v0c0-0.7,0.4-1.1,1-1.1
		c0.3,0,0.5,0,0.6,0.1v0.8c-0.2-0.1-0.4-0.2-0.6-0.2c-0.2,0-0.4,0.1-0.4,0.4v0c0,0.2,0.1,0.3,0.4,0.7c0.6,0.7,0.7,0.9,0.7,1.4v0
		c0,0.7-0.5,1.1-1,1.1C78.5,510.9,78.3,510.8,78.1,510.7z M81,508.9v-0.1c0-1.5,0.5-2.1,1.2-2.1c0.2,0,0.3,0,0.5,0.1v0.8
		c-0.1-0.1-0.3-0.1-0.4-0.1c-0.3,0-0.6,0.3-0.6,1.3v0.2c0,1.1,0.2,1.3,0.6,1.3c0.1,0,0.3,0,0.4-0.1v0.7c-0.2,0.1-0.3,0.1-0.5,0.1
		C81.5,510.9,81,510.3,81,508.9z M83.1,506.7h0.7v1.7h0.6v-1.7h0.7v4.2h-0.7v-1.8h-0.6v1.8h-0.7L83.1,506.7L83.1,506.7z M86.2,506.7
		H87l0.8,4.2h-0.7l-0.1-0.8h-0.7l-0.1,0.8h-0.7L86.2,506.7z M86.8,509.4l-0.2-1.4l-0.2,1.4H86.8z M88,506.7h0.7l0.5,1.5l0.5-1.5h0.7
		v4.2h-0.7v-2.5l-0.5,1.6h0l-0.5-1.6v2.5H88L88,506.7L88,506.7z M90.9,506.7h0.7c0.8,0,1.4,0.4,1.4,1.4v0c0,0.9-0.5,1.4-1.3,1.5h0
		v1.3h-0.7V506.7z M91.7,508.9c0.3,0,0.5-0.2,0.5-0.8v0c0-0.5-0.2-0.8-0.5-0.8h0L91.7,508.9L91.7,508.9L91.7,508.9z M93.6,506.7h0.8
		l0.8,4.2h-0.7l-0.1-0.8h-0.7l-0.1,0.8h-0.7L93.6,506.7z M94.2,509.4L94,508l-0.2,1.4H94.2z M95.3,508.9v-0.1c0-1.4,0.6-2.1,1.4-2.1
		c0.2,0,0.4,0,0.6,0.1v0.8c-0.2-0.1-0.3-0.2-0.5-0.2c-0.4,0-0.7,0.4-0.7,1.3v0.2c0,1.1,0.3,1.4,0.6,1.4c0,0,0,0,0.1,0v-1.1h-0.4
		v-0.7h1v2.2c-0.3,0.1-0.5,0.2-0.8,0.2C95.9,510.9,95.3,510.3,95.3,508.9z M97.8,506.7h0.7l0.7,2.1v-2.1h0.7v4.2h-0.6l-0.8-2.2v2.2
		h-0.7L97.8,506.7L97.8,506.7z M100.4,506.7h1.6v0.7h-0.9v1h0.8v0.7h-0.8v1.1h0.9v0.7h-1.6V506.7z M71.2,515.8L71.2,515.8
		c0-0.5,0.2-0.9,0.6-1.3c-0.2-0.4-0.4-0.7-0.4-1v0c0-0.5,0.3-0.9,0.9-0.9c0.5,0,0.8,0.4,0.8,0.9v0c0,0.5-0.2,0.8-0.6,1.1l0.4,0.7
		c0-0.1,0.1-0.3,0.1-0.6l0.6,0.1c-0.1,0.5-0.1,0.8-0.3,1.1l0.3,0.6l-0.5,0.3l-0.2-0.4c-0.2,0.2-0.4,0.4-0.8,0.4
		C71.6,516.9,71.2,516.5,71.2,515.8z M72.6,516.1l-0.5-1c-0.2,0.2-0.2,0.4-0.2,0.7v0c0,0.3,0.2,0.5,0.4,0.5
		C72.4,516.3,72.5,516.2,72.6,516.1z M72.3,514.2c0.2-0.2,0.3-0.4,0.3-0.6v0c0-0.2-0.1-0.3-0.2-0.3c-0.1,0-0.2,0.1-0.2,0.3v0.1
		C72.1,513.7,72.1,513.9,72.3,514.2z M74.7,512.7h0.8l0.3,2.6l0.4-2.6h0.7l0.4,2.6l0.3-2.6h0.7l-0.6,4.2h-0.8l-0.3-2.5l-0.3,2.5
		h-0.8L74.7,512.7z M78.4,512.7h0.7v4.2h-0.7V512.7z M79.6,512.7h0.7l0.7,2.1v-2.1h0.7v4.2h-0.6l-0.8-2.2v2.2h-0.7V512.7z
		 M82.2,512.7h1.6v0.7h-0.9v1h0.8v0.7h-0.8v1.1h0.9v0.7h-1.6V512.7z M85.1,512.7h0.6c0.7,0,1.4,0.3,1.4,1.1v0c0,0.5-0.3,0.8-0.6,0.9
		c0.4,0.2,0.7,0.4,0.7,0.9v0.1c0,0.7-0.6,1.2-1.4,1.2h-0.7C85.1,516.9,85.1,512.7,85.1,512.7z M85.8,514.4c0.3,0,0.5-0.2,0.5-0.6v0
		c0-0.4-0.2-0.5-0.5-0.5h0L85.8,514.4L85.8,514.4z M85.9,516.2c0.3,0,0.6-0.2,0.6-0.5v0c0-0.3-0.2-0.5-0.6-0.5h0L85.9,516.2
		L85.9,516.2L85.9,516.2z M88,512.7h0.8l0.8,4.2h-0.7l-0.1-0.8h-0.7l-0.1,0.8h-0.7L88,512.7z M88.6,515.4l-0.2-1.4l-0.2,1.4H88.6z
		 M89.8,512.7h0.8c0.8,0,1.3,0.4,1.3,1.3v0.1c0,0.5-0.2,0.9-0.5,1.1l0.6,1.7h-0.8l-0.5-1.5h-0.1v1.5h-0.7L89.8,512.7L89.8,512.7z
		 M90.6,514.8c0.3,0,0.6-0.2,0.6-0.7v0c0-0.5-0.3-0.7-0.6-0.7h0L90.6,514.8L90.6,514.8z"/>
	<path class="st2" d="M97.6,598v-1l2-0.7l-2-0.7v-1h5.6v0.9h-3.4l2.1,0.7v0l-2.1,0.7h3.4v0.9L97.6,598L97.6,598z M97.6,593.3v-1
		l5.6-1.1v1l-1.1,0.2v0.9l1.1,0.2v0.9L97.6,593.3z M101.2,592.5l-1.8,0.3l1.8,0.3V592.5z M97.6,590.9v-1h4.7v-1h0.9v2L97.6,590.9
		L97.6,590.9z M98.6,588.3v0.7h-0.9v-2.4h0.9v0.7h4.7v1L98.6,588.3L98.6,588.3z M97.6,586.2v-1h5.6v1H97.6z M97.6,584.7v-0.9l2.8-1
		h-2.8v-1h5.6v0.9l-3,1h3v1H97.6z M100.5,581.3h-0.2c-1.8,0-2.7-0.8-2.7-1.9c0-0.3,0.1-0.5,0.2-0.7h1c-0.1,0.2-0.2,0.5-0.2,0.7
		c0,0.6,0.6,0.9,1.8,0.9h0.3c1.5,0,1.8-0.4,1.8-0.8c0,0,0,0,0-0.1h-1.4v0.5h-0.9v-1.4h3c0.2,0.4,0.2,0.6,0.2,1
		C103.3,580.5,102.5,581.3,100.5,581.3z M99.7,578.2c-0.1-0.6-0.6-0.7-0.9-0.7v0.5h-1.1v-1.1h0.9c0.8,0,1.4,0.4,1.5,1.2L99.7,578.2z
		 M103,576.4h-1c0.2-0.3,0.3-0.6,0.3-0.9c0-0.3-0.1-0.5-0.5-0.5h0c-0.3,0-0.4,0.1-1,0.5c-0.8,0.7-1.1,0.9-1.8,0.9h0
		c-0.9,0-1.5-0.6-1.5-1.4c0-0.4,0.1-0.6,0.2-0.9h1c-0.2,0.3-0.3,0.5-0.3,0.7c0,0.3,0.2,0.5,0.5,0.5h0c0.3,0,0.4-0.1,0.9-0.5
		c0.9-0.8,1.2-0.9,1.9-0.9h0c0.9,0,1.5,0.6,1.5,1.4C103.3,575.8,103.2,576.1,103,576.4z M97.6,572.4v-0.8c0-0.9,0.4-1.8,1.4-1.8h0
		c0.7,0,1.1,0.4,1.3,0.8c0.2-0.5,0.5-0.9,1.2-0.9h0.1c1,0,1.6,0.8,1.6,1.9v0.9H97.6z M100,571.4c0-0.4-0.2-0.7-0.7-0.7h0
		c-0.5,0-0.7,0.3-0.7,0.7v0L100,571.4L100,571.4z M102.3,571.4c0-0.4-0.3-0.8-0.7-0.8h0c-0.5,0-0.7,0.3-0.7,0.8v0L102.3,571.4
		L102.3,571.4L102.3,571.4z M97.6,569.2v-2.1h0.9v1.2h1.4v-1h0.9v1h1.4v-1.2h0.9v2.2H97.6z M97.6,566.6v-2.1h0.9v1.2h1.4v-1h0.9v1
		h1.4v-1.2h0.9v2.2L97.6,566.6L97.6,566.6z M97.6,564v-1c0-1,0.5-1.7,1.8-1.7h0.1c0.7,0,1.2,0.3,1.5,0.7l2.3-0.8v1l-2,0.6v0.2h2v1
		H97.6z M100.4,562.9c0-0.4-0.2-0.7-0.9-0.7h-0.1c-0.7,0-0.9,0.3-0.9,0.8v0L100.4,562.9L100.4,562.9z M109.8,597.3L109.8,597.3
		c-0.7,0-1.2-0.3-1.7-0.9c-0.5,0.3-0.9,0.5-1.3,0.5h-0.1c-0.7,0-1.2-0.5-1.2-1.2c0-0.7,0.5-1.1,1.2-1.1h0.1c0.6,0,1.1,0.3,1.5,0.8
		l1-0.5c-0.2,0-0.4-0.1-0.8-0.1l0.1-0.8c0.6,0.1,1.1,0.2,1.4,0.4l0.8-0.5l0.4,0.7l-0.5,0.3c0.3,0.3,0.5,0.6,0.5,1
		C111.3,596.7,110.7,597.3,109.8,597.3z M107.7,595.8c-0.2-0.2-0.5-0.3-0.8-0.3h-0.1c-0.3,0-0.4,0.1-0.4,0.3c0,0.2,0.2,0.3,0.4,0.3
		h0.1C107.1,596.1,107.3,596,107.7,595.8z M110.2,595.3l-1.4,0.7c0.3,0.2,0.6,0.3,0.9,0.3h0.1c0.4,0,0.7-0.2,0.7-0.5
		C110.5,595.6,110.4,595.5,110.2,595.3z M105.6,592.6v-1l3.4-0.4l-3.4-0.5v-0.9l3.4-0.5l-3.4-0.4v-1l5.6,0.8v1l-3.3,0.5l3.3,0.5v1
		L105.6,592.6z M105.6,587.6v-1h2.3v-0.8h-2.3v-1h5.6v1h-2.4v0.8h2.4v1H105.6z M105.6,584.2v-1h5.6v1H105.6z M111,582.8h-1
		c0.2-0.3,0.3-0.6,0.3-0.9c0-0.3-0.1-0.5-0.5-0.5h0c-0.3,0-0.4,0.1-1,0.5c-0.8,0.7-1.1,0.9-1.8,0.9h0c-0.9,0-1.5-0.6-1.5-1.4
		c0-0.4,0.1-0.6,0.2-0.9h1c-0.2,0.3-0.3,0.5-0.3,0.7c0,0.3,0.2,0.5,0.5,0.5h0c0.3,0,0.4-0.1,0.9-0.5c0.9-0.8,1.2-0.9,1.9-0.9h0
		c0.9,0,1.5,0.6,1.5,1.4C111.3,582.2,111.2,582.5,111,582.8z M105.6,580.1v-1h2.3l-2.3-0.8v-1.1l2.4,0.9l3.2-1v1.1l-2.1,0.6l0.6,0.2
		h1.5v1L105.6,580.1L105.6,580.1z M105.6,576.9v-2.1h0.9v1.2h1.4v-1h0.9v1h1.4v-1.2h0.9v2.2L105.6,576.9L105.6,576.9z M109,573.5
		l-3.4,1v-1l2.1-0.5l-2.1-0.5v-1l3.4,1h2.2v1L109,573.5L109,573.5z M105.6,569.9V569c0-0.9,0.4-1.8,1.4-1.8h0c0.7,0,1.1,0.4,1.3,0.8
		c0.2-0.5,0.5-0.9,1.2-0.9h0.1c1,0,1.6,0.8,1.6,1.9v0.9H105.6z M108,568.9c0-0.4-0.2-0.7-0.7-0.7h0c-0.5,0-0.7,0.3-0.7,0.7v0
		L108,568.9L108,568.9z M110.3,568.9c0-0.4-0.3-0.8-0.7-0.8h0c-0.5,0-0.7,0.3-0.7,0.8v0L110.3,568.9L110.3,568.9L110.3,568.9z
		 M105.6,566v-1l5.6-1.1v1l-1.1,0.2v0.9l1.1,0.2v0.9L105.6,566z M109.2,565.2l-1.8,0.3l1.8,0.3V565.2z M105.6,563.6v-1
		c0-1,0.5-1.7,1.8-1.7h0.1c0.7,0,1.2,0.3,1.5,0.7l2.3-0.8v1l-2,0.6v0.2h2v1H105.6z M108.4,562.6c0-0.4-0.2-0.7-0.9-0.7h-0.1
		c-0.7,0-0.9,0.3-0.9,0.8v0L108.4,562.6L108.4,562.6z"/>
	<path class="st2" d="M93.7,548.2v-0.7l1.5-0.5l-1.5-0.5v-0.7h4.2v0.7h-2.5l1.6,0.5v0l-1.6,0.5h2.5v0.7L93.7,548.2L93.7,548.2z
		 M93.7,545.3v-0.7h4.2v0.7H93.7z M95.7,543.6l-2.1,0.7v-0.8l1.2-0.3l-1.2-0.3v-0.8l2.1,0.7l2.1-0.7v0.8l-1.3,0.4l1.3,0.4v0.8
		L95.7,543.6z M93.7,541.8v-1.6h0.7v0.9h1v-0.8h0.7v0.8h1.1v-0.9h0.7v1.6L93.7,541.8L93.7,541.8z M93.7,539.8V539
		c0-0.8,0.4-1.3,1.3-1.3h0.1c0.5,0,0.9,0.2,1.1,0.5l1.7-0.6v0.8l-1.5,0.5v0.1h1.5v0.7L93.7,539.8L93.7,539.8z M95.7,539
		c0-0.3-0.2-0.6-0.7-0.6h0c-0.5,0-0.7,0.3-0.7,0.6v0L95.7,539L95.7,539z M97.7,537.5H97c0.1-0.3,0.2-0.5,0.2-0.7
		c0-0.2-0.1-0.4-0.4-0.4h0c-0.2,0-0.3,0.1-0.7,0.4c-0.6,0.5-0.8,0.7-1.3,0.7h0c-0.7,0-1.1-0.4-1.1-1c0-0.3,0-0.5,0.1-0.6h0.8
		c-0.1,0.2-0.2,0.4-0.2,0.6c0,0.2,0.1,0.4,0.4,0.4h0c0.2,0,0.3-0.1,0.7-0.4c0.7-0.6,0.9-0.7,1.4-0.7h0c0.7,0,1.1,0.5,1.1,1
		C97.9,537,97.8,537.3,97.7,537.5z M93.7,534.5v-0.7l1.5-0.5l-1.5-0.5V532h4.2v0.7h-2.5l1.6,0.5v0l-1.6,0.5h2.5v0.7L93.7,534.5
		L93.7,534.5z M93.7,531v-0.8l4.2-0.8v0.7l-0.8,0.1v0.7l0.8,0.1v0.7L93.7,531z M96.4,530.4l-1.4,0.2l1.4,0.2V530.4z M93.7,529.2
		v-0.8c0-0.8,0.4-1.3,1.3-1.3h0.1c0.5,0,0.9,0.2,1.1,0.5l1.7-0.6v0.8l-1.5,0.5v0.1h1.5v0.7L93.7,529.2L93.7,529.2z M95.7,528.4
		c0-0.3-0.2-0.6-0.7-0.6h0c-0.5,0-0.7,0.3-0.7,0.6v0L95.7,528.4L95.7,528.4z M94.4,526.5v0.5h-0.7v-1.8h0.7v0.5h3.5v0.7H94.4z
		 M93.7,524.9v-0.7h4.2v0.7H93.7z M93.7,523.7v-0.7l2.1-0.7h-2.1v-0.7h4.2v0.6l-2.2,0.8h2.2v0.7L93.7,523.7L93.7,523.7z M93.7,521.2
		v-0.7h4.2v0.7H93.7z M102.8,547.5L102.8,547.5c-0.5,0-0.9-0.2-1.3-0.6c-0.4,0.2-0.7,0.4-1,0.4h0c-0.5,0-0.9-0.3-0.9-0.9
		c0-0.5,0.4-0.8,0.9-0.8h0c0.5,0,0.8,0.2,1.1,0.6l0.7-0.4c-0.1,0-0.3-0.1-0.6-0.1l0.1-0.6c0.5,0.1,0.8,0.2,1.1,0.3l0.6-0.3l0.3,0.5
		l-0.4,0.2c0.2,0.2,0.4,0.4,0.4,0.8C103.9,547,103.5,547.5,102.8,547.5z M101.2,546.4c-0.2-0.2-0.4-0.3-0.6-0.3h0
		c-0.2,0-0.3,0.1-0.3,0.2c0,0.1,0.1,0.2,0.3,0.2h0.1C100.7,546.6,100.9,546.5,101.2,546.4z M103.1,546l-1,0.5
		c0.2,0.2,0.4,0.2,0.7,0.2h0c0.3,0,0.5-0.2,0.5-0.4C103.3,546.2,103.2,546.1,103.1,546z M101.8,543.9h-0.1c-1.5,0-2.1-0.5-2.1-1.2
		c0-0.2,0-0.3,0.1-0.5h0.8c-0.1,0.2-0.1,0.3-0.1,0.4c0,0.3,0.3,0.6,1.3,0.6h0.2c1.1,0,1.3-0.2,1.3-0.6c0-0.1,0-0.3-0.1-0.4h0.7
		c0.1,0.2,0.1,0.3,0.1,0.5C103.9,543.4,103.3,543.9,101.8,543.9z M101.9,542h-0.2c-1.4,0-2.1-0.5-2.1-1.1c0-0.7,0.7-1.1,2.1-1.1h0.2
		c1.4,0,2.1,0.5,2.1,1.1C103.9,541.6,103.3,542,101.9,542z M101.9,540.5h-0.2c-1.1,0-1.4,0.2-1.4,0.4s0.3,0.4,1.4,0.4h0.2
		c1.1,0,1.4-0.2,1.4-0.4C103.3,540.7,103,540.5,101.9,540.5z M101.8,539.5h-0.1c-1.5,0-2.1-0.5-2.1-1.2c0-0.2,0-0.3,0.1-0.5h0.8
		c-0.1,0.2-0.1,0.3-0.1,0.4c0,0.3,0.3,0.6,1.3,0.6h0.2c1.1,0,1.3-0.2,1.3-0.6c0-0.1,0-0.3-0.1-0.4h0.7c0.1,0.2,0.1,0.3,0.1,0.5
		C103.9,539,103.3,539.5,101.8,539.5z M99.7,537.4v-0.7h1.8l-1.8-0.6v-0.8l1.8,0.7l2.4-0.7v0.8l-1.6,0.5l0.5,0.2h1.1v0.7L99.7,537.4
		L99.7,537.4z M100.4,534.7v0.5h-0.7v-1.8h0.7v0.5h3.5v0.7H100.4z M99.7,532.7V532l4.2-0.8v0.7L103,532v0.7l0.8,0.1v0.7L99.7,532.7z
		 M102.4,532.1l-1.4,0.2l1.4,0.2V532.1z M99.7,530.9v-0.7h4.2v0.7H99.7z M99.7,529.8V529h3.5v-0.8h0.7v1.5L99.7,529.8L99.7,529.8z
		 M99.7,527v-0.6c0-0.7,0.3-1.4,1.1-1.4h0c0.5,0,0.8,0.3,0.9,0.6c0.2-0.4,0.4-0.7,0.9-0.7h0.1c0.7,0,1.2,0.6,1.2,1.4v0.7L99.7,527
		L99.7,527z M101.4,526.3c0-0.3-0.2-0.5-0.6-0.5h0c-0.4,0-0.5,0.2-0.5,0.5v0L101.4,526.3C101.4,526.3,101.4,526.3,101.4,526.3z
		 M103.2,526.3c0-0.3-0.2-0.6-0.5-0.6h0c-0.3,0-0.5,0.2-0.5,0.6v0L103.2,526.3C103.2,526.3,103.2,526.3,103.2,526.3z M99.7,524.1
		v-0.8l4.2-0.8v0.7l-0.8,0.1v0.7l0.8,0.1v0.7L99.7,524.1z M102.4,523.5l-1.4,0.2l1.4,0.2V523.5z M99.7,522.3v-0.8
		c0-0.8,0.4-1.3,1.3-1.3h0.1c0.5,0,0.9,0.2,1.1,0.5l1.7-0.6v0.8l-1.5,0.5v0.1h1.5v0.7L99.7,522.3L99.7,522.3z M101.7,521.5
		c0-0.3-0.2-0.6-0.7-0.6h0c-0.5,0-0.7,0.3-0.7,0.6v0L101.7,521.5L101.7,521.5z"/>
	<path class="st2" d="M53.9,679.3h1l1.1,5.6h-1l-0.2-1.1H54l-0.2,1.1h-0.9L53.9,679.3z M54.7,682.9l-0.3-1.8l-0.3,1.8H54.7z
		 M56.3,679.3h1v4.7h1v0.9h-2V679.3z M58.7,679.3h1v5.6h-1V679.3z M60.2,684.1l1.3-3.9h-1.2v-0.9h2.3v0.8l-1.3,3.9h1.3v0.9h-2.4
		L60.2,684.1L60.2,684.1z M63.8,679.3h1l1.1,5.6h-1l-0.2-1.1h-0.9l-0.2,1.1h-0.9L63.8,679.3z M64.6,682.9l-0.3-1.8l-0.3,1.8H64.6z
		 M66.2,679.3h1c1,0,1.7,0.5,1.7,1.8v0.1c0,0.7-0.3,1.2-0.7,1.5l0.8,2.3h-1l-0.6-2h-0.2v2h-1L66.2,679.3L66.2,679.3z M67.2,682
		c0.4,0,0.7-0.2,0.7-0.9v-0.1c0-0.7-0.3-0.9-0.8-0.9h0L67.2,682L67.2,682z M70.7,679.3h1l0.7,2l0.7-2h1v5.6H73v-3.4l-0.7,2.1h0
		l-0.7-2.1v3.4h-0.9L70.7,679.3L70.7,679.3z M75.3,679.3h1l1.1,5.6h-1l-0.2-1.1h-0.9l-0.2,1.1h-0.9L75.3,679.3z M76.1,682.9
		l-0.3-1.8l-0.3,1.8H76.1z M77.7,679.3h1v5.6h-1V679.3z M79.3,679.3h0.9l1,2.8v-2.8h1v5.6h-0.9l-1-3v3h-1V679.3z M52.7,687.3h0.9
		c1.2,0,2,0.9,2,2.7v0.2c0,1.8-0.7,2.7-2,2.7h-0.9V687.3z M53.7,692c0.5,0,0.9-0.4,0.9-1.8V690c0-1.4-0.4-1.8-0.9-1.8h0L53.7,692
		L53.7,692z M56.1,687.3h1v5.6h-1V687.3z M57.7,687.3h0.9l1,2.8v-2.8h1v5.6h-0.9l-1-3v3h-1L57.7,687.3L57.7,687.3z M61.1,687.3h1
		v5.6h-1V687.3z M62.7,687.3h0.9l1,2.8v-2.8h1v5.6h-0.9l-1-3v3h-1C62.7,692.9,62.7,687.3,62.7,687.3z M66,690.2V690
		c0-1.8,0.8-2.7,1.9-2.7c0.3,0,0.5,0.1,0.7,0.2v1c-0.2-0.1-0.5-0.2-0.7-0.2c-0.6,0-0.9,0.6-0.9,1.8v0.3c0,1.5,0.4,1.8,0.8,1.8
		c0,0,0,0,0.1,0v-1.4h-0.5v-0.9h1.4v3c-0.4,0.2-0.6,0.2-1,0.2C66.8,692.9,66,692.1,66,690.2z M70.6,687.3h1c1,0,1.7,0.5,1.7,1.8v0.1
		c0,0.7-0.3,1.2-0.7,1.5l0.8,2.3h-1l-0.6-2h-0.2v2h-1C70.6,692.9,70.6,687.3,70.6,687.3z M71.6,690c0.4,0,0.7-0.2,0.7-0.9v-0.1
		c0-0.7-0.3-0.9-0.8-0.9h0L71.6,690L71.6,690z M73.7,690.2v-0.3c0-1.8,0.6-2.7,1.5-2.7s1.5,0.9,1.5,2.7v0.3c0,1.8-0.6,2.7-1.5,2.7
		S73.7,692.1,73.7,690.2z M75.7,690.2v-0.3c0-1.4-0.2-1.8-0.5-1.8s-0.5,0.4-0.5,1.8v0.3c0,1.4,0.2,1.8,0.5,1.8
		S75.7,691.7,75.7,690.2z M77.1,690.2v-0.3c0-1.8,0.6-2.7,1.5-2.7c0.9,0,1.5,0.9,1.5,2.7v0.3c0,1.8-0.6,2.7-1.5,2.7
		C77.7,692.9,77.1,692.1,77.1,690.2z M79,690.2v-0.3c0-1.4-0.2-1.8-0.5-1.8s-0.5,0.4-0.5,1.8v0.3c0,1.4,0.2,1.8,0.5,1.8
		S79,691.7,79,690.2z M80.5,687.3h1l0.7,2l0.7-2h1v5.6h-0.9v-3.4l-0.7,2.1h0l-0.7-2.1v3.4h-0.9L80.5,687.3L80.5,687.3z"/>
	<path class="st2" d="M41.6,191.1v-1c0.3,0.2,0.6,0.3,0.9,0.3c0.3,0,0.5-0.1,0.5-0.5v0c0-0.3-0.1-0.4-0.5-1
		c-0.7-0.8-0.9-1.1-0.9-1.8v0c0-0.9,0.6-1.5,1.4-1.5c0.4,0,0.6,0.1,0.9,0.2v1c-0.3-0.2-0.5-0.3-0.7-0.3c-0.3,0-0.5,0.2-0.5,0.5v0
		c0,0.3,0.1,0.4,0.5,0.9c0.8,0.9,0.9,1.2,0.9,1.9v0c0,0.9-0.6,1.5-1.4,1.5C42.2,191.3,41.9,191.2,41.6,191.1z M44.7,186.6H44v-0.9
		h2.4v0.9h-0.7v4.7h-1V186.6z M47.3,185.7h1l1.1,5.6h-1l-0.2-1.1h-0.9l-0.2,1.1h-0.9L47.3,185.7z M48.1,189.3l-0.3-1.8l-0.3,1.8
		H48.1z M49.7,185.7h1c1,0,1.7,0.5,1.7,1.8v0.1c0,0.7-0.3,1.2-0.7,1.5l0.8,2.3h-1l-0.6-2h-0.2v2h-1V185.7z M50.7,188.4
		c0.4,0,0.7-0.2,0.7-0.9v-0.1c0-0.7-0.3-0.9-0.8-0.9h0L50.7,188.4L50.7,188.4z M52.9,185.7h0.9c1.2,0,2,0.9,2,2.7v0.2
		c0,1.8-0.7,2.7-2,2.7h-0.9V185.7z M53.9,190.4c0.5,0,0.9-0.4,0.9-1.8v-0.2c0-1.4-0.4-1.8-0.9-1.8h0L53.9,190.4L53.9,190.4
		L53.9,190.4z M56.2,189.6v-4h1v4.1c0,0.5,0.2,0.7,0.4,0.7s0.4-0.2,0.4-0.7v-4.1h1v4c0,1.2-0.6,1.7-1.4,1.7
		C56.8,191.3,56.2,190.8,56.2,189.6z M59.5,191.1v-1c0.3,0.2,0.6,0.3,0.9,0.3c0.3,0,0.5-0.1,0.5-0.5v0c0-0.3-0.1-0.4-0.5-1
		c-0.7-0.8-0.9-1.1-0.9-1.8v0c0-0.9,0.6-1.5,1.4-1.5c0.4,0,0.6,0.1,0.9,0.2v1c-0.3-0.2-0.5-0.3-0.7-0.3c-0.3,0-0.5,0.2-0.5,0.5v0
		c0,0.3,0.1,0.4,0.5,0.9c0.8,0.9,0.9,1.2,0.9,1.9v0c0,0.9-0.6,1.5-1.4,1.5C60.1,191.3,59.7,191.2,59.5,191.1z M62.6,186.6h-0.7v-0.9
		h2.4v0.9h-0.7v4.7h-1C62.6,191.3,62.6,186.6,62.6,186.6z M66.4,186.6h-0.7v-0.9h2.4v0.9h-0.7v4.7h-1L66.4,186.6L66.4,186.6z
		 M68.5,185.7h1v2.3h0.8v-2.3h1v5.6h-1v-2.4h-0.8v2.4h-1V185.7z M71.9,185.7H74v0.9h-1.2v1.4h1v0.9h-1v1.4h1.2v0.9h-2.2V185.7z
		 M75.3,185.7h1l1.1,5.6h-1l-0.2-1.1h-0.9l-0.2,1.1h-0.9L75.3,185.7z M76.1,189.3l-0.3-1.8l-0.3,1.8H76.1z M78,186.6h-0.7v-0.9h2.4
		v0.9H79v4.7h-1V186.6z M80.1,185.7h2.1v0.9H81v1.4h1v0.9h-1v1.4h1.2v0.9h-2.2V185.7z M82.7,185.7h1c1,0,1.7,0.5,1.7,1.8v0.1
		c0,0.7-0.3,1.2-0.7,1.5l0.8,2.3h-1l-0.6-2h-0.2v2h-1V185.7z M83.7,188.4c0.4,0,0.7-0.2,0.7-0.9v-0.1c0-0.7-0.3-0.9-0.8-0.9h0
		L83.7,188.4L83.7,188.4z M51,197c0-1.6,0.5-3,1.8-3.4v0.7c-0.7,0.4-0.9,1.4-0.9,2.7c0,1.3,0.2,2.4,0.9,2.7v0.7
		C51.5,200,51,198.6,51,197z M53.4,193.7h0.8c0.9,0,1.8,0.4,1.8,1.4v0c0,0.7-0.4,1.1-0.8,1.3c0.5,0.2,0.9,0.5,0.9,1.2v0.1
		c0,1-0.8,1.6-1.9,1.6h-0.9V193.7z M54.4,196c0.4,0,0.7-0.2,0.7-0.7v0c0-0.5-0.3-0.7-0.7-0.7h0L54.4,196L54.4,196z M54.4,198.4
		c0.4,0,0.8-0.3,0.8-0.7v0c0-0.5-0.3-0.7-0.8-0.7h0L54.4,198.4L54.4,198.4L54.4,198.4z M57.3,193.7h1l1.1,5.6h-1l-0.2-1.1h-0.9
		l-0.2,1.1h-0.9L57.3,193.7z M58.1,197.3l-0.3-1.8l-0.3,1.8H58.1z M59.7,193.7h1v4.7h1v0.9h-2V193.7z M61.8,196.6v-0.2
		c0-2,0.7-2.7,1.6-2.7c0.3,0,0.4,0,0.6,0.1v1c-0.2-0.1-0.4-0.2-0.5-0.2c-0.4,0-0.7,0.4-0.7,1.8v0.2c0,1.5,0.3,1.8,0.8,1.8
		c0.2,0,0.3-0.1,0.5-0.2v1c-0.2,0.1-0.4,0.2-0.7,0.2C62.5,199.3,61.8,198.5,61.8,196.6z M64.3,196.6v-0.3c0-1.8,0.6-2.7,1.5-2.7
		s1.5,0.9,1.5,2.7v0.3c0,1.8-0.6,2.7-1.5,2.7S64.3,198.5,64.3,196.6z M66.3,196.6v-0.3c0-1.4-0.2-1.8-0.5-1.8s-0.5,0.4-0.5,1.8v0.3
		c0,1.4,0.2,1.8,0.5,1.8S66.3,198.1,66.3,196.6z M67.7,193.7h0.9l1,2.8v-2.8h1v5.6h-0.9l-1-3v3h-1C67.7,199.3,67.7,193.7,67.7,193.7
		z M71.9,197.1l-1-3.4h1l0.5,2.1l0.5-2.1h1l-1,3.4v2.2h-1L71.9,197.1L71.9,197.1z M74.1,199.7c0.7-0.4,0.9-1.4,0.9-2.7
		c0-1.3-0.2-2.3-0.9-2.7v-0.7c1.3,0.4,1.8,1.8,1.8,3.4c0,1.6-0.5,3-1.8,3.4V199.7z"/>
	<path class="st2" d="M55.5,367.3v-0.2c0-2,0.7-2.7,1.6-2.7c0.3,0,0.4,0,0.6,0.1v1c-0.2-0.1-0.4-0.2-0.5-0.2c-0.4,0-0.7,0.4-0.7,1.8
		v0.2c0,1.5,0.3,1.8,0.8,1.8c0.2,0,0.3-0.1,0.5-0.2v1c-0.2,0.1-0.4,0.2-0.7,0.2C56.2,370.1,55.5,369.3,55.5,367.3z M59,364.4h1
		l1.1,5.6h-1l-0.2-1.1h-0.9l-0.2,1.1H58L59,364.4z M59.8,368l-0.3-1.8l-0.3,1.8H59.8z M61.3,369.8v-1c0.3,0.2,0.6,0.3,0.9,0.3
		c0.3,0,0.5-0.1,0.5-0.5v0c0-0.3-0.1-0.4-0.5-1c-0.7-0.8-0.9-1.1-0.9-1.8v0c0-0.9,0.6-1.5,1.4-1.5c0.4,0,0.6,0.1,0.9,0.2v1
		c-0.3-0.2-0.5-0.3-0.7-0.3c-0.3,0-0.5,0.2-0.5,0.5v0c0,0.3,0.1,0.4,0.5,0.9c0.8,0.9,0.9,1.2,0.9,1.9v0c0,0.9-0.6,1.5-1.4,1.5
		C61.9,370.1,61.6,370,61.3,369.8z M64.1,364.4h1v5.6h-1V364.4z M65.6,364.4h0.9l1,2.8v-2.8h1v5.6h-0.9l-1-3v3h-1L65.6,364.4
		L65.6,364.4z M69,367.4v-0.3c0-1.8,0.6-2.7,1.5-2.7s1.5,0.9,1.5,2.7v0.3c0,1.8-0.6,2.7-1.5,2.7S69,369.2,69,367.4z M70.9,367.4
		v-0.3c0-1.4-0.2-1.8-0.5-1.8s-0.5,0.4-0.5,1.8v0.3c0,1.4,0.2,1.8,0.5,1.8S70.9,368.8,70.9,367.4z"/>
</g>
<g id="JADE_DECK_06_TOP">
	<g id="gDeck06Locations">
		<path width="126.6246" height="378.719" id="_x30_6Aft" class="st3" d="M0.7,1061.8c5.2,14.6,37.4,17.8,53.8,18.4l20.6-0.1c16.8-0.8,47-4.3,52-18.3
			c0.1-9.1,0.1-177.8,0.2-360.3H0.6C0.6,884,0.6,1052.7,0.7,1061.8z"/>
		<path width="126.716" height="316.955" id="_x30_6MidShip" class="st3" d="M0.5,384.5c0,88.6,0,205.4,0,317h126.6c0-111.6,0-228.4,0-317H0.5z"/>
		<path width="126.742" height="384.046" id="_x30_6Forward" class="st3" d="M127.2,236.6c0,0-0.2-32.5-0.6-36.4c-0.1-1.4-0.8-21.8-1.7-31
			C121.4,133.9,114.9,59.9,65,1c-0.3-0.2-0.6-0.4-0.9-0.5h-0.5C63.3,0.6,63,0.7,62.7,1C10.4,61.6,5.1,146.5,2.5,171.7
			c-0.9,12.5-1.3,27.1-1.4,28.5c-0.3,3.9-0.6,36.4-0.6,36.4s0,60.1,0,147.9h126.7C127.2,296.8,127.2,236.6,127.2,236.6z"/>
	</g>
	<path class="st4" d="M75.1,1080.1c16.8-0.8,47-4.3,52-18.3c0.2-20.2,0.2-825.2,0.2-825.2s-0.2-32.5-0.6-36.4
		c-0.1-1.4-0.8-21.8-1.7-31C121.4,133.9,114.9,59.9,65,1c-0.3-0.2-0.6-0.4-0.9-0.5h-0.5C63.3,0.6,63,0.7,62.7,1
		C10.4,61.6,5.1,146.5,2.5,171.7c-0.9,12.5-1.3,27.1-1.5,28.5c-0.3,3.9-0.6,36.4-0.6,36.4s0.1,805,0.2,825.2
		c5.2,14.6,37.4,17.8,53.8,18.4L75.1,1080.1z"/>
</g>
</svg>
