<?xml version="1.0" encoding="utf-8"?>
<!-- Generator: Adobe Illustrator 25.4.1, SVG Export Plug-In . SVG Version: 6.00 Build 0)  -->
<svg version="1.1" id="JADE_DECK_14" xmlns="http://www.w3.org/2000/svg" xmlns:xlink="http://www.w3.org/1999/xlink" x="0px"
	 y="0px" width="132.5px" height="891px" viewBox="0 0 132.5 891" style="enable-background:new 0 0 132.5 891;"
	 xml:space="preserve">
<style type="text/css">
	.st0{fill:#FFFFFF;}
	.st1{fill:none;stroke:#D5DCE0;stroke-width:0.5;}
	.st2{fill:#CCDDE2;}
	.st3{fill:#6E8496;}
	.st4{fill:#EFF2F5;stroke:#FFFFFF;stroke-width:0.5;stroke-miterlimit:10;}
	.st5{fill:none;}
	.st6{fill:none;stroke:#076FA0;stroke-miterlimit:10;}
</style>
<g id="JADE_DECK_14_BOTTOM">
	<path class="st0" d="M63,483.7h17.3c0,0,33.2,1.3,51.7,21.8v219.2h-21.8v7.4h-6.3v52.7h17.2v84.7h-6.3v21h-35H53.6h-35v-21h-6.3
		v-84.7h17.2v-52.7h-6.3v-7.4H1.4V505.5C20,485,53.2,483.7,53.2,483.7H63z"/>
	<path class="st0" d="M2.1,177.3h21.4v111.1c0,0,18.8-16.6,43.7-16.1c25,0.4,42.4,15.7,42.4,15.7V153.5h16.6V11.3
		c0,0-16.9-9-56.8-10.8h-5.9C23.6,2.3,6.7,11.3,6.7,11.3v144.2l-6.1,8.6l0,13.2L2.1,177.3z"/>
	<path class="st1" d="M121.6,153.1L122,18.5c-56.2-18.6-111.2,0-111.2,0v135.4L0.8,169.3"/>
	<path class="st1" d="M16.6,17.2l16.1,28c0,0,4.9,10.1-7.7,15.4H10.7"/>
	<path class="st1" d="M30.3,49.8c0,4.4-3.5,7.9-7.9,7.9s-7.9-3.5-7.9-7.9s3.5-7.9,7.9-7.9S30.3,45.4,30.3,49.8z"/>
	<path class="st1" d="M116.8,17l-16.3,28.2c0,0-4.9,10.1,7.7,15.4h13.9"/>
	<path class="st1" d="M102.9,49.8c0,4.4,3.5,7.9,7.9,7.9s7.9-3.5,7.9-7.9s-3.5-7.9-7.9-7.9C106.4,41.9,102.9,45.4,102.9,49.8z"/>
	<polyline class="st1" points="87.8,150.7 98.1,150.7 102.2,146.6 102.2,87.5 68.6,87.5 64.1,87.5 30.5,87.5 30.5,146.6 34.6,150.7 
		51.1,150.7 	"/>
	<polyline class="st1" points="92.7,87.9 92.7,98.7 101.9,98.7 	"/>
	<polyline class="st1" points="39.8,87.9 39.8,98.7 30.5,98.7 	"/>
	<polyline class="st1" points="50.9,150.6 50.9,165.8 46.1,165.8 46.1,169.5 	"/>
	<line class="st1" x1="88.1" y1="151.1" x2="88.1" y2="170.2"/>
	<line class="st1" x1="24.3" y1="224.5" x2="30.6" y2="224.5"/>
	<line class="st1" x1="24.3" y1="221.8" x2="30.6" y2="221.8"/>
	<line class="st1" x1="24.3" y1="219.1" x2="30.6" y2="219.1"/>
	<line class="st1" x1="24.3" y1="216.3" x2="30.6" y2="216.3"/>
	<line class="st1" x1="24.3" y1="213.6" x2="30.6" y2="213.6"/>
	<rect x="24.4" y="210.9" class="st1" width="6.3" height="16.4"/>
	<line class="st1" x1="39.9" y1="198.2" x2="45" y2="198.2"/>
	<line class="st1" x1="39.9" y1="195.5" x2="45" y2="195.5"/>
	<line class="st1" x1="39.9" y1="192.8" x2="45" y2="192.8"/>
	<line class="st1" x1="39.9" y1="190" x2="45" y2="190"/>
	<line class="st1" x1="39.9" y1="187.3" x2="45" y2="187.3"/>
	<rect x="40" y="184.6" class="st1" width="5.1" height="16.4"/>
	<line class="st1" x1="102" y1="224.5" x2="108.3" y2="224.5"/>
	<line class="st1" x1="102" y1="221.8" x2="108.3" y2="221.8"/>
	<line class="st1" x1="102" y1="219.1" x2="108.3" y2="219.1"/>
	<line class="st1" x1="102" y1="216.3" x2="108.3" y2="216.3"/>
	<line class="st1" x1="102" y1="213.6" x2="108.3" y2="213.6"/>
	<rect x="102.1" y="210.9" class="st1" width="6.3" height="16.4"/>
	<polyline class="st1" points="88,170 88,206.2 46.2,206.2 46.2,167.5 	"/>
	<path class="st1" d="M78.2,206.2c-0.5,6.7-5.5,11.9-11.7,11.9c-6.1,0-11-5.1-11.7-11.7"/>
	<path class="st1" d="M57,206.2c0,0.9,0.2,1.9,0.4,2.9c3.1,7.2,9,6.6,9,6.6h0.2c0,0,6,0.6,9-6.6c0.3-1.2,0.4-2.3,0.4-3.3"/>
	<rect x="44.9" y="583.2" class="st1" width="42.9" height="16.4"/>
	<rect x="49" y="606.1" class="st1" width="35.4" height="68.6"/>
	<rect x="59.7" y="620.3" class="st1" width="14" height="47.1"/>
	<rect x="49" y="687.2" class="st1" width="10.2" height="16.4"/>
	<line class="st1" x1="49" y1="673.7" x2="49" y2="688.4"/>
	<rect x="74.2" y="686.9" class="st1" width="10.1" height="16.6"/>
	<line class="st1" x1="84.4" y1="673.7" x2="84.4" y2="688.4"/>
	<polygon class="st1" points="37.6,703.5 95.3,703.5 94.9,845.5 38.1,845.5 	"/>
	<polyline class="st1" points="79.8,674.8 79.8,681 65.1,681 	"/>
	<line class="st1" x1="84.4" y1="685.8" x2="65.1" y2="685.8"/>
	<rect x="60.8" y="624.4" class="st1" width="11.8" height="11.8"/>
	<line class="st1" x1="78.1" y1="681.2" x2="78.1" y2="685.5"/>
	<line class="st1" x1="76.9" y1="681.2" x2="76.9" y2="685.5"/>
	<line class="st1" x1="75.7" y1="681.2" x2="75.7" y2="685.5"/>
	<line class="st1" x1="79.7" y1="678.1" x2="84.1" y2="678.1"/>
	<line class="st1" x1="79.7" y1="679.4" x2="84.1" y2="679.4"/>
	<line class="st1" x1="79.7" y1="680.6" x2="84.1" y2="680.6"/>
	<line class="st1" x1="74.5" y1="681.2" x2="74.5" y2="685.5"/>
	<line class="st1" x1="73.2" y1="681.2" x2="73.2" y2="685.5"/>
	<line class="st1" x1="72" y1="681.2" x2="72" y2="685.5"/>
	<line class="st1" x1="70.8" y1="681.1" x2="70.8" y2="685.5"/>
	<line class="st1" x1="69.6" y1="681.1" x2="69.6" y2="685.5"/>
	<line class="st1" x1="68.3" y1="681.1" x2="68.3" y2="685.5"/>
	<line class="st1" x1="67.1" y1="681.1" x2="67.1" y2="685.5"/>
	<line class="st1" x1="65.9" y1="681.1" x2="65.9" y2="685.5"/>
	<polygon class="st1" points="56.9,581.1 56.9,572.5 67,572.5 67,581.1 	"/>
	<polygon class="st1" points="46.8,581.1 46.8,572.5 56.9,572.5 56.9,581.1 	"/>
	<polygon class="st1" points="76.9,581.1 76.9,572.5 87,572.5 87,581.1 	"/>
	<polygon class="st1" points="66.8,581.1 66.8,572.5 76.9,572.5 76.9,581.1 	"/>
	<path class="st1" d="M76,560.2v-21.9c0-0.6-0.4-1-1-1H58.9c-0.5,0-1,0.4-1,1v21.9H76z"/>
	<polygon class="st1" points="56.8,793.8 56.8,785.2 66.9,785.2 66.9,793.8 	"/>
	<polygon class="st1" points="46.7,793.8 46.7,785.2 56.8,785.2 56.8,793.8 	"/>
	<polygon class="st1" points="76.8,793.8 76.8,785.2 86.9,785.2 86.9,793.8 	"/>
	<polygon class="st1" points="66.7,793.8 66.7,785.2 76.8,785.2 76.8,793.8 	"/>
	<line class="st1" x1="37.9" y1="785.2" x2="94.9" y2="785.2"/>
	<line class="st1" x1="37.5" y1="733.2" x2="95.1" y2="733.2"/>
	<line class="st1" x1="66.9" y1="537.7" x2="66.9" y2="560.2"/>
	<line class="st1" x1="67.1" y1="547.6" x2="75.9" y2="547.6"/>
	<line class="st1" x1="67.1" y1="549.1" x2="75.9" y2="549.1"/>
	<line class="st1" x1="67.1" y1="550.6" x2="75.9" y2="550.6"/>
	<line class="st1" x1="67.1" y1="552.1" x2="75.9" y2="552.1"/>
	<line class="st1" x1="67.1" y1="553.6" x2="75.9" y2="553.6"/>
	<line class="st1" x1="67.1" y1="555.1" x2="75.9" y2="555.1"/>
	<line class="st1" x1="57.8" y1="547.6" x2="66.6" y2="547.6"/>
	<line class="st1" x1="57.8" y1="549.1" x2="66.6" y2="549.1"/>
	<line class="st1" x1="57.8" y1="550.6" x2="66.6" y2="550.6"/>
	<line class="st1" x1="57.8" y1="552.1" x2="66.6" y2="552.1"/>
	<line class="st1" x1="57.8" y1="553.6" x2="66.6" y2="553.6"/>
	<line class="st1" x1="57.8" y1="555.1" x2="66.6" y2="555.1"/>
	<line class="st1" x1="95.3" y1="711.8" x2="101.7" y2="711.8"/>
	<line class="st1" x1="31.5" y1="711.8" x2="37.9" y2="711.8"/>
	<line class="st1" x1="57.2" y1="581" x2="67" y2="572.7"/>
	<line class="st1" x1="66.8" y1="580.9" x2="57.2" y2="572.8"/>
	<line class="st1" x1="47" y1="581" x2="57" y2="572.7"/>
	<line class="st1" x1="56.7" y1="580.8" x2="47.1" y2="572.8"/>
	<line class="st1" x1="77.2" y1="581" x2="87" y2="572.7"/>
	<line class="st1" x1="86.9" y1="580.9" x2="77.2" y2="572.8"/>
	<line class="st1" x1="67.1" y1="581" x2="77" y2="572.7"/>
	<line class="st1" x1="76.8" y1="580.8" x2="67.2" y2="572.8"/>
	<line class="st1" x1="57" y1="793.7" x2="66.8" y2="785.4"/>
	<line class="st1" x1="66.7" y1="793.5" x2="57.1" y2="785.4"/>
	<line class="st1" x1="46.9" y1="793.6" x2="56.8" y2="785.3"/>
	<line class="st1" x1="56.6" y1="793.5" x2="47" y2="785.4"/>
	<line class="st1" x1="77.1" y1="793.7" x2="86.9" y2="785.4"/>
	<line class="st1" x1="86.8" y1="793.5" x2="77.1" y2="785.4"/>
	<line class="st1" x1="67" y1="793.6" x2="76.9" y2="785.3"/>
	<line class="st1" x1="76.6" y1="793.5" x2="67" y2="785.4"/>
	<path class="st2" d="M55.6,676.8c-2.2,0-4,1.8-4,4s1.8,4,4,4s4-1.8,4-4S57.8,676.8,55.6,676.8z M54.3,677.3
		c0.1,0.1,0.3,0.1,0.5,0.1c0.3-0.1,0.5-0.1,0.8-0.1c0.3,0,0.6,0.1,0.9,0.1c0,0,0,0,0,0c-0.2,0-0.5,0.1-0.8,0.1c0,0,0,0,0,0
		c0,0,0,0,0,0c-0.4,0-0.7,0-0.9-0.1C54.6,677.4,54.4,677.3,54.3,677.3C54.3,677.3,54.3,677.3,54.3,677.3z M52.8,678.3
		c0.1,0,0.2,0,0.3,0.1c0.2-0.2,0.5-0.4,0.8-0.6c0,0-0.1,0-0.1-0.1c-0.1,0-0.1,0-0.2-0.1c0,0,0,0,0,0c0.1,0,0.1,0.1,0.2,0.1
		c0,0,0.1,0,0.1,0c0.4,0.2,0.9,0.3,1.8,0.4c0.8,0,1.3-0.1,1.7-0.3c0,0,0,0,0,0c0.3,0.2,0.5,0.4,0.8,0.6c0,0,0,0,0,0
		c-0.3,0.1-0.5,0.2-0.7,0.2c-0.4,0.2-0.8,0.4-1.7,0.4c0,0,0,0,0,0s0,0,0,0c-0.8,0-1.3-0.2-1.7-0.4c-0.3-0.1-0.6-0.2-0.9-0.3
		C53,678.3,52.9,678.3,52.8,678.3C52.8,678.3,52.8,678.3,52.8,678.3z M52.1,679.7c0.1,0,0.1,0,0.1,0c0.1-0.3,0.2-0.6,0.4-0.9
		c-0.1,0-0.2,0-0.3,0l0,0c0.1,0,0.2,0,0.3,0c0.5,0.1,0.8,0.2,1.1,0.3c0.5,0.2,1,0.4,1.9,0.4c1,0,1.4-0.2,1.9-0.4
		c0.3-0.1,0.5-0.2,0.9-0.3l0,0c0.2,0.3,0.3,0.6,0.4,0.9l0,0c-0.7,0-1.1,0.2-1.5,0.4c-0.4,0.2-0.8,0.4-1.7,0.4l0,0l0,0
		c-0.8,0-1.3-0.2-1.7-0.4c-0.4-0.2-0.9-0.4-1.8-0.4C52.2,679.8,52.1,679.7,52.1,679.7L52.1,679.7z M57.4,683.8
		c-0.5,0.3-1.2,0.5-1.8,0.5c-0.8,0-1.6-0.3-2.2-0.8c-0.1,0-0.3-0.1-0.5-0.1c0,0,0,0,0,0c0.2,0,0.3,0.1,0.5,0.1
		c0.2,0,0.3,0.1,0.4,0.2c0.5,0.2,1,0.4,1.9,0.4C56.6,684.1,57.1,683.9,57.4,683.8C57.5,683.8,57.4,683.8,57.4,683.8z M58.9,681.9
		c-0.1,0.3-0.3,0.7-0.5,0.9c0,0,0,0,0,0c-0.4,0.1-0.8,0.2-1.1,0.3c-0.4,0.2-0.8,0.4-1.7,0.4c0,0,0,0,0,0s0,0,0,0
		c-0.8,0-1.3-0.2-1.7-0.4c-0.4-0.2-0.8-0.3-1.3-0.4c-0.1,0-0.2,0-0.3,0l0,0c0.1,0,0.2,0,0.3,0c-0.2-0.3-0.3-0.6-0.4-0.9
		c0,0-0.1,0-0.1,0l0,0c0.1,0,0.1,0,0.1,0c0.7,0,1.1,0.2,1.5,0.3c0.5,0.2,1,0.4,1.9,0.4s1.4-0.2,1.9-0.4
		C58,682.1,58.3,681.9,58.9,681.9L58.9,681.9z M59.1,680.8c0,0.2,0,0.3,0,0.5l0,0c-0.8,0-1.2,0.2-1.7,0.4c-0.4,0.2-0.8,0.4-1.7,0.4
		l0,0l0,0c-0.8,0-1.3-0.2-1.7-0.4c-0.5-0.2-1-0.4-1.9-0.4c0,0,0,0,0,0c-0.1,0-0.2,0-0.2,0l0,0c0.1,0,0.2,0,0.2,0l0,0l0,0
		c0,0,0,0,0,0c0-0.1,0-0.3,0-0.4c0-0.2,0-0.3,0-0.5c0,0,0,0,0,0l0,0c0,0,0,0,0,0c0.8,0,1.2,0.2,1.7,0.4c0.5,0.2,1,0.4,1.9,0.4
		s1.4-0.2,1.9-0.4c0.4-0.2,0.8-0.3,1.4-0.3c0.1,0,0.2,0,0.2,0l0,0c-0.1,0-0.2,0-0.2,0C59.1,680.5,59.1,680.7,59.1,680.8z"/>
	<path class="st2" d="M61.3,643.6V665h10.6v-21.4H61.3z M61.8,664.5v-0.7c0.3-0.1,0.7-0.2,1.2-0.2c0.8,0,1.3,0.2,1.7,0.4
		c0.5,0.2,1,0.4,1.9,0.4s1.4-0.2,1.9-0.4c0.4-0.2,0.8-0.4,1.7-0.4c0.5,0,0.8,0.1,1.1,0.1v0.7H61.8z M70.3,663c-1,0-1.4,0.2-1.9,0.4
		c-0.4,0.2-0.8,0.4-1.7,0.4s-1.3-0.2-1.7-0.4c-0.5-0.2-1-0.4-1.9-0.4c-0.5,0-0.9,0.1-1.2,0.2v-0.9c0.3-0.1,0.7-0.2,1.2-0.2
		c0.8,0,1.3,0.2,1.7,0.4c0.5,0.2,1,0.4,1.9,0.4s1.4-0.2,1.9-0.4c0.4-0.2,0.8-0.4,1.7-0.4c0.5,0,0.8,0.1,1.1,0.1v0.9
		C71.1,663.1,70.7,663,70.3,663z M70.3,661.5c-1,0-1.4,0.2-1.9,0.4c-0.4,0.2-0.8,0.4-1.7,0.4s-1.3-0.2-1.7-0.4
		c-0.5-0.2-1-0.4-1.9-0.4c-0.5,0-0.9,0.1-1.2,0.2v-0.9c0.3-0.1,0.7-0.2,1.2-0.2c0.8,0,1.3,0.2,1.7,0.4c0.5,0.2,1,0.4,1.9,0.4
		s1.4-0.2,1.9-0.4c0.4-0.2,0.8-0.4,1.7-0.4c0.5,0,0.8,0.1,1.1,0.1v0.9C71.1,661.5,70.7,661.5,70.3,661.5z M70.3,660
		c-1,0-1.4,0.2-1.9,0.4c-0.4,0.2-0.8,0.4-1.7,0.4s-1.3-0.2-1.7-0.4c-0.5-0.2-1-0.4-1.9-0.4c-0.5,0-0.9,0.1-1.2,0.2v-0.9
		c0.3-0.1,0.7-0.2,1.2-0.2c0.8,0,1.3,0.2,1.7,0.4c0.5,0.2,1,0.4,1.9,0.4s1.4-0.2,1.9-0.4c0.4-0.2,0.8-0.4,1.7-0.4
		c0.5,0,0.8,0.1,1.1,0.1v0.9C71.1,660,70.7,660,70.3,660z M70.3,658.5c-1,0-1.4,0.2-1.9,0.4c-0.4,0.2-0.8,0.4-1.7,0.4
		s-1.3-0.2-1.7-0.4c-0.5-0.2-1-0.4-1.9-0.4c-0.5,0-0.9,0.1-1.2,0.2v-0.9c0.3-0.1,0.7-0.2,1.2-0.2c0.8,0,1.3,0.2,1.7,0.4
		c0.5,0.2,1,0.4,1.9,0.4s1.4-0.2,1.9-0.4c0.4-0.2,0.8-0.4,1.7-0.4c0.5,0,0.8,0.1,1.1,0.1v0.9C71.1,658.5,70.7,658.5,70.3,658.5z
		 M70.3,657c-1,0-1.4,0.2-1.9,0.4c-0.4,0.2-0.8,0.4-1.7,0.4s-1.3-0.2-1.7-0.4c-0.5-0.2-1-0.4-1.9-0.4c-0.5,0-0.9,0.1-1.2,0.2v-0.9
		c0.3-0.1,0.7-0.2,1.2-0.2c0.8,0,1.3,0.2,1.7,0.4c0.5,0.2,1,0.4,1.9,0.4s1.4-0.2,1.9-0.4c0.4-0.2,0.8-0.4,1.7-0.4
		c0.5,0,0.8,0.1,1.1,0.1v0.9C71.1,657,70.7,657,70.3,657z M70.3,655.5c-1,0-1.4,0.2-1.9,0.4c-0.4,0.2-0.8,0.4-1.7,0.4
		s-1.3-0.2-1.7-0.4c-0.5-0.2-1-0.4-1.9-0.4c-0.5,0-0.9,0.1-1.2,0.2v-0.9c0.3-0.1,0.7-0.2,1.2-0.2c0.8,0,1.3,0.2,1.7,0.4
		c0.5,0.2,1,0.4,1.9,0.4s1.4-0.2,1.9-0.4c0.4-0.2,0.8-0.4,1.7-0.4c0.5,0,0.8,0.1,1.1,0.1v0.9C71.1,655.5,70.7,655.5,70.3,655.5z
		 M70.3,654c-1,0-1.4,0.2-1.9,0.4c-0.4,0.2-0.8,0.4-1.7,0.4s-1.3-0.2-1.7-0.4c-0.5-0.2-1-0.4-1.9-0.4c-0.5,0-0.9,0.1-1.2,0.2v-0.9
		c0.3-0.1,0.7-0.2,1.2-0.2c0.8,0,1.3,0.2,1.7,0.4c0.5,0.2,1,0.4,1.9,0.4s1.4-0.2,1.9-0.4c0.4-0.2,0.8-0.4,1.7-0.4
		c0.5,0,0.8,0.1,1.1,0.1v0.9C71.1,654,70.7,654,70.3,654z M70.3,652.5c-1,0-1.4,0.2-1.9,0.4c-0.4,0.2-0.8,0.4-1.7,0.4
		s-1.3-0.2-1.7-0.4c-0.5-0.2-1-0.4-1.9-0.4c-0.5,0-0.9,0.1-1.2,0.2v-0.9c0.3-0.1,0.7-0.2,1.2-0.2c0.8,0,1.3,0.2,1.7,0.4
		c0.5,0.2,1,0.4,1.9,0.4s1.4-0.2,1.9-0.4c0.4-0.2,0.8-0.4,1.7-0.4c0.5,0,0.8,0.1,1.1,0.1v0.9C71.1,652.5,70.7,652.5,70.3,652.5z
		 M70.3,651c-1,0-1.4,0.2-1.9,0.4c-0.4,0.2-0.8,0.4-1.7,0.4s-1.3-0.2-1.7-0.4c-0.5-0.2-1-0.4-1.9-0.4c-0.5,0-0.9,0.1-1.2,0.2v-0.9
		c0.3-0.1,0.7-0.2,1.2-0.2c0.8,0,1.3,0.2,1.7,0.4c0.5,0.2,1,0.4,1.9,0.4s1.4-0.2,1.9-0.4c0.4-0.2,0.8-0.4,1.7-0.4
		c0.5,0,0.8,0.1,1.1,0.1v0.9C71.1,651,70.7,651,70.3,651z M70.3,649.5c-1,0-1.4,0.2-1.9,0.4c-0.4,0.2-0.8,0.4-1.7,0.4
		s-1.3-0.2-1.7-0.4c-0.5-0.2-1-0.4-1.9-0.4c-0.5,0-0.9,0.1-1.2,0.2v-0.9c0.3-0.1,0.7-0.2,1.2-0.2c0.8,0,1.3,0.2,1.7,0.4
		c0.5,0.2,1,0.4,1.9,0.4s1.4-0.2,1.9-0.4c0.4-0.2,0.8-0.4,1.7-0.4c0.5,0,0.8,0.1,1.1,0.1v0.9C71.1,649.5,70.7,649.5,70.3,649.5z
		 M70.3,648c-1,0-1.4,0.2-1.9,0.4c-0.4,0.2-0.8,0.4-1.7,0.4s-1.3-0.2-1.7-0.4c-0.5-0.2-1-0.4-1.9-0.4c-0.5,0-0.9,0.1-1.2,0.2v-0.9
		c0.3-0.1,0.7-0.2,1.2-0.2c0.8,0,1.3,0.2,1.7,0.4c0.5,0.2,1,0.4,1.9,0.4s1.4-0.2,1.9-0.4c0.4-0.2,0.8-0.4,1.7-0.4
		c0.5,0,0.8,0.1,1.1,0.1v0.9C71.1,648,70.7,648,70.3,648z M70.3,646.5c-1,0-1.4,0.2-1.9,0.4c-0.4,0.2-0.8,0.4-1.7,0.4
		s-1.3-0.2-1.7-0.4c-0.5-0.2-1-0.4-1.9-0.4c-0.5,0-0.9,0.1-1.2,0.2v-0.9c0.3-0.1,0.7-0.2,1.2-0.2c0.8,0,1.3,0.2,1.7,0.4
		c0.5,0.2,1,0.4,1.9,0.4s1.4-0.2,1.9-0.4c0.4-0.2,0.8-0.4,1.7-0.4c0.5,0,0.8,0.1,1.1,0.1v0.9C71.1,646.5,70.7,646.5,70.3,646.5z
		 M70.3,645c-1,0-1.4,0.2-1.9,0.4c-0.4,0.2-0.8,0.4-1.7,0.4s-1.3-0.2-1.7-0.4c-0.5-0.2-1-0.4-1.9-0.4c-0.5,0-0.9,0.1-1.2,0.2v-0.9
		c0.3-0.1,0.6-0.2,1.1-0.2h0.2c0.8,0,1.2,0.2,1.6,0.3c0.5,0.2,1,0.4,1.9,0.4s1.4-0.2,1.9-0.4c0.4-0.2,0.8-0.3,1.6-0.3h0.2
		c0.4,0,0.7,0.1,1,0.1v0.9C71.1,645,70.7,645,70.3,645z M65.5,644.1h2.2c-0.3,0.1-0.6,0.1-1.1,0.1S65.8,644.2,65.5,644.1z"/>
	<path class="st3" d="M55.7,79.7v-1c0.3,0.2,0.6,0.3,0.9,0.3c0.3,0,0.5-0.1,0.5-0.5v0c0-0.3-0.1-0.4-0.5-1c-0.7-0.8-0.9-1.1-0.9-1.8
		v0c0-0.9,0.6-1.5,1.4-1.5c0.4,0,0.6,0.1,0.9,0.2v1c-0.3-0.2-0.5-0.3-0.7-0.3c-0.3,0-0.5,0.2-0.5,0.5v0c0,0.3,0.1,0.4,0.5,0.9
		c0.8,0.9,0.9,1.2,0.9,1.9v0c0,0.9-0.6,1.5-1.4,1.5C56.3,79.9,55.9,79.8,55.7,79.7z M58.4,78.3v-4h1v4.1c0,0.5,0.2,0.7,0.4,0.7
		s0.4-0.2,0.4-0.7v-4.1h1v4c0,1.2-0.6,1.7-1.4,1.7C59,80,58.4,79.4,58.4,78.3z M61.7,74.3h0.9l1,2.8v-2.8h1v5.6h-0.9l-1-3v3h-1
		C61.7,79.9,61.7,74.3,61.7,74.3z M66.4,74.3h0.9c1.2,0,2,0.9,2,2.7v0.2c0,1.8-0.7,2.7-2,2.7h-0.9V74.3z M67.4,79
		c0.5,0,0.9-0.4,0.9-1.8V77c0-1.4-0.4-1.8-0.9-1.8h0L67.4,79L67.4,79z M69.8,74.3h2.1v0.9h-1.2v1.4h1v0.9h-1V79h1.2v0.9h-2.2V74.3z
		 M72.2,77.2V77c0-2,0.7-2.7,1.6-2.7c0.3,0,0.4,0,0.6,0.1v1c-0.2-0.1-0.4-0.2-0.5-0.2c-0.4,0-0.7,0.4-0.7,1.8v0.2
		c0,1.5,0.3,1.8,0.8,1.8c0.2,0,0.3-0.1,0.5-0.2v1c-0.2,0.1-0.4,0.2-0.7,0.2C72.9,79.9,72.2,79.2,72.2,77.2z M75,74.3h1v2.3l0.8-2.3
		h1.1l-0.9,2.4l1,3.2h-1.1l-0.6-2.1L76,78.4v1.5h-1L75,74.3L75,74.3z"/>
	<path class="st3" d="M52.5,668.5v0.7h-0.9v-2.4h0.9v0.7h4.7v1L52.5,668.5L52.5,668.5z M51.6,666.4v-1h2.3v-0.8h-2.3v-1h5.6v1h-2.4
		v0.8h2.4v1H51.6z M51.6,663.1v-2.1h0.9v1.2h1.4v-1h0.9v1h1.4v-1.2h0.9v2.2H51.6z M51.6,659.2v-1h2.3v-0.8h-2.3v-1h5.6v1h-2.4v0.8
		h2.4v1H51.6z M51.5,655v-1l5.6-1.1v1l-1.1,0.2v0.9l1.1,0.2v0.9L51.5,655z M55.2,654.2l-1.8,0.3l1.8,0.3V654.2z M51.6,653v-1
		l3.6-0.5l-3.6-0.5v-1l5.6,1v1L51.6,653z M51.6,649.7v-2.1h0.9v1.2h1.4v-1h0.9v1h1.4v-1.2h0.9v2.2L51.6,649.7L51.6,649.7z M51.6,647
		v-0.9l2.8-1h-2.8v-1h5.6v0.9l-3,1h3v1H51.6z M54.5,642.4h-0.2c-2,0-2.7-0.7-2.7-1.6c0-0.3,0-0.4,0.1-0.6h1
		c-0.1,0.2-0.2,0.4-0.2,0.5c0,0.4,0.4,0.7,1.8,0.7h0.2c1.5,0,1.8-0.3,1.8-0.8c0-0.2-0.1-0.3-0.2-0.5h1c0.1,0.2,0.2,0.4,0.2,0.7
		C57.2,641.7,56.4,642.4,54.5,642.4z M54.5,639.9h-0.3c-1.8,0-2.7-0.6-2.7-1.5s0.9-1.5,2.7-1.5h0.3c1.8,0,2.7,0.6,2.7,1.5
		S56.3,639.9,54.5,639.9z M54.5,637.9h-0.3c-1.4,0-1.8,0.2-1.8,0.5s0.4,0.5,1.8,0.5h0.3c1.4,0,1.8-0.2,1.8-0.5
		S55.9,637.9,54.5,637.9z M55.5,636.5h-4v-1h4.1c0.5,0,0.7-0.2,0.7-0.4s-0.2-0.4-0.7-0.4h-4.1v-1h4c1.2,0,1.7,0.6,1.7,1.4
		S56.7,636.5,55.5,636.5z M51.6,633.1v-1c0-1,0.5-1.7,1.8-1.7h0.1c0.7,0,1.2,0.3,1.5,0.7l2.3-0.8v1l-2,0.6v0.2h2v1L51.6,633.1
		L51.6,633.1z M54.3,632.1c0-0.4-0.2-0.7-0.9-0.7h-0.1c-0.7,0-0.9,0.3-0.9,0.8v0L54.3,632.1L54.3,632.1z M52.5,629.5v0.7h-0.9v-2.4
		h0.9v0.7h4.7v1L52.5,629.5L52.5,629.5z M55,626.8l-3.4,1v-1l2.1-0.5l-2.1-0.5v-1l3.4,1h2.2v1L55,626.8L55,626.8z M51.5,624v-1
		l5.6-1.1v1l-1.1,0.2v0.9l1.1,0.2v0.9L51.5,624z M55.2,623.2l-1.8,0.3l1.8,0.3V623.2z M51.6,621.6v-1c0-1,0.5-1.7,1.8-1.7h0.1
		c0.7,0,1.2,0.3,1.5,0.7l2.3-0.8v1l-2,0.6v0.2h2v1L51.6,621.6L51.6,621.6z M54.3,620.6c0-0.4-0.2-0.7-0.9-0.7h-0.1
		c-0.7,0-0.9,0.3-0.9,0.8v0L54.3,620.6L54.3,620.6z M51.6,618.4v-0.9c0-1.2,0.9-2,2.7-2h0.2c1.8,0,2.7,0.7,2.7,2v0.9H51.6z
		 M56.3,617.4c0-0.5-0.4-0.9-1.8-0.9h-0.2c-1.4,0-1.8,0.4-1.8,0.9v0L56.3,617.4L56.3,617.4z"/>
	<path class="st3" d="M76,692.5h1c1,0,1.7,0.5,1.7,1.8v0.1c0,0.7-0.3,1.2-0.7,1.5l0.8,2.3h-1l-0.6-2H77v2h-1
		C76,698.1,76,692.5,76,692.5z M77,695.3c0.4,0,0.7-0.2,0.7-0.9v-0.1c0-0.7-0.3-0.9-0.8-0.9h0L77,695.3L77,695.3z M79.2,692.5h1
		c1,0,1.7,0.5,1.7,1.8v0.1c0,0.7-0.3,1.2-0.7,1.5l0.8,2.3h-1l-0.6-2h-0.2v2h-1V692.5z M80.2,695.3c0.4,0,0.7-0.2,0.7-0.9v-0.1
		c0-0.7-0.3-0.9-0.8-0.9h0L80.2,695.3L80.2,695.3z"/>
	<path class="st3" d="M51.4,692.5h1c1,0,1.7,0.5,1.7,1.8v0.1c0,0.7-0.3,1.2-0.7,1.5l0.8,2.3h-1l-0.6-2h-0.2v2h-1L51.4,692.5
		L51.4,692.5z M52.4,695.3c0.4,0,0.7-0.2,0.7-0.9v-0.1c0-0.7-0.3-0.9-0.8-0.9h0L52.4,695.3L52.4,695.3z M54.5,692.5h1
		c1,0,1.7,0.5,1.7,1.8v0.1c0,0.7-0.3,1.2-0.7,1.5l0.8,2.3h-1l-0.6-2h-0.2v2h-1L54.5,692.5L54.5,692.5z M55.6,695.3
		c0.4,0,0.7-0.2,0.7-0.9v-0.1c0-0.7-0.3-0.9-0.8-0.9h0L55.6,695.3L55.6,695.3z"/>
</g>
<g id="JADE_DECK_14_ROOMS">
	<g id="gDeck14Haven3BedroomGardenVillaH1">
		<g id="hDeck14Haven3BedroomGardenVillaH1">
			<g id="g14500">
				<g id="h14500">
					<path id="b14500" class="st4" d="M42.6,560.4h-9.6l0-21h9.7L42.6,560.4L42.6,560.4z M1.3,586.8h8.7v-17H1.3v35.9h8.8v-18.9
						L1.3,586.8L1.3,586.8z M42.6,539.4h-9.7v0L42.6,539.4L42.6,539.4z M45.6,539.4L45.6,539.4l-3.1,0v0H45.6z M32.9,568.2l0-7.8
						l0,0l0,9.5h-0.3h0.3v17h-0.1h-5H10.1v18.9h27.8v-18.9h-4.9L32.9,568.2L32.9,568.2z M32.9,586.8v-17H10.1v17H32.9z M52.4,483.6
						c-18,1.9-30.6,7.2-38.8,12.1l10.2,16.8l-10.2-16.8c-8.5,5.1-12.3,9.9-12.3,9.9v64.3h8.8v-0.2v0.2h22.8l0-9.5l0,0l0-21H1.4h31.5
						v0h9.7h3.1v-11.3h-3.8v-3.4c0,0-0.2-1.3-1.3-1.2c-0.1,0-0.2,0-0.3,0.1l0.1,0.1l-0.1-0.1c-0.5,0.2-0.8,1-0.8,1h-4.6
						c0.1-0.6,0.2-1.1,0.4-1.7l-0.1,0l0.1,0c0.6-1.3,1.6-2.4,2.9-3l0-0.1l0,0.1c0.7-0.3,1.5-0.5,2.4-0.5c1.9,0,3.5,0.9,4.5,2.2
						c0.3,0.3,0.5,0.9,0.6,1.4v-10.5H1.5h44.2v10.5c0.1,0.5,0.1,0.9,0.1,0.9l0,4.2h-0.1v11.3h6.8l0-0.2V521l13-0.1v-37v37h0
						l0.1-37.5L52.4,483.6z M52.4,539.2l0,0.2h0.1v-18.2h12.9v-0.2l-13,0.1L52.4,539.2L52.4,539.2z M45.6,539.4h-3.1v21h-9.6l0,7.8
						v18.6h4.9v-0.2l0-26.2h14.8l-0.3-21.1L45.6,539.4L45.6,539.4z M45.8,523.9c0,0,0-0.4-0.1-0.9v5.1h0.1L45.8,523.9z M38.2,520
						l2,3.7c-0.5,0.2-0.8,1-0.8,1h-4.6c0.1-0.6,0.2-1.1,0.4-1.7l4.2,1.4l-4.2-1.4C35.9,521.6,36.9,520.6,38.2,520z M36.6,521.1
						l3.1,2.8L36.6,521.1z M45.6,523.1v5.1h-3.8v-3.4c0,0-0.2-1.3-1.3-1.2c-0.1,0-0.2,0-0.3,0.1l-2-3.7c0.7-0.3,1.5-0.5,2.4-0.5
						c1.9,0,3.5,0.9,4.5,2.2C45.4,522,45.5,522.6,45.6,523.1z M40.3,519.7l0.4,3.8L40.3,519.7z M41.1,523.5l1.4-3.5L41.1,523.5z
						 M41.5,523.8l2.7-2.8L41.5,523.8z M45.2,522.4l-3.4,1.6L45.2,522.4z M45.5,524.6h-3.7H45.5z M41.8,526.9h3.7H41.8z M41.8,525.7
						h3.7H41.8z"/>
					<path id="t14500GardenVillaHotTub" class="st3" d="M12.9,518.4v-0.2c0-1.8,0.8-2.7,1.9-2.7c0.3,0,0.5,0.1,0.7,0.2v1
						c-0.2-0.1-0.5-0.2-0.7-0.2c-0.6,0-0.9,0.6-0.9,1.8v0.3c0,1.5,0.4,1.8,0.8,1.8c0,0,0,0,0.1,0v-1.4h-0.5v-0.9h1.4v3
						c-0.4,0.2-0.6,0.2-1,0.2C13.7,521.1,12.9,520.3,12.9,518.4z M17,515.4h1l1.1,5.6h-1l-0.2-1.1h-0.9l-0.2,1.1h-0.9L17,515.4z
						 M17.8,519.1l-0.3-1.8l-0.3,1.8H17.8z M19.4,515.5h1c1,0,1.7,0.5,1.7,1.8v0.1c0,0.7-0.3,1.2-0.7,1.5l0.8,2.3h-1l-0.6-2h-0.2v2
						h-1L19.4,515.5L19.4,515.5z M20.4,518.2c0.4,0,0.7-0.2,0.7-0.9v-0.1c0-0.7-0.3-0.9-0.8-0.9h0L20.4,518.2L20.4,518.2z
						 M22.6,515.5h0.9c1.2,0,2,0.9,2,2.7v0.2c0,1.8-0.7,2.7-2,2.7h-0.9V515.5z M23.6,520.2c0.5,0,0.9-0.4,0.9-1.8v-0.2
						c0-1.4-0.4-1.8-0.9-1.8h0L23.6,520.2L23.6,520.2z M25.9,515.5h2.1v0.9h-1.2v1.4h1v0.9h-1v1.4h1.2v0.9h-2.2V515.5z M28.6,515.5
						h0.9l1,2.8v-2.8h1v5.6h-0.9l-1-3v3h-1C28.6,521.1,28.6,515.5,28.6,515.5z M15.9,523.5h1l0.5,3.6l0.5-3.6h1l-1,5.6h-1
						L15.9,523.5z M19.3,523.5h1v5.6h-1V523.5z M20.8,523.5h1v4.7h1v0.9h-2L20.8,523.5L20.8,523.5z M23.2,523.5h1v4.7h1v0.9h-2
						L23.2,523.5L23.2,523.5z M26.4,523.4h1l1.1,5.6h-1l-0.2-1.1h-0.9l-0.2,1.1h-0.9L26.4,523.4z M27.2,527.1l-0.3-1.8l-0.3,1.8
						H27.2z M12.7,531.5h1v2.3h0.8v-2.3h1v5.6h-1v-2.4h-0.8v2.4h-1V531.5z M16,534.4v-0.3c0-1.8,0.6-2.7,1.5-2.7s1.5,0.9,1.5,2.7
						v0.3c0,1.8-0.6,2.7-1.5,2.7C16.6,537.1,16,536.2,16,534.4z M18,534.4v-0.3c0-1.4-0.2-1.8-0.5-1.8s-0.5,0.4-0.5,1.8v0.3
						c0,1.4,0.2,1.8,0.5,1.8S18,535.8,18,534.4z M19.8,532.4h-0.7v-0.9h2.4v0.9h-0.7v4.7h-1V532.4z M23.7,532.4H23v-0.9h2.4v0.9
						h-0.7v4.7h-1L23.7,532.4L23.7,532.4z M25.8,535.4v-4h1v4.1c0,0.5,0.2,0.7,0.4,0.7s0.4-0.2,0.4-0.7v-4.1h1v4
						c0,1.2-0.6,1.7-1.4,1.7C26.3,537.1,25.8,536.6,25.8,535.4z M29.1,531.5h0.8c0.9,0,1.8,0.4,1.8,1.4v0c0,0.7-0.4,1.1-0.8,1.3
						c0.5,0.2,0.9,0.5,0.9,1.2v0.1c0,1-0.8,1.6-1.9,1.6h-0.9V531.5z M30.1,533.8c0.4,0,0.7-0.2,0.7-0.7v0c0-0.5-0.3-0.7-0.7-0.7h0
						L30.1,533.8L30.1,533.8z M30.1,536.2c0.4,0,0.8-0.3,0.8-0.7v0c0-0.5-0.3-0.7-0.8-0.7h0L30.1,536.2L30.1,536.2L30.1,536.2z"/>
					<path id="p14500" class="st3" d="M8.8,522.5c-2.2,0-4,1.8-4,4s1.8,4,4,4s4-1.8,4-4S11.1,522.5,8.8,522.5z M7.5,522.9
						c0.1,0.1,0.3,0.1,0.5,0.1c0.3-0.1,0.5-0.1,0.8-0.1c0.3,0,0.6,0.1,0.9,0.1c0,0,0,0,0,0c-0.2,0-0.5,0.1-0.8,0.1c0,0,0,0,0,0
						s0,0,0,0c-0.4,0-0.7,0-0.9-0.1C7.8,523,7.7,523,7.5,522.9C7.5,522.9,7.5,522.9,7.5,522.9z M6,524c0.1,0,0.2,0,0.3,0.1
						c0.2-0.2,0.5-0.4,0.8-0.6c0,0-0.1,0-0.1-0.1c-0.1,0-0.1,0-0.2-0.1c0,0,0,0,0,0c0.1,0,0.1,0.1,0.2,0.1c0,0,0.1,0,0.1,0
						c0.4,0.2,0.9,0.3,1.8,0.4c0.8,0,1.3-0.1,1.7-0.3c0,0,0,0,0,0c0.3,0.2,0.5,0.4,0.8,0.6c0,0,0,0,0,0c-0.3,0.1-0.5,0.2-0.7,0.2
						c-0.4,0.2-0.8,0.4-1.7,0.4c0,0,0,0,0,0s0,0,0,0c-0.8,0-1.3-0.2-1.7-0.4c-0.3-0.1-0.6-0.2-0.9-0.3C6.2,524,6.2,524,6,524
						C6,524,6,524,6,524z M5.4,525.4c0.1,0,0.1,0,0.1,0c0.1-0.3,0.2-0.6,0.4-0.9c-0.1,0-0.2,0-0.3,0l0,0c0.1,0,0.2,0,0.3,0
						c0.5,0.1,0.8,0.2,1.1,0.3c0.5,0.2,1,0.4,1.9,0.4c1,0,1.4-0.2,1.9-0.4c0.3-0.1,0.5-0.2,0.9-0.3l0,0c0.2,0.3,0.3,0.6,0.4,0.9l0,0
						c-0.7,0-1.1,0.2-1.5,0.4c-0.4,0.2-0.8,0.4-1.7,0.4l0,0l0,0c-0.8,0-1.3-0.2-1.7-0.4c-0.4-0.2-0.9-0.4-1.8-0.4
						C5.5,525.4,5.4,525.4,5.4,525.4L5.4,525.4z M10.7,529.5c-0.5,0.3-1.2,0.5-1.8,0.5c-0.8,0-1.6-0.3-2.2-0.8
						c-0.1,0-0.3-0.1-0.5-0.1c0,0,0,0,0,0c0.2,0,0.3,0.1,0.5,0.1c0.2,0,0.3,0.1,0.4,0.2c0.5,0.2,1,0.4,1.9,0.4
						C9.9,529.8,10.3,529.6,10.7,529.5C10.7,529.4,10.7,529.4,10.7,529.5z M12.2,527.5c-0.1,0.3-0.3,0.7-0.5,0.9c0,0,0,0,0,0
						c-0.4,0.1-0.8,0.2-1.1,0.3c-0.4,0.2-0.8,0.4-1.7,0.4c0,0,0,0,0,0s0,0,0,0c-0.8,0-1.3-0.2-1.7-0.4c-0.4-0.2-0.8-0.3-1.3-0.4
						c-0.1,0-0.2,0-0.3,0l0,0c0.1,0,0.2,0,0.3,0c-0.2-0.3-0.3-0.6-0.4-0.9c0,0-0.1,0-0.1,0l0,0c0.1,0,0.1,0,0.1,0
						c0.7,0,1.1,0.2,1.6,0.3c0.5,0.2,1,0.4,1.9,0.4s1.4-0.2,1.9-0.4C11.2,527.7,11.6,527.6,12.2,527.5L12.2,527.5z M12.4,526.5
						c0,0.2,0,0.3,0,0.5l0,0c-0.8,0-1.2,0.2-1.7,0.4c-0.4,0.2-0.8,0.4-1.7,0.4l0,0l0,0c-0.8,0-1.3-0.2-1.7-0.4
						c-0.5-0.2-1-0.4-1.9-0.4c0,0,0,0,0,0c-0.1,0-0.2,0-0.2,0l0,0c0.1,0,0.2,0,0.2,0l0,0l0,0c0,0,0,0,0,0c0-0.1,0-0.3,0-0.4
						c0-0.2,0-0.3,0-0.5c0,0,0,0,0,0l0,0c0,0,0,0,0,0c0.8,0,1.2,0.2,1.7,0.4c0.5,0.2,1,0.4,1.9,0.4s1.4-0.2,1.9-0.4
						c0.4-0.2,0.8-0.3,1.4-0.3c0.1,0,0.2,0,0.2,0l0,0c-0.1,0-0.2,0-0.2,0C12.3,526.2,12.4,526.3,12.4,526.5z"/>
					<path id="t14500" class="st3" d="M38.6,497.5l0.3-0.5h0.9v4.1h-0.5v-3.7H38.6z M43.7,500.1v0.5h-0.5v0.6h-0.5v-0.6h-2l2.5-3.7
						v3.3H43.7z M42.8,498.4L42.8,498.4l-1.2,1.7h1.2V498.4z M45.5,497.5l-0.3,0.9l0.3,0c0.8,0,1.3,0.7,1.3,1.4
						c0,0.9-0.7,1.5-1.5,1.5c-0.5,0-1-0.3-1.2-0.7l0.4-0.4c0.1,0.4,0.5,0.6,0.9,0.6c0.5,0,1-0.5,1-1c0-0.5-0.4-1-1-1
						c-0.3,0-0.6,0.1-0.8,0.4h-0.1l0.6-2.1h1.6v0.5L45.5,497.5L45.5,497.5z M47.3,499.1c0-0.9,0.4-2.2,1.4-2.2s1.4,1.3,1.4,2.2
						c0,0.8-0.4,2.2-1.4,2.2S47.3,499.9,47.3,499.1z M47.8,499c0,0.6,0.2,1.7,0.9,1.7c0.7,0,0.9-1.1,0.9-1.7s-0.2-1.7-0.9-1.7
						C48,497.3,47.8,498.5,47.8,499z M50.6,499.1c0-0.9,0.4-2.2,1.4-2.2s1.4,1.3,1.4,2.2c0,0.8-0.4,2.2-1.4,2.2
						S50.6,499.9,50.6,499.1z M51.1,499c0,0.6,0.2,1.7,0.9,1.7s0.9-1.1,0.9-1.7s-0.2-1.7-0.9-1.7S51.1,498.5,51.1,499z"/>
				</g>
			</g>
			<g id="g14000">
				<g id="h14000">
					<path id="b14000" class="st4" d="M87.5,539.4L87.5,539.4l12.8,0v0H87.5z M100.4,539.4H87.5v0h-6.7l-0.3,21.1h14.8l0,26.2v0.2h5
						L100.4,539.4L100.4,539.4z M100.4,586.8h-5v18.9h27.7v-18.9H100.4z M119.6,495.7l-10.3,16.8L119.6,495.7
						c-8.2-4.9-20.8-10.2-38.7-12l-13.2-0.2v0.1l13.5,0.2l-13.5-0.2l0.1,37.4l13,0.1v18.1l0,0.2h6.7v-11.3h-0.1l0-4.2
						c0,0,0-0.4,0.1-0.9v-10.5h44.3H87.5v10.5c0.1-0.5,0.3-1.1,0.6-1.4c1-1.4,2.6-2.2,4.5-2.2c0.9,0,1.7,0.2,2.4,0.5l0-0.1l0,0.1
						c1.3,0.6,2.3,1.7,2.9,3l0.1,0l-0.1,0c0.2,0.5,0.4,1.1,0.4,1.7h-4.6c0,0-0.3-0.7-0.8-1l-0.1,0.1l0.1-0.1c-0.1,0-0.2-0.1-0.3-0.1
						c-1.1-0.1-1.3,1.2-1.3,1.2v3.4h-3.8v11.3h12.8v0h31.4h-31.4v47.4h22.7v-17h-22.5h22.5v-0.2v0.2h8.8h-8.8v17h8.7h-8.7v18.9h8.9
						V505.6C132,505.6,128.2,500.8,119.6,495.7z M87.4,523.9l0,4.2h0.1v-5.1C87.4,523.5,87.4,523.9,87.4,523.9z M91.4,528.1h-3.8
						v-5.1c0.1-0.5,0.3-1.1,0.6-1.4c1-1.4,2.6-2.2,4.5-2.2c0.9,0,1.7,0.2,2.4,0.5l-2,3.7c-0.1,0-0.2-0.1-0.3-0.1
						c-1.1-0.1-1.3,1.2-1.3,1.2L91.4,528.1L91.4,528.1L91.4,528.1z M92.8,519.7l-0.4,3.8L92.8,519.7z M92.1,523.5l-1.4-3.5
						L92.1,523.5z M91.6,523.8l-2.7-2.8L91.6,523.8z M87.7,526.9h3.7H87.7z M87.7,525.7h3.7H87.7z M87.7,524.6h3.7H87.7z
						 M87.9,522.4l3.4,1.6L87.9,522.4z M92.9,523.6l2-3.7c1.3,0.6,2.3,1.7,2.9,3l-4.2,1.4l4.2-1.4c0.2,0.5,0.4,1.1,0.4,1.7h-4.6
						C93.8,524.6,93.5,523.9,92.9,523.6z M96.6,521.1l-3.1,2.8L96.6,521.1z"/>
					<path id="t14000GardenVillaHotTub" class="st3" d="M100.3,518.4v-0.2c0-1.8,0.8-2.7,1.9-2.7c0.3,0,0.5,0.1,0.7,0.2v1
						c-0.2-0.1-0.5-0.2-0.7-0.2c-0.6,0-0.9,0.6-0.9,1.8v0.3c0,1.5,0.4,1.8,0.8,1.8c0,0,0,0,0.1,0v-1.4h-0.5v-0.9h1.4v3
						c-0.4,0.2-0.6,0.2-1,0.2C101.2,521.1,100.3,520.3,100.3,518.4z M104.5,515.4h1l1.1,5.6h-1l-0.2-1.1h-0.9l-0.2,1.1h-0.9
						L104.5,515.4z M105.3,519.1l-0.3-1.8l-0.3,1.8H105.3z M106.9,515.5h1c1,0,1.7,0.5,1.7,1.8v0.1c0,0.7-0.3,1.2-0.7,1.5l0.8,2.3
						h-1l-0.6-2h-0.2v2h-1C106.9,521.1,106.9,515.5,106.9,515.5z M107.9,518.2c0.4,0,0.7-0.2,0.7-0.9v-0.1c0-0.7-0.3-0.9-0.8-0.9h0
						L107.9,518.2L107.9,518.2z M110.1,515.5h0.9c1.2,0,2,0.9,2,2.7v0.2c0,1.8-0.7,2.7-2,2.7h-0.9V515.5z M111.1,520.2
						c0.5,0,0.9-0.4,0.9-1.8v-0.2c0-1.4-0.4-1.8-0.9-1.8h0L111.1,520.2L111.1,520.2z M113.4,515.5h2.1v0.9h-1.2v1.4h1v0.9h-1v1.4
						h1.2v0.9h-2.2V515.5z M116,515.5h0.9l1,2.8v-2.8h1v5.6H118l-1-3v3h-1L116,515.5L116,515.5z M103.4,523.5h1l0.5,3.6l0.5-3.6h1
						l-1,5.6h-1L103.4,523.5z M106.7,523.5h1v5.6h-1V523.5z M108.3,523.5h1v4.7h1v0.9h-2V523.5z M110.7,523.5h1v4.7h1v0.9h-2
						C110.7,529.1,110.7,523.5,110.7,523.5z M113.8,523.4h1l1.1,5.6h-1l-0.2-1.1h-0.9l-0.2,1.1h-0.9L113.8,523.4z M114.6,527.1
						l-0.3-1.8l-0.3,1.8H114.6z M100.2,531.5h1v2.3h0.8v-2.3h1v5.6h-1v-2.4h-0.8v2.4h-1V531.5z M103.5,534.4v-0.3
						c0-1.8,0.6-2.7,1.5-2.7c0.9,0,1.5,0.9,1.5,2.7v0.3c0,1.8-0.6,2.7-1.5,2.7S103.5,536.2,103.5,534.4z M105.5,534.4v-0.3
						c0-1.4-0.2-1.8-0.5-1.8s-0.5,0.4-0.5,1.8v0.3c0,1.4,0.2,1.8,0.5,1.8S105.5,535.8,105.5,534.4z M107.3,532.4h-0.7v-0.9h2.4v0.9
						h-0.7v4.7h-1L107.3,532.4L107.3,532.4z M111.2,532.4h-0.7v-0.9h2.4v0.9h-0.7v4.7h-1L111.2,532.4L111.2,532.4z M113.2,535.4v-4
						h1v4.1c0,0.5,0.2,0.7,0.4,0.7c0.2,0,0.4-0.2,0.4-0.7v-4.1h1v4c0,1.2-0.6,1.7-1.4,1.7C113.8,537.1,113.2,536.6,113.2,535.4z
						 M116.6,531.5h0.8c0.9,0,1.8,0.4,1.8,1.4v0c0,0.7-0.4,1.1-0.8,1.3c0.5,0.2,0.9,0.5,0.9,1.2v0.1c0,1-0.8,1.6-1.9,1.6h-0.9V531.5
						z M117.6,533.8c0.4,0,0.7-0.2,0.7-0.7v0c0-0.5-0.3-0.7-0.7-0.7h0L117.6,533.8L117.6,533.8z M117.6,536.2c0.4,0,0.8-0.3,0.8-0.7
						v0c0-0.5-0.3-0.7-0.8-0.7h0L117.6,536.2L117.6,536.2L117.6,536.2z"/>
					<path id="p14000" class="st3" d="M124.7,522.5c-2.2,0-4,1.8-4,4s1.8,4,4,4s4-1.8,4-4S127,522.5,124.7,522.5z M123.4,522.9
						c0.1,0.1,0.3,0.1,0.5,0.1c0.3-0.1,0.5-0.1,0.8-0.1c0.3,0,0.6,0.1,0.9,0.1c0,0,0,0,0,0c-0.2,0-0.5,0.1-0.8,0.1c0,0,0,0,0,0
						s0,0,0,0c-0.4,0-0.7,0-0.9-0.1C123.7,523,123.6,523,123.4,522.9C123.4,522.9,123.4,522.9,123.4,522.9z M121.9,524
						c0.1,0,0.2,0,0.3,0.1c0.2-0.2,0.5-0.4,0.8-0.6c0,0-0.1,0-0.1-0.1c-0.1,0-0.1,0-0.2-0.1c0,0,0,0,0,0c0.1,0,0.1,0.1,0.2,0.1
						c0,0,0.1,0,0.1,0c0.4,0.2,0.9,0.3,1.8,0.4c0.8,0,1.3-0.1,1.7-0.3c0,0,0,0,0,0c0.3,0.2,0.5,0.4,0.8,0.6c0,0,0,0,0,0
						c-0.3,0.1-0.5,0.2-0.7,0.2c-0.4,0.2-0.8,0.4-1.7,0.4c0,0,0,0,0,0s0,0,0,0c-0.8,0-1.3-0.2-1.7-0.4c-0.3-0.1-0.6-0.2-0.9-0.3
						C122.1,524,122,524,121.9,524C121.9,524,121.9,524,121.9,524z M121.3,525.4c0.1,0,0.1,0,0.1,0c0.1-0.3,0.2-0.6,0.4-0.9
						c-0.1,0-0.2,0-0.3,0l0,0c0.1,0,0.2,0,0.3,0c0.5,0.1,0.8,0.2,1.1,0.3c0.5,0.2,1,0.4,1.9,0.4c1,0,1.4-0.2,1.9-0.4
						c0.3-0.1,0.5-0.2,0.9-0.3l0,0c0.2,0.3,0.3,0.6,0.4,0.9l0,0c-0.7,0-1.1,0.2-1.5,0.4c-0.4,0.2-0.8,0.4-1.7,0.4l0,0l0,0
						c-0.8,0-1.3-0.2-1.7-0.4c-0.4-0.2-0.9-0.4-1.8-0.4C121.3,525.4,121.3,525.4,121.3,525.4L121.3,525.4z M126.6,529.5
						c-0.5,0.3-1.2,0.5-1.8,0.5c-0.8,0-1.6-0.3-2.2-0.8c-0.1,0-0.3-0.1-0.5-0.1c0,0,0,0,0,0c0.2,0,0.3,0.1,0.5,0.1
						c0.2,0,0.3,0.1,0.4,0.2c0.5,0.2,1,0.4,1.9,0.4C125.7,529.8,126.2,529.6,126.6,529.5C126.6,529.4,126.6,529.4,126.6,529.5z
						 M128.1,527.5c-0.1,0.3-0.3,0.7-0.5,0.9c0,0,0,0,0,0c-0.4,0.1-0.8,0.2-1.1,0.3c-0.4,0.2-0.8,0.4-1.7,0.4c0,0,0,0,0,0s0,0,0,0
						c-0.8,0-1.3-0.2-1.7-0.4c-0.4-0.2-0.8-0.3-1.3-0.4c-0.1,0-0.2,0-0.3,0l0,0c0.1,0,0.2,0,0.3,0c-0.2-0.3-0.3-0.6-0.4-0.9
						c0,0-0.1,0-0.1,0l0,0c0.1,0,0.1,0,0.1,0c0.7,0,1.1,0.2,1.6,0.3c0.5,0.2,1,0.4,1.9,0.4s1.4-0.2,1.9-0.4
						C127.1,527.7,127.5,527.6,128.1,527.5L128.1,527.5z M128.3,526.5c0,0.2,0,0.3,0,0.5l0,0c-0.8,0-1.2,0.2-1.7,0.4
						c-0.4,0.2-0.8,0.4-1.7,0.4l0,0l0,0c-0.8,0-1.3-0.2-1.7-0.4c-0.5-0.2-1-0.4-1.9-0.4c0,0,0,0,0,0c-0.1,0-0.2,0-0.2,0l0,0
						c0.1,0,0.2,0,0.2,0l0,0l0,0c0,0,0,0,0,0c0-0.1,0-0.3,0-0.4c0-0.2,0-0.3,0-0.5c0,0,0,0,0,0l0,0c0,0,0,0,0,0
						c0.8,0,1.2,0.2,1.7,0.4c0.5,0.2,1,0.4,1.9,0.4s1.4-0.2,1.9-0.4c0.4-0.2,0.8-0.3,1.4-0.3c0.1,0,0.2,0,0.2,0l0,0
						c-0.1,0-0.2,0-0.2,0C128.2,526.2,128.3,526.3,128.3,526.5z"/>
					<path id="t14000" class="st3" d="M79.9,497.5l0.3-0.5h0.9v4.1h-0.5v-3.7H79.9z M85,500.1v0.5h-0.5v0.6h-0.5v-0.6h-2l2.5-3.7
						v3.3H85z M84.1,498.4L84.1,498.4l-1.2,1.7h1.2V498.4z M85.4,499.1c0-0.9,0.4-2.2,1.4-2.2c1.1,0,1.4,1.3,1.4,2.2
						c0,0.8-0.4,2.2-1.4,2.2S85.4,499.9,85.4,499.1z M85.9,499c0,0.6,0.2,1.7,0.9,1.7s0.9-1.1,0.9-1.7s-0.2-1.7-0.9-1.7
						S85.9,498.5,85.9,499z M88.7,499.1c0-0.9,0.4-2.2,1.4-2.2c1.1,0,1.4,1.3,1.4,2.2c0,0.8-0.4,2.2-1.4,2.2S88.7,499.9,88.7,499.1z
						 M89.2,499c0,0.6,0.2,1.7,0.9,1.7c0.7,0,0.9-1.1,0.9-1.7s-0.2-1.7-0.9-1.7C89.4,497.3,89.2,498.5,89.2,499z M92,499.1
						c0-0.9,0.4-2.2,1.4-2.2c1.1,0,1.4,1.3,1.4,2.2c0,0.8-0.4,2.2-1.4,2.2S92,499.9,92,499.1z M92.5,499c0,0.6,0.2,1.7,0.9,1.7
						c0.7,0,0.9-1.1,0.9-1.7s-0.2-1.7-0.9-1.7C92.7,497.3,92.5,498.5,92.5,499z"/>
				</g>
			</g>
		</g>
	</g>
	<g id="gDeck14HavenCourtyardPenthouseBalconyHF">
		<g id="hDeck14HavenCourtyardPenthouseBalconyHF">
			<g id="g14514">
				<g id="h14514">
					<path id="b14514" class="st4" d="M31.6,698.4v23.7H1.4v-11h5.2v-12.7L31.6,698.4L31.6,698.4z M6.7,698.4H1.4v12.7h5.2V698.4z"
						/>
					<path id="t14514" class="st3" d="M10.6,708.2l0.3-0.5h0.9v4.1h-0.5v-3.7L10.6,708.2L10.6,708.2z M15.7,710.8v0.5h-0.5v0.6h-0.5
						v-0.6h-2l2.5-3.7v3.3H15.7z M14.7,709.1L14.7,709.1l-1.2,1.7h1.2L14.7,709.1L14.7,709.1z M17.5,708.2l-0.3,0.9l0.3,0
						c0.8,0,1.3,0.7,1.3,1.4c0,0.9-0.7,1.5-1.5,1.5c-0.5,0-1-0.3-1.2-0.7l0.4-0.4c0.1,0.4,0.5,0.6,0.9,0.6c0.5,0,1-0.5,1-1
						c0-0.5-0.4-1-1-1c-0.3,0-0.6,0.1-0.8,0.4h-0.1l0.6-2.1h1.6v0.5L17.5,708.2L17.5,708.2z M19.5,708.2l0.3-0.5h0.9v4.1h-0.5v-3.7
						L19.5,708.2L19.5,708.2z M24.7,710.8v0.5h-0.5v0.6h-0.5v-0.6h-2l2.5-3.7v3.3H24.7z M23.7,709.1L23.7,709.1l-1.2,1.7h1.2V709.1z
						"/>
				</g>
			</g>
			<g id="g14014">
				<g id="h14014">
					<path id="b14014" class="st4" d="M126.5,711.1h5.2v11h-30.2v-23.7h25L126.5,711.1L126.5,711.1z M126.5,698.4v12.7h5.2v-12.7
						H126.5z"/>
					<path id="t14014" class="st3" d="M109.2,708.2l0.3-0.5h0.9v4.1h-0.5v-3.7L109.2,708.2L109.2,708.2z M114.3,710.8v0.5h-0.5v0.6
						h-0.5v-0.6h-2l2.5-3.7v3.3H114.3z M113.4,709.1L113.4,709.1l-1.2,1.7h1.2L113.4,709.1L113.4,709.1z M114.7,709.8
						c0-0.9,0.4-2.2,1.4-2.2c1.1,0,1.4,1.3,1.4,2.2c0,0.8-0.4,2.2-1.4,2.2S114.7,710.6,114.7,709.8z M115.2,709.8
						c0,0.6,0.2,1.7,0.9,1.7c0.7,0,0.9-1.1,0.9-1.7s-0.2-1.7-0.9-1.7C115.4,708,115.2,709.2,115.2,709.8z M118,708.2l0.3-0.5h0.9
						v4.1h-0.5v-3.7L118,708.2L118,708.2z M123.2,710.8v0.5h-0.5v0.6h-0.5v-0.6h-2l2.5-3.7v3.3H123.2z M122.2,709.1L122.2,709.1
						l-1.2,1.7h1.2V709.1z"/>
				</g>
			</g>
		</g>
	</g>
	<g id="gDeck14Haven2BedroomFamilyVillaBalconyH6">
		<g id="hDeck14Haven2BedroomFamilyVillaBalconyH6">
			<g id="g14006">
				<g id="h14006">
					<path id="b14006" class="st4" d="M131.8,605.8v11.6h-8.6v11.5H90.2v-23.1H131.8z M123.1,628.9h8.6v-11.5h-8.6V628.9z"/>
					<path id="t14006" class="st3" d="M101.2,616.2l0.3-0.5h0.9v4.1h-0.5v-3.7L101.2,616.2L101.2,616.2z M106.3,618.8v0.5h-0.5v0.6
						h-0.5v-0.6h-2l2.5-3.7v3.3H106.3z M105.3,617.1L105.3,617.1l-1.2,1.7h1.2L105.3,617.1L105.3,617.1z M106.7,617.8
						c0-0.9,0.4-2.2,1.4-2.2c1.1,0,1.4,1.3,1.4,2.2c0,0.8-0.4,2.2-1.4,2.2S106.7,618.6,106.7,617.8z M107.1,617.8
						c0,0.6,0.2,1.7,0.9,1.7c0.7,0,0.9-1.1,0.9-1.7s-0.2-1.7-0.9-1.7C107.3,616.1,107.1,617.2,107.1,617.8z M110,617.8
						c0-0.9,0.4-2.2,1.4-2.2c1.1,0,1.4,1.3,1.4,2.2c0,0.8-0.4,2.2-1.4,2.2S110,618.6,110,617.8z M110.4,617.8c0,0.6,0.2,1.7,0.9,1.7
						c0.7,0,0.9-1.1,0.9-1.7s-0.2-1.7-0.9-1.7C110.7,616.1,110.4,617.2,110.4,617.8z M115.4,615.9l-1.1,1.5l0,0
						c0.1-0.1,0.3-0.1,0.4-0.1c0.7,0,1.2,0.6,1.2,1.3c0,0.8-0.6,1.4-1.3,1.4c-0.7,0-1.4-0.6-1.4-1.3c0-0.4,0.2-0.8,0.4-1.1l1.4-1.9
						L115.4,615.9z M115.4,618.6c0-0.5-0.4-0.9-0.9-0.9c-0.4,0-0.9,0.4-0.9,0.9c0,0.5,0.4,0.9,0.9,0.9
						C115,619.5,115.4,619.1,115.4,618.6z"/>
				</g>
			</g>
			<g id="g14008">
				<g id="h14008">
					<path id="b14008" class="st4" d="M131.8,628.9v11.6h-8.6v11.5H90.2v-23.1H131.8z M123.1,652.1h8.6v-11.5h-8.6V652.1z"/>
					<path id="t14008" class="st3" d="M101.2,639.5l0.3-0.5h0.9v4.1h-0.5v-3.7H101.2z M106.3,642.1v0.5h-0.5v0.6h-0.5v-0.6h-2
						l2.5-3.7v3.3H106.3z M105.3,640.4L105.3,640.4l-1.2,1.7h1.2L105.3,640.4L105.3,640.4z M106.6,641.1c0-0.9,0.4-2.2,1.4-2.2
						c1.1,0,1.4,1.3,1.4,2.2c0,0.8-0.4,2.2-1.4,2.2S106.6,641.9,106.6,641.1z M107.1,641.1c0,0.6,0.2,1.7,0.9,1.7
						c0.7,0,0.9-1.1,0.9-1.7s-0.2-1.7-0.9-1.7C107.3,639.4,107.1,640.5,107.1,641.1z M109.9,641.1c0-0.9,0.4-2.2,1.4-2.2
						c1.1,0,1.4,1.3,1.4,2.2c0,0.8-0.4,2.2-1.4,2.2S109.9,641.9,109.9,641.1z M110.4,641.1c0,0.6,0.2,1.7,0.9,1.7
						c0.7,0,0.9-1.1,0.9-1.7s-0.2-1.7-0.9-1.7C110.6,639.4,110.4,640.5,110.4,641.1z M114,641c-0.3-0.2-0.5-0.5-0.5-0.9
						c0-0.7,0.5-1.2,1.2-1.2s1.2,0.5,1.2,1.2c0,0.4-0.2,0.7-0.5,0.9c0.4,0.1,0.6,0.5,0.6,1c0,0.8-0.6,1.2-1.3,1.2s-1.3-0.5-1.3-1.2
						C113.3,641.6,113.5,641.2,114,641z M113.8,642c0,0.4,0.4,0.8,0.8,0.8s0.8-0.4,0.8-0.8c0-0.4-0.4-0.8-0.8-0.8
						S113.8,641.6,113.8,642z M113.9,640.1c0,0.3,0.3,0.7,0.7,0.7c0.3,0,0.7-0.4,0.7-0.7c0-0.4-0.3-0.7-0.7-0.7
						S113.9,639.7,113.9,640.1z"/>
				</g>
			</g>
			<g id="g14010">
				<g id="h14010">
					<path id="b14010" class="st4" d="M131.8,652.1v11.6h-8.6v11.5H90.2v-23.1H131.8z M123.1,675.2h8.6v-11.5h-8.6V675.2z"/>
					<path id="t14010" class="st3" d="M101.6,662.3l0.3-0.5h0.9v4.1h-0.5v-3.7L101.6,662.3L101.6,662.3z M106.7,664.9v0.5h-0.5v0.6
						h-0.5v-0.6h-2l2.5-3.7v3.3H106.7z M105.7,663.2L105.7,663.2l-1.2,1.7h1.2L105.7,663.2L105.7,663.2z M107.1,663.9
						c0-0.9,0.4-2.2,1.4-2.2c1.1,0,1.4,1.3,1.4,2.2c0,0.8-0.4,2.2-1.4,2.2S107.1,664.7,107.1,663.9z M107.5,663.9
						c0,0.6,0.2,1.7,0.9,1.7c0.7,0,0.9-1.1,0.9-1.7s-0.2-1.7-0.9-1.7C107.7,662.1,107.5,663.3,107.5,663.9z M110.4,662.3l0.3-0.5
						h0.9v4.1h-0.5v-3.7L110.4,662.3L110.4,662.3z M112.8,663.9c0-0.9,0.4-2.2,1.4-2.2s1.4,1.3,1.4,2.2c0,0.8-0.4,2.2-1.4,2.2
						S112.8,664.7,112.8,663.9z M113.2,663.9c0,0.6,0.2,1.7,0.9,1.7s0.9-1.1,0.9-1.7s-0.2-1.7-0.9-1.7S113.2,663.3,113.2,663.9z"/>
				</g>
			</g>
			<g id="g14012">
				<g id="h14012">
					<path id="b14012" class="st4" d="M131.8,675.3v11.6h-8.6v11.5H90.2v-23.1H131.8z M123.1,698.4h8.6v-11.5h-8.6V698.4z"/>
					<path id="t14012" class="st3" d="M101.7,685.9l0.3-0.5h0.9v4.1h-0.5v-3.7H101.7z M106.8,688.5v0.5h-0.5v0.6h-0.5v-0.6h-2
						l2.5-3.7v3.3H106.8z M105.8,686.8L105.8,686.8l-1.2,1.7h1.2L105.8,686.8L105.8,686.8z M107.1,687.5c0-0.9,0.4-2.2,1.4-2.2
						c1.1,0,1.4,1.3,1.4,2.2c0,0.8-0.4,2.2-1.4,2.2S107.1,688.3,107.1,687.5z M107.6,687.4c0,0.6,0.2,1.7,0.9,1.7
						c0.7,0,0.9-1.1,0.9-1.7s-0.2-1.7-0.9-1.7S107.6,686.9,107.6,687.4z M110.5,685.9l0.3-0.5h0.9v4.1h-0.5v-3.7H110.5z
						 M115.4,689.1v0.5h-2.6l1.8-2.2c0.2-0.2,0.4-0.5,0.4-0.7c0-0.4-0.4-0.8-0.8-0.8c-0.4,0-0.8,0.3-0.8,0.8h-0.5
						c0.1-0.7,0.6-1.2,1.3-1.2c0.7,0,1.3,0.5,1.3,1.2c0,0.3-0.1,0.6-0.3,0.9l-1.3,1.7L115.4,689.1L115.4,689.1z"/>
				</g>
			</g>
			<g id="g14506">
				<g id="h14506">
					<path id="b14506" class="st4" d="M43,605.8v23.1H10.1v-11.5H1.4v-11.6H43z M1.4,617.4v11.5h8.6v-11.5H1.4z"/>
					<path id="t14506" class="st3" d="M16.7,616.2l0.3-0.5h0.9v4.1h-0.5v-3.7L16.7,616.2L16.7,616.2z M21.8,618.8v0.5h-0.5v0.6h-0.5
						v-0.6h-2l2.5-3.7v3.3H21.8z M20.8,617.1L20.8,617.1l-1.2,1.7h1.2V617.1z M23.6,616.2l-0.3,0.9l0.3,0c0.8,0,1.3,0.7,1.3,1.4
						c0,0.9-0.7,1.5-1.5,1.5c-0.5,0-1-0.3-1.2-0.7l0.4-0.4c0.1,0.4,0.5,0.6,0.9,0.6c0.5,0,1-0.5,1-1c0-0.5-0.4-1-1-1
						c-0.3,0-0.6,0.1-0.8,0.4h-0.1l0.6-2.1h1.6v0.5L23.6,616.2L23.6,616.2z M25.4,617.8c0-0.9,0.4-2.2,1.4-2.2s1.4,1.3,1.4,2.2
						c0,0.8-0.4,2.2-1.4,2.2S25.4,618.6,25.4,617.8z M25.9,617.8c0,0.6,0.2,1.7,0.9,1.7c0.7,0,0.9-1.1,0.9-1.7s-0.2-1.7-0.9-1.7
						S25.9,617.2,25.9,617.8z M30.8,615.9l-1.1,1.5l0,0c0.1-0.1,0.3-0.1,0.4-0.1c0.7,0,1.2,0.6,1.2,1.3c0,0.8-0.6,1.4-1.3,1.4
						c-0.7,0-1.4-0.6-1.4-1.3c0-0.4,0.2-0.8,0.4-1.1l1.4-1.9L30.8,615.9z M30.9,618.6c0-0.5-0.4-0.9-0.9-0.9c-0.4,0-0.9,0.4-0.9,0.9
						c0,0.5,0.4,0.9,0.9,0.9C30.5,619.5,30.9,619.1,30.9,618.6z"/>
				</g>
			</g>
			<g id="g14508">
				<g id="h14508">
					<path id="b14508" class="st4" d="M43,628.9v23.1H10.1v-11.5H1.4v-11.6L43,628.9L43,628.9z M1.4,640.6v11.5h8.6v-11.5H1.4z"/>
					<path id="t14508" class="st3" d="M16.7,639.8l0.3-0.5h0.9v4.1h-0.5v-3.7H16.7z M21.8,642.4v0.5h-0.5v0.6h-0.5v-0.6h-2l2.5-3.7
						v3.3H21.8z M20.8,640.7L20.8,640.7l-1.2,1.7h1.2V640.7z M23.6,639.8l-0.3,0.9l0.3,0c0.8,0,1.3,0.7,1.3,1.5
						c0,0.9-0.7,1.5-1.5,1.5c-0.5,0-1-0.3-1.2-0.7l0.4-0.4c0.1,0.4,0.5,0.6,0.9,0.6c0.5,0,1-0.5,1-1c0-0.5-0.4-1-1-1
						c-0.3,0-0.6,0.1-0.8,0.4h-0.1l0.6-2.1h1.6v0.5H23.6z M25.4,641.4c0-0.9,0.4-2.2,1.4-2.2s1.4,1.3,1.4,2.2c0,0.8-0.4,2.2-1.4,2.2
						S25.4,642.2,25.4,641.4z M25.9,641.4c0,0.6,0.2,1.7,0.9,1.7c0.7,0,0.9-1.1,0.9-1.7s-0.2-1.7-0.9-1.7
						C26.1,639.6,25.9,640.8,25.9,641.4z M29.4,641.3c-0.3-0.2-0.5-0.5-0.5-0.9c0-0.7,0.5-1.2,1.2-1.2c0.6,0,1.2,0.5,1.2,1.2
						c0,0.4-0.2,0.7-0.5,0.9c0.4,0.1,0.6,0.5,0.6,1c0,0.8-0.6,1.2-1.3,1.2s-1.3-0.5-1.3-1.2C28.7,641.8,29,641.4,29.4,641.3z
						 M29.2,642.3c0,0.4,0.4,0.8,0.8,0.8c0.4,0,0.8-0.4,0.8-0.8c0-0.4-0.4-0.8-0.8-0.8C29.6,641.5,29.2,641.8,29.2,642.3z
						 M29.3,640.4c0,0.3,0.4,0.7,0.7,0.7s0.7-0.4,0.7-0.7c0-0.4-0.3-0.7-0.7-0.7S29.3,640,29.3,640.4z"/>
				</g>
			</g>
			<g id="g14510">
				<g id="h14510">
					<path id="b14510" class="st4" d="M43,652.1v23.1H10.1v-11.5H1.4v-11.6H43z M1.4,663.7v11.5h8.6v-11.5H1.4z"/>
					<path id="t14510" class="st3" d="M17,662.3l0.3-0.5h0.9v4.1h-0.5v-3.7L17,662.3L17,662.3z M22.1,664.9v0.5h-0.5v0.6h-0.5v-0.6
						h-2l2.5-3.7v3.3H22.1z M21.1,663.2L21.1,663.2l-1.2,1.7h1.2L21.1,663.2L21.1,663.2z M23.9,662.3l-0.3,0.9l0.3,0
						c0.8,0,1.3,0.7,1.3,1.4c0,0.9-0.7,1.5-1.5,1.5c-0.5,0-1-0.3-1.2-0.7l0.4-0.4c0.1,0.4,0.5,0.6,0.9,0.6c0.5,0,1-0.5,1-1
						c0-0.5-0.4-1-1-1c-0.3,0-0.6,0.1-0.8,0.4h-0.1l0.6-2.1h1.6v0.5L23.9,662.3L23.9,662.3z M25.9,662.3l0.3-0.5h0.9v4.1h-0.5v-3.7
						L25.9,662.3L25.9,662.3z M28.3,663.9c0-0.9,0.4-2.2,1.4-2.2s1.4,1.3,1.4,2.2c0,0.8-0.4,2.2-1.4,2.2S28.3,664.7,28.3,663.9z
						 M28.8,663.9c0,0.6,0.2,1.7,0.9,1.7s0.9-1.1,0.9-1.7s-0.2-1.7-0.9-1.7S28.8,663.3,28.8,663.9z"/>
				</g>
			</g>
			<g id="g14512">
				<g id="h14512">
					<path id="b14512" class="st4" d="M43,675.3v23.1H10.1v-11.5H1.4v-11.6H43z M1.4,686.9v11.5h8.6v-11.5H1.4z"/>
					<path id="t14512" class="st3" d="M17.1,685.9l0.3-0.5h0.9v4.1h-0.5v-3.7H17.1z M22.2,688.5v0.5h-0.5v0.6h-0.5v-0.6h-2l2.5-3.7
						v3.3H22.2z M21.2,686.8L21.2,686.8l-1.2,1.7h1.2V686.8z M24,685.9l-0.3,0.9l0.3,0c0.8,0,1.3,0.7,1.3,1.5c0,0.9-0.7,1.5-1.5,1.5
						c-0.5,0-1-0.3-1.2-0.7l0.4-0.4c0.1,0.4,0.5,0.6,0.9,0.6c0.5,0,1-0.5,1-1c0-0.5-0.4-1-1-1c-0.3,0-0.6,0.1-0.8,0.4H23l0.6-2.1
						h1.6v0.5H24z M26,685.9l0.3-0.5h0.9v4.1h-0.5v-3.7H26z M30.9,689.1v0.5h-2.6l1.8-2.2c0.2-0.2,0.4-0.5,0.4-0.7
						c0-0.4-0.4-0.8-0.8-0.8c-0.4,0-0.8,0.3-0.8,0.8h-0.5c0.1-0.7,0.5-1.2,1.3-1.2c0.7,0,1.3,0.5,1.3,1.2c0,0.3-0.1,0.6-0.3,0.9
						l-1.3,1.7L30.9,689.1C30.9,689.1,30.9,689.1,30.9,689.1z"/>
				</g>
			</g>
		</g>
	</g>
</g>
<g id="JADE_DECK_14_TOP">
	<g id="gDeck14Locations">
		<polygon width="108.759" height="162.4301" id="_x31_4Aft" class="st5" points="103.9,732.1 110.2,732.1 110.2,728.1 23.2,728.1 23.2,732.1 29.5,732.1 29.5,784.8 
			12.3,784.8 12.3,869.5 18.6,869.5 18.6,890.5 53.6,890.5 79.8,890.5 114.8,890.5 114.8,869.5 121.1,869.5 121.1,784.8 
			103.9,784.8 		"/>
		<path width="130.511" height="244.3679" id="_x31_4MidShip" class="st5" d="M110.2,724.7H132V505.5c-18.5-20.4-51.7-21.8-51.7-21.8H63h-9.8c0,0-33.2,1.3-51.7,21.8
			v219.2h21.8v3.4h87V724.7z"/>
		<path width="125.744" height="287.968" id="_x31_4Forward" class="st5" d="M2.1,177.3h21.4v111.1c0,0,18.8-16.6,43.7-16.1c25,0.4,42.4,15.7,42.4,15.7V153.5h16.6
			V11.3c0,0-16.9-9-56.8-10.8h-5.9C23.6,2.3,6.7,11.3,6.7,11.3v144.2l-6.1,8.6l0,13.2L2.1,177.3z"/>
	</g>
	<path class="st6" d="M2.1,177.3h21.4v111.1c0,0,18.8-16.6,43.7-16.1c25,0.4,42.4,15.7,42.4,15.7V153.5h16.6V11.3
		c0,0-16.9-9-56.8-10.8h-5.9C23.6,2.3,6.7,11.3,6.7,11.3v144.2l-6.1,8.6l0,13.2L2.1,177.3z"/>
	<path class="st6" d="M63,483.7h17.3c0,0,33.2,1.3,51.7,21.8v219.2h-21.8v7.4h-6.3v52.7h17.2v84.7h-6.3v21h-35H53.6h-35v-21h-6.3
		v-84.7h17.2v-52.7h-6.3v-7.4H1.4V505.5C20,485,53.2,483.7,53.2,483.7H63z"/>
</g>
</svg>
