<?xml version="1.0" encoding="utf-8"?>
<!-- Generator: Adobe Illustrator 25.4.1, SVG Export Plug-In . SVG Version: 6.00 Build 0)  -->
<svg version="1.1" id="JADE_DECK_15" xmlns="http://www.w3.org/2000/svg" xmlns:xlink="http://www.w3.org/1999/xlink" x="0px"
	 y="0px" width="131.1px" height="771.8px" viewBox="0 0 131.1 771.8" style="enable-background:new 0 0 131.1 771.8;"
	 xml:space="preserve">
<style type="text/css">
	.st0{fill:#FFFFFF;}
	.st1{fill:none;stroke:#D5DCE0;stroke-width:0.5;}
	.st2{fill:#6E8496;}
	.st3{fill:#EFF2F5;stroke:#FFFFFF;stroke-width:0.5;stroke-miterlimit:10;}
	.st4{fill:none;}
	.st5{fill:none;stroke:#076FA0;stroke-miterlimit:10;}
</style>
<g id="JADE_DECK_15_BOTTOM">
	<polygon class="st0" points="30.2,0.7 101.6,0.7 101.6,59.5 97.6,64 87.2,63.9 87.2,120.4 44.4,120.4 44.4,98.5 38.6,98.5 
		38.6,94.2 44.2,94.2 44.2,64.2 33.9,64.2 29.7,59.7 	"/>
	<path class="st0" d="M36.4,771.3h58.4V644.5h30.5v6.2h5.4V423.9c0,0-13.5-21-64.5-22c-48.4-1-65.6,22.2-65.6,22.2v226.6l5.4,0.1
		l0-6.4h30.5V769L36.4,771.3L36.4,771.3z"/>
	<polyline class="st1" points="130.3,476.2 80.5,476.2 80.5,441.1 	"/>
	<polyline class="st1" points="0.1,476.4 50.5,476.4 50.5,473.1 	"/>
	<polyline class="st1" points="88.6,486.6 88.6,597.9 42.6,597.9 42.6,534.1 	"/>
	<line class="st1" x1="88.4" y1="486.9" x2="130.6" y2="486.9"/>
	<line class="st1" x1="0.3" y1="608.1" x2="130.4" y2="608.1"/>
	<line class="st1" x1="0.3" y1="534.4" x2="42.6" y2="534.4"/>
	<polyline class="st1" points="36.3,645.6 36.3,625.1 94.3,625.1 94.3,646.1 	"/>
	<line class="st1" x1="47.9" y1="608.4" x2="47.9" y2="625.3"/>
	<polyline class="st1" points="83,601.2 59.6,601.2 59.6,607.7 	"/>
	<line class="st1" x1="83" y1="625.3" x2="83" y2="598"/>
	<line class="st1" x1="79.1" y1="601.4" x2="61.3" y2="601.4"/>
	<line class="st1" x1="79.1" y1="607.5" x2="61.3" y2="607.5"/>
	<line class="st1" x1="62.1" y1="601.4" x2="62.1" y2="607.5"/>
	<line class="st1" x1="63.4" y1="601.4" x2="63.4" y2="607.5"/>
	<line class="st1" x1="64.7" y1="601.4" x2="64.7" y2="607.5"/>
	<line class="st1" x1="66" y1="601.4" x2="66" y2="607.5"/>
	<line class="st1" x1="67.3" y1="601.4" x2="67.3" y2="607.5"/>
	<line class="st1" x1="68.6" y1="601.4" x2="68.6" y2="607.5"/>
	<line class="st1" x1="69.9" y1="601.4" x2="69.9" y2="607.5"/>
	<line class="st1" x1="71.2" y1="601.4" x2="71.2" y2="607.5"/>
	<line class="st1" x1="72.5" y1="601.4" x2="72.5" y2="607.5"/>
	<line class="st1" x1="73.8" y1="601.4" x2="73.8" y2="607.5"/>
	<line class="st1" x1="75.1" y1="601.4" x2="75.1" y2="607.5"/>
	<line class="st1" x1="76.4" y1="601.4" x2="76.4" y2="607.5"/>
	<line class="st1" x1="77.8" y1="601.4" x2="77.8" y2="607.5"/>
	<rect x="42.7" y="521.4" class="st1" width="45.4" height="76.5"/>
	<polyline class="st1" points="130.8,430.2 86.4,430.2 86.4,447.2 92.3,447.2 92.3,451.8 86.4,451.8 86.4,457.2 129.9,457.2 	"/>
	<polyline class="st1" points="130.8,430.2 86.4,430.2 86.4,447.2 92.3,447.2 92.3,451.8 86.4,451.8 86.4,457.2 129.8,457.2 	"/>
	<path class="st1" d="M88,440.4c1-1.4,2.6-2.2,4.5-2.2c3,0,5.4,2.3,5.7,5.2h-4.6c0,0-0.4-1.1-1.1-1.1c-1.1-0.1-1.3,1.2-1.3,1.2v3.4
		h-3.9l0-4.2C87.3,442.6,87.4,441,88,440.4z"/>
	<line class="st1" x1="91.3" y1="445.6" x2="87.6" y2="445.6"/>
	<line class="st1" x1="91.3" y1="444.4" x2="87.6" y2="444.4"/>
	<line class="st1" x1="91.3" y1="443.3" x2="87.6" y2="443.3"/>
	<line class="st1" x1="97.9" y1="441.6" x2="93.6" y2="443.1"/>
	<line class="st1" x1="96.5" y1="439.8" x2="93.4" y2="442.6"/>
	<line class="st1" x1="94.9" y1="438.6" x2="92.8" y2="442.5"/>
	<line class="st1" x1="92.8" y1="438.4" x2="92.4" y2="442.2"/>
	<line class="st1" x1="90.7" y1="438.7" x2="92" y2="442.2"/>
	<line class="st1" x1="88.9" y1="439.8" x2="91.6" y2="442.5"/>
	<line class="st1" x1="87.9" y1="441.1" x2="91.3" y2="442.8"/>
	<path class="st1" d="M42,440.4c-1-1.4-2.6-2.2-4.5-2.2c-3,0-5.4,2.3-5.7,5.2h4.6c0,0,0.4-1.1,1.1-1.1c1.1-0.1,1.3,1.2,1.3,1.2v3.4
		h3.9l0-4.2C42.7,442.6,42.6,441,42,440.4z"/>
	<line class="st1" x1="38.8" y1="445.6" x2="42.4" y2="445.6"/>
	<line class="st1" x1="38.8" y1="444.4" x2="42.4" y2="444.4"/>
	<line class="st1" x1="38.8" y1="443.3" x2="42.4" y2="443.3"/>
	<line class="st1" x1="32.2" y1="441.6" x2="36.4" y2="443.1"/>
	<line class="st1" x1="33.6" y1="439.8" x2="36.7" y2="442.6"/>
	<line class="st1" x1="35.1" y1="438.6" x2="37.3" y2="442.5"/>
	<line class="st1" x1="37.3" y1="438.4" x2="37.7" y2="442.2"/>
	<line class="st1" x1="39.4" y1="438.7" x2="38" y2="442.2"/>
	<line class="st1" x1="41.2" y1="439.8" x2="38.5" y2="442.5"/>
	<line class="st1" x1="42.2" y1="441.1" x2="38.8" y2="442.8"/>
	<polygon class="st1" points="0.7,430.7 0.7,456.9 43.7,457.2 43.7,451.8 37.9,451.8 37.9,447.2 43.7,447.2 43.7,430.7 26,430.7 	
		"/>
	<line class="st1" x1="38.2" y1="103.5" x2="38.2" y2="120.6"/>
	<line class="st1" x1="38.3" y1="120" x2="44.3" y2="120"/>
	<line class="st1" x1="38.3" y1="117.7" x2="44.3" y2="117.7"/>
	<line class="st1" x1="38.3" y1="115.4" x2="44.3" y2="115.4"/>
	<line class="st1" x1="38.3" y1="113.1" x2="44.3" y2="113.1"/>
	<line class="st1" x1="38.3" y1="110.8" x2="44.3" y2="110.8"/>
	<line class="st1" x1="38.3" y1="108.6" x2="44.3" y2="108.6"/>
	<line class="st1" x1="38.3" y1="106.3" x2="44.3" y2="106.3"/>
	<line class="st1" x1="38.3" y1="104" x2="44.3" y2="104"/>
	<path class="st2" d="M8.7,559.3v-0.2c0-2,0.7-2.7,1.6-2.7c0.3,0,0.4,0,0.6,0.1v1c-0.2-0.1-0.4-0.2-0.5-0.2c-0.4,0-0.7,0.4-0.7,1.8
		v0.2c0,1.5,0.3,1.8,0.8,1.8c0.2,0,0.3-0.1,0.5-0.2v1c-0.2,0.1-0.4,0.2-0.7,0.2C9.4,562,8.7,561.2,8.7,559.3z M11.2,559.3V559
		c0-1.8,0.6-2.7,1.5-2.7s1.5,0.9,1.5,2.7v0.3c0,1.8-0.6,2.7-1.5,2.7C11.8,562,11.2,561.2,11.2,559.3z M13.2,559.3V559
		c0-1.4-0.2-1.8-0.5-1.8c-0.3,0-0.5,0.4-0.5,1.8v0.3c0,1.4,0.2,1.8,0.5,1.8C13,561.2,13.2,560.8,13.2,559.3z M14.7,560.3v-4h1v4.1
		c0,0.5,0.2,0.7,0.4,0.7c0.2,0,0.4-0.2,0.4-0.7v-4.1h1v4c0,1.2-0.6,1.7-1.4,1.7C15.3,562,14.7,561.5,14.7,560.3z M18,556.4h1
		c1,0,1.7,0.5,1.7,1.8v0.1c0,0.7-0.3,1.2-0.7,1.5l0.8,2.3h-1l-0.6-2H19v2h-1L18,556.4L18,556.4z M19,559.1c0.4,0,0.7-0.2,0.7-0.9
		v-0.1c0-0.7-0.3-0.9-0.8-0.9h0L19,559.1L19,559.1z M21.6,557.3h-0.7v-0.9h2.4v0.9h-0.7v4.7h-1V557.3z M24.4,559.8l-1-3.4h1l0.5,2.1
		l0.5-2.1h1l-1,3.4v2.2h-1L24.4,559.8L24.4,559.8z M27.1,556.4h1l1.1,5.6h-1l-0.2-1.1h-0.9L27,562h-0.9L27.1,556.4z M27.9,560
		l-0.3-1.8l-0.3,1.8H27.9z M29.5,556.4h1c1,0,1.7,0.5,1.7,1.8v0.1c0,0.7-0.3,1.2-0.7,1.5l0.8,2.3h-1l-0.6-2h-0.2v2h-1L29.5,556.4
		L29.5,556.4z M30.6,559.1c0.4,0,0.7-0.2,0.7-0.9v-0.1c0-0.7-0.3-0.9-0.8-0.9h0L30.6,559.1L30.6,559.1z M32.7,556.4h0.9
		c1.2,0,2,0.9,2,2.7v0.2c0,1.8-0.7,2.7-2,2.7h-0.9V556.4z M33.7,561.1c0.5,0,0.9-0.4,0.9-1.8v-0.2c0-1.4-0.4-1.8-0.9-1.8h0
		L33.7,561.1L33.7,561.1z M14.6,564.4h1l0.5,3.6l0.5-3.6h1l-1,5.6h-1L14.6,564.4z M17.9,564.4h1v5.6h-1V564.4z M19.5,564.4h1v4.7h1
		v0.9h-2V564.4z M21.9,564.4h1v4.7h1v0.9h-2V564.4z M25,564.4h1l1.1,5.6h-1l-0.2-1.1h-0.9l-0.2,1.1H24L25,564.4z M25.8,568l-0.3-1.8
		l-0.3,1.8H25.8z M27.3,569.8v-1c0.3,0.2,0.6,0.3,0.9,0.3c0.3,0,0.5-0.1,0.5-0.5v0c0-0.3-0.1-0.4-0.5-1c-0.7-0.8-0.9-1.1-0.9-1.8v0
		c0-0.9,0.6-1.5,1.4-1.5c0.4,0,0.6,0.1,0.9,0.2v1c-0.3-0.2-0.5-0.3-0.7-0.3c-0.3,0-0.5,0.2-0.5,0.5v0c0,0.3,0.1,0.4,0.5,0.9
		c0.8,0.9,0.9,1.2,0.9,1.9v0c0,0.9-0.6,1.5-1.4,1.5C27.9,570,27.6,569.9,27.3,569.8z M13,572.4h0.9c1.1,0,1.8,0.6,1.8,1.9v0
		c0,1.3-0.7,1.9-1.7,1.9h0v1.8h-1V572.4z M14,575.3c0.4,0,0.7-0.3,0.7-1v0c0-0.7-0.3-1-0.7-1h0L14,575.3L14,575.3L14,575.3z
		 M16.1,572.4h1c1,0,1.7,0.5,1.7,1.8v0.1c0,0.7-0.3,1.2-0.7,1.5l0.8,2.3h-1l-0.6-2h-0.2v2h-1C16.1,578,16.1,572.4,16.1,572.4z
		 M17.1,575.1c0.4,0,0.7-0.2,0.7-0.9v-0.1c0-0.7-0.3-0.9-0.8-0.9h0L17.1,575.1L17.1,575.1z M19.3,572.4h1v5.6h-1V572.4z M20.6,572.4
		h1l0.5,3.6l0.5-3.6h1l-1,5.6h-1L20.6,572.4z M24.5,572.4h1l1.1,5.6h-1l-0.2-1.1h-0.9l-0.2,1.1h-0.9L24.5,572.4z M25.3,576l-0.3-1.8
		l-0.3,1.8H25.3z M27.2,573.3h-0.7v-0.9h2.4v0.9h-0.7v4.7h-1L27.2,573.3L27.2,573.3z M29.3,572.4h2.1v0.9h-1.2v1.4h1v0.9h-1v1.4h1.2
		v0.9h-2.2V572.4z M11.1,585.8v-1c0.3,0.2,0.6,0.3,0.9,0.3c0.3,0,0.5-0.1,0.5-0.5v0c0-0.3-0.1-0.4-0.5-1c-0.7-0.8-0.9-1.1-0.9-1.8v0
		c0-0.9,0.6-1.5,1.4-1.5c0.4,0,0.6,0.1,0.9,0.2v1c-0.3-0.2-0.5-0.3-0.7-0.3c-0.3,0-0.5,0.2-0.5,0.5v0c0,0.3,0.1,0.4,0.5,0.9
		c0.8,0.9,0.9,1.2,0.9,1.9v0c0,0.9-0.6,1.5-1.4,1.5C11.7,586,11.4,585.9,11.1,585.8z M13.8,584.3v-4h1v4.1c0,0.5,0.2,0.7,0.4,0.7
		s0.4-0.2,0.4-0.7v-4.1h1v4c0,1.2-0.6,1.7-1.4,1.7C14.4,586,13.8,585.5,13.8,584.3z M17.2,580.4h0.9l1,2.8v-2.8h1v5.6h-0.9l-1-3v3
		h-1V580.4z M21.9,580.4h0.9c1.2,0,2,0.9,2,2.7v0.2c0,1.8-0.7,2.7-2,2.7h-0.9V580.4z M22.9,585.1c0.5,0,0.9-0.4,0.9-1.8v-0.2
		c0-1.4-0.4-1.8-0.9-1.8h0L22.9,585.1L22.9,585.1z M25.2,580.4h2.1v0.9h-1.2v1.4h1v0.9h-1v1.4h1.2v0.9h-2.2L25.2,580.4L25.2,580.4z
		 M27.7,583.3v-0.2c0-2,0.7-2.7,1.6-2.7c0.3,0,0.4,0,0.6,0.1v1c-0.2-0.1-0.4-0.2-0.5-0.2c-0.4,0-0.7,0.4-0.7,1.8v0.2
		c0,1.5,0.3,1.8,0.8,1.8c0.2,0,0.3-0.1,0.5-0.2v1c-0.2,0.1-0.4,0.2-0.7,0.2C28.3,586,27.7,585.2,27.7,583.3z M30.5,580.4h1v2.3
		l0.8-2.3h1.1l-0.9,2.4l1,3.2h-1.1l-0.6-2.1l-0.2,0.6v1.5h-1L30.5,580.4L30.5,580.4z"/>
	<path class="st2" d="M97.2,563.4v-1c0.3,0.2,0.6,0.3,0.9,0.3c0.3,0,0.5-0.1,0.5-0.5v0c0-0.3-0.1-0.4-0.5-1
		c-0.7-0.8-0.9-1.1-0.9-1.8v0c0-0.9,0.6-1.5,1.4-1.5c0.4,0,0.6,0.1,0.9,0.2v1c-0.3-0.2-0.5-0.3-0.7-0.3c-0.3,0-0.5,0.2-0.5,0.5v0
		c0,0.3,0.1,0.4,0.5,0.9c0.8,0.9,0.9,1.2,0.9,1.9v0c0,0.9-0.6,1.5-1.4,1.5C97.8,563.7,97.5,563.6,97.2,563.4z M99.9,562v-4h1v4.1
		c0,0.5,0.2,0.7,0.4,0.7s0.4-0.2,0.4-0.7V558h1v4c0,1.2-0.6,1.7-1.4,1.7S99.9,563.2,99.9,562z M103.3,558h0.9l1,2.8V558h1v5.6h-0.9
		l-1-3v3h-1C103.3,563.6,103.3,558,103.3,558z M108,558h0.9c1.2,0,2,0.9,2,2.7v0.2c0,1.8-0.7,2.7-2,2.7H108V558z M109,562.7
		c0.5,0,0.9-0.4,0.9-1.8v-0.2c0-1.4-0.4-1.8-0.9-1.8h0L109,562.7L109,562.7z M111.3,558h2.1v0.9h-1.2v1.4h1v0.9h-1v1.4h1.2v0.9h-2.2
		V558z M113.8,560.9v-0.2c0-2,0.7-2.7,1.6-2.7c0.3,0,0.4,0,0.6,0.1v1c-0.2-0.1-0.4-0.2-0.5-0.2c-0.4,0-0.7,0.4-0.7,1.8v0.2
		c0,1.5,0.3,1.8,0.8,1.8c0.2,0,0.3-0.1,0.5-0.2v1c-0.2,0.1-0.4,0.2-0.7,0.2C114.5,563.7,113.8,562.9,113.8,560.9z M116.6,558h1v2.3
		l0.8-2.3h1.1l-0.9,2.4l1,3.2h-1.1l-0.6-2.1l-0.2,0.6v1.5h-1L116.6,558L116.6,558z"/>
	<path class="st2" d="M57.2,548.9v-0.3c0-1.8,0.6-2.7,1.5-2.7c0.9,0,1.5,0.9,1.5,2.7v0.3c0,1.8-0.6,2.7-1.5,2.7
		S57.2,550.8,57.2,548.9z M59.2,548.9v-0.3c0-1.4-0.2-1.8-0.5-1.8c-0.3,0-0.5,0.4-0.5,1.8v0.3c0,1.4,0.2,1.8,0.5,1.8
		C59,550.8,59.2,550.4,59.2,548.9z M60.7,546h0.9c1.1,0,1.8,0.6,1.8,1.9v0c0,1.3-0.7,1.9-1.7,1.9h0v1.8h-1L60.7,546L60.7,546z
		 M61.6,548.9c0.4,0,0.7-0.3,0.7-1v0c0-0.7-0.3-1-0.7-1h0L61.6,548.9L61.6,548.9L61.6,548.9z M63.7,546h2.1v0.9h-1.2v1.4h1v0.9h-1
		v1.4h1.2v0.9h-2.2L63.7,546L63.7,546z M66.4,546h0.9l1,2.8V546h1v5.6h-0.9l-1-3v3h-1L66.4,546L66.4,546z M71.6,546.9h-0.7V546h2.4
		v0.9h-0.7v4.7h-1C71.6,551.6,71.6,546.9,71.6,546.9z M73.4,548.9v-0.3c0-1.8,0.6-2.7,1.5-2.7c0.9,0,1.5,0.9,1.5,2.7v0.3
		c0,1.8-0.6,2.7-1.5,2.7C74,551.7,73.4,550.8,73.4,548.9z M75.4,548.9v-0.3c0-1.4-0.2-1.8-0.5-1.8c-0.3,0-0.5,0.4-0.5,1.8v0.3
		c0,1.4,0.2,1.8,0.5,1.8C75.2,550.8,75.4,550.4,75.4,548.9z M61.2,554h0.9c1.2,0,2,0.9,2,2.7v0.2c0,1.8-0.7,2.7-2,2.7h-0.9V554z
		 M62.2,558.7c0.5,0,0.9-0.4,0.9-1.8v-0.2c0-1.4-0.4-1.8-0.9-1.8h0L62.2,558.7L62.2,558.7z M64.5,554h2.1v0.9h-1.2v1.4h1v0.9h-1v1.4
		h1.2v0.9h-2.2L64.5,554L64.5,554z M67,556.9v-0.2c0-2,0.7-2.7,1.6-2.7c0.3,0,0.4,0,0.6,0.1v1c-0.2-0.1-0.4-0.2-0.5-0.2
		c-0.4,0-0.7,0.4-0.7,1.8v0.2c0,1.5,0.3,1.8,0.8,1.8c0.2,0,0.3-0.1,0.5-0.2v1c-0.2,0.1-0.4,0.2-0.7,0.2
		C67.7,559.6,67,558.8,67,556.9z M69.8,554h1v2.3l0.8-2.3h1.1l-0.9,2.4l1,3.2h-1.1l-0.6-2.1l-0.2,0.6v1.5h-1L69.8,554L69.8,554z
		 M59.1,562h0.8c0.9,0,1.8,0.4,1.8,1.4v0c0,0.7-0.4,1.1-0.8,1.3c0.5,0.2,0.9,0.5,0.9,1.2v0.1c0,1-0.8,1.6-1.9,1.6h-0.9L59.1,562
		L59.1,562z M60.1,564.3c0.4,0,0.7-0.2,0.7-0.7v0c0-0.5-0.3-0.7-0.7-0.7h0L60.1,564.3L60.1,564.3z M60.1,566.7
		c0.4,0,0.8-0.3,0.8-0.7v0c0-0.5-0.3-0.7-0.8-0.7h0L60.1,566.7L60.1,566.7L60.1,566.7z M62.2,562h2.1v0.9h-1.2v1.4h1v0.9h-1v1.4h1.2
		v0.9h-2.2C62.2,567.6,62.2,562,62.2,562z M64.9,562h1v4.7h1v0.9h-2C64.9,567.6,64.9,562,64.9,562z M67,564.9v-0.3
		c0-1.8,0.6-2.7,1.5-2.7s1.5,0.9,1.5,2.7v0.3c0,1.8-0.6,2.7-1.5,2.7S67,566.8,67,564.9z M69,564.9v-0.3c0-1.4-0.2-1.8-0.5-1.8
		s-0.5,0.4-0.5,1.8v0.3c0,1.4,0.2,1.8,0.5,1.8S69,566.4,69,564.9z M70.1,562h1l0.4,3.4L72,562h0.9l0.5,3.4l0.4-3.4h1l-0.8,5.6h-1
		l-0.5-3.3l-0.5,3.3h-1L70.1,562z"/>
	<path class="st2" d="M8.8,463.7v-0.2c0-1.8,0.8-2.7,1.9-2.7c0.3,0,0.5,0.1,0.7,0.2v1c-0.2-0.1-0.5-0.2-0.7-0.2
		c-0.6,0-0.9,0.6-0.9,1.8v0.3c0,1.5,0.4,1.8,0.8,1.8c0,0,0,0,0.1,0v-1.4h-0.5v-0.9h1.4v3c-0.4,0.2-0.6,0.2-1,0.2
		C9.7,466.5,8.8,465.7,8.8,463.7z M13,460.8h1l1.1,5.6h-1l-0.2-1.1H13l-0.2,1.1h-0.9L13,460.8z M13.8,464.4l-0.3-1.8l-0.3,1.8H13.8z
		 M15.4,460.8h1c1,0,1.7,0.5,1.7,1.8v0.1c0,0.7-0.3,1.2-0.7,1.5l0.8,2.3h-1l-0.6-2h-0.2v2h-1L15.4,460.8L15.4,460.8z M16.4,463.6
		c0.4,0,0.7-0.2,0.7-0.9v-0.1c0-0.7-0.3-0.9-0.8-0.9h0L16.4,463.6L16.4,463.6L16.4,463.6z M18.5,460.8h0.9c1.2,0,2,0.9,2,2.7v0.2
		c0,1.8-0.7,2.7-2,2.7h-0.9V460.8z M19.6,465.5c0.5,0,0.9-0.4,0.9-1.8v-0.2c0-1.4-0.4-1.8-0.9-1.8h0L19.6,465.5L19.6,465.5z
		 M21.9,460.8H24v0.9h-1.2v1.4h1v0.9h-1v1.4h1.2v0.9h-2.2V460.8z M24.5,460.8h0.9l1,2.8v-2.8h1v5.6h-0.9l-1-3v3h-1V460.8z M29,460.8
		h1l0.5,3.6l0.5-3.6h1l-1,5.6h-1L29,460.8z M32.3,460.8h1v5.6h-1V460.8z M33.8,460.8h1v4.7h1v0.9h-2V460.8z M36.2,460.8h1v4.7h1v0.9
		h-2V460.8z M39.4,460.8h1l1.1,5.6h-1l-0.2-1.1h-0.9l-0.2,1.1h-0.9L39.4,460.8z M40.2,464.4l-0.3-1.8l-0.3,1.8H40.2z M4.7,468.8h0.9
		c1.1,0,1.8,0.6,1.8,1.9v0c0,1.3-0.7,1.9-1.7,1.9h0v1.8h-1V468.8z M5.7,471.8c0.4,0,0.7-0.3,0.7-1v0c0-0.7-0.3-1-0.7-1h0L5.7,471.8
		L5.7,471.8L5.7,471.8z M7.8,468.8h1c1,0,1.7,0.5,1.7,1.8v0.1c0,0.7-0.3,1.2-0.7,1.5l0.8,2.3h-1l-0.6-2H8.8v2h-1V468.8z M8.8,471.6
		c0.4,0,0.7-0.2,0.7-0.9v-0.1c0-0.7-0.3-0.9-0.8-0.9h0L8.8,471.6L8.8,471.6L8.8,471.6z M11,468.8h1v5.6h-1V468.8z M12.3,468.8h1
		l0.5,3.6l0.5-3.6h1l-1,5.6h-1L12.3,468.8z M16.2,468.8h1l1.1,5.6h-1l-0.2-1.1h-0.9l-0.2,1.1h-0.9L16.2,468.8z M17,472.4l-0.3-1.8
		l-0.3,1.8H17z M18.9,469.8h-0.7v-0.9h2.4v0.9h-0.7v4.7h-1L18.9,469.8L18.9,469.8z M20.9,468.8h2.1v0.9h-1.2v1.4h1v0.9h-1v1.4h1.2
		v0.9h-2.2V468.8z M24.7,474.2v-1c0.3,0.2,0.6,0.3,0.9,0.3c0.3,0,0.5-0.1,0.5-0.5v0c0-0.3-0.1-0.4-0.5-1c-0.7-0.8-0.9-1.1-0.9-1.8v0
		c0-0.9,0.6-1.5,1.4-1.5c0.4,0,0.6,0.1,0.9,0.2v1c-0.3-0.2-0.5-0.3-0.7-0.3c-0.3,0-0.5,0.2-0.5,0.5v0c0,0.3,0.1,0.4,0.5,0.9
		c0.8,0.9,0.9,1.2,0.9,1.9v0c0,0.9-0.6,1.5-1.4,1.5C25.3,474.5,25,474.4,24.7,474.2z M27.4,472.8v-4h1v4.1c0,0.5,0.2,0.7,0.4,0.7
		s0.4-0.2,0.4-0.7v-4.1h1v4c0,1.2-0.6,1.7-1.4,1.7C28,474.5,27.4,474,27.4,472.8z M30.8,468.8h0.9l1,2.8v-2.8h1v5.6h-0.9l-1-3v3h-1
		C30.8,474.4,30.8,468.8,30.8,468.8z M35.5,468.8h0.9c1.2,0,2,0.9,2,2.7v0.2c0,1.8-0.7,2.7-2,2.7h-0.9V468.8z M36.5,473.5
		c0.5,0,0.9-0.4,0.9-1.8v-0.2c0-1.4-0.4-1.8-0.9-1.8h0L36.5,473.5L36.5,473.5z M38.8,468.8H41v0.9h-1.2v1.4h1v0.9h-1v1.4H41v0.9
		h-2.2V468.8z M41.3,471.7v-0.2c0-2,0.7-2.7,1.6-2.7c0.3,0,0.4,0,0.6,0.1v1c-0.2-0.1-0.4-0.2-0.5-0.2c-0.4,0-0.7,0.4-0.7,1.8v0.2
		c0,1.5,0.3,1.8,0.8,1.8c0.2,0,0.3-0.1,0.5-0.2v1c-0.2,0.1-0.4,0.2-0.7,0.2C42,474.5,41.3,473.7,41.3,471.7z M44.1,468.8h1v2.3
		l0.8-2.3H47l-0.9,2.4l1,3.2h-1.1l-0.6-2.1l-0.2,0.6v1.5h-1V468.8z"/>
	<path class="st2" d="M88.4,463.7v-0.2c0-1.8,0.8-2.7,1.9-2.7c0.3,0,0.5,0.1,0.7,0.2v1c-0.2-0.1-0.5-0.2-0.7-0.2
		c-0.6,0-0.9,0.6-0.9,1.8v0.3c0,1.5,0.4,1.8,0.8,1.8c0,0,0,0,0.1,0v-1.4h-0.5v-0.9h1.4v3c-0.4,0.2-0.6,0.2-1,0.2
		C89.2,466.5,88.4,465.7,88.4,463.7z M92.5,460.8h1l1.1,5.6h-1l-0.2-1.1h-0.9l-0.2,1.1h-0.9L92.5,460.8z M93.3,464.4l-0.3-1.8
		l-0.3,1.8H93.3z M94.9,460.8h1c1,0,1.7,0.5,1.7,1.8v0.1c0,0.7-0.3,1.2-0.7,1.5l0.8,2.3h-1l-0.6-2h-0.2v2h-1L94.9,460.8L94.9,460.8z
		 M95.9,463.6c0.4,0,0.7-0.2,0.7-0.9v-0.1c0-0.7-0.3-0.9-0.8-0.9h0L95.9,463.6L95.9,463.6L95.9,463.6z M98.1,460.8H99
		c1.2,0,2,0.9,2,2.7v0.2c0,1.8-0.7,2.7-2,2.7h-0.9V460.8z M99.1,465.5c0.5,0,0.9-0.4,0.9-1.8v-0.2c0-1.4-0.4-1.8-0.9-1.8h0
		L99.1,465.5L99.1,465.5z M101.4,460.8h2.1v0.9h-1.2v1.4h1v0.9h-1v1.4h1.2v0.9h-2.2V460.8z M104.1,460.8h0.9l1,2.8v-2.8h1v5.6h-0.9
		l-1-3v3h-1L104.1,460.8L104.1,460.8z M108.5,460.8h1l0.5,3.6l0.5-3.6h1l-1,5.6h-1L108.5,460.8z M111.8,460.8h1v5.6h-1V460.8z
		 M113.4,460.8h1v4.7h1v0.9h-2C113.4,466.4,113.4,460.8,113.4,460.8z M115.8,460.8h1v4.7h1v0.9h-2
		C115.8,466.4,115.8,460.8,115.8,460.8z M118.9,460.8h1l1.1,5.6h-1l-0.2-1.1H119l-0.2,1.1h-0.9L118.9,460.8z M119.7,464.4l-0.3-1.8
		l-0.3,1.8H119.7z M84.2,468.8h0.9c1.1,0,1.8,0.6,1.8,1.9v0c0,1.3-0.7,1.9-1.7,1.9h0v1.8h-1V468.8z M85.2,471.8c0.4,0,0.7-0.3,0.7-1
		v0c0-0.7-0.3-1-0.7-1h0L85.2,471.8L85.2,471.8L85.2,471.8z M87.3,468.8h1c1,0,1.7,0.5,1.7,1.8v0.1c0,0.7-0.3,1.2-0.7,1.5l0.8,2.3
		h-1l-0.6-2h-0.2v2h-1C87.3,474.4,87.3,468.8,87.3,468.8z M88.3,471.6c0.4,0,0.7-0.2,0.7-0.9v-0.1c0-0.7-0.3-0.9-0.8-0.9h0
		L88.3,471.6L88.3,471.6L88.3,471.6z M90.5,468.8h1v5.6h-1V468.8z M91.8,468.8h1l0.5,3.6l0.5-3.6h1l-1,5.6h-1L91.8,468.8z
		 M95.7,468.8h1l1.1,5.6h-1l-0.2-1.1h-0.9l-0.2,1.1h-0.9L95.7,468.8z M96.5,472.4l-0.3-1.8l-0.3,1.8H96.5z M98.4,469.8h-0.7v-0.9
		h2.4v0.9h-0.7v4.7h-1C98.4,474.4,98.4,469.8,98.4,469.8z M100.5,468.8h2.1v0.9h-1.2v1.4h1v0.9h-1v1.4h1.2v0.9h-2.2V468.8z
		 M104.3,474.2v-1c0.3,0.2,0.6,0.3,0.9,0.3c0.3,0,0.5-0.1,0.5-0.5v0c0-0.3-0.1-0.4-0.5-1c-0.7-0.8-0.9-1.1-0.9-1.8v0
		c0-0.9,0.6-1.5,1.4-1.5c0.4,0,0.6,0.1,0.9,0.2v1c-0.3-0.2-0.5-0.3-0.7-0.3c-0.3,0-0.5,0.2-0.5,0.5v0c0,0.3,0.1,0.4,0.5,0.9
		c0.8,0.9,0.9,1.2,0.9,1.9v0c0,0.9-0.6,1.5-1.4,1.5C104.9,474.5,104.5,474.4,104.3,474.2z M107,472.8v-4h1v4.1
		c0,0.5,0.2,0.7,0.4,0.7s0.4-0.2,0.4-0.7v-4.1h1v4c0,1.2-0.6,1.7-1.4,1.7S107,474,107,472.8z M110.3,468.8h0.9l1,2.8v-2.8h1v5.6
		h-0.9l-1-3v3h-1V468.8z M115,468.8h0.9c1.2,0,2,0.9,2,2.7v0.2c0,1.8-0.7,2.7-2,2.7H115V468.8z M116,473.5c0.5,0,0.9-0.4,0.9-1.8
		v-0.2c0-1.4-0.4-1.8-0.9-1.8h0L116,473.5L116,473.5z M118.4,468.8h2.1v0.9h-1.2v1.4h1v0.9h-1v1.4h1.2v0.9h-2.2V468.8z M120.8,471.7
		v-0.2c0-2,0.7-2.7,1.6-2.7c0.3,0,0.4,0,0.6,0.1v1c-0.2-0.1-0.4-0.2-0.5-0.2c-0.4,0-0.7,0.4-0.7,1.8v0.2c0,1.5,0.3,1.8,0.8,1.8
		c0.2,0,0.3-0.1,0.5-0.2v1c-0.2,0.1-0.4,0.2-0.7,0.2C121.5,474.5,120.8,473.7,120.8,471.7z M123.6,468.8h1v2.3l0.8-2.3h1.1l-0.9,2.4
		l1,3.2h-1.1l-0.6-2.1l-0.2,0.6v1.5h-1L123.6,468.8L123.6,468.8z"/>
	<path class="st2" d="M13.4,434.2l-0.6,0.2v-1l0.9-0.3h0.7v5.6h-1V434.2z M16.4,437.7h-1.5V437l1.5-3.8h1v3.7h0.5v0.8h-0.5v1h-0.9
		C16.4,438.7,16.4,437.7,16.4,437.7z M16.4,436.9v-2l-0.7,2H16.4z M18,438.6v-1c0.2,0.1,0.4,0.2,0.6,0.2c0.5,0,0.7-0.4,0.7-1v-0.1
		c0-0.6-0.2-0.8-0.5-0.8c-0.1,0-0.2,0-0.4,0.1l-0.5-0.3l0.2-2.7h2v0.9h-1.3l-0.1,1.1c0.1,0,0.2,0,0.4,0c0.6,0,1.2,0.4,1.2,1.7v0.1
		c0,1.2-0.6,1.9-1.6,1.9C18.5,438.8,18.2,438.7,18,438.6z M20.6,436.1v-0.3c0-1.9,0.5-2.7,1.4-2.7c0.9,0,1.4,0.8,1.4,2.7v0.3
		c0,1.9-0.5,2.7-1.4,2.7C21.1,438.8,20.6,438,20.6,436.1z M22.4,436.1v-0.3c0-1.6-0.2-1.8-0.4-1.8c-0.2,0-0.4,0.3-0.4,1.8v0.3
		c0,1.6,0.2,1.8,0.4,1.8C22.3,437.9,22.4,437.7,22.4,436.1z M23.8,436.1v-0.3c0-1.9,0.5-2.7,1.4-2.7c0.9,0,1.4,0.8,1.4,2.7v0.3
		c0,1.9-0.5,2.7-1.4,2.7C24.3,438.8,23.8,438,23.8,436.1z M25.6,436.1v-0.3c0-1.6-0.2-1.8-0.4-1.8c-0.2,0-0.4,0.3-0.4,1.8v0.3
		c0,1.6,0.2,1.8,0.4,1.8C25.4,437.9,25.6,437.7,25.6,436.1z M9.5,444.1v-0.3c0-1.8,0.6-2.7,1.5-2.7c0.9,0,1.5,0.9,1.5,2.7v0.3
		c0,1.8-0.6,2.7-1.5,2.7C10.1,446.8,9.5,445.9,9.5,444.1z M11.5,444.1v-0.3c0-1.4-0.2-1.8-0.5-1.8s-0.5,0.4-0.5,1.8v0.3
		c0,1.4,0.2,1.8,0.5,1.8S11.5,445.5,11.5,444.1z M13,441.1h0.9c1.1,0,1.8,0.6,1.8,1.9v0c0,1.3-0.7,1.9-1.7,1.9h0v1.8h-1V441.1z
		 M14,444.1c0.4,0,0.7-0.3,0.7-1v0c0-0.7-0.3-1-0.7-1h0L14,444.1L14,444.1L14,444.1z M16,441.1h2.1v0.9H17v1.4h1v0.9h-1v1.4h1.2v0.9
		H16V441.1z M18.7,441.1h0.9l1,2.8v-2.8h1v5.6h-0.9l-1-3v3h-1V441.1z M23.9,442.1h-0.7v-0.9h2.4v0.9h-0.7v4.7h-1V442.1z M25.7,444.1
		v-0.3c0-1.8,0.6-2.7,1.5-2.7c0.9,0,1.5,0.9,1.5,2.7v0.3c0,1.8-0.6,2.7-1.5,2.7C26.3,446.8,25.7,445.9,25.7,444.1z M27.7,444.1v-0.3
		c0-1.4-0.2-1.8-0.5-1.8s-0.5,0.4-0.5,1.8v0.3c0,1.4,0.2,1.8,0.5,1.8S27.7,445.5,27.7,444.1z M5.5,449.1h0.9c1.2,0,2,0.9,2,2.7v0.2
		c0,1.8-0.7,2.7-2,2.7H5.5V449.1z M6.5,453.8c0.5,0,0.9-0.4,0.9-1.8v-0.2c0-1.4-0.4-1.8-0.9-1.8h0L6.5,453.8L6.5,453.8z M8.8,449.1
		H11v0.9H9.8v1.4h1v0.9h-1v1.4H11v0.9H8.8V449.1z M11.3,452v-0.2c0-2,0.7-2.7,1.6-2.7c0.3,0,0.4,0,0.6,0.1v1
		c-0.2-0.1-0.4-0.2-0.5-0.2c-0.4,0-0.7,0.4-0.7,1.8v0.2c0,1.5,0.3,1.8,0.8,1.8c0.2,0,0.3-0.1,0.5-0.2v1c-0.2,0.1-0.4,0.2-0.7,0.2
		C12,454.8,11.3,454,11.3,452z M14.1,449.1h1v2.3l0.8-2.3h1.1l-0.9,2.4l1,3.2h-1.1l-0.6-2.1l-0.2,0.6v1.5h-1L14.1,449.1L14.1,449.1z
		 M18.6,449.1h0.8c0.9,0,1.8,0.4,1.8,1.4v0c0,0.7-0.4,1.1-0.8,1.3c0.5,0.2,0.9,0.5,0.9,1.2v0.1c0,1-0.8,1.6-1.9,1.6h-0.9L18.6,449.1
		L18.6,449.1z M19.6,451.5c0.4,0,0.7-0.2,0.7-0.7v0c0-0.5-0.3-0.7-0.7-0.7h0L19.6,451.5L19.6,451.5z M19.6,453.8
		c0.4,0,0.8-0.3,0.8-0.7v0c0-0.5-0.3-0.7-0.8-0.7h0L19.6,453.8L19.6,453.8L19.6,453.8z M21.7,449.1h2.1v0.9h-1.2v1.4h1v0.9h-1v1.4
		h1.2v0.9h-2.2V449.1z M24.4,449.1h1v4.7h1v0.9h-2L24.4,449.1L24.4,449.1z M26.5,452.1v-0.3c0-1.8,0.6-2.7,1.5-2.7s1.5,0.9,1.5,2.7
		v0.3c0,1.8-0.6,2.7-1.5,2.7S26.5,453.9,26.5,452.1z M28.5,452.1v-0.3c0-1.4-0.2-1.8-0.5-1.8s-0.5,0.4-0.5,1.8v0.3
		c0,1.4,0.2,1.8,0.5,1.8S28.5,453.5,28.5,452.1z M29.6,449.1h1l0.4,3.4l0.5-3.4h0.9l0.5,3.4l0.4-3.4h1l-0.8,5.6h-1l-0.5-3.3
		l-0.5,3.3h-1L29.6,449.1z"/>
	<path class="st2" d="M105.5,434.2l-0.6,0.2v-1l0.9-0.3h0.7v5.6h-1V434.2z M108.5,437.7h-1.5V437l1.5-3.8h1v3.7h0.5v0.8h-0.5v1h-0.9
		V437.7z M108.5,436.9v-2l-0.7,2H108.5z M110.1,436.1v-0.3c0-1.9,0.5-2.7,1.4-2.7c0.9,0,1.4,0.8,1.4,2.7v0.3c0,1.9-0.5,2.7-1.4,2.7
		C110.6,438.8,110.1,438,110.1,436.1z M111.9,436.1v-0.3c0-1.6-0.2-1.8-0.4-1.8c-0.2,0-0.4,0.3-0.4,1.8v0.3c0,1.6,0.2,1.8,0.4,1.8
		C111.7,437.9,111.9,437.7,111.9,436.1z M113.3,436.1v-0.3c0-1.9,0.5-2.7,1.4-2.7c0.9,0,1.4,0.8,1.4,2.7v0.3c0,1.9-0.5,2.7-1.4,2.7
		C113.7,438.8,113.3,438,113.3,436.1z M115.1,436.1v-0.3c0-1.6-0.2-1.8-0.4-1.8c-0.2,0-0.4,0.3-0.4,1.8v0.3c0,1.6,0.2,1.8,0.4,1.8
		C114.9,437.9,115.1,437.7,115.1,436.1z M116.4,436.1v-0.3c0-1.9,0.5-2.7,1.4-2.7c0.9,0,1.4,0.8,1.4,2.7v0.3c0,1.9-0.5,2.7-1.4,2.7
		C116.9,438.8,116.4,438,116.4,436.1z M118.2,436.1v-0.3c0-1.6-0.2-1.8-0.4-1.8c-0.2,0-0.4,0.3-0.4,1.8v0.3c0,1.6,0.2,1.8,0.4,1.8
		C118,437.9,118.2,437.7,118.2,436.1z M101.9,444.1v-0.3c0-1.8,0.6-2.7,1.5-2.7c0.9,0,1.5,0.9,1.5,2.7v0.3c0,1.8-0.6,2.7-1.5,2.7
		C102.5,446.8,101.9,445.9,101.9,444.1z M103.8,444.1v-0.3c0-1.4-0.2-1.8-0.5-1.8s-0.5,0.4-0.5,1.8v0.3c0,1.4,0.2,1.8,0.5,1.8
		S103.8,445.5,103.8,444.1z M105.3,441.1h0.9c1.1,0,1.8,0.6,1.8,1.9v0c0,1.3-0.7,1.9-1.7,1.9h0v1.8h-1V441.1z M106.3,444.1
		c0.4,0,0.7-0.3,0.7-1v0c0-0.7-0.3-1-0.7-1h0L106.3,444.1L106.3,444.1L106.3,444.1z M108.4,441.1h2.1v0.9h-1.2v1.4h1v0.9h-1v1.4h1.2
		v0.9h-2.2V441.1z M111,441.1h0.9l1,2.8v-2.8h1v5.6H113l-1-3v3h-1C111,446.7,111,441.1,111,441.1z M116.3,442.1h-0.7v-0.9h2.4v0.9
		h-0.7v4.7h-1L116.3,442.1L116.3,442.1z M118.1,444.1v-0.3c0-1.8,0.6-2.7,1.5-2.7s1.5,0.9,1.5,2.7v0.3c0,1.8-0.6,2.7-1.5,2.7
		S118.1,445.9,118.1,444.1z M120.1,444.1v-0.3c0-1.4-0.2-1.8-0.5-1.8s-0.5,0.4-0.5,1.8v0.3c0,1.4,0.2,1.8,0.5,1.8
		S120.1,445.5,120.1,444.1z M97.8,449.1h0.9c1.2,0,2,0.9,2,2.7v0.2c0,1.8-0.7,2.7-2,2.7h-0.9V449.1z M98.8,453.8
		c0.5,0,0.9-0.4,0.9-1.8v-0.2c0-1.4-0.4-1.8-0.9-1.8h0L98.8,453.8L98.8,453.8z M101.2,449.1h2.1v0.9h-1.2v1.4h1v0.9h-1v1.4h1.2v0.9
		h-2.2V449.1z M103.6,452v-0.2c0-2,0.7-2.7,1.6-2.7c0.3,0,0.4,0,0.6,0.1v1c-0.2-0.1-0.4-0.2-0.5-0.2c-0.4,0-0.7,0.4-0.7,1.8v0.2
		c0,1.5,0.3,1.8,0.8,1.8c0.2,0,0.3-0.1,0.5-0.2v1c-0.2,0.1-0.4,0.2-0.7,0.2C104.3,454.8,103.6,454,103.6,452z M106.4,449.1h1v2.3
		l0.8-2.3h1.1l-0.9,2.4l1,3.2h-1.1l-0.6-2.1l-0.2,0.6v1.5h-1L106.4,449.1L106.4,449.1z M110.9,449.1h0.8c0.9,0,1.8,0.4,1.8,1.4v0
		c0,0.7-0.4,1.1-0.8,1.3c0.5,0.2,0.9,0.5,0.9,1.2v0.1c0,1-0.8,1.6-1.9,1.6h-0.9V449.1z M111.9,451.5c0.4,0,0.7-0.2,0.7-0.7v0
		c0-0.5-0.3-0.7-0.7-0.7h0L111.9,451.5L111.9,451.5z M111.9,453.8c0.4,0,0.8-0.3,0.8-0.7v0c0-0.5-0.3-0.7-0.8-0.7h0L111.9,453.8
		L111.9,453.8L111.9,453.8z M114.1,449.1h2.1v0.9H115v1.4h1v0.9h-1v1.4h1.2v0.9h-2.2V449.1z M116.7,449.1h1v4.7h1v0.9h-2V449.1z
		 M118.8,452.1v-0.3c0-1.8,0.6-2.7,1.5-2.7s1.5,0.9,1.5,2.7v0.3c0,1.8-0.6,2.7-1.5,2.7S118.8,453.9,118.8,452.1z M120.8,452.1v-0.3
		c0-1.4-0.2-1.8-0.5-1.8s-0.5,0.4-0.5,1.8v0.3c0,1.4,0.2,1.8,0.5,1.8S120.8,453.5,120.8,452.1z M121.9,449.1h1l0.4,3.4l0.5-3.4h0.9
		l0.5,3.4l0.4-3.4h1l-0.8,5.6h-1l-0.5-3.3l-0.5,3.3h-1L121.9,449.1z"/>
	<path class="st2" d="M53.1,27.3h-0.7v-0.9h2.4v0.9h-0.7V32h-1L53.1,27.3L53.1,27.3z M55.2,26.4h1v2.3H57v-2.3h1V32h-1v-2.4h-0.8V32
		h-1V26.4z M58.6,26.4h2.1v0.9h-1.2v1.4h1v0.9h-1v1.4h1.2V32h-2.2V26.4z M62.5,26.4h1v2.3h0.8v-2.3h1V32h-1v-2.4h-0.8V32h-1V26.4z
		 M66.7,26.4h1l1.1,5.6h-1l-0.2-1.1h-0.9L66.5,32h-0.9L66.7,26.4z M67.5,30l-0.3-1.8L66.9,30H67.5z M68.7,26.4h1l0.5,3.6l0.5-3.6h1
		l-1,5.6h-1L68.7,26.4z M72,26.4h2.1v0.9H73v1.4h1v0.9h-1v1.4h1.2V32H72V26.4z M74.7,26.4h0.9l1,2.8v-2.8h1V32h-0.9l-1-3v3h-1
		C74.7,32,74.7,26.4,74.7,26.4z M54,39.8v-1c0.3,0.2,0.6,0.3,0.9,0.3c0.3,0,0.5-0.1,0.5-0.5v0c0-0.3-0.1-0.4-0.5-1
		c-0.7-0.8-0.9-1.1-0.9-1.8v0c0-0.9,0.6-1.5,1.4-1.5c0.4,0,0.6,0.1,0.9,0.2v1c-0.3-0.2-0.5-0.3-0.7-0.3c-0.3,0-0.5,0.2-0.5,0.5v0
		c0,0.3,0.1,0.4,0.5,0.9c0.8,0.9,0.9,1.2,0.9,1.9v0c0,0.9-0.6,1.5-1.4,1.5C54.6,40.1,54.3,40,54,39.8z M56.7,38.4v-4h1v4.1
		c0,0.5,0.2,0.7,0.4,0.7s0.4-0.2,0.4-0.7v-4.1h1v4c0,1.2-0.6,1.7-1.4,1.7C57.3,40.1,56.7,39.6,56.7,38.4z M60.1,34.4H61l1,2.8v-2.8
		h1V40H62l-1-3v3h-1C60.1,40,60.1,34.4,60.1,34.4z M64.8,34.4h0.9c1.2,0,2,0.9,2,2.7v0.2c0,1.8-0.7,2.7-2,2.7h-0.9V34.4z M65.8,39.1
		c0.5,0,0.9-0.4,0.9-1.8v-0.2c0-1.4-0.4-1.8-0.9-1.8h0L65.8,39.1L65.8,39.1z M68.1,34.4h2.1v0.9h-1.2v1.4h1v0.9h-1v1.4h1.2V40h-2.2
		V34.4z M70.6,37.3v-0.2c0-2,0.7-2.7,1.6-2.7c0.3,0,0.4,0,0.6,0.1v1c-0.2-0.1-0.4-0.2-0.5-0.2c-0.4,0-0.7,0.4-0.7,1.8v0.2
		c0,1.5,0.3,1.8,0.8,1.8c0.2,0,0.3-0.1,0.5-0.2v1c-0.2,0.1-0.4,0.2-0.7,0.2C71.2,40.1,70.6,39.3,70.6,37.3z M73.4,34.4h1v2.3
		l0.8-2.3h1.1l-0.9,2.4l1,3.2h-1.1l-0.6-2.1l-0.2,0.6V40h-1L73.4,34.4L73.4,34.4z"/>
</g>
<g id="JADE_DECK_15_ROOMS">
	<g id="gDeck15HavenDeluxeOwnersSuiteLargeBalconyH2">
		<g id="hDeck15HavenDeluxeOwnersSuiteLargeBalconyH2">
			<g id="g15000">
				<g id="h15000">
					<path id="b15000" class="st3" d="M50.6,402.1l-0.1,42.5v-13.8c0,0-18.3-18-23.7-23.4c6.8-3.3,23.7-5.3,23.7-5.3H50.6z
						 M80.3,402.1H50.6l-0.1,42.5l0,0h8.3h6v-3.9l15.7,0V434l0.1-31.9C80.4,402.1,80.3,402.1,80.3,402.1z M80.6,402.1L80.5,434v-3.7
						c0,0,20.4-20.1,23.4-23.1C96.4,404.2,82.8,402.4,80.6,402.1z"/>
					<path id="t15000" class="st2" d="M58.4,419.3l0.3-0.5h0.9v4.1h-0.5v-3.7H58.4z M62,419.3l-0.3,0.9l0.3,0c0.8,0,1.3,0.7,1.3,1.5
						c0,0.9-0.7,1.5-1.5,1.5c-0.5,0-1-0.3-1.2-0.7l0.4-0.4c0.1,0.4,0.5,0.6,0.9,0.6c0.5,0,1-0.5,1-1c0-0.5-0.4-1-1-1
						c-0.3,0-0.6,0.1-0.8,0.4h-0.1l0.6-2.1h1.6v0.5L62,419.3L62,419.3z M63.8,420.9c0-0.9,0.4-2.2,1.4-2.2c1.1,0,1.4,1.3,1.4,2.2
						c0,0.8-0.4,2.2-1.4,2.2S63.8,421.7,63.8,420.9z M64.3,420.9c0,0.6,0.2,1.7,0.9,1.7c0.7,0,0.9-1.1,0.9-1.7s-0.2-1.7-0.9-1.7
						C64.5,419.1,64.3,420.3,64.3,420.9z M67.1,420.9c0-0.9,0.4-2.2,1.4-2.2c1.1,0,1.4,1.3,1.4,2.2c0,0.8-0.4,2.2-1.4,2.2
						S67.1,421.7,67.1,420.9z M67.6,420.9c0,0.6,0.2,1.7,0.9,1.7s0.9-1.1,0.9-1.7s-0.2-1.7-0.9-1.7S67.6,420.3,67.6,420.9z
						 M70.4,420.9c0-0.9,0.4-2.2,1.4-2.2c1.1,0,1.4,1.3,1.4,2.2c0,0.8-0.4,2.2-1.4,2.2S70.4,421.7,70.4,420.9z M70.9,420.9
						c0,0.6,0.2,1.7,0.9,1.7c0.7,0,0.9-1.1,0.9-1.7s-0.2-1.7-0.9-1.7C71.1,419.1,70.9,420.3,70.9,420.9z"/>
				</g>
			</g>
		</g>
	</g>
</g>
<g id="JADE_DECK_15_TOP">
	<polyline class="st1" points="103.8,407.2 80.5,430.2 80.5,440.7 64.8,440.7 64.8,444.6 50.5,444.6 	"/>
	<polyline class="st1" points="26.8,407.3 50.5,430.7 50.5,473 	"/>
	<g id="gDeck15Locations">
		<polygon width="130.136" height="146.081" id="_x31_5Aft" class="st4" points="0.5,625.3 0.5,650.7 5.9,650.7 5.9,644.5 36.4,644.5 36.4,771.3 94.8,771.3 
			94.8,644.5 125.3,644.5 125.3,650.7 130.6,650.7 130.6,625.3 		"/>
		<polygon width="130.136" height="195.022" id="_x31_5MidShip" class="st4" points="130.6,430.2 80.5,430.2 80.5,440.7 64.8,440.7 64.8,444.6 50.5,444.6 50.5,430.7 
			0.5,430.7 0.5,625.3 130.6,625.3 		"/>
		<path width="130.136" height="444.0807" id="_x31_5Forward" class="st4" d="M50.5,430.7h-50v-6.8c18.5-20.3,51.7-21.6,51.7-21.6h7.9h11h7.9c0,0,33.2,1.3,51.7,21.6
			v6.3H80.5v10.4l-15.7,0v3.9H50.5V430.7z M101.4,0.5v59.3l-4.1,4.1H86.9v56.6H44.2V98h-5.7v-4h5.7V63.9H33.9l-4.1-4.1V0.5h31.6h8.5
			H101.4z"/>
	</g>
	<polygon class="st5" points="70.1,0.5 61.6,0.5 30,0.5 30,59.8 34.1,63.9 44.5,63.9 44.5,94 38.7,94 38.7,98 44.5,98 44.5,120.5 
		87.2,120.5 87.2,63.9 97.5,63.9 101.7,59.8 101.7,0.5 	"/>
	<path class="st5" d="M71,402.3h7.9c0,0,33.2,1.3,51.7,21.6v226.8h-5.4v-6.2H94.8v126.8H36.4V644.5H5.9v6.2H0.5V423.9
		c18.5-20.3,51.7-21.6,51.7-21.6h7.9H71z"/>
</g>
</svg>
