<?xml version="1.0" encoding="utf-8"?>
<!-- Generator: Adobe Illustrator 25.4.1, SVG Export Plug-In . SVG Version: 6.00 Build 0)  -->
<svg version="1.1" id="JEWEL_DECK_15" xmlns="http://www.w3.org/2000/svg" xmlns:xlink="http://www.w3.org/1999/xlink" x="0px"
	 y="0px" width="131.1px" height="771.8px" viewBox="0 0 131.1 771.8" style="enable-background:new 0 0 131.1 771.8;"
	 xml:space="preserve">
<style type="text/css">
	.st0{fill:#FFFFFF;}
	.st1{fill:none;stroke:#D5DCE0;stroke-width:0.5;}
	.st2{fill:#6E8496;}
	.st3{fill:#6E8396;}
	.st4{fill:#EFF2F5;stroke:#FFFFFF;stroke-width:0.5;stroke-miterlimit:10;}
	.st5{fill:none;}
	.st6{fill:none;stroke:#076FA0;stroke-miterlimit:10;}
</style>
<g id="JEWEL_DECK_15_BOTTOM">
	<polygon class="st0" points="30.2,0.7 101.6,0.7 101.6,59.5 97.6,64 87.2,63.9 87.2,120.4 44.4,120.4 44.4,98.5 38.6,98.5 
		38.6,94.2 44.2,94.2 44.2,64.2 33.9,64.2 29.7,59.7 	"/>
	<path class="st0" d="M36.7,771.4h58.4V644.6h30.5v6.2h5.4V424c0,0-13.5-21-64.5-22c-48.4-1-65.6,22.2-65.6,22.2v226.6l5.4,0.1
		l0-6.4h30.5V769L36.7,771.4L36.7,771.4z"/>
	<polyline class="st1" points="78.6,600.8 59.7,600.8 59.7,606.9 	"/>
	<line class="st1" x1="61.6" y1="600.9" x2="61.6" y2="607.1"/>
	<line class="st1" x1="62.9" y1="600.9" x2="62.9" y2="607.1"/>
	<line class="st1" x1="64.2" y1="600.9" x2="64.2" y2="607.1"/>
	<line class="st1" x1="65.5" y1="600.9" x2="65.5" y2="607.1"/>
	<line class="st1" x1="66.8" y1="600.9" x2="66.8" y2="607.1"/>
	<line class="st1" x1="68.1" y1="600.9" x2="68.1" y2="607.1"/>
	<line class="st1" x1="69.4" y1="600.9" x2="69.4" y2="607.1"/>
	<line class="st1" x1="70.7" y1="600.9" x2="70.7" y2="607.1"/>
	<line class="st1" x1="72" y1="600.9" x2="72" y2="607.1"/>
	<line class="st1" x1="73.3" y1="600.9" x2="73.3" y2="607.1"/>
	<line class="st1" x1="74.6" y1="600.9" x2="74.6" y2="607.1"/>
	<line class="st1" x1="75.9" y1="600.9" x2="75.9" y2="607.1"/>
	<line class="st1" x1="77.2" y1="600.9" x2="77.2" y2="607.1"/>
	<polyline class="st1" points="130.3,476.2 80.2,476.2 80.2,441.1 	"/>
	<polyline class="st1" points="0.1,476.4 50.7,476.4 50.7,473 	"/>
	<polyline class="st1" points="36.4,646.4 36.4,624.5 47.9,624.5 47.9,607 82.6,607 82.6,624.5 82.6,624.5 94.8,624.5 94.8,646.4 	
		"/>
	<polyline class="st1" points="28.4,406.9 50.7,430.5 50.7,473.3 51.1,473.3 65.4,473.3 65.6,441.1 65.6,441.1 80.2,441.1 
		80.1,429.7 102.4,406.9 	"/>
	<polyline class="st1" points="130.8,432.8 86.7,432.8 86.8,449 92.5,449 92.5,453.5 86.8,453.5 86.8,458.9 130.8,458.9 	"/>
	<path class="st1" d="M88.4,442.1c1-1.4,2.6-2.2,4.5-2.2c3,0,5.4,2.3,5.7,5.2h-4.6c0,0-0.4-1.1-1.1-1.1c-1.1-0.1-1.3,1.2-1.3,1.2
		v3.4h-3.9l0-4.2C87.7,444.4,87.8,442.7,88.4,442.1z"/>
	<line class="st1" x1="91.7" y1="447.4" x2="88" y2="447.4"/>
	<line class="st1" x1="91.7" y1="446.1" x2="88" y2="446.1"/>
	<line class="st1" x1="91.7" y1="445.1" x2="88" y2="445.1"/>
	<line class="st1" x1="98.3" y1="443.4" x2="94" y2="444.8"/>
	<line class="st1" x1="96.9" y1="441.6" x2="93.7" y2="444.4"/>
	<line class="st1" x1="95.3" y1="440.4" x2="93.2" y2="444.2"/>
	<line class="st1" x1="93.1" y1="440.1" x2="92.7" y2="444"/>
	<line class="st1" x1="91" y1="440.4" x2="92.4" y2="444"/>
	<line class="st1" x1="89.2" y1="441.5" x2="91.9" y2="444.3"/>
	<line class="st1" x1="88.3" y1="442.9" x2="91.7" y2="444.5"/>
	<path class="st1" d="M42.4,442.1c-1-1.4-2.6-2.2-4.5-2.2c-3,0-5.4,2.3-5.7,5.2h4.6c0,0,0.4-1.1,1.1-1.1c1.1-0.1,1.3,1.2,1.3,1.2
		v3.4h3.9l0-4.2C43.1,444.4,43,442.7,42.4,442.1z"/>
	<line class="st1" x1="39.2" y1="447.4" x2="42.8" y2="447.4"/>
	<line class="st1" x1="39.2" y1="446.1" x2="42.8" y2="446.1"/>
	<line class="st1" x1="39.2" y1="445.1" x2="42.8" y2="445.1"/>
	<line class="st1" x1="32.5" y1="443.4" x2="36.8" y2="444.8"/>
	<line class="st1" x1="34" y1="441.6" x2="37.1" y2="444.4"/>
	<line class="st1" x1="35.5" y1="440.4" x2="37.6" y2="444.2"/>
	<line class="st1" x1="37.7" y1="440.1" x2="38.1" y2="444"/>
	<line class="st1" x1="39.8" y1="440.4" x2="38.4" y2="444"/>
	<line class="st1" x1="41.6" y1="441.5" x2="38.9" y2="444.3"/>
	<line class="st1" x1="42.6" y1="442.9" x2="39.2" y2="444.5"/>
	<polyline class="st1" points="0.5,432.8 44,432.8 44,449 38.3,449 38.3,453.5 44,453.5 44,458.9 0.5,458.9 	"/>
	<polygon class="st1" points="90,596.5 89.9,516.8 40.4,516.8 40.2,596.8 90,596.8 	"/>
	<path class="st2" d="M8.8,463.7v-0.2c0-1.8,0.8-2.7,1.9-2.7c0.3,0,0.5,0.1,0.7,0.2v1c-0.2-0.1-0.5-0.2-0.7-0.2
		c-0.6,0-0.9,0.6-0.9,1.8v0.3c0,1.5,0.4,1.8,0.8,1.8c0,0,0,0,0.1,0v-1.4h-0.5v-0.9h1.4v3c-0.4,0.2-0.6,0.2-1,0.2
		C9.7,466.5,8.8,465.7,8.8,463.7z M13,460.8h1l1.1,5.6h-1l-0.2-1.1H13l-0.2,1.1h-0.9L13,460.8z M13.8,464.4l-0.3-1.8l-0.3,1.8H13.8z
		 M15.4,460.8h1c1,0,1.7,0.5,1.7,1.8v0.1c0,0.7-0.3,1.2-0.7,1.5l0.8,2.3h-1l-0.6-2h-0.2v2h-1L15.4,460.8L15.4,460.8L15.4,460.8z
		 M16.4,463.6c0.4,0,0.7-0.2,0.7-0.9v-0.1c0-0.7-0.3-0.9-0.8-0.9h0L16.4,463.6L16.4,463.6L16.4,463.6z M18.5,460.8h0.9
		c1.2,0,2,0.9,2,2.7v0.2c0,1.8-0.7,2.7-2,2.7h-0.9V460.8z M19.6,465.5c0.5,0,0.9-0.4,0.9-1.8v-0.2c0-1.4-0.4-1.8-0.9-1.8h0
		L19.6,465.5L19.6,465.5z M21.9,460.8H24v0.9h-1.2v1.4h1v0.9h-1v1.4h1.2v0.9h-2.2V460.8z M24.5,460.8h0.9l1,2.8v-2.8h1v5.6h-0.9
		l-1-3v3h-1V460.8z M29,460.8h1l0.5,3.6l0.5-3.6h1l-1,5.6h-1L29,460.8z M32.3,460.8h1v5.6h-1V460.8z M33.8,460.8h1v4.7h1v0.9h-2
		V460.8z M36.2,460.8h1v4.7h1v0.9h-2V460.8z M39.4,460.8h1l1.1,5.6h-1l-0.2-1.1h-0.9l-0.2,1.1h-0.9L39.4,460.8z M40.2,464.4
		l-0.3-1.8l-0.3,1.8H40.2z M4.7,468.8h0.9c1.1,0,1.8,0.6,1.8,1.9v0c0,1.3-0.7,1.9-1.7,1.9h0v1.8h-1V468.8z M5.7,471.8
		c0.4,0,0.7-0.3,0.7-1v0c0-0.7-0.3-1-0.7-1h0L5.7,471.8L5.7,471.8L5.7,471.8z M7.8,468.8h1c1,0,1.7,0.5,1.7,1.8v0.1
		c0,0.7-0.3,1.2-0.7,1.5l0.8,2.3h-1l-0.6-2H8.8v2h-1V468.8z M8.8,471.6c0.4,0,0.7-0.2,0.7-0.9v-0.1c0-0.7-0.3-0.9-0.8-0.9h0
		L8.8,471.6L8.8,471.6L8.8,471.6z M11,468.8h1v5.6h-1V468.8z M12.3,468.8h1l0.5,3.6l0.5-3.6h1l-1,5.6h-1L12.3,468.8z M16.2,468.8h1
		l1.1,5.6h-1l-0.2-1.1h-0.9l-0.2,1.1h-0.9L16.2,468.8z M17,472.4l-0.3-1.8l-0.3,1.8H17z M18.9,469.8h-0.7v-0.9h2.4v0.9h-0.7v4.7h-1
		L18.9,469.8L18.9,469.8z M20.9,468.8h2.1v0.9h-1.2v1.4h1v0.9h-1v1.4h1.2v0.9h-2.2V468.8z M24.7,474.2v-1c0.3,0.2,0.6,0.3,0.9,0.3
		c0.3,0,0.5-0.1,0.5-0.5v0c0-0.3-0.1-0.4-0.5-1c-0.7-0.8-0.9-1.1-0.9-1.8v0c0-0.9,0.6-1.5,1.4-1.5c0.4,0,0.6,0.1,0.9,0.2v1
		c-0.3-0.2-0.5-0.3-0.7-0.3c-0.3,0-0.5,0.2-0.5,0.5v0c0,0.3,0.1,0.4,0.5,0.9c0.8,0.9,0.9,1.2,0.9,1.9v0c0,0.9-0.6,1.5-1.4,1.5
		C25.3,474.5,25,474.4,24.7,474.2z M27.4,472.8v-4h1v4.1c0,0.5,0.2,0.7,0.4,0.7s0.4-0.2,0.4-0.7v-4.1h1v4c0,1.2-0.6,1.7-1.4,1.7
		C28,474.5,27.4,474,27.4,472.8z M30.8,468.8h0.9l1,2.8v-2.8h1v5.6h-0.9l-1-3v3h-1C30.8,474.4,30.8,468.8,30.8,468.8z M35.5,468.8
		h0.9c1.2,0,2,0.9,2,2.7v0.2c0,1.8-0.7,2.7-2,2.7h-0.9V468.8z M36.5,473.5c0.5,0,0.9-0.4,0.9-1.8v-0.2c0-1.4-0.4-1.8-0.9-1.8h0
		L36.5,473.5L36.5,473.5z M38.8,468.8H41v0.9h-1.2v1.4h1v0.9h-1v1.4H41v0.9h-2.2V468.8z M41.3,471.7v-0.2c0-2,0.7-2.7,1.6-2.7
		c0.3,0,0.4,0,0.6,0.1v1c-0.2-0.1-0.4-0.2-0.5-0.2c-0.4,0-0.7,0.4-0.7,1.8v0.2c0,1.5,0.3,1.8,0.8,1.8c0.2,0,0.3-0.1,0.5-0.2v1
		c-0.2,0.1-0.4,0.2-0.7,0.2C42,474.5,41.3,473.7,41.3,471.7z M44.1,468.8h1v2.3l0.8-2.3H47l-0.9,2.4l1,3.2h-1.1l-0.6-2.1l-0.2,0.6
		v1.5h-1V468.8z"/>
	<path class="st2" d="M88.4,463.7v-0.2c0-1.8,0.8-2.7,1.9-2.7c0.3,0,0.5,0.1,0.7,0.2v1c-0.2-0.1-0.5-0.2-0.7-0.2
		c-0.6,0-0.9,0.6-0.9,1.8v0.3c0,1.5,0.4,1.8,0.8,1.8c0,0,0,0,0.1,0v-1.4h-0.5v-0.9h1.4v3c-0.4,0.2-0.6,0.2-1,0.2
		C89.2,466.5,88.4,465.7,88.4,463.7z M92.5,460.8h1l1.1,5.6h-1l-0.2-1.1h-0.9l-0.2,1.1h-0.9L92.5,460.8z M93.3,464.4l-0.3-1.8
		l-0.3,1.8H93.3z M94.9,460.8h1c1,0,1.7,0.5,1.7,1.8v0.1c0,0.7-0.3,1.2-0.7,1.5l0.8,2.3h-1l-0.6-2h-0.2v2h-1L94.9,460.8L94.9,460.8z
		 M95.9,463.6c0.4,0,0.7-0.2,0.7-0.9v-0.1c0-0.7-0.3-0.9-0.8-0.9h0L95.9,463.6L95.9,463.6L95.9,463.6z M98.1,460.8H99
		c1.2,0,2,0.9,2,2.7v0.2c0,1.8-0.7,2.7-2,2.7h-0.9V460.8z M99.1,465.5c0.5,0,0.9-0.4,0.9-1.8v-0.2c0-1.4-0.4-1.8-0.9-1.8h0
		L99.1,465.5L99.1,465.5z M101.4,460.8h2.1v0.9h-1.2v1.4h1v0.9h-1v1.4h1.2v0.9h-2.2V460.8z M104.1,460.8h0.9l1,2.8v-2.8h1v5.6h-0.9
		l-1-3v3h-1L104.1,460.8L104.1,460.8z M108.5,460.8h1l0.5,3.6l0.5-3.6h1l-1,5.6h-1L108.5,460.8z M111.8,460.8h1v5.6h-1V460.8z
		 M113.4,460.8h1v4.7h1v0.9h-2C113.4,466.4,113.4,460.8,113.4,460.8z M115.8,460.8h1v4.7h1v0.9h-2
		C115.8,466.4,115.8,460.8,115.8,460.8z M118.9,460.8h1l1.1,5.6h-1l-0.2-1.1H119l-0.2,1.1h-0.9L118.9,460.8z M119.7,464.4l-0.3-1.8
		l-0.3,1.8H119.7z M84.2,468.8h0.9c1.1,0,1.8,0.6,1.8,1.9v0c0,1.3-0.7,1.9-1.7,1.9h0v1.8h-1V468.8z M85.2,471.8c0.4,0,0.7-0.3,0.7-1
		v0c0-0.7-0.3-1-0.7-1h0L85.2,471.8L85.2,471.8L85.2,471.8z M87.3,468.8h1c1,0,1.7,0.5,1.7,1.8v0.1c0,0.7-0.3,1.2-0.7,1.5l0.8,2.3
		h-1l-0.6-2h-0.2v2h-1C87.3,474.4,87.3,468.8,87.3,468.8z M88.3,471.6c0.4,0,0.7-0.2,0.7-0.9v-0.1c0-0.7-0.3-0.9-0.8-0.9h0
		L88.3,471.6L88.3,471.6L88.3,471.6z M90.5,468.8h1v5.6h-1V468.8z M91.8,468.8h1l0.5,3.6l0.5-3.6h1l-1,5.6h-1L91.8,468.8z
		 M95.7,468.8h1l1.1,5.6h-1l-0.2-1.1h-0.9l-0.2,1.1h-0.9L95.7,468.8z M96.5,472.4l-0.3-1.8l-0.3,1.8H96.5z M98.4,469.8h-0.7v-0.9
		h2.4v0.9h-0.7v4.7h-1C98.4,474.4,98.4,469.8,98.4,469.8z M100.5,468.8h2.1v0.9h-1.2v1.4h1v0.9h-1v1.4h1.2v0.9h-2.2V468.8z
		 M104.3,474.2v-1c0.3,0.2,0.6,0.3,0.9,0.3c0.3,0,0.5-0.1,0.5-0.5v0c0-0.3-0.1-0.4-0.5-1c-0.7-0.8-0.9-1.1-0.9-1.8v0
		c0-0.9,0.6-1.5,1.4-1.5c0.4,0,0.6,0.1,0.9,0.2v1c-0.3-0.2-0.5-0.3-0.7-0.3c-0.3,0-0.5,0.2-0.5,0.5v0c0,0.3,0.1,0.4,0.5,0.9
		c0.8,0.9,0.9,1.2,0.9,1.9v0c0,0.9-0.6,1.5-1.4,1.5C104.9,474.5,104.5,474.4,104.3,474.2z M107,472.8v-4h1v4.1
		c0,0.5,0.2,0.7,0.4,0.7s0.4-0.2,0.4-0.7v-4.1h1v4c0,1.2-0.6,1.7-1.4,1.7S107,474,107,472.8z M110.3,468.8h0.9l1,2.8v-2.8h1v5.6
		h-0.9l-1-3v3h-1V468.8z M115,468.8h0.9c1.2,0,2,0.9,2,2.7v0.2c0,1.8-0.7,2.7-2,2.7H115V468.8z M116,473.5c0.5,0,0.9-0.4,0.9-1.8
		v-0.2c0-1.4-0.4-1.8-0.9-1.8h0L116,473.5L116,473.5z M118.4,468.8h2.1v0.9h-1.2v1.4h1v0.9h-1v1.4h1.2v0.9h-2.2V468.8z M120.8,471.7
		v-0.2c0-2,0.7-2.7,1.6-2.7c0.3,0,0.4,0,0.6,0.1v1c-0.2-0.1-0.4-0.2-0.5-0.2c-0.4,0-0.7,0.4-0.7,1.8v0.2c0,1.5,0.3,1.8,0.8,1.8
		c0.2,0,0.3-0.1,0.5-0.2v1c-0.2,0.1-0.4,0.2-0.7,0.2C121.5,474.5,120.8,473.7,120.8,471.7z M123.6,468.8h1v2.3l0.8-2.3h1.1l-0.9,2.4
		l1,3.2h-1.1l-0.6-2.1l-0.2,0.6v1.5h-1L123.6,468.8L123.6,468.8z"/>
	<path class="st2" d="M11.4,436.2l-0.6,0.2v-1l0.9-0.3h0.7v5.6h-1V436.2z M14.4,439.7h-1.5V439l1.5-3.8h1v3.7h0.5v0.8h-0.5v1h-0.9
		V439.7z M14.4,438.9v-2l-0.7,2H14.4z M16,440.6v-1c0.2,0.1,0.4,0.2,0.6,0.2c0.5,0,0.7-0.4,0.7-1v-0.1c0-0.6-0.2-0.8-0.5-0.8
		c-0.1,0-0.2,0-0.4,0.1l-0.5-0.3l0.2-2.7h2v0.9h-1.3l-0.1,1.1c0.1,0,0.2,0,0.4,0c0.6,0,1.2,0.4,1.2,1.7v0.1c0,1.2-0.6,1.9-1.6,1.9
		C16.5,440.8,16.2,440.7,16,440.6z M18.6,438.1v-0.3c0-1.9,0.5-2.7,1.4-2.7c0.9,0,1.4,0.8,1.4,2.7v0.3c0,1.9-0.5,2.7-1.4,2.7
		C19.1,440.8,18.6,440,18.6,438.1z M20.4,438.1v-0.3c0-1.6-0.2-1.8-0.4-1.8c-0.2,0-0.4,0.3-0.4,1.8v0.3c0,1.6,0.2,1.8,0.4,1.8
		C20.3,439.9,20.4,439.7,20.4,438.1z M21.8,438.1v-0.3c0-1.9,0.5-2.7,1.4-2.7c0.9,0,1.4,0.8,1.4,2.7v0.3c0,1.9-0.5,2.7-1.4,2.7
		C22.3,440.8,21.8,440,21.8,438.1z M23.6,438.1v-0.3c0-1.6-0.2-1.8-0.4-1.8c-0.2,0-0.4,0.3-0.4,1.8v0.3c0,1.6,0.2,1.8,0.4,1.8
		C23.4,439.9,23.6,439.7,23.6,438.1z M7.5,446.1v-0.3c0-1.8,0.6-2.7,1.5-2.7c0.9,0,1.5,0.9,1.5,2.7v0.3c0,1.8-0.6,2.7-1.5,2.7
		C8.1,448.8,7.5,447.9,7.5,446.1z M9.5,446.1v-0.3c0-1.4-0.2-1.8-0.5-1.8s-0.5,0.4-0.5,1.8v0.3c0,1.4,0.2,1.8,0.5,1.8
		S9.5,447.5,9.5,446.1z M11,443.1h0.9c1.1,0,1.8,0.6,1.8,1.9v0c0,1.3-0.7,1.9-1.7,1.9h0v1.8h-1V443.1z M12,446.1
		c0.4,0,0.7-0.3,0.7-1v0c0-0.7-0.3-1-0.7-1h0L12,446.1L12,446.1L12,446.1z M14.1,443.1h2.1v0.9H15v1.4h1v0.9h-1v1.4h1.2v0.9h-2.2
		V443.1z M16.7,443.1h0.9l1,2.8v-2.8h1v5.6h-0.9l-1-3v3h-1V443.1z M21.9,444.1h-0.7v-0.9h2.4v0.9h-0.7v4.7h-1V444.1z M23.7,446.1
		v-0.3c0-1.8,0.6-2.7,1.5-2.7c0.9,0,1.5,0.9,1.5,2.7v0.3c0,1.8-0.6,2.7-1.5,2.7C24.3,448.8,23.7,447.9,23.7,446.1z M25.7,446.1v-0.3
		c0-1.4-0.2-1.8-0.5-1.8s-0.5,0.4-0.5,1.8v0.3c0,1.4,0.2,1.8,0.5,1.8S25.7,447.5,25.7,446.1z M3.5,451.1h0.9c1.2,0,2,0.9,2,2.7v0.2
		c0,1.8-0.7,2.7-2,2.7H3.5V451.1z M4.5,455.8c0.5,0,0.9-0.4,0.9-1.8v-0.2c0-1.4-0.4-1.8-0.9-1.8h0L4.5,455.8L4.5,455.8z M6.8,451.1
		H9v0.9H7.8v1.4h1v0.9h-1v1.4H9v0.9H6.8V451.1z M9.3,454v-0.2c0-2,0.7-2.7,1.6-2.7c0.3,0,0.4,0,0.6,0.1v1c-0.2-0.1-0.4-0.2-0.5-0.2
		c-0.4,0-0.7,0.4-0.7,1.8v0.2c0,1.5,0.3,1.8,0.8,1.8c0.2,0,0.3-0.1,0.5-0.2v1c-0.2,0.1-0.4,0.2-0.7,0.2C10,456.8,9.3,456,9.3,454z
		 M12.1,451.1h1v2.3l0.8-2.3h1.1l-0.9,2.4l1,3.2h-1.1l-0.6-2.1l-0.2,0.6v1.5h-1L12.1,451.1L12.1,451.1z M16.6,451.1h0.8
		c0.9,0,1.8,0.4,1.8,1.4v0c0,0.7-0.4,1.1-0.8,1.3c0.5,0.2,0.9,0.5,0.9,1.2v0.1c0,1-0.8,1.6-1.9,1.6h-0.9L16.6,451.1L16.6,451.1z
		 M17.6,453.5c0.4,0,0.7-0.2,0.7-0.7v0c0-0.5-0.3-0.7-0.7-0.7h0L17.6,453.5L17.6,453.5z M17.6,455.8c0.4,0,0.8-0.3,0.8-0.7v0
		c0-0.5-0.3-0.7-0.8-0.7h0L17.6,455.8L17.6,455.8L17.6,455.8z M19.7,451.1h2.1v0.9h-1.2v1.4h1v0.9h-1v1.4h1.2v0.9h-2.2V451.1z
		 M22.4,451.1h1v4.7h1v0.9h-2L22.4,451.1L22.4,451.1z M24.5,454.1v-0.3c0-1.8,0.6-2.7,1.5-2.7s1.5,0.9,1.5,2.7v0.3
		c0,1.8-0.6,2.7-1.5,2.7S24.5,455.9,24.5,454.1z M26.5,454.1v-0.3c0-1.4-0.2-1.8-0.5-1.8s-0.5,0.4-0.5,1.8v0.3
		c0,1.4,0.2,1.8,0.5,1.8S26.5,455.5,26.5,454.1z M27.6,451.1h1l0.4,3.4l0.5-3.4h0.9l0.5,3.4l0.4-3.4h1l-0.8,5.6h-1l-0.5-3.3
		l-0.5,3.3h-1L27.6,451.1z"/>
	<path class="st2" d="M107.5,436.2l-0.6,0.2v-1l0.9-0.3h0.7v5.6h-1V436.2z M110.5,439.7h-1.5V439l1.5-3.8h1v3.7h0.5v0.8h-0.5v1h-0.9
		V439.7z M110.5,438.9v-2l-0.7,2H110.5z M112.1,438.1v-0.3c0-1.9,0.5-2.7,1.4-2.7c0.9,0,1.4,0.8,1.4,2.7v0.3c0,1.9-0.5,2.7-1.4,2.7
		C112.6,440.8,112.1,440,112.1,438.1z M113.9,438.1v-0.3c0-1.6-0.2-1.8-0.4-1.8c-0.2,0-0.4,0.3-0.4,1.8v0.3c0,1.6,0.2,1.8,0.4,1.8
		C113.7,439.9,113.9,439.7,113.9,438.1z M115.3,438.1v-0.3c0-1.9,0.5-2.7,1.4-2.7c0.9,0,1.4,0.8,1.4,2.7v0.3c0,1.9-0.5,2.7-1.4,2.7
		C115.7,440.8,115.3,440,115.3,438.1z M117.1,438.1v-0.3c0-1.6-0.2-1.8-0.4-1.8c-0.2,0-0.4,0.3-0.4,1.8v0.3c0,1.6,0.2,1.8,0.4,1.8
		C116.9,439.9,117.1,439.7,117.1,438.1z M118.4,438.1v-0.3c0-1.9,0.5-2.7,1.4-2.7c0.9,0,1.4,0.8,1.4,2.7v0.3c0,1.9-0.5,2.7-1.4,2.7
		C118.9,440.8,118.4,440,118.4,438.1z M120.2,438.1v-0.3c0-1.6-0.2-1.8-0.4-1.8c-0.2,0-0.4,0.3-0.4,1.8v0.3c0,1.6,0.2,1.8,0.4,1.8
		C120,439.9,120.2,439.7,120.2,438.1z M103.9,446.1v-0.3c0-1.8,0.6-2.7,1.5-2.7c0.9,0,1.5,0.9,1.5,2.7v0.3c0,1.8-0.6,2.7-1.5,2.7
		C104.5,448.8,103.9,447.9,103.9,446.1z M105.8,446.1v-0.3c0-1.4-0.2-1.8-0.5-1.8s-0.5,0.4-0.5,1.8v0.3c0,1.4,0.2,1.8,0.5,1.8
		S105.8,447.5,105.8,446.1z M107.3,443.1h0.9c1.1,0,1.8,0.6,1.8,1.9v0c0,1.3-0.7,1.9-1.7,1.9h0v1.8h-1V443.1z M108.3,446.1
		c0.4,0,0.7-0.3,0.7-1v0c0-0.7-0.3-1-0.7-1h0L108.3,446.1L108.3,446.1L108.3,446.1z M110.4,443.1h2.1v0.9h-1.2v1.4h1v0.9h-1v1.4h1.2
		v0.9h-2.2V443.1z M113,443.1h0.9l1,2.8v-2.8h1v5.6H115l-1-3v3h-1C113,448.7,113,443.1,113,443.1z M118.3,444.1h-0.7v-0.9h2.4v0.9
		h-0.7v4.7h-1L118.3,444.1L118.3,444.1z M120.1,446.1v-0.3c0-1.8,0.6-2.7,1.5-2.7s1.5,0.9,1.5,2.7v0.3c0,1.8-0.6,2.7-1.5,2.7
		S120.1,447.9,120.1,446.1z M122.1,446.1v-0.3c0-1.4-0.2-1.8-0.5-1.8s-0.5,0.4-0.5,1.8v0.3c0,1.4,0.2,1.8,0.5,1.8
		S122.1,447.5,122.1,446.1z M99.8,451.1h0.9c1.2,0,2,0.9,2,2.7v0.2c0,1.8-0.7,2.7-2,2.7h-0.9V451.1z M100.8,455.8
		c0.5,0,0.9-0.4,0.9-1.8v-0.2c0-1.4-0.4-1.8-0.9-1.8h0L100.8,455.8L100.8,455.8z M103.2,451.1h2.1v0.9h-1.2v1.4h1v0.9h-1v1.4h1.2
		v0.9h-2.2V451.1z M105.6,454v-0.2c0-2,0.7-2.7,1.6-2.7c0.3,0,0.4,0,0.6,0.1v1c-0.2-0.1-0.4-0.2-0.5-0.2c-0.4,0-0.7,0.4-0.7,1.8v0.2
		c0,1.5,0.3,1.8,0.8,1.8c0.2,0,0.3-0.1,0.5-0.2v1c-0.2,0.1-0.4,0.2-0.7,0.2C106.3,456.8,105.6,456,105.6,454z M108.4,451.1h1v2.3
		l0.8-2.3h1.1l-0.9,2.4l1,3.2h-1.1l-0.6-2.1l-0.2,0.6v1.5h-1L108.4,451.1L108.4,451.1z M112.9,451.1h0.8c0.9,0,1.8,0.4,1.8,1.4v0
		c0,0.7-0.4,1.1-0.8,1.3c0.5,0.2,0.9,0.5,0.9,1.2v0.1c0,1-0.8,1.6-1.9,1.6h-0.9V451.1z M113.9,453.5c0.4,0,0.7-0.2,0.7-0.7v0
		c0-0.5-0.3-0.7-0.7-0.7h0L113.9,453.5L113.9,453.5z M113.9,455.8c0.4,0,0.8-0.3,0.8-0.7v0c0-0.5-0.3-0.7-0.8-0.7h0L113.9,455.8
		L113.9,455.8L113.9,455.8z M116.1,451.1h2.1v0.9H117v1.4h1v0.9h-1v1.4h1.2v0.9h-2.2V451.1z M118.7,451.1h1v4.7h1v0.9h-2V451.1z
		 M120.8,454.1v-0.3c0-1.8,0.6-2.7,1.5-2.7s1.5,0.9,1.5,2.7v0.3c0,1.8-0.6,2.7-1.5,2.7S120.8,455.9,120.8,454.1z M122.8,454.1v-0.3
		c0-1.4-0.2-1.8-0.5-1.8s-0.5,0.4-0.5,1.8v0.3c0,1.4,0.2,1.8,0.5,1.8S122.8,455.5,122.8,454.1z M123.9,451.1h1l0.4,3.4l0.5-3.4h0.9
		l0.5,3.4l0.4-3.4h1l-0.8,5.6h-1l-0.5-3.3l-0.5,3.3h-1L123.9,451.1z"/>
	<path class="st2" d="M41.9,19.3h-0.7v-0.9h2.4v0.9h-0.7V24h-1C41.9,24,41.9,19.3,41.9,19.3z M43.9,18.4h1v2.3h0.8v-2.3h1V24h-1
		v-2.4h-0.8V24h-1V18.4z M47.3,18.4h2.1v0.9h-1.2v1.4h1v0.9h-1v1.4h1.2V24h-2.2V18.4z M51.2,18.4h1v2.3h0.8v-2.3h1V24h-1v-2.4h-0.8
		V24h-1V18.4z M55.4,18.4h1l1.1,5.6h-1l-0.2-1.1h-0.9L55.3,24h-0.9L55.4,18.4z M56.2,22l-0.3-1.8L55.6,22H56.2z M57.4,18.4h1
		l0.5,3.6l0.5-3.6h1l-1,5.6h-1L57.4,18.4z M60.7,18.4h2.1v0.9h-1.2v1.4h1v0.9h-1v1.4h1.2V24h-2.2V18.4z M63.4,18.4h0.9l1,2.8v-2.8h1
		V24h-0.9l-1-3v3h-1C63.4,24,63.4,18.4,63.4,18.4z M67.9,23.8v-1c0.3,0.2,0.6,0.3,0.9,0.3c0.3,0,0.5-0.1,0.5-0.5v0
		c0-0.3-0.1-0.4-0.5-1c-0.7-0.8-0.9-1.1-0.9-1.8v0c0-0.9,0.6-1.5,1.4-1.5c0.4,0,0.6,0.1,0.9,0.2v1c-0.3-0.2-0.5-0.3-0.7-0.3
		c-0.3,0-0.5,0.2-0.5,0.5v0c0,0.3,0.1,0.4,0.5,0.9c0.8,0.9,0.9,1.2,0.9,1.9v0c0,0.9-0.6,1.5-1.4,1.5C68.6,24.1,68.2,24,67.9,23.8z
		 M70.7,22.4v-4h1v4.1c0,0.5,0.2,0.7,0.4,0.7c0.2,0,0.4-0.2,0.4-0.7v-4.1h1v4c0,1.2-0.6,1.7-1.4,1.7C71.2,24.1,70.7,23.6,70.7,22.4z
		 M74,18.4h0.9l1,2.8v-2.8h1V24H76l-1-3v3h-1C74,24,74,18.4,74,18.4z M78.7,18.4h0.9c1.2,0,2,0.9,2,2.7v0.2c0,1.8-0.7,2.7-2,2.7
		h-0.9V18.4z M79.7,23.1c0.5,0,0.9-0.4,0.9-1.8v-0.2c0-1.4-0.4-1.8-0.9-1.8h0L79.7,23.1C79.7,23.1,79.7,23.1,79.7,23.1z M82,18.4
		h2.1v0.9H83v1.4h1v0.9h-1v1.4h1.2V24H82V18.4z M84.5,21.3v-0.2c0-2,0.7-2.7,1.6-2.7c0.3,0,0.4,0,0.6,0.1v1
		c-0.2-0.1-0.4-0.2-0.5-0.2c-0.4,0-0.7,0.4-0.7,1.8v0.2c0,1.5,0.3,1.8,0.8,1.8c0.2,0,0.3-0.1,0.5-0.2v1c-0.2,0.1-0.4,0.2-0.7,0.2
		C85.2,24.1,84.5,23.3,84.5,21.3z M87.3,18.4h1v2.3l0.8-2.3h1.1l-0.9,2.4l1,3.2h-1.1l-0.6-2.1l-0.2,0.6V24h-1V18.4z"/>
	<line class="st1" x1="0.5" y1="533.5" x2="40.3" y2="533.5"/>
	<line class="st1" x1="0.5" y1="606.9" x2="130.4" y2="606.9"/>
	<line class="st1" x1="47.9" y1="624.5" x2="82.6" y2="624.5"/>
	<polyline class="st1" points="77.2,600.8 82.5,600.8 82.5,606.1 82.5,607 	"/>
	<line class="st1" x1="90" y1="533.5" x2="130.1" y2="533.5"/>
	<path class="st3" d="M7.9,559.1v-0.2c0-2,0.7-2.7,1.6-2.7c0.3,0,0.4,0,0.6,0.1v1c-0.2-0.1-0.4-0.2-0.5-0.2c-0.4,0-0.7,0.4-0.7,1.8
		v0.2c0,1.5,0.3,1.8,0.8,1.8c0.2,0,0.3-0.1,0.5-0.2v1c-0.2,0.1-0.4,0.2-0.7,0.2C8.6,561.8,7.9,561,7.9,559.1z M10.4,559.1v-0.3
		c0-1.8,0.6-2.7,1.5-2.7c0.9,0,1.5,0.9,1.5,2.7v0.3c0,1.8-0.6,2.7-1.5,2.7C11,561.8,10.4,561,10.4,559.1z M12.4,559.1v-0.3
		c0-1.4-0.2-1.8-0.5-1.8s-0.5,0.4-0.5,1.8v0.3c0,1.4,0.2,1.8,0.5,1.8S12.4,560.6,12.4,559.1z M13.8,560.1v-4h1v4.1
		c0,0.5,0.2,0.7,0.4,0.7s0.4-0.2,0.4-0.7v-4.1h1v4c0,1.2-0.6,1.7-1.4,1.7C14.4,561.8,13.8,561.3,13.8,560.1z M17.2,556.2h1
		c1,0,1.7,0.5,1.7,1.8v0.1c0,0.7-0.3,1.2-0.7,1.5l0.8,2.3h-1l-0.6-2h-0.2v2h-1C17.2,561.8,17.2,556.2,17.2,556.2z M18.2,558.9
		c0.4,0,0.7-0.2,0.7-0.9V558c0-0.7-0.3-0.9-0.8-0.9h0L18.2,558.9L18.2,558.9z M20.8,557.1h-0.7v-0.9h2.4v0.9h-0.7v4.7h-1L20.8,557.1
		L20.8,557.1z M23.5,559.6l-1-3.4h1l0.5,2.1l0.5-2.1h1l-1,3.4v2.2h-1L23.5,559.6L23.5,559.6z M26.3,556.2h1l1.1,5.6h-1l-0.2-1.1
		h-0.9l-0.2,1.1h-0.9L26.3,556.2z M27.1,559.8l-0.3-1.8l-0.3,1.8H27.1z M28.7,556.2h1c1,0,1.7,0.5,1.7,1.8v0.1
		c0,0.7-0.3,1.2-0.7,1.5l0.8,2.3h-1l-0.6-2h-0.2v2h-1L28.7,556.2L28.7,556.2z M29.7,558.9c0.4,0,0.7-0.2,0.7-0.9V558
		c0-0.7-0.3-0.9-0.8-0.9h0L29.7,558.9L29.7,558.9z M31.9,556.2h0.9c1.2,0,2,0.9,2,2.7v0.2c0,1.8-0.7,2.7-2,2.7h-0.9
		C31.9,561.8,31.9,556.2,31.9,556.2z M32.9,560.9c0.5,0,0.9-0.4,0.9-1.8v-0.2c0-1.4-0.4-1.8-0.9-1.8h0L32.9,560.9L32.9,560.9z
		 M13.8,564.2h1l0.5,3.6l0.5-3.6h1l-1,5.6h-1L13.8,564.2z M17.1,564.2h1v5.6h-1V564.2z M18.6,564.2h1v4.7h1v0.9h-2V564.2z M21,564.2
		h1v4.7h1v0.9h-2V564.2z M24.2,564.2h1l1.1,5.6h-1l-0.2-1.1h-0.9l-0.2,1.1h-0.9L24.2,564.2z M25,567.8l-0.3-1.8l-0.3,1.8H25z
		 M26.5,569.6v-1c0.3,0.2,0.6,0.3,0.9,0.3c0.3,0,0.5-0.1,0.5-0.5v0c0-0.3-0.1-0.4-0.5-1c-0.7-0.8-0.9-1.1-0.9-1.8v0
		c0-0.9,0.6-1.5,1.4-1.5c0.4,0,0.6,0.1,0.9,0.2v1c-0.3-0.2-0.5-0.3-0.7-0.3c-0.3,0-0.5,0.2-0.5,0.5v0c0,0.3,0.1,0.4,0.5,0.9
		c0.8,0.9,0.9,1.2,0.9,1.9v0c0,0.9-0.6,1.5-1.4,1.5C27.1,569.8,26.8,569.7,26.5,569.6z M12.2,572.2H13c1.1,0,1.8,0.6,1.8,1.9v0
		c0,1.3-0.7,1.9-1.7,1.9h0v1.8h-1V572.2z M13.2,575.1c0.4,0,0.7-0.3,0.7-1v0c0-0.7-0.3-1-0.7-1h0L13.2,575.1L13.2,575.1L13.2,575.1z
		 M15.3,572.2h1c1,0,1.7,0.5,1.7,1.8v0.1c0,0.7-0.3,1.2-0.7,1.5l0.8,2.3h-1l-0.6-2h-0.2v2h-1L15.3,572.2L15.3,572.2z M16.3,574.9
		c0.4,0,0.7-0.2,0.7-0.9V574c0-0.7-0.3-0.9-0.8-0.9h0L16.3,574.9L16.3,574.9z M18.5,572.2h1v5.6h-1V572.2z M19.7,572.2h1l0.5,3.6
		l0.5-3.6h1l-1,5.6h-1L19.7,572.2z M23.7,572.2h1l1.1,5.6h-1l-0.2-1.1h-0.9l-0.2,1.1h-0.9L23.7,572.2z M24.5,575.8l-0.3-1.8
		l-0.3,1.8H24.5z M26.3,573.1h-0.7v-0.9H28v0.9h-0.7v4.7h-1L26.3,573.1L26.3,573.1z M28.4,572.2h2.1v0.9h-1.2v1.4h1v0.9h-1v1.4h1.2
		v0.9h-2.2V572.2z M10.3,585.6v-1c0.3,0.2,0.6,0.3,0.9,0.3c0.3,0,0.5-0.1,0.5-0.5v0c0-0.3-0.1-0.4-0.5-1c-0.7-0.8-0.9-1.1-0.9-1.8v0
		c0-0.9,0.6-1.5,1.4-1.5c0.4,0,0.6,0.1,0.9,0.2v1c-0.3-0.2-0.5-0.3-0.7-0.3c-0.3,0-0.5,0.2-0.5,0.5v0c0,0.3,0.1,0.4,0.5,0.9
		c0.8,0.9,0.9,1.2,0.9,1.9v0c0,0.9-0.6,1.5-1.4,1.5C10.9,585.8,10.6,585.7,10.3,585.6z M13,584.1v-4h1v4.1c0,0.5,0.2,0.7,0.4,0.7
		c0.2,0,0.4-0.2,0.4-0.7v-4.1h1v4c0,1.2-0.6,1.7-1.4,1.7S13,585.3,13,584.1z M16.3,580.2h0.9l1,2.8v-2.8h1v5.6h-0.9l-1-3v3h-1V580.2
		z M21,580.2h0.9c1.2,0,2,0.9,2,2.7v0.2c0,1.8-0.7,2.7-2,2.7H21V580.2z M22,584.9c0.5,0,0.9-0.4,0.9-1.8v-0.2c0-1.4-0.4-1.8-0.9-1.8
		h0L22,584.9L22,584.9z M24.4,580.2h2.1v0.9h-1.2v1.4h1v0.9h-1v1.4h1.2v0.9h-2.2V580.2z M26.8,583.1v-0.2c0-2,0.7-2.7,1.6-2.7
		c0.3,0,0.4,0,0.6,0.1v1c-0.2-0.1-0.4-0.2-0.5-0.2c-0.4,0-0.7,0.4-0.7,1.8v0.2c0,1.5,0.3,1.8,0.8,1.8c0.2,0,0.3-0.1,0.5-0.2v1
		c-0.2,0.1-0.4,0.2-0.7,0.2C27.5,585.8,26.8,585,26.8,583.1z M29.6,580.2h1v2.3l0.8-2.3h1.1l-0.9,2.4l1,3.2h-1.1l-0.6-2.1l-0.2,0.6
		v1.5h-1L29.6,580.2L29.6,580.2z"/>
	<path class="st3" d="M96.3,559.1v-0.2c0-2,0.7-2.7,1.6-2.7c0.3,0,0.4,0,0.6,0.1v1c-0.2-0.1-0.4-0.2-0.5-0.2c-0.4,0-0.7,0.4-0.7,1.8
		v0.2c0,1.5,0.3,1.8,0.8,1.8c0.2,0,0.3-0.1,0.5-0.2v1c-0.2,0.1-0.4,0.2-0.7,0.2C96.9,561.8,96.3,561,96.3,559.1z M98.7,559.1v-0.3
		c0-1.8,0.6-2.7,1.5-2.7s1.5,0.9,1.5,2.7v0.3c0,1.8-0.6,2.7-1.5,2.7S98.7,561,98.7,559.1z M100.7,559.1v-0.3c0-1.4-0.2-1.8-0.5-1.8
		s-0.5,0.4-0.5,1.8v0.3c0,1.4,0.2,1.8,0.5,1.8S100.7,560.6,100.7,559.1z M102.2,560.1v-4h1v4.1c0,0.5,0.2,0.7,0.4,0.7
		c0.2,0,0.4-0.2,0.4-0.7v-4.1h1v4c0,1.2-0.6,1.7-1.4,1.7C102.8,561.8,102.2,561.3,102.2,560.1z M105.5,556.2h1c1,0,1.7,0.5,1.7,1.8
		v0.1c0,0.7-0.3,1.2-0.7,1.5l0.8,2.3h-1l-0.6-2h-0.2v2h-1V556.2z M106.6,558.9c0.4,0,0.7-0.2,0.7-0.9V558c0-0.7-0.3-0.9-0.8-0.9h0
		L106.6,558.9L106.6,558.9z M109.2,557.1h-0.7v-0.9h2.4v0.9h-0.7v4.7h-1L109.2,557.1L109.2,557.1z M111.9,559.6l-1-3.4h1l0.5,2.1
		l0.5-2.1h1l-1,3.4v2.2h-1L111.9,559.6L111.9,559.6z M114.7,556.2h1l1.1,5.6h-1l-0.2-1.1h-0.9l-0.2,1.1h-0.9L114.7,556.2z
		 M115.5,559.8l-0.3-1.8l-0.3,1.8H115.5z M117.1,556.2h1c1,0,1.7,0.5,1.7,1.8v0.1c0,0.7-0.3,1.2-0.7,1.5l0.8,2.3h-1l-0.6-2H118v2h-1
		V556.2z M118.1,558.9c0.4,0,0.7-0.2,0.7-0.9V558c0-0.7-0.3-0.9-0.8-0.9h0L118.1,558.9L118.1,558.9z M120.3,556.2h0.9
		c1.2,0,2,0.9,2,2.7v0.2c0,1.8-0.7,2.7-2,2.7h-0.9V556.2z M121.3,560.9c0.5,0,0.9-0.4,0.9-1.8v-0.2c0-1.4-0.4-1.8-0.9-1.8h0
		L121.3,560.9L121.3,560.9z M102.1,564.2h1l0.5,3.6l0.5-3.6h1l-1,5.6h-1L102.1,564.2z M105.4,564.2h1v5.6h-1V564.2z M107,564.2h1
		v4.7h1v0.9h-2C107,569.8,107,564.2,107,564.2z M109.4,564.2h1v4.7h1v0.9h-2C109.4,569.8,109.4,564.2,109.4,564.2z M112.6,564.2h1
		l1.1,5.6h-1l-0.2-1.1h-0.9l-0.2,1.1h-0.9L112.6,564.2z M113.4,567.8l-0.3-1.8l-0.3,1.8H113.4z M114.8,569.6v-1
		c0.3,0.2,0.6,0.3,0.9,0.3c0.3,0,0.5-0.1,0.5-0.5v0c0-0.3-0.1-0.4-0.5-1c-0.7-0.8-0.9-1.1-0.9-1.8v0c0-0.9,0.6-1.5,1.4-1.5
		c0.4,0,0.6,0.1,0.9,0.2v1c-0.3-0.2-0.5-0.3-0.7-0.3c-0.3,0-0.5,0.2-0.5,0.5v0c0,0.3,0.1,0.4,0.5,0.9c0.8,0.9,0.9,1.2,0.9,1.9v0
		c0,0.9-0.6,1.5-1.4,1.5C115.4,569.8,115.1,569.7,114.8,569.6z M100.5,572.2h0.9c1.1,0,1.8,0.6,1.8,1.9v0c0,1.3-0.7,1.9-1.7,1.9h0
		v1.8h-1V572.2z M101.5,575.1c0.4,0,0.7-0.3,0.7-1v0c0-0.7-0.3-1-0.7-1h0L101.5,575.1L101.5,575.1L101.5,575.1z M103.6,572.2h1
		c1,0,1.7,0.5,1.7,1.8v0.1c0,0.7-0.3,1.2-0.7,1.5l0.8,2.3h-1l-0.6-2h-0.2v2h-1V572.2z M104.6,574.9c0.4,0,0.7-0.2,0.7-0.9V574
		c0-0.7-0.3-0.9-0.8-0.9h0L104.6,574.9L104.6,574.9z M106.8,572.2h1v5.6h-1V572.2z M108.1,572.2h1l0.5,3.6l0.5-3.6h1l-1,5.6h-1
		L108.1,572.2z M112,572.2h1l1.1,5.6h-1l-0.2-1.1h-0.9l-0.2,1.1H111L112,572.2z M112.8,575.8l-0.3-1.8l-0.3,1.8H112.8z M114.7,573.1
		H114v-0.9h2.4v0.9h-0.7v4.7h-1L114.7,573.1L114.7,573.1z M116.8,572.2h2.1v0.9h-1.2v1.4h1v0.9h-1v1.4h1.2v0.9h-2.2V572.2z
		 M98.6,585.6v-1c0.3,0.2,0.6,0.3,0.9,0.3c0.3,0,0.5-0.1,0.5-0.5v0c0-0.3-0.1-0.4-0.5-1c-0.7-0.8-0.9-1.1-0.9-1.8v0
		c0-0.9,0.6-1.5,1.4-1.5c0.4,0,0.6,0.1,0.9,0.2v1c-0.3-0.2-0.5-0.3-0.7-0.3c-0.3,0-0.5,0.2-0.5,0.5v0c0,0.3,0.1,0.4,0.5,0.9
		c0.8,0.9,0.9,1.2,0.9,1.9v0c0,0.9-0.6,1.5-1.4,1.5C99.2,585.8,98.9,585.7,98.6,585.6z M101.3,584.1v-4h1v4.1c0,0.5,0.2,0.7,0.4,0.7
		s0.4-0.2,0.4-0.7v-4.1h1v4c0,1.2-0.6,1.7-1.4,1.7S101.3,585.3,101.3,584.1z M104.7,580.2h0.9l1,2.8v-2.8h1v5.6h-0.9l-1-3v3h-1
		C104.7,585.8,104.7,580.2,104.7,580.2z M109.4,580.2h0.9c1.2,0,2,0.9,2,2.7v0.2c0,1.8-0.7,2.7-2,2.7h-0.9V580.2z M110.4,584.9
		c0.5,0,0.9-0.4,0.9-1.8v-0.2c0-1.4-0.4-1.8-0.9-1.8h0L110.4,584.9L110.4,584.9z M112.7,580.2h2.1v0.9h-1.2v1.4h1v0.9h-1v1.4h1.2
		v0.9h-2.2V580.2z M115.2,583.1v-0.2c0-2,0.7-2.7,1.6-2.7c0.3,0,0.4,0,0.6,0.1v1c-0.2-0.1-0.4-0.2-0.5-0.2c-0.4,0-0.7,0.4-0.7,1.8
		v0.2c0,1.5,0.3,1.8,0.8,1.8c0.2,0,0.3-0.1,0.5-0.2v1c-0.2,0.1-0.4,0.2-0.7,0.2C115.9,585.8,115.2,585,115.2,583.1z M118,580.2h1
		v2.3l0.8-2.3h1.1l-0.9,2.4l1,3.2h-1.1l-0.6-2.1l-0.2,0.6v1.5h-1L118,580.2L118,580.2z"/>
	<path class="st3" d="M55.5,549.9v-0.3c0-1.8,0.6-2.7,1.5-2.7c0.9,0,1.5,0.9,1.5,2.7v0.3c0,1.8-0.6,2.7-1.5,2.7
		C56.1,552.7,55.5,551.8,55.5,549.9z M57.5,549.9v-0.3c0-1.4-0.2-1.8-0.5-1.8c-0.3,0-0.5,0.4-0.5,1.8v0.3c0,1.4,0.2,1.8,0.5,1.8
		C57.3,551.8,57.5,551.4,57.5,549.9z M59,547h0.9c1.1,0,1.8,0.6,1.8,1.9v0c0,1.3-0.7,1.9-1.7,1.9h0v1.8h-1V547z M60,549.9
		c0.4,0,0.7-0.3,0.7-1v0c0-0.7-0.3-1-0.7-1h0L60,549.9L60,549.9L60,549.9z M62,547h2.1v0.9H63v1.4h1v0.9h-1v1.4h1.2v0.9H62
		C62,552.6,62,547,62,547z M64.7,547h0.9l1,2.8V547h1v5.6h-0.9l-1-3v3h-1L64.7,547L64.7,547z M69.9,547.9h-0.7V547h2.4v0.9h-0.7v4.7
		h-1V547.9z M71.7,549.9v-0.3c0-1.8,0.6-2.7,1.5-2.7c0.9,0,1.5,0.9,1.5,2.7v0.3c0,1.8-0.6,2.7-1.5,2.7S71.7,551.8,71.7,549.9z
		 M73.7,549.9v-0.3c0-1.4-0.2-1.8-0.5-1.8s-0.5,0.4-0.5,1.8v0.3c0,1.4,0.2,1.8,0.5,1.8S73.7,551.4,73.7,549.9z M50.8,555h0.9
		c1.2,0,2,0.9,2,2.7v0.2c0,1.8-0.7,2.7-2,2.7h-0.9V555z M51.9,559.7c0.5,0,0.9-0.4,0.9-1.8v-0.2c0-1.4-0.4-1.8-0.9-1.8h0L51.9,559.7
		L51.9,559.7z M54.2,555h2.1v0.9h-1.2v1.4h1v0.9h-1v1.4h1.2v0.9h-2.2V555z M56.7,557.9v-0.2c0-2,0.7-2.7,1.6-2.7
		c0.3,0,0.4,0,0.6,0.1v1c-0.2-0.1-0.4-0.2-0.5-0.2c-0.4,0-0.7,0.4-0.7,1.8v0.2c0,1.5,0.3,1.8,0.8,1.8c0.2,0,0.3-0.1,0.5-0.2v1
		c-0.2,0.1-0.4,0.2-0.7,0.2C57.3,560.6,56.7,559.8,56.7,557.9z M59.4,555h1v2.3l0.8-2.3h1.1l-0.9,2.4l1,3.2h-1.1l-0.6-2.1l-0.2,0.6
		v1.5h-1V555z M63.9,555h0.8c0.9,0,1.8,0.4,1.8,1.4v0c0,0.7-0.4,1.1-0.8,1.3c0.5,0.2,0.9,0.5,0.9,1.2v0.1c0,1-0.8,1.6-1.9,1.6h-0.9
		L63.9,555L63.9,555z M64.9,557.3c0.4,0,0.7-0.2,0.7-0.7v0c0-0.5-0.3-0.7-0.7-0.7h0L64.9,557.3L64.9,557.3z M64.9,559.7
		c0.4,0,0.8-0.3,0.8-0.7v0c0-0.5-0.3-0.7-0.8-0.7h0L64.9,559.7L64.9,559.7L64.9,559.7z M67.1,555h2.1v0.9h-1.2v1.4h1v0.9h-1v1.4h1.2
		v0.9h-2.2V555z M69.7,555h1v4.7h1v0.9h-2C69.7,560.6,69.7,555,69.7,555z M71.8,557.9v-0.3c0-1.8,0.6-2.7,1.5-2.7s1.5,0.9,1.5,2.7
		v0.3c0,1.8-0.6,2.7-1.5,2.7S71.8,559.8,71.8,557.9z M73.8,557.9v-0.3c0-1.4-0.2-1.8-0.5-1.8s-0.5,0.4-0.5,1.8v0.3
		c0,1.4,0.2,1.8,0.5,1.8S73.8,559.4,73.8,557.9z M74.9,555h1l0.4,3.4l0.5-3.4h0.9l0.5,3.4l0.4-3.4h1l-0.8,5.6h-1l-0.5-3.3l-0.5,3.3
		h-1L74.9,555z"/>
</g>
<g id="JEWEL_DECK_15_ROOMS">
	<g id="gDeck15HavenDeluxeOwnersSuiteLargeBalconyH2">
		<g id="hDeck15HavenDeluxeOwnersSuiteLargeBalconyH2">
			<g id="g15000">
				<g id="h15000">
					<path id="b15000" class="st4" d="M68.5,402.2c-0.1,0-2.8,0-2.9,0v39l14.5-0.1l-0.1-11.4l22.3-22.8
						C102.4,406.9,93.5,402.2,68.5,402.2z"/>
					<path id="t15000" class="st2" d="M73.5,410.9l0.3-0.5h0.9v4.1h-0.5v-3.7H73.5z M77.1,410.9l-0.3,0.9l0.3,0
						c0.8,0,1.3,0.7,1.3,1.4c0,0.9-0.7,1.5-1.5,1.5c-0.5,0-1-0.3-1.2-0.7l0.4-0.4c0.1,0.4,0.5,0.6,0.9,0.6c0.5,0,1-0.5,1-1
						c0-0.5-0.4-1-1-1c-0.3,0-0.6,0.1-0.8,0.4h-0.1l0.6-2.1h1.6v0.5L77.1,410.9L77.1,410.9z M78.9,412.5c0-0.9,0.4-2.2,1.4-2.2
						c1.1,0,1.4,1.3,1.4,2.2c0,0.8-0.4,2.2-1.4,2.2S78.9,413.3,78.9,412.5z M79.4,412.5c0,0.6,0.2,1.7,0.9,1.7
						c0.7,0,0.9-1.1,0.9-1.7s-0.2-1.7-0.9-1.7C79.6,410.8,79.4,411.9,79.4,412.5z M82.2,412.5c0-0.9,0.4-2.2,1.4-2.2
						c1.1,0,1.4,1.3,1.4,2.2c0,0.8-0.4,2.2-1.4,2.2S82.2,413.3,82.2,412.5z M82.7,412.5c0,0.6,0.2,1.7,0.9,1.7s0.9-1.1,0.9-1.7
						s-0.2-1.7-0.9-1.7S82.7,411.9,82.7,412.5z M85.5,412.5c0-0.9,0.4-2.2,1.4-2.2c1.1,0,1.4,1.3,1.4,2.2c0,0.8-0.4,2.2-1.4,2.2
						S85.5,413.3,85.5,412.5z M86,412.5c0,0.6,0.2,1.7,0.9,1.7c0.7,0,0.9-1.1,0.9-1.7s-0.2-1.7-0.9-1.7
						C86.2,410.8,86,411.9,86,412.5z"/>
				</g>
			</g>
			<g id="g15500">
				<g id="h15500">
					<path id="b15500" class="st4" d="M28.6,407.1l22.2,23.4v42.8l14.7,0l0.3-28.3v-3.9v-38.8C40.9,402.2,35.9,405,28.6,407.1z"/>
					<path id="t15500" class="st2" d="M43.6,410.9l0.3-0.5h0.9v4.1h-0.5v-3.7H43.6z M47.2,410.9l-0.3,0.9l0.3,0
						c0.8,0,1.3,0.7,1.3,1.4c0,0.9-0.7,1.5-1.5,1.5c-0.5,0-1-0.3-1.2-0.7l0.4-0.4c0.1,0.4,0.5,0.6,0.9,0.6c0.5,0,1-0.5,1-1
						c0-0.5-0.4-1-1-1c-0.3,0-0.6,0.1-0.8,0.4h-0.1l0.6-2.1h1.6v0.5L47.2,410.9L47.2,410.9z M50.4,410.9l-0.3,0.9l0.3,0
						c0.8,0,1.3,0.7,1.3,1.4c0,0.9-0.7,1.5-1.5,1.5c-0.5,0-1-0.3-1.2-0.7l0.4-0.4c0.1,0.4,0.5,0.6,0.9,0.6c0.5,0,1-0.5,1-1
						c0-0.5-0.4-1-1-1c-0.3,0-0.6,0.1-0.8,0.4h-0.1l0.6-2.1h1.6v0.5L50.4,410.9L50.4,410.9z M52.1,412.5c0-0.9,0.4-2.2,1.4-2.2
						s1.4,1.3,1.4,2.2c0,0.8-0.4,2.2-1.4,2.2S52.1,413.3,52.1,412.5z M52.6,412.5c0,0.6,0.2,1.7,0.9,1.7c0.7,0,0.9-1.1,0.9-1.7
						s-0.2-1.7-0.9-1.7C52.8,410.8,52.6,411.9,52.6,412.5z M55.4,412.5c0-0.9,0.4-2.2,1.4-2.2s1.4,1.3,1.4,2.2
						c0,0.8-0.4,2.2-1.4,2.2S55.4,413.3,55.4,412.5z M55.9,412.5c0,0.6,0.2,1.7,0.9,1.7s0.9-1.1,0.9-1.7s-0.2-1.7-0.9-1.7
						S55.9,411.9,55.9,412.5z"/>
				</g>
			</g>
		</g>
	</g>
</g>
<g id="JEWEL_DECK_15_TOP">
	<line class="st1" x1="50.9" y1="455.2" x2="65.4" y2="455.2"/>
	<line class="st1" x1="50.9" y1="457.5" x2="65.4" y2="457.5"/>
	<line class="st1" x1="50.9" y1="459.8" x2="65.4" y2="459.8"/>
	<line class="st1" x1="50.9" y1="462.1" x2="65.4" y2="462.1"/>
	<line class="st1" x1="50.9" y1="464.4" x2="65.4" y2="464.4"/>
	<line class="st1" x1="50.9" y1="466.7" x2="65.4" y2="466.7"/>
	<line class="st1" x1="50.9" y1="469.1" x2="65.4" y2="469.1"/>
	<line class="st1" x1="50.9" y1="471.4" x2="65.4" y2="471.4"/>
	<path class="st1" d="M57.9,455.1v-25.8h5.9c9.1,0,7.7,9.5,1.4,9.5"/>
	<g id="gDeck15Locations">
		<polygon width="130.136" height="146.835" id="_x31_5Aft" class="st5" points="0.5,650.7 5.9,650.7 5.9,644.5 36.4,644.5 36.4,771.3 94.8,771.3 94.8,644.5 
			125.3,644.5 125.3,650.7 130.6,650.7 130.6,624.5 0.5,624.5 		"/>
		<rect width="130.136" height="148.073" id="_x31_5MidShip" x="0.5" y="476.4" class="st5"/>
		<path width="130.136" height="475.935" id="_x31_5Forward" class="st5" d="M130.6,476.4H0.5v-52.5c18.5-20.3,51.7-21.6,51.7-21.6h7.9h11h7.9c0,0,33.2,1.3,51.7,21.6
			V476.4z M101.7,0.5v59.3l-4.1,4.1H87.2v56.6H44.5V98h-5.7v-4h5.7V63.9H34.1L30,59.8V0.5h31.6h8.5H101.7z"/>
	</g>
	<polygon class="st6" points="70.1,0.5 61.6,0.5 30,0.5 30,59.8 34.1,63.9 44.5,63.9 44.5,94 38.7,94 38.7,98 44.5,98 44.5,120.5 
		87.2,120.5 87.2,63.9 97.5,63.9 101.7,59.8 101.7,0.5 	"/>
	<path class="st6" d="M71,402.3h7.9c0,0,33.2,1.3,51.7,21.6v226.8h-5.4v-6.2H94.8v126.8H36.4V644.5H5.9v6.2H0.5V423.9
		c18.5-20.3,51.7-21.6,51.7-21.6h7.9H71z"/>
</g>
</svg>
