<?xml version="1.0" encoding="utf-8"?>
<!-- Generator: Adobe Illustrator 22.1.0, SVG Export Plug-In . SVG Version: 6.00 Build 0)  -->
<svg version="1.1" id="Gem_Deck_Selector" xmlns="http://www.w3.org/2000/svg" xmlns:xlink="http://www.w3.org/1999/xlink" x="0px"
	 y="0px" viewBox="0 0 239.4 56.4" style="enable-background:new 0 0 239.4 56.4;" xml:space="preserve">
<style type="text/css">
	.st0{fill:#FFFFFF;stroke:#CAD2D7;stroke-width:0.5;stroke-miterlimit:10;}
	.st1{fill:none;stroke:#CAD2D7;stroke-width:0.5219;stroke-miterlimit:10;}
</style>
<g id="gGemDeckSelectorForward">
	<g id="bJewelDeckSelectorForward">
		<polygon id="f" class="st0" points="238.8,42.8 227.8,42.8 216.6,31.9 219.5,31.9 220.5,26.4 215.5,26.4 215.5,23.7 213.1,23.7 
			210.7,21 193.7,21 190.3,13.7 184.8,13.7 185.6,12.4 182.1,12.4 179.8,10.3 181,10.3 182.1,8.5 177.8,8.5 175.8,6.7 177,6.6 
			178.1,4.8 173.8,4.8 172.4,3.4 171.2,3.4 172.5,4.8 171.5,4.8 170.1,3.4 168.9,3.4 170.2,4.8 169.6,4.8 169.7,4.9 169.6,4.9 
			176,12 176,13.7 169.3,13.7 167.8,21 160.2,21 159.3,23.7 157.5,23.7 157.5,56.2 226.5,56.2 		"/>
	</g>
	<g id="hDeckForward_04">
		<polygon id="_x30_4_2_" class="st1" points="231.3,51 157.5,51 157.5,53.7 228.8,53.7 		"/>
	</g>
	<g id="hDeckForward_05">
		<polygon id="_x30_5_5_" class="st1" points="157.5,51 231.3,51 233.8,48.3 157.5,48.3 		"/>
	</g>
	<g id="hDeckForward_06">
		<polygon id="_x30_6_5_" class="st1" points="157.5,48.3 233.8,48.3 236.3,45.5 157.5,45.5 		"/>
	</g>
	<g id="hDeckForward_07">
		<polygon id="_x30_7_5_" class="st1" points="157.5,45.5 236.3,45.5 238.8,42.8 227.8,42.8 157.5,42.8 		"/>
	</g>
	<g id="hDeckForward_08">
		<polygon id="_x30_8_5_" class="st1" points="157.5,42.8 227.8,42.8 225,40.1 157.5,40.1 		"/>
	</g>
	<g id="hDeckForward_09">
		<polygon id="_x30_9_5_" class="st1" points="157.5,40.1 225,40.1 222.2,37.3 157.5,37.3 		"/>
	</g>
	<g id="hDeckForward_10">
		<polygon id="_x31_0_6_" class="st1" points="157.5,37.3 222.2,37.3 219.4,34.6 157.5,34.6 		"/>
	</g>
	<g id="hDeckForward_11">
		<polygon id="_x31_1_6_" class="st1" points="157.5,34.6 219.4,34.6 216.6,31.9 157.5,31.9 		"/>
	</g>
	<g id="hDeckForward_12">
		<polygon id="_x31_2_6_" class="st1" points="157.5,31.9 216.6,31.9 219.5,31.9 220,29.2 157.5,29.2 		"/>
	</g>
	<g id="hDeckForward_13">
		<polygon id="_x31_3_6_" class="st1" points="157.5,29.2 220,29.2 220.5,26.4 215.5,26.4 157.5,26.4 		"/>
	</g>
	<g id="hDeckForward_14">
		<polygon id="_x31_4_6_" class="st1" points="215.5,26.4 215.5,23.7 213.1,23.7 159.3,23.7 157.5,23.7 157.5,26.4 		"/>
	</g>
	<g id="hDeckForward_15">
		<polygon id="_x31_5_3_" class="st1" points="210.7,21 193.7,21 167.8,21 160.2,21 159.3,23.7 213.1,23.7 		"/>
	</g>
</g>
<g id="gGemDeckSelectorMidShip">
	<g id="bGemDeckSelectorMidShip">
		<path id="m" class="st0" d="M126.9,23.7l2.9-9.7l-3.2-1l1.3-1.4h-18c-0.5-0.2-4.4-1.4-6.1-1.5c-1.7-0.2-2.4,0-2.5,0.1l-0.3,0.1
			l0,2.5l-0.6,0.9h-7.9l1.8,3.3H78.7v39.1h78.8V23.7H126.9z"/>
	</g>
	<g id="hDeckMidShip_04">
		<rect id="_x30_4_3_" x="78.7" y="51" class="st1" width="78.8" height="2.7"/>
	</g>
	<g id="hDeckMidShip_05">
		<rect id="_x30_5_6_" x="78.7" y="48.3" class="st1" width="78.8" height="2.7"/>
	</g>
	<g id="hDeckMidShip_06">
		<rect id="_x30_6_6_" x="78.7" y="45.5" class="st1" width="78.8" height="2.7"/>
	</g>
	<g id="hDeckMidShip_07">
		<rect id="_x30_7_6_" x="78.7" y="42.8" class="st1" width="78.8" height="2.7"/>
	</g>
	<g id="hDeckMidShip_08">
		<rect id="_x30_8_6_" x="78.7" y="40.1" class="st1" width="78.8" height="2.7"/>
	</g>
	<g id="hDeckMidShip_09">
		<rect id="_x30_9_6_" x="78.7" y="37.3" class="st1" width="78.8" height="2.7"/>
	</g>
	<g id="hDeckMidShip_10">
		<rect id="_x31_0_7_" x="78.7" y="34.6" class="st1" width="78.8" height="2.7"/>
	</g>
	<g id="hDeckMidShip_11">
		<rect id="_x31_1_7_" x="78.7" y="31.9" class="st1" width="78.8" height="2.7"/>
	</g>
	<g id="hDeckMidShip_12">
		<rect id="_x31_2_7_" x="78.7" y="29.2" class="st1" width="78.8" height="2.7"/>
	</g>
	<g id="hDeckMidShip_13">
		<rect id="_x31_3_7_" x="78.7" y="26.4" class="st1" width="78.8" height="2.7"/>
	</g>
	<g id="hDeckMidShip_14">
		<polygon id="_x31_4_7_" class="st1" points="78.7,26.4 157.5,26.4 157.5,23.7 126.9,23.7 78.7,23.7 		"/>
	</g>
	<g id="hDeckMidShip_15">
		<polygon id="_x31_5_4_" class="st1" points="126.9,23.7 127.7,21 78.7,21 78.7,23.7 		"/>
	</g>
</g>
<g id="gGemDeckSelectorAft">
	<g id="bGemDeckSelectorAft">
		<path id="a" class="st0" d="M59.1,17L46.6,1.5h-0.8l-0.6-1.2h-0.7l0.6,1.2h-0.4l-0.6-1.2h-1.4l0.6,1.2h-0.4l-0.6-1.2h-1.4l0.6,1.2
			H41l-0.6-1.2H39l0.6,1.2h-0.9L38.8,2c1.1,3.1,0.9,5.1,0.5,6.8c-0.6,2.3-2.9,4.4-3.4,4.8h-10l-5.2,10.1H7.1l-0.3,2.7H5.5l1.4,5.5
			c-4.2,4-2.6,14.9-2.4,16.4l-4.1,7.9h78.3V17H59.1z"/>
	</g>
	<g id="hDeckAft_04">
		<polygon id="_x30_4_4_" class="st1" points="3.1,51 1.7,53.7 78.7,53.7 78.7,51 		"/>
	</g>
	<g id="hDeckAft_05">
		<polygon id="_x30_5_7_" class="st1" points="4.5,48.3 3.1,51 78.7,51 78.7,48.3 		"/>
	</g>
	<g id="hDeckAft_06">
		<path id="_x30_6_7_" class="st1" d="M78.7,45.5H4.2c0.1,1.4,0.3,2.4,0.3,2.7h74.2V45.5z"/>
	</g>
	<g id="hDeckAft_07">
		<path id="_x30_7_7_" class="st1" d="M78.7,42.8H4.1c0,1,0.1,1.9,0.1,2.7h74.5V42.8z"/>
	</g>
	<g id="hDeckAft_08">
		<path id="_x30_8_7_" class="st1" d="M78.7,40.1H4.1c-0.1,0.9-0.1,1.9,0,2.7h74.6V40.1z"/>
	</g>
	<g id="hDeckAft_09">
		<path id="_x30_9_7_" class="st1" d="M78.7,37.3H4.4c-0.2,0.9-0.3,1.8-0.3,2.7h74.6V37.3z"/>
	</g>
	<g id="hDeckAft_10">
		<path id="_x31_0_8_" class="st1" d="M78.7,34.6H5.2c-0.3,0.8-0.6,1.8-0.7,2.7h74.3V34.6z"/>
	</g>
	<g id="hDeckAft_11">
		<path id="_x31_1_8_" class="st1" d="M78.7,31.9H6.9c-0.8,0.7-1.3,1.7-1.7,2.7h73.5V31.9z"/>
	</g>
	<g id="hDeckAft_12">
		<polygon id="_x31_2_8_" class="st1" points="78.7,29.2 6.2,29.2 6.9,31.9 78.7,31.9 		"/>
	</g>
	<g id="hDeckAft_13">
		<polygon id="_x31_3_8_" class="st1" points="78.7,26.4 6.8,26.4 5.5,26.4 6.2,29.2 78.7,29.2 		"/>
	</g>
	<g id="hDeckAft_14">
		<polygon id="_x31_4_8_" class="st1" points="78.7,23.7 20.7,23.7 7.1,23.7 6.8,26.4 78.7,26.4 		"/>
	</g>
	<g id="hDeckAft_15">
		<polygon id="_x31_5_5_" class="st1" points="20.7,23.7 78.7,23.7 78.7,21 22.1,21 		"/>
	</g>
</g>
</svg>
