<?xml version="1.0" encoding="utf-8"?>
<!-- Generator: Adobe Illustrator 23.0.2, SVG Export Plug-In . SVG Version: 6.00 Build 0)  -->
<svg version="1.1" id="SKY_DECK_12" xmlns="http://www.w3.org/2000/svg" xmlns:xlink="http://www.w3.org/1999/xlink" x="0px"
	 y="0px" width="121.041px" height="716.862px" viewBox="0 0 121.041 716.862" style="enable-background:new 0 0 121.041 716.862;"
	 xml:space="preserve">
<style type="text/css">
	.New_x0020_Cabins_x0020_2019{fill:#EFF2F5;stroke:#FFFFFF;stroke-width:0.5;stroke-miterlimit:10;}
	.New_x0020_Cabins_x0020_2{fill:#EFF2F5;stroke:#FFFFFF;stroke-width:0.5;stroke-miterlimit:10;}
	.st0{fill:#FFFFFF;}
	.st1{fill:none;stroke:#D5DCE0;stroke-width:0.5;}
	.st2{fill:none;stroke:#D5DCE0;stroke-width:0.5;stroke-dasharray:2,1;}
	.st3{fill:none;}
	.st4{fill:#CCDDE2;}
	.st5{fill:#6E8496;}
	.st6{fill:none;stroke:#076FA0;stroke-miterlimit:10;}
</style>
<g id="SKY_DECK_12_BOTTOM">
	<path class="st0" d="M0.541,700.828c0,0,8.116,15.534,59.736,15.534c51.619,0,60.223-15.375,60.223-15.375
		s-0.035-632.496-0.035-650.071c0-0.211,0-0.34,0-0.387l0.076-15.784c0,0-21.792-34.245-60.264-34.245
		C21.805,0.5,0.5,34.334,0.5,34.334L0.541,700.828z"/>
	<path class="st1" d="M0.479,644.821c0,0,27.519,19.148,56.552,19.088c0-0.109-0.215-6.047-0.215-6.047l7.118-0.118
		c0,0,0.02,6.044,0.02,6.149c30.226-0.316,56.443-19.072,56.443-19.072"/>
	<path class="st1" d="M0.479,644.821c0,0,27.519,19.148,56.552,19.088c0-0.109-0.215-6.047-0.215-6.047l7.118-0.118
		c0,0,0.02,6.044,0.02,6.149c30.226-0.316,56.443-19.072,56.443-19.072"/>
	<path class="st1" d="M60.479,202.911c6.509,0,11.785,5.276,11.785,11.785c0,6.508-5.276,11.785-11.785,11.785
		c-6.508,0-11.785-5.276-11.785-11.785C48.694,208.187,53.971,202.911,60.479,202.911z"/>
	<path class="st2" d="M60.479,211.16c1.953,0,3.536,1.583,3.536,3.536c0,1.953-1.583,3.535-3.536,3.535
		c-1.953,0-3.535-1.583-3.535-3.535C56.944,212.743,58.526,211.16,60.479,211.16z"/>
	<line class="st2" x1="60.479" y1="211.16" x2="60.479" y2="202.911"/>
	<line class="st2" x1="58.711" y1="211.634" x2="54.587" y2="204.489"/>
	<line class="st2" x1="57.418" y1="212.928" x2="50.273" y2="208.803"/>
	<line class="st2" x1="56.944" y1="214.695" x2="48.694" y2="214.695"/>
	<line class="st2" x1="57.418" y1="216.463" x2="50.273" y2="220.587"/>
	<line class="st2" x1="58.711" y1="217.757" x2="54.586" y2="224.901"/>
	<line class="st2" x1="60.479" y1="218.231" x2="60.479" y2="226.48"/>
	<line class="st2" x1="62.247" y1="217.757" x2="66.371" y2="224.902"/>
	<line class="st2" x1="63.541" y1="216.464" x2="70.684" y2="220.589"/>
	<line class="st2" x1="64.015" y1="214.696" x2="72.264" y2="214.697"/>
	<line class="st2" x1="63.541" y1="212.928" x2="70.686" y2="208.805"/>
	<line class="st2" x1="62.248" y1="211.634" x2="66.373" y2="204.491"/>
	<path class="st1" d="M89.729,659.696v5.564c0,0-15.625,3.991-29.291,3.991c-13.667,0-29.292-3.991-29.292-3.991v-5.564"/>
	<line class="st1" x1="32.979" y1="660.196" x2="32.979" y2="665.946"/>
	<line class="st1" x1="34.813" y1="660.737" x2="34.813" y2="666.237"/>
	<line class="st1" x1="36.646" y1="661.278" x2="36.646" y2="666.778"/>
	<line class="st1" x1="38.479" y1="661.571" x2="38.479" y2="667.071"/>
	<line class="st1" x1="40.313" y1="662.112" x2="40.313" y2="667.362"/>
	<line class="st1" x1="42.146" y1="662.403" x2="42.146" y2="667.903"/>
	<line class="st1" x1="43.979" y1="662.696" x2="43.979" y2="668.196"/>
	<line class="st1" x1="45.813" y1="662.987" x2="45.813" y2="668.237"/>
	<line class="st1" x1="47.646" y1="663.278" x2="47.646" y2="668.528"/>
	<line class="st1" x1="87.897" y1="660.196" x2="87.897" y2="665.946"/>
	<line class="st1" x1="86.063" y1="660.737" x2="86.063" y2="666.237"/>
	<line class="st1" x1="84.229" y1="661.278" x2="84.229" y2="666.778"/>
	<line class="st1" x1="82.397" y1="661.571" x2="82.397" y2="667.071"/>
	<line class="st1" x1="80.563" y1="662.112" x2="80.563" y2="667.362"/>
	<line class="st1" x1="78.729" y1="662.403" x2="78.729" y2="667.903"/>
	<line class="st1" x1="76.896" y1="662.696" x2="76.896" y2="668.196"/>
	<line class="st1" x1="75.063" y1="662.987" x2="75.063" y2="668.237"/>
	<line class="st1" x1="73.229" y1="663.278" x2="73.229" y2="668.528"/>
	<line class="st1" x1="24.9" y1="383.335" x2="21.817" y2="379.768"/>
	<line class="st1" x1="22.903" y1="378.668" x2="26.544" y2="381.61"/>
	<line class="st1" x1="23.754" y1="377.369" x2="27.906" y2="379.53"/>
	<line class="st1" x1="24.33" y1="375.927" x2="28.828" y2="377.22"/>
	<line class="st1" x1="24.607" y1="374.399" x2="29.273" y2="374.772"/>
	<line class="st1" x1="24.576" y1="372.848" x2="29.223" y2="372.286"/>
	<line class="st1" x1="24.237" y1="371.332" x2="28.68" y2="369.86"/>
	<line class="st1" x1="23.604" y1="369.914" x2="27.666" y2="367.589"/>
	<line class="st1" x1="22.702" y1="368.651" x2="26.221" y2="365.564"/>
	<line class="st1" x1="21.567" y1="367.591" x2="24.403" y2="363.868"/>
	<line class="st1" x1="24.9" y1="224.588" x2="21.817" y2="228.155"/>
	<line class="st1" x1="22.903" y1="229.255" x2="26.544" y2="226.313"/>
	<line class="st1" x1="23.754" y1="230.554" x2="27.906" y2="228.394"/>
	<line class="st1" x1="24.33" y1="231.996" x2="28.828" y2="230.704"/>
	<line class="st1" x1="24.607" y1="233.524" x2="29.273" y2="233.15"/>
	<line class="st1" x1="24.576" y1="235.076" x2="29.223" y2="235.637"/>
	<line class="st1" x1="24.237" y1="236.591" x2="28.68" y2="238.063"/>
	<line class="st1" x1="23.604" y1="238.009" x2="27.666" y2="240.334"/>
	<line class="st1" x1="22.702" y1="239.273" x2="26.221" y2="242.358"/>
	<line class="st1" x1="95.975" y1="383.335" x2="99.058" y2="379.768"/>
	<line class="st1" x1="97.972" y1="378.668" x2="94.331" y2="381.61"/>
	<line class="st1" x1="97.121" y1="377.369" x2="92.969" y2="379.53"/>
	<line class="st1" x1="96.545" y1="375.927" x2="92.048" y2="377.22"/>
	<line class="st1" x1="96.268" y1="374.399" x2="91.603" y2="374.772"/>
	<line class="st1" x1="96.299" y1="372.848" x2="91.652" y2="372.286"/>
	<line class="st1" x1="96.638" y1="371.332" x2="92.195" y2="369.86"/>
	<line class="st1" x1="97.272" y1="369.914" x2="93.21" y2="367.589"/>
	<line class="st1" x1="98.173" y1="368.651" x2="94.654" y2="365.564"/>
	<line class="st1" x1="99.309" y1="367.591" x2="96.473" y2="363.868"/>
	<line class="st1" x1="95.975" y1="224.588" x2="99.058" y2="228.155"/>
	<line class="st1" x1="97.972" y1="229.255" x2="94.331" y2="226.313"/>
	<line class="st1" x1="97.121" y1="230.554" x2="92.969" y2="228.394"/>
	<line class="st1" x1="96.545" y1="231.996" x2="92.048" y2="230.704"/>
	<line class="st1" x1="96.268" y1="233.524" x2="91.603" y2="233.15"/>
	<line class="st1" x1="96.299" y1="235.076" x2="91.652" y2="235.637"/>
	<line class="st1" x1="96.638" y1="236.591" x2="92.195" y2="238.063"/>
	<line class="st1" x1="97.272" y1="238.009" x2="93.21" y2="240.334"/>
	<line class="st1" x1="98.173" y1="239.273" x2="94.654" y2="242.358"/>
	<line class="st1" x1="21.567" y1="240.332" x2="24.403" y2="244.055"/>
	<line class="st1" x1="57.146" y1="659.862" x2="63.813" y2="659.862"/>
	<line class="st1" x1="57.146" y1="661.862" x2="63.813" y2="661.862"/>
	<line class="st1" x1="57.146" y1="663.862" x2="63.813" y2="663.862"/>
	<polyline class="st1" points="48.771,145.24 56.542,155.313 48.771,165.109 	"/>
	<polyline class="st1" points="56.792,145.49 48.771,155.313 56.542,165.109 	"/>
	<polyline class="st1" points="72.104,145.24 64.334,155.313 72.104,165.109 	"/>
	<polyline class="st1" points="64.084,145.49 72.104,155.313 64.334,165.109 	"/>
	<line class="st1" x1="45.188" y1="572.278" x2="52.813" y2="582.278"/>
	<line class="st1" x1="45.188" y1="582.278" x2="52.813" y2="572.278"/>
	<line class="st1" x1="52.688" y1="572.278" x2="60.479" y2="582.278"/>
	<line class="st1" x1="52.688" y1="582.278" x2="60.479" y2="572.278"/>
	<line class="st1" x1="75.938" y1="572.278" x2="68.146" y2="582.278"/>
	<line class="st1" x1="75.938" y1="582.278" x2="68.146" y2="572.278"/>
	<line class="st1" x1="68.271" y1="572.278" x2="60.479" y2="582.278"/>
	<line class="st1" x1="68.271" y1="582.278" x2="60.479" y2="572.278"/>
	<path class="st1" d="M21.203,240.594c2.069-1.398,3.429-3.765,3.429-6.45c0-2.409-1.565-5.302-3.567-6.03"/>
	<path class="st1" d="M24.9,224.588c2.719,2.292,4.446,5.722,4.446,9.556c0,6.267-4.652,10.058-7.371,12.349"/>
	<path class="st1" d="M20.883,360.599c2.719,2.292,8.463,6.914,8.463,13.18c0,3.834-1.727,7.266-4.446,9.557"/>
	<path class="st1" d="M96.729,243.946l2.943-3.352c-2.069-1.398-3.429-3.765-3.429-6.45c0-2.409,1.095-4.562,2.814-5.989
		c0.899-0.745-0.832-0.226,1.353-1.136"/>
	<path class="st1" d="M95.975,224.588c-2.719,2.292-4.445,5.722-4.445,9.556c0,6.267,6.129,10.837,9.427,12.165"/>
	<path class="st1" d="M101.138,361.686c-3.457,0.728-9.608,5.826-9.608,12.092c0,3.834,1.727,7.266,4.445,9.557"/>
	<path class="st1" d="M21.203,367.329c2.069,1.397,3.429,3.765,3.429,6.449c0,2.41-1.095,4.562-2.815,5.99
		c-0.898,0.744-3.549,2.605-1.48,1.208"/>
	<path class="st1" d="M100.774,380.977c2.068,1.397-0.818-0.464-1.717-1.208c-1.72-1.428-2.814-3.58-2.814-5.99
		c0-2.685,1.359-5.052,3.429-6.449"/>
	<polygon class="st1" points="34.146,119.987 36.646,103.987 32.313,103.987 29.813,119.987 	"/>
	<line class="st1" x1="32" y1="105.987" x2="36.334" y2="105.987"/>
	<line class="st1" x1="31.688" y1="107.987" x2="36.021" y2="107.987"/>
	<line class="st1" x1="31.375" y1="109.987" x2="35.709" y2="109.987"/>
	<line class="st1" x1="31.063" y1="111.987" x2="35.396" y2="111.987"/>
	<line class="st1" x1="30.75" y1="113.987" x2="35.084" y2="113.987"/>
	<line class="st1" x1="30.438" y1="115.987" x2="34.771" y2="115.987"/>
	<line class="st1" x1="30.125" y1="117.987" x2="34.459" y2="117.987"/>
	<path class="st1" d="M54.392,136.801c0.258,0,0.467-0.295,0.467-0.665"/>
	<line class="st1" x1="48.744" y1="136.801" x2="54.392" y2="136.801"/>
	<line class="st1" x1="54.859" y1="136.136" x2="54.859" y2="133.559"/>
	<line class="st1" x1="54.859" y1="133.559" x2="65.961" y2="133.559"/>
	<path class="st1" d="M65.961,136.136c0,0.371,0.206,0.665,0.463,0.665"/>
	<line class="st1" x1="65.961" y1="133.559" x2="65.961" y2="136.136"/>
	<line class="st1" x1="66.425" y1="136.801" x2="72.107" y2="136.801"/>
	<line class="st1" x1="60.285" y1="120.914" x2="60.285" y2="137.039"/>
	<line class="st1" x1="60.511" y1="120.914" x2="60.511" y2="137.039"/>
	<line class="st1" x1="49.007" y1="121.739" x2="60.285" y2="121.739"/>
	<line class="st1" x1="60.285" y1="137.039" x2="60.511" y2="137.039"/>
	<line class="st1" x1="60.285" y1="120.914" x2="60.511" y2="120.914"/>
	<line class="st1" x1="60.511" y1="121.739" x2="72.195" y2="121.739"/>
	<line class="st1" x1="60.511" y1="123.446" x2="65.481" y2="123.446"/>
	<line class="st1" x1="60.511" y1="125.155" x2="65.481" y2="125.155"/>
	<line class="st1" x1="60.511" y1="126.865" x2="65.481" y2="126.865"/>
	<line class="st1" x1="60.511" y1="128.574" x2="65.481" y2="128.574"/>
	<line class="st1" x1="60.511" y1="130.284" x2="65.481" y2="130.284"/>
	<line class="st1" x1="60.511" y1="131.993" x2="65.481" y2="131.993"/>
	<line class="st1" x1="60.511" y1="135.41" x2="65.93" y2="135.41"/>
	<line class="st1" x1="55.315" y1="123.446" x2="60.285" y2="123.446"/>
	<line class="st1" x1="55.315" y1="125.155" x2="60.285" y2="125.155"/>
	<line class="st1" x1="55.315" y1="126.865" x2="60.285" y2="126.865"/>
	<line class="st1" x1="55.315" y1="128.574" x2="60.285" y2="128.574"/>
	<line class="st1" x1="55.315" y1="130.284" x2="60.285" y2="130.284"/>
	<line class="st1" x1="55.315" y1="131.993" x2="60.285" y2="131.993"/>
	<line class="st1" x1="54.825" y1="135.41" x2="60.285" y2="135.41"/>
	<line class="st1" x1="72.237" y1="135.118" x2="66.384" y2="135.118"/>
	<line class="st1" x1="72.157" y1="133.431" x2="65.771" y2="133.431"/>
	<line class="st1" x1="72.276" y1="131.751" x2="66.384" y2="131.751"/>
	<line class="st1" x1="72.157" y1="130.066" x2="66.408" y2="130.066"/>
	<line class="st1" x1="54.874" y1="135.118" x2="48.848" y2="135.118"/>
	<line class="st1" x1="54.913" y1="133.431" x2="48.807" y2="133.431"/>
	<line class="st1" x1="54.413" y1="131.751" x2="48.768" y2="131.751"/>
	<line class="st1" x1="54.413" y1="130.066" x2="48.807" y2="130.066"/>
	<path class="st1" d="M66.461,120.721c0-0.355-0.203-0.645-0.452-0.645c-0.25,0-0.451,0.29-0.451,0.645l0,0"/>
	<line class="st1" x1="65.558" y1="120.721" x2="65.558" y2="120.914"/>
	<line class="st1" x1="66.461" y1="120.721" x2="66.461" y2="120.914"/>
	<path class="st1" d="M55.315,120.721c0-0.355-0.202-0.645-0.449-0.645c-0.251,0-0.454,0.29-0.454,0.645l0,0"/>
	<line class="st1" x1="54.413" y1="120.721" x2="54.413" y2="120.914"/>
	<line class="st1" x1="55.315" y1="120.721" x2="55.315" y2="120.914"/>
	<line class="st1" x1="66.003" y1="120.914" x2="66.003" y2="133.397"/>
	<line class="st1" x1="72.116" y1="126.696" x2="66.384" y2="126.696"/>
	<line class="st1" x1="72.116" y1="125.016" x2="66.384" y2="125.016"/>
	<line class="st1" x1="72.077" y1="123.329" x2="66.384" y2="123.329"/>
	<line class="st1" x1="72.157" y1="128.383" x2="66.384" y2="128.383"/>
	<line class="st1" x1="54.872" y1="120.914" x2="54.872" y2="133.624"/>
	<line class="st1" x1="54.413" y1="126.696" x2="48.848" y2="126.696"/>
	<line class="st1" x1="54.413" y1="125.016" x2="48.887" y2="125.016"/>
	<line class="st1" x1="54.413" y1="123.329" x2="48.927" y2="123.329"/>
	<line class="st1" x1="54.476" y1="128.383" x2="48.727" y2="128.383"/>
	<path class="st1" d="M68.343,594c-0.335,0-0.605,0.256-0.605,0.578"/>
	<line class="st1" x1="75.665" y1="594" x2="68.343" y2="594"/>
	<line class="st1" x1="67.738" y1="594.578" x2="67.738" y2="596.818"/>
	<line class="st1" x1="67.738" y1="596.818" x2="53.347" y2="596.818"/>
	<path class="st1" d="M53.347,594.578c0-0.322-0.266-0.578-0.601-0.578"/>
	<line class="st1" x1="53.347" y1="596.818" x2="53.347" y2="594.578"/>
	<line class="st1" x1="52.746" y1="594" x2="45.38" y2="594"/>
	<line class="st1" x1="60.705" y1="607.812" x2="60.705" y2="593.793"/>
	<line class="st1" x1="60.413" y1="607.812" x2="60.413" y2="593.793"/>
	<line class="st1" x1="75.324" y1="607.096" x2="60.705" y2="607.096"/>
	<line class="st1" x1="60.705" y1="593.793" x2="60.413" y2="593.793"/>
	<line class="st1" x1="60.705" y1="607.812" x2="60.413" y2="607.812"/>
	<line class="st1" x1="60.413" y1="607.096" x2="45.267" y2="607.096"/>
	<line class="st1" x1="60.413" y1="605.611" x2="53.971" y2="605.611"/>
	<line class="st1" x1="60.413" y1="604.125" x2="53.971" y2="604.125"/>
	<line class="st1" x1="60.413" y1="602.639" x2="53.971" y2="602.639"/>
	<line class="st1" x1="60.413" y1="601.152" x2="53.971" y2="601.152"/>
	<line class="st1" x1="60.413" y1="599.666" x2="53.971" y2="599.666"/>
	<line class="st1" x1="60.413" y1="598.18" x2="53.971" y2="598.18"/>
	<line class="st1" x1="60.413" y1="595.209" x2="53.388" y2="595.209"/>
	<line class="st1" x1="67.147" y1="605.611" x2="60.705" y2="605.611"/>
	<line class="st1" x1="67.147" y1="604.125" x2="60.705" y2="604.125"/>
	<line class="st1" x1="67.147" y1="602.639" x2="60.705" y2="602.639"/>
	<line class="st1" x1="67.147" y1="601.152" x2="60.705" y2="601.152"/>
	<line class="st1" x1="67.147" y1="599.666" x2="60.705" y2="599.666"/>
	<line class="st1" x1="67.147" y1="598.18" x2="60.705" y2="598.18"/>
	<line class="st1" x1="67.783" y1="595.209" x2="60.705" y2="595.209"/>
	<line class="st1" x1="45.212" y1="595.463" x2="52.799" y2="595.463"/>
	<line class="st1" x1="45.316" y1="596.93" x2="53.594" y2="596.93"/>
	<line class="st1" x1="45.162" y1="598.391" x2="52.799" y2="598.391"/>
	<line class="st1" x1="45.316" y1="599.855" x2="52.768" y2="599.855"/>
	<line class="st1" x1="67.72" y1="595.463" x2="75.53" y2="595.463"/>
	<line class="st1" x1="67.669" y1="596.93" x2="75.583" y2="596.93"/>
	<line class="st1" x1="68.317" y1="598.391" x2="75.634" y2="598.391"/>
	<line class="st1" x1="68.317" y1="599.855" x2="75.583" y2="599.855"/>
	<path class="st1" d="M52.699,607.98c0,0.309,0.263,0.56,0.586,0.56c0.324,0,0.585-0.252,0.585-0.56l0,0"/>
	<line class="st1" x1="53.87" y1="607.98" x2="53.87" y2="607.812"/>
	<line class="st1" x1="52.699" y1="607.98" x2="52.699" y2="607.812"/>
	<path class="st1" d="M67.147,607.98c0,0.309,0.261,0.56,0.582,0.56c0.326,0,0.589-0.252,0.589-0.56l0,0"/>
	<line class="st1" x1="68.317" y1="607.98" x2="68.317" y2="607.812"/>
	<line class="st1" x1="67.147" y1="607.98" x2="67.147" y2="607.812"/>
	<line class="st1" x1="53.293" y1="607.812" x2="53.293" y2="596.959"/>
	<line class="st1" x1="45.368" y1="602.785" x2="52.799" y2="602.785"/>
	<line class="st1" x1="45.368" y1="604.246" x2="52.799" y2="604.246"/>
	<line class="st1" x1="45.419" y1="605.713" x2="52.799" y2="605.713"/>
	<line class="st1" x1="45.316" y1="601.318" x2="52.799" y2="601.318"/>
	<line class="st1" x1="67.722" y1="607.812" x2="67.722" y2="596.762"/>
	<line class="st1" x1="68.317" y1="602.785" x2="75.53" y2="602.785"/>
	<line class="st1" x1="68.317" y1="604.246" x2="75.479" y2="604.246"/>
	<line class="st1" x1="68.317" y1="605.713" x2="75.428" y2="605.713"/>
	<line class="st1" x1="68.235" y1="601.318" x2="75.688" y2="601.318"/>
	<polyline class="st1" points="48.771,139.987 48.771,115.862 60.438,115.862 	"/>
	<polyline class="st1" points="72.104,139.987 72.104,115.862 60.438,115.862 	"/>
	<polyline class="st1" points="48.771,137.821 34.146,137.821 34.146,130.321 48.771,130.321 	"/>
	<line class="st1" x1="48.771" y1="115.862" x2="35.271" y2="115.862"/>
	<line class="st1" x1="40.938" y1="115.862" x2="40.979" y2="130.362"/>
	<rect x="48.771" y="145.454" class="st1" width="8.021" height="19.833"/>
	<line class="st1" x1="48.771" y1="155.327" x2="56.792" y2="155.327"/>
	<rect x="64.084" y="145.454" class="st1" width="8.02" height="19.833"/>
	<line class="st1" x1="64.084" y1="155.348" x2="72.104" y2="155.348"/>
	<line class="st1" x1="64.084" y1="165.287" x2="60.396" y2="165.287"/>
	<line class="st1" x1="56.792" y1="165.287" x2="60.479" y2="165.287"/>
	<polyline class="st1" points="71.965,175.548 48.574,175.532 45.321,181.022 	"/>
	<line class="st1" x1="71.572" y1="145.415" x2="86.717" y2="145.415"/>
	<line class="st1" x1="34.137" y1="145.37" x2="49.281" y2="145.37"/>
	<polyline class="st1" points="31.104,592.321 45.188,592.321 45.188,621.653 60.479,621.653 	"/>
	<line class="st1" x1="45.188" y1="610.821" x2="60.479" y2="610.821"/>
	<polyline class="st1" points="89.772,592.321 75.688,592.321 75.688,621.653 60.396,621.653 	"/>
	<line class="st1" x1="75.688" y1="610.821" x2="60.396" y2="610.821"/>
	<polygon class="st1" points="60.479,582.278 75.958,582.278 75.958,572.362 60.479,572.362 45.188,572.362 45.188,582.278 	"/>
	<line class="st1" x1="60.479" y1="572.3" x2="60.479" y2="582.278"/>
	<line class="st1" x1="52.813" y1="572.3" x2="52.813" y2="582.278"/>
	<line class="st1" x1="68.146" y1="572.3" x2="68.146" y2="582.278"/>
	<polyline class="st1" points="31.104,572.362 31.104,582.278 45.188,582.278 	"/>
	<polyline class="st1" points="89.772,572.362 89.772,582.278 75.688,582.278 	"/>
	<line class="st1" x1="23.671" y1="572.399" x2="97.256" y2="572.399"/>
	<line class="st1" x1="71.664" y1="175.654" x2="74.964" y2="180.787"/>
	<line class="st1" x1="87.52" y1="137.904" x2="72.355" y2="137.904"/>
	<line class="st1" x1="0.479" y1="55.196" x2="27.146" y2="55.196"/>
	<line class="st1" x1="27.146" y1="95.196" x2="0.479" y2="95.196"/>
	<line class="st1" x1="34.729" y1="137.904" x2="13.563" y2="137.904"/>
	<line class="st1" x1="22.729" y1="170.904" x2="1.063" y2="170.904"/>
	<line class="st1" x1="120.229" y1="170.904" x2="98.563" y2="170.904"/>
	<line class="st1" x1="107.979" y1="137.904" x2="86.313" y2="137.904"/>
	<line class="st1" x1="120.397" y1="55.196" x2="93.729" y2="55.196"/>
	<line class="st1" x1="93.729" y1="95.196" x2="120.397" y2="95.196"/>
	<path class="st1" d="M30.545,146.862v12.834c0,6.907,2.339,13.267,6.269,18.332l-2.668,2.459c0,0,2.5,3.042,4.833,5.209
		l-5.583,6.583"/>
	<line class="st1" x1="34.146" y1="180.487" x2="25.479" y2="187.362"/>
	<path class="st1" d="M90.33,146.862v12.834c0,6.907-2.34,13.267-6.27,18.332l2.668,2.459c0,0-2.5,3.042-4.832,5.209l5.582,6.583"/>
	<line class="st1" x1="86.729" y1="180.487" x2="95.397" y2="187.362"/>
	<line class="st1" x1="37.063" y1="184.279" x2="31.563" y2="190.279"/>
	<line class="st1" x1="35.479" y1="182.446" x2="29.313" y2="188.446"/>
	<line class="st1" x1="83.813" y1="184.279" x2="89.313" y2="190.279"/>
	<line class="st1" x1="85.397" y1="182.446" x2="91.563" y2="188.446"/>
	<polygon class="st1" points="86.729,119.987 84.229,103.987 88.563,103.987 91.063,119.987 	"/>
	<line class="st1" x1="88.875" y1="105.987" x2="84.541" y2="105.987"/>
	<line class="st1" x1="89.188" y1="107.987" x2="84.854" y2="107.987"/>
	<line class="st1" x1="89.5" y1="109.987" x2="85.166" y2="109.987"/>
	<line class="st1" x1="89.813" y1="111.987" x2="85.479" y2="111.987"/>
	<line class="st1" x1="90.125" y1="113.987" x2="85.791" y2="113.987"/>
	<line class="st1" x1="90.438" y1="115.987" x2="86.104" y2="115.987"/>
	<line class="st1" x1="90.75" y1="117.987" x2="86.416" y2="117.987"/>
	<path class="st1" d="M34.146,103.487v-3.166h14.625v-5.125H34.146V42.029c0-0.552,0.448-1,1-1h18.167c0.552,0,1,0.448,1,1v3.833
		h6.125h6.125v-3.833c0-0.552,0.448-1,1-1h18.166c0.553,0,1,0.448,1,1v53.167H72.104v10.458h12.043"/>
	<line class="st1" x1="34.146" y1="119.987" x2="34.146" y2="138.154"/>
	<line class="st1" x1="86.851" y1="137.864" x2="86.851" y2="120.031"/>
	<path class="st1" d="M86.585,145.091l-0.026,14.605c0,8.881-4.426,16.729-11.192,21.459"/>
	<path class="st1" d="M34.321,144.848l-0.004,14.848c0,8.799,4.344,16.584,11.004,21.327c0.062,0.044,0.125,0.088,0.188,0.132"/>
	<path class="st1" d="M60.479,185.858c-5.567,0-10.728-1.739-14.97-4.704"/>
	<path class="st1" d="M60.396,185.858c5.567,0,10.729-1.739,14.97-4.704"/>
	<path class="st1" d="M80.147,41.029v-6.076h5.842c-2.177-12.16-12.765-21.299-25.551-21.299c-12.786,0-23.374,9.139-25.551,21.299
		h5.842v6.076"/>
	<path class="st1" d="M36.976,34.77c2.291-11.115,12.034-19.116,23.461-19.116c11.428,0,21.17,8.001,23.461,19.116"/>
	<line class="st1" x1="81.647" y1="34.862" x2="81.647" y2="41.029"/>
	<line class="st1" x1="83.147" y1="34.862" x2="83.147" y2="41.029"/>
	<line class="st1" x1="39.229" y1="34.862" x2="39.229" y2="41.029"/>
	<path class="st1" d="M96.773,572.801l0.134-86.104v-4.043v-36c0,0-16.419-8.166-36.652-8.166s-36.651,8.166-36.651,8.166v36v4.043
		v85.666"/>
	<path class="st1" d="M23.961,572.362H5.604v65.166c0,0,26.585,6.254,51.706,6.76v-8.26"/>
	<path class="st1" d="M97.255,572.381l18.017-0.019v65.166c0,0-26.586,6.254-51.707,6.76v-8.26"/>
	<polyline class="st1" points="96.985,486.696 115.267,486.696 115.329,517.952 	"/>
	<line class="st1" x1="96.929" y1="486.353" x2="96.929" y2="572.392"/>
	<line class="st1" x1="115.272" y1="547.612" x2="115.272" y2="572.362"/>
	<line class="st1" x1="97.313" y1="517.653" x2="115.449" y2="517.691"/>
	<line class="st1" x1="97.281" y1="547.612" x2="115.437" y2="547.716"/>
	<polygon class="st1" points="60.313,430.612 84.644,430.612 84.644,405.403 60.313,405.403 35.982,405.403 35.982,430.612 	"/>
	<path class="st1" d="M96.041,383.235c-2.719-2.291-4.445-5.723-4.445-9.557c0-6.266,4.614-11.455,10.631-12.353V246.4
		c-6.017-0.899-10.631-6.088-10.631-12.354c0-3.834,1.727-7.265,4.445-9.556l1.363,1.521c0,0,0.66,0.815,1.72,2.045
		c0.899-0.745,1.966-1.292,3.137-1.573l-0.034-31.304c0-10.333-10.242-9.166-13.908-3.333c-1.803,2.867-7.029,5.486-10.377,6.938
		c3.785,4.182,6.091,9.728,6.091,15.814c0,5.825-2.113,11.157-5.614,15.27v11.688c0,0-6.708,7.016-17.708,7.016h-0.699
		c-11,0-17.42-7.016-17.42-7.016v-11.688c-3.502-4.113-5.615-9.445-5.615-15.27c0-6.086,2.305-11.631,6.091-15.814
		c-3.349-1.451-8.575-4.07-10.377-6.938c-3.667-5.833-13.908-7-13.908,3.333l-0.035,31.304c1.171,0.282,2.239,0.829,3.137,1.573
		c0.772-0.686,1.043-1.23,1.937-2.006l1.146-1.561c2.719,2.291,4.446,5.722,4.446,9.556c0,6.267-4.614,11.456-10.631,12.354v113.384
		c5.039,2.68,10.631,7.629,10.631,13.895c0,3.834-1.727,7.266-4.446,9.557l-1.496-1.512c-0.389-0.583-0.971-1.281-1.587-2.055
		c-0.898,0.744-1.966,1.291-3.137,1.572l0.007-0.228c0,5.148,0,7.834,0,7.834c0,12.104,9,13.332,17.5,11.166
		c3.918-0.998,11.5-1.166,11.5-1.166l12.75-0.125l12.75,0.125c0,0,7.581,0.168,11.5,1.166c8.5,2.166,17.5,0.938,17.5-11.166
		c0,0,0-2.686,0-7.834l0.007,0.228c-1.171-0.281-2.238-0.828-3.137-1.572c-0.903,1.009-1.563,1.979-2.068,2.522L96.041,383.235z"/>
	<polygon class="st1" points="36.366,415.532 42.845,415.547 42.845,422.334 36.431,422.334 	"/>
	<path class="st1" d="M36.366,416.568l6.75-0.046c0,0,2.126,0.465,2.126,2.637c0,2.172-2.397,2.397-2.397,2.397h-6.479V416.568z"/>
	<path class="st1" d="M36.431,409.441c0,0,10.754-1.359,10.754,10.302c0,9.458-10.819,8.486-10.819,8.486"/>
	<polygon class="st1" points="84.428,422.252 77.796,422.236 77.796,415.495 84.361,415.495 	"/>
	<path class="st1" d="M84.428,421.222l-6.91,0.045c0,0-2.175-0.462-2.175-2.618c0-2.157,2.454-2.381,2.454-2.381h6.631V421.222z"/>
	<path class="st1" d="M84.361,428.3c0,0-11.007,1.352-11.007-10.23c0-9.393,11.074-8.43,11.074-8.43"/>
	<line class="st1" x1="60.077" y1="405.396" x2="60.077" y2="430.526"/>
	<path class="st1" d="M61.006,418.777c0,0.531-0.43,0.961-0.961,0.961c-0.531,0-0.962-0.43-0.962-0.961
		c0-0.531,0.431-0.961,0.962-0.961C60.576,417.816,61.006,418.245,61.006,418.777z"/>
	<path class="st1" d="M62.539,418.778c0,1.377-1.117,2.493-2.494,2.493c-1.378,0-2.494-1.116-2.494-2.493
		c0-1.378,1.116-2.495,2.494-2.495C61.422,416.282,62.539,417.4,62.539,418.778z"/>
	<path class="st1" d="M54.313,41.982v3.833h6.125h6.125v-3.833c0-0.552,0.448-1,1-1h5.88c0-7.16-5.804-12.963-12.964-12.963
		c-7.159,0-12.963,5.804-12.963,12.963h5.797C53.865,40.982,54.313,41.43,54.313,41.982z"/>
	<circle class="st0" cx="60.482" cy="28.774" r="4.419"/>
	<path class="st3" d="M66.005,29.442c0.284,0.118,0.569,0.227,0.959,0.292c-0.655-0.379-1.345-0.699-2.066-0.96
		c-0.001,0.113-0.024,0.219-0.033,0.329C65.345,29.177,65.685,29.308,66.005,29.442z"/>
	<path class="st3" d="M56.099,29.103c-0.009-0.11-0.032-0.217-0.033-0.329c-0.72,0.261-1.411,0.581-2.065,0.96
		c0.389-0.065,0.674-0.174,0.957-0.292C55.279,29.308,55.619,29.176,56.099,29.103z"/>
	<path class="st4" d="M55.19,29.997c0.29-0.121,0.581-0.233,0.984-0.297c-0.043-0.193-0.058-0.395-0.074-0.597
		c-0.481,0.073-0.82,0.205-1.141,0.339c-0.283,0.118-0.568,0.227-0.957,0.292c-0.347,0.201-0.683,0.415-1.008,0.646
		c0.094,0.005,0.174,0.015,0.278,0.015C54.233,30.395,54.719,30.193,55.19,29.997z"/>
	<path class="st4" d="M64.865,29.103c-0.017,0.202-0.032,0.404-0.074,0.597c0.403,0.064,0.693,0.176,0.983,0.297
		c0.47,0.196,0.957,0.399,1.918,0.399c0.105,0,0.185-0.011,0.28-0.015c-0.325-0.231-0.661-0.445-1.008-0.646
		c-0.39-0.065-0.675-0.174-0.959-0.292C65.685,29.308,65.345,29.177,64.865,29.103z"/>
	<path class="st4" d="M66.005,30.944c-0.395-0.165-0.819-0.326-1.508-0.376c-0.092,0.203-0.196,0.399-0.317,0.584
		c0.772,0.013,1.177,0.174,1.594,0.347c0.47,0.196,0.957,0.399,1.918,0.399c0.836,0,1.309-0.154,1.728-0.323
		c-0.164-0.156-0.331-0.31-0.503-0.458c-0.31,0.102-0.671,0.179-1.225,0.179C66.851,31.297,66.44,31.125,66.005,30.944z"/>
	<path class="st4" d="M55.19,31.499c0.417-0.174,0.822-0.334,1.595-0.348c-0.121-0.185-0.224-0.381-0.317-0.584
		c-0.69,0.05-1.114,0.212-1.51,0.376c-0.435,0.181-0.846,0.352-1.687,0.352c-0.553,0-0.914-0.077-1.224-0.179
		c-0.172,0.148-0.339,0.301-0.503,0.458c0.419,0.169,0.892,0.322,1.727,0.322C54.233,31.897,54.719,31.695,55.19,31.499z"/>
	<path class="st4" d="M67.692,32.799c-0.841,0-1.252-0.171-1.687-0.352c-0.47-0.196-0.957-0.399-1.918-0.399
		c-0.303,0-0.547,0.025-0.771,0.058c-0.769,0.648-1.749,1.054-2.834,1.054c-1.084,0-2.065-0.406-2.834-1.054
		c-0.223-0.034-0.468-0.059-0.772-0.059c-0.961,0-1.448,0.203-1.918,0.399c-0.435,0.181-0.846,0.352-1.687,0.352
		c-0.841,0-1.252-0.171-1.687-0.352c-0.202-0.084-0.414-0.166-0.657-0.236c-0.155,0.17-0.316,0.334-0.462,0.511
		c0.352,0.066,0.622,0.169,0.888,0.279c0.47,0.196,0.957,0.399,1.918,0.399c0.961,0,1.448-0.203,1.918-0.399
		c0.435-0.181,0.846-0.352,1.687-0.352c0.841,0,1.252,0.171,1.687,0.352c0.47,0.196,0.957,0.399,1.918,0.399
		c0.961,0,1.448-0.203,1.918-0.399c0.435-0.181,0.846-0.352,1.687-0.352c0.841,0,1.252,0.171,1.687,0.352
		c0.47,0.196,0.957,0.399,1.918,0.399c0.961,0,1.448-0.203,1.918-0.399c0.267-0.111,0.536-0.213,0.889-0.28
		c-0.146-0.178-0.307-0.342-0.462-0.512c-0.244,0.07-0.456,0.153-0.658,0.237C68.944,32.628,68.533,32.799,67.692,32.799z"/>
	<path class="st4" d="M67.692,34.301c-0.841,0-1.252-0.171-1.687-0.352c-0.47-0.196-0.957-0.399-1.918-0.399
		c-0.961,0-1.448,0.203-1.918,0.399c-0.435,0.181-0.846,0.352-1.687,0.352c-0.841,0-1.252-0.171-1.687-0.352
		c-0.47-0.196-0.957-0.399-1.918-0.399c-0.961,0-1.448,0.203-1.918,0.399c-0.435,0.181-0.846,0.352-1.687,0.352
		c-0.841,0-1.252-0.171-1.687-0.352c-0.439-0.183-0.907-0.365-1.745-0.389c-0.136,0.196-0.261,0.399-0.386,0.603
		c0.073-0.003,0.133-0.011,0.213-0.011c0.841,0,1.252,0.171,1.687,0.352c0.47,0.196,0.957,0.399,1.918,0.399
		c0.961,0,1.448-0.203,1.918-0.399c0.435-0.181,0.846-0.352,1.687-0.352c0.841,0,1.252,0.171,1.687,0.352
		c0.47,0.196,0.957,0.399,1.918,0.399c0.961,0,1.448-0.203,1.918-0.399c0.435-0.181,0.846-0.352,1.687-0.352
		c0.841,0,1.252,0.171,1.687,0.352c0.47,0.196,0.957,0.399,1.918,0.399c0.961,0,1.448-0.203,1.918-0.399
		c0.435-0.181,0.846-0.352,1.687-0.352c0.081,0,0.141,0.008,0.215,0.011c-0.126-0.203-0.25-0.407-0.386-0.603
		c-0.839,0.024-1.308,0.206-1.747,0.389C68.944,34.13,68.533,34.301,67.692,34.301z"/>
	<path class="st4" d="M69.379,35.451c-0.435,0.181-0.846,0.352-1.687,0.352c-0.841,0-1.252-0.171-1.687-0.352
		c-0.47-0.196-0.957-0.399-1.918-0.399c-0.961,0-1.448,0.203-1.918,0.399c-0.435,0.181-0.846,0.352-1.687,0.352
		c-0.841,0-1.252-0.171-1.687-0.352c-0.47-0.196-0.957-0.399-1.918-0.399c-0.961,0-1.448,0.203-1.918,0.399
		c-0.435,0.181-0.846,0.352-1.687,0.352c-0.841,0-1.252-0.171-1.687-0.352c-0.47-0.196-0.957-0.399-1.918-0.399
		c-0.291,0-0.528,0.022-0.744,0.054c-0.113,0.224-0.227,0.448-0.327,0.679c0.279-0.077,0.607-0.132,1.071-0.132
		c0.841,0,1.252,0.171,1.687,0.352c0.47,0.196,0.957,0.399,1.918,0.399c0.961,0,1.448-0.203,1.918-0.399
		c0.435-0.181,0.846-0.352,1.687-0.352c0.841,0,1.252,0.171,1.687,0.352c0.47,0.196,0.957,0.399,1.918,0.399
		c0.961,0,1.448-0.203,1.918-0.399c0.435-0.181,0.846-0.352,1.687-0.352c0.841,0,1.252,0.171,1.687,0.352
		c0.47,0.196,0.957,0.399,1.918,0.399c0.961,0,1.448-0.203,1.918-0.399c0.435-0.181,0.846-0.352,1.687-0.352
		c0.465,0,0.794,0.055,1.073,0.132c-0.101-0.231-0.214-0.455-0.327-0.679c-0.217-0.031-0.455-0.054-0.746-0.054
		C70.336,35.052,69.85,35.255,69.379,35.451z"/>
	<path class="st4" d="M69.379,36.953c-0.435,0.181-0.846,0.352-1.687,0.352c-0.841,0-1.252-0.171-1.687-0.352
		c-0.47-0.196-0.957-0.399-1.918-0.399c-0.961,0-1.448,0.203-1.918,0.399c-0.435,0.181-0.846,0.352-1.687,0.352
		c-0.841,0-1.252-0.171-1.687-0.352c-0.47-0.196-0.957-0.399-1.918-0.399c-0.961,0-1.448,0.203-1.918,0.399
		c-0.435,0.181-0.846,0.352-1.687,0.352c-0.841,0-1.252-0.171-1.687-0.352c-0.47-0.196-0.957-0.399-1.918-0.399
		c-0.658,0-1.087,0.097-1.447,0.22c-0.081,0.239-0.154,0.481-0.221,0.726c0.428-0.178,0.839-0.345,1.669-0.345
		c0.841,0,1.252,0.171,1.687,0.352c0.47,0.196,0.957,0.399,1.918,0.399c0.961,0,1.448-0.203,1.918-0.399
		c0.435-0.181,0.846-0.352,1.687-0.352c0.841,0,1.252,0.171,1.687,0.352c0.47,0.196,0.957,0.399,1.918,0.399
		c0.961,0,1.448-0.203,1.918-0.399c0.435-0.181,0.846-0.352,1.687-0.352c0.841,0,1.252,0.171,1.687,0.352
		c0.47,0.196,0.957,0.399,1.918,0.399c0.961,0,1.448-0.203,1.918-0.399c0.435-0.181,0.846-0.352,1.687-0.352
		c0.831,0,1.242,0.167,1.67,0.346c-0.068-0.245-0.14-0.487-0.221-0.726c-0.361-0.123-0.79-0.221-1.449-0.221
		C70.336,36.554,69.85,36.757,69.379,36.953z"/>
	<path class="st4" d="M69.379,38.455c-0.435,0.181-0.846,0.352-1.687,0.352c-0.841,0-1.252-0.171-1.687-0.352
		c-0.47-0.196-0.957-0.399-1.918-0.399c-0.961,0-1.448,0.203-1.918,0.399c-0.435,0.181-0.846,0.352-1.687,0.352
		c-0.841,0-1.252-0.171-1.687-0.352c-0.47-0.196-0.957-0.399-1.918-0.399c-0.961,0-1.448,0.203-1.918,0.399
		c-0.435,0.181-0.846,0.352-1.687,0.352c-0.841,0-1.252-0.171-1.687-0.352c-0.47-0.196-0.957-0.399-1.918-0.399
		c-0.95,0-1.436,0.198-1.901,0.392c-0.044,0.227-0.073,0.458-0.105,0.689c0.11-0.042,0.216-0.084,0.319-0.127
		c0.435-0.181,0.846-0.352,1.687-0.352c0.841,0,1.252,0.171,1.687,0.352c0.47,0.196,0.957,0.399,1.918,0.399
		c0.961,0,1.448-0.203,1.918-0.399c0.435-0.181,0.846-0.352,1.687-0.352c0.841,0,1.252,0.171,1.687,0.352
		c0.47,0.196,0.957,0.399,1.918,0.399c0.961,0,1.448-0.203,1.918-0.399c0.435-0.181,0.846-0.352,1.687-0.352
		c0.841,0,1.252,0.171,1.687,0.352c0.47,0.196,0.957,0.399,1.918,0.399c0.961,0,1.448-0.203,1.918-0.399
		c0.435-0.181,0.846-0.352,1.687-0.352c0.841,0,1.252,0.171,1.687,0.352c0.104,0.043,0.21,0.086,0.32,0.128
		c-0.032-0.231-0.061-0.462-0.105-0.689c-0.466-0.194-0.951-0.392-1.902-0.392C70.336,38.057,69.85,38.259,69.379,38.455z"/>
	<path class="st4" d="M71.298,39.559c-0.961,0-1.448,0.203-1.918,0.399c-0.435,0.181-0.846,0.352-1.687,0.352
		c-0.841,0-1.252-0.171-1.687-0.352c-0.47-0.196-0.957-0.399-1.918-0.399c-0.961,0-1.448,0.203-1.918,0.399
		c-0.435,0.181-0.846,0.352-1.687,0.352c-0.841,0-1.252-0.171-1.687-0.352c-0.47-0.196-0.957-0.399-1.918-0.399
		c-0.961,0-1.448,0.203-1.918,0.399c-0.435,0.181-0.846,0.352-1.687,0.352c-0.841,0-1.252-0.171-1.687-0.352
		c-0.47-0.196-0.957-0.399-1.918-0.399c-0.961,0-1.448,0.203-1.918,0.399c-0.06,0.025-0.122,0.049-0.183,0.073
		c-0.015,0.216-0.029,0.433-0.033,0.653c0.157-0.054,0.305-0.112,0.447-0.171c0.435-0.181,0.846-0.352,1.687-0.352
		c0.841,0,1.252,0.171,1.687,0.352c0.47,0.196,0.957,0.399,1.918,0.399c0.961,0,1.448-0.203,1.918-0.399
		c0.435-0.181,0.846-0.352,1.687-0.352c0.841,0,1.252,0.171,1.687,0.352c0.47,0.196,0.957,0.399,1.918,0.399
		c0.961,0,1.448-0.203,1.918-0.399c0.435-0.181,0.846-0.352,1.687-0.352c0.841,0,1.252,0.171,1.687,0.352
		c0.47,0.196,0.957,0.399,1.918,0.399c0.961,0,1.448-0.203,1.918-0.399c0.435-0.181,0.846-0.352,1.687-0.352
		c0.841,0,1.252,0.171,1.687,0.352c0.142,0.059,0.291,0.117,0.448,0.171c-0.004-0.219-0.018-0.436-0.033-0.652
		c-0.061-0.025-0.123-0.048-0.184-0.074C72.746,39.762,72.259,39.559,71.298,39.559z"/>
	<path class="st4" d="M64.087,41.061c-0.961,0-1.448,0.203-1.918,0.399c-0.435,0.181-0.846,0.352-1.687,0.352
		c-0.841,0-1.252-0.171-1.687-0.352c-0.47-0.196-0.957-0.399-1.918-0.399c-0.961,0-1.448,0.203-1.918,0.399
		c-0.218,0.091-0.43,0.179-0.692,0.244c0.021,0.08,0.049,0.158,0.049,0.245v0.356c0.344-0.077,0.616-0.183,0.874-0.291
		c0.435-0.181,0.846-0.352,1.687-0.352c0.841,0,1.252,0.171,1.687,0.352c0.47,0.196,0.957,0.399,1.918,0.399
		c0.961,0,1.448-0.203,1.918-0.399c0.435-0.181,0.846-0.352,1.687-0.352c0.841,0,1.252,0.171,1.687,0.352
		c0.239,0.1,0.484,0.2,0.792,0.276v-0.341c0-0.095,0.029-0.182,0.054-0.269c-0.226-0.063-0.42-0.139-0.615-0.22
		C65.535,41.264,65.048,41.061,64.087,41.061z"/>
	<path class="st4" d="M64.087,42.563c-0.961,0-1.448,0.203-1.918,0.399c-0.435,0.181-0.846,0.352-1.687,0.352
		c-0.841,0-1.252-0.171-1.687-0.352c-0.47-0.196-0.957-0.399-1.918-0.399c-0.961,0-1.448,0.203-1.918,0.399
		c-0.203,0.085-0.404,0.165-0.643,0.229v0.616c0.344-0.077,0.616-0.183,0.874-0.291c0.435-0.181,0.846-0.352,1.687-0.352
		c0.841,0,1.252,0.171,1.687,0.352c0.47,0.196,0.957,0.399,1.918,0.399c0.961,0,1.448-0.203,1.918-0.399
		c0.435-0.181,0.846-0.352,1.687-0.352c0.841,0,1.252,0.171,1.687,0.352c0.239,0.1,0.484,0.2,0.792,0.276v-0.627
		c-0.201-0.06-0.382-0.129-0.561-0.204C65.535,42.766,65.048,42.563,64.087,42.563z"/>
	<path class="st4" d="M64.087,44.066c-0.961,0-1.448,0.203-1.918,0.399c-0.435,0.181-0.846,0.352-1.687,0.352
		c-0.841,0-1.252-0.171-1.687-0.352c-0.47-0.196-0.957-0.399-1.918-0.399c-0.961,0-1.448,0.203-1.918,0.399
		c-0.203,0.085-0.404,0.165-0.643,0.229v0.616c0.344-0.077,0.616-0.183,0.874-0.291c0.435-0.181,0.846-0.352,1.687-0.352
		c0.841,0,1.252,0.171,1.687,0.352c0.47,0.196,0.957,0.399,1.918,0.399c0.961,0,1.448-0.203,1.918-0.399
		c0.435-0.181,0.846-0.352,1.687-0.352c0.841,0,1.252,0.171,1.687,0.352c0.239,0.1,0.484,0.2,0.792,0.276v-0.627
		c-0.201-0.06-0.382-0.129-0.561-0.204C65.535,44.268,65.048,44.066,64.087,44.066z"/>
	<path class="st3" d="M60.066,24.364c-0.563,0.053-1.091,0.207-1.572,0.451c0.103,0.039,0.204,0.08,0.301,0.12
		c0.435,0.181,0.846,0.352,1.687,0.352c0.841,0,1.252-0.171,1.687-0.352c0.098-0.041,0.199-0.081,0.302-0.121
		c-0.481-0.244-1.01-0.398-1.572-0.451c-0.133,0.01-0.26,0.023-0.417,0.023C60.325,24.386,60.199,24.374,60.066,24.364z"/>
	<path class="st3" d="M61.865,28.061c-0.454-0.048-0.915-0.076-1.382-0.076c-0.468,0-0.928,0.027-1.383,0.076
		c0.344,0.129,0.736,0.231,1.383,0.231C61.128,28.292,61.52,28.19,61.865,28.061z"/>
	<path class="st4" d="M60.066,24.396c0.133,0.01,0.26,0.023,0.416,0.023c0.157,0,0.283-0.013,0.417-0.023
		c-0.139-0.013-0.274-0.042-0.416-0.042C60.34,24.354,60.205,24.383,60.066,24.396z"/>
	<path class="st4" d="M60.482,25.32c-0.841,0-1.252-0.171-1.687-0.352c-0.098-0.041-0.198-0.081-0.301-0.12
		c-0.239,0.121-0.464,0.26-0.675,0.421c0.285,0.066,0.515,0.158,0.745,0.254c0.47,0.196,0.957,0.399,1.918,0.399
		c0.961,0,1.448-0.203,1.918-0.399c0.231-0.096,0.461-0.188,0.747-0.254c-0.211-0.161-0.437-0.3-0.676-0.421
		c-0.103,0.039-0.204,0.08-0.302,0.121C61.734,25.149,61.323,25.32,60.482,25.32z"/>
	<path class="st4" d="M60.482,26.823c-0.841,0-1.252-0.171-1.687-0.352c-0.447-0.186-0.921-0.373-1.792-0.392
		c-0.148,0.191-0.278,0.394-0.393,0.608c0.089-0.005,0.166-0.014,0.267-0.014c0.841,0,1.252,0.171,1.687,0.352
		c0.47,0.196,0.957,0.399,1.918,0.399c0.961,0,1.448-0.203,1.918-0.399c0.435-0.181,0.846-0.352,1.687-0.352
		c0.101,0,0.179,0.01,0.268,0.014c-0.116-0.214-0.245-0.417-0.394-0.608c-0.871,0.018-1.346,0.205-1.793,0.392
		C61.734,26.651,61.323,26.823,60.482,26.823z"/>
	<path class="st4" d="M62.169,27.972c-0.101,0.042-0.201,0.083-0.304,0.122c0.416,0.044,0.828,0.105,1.231,0.188
		c0.261-0.065,0.573-0.107,0.991-0.107c0.308,0,0.546,0.028,0.761,0.066c-0.026-0.216-0.065-0.427-0.121-0.632
		c-0.188-0.022-0.399-0.035-0.64-0.035C63.126,27.574,62.639,27.776,62.169,27.972z"/>
	<path class="st4" d="M57.868,28.282c0.403-0.083,0.815-0.144,1.231-0.188c-0.104-0.039-0.204-0.08-0.304-0.122
		c-0.47-0.196-0.957-0.399-1.918-0.399c-0.24,0-0.451,0.013-0.639,0.035c-0.056,0.206-0.095,0.416-0.121,0.632
		c0.215-0.038,0.452-0.066,0.76-0.066C57.295,28.175,57.607,28.217,57.868,28.282z"/>
	<path class="st4" d="M58.564,28.527c0.47,0.196,0.957,0.399,1.918,0.399c0.961,0,1.448-0.203,1.918-0.399
		c0.219-0.091,0.432-0.18,0.696-0.245c-0.404-0.083-0.815-0.144-1.231-0.188c-0.344,0.129-0.736,0.231-1.383,0.231
		c-0.646,0-1.038-0.102-1.383-0.231c-0.416,0.044-0.827,0.105-1.231,0.188C58.132,28.348,58.345,28.436,58.564,28.527z"/>
	<path class="st4" d="M56.877,29.677c0.841,0,1.252,0.171,1.687,0.352c0.47,0.196,0.957,0.399,1.918,0.399
		c0.961,0,1.448-0.203,1.918-0.399c0.435-0.181,0.846-0.352,1.687-0.352c0.281,0,0.502,0.024,0.704,0.056
		c0.043-0.193,0.058-0.395,0.074-0.597c-0.225-0.034-0.472-0.06-0.778-0.06c-0.961,0-1.448,0.203-1.918,0.399
		c-0.435,0.181-0.846,0.352-1.687,0.352c-0.841,0-1.252-0.171-1.687-0.352c-0.47-0.196-0.957-0.399-1.918-0.399
		c-0.306,0-0.553,0.025-0.777,0.06c0.017,0.202,0.031,0.404,0.074,0.597C56.375,29.701,56.597,29.677,56.877,29.677z"/>
	<path class="st4" d="M62.169,30.977c-0.435,0.181-0.846,0.352-1.687,0.352c-0.841,0-1.252-0.171-1.687-0.352
		c-0.47-0.196-0.957-0.399-1.918-0.399c-0.154,0-0.277,0.013-0.409,0.022c0.092,0.203,0.196,0.399,0.317,0.584
		c0.033-0.001,0.057-0.005,0.092-0.005c0.841,0,1.252,0.171,1.687,0.352c0.47,0.196,0.957,0.399,1.918,0.399
		c0.961,0,1.448-0.203,1.918-0.399c0.435-0.181,0.846-0.352,1.687-0.352c0.035,0,0.059,0.004,0.093,0.005
		c0.121-0.185,0.224-0.381,0.317-0.584c-0.132-0.01-0.256-0.022-0.41-0.022C63.126,30.578,62.639,30.781,62.169,30.977z"/>
	<path class="st4" d="M60.482,32.831c-0.841,0-1.252-0.171-1.687-0.352c-0.322-0.134-0.662-0.267-1.146-0.34
		c0.769,0.648,1.749,1.054,2.834,1.054c1.085,0,2.065-0.406,2.834-1.054c-0.485,0.073-0.826,0.206-1.148,0.34
		C61.734,32.66,61.323,32.831,60.482,32.831z"/>
	<circle class="st1" cx="60.479" cy="28.774" r="4.419"/>
	<path class="st5" d="M45.887,193.16v-0.192c0-1.967,0.728-2.742,1.639-2.742c0.271,0,0.432,0.032,0.64,0.128v1.007
		c-0.2-0.12-0.36-0.184-0.544-0.184c-0.432,0-0.744,0.384-0.744,1.783v0.208c0,1.479,0.312,1.783,0.76,1.783
		c0.152,0,0.344-0.056,0.543-0.176v0.959c-0.224,0.128-0.439,0.168-0.72,0.168C46.566,195.902,45.887,195.111,45.887,193.16z
		 M48.671,190.266h0.976v2.318h0.848v-2.318h0.975v5.597h-0.975v-2.351h-0.848v2.351h-0.976V190.266z M52.831,190.249h1.04
		l1.063,5.613h-0.976l-0.184-1.111h-0.887l-0.176,1.111h-0.943L52.831,190.249z M53.63,193.872l-0.296-1.847l-0.304,1.847H53.63z
		 M55.231,190.266h0.967l0.688,2.047l0.688-2.047h0.967v5.597h-0.936v-3.382l-0.711,2.119h-0.016l-0.711-2.119v3.382h-0.936V190.266
		z M59.119,190.266h0.872c1.063,0,1.807,0.575,1.807,1.887v0.016c0,1.263-0.704,1.863-1.695,1.935h-0.008v1.759h-0.976V190.266z
		 M60.103,193.2c0.408-0.024,0.719-0.32,0.719-1v-0.016c0-0.712-0.272-1.016-0.695-1.016h-0.032v2.031H60.103z M62.079,195.67
		v-1.016c0.344,0.2,0.615,0.312,0.879,0.312c0.28,0,0.52-0.136,0.52-0.479v-0.016c0-0.256-0.08-0.448-0.543-0.976
		c-0.664-0.751-0.936-1.111-0.936-1.791v-0.016c0-0.896,0.583-1.463,1.359-1.463c0.392,0,0.624,0.056,0.863,0.176v1.016
		c-0.304-0.176-0.488-0.256-0.744-0.256c-0.272,0-0.503,0.176-0.503,0.479v0.016c0,0.264,0.08,0.36,0.543,0.896
		c0.768,0.887,0.936,1.231,0.936,1.871v0.016c0,0.879-0.616,1.463-1.383,1.463C62.687,195.902,62.359,195.806,62.079,195.67z
		 M66.071,190.266h0.848c0.943,0,1.823,0.384,1.823,1.423v0.04c0,0.72-0.408,1.071-0.808,1.263c0.472,0.208,0.88,0.536,0.88,1.248
		v0.072c0,0.992-0.768,1.551-1.855,1.551h-0.887V190.266z M67.062,192.616c0.432,0,0.72-0.248,0.72-0.736v-0.016
		c0-0.487-0.288-0.695-0.72-0.695h-0.016v1.447H67.062z M67.07,194.959c0.448,0,0.768-0.264,0.768-0.728v-0.04
		c0-0.464-0.32-0.728-0.768-0.728h-0.024v1.495H67.07z M69.966,190.249h1.04l1.063,5.613h-0.976l-0.184-1.111h-0.887l-0.176,1.111
		h-0.944L69.966,190.249z M70.766,193.872l-0.296-1.847l-0.304,1.847H70.766z M72.367,190.266h1.007c1,0,1.727,0.527,1.727,1.783
		v0.072c0,0.728-0.288,1.191-0.655,1.472l0.751,2.271h-1.04l-0.631-1.951h-0.184v1.951h-0.976V190.266z M73.39,193.032
		c0.424,0,0.736-0.248,0.736-0.903v-0.064c0-0.704-0.336-0.888-0.76-0.888h-0.024v1.855H73.39z"/>
	<path class="st5" d="M46.419,129.2h-0.636c0.125-0.215,0.195-0.385,0.195-0.551c0-0.175-0.085-0.325-0.3-0.325h-0.01
		c-0.16,0-0.28,0.05-0.61,0.34c-0.471,0.416-0.696,0.585-1.121,0.585h-0.01c-0.561,0-0.916-0.365-0.916-0.851
		c0-0.245,0.035-0.391,0.11-0.541h0.636c-0.11,0.19-0.16,0.305-0.16,0.465c0,0.17,0.11,0.315,0.3,0.315h0.01
		c0.166,0,0.226-0.05,0.561-0.34c0.556-0.48,0.771-0.585,1.171-0.585h0.01c0.55,0,0.916,0.385,0.916,0.866
		C46.564,128.819,46.504,129.024,46.419,129.2z M43.036,127.499v-0.61h1.452v-0.531h-1.452v-0.61h3.503v0.61h-1.472v0.531h1.472
		v0.61H43.036z M44.877,125.45h-0.18c-1.156,0-1.712-0.375-1.712-0.931c0-0.555,0.556-0.931,1.712-0.931h0.18
		c1.156,0,1.711,0.375,1.711,0.931C46.589,125.074,46.034,125.45,44.877,125.45z M44.877,124.208h-0.18
		c-0.901,0-1.151,0.125-1.151,0.31c0,0.186,0.25,0.311,1.151,0.311h0.18c0.901,0,1.151-0.125,1.151-0.311
		C46.028,124.333,45.778,124.208,44.877,124.208z M43.036,123.505v-0.626l2.147-0.255l-2.147-0.306v-0.565l2.147-0.3l-2.147-0.26
		v-0.61l3.513,0.53v0.641l-2.077,0.291l2.077,0.29v0.641L43.036,123.505z M43.036,120.379v-1.341h0.581v0.731h0.871v-0.646h0.58
		v0.646h0.891v-0.746h0.581v1.356H43.036z M43.036,118.729v-0.63c0-0.625,0.331-1.081,1.116-1.081h0.045
		c0.456,0,0.746,0.18,0.921,0.41l1.421-0.47v0.65l-1.221,0.396v0.115h1.221v0.61H43.036z M44.768,118.089
		c0-0.265-0.155-0.46-0.566-0.46h-0.04c-0.44,0-0.555,0.21-0.555,0.476v0.015h1.161V118.089z"/>
	<path class="st5" d="M5.716,323.95v-0.872c0-1.063,0.575-1.807,1.887-1.807h0.016c1.263,0,1.863,0.704,1.935,1.695v0.008h1.759
		v0.976H5.716z M8.65,322.967c-0.024-0.408-0.32-0.72-1-0.72H7.635c-0.712,0-1.016,0.272-1.016,0.696v0.032H8.65V322.967z
		 M5.716,320.87v-1.007c0-1,0.527-1.727,1.783-1.727H7.57c0.728,0,1.191,0.288,1.472,0.656l2.271-0.751v1.039l-1.951,0.632v0.184
		h1.951v0.976H5.716z M8.482,319.847c0-0.424-0.248-0.735-0.903-0.735H7.515c-0.704,0-0.888,0.336-0.888,0.759v0.024h1.855V319.847z
		 M8.658,317.782H8.37c-1.847,0-2.734-0.6-2.734-1.487c0-0.887,0.887-1.487,2.734-1.487h0.288c1.847,0,2.734,0.6,2.734,1.487
		C11.393,317.183,10.505,317.782,8.658,317.782z M8.658,315.799H8.37c-1.439,0-1.839,0.2-1.839,0.496s0.399,0.496,1.839,0.496h0.288
		c1.439,0,1.839-0.2,1.839-0.496S10.097,315.799,8.658,315.799z M5.716,314.326v-0.967l2.047-0.688l-2.047-0.688v-0.967h5.597v0.936
		H7.93l2.119,0.711v0.016l-2.119,0.711h3.382v0.936H5.716z M5.716,310.438v-2.143h0.927v1.167h1.391v-1.031h0.928v1.031h1.423
		v-1.191h0.928v2.167H5.716z M5.716,307.798v-0.912l2.83-0.983h-2.83v-0.951h5.597v0.863l-2.966,1.032h2.966v0.951H5.716z
		 M5.7,303.591v-1.039l5.613-1.063v0.975l-1.111,0.184v0.888l1.111,0.176v0.943L5.7,303.591z M9.322,302.791l-1.847,0.296
		l1.847,0.304V302.791z M5.716,301.19v-0.911c0-1.248,0.903-1.959,2.702-1.959H8.61c1.799,0,2.703,0.711,2.703,1.959v0.911H5.716z
		 M10.417,300.175c0-0.464-0.408-0.864-1.807-0.864H8.418c-1.399,0-1.807,0.4-1.807,0.864v0.04h3.806V300.175z M5.716,297.839
		v-2.143h0.927v1.167h1.391v-1.032h0.928v1.032h1.423v-1.191h0.928v2.167H5.716z"/>
	<path class="st5" d="M108.55,323.95v-0.872c0-1.063,0.575-1.807,1.887-1.807h0.016c1.264,0,1.863,0.704,1.936,1.695v0.008h1.759
		v0.976H108.55z M111.484,322.967c-0.024-0.408-0.32-0.72-1-0.72h-0.016c-0.712,0-1.016,0.272-1.016,0.696v0.032h2.031V322.967z
		 M108.55,320.87v-1.007c0-1,0.527-1.727,1.783-1.727h0.071c0.728,0,1.191,0.288,1.472,0.656l2.271-0.751v1.039l-1.951,0.632v0.184
		h1.951v0.976H108.55z M111.316,319.847c0-0.424-0.248-0.735-0.904-0.735h-0.063c-0.704,0-0.888,0.336-0.888,0.759v0.024h1.855
		V319.847z M111.492,317.782h-0.288c-1.847,0-2.734-0.6-2.734-1.487c0-0.887,0.888-1.487,2.734-1.487h0.288
		c1.847,0,2.734,0.6,2.734,1.487C114.227,317.183,113.339,317.782,111.492,317.782z M111.492,315.799h-0.288
		c-1.439,0-1.839,0.2-1.839,0.496s0.399,0.496,1.839,0.496h0.288c1.439,0,1.839-0.2,1.839-0.496S112.932,315.799,111.492,315.799z
		 M108.55,314.326v-0.967l2.047-0.688l-2.047-0.688v-0.967h5.597v0.936h-3.382l2.118,0.711v0.016l-2.118,0.711h3.382v0.936H108.55z
		 M108.55,310.438v-2.143h0.927v1.167h1.392v-1.031h0.928v1.031h1.423v-1.191h0.928v2.167H108.55z M108.55,307.798v-0.912
		l2.83-0.983h-2.83v-0.951h5.597v0.863l-2.967,1.032h2.967v0.951H108.55z M108.533,303.591v-1.039l5.613-1.063v0.975l-1.111,0.184
		v0.888l1.111,0.176v0.943L108.533,303.591z M112.155,302.791l-1.847,0.296l1.847,0.304V302.791z M108.55,301.19v-0.911
		c0-1.248,0.903-1.959,2.702-1.959h0.192c1.799,0,2.702,0.711,2.702,1.959v0.911H108.55z M113.251,300.175
		c0-0.464-0.408-0.864-1.807-0.864h-0.192c-1.399,0-1.807,0.4-1.807,0.864v0.04h3.806V300.175z M108.55,297.839v-2.143h0.927v1.167
		h1.392v-1.032h0.928v1.032h1.423v-1.191h0.928v2.167H108.55z"/>
	<path class="st5" d="M87.82,605.218v-0.192c0-1.967,0.728-2.742,1.639-2.742c0.272,0,0.433,0.032,0.641,0.128v1.007
		c-0.2-0.119-0.36-0.184-0.544-0.184c-0.432,0-0.744,0.384-0.744,1.783v0.208c0,1.479,0.312,1.783,0.76,1.783
		c0.152,0,0.344-0.057,0.544-0.176v0.959c-0.224,0.128-0.439,0.168-0.72,0.168C88.5,607.96,87.82,607.168,87.82,605.218z
		 M91.388,602.307h1.04l1.062,5.613h-0.975l-0.185-1.111h-0.888l-0.176,1.111h-0.943L91.388,602.307z M92.188,605.929l-0.296-1.847
		l-0.304,1.847H92.188z M93.612,605.218v-0.192c0-1.807,0.768-2.742,1.871-2.742c0.296,0,0.544,0.063,0.743,0.16v1.015
		c-0.239-0.144-0.455-0.239-0.711-0.239c-0.56,0-0.912,0.56-0.912,1.767v0.272c0,1.463,0.432,1.799,0.832,1.799
		c0.032,0,0.04,0,0.088-0.008v-1.432h-0.479v-0.871h1.367v2.974c-0.353,0.152-0.64,0.24-1.016,0.24
		C94.42,607.96,93.612,607.168,93.612,605.218z M96.948,602.323h0.911l0.984,2.83v-2.83h0.951v5.597h-0.863l-1.032-2.967v2.967
		h-0.951V602.323z M100.372,602.323h2.143v0.928h-1.167v1.391h1.031v0.928h-1.031v1.423h1.191v0.928h-2.167V602.323z
		 M103.764,605.713l-1.039-3.39h1.007l0.528,2.095l0.535-2.095h0.983l-1.039,3.39v2.207h-0.976V605.713z M105.98,604.338
		c0.592-0.128,0.711-0.552,0.671-0.903h-0.495v-1.111h1.104v0.911c0,0.848-0.408,1.392-1.199,1.495L105.98,604.338z
		 M107.748,607.728v-1.015c0.344,0.199,0.615,0.312,0.88,0.312c0.279,0,0.52-0.136,0.52-0.479v-0.017
		c0-0.256-0.08-0.447-0.544-0.975c-0.664-0.752-0.936-1.112-0.936-1.791v-0.017c0-0.896,0.584-1.463,1.359-1.463
		c0.392,0,0.624,0.056,0.863,0.176v1.016c-0.304-0.176-0.487-0.256-0.743-0.256c-0.272,0-0.504,0.176-0.504,0.479v0.016
		c0,0.265,0.08,0.36,0.544,0.896c0.768,0.888,0.936,1.231,0.936,1.871v0.017c0,0.879-0.616,1.463-1.384,1.463
		C108.355,607.96,108.028,607.864,107.748,607.728z M84.36,615.728v-1.015c0.344,0.199,0.616,0.312,0.88,0.312
		c0.279,0,0.52-0.136,0.52-0.479v-0.017c0-0.256-0.08-0.447-0.544-0.975c-0.663-0.752-0.936-1.112-0.936-1.791v-0.017
		c0-0.896,0.584-1.463,1.359-1.463c0.392,0,0.624,0.056,0.863,0.176v1.016c-0.304-0.176-0.487-0.256-0.743-0.256
		c-0.271,0-0.504,0.176-0.504,0.479v0.016c0,0.265,0.08,0.36,0.544,0.896c0.768,0.888,0.936,1.231,0.936,1.871v0.017
		c0,0.879-0.616,1.463-1.384,1.463C84.968,615.96,84.641,615.864,84.36,615.728z M87.48,611.251h-0.688v-0.928h2.351v0.928h-0.688
		v4.669H87.48V611.251z M89.553,610.323h2.143v0.928h-1.168v1.391h1.032v0.928h-1.032v1.423h1.191v0.928h-2.166V610.323z
		 M92.976,610.307h1.04l1.062,5.613h-0.975l-0.185-1.111h-0.888l-0.176,1.111h-0.943L92.976,610.307z M93.775,613.929l-0.296-1.847
		l-0.304,1.847H93.775z M95.376,610.323h0.976v2.343l0.792-2.343h1.103l-0.943,2.366l0.96,3.23h-1.088l-0.607-2.119l-0.216,0.616
		v1.503h-0.976V610.323z M98.601,610.323h0.975v2.318h0.848v-2.318h0.976v5.597h-0.976v-2.351h-0.848v2.351h-0.975V610.323z
		 M101.88,613.266v-0.288c0-1.847,0.6-2.734,1.487-2.734s1.487,0.888,1.487,2.734v0.288c0,1.847-0.6,2.734-1.487,2.734
		S101.88,615.112,101.88,613.266z M103.863,613.266v-0.288c0-1.439-0.2-1.839-0.496-1.839s-0.495,0.399-0.495,1.839v0.288
		c0,1.438,0.199,1.839,0.495,1.839S103.863,614.704,103.863,613.266z M105.32,614.289v-3.966h0.967v4.062
		c0,0.504,0.177,0.704,0.424,0.704c0.248,0,0.424-0.2,0.424-0.704v-4.062h0.968v3.966c0,1.175-0.592,1.703-1.392,1.703
		C105.912,615.992,105.32,615.464,105.32,614.289z M108.544,615.728v-1.015c0.344,0.199,0.616,0.312,0.88,0.312
		c0.279,0,0.52-0.136,0.52-0.479v-0.017c0-0.256-0.08-0.447-0.544-0.975c-0.663-0.752-0.936-1.112-0.936-1.791v-0.017
		c0-0.896,0.584-1.463,1.359-1.463c0.392,0,0.624,0.056,0.863,0.176v1.016c-0.304-0.176-0.487-0.256-0.743-0.256
		c-0.271,0-0.504,0.176-0.504,0.479v0.016c0,0.265,0.08,0.36,0.544,0.896c0.768,0.888,0.936,1.231,0.936,1.871v0.017
		c0,0.879-0.616,1.463-1.384,1.463C109.151,615.96,108.824,615.864,108.544,615.728z M111.264,610.323h2.144v0.928h-1.168v1.391
		h1.031v0.928h-1.031v1.423h1.191v0.928h-2.167V610.323z"/>
	<path class="st5" d="M103.11,566.546h-0.192c-1.807,0-2.742-0.768-2.742-1.87c0-0.296,0.063-0.544,0.16-0.744h1.015
		c-0.144,0.24-0.239,0.456-0.239,0.712c0,0.56,0.56,0.911,1.767,0.911h0.272c1.463,0,1.799-0.432,1.799-0.831
		c0-0.032,0-0.04-0.008-0.088h-1.432v0.479h-0.871v-1.367h2.974c0.152,0.352,0.24,0.64,0.24,1.016
		C105.853,565.739,105.061,566.546,103.11,566.546z M103.158,563.307h-0.288c-1.847,0-2.734-0.6-2.734-1.487
		s0.888-1.487,2.734-1.487h0.288c1.847,0,2.734,0.6,2.734,1.487S105.005,563.307,103.158,563.307z M103.158,561.323h-0.288
		c-1.439,0-1.839,0.2-1.839,0.496s0.399,0.495,1.839,0.495h0.288c1.439,0,1.839-0.199,1.839-0.495S104.598,561.323,103.158,561.323z
		 M100.216,559.851v-0.976h4.669v-1.031h0.928v2.007H100.216z M100.216,557.45v-2.039h0.927v1.063h1.408v-0.927h0.927v0.927h2.335
		v0.976H100.216z M108.216,569.771v-0.912c0-1.247,0.903-1.959,2.702-1.959h0.192c1.799,0,2.702,0.712,2.702,1.959v0.912H108.216z
		 M112.917,568.755c0-0.464-0.408-0.863-1.807-0.863h-0.192c-1.399,0-1.807,0.399-1.807,0.863v0.04h3.806V568.755z M108.216,566.418
		v-1.007c0-1,0.527-1.728,1.783-1.728h0.071c0.728,0,1.191,0.288,1.472,0.656l2.271-0.752v1.039l-1.951,0.632v0.185h1.951v0.975
		H108.216z M110.982,565.395c0-0.423-0.248-0.735-0.904-0.735h-0.063c-0.704,0-0.888,0.336-0.888,0.76v0.024h1.855V565.395z
		 M108.216,563.219v-0.976h5.597v0.976H108.216z M108.216,561.931v-0.992l3.646-0.527l-3.646-0.527v-0.96l5.612,1v1.007
		L108.216,561.931z M108.216,558.61v-0.976h5.597v0.976H108.216z M108.216,557.043v-0.912l2.83-0.983h-2.83v-0.951h5.597v0.863
		l-2.967,1.031h2.967v0.952H108.216z M111.11,553.715h-0.192c-1.807,0-2.742-0.768-2.742-1.871c0-0.296,0.063-0.544,0.16-0.744
		h1.015c-0.144,0.24-0.239,0.456-0.239,0.712c0,0.56,0.56,0.911,1.767,0.911h0.272c1.463,0,1.799-0.432,1.799-0.831
		c0-0.032,0-0.04-0.008-0.088h-1.432v0.479h-0.871v-1.367h2.974c0.152,0.352,0.24,0.64,0.24,1.016
		C113.853,552.907,113.061,553.715,111.11,553.715z"/>
	<path class="st5" d="M103.11,508.546h-0.192c-1.807,0-2.742-0.768-2.742-1.87c0-0.296,0.063-0.544,0.16-0.744h1.015
		c-0.144,0.24-0.239,0.456-0.239,0.712c0,0.56,0.56,0.911,1.767,0.911h0.272c1.463,0,1.799-0.432,1.799-0.831
		c0-0.032,0-0.04-0.008-0.088h-1.432v0.479h-0.871v-1.367h2.974c0.152,0.352,0.24,0.64,0.24,1.016
		C105.853,507.739,105.061,508.546,103.11,508.546z M103.158,505.307h-0.288c-1.847,0-2.734-0.6-2.734-1.487
		s0.888-1.487,2.734-1.487h0.288c1.847,0,2.734,0.6,2.734,1.487S105.005,505.307,103.158,505.307z M103.158,503.323h-0.288
		c-1.439,0-1.839,0.2-1.839,0.496s0.399,0.495,1.839,0.495h0.288c1.439,0,1.839-0.199,1.839-0.495S104.598,503.323,103.158,503.323z
		 M100.216,501.851v-0.976h4.669v-1.031h0.928v2.007H100.216z M100.216,499.45v-2.039h0.927v1.063h1.408v-0.927h0.927v0.927h2.335
		v0.976H100.216z M108.216,511.77v-0.912c0-1.247,0.903-1.959,2.702-1.959h0.192c1.799,0,2.702,0.712,2.702,1.959v0.912H108.216z
		 M112.917,510.755c0-0.464-0.408-0.863-1.807-0.863h-0.192c-1.399,0-1.807,0.399-1.807,0.863v0.04h3.806V510.755z M108.216,508.418
		v-1.007c0-1,0.527-1.728,1.783-1.728h0.071c0.728,0,1.191,0.288,1.472,0.656l2.271-0.752v1.039l-1.951,0.632v0.185h1.951v0.975
		H108.216z M110.982,507.395c0-0.423-0.248-0.735-0.904-0.735h-0.063c-0.704,0-0.888,0.336-0.888,0.76v0.024h1.855V507.395z
		 M108.216,505.219v-0.976h5.597v0.976H108.216z M108.216,503.931v-0.992l3.646-0.527l-3.646-0.527v-0.96l5.612,1v1.007
		L108.216,503.931z M108.216,500.61v-0.976h5.597v0.976H108.216z M108.216,499.043v-0.912l2.83-0.983h-2.83v-0.951h5.597v0.863
		l-2.967,1.031h2.967v0.952H108.216z M111.11,495.715h-0.192c-1.807,0-2.742-0.768-2.742-1.871c0-0.296,0.063-0.544,0.16-0.744
		h1.015c-0.144,0.24-0.239,0.456-0.239,0.712c0,0.56,0.56,0.911,1.767,0.911h0.272c1.463,0,1.799-0.432,1.799-0.831
		c0-0.032,0-0.04-0.008-0.088h-1.432v0.479h-0.871v-1.367h2.974c0.152,0.352,0.24,0.64,0.24,1.016
		C113.853,494.907,113.061,495.715,111.11,495.715z"/>
	<path class="st5" d="M35.25,574.1h1.007c1,0,1.727,0.527,1.727,1.783v0.071c0,0.728-0.288,1.191-0.656,1.472l0.751,2.271h-1.039
		l-0.632-1.951h-0.184v1.951H35.25V574.1z M36.273,576.866c0.424,0,0.735-0.248,0.735-0.904v-0.063c0-0.704-0.336-0.888-0.759-0.888
		h-0.024v1.855H36.273z M38.434,574.1h1.008c1,0,1.727,0.527,1.727,1.783v0.071c0,0.728-0.288,1.191-0.656,1.472l0.751,2.271h-1.04
		l-0.631-1.951h-0.184v1.951h-0.976V574.1z M39.457,576.866c0.424,0,0.736-0.248,0.736-0.904v-0.063c0-0.704-0.336-0.888-0.76-0.888
		h-0.024v1.855H39.457z"/>
	<path class="st5" d="M79.916,574.1h1.008c0.999,0,1.727,0.527,1.727,1.783v0.071c0,0.728-0.287,1.191-0.655,1.472l0.752,2.271
		h-1.04l-0.631-1.951h-0.185v1.951h-0.976V574.1z M80.939,576.866c0.424,0,0.736-0.248,0.736-0.904v-0.063
		c0-0.704-0.336-0.888-0.76-0.888h-0.024v1.855H80.939z M83.101,574.1h1.007c1,0,1.728,0.527,1.728,1.783v0.071
		c0,0.728-0.288,1.191-0.655,1.472l0.751,2.271h-1.039l-0.632-1.951h-0.184v1.951h-0.976V574.1z M84.124,576.866
		c0.424,0,0.735-0.248,0.735-0.904v-0.063c0-0.704-0.336-0.888-0.76-0.888h-0.023v1.855H84.124z"/>
	<path class="st5" d="M38.655,132.351h0.692c0.687,0,1.187,0.362,1.187,1.225v0.049c0,0.5-0.197,0.818-0.45,1.011l0.517,1.56h-0.714
		l-0.434-1.34h-0.126v1.34h-0.67V132.351z M39.358,134.251c0.291,0,0.505-0.17,0.505-0.621v-0.044c0-0.483-0.23-0.61-0.522-0.61
		h-0.016v1.274H39.358z M40.844,132.351h0.692c0.687,0,1.187,0.362,1.187,1.225v0.049c0,0.5-0.198,0.818-0.451,1.011l0.516,1.56
		h-0.714l-0.434-1.34h-0.126v1.34h-0.67V132.351z M41.547,134.251c0.291,0,0.505-0.17,0.505-0.621v-0.044
		c0-0.483-0.231-0.61-0.522-0.61h-0.017v1.274H41.547z"/>
	<path class="st5" d="M52.021,290.238v-0.288c0-1.847,0.6-2.734,1.487-2.734c0.888,0,1.487,0.887,1.487,2.734v0.288
		c0,1.847-0.6,2.734-1.487,2.734C52.621,292.973,52.021,292.085,52.021,290.238z M54.004,290.238v-0.288
		c0-1.439-0.2-1.839-0.496-1.839c-0.295,0-0.496,0.399-0.496,1.839v0.288c0,1.439,0.2,1.839,0.496,1.839
		C53.804,292.077,54.004,291.677,54.004,290.238z M55.477,287.296h0.872c1.063,0,1.807,0.575,1.807,1.887v0.016
		c0,1.263-0.704,1.863-1.695,1.935h-0.008v1.759h-0.976V287.296z M56.461,290.23c0.408-0.024,0.719-0.32,0.719-1v-0.016
		c0-0.712-0.272-1.016-0.695-1.016h-0.032v2.031H56.461z M58.557,287.296H60.7v0.927h-1.167v1.391h1.031v0.928h-1.031v1.423h1.191
		v0.928h-2.167V287.296z M61.197,287.296h0.911l0.983,2.83v-2.83h0.952v5.597H63.18l-1.032-2.966v2.966h-0.951V287.296z
		 M66.413,288.223h-0.688v-0.927h2.351v0.927h-0.688v4.669h-0.976V288.223z M68.229,290.238v-0.288c0-1.847,0.6-2.734,1.487-2.734
		c0.887,0,1.487,0.887,1.487,2.734v0.288c0,1.847-0.6,2.734-1.487,2.734C68.829,292.973,68.229,292.085,68.229,290.238z
		 M70.212,290.238v-0.288c0-1.439-0.2-1.839-0.496-1.839s-0.496,0.399-0.496,1.839v0.288c0,1.439,0.2,1.839,0.496,1.839
		S70.212,291.677,70.212,290.238z M47.349,295.296h0.912c1.248,0,1.959,0.903,1.959,2.702v0.192c0,1.799-0.711,2.703-1.959,2.703
		h-0.912V295.296z M48.365,299.997c0.464,0,0.864-0.408,0.864-1.807v-0.192c0-1.399-0.4-1.807-0.864-1.807h-0.04v3.806H48.365z
		 M50.701,295.296h2.143v0.927h-1.167v1.391h1.031v0.928h-1.031v1.423h1.191v0.928h-2.167V295.296z M53.165,298.19v-0.192
		c0-1.967,0.728-2.742,1.639-2.742c0.272,0,0.432,0.032,0.64,0.128v1.007c-0.2-0.12-0.36-0.184-0.543-0.184
		c-0.432,0-0.744,0.384-0.744,1.783v0.208c0,1.479,0.312,1.783,0.759,1.783c0.152,0,0.344-0.056,0.544-0.176v0.959
		c-0.224,0.128-0.44,0.168-0.72,0.168C53.845,300.933,53.165,300.141,53.165,298.19z M55.949,295.296h0.976v2.342l0.792-2.342h1.103
		l-0.943,2.366l0.959,3.23h-1.087l-0.607-2.119l-0.216,0.616v1.503h-0.976V295.296z M60.445,295.296h0.847
		c0.944,0,1.823,0.384,1.823,1.423v0.04c0,0.72-0.408,1.071-0.808,1.263c0.472,0.208,0.879,0.536,0.879,1.248v0.072
		c0,0.992-0.768,1.551-1.855,1.551h-0.887V295.296z M61.437,297.646c0.432,0,0.72-0.248,0.72-0.736v-0.016
		c0-0.487-0.288-0.695-0.72-0.695H61.42v1.447H61.437z M61.444,299.989c0.448,0,0.768-0.264,0.768-0.728v-0.04
		c0-0.464-0.319-0.728-0.768-0.728H61.42v1.495H61.444z M63.597,295.296h2.143v0.927h-1.167v1.391h1.031v0.928h-1.031v1.423h1.191
		v0.928h-2.167V295.296z M66.237,295.296h0.976v4.669h1.032v0.928h-2.007V295.296z M68.341,298.238v-0.288
		c0-1.847,0.6-2.734,1.487-2.734s1.487,0.887,1.487,2.734v0.288c0,1.847-0.6,2.734-1.487,2.734S68.341,300.085,68.341,298.238z
		 M70.324,298.238v-0.288c0-1.439-0.2-1.839-0.496-1.839s-0.496,0.399-0.496,1.839v0.288c0,1.439,0.2,1.839,0.496,1.839
		S70.324,299.677,70.324,298.238z M71.453,295.296h1l0.408,3.43l0.488-3.43h0.903l0.48,3.43l0.416-3.43h0.976l-0.848,5.613h-1.023
		l-0.463-3.318l-0.464,3.318h-1.023L71.453,295.296z"/>
	<path class="st5" d="M23.221,431.77h0.848c0.943,0,1.823,0.384,1.823,1.423v0.04c0,0.72-0.408,1.071-0.808,1.264
		c0.472,0.208,0.879,0.535,0.879,1.247v0.072c0,0.991-0.768,1.551-1.854,1.551h-0.888V431.77z M24.212,434.121
		c0.432,0,0.72-0.248,0.72-0.735v-0.017c0-0.487-0.288-0.695-0.72-0.695h-0.016v1.447H24.212z M24.22,436.464
		c0.448,0,0.768-0.264,0.768-0.728v-0.04c0-0.464-0.32-0.728-0.768-0.728h-0.024v1.495H24.22z M27.116,431.754h1.04l1.063,5.613
		h-0.976l-0.184-1.111h-0.887l-0.176,1.111h-0.943L27.116,431.754z M27.916,435.376l-0.296-1.847l-0.304,1.847H27.916z
		 M29.396,437.175v-1.015c0.344,0.199,0.616,0.312,0.88,0.312c0.28,0,0.52-0.136,0.52-0.479v-0.017c0-0.256-0.08-0.447-0.543-0.975
		c-0.664-0.752-0.936-1.112-0.936-1.791v-0.017c0-0.896,0.583-1.463,1.359-1.463c0.392,0,0.624,0.056,0.864,0.176v1.016
		c-0.304-0.176-0.488-0.256-0.744-0.256c-0.272,0-0.504,0.176-0.504,0.479v0.016c0,0.265,0.08,0.36,0.544,0.896
		c0.768,0.888,0.936,1.231,0.936,1.871v0.017c0,0.879-0.616,1.463-1.383,1.463C30.004,437.407,29.677,437.311,29.396,437.175z
		 M32.117,431.77h0.976v2.343l0.792-2.343h1.104l-0.944,2.366l0.959,3.23h-1.087l-0.607-2.119l-0.216,0.616v1.503h-0.976V431.77z
		 M35.341,431.77h2.143v0.928h-1.167v1.391h1.032v0.928h-1.032v1.423h1.191v0.928h-2.167V431.77z M38.5,432.698h-0.688v-0.928h2.351
		v0.928h-0.688v4.669H38.5V432.698z M40.572,431.77h0.848c0.943,0,1.823,0.384,1.823,1.423v0.04c0,0.72-0.408,1.071-0.808,1.264
		c0.472,0.208,0.879,0.535,0.879,1.247v0.072c0,0.991-0.768,1.551-1.855,1.551h-0.888V431.77z M41.564,434.121
		c0.432,0,0.72-0.248,0.72-0.735v-0.017c0-0.487-0.288-0.695-0.72-0.695h-0.016v1.447H41.564z M41.572,436.464
		c0.448,0,0.768-0.264,0.768-0.728v-0.04c0-0.464-0.32-0.728-0.768-0.728h-0.024v1.495H41.572z M44.468,431.754h1.039l1.063,5.613
		h-0.975l-0.184-1.111h-0.888l-0.176,1.111h-0.943L44.468,431.754z M45.268,435.376l-0.296-1.847l-0.304,1.847H45.268z
		 M46.869,431.77h0.975v4.669h1.032v0.928h-2.007V431.77z M49.269,431.77h0.975v4.669h1.032v0.928h-2.007V431.77z M53.06,431.227
		h0.792L52.1,438.15h-0.792L53.06,431.227z M53.853,431.77h0.991l0.528,3.646l0.528-3.646h0.959l-1,5.612h-1.007L53.853,431.77z
		 M56.98,434.713v-0.288c0-1.847,0.6-2.734,1.487-2.734c0.888,0,1.487,0.888,1.487,2.734v0.288c0,1.847-0.6,2.734-1.487,2.734
		C57.58,437.447,56.98,436.56,56.98,434.713z M58.963,434.713v-0.288c0-1.439-0.2-1.839-0.496-1.839
		c-0.295,0-0.496,0.399-0.496,1.839v0.288c0,1.438,0.2,1.839,0.496,1.839C58.763,436.552,58.963,436.151,58.963,434.713z
		 M60.436,431.77h0.976v4.669h1.032v0.928h-2.007V431.77z M62.836,431.77h0.976v4.669h1.031v0.928h-2.007V431.77z M65.236,431.77
		h2.143v0.928h-1.167v1.391h1.032v0.928h-1.032v1.423h1.191v0.928h-2.167V431.77z M68.627,435.16l-1.04-3.39h1.008l0.527,2.095
		l0.536-2.095h0.983l-1.04,3.39v2.207h-0.976V435.16z M70.932,431.77h0.848c0.943,0,1.823,0.384,1.823,1.423v0.04
		c0,0.72-0.408,1.071-0.808,1.264c0.472,0.208,0.879,0.535,0.879,1.247v0.072c0,0.991-0.768,1.551-1.855,1.551h-0.888V431.77z
		 M71.923,434.121c0.432,0,0.72-0.248,0.72-0.735v-0.017c0-0.487-0.288-0.695-0.72-0.695h-0.016v1.447H71.923z M71.931,436.464
		c0.448,0,0.768-0.264,0.768-0.728v-0.04c0-0.464-0.32-0.728-0.768-0.728h-0.024v1.495H71.931z M74.828,431.754h1.039l1.063,5.613
		h-0.975l-0.184-1.111h-0.888l-0.176,1.111h-0.943L74.828,431.754z M75.627,435.376l-0.296-1.847l-0.304,1.847H75.627z
		 M77.228,431.77h0.975v4.669h1.032v0.928h-2.007V431.77z M79.628,431.77h0.976v4.669h1.031v0.928h-2.007V431.77z M83.204,434.665
		v-0.192c0-1.967,0.728-2.742,1.639-2.742c0.271,0,0.432,0.032,0.64,0.128v1.007c-0.2-0.119-0.359-0.184-0.544-0.184
		c-0.432,0-0.743,0.384-0.743,1.783v0.208c0,1.479,0.312,1.783,0.76,1.783c0.151,0,0.344-0.057,0.543-0.176v0.959
		c-0.224,0.128-0.439,0.168-0.719,0.168C83.883,437.407,83.204,436.615,83.204,434.665z M85.691,434.713v-0.288
		c0-1.847,0.6-2.734,1.487-2.734s1.487,0.888,1.487,2.734v0.288c0,1.847-0.6,2.734-1.487,2.734S85.691,436.56,85.691,434.713z
		 M87.675,434.713v-0.288c0-1.439-0.2-1.839-0.496-1.839s-0.495,0.399-0.495,1.839v0.288c0,1.438,0.199,1.839,0.495,1.839
		S87.675,436.151,87.675,434.713z M89.132,435.736v-3.966H90.1v4.062c0,0.504,0.176,0.704,0.423,0.704
		c0.248,0,0.424-0.2,0.424-0.704v-4.062h0.968v3.966c0,1.175-0.592,1.703-1.392,1.703C89.724,437.439,89.132,436.911,89.132,435.736
		z M92.476,431.77h1.008c0.999,0,1.727,0.527,1.727,1.783v0.071c0,0.728-0.288,1.191-0.655,1.472l0.751,2.271h-1.039l-0.632-1.951
		h-0.184v1.951h-0.976V431.77z M93.499,434.537c0.424,0,0.735-0.248,0.735-0.904v-0.063c0-0.704-0.336-0.888-0.76-0.888h-0.023
		v1.855H93.499z M96.1,432.698h-0.688v-0.928h2.351v0.928h-0.688v4.669H96.1V432.698z"/>
	<path class="st5" d="M50.007,690.251v-0.288c0-1.847,0.6-2.734,1.487-2.734c0.888,0,1.487,0.888,1.487,2.734v0.288
		c0,1.847-0.6,2.734-1.487,2.734C50.606,692.985,50.007,692.098,50.007,690.251z M51.99,690.251v-0.288
		c0-1.439-0.2-1.839-0.496-1.839c-0.295,0-0.496,0.399-0.496,1.839v0.288c0,1.439,0.2,1.839,0.496,1.839
		C51.79,692.09,51.99,691.69,51.99,690.251z M53.462,687.309h0.872c1.063,0,1.807,0.575,1.807,1.887v0.016
		c0,1.264-0.704,1.863-1.695,1.936h-0.008v1.759h-0.976V687.309z M54.446,690.243c0.408-0.024,0.719-0.32,0.719-1v-0.016
		c0-0.712-0.272-1.016-0.695-1.016h-0.032v2.031H54.446z M56.542,687.309h2.143v0.927h-1.167v1.392h1.031v0.928h-1.031v1.423h1.191
		v0.928h-2.167V687.309z M59.183,687.309h0.911l0.983,2.83v-2.83h0.952v5.597h-0.863l-1.032-2.967v2.967h-0.951V687.309z
		 M64.398,688.235H63.71v-0.927h2.351v0.927h-0.688v4.67h-0.976V688.235z M66.214,690.251v-0.288c0-1.847,0.6-2.734,1.487-2.734
		c0.887,0,1.487,0.888,1.487,2.734v0.288c0,1.847-0.6,2.734-1.487,2.734C66.814,692.985,66.214,692.098,66.214,690.251z
		 M68.197,690.251v-0.288c0-1.439-0.2-1.839-0.496-1.839s-0.496,0.399-0.496,1.839v0.288c0,1.439,0.2,1.839,0.496,1.839
		S68.197,691.69,68.197,690.251z M45.334,695.309h0.912c1.248,0,1.959,0.903,1.959,2.702v0.192c0,1.799-0.711,2.702-1.959,2.702
		h-0.912V695.309z M46.35,700.01c0.464,0,0.864-0.408,0.864-1.807v-0.192c0-1.399-0.4-1.807-0.864-1.807h-0.04v3.806H46.35z
		 M48.687,695.309h2.143v0.927h-1.167v1.392h1.031v0.928h-1.031v1.423h1.191v0.928h-2.167V695.309z M51.15,698.203v-0.192
		c0-1.967,0.728-2.742,1.639-2.742c0.272,0,0.432,0.032,0.64,0.128v1.007c-0.2-0.119-0.36-0.184-0.543-0.184
		c-0.432,0-0.744,0.384-0.744,1.783v0.208c0,1.479,0.312,1.783,0.759,1.783c0.152,0,0.344-0.057,0.544-0.177v0.96
		c-0.224,0.128-0.44,0.168-0.72,0.168C51.83,700.945,51.15,700.153,51.15,698.203z M53.935,695.309h0.976v2.343l0.792-2.343h1.103
		l-0.943,2.366l0.959,3.23h-1.087l-0.607-2.119l-0.216,0.616v1.503h-0.976V695.309z M58.431,695.309h0.847
		c0.944,0,1.823,0.384,1.823,1.423v0.04c0,0.72-0.408,1.071-0.808,1.264c0.472,0.208,0.879,0.535,0.879,1.247v0.072
		c0,0.991-0.768,1.551-1.855,1.551h-0.887V695.309z M59.422,697.659c0.432,0,0.72-0.248,0.72-0.735v-0.017
		c0-0.487-0.288-0.695-0.72-0.695h-0.016v1.447H59.422z M59.43,700.002c0.448,0,0.768-0.264,0.768-0.728v-0.04
		c0-0.464-0.319-0.728-0.768-0.728h-0.024v1.495H59.43z M61.583,695.309h2.143v0.927h-1.167v1.392h1.031v0.928h-1.031v1.423h1.191
		v0.928h-2.167V695.309z M64.222,695.309h0.976v4.669h1.032v0.928h-2.007V695.309z M66.326,698.251v-0.288
		c0-1.847,0.6-2.734,1.487-2.734s1.487,0.888,1.487,2.734v0.288c0,1.847-0.6,2.734-1.487,2.734S66.326,700.098,66.326,698.251z
		 M68.309,698.251v-0.288c0-1.439-0.2-1.839-0.496-1.839s-0.496,0.399-0.496,1.839v0.288c0,1.439,0.2,1.839,0.496,1.839
		S68.309,699.69,68.309,698.251z M69.438,695.309h1l0.408,3.43l0.488-3.43h0.903l0.48,3.43l0.416-3.43h0.976l-0.848,5.612h-1.023
		l-0.463-3.317l-0.464,3.317h-1.023L69.438,695.309z"/>
	<path class="st5" d="M46.195,39.893l-0.856,0.089c0.139-0.308,0.209-0.547,0.186-0.769c-0.025-0.236-0.161-0.427-0.45-0.396
		l-0.014,0.001c-0.216,0.022-0.371,0.107-0.775,0.544c-0.576,0.625-0.855,0.886-1.428,0.946l-0.014,0.001
		c-0.755,0.079-1.286-0.364-1.354-1.018c-0.034-0.33-0.007-0.531,0.073-0.744l0.856-0.089c-0.122,0.272-0.173,0.434-0.15,0.65
		c0.023,0.229,0.192,0.41,0.449,0.383l0.013-0.001c0.223-0.023,0.297-0.099,0.708-0.537c0.681-0.726,0.957-0.897,1.496-0.954
		l0.013-0.001c0.742-0.078,1.289,0.391,1.356,1.038C46.337,39.36,46.285,39.645,46.195,39.893z M41.402,37.526l0.037-0.738
		c0.045-0.901,0.564-1.507,1.675-1.452l0.014,0.001c1.07,0.053,1.549,0.674,1.568,1.518l0,0.006l1.491,0.074l-0.041,0.826
		L41.402,37.526z M43.93,36.816c-0.003-0.347-0.241-0.623-0.817-0.652l-0.013,0c-0.603-0.03-0.872,0.188-0.89,0.547l-0.001,0.027
		l1.721,0.085L43.93,36.816z M41.65,34.394l0.164-0.812l3.885,0.784l0.173-0.858l0.771,0.156l-0.337,1.67L41.65,34.394z
		 M42.417,31.27l0.303-0.829l4.788,0.791l-0.285,0.778l-0.94-0.178l-0.259,0.708l0.835,0.465l-0.275,0.752L42.417,31.27z
		 M45.54,31.69l-1.56-0.303l1.385,0.782L45.54,31.69z M47.377,31.205l-0.751-0.421c0.29-0.171,0.486-0.327,0.595-0.522
		c0.116-0.207,0.115-0.441-0.14-0.583l-0.012-0.006c-0.189-0.106-0.364-0.126-0.947-0.001c-0.832,0.18-1.21,0.232-1.713-0.049
		l-0.012-0.006c-0.663-0.371-0.842-1.038-0.521-1.612c0.163-0.291,0.3-0.439,0.488-0.567l0.752,0.421
		c-0.256,0.152-0.391,0.255-0.497,0.444c-0.113,0.201-0.079,0.446,0.146,0.572l0.012,0.006c0.195,0.109,0.3,0.09,0.888-0.032
		c0.975-0.201,1.299-0.183,1.773,0.083l0.012,0.006c0.651,0.364,0.829,1.062,0.511,1.63C47.8,30.851,47.594,31.054,47.377,31.205z
		 M44.826,26.488l0.516-0.648l1.54,1.226l0.448-0.563l-1.54-1.226l0.516-0.648l3.717,2.958l-0.516,0.648l-1.561-1.243l-0.448,0.563
		l1.562,1.243l-0.516,0.648L44.826,26.488z M47.063,23.861l1.349-1.219l0.528,0.584l-0.735,0.664l0.791,0.876l0.65-0.587
		l0.527,0.584l-0.65,0.587l0.81,0.896l0.75-0.677l0.527,0.584l-1.365,1.232L47.063,23.861z M51.63,25.931l-0.48-0.715
		c0.336-0.022,0.581-0.072,0.767-0.197c0.197-0.132,0.301-0.342,0.139-0.583l-0.007-0.011c-0.121-0.18-0.269-0.278-0.845-0.43
		c-0.823-0.215-1.185-0.34-1.506-0.819l-0.008-0.011c-0.424-0.63-0.281-1.307,0.265-1.673c0.276-0.186,0.466-0.256,0.691-0.285
		l0.481,0.715c-0.297,0.02-0.465,0.051-0.645,0.172c-0.191,0.128-0.271,0.362-0.127,0.576l0.007,0.011
		c0.125,0.186,0.227,0.215,0.807,0.373c0.961,0.262,1.242,0.424,1.544,0.875l0.007,0.011c0.417,0.619,0.259,1.322-0.281,1.685
		C52.168,25.807,51.892,25.894,51.63,25.931z M53.461,22.337l-0.06-0.151c-0.616-1.554-0.283-2.395,0.437-2.68
		c0.214-0.085,0.351-0.11,0.545-0.099l0.315,0.796c-0.195-0.032-0.342-0.033-0.487,0.024c-0.341,0.135-0.467,0.536-0.03,1.642
		l0.065,0.165c0.463,1.168,0.804,1.311,1.158,1.171c0.12-0.048,0.254-0.152,0.375-0.309l0.3,0.758
		c-0.137,0.171-0.295,0.271-0.516,0.358C54.856,24.291,54.072,23.879,53.461,22.337z M55.333,19.027l0.81-0.173l0.412,1.925
		l0.704-0.15l-0.412-1.925l0.81-0.173l0.993,4.646l-0.81,0.173l-0.417-1.952l-0.704,0.15l0.417,1.952l-0.81,0.173L55.333,19.027z
		 M58.636,18.441l0.827-0.061l0.353,4.742l-0.827,0.062L58.636,18.441z M60.35,18.342l0.828,0.028l-0.133,3.965l0.875,0.029
		l-0.026,0.788l-1.704-0.058L60.35,18.342z M62.927,18.479l0.76,0.146c1.04,0.2,1.489,1.068,1.2,2.568l-0.031,0.16
		c-0.288,1.5-1.026,2.14-2.067,1.94l-0.76-0.146L62.927,18.479z M63.02,22.563c0.387,0.075,0.786-0.202,1.01-1.368l0.031-0.16
		c0.224-1.167-0.043-1.571-0.431-1.646l-0.033-0.006l-0.61,3.174L63.02,22.563z M66.33,19.241l0.798,0.31
		c0.792,0.307,1.206,0.949,0.82,1.943l-0.022,0.057c-0.224,0.577-0.594,0.855-0.971,0.964l-0.103,2.029l-0.823-0.319l0.099-1.739
		l-0.146-0.056l-0.6,1.545l-0.772-0.3L66.33,19.241z M66.291,21.746c0.335,0.13,0.659,0.03,0.86-0.489l0.02-0.051
		c0.216-0.557,0.007-0.806-0.329-0.937l-0.019-0.007l-0.57,1.469L66.291,21.746z M69.358,20.528l1.57,0.92l-0.398,0.68l-0.855-0.501
		l-0.597,1.02l0.756,0.443l-0.398,0.68l-0.756-0.443l-0.611,1.043l0.873,0.512l-0.398,0.68l-1.588-0.931L69.358,20.528z
		 M71.759,22.017l0.593,0.496l-0.899,2.376l1.54-1.842l0.619,0.518l-3.044,3.642l-0.562-0.47l0.942-2.491l-1.613,1.93l-0.619-0.517
		L71.759,22.017z M72.967,25.367c0.417,0.3,0.752,0.134,0.951-0.091l-0.282-0.312l0.7-0.632l0.628,0.695l-0.574,0.519
		c-0.534,0.482-1.108,0.534-1.624,0.095L72.967,25.367z M71.772,28.325l0.706-0.496c0.029,0.336,0.084,0.58,0.213,0.763
		c0.137,0.194,0.348,0.294,0.587,0.126l0.011-0.008c0.178-0.125,0.272-0.274,0.412-0.854c0.198-0.828,0.315-1.193,0.787-1.525
		l0.011-0.008c0.622-0.438,1.301-0.31,1.68,0.229c0.191,0.272,0.266,0.46,0.3,0.686l-0.705,0.496
		c-0.026-0.297-0.061-0.464-0.186-0.642c-0.133-0.188-0.369-0.264-0.58-0.115l-0.011,0.008c-0.183,0.129-0.211,0.231-0.356,0.815
		c-0.241,0.967-0.398,1.251-0.843,1.564l-0.011,0.008c-0.611,0.43-1.317,0.287-1.692-0.246
		C71.908,28.86,71.815,28.586,71.772,28.325z M77.722,29.23l0.28,0.685c0.341,0.836,0.126,1.605-0.904,2.026l-0.013,0.005
		c-0.993,0.405-1.69,0.044-2.065-0.712l-0.002-0.006l-1.383,0.564l-0.312-0.767L77.722,29.23z M75.73,30.944
		c0.15,0.313,0.482,0.463,1.017,0.245l0.013-0.005c0.56-0.228,0.711-0.54,0.575-0.873l-0.01-0.025l-1.597,0.651L75.73,30.944z
		 M76.408,32.717l0.239-0.051c1.533-0.328,2.376,0.012,2.534,0.749c0.157,0.737-0.473,1.392-2.006,1.72l-0.239,0.051
		c-1.533,0.328-2.376-0.012-2.534-0.749C74.244,33.7,74.875,33.045,76.408,32.717z M76.76,34.363l0.239-0.051
		c1.195-0.255,1.491-0.492,1.438-0.738c-0.052-0.246-0.419-0.341-1.614-0.085l-0.239,0.051c-1.195,0.255-1.491,0.492-1.438,0.738
		C75.197,34.523,75.565,34.619,76.76,34.363z M76.995,35.699l0.244-0.006c1.569-0.042,2.336,0.446,2.356,1.2
		c0.021,0.754-0.72,1.283-2.288,1.326l-0.245,0.006c-1.568,0.042-2.336-0.446-2.356-1.2C74.687,36.27,75.427,35.741,76.995,35.699z
		 M77.041,37.383l0.245-0.007c1.222-0.033,1.557-0.211,1.55-0.463c-0.007-0.251-0.351-0.412-1.573-0.379l-0.245,0.007
		c-1.222,0.033-1.557,0.212-1.55,0.463C75.474,37.255,75.818,37.416,77.041,37.383z M79.47,39.121l-0.106,0.821l-3.93-0.508
		l-0.112,0.868l-0.78-0.101l0.218-1.689L79.47,39.121z"/>
	<path class="st5" d="M11.841,623.432h0.872c1.063,0,1.807,0.575,1.807,1.887v0.016c0,1.264-0.703,1.863-1.695,1.936h-0.008v1.759
		h-0.976V623.432z M12.825,626.366c0.408-0.024,0.72-0.32,0.72-1v-0.016c0-0.712-0.272-1.016-0.696-1.016h-0.032v2.031H12.825z
		 M14.937,623.432h0.976v5.597h-0.976V623.432z M16.505,623.432h0.911l0.984,2.83v-2.83h0.951v5.597h-0.863l-1.032-2.967v2.967
		h-0.951V623.432z M19.929,623.432h0.912l0.983,2.83v-2.83h0.951v5.597h-0.863l-1.031-2.967v2.967h-0.952V623.432z M24.137,623.415
		h1.04l1.063,5.613h-0.975l-0.184-1.111h-0.888l-0.176,1.111h-0.943L24.137,623.415z M24.936,627.037l-0.295-1.847l-0.304,1.847
		H24.936z M26.361,626.326v-0.192c0-1.967,0.728-2.742,1.639-2.742c0.272,0,0.432,0.032,0.64,0.128v1.007
		c-0.2-0.119-0.359-0.184-0.543-0.184c-0.432,0-0.744,0.384-0.744,1.783v0.208c0,1.479,0.312,1.783,0.76,1.783
		c0.152,0,0.344-0.057,0.543-0.177v0.96c-0.224,0.128-0.439,0.168-0.719,0.168C27.041,629.068,26.361,628.276,26.361,626.326z
		 M29.145,623.432h0.976v4.669h1.031v0.928h-2.007V623.432z M31.545,623.432h2.143v0.927h-1.167v1.392h1.031v0.928h-1.031v1.423
		h1.191v0.928h-2.167V623.432z M35.457,623.432h0.975v4.669h1.032v0.928h-2.007V623.432z M37.561,626.374v-0.288
		c0-1.847,0.6-2.734,1.487-2.734c0.888,0,1.487,0.888,1.487,2.734v0.288c0,1.847-0.6,2.734-1.487,2.734
		C38.161,629.108,37.561,628.221,37.561,626.374z M39.544,626.374v-0.288c0-1.439-0.2-1.839-0.496-1.839s-0.496,0.399-0.496,1.839
		v0.288c0,1.439,0.2,1.839,0.496,1.839S39.544,627.813,39.544,626.374z M41.001,627.397v-3.966h0.967v4.062
		c0,0.504,0.176,0.703,0.424,0.703c0.248,0,0.424-0.199,0.424-0.703v-4.062h0.967v3.966c0,1.175-0.592,1.703-1.391,1.703
		C41.592,629.101,41.001,628.572,41.001,627.397z M44.345,623.432h0.912l0.983,2.83v-2.83h0.951v5.597h-0.863l-1.032-2.967v2.967
		h-0.951V623.432z M47.673,626.326v-0.192c0-1.807,0.768-2.742,1.871-2.742c0.296,0,0.544,0.063,0.744,0.16v1.015
		c-0.24-0.144-0.456-0.239-0.711-0.239c-0.56,0-0.912,0.56-0.912,1.767v0.272c0,1.463,0.432,1.799,0.832,1.799
		c0.032,0,0.04,0,0.088-0.008v-1.432h-0.479v-0.871h1.367v2.974c-0.352,0.152-0.64,0.24-1.016,0.24
		C48.48,629.068,47.673,628.276,47.673,626.326z M51.009,623.432h2.143v0.927h-1.167v1.392h1.032v0.928h-1.032v1.423h1.191v0.928
		h-2.167V623.432z M15.792,631.415h1.04l1.063,5.613H16.92l-0.184-1.111h-0.888l-0.176,1.111h-0.943L15.792,631.415z
		 M16.592,635.037l-0.296-1.847l-0.304,1.847H16.592z M18.193,631.432h0.912l0.983,2.83v-2.83h0.952v5.597h-0.864l-1.031-2.967
		v2.967h-0.952V631.432z M21.617,631.432h0.911c1.248,0,1.959,0.903,1.959,2.702v0.192c0,1.799-0.711,2.702-1.959,2.702h-0.911
		V631.432z M22.632,636.133c0.464,0,0.864-0.408,0.864-1.807v-0.192c0-1.399-0.4-1.807-0.864-1.807h-0.04v3.806H22.632z
		 M26.121,636.837v-1.016c0.344,0.199,0.616,0.312,0.879,0.312c0.28,0,0.52-0.136,0.52-0.479v-0.017c0-0.256-0.08-0.447-0.543-0.976
		c-0.664-0.751-0.936-1.111-0.936-1.791v-0.016c0-0.896,0.583-1.463,1.359-1.463c0.392,0,0.624,0.056,0.863,0.176v1.016
		c-0.304-0.176-0.488-0.256-0.744-0.256c-0.271,0-0.503,0.176-0.503,0.479v0.016c0,0.265,0.08,0.36,0.543,0.896
		c0.768,0.888,0.936,1.231,0.936,1.871v0.017c0,0.879-0.616,1.463-1.383,1.463C26.729,637.068,26.401,636.973,26.121,636.837z
		 M28.825,635.397v-3.966h0.968v4.062c0,0.504,0.176,0.703,0.424,0.703c0.248,0,0.423-0.199,0.423-0.703v-4.062h0.968v3.966
		c0,1.175-0.592,1.703-1.391,1.703C29.417,637.101,28.825,636.572,28.825,635.397z M32.049,636.837v-1.016
		c0.344,0.199,0.616,0.312,0.879,0.312c0.28,0,0.52-0.136,0.52-0.479v-0.017c0-0.256-0.08-0.447-0.544-0.976
		c-0.664-0.751-0.936-1.111-0.936-1.791v-0.016c0-0.896,0.584-1.463,1.359-1.463c0.392,0,0.624,0.056,0.863,0.176v1.016
		c-0.304-0.176-0.487-0.256-0.743-0.256c-0.272,0-0.504,0.176-0.504,0.479v0.016c0,0.265,0.08,0.36,0.544,0.896
		c0.768,0.888,0.935,1.231,0.935,1.871v0.017c0,0.879-0.616,1.463-1.383,1.463C32.656,637.068,32.329,636.973,32.049,636.837z
		 M34.769,631.432h0.976v2.318h0.848v-2.318h0.976v5.597h-0.976v-2.351h-0.848v2.351h-0.976V631.432z M38.161,631.432h0.976v5.597
		h-0.976V631.432z M41,631.432h0.848c0.943,0,1.823,0.384,1.823,1.423v0.04c0,0.72-0.408,1.071-0.808,1.264
		c0.472,0.208,0.879,0.535,0.879,1.247v0.072c0,0.991-0.768,1.551-1.855,1.551H41V631.432z M41.992,633.782
		c0.432,0,0.72-0.248,0.72-0.735v-0.017c0-0.487-0.288-0.695-0.72-0.695h-0.016v1.447H41.992z M42,636.125
		c0.448,0,0.768-0.264,0.768-0.728v-0.04c0-0.464-0.32-0.728-0.768-0.728h-0.024v1.495H42z M44.896,631.415h1.039l1.063,5.613
		h-0.976l-0.184-1.111h-0.888l-0.176,1.111h-0.943L44.896,631.415z M45.696,635.037L45.4,633.19l-0.304,1.847H45.696z
		 M47.297,631.432h1.007c1,0,1.727,0.527,1.727,1.783v0.071c0,0.728-0.288,1.191-0.656,1.472l0.751,2.271h-1.039l-0.632-1.951
		h-0.184v1.951h-0.975V631.432z M48.32,634.198c0.424,0,0.735-0.248,0.735-0.904v-0.063c0-0.704-0.336-0.888-0.76-0.888h-0.024
		v1.855H48.32z"/>
	<path class="st5" d="M58.868,25.992h0.367v0.872h0.319v-0.872h0.367v2.104h-0.367v-0.884h-0.319v0.884h-0.367V25.992z
		 M60.098,27.098V26.99c0-0.695,0.226-1.028,0.559-1.028s0.559,0.333,0.559,1.028v0.108c0,0.694-0.226,1.028-0.559,1.028
		S60.098,27.792,60.098,27.098z M60.844,27.098V26.99c0-0.542-0.075-0.691-0.187-0.691s-0.187,0.15-0.187,0.691v0.108
		c0,0.541,0.075,0.691,0.187,0.691S60.844,27.639,60.844,27.098z M61.53,26.341h-0.259v-0.349h0.884v0.349h-0.258v1.755H61.53
		V26.341z M59.082,29.341h-0.258v-0.349h0.884v0.349h-0.259v1.755h-0.367V29.341z M59.852,30.483v-1.491h0.364v1.527
		c0,0.189,0.066,0.265,0.16,0.265c0.093,0,0.159-0.075,0.159-0.265v-1.527h0.364v1.491c0,0.442-0.223,0.64-0.523,0.64
		C60.075,31.123,59.852,30.925,59.852,30.483z M61.106,28.992h0.319c0.354,0,0.686,0.144,0.686,0.535v0.015
		c0,0.271-0.153,0.403-0.304,0.475c0.177,0.078,0.331,0.201,0.331,0.469v0.027c0,0.373-0.289,0.583-0.697,0.583h-0.334V28.992z
		 M61.479,29.876c0.162,0,0.271-0.093,0.271-0.277v-0.006c0-0.184-0.108-0.262-0.271-0.262h-0.006v0.544H61.479z M61.482,30.756
		c0.168,0,0.289-0.099,0.289-0.273v-0.015c0-0.174-0.12-0.273-0.289-0.273h-0.009v0.562H61.482z"/>
</g>
<g id="SKY_DECK_12_TOP">
	<path class="st6" d="M0.541,700.828c0,0,8.116,15.534,59.736,15.534c51.619,0,60.223-15.375,60.223-15.375
		s-0.035-632.496-0.035-650.071c0-0.211,0-0.34,0-0.387l0.076-15.784c0,0-21.792-34.245-60.264-34.245
		C21.805,0.5,0.5,34.334,0.5,34.334L0.541,700.828z"/>
	<g id="gDeck12Locations">
		<rect id="_x31_2Aft" y="501.567" class="st3" width="121.041" height="215.296"/>
		<rect id="_x31_2Middle" y="202.617" class="st3" width="121.041" height="298.95"/>
		<rect id="_x31_2Forward" class="st3" width="121.041" height="202.617"/>
	</g>
</g>
</svg>
