<?xml version="1.0" encoding="utf-8"?>
<svg id="anchor" viewBox="0 0 24 24" xmlns="http://www.w3.org/2000/svg">
  <path d="M 15.181 20.56 C 16.997 19.653 17.852 18.492 17.855 18.491 C 17.851 18.486 16.524 15.827 16.524 15.827 C 16.524 15.827 15.862 13.978 17.392 13.955 C 18.76 13.935 18.657 13.89 21.289 13.81 C 22.664 13.768 23.112 14.7 22.733 15.45 C 18.57 23.674 12.864 23.67 12.005 23.622 C 11.146 23.67 5.44 23.674 1.277 15.45 C 0.898 14.7 1.346 13.768 2.721 13.81 C 5.353 13.89 5.25 13.935 6.618 13.955 C 8.148 13.978 7.486 15.827 7.486 15.827 C 7.486 15.827 6.159 18.486 6.155 18.491 C 6.158 18.492 7.013 19.653 8.829 20.56 C 9.65 20.97 10.311 21.173 10.834 21.271 L 10.834 11.977 L 7.567 11.977 C 6.933 11.977 6.42 11.464 6.419 10.83 C 6.419 10.196 6.933 9.682 7.567 9.682 L 10.834 9.682 L 10.834 8.476 C 9.126 7.974 7.879 6.395 7.879 4.524 C 7.879 2.249 9.723 0.405 11.998 0.405 C 14.273 0.405 16.117 2.249 16.117 4.524 C 16.117 6.394 14.871 7.973 13.163 8.476 L 13.163 9.682 L 16.471 9.682 C 17.105 9.682 17.619 10.196 17.619 10.83 C 17.618 11.464 17.105 11.977 16.471 11.977 L 13.163 11.977 L 13.163 21.274 C 13.688 21.176 14.353 20.974 15.181 20.56 Z M 12 2.65 C 10.967 2.65 10.129 3.488 10.129 4.521 C 10.129 5.554 10.967 6.392 12 6.392 C 13.033 6.392 13.871 5.554 13.871 4.521 C 13.871 3.488 13.033 2.65 12 2.65 Z"/>
</svg>