<?xml version="1.0" encoding="utf-8"?>
<svg id="archive" viewBox="0 0 24 24" xmlns="http://www.w3.org/2000/svg">
  <path d="M 12 18.027 L 7.844 13.87 L 10.477 13.87 L 10.477 9.991 L 13.525 9.991 L 13.525 13.87 L 16.156 13.87 Z M 23.5 5.695 L 23.5 22.322 C 23.5 23.014 22.947 23.431 22.392 23.431 L 1.608 23.431 C 0.915 23.431 0.5 22.876 0.5 22.322 L 0.5 5.695 C 0.5 5.557 0.639 5.418 0.639 5.28 L 2.717 1.124 C 2.995 0.846 3.271 0.569 3.688 0.569 L 20.314 0.569 C 20.729 0.569 21.145 0.707 21.284 1.124 L 23.362 5.28 C 23.449 5.495 23.465 5.533 23.5 5.695 Z M 3.271 4.587 L 20.867 4.587 L 19.759 2.509 L 4.38 2.509 Z M 21.284 21.353 L 21.284 6.665 L 2.578 6.665 L 2.578 21.353 Z"/>
</svg>