<?xml version="1.0" encoding="utf-8"?>
<svg id="arrow-left" viewBox="0 0 24 24" xmlns="http://www.w3.org/2000/svg">
  <path d="M 22.455 10.681 L 22.455 10.681 L 5.553 10.681 L 11.077 5.108 C 11.603 4.577 11.603 3.729 11.077 3.2 C 10.824 2.953 10.486 2.813 10.133 2.809 L 10.133 2.809 C 9.778 2.812 9.438 2.951 9.187 3.2 L 0.5 11.986 L 9.221 20.802 C 9.47 21.05 9.812 21.191 10.164 21.191 L 10.164 21.191 C 10.521 21.188 10.857 21.049 11.11 20.802 C 11.635 20.272 11.635 19.42 11.11 18.893 L 5.553 13.32 L 22.144 13.32 C 23.173 13.335 23.829 12.231 23.329 11.333 C 23.141 11 22.824 10.763 22.455 10.681 Z"/>
</svg>