<?xml version="1.0" encoding="utf-8"?>
<svg id="arrow-right" viewBox="0 0 24 24" xmlns="http://www.w3.org/2000/svg">
  <path d="M 22.455 13.319 L 22.455 13.319 L 5.553 13.319 L 11.077 18.892 C 11.603 19.423 11.603 20.271 11.077 20.8 C 10.824 21.047 10.486 21.187 10.133 21.191 L 10.133 21.191 C 9.778 21.188 9.438 21.049 9.187 20.8 L 0.5 12.014 L 9.221 3.198 C 9.47 2.95 9.812 2.809 10.164 2.809 L 10.164 2.809 C 10.521 2.812 10.857 2.951 11.11 3.198 C 11.635 3.728 11.635 4.58 11.11 5.107 L 5.553 10.68 L 22.144 10.68 C 23.173 10.665 23.829 11.769 23.329 12.667 C 23.141 13 22.824 13.237 22.455 13.319 Z" transform="matrix(-1, 0, 0, -1, 24.000141, 23.999999)"/>
</svg>