<?xml version="1.0" encoding="utf-8"?>
<svg id="arrow-right-medium" viewBox="0 0 48 24" xmlns="http://www.w3.org/2000/svg">
  <path d="M 0.818 11.195 C 0.394 11.659 0.394 12.371 0.818 12.835 L 9.769 22.919 C 10.182 23.379 10.904 23.379 11.319 22.919 C 11.721 22.434 11.721 21.734 11.319 21.247 L 4.157 13.193 L 46.491 13.193 C 47.402 13.045 47.81 11.975 47.232 11.263 C 47.046 11.032 46.785 10.884 46.491 10.837 L 4.157 10.837 L 11.228 2.749 C 11.642 2.27 11.642 1.56 11.228 1.081 C 10.813 0.62 10.091 0.62 9.677 1.081 Z" transform="matrix(-1, 0, 0, -1, 47.999817, 23.999246)"/>
</svg>