<?xml version="1.0" encoding="utf-8"?>
<svg id="award" viewBox="0 0 24 24" xmlns="http://www.w3.org/2000/svg">
  <path d="M 20.229 6.481 C 20.015 5.518 19.226 4.793 18.252 4.656 L 17.539 4.543 C 17.203 4.453 16.977 4.138 17.001 3.791 L 17.001 3.079 C 17.147 1.255 15.263 -0.043 13.611 0.745 C 13.391 0.848 13.189 0.986 13.012 1.152 L 12.487 1.628 C 12.21 1.879 11.787 1.879 11.51 1.628 L 10.987 1.141 C 9.646 -0.107 7.46 0.561 7.048 2.342 C 6.994 2.579 6.975 2.824 6.995 3.068 L 6.995 3.781 C 7.019 4.154 6.753 4.484 6.381 4.543 L 5.746 4.656 C 3.934 4.915 3.085 7.038 4.216 8.476 C 4.366 8.666 4.543 8.831 4.744 8.969 L 5.333 9.371 C 5.636 9.584 5.729 9.996 5.545 10.32 L 5.181 10.945 C 4.262 12.516 5.388 14.493 7.207 14.503 C 7.267 14.503 7.323 14.502 7.383 14.499 L 7.383 22.14 C 7.359 23.106 8.346 23.774 9.234 23.39 L 12 22.202 L 14.7 23.365 C 15.589 23.748 16.577 23.082 16.551 22.115 L 16.551 14.485 C 18.361 14.668 19.691 12.822 18.946 11.164 C 18.912 11.094 18.878 11.026 18.839 10.959 L 18.477 10.333 C 18.293 10.009 18.384 9.597 18.69 9.382 L 19.277 8.983 C 20.08 8.426 20.46 7.429 20.229 6.481 Z M 18.559 7.452 C 18.533 7.479 17.664 7.995 17.664 7.995 C 16.654 8.715 16.366 10.091 17.001 11.159 L 17.364 11.785 C 17.638 12.259 17.295 12.852 16.746 12.852 C 16.676 12.852 16.606 12.843 16.538 12.822 L 15.85 12.61 C 14.881 12.321 13.837 12.672 13.236 13.486 C 13.114 13.645 13.013 13.823 12.936 14.011 L 12.674 14.673 C 12.484 15.188 11.808 15.305 11.457 14.884 C 11.405 14.821 11.363 14.749 11.336 14.673 L 11.073 14.011 C 10.996 13.823 10.896 13.645 10.772 13.486 C 10.653 13.321 10.515 13.174 10.36 13.047 C 9.748 12.54 8.922 12.37 8.16 12.597 L 7.472 12.81 C 6.946 12.968 6.444 12.501 6.566 11.968 C 6.584 11.899 6.609 11.832 6.646 11.771 L 7.009 11.146 C 7.615 10.069 7.299 8.707 6.282 8.006 L 5.746 7.595 C 5.318 7.247 5.428 6.57 5.938 6.374 C 5.975 6.361 6.008 6.351 6.046 6.343 L 6.759 6.23 C 7.974 6.04 8.844 4.957 8.771 3.728 L 8.771 3.015 C 8.679 2.475 9.207 2.038 9.723 2.228 C 9.84 2.272 9.942 2.344 10.023 2.44 L 10.548 2.93 C 11.46 3.765 12.861 3.765 13.775 2.93 L 14.301 2.44 C 14.651 2.018 15.326 2.136 15.517 2.652 C 15.56 2.769 15.572 2.892 15.55 3.015 L 15.55 3.728 C 15.478 4.957 16.349 6.04 17.564 6.23 L 18.277 6.343 C 18.814 6.457 18.925 7.045 18.559 7.452 Z M 14.85 21.64 L 12.286 20.539 C 12.078 20.451 11.844 20.451 11.636 20.539 L 9.06 21.64 L 9.06 16.887 C 9.11 16.334 9.461 15.855 9.973 15.635 C 10.391 16.36 11.161 16.807 12 16.812 C 12.809 16.807 13.561 16.387 13.987 15.699 C 14.467 15.943 14.791 16.413 14.85 16.949 L 14.85 21.64 Z M 15.038 9.932 C 15.284 10.177 15.284 10.575 15.038 10.821 C 13.338 12.52 10.583 12.52 8.884 10.821 C 8.542 10.478 8.699 9.896 9.165 9.77 C 9.382 9.712 9.614 9.773 9.773 9.932 C 10.985 11.146 12.95 11.146 14.163 9.932 C 14.403 9.701 14.784 9.701 15.024 9.932 L 15.038 9.932 Z"/>
</svg>