<?xml version="1.0" encoding="utf-8"?>
<svg id="bars" viewBox="0 0 24 24" xmlns="http://www.w3.org/2000/svg">
  <path d="M 1.818 7.21 C 0.91 7.31 0.234 6.389 0.602 5.553 C 0.81 5.077 1.303 4.793 1.818 4.85 L 22.182 4.85 C 23.089 4.75 23.765 5.67 23.398 6.507 C 23.19 6.982 22.697 7.266 22.182 7.21 Z M 22.182 10.828 C 23.084 10.828 23.648 11.804 23.197 12.587 C 22.987 12.949 22.6 13.172 22.182 13.172 L 1.818 13.172 C 0.916 13.172 0.351 12.195 0.802 11.413 C 1.012 11.051 1.399 10.828 1.818 10.828 Z M 22.182 16.79 C 23.089 16.69 23.765 17.611 23.398 18.447 C 23.19 18.923 22.697 19.207 22.182 19.15 L 1.818 19.15 C 0.91 19.25 0.234 18.33 0.602 17.493 C 0.81 17.018 1.303 16.734 1.818 16.79 Z"/>
</svg>