<?xml version="1.0" encoding="utf-8"?>
<svg id="chronometer" viewBox="0 0 24 24" xmlns="http://www.w3.org/2000/svg">
  <path d="M 20.46 12.889 C 20.46 8.225 16.666 4.429 12.002 4.429 C 7.336 4.429 3.541 8.225 3.541 12.889 C 3.541 17.554 7.336 21.348 12.002 21.348 C 16.666 21.348 20.46 17.554 20.46 12.889 Z M 22.611 12.889 C 22.611 18.739 17.852 23.5 12.002 23.5 C 6.15 23.5 1.389 18.739 1.389 12.889 C 1.389 7.966 4.764 3.827 9.317 2.634 C 9.636 1.411 10.74 0.5 12.062 0.5 C 13.396 0.5 14.511 1.428 14.817 2.669 C 19.303 3.908 22.611 8.012 22.611 12.889 Z M 16.589 12.889 C 16.589 13.483 16.108 13.964 15.513 13.964 L 12 13.964 C 11.407 13.964 10.925 13.483 10.925 12.889 L 10.925 7.575 C 10.925 6.982 11.407 6.5 12 6.5 C 12.596 6.5 13.076 6.982 13.076 7.575 L 13.076 11.813 L 15.513 11.813 C 16.108 11.813 16.589 12.293 16.589 12.889 Z" />
</svg>