<?xml version="1.0" encoding="utf-8"?>
<svg id="circle-times" viewBox="0 0 24 24" xmlns="http://www.w3.org/2000/svg">
  <path d="M 12 0.5 C 18.352 0.5 23.5 5.648 23.5 12 C 23.5 18.352 18.352 23.5 12 23.5 C 5.648 23.5 0.5 18.352 0.5 12 C 0.5 5.648 5.648 0.5 12 0.5 Z M 12 1.778 C 6.355 1.778 1.778 6.355 1.778 12 C 1.778 17.645 6.355 22.222 12 22.222 C 17.645 22.222 22.222 17.645 22.222 12 C 22.222 6.355 17.645 1.778 12 1.778 Z M 7.934 7.934 C 8.183 7.685 8.588 7.685 8.837 7.934 L 8.837 7.934 L 12 11.097 L 15.162 7.934 C 15.383 7.712 15.728 7.688 15.978 7.86 L 16.066 7.934 C 16.315 8.183 16.315 8.588 16.066 8.838 L 16.066 8.838 L 12.903 12 L 16.066 15.163 C 16.288 15.384 16.312 15.729 16.14 15.978 L 16.066 16.066 C 15.817 16.315 15.412 16.315 15.162 16.066 L 15.162 16.066 L 12 12.903 L 8.837 16.066 C 8.616 16.288 8.271 16.313 8.022 16.14 L 7.934 16.066 C 7.685 15.817 7.685 15.412 7.934 15.163 L 7.934 15.163 L 11.096 12 L 7.934 8.838 C 7.712 8.617 7.687 8.272 7.86 8.022 Z"/>
</svg>