<?xml version="1.0" encoding="utf-8"?>
<svg id="copy" viewBox="0 0 24 24" xmlns="http://www.w3.org/2000/svg">
  <path d="M 21.601 17.885 C 21.601 17.89 21.594 17.897 21.589 17.897 L 19.795 17.895 L 19.795 6.115 C 19.795 5.061 18.938 4.205 17.885 4.205 L 6.114 4.205 L 6.115 2.399 L 21.601 2.41 L 21.601 17.885 Z M 17.896 21.591 C 17.896 21.593 17.89 21.601 17.885 21.601 L 2.399 21.59 L 2.411 6.104 L 17.896 6.115 L 17.896 21.591 Z M 6.115 0.5 C 5.062 0.5 4.205 1.357 4.205 2.41 L 4.205 4.205 L 2.411 4.205 C 1.357 4.205 0.5 5.061 0.5 6.115 L 0.5 21.59 C 0.5 22.644 1.357 23.5 2.411 23.5 L 17.885 23.5 C 18.938 23.5 19.795 22.644 19.795 21.59 L 19.795 19.796 L 21.589 19.796 C 22.643 19.796 23.5 18.938 23.5 17.885 L 23.5 2.41 C 23.5 1.357 22.643 0.5 21.589 0.5 L 6.115 0.5 Z"/>
</svg>