<?xml version="1.0" encoding="utf-8"?>
<svg id="drops" viewBox="0 0 24 24" xmlns="http://www.w3.org/2000/svg">
  <path d="M 18.01 2.146 C 17.558 2.146 16.51 4.6 16.395 4.885 C 16.158 5.49 16.033 6.03 16.033 6.493 C 16.033 6.952 16.233 7.384 16.595 7.712 C 17.345 8.395 18.674 8.393 19.427 7.712 C 19.786 7.384 19.987 6.952 19.987 6.493 C 19.987 6.03 19.865 5.49 19.624 4.884 C 19.508 4.599 18.446 2.146 18.01 2.146 Z M 18.01 9.488 C 17.151 9.488 16.341 9.184 15.731 8.628 C 15.105 8.06 14.759 7.303 14.759 6.493 C 14.759 5.875 14.911 5.181 15.211 4.43 C 15.343 4.102 15.494 3.782 15.658 3.472 C 15.818 3.168 15.989 2.874 16.16 2.601 C 16.536 2.001 16.974 1.394 17.46 0.799 L 17.464 0.8 C 17.57 0.631 17.758 0.512 17.974 0.503 C 18.194 0.48 18.403 0.593 18.524 0.758 C 19.16 1.532 19.684 2.281 20.112 3.023 C 20.198 3.168 20.281 3.318 20.36 3.469 C 20.525 3.782 20.676 4.102 20.807 4.427 C 20.807 4.43 20.807 4.43 20.807 4.43 C 21.108 5.181 21.259 5.875 21.259 6.493 C 21.259 7.303 20.914 8.06 20.293 8.628 C 19.679 9.184 18.869 9.488 18.01 9.488 Z M 18.01 16.154 C 17.558 16.154 16.51 18.611 16.395 18.898 C 16.158 19.502 16.033 20.042 16.033 20.505 C 16.033 20.963 16.233 21.394 16.595 21.723 C 17.345 22.405 18.674 22.403 19.427 21.723 C 19.786 21.394 19.987 20.963 19.987 20.505 C 19.987 20.042 19.865 19.502 19.624 18.897 C 19.508 18.61 18.446 16.154 18.01 16.154 Z M 18.01 23.5 C 17.151 23.5 16.341 23.193 15.731 22.64 C 15.105 22.073 14.759 21.313 14.759 20.505 C 14.759 19.888 14.911 19.191 15.211 18.441 C 15.343 18.114 15.494 17.793 15.658 17.485 C 15.818 17.179 15.989 16.886 16.16 16.614 C 16.536 16.012 16.974 15.405 17.46 14.809 L 17.464 14.811 C 17.57 14.642 17.758 14.524 17.974 14.512 C 18.194 14.491 18.403 14.603 18.524 14.768 C 19.16 15.542 19.684 16.292 20.112 17.036 C 20.198 17.179 20.281 17.329 20.36 17.48 C 20.525 17.793 20.676 18.114 20.807 18.439 C 20.807 18.439 20.807 18.439 20.807 18.441 C 21.108 19.191 21.259 19.888 21.259 20.505 C 21.259 21.313 20.914 22.073 20.293 22.64 C 19.679 23.193 18.869 23.5 18.01 23.5 Z M 8.279 16.203 C 8.279 15.855 7.995 15.578 7.642 15.578 C 7.208 15.578 6.809 15.433 6.526 15.176 C 6.392 15.054 6.168 14.796 6.168 14.444 C 6.168 14.1 5.884 13.82 5.532 13.82 C 5.179 13.82 4.894 14.1 4.894 14.444 C 4.894 15.267 5.372 15.826 5.658 16.089 C 6.181 16.563 6.885 16.825 7.642 16.825 C 7.995 16.825 8.279 16.545 8.279 16.203 Z M 7.86 6.976 C 7.755 6.836 7.532 6.836 7.425 6.974 C 6.926 7.628 6.466 8.292 6.052 8.95 C 5.793 9.364 5.535 9.807 5.293 10.266 C 5.052 10.722 4.829 11.195 4.636 11.676 C 4.223 12.707 4.014 13.64 4.014 14.443 C 4.014 15.302 4.385 16.11 5.059 16.723 C 6.434 17.971 8.853 17.968 10.226 16.723 C 10.899 16.11 11.271 15.302 11.271 14.443 C 11.271 13.64 11.061 12.707 10.648 11.676 C 10.457 11.195 10.233 10.722 9.993 10.266 C 9.871 10.038 9.747 9.811 9.619 9.595 C 9.119 8.726 8.528 7.849 7.86 6.976 Z M 7.642 18.938 C 6.344 18.938 5.119 18.477 4.195 17.639 C 3.256 16.789 2.741 15.654 2.741 14.444 C 2.741 13.483 2.979 12.398 3.451 11.219 C 3.645 10.738 3.882 10.223 4.162 9.694 C 4.418 9.205 4.692 8.737 4.969 8.299 C 5.576 7.326 6.283 6.348 7.068 5.392 L 7.077 5.394 C 7.179 5.202 7.382 5.07 7.617 5.06 C 7.859 5.057 8.04 5.157 8.159 5.321 C 9.426 6.86 10.247 8.152 10.724 8.976 C 10.861 9.21 10.996 9.45 11.124 9.694 C 11.404 10.223 11.64 10.738 11.834 11.219 C 12.306 12.398 12.545 13.483 12.545 14.444 C 12.545 15.654 12.029 16.789 11.091 17.639 C 10.166 18.477 8.942 18.938 7.642 18.938 Z"/>
</svg>