<?xml version="1.0" encoding="utf-8"?>
<svg id="external-link" viewBox="0 0 24 24" xmlns="http://www.w3.org/2000/svg">
  <path class="cls-1" d="M 23.387 1.571 L 23.387 10.016 C 23.387 10.392 23.186 10.741 22.859 10.929 C 22.157 11.337 21.276 10.829 21.276 10.016 L 21.276 4.104 L 12.718 12.662 C 12.442 12.958 12.023 13.069 11.635 12.951 C 10.858 12.714 10.632 11.724 11.225 11.17 L 19.783 2.612 L 13.871 2.612 C 13.495 2.612 13.146 2.411 12.958 2.084 C 12.551 1.379 13.059 0.5 13.871 0.5 L 22.319 0.5 C 22.911 0.494 23.394 0.976 23.387 1.571 Z M 20.109 14.42 L 20.109 22.444 C 20.109 23.027 19.635 23.5 19.053 23.5 L 1.669 23.5 C 1.086 23.5 0.613 23.027 0.613 22.444 L 0.613 5.032 C 0.613 4.45 1.086 3.976 1.669 3.976 L 8.707 3.976 C 9.082 3.976 9.431 4.178 9.621 4.504 C 10.026 5.209 9.518 6.088 8.707 6.088 L 2.767 6.088 L 2.767 21.431 L 17.997 21.431 L 17.997 14.463 C 17.997 13.881 18.468 13.407 19.053 13.407 C 19.618 13.407 20.085 13.856 20.109 14.42 Z"/>
</svg>