<?xml version="1.0" encoding="utf-8"?>
<svg id="favorite-off" viewBox="0 0 24 24" xmlns="http://www.w3.org/2000/svg">
  <path d="M 7.145 3.207 C 5.87 3.225 4.662 3.782 3.822 4.74 C 2.036 6.741 2.036 9.767 3.822 11.769 L 12 20.329 L 20.177 11.64 C 21.964 9.639 21.964 6.614 20.177 4.612 C 18.377 2.698 15.334 2.698 13.532 4.612 L 12.766 5.635 C 12.534 5.777 12.271 5.864 12 5.89 L 12 5.89 C 11.764 5.886 11.535 5.795 11.361 5.635 L 10.466 4.74 C 9.626 3.782 8.419 3.225 7.145 3.207 M 12 22.885 C 11.764 22.88 11.535 22.789 11.361 22.628 L 2.416 13.174 C -0.139 10.343 -0.139 6.038 2.416 3.207 C 4.951 0.418 9.338 0.418 11.873 3.207 L 12 3.335 L 12.128 3.207 C 14.663 0.418 19.047 0.418 21.582 3.207 C 24.139 6.038 24.139 10.343 21.582 13.174 L 12.766 22.501 C 12.574 22.727 12.298 22.867 12 22.885"/>
</svg>