<?xml version="1.0" encoding="utf-8"?>
<svg id="flag" viewBox="0 0 24 24" xmlns="http://www.w3.org/2000/svg">
  <path d="M 23.326 14.405 L 19.62 9.739 L 22.795 5.1 C 23.134 4.539 22.739 3.819 22.082 3.805 L 13.765 3.805 L 13.765 1.355 C 13.755 0.882 13.371 0.5 12.896 0.5 L 1.169 0.5 L 1.027 0.5 L 0.885 0.5 C 0.822 0.537 0.734 0.514 0.682 0.565 L 0.624 0.63 C 0.57 0.697 0.526 0.771 0.496 0.849 L 0.496 0.928 C 0.471 1.044 0.471 1.163 0.496 1.278 L 1.635 11.645 L 2.853 22.736 C 2.906 23.17 3.273 23.496 3.71 23.5 L 3.799 23.5 C 4.269 23.446 4.61 23.025 4.565 22.554 L 3.358 12.616 L 8.659 12.616 L 9.139 15.206 C 9.17 15.348 9.237 15.476 9.332 15.583 C 9.428 15.684 9.548 15.758 9.682 15.802 L 9.915 15.802 L 22.653 15.802 C 23.312 15.815 23.733 15.108 23.414 14.533 C 23.389 14.488 23.359 14.443 23.326 14.405 Z M 3.165 10.841 L 2.219 2.249 L 11.457 2.249 C 11.778 2.249 12.041 2.51 12.041 2.832 L 12.041 10.282 C 12.041 10.605 11.778 10.867 11.457 10.867 L 3.165 10.841 Z M 11.925 14.079 L 13.543 12.278 C 13.638 12.148 13.701 11.998 13.725 11.838 C 13.726 11.809 13.726 11.777 13.725 11.747 L 13.725 5.463 L 20.424 5.463 L 17.833 9.285 C 17.61 9.589 17.61 10.004 17.833 10.308 L 20.878 14.079 L 11.925 14.079 Z"/>
</svg>