<?xml version="1.0" encoding="utf-8"?>
<svg id="globe" viewBox="0 0 24 24" xmlns="http://www.w3.org/2000/svg">
  <path class="st0" d="M 5.1 12.613 C 5.1 9.444 5.896 6.275 7.489 3.104 C 4.246 4.746 2.033 8.105 2.033 12 C 2.033 13.247 2.26 14.436 2.674 15.534 C 2.714 15.53 2.757 15.527 2.8 15.527 L 5.336 15.527 C 5.178 14.582 5.1 13.608 5.1 12.613 Z M 9.547 2.493 C 7.707 5.867 6.633 9.24 6.633 12.613 C 6.633 13.624 6.716 14.594 6.885 15.527 L 11.233 15.527 L 11.233 8.627 L 9.24 8.627 C 8.933 8.627 8.627 8.32 8.627 7.86 C 8.627 7.4 8.933 7.093 9.24 7.093 L 11.233 7.093 L 11.233 2.062 C 10.671 2.105 10.122 2.194 9.591 2.325 C 9.58 2.378 9.567 2.435 9.547 2.493 Z M 9.547 21.507 C 9.605 21.565 9.646 21.628 9.674 21.695 C 10.18 21.815 10.7 21.898 11.233 21.938 L 11.233 17.06 L 7.253 17.06 C 7.728 18.644 8.486 20.119 9.547 21.507 Z M 12 23.5 C 5.713 23.5 0.5 18.287 0.5 12 C 0.5 5.713 5.713 0.5 12 0.5 C 18.287 0.5 23.5 5.713 23.5 12 C 23.5 18.287 18.287 23.5 12 23.5 Z M 3.404 17.06 C 4.309 18.598 5.614 19.869 7.179 20.732 C 6.517 19.584 6.012 18.354 5.667 17.06 Z M 21.967 12 C 21.967 10.815 21.761 9.679 21.386 8.627 C 21.375 8.627 21.364 8.627 21.353 8.627 L 18.48 8.627 C 18.76 9.956 18.9 11.284 18.9 12.613 C 18.9 15.571 18.207 18.33 16.821 20.732 C 19.894 19.038 21.967 15.77 21.967 12 Z M 12.767 8.627 L 12.767 15.527 L 15.067 15.527 C 15.527 15.527 15.833 15.833 15.833 16.293 C 15.833 16.753 15.527 17.06 15.067 17.06 L 12.767 17.06 L 12.767 21.938 C 13.3 21.898 13.82 21.815 14.326 21.695 C 14.354 21.628 14.395 21.565 14.453 21.507 C 16.447 19.053 17.367 15.987 17.367 12.613 C 17.367 11.302 17.204 9.967 16.897 8.627 Z M 12.767 2.062 L 12.767 7.093 L 16.485 7.093 C 15.993 5.496 15.306 3.902 14.453 2.34 C 14.452 2.338 14.45 2.337 14.447 2.334 C 13.904 2.197 13.342 2.105 12.767 2.062 Z M 20.685 7.093 C 19.72 5.385 18.267 3.993 16.511 3.104 C 17.18 4.435 17.707 5.764 18.095 7.093 Z"/>
</svg>