<?xml version="1.0" encoding="utf-8"?>
<svg id="hotel" viewBox="0 0 24 24" xmlns="http://www.w3.org/2000/svg">
  <path d="M 1.07 23.5 C 0.755 23.5 0.5 23.241 0.5 22.925 L 0.5 8.647 C 0.5 8.329 0.755 8.072 1.07 8.072 L 4.612 8.072 L 4.612 3.96 C 4.612 3.642 4.867 3.385 5.181 3.385 L 6.943 3.385 L 6.943 1.075 C 6.943 0.757 7.199 0.5 7.514 0.5 L 16.526 0.5 C 16.84 0.5 17.095 0.758 17.095 1.075 L 17.095 3.385 L 18.858 3.385 C 19.173 3.385 19.428 3.642 19.428 3.96 L 19.428 8.072 L 22.929 8.072 C 23.245 8.072 23.5 8.33 23.5 8.647 L 23.5 22.925 C 23.5 23.242 23.244 23.5 22.929 23.5 Z M 4.612 9.223 L 1.639 9.223 L 1.639 22.35 L 4.612 22.35 Z M 8.084 3.385 L 15.956 3.385 L 15.956 1.651 L 8.084 1.651 Z M 14.022 22.225 L 14.022 19.514 L 10.018 19.514 L 10.018 22.225 Z M 18.288 4.535 L 5.751 4.535 L 5.751 22.35 L 8.878 22.35 L 8.878 18.94 C 8.878 18.621 9.133 18.364 9.448 18.364 L 14.592 18.364 C 14.906 18.364 15.161 18.622 15.161 18.94 L 15.161 22.35 L 18.249 22.35 Z M 22.359 9.223 L 19.428 9.223 L 19.428 22.35 L 22.359 22.35 Z M 10.899 12.301 L 10.093 12.913 L 10.4 13.904 C 10.419 13.963 10.399 14.028 10.351 14.063 C 10.304 14.099 10.239 14.099 10.192 14.063 L 9.386 13.451 L 8.58 14.063 C 8.557 14.081 8.529 14.09 8.501 14.09 C 8.473 14.09 8.445 14.081 8.421 14.063 C 8.374 14.028 8.354 13.963 8.372 13.904 L 8.68 12.913 L 7.873 12.301 C 7.826 12.264 7.807 12.2 7.824 12.142 C 7.843 12.083 7.894 12.043 7.954 12.043 L 8.949 12.043 L 9.258 11.052 C 9.275 10.994 9.328 10.954 9.386 10.954 C 9.445 10.954 9.497 10.994 9.515 11.052 L 9.823 12.043 L 10.819 12.043 C 10.877 12.043 10.929 12.083 10.948 12.142 C 10.966 12.2 10.946 12.264 10.899 12.301 Z M 15.081 12.301 L 14.275 12.913 L 14.583 13.904 C 14.601 13.963 14.581 14.028 14.533 14.063 C 14.486 14.099 14.422 14.099 14.374 14.063 L 13.568 13.451 L 12.762 14.063 C 12.739 14.081 12.711 14.09 12.683 14.09 C 12.655 14.09 12.627 14.081 12.603 14.063 C 12.556 14.028 12.536 13.963 12.554 13.904 L 12.861 12.913 L 12.055 12.301 C 12.008 12.264 11.988 12.2 12.006 12.142 C 12.025 12.083 12.076 12.043 12.136 12.043 L 13.131 12.043 L 13.439 11.052 C 13.457 10.994 13.51 10.954 13.568 10.954 C 13.627 10.954 13.679 10.994 13.697 11.052 L 14.004 12.043 L 15 12.043 C 15.059 12.043 15.111 12.083 15.13 12.142 C 15.148 12.2 15.128 12.264 15.081 12.301 Z M 12.99 9.164 L 12.184 9.777 L 12.491 10.768 C 12.51 10.827 12.49 10.891 12.442 10.927 C 12.395 10.962 12.33 10.962 12.283 10.927 L 11.477 10.314 L 10.671 10.927 C 10.648 10.945 10.62 10.954 10.592 10.954 C 10.563 10.954 10.536 10.945 10.512 10.927 C 10.465 10.891 10.445 10.827 10.463 10.768 L 10.77 9.777 L 9.964 9.164 C 9.917 9.128 9.897 9.064 9.915 9.005 C 9.934 8.947 9.985 8.907 10.045 8.907 L 11.04 8.907 L 11.349 7.916 C 11.366 7.857 11.419 7.818 11.477 7.818 C 11.536 7.818 11.588 7.857 11.606 7.916 L 11.914 8.907 L 12.909 8.907 C 12.968 8.907 13.02 8.947 13.039 9.005 C 13.057 9.064 13.037 9.128 12.99 9.164 Z"/>
</svg>