<?xml version="1.0" encoding="utf-8"?>
<svg id="like" viewBox="0 0 24 24" xmlns="http://www.w3.org/2000/svg">
  <path d="M 17.975 23.5 L 0.571 23.5 L 0.571 9.123 L 7.255 9.123 C 7.381 9.123 7.381 9.123 7.381 9.123 C 7.507 9.123 7.507 8.997 7.507 8.997 L 9.777 5.088 L 11.417 1.935 C 11.669 1.178 12.173 0.674 12.804 0.548 C 13.434 0.422 14.065 0.548 14.57 0.926 C 15.452 1.557 15.831 2.692 15.831 4.079 L 15.074 8.619 C 15.074 8.745 15.326 8.997 15.578 8.997 L 19.614 9.123 C 19.614 9.123 19.614 9.123 19.614 9.123 C 20.749 9.123 21.758 9.628 22.515 10.385 C 23.271 11.141 23.524 12.276 23.397 13.285 L 23.397 13.411 L 21.506 20.852 C 21.127 22.365 19.614 23.5 17.975 23.5 Z M 7.129 22.113 L 17.975 22.113 C 19.11 22.113 19.992 21.483 20.245 20.474 L 22.136 13.033 C 22.262 12.402 22.01 11.772 21.632 11.267 C 21.127 10.763 20.497 10.511 19.74 10.511 L 15.705 10.385 C 15.705 10.385 15.705 10.385 15.705 10.385 C 14.696 10.385 13.813 9.502 13.813 8.493 L 14.57 3.827 C 14.57 3.07 14.317 2.313 13.813 2.061 C 13.561 1.935 13.434 1.935 13.182 1.935 C 12.93 1.935 12.804 2.187 12.678 2.313 L 11.038 5.592 L 8.894 9.502 C 8.642 10.132 8.012 10.511 7.255 10.511 L 7.129 10.511 L 7.129 22.113 Z M 1.958 22.113 L 5.742 22.113 L 5.742 10.511 L 1.958 10.511 L 1.958 22.113 Z"/>
</svg>