<?xml version="1.0" encoding="utf-8"?>
<svg id="map-marked" viewBox="0 0 24 24" xmlns="http://www.w3.org/2000/svg">
  <path d="M 23.396 20.486 L 20.552 14.481 C 20.42 14.206 20.11 14.067 19.816 14.151 L 15.074 15.546 C 17.256 13.278 18.509 10.275 18.591 7.127 C 18.591 2.034 13.076 -1.151 8.664 1.397 C 6.617 2.577 5.354 4.762 5.354 7.127 C 5.398 9.808 6.335 12.394 8.015 14.481 L 3.786 15.706 C 3.609 15.763 3.466 15.891 3.394 16.063 L 0.599 22.63 C 0.425 23.043 0.728 23.501 1.175 23.5 L 1.348 23.5 L 8.369 21.429 L 15.393 23.5 L 15.563 23.5 L 15.747 23.5 L 23.004 21.346 C 23.366 21.238 23.55 20.831 23.396 20.486 Z M 11.973 2.225 C 14.688 2.232 16.897 4.413 16.937 7.127 C 16.777 10.117 15.456 12.926 13.26 14.96 C 12.872 15.363 12.462 15.749 12.032 16.111 C 11.232 15.461 10.491 14.735 9.829 13.943 C 8.115 12.073 7.118 9.66 7.009 7.127 C 7.05 4.413 9.259 2.232 11.973 2.225 Z M 6.825 20.61 L 2.694 21.835 C 2.53 21.876 2.384 21.721 2.433 21.558 C 2.434 21.554 2.436 21.545 2.437 21.54 L 4.425 16.857 L 8.542 15.633 L 7.977 19.31 C 7.874 19.928 7.425 20.432 6.825 20.61 Z M 9.08 20.35 L 9.694 16.382 C 10.26 16.942 10.872 17.46 11.519 17.925 C 11.799 18.118 12.17 18.118 12.452 17.925 C 12.877 17.613 13.287 17.279 13.676 16.92 L 14.093 17.041 L 14.682 21.245 C 14.731 21.618 14.384 21.924 14.02 21.821 L 9.08 20.35 Z M 16.018 21.516 L 15.342 16.774 L 19.657 15.546 L 21.533 19.591 C 21.741 20.04 21.501 20.567 21.03 20.707 L 16.691 21.932 C 16.366 22.038 16.028 21.809 16.004 21.467 L 16.018 21.516 Z M 11.973 10.35 C 14.407 10.35 15.928 7.717 14.711 5.608 C 13.493 3.499 10.451 3.503 9.234 5.609 C 8.966 6.07 8.822 6.594 8.81 7.127 C 8.777 8.898 10.203 10.351 11.973 10.35 Z M 11.973 5.573 C 13.226 5.574 14.009 6.933 13.381 8.019 C 12.754 9.104 11.187 9.102 10.558 8.016 C 10.405 7.746 10.328 7.44 10.343 7.127 C 10.374 6.251 11.097 5.559 11.973 5.559 L 11.973 5.573 Z"/>
</svg>