<?xml version="1.0" encoding="utf-8"?>
<svg id="marker" viewBox="0 0 24 24" xmlns="http://www.w3.org/2000/svg">
  <path class="cls-1" d="M 12.069 0.5 C 6.484 0.5 2.576 3.961 2.576 8.916 C 2.578 9.312 2.604 9.707 2.653 10.101 C 2.653 10.255 2.653 10.393 2.653 10.547 C 2.653 10.701 2.73 10.962 2.776 11.162 C 4.191 17.609 11.053 23.04 11.377 23.287 C 11.743 23.571 12.256 23.571 12.623 23.287 C 12.946 23.04 19.808 17.609 21.224 11.162 C 21.224 10.962 21.316 10.762 21.347 10.547 C 21.378 10.332 21.347 10.255 21.347 10.101 C 21.396 9.707 21.422 9.312 21.424 8.916 C 21.424 3.961 17.516 0.516 11.931 0.516 M 11.931 2.531 C 15.654 2.531 19.408 4.501 19.408 8.916 C 19.423 9.203 19.423 9.49 19.408 9.778 C 19.408 9.931 19.408 10.07 19.408 10.224 L 19.408 10.532 C 18.478 13.842 16.671 16.841 14.177 19.209 C 13.346 20.07 12.638 20.748 12.115 21.164 C 11.623 20.732 10.885 20.056 10.054 19.209 C 7.528 16.828 5.702 13.8 4.776 10.455 L 4.776 10.162 C 4.776 10.008 4.776 9.855 4.776 9.701 C 4.761 9.414 4.761 9.126 4.776 8.839 C 4.776 4.424 8.53 2.454 12.254 2.454"/>
  <path class="cls-1" d="M 12.069 13.639 C 14.516 13.639 16.5 11.655 16.5 9.208 C 16.5 9.101 16.5 8.993 16.5 8.9 C 16.3 5.519 12.514 3.622 9.686 5.486 C 8.528 6.25 7.797 7.515 7.715 8.9 C 7.715 9.008 7.715 9.101 7.715 9.208 C 7.715 11.626 9.652 13.597 12.069 13.639 M 12.069 6.808 C 13.277 6.815 14.291 7.717 14.439 8.916 C 14.444 9.018 14.444 9.122 14.439 9.224 C 14.439 11.078 12.432 12.235 10.826 11.309 C 10.081 10.879 9.623 10.084 9.623 9.224 C 9.616 9.122 9.616 9.018 9.623 8.916 C 9.773 7.687 10.832 6.775 12.069 6.808"/>
</svg>