<?xml version="1.0" encoding="utf-8"?>
<svg id="marker-solid" viewBox="0 0 24 24" xmlns="http://www.w3.org/2000/svg">
  <path d="M 11.989 13.296 C 9.77 13.296 7.96 11.484 7.96 9.263 C 7.96 7.044 9.77 5.251 11.989 5.251 C 14.21 5.251 16.022 7.044 16.022 9.263 C 16.022 11.484 14.21 13.296 11.989 13.296 M 11.989 0.5 C 7.161 0.5 3.226 4.433 3.226 9.263 C 3.226 17.677 10.939 23.032 11.27 23.267 C 11.483 23.422 11.738 23.5 11.989 23.5 C 12.243 23.5 12.496 23.422 12.731 23.267 C 13.042 23.032 20.774 17.677 20.774 9.263 C 20.774 4.433 16.838 0.5 11.989 0.5" />
</svg>