<?xml version="1.0" encoding="utf-8"?>
<svg id="ncl-shield" viewBox="0 0 24 24" xmlns="http://www.w3.org/2000/svg">
  <path d="M 23.499 18.085 L 23.491 18.147 C 23.47 18.196 23.499 18.251 23.324 18.464 C 22.61 19.291 19.557 22.149 14.883 21.357 C 11.06 20.708 9.395 18.751 5.367 19.016 C 2.55 19.2 0.5 21.084 0.5 21.084 L 0.5 1.781 L 23.499 1.781 C 23.499 1.781 23.5 18.085 23.499 18.085 Z M 8.819 12.166 L 8.819 5.759 L 7.264 5.759 L 7.264 9.703 L 3.91 5.759 L 2.457 5.759 L 2.457 12.166 L 4.012 12.166 L 4.012 8.093 L 7.478 12.166 Z M 15.67 11.468 L 14.704 10.524 C 14.162 11.001 13.68 11.305 12.892 11.305 C 11.711 11.305 10.894 10.352 10.894 9.208 L 10.894 9.189 C 10.894 8.046 11.731 7.112 12.892 7.112 C 13.581 7.112 14.123 7.397 14.655 7.865 L 15.621 6.788 C 14.98 6.178 14.201 5.759 12.901 5.759 C 10.785 5.759 9.308 7.312 9.308 9.208 L 9.308 9.228 C 9.308 11.144 10.814 12.658 12.843 12.658 C 14.173 12.658 14.961 12.201 15.67 11.468 Z M 21.542 12.166 L 21.542 10.884 L 18.147 10.884 L 18.147 5.759 L 16.649 5.759 L 16.649 12.166 Z M 2.448 17.305 C 3.217 16.893 3.9 16.684 5.517 16.589 C 9.428 16.357 10.887 17.837 14.585 18.422 C 17.493 18.881 19.132 18.219 20.37 17.411 C 21.026 16.983 20.852 17.096 21.196 16.803 C 21.501 16.544 21.574 16.362 21.53 16.182 C 21.517 16.128 21.46 16.128 21.349 16.203 C 21.262 16.26 21.094 16.374 21.094 16.374 C 18.184 18.445 14.368 17.228 11.036 16.162 C 7.936 15.17 4.129 15.604 2.406 16.856 C 2.406 16.856 2.201 16.99 2.055 17.216 C 2.008 17.291 1.897 17.595 2.034 17.53 C 2.192 17.456 2.319 17.365 2.448 17.305 Z" id="Combined-Shape"/>
</svg>