<?xml version="1.0" encoding="utf-8"?>
<svg id="overnight" viewBox="0 0 24 24" xmlns="http://www.w3.org/2000/svg">
  <path d="M 14.375 3.555 L 14.676 5.305 L 13.094 4.473 L 11.512 5.305 L 11.813 3.555 L 10.546 2.346 L 12.31 2.093 L 13.094 0.5 L 13.878 2.093 L 15.642 2.346 L 14.375 3.555 Z M 23.006 9.785 L 20.879 9.531 L 19.94 7.61 L 18.999 9.531 L 16.885 9.833 L 18.468 11.33 L 18.105 13.429 L 19.988 12.439 L 21.872 13.429 L 21.509 11.33 L 23.006 9.785 Z M 20.348 20.177 C 20.348 20.177 20.939 19.508 21.208 19.176 C 21.586 18.681 21.29 17.962 20.672 17.878 C 20.573 17.866 20.472 17.872 20.372 17.896 C 12.019 20.102 4.38 12.495 6.552 4.134 C 6.698 3.53 6.138 2.99 5.54 3.165 C 5.44 3.192 5.35 3.238 5.271 3.302 C 4.936 3.567 4.621 3.854 4.316 4.158 C -1.85 10.327 0.976 20.86 9.406 23.114 C 13.316 24.162 17.487 23.042 20.348 20.177 Z M 8.361 16.145 C 10.397 18.148 13.035 19.423 15.872 19.769 C 16.405 19.839 16.661 20.461 16.334 20.887 C 16.266 20.976 16.176 21.046 16.077 21.094 C 9.177 23.988 1.732 18.328 2.675 10.906 C 2.787 10.04 3.014 9.19 3.35 8.384 C 3.579 7.893 4.252 7.838 4.56 8.279 C 4.624 8.371 4.665 8.478 4.679 8.59 C 5.033 11.446 6.328 14.104 8.361 16.145 Z"/>
</svg>