<?xml version="1.0" encoding="utf-8"?>
<svg id="overnight-solid" viewBox="0 0 24 24" xmlns="http://www.w3.org/2000/svg">
  <path d="M 22.378 19.375 C 21.684 20.293 20.764 20.985 19.846 21.677 C 14.318 25.127 6.957 23.517 3.505 18.223 C 0.053 12.928 1.429 5.566 6.957 2.114 C 8.338 1.422 9.716 0.73 11.096 0.5 C 7.875 4.416 7.183 9.936 10.175 14.311 C 12.831 18.327 17.657 20.33 22.378 19.375 Z M 20.538 3.952 C 20.538 4.182 20.538 4.182 20.538 3.952 L 19.384 5.794 L 19.628 7.62 L 17.77 7.178 L 16.162 8.326 L 16.162 6.252 L 14.543 5.23 L 16.622 4.182 L 17.291 2.528 L 18.692 3.952 Z"/>
</svg>