<?xml version="1.0" encoding="utf-8"?>
<svg id="phone-off" viewBox="0 0 24 24" xmlns="http://www.w3.org/2000/svg">
  <path d="M 8.805 10.171 Z M 6.04 2.477 C 5.868 2.486 5.706 2.558 5.584 2.678 L 4.658 3.605 L 4.44 3.824 L 3.057 5.206 C 2.721 5.545 2.493 5.976 2.401 6.443 C 2.28 7.106 2.362 7.792 2.639 8.408 C 3.464 10.574 4.61 12.604 6.04 14.428 C 8.319 17.285 11.285 19.519 14.661 20.921 C 15.484 21.273 16.367 21.463 17.262 21.485 C 17.813 21.517 18.348 21.295 18.717 20.886 C 19.172 20.375 19.663 19.884 20.136 19.412 L 20.955 18.592 C 21.137 18.407 21.297 18.2 21.427 17.974 C 21.525 17.853 21.48 17.673 21.337 17.61 C 21.258 17.546 21.174 17.491 21.081 17.448 L 20.118 16.884 L 17.498 15.356 C 17.334 15.255 17.157 15.176 16.972 15.12 C 16.702 14.996 16.385 15.063 16.189 15.283 L 15.825 15.628 L 15.334 16.102 C 15.145 16.278 14.93 16.424 14.698 16.538 C 14.34 16.729 13.91 16.729 13.552 16.538 L 13.314 16.393 L 12.26 15.756 C 10.981 14.867 9.842 13.794 8.877 12.573 C 8.272 11.836 7.736 11.045 7.277 10.208 C 6.98 9.719 7.098 9.086 7.549 8.735 L 8.349 7.989 C 8.591 7.799 8.71 7.492 8.659 7.188 C 8.624 7.045 8.562 6.909 8.477 6.789 L 8.477 6.625 C 8.023 5.806 7.586 4.97 7.149 4.133 L 6.422 2.732 C 6.422 2.569 6.257 2.533 6.24 2.533 L 6.04 2.477 Z M 17.262 23.395 C 16.118 23.38 14.985 23.139 13.933 22.686 C 10.246 21.177 7.013 18.74 4.548 15.611 C 3.014 13.636 1.787 11.441 0.91 9.098 C 0.518 8.143 0.404 7.097 0.583 6.08 C 0.732 5.25 1.124 4.484 1.711 3.879 L 3.293 2.294 L 4.22 1.35 C 4.924 0.641 5.979 0.414 6.913 0.768 C 7.405 0.995 7.807 1.379 8.059 1.86 L 8.786 3.26 L 10.096 5.697 L 10.096 5.806 C 10.287 6.133 10.422 6.489 10.495 6.862 C 10.654 7.767 10.355 8.693 9.694 9.335 L 9.241 9.771 C 9.581 10.318 9.957 10.841 10.367 11.335 C 11.207 12.417 12.206 13.361 13.334 14.137 C 13.589 14.319 13.843 14.464 14.115 14.628 L 14.462 14.282 C 14.62 14.137 14.79 14.003 14.97 13.882 C 15.674 13.202 16.698 12.971 17.626 13.282 C 17.947 13.386 18.258 13.52 18.553 13.682 L 21.191 15.228 L 22.119 15.774 L 22.574 16.065 C 23.507 16.709 23.777 17.967 23.192 18.94 C 22.973 19.293 22.717 19.622 22.427 19.922 L 21.572 20.777 C 21.101 21.25 20.664 21.686 20.246 22.158 C 19.526 22.978 18.478 23.431 17.389 23.395 L 17.262 23.395 Z"/>
</svg>