<?xml version="1.0" encoding="utf-8"?>
<svg id="sliders" viewBox="0 0 24 24" xmlns="http://www.w3.org/2000/svg">
  <path d="M 16.279 2.249 C 16.752 2.249 17.169 2.474 17.45 2.816 C 17.661 3.077 17.794 3.405 17.794 3.768 C 17.794 4.127 17.661 4.457 17.449 4.719 C 17.169 5.06 16.752 5.283 16.279 5.283 C 15.802 5.283 15.385 5.06 15.106 4.719 C 14.893 4.457 14.76 4.127 14.76 3.768 C 14.76 3.405 14.893 3.077 15.104 2.816 C 15.385 2.474 15.802 2.249 16.279 2.249 M 13.009 4.719 C 13.425 6.139 14.724 7.185 16.279 7.185 C 17.831 7.185 19.129 6.139 19.544 4.719 L 22.549 4.719 C 23.074 4.719 23.5 4.293 23.5 3.768 C 23.5 3.242 23.074 2.816 22.549 2.816 L 19.544 2.816 C 19.129 1.396 17.831 0.348 16.279 0.348 C 14.724 0.348 13.425 1.396 13.009 2.816 L 1.451 2.816 C 0.926 2.816 0.5 3.242 0.5 3.768 C 0.5 4.293 0.926 4.719 1.451 4.719 L 13.009 4.719 Z" id="Fill-1" mask="url(#mask-2)" style="fill: rgb(0, 0, 0);"/>
  <path d="M 7.723 12.89 C 7.248 12.89 6.829 12.667 6.551 12.325 C 6.339 12.063 6.206 11.736 6.206 11.373 C 6.206 11.012 6.339 10.684 6.551 10.422 C 6.831 10.081 7.248 9.856 7.723 9.856 C 8.198 9.856 8.617 10.081 8.894 10.422 C 9.107 10.684 9.241 11.012 9.241 11.373 C 9.241 11.736 9.107 12.063 8.896 12.325 C 8.617 12.667 8.198 12.89 7.723 12.89 M 22.549 10.422 L 10.991 10.422 C 10.575 9.002 9.276 7.955 7.723 7.955 C 6.17 7.955 4.871 9.002 4.455 10.422 L 1.451 10.422 C 0.926 10.422 0.5 10.848 0.5 11.373 C 0.5 11.899 0.926 12.325 1.451 12.325 L 4.455 12.325 C 4.871 13.745 6.17 14.793 7.723 14.793 C 9.276 14.793 10.575 13.745 10.991 12.325 L 22.549 12.325 C 23.075 12.325 23.5 11.899 23.5 11.373 C 23.5 10.848 23.075 10.422 22.549 10.422" id="Fill-4" mask="url(#mask-4)" style="fill: rgb(0, 0, 0);"/>
  <path d="M 14.376 21.749 C 13.901 21.749 13.482 21.526 13.205 21.184 C 12.992 20.923 12.858 20.595 12.858 20.232 C 12.858 19.87 12.992 19.543 13.203 19.281 C 13.482 18.939 13.901 18.716 14.376 18.716 C 14.849 18.716 15.268 18.939 15.547 19.281 C 15.759 19.543 15.893 19.87 15.893 20.232 C 15.893 20.595 15.759 20.923 15.546 21.184 C 15.268 21.526 14.849 21.749 14.376 21.749 M 22.549 19.281 L 17.643 19.281 C 17.227 17.861 15.929 16.815 14.376 16.815 C 12.823 16.815 11.522 17.861 11.108 19.281 L 1.451 19.281 C 0.926 19.281 0.5 19.707 0.5 20.232 C 0.5 20.759 0.926 21.184 1.451 21.184 L 11.108 21.184 C 11.522 22.604 12.823 23.652 14.376 23.652 C 15.929 23.652 17.227 22.604 17.643 21.184 L 22.549 21.184 C 23.074 21.184 23.5 20.759 23.5 20.232 C 23.5 19.707 23.074 19.281 22.549 19.281" id="Fill-7" mask="url(#mask-6)" style="fill: rgb(0, 0, 0);"/>
</svg>