<?xml version="1.0" encoding="utf-8"?>
<svg id="star-rounded" viewBox="0 0 24 24" xmlns="http://www.w3.org/2000/svg">
  <path d="M 17.433 13.324 C 16.803 13.933 16.517 14.805 16.663 15.661 L 17.443 20.292 L 13.246 18.112 C 12.855 17.912 12.428 17.81 12.001 17.81 C 11.572 17.81 11.144 17.912 10.754 18.112 L 6.535 20.276 L 7.335 15.663 C 7.485 14.805 7.197 13.933 6.563 13.322 L 3.177 10.028 L 7.869 9.355 C 8.742 9.23 9.496 8.691 9.887 7.91 L 12.014 3.713 L 14.112 7.907 C 14.5 8.689 15.255 9.23 16.128 9.355 L 20.83 10.054 L 17.433 13.324 Z M 23.366 9.228 C 23.05 8.262 22.223 7.573 21.204 7.426 L 16.501 6.745 L 14.401 2.549 C 13.947 1.639 13.028 1.075 12.001 1.075 C 10.975 1.075 10.053 1.639 9.598 2.549 L 7.487 6.754 L 2.795 7.429 C 1.778 7.573 0.952 8.262 0.633 9.227 C 0.315 10.191 0.576 11.229 1.311 11.935 L 4.712 15.217 L 3.911 19.833 C 3.736 20.828 4.145 21.818 4.975 22.416 C 5.805 23.012 6.886 23.09 7.795 22.617 L 11.994 20.438 C 11.999 20.438 12.009 20.438 12.007 20.438 L 16.206 22.617 C 16.601 22.823 17.026 22.922 17.453 22.922 C 18.007 22.922 18.556 22.752 19.026 22.416 C 19.855 21.818 20.264 20.828 20.09 19.833 L 19.293 15.202 L 22.687 11.935 C 23.423 11.229 23.685 10.191 23.366 9.228 Z"/>
</svg>