<?xml version="1.0" encoding="utf-8"?>
<svg id="view-360" viewBox="0 0 24 24" xmlns="http://www.w3.org/2000/svg">
  <path d="M 10.321 13.75 L 10.444 14.806 C 6.915 14.708 3.905 14.246 2.138 13.612 L 2.138 13.607 C 1.846 13.501 1.582 13.389 1.364 13.273 C 1.582 13.158 1.846 13.046 2.138 12.939 L 2.139 12.941 C 2.386 12.851 2.65 12.768 2.947 12.686 C 2.791 12.314 2.708 11.902 2.708 11.464 L 2.708 10.845 C 1.326 11.257 0.508 11.767 0.505 12.319 L 0.503 12.319 L 0.503 14.229 L 0.5 14.229 C 0.5 15.508 4.849 16.565 10.478 16.713 L 10.321 18.058 L 12.154 16.738 L 13.301 15.904 L 11.816 14.831 L 10.321 13.75 Z M 23.366 12.322 L 23.362 12.322 L 23.362 14.229 L 23.362 14.229 C 23.359 15.451 19.374 16.474 14.101 16.688 L 14.101 14.782 C 17.344 14.649 20.083 14.204 21.726 13.61 L 21.727 13.607 C 22.02 13.501 22.282 13.389 22.501 13.273 C 22.282 13.158 22.02 13.046 21.727 12.939 L 21.723 12.941 C 21.36 12.809 20.947 12.686 20.485 12.57 C 20.725 12.058 20.891 11.464 20.965 10.787 C 22.466 11.208 23.366 11.745 23.366 12.322 L 23.366 12.322 Z M 21.789 7.641 C 21.789 8.121 21.894 8.361 22.102 8.361 C 22.312 8.361 22.417 8.124 22.417 7.649 C 22.417 7.16 22.312 6.915 22.102 6.915 C 21.894 6.915 21.789 7.157 21.789 7.641 L 21.789 7.641 Z M 21.077 8.786 C 20.829 8.5 20.705 8.122 20.705 7.654 C 20.705 7.181 20.83 6.8 21.082 6.513 C 21.337 6.223 21.673 6.078 22.089 6.078 C 22.526 6.078 22.871 6.221 23.123 6.509 C 23.374 6.795 23.5 7.189 23.5 7.688 C 23.5 8.149 23.372 8.519 23.113 8.796 C 22.858 9.07 22.515 9.207 22.083 9.207 C 21.658 9.207 21.322 9.067 21.077 8.786 L 21.077 8.786 Z M 16.899 9.618 C 16.899 11.159 17.11 11.929 17.533 11.929 C 17.762 11.929 17.93 11.761 18.039 11.424 C 18.145 11.086 18.2 10.561 18.2 9.846 C 18.2 8.404 17.982 7.683 17.547 7.683 C 17.115 7.683 16.899 8.328 16.899 9.618 L 16.899 9.618 Z M 15.632 12.635 C 15.155 11.945 14.916 10.982 14.916 9.744 C 14.916 8.573 15.155 7.648 15.632 6.967 C 16.113 6.284 16.761 5.943 17.576 5.943 C 18.398 5.943 19.04 6.289 19.501 6.982 C 19.962 7.676 20.192 8.635 20.192 9.859 C 20.192 11.026 19.96 11.955 19.496 12.645 C 19.032 13.332 18.408 13.675 17.625 13.675 C 16.776 13.675 16.113 13.328 15.632 12.635 L 15.632 12.635 Z M 12.291 11.02 C 12.291 10.363 12.098 10.034 11.715 10.034 C 11.348 10.034 11.164 10.365 11.164 11.03 C 11.164 11.72 11.348 12.065 11.715 12.065 C 12.098 12.065 12.291 11.716 12.291 11.02 L 12.291 11.02 Z M 14.229 10.967 C 14.229 11.764 13.989 12.416 13.509 12.926 C 13.029 13.425 12.403 13.675 11.633 13.675 C 10.901 13.675 10.311 13.428 9.863 12.935 C 9.415 12.439 9.191 11.786 9.191 10.977 C 9.191 10.11 9.592 8.912 10.395 7.383 L 11.077 6.078 L 13.243 6.078 L 12.049 8.201 C 12.004 8.282 11.951 8.37 11.889 8.47 C 11.828 8.568 11.759 8.676 11.681 8.791 C 11.949 8.649 12.186 8.578 12.393 8.578 C 12.905 8.578 13.338 8.811 13.693 9.274 C 14.051 9.736 14.229 10.3 14.229 10.967 L 14.229 10.967 Z M 4.213 13.061 C 3.758 12.652 3.53 12.117 3.53 11.461 L 3.53 11.349 L 5.499 11.349 C 5.499 11.797 5.662 12.021 5.992 12.021 C 6.156 12.021 6.29 11.958 6.393 11.831 C 6.497 11.703 6.548 11.536 6.548 11.329 C 6.548 10.804 6.274 10.541 5.726 10.541 C 5.688 10.541 5.639 10.544 5.581 10.549 C 5.523 10.553 5.456 10.559 5.383 10.566 L 5.383 8.975 C 5.437 8.978 5.485 8.981 5.525 8.982 C 5.565 8.984 5.598 8.985 5.625 8.985 C 6.176 8.985 6.452 8.732 6.452 8.226 C 6.452 7.813 6.308 7.607 6.021 7.607 C 5.796 7.607 5.666 7.772 5.634 8.104 L 5.625 8.205 L 3.675 8.205 C 3.73 7.509 3.974 6.959 4.406 6.557 C 4.835 6.148 5.397 5.943 6.093 5.943 C 6.758 5.943 7.309 6.152 7.747 6.572 C 8.196 6.988 8.419 7.502 8.419 8.114 C 8.419 8.801 8.118 9.325 7.515 9.685 C 8.182 10.069 8.516 10.646 8.516 11.417 C 8.516 12.084 8.279 12.627 7.806 13.046 C 7.338 13.466 6.73 13.675 5.982 13.675 C 5.25 13.675 4.661 13.47 4.213 13.061 L 4.213 13.061 Z"/>
</svg>