<?xml version="1.0" encoding="utf-8"?>
<svg id="wearable" viewBox="0 0 24 24" xmlns="http://www.w3.org/2000/svg">
  <path d="M 11.439 5.888 L 11.439 4.097 C 11.439 3.799 11.638 3.6 11.937 3.6 C 12.235 3.6 12.434 3.799 12.434 4.097 L 12.434 5.987 C 12.434 6.286 12.235 6.485 11.937 6.485 C 11.638 6.485 11.439 6.186 11.439 5.888 Z M 8.256 4.296 C 8.157 3.998 8.356 3.699 8.654 3.6 C 8.952 3.5 9.251 3.699 9.251 3.998 L 9.947 6.385 C 10.047 6.684 9.848 6.982 9.549 7.082 L 9.45 7.082 C 9.151 7.082 8.952 6.883 8.952 6.684 Z M 15.816 11.956 L 15.816 15.438 C 15.816 16.034 15.22 16.631 14.523 16.631 L 10.843 16.631 C 10.544 16.631 10.345 16.432 10.345 16.134 C 10.345 15.836 10.544 15.637 10.843 15.637 L 14.523 15.637 C 14.623 15.637 14.722 15.637 14.722 15.537 L 14.722 12.055 C 14.722 11.757 14.921 11.558 15.22 11.558 C 15.518 11.558 15.816 11.856 15.816 11.956 Z M 13.926 6.385 L 14.523 3.998 C 14.623 3.699 14.921 3.5 15.22 3.6 C 15.518 3.699 15.717 3.998 15.617 4.296 L 14.921 6.684 C 14.921 6.883 14.623 7.082 14.424 7.082 L 14.324 7.082 C 14.026 6.982 13.926 6.684 13.926 6.385 Z M 6.366 16.532 L 6.366 15.046 L 2.587 15.046 C 2.555 15.046 2.524 15.045 2.494 15.042 C 1.881 15.067 1.785 15.352 1.691 15.637 C 1.691 15.658 1.683 15.67 1.671 15.677 C 1.599 15.933 1.36 16.121 1.078 16.121 C 0.738 16.121 0.498 15.855 0.498 15.52 C 0.498 15.449 0.474 15.374 0.497 15.31 L 0.497 12.453 C 0.497 11.459 1.392 10.563 2.486 10.563 L 6.366 10.563 L 6.366 9.767 C 6.366 8.673 7.261 7.778 8.356 7.778 L 15.617 7.778 C 16.601 7.778 17.425 8.502 17.58 9.444 C 17.599 9.552 17.608 9.661 17.608 9.773 L 17.608 10.563 L 21.387 10.563 C 21.444 10.563 21.501 10.565 21.556 10.57 C 22.619 10.607 23.477 11.485 23.477 12.459 L 23.477 15.316 C 23.5 15.38 23.476 15.455 23.476 15.526 C 23.476 15.861 23.236 16.127 22.896 16.127 C 22.614 16.127 22.375 15.939 22.303 15.683 C 22.291 15.676 22.283 15.664 22.283 15.643 C 22.184 15.344 22.084 15.046 21.388 15.046 L 17.608 15.046 L 17.608 16.538 C 17.608 17.632 16.713 18.527 15.618 18.527 L 8.357 18.527 C 7.373 18.527 6.549 17.803 6.394 16.861 C 6.375 16.754 6.366 16.644 6.366 16.532 Z M 6.267 11.757 L 2.486 11.757 C 2.193 11.757 1.934 11.86 1.771 12.048 C 1.721 12.147 1.692 12.253 1.692 12.36 L 1.692 14.15 C 1.891 14.051 2.189 13.951 2.587 13.951 L 6.267 13.951 Z M 16.513 9.767 C 16.513 9.717 16.509 9.668 16.501 9.62 C 16.429 9.196 16.063 8.878 15.618 8.878 L 8.357 8.878 C 7.859 8.878 7.461 9.276 7.461 9.773 L 7.461 16.538 C 7.461 16.589 7.465 16.637 7.473 16.685 C 7.545 17.109 7.911 17.427 8.356 17.427 L 15.617 17.427 C 16.115 17.427 16.513 17.029 16.513 16.532 Z M 22.282 12.354 C 22.282 12.257 22.26 12.162 22.217 12.071 C 22.055 11.873 21.79 11.763 21.488 11.763 L 17.707 11.763 L 17.707 13.945 L 21.387 13.945 C 21.785 13.945 22.083 14.045 22.282 14.144 Z"/>
</svg>