<?xml version="1.0" encoding="utf-8"?>
<svg id="wifi" viewBox="0 0 24 24" xmlns="http://www.w3.org/2000/svg">
  <path d="M 11.999 17.827 C 12.907 17.827 13.639 18.559 13.639 19.468 C 13.639 20.376 12.907 21.108 11.999 21.108 C 11.09 21.108 10.358 20.376 10.358 19.468 C 10.358 18.559 11.09 17.827 11.999 17.827 Z M 19.766 10.877 C 20.245 11.363 20.245 12.145 19.766 12.624 C 19.527 12.862 19.216 12.982 18.899 12.982 C 18.583 12.982 18.266 12.862 18.026 12.624 C 14.709 9.307 9.302 9.307 5.985 12.624 C 5.499 13.101 4.717 13.101 4.238 12.624 C 3.759 12.138 3.759 11.356 4.238 10.877 C 8.513 6.595 15.484 6.595 19.766 10.877 Z M 16.435 14.215 C 16.914 14.694 16.914 15.475 16.435 15.954 C 16.188 16.193 15.878 16.313 15.562 16.313 C 15.245 16.313 14.928 16.193 14.688 15.954 C 13.203 14.468 10.787 14.468 9.309 15.954 C 8.823 16.432 8.041 16.432 7.562 15.954 C 7.083 15.468 7.083 14.687 7.562 14.208 C 10.013 11.764 13.984 11.764 16.435 14.215 Z M 23.153 9.243 C 22.906 9.482 22.596 9.603 22.28 9.603 C 21.963 9.603 21.646 9.482 21.407 9.243 C 16.217 4.06 7.788 4.06 2.605 9.243 C 2.12 9.722 1.338 9.722 0.859 9.243 C 0.38 8.757 0.38 7.976 0.859 7.497 C 6.999 1.356 16.998 1.356 23.139 7.497 C 23.617 7.976 23.617 8.757 23.153 9.243 Z"/>
</svg>