<?xml version="1.0" encoding="UTF-8"?>
<svg width="27px" height="27px" viewBox="0 0 27 27" version="1.1" xmlns="http://www.w3.org/2000/svg" xmlns:xlink="http://www.w3.org/1999/xlink">
    <!-- Generator: Sketch 49.3 (51167) - http://www.bohemiancoding.com/sketch -->
    <title>icon-Pinterest</title>
    <desc>Created with Sketch.</desc>
    <defs>
        <path d="M10.5,0 C4.70103777,0 0,4.70101851 0,10.499957 C0,14.9481853 2.76762001,18.7509683 6.67353187,20.2808779 C6.58169388,19.4501219 6.4988073,18.172486 6.70994,17.2655573 C6.90075989,16.4461627 7.94118877,12.0463922 7.94118877,12.0463922 C7.94118877,12.0463922 7.62711489,11.4173863 7.62711489,10.4874767 C7.62711489,9.02745661 8.47336711,7.93745517 9.52705095,7.93745517 C10.4227941,7.93745517 10.8555602,8.61009898 10.8555602,9.41658299 C10.8555602,10.3174007 10.2819816,11.6643236 9.98589662,12.9125233 C9.73852794,13.9576818 10.5100703,14.8099555 11.5408592,14.8099555 C13.4070554,14.8099555 14.8415183,12.8422034 14.8415183,10.0016927 C14.8415183,7.4877349 13.0350556,5.72990963 10.4556733,5.72990963 C7.46805528,5.72990963 5.71444029,7.9707646 5.71444029,10.2866734 C5.71444029,11.1890403 6.06208194,12.1568211 6.49588088,12.6828002 C6.58160781,12.7867738 6.59426028,12.8779228 6.56869713,12.9839621 C6.48899518,13.3156792 6.31186061,14.0288624 6.27708784,14.1747525 C6.23121188,14.3669488 6.12482786,14.4076603 5.92591727,14.3152202 C4.61445013,13.7047196 3.79462178,11.787491 3.79462178,10.247425 C3.79462178,6.93524602 6.20117303,3.89350165 10.7323062,3.89350165 C14.3747541,3.89350165 17.2054643,6.48896858 17.2054643,9.95771051 C17.2054643,13.576474 14.9237163,16.4887678 11.7568119,16.4887678 C10.6928856,16.4887678 9.69265198,15.9360207 9.35026067,15.2830871 C9.35026067,15.2830871 8.82376303,17.2878497 8.69611942,17.7790561 C8.45899321,18.691149 7.81913978,19.8343423 7.39110761,20.5316884 C8.37352449,20.8358629 9.41756837,21 10.5,21 C16.2990483,21 21,16.2989815 21,10.499957 C21,4.70101851 16.2990483,0 10.5,0" id="path-1"></path>
    </defs>
    <g id="icon-Pinterest" stroke="none" stroke-width="1" fill="none" fill-rule="evenodd">
        <g id="Assets/Social/Pinterest" transform="translate(3.000000, 3.000000)">
            <mask id="mask-2" fill="white">
                <use xlink:href="#path-1"></use>
            </mask>
            <use id="Mask" fill="#50AACF" xlink:href="#path-1"></use>
            <g id="Foundation/SocialIconColors/LightBlue" mask="url(#mask-2)" fill="#50AACF">
                <g transform="translate(-5.000000, -5.000000)" id="Rectangle">
                    <rect x="0" y="0" width="30" height="30"></rect>
                </g>
            </g>
        </g>
    </g>
</svg>