<?xml version="1.0" encoding="utf-8"?>
<!-- Generator: Adobe Illustrator 25.4.1, SVG Export Plug-In . SVG Version: 6.00 Build 0)  -->
<svg version="1.1" id="ENCORE_DECK_19" xmlns="http://www.w3.org/2000/svg" xmlns:xlink="http://www.w3.org/1999/xlink" x="0px"
	 y="0px" width="150.7px" height="790.4px" viewBox="0 0 150.7 790.4" style="enable-background:new 0 0 150.7 790.4;"
	 xml:space="preserve">
<style type="text/css">
	.st0{fill:#FFFFFF;}
	.st1{fill:none;stroke:#D5DCE0;stroke-width:0.5;}
	.st2{fill:#FFFFFF;stroke:#D5DCE0;stroke-width:0.5;}
	.st3{fill:none;}
	.st4{fill:#CCDDE2;}
	.st5{fill:#DFEDF1;stroke:#CEDFE5;stroke-width:0.5;}
	.st6{fill:#DFEDF1;}
	.st7{fill:#6E8496;}
	.st8{fill:none;stroke:#076FA0;stroke-miterlimit:10;}
</style>
<g id="ENCORE_DECK_19_BOTTOM">
	<path class="st0" d="M114,336.8v-67.2l13.5,0.2l0.1-90.9l6-6.5v-10.2l-6-5.8l0.2-96.4l5.5-5.6V43.6l-5.5-5.7c0,0,0-17,0-17.7
		c0-5.8-1.6-8.6-8.9-11.7c-11.2-4.7-20.8-8-43.6-8H75h-0.3h-1.2h-0.3h-0.3c-22.8,0-32.5,3.3-43.6,8c-7.3,3.1-8.9,5.9-8.9,11.7
		c0,0.7,0,17.7,0,17.7l-5.5,5.7v10.8l5.5,5.6l0.2,134.2l-6,5.8v10.2l6,6.5l0.1,53.1l13.7-0.2v67.2H114L114,336.8z"/>
	<path class="st0" d="M68.6,539.5h-5.5c-5,0-8,2.7-8,7.2v62.1c13.1,0,28.4,0,37.9,0v-62.1c0-4.5-3-7.2-8-7.2h-5.5H68.6L68.6,539.5z"
		/>
	<path class="st0" d="M114,336.8v-67.2l13.5,0.2l0.1-90.9l6-6.5v-10.2l-6-5.8l0.2-96.4l5.5-5.6V43.6l-5.5-5.7c0,0,0-17,0-17.7
		c0-5.8-1.6-8.6-8.9-11.7c-11.2-4.7-20.8-8-43.6-8H75h-0.3h-1.2h-0.3h-0.3c-22.8,0-32.5,3.3-43.6,8c-7.3,3.1-8.9,5.9-8.9,11.7
		c0,0.7,0,17.7,0,17.7l-5.5,5.7v10.8l5.5,5.6l0.2,134.2l-6,5.8v10.2l6,6.5l0.1,53.1l13.7-0.2v67.2H114L114,336.8z"/>
	<path class="st1" d="M20.2,19.5c0,0,1.8-1.7,4.6-3.2c7.6-4,22.7-7,27.5-7V17h21.3"/>
	<path class="st1" d="M127.6,19.5c0,0-1.8-1.7-4.7-3.2c-7.6-4-22.9-7-27.8-7V17H73.6"/>
	<polyline class="st1" points="105.4,84.3 105.4,110.4 127.3,110.4 	"/>
	<path class="st1" d="M95,84.5v-54c0,0-7.3-4.7-21-4.7h-0.3c-13.8,0-21,4.7-21,4.7l0.1,54h-8.6v19.3H95v-8.7"/>
	<polyline class="st1" points="95,95.1 69.6,95.1 69.6,84.5 	"/>
	<rect x="73.6" y="84.6" class="st1" width="0.8" height="10.4"/>
	<rect x="74.4" y="84.6" class="st1" width="0.8" height="10.4"/>
	<rect x="72.2" y="84.6" class="st1" width="0.8" height="10.4"/>
	<rect x="76" y="84.5" class="st1" width="0.8" height="10.4"/>
	<rect x="76.7" y="84.5" class="st1" width="0.8" height="10.4"/>
	<rect x="77.5" y="84.5" class="st1" width="0.8" height="10.4"/>
	<rect x="78.2" y="89.7" class="st1" width="0.8" height="5.3"/>
	<rect x="79.7" y="90.1" class="st1" width="0.8" height="4.9"/>
	<rect x="80.5" y="90.1" class="st1" width="0.8" height="4.9"/>
	<rect x="82" y="90.1" class="st1" width="0.8" height="4.9"/>
	<rect x="83.3" y="90.1" class="st1" width="0.8" height="4.9"/>
	<line class="st1" x1="78.3" y1="89.7" x2="80.3" y2="84.7"/>
	<path class="st1" d="M71.6,89.7c-0.1,0-0.2,0.1-0.2,0.2l0,0c0,0.1,0.1,0.2,0.2,0.2h10.1c0.1,0,0.2-0.1,0.2-0.2l0,0
		c0-0.1-0.1-0.2-0.2-0.2H71.6z"/>
	<path class="st1" d="M71.6,90.1h12.9c0.1,0,0.2-0.1,0.2-0.2l0,0c0-0.1-0.1-0.2-0.2-0.2H71.6"/>
	<line class="st1" x1="79" y1="87.7" x2="79" y2="84.4"/>
	<line class="st1" x1="105.2" y1="84.4" x2="69.5" y2="84.4"/>
	<rect x="53.9" y="111.7" class="st1" width="41.2" height="56.1"/>
	<path class="st1" d="M86.2,210c-6.9,0-31.2,0-36.7,0c-8.6,0-8.3,8.8-8.3,8.8l53.6,0.1C94.8,218.9,95.4,210,86.2,210z"/>
	<polyline class="st1" points="46.7,302.6 40.8,302.6 40.8,336.8 106.6,336.8 106.6,269.6 94.8,269.6 94.8,218.9 41.2,218.8 
		40.8,268.6 40.8,298.2 51.4,298.2 51.4,302.6 45.6,302.6 	"/>
	<line class="st1" x1="114" y1="269.6" x2="106.6" y2="269.6"/>
	<line class="st1" x1="55.9" y1="175.1" x2="55.9" y2="185.6"/>
	<line class="st1" x1="60.3" y1="175.1" x2="60.3" y2="185.6"/>
	<line class="st1" x1="73.7" y1="175.1" x2="73.7" y2="185.6"/>
	<polyline class="st1" points="86.6,185.6 42.3,185.6 42.3,175 105.1,175 105.1,185.6 86.2,185.6 	"/>
	<polyline class="st1" points="86.6,185.6 94.9,175 86.7,175 94.8,185.6 	"/>
	<line class="st1" x1="44.2" y1="175" x2="44.2" y2="103.8"/>
	<rect x="40.5" y="345.3" class="st2" width="66.7" height="3.2"/>
	<rect x="40.5" y="341.1" class="st2" width="66.7" height="4.2"/>
	<line class="st1" x1="48.7" y1="345.1" x2="48.7" y2="348.3"/>
	<line class="st1" x1="98.5" y1="345.1" x2="98.5" y2="348.3"/>
	<path class="st1" d="M130.6,590.2c0,0.9-0.8,1.7-1.7,1.7s-1.7-0.8-1.7-1.7s0.8-1.7,1.7-1.7S130.6,589.3,130.6,590.2z"/>
	<circle class="st2" cx="128.9" cy="590.2" r="6.5"/>
	<path class="st1" d="M125.3,595.6l2.6-4.1l0.5,0.3l-1.5,4.6l1.9,0.2v-4.8c0,0,0.6,0,1.4-0.8c0.5,0.2,4.3,2.1,4.3,2.1l0.6-1.5
		l-4.8-1l0.1-0.5h4.8l-0.2-1.5l-4.6,1.2l-0.1-0.5l4.2-2.1l-0.9-1.2l-3.5,2.9l-0.4-0.2l2.9-3.7l-1.3-0.8l-2,4.2l-0.3-0.1l0.7-4.6
		l-1.7,0.1l0.5,4.6l-0.3,0.1l-1.6-4.4l-1.4,0.7l2.6,3.8l-0.4,0.3l-3.5-3.2"/>
	<rect x="67.9" y="518.1" class="st1" width="14.8" height="21.3"/>
	<rect x="68" y="531.5" class="st1" width="6.2" height="1"/>
	<rect x="68" y="530.5" class="st1" width="6.2" height="1"/>
	<rect x="68" y="529.5" class="st1" width="6.2" height="1"/>
	<polygon class="st1" points="73.1,528.5 68,528.5 68,529.5 74.1,529.5 	"/>
	<polygon class="st1" points="72.1,527.5 68,527.5 68,528.5 73.1,528.5 	"/>
	<rect x="68" y="526.6" class="st1" width="2.9" height="1"/>
	<polyline class="st1" points="71.1,526.5 74.1,529.5 74.1,525.6 	"/>
	<path class="st1" d="M71.1,531.8c0,0.1,0,0.2-0.1,0.2l0,0c-0.1,0-0.1-0.1-0.1-0.2v-6.3c0-0.1,0-0.2,0.1-0.2l0,0
		c0.1,0,0.1,0.1,0.1,0.2V531.8z"/>
	<rect x="76.5" y="531.5" class="st1" width="6.2" height="1"/>
	<rect x="76.5" y="530.5" class="st1" width="6.2" height="1"/>
	<rect x="76.5" y="529.5" class="st1" width="6.2" height="1"/>
	<polygon class="st1" points="81.6,528.5 76.5,528.5 76.5,529.5 82.6,529.5 	"/>
	<polygon class="st1" points="80.6,527.5 76.5,527.5 76.5,528.5 81.6,528.5 	"/>
	<rect x="76.5" y="526.6" class="st1" width="2.9" height="1"/>
	<line class="st1" x1="79.6" y1="526.5" x2="82.6" y2="529.5"/>
	<path class="st1" d="M79.6,531.8c0,0.1,0,0.2-0.1,0.2l0,0c-0.1,0-0.1-0.1-0.1-0.2v-6.3c0-0.1,0-0.2,0.1-0.2l0,0
		c0.1,0,0.1,0.1,0.1,0.2V531.8z"/>
	<rect x="74.1" y="523.7" class="st1" width="2.3" height="8.4"/>
	<polygon class="st1" points="131.4,167.6 131.4,171 129,173.7 126.9,173.7 126.7,173.7 124.6,173.7 122.2,171 122.2,167.6 
		122.2,167.5 122.2,164.2 124.6,161.4 126.7,161.4 126.9,161.4 129,161.4 131.4,164.2 131.4,167.5 	"/>
	<path class="st3" d="M128.4,167c-0.5,0.2-1,0.4-1.9,0.4s-1.4-0.2-1.9-0.4c-0.4-0.2-0.8-0.4-1.7-0.4c-0.3,0-0.5,0-0.7,0.1v0.9l0,0
		c0.2,0,0.5-0.1,0.7-0.1c1,0,1.4,0.2,1.9,0.4c0.4,0.2,0.8,0.4,1.7,0.4c0.8,0,1.3-0.2,1.7-0.4c0.5-0.2,1-0.4,1.9-0.4
		c0.6,0,1,0.1,1.3,0.2l0,0v-0.1v-0.7c-0.3-0.1-0.7-0.2-1.3-0.2C129.2,166.7,128.8,166.8,128.4,167z"/>
	<path class="st3" d="M128.4,164c-0.5,0.2-1,0.4-1.9,0.4s-1.4-0.2-1.9-0.4c-0.4-0.2-0.8-0.4-1.7-0.4c-0.1,0-0.2,0-0.2,0l-0.5,0.6
		v0.4c0.2,0,0.5-0.1,0.7-0.1c1,0,1.4,0.2,1.9,0.4c0.4,0.2,0.8,0.4,1.7,0.4c0.8,0,1.3-0.2,1.7-0.4c0.5-0.2,1-0.4,1.9-0.4
		c0.6,0,1,0.1,1.3,0.2v-0.5l-0.4-0.5c-0.2-0.1-0.5-0.1-0.9-0.1C129.2,163.7,128.8,163.8,128.4,164z"/>
	<path class="st3" d="M126.5,162.9c-1,0-1.4-0.2-1.9-0.4c-0.2-0.1-0.4-0.2-0.7-0.2l-0.7,0.8c0.8,0,1.2,0.2,1.6,0.4s0.8,0.4,1.7,0.4
		c0.8,0,1.3-0.2,1.7-0.4c0.5-0.2,1-0.4,1.9-0.4c0.1,0,0.2,0,0.3,0l-0.8-0.9c-0.5,0.1-0.9,0.2-1.2,0.3
		C127.9,162.7,127.4,162.9,126.5,162.9z"/>
	<path class="st3" d="M128.4,165.5c-0.5,0.2-1,0.4-1.9,0.4s-1.4-0.2-1.9-0.4c-0.4-0.2-0.8-0.4-1.7-0.4c-0.3,0-0.5,0-0.7,0.1v0.9
		c0.2,0,0.5-0.1,0.7-0.1c1,0,1.4,0.2,1.9,0.4c0.4,0.2,0.8,0.4,1.7,0.4c0.8,0,1.3-0.2,1.7-0.4c0.5-0.2,1-0.4,1.9-0.4
		c0.6,0,1,0.1,1.3,0.2v-0.9c-0.3-0.1-0.7-0.2-1.3-0.2C129.2,165.2,128.8,165.3,128.4,165.5z"/>
	<path class="st3" d="M126.5,162.3c0.8,0,1.3-0.2,1.7-0.4c0.3-0.1,0.6-0.2,1-0.3l-0.1-0.1H127h-0.3h-2.1l-0.2,0.3
		c0.2,0.1,0.3,0.1,0.5,0.2C125.2,162.1,125.6,162.3,126.5,162.3z"/>
	<path class="st3" d="M128.4,171.5c-0.5,0.2-1,0.4-1.9,0.4s-1.4-0.2-1.9-0.4c-0.4-0.2-0.8-0.4-1.7-0.4c-0.2,0-0.4,0-0.6,0l0.8,0.9
		c0.9,0,1.3,0.2,1.8,0.4c0.4,0.2,0.8,0.4,1.7,0.4c0.8,0,1.3-0.2,1.7-0.4c0.5-0.2,1-0.4,1.9-0.4c0.2,0,0.3,0,0.4,0l0.7-0.8
		c-0.3-0.1-0.6-0.1-1.1-0.1C129.2,171.2,128.8,171.4,128.4,171.5z"/>
	<path class="st3" d="M128.4,170c-0.5,0.2-1,0.4-1.9,0.4s-1.4-0.2-1.9-0.4c-0.4-0.2-0.8-0.4-1.7-0.4c-0.3,0-0.5,0-0.7,0.1v0.9
		c0.2,0,0.5-0.1,0.7-0.1c1,0,1.4,0.2,1.9,0.4c0.4,0.2,0.8,0.4,1.7,0.4c0.8,0,1.3-0.2,1.7-0.4c0.5-0.2,1-0.4,1.9-0.4
		c0.6,0,1,0.1,1.3,0.2v-0.9c-0.3-0.1-0.7-0.2-1.3-0.2C129.2,169.7,128.8,169.8,128.4,170z"/>
	<path class="st3" d="M128.4,168.5c-0.5,0.2-1,0.4-1.9,0.4s-1.4-0.2-1.9-0.4c-0.4-0.2-0.8-0.4-1.7-0.4c-0.3,0-0.5,0-0.7,0.1v0.9
		c0.2,0,0.5-0.1,0.7-0.1c1,0,1.4,0.2,1.9,0.4c0.4,0.2,0.8,0.4,1.7,0.4c0.8,0,1.3-0.2,1.7-0.4c0.5-0.2,1-0.4,1.9-0.4
		c0.6,0,1,0.1,1.3,0.2v-0.9c-0.3-0.1-0.7-0.2-1.3-0.2C129.2,168.2,128.8,168.3,128.4,168.5z"/>
	<path class="st3" d="M126.5,173.4c-1,0-1.4-0.2-1.9-0.4c-0.3-0.1-0.6-0.2-1-0.3l1,1.1h2.1h0.3h1.6c0.2-0.1,0.4-0.1,0.6-0.2l0.9-1
		c-0.8,0-1.2,0.2-1.6,0.3C127.9,173.2,127.4,173.4,126.5,173.4z"/>
	<path class="st4" d="M128.2,162c-0.4,0.2-0.8,0.4-1.7,0.4c-0.8,0-1.3-0.2-1.7-0.4c-0.2-0.1-0.3-0.1-0.5-0.2l-0.4,0.5
		c0.3,0.1,0.5,0.2,0.7,0.2c0.5,0.2,1,0.4,1.9,0.4s1.4-0.2,1.9-0.4c0.3-0.1,0.7-0.3,1.2-0.3l-0.5-0.5
		C128.7,161.7,128.4,161.8,128.2,162z"/>
	<path class="st4" d="M128.2,163.5c-0.4,0.2-0.8,0.4-1.7,0.4c-0.8,0-1.3-0.2-1.7-0.4c-0.4-0.2-0.9-0.3-1.6-0.4l-0.5,0.6
		c0.1,0,0.1,0,0.2,0c0.8,0,1.3,0.2,1.7,0.4c0.5,0.2,1,0.4,1.9,0.4s1.4-0.2,1.9-0.4c0.4-0.2,0.8-0.4,1.7-0.4c0.4,0,0.6,0,0.9,0.1
		l-0.6-0.7c-0.1,0-0.2,0-0.3,0C129.1,163.1,128.6,163.3,128.2,163.5z"/>
	<path class="st4" d="M128.2,165c-0.4,0.2-0.8,0.4-1.7,0.4c-0.8,0-1.3-0.2-1.7-0.4c-0.5-0.2-1-0.4-1.9-0.4c-0.3,0-0.5,0-0.7,0.1v0.6
		c0.2,0,0.4-0.1,0.7-0.1c0.8,0,1.3,0.2,1.7,0.4c0.5,0.2,1,0.4,1.9,0.4s1.4-0.2,1.9-0.4c0.4-0.2,0.8-0.4,1.7-0.4c0.6,0,1,0.1,1.3,0.2
		v-0.6c-0.3-0.1-0.7-0.2-1.3-0.2C129.1,164.6,128.6,164.8,128.2,165z"/>
	<path class="st4" d="M128.2,166.5c-0.4,0.2-0.8,0.4-1.7,0.4c-0.8,0-1.3-0.2-1.7-0.4c-0.5-0.2-1-0.4-1.9-0.4c-0.3,0-0.5,0-0.7,0.1
		v0.6c0.2,0,0.4-0.1,0.7-0.1c0.8,0,1.3,0.2,1.7,0.4c0.5,0.2,1,0.4,1.9,0.4s1.4-0.2,1.9-0.4c0.4-0.2,0.8-0.4,1.7-0.4
		c0.6,0,1,0.1,1.3,0.2v-0.6c-0.3-0.1-0.7-0.2-1.3-0.2C129.1,166.1,128.6,166.3,128.2,166.5z"/>
	<path class="st4" d="M128.2,168c-0.4,0.2-0.8,0.4-1.7,0.4c-0.8,0-1.3-0.2-1.7-0.4c-0.5-0.2-1-0.4-1.9-0.4c-0.3,0-0.5,0-0.7,0.1v0.1
		v0.5c0.2,0,0.4-0.1,0.7-0.1c0.8,0,1.3,0.2,1.7,0.4c0.5,0.2,1,0.4,1.9,0.4s1.4-0.2,1.9-0.4c0.4-0.2,0.8-0.4,1.7-0.4
		c0.6,0,1,0.1,1.3,0.2v-0.6c-0.3-0.1-0.7-0.2-1.3-0.2C129.1,167.6,128.6,167.8,128.2,168z"/>
	<path class="st4" d="M128.2,169.5c-0.4,0.2-0.8,0.4-1.7,0.4c-0.8,0-1.3-0.2-1.7-0.4c-0.5-0.2-1-0.4-1.9-0.4c-0.3,0-0.5,0-0.7,0.1
		v0.6c0.2,0,0.4-0.1,0.7-0.1c0.8,0,1.3,0.2,1.7,0.4c0.5,0.2,1,0.4,1.9,0.4s1.4-0.2,1.9-0.4c0.4-0.2,0.8-0.4,1.7-0.4
		c0.6,0,1,0.1,1.3,0.2v-0.6c-0.3-0.1-0.7-0.2-1.3-0.2C129.1,169.1,128.6,169.3,128.2,169.5z"/>
	<path class="st4" d="M128.2,171c-0.4,0.2-0.8,0.4-1.7,0.4c-0.8,0-1.3-0.2-1.7-0.4c-0.5-0.2-1-0.4-1.9-0.4c-0.3,0-0.5,0-0.7,0.1v0.4
		l0.1,0.1c0.2,0,0.4,0,0.6,0c0.8,0,1.3,0.2,1.7,0.4c0.5,0.2,1,0.4,1.9,0.4s1.4-0.2,1.9-0.4c0.4-0.2,0.8-0.4,1.7-0.4
		c0.5,0,0.8,0.1,1.1,0.1l0.2-0.2v-0.3c-0.3-0.1-0.7-0.2-1.3-0.2C129.1,170.6,128.6,170.8,128.2,171z"/>
	<path class="st4" d="M128.2,172.5c-0.4,0.2-0.8,0.4-1.7,0.4c-0.8,0-1.3-0.2-1.7-0.4c-0.4-0.2-0.9-0.4-1.8-0.4l0.6,0.6
		c0.4,0.1,0.7,0.2,1,0.3c0.5,0.2,1,0.4,1.9,0.4s1.4-0.2,1.9-0.4c0.4-0.2,0.8-0.3,1.6-0.3l0.5-0.6c-0.1,0-0.3,0-0.4,0
		C129.1,172.1,128.6,172.3,128.2,172.5z"/>
	<path class="st4" d="M129,173.8l0.1-0.2c-0.2,0-0.4,0.1-0.6,0.2H129z"/>
	<polygon class="st1" points="131.4,48.8 131.4,52.1 129,54.9 126.9,54.9 126.7,54.9 124.6,54.9 122.2,52.1 122.2,48.8 122.2,48.7 
		122.2,45.3 124.6,42.6 126.7,42.6 126.9,42.6 129,42.6 131.4,45.3 131.4,48.7 	"/>
	<path class="st3" d="M128.4,48.2c-0.5,0.2-1,0.4-1.9,0.4s-1.4-0.2-1.9-0.4c-0.4-0.2-0.8-0.4-1.7-0.4c-0.3,0-0.5,0-0.7,0.1v0.9l0,0
		c0.2,0,0.5-0.1,0.7-0.1c1,0,1.4,0.2,1.9,0.4c0.4,0.2,0.8,0.4,1.7,0.4c0.8,0,1.3-0.2,1.7-0.4c0.5-0.2,1-0.4,1.9-0.4
		c0.6,0,1,0.1,1.3,0.2l0,0v-0.1v-0.7c-0.3-0.1-0.7-0.2-1.3-0.2C129.2,47.8,128.8,48,128.4,48.2z"/>
	<path class="st3" d="M128.4,45.2c-0.5,0.2-1,0.4-1.9,0.4s-1.4-0.2-1.9-0.4c-0.4-0.2-0.8-0.4-1.7-0.4c-0.1,0-0.2,0-0.2,0l-0.5,0.6
		v0.4c0.2,0,0.5-0.1,0.7-0.1c1,0,1.4,0.2,1.9,0.4c0.4,0.2,0.8,0.4,1.7,0.4c0.8,0,1.3-0.2,1.7-0.4c0.5-0.2,1-0.4,1.9-0.4
		c0.6,0,1,0.1,1.3,0.2v-0.5l-0.4-0.5c-0.2-0.1-0.5-0.1-0.9-0.1C129.2,44.8,128.8,45,128.4,45.2z"/>
	<path class="st3" d="M126.5,44.1c-1,0-1.4-0.2-1.9-0.4c-0.2-0.1-0.4-0.2-0.7-0.2l-0.7,0.8c0.8,0,1.2,0.2,1.6,0.4s0.8,0.4,1.7,0.4
		c0.8,0,1.3-0.2,1.7-0.4c0.5-0.2,1-0.4,1.9-0.4c0.1,0,0.2,0,0.3,0l-0.8-0.9c-0.5,0.1-0.9,0.2-1.2,0.3
		C127.9,43.9,127.4,44.1,126.5,44.1z"/>
	<path class="st3" d="M128.4,46.7c-0.5,0.2-1,0.4-1.9,0.4s-1.4-0.2-1.9-0.4c-0.4-0.2-0.8-0.4-1.7-0.4c-0.3,0-0.5,0-0.7,0.1v0.9
		c0.2,0,0.5-0.1,0.7-0.1c1,0,1.4,0.2,1.9,0.4c0.4,0.2,0.8,0.4,1.7,0.4c0.8,0,1.3-0.2,1.7-0.4c0.5-0.2,1-0.4,1.9-0.4
		c0.6,0,1,0.1,1.3,0.2v-0.9c-0.3-0.1-0.7-0.2-1.3-0.2C129.2,46.3,128.8,46.5,128.4,46.7z"/>
	<path class="st3" d="M126.5,43.5c0.8,0,1.3-0.2,1.7-0.4c0.3-0.1,0.6-0.2,1-0.3l-0.1-0.1H127h-0.3h-2.1l-0.2,0.3
		c0.2,0.1,0.3,0.1,0.5,0.2C125.2,43.3,125.6,43.5,126.5,43.5z"/>
	<path class="st3" d="M128.4,52.7c-0.5,0.2-1,0.4-1.9,0.4s-1.4-0.2-1.9-0.4c-0.4-0.2-0.8-0.4-1.7-0.4c-0.2,0-0.4,0-0.6,0l0.8,0.9
		c0.9,0,1.3,0.2,1.8,0.4c0.4,0.2,0.8,0.4,1.7,0.4c0.8,0,1.3-0.2,1.7-0.4c0.5-0.2,1-0.4,1.9-0.4c0.2,0,0.3,0,0.4,0l0.7-0.8
		c-0.3-0.1-0.6-0.1-1.1-0.1C129.2,52.3,128.8,52.5,128.4,52.7z"/>
	<path class="st3" d="M128.4,51.2c-0.5,0.2-1,0.4-1.9,0.4s-1.4-0.2-1.9-0.4c-0.4-0.2-0.8-0.4-1.7-0.4c-0.3,0-0.5,0-0.7,0.1v0.9
		c0.2,0,0.5-0.1,0.7-0.1c1,0,1.4,0.2,1.9,0.4c0.4,0.2,0.8,0.4,1.7,0.4c0.8,0,1.3-0.2,1.7-0.4c0.5-0.2,1-0.4,1.9-0.4
		c0.6,0,1,0.1,1.3,0.2V51c-0.3-0.1-0.7-0.2-1.3-0.2C129.2,50.8,128.8,51,128.4,51.2z"/>
	<path class="st3" d="M128.4,49.7c-0.5,0.2-1,0.4-1.9,0.4s-1.4-0.2-1.9-0.4c-0.4-0.2-0.8-0.4-1.7-0.4c-0.3,0-0.5,0-0.7,0.1v0.9
		c0.2,0,0.5-0.1,0.7-0.1c1,0,1.4,0.2,1.9,0.4c0.4,0.2,0.8,0.4,1.7,0.4c0.8,0,1.3-0.2,1.7-0.4c0.5-0.2,1-0.4,1.9-0.4
		c0.6,0,1,0.1,1.3,0.2v-0.9c-0.3-0.1-0.7-0.2-1.3-0.2C129.2,49.3,128.8,49.5,128.4,49.7z"/>
	<path class="st3" d="M126.5,54.6c-1,0-1.4-0.2-1.9-0.4c-0.3-0.1-0.6-0.2-1-0.3l1,1.1h2.1h0.3h1.6c0.2-0.1,0.4-0.1,0.6-0.2l0.9-1
		c-0.8,0-1.2,0.2-1.6,0.3C127.9,54.4,127.4,54.6,126.5,54.6z"/>
	<path class="st4" d="M128.2,43.1c-0.4,0.2-0.8,0.4-1.7,0.4c-0.8,0-1.3-0.2-1.7-0.4c-0.2-0.1-0.3-0.1-0.5-0.2l-0.4,0.5
		c0.3,0.1,0.5,0.2,0.7,0.2c0.5,0.2,1,0.4,1.9,0.4s1.4-0.2,1.9-0.4c0.3-0.1,0.7-0.3,1.2-0.3l-0.5-0.5C128.7,42.9,128.4,43,128.2,43.1
		z"/>
	<path class="st4" d="M128.2,44.6c-0.4,0.2-0.8,0.4-1.7,0.4c-0.8,0-1.3-0.2-1.7-0.4c-0.4-0.2-0.9-0.3-1.6-0.4l-0.5,0.6
		c0.1,0,0.1,0,0.2,0c0.8,0,1.3,0.2,1.7,0.4c0.5,0.2,1,0.4,1.9,0.4s1.4-0.2,1.9-0.4c0.4-0.2,0.8-0.4,1.7-0.4c0.4,0,0.6,0,0.9,0.1
		l-0.6-0.7c-0.1,0-0.2,0-0.3,0C129.1,44.2,128.6,44.4,128.2,44.6z"/>
	<path class="st4" d="M128.2,46.1c-0.4,0.2-0.8,0.4-1.7,0.4c-0.8,0-1.3-0.2-1.7-0.4c-0.5-0.2-1-0.4-1.9-0.4c-0.3,0-0.5,0-0.7,0.1
		v0.6c0.2,0,0.4-0.1,0.7-0.1c0.8,0,1.3,0.2,1.7,0.4c0.5,0.2,1,0.4,1.9,0.4s1.4-0.2,1.9-0.4c0.4-0.2,0.8-0.4,1.7-0.4
		c0.6,0,1,0.1,1.3,0.2v-0.6c-0.3-0.1-0.7-0.2-1.3-0.2C129.1,45.7,128.6,45.9,128.2,46.1z"/>
	<path class="st4" d="M128.2,47.6c-0.4,0.2-0.8,0.4-1.7,0.4c-0.8,0-1.3-0.2-1.7-0.4c-0.5-0.2-1-0.4-1.9-0.4c-0.3,0-0.5,0-0.7,0.1
		v0.6c0.2,0,0.4-0.1,0.7-0.1c0.8,0,1.3,0.2,1.7,0.4c0.5,0.2,1,0.4,1.9,0.4s1.4-0.2,1.9-0.4c0.4-0.2,0.8-0.4,1.7-0.4
		c0.6,0,1,0.1,1.3,0.2v-0.6c-0.3-0.1-0.7-0.2-1.3-0.2C129.1,47.2,128.6,47.4,128.2,47.6z"/>
	<path class="st4" d="M128.2,49.1c-0.4,0.2-0.8,0.4-1.7,0.4c-0.8,0-1.3-0.2-1.7-0.4c-0.5-0.2-1-0.4-1.9-0.4c-0.3,0-0.5,0-0.7,0.1
		v0.1v0.5c0.2,0,0.4-0.1,0.7-0.1c0.8,0,1.3,0.2,1.7,0.4c0.5,0.2,1,0.4,1.9,0.4s1.4-0.2,1.9-0.4c0.4-0.2,0.8-0.4,1.7-0.4
		c0.6,0,1,0.1,1.3,0.2v-0.6c-0.3-0.1-0.7-0.2-1.3-0.2C129.1,48.7,128.6,48.9,128.2,49.1z"/>
	<path class="st4" d="M128.2,50.6c-0.4,0.2-0.8,0.4-1.7,0.4c-0.8,0-1.3-0.2-1.7-0.4c-0.5-0.2-1-0.4-1.9-0.4c-0.3,0-0.5,0-0.7,0.1
		v0.6c0.2,0,0.4-0.1,0.7-0.1c0.8,0,1.3,0.2,1.7,0.4c0.5,0.2,1,0.4,1.9,0.4s1.4-0.2,1.9-0.4c0.4-0.2,0.8-0.4,1.7-0.4
		c0.6,0,1,0.1,1.3,0.2v-0.6c-0.3-0.1-0.7-0.2-1.3-0.2C129.1,50.2,128.6,50.4,128.2,50.6z"/>
	<path class="st4" d="M128.2,52.1c-0.4,0.2-0.8,0.4-1.7,0.4c-0.8,0-1.3-0.2-1.7-0.4c-0.5-0.2-1-0.4-1.9-0.4c-0.3,0-0.5,0-0.7,0.1
		v0.4l0.1,0.1c0.2,0,0.4,0,0.6,0c0.8,0,1.3,0.2,1.7,0.4c0.5,0.2,1,0.4,1.9,0.4s1.4-0.2,1.9-0.4c0.4-0.2,0.8-0.4,1.7-0.4
		c0.5,0,0.8,0.1,1.1,0.1l0.2-0.2v-0.3c-0.3-0.1-0.7-0.2-1.3-0.2C129.1,51.7,128.6,51.9,128.2,52.1z"/>
	<path class="st4" d="M128.2,53.6c-0.4,0.2-0.8,0.4-1.7,0.4c-0.8,0-1.3-0.2-1.7-0.4c-0.4-0.2-0.9-0.4-1.8-0.4l0.6,0.7
		c0.4,0.1,0.7,0.2,1,0.3c0.5,0.2,1,0.4,1.9,0.4s1.4-0.2,1.9-0.4c0.4-0.2,0.8-0.3,1.6-0.3l0.5-0.6c-0.1,0-0.3,0-0.4,0
		C129.1,53.2,128.6,53.4,128.2,53.6z"/>
	<path class="st4" d="M129,55l0.1-0.2c-0.2,0-0.4,0.1-0.6,0.2H129z"/>
	<polygon class="st1" points="25.8,48.8 25.8,52.1 23.4,54.9 21.3,54.9 21,54.9 18.9,54.9 16.5,52.1 16.5,48.8 16.5,48.7 16.5,45.3 
		18.9,42.6 21,42.6 21.3,42.6 23.4,42.6 25.8,45.3 25.8,48.7 	"/>
	<path class="st3" d="M22.7,48.2c-0.5,0.2-1,0.4-1.9,0.4c-1,0-1.4-0.2-1.9-0.4c-0.4-0.2-0.8-0.4-1.7-0.4c-0.3,0-0.5,0-0.7,0.1v0.9
		l0,0c0.2,0,0.5-0.1,0.7-0.1c1,0,1.4,0.2,1.9,0.4c0.4,0.2,0.8,0.4,1.7,0.4s1.3-0.2,1.7-0.4c0.5-0.2,1-0.4,1.9-0.4
		c0.6,0,1,0.1,1.3,0.2l0,0v-0.1v-0.7c-0.3-0.1-0.7-0.2-1.3-0.2C23.6,47.8,23.2,48,22.7,48.2z"/>
	<path class="st3" d="M22.7,45.2c-0.5,0.2-1,0.4-1.9,0.4c-1,0-1.4-0.2-1.9-0.4c-0.4-0.2-0.8-0.4-1.7-0.4c-0.1,0-0.2,0-0.2,0
		l-0.5,0.6v0.4c0.2,0,0.5-0.1,0.7-0.1c1,0,1.4,0.2,1.9,0.4c0.4,0.2,0.8,0.4,1.7,0.4s1.3-0.2,1.7-0.4c0.5-0.2,1-0.4,1.9-0.4
		c0.6,0,1,0.1,1.3,0.2v-0.5l-0.4-0.5c-0.2-0.1-0.5-0.1-0.9-0.1C23.6,44.8,23.2,45,22.7,45.2z"/>
	<path class="st3" d="M20.8,44.1c-1,0-1.4-0.2-1.9-0.4c-0.2-0.1-0.4-0.2-0.7-0.2l-0.7,0.8c0.8,0,1.2,0.2,1.6,0.4s0.8,0.4,1.7,0.4
		s1.3-0.2,1.7-0.4c0.5-0.2,1-0.4,1.9-0.4c0.1,0,0.2,0,0.3,0l-0.8-0.9c-0.5,0.1-0.9,0.2-1.2,0.3C22.3,43.9,21.8,44.1,20.8,44.1z"/>
	<path class="st3" d="M22.7,46.7c-0.5,0.2-1,0.4-1.9,0.4c-1,0-1.4-0.2-1.9-0.4c-0.4-0.2-0.8-0.4-1.7-0.4c-0.3,0-0.5,0-0.7,0.1v0.9
		c0.2,0,0.5-0.1,0.7-0.1c1,0,1.4,0.2,1.9,0.4c0.4,0.2,0.8,0.4,1.7,0.4s1.3-0.2,1.7-0.4c0.5-0.2,1-0.4,1.9-0.4c0.6,0,1,0.1,1.3,0.2
		v-0.9c-0.3-0.1-0.7-0.2-1.3-0.2C23.6,46.3,23.2,46.5,22.7,46.7z"/>
	<path class="st3" d="M20.8,43.5c0.8,0,1.3-0.2,1.7-0.4c0.3-0.1,0.6-0.2,1-0.3l-0.1-0.1h-2.1H21h-2.1L18.7,43
		c0.2,0.1,0.3,0.1,0.5,0.2C19.6,43.3,20,43.5,20.8,43.5z"/>
	<path class="st3" d="M22.7,52.7c-0.5,0.2-1,0.4-1.9,0.4c-1,0-1.4-0.2-1.9-0.4c-0.4-0.2-0.8-0.4-1.7-0.4c-0.2,0-0.4,0-0.6,0l0.8,0.9
		c0.9,0,1.3,0.2,1.8,0.4c0.4,0.2,0.8,0.4,1.7,0.4s1.3-0.2,1.7-0.4c0.5-0.2,1-0.4,1.9-0.4c0.2,0,0.3,0,0.4,0l0.7-0.8
		c-0.3-0.1-0.6-0.1-1.1-0.1C23.6,52.3,23.2,52.5,22.7,52.7z"/>
	<path class="st3" d="M22.7,51.2c-0.5,0.2-1,0.4-1.9,0.4c-1,0-1.4-0.2-1.9-0.4c-0.4-0.2-0.8-0.4-1.7-0.4c-0.3,0-0.5,0-0.7,0.1v0.9
		c0.2,0,0.5-0.1,0.7-0.1c1,0,1.4,0.2,1.9,0.4c0.4,0.2,0.8,0.4,1.7,0.4s1.3-0.2,1.7-0.4c0.5-0.2,1-0.4,1.9-0.4c0.6,0,1,0.1,1.3,0.2
		V51c-0.3-0.1-0.7-0.2-1.3-0.2C23.6,50.8,23.2,51,22.7,51.2z"/>
	<path class="st3" d="M22.7,49.7c-0.5,0.2-1,0.4-1.9,0.4c-1,0-1.4-0.2-1.9-0.4c-0.4-0.2-0.8-0.4-1.7-0.4c-0.3,0-0.5,0-0.7,0.1v0.9
		c0.2,0,0.5-0.1,0.7-0.1c1,0,1.4,0.2,1.9,0.4c0.4,0.2,0.8,0.4,1.7,0.4s1.3-0.2,1.7-0.4c0.5-0.2,1-0.4,1.9-0.4c0.6,0,1,0.1,1.3,0.2
		v-0.9c-0.3-0.1-0.7-0.2-1.3-0.2C23.6,49.3,23.2,49.5,22.7,49.7z"/>
	<path class="st3" d="M20.8,54.6c-1,0-1.4-0.2-1.9-0.4c-0.3-0.1-0.6-0.2-1-0.3l1,1.1H21h0.3h1.6c0.2-0.1,0.4-0.1,0.6-0.2l0.9-1
		c-0.8,0-1.2,0.2-1.6,0.3C22.3,54.4,21.8,54.6,20.8,54.6z"/>
	<path class="st4" d="M22.5,43.1c-0.4,0.2-0.8,0.4-1.7,0.4s-1.3-0.2-1.7-0.4c-0.2-0.1-0.3-0.1-0.5-0.2l-0.4,0.5
		c0.3,0.1,0.5,0.2,0.7,0.2c0.5,0.2,1,0.4,1.9,0.4c1,0,1.4-0.2,1.9-0.4c0.3-0.1,0.7-0.3,1.2-0.3l-0.5-0.5
		C23.1,42.9,22.8,43,22.5,43.1z"/>
	<path class="st4" d="M22.5,44.6c-0.4,0.2-0.8,0.4-1.7,0.4s-1.3-0.2-1.7-0.4c-0.4-0.2-0.9-0.3-1.6-0.4L17,44.8c0.1,0,0.1,0,0.2,0
		c0.8,0,1.3,0.2,1.7,0.4c0.5,0.2,1,0.4,1.9,0.4c1,0,1.4-0.2,1.9-0.4c0.4-0.2,0.8-0.4,1.7-0.4c0.4,0,0.6,0,0.9,0.1l-0.6-0.7
		c-0.1,0-0.2,0-0.3,0C23.5,44.2,23,44.4,22.5,44.6z"/>
	<path class="st4" d="M22.5,46.1c-0.4,0.2-0.8,0.4-1.7,0.4s-1.3-0.2-1.7-0.4c-0.5-0.2-1-0.4-1.9-0.4c-0.3,0-0.5,0-0.7,0.1v0.6
		c0.2,0,0.4-0.1,0.7-0.1c0.8,0,1.3,0.2,1.7,0.4c0.5,0.2,1,0.4,1.9,0.4c1,0,1.4-0.2,1.9-0.4c0.4-0.2,0.8-0.4,1.7-0.4
		c0.6,0,1,0.1,1.3,0.2v-0.6c-0.3-0.1-0.7-0.2-1.3-0.2C23.5,45.7,23,45.9,22.5,46.1z"/>
	<path class="st4" d="M22.5,47.6c-0.4,0.2-0.8,0.4-1.7,0.4s-1.3-0.2-1.7-0.4c-0.5-0.2-1-0.4-1.9-0.4c-0.3,0-0.5,0-0.7,0.1v0.6
		c0.2,0,0.4-0.1,0.7-0.1c0.8,0,1.3,0.2,1.7,0.4c0.5,0.2,1,0.4,1.9,0.4c1,0,1.4-0.2,1.9-0.4c0.4-0.2,0.8-0.4,1.7-0.4
		c0.6,0,1,0.1,1.3,0.2v-0.6c-0.3-0.1-0.7-0.2-1.3-0.2C23.5,47.2,23,47.4,22.5,47.6z"/>
	<path class="st4" d="M22.5,49.1c-0.4,0.2-0.8,0.4-1.7,0.4s-1.3-0.2-1.7-0.4c-0.5-0.2-1-0.4-1.9-0.4c-0.3,0-0.5,0-0.7,0.1v0.1v0.5
		c0.2,0,0.4-0.1,0.7-0.1c0.8,0,1.3,0.2,1.7,0.4c0.5,0.2,1,0.4,1.9,0.4c1,0,1.4-0.2,1.9-0.4c0.4-0.2,0.8-0.4,1.7-0.4
		c0.6,0,1,0.1,1.3,0.2v-0.6c-0.3-0.1-0.7-0.2-1.3-0.2C23.5,48.7,23,48.9,22.5,49.1z"/>
	<path class="st4" d="M22.5,50.6c-0.4,0.2-0.8,0.4-1.7,0.4s-1.3-0.2-1.7-0.4c-0.5-0.2-1-0.4-1.9-0.4c-0.3,0-0.5,0-0.7,0.1v0.6
		c0.2,0,0.4-0.1,0.7-0.1c0.8,0,1.3,0.2,1.7,0.4c0.5,0.2,1,0.4,1.9,0.4c1,0,1.4-0.2,1.9-0.4c0.4-0.2,0.8-0.4,1.7-0.4
		c0.6,0,1,0.1,1.3,0.2v-0.6c-0.3-0.1-0.7-0.2-1.3-0.2C23.5,50.2,23,50.4,22.5,50.6z"/>
	<path class="st4" d="M22.5,52.1c-0.4,0.2-0.8,0.4-1.7,0.4s-1.3-0.2-1.7-0.4c-0.5-0.2-1-0.4-1.9-0.4c-0.3,0-0.5,0-0.7,0.1v0.4
		l0.1,0.1c0.2,0,0.4,0,0.6,0c0.8,0,1.3,0.2,1.7,0.4c0.5,0.2,1,0.4,1.9,0.4c1,0,1.4-0.2,1.9-0.4c0.4-0.2,0.8-0.4,1.7-0.4
		c0.5,0,0.8,0.1,1.1,0.1l0.2-0.2v-0.3c-0.3-0.1-0.7-0.2-1.3-0.2C23.5,51.7,23,51.9,22.5,52.1z"/>
	<path class="st4" d="M22.5,53.6c-0.4,0.2-0.8,0.4-1.7,0.4s-1.3-0.2-1.7-0.4c-0.4-0.2-0.9-0.4-1.8-0.4l0.6,0.7
		c0.4,0.1,0.7,0.2,1,0.3c0.5,0.2,1,0.4,1.9,0.4c1,0,1.4-0.2,1.9-0.4c0.4-0.2,0.8-0.3,1.6-0.3l0.5-0.6c-0.1,0-0.3,0-0.4,0
		C23.5,53.2,23,53.4,22.5,53.6z"/>
	<path class="st4" d="M23.3,55l0.1-0.2c-0.2,0-0.4,0.1-0.6,0.2H23.3z"/>
	<polygon class="st1" points="25.8,205.1 25.8,208.4 23.4,211.1 21.3,211.1 21,211.1 18.9,211.1 16.5,208.4 16.5,205.1 16.5,204.9 
		16.5,201.6 18.9,198.8 21,198.8 21.3,198.8 23.4,198.8 25.8,201.6 25.8,204.9 	"/>
	<path class="st3" d="M22.7,204.4c-0.5,0.2-1,0.4-1.9,0.4c-1,0-1.4-0.2-1.9-0.4c-0.4-0.2-0.8-0.4-1.7-0.4c-0.3,0-0.5,0-0.7,0.1v0.9
		l0,0c0.2,0,0.5-0.1,0.7-0.1c1,0,1.4,0.2,1.9,0.4c0.4,0.2,0.8,0.4,1.7,0.4s1.3-0.2,1.7-0.4c0.5-0.2,1-0.4,1.9-0.4
		c0.6,0,1,0.1,1.3,0.2l0,0V205v-0.7c-0.3-0.1-0.7-0.2-1.3-0.2C23.6,204.1,23.2,204.3,22.7,204.4z"/>
	<path class="st3" d="M22.7,201.4c-0.5,0.2-1,0.4-1.9,0.4c-1,0-1.4-0.2-1.9-0.4c-0.4-0.2-0.8-0.4-1.7-0.4c-0.1,0-0.2,0-0.2,0
		l-0.5,0.6v0.4c0.2,0,0.5-0.1,0.7-0.1c1,0,1.4,0.2,1.9,0.4c0.4,0.2,0.8,0.4,1.7,0.4s1.3-0.2,1.7-0.4c0.5-0.2,1-0.4,1.9-0.4
		c0.6,0,1,0.1,1.3,0.2v-0.5l-0.4-0.5c-0.2-0.1-0.5-0.1-0.9-0.1C23.6,201.1,23.2,201.3,22.7,201.4z"/>
	<path class="st3" d="M20.8,200.3c-1,0-1.4-0.2-1.9-0.4c-0.2-0.1-0.4-0.2-0.7-0.2l-0.7,0.8c0.8,0,1.2,0.2,1.6,0.4s0.8,0.4,1.7,0.4
		s1.3-0.2,1.7-0.4c0.5-0.2,1-0.4,1.9-0.4c0.1,0,0.2,0,0.3,0l-0.8-0.9c-0.5,0.1-0.9,0.2-1.2,0.3C22.3,200.1,21.8,200.3,20.8,200.3z"
		/>
	<path class="st3" d="M22.7,202.9c-0.5,0.2-1,0.4-1.9,0.4c-1,0-1.4-0.2-1.9-0.4c-0.4-0.2-0.8-0.4-1.7-0.4c-0.3,0-0.5,0-0.7,0.1v0.9
		c0.2,0,0.5-0.1,0.7-0.1c1,0,1.4,0.2,1.9,0.4c0.4,0.2,0.8,0.4,1.7,0.4s1.3-0.2,1.7-0.4c0.5-0.2,1-0.4,1.9-0.4c0.6,0,1,0.1,1.3,0.2
		v-0.9c-0.3-0.1-0.7-0.2-1.3-0.2C23.6,202.6,23.2,202.8,22.7,202.9z"/>
	<path class="st3" d="M20.8,199.7c0.8,0,1.3-0.2,1.7-0.4c0.3-0.1,0.6-0.2,1-0.3l-0.1-0.1h-2.1H21h-2.1l-0.2,0.3
		c0.2,0.1,0.3,0.1,0.5,0.2C19.6,199.6,20,199.7,20.8,199.7z"/>
	<path class="st3" d="M22.7,208.9c-0.5,0.2-1,0.4-1.9,0.4c-1,0-1.4-0.2-1.9-0.4c-0.4-0.2-0.8-0.4-1.7-0.4c-0.2,0-0.4,0-0.6,0
		l0.8,0.9c0.9,0,1.3,0.2,1.8,0.4c0.4,0.2,0.8,0.4,1.7,0.4s1.3-0.2,1.7-0.4c0.5-0.2,1-0.4,1.9-0.4c0.2,0,0.3,0,0.4,0l0.7-0.8
		c-0.3-0.1-0.6-0.1-1.1-0.1C23.6,208.6,23.2,208.8,22.7,208.9z"/>
	<path class="st3" d="M22.7,207.4c-0.5,0.2-1,0.4-1.9,0.4c-1,0-1.4-0.2-1.9-0.4c-0.4-0.2-0.8-0.4-1.7-0.4c-0.3,0-0.5,0-0.7,0.1v0.9
		c0.2,0,0.5-0.1,0.7-0.1c1,0,1.4,0.2,1.9,0.4c0.4,0.2,0.8,0.4,1.7,0.4s1.3-0.2,1.7-0.4c0.5-0.2,1-0.4,1.9-0.4c0.6,0,1,0.1,1.3,0.2
		v-0.9c-0.3-0.1-0.7-0.2-1.3-0.2C23.6,207.1,23.2,207.3,22.7,207.4z"/>
	<path class="st3" d="M22.7,205.9c-0.5,0.2-1,0.4-1.9,0.4c-1,0-1.4-0.2-1.9-0.4c-0.4-0.2-0.8-0.4-1.7-0.4c-0.3,0-0.5,0-0.7,0.1v0.9
		c0.2,0,0.5-0.1,0.7-0.1c1,0,1.4,0.2,1.9,0.4c0.4,0.2,0.8,0.4,1.7,0.4s1.3-0.2,1.7-0.4c0.5-0.2,1-0.4,1.9-0.4c0.6,0,1,0.1,1.3,0.2
		v-0.9c-0.3-0.1-0.7-0.2-1.3-0.2C23.6,205.6,23.2,205.8,22.7,205.9z"/>
	<path class="st3" d="M20.8,210.9c-1,0-1.4-0.2-1.9-0.4c-0.3-0.1-0.6-0.2-1-0.3l1,1.1H21h0.3h1.6c0.2-0.1,0.4-0.1,0.6-0.2l0.9-1
		c-0.8,0-1.2,0.2-1.6,0.3C22.3,210.6,21.8,210.9,20.8,210.9z"/>
	<path class="st4" d="M22.5,199.4c-0.4,0.2-0.8,0.4-1.7,0.4s-1.3-0.2-1.7-0.4c-0.2-0.1-0.3-0.1-0.5-0.2l-0.4,0.5
		c0.3,0.1,0.5,0.2,0.7,0.2c0.5,0.2,1,0.4,1.9,0.4c1,0,1.4-0.2,1.9-0.4c0.3-0.1,0.7-0.3,1.2-0.3l-0.5-0.5
		C23.1,199.2,22.8,199.3,22.5,199.4z"/>
	<path class="st4" d="M22.5,200.9c-0.4,0.2-0.8,0.4-1.7,0.4s-1.3-0.2-1.7-0.4c-0.4-0.2-0.9-0.3-1.6-0.4l-0.5,0.6c0.1,0,0.1,0,0.2,0
		c0.8,0,1.3,0.2,1.7,0.4c0.5,0.2,1,0.4,1.9,0.4c1,0,1.4-0.2,1.9-0.4c0.4-0.2,0.8-0.4,1.7-0.4c0.4,0,0.6,0,0.9,0.1l-0.6-0.7
		c-0.1,0-0.2,0-0.3,0C23.4,200.5,23,200.7,22.5,200.9z"/>
	<path class="st4" d="M22.5,202.4c-0.4,0.2-0.8,0.4-1.7,0.4s-1.3-0.2-1.7-0.4c-0.5-0.2-1-0.4-1.9-0.4c-0.3,0-0.5,0-0.7,0.1v0.6
		c0.2,0,0.4-0.1,0.7-0.1c0.8,0,1.3,0.2,1.7,0.4c0.5,0.2,1,0.4,1.9,0.4c1,0,1.4-0.2,1.9-0.4c0.4-0.2,0.8-0.4,1.7-0.4
		c0.6,0,1,0.1,1.3,0.2v-0.6c-0.3-0.1-0.7-0.2-1.3-0.2C23.4,202,23,202.2,22.5,202.4z"/>
	<path class="st4" d="M22.5,203.9c-0.4,0.2-0.8,0.4-1.7,0.4s-1.3-0.2-1.7-0.4c-0.5-0.2-1-0.4-1.9-0.4c-0.3,0-0.5,0-0.7,0.1v0.6
		c0.2,0,0.4-0.1,0.7-0.1c0.8,0,1.3,0.2,1.7,0.4c0.5,0.2,1,0.4,1.9,0.4c1,0,1.4-0.2,1.9-0.4c0.4-0.2,0.8-0.4,1.7-0.4
		c0.6,0,1,0.1,1.3,0.2v-0.6c-0.3-0.1-0.7-0.2-1.3-0.2C23.4,203.5,23,203.7,22.5,203.9z"/>
	<path class="st4" d="M22.5,205.4c-0.4,0.2-0.8,0.4-1.7,0.4s-1.3-0.2-1.7-0.4c-0.5-0.2-1-0.4-1.9-0.4c-0.3,0-0.5,0-0.7,0.1v0.1v0.5
		c0.2,0,0.4-0.1,0.7-0.1c0.8,0,1.3,0.2,1.7,0.4c0.5,0.2,1,0.4,1.9,0.4c1,0,1.4-0.2,1.9-0.4c0.4-0.2,0.8-0.4,1.7-0.4
		c0.6,0,1,0.1,1.3,0.2v-0.6c-0.3-0.1-0.7-0.2-1.3-0.2C23.4,205,23,205.2,22.5,205.4z"/>
	<path class="st4" d="M22.5,206.9c-0.4,0.2-0.8,0.4-1.7,0.4s-1.3-0.2-1.7-0.4c-0.5-0.2-1-0.4-1.9-0.4c-0.3,0-0.5,0-0.7,0.1v0.6
		c0.2,0,0.4-0.1,0.7-0.1c0.8,0,1.3,0.2,1.7,0.4c0.5,0.2,1,0.4,1.9,0.4c1,0,1.4-0.2,1.9-0.4c0.4-0.2,0.8-0.4,1.7-0.4
		c0.6,0,1,0.1,1.3,0.2v-0.6c-0.3-0.1-0.7-0.2-1.3-0.2C23.4,206.5,23,206.7,22.5,206.9z"/>
	<path class="st4" d="M22.5,208.4c-0.4,0.2-0.8,0.4-1.7,0.4s-1.3-0.2-1.7-0.4c-0.5-0.2-1-0.4-1.9-0.4c-0.3,0-0.5,0-0.7,0.1v0.4
		l0.1,0.1c0.2,0,0.4,0,0.6,0c0.8,0,1.3,0.2,1.7,0.4c0.5,0.2,1,0.4,1.9,0.4c1,0,1.4-0.2,1.9-0.4c0.4-0.2,0.8-0.4,1.7-0.4
		c0.5,0,0.8,0.1,1.1,0.1l0.2-0.2v-0.3c-0.3-0.1-0.7-0.2-1.3-0.2C23.4,208,23,208.2,22.5,208.4z"/>
	<path class="st4" d="M22.5,209.9c-0.4,0.2-0.8,0.4-1.7,0.4s-1.3-0.2-1.7-0.4c-0.4-0.2-0.9-0.4-1.8-0.4l0.6,0.6
		c0.4,0.1,0.7,0.2,1,0.3c0.5,0.2,1,0.4,1.9,0.4c1,0,1.4-0.2,1.9-0.4c0.4-0.2,0.8-0.3,1.6-0.3l0.5-0.6c-0.1,0-0.3,0-0.4,0
		C23.4,209.5,23,209.7,22.5,209.9z"/>
	<path class="st4" d="M23.3,211.2l0.1-0.2c-0.2,0-0.4,0.1-0.6,0.2H23.3z"/>
	<path class="st5" d="M31.8,496c4.1-3.5,13.6-11.7,11.4-25.9c-0.9-5.7-4.2-10.7-9.2-13.7c-5.4-3.4-12.2-3.9-19.1-1.7
		c-12.4,4.1-13.1,18.1-13.1,22.1h7c0-2.5,0.3-12.8,8.2-15.4c6.3-2.1,10.7-0.6,13.3,1c3.2,2,5.4,5.2,5.9,8.8
		c1.4,9.1-3.5,14.7-8.9,19.4c1.4,1.7,2.8,3.6,4.2,5.6L31.8,496z"/>
	<path class="st5" d="M39.8,508.7L39.8,508.7c0-0.1-0.1-0.1-0.1-0.2s-0.1-0.1-0.1-0.2l0,0c-2.6-4.4-5.5-8.8-7.9-12.2
		c-1.4-2-2.8-3.9-4.2-5.6c-2.2-2.8-4.4-5.2-6.6-7.3l-4.9,5c2.1,2,4.1,4.3,6.2,6.9c1.4,1.7,2.8,3.6,4.2,5.6c2.3,3.2,4.6,6.8,7.1,11
		c4,6.6,1.7,12.2-1.5,14.9c-3.5,3-9.4,4-14.6-0.5c-2.3-2-3.5-4.2-3.5-6.6c0-6.1,6.8-13.4,12.5-18.7c-1.4-2-2.8-3.9-4.2-5.6
		c-7.1,6.4-15.3,15.2-15.3,24.4c0,4.5,2,8.5,5.9,11.9c3.7,3.1,8.1,4.7,12.4,4.7c4,0,8-1.4,11.3-4.2
		C42.1,527.2,45.2,518.2,39.8,508.7z"/>
	<path class="st6" d="M31.3,496.4l0.5-0.4c-1.4-2-2.8-3.9-4.1-5.7c-0.1,0,0.1,0,0,0l-0.9,0.8c-1.4,1.2-3.2,2.8-4.9,4.3
		c1.4,1.7,2.8,3.6,4.2,5.7C27.9,499.3,29.9,497.6,31.3,496.4z"/>
	<path class="st5" d="M22.1,495.1l5.3-4.6c0,0,0.5-0.4,1.4-1.3"/>
	<path class="st5" d="M25.3,501.8c0,0,0.5-0.5,1.1-1c0.6-0.6,5.3-4.7,5.3-4.7S33,495,34,494"/>
	<polyline class="st1" points="81.1,202.3 94.9,202.2 94.9,220.3 	"/>
	<line class="st1" x1="81.1" y1="197.4" x2="86.6" y2="197.4"/>
	<polyline class="st1" points="119.4,202.4 119.3,188.6 127.6,188.6 	"/>
	<polyline class="st1" points="114.5,202.4 114.5,188.6 105.2,188.6 105.2,185.9 	"/>
	<rect x="86.6" y="175.2" class="st1" width="8.2" height="22.2"/>
	<line class="st1" x1="105.2" y1="175.2" x2="105.2" y2="110.6"/>
	<path class="st2" d="M128.7,669.3v47.8c0,6,5.2,6.2,5.2,0.2v-35.8c0-7.8-8.4-19.5-21-19.5h-0.2c-8.8,0-19,5.1-19,19.5v28.4
		c0,8.9,0.1,12.6,4.6,16.2c1.9,1.5,4.6,2.8,7.4,4.2c7.8,3.8,21.6,9.5,21.6,25.4c0,5.5-4.5,15.7-21.1,22.6
		c-8.9,3.7-20.4,5.9-31.6,5.9s-22.7-2.1-31.6-5.9c-16.6-6.9-21.1-17.2-21.1-22.6c0-15.9,13.8-21.6,21.6-25.4
		c2.8-1.4,5.5-2.7,7.5-4.2c4.5-3.6,4.7-7.3,4.6-16.2v-1.5v-47.5c0-6.1,0-11.9,2.5-18.2c2.4-5.9,7.9-13.7,20.6-13.7
		c4.8,0,11.9,0,19.3-0.1c8.2,0,16.7-0.1,23.2-0.1c3.3,0,5.9-0.8,7.4-2.3c1.5-1.4,0.4-6.3-4.8-3.8c-8.4,4.1-14.6,3.8-42.2,3.8
		c-6.9,0-10.8,1.5-14,2.7c-6.7,2.4-14.5,4.7-28.5-4c-5.8-3.6-4.8-3.2-8.8-5.2c-3.5-1.8-5.5,0.7-0.8,3.5c8.6,5.1,9.9,11.1,9.9,18.8
		c0,4.4-4,12.8-11.8,18.2c-9.5,6.8-11.3,9.3-11.3,26.2v30.8c0,5.7,5.2,4.7,5.2-0.2V666 M112.7,661.8v57.9c0,12,9.2,19.2,18.2,19.2
		c4.2,0,8.8-1.8,12.3-4.8c4.3-3.7,6.7-9,6.7-14.9v-37.8c0-8.2-3.9-17.2-10.4-23.9c-7.2-7.5-15.6-11.6-25.6-11.6h-2.2
		c-20.3,0-34,14.9-34,35.5v28.3c0,9.5-0.1,19.3,10.7,27.8c3.3,2.6,6.9,4.4,10.4,6.1c8,3.9,9.5,5.6,9.5,11c0,3.6-2.5,6.5-8.2,8.9
		c-6.9,2.9-16.4,4.6-25.4,4.6s-18.5-1.7-25.4-4.6c-5.7-2.4-8.2-4.4-8.2-8.9c0-5.4,1.6-7.1,9.5-11c3.5-1.7,7.1-3.4,10.4-6.1
		c10.8-8.5,10.7-18.3,10.7-27.8v-49c0-16.2,13.1-16.8,18.2-16.8c4.9,0,0.9,0,8.3-0.1c8.1,0,16.7-0.1,23.2-0.1
		c9.5,0,16.4-2.7,19.6-5.8c4.2-4.1,7.5-10.7,7.5-16.6c0-12-10-22.8-22.1-22.8c-6.2,0-14.8,4.9-18,6.9c-7.5,4.7-14.3,5-30.5,5
		c-4.9,0-9.6,0.1-12.8,1.2c-5.5,2-8.2,3.8-15.8-0.8c-11.7-7.2-31.7-18.3-42.8-3.2c-4.1,5.6-10.8,19.6,5.5,32.2
		c1.4,1.1,4.1,2.8,4.2,4.9c0,1.6-0.9,3.3-2.7,4.7L13,650C0.2,660.6,0.5,670.5,0.5,689.4v29.8c0,12.3,9.2,19.7,18,19.7
		c7.7,0,19.2-6.1,19.2-19.2v-70.3"/>
	<path class="st7" d="M48.1,177.7h1c1,0,1.7,0.5,1.7,1.8v0.1c0,0.7-0.3,1.2-0.7,1.5l0.8,2.3h-1l-0.6-2h-0.2v2h-1V177.7L48.1,177.7z
		 M49.1,180.5c0.4,0,0.7-0.2,0.7-0.9v-0.1c0-0.7-0.3-0.9-0.8-0.9l0,0L49.1,180.5L49.1,180.5z M51.3,177.7h1c1,0,1.7,0.5,1.7,1.8v0.1
		c0,0.7-0.3,1.2-0.7,1.5l0.8,2.3h-1l-0.6-2h-0.2v2h-1V177.7L51.3,177.7z M52.3,180.5c0.4,0,0.7-0.2,0.7-0.9v-0.1
		c0-0.7-0.3-0.9-0.8-0.9l0,0L52.3,180.5L52.3,180.5z"/>
	<path class="st7" d="M64.4,177.8h1c1,0,1.7,0.5,1.7,1.8v0.1c0,0.7-0.3,1.2-0.7,1.5l0.8,2.3h-1l-0.6-2h-0.2v2h-1L64.4,177.8
		L64.4,177.8z M65.5,180.5c0.4,0,0.7-0.2,0.7-0.9v-0.1c0-0.7-0.3-0.9-0.8-0.9l0,0L65.5,180.5L65.5,180.5z M67.6,177.8h1
		c1,0,1.7,0.5,1.7,1.8v0.1c0,0.7-0.3,1.2-0.7,1.5l0.8,2.3h-1l-0.6-2h-0.2v2h-1C67.6,183.5,67.6,177.8,67.6,177.8z M68.7,180.5
		c0.4,0,0.7-0.2,0.7-0.9v-0.1c0-0.7-0.3-0.9-0.8-0.9l0,0L68.7,180.5L68.7,180.5z"/>
	<path class="st7" d="M77.7,177.8h1c1,0,1.7,0.5,1.7,1.8v0.1c0,0.7-0.3,1.2-0.7,1.5l0.8,2.3h-1l-0.6-2h-0.2v2h-1
		C77.7,183.4,77.7,177.8,77.7,177.8z M78.7,180.5c0.4,0,0.7-0.2,0.7-0.9v-0.1c0-0.7-0.3-0.9-0.8-0.9l0,0L78.7,180.5L78.7,180.5z
		 M80.8,177.8h1c1,0,1.7,0.5,1.7,1.8v0.1c0,0.7-0.3,1.2-0.7,1.5l0.8,2.3h-1l-0.6-2h-0.2v2h-1C80.8,183.4,80.8,177.8,80.8,177.8z
		 M81.9,180.5c0.4,0,0.7-0.2,0.7-0.9v-0.1c0-0.7-0.3-0.9-0.8-0.9l0,0L81.9,180.5L81.9,180.5z"/>
	<path class="st7" d="M63.7,211.9h0.8c0.9,0,1.8,0.4,1.8,1.4l0,0c0,0.7-0.4,1.1-0.8,1.3c0.5,0.2,0.9,0.5,0.9,1.2v0.1
		c0,1-0.8,1.6-1.9,1.6h-0.9C63.7,217.5,63.7,211.9,63.7,211.9z M64.7,214.2c0.4,0,0.7-0.2,0.7-0.7l0,0c0-0.5-0.3-0.7-0.7-0.7l0,0
		V214.2L64.7,214.2z M64.7,216.6c0.4,0,0.8-0.3,0.8-0.7l0,0c0-0.5-0.3-0.7-0.8-0.7l0,0V216.6L64.7,216.6L64.7,216.6z M67.6,211.9h1
		l1.1,5.6h-1l-0.2-1.1h-0.9l-0.2,1.1h-0.9L67.6,211.9z M68.4,215.5l-0.3-1.8l-0.3,1.8H68.4z M70,211.9h1c1,0,1.7,0.5,1.7,1.8v0.1
		c0,0.7-0.3,1.2-0.7,1.5l0.8,2.3h-1l-0.6-2H71v2h-1V211.9z M71,214.7c0.4,0,0.7-0.2,0.7-0.9v-0.1c0-0.7-0.3-0.9-0.8-0.9l0,0
		L71,214.7L71,214.7z"/>
	<path class="st7" d="M27.6,46.3h1v2.3h0.8v-2.3h1v5.6h-1v-2.4h-0.8v2.4h-1V46.3z M30.9,49.2v-0.3c0-1.8,0.6-2.7,1.5-2.7
		s1.5,0.9,1.5,2.7v0.3c0,1.8-0.6,2.7-1.5,2.7S30.9,51.1,30.9,49.2z M32.9,49.2v-0.3c0-1.4-0.2-1.8-0.5-1.8s-0.5,0.4-0.5,1.8v0.3
		c0,1.4,0.2,1.8,0.5,1.8S32.9,50.7,32.9,49.2z M34.7,47.2H34v-0.9h2.4v0.9h-0.7v4.7h-1V47.2z M38.5,47.2h-0.7v-0.9h2.4v0.9h-0.7v4.7
		h-1V47.2L38.5,47.2z M40.6,50.2v-4h1v4.1c0,0.5,0.2,0.7,0.4,0.7s0.4-0.2,0.4-0.7v-4.1h1v4c0,1.2-0.6,1.7-1.4,1.7
		C41.2,51.9,40.6,51.4,40.6,50.2z M43.9,46.3h0.8c0.9,0,1.8,0.4,1.8,1.4l0,0c0,0.7-0.4,1.1-0.8,1.3c0.5,0.2,0.9,0.5,0.9,1.2v0.1
		c0,1-0.8,1.6-1.9,1.6h-0.9L43.9,46.3L43.9,46.3z M44.9,48.6c0.4,0,0.7-0.2,0.7-0.7l0,0c0-0.5-0.3-0.7-0.7-0.7l0,0V48.6L44.9,48.6z
		 M44.9,51c0.4,0,0.8-0.3,0.8-0.7l0,0c0-0.5-0.3-0.7-0.8-0.7l0,0V51L44.9,51L44.9,51z"/>
	<path class="st7" d="M101.3,46.3h1v2.3h0.8v-2.3h1v5.6h-1v-2.4h-0.8v2.4h-1V46.3z M104.6,49.2v-0.3c0-1.8,0.6-2.7,1.5-2.7
		s1.5,0.9,1.5,2.7v0.3c0,1.8-0.6,2.7-1.5,2.7S104.6,51.1,104.6,49.2z M106.6,49.2v-0.3c0-1.4-0.2-1.8-0.5-1.8s-0.5,0.4-0.5,1.8v0.3
		c0,1.4,0.2,1.8,0.5,1.8S106.6,50.7,106.6,49.2z M108.4,47.2h-0.7v-0.9h2.4v0.9h-0.7v4.7h-1L108.4,47.2L108.4,47.2z M112.3,47.2
		h-0.7v-0.9h2.4v0.9h-0.7v4.7h-1L112.3,47.2L112.3,47.2z M114.4,50.2v-4h1v4.1c0,0.5,0.2,0.7,0.4,0.7c0.2,0,0.4-0.2,0.4-0.7v-4.1h1
		v4c0,1.2-0.6,1.7-1.4,1.7C114.9,51.9,114.4,51.4,114.4,50.2z M117.7,46.3h0.8c0.9,0,1.8,0.4,1.8,1.4l0,0c0,0.7-0.4,1.1-0.8,1.3
		c0.5,0.2,0.9,0.5,0.9,1.2v0.1c0,1-0.8,1.6-1.9,1.6h-0.9L117.7,46.3L117.7,46.3z M118.7,48.6c0.4,0,0.7-0.2,0.7-0.7l0,0
		c0-0.5-0.3-0.7-0.7-0.7l0,0V48.6L118.7,48.6z M118.7,51c0.4,0,0.8-0.3,0.8-0.7l0,0c0-0.5-0.3-0.7-0.8-0.7l0,0V51L118.7,51L118.7,51
		z"/>
	<path class="st7" d="M27.6,202.6h1v2.3h0.8v-2.3h1v5.6h-1v-2.4h-0.8v2.4h-1V202.6z M30.9,205.6v-0.3c0-1.8,0.6-2.7,1.5-2.7
		s1.5,0.9,1.5,2.7v0.3c0,1.8-0.6,2.7-1.5,2.7S30.9,207.4,30.9,205.6z M32.9,205.6v-0.3c0-1.4-0.2-1.8-0.5-1.8s-0.5,0.4-0.5,1.8v0.3
		c0,1.4,0.2,1.8,0.5,1.8S32.9,207,32.9,205.6z M34.7,203.6H34v-0.9h2.4v0.9h-0.7v4.7h-1C34.7,208.2,34.7,203.6,34.7,203.6z
		 M38.5,203.6h-0.7v-0.9h2.4v0.9h-0.7v4.7h-1V203.6L38.5,203.6z M40.6,206.6v-4h1v4.1c0,0.5,0.2,0.7,0.4,0.7s0.4-0.2,0.4-0.7v-4.1h1
		v4c0,1.2-0.6,1.7-1.4,1.7C41.2,208.3,40.6,207.8,40.6,206.6z M43.9,202.6h0.8c0.9,0,1.8,0.4,1.8,1.4l0,0c0,0.7-0.4,1.1-0.8,1.3
		c0.5,0.2,0.9,0.5,0.9,1.2v0.1c0,1-0.8,1.6-1.9,1.6h-0.9L43.9,202.6L43.9,202.6z M44.9,205c0.4,0,0.7-0.2,0.7-0.7l0,0
		c0-0.5-0.3-0.7-0.7-0.7l0,0V205L44.9,205z M44.9,207.3c0.4,0,0.8-0.3,0.8-0.7l0,0c0-0.5-0.3-0.7-0.8-0.7l0,0V207.3L44.9,207.3
		L44.9,207.3z"/>
	<path class="st7" d="M109.6,161.5h1v2.3h0.8v-2.3h1v5.6h-1v-2.4h-0.8v2.4h-1V161.5z M112.9,164.4v-0.3c0-1.8,0.6-2.7,1.5-2.7
		s1.5,0.9,1.5,2.7v0.3c0,1.8-0.6,2.7-1.5,2.7S112.9,166.3,112.9,164.4z M114.9,164.4v-0.3c0-1.4-0.2-1.8-0.5-1.8s-0.5,0.4-0.5,1.8
		v0.3c0,1.4,0.2,1.8,0.5,1.8S114.9,165.9,114.9,164.4z M116.7,162.4H116v-0.9h2.4v0.9h-0.7v4.7h-1L116.7,162.4L116.7,162.4z
		 M110.2,170.4h-0.7v-0.9h2.4v0.9h-0.7v4.7h-1L110.2,170.4L110.2,170.4z M112.3,173.4v-4h1v4.1c0,0.5,0.2,0.7,0.4,0.7
		c0.2,0,0.4-0.2,0.4-0.7v-4.1h1v4c0,1.2-0.6,1.7-1.4,1.7C112.9,175.2,112.3,174.6,112.3,173.4z M115.6,169.5h0.8
		c0.9,0,1.8,0.4,1.8,1.4l0,0c0,0.7-0.4,1.1-0.8,1.3c0.5,0.2,0.9,0.5,0.9,1.2v0.1c0,1-0.8,1.6-1.9,1.6h-0.9L115.6,169.5L115.6,169.5z
		 M116.6,171.8c0.4,0,0.7-0.2,0.7-0.7l0,0c0-0.5-0.3-0.7-0.7-0.7l0,0V171.8L116.6,171.8L116.6,171.8z M116.6,174.2
		c0.4,0,0.8-0.3,0.8-0.7l0,0c0-0.5-0.3-0.7-0.8-0.7l0,0V174.2L116.6,174.2L116.6,174.2z"/>
	<path class="st7" d="M17.4,465.4h1l1.1,5.6h-1l-0.2-1.1h-0.9l-0.2,1.1h-0.9L17.4,465.4z M18.2,469l-0.3-1.8l-0.3,1.8H18.2z
		 M21.9,470.7c-0.2,0.2-0.5,0.4-0.8,0.4c-0.9,0-1.5-0.9-1.5-2.7v-0.3c0-1.8,0.6-2.7,1.5-2.7s1.5,0.9,1.5,2.7v0.3
		c0,0.8-0.1,1.4-0.3,1.8l0.5,0.5l-0.5,0.5L21.9,470.7z M21.3,470.1l-0.5-0.5l0.5-0.5l0.2,0.2c0-0.3,0-0.6,0-1.1v-0.3
		c0-1.4-0.2-1.8-0.5-1.8s-0.5,0.4-0.5,1.8v0.3c0,1.6,0.2,1.9,0.6,1.9C21.2,470.2,21.3,470.2,21.3,470.1z M23.1,469.4v-4h1v4.1
		c0,0.5,0.2,0.7,0.4,0.7s0.4-0.2,0.4-0.7v-4.1h1v4c0,1.2-0.6,1.7-1.4,1.7S23.1,470.5,23.1,469.4z M27.2,465.4h1l1.1,5.6h-1l-0.2-1.1
		h-0.9L27,471h-0.9L27.2,465.4z M28,469l-0.3-1.8l-0.3,1.8H28z M15.7,473.4h1c1,0,1.7,0.5,1.7,1.8v0.1c0,0.7-0.3,1.2-0.7,1.5
		l0.8,2.3h-1l-0.6-2h-0.2v2h-1C15.7,479.1,15.7,473.4,15.7,473.4z M16.7,476.2c0.4,0,0.7-0.2,0.7-0.9v-0.1c0-0.7-0.3-0.9-0.8-0.9
		l0,0L16.7,476.2L16.7,476.2L16.7,476.2z M19.7,473.4h1l1.1,5.6h-1l-0.2-1.1h-0.9l-0.2,1.1h-0.9L19.7,473.4z M20.5,477l-0.3-1.8
		l-0.3,1.8H20.5z M21.9,476.3v-0.2c0-2,0.7-2.7,1.6-2.7c0.3,0,0.4,0,0.6,0.1v1c-0.2-0.1-0.4-0.2-0.5-0.2c-0.4,0-0.7,0.4-0.7,1.8v0.2
		c0,1.5,0.3,1.8,0.8,1.8c0.2,0,0.3-0.1,0.5-0.2v1c-0.2,0.1-0.4,0.2-0.7,0.2C22.6,479,21.9,478.2,21.9,476.3z M24.7,473.4h2.1v0.9
		h-1.2v1.4h1v0.9h-1v1.4h1.2v0.9h-2.2v-5.5H24.7z M27.3,473.4h1c1,0,1.7,0.5,1.7,1.8v0.1c0,0.7-0.3,1.2-0.7,1.5l0.8,2.3h-1l-0.6-2
		h-0.2v2h-1C27.3,479.1,27.3,473.4,27.3,473.4z M28.3,476.2c0.4,0,0.7-0.2,0.7-0.9v-0.1c0-0.7-0.3-0.9-0.8-0.9l0,0L28.3,476.2
		L28.3,476.2L28.3,476.2z"/>
	<path class="st7" d="M26.8,126.1h1l0.5,3.6l0.5-3.6h1l-1,5.6h-1L26.8,126.1z M30.2,126.1h1v5.6h-1V126.1z M31.7,126.1h0.8
		c0.9,0,1.8,0.4,1.8,1.4l0,0c0,0.7-0.4,1.1-0.8,1.3c0.5,0.2,0.9,0.5,0.9,1.2v0.1c0,1-0.8,1.6-1.9,1.6h-0.9v-5.6H31.7z M32.7,128.5
		c0.4,0,0.7-0.2,0.7-0.7l0,0c0-0.5-0.3-0.7-0.7-0.7l0,0V128.5L32.7,128.5L32.7,128.5z M32.7,130.8c0.4,0,0.8-0.3,0.8-0.7l0,0
		c0-0.5-0.3-0.7-0.8-0.7l0,0V130.8L32.7,130.8L32.7,130.8z M34.9,126.1H37v0.9h-1.2v1.4h1v0.9h-1v1.4H37v0.9h-2.2
		C34.9,131.7,34.9,126.1,34.9,126.1z M24.8,134.1h0.8c0.9,0,1.8,0.4,1.8,1.4l0,0c0,0.7-0.4,1.1-0.8,1.3c0.5,0.2,0.9,0.5,0.9,1.2v0.1
		c0,1-0.8,1.6-1.9,1.6h-0.9L24.8,134.1L24.8,134.1z M25.8,136.5c0.4,0,0.7-0.2,0.7-0.7l0,0c0-0.5-0.3-0.7-0.7-0.7l0,0V136.5
		L25.8,136.5L25.8,136.5z M25.8,138.8c0.4,0,0.8-0.3,0.8-0.7l0,0c0-0.5-0.3-0.7-0.8-0.7l0,0V138.8L25.8,138.8L25.8,138.8z M28,134.1
		h2.1v0.9H29v1.4h1v0.9h-1v1.4h1.2v0.9H28V134.1z M31.4,134.1h1l1.1,5.6h-1l-0.2-1.1h-0.9l-0.2,1.1h-0.9L31.4,134.1z M32.2,137.7
		l-0.3-1.8l-0.3,1.8H32.2z M33.6,137v-0.2c0-2,0.7-2.7,1.6-2.7c0.3,0,0.4,0,0.6,0.1v1c-0.2-0.1-0.4-0.2-0.5-0.2
		c-0.4,0-0.7,0.4-0.7,1.8v0.2c0,1.5,0.3,1.8,0.8,1.8c0.2,0,0.3-0.1,0.5-0.2v1c-0.2,0.1-0.4,0.2-0.7,0.2
		C34.3,139.8,33.6,139,33.6,137z M36.4,134.1h1v2.3h0.8v-2.3h1v5.6h-1v-2.4h-0.8v2.4h-1V134.1z M26.5,145v-0.2c0-2,0.7-2.7,1.6-2.7
		c0.3,0,0.4,0,0.6,0.1v1c-0.2-0.1-0.4-0.2-0.5-0.2c-0.4,0-0.7,0.4-0.7,1.8v0.2c0,1.5,0.3,1.8,0.8,1.8c0.2,0,0.3-0.1,0.5-0.2v1
		c-0.2,0.1-0.4,0.2-0.7,0.2C27.2,147.8,26.5,147,26.5,145z M29.3,142.1h1v4.7h1v0.9h-2V142.1z M31.6,146.1v-4h1v4.1
		c0,0.5,0.2,0.7,0.4,0.7s0.4-0.2,0.4-0.7v-4.1h1v4c0,1.2-0.6,1.7-1.4,1.7C32.2,147.8,31.6,147.3,31.6,146.1z M34.9,142.1h0.8
		c0.9,0,1.8,0.4,1.8,1.4l0,0c0,0.7-0.4,1.1-0.8,1.3c0.5,0.2,0.9,0.5,0.9,1.2v0.1c0,1-0.8,1.6-1.9,1.6h-0.9v-5.6H34.9z M35.9,144.5
		c0.4,0,0.7-0.2,0.7-0.7l0,0c0-0.5-0.3-0.7-0.7-0.7l0,0V144.5L35.9,144.5L35.9,144.5z M35.9,146.8c0.4,0,0.8-0.3,0.8-0.7l0,0
		c0-0.5-0.3-0.7-0.8-0.7l0,0V146.8L35.9,146.8L35.9,146.8z"/>
	<path class="st7" d="M106.1,211.3h1l0.5,3.6l0.5-3.6h1l-1,5.6h-1L106.1,211.3z M109.4,211.3h1v5.6h-1V211.3z M111,211.3h0.8
		c0.9,0,1.8,0.4,1.8,1.4l0,0c0,0.7-0.4,1.1-0.8,1.3c0.5,0.2,0.9,0.5,0.9,1.2v0.1c0,1-0.8,1.6-1.9,1.6H111
		C111,216.9,111,211.3,111,211.3z M112,213.7c0.4,0,0.7-0.2,0.7-0.7l0,0c0-0.5-0.3-0.7-0.7-0.7l0,0V213.7L112,213.7L112,213.7z
		 M112,216c0.4,0,0.8-0.3,0.8-0.7l0,0c0-0.5-0.3-0.7-0.8-0.7l0,0V216L112,216L112,216z M114.2,211.3h2.1v0.9h-1.2v1.4h1v0.9h-1v1.4
		h1.2v0.9h-2.2L114.2,211.3L114.2,211.3z M104.1,219.3h0.8c0.9,0,1.8,0.4,1.8,1.4l0,0c0,0.7-0.4,1.1-0.8,1.3
		c0.5,0.2,0.9,0.5,0.9,1.2v0.1c0,1-0.8,1.6-1.9,1.6H104C104.1,224.9,104.1,219.3,104.1,219.3z M105.1,221.7c0.4,0,0.7-0.2,0.7-0.7
		l0,0c0-0.5-0.3-0.7-0.7-0.7l0,0V221.7L105.1,221.7L105.1,221.7z M105.1,224c0.4,0,0.8-0.3,0.8-0.7l0,0c0-0.5-0.3-0.7-0.8-0.7l0,0
		V224L105.1,224L105.1,224z M107.3,219.3h2.1v0.9h-1.2v1.4h1v0.9h-1v1.4h1.2v0.9h-2.2L107.3,219.3L107.3,219.3z M110.7,219.3h1
		l1.1,5.6h-1l-0.2-1.1h-0.9l-0.2,1.1h-0.9L110.7,219.3z M111.5,222.9l-0.3-1.8l-0.3,1.8H111.5z M112.9,222.2V222
		c0-2,0.7-2.7,1.6-2.7c0.3,0,0.4,0,0.6,0.1v1c-0.2-0.1-0.4-0.2-0.5-0.2c-0.4,0-0.7,0.4-0.7,1.8v0.2c0,1.5,0.3,1.8,0.8,1.8
		c0.2,0,0.3-0.1,0.5-0.2v1c-0.2,0.1-0.4,0.2-0.7,0.2C113.6,225,112.9,224.2,112.9,222.2z M115.7,219.3h1v2.3h0.8v-2.3h1v5.6h-1v-2.4
		h-0.8v2.4h-1V219.3z M105.8,230.2V230c0-2,0.7-2.7,1.6-2.7c0.3,0,0.4,0,0.6,0.1v1c-0.2-0.1-0.4-0.2-0.5-0.2c-0.4,0-0.7,0.4-0.7,1.8
		v0.2c0,1.5,0.3,1.8,0.8,1.8c0.2,0,0.3-0.1,0.5-0.2v1c-0.2,0.1-0.4,0.2-0.7,0.2C106.4,233,105.8,232.2,105.8,230.2z M108.5,227.3h1
		v4.7h1v0.9h-2V227.3z M110.8,231.3v-4h1v4.1c0,0.5,0.2,0.7,0.4,0.7c0.2,0,0.4-0.2,0.4-0.7v-4.1h1v4c0,1.2-0.6,1.7-1.4,1.7
		S110.8,232.5,110.8,231.3z M114.2,227.3h0.8c0.9,0,1.8,0.4,1.8,1.4l0,0c0,0.7-0.4,1.1-0.8,1.3c0.5,0.2,0.9,0.5,0.9,1.2v0.1
		c0,1-0.8,1.6-1.9,1.6h-0.9L114.2,227.3L114.2,227.3z M115.2,229.7c0.4,0,0.7-0.2,0.7-0.7l0,0c0-0.5-0.3-0.7-0.7-0.7l0,0V229.7
		L115.2,229.7L115.2,229.7z M115.2,232c0.4,0,0.8-0.3,0.8-0.7l0,0c0-0.5-0.3-0.7-0.8-0.7l0,0V232L115.2,232L115.2,232z"/>
	<path class="st7" d="M111,126.1h1l0.5,3.6l0.5-3.6h1l-1,5.6h-1L111,126.1z M114.3,126.1h1v5.6h-1V126.1z M115.9,126.1h0.8
		c0.9,0,1.8,0.4,1.8,1.4l0,0c0,0.7-0.4,1.1-0.8,1.3c0.5,0.2,0.9,0.5,0.9,1.2v0.1c0,1-0.8,1.6-1.9,1.6h-0.9
		C115.9,131.7,115.9,126.1,115.9,126.1z M116.9,128.5c0.4,0,0.7-0.2,0.7-0.7l0,0c0-0.5-0.3-0.7-0.7-0.7l0,0V128.5L116.9,128.5
		L116.9,128.5z M116.9,130.8c0.4,0,0.8-0.3,0.8-0.7l0,0c0-0.5-0.3-0.7-0.8-0.7l0,0V130.8L116.9,130.8L116.9,130.8z M119,126.1h2.1
		v0.9H120v1.4h1v0.9h-1v1.4h1.2v0.9H119V126.1z M109,134.1h0.8c0.9,0,1.8,0.4,1.8,1.4l0,0c0,0.7-0.4,1.1-0.8,1.3
		c0.5,0.2,0.9,0.5,0.9,1.2v0.1c0,1-0.8,1.6-1.9,1.6H109C109,139.7,109,134.1,109,134.1z M110,136.5c0.4,0,0.7-0.2,0.7-0.7l0,0
		c0-0.5-0.3-0.7-0.7-0.7l0,0V136.5L110,136.5L110,136.5z M110,138.8c0.4,0,0.8-0.3,0.8-0.7l0,0c0-0.5-0.3-0.7-0.8-0.7l0,0V138.8
		L110,138.8L110,138.8z M112.2,134.1h2.1v0.9h-1.2v1.4h1v0.9h-1v1.4h1.2v0.9h-2.2L112.2,134.1L112.2,134.1z M115.6,134.1h1l1.1,5.6
		h-1l-0.2-1.1h-0.9l-0.2,1.1h-0.9L115.6,134.1z M116.4,137.7l-0.3-1.8l-0.3,1.8H116.4z M117.8,137v-0.2c0-2,0.7-2.7,1.6-2.7
		c0.3,0,0.4,0,0.6,0.1v1c-0.2-0.1-0.4-0.2-0.5-0.2c-0.4,0-0.7,0.4-0.7,1.8v0.2c0,1.5,0.3,1.8,0.8,1.8c0.2,0,0.3-0.1,0.5-0.2v1
		c-0.2,0.1-0.4,0.2-0.7,0.2C118.5,139.8,117.8,139,117.8,137z M120.6,134.1h1v2.3h0.8v-2.3h1v5.6h-1v-2.4h-0.8v2.4h-1V134.1z
		 M110.6,145v-0.2c0-2,0.7-2.7,1.6-2.7c0.3,0,0.4,0,0.6,0.1v1c-0.2-0.1-0.4-0.2-0.5-0.2c-0.4,0-0.7,0.4-0.7,1.8v0.2
		c0,1.5,0.3,1.8,0.8,1.8c0.2,0,0.3-0.1,0.5-0.2v1c-0.2,0.1-0.4,0.2-0.7,0.2C111.3,147.8,110.6,147,110.6,145z M113.4,142.1h1v4.7h1
		v0.9h-2V142.1z M115.7,146.1v-4h1v4.1c0,0.5,0.2,0.7,0.4,0.7c0.2,0,0.4-0.2,0.4-0.7v-4.1h1v4c0,1.2-0.6,1.7-1.4,1.7
		C116.3,147.8,115.7,147.3,115.7,146.1z M119.1,142.1h0.8c0.9,0,1.8,0.4,1.8,1.4l0,0c0,0.7-0.4,1.1-0.8,1.3c0.5,0.2,0.9,0.5,0.9,1.2
		v0.1c0,1-0.8,1.6-1.9,1.6H119L119.1,142.1L119.1,142.1z M120.1,144.5c0.4,0,0.7-0.2,0.7-0.7l0,0c0-0.5-0.3-0.7-0.7-0.7l0,0V144.5
		L120.1,144.5L120.1,144.5z M120.1,146.8c0.4,0,0.8-0.3,0.8-0.7l0,0c0-0.5-0.3-0.7-0.8-0.7l0,0V146.8L120.1,146.8L120.1,146.8z"/>
	<path class="st7" d="M52.5,751.7h2.1v0.9h-1.2v1.4h1v0.9h-1v1.4h1.2v0.9h-2.2v-5.5H52.5z M55.1,751.7H56l1,2.8v-2.8h1v5.6h-0.9
		l-1-3v3h-1V751.7z M58.4,754.6v-0.2c0-2,0.7-2.7,1.6-2.7c0.3,0,0.4,0,0.6,0.1v1c-0.2-0.1-0.4-0.2-0.5-0.2c-0.4,0-0.7,0.4-0.7,1.8
		v0.2c0,1.5,0.3,1.8,0.8,1.8c0.2,0,0.3-0.1,0.5-0.2v1c-0.2,0.1-0.4,0.2-0.7,0.2C59.1,757.4,58.4,756.6,58.4,754.6z M60.9,754.7v-0.3
		c0-1.8,0.6-2.7,1.5-2.7s1.5,0.9,1.5,2.7v0.3c0,1.8-0.6,2.7-1.5,2.7S60.9,756.5,60.9,754.7z M62.9,754.7v-0.3c0-1.4-0.2-1.8-0.5-1.8
		s-0.5,0.4-0.5,1.8v0.3c0,1.4,0.2,1.8,0.5,1.8S62.9,756.1,62.9,754.7z M64.4,751.7h1c1,0,1.7,0.5,1.7,1.8v0.1c0,0.7-0.3,1.2-0.7,1.5
		l0.8,2.3h-1l-0.6-2h-0.2v2h-1C64.4,757.3,64.4,751.7,64.4,751.7z M65.4,754.5c0.4,0,0.7-0.2,0.7-0.9v-0.1c0-0.7-0.3-0.9-0.8-0.9
		l0,0L65.4,754.5L65.4,754.5z M67.6,751.7h2.1v0.9h-1.2v1.4h1v0.9h-1v1.4h1.2v0.9h-2.2L67.6,751.7L67.6,751.7z M71.3,757.1v-1
		c0.3,0.2,0.6,0.3,0.9,0.3s0.5-0.1,0.5-0.5l0,0c0-0.3-0.1-0.4-0.5-1c-0.7-0.8-0.9-1.1-0.9-1.8l0,0c0-0.9,0.6-1.5,1.4-1.5
		c0.4,0,0.6,0.1,0.9,0.2v1c-0.3-0.2-0.5-0.3-0.7-0.3c-0.3,0-0.5,0.2-0.5,0.5l0,0c0,0.3,0.1,0.4,0.5,0.9c0.8,0.9,0.9,1.2,0.9,1.9l0,0
		c0,0.9-0.6,1.5-1.4,1.5C72,757.4,71.6,757.3,71.3,757.1z M74.1,751.7H75c1.1,0,1.8,0.6,1.8,1.9l0,0c0,1.3-0.7,1.9-1.7,1.9l0,0v1.8
		h-1C74.1,757.3,74.1,751.7,74.1,751.7z M75,754.7c0.4,0,0.7-0.3,0.7-1l0,0c0-0.7-0.3-1-0.7-1l0,0V754.7L75,754.7L75,754.7z
		 M77.1,751.7h2.1v0.9H78v1.4h1v0.9h-1v1.4h1.2v0.9H77L77.1,751.7L77.1,751.7z M79.8,751.7h2.1v0.9h-1.2v1.4h1v0.9h-1v1.4H82v0.9
		h-2.2C79.8,757.3,79.8,751.7,79.8,751.7z M82.4,751.7h0.9c1.2,0,2,0.9,2,2.7v0.2c0,1.8-0.7,2.7-2,2.7h-0.9V751.7z M83.4,756.4
		c0.5,0,0.9-0.4,0.9-1.8v-0.2c0-1.4-0.4-1.8-0.9-1.8l0,0V756.4L83.4,756.4z M85.5,751.7h1l0.4,3.4l0.5-3.4h0.9l0.5,3.4l0.4-3.4h1
		l-0.8,5.6h-1l-0.5-3.3l-0.5,3.3h-1L85.5,751.7z M91.2,751.7h1l1.1,5.6h-1l-0.2-1.1h-0.9l-0.2,1.1h-0.9L91.2,751.7z M92,755.3
		l-0.3-1.8l-0.3,1.8H92z M94,755.1l-1-3.4h1l0.5,2.1l0.5-2.1h1l-1,3.4v2.2h-1V755.1L94,755.1z"/>
	<path class="st7" d="M64.2,137.7v-0.3c0-1.8,0.6-2.7,1.5-2.7s1.5,0.9,1.5,2.7v0.3c0,1.8-0.6,2.7-1.5,2.7S64.2,139.5,64.2,137.7z
		 M66.2,137.7v-0.3c0-1.4-0.2-1.8-0.5-1.8s-0.5,0.4-0.5,1.8v0.3c0,1.4,0.2,1.8,0.5,1.8S66.2,139.1,66.2,137.7z M67.7,134.7h0.9
		c1.1,0,1.8,0.6,1.8,1.9l0,0c0,1.3-0.7,1.9-1.7,1.9l0,0v1.8h-1L67.7,134.7L67.7,134.7z M68.7,137.7c0.4,0,0.7-0.3,0.7-1l0,0
		c0-0.7-0.3-1-0.7-1l0,0V137.7L68.7,137.7z M70.8,134.7h2.1v0.9h-1.2v1.4h1v0.9h-1v1.4h1.2v0.9h-2.2L70.8,134.7L70.8,134.7z
		 M73.4,134.7h0.9l1,2.8v-2.8h1v5.6h-0.9l-1-3v3h-1V134.7L73.4,134.7z M78.6,135.7h-0.7v-0.9h2.4v0.9h-0.7v4.7h-1
		C78.6,140.3,78.6,135.7,78.6,135.7z M80.4,137.7v-0.3c0-1.8,0.6-2.7,1.5-2.7s1.5,0.9,1.5,2.7v0.3c0,1.8-0.6,2.7-1.5,2.7
		S80.4,139.5,80.4,137.7z M82.4,137.7v-0.3c0-1.4-0.2-1.8-0.5-1.8s-0.5,0.4-0.5,1.8v0.3c0,1.4,0.2,1.8,0.5,1.8
		S82.4,139.1,82.4,137.7z M59.6,142.7h0.9c1.2,0,2,0.9,2,2.7v0.2c0,1.8-0.7,2.7-2,2.7h-0.9V142.7z M60.6,147.4
		c0.5,0,0.9-0.4,0.9-1.8v-0.2c0-1.4-0.4-1.8-0.9-1.8l0,0V147.4L60.6,147.4L60.6,147.4z M62.9,142.7H65v0.9h-1.2v1.4h1v0.9h-1v1.4H65
		v0.9h-2.2v-5.5H62.9z M65.4,145.6v-0.2c0-2,0.7-2.7,1.6-2.7c0.3,0,0.4,0,0.6,0.1v1c-0.2-0.1-0.4-0.2-0.5-0.2
		c-0.4,0-0.7,0.4-0.7,1.8v0.2c0,1.5,0.3,1.8,0.8,1.8c0.2,0,0.3-0.1,0.5-0.2v1c-0.2,0.1-0.4,0.2-0.7,0.2
		C66.1,148.4,65.4,147.6,65.4,145.6z M68.2,142.7h1v2.3l0.8-2.3h1l-0.9,2.4l1,3.2H70l-0.6-2.1l-0.2,0.6v1.5h-1L68.2,142.7
		L68.2,142.7z M72.7,142.7h0.8c0.9,0,1.8,0.4,1.8,1.4l0,0c0,0.7-0.4,1.1-0.8,1.3c0.5,0.2,0.9,0.5,0.9,1.2v0.1c0,1-0.8,1.6-1.9,1.6
		h-0.9L72.7,142.7L72.7,142.7z M73.6,145.1c0.4,0,0.7-0.2,0.7-0.7l0,0c0-0.5-0.3-0.7-0.7-0.7l0,0V145.1L73.6,145.1L73.6,145.1z
		 M73.6,147.4c0.4,0,0.8-0.3,0.8-0.7l0,0c0-0.5-0.3-0.7-0.8-0.7l0,0V147.4L73.6,147.4L73.6,147.4z M75.8,142.7h2.1v0.9h-1.2v1.4h1
		v0.9h-1v1.4H78v0.9h-2.2V142.7z M78.4,142.7h1v4.7h1v0.9h-2V142.7z M80.5,145.7v-0.3c0-1.8,0.6-2.7,1.5-2.7s1.5,0.9,1.5,2.7v0.3
		c0,1.8-0.6,2.7-1.5,2.7S80.5,147.5,80.5,145.7z M82.5,145.7v-0.3c0-1.4-0.2-1.8-0.5-1.8s-0.5,0.4-0.5,1.8v0.3
		c0,1.4,0.2,1.8,0.5,1.8S82.5,147.1,82.5,145.7z M83.7,142.7h1l0.4,3.4l0.5-3.4h0.9l0.5,3.4l0.4-3.4h1l-0.8,5.6h-1L86,145l-0.5,3.3
		h-1L83.7,142.7z"/>
	<path class="st7" d="M98.4,61.1h-0.7v-0.9h2.4v0.9h-0.7v4.7h-1C98.4,65.8,98.4,61.1,98.4,61.1z M100.5,60.2h1v2.3h0.8v-2.3h1v5.6
		h-1v-2.4h-0.8v2.4h-1V60.2z M103.8,60.2h2.1v0.9h-1.2v1.4h1v0.9h-1v1.4h1.2v0.9h-2.2L103.8,60.2L103.8,60.2z M107.7,60.2h1v2.3h0.8
		v-2.3h1v5.6h-1v-2.4h-0.8v2.4h-1V60.2z M111.9,60.2h1l1.1,5.6h-1l-0.2-1.1H112l-0.2,1.1h-0.9L111.9,60.2z M112.7,63.8l-0.3-1.8
		l-0.3,1.8H112.7z M113.9,60.2h1l0.5,3.6l0.5-3.6h1l-1,5.6h-1L113.9,60.2z M117.2,60.2h2.1v0.9h-1.2v1.4h1v0.9h-1v1.4h1.2v0.9h-2.2
		L117.2,60.2L117.2,60.2z M119.9,60.2h0.9l1,2.8v-2.8h1v5.6h-0.9l-1-3v3h-1V60.2z M97.5,71.1v-0.2c0-2,0.7-2.7,1.6-2.7
		c0.3,0,0.4,0,0.6,0.1v1c-0.2-0.1-0.4-0.2-0.5-0.2c-0.4,0-0.7,0.4-0.7,1.8v0.2c0,1.5,0.3,1.8,0.8,1.8c0.2,0,0.3-0.1,0.5-0.2v1
		c-0.2,0.1-0.4,0.2-0.7,0.2C98.2,73.8,97.5,73,97.5,71.1z M100,71.1v-0.3c0-1.8,0.6-2.7,1.5-2.7s1.5,0.9,1.5,2.7v0.3
		c0,1.8-0.6,2.7-1.5,2.7C100.6,73.9,100,73,100,71.1z M102,71.1v-0.3c0-1.4-0.2-1.8-0.5-1.8s-0.5,0.4-0.5,1.8v0.3
		c0,1.4,0.2,1.8,0.5,1.8S102,72.6,102,71.1z M103.4,72.2v-4h1v4.1c0,0.5,0.2,0.7,0.4,0.7c0.2,0,0.4-0.2,0.4-0.7v-4.1h1v4
		c0,1.2-0.6,1.7-1.4,1.7C104,73.9,103.4,73.3,103.4,72.2z M106.8,68.2h1c1,0,1.7,0.5,1.7,1.8l0,0c0,0.7-0.3,1.2-0.7,1.5l0.8,2.3h-1
		l-0.6-2h-0.2v2h-1C106.8,73.8,106.8,68.2,106.8,68.2z M107.8,71c0.4,0,0.7-0.2,0.7-0.9V70c0-0.7-0.3-0.9-0.8-0.9l0,0L107.8,71
		L107.8,71z M110.4,69.1h-0.7v-0.9h2.4v0.9h-0.7v4.7h-1L110.4,69.1L110.4,69.1z M113.1,71.6l-1-3.4h1l0.5,2.1l0.5-2.1h1l-1,3.4v2.2
		h-1V71.6L113.1,71.6z M115.9,68.2h1l1.1,5.6h-1l-0.2-1.1H116l-0.2,1.1h-0.9L115.9,68.2z M116.7,71.8l-0.3-1.8l-0.3,1.8H116.7z
		 M118.3,68.2h1c1,0,1.7,0.5,1.7,1.8l0,0c0,0.7-0.3,1.2-0.7,1.5l0.8,2.3h-1l-0.6-2h-0.2v2h-1C118.3,73.8,118.3,68.2,118.3,68.2z
		 M119.3,71c0.4,0,0.7-0.2,0.7-0.9V70c0-0.7-0.3-0.9-0.8-0.9l0,0L119.3,71L119.3,71z M121.5,68.2h0.9c1.2,0,2,0.9,2,2.7v0.2
		c0,1.8-0.7,2.7-2,2.7h-0.9V68.2z M122.5,72.9c0.5,0,0.9-0.4,0.9-1.8v-0.2c0-1.4-0.4-1.8-0.9-1.8l0,0V72.9L122.5,72.9z M99.9,81.6
		v-1c0.3,0.2,0.6,0.3,0.9,0.3s0.5-0.1,0.5-0.5l0,0c0-0.3-0.1-0.4-0.5-1c-0.7-0.8-0.9-1.1-0.9-1.8l0,0c0-0.9,0.6-1.5,1.4-1.5
		c0.4,0,0.6,0.1,0.9,0.2v1c-0.3-0.2-0.5-0.3-0.7-0.3c-0.3,0-0.5,0.2-0.5,0.5l0,0c0,0.3,0.1,0.4,0.5,0.9c0.8,0.9,0.9,1.2,0.9,1.9l0,0
		c0,0.9-0.6,1.5-1.4,1.5C100.5,81.8,100.2,81.7,99.9,81.6z M102.6,80.2v-4h1v4.1c0,0.5,0.2,0.7,0.4,0.7s0.4-0.2,0.4-0.7v-4.1h1v4
		c0,1.2-0.6,1.7-1.4,1.7S102.6,81.3,102.6,80.2z M105.9,76.2h0.9l1,2.8v-2.8h1v5.6h-0.9l-1-3v3h-1C105.9,81.8,105.9,76.2,105.9,76.2
		z M110.6,76.2h0.9c1.2,0,2,0.9,2,2.7v0.2c0,1.8-0.7,2.7-2,2.7h-0.9V76.2z M111.6,80.9c0.5,0,0.9-0.4,0.9-1.8v-0.2
		c0-1.4-0.4-1.8-0.9-1.8l0,0V80.9L111.6,80.9z M114,76.2h2.1v0.9h-1.2v1.4h1v0.9h-1v1.4h1.2v0.9H114V76.2z M116.4,79.1v-0.2
		c0-2,0.7-2.7,1.6-2.7c0.3,0,0.4,0,0.6,0.1v1c-0.2-0.1-0.4-0.2-0.5-0.2c-0.4,0-0.7,0.4-0.7,1.8v0.2c0,1.5,0.3,1.8,0.8,1.8
		c0.2,0,0.3-0.1,0.5-0.2v1c-0.2,0.1-0.4,0.2-0.7,0.2C117.1,81.8,116.4,81,116.4,79.1z M119.2,76.2h1v2.3l0.8-2.3h1.1l-0.9,2.4l1,3.2
		H121l-0.6-2.1l-0.2,0.6v1.5h-1L119.2,76.2L119.2,76.2z"/>
	<path class="st7" d="M24.7,61.1H24v-0.9h2.4v0.9h-0.7v4.7h-1L24.7,61.1L24.7,61.1z M26.8,60.2h1v2.3h0.8v-2.3h1v5.6h-1v-2.4h-0.8
		v2.4h-1V60.2L26.8,60.2z M30.2,60.2h2.1v0.9h-1.2v1.4h1v0.9h-1v1.4h1.2v0.9h-2.2v-5.5H30.2z M34.1,60.2h1v2.3h0.8v-2.3h1v5.6h-1
		v-2.4H35v2.4h-1L34.1,60.2L34.1,60.2z M38.2,60.2h1l1.1,5.6h-1l-0.2-1.1h-0.9L38,65.8h-0.9L38.2,60.2z M39,63.8L38.7,62l-0.3,1.8
		H39z M40.3,60.2h1l0.5,3.6l0.5-3.6h1l-1,5.6h-1L40.3,60.2z M43.6,60.2h2.1v0.9h-1.2v1.4h1v0.9h-1v1.4h1.2v0.9h-2.2
		C43.6,65.8,43.6,60.2,43.6,60.2z M46.2,60.2h0.9l1,2.8v-2.8h1v5.6h-0.9l-1-3v3h-1V60.2z M23.8,71.1v-0.2c0-2,0.7-2.7,1.6-2.7
		c0.3,0,0.4,0,0.6,0.1v1c-0.2-0.1-0.4-0.2-0.5-0.2c-0.4,0-0.7,0.4-0.7,1.8v0.2c0,1.5,0.3,1.8,0.8,1.8c0.2,0,0.3-0.1,0.5-0.2v1
		c-0.2,0.1-0.4,0.2-0.7,0.2C24.5,73.8,23.8,73,23.8,71.1z M26.3,71.1v-0.3c0-1.8,0.6-2.7,1.5-2.7s1.5,0.9,1.5,2.7v0.3
		c0,1.8-0.6,2.7-1.5,2.7C26.9,73.9,26.3,73,26.3,71.1z M28.3,71.1v-0.3c0-1.4-0.2-1.8-0.5-1.8s-0.5,0.4-0.5,1.8v0.3
		c0,1.4,0.2,1.8,0.5,1.8S28.3,72.6,28.3,71.1z M29.8,72.2v-4h1v4.1c0,0.5,0.2,0.7,0.4,0.7s0.4-0.2,0.4-0.7v-4.1h1v4
		c0,1.2-0.6,1.7-1.4,1.7C30.4,73.9,29.8,73.3,29.8,72.2z M33.1,68.2h1c1,0,1.7,0.5,1.7,1.8l0,0c0,0.7-0.3,1.2-0.7,1.5l0.8,2.3h-1
		l-0.6-2h-0.2v2h-1V68.2L33.1,68.2z M34.1,71c0.4,0,0.7-0.2,0.7-0.9V70c0-0.7-0.3-0.9-0.8-0.9l0,0L34.1,71L34.1,71z M36.7,69.1H36
		v-0.9h2.4v0.9h-0.7v4.7h-1V69.1L36.7,69.1z M39.5,71.6l-1-3.4h1l0.5,2.1l0.5-2.1h1l-1,3.4v2.2h-1V71.6L39.5,71.6z M42.2,68.2h1
		l1.1,5.6h-1l-0.2-1.1h-0.9L42,73.8h-0.9L42.2,68.2z M43,71.8L42.7,70l-0.3,1.8H43z M44.6,68.2h1c1,0,1.7,0.5,1.7,1.8l0,0
		c0,0.7-0.3,1.2-0.7,1.5l0.8,2.3h-1l-0.6-2h-0.2v2h-1V68.2z M45.7,71c0.4,0,0.7-0.2,0.7-0.9V70c0-0.7-0.3-0.9-0.8-0.9l0,0L45.7,71
		L45.7,71z M47.8,68.2h0.9c1.2,0,2,0.9,2,2.7v0.2c0,1.8-0.7,2.7-2,2.7h-0.9V68.2z M48.8,72.9c0.5,0,0.9-0.4,0.9-1.8v-0.2
		c0-1.4-0.4-1.8-0.9-1.8l0,0V72.9L48.8,72.9z M26.2,81.6v-1c0.3,0.2,0.6,0.3,0.9,0.3s0.5-0.1,0.5-0.5l0,0c0-0.3-0.1-0.4-0.5-1
		c-0.7-0.8-0.9-1.1-0.9-1.8l0,0c0-0.9,0.6-1.5,1.4-1.5c0.4,0,0.6,0.1,0.9,0.2v1C28.2,77.1,28,77,27.8,77c-0.3,0-0.5,0.2-0.5,0.5l0,0
		c0,0.3,0.1,0.4,0.5,0.9c0.8,0.9,0.9,1.2,0.9,1.9l0,0c0,0.9-0.6,1.5-1.4,1.5C26.8,81.8,26.5,81.7,26.2,81.6z M28.9,80.2v-4h1v4.1
		c0,0.5,0.2,0.7,0.4,0.7c0.2,0,0.4-0.2,0.4-0.7v-4.1h1v4c0,1.2-0.6,1.7-1.4,1.7C29.5,81.9,28.9,81.3,28.9,80.2z M32.3,76.2h0.9
		l1,2.8v-2.8h1v5.6h-0.9l-1-3v3h-1C32.3,81.8,32.3,76.2,32.3,76.2z M37,76.2h0.9c1.2,0,2,0.9,2,2.7v0.2c0,1.8-0.7,2.7-2,2.7H37V76.2
		z M38,80.9c0.5,0,0.9-0.4,0.9-1.8v-0.2c0-1.4-0.4-1.8-0.9-1.8l0,0V80.9L38,80.9z M40.3,76.2h2.1v0.9h-1.2v1.4h1v0.9h-1v1.4h1.2v0.9
		h-2.2v-5.5H40.3z M42.8,79.1v-0.2c0-2,0.7-2.7,1.6-2.7c0.3,0,0.4,0,0.6,0.1v1c-0.2-0.1-0.4-0.2-0.5-0.2c-0.4,0-0.7,0.4-0.7,1.8v0.2
		c0,1.5,0.3,1.8,0.8,1.8c0.2,0,0.3-0.1,0.5-0.2v1c-0.2,0.1-0.4,0.2-0.7,0.2C43.4,81.8,42.8,81,42.8,79.1z M45.6,76.2h1v2.3l0.8-2.3
		h1.1l-0.9,2.4l1,3.2h-1.1l-0.6-2.1l-0.2,0.6v1.5h-1L45.6,76.2L45.6,76.2z"/>
</g>
<g id="ENCORE_DECK_19_TOP">
	<g id="gDeck19Locations">
		<path width="147.2401" height="192.4211" id="_x31_9Aft" class="st3" d="M120.9,595.7h27.3c0,0,0.8,156.3,0.8,166.9s-14.2,25.5-73.7,25.5S1.7,774,1.7,762.6
			s0-166.9,0-166.9h10"/>
		<polygon width="146.4001" height="339.2276" id="_x31_9MidShip" class="st3" points="1.7,269.6 1.7,595.7 55.1,595.7 55.1,608.8 93,608.8 93,595.7 148.1,595.7 
			148.1,269.6 114,269.6 114,336.8 34.2,336.8 34.2,269.6 		"/>
		<path width="119.133" height="336.228" id="_x31_9Forward" class="st3" d="M114,336.8v-67.2l13.5,0.2l0.1-90.9l6-6.5v-10.2l-6-5.8l0.2-96.4l5.5-5.6V43.6l-5.5-5.7
			c0,0,0-17,0-17.7c0-5.8-1.6-8.6-8.9-11.7c-11.2-4.7-20.8-8-43.6-8H75h-0.3h-1.2h-0.3h-0.3c-22.8,0-32.5,3.3-43.6,8
			c-7.3,3.1-8.9,5.9-8.9,11.7c0,0.7,0,17.7,0,17.7l-5.5,5.7v10.8l5.5,5.6l0.2,134.2l-6,5.8v10.2l6,6.5l0.1,53.1l13.7-0.2v67.2H114
			L114,336.8z"/>
	</g>
	<path class="st8" d="M114,336.8v-67.2l13.5,0.2l0.1-90.9l6-6.5v-10.2l-6-5.8l0.2-96.4l5.5-5.6V43.6l-5.5-5.7c0,0,0-17,0-17.7
		c0-5.8-1.6-8.6-8.9-11.7c-11.2-4.7-20.8-8-43.6-8H75h-0.3h-1.2h-0.3h-0.3c-22.8,0-32.5,3.3-43.6,8c-7.3,3.1-8.9,5.9-8.9,11.7
		c0,0.7,0,17.7,0,17.7l-5.5,5.7v10.8l5.5,5.6l0.2,134.2l-6,5.8v10.2l6,6.5l0.1,53.1l13.7-0.2v67.2H114L114,336.8z"/>
	<path class="st8" d="M68.6,539.5h-5.5c-5,0-8,2.7-8,7.2v62.1c13.1,0,28.4,0,37.9,0v-62.1c0-4.5-3-7.2-8-7.2h-5.5H68.6L68.6,539.5z"
		/>
</g>
</svg>
