<?xml version="1.0" encoding="utf-8"?>
<!-- Generator: Adobe Illustrator 23.0.2, SVG Export Plug-In . SVG Version: 6.00 Build 0)  -->
<svg version="1.1" id="ESCAPE_DECK_06" xmlns="http://www.w3.org/2000/svg" xmlns:xlink="http://www.w3.org/1999/xlink" x="0px"
	 y="0px" width="137.912px" height="1038.036px" viewBox="0 0 137.912 1038.036"
	 style="enable-background:new 0 0 137.912 1038.036;" xml:space="preserve">
<style type="text/css">
	.st0{fill:#FFFFFF;}
	.st1{fill:none;stroke:#D5DCE0;stroke-width:0.5;}
	.st2{fill:none;stroke:#D5DCE0;stroke-width:0.5;stroke-dasharray:1,1;}
	.st3{fill:none;stroke:#D5DBDF;stroke-width:0.5;}
	.st4{fill:#6E8496;}
	.st5{fill:none;stroke:#076FA0;stroke-miterlimit:10;}
	.st6{fill:none;}
</style>
<g id="ESCAPE_DECK_06_BOTTOM">
	<path class="st0" d="M68.895,0.569c-5.334,0-5.997,5.678-14.667,17.75C43.811,32.819,3.56,78.651,0.56,157.485
		c0,0,0,843.5,0,858.668c12.083,14.75,28.166,17.998,61.834,17.998c0.541,1.48,2.5,3.334,6.5,3.334h0.166
		c3.999,0,5.749-1.791,6.499-3.334c33.668,0,49.752-3.248,61.834-17.998c0-15.168,0-858.668,0-858.668
		c-3-78.834-43.25-124.666-53.666-139.166C75.055,6.247,74.393,0.569,69.06,0.569H68.895L68.895,0.569z"/>
	<polyline class="st1" points="114.31,753.289 114.31,763.581 115.226,763.581 115.226,753.248 116.123,753.248 116.123,763.498 
		117.123,763.498 117.123,753.227 	"/>
	<polyline class="st1" points="99.183,387.353 128.392,387.353 128.392,299.686 113.617,299.686 113.617,228.02 95.852,228.02 
		95.852,220.686 69.538,220.686 68.46,220.686 40.735,220.686 40.735,228.02 22.97,228.02 22.97,299.686 0.557,299.686 
		0.557,326.353 15.665,326.353 29.445,347.519 29.445,359.353 90.207,359.353 90.207,405.187 81.275,405.187 	"/>
	<path class="st1" d="M22.983,257.687c12.5,7.5,28.076,13.667,45.076,13.667s33-6.167,45.5-13.667"/>
	<line class="st1" x1="22.951" y1="296.353" x2="113.559" y2="296.353"/>
	<polyline class="st1" points="94.934,296.345 94.934,304.311 104.184,304.686 112.559,310.686 117.809,319.186 122.434,319.186 
		122.434,345.811 114.934,345.811 99.184,370.186 99.184,394.873 105.809,394.873 105.809,422.748 	"/>
	<polyline class="st1" points="35.434,296.368 35.434,302.977 26.184,303.352 17.809,309.352 12.559,317.852 7.934,317.852 
		7.934,326.352 	"/>
	<polyline class="st1" points="47.059,412.811 47.059,394.436 0.309,394.436 	"/>
	<polyline class="st1" points="0.184,412.186 23.559,412.186 23.559,407.311 41.559,407.311 41.559,413.061 47.059,413.061 
		47.059,410.686 55.768,407.435 	"/>
	<polyline class="st1" points="0.101,420.227 47.476,420.227 47.476,421.56 	"/>
	<line class="st1" x1="11.726" y1="412.352" x2="11.726" y2="420.185"/>
	<line class="st1" x1="23.559" y1="407.311" x2="23.559" y2="394.519"/>
	<polyline class="st1" points="136.727,394.936 112.477,394.936 112.477,471.186 136.81,471.186 	"/>
	<line class="st1" x1="112.393" y1="437.186" x2="136.81" y2="437.186"/>
	<line class="st1" x1="112.477" y1="411.853" x2="136.893" y2="411.853"/>
	<polyline class="st1" points="88.768,460.27 88.768,462.498 105.809,462.498 105.809,422.811 88.813,422.811 	"/>
	<path class="st1" d="M32.247,420.311c0.25,18.312-4.063,28,0.374,37.726l0.209,0.378c2.665,4.846,8.209,14.929,26.211,13.643
		c0.79-0.057,1.393-0.715,1.393-1.494c0-0.036-0.001-0.072-0.004-0.108c-0.059-0.827-0.777-1.449-1.603-1.39
		c-16.086,1.148-20.824-7.467-23.369-12.096l-0.087-2.221h8.125v-34.312"/>
	<polyline class="st1" points="23.434,420.311 23.434,438.061 0.059,438.061 	"/>
	<polyline class="st1" points="74.143,460.27 73.184,469.186 106.809,472.311 107.309,469.061 107.309,462.561 105.809,462.561 	"/>
	<path class="st1" d="M25.559,513.342c-0.097,5.03,4.861,11.402,10.841,13.965c5.206,2.231,9.463,1.344,13.58,0.485
		c3.096-0.646,6.02-1.255,9.149-0.571c0.702,0.152,1.181,0.773,1.181,1.463c0,0.107-0.012,0.214-0.035,0.322
		c-0.176,0.809-0.976,1.322-1.785,1.145c-2.504-0.546-5.003-0.025-7.897,0.578c-4.358,0.909-9.299,1.94-15.374-0.664
		c-6.201-2.658-12.839-9.83-12.659-16.785"/>
	<line class="st1" x1="0.351" y1="513.477" x2="25.725" y2="513.477"/>
	<path class="st1" d="M102.924,471.938c0.089,0.656,0.135,1.326,0.135,2.007c0,8.146-6.603,14.75-14.75,14.75
		c-8.146,0-14.75-6.604-14.75-14.75c0-1.675,0.279-3.284,0.793-4.784"/>
	<polyline class="st1" points="92.481,845.729 110.903,845.729 110.903,854.285 136.895,854.285 	"/>
	<path class="st1" d="M77.204,541.053c-2.682-2.214-4.395-5.564-4.395-9.305c0-6.651,5.411-12.062,12.063-12.062
		c6.139,0,11.291,4.593,11.984,10.684c0.007,0.057,0.01,0.115,0.01,0.172c0,0.752-0.564,1.4-1.33,1.488
		c-0.823,0.094-1.566-0.498-1.66-1.32c-0.521-4.574-4.392-8.023-9.004-8.023c-4.997,0-9.063,4.065-9.063,9.062
		c0,2.932,1.398,5.543,3.564,7.201"/>
	<path class="st1" d="M137.059,537.686h-16.375l-21.5-2l-0.375,3.375l21.5,1.875l-0.25,2.375H93.184v-5.438H80.247l-0.25,0.188
		l-4.25,4.375v62.645l0.075,0.018c6.487,2.594,11.36,8.369,12.688,15.397"/>
	<polyline class="st1" points="54.497,598.373 48.184,598.373 48.184,606.811 57.247,606.811 	"/>
	<path class="st1" d="M75.747,591.248h8.812v7.771l15.417,14.417v10.333h14.083v34.5h-29.75v-20.914l0.025-0.029
		c2.059-2.574,3.518-5.649,4.164-9.014"/>
	<polyline class="st2" points="84.226,658.123 75.85,658.123 75.871,649.811 72.809,649.811 72.809,605.186 75.822,605.186 	"/>
	<polyline class="st1" points="88.715,628.373 76.934,628.373 76.934,620.498 88.778,620.498 	"/>
	<polyline class="st1" points="88.643,658.436 88.643,675.436 97.559,675.436 97.559,701.102 136.893,701.102 	"/>
	<polyline class="st1" points="114.059,623.769 114.059,614.02 137.433,614.02 	"/>
	<path class="st1" d="M97.934,701.102h-7.292v29.832h6.333v7.377c0,0-7-0.166-7,6.751h-1.167v3.29"/>
	<path class="st1" d="M88.808,773.727v-3.29h1.167c0-6.917,7-6.751,7-6.751l-0.011-6.155c0,0-7,0.166-7-6.751h-1.167v-3.584"/>
	<path class="st1" d="M88.797,772.57v3.584h1.167c0,6.917,7,6.751,7,6.751"/>
	<path class="st1" d="M0.184,701.352h45.335v29.832h-6.333v7.377c0,0,7-0.166,7,6.751h1.167v3.29"/>
	<path class="st1" d="M47.353,773.977v-3.29h-1.167c0-6.917-7-6.751-7-6.751l0.011-6.155c0,0,7,0.166,7-6.751h1.167v-3.584"/>
	<path class="st1" d="M47.364,772.82v3.584h-1.167c0,6.917-7,6.751-7,6.751h-3.638v38.779h-3.125v20.125h-6.875v3.125l-10.25,1.001
		v8.25H-0.066"/>
	<polyline class="st1" points="59.393,643.186 52.727,655.77 52.727,661.436 44.643,661.436 38.226,667.853 38.226,674.52 
		24.477,674.52 24.477,666.77 0.31,666.77 	"/>
	<polyline class="st1" points="45.517,701.352 45.517,678.52 33.56,678.52 33.56,701.27 	"/>
	<line class="st1" x1="24.477" y1="674.52" x2="24.477" y2="701.186"/>
	<line class="st1" x1="37.477" y1="674.687" x2="37.477" y2="678.604"/>
	<polygon class="st1" points="74.934,754.311 72.184,754.311 72.184,751.436 63.809,751.436 63.809,754.311 61.309,754.311 
		61.309,767.561 63.809,767.561 63.809,770.561 72.184,770.561 72.184,767.561 74.934,767.561 	"/>
	<polyline class="st1" points="44.476,678.52 44.476,667.811 46.809,665.602 59.809,665.602 59.809,744.061 46.184,744.061 	"/>
	<polyline class="st1" points="88.643,671.602 75.767,671.602 75.767,742.27 79.227,742.27 79.227,740.52 89.83,740.52 
		89.83,745.062 	"/>
	<polyline class="st1" points="92.434,839.366 92.434,835.936 89.059,825.351 89.059,821.936 101.934,821.936 101.934,845.811 	"/>
	<polyline class="st1" points="99.684,822.061 99.684,782.936 96.889,782.936 	"/>
	<path class="st1" d="M123.197,769.852c0.199,0,0.36,0.162,0.36,0.36v14.821c0,0.199-0.161,0.36-0.36,0.36h-9.321
		c-0.199,0-0.36-0.161-0.36-0.36v-14.821c0-0.198,0.161-0.36,0.36-0.36H123.197z"/>
	<path class="st1" d="M123.197,753.227c0.199,0,0.36,0.107,0.36,0.24v9.875c0,0.132-0.161,0.239-0.36,0.239h-9.321
		c-0.199,0-0.36-0.107-0.36-0.239v-9.875c0-0.133,0.161-0.24,0.36-0.24H123.197z"/>
	<polyline class="st1" points="47.059,820.936 39.809,820.936 39.809,819.519 39.809,812.686 46.809,812.686 	"/>
	<polyline class="st1" points="35.434,820.936 39.809,820.936 39.809,827.186 46.309,827.186 43.559,839.186 	"/>
	<polyline class="st1" points="32.434,842.06 32.434,845.811 43.532,845.811 	"/>
	<path class="st1" d="M117.991,757.811c0.199,0,0.36,0.161,0.36,0.359v0.176c0,0.199-0.161,0.36-0.36,0.36h-4.695
		c-0.199,0-0.36-0.161-0.36-0.36v-0.176c0-0.198,0.161-0.359,0.36-0.359H117.991z"/>
	<polyline class="st1" points="117.643,758.811 118.56,763.645 120.976,763.561 117.998,758.895 118.248,758.77 123.581,762.102 
		123.581,759.27 118.351,758.52 	"/>
	<polyline class="st1" points="117.685,757.602 118.56,753.186 120.976,753.27 117.998,757.727 118.248,757.852 123.581,754.52 
		123.581,757.352 118.351,758.102 	"/>
	<path class="st1" d="M63.955,620.539l-2.983,0.512c0,0-2.3,3.406-3.057,5.149c-0.469,1.081-0.52,2.78-0.568,4.425
		c-0.087,2.907-0.208,6.987-3.331,9.131l0.077-0.021c2.312,2.123,5.11,3.725,8.217,4.616v2.542v14.542h-9.582"/>
	<path class="st1" d="M47.372,624.373c0,4.218,1.243,8.147,3.388,11.43l0.084,0.008c1.125-0.527,1.399-1.777,1.505-5.334
		c0.063-2.116,0.128-4.305,0.979-6.267c1.084-2.499,3.935-6.55,3.935-6.55l-0.392-2.871"/>
	<path class="st1" d="M18.226,513.686l7.208,14.125l10.813,6.25l8.937,0.875l12.563-1.688l0.812,7.438l1.438-0.312v51.688h-5.5
		v6.312h5.5v6.875l0.018,0.017c-7.432,3.157-12.643,10.523-12.643,19.108"/>
	<path class="st1" d="M52.673,626.424l2.521-0.721l0.416,0.315l0.188-1.188l0.391,0.589l2.39-0.683l-4.438-2.094l0.344-0.875
		l4.469,2.25l0.469-0.562l-4.25-2.438l0.469-0.844l4,2.75l0.469-0.656l-3.969-2.844l0.5-0.844l3.844,3.062l0.375-0.5
		c0,0-1.625-2.75-4.125-2.969c0.406-0.469,0.5-0.688,0.5-0.688s2.469,0.156,4.188,3.406c0.562-0.094,0.719-0.219,0.719-0.219
		s-1.625-3.75-5.062-4c-0.188-0.688-0.125-0.844-0.125-0.844s4.25,0.25,6,4.781c0.719-0.094,0.844-0.188,0.844-0.188
		s-1.281-5.031-6.844-5.5"/>
	<path class="st1" d="M48.294,618.399c0.096,0.013,0.191,0.029,0.291,0.029c1.235,0,2.237-1.002,2.237-2.237
		c0-0.714-0.341-1.342-0.862-1.751"/>
	<path class="st1" d="M88.097,618.42c-0.025,0.001-0.049,0.008-0.074,0.008c-1.234,0-2.236-1.002-2.236-2.237
		c0-0.644,0.275-1.22,0.709-1.627"/>
	<path class="st1" d="M86.644,634.013c-0.518-0.409-0.857-1.037-0.857-1.748c0-1.235,1.002-2.237,2.236-2.237
		c0.062,0,0.121,0.014,0.181,0.017"/>
	<path class="st1" d="M48.187,630.066c0.129-0.023,0.261-0.039,0.398-0.039c1.235,0,2.237,1.002,2.237,2.237
		c0,0.785-0.408,1.475-1.021,1.873"/>
	<line class="st1" x1="67.728" y1="733.35" x2="68.439" y2="756.109"/>
	<line class="st1" x1="45.871" y1="641.122" x2="67.372" y2="635.555"/>
	<line class="st1" x1="82.705" y1="522.122" x2="91.205" y2="509.288"/>
	<line class="st1" x1="118.582" y1="781.358" x2="118.023" y2="800.772"/>
	<polyline class="st1" points="0.426,607.622 19.038,607.622 19.038,594.455 44.538,594.455 44.538,613.122 50.705,613.122 	"/>
	<line class="st1" x1="88.932" y1="441.961" x2="105.809" y2="441.961"/>
	<rect x="68.454" y="395.436" class="st1" width="12.905" height="14.92"/>
	<rect x="68.454" y="403.5" class="st1" width="12.905" height="0.97"/>
	<rect x="68.454" y="404.459" class="st1" width="12.905" height="0.971"/>
	<rect x="68.454" y="405.463" class="st1" width="12.905" height="0.97"/>
	<polygon class="st1" points="79.247,407.392 68.454,407.392 68.454,406.422 81.359,406.422 	"/>
	<polygon class="st1" points="77.101,408.395 68.454,408.395 68.454,407.425 79.225,407.425 	"/>
	<rect x="68.454" y="408.385" class="st1" width="6.154" height="0.97"/>
	<rect x="68.454" y="409.344" class="st1" width="6.154" height="0.97"/>
	<polygon class="st1" points="81.359,410.357 75.064,410.357 75.064,409.388 81.37,406.408 	"/>
	<path class="st1" d="M75.085,402.039c0-0.136-0.102-0.244-0.227-0.244l0,0c-0.126,0-0.229,0.108-0.229,0.244v8.34
		c0,0.136,0.103,0.244,0.229,0.244l0,0c0.125,0,0.227-0.108,0.227-0.244V402.039z"/>
	<rect x="55.589" y="395.436" class="st1" width="12.905" height="14.92"/>
	<rect x="55.589" y="403.5" class="st1" width="12.905" height="0.97"/>
	<rect x="55.589" y="404.459" class="st1" width="12.905" height="0.971"/>
	<rect x="55.589" y="405.463" class="st1" width="12.905" height="0.97"/>
	<polygon class="st1" points="57.702,407.392 68.495,407.392 68.495,406.422 55.589,406.422 	"/>
	<polygon class="st1" points="59.847,408.395 68.495,408.395 68.495,407.425 57.723,407.425 	"/>
	<rect x="62.34" y="408.385" class="st1" width="6.154" height="0.97"/>
	<rect x="62.34" y="409.344" class="st1" width="6.154" height="0.97"/>
	<polygon class="st1" points="55.589,410.357 61.884,410.357 61.884,409.388 55.579,406.408 	"/>
	<path class="st1" d="M61.864,402.039c0-0.136,0.102-0.244,0.227-0.244l0,0c0.126,0,0.229,0.108,0.229,0.244v8.34
		c0,0.136-0.103,0.244-0.229,0.244l0,0c-0.125,0-0.227-0.108-0.227-0.244V402.039z"/>
	<polygon class="st1" points="62.1,460.27 62.1,456.395 51.1,456.395 51.1,423.02 62.059,423.02 62.059,421.395 47.475,421.395 
		47.475,460.27 	"/>
	<polygon class="st1" points="74.143,460.27 74.143,456.395 85.143,456.395 85.143,423.02 74.184,423.02 74.184,421.395 
		88.768,421.395 88.768,460.27 	"/>
	<rect x="51.106" y="423.026" class="st3" width="9.324" height="33.367"/>
	<line class="st3" x1="60.362" y1="448.09" x2="51.25" y2="456.133"/>
	<line class="st3" x1="60.293" y1="456.205" x2="51.153" y2="448.094"/>
	<polyline class="st3" points="60.362,439.586 51.48,447.982 60.033,447.978 51.153,439.941 	"/>
	<polyline class="st3" points="60.123,431.448 51.446,439.49 60.033,439.485 51.153,431.451 	"/>
	<polyline class="st3" points="60.293,423.104 51.446,431.338 60.033,431.333 51.153,423.026 	"/>
	<rect x="75.82" y="423.017" class="st3" width="9.324" height="33.375"/>
	<line class="st3" x1="76.127" y1="448.088" x2="85" y2="456.133"/>
	<line class="st3" x1="75.896" y1="456.17" x2="85.097" y2="448.092"/>
	<polyline class="st3" points="75.999,439.513 84.812,447.979 76.205,447.976 85.155,439.719 	"/>
	<polyline class="st3" points="76.127,431.441 84.847,439.486 76.217,439.481 85.097,431.444 	"/>
	<polyline class="st3" points="76.127,423.017 84.709,431.332 76.217,431.327 85.097,423.017 	"/>
	<polygon class="st1" points="74.476,784.186 74.476,790.351 85.476,790.351 85.476,823.726 74.518,823.726 74.518,825.351 
		89.101,825.351 89.101,784.186 	"/>
	<rect x="76.184" y="790.433" class="st1" width="9.324" height="33.255"/>
	<line class="st1" x1="76.492" y1="798.707" x2="85.365" y2="790.691"/>
	<line class="st1" x1="76.582" y1="790.696" x2="85.461" y2="798.703"/>
	<polyline class="st1" points="76.492,806.831 85.365,798.816 76.582,798.819 85.461,806.829 	"/>
	<polyline class="st1" points="76.492,815.294 85.365,807.278 76.582,807.283 85.461,815.291 	"/>
	<polyline class="st1" points="76.492,823.688 85.365,815.403 76.582,815.408 85.461,823.688 	"/>
	<polygon class="st1" points="61.727,784.186 61.727,790.351 50.727,790.351 50.727,823.726 61.685,823.726 61.685,825.351 
		47.102,825.351 47.102,812.311 47.102,784.186 	"/>
	<rect x="50.695" y="790.433" class="st1" width="9.324" height="33.255"/>
	<line class="st1" x1="59.711" y1="798.707" x2="50.838" y2="790.691"/>
	<line class="st1" x1="59.622" y1="790.696" x2="50.742" y2="798.703"/>
	<polyline class="st1" points="59.711,806.831 50.838,798.816 59.622,798.819 50.742,806.829 	"/>
	<polyline class="st1" points="59.711,815.294 50.838,807.278 59.622,807.283 50.742,815.291 	"/>
	<polyline class="st1" points="59.711,823.688 50.838,815.403 59.622,815.408 50.742,823.688 	"/>
	<polygon class="st1" points="92.373,839.335 77.81,839.335 77.81,854.226 92.373,854.288 	"/>
	<rect x="77.81" y="845.254" class="st1" width="14.563" height="0.97"/>
	<rect x="77.81" y="844.294" class="st1" width="14.563" height="0.971"/>
	<rect x="77.81" y="843.291" class="st1" width="14.563" height="0.97"/>
	<polygon class="st1" points="89.99,842.332 77.81,842.332 77.81,843.302 92.373,843.302 	"/>
	<polygon class="st1" points="87.569,841.329 77.81,841.329 77.81,842.299 89.964,842.299 	"/>
	<rect x="77.81" y="840.369" class="st1" width="6.945" height="0.97"/>
	<rect x="77.81" y="839.41" class="st1" width="6.945" height="0.97"/>
	<polygon class="st1" points="92.373,839.366 85.269,839.366 85.269,840.336 92.369,843.301 	"/>
	<path class="st1" d="M85.294,847.685c0,0.136-0.115,0.244-0.257,0.244l0,0c-0.143,0-0.257-0.108-0.257-0.244v-8.34
		c0-0.136,0.114-0.244,0.257-0.244l0,0c0.142,0,0.257,0.108,0.257,0.244V847.685z"/>
	<polygon class="st1" points="43.56,839.335 58.123,839.335 58.123,854.226 43.56,854.288 	"/>
	<rect x="43.56" y="845.254" class="st1" width="14.563" height="0.97"/>
	<rect x="43.56" y="844.294" class="st1" width="14.563" height="0.971"/>
	<rect x="43.56" y="843.291" class="st1" width="14.563" height="0.97"/>
	<polygon class="st1" points="45.943,842.332 58.123,842.332 58.123,843.302 43.56,843.302 	"/>
	<polygon class="st1" points="48.364,841.329 58.123,841.329 58.123,842.299 45.968,842.299 	"/>
	<rect x="51.177" y="840.369" class="st1" width="6.945" height="0.97"/>
	<rect x="51.177" y="839.41" class="st1" width="6.945" height="0.97"/>
	<polygon class="st1" points="43.56,839.366 50.664,839.366 50.664,840.336 43.564,843.301 	"/>
	<path class="st1" d="M50.639,847.685c0,0.136,0.115,0.244,0.257,0.244l0,0c0.143,0,0.257-0.108,0.257-0.244v-8.34
		c0-0.136-0.114-0.244-0.257-0.244l0,0c-0.142,0-0.257,0.108-0.257,0.244V847.685z"/>
	<polyline class="st1" points="58.186,837.188 58.186,854.362 77.748,854.362 77.748,837.188 	"/>
	<path class="st4" d="M51.316,599.835h1.007c1,0,1.727,0.527,1.727,1.783v0.071c0,0.728-0.288,1.191-0.656,1.472l0.752,2.271h-1.04
		l-0.632-1.951H52.29v1.951h-0.975L51.316,599.835L51.316,599.835z M52.339,602.602c0.424,0,0.735-0.248,0.735-0.904v-0.063
		c0-0.704-0.335-0.888-0.759-0.888h-0.024v1.855H52.339z M54.5,599.835h1.007c1,0,1.727,0.527,1.727,1.783v0.071
		c0,0.728-0.288,1.191-0.656,1.472l0.751,2.271H56.29l-0.632-1.951h-0.184v1.951H54.5V599.835z M55.524,602.602
		c0.423,0,0.735-0.248,0.735-0.904v-0.063c0-0.704-0.336-0.888-0.76-0.888h-0.024v1.855H55.524z"/>
	<path class="st4" d="M25.982,687.168h1.007c1,0,1.727,0.527,1.727,1.783v0.071c0,0.728-0.288,1.191-0.656,1.472l0.752,2.271h-1.04
		l-0.632-1.951h-0.184v1.951h-0.975v-5.597H25.982z M27.006,689.935c0.424,0,0.735-0.248,0.735-0.904v-0.063
		c0-0.704-0.335-0.888-0.759-0.888h-0.024v1.855H27.006z M29.166,687.168h1.007c1,0,1.727,0.527,1.727,1.783v0.071
		c0,0.728-0.288,1.191-0.656,1.472l0.751,2.271h-1.039l-0.632-1.951H30.14v1.951h-0.975v-5.597H29.166z M30.19,689.935
		c0.423,0,0.735-0.248,0.735-0.904v-0.063c0-0.704-0.336-0.888-0.76-0.888h-0.024v1.855H30.19z"/>
	<path class="st4" d="M36.316,832.835h1.007c1,0,1.727,0.527,1.727,1.783v0.071c0,0.728-0.288,1.191-0.656,1.472l0.752,2.271h-1.04
		l-0.632-1.951H37.29v1.951h-0.975L36.316,832.835L36.316,832.835z M37.339,835.602c0.424,0,0.735-0.248,0.735-0.904v-0.063
		c0-0.704-0.335-0.888-0.759-0.888h-0.024v1.855H37.339z M39.5,832.835h1.007c1,0,1.727,0.527,1.727,1.783v0.071
		c0,0.728-0.288,1.191-0.656,1.472l0.751,2.271H41.29l-0.632-1.951h-0.184v1.951H39.5V832.835z M40.524,835.602
		c0.423,0,0.735-0.248,0.735-0.904v-0.063c0-0.704-0.336-0.888-0.76-0.888h-0.024v1.855H40.524z"/>
	<path class="st4" d="M94.316,832.835h1.008c0.999,0,1.728,0.527,1.728,1.783v0.071c0,0.728-0.288,1.191-0.656,1.472l0.752,2.271
		h-1.04l-0.631-1.951h-0.185v1.951h-0.976C94.316,838.432,94.316,832.835,94.316,832.835z M95.339,835.602
		c0.424,0,0.736-0.248,0.736-0.904v-0.063c0-0.704-0.336-0.888-0.76-0.888h-0.024v1.855H95.339z M97.5,832.835h1.007
		c1,0,1.728,0.527,1.728,1.783v0.071c0,0.728-0.288,1.191-0.656,1.472l0.752,2.271h-1.039l-0.632-1.951h-0.184v1.951H97.5V832.835z
		 M98.524,835.602c0.424,0,0.735-0.248,0.735-0.904v-0.063c0-0.704-0.336-0.888-0.76-0.888h-0.023v1.855H98.524z"/>
	<path class="st4" d="M36.982,687.168h1.007c1,0,1.727,0.527,1.727,1.783v0.071c0,0.728-0.288,1.191-0.656,1.472l0.752,2.271h-1.04
		l-0.632-1.951h-0.184v1.951h-0.975L36.982,687.168L36.982,687.168z M38.006,689.935c0.424,0,0.735-0.248,0.735-0.904v-0.063
		c0-0.704-0.335-0.888-0.759-0.888h-0.024v1.855H38.006z M40.166,687.168h1.007c1,0,1.727,0.527,1.727,1.783v0.071
		c0,0.728-0.288,1.191-0.656,1.472l0.751,2.271h-1.039l-0.632-1.951H41.14v1.951h-0.975L40.166,687.168L40.166,687.168z
		 M41.19,689.935c0.423,0,0.735-0.248,0.735-0.904v-0.063c0-0.704-0.336-0.888-0.76-0.888h-0.024v1.855H41.19z"/>
	<path class="st4" d="M65.443,578.406v-1.04l5.613-1.063v0.976l-1.111,0.185v0.887l1.111,0.177v0.943L65.443,578.406z
		 M69.065,577.606l-1.847,0.296l1.847,0.304V577.606z M65.459,576.006v-1.008c0-0.999,0.527-1.727,1.783-1.727h0.071
		c0.728,0,1.191,0.287,1.472,0.655l2.271-0.752v1.04l-1.951,0.632v0.184h1.951v0.976L65.459,576.006L65.459,576.006z
		 M68.226,574.982c0-0.424-0.248-0.735-0.904-0.735h-0.063c-0.704,0-0.888,0.335-0.888,0.759v0.024h1.855V574.982z M66.387,572.382
		v0.688h-0.928v-2.351h0.928v0.688h4.669v0.976L66.387,572.382L66.387,572.382z M68.354,569.134h-0.192
		c-1.807,0-2.742-0.768-2.742-1.871c0-0.296,0.063-0.544,0.16-0.743h1.015c-0.144,0.239-0.239,0.455-0.239,0.711
		c0,0.56,0.56,0.912,1.767,0.912h0.272c1.463,0,1.799-0.433,1.799-0.832c0-0.032,0-0.04-0.008-0.088h-1.432v0.479h-0.871v-1.367
		h2.974c0.152,0.352,0.24,0.64,0.24,1.016C71.096,568.326,70.304,569.134,68.354,569.134z M65.443,565.015v-1.04l5.613-1.063v0.976
		l-1.111,0.184v0.888l1.111,0.176v0.943L65.443,565.015z M69.065,564.215l-1.847,0.296l1.847,0.304V564.215z M65.459,562.614v-0.976
		h4.669v-1.032h0.928v2.008H65.459z M65.459,560.214v-0.976h4.669v-1.031h0.928v2.007H65.459z M65.459,557.813v-2.143h0.928v1.168
		h1.391v-1.032h0.928v1.032h1.423v-1.191h0.928v2.166L65.459,557.813L65.459,557.813z M65.459,555.174v-1.007
		c0-1,0.527-1.728,1.783-1.728h0.071c0.728,0,1.191,0.288,1.472,0.655l2.271-0.751v1.039l-1.951,0.632v0.184h1.951v0.976
		L65.459,555.174L65.459,555.174z M68.226,554.15c0-0.424-0.248-0.735-0.904-0.735h-0.063c-0.704,0-0.888,0.336-0.888,0.76v0.023
		h1.855V554.15z M68.849,551.398l-3.39,1.039v-1.007l2.095-0.528l-2.095-0.535v-0.983l3.39,1.039h2.207v0.976h-2.207V551.398z"/>
	<path class="st4" d="M101.375,665.492h-0.688v-0.927h2.351v0.927h-0.688v4.67h-0.976v-4.67H101.375z M103.447,664.565h2.143v0.927
		h-1.167v1.392h1.031v0.928h-1.031v1.423h1.191v0.928h-2.167V664.565z M106.087,664.565h0.871c1.063,0,1.808,0.575,1.808,1.887
		v0.016c0,1.264-0.704,1.863-1.695,1.936h-0.008v1.759h-0.976V664.565z M107.07,667.499c0.407-0.023,0.72-0.319,0.72-0.999v-0.016
		c0-0.712-0.272-1.016-0.696-1.016h-0.031v2.03L107.07,667.499L107.07,667.499z M109.167,664.565h0.871
		c1.063,0,1.808,0.575,1.808,1.887v0.016c0,1.264-0.704,1.863-1.695,1.936h-0.008v1.759h-0.976V664.565z M110.151,667.499
		c0.407-0.023,0.72-0.319,0.72-0.999v-0.016c0-0.712-0.272-1.016-0.696-1.016h-0.031v2.03L110.151,667.499L110.151,667.499z
		 M112.75,664.549h1.04l1.062,5.613h-0.975l-0.185-1.111h-0.888l-0.176,1.111h-0.943L112.75,664.549z M113.55,668.171l-0.296-1.847
		l-0.304,1.847H113.55z M115.152,664.565h0.911l0.983,2.83v-2.83h0.951v5.597h-0.863l-1.031-2.967v2.967h-0.951
		C115.152,670.162,115.152,664.565,115.152,664.565z M119.326,667.955l-1.039-3.39h1.008l0.527,2.095l0.536-2.095h0.983l-1.04,3.39
		v2.207h-0.976L119.326,667.955L119.326,667.955z M122.095,664.549h1.039l1.063,5.613h-0.975l-0.185-1.111h-0.888l-0.176,1.111
		h-0.943L122.095,664.549z M122.895,668.171l-0.296-1.847l-0.304,1.847H122.895z M124.495,664.565h0.976v2.342l0.791-2.342h1.104
		l-0.943,2.366l0.959,3.23h-1.087l-0.607-2.119l-0.216,0.616v1.503h-0.976L124.495,664.565L124.495,664.565z M127.735,664.565h0.976
		v5.597h-0.976V664.565z"/>
	<path class="st4" d="M8.748,482.993H8.06v-0.927h2.351v0.927H9.723v4.669H8.748V482.993z M10.82,482.065h0.976v2.318h0.848v-2.318
		h0.975v5.597h-0.975v-2.351h-0.848v2.351H10.82V482.065z M14.196,482.065h2.143v0.927h-1.167v1.391h1.031v0.928h-1.031v1.423h1.191
		v0.928h-2.167C14.196,487.662,14.196,482.065,14.196,482.065z M18.891,482.049h1.039l1.063,5.613h-0.975l-0.185-1.111h-0.888
		l-0.176,1.111h-0.943L18.891,482.049z M19.691,485.671l-0.296-1.847l-0.304,1.847H19.691z M21.572,482.993h-0.688v-0.927h2.351
		v0.927h-0.688v4.669h-0.976L21.572,482.993L21.572,482.993z M23.644,482.065h1.007c1,0,1.728,0.527,1.728,1.783v0.072
		c0,0.728-0.288,1.191-0.655,1.472l0.751,2.271h-1.039l-0.632-1.951H24.62v1.951h-0.976
		C23.644,487.663,23.644,482.065,23.644,482.065z M24.668,484.832c0.424,0,0.735-0.248,0.735-0.903v-0.064
		c0-0.704-0.336-0.888-0.76-0.888H24.62v1.855H24.668z M26.843,482.065h0.976v5.597h-0.976V482.065z M28.395,486.031v-3.966h0.968
		v4.062c0,0.504,0.176,0.704,0.424,0.704s0.424-0.2,0.424-0.704v-4.062h0.968v3.966c0,1.175-0.592,1.703-1.392,1.703
		S28.395,487.207,28.395,486.031z M31.74,482.065h0.967l0.688,2.047l0.688-2.047h0.967v5.597h-0.936v-3.382l-0.711,2.119h-0.017
		l-0.711-2.119v3.382H31.74V482.065z"/>
	<path class="st4" d="M28.36,328.094h-0.688v-0.927h2.351v0.927h-0.688v4.669H28.36V328.094z M30.432,327.167h0.976v2.318h0.847
		v-2.318h0.976v5.597h-0.976v-2.351h-0.847v2.351h-0.976C30.432,332.764,30.432,327.167,30.432,327.167z M33.808,327.167h2.143
		v0.927h-1.167v1.391h1.031v0.928h-1.031v1.423h1.191v0.928h-2.167V327.167z M37.6,332.572v-1.016c0.344,0.2,0.615,0.312,0.88,0.312
		c0.279,0,0.52-0.136,0.52-0.479v-0.016c0-0.256-0.08-0.448-0.544-0.976c-0.664-0.751-0.936-1.111-0.936-1.791v-0.016
		c0-0.896,0.584-1.463,1.359-1.463c0.392,0,0.624,0.056,0.863,0.176v1.016c-0.304-0.176-0.487-0.256-0.743-0.256
		c-0.272,0-0.504,0.176-0.504,0.479v0.016c0,0.264,0.08,0.36,0.544,0.896c0.768,0.887,0.936,1.231,0.936,1.871v0.016
		c0,0.879-0.616,1.463-1.384,1.463C38.208,332.804,37.88,332.708,37.6,332.572z M40.303,331.133v-3.966h0.968v4.062
		c0,0.504,0.176,0.704,0.424,0.704s0.424-0.2,0.424-0.704v-4.062h0.968v3.966c0,1.175-0.592,1.703-1.392,1.703
		S40.303,332.308,40.303,331.133z M43.648,327.167h0.871c1.063,0,1.808,0.575,1.808,1.887v0.016c0,1.263-0.704,1.863-1.695,1.935
		h-0.008v1.759h-0.976C43.648,332.764,43.648,327.167,43.648,327.167z M44.631,330.101c0.407-0.024,0.72-0.32,0.72-1v-0.016
		c0-0.712-0.272-1.016-0.696-1.016h-0.031v2.031L44.631,330.101L44.631,330.101z M46.728,327.167h0.871
		c1.063,0,1.808,0.575,1.808,1.887v0.016c0,1.263-0.704,1.863-1.695,1.935h-0.008v1.759h-0.976
		C46.728,332.764,46.728,327.167,46.728,327.167z M47.712,330.101c0.407-0.024,0.72-0.32,0.72-1v-0.016
		c0-0.712-0.272-1.016-0.696-1.016h-0.031v2.031L47.712,330.101L47.712,330.101z M49.808,327.167h2.143v0.927h-1.167v1.391h1.031
		v0.928h-1.031v1.423h1.191v0.928h-2.167V327.167z M52.448,327.167h1.007c1,0,1.728,0.527,1.728,1.783v0.072
		c0,0.728-0.288,1.191-0.656,1.472l0.752,2.271H54.24l-0.632-1.951h-0.184v1.951h-0.976V327.167z M53.471,329.933
		c0.424,0,0.735-0.248,0.735-0.903v-0.064c0-0.704-0.336-0.888-0.76-0.888h-0.023v1.855H53.471z M56.807,330.061v-0.192
		c0-1.967,0.729-2.742,1.64-2.742c0.271,0,0.432,0.032,0.64,0.128v1.007c-0.2-0.12-0.359-0.184-0.544-0.184
		c-0.432,0-0.743,0.384-0.743,1.783v0.208c0,1.479,0.312,1.783,0.76,1.783c0.151,0,0.344-0.056,0.543-0.176v0.959
		c-0.224,0.128-0.439,0.168-0.72,0.168C57.487,332.804,56.807,332.012,56.807,330.061z M59.591,327.167h0.976v4.669h1.031v0.928
		h-2.007V327.167z M61.895,331.133v-3.966h0.968v4.062c0,0.504,0.176,0.704,0.424,0.704s0.424-0.2,0.424-0.704v-4.062h0.968v3.966
		c0,1.175-0.592,1.703-1.392,1.703C62.487,332.835,61.895,332.308,61.895,331.133z M65.239,327.167h0.848
		c0.943,0,1.822,0.384,1.822,1.423v0.04c0,0.72-0.407,1.071-0.808,1.263c0.473,0.208,0.88,0.536,0.88,1.248v0.072
		c0,0.992-0.768,1.551-1.854,1.551h-0.888V327.167z M66.231,329.518c0.432,0,0.72-0.248,0.72-0.736v-0.016
		c0-0.487-0.288-0.695-0.72-0.695h-0.016v1.447H66.231z M66.238,331.86c0.448,0,0.768-0.264,0.768-0.728v-0.04
		c0-0.464-0.319-0.728-0.768-0.728h-0.023v1.495h0.023V331.86z"/>
	<path class="st4" d="M50.626,276.941h2.143v0.927h-1.167v1.391h1.031v0.928h-1.031v1.423h1.191v0.928h-2.167V276.941z
		 M53.145,282.346v-1.016c0.344,0.2,0.615,0.312,0.88,0.312c0.279,0,0.52-0.136,0.52-0.479v-0.016c0-0.256-0.08-0.448-0.544-0.976
		c-0.664-0.751-0.936-1.111-0.936-1.791v-0.016c0-0.896,0.584-1.463,1.359-1.463c0.392,0,0.624,0.056,0.863,0.176v1.016
		c-0.304-0.176-0.487-0.256-0.743-0.256c-0.272,0-0.504,0.176-0.504,0.479v0.016c0,0.264,0.08,0.36,0.544,0.896
		c0.768,0.887,0.936,1.231,0.936,1.871v0.016c0,0.879-0.616,1.463-1.384,1.463C53.753,282.578,53.424,282.482,53.145,282.346z
		 M55.729,279.835v-0.192c0-1.967,0.729-2.742,1.64-2.742c0.271,0,0.432,0.032,0.64,0.128v1.007c-0.2-0.12-0.359-0.184-0.544-0.184
		c-0.432,0-0.743,0.384-0.743,1.783v0.208c0,1.479,0.312,1.783,0.76,1.783c0.151,0,0.344-0.056,0.543-0.176v0.959
		c-0.224,0.128-0.439,0.168-0.72,0.168C56.409,282.578,55.729,281.787,55.729,279.835z M59.297,276.925h1.04l1.062,5.613h-0.975
		l-0.185-1.111h-0.888l-0.176,1.111h-0.943L59.297,276.925z M60.096,280.547L59.8,278.7l-0.304,1.847H60.096z M61.698,276.941h0.871
		c1.063,0,1.808,0.575,1.808,1.887v0.016c0,1.263-0.704,1.863-1.695,1.935h-0.008v1.759h-0.976
		C61.698,282.538,61.698,276.941,61.698,276.941z M62.681,279.875c0.407-0.024,0.72-0.32,0.72-1v-0.016
		c0-0.712-0.272-1.016-0.696-1.016h-0.031v2.031L62.681,279.875L62.681,279.875z M64.777,276.941h2.142v0.927h-1.167v1.391h1.031
		v0.928h-1.031v1.423h1.191v0.928h-2.167L64.777,276.941L64.777,276.941z M69.208,277.869H68.52v-0.927h2.351v0.927h-0.688v4.669
		h-0.976v-4.669H69.208z M71.28,276.941h0.976v2.318h0.848v-2.318h0.975v5.597h-0.975v-2.351h-0.848v2.351H71.28V276.941z
		 M74.656,276.941h2.143v0.927h-1.167v1.391h1.031v0.928h-1.031v1.423h1.191v0.928h-2.167V276.941z M78.08,276.925h1.039
		l1.063,5.613h-0.975l-0.185-1.111h-0.888l-0.176,1.111h-0.943L78.08,276.925z M78.88,280.547l-0.296-1.847l-0.304,1.847H78.88z
		 M80.76,277.869h-0.688v-0.927h2.351v0.927h-0.688v4.669H80.76V277.869z M82.832,276.941h2.143v0.927h-1.167v1.391h1.031v0.928
		h-1.031v1.423h1.191v0.928h-2.167V276.941z M85.473,276.941h1.007c1,0,1.728,0.527,1.728,1.783v0.072
		c0,0.728-0.288,1.191-0.656,1.472l0.752,2.271h-1.039l-0.632-1.951h-0.184v1.951h-0.976
		C85.473,282.539,85.473,276.941,85.473,276.941z M86.496,279.708c0.424,0,0.735-0.248,0.735-0.903v-0.064
		c0-0.704-0.336-0.888-0.76-0.888h-0.023v1.855H86.496z"/>
	<path class="st4" d="M62.281,716.402h0.967l0.688,2.047l0.688-2.047h0.968v5.597h-0.936v-3.382l-0.711,2.118h-0.016l-0.712-2.118
		v3.382h-0.935v-5.597H62.281z M66.185,716.402h0.976v5.597h-0.976V716.402z M68.441,719.145l-0.88-2.742H68.6l0.44,1.615
		l0.447-1.615h1.016l-0.88,2.742l0.912,2.854h-1.04l-0.472-1.703l-0.479,1.703h-1.016L68.441,719.145z M71.536,719.145l-0.88-2.742
		h1.04l0.439,1.615l0.448-1.615h1.015l-0.879,2.742l0.911,2.854h-1.039l-0.472-1.703l-0.479,1.703h-1.016L71.536,719.145z
		 M63.393,724.402h0.848c0.943,0,1.823,0.384,1.823,1.423v0.04c0,0.72-0.408,1.071-0.808,1.264c0.472,0.208,0.879,0.535,0.879,1.247
		v0.072c0,0.991-0.768,1.551-1.854,1.551h-0.888C63.393,729.999,63.393,724.402,63.393,724.402z M64.384,726.753
		c0.432,0,0.72-0.248,0.72-0.735v-0.017c0-0.487-0.288-0.695-0.72-0.695h-0.016v1.447H64.384z M64.392,729.096
		c0.448,0,0.768-0.264,0.768-0.728v-0.04c0-0.464-0.32-0.728-0.768-0.728h-0.024v1.495h0.024V729.096z M67.288,724.386h1.04
		l1.062,5.613h-0.975l-0.185-1.111h-0.888l-0.176,1.111h-0.943L67.288,724.386z M68.088,728.008l-0.296-1.847l-0.304,1.847H68.088z
		 M69.689,724.402h1.008c0.999,0,1.727,0.527,1.727,1.783v0.071c0,0.728-0.288,1.191-0.655,1.472l0.752,2.271h-1.04l-0.632-1.951
		h-0.184v1.951h-0.976V724.402z M70.712,727.169c0.424,0,0.735-0.248,0.735-0.904v-0.063c0-0.704-0.336-0.888-0.759-0.888h-0.024
		v1.855H70.712z"/>
	<path class="st4" d="M109.383,714.711h-0.688v-0.928h2.351v0.928h-0.688v4.669h-0.976v-4.669H109.383z M111.998,713.768h1.04
		l1.062,5.612h-0.975l-0.185-1.111h-0.888l-0.176,1.111h-0.943L111.998,713.768z M112.798,717.39l-0.296-1.848l-0.304,1.848H112.798
		z M114.279,719.188v-1.016c0.344,0.2,0.615,0.312,0.88,0.312c0.279,0,0.52-0.136,0.52-0.479v-0.016c0-0.256-0.08-0.448-0.544-0.976
		c-0.664-0.752-0.936-1.111-0.936-1.791v-0.017c0-0.896,0.584-1.463,1.359-1.463c0.392,0,0.624,0.056,0.863,0.176v1.016
		c-0.304-0.176-0.487-0.256-0.743-0.256c-0.272,0-0.504,0.176-0.504,0.479v0.017c0,0.264,0.08,0.359,0.544,0.896
		c0.768,0.887,0.936,1.23,0.936,1.87v0.017c0,0.879-0.616,1.463-1.384,1.463C114.887,719.42,114.56,719.324,114.279,719.188z
		 M117.399,714.711h-0.688v-0.928h2.351v0.928h-0.688v4.669h-0.976v-4.669H117.399z M119.471,713.783h2.143v0.928h-1.167v1.391
		h1.031v0.928h-1.031v1.423h1.191v0.928h-2.167V713.783z M100.732,721.783h1.007c1,0,1.728,0.527,1.728,1.783v0.071
		c0,0.729-0.288,1.191-0.656,1.472l0.752,2.271h-1.039l-0.632-1.951h-0.184v1.951h-0.976
		C100.732,727.38,100.732,721.783,100.732,721.783z M101.755,724.55c0.424,0,0.735-0.248,0.735-0.903v-0.064
		c0-0.703-0.336-0.888-0.76-0.888h-0.023v1.855L101.755,724.55L101.755,724.55z M103.915,721.783h2.143v0.928h-1.167v1.391h1.031
		v0.928h-1.031v1.423h1.191v0.928h-2.167V721.783z M106.436,727.188v-1.016c0.344,0.2,0.615,0.312,0.88,0.312
		c0.279,0,0.52-0.136,0.52-0.479v-0.016c0-0.256-0.08-0.448-0.544-0.976c-0.664-0.752-0.936-1.111-0.936-1.791v-0.017
		c0-0.896,0.584-1.463,1.359-1.463c0.392,0,0.624,0.056,0.863,0.176v1.016c-0.304-0.176-0.487-0.256-0.743-0.256
		c-0.272,0-0.504,0.176-0.504,0.479v0.017c0,0.264,0.08,0.359,0.544,0.896c0.768,0.887,0.936,1.23,0.936,1.87v0.017
		c0,0.879-0.616,1.463-1.384,1.463C107.043,727.42,106.716,727.324,106.436,727.188z M109.555,722.711h-0.688v-0.928h2.351v0.928
		h-0.688v4.669h-0.976v-4.669H109.555z M112.17,721.768h1.04l1.062,5.612h-0.975l-0.185-1.111h-0.888l-0.176,1.111h-0.943
		L112.17,721.768z M112.97,725.39l-0.296-1.848l-0.304,1.848H112.97z M114.515,725.749v-3.966h0.968v4.062
		c0,0.504,0.176,0.704,0.424,0.704s0.424-0.2,0.424-0.704v-4.062h0.968v3.966c0,1.176-0.592,1.703-1.392,1.703
		S114.515,726.925,114.515,725.749z M117.86,721.783h1.007c1,0,1.728,0.527,1.728,1.783v0.071c0,0.729-0.288,1.191-0.655,1.472
		l0.751,2.271h-1.039l-0.632-1.951h-0.184v1.951h-0.976V721.783z M118.883,724.55c0.424,0,0.735-0.248,0.735-0.903v-0.064
		c0-0.703-0.336-0.888-0.76-0.888h-0.023v1.855L118.883,724.55L118.883,724.55z M121.826,721.768h1.04l1.062,5.612h-0.975
		l-0.185-1.111h-0.888l-0.176,1.111h-0.943L121.826,721.768z M122.626,725.39l-0.296-1.848l-0.304,1.848H122.626z M124.227,721.783
		h0.911l0.983,2.83v-2.83h0.952v5.597h-0.864l-1.031-2.966v2.966h-0.951L124.227,721.783L124.227,721.783z M128.171,722.711h-0.687
		v-0.928h2.351v0.928h-0.688v4.669h-0.976V722.711z"/>
	<path class="st4" d="M14.618,718.893v-1.016c0.344,0.2,0.615,0.312,0.88,0.312c0.279,0,0.52-0.136,0.52-0.479v-0.016
		c0-0.256-0.08-0.448-0.544-0.976c-0.664-0.752-0.936-1.111-0.936-1.791v-0.017c0-0.896,0.584-1.463,1.359-1.463
		c0.392,0,0.624,0.056,0.863,0.176v1.016c-0.304-0.176-0.487-0.256-0.743-0.256c-0.272,0-0.504,0.176-0.504,0.479v0.017
		c0,0.264,0.08,0.359,0.544,0.896c0.768,0.887,0.936,1.23,0.936,1.87v0.017c0,0.879-0.616,1.463-1.384,1.463
		C15.225,719.124,14.898,719.028,14.618,718.893z M18.121,713.472h1.039l1.063,5.612h-0.975l-0.185-1.111h-0.888l-0.176,1.111
		h-0.943L18.121,713.472z M18.921,717.094l-0.296-1.848l-0.304,1.848H18.921z M20.162,713.487h0.991l0.528,3.646l0.527-3.646h0.96
		l-1,5.613h-1.007L20.162,713.487z M23.289,716.43v-0.288c0-1.847,0.601-2.734,1.487-2.734c0.888,0,1.487,0.888,1.487,2.734v0.288
		c0,1.847-0.6,2.734-1.487,2.734S23.289,718.276,23.289,716.43z M25.272,716.43v-0.288c0-1.439-0.2-1.839-0.496-1.839
		s-0.495,0.399-0.495,1.839v0.288c0,1.439,0.199,1.839,0.495,1.839S25.272,717.869,25.272,716.43z M26.746,713.487h1.007
		c1,0,1.728,0.527,1.728,1.783v0.071c0,0.729-0.288,1.191-0.656,1.472l0.752,2.271h-1.039l-0.632-1.951h-0.184v1.951h-0.976
		C26.746,719.084,26.746,713.487,26.746,713.487z M27.769,716.254c0.424,0,0.735-0.248,0.735-0.903v-0.064
		c0-0.703-0.336-0.888-0.76-0.888h-0.023v1.855L27.769,716.254L27.769,716.254z M7.578,721.487h1.007c1,0,1.728,0.527,1.728,1.783
		v0.071c0,0.729-0.288,1.191-0.656,1.472l0.752,2.271h-1.04l-0.632-1.951H8.553v1.951H7.578V721.487z M8.601,724.254
		c0.424,0,0.735-0.248,0.735-0.903v-0.064c0-0.703-0.336-0.888-0.76-0.888H8.553v1.855L8.601,724.254L8.601,724.254z
		 M10.761,721.487h2.143v0.928h-1.167v1.391h1.031v0.928h-1.031v1.423h1.191v0.928h-2.167V721.487z M13.282,726.893v-1.016
		c0.344,0.2,0.615,0.312,0.88,0.312c0.279,0,0.52-0.136,0.52-0.479v-0.016c0-0.256-0.08-0.448-0.544-0.976
		c-0.664-0.752-0.936-1.111-0.936-1.791v-0.017c0-0.896,0.584-1.463,1.359-1.463c0.392,0,0.624,0.056,0.863,0.176v1.016
		c-0.304-0.176-0.487-0.256-0.743-0.256c-0.272,0-0.504,0.176-0.504,0.479v0.017c0,0.264,0.08,0.359,0.544,0.896
		c0.768,0.887,0.936,1.23,0.936,1.87v0.017c0,0.879-0.616,1.463-1.384,1.463C13.889,727.124,13.562,727.028,13.282,726.893z
		 M16.401,722.415h-0.688v-0.928h2.351v0.928h-0.688v4.669H16.4L16.401,722.415L16.401,722.415z M19.016,721.472h1.04l1.062,5.612
		h-0.975l-0.185-1.111H19.07l-0.176,1.111h-0.943L19.016,721.472z M19.816,725.094l-0.296-1.848l-0.304,1.848H19.816z
		 M21.361,725.453v-3.966h0.968v4.062c0,0.504,0.176,0.704,0.424,0.704s0.424-0.2,0.424-0.704v-4.062h0.968v3.966
		c0,1.176-0.592,1.703-1.392,1.703S21.361,726.629,21.361,725.453z M24.706,721.487h1.007c1,0,1.728,0.527,1.728,1.783v0.071
		c0,0.729-0.288,1.191-0.655,1.472l0.751,2.271h-1.039l-0.632-1.951h-0.184v1.951h-0.976V721.487z M25.729,724.254
		c0.424,0,0.735-0.248,0.735-0.903v-0.064c0-0.703-0.336-0.888-0.76-0.888h-0.023v1.855L25.729,724.254L25.729,724.254z
		 M28.673,721.472h1.04l1.062,5.612H29.8l-0.185-1.111h-0.888l-0.176,1.111h-0.943L28.673,721.472z M29.472,725.094l-0.296-1.848
		l-0.304,1.848H29.472z M31.073,721.487h0.911l0.983,2.83v-2.83h0.952v5.597h-0.864l-1.031-2.966v2.966h-0.951
		C31.073,727.084,31.073,721.487,31.073,721.487z M35.017,722.415H34.33v-0.928h2.351v0.928h-0.688v4.669h-0.976
		C35.017,727.084,35.017,722.415,35.017,722.415z"/>
	<path class="st4" d="M109.211,808.463v-0.288c0-1.847,0.6-2.734,1.487-2.734s1.487,0.888,1.487,2.734v0.288
		c0,1.847-0.6,2.734-1.487,2.734S109.211,810.31,109.211,808.463z M111.194,808.463v-0.288c0-1.439-0.199-1.839-0.495-1.839
		s-0.496,0.399-0.496,1.839v0.288c0,1.438,0.2,1.839,0.496,1.839S111.194,809.901,111.194,808.463z M112.667,805.521h0.871
		c1.063,0,1.808,0.575,1.808,1.887v0.016c0,1.264-0.704,1.863-1.695,1.936h-0.008v1.759h-0.976V805.521z M113.651,808.455
		c0.407-0.024,0.72-0.32,0.72-1v-0.016c0-0.712-0.272-1.016-0.696-1.016h-0.031v2.031L113.651,808.455L113.651,808.455z
		 M115.747,805.521h2.143v0.928h-1.168v1.391h1.032v0.928h-1.032v1.423h1.191v0.928h-2.166V805.521z M118.387,805.521h0.911
		l0.983,2.83v-2.83h0.952v5.597h-0.864l-1.031-2.967v2.967h-0.951L118.387,805.521L118.387,805.521z M123.603,806.448h-0.688v-0.928
		h2.352v0.928h-0.688v4.669h-0.976C123.603,811.117,123.603,806.448,123.603,806.448z M125.419,808.463v-0.288
		c0-1.847,0.6-2.734,1.486-2.734c0.888,0,1.487,0.888,1.487,2.734v0.288c0,1.847-0.6,2.734-1.487,2.734
		C126.019,811.197,125.419,810.31,125.419,808.463z M127.402,808.463v-0.288c0-1.439-0.2-1.839-0.496-1.839
		s-0.495,0.399-0.495,1.839v0.288c0,1.438,0.199,1.839,0.495,1.839S127.402,809.901,127.402,808.463z M105.247,813.521h0.911
		c1.247,0,1.959,0.903,1.959,2.702v0.192c0,1.799-0.712,2.702-1.959,2.702h-0.911V813.521z M106.263,818.222
		c0.463,0,0.863-0.408,0.863-1.807v-0.192c0-1.399-0.4-1.807-0.863-1.807h-0.04v3.806H106.263z M108.599,813.521h2.143v0.928h-1.167
		v1.391h1.031v0.928h-1.031v1.423h1.191v0.928h-2.167V813.521z M111.063,816.415v-0.192c0-1.967,0.728-2.742,1.64-2.742
		c0.271,0,0.432,0.032,0.64,0.128v1.007c-0.2-0.119-0.36-0.184-0.544-0.184c-0.432,0-0.743,0.384-0.743,1.783v0.208
		c0,1.479,0.312,1.783,0.759,1.783c0.152,0,0.344-0.057,0.544-0.176v0.959c-0.224,0.128-0.439,0.168-0.72,0.168
		C111.742,819.157,111.063,818.365,111.063,816.415z M113.847,813.521h0.976v2.343l0.791-2.343h1.104l-0.943,2.366l0.96,3.23h-1.088
		l-0.607-2.119l-0.216,0.616v1.503h-0.976L113.847,813.521L113.847,813.521z M118.343,813.521h0.848
		c0.943,0,1.823,0.384,1.823,1.423v0.04c0,0.72-0.408,1.071-0.808,1.264c0.472,0.208,0.879,0.535,0.879,1.247v0.072
		c0,0.991-0.768,1.551-1.854,1.551h-0.888V813.521z M119.334,815.871c0.432,0,0.72-0.248,0.72-0.735v-0.017
		c0-0.487-0.288-0.695-0.72-0.695h-0.016v1.447H119.334z M119.342,818.214c0.448,0,0.768-0.264,0.768-0.728v-0.04
		c0-0.464-0.319-0.728-0.768-0.728h-0.023v1.495h0.023V818.214z M122.311,817.414c0.056,0.672,0.336,0.903,0.647,0.903
		c0.288,0,0.472-0.12,0.751-0.312l0.072,0.863c-0.328,0.216-0.584,0.328-0.943,0.328c-0.8,0-1.471-0.728-1.471-2.111v-0.208
		c0-1.375,0.591-2.11,1.303-2.11c0.744,0,1.216,0.743,1.216,2.15v0.496h-1.575C122.311,817.413,122.311,817.414,122.311,817.414z
		 M122.302,816.671h0.696c0-0.72-0.104-1.063-0.328-1.063C122.454,815.607,122.319,815.911,122.302,816.671z M124.278,813.48h0.943
		v5.637h-0.943V813.48z M125.679,817.11v-0.256c0-1.375,0.56-2.087,1.327-2.087s1.327,0.712,1.327,2.087v0.256
		c0,1.375-0.56,2.087-1.327,2.087S125.679,818.485,125.679,817.11z M127.39,817.126v-0.287c0-0.848-0.144-1.231-0.384-1.231
		s-0.384,0.384-0.384,1.231v0.287c0,0.832,0.144,1.231,0.384,1.231S127.39,817.958,127.39,817.126z M128.527,814.831h0.96
		l0.319,2.399l0.36-2.399h0.768l0.359,2.399l0.32-2.399h0.943l-0.728,4.302H130.9l-0.36-2.326l-0.359,2.326h-0.928L128.527,814.831z
		"/>
	<path class="st4" d="M84.139,493.233h0.848c0.943,0,1.822,0.384,1.822,1.423v0.04c0,0.72-0.407,1.071-0.808,1.263
		c0.473,0.208,0.88,0.536,0.88,1.248v0.072c0,0.992-0.768,1.551-1.854,1.551h-0.888V493.233z M85.13,495.584
		c0.432,0,0.72-0.248,0.72-0.736v-0.016c0-0.487-0.288-0.695-0.72-0.695h-0.016v1.447H85.13z M85.138,497.927
		c0.448,0,0.768-0.264,0.768-0.728v-0.04c0-0.464-0.319-0.728-0.768-0.728h-0.023v1.495h0.023V497.927z M88.034,493.217h1.039
		l1.063,5.613h-0.975l-0.185-1.111H88.09l-0.176,1.111h-0.943L88.034,493.217z M88.834,496.839l-0.296-1.847l-0.304,1.847H88.834z
		 M90.435,493.233h1.007c1,0,1.728,0.527,1.728,1.783v0.072c0,0.728-0.288,1.191-0.656,1.472l0.752,2.271h-1.039l-0.632-1.951H91.41
		v1.951h-0.976L90.435,493.233L90.435,493.233z M91.458,496c0.424,0,0.735-0.248,0.735-0.903v-0.064c0-0.704-0.336-0.888-0.76-0.888
		H91.41V496H91.458z M95.674,493.217h1.04l1.062,5.613h-0.975l-0.185-1.111H95.73l-0.176,1.111H94.61L95.674,493.217z
		 M96.474,496.839l-0.296-1.847l-0.304,1.847H96.474z M98.355,494.161h-0.688v-0.927h2.351v0.927H99.33v4.669h-0.976L98.355,494.161
		L98.355,494.161z M79.102,502.161h-0.688v-0.927h2.351v0.927h-0.688v4.669h-0.976v-4.669H79.102z M81.174,501.233h0.976v2.318
		h0.848v-2.318h0.975v5.597h-0.975v-2.351H82.15v2.351h-0.976V501.233z M84.55,501.233h2.143v0.927h-1.167v1.391h1.031v0.928h-1.031
		v1.423h1.191v0.928H84.55V501.233z M89.245,501.217h1.039l1.063,5.613h-0.975l-0.185-1.111h-0.888l-0.176,1.111H88.18
		L89.245,501.217z M90.045,504.839l-0.296-1.847l-0.304,1.847H90.045z M91.926,502.161h-0.688v-0.927h2.351v0.927h-0.688v4.669
		h-0.976v-4.669H91.926z M93.998,501.233h1.007c1,0,1.728,0.527,1.728,1.783v0.072c0,0.728-0.288,1.191-0.655,1.472l0.751,2.271
		H95.79l-0.632-1.951h-0.184v1.951h-0.976V501.233z M95.022,504c0.424,0,0.735-0.248,0.735-0.903v-0.064
		c0-0.704-0.336-0.888-0.76-0.888h-0.023V504H95.022z M97.197,501.233h0.976v5.597h-0.976V501.233z M98.749,505.199v-3.966h0.968
		v4.062c0,0.504,0.176,0.704,0.424,0.704s0.424-0.2,0.424-0.704v-4.062h0.968v3.966c0,1.175-0.592,1.703-1.392,1.703
		S98.749,506.375,98.749,505.199z M102.094,501.233h0.967l0.688,2.047l0.688-2.047h0.967v5.597h-0.936v-3.382l-0.711,2.119h-0.017
		l-0.711-2.119v3.382h-0.936L102.094,501.233L102.094,501.233z"/>
	<path class="st4" d="M108.718,518.515v-0.192c0-1.967,0.729-2.742,1.64-2.742c0.271,0,0.432,0.032,0.64,0.128v1.007
		c-0.2-0.12-0.359-0.184-0.544-0.184c-0.432,0-0.743,0.384-0.743,1.783v0.208c0,1.479,0.312,1.783,0.76,1.783
		c0.151,0,0.344-0.056,0.543-0.176v0.959c-0.224,0.128-0.439,0.168-0.72,0.168C109.398,521.258,108.718,520.466,108.718,518.515z
		 M112.285,515.605h1.04l1.062,5.613h-0.975l-0.185-1.111h-0.888l-0.176,1.111h-0.943L112.285,515.605z M113.085,519.227
		l-0.296-1.847l-0.304,1.847H113.085z M114.687,515.621h2.039v0.927h-1.063v1.407h0.927v0.927h-0.927v2.335h-0.976V515.621z
		 M117.166,515.621h2.143v0.927h-1.167v1.391h1.031v0.928h-1.031v1.423h1.191v0.928h-2.167V515.621z M118.526,514.326l0.808,0.4
		l-0.792,0.615h-0.704L118.526,514.326z M121.861,515.605h1.04l1.062,5.613h-0.975l-0.185-1.111h-0.888l-0.176,1.111h-0.943
		L121.861,515.605z M122.661,519.227l-0.296-1.847l-0.304,1.847H122.661z M124.542,516.548h-0.688v-0.927h2.351v0.927h-0.688v4.669
		h-0.976v-4.669H124.542z M104.533,524.549h-0.688v-0.928h2.351v0.928h-0.688v4.669h-0.976v-4.669H104.533z M106.606,523.621h0.976
		v2.318h0.848v-2.318h0.975v5.597h-0.975v-2.351h-0.848v2.351h-0.976V523.621z M109.982,523.621h2.143v0.928h-1.167v1.391h1.031
		v0.928h-1.031v1.423h1.191v0.928h-2.167V523.621z M114.677,523.605h1.039l1.063,5.612h-0.975l-0.185-1.111h-0.888l-0.176,1.111
		h-0.943L114.677,523.605z M115.477,527.228l-0.296-1.848l-0.304,1.848H115.477z M117.358,524.549h-0.688v-0.928h2.351v0.928h-0.688
		v4.669h-0.976v-4.669H117.358z M119.43,523.621h1.007c1,0,1.728,0.527,1.728,1.783v0.071c0,0.729-0.288,1.191-0.655,1.472
		l0.751,2.271h-1.039l-0.632-1.951h-0.184v1.951h-0.976C119.43,529.218,119.43,523.621,119.43,523.621z M120.453,526.388
		c0.424,0,0.735-0.248,0.735-0.903v-0.064c0-0.703-0.336-0.888-0.76-0.888h-0.023v1.855L120.453,526.388L120.453,526.388z
		 M122.629,523.621h0.976v5.597h-0.976V523.621z M124.181,527.587v-3.966h0.968v4.062c0,0.504,0.176,0.704,0.424,0.704
		s0.424-0.2,0.424-0.704v-4.062h0.968v3.966c0,1.176-0.592,1.703-1.392,1.703S124.181,528.763,124.181,527.587z M127.526,523.621
		h0.967l0.688,2.047l0.688-2.047h0.967v5.597H129.9v-3.382l-0.711,2.119h-0.017l-0.711-2.119v3.382h-0.936L127.526,523.621
		L127.526,523.621z"/>
	<path class="st4" d="M31.378,517.681v-0.192c0-1.807,0.768-2.742,1.87-2.742c0.296,0,0.544,0.064,0.744,0.16v1.016
		c-0.24-0.144-0.456-0.24-0.712-0.24c-0.56,0-0.911,0.56-0.911,1.767v0.272c0,1.463,0.432,1.799,0.831,1.799
		c0.032,0,0.04,0,0.088-0.008v-1.431h-0.479v-0.872h1.367v2.975c-0.352,0.152-0.64,0.24-1.016,0.24
		C32.184,520.424,31.378,519.632,31.378,517.681z M34.697,518.753v-3.966h0.968v4.062c0,0.504,0.176,0.704,0.424,0.704
		s0.424-0.2,0.424-0.704v-4.062h0.968v3.966c0,1.175-0.592,1.703-1.392,1.703S34.697,519.928,34.697,518.753z M38.041,514.787h2.143
		v0.927h-1.167v1.391h1.031v0.928h-1.031v1.423h1.191v0.928h-2.167V514.787z M40.561,520.192v-1.016
		c0.344,0.2,0.615,0.312,0.88,0.312c0.279,0,0.52-0.136,0.52-0.479v-0.016c0-0.256-0.08-0.448-0.544-0.976
		c-0.664-0.751-0.936-1.111-0.936-1.791v-0.016c0-0.896,0.584-1.463,1.359-1.463c0.392,0,0.624,0.056,0.863,0.176v1.016
		c-0.304-0.176-0.487-0.256-0.743-0.256c-0.272,0-0.504,0.176-0.504,0.479v0.016c0,0.264,0.08,0.36,0.544,0.896
		c0.768,0.887,0.936,1.231,0.936,1.871v0.016c0,0.879-0.616,1.463-1.384,1.463C41.169,520.424,40.84,520.328,40.561,520.192z
		 M43.68,515.714h-0.688v-0.927h2.351v0.927h-0.688v4.669H43.68V515.714z M46.905,520.192v-1.016c0.344,0.2,0.615,0.312,0.88,0.312
		c0.279,0,0.52-0.136,0.52-0.479v-0.016c0-0.256-0.08-0.448-0.544-0.976c-0.664-0.751-0.936-1.111-0.936-1.791v-0.016
		c0-0.896,0.584-1.463,1.359-1.463c0.392,0,0.624,0.056,0.863,0.176v1.016c-0.304-0.176-0.487-0.256-0.743-0.256
		c-0.272,0-0.504,0.176-0.504,0.479v0.016c0,0.264,0.08,0.36,0.544,0.896c0.768,0.887,0.936,1.231,0.936,1.871v0.016
		c0,0.879-0.616,1.463-1.384,1.463C47.512,520.424,47.184,520.328,46.905,520.192z M49.625,514.787h2.143v0.927H50.6v1.391h1.031
		v0.928H50.6v1.423h1.191v0.928h-2.167L49.625,514.787L49.625,514.787z M52.265,514.787h1.007c1,0,1.728,0.527,1.728,1.783v0.072
		c0,0.728-0.288,1.191-0.655,1.472l0.751,2.271h-1.039l-0.632-1.951h-0.184v1.951h-0.976V514.787z M53.289,517.553
		c0.424,0,0.735-0.248,0.735-0.903v-0.064c0-0.704-0.336-0.888-0.76-0.888h-0.023v1.855L53.289,517.553L53.289,517.553z
		 M55.169,514.787h0.991l0.528,3.646l0.527-3.646h0.96l-1,5.613h-1.007L55.169,514.787z M58.488,514.787h0.976v5.597h-0.976V514.787
		z M59.96,517.681v-0.192c0-1.967,0.729-2.742,1.64-2.742c0.271,0,0.432,0.032,0.64,0.128v1.007c-0.2-0.12-0.359-0.184-0.544-0.184
		c-0.432,0-0.743,0.384-0.743,1.783v0.208c0,1.479,0.312,1.783,0.76,1.783c0.151,0,0.344-0.056,0.543-0.176v0.959
		c-0.224,0.128-0.439,0.168-0.72,0.168C60.639,520.424,59.96,519.632,59.96,517.681z M62.745,514.787h2.143v0.927H63.72v1.391h1.031
		v0.928H63.72v1.423h1.191v0.928h-2.167L62.745,514.787L62.745,514.787z M65.265,520.192v-1.016c0.344,0.2,0.615,0.312,0.88,0.312
		c0.279,0,0.52-0.136,0.52-0.479v-0.016c0-0.256-0.08-0.448-0.544-0.976c-0.664-0.751-0.936-1.111-0.936-1.791v-0.016
		c0-0.896,0.584-1.463,1.36-1.463c0.392,0,0.624,0.056,0.863,0.176v1.016c-0.304-0.176-0.487-0.256-0.743-0.256
		c-0.272,0-0.504,0.176-0.504,0.479v0.016c0,0.264,0.08,0.36,0.544,0.896c0.768,0.887,0.936,1.231,0.936,1.871v0.016
		c0,0.879-0.616,1.463-1.384,1.463C65.872,520.424,65.544,520.328,65.265,520.192z"/>
	<path class="st4" d="M118.458,419.609v-0.192c0-1.967,0.729-2.742,1.64-2.742c0.271,0,0.432,0.032,0.64,0.128v1.007
		c-0.2-0.12-0.359-0.184-0.544-0.184c-0.432,0-0.743,0.384-0.743,1.783v0.208c0,1.479,0.312,1.783,0.76,1.783
		c0.151,0,0.344-0.056,0.543-0.176v0.959c-0.224,0.128-0.439,0.168-0.72,0.168C119.138,422.352,118.458,421.561,118.458,419.609z
		 M122.026,416.699h1.04l1.062,5.613h-0.975l-0.185-1.111h-0.888l-0.176,1.111h-0.943L122.026,416.699z M122.825,420.321
		l-0.296-1.847l-0.304,1.847H122.825z M124.427,416.715h1.007c1,0,1.728,0.527,1.728,1.783v0.072c0,0.728-0.288,1.191-0.656,1.472
		l0.752,2.271h-1.039l-0.632-1.951h-0.184v1.951h-0.976V416.715z M125.45,419.481c0.424,0,0.735-0.248,0.735-0.903v-0.064
		c0-0.704-0.336-0.888-0.76-0.888h-0.023v1.855H125.45z M127.61,416.715h0.911c1.247,0,1.959,0.903,1.959,2.702v0.192
		c0,1.799-0.712,2.703-1.959,2.703h-0.911C127.61,422.312,127.61,416.715,127.61,416.715z M128.626,421.417
		c0.463,0,0.863-0.408,0.863-1.807v-0.192c0-1.399-0.4-1.807-0.863-1.807h-0.04v3.806H128.626z M117.863,424.715h1.007
		c1,0,1.728,0.527,1.728,1.783v0.072c0,0.728-0.288,1.191-0.655,1.472l0.751,2.271h-1.039l-0.632-1.951h-0.184v1.951h-0.976
		C117.863,430.313,117.863,424.715,117.863,424.715z M118.887,427.481c0.424,0,0.735-0.248,0.735-0.903v-0.064
		c0-0.704-0.336-0.888-0.76-0.888h-0.023v1.855H118.887z M120.95,427.658v-0.288c0-1.847,0.601-2.734,1.487-2.734
		c0.888,0,1.487,0.887,1.487,2.734v0.288c0,1.847-0.6,2.734-1.487,2.734C121.551,430.392,120.95,429.504,120.95,427.658z
		 M122.934,427.658v-0.288c0-1.439-0.2-1.839-0.496-1.839s-0.495,0.399-0.495,1.839v0.288c0,1.439,0.199,1.839,0.495,1.839
		S122.934,429.097,122.934,427.658z M124.312,427.658v-0.288c0-1.847,0.6-2.734,1.486-2.734c0.888,0,1.487,0.887,1.487,2.734v0.288
		c0,1.847-0.6,2.734-1.487,2.734C124.911,430.392,124.312,429.504,124.312,427.658z M126.294,427.658v-0.288
		c0-1.439-0.2-1.839-0.496-1.839s-0.495,0.399-0.495,1.839v0.288c0,1.439,0.199,1.839,0.495,1.839S126.294,429.097,126.294,427.658z
		 M127.768,424.715h0.967l0.688,2.047l0.688-2.047h0.967v5.597h-0.936v-3.382l-0.711,2.119h-0.017l-0.711-2.119v3.382h-0.936
		L127.768,424.715L127.768,424.715z"/>
	<path class="st4" d="M121.008,447.97h-0.688v-0.927h2.351v0.927h-0.688v4.669h-0.976v-4.669H121.008z M123.08,447.042h0.976v2.318
		h0.847v-2.318h0.976v5.597h-0.976v-2.351h-0.847v2.351h-0.976V447.042z M126.456,447.042h2.143v0.927h-1.167v1.391h1.031v0.928
		h-1.031v1.423h1.191v0.928h-2.167V447.042z M115.636,455.042h0.976v4.669h1.031v0.928h-2.007V455.042z M118.052,455.042h0.976
		v5.597h-0.976V455.042z M119.62,455.042h0.848c0.943,0,1.822,0.384,1.822,1.423v0.04c0,0.72-0.407,1.071-0.808,1.263
		c0.473,0.208,0.88,0.536,0.88,1.248v0.072c0,0.992-0.768,1.551-1.854,1.551h-0.888V455.042z M120.611,457.393
		c0.432,0,0.72-0.248,0.72-0.736v-0.016c0-0.487-0.288-0.695-0.72-0.695h-0.016v1.447H120.611z M120.619,459.736
		c0.448,0,0.768-0.264,0.768-0.728v-0.04c0-0.464-0.319-0.728-0.768-0.728h-0.023v1.495h0.023V459.736z M122.772,455.042h1.007
		c1,0,1.728,0.527,1.728,1.783v0.072c0,0.728-0.288,1.191-0.656,1.472l0.752,2.271h-1.039l-0.632-1.951h-0.184v1.951h-0.976V455.042
		z M123.795,457.809c0.424,0,0.735-0.248,0.735-0.903v-0.064c0-0.704-0.336-0.888-0.76-0.888h-0.023v1.855H123.795z
		 M126.739,455.026h1.04l1.062,5.613h-0.975l-0.185-1.111h-0.888l-0.176,1.111h-0.943L126.739,455.026z M127.539,458.648
		l-0.296-1.847l-0.304,1.847H127.539z M129.14,455.042h1.007c1,0,1.728,0.527,1.728,1.783v0.072c0,0.728-0.288,1.191-0.655,1.472
		l0.751,2.271h-1.039l-0.632-1.951h-0.184v1.951h-0.976V455.042z M130.163,457.809c0.424,0,0.735-0.248,0.735-0.903v-0.064
		c0-0.704-0.336-0.888-0.76-0.888h-0.023v1.855H130.163z M132.914,458.432l-1.039-3.39h1.008l0.527,2.095l0.536-2.095h0.983
		l-1.04,3.39v2.207h-0.976v-2.207H132.914z"/>
	<path class="st4" d="M89.923,427.03h0.726l0.516,1.535l0.516-1.536h0.726l0.002,4.197h-0.701l-0.002-2.536l-0.533,1.59h-0.012
		l-0.534-1.589l0.002,2.536h-0.702L89.923,427.03z M92.839,427.028l1.607-0.001v0.696H93.57l0.001,1.043h0.773v0.695h-0.773v1.067
		h0.894l0.001,0.696l-1.625,0.001L92.839,427.028z M94.819,427.027l1.607-0.001v0.696H95.55l0.001,1.043h0.773v0.695h-0.773v1.067
		h0.894l0.001,0.696l-1.625,0.001L94.819,427.027z M97.189,427.722h-0.516v-0.696l1.763-0.001v0.696H97.92l0.002,3.501h-0.731
		L97.189,427.722z M98.754,427.025h0.732l0.002,4.197h-0.732L98.754,427.025z M99.931,427.024h0.684l0.738,2.123l-0.001-2.123h0.713
		l0.002,4.197h-0.646l-0.774-2.224l0.001,2.224h-0.714L99.931,427.024z M102.427,429.194v-0.144
		c-0.001-1.355,0.575-2.057,1.402-2.057c0.222,0,0.408,0.047,0.558,0.119v0.762c-0.18-0.108-0.342-0.179-0.533-0.179
		c-0.42,0-0.684,0.419-0.683,1.325v0.204c0,1.098,0.324,1.349,0.624,1.349c0.024,0,0.03,0,0.066-0.006l-0.001-1.073h-0.359v-0.654
		h1.025l0.001,2.23c-0.265,0.114-0.48,0.18-0.762,0.18C103.034,431.25,102.428,430.657,102.427,429.194z M92.257,433.028h0.756
		c0.749,0,1.295,0.395,1.296,1.336v0.054c0,0.546-0.216,0.894-0.491,1.104l0.564,1.703h-0.779l-0.476-1.463h-0.138l0.001,1.463
		h-0.731L92.257,433.028z M93.026,435.103c0.318,0,0.552-0.186,0.552-0.678v-0.048c-0.001-0.527-0.253-0.666-0.57-0.665h-0.019
		l0.001,1.391L93.026,435.103L93.026,435.103z M94.573,435.234v-0.216c-0.001-1.385,0.449-2.051,1.115-2.051
		c0.665,0,1.115,0.665,1.116,2.05v0.216c0.001,1.385-0.449,2.051-1.114,2.052C95.025,437.284,94.574,436.619,94.573,435.234z
		 M96.061,435.233v-0.216c-0.001-1.079-0.15-1.379-0.372-1.378c-0.223,0-0.372,0.3-0.371,1.379v0.216
		c0.001,1.079,0.15,1.379,0.373,1.379C95.912,436.612,96.062,436.312,96.061,435.233z M97.094,435.232v-0.216
		c-0.001-1.385,0.449-2.051,1.115-2.051c0.665,0,1.115,0.666,1.116,2.05v0.216c0.001,1.385-0.449,2.051-1.114,2.051
		C97.545,437.283,97.095,436.618,97.094,435.232z M98.581,435.231v-0.216c-0.001-1.079-0.15-1.378-0.372-1.378
		c-0.223,0-0.372,0.3-0.371,1.379v0.216c0.001,1.079,0.15,1.379,0.373,1.379C98.433,436.611,98.582,436.311,98.581,435.231z
		 M99.685,433.024h0.726l0.517,1.535l0.515-1.536h0.725l0.002,4.198h-0.7l-0.001-2.537l-0.533,1.59h-0.012l-0.534-1.589l0.001,2.537
		h-0.702L99.685,433.024z"/>
	<path class="st4" d="M89.923,447.53h0.726l0.516,1.535l0.516-1.536h0.726l0.002,4.197h-0.701l-0.002-2.536l-0.533,1.59h-0.012
		l-0.534-1.589l0.002,2.536h-0.702L89.923,447.53z M92.839,447.528l1.607-0.001v0.696H93.57l0.001,1.043h0.773v0.695h-0.773v1.067
		h0.894l0.001,0.696l-1.625,0.001L92.839,447.528z M94.819,447.527l1.607-0.001v0.696H95.55l0.001,1.043h0.773v0.695h-0.773v1.067
		h0.894l0.001,0.696l-1.625,0.001L94.819,447.527z M97.189,448.222h-0.516v-0.696l1.763-0.001v0.696H97.92l0.002,3.501h-0.731
		L97.189,448.222z M98.754,447.525h0.732l0.002,4.197h-0.732L98.754,447.525z M99.931,447.524h0.684l0.738,2.123l-0.001-2.123h0.713
		l0.002,4.197h-0.646l-0.774-2.224l0.001,2.224h-0.714L99.931,447.524z M102.427,449.694v-0.144
		c-0.001-1.355,0.575-2.057,1.402-2.057c0.222,0,0.408,0.047,0.558,0.119v0.762c-0.18-0.108-0.342-0.179-0.533-0.179
		c-0.42,0-0.684,0.419-0.683,1.325v0.204c0,1.098,0.324,1.349,0.624,1.349c0.024,0,0.03,0,0.066-0.006l-0.001-1.073h-0.359v-0.654
		h1.025l0.001,2.23c-0.265,0.114-0.48,0.18-0.762,0.18C103.034,451.75,102.428,451.157,102.427,449.694z M92.257,453.528h0.756
		c0.749,0,1.295,0.395,1.296,1.336v0.054c0,0.546-0.216,0.894-0.491,1.104l0.564,1.703h-0.779l-0.476-1.463h-0.138l0.001,1.463
		h-0.731L92.257,453.528z M93.026,455.603c0.318,0,0.552-0.186,0.552-0.678v-0.048c-0.001-0.527-0.253-0.666-0.57-0.665h-0.019
		l0.001,1.391L93.026,455.603L93.026,455.603z M94.573,455.734v-0.216c-0.001-1.385,0.449-2.051,1.115-2.051
		c0.665,0,1.115,0.665,1.116,2.05v0.216c0.001,1.385-0.449,2.051-1.114,2.052C95.025,457.784,94.574,457.119,94.573,455.734z
		 M96.061,455.733v-0.216c-0.001-1.079-0.15-1.379-0.372-1.378c-0.223,0-0.372,0.3-0.371,1.379v0.216
		c0.001,1.079,0.15,1.379,0.373,1.379C95.912,457.112,96.062,456.812,96.061,455.733z M97.094,455.732v-0.216
		c-0.001-1.385,0.449-2.051,1.115-2.051c0.665,0,1.115,0.666,1.116,2.05v0.216c0.001,1.385-0.449,2.051-1.114,2.051
		C97.545,457.783,97.095,457.118,97.094,455.732z M98.581,455.731v-0.216c-0.001-1.079-0.15-1.378-0.372-1.378
		c-0.223,0-0.372,0.3-0.371,1.379v0.216c0.001,1.079,0.15,1.379,0.373,1.379C98.433,457.111,98.582,456.811,98.581,455.731z
		 M99.685,453.524h0.726l0.517,1.535l0.515-1.536h0.725l0.002,4.198h-0.7l-0.001-2.537l-0.533,1.59h-0.012l-0.534-1.589l0.001,2.537
		h-0.702L99.685,453.524z"/>
	<path class="st4" d="M6.654,456.065H7.63v5.597H6.654V456.065z M8.222,456.065h0.911l0.983,2.83v-2.83h0.952v5.597h-0.864
		l-1.031-2.966v2.966H8.222V456.065z M12.166,456.993h-0.688v-0.927h2.351v0.927h-0.688v4.669h-0.976L12.166,456.993L12.166,456.993
		z M14.238,456.065h2.143v0.927h-1.167v1.391h1.031v0.928h-1.031v1.423h1.191v0.928h-2.167
		C14.238,461.662,14.238,456.065,14.238,456.065z M16.879,456.065h1.007c1,0,1.728,0.527,1.728,1.783v0.072
		c0,0.728-0.288,1.191-0.655,1.472l0.751,2.271h-1.04l-0.632-1.951h-0.184v1.951h-0.976L16.879,456.065L16.879,456.065z
		 M17.902,458.832c0.424,0,0.735-0.248,0.735-0.903v-0.064c0-0.704-0.336-0.888-0.76-0.888h-0.023v1.855H17.902z M20.062,456.065
		h0.911l0.983,2.83v-2.83h0.952v5.597h-0.864l-1.031-2.966v2.966h-0.951C20.062,461.662,20.062,456.065,20.062,456.065z
		 M23.486,456.065h2.143v0.927h-1.167v1.391h1.031v0.928h-1.031v1.423h1.191v0.928h-2.167V456.065z M26.645,456.993h-0.688v-0.927
		h2.351v0.927H27.62v4.669h-0.976L26.645,456.993L26.645,456.993z M12.087,466.959v-0.192c0-1.967,0.728-2.742,1.639-2.742
		c0.271,0,0.432,0.032,0.64,0.128v1.007c-0.2-0.12-0.36-0.184-0.544-0.184c-0.432,0-0.743,0.384-0.743,1.783v0.208
		c0,1.479,0.312,1.783,0.76,1.783c0.151,0,0.344-0.056,0.543-0.176v0.959c-0.224,0.128-0.439,0.168-0.72,0.168
		C12.765,469.702,12.087,468.911,12.087,466.959z M15.654,464.049h1.04l1.062,5.613h-0.975l-0.185-1.111H15.71l-0.176,1.111H14.59
		L15.654,464.049z M16.454,467.671l-0.296-1.847l-0.304,1.847H16.454z M18.054,464.065h2.039v0.927H19.03v1.407h0.927v0.927H19.03
		v2.335h-0.976V464.065z M20.534,464.065h2.143v0.927H21.51v1.391h1.031v0.928H21.51v1.423h1.191v0.928h-2.167V464.065z
		 M21.893,462.77l0.808,0.4l-0.792,0.615h-0.703L21.893,462.77z"/>
	<path class="st4" d="M88.371,631.87h0.976v4.669h1.031v0.928h-2.007V631.87z M90.771,631.87h2.143v0.928h-1.167v1.391h1.031v0.928
		h-1.031v1.423h1.191v0.928h-2.167V631.87z M94.683,631.87h0.848c0.943,0,1.822,0.384,1.822,1.423v0.04
		c0,0.72-0.407,1.071-0.808,1.264c0.473,0.208,0.88,0.535,0.88,1.247v0.072c0,0.991-0.768,1.551-1.854,1.551h-0.888V631.87z
		 M95.674,634.221c0.432,0,0.72-0.248,0.72-0.735v-0.017c0-0.487-0.288-0.695-0.72-0.695h-0.016v1.447H95.674z M95.682,636.563
		c0.448,0,0.768-0.264,0.768-0.728v-0.04c0-0.464-0.319-0.728-0.768-0.728h-0.023v1.495h0.023V636.563z M97.851,631.87h0.976v5.597
		h-0.976V631.87z M99.299,637.275v-1.016c0.344,0.2,0.615,0.312,0.88,0.312c0.279,0,0.52-0.136,0.52-0.479v-0.016
		c0-0.256-0.08-0.448-0.544-0.976c-0.664-0.752-0.936-1.111-0.936-1.791v-0.017c0-0.896,0.584-1.463,1.359-1.463
		c0.392,0,0.624,0.056,0.863,0.176v1.016c-0.304-0.176-0.487-0.256-0.743-0.256c-0.272,0-0.504,0.176-0.504,0.479v0.017
		c0,0.264,0.08,0.359,0.544,0.896c0.768,0.887,0.936,1.23,0.936,1.87v0.017c0,0.879-0.616,1.463-1.384,1.463
		C99.906,637.507,99.578,637.411,99.299,637.275z M102.418,632.798h-0.688v-0.928h2.351v0.928h-0.688v4.669h-0.976v-4.669H102.418z
		 M104.491,631.87h1.007c1,0,1.728,0.527,1.728,1.783v0.071c0,0.729-0.288,1.191-0.655,1.472l0.751,2.271h-1.039l-0.632-1.951
		h-0.184v1.951h-0.976V631.87z M105.515,634.637c0.424,0,0.735-0.248,0.735-0.903v-0.064c0-0.703-0.336-0.888-0.76-0.888h-0.023
		v1.855L105.515,634.637L105.515,634.637z M107.578,634.812v-0.288c0-1.847,0.601-2.734,1.487-2.734
		c0.888,0,1.487,0.888,1.487,2.734v0.288c0,1.847-0.6,2.734-1.487,2.734C108.179,637.547,107.578,636.659,107.578,634.812z
		 M109.562,634.812v-0.288c0-1.439-0.2-1.839-0.496-1.839s-0.495,0.399-0.495,1.839v0.288c0,1.439,0.199,1.839,0.495,1.839
		S109.562,636.252,109.562,634.812z M90.808,639.87h2.039v0.928h-1.063v1.407h0.927v0.927h-0.927v2.335h-0.976V639.87z
		 M93.288,639.87h1.007c1,0,1.728,0.527,1.728,1.783v0.071c0,0.729-0.288,1.191-0.655,1.472l0.751,2.271H95.08l-0.632-1.951h-0.184
		v1.951h-0.976V639.87z M94.312,642.637c0.424,0,0.735-0.248,0.735-0.903v-0.064c0-0.703-0.336-0.888-0.76-0.888h-0.023v1.855
		L94.312,642.637L94.312,642.637z M96.472,639.87h2.143v0.928h-1.167v1.391h1.031v0.928h-1.031v1.423h1.191v0.928h-2.167V639.87z
		 M99.111,639.87h0.911l0.983,2.83v-2.83h0.951v5.597h-0.863l-1.031-2.966v2.966h-0.951C99.111,645.467,99.111,639.87,99.111,639.87
		z M102.44,642.765v-0.192c0-1.967,0.728-2.742,1.639-2.742c0.271,0,0.432,0.032,0.64,0.128v1.008c-0.2-0.12-0.36-0.185-0.544-0.185
		c-0.432,0-0.743,0.384-0.743,1.783v0.208c0,1.479,0.312,1.783,0.76,1.783c0.151,0,0.344-0.056,0.543-0.176v0.959
		c-0.224,0.128-0.439,0.168-0.72,0.168C103.118,645.507,102.44,644.716,102.44,642.765z M105.224,639.87h0.976v2.318h0.848v-2.318
		h0.975v5.597h-0.975v-2.351H106.2v2.351h-0.976V639.87z M84.947,647.87h1.007c1,0,1.728,0.527,1.728,1.783v0.071
		c0,0.729-0.288,1.191-0.656,1.472l0.752,2.271h-1.039l-0.632-1.951h-0.184v1.951h-0.976
		C84.947,653.467,84.947,647.87,84.947,647.87z M85.971,650.637c0.424,0,0.735-0.248,0.735-0.903v-0.064
		c0-0.703-0.336-0.888-0.76-0.888h-0.023v1.855L85.971,650.637L85.971,650.637z M88.131,647.87h2.143v0.928h-1.167v1.391h1.031
		v0.928h-1.031v1.423h1.191v0.928h-2.167V647.87z M90.652,653.275v-1.016c0.344,0.2,0.615,0.312,0.88,0.312
		c0.279,0,0.52-0.136,0.52-0.479v-0.016c0-0.256-0.08-0.448-0.544-0.976c-0.664-0.752-0.936-1.111-0.936-1.791v-0.017
		c0-0.896,0.584-1.463,1.359-1.463c0.392,0,0.624,0.056,0.863,0.176v1.016c-0.304-0.176-0.487-0.256-0.743-0.256
		c-0.272,0-0.504,0.176-0.504,0.479v0.017c0,0.264,0.08,0.359,0.544,0.896c0.768,0.887,0.936,1.23,0.936,1.87v0.017
		c0,0.879-0.616,1.463-1.384,1.463C91.259,653.507,90.932,653.411,90.652,653.275z M93.771,648.798h-0.688v-0.928h2.351v0.928
		h-0.688v4.669H93.77v-4.669H93.771z M96.386,647.854h1.04l1.062,5.612h-0.975l-0.185-1.111H96.44l-0.176,1.111h-0.943
		L96.386,647.854z M97.186,651.477l-0.296-1.848l-0.304,1.848H97.186z M98.731,651.836v-3.966h0.968v4.062
		c0,0.504,0.176,0.704,0.424,0.704s0.424-0.2,0.424-0.704v-4.062h0.968v3.966c0,1.176-0.592,1.703-1.392,1.703
		S98.731,653.012,98.731,651.836z M102.075,647.87h1.007c1,0,1.728,0.527,1.728,1.783v0.071c0,0.729-0.288,1.191-0.655,1.472
		l0.751,2.271h-1.039l-0.632-1.951h-0.184v1.951h-0.976V647.87z M103.099,650.637c0.424,0,0.735-0.248,0.735-0.903v-0.064
		c0-0.703-0.336-0.888-0.76-0.888h-0.023v1.855L103.099,650.637L103.099,650.637z M106.042,647.854h1.04l1.062,5.612h-0.975
		l-0.185-1.111h-0.888l-0.176,1.111h-0.943L106.042,647.854z M106.842,651.477l-0.296-1.848l-0.304,1.848H106.842z M108.443,647.87
		h0.911l0.983,2.83v-2.83h0.952v5.597h-0.864l-1.031-2.966v2.966h-0.951L108.443,647.87L108.443,647.87z M112.387,648.798h-0.688
		v-0.928h2.351v0.928h-0.688v4.669h-0.976v-4.669H112.387z"/>
	<path class="st4" d="M21.62,633.694v-0.288c0-1.847,0.6-2.734,1.487-2.734c0.888,0,1.487,0.888,1.487,2.734v0.288
		c0,1.847-0.6,2.734-1.487,2.734C22.22,636.429,21.62,635.541,21.62,633.694z M23.603,633.694v-0.288c0-1.439-0.2-1.839-0.496-1.839
		c-0.295,0-0.496,0.399-0.496,1.839v0.288c0,1.439,0.2,1.839,0.496,1.839C23.403,635.533,23.603,635.134,23.603,633.694z
		 M25.076,630.752h0.872c1.063,0,1.807,0.575,1.807,1.887v0.016c0,1.264-0.704,1.863-1.695,1.936h-0.008v1.759h-0.976V630.752z
		 M26.06,633.687c0.408-0.024,0.719-0.32,0.719-1v-0.016c0-0.712-0.272-1.016-0.695-1.016h-0.032v2.031L26.06,633.687L26.06,633.687
		z M28.156,630.752h2.143v0.927h-1.167v1.392h1.031v0.928h-1.031v1.423h1.191v0.928h-2.167V630.752z M30.796,630.752h0.911
		l0.983,2.83v-2.83h0.952v5.597h-0.863l-1.032-2.967v2.967h-0.951V630.752z M36.011,631.679h-0.688v-0.927h2.351v0.927h-0.688v4.67
		H36.01L36.011,631.679L36.011,631.679z M37.828,633.694v-0.288c0-1.847,0.6-2.734,1.487-2.734s1.487,0.888,1.487,2.734v0.288
		c0,1.847-0.6,2.734-1.487,2.734C38.427,636.429,37.828,635.541,37.828,633.694z M39.811,633.694v-0.288
		c0-1.439-0.2-1.839-0.496-1.839s-0.496,0.399-0.496,1.839v0.288c0,1.439,0.2,1.839,0.496,1.839S39.811,635.134,39.811,633.694z
		 M17.312,638.752h0.912c1.247,0,1.959,0.903,1.959,2.702v0.192c0,1.799-0.712,2.702-1.959,2.702h-0.912V638.752z M18.327,643.453
		c0.464,0,0.864-0.408,0.864-1.807v-0.192c0-1.399-0.4-1.807-0.864-1.807h-0.04v3.806H18.327z M20.664,638.752h2.143v0.927H21.64
		v1.392h1.032v0.928H21.64v1.423h1.191v0.928h-2.167V638.752z M23.128,641.646v-0.192c0-1.967,0.728-2.742,1.639-2.742
		c0.272,0,0.432,0.032,0.64,0.128v1.007c-0.2-0.119-0.36-0.184-0.544-0.184c-0.432,0-0.744,0.384-0.744,1.783v0.208
		c0,1.479,0.312,1.783,0.76,1.783c0.152,0,0.344-0.057,0.544-0.177v0.96c-0.224,0.128-0.44,0.168-0.72,0.168
		C23.808,644.389,23.128,643.597,23.128,641.646z M25.912,638.752h0.976v2.343l0.792-2.343h1.104l-0.943,2.366l0.959,3.23h-1.087
		l-0.608-2.119l-0.216,0.616v1.503h-0.976L25.912,638.752L25.912,638.752z M31.192,638.735h1.04l1.063,5.613H32.32l-0.184-1.111
		h-0.888l-0.176,1.111h-0.943L31.192,638.735z M31.991,642.357l-0.295-1.847l-0.304,1.847H31.991z M33.592,638.752h0.848
		c0.943,0,1.823,0.384,1.823,1.423v0.04c0,0.72-0.408,1.071-0.808,1.264c0.472,0.208,0.879,0.535,0.879,1.247v0.072
		c0,0.991-0.768,1.551-1.854,1.551h-0.888C33.592,644.349,33.592,638.752,33.592,638.752z M34.583,641.103
		c0.432,0,0.72-0.248,0.72-0.735v-0.017c0-0.487-0.288-0.695-0.72-0.695h-0.016v1.447H34.583z M34.591,643.445
		c0.448,0,0.768-0.264,0.768-0.728v-0.04c0-0.464-0.32-0.728-0.768-0.728h-0.024v1.495h0.024V643.445z M36.648,641.694v-0.288
		c0-1.847,0.6-2.734,1.487-2.734c0.888,0,1.487,0.888,1.487,2.734v0.288c0,1.847-0.6,2.734-1.487,2.734
		C37.248,644.429,36.648,643.541,36.648,641.694z M38.631,641.694v-0.288c0-1.439-0.2-1.839-0.496-1.839s-0.496,0.399-0.496,1.839
		v0.288c0,1.439,0.2,1.839,0.496,1.839S38.631,643.134,38.631,641.694z M39.744,638.752h0.991l0.528,3.646l0.528-3.646h0.959
		l-0.999,5.612h-1.008L39.744,638.752z M43.048,638.752h2.143v0.927h-1.167v1.392h1.032v0.928h-1.032v1.423h1.191v0.928h-2.167
		C43.048,644.35,43.048,638.752,43.048,638.752z"/>
	<path class="st4" d="M9.642,611.835h0.976v2.318h0.847v-2.318h0.976v5.597h-0.976v-2.351h-0.847v2.351H9.642V611.835z
		 M13.018,611.835h2.143v0.928h-1.167v1.391h1.031v0.928h-1.031v1.423h1.191v0.928h-2.167V611.835z M16.442,611.818h1.04
		l1.063,5.613h-0.976l-0.184-1.111h-0.887l-0.176,1.111h-0.943L16.442,611.818z M17.241,615.44l-0.296-1.847l-0.304,1.847H17.241z
		 M18.842,611.835h0.912c1.247,0,1.959,0.903,1.959,2.702v0.192c0,1.799-0.712,2.702-1.959,2.702h-0.912V611.835z M19.858,616.536
		c0.464,0,0.863-0.408,0.863-1.807v-0.192c0-1.399-0.399-1.807-0.863-1.807h-0.04v3.806H19.858z M22.194,611.835h0.976v4.669h1.031
		v0.928h-2.007V611.835z M24.61,611.835h0.975v5.597H24.61V611.835z M26.178,611.835h0.912l0.983,2.83v-2.83h0.951v5.597h-0.863
		l-1.032-2.967v2.967h-0.951V611.835z M29.602,611.835h2.143v0.928h-1.167v1.391h1.031v0.928h-1.031v1.423h1.191v0.928h-2.167
		V611.835z M32.242,611.835h1.007c1,0,1.727,0.527,1.727,1.783v0.071c0,0.728-0.288,1.191-0.656,1.472l0.751,2.271h-1.039
		l-0.632-1.951h-0.184v1.951h-0.975L32.242,611.835L32.242,611.835z M33.265,614.602c0.423,0,0.735-0.248,0.735-0.904v-0.063
		c0-0.704-0.336-0.888-0.759-0.888h-0.024v1.855H33.265z M35.306,617.239v-1.015c0.344,0.199,0.616,0.312,0.879,0.312
		c0.28,0,0.52-0.136,0.52-0.479v-0.017c0-0.256-0.08-0.447-0.543-0.975c-0.664-0.752-0.936-1.112-0.936-1.791v-0.017
		c0-0.896,0.583-1.463,1.359-1.463c0.392,0,0.624,0.056,0.863,0.176v1.016c-0.304-0.176-0.488-0.256-0.744-0.256
		c-0.271,0-0.503,0.176-0.503,0.479v0.016c0,0.265,0.08,0.36,0.543,0.896c0.768,0.888,0.936,1.231,0.936,1.871v0.017
		c0,0.879-0.616,1.463-1.383,1.463C35.913,617.472,35.586,617.376,35.306,617.239z M7.966,622.729v-0.192
		c0-1.967,0.728-2.742,1.639-2.742c0.272,0,0.432,0.032,0.64,0.128v1.007c-0.2-0.119-0.36-0.184-0.543-0.184
		c-0.432,0-0.744,0.384-0.744,1.783v0.208c0,1.479,0.312,1.783,0.76,1.783c0.152,0,0.344-0.057,0.543-0.176v0.959
		c-0.224,0.128-0.439,0.168-0.72,0.168C8.646,625.472,7.966,624.68,7.966,622.729z M10.454,622.777v-0.288
		c0-1.847,0.6-2.734,1.487-2.734c0.887,0,1.487,0.888,1.487,2.734v0.288c0,1.847-0.6,2.734-1.487,2.734
		C11.054,625.512,10.454,624.624,10.454,622.777z M12.437,622.777v-0.288c0-1.439-0.2-1.839-0.496-1.839s-0.496,0.399-0.496,1.839
		v0.288c0,1.438,0.2,1.839,0.496,1.839S12.437,624.216,12.437,622.777z M13.91,619.835h0.967l0.688,2.047l0.688-2.047h0.967v5.597
		h-0.936v-3.382l-0.711,2.118h-0.016l-0.711-2.118v3.382H13.91V619.835z M17.798,619.835h0.912c1.248,0,1.959,0.903,1.959,2.702
		v0.192c0,1.799-0.711,2.702-1.959,2.702h-0.912V619.835z M18.814,624.536c0.464,0,0.863-0.408,0.863-1.807v-0.192
		c0-1.399-0.399-1.807-0.863-1.807h-0.04v3.806H18.814z M21.15,619.835h2.143v0.928h-1.167v1.391h1.031v0.928h-1.031v1.423h1.191
		v0.928H21.15V619.835z M24.542,623.225l-1.04-3.39h1.007l0.528,2.095l0.536-2.095h0.983l-1.04,3.39v2.207h-0.975v-2.207H24.542z
		 M28.022,622.729v-0.192c0-1.967,0.728-2.742,1.639-2.742c0.272,0,0.432,0.032,0.64,0.128v1.007c-0.2-0.119-0.36-0.184-0.543-0.184
		c-0.432,0-0.744,0.384-0.744,1.783v0.208c0,1.479,0.312,1.783,0.76,1.783c0.152,0,0.344-0.057,0.543-0.176v0.959
		c-0.224,0.128-0.439,0.168-0.72,0.168C28.701,625.472,28.022,624.68,28.022,622.729z M30.806,619.835h0.976v4.669h1.031v0.928
		h-2.007V619.835z M33.11,623.801v-3.966h0.968v4.062c0,0.504,0.176,0.704,0.424,0.704s0.424-0.2,0.424-0.704v-4.062h0.967v3.966
		c0,1.175-0.592,1.703-1.391,1.703C33.701,625.504,33.11,624.976,33.11,623.801z M36.454,619.835h0.847
		c0.944,0,1.823,0.384,1.823,1.423v0.04c0,0.72-0.408,1.071-0.808,1.264c0.472,0.208,0.879,0.535,0.879,1.247v0.072
		c0,0.991-0.768,1.551-1.855,1.551h-0.887L36.454,619.835L36.454,619.835z M37.445,622.186c0.432,0,0.72-0.248,0.72-0.735v-0.017
		c0-0.487-0.288-0.695-0.72-0.695h-0.016v1.447H37.445z M37.453,624.528c0.448,0,0.768-0.264,0.768-0.728v-0.04
		c0-0.464-0.32-0.728-0.768-0.728h-0.024v1.495h0.024V624.528z"/>
</g>
<g id="ESCAPE_DECK_06_TOP">
	<path class="st5" d="M68.895,0.569c-5.334,0-5.997,5.678-14.667,17.75C43.811,32.819,3.56,78.651,0.56,157.485
		c0,0,0,843.5,0,858.668c12.083,14.75,28.166,17.998,61.834,17.998c0.541,1.48,2.5,3.334,6.5,3.334h0.166
		c3.999,0,5.749-1.791,6.499-3.334c33.668,0,49.752-3.248,61.834-17.998c0-15.168,0-858.668,0-858.668
		c-3-78.834-43.25-124.666-53.666-139.166C75.055,6.247,74.393,0.569,69.06,0.569H68.895L68.895,0.569z"/>
	<g id="gDeck06Locations">
		<rect id="_x30_6Aft" y="656.163" class="st6" width="137.912" height="381.601"/>
		<rect id="_x30_6Middle" y="357.213" class="st6" width="137.912" height="298.95"/>
		<rect id="_x30_6Forward" y="-0.041" class="st6" width="137.912" height="357.254"/>
	</g>
</g>
</svg>
