<?xml version="1.0" encoding="utf-8"?>
<!-- Generator: Adobe Illustrator 23.0.2, SVG Export Plug-In . SVG Version: 6.00 Build 0)  -->
<svg version="1.1" id="ESCAPE_DECK_19" xmlns="http://www.w3.org/2000/svg" xmlns:xlink="http://www.w3.org/1999/xlink" x="0px"
	 y="0px" width="137.196px" height="779.888px" viewBox="0 0 137.196 779.888" style="enable-background:new 0 0 137.196 779.888;"
	 xml:space="preserve">
<style type="text/css">
	.st0{fill:#FFFFFF;}
	.st1{fill:none;stroke:#D5DCE0;stroke-width:0.5;}
	.st2{fill:#DFEDF1;stroke:#CEDFE5;stroke-width:0.5;}
	.st3{fill:none;stroke:#FFFFFF;stroke-width:4;stroke-linejoin:round;stroke-miterlimit:500;}
	.st4{fill:#DFEDF1;}
	.st5{fill:none;}
	.st6{fill:#CCDDE2;}
	.st7{fill:#6E8496;}
	.st8{fill:none;stroke:#076FA0;stroke-miterlimit:10;}
</style>
<g id="ESCAPE_DECK_19_BOTTOM">
	<path class="st0" d="M68.776,350.422h39.181v-75.096l13.692,0.166c0-0.001,0.07-71.513,0.07-71.513l6.014-6.452l0.008-10.216
		l-5.996-5.834l0.164-121.152l5.49-5.583V43.99l-5.465-5.669c0,0,0.021-16.959,0.021-17.679c0-5.778-1.6-8.619-8.924-11.721
		c-11.176-4.734-20.809-7.99-43.635-7.99h-0.336h-0.285h-1.201H67.29h-0.337c-22.825,0-32.458,3.256-43.635,7.99
		c-7.323,3.102-8.924,5.942-8.924,11.721c0,0.72,0.023,17.679,0.023,17.679L8.951,43.99v10.751l5.49,5.583l0.165,134.165
		l-5.997,5.835l0.008,10.216l6.014,6.452c0,0,0.07,58.5,0.07,58.501l13.692-0.166v75.096h39.181H68.776z"/>
	<path class="st0" d="M92.251,728.392v-86h-49.5v86H29.418v39.599c0.896-0.28,1.849-0.432,2.837-0.432
		c4.197,0,7.752,2.725,9.009,6.5h15.154v4.833h22.667v-4.833h14.661c1.257-3.775,4.812-6.5,9.009-6.5c0.865,0,1.7,0.126,2.497,0.343
		v-39.51H92.251z"/>
	<polygon class="st0" points="76.751,540.049 76.751,533.059 52.668,533.059 52.668,540.049 47.751,540.049 47.751,609.123 
		87.418,609.123 87.418,540.049 	"/>
	<path class="st1" d="M92.25,728.391v-86h-49.5v86H29.417v39.599c0.896-0.28,1.849-0.432,2.837-0.432c4.197,0,7.752,2.725,9.009,6.5
		h15.154v4.833h22.667v-4.833h14.661c1.257-3.775,4.812-6.5,9.009-6.5c0.865,0,1.7,0.126,2.497,0.343v-39.51H92.25z"/>
	<rect x="23.271" y="616.246" class="st1" width="8.5" height="2.625"/>
	<polygon class="st1" points="25.021,619.746 25.021,611.246 22.958,609.183 21.271,611.246 21.271,619.746 	"/>
	<polygon class="st1" points="22.937,623.871 12.962,623.871 10.542,625.934 12.962,627.621 22.937,627.621 	"/>
	<polygon class="st1" points="116.208,627.996 121.271,627.996 121.271,623.996 112.771,623.996 	"/>
	<polygon class="st1" points="114.521,627.496 114.521,612.746 112.708,610.308 110.771,612.746 110.771,627.496 	"/>
	<polygon class="st1" points="16.01,675.537 10.436,675.537 9.083,677.325 10.436,678.787 16.01,678.787 	"/>
	<polygon class="st1" points="22.937,691.954 9.686,691.954 8.958,694.017 9.686,695.704 22.937,695.704 	"/>
	<circle class="st1" cx="23.084" cy="625.975" r="2.5"/>
	<circle class="st1" cx="46.917" cy="625.975" r="2.5"/>
	<circle class="st1" cx="23.084" cy="608.975" r="2.5"/>
	<circle class="st1" cx="23.084" cy="643.058" r="2.5"/>
	<circle class="st1" cx="23.084" cy="659.892" r="2.5"/>
	<circle class="st1" cx="36.917" cy="659.892" r="2.5"/>
	<circle class="st1" cx="23.084" cy="676.975" r="2.5"/>
	<circle class="st1" cx="23.084" cy="693.892" r="2.5"/>
	<circle class="st1" cx="36.75" cy="693.892" r="2.5"/>
	<circle class="st1" cx="8.917" cy="625.975" r="2.5"/>
	<circle class="st1" cx="8.917" cy="643.058" r="2.5"/>
	<circle class="st1" cx="8.917" cy="676.975" r="2.5"/>
	<circle class="st1" cx="8.917" cy="693.892" r="2.5"/>
	<circle class="st1" cx="112.583" cy="625.975" r="2.5"/>
	<circle class="st1" cx="126.25" cy="625.975" r="2.5"/>
	<circle class="st1" cx="112.583" cy="608.975" r="2.5"/>
	<circle class="st1" cx="112.583" cy="643.058" r="2.5"/>
	<circle class="st1" cx="127.083" cy="643.058" r="2.5"/>
	<circle class="st1" cx="112.583" cy="659.892" r="2.5"/>
	<circle class="st1" cx="98.417" cy="659.892" r="2.5"/>
	<circle class="st1" cx="112.583" cy="676.975" r="2.5"/>
	<circle class="st1" cx="126.583" cy="676.975" r="2.5"/>
	<circle class="st1" cx="112.583" cy="693.892" r="2.5"/>
	<circle class="st1" cx="126.417" cy="693.892" r="2.5"/>
	<circle class="st1" cx="88.917" cy="625.975" r="2.5"/>
	<circle class="st1" cx="65.917" cy="625.975" r="2.5"/>
	<circle class="st1" cx="98.417" cy="636.392" r="2.5"/>
	<circle class="st1" cx="64.75" cy="636.392" r="2.5"/>
	<circle class="st1" cx="36.75" cy="636.392" r="2.5"/>
	<circle class="st1" cx="98.417" cy="674.975" r="2.5"/>
	<circle class="st1" cx="98.417" cy="693.892" r="2.5"/>
	<circle class="st1" cx="98.417" cy="711.058" r="2.5"/>
	<circle class="st1" cx="116.583" cy="711.058" r="2.5"/>
	<rect x="58.417" y="518.892" class="st1" width="18.333" height="14.167"/>
	<rect x="58.542" y="532.215" class="st1" width="7.606" height="0.97"/>
	<rect x="58.542" y="531.255" class="st1" width="7.606" height="0.971"/>
	<rect x="58.542" y="530.252" class="st1" width="7.606" height="0.97"/>
	<polygon class="st1" points="64.903,529.293 58.542,529.293 58.542,530.262 66.148,530.262 	"/>
	<polygon class="st1" points="63.639,528.29 58.542,528.29 58.542,529.26 64.89,529.26 	"/>
	<rect x="58.542" y="527.33" class="st1" width="3.627" height="0.97"/>
	<polyline class="st1" points="62.438,527.297 66.154,530.276 66.148,526.327 	"/>
	<path class="st1" d="M62.45,532.578c0,0.136-0.06,0.244-0.134,0.244l0,0c-0.074,0-0.135-0.108-0.135-0.244v-6.272
		c0-0.136,0.06-0.244,0.135-0.244l0,0c0.074,0,0.134,0.108,0.134,0.244V532.578z"/>
	<rect x="69.042" y="532.215" class="st1" width="7.606" height="0.97"/>
	<rect x="69.042" y="531.255" class="st1" width="7.606" height="0.971"/>
	<rect x="69.042" y="530.252" class="st1" width="7.606" height="0.97"/>
	<polygon class="st1" points="75.403,529.293 69.042,529.293 69.042,530.262 76.648,530.262 	"/>
	<polygon class="st1" points="74.139,528.29 69.042,528.29 69.042,529.26 75.39,529.26 	"/>
	<rect x="69.042" y="527.33" class="st1" width="3.627" height="0.97"/>
	<line class="st1" x1="72.938" y1="527.297" x2="76.654" y2="530.276"/>
	<path class="st1" d="M72.95,532.578c0,0.136-0.06,0.244-0.134,0.244l0,0c-0.074,0-0.135-0.108-0.135-0.244v-6.272
		c0-0.136,0.06-0.244,0.135-0.244l0,0c0.074,0,0.134,0.108,0.134,0.244V532.578z"/>
	<rect x="66.146" y="524.433" class="st1" width="2.813" height="8.375"/>
	<path class="st2" d="M128.717,514.374l-1.726-1.012c0.634-1.082,1.256-2.285,1.899-3.675c3.916-8.455,0.749-16.867-4.402-20.808
		c-5.09-3.892-11.574-3.321-17.345,1.527l-1.287-1.531c6.539-5.496,13.957-6.087,19.847-1.584
		c5.785,4.423,9.361,13.825,5.002,23.235C130.035,511.977,129.384,513.236,128.717,514.374z"/>
	<path class="st3" d="M100.701,531.593c11.306-2.573,21.105-7.411,27.153-17.725"/>
	<path class="st2" d="M85.559,534.196c-1.732,0-3.495-0.055-5.287-0.165l0.123-1.996c7.239,0.445,13.997-0.032,20.084-1.417
		l0.443,1.949C96.162,533.652,91.012,534.196,85.559,534.196z"/>
	
		<rect x="104.189" y="487.607" transform="matrix(0.7797 -0.6262 0.6262 0.7797 -283.7967 174.1688)" class="st0" width="2.833" height="5.535"/>
	<path class="st2" d="M127.993,506.317l-1.654-1.123c0.675-0.993,1.3-2.036,1.859-3.1c3.981-7.578,2.168-14.084-1.396-17.17
		c-4.146-3.59-10.532-3.062-16.664,1.382l-1.174-1.619c8.276-5.999,15.319-4.593,19.146-1.274c5,4.329,5.746,12.211,1.856,19.611
		C129.374,504.154,128.71,505.262,127.993,506.317z"/>
	<path class="st3" d="M100.406,521.668c11.142-2.186,20.8-7.148,26.76-15.913"/>
	<path class="st2" d="M85.486,524.03c-1.706,0-3.442-0.047-5.205-0.14l0.105-1.998c7.142,0.378,13.814-0.026,19.828-1.206
		l0.385,1.963C95.915,523.569,90.849,524.03,85.486,524.03z"/>
	<polygon class="st0" points="76.75,540.049 76.75,533.058 52.667,533.058 52.667,540.049 47.75,540.049 47.75,609.123 
		87.417,609.123 87.417,540.049 	"/>
	<rect x="71.196" y="525.977" transform="matrix(0.008 -1 1 0.008 -447.6922 602.246)" class="st0" width="17" height="1.58"/>
	<line class="st1" x1="113.573" y1="677.218" x2="99.308" y2="660.189"/>
	<line class="st1" x1="127.528" y1="677.218" x2="113.263" y2="660.189"/>
	<polygon class="st1" points="113.263,694.171 117.139,711.277 127.217,694.094 127.217,625.823 113.03,608.948 	"/>
	<line class="st1" x1="113.573" y1="676.758" x2="99.308" y2="693.787"/>
	<line class="st1" x1="127.528" y1="676.758" x2="113.263" y2="693.787"/>
	<line class="st1" x1="127.333" y1="676.988" x2="113.34" y2="676.988"/>
	<polyline class="st1" points="127.217,694.094 99.308,694.171 117.139,711.277 	"/>
	<line class="st1" x1="0.436" y1="626.015" x2="136.583" y2="626.015"/>
	<line class="st1" x1="65.653" y1="625.9" x2="65.653" y2="636.204"/>
	<line class="st1" x1="104.458" y1="617.156" x2="113.34" y2="617.156"/>
	<line class="st1" x1="25.958" y1="617.156" x2="34.84" y2="617.156"/>
	<line class="st1" x1="23.208" y1="694.248" x2="23.208" y2="608.756"/>
	<polyline class="st1" points="36.917,694.058 23.208,676.873 37.163,659.959 23.557,643.045 37.163,636.256 23.324,626.13 	"/>
	<polyline class="st1" points="112.797,626.13 98.726,636.256 112.797,642.584 99.308,660.036 127.25,660.036 	"/>
	<polyline class="st1" points="37.163,636.256 47.396,625.9 65.653,636.371 89.726,626.015 98.726,636.256 	"/>
	<line class="st1" x1="111.402" y1="674.917" x2="98.726" y2="674.917"/>
	<polyline class="st1" points="113.263,659.844 126.985,642.93 113.495,626.13 	"/>
	<line class="st1" x1="113.379" y1="642.814" x2="127.167" y2="642.814"/>
	<line class="st1" x1="9.253" y1="659.959" x2="40.917" y2="659.959"/>
	<line class="st1" x1="9.021" y1="643.16" x2="23.557" y2="643.16"/>
	<line class="st1" x1="9.253" y1="676.988" x2="37.021" y2="676.988"/>
	<polyline class="st1" points="47.083,625.683 23.159,608.87 9.137,625.9 9.137,694.248 23.208,694.248 37.163,710.702 
		37.163,636.256 98.726,636.256 98.726,711.277 117.139,711.277 	"/>
	<polyline class="st1" points="22.333,626.058 9.021,643.16 22.833,659.558 9.253,676.988 22.333,694.308 	"/>
	<polyline class="st1" points="9.083,677.183 15.333,694.058 23.208,676.873 	"/>
	<rect x="48.917" y="696.558" class="st1" width="37.667" height="44.333"/>
	<rect x="61.583" y="725.725" class="st1" width="12.667" height="15.156"/>
	<circle class="st1" cx="67.927" cy="725.84" r="6.344"/>
	<circle class="st1" cx="67.927" cy="696.59" r="6.344"/>
	<path class="st1" d="M48.919,737.892c-0.085-10.292,8.548-18.479,18.883-18.479c9.797,0,18.781,8.104,18.793,17.688"/>
	<rect x="48.929" y="652.142" class="st1" width="37.667" height="44.333"/>
	<rect x="61.262" y="652.152" class="st1" width="12.667" height="15.156"/>
	<circle class="st1" cx="67.585" cy="667.194" r="6.344"/>
	<path class="st1" d="M86.593,655.142c0.085,10.292-8.548,18.479-18.883,18.479c-9.797,0-18.781-8.104-18.793-17.687"/>
	<line class="st1" x1="23.208" y1="694.248" x2="37.021" y2="694.248"/>
	<polyline class="st1" points="98.583,702.725 92.333,694.058 98.583,694.058 	"/>
	<polygon class="st1" points="79.2,114.656 79.2,104.322 56.2,104.322 56.2,114.656 47.2,114.656 47.2,170.989 88.533,170.989 
		88.533,114.656 	"/>
	<path class="st1" d="M67.812,86.37h21.321V30.822c0,0-7.274-3.488-21.041-3.488h-0.293c-13.767,0-21.041,3.488-21.041,3.488V86.37
		H68.08H67.812z"/>
	<polygon class="st1" points="88.949,274.242 88.949,222.242 47.199,222.242 47.199,274.242 34.949,274.242 34.949,343.242 
		100.699,343.242 100.699,274.242 	"/>
	<line class="st1" x1="49.532" y1="189.159" x2="49.532" y2="178.576"/>
	<line class="st1" x1="85.866" y1="178.576" x2="85.866" y2="189.159"/>
	<polyline class="st1" points="57.699,189.159 57.699,178.576 36.449,178.576 36.449,189.242 57.855,189.242 57.699,189.326 
		57.699,194.659 77.866,194.659 77.866,189.242 99.282,189.242 99.282,178.576 77.782,178.576 77.866,189.242 	"/>
	<line class="st1" x1="57.782" y1="184.076" x2="77.782" y2="184.076"/>
	<line class="st1" x1="94.449" y1="178.492" x2="94.449" y2="189.326"/>
	<line class="st1" x1="97.952" y1="177.242" x2="96.532" y2="183.843"/>
	<line class="st1" x1="89.133" y1="31.992" x2="89.133" y2="3.242"/>
	<line class="st1" x1="46.759" y1="114.656" x2="46.759" y2="85.906"/>
	<line class="st1" x1="88.533" y1="114.656" x2="120.929" y2="114.656"/>
	<line class="st1" x1="47.2" y1="170.989" x2="47.2" y2="177.242"/>
	<line class="st1" x1="67.782" y1="222.242" x2="67.782" y2="194.659"/>
	<path class="st2" d="M33.87,494.962c4.06-3.5,13.567-11.697,11.426-25.922c-0.854-5.672-4.19-10.682-9.155-13.743
		c-5.429-3.35-12.228-3.949-19.144-1.688C4.6,457.661,3.885,471.746,3.933,475.677h7.004c-0.03-2.451,0.32-12.827,8.235-15.414
		c6.313-2.065,10.714-0.6,13.294,0.991c3.161,1.95,5.369,5.25,5.908,8.827c1.364,9.059-3.457,14.706-8.92,19.442
		c1.391,1.725,2.799,3.589,4.231,5.598L33.87,494.962z"/>
	<path class="st2" d="M41.837,507.733l0.011-0.007c-0.043-0.071-0.087-0.142-0.13-0.213c-0.043-0.075-0.076-0.148-0.12-0.223
		l-0.011,0.007c-2.639-4.35-5.481-8.782-7.902-12.177c-1.432-2.008-2.84-3.872-4.231-5.598c-2.229-2.764-4.421-5.186-6.616-7.317
		l-4.875,5.023c2.053,1.992,4.113,4.278,6.223,6.908c1.383,1.725,2.788,3.602,4.224,5.64c2.269,3.22,4.62,6.849,7.1,10.954
		c4.01,6.623,1.692,12.161-1.518,14.894c-3.486,2.968-9.356,3.957-14.609-0.528c-2.345-2.002-3.487-4.156-3.493-6.588
		c-0.013-6.102,6.765-13.418,12.521-18.732c-1.437-2.039-2.842-3.916-4.224-5.64C17.1,500.561,8.87,509.367,8.889,518.525
		c0.01,4.533,2.011,8.536,5.948,11.897c3.688,3.148,8.066,4.731,12.374,4.731c4.043-0.001,8.026-1.395,11.318-4.197
		C44.127,526.19,47.217,517.22,41.837,507.733z"/>
	<path class="st4" d="M33.362,495.399l0.508-0.437c-1.432-2.008-2.754-3.94-4.146-5.665c-0.052,0.045,0.052-0.045,0,0l-0.928,0.797
		c-1.399,1.204-3.221,2.785-4.857,4.268c1.383,1.725,2.772,3.619,4.209,5.658C29.988,498.321,31.986,496.583,33.362,495.399z"/>
	<path class="st2" d="M24.185,494.138l5.269-4.615c0,0,0.538-0.431,1.424-1.274"/>
	<path class="st2" d="M27.319,500.798c0,0,0.487-0.467,1.09-1.02c0.603-0.553,5.276-4.658,5.276-4.658s1.3-1.071,2.35-2.082"/>
	<polygon class="st1" points="125.705,192.706 125.705,196.04 123.289,198.79 121.205,198.79 120.914,198.79 118.831,198.79 
		116.414,196.04 116.414,192.706 116.414,192.561 116.414,189.227 118.831,186.477 120.914,186.477 121.205,186.477 
		123.289,186.477 125.705,189.227 125.705,192.561 	"/>
	<path class="st5" d="M122.652,192.085c-0.47,0.196-0.957,0.399-1.918,0.399s-1.448-0.203-1.918-0.399
		c-0.435-0.181-0.846-0.352-1.687-0.352c-0.301,0-0.536,0.027-0.747,0.064v0.864v0.028c0.217-0.031,0.455-0.054,0.747-0.054
		c0.961,0,1.448,0.203,1.918,0.399c0.435,0.181,0.846,0.352,1.687,0.352c0.841,0,1.252-0.171,1.687-0.352
		c0.47-0.196,0.957-0.399,1.918-0.399c0.591,0,0.994,0.08,1.333,0.185v-0.013v-0.146v-0.714c-0.333-0.12-0.717-0.213-1.333-0.213
		C123.497,191.732,123.087,191.903,122.652,192.085z"/>
	<path class="st5" d="M122.652,189.08c-0.47,0.196-0.957,0.399-1.918,0.399s-1.448-0.203-1.918-0.399
		c-0.435-0.181-0.846-0.352-1.687-0.352c-0.088,0-0.153,0.009-0.232,0.012l-0.515,0.586v0.357c0.217-0.031,0.455-0.054,0.747-0.054
		c0.961,0,1.448,0.203,1.918,0.399c0.435,0.181,0.846,0.352,1.687,0.352c0.841,0,1.252-0.171,1.687-0.352
		c0.47-0.196,0.957-0.399,1.918-0.399c0.591,0,0.994,0.08,1.333,0.185v-0.487l-0.449-0.51c-0.241-0.052-0.517-0.088-0.885-0.088
		C123.497,188.728,123.087,188.899,122.652,189.08z"/>
	<path class="st5" d="M120.734,187.977c-0.961,0-1.448-0.203-1.918-0.399c-0.216-0.09-0.426-0.177-0.685-0.242l-0.709,0.807
		c0.76,0.039,1.209,0.209,1.625,0.383c0.435,0.181,0.846,0.352,1.687,0.352c0.841,0,1.252-0.171,1.687-0.352
		c0.47-0.196,0.957-0.399,1.918-0.399c0.11,0,0.195,0.011,0.293,0.016l-0.783-0.891c-0.526,0.053-0.857,0.185-1.197,0.326
		C122.181,187.774,121.695,187.977,120.734,187.977z"/>
	<path class="st5" d="M122.652,190.582c-0.47,0.196-0.957,0.399-1.918,0.399s-1.448-0.203-1.918-0.399
		c-0.435-0.181-0.846-0.352-1.687-0.352c-0.301,0-0.536,0.027-0.747,0.064v0.892c0.217-0.032,0.455-0.054,0.747-0.054
		c0.961,0,1.448,0.203,1.918,0.399c0.435,0.181,0.846,0.352,1.687,0.352c0.841,0,1.252-0.171,1.687-0.352
		c0.47-0.196,0.957-0.399,1.918-0.399c0.591,0,0.994,0.08,1.333,0.185v-0.873c-0.333-0.12-0.717-0.213-1.333-0.213
		C123.497,190.23,123.087,190.401,122.652,190.582z"/>
	<path class="st5" d="M120.734,187.376c0.841,0,1.252-0.171,1.687-0.352c0.278-0.116,0.574-0.229,0.958-0.306l-0.124-0.141h-2.083
		h-0.291h-2.083l-0.233,0.265c0.17,0.057,0.33,0.119,0.482,0.182C119.481,187.204,119.892,187.376,120.734,187.376z"/>
	<path class="st5" d="M122.652,196.591c-0.47,0.196-0.957,0.399-1.918,0.399s-1.448-0.203-1.918-0.399
		c-0.435-0.181-0.846-0.352-1.687-0.352c-0.242,0-0.442,0.017-0.623,0.041l0.762,0.867c0.861,0.02,1.334,0.206,1.779,0.391
		c0.435,0.181,0.846,0.352,1.687,0.352c0.841,0,1.252-0.171,1.687-0.352c0.47-0.196,0.957-0.399,1.918-0.399
		c0.163,0,0.295,0.013,0.433,0.023l0.684-0.779c-0.288-0.085-0.626-0.146-1.117-0.146
		C123.497,196.239,123.087,196.41,122.652,196.591z"/>
	<path class="st5" d="M122.652,195.089c-0.47,0.196-0.957,0.399-1.918,0.399s-1.448-0.203-1.918-0.399
		c-0.435-0.181-0.846-0.352-1.687-0.352c-0.301,0-0.536,0.027-0.747,0.064v0.892c0.217-0.031,0.455-0.054,0.747-0.054
		c0.961,0,1.448,0.203,1.918,0.399c0.435,0.181,0.846,0.352,1.687,0.352c0.841,0,1.252-0.171,1.687-0.352
		c0.47-0.196,0.957-0.399,1.918-0.399c0.591,0,0.994,0.08,1.333,0.185v-0.873c-0.333-0.12-0.717-0.213-1.333-0.213
		C123.497,194.737,123.087,194.908,122.652,195.089z"/>
	<path class="st5" d="M122.652,193.587c-0.47,0.196-0.957,0.399-1.918,0.399s-1.448-0.203-1.918-0.399
		c-0.435-0.181-0.846-0.352-1.687-0.352c-0.301,0-0.536,0.027-0.747,0.064v0.892c0.217-0.032,0.455-0.054,0.747-0.054
		c0.961,0,1.448,0.203,1.918,0.399c0.435,0.181,0.846,0.352,1.687,0.352c0.841,0,1.252-0.171,1.687-0.352
		c0.47-0.196,0.957-0.399,1.918-0.399c0.591,0,0.994,0.08,1.333,0.185v-0.873c-0.333-0.12-0.717-0.213-1.333-0.213
		C123.497,193.234,123.087,193.406,122.652,193.587z"/>
	<path class="st5" d="M120.734,198.492c-0.961,0-1.448-0.203-1.918-0.399c-0.288-0.12-0.577-0.231-0.976-0.295l0.959,1.091h2.083
		h0.291h1.635c0.171-0.062,0.368-0.113,0.586-0.156l0.868-0.987c-0.783,0.011-1.189,0.173-1.609,0.348
		C122.181,198.289,121.695,198.492,120.734,198.492z"/>
	<path class="st6" d="M122.421,187.023c-0.435,0.181-0.846,0.352-1.687,0.352c-0.841,0-1.252-0.171-1.687-0.352
		c-0.151-0.063-0.312-0.124-0.482-0.182l-0.434,0.494c0.259,0.065,0.469,0.152,0.685,0.242c0.47,0.196,0.957,0.399,1.918,0.399
		s1.448-0.203,1.918-0.399c0.339-0.141,0.671-0.274,1.197-0.326l-0.47-0.534C122.995,186.794,122.699,186.907,122.421,187.023z"/>
	<path class="st6" d="M122.421,188.525c-0.435,0.181-0.846,0.352-1.687,0.352c-0.841,0-1.252-0.171-1.687-0.352
		c-0.416-0.174-0.865-0.344-1.625-0.383l-0.525,0.597c0.079-0.004,0.144-0.012,0.232-0.012c0.841,0,1.252,0.171,1.687,0.352
		c0.47,0.196,0.957,0.399,1.918,0.399s1.448-0.203,1.918-0.399c0.435-0.181,0.846-0.352,1.687-0.352
		c0.367,0,0.644,0.036,0.885,0.088l-0.592-0.673c-0.098-0.005-0.183-0.016-0.293-0.016
		C123.377,188.127,122.891,188.329,122.421,188.525z"/>
	<path class="st6" d="M122.421,190.028c-0.435,0.181-0.846,0.352-1.687,0.352c-0.841,0-1.252-0.171-1.687-0.352
		c-0.47-0.196-0.957-0.399-1.918-0.399c-0.292,0-0.53,0.023-0.747,0.054v0.61c0.212-0.037,0.446-0.064,0.747-0.064
		c0.841,0,1.252,0.171,1.687,0.352c0.47,0.196,0.957,0.399,1.918,0.399s1.448-0.203,1.918-0.399
		c0.435-0.181,0.846-0.352,1.687-0.352c0.616,0,1,0.093,1.333,0.213v-0.629c-0.339-0.105-0.742-0.185-1.333-0.185
		C123.377,189.629,122.891,189.832,122.421,190.028z"/>
	<path class="st6" d="M122.421,191.53c-0.435,0.181-0.846,0.352-1.687,0.352c-0.841,0-1.252-0.171-1.687-0.352
		c-0.47-0.196-0.957-0.399-1.918-0.399c-0.292,0-0.53,0.023-0.747,0.054v0.61c0.212-0.037,0.446-0.064,0.747-0.064
		c0.841,0,1.252,0.171,1.687,0.352c0.47,0.196,0.957,0.399,1.918,0.399s1.448-0.203,1.918-0.399
		c0.435-0.181,0.846-0.352,1.687-0.352c0.616,0,1,0.093,1.333,0.213v-0.629c-0.339-0.105-0.742-0.185-1.333-0.185
		C123.377,191.131,122.891,191.334,122.421,191.53z"/>
	<path class="st6" d="M122.421,193.032c-0.435,0.181-0.846,0.352-1.687,0.352c-0.841,0-1.252-0.171-1.687-0.352
		c-0.47-0.196-0.957-0.399-1.918-0.399c-0.292,0-0.53,0.023-0.747,0.054v0.118v0.493c0.212-0.037,0.446-0.064,0.747-0.064
		c0.841,0,1.252,0.171,1.687,0.352c0.47,0.196,0.957,0.399,1.918,0.399s1.448-0.203,1.918-0.399
		c0.435-0.181,0.846-0.352,1.687-0.352c0.616,0,1,0.093,1.333,0.213v-0.629c-0.339-0.105-0.742-0.185-1.333-0.185
		C123.377,192.633,122.891,192.836,122.421,193.032z"/>
	<path class="st6" d="M122.421,194.534c-0.435,0.181-0.846,0.352-1.687,0.352c-0.841,0-1.252-0.171-1.687-0.352
		c-0.47-0.196-0.957-0.399-1.918-0.399c-0.292,0-0.53,0.023-0.747,0.054v0.61c0.212-0.037,0.446-0.064,0.747-0.064
		c0.841,0,1.252,0.171,1.687,0.352c0.47,0.196,0.957,0.399,1.918,0.399s1.448-0.203,1.918-0.399
		c0.435-0.181,0.846-0.352,1.687-0.352c0.616,0,1,0.093,1.333,0.213v-0.629c-0.339-0.105-0.742-0.185-1.333-0.185
		C123.377,194.136,122.891,194.338,122.421,194.534z"/>
	<path class="st6" d="M122.421,196.037c-0.435,0.181-0.846,0.352-1.687,0.352c-0.841,0-1.252-0.171-1.687-0.352
		c-0.47-0.196-0.957-0.399-1.918-0.399c-0.292,0-0.53,0.023-0.747,0.054v0.447l0.124,0.141c0.182-0.024,0.381-0.041,0.623-0.041
		c0.841,0,1.252,0.171,1.687,0.352c0.47,0.196,0.957,0.399,1.918,0.399s1.448-0.203,1.918-0.399
		c0.435-0.181,0.846-0.352,1.687-0.352c0.491,0,0.829,0.061,1.117,0.146l0.216-0.246v-0.316c-0.339-0.105-0.742-0.185-1.333-0.185
		C123.377,195.638,122.891,195.841,122.421,196.037z"/>
	<path class="st6" d="M122.421,197.539c-0.435,0.181-0.846,0.352-1.687,0.352c-0.841,0-1.252-0.171-1.687-0.352
		c-0.445-0.185-0.918-0.371-1.779-0.391l0.572,0.65c0.399,0.064,0.688,0.175,0.976,0.295c0.47,0.196,0.957,0.399,1.918,0.399
		s1.448-0.203,1.918-0.399c0.42-0.175,0.826-0.337,1.609-0.348l0.511-0.582c-0.138-0.011-0.27-0.023-0.433-0.023
		C123.377,197.14,122.891,197.343,122.421,197.539z"/>
	<path class="st6" d="M123.255,198.889l0.137-0.156c-0.218,0.043-0.416,0.095-0.586,0.156H123.255z"/>
	<polygon class="st1" points="19.907,205.367 19.907,208.7 17.491,211.45 15.407,211.45 15.116,211.45 13.033,211.45 10.616,208.7 
		10.616,205.367 10.616,205.221 10.616,201.888 13.033,199.138 15.116,199.138 15.407,199.138 17.491,199.138 19.907,201.888 
		19.907,205.221 	"/>
	<path class="st5" d="M16.854,204.745c-0.47,0.196-0.957,0.399-1.918,0.399s-1.448-0.203-1.918-0.399
		c-0.435-0.181-0.846-0.352-1.687-0.352c-0.301,0-0.536,0.027-0.747,0.064v0.864v0.028c0.217-0.031,0.455-0.054,0.747-0.054
		c0.961,0,1.448,0.203,1.918,0.399c0.435,0.181,0.846,0.352,1.687,0.352c0.841,0,1.252-0.171,1.687-0.352
		c0.47-0.196,0.957-0.399,1.918-0.399c0.591,0,0.994,0.08,1.333,0.185v-0.013v-0.146v-0.714c-0.333-0.12-0.717-0.213-1.333-0.213
		C17.7,204.393,17.289,204.564,16.854,204.745z"/>
	<path class="st5" d="M16.854,201.741c-0.47,0.196-0.957,0.399-1.918,0.399s-1.448-0.203-1.918-0.399
		c-0.435-0.181-0.846-0.352-1.687-0.352c-0.088,0-0.153,0.009-0.232,0.012l-0.515,0.586v0.357c0.217-0.031,0.455-0.054,0.747-0.054
		c0.961,0,1.448,0.203,1.918,0.399c0.435,0.181,0.846,0.352,1.687,0.352c0.841,0,1.252-0.171,1.687-0.352
		c0.47-0.196,0.957-0.399,1.918-0.399c0.591,0,0.994,0.08,1.333,0.185v-0.487l-0.449-0.51c-0.241-0.052-0.517-0.088-0.885-0.088
		C17.7,201.388,17.289,201.559,16.854,201.741z"/>
	<path class="st5" d="M14.936,200.637c-0.961,0-1.448-0.203-1.918-0.399c-0.216-0.09-0.426-0.177-0.685-0.242l-0.709,0.807
		c0.76,0.039,1.209,0.209,1.625,0.383c0.435,0.181,0.846,0.352,1.687,0.352c0.841,0,1.252-0.171,1.687-0.352
		c0.47-0.196,0.957-0.399,1.918-0.399c0.11,0,0.195,0.011,0.293,0.016l-0.783-0.891c-0.526,0.053-0.857,0.185-1.197,0.326
		C16.383,200.434,15.897,200.637,14.936,200.637z"/>
	<path class="st5" d="M16.854,203.243c-0.47,0.196-0.957,0.399-1.918,0.399s-1.448-0.203-1.918-0.399
		c-0.435-0.181-0.846-0.352-1.687-0.352c-0.301,0-0.536,0.027-0.747,0.064v0.892c0.217-0.032,0.455-0.054,0.747-0.054
		c0.961,0,1.448,0.203,1.918,0.399c0.435,0.181,0.846,0.352,1.687,0.352c0.841,0,1.252-0.171,1.687-0.352
		c0.47-0.196,0.957-0.399,1.918-0.399c0.591,0,0.994,0.08,1.333,0.185v-0.873c-0.333-0.12-0.717-0.213-1.333-0.213
		C17.7,202.89,17.289,203.062,16.854,203.243z"/>
	<path class="st5" d="M14.936,200.036c0.841,0,1.252-0.171,1.687-0.352c0.278-0.116,0.574-0.229,0.958-0.306l-0.124-0.141h-2.083
		h-0.291H13l-0.233,0.265c0.17,0.057,0.33,0.119,0.482,0.182C13.684,199.865,14.094,200.036,14.936,200.036z"/>
	<path class="st5" d="M16.854,209.252c-0.47,0.196-0.957,0.399-1.918,0.399s-1.448-0.203-1.918-0.399
		c-0.435-0.181-0.846-0.352-1.687-0.352c-0.242,0-0.442,0.017-0.623,0.041l0.762,0.867c0.861,0.02,1.334,0.206,1.779,0.391
		c0.435,0.181,0.846,0.352,1.687,0.352c0.841,0,1.252-0.171,1.687-0.352c0.47-0.196,0.957-0.399,1.918-0.399
		c0.163,0,0.295,0.013,0.433,0.023l0.684-0.779c-0.288-0.085-0.626-0.146-1.117-0.146C17.7,208.899,17.289,209.071,16.854,209.252z"
		/>
	<path class="st5" d="M16.854,207.75c-0.47,0.196-0.957,0.399-1.918,0.399s-1.448-0.203-1.918-0.399
		c-0.435-0.181-0.846-0.352-1.687-0.352c-0.301,0-0.536,0.027-0.747,0.064v0.892c0.217-0.031,0.455-0.054,0.747-0.054
		c0.961,0,1.448,0.203,1.918,0.399c0.435,0.181,0.846,0.352,1.687,0.352c0.841,0,1.252-0.171,1.687-0.352
		c0.47-0.196,0.957-0.399,1.918-0.399c0.591,0,0.994,0.08,1.333,0.185v-0.873c-0.333-0.12-0.717-0.213-1.333-0.213
		C17.7,207.397,17.289,207.568,16.854,207.75z"/>
	<path class="st5" d="M16.854,206.247c-0.47,0.196-0.957,0.399-1.918,0.399s-1.448-0.203-1.918-0.399
		c-0.435-0.181-0.846-0.352-1.687-0.352c-0.301,0-0.536,0.027-0.747,0.064v0.892c0.217-0.032,0.455-0.054,0.747-0.054
		c0.961,0,1.448,0.203,1.918,0.399c0.435,0.181,0.846,0.352,1.687,0.352c0.841,0,1.252-0.171,1.687-0.352
		c0.47-0.196,0.957-0.399,1.918-0.399c0.591,0,0.994,0.08,1.333,0.185v-0.873c-0.333-0.12-0.717-0.213-1.333-0.213
		C17.7,205.895,17.289,206.066,16.854,206.247z"/>
	<path class="st5" d="M14.936,211.153c-0.961,0-1.448-0.203-1.918-0.399c-0.288-0.12-0.577-0.231-0.976-0.295l0.958,1.09h2.083
		h0.291h1.635c0.171-0.062,0.368-0.113,0.586-0.156l0.868-0.987c-0.783,0.011-1.189,0.173-1.609,0.348
		C16.383,210.95,15.897,211.153,14.936,211.153z"/>
	<path class="st6" d="M16.623,199.684c-0.435,0.181-0.846,0.352-1.687,0.352c-0.841,0-1.252-0.171-1.687-0.352
		c-0.151-0.063-0.312-0.124-0.482-0.182l-0.434,0.494c0.259,0.065,0.469,0.152,0.685,0.242c0.47,0.196,0.957,0.399,1.918,0.399
		s1.448-0.203,1.918-0.399c0.339-0.141,0.671-0.274,1.197-0.326l-0.47-0.534C17.197,199.455,16.901,199.568,16.623,199.684z"/>
	<path class="st6" d="M16.623,201.186c-0.435,0.181-0.846,0.352-1.687,0.352c-0.841,0-1.252-0.171-1.687-0.352
		c-0.416-0.174-0.865-0.344-1.625-0.383l-0.525,0.597c0.079-0.004,0.144-0.012,0.232-0.012c0.841,0,1.252,0.171,1.687,0.352
		c0.47,0.196,0.957,0.399,1.918,0.399s1.448-0.203,1.918-0.399c0.435-0.181,0.846-0.352,1.687-0.352
		c0.367,0,0.644,0.036,0.885,0.088l-0.592-0.673c-0.098-0.005-0.183-0.016-0.293-0.016C17.579,200.787,17.093,200.99,16.623,201.186
		z"/>
	<path class="st6" d="M16.623,202.688c-0.435,0.181-0.846,0.352-1.687,0.352c-0.841,0-1.252-0.171-1.687-0.352
		c-0.47-0.196-0.957-0.399-1.918-0.399c-0.292,0-0.53,0.023-0.747,0.054v0.61c0.212-0.037,0.446-0.064,0.747-0.064
		c0.841,0,1.252,0.171,1.687,0.352c0.47,0.196,0.957,0.399,1.918,0.399s1.448-0.203,1.918-0.399
		c0.435-0.181,0.846-0.352,1.687-0.352c0.616,0,1,0.093,1.333,0.213v-0.629c-0.339-0.105-0.742-0.185-1.333-0.185
		C17.579,202.29,17.093,202.492,16.623,202.688z"/>
	<path class="st6" d="M16.623,204.19c-0.435,0.181-0.846,0.352-1.687,0.352c-0.841,0-1.252-0.171-1.687-0.352
		c-0.47-0.196-0.957-0.399-1.918-0.399c-0.292,0-0.53,0.023-0.747,0.054v0.61c0.212-0.037,0.446-0.064,0.747-0.064
		c0.841,0,1.252,0.171,1.687,0.352c0.47,0.196,0.957,0.399,1.918,0.399s1.448-0.203,1.918-0.399
		c0.435-0.181,0.846-0.352,1.687-0.352c0.616,0,1,0.093,1.333,0.213v-0.629c-0.339-0.105-0.742-0.185-1.333-0.185
		C17.579,203.792,17.093,203.994,16.623,204.19z"/>
	<path class="st6" d="M16.623,205.693c-0.435,0.181-0.846,0.352-1.687,0.352c-0.841,0-1.252-0.171-1.687-0.352
		c-0.47-0.196-0.957-0.399-1.918-0.399c-0.292,0-0.53,0.023-0.747,0.054v0.118v0.493c0.212-0.037,0.446-0.064,0.747-0.064
		c0.841,0,1.252,0.171,1.687,0.352c0.47,0.196,0.957,0.399,1.918,0.399s1.448-0.203,1.918-0.399
		c0.435-0.181,0.846-0.352,1.687-0.352c0.616,0,1,0.093,1.333,0.213v-0.629c-0.339-0.105-0.742-0.185-1.333-0.185
		C17.579,205.294,17.093,205.497,16.623,205.693z"/>
	<path class="st6" d="M16.623,207.195c-0.435,0.181-0.846,0.352-1.687,0.352c-0.841,0-1.252-0.171-1.687-0.352
		c-0.47-0.196-0.957-0.399-1.918-0.399c-0.292,0-0.53,0.023-0.747,0.054v0.61c0.212-0.037,0.446-0.064,0.747-0.064
		c0.841,0,1.252,0.171,1.687,0.352c0.47,0.196,0.957,0.399,1.918,0.399s1.448-0.203,1.918-0.399
		c0.435-0.181,0.846-0.352,1.687-0.352c0.616,0,1,0.093,1.333,0.213v-0.629c-0.339-0.105-0.742-0.185-1.333-0.185
		C17.579,206.796,17.093,206.999,16.623,207.195z"/>
	<path class="st6" d="M16.623,208.697c-0.435,0.181-0.846,0.352-1.687,0.352c-0.841,0-1.252-0.171-1.687-0.352
		c-0.47-0.196-0.957-0.399-1.918-0.399c-0.292,0-0.53,0.023-0.747,0.054v0.447l0.124,0.141c0.182-0.024,0.381-0.041,0.623-0.041
		c0.841,0,1.252,0.171,1.687,0.352c0.47,0.196,0.957,0.399,1.918,0.399s1.448-0.203,1.918-0.399
		c0.435-0.181,0.846-0.352,1.687-0.352c0.491,0,0.829,0.061,1.117,0.146l0.216-0.246v-0.316c-0.339-0.105-0.742-0.185-1.333-0.185
		C17.579,208.298,17.093,208.501,16.623,208.697z"/>
	<path class="st6" d="M16.623,210.199c-0.435,0.181-0.846,0.352-1.687,0.352c-0.841,0-1.252-0.171-1.687-0.352
		c-0.445-0.185-0.918-0.371-1.779-0.391l0.572,0.65c0.399,0.064,0.688,0.175,0.976,0.295c0.47,0.196,0.957,0.399,1.918,0.399
		s1.448-0.203,1.918-0.399c0.42-0.175,0.826-0.337,1.609-0.348l0.511-0.582c-0.138-0.011-0.27-0.023-0.433-0.023
		C17.579,209.801,17.093,210.003,16.623,210.199z"/>
	<path class="st6" d="M17.457,211.549l0.137-0.156c-0.218,0.043-0.416,0.095-0.586,0.156H17.457z"/>
	<polygon class="st1" points="19.83,49.143 19.83,52.476 17.413,55.226 15.33,55.226 15.039,55.226 12.956,55.226 10.539,52.476 
		10.539,49.143 10.539,48.997 10.539,45.664 12.956,42.914 15.039,42.914 15.33,42.914 17.413,42.914 19.83,45.664 19.83,48.997 	
		"/>
	<path class="st5" d="M16.776,48.521c-0.47,0.196-0.957,0.399-1.918,0.399s-1.448-0.203-1.918-0.399
		c-0.435-0.181-0.846-0.352-1.687-0.352c-0.301,0-0.536,0.027-0.747,0.064v0.864v0.028c0.217-0.031,0.455-0.054,0.747-0.054
		c0.961,0,1.448,0.203,1.918,0.399c0.435,0.181,0.846,0.352,1.687,0.352c0.841,0,1.252-0.171,1.687-0.352
		c0.47-0.196,0.957-0.399,1.918-0.399c0.591,0,0.994,0.08,1.333,0.185v-0.013v-0.146v-0.714c-0.333-0.12-0.717-0.213-1.333-0.213
		C17.622,48.169,17.211,48.34,16.776,48.521z"/>
	<path class="st5" d="M16.776,45.517c-0.47,0.196-0.957,0.399-1.918,0.399s-1.448-0.203-1.918-0.399
		c-0.435-0.181-0.846-0.352-1.687-0.352c-0.088,0-0.153,0.009-0.232,0.012l-0.515,0.586v0.357c0.217-0.031,0.455-0.054,0.747-0.054
		c0.961,0,1.448,0.203,1.918,0.399c0.435,0.181,0.846,0.352,1.687,0.352c0.841,0,1.252-0.171,1.687-0.352
		c0.47-0.196,0.957-0.399,1.918-0.399c0.591,0,0.994,0.08,1.333,0.185v-0.487l-0.449-0.51c-0.241-0.052-0.517-0.088-0.885-0.088
		C17.622,45.164,17.211,45.335,16.776,45.517z"/>
	<path class="st5" d="M14.858,44.413c-0.961,0-1.448-0.203-1.918-0.399c-0.216-0.09-0.426-0.177-0.685-0.242l-0.709,0.807
		c0.76,0.039,1.209,0.209,1.625,0.383c0.435,0.181,0.846,0.352,1.687,0.352c0.841,0,1.252-0.171,1.687-0.352
		c0.47-0.196,0.957-0.399,1.918-0.399c0.11,0,0.195,0.011,0.293,0.016l-0.783-0.891c-0.526,0.053-0.857,0.185-1.197,0.326
		C16.306,44.21,15.82,44.413,14.858,44.413z"/>
	<path class="st5" d="M16.776,47.019c-0.47,0.196-0.957,0.399-1.918,0.399s-1.448-0.203-1.918-0.399
		c-0.435-0.181-0.846-0.352-1.687-0.352c-0.301,0-0.536,0.027-0.747,0.064v0.892c0.217-0.032,0.455-0.054,0.747-0.054
		c0.961,0,1.448,0.203,1.918,0.399c0.435,0.181,0.846,0.352,1.687,0.352c0.841,0,1.252-0.171,1.687-0.352
		c0.47-0.196,0.957-0.399,1.918-0.399c0.591,0,0.994,0.08,1.333,0.185v-0.873c-0.333-0.12-0.717-0.213-1.333-0.213
		C17.622,46.666,17.211,46.838,16.776,47.019z"/>
	<path class="st5" d="M14.858,43.812c0.841,0,1.252-0.171,1.687-0.352c0.278-0.116,0.574-0.229,0.958-0.306l-0.124-0.141h-2.083
		h-0.291h-2.083l-0.233,0.265c0.17,0.057,0.33,0.119,0.482,0.182C13.606,43.641,14.017,43.812,14.858,43.812z"/>
	<path class="st5" d="M16.776,53.028c-0.47,0.196-0.957,0.399-1.918,0.399s-1.448-0.203-1.918-0.399
		c-0.435-0.181-0.846-0.352-1.687-0.352c-0.242,0-0.442,0.017-0.623,0.041l0.762,0.867c0.861,0.02,1.334,0.206,1.779,0.391
		c0.435,0.181,0.846,0.352,1.687,0.352c0.841,0,1.252-0.171,1.687-0.352c0.47-0.196,0.957-0.399,1.918-0.399
		c0.163,0,0.295,0.013,0.433,0.023l0.684-0.779c-0.288-0.085-0.626-0.146-1.117-0.146C17.622,52.675,17.211,52.846,16.776,53.028z"
		/>
	<path class="st5" d="M16.776,51.525c-0.47,0.196-0.957,0.399-1.918,0.399s-1.448-0.203-1.918-0.399
		c-0.435-0.181-0.846-0.352-1.687-0.352c-0.301,0-0.536,0.027-0.747,0.064v0.892c0.217-0.031,0.455-0.054,0.747-0.054
		c0.961,0,1.448,0.203,1.918,0.399c0.435,0.181,0.846,0.352,1.687,0.352c0.841,0,1.252-0.171,1.687-0.352
		c0.47-0.196,0.957-0.399,1.918-0.399c0.591,0,0.994,0.08,1.333,0.185v-0.873c-0.333-0.12-0.717-0.213-1.333-0.213
		C17.622,51.173,17.211,51.344,16.776,51.525z"/>
	<path class="st5" d="M16.776,50.023c-0.47,0.196-0.957,0.399-1.918,0.399s-1.448-0.203-1.918-0.399
		c-0.435-0.181-0.846-0.352-1.687-0.352c-0.301,0-0.536,0.027-0.747,0.064v0.892c0.217-0.032,0.455-0.054,0.747-0.054
		c0.961,0,1.448,0.203,1.918,0.399c0.435,0.181,0.846,0.352,1.687,0.352c0.841,0,1.252-0.171,1.687-0.352
		c0.47-0.196,0.957-0.399,1.918-0.399c0.591,0,0.994,0.08,1.333,0.185v-0.873c-0.333-0.12-0.717-0.213-1.333-0.213
		C17.622,49.671,17.211,49.842,16.776,50.023z"/>
	<path class="st5" d="M14.858,54.929c-0.961,0-1.448-0.203-1.918-0.399c-0.288-0.12-0.577-0.231-0.976-0.295l0.959,1.091h2.083
		h0.291h1.635c0.171-0.062,0.368-0.113,0.586-0.156l0.868-0.987c-0.783,0.011-1.189,0.173-1.609,0.348
		C16.306,54.726,15.82,54.929,14.858,54.929z"/>
	<path class="st6" d="M16.545,43.46c-0.435,0.181-0.846,0.352-1.687,0.352c-0.841,0-1.252-0.171-1.687-0.352
		c-0.151-0.063-0.312-0.124-0.482-0.182l-0.434,0.494c0.259,0.065,0.469,0.152,0.685,0.242c0.47,0.196,0.957,0.399,1.918,0.399
		s1.448-0.203,1.918-0.399c0.339-0.141,0.671-0.274,1.197-0.326l-0.47-0.534C17.12,43.231,16.823,43.344,16.545,43.46z"/>
	<path class="st6" d="M16.545,44.962c-0.435,0.181-0.846,0.352-1.687,0.352c-0.841,0-1.252-0.171-1.687-0.352
		c-0.416-0.174-0.865-0.344-1.625-0.383l-0.525,0.597c0.079-0.004,0.144-0.012,0.232-0.012c0.841,0,1.252,0.171,1.687,0.352
		c0.47,0.196,0.957,0.399,1.918,0.399s1.448-0.203,1.918-0.399c0.435-0.181,0.846-0.352,1.687-0.352
		c0.367,0,0.644,0.036,0.885,0.088l-0.592-0.673c-0.098-0.005-0.183-0.016-0.293-0.016C17.502,44.563,17.016,44.766,16.545,44.962z"
		/>
	<path class="st6" d="M16.545,46.464c-0.435,0.181-0.846,0.352-1.687,0.352c-0.841,0-1.252-0.171-1.687-0.352
		c-0.47-0.196-0.957-0.399-1.918-0.399c-0.292,0-0.53,0.023-0.747,0.054v0.61c0.212-0.037,0.446-0.064,0.747-0.064
		c0.841,0,1.252,0.171,1.687,0.352c0.47,0.196,0.957,0.399,1.918,0.399s1.448-0.203,1.918-0.399
		c0.435-0.181,0.846-0.352,1.687-0.352c0.616,0,1,0.093,1.333,0.213V46.25c-0.339-0.105-0.742-0.185-1.333-0.185
		C17.502,46.065,17.016,46.268,16.545,46.464z"/>
	<path class="st6" d="M16.545,47.966c-0.435,0.181-0.846,0.352-1.687,0.352c-0.841,0-1.252-0.171-1.687-0.352
		c-0.47-0.196-0.957-0.399-1.918-0.399c-0.292,0-0.53,0.023-0.747,0.054v0.61c0.212-0.037,0.446-0.064,0.747-0.064
		c0.841,0,1.252,0.171,1.687,0.352c0.47,0.196,0.957,0.399,1.918,0.399s1.448-0.203,1.918-0.399
		c0.435-0.181,0.846-0.352,1.687-0.352c0.616,0,1,0.093,1.333,0.213v-0.629c-0.339-0.105-0.742-0.185-1.333-0.185
		C17.502,47.568,17.016,47.77,16.545,47.966z"/>
	<path class="st6" d="M16.545,49.469c-0.435,0.181-0.846,0.352-1.687,0.352c-0.841,0-1.252-0.171-1.687-0.352
		c-0.47-0.196-0.957-0.399-1.918-0.399c-0.292,0-0.53,0.023-0.747,0.054v0.118v0.493c0.212-0.037,0.446-0.064,0.747-0.064
		c0.841,0,1.252,0.171,1.687,0.352c0.47,0.196,0.957,0.399,1.918,0.399s1.448-0.203,1.918-0.399
		c0.435-0.181,0.846-0.352,1.687-0.352c0.616,0,1,0.093,1.333,0.213v-0.629c-0.339-0.105-0.742-0.185-1.333-0.185
		C17.502,49.07,17.016,49.273,16.545,49.469z"/>
	<path class="st6" d="M16.545,50.971c-0.435,0.181-0.846,0.352-1.687,0.352c-0.841,0-1.252-0.171-1.687-0.352
		c-0.47-0.196-0.957-0.399-1.918-0.399c-0.292,0-0.53,0.023-0.747,0.054v0.61c0.212-0.037,0.446-0.064,0.747-0.064
		c0.841,0,1.252,0.171,1.687,0.352c0.47,0.196,0.957,0.399,1.918,0.399s1.448-0.203,1.918-0.399
		c0.435-0.181,0.846-0.352,1.687-0.352c0.616,0,1,0.093,1.333,0.213v-0.629c-0.339-0.105-0.742-0.185-1.333-0.185
		C17.502,50.572,17.016,50.775,16.545,50.971z"/>
	<path class="st6" d="M16.545,52.473c-0.435,0.181-0.846,0.352-1.687,0.352c-0.841,0-1.252-0.171-1.687-0.352
		c-0.47-0.196-0.957-0.399-1.918-0.399c-0.292,0-0.53,0.023-0.747,0.054v0.447l0.124,0.141c0.182-0.024,0.381-0.041,0.623-0.041
		c0.841,0,1.252,0.171,1.687,0.352c0.47,0.196,0.957,0.399,1.918,0.399s1.448-0.203,1.918-0.399
		c0.435-0.181,0.846-0.352,1.687-0.352c0.491,0,0.829,0.061,1.117,0.146l0.216-0.246v-0.316c-0.339-0.105-0.742-0.185-1.333-0.185
		C17.502,52.074,17.016,52.277,16.545,52.473z"/>
	<path class="st6" d="M16.545,53.975c-0.435,0.181-0.846,0.352-1.687,0.352c-0.841,0-1.252-0.171-1.687-0.352
		c-0.445-0.185-0.918-0.371-1.779-0.391l0.572,0.65c0.399,0.064,0.688,0.175,0.976,0.295c0.47,0.196,0.957,0.399,1.918,0.399
		s1.448-0.203,1.918-0.399c0.42-0.175,0.826-0.337,1.609-0.348l0.511-0.582c-0.138-0.011-0.27-0.023-0.433-0.023
		C17.502,53.577,17.016,53.779,16.545,53.975z"/>
	<path class="st6" d="M17.38,55.325l0.137-0.156c-0.218,0.043-0.416,0.095-0.586,0.156H17.38z"/>
	<polygon class="st1" points="125.628,49.143 125.628,52.476 123.211,55.226 121.128,55.226 120.837,55.226 118.754,55.226 
		116.337,52.476 116.337,49.143 116.337,48.997 116.337,45.664 118.754,42.914 120.837,42.914 121.128,42.914 123.211,42.914 
		125.628,45.664 125.628,48.997 	"/>
	<path class="st5" d="M122.574,48.521c-0.47,0.196-0.957,0.399-1.918,0.399s-1.448-0.203-1.918-0.399
		c-0.435-0.181-0.846-0.352-1.687-0.352c-0.301,0-0.536,0.027-0.747,0.064v0.864v0.028c0.217-0.031,0.455-0.054,0.747-0.054
		c0.961,0,1.448,0.203,1.918,0.399c0.435,0.181,0.846,0.352,1.687,0.352c0.841,0,1.252-0.171,1.687-0.352
		c0.47-0.196,0.957-0.399,1.918-0.399c0.591,0,0.994,0.08,1.333,0.185v-0.013v-0.146v-0.714c-0.333-0.12-0.717-0.213-1.333-0.213
		C123.42,48.169,123.009,48.34,122.574,48.521z"/>
	<path class="st5" d="M122.574,45.517c-0.47,0.196-0.957,0.399-1.918,0.399s-1.448-0.203-1.918-0.399
		c-0.435-0.181-0.846-0.352-1.687-0.352c-0.088,0-0.153,0.009-0.232,0.012l-0.515,0.586v0.357c0.217-0.031,0.455-0.054,0.747-0.054
		c0.961,0,1.448,0.203,1.918,0.399c0.435,0.181,0.846,0.352,1.687,0.352c0.841,0,1.252-0.171,1.687-0.352
		c0.47-0.196,0.957-0.399,1.918-0.399c0.591,0,0.994,0.08,1.333,0.185v-0.487l-0.449-0.51c-0.241-0.052-0.517-0.088-0.885-0.088
		C123.42,45.164,123.009,45.335,122.574,45.517z"/>
	<path class="st5" d="M120.656,44.413c-0.961,0-1.448-0.203-1.918-0.399c-0.216-0.09-0.426-0.177-0.685-0.242l-0.709,0.807
		c0.76,0.039,1.209,0.209,1.625,0.383c0.435,0.181,0.846,0.352,1.687,0.352c0.841,0,1.252-0.171,1.687-0.352
		c0.47-0.196,0.957-0.399,1.918-0.399c0.11,0,0.195,0.011,0.293,0.016l-0.783-0.891c-0.526,0.053-0.857,0.185-1.197,0.326
		C122.104,44.21,121.618,44.413,120.656,44.413z"/>
	<path class="st5" d="M122.574,47.019c-0.47,0.196-0.957,0.399-1.918,0.399s-1.448-0.203-1.918-0.399
		c-0.435-0.181-0.846-0.352-1.687-0.352c-0.301,0-0.536,0.027-0.747,0.064v0.892c0.217-0.032,0.455-0.054,0.747-0.054
		c0.961,0,1.448,0.203,1.918,0.399c0.435,0.181,0.846,0.352,1.687,0.352c0.841,0,1.252-0.171,1.687-0.352
		c0.47-0.196,0.957-0.399,1.918-0.399c0.591,0,0.994,0.08,1.333,0.185v-0.873c-0.333-0.12-0.717-0.213-1.333-0.213
		C123.42,46.666,123.009,46.838,122.574,47.019z"/>
	<path class="st5" d="M120.656,43.812c0.841,0,1.252-0.171,1.687-0.352c0.278-0.116,0.574-0.229,0.958-0.306l-0.124-0.141h-2.083
		h-0.291h-2.083l-0.233,0.265c0.17,0.057,0.33,0.119,0.482,0.182C119.404,43.641,119.815,43.812,120.656,43.812z"/>
	<path class="st5" d="M122.574,53.028c-0.47,0.196-0.957,0.399-1.918,0.399s-1.448-0.203-1.918-0.399
		c-0.435-0.181-0.846-0.352-1.687-0.352c-0.242,0-0.442,0.017-0.623,0.041l0.762,0.867c0.861,0.02,1.334,0.206,1.779,0.391
		c0.435,0.181,0.846,0.352,1.687,0.352c0.841,0,1.252-0.171,1.687-0.352c0.47-0.196,0.957-0.399,1.918-0.399
		c0.163,0,0.295,0.013,0.433,0.023l0.684-0.779c-0.288-0.085-0.626-0.146-1.117-0.146C123.42,52.675,123.009,52.846,122.574,53.028z
		"/>
	<path class="st5" d="M122.574,51.525c-0.47,0.196-0.957,0.399-1.918,0.399s-1.448-0.203-1.918-0.399
		c-0.435-0.181-0.846-0.352-1.687-0.352c-0.301,0-0.536,0.027-0.747,0.064v0.892c0.217-0.031,0.455-0.054,0.747-0.054
		c0.961,0,1.448,0.203,1.918,0.399c0.435,0.181,0.846,0.352,1.687,0.352c0.841,0,1.252-0.171,1.687-0.352
		c0.47-0.196,0.957-0.399,1.918-0.399c0.591,0,0.994,0.08,1.333,0.185v-0.873c-0.333-0.12-0.717-0.213-1.333-0.213
		C123.42,51.173,123.009,51.344,122.574,51.525z"/>
	<path class="st5" d="M122.574,50.023c-0.47,0.196-0.957,0.399-1.918,0.399s-1.448-0.203-1.918-0.399
		c-0.435-0.181-0.846-0.352-1.687-0.352c-0.301,0-0.536,0.027-0.747,0.064v0.892c0.217-0.032,0.455-0.054,0.747-0.054
		c0.961,0,1.448,0.203,1.918,0.399c0.435,0.181,0.846,0.352,1.687,0.352c0.841,0,1.252-0.171,1.687-0.352
		c0.47-0.196,0.957-0.399,1.918-0.399c0.591,0,0.994,0.08,1.333,0.185v-0.873c-0.333-0.12-0.717-0.213-1.333-0.213
		C123.42,49.671,123.009,49.842,122.574,50.023z"/>
	<path class="st5" d="M120.656,54.929c-0.961,0-1.448-0.203-1.918-0.399c-0.288-0.12-0.577-0.231-0.976-0.295l0.959,1.091h2.083
		h0.291h1.635c0.171-0.062,0.368-0.113,0.586-0.156l0.868-0.987c-0.783,0.011-1.189,0.173-1.609,0.348
		C122.104,54.726,121.618,54.929,120.656,54.929z"/>
	<path class="st6" d="M122.343,43.46c-0.435,0.181-0.846,0.352-1.687,0.352c-0.841,0-1.252-0.171-1.687-0.352
		c-0.151-0.063-0.312-0.124-0.482-0.182l-0.434,0.494c0.259,0.065,0.469,0.152,0.685,0.242c0.47,0.196,0.957,0.399,1.918,0.399
		s1.448-0.203,1.918-0.399c0.339-0.141,0.671-0.274,1.197-0.326l-0.47-0.534C122.918,43.231,122.621,43.344,122.343,43.46z"/>
	<path class="st6" d="M122.343,44.962c-0.435,0.181-0.846,0.352-1.687,0.352c-0.841,0-1.252-0.171-1.687-0.352
		c-0.416-0.174-0.865-0.344-1.625-0.383l-0.525,0.597c0.079-0.004,0.144-0.012,0.232-0.012c0.841,0,1.252,0.171,1.687,0.352
		c0.47,0.196,0.957,0.399,1.918,0.399s1.448-0.203,1.918-0.399c0.435-0.181,0.846-0.352,1.687-0.352
		c0.367,0,0.644,0.036,0.885,0.088l-0.592-0.673c-0.098-0.005-0.183-0.016-0.293-0.016C123.3,44.563,122.814,44.766,122.343,44.962z
		"/>
	<path class="st6" d="M122.343,46.464c-0.435,0.181-0.846,0.352-1.687,0.352c-0.841,0-1.252-0.171-1.687-0.352
		c-0.47-0.196-0.957-0.399-1.918-0.399c-0.292,0-0.53,0.023-0.747,0.054v0.61c0.212-0.037,0.446-0.064,0.747-0.064
		c0.841,0,1.252,0.171,1.687,0.352c0.47,0.196,0.957,0.399,1.918,0.399s1.448-0.203,1.918-0.399
		c0.435-0.181,0.846-0.352,1.687-0.352c0.616,0,1,0.093,1.333,0.213V46.25c-0.339-0.105-0.742-0.185-1.333-0.185
		C123.3,46.065,122.814,46.268,122.343,46.464z"/>
	<path class="st6" d="M122.343,47.966c-0.435,0.181-0.846,0.352-1.687,0.352c-0.841,0-1.252-0.171-1.687-0.352
		c-0.47-0.196-0.957-0.399-1.918-0.399c-0.292,0-0.53,0.023-0.747,0.054v0.61c0.212-0.037,0.446-0.064,0.747-0.064
		c0.841,0,1.252,0.171,1.687,0.352c0.47,0.196,0.957,0.399,1.918,0.399s1.448-0.203,1.918-0.399
		c0.435-0.181,0.846-0.352,1.687-0.352c0.616,0,1,0.093,1.333,0.213v-0.629c-0.339-0.105-0.742-0.185-1.333-0.185
		C123.3,47.568,122.814,47.77,122.343,47.966z"/>
	<path class="st6" d="M122.343,49.469c-0.435,0.181-0.846,0.352-1.687,0.352c-0.841,0-1.252-0.171-1.687-0.352
		c-0.47-0.196-0.957-0.399-1.918-0.399c-0.292,0-0.53,0.023-0.747,0.054v0.118v0.493c0.212-0.037,0.446-0.064,0.747-0.064
		c0.841,0,1.252,0.171,1.687,0.352c0.47,0.196,0.957,0.399,1.918,0.399s1.448-0.203,1.918-0.399
		c0.435-0.181,0.846-0.352,1.687-0.352c0.616,0,1,0.093,1.333,0.213v-0.629c-0.339-0.105-0.742-0.185-1.333-0.185
		C123.3,49.07,122.814,49.273,122.343,49.469z"/>
	<path class="st6" d="M122.343,50.971c-0.435,0.181-0.846,0.352-1.687,0.352c-0.841,0-1.252-0.171-1.687-0.352
		c-0.47-0.196-0.957-0.399-1.918-0.399c-0.292,0-0.53,0.023-0.747,0.054v0.61c0.212-0.037,0.446-0.064,0.747-0.064
		c0.841,0,1.252,0.171,1.687,0.352c0.47,0.196,0.957,0.399,1.918,0.399s1.448-0.203,1.918-0.399
		c0.435-0.181,0.846-0.352,1.687-0.352c0.616,0,1,0.093,1.333,0.213v-0.629c-0.339-0.105-0.742-0.185-1.333-0.185
		C123.3,50.572,122.814,50.775,122.343,50.971z"/>
	<path class="st6" d="M122.343,52.473c-0.435,0.181-0.846,0.352-1.687,0.352c-0.841,0-1.252-0.171-1.687-0.352
		c-0.47-0.196-0.957-0.399-1.918-0.399c-0.292,0-0.53,0.023-0.747,0.054v0.447l0.124,0.141c0.182-0.024,0.381-0.041,0.623-0.041
		c0.841,0,1.252,0.171,1.687,0.352c0.47,0.196,0.957,0.399,1.918,0.399s1.448-0.203,1.918-0.399
		c0.435-0.181,0.846-0.352,1.687-0.352c0.491,0,0.829,0.061,1.117,0.146l0.216-0.246v-0.316c-0.339-0.105-0.742-0.185-1.333-0.185
		C123.3,52.074,122.814,52.277,122.343,52.473z"/>
	<path class="st6" d="M122.343,53.975c-0.435,0.181-0.846,0.352-1.687,0.352c-0.841,0-1.252-0.171-1.687-0.352
		c-0.445-0.185-0.918-0.371-1.779-0.391l0.572,0.65c0.399,0.064,0.688,0.175,0.976,0.295c0.47,0.196,0.957,0.399,1.918,0.399
		s1.448-0.203,1.918-0.399c0.42-0.175,0.826-0.337,1.609-0.348l0.511-0.582c-0.138-0.011-0.27-0.023-0.433-0.023
		C123.3,53.577,122.814,53.779,122.343,53.975z"/>
	<path class="st6" d="M123.178,55.325l0.137-0.156c-0.218,0.043-0.416,0.095-0.586,0.156H123.178z"/>
	<line class="st1" x1="59.208" y1="615.404" x2="37.583" y2="616.742"/>
	<line class="st1" x1="82.332" y1="615.308" x2="101.955" y2="616.933"/>
	<line class="st1" x1="22.833" y1="699.808" x2="8.391" y2="714.777"/>
	<path class="st7" d="M39.642,181.38h1.007c1,0,1.727,0.527,1.727,1.783v0.072c0,0.728-0.288,1.191-0.656,1.472l0.751,2.271h-1.039
		l-0.632-1.951h-0.184v1.951H39.64v-5.598H39.642z M40.665,184.146c0.424,0,0.735-0.248,0.735-0.903v-0.064
		c0-0.704-0.336-0.888-0.759-0.888h-0.024v1.855H40.665z M42.826,181.38h1.008c1,0,1.727,0.527,1.727,1.783v0.072
		c0,0.728-0.288,1.191-0.656,1.472l0.751,2.271h-1.04l-0.631-1.951h-0.184v1.951h-0.976L42.826,181.38L42.826,181.38z
		 M43.849,184.146c0.424,0,0.736-0.248,0.736-0.903v-0.064c0-0.704-0.336-0.888-0.76-0.888h-0.024v1.855H43.849z"/>
	<path class="st7" d="M50.642,181.38h1.007c1,0,1.727,0.527,1.727,1.783v0.072c0,0.728-0.288,1.191-0.656,1.472l0.751,2.271h-1.039
		l-0.632-1.951h-0.184v1.951H50.64v-5.598H50.642z M51.665,184.146c0.424,0,0.735-0.248,0.735-0.903v-0.064
		c0-0.704-0.336-0.888-0.759-0.888h-0.024v1.855H51.665z M53.826,181.38h1.008c1,0,1.727,0.527,1.727,1.783v0.072
		c0,0.728-0.288,1.191-0.656,1.472l0.751,2.271h-1.04l-0.631-1.951h-0.184v1.951h-0.976L53.826,181.38L53.826,181.38z
		 M54.849,184.146c0.424,0,0.736-0.248,0.736-0.903v-0.064c0-0.704-0.336-0.888-0.76-0.888h-0.024v1.855H54.849z"/>
	<path class="st7" d="M87.889,181.38h1.008c0.999,0,1.728,0.527,1.728,1.783v0.072c0,0.728-0.288,1.191-0.656,1.472l0.752,2.271
		h-1.04l-0.631-1.951h-0.185v1.951h-0.976C87.889,186.978,87.889,181.38,87.889,181.38z M88.912,184.146
		c0.424,0,0.736-0.248,0.736-0.903v-0.064c0-0.704-0.336-0.888-0.76-0.888h-0.024v1.855H88.912z M91.074,181.38h1.007
		c1,0,1.728,0.527,1.728,1.783v0.072c0,0.728-0.288,1.191-0.656,1.472l0.752,2.271h-1.039l-0.632-1.951H92.05v1.951h-0.976
		C91.074,186.978,91.074,181.38,91.074,181.38z M92.097,184.146c0.424,0,0.735-0.248,0.735-0.903v-0.064
		c0-0.704-0.336-0.888-0.76-0.888h-0.023v1.855H92.097z"/>
	<path class="st7" d="M95.056,170.079h1.008c0.999,0,1.727,0.528,1.727,1.783v0.072c0,0.728-0.287,1.191-0.655,1.471l0.752,2.271
		h-1.04l-0.631-1.951h-0.185v1.951h-0.976C95.056,175.676,95.056,170.079,95.056,170.079z M96.079,172.846
		c0.424,0,0.736-0.248,0.736-0.903v-0.064c0-0.704-0.336-0.888-0.76-0.888h-0.024v1.855H96.079z M98.241,170.079h1.007
		c1,0,1.728,0.528,1.728,1.783v0.072c0,0.728-0.288,1.191-0.655,1.471l0.751,2.271h-1.039l-0.632-1.951h-0.184v1.951h-0.976V170.079
		z M99.264,172.846c0.424,0,0.735-0.248,0.735-0.903v-0.064c0-0.704-0.336-0.888-0.76-0.888h-0.023v1.855H99.264z"/>
	<path class="st7" d="M60.919,619.181l1.287-3.902h-1.239v-0.919h2.311v0.775l-1.288,3.901h1.288v0.92h-2.359V619.181z
		 M63.759,614.36h0.976v5.597h-0.976V614.36z M65.327,614.36h0.871c1.063,0,1.807,0.575,1.807,1.887v0.016
		c0,1.264-0.704,1.863-1.695,1.936h-0.008v1.759h-0.975V614.36z M66.311,617.294c0.408-0.024,0.719-0.32,0.719-1v-0.016
		c0-0.712-0.271-1.016-0.695-1.016h-0.032v2.031L66.311,617.294L66.311,617.294z M69.679,614.36h0.976v4.669h1.031v0.928h-2.007
		V614.36z M72.095,614.36h0.976v5.597h-0.976V614.36z M73.663,614.36h0.911l0.983,2.83v-2.83h0.951v5.597h-0.863l-1.031-2.967v2.967
		h-0.951C73.663,619.957,73.663,614.36,73.663,614.36z M77.087,614.36h2.143v0.928h-1.167v1.391h1.031v0.928h-1.031v1.423h1.191
		v0.928h-2.167V614.36z"/>
	<path class="st7" d="M21.737,202.38h0.975v2.318h0.848v-2.318h0.976v5.597H23.56v-2.351h-0.848v2.351h-0.975V202.38z
		 M25.016,205.322v-0.288c0-1.847,0.6-2.734,1.487-2.734s1.487,0.887,1.487,2.734v0.288c0,1.847-0.6,2.734-1.487,2.734
		C25.616,208.057,25.016,207.169,25.016,205.322z M26.999,205.322v-0.288c0-1.439-0.2-1.839-0.496-1.839s-0.496,0.399-0.496,1.839
		v0.288c0,1.439,0.2,1.839,0.496,1.839S26.999,206.761,26.999,205.322z M28.832,203.307h-0.688v-0.927h2.351v0.927h-0.688v4.669
		h-0.975V203.307z M32.696,203.307h-0.688v-0.927h2.351v0.927h-0.688v4.669h-0.976L32.696,203.307L32.696,203.307z M34.752,206.346
		v-3.966h0.967v4.062c0,0.504,0.176,0.704,0.424,0.704s0.424-0.2,0.424-0.704v-4.062h0.967v3.966c0,1.175-0.591,1.703-1.391,1.703
		C35.344,208.049,34.752,207.521,34.752,206.346z M38.096,202.38h0.848c0.943,0,1.823,0.384,1.823,1.423v0.04
		c0,0.72-0.408,1.071-0.808,1.263c0.472,0.208,0.879,0.536,0.879,1.248v0.072c0,0.992-0.768,1.551-1.855,1.551h-0.888L38.096,202.38
		L38.096,202.38z M39.088,204.731c0.432,0,0.719-0.248,0.719-0.736v-0.016c0-0.487-0.288-0.695-0.719-0.695h-0.016v1.447H39.088z
		 M39.096,207.073c0.448,0,0.768-0.264,0.768-0.728v-0.04c0-0.464-0.32-0.728-0.768-0.728h-0.024v1.495L39.096,207.073
		L39.096,207.073z"/>
	<path class="st7" d="M98.238,199.802h0.976v2.318h0.847v-2.318h0.976v5.597h-0.976v-2.351h-0.847v2.351h-0.976V199.802z
		 M101.517,202.744v-0.288c0-1.847,0.601-2.734,1.487-2.734c0.888,0,1.487,0.887,1.487,2.734v0.288c0,1.847-0.6,2.734-1.487,2.734
		C102.118,205.479,101.517,204.591,101.517,202.744z M103.5,202.744v-0.288c0-1.439-0.2-1.839-0.496-1.839s-0.495,0.399-0.495,1.839
		v0.288c0,1.439,0.199,1.839,0.495,1.839S103.5,204.183,103.5,202.744z M105.333,200.729h-0.688v-0.927h2.351v0.927h-0.688v4.669
		h-0.976v-4.669H105.333z M109.197,200.729h-0.688v-0.927h2.351v0.927h-0.688v4.669h-0.976v-4.669H109.197z M111.253,203.768v-3.966
		h0.968v4.062c0,0.504,0.176,0.704,0.424,0.704c0.247,0,0.424-0.2,0.424-0.704v-4.062h0.967v3.966c0,1.175-0.592,1.703-1.391,1.703
		C111.845,205.47,111.253,204.943,111.253,203.768z M114.597,199.802h0.848c0.943,0,1.823,0.384,1.823,1.423v0.04
		c0,0.72-0.408,1.071-0.808,1.263c0.472,0.208,0.879,0.536,0.879,1.248v0.072c0,0.992-0.768,1.551-1.854,1.551h-0.888V199.802z
		 M115.588,202.153c0.433,0,0.72-0.248,0.72-0.736v-0.016c0-0.487-0.287-0.695-0.72-0.695h-0.016v1.447H115.588z M115.597,204.495
		c0.447,0,0.768-0.264,0.768-0.728v-0.04c0-0.464-0.32-0.728-0.768-0.728h-0.024v1.495L115.597,204.495L115.597,204.495z"/>
	<path class="st7" d="M21.737,46.63h0.975v2.318h0.848V46.63h0.976v5.597H23.56v-2.351h-0.848v2.351h-0.975V46.63z M25.016,49.572
		v-0.288c0-1.847,0.6-2.734,1.487-2.734s1.487,0.887,1.487,2.734v0.288c0,1.847-0.6,2.734-1.487,2.734
		C25.616,52.307,25.016,51.419,25.016,49.572z M26.999,49.572v-0.288c0-1.439-0.2-1.839-0.496-1.839s-0.496,0.399-0.496,1.839v0.288
		c0,1.439,0.2,1.839,0.496,1.839S26.999,51.011,26.999,49.572z M28.832,47.557h-0.688V46.63h2.351v0.927h-0.688v4.669h-0.975V47.557
		z M32.696,47.557h-0.688V46.63h2.351v0.927h-0.688v4.669h-0.976L32.696,47.557L32.696,47.557z M34.752,50.596V46.63h0.967v4.062
		c0,0.504,0.176,0.704,0.424,0.704s0.424-0.2,0.424-0.704V46.63h0.967v3.966c0,1.175-0.591,1.703-1.391,1.703
		C35.344,52.299,34.752,51.771,34.752,50.596z M38.096,46.63h0.848c0.943,0,1.823,0.384,1.823,1.423v0.04
		c0,0.72-0.408,1.071-0.808,1.263c0.472,0.208,0.879,0.536,0.879,1.248v0.072c0,0.992-0.768,1.551-1.855,1.551h-0.888L38.096,46.63
		L38.096,46.63z M39.088,48.981c0.432,0,0.719-0.248,0.719-0.736v-0.016c0-0.487-0.288-0.695-0.719-0.695h-0.016v1.447H39.088z
		 M39.096,51.323c0.448,0,0.768-0.264,0.768-0.728v-0.04c0-0.464-0.32-0.728-0.768-0.728h-0.024v1.495h0.024V51.323z"/>
	<path class="st7" d="M95.488,46.63h0.976v2.318h0.847V46.63h0.976v5.597H97.31v-2.351h-0.847v2.351h-0.976L95.488,46.63
		L95.488,46.63z M98.767,49.572v-0.288c0-1.847,0.601-2.734,1.487-2.734c0.888,0,1.487,0.887,1.487,2.734v0.288
		c0,1.847-0.6,2.734-1.487,2.734C99.368,52.307,98.767,51.419,98.767,49.572z M100.75,49.572v-0.288c0-1.439-0.2-1.839-0.496-1.839
		s-0.495,0.399-0.495,1.839v0.288c0,1.439,0.199,1.839,0.495,1.839S100.75,51.011,100.75,49.572z M102.583,47.557h-0.688V46.63
		h2.351v0.927h-0.688v4.669h-0.976v-4.669H102.583z M106.447,47.557h-0.688V46.63h2.351v0.927h-0.688v4.669h-0.976v-4.669H106.447z
		 M108.503,50.596V46.63h0.968v4.062c0,0.504,0.176,0.704,0.424,0.704c0.247,0,0.424-0.2,0.424-0.704V46.63h0.967v3.966
		c0,1.175-0.592,1.703-1.391,1.703C109.095,52.299,108.503,51.771,108.503,50.596z M111.847,46.63h0.848
		c0.943,0,1.823,0.384,1.823,1.423v0.04c0,0.72-0.408,1.071-0.808,1.263c0.472,0.208,0.879,0.536,0.879,1.248v0.072
		c0,0.992-0.768,1.551-1.854,1.551h-0.888V46.63z M112.838,48.981c0.433,0,0.72-0.248,0.72-0.736v-0.016
		c0-0.487-0.287-0.695-0.72-0.695h-0.016v1.447H112.838z M112.847,51.323c0.447,0,0.768-0.264,0.768-0.728v-0.04
		c0-0.464-0.32-0.728-0.768-0.728h-0.024v1.495h0.024V51.323z"/>
	<path class="st7" d="M33.742,751.477v-1.016c0.344,0.199,0.616,0.312,0.879,0.312c0.28,0,0.52-0.136,0.52-0.479v-0.017
		c0-0.256-0.08-0.447-0.543-0.976c-0.664-0.751-0.936-1.111-0.936-1.791v-0.016c0-0.896,0.583-1.463,1.359-1.463
		c0.392,0,0.624,0.056,0.863,0.176v1.016c-0.304-0.176-0.488-0.256-0.744-0.256c-0.271,0-0.503,0.176-0.503,0.479v0.016
		c0,0.265,0.08,0.36,0.543,0.896c0.768,0.888,0.936,1.231,0.936,1.871v0.017c0,0.879-0.616,1.463-1.383,1.463
		C34.349,751.708,34.022,751.612,33.742,751.477z M36.446,750.037v-3.966h0.968v4.062c0,0.504,0.176,0.703,0.424,0.703
		s0.423-0.199,0.423-0.703v-4.062h0.968v3.966c0,1.175-0.592,1.703-1.391,1.703C37.037,751.74,36.446,751.212,36.446,750.037z
		 M39.789,746.071h0.912l0.983,2.83v-2.83h0.952v5.597h-0.863l-1.032-2.967v2.967h-0.952V746.071z M32.626,754.071h0.912
		c1.247,0,1.959,0.903,1.959,2.702v0.192c0,1.799-0.712,2.702-1.959,2.702h-0.912V754.071z M33.641,758.773
		c0.464,0,0.864-0.408,0.864-1.807v-0.192c0-1.399-0.4-1.807-0.864-1.807h-0.04v3.806H33.641z M35.978,754.071h2.143v0.927h-1.167
		v1.392h1.032v0.928h-1.032v1.423h1.191v0.928h-2.167C35.978,759.669,35.978,754.071,35.978,754.071z M38.442,756.966v-0.192
		c0-1.967,0.728-2.742,1.639-2.742c0.272,0,0.432,0.032,0.64,0.128v1.007c-0.2-0.119-0.36-0.184-0.544-0.184
		c-0.432,0-0.744,0.384-0.744,1.783v0.208c0,1.479,0.312,1.783,0.76,1.783c0.152,0,0.344-0.057,0.544-0.177v0.96
		c-0.224,0.128-0.44,0.168-0.72,0.168C39.121,759.708,38.442,758.916,38.442,756.966z M41.225,754.071h0.976v2.343l0.792-2.343
		h1.104l-0.943,2.366l0.959,3.23h-1.087l-0.608-2.119l-0.216,0.616v1.503h-0.976L41.225,754.071L41.225,754.071z"/>
	<path class="st7" d="M92.328,751.477v-1.016c0.344,0.199,0.615,0.312,0.879,0.312c0.28,0,0.521-0.136,0.521-0.479v-0.017
		c0-0.256-0.08-0.447-0.544-0.976c-0.664-0.751-0.936-1.111-0.936-1.791v-0.016c0-0.896,0.584-1.463,1.359-1.463
		c0.392,0,0.623,0.056,0.863,0.176v1.016c-0.304-0.176-0.487-0.256-0.743-0.256c-0.272,0-0.504,0.176-0.504,0.479v0.016
		c0,0.265,0.08,0.36,0.544,0.896c0.768,0.888,0.935,1.231,0.935,1.871v0.017c0,0.879-0.615,1.463-1.383,1.463
		C92.936,751.708,92.608,751.612,92.328,751.477z M95.033,750.037v-3.966H96v4.062c0,0.504,0.176,0.703,0.424,0.703
		s0.424-0.199,0.424-0.703v-4.062h0.968v3.966c0,1.175-0.592,1.703-1.392,1.703C95.624,751.74,95.033,751.212,95.033,750.037z
		 M98.376,746.071h0.911l0.983,2.83v-2.83h0.951v5.597h-0.863l-1.031-2.967v2.967h-0.951
		C98.376,751.668,98.376,746.071,98.376,746.071z M91.212,754.071h0.911c1.248,0,1.959,0.903,1.959,2.702v0.192
		c0,1.799-0.711,2.702-1.959,2.702h-0.911V754.071z M92.228,758.773c0.464,0,0.863-0.408,0.863-1.807v-0.192
		c0-1.399-0.399-1.807-0.863-1.807h-0.04v3.806H92.228z M94.564,754.071h2.144v0.927H95.54v1.392h1.031v0.928H95.54v1.423h1.191
		v0.928h-2.167V754.071z M97.028,756.966v-0.192c0-1.967,0.728-2.742,1.64-2.742c0.271,0,0.432,0.032,0.64,0.128v1.007
		c-0.2-0.119-0.36-0.184-0.544-0.184c-0.432,0-0.743,0.384-0.743,1.783v0.208c0,1.479,0.312,1.783,0.759,1.783
		c0.152,0,0.345-0.057,0.544-0.177v0.96c-0.224,0.128-0.439,0.168-0.72,0.168C97.707,759.708,97.028,758.916,97.028,756.966z
		 M99.812,754.071h0.976v2.343l0.792-2.343h1.104l-0.944,2.366l0.96,3.23h-1.088l-0.607-2.119l-0.216,0.616v1.503h-0.976
		L99.812,754.071L99.812,754.071z"/>
	<path class="st7" d="M19.44,464.381h1.039l1.063,5.613h-0.975l-0.184-1.111h-0.888l-0.176,1.111h-0.943L19.44,464.381z
		 M20.24,468.003l-0.296-1.847l-0.304,1.847H20.24z M23.967,469.723c-0.231,0.239-0.503,0.352-0.792,0.352
		c-0.919,0-1.511-0.888-1.511-2.734v-0.288c0-1.847,0.6-2.734,1.487-2.734s1.487,0.888,1.487,2.734v0.288
		c0,0.76-0.112,1.359-0.304,1.799l0.503,0.464l-0.488,0.52L23.967,469.723z M23.4,469.131l-0.48-0.472l0.456-0.504l0.232,0.248
		c0.024-0.265,0.04-0.608,0.04-1.063v-0.288c0-1.439-0.2-1.839-0.496-1.839s-0.496,0.399-0.496,1.839v0.288
		c0,1.566,0.208,1.854,0.568,1.854C23.287,469.195,23.344,469.179,23.4,469.131z M25.16,468.363v-3.966h0.967v4.062
		c0,0.504,0.176,0.703,0.424,0.703s0.424-0.199,0.424-0.703v-4.062h0.967v3.966c0,1.175-0.591,1.703-1.391,1.703
		C25.752,470.067,25.16,469.538,25.16,468.363z M29.248,464.381h1.04l1.063,5.613h-0.976l-0.184-1.111h-0.887l-0.176,1.111h-0.944
		L29.248,464.381z M30.048,468.003l-0.296-1.847l-0.304,1.847H30.048z M17.752,472.398h1.008c1,0,1.727,0.527,1.727,1.783v0.071
		c0,0.728-0.288,1.191-0.656,1.472l0.751,2.271h-1.04l-0.631-1.951h-0.184v1.951h-0.976v-5.597H17.752z M18.776,475.164
		c0.424,0,0.736-0.248,0.736-0.904v-0.063c0-0.704-0.336-0.888-0.76-0.888h-0.024v1.855L18.776,475.164L18.776,475.164z
		 M21.72,472.381h1.04l1.063,5.613h-0.976l-0.184-1.111h-0.887l-0.176,1.111h-0.943L21.72,472.381z M22.52,476.003l-0.296-1.847
		l-0.304,1.847H22.52z M23.945,475.292V475.1c0-1.967,0.728-2.742,1.639-2.742c0.271,0,0.432,0.032,0.64,0.128v1.007
		c-0.2-0.119-0.36-0.184-0.544-0.184c-0.432,0-0.744,0.384-0.744,1.783v0.208c0,1.479,0.312,1.783,0.76,1.783
		c0.152,0,0.344-0.057,0.543-0.177v0.96c-0.224,0.128-0.439,0.168-0.719,0.168C24.624,478.034,23.945,477.242,23.945,475.292z
		 M26.728,472.398h2.143v0.927h-1.167v1.392h1.031v0.928h-1.031v1.423h1.191v0.928h-2.167V472.398z M29.368,472.398h1.007
		c1,0,1.727,0.527,1.727,1.783v0.071c0,0.728-0.288,1.191-0.656,1.472l0.751,2.271H31.16l-0.632-1.951h-0.184v1.951h-0.976V472.398z
		 M30.392,475.164c0.424,0,0.735-0.248,0.735-0.904v-0.063c0-0.704-0.336-0.888-0.759-0.888h-0.024v1.855L30.392,475.164
		L30.392,475.164z"/>
	<path class="st7" d="M5.3,716.821h1.008c0.999,0,1.727,0.527,1.727,1.783v0.071c0,0.728-0.288,1.191-0.656,1.472l0.751,2.271H7.09
		l-0.631-1.951H6.276v1.951H5.3V716.821z M6.324,719.588c0.424,0,0.736-0.248,0.736-0.904v-0.063c0-0.704-0.336-0.888-0.76-0.888
		H6.276v1.855H6.324z M8.389,719.764v-0.288c0-1.847,0.6-2.734,1.487-2.734c0.888,0,1.487,0.888,1.487,2.734v0.288
		c0,1.847-0.6,2.734-1.487,2.734C8.988,722.498,8.389,721.611,8.389,719.764z M10.371,719.764v-0.288c0-1.439-0.2-1.839-0.496-1.839
		s-0.496,0.399-0.496,1.839v0.288c0,1.439,0.2,1.839,0.496,1.839S10.371,721.203,10.371,719.764z M11.844,716.821h0.872
		c1.063,0,1.807,0.575,1.807,1.887v0.016c0,1.264-0.704,1.863-1.695,1.936H12.82v1.759h-0.976V716.821z M12.827,719.756
		c0.408-0.024,0.72-0.32,0.72-1v-0.016c0-0.712-0.271-1.016-0.695-1.016H12.82v2.031L12.827,719.756L12.827,719.756z
		 M14.924,716.821h2.143v0.927H15.9v1.392h1.031v0.928H15.9v1.423h1.191v0.928h-2.167V716.821z M17.444,722.227v-1.016
		c0.344,0.199,0.616,0.312,0.879,0.312c0.28,0,0.52-0.136,0.52-0.479v-0.017c0-0.256-0.08-0.447-0.544-0.976
		c-0.664-0.751-0.936-1.111-0.936-1.791v-0.016c0-0.896,0.584-1.463,1.359-1.463c0.392,0,0.624,0.056,0.864,0.176v1.016
		c-0.304-0.176-0.488-0.256-0.744-0.256c-0.272,0-0.504,0.176-0.504,0.479v0.016c0,0.265,0.08,0.36,0.543,0.896
		c0.768,0.888,0.936,1.231,0.936,1.871v0.017c0,0.879-0.615,1.463-1.383,1.463C18.052,722.458,17.724,722.362,17.444,722.227z
		 M21.34,719.716v-0.192c0-1.967,0.728-2.742,1.639-2.742c0.272,0,0.432,0.032,0.64,0.128v1.007c-0.2-0.119-0.36-0.184-0.544-0.184
		c-0.432,0-0.744,0.384-0.744,1.783v0.208c0,1.479,0.312,1.783,0.76,1.783c0.152,0,0.344-0.057,0.544-0.177v0.96
		c-0.224,0.128-0.44,0.168-0.72,0.168C22.02,722.458,21.34,721.666,21.34,719.716z M23.828,719.764v-0.288
		c0-1.847,0.6-2.734,1.487-2.734c0.888,0,1.487,0.888,1.487,2.734v0.288c0,1.847-0.6,2.734-1.487,2.734
		S23.828,721.611,23.828,719.764z M25.811,719.764v-0.288c0-1.439-0.2-1.839-0.496-1.839s-0.496,0.399-0.496,1.839v0.288
		c0,1.439,0.2,1.839,0.496,1.839S25.811,721.203,25.811,719.764z M27.268,720.787v-3.966h0.968v4.062
		c0,0.504,0.176,0.703,0.424,0.703s0.424-0.199,0.424-0.703v-4.062h0.967v3.966c0,1.175-0.592,1.703-1.391,1.703
		C27.86,722.49,27.268,721.962,27.268,720.787z M30.612,716.821h1.007c1,0,1.727,0.527,1.727,1.783v0.071
		c0,0.728-0.288,1.191-0.656,1.472l0.751,2.271h-1.039l-0.632-1.951h-0.184v1.951h-0.975L30.612,716.821L30.612,716.821z
		 M31.636,719.588c0.423,0,0.735-0.248,0.735-0.904v-0.063c0-0.704-0.336-0.888-0.759-0.888h-0.024v1.855H31.636z M33.676,722.227
		v-1.016c0.344,0.199,0.616,0.312,0.879,0.312c0.28,0,0.52-0.136,0.52-0.479v-0.017c0-0.256-0.08-0.447-0.543-0.976
		c-0.664-0.751-0.936-1.111-0.936-1.791v-0.016c0-0.896,0.583-1.463,1.359-1.463c0.392,0,0.624,0.056,0.863,0.176v1.016
		c-0.304-0.176-0.488-0.256-0.744-0.256c-0.271,0-0.503,0.176-0.503,0.479v0.016c0,0.265,0.08,0.36,0.543,0.896
		c0.768,0.888,0.936,1.231,0.936,1.871v0.017c0,0.879-0.616,1.463-1.383,1.463C34.284,722.458,33.956,722.362,33.676,722.227z
		 M36.396,716.821h2.143v0.927h-1.167v1.392h1.031v0.928h-1.031v1.423h1.191v0.928h-2.167
		C36.396,722.419,36.396,716.821,36.396,716.821z"/>
	<path class="st7" d="M103.887,515.488h2.039v0.928h-1.063v1.406h0.928v0.928h-0.928v2.335h-0.976V515.488z M106.368,515.488h1.007
		c1,0,1.728,0.527,1.728,1.783v0.071c0,0.728-0.288,1.191-0.655,1.472l0.751,2.271h-1.039l-0.632-1.951h-0.184v1.951h-0.976V515.488
		z M107.391,518.255c0.424,0,0.735-0.248,0.735-0.904v-0.063c0-0.704-0.336-0.888-0.76-0.888h-0.023v1.855H107.391z
		 M109.551,515.488h2.143v0.928h-1.167v1.391h1.031v0.928h-1.031v1.423h1.191v0.928h-2.167V515.488z M112.191,515.488h2.144v0.928
		h-1.168v1.391h1.031v0.928h-1.031v1.423h1.191v0.928h-2.167V515.488z M116.103,515.488h2.039v0.928h-1.063v1.406h0.928v0.928
		h-0.928v2.335h-0.976V515.488z M119.166,515.472h1.04l1.063,5.613h-0.976l-0.185-1.111h-0.887l-0.177,1.111h-0.943L119.166,515.472
		z M119.966,519.094l-0.296-1.847l-0.304,1.847H119.966z M121.567,515.488h0.976v4.669h1.031v0.928h-2.007V515.488z
		 M123.967,515.488h0.976v4.669h1.031v0.928h-2.007C123.967,521.085,123.967,515.488,123.967,515.488z M107.419,528.893v-1.015
		c0.344,0.199,0.615,0.312,0.88,0.312c0.279,0,0.52-0.136,0.52-0.479v-0.017c0-0.256-0.08-0.447-0.544-0.975
		c-0.664-0.752-0.936-1.112-0.936-1.791v-0.017c0-0.896,0.584-1.463,1.359-1.463c0.392,0,0.624,0.056,0.863,0.176v1.016
		c-0.304-0.176-0.487-0.256-0.743-0.256c-0.272,0-0.504,0.176-0.504,0.479v0.016c0,0.265,0.08,0.36,0.544,0.896
		c0.768,0.888,0.936,1.231,0.936,1.871v0.017c0,0.879-0.616,1.463-1.384,1.463C108.027,529.125,107.7,529.029,107.419,528.893z
		 M110.139,523.488h0.976v4.669h1.031v0.928h-2.007C110.139,529.085,110.139,523.488,110.139,523.488z M112.555,523.488h0.976v5.597
		h-0.976V523.488z M114.123,523.488h0.911c1.247,0,1.959,0.903,1.959,2.702v0.192c0,1.799-0.712,2.702-1.959,2.702h-0.911V523.488z
		 M115.138,528.19c0.464,0,0.864-0.408,0.864-1.807v-0.192c0-1.399-0.4-1.807-0.864-1.807h-0.039v3.806H115.138z M117.475,523.488
		h2.143v0.928h-1.167v1.391h1.031v0.928h-1.031v1.423h1.191v0.928h-2.167V523.488z M119.995,528.893v-1.015
		c0.344,0.199,0.615,0.312,0.879,0.312c0.28,0,0.52-0.136,0.52-0.479v-0.017c0-0.256-0.08-0.447-0.543-0.975
		c-0.664-0.752-0.936-1.112-0.936-1.791v-0.017c0-0.896,0.583-1.463,1.359-1.463c0.392,0,0.623,0.056,0.863,0.176v1.016
		c-0.304-0.176-0.488-0.256-0.744-0.256c-0.271,0-0.504,0.176-0.504,0.479v0.016c0,0.265,0.08,0.36,0.544,0.896
		c0.768,0.888,0.936,1.231,0.936,1.871v0.017c0,0.879-0.615,1.463-1.383,1.463C120.603,529.125,120.275,529.029,119.995,528.893z"/>
	<path class="st7" d="M59.213,681.393v-1.015c0.344,0.199,0.616,0.312,0.879,0.312c0.28,0,0.52-0.136,0.52-0.479v-0.017
		c0-0.256-0.08-0.447-0.544-0.975c-0.664-0.752-0.936-1.112-0.936-1.791v-0.017c0-0.896,0.584-1.463,1.359-1.463
		c0.392,0,0.624,0.056,0.863,0.176v1.016c-0.304-0.176-0.487-0.256-0.743-0.256c-0.272,0-0.504,0.176-0.504,0.479v0.016
		c0,0.265,0.08,0.36,0.544,0.896c0.768,0.888,0.935,1.231,0.935,1.871v0.017c0,0.879-0.616,1.463-1.383,1.463
		C59.821,681.625,59.493,681.529,59.213,681.393z M61.933,675.988h0.872c1.063,0,1.807,0.575,1.807,1.887v0.016
		c0,1.264-0.704,1.863-1.695,1.936h-0.008v1.759h-0.976V675.988z M62.916,678.923c0.408-0.024,0.72-0.32,0.72-1v-0.016
		c0-0.712-0.271-1.016-0.695-1.016h-0.032v2.031L62.916,678.923L62.916,678.923z M64.917,678.931v-0.288
		c0-1.847,0.6-2.734,1.487-2.734c0.888,0,1.487,0.888,1.487,2.734v0.288c0,1.847-0.6,2.734-1.487,2.734
		C65.517,681.665,64.917,680.778,64.917,678.931z M66.9,678.931v-0.288c0-1.439-0.2-1.839-0.496-1.839
		c-0.295,0-0.496,0.399-0.496,1.839v0.288c0,1.438,0.2,1.839,0.496,1.839C66.7,680.77,66.9,680.369,66.9,678.931z M68.373,675.988
		h1.007c1,0,1.728,0.527,1.728,1.783v0.071c0,0.728-0.288,1.191-0.656,1.472l0.752,2.271h-1.039l-0.632-1.951h-0.184v1.951h-0.976
		V675.988z M69.397,678.755c0.424,0,0.735-0.248,0.735-0.904v-0.063c0-0.704-0.336-0.888-0.76-0.888h-0.023v1.855H69.397z
		 M71.996,676.916h-0.688v-0.928h2.351v0.928h-0.688v4.669h-0.976v-4.669H71.996z M73.949,681.393v-1.015
		c0.345,0.199,0.616,0.312,0.88,0.312c0.28,0,0.52-0.136,0.52-0.479v-0.017c0-0.256-0.08-0.447-0.543-0.975
		c-0.664-0.752-0.936-1.112-0.936-1.791v-0.017c0-0.896,0.583-1.463,1.358-1.463c0.393,0,0.624,0.056,0.864,0.176v1.016
		c-0.304-0.176-0.488-0.256-0.744-0.256c-0.271,0-0.503,0.176-0.503,0.479v0.016c0,0.265,0.079,0.36,0.543,0.896
		c0.768,0.888,0.936,1.231,0.936,1.871v0.017c0,0.879-0.615,1.463-1.383,1.463C74.557,681.625,74.229,681.529,73.949,681.393z
		 M57.41,686.883v-0.192c0-1.967,0.728-2.742,1.639-2.742c0.272,0,0.432,0.032,0.64,0.128v1.007c-0.2-0.119-0.359-0.184-0.543-0.184
		c-0.432,0-0.744,0.384-0.744,1.783v0.208c0,1.479,0.312,1.783,0.76,1.783c0.152,0,0.344-0.057,0.543-0.176v0.959
		c-0.224,0.128-0.44,0.168-0.72,0.168C58.089,689.625,57.41,688.833,57.41,686.883z M59.897,686.931v-0.288
		c0-1.847,0.6-2.734,1.487-2.734s1.487,0.888,1.487,2.734v0.288c0,1.847-0.6,2.734-1.487,2.734
		C60.497,689.665,59.897,688.778,59.897,686.931z M61.88,686.931v-0.288c0-1.439-0.2-1.839-0.496-1.839s-0.496,0.399-0.496,1.839
		v0.288c0,1.438,0.2,1.839,0.496,1.839S61.88,688.369,61.88,686.931z M63.353,683.988h0.967l0.688,2.047l0.688-2.047h0.967v5.597
		h-0.936v-3.382l-0.711,2.118H65l-0.711-2.118v3.382h-0.936V683.988z M67.241,683.988h0.872c1.063,0,1.807,0.575,1.807,1.887v0.016
		c0,1.264-0.703,1.863-1.695,1.936h-0.008v1.759h-0.976V683.988z M68.224,686.923c0.408-0.024,0.72-0.32,0.72-1v-0.016
		c0-0.712-0.272-1.016-0.696-1.016h-0.032v2.031L68.224,686.923L68.224,686.923z M70.322,683.988h0.975v4.669h1.032v0.928h-2.007
		C70.322,689.585,70.322,683.988,70.322,683.988z M72.721,683.988h2.143v0.928h-1.167v1.391h1.031v0.928h-1.031v1.423h1.191v0.928
		h-2.167V683.988z M76.048,686.731l-0.879-2.742h1.039l0.439,1.615l0.448-1.615h1.016l-0.88,2.742l0.912,2.854h-1.04l-0.472-1.703
		l-0.479,1.703h-1.016L76.048,686.731z"/>
	<path class="st7" d="M23.376,87.589h0.872c1.063,0,1.807,0.576,1.807,1.887v0.016c0,1.263-0.704,1.863-1.695,1.935h-0.008v1.759
		h-0.976V87.589z M24.36,90.524c0.408-0.024,0.72-0.32,0.72-1v-0.016c0-0.711-0.272-1.015-0.695-1.015h-0.032v2.031H24.36z
		 M26.44,91.555v-3.966h0.968v4.062c0,0.504,0.176,0.704,0.423,0.704c0.248,0,0.424-0.2,0.424-0.704v-4.062h0.968v3.966
		c0,1.176-0.592,1.703-1.392,1.703C27.032,93.258,26.44,92.731,26.44,91.555z M29.785,87.589h0.847c0.944,0,1.823,0.384,1.823,1.423
		v0.04c0,0.72-0.408,1.071-0.808,1.263c0.472,0.208,0.879,0.536,0.879,1.248v0.072c0,0.992-0.768,1.551-1.855,1.551h-0.887
		L29.785,87.589L29.785,87.589z M30.776,89.94c0.432,0,0.72-0.248,0.72-0.736v-0.016c0-0.488-0.288-0.696-0.72-0.696H30.76v1.447
		L30.776,89.94L30.776,89.94z M30.784,92.283c0.448,0,0.768-0.264,0.768-0.728v-0.04c0-0.464-0.32-0.728-0.768-0.728H30.76v1.496
		C30.76,92.283,30.784,92.283,30.784,92.283z M32.936,87.589h0.975v4.67h1.032v0.927h-2.007V87.589z M35.352,87.589h0.976v5.597
		h-0.976V87.589z M36.824,90.484v-0.192c0-1.967,0.728-2.742,1.639-2.742c0.272,0,0.432,0.032,0.64,0.128v1.007
		c-0.2-0.12-0.36-0.184-0.543-0.184c-0.432,0-0.744,0.384-0.744,1.783v0.208c0,1.479,0.312,1.783,0.759,1.783
		c0.152,0,0.344-0.056,0.544-0.176v0.959c-0.224,0.128-0.44,0.168-0.72,0.168C37.504,93.226,36.824,92.435,36.824,90.484z
		 M20.149,100.994v-1.016c0.344,0.2,0.615,0.312,0.879,0.312c0.28,0,0.52-0.136,0.52-0.48v-0.016c0-0.256-0.08-0.448-0.543-0.976
		c-0.664-0.751-0.936-1.111-0.936-1.791v-0.016c0-0.896,0.583-1.463,1.359-1.463c0.392,0,0.624,0.056,0.863,0.176v1.015
		c-0.304-0.176-0.488-0.256-0.744-0.256c-0.272,0-0.503,0.176-0.503,0.48v0.016c0,0.264,0.08,0.36,0.543,0.896
		c0.768,0.887,0.936,1.231,0.936,1.871v0.016c0,0.88-0.616,1.463-1.383,1.463C20.756,101.226,20.429,101.13,20.149,100.994z
		 M22.852,99.555v-3.966h0.967v4.062c0,0.504,0.176,0.704,0.424,0.704s0.424-0.2,0.424-0.704v-4.062h0.968v3.966
		c0,1.176-0.592,1.703-1.392,1.703C23.444,101.258,22.852,100.731,22.852,99.555z M26.196,95.589h0.912l0.983,2.831v-2.831h0.952
		v5.597h-0.864l-1.031-2.966v2.966h-0.952V95.589z M30.892,95.589h0.911c1.248,0,1.959,0.904,1.959,2.703v0.192
		c0,1.799-0.711,2.703-1.959,2.703h-0.911C30.892,101.187,30.892,95.589,30.892,95.589z M31.908,100.291
		c0.464,0,0.864-0.408,0.864-1.807v-0.192c0-1.399-0.4-1.807-0.864-1.807h-0.04v3.806H31.908z M34.244,95.589h2.143v0.928H35.22
		v1.391h1.032v0.928H35.22v1.423h1.191v0.927h-2.167C34.244,101.186,34.244,95.589,34.244,95.589z M36.708,98.484v-0.192
		c0-1.967,0.728-2.742,1.639-2.742c0.272,0,0.432,0.032,0.64,0.128v1.007c-0.2-0.12-0.359-0.184-0.543-0.184
		c-0.432,0-0.744,0.384-0.744,1.783v0.208c0,1.479,0.312,1.783,0.76,1.783c0.152,0,0.344-0.056,0.543-0.176v0.959
		c-0.224,0.128-0.439,0.168-0.719,0.168C37.388,101.226,36.708,100.435,36.708,98.484z M39.492,95.589h0.976v2.343l0.792-2.343
		h1.104l-0.943,2.367l0.959,3.23h-1.087l-0.608-2.119l-0.216,0.615v1.503h-0.976L39.492,95.589L39.492,95.589z"/>
	<path class="st7" d="M99.882,133.108h0.992l0.527,3.646l0.527-3.646h0.96l-0.999,5.613h-1.008L99.882,133.108z M103.202,133.108
		h0.976v5.597h-0.976V133.108z M104.771,133.108h0.847c0.944,0,1.823,0.384,1.823,1.423v0.04c0,0.72-0.407,1.071-0.808,1.263
		c0.472,0.208,0.88,0.536,0.88,1.248v0.072c0,0.992-0.768,1.551-1.855,1.551h-0.887
		C104.771,138.705,104.771,133.108,104.771,133.108z M105.762,135.459c0.432,0,0.72-0.248,0.72-0.736v-0.016
		c0-0.488-0.288-0.696-0.72-0.696h-0.017v1.447L105.762,135.459L105.762,135.459z M105.77,137.801c0.448,0,0.768-0.264,0.768-0.728
		v-0.04c0-0.464-0.319-0.728-0.768-0.728h-0.024v1.496L105.77,137.801L105.77,137.801z M107.922,133.108h2.143v0.928h-1.167v1.391
		h1.031v0.928h-1.031v1.423h1.191v0.927h-2.167V133.108z M97.882,141.108h0.848c0.943,0,1.823,0.384,1.823,1.423v0.04
		c0,0.72-0.408,1.071-0.808,1.263c0.472,0.208,0.88,0.536,0.88,1.248v0.072c0,0.992-0.768,1.551-1.855,1.551h-0.888
		C97.882,146.705,97.882,141.108,97.882,141.108z M98.874,143.459c0.432,0,0.719-0.248,0.719-0.736v-0.016
		c0-0.488-0.287-0.696-0.719-0.696h-0.017v1.447L98.874,143.459L98.874,143.459z M98.882,145.801c0.447,0,0.768-0.264,0.768-0.728
		v-0.04c0-0.464-0.32-0.728-0.768-0.728h-0.024v1.496L98.882,145.801L98.882,145.801z M101.035,141.108h2.143v0.928h-1.167v1.391
		h1.031v0.928h-1.031v1.423h1.191v0.927h-2.167V141.108z M104.458,141.092h1.039l1.063,5.613h-0.976l-0.184-1.111h-0.888
		l-0.176,1.111h-0.943L104.458,141.092z M105.257,144.714l-0.296-1.847l-0.304,1.847H105.257z M106.682,144.002v-0.192
		c0-1.967,0.728-2.742,1.64-2.742c0.271,0,0.432,0.032,0.64,0.128v1.007c-0.2-0.12-0.36-0.184-0.544-0.184
		c-0.432,0-0.743,0.384-0.743,1.783v0.208c0,1.479,0.312,1.783,0.759,1.783c0.152,0,0.345-0.056,0.544-0.176v0.959
		c-0.224,0.128-0.439,0.168-0.72,0.168C107.362,146.745,106.682,145.953,106.682,144.002z M109.466,141.108h0.976v2.319h0.848
		v-2.319h0.976v5.597h-0.976v-2.351h-0.848v2.351h-0.976V141.108z M99.523,152.002v-0.192c0-1.967,0.728-2.742,1.639-2.742
		c0.272,0,0.432,0.032,0.64,0.128v1.007c-0.2-0.12-0.359-0.184-0.544-0.184c-0.432,0-0.743,0.384-0.743,1.783v0.208
		c0,1.479,0.312,1.783,0.76,1.783c0.151,0,0.344-0.056,0.544-0.176v0.959c-0.225,0.128-0.44,0.168-0.72,0.168
		C100.202,154.745,99.523,153.953,99.523,152.002z M102.306,149.108h0.976v4.67h1.032v0.927h-2.008
		C102.306,154.705,102.306,149.108,102.306,149.108z M104.611,153.073v-3.966h0.967v4.062c0,0.504,0.177,0.704,0.424,0.704
		c0.248,0,0.424-0.2,0.424-0.704v-4.062h0.968v3.966c0,1.176-0.592,1.703-1.392,1.703
		C105.202,154.777,104.611,154.249,104.611,153.073z M107.954,149.108h0.848c0.943,0,1.822,0.384,1.822,1.423v0.04
		c0,0.72-0.407,1.071-0.807,1.263c0.472,0.208,0.879,0.536,0.879,1.248v0.072c0,0.992-0.768,1.551-1.854,1.551h-0.888V149.108z
		 M108.946,151.459c0.432,0,0.72-0.248,0.72-0.736v-0.016c0-0.488-0.288-0.696-0.72-0.696h-0.016v1.447L108.946,151.459
		L108.946,151.459z M108.953,153.801c0.448,0,0.768-0.264,0.768-0.728v-0.04c0-0.464-0.319-0.728-0.768-0.728h-0.023v1.496
		L108.953,153.801L108.953,153.801z"/>
	<path class="st7" d="M58.375,138.031v-0.288c0-1.847,0.6-2.734,1.487-2.734c0.888,0,1.487,0.887,1.487,2.734v0.288
		c0,1.847-0.6,2.735-1.487,2.735C58.974,140.766,58.375,139.879,58.375,138.031z M60.358,138.031v-0.288
		c0-1.439-0.2-1.839-0.496-1.839s-0.496,0.4-0.496,1.839v0.288c0,1.439,0.2,1.839,0.496,1.839S60.358,139.471,60.358,138.031z
		 M61.83,135.089h0.872c1.063,0,1.807,0.576,1.807,1.887v0.016c0,1.263-0.704,1.863-1.695,1.935h-0.008v1.759H61.83V135.089z
		 M62.814,138.024c0.408-0.024,0.72-0.32,0.72-1v-0.016c0-0.711-0.271-1.015-0.695-1.015h-0.032v2.031H62.814z M64.91,135.089h2.143
		v0.928h-1.167v1.391h1.031v0.928h-1.031v1.423h1.191v0.927H64.91V135.089z M67.551,135.089h0.911l0.984,2.831v-2.831h0.951v5.597
		h-0.863l-1.032-2.966v2.966h-0.951C67.551,140.686,67.551,135.089,67.551,135.089z M72.766,136.017h-0.688v-0.928h2.351v0.928
		h-0.688v4.669h-0.976v-4.669H72.766z M74.582,138.031v-0.288c0-1.847,0.6-2.734,1.487-2.734s1.487,0.887,1.487,2.734v0.288
		c0,1.847-0.6,2.735-1.487,2.735S74.582,139.879,74.582,138.031z M76.566,138.031v-0.288c0-1.439-0.2-1.839-0.496-1.839
		s-0.496,0.4-0.496,1.839v0.288c0,1.439,0.2,1.839,0.496,1.839S76.566,139.471,76.566,138.031z M53.702,143.089h0.912
		c1.248,0,1.959,0.904,1.959,2.703v0.192c0,1.799-0.711,2.703-1.959,2.703h-0.912V143.089z M54.718,147.791
		c0.464,0,0.863-0.408,0.863-1.807v-0.192c0-1.399-0.399-1.807-0.863-1.807h-0.04v3.806L54.718,147.791L54.718,147.791z
		 M57.055,143.089h2.143v0.928H58.03v1.391h1.031v0.928H58.03v1.423h1.191v0.927h-2.167L57.055,143.089L57.055,143.089z
		 M59.518,145.984v-0.192c0-1.967,0.728-2.742,1.639-2.742c0.272,0,0.432,0.032,0.64,0.128v1.007c-0.2-0.12-0.36-0.184-0.543-0.184
		c-0.432,0-0.744,0.384-0.744,1.783v0.208c0,1.479,0.312,1.783,0.76,1.783c0.152,0,0.344-0.056,0.543-0.176v0.959
		c-0.224,0.128-0.44,0.168-0.72,0.168C60.198,148.726,59.518,147.935,59.518,145.984z M62.303,143.089h0.976v2.343l0.792-2.343
		h1.104l-0.944,2.367l0.959,3.23h-1.087l-0.607-2.119l-0.216,0.615v1.503h-0.976v-5.596H62.303z M66.799,143.089h0.847
		c0.944,0,1.823,0.384,1.823,1.423v0.04c0,0.72-0.408,1.071-0.808,1.263c0.472,0.208,0.88,0.536,0.88,1.248v0.072
		c0,0.992-0.768,1.551-1.855,1.551h-0.887C66.799,148.686,66.799,143.089,66.799,143.089z M67.79,145.44
		c0.432,0,0.72-0.248,0.72-0.736v-0.016c0-0.488-0.288-0.696-0.72-0.696h-0.016v1.447L67.79,145.44L67.79,145.44z M67.798,147.783
		c0.447,0,0.768-0.264,0.768-0.728v-0.04c0-0.464-0.32-0.728-0.768-0.728h-0.024v1.496L67.798,147.783L67.798,147.783z
		 M69.951,143.089h2.143v0.928h-1.167v1.391h1.031v0.928h-1.031v1.423h1.191v0.927h-2.167V143.089z M72.59,143.089h0.976v4.67h1.031
		v0.927H72.59V143.089z M74.695,146.031v-0.288c0-1.847,0.6-2.734,1.487-2.734s1.486,0.887,1.486,2.734v0.288
		c0,1.847-0.6,2.735-1.486,2.735C75.294,148.766,74.695,147.879,74.695,146.031z M76.677,146.031v-0.288
		c0-1.439-0.199-1.839-0.495-1.839s-0.496,0.4-0.496,1.839v0.288c0,1.439,0.2,1.839,0.496,1.839S76.677,147.471,76.677,146.031z
		 M77.806,143.089h1l0.408,3.43l0.487-3.43h0.903l0.479,3.43l0.416-3.43h0.976l-0.848,5.613h-1.023l-0.464-3.318l-0.464,3.318
		h-1.023L77.806,143.089z"/>
	<path class="st7" d="M92.404,16.017h-0.688v-0.928h2.352v0.928H93.38v4.669h-0.975L92.404,16.017L92.404,16.017z M94.476,15.089
		h0.975v2.319h0.848v-2.319h0.976v5.597h-0.976v-2.351h-0.848v2.351h-0.975V15.089z M97.851,15.089h2.144v0.928h-1.168v1.391h1.032
		v0.928h-1.032v1.423h1.191v0.927h-2.167V15.089z M101.763,15.089h0.976v2.319h0.848v-2.319h0.976v5.597h-0.976v-2.351h-0.848v2.351
		h-0.976V15.089z M105.923,15.073h1.039l1.063,5.613h-0.976l-0.184-1.111h-0.888l-0.176,1.111h-0.943L105.923,15.073z
		 M106.722,18.696l-0.296-1.847l-0.304,1.847H106.722z M107.963,15.089h0.991l0.528,3.646l0.527-3.646h0.96l-1,5.613h-1.007
		L107.963,15.089z M111.267,15.089h2.143v0.928h-1.167v1.391h1.031v0.928h-1.031v1.423h1.191v0.927h-2.167V15.089z M113.908,15.089
		h0.911l0.983,2.831v-2.831h0.951v5.597h-0.863l-1.031-2.966v2.966h-0.951C113.908,20.686,113.908,15.089,113.908,15.089z
		 M91.524,25.984v-0.192c0-1.967,0.728-2.742,1.639-2.742c0.272,0,0.432,0.032,0.64,0.128v1.007c-0.2-0.12-0.359-0.184-0.544-0.184
		c-0.432,0-0.743,0.384-0.743,1.783v0.208c0,1.479,0.312,1.783,0.76,1.783c0.151,0,0.344-0.056,0.543-0.176v0.959
		c-0.224,0.128-0.439,0.168-0.719,0.168C92.203,28.726,91.524,27.935,91.524,25.984z M94.011,26.031v-0.288
		c0-1.847,0.6-2.734,1.487-2.734s1.487,0.887,1.487,2.734v0.288c0,1.847-0.6,2.735-1.487,2.735S94.011,27.879,94.011,26.031z
		 M95.994,26.031v-0.288c0-1.439-0.2-1.839-0.496-1.839s-0.495,0.4-0.495,1.839v0.288c0,1.439,0.199,1.839,0.495,1.839
		S95.994,27.471,95.994,26.031z M97.451,27.055v-3.966h0.968v4.062c0,0.504,0.176,0.704,0.424,0.704c0.247,0,0.424-0.2,0.424-0.704
		v-4.062h0.967v3.966c0,1.176-0.592,1.703-1.391,1.703C98.043,28.758,97.451,28.231,97.451,27.055z M100.795,23.089h1.008
		c0.999,0,1.727,0.528,1.727,1.783v0.072c0,0.728-0.288,1.191-0.655,1.471l0.751,2.271h-1.039l-0.632-1.951h-0.184v1.951h-0.976
		V23.089z M101.819,25.856c0.424,0,0.735-0.248,0.735-0.903v-0.064c0-0.704-0.336-0.888-0.76-0.888h-0.023v1.855H101.819z
		 M104.419,24.017h-0.688v-0.928h2.351v0.928h-0.688v4.669h-0.976v-4.669H104.419z M107.162,26.48l-1.039-3.391h1.008l0.527,2.095
		l0.536-2.095h0.983l-1.04,3.391v2.207h-0.976L107.162,26.48L107.162,26.48z M109.931,23.073h1.039l1.063,5.613h-0.976l-0.184-1.111
		h-0.888l-0.176,1.111h-0.943L109.931,23.073z M110.731,26.696l-0.296-1.847l-0.305,1.847H110.731z M112.331,23.089h1.007
		c1,0,1.728,0.528,1.728,1.783v0.072c0,0.728-0.288,1.191-0.655,1.471l0.751,2.271h-1.039l-0.632-1.951h-0.184v1.951h-0.976
		C112.331,28.686,112.331,23.089,112.331,23.089z M113.355,25.856c0.424,0,0.735-0.248,0.735-0.903v-0.064
		c0-0.704-0.336-0.888-0.76-0.888h-0.023v1.855H113.355z M115.515,23.089h0.912c1.247,0,1.959,0.904,1.959,2.703v0.192
		c0,1.799-0.712,2.703-1.959,2.703h-0.912V23.089z M116.531,27.791c0.464,0,0.863-0.408,0.863-1.807v-0.192
		c0-1.399-0.399-1.807-0.863-1.807h-0.04v3.806C116.491,27.791,116.531,27.791,116.531,27.791z M93.9,36.494v-1.016
		c0.344,0.2,0.615,0.312,0.879,0.312c0.28,0,0.521-0.136,0.521-0.48v-0.016c0-0.256-0.08-0.448-0.544-0.976
		c-0.664-0.751-0.936-1.111-0.936-1.791v-0.016c0-0.896,0.584-1.463,1.359-1.463c0.392,0,0.623,0.056,0.863,0.176v1.015
		c-0.304-0.176-0.487-0.256-0.743-0.256c-0.272,0-0.504,0.176-0.504,0.48v0.016c0,0.264,0.08,0.36,0.544,0.896
		c0.768,0.887,0.935,1.231,0.935,1.871v0.016c0,0.88-0.615,1.463-1.383,1.463C94.507,36.726,94.179,36.63,93.9,36.494z
		 M96.604,35.055v-3.966h0.967v4.062c0,0.504,0.176,0.704,0.424,0.704s0.424-0.2,0.424-0.704v-4.062h0.968v3.966
		c0,1.176-0.592,1.703-1.392,1.703S96.604,36.231,96.604,35.055z M99.948,31.089h0.911l0.983,2.831v-2.831h0.951v5.597h-0.863
		l-1.031-2.966v2.966h-0.951C99.948,36.686,99.948,31.089,99.948,31.089z M104.643,31.089h0.912c1.247,0,1.959,0.904,1.959,2.703
		v0.192c0,1.799-0.712,2.703-1.959,2.703h-0.912V31.089z M105.659,35.791c0.464,0,0.863-0.408,0.863-1.807v-0.192
		c0-1.399-0.399-1.807-0.863-1.807h-0.04v3.806H105.659z M107.995,31.089h2.143v0.928h-1.167v1.391h1.031v0.928h-1.031v1.423h1.19
		v0.927h-2.166V31.089z M110.459,33.984v-0.192c0-1.967,0.728-2.742,1.639-2.742c0.272,0,0.432,0.032,0.64,0.128v1.007
		c-0.199-0.12-0.359-0.184-0.543-0.184c-0.433,0-0.744,0.384-0.744,1.783v0.208c0,1.479,0.312,1.783,0.76,1.783
		c0.151,0,0.344-0.056,0.544-0.176v0.959c-0.225,0.128-0.44,0.168-0.72,0.168C111.139,36.726,110.459,35.935,110.459,33.984z
		 M113.243,31.089h0.975v2.343l0.792-2.343h1.104l-0.943,2.367l0.959,3.23h-1.087l-0.607-2.119l-0.217,0.615v1.503h-0.975
		L113.243,31.089L113.243,31.089z"/>
</g>
<g id="ESCAPE_DECK_19_TOP">
	<path class="st8" d="M68.775,350.422h39.181v-75.096l13.692,0.166l0.07-71.513l6.014-6.452l0.008-10.216l-5.996-5.834
		l0.164-121.152l5.49-5.583V43.99l-5.465-5.669c0,0,0.021-16.959,0.021-17.679c0-5.778-1.6-8.619-8.924-11.721
		c-11.176-4.734-20.809-7.99-43.635-7.99H69.06h-0.285h-1.201h-0.285h-0.337c-22.825,0-32.458,3.256-43.635,7.99
		c-7.323,3.102-8.924,5.942-8.924,11.721c0,0.72,0.023,17.679,0.023,17.679L8.95,43.99v10.751l5.49,5.583l0.165,134.165
		l-5.997,5.835l0.008,10.216l6.014,6.452c0,0,0.07,58.5,0.07,58.501l13.692-0.166v75.096h39.181h1.202V350.422z"/>
	<path class="st8" d="M92.25,728.391v-86h-49.5v86H29.417v39.599c0.896-0.28,1.849-0.432,2.837-0.432c4.197,0,7.752,2.725,9.009,6.5
		h15.154v4.833h22.667v-4.833h14.661c1.257-3.775,4.812-6.5,9.009-6.5c0.865,0,1.7,0.126,2.497,0.343v-39.51H92.25z"/>
	<polygon class="st8" points="76.75,540.049 76.75,533.058 52.667,533.058 52.667,540.049 47.75,540.049 47.75,609.123 
		87.417,609.123 87.417,540.049 	"/>
	<g id="gDeck19Locations">
		<rect id="_x31_9Aft" y="533.08" class="st5" width="137.196" height="246.809"/>
		<rect id="_x31_9Middle" y="234.13" class="st5" width="137.196" height="298.95"/>
		<rect id="_x31_9Forward" class="st5" width="137.196" height="234.13"/>
	</g>
</g>
</svg>
