<?xml version="1.0" encoding="utf-8"?>
<!-- Generator: Adobe Illustrator 23.0.2, SVG Export Plug-In . SVG Version: 6.00 Build 0)  -->
<svg version="1.1" id="ESCAPE_DECK_20" xmlns="http://www.w3.org/2000/svg" xmlns:xlink="http://www.w3.org/1999/xlink" x="0px"
	 y="0px" width="149.724px" height="1195.44px" viewBox="0 0 149.724 1195.44" style="enable-background:new 0 0 149.724 1195.44;"
	 xml:space="preserve">
<style type="text/css">
	.st0{fill:#FFFFFF;}
	.st1{fill:none;stroke:#D5DCE0;stroke-width:0.5;}
	.st2{fill:#DFEDF1;stroke:#CEDFE5;stroke-width:0.5;}
	.st3{fill:#6E8496;}
	.st4{fill:none;stroke:#076FA0;stroke-miterlimit:10;}
	.st5{fill:none;}
</style>
<g id="ESCAPE_DECK_20_BOTTOM">
	<path class="st0" d="M111.849,302.286v-0.482l0.003-1.145v-3.434l-12.867-0.174v0.174l-0.019-0.014v-0.16l0.019,0v-50.138
		c5.312,0,12.282,0.75,12.282-7.499c0-6.188-5.532-7.813-11.345-7.813c0,0-24.812,0-32.375,0c-8.562,0-9.188,2.875-9.188,9.938
		c-1.438,0.062-3.375,0.062-3.375,0.062v14.962l-0.003,2.239l-0.037,0.005l-6.397,0.003v6.979h6.312l0.085,0v31.687h-13.21v45.812
		h4.25v7.146l-0.001,0.25h0.007c6.51,0.009,11.785,5.289,11.785,11.802l-0.04,5.334h38l0.023-5.334
		c0-6.472,5.21-11.727,11.664-11.801l0-0.028v-7.306h4.429v-41.002L111.849,302.286z"/>
	<circle class="st1" cx="54.151" cy="687.685" r="2.5"/>
	<circle class="st1" cx="27.984" cy="706.602" r="2.5"/>
	<circle class="st1" cx="42.985" cy="725.102" r="2.5"/>
	<circle class="st1" cx="27.985" cy="725.102" r="2.5"/>
	<circle class="st1" cx="125.317" cy="687.685" r="2.5"/>
	<circle class="st1" cx="125.817" cy="706.104" r="2.5"/>
	<circle class="st1" cx="125.817" cy="725.102" r="2.5"/>
	<circle class="st1" cx="110.652" cy="724.602" r="2.5"/>
	<circle class="st1" cx="125.567" cy="743.602" r="2.5"/>
	<circle class="st1" cx="99.484" cy="687.685" r="2.5"/>
	<circle class="st1" cx="73.484" cy="687.685" r="2.5"/>
	<circle class="st1" cx="109.817" cy="699.435" r="2.5"/>
	<circle class="st1" cx="73.484" cy="699.435" r="2.5"/>
	<circle class="st1" cx="42.817" cy="699.435" r="2.5"/>
	<path class="st2" d="M28.819,580.104c-5.283,0-16.114-0.288-22.879-7.035c-3.703-3.693-5.581-8.687-5.581-14.843v-30.648
		c-0.1-1.84-0.612-18.466,13.037-22.929c6.916-2.262,13.713-1.662,19.144,1.688c4.964,3.062,8.301,8.071,9.155,13.743
		c1.951,12.963-5.675,20.355-10.722,25.248l-0.547,0.531l-4.884-5.016l0.559-0.542c4.494-4.356,10.087-9.777,8.672-19.179
		c-0.539-3.578-2.747-6.877-5.908-8.827c-2.581-1.591-6.98-3.056-13.293-0.992c-8.948,2.925-8.229,15.81-8.221,15.94l0.008,0.233
		v30.75c0,4.288,1.153,7.521,3.523,9.886c5.043,5.028,14.587,4.997,18.659,4.99l0.567-0.001h30.5v7l-31.048,0.001
		C29.329,580.103,29.08,580.104,28.819,580.104z"/>
	<path class="st0" d="M72.461,602.352h-5.478c-4.971,0-7.999,2.994-7.999,7.922v52.778c0,8.237,4.019,6.195,6.019,8.716l0.083,0.083
		c2.833,4.208,4.249,5.251,10.124,5.126h2.399c5.875,0.125,7.291-0.917,10.124-5.126l0.083-0.083c2-2.521,6.019-0.479,6.019-8.716
		v-52.778c0-4.928-3.029-7.922-7.999-7.922h-5.478H72.461z"/>
	<polygon class="st1" points="92.859,594.727 82.234,594.727 82.234,598.477 66.859,598.477 60.609,594.977 60.609,571.102 
		92.859,571.102 	"/>
	<circle class="st2" cx="92.651" cy="575.685" r="2.083"/>
	<rect x="84.484" y="572.435" class="st2" width="8.333" height="6.583"/>
	<circle class="st2" cx="92.651" cy="587.352" r="2.083"/>
	<rect x="84.484" y="584.102" class="st2" width="8.333" height="6.583"/>
	<rect x="48.547" y="258.81" class="st0" width="6.313" height="6.979"/>
	<polygon class="st0" points="54.859,302.935 99.44,302.539 111.859,302.539 111.859,297.226 98.984,297.226 98.984,258.81 
		54.859,258.81 	"/>
	<path class="st0" d="M54.984,266.019v-24.417c0,0,1.937,0,3.375-0.062c0-7.062,0.625-9.938,9.187-9.938c7.563,0,32.375,0,32.375,0
		c5.813,0,11.345,1.625,11.345,7.813c0,8.249-6.97,7.499-12.282,7.499v50.312h12.875h-5.82h-7.055 M48.547,258.81v6.979h6.313h0.125
		v31.687h-13.25v45.812h4.25v7.146l4.583,1.333l3.583,2.417l3.167,4l0.417,3.917v5.718h38v-5.302l0.666-4l2.917-4.167l3.75-2.667
		l4.354-0.667v-7.667h4.438v-40.812H98.984"/>
	<line class="st1" x1="126.067" y1="743.602" x2="110.734" y2="725.102"/>
	<line class="st1" x1="141.067" y1="743.602" x2="125.734" y2="725.102"/>
	<polygon class="st1" points="125.734,762.019 129.901,780.602 140.734,761.935 140.734,687.769 125.484,669.435 	"/>
	<line class="st1" x1="126.067" y1="743.102" x2="110.109" y2="762.227"/>
	<line class="st1" x1="141.067" y1="743.102" x2="125.734" y2="761.602"/>
	<line class="st1" x1="146.555" y1="743.352" x2="125.817" y2="743.352"/>
	<path class="st1" d="M148.651,724.602c0,11.583-3.75,29.917-7.917,37.333l-30.625,0.083l19.792,18.583"/>
	<path class="st1" d="M148.651,725.103c0-14.252-3.75-29.917-7.917-37.333"/>
	<line class="st1" x1="12.734" y1="687.977" x2="140.734" y2="687.977"/>
	<polyline class="st1" points="53.859,678.321 73.515,687.852 99.765,678.352 	"/>
	<line class="st1" x1="73.483" y1="678.602" x2="73.483" y2="699.045"/>
	<line class="st1" x1="27.817" y1="678.353" x2="125.817" y2="678.353"/>
	<polyline class="st1" points="42.984,761.727 27.859,762.102 27.859,669.227 	"/>
	<polyline class="st1" points="42.859,760.477 27.859,743.227 42.859,724.852 28.234,706.477 42.859,699.102 27.984,688.102 	"/>
	<polyline class="st1" points="125.234,688.102 110.109,699.102 125.234,705.977 110.734,724.935 148.651,724.935 	"/>
	<polyline class="st1" points="42.859,699.102 53.859,687.852 73.483,699.227 99.359,687.977 110.109,699.102 	"/>
	<line class="st1" x1="123.734" y1="741.102" x2="110.109" y2="741.102"/>
	<polyline class="st1" points="125.734,724.727 140.484,706.352 125.984,688.102 	"/>
	<line class="st1" x1="125.859" y1="706.227" x2="146.744" y2="706.227"/>
	<line class="st1" x1="53.859" y1="687.852" x2="53.859" y2="678.321"/>
	<line class="st1" x1="99.359" y1="687.977" x2="99.359" y2="678.352"/>
	<polyline class="st1" points="27.806,669.351 12.734,687.852 12.734,762.102 27.859,762.102 42.859,779.977 42.859,699.102 
		110.109,699.102 110.109,780.602 129.901,780.602 	"/>
	<line class="st1" x1="12.859" y1="724.852" x2="42.859" y2="724.852"/>
	<line class="st1" x1="13.234" y1="706.602" x2="28.234" y2="706.602"/>
	<line class="st1" x1="12.859" y1="743.352" x2="43.109" y2="743.352"/>
	<rect x="48.641" y="264.716" class="st1" width="6.406" height="0.97"/>
	<rect x="48.682" y="262.779" class="st1" width="6.388" height="0.97"/>
	<rect x="48.651" y="260.873" class="st1" width="6.388" height="0.97"/>
	<rect x="48.651" y="258.91" class="st1" width="6.388" height="0.97"/>
	<rect x="99.051" y="297.126" class="st1" width="0.97" height="5.534"/>
	<rect x="100.988" y="297.161" class="st1" width="0.97" height="5.518"/>
	<rect x="102.894" y="297.134" class="st1" width="0.97" height="5.518"/>
	<rect x="104.857" y="297.134" class="st1" width="0.97" height="5.518"/>
	<rect x="106.905" y="297.161" class="st1" width="0.97" height="5.518"/>
	<rect x="108.811" y="297.134" class="st1" width="0.97" height="5.518"/>
	<line class="st1" x1="98.984" y1="302.769" x2="98.984" y2="296.81"/>
	<rect x="70.788" y="589.466" class="st1" width="4.142" height="0.97"/>
	<rect x="66.6" y="587.529" class="st1" width="8.344" height="0.97"/>
	<rect x="66.6" y="589.466" class="st1" width="4.142" height="0.97"/>
	<rect x="66.56" y="579.737" class="st1" width="8.344" height="12.193"/>
	<rect x="66.56" y="585.623" class="st1" width="8.344" height="0.97"/>
	<rect x="66.56" y="584.663" class="st1" width="8.344" height="0.971"/>
	<rect x="66.56" y="583.66" class="st1" width="8.344" height="0.97"/>
	<polygon class="st1" points="73.538,582.701 66.56,582.701 66.56,583.671 74.904,583.671 	"/>
	<polygon class="st1" points="72.151,581.698 66.56,581.698 66.56,582.668 73.524,582.668 	"/>
	<rect x="66.56" y="580.738" class="st1" width="3.979" height="0.97"/>
	<polygon class="st1" points="74.904,579.735 70.834,579.735 70.834,580.705 74.911,583.684 	"/>
	<path class="st1" d="M70.847,590.99c0,0.136-0.066,0.244-0.147,0.244l0,0c-0.081,0-0.148-0.108-0.148-0.244v-11.276
		c0-0.136,0.066-0.244,0.148-0.244l0,0c0.081,0,0.147,0.108,0.147,0.244V590.99z"/>
	<line class="st1" x1="140.234" y1="687.935" x2="140.734" y2="687.935"/>
	<line class="st1" x1="101.984" y1="693.769" x2="77.984" y2="719.602"/>
	<path class="st3" d="M58.894,721.896h1.008c0.999,0,1.727,0.527,1.727,1.783v0.071c0,0.728-0.288,1.191-0.656,1.472l0.751,2.271
		h-1.04l-0.631-1.951h-0.184v1.951h-0.976L58.894,721.896L58.894,721.896z M59.917,724.663c0.424,0,0.736-0.248,0.736-0.904v-0.063
		c0-0.704-0.336-0.888-0.76-0.888h-0.024v1.855H59.917z M61.982,724.839v-0.288c0-1.847,0.6-2.734,1.487-2.734
		c0.888,0,1.487,0.888,1.487,2.734v0.288c0,1.847-0.6,2.734-1.487,2.734S61.982,726.685,61.982,724.839z M63.965,724.839v-0.288
		c0-1.439-0.2-1.839-0.496-1.839s-0.496,0.399-0.496,1.839v0.288c0,1.439,0.2,1.839,0.496,1.839S63.965,726.278,63.965,724.839z
		 M65.438,721.896h0.872c1.063,0,1.807,0.575,1.807,1.887v0.016c0,1.264-0.704,1.863-1.695,1.936h-0.008v1.759h-0.976V721.896z
		 M66.421,724.831c0.408-0.024,0.72-0.32,0.72-1v-0.016c0-0.712-0.271-1.016-0.695-1.016h-0.032v2.031L66.421,724.831
		L66.421,724.831z M68.518,721.896h2.143v0.927h-1.167v1.392h1.031v0.928h-1.031v1.423h1.191v0.928h-2.167V721.896z M71.038,727.301
		v-1.016c0.344,0.199,0.616,0.312,0.879,0.312c0.28,0,0.52-0.136,0.52-0.479v-0.017c0-0.256-0.08-0.447-0.544-0.976
		c-0.664-0.751-0.936-1.111-0.936-1.791v-0.016c0-0.896,0.584-1.463,1.359-1.463c0.392,0,0.624,0.056,0.864,0.176v1.016
		c-0.304-0.176-0.488-0.256-0.744-0.256c-0.272,0-0.504,0.176-0.504,0.479v0.016c0,0.265,0.08,0.36,0.543,0.896
		c0.768,0.888,0.936,1.231,0.936,1.871v0.017c0,0.879-0.615,1.463-1.383,1.463C71.646,727.533,71.317,727.437,71.038,727.301z
		 M74.934,724.791v-0.192c0-1.967,0.728-2.742,1.639-2.742c0.272,0,0.432,0.032,0.64,0.128v1.007c-0.2-0.119-0.36-0.184-0.544-0.184
		c-0.432,0-0.744,0.384-0.744,1.783v0.208c0,1.479,0.312,1.783,0.76,1.783c0.152,0,0.344-0.057,0.544-0.177v0.96
		c-0.224,0.128-0.44,0.168-0.72,0.168C75.613,727.533,74.934,726.741,74.934,724.791z M77.421,724.839v-0.288
		c0-1.847,0.6-2.734,1.487-2.734c0.888,0,1.487,0.888,1.487,2.734v0.288c0,1.847-0.6,2.734-1.487,2.734
		C78.022,727.573,77.421,726.685,77.421,724.839z M79.404,724.839v-0.288c0-1.439-0.2-1.839-0.496-1.839s-0.496,0.399-0.496,1.839
		v0.288c0,1.439,0.2,1.839,0.496,1.839S79.404,726.278,79.404,724.839z M80.861,725.862v-3.966h0.968v4.062
		c0,0.504,0.176,0.703,0.424,0.703s0.424-0.199,0.424-0.703v-4.062h0.967v3.966c0,1.175-0.592,1.703-1.391,1.703
		C81.453,727.565,80.861,727.037,80.861,725.862z M84.206,721.896h1.007c1,0,1.727,0.527,1.727,1.783v0.071
		c0,0.728-0.288,1.191-0.656,1.472l0.751,2.271h-1.039l-0.632-1.951H85.18v1.951h-0.975v-5.597H84.206z M85.229,724.663
		c0.423,0,0.735-0.248,0.735-0.904v-0.063c0-0.704-0.336-0.888-0.759-0.888h-0.024v1.855H85.229z M87.27,727.301v-1.016
		c0.344,0.199,0.616,0.312,0.879,0.312c0.28,0,0.52-0.136,0.52-0.479v-0.017c0-0.256-0.08-0.447-0.543-0.976
		c-0.664-0.751-0.936-1.111-0.936-1.791v-0.016c0-0.896,0.583-1.463,1.359-1.463c0.392,0,0.624,0.056,0.863,0.176v1.016
		c-0.304-0.176-0.488-0.256-0.744-0.256c-0.271,0-0.503,0.176-0.503,0.479v0.016c0,0.265,0.08,0.36,0.543,0.896
		c0.768,0.888,0.936,1.231,0.936,1.871v0.017c0,0.879-0.616,1.463-1.383,1.463C87.877,727.533,87.549,727.437,87.27,727.301z
		 M89.989,721.896h2.143v0.927h-1.167v1.392h1.031v0.928h-1.031v1.423h1.191v0.928h-2.167V721.896z"/>
	<path class="st3" d="M16.633,517.88h1.039l1.063,5.613H17.76l-0.184-1.111h-0.888l-0.176,1.111h-0.943L16.633,517.88z
		 M17.432,521.502l-0.296-1.847l-0.304,1.847H17.432z M21.16,523.221c-0.232,0.24-0.503,0.352-0.792,0.352
		c-0.919,0-1.511-0.888-1.511-2.734v-0.288c0-1.847,0.6-2.734,1.487-2.734c0.888,0,1.487,0.887,1.487,2.734v0.288
		c0,0.759-0.112,1.359-0.304,1.799l0.503,0.464l-0.488,0.52L21.16,523.221z M20.592,522.63l-0.48-0.472l0.456-0.503l0.231,0.248
		c0.024-0.264,0.04-0.607,0.04-1.063v-0.288c0-1.439-0.2-1.839-0.496-1.839s-0.496,0.399-0.496,1.839v0.288
		c0,1.567,0.208,1.854,0.567,1.854C20.481,522.693,20.536,522.677,20.592,522.63z M22.353,521.862v-3.966h0.967v4.062
		c0,0.504,0.176,0.704,0.424,0.704s0.424-0.2,0.424-0.704v-4.062h0.967v3.966c0,1.175-0.591,1.703-1.391,1.703
		C22.945,523.565,22.353,523.037,22.353,521.862z M26.441,517.88h1.04l1.063,5.613h-0.976l-0.184-1.111h-0.887l-0.176,1.111h-0.943
		L26.441,517.88z M27.24,521.502l-0.296-1.847l-0.304,1.847H27.24z M14.945,525.896h1.007c1,0,1.727,0.527,1.727,1.783v0.072
		c0,0.728-0.288,1.191-0.656,1.472l0.751,2.271h-1.039l-0.632-1.951h-0.184v1.951h-0.975v-5.598H14.945z M15.969,528.662
		c0.423,0,0.735-0.248,0.735-0.903v-0.064c0-0.704-0.336-0.888-0.76-0.888H15.92v1.855L15.969,528.662L15.969,528.662z
		 M18.913,525.88h1.04l1.063,5.613H20.04l-0.184-1.111h-0.887l-0.176,1.111H17.85L18.913,525.88z M19.712,529.502l-0.295-1.847
		l-0.304,1.847H19.712z M21.137,528.79v-0.192c0-1.967,0.728-2.742,1.639-2.742c0.271,0,0.432,0.032,0.64,0.128v1.007
		c-0.2-0.12-0.36-0.184-0.544-0.184c-0.432,0-0.744,0.384-0.744,1.783v0.208c0,1.479,0.312,1.783,0.76,1.783
		c0.152,0,0.344-0.056,0.543-0.176v0.959c-0.224,0.128-0.439,0.168-0.719,0.168C21.817,531.533,21.137,530.741,21.137,528.79z
		 M23.921,525.896h2.143v0.927h-1.167v1.391h1.031v0.928h-1.031v1.423h1.191v0.928h-2.167V525.896z M26.561,525.896h1.007
		c1,0,1.727,0.527,1.727,1.783v0.072c0,0.728-0.288,1.191-0.656,1.472l0.752,2.271h-1.04l-0.632-1.951h-0.184v1.951H26.56
		L26.561,525.896L26.561,525.896z M27.585,528.662c0.424,0,0.735-0.248,0.735-0.903v-0.064c0-0.704-0.335-0.888-0.759-0.888h-0.024
		v1.855L27.585,528.662L27.585,528.662z"/>
	<path class="st3" d="M97.441,576.564h2.039v0.927h-1.063v1.407h0.928v0.927h-0.928v2.335h-0.976V576.564z M99.921,576.564h1.007
		c1,0,1.727,0.527,1.727,1.783v0.072c0,0.728-0.288,1.191-0.656,1.472l0.751,2.271h-1.039l-0.632-1.951h-0.184v1.951H99.92v-5.598
		H99.921z M100.944,579.33c0.423,0,0.735-0.248,0.735-0.903v-0.064c0-0.704-0.336-0.888-0.76-0.888h-0.024v1.855L100.944,579.33
		L100.944,579.33z M103.105,576.564h2.143v0.927h-1.167v1.391h1.031v0.928h-1.031v1.423h1.191v0.928h-2.167V576.564z
		 M105.745,576.564h2.143v0.927h-1.167v1.391h1.032v0.928h-1.032v1.423h1.191v0.928h-2.167V576.564z M109.656,576.564h2.039v0.927
		h-1.063v1.407h0.928v0.927h-0.928v2.335h-0.976V576.564z M112.72,576.548h1.04l1.063,5.613h-0.976l-0.185-1.111h-0.887
		l-0.177,1.111h-0.943L112.72,576.548z M113.52,580.17l-0.296-1.847l-0.304,1.847H113.52z M115.12,576.564h0.976v4.669h1.031v0.928
		h-2.007C115.12,582.161,115.12,576.564,115.12,576.564z M117.521,576.564h0.976v4.669h1.031v0.928h-2.007
		C117.521,582.161,117.521,576.564,117.521,576.564z M100.973,589.969v-1.016c0.344,0.2,0.616,0.312,0.879,0.312
		c0.28,0,0.52-0.136,0.52-0.479v-0.016c0-0.256-0.08-0.448-0.544-0.976c-0.664-0.751-0.936-1.111-0.936-1.791v-0.016
		c0-0.896,0.584-1.463,1.359-1.463c0.392,0,0.624,0.056,0.863,0.176v1.016c-0.304-0.176-0.487-0.256-0.743-0.256
		c-0.272,0-0.504,0.176-0.504,0.479v0.016c0,0.264,0.08,0.36,0.544,0.896c0.768,0.887,0.935,1.231,0.935,1.871v0.016
		c0,0.879-0.616,1.463-1.383,1.463C101.58,590.201,101.253,590.105,100.973,589.969z M103.692,584.564h0.976v4.669h1.031v0.928
		h-2.007V584.564z M106.108,584.564h0.976v5.597h-0.976V584.564z M107.676,584.564h0.912c1.247,0,1.959,0.903,1.959,2.702v0.192
		c0,1.799-0.712,2.703-1.959,2.703h-0.912V584.564z M108.692,589.265c0.463,0,0.863-0.408,0.863-1.807v-0.192
		c0-1.399-0.4-1.807-0.863-1.807h-0.04v3.806H108.692z M111.028,584.564h2.143v0.927h-1.167v1.391h1.031v0.928h-1.031v1.423h1.191
		v0.928h-2.167V584.564z M113.548,589.969v-1.016c0.345,0.2,0.616,0.312,0.88,0.312c0.28,0,0.52-0.136,0.52-0.479v-0.016
		c0-0.256-0.08-0.448-0.543-0.976c-0.664-0.751-0.936-1.111-0.936-1.791v-0.016c0-0.896,0.583-1.463,1.358-1.463
		c0.393,0,0.624,0.056,0.864,0.176v1.016c-0.304-0.176-0.488-0.256-0.744-0.256c-0.271,0-0.503,0.176-0.503,0.479v0.016
		c0,0.264,0.079,0.36,0.543,0.896c0.768,0.887,0.936,1.231,0.936,1.871v0.016c0,0.879-0.615,1.463-1.383,1.463
		C114.156,590.201,113.828,590.105,113.548,589.969z"/>
	<path class="st3" d="M65.668,327.967v-1.016c0.344,0.2,0.615,0.312,0.879,0.312c0.28,0,0.52-0.136,0.52-0.48v-0.016
		c0-0.256-0.08-0.448-0.543-0.976c-0.664-0.751-0.936-1.111-0.936-1.791v-0.016c0-0.896,0.583-1.463,1.359-1.463
		c0.392,0,0.624,0.056,0.863,0.176v1.015c-0.304-0.176-0.488-0.256-0.744-0.256c-0.272,0-0.503,0.176-0.503,0.48v0.016
		c0,0.264,0.08,0.36,0.543,0.896c0.768,0.887,0.936,1.231,0.936,1.871v0.016c0,0.88-0.616,1.463-1.383,1.463
		C66.275,328.199,65.948,328.103,65.668,327.967z M68.372,326.528v-3.966h0.967v4.062c0,0.504,0.176,0.704,0.424,0.704
		s0.424-0.2,0.424-0.704v-4.062h0.968v3.966c0,1.176-0.592,1.703-1.392,1.703C68.963,328.231,68.372,327.704,68.372,326.528z
		 M71.715,322.562h0.912l0.983,2.831v-2.831h0.952v5.597h-0.864l-1.031-2.966v2.966h-0.952
		C71.715,328.159,71.715,322.562,71.715,322.562z M76.412,322.562h0.911c1.248,0,1.959,0.904,1.959,2.703v0.192
		c0,1.799-0.711,2.703-1.959,2.703h-0.911V322.562z M77.427,327.264c0.464,0,0.864-0.408,0.864-1.807v-0.192
		c0-1.399-0.4-1.807-0.864-1.807h-0.04v3.806H77.427z M79.763,322.562h2.143v0.928h-1.167v1.391h1.032v0.928h-1.032v1.423h1.191
		v0.927h-2.167V322.562z M82.228,325.457v-0.192c0-1.967,0.728-2.742,1.639-2.742c0.272,0,0.432,0.032,0.64,0.128v1.007
		c-0.2-0.12-0.359-0.184-0.543-0.184c-0.432,0-0.744,0.384-0.744,1.783v0.208c0,1.479,0.312,1.783,0.76,1.783
		c0.152,0,0.344-0.056,0.543-0.176v0.959c-0.224,0.128-0.439,0.168-0.719,0.168C82.907,328.199,82.228,327.408,82.228,325.457z
		 M85.011,322.562h0.976v2.343l0.792-2.343h1.104l-0.943,2.367l0.959,3.23h-1.087l-0.608-2.119l-0.216,0.615v1.503h-0.976
		L85.011,322.562L85.011,322.562z"/>
</g>
<g id="ESCAPE_DECK_20_TOP">
	<path class="st4" d="M72.461,602.352h-5.478c-4.971,0-7.999,2.994-7.999,7.922v52.778c0,8.237,4.019,6.195,6.019,8.716l0.083,0.083
		c2.833,4.208,4.249,5.251,10.124,5.126h2.399c5.875,0.125,7.291-0.917,10.124-5.126l0.083-0.083c2-2.521,6.019-0.479,6.019-8.716
		v-52.778c0-4.928-3.029-7.922-7.999-7.922h-5.478H72.461z"/>
	<path class="st4" d="M54.984,266.019v-24.417c0,0,1.937,0,3.375-0.062c0-7.062,0.625-9.938,9.187-9.938c7.563,0,32.375,0,32.375,0
		c5.813,0,11.345,1.625,11.345,7.813c0,8.249-6.97,7.499-12.282,7.499v50.312h12.875h-5.82h-7.055 M48.547,258.81v6.979h6.313h0.125
		v31.687h-13.25v45.812h4.25v7.146l4.583,1.333l3.583,2.417l3.167,4l0.417,3.917v5.718h38v-5.302l0.666-4l2.917-4.167l3.75-2.667
		l4.354-0.667v-7.667h4.438v-40.812H98.984"/>
	<g id="gDeck20Locations">
		<rect id="_x32_0Aft" y="740.856" class="st5" width="149.724" height="454.585"/>
		<rect id="_x32_0Middle" y="441.906" class="st5" width="149.724" height="298.95"/>
		<rect id="_x32_0Forward" class="st5" width="149.724" height="441.906"/>
	</g>
</g>
</svg>
