<?xml version="1.0" encoding="utf-8"?>
<!-- Generator: Adobe Illustrator 25.4.1, SVG Export Plug-In . SVG Version: 6.00 Build 0)  -->
<svg version="1.1" id="STAR_DECK_07" xmlns="http://www.w3.org/2000/svg" xmlns:xlink="http://www.w3.org/1999/xlink" x="0px"
	 y="0px" width="128px" height="856.4px" viewBox="0 0 128 856.4" style="enable-background:new 0 0 128 856.4;"
	 xml:space="preserve">
<style type="text/css">
	.st0{fill:#FFFFFF;}
	.st1{fill:none;stroke:#D5DCE0;stroke-width:0.5;}
	.st2{fill:#6E8496;}
	.st3{fill:none;}
	.st4{fill:none;stroke:#076FA0;stroke-miterlimit:10;}
</style>
<g id="STAR_DECK_07_BOTTOM">
	<path class="st0" d="M127.5,842.1c-0.8,9.5-30.6,13.8-63.4,13.8c-38.9,0-62.4-4.3-63.4-13.5c-0.2-15.8-0.3-681.5-0.3-681.5
		C1.3,90.5,39.3,0.1,64.2,0.4c23.8,1.1,63.4,90.4,63.1,160.4L127.5,842.1z"/>
	<path class="st1" d="M23,210.5h10.4v8.9h10.2v-8.9h40.2v8.9h8.5v-8.9H105"/>
	<path class="st1" d="M14.5,79.2h3c0,0,6.5-4.2,16.6-4.3s58.4-0.1,58.4-0.1s11.4-0.1,18.2,4.4h2.7"/>
	<polygon class="st1" points="43.7,219.4 43.7,210.5 53.8,210.5 53.8,219.4 	"/>
	<polygon class="st1" points="53.8,219.4 53.8,210.5 63.8,210.5 63.8,219.4 	"/>
	<polygon class="st1" points="63.8,219.4 63.8,210.5 73.9,210.5 73.9,219.4 	"/>
	<polygon class="st1" points="73.9,219.4 73.9,210.5 83.9,210.5 83.9,219.4 	"/>
	<line class="st1" x1="81.2" y1="228" x2="81.2" y2="245.4"/>
	<polyline class="st1" points="81.2,228.2 92.5,228.2 92.5,245.4 	"/>
	<polyline class="st1" points="35.4,245.4 35.4,228.2 46.1,228.2 	"/>
	<line class="st1" x1="46.2" y1="228" x2="46.2" y2="245.3"/>
	<path class="st1" d="M28,185c0,0,2.9-15.5-5.6-22.6"/>
	<polyline class="st1" points="83.9,219.3 92.4,219.3 92.4,200 84,200 84,187.1 43.7,187.1 43.7,200 33.5,200 33.5,219.3 
		43.7,219.3 	"/>
	<line class="st1" x1="43.9" y1="210.7" x2="53.6" y2="219"/>
	<line class="st1" x1="43.9" y1="219.1" x2="53.6" y2="210.6"/>
	<line class="st1" x1="54.2" y1="211" x2="63.6" y2="219.2"/>
	<line class="st1" x1="54" y1="219.2" x2="63.6" y2="210.6"/>
	<line class="st1" x1="64.2" y1="210.8" x2="73.6" y2="218.9"/>
	<line class="st1" x1="64.2" y1="219" x2="73.6" y2="210.6"/>
	<line class="st1" x1="74.2" y1="211" x2="83.8" y2="219.2"/>
	<line class="st1" x1="74.1" y1="219.1" x2="83.6" y2="210.6"/>
	<path class="st1" d="M26.5,162.9c0.3-0.3,1.3-0.9,3.3-0.9c2.8,0.1,3.2,0.8,3.2,0.8"/>
	<path class="st1" d="M26.5,166.6c0,0,0.8-1.1,3.4-1c2.8,0.1,3.1,0.8,3.1,0.8"/>
	<path class="st1" d="M26.9,169.6c0.6-0.3,1.5-0.5,3-0.5c1.8,0,2.7,0.3,3.1,0.5"/>
	<path class="st1" d="M27.8,173c0.6-0.2,1.3-0.3,2.3-0.2c1.4,0,2.3,0.2,2.8,0.4"/>
	<path class="st1" d="M28.3,177.3c0.6-0.2,1.4-0.3,2.5-0.3c1,0,1.7,0.1,2.2,0.2"/>
	<path class="st1" d="M28.4,180.9c0.6-0.2,1.4-0.3,2.6-0.3c0.9,0,1.6,0.1,2.1,0.2"/>
	<path class="st1" d="M28,184.7c0.6-0.2,1.5-0.4,2.7-0.4c1,0,1.7,0.1,2.2,0.2"/>
	<path class="st1" d="M26.5,164.7c0.3-0.3,1.3-0.9,3.3-0.9c2.8,0.1,3.2,0.8,3.2,0.8"/>
	<path class="st1" d="M26.5,168.4c0,0,0.8-1.1,3.4-1c2.8,0.1,3.1,0.8,3.1,0.8"/>
	<path class="st1" d="M27.4,171.4c0.5-0.3,1.4-0.5,2.8-0.5c1.7,0,2.5,0.3,2.9,0.5"/>
	<path class="st1" d="M28,174.8c0.5-0.2,1.3-0.3,2.2-0.2c1.3,0,2.2,0.2,2.6,0.4"/>
	<path class="st1" d="M28.3,179.2c0.6-0.2,1.4-0.3,2.5-0.3c1,0,1.7,0.1,2.2,0.2"/>
	<path class="st1" d="M28.4,182.7c0.6-0.2,1.4-0.3,2.6-0.3c0.9,0,1.6,0.1,2.1,0.2"/>
	<line class="st1" x1="33" y1="162.3" x2="33" y2="184.7"/>
	<path class="st1" d="M99.8,185c0,0-2.9-15.5,5.6-22.6"/>
	<path class="st1" d="M101.3,162.9c-0.3-0.3-1.3-0.9-3.3-0.9c-2.8,0.1-3.2,0.8-3.2,0.8"/>
	<path class="st1" d="M101.3,166.6c0,0-0.8-1.1-3.4-1c-2.8,0.1-3.1,0.8-3.1,0.8"/>
	<path class="st1" d="M100.8,169.6c-0.6-0.3-1.5-0.5-3-0.5c-1.8,0-2.7,0.3-3.1,0.5"/>
	<path class="st1" d="M99.9,173c-0.6-0.2-1.3-0.3-2.3-0.2c-1.4,0-2.3,0.2-2.8,0.4"/>
	<path class="st1" d="M99.4,177.3c-0.6-0.2-1.4-0.3-2.5-0.3c-1,0-1.7,0.1-2.3,0.2"/>
	<path class="st1" d="M99.4,180.9c-0.6-0.2-1.4-0.3-2.6-0.3c-0.9,0-1.6,0.1-2.1,0.2"/>
	<path class="st1" d="M99.7,184.7c-0.6-0.2-1.5-0.4-2.7-0.4c-1,0-1.7,0.1-2.2,0.2"/>
	<path class="st1" d="M101.3,164.7c-0.3-0.3-1.3-0.9-3.3-0.9c-2.8,0.1-3.2,0.8-3.2,0.8"/>
	<path class="st1" d="M101.3,168.4c0,0-0.8-1.1-3.4-1c-2.8,0.1-3.1,0.8-3.1,0.8"/>
	<path class="st1" d="M100.4,171.4c-0.5-0.3-1.4-0.5-2.8-0.5c-1.7,0-2.5,0.3-2.9,0.5"/>
	<path class="st1" d="M99.7,174.8c-0.5-0.2-1.3-0.3-2.2-0.2c-1.3,0-2.2,0.2-2.6,0.4"/>
	<path class="st1" d="M99.4,179.2c-0.6-0.2-1.4-0.3-2.5-0.3c-1,0-1.7,0.1-2.3,0.2"/>
	<path class="st1" d="M99.4,182.7c-0.6-0.2-1.4-0.3-2.6-0.3c-0.9,0-1.6,0.1-2.1,0.2"/>
	<line class="st1" x1="94.8" y1="162.3" x2="94.8" y2="184.7"/>
	<path class="st1" d="M72.8,228.5c-0.4,0-0.7,0.3-0.7,0.6"/>
	<line class="st1" x1="81.2" y1="228.5" x2="72.8" y2="228.5"/>
	<line class="st1" x1="72.1" y1="229.1" x2="72.1" y2="231.3"/>
	<line class="st1" x1="72.1" y1="231.3" x2="55.6" y2="231.3"/>
	<path class="st1" d="M55.6,229.1c0-0.3-0.3-0.6-0.7-0.6"/>
	<line class="st1" x1="55.6" y1="231.3" x2="55.6" y2="229.1"/>
	<line class="st1" x1="54.9" y1="228.5" x2="46.4" y2="228.5"/>
	<line class="st1" x1="64" y1="242.3" x2="64" y2="228.3"/>
	<line class="st1" x1="63.7" y1="242.3" x2="63.7" y2="228.3"/>
	<line class="st1" x1="80.8" y1="241.6" x2="64" y2="241.6"/>
	<line class="st1" x1="64" y1="228.3" x2="63.7" y2="228.3"/>
	<line class="st1" x1="64" y1="242.3" x2="63.7" y2="242.3"/>
	<line class="st1" x1="63.7" y1="241.6" x2="46.3" y2="241.6"/>
	<line class="st1" x1="63.7" y1="240.1" x2="56.3" y2="240.1"/>
	<line class="st1" x1="63.7" y1="238.6" x2="56.3" y2="238.6"/>
	<line class="st1" x1="63.7" y1="237.2" x2="56.3" y2="237.2"/>
	<line class="st1" x1="63.7" y1="235.7" x2="56.3" y2="235.7"/>
	<line class="st1" x1="63.7" y1="234.2" x2="56.3" y2="234.2"/>
	<line class="st1" x1="63.7" y1="232.7" x2="56.3" y2="232.7"/>
	<line class="st1" x1="63.7" y1="229.7" x2="55.6" y2="229.7"/>
	<line class="st1" x1="71.4" y1="240.1" x2="64" y2="240.1"/>
	<line class="st1" x1="71.4" y1="238.6" x2="64" y2="238.6"/>
	<line class="st1" x1="71.4" y1="237.2" x2="64" y2="237.2"/>
	<line class="st1" x1="71.4" y1="235.7" x2="64" y2="235.7"/>
	<line class="st1" x1="71.4" y1="234.2" x2="64" y2="234.2"/>
	<line class="st1" x1="71.4" y1="232.7" x2="64" y2="232.7"/>
	<line class="st1" x1="72.1" y1="229.7" x2="64" y2="229.7"/>
	<line class="st1" x1="46.2" y1="230" x2="55" y2="230"/>
	<line class="st1" x1="46.4" y1="231.5" x2="55.9" y2="231.5"/>
	<line class="st1" x1="46.2" y1="232.9" x2="55" y2="232.9"/>
	<line class="st1" x1="46.4" y1="234.4" x2="54.9" y2="234.4"/>
	<line class="st1" x1="72.1" y1="230" x2="81" y2="230"/>
	<line class="st1" x1="72" y1="231.5" x2="81.1" y2="231.5"/>
	<line class="st1" x1="72.8" y1="232.9" x2="81.2" y2="232.9"/>
	<line class="st1" x1="72.8" y1="234.4" x2="81.1" y2="234.4"/>
	<path class="st1" d="M54.8,242.5c0,0.3,0.3,0.6,0.7,0.6s0.7-0.3,0.7-0.6l0,0"/>
	<line class="st1" x1="56.2" y1="242.5" x2="56.2" y2="242.3"/>
	<line class="st1" x1="54.8" y1="242.5" x2="54.8" y2="242.3"/>
	<path class="st1" d="M71.4,242.5c0,0.3,0.3,0.6,0.7,0.6c0.4,0,0.7-0.3,0.7-0.6l0,0"/>
	<line class="st1" x1="72.8" y1="242.5" x2="72.8" y2="242.3"/>
	<line class="st1" x1="71.4" y1="242.5" x2="71.4" y2="242.3"/>
	<line class="st1" x1="55.5" y1="242.3" x2="55.5" y2="231.5"/>
	<line class="st1" x1="46.4" y1="237.3" x2="55" y2="237.3"/>
	<line class="st1" x1="46.4" y1="238.8" x2="55" y2="238.8"/>
	<line class="st1" x1="46.5" y1="240.2" x2="55" y2="240.2"/>
	<line class="st1" x1="46.4" y1="235.8" x2="55" y2="235.8"/>
	<line class="st1" x1="72.1" y1="242.3" x2="72.1" y2="231.3"/>
	<line class="st1" x1="72.8" y1="237.3" x2="81" y2="237.3"/>
	<line class="st1" x1="72.8" y1="238.8" x2="81" y2="238.8"/>
	<line class="st1" x1="72.8" y1="240.2" x2="80.9" y2="240.2"/>
	<line class="st1" x1="72.7" y1="235.8" x2="81.2" y2="235.8"/>
	<line class="st1" x1="22.9" y1="245.5" x2="104.7" y2="245.5"/>
	<path class="st1" d="M102.7,165.9c0,0-2.2-16.9,6.5-21.4"/>
	<path class="st1" d="M104.7,149.1c0,0-2.2-16.9,6.5-21.4"/>
	<path class="st1" d="M25.7,166.5c0,0,2-17.5-6.7-22.1"/>
	<path class="st1" d="M23.5,149.1c0,0,2.2-16.9-6.5-21.4"/>
	<path class="st1" d="M22.2,133.8c0,0,2.2-16.9-6.5-21.4c0,0-2.6-1.6-6.3-1.7"/>
	<path class="st1" d="M105.8,134.9c0,0-1.8-18.4,6.9-22.9c0,0,1.5-1.4,5.2-1.5"/>
	<path class="st1" d="M23.2,80.8l12.2,0.1l69-0.1c0,0,10.7,2.7,13,29.8c-5,0.4-13,4.8-11.6,24.1c-1.5,2.4-1.8,6.1-1.2,14.6
		c-0.5,1.5-2.4,4.3-2.2,11.2c-8.8-0.2-60.7-0.2-76.7,0c-0.5-4.8-0.7-8.7-2.4-11.2c0.4-7.2,0-12.2-1.3-15c1.3-12.5-1.5-23-12.3-23.5
		C12.6,81.6,23.2,80.8,23.2,80.8z"/>
	<path class="st1" d="M37.7,86.2H90v19.3h-4.9c0,0-9.6,6.2-20.7,6.2c-12,0-20.1-6.2-20.1-6.2h-6.6V90L37.7,86.2L37.7,86.2z"/>
	<line class="st1" x1="40.8" y1="512.9" x2="50.4" y2="521.4"/>
	<line class="st1" x1="40.8" y1="521.4" x2="50.2" y2="512.8"/>
	<line class="st1" x1="50.2" y1="512.8" x2="60.2" y2="521.5"/>
	<line class="st1" x1="50.4" y1="521.4" x2="60.4" y2="512.6"/>
	<line class="st1" x1="67.7" y1="512.9" x2="77.5" y2="521.4"/>
	<line class="st1" x1="67.5" y1="521.3" x2="77.4" y2="512.8"/>
	<line class="st1" x1="77.6" y1="512.9" x2="87.3" y2="521.5"/>
	<line class="st1" x1="77.8" y1="521.4" x2="87.3" y2="512.8"/>
	<path class="st1" d="M70,417v-7.5 M71.7,416.9v-7.6 M73.4,416.9v-7.7 M75.2,416.9V409 M76.9,417v-7.9 M78.5,416.9V409 M80.1,417
		v-8.4 M60.3,409.7h9.2 M60.3,408.3h9.2 M60.4,406.7h9.1"/>
	<line class="st1" x1="91.8" y1="539" x2="87" y2="547.2"/>
	<line class="st1" x1="89.5" y1="539.2" x2="85.7" y2="544.6"/>
	<line class="st1" x1="87.6" y1="538.7" x2="83.9" y2="543"/>
	<line class="st1" x1="85.8" y1="537.9" x2="82.1" y2="541.7"/>
	<line class="st1" x1="84.3" y1="536.8" x2="80.4" y2="540.4"/>
	<line class="st1" x1="40.6" y1="547.4" x2="35.8" y2="539.3"/>
	<line class="st1" x1="42" y1="544.9" x2="38.2" y2="539.5"/>
	<line class="st1" x1="43.7" y1="543.3" x2="40.1" y2="539"/>
	<line class="st1" x1="45.6" y1="541.9" x2="41.9" y2="538.1"/>
	<line class="st1" x1="47.3" y1="540.6" x2="43.3" y2="537.1"/>
	<line class="st1" x1="74.6" y1="720.3" x2="84.3" y2="712.1"/>
	<line class="st1" x1="84.4" y1="720.4" x2="74.6" y2="712.1"/>
	<line class="st1" x1="64.4" y1="720.4" x2="74.4" y2="712"/>
	<line class="st1" x1="74.2" y1="720.3" x2="64.5" y2="712.1"/>
	<line class="st1" x1="54.4" y1="720.3" x2="64.2" y2="712.1"/>
	<line class="st1" x1="64.1" y1="720.2" x2="54.4" y2="712.1"/>
	<line class="st1" x1="44.3" y1="720.3" x2="54.2" y2="712"/>
	<line class="st1" x1="54" y1="720.2" x2="44.4" y2="712.1"/>
	<path class="st1" d="M54.9,499.9c0.4,0,0.7-0.2,0.7-0.5"/>
	<line class="st1" x1="46.8" y1="499.9" x2="54.9" y2="499.9"/>
	<line class="st1" x1="55.6" y1="499.4" x2="55.6" y2="497.3"/>
	<line class="st1" x1="55.6" y1="497.3" x2="71.6" y2="497.3"/>
	<path class="st1" d="M71.6,499.4c0,0.3,0.3,0.5,0.7,0.5"/>
	<line class="st1" x1="71.6" y1="497.3" x2="71.6" y2="499.4"/>
	<line class="st1" x1="72.3" y1="499.9" x2="80.5" y2="499.9"/>
	<line class="st1" x1="63.4" y1="486.8" x2="63.4" y2="500.1"/>
	<line class="st1" x1="63.8" y1="486.8" x2="63.8" y2="500.1"/>
	<line class="st1" x1="47.1" y1="487.5" x2="63.4" y2="487.5"/>
	<line class="st1" x1="63.4" y1="500.1" x2="63.8" y2="500.1"/>
	<line class="st1" x1="63.4" y1="486.8" x2="63.8" y2="486.8"/>
	<line class="st1" x1="63.8" y1="487.5" x2="80.6" y2="487.5"/>
	<line class="st1" x1="63.8" y1="488.9" x2="70.9" y2="488.9"/>
	<line class="st1" x1="63.8" y1="490.3" x2="70.9" y2="490.3"/>
	<line class="st1" x1="63.8" y1="491.7" x2="70.9" y2="491.7"/>
	<line class="st1" x1="63.8" y1="493.1" x2="70.9" y2="493.1"/>
	<line class="st1" x1="63.8" y1="494.6" x2="70.9" y2="494.6"/>
	<line class="st1" x1="63.8" y1="496" x2="70.9" y2="496"/>
	<line class="st1" x1="63.8" y1="498.8" x2="71.6" y2="498.8"/>
	<line class="st1" x1="56.2" y1="488.9" x2="63.4" y2="488.9"/>
	<line class="st1" x1="56.2" y1="490.3" x2="63.4" y2="490.3"/>
	<line class="st1" x1="56.2" y1="491.7" x2="63.4" y2="491.7"/>
	<line class="st1" x1="56.2" y1="493.1" x2="63.4" y2="493.1"/>
	<line class="st1" x1="56.2" y1="494.6" x2="63.4" y2="494.6"/>
	<line class="st1" x1="56.2" y1="496" x2="63.4" y2="496"/>
	<line class="st1" x1="55.5" y1="498.8" x2="63.4" y2="498.8"/>
	<line class="st1" x1="80.7" y1="498.5" x2="72.2" y2="498.5"/>
	<line class="st1" x1="80.6" y1="497.1" x2="71.4" y2="497.1"/>
	<line class="st1" x1="80.8" y1="495.8" x2="72.2" y2="495.8"/>
	<line class="st1" x1="80.6" y1="494.4" x2="72.3" y2="494.4"/>
	<line class="st1" x1="55.6" y1="498.5" x2="46.9" y2="498.5"/>
	<line class="st1" x1="55.7" y1="497.1" x2="46.8" y2="497.1"/>
	<line class="st1" x1="54.9" y1="495.8" x2="46.8" y2="495.8"/>
	<line class="st1" x1="54.9" y1="494.4" x2="46.8" y2="494.4"/>
	<path class="st1" d="M72.4,486.7c0-0.3-0.3-0.5-0.7-0.5c-0.4,0-0.7,0.2-0.7,0.5l0,0"/>
	<line class="st1" x1="71" y1="486.7" x2="71" y2="486.8"/>
	<line class="st1" x1="72.4" y1="486.7" x2="72.4" y2="486.8"/>
	<path class="st1" d="M56.2,486.7c0-0.3-0.3-0.5-0.6-0.5c-0.4,0-0.7,0.2-0.7,0.5l0,0"/>
	<line class="st1" x1="54.9" y1="486.7" x2="54.9" y2="486.8"/>
	<line class="st1" x1="56.2" y1="486.7" x2="56.2" y2="486.8"/>
	<line class="st1" x1="71.7" y1="486.8" x2="71.7" y2="497.1"/>
	<line class="st1" x1="80.5" y1="491.6" x2="72.2" y2="491.6"/>
	<line class="st1" x1="80.5" y1="490.2" x2="72.2" y2="490.2"/>
	<line class="st1" x1="80.5" y1="488.8" x2="72.2" y2="488.8"/>
	<line class="st1" x1="80.6" y1="493" x2="72.2" y2="493"/>
	<line class="st1" x1="55.6" y1="486.8" x2="55.6" y2="497.3"/>
	<line class="st1" x1="54.9" y1="491.6" x2="46.9" y2="491.6"/>
	<line class="st1" x1="54.9" y1="490.2" x2="47" y2="490.2"/>
	<line class="st1" x1="54.9" y1="488.8" x2="47" y2="488.8"/>
	<line class="st1" x1="55" y1="493" x2="46.7" y2="493"/>
	<path class="st1" d="M71.9,728.9c-0.3,0-0.6,0.3-0.6,0.6"/>
	<line class="st1" x1="79.5" y1="728.9" x2="71.9" y2="728.9"/>
	<line class="st1" x1="71.3" y1="729.5" x2="71.3" y2="731.9"/>
	<line class="st1" x1="71.3" y1="731.9" x2="56.3" y2="731.9"/>
	<path class="st1" d="M56.3,729.5c0-0.3-0.3-0.6-0.6-0.6"/>
	<line class="st1" x1="56.3" y1="731.9" x2="56.3" y2="729.5"/>
	<line class="st1" x1="55.7" y1="728.9" x2="48" y2="728.9"/>
	<line class="st1" x1="63.9" y1="743.8" x2="63.9" y2="728.6"/>
	<line class="st1" x1="63.6" y1="743.8" x2="63.6" y2="728.6"/>
	<line class="st1" x1="79.2" y1="743" x2="63.9" y2="743"/>
	<line class="st1" x1="63.9" y1="728.6" x2="63.6" y2="728.6"/>
	<line class="st1" x1="63.9" y1="743.8" x2="63.6" y2="743.8"/>
	<line class="st1" x1="63.6" y1="743" x2="47.9" y2="743"/>
	<line class="st1" x1="63.6" y1="741.4" x2="56.9" y2="741.4"/>
	<line class="st1" x1="63.6" y1="739.8" x2="56.9" y2="739.8"/>
	<line class="st1" x1="63.6" y1="738.2" x2="56.9" y2="738.2"/>
	<line class="st1" x1="63.6" y1="736.6" x2="56.9" y2="736.6"/>
	<line class="st1" x1="63.6" y1="735" x2="56.9" y2="735"/>
	<line class="st1" x1="63.6" y1="733.4" x2="56.9" y2="733.4"/>
	<line class="st1" x1="63.6" y1="730.2" x2="56.3" y2="730.2"/>
	<line class="st1" x1="70.6" y1="741.4" x2="63.9" y2="741.4"/>
	<line class="st1" x1="70.6" y1="739.8" x2="63.9" y2="739.8"/>
	<line class="st1" x1="70.6" y1="738.2" x2="63.9" y2="738.2"/>
	<line class="st1" x1="70.6" y1="736.6" x2="63.9" y2="736.6"/>
	<line class="st1" x1="70.6" y1="735" x2="63.9" y2="735"/>
	<line class="st1" x1="70.6" y1="733.4" x2="63.9" y2="733.4"/>
	<line class="st1" x1="71.3" y1="730.2" x2="63.9" y2="730.2"/>
	<line class="st1" x1="47.8" y1="730.4" x2="55.7" y2="730.4"/>
	<line class="st1" x1="47.9" y1="732" x2="56.5" y2="732"/>
	<line class="st1" x1="47.8" y1="733.6" x2="55.7" y2="733.6"/>
	<line class="st1" x1="47.9" y1="735.2" x2="55.7" y2="735.2"/>
	<line class="st1" x1="71.2" y1="730.4" x2="79.4" y2="730.4"/>
	<line class="st1" x1="71.2" y1="732" x2="79.4" y2="732"/>
	<line class="st1" x1="71.9" y1="733.6" x2="79.5" y2="733.6"/>
	<line class="st1" x1="71.9" y1="735.2" x2="79.4" y2="735.2"/>
	<path class="st1" d="M55.6,744c0,0.3,0.3,0.6,0.6,0.6s0.6-0.3,0.6-0.6l0,0"/>
	<line class="st1" x1="56.8" y1="744" x2="56.8" y2="743.8"/>
	<line class="st1" x1="55.6" y1="744" x2="55.6" y2="743.8"/>
	<path class="st1" d="M70.6,744c0,0.3,0.3,0.6,0.6,0.6c0.3,0,0.6-0.3,0.6-0.6l0,0"/>
	<line class="st1" x1="71.9" y1="744" x2="71.9" y2="743.8"/>
	<line class="st1" x1="70.6" y1="744" x2="70.6" y2="743.8"/>
	<line class="st1" x1="56.2" y1="743.8" x2="56.2" y2="732.1"/>
	<line class="st1" x1="48" y1="738.4" x2="55.7" y2="738.4"/>
	<line class="st1" x1="48" y1="739.9" x2="55.7" y2="739.9"/>
	<line class="st1" x1="48" y1="741.5" x2="55.7" y2="741.5"/>
	<line class="st1" x1="47.9" y1="736.8" x2="55.7" y2="736.8"/>
	<line class="st1" x1="71.2" y1="743.8" x2="71.2" y2="731.9"/>
	<line class="st1" x1="71.9" y1="738.4" x2="79.4" y2="738.4"/>
	<line class="st1" x1="71.9" y1="739.9" x2="79.3" y2="739.9"/>
	<line class="st1" x1="71.9" y1="741.5" x2="79.3" y2="741.5"/>
	<line class="st1" x1="71.8" y1="736.8" x2="79.5" y2="736.8"/>
	<line class="st1" x1="80.1" y1="416.8" x2="80.1" y2="409.1"/>
	<line class="st1" x1="81.8" y1="416.6" x2="81.8" y2="408.9"/>
	<line class="st1" x1="83.5" y1="416.6" x2="83.5" y2="408.8"/>
	<line class="st1" x1="85.3" y1="416.6" x2="85.3" y2="408.7"/>
	<line class="st1" x1="87" y1="416.8" x2="87" y2="408.7"/>
	<line class="st1" x1="88.6" y1="416.6" x2="88.6" y2="408.7"/>
	<line class="st1" x1="90.2" y1="416.8" x2="90.2" y2="408.3"/>
	<polyline class="st1" points="60.3,385.5 60.3,416.8 92.4,417 92.4,501.4 80.9,501.4 80.9,484.6 	"/>
	<line class="st1" x1="34.1" y1="484.4" x2="92.4" y2="484.4"/>
	<polyline class="st1" points="60.5,404 69.5,406.5 69.6,409.3 92.4,408.3 92.4,385.4 60.3,385.4 60.3,413.7 51.1,413.7 51.1,419.7 
		34,419.6 34.1,441.5 34.1,419.5 34.1,501.4 46.6,501.4 46.6,484.4 	"/>
	<path class="st1" d="M33.5,629.1v-18.4h3.2v-0.9c0,0-0.5-8.9,7.1-8.6c4,0.2,3.8,3.3,3.8,3.3c3.9,1.4,11.1,2.3,16.3,2.4
		c5.2-0.1,12-0.7,15.9-2.1c0,0,1.8-3.7,4.2-3.7c4.5,0,6.2,3,6.7,5.5l0.3,3.1v1.1h1.4v28.6l-9.9-0.2V695l10.6,2.8v13.9"/>
	<path class="st1" d="M63.8,521.5H40.4v-4.7h-7.3c0,0,3.6,6.1,3.6,9.4c0,2.5,0.5,4.6-2.5,9.8c0,0.5-0.6,2.8,2.5,3.2
		c1,0,3.4,0.4,7.1-2.7l5.2,2.6l-5.9,4.5c-1.3,1.1-2.4,2.1-2.4,3.7c0,1.8,1.4,2.4,1.4,2.4s1.1,3.2,1,5.3c-0.2,0-2.1,0.1-2.1,2
		c0,1.6,2,1.8,2,1.8c-0.1,2.2-1.2,5.7-1.2,5.7s-0.9,2.2,0.9,2.9C45.3,568,46,566,46,566c0.4-2-1.9-2.4-1.9-2.4s1.1-2.9,1.1-6.7
		c0-4.1-1.1-7-1.1-7c1.3-0.3,1.6-0.7,2.1-1.6c0.5-1.6-0.7-2.6-0.7-2.6s-0.7-0.8,0.8-1.8c4.2-2.9,8.9-10.5,8.9-10.5s1.8,0.7,2.9,0.8
		c0-0.8,0-2.7,0-2.7h5.8h5.8c0,0,0,1.9,0,2.7c1.1-0.1,2.9-0.8,2.9-0.8s4.6,7.6,8.8,10.5c1.5,1,0.8,1.8,0.8,1.8s-1.2,0.9-0.7,2.6
		c0.5,0.9,0.8,1.3,2.1,1.6c0,0-1.1,2.9-1.1,7c0,3.8,1.1,6.7,1.1,6.7s-2.2,0.4-1.9,2.4c0,0,0.7,2,3.3,1.2c1.9-0.8,0.9-2.9,0.9-2.9
		s-1.1-3.4-1.2-5.7c0,0,2-0.2,2-1.8c0-1.9-1.9-1.9-2.1-2c0-2.1,1-5.3,1-5.3s1.4-0.6,1.4-2.4c0-1.6-1.1-2.6-2.4-3.7l-5.9-4.5l5.2-2.6
		c3.7,3.1,6.1,2.7,7.1,2.7c3.2-0.4,2.5-2.7,2.5-3.2c-3-5.3-2.5-7.3-2.5-9.8c0-3.2,3.6-9.4,3.6-9.4h-7.2l-0.1,4.7H63.8V521.5z"/>
	<path class="st1" d="M69,574.1c-1.4,0-2.6-1-2.6-2.2s1.2-2.2,2.6-2.2s2.6,1,2.6,2.2C71.6,573.2,70.5,574.1,69,574.1L69,574.1z"/>
	<path class="st1" d="M58.6,574.1c-1.4,0-2.6-1-2.6-2.2s1.2-2.2,2.6-2.2c1.4,0,2.6,1,2.6,2.2C61.2,573.2,60.1,574.1,58.6,574.1
		L58.6,574.1z"/>
	<polyline class="st1" points="79.5,747.4 79.5,727.5 92.4,727.5 92.4,747.7 35.3,747.7 35.3,727.5 47.9,727.5 47.9,747.7 	"/>
	<line class="st1" x1="92.8" y1="629.2" x2="104.3" y2="629.2"/>
	<line class="st1" x1="23" y1="441.5" x2="33.7" y2="441.5"/>
	<line class="st1" x1="22.7" y1="712" x2="104.7" y2="712"/>
	<polygon class="st1" points="40.4,521.5 40.4,512.7 50.5,512.7 50.5,521.5 	"/>
	<polygon class="st1" points="50.5,521.5 50.5,512.7 60.5,512.7 60.5,521.5 	"/>
	<polygon class="st1" points="67.5,521.5 67.5,512.7 77.6,512.7 77.6,521.5 	"/>
	<polygon class="st1" points="77.6,521.5 77.6,512.7 87.3,512.7 87.3,521.5 	"/>
	<path class="st1" d="M104.8,609.2h-2.3l-6.2-5.8c0,0-5.3-2.8-1-6.3c1.3-0.9,1.9-3.6,1.9-3.6l1.6-9.9l0,0c0.1-1.9-0.2-4.4-0.2-6.8
		c0-3.6,3.1-3.6,3.1-3.6h12.4"/>
	<path class="st1" d="M22.8,609.5h2.4l6.2-5.9c0,0,5.3-2.8,1-6.3c-1.2-1-1.2-3.4-1.2-3.4l-1.6-9.9l0,0c-0.1-1.9-0.5-4.7-0.5-7.1
		c0-3.6-3.1-3.6-3.1-3.6H13.6"/>
	<polyline class="st1" points="23,629.1 43.5,629.1 43.6,682.1 25.8,682.1 25.8,691.6 34.5,701 34.5,711.7 	"/>
	<path class="st1" d="M82.3,566.9c-4.7,3.9-10.7,4.7-10.7,4.7"/>
	<path class="st1" d="M45.3,566.9c4.7,3.9,10.7,4.7,10.7,4.7"/>
	<path class="st1" d="M85.4,567c0.1,0.9-8.8,7.2-14.8,6.6"/>
	<path class="st1" d="M71,573.6c-0.4,0.3-1.2,0.6-1.8,0.6c-0.1,0-0.6-0.1-0.7-0.1c-1,0.3-3.5,1.7-8.7,0c-0.1,0-0.6,0-0.7,0
		c-1,0.2-1.9-0.2-2.3-0.5c0,0-9.2-0.5-13.5-6.4"/>
	<path class="st1" d="M105,847.9c6.4-1.6,14.4-4.3,16-9.1v-44.5l-4.7-0.1v-55.8"/>
	<path class="st1" d="M116.3,738.3c0-8.3-7.9-10.3-11.6-10.8v-15.6l11.7-11.4l-0.4-61.1L104.7,629v-19.7h4l5.2-4.3v-42H110v-16.1
		h-5.4V423.2l3.3-1.3v-5.2l-3.3-1.4l0,0v-1l3.3-1.3v-5.2l-3.3-1.4v-9.9l3.3-1.3V390l-3.3-1.4v-1l3.3-1.3v-5.2l-3.3-1.4v-1.1l3.3-1.3
		v-5.2l-3.3-1.4V203.4l13.7-11.8v-64.8c0,0,0.7-41.1-13.9-46.2H23c0,0-7.5,1.1-11,17.3s-2.6,31.6-2.6,31.6v62l13.7,11.8v167.1
		l-3.6,1.4v5.2l3.6,1.4v1l-3.6,1.4v5.2l3.6,1.4v0.8l-3.6,1.4v5.2l3.6,1.4v0.8l-3.6,1.4v5.2l3.6,1.4v0.9l-3.6,1.4v5.2l3.6,1.4v0.9
		l-3.6,1.4v5.2l3.6,1.4v123.6h-5.3v16.3h-4v42L19,609h4v20.4l-11.7,10.5v60.8L23,711.9v15.4c-3.7,0.5-11.6,2.5-11.6,10.8v55.6H6.7
		v44.9c1.7,4.9,10,7.7,16.5,9.3"/>
	<polyline class="st1" points="92.3,361.2 51.1,361.2 51.1,349.1 	"/>
	<polyline class="st1" points="92.4,401.3 92.4,349 23.3,349 	"/>
	<polyline class="st1" points="34,454.1 51.1,454.1 51.1,419.7 	"/>
	<polygon class="st1" points="64.4,720.5 64.4,711.9 74.4,711.9 74.4,720.5 	"/>
	<polygon class="st1" points="54.3,720.5 54.3,711.9 64.4,711.9 64.4,720.5 	"/>
	<polygon class="st1" points="74.4,720.5 74.4,711.9 84.5,711.9 84.5,720.5 	"/>
	<polygon class="st1" points="44.2,720.5 44.2,711.9 54.3,711.9 54.3,720.5 	"/>
	<line class="st1" x1="76.6" y1="349" x2="76.6" y2="331.2"/>
	<line class="st1" x1="92.3" y1="331.4" x2="92.3" y2="349"/>
	<line class="st1" x1="76.7" y1="340.2" x2="92.1" y2="340.2"/>
	<polyline class="st1" points="23,331.2 92.3,331.2 92.3,325.8 89.3,324.4 87.7,327.3 90.4,329.9 89.3,331.2 	"/>
	<path class="st1" d="M121,794.3l-16-0.3v53.8c0,0-15.3,2.4-34.9,2.6l-6,0.1c0,0-6,0-6-0.1l0,0c-18.8-0.2-25.4-1.3-34.9-2.5v-54.2
		H6.7"/>
	<path class="st1" d="M74.7,838.5v-15.3c0-3.9-4.4-7-9.9-7s-9.9,3.1-9.9,7v15.3c2.9-1.1,6.3-1.7,9.9-1.7
		C68.4,836.8,71.8,837.4,74.7,838.5z"/>
	<path class="st1" d="M105.1,841.9l-20.8,1v-2l-4.7,0.1c-1.4-1-3-1.9-4.8-2.5c-2.9-1.1-6.3-1.7-9.9-1.7s-7,0.6-9.9,1.7
		c-1.8,0.7-3.5,1.5-4.9,2.5l-4.7-0.1v2l-22.2-1v5.9"/>
	<polyline class="st1" points="23.2,809.8 28.1,809.8 28.1,842.1 23.2,841.9 	"/>
	<polyline class="st1" points="105.1,841.9 100.2,842.1 100.2,809.8 105,809.8 	"/>
	<polyline class="st1" points="92.7,727.6 105,727.6 105,756.4 116.5,756.4 	"/>
	<polyline class="st1" points="38.8,727.5 22.9,727.5 22.9,756.3 11.6,756.3 	"/>
	<polygon class="st1" points="78.4,747.6 78.4,747.7 35.5,747.7 35.5,756.3 92.7,756.3 92.7,747.6 	"/>
	<path class="st2" d="M56.2,98.8v-1c0.3,0.2,0.6,0.3,0.9,0.3c0.3,0,0.5-0.1,0.5-0.5l0,0c0-0.3-0.1-0.4-0.5-1
		c-0.7-0.8-0.9-1.1-0.9-1.8l0,0c0-0.9,0.6-1.5,1.4-1.5c0.4,0,0.6,0.1,0.9,0.2v1c-0.3-0.2-0.5-0.3-0.7-0.3c-0.3,0-0.5,0.2-0.5,0.5
		l0,0c0,0.3,0.1,0.4,0.5,0.9c0.8,0.9,0.9,1.2,0.9,1.9l0,0c0,0.9-0.6,1.5-1.4,1.5C56.8,99,56.5,98.9,56.2,98.8z M59.3,94.3h-0.7v-0.9
		H61v0.9h-0.7V99h-1V94.3L59.3,94.3z M61.9,93.3h1l1.1,5.6h-1l-0.2-1.1H62l-0.2,1.1h-0.9L61.9,93.3z M62.7,97l-0.3-1.8L62.1,97H62.7
		z M64.2,96.2V96c0-1.8,0.8-2.7,1.9-2.7c0.3,0,0.5,0.1,0.7,0.2v1c-0.2-0.1-0.5-0.2-0.7-0.2c-0.6,0-0.9,0.6-0.9,1.8v0.3
		c0,1.5,0.4,1.8,0.8,1.8c0,0,0,0,0.1,0v-1.4h-0.5v-0.9H67v3c-0.4,0.2-0.6,0.2-1,0.2C65,99,64.2,98.2,64.2,96.2z M67.5,93.4h2.1v0.9
		h-1.2v1.4h1v0.9h-1V98h1.2v0.9h-2.2L67.5,93.4L67.5,93.4z"/>
	<path class="st2" d="M58,370v-1c0.3,0.2,0.6,0.3,0.9,0.3c0.3,0,0.5-0.1,0.5-0.5l0,0c0-0.3-0.1-0.4-0.5-1c-0.7-0.8-0.9-1.1-0.9-1.8
		l0,0c0-0.9,0.6-1.5,1.4-1.5c0.4,0,0.6,0.1,0.9,0.2v1c-0.3-0.2-0.5-0.3-0.7-0.3c-0.3,0-0.5,0.2-0.5,0.5l0,0c0,0.3,0.1,0.4,0.5,0.9
		c0.8,0.9,0.9,1.2,0.9,1.9l0,0c0,0.9-0.6,1.5-1.4,1.5C58.6,370.2,58.2,370.1,58,370z M60.7,368.6v-4h1v4.1c0,0.5,0.2,0.7,0.4,0.7
		s0.4-0.2,0.4-0.7v-4.1h1v4c0,1.2-0.6,1.7-1.4,1.7C61.3,370.3,60.7,369.7,60.7,368.6z M63.9,370v-1c0.3,0.2,0.6,0.3,0.9,0.3
		s0.5-0.1,0.5-0.5l0,0c0-0.3-0.1-0.4-0.5-1c-0.7-0.8-0.9-1.1-0.9-1.8l0,0c0-0.9,0.6-1.5,1.4-1.5c0.4,0,0.6,0.1,0.9,0.2v1
		c-0.3-0.2-0.5-0.3-0.7-0.3c-0.3,0-0.5,0.2-0.5,0.5l0,0c0,0.3,0.1,0.4,0.5,0.9c0.8,0.9,0.9,1.2,0.9,1.9l0,0c0,0.9-0.6,1.5-1.4,1.5
		C64.5,370.2,64.2,370.1,63.9,370z M66.6,364.6h1v2.3h0.8v-2.3h1v5.6h-1v-2.4h-0.8v2.4h-1V364.6z M70,364.6h1v5.6h-1V364.6z
		 M72.8,364.6h0.8c0.9,0,1.8,0.4,1.8,1.4l0,0c0,0.7-0.4,1.1-0.8,1.3c0.5,0.2,0.9,0.5,0.9,1.2v0.1c0,1-0.8,1.6-1.9,1.6h-0.9
		L72.8,364.6L72.8,364.6z M73.8,366.9c0.4,0,0.7-0.2,0.7-0.7l0,0c0-0.5-0.3-0.7-0.7-0.7l0,0V366.9L73.8,366.9z M73.8,369.3
		c0.4,0,0.8-0.3,0.8-0.7l0,0c0-0.5-0.3-0.7-0.8-0.7l0,0V369.3L73.8,369.3L73.8,369.3z M76.7,364.6h1l1.1,5.6h-1l-0.2-1.1h-0.9
		l-0.2,1.1h-0.9L76.7,364.6z M77.5,368.2l-0.3-1.8l-0.3,1.8H77.5z M79.1,364.6h1c1,0,1.7,0.5,1.7,1.8v0.1c0,0.7-0.3,1.2-0.7,1.5
		l0.8,2.3h-1l-0.6-2h-0.2v2h-1L79.1,364.6L79.1,364.6z M80.2,367.4c0.4,0,0.7-0.2,0.7-0.9v-0.1c0-0.7-0.3-0.9-0.8-0.9l0,0
		L80.2,367.4L80.2,367.4z"/>
	<path class="st2" d="M32.5,356v-1c0.3,0.2,0.6,0.3,0.9,0.3c0.3,0,0.5-0.1,0.5-0.5l0,0c0-0.3-0.1-0.4-0.5-1
		c-0.7-0.8-0.9-1.1-0.9-1.8l0,0c0-0.9,0.6-1.5,1.4-1.5c0.4,0,0.6,0.1,0.9,0.2v1c-0.3-0.2-0.5-0.3-0.7-0.3c-0.3,0-0.5,0.2-0.5,0.5
		l0,0c0,0.3,0.1,0.4,0.5,0.9c0.8,0.9,0.9,1.2,0.9,1.9l0,0c0,0.9-0.6,1.5-1.4,1.5C33.1,356.2,32.7,356.1,32.5,356z M36,350.6h1
		l1.1,5.6h-1l-0.2-1.1H36l-0.2,1.1h-0.9L36,350.6z M36.8,354.2l-0.3-1.8l-0.3,1.8H36.8z M38.4,350.6h1v2.3l0.8-2.3h1.1l-0.9,2.4
		l1,3.2h-1.1l-0.6-2.1l-0.2,0.6v1.5h-1C38.4,356.2,38.4,350.6,38.4,350.6z M41.6,350.6h2.1v0.9h-1.2v1.4h1v0.9h-1v1.4h1.2v0.9h-2.2
		C41.6,356.2,41.6,350.6,41.6,350.6z M33,358.6h0.8c0.9,0,1.8,0.4,1.8,1.4l0,0c0,0.7-0.4,1.1-0.8,1.3c0.5,0.2,0.9,0.5,0.9,1.2v0.1
		c0,1-0.8,1.6-1.9,1.6H33V358.6L33,358.6z M34,360.9c0.4,0,0.7-0.2,0.7-0.7l0,0c0-0.5-0.3-0.7-0.7-0.7l0,0V360.9L34,360.9z
		 M34,363.3c0.4,0,0.8-0.3,0.8-0.7l0,0c0-0.5-0.3-0.7-0.8-0.7l0,0V363.3L34,363.3L34,363.3z M36.9,358.6h1l1.1,5.6h-1l-0.2-1.1H37
		l-0.2,1.1h-0.9L36.9,358.6z M37.7,362.2l-0.3-1.8l-0.3,1.8H37.7z M39.3,358.6h1c1,0,1.7,0.5,1.7,1.8v0.1c0,0.7-0.3,1.2-0.7,1.5
		l0.8,2.3h-1l-0.6-2h-0.2v2h-1V358.6L39.3,358.6z M40.3,361.4c0.4,0,0.7-0.2,0.7-0.9v-0.1c0-0.7-0.3-0.9-0.8-0.9l0,0L40.3,361.4
		L40.3,361.4z"/>
	<path class="st2" d="M52.2,556v-1c0.2,0.1,0.3,0.1,0.5,0.1c0.3,0,0.5-0.2,0.5-0.6v-4.1h1v4.2c0,1-0.5,1.5-1.3,1.5
		C52.6,556.1,52.4,556.1,52.2,556z M55.5,550.4h1l1.1,5.6h-1l-0.2-1.1h-0.9l-0.2,1.1h-0.9L55.5,550.4z M56.3,554.1l-0.3-1.8
		l-0.3,1.8H56.3z M57.5,550.5h1l0.5,3.6l0.5-3.6h1l-1,5.6h-1L57.5,550.5z M61.4,550.4h1l1.1,5.6h-1l-0.2-1.1h-0.9l-0.2,1.1h-0.9
		L61.4,550.4z M62.2,554.1l-0.3-1.8l-0.3,1.8H62.2z M65,553.4v-0.2c0-2,0.7-2.7,1.6-2.7c0.3,0,0.4,0,0.6,0.1v1
		c-0.2-0.1-0.4-0.2-0.5-0.2c-0.4,0-0.7,0.4-0.7,1.8v0.2c0,1.5,0.3,1.8,0.8,1.8c0.2,0,0.3-0.1,0.5-0.2v1c-0.2,0.1-0.4,0.2-0.7,0.2
		C65.7,556.1,65,555.3,65,553.4z M68.6,550.4h1l1.1,5.6h-1l-0.2-1.1h-0.9l-0.2,1.1h-0.9L68.6,550.4z M69.4,554.1l-0.3-1.8l-0.3,1.8
		H69.4z M71,550.5h2v0.9h-1.1v1.4h0.9v0.9h-0.9v2.3h-1L71,550.5L71,550.5z M73.4,550.5h2.1v0.9h-1.2v1.4h1v0.9h-1v1.4h1.2v0.9h-2.2
		L73.4,550.5L73.4,550.5z M74.8,549.2l0.8,0.4l-0.8,0.6h-0.7L74.8,549.2z"/>
	<path class="st2" d="M106.4,602.3h-0.2c-1.8,0-2.7-0.8-2.7-1.9c0-0.3,0.1-0.5,0.2-0.7h1c-0.1,0.2-0.2,0.5-0.2,0.7
		c0,0.6,0.6,0.9,1.8,0.9h0.3c1.5,0,1.8-0.4,1.8-0.8c0,0,0,0,0-0.1H107v0.5h-0.9v-1.4h3c0.2,0.4,0.2,0.6,0.2,1
		C109.1,601.5,108.4,602.3,106.4,602.3z M103.5,599v-1h5.6v1H103.5z M103.5,597.4v-2h0.9v1.1h1.4v-0.9h0.9v0.9h2.3v1L103.5,597.4
		L103.5,597.4z M104.4,594.4v0.7h-0.9v-2.4h0.9v0.7h4.7v1H104.4L104.4,594.4z M108.9,591.2h-1c0.2-0.3,0.3-0.6,0.3-0.9
		c0-0.3-0.1-0.5-0.5-0.5l0,0c-0.3,0-0.4,0.1-1,0.5c-0.8,0.7-1.1,0.9-1.8,0.9l0,0c-0.9,0-1.5-0.6-1.5-1.4c0-0.4,0.1-0.6,0.2-0.9h1
		c-0.2,0.3-0.3,0.5-0.3,0.7c0,0.3,0.2,0.5,0.5,0.5l0,0c0.3,0,0.4-0.1,0.9-0.5c0.9-0.8,1.2-0.9,1.9-0.9l0,0c0.9,0,1.5,0.6,1.5,1.4
		C109.1,590.6,109.1,590.9,108.9,591.2z M103.5,588.4v-1h2.3v-0.8h-2.3v-1h5.6v1h-2.4v0.8h2.4v1H103.5z M106.5,585.2h-0.3
		c-1.8,0-2.7-0.6-2.7-1.5s0.9-1.5,2.7-1.5h0.3c1.8,0,2.7,0.6,2.7,1.5S108.3,585.2,106.5,585.2z M106.5,583.2h-0.3
		c-1.4,0-1.8,0.2-1.8,0.5s0.4,0.5,1.8,0.5h0.3c1.4,0,1.8-0.2,1.8-0.5S107.9,583.2,106.5,583.2z M103.5,581.7v-0.9
		c0-1.1,0.6-1.8,1.9-1.8l0,0c1.3,0,1.9,0.7,1.9,1.7l0,0h1.8v1H103.5L103.5,581.7z M106.4,580.7c0-0.4-0.3-0.7-1-0.7l0,0
		c-0.7,0-1,0.3-1,0.7l0,0H106.4L106.4,580.7L106.4,580.7z"/>
	<path class="st2" d="M41.3,450.7v0.7h-0.9V449h0.9v0.7H46v1H41.3L41.3,450.7z M40.4,448.6v-2.1h0.9v1.2h1.4v-1h0.9v1H45v-1.2h1v2.2
		L40.4,448.6L40.4,448.6z M40.4,446v-0.9c0-1.1,0.6-1.8,1.9-1.8l0,0c1.3,0,1.9,0.7,1.9,1.7l0,0H46v1L40.4,446L40.4,446z M43.3,445
		c0-0.4-0.3-0.7-1-0.7l0,0c-0.7,0-1,0.3-1,0.7l0,0H43.3L43.3,445L43.3,445z M40.4,442.9V442c0-1.1,0.6-1.8,1.9-1.8l0,0
		c1.3,0,1.9,0.7,1.9,1.7l0,0H46v1L40.4,442.9L40.4,442.9z M43.3,441.9c0-0.4-0.3-0.7-1-0.7l0,0c-0.7,0-1,0.3-1,0.7l0,0H43.3
		L43.3,441.9L43.3,441.9z M40.4,439.3v-1l5.6-1.1v1l-1.1,0.2v0.9l1.1,0.2v0.9L40.4,439.3z M44,438.5l-1.8,0.3l1.8,0.3V438.5z
		 M40.4,436.9V436l2.8-1h-2.8v-1H46v0.9l-3,1h3v1H40.4L40.4,436.9z M43.8,432.7l-3.4,1v-1l2.1-0.5l-2.1-0.5v-1l3.4,1H46v1H43.8
		L43.8,432.7z M40.4,430v-1l5.6-1.1v1l-1.1,0.2v0.9l1.1,0.2v0.9L40.4,430z M44,429.2l-1.8,0.3l1.8,0.3V429.2z M40.4,427.6v-1h2.3
		l-2.3-0.8v-1.1l2.4,0.9l3.2-1v1.1l-2.1,0.6l0.6,0.2H46v1L40.4,427.6L40.4,427.6z M40.4,424.3v-1H46v1H40.4z"/>
	<path class="st2" d="M46,587v-0.2c0-1.8,0.8-2.7,1.9-2.7c0.3,0,0.5,0.1,0.7,0.2v1c-0.2-0.1-0.5-0.2-0.7-0.2c-0.6,0-0.9,0.6-0.9,1.8
		v0.3c0,1.5,0.4,1.8,0.8,1.8c0,0,0,0,0.1,0v-1.4h-0.5v-0.9h1.4v3c-0.4,0.2-0.6,0.2-1,0.2C46.8,589.8,46,589,46,587z M49.3,584.1h1
		c1,0,1.7,0.5,1.7,1.8v0.1c0,0.7-0.3,1.2-0.7,1.5l0.8,2.3h-1l-0.6-2h-0.2v2h-1V584.1z M50.4,586.9c0.4,0,0.7-0.2,0.7-0.9v-0.1
		c0-0.7-0.3-0.9-0.8-0.9l0,0L50.4,586.9L50.4,586.9z M53.3,584.1h1l1.1,5.6h-1l-0.2-1.1h-0.9l-0.2,1.1h-0.9L53.3,584.1z M54.1,587.7
		l-0.3-1.8l-0.3,1.8H54.1z M55.7,584.1h0.9l1,2.8v-2.8h1v5.6h-0.9l-1-3v3h-1V584.1L55.7,584.1z M59.1,584.1H60c1.2,0,2,0.9,2,2.7
		v0.2c0,1.8-0.7,2.7-2,2.7h-0.9V584.1z M60.1,588.8c0.5,0,0.9-0.4,0.9-1.8v-0.2c0-1.4-0.4-1.8-0.9-1.8l0,0V588.8L60.1,588.8z
		 M64.5,584.1h1l1.1,5.6h-1l-0.2-1.1h-0.9l-0.2,1.1h-0.9L64.5,584.1z M65.3,587.7l-0.3-1.8l-0.3,1.8H65.3z M67.2,585.1h-0.7v-0.9
		h2.4v0.9h-0.7v4.7h-1L67.2,585.1L67.2,585.1z M69.3,584.1h1c1,0,1.7,0.5,1.7,1.8v0.1c0,0.7-0.3,1.2-0.7,1.5l0.8,2.3h-1l-0.6-2h-0.2
		v2h-1L69.3,584.1L69.3,584.1z M70.3,586.9c0.4,0,0.7-0.2,0.7-0.9v-0.1c0-0.7-0.3-0.9-0.8-0.9l0,0L70.3,586.9L70.3,586.9z
		 M72.5,584.1h1v5.6h-1V584.1z M74,588.1v-4h1v4.1c0,0.5,0.2,0.7,0.4,0.7s0.4-0.2,0.4-0.7v-4.1h1v4c0,1.2-0.6,1.7-1.4,1.7
		S74,589.3,74,588.1z M77.4,584.1h1l0.7,2l0.7-2h1v5.6h-0.9v-3.4l-0.7,2.1l0,0l-0.7-2.1v3.4h-0.9L77.4,584.1L77.4,584.1z"/>
	<path class="st2" d="M57.8,612.5v-0.2c0-1.8,0.8-2.7,1.9-2.7c0.3,0,0.5,0.1,0.7,0.2v1c-0.2-0.1-0.5-0.2-0.7-0.2
		c-0.6,0-0.9,0.6-0.9,1.8v0.3c0,1.5,0.4,1.8,0.8,1.8c0,0,0,0,0.1,0v-1.4h-0.5V612h1.4v3c-0.4,0.2-0.6,0.2-1,0.2
		C58.6,615.2,57.8,614.5,57.8,612.5z M61.1,613.6v-4h1v4.1c0,0.5,0.2,0.7,0.4,0.7s0.4-0.2,0.4-0.7v-4.1h1v4c0,1.2-0.6,1.7-1.4,1.7
		C61.7,615.3,61.1,614.8,61.1,613.6z M64.5,609.6h2.1v0.9h-1.2v1.4h1v0.9h-1v1.4h1.2v0.9h-2.2L64.5,609.6L64.5,609.6z M67,615v-1
		c0.3,0.2,0.6,0.3,0.9,0.3s0.5-0.1,0.5-0.5l0,0c0-0.3-0.1-0.4-0.5-1c-0.7-0.8-0.9-1.1-0.9-1.8l0,0c0-0.9,0.6-1.5,1.4-1.5
		c0.4,0,0.6,0.1,0.9,0.2v1c-0.3-0.2-0.5-0.3-0.7-0.3c-0.3,0-0.5,0.2-0.5,0.5l0,0c0,0.3,0.1,0.4,0.5,0.9c0.8,0.9,0.9,1.2,0.9,1.9l0,0
		c0,0.9-0.6,1.5-1.4,1.5C67.6,615.2,67.3,615.2,67,615z M70.1,610.5h-0.7v-0.9h2.4v0.9h-0.7v4.7h-1L70.1,610.5L70.1,610.5z
		 M54.4,623v-1c0.3,0.2,0.6,0.3,0.9,0.3c0.3,0,0.5-0.1,0.5-0.5l0,0c0-0.3-0.1-0.4-0.5-1c-0.7-0.8-0.9-1.1-0.9-1.8l0,0
		c0-0.9,0.6-1.5,1.4-1.5c0.4,0,0.6,0.1,0.9,0.2v1c-0.3-0.2-0.5-0.3-0.7-0.3c-0.3,0-0.5,0.2-0.5,0.5l0,0c0,0.3,0.1,0.4,0.5,0.9
		c0.8,0.9,0.9,1.2,0.9,1.9l0,0c0,0.9-0.6,1.5-1.4,1.5C55.1,623.2,54.7,623.2,54.4,623z M57.2,617.6h2.1v0.9h-1.2v1.4h1v0.9h-1v1.4
		h1.2v0.9h-2.2v-5.5H57.2z M59.8,617.6h1c1,0,1.7,0.5,1.7,1.8v0.1c0,0.7-0.3,1.2-0.7,1.5l0.8,2.3h-1l-0.6-2h-0.2v2h-1V617.6
		L59.8,617.6z M60.8,620.4c0.4,0,0.7-0.2,0.7-0.9v-0.1c0-0.7-0.3-0.9-0.8-0.9l0,0L60.8,620.4L60.8,620.4z M62.7,617.6h1l0.5,3.6
		l0.5-3.6h1l-1,5.6h-1L62.7,617.6z M66,617.6h1v5.6h-1V617.6z M67.5,620.5v-0.2c0-2,0.7-2.7,1.6-2.7c0.3,0,0.4,0,0.6,0.1v1
		c-0.2-0.1-0.4-0.2-0.5-0.2c-0.4,0-0.7,0.4-0.7,1.8v0.2c0,1.5,0.3,1.8,0.8,1.8c0.2,0,0.3-0.1,0.5-0.2v1c-0.2,0.1-0.4,0.2-0.7,0.2
		C68.2,623.2,67.5,622.5,67.5,620.5z M70.3,617.6h2.1v0.9h-1.2v1.4h1v0.9h-1v1.4h1.2v0.9h-2.2L70.3,617.6L70.3,617.6z M72.8,623v-1
		c0.3,0.2,0.6,0.3,0.9,0.3s0.5-0.1,0.5-0.5l0,0c0-0.3-0.1-0.4-0.5-1c-0.7-0.8-0.9-1.1-0.9-1.8l0,0c0-0.9,0.6-1.5,1.4-1.5
		c0.4,0,0.6,0.1,0.9,0.2v1c-0.3-0.2-0.5-0.3-0.7-0.3c-0.3,0-0.5,0.2-0.5,0.5l0,0c0,0.3,0.1,0.4,0.5,0.9c0.8,0.9,0.9,1.2,0.9,1.9l0,0
		c0,0.9-0.6,1.5-1.4,1.5C73.4,623.2,73.1,623.2,72.8,623z"/>
	<path class="st2" d="M92,653.7h0.9c1.1,0,1.8,0.6,1.8,1.9l0,0c0,1.3-0.7,1.9-1.7,1.9l0,0v1.8h-1C92,659.3,92,653.7,92,653.7z
		 M93,656.6c0.4,0,0.7-0.3,0.7-1l0,0c0-0.7-0.3-1-0.7-1l0,0V656.6L93,656.6L93,656.6z M95.1,653.7h1v2.3h0.8v-2.3h1v5.6h-1V657h-0.8
		v2.4h-1V653.7z M98.4,656.7v-0.3c0-1.8,0.6-2.7,1.5-2.7s1.5,0.9,1.5,2.7v0.3c0,1.8-0.6,2.7-1.5,2.7S98.4,658.5,98.4,656.7z
		 M100.4,656.7v-0.3c0-1.4-0.2-1.8-0.5-1.8s-0.5,0.4-0.5,1.8v0.3c0,1.4,0.2,1.8,0.5,1.8S100.4,658.1,100.4,656.7z M102.2,654.6h-0.7
		v-0.9h2.4v0.9h-0.7v4.7h-1L102.2,654.6L102.2,654.6z M104,656.7v-0.3c0-1.8,0.6-2.7,1.5-2.7s1.5,0.9,1.5,2.7v0.3
		c0,1.8-0.6,2.7-1.5,2.7S104,658.5,104,656.7z M106,656.7v-0.3c0-1.4-0.2-1.8-0.5-1.8s-0.5,0.4-0.5,1.8v0.3c0,1.4,0.2,1.8,0.5,1.8
		S106,658.1,106,656.7z M90.3,664.6v-0.2c0-1.8,0.8-2.7,1.9-2.7c0.3,0,0.5,0.1,0.7,0.2v1c-0.2-0.1-0.5-0.2-0.7-0.2
		c-0.6,0-0.9,0.6-0.9,1.8v0.3c0,1.5,0.4,1.8,0.8,1.8c0,0,0,0,0.1,0V665h-0.5v-0.9h1.4v3c-0.4,0.2-0.6,0.2-1,0.2
		C91.1,667.3,90.3,666.6,90.3,664.6z M94.4,661.7h1l1.1,5.6h-1l-0.2-1.1h-0.9l-0.2,1.1h-0.9L94.4,661.7z M95.2,665.3l-0.3-1.8
		l-0.3,1.8H95.2z M96.8,661.7h1v4.7h1v0.9h-2C96.8,667.3,96.8,661.7,96.8,661.7z M99.2,661.7h1v4.7h1v0.9h-2
		C99.2,667.3,99.2,661.7,99.2,661.7z M101.6,661.7h2.1v0.9h-1.2v1.4h1v0.9h-1v1.4h1.2v0.9h-2.2L101.6,661.7L101.6,661.7z
		 M104.3,661.7h1c1,0,1.7,0.5,1.7,1.8v0.1c0,0.7-0.3,1.2-0.7,1.5l0.8,2.3h-1l-0.6-2h-0.2v2h-1C104.3,667.4,104.3,661.7,104.3,661.7z
		 M105.3,664.5c0.4,0,0.7-0.2,0.7-0.9v-0.1c0-0.7-0.3-0.9-0.8-0.9l0,0L105.3,664.5L105.3,664.5z M108.1,665.1l-1-3.4h1l0.5,2.1
		l0.5-2.1h1l-1,3.4v2.2h-1V665.1L108.1,665.1z"/>
	<path class="st2" d="M10.6,505.1v0.7h-1v-2.4h0.9v0.7h4.7v1L10.6,505.1L10.6,505.1z M9.6,503v-1H12v-0.8H9.6v-1h5.6v1h-2.4v0.8h2.4
		v1H9.6z M9.6,499.7v-2.1h0.9v1.2H12v-1h0.9v1h1.4v-1.2h0.9v2.2L9.6,499.7L9.6,499.7z M9.6,495.7v-0.9c0-1.1,0.6-1.8,1.9-1.8l0,0
		c1.3,0,1.9,0.7,1.9,1.7l0,0h1.8v1L9.6,495.7L9.6,495.7z M12.6,494.8c0-0.4-0.3-0.7-1-0.7l0,0c-0.7,0-1,0.3-1,0.7l0,0H12.6
		L12.6,494.8z M9.6,492.7v-1c0-1,0.5-1.7,1.8-1.7h0.1c0.7,0,1.2,0.3,1.5,0.7l2.3-0.8v1l-2,0.6v0.2h2v1L9.6,492.7L9.6,492.7z
		 M12.4,491.6c0-0.4-0.2-0.7-0.9-0.7h-0.1c-0.7,0-0.9,0.3-0.9,0.8l0,0L12.4,491.6L12.4,491.6z M12.6,489.6h-0.3
		c-1.8,0-2.7-0.6-2.7-1.5s0.9-1.5,2.7-1.5h0.3c1.8,0,2.7,0.6,2.7,1.5S14.4,489.6,12.6,489.6z M12.6,487.6h-0.3
		c-1.4,0-1.8,0.2-1.8,0.5s0.4,0.5,1.8,0.5h0.3c1.4,0,1.8-0.2,1.8-0.5S14,487.6,12.6,487.6z M9.6,486.1v-1l2-0.7l-2-0.7v-1h5.6v0.9
		h-3.4l2.1,0.7l0,0l-2.1,0.7h3.4v0.9L9.6,486.1L9.6,486.1z M9.6,482.2v-2.1h0.9v1.2H12v-1h0.9v1h1.4v-1.2h0.9v2.2L9.6,482.2
		L9.6,482.2z M9.6,479.6v-0.9l2.8-1H9.6v-1h5.6v0.9l-3,1h3v1H9.6z M9.6,475.4v-1l5.6-1.1v1l-1.1,0.2v0.9l1.1,0.2v0.9L9.6,475.4z
		 M13.3,474.6l-1.8,0.3l1.8,0.3V474.6z M9.6,473v-0.9c0-1.2,0.9-2,2.7-2h0.2c1.8,0,2.7,0.7,2.7,2v0.9H9.6z M14.4,472
		c0-0.5-0.4-0.9-1.8-0.9h-0.2c-1.4,0-1.8,0.4-1.8,0.9l0,0H14.4L14.4,472z M9.6,469.6v-2.1h0.9v1.2H12v-1h0.9v1h1.4v-1.2h0.9v2.2
		L9.6,469.6L9.6,469.6z"/>
	<path class="st2" d="M114.3,502.2v0.7h-0.9v-2.4h0.9v0.7h4.7v1L114.3,502.2L114.3,502.2z M113.4,500.1v-1h2.3v-0.8h-2.3v-1h5.6v1
		h-2.4v0.8h2.4v1H113.4z M113.4,496.7v-2.1h0.9v1.2h1.4v-1h0.9v1h1.4v-1.2h0.9v2.2L113.4,496.7L113.4,496.7z M113.4,492.8v-0.9
		c0-1.1,0.6-1.8,1.9-1.8l0,0c1.3,0,1.9,0.7,1.9,1.7l0,0h1.8v1L113.4,492.8L113.4,492.8z M116.3,491.8c0-0.4-0.3-0.7-1-0.7l0,0
		c-0.7,0-1,0.3-1,0.7l0,0H116.3L116.3,491.8L116.3,491.8z M113.4,489.7v-1c0-1,0.5-1.7,1.8-1.7h0.1c0.7,0,1.2,0.3,1.5,0.7l2.3-0.8v1
		l-2,0.6v0.2h2v1L113.4,489.7L113.4,489.7z M116.2,488.7c0-0.4-0.2-0.7-0.9-0.7h-0.1c-0.7,0-0.9,0.3-0.9,0.8l0,0L116.2,488.7
		L116.2,488.7z M116.3,486.6H116c-1.8,0-2.7-0.6-2.7-1.5s0.9-1.5,2.7-1.5h0.3c1.8,0,2.7,0.6,2.7,1.5S118.2,486.6,116.3,486.6z
		 M116.3,484.6H116c-1.4,0-1.8,0.2-1.8,0.5s0.4,0.5,1.8,0.5h0.3c1.4,0,1.8-0.2,1.8-0.5S117.8,484.6,116.3,484.6z M113.4,483.2v-1
		l2-0.7l-2-0.7v-1h5.6v0.9h-3.4l2.1,0.7l0,0l-2.1,0.7h3.4v0.9L113.4,483.2L113.4,483.2z M113.4,479.3v-2.1h0.9v1.2h1.4v-1h0.9v1h1.4
		v-1.2h0.9v2.2L113.4,479.3L113.4,479.3z M113.4,476.6v-0.9l2.8-1h-2.8v-1h5.6v0.9l-3,1h3v1H113.4z M113.4,472.4v-1l5.6-1.1v1
		l-1.1,0.2v0.9l1.1,0.2v0.9L113.4,472.4z M117,471.6l-1.8,0.3l1.8,0.3V471.6z M113.4,470v-0.9c0-1.2,0.9-2,2.7-2h0.2
		c1.8,0,2.7,0.7,2.7,2v0.9H113.4z M118.1,469c0-0.5-0.4-0.9-1.8-0.9h-0.2c-1.4,0-1.8,0.4-1.8,0.9l0,0H118.1L118.1,469z M113.4,466.7
		v-2.1h0.9v1.2h1.4v-1h0.9v1h1.4v-1.2h0.9v2.2L113.4,466.7L113.4,466.7z"/>
	<path class="st2" d="M20.1,599.3h-1c0.2-0.3,0.3-0.6,0.3-0.9c0-0.3-0.1-0.5-0.5-0.5l0,0c-0.3,0-0.4,0.1-1,0.5
		c-0.8,0.7-1.1,0.9-1.8,0.9l0,0c-0.9,0-1.5-0.6-1.5-1.4c0-0.4,0.1-0.6,0.2-0.9h1c-0.2,0.3-0.3,0.5-0.3,0.7c0,0.3,0.2,0.5,0.5,0.5
		l0,0c0.3,0,0.4-0.1,0.9-0.5c0.9-0.8,1.2-0.9,1.9-0.9l0,0c0.9,0,1.5,0.6,1.5,1.4C20.3,598.7,20.2,599,20.1,599.3z M14.7,596.6v-1H17
		v-0.8h-2.3v-1h5.6v1h-2.4v0.8h2.4v1H14.7z M17.6,593.3h-0.3c-1.8,0-2.7-0.6-2.7-1.5s0.9-1.5,2.7-1.5h0.3c1.8,0,2.7,0.6,2.7,1.5
		S19.4,593.3,17.6,593.3z M17.6,591.3h-0.3c-1.4,0-1.8,0.2-1.8,0.5s0.4,0.5,1.8,0.5h0.3c1.4,0,1.8-0.2,1.8-0.5S19,591.3,17.6,591.3z
		 M14.7,589.9v-1c0-1,0.5-1.7,1.8-1.7h0.1c0.7,0,1.2,0.3,1.5,0.7l2.3-0.8v1l-2,0.6v0.2h2v1H14.7L14.7,589.9z M17.4,588.8
		c0-0.4-0.2-0.7-0.9-0.7h-0.1c-0.7,0-0.9,0.3-0.9,0.8l0,0L17.4,588.8L17.4,588.8z M14.7,586.7v-2.1h0.9v1.2H17v-1h0.9v1h1.4v-1.2
		h0.9v2.2L14.7,586.7L14.7,586.7z M22.7,605.8v-2.1h0.9v1.2H25v-1h0.9v1h1.4v-1.2h0.9v2.2L22.7,605.8L22.7,605.8z M25.4,602.5
		l-2.7,0.9v-1l1.6-0.4l-1.6-0.4v-1l2.7,0.9l2.9-0.9v1l-1.7,0.5l1.7,0.5v1L25.4,602.5z M25.6,600.3h-0.2c-2,0-2.7-0.7-2.7-1.6
		c0-0.3,0-0.4,0.1-0.6h1c-0.1,0.2-0.2,0.4-0.2,0.5c0,0.4,0.4,0.7,1.8,0.7h0.2c1.5,0,1.8-0.3,1.8-0.8c0-0.2-0.1-0.3-0.2-0.5h1
		c0.1,0.2,0.2,0.4,0.2,0.7C28.3,599.6,27.5,600.3,25.6,600.3z M26.6,597.5h-4v-1h4.1c0.5,0,0.7-0.2,0.7-0.4s-0.2-0.4-0.7-0.4h-4.1
		v-1h4c1.2,0,1.7,0.6,1.7,1.4S27.8,597.5,26.6,597.5z M22.7,594.2v-1c0-1,0.5-1.7,1.8-1.7h0.1c0.7,0,1.2,0.3,1.5,0.7l2.3-0.8v1
		l-2,0.6v0.2h2v1H22.7z M25.4,593.1c0-0.4-0.2-0.7-0.9-0.7h-0.1c-0.7,0-0.9,0.3-0.9,0.8l0,0L25.4,593.1L25.4,593.1z M28.1,591.1h-1
		c0.2-0.3,0.3-0.6,0.3-0.9c0-0.3-0.1-0.5-0.5-0.5l0,0c-0.3,0-0.4,0.1-1,0.5c-0.8,0.7-1.1,0.9-1.8,0.9l0,0c-0.9,0-1.5-0.6-1.5-1.4
		c0-0.4,0.1-0.6,0.2-0.9h1c-0.2,0.3-0.3,0.5-0.3,0.7c0,0.3,0.2,0.5,0.5,0.5l0,0c0.3,0,0.4-0.1,0.9-0.5c0.9-0.8,1.2-0.9,1.9-0.9l0,0
		c0.9,0,1.5,0.6,1.5,1.4C28.3,590.5,28.2,590.8,28.1,591.1z M22.7,588.4v-1h5.6v1H22.7z M25.6,586.9h-0.3c-1.8,0-2.7-0.6-2.7-1.5
		s0.9-1.5,2.7-1.5h0.3c1.8,0,2.7,0.6,2.7,1.5C28.3,586.3,27.4,586.9,25.6,586.9z M25.6,584.9h-0.3c-1.4,0-1.8,0.2-1.8,0.5
		s0.4,0.5,1.8,0.5h0.3c1.4,0,1.8-0.2,1.8-0.5S27,584.9,25.6,584.9z M22.7,583.4v-0.9l2.8-1h-2.8v-1h5.6v0.9l-3,1h3v1H22.7z
		 M28.1,580.1h-1c0.2-0.3,0.3-0.6,0.3-0.9c0-0.3-0.1-0.5-0.5-0.5l0,0c-0.3,0-0.4,0.1-1,0.5c-0.8,0.7-1.1,0.9-1.8,0.9l0,0
		c-0.9,0-1.5-0.6-1.5-1.4c0-0.4,0.1-0.6,0.2-0.9h1c-0.2,0.3-0.3,0.5-0.3,0.7c0,0.3,0.2,0.5,0.5,0.5l0,0c0.3,0,0.4-0.1,0.9-0.5
		c0.9-0.8,1.2-0.9,1.9-0.9l0,0c0.9,0,1.5,0.6,1.5,1.4C28.3,579.5,28.2,579.9,28.1,580.1z"/>
	<path class="st2" d="M35.1,393.3v-0.2c0-1.8,0.8-2.7,1.9-2.7c0.3,0,0.5,0.1,0.7,0.2v1c-0.2-0.1-0.5-0.2-0.7-0.2
		c-0.6,0-0.9,0.6-0.9,1.8v0.3c0,1.5,0.4,1.8,0.8,1.8c0,0,0,0,0.1,0v-1.4h-0.5V393h1.4v3c-0.4,0.2-0.6,0.2-1,0.2
		C35.9,396,35.1,395.2,35.1,393.3z M38.4,390.4h1v5.6h-1V390.4z M40,390.4h0.9l1,2.8v-2.8h1v5.6H42l-1-3v3h-1V390.4z M43.3,395.2
		l1.3-3.9h-1.2v-0.9h2.3v0.8l-1.3,3.9h1.3v0.9h-2.4C43.3,396,43.3,395.2,43.3,395.2z M46.9,390.4h1L49,396h-1l-0.2-1.1H47l-0.2,1.1
		h-0.9L46.9,390.4z M47.7,394l-0.3-1.8l-0.3,1.8H47.7z M26.8,398.4h1c1,0,1.7,0.5,1.7,1.8v0.1c0,0.7-0.3,1.2-0.7,1.5l0.8,2.3h-1
		l-0.6-2h-0.2v2h-1L26.8,398.4L26.8,398.4z M27.9,401.1c0.4,0,0.7-0.2,0.7-0.9v-0.1c0-0.7-0.3-0.9-0.8-0.9l0,0L27.9,401.1
		L27.9,401.1L27.9,401.1z M30,398.4h2.1v0.9H31v1.4h1v0.9h-1v1.4h1.2v0.9H30C30,404,30,398.4,30,398.4z M32.5,403.8v-1
		c0.3,0.2,0.6,0.3,0.9,0.3c0.3,0,0.5-0.1,0.5-0.5l0,0c0-0.3-0.1-0.4-0.5-1c-0.7-0.8-0.9-1.1-0.9-1.8l0,0c0-0.9,0.6-1.5,1.4-1.5
		c0.4,0,0.6,0.1,0.9,0.2v1c-0.3-0.2-0.5-0.3-0.7-0.3c-0.3,0-0.5,0.2-0.5,0.5l0,0c0,0.3,0.1,0.4,0.5,0.9c0.8,0.9,0.9,1.2,0.9,1.9l0,0
		c0,0.9-0.6,1.5-1.4,1.5C33.2,404,32.8,403.9,32.5,403.8z M35.7,399.3H35v-0.9h2.4v0.9h-0.7v4.7h-1V399.3L35.7,399.3z M38.3,398.4h1
		l1.1,5.6h-1l-0.2-1.1h-0.9l-0.2,1.1h-0.9L38.3,398.4z M39.1,402l-0.3-1.8l-0.3,1.8H39.1z M40.6,402.3v-4h1v4.1
		c0,0.5,0.2,0.7,0.4,0.7s0.4-0.2,0.4-0.7v-4.1h1v4c0,1.2-0.6,1.7-1.4,1.7C41.2,404,40.6,403.5,40.6,402.3z M44,398.4h1
		c1,0,1.7,0.5,1.7,1.8v0.1c0,0.7-0.3,1.2-0.7,1.5l0.8,2.3h-1l-0.6-2H45v2h-1V398.4L44,398.4z M45,401.1c0.4,0,0.7-0.2,0.7-0.9v-0.1
		c0-0.7-0.3-0.9-0.8-0.9l0,0L45,401.1L45,401.1L45,401.1z M47.9,398.4h1L50,404h-1l-0.2-1.1H48l-0.2,1.1h-0.9L47.9,398.4z M48.7,402
		l-0.3-1.8l-0.3,1.8H48.7z M50.3,398.4h0.9l1,2.8v-2.8h1v5.6h-0.9l-1-3v3h-1V398.4z M54.3,399.3h-0.7v-0.9H56v0.9h-0.7v4.7h-1V399.3
		L54.3,399.3z"/>
	<path class="st2" d="M40.3,779h0.8c0.9,0,1.8,0.4,1.8,1.4l0,0c0,0.7-0.4,1.1-0.8,1.3c0.5,0.2,0.9,0.5,0.9,1.2v0.1
		c0,1-0.8,1.6-1.9,1.6h-0.9L40.3,779L40.3,779z M41.3,781.4c0.4,0,0.7-0.2,0.7-0.7l0,0c0-0.5-0.3-0.7-0.7-0.7l0,0V781.4L41.3,781.4z
		 M41.3,783.7c0.4,0,0.8-0.3,0.8-0.7l0,0c0-0.5-0.3-0.7-0.8-0.7l0,0V783.7L41.3,783.7L41.3,783.7z M43.4,779h1v4.7h1v0.9h-2V779z
		 M45.9,779h1v5.6h-1V779z M47.3,784.4v-1c0.3,0.2,0.6,0.3,0.9,0.3c0.3,0,0.5-0.1,0.5-0.5l0,0c0-0.3-0.1-0.4-0.5-1
		c-0.7-0.8-0.9-1.1-0.9-1.8l0,0c0-0.9,0.6-1.5,1.4-1.5c0.4,0,0.6,0.1,0.9,0.2v1c-0.3-0.2-0.5-0.3-0.7-0.3c-0.3,0-0.5,0.2-0.5,0.5
		l0,0c0,0.3,0.1,0.4,0.5,0.9c0.8,0.9,0.9,1.2,0.9,1.9l0,0c0,0.9-0.6,1.5-1.4,1.5C47.9,784.7,47.6,784.6,47.3,784.4z M49.9,784.4v-1
		c0.3,0.2,0.6,0.3,0.9,0.3c0.3,0,0.5-0.1,0.5-0.5l0,0c0-0.3-0.1-0.4-0.5-1c-0.7-0.8-0.9-1.1-0.9-1.8l0,0c0-0.9,0.6-1.5,1.4-1.5
		c0.4,0,0.6,0.1,0.9,0.2v1c-0.3-0.2-0.5-0.3-0.7-0.3c-0.3,0-0.5,0.2-0.5,0.5l0,0c0,0.3,0.1,0.4,0.5,0.9c0.8,0.9,0.9,1.2,0.9,1.9l0,0
		c0,0.9-0.6,1.5-1.4,1.5C50.5,784.7,50.2,784.6,49.9,784.4z M53.9,783v-4h1v4.1c0,0.5,0.2,0.7,0.4,0.7s0.4-0.2,0.4-0.7V779h1v4
		c0,1.2-0.6,1.7-1.4,1.7S53.9,784.2,53.9,783z M57.2,779h1v4.7h1v0.9h-2V779z M59.9,780h-0.7v-1h2.4v0.9h-0.7v4.7h-1V780L59.9,780z
		 M61.9,779h1c1,0,1.7,0.5,1.7,1.8v0.1c0,0.7-0.3,1.2-0.7,1.5l0.8,2.3h-1l-0.6-2h-0.2v2h-1L61.9,779L61.9,779z M63,781.8
		c0.4,0,0.7-0.2,0.7-0.9v-0.1c0-0.7-0.3-0.9-0.8-0.9l0,0L63,781.8L63,781.8z M65.9,779h1l1.1,5.6h-1l-0.2-1.1H66l-0.2,1.1h-0.9
		L65.9,779z M66.7,782.6l-0.3-1.8l-0.3,1.8H66.7z M69.6,779h1v4.7h1v0.9h-2V779z M71.7,782v-0.3c0-1.8,0.6-2.7,1.5-2.7
		s1.5,0.9,1.5,2.7v0.3c0,1.8-0.6,2.7-1.5,2.7C72.3,784.7,71.7,783.8,71.7,782z M73.7,782v-0.3c0-1.4-0.2-1.8-0.5-1.8
		s-0.5,0.4-0.5,1.8v0.3c0,1.4,0.2,1.8,0.5,1.8S73.7,783.4,73.7,782z M75.1,783v-4h1v4.1c0,0.5,0.2,0.7,0.4,0.7s0.4-0.2,0.4-0.7V779
		h1v4c0,1.2-0.6,1.7-1.4,1.7S75.1,784.2,75.1,783z M78.5,779h0.9l1,2.8V779h1v5.6h-0.9l-1-3v3h-1V779z M81.8,781.9v-0.2
		c0-1.8,0.8-2.7,1.9-2.7c0.3,0,0.5,0.1,0.7,0.2v1c-0.2-0.1-0.5-0.2-0.7-0.2c-0.6,0-0.9,0.6-0.9,1.8v0.3c0,1.5,0.4,1.8,0.8,1.8
		c0,0,0,0,0.1,0v-1.4h-0.5v-0.9h1.4v3c-0.4,0.2-0.6,0.2-1,0.2C82.6,784.7,81.8,783.9,81.8,781.9z M85.1,779h2.1v0.9H86v1.4h1v0.9h-1
		v1.4h1.2v0.9H85L85.1,779L85.1,779z"/>
	<path class="st2" d="M70.7,390.1v-0.3c0-1.8,0.6-2.7,1.5-2.7s1.5,0.9,1.5,2.7v0.3c0,1.8-0.6,2.7-1.5,2.7S70.7,391.9,70.7,390.1z
		 M72.7,390.1v-0.3c0-1.4-0.2-1.8-0.5-1.8s-0.5,0.4-0.5,1.8v0.3c0,1.4,0.2,1.8,0.5,1.8S72.7,391.5,72.7,390.1z M74.2,387.1H75
		c1.1,0,1.8,0.6,1.8,1.9l0,0c0,1.3-0.7,1.9-1.7,1.9l0,0v1.8h-1L74.2,387.1L74.2,387.1z M75.2,390.1c0.4,0,0.7-0.3,0.7-1l0,0
		c0-0.7-0.3-1-0.7-1l0,0V390.1L75.2,390.1L75.2,390.1z M77.3,387.1h2.1v0.9h-1.2v1.4h1v0.9h-1v1.4h1.2v0.9h-2.2L77.3,387.1
		L77.3,387.1z M79.9,387.1h0.9l1,2.8v-2.8h1v5.6h-0.9l-1-3v3h-1V387.1z M85.1,388.1h-0.7v-0.9h2.4v0.9h-0.7v4.7h-1
		C85.1,392.8,85.1,388.1,85.1,388.1z M86.9,390.1v-0.3c0-1.8,0.6-2.7,1.5-2.7s1.5,0.9,1.5,2.7v0.3c0,1.8-0.6,2.7-1.5,2.7
		S86.9,391.9,86.9,390.1z M88.9,390.1v-0.3c0-1.4-0.2-1.8-0.5-1.8s-0.5,0.4-0.5,1.8v0.3c0,1.4,0.2,1.8,0.5,1.8
		S88.9,391.5,88.9,390.1z M74.1,394.1H75c1.2,0,2,0.9,2,2.7v0.2c0,1.8-0.7,2.7-2,2.7h-0.9V394.1z M75.1,398.8c0.5,0,0.9-0.4,0.9-1.8
		v-0.2c0-1.4-0.4-1.8-0.9-1.8l0,0V398.8L75.1,398.8z M77.4,394.1h2.1v0.9h-1.2v1.4h1v0.9h-1v1.4h1.2v0.9h-2.2L77.4,394.1L77.4,394.1
		z M79.9,397v-0.2c0-2,0.7-2.7,1.6-2.7c0.3,0,0.4,0,0.6,0.1v1c-0.2-0.1-0.4-0.2-0.5-0.2c-0.4,0-0.7,0.4-0.7,1.8v0.2
		c0,1.5,0.3,1.8,0.8,1.8c0.2,0,0.3-0.1,0.5-0.2v1c-0.2,0.1-0.4,0.2-0.7,0.2C80.5,399.8,79.9,399,79.9,397z M82.7,394.1h1v2.3
		l0.8-2.3h1.1l-0.9,2.4l1,3.2h-1.1l-0.6-2.1l-0.2,0.6v1.5h-1C82.7,399.7,82.7,394.1,82.7,394.1z M72.6,401.1h0.8
		c0.9,0,1.8,0.4,1.8,1.4l0,0c0,0.7-0.4,1.1-0.8,1.3c0.5,0.2,0.9,0.5,0.9,1.2v0.1c0,1-0.8,1.6-1.9,1.6h-0.9L72.6,401.1L72.6,401.1z
		 M73.6,403.5c0.4,0,0.7-0.2,0.7-0.7l0,0c0-0.5-0.3-0.7-0.7-0.7l0,0V403.5L73.6,403.5z M73.6,405.8c0.4,0,0.8-0.3,0.8-0.7l0,0
		c0-0.5-0.3-0.7-0.8-0.7l0,0V405.8L73.6,405.8L73.6,405.8z M75.7,401.1h2.1v0.9h-1.2v1.4h1v0.9h-1v1.4h1.2v0.9h-2.2L75.7,401.1
		L75.7,401.1z M78.4,401.1h1v4.7h1v0.9h-2V401.1z M80.5,404.1v-0.3c0-1.8,0.6-2.7,1.5-2.7s1.5,0.9,1.5,2.7v0.3
		c0,1.8-0.6,2.7-1.5,2.7S80.5,405.9,80.5,404.1z M82.5,404.1v-0.3c0-1.4-0.2-1.8-0.5-1.8s-0.5,0.4-0.5,1.8v0.3
		c0,1.4,0.2,1.8,0.5,1.8S82.5,405.5,82.5,404.1z M83.6,401.1h1l0.4,3.4l0.5-3.4h0.9l0.5,3.4l0.4-3.4h1l-0.8,5.6h-1l-0.5-3.3
		l-0.5,3.3h-1L83.6,401.1z"/>
	<path class="st2" d="M54.2,120v-0.3c0-1.8,0.6-2.7,1.5-2.7s1.5,0.9,1.5,2.7v0.3c0,1.8-0.6,2.7-1.5,2.7
		C54.8,122.8,54.2,121.9,54.2,120z M56.2,120v-0.3c0-1.4-0.2-1.8-0.5-1.8s-0.5,0.4-0.5,1.8v0.3c0,1.4,0.2,1.8,0.5,1.8
		C56,121.9,56.2,121.5,56.2,120z M57.7,117.1h0.9c1.1,0,1.8,0.6,1.8,1.9l0,0c0,1.3-0.7,1.9-1.7,1.9l0,0v1.8h-1V117.1z M58.7,120
		c0.4,0,0.7-0.3,0.7-1l0,0c0-0.7-0.3-1-0.7-1l0,0V120L58.7,120L58.7,120z M60.8,117.1h2.1v0.9h-1.2v1.4h1v0.9h-1v1.4h1.2v0.9h-2.2
		C60.8,122.7,60.8,117.1,60.8,117.1z M63.4,117.1h0.9l1,2.8v-2.8h1v5.6h-0.9l-1-3v3h-1V117.1z M68.6,118h-0.7v-0.9h2.4v0.9h-0.7v4.7
		h-1C68.6,122.7,68.6,118,68.6,118z M70.4,120v-0.3c0-1.8,0.6-2.7,1.5-2.7s1.5,0.9,1.5,2.7v0.3c0,1.8-0.6,2.7-1.5,2.7
		S70.4,121.9,70.4,120z M72.4,120v-0.3c0-1.4-0.2-1.8-0.5-1.8s-0.5,0.4-0.5,1.8v0.3c0,1.4,0.2,1.8,0.5,1.8S72.4,121.5,72.4,120z
		 M57.5,125.1h0.9c1.2,0,2,0.9,2,2.7v0.2c0,1.8-0.7,2.7-2,2.7h-0.9V125.1z M58.6,129.8c0.5,0,0.9-0.4,0.9-1.8v-0.2
		c0-1.4-0.4-1.8-0.9-1.8l0,0V129.8L58.6,129.8z M60.9,125.1H63v0.9h-1.2v1.4h1v0.9h-1v1.4H63v0.9h-2.2v-5.5H60.9z M63.4,128v-0.2
		c0-2,0.7-2.7,1.6-2.7c0.3,0,0.4,0,0.6,0.1v1c-0.2-0.1-0.4-0.2-0.5-0.2c-0.4,0-0.7,0.4-0.7,1.8v0.2c0,1.5,0.3,1.8,0.8,1.8
		c0.2,0,0.3-0.1,0.5-0.2v1c-0.2,0.1-0.4,0.2-0.7,0.2C64,130.7,63.4,129.9,63.4,128z M66.2,125.1h1v2.3l0.8-2.3h1l-0.9,2.4l1,3.2H68
		l-0.6-2.1l-0.2,0.6v1.5h-1C66.2,130.7,66.2,125.1,66.2,125.1z M56.1,133.1h0.8c0.9,0,1.8,0.4,1.8,1.4l0,0c0,0.7-0.4,1.1-0.8,1.3
		c0.5,0.2,0.9,0.5,0.9,1.2v0.1c0,1-0.8,1.6-1.9,1.6H56L56.1,133.1L56.1,133.1z M57.1,135.5c0.4,0,0.7-0.2,0.7-0.7l0,0
		c0-0.5-0.3-0.7-0.7-0.7l0,0V135.5L57.1,135.5z M57.1,137.8c0.4,0,0.8-0.3,0.8-0.7l0,0c0-0.5-0.3-0.7-0.8-0.7l0,0V137.8L57.1,137.8
		L57.1,137.8z M59.2,133.1h2.1v0.9h-1.2v1.4h1v0.9h-1v1.4h1.2v0.9h-2.2v-5.5H59.2z M61.9,133.1h1v4.7h1v0.9h-2V133.1z M64,136v-0.3
		c0-1.8,0.6-2.7,1.5-2.7s1.5,0.9,1.5,2.7v0.3c0,1.8-0.6,2.7-1.5,2.7S64,137.9,64,136z M66,136v-0.3c0-1.4-0.2-1.8-0.5-1.8
		s-0.5,0.4-0.5,1.8v0.3c0,1.4,0.2,1.8,0.5,1.8S66,137.5,66,136z M67.1,133.1h1l0.4,3.4l0.5-3.4h0.9l0.5,3.4l0.4-3.4h1l-0.8,5.6h-1
		l-0.5-3.3l-0.5,3.3h-1L67.1,133.1z"/>
	<path class="st2" d="M15.8,657.2v-1c0.2,0.1,0.4,0.2,0.6,0.2c0.5,0,0.7-0.4,0.7-1v-0.1c0-0.6-0.2-0.8-0.5-0.8c-0.1,0-0.2,0-0.4,0.1
		l-0.5-0.3l0.2-2.7h2v0.9h-1.3l-0.1,1.1c0.1,0,0.2,0,0.4,0c0.6,0,1.2,0.4,1.2,1.7v0.1c0,1.2-0.6,1.9-1.6,1.9
		C16.2,657.4,15.9,657.3,15.8,657.2z M19.7,654.7v-0.3c0-1.8,0.6-2.7,1.5-2.7s1.5,0.9,1.5,2.7v0.3c0,1.8-0.6,2.7-1.5,2.7
		S19.7,656.5,19.7,654.7z M21.6,654.7v-0.3c0-1.4-0.2-1.8-0.5-1.8s-0.5,0.4-0.5,1.8v0.3c0,1.4,0.2,1.8,0.5,1.8
		S21.6,656.1,21.6,654.7z M23,653.7c0.6-0.1,0.7-0.6,0.7-0.9h-0.5v-1.1h1.1v0.9c0,0.8-0.4,1.4-1.2,1.5L23,653.7z M24.7,654.6v-0.2
		c0-2,0.7-2.7,1.6-2.7c0.3,0,0.4,0,0.6,0.1v1c-0.2-0.1-0.4-0.2-0.5-0.2c-0.4,0-0.7,0.4-0.7,1.8v0.2c0,1.5,0.3,1.8,0.8,1.8
		c0.2,0,0.3-0.1,0.5-0.2v1c-0.2,0.1-0.4,0.2-0.7,0.2C25.3,657.3,24.7,656.6,24.7,654.6z M27.4,651.7h1v4.7h1v0.9h-2V651.7z
		 M29.5,654.7v-0.3c0-1.8,0.6-2.7,1.5-2.7s1.5,0.9,1.5,2.7v0.3c0,1.8-0.6,2.7-1.5,2.7S29.5,656.5,29.5,654.7z M31.5,654.7v-0.3
		c0-1.4-0.2-1.8-0.5-1.8s-0.5,0.4-0.5,1.8v0.3c0,1.4,0.2,1.8,0.5,1.8S31.5,656.1,31.5,654.7z M32.9,654.6v-0.2c0-2,0.7-2.7,1.6-2.7
		c0.3,0,0.4,0,0.6,0.1v1c-0.2-0.1-0.4-0.2-0.5-0.2c-0.4,0-0.7,0.4-0.7,1.8v0.2c0,1.5,0.3,1.8,0.8,1.8c0.2,0,0.3-0.1,0.5-0.2v1
		c-0.2,0.1-0.4,0.2-0.7,0.2C33.6,657.3,32.9,656.6,32.9,654.6z M35.7,651.7h1v2.3l0.8-2.3h1.1l-0.9,2.4l1,3.2h-1.1l-0.6-2.1
		l-0.2,0.6v1.5h-1L35.7,651.7L35.7,651.7z M13.4,665.1v-1c0.3,0.2,0.6,0.3,0.9,0.3c0.3,0,0.5-0.1,0.5-0.5l0,0c0-0.3-0.1-0.4-0.5-1
		c-0.7-0.8-0.9-1.1-0.9-1.8l0,0c0-0.9,0.6-1.5,1.4-1.5c0.4,0,0.6,0.1,0.9,0.2v1c-0.3-0.2-0.5-0.3-0.7-0.3c-0.3,0-0.5,0.2-0.5,0.5
		l0,0c0,0.3,0.1,0.4,0.5,0.9c0.8,0.9,0.9,1.2,0.9,1.9l0,0c0,0.9-0.6,1.5-1.4,1.5C14,665.3,13.6,665.3,13.4,665.1z M15.9,662.7v-0.3
		c0-1.8,0.6-2.7,1.5-2.7s1.5,0.9,1.5,2.7v0.3c0,1.8-0.6,2.7-1.5,2.7S15.9,664.5,15.9,662.7z M17.9,662.7v-0.3c0-1.4-0.2-1.8-0.5-1.8
		s-0.5,0.4-0.5,1.8v0.3c0,1.4,0.2,1.8,0.5,1.8C17.7,664.5,17.9,664.1,17.9,662.7z M19.4,659.7h1l0.7,2l0.7-2h1v5.6h-0.9v-3.4
		l-0.7,2.1l0,0l-0.7-2.1v3.4h-0.9v-5.6H19.4z M23.3,659.7h2.1v0.9h-1.2v1.4h1v0.9h-1v1.4h1.2v0.9h-2.2v-5.5H23.3z M25.7,659.7h1
		l0.4,3.4l0.5-3.4h0.9l0.5,3.4l0.4-3.4h1l-0.8,5.6h-1L28,662l-0.5,3.3h-1L25.7,659.7z M30.7,659.7h1v2.3h0.8v-2.3h1v5.6h-1V663h-0.8
		v2.4h-1V659.7z M34,659.7h2.1v0.9H35v1.4h1v0.9h-1v1.4h1.2v0.9H34V659.7z M36.7,659.7h1c1,0,1.7,0.5,1.7,1.8v0.1
		c0,0.7-0.3,1.2-0.7,1.5l0.8,2.3h-1l-0.6-2h-0.2v2h-1V659.7L36.7,659.7z M37.7,662.5c0.4,0,0.7-0.2,0.7-0.9v-0.1
		c0-0.7-0.3-0.9-0.8-0.9l0,0L37.7,662.5L37.7,662.5z M39.9,659.7H42v0.9h-1.2v1.4h1v0.9h-1v1.4H42v0.9h-2.2
		C39.9,665.3,39.9,659.7,39.9,659.7z M23.3,667.7h0.8c0.9,0,1.8,0.4,1.8,1.4l0,0c0,0.7-0.4,1.1-0.8,1.3c0.5,0.2,0.9,0.5,0.9,1.2v0.1
		c0,1-0.8,1.6-1.9,1.6h-0.9C23.3,673.3,23.3,667.7,23.3,667.7z M24.2,670.1c0.4,0,0.7-0.2,0.7-0.7l0,0c0-0.5-0.3-0.7-0.7-0.7l0,0
		V670.1L24.2,670.1z M24.3,672.4c0.4,0,0.8-0.3,0.8-0.7l0,0c0-0.5-0.3-0.7-0.8-0.7l0,0V672.4L24.3,672.4L24.3,672.4z M27.2,667.7h1
		l1.1,5.6h-1l-0.2-1.1h-0.9l-0.2,1.1h-0.9L27.2,667.7z M28,671.3l-0.3-1.8l-0.3,1.8H28z M29.6,667.7h1c1,0,1.7,0.5,1.7,1.8v0.1
		c0,0.7-0.3,1.2-0.7,1.5l0.8,2.3h-1l-0.6-2h-0.2v2h-1L29.6,667.7L29.6,667.7z M30.6,670.5c0.4,0,0.7-0.2,0.7-0.9v-0.1
		c0-0.7-0.3-0.9-0.8-0.9l0,0L30.6,670.5L30.6,670.5z"/>
	<path class="st2" d="M42.1,172.7v-1c0.3,0.2,0.6,0.3,0.9,0.3c0.3,0,0.5-0.1,0.5-0.5l0,0c0-0.3-0.1-0.4-0.5-1
		c-0.7-0.8-0.9-1.1-0.9-1.8l0,0c0-0.9,0.6-1.5,1.4-1.5c0.4,0,0.6,0.1,0.9,0.2v1c-0.3-0.2-0.5-0.3-0.7-0.3c-0.3,0-0.5,0.2-0.5,0.5
		l0,0c0,0.3,0.1,0.4,0.5,0.9c0.8,0.9,0.9,1.2,0.9,1.9l0,0c0,0.9-0.6,1.5-1.4,1.5C42.7,172.9,42.3,172.9,42.1,172.7z M45.2,168.2
		h-0.7v-0.9h2.4v0.9h-0.7v4.7h-1V168.2L45.2,168.2z M47.8,167.3h1l1.1,5.6h-1l-0.2-1.1h-0.9l-0.2,1.1h-0.9L47.8,167.3z M48.6,170.9
		l-0.3-1.8l-0.3,1.8H48.6z M50.2,167.3h1c1,0,1.7,0.5,1.7,1.8v0.1c0,0.7-0.3,1.2-0.7,1.5L53,173h-1l-0.6-2h-0.2v2h-1V167.3
		L50.2,167.3z M51.2,170.1c0.4,0,0.7-0.2,0.7-0.9v-0.1c0-0.7-0.3-0.9-0.8-0.9l0,0L51.2,170.1L51.2,170.1z M53.4,167.3h0.9
		c1.2,0,2,0.9,2,2.7v0.2c0,1.8-0.7,2.7-2,2.7h-0.9V167.3z M54.4,172c0.5,0,0.9-0.4,0.9-1.8V170c0-1.4-0.4-1.8-0.9-1.8l0,0V172
		L54.4,172L54.4,172z M56.7,171.3v-4h1v4.1c0,0.5,0.2,0.7,0.4,0.7s0.4-0.2,0.4-0.7v-4.1h1v4c0,1.2-0.6,1.7-1.4,1.7
		S56.7,172.5,56.7,171.3z M59.9,172.7v-1c0.3,0.2,0.6,0.3,0.9,0.3c0.3,0,0.5-0.1,0.5-0.5l0,0c0-0.3-0.1-0.4-0.5-1
		c-0.7-0.8-0.9-1.1-0.9-1.8l0,0c0-0.9,0.6-1.5,1.4-1.5c0.4,0,0.6,0.1,0.9,0.2v1c-0.3-0.2-0.5-0.3-0.7-0.3c-0.3,0-0.5,0.2-0.5,0.5
		l0,0c0,0.3,0.1,0.4,0.5,0.9c0.8,0.9,0.9,1.2,0.9,1.9l0,0c0,0.9-0.6,1.5-1.4,1.5C60.5,172.9,60.2,172.9,59.9,172.7z M63.1,168.2
		h-0.7v-0.9h2.4v0.9H64v4.7h-1L63.1,168.2L63.1,168.2z M66.9,168.2h-0.7v-0.9h2.4v0.9h-0.7v4.7h-1C66.9,172.9,66.9,168.2,66.9,168.2
		z M69,167.3h1v2.3h0.8v-2.3h1v5.6h-1v-2.4H70v2.4h-1V167.3z M72.4,167.3h2.1v0.9h-1.2v1.4h1v0.9h-1v1.4h1.2v0.9h-2.2L72.4,167.3
		L72.4,167.3z M75.8,167.3h1l1.1,5.6h-1l-0.2-1.1h-0.9l-0.2,1.1h-0.9L75.8,167.3z M76.6,170.9l-0.3-1.8l-0.3,1.8H76.6z M78.5,168.2
		h-0.7v-0.9h2.4v0.9h-0.7v4.7h-1L78.5,168.2L78.5,168.2z M80.5,167.3h2.1v0.9h-1.2v1.4h1v0.9h-1v1.4h1.2v0.9h-2.2L80.5,167.3
		L80.5,167.3z M83.2,167.3h1c1,0,1.7,0.5,1.7,1.8v0.1c0,0.7-0.3,1.2-0.7,1.5L86,173h-1l-0.6-2h-0.2v2h-1
		C83.2,173,83.2,167.3,83.2,167.3z M84.2,170.1c0.4,0,0.7-0.2,0.7-0.9v-0.1c0-0.7-0.3-0.9-0.8-0.9l0,0L84.2,170.1L84.2,170.1z
		 M51.5,178.6c0-1.6,0.5-3,1.8-3.4v0.7c-0.7,0.4-0.9,1.4-0.9,2.7s0.2,2.4,0.9,2.7v0.7C52,181.6,51.5,180.2,51.5,178.6z M53.9,175.3
		h0.8c0.9,0,1.8,0.4,1.8,1.4l0,0c0,0.7-0.4,1.1-0.8,1.3c0.5,0.2,0.9,0.5,0.9,1.2v0.1c0,1-0.8,1.6-1.9,1.6h-0.9L53.9,175.3
		L53.9,175.3z M54.9,177.7c0.4,0,0.7-0.2,0.7-0.7l0,0c0-0.5-0.3-0.7-0.7-0.7l0,0V177.7L54.9,177.7z M54.9,180c0.4,0,0.8-0.3,0.8-0.7
		l0,0c0-0.5-0.3-0.7-0.8-0.7l0,0V180L54.9,180L54.9,180z M57.8,175.3h1l1.1,5.6h-1l-0.2-1.1h-0.9l-0.2,1.1h-0.9L57.8,175.3z
		 M58.6,178.9l-0.3-1.8l-0.3,1.8H58.6z M60.2,175.3h1v4.7h1v0.9h-2V175.3z M62.3,178.2V178c0-2,0.7-2.7,1.6-2.7c0.3,0,0.4,0,0.6,0.1
		v1c-0.2-0.1-0.4-0.2-0.5-0.2c-0.4,0-0.7,0.4-0.7,1.8v0.2c0,1.5,0.3,1.8,0.8,1.8c0.2,0,0.3-0.1,0.5-0.2v1c-0.2,0.1-0.4,0.2-0.7,0.2
		C62.9,180.9,62.3,180.2,62.3,178.2z M64.8,178.3V178c0-1.8,0.6-2.7,1.5-2.7s1.5,0.9,1.5,2.7v0.3c0,1.8-0.6,2.7-1.5,2.7
		S64.8,180.1,64.8,178.3z M66.7,178.3V178c0-1.4-0.2-1.8-0.5-1.8s-0.5,0.4-0.5,1.8v0.3c0,1.4,0.2,1.8,0.5,1.8S66.7,179.7,66.7,178.3
		z M68.2,175.3h0.9l1,2.8v-2.8h1v5.6h-0.9l-1-3v3h-1C68.2,180.9,68.2,175.3,68.2,175.3z M72.4,178.7l-1-3.4h1l0.5,2.1l0.5-2.1h1
		l-1,3.4v2.2h-1V178.7L72.4,178.7z M74.6,181.3c0.7-0.4,0.9-1.4,0.9-2.7s-0.2-2.3-0.9-2.7v-0.7c1.3,0.4,1.8,1.8,1.8,3.4
		c0,1.6-0.5,3-1.8,3.4V181.3z"/>
	<path class="st2" d="M50.4,283.4h-0.7v-0.9H52v0.9h-0.7v4.7h-1L50.4,283.4L50.4,283.4z M52.4,282.4h1c1,0,1.7,0.5,1.7,1.8v0.1
		c0,0.7-0.3,1.2-0.7,1.5l0.8,2.3h-1l-0.6-2h-0.2v2h-1V282.4L52.4,282.4z M53.5,285.2c0.4,0,0.7-0.2,0.7-0.9v-0.1
		c0-0.7-0.3-0.9-0.8-0.9l0,0L53.5,285.2L53.5,285.2z M56.4,282.4h1l1.1,5.6h-1l-0.2-1.1h-0.9l-0.2,1.1h-0.9L56.4,282.4z M57.2,286
		l-0.3-1.8l-0.3,1.8H57.2z M58.8,282.4h0.9c1.2,0,2,0.9,2,2.7v0.2c0,1.8-0.7,2.7-2,2.7h-0.9V282.4z M59.8,287.1
		c0.5,0,0.9-0.4,0.9-1.8v-0.2c0-1.4-0.4-1.8-0.9-1.8l0,0V287.1L59.8,287.1z M62.2,282.4h2.1v0.9h-1.2v1.4h1v0.9h-1v1.4h1.2v0.9h-2.2
		L62.2,282.4L62.2,282.4z M64.5,282.4h1l0.4,3.4l0.5-3.4h0.9l0.5,3.4l0.4-3.4h1l-0.8,5.6h-1l-0.5-3.3l-0.5,3.3h-1L64.5,282.4z
		 M69.5,282.4h1v5.6h-1V282.4z M71.1,282.4H72l1,2.8v-2.8h1v5.6h-0.9l-1-3v3h-1V282.4z M74.5,282.4h0.9c1.2,0,2,0.9,2,2.7v0.2
		c0,1.8-0.7,2.7-2,2.7h-0.9V282.4z M75.6,287.1c0.5,0,0.9-0.4,0.9-1.8v-0.2c0-1.4-0.4-1.8-0.9-1.8l0,0V287.1L75.6,287.1z
		 M77.7,287.8v-1c0.3,0.2,0.6,0.3,0.9,0.3s0.5-0.1,0.5-0.5l0,0c0-0.3-0.1-0.4-0.5-1c-0.7-0.8-0.9-1.1-0.9-1.8l0,0
		c0-0.9,0.6-1.5,1.4-1.5c0.4,0,0.6,0.1,0.9,0.2v1c-0.3-0.2-0.5-0.3-0.7-0.3c-0.3,0-0.5,0.2-0.5,0.5l0,0c0,0.3,0.1,0.4,0.5,0.9
		c0.8,0.9,0.9,1.2,0.9,1.9l0,0c0,0.9-0.6,1.5-1.4,1.5C78.3,288.1,78,288,77.7,287.8z M46.2,290.4h-0.7v-0.9h2.4v0.9h-0.7v4.7h-1
		V290.4L46.2,290.4z M48.8,289.4h1l1.1,5.6h-1l-0.2-1.1h-0.9l-0.2,1.1h-0.9L48.8,289.4z M49.6,293l-0.3-1.8L49,293H49.6z
		 M51.7,292.2l-0.9-2.7h1l0.4,1.6l0.4-1.6h1l-0.9,2.7l0.9,2.9h-1l-0.5-1.7l-0.5,1.7h-1L51.7,292.2z M55.3,293.6L55.3,293.6
		c0-0.7,0.3-1.2,0.9-1.7c-0.3-0.5-0.5-0.9-0.5-1.3v-0.1c0-0.7,0.5-1.2,1.2-1.2s1.1,0.5,1.1,1.2v0.1c0,0.6-0.3,1.1-0.8,1.5l0.5,1
		c0-0.2,0.1-0.4,0.1-0.8l0.8,0.1c-0.1,0.6-0.2,1.1-0.4,1.4l0.5,0.8L58,295l-0.3-0.5c-0.3,0.3-0.6,0.5-1,0.5
		C55.9,295.1,55.3,294.5,55.3,293.6z M57.2,294l-0.7-1.4c-0.2,0.3-0.3,0.6-0.3,0.9v0.1c0,0.4,0.2,0.7,0.5,0.7
		C56.9,294.3,57.1,294.2,57.2,294z M56.8,291.5c0.2-0.2,0.3-0.5,0.3-0.8v-0.1c0-0.3-0.1-0.4-0.3-0.4s-0.3,0.2-0.3,0.4v0.1
		C56.5,290.9,56.6,291.1,56.8,291.5z M60.2,289.4h0.9c1.2,0,2,0.9,2,2.7v0.2c0,1.8-0.7,2.7-2,2.7h-0.9V289.4z M61.2,294.1
		c0.5,0,0.9-0.4,0.9-1.8v-0.2c0-1.4-0.4-1.8-0.9-1.8l0,0V294.1L61.2,294.1z M63.5,293.4v-4h1v4.1c0,0.5,0.2,0.7,0.4,0.7
		s0.4-0.2,0.4-0.7v-4.1h1v4c0,1.2-0.6,1.7-1.4,1.7S63.5,294.6,63.5,293.4z M67.4,290.4h-0.7v-0.9h2.4v0.9h-0.7v4.7h-1L67.4,290.4
		L67.4,290.4z M70.1,292.8l-1-3.4h1l0.5,2.1l0.5-2.1h1l-1,3.4v2.2h-1V292.8L70.1,292.8z M73.7,289.4h2v0.9h-1.1v1.4h0.9v0.9h-0.9
		v2.3h-1L73.7,289.4L73.7,289.4z M76.2,289.4h1c1,0,1.7,0.5,1.7,1.8v0.1c0,0.7-0.3,1.2-0.7,1.5L79,295h-1l-0.6-2h-0.2v2h-1
		C76.2,295,76.2,289.4,76.2,289.4z M77.2,292.2c0.4,0,0.7-0.2,0.7-0.9v-0.1c0-0.7-0.3-0.9-0.8-0.9l0,0L77.2,292.2L77.2,292.2z
		 M79.4,289.4h2.1v0.9h-1.2v1.4h1v0.9h-1v1.4h1.2v0.9h-2.2L79.4,289.4L79.4,289.4z M82,289.4h2.1v0.9H83v1.4h1v0.9h-1v1.4h1.2v0.9
		H82V289.4z"/>
</g>
<g id="STAR_DECK_07_TOP">
	<g id="gDeck07Locations">
		<path width="126.9" height="284.3" id="_x30_7Aft" class="st3" d="M0.7,842.4c1,9.2,24.5,13.5,63.4,13.5c32.8,0,62.5-4.3,63.4-13.8l-0.1-270.5H0.6
			C0.6,711.9,0.7,835.7,0.7,842.4z"/>
		<path width="126.9" height="299.2" id="_x30_7MidShip" class="st3" d="M0.6,272.4c0,81.2,0,194.8,0.1,299.2h126.8l-0.1-299.2L0.6,272.4L0.6,272.4z"/>
		<path width="126.8008" height="271.9007" id="_x30_7Forward" class="st3" d="M127.4,160.9c0.2-70-39.3-159.3-63.1-160.4C39.4,0.2,1.4,90.6,0.6,160.9
			c0,0,0,44.8,0,111.5h126.8V160.9z"/>
	</g>
	<path class="st4" d="M127.5,842.2c-0.8,9.5-30.6,13.8-63.4,13.8c-38.9,0-62.4-4.3-63.4-13.5c-0.2-15.8-0.1-681.7-0.1-681.7
		C1.5,90.4,39.3,0.2,64.2,0.5c23.8,1.1,63.4,90.4,63.1,160.4L127.5,842.2z"/>
</g>
</svg>
