<?xml version="1.0" encoding="utf-8"?>
<!-- Generator: Adobe Illustrator 25.4.1, SVG Export Plug-In . SVG Version: 6.00 Build 0)  -->
<svg version="1.1" id="STAR_DECK_13" xmlns="http://www.w3.org/2000/svg" xmlns:xlink="http://www.w3.org/1999/xlink" x="0px"
	 y="0px" width="131.1px" height="744.1px" viewBox="0 0 131.1 744.1" style="enable-background:new 0 0 131.1 744.1;"
	 xml:space="preserve">
<style type="text/css">
	.st0{fill:#FFFFFF;}
	.st1{fill:none;stroke:#D5DCE0;stroke-width:0.5;}
	.st2{fill:none;}
	.st3{fill:#CCDDE2;}
	.st4{fill:#6E8496;}
	.st5{fill:none;stroke:#076FA0;stroke-miterlimit:10;}
</style>
<g id="STAR_DECK_13_BOTTOM">
	<path class="st0" d="M5.3,617.8V562l-4.8-11.8V213.1l4.2-10.7v-79.6l5.1-6.4V12.6c0,0-0.9-2.9,5.5-4.5C21.7,6.6,39.5,2,57.2,1.9
		l2.2-1.3h12.2l1.6,1.3c0,0,27.4,0.6,41.5,6c6.5,2.5,6.5,2.2,6.5,9.3v99.3l4.3,6.3c0,0,0,19.1,0,79.6l4.8,10.7v337.1l-4.4,11.8
		l0,55.7v97.9c0,0,4.3,2.8,4.6,7s-1.8,8.9-8.3,9.4c-13.6,1-13.6-9.6-17.7-9.4c-5.5,0.3-17.1,20.9-39.3,20.9
		c-22.2,0-34.7-20.8-39-20.9c-6-0.2-6.3,8.9-15.6,8.9c-9.3,0-10-8-10-8.5c0-0.5-0.6-4.1,4.7-7.5C5.3,715.4,5.3,617.8,5.3,617.8
		L5.3,617.8z"/>
	<path class="st1" d="M100.1,163.2h4.8 M100.1,164.5h4.8 M100.1,165.8h4.8 M100.1,167.2h4.8 M100.1,168.5h4.8 M100.1,169.8h4.8
		 M100.1,171.2h4.8 M100.1,172.5h4.8 M100.1,173.8h4.8"/>
	<path class="st1" d="M108.6,104.9h5.7 M108.6,106.2h5.7 M108.6,107.6h5.7 M108.6,108.9h5.7 M108.6,110.2h5.7 M108.6,111.6h5.7
		 M108.6,112.9h5.7"/>
	<path class="st1" d="M17,104.9h5.7 M17,106.2h5.7 M17,107.6h5.7 M17,108.9h5.7 M17,110.2h5.7 M17,111.6h5.7 M17,112.9h5.7"/>
	<path class="st1" d="M26.7,163.2h5 M26.7,164.5h5 M26.7,165.8h5 M26.7,167.2h5 M26.7,168.5h5 M26.7,169.8h5 M26.7,171.2h5
		 M26.7,172.5h5 M26.7,173.8h5"/>
	<line class="st1" x1="45.6" y1="130.7" x2="55.6" y2="138.3"/>
	<line class="st1" x1="45.9" y1="138.7" x2="55.9" y2="130.9"/>
	<line class="st1" x1="55.6" y1="130.5" x2="65.4" y2="138.6"/>
	<line class="st1" x1="55.6" y1="138.7" x2="65.8" y2="130.7"/>
	<line class="st1" x1="65.6" y1="130.5" x2="75.4" y2="138.6"/>
	<line class="st1" x1="65.6" y1="138.7" x2="75.8" y2="130.7"/>
	<line class="st1" x1="75.8" y1="130.7" x2="85.9" y2="138.6"/>
	<line class="st1" x1="75.3" y1="138.6" x2="85.5" y2="130.9"/>
	<path class="st1" d="M18.2,231.4h3.2 M18,232.7h3.4 M17.8,234h3.6 M18.1,235.3h3.6 M18,236.6h3.8"/>
	<path class="st1" d="M109.2,231.4h3.2 M109.2,232.7h3.4 M109.2,234h3.6 M108.8,235.3h3.6 M108.7,236.6h3.8"/>
	<path class="st1" d="M18.2,222.4h3.2 M18,223.8h3.4 M17.8,225.1h3.6 M18.1,226.4h3.6 M18,227.7h3.8"/>
	<path class="st1" d="M109.2,222.4h3.2 M109.2,223.8h3.4 M109.2,225.1h3.6 M108.8,226.4h3.6 M108.7,227.7h3.8"/>
	<path class="st1" d="M18.2,213.4h3.2 M18,214.7h3.4 M17.8,216h3.6 M18.1,217.3h3.6 M18,218.6h3.8"/>
	<path class="st1" d="M109.2,213.2h3.2 M109.2,214.5h3.4 M109.2,215.8h3.6 M108.8,217.1h3.6 M108.7,218.4h3.8"/>
	<path class="st1" d="M18.2,204.6h3.2 M18,205.9h3.4 M17.8,207.2h3.6 M18.1,208.5h3.6 M18,209.8h3.8"/>
	<path class="st1" d="M109.2,204.6h3.2 M109.2,205.9h3.4 M109.2,207.2h3.6 M108.8,208.5h3.6 M108.7,209.8h3.8"/>
	<path class="st1" d="M18.2,194.6h3.2 M18,195.9h3.4 M17.8,197.2h3.6 M18.1,198.5h3.6 M18,199.8h3.8"/>
	<path class="st1" d="M109.2,194.6h3.2 M109.2,195.9h3.4 M109.2,197.2h3.6 M108.8,198.5h3.6 M108.7,199.8h3.8"/>
	<line class="st1" x1="48.6" y1="164.5" x2="57.1" y2="164.5"/>
	<line class="st1" x1="48.9" y1="159" x2="57.1" y2="159"/>
	<line class="st1" x1="48.9" y1="161.7" x2="57.1" y2="161.7"/>
	<line class="st1" x1="48.6" y1="156.2" x2="57.1" y2="156.2"/>
	<line class="st1" x1="48.8" y1="153.6" x2="57.1" y2="153.6"/>
	<path class="st1" d="M19.6,47.3l3.7,2.9 M19,48l3.7,2.9 M18.3,48.8l3.7,2.9 M17.7,49.6l3.7,2.9 M16.9,50.3l3.9,3.1"/>
	<path class="st1" d="M19,32.3l2,3.6 M18.1,32.7l2,3.6 M17.1,33l2.1,3.9"/>
	<path class="st1" d="M109.8,35.9l2-3.6 M110.7,36.4l2-3.6 M111.6,36.9l2.1-3.9"/>
	<path class="st1" d="M107.9,50l3.4-2.7 M108.5,50.8l3.4-2.7 M109.1,51.6l3.4-2.7 M109.8,52.4l3.4-2.7 M110.4,53.2l3.4-2.7"/>
	<path class="st2" d="M70.9,63.6c-0.4-0.2-0.8-0.4-1.7-0.4s-1.3,0.2-1.7,0.4c-0.5,0.2-1,0.4-1.9,0.4s-1.4-0.2-1.9-0.4
		c-0.4-0.2-0.8-0.4-1.7-0.4s-1.3,0.2-1.7,0.4c-0.5,0.2-1,0.4-1.9,0.4c-0.3,0-0.6,0-0.8-0.1v0.2l0.8,0.8c0.8,0,1.2-0.2,1.7-0.4
		c0.5-0.2,1-0.4,1.9-0.4s1.4,0.2,1.9,0.4c0.4,0.2,0.8,0.4,1.7,0.4s1.3-0.2,1.7-0.4c0.5-0.2,1-0.4,1.9-0.4s1.4,0.2,1.9,0.4
		c0.4,0.2,0.8,0.3,1.5,0.3l1-0.9v-0.1c-0.2,0-0.5,0.1-0.8,0.1C71.9,64,71.4,63.8,70.9,63.6z"/>
	<path class="st2" d="M70.9,62.1c-0.4-0.2-0.8-0.4-1.7-0.4s-1.3,0.2-1.7,0.4c-0.5,0.2-1,0.4-1.9,0.4s-1.4-0.2-1.9-0.4
		c-0.4-0.2-0.8-0.4-1.7-0.4s-1.3,0.2-1.7,0.4c-0.5,0.2-1,0.4-1.9,0.4c-0.3,0-0.6,0-0.8-0.1v0.9c0.2,0,0.5,0.1,0.8,0.1
		c0.8,0,1.3-0.2,1.7-0.4c0.5-0.2,1-0.4,1.9-0.4s1.4,0.2,1.9,0.4c0.4,0.2,0.8,0.4,1.7,0.4s1.3-0.2,1.7-0.4c0.5-0.2,1-0.4,1.9-0.4
		s1.4,0.2,1.9,0.4c0.4,0.2,0.8,0.4,1.7,0.4c0.3,0,0.6,0,0.8-0.1v-0.9c-0.2,0-0.5,0.1-0.8,0.1C71.9,62.5,71.4,62.3,70.9,62.1z"/>
	<path class="st2" d="M62,67.7c-0.2,0-0.4,0-0.6,0l0.4,0.4h2c0,0-0.1,0-0.1,0C63.3,67.9,62.9,67.7,62,67.7z"/>
	<path class="st2" d="M67.5,66.6c-0.5,0.2-1,0.4-1.9,0.4s-1.4-0.2-1.9-0.4c-0.4-0.2-0.8-0.4-1.7-0.4s-1.3,0.2-1.7,0.4c0,0,0,0-0.1,0
		l0.7,0.6c0.3-0.1,0.6-0.1,1.1-0.1c1,0,1.4,0.2,1.9,0.4c0.4,0.2,0.8,0.4,1.7,0.4s1.3-0.2,1.7-0.4c0.5-0.2,1-0.4,1.9-0.4
		c0.4,0,0.7,0,0.9,0.1l0.7-0.7c-0.4-0.2-0.8-0.3-1.6-0.3C68.4,66.2,68,66.4,67.5,66.6z"/>
	<path class="st2" d="M62,56.6c1,0,1.4,0.2,1.9,0.4c0.4,0.2,0.8,0.4,1.7,0.4c0.8,0,1.3-0.2,1.7-0.4c0.5-0.2,1-0.4,1.9-0.4
		c0.8,0,1.3,0.1,1.7,0.3l-1.3-1.2c-0.1,0-0.2,0-0.4,0c-0.8,0-1.3,0.2-1.7,0.4c-0.5,0.2-1,0.4-1.9,0.4s-1.4-0.2-1.9-0.4
		c-0.4-0.2-0.8-0.4-1.7-0.4c-0.2,0-0.4,0-0.6,0L60,57c0,0,0,0,0.1,0C60.6,56.8,61.1,56.6,62,56.6z"/>
	<path class="st2" d="M69.2,64.7c-0.8,0-1.3,0.2-1.7,0.4c-0.5,0.2-1,0.4-1.9,0.4s-1.4-0.2-1.9-0.4c-0.4-0.2-0.8-0.4-1.7-0.4
		s-1.3,0.2-1.7,0.4c-0.4,0.1-0.7,0.3-1.3,0.4l0.7,0.7c0.1,0,0.2-0.1,0.3-0.1c0.5-0.2,1-0.4,1.9-0.4s1.4,0.2,1.9,0.4
		c0.4,0.2,0.8,0.4,1.7,0.4s1.3-0.2,1.7-0.4c0.5-0.2,1-0.4,1.9-0.4s1.4,0.2,1.9,0.4c0.1,0,0.1,0.1,0.2,0.1l0.7-0.7
		c-0.5-0.1-0.8-0.2-1.2-0.3C70.5,64.9,70.1,64.7,69.2,64.7z"/>
	<path class="st2" d="M67.5,68.1C67.5,68.1,67.5,68.1,67.5,68.1l1.7,0l0.4-0.4c-0.1,0-0.2,0-0.4,0C68.4,67.7,68,67.9,67.5,68.1z"/>
	<path class="st2" d="M65.6,55.9c0.8,0,1.3-0.2,1.7-0.4c0.1,0,0.2-0.1,0.3-0.1h-3.9c0.1,0,0.2,0.1,0.3,0.1
		C64.4,55.7,64.8,55.9,65.6,55.9z"/>
	<path class="st2" d="M70.9,57.6c-0.4-0.2-0.8-0.4-1.7-0.4s-1.3,0.2-1.7,0.4c-0.5,0.2-1,0.4-1.9,0.4s-1.4-0.2-1.9-0.4
		c-0.4-0.2-0.8-0.4-1.7-0.4s-1.3,0.2-1.7,0.4c-0.4,0.1-0.7,0.3-1.3,0.4l-1,0.9c0.1,0,0.2,0,0.4,0c0.8,0,1.3-0.2,1.7-0.4
		c0.5-0.2,1-0.4,1.9-0.4s1.4,0.2,1.9,0.4c0.4,0.2,0.8,0.4,1.7,0.4s1.3-0.2,1.7-0.4c0.5-0.2,1-0.4,1.9-0.4s1.4,0.2,1.9,0.4
		c0.4,0.2,0.8,0.4,1.7,0.4c0.1,0,0.2,0,0.3,0l-1.1-1C71.6,57.8,71.2,57.7,70.9,57.6z"/>
	<path class="st2" d="M70.9,60.6c-0.4-0.2-0.8-0.4-1.7-0.4s-1.3,0.2-1.7,0.4c-0.5,0.2-1,0.4-1.9,0.4s-1.4-0.2-1.9-0.4
		c-0.4-0.2-0.8-0.4-1.7-0.4s-1.3,0.2-1.7,0.4c-0.5,0.2-1,0.4-1.9,0.4c-0.3,0-0.6,0-0.8-0.1v0.9c0.2,0,0.5,0.1,0.8,0.1
		c0.8,0,1.3-0.2,1.7-0.4c0.5-0.2,1-0.4,1.9-0.4s1.4,0.2,1.9,0.4c0.4,0.2,0.8,0.4,1.7,0.4s1.3-0.2,1.7-0.4c0.5-0.2,1-0.4,1.9-0.4
		s1.4,0.2,1.9,0.4c0.4,0.2,0.8,0.4,1.7,0.4c0.3,0,0.6,0,0.8-0.1v-0.9c-0.2,0-0.5,0.1-0.8,0.1C71.9,61,71.4,60.8,70.9,60.6z"/>
	<path class="st2" d="M70.9,59.1c-0.4-0.2-0.8-0.4-1.7-0.4s-1.3,0.2-1.7,0.4c-0.5,0.2-1,0.4-1.9,0.4s-1.4-0.2-1.9-0.4
		c-0.4-0.2-0.8-0.4-1.7-0.4s-1.3,0.2-1.7,0.4c-0.5,0.2-1,0.4-1.9,0.4c-0.3,0-0.6,0-0.8-0.1v0.9c0.2,0,0.5,0.1,0.8,0.1
		c0.8,0,1.3-0.2,1.7-0.4c0.5-0.2,1-0.4,1.9-0.4s1.4,0.2,1.9,0.4c0.4,0.2,0.8,0.4,1.7,0.4s1.3-0.2,1.7-0.4c0.5-0.2,1-0.4,1.9-0.4
		s1.4,0.2,1.9,0.4c0.4,0.2,0.8,0.4,1.7,0.4c0.3,0,0.6,0,0.8-0.1v-0.9c-0.2,0-0.5,0.1-0.8,0.1C71.9,59.5,71.4,59.3,70.9,59.1z"/>
	<path class="st3" d="M63.7,56.1c0.5,0.2,1,0.4,1.9,0.4c1,0,1.4-0.2,1.9-0.4c0.4-0.2,0.8-0.4,1.7-0.4c0.1,0,0.2,0,0.4,0l-0.4-0.3
		h-1.6c-0.1,0-0.2,0.1-0.3,0.1c-0.4,0.2-0.8,0.4-1.7,0.4c-0.8,0-1.3-0.2-1.7-0.4c-0.1,0-0.2-0.1-0.3-0.1h-1.8l-0.4,0.3
		c0.2,0,0.4,0,0.6,0C62.9,55.7,63.3,55.9,63.7,56.1z"/>
	<path class="st3" d="M62,57.2c0.8,0,1.3,0.2,1.7,0.4c0.5,0.2,1,0.4,1.9,0.4c1,0,1.4-0.2,1.9-0.4c0.4-0.2,0.8-0.4,1.7-0.4
		s1.3,0.2,1.7,0.4c0.3,0.1,0.6,0.3,1.1,0.3l-1.1-1c-0.4-0.2-0.9-0.3-1.7-0.3c-1,0-1.4,0.2-1.9,0.4c-0.4,0.2-0.8,0.4-1.7,0.4
		c-0.8,0-1.3-0.2-1.7-0.4c-0.5-0.2-1-0.4-1.9-0.4s-1.4,0.2-1.9,0.4c0,0,0,0-0.1,0l-1,0.9c0.6-0.1,0.9-0.2,1.3-0.4
		C60.8,57.4,61.2,57.2,62,57.2z"/>
	<path class="st3" d="M71.1,58.5c-0.5-0.2-1-0.4-1.9-0.4s-1.4,0.2-1.9,0.4c-0.4,0.2-0.8,0.4-1.7,0.4c-0.8,0-1.3-0.2-1.7-0.4
		c-0.5-0.2-1-0.4-1.9-0.4s-1.4,0.2-1.9,0.4c-0.4,0.2-0.8,0.4-1.7,0.4c-0.1,0-0.2,0-0.4,0l-0.4,0.4v0.1c0.2,0,0.5,0.1,0.8,0.1
		c1,0,1.4-0.2,1.9-0.4c0.4-0.2,0.8-0.4,1.7-0.4s1.3,0.2,1.7,0.4c0.5,0.2,1,0.4,1.9,0.4c1,0,1.4-0.2,1.9-0.4c0.4-0.2,0.8-0.4,1.7-0.4
		s1.3,0.2,1.7,0.4c0.5,0.2,1,0.4,1.9,0.4c0.3,0,0.6,0,0.8-0.1v0l-0.6-0.5c-0.1,0-0.2,0-0.3,0C72,58.9,71.6,58.7,71.1,58.5z"/>
	<path class="st3" d="M71.1,60c-0.5-0.2-1-0.4-1.9-0.4s-1.4,0.2-1.9,0.4c-0.4,0.2-0.8,0.4-1.7,0.4c-0.8,0-1.3-0.2-1.7-0.4
		c-0.5-0.2-1-0.4-1.9-0.4s-1.4,0.2-1.9,0.4c-0.4,0.2-0.8,0.4-1.7,0.4c-0.3,0-0.6,0-0.8-0.1v0.6c0.2,0,0.5,0.1,0.8,0.1
		c1,0,1.4-0.2,1.9-0.4c0.4-0.2,0.8-0.4,1.7-0.4s1.3,0.2,1.7,0.4c0.5,0.2,1,0.4,1.9,0.4s1.4-0.2,1.9-0.4c0.4-0.2,0.8-0.4,1.7-0.4
		s1.3,0.2,1.7,0.4c0.5,0.2,1,0.4,1.9,0.4c0.3,0,0.6,0,0.8-0.1v-0.6c-0.2,0-0.5,0.1-0.8,0.1C72,60.4,71.6,60.2,71.1,60z"/>
	<path class="st3" d="M71.1,61.5c-0.5-0.2-1-0.4-1.9-0.4s-1.4,0.2-1.9,0.4c-0.4,0.2-0.8,0.4-1.7,0.4c-0.8,0-1.3-0.2-1.7-0.4
		c-0.5-0.2-1-0.4-1.9-0.4s-1.4,0.2-1.9,0.4c-0.4,0.2-0.8,0.4-1.7,0.4c-0.3,0-0.6,0-0.8-0.1v0.6c0.2,0,0.5,0.1,0.8,0.1
		c1,0,1.4-0.2,1.9-0.4c0.4-0.2,0.8-0.4,1.7-0.4s1.3,0.2,1.7,0.4c0.5,0.2,1,0.4,1.9,0.4s1.4-0.2,1.9-0.4c0.4-0.2,0.8-0.4,1.7-0.4
		s1.3,0.2,1.7,0.4c0.5,0.2,1,0.4,1.9,0.4c0.3,0,0.6,0,0.8-0.1v-0.6c-0.2,0-0.5,0.1-0.8,0.1C72,61.9,71.6,61.7,71.1,61.5z"/>
	<path class="st3" d="M71.1,63c-0.5-0.2-1-0.4-1.9-0.4s-1.4,0.2-1.9,0.4c-0.4,0.2-0.8,0.4-1.7,0.4c-0.8,0-1.3-0.2-1.7-0.4
		c-0.5-0.2-1-0.4-1.9-0.4s-1.4,0.2-1.9,0.4c-0.4,0.2-0.8,0.4-1.7,0.4c-0.3,0-0.6,0-0.8-0.1v0.6c0.2,0,0.5,0.1,0.8,0.1
		c1,0,1.4-0.2,1.9-0.4c0.4-0.2,0.8-0.4,1.7-0.4s1.3,0.2,1.7,0.4c0.5,0.2,1,0.4,1.9,0.4s1.4-0.2,1.9-0.4c0.4-0.2,0.8-0.4,1.7-0.4
		s1.3,0.2,1.7,0.4c0.5,0.2,1,0.4,1.9,0.4c0.3,0,0.6,0,0.8-0.1v-0.6c-0.2,0-0.5,0.1-0.8,0.1C72,63.4,71.6,63.2,71.1,63z"/>
	<path class="st3" d="M69.2,64.1c-1,0-1.4,0.2-1.9,0.4c-0.4,0.2-0.8,0.4-1.7,0.4c-0.8,0-1.3-0.2-1.7-0.4c-0.5-0.2-1-0.4-1.9-0.4
		s-1.4,0.2-1.9,0.4c-0.4,0.2-0.8,0.3-1.7,0.4l0.6,0.6c0.6-0.1,0.9-0.2,1.3-0.4c0.4-0.2,0.8-0.4,1.7-0.4s1.3,0.2,1.7,0.4
		c0.5,0.2,1,0.4,1.9,0.4s1.4-0.2,1.9-0.4c0.4-0.2,0.8-0.4,1.7-0.4s1.3,0.2,1.7,0.4c0.3,0.1,0.7,0.3,1.2,0.3l0.6-0.6
		c-0.7,0-1.1-0.2-1.5-0.3C70.7,64.3,70.2,64.1,69.2,64.1z"/>
	<path class="st3" d="M69.2,65.6c-1,0-1.4,0.2-1.9,0.4c-0.4,0.2-0.8,0.4-1.7,0.4c-0.8,0-1.3-0.2-1.7-0.4c-0.5-0.2-1-0.4-1.9-0.4
		s-1.4,0.2-1.9,0.4c-0.1,0-0.2,0.1-0.3,0.1l0.5,0.5c0,0,0,0,0.1,0c0.4-0.2,0.8-0.4,1.7-0.4s1.3,0.2,1.7,0.4c0.5,0.2,1,0.4,1.9,0.4
		c1,0,1.4-0.2,1.9-0.4c0.4-0.2,0.8-0.4,1.7-0.4c0.8,0,1.2,0.2,1.6,0.3l0.5-0.5c-0.1,0-0.1-0.1-0.2-0.1
		C70.7,65.8,70.2,65.6,69.2,65.6z"/>
	<path class="st3" d="M67.3,67.5c-0.4,0.2-0.8,0.4-1.7,0.4c-0.8,0-1.3-0.2-1.7-0.4c-0.5-0.2-1-0.4-1.9-0.4c-0.5,0-0.8,0-1.1,0.1
		l0.5,0.5c0.2,0,0.3,0,0.6,0c0.8,0,1.3,0.2,1.7,0.4c0,0,0.1,0,0.1,0h3.7c0,0,0.1,0,0.1,0c0.4-0.2,0.8-0.4,1.7-0.4c0.1,0,0.3,0,0.4,0
		l0.6-0.5c-0.3-0.1-0.6-0.1-0.9-0.1C68.3,67.1,67.8,67.3,67.3,67.5z"/>
	<polygon class="st1" points="61.8,68.1 57.6,64.1 57.6,59.3 61.8,55.4 69.2,55.4 73.6,59.4 73.6,64 69.2,68.1 	"/>
	<polyline class="st1" points="65.6,167.4 65.6,167.4 65.6,150.7 	"/>
	<polygon class="st1" points="37.4,167.4 37.4,150.7 77.9,150.7 77.9,167.4 	"/>
	<path class="st1" d="M92.2,148.2v-42.1c0,0-0.8-18.5-1-19.5C88.8,74,66.5,70.8,65.8,70.8c-0.7,0-21.2,0.8-25.4,15.5
		c-0.7,1.9-1.1,21.8-1.1,21.8v40.7l-0.2,0.1c0,0-8.4,0-9.9,0c-2.5,0-2.5,2.8-2.5,2.8v8.7h6.1v15h-5.9v7.2c0,0-0.3,1.8,2.8,1.4
		c3.4-0.5,22.4-3.2,36.2-3.1c3.2,0,22.5,0.4,36.8,3.2c3,0.6,2.4-1.5,2.4-1.5v-7.2h-6v-15.1h5.9v-10.6c0,0-0.4-1.4-2.4-1.4
		c-0.8,0-5,0-9.7,0L92.2,148.2z"/>
	<line class="st1" x1="104.9" y1="174.9" x2="104.9" y2="162.7"/>
	<line class="st1" x1="100.2" y1="174.8" x2="100.2" y2="162.5"/>
	<line class="st1" x1="31.8" y1="174.9" x2="31.8" y2="162.7"/>
	<line class="st1" x1="26.8" y1="174.9" x2="26.8" y2="162.7"/>
	<polygon class="st1" points="45.4,139 45.4,130.7 85.8,130.7 85.8,139.1 	"/>
	<line class="st1" x1="48.6" y1="167.7" x2="48.6" y2="150.9"/>
	<line class="st1" x1="55.8" y1="130.7" x2="55.8" y2="139.1"/>
	<line class="st1" x1="65.6" y1="130.6" x2="65.6" y2="139"/>
	<line class="st1" x1="75.8" y1="130.6" x2="75.8" y2="139"/>
	<path class="st1" d="M113.1,248.2v28.3c0,0-4.2,6.3-4.2,16.5c0,10.2,4.2,16.6,4.2,16.6v49.6c0,0,0,3.9-12.8,3.9
		c-7.7-8-20.7-7.8-20.7-7.8l-13.9,0H51.9c0,0-13.1-0.2-20.7,7.8c-12.7,0-12.8-8.9-12.8-8.9v-44.6c0,0,4.2-6.3,4.2-16.6
		c0-10.2-4.2-16.5-4.2-16.5v-28l0-0.4c0,0,3.1-7.2,11.8-9.2c5.8-1.3,19.3-3.9,34.9-3.9l0,0c0,0,0.8,0,0.9,0
		c15.6,0,29.2,2.7,35.1,3.9c9.5,2,11.9,9,11.9,9L113.1,248.2z"/>
	<line class="st1" x1="21.7" y1="236.7" x2="21.7" y2="229.7"/>
	<path class="st1" d="M112.7,230.7c-2.8-1.1-7-1.9-7-1.9c-5.8-1.5-24.3-4.9-39.9-4.9l0,0h-1l0,0c-15.6,0-34.1,3.5-39.9,4.9
		c0,0-4.2,0.8-7,1.9"/>
	<line class="st1" x1="108.9" y1="236.7" x2="108.9" y2="229.7"/>
	<line class="st1" x1="21.7" y1="227.8" x2="21.7" y2="220.8"/>
	<path class="st1" d="M112.7,221.8c-2.8-1.1-7-1.9-7-1.9c-5.8-1.5-24.3-4.9-39.9-4.9l0,0h-1l0,0c-15.6,0-34.1,3.5-39.9,4.9
		c0,0-4.2,0.8-7,1.9"/>
	<line class="st1" x1="108.9" y1="227.8" x2="108.9" y2="220.8"/>
	<line class="st1" x1="21.7" y1="218.8" x2="21.7" y2="211.8"/>
	<path class="st1" d="M112.7,212.8c-2.8-1.1-7-1.9-7-1.9c-5.8-1.5-24.3-4.9-39.9-4.9l0,0h-1l0,0c-15.6,0-34.1,3.5-39.9,4.9
		c0,0-4.2,0.8-7,1.9"/>
	<line class="st1" x1="108.9" y1="218.8" x2="108.9" y2="211.8"/>
	<line class="st1" x1="21.7" y1="210" x2="21.7" y2="203"/>
	<path class="st1" d="M112.7,204c-2.8-1.1-7-1.9-7-1.9c-5.8-1.5-24.3-4.9-39.9-4.9l0,0h-1l0,0c-15.6,0-34.1,3.5-39.9,4.9
		c0,0-4.2,0.8-7,1.9"/>
	<line class="st1" x1="108.9" y1="210" x2="108.9" y2="203"/>
	<line class="st1" x1="21.7" y1="200" x2="21.7" y2="193"/>
	<path class="st1" d="M112.7,237.4v-43.3l0-0.2c-2.8-1.1-7-1.9-7-1.9c-5.8-1.5-24.3-4.9-39.9-4.9l0,0h-1l0,0
		c-15.6,0-34.1,3.5-39.9,4.9c0,0-4.2,0.8-7,1.9v0.5v43.2"/>
	<line class="st1" x1="108.9" y1="200" x2="108.9" y2="193"/>
	<line class="st1" x1="92.3" y1="130.7" x2="108.1" y2="130.7"/>
	<polyline class="st1" points="92.3,113.2 108.7,113.2 108.7,104.7 	"/>
	<polyline class="st1" points="39,113.2 22.6,113.2 22.6,104.7 	"/>
	<line class="st1" x1="23.8" y1="130.7" x2="39.6" y2="130.7"/>
	<path class="st1" d="M17,113.4V65.7c0,0-1.4-17.2,16.6-18.8c5.8-0.5,24.6-1.5,31.2-1.5c6.8,0,32.2,1.3,33.2,1.5
		c2.1,0.8,16.2-1.2,16.2,21c0,12,0,45.6,0,45.6"/>
	<path class="st1" d="M111.2,47.1c3,4.6,2.8,2.8,2.8,2.8v-7.5c0,0,0-6.2-5.2-6.6c0,0-29.9-3.1-43.3-3.1h-0.1
		c-13.4,0-43.3,3.1-43.3,3.1c-5.2,0.4-5.2,6.6-5.2,6.6v7.5c0,0-0.4,1.5,2.8-2.8"/>
	<line class="st1" x1="17.1" y1="33.3" x2="19.3" y2="32.2"/>
	<path class="st1" d="M113.9,32.7c0,0,1.2-8-5.2-8c0,0-29.9-3.1-43.3-3.1h0c-13.4,0-43.3,3.1-43.3,3.1c-6.4,0-5.2,8-5.2,8"/>
	<line class="st1" x1="113.7" y1="33.3" x2="111.4" y2="32.2"/>
	<polyline class="st1" points="15,559.4 15,554.4 7.5,548.4 7.5,214.2 15,207.2 15,201.7 	"/>
	<polyline class="st1" points="116.2,559.4 116.2,554.4 123.7,548.4 123.7,214.2 116.2,207.2 116.2,201.7 	"/>
	<path class="st1" d="M65.6,235.1c0,0,0.8,0,0.9,0c15.6,0,30.8,2.9,36.5,4.4c7.6,2,10.1,8.8,10.1,8.8l0.4,28.2c0,0-4.2,6.8-4.2,17
		c0,10.2,4.2,16,4.2,16l-0.2,49.3c0,0,0,4.6-12.7,4.6c-7.7-8-20.5-8.1-20.5-8.1l-13.9,0H52.2c0,0-13.1-0.2-20.7,7.8
		c-12.7,0-12.8-8.9-12.8-8.9v-44.7c0,0,4.2-5.8,4.2-16c0-10.2-4.2-17-4.2-17v-28.8c0,0,2.4-6.4,10-8.3
		C34.5,237.9,50,235.1,65.6,235.1L65.6,235.1z"/>
	<path class="st1" d="M25.8,240.9l1.1,3.9 M23.2,242.7l2.6,3.1 M24.4,241.6l1.9,3.5"/>
	<path class="st1" d="M27.4,240.5c0,0,1.2,3.1-0.8,4.5c0,0-1.9,1-2.6,2.1"/>
	<path class="st1" d="M105.4,244.7l1.1-3.9 M106.6,245.7l2.6-3.1 M106.1,245.1l1.9-3.5"/>
	<path class="st1" d="M104.9,240.5c0,0-1.2,3.1,0.8,4.5c0,0,1.9,1,2.6,2.1"/>
	<path class="st1" d="M82.3,665.2h4.9l0-31.9h27.2v43.3c0,0-0.7,3.1-4.6,3.4H86.5v-9.1l-41,0l0,9.1H19.8c-2.1-0.3-3-1.8-3-3.4l0-5.7
		v-37.3h28.6v31.7h15.3L82.3,665.2z"/>
	<path class="st1" d="M112.7,477.7l-94.4,0v-89.6c0,0-0.6-3.7,2.9-7.7c2-1.7,5-3.2,9.7-3.9c19.1-2.8,31.3-2.9,34.8-2.9
		c3.5,0,29.2,0.9,38,3.5c9.9,2.9,9,10.3,9,10.3L112.7,477.7L112.7,477.7z"/>
	<path class="st1" d="M87,665.3l0.1-31.9l27.4,0.1l-0.2-34.7c0,0,0.7-3.2-5.5-3.4c-4.8-0.2-8.8,0.1-8.8,0.1V478l-68.8,0v117.3H20.8
		c0,0-3.7,0-3.7,4.2s0.2,34.2,0.2,34.2h28.3L45.1,665L87,665.3z"/>
	<polygon class="st1" points="112.9,434.2 18.5,434.2 18.5,407.5 49.9,407.5 50.1,396.2 81.4,396.6 81.6,407.5 112.9,407.5 	"/>
	<rect x="18.4" y="554.6" class="st1" width="12.6" height="33.8"/>
	<rect x="99.7" y="554.6" class="st1" width="13.3" height="33.8"/>
	<line class="st1" x1="65.7" y1="662.5" x2="74" y2="662.5"/>
	<line class="st1" x1="65.7" y1="649.3" x2="65.7" y2="662.5"/>
	<line class="st1" x1="74" y1="649.3" x2="74" y2="662.6"/>
	<line class="st1" x1="65.9" y1="657.2" x2="74" y2="657.2"/>
	<line class="st1" x1="65.7" y1="659.8" x2="74.1" y2="659.8"/>
	<line class="st1" x1="65.8" y1="654.6" x2="74" y2="654.6"/>
	<line class="st1" x1="65.9" y1="652.2" x2="74.3" y2="652.2"/>
	<line class="st1" x1="65.3" y1="641.5" x2="75.2" y2="633.2"/>
	<line class="st1" x1="74.9" y1="641.3" x2="65.4" y2="633.3"/>
	<line class="st1" x1="78.4" y1="442.7" x2="72.2" y2="434.8"/>
	<path class="st1" d="M113.1,407.5H18.5 M104.8,407.7v14l-7.2,6H74.4v-20H57.2v20l-8.1,0h-8.8v6.6 M112.9,438.5v-34.7 M18.6,434.2
		h79v4.7h7.2v-4.8h7.9"/>
	<path class="st1" d="M112.9,477.8l-94.4,0v-89.7c0,0-0.6-3.7,2.9-7.7c2-1.7,5-3.2,9.7-3.9c19.1-2.8,31.3-2.9,34.8-2.9
		s29.2,0.9,38,3.5c9.9,2.9,9,10.3,9,10.3L112.9,477.8L112.9,477.8z"/>
	<line class="st1" x1="16.4" y1="633.3" x2="45.6" y2="633.3"/>
	<line class="st1" x1="87" y1="633.3" x2="114.6" y2="633.3"/>
	<path class="st1" d="M16.7,599.7c0-4.2,4.1-4.2,4.1-4.2h10.4V478l68.6,0v117.4c0,0,5.1,0,9.9,0s4.6,3.4,4.6,3.4l0,78.1
		c0,0,0,3.1-3.9,3.1H86.4v-8.8l-40.9,0l0,8.8H19.7c-2.1,0-3-1.4-3-3.1C16.7,676.9,16.7,603.9,16.7,599.7z"/>
	<line class="st1" x1="49.2" y1="664.9" x2="49.2" y2="649.4"/>
	<polyline class="st1" points="82.8,649.4 82.8,662.6 82.8,665.2 	"/>
	<rect x="65.1" y="632.9" class="st1" width="10" height="8.7"/>
	<rect x="45.3" y="622.6" class="st1" width="41.7" height="42.6"/>
	<line class="st1" x1="45.4" y1="641.4" x2="87.1" y2="641.4"/>
	<line class="st1" x1="45.4" y1="649.2" x2="87.1" y2="649.3"/>
	<polyline class="st1" points="57.4,412.2 48,412.2 48,427.5 	"/>
	<polyline class="st1" points="82.9,407.7 82.9,422.5 93.9,422.5 97.6,427.7 	"/>
	<polyline class="st1" points="50,407.5 50,396.4 81.5,396.4 81.5,407.6 	"/>
	<path class="st1" d="M62.1,439.5c0,0,0.1,3.8,3.8,3.8c3.8,0,4-3.8,4-3.8"/>
	<polyline class="st1" points="30.9,588.2 18.4,588.2 18.4,554.8 30.9,554.8 	"/>
	<polyline class="st1" points="99.8,588.2 113,588.2 113,554.8 99.8,554.8 	"/>
	<path class="st1" d="M61.3,426.9c0.2,0,0.3-0.3,0.3-0.6"/>
	<line class="st1" x1="57.2" y1="426.9" x2="61.3" y2="426.9"/>
	<line class="st1" x1="61.7" y1="426.3" x2="61.7" y2="423.9"/>
	<line class="st1" x1="61.7" y1="423.9" x2="69.7" y2="423.9"/>
	<path class="st1" d="M69.7,426.3c0,0.3,0.1,0.6,0.3,0.6"/>
	<line class="st1" x1="69.7" y1="423.9" x2="69.7" y2="426.3"/>
	<line class="st1" x1="70.1" y1="426.9" x2="74.2" y2="426.9"/>
	<line class="st1" x1="65.6" y1="412.3" x2="65.6" y2="427.1"/>
	<line class="st1" x1="65.8" y1="412.3" x2="65.8" y2="427.1"/>
	<line class="st1" x1="57.4" y1="413" x2="65.6" y2="413"/>
	<line class="st1" x1="65.6" y1="427.1" x2="65.8" y2="427.1"/>
	<line class="st1" x1="65.6" y1="412.3" x2="65.8" y2="412.3"/>
	<line class="st1" x1="65.8" y1="413" x2="74.3" y2="413"/>
	<line class="st1" x1="65.8" y1="414.6" x2="69.4" y2="414.6"/>
	<line class="st1" x1="65.8" y1="416.2" x2="69.4" y2="416.2"/>
	<line class="st1" x1="65.8" y1="417.7" x2="69.4" y2="417.7"/>
	<line class="st1" x1="65.8" y1="419.3" x2="69.4" y2="419.3"/>
	<line class="st1" x1="65.8" y1="420.9" x2="69.4" y2="420.9"/>
	<line class="st1" x1="65.8" y1="422.5" x2="69.4" y2="422.5"/>
	<line class="st1" x1="65.8" y1="425.6" x2="69.7" y2="425.6"/>
	<line class="st1" x1="62" y1="414.6" x2="65.6" y2="414.6"/>
	<line class="st1" x1="62" y1="416.2" x2="65.6" y2="416.2"/>
	<line class="st1" x1="62" y1="417.7" x2="65.6" y2="417.7"/>
	<line class="st1" x1="62" y1="419.3" x2="65.6" y2="419.3"/>
	<line class="st1" x1="62" y1="420.9" x2="65.6" y2="420.9"/>
	<line class="st1" x1="62" y1="422.5" x2="65.6" y2="422.5"/>
	<line class="st1" x1="61.6" y1="425.6" x2="65.6" y2="425.6"/>
	<line class="st1" x1="74.3" y1="425.3" x2="70.1" y2="425.3"/>
	<line class="st1" x1="74.2" y1="423.8" x2="69.6" y2="423.8"/>
	<line class="st1" x1="74.3" y1="422.2" x2="70.1" y2="422.2"/>
	<line class="st1" x1="74.2" y1="420.7" x2="70.1" y2="420.7"/>
	<line class="st1" x1="61.7" y1="425.3" x2="57.3" y2="425.3"/>
	<line class="st1" x1="61.7" y1="423.8" x2="57.3" y2="423.8"/>
	<line class="st1" x1="61.3" y1="422.2" x2="57.2" y2="422.2"/>
	<line class="st1" x1="61.3" y1="420.7" x2="57.3" y2="420.7"/>
	<path class="st1" d="M70.1,412.1c0-0.3-0.1-0.6-0.3-0.6c-0.2,0-0.3,0.3-0.3,0.6l0,0"/>
	<line class="st1" x1="69.4" y1="412.1" x2="69.4" y2="412.3"/>
	<line class="st1" x1="70.1" y1="412.1" x2="70.1" y2="412.3"/>
	<path class="st1" d="M62,412.1c0-0.3-0.1-0.6-0.3-0.6c-0.2,0-0.3,0.3-0.3,0.6l0,0"/>
	<line class="st1" x1="61.3" y1="412.1" x2="61.3" y2="412.3"/>
	<line class="st1" x1="62" y1="412.1" x2="62" y2="412.3"/>
	<line class="st1" x1="69.8" y1="412.3" x2="69.8" y2="423.7"/>
	<line class="st1" x1="74.2" y1="417.6" x2="70.1" y2="417.6"/>
	<line class="st1" x1="74.2" y1="416.1" x2="70.1" y2="416.1"/>
	<line class="st1" x1="74.2" y1="414.5" x2="70.1" y2="414.5"/>
	<line class="st1" x1="74.2" y1="419.1" x2="70.1" y2="419.1"/>
	<line class="st1" x1="61.7" y1="412.3" x2="61.7" y2="424"/>
	<line class="st1" x1="61.3" y1="417.6" x2="57.3" y2="417.6"/>
	<line class="st1" x1="61.3" y1="416.1" x2="57.3" y2="416.1"/>
	<line class="st1" x1="61.3" y1="414.5" x2="57.4" y2="414.5"/>
	<line class="st1" x1="61.4" y1="419.1" x2="57.2" y2="419.1"/>
	<path class="st1" d="M85.4,712.3c0,11.3-9.2,20.5-20.5,20.5c-11.3,0-20.5-9.2-20.5-20.5s9.2-20.5,20.5-20.5
		C76.2,691.8,85.4,701,85.4,712.3z"/>
	<path class="st1" d="M88.7,435.3h2.7c2.2,3.4,2.9,10.6,0.2,14.9c-3,4.7-9.8,4.2-9.8,4.2s-4,9.8-15.7,9.9c-11.7,0.1-16.3-10-16.3-10
		s-6.4,1.3-9.8-4.6c-4.3-7.4,0.3-14.4,0.3-14.4h2.7"/>
	<path class="st1" d="M56.7,443.9c-4.8,0-5.1-4.5-5.1-4.5l2.5,0v-4.8h5.6l0,4.8l2.3,0C62,439.4,61.5,443.9,56.7,443.9z"/>
	<path class="st1" d="M45.8,443.9c-4.8,0-5.1-4.5-5.1-4.5l2.5,0v-4.8h5.6v4.8l2.3,0C51.1,439.4,50.6,443.9,45.8,443.9z"/>
	<path class="st1" d="M85.7,443.9c-4.8,0-5.1-4.5-5.1-4.5l2.5,0v-4.8h5.6l0,4.8l2.3,0C91,439.4,90.5,443.9,85.7,443.9z"/>
	<path class="st1" d="M74.8,443.9c-4.8,0-5.1-4.5-5.1-4.5l2.5,0v-4.8h5.6l0,4.8l2.3,0C80.1,439.4,79.7,443.9,74.8,443.9z"/>
	<line class="st1" x1="53.4" y1="442.9" x2="59.7" y2="434.8"/>
	<line class="st1" x1="42.6" y1="442.9" x2="48.9" y2="434.8"/>
	<line class="st1" x1="60.1" y1="442.8" x2="54.1" y2="434.9"/>
	<line class="st1" x1="49.2" y1="442.8" x2="43.3" y2="434.9"/>
	<line class="st1" x1="82.4" y1="442.9" x2="88.7" y2="434.8"/>
	<line class="st1" x1="89.1" y1="442.7" x2="83.1" y2="434.8"/>
	<line class="st1" x1="71.6" y1="442.9" x2="77.9" y2="434.8"/>
	<path class="st1" d="M91.6,390.4c0,0,0.4-5.8-6.1-5.8c-6.5,0-6.1,5.8-6.1,5.8l0,6l2.1,0v11.2h10.1
		C91.6,407.6,91.6,390.4,91.6,390.4z"/>
	<line class="st1" x1="110.6" y1="374.4" x2="87.9" y2="391.1"/>
	<path class="st4" d="M21.9,585.4h-0.2c-1.6,0-2.4-0.7-2.4-1.6c0-0.3,0.1-0.5,0.1-0.7h0.9c-0.1,0.2-0.2,0.4-0.2,0.6
		c0,0.5,0.5,0.8,1.5,0.8h0.2c1.3,0,1.6-0.4,1.6-0.7c0,0,0,0,0-0.1h-1.3v0.4h-0.8V583h2.6c0.1,0.3,0.2,0.6,0.2,0.9
		C24.3,584.7,23.6,585.4,21.9,585.4z M21.9,582.6h-0.3c-1.6,0-2.4-0.5-2.4-1.3s0.8-1.3,2.4-1.3h0.3c1.6,0,2.4,0.5,2.4,1.3
		S23.5,582.6,21.9,582.6z M21.9,580.8h-0.3c-1.3,0-1.6,0.2-1.6,0.4s0.4,0.4,1.6,0.4h0.3c1.3,0,1.6-0.2,1.6-0.4
		S23.2,580.8,21.9,580.8z M19.3,579.6v-0.9h4.1v-0.9h0.8v1.8L19.3,579.6L19.3,579.6z M19.3,577.5v-1.8h0.8v0.9h1.2v-0.8h0.8v0.8h2
		v0.9H19.3z M19.3,574.2v-0.8c0-1.1,0.8-1.7,2.4-1.7h0.2c1.6,0,2.4,0.6,2.4,1.7v0.8H19.3z M23.4,573.3c0-0.4-0.4-0.8-1.6-0.8h-0.2
		c-1.2,0-1.6,0.4-1.6,0.8v0L23.4,573.3L23.4,573.3z M19.3,571.2v-0.9c0-0.9,0.5-1.5,1.6-1.5H21c0.6,0,1,0.3,1.3,0.6l2-0.7v0.9
		l-1.7,0.6v0.2h1.7v0.9L19.3,571.2L19.3,571.2z M21.8,570.3c0-0.4-0.2-0.6-0.8-0.6h-0.1c-0.6,0-0.8,0.3-0.8,0.7v0L21.8,570.3
		L21.8,570.3z M19.3,568.4v-0.9h4.9v0.9H19.3z M19.3,567.3v-0.9l3.2-0.5l-3.2-0.5v-0.8l4.9,0.9v0.9L19.3,567.3z M19.3,564.4v-0.9
		h4.9v0.9H19.3z M19.3,563v-0.8l2.5-0.9h-2.5v-0.8h4.9v0.8l-2.6,0.9h2.6v0.8L19.3,563L19.3,563z M21.9,560.1h-0.2
		c-1.6,0-2.4-0.7-2.4-1.6c0-0.3,0.1-0.5,0.1-0.7h0.9c-0.1,0.2-0.2,0.4-0.2,0.6c0,0.5,0.5,0.8,1.5,0.8h0.2c1.3,0,1.6-0.4,1.6-0.7
		c0,0,0,0,0-0.1h-1.3v0.4h-0.8v-1.2h2.6c0.1,0.3,0.2,0.6,0.2,0.9C24.3,559.4,23.6,560.1,21.9,560.1z M25.3,574.5v-0.8l2.5-0.9h-2.5
		V572h4.9v0.8l-2.6,0.9h2.6v0.8H25.3z M25.3,571.5v-1.9h0.8v1h1.2v-0.9h0.8v0.9h1.2v-1h0.8v1.9L25.3,571.5L25.3,571.5z M26.1,568.7
		v0.6h-0.8v-2.1h0.8v0.6h4.1v0.9L26.1,568.7L26.1,568.7z"/>
	<path class="st4" d="M103.5,585.4h-0.2c-1.6,0-2.4-0.7-2.4-1.6c0-0.3,0.1-0.5,0.1-0.7h0.9c-0.1,0.2-0.2,0.4-0.2,0.6
		c0,0.5,0.5,0.8,1.5,0.8h0.2c1.3,0,1.6-0.4,1.6-0.7c0,0,0,0,0-0.1h-1.3v0.4H103V583h2.6c0.1,0.3,0.2,0.6,0.2,0.9
		C105.9,584.7,105.2,585.4,103.5,585.4z M103.5,582.6h-0.3c-1.6,0-2.4-0.5-2.4-1.3s0.8-1.3,2.4-1.3h0.3c1.6,0,2.4,0.5,2.4,1.3
		S105.1,582.6,103.5,582.6z M103.5,580.8h-0.3c-1.3,0-1.6,0.2-1.6,0.4s0.4,0.4,1.6,0.4h0.3c1.3,0,1.6-0.2,1.6-0.4
		S104.8,580.8,103.5,580.8z M100.9,579.6v-0.9h4.1v-0.9h0.8v1.8L100.9,579.6L100.9,579.6z M100.9,577.5v-1.8h0.8v0.9h1.2v-0.8h0.8
		v0.8h2v0.9H100.9z M100.9,574.2v-0.8c0-1.1,0.8-1.7,2.4-1.7h0.2c1.6,0,2.4,0.6,2.4,1.7v0.8H100.9z M105,573.3
		c0-0.4-0.4-0.8-1.6-0.8h-0.2c-1.2,0-1.6,0.4-1.6,0.8v0L105,573.3L105,573.3z M100.9,571.2v-0.9c0-0.9,0.5-1.5,1.6-1.5h0.1
		c0.6,0,1,0.3,1.3,0.6l2-0.7v0.9l-1.7,0.6v0.2h1.7v0.9L100.9,571.2L100.9,571.2z M103.3,570.3c0-0.4-0.2-0.6-0.8-0.6h-0.1
		c-0.6,0-0.8,0.3-0.8,0.7v0L103.3,570.3L103.3,570.3z M100.9,568.4v-0.9h4.9v0.9H100.9z M100.9,567.3v-0.9l3.2-0.5l-3.2-0.5v-0.8
		l4.9,0.9v0.9L100.9,567.3z M100.9,564.4v-0.9h4.9v0.9H100.9z M100.9,563v-0.8l2.5-0.9h-2.5v-0.8h4.9v0.8l-2.6,0.9h2.6v0.8
		L100.9,563L100.9,563z M103.5,560.1h-0.2c-1.6,0-2.4-0.7-2.4-1.6c0-0.3,0.1-0.5,0.1-0.7h0.9c-0.1,0.2-0.2,0.4-0.2,0.6
		c0,0.5,0.5,0.8,1.5,0.8h0.2c1.3,0,1.6-0.4,1.6-0.7c0,0,0,0,0-0.1h-1.3v0.4H103v-1.2h2.6c0.1,0.3,0.2,0.6,0.2,0.9
		C105.9,559.4,105.2,560.1,103.5,560.1z M106.9,574.5v-0.8l2.5-0.9h-2.5V572h4.9v0.8l-2.6,0.9h2.6v0.8H106.9z M106.9,571.5v-1.9h0.8
		v1h1.2v-0.9h0.8v0.9h1.2v-1h0.8v1.9L106.9,571.5C106.9,571.5,106.9,571.5,106.9,571.5z M107.7,568.7v0.6h-0.8v-2.1h0.8v0.6h4.1v0.9
		L107.7,568.7L107.7,568.7z"/>
	<path class="st4" d="M44.1,471.2V471c0-1.7,0.6-2.4,1.4-2.4c0.2,0,0.4,0,0.6,0.1v0.9c-0.2-0.1-0.3-0.2-0.5-0.2
		c-0.4,0-0.7,0.3-0.7,1.6v0.2c0,1.3,0.3,1.6,0.7,1.6c0.1,0,0.3,0,0.5-0.2v0.8c-0.2,0.1-0.4,0.1-0.6,0.1
		C44.7,473.6,44.1,472.9,44.1,471.2z M47.2,468.6h0.9l0.9,4.9h-0.9l-0.2-1h-0.8l-0.2,1h-0.8L47.2,468.6z M47.9,471.8l-0.3-1.6
		l-0.3,1.6H47.9z M49.2,471.2V471c0-1.6,0.7-2.4,1.6-2.4c0.3,0,0.5,0.1,0.7,0.1v0.9c-0.2-0.1-0.4-0.2-0.6-0.2
		c-0.5,0-0.8,0.5-0.8,1.5v0.2c0,1.3,0.4,1.6,0.7,1.6c0,0,0,0,0.1,0v-1.3h-0.4v-0.8h1.2v2.6c-0.3,0.1-0.6,0.2-0.9,0.2
		C49.9,473.6,49.2,472.9,49.2,471.2z M52.1,468.6h0.8l0.9,2.5v-2.5h0.8v4.9h-0.8l-0.9-2.6v2.6h-0.8V468.6z M55.1,468.6H57v0.8h-1
		v1.2h0.9v0.8H56v1.2h1v0.8h-1.9V468.6z M58.1,471.6l-0.9-3H58l0.5,1.8l0.5-1.8h0.9l-0.9,3v1.9h-0.9
		C58.1,473.6,58.1,471.6,58.1,471.6z M60,470.4c0.5-0.1,0.6-0.5,0.6-0.8h-0.4v-1h1v0.8c0,0.7-0.4,1.2-1,1.3L60,470.4z M61.6,473.4
		v-0.9c0.3,0.2,0.5,0.3,0.8,0.3c0.2,0,0.5-0.1,0.5-0.4v0c0-0.2-0.1-0.4-0.5-0.9c-0.6-0.7-0.8-1-0.8-1.6v0c0-0.8,0.5-1.3,1.2-1.3
		c0.3,0,0.5,0,0.8,0.2v0.9c-0.3-0.2-0.4-0.2-0.7-0.2c-0.2,0-0.4,0.2-0.4,0.4v0c0,0.2,0.1,0.3,0.5,0.8c0.7,0.8,0.8,1.1,0.8,1.6v0
		c0,0.8-0.5,1.3-1.2,1.3C62.1,473.6,61.8,473.5,61.6,473.4z M65,473.4v-0.9c0.3,0.2,0.5,0.3,0.8,0.3c0.2,0,0.5-0.1,0.5-0.4v0
		c0-0.2-0.1-0.4-0.5-0.9c-0.6-0.7-0.8-1-0.8-1.6v0c0-0.8,0.5-1.3,1.2-1.3c0.3,0,0.5,0,0.8,0.2v0.9c-0.3-0.2-0.4-0.2-0.7-0.2
		c-0.2,0-0.4,0.2-0.4,0.4v0c0,0.2,0.1,0.3,0.5,0.8c0.7,0.8,0.8,1.1,0.8,1.6v0c0,0.8-0.5,1.3-1.2,1.3C65.5,473.6,65.2,473.5,65,473.4
		z M67.7,469.5h-0.6v-0.8h2.1v0.8h-0.6v4.1h-0.9C67.7,473.6,67.7,469.5,67.7,469.5z M69.5,468.6h1.9v0.8h-1v1.2h0.9v0.8h-0.9v1.2h1
		v0.8h-1.9C69.5,473.6,69.5,468.6,69.5,468.6z M72.5,468.6h0.9l0.9,4.9h-0.9l-0.2-1h-0.8l-0.2,1h-0.8L72.5,468.6z M73.2,471.8
		l-0.3-1.6l-0.3,1.6H73.2z M74.6,468.6h0.9v2.1l0.7-2.1h1l-0.8,2.1l0.8,2.8h-1l-0.5-1.9l-0.2,0.5v1.3h-0.9L74.6,468.6L74.6,468.6z
		 M77.4,468.6h0.9v2H79v-2h0.9v4.9H79v-2.1h-0.7v2.1h-0.9V468.6z M80.3,471.2V471c0-1.6,0.5-2.4,1.3-2.4c0.8,0,1.3,0.8,1.3,2.4v0.3
		c0,1.6-0.5,2.4-1.3,2.4C80.8,473.6,80.3,472.8,80.3,471.2z M82,471.2V471c0-1.3-0.2-1.6-0.4-1.6c-0.3,0-0.4,0.4-0.4,1.6v0.3
		c0,1.3,0.2,1.6,0.4,1.6C81.8,472.8,82,472.5,82,471.2z M83.3,472.1v-3.5h0.8v3.6c0,0.4,0.2,0.6,0.4,0.6c0.2,0,0.4-0.2,0.4-0.6v-3.6
		h0.8v3.5c0,1-0.5,1.5-1.2,1.5S83.3,473.2,83.3,472.1z M86.1,473.4v-0.9c0.3,0.2,0.5,0.3,0.8,0.3c0.2,0,0.5-0.1,0.5-0.4v0
		c0-0.2-0.1-0.4-0.5-0.9c-0.6-0.7-0.8-1-0.8-1.6v0c0-0.8,0.5-1.3,1.2-1.3c0.3,0,0.5,0,0.8,0.2v0.9c-0.3-0.2-0.4-0.2-0.7-0.2
		c-0.2,0-0.4,0.2-0.4,0.4v0c0,0.2,0.1,0.3,0.5,0.8c0.7,0.8,0.8,1.1,0.8,1.6v0c0,0.8-0.5,1.3-1.2,1.3
		C86.6,473.6,86.4,473.5,86.1,473.4z M88.5,468.6h1.9v0.8h-1v1.2h0.9v0.8h-0.9v1.2h1v0.8h-1.9L88.5,468.6L88.5,468.6z"/>
	<path class="st4" d="M61.7,372v-0.9c0.3,0.2,0.5,0.3,0.8,0.3c0.2,0,0.5-0.1,0.5-0.4v0c0-0.2-0.1-0.4-0.5-0.9
		c-0.6-0.7-0.8-1-0.8-1.6v0c0-0.8,0.5-1.3,1.2-1.3c0.3,0,0.5,0,0.8,0.2v0.9c-0.3-0.2-0.4-0.2-0.7-0.2c-0.2,0-0.4,0.2-0.4,0.4v0
		c0,0.2,0.1,0.3,0.5,0.8c0.7,0.8,0.8,1.1,0.8,1.6v0c0,0.8-0.5,1.3-1.2,1.3C62.2,372.2,61.9,372.1,61.7,372z M64,370.7v-3.5h0.8v3.6
		c0,0.4,0.2,0.6,0.4,0.6s0.4-0.2,0.4-0.6v-3.6h0.8v3.5c0,1-0.5,1.5-1.2,1.5C64.5,372.2,64,371.7,64,370.7z M66.9,369.8v-0.2
		c0-1.6,0.7-2.4,1.6-2.4c0.3,0,0.5,0.1,0.7,0.1v0.9c-0.2-0.1-0.4-0.2-0.6-0.2c-0.5,0-0.8,0.5-0.8,1.5v0.2c0,1.3,0.4,1.6,0.7,1.6
		c0,0,0,0,0.1,0v-1.3h-0.4v-0.8h1.2v2.6c-0.3,0.1-0.6,0.2-0.9,0.2C67.6,372.2,66.9,371.5,66.9,369.8z M70.5,367.2h0.9l0.9,4.9h-0.9
		l-0.2-1h-0.8l-0.2,1h-0.8L70.5,367.2z M71.2,370.4l-0.3-1.6l-0.3,1.6H71.2z M72.6,367.2h0.9c0.9,0,1.5,0.5,1.5,1.6v0.1
		c0,0.6-0.3,1-0.6,1.3l0.7,2h-0.9l-0.6-1.7h-0.2v1.7h-0.9V367.2z M73.5,369.7c0.4,0,0.6-0.2,0.6-0.8v-0.1c0-0.6-0.3-0.8-0.7-0.8h0
		L73.5,369.7L73.5,369.7z M75.3,369.8v-0.2c0-1.7,0.6-2.4,1.4-2.4c0.2,0,0.4,0,0.6,0.1v0.9c-0.2-0.1-0.3-0.2-0.5-0.2
		c-0.4,0-0.7,0.3-0.7,1.6v0.2c0,1.3,0.3,1.6,0.7,1.6c0.1,0,0.3,0,0.5-0.2v0.8c-0.2,0.1-0.4,0.1-0.6,0.1
		C75.9,372.2,75.3,371.5,75.3,369.8z M78.4,367.2h0.9l0.9,4.9h-0.9l-0.2-1h-0.8l-0.2,1h-0.8L78.4,367.2z M79.1,370.4l-0.3-1.6
		l-0.3,1.6H79.1z M80.5,367.2h0.8l0.9,2.5v-2.5H83v4.9h-0.8l-0.9-2.6v2.6h-0.8V367.2z M83.5,367.2h1.9v0.8h-1v1.2h0.9v0.8h-0.9v1.2
		h1v0.8h-1.9C83.5,372.1,83.5,367.2,83.5,367.2z M86.9,367.2h0.8l0.6,1.8l0.6-1.8h0.8v4.9H89v-3l-0.6,1.9h0l-0.6-1.9v3h-0.8
		L86.9,367.2L86.9,367.2z M90.2,369.8v-0.3c0-1.6,0.5-2.4,1.3-2.4s1.3,0.8,1.3,2.4v0.3c0,1.6-0.5,2.4-1.3,2.4S90.2,371.4,90.2,369.8
		z M92,369.8v-0.3c0-1.3-0.2-1.6-0.4-1.6c-0.3,0-0.4,0.4-0.4,1.6v0.3c0,1.3,0.2,1.6,0.4,1.6C91.8,371.4,92,371.1,92,369.8z
		 M92.9,372.1v-0.8c0.1,0,0.3,0.1,0.4,0.1c0.3,0,0.4-0.1,0.4-0.5v-3.6h0.9v3.7c0,0.9-0.5,1.3-1.2,1.3
		C93.3,372.2,93.1,372.1,92.9,372.1z M95.2,367.2H96v4.9h-0.9V367.2z M97,368h-0.6v-0.8h2.1v0.8h-0.6v4.1H97C97,372.1,97,368,97,368
		z M98.6,369.8v-0.3c0-1.6,0.5-2.4,1.3-2.4s1.3,0.8,1.3,2.4v0.3c0,1.6-0.5,2.4-1.3,2.4S98.6,371.4,98.6,369.8z M100.3,369.8v-0.3
		c0-1.3-0.2-1.6-0.4-1.6s-0.4,0.4-0.4,1.6v0.3c0,1.3,0.2,1.6,0.4,1.6S100.3,371.1,100.3,369.8z M102.7,367.2h0.7
		c0.8,0,1.6,0.3,1.6,1.2v0c0,0.6-0.4,0.9-0.7,1.1c0.4,0.2,0.8,0.5,0.8,1.1v0.1c0,0.9-0.7,1.4-1.6,1.4h-0.8L102.7,367.2L102.7,367.2z
		 M103.6,369.3c0.4,0,0.6-0.2,0.6-0.6v0c0-0.4-0.3-0.6-0.6-0.6h0L103.6,369.3L103.6,369.3L103.6,369.3z M103.6,371.3
		c0.4,0,0.7-0.2,0.7-0.6v0c0-0.4-0.3-0.6-0.7-0.6h0L103.6,371.3L103.6,371.3L103.6,371.3z M106.1,367.2h0.9l0.9,4.9h-0.9l-0.2-1
		h-0.8l-0.2,1h-0.8L106.1,367.2z M106.8,370.4l-0.3-1.6l-0.3,1.6H106.8z M108.2,367.2h0.9c0.9,0,1.5,0.5,1.5,1.6v0.1
		c0,0.6-0.3,1-0.6,1.3l0.7,2h-0.9l-0.6-1.7h-0.2v1.7h-0.9L108.2,367.2L108.2,367.2z M109.1,369.7c0.4,0,0.6-0.2,0.6-0.8v-0.1
		c0-0.6-0.3-0.8-0.7-0.8h0L109.1,369.7L109.1,369.7z"/>
	<path class="st4" d="M39.9,380.2h0.8l0.6,1.8l0.6-1.8h0.8v4.9H42v-3l-0.6,1.9h0l-0.6-1.9v3h-0.8L39.9,380.2L39.9,380.2z
		 M43.2,382.8v-0.3c0-1.6,0.5-2.4,1.3-2.4s1.3,0.8,1.3,2.4v0.3c0,1.6-0.5,2.4-1.3,2.4S43.2,384.4,43.2,382.8z M44.9,382.8v-0.3
		c0-1.3-0.2-1.6-0.4-1.6c-0.3,0-0.4,0.4-0.4,1.6v0.3c0,1.3,0.2,1.6,0.4,1.6C44.8,384.4,44.9,384.1,44.9,382.8z M46.2,380.2H47
		c1.1,0,1.7,0.8,1.7,2.4v0.2c0,1.6-0.6,2.4-1.7,2.4h-0.8V380.2z M47.1,384.4c0.4,0,0.8-0.4,0.8-1.6v-0.2c0-1.2-0.3-1.6-0.8-1.6h0
		L47.1,384.4L47.1,384.4L47.1,384.4z M49.2,380.2H51v0.8h-1v1.2h0.9v0.8H50v1.2h1v0.8h-1.9V380.2z M51.5,380.2h0.9
		c0.9,0,1.5,0.5,1.5,1.6v0.1c0,0.6-0.3,1-0.6,1.3l0.7,2H53l-0.6-1.7h-0.2v1.7h-0.9V380.2z M52.4,382.7c0.4,0,0.6-0.2,0.6-0.8v-0.1
		c0-0.6-0.3-0.8-0.7-0.8h0L52.4,382.7L52.4,382.7z M54.3,380.2h0.8l0.9,2.5v-2.5h0.8v4.9H56l-0.9-2.6v2.6h-0.8V380.2z M57.2,382.8
		v-0.3c0-1.6,0.5-2.4,1.3-2.4s1.3,0.8,1.3,2.4v0.3c0,1.6-0.5,2.4-1.3,2.4S57.2,384.4,57.2,382.8z M58.9,382.8v-0.3
		c0-1.3-0.2-1.6-0.4-1.6s-0.4,0.4-0.4,1.6v0.3c0,1.3,0.2,1.6,0.4,1.6S58.9,384.1,58.9,382.8z M34.5,388.8v-0.2
		c0-1.7,0.6-2.4,1.4-2.4c0.2,0,0.4,0,0.6,0.1v0.9c-0.2-0.1-0.3-0.2-0.5-0.2c-0.4,0-0.7,0.3-0.7,1.6v0.2c0,1.3,0.3,1.6,0.7,1.6
		c0.1,0,0.3,0,0.5-0.2v0.8c-0.2,0.1-0.4,0.1-0.6,0.1C35.1,391.2,34.5,390.5,34.5,388.8z M36.9,386.2h0.9v2h0.7v-2h0.9v4.9h-0.9v-2.1
		h-0.7v2.1h-0.9L36.9,386.2L36.9,386.2z M39.9,389.7v-3.5h0.8v3.6c0,0.4,0.2,0.6,0.4,0.6c0.2,0,0.4-0.2,0.4-0.6v-3.6h0.8v3.5
		c0,1-0.5,1.5-1.2,1.5C40.4,391.2,39.9,390.7,39.9,389.7z M42.8,386.2h0.9c0.9,0,1.5,0.5,1.5,1.6v0.1c0,0.6-0.3,1-0.6,1.3l0.7,2
		h-0.9l-0.6-1.7h-0.2v1.7h-0.9V386.2z M43.7,388.7c0.4,0,0.6-0.2,0.6-0.8v-0.1c0-0.6-0.3-0.8-0.7-0.8h0L43.7,388.7L43.7,388.7z
		 M45.6,386.2h0.9c0.9,0,1.5,0.5,1.5,1.6v0.1c0,0.6-0.3,1-0.6,1.3l0.7,2h-0.9l-0.6-1.7h-0.2v1.7h-0.9V386.2z M46.5,388.7
		c0.4,0,0.6-0.2,0.6-0.8v-0.1c0-0.6-0.3-0.8-0.7-0.8h0L46.5,388.7L46.5,388.7z M49.1,386.2H50l0.9,4.9h-0.9l-0.2-1h-0.8l-0.2,1h-0.8
		L49.1,386.2z M49.8,389.4l-0.3-1.6l-0.3,1.6H49.8z M51.1,391v-0.9c0.3,0.2,0.5,0.3,0.8,0.3c0.2,0,0.5-0.1,0.5-0.4v0
		c0-0.2-0.1-0.4-0.5-0.9c-0.6-0.7-0.8-1-0.8-1.6v0c0-0.8,0.5-1.3,1.2-1.3c0.3,0,0.5,0,0.8,0.2v0.9c-0.3-0.2-0.4-0.2-0.7-0.2
		c-0.2,0-0.4,0.2-0.4,0.4v0c0,0.2,0.1,0.3,0.5,0.8c0.7,0.8,0.8,1.1,0.8,1.6v0c0,0.8-0.5,1.3-1.2,1.3C51.6,391.2,51.3,391.1,51.1,391
		z M53.3,388.8v-0.2c0-1.7,0.6-2.4,1.4-2.4c0.2,0,0.4,0,0.6,0.1v0.9c-0.2-0.1-0.3-0.2-0.5-0.2c-0.4,0-0.7,0.3-0.7,1.6v0.2
		c0,1.3,0.3,1.6,0.7,1.6c0.1,0,0.3,0,0.5-0.2v0.8c-0.2,0.1-0.4,0.1-0.6,0.1C53.9,391.2,53.3,390.5,53.3,388.8z M56.4,386.2h0.9
		l0.9,4.9h-0.9l-0.2-1h-0.8l-0.2,1h-0.8L56.4,386.2z M57.1,389.4l-0.3-1.6l-0.3,1.6H57.1z M58.5,386.2h0.9c0.9,0,1.5,0.5,1.5,1.6
		v0.1c0,0.6-0.3,1-0.6,1.3l0.7,2h-0.9l-0.6-1.7h-0.2v1.7h-0.9V386.2z M59.4,388.7c0.4,0,0.6-0.2,0.6-0.8v-0.1c0-0.6-0.3-0.8-0.7-0.8
		h0L59.4,388.7L59.4,388.7z M61.3,386.2h0.9v4.9h-0.9V386.2z M63.4,386.2h0.9l0.9,4.9h-0.9l-0.2-1h-0.8l-0.2,1h-0.8L63.4,386.2z
		 M64.1,389.4l-0.3-1.6l-0.3,1.6H64.1z"/>
	<path class="st4" d="M56.7,684.1v-0.9c0.3,0.2,0.5,0.3,0.8,0.3c0.2,0,0.5-0.1,0.5-0.4v0c0-0.2-0.1-0.4-0.5-0.9
		c-0.6-0.7-0.8-1-0.8-1.6v0c0-0.8,0.5-1.3,1.2-1.3c0.3,0,0.5,0,0.8,0.2v0.9c-0.3-0.2-0.4-0.2-0.7-0.2c-0.2,0-0.4,0.2-0.4,0.4v0
		c0,0.2,0.1,0.3,0.5,0.8c0.7,0.8,0.8,1.1,0.8,1.6v0c0,0.8-0.5,1.3-1.2,1.3C57.2,684.3,56.9,684.2,56.7,684.1z M59,682.8v-3.5h0.8
		v3.6c0,0.4,0.2,0.6,0.4,0.6c0.2,0,0.4-0.2,0.4-0.6v-3.6h0.8v3.5c0,1-0.5,1.5-1.2,1.5C59.5,684.3,59,683.8,59,682.8z M61.9,679.3
		h0.8l0.9,2.5v-2.5h0.8v4.9h-0.8l-0.9-2.6v2.6h-0.8C61.9,684.2,61.9,679.3,61.9,679.3z M66.1,679.3h0.8c1.1,0,1.7,0.8,1.7,2.4v0.2
		c0,1.6-0.6,2.4-1.7,2.4h-0.8V679.3z M66.9,683.5c0.4,0,0.8-0.4,0.8-1.6v-0.2c0-1.2-0.3-1.6-0.8-1.6h0L66.9,683.5L66.9,683.5
		L66.9,683.5z M69,679.3h1.9v0.8h-1v1.2h0.9v0.8h-0.9v1.2h1v0.8H69C69,684.2,69,679.3,69,679.3z M71.1,681.9v-0.2
		c0-1.7,0.6-2.4,1.4-2.4c0.2,0,0.4,0,0.6,0.1v0.9c-0.2-0.1-0.3-0.2-0.5-0.2c-0.4,0-0.7,0.3-0.7,1.6v0.2c0,1.3,0.3,1.6,0.7,1.6
		c0.1,0,0.3,0,0.5-0.2v0.8c-0.2,0.1-0.4,0.1-0.6,0.1C71.7,684.3,71.1,683.6,71.1,681.9z M73.6,679.3h0.9v2.1l0.7-2.1h1l-0.8,2.1
		l0.8,2.8h-1l-0.5-1.9l-0.2,0.5v1.3h-0.9V679.3z"/>
	<path class="st4" d="M93.4,647.3v-0.9c0.3,0.2,0.5,0.3,0.8,0.3c0.2,0,0.5-0.1,0.5-0.4v0c0-0.2-0.1-0.4-0.5-0.9
		c-0.6-0.7-0.8-1-0.8-1.6v0c0-0.8,0.5-1.3,1.2-1.3c0.3,0,0.5,0,0.8,0.2v0.9c-0.3-0.2-0.4-0.2-0.7-0.2c-0.2,0-0.4,0.2-0.4,0.4v0
		c0,0.2,0.1,0.3,0.5,0.8c0.7,0.8,0.8,1.1,0.8,1.6v0c0,0.8-0.5,1.3-1.2,1.3C94,647.5,93.7,647.4,93.4,647.3z M95.8,642.6h0.8
		c0.9,0,1.6,0.5,1.6,1.7v0c0,1.1-0.6,1.6-1.5,1.7h0v1.5h-0.9L95.8,642.6L95.8,642.6z M96.7,645.2c0.4,0,0.6-0.3,0.6-0.9v0
		c0-0.6-0.2-0.9-0.6-0.9h0L96.7,645.2L96.7,645.2L96.7,645.2z M98.5,642.6h0.9v4.1h0.9v0.8h-1.8L98.5,642.6L98.5,642.6L98.5,642.6z
		 M101.3,642.6h0.9l0.9,4.9h-0.9l-0.2-1h-0.8l-0.2,1h-0.8L101.3,642.6z M102,645.7l-0.3-1.6l-0.3,1.6H102z M103.3,647.3v-0.9
		c0.3,0.2,0.5,0.3,0.8,0.3c0.2,0,0.5-0.1,0.5-0.4v0c0-0.2-0.1-0.4-0.5-0.9c-0.6-0.7-0.8-1-0.8-1.6v0c0-0.8,0.5-1.3,1.2-1.3
		c0.3,0,0.5,0,0.8,0.2v0.9c-0.3-0.2-0.4-0.2-0.7-0.2c-0.2,0-0.4,0.2-0.4,0.4v0c0,0.2,0.1,0.3,0.5,0.8c0.7,0.8,0.8,1.1,0.8,1.6v0
		c0,0.8-0.5,1.3-1.2,1.3C103.8,647.5,103.5,647.4,103.3,647.3z M105.6,642.6h0.9v2h0.7v-2h0.9v4.9h-0.9v-2.1h-0.7v2.1h-0.9V642.6z
		 M92.2,648.6h0.9l0.9,4.9h-0.9l-0.2-1h-0.8l-0.2,1h-0.8L92.2,648.6z M92.9,651.7l-0.3-1.6l-0.3,1.6H92.9z M94.1,651.1V651
		c0-1.7,0.6-2.4,1.4-2.4c0.2,0,0.4,0,0.6,0.1v0.9c-0.2-0.1-0.3-0.2-0.5-0.2c-0.4,0-0.7,0.3-0.7,1.6v0.2c0,1.3,0.3,1.6,0.7,1.6
		c0.1,0,0.3,0,0.5-0.2v0.8c-0.2,0.1-0.4,0.1-0.6,0.1C94.7,653.5,94.1,652.8,94.1,651.1z M97.2,648.6h0.9l0.9,4.9h-0.9l-0.2-1h-0.8
		l-0.2,1h-0.8L97.2,648.6z M97.9,651.7l-0.3-1.6l-0.3,1.6H97.9z M99.3,648.6h0.8c1.1,0,1.7,0.8,1.7,2.4v0.2c0,1.6-0.6,2.4-1.7,2.4
		h-0.8V648.6z M100.2,652.7c0.4,0,0.8-0.4,0.8-1.6V651c0-1.2-0.4-1.6-0.8-1.6h0L100.2,652.7L100.2,652.7L100.2,652.7z M102.3,648.6
		h1.9v0.8h-1v1.2h0.9v0.8h-0.9v1.2h1v0.8h-1.9L102.3,648.6L102.3,648.6z M104.6,648.6h0.8l0.6,1.8l0.6-1.8h0.8v4.9h-0.8v-3l-0.6,1.9
		h0l-0.6-1.9v3h-0.8L104.6,648.6L104.6,648.6z M108.6,651.6l-0.9-3h0.9l0.5,1.8l0.5-1.8h0.9l-0.9,3v1.9h-0.9L108.6,651.6
		L108.6,651.6z M94.9,657.6l-0.9-3h0.9l0.5,1.8l0.5-1.8h0.9l-0.9,3v1.9h-0.9L94.9,657.6L94.9,657.6z M96.7,657.2v-0.3
		c0-1.6,0.5-2.4,1.3-2.4s1.3,0.8,1.3,2.4v0.3c0,1.6-0.5,2.4-1.3,2.4S96.7,658.8,96.7,657.2z M98.4,657.2v-0.3c0-1.3-0.2-1.6-0.4-1.6
		c-0.3,0-0.4,0.4-0.4,1.6v0.3c0,1.3,0.2,1.6,0.4,1.6C98.3,658.8,98.4,658.4,98.4,657.2z M99.7,658.1v-3.5h0.8v3.6
		c0,0.4,0.2,0.6,0.4,0.6s0.4-0.2,0.4-0.6v-3.6h0.8v3.5c0,1-0.5,1.5-1.2,1.5S99.7,659.1,99.7,658.1z M103.1,655.4h-0.6v-0.8h2.1v0.8
		H104v4.1h-0.9C103.1,659.5,103.1,655.4,103.1,655.4z M104.9,654.6h0.9v2h0.7v-2h0.9v4.9h-0.9v-2.1h-0.7v2.1h-0.9V654.6z
		 M93.5,663.1V663c0-1.7,0.6-2.4,1.4-2.4c0.2,0,0.4,0,0.6,0.1v0.9c-0.2-0.1-0.3-0.2-0.5-0.2c-0.4,0-0.7,0.3-0.7,1.6v0.2
		c0,1.3,0.3,1.6,0.7,1.6c0.1,0,0.3,0,0.5-0.2v0.8c-0.2,0.1-0.4,0.1-0.6,0.1C94.1,665.5,93.5,664.8,93.5,663.1z M95.9,660.6h1.9v0.8
		h-1v1.2h0.9v0.8h-0.9v1.2h1v0.8h-1.9L95.9,660.6L95.9,660.6z M98.2,660.6H99l0.9,2.5v-2.5h0.8v4.9h-0.8l-0.9-2.6v2.6h-0.8V660.6z
		 M101.7,661.4h-0.6v-0.8h2.1v0.8h-0.6v4.1h-0.9C101.7,665.5,101.7,661.4,101.7,661.4z M103.5,660.6h1.9v0.8h-1v1.2h0.9v0.8h-0.9
		v1.2h1v0.8h-1.9L103.5,660.6L103.5,660.6z M105.8,660.6h0.9c0.9,0,1.5,0.5,1.5,1.6v0.1c0,0.6-0.3,1-0.6,1.3l0.7,2h-0.9l-0.6-1.7
		h-0.2v1.7h-0.9L105.8,660.6L105.8,660.6z M106.7,663c0.4,0,0.6-0.2,0.6-0.8v-0.1c0-0.6-0.3-0.8-0.7-0.8h0L106.7,663L106.7,663z"/>
	<path class="st4" d="M23.2,647.3v-0.9c0.3,0.2,0.5,0.3,0.8,0.3c0.2,0,0.5-0.1,0.5-0.4v0c0-0.2-0.1-0.4-0.5-0.9
		c-0.6-0.7-0.8-1-0.8-1.6v0c0-0.8,0.5-1.3,1.2-1.3c0.3,0,0.5,0,0.8,0.2v0.9c-0.3-0.2-0.4-0.2-0.7-0.2c-0.2,0-0.4,0.2-0.4,0.4v0
		c0,0.2,0.1,0.3,0.5,0.8c0.7,0.8,0.8,1.1,0.8,1.6v0c0,0.8-0.5,1.3-1.2,1.3C23.7,647.5,23.4,647.4,23.2,647.3z M25.5,642.6h0.8
		c0.9,0,1.6,0.5,1.6,1.7v0c0,1.1-0.6,1.6-1.5,1.7h0v1.5h-0.9V642.6z M26.4,645.2c0.4,0,0.6-0.3,0.6-0.9v0c0-0.6-0.2-0.9-0.6-0.9h0
		L26.4,645.2L26.4,645.2L26.4,645.2z M28.2,642.6h0.9v4.1H30v0.8h-1.8L28.2,642.6L28.2,642.6z M31,642.6h0.9l0.9,4.9H32l-0.2-1H31
		l-0.2,1h-0.8L31,642.6z M31.7,645.7l-0.3-1.6l-0.3,1.6H31.7z M33,647.3v-0.9c0.3,0.2,0.5,0.3,0.8,0.3c0.2,0,0.5-0.1,0.5-0.4v0
		c0-0.2-0.1-0.4-0.5-0.9c-0.6-0.7-0.8-1-0.8-1.6v0c0-0.8,0.5-1.3,1.2-1.3c0.3,0,0.5,0,0.8,0.2v0.9c-0.3-0.2-0.4-0.2-0.7-0.2
		c-0.2,0-0.4,0.2-0.4,0.4v0c0,0.2,0.1,0.3,0.5,0.8c0.7,0.8,0.8,1.1,0.8,1.6v0c0,0.8-0.5,1.3-1.2,1.3C33.5,647.5,33.2,647.4,33,647.3
		z M35.4,642.6h0.9v2H37v-2h0.9v4.9H37v-2.1h-0.7v2.1h-0.9V642.6z M21.9,648.6h0.9l0.9,4.9h-0.9l-0.2-1H22l-0.2,1H21L21.9,648.6z
		 M22.6,651.7l-0.3-1.6l-0.3,1.6H22.6z M23.8,651.1V651c0-1.7,0.6-2.4,1.4-2.4c0.2,0,0.4,0,0.6,0.1v0.9c-0.2-0.1-0.3-0.2-0.5-0.2
		c-0.4,0-0.7,0.3-0.7,1.6v0.2c0,1.3,0.3,1.6,0.7,1.6c0.1,0,0.3,0,0.5-0.2v0.8c-0.2,0.1-0.4,0.1-0.6,0.1
		C24.4,653.5,23.8,652.8,23.8,651.1z M27,648.6h0.9l0.9,4.9H28l-0.2-1H27l-0.2,1H26L27,648.6z M27.7,651.7l-0.3-1.6l-0.3,1.6H27.7z
		 M29.1,648.6h0.8c1.1,0,1.7,0.8,1.7,2.4v0.2c0,1.6-0.6,2.4-1.7,2.4h-0.8V648.6z M30,652.7c0.4,0,0.8-0.4,0.8-1.6V651
		c0-1.2-0.4-1.6-0.8-1.6h0L30,652.7L30,652.7L30,652.7z M32,648.6h1.9v0.8h-1v1.2h0.9v0.8h-0.9v1.2h1v0.8H32V648.6z M34.3,648.6h0.8
		l0.6,1.8l0.6-1.8h0.8v4.9h-0.8v-3l-0.6,1.9h0l-0.6-1.9v3h-0.8V648.6z M38.4,651.6l-0.9-3h0.9l0.5,1.8l0.5-1.8h0.9l-0.9,3v1.9h-0.9
		L38.4,651.6L38.4,651.6z M24.7,657.6l-0.9-3h0.9l0.5,1.8l0.5-1.8h0.9l-0.9,3v1.9h-0.9L24.7,657.6L24.7,657.6z M26.4,657.2v-0.3
		c0-1.6,0.5-2.4,1.3-2.4c0.8,0,1.3,0.8,1.3,2.4v0.3c0,1.6-0.5,2.4-1.3,2.4C27,659.6,26.4,658.8,26.4,657.2z M28.2,657.2v-0.3
		c0-1.3-0.2-1.6-0.4-1.6c-0.3,0-0.4,0.4-0.4,1.6v0.3c0,1.3,0.2,1.6,0.4,1.6C28,658.8,28.2,658.4,28.2,657.2z M29.5,658.1v-3.5h0.8
		v3.6c0,0.4,0.2,0.6,0.4,0.6c0.2,0,0.4-0.2,0.4-0.6v-3.6h0.8v3.5c0,1-0.5,1.5-1.2,1.5C30,659.6,29.5,659.1,29.5,658.1z M32.8,655.4
		h-0.6v-0.8h2.1v0.8h-0.6v4.1h-0.9C32.8,659.5,32.8,655.4,32.8,655.4z M34.7,654.6h0.9v2h0.7v-2h0.9v4.9h-0.9v-2.1h-0.7v2.1h-0.9
		V654.6z M23.2,663.1V663c0-1.7,0.6-2.4,1.4-2.4c0.2,0,0.4,0,0.6,0.1v0.9c-0.2-0.1-0.3-0.2-0.5-0.2c-0.4,0-0.7,0.3-0.7,1.6v0.2
		c0,1.3,0.3,1.6,0.7,1.6c0.1,0,0.3,0,0.5-0.2v0.8c-0.2,0.1-0.4,0.1-0.6,0.1C23.8,665.5,23.2,664.8,23.2,663.1z M25.6,660.6h1.9v0.8
		h-1v1.2h0.9v0.8h-0.9v1.2h1v0.8h-1.9C25.6,665.5,25.6,660.6,25.6,660.6z M28,660.6h0.8l0.9,2.5v-2.5h0.8v4.9h-0.8l-0.9-2.6v2.6H28
		V660.6z M31.4,661.4h-0.6v-0.8h2.1v0.8h-0.6v4.1h-0.9V661.4z M33.2,660.6h1.9v0.8h-1v1.2H35v0.8h-0.9v1.2h1v0.8h-1.9V660.6z
		 M35.5,660.6h0.9c0.9,0,1.5,0.5,1.5,1.6v0.1c0,0.6-0.3,1-0.6,1.3l0.7,2h-0.9l-0.6-1.7h-0.2v1.7h-0.9L35.5,660.6L35.5,660.6z
		 M36.4,663c0.4,0,0.6-0.2,0.6-0.8v-0.1c0-0.6-0.3-0.8-0.7-0.8h0L36.4,663L36.4,663z"/>
	<path class="st4" d="M57,710.2h0.9v2h0.7v-2h0.9v4.9h-0.9v-2.1h-0.7v2.1H57L57,710.2L57,710.2z M60,710.2h1.9v0.8h-1v1.2h0.9v0.8
		h-0.9v1.2h1v0.8H60V710.2z M62.3,710.2h0.9v4.1H64v0.8h-1.8L62.3,710.2L62.3,710.2z M64.4,710.2h0.9v4.9h-0.9V710.2z M65.8,710.2
		h0.8c0.9,0,1.6,0.5,1.6,1.7v0c0,1.1-0.6,1.6-1.5,1.7h0v1.5h-0.9L65.8,710.2L65.8,710.2z M66.6,712.8c0.4,0,0.6-0.3,0.6-0.9v0
		c0-0.6-0.2-0.9-0.6-0.9h0L66.6,712.8L66.6,712.8L66.6,712.8z M68.9,710.2h0.9l0.9,4.9h-0.9l-0.2-1H69l-0.2,1H68L68.9,710.2z
		 M69.6,713.4l-0.3-1.6l-0.3,1.6H69.6z M71,710.2h0.8c1.1,0,1.7,0.8,1.7,2.4v0.2c0,1.6-0.6,2.4-1.7,2.4H71V710.2z M71.9,714.3
		c0.4,0,0.8-0.4,0.8-1.6v-0.2c0-1.2-0.4-1.6-0.8-1.6h0L71.9,714.3L71.9,714.3L71.9,714.3z"/>
	<path class="st4" d="M49.9,417.1h0.9c0.9,0,1.5,0.5,1.5,1.6v0.1c0,0.6-0.3,1-0.6,1.3l0.7,2h-0.9l-0.6-1.7h-0.2v1.7h-0.9L49.9,417.1
		L49.9,417.1z M50.8,419.5c0.4,0,0.6-0.2,0.6-0.8v-0.1c0-0.6-0.3-0.8-0.7-0.8h0L50.8,419.5L50.8,419.5z M52.7,417.1h0.9
		c0.9,0,1.5,0.5,1.5,1.6v0.1c0,0.6-0.3,1-0.6,1.3l0.7,2h-0.9l-0.6-1.7h-0.2v1.7h-0.9L52.7,417.1L52.7,417.1z M53.5,419.5
		c0.4,0,0.6-0.2,0.6-0.8v-0.1c0-0.6-0.3-0.8-0.7-0.8h0L53.5,419.5L53.5,419.5z"/>
	<path class="st4" d="M76,417.1h0.9c0.9,0,1.5,0.5,1.5,1.6v0.1c0,0.6-0.3,1-0.6,1.3l0.7,2h-0.9l-0.6-1.7h-0.2v1.7H76V417.1z
		 M76.9,419.5c0.4,0,0.6-0.2,0.6-0.8v-0.1c0-0.6-0.3-0.8-0.7-0.8h0L76.9,419.5L76.9,419.5z M78.8,417.1h0.9c0.9,0,1.5,0.5,1.5,1.6
		v0.1c0,0.6-0.3,1-0.6,1.3l0.7,2h-0.9l-0.6-1.7h-0.2v1.7h-0.9L78.8,417.1L78.8,417.1z M79.7,419.5c0.4,0,0.6-0.2,0.6-0.8v-0.1
		c0-0.6-0.3-0.8-0.7-0.8h0L79.7,419.5L79.7,419.5z"/>
	<path class="st4" d="M90.5,412.7h0.9c0.9,0,1.5,0.5,1.5,1.6v0.1c0,0.6-0.3,1-0.6,1.3l0.7,2H92l-0.6-1.7h-0.2v1.7h-0.9L90.5,412.7
		L90.5,412.7z M91.4,415.1c0.4,0,0.6-0.2,0.6-0.8v-0.1c0-0.6-0.3-0.8-0.7-0.8h0L91.4,415.1L91.4,415.1z M93.2,412.7h0.9
		c0.9,0,1.5,0.5,1.5,1.6v0.1c0,0.6-0.3,1-0.6,1.3l0.7,2h-0.9l-0.6-1.7h-0.2v1.7h-0.9V412.7z M94.1,415.1c0.4,0,0.6-0.2,0.6-0.8v-0.1
		c0-0.6-0.3-0.8-0.7-0.8h0L94.1,415.1L94.1,415.1z"/>
	<path class="st4" d="M52.6,450v-0.3c0-1.6,0.5-2.4,1.3-2.4s1.3,0.8,1.3,2.4v0.3c0,1.6-0.5,2.4-1.3,2.4S52.6,451.6,52.6,450z
		 M54.4,450v-0.3c0-1.3-0.2-1.6-0.4-1.6s-0.4,0.4-0.4,1.6v0.3c0,1.3,0.2,1.6,0.4,1.6S54.4,451.3,54.4,450z M55.7,447.4h0.8
		c0.9,0,1.6,0.5,1.6,1.7v0c0,1.1-0.6,1.6-1.5,1.7h0v1.5h-0.9L55.7,447.4L55.7,447.4z M56.5,450c0.4,0,0.6-0.3,0.6-0.9v0
		c0-0.6-0.2-0.9-0.6-0.9h0L56.5,450L56.5,450L56.5,450z M58.4,447.4h1.9v0.8h-1v1.2h0.9v0.8h-0.9v1.2h1v0.8h-1.9V447.4z M60.7,447.4
		h0.8l0.9,2.5v-2.5h0.8v4.9h-0.8l-0.9-2.6v2.6h-0.8V447.4z M65.2,448.3h-0.6v-0.8h2.1v0.8h-0.6v4.1h-0.9
		C65.2,452.3,65.2,448.3,65.2,448.3z M66.8,450v-0.3c0-1.6,0.5-2.4,1.3-2.4s1.3,0.8,1.3,2.4v0.3c0,1.6-0.5,2.4-1.3,2.4
		S66.8,451.6,66.8,450z M68.6,450v-0.3c0-1.3-0.2-1.6-0.4-1.6s-0.4,0.4-0.4,1.6v0.3c0,1.3,0.2,1.6,0.4,1.6S68.6,451.3,68.6,450z
		 M71,447.4h0.8c1.1,0,1.7,0.8,1.7,2.4v0.2c0,1.6-0.6,2.4-1.7,2.4H71V447.4z M71.9,451.6c0.4,0,0.8-0.4,0.8-1.6v-0.2
		c0-1.2-0.4-1.6-0.8-1.6h0L71.9,451.6L71.9,451.6z M73.9,447.4h1.9v0.8h-1v1.2h0.9v0.8h-0.9v1.2h1v0.8h-1.9L73.9,447.4L73.9,447.4z
		 M76.1,450v-0.2c0-1.7,0.6-2.4,1.4-2.4c0.2,0,0.4,0,0.6,0.1v0.9c-0.2-0.1-0.3-0.2-0.5-0.2c-0.4,0-0.7,0.3-0.7,1.6v0.2
		c0,1.3,0.3,1.6,0.7,1.6c0.1,0,0.3,0,0.5-0.2v0.8c-0.2,0.1-0.4,0.1-0.6,0.1C76.7,452.4,76.1,451.7,76.1,450z M78.5,447.4h0.9v2.1
		l0.7-2.1h1l-0.8,2.1l0.8,2.8h-1l-0.5-1.9l-0.2,0.5v1.3h-0.9L78.5,447.4L78.5,447.4z M60,453.4h0.7c0.8,0,1.6,0.3,1.6,1.2v0
		c0,0.6-0.4,0.9-0.7,1.1c0.4,0.2,0.8,0.5,0.8,1.1v0.1c0,0.9-0.7,1.4-1.6,1.4H60V453.4z M60.9,455.5c0.4,0,0.6-0.2,0.6-0.6v0
		c0-0.4-0.3-0.6-0.6-0.6h0L60.9,455.5L60.9,455.5z M60.9,457.6c0.4,0,0.7-0.2,0.7-0.6v0c0-0.4-0.3-0.6-0.7-0.6h0L60.9,457.6
		L60.9,457.6z M62.8,453.4h1.9v0.8h-1v1.2h0.9v0.8h-0.9v1.2h1v0.8h-1.9C62.8,458.3,62.8,453.4,62.8,453.4z M65.1,453.4h0.9v4.1h0.9
		v0.8h-1.8C65.1,458.3,65.1,453.4,65.1,453.4z M66.9,456v-0.3c0-1.6,0.5-2.4,1.3-2.4s1.3,0.8,1.3,2.4v0.3c0,1.6-0.5,2.4-1.3,2.4
		S66.9,457.6,66.9,456z M68.7,456v-0.3c0-1.3-0.2-1.6-0.4-1.6s-0.4,0.4-0.4,1.6v0.3c0,1.3,0.2,1.6,0.4,1.6S68.7,457.3,68.7,456z
		 M69.7,453.4h0.9l0.4,3l0.4-3h0.8l0.4,3l0.4-3h0.9l-0.7,4.9h-0.9l-0.4-2.9l-0.4,2.9h-0.9L69.7,453.4z"/>
	<path class="st4" d="M13.2,630.5h-1c0.2-0.3,0.3-0.6,0.3-0.9c0-0.3-0.1-0.5-0.5-0.5h0c-0.3,0-0.4,0.1-1,0.5
		c-0.8,0.7-1.1,0.9-1.8,0.9h0c-0.9,0-1.5-0.6-1.5-1.4c0-0.4,0.1-0.6,0.2-0.9h1c-0.2,0.3-0.3,0.5-0.3,0.7c0,0.3,0.2,0.5,0.5,0.5h0
		c0.3,0,0.4-0.1,0.9-0.5c0.9-0.8,1.2-0.9,1.9-0.9h0c0.9,0,1.5,0.6,1.5,1.4C13.4,629.9,13.4,630.2,13.2,630.5z M7.8,627.7v-0.9
		c0-1.1,0.6-1.8,1.9-1.8h0c1.3,0,1.9,0.7,1.9,1.7v0h1.8v1H7.8z M10.7,626.8c0-0.4-0.3-0.7-1-0.7h0c-0.7,0-1,0.3-1,0.7v0L10.7,626.8
		C10.7,626.8,10.7,626.8,10.7,626.8z M10.8,624.8h-0.3c-1.8,0-2.7-0.6-2.7-1.5s0.9-1.5,2.7-1.5h0.3c1.8,0,2.7,0.6,2.7,1.5
		C13.5,624.2,12.6,624.8,10.8,624.8z M10.8,622.8h-0.3c-1.4,0-1.8,0.2-1.8,0.5s0.4,0.5,1.8,0.5h0.3c1.4,0,1.8-0.2,1.8-0.5
		S12.2,622.8,10.8,622.8z M7.8,621.3v-1c0-1,0.5-1.7,1.8-1.7h0.1c0.7,0,1.2,0.3,1.5,0.7l2.3-0.8v1l-2,0.6v0.2h2v1L7.8,621.3
		L7.8,621.3z M10.6,620.3c0-0.4-0.2-0.7-0.9-0.7H9.6c-0.7,0-0.9,0.3-0.9,0.8v0L10.6,620.3L10.6,620.3z M8.7,617.7v0.7H7.8V616h0.9
		v0.7h4.7v1L8.7,617.7L8.7,617.7z M13.2,615.7h-1c0.2-0.3,0.3-0.6,0.3-0.9c0-0.3-0.1-0.5-0.5-0.5h0c-0.3,0-0.4,0.1-1,0.5
		c-0.8,0.7-1.1,0.9-1.8,0.9h0c-0.9,0-1.5-0.6-1.5-1.4c0-0.4,0.1-0.6,0.2-0.9h1c-0.2,0.3-0.3,0.5-0.3,0.7c0,0.3,0.2,0.5,0.5,0.5h0
		c0.3,0,0.4-0.1,0.9-0.5c0.9-0.8,1.2-0.9,1.9-0.9h0c0.9,0,1.5,0.6,1.5,1.4C13.4,615.1,13.4,615.4,13.2,615.7z M7.8,611.7v-0.9
		c0-1.2,0.9-2,2.7-2h0.2c1.8,0,2.7,0.7,2.7,2v0.9H7.8z M12.5,610.7c0-0.5-0.4-0.9-1.8-0.9h-0.2c-1.4,0-1.8,0.4-1.8,0.9v0L12.5,610.7
		C12.5,610.8,12.5,610.7,12.5,610.7z M7.8,608.4v-2.1h0.9v1.2h1.4v-1h0.9v1h1.4v-1.2h0.9v2.2L7.8,608.4L7.8,608.4z M10.7,605.9h-0.2
		c-2,0-2.7-0.7-2.7-1.6c0-0.3,0-0.4,0.1-0.6h1c-0.1,0.2-0.2,0.4-0.2,0.5c0,0.4,0.4,0.7,1.8,0.7h0.2c1.5,0,1.8-0.3,1.8-0.8
		c0-0.2-0.1-0.3-0.2-0.5h1c0.1,0.2,0.2,0.4,0.2,0.7C13.4,605.2,12.7,605.9,10.7,605.9z M7.8,603.1v-1h2.3l-2.3-0.8v-1.1l2.4,0.9
		l3.2-1v1.1l-2.1,0.6l0.6,0.2h1.5v1L7.8,603.1L7.8,603.1z"/>
	<path class="st4" d="M6.4,405.9H5.6c0-0.1,0.1-0.3,0.1-0.4c0-0.3-0.1-0.4-0.5-0.4H1.6v-0.9h3.7c0.9,0,1.3,0.5,1.3,1.2
		C6.5,405.6,6.5,405.8,6.4,405.9z M4.1,403.8H3.9c-1.6,0-2.4-0.5-2.4-1.3s0.8-1.3,2.4-1.3h0.3c1.6,0,2.4,0.5,2.4,1.3
		S5.8,403.8,4.1,403.8z M4.1,402.1H3.9c-1.3,0-1.6,0.2-1.6,0.4s0.4,0.4,1.6,0.4h0.3c1.3,0,1.6-0.2,1.6-0.4
		C5.7,402.3,5.4,402.1,4.1,402.1z M4.1,400.9H3.9c-1.6,0-2.4-0.7-2.4-1.6c0-0.3,0.1-0.5,0.1-0.7h0.9c-0.1,0.2-0.2,0.4-0.2,0.6
		c0,0.5,0.5,0.8,1.5,0.8h0.2c1.3,0,1.6-0.4,1.6-0.7c0,0,0,0,0-0.1H4.4v0.4H3.7v-1.2h2.6c0.1,0.3,0.2,0.6,0.2,0.9
		C6.5,400.2,5.8,400.9,4.1,400.9z M4.1,398.1H3.9c-1.6,0-2.4-0.7-2.4-1.6c0-0.3,0.1-0.5,0.1-0.7h0.9c-0.1,0.2-0.2,0.4-0.2,0.6
		c0,0.5,0.5,0.8,1.5,0.8h0.2c1.3,0,1.6-0.4,1.6-0.7c0,0,0,0,0-0.1H4.4v0.4H3.7v-1.2h2.6c0.1,0.3,0.2,0.6,0.2,0.9
		C6.5,397.3,5.8,398.1,4.1,398.1z M1.6,395.1v-0.9h4.9v0.9H1.6z M1.6,393.7v-0.8l2.5-0.9H1.6v-0.8h4.9v0.8l-2.6,0.9h2.6v0.8
		L1.6,393.7L1.6,393.7z M4.1,390.8H3.9c-1.6,0-2.4-0.7-2.4-1.6c0-0.3,0.1-0.5,0.1-0.7h0.9c-0.1,0.2-0.2,0.4-0.2,0.6
		c0,0.5,0.5,0.8,1.5,0.8h0.2c1.3,0,1.6-0.4,1.6-0.7c0,0,0,0,0-0.1H4.4v0.4H3.7v-1.2h2.6c0.1,0.3,0.2,0.6,0.2,0.9
		C6.5,390.1,5.8,390.8,4.1,390.8z M2.4,386.3v0.6H1.6v-2.1h0.8v0.6h4.1v0.9H2.4z M1.6,384.5v-0.9c0-0.9,0.5-1.5,1.6-1.5h0.1
		c0.6,0,1,0.3,1.3,0.6l2-0.7v0.9l-1.7,0.6v0.2h1.7v0.9L1.6,384.5L1.6,384.5z M4,383.6c0-0.4-0.2-0.6-0.8-0.6H3.1
		c-0.6,0-0.8,0.3-0.8,0.7v0L4,383.6L4,383.6L4,383.6z M1.5,381.1v-0.9l4.9-0.9v0.9l-1,0.2v0.8l1,0.2v0.8L1.5,381.1z M4.7,380.4
		l-1.6,0.3l1.6,0.3V380.4z M4.1,379.1H3.9c-1.7,0-2.4-0.6-2.4-1.4c0-0.2,0-0.4,0.1-0.6h0.9c-0.1,0.2-0.2,0.3-0.2,0.5
		c0,0.4,0.3,0.7,1.6,0.7h0.2c1.3,0,1.6-0.3,1.6-0.7c0-0.1,0-0.3-0.2-0.5h0.8c0.1,0.2,0.1,0.4,0.1,0.6C6.5,378.5,5.8,379.1,4.1,379.1
		z M1.6,376.7v-0.9h2.1l-2.1-0.7v-1l2.1,0.8l2.8-0.8v1l-1.9,0.5l0.5,0.2h1.3v0.9H1.6z"/>
	<path class="st4" d="M129.4,405.9h-0.8c0-0.1,0.1-0.3,0.1-0.4c0-0.3-0.1-0.4-0.5-0.4h-3.6v-0.9h3.7c0.9,0,1.3,0.5,1.3,1.2
		C129.5,405.6,129.4,405.8,129.4,405.9z M127.1,403.8h-0.3c-1.6,0-2.4-0.5-2.4-1.3s0.8-1.3,2.4-1.3h0.3c1.6,0,2.4,0.5,2.4,1.3
		S128.7,403.8,127.1,403.8z M127.1,402.1h-0.3c-1.3,0-1.6,0.2-1.6,0.4s0.4,0.4,1.6,0.4h0.3c1.3,0,1.6-0.2,1.6-0.4
		C128.7,402.3,128.4,402.1,127.1,402.1z M127.1,400.9h-0.2c-1.6,0-2.4-0.7-2.4-1.6c0-0.3,0.1-0.5,0.1-0.7h0.9
		c-0.1,0.2-0.2,0.4-0.2,0.6c0,0.5,0.5,0.8,1.5,0.8h0.2c1.3,0,1.6-0.4,1.6-0.7c0,0,0,0,0-0.1h-1.3v0.4h-0.8v-1.2h2.6
		c0.1,0.3,0.2,0.6,0.2,0.9C129.5,400.2,128.8,400.9,127.1,400.9z M127.1,398.1h-0.2c-1.6,0-2.4-0.7-2.4-1.6c0-0.3,0.1-0.5,0.1-0.7
		h0.9c-0.1,0.2-0.2,0.4-0.2,0.6c0,0.5,0.5,0.8,1.5,0.8h0.2c1.3,0,1.6-0.4,1.6-0.7c0,0,0,0,0-0.1h-1.3v0.4h-0.8v-1.2h2.6
		c0.1,0.3,0.2,0.6,0.2,0.9C129.5,397.3,128.8,398.1,127.1,398.1z M124.5,395.1v-0.9h4.9v0.9H124.5z M124.5,393.7v-0.8l2.5-0.9h-2.5
		v-0.8h4.9v0.8l-2.6,0.9h2.6v0.8L124.5,393.7L124.5,393.7z M127.1,390.8h-0.2c-1.6,0-2.4-0.7-2.4-1.6c0-0.3,0.1-0.5,0.1-0.7h0.9
		c-0.1,0.2-0.2,0.4-0.2,0.6c0,0.5,0.5,0.8,1.5,0.8h0.2c1.3,0,1.6-0.4,1.6-0.7c0,0,0,0,0-0.1h-1.3v0.4h-0.8v-1.2h2.6
		c0.1,0.3,0.2,0.6,0.2,0.9C129.5,390.1,128.8,390.8,127.1,390.8z M125.3,386.3v0.6h-0.8v-2.1h0.8v0.6h4.1v0.9H125.3z M124.5,384.5
		v-0.9c0-0.9,0.5-1.5,1.6-1.5h0.1c0.6,0,1,0.3,1.3,0.6l2-0.7v0.9l-1.7,0.6v0.2h1.7v0.9L124.5,384.5L124.5,384.5z M126.9,383.6
		c0-0.4-0.2-0.6-0.8-0.6h-0.1c-0.6,0-0.8,0.3-0.8,0.7v0L126.9,383.6L126.9,383.6z M124.5,381.1v-0.9l4.9-0.9v0.9l-1,0.2v0.8l1,0.2
		v0.8L124.5,381.1z M127.7,380.4l-1.6,0.3l1.6,0.3V380.4z M127.1,379.1h-0.2c-1.7,0-2.4-0.6-2.4-1.4c0-0.2,0-0.4,0.1-0.6h0.9
		c-0.1,0.2-0.2,0.3-0.2,0.5c0,0.4,0.3,0.7,1.6,0.7h0.2c1.3,0,1.6-0.3,1.6-0.7c0-0.1,0-0.3-0.2-0.5h0.8c0.1,0.2,0.1,0.4,0.1,0.6
		C129.5,378.5,128.8,379.1,127.1,379.1z M124.5,376.7v-0.9h2.1l-2.1-0.7v-1l2.1,0.8l2.8-0.8v1l-1.9,0.5l0.5,0.2h1.3v0.9H124.5z"/>
	<path class="st4" d="M54.5,14.2v-1c0.3,0.2,0.6,0.3,0.9,0.3c0.3,0,0.5-0.1,0.5-0.5v0c0-0.3-0.1-0.4-0.5-1c-0.7-0.8-0.9-1.1-0.9-1.8
		v0c0-0.9,0.6-1.5,1.4-1.5c0.4,0,0.6,0.1,0.9,0.2v1c-0.3-0.2-0.5-0.3-0.7-0.3c-0.3,0-0.5,0.2-0.5,0.5v0c0,0.3,0.1,0.4,0.5,0.9
		c0.8,0.9,0.9,1.2,0.9,1.9v0c0,0.9-0.6,1.5-1.4,1.5C55.1,14.4,54.8,14.3,54.5,14.2z M57.2,12.8v-4h1v4.1c0,0.5,0.2,0.7,0.4,0.7
		c0.2,0,0.4-0.2,0.4-0.7V8.8h1v4c0,1.2-0.6,1.7-1.4,1.7C57.8,14.5,57.2,13.9,57.2,12.8z M60.5,8.8h0.9l1,2.8V8.8h1v5.6h-0.9l-1-3v3
		h-1C60.5,14.4,60.5,8.8,60.5,8.8z M65.2,8.8h0.9c1.2,0,2,0.9,2,2.7v0.2c0,1.8-0.7,2.7-2,2.7h-0.9V8.8z M66.3,13.5
		c0.5,0,0.9-0.4,0.9-1.8v-0.2c0-1.4-0.4-1.8-0.9-1.8h0L66.3,13.5C66.2,13.5,66.3,13.5,66.3,13.5z M68.6,8.8h2.1v0.9h-1.2v1.4h1V12
		h-1v1.4h1.2v0.9h-2.2V8.8z M71.1,11.7v-0.2c0-2,0.7-2.7,1.6-2.7c0.3,0,0.4,0,0.6,0.1v1c-0.2-0.1-0.4-0.2-0.5-0.2
		c-0.4,0-0.7,0.4-0.7,1.8v0.2c0,1.5,0.3,1.8,0.8,1.8c0.2,0,0.3-0.1,0.5-0.2v1c-0.2,0.1-0.4,0.2-0.7,0.2
		C71.7,14.4,71.1,13.6,71.1,11.7z M73.8,8.8h1v2.3l0.8-2.3h1.1l-0.9,2.4l1,3.2h-1.1L75,12.3l-0.2,0.6v1.5h-1L73.8,8.8L73.8,8.8z"/>
	<path class="st4" d="M122.4,630.5h-1c0.2-0.3,0.3-0.6,0.3-0.9c0-0.3-0.1-0.5-0.5-0.5h0c-0.3,0-0.4,0.1-1,0.5
		c-0.8,0.7-1.1,0.9-1.8,0.9h0c-0.9,0-1.5-0.6-1.5-1.4c0-0.4,0.1-0.6,0.2-0.9h1c-0.2,0.3-0.3,0.5-0.3,0.7c0,0.3,0.2,0.5,0.5,0.5h0
		c0.3,0,0.4-0.1,0.9-0.5c0.9-0.8,1.2-0.9,1.9-0.9h0c0.9,0,1.5,0.6,1.5,1.4C122.6,629.9,122.5,630.2,122.4,630.5z M117,627.7v-0.9
		c0-1.1,0.6-1.8,1.9-1.8h0c1.3,0,1.9,0.7,1.9,1.7v0h1.8v1H117z M119.9,626.8c0-0.4-0.3-0.7-1-0.7h0c-0.7,0-1,0.3-1,0.7v0
		L119.9,626.8L119.9,626.8L119.9,626.8z M119.9,624.8h-0.3c-1.8,0-2.7-0.6-2.7-1.5s0.9-1.5,2.7-1.5h0.3c1.8,0,2.7,0.6,2.7,1.5
		C122.7,624.2,121.8,624.8,119.9,624.8z M119.9,622.8h-0.3c-1.4,0-1.8,0.2-1.8,0.5s0.4,0.5,1.8,0.5h0.3c1.4,0,1.8-0.2,1.8-0.5
		S121.4,622.8,119.9,622.8z M117,621.3v-1c0-1,0.5-1.7,1.8-1.7h0.1c0.7,0,1.2,0.3,1.5,0.7l2.3-0.8v1l-2,0.6v0.2h2v1L117,621.3
		L117,621.3z M119.7,620.3c0-0.4-0.2-0.7-0.9-0.7h-0.1c-0.7,0-0.9,0.3-0.9,0.8v0L119.7,620.3L119.7,620.3z M117.9,617.7v0.7H117V616
		h0.9v0.7h4.7v1L117.9,617.7L117.9,617.7z M122.4,615.7h-1c0.2-0.3,0.3-0.6,0.3-0.9c0-0.3-0.1-0.5-0.5-0.5h0c-0.3,0-0.4,0.1-1,0.5
		c-0.8,0.7-1.1,0.9-1.8,0.9h0c-0.9,0-1.5-0.6-1.5-1.4c0-0.4,0.1-0.6,0.2-0.9h1c-0.2,0.3-0.3,0.5-0.3,0.7c0,0.3,0.2,0.5,0.5,0.5h0
		c0.3,0,0.4-0.1,0.9-0.5c0.9-0.8,1.2-0.9,1.9-0.9h0c0.9,0,1.5,0.6,1.5,1.4C122.6,615.1,122.5,615.4,122.4,615.7z M117,611.7v-0.9
		c0-1.2,0.9-2,2.7-2h0.2c1.8,0,2.7,0.7,2.7,2v0.9H117z M121.7,610.7c0-0.5-0.4-0.9-1.8-0.9h-0.2c-1.4,0-1.8,0.4-1.8,0.9v0
		L121.7,610.7L121.7,610.7z M117,608.4v-2.1h0.9v1.2h1.4v-1h0.9v1h1.4v-1.2h0.9v2.2L117,608.4L117,608.4z M119.9,605.9h-0.2
		c-2,0-2.7-0.7-2.7-1.6c0-0.3,0-0.4,0.1-0.6h1c-0.1,0.2-0.2,0.4-0.2,0.5c0,0.4,0.4,0.7,1.8,0.7h0.2c1.5,0,1.8-0.3,1.8-0.8
		c0-0.2-0.1-0.3-0.2-0.5h1c0.1,0.2,0.2,0.4,0.2,0.7C122.6,605.2,121.8,605.9,119.9,605.9z M117,603.1v-1h2.3l-2.3-0.8v-1.1l2.4,0.9
		l3.2-1v1.1l-2.1,0.6l0.6,0.2h1.5v1L117,603.1C117,603.1,117,603.1,117,603.1z"/>
	<path class="st4" d="M39.8,155.2h1c1,0,1.7,0.5,1.7,1.8v0.1c0,0.7-0.3,1.2-0.7,1.5l0.8,2.3h-1l-0.6-2h-0.2v2h-1L39.8,155.2
		L39.8,155.2z M40.8,157.9c0.4,0,0.7-0.2,0.7-0.9V157c0-0.7-0.3-0.9-0.8-0.9h0L40.8,157.9L40.8,157.9z M43,155.2h1
		c1,0,1.7,0.5,1.7,1.8v0.1c0,0.7-0.3,1.2-0.7,1.5l0.8,2.3h-1l-0.6-2H44v2h-1L43,155.2L43,155.2z M44,157.9c0.4,0,0.7-0.2,0.7-0.9
		V157c0-0.7-0.3-0.9-0.8-0.9h0L44,157.9L44,157.9z"/>
	<path class="st4" d="M68.8,154.7h1c1,0,1.7,0.5,1.7,1.8v0.1c0,0.7-0.3,1.2-0.7,1.5l0.8,2.3h-1l-0.6-2h-0.2v2h-1L68.8,154.7
		L68.8,154.7z M69.8,157.5c0.4,0,0.7-0.2,0.7-0.9v-0.1c0-0.7-0.3-0.9-0.8-0.9h0L69.8,157.5L69.8,157.5z M71.9,154.7h1
		c1,0,1.7,0.5,1.7,1.8v0.1c0,0.7-0.3,1.2-0.7,1.5l0.8,2.3h-1l-0.6-2h-0.2v2h-1V154.7z M73,157.5c0.4,0,0.7-0.2,0.7-0.9v-0.1
		c0-0.7-0.3-0.9-0.8-0.9h0L73,157.5L73,157.5z"/>
	<path class="st4" d="M56.8,283.4v-0.3c0-1.8,0.6-2.7,1.5-2.7c0.9,0,1.5,0.9,1.5,2.7v0.3c0,1.8-0.6,2.7-1.5,2.7
		C57.4,286.1,56.8,285.2,56.8,283.4z M58.8,283.4v-0.3c0-1.4-0.2-1.8-0.5-1.8c-0.3,0-0.5,0.4-0.5,1.8v0.3c0,1.4,0.2,1.8,0.5,1.8
		S58.8,284.8,58.8,283.4z M60.3,280.5h0.9c1.1,0,1.8,0.6,1.8,1.9v0c0,1.3-0.7,1.9-1.7,1.9h0v1.8h-1V280.5z M61.3,283.4
		c0.4,0,0.7-0.3,0.7-1v0c0-0.7-0.3-1-0.7-1h0L61.3,283.4L61.3,283.4L61.3,283.4z M63.4,280.5h2.1v0.9h-1.2v1.4h1v0.9h-1v1.4h1.2v0.9
		h-2.2C63.4,286.1,63.4,280.5,63.4,280.5z M66,280.5h0.9l1,2.8v-2.8h1v5.6H68l-1-3v3h-1L66,280.5L66,280.5z M71.2,281.4h-0.7v-0.9
		h2.4v0.9h-0.7v4.7h-1V281.4z M73.1,283.4v-0.3c0-1.8,0.6-2.7,1.5-2.7c0.9,0,1.5,0.9,1.5,2.7v0.3c0,1.8-0.6,2.7-1.5,2.7
		C73.7,286.1,73.1,285.2,73.1,283.4z M75,283.4v-0.3c0-1.4-0.2-1.8-0.5-1.8s-0.5,0.4-0.5,1.8v0.3c0,1.4,0.2,1.8,0.5,1.8
		S75,284.8,75,283.4z M52.2,288.5h0.9c1.2,0,2,0.9,2,2.7v0.2c0,1.8-0.7,2.7-2,2.7h-0.9V288.5z M53.2,293.2c0.5,0,0.9-0.4,0.9-1.8
		v-0.2c0-1.4-0.4-1.8-0.9-1.8h0L53.2,293.2L53.2,293.2z M55.5,288.5h2.1v0.9h-1.2v1.4h1v0.9h-1v1.4h1.2v0.9h-2.2L55.5,288.5
		L55.5,288.5z M58,291.4v-0.2c0-2,0.7-2.7,1.6-2.7c0.3,0,0.4,0,0.6,0.1v1c-0.2-0.1-0.4-0.2-0.5-0.2c-0.4,0-0.7,0.4-0.7,1.8v0.2
		c0,1.5,0.3,1.8,0.8,1.8c0.2,0,0.3-0.1,0.5-0.2v1c-0.2,0.1-0.4,0.2-0.7,0.2C58.7,294.1,58,293.3,58,291.4z M60.8,288.5h1v2.3
		l0.8-2.3h1.1l-0.9,2.4l1,3.2h-1.1l-0.6-2.1l-0.2,0.6v1.5h-1L60.8,288.5L60.8,288.5z M65.3,288.5h0.8c0.9,0,1.8,0.4,1.8,1.4v0
		c0,0.7-0.4,1.1-0.8,1.3c0.5,0.2,0.9,0.5,0.9,1.2v0.1c0,1-0.8,1.6-1.9,1.6h-0.9L65.3,288.5L65.3,288.5z M66.3,290.8
		c0.4,0,0.7-0.2,0.7-0.7v0c0-0.5-0.3-0.7-0.7-0.7h0L66.3,290.8L66.3,290.8z M66.3,293.1c0.4,0,0.8-0.3,0.8-0.7v0
		c0-0.5-0.3-0.7-0.8-0.7h0L66.3,293.1L66.3,293.1L66.3,293.1z M68.4,288.5h2.1v0.9h-1.2v1.4h1v0.9h-1v1.4h1.2v0.9h-2.2V288.5z
		 M71.1,288.5h1v4.7h1v0.9h-2C71.1,294.1,71.1,288.5,71.1,288.5z M73.2,291.4v-0.3c0-1.8,0.6-2.7,1.5-2.7s1.5,0.9,1.5,2.7v0.3
		c0,1.8-0.6,2.7-1.5,2.7S73.2,293.2,73.2,291.4z M75.1,291.4v-0.3c0-1.4-0.2-1.8-0.5-1.8s-0.5,0.4-0.5,1.8v0.3
		c0,1.4,0.2,1.8,0.5,1.8S75.1,292.8,75.1,291.4z M76.3,288.5h1l0.4,3.4l0.5-3.4h0.9l0.5,3.4l0.4-3.4h1l-0.8,5.6h-1l-0.5-3.3
		l-0.5,3.3h-1L76.3,288.5z"/>
</g>
<g id="STAR_DECK_13_TOP">
	<g id="gDeck13Locations">
		<path width="130.0879" height="228.405" id="_x31_3Aft" class="st2" d="M130.3,515.2H0.5v35.1L5.3,562v55.8c0,0,0,97.7,0,97.7c-5.4,3.5-4.7,7.1-4.7,7.5
			c0,0.5,0.8,8.5,10,8.5c9.3,0,9.6-9.1,15.6-8.9c4.4,0.2,16.8,20.9,39,20.9c22.2,0,33.8-20.6,39.3-20.9c4.1-0.2,4.1,10.3,17.7,9.4
			c6.5-0.5,8.7-5.2,8.3-9.4s-4.6-7-4.6-7v-97.9l0-55.7l4.4-11.8V515.2z"/>
		<rect width="129.814" height="300.251" id="_x31_3MidShip" x="0.6" y="214.9" class="st2"/>
		<path width="129.814" height="214.338" id="_x31_3Forward" class="st2" d="M130.4,213.1l-4.8-10.7c0-60.5,0-79.6,0-79.6l-4.3-6.3V17.2c0-7.1,0-6.8-6.5-9.3
			c-14.1-5.4-41.5-6-41.5-6l-1.6-1.3H59.5l-2.2,1.3C39.6,2,21.8,6.6,15.5,8.1C9.1,9.7,10,12.6,10,12.6v103.9l-5.1,6.4v79.6
			l-4.2,10.7v1.8h129.8V213.1z"/>
	</g>
	<path class="st5" d="M5.3,617.8V562l-4.8-11.8V213.1l4.2-10.7v-79.6l5.1-6.4V12.6c0,0-0.9-2.9,5.5-4.5C21.7,6.6,39.5,2,57.2,1.9
		l2.2-1.3h12.2l1.6,1.3c0,0,27.4,0.6,41.5,6c6.5,2.5,6.5,2.2,6.5,9.3v99.3l4.3,6.3c0,0,0,19.1,0,79.6l4.8,10.7v337.1l-4.4,11.8
		l0,55.7v97.9c0,0,4.3,2.8,4.6,7s-1.8,8.9-8.3,9.4c-13.6,1-13.6-9.6-17.7-9.4c-5.5,0.3-17.1,20.9-39.3,20.9
		c-22.2,0-34.7-20.8-39-20.9c-6-0.2-6.3,8.9-15.6,8.9c-9.3,0-10-8-10-8.5c0-0.5-0.6-4.1,4.7-7.5C5.3,715.4,5.3,617.8,5.3,617.8
		L5.3,617.8z"/>
</g>
</svg>
