<?xml version="1.0" encoding="UTF-8"?>
<svg width="82px" height="76px" viewBox="0 0 82 76" version="1.1" xmlns="http://www.w3.org/2000/svg" xmlns:xlink="http://www.w3.org/1999/xlink">
    <!-- Generator: Sketch 55.1 (78136) - https://sketchapp.com -->
    <title>Group 5</title>
    <desc>Created with Sketch.</desc>
    <g id="Design-Specs---Rotate-Device" stroke="none" stroke-width="1" fill="none" fill-rule="evenodd">
        <g id="Rotate-Device_Small_320" transform="translate(-236.000000, -60.000000)" fill="#284560" fill-rule="nonzero">
            <g id="Group-5" transform="translate(236.500000, 60.000000)">
                <path d="M36.5,35.4750133 L7.20198675,35.4750133 C4.59600739,35.4750133 2.48344371,37.5766413 2.48344371,40.1691309 L2.48344371,67.8397192 C2.48344371,70.4322088 4.59600739,72.5338368 7.20198675,72.5338368 L37.5796754,72.5338368 C38.0191827,73.361439 38.5801804,74.1151363 39.2388894,74.771388 C39.3182936,74.850496 39.399117,74.9281887 39.4813183,75.004425 L7.20198675,75.004425 C3.2244393,75.004425 0,71.796677 0,67.8397192 L0,40.1691309 C0,36.2121731 3.2244393,33.004425 7.20198675,33.004425 L36.5,33.004425 L36.5,35.4750133 Z M73.8360876,75 L46.1654993,75 C42.2085415,75 39.0007935,71.7755607 39.0007935,67.7980132 L39.0007935,7.20198675 C39.0007935,3.2244393 42.2085415,-3.26838365e-15 46.1654993,-2.5415023e-15 L73.8360876,2.5415023e-15 C77.7930454,3.26838365e-15 81.0007935,3.2244393 81.0007935,7.20198675 L81.0007935,67.7980132 C81.0007935,71.7755607 77.7930454,75 73.8360876,75 Z M73.8360876,72.5165563 C76.4285772,72.5165563 78.5302052,70.4039926 78.5302052,67.7980132 L78.5302052,7.20198675 C78.5302052,4.59600739 76.4285772,2.48344371 73.8360876,2.48344371 L46.1654993,2.48344371 C43.5730097,2.48344371 41.4713817,4.59600739 41.4713817,7.20198675 L41.4713817,67.7980132 C41.4713817,70.4039926 43.5730097,72.5165563 46.1654993,72.5165563 L73.8360876,72.5165563 Z M10,33.004425 L12.5,33.004425 L12.5,75.004425 L10,75.004425 L10,33.004425 Z M81,10.004425 L81,12.504425 L39,12.504425 L39,10.004425 L81,10.004425 Z M81,62.504425 L81,65.004425 L39,65.004425 L39,62.504425 L81,62.504425 Z" id="Combined-Shape"></path>
                <path d="M23.2729708,15.9342501 L28.0459415,11.1612793 L23.2729708,6.38830853 C22.7848154,5.90015316 22.7848154,5.10869694 23.2729708,4.62054157 C23.7611261,4.13238621 24.5525824,4.13238621 25.0407377,4.62054157 L30.697592,10.2773958 C31.1857473,10.7655512 31.1857473,11.5570074 30.697592,12.0451628 L25.0407377,17.702017 C24.5525824,18.1901724 23.7611261,18.1901724 23.2729708,17.702017 C22.7848154,17.2138617 22.7848154,16.4224054 23.2729708,15.9342501 Z M24,9.75442505 C24.6903559,9.75442505 25.25,10.3140691 25.25,11.004425 C25.25,11.694781 24.6903559,12.254425 24,12.254425 C17.5106542,12.254425 12.25,17.5150792 12.25,24.004425 C12.25,24.694781 11.6903559,25.254425 11,25.254425 C10.3096441,25.254425 9.75,24.694781 9.75,24.004425 C9.75,16.1343674 16.1299423,9.75442505 24,9.75442505 Z" id="Combined-Shape"></path>
            </g>
        </g>
    </g>
</svg>