<?xml version="1.0" encoding="utf-8"?>
<svg version="1.1" id="edge" xmlns="http://www.w3.org/2000/svg" xmlns:xlink="http://www.w3.org/1999/xlink" x="0px" y="0px" viewBox="0 0 50 50">
<style type="text/css">
	.st0{fill:url(#SVGID_1_);}
	.st1{opacity:0.35;fill:url(#SVGID_2_);enable-background:new    ;}
	.st2{fill:url(#SVGID_3_);}
	.st3{opacity:0.41;fill:url(#SVGID_4_);enable-background:new    ;}
	.st4{fill:url(#SVGID_5_);}
	.st5{fill:url(#SVGID_6_);}
</style>
<title>Edge</title>
<g>
	<linearGradient id="SVGID_1_" gradientUnits="userSpaceOnUse" x1="16.098" y1="565.4906" x2="50.9188" y2="565.4906" gradientTransform="matrix(1 0 0 1 -4.63 -530.92)">
		<stop  offset="0" style="stop-color:#0C59A4"/>
		<stop  offset="1" style="stop-color:#114A8B"/>
	</linearGradient>
	<path class="st0" d="M45.1,37.2c-0.7,0.3-1.4,0.7-2.1,0.9c-2.2,0.8-4.6,1.3-7,1.3c-9.2,0-17.3-6.4-17.3-14.5c0-2.2,1.3-4.3,3.2-5.3
		c-8.4,0.4-10.5,9.1-10.5,14.2c0,14.4,13.3,15.9,16.2,15.9c1.5,0,3.9-0.4,5.3-0.9l0.3-0.1c5.4-1.9,10-5.5,13-10.3
		c0.2-0.4,0.1-0.8-0.2-1.1C45.7,37.1,45.4,37.1,45.1,37.2z"/>
	
		<radialGradient id="SVGID_2_" cx="35.3351" cy="591.399" r="18.6277" gradientTransform="matrix(1 0 0 0.95 -4.63 -526.98)" gradientUnits="userSpaceOnUse">
		<stop  offset="0.72" style="stop-color:#000000;stop-opacity:0"/>
		<stop  offset="0.95" style="stop-color:#000000;stop-opacity:0.53"/>
		<stop  offset="1" style="stop-color:#000000"/>
	</radialGradient>
	<path class="st1" d="M45.1,37.2c-0.7,0.3-1.4,0.7-2.1,0.9c-2.2,0.8-4.6,1.3-7,1.3c-9.2,0-17.3-6.4-17.3-14.5c0-2.2,1.3-4.3,3.2-5.3
		c-8.4,0.4-10.5,9.1-10.5,14.2c0,14.4,13.3,15.9,16.2,15.9c1.5,0,3.9-0.4,5.3-0.9l0.3-0.1c5.4-1.9,10-5.5,13-10.3
		c0.2-0.4,0.1-0.8-0.2-1.1C45.7,37.1,45.4,37.1,45.1,37.2z"/>
	
		<linearGradient id="SVGID_3_" gradientUnits="userSpaceOnUse" x1="34.4715" y1="550.3965" x2="12.717" y2="574.0923" gradientTransform="matrix(1 0 0 1 -4.63 -530.92)">
		<stop  offset="0" style="stop-color:#1B9DE2"/>
		<stop  offset="0.16" style="stop-color:#1595DF"/>
		<stop  offset="0.67" style="stop-color:#0680D7"/>
		<stop  offset="1" style="stop-color:#0078D4"/>
	</linearGradient>
	<path class="st2" d="M20.6,47.1c-1.7-1.1-3.3-2.5-4.4-4.2c-5.1-7-3.6-16.9,3.4-22c0.7-0.5,1.5-1,2.3-1.4c0.6-0.3,1.7-0.8,3-0.8
		c2,0,3.8,1,5,2.5c0.8,1.1,1.2,2.3,1.2,3.6c0,0,4.8-15.5-15.6-15.5C7.1,9.4,0,17.5,0,24.7c0,3.8,0.8,7.5,2.4,10.9
		c5.4,11.5,18.5,17.1,30.5,13.1C28.8,50,24.3,49.4,20.6,47.1L20.6,47.1z"/>
	
		<radialGradient id="SVGID_4_" cx="-794.4854" cy="670.6874" r="27.9748" gradientTransform="matrix(0.15 -0.99 0.8 0.12 -403.59 -828.16)" gradientUnits="userSpaceOnUse">
		<stop  offset="0.76" style="stop-color:#000000;stop-opacity:0"/>
		<stop  offset="0.95" style="stop-color:#000000;stop-opacity:0.5"/>
		<stop  offset="1" style="stop-color:#000000"/>
	</radialGradient>
	<path class="st3" d="M20.6,47.1c-1.7-1.1-3.3-2.5-4.4-4.2c-5.1-7-3.6-16.9,3.4-22c0.7-0.5,1.5-1,2.3-1.4c0.6-0.3,1.7-0.8,3-0.8
		c2,0,3.8,1,5,2.5c0.8,1.1,1.2,2.3,1.2,3.6c0,0,4.8-15.5-15.6-15.5C7.1,9.4,0,17.5,0,24.7c0,3.8,0.8,7.5,2.4,10.9
		c5.4,11.5,18.5,17.1,30.5,13.1C28.8,50,24.3,49.4,20.6,47.1L20.6,47.1z"/>
	
		<radialGradient id="SVGID_5_" cx="155.0237" cy="-275.9445" r="39.5346" gradientTransform="matrix(-4.000000e-02 1 -2.13 -8.000000e-02 -576.51 -167.85)" gradientUnits="userSpaceOnUse">
		<stop  offset="0" style="stop-color:#35C1F1"/>
		<stop  offset="0.11" style="stop-color:#34C1ED"/>
		<stop  offset="0.23" style="stop-color:#2FC2DF"/>
		<stop  offset="0.31" style="stop-color:#2BC3D2"/>
		<stop  offset="0.67" style="stop-color:#36C752"/>
	</radialGradient>
	<path class="st4" d="M29.8,29.1c-0.2,0.2-0.6,0.5-0.6,1.1c0,0.5,0.3,1,0.9,1.4c2.8,2,8.1,1.7,8.1,1.7c2.1,0,4.1-0.6,5.9-1.6
		c3.7-2.1,5.9-6.1,5.9-10.3c0.1-4.4-1.6-7.3-2.2-8.6C43.6,4.7,34.7,0,25,0C11.3,0,0.2,11,0,24.6c0.1-7.1,7.2-12.9,15.6-12.9
		c0.7,0,4.6,0.1,8.2,2c3.2,1.7,4.9,3.7,6,5.7c1.2,2.1,1.4,4.7,1.4,5.8S30.7,27.8,29.8,29.1z"/>
	
		<radialGradient id="SVGID_6_" cx="416.2249" cy="-142.5298" r="19.0105" gradientTransform="matrix(0.28 0.96 -0.78 0.23 -180.83 -351.68)" gradientUnits="userSpaceOnUse">
		<stop  offset="0" style="stop-color:#66EB6E"/>
		<stop  offset="1" style="stop-color:#66EB6E;stop-opacity:0"/>
	</radialGradient>
	<path class="st5" d="M29.8,29.1c-0.2,0.2-0.6,0.5-0.6,1.1c0,0.5,0.3,1,0.9,1.4c2.8,2,8.1,1.7,8.1,1.7c2.1,0,4.1-0.6,5.9-1.6
		c3.7-2.1,5.9-6.1,5.9-10.3c0.1-4.4-1.6-7.3-2.2-8.6C43.6,4.7,34.7,0,25,0C11.3,0,0.2,11,0,24.6c0.1-7.1,7.2-12.9,15.6-12.9
		c0.7,0,4.6,0.1,8.2,2c3.2,1.7,4.9,3.7,6,5.7c1.2,2.1,1.4,4.7,1.4,5.8S30.7,27.8,29.8,29.1z"/>
</g>
</svg>
