<?xml version="1.0" encoding="utf-8"?>
<!-- Generator: Adobe Illustrator 22.1.0, SVG Export Plug-In . SVG Version: 6.00 Build 0)  -->
<svg version="1.1" id="Sun_Deck_Selector" xmlns="http://www.w3.org/2000/svg" xmlns:xlink="http://www.w3.org/1999/xlink" x="0px"
	 y="0px" viewBox="0 0 235.6 53.6" style="enable-background:new 0 0 235.6 53.6;" xml:space="preserve">
<style type="text/css">
	.st0{fill:#FFFFFF;stroke:#CAD2D7;stroke-width:0.5;stroke-miterlimit:10;}
	.st1{fill:none;stroke:#CAD2D7;stroke-width:0.5472;stroke-miterlimit:10;}
</style>
<g id="gSunDeckSelectorForward">
	<g id="bSunDeckSelectorForward">
		<path id="f_2_" class="st0" d="M218.8,53.2c3.3-5.6,12.7-12.6,16-14.9h-13.5l-7.2-9l1.7-3h-4.5l-5.1-5.5h-8.8l-0.7-0.9h-4.4
			l-3-3.3h1.8l-1.1-1.1h-1.7L186,13h2.2l-1.1-1.1H185l-2-2.1h2.6l-1.1-1.1H182l-1.1-1.2h-1.7c0,0,2.2,6.3,2.4,7
			c0.2,0.9,0.1,1.4-0.1,1.6c-0.2,0.3-0.8,0.4-1.8,0.4h-15.1l-2.5,2.3v1.1h-5.5v33.4h62.2C218.6,53.3,218.7,53.2,218.8,53.2z"/>
	</g>
	<g id="hDeckForward_04">
		<path id="_x30_4_10_" class="st1" d="M156.5,50.3h64.4c0.9-1,1.8-2,2.8-3h-67.3v3H156.5z"/>
	</g>
	<g id="hDeckForward_05">
		<path id="_x30_5_13_" class="st1" d="M156.5,47.3h67.3c1.1-1,2.2-2,3.3-3h-70.6V47.3z"/>
	</g>
	<g id="hDeckForward_06">
		<path id="_x30_6_13_" class="st1" d="M156.5,44.3h70.6c1.3-1.1,2.5-2.1,3.7-3h-74.3V44.3L156.5,44.3z"/>
	</g>
	<g id="hDeckForward_07">
		<path id="_x30_7_13_" class="st1" d="M156.5,41.3h74.3c1.7-1.3,3.1-2.3,4-3h-13.5h-64.8V41.3L156.5,41.3z"/>
	</g>
	<g id="hDeckForward_08">
		<polygon id="_x30_8_13_" class="st1" points="156.5,38.3 221.2,38.3 218.8,35.3 156.5,35.3 		"/>
	</g>
	<g id="hDeckForward_09">
		<polygon id="_x30_9_13_" class="st1" points="156.5,35.3 218.8,35.3 216.5,32.3 156.5,32.3 		"/>
	</g>
	<g id="hDeckForward_10">
		<polygon id="_x31_0_14_" class="st1" points="156.5,32.3 216.5,32.3 214.1,29.4 156.5,29.4 		"/>
	</g>
	<g id="hDeckForward_11">
		<polygon id="_x31_1_14_" class="st1" points="156.5,29.4 214.1,29.4 215.8,26.4 211.3,26.4 156.5,26.4 		"/>
	</g>
	<g id="hDeckForward_12">
		<polygon id="_x31_2_14_" class="st1" points="211.3,26.4 208.5,23.4 156.5,23.4 156.5,26.4 		"/>
	</g>
</g>
<g id="gSunDeckSelectorMidShip">
	<g id="bSunDeckSelectorMidShip">
		<polygon id="m_2_" class="st0" points="82.7,19.9 82.7,17.1 77.7,10.6 77.7,53.3 156.5,53.3 156.5,19.9 		"/>
	</g>
	<g id="hDeckMidShip_04">
		<rect id="_x30_4_9_" x="77.7" y="47.3" class="st1" width="78.8" height="3"/>
	</g>
	<g id="hDeckMidShip_05">
		<rect id="_x30_5_12_" x="77.7" y="44.3" class="st1" width="78.8" height="3"/>
	</g>
	<g id="hDeckMidShip_06">
		<rect id="_x30_6_12_" x="77.7" y="41.3" class="st1" width="78.8" height="3"/>
	</g>
	<g id="hDeckMidShip_07">
		<rect id="_x30_7_12_" x="77.7" y="38.3" class="st1" width="78.8" height="3"/>
	</g>
	<g id="hDeckMidShip_08">
		<rect id="_x30_8_12_" x="77.7" y="35.3" class="st1" width="78.8" height="3"/>
	</g>
	<g id="hDeckMidShip_09">
		<rect id="_x30_9_12_" x="77.7" y="32.3" class="st1" width="78.8" height="3"/>
	</g>
	<g id="hDeckMidShip_10">
		<rect id="_x31_0_13_" x="77.7" y="29.4" class="st1" width="78.8" height="3"/>
	</g>
	<g id="hDeckMidShip_11">
		<rect id="_x31_1_13_" x="77.7" y="26.4" class="st1" width="78.8" height="3"/>
	</g>
	<g id="hDeckMidShip_12">
		<rect id="_x31_2_13_" x="77.7" y="23.4" class="st1" width="78.8" height="3"/>
	</g>
</g>
<g id="gSunDeckSelectorAft">
	<g id="bSunDeckSelectorAft">
		<path id="a_2_" class="st0" d="M71.1,2h-2l-1.2-1.8h-1.7L67.4,2h-1.1l-1.2-1.8h-1.7L64.6,2h-1.3l-1.2-1.8h-1.7L61.6,2H60
			c0,0-1.8,9.5-2.1,10.9c-0.4,2.1-1.4,2.2-1.7,2.2c-1.1,0.1-13,1.3-13.6,1.4h-0.4v3.3h-21v3.4l-2.5,3h-8.1l-10,12v9l5.2,6.1h71.9
			V10.6L71.1,2z"/>
	</g>
	<g id="hDeckAft_04">
		<polygon id="_x30_4_8_" class="st1" points="0.6,47.3 3.2,50.3 77.7,50.3 77.7,47.3 		"/>
	</g>
	<g id="hDeckAft_05">
		<rect id="_x30_5_11_" x="0.6" y="44.3" class="st1" width="77" height="3"/>
	</g>
	<g id="hDeckAft_06">
		<rect id="_x30_6_11_" x="0.6" y="41.3" class="st1" width="77" height="3"/>
	</g>
	<g id="hDeckAft_07">
		<rect id="_x30_7_11_" x="0.6" y="38.3" class="st1" width="77" height="3"/>
	</g>
	<g id="hDeckAft_08">
		<polygon id="_x30_8_11_" class="st1" points="77.7,35.3 3.1,35.3 0.6,38.3 77.7,38.3 		"/>
	</g>
	<g id="hDeckAft_09">
		<polygon id="_x30_9_11_" class="st1" points="77.7,32.3 5.6,32.3 3.1,35.3 77.7,35.3 		"/>
	</g>
	<g id="hDeckAft_10">
		<polygon id="_x31_0_12_" class="st1" points="77.7,29.4 8.1,29.4 5.6,32.3 77.7,32.3 		"/>
	</g>
	<g id="hDeckAft_11">
		<polygon id="_x31_1_12_" class="st1" points="77.7,26.4 18.8,26.4 10.6,26.4 8.1,29.4 77.7,29.4 		"/>
	</g>
	<g id="hDeckAft_12">
		<polygon id="_x31_2_12_" class="st1" points="18.8,26.4 77.7,26.4 77.7,23.4 21.3,23.4 		"/>
	</g>
</g>
</svg>
