<?xml version="1.0" encoding="utf-8"?>
<!-- Generator: Adobe Illustrator 23.0.2, SVG Export Plug-In . SVG Version: 6.00 Build 0)  -->
<svg version="1.1" id="BLISS_DECK_07" xmlns="http://www.w3.org/2000/svg" xmlns:xlink="http://www.w3.org/1999/xlink" x="0px"
	 y="0px" width="140.724px" height="1035.041px" viewBox="0 0 140.724 1035.041"
	 style="enable-background:new 0 0 140.724 1035.041;" xml:space="preserve">
<style type="text/css">
	.st0{fill:#FFFFFF;}
	.st1{fill:none;stroke:#D5DCE0;stroke-width:0.5;}
	.st2{fill:none;stroke:#D5DCE0;stroke-width:0.25;}
	.st3{fill:#6E8496;}
	.st4{fill:#6E8396;}
	.st5{fill:none;stroke:#076FA0;stroke-miterlimit:10;}
	.st6{fill:none;}
</style>
<g id="BLISS_DECK_07_BOTTOM">
	<path class="st0" d="M0.586,1009.987c0,8.723,6.823,17.735,48.379,19.741c3.698,2.763,12.787,4.634,20.934,4.634
		c8.249,0,17.418-1.917,21.075-4.736c41.04-1.709,49.118-10.709,49.118-20.639l0.028-0.571c0,0-1.746-880.375-1.746-886.875
		c0-38.5-39.433-93-45.348-100.5C87.112,13.542,79.247,0.5,70.374,0.5h-0.521h-0.016c-9,0-15.479,13.042-21.479,20.542
		s-46,62-46,100.5c0,6.5-1.771,888.156-1.771,888.156L0.586,1009.987z"/>
	<polyline class="st1" points="57.571,422.854 50.187,424.375 50.187,427.375 48.624,427.375 48.624,399.417 41.374,399.417 
		41.374,408.792 	"/>
	<polyline class="st1" points="48.499,424.375 39.291,425.375 39.228,411.667 37.937,411.667 37.937,408.833 92.124,408.729 	"/>
	<path class="st1" d="M95.32,512.632c-2.643,13.02-11.247,16.64-18.821,14.66c-7.981-2.086-12.151-9.936-8.329-21.816l8.454-26.668
		l23.556,6.036l-4.892,27.961L95.32,512.632z"/>
	<polyline class="st1" points="114.356,592.917 102.059,592.917 102.059,595.25 95.081,595.25 95.081,605.125 78.873,605.125 
		78.749,552.229 95.374,552.229 95.374,554.792 100.249,554.792 100.249,550.542 106.374,550.542 106.374,558 114.124,558 	"/>
	<polygon class="st1" points="98.749,674.104 98.541,708.625 93.249,708.625 93.249,734.833 91.249,741.999 91.249,746.312 
		78.562,746.312 77.958,673.979 	"/>
	<path class="st1" d="M79.854,844.75h-2.479v57.875h22v14.125h26.833c0,0-0.396,41.521-0.208,41.333h-15.375l-0.125,15.833h8.458
		v17.333h-7.167v6h7.083v25.5"/>
	<line class="st1" x1="47.999" y1="840.5" x2="25.499" y2="840.5"/>
	<path class="st1" d="M92.374,840.5h22.188c0,0,0,17.271,0,17.312l-37.188,0.094"/>
	<path class="st2" d="M81.286,652.26c0.801-1.201,1.508-2.484,2.08-3.865c0.01-0.025,0.017-0.05,0.028-0.075"/>
	<path class="st2" d="M81.578,644.107c0.754-3.3,0.839-5.035,0.839-6.935C82.417,639.044,82.332,640.807,81.578,644.107
		c-0.369,1.614,0.12,3.76,2.964,5.047"/>
	<path class="st2" d="M77.186,643.143c0.687-3.01,0.914-4.957,0.888-5.94C78.105,638.368,77.873,640.134,77.186,643.143
		c-1.137,4.98,2.232,8.401,5.763,9.995"/>
	<polyline class="st2" points="82.601,647.833 79.699,651.024 81.286,652.26 	"/>
	<polyline class="st2" points="82.09,647.233 78.637,649.829 77.712,648.519 81.622,646.651 81.46,645.941 77.232,646.988 
		77.058,645.33 81.43,645.036 81.495,644.267 77.083,643.803 77.3,642.705 81.718,643.3 81.879,642.227 77.459,641.67 
		77.73,640.574 82.105,641.065 82.261,639.808 77.824,639.563 78.011,638.368 82.355,638.582 82.386,637.602 	"/>
	<path class="st2" d="M81.578,630.609c0.754,3.3,0.839,5.035,0.839,6.935C82.417,635.673,82.332,633.91,81.578,630.609
		c-0.369-1.614,0.12-3.76,2.964-5.047"/>
	<path class="st2" d="M77.186,631.573c0.687,3.009,0.914,4.957,0.888,5.94C78.105,636.349,77.873,634.583,77.186,631.573
		c-1.137-4.98,2.232-8.401,5.763-9.995"/>
	<polyline class="st2" points="82.601,626.884 79.699,623.693 81.286,622.457 83.449,626.206 	"/>
	<polyline class="st2" points="82.09,627.483 78.637,624.888 77.712,626.198 81.622,628.066 81.46,628.776 77.232,627.729 
		77.058,629.387 81.43,629.681 81.495,630.449 77.083,630.914 77.3,632.012 81.718,631.417 81.879,632.49 77.459,633.047 
		77.73,634.143 82.105,633.652 82.261,634.909 77.824,635.154 78.011,636.349 82.355,636.134 82.386,637.115 	"/>
	<ellipse class="st1" cx="70.386" cy="637.647" rx="16.171" ry="24.853"/>
	<line class="st1" x1="45.249" y1="840.292" x2="45.249" y2="857.792"/>
	<polyline class="st1" points="37.437,840.604 37.437,847.479 25.749,847.479 	"/>
	<line class="st1" x1="99.499" y1="840.417" x2="99.499" y2="857.729"/>
	<polyline class="st1" points="49.353,830.792 48.124,834.542 25.437,834.542 	"/>
	<polyline class="st1" points="90.562,830.792 91.79,834.313 114.478,834.313 	"/>
	<polyline class="st1" points="26.124,434.031 33.085,434.031 33.085,437.917 42.011,437.917 42.011,433.917 50.124,433.917 	"/>
	<polyline class="st1" points="91.374,435.031 104.335,435.031 104.335,438.917 114.261,438.917 	"/>
	<polyline class="st1" points="47.456,686.666 47.456,682.612 49.456,673.89 61.42,673.89 61.42,750.464 49.456,750.464 
		49.456,740.737 47.456,734.612 47.456,708.416 	"/>
	<polyline class="st1" points="121.874,392.542 110.28,392.542 110.249,389.667 108.124,389.667 108.124,384.167 112.28,384.198 
		112.124,358.792 118.958,358.792 	"/>
	<polyline class="st1" points="114.624,840.5 114.624,650.667 129.874,650.667 129.874,592.917 114.374,592.917 114.374,409 	"/>
	<line class="st1" x1="25.458" y1="807.917" x2="49.208" y2="807.917"/>
	<polyline class="st1" points="25.374,699.417 39.374,699.417 39.374,686.542 47.249,686.542 	"/>
	<line class="st1" x1="25.374" y1="708.292" x2="47.249" y2="708.292"/>
	<polyline class="st1" points="129.687,617.792 111.624,617.792 95.124,609.417 95.124,603.792 	"/>
	<polygon class="st1" points="96.124,544.292 80.96,544.292 80.96,544.284 79.093,544.284 79.093,544.292 78.687,544.292 
		78.697,552.167 80.96,552.167 80.96,546.667 96.124,546.667 	"/>
	<polyline class="st1" points="91.291,475.917 102.458,475.833 102.541,478.09 100.208,485.25 	"/>
	<polyline class="st1" points="121.791,398.417 110.374,398.417 110.458,408.75 121.958,408.75 121.958,367.292 118.958,358.792 
		110.749,358.792 110.499,341.229 113.877,340.478 113.707,259.915 106.707,247.249 106.707,243.583 91.291,243.583 91.291,226.083 
		49.708,226.083 49.708,243.583 33.957,243.583 33.957,246.999 26.957,259.665 27.444,340.541 30.562,341.229 30.609,349.917 
		27.515,352.353 27.707,384.25 18.374,384.249 18.374,409.25 26.207,409.25 26.207,508.25 29.874,508.25 29.874,516.25 
		26.374,516.25 26.374,609.583 11.041,609.583 11.041,650.583 25.707,650.583 25.707,857.906 63.395,857.812 	"/>
	<polyline class="st1" points="18.041,401 27.687,401 27.687,383.604 	"/>
	<path class="st1" d="M34.458,380.417c-0.276,0-0.5-0.192-0.5-0.429v-18.017c0-0.237,0.224-0.429,0.5-0.429s0.5,0.192,0.5,0.429
		v18.017C34.958,380.225,34.734,380.417,34.458,380.417z"/>
	<path class="st1" d="M34.458,387.095c-0.276,0-0.5-0.192-0.5-0.429v-4.79c0-0.237,0.224-0.429,0.5-0.429s0.5,0.192,0.5,0.429v4.79
		C34.958,386.904,34.734,387.095,34.458,387.095z"/>
	<path class="st1" d="M100.624,380.417c-0.276,0-0.5-0.192-0.5-0.429v-14.071c0-0.237,0.224-0.429,0.5-0.429s0.5,0.192,0.5,0.429
		v14.071C101.124,380.225,100.901,380.417,100.624,380.417z"/>
	<path class="st1" d="M100.624,387.095c-0.276,0-0.5-0.192-0.5-0.429v-4.79c0-0.237,0.224-0.429,0.5-0.429s0.5,0.192,0.5,0.429v4.79
		C101.124,386.904,100.901,387.095,100.624,387.095z"/>
	<polyline class="st2" points="83.648,635.314 80.562,637.009 80.091,636.784 80.144,637.985 79.643,637.485 76.835,638.939 	"/>
	<polyline class="st1" points="80.874,358.417 80.874,374.583 93.541,374.583 	"/>
	<polyline class="st1" points="18.374,384.249 18.374,367.542 22.124,359.042 21.124,216.792 2.749,216.792 	"/>
	<polyline class="st1" points="118.958,358.792 118.958,208.542 137.937,208.542 	"/>
	<polyline class="st1" points="21.749,1022.75 21.749,997.417 29.833,997.417 29.833,991.417 21.666,991.417 21.666,974.083 
		30.124,974.083 29.999,958.25 15.624,958.25 15.707,958.25 15.707,917.083 15.874,916.75 63.437,916.75 63.437,844.937 
		60.945,844.937 	"/>
	<polyline class="st1" points="26.249,518.604 54.624,518.604 61.624,531.229 61.624,540.167 67.374,540.167 67.374,557.792 
		61.499,557.792 61.374,557.854 61.374,605.187 26.499,605.104 	"/>
	<polyline class="st1" points="41.999,399.167 41.999,358.5 41.999,358.417 93.624,358.417 93.624,388.833 93.458,388.833 
		92.062,388.833 92.062,427.437 90.374,427.437 90.374,424.375 83.321,422.854 	"/>
	<path class="st1" d="M70.377,335.833l-2.917,0.042c0,0-0.542,2.167-1.354,5.042c-2.75-0.062-6.396-0.417-9.562-0.688
		c-2.836-0.243-5.875-0.438-6.562,1.75c-1.18,3.754,2.146,4.938,2.146,4.938c-0.917,3.958,1.083,4.875,3.083,5.208
		s7.792,0.792,15.125,0.792h0.122c7.333,0,13.125-0.458,15.125-0.792c2-0.333,4-1.25,3.083-5.208c0,0,3.326-1.183,2.146-4.938
		c-0.687-2.188-3.727-1.993-6.562-1.75c-3.167,0.271-6.813,0.625-9.563,0.688c-0.812-2.875-1.354-5.042-1.354-5.042l-2.917-0.042
		H70.377z"/>
	<line class="st1" x1="99.087" y1="355.314" x2="87.572" y2="364.645"/>
	<rect x="64.009" y="426.714" class="st2" width="6.406" height="0.97"/>
	<rect x="70.478" y="426.714" class="st2" width="6.406" height="0.97"/>
	<rect x="57.571" y="408.827" class="st2" width="12.905" height="18.92"/>
	<rect x="57.571" y="420.891" class="st2" width="12.905" height="0.97"/>
	<rect x="57.571" y="421.85" class="st2" width="12.905" height="0.971"/>
	<rect x="57.571" y="422.854" class="st2" width="12.905" height="0.97"/>
	<polygon class="st2" points="59.684,424.783 70.477,424.783 70.477,423.813 57.571,423.813 	"/>
	<polygon class="st2" points="61.829,425.786 70.477,425.786 70.477,424.816 59.705,424.816 	"/>
	<rect x="64.322" y="425.776" class="st2" width="6.154" height="0.97"/>
	<rect x="64.322" y="426.735" class="st2" width="6.154" height="0.97"/>
	<polygon class="st2" points="57.571,427.749 63.866,427.749 63.866,426.779 57.561,423.8 	"/>
	<path class="st2" d="M63.846,416.494c0-0.136,0.102-0.244,0.227-0.244l0,0c0.126,0,0.229,0.108,0.229,0.244v11.276
		c0,0.136-0.103,0.244-0.229,0.244l0,0c-0.125,0-0.227-0.108-0.227-0.244C63.846,427.77,63.846,416.494,63.846,416.494z"/>
	<rect x="70.416" y="408.827" class="st2" width="12.905" height="18.92"/>
	<rect x="70.416" y="420.891" class="st2" width="12.905" height="0.97"/>
	<rect x="70.416" y="421.85" class="st2" width="12.905" height="0.971"/>
	<rect x="70.416" y="422.854" class="st2" width="12.905" height="0.97"/>
	<polygon class="st2" points="81.209,424.783 70.416,424.783 70.416,423.813 83.321,423.813 	"/>
	<polygon class="st2" points="79.064,425.786 70.416,425.786 70.416,424.816 81.188,424.816 	"/>
	<rect x="70.416" y="425.776" class="st2" width="6.154" height="0.97"/>
	<rect x="70.416" y="426.735" class="st2" width="6.154" height="0.97"/>
	<polygon class="st2" points="83.321,427.749 77.026,427.749 77.026,426.779 83.332,423.8 	"/>
	<path class="st2" d="M77.047,416.494c0-0.136-0.102-0.244-0.227-0.244l0,0c-0.126,0-0.229,0.108-0.229,0.244v11.276
		c0,0.136,0.103,0.244,0.229,0.244l0,0c0.125,0,0.227-0.108,0.227-0.244V416.494z"/>
	<rect x="53.569" y="436.448" class="st1" width="9.158" height="33.255"/>
	<line class="st1" x1="62.587" y1="461.429" x2="53.714" y2="469.444"/>
	<line class="st1" x1="62.497" y1="469.439" x2="53.616" y2="461.432"/>
	<polyline class="st1" points="62.587,453.305 53.714,461.32 62.497,461.316 53.616,453.306 	"/>
	<polyline class="st1" points="62.587,444.842 53.714,452.857 62.497,452.852 53.616,444.845 	"/>
	<polyline class="st1" points="62.587,436.448 53.714,444.732 62.497,444.727 53.616,436.448 	"/>
	<polygon class="st1" points="64.603,475.917 64.603,469.723 53.603,469.723 53.603,436.348 64.562,436.348 64.562,434.723 
		49.978,434.723 49.978,475.917 	"/>
	<rect x="78.478" y="436.448" class="st1" width="9.116" height="33.255"/>
	<line class="st1" x1="78.617" y1="461.429" x2="87.49" y2="469.444"/>
	<line class="st1" x1="78.707" y1="469.439" x2="87.588" y2="461.432"/>
	<polyline class="st1" points="78.617,453.305 87.49,461.32 78.707,461.316 87.588,453.306 	"/>
	<polyline class="st1" points="78.617,444.842 87.49,452.857 78.707,452.852 87.588,444.845 	"/>
	<polyline class="st1" points="78.617,436.448 87.49,444.732 78.707,444.727 87.588,436.448 	"/>
	<polygon class="st1" points="76.603,475.917 76.603,469.723 87.603,469.723 87.603,436.348 76.644,436.348 76.644,434.723 
		91.228,434.723 91.228,475.917 	"/>
	<rect x="86.331" y="849.282" class="st2" width="6.406" height="0.97"/>
	<rect x="79.854" y="847.345" class="st2" width="12.905" height="0.97"/>
	<rect x="48.04" y="847.345" class="st2" width="12.905" height="0.97"/>
	<rect x="52.778" y="795.812" class="st1" width="9.324" height="33.255"/>
	<line class="st1" x1="61.796" y1="804.087" x2="52.923" y2="796.071"/>
	<line class="st1" x1="61.706" y1="796.076" x2="52.825" y2="804.083"/>
	<polyline class="st1" points="61.796,812.211 52.923,804.195 61.706,804.199 52.825,812.209 	"/>
	<polyline class="st1" points="61.796,820.674 52.923,812.658 61.706,812.663 52.825,820.671 	"/>
	<polyline class="st1" points="61.796,829.067 52.923,820.783 61.706,820.788 52.825,829.067 	"/>
	<polygon class="st1" points="63.978,791.625 63.978,795.792 52.978,795.792 52.978,829.167 63.937,829.167 63.937,830.792 
		49.353,830.792 49.353,791.625 	"/>
	<rect x="77.853" y="795.812" class="st1" width="9.324" height="33.255"/>
	<line class="st1" x1="78.159" y1="804.087" x2="87.032" y2="796.071"/>
	<line class="st1" x1="78.249" y1="796.076" x2="87.13" y2="804.083"/>
	<polyline class="st1" points="78.159,812.211 87.032,804.195 78.249,804.199 87.13,812.209 	"/>
	<polyline class="st1" points="78.159,820.674 87.032,812.658 78.249,812.663 87.13,820.671 	"/>
	<polyline class="st1" points="78.159,829.067 87.032,820.783 78.249,820.788 87.13,829.067 	"/>
	<polygon class="st1" points="75.978,791.625 75.978,795.792 86.978,795.792 86.978,829.167 76.019,829.167 76.019,830.792 
		90.603,830.792 90.603,791.625 	"/>
	<rect x="79.853" y="849.282" class="st2" width="6.406" height="0.97"/>
	<rect x="79.791" y="839.553" class="st2" width="12.905" height="18.198"/>
	<rect x="79.791" y="845.438" class="st2" width="12.905" height="0.97"/>
	<rect x="79.791" y="844.478" class="st2" width="12.905" height="0.971"/>
	<rect x="79.791" y="843.475" class="st2" width="12.905" height="0.97"/>
	<polygon class="st2" points="90.584,842.516 79.791,842.516 79.791,843.486 92.696,843.486 	"/>
	<polygon class="st2" points="88.439,841.514 79.791,841.514 79.791,842.483 90.563,842.483 	"/>
	<rect x="79.791" y="840.554" class="st2" width="6.154" height="0.97"/>
	<rect x="79.791" y="839.595" class="st2" width="6.154" height="0.97"/>
	<polygon class="st2" points="92.696,839.551 86.401,839.551 86.401,840.52 92.707,843.5 	"/>
	<path class="st2" d="M86.422,850.806c0,0.136-0.102,0.244-0.227,0.244l0,0c-0.126,0-0.229-0.108-0.229-0.244V838.53
		c0-0.136,0.103-0.244,0.229-0.244l0,0c0.125,0,0.227,0.108,0.227,0.244V850.806z"/>
	<rect x="54.54" y="849.282" class="st2" width="6.406" height="0.97"/>
	<rect x="47.999" y="849.282" class="st2" width="6.406" height="0.97"/>
	<rect x="48.103" y="839.553" class="st2" width="12.905" height="18.198"/>
	<rect x="48.103" y="845.438" class="st2" width="12.905" height="0.97"/>
	<rect x="48.103" y="844.478" class="st2" width="12.905" height="0.971"/>
	<rect x="48.103" y="843.475" class="st2" width="12.905" height="0.97"/>
	<polygon class="st2" points="50.215,842.516 61.008,842.516 61.008,843.486 48.103,843.486 	"/>
	<polygon class="st2" points="52.36,841.514 61.008,841.514 61.008,842.483 50.236,842.483 	"/>
	<rect x="54.854" y="840.554" class="st2" width="6.154" height="0.97"/>
	<rect x="54.854" y="839.595" class="st2" width="6.154" height="0.97"/>
	<polygon class="st2" points="48.103,839.551 54.398,839.551 54.398,840.52 48.092,843.5 	"/>
	<path class="st2" d="M54.377,850.806c0,0.136,0.102,0.244,0.227,0.244l0,0c0.126,0,0.229-0.108,0.229-0.244V838.53
		c0-0.136-0.103-0.244-0.229-0.244l0,0c-0.125,0-0.227,0.108-0.227,0.244V850.806z"/>
	<path class="st1" d="M41.875,799.75h2v-12c0-2.691,1.309-4,4-4h10.833v-2H47.875c-3.813,0-6,2.187-6,6V799.75z"/>
	<polyline class="st1" points="110.458,408.75 121.958,408.75 121.958,367.292 118.958,358.792 110.749,358.792 110.499,341.229 
		113.877,340.478 113.707,259.915 106.707,247.249 106.707,243.583 91.291,243.583 91.291,226.083 49.708,226.083 49.708,243.583 
		33.957,243.583 33.957,246.999 26.957,259.665 27.444,340.541 30.562,341.229 30.609,349.917 27.515,352.353 27.707,384.25 
		18.374,384.249 18.374,409.25 26.207,409.25 	"/>
	<polyline class="st1" points="80.874,358.417 80.874,374.583 93.541,374.583 	"/>
	<path class="st1" d="M70.377,335.833l-2.917,0.042c0,0-0.542,2.167-1.354,5.042c-2.75-0.062-6.396-0.417-9.562-0.688
		c-2.836-0.243-5.875-0.438-6.562,1.75c-1.18,3.754,2.146,4.938,2.146,4.938c-0.917,3.958,1.083,4.875,3.083,5.208
		s7.792,0.792,15.125,0.792h0.122c7.333,0,13.125-0.458,15.125-0.792c2-0.333,4-1.25,3.083-5.208c0,0,3.326-1.183,2.146-4.938
		c-0.687-2.188-3.727-1.993-6.562-1.75c-3.167,0.271-6.813,0.625-9.563,0.688c-0.812-2.875-1.354-5.042-1.354-5.042l-2.917-0.042
		H70.377z"/>
	<line class="st1" x1="99.087" y1="355.314" x2="87.572" y2="364.645"/>
	<polygon class="st1" points="41.374,408.833 41.374,399.417 41.999,399.417 41.999,399.167 41.999,358.5 41.999,358.417 
		93.624,358.417 93.624,388.833 93.458,388.833 92.062,388.833 92.062,408.792 	"/>
	<line class="st1" x1="41.999" y1="380.521" x2="41.999" y2="358.292"/>
	<rect x="64.009" y="426.714" class="st2" width="6.406" height="0.97"/>
	<rect x="57.509" y="419.902" class="st2" width="12.905" height="0.97"/>
	<rect x="70.478" y="426.714" class="st2" width="6.406" height="0.97"/>
	<rect x="70.479" y="419.902" class="st2" width="12.905" height="0.97"/>
	<rect x="57.509" y="417.964" class="st2" width="12.905" height="0.97"/>
	<rect x="70.479" y="417.964" class="st2" width="12.905" height="0.97"/>
	<rect x="57.571" y="408.827" class="st2" width="12.905" height="18.92"/>
	<rect x="57.571" y="420.891" class="st2" width="12.905" height="0.97"/>
	<rect x="57.571" y="421.85" class="st2" width="12.905" height="0.971"/>
	<rect x="57.571" y="422.854" class="st2" width="12.905" height="0.97"/>
	<polygon class="st2" points="59.684,424.783 70.477,424.783 70.477,423.813 57.571,423.813 	"/>
	<polygon class="st2" points="61.829,425.786 70.477,425.786 70.477,424.816 59.705,424.816 	"/>
	<rect x="64.322" y="425.776" class="st2" width="6.154" height="0.97"/>
	<rect x="64.322" y="426.735" class="st2" width="6.154" height="0.97"/>
	<polygon class="st2" points="57.571,427.749 63.866,427.749 63.866,426.779 57.561,423.8 	"/>
	<path class="st2" d="M63.846,416.494c0-0.136,0.102-0.244,0.227-0.244l0,0c0.126,0,0.229,0.108,0.229,0.244v11.276
		c0,0.136-0.103,0.244-0.229,0.244l0,0c-0.125,0-0.227-0.108-0.227-0.244C63.846,427.77,63.846,416.494,63.846,416.494z"/>
	<rect x="70.416" y="408.827" class="st2" width="12.905" height="18.92"/>
	<rect x="70.416" y="420.891" class="st2" width="12.905" height="0.97"/>
	<rect x="70.416" y="421.85" class="st2" width="12.905" height="0.971"/>
	<rect x="70.416" y="422.854" class="st2" width="12.905" height="0.97"/>
	<polygon class="st2" points="81.209,424.783 70.416,424.783 70.416,423.813 83.321,423.813 	"/>
	<polygon class="st2" points="79.064,425.786 70.416,425.786 70.416,424.816 81.188,424.816 	"/>
	<rect x="70.416" y="425.776" class="st2" width="6.154" height="0.97"/>
	<rect x="70.416" y="426.735" class="st2" width="6.154" height="0.97"/>
	<polygon class="st2" points="83.321,427.749 77.026,427.749 77.026,426.779 83.332,423.8 	"/>
	<path class="st2" d="M77.047,416.494c0-0.136-0.102-0.244-0.227-0.244l0,0c-0.126,0-0.229,0.108-0.229,0.244v11.276
		c0,0.136,0.103,0.244,0.229,0.244l0,0c0.125,0,0.227-0.108,0.227-0.244V416.494z"/>
	<rect x="53.569" y="436.448" class="st1" width="9.158" height="33.255"/>
	<line class="st1" x1="62.587" y1="461.429" x2="53.714" y2="469.444"/>
	<line class="st1" x1="62.497" y1="469.439" x2="53.616" y2="461.432"/>
	<polyline class="st1" points="62.587,453.305 53.714,461.32 62.497,461.316 53.616,453.306 	"/>
	<polyline class="st1" points="62.587,444.842 53.714,452.857 62.497,452.852 53.616,444.845 	"/>
	<polyline class="st1" points="62.587,436.448 53.714,444.732 62.497,444.727 53.616,436.448 	"/>
	<polygon class="st1" points="64.603,475.917 64.603,469.723 53.603,469.723 53.603,436.348 64.562,436.348 64.562,434.723 
		49.978,434.723 49.978,475.917 	"/>
	<rect x="78.478" y="436.448" class="st1" width="9.116" height="33.255"/>
	<line class="st1" x1="78.617" y1="461.429" x2="87.49" y2="469.444"/>
	<line class="st1" x1="78.707" y1="469.439" x2="87.588" y2="461.432"/>
	<polyline class="st1" points="78.617,453.305 87.49,461.32 78.707,461.316 87.588,453.306 	"/>
	<polyline class="st1" points="78.617,444.842 87.49,452.857 78.707,452.852 87.588,444.845 	"/>
	<polyline class="st1" points="78.617,436.448 87.49,444.732 78.707,444.727 87.588,436.448 	"/>
	<polygon class="st1" points="76.603,475.917 76.603,469.723 87.603,469.723 87.603,436.348 76.644,436.348 76.644,434.723 
		91.228,434.723 91.228,475.917 	"/>
	<rect x="86.331" y="849.282" class="st2" width="6.406" height="0.97"/>
	<rect x="79.854" y="847.345" class="st2" width="12.905" height="0.97"/>
	<rect x="48.04" y="847.345" class="st2" width="12.905" height="0.97"/>
	<line class="st1" x1="61.796" y1="804.087" x2="52.923" y2="796.071"/>
	<line class="st1" x1="61.706" y1="796.076" x2="52.825" y2="804.083"/>
	<polyline class="st1" points="61.796,812.211 52.923,804.195 61.706,804.199 52.825,812.209 	"/>
	<polyline class="st1" points="61.796,820.674 52.923,812.658 61.706,812.663 52.825,820.671 	"/>
	<polyline class="st1" points="61.796,829.067 52.923,820.783 61.706,820.788 52.825,829.067 	"/>
	<line class="st1" x1="78.159" y1="804.087" x2="87.032" y2="796.071"/>
	<line class="st1" x1="78.249" y1="796.076" x2="87.13" y2="804.083"/>
	<polyline class="st1" points="78.159,812.211 87.032,804.195 78.249,804.199 87.13,812.209 	"/>
	<polyline class="st1" points="78.159,820.674 87.032,812.658 78.249,812.663 87.13,820.671 	"/>
	<polyline class="st1" points="78.159,829.067 87.032,820.783 78.249,820.788 87.13,829.067 	"/>
	<rect x="79.853" y="849.282" class="st2" width="6.406" height="0.97"/>
	<rect x="79.791" y="839.553" class="st2" width="12.905" height="18.198"/>
	<rect x="79.791" y="845.438" class="st2" width="12.905" height="0.97"/>
	<rect x="79.791" y="844.478" class="st2" width="12.905" height="0.971"/>
	<rect x="79.791" y="843.475" class="st2" width="12.905" height="0.97"/>
	<polygon class="st2" points="90.584,842.516 79.791,842.516 79.791,843.486 92.696,843.486 	"/>
	<polygon class="st2" points="88.439,841.514 79.791,841.514 79.791,842.483 90.563,842.483 	"/>
	<rect x="79.791" y="840.554" class="st2" width="6.154" height="0.97"/>
	<rect x="79.791" y="839.595" class="st2" width="6.154" height="0.97"/>
	<polygon class="st2" points="92.696,839.551 86.401,839.551 86.401,840.52 92.707,843.5 	"/>
	<path class="st2" d="M86.422,850.806c0,0.136-0.102,0.244-0.227,0.244l0,0c-0.126,0-0.229-0.108-0.229-0.244V838.53
		c0-0.136,0.103-0.244,0.229-0.244l0,0c0.125,0,0.227,0.108,0.227,0.244V850.806z"/>
	<rect x="54.54" y="849.282" class="st2" width="6.406" height="0.97"/>
	<rect x="47.999" y="849.282" class="st2" width="6.406" height="0.97"/>
	<rect x="48.103" y="839.553" class="st2" width="12.905" height="18.198"/>
	<rect x="48.103" y="845.438" class="st2" width="12.905" height="0.97"/>
	<rect x="48.103" y="844.478" class="st2" width="12.905" height="0.971"/>
	<rect x="48.103" y="843.475" class="st2" width="12.905" height="0.97"/>
	<polygon class="st2" points="50.215,842.516 61.008,842.516 61.008,843.486 48.103,843.486 	"/>
	<polygon class="st2" points="52.36,841.514 61.008,841.514 61.008,842.483 50.236,842.483 	"/>
	<rect x="54.854" y="840.554" class="st2" width="6.154" height="0.97"/>
	<rect x="54.854" y="839.595" class="st2" width="6.154" height="0.97"/>
	<polygon class="st2" points="48.103,839.551 54.398,839.551 54.398,840.52 48.092,843.5 	"/>
	<path class="st2" d="M54.377,850.806c0,0.136,0.102,0.244,0.227,0.244l0,0c0.126,0,0.229-0.108,0.229-0.244V838.53
		c0-0.136-0.103-0.244-0.229-0.244l0,0c-0.125,0-0.227,0.108-0.227,0.244V850.806z"/>
	<path class="st1" d="M109.374,252.292c-9.425,9.679-25.299,17-39.188,17h-0.248c-13.89,0-29.763-7.321-39.188-17"/>
	<path class="st1" d="M111.749,255.792c-9.95,9.821-26.707,17.25-41.369,17.25h-0.262c-14.662,0-31.42-7.429-41.369-17.25"/>
	<path class="st1" d="M113.624,260.292c-10.384,9.394-27.873,16.5-43.176,16.5h-0.273c-15.303,0-32.792-7.106-43.176-16.5"/>
	<path class="st1" d="M113.624,265.542c-10.384,8.469-27.873,14.874-43.176,14.874h-0.273c-15.303,0-32.792-6.406-43.176-14.874"/>
	<rect x="79.854" y="847.345" class="st2" width="12.905" height="0.97"/>
	<rect x="48.04" y="847.345" class="st2" width="12.905" height="0.97"/>
	<line class="st1" x1="61.796" y1="804.087" x2="52.923" y2="796.071"/>
	<line class="st1" x1="61.706" y1="796.076" x2="52.825" y2="804.083"/>
	<polyline class="st1" points="61.796,812.211 52.923,804.195 61.706,804.199 52.825,812.209 	"/>
	<polyline class="st1" points="61.796,820.674 52.923,812.658 61.706,812.663 52.825,820.671 	"/>
	<polyline class="st1" points="61.796,829.067 52.923,820.783 61.706,820.788 52.825,829.067 	"/>
	<line class="st1" x1="78.159" y1="804.087" x2="87.032" y2="796.071"/>
	<line class="st1" x1="78.249" y1="796.076" x2="87.13" y2="804.083"/>
	<polyline class="st1" points="78.159,812.211 87.032,804.195 78.249,804.199 87.13,812.209 	"/>
	<polyline class="st1" points="78.159,820.674 87.032,812.658 78.249,812.663 87.13,820.671 	"/>
	<polyline class="st1" points="78.159,829.067 87.032,820.783 78.249,820.788 87.13,829.067 	"/>
	<rect x="79.853" y="849.282" class="st2" width="6.406" height="0.97"/>
	<rect x="79.791" y="839.553" class="st2" width="12.905" height="18.198"/>
	<rect x="79.791" y="845.438" class="st2" width="12.905" height="0.97"/>
	<rect x="79.791" y="844.478" class="st2" width="12.905" height="0.971"/>
	<rect x="79.791" y="843.475" class="st2" width="12.905" height="0.97"/>
	<polygon class="st2" points="90.584,842.516 79.791,842.516 79.791,843.486 92.696,843.486 	"/>
	<polygon class="st2" points="88.439,841.514 79.791,841.514 79.791,842.483 90.563,842.483 	"/>
	<rect x="79.791" y="840.554" class="st2" width="6.154" height="0.97"/>
	<rect x="79.791" y="839.595" class="st2" width="6.154" height="0.97"/>
	<polygon class="st2" points="92.696,839.551 86.401,839.551 86.401,840.52 92.707,843.5 	"/>
	<path class="st2" d="M86.422,850.806c0,0.136-0.102,0.244-0.227,0.244l0,0c-0.126,0-0.229-0.108-0.229-0.244V838.53
		c0-0.136,0.103-0.244,0.229-0.244l0,0c0.125,0,0.227,0.108,0.227,0.244V850.806z"/>
	<rect x="54.54" y="849.282" class="st2" width="6.406" height="0.97"/>
	<rect x="47.999" y="849.282" class="st2" width="6.406" height="0.97"/>
	<rect x="48.103" y="839.553" class="st2" width="12.905" height="18.198"/>
	<rect x="48.103" y="845.438" class="st2" width="12.905" height="0.97"/>
	<rect x="48.103" y="844.478" class="st2" width="12.905" height="0.971"/>
	<rect x="48.103" y="843.475" class="st2" width="12.905" height="0.97"/>
	<polygon class="st2" points="50.215,842.516 61.008,842.516 61.008,843.486 48.103,843.486 	"/>
	<polygon class="st2" points="52.36,841.514 61.008,841.514 61.008,842.483 50.236,842.483 	"/>
	<rect x="54.854" y="840.554" class="st2" width="6.154" height="0.97"/>
	<rect x="54.854" y="839.595" class="st2" width="6.154" height="0.97"/>
	<polygon class="st2" points="48.103,839.551 54.398,839.551 54.398,840.52 48.092,843.5 	"/>
	<path class="st2" d="M54.377,850.806c0,0.136,0.102,0.244,0.227,0.244l0,0c0.126,0,0.229-0.108,0.229-0.244V838.53
		c0-0.136-0.103-0.244-0.229-0.244l0,0c-0.125,0-0.227,0.108-0.227,0.244V850.806z"/>
	<polyline class="st1" points="90.662,1026.034 90.662,1014.714 86.249,1014.714 86.249,1015.177 80.874,1015.177 80.874,989.167 
		60.249,989.167 60.249,1015.177 54.412,1015.177 54.412,1014.714 49.999,1014.714 49.999,1026.034 	"/>
	<path class="st1" d="M70.541,1026.583c-12.5,0-39-0.5-49.167-3.833c-12.071-3.958-18.5-12.833-20.833-16.5"/>
	<path class="st1" d="M70.374,1026.583c12.5,0,39-0.5,49.167-3.833c12.071-3.958,18.5-12.833,20.833-16.5"/>
	<line class="st1" x1="76.624" y1="478.807" x2="76.603" y2="475.917"/>
	<line class="st1" x1="114.319" y1="708.359" x2="98.541" y2="708.359"/>
	<polyline class="st1" points="78.562,746.312 76.687,746.312 76.687,765.417 79.124,765.417 79.124,771.854 76.687,771.854 
		76.687,791.604 	"/>
	<polyline class="st1" points="43.062,708.229 43.062,733.729 44.312,738.104 44.312,742.292 25.812,742.292 	"/>
	<path class="st3" d="M57.265,635.822v-0.288c0-1.847,0.6-2.734,1.487-2.734c0.888,0,1.487,0.888,1.487,2.734v0.288
		c0,1.847-0.6,2.734-1.487,2.734C57.864,638.556,57.265,637.668,57.265,635.822z M59.248,635.822v-0.288
		c0-1.439-0.2-1.839-0.496-1.839c-0.295,0-0.496,0.399-0.496,1.839v0.288c0,1.438,0.2,1.839,0.496,1.839
		S59.248,637.26,59.248,635.822z M60.72,632.879h0.872c1.063,0,1.807,0.575,1.807,1.887v0.016c0,1.264-0.704,1.863-1.695,1.936
		h-0.008v1.759H60.72V632.879z M61.704,635.814c0.408-0.024,0.719-0.32,0.719-1v-0.016c0-0.712-0.272-1.016-0.695-1.016h-0.032
		v2.031L61.704,635.814L61.704,635.814z M63.8,632.879h2.143v0.928h-1.167v1.391h1.032v0.928h-1.032v1.423h1.191v0.928H63.8V632.879
		z M66.441,632.879h0.911l0.983,2.83v-2.83h0.952v5.597h-0.864l-1.031-2.967v2.967h-0.951L66.441,632.879L66.441,632.879z
		 M71.656,633.807h-0.688v-0.928h2.352v0.928h-0.688v4.669h-0.976C71.656,638.476,71.656,633.807,71.656,633.807z M73.473,635.822
		v-0.288c0-1.847,0.6-2.734,1.486-2.734c0.888,0,1.487,0.888,1.487,2.734v0.288c0,1.847-0.6,2.734-1.487,2.734
		S73.473,637.668,73.473,635.822z M75.455,635.822v-0.288c0-1.439-0.2-1.839-0.496-1.839s-0.495,0.399-0.495,1.839v0.288
		c0,1.438,0.199,1.839,0.495,1.839S75.455,637.26,75.455,635.822z M61.233,640.879h0.912c1.247,0,1.958,0.903,1.958,2.702v0.192
		c0,1.799-0.711,2.702-1.958,2.702h-0.912C61.233,646.475,61.233,640.879,61.233,640.879z M62.248,645.581
		c0.463,0,0.863-0.408,0.863-1.807v-0.192c0-1.399-0.4-1.807-0.863-1.807h-0.04v3.806H62.248z M64.585,640.879h2.143v0.928H65.56
		v1.391h1.031v0.928H65.56v1.423h1.191v0.928h-2.167L64.585,640.879L64.585,640.879z M67.048,643.774v-0.192
		c0-1.967,0.729-2.742,1.64-2.742c0.271,0,0.432,0.032,0.64,0.128v1.007c-0.2-0.119-0.36-0.184-0.544-0.184
		c-0.432,0-0.743,0.384-0.743,1.783v0.208c0,1.479,0.312,1.783,0.76,1.783c0.151,0,0.344-0.057,0.543-0.176v0.959
		c-0.224,0.128-0.439,0.168-0.72,0.168C67.728,646.516,67.048,645.724,67.048,643.774z M69.832,640.879h0.976v2.343l0.792-2.343
		h1.103l-0.943,2.366l0.96,3.23h-1.088l-0.607-2.119l-0.216,0.616v1.503h-0.976L69.832,640.879L69.832,640.879z M59.141,648.879
		h0.847c0.944,0,1.823,0.384,1.823,1.423v0.04c0,0.72-0.408,1.071-0.808,1.264c0.472,0.208,0.879,0.535,0.879,1.247v0.072
		c0,0.991-0.768,1.551-1.855,1.551H59.14L59.141,648.879L59.141,648.879z M60.132,651.23c0.432,0,0.72-0.248,0.72-0.735v-0.017
		c0-0.487-0.288-0.695-0.72-0.695h-0.016v1.447H60.132z M60.14,653.573c0.448,0,0.768-0.264,0.768-0.728v-0.04
		c0-0.464-0.32-0.728-0.768-0.728h-0.024v1.495h0.024V653.573z M62.293,648.879h2.143v0.928h-1.167v1.391h1.032v0.928h-1.032v1.423
		h1.191v0.928h-2.167C62.293,654.477,62.293,648.879,62.293,648.879z M64.932,648.879h0.975v4.669h1.032v0.928h-2.007
		C64.932,654.476,64.932,648.879,64.932,648.879z M67.036,651.822v-0.288c0-1.847,0.6-2.734,1.487-2.734s1.487,0.888,1.487,2.734
		v0.288c0,1.847-0.6,2.734-1.487,2.734S67.036,653.668,67.036,651.822z M69.02,651.822v-0.288c0-1.439-0.2-1.839-0.496-1.839
		s-0.496,0.399-0.496,1.839v0.288c0,1.438,0.2,1.839,0.496,1.839S69.02,653.26,69.02,651.822z M70.149,648.879h0.999l0.408,3.43
		l0.487-3.43h0.904l0.479,3.43l0.416-3.43h0.975l-0.847,5.612h-1.023l-0.464-3.317l-0.464,3.317h-1.023L70.149,648.879z"/>
	<path class="st3" d="M73.336,498.072v-0.288c0-1.847,0.6-2.734,1.487-2.734s1.487,0.887,1.487,2.734v0.288
		c0,1.847-0.601,2.734-1.487,2.734C73.936,500.806,73.336,499.918,73.336,498.072z M75.319,498.072v-0.288
		c0-1.439-0.199-1.839-0.495-1.839s-0.496,0.399-0.496,1.839v0.288c0,1.439,0.2,1.839,0.496,1.839S75.319,499.511,75.319,498.072z
		 M76.792,495.129h0.871c1.063,0,1.807,0.575,1.807,1.887v0.016c0,1.263-0.703,1.863-1.694,1.935h-0.008v1.759h-0.976V495.129z
		 M77.776,498.063c0.407-0.024,0.72-0.32,0.72-1v-0.016c0-0.712-0.272-1.016-0.696-1.016h-0.031v2.031L77.776,498.063
		L77.776,498.063z M79.872,495.129h2.143v0.927h-1.168v1.391h1.032v0.928h-1.032v1.423h1.191v0.928h-2.166V495.129z M82.512,495.129
		h0.911l0.983,2.83v-2.83h0.952v5.597h-0.864l-1.031-2.966v2.966h-0.951L82.512,495.129L82.512,495.129z M87.728,496.057H87.04
		v-0.927h2.351v0.927h-0.688v4.669h-0.975V496.057z M89.544,498.072v-0.288c0-1.847,0.6-2.734,1.486-2.734
		c0.888,0,1.487,0.887,1.487,2.734v0.288c0,1.847-0.6,2.734-1.487,2.734C90.144,500.806,89.544,499.918,89.544,498.072z
		 M91.527,498.072v-0.288c0-1.439-0.2-1.839-0.496-1.839c-0.295,0-0.495,0.399-0.495,1.839v0.288c0,1.439,0.2,1.839,0.495,1.839
		C91.326,499.911,91.527,499.511,91.527,498.072z M77.304,503.129h0.911c1.248,0,1.959,0.903,1.959,2.702v0.192
		c0,1.799-0.711,2.703-1.959,2.703h-0.911V503.129z M78.319,507.831c0.464,0,0.863-0.408,0.863-1.807v-0.192
		c0-1.399-0.399-1.807-0.863-1.807h-0.04v3.806H78.319z M80.655,503.129h2.144v0.927h-1.168v1.391h1.031v0.928h-1.031v1.423h1.191
		v0.928h-2.167V503.129z M83.119,506.023v-0.192c0-1.967,0.728-2.742,1.64-2.742c0.271,0,0.432,0.032,0.64,0.128v1.007
		c-0.2-0.12-0.36-0.184-0.544-0.184c-0.432,0-0.743,0.384-0.743,1.783v0.208c0,1.479,0.312,1.783,0.759,1.783
		c0.152,0,0.345-0.056,0.544-0.176v0.959c-0.224,0.128-0.439,0.168-0.72,0.168C83.799,508.766,83.119,507.975,83.119,506.023z
		 M85.903,503.129h0.976v2.342l0.792-2.342h1.104l-0.944,2.366l0.96,3.23h-1.088l-0.607-2.119l-0.216,0.616v1.503h-0.976
		L85.903,503.129L85.903,503.129z M75.212,511.129h0.848c0.943,0,1.822,0.384,1.822,1.423v0.04c0,0.72-0.407,1.071-0.808,1.263
		c0.472,0.208,0.88,0.536,0.88,1.248v0.072c0,0.992-0.768,1.551-1.854,1.551h-0.888V511.129z M76.203,513.48
		c0.432,0,0.72-0.248,0.72-0.736v-0.016c0-0.487-0.288-0.695-0.72-0.695h-0.016v1.447H76.203z M76.211,515.823
		c0.448,0,0.768-0.264,0.768-0.728v-0.04c0-0.464-0.319-0.728-0.768-0.728h-0.023v1.495h0.023V515.823z M78.363,511.129h2.144v0.927
		h-1.168v1.391h1.031v0.928h-1.031v1.423h1.191v0.928h-2.167V511.129z M81.004,511.129h0.976v4.669h1.031v0.928h-2.007V511.129z
		 M83.108,514.072v-0.288c0-1.847,0.6-2.734,1.487-2.734s1.487,0.887,1.487,2.734v0.288c0,1.847-0.6,2.734-1.487,2.734
		S83.108,515.918,83.108,514.072z M85.091,514.072v-0.288c0-1.439-0.2-1.839-0.496-1.839s-0.496,0.399-0.496,1.839v0.288
		c0,1.439,0.2,1.839,0.496,1.839S85.091,515.511,85.091,514.072z M86.22,511.129h0.999l0.408,3.43l0.487-3.43h0.904l0.479,3.43
		l0.416-3.43h0.975l-0.847,5.613h-1.023l-0.464-3.318l-0.464,3.318h-1.023L86.22,511.129z"/>
	<path class="st3" d="M83.143,537.629h0.848c0.943,0,1.823,0.384,1.823,1.423v0.04c0,0.72-0.408,1.071-0.808,1.264
		c0.472,0.208,0.879,0.535,0.879,1.247v0.072c0,0.991-0.768,1.551-1.854,1.551h-0.888V537.629z M84.134,539.98
		c0.432,0,0.72-0.248,0.72-0.736v-0.016c0-0.487-0.288-0.695-0.72-0.695h-0.016v1.447H84.134z M84.142,542.323
		c0.448,0,0.768-0.264,0.768-0.728v-0.04c0-0.464-0.319-0.728-0.768-0.728h-0.023v1.495h0.023V542.323z M87.038,537.613h1.039
		l1.063,5.613h-0.975l-0.185-1.111h-0.888l-0.176,1.111h-0.943L87.038,537.613z M87.838,541.235l-0.296-1.847l-0.304,1.847H87.838z
		 M89.439,537.629h1.008c0.999,0,1.727,0.527,1.727,1.783v0.072c0,0.728-0.287,1.191-0.655,1.472l0.751,2.271h-1.04l-0.632-1.951
		h-0.184v1.951h-0.976L89.439,537.629L89.439,537.629z M90.462,540.396c0.424,0,0.735-0.248,0.735-0.904v-0.063
		c0-0.704-0.335-0.888-0.759-0.888h-0.024v1.855H90.462z"/>
	<path class="st3" d="M24.744,627.463h0.847c0.944,0,1.823,0.384,1.823,1.423v0.04c0,0.72-0.408,1.071-0.808,1.264
		c0.472,0.208,0.879,0.535,0.879,1.247v0.072c0,0.991-0.768,1.551-1.855,1.551h-0.887L24.744,627.463L24.744,627.463z
		 M25.736,629.814c0.432,0,0.72-0.248,0.72-0.735v-0.017c0-0.487-0.288-0.695-0.72-0.695H25.72v1.447H25.736z M25.743,632.157
		c0.448,0,0.768-0.264,0.768-0.728v-0.04c0-0.464-0.319-0.728-0.768-0.728h-0.024v1.495h0.024V632.157z M27.896,627.463h0.976v4.669
		h1.031v0.928h-2.007V627.463z M30.312,627.463h0.975v5.597h-0.975V627.463z M31.76,632.868v-1.015
		c0.344,0.199,0.616,0.312,0.88,0.312c0.28,0,0.52-0.136,0.52-0.479v-0.017c0-0.256-0.08-0.447-0.544-0.975
		c-0.664-0.752-0.936-1.112-0.936-1.791v-0.017c0-0.896,0.584-1.463,1.359-1.463c0.392,0,0.624,0.056,0.864,0.176v1.016
		c-0.304-0.176-0.488-0.256-0.744-0.256c-0.272,0-0.504,0.176-0.504,0.479v0.016c0,0.265,0.08,0.36,0.544,0.896
		c0.768,0.888,0.936,1.231,0.936,1.871v0.017c0,0.879-0.616,1.463-1.383,1.463C32.368,633.1,32.04,633.004,31.76,632.868z
		 M34.36,632.868v-1.015c0.344,0.199,0.616,0.312,0.879,0.312c0.28,0,0.52-0.136,0.52-0.479v-0.017c0-0.256-0.08-0.447-0.544-0.975
		c-0.664-0.752-0.936-1.112-0.936-1.791v-0.017c0-0.896,0.584-1.463,1.359-1.463c0.392,0,0.624,0.056,0.864,0.176v1.016
		c-0.304-0.176-0.488-0.256-0.744-0.256c-0.272,0-0.504,0.176-0.504,0.479v0.016c0,0.265,0.08,0.36,0.543,0.896
		c0.768,0.888,0.936,1.231,0.936,1.871v0.017c0,0.879-0.615,1.463-1.383,1.463C34.968,633.1,34.64,633.004,34.36,632.868z
		 M22.396,638.358v-0.192c0-1.967,0.728-2.742,1.639-2.742c0.272,0,0.432,0.032,0.64,0.128v1.007c-0.2-0.119-0.36-0.184-0.544-0.184
		c-0.432,0-0.743,0.384-0.743,1.783v0.208c0,1.479,0.312,1.783,0.759,1.783c0.152,0,0.344-0.057,0.544-0.176v0.959
		c-0.224,0.128-0.44,0.168-0.72,0.168C23.076,641.1,22.396,640.308,22.396,638.358z M25.964,635.447h1.04l1.063,5.613h-0.976
		l-0.184-1.111H26.02l-0.176,1.111H24.9L25.964,635.447z M26.763,639.069l-0.296-1.847l-0.304,1.847H26.763z M28.244,640.868v-1.015
		c0.344,0.199,0.615,0.312,0.879,0.312c0.28,0,0.52-0.136,0.52-0.479v-0.017c0-0.256-0.08-0.447-0.543-0.975
		c-0.664-0.752-0.936-1.112-0.936-1.791v-0.017c0-0.896,0.583-1.463,1.359-1.463c0.392,0,0.624,0.056,0.863,0.176v1.016
		c-0.304-0.176-0.488-0.256-0.744-0.256c-0.272,0-0.503,0.176-0.503,0.479v0.016c0,0.265,0.08,0.36,0.543,0.896
		c0.768,0.888,0.936,1.231,0.936,1.871v0.017c0,0.879-0.616,1.463-1.383,1.463C28.852,641.1,28.524,641.004,28.244,640.868z
		 M30.98,635.463h0.975v5.597H30.98V635.463z M32.548,635.463h0.912l0.983,2.83v-2.83h0.952v5.597h-0.864l-1.031-2.967v2.967h-0.952
		C32.548,641.06,32.548,635.463,32.548,635.463z M35.876,638.406v-0.288c0-1.847,0.6-2.734,1.487-2.734s1.487,0.888,1.487,2.734
		v0.288c0,1.847-0.6,2.734-1.487,2.734C36.476,641.14,35.876,640.252,35.876,638.406z M37.859,638.406v-0.288
		c0-1.439-0.2-1.839-0.496-1.839c-0.296,0-0.496,0.399-0.496,1.839v0.288c0,1.438,0.2,1.839,0.496,1.839
		S37.859,639.844,37.859,638.406z"/>
	<path class="st3" d="M101.744,627.463h0.848c0.943,0,1.822,0.384,1.822,1.423v0.04c0,0.72-0.407,1.071-0.808,1.264
		c0.473,0.208,0.88,0.535,0.88,1.247v0.072c0,0.991-0.768,1.551-1.854,1.551h-0.888V627.463z M102.736,629.814
		c0.432,0,0.72-0.248,0.72-0.735v-0.017c0-0.487-0.288-0.695-0.72-0.695h-0.016v1.447H102.736z M102.743,632.157
		c0.448,0,0.768-0.264,0.768-0.728v-0.04c0-0.464-0.319-0.728-0.768-0.728h-0.023v1.495h0.023V632.157z M104.896,627.463h0.976
		v4.669h1.032v0.928h-2.008C104.896,633.06,104.896,627.463,104.896,627.463z M107.312,627.463h0.976v5.597h-0.976V627.463z
		 M108.76,632.868v-1.015c0.344,0.199,0.616,0.312,0.88,0.312c0.279,0,0.52-0.136,0.52-0.479v-0.017c0-0.256-0.08-0.447-0.544-0.975
		c-0.663-0.752-0.936-1.112-0.936-1.791v-0.017c0-0.896,0.584-1.463,1.359-1.463c0.392,0,0.624,0.056,0.863,0.176v1.016
		c-0.304-0.176-0.487-0.256-0.743-0.256c-0.271,0-0.504,0.176-0.504,0.479v0.016c0,0.265,0.08,0.36,0.544,0.896
		c0.768,0.888,0.936,1.231,0.936,1.871v0.017c0,0.879-0.616,1.463-1.384,1.463C109.367,633.1,109.04,633.004,108.76,632.868z
		 M111.361,632.868v-1.015c0.344,0.199,0.615,0.312,0.879,0.312c0.28,0,0.52-0.136,0.52-0.479v-0.017
		c0-0.256-0.08-0.447-0.543-0.975c-0.664-0.752-0.936-1.112-0.936-1.791v-0.017c0-0.896,0.583-1.463,1.359-1.463
		c0.392,0,0.623,0.056,0.863,0.176v1.016c-0.304-0.176-0.488-0.256-0.744-0.256c-0.271,0-0.504,0.176-0.504,0.479v0.016
		c0,0.265,0.08,0.36,0.544,0.896c0.768,0.888,0.936,1.231,0.936,1.871v0.017c0,0.879-0.615,1.463-1.383,1.463
		C111.968,633.1,111.64,633.004,111.361,632.868z M99.396,638.358v-0.192c0-1.967,0.729-2.742,1.64-2.742
		c0.271,0,0.432,0.032,0.64,0.128v1.007c-0.2-0.119-0.359-0.184-0.544-0.184c-0.432,0-0.743,0.384-0.743,1.783v0.208
		c0,1.479,0.312,1.783,0.76,1.783c0.151,0,0.344-0.057,0.543-0.176v0.959c-0.224,0.128-0.439,0.168-0.72,0.168
		C100.075,641.1,99.396,640.308,99.396,638.358z M102.964,635.447h1.039l1.063,5.613h-0.976l-0.184-1.111h-0.888l-0.176,1.111
		h-0.943L102.964,635.447z M103.763,639.069l-0.296-1.847l-0.304,1.847H103.763z M105.244,640.868v-1.015
		c0.344,0.199,0.615,0.312,0.879,0.312c0.28,0,0.521-0.136,0.521-0.479v-0.017c0-0.256-0.08-0.447-0.544-0.975
		c-0.664-0.752-0.936-1.112-0.936-1.791v-0.017c0-0.896,0.584-1.463,1.359-1.463c0.392,0,0.623,0.056,0.863,0.176v1.016
		c-0.304-0.176-0.487-0.256-0.743-0.256c-0.272,0-0.504,0.176-0.504,0.479v0.016c0,0.265,0.08,0.36,0.544,0.896
		c0.768,0.888,0.935,1.231,0.935,1.871v0.017c0,0.879-0.615,1.463-1.383,1.463C105.852,641.1,105.524,641.004,105.244,640.868z
		 M107.98,635.463h0.976v5.597h-0.976V635.463z M109.548,635.463h0.911l0.983,2.83v-2.83h0.952v5.597h-0.864l-1.031-2.967v2.967
		h-0.951L109.548,635.463L109.548,635.463z M112.876,638.406v-0.288c0-1.847,0.6-2.734,1.487-2.734s1.487,0.888,1.487,2.734v0.288
		c0,1.847-0.6,2.734-1.487,2.734S112.876,640.252,112.876,638.406z M114.859,638.406v-0.288c0-1.439-0.199-1.839-0.495-1.839
		s-0.496,0.399-0.496,1.839v0.288c0,1.438,0.2,1.839,0.496,1.839S114.859,639.844,114.859,638.406z"/>
	<path class="st3" d="M97.909,597.088h0.847c0.944,0,1.823,0.384,1.823,1.423v0.04c0,0.72-0.407,1.071-0.808,1.264
		c0.472,0.208,0.88,0.535,0.88,1.247v0.072c0,0.991-0.768,1.551-1.855,1.551h-0.887C97.909,602.685,97.909,597.088,97.909,597.088z
		 M98.901,599.439c0.432,0,0.72-0.248,0.72-0.735v-0.017c0-0.487-0.288-0.695-0.72-0.695h-0.017v1.447H98.901z M98.908,601.782
		c0.448,0,0.768-0.264,0.768-0.728v-0.04c0-0.464-0.319-0.728-0.768-0.728h-0.024v1.495h0.024V601.782z M101.061,597.088h0.976
		v4.669h1.031v0.928h-2.007C101.061,602.685,101.061,597.088,101.061,597.088z M103.477,597.088h0.976v5.597h-0.976V597.088z
		 M104.925,602.493v-1.015c0.344,0.199,0.615,0.312,0.879,0.312c0.28,0,0.521-0.136,0.521-0.479v-0.017
		c0-0.256-0.08-0.447-0.544-0.975c-0.664-0.752-0.936-1.112-0.936-1.791v-0.017c0-0.896,0.584-1.463,1.359-1.463
		c0.392,0,0.623,0.056,0.863,0.176v1.016c-0.304-0.176-0.487-0.256-0.743-0.256c-0.272,0-0.504,0.176-0.504,0.479v0.016
		c0,0.265,0.08,0.36,0.544,0.896c0.768,0.888,0.936,1.231,0.936,1.871v0.017c0,0.879-0.616,1.463-1.384,1.463
		C105.532,602.725,105.204,602.629,104.925,602.493z M107.525,602.493v-1.015c0.344,0.199,0.616,0.312,0.88,0.312
		c0.279,0,0.52-0.136,0.52-0.479v-0.017c0-0.256-0.08-0.447-0.544-0.975c-0.663-0.752-0.936-1.112-0.936-1.791v-0.017
		c0-0.896,0.584-1.463,1.359-1.463c0.392,0,0.624,0.056,0.863,0.176v1.016c-0.304-0.176-0.487-0.256-0.743-0.256
		c-0.271,0-0.504,0.176-0.504,0.479v0.016c0,0.265,0.08,0.36,0.544,0.896c0.768,0.888,0.936,1.231,0.936,1.871v0.017
		c0,0.879-0.615,1.463-1.383,1.463C108.132,602.725,107.805,602.629,107.525,602.493z M111.421,599.983v-0.192
		c0-1.967,0.728-2.742,1.639-2.742c0.271,0,0.432,0.032,0.64,0.128v1.007c-0.2-0.119-0.359-0.184-0.544-0.184
		c-0.432,0-0.743,0.384-0.743,1.783v0.208c0,1.479,0.312,1.783,0.76,1.783c0.151,0,0.344-0.057,0.544-0.176v0.959
		c-0.225,0.128-0.44,0.168-0.72,0.168C112.101,602.725,111.421,601.933,111.421,599.983z M114.988,597.072h1.039l1.063,5.613h-0.976
		l-0.184-1.111h-0.888l-0.176,1.111h-0.943L114.988,597.072z M115.788,600.694l-0.296-1.847l-0.304,1.847H115.788z M117.269,602.493
		v-1.015c0.344,0.199,0.615,0.312,0.88,0.312c0.279,0,0.52-0.136,0.52-0.479v-0.017c0-0.256-0.08-0.447-0.544-0.975
		c-0.664-0.752-0.936-1.112-0.936-1.791v-0.017c0-0.896,0.584-1.463,1.359-1.463c0.392,0,0.624,0.056,0.863,0.176v1.016
		c-0.304-0.176-0.487-0.256-0.743-0.256c-0.272,0-0.504,0.176-0.504,0.479v0.016c0,0.265,0.08,0.36,0.544,0.896
		c0.768,0.888,0.936,1.231,0.936,1.871v0.017c0,0.879-0.616,1.463-1.384,1.463C117.876,602.725,117.549,602.629,117.269,602.493z
		 M120.005,597.088h0.975v5.597h-0.975V597.088z M121.572,597.088h0.912l0.983,2.83v-2.83h0.951v5.597h-0.863l-1.031-2.967v2.967
		h-0.952V597.088z M124.901,600.031v-0.288c0-1.847,0.6-2.734,1.487-2.734s1.487,0.888,1.487,2.734v0.288
		c0,1.847-0.6,2.734-1.487,2.734S124.901,601.877,124.901,600.031z M126.884,600.031v-0.288c0-1.439-0.2-1.839-0.496-1.839
		s-0.496,0.399-0.496,1.839v0.288c0,1.438,0.2,1.839,0.496,1.839S126.884,601.469,126.884,600.031z M101.477,605.088h0.992
		l0.527,3.646l0.527-3.646h0.96l-1,5.612h-1.007L101.477,605.088z M104.797,605.088h0.976v5.597h-0.976V605.088z M106.364,605.088
		h0.872c1.063,0,1.807,0.575,1.807,1.887v0.016c0,1.264-0.703,1.863-1.695,1.936h-0.008v1.759h-0.976V605.088z M107.348,608.023
		c0.408-0.024,0.72-0.32,0.72-1v-0.016c0-0.712-0.271-1.016-0.695-1.016h-0.032v2.031L107.348,608.023L107.348,608.023z
		 M110.717,605.088h1.007c1,0,1.728,0.527,1.728,1.783v0.071c0,0.728-0.288,1.191-0.655,1.472l0.751,2.271h-1.039l-0.632-1.951
		h-0.184v1.951h-0.976C110.717,610.685,110.717,605.088,110.717,605.088z M111.74,607.855c0.424,0,0.735-0.248,0.735-0.904v-0.063
		c0-0.704-0.336-0.888-0.76-0.888h-0.023v1.855H111.74z M113.805,608.031v-0.288c0-1.847,0.6-2.734,1.487-2.734
		s1.487,0.888,1.487,2.734v0.288c0,1.847-0.6,2.734-1.487,2.734S113.805,609.877,113.805,608.031z M115.787,608.031v-0.288
		c0-1.439-0.199-1.839-0.495-1.839s-0.496,0.399-0.496,1.839v0.288c0,1.438,0.2,1.839,0.496,1.839S115.787,609.469,115.787,608.031z
		 M117.165,608.031v-0.288c0-1.847,0.6-2.734,1.486-2.734c0.888,0,1.487,0.888,1.487,2.734v0.288c0,1.847-0.6,2.734-1.487,2.734
		C117.765,610.765,117.165,609.877,117.165,608.031z M119.148,608.031v-0.288c0-1.439-0.2-1.839-0.496-1.839
		s-0.495,0.399-0.495,1.839v0.288c0,1.438,0.199,1.839,0.495,1.839S119.148,609.469,119.148,608.031z M120.62,605.088h0.968
		l0.688,2.047l0.688-2.047h0.968v5.597h-0.936v-3.382l-0.712,2.118h-0.016l-0.712-2.118v3.382h-0.936L120.62,605.088L120.62,605.088
		z"/>
	<path class="st3" d="M95.745,751.007h0.848c0.943,0,1.822,0.384,1.822,1.423v0.04c0,0.72-0.407,1.071-0.807,1.264
		c0.472,0.208,0.879,0.535,0.879,1.247v0.072c0,0.991-0.768,1.551-1.854,1.551h-0.888V751.007z M96.736,753.358
		c0.432,0,0.72-0.248,0.72-0.735v-0.017c0-0.487-0.288-0.695-0.72-0.695H96.72v1.447H96.736z M96.744,755.701
		c0.448,0,0.768-0.264,0.768-0.728v-0.04c0-0.464-0.319-0.728-0.768-0.728h-0.023v1.495h0.023V755.701z M98.897,751.007h0.976v4.669
		h1.031v0.928h-2.007V751.007z M101.313,751.007h0.976v5.597h-0.976V751.007z M102.761,756.413v-1.016
		c0.344,0.199,0.616,0.312,0.88,0.312c0.279,0,0.52-0.136,0.52-0.479v-0.017c0-0.256-0.08-0.447-0.544-0.976
		c-0.663-0.751-0.936-1.111-0.936-1.791v-0.016c0-0.896,0.584-1.463,1.359-1.463c0.392,0,0.624,0.056,0.863,0.176v1.016
		c-0.304-0.176-0.487-0.256-0.743-0.256c-0.271,0-0.504,0.176-0.504,0.479v0.016c0,0.265,0.08,0.36,0.544,0.896
		c0.768,0.888,0.936,1.231,0.936,1.871v0.017c0,0.879-0.616,1.463-1.384,1.463C103.368,756.644,103.041,756.548,102.761,756.413z
		 M105.361,756.413v-1.016c0.345,0.199,0.616,0.312,0.88,0.312c0.28,0,0.52-0.136,0.52-0.479v-0.017c0-0.256-0.08-0.447-0.543-0.976
		c-0.664-0.751-0.936-1.111-0.936-1.791v-0.016c0-0.896,0.583-1.463,1.358-1.463c0.393,0,0.624,0.056,0.864,0.176v1.016
		c-0.304-0.176-0.488-0.256-0.744-0.256c-0.271,0-0.503,0.176-0.503,0.479v0.016c0,0.265,0.079,0.36,0.543,0.896
		c0.768,0.888,0.936,1.231,0.936,1.871v0.017c0,0.879-0.615,1.463-1.383,1.463C105.969,756.644,105.641,756.548,105.361,756.413z
		 M93.398,761.902v-0.192c0-1.967,0.728-2.742,1.639-2.742c0.271,0,0.432,0.032,0.64,0.128v1.007c-0.2-0.119-0.36-0.184-0.544-0.184
		c-0.432,0-0.743,0.384-0.743,1.783v0.208c0,1.479,0.312,1.783,0.76,1.783c0.151,0,0.344-0.057,0.543-0.177v0.96
		c-0.224,0.128-0.439,0.168-0.72,0.168C94.076,764.644,93.398,763.852,93.398,761.902z M96.965,758.991h1.039l1.063,5.613h-0.976
		l-0.184-1.111h-0.888l-0.176,1.111H95.9L96.965,758.991z M97.764,762.613l-0.296-1.847l-0.304,1.847H97.764z M99.245,764.413
		v-1.016c0.344,0.199,0.615,0.312,0.879,0.312c0.28,0,0.521-0.136,0.521-0.479v-0.017c0-0.256-0.08-0.447-0.544-0.976
		c-0.664-0.751-0.936-1.111-0.936-1.791v-0.016c0-0.896,0.584-1.463,1.359-1.463c0.392,0,0.623,0.056,0.863,0.176v1.016
		c-0.304-0.176-0.487-0.256-0.743-0.256c-0.272,0-0.504,0.176-0.504,0.479v0.016c0,0.265,0.08,0.36,0.544,0.896
		c0.768,0.888,0.936,1.231,0.936,1.871v0.017c0,0.879-0.616,1.463-1.384,1.463C99.853,764.644,99.525,764.548,99.245,764.413z
		 M101.981,759.007h0.976v5.597h-0.976V759.007z M103.549,759.007h0.911l0.983,2.83v-2.83h0.952v5.597h-0.863l-1.032-2.967v2.967
		h-0.951L103.549,759.007L103.549,759.007z M106.877,761.95v-0.288c0-1.847,0.6-2.734,1.487-2.734s1.487,0.888,1.487,2.734v0.288
		c0,1.847-0.6,2.734-1.487,2.734S106.877,763.796,106.877,761.95z M108.86,761.95v-0.288c0-1.439-0.199-1.839-0.495-1.839
		s-0.496,0.399-0.496,1.839v0.288c0,1.439,0.2,1.839,0.496,1.839S108.86,763.389,108.86,761.95z"/>
	<path class="st3" d="M32.078,751.007h0.847c0.944,0,1.823,0.384,1.823,1.423v0.04c0,0.72-0.408,1.071-0.808,1.264
		c0.472,0.208,0.879,0.535,0.879,1.247v0.072c0,0.991-0.768,1.551-1.855,1.551h-0.887L32.078,751.007L32.078,751.007z
		 M33.069,753.358c0.432,0,0.72-0.248,0.72-0.735v-0.017c0-0.487-0.288-0.695-0.72-0.695h-0.016v1.447H33.069z M33.077,755.701
		c0.448,0,0.768-0.264,0.768-0.728v-0.04c0-0.464-0.319-0.728-0.768-0.728h-0.024v1.495h0.024V755.701z M35.23,751.007h0.976v4.669
		h1.031v0.928H35.23V751.007z M37.646,751.007h0.975v5.597h-0.975V751.007z M39.094,756.413v-1.016
		c0.344,0.199,0.616,0.312,0.88,0.312c0.28,0,0.52-0.136,0.52-0.479v-0.017c0-0.256-0.08-0.447-0.544-0.976
		c-0.664-0.751-0.936-1.111-0.936-1.791v-0.016c0-0.896,0.584-1.463,1.359-1.463c0.392,0,0.624,0.056,0.864,0.176v1.016
		c-0.304-0.176-0.488-0.256-0.744-0.256c-0.272,0-0.504,0.176-0.504,0.479v0.016c0,0.265,0.08,0.36,0.544,0.896
		c0.768,0.888,0.936,1.231,0.936,1.871v0.017c0,0.879-0.616,1.463-1.383,1.463C39.702,756.644,39.374,756.548,39.094,756.413z
		 M41.694,756.413v-1.016c0.344,0.199,0.616,0.312,0.879,0.312c0.28,0,0.52-0.136,0.52-0.479v-0.017c0-0.256-0.08-0.447-0.544-0.976
		c-0.664-0.751-0.936-1.111-0.936-1.791v-0.016c0-0.896,0.584-1.463,1.359-1.463c0.392,0,0.624,0.056,0.864,0.176v1.016
		c-0.304-0.176-0.488-0.256-0.744-0.256c-0.272,0-0.504,0.176-0.504,0.479v0.016c0,0.265,0.08,0.36,0.543,0.896
		c0.768,0.888,0.936,1.231,0.936,1.871v0.017c0,0.879-0.615,1.463-1.383,1.463C42.302,756.644,41.974,756.548,41.694,756.413z
		 M29.73,761.902v-0.192c0-1.967,0.728-2.742,1.639-2.742c0.272,0,0.432,0.032,0.64,0.128v1.007c-0.2-0.119-0.36-0.184-0.544-0.184
		c-0.432,0-0.743,0.384-0.743,1.783v0.208c0,1.479,0.312,1.783,0.759,1.783c0.152,0,0.344-0.057,0.544-0.177v0.96
		c-0.224,0.128-0.44,0.168-0.72,0.168C30.41,764.644,29.73,763.852,29.73,761.902z M33.298,758.991h1.04l1.063,5.613h-0.976
		l-0.184-1.111h-0.888l-0.176,1.111h-0.944L33.298,758.991z M34.097,762.613l-0.296-1.847l-0.304,1.847H34.097z M35.578,764.413
		v-1.016c0.344,0.199,0.615,0.312,0.879,0.312c0.28,0,0.52-0.136,0.52-0.479v-0.017c0-0.256-0.08-0.447-0.543-0.976
		c-0.664-0.751-0.936-1.111-0.936-1.791v-0.016c0-0.896,0.583-1.463,1.359-1.463c0.392,0,0.624,0.056,0.863,0.176v1.016
		c-0.304-0.176-0.488-0.256-0.744-0.256c-0.272,0-0.503,0.176-0.503,0.479v0.016c0,0.265,0.08,0.36,0.543,0.896
		c0.768,0.888,0.936,1.231,0.936,1.871v0.017c0,0.879-0.616,1.463-1.383,1.463C36.186,764.644,35.858,764.548,35.578,764.413z
		 M38.314,759.007h0.975v5.597h-0.975V759.007z M39.882,759.007h0.912l0.983,2.83v-2.83h0.952v5.597h-0.864l-1.031-2.967v2.967
		h-0.952C39.882,764.604,39.882,759.007,39.882,759.007z M43.21,761.95v-0.288c0-1.847,0.6-2.734,1.487-2.734
		s1.487,0.888,1.487,2.734v0.288c0,1.847-0.6,2.734-1.487,2.734C43.81,764.684,43.21,763.796,43.21,761.95z M45.193,761.95v-0.288
		c0-1.439-0.2-1.839-0.496-1.839c-0.296,0-0.496,0.399-0.496,1.839v0.288c0,1.439,0.2,1.839,0.496,1.839
		S45.193,763.389,45.193,761.95z"/>
	<path class="st3" d="M44.913,959.723h-0.688v-0.927h2.351v0.927h-0.688v4.67h-0.976L44.913,959.723L44.913,959.723z
		 M46.985,958.796h0.976v2.318h0.848v-2.318h0.975v5.597h-0.975v-2.351h-0.848v2.351h-0.976V958.796z M50.361,958.796h2.143v0.927
		h-1.167v1.392h1.031v0.928h-1.031v1.423h1.191v0.928h-2.167V958.796z M54.273,958.796h0.967l0.688,2.047l0.688-2.047h0.968v5.597
		h-0.936v-3.382l-0.711,2.118H55.92l-0.712-2.118v3.382h-0.935C54.273,964.393,54.273,958.796,54.273,958.796z M58.944,958.78h1.04
		l1.063,5.613h-0.975l-0.184-1.111H59l-0.176,1.111h-0.943L58.944,958.78z M59.744,962.402l-0.295-1.847l-0.304,1.847H59.744z
		 M61.345,958.796h0.912l0.983,2.83v-2.83h0.951v5.597h-0.863l-1.032-2.967v2.967h-0.951V958.796z M64.769,958.796h0.976v2.318
		h0.848v-2.318h0.976v5.597h-0.976v-2.351h-0.848v2.351h-0.976V958.796z M68.928,958.78h1.04l1.063,5.613h-0.976l-0.184-1.111
		h-0.888l-0.176,1.111h-0.944L68.928,958.78z M69.728,962.402l-0.296-1.847l-0.304,1.847H69.728z M71.609,959.723h-0.688v-0.927
		h2.351v0.927h-0.688v4.67h-0.976v-4.67H71.609z M74.2,959.723h-0.688v-0.927h2.351v0.927h-0.688v4.67H74.2V959.723z M76.817,958.78
		h1.039l1.063,5.613h-0.976l-0.184-1.111h-0.888l-0.176,1.111h-0.943L76.817,958.78z M77.615,962.402l-0.296-1.847l-0.304,1.847
		H77.615z M79.217,958.796h0.911l0.983,2.83v-2.83h0.951v5.597h-0.863l-1.031-2.967v2.967h-0.951
		C79.217,964.393,79.217,958.796,79.217,958.796z M83.912,958.796h1.008c0.999,0,1.727,0.527,1.727,1.783v0.071
		c0,0.728-0.287,1.191-0.655,1.472l0.752,2.271h-1.04l-0.632-1.951h-0.184v1.951h-0.976V958.796z M84.936,961.563
		c0.424,0,0.735-0.248,0.735-0.904v-0.063c0-0.704-0.335-0.888-0.759-0.888h-0.024v1.855H84.936z M87,961.739v-0.288
		c0-1.847,0.6-2.734,1.487-2.734s1.487,0.888,1.487,2.734v0.288c0,1.847-0.6,2.734-1.487,2.734S87,963.585,87,961.739z
		 M88.984,961.739v-0.288c0-1.439-0.2-1.839-0.496-1.839s-0.495,0.399-0.495,1.839v0.288c0,1.439,0.199,1.839,0.495,1.839
		S88.984,963.178,88.984,961.739z M90.361,961.739v-0.288c0-1.847,0.6-2.734,1.487-2.734s1.487,0.888,1.487,2.734v0.288
		c0,1.847-0.6,2.734-1.487,2.734S90.361,963.585,90.361,961.739z M92.343,961.739v-0.288c0-1.439-0.199-1.839-0.495-1.839
		s-0.496,0.399-0.496,1.839v0.288c0,1.439,0.2,1.839,0.496,1.839S92.343,963.178,92.343,961.739z M93.817,958.796h0.968l0.688,2.047
		l0.688-2.047h0.967v5.597h-0.936v-3.382l-0.711,2.118h-0.017l-0.711-2.118v3.382h-0.936L93.817,958.796L93.817,958.796z"/>
	<path class="st3" d="M42.063,400.94h1.007c1,0,1.727,0.528,1.727,1.783v0.072c0,0.728-0.288,1.191-0.656,1.471l0.752,2.271h-1.04
		l-0.632-1.951h-0.184v1.951h-0.975L42.063,400.94L42.063,400.94z M43.087,403.707c0.424,0,0.735-0.248,0.735-0.903v-0.064
		c0-0.704-0.335-0.888-0.759-0.888h-0.024v1.855H43.087z M45.247,400.94h1.007c1,0,1.727,0.528,1.727,1.783v0.072
		c0,0.728-0.288,1.191-0.656,1.471l0.751,2.271h-1.039l-0.632-1.951h-0.184v1.951h-0.975L45.247,400.94L45.247,400.94z
		 M46.271,403.707c0.423,0,0.735-0.248,0.735-0.903v-0.064c0-0.704-0.336-0.888-0.76-0.888h-0.024v1.855H46.271z"/>
	<path class="st3" d="M19.563,388.877h1.007c1,0,1.727,0.528,1.727,1.783v0.072c0,0.728-0.288,1.191-0.656,1.471l0.752,2.271h-1.04
		l-0.632-1.951h-0.184v1.951h-0.975L19.563,388.877L19.563,388.877z M20.587,391.644c0.424,0,0.735-0.248,0.735-0.903v-0.064
		c0-0.704-0.335-0.888-0.759-0.888h-0.024v1.855H20.587z M22.747,388.877h1.007c1,0,1.727,0.528,1.727,1.783v0.072
		c0,0.728-0.288,1.191-0.656,1.471l0.751,2.271h-1.039l-0.632-1.951h-0.184v1.951h-0.975v-5.597H22.747z M23.771,391.644
		c0.423,0,0.735-0.248,0.735-0.903v-0.064c0-0.704-0.336-0.888-0.76-0.888h-0.024v1.855H23.771z"/>
	<path class="st3" d="M41.376,412.502h1.007c1,0,1.727,0.528,1.727,1.783v0.072c0,0.728-0.288,1.191-0.656,1.471l0.752,2.271h-1.04
		l-0.632-1.951H42.35v1.951h-0.975L41.376,412.502L41.376,412.502z M42.399,415.269c0.424,0,0.735-0.248,0.735-0.903v-0.064
		c0-0.704-0.335-0.888-0.759-0.888h-0.024v1.855H42.399z M44.56,412.502h1.007c1,0,1.727,0.528,1.727,1.783v0.072
		c0,0.728-0.288,1.191-0.656,1.471l0.751,2.271H46.35l-0.632-1.951h-0.184v1.951H44.56V412.502z M45.583,415.269
		c0.423,0,0.735-0.248,0.735-0.903v-0.064c0-0.704-0.336-0.888-0.76-0.888h-0.024v1.855H45.583z"/>
	<path class="st3" d="M114.063,401.252h1.008c0.999,0,1.728,0.528,1.728,1.783v0.072c0,0.728-0.288,1.191-0.656,1.471l0.752,2.271
		h-1.04l-0.631-1.951h-0.185v1.951h-0.976C114.063,406.849,114.063,401.252,114.063,401.252z M115.086,404.019
		c0.424,0,0.736-0.248,0.736-0.903v-0.064c0-0.704-0.336-0.888-0.76-0.888h-0.024v1.855H115.086z M117.247,401.252h1.007
		c1,0,1.728,0.528,1.728,1.783v0.072c0,0.728-0.288,1.191-0.656,1.471l0.752,2.271h-1.039l-0.632-1.951h-0.184v1.951h-0.976
		C117.247,406.849,117.247,401.252,117.247,401.252z M118.271,404.019c0.424,0,0.735-0.248,0.735-0.903v-0.064
		c0-0.704-0.336-0.888-0.76-0.888h-0.023v1.855H118.271z"/>
	<path class="st3" d="M95.069,340.751h0.848c0.943,0,1.823,0.384,1.823,1.423v0.04c0,0.72-0.408,1.071-0.808,1.263
		c0.472,0.208,0.879,0.536,0.879,1.248v0.072c0,0.992-0.768,1.551-1.854,1.551h-0.888V340.751z M96.06,343.103
		c0.432,0,0.72-0.248,0.72-0.736v-0.016c0-0.488-0.288-0.696-0.72-0.696h-0.016v1.447h0.016V343.103z M96.068,345.445
		c0.448,0,0.768-0.264,0.768-0.728v-0.04c0-0.464-0.319-0.728-0.768-0.728h-0.023v1.496H96.068z M98.124,343.694v-0.288
		c0-1.847,0.6-2.734,1.487-2.734s1.487,0.887,1.487,2.734v0.288c0,1.847-0.6,2.735-1.487,2.735S98.124,345.541,98.124,343.694z
		 M100.108,343.694v-0.288c0-1.439-0.2-1.839-0.496-1.839s-0.495,0.4-0.495,1.839v0.288c0,1.439,0.199,1.839,0.495,1.839
		S100.108,345.133,100.108,343.694z M102.109,343.494l-0.88-2.743h1.039l0.44,1.615l0.447-1.615h1.016l-0.88,2.743l0.912,2.854
		h-1.04l-0.472-1.703l-0.479,1.703h-1.016L102.109,343.494z M92.101,351.694v-0.288c0-1.847,0.6-2.734,1.487-2.734
		s1.487,0.887,1.487,2.734v0.288c0,1.847-0.6,2.735-1.487,2.735S92.101,353.541,92.101,351.694z M94.083,351.694v-0.288
		c0-1.439-0.199-1.839-0.495-1.839s-0.496,0.4-0.496,1.839v0.288c0,1.439,0.2,1.839,0.496,1.839S94.083,353.133,94.083,351.694z
		 M95.557,348.751h2.038v0.928h-1.062v1.407h0.927v0.928h-0.927v2.334h-0.976C95.557,354.348,95.557,348.751,95.557,348.751z
		 M98.036,348.751h2.039v0.928h-1.063v1.407h0.928v0.928h-0.928v2.334h-0.976V348.751z M100.532,348.751h0.976v5.597h-0.976V348.751
		z M102.004,351.646v-0.192c0-1.967,0.728-2.742,1.64-2.742c0.271,0,0.432,0.032,0.64,0.128v1.007c-0.2-0.12-0.36-0.184-0.544-0.184
		c-0.432,0-0.743,0.384-0.743,1.783v0.208c0,1.479,0.312,1.783,0.759,1.783c0.152,0,0.345-0.056,0.544-0.176v0.959
		c-0.224,0.128-0.439,0.168-0.72,0.168C102.684,354.389,102.004,353.597,102.004,351.646z M104.788,348.751h2.143v0.928h-1.167
		v1.391h1.031v0.928h-1.031v1.423h1.191v0.927h-2.167V348.751z"/>
	<path class="st3" d="M37.106,488.478h-0.688v-0.927h2.351v0.927h-0.688v4.669h-0.976L37.106,488.478L37.106,488.478z
		 M39.178,487.55h0.976v2.318h0.848v-2.318h0.975v5.597h-0.975v-2.351h-0.848v2.351h-0.976V487.55z M42.554,487.55h2.143v0.927
		H43.53v1.391h1.031v0.928H43.53v1.423h1.191v0.928h-2.167V487.55z M46.466,487.55h0.975v4.669h1.032v0.928h-2.007V487.55z
		 M48.57,490.493v-0.288c0-1.847,0.6-2.734,1.487-2.734c0.888,0,1.487,0.887,1.487,2.734v0.288c0,1.847-0.6,2.734-1.487,2.734
		C49.17,493.227,48.57,492.339,48.57,490.493z M50.553,490.493v-0.288c0-1.439-0.2-1.839-0.496-1.839s-0.496,0.399-0.496,1.839
		v0.288c0,1.439,0.2,1.839,0.496,1.839S50.553,491.932,50.553,490.493z M51.93,490.444v-0.192c0-1.967,0.728-2.742,1.639-2.742
		c0.272,0,0.432,0.032,0.64,0.128v1.007c-0.2-0.12-0.36-0.184-0.544-0.184c-0.432,0-0.744,0.384-0.744,1.783v0.208
		c0,1.479,0.312,1.783,0.76,1.783c0.152,0,0.344-0.056,0.544-0.176v0.959c-0.224,0.128-0.44,0.168-0.72,0.168
		C52.61,493.187,51.93,492.396,51.93,490.444z M55.497,487.534h1.04l1.063,5.613h-0.976l-0.184-1.111h-0.887l-0.176,1.111h-0.943
		L55.497,487.534z M56.297,491.156l-0.296-1.847l-0.304,1.847H56.297z M57.898,487.55h0.976v4.669h1.031v0.928h-2.007V487.55z
		 M34.29,495.55h0.847c0.944,0,1.823,0.384,1.823,1.423v0.04c0,0.72-0.408,1.071-0.808,1.263c0.472,0.208,0.879,0.536,0.879,1.248
		v0.072c0,0.992-0.768,1.551-1.855,1.551H34.29V495.55z M35.281,497.901c0.432,0,0.72-0.248,0.72-0.736v-0.016
		c0-0.487-0.288-0.695-0.72-0.695h-0.016v1.447H35.281z M35.289,500.244c0.448,0,0.768-0.264,0.768-0.728v-0.04
		c0-0.464-0.319-0.728-0.768-0.728h-0.024v1.495h0.024V500.244z M38.186,495.534h1.04l1.063,5.613h-0.975l-0.184-1.111h-0.888
		l-0.176,1.111h-0.943L38.186,495.534z M38.985,499.156l-0.295-1.847l-0.304,1.847H38.985z M40.586,495.55h1.007
		c1,0,1.727,0.527,1.727,1.783v0.072c0,0.728-0.288,1.191-0.656,1.472l0.752,2.271h-1.04l-0.632-1.951H41.56v1.951h-0.976v-5.598
		H40.586z M41.61,498.316c0.424,0,0.735-0.248,0.735-0.903v-0.064c0-0.704-0.335-0.888-0.759-0.888h-0.024v1.855H41.61z
		 M44.858,499.716v-0.048c0-0.68,0.32-1.184,0.855-1.647c-0.312-0.503-0.472-0.879-0.472-1.271v-0.056
		c0-0.671,0.464-1.223,1.159-1.223c0.68,0,1.127,0.496,1.127,1.215v0.056c0,0.64-0.304,1.087-0.792,1.503l0.504,0.959
		c0.04-0.176,0.072-0.416,0.12-0.751l0.752,0.136c-0.072,0.632-0.2,1.08-0.36,1.439l0.463,0.792l-0.703,0.432l-0.272-0.496
		c-0.264,0.296-0.552,0.472-1.04,0.472C45.482,501.227,44.858,500.627,44.858,499.716z M46.825,500.116l-0.704-1.392
		c-0.208,0.256-0.328,0.592-0.328,0.872v0.064c0,0.432,0.208,0.72,0.528,0.72C46.529,500.379,46.689,500.284,46.825,500.116z
		 M46.353,497.589c0.248-0.24,0.344-0.528,0.344-0.824v-0.063c0-0.272-0.128-0.448-0.312-0.448c-0.192,0-0.312,0.176-0.312,0.416
		v0.08C46.073,496.973,46.161,497.221,46.353,497.589z M49.69,498.444v-0.192c0-1.807,0.768-2.742,1.871-2.742
		c0.296,0,0.544,0.064,0.744,0.16v1.016c-0.24-0.144-0.456-0.24-0.711-0.24c-0.56,0-0.912,0.56-0.912,1.767v0.272
		c0,1.463,0.432,1.799,0.832,1.799c0.032,0,0.04,0,0.088-0.008v-1.431h-0.479v-0.872h1.367v2.975c-0.352,0.152-0.64,0.24-1.016,0.24
		C50.497,501.187,49.69,500.396,49.69,498.444z M53.026,495.55h1.007c1,0,1.727,0.527,1.727,1.783v0.072
		c0,0.728-0.288,1.191-0.656,1.472l0.751,2.271h-1.039l-0.632-1.951H54v1.951h-0.975L53.026,495.55L53.026,495.55z M54.049,498.316
		c0.423,0,0.735-0.248,0.735-0.903v-0.064c0-0.704-0.336-0.888-0.759-0.888h-0.024v1.855H54.049z M56.226,495.55h0.976v5.597h-0.976
		V495.55z M57.794,495.55h0.976v4.669h1.032v0.928h-2.007v-5.597H57.794z M60.194,495.55h0.976v4.669h1.03v0.928h-2.007
		L60.194,495.55L60.194,495.55z"/>
	<path class="st3" d="M53.928,292.379h0.848c0.943,0,1.823,0.384,1.823,1.423v0.04c0,0.72-0.408,1.071-0.808,1.263
		c0.472,0.208,0.879,0.536,0.879,1.248v0.072c0,0.992-0.768,1.551-1.855,1.551h-0.888L53.928,292.379L53.928,292.379z M54.92,294.73
		c0.432,0,0.72-0.248,0.72-0.736v-0.016c0-0.487-0.288-0.695-0.72-0.695h-0.016v1.447H54.92z M54.927,297.073
		c0.448,0,0.768-0.264,0.768-0.728v-0.04c0-0.464-0.32-0.728-0.768-0.728h-0.024v1.495h0.024V297.073z M57.08,292.379h0.975v4.669
		h1.032v0.928H57.08V292.379z M59.496,292.379h0.976v5.597h-0.976V292.379z M60.944,297.784v-1.016
		c0.344,0.2,0.616,0.312,0.879,0.312c0.28,0,0.52-0.136,0.52-0.479v-0.016c0-0.256-0.08-0.448-0.544-0.976
		c-0.664-0.751-0.936-1.111-0.936-1.791v-0.016c0-0.896,0.584-1.463,1.359-1.463c0.392,0,0.624,0.056,0.864,0.176v1.016
		c-0.304-0.176-0.488-0.256-0.744-0.256c-0.272,0-0.504,0.176-0.504,0.479v0.016c0,0.264,0.08,0.36,0.543,0.896
		c0.768,0.887,0.936,1.231,0.936,1.871v0.016c0,0.879-0.615,1.463-1.383,1.463C61.552,298.016,61.224,297.92,60.944,297.784z
		 M63.544,297.784v-1.016c0.344,0.2,0.616,0.312,0.879,0.312c0.28,0,0.52-0.136,0.52-0.479v-0.016c0-0.256-0.08-0.448-0.543-0.976
		c-0.664-0.751-0.936-1.111-0.936-1.791v-0.016c0-0.896,0.583-1.463,1.359-1.463c0.392,0,0.623,0.056,0.863,0.176v1.016
		c-0.304-0.176-0.488-0.256-0.744-0.256c-0.271,0-0.503,0.176-0.503,0.479v0.016c0,0.264,0.08,0.36,0.543,0.896
		c0.768,0.887,0.936,1.231,0.936,1.871v0.016c0,0.879-0.616,1.463-1.384,1.463C64.152,298.016,63.824,297.92,63.544,297.784z
		 M68.056,293.307h-0.688v-0.927h2.351v0.927h-0.688v4.669h-0.976v-4.669H68.056z M70.128,292.379h0.976v2.318h0.847v-2.318h0.976
		v5.597H71.95v-2.351h-0.847v2.351h-0.976L70.128,292.379L70.128,292.379z M73.504,292.379h2.143v0.927H74.48v1.391h1.031v0.928
		H74.48v1.423h1.191v0.928h-2.167C73.504,297.976,73.504,292.379,73.504,292.379z M76.927,292.363h1.04l1.063,5.613h-0.976
		l-0.185-1.111h-0.887l-0.176,1.111h-0.944L76.927,292.363z M77.727,295.985l-0.296-1.847l-0.304,1.847H77.727z M79.608,293.307
		H78.92v-0.927h2.351v0.927h-0.688v4.669h-0.976v-4.669H79.608z M81.68,292.379h2.143v0.927h-1.167v1.391h1.031v0.928h-1.031v1.423
		h1.191v0.928H81.68V292.379z M84.319,292.379h1.008c0.999,0,1.727,0.527,1.727,1.783v0.072c0,0.728-0.288,1.191-0.655,1.472
		l0.751,2.271h-1.039l-0.632-1.951h-0.184v1.951h-0.976V292.379z M85.343,295.146c0.424,0,0.735-0.248,0.735-0.903v-0.064
		c0-0.704-0.336-0.888-0.76-0.888h-0.023v1.855H85.343z"/>
	<path class="st3" d="M33.126,849.878h1.007c1,0,1.727,0.527,1.727,1.783v0.071c0,0.728-0.288,1.191-0.656,1.472l0.752,2.271h-1.04
		l-0.632-1.951H34.1v1.951h-0.975L33.126,849.878L33.126,849.878z M34.149,852.645c0.424,0,0.735-0.248,0.735-0.904v-0.063
		c0-0.704-0.335-0.888-0.759-0.888h-0.024v1.855H34.149z M36.31,849.878h1.007c1,0,1.727,0.527,1.727,1.783v0.071
		c0,0.728-0.288,1.191-0.656,1.472l0.751,2.271H38.1l-0.632-1.951h-0.184v1.951H36.31V849.878z M37.333,852.645
		c0.423,0,0.735-0.248,0.735-0.904v-0.063c0-0.704-0.336-0.888-0.76-0.888h-0.024v1.855H37.333z"/>
	<path class="st3" d="M28.001,841.378h1.007c1,0,1.727,0.527,1.727,1.783v0.071c0,0.728-0.288,1.191-0.656,1.472l0.752,2.271h-1.04
		l-0.632-1.951h-0.184v1.951H28L28.001,841.378L28.001,841.378z M29.024,844.145c0.424,0,0.735-0.248,0.735-0.904v-0.063
		c0-0.704-0.335-0.888-0.759-0.888h-0.024v1.855H29.024z M31.185,841.378h1.007c1,0,1.727,0.527,1.727,1.783v0.071
		c0,0.728-0.288,1.191-0.656,1.472l0.751,2.271h-1.039l-0.632-1.951H32.16v1.951h-0.975V841.378z M32.208,844.145
		c0.423,0,0.735-0.248,0.735-0.904v-0.063c0-0.704-0.336-0.888-0.76-0.888H32.16v1.855H32.208z"/>
	<path class="st3" d="M103.875,849.878h1.008c0.999,0,1.728,0.527,1.728,1.783v0.071c0,0.728-0.288,1.191-0.656,1.472l0.752,2.271
		h-1.04l-0.631-1.951h-0.185v1.951h-0.976C103.875,855.475,103.875,849.878,103.875,849.878z M104.899,852.645
		c0.424,0,0.736-0.248,0.736-0.904v-0.063c0-0.704-0.336-0.888-0.76-0.888h-0.024v1.855H104.899z M107.06,849.878h1.007
		c1,0,1.728,0.527,1.728,1.783v0.071c0,0.728-0.288,1.191-0.656,1.472l0.752,2.271h-1.039l-0.632-1.951h-0.184v1.951h-0.976V849.878
		z M108.083,852.645c0.424,0,0.735-0.248,0.735-0.904v-0.063c0-0.704-0.336-0.888-0.76-0.888h-0.023v1.855H108.083z"/>
	<path class="st4" d="M35.67,779.785v-1.016c0.344,0.199,0.616,0.312,0.879,0.312c0.28,0,0.52-0.136,0.52-0.479v-0.017
		c0-0.256-0.08-0.447-0.543-0.976c-0.664-0.751-0.936-1.111-0.936-1.791v-0.016c0-0.896,0.583-1.463,1.359-1.463
		c0.392,0,0.624,0.056,0.863,0.176v1.016c-0.304-0.176-0.488-0.256-0.744-0.256c-0.271,0-0.503,0.176-0.503,0.479v0.016
		c0,0.265,0.08,0.36,0.543,0.896c0.768,0.888,0.936,1.231,0.936,1.871v0.017c0,0.879-0.616,1.463-1.383,1.463
		C36.277,780.016,35.949,779.92,35.67,779.785z M38.389,774.379h0.976v2.343l0.792-2.343h1.104l-0.944,2.366l0.96,3.23h-1.088
		l-0.607-2.119l-0.216,0.616v1.503h-0.976V774.379z M42.205,777.769l-1.04-3.39h1.007l0.528,2.095l0.536-2.095h0.983l-1.04,3.39
		v2.207h-0.975V777.769z M44.509,774.379h0.976v4.669h1.031v0.928h-2.007V774.379z M46.925,774.379h0.975v5.597h-0.975V774.379z
		 M48.493,774.379h0.912l0.983,2.83v-2.83h0.951v5.597h-0.863l-1.031-2.967v2.967h-0.952V774.379z M51.917,774.379h2.143v0.927
		h-1.167v1.392h1.031v0.928h-1.031v1.423h1.191v0.928h-2.167V774.379z M55.829,774.379h0.847c0.944,0,1.823,0.384,1.823,1.423v0.04
		c0,0.72-0.408,1.071-0.808,1.264c0.472,0.208,0.879,0.535,0.879,1.247v0.072c0,0.991-0.768,1.551-1.855,1.551h-0.887V774.379z
		 M56.82,776.73c0.432,0,0.72-0.248,0.72-0.735v-0.017c0-0.487-0.288-0.695-0.72-0.695h-0.016v1.447H56.82z M56.829,779.073
		c0.447,0,0.768-0.264,0.768-0.728v-0.04c0-0.464-0.32-0.728-0.768-0.728h-0.024v1.495H56.829z M59.725,774.363h1.04l1.063,5.613
		h-0.976l-0.184-1.111h-0.887l-0.176,1.111h-0.943L59.725,774.363z M60.524,777.985l-0.296-1.847l-0.304,1.847H60.524z
		 M62.125,774.379h1.007c1,0,1.727,0.527,1.727,1.783v0.071c0,0.728-0.288,1.191-0.656,1.472l0.752,2.271h-1.04l-0.632-1.951h-0.184
		v1.951h-0.976V774.379z M63.149,777.146c0.424,0,0.735-0.248,0.735-0.904v-0.063c0-0.704-0.335-0.888-0.759-0.888h-0.024v1.855
		H63.149z"/>
</g>
<g id="BLISS_DECK_07_TOP">
	<path class="st5" d="M0.586,1009.987c0,8.723,6.823,17.735,48.379,19.741c3.698,2.763,12.787,4.634,20.934,4.634
		c8.249,0,17.418-1.917,21.075-4.736c41.04-1.709,49.118-10.709,49.118-20.639l0.028-0.571c0,0-1.746-880.375-1.746-886.875
		c0-38.5-39.433-93-45.348-100.5C87.112,13.542,79.247,0.5,70.374,0.5h-0.521h-0.016c-9,0-15.479,13.042-21.479,20.542
		s-46,62-46,100.5c0,6.5-1.771,888.156-1.771,888.156L0.586,1009.987z"/>
	<g id="gDeck07Locations">
		<rect id="_x30_7Aft" y="660.656" class="st6" width="140.724" height="374.385"/>
		<rect id="_x30_7Middle" y="361.706" class="st6" width="140.724" height="298.95"/>
		<rect id="_x30_7Forward" y="0" class="st6" width="140.724" height="361.706"/>
	</g>
</g>
</svg>
