<?xml version="1.0" encoding="utf-8"?>
<!-- Generator: Adobe Illustrator 23.0.2, SVG Export Plug-In . SVG Version: 6.00 Build 0)  -->
<svg version="1.1" id="BLISS_DECK_18" xmlns="http://www.w3.org/2000/svg" xmlns:xlink="http://www.w3.org/1999/xlink" x="0px"
	 y="0px" width="145.763px" height="831.341px" viewBox="0 0 145.763 831.341" style="enable-background:new 0 0 145.763 831.341;"
	 xml:space="preserve">
<style type="text/css">
	.st0{fill:#FFFFFF;}
	.st1{fill:none;stroke:#D5DCE0;stroke-width:0.5;}
	.st2{fill:#FFFFFF;stroke:#D5DCE0;stroke-width:0.5;}
	.st3{fill:#DFEDF1;stroke:#CEDFE5;stroke-width:0.5;}
	.st4{fill:#DFEDF1;}
	.st5{fill:#6E8496;}
	.st6{fill:#EFF2F5;stroke:#FFFFFF;stroke-width:0.5;stroke-miterlimit:10;}
	.st7{fill:none;stroke:#076FA0;stroke-miterlimit:10;}
	.st8{fill:none;}
</style>
<g id="BLISS_DECK_18_BOTTOM">
	<rect x="40.253" y="552.122" class="st0" width="45.667" height="69"/>
	<path class="st0" d="M64.135,0.5h0.342c23.073,0,33.823,3.256,45.121,7.99c7.402,3.102,13.572,7.942,13.572,13.721
		c0,0.643,0,20.119,0,20.119h-4.551v240.161l7.092,16v19.5H97.385v33H64.551h-1.5H30.217v-33H1.891v-19.5l7.092-16V42.288
		L4.087,42.33c0,0,0-19.427,0-20.042c0-5.778,6.515-10.697,13.917-13.798C29.302,3.756,40.052,0.5,63.125,0.5h0.342H64.135z"/>
	<polyline class="st1" points="95.545,610.821 89.571,610.821 89.571,622.705 36.92,622.588 36.864,610.821 18.42,610.821 	"/>
	<rect x="62.987" y="286.694" class="st1" width="6.317" height="0.97"/>
	<rect x="62.966" y="288.632" class="st1" width="12.725" height="0.97"/>
	<rect x="69.376" y="286.694" class="st1" width="6.317" height="0.97"/>
	<rect x="63.028" y="285.2" class="st1" width="12.725" height="12.193"/>
	<rect x="63.028" y="290.538" class="st1" width="12.725" height="0.97"/>
	<rect x="63.028" y="291.497" class="st1" width="12.725" height="0.971"/>
	<rect x="63.028" y="292.501" class="st1" width="12.725" height="0.97"/>
	<polygon class="st1" points="65.111,294.43 75.753,294.43 75.753,293.46 63.028,293.46 	"/>
	<polygon class="st1" points="67.226,295.433 75.753,295.433 75.753,294.463 65.132,294.463 	"/>
	<rect x="69.685" y="295.423" class="st1" width="6.069" height="0.97"/>
	<polygon class="st1" points="63.028,297.395 69.235,297.395 69.235,296.426 63.017,293.446 	"/>
	<path class="st1" d="M69.215,286.141c0-0.136,0.1-0.244,0.223-0.244l0,0c0.124,0,0.225,0.108,0.225,0.244v11.276
		c0,0.136-0.101,0.244-0.225,0.244l0,0c-0.123,0-0.223-0.108-0.223-0.244V286.141z"/>
	<line class="st1" x1="69.985" y1="326.933" x2="78.864" y2="318.925"/>
	<line class="st1" x1="78.768" y1="326.937" x2="69.895" y2="318.921"/>
	<polyline class="st1" points="78.768,318.812 69.985,318.808 78.864,310.529 	"/>
	<line class="st1" x1="69.895" y1="310.529" x2="78.768" y2="318.812"/>
	<rect x="69.719" y="310.549" class="st1" width="9.251" height="16.698"/>
	<line class="st1" x1="55.926" y1="326.933" x2="47.047" y2="318.925"/>
	<line class="st1" x1="47.142" y1="326.937" x2="56.015" y2="318.921"/>
	<polyline class="st1" points="47.142,318.812 55.926,318.808 47.047,310.529 	"/>
	<line class="st1" x1="56.015" y1="310.529" x2="47.142" y2="318.812"/>
	<rect x="46.94" y="310.549" class="st1" width="9.251" height="16.698"/>
	<polyline class="st1" points="53.795,190.561 55.233,188.436 55.233,181.501 	"/>
	<polyline class="st1" points="42.717,59.518 42.717,195.04 51.253,195.04 52.097,193.933 	"/>
	<polyline class="st1" points="51.545,52.955 51.545,61.393 42.67,61.393 	"/>
	<line class="st1" x1="84.884" y1="79.455" x2="84.884" y2="70.205"/>
	<line class="st1" x1="84.884" y1="98.955" x2="84.884" y2="86.08"/>
	<line class="st1" x1="84.884" y1="204.55" x2="84.884" y2="176.705"/>
	<polyline class="st1" points="8.83,282.87 97.42,282.87 97.42,300.83 	"/>
	<line class="st1" x1="97.42" y1="305.455" x2="97.42" y2="317.705"/>
	<line class="st1" x1="118.874" y1="282.889" x2="97.317" y2="282.889"/>
	<line class="st1" x1="30.42" y1="300.205" x2="30.42" y2="283.01"/>
	<polyline class="st1" points="97.235,310.578 69.67,310.58 69.67,329.33 56.17,329.33 56.17,310.518 30.42,310.518 	"/>
	<polyline class="st1" points="16.682,288.705 16.682,279.384 23.92,279.384 23.92,289.122 	"/>
	<rect x="16.682" y="285.915" class="st1" width="7.238" height="1.076"/>
	<rect x="16.682" y="284.85" class="st1" width="7.238" height="1.077"/>
	<rect x="16.682" y="283.737" class="st1" width="7.238" height="1.076"/>
	<polygon class="st1" points="17.867,282.673 23.92,282.673 23.92,283.749 16.682,283.749 	"/>
	<polygon class="st1" points="19.07,281.56 23.92,281.56 23.92,282.636 17.879,282.636 	"/>
	<rect x="20.468" y="280.495" class="st1" width="3.452" height="1.076"/>
	<polygon class="st1" points="16.682,279.382 23.788,279.382 23.788,280.458 16.67,283.764 	"/>
	<polygon class="st1" points="42.92,98.83 42.92,181.376 84.92,181.376 84.764,103.84 58.639,103.84 58.753,98.83 	"/>
	<polyline class="st1" points="42.795,200.825 42.795,214.454 67.42,214.454 67.42,222.954 83.545,222.954 83.545,282.705 	"/>
	<path class="st1" d="M52.952,27.723c2.729-0.229,4.538-2.495,11.048-2.495h-0.703c6.992,0,8.666,2.513,11.718,2.513
		c4.858,0,9.946,0,9.946,0v34.297"/>
	<path class="st1" d="M42.753,54.338V27.742c0,0,3.237,0,7.042,0"/>
	<polyline class="st1" points="83.67,301.705 83.67,300.08 77.67,300.08 77.67,282.705 	"/>
	<polyline class="st1" points="89.545,282.705 89.545,296.08 83.67,296.08 83.67,300.08 	"/>
	<line class="st1" x1="41.67" y1="310.205" x2="41.67" y2="308.08"/>
	<line class="st1" x1="83.42" y1="310.205" x2="83.42" y2="308.08"/>
	<line class="st1" x1="42.753" y1="282.455" x2="42.753" y2="209.455"/>
	<path class="st1" d="M45.866,193.132c-1.599-1.732-2.935-5.085-2.404-7.698c0.279-1.372,1.068-2.415,2.222-2.937
		c1.092-0.493,2.283-0.382,3.355,0.31c2.168,1.4,3.679,5.15,3.679,7.641h-3c0-1.585-1.118-4.354-2.306-5.12
		c-0.291-0.187-0.408-0.136-0.494-0.096c-0.106,0.048-0.39,0.176-0.517,0.8c-0.284,1.397,0.511,3.812,1.668,5.065L45.866,193.132z"
		/>
	<polyline class="st1" points="45.218,192.323 47.447,190.385 47.114,189.656 44.655,191.364 44.114,190.448 46.78,189.135 
		46.572,188.448 43.78,189.531 43.53,188.427 46.51,187.968 46.364,187.198 43.447,187.51 43.322,186.823 43.343,186.468 
		46.26,186.656 46.402,186.031 43.462,185.433 	"/>
	<polyline class="st1" points="52.632,189.404 49.679,189.463 49.437,188.698 52.406,188.316 52.192,187.273 49.335,188.088 
		49.028,187.439 51.825,186.369 51.269,185.383 48.753,187.042 48.344,186.372 50.716,184.647 50.347,184.053 50.094,183.805 
		48.057,185.901 47.533,185.533 49.312,183.117 	"/>
	<polyline class="st1" points="51.378,298.83 61.462,298.788 61.462,291.663 	"/>
	<polyline class="st1" points="79.574,310.49 68.615,310.49 68.615,308.991 68.74,308.991 83.358,308.991 	"/>
	<polyline class="st1" points="46.336,310.49 57.295,310.49 57.295,308.991 57.17,308.991 41.67,309.08 	"/>
	<rect x="30.281" y="360.954" class="st2" width="66.667" height="3.167"/>
	<rect x="30.281" y="358.787" class="st2" width="66.667" height="2.186"/>
	<line class="st1" x1="38.447" y1="360.787" x2="38.447" y2="363.954"/>
	<line class="st1" x1="88.281" y1="360.787" x2="88.281" y2="363.954"/>
	<polyline class="st1" points="35.837,277.038 35.92,282.83 35.92,296.205 30.295,296.205 	"/>
	<path class="st1" d="M41.67,283.08c0,0,0.125,19.5,0.25,19.5v-2.375h9.5v-8.5h10v-9"/>
	<rect x="75.533" y="189.157" class="st1" width="9.324" height="17.035"/>
	<polyline class="st1" points="84.829,189.329 75.854,197.431 84.767,197.459 75.727,189.298 	"/>
	<line class="st1" x1="61.503" y1="103.619" x2="61.503" y2="95.201"/>
	<polyline class="st1" points="73.837,52.705 73.837,94.83 42.67,94.83 	"/>
	<rect x="65.211" y="94.944" class="st1" width="0.915" height="8.954"/>
	<rect x="66.116" y="94.944" class="st1" width="0.915" height="8.954"/>
	<rect x="63.449" y="94.944" class="st1" width="0.915" height="8.954"/>
	<rect x="68.028" y="95.052" class="st1" width="0.915" height="8.829"/>
	<rect x="68.933" y="95.052" class="st1" width="0.915" height="8.829"/>
	<rect x="69.88" y="95.052" class="st1" width="0.915" height="8.829"/>
	<rect x="70.785" y="99.5" class="st1" width="0.915" height="4.381"/>
	<rect x="72.638" y="99.673" class="st1" width="0.915" height="4.208"/>
	<line class="st1" x1="70.866" y1="99.362" x2="72.506" y2="95.059"/>
	<path class="st1" d="M62.937,99.346c-0.089,0-0.16,0.069-0.16,0.156l0,0c0,0.086,0.072,0.156,0.16,0.156h8.244
		c0.089,0,0.16-0.07,0.16-0.156l0,0c0-0.086-0.072-0.156-0.16-0.156H62.937z"/>
	<path class="st1" d="M62.937,99.657h11.188c0.094,0,0.17-0.07,0.17-0.156l0,0c0-0.086-0.076-0.156-0.17-0.156H62.937"/>
	<path class="st1" d="M52.794,27.651l0.153,0.001c0.021-2.357-1.241-5.739-3.39-7.318c-1.128-0.829-2.413-1.072-3.618-0.683"/>
	<path class="st1" d="M46.86,22.507c0.111-0.036,0.407-0.131,0.92,0.246c1.149,0.844,2.156,3.559,2.14,5.265"/>
	<polyline class="st1" points="52.883,26.618 49.93,26.68 49.687,25.916 52.656,25.531 52.442,24.488 49.584,25.306 49.277,24.657 
		52.073,23.585 51.516,22.599 49.001,24.26 48.592,23.591 50.962,21.864 50.593,21.27 50.34,21.022 48.305,23.12 47.78,22.753 
		49.556,20.335 	"/>
	<line class="st1" x1="69.985" y1="326.933" x2="78.864" y2="318.925"/>
	<line class="st1" x1="78.768" y1="326.937" x2="69.895" y2="318.921"/>
	<polyline class="st1" points="78.768,318.812 69.985,318.808 78.864,310.529 	"/>
	<line class="st1" x1="69.895" y1="310.529" x2="78.768" y2="318.812"/>
	<rect x="69.719" y="310.549" class="st1" width="9.251" height="16.698"/>
	<line class="st1" x1="55.926" y1="326.933" x2="47.047" y2="318.925"/>
	<line class="st1" x1="47.142" y1="326.937" x2="56.015" y2="318.921"/>
	<polyline class="st1" points="47.142,318.812 55.926,318.808 47.047,310.529 	"/>
	<line class="st1" x1="56.015" y1="310.529" x2="47.142" y2="318.812"/>
	<rect x="46.94" y="310.549" class="st1" width="9.251" height="16.698"/>
	<polyline class="st1" points="40.17,606.33 29.17,606.33 29.17,575.705 17.795,575.705 17.795,531.705 53.921,531.705 	"/>
	<rect x="53.921" y="531.7" class="st1" width="18.333" height="14.167"/>
	<rect x="54.046" y="545.023" class="st1" width="7.606" height="0.97"/>
	<rect x="54.046" y="544.062" class="st1" width="7.606" height="0.971"/>
	<rect x="54.046" y="543.06" class="st1" width="7.606" height="0.97"/>
	<polygon class="st1" points="60.408,542.101 54.046,542.101 54.046,543.07 61.653,543.07 	"/>
	<polygon class="st1" points="59.143,541.098 54.046,541.098 54.046,542.067 60.395,542.067 	"/>
	<rect x="54.046" y="540.138" class="st1" width="3.627" height="0.97"/>
	<polyline class="st1" points="57.942,540.104 61.659,543.084 61.653,539.135 	"/>
	<path class="st1" d="M57.955,545.386c0,0.136-0.06,0.244-0.134,0.244l0,0c-0.074,0-0.135-0.108-0.135-0.244v-6.272
		c0-0.136,0.06-0.244,0.135-0.244l0,0c0.074,0,0.134,0.108,0.134,0.244V545.386z"/>
	<rect x="64.546" y="545.023" class="st1" width="7.606" height="0.97"/>
	<rect x="64.546" y="544.062" class="st1" width="7.606" height="0.971"/>
	<rect x="64.546" y="543.06" class="st1" width="7.606" height="0.97"/>
	<polygon class="st1" points="70.908,542.101 64.546,542.101 64.546,543.07 72.153,543.07 	"/>
	<polygon class="st1" points="69.643,541.098 64.546,541.098 64.546,542.067 70.895,542.067 	"/>
	<rect x="64.546" y="540.138" class="st1" width="3.627" height="0.97"/>
	<line class="st1" x1="68.442" y1="540.104" x2="72.159" y2="543.084"/>
	<path class="st1" d="M68.455,545.386c0,0.136-0.06,0.244-0.134,0.244l0,0c-0.074,0-0.135-0.108-0.135-0.244v-6.272
		c0-0.136,0.06-0.244,0.135-0.244l0,0c0.074,0,0.134,0.108,0.134,0.244V545.386z"/>
	<rect x="61.65" y="537.241" class="st1" width="2.813" height="8.375"/>
	<rect x="40.128" y="545.913" class="st1" width="32.458" height="6.208"/>
	<rect x="46.185" y="545.895" class="st1" width="0.977" height="6.306"/>
	<rect x="48.105" y="545.865" class="st1" width="0.977" height="6.306"/>
	<polyline class="st1" points="33.795,564.33 33.795,568.58 28.723,568.58 28.723,565.33 17.712,565.33 	"/>
	<polygon class="st1" points="96.185,610.904 101.908,610.918 101.912,612.035 96.189,612.021 	"/>
	<polygon class="st1" points="96.18,609.799 101.903,609.812 101.908,610.93 96.185,610.917 	"/>
	<polygon class="st1" points="96.176,608.644 101.899,608.657 101.903,609.774 96.18,609.76 	"/>
	<line class="st1" x1="101.899" y1="608.67" x2="96.176" y2="608.656"/>
	<polygon class="st1" points="96.171,607.449 101.894,607.463 101.899,608.58 96.176,608.566 	"/>
	<polygon class="st1" points="96.167,606.344 101.89,606.357 101.894,607.475 96.171,607.462 	"/>
	<polygon class="st1" points="96.163,605.189 101.886,602.334 101.89,606.319 96.167,606.305 	"/>
	<line class="st1" x1="101.886" y1="605.214" x2="96.163" y2="605.201"/>
	<line class="st1" x1="101.886" y1="604.094" x2="98.531" y2="604.08"/>
	<line class="st1" x1="101.839" y1="603.116" x2="100.321" y2="603.102"/>
	<polygon class="st1" points="17.385,610.904 11.662,610.918 11.658,612.035 17.381,612.021 	"/>
	<polygon class="st1" points="17.39,609.799 11.667,609.812 11.662,610.93 17.385,610.917 	"/>
	<polygon class="st1" points="17.394,608.644 11.671,608.657 11.667,609.774 17.39,609.76 	"/>
	<line class="st1" x1="11.671" y1="608.67" x2="17.394" y2="608.656"/>
	<polygon class="st1" points="17.399,607.449 11.676,607.463 11.671,608.58 17.394,608.566 	"/>
	<polygon class="st1" points="17.403,606.344 11.68,606.357 11.676,607.475 17.399,607.462 	"/>
	<polygon class="st1" points="17.407,605.189 11.684,602.334 11.68,606.319 17.403,606.305 	"/>
	<line class="st1" x1="11.684" y1="605.214" x2="17.407" y2="605.201"/>
	<line class="st1" x1="11.684" y1="604.094" x2="15.039" y2="604.08"/>
	<line class="st1" x1="11.731" y1="603.116" x2="13.249" y2="603.102"/>
	<polygon class="st1" points="34.318,567.214 39.441,567.226 39.445,568.226 34.322,568.214 	"/>
	<polygon class="st1" points="34.314,566.224 39.437,566.236 39.441,567.237 34.318,567.225 	"/>
	<polygon class="st1" points="34.31,565.19 39.433,565.202 39.437,566.202 34.314,566.19 	"/>
	<line class="st1" x1="39.434" y1="565.213" x2="34.31" y2="565.201"/>
	<polygon class="st1" points="34.306,564.121 39.429,564.133 39.433,565.133 34.31,565.121 	"/>
	<polygon class="st1" points="34.302,563.131 39.426,563.143 39.429,564.144 34.306,564.132 	"/>
	<polygon class="st1" points="34.298,562.097 39.422,559.542 39.425,563.109 34.302,563.097 	"/>
	<line class="st1" x1="39.422" y1="562.12" x2="34.298" y2="562.108"/>
	<line class="st1" x1="39.422" y1="561.117" x2="36.418" y2="561.105"/>
	<line class="st1" x1="39.38" y1="560.242" x2="38.021" y2="560.229"/>
	<polygon class="st1" points="13.603,618.836 14.44,624.498 13.336,624.668 12.499,619.006 	"/>
	<polygon class="st1" points="14.695,618.668 15.532,624.329 14.428,624.5 13.59,618.838 	"/>
	<polygon class="st1" points="15.837,618.492 16.674,624.153 15.57,624.323 14.733,618.662 	"/>
	<line class="st1" x1="16.662" y1="624.155" x2="15.825" y2="618.494"/>
	<polygon class="st1" points="17.017,618.31 17.855,623.971 16.751,624.141 15.914,618.48 	"/>
	<polygon class="st1" points="18.11,618.141 18.947,623.803 17.842,623.973 17.005,618.311 	"/>
	<polygon class="st1" points="19.252,617.965 22.925,623.201 18.985,623.797 18.148,618.135 	"/>
	<line class="st1" x1="20.077" y1="623.628" x2="19.24" y2="617.967"/>
	<line class="st1" x1="21.185" y1="623.462" x2="20.7" y2="620.142"/>
	<line class="st1" x1="22.145" y1="623.27" x2="21.933" y2="621.767"/>
	<polygon class="st1" points="24.832,580.076 24.844,576.28 25.769,576.277 25.757,580.072 	"/>
	<polygon class="st1" points="23.917,580.078 23.929,576.283 24.855,576.28 24.843,580.075 	"/>
	<polygon class="st1" points="22.96,580.082 22.972,576.286 23.897,576.283 23.885,580.079 	"/>
	<line class="st1" x1="22.982" y1="576.286" x2="22.97" y2="580.082"/>
	<polygon class="st1" points="21.971,580.085 21.983,576.289 22.908,576.286 22.896,580.082 	"/>
	<polygon class="st1" points="21.055,580.088 21.067,576.292 21.993,576.289 21.981,580.085 	"/>
	<polygon class="st1" points="20.099,580.091 17.735,576.295 21.036,576.292 21.024,580.088 	"/>
	<line class="st1" x1="20.121" y1="576.295" x2="20.109" y2="580.091"/>
	<line class="st1" x1="19.193" y1="576.295" x2="19.181" y2="578.52"/>
	<line class="st1" x1="18.383" y1="576.326" x2="18.371" y2="577.333"/>
	<polygon class="st1" points="5.062,766.432 1.266,766.42 1.263,765.495 5.059,765.508 	"/>
	<polygon class="st1" points="5.065,767.348 1.269,767.336 1.266,766.41 5.062,766.422 	"/>
	<polygon class="st1" points="5.068,768.305 1.272,768.293 1.269,767.368 5.065,767.38 	"/>
	<line class="st1" x1="1.272" y1="768.282" x2="5.068" y2="768.294"/>
	<polygon class="st1" points="5.071,769.294 1.275,769.282 1.272,768.357 5.068,768.369 	"/>
	<polygon class="st1" points="5.074,770.21 1.278,770.197 1.275,769.272 5.071,769.284 	"/>
	<polygon class="st1" points="5.077,771.166 1.282,773.529 1.279,770.229 5.074,770.241 	"/>
	<line class="st1" x1="1.282" y1="771.144" x2="5.077" y2="771.156"/>
	<line class="st1" x1="1.282" y1="772.072" x2="3.507" y2="772.084"/>
	<line class="st1" x1="1.313" y1="772.882" x2="2.319" y2="772.894"/>
	<polygon class="st1" points="105.865,782.856 109.661,782.868 109.664,783.793 105.868,783.781 	"/>
	<polygon class="st1" points="105.862,781.941 109.658,781.953 109.661,782.879 105.865,782.867 	"/>
	<polygon class="st1" points="105.859,780.984 109.655,780.996 109.658,781.921 105.862,781.909 	"/>
	<line class="st1" x1="109.655" y1="781.006" x2="105.859" y2="780.994"/>
	<polygon class="st1" points="105.856,779.995 109.651,780.007 109.654,780.932 105.859,780.92 	"/>
	<polygon class="st1" points="105.853,779.079 109.648,779.091 109.651,780.017 105.856,780.005 	"/>
	<polygon class="st1" points="105.85,778.123 109.645,775.759 109.648,779.06 105.853,779.048 	"/>
	<line class="st1" x1="109.645" y1="778.145" x2="105.85" y2="778.133"/>
	<line class="st1" x1="109.645" y1="777.217" x2="107.42" y2="777.205"/>
	<line class="st1" x1="109.614" y1="776.407" x2="108.608" y2="776.395"/>
	<polygon class="st1" points="90.34,669.639 90.356,664.101 91.571,664.097 91.556,669.634 	"/>
	<polygon class="st1" points="89.138,669.643 89.153,664.105 90.369,664.101 90.354,669.638 	"/>
	<polygon class="st1" points="87.881,669.647 87.896,664.109 89.111,664.105 89.096,669.643 	"/>
	<line class="st1" x1="87.91" y1="664.109" x2="87.894" y2="669.647"/>
	<polygon class="st1" points="86.581,669.652 86.597,664.114 87.812,664.11 87.796,669.648 	"/>
	<polygon class="st1" points="85.378,669.656 85.394,664.118 86.61,664.114 86.595,669.652 	"/>
	<polygon class="st1" points="84.122,669.66 81.016,664.122 85.352,664.118 85.337,669.656 	"/>
	<line class="st1" x1="84.15" y1="664.123" x2="84.135" y2="669.66"/>
	<line class="st1" x1="82.931" y1="664.122" x2="82.916" y2="667.369"/>
	<line class="st1" x1="81.867" y1="664.168" x2="81.852" y2="665.636"/>
	<path class="st1" d="M7.795,700.58c0,0,0.125-49.222,0.125-55.33c0-12.211,3.833-22.19,21.687-22.19c13.625,0,52.646,0,62.729,0
		c18.917,0,25.021,6.573,25.021,21.812s0,55.708,0,55.708l-15.437-1.952c0,0,0-24.56,0-32.18c0-11.65-2.313-12.721-13.5-12.721
		c-8.438,0-27.5-0.126-27.5-0.126l-16.063,7.305h-7.375l-4.75,4.597c0,0,0.031,22.324-0.062,22.419h-9.438"/>
	<path class="st1" d="M99.295,631.455h-73c-0.552,0-1-0.447-1-1s0.448-1,1-1h73c0.553,0,1,0.447,1,1S99.848,631.455,99.295,631.455z
		"/>
	<path class="st1" d="M62.795,638.893H27.623c-4.256,0-7.195,1.196-8.949,1.5c-0.553,0-2.222,0.219-2.222-1.781
		c0-0.553,0.667-1.219,1.22-1.219h45.06"/>
	<path class="st1" d="M62.779,638.893h35.256c4.266,0,7.212,1.196,8.971,1.5c0.554,0,2.227,0.219,2.227-1.781
		c0-0.553-0.669-1.219-1.223-1.219H62.843"/>
	<rect x="7.92" y="687.955" class="st1" width="15.314" height="33.75"/>
	<rect x="101.933" y="687.955" class="st1" width="15.237" height="33.75"/>
	<path class="st1" d="M114.42,793.455c0,0,0,19.25,0,27s-3.436,12.918-11.917,9.167c-8.667-3.833-13.684-5.792-23.25-6.417
		c-10.208-0.667-8.917-2.083-8.917-13.25c0-7.75,0.167-16.25,0.167-16.25"/>
	<path class="st1" d="M113.537,794.203c0,0,0,18.223,0,25.559s-2.659,12.692-11.44,8.677c-8.255-3.774-13.137-5.483-22.32-6.074
		c-9.8-0.631-8.56-1.972-8.56-12.543c0-7.336,0.16-15.383,0.16-15.383"/>
	<line class="st1" x1="60.608" y1="653.872" x2="43.17" y2="653.872"/>
	<path class="st1" d="M22.587,687.922v-24.8c0-7.185,2.716-10.25,9.083-10.25h10.667c0.552,0,1,0.447,1,1s-0.448,1-1,1H31.67
		c-4.486,0-7.083,1.35-7.083,8.25v24.8H22.587z"/>
	<polyline class="st1" points="93.503,663.122 75.837,663.122 75.837,671.038 93.253,671.038 	"/>
	<polyline class="st1" points="28.003,622.872 28.003,619.955 19.003,617.955 12.499,619.006 	"/>
	<polygon class="st1" points="112.65,619.253 111.813,624.914 112.916,625.085 113.753,619.423 	"/>
	<polygon class="st1" points="111.557,619.084 110.72,624.746 111.825,624.916 112.662,619.255 	"/>
	<polygon class="st1" points="110.415,618.908 109.578,624.57 110.682,624.74 111.519,619.078 	"/>
	<line class="st1" x1="109.59" y1="624.572" x2="110.427" y2="618.91"/>
	<polygon class="st1" points="109.235,618.726 108.398,624.388 109.502,624.558 110.339,618.896 	"/>
	<polygon class="st1" points="108.142,618.558 107.305,624.219 108.41,624.39 109.247,618.728 	"/>
	<polygon class="st1" points="107,618.382 103.327,623.617 107.267,624.213 108.104,618.552 	"/>
	<line class="st1" x1="106.176" y1="624.045" x2="107.013" y2="618.384"/>
	<line class="st1" x1="105.068" y1="623.879" x2="105.552" y2="620.559"/>
	<line class="st1" x1="104.107" y1="623.687" x2="104.319" y2="622.184"/>
	<polyline class="st1" points="98.249,623.288 98.249,620.372 107.249,618.372 113.753,619.423 	"/>
	<circle class="st1" cx="117.858" cy="603.955" r="1.688"/>
	<circle class="st1" cx="117.858" cy="603.955" r="6.451"/>
	<path class="st1" d="M114.253,609.372l2.583-4.062l0.542,0.333l-1.458,4.583l1.938,0.181v-4.764c0,0,0.604,0.042,1.438-0.812
		c0.458,0.25,4.292,2.062,4.292,2.062l0.583-1.458l-4.75-0.979l0.125-0.479l4.764-0.021l-0.181-1.521l-4.625,1.208l-0.104-0.458
		l4.229-2.083l-0.896-1.229l-3.542,2.917l-0.417-0.229l2.938-3.667l-1.292-0.75l-2,4.208l-0.292-0.083l0.667-4.625l-1.667,0.083
		l0.521,4.562l-0.271,0.125l-1.625-4.354l-1.375,0.667l2.583,3.833l-0.354,0.333l-3.479-3.208"/>
	<polyline class="st1" points="102.17,772.58 110.087,772.58 110.087,784.288 	"/>
	<line class="st1" x1="101.92" y1="783.33" x2="105.17" y2="783.33"/>
	<line class="st1" x1="73.795" y1="59.455" x2="51.795" y2="59.455"/>
	<rect x="62.987" y="286.694" class="st1" width="6.317" height="0.97"/>
	<rect x="62.966" y="288.632" class="st1" width="12.725" height="0.97"/>
	<rect x="69.376" y="286.694" class="st1" width="6.317" height="0.97"/>
	<rect x="63.028" y="285.2" class="st1" width="12.725" height="12.193"/>
	<rect x="63.028" y="290.538" class="st1" width="12.725" height="0.97"/>
	<rect x="63.028" y="291.497" class="st1" width="12.725" height="0.971"/>
	<rect x="63.028" y="292.501" class="st1" width="12.725" height="0.97"/>
	<polygon class="st1" points="65.111,294.43 75.753,294.43 75.753,293.46 63.028,293.46 	"/>
	<polygon class="st1" points="67.226,295.433 75.753,295.433 75.753,294.463 65.132,294.463 	"/>
	<rect x="69.685" y="295.423" class="st1" width="6.069" height="0.97"/>
	<polygon class="st1" points="63.028,297.395 69.235,297.395 69.235,296.426 63.017,293.446 	"/>
	<path class="st1" d="M69.215,286.141c0-0.136,0.1-0.244,0.223-0.244l0,0c0.124,0,0.225,0.108,0.225,0.244v11.276
		c0,0.136-0.101,0.244-0.225,0.244l0,0c-0.123,0-0.223-0.108-0.223-0.244V286.141z"/>
	<line class="st1" x1="104.92" y1="276.455" x2="112.087" y2="298.788"/>
	<line class="st1" x1="104.92" y1="276.455" x2="112.087" y2="298.788"/>
	<polyline class="st1" points="30.42,305.705 30.42,309.58 30.42,317.705 	"/>
	<rect x="40.226" y="545.895" class="st1" width="0.977" height="6.306"/>
	<rect x="42.146" y="545.865" class="st1" width="0.977" height="6.306"/>
	<rect x="44.123" y="545.865" class="st1" width="0.977" height="6.306"/>
	<path class="st3" d="M108.141,601.958c0,0-0.706,0.919-1.534,0.091c-0.75-0.75,0.05-1.43,0.05-1.43
		c2.67-2.336,6.243-5.48,9.461-8.503l1.12,1.667C113.996,596.827,110.825,599.609,108.141,601.958z"/>
	<path class="st3" d="M118.768,592.433l-1.18-1.829c5.314-5.235,10.402-11.292,14.567-17.557l1.52,1.4
		C129.431,580.828,124.182,587.098,118.768,592.433z"/>
	<path class="st3" d="M133.074,602.897c-2.917,0-6.296-1.008-10.025-3.531c-8.768-5.931-11.607-15.981-12.478-29.036
		c-0.025-0.371-0.467-0.88-0.489-1.255c-0.354-6.144-0.308-12.9-0.258-20.129c0.021-3.11,0.043-6.038,0.033-9.304
		c-0.002-0.552,0.625-1.271,1.416-1.271c0,0,0.002,0,0.003,0c1.081-0.042,1.332,0.779,1.333,1.331
		c0.01,3.272-0.012,6.474-0.033,9.591c-0.05,7.198-0.096,13.915,0.257,19.994c0.024,0.419-0.283,0.502-0.255,0.916
		c0.85,12.424,3.536,22.058,11.591,27.507c6.46,4.371,12.563,4.262,16.321-0.29c3.571-4.326,4.202-12.218-1.005-17.425
		c-2.548-2.548-4.928-4.737-7.027-6.669c-7.226-6.646-12.445-11.449-16.95-23.265c-3.454-9.061,0.438-15.684,4.822-18.604
		c4.492-2.99,11.583-3.579,17.301,1.855c9.624,9.147,4.809,27.102-2.691,39.477c-0.471-0.44-1-0.917-1.583-1.375
		c6.792-11.417,11.669-28.314,2.896-36.652c-4.918-4.674-10.983-4.192-14.814-1.64c-3.771,2.511-7.097,8.267-4.062,16.226
		c4.336,11.375,9.411,16.044,16.436,22.506c2.113,1.944,4.509,4.149,7.087,6.727c6.001,6.001,5.261,15.111,1.134,20.111
		C140.054,601.092,136.978,602.897,133.074,602.897z"/>
	<path class="st3" d="M28.587,564.955h-7c0-2.207-0.01-4.935-0.021-7.951c-0.049-13.52-0.114-32.036,0.547-37.395
		c0.881-7.14,3.743-16.953,6.029-23.051c2.006-5.348,1.495-11.349-1.242-14.593c-2.016-2.388-5.121-3.196-9.237-2.407l-1.32-6.874
		c6.592-1.267,12.244,0.426,15.907,4.767c4.431,5.251,5.391,13.716,2.447,21.566c-2.215,5.904-4.861,15.168-5.637,21.449
		c-0.607,4.919-0.539,23.932-0.494,36.512C28.577,560.006,28.587,562.741,28.587,564.955z"/>
	<path class="st3" d="M29.085,520.392l-0.017,0.01c-4.838-7.996-9.429-13.607-13.483-18.558c-1.695-2.071-3.297-4.027-4.688-5.899
		c-1.811-2.435-2.985-6.95-1.596-10.525c1.193-3.071,4.085-5.067,8.592-5.933l-1.32-6.874c-8.756,1.682-12.335,6.513-13.796,10.271
		c-2.434,6.261-0.408,13.325,2.504,17.239c1.488,2.002,3.14,4.02,4.889,6.155c3.933,4.804,8.389,10.248,13.004,17.901l0.009-0.006
		c3.775,6.421,1.431,11.841-1.757,14.544c-3.486,2.956-9.343,3.944-14.564-0.513l-4.545,5.324c3.672,3.134,8.034,4.709,12.331,4.709
		c4.036,0,8.015-1.39,11.307-4.182C31.684,539.195,34.875,529.994,29.085,520.392z"/>
	<path class="st4" d="M13.947,473.627c0,0,2.374-0.852,4.335-1.014s1.197,6.443,1.197,6.443s-1.569,0-3.447,0.599
		C14.153,480.253,13.947,473.627,13.947,473.627z"/>
	<path class="st5" d="M5.366,311.365v-1.016c0.344,0.2,0.615,0.312,0.879,0.312c0.28,0,0.52-0.136,0.52-0.479v-0.016
		c0-0.256-0.08-0.448-0.543-0.976c-0.664-0.751-0.936-1.111-0.936-1.791v-0.016c0-0.896,0.583-1.463,1.359-1.463
		c0.392,0,0.624,0.056,0.863,0.176v1.016c-0.304-0.176-0.488-0.256-0.744-0.256c-0.272,0-0.503,0.176-0.503,0.479v0.016
		c0,0.264,0.08,0.36,0.543,0.896c0.768,0.887,0.936,1.231,0.936,1.871v0.016c0,0.879-0.616,1.463-1.383,1.463
		C5.974,311.597,5.646,311.501,5.366,311.365z M8.07,309.926v-3.966h0.967v4.062c0,0.504,0.176,0.704,0.424,0.704
		s0.424-0.2,0.424-0.704v-4.062h0.968v3.966c0,1.175-0.592,1.703-1.392,1.703C8.662,311.628,8.07,311.101,8.07,309.926z
		 M11.414,305.96h0.912l0.983,2.83v-2.83h0.952v5.597h-0.864l-1.031-2.966v2.966h-0.952C11.414,311.557,11.414,305.96,11.414,305.96
		z M16.11,305.96h0.911c1.248,0,1.959,0.903,1.959,2.702v0.192c0,1.799-0.711,2.703-1.959,2.703H16.11V305.96z M17.125,310.661
		c0.464,0,0.864-0.408,0.864-1.807v-0.192c0-1.399-0.4-1.807-0.864-1.807h-0.04v3.806H17.125z M19.462,305.96h2.143v0.927h-1.167
		v1.391h1.032v0.928h-1.032v1.423h1.191v0.928h-2.167V305.96z M21.926,308.854v-0.192c0-1.967,0.728-2.742,1.639-2.742
		c0.272,0,0.432,0.032,0.64,0.128v1.007c-0.2-0.12-0.359-0.184-0.543-0.184c-0.432,0-0.744,0.384-0.744,1.783v0.208
		c0,1.479,0.312,1.783,0.76,1.783c0.152,0,0.344-0.056,0.543-0.176v0.959c-0.224,0.128-0.439,0.168-0.719,0.168
		C22.606,311.597,21.926,310.805,21.926,308.854z M24.71,305.96h0.976v2.342l0.792-2.342h1.104l-0.943,2.366l0.959,3.23h-1.087
		l-0.608-2.119l-0.216,0.616v1.503H24.71V305.96z"/>
	<path class="st5" d="M88.204,253.554h-0.688v-0.928h2.352v0.928H89.18v4.669h-0.975L88.204,253.554L88.204,253.554z
		 M90.276,252.626h0.976v2.319H92.1v-2.319h0.976v5.597H92.1v-2.351h-0.848v2.351h-0.976V252.626z M93.652,252.626h2.143v0.928
		h-1.168v1.391h1.032v0.928h-1.032v1.423h1.191v0.927h-2.166V252.626z M97.564,252.626h0.976v2.319h0.848v-2.319h0.976v5.597h-0.976
		v-2.351H98.54v2.351h-0.976V252.626z M101.724,252.61h1.039l1.063,5.613h-0.976l-0.184-1.111h-0.888l-0.176,1.111h-0.943
		L101.724,252.61z M102.523,256.232l-0.296-1.847l-0.304,1.847H102.523z M103.764,252.626h0.991l0.528,3.646l0.527-3.646h0.96
		l-1,5.613h-1.007L103.764,252.626z M107.068,252.626h2.144v0.928h-1.168v1.391h1.031v0.928h-1.031v1.423h1.191v0.927h-2.167
		V252.626z M109.707,252.626h0.912l0.983,2.831v-2.831h0.951v5.597h-0.863l-1.031-2.966v2.966h-0.952V252.626z M89.68,263.568
		v-0.288c0-1.847,0.6-2.734,1.487-2.734s1.487,0.887,1.487,2.734v0.288c0,1.847-0.6,2.735-1.487,2.735S89.68,265.416,89.68,263.568z
		 M91.663,263.568v-0.288c0-1.439-0.2-1.839-0.496-1.839s-0.495,0.4-0.495,1.839v0.288c0,1.439,0.199,1.839,0.495,1.839
		S91.663,265.008,91.663,263.568z M93.12,264.592v-3.966h0.967v4.062c0,0.504,0.177,0.704,0.424,0.704
		c0.248,0,0.424-0.2,0.424-0.704v-4.062h0.968v3.966c0,1.176-0.592,1.703-1.392,1.703C93.712,266.295,93.12,265.768,93.12,264.592z
		 M96.984,261.554h-0.688v-0.928h2.351v0.928h-0.688v4.669h-0.976v-4.669H96.984z M99.056,260.626h0.911
		c1.248,0,1.959,0.904,1.959,2.703v0.192c0,1.799-0.711,2.703-1.959,2.703h-0.911V260.626z M100.071,265.328
		c0.464,0,0.863-0.408,0.863-1.807v-0.192c0-1.399-0.399-1.807-0.863-1.807h-0.04v3.806H100.071z M102.312,263.568v-0.288
		c0-1.847,0.6-2.734,1.487-2.734s1.487,0.887,1.487,2.734v0.288c0,1.847-0.6,2.735-1.487,2.735S102.312,265.416,102.312,263.568z
		 M104.295,263.568v-0.288c0-1.439-0.2-1.839-0.496-1.839s-0.496,0.4-0.496,1.839v0.288c0,1.439,0.2,1.839,0.496,1.839
		S104.295,265.008,104.295,263.568z M105.672,263.568v-0.288c0-1.847,0.6-2.734,1.487-2.734s1.487,0.887,1.487,2.734v0.288
		c0,1.847-0.601,2.735-1.487,2.735C106.272,266.303,105.672,265.416,105.672,263.568z M107.654,263.568v-0.288
		c0-1.439-0.199-1.839-0.495-1.839s-0.496,0.4-0.496,1.839v0.288c0,1.439,0.2,1.839,0.496,1.839S107.654,265.008,107.654,263.568z
		 M109.128,260.626h1.007c1,0,1.728,0.528,1.728,1.783v0.072c0,0.728-0.288,1.191-0.656,1.471l0.752,2.271h-1.039l-0.632-1.951
		h-0.184v1.951h-0.976C109.128,266.223,109.128,260.626,109.128,260.626z M110.151,263.393c0.424,0,0.735-0.248,0.735-0.903v-0.064
		c0-0.704-0.336-0.888-0.76-0.888h-0.023v1.855H110.151z M86.288,268.626h1.007c1,0,1.728,0.528,1.728,1.783v0.072
		c0,0.728-0.288,1.191-0.655,1.471l0.751,2.271H88.08l-0.632-1.951h-0.184v1.951h-0.976
		C86.288,274.223,86.288,268.626,86.288,268.626z M87.312,271.393c0.424,0,0.735-0.248,0.735-0.903v-0.064
		c0-0.704-0.336-0.888-0.76-0.888h-0.023v1.855H87.312z M89.472,268.626h2.144v0.928h-1.168v1.391h1.031v0.928h-1.031v1.423h1.191
		v0.927h-2.167V268.626z M91.992,274.031v-1.016c0.344,0.2,0.615,0.312,0.879,0.312c0.28,0,0.52-0.136,0.52-0.48v-0.016
		c0-0.256-0.079-0.448-0.543-0.976c-0.664-0.751-0.936-1.111-0.936-1.791v-0.016c0-0.896,0.584-1.463,1.359-1.463
		c0.392,0,0.623,0.056,0.863,0.176v1.015c-0.304-0.176-0.488-0.256-0.744-0.256c-0.271,0-0.503,0.176-0.503,0.48v0.016
		c0,0.264,0.08,0.36,0.543,0.896c0.768,0.887,0.936,1.231,0.936,1.871v0.016c0,0.88-0.615,1.463-1.383,1.463
		C92.6,274.263,92.272,274.167,91.992,274.031z M95.111,269.554h-0.688v-0.928h2.351v0.928h-0.688v4.669H95.11v-4.669H95.111z
		 M97.728,268.61h1.039l1.063,5.613h-0.976l-0.184-1.111h-0.888l-0.176,1.111h-0.943L97.728,268.61z M98.527,272.232l-0.296-1.847
		l-0.305,1.847H98.527z M100.072,272.592v-3.966h0.967v4.062c0,0.504,0.176,0.704,0.424,0.704s0.424-0.2,0.424-0.704v-4.062h0.968
		v3.966c0,1.176-0.592,1.703-1.392,1.703S100.072,273.768,100.072,272.592z M103.416,268.626h1.007c1,0,1.728,0.528,1.728,1.783
		v0.072c0,0.728-0.288,1.191-0.656,1.471l0.752,2.271h-1.039l-0.632-1.951h-0.185v1.951h-0.975V268.626z M104.44,271.393
		c0.424,0,0.735-0.248,0.735-0.903v-0.064c0-0.704-0.336-0.888-0.76-0.888h-0.024v1.855H104.44z M107.383,268.61h1.04l1.063,5.613
		h-0.976l-0.185-1.111h-0.887l-0.176,1.111h-0.944L107.383,268.61z M108.183,272.232l-0.296-1.847l-0.304,1.847H108.183z
		 M109.783,268.626h0.912l0.983,2.831v-2.831h0.951v5.597h-0.863l-1.031-2.966v2.966h-0.952V268.626z M113.728,269.554h-0.688
		v-0.928h2.351v0.928h-0.688v4.669h-0.976v-4.669H113.728z"/>
	<path class="st5" d="M48.464,198.842h-0.688v-0.927h2.351v0.927h-0.688v4.669h-0.975C48.464,203.511,48.464,198.842,48.464,198.842
		z M50.536,197.915h0.975v2.318h0.848v-2.318h0.976v5.597h-0.976v-2.351h-0.848v2.351h-0.975V197.915z M53.912,197.915h2.143v0.927
		h-1.167v1.391h1.032v0.928h-1.032v1.423h1.191v0.928h-2.167C53.912,203.512,53.912,197.915,53.912,197.915z M57.824,197.915H58.8
		v2.318h0.847v-2.318h0.976v5.597h-0.976v-2.351H58.8v2.351h-0.976V197.915z M61.984,197.899h1.039l1.063,5.613H63.11l-0.184-1.111
		h-0.888l-0.176,1.111H60.92L61.984,197.899z M62.783,201.521l-0.296-1.847l-0.304,1.847H62.783z M64.024,197.915h0.992l0.527,3.646
		l0.527-3.646h0.96l-0.999,5.613h-1.008L64.024,197.915z M67.328,197.915h2.143v0.927h-1.168v1.391h1.032v0.928h-1.032v1.423h1.191
		v0.928h-2.166V197.915z M69.968,197.915h0.911l0.983,2.83v-2.83h0.952v5.597H71.95l-1.031-2.966v2.966h-0.951V197.915z
		 M51.572,205.915h0.976v4.669h1.031v0.928h-2.007V205.915z M53.676,208.857v-0.288c0-1.847,0.6-2.734,1.487-2.734
		s1.487,0.887,1.487,2.734v0.288c0,1.847-0.6,2.734-1.487,2.734S53.676,210.704,53.676,208.857z M55.659,208.857v-0.288
		c0-1.439-0.2-1.839-0.496-1.839s-0.496,0.399-0.496,1.839v0.288c0,1.439,0.2,1.839,0.496,1.839S55.659,210.296,55.659,208.857z
		 M57.116,209.881v-3.966h0.968v4.062c0,0.504,0.176,0.704,0.423,0.704c0.248,0,0.424-0.2,0.424-0.704v-4.062h0.968v3.966
		c0,1.175-0.592,1.703-1.392,1.703C57.708,211.584,57.116,211.056,57.116,209.881z M60.46,205.915h0.911l0.983,2.83v-2.83h0.952
		v5.597h-0.864l-1.031-2.966v2.966H60.46V205.915z M63.788,208.809v-0.192c0-1.807,0.768-2.742,1.87-2.742
		c0.296,0,0.544,0.064,0.744,0.16v1.016c-0.24-0.144-0.456-0.24-0.712-0.24c-0.56,0-0.911,0.56-0.911,1.767v0.272
		c0,1.463,0.432,1.799,0.831,1.799c0.032,0,0.04,0,0.088-0.008v-1.431h-0.479v-0.872h1.367v2.975c-0.352,0.152-0.64,0.24-1.016,0.24
		C64.596,211.552,63.788,210.76,63.788,208.809z M67.124,205.915h2.143v0.927H68.1v1.391h1.031v0.928H68.1v1.423h1.19v0.928h-2.166
		V205.915z"/>
	<path class="st5" d="M54.997,7.318V7.031c0-1.847,0.6-2.734,1.487-2.734c0.888,0,1.487,0.887,1.487,2.734v0.288
		c0,1.847-0.6,2.735-1.487,2.735C55.597,10.053,54.997,9.166,54.997,7.318z M56.98,7.318V7.031c0-1.439-0.2-1.839-0.496-1.839
		c-0.295,0-0.496,0.4-0.496,1.839v0.288c0,1.439,0.2,1.839,0.496,1.839S56.98,8.758,56.98,7.318z M58.453,4.376h0.872
		c1.063,0,1.807,0.576,1.807,1.887v0.016c0,1.263-0.703,1.863-1.694,1.935H59.43v1.759h-0.976L58.453,4.376L58.453,4.376z
		 M59.437,7.311c0.408-0.024,0.719-0.32,0.719-1V6.295c0-0.711-0.272-1.015-0.695-1.015h-0.032v2.031H59.437z M61.533,4.376h2.143
		v0.928h-1.168v1.391h1.032v0.928h-1.032v1.423h1.191v0.927h-2.166C61.533,9.973,61.533,4.376,61.533,4.376z M64.173,4.376h0.911
		l0.983,2.831V4.376h0.952v5.597h-0.864l-1.031-2.966v2.966h-0.951L64.173,4.376L64.173,4.376z M69.389,5.304h-0.688V4.376h2.351
		v0.928h-0.688v4.669h-0.975C69.389,9.973,69.389,5.304,69.389,5.304z M71.205,7.318V7.031c0-1.847,0.6-2.734,1.486-2.734
		c0.888,0,1.487,0.887,1.487,2.734v0.288c0,1.847-0.6,2.735-1.487,2.735C71.805,10.053,71.205,9.166,71.205,7.318z M73.188,7.318
		V7.031c0-1.439-0.2-1.839-0.496-1.839c-0.295,0-0.495,0.4-0.495,1.839v0.288c0,1.439,0.2,1.839,0.495,1.839
		C72.987,9.158,73.188,8.758,73.188,7.318z M50.325,12.376h0.912c1.248,0,1.959,0.904,1.959,2.703v0.192
		c0,1.799-0.711,2.703-1.959,2.703h-0.912V12.376z M51.34,17.078c0.464,0,0.864-0.408,0.864-1.807v-0.192
		c0-1.399-0.4-1.807-0.864-1.807H51.3v3.806H51.34z M53.677,12.376h2.143v0.928h-1.167v1.391h1.031v0.928h-1.031v1.423h1.191v0.927
		h-2.167C53.677,17.973,53.677,12.376,53.677,12.376z M56.141,15.271v-0.192c0-1.967,0.728-2.742,1.639-2.742
		c0.272,0,0.432,0.032,0.64,0.128v1.007c-0.2-0.12-0.36-0.184-0.543-0.184c-0.432,0-0.744,0.384-0.744,1.783v0.208
		c0,1.479,0.312,1.783,0.759,1.783c0.152,0,0.344-0.056,0.544-0.176v0.959c-0.224,0.128-0.44,0.168-0.72,0.168
		C56.82,18.013,56.141,17.222,56.141,15.271z M58.925,12.376h0.976v2.343l0.791-2.343h1.104l-0.943,2.367l0.96,3.23h-1.088
		l-0.607-2.119l-0.216,0.615v1.503h-0.976L58.925,12.376L58.925,12.376z M63.421,12.376h0.848c0.943,0,1.822,0.384,1.822,1.423v0.04
		c0,0.72-0.407,1.071-0.808,1.263c0.473,0.208,0.88,0.536,0.88,1.248v0.072c0,0.992-0.768,1.551-1.854,1.551h-0.888
		C63.421,17.973,63.421,12.376,63.421,12.376z M64.412,14.727c0.432,0,0.72-0.248,0.72-0.736v-0.016c0-0.488-0.288-0.696-0.72-0.696
		h-0.016v1.447h0.016V14.727z M64.42,17.07c0.448,0,0.768-0.264,0.768-0.728v-0.04c0-0.464-0.319-0.728-0.768-0.728h-0.023v1.496
		C64.397,17.07,64.42,17.07,64.42,17.07z M66.572,12.376h2.144v0.928h-1.168v1.391h1.032v0.928h-1.032v1.423h1.191v0.927h-2.167
		V12.376z M69.213,12.376h0.976v4.67h1.031v0.927h-2.007V12.376z M71.317,15.318V15.03c0-1.847,0.6-2.734,1.487-2.734
		s1.487,0.887,1.487,2.734v0.288c0,1.847-0.6,2.735-1.487,2.735S71.317,17.166,71.317,15.318z M73.3,15.318V15.03
		c0-1.439-0.2-1.839-0.496-1.839s-0.496,0.4-0.496,1.839v0.288c0,1.439,0.2,1.839,0.496,1.839S73.3,16.758,73.3,15.318z
		 M74.429,12.376h0.999l0.408,3.43l0.487-3.43h0.904l0.479,3.43l0.416-3.43h0.975l-0.847,5.613h-1.023l-0.464-3.318L76.3,17.989
		h-1.023L74.429,12.376z"/>
	<path class="st5" d="M89.173,208.22h-0.688v-0.927h2.351v0.927h-0.688v4.669h-0.976v-4.669H89.173z M91.245,207.293h0.976v2.318
		h0.848v-2.318h0.975v5.597h-0.975v-2.351h-0.848v2.351h-0.976V207.293z M94.621,207.293h2.143v0.927h-1.167v1.391h1.031v0.928
		h-1.031v1.423h1.191v0.928h-2.167V207.293z M98.533,207.293h0.975v2.318h0.848v-2.318h0.976v5.597h-0.976v-2.351h-0.848v2.351
		h-0.975V207.293z M102.693,207.277h1.039l1.063,5.613h-0.976l-0.184-1.111h-0.888l-0.176,1.111h-0.943L102.693,207.277z
		 M103.492,210.899l-0.296-1.847l-0.304,1.847H103.492z M104.733,207.293h0.992l0.527,3.646l0.527-3.646h0.96l-0.999,5.613h-1.008
		L104.733,207.293z M108.037,207.293h2.143v0.927h-1.168v1.391h1.032v0.928h-1.032v1.423h1.191v0.928h-2.166V207.293z
		 M110.677,207.293h0.911l0.983,2.83v-2.83h0.952v5.597h-0.864l-1.031-2.966v2.966h-0.951L110.677,207.293L110.677,207.293z
		 M86.621,215.293h1.008c0.999,0,1.727,0.527,1.727,1.783v0.072c0,0.728-0.288,1.191-0.655,1.472l0.751,2.271h-1.039l-0.632-1.951
		h-0.184v1.951h-0.976V215.293z M87.645,218.059c0.424,0,0.735-0.248,0.735-0.903v-0.064c0-0.704-0.336-0.888-0.76-0.888h-0.023
		v1.855H87.645z M89.805,215.293h2.143v0.927H90.78v1.391h1.031v0.928H90.78v1.423h1.191v0.928h-2.167L89.805,215.293
		L89.805,215.293z M92.325,220.698v-1.016c0.344,0.2,0.615,0.312,0.879,0.312c0.28,0,0.521-0.136,0.521-0.479v-0.016
		c0-0.256-0.08-0.448-0.544-0.976c-0.664-0.751-0.936-1.111-0.936-1.791v-0.016c0-0.896,0.583-1.463,1.359-1.463
		c0.392,0,0.623,0.056,0.863,0.176v1.016c-0.304-0.176-0.487-0.256-0.743-0.256c-0.272,0-0.504,0.176-0.504,0.479v0.016
		c0,0.264,0.08,0.36,0.543,0.896c0.768,0.887,0.936,1.231,0.936,1.871v0.016c0,0.879-0.615,1.463-1.383,1.463
		C92.933,220.93,92.605,220.834,92.325,220.698z M95.444,216.22h-0.688v-0.927h2.351v0.927H96.42v4.669h-0.976V216.22z
		 M98.061,215.277H99.1l1.063,5.613h-0.976l-0.184-1.111h-0.888l-0.176,1.111h-0.943L98.061,215.277z M98.86,218.899l-0.295-1.847
		l-0.305,1.847H98.86z M100.404,219.259v-3.966h0.968v4.062c0,0.504,0.176,0.704,0.424,0.704s0.424-0.2,0.424-0.704v-4.062h0.968
		v3.966c0,1.175-0.592,1.703-1.392,1.703S100.404,220.434,100.404,219.259z M103.749,215.293h1.007c1,0,1.728,0.527,1.728,1.783
		v0.072c0,0.728-0.288,1.191-0.656,1.472l0.752,2.271h-1.039l-0.632-1.951h-0.184v1.951h-0.976
		C103.749,220.891,103.749,215.293,103.749,215.293z M104.773,218.059c0.424,0,0.735-0.248,0.735-0.903v-0.064
		c0-0.704-0.336-0.888-0.76-0.888h-0.023v1.855H104.773z M107.716,215.277h1.04l1.063,5.613h-0.976l-0.184-1.111h-0.888
		l-0.176,1.111h-0.944L107.716,215.277z M108.516,218.899l-0.296-1.847l-0.304,1.847H108.516z M110.116,215.293h0.912l0.983,2.83
		v-2.83h0.951v5.597H112.1l-1.031-2.966v2.966h-0.952L110.116,215.293L110.116,215.293z M114.061,216.22h-0.688v-0.927h2.351v0.927
		h-0.688v4.669h-0.976v-4.669H114.061z"/>
	<path class="st5" d="M53.997,151.902v-0.288c0-1.847,0.6-2.734,1.487-2.734c0.888,0,1.487,0.887,1.487,2.734v0.288
		c0,1.847-0.6,2.734-1.487,2.734C54.597,154.637,53.997,153.749,53.997,151.902z M55.98,151.902v-0.288
		c0-1.439-0.2-1.839-0.496-1.839c-0.295,0-0.496,0.399-0.496,1.839v0.288c0,1.439,0.2,1.839,0.496,1.839
		S55.98,153.341,55.98,151.902z M57.453,148.96h0.872c1.063,0,1.807,0.575,1.807,1.887v0.016c0,1.263-0.704,1.863-1.695,1.935
		h-0.008v1.759h-0.976V148.96z M58.437,151.894c0.408-0.024,0.719-0.32,0.719-1v-0.016c0-0.712-0.272-1.016-0.695-1.016h-0.032
		v2.031h0.008V151.894z M60.533,148.96h2.143v0.927h-1.168v1.391h1.032v0.928h-1.032v1.423h1.191v0.928h-2.166
		C60.533,154.557,60.533,148.96,60.533,148.96z M63.173,148.96h0.911l0.983,2.83v-2.83h0.952v5.597h-0.864l-1.031-2.966v2.966
		h-0.951C63.173,154.557,63.173,148.96,63.173,148.96z M68.389,149.887h-0.688v-0.927h2.351v0.927h-0.688v4.669h-0.975
		C68.389,154.556,68.389,149.887,68.389,149.887z M70.205,151.902v-0.288c0-1.847,0.6-2.734,1.486-2.734
		c0.888,0,1.487,0.887,1.487,2.734v0.288c0,1.847-0.6,2.734-1.487,2.734C70.805,154.637,70.205,153.749,70.205,151.902z
		 M72.188,151.902v-0.288c0-1.439-0.2-1.839-0.496-1.839c-0.295,0-0.495,0.399-0.495,1.839v0.288c0,1.439,0.2,1.839,0.495,1.839
		C71.987,153.741,72.188,153.341,72.188,151.902z M49.325,156.96h0.912c1.248,0,1.959,0.903,1.959,2.702v0.192
		c0,1.799-0.711,2.703-1.959,2.703h-0.912V156.96z M50.34,161.661c0.464,0,0.864-0.408,0.864-1.807v-0.192
		c0-1.399-0.4-1.807-0.864-1.807H50.3v3.806L50.34,161.661L50.34,161.661z M52.677,156.96h2.143v0.927h-1.167v1.391h1.031v0.928
		h-1.031v1.423h1.191v0.928h-2.167C52.677,162.557,52.677,156.96,52.677,156.96z M55.141,159.854v-0.192
		c0-1.967,0.728-2.742,1.639-2.742c0.272,0,0.432,0.032,0.64,0.128v1.007c-0.2-0.12-0.36-0.184-0.543-0.184
		c-0.432,0-0.744,0.384-0.744,1.783v0.208c0,1.479,0.312,1.783,0.759,1.783c0.152,0,0.344-0.056,0.544-0.176v0.959
		c-0.224,0.128-0.44,0.168-0.72,0.168C55.82,162.597,55.141,161.805,55.141,159.854z M57.925,156.96h0.976v2.342l0.792-2.342h1.103
		l-0.943,2.366l0.96,3.23h-1.088l-0.607-2.119l-0.216,0.616v1.503h-0.976L57.925,156.96L57.925,156.96z M62.421,156.96h0.848
		c0.943,0,1.822,0.384,1.822,1.423v0.04c0,0.72-0.407,1.071-0.808,1.263c0.473,0.208,0.88,0.536,0.88,1.248v0.072
		c0,0.992-0.768,1.551-1.854,1.551h-0.888V156.96z M63.412,159.311c0.432,0,0.72-0.248,0.72-0.736v-0.016
		c0-0.487-0.288-0.695-0.72-0.695h-0.016v1.447H63.412z M63.42,161.653c0.448,0,0.768-0.264,0.768-0.728v-0.04
		c0-0.464-0.319-0.728-0.768-0.728h-0.023v1.495L63.42,161.653L63.42,161.653z M65.572,156.96h2.144v0.927h-1.168v1.391h1.032v0.928
		h-1.032v1.423h1.191v0.928h-2.167V156.96z M68.213,156.96h0.976v4.669h1.031v0.928h-2.007V156.96z M70.317,159.902v-0.288
		c0-1.847,0.6-2.734,1.487-2.734s1.487,0.887,1.487,2.734v0.288c0,1.847-0.6,2.734-1.487,2.734S70.317,161.749,70.317,159.902z
		 M72.3,159.902v-0.288c0-1.439-0.2-1.839-0.496-1.839s-0.496,0.399-0.496,1.839v0.288c0,1.439,0.2,1.839,0.496,1.839
		S72.3,161.341,72.3,159.902z M73.429,156.96h0.999l0.408,3.43l0.487-3.43h0.904l0.479,3.43l0.416-3.43h0.975l-0.847,5.613h-1.023
		l-0.464-3.318l-0.464,3.318h-1.023L73.429,156.96z"/>
	<path class="st5" d="M51.673,128.637h-0.688v-0.927h2.351v0.927h-0.688v4.669h-0.975C51.673,133.306,51.673,128.637,51.673,128.637
		z M53.745,127.71h0.975v2.318h0.848v-2.318h0.976v5.597h-0.976v-2.351H54.72v2.351h-0.975
		C53.745,133.307,53.745,127.71,53.745,127.71z M57.121,127.71h2.143v0.927h-1.167v1.391h1.032v0.928h-1.032v1.423h1.191v0.928
		h-2.167C57.121,133.307,57.121,127.71,57.121,127.71z M61.033,127.71h0.975v2.318h0.848v-2.318h0.976v5.597h-0.976v-2.351h-0.848
		v2.351h-0.975V127.71z M65.193,127.694h1.039l1.063,5.613h-0.976l-0.184-1.111h-0.888l-0.176,1.111h-0.943L65.193,127.694z
		 M65.992,131.316l-0.296-1.847l-0.304,1.847H65.992z M67.233,127.71h0.992l0.527,3.646l0.527-3.646h0.96l-0.999,5.613h-1.008
		L67.233,127.71z M70.537,127.71h2.143v0.927h-1.168v1.391h1.032v0.928h-1.032v1.423h1.191v0.928h-2.166V127.71z M73.177,127.71
		h0.911l0.983,2.83v-2.83h0.952v5.597h-0.864l-1.031-2.966v2.966h-0.951L73.177,127.71L73.177,127.71z M50.157,138.604v-0.192
		c0-1.967,0.728-2.742,1.639-2.742c0.272,0,0.432,0.032,0.64,0.128v1.007c-0.2-0.12-0.36-0.184-0.543-0.184
		c-0.432,0-0.744,0.384-0.744,1.783v0.208c0,1.479,0.312,1.783,0.76,1.783c0.152,0,0.344-0.056,0.543-0.176v0.959
		c-0.224,0.128-0.44,0.168-0.72,0.168C50.837,141.347,50.157,140.555,50.157,138.604z M52.645,138.652v-0.288
		c0-1.847,0.6-2.734,1.487-2.734s1.487,0.887,1.487,2.734v0.288c0,1.847-0.6,2.734-1.487,2.734
		C53.245,141.387,52.645,140.499,52.645,138.652z M54.628,138.652v-0.288c0-1.439-0.2-1.839-0.496-1.839
		c-0.296,0-0.496,0.399-0.496,1.839v0.288c0,1.439,0.2,1.839,0.496,1.839C54.428,140.491,54.628,140.091,54.628,138.652z
		 M56.085,139.676v-3.966h0.967v4.062c0,0.504,0.176,0.704,0.424,0.704s0.424-0.2,0.424-0.704v-4.062h0.967v3.966
		c0,1.175-0.591,1.703-1.391,1.703C56.677,141.378,56.085,140.851,56.085,139.676z M59.429,135.71h1.008
		c0.999,0,1.727,0.527,1.727,1.783v0.072c0,0.728-0.288,1.191-0.655,1.472l0.751,2.271h-1.04l-0.632-1.951h-0.184v1.951h-0.976
		L59.429,135.71L59.429,135.71z M60.452,138.476c0.424,0,0.735-0.248,0.735-0.903v-0.064c0-0.704-0.336-0.888-0.76-0.888h-0.023
		v1.855H60.452z M63.053,136.637h-0.688v-0.927h2.351v0.927h-0.688v4.669h-0.976v-4.669H63.053z M65.796,139.1l-1.039-3.39h1.008
		l0.527,2.095l0.536-2.095h0.983l-1.04,3.39v2.207h-0.976L65.796,139.1L65.796,139.1z M68.565,135.694h1.039l1.063,5.613h-0.976
		l-0.184-1.111H68.62l-0.176,1.111h-0.943L68.565,135.694z M69.364,139.316l-0.296-1.847l-0.305,1.847H69.364z M70.965,135.71h1.007
		c1,0,1.728,0.527,1.728,1.783v0.072c0,0.728-0.288,1.191-0.655,1.472l0.751,2.271h-1.039l-0.632-1.951h-0.184v1.951h-0.976V135.71z
		 M71.988,138.476c0.424,0,0.735-0.248,0.735-0.903v-0.064c0-0.704-0.336-0.888-0.76-0.888H71.94v1.855H71.988z M74.149,135.71
		h0.912c1.247,0,1.959,0.903,1.959,2.702v0.192c0,1.799-0.712,2.703-1.959,2.703h-0.912V135.71z M75.164,140.411
		c0.464,0,0.863-0.408,0.863-1.807v-0.192c0-1.399-0.399-1.807-0.863-1.807h-0.04v3.806L75.164,140.411L75.164,140.411z"/>
	<path class="st5" d="M35.754,504.154h1.039l1.063,5.613h-0.975l-0.184-1.111h-0.888l-0.176,1.111H34.69L35.754,504.154z
		 M36.553,507.776l-0.296-1.847l-0.304,1.847H36.553z M40.28,509.496c-0.231,0.239-0.503,0.352-0.792,0.352
		c-0.919,0-1.511-0.888-1.511-2.734v-0.288c0-1.847,0.6-2.734,1.487-2.734s1.487,0.888,1.487,2.734v0.288
		c0,0.76-0.112,1.359-0.304,1.799l0.503,0.464l-0.488,0.52L40.28,509.496z M39.713,508.904l-0.48-0.472l0.456-0.504l0.232,0.248
		c0.024-0.265,0.04-0.608,0.04-1.063v-0.288c0-1.439-0.2-1.839-0.496-1.839s-0.496,0.399-0.496,1.839v0.288
		c0,1.566,0.208,1.854,0.568,1.854C39.601,508.968,39.657,508.952,39.713,508.904z M41.474,508.137v-3.966h0.967v4.062
		c0,0.504,0.176,0.703,0.424,0.703s0.424-0.199,0.424-0.703v-4.062h0.967v3.966c0,1.175-0.591,1.703-1.391,1.703
		C42.066,509.84,41.474,509.312,41.474,508.137z M45.561,504.154h1.04l1.063,5.613h-0.976l-0.184-1.111h-0.887l-0.176,1.111h-0.944
		L45.561,504.154z M46.361,507.776l-0.296-1.847l-0.304,1.847H46.361z M34.066,512.171h1.008c1,0,1.727,0.527,1.727,1.783v0.071
		c0,0.728-0.288,1.191-0.656,1.472l0.751,2.271h-1.04l-0.631-1.951h-0.184v1.951h-0.976L34.066,512.171L34.066,512.171z
		 M35.089,514.938c0.424,0,0.736-0.248,0.736-0.904v-0.063c0-0.704-0.336-0.888-0.76-0.888h-0.024v1.855H35.089z M38.033,512.154
		h1.04l1.063,5.613H39.16l-0.184-1.111h-0.887l-0.176,1.111H36.97L38.033,512.154z M38.833,515.776l-0.296-1.847l-0.304,1.847
		H38.833z M40.258,515.065v-0.192c0-1.967,0.728-2.742,1.639-2.742c0.271,0,0.432,0.032,0.64,0.128v1.007
		c-0.2-0.119-0.36-0.184-0.544-0.184c-0.432,0-0.744,0.384-0.744,1.783v0.208c0,1.479,0.312,1.783,0.76,1.783
		c0.152,0,0.344-0.057,0.543-0.177v0.96c-0.224,0.128-0.439,0.168-0.719,0.168C40.938,517.808,40.258,517.016,40.258,515.065z
		 M43.042,512.171h2.143v0.927h-1.167v1.392h1.031v0.928h-1.031v1.423h1.191v0.928h-2.167V512.171z M45.682,512.171h1.007
		c1,0,1.727,0.527,1.727,1.783v0.071c0,0.728-0.288,1.191-0.656,1.472l0.751,2.271h-1.039l-0.632-1.951h-0.184v1.951H45.68v-5.597
		H45.682z M46.705,514.938c0.424,0,0.735-0.248,0.735-0.904v-0.063c0-0.704-0.336-0.888-0.759-0.888h-0.024v1.855H46.705z"/>
	<path class="st5" d="M93.388,584.779v-0.288c0-1.847,0.6-2.734,1.487-2.734s1.487,0.888,1.487,2.734v0.288
		c0,1.847-0.6,2.734-1.487,2.734S93.388,586.626,93.388,584.779z M95.371,584.779v-0.288c0-1.439-0.2-1.839-0.496-1.839
		s-0.496,0.399-0.496,1.839v0.288c0,1.439,0.2,1.839,0.496,1.839S95.371,586.219,95.371,584.779z M96.748,584.731v-0.192
		c0-1.967,0.728-2.742,1.639-2.742c0.271,0,0.432,0.032,0.64,0.128v1.007c-0.2-0.119-0.359-0.184-0.544-0.184
		c-0.432,0-0.743,0.384-0.743,1.783v0.208c0,1.479,0.312,1.783,0.76,1.783c0.151,0,0.344-0.057,0.544-0.177v0.96
		c-0.225,0.128-0.44,0.168-0.72,0.168C97.428,587.474,96.748,586.682,96.748,584.731z M99.531,581.837h2.144v0.927h-1.168v1.392
		h1.032v0.928h-1.032v1.423h1.191v0.928h-2.167V581.837z M102.955,581.82h1.039l1.063,5.613h-0.976l-0.184-1.111h-0.888
		l-0.176,1.111h-0.943L102.955,581.82z M103.755,585.442l-0.296-1.847l-0.304,1.847H103.755z M105.356,581.837h0.911l0.983,2.83
		v-2.83h0.952v5.597h-0.863l-1.032-2.967v2.967h-0.951L105.356,581.837L105.356,581.837z M93.832,589.837h0.975v4.669h1.032v0.928
		h-2.007V589.837z M95.936,592.779v-0.288c0-1.847,0.6-2.734,1.487-2.734s1.487,0.888,1.487,2.734v0.288
		c0,1.847-0.6,2.734-1.487,2.734S95.936,594.626,95.936,592.779z M97.919,592.779v-0.288c0-1.439-0.2-1.839-0.496-1.839
		s-0.496,0.399-0.496,1.839v0.288c0,1.439,0.2,1.839,0.496,1.839S97.919,594.219,97.919,592.779z M99.296,592.779v-0.288
		c0-1.847,0.6-2.734,1.487-2.734s1.486,0.888,1.486,2.734v0.288c0,1.847-0.6,2.734-1.486,2.734
		C99.896,595.514,99.296,594.626,99.296,592.779z M101.278,592.779v-0.288c0-1.439-0.199-1.839-0.495-1.839
		s-0.496,0.399-0.496,1.839v0.288c0,1.439,0.2,1.839,0.496,1.839S101.278,594.219,101.278,592.779z M102.752,589.837h0.871
		c1.063,0,1.807,0.575,1.807,1.887v0.016c0,1.264-0.703,1.863-1.694,1.936h-0.009v1.759h-0.975V589.837z M103.735,592.771
		c0.407-0.024,0.72-0.32,0.72-1v-0.016c0-0.712-0.272-1.016-0.696-1.016h-0.032v2.031L103.735,592.771L103.735,592.771z
		 M105.712,595.242v-1.016c0.344,0.199,0.615,0.312,0.879,0.312c0.28,0,0.521-0.136,0.521-0.479v-0.017
		c0-0.256-0.08-0.447-0.544-0.976c-0.664-0.751-0.936-1.111-0.936-1.791v-0.016c0-0.896,0.583-1.463,1.359-1.463
		c0.392,0,0.623,0.056,0.863,0.176v1.016c-0.304-0.176-0.487-0.256-0.743-0.256c-0.272,0-0.504,0.176-0.504,0.479v0.016
		c0,0.265,0.08,0.36,0.543,0.896c0.768,0.888,0.936,1.231,0.936,1.871v0.017c0,0.879-0.615,1.463-1.383,1.463
		C106.319,595.474,105.991,595.378,105.712,595.242z"/>
	<path class="st5" d="M49.541,642.789h1.007c1,0,1.727,0.527,1.727,1.783v0.071c0,0.728-0.288,1.191-0.656,1.472l0.751,2.271h-1.039
		l-0.632-1.951h-0.184v1.951H49.54L49.541,642.789L49.541,642.789z M50.565,645.556c0.423,0,0.735-0.248,0.735-0.904v-0.063
		c0-0.704-0.336-0.888-0.76-0.888h-0.024v1.855H50.565z M53.508,642.772h1.04l1.063,5.613h-0.976l-0.184-1.111h-0.887l-0.176,1.111
		h-0.943L53.508,642.772z M54.308,646.395l-0.295-1.847l-0.304,1.847H54.308z M55.733,645.684v-0.192
		c0-1.967,0.728-2.742,1.639-2.742c0.271,0,0.432,0.032,0.64,0.128v1.007c-0.2-0.119-0.36-0.184-0.544-0.184
		c-0.432,0-0.744,0.384-0.744,1.783v0.208c0,1.479,0.312,1.783,0.76,1.783c0.152,0,0.344-0.057,0.543-0.176v0.959
		c-0.224,0.128-0.439,0.168-0.719,0.168C56.413,648.426,55.733,647.634,55.733,645.684z M58.517,642.789h2.143v0.928h-1.167v1.391
		h1.031v0.928h-1.031v1.423h1.191v0.928h-2.167V642.789z M62.948,643.717H62.26v-0.928h2.351v0.928h-0.687v4.669h-0.976
		C62.948,648.386,62.948,643.717,62.948,643.717z M65.021,642.789h1.008c0.999,0,1.727,0.527,1.727,1.783v0.071
		c0,0.728-0.288,1.191-0.655,1.472l0.751,2.271h-1.039l-0.632-1.951h-0.184v1.951h-0.976V642.789z M66.044,645.556
		c0.424,0,0.735-0.248,0.735-0.904v-0.063c0-0.704-0.336-0.888-0.76-0.888h-0.023v1.855H66.044z M68.988,642.772h1.039l1.063,5.613
		h-0.976l-0.184-1.111h-0.888l-0.176,1.111h-0.943L68.988,642.772z M69.787,646.395l-0.295-1.847l-0.305,1.847H69.787z
		 M71.213,645.684v-0.192c0-1.967,0.728-2.742,1.639-2.742c0.271,0,0.432,0.032,0.64,0.128v1.007
		c-0.2-0.119-0.359-0.184-0.544-0.184c-0.432,0-0.743,0.384-0.743,1.783v0.208c0,1.479,0.312,1.783,0.76,1.783
		c0.151,0,0.344-0.057,0.543-0.176v0.959c-0.224,0.128-0.439,0.168-0.719,0.168C71.893,648.426,71.213,647.634,71.213,645.684z
		 M73.996,642.789h0.976v2.343l0.792-2.343h1.104l-0.943,2.366l0.959,3.23h-1.087l-0.608-2.119l-0.216,0.616v1.503h-0.976
		L73.996,642.789L73.996,642.789z"/>
	<path class="st5" d="M53.311,33.796h0.976v2.318h0.848v-2.318h0.975v5.597h-0.975v-2.351h-0.848v2.351h-0.976V33.796z
		 M56.591,36.738V36.45c0-1.847,0.6-2.734,1.487-2.734c0.888,0,1.487,0.887,1.487,2.734v0.288c0,1.847-0.6,2.734-1.487,2.734
		C57.191,39.473,56.591,38.585,56.591,36.738z M58.574,36.738V36.45c0-1.439-0.2-1.839-0.496-1.839
		c-0.295,0-0.496,0.399-0.496,1.839v0.288c0,1.439,0.2,1.839,0.496,1.839S58.574,38.177,58.574,36.738z M60.047,33.796h1.008
		c0.999,0,1.727,0.527,1.727,1.783v0.072c0,0.728-0.287,1.191-0.655,1.472l0.752,2.271h-1.04l-0.632-1.951h-0.184v1.951h-0.976
		V33.796z M61.07,36.562c0.424,0,0.736-0.248,0.736-0.903v-0.064c0-0.704-0.336-0.888-0.76-0.888h-0.024v1.855H61.07z
		 M63.247,33.796h0.976v5.597h-0.976C63.247,39.393,63.247,33.796,63.247,33.796z M64.711,38.617l1.287-3.902h-1.239v-0.919h2.312
		v0.775l-1.288,3.902h1.288v0.919h-2.359L64.711,38.617L64.711,38.617z M67.279,36.738V36.45c0-1.847,0.6-2.734,1.487-2.734
		s1.487,0.887,1.487,2.734v0.288c0,1.847-0.6,2.734-1.487,2.734S67.279,38.585,67.279,36.738z M69.262,36.738V36.45
		c0-1.439-0.199-1.839-0.495-1.839s-0.496,0.399-0.496,1.839v0.288c0,1.439,0.2,1.839,0.496,1.839S69.262,38.177,69.262,36.738z
		 M70.735,33.796h0.911l0.983,2.83v-2.83h0.952v5.597h-0.864l-1.031-2.966v2.966h-0.951L70.735,33.796L70.735,33.796z
		 M54.639,41.796h0.976v4.669h1.031v0.928h-2.007V41.796z M56.743,44.738V44.45c0-1.847,0.6-2.734,1.487-2.734
		s1.487,0.887,1.487,2.734v0.288c0,1.847-0.6,2.734-1.487,2.734S56.743,46.585,56.743,44.738z M58.726,44.738V44.45
		c0-1.439-0.2-1.839-0.496-1.839s-0.496,0.399-0.496,1.839v0.288c0,1.439,0.2,1.839,0.496,1.839S58.726,46.177,58.726,44.738z
		 M60.183,45.762v-3.966h0.967v4.062c0,0.504,0.176,0.704,0.424,0.704s0.424-0.2,0.424-0.704v-4.062h0.968v3.966
		c0,1.175-0.592,1.703-1.392,1.703C60.776,47.464,60.183,46.937,60.183,45.762z M63.527,41.796h0.911l0.983,2.83v-2.83h0.951v5.597
		H65.51l-1.031-2.966v2.966h-0.951v-5.597H63.527z M66.856,44.69v-0.192c0-1.807,0.768-2.742,1.871-2.742
		c0.295,0,0.543,0.064,0.743,0.16v1.016c-0.24-0.144-0.456-0.24-0.712-0.24c-0.56,0-0.911,0.56-0.911,1.767v0.272
		c0,1.463,0.432,1.799,0.831,1.799c0.032,0,0.04,0,0.088-0.008V45.09h-0.479v-0.872h1.367v2.975c-0.352,0.152-0.64,0.24-1.016,0.24
		C67.663,47.433,66.856,46.641,66.856,44.69z M70.192,41.796h2.143v0.927h-1.168v1.391h1.032v0.928h-1.032v1.423h1.191v0.928h-2.166
		V41.796z"/>
	<path class="st5" d="M53.706,292.862h1.007c1,0,1.727,0.527,1.727,1.783v0.072c0,0.728-0.288,1.191-0.656,1.472l0.752,2.271h-1.04
		l-0.632-1.951H54.68v1.951h-0.975L53.706,292.862L53.706,292.862z M54.729,295.628c0.424,0,0.735-0.248,0.735-0.903v-0.064
		c0-0.704-0.335-0.888-0.759-0.888h-0.024v1.855H54.729z M56.89,292.862h1.007c1,0,1.727,0.527,1.727,1.783v0.072
		c0,0.728-0.288,1.191-0.656,1.472l0.751,2.271H58.68l-0.632-1.951h-0.184v1.951H56.89V292.862z M57.913,295.628
		c0.423,0,0.735-0.248,0.735-0.903v-0.064c0-0.704-0.336-0.888-0.76-0.888h-0.024v1.855H57.913z"/>
</g>
<g id="BLISS_DECK_18_ROOMS">
	<g id="gDeck18HavenCourtyardPenthouseBalconyH5">
		<g id="hDeck18HavenCourtyardPenthouseBalconyH5">
			<g id="g18126">
				<g id="h18126">
					<rect id="b18126" x="9.109" y="264.323" class="st6" width="28.83" height="12.666"/>
					<path id="t18126" class="st5" d="M16.925,269.033l0.28-0.472h0.911v4.142h-0.485v-3.669h-0.706V269.033z M19.991,270.555
						c-0.334-0.192-0.533-0.522-0.533-0.928c0-0.676,0.517-1.153,1.164-1.153s1.164,0.478,1.164,1.153
						c0,0.406-0.199,0.736-0.533,0.928c0.42,0.148,0.641,0.549,0.641,0.995c0,0.769-0.582,1.241-1.271,1.241
						s-1.271-0.473-1.271-1.241C19.35,271.104,19.571,270.703,19.991,270.555z M19.835,271.549c0,0.417,0.388,0.78,0.787,0.78
						s0.787-0.363,0.787-0.78c0-0.439-0.377-0.78-0.787-0.78S19.835,271.11,19.835,271.549z M19.932,269.626
						c0,0.33,0.35,0.703,0.689,0.703s0.689-0.374,0.689-0.703c0-0.396-0.323-0.714-0.689-0.714S19.932,269.231,19.932,269.626z
						 M22.571,269.033l0.28-0.472h0.911v4.142h-0.485v-3.669h-0.706V269.033z M27.467,272.23v0.473h-2.624l1.778-2.225
						c0.167-0.209,0.361-0.467,0.361-0.742c0-0.434-0.377-0.791-0.797-0.791c-0.415,0-0.754,0.34-0.781,0.758h-0.506
						c0.081-0.736,0.549-1.23,1.287-1.23c0.689,0,1.282,0.521,1.282,1.241c0,0.308-0.113,0.615-0.302,0.852l-1.336,1.664
						L27.467,272.23L27.467,272.23z M30.079,268.726l-1.083,1.494l0.011,0.011c0.118-0.061,0.253-0.099,0.398-0.099
						c0.668,0,1.174,0.632,1.174,1.296c0,0.758-0.604,1.362-1.341,1.362c-0.7,0-1.352-0.593-1.352-1.324
						c0-0.417,0.205-0.769,0.442-1.093l1.384-1.9L30.079,268.726z M30.095,271.483c0-0.516-0.431-0.89-0.862-0.89
						c-0.442,0-0.862,0.412-0.862,0.862c0,0.478,0.398,0.874,0.862,0.874C29.686,272.329,30.095,271.945,30.095,271.483z"/>
				</g>
			</g>
			<g id="g18124">
				<g id="h18124">
					<rect id="b18124" x="9.109" y="243.444" class="st6" width="28.83" height="20.858"/>
					<path id="t18124" class="st5" d="M16.86,252.024l0.28-0.472h0.911v4.142h-0.485v-3.669L16.86,252.024L16.86,252.024z
						 M19.926,253.546c-0.334-0.192-0.533-0.522-0.533-0.928c0-0.676,0.517-1.153,1.164-1.153s1.164,0.478,1.164,1.153
						c0,0.406-0.199,0.736-0.533,0.928c0.42,0.148,0.641,0.549,0.641,0.995c0,0.769-0.582,1.241-1.271,1.241
						s-1.271-0.473-1.271-1.241C19.285,254.095,19.506,253.694,19.926,253.546z M19.77,254.541c0,0.417,0.388,0.78,0.787,0.78
						s0.787-0.363,0.787-0.78c0-0.439-0.377-0.78-0.787-0.78S19.77,254.101,19.77,254.541z M19.867,252.618
						c0,0.33,0.35,0.703,0.689,0.703s0.689-0.374,0.689-0.703c0-0.396-0.323-0.714-0.689-0.714S19.867,252.222,19.867,252.618z
						 M22.506,252.024l0.28-0.472h0.911v4.142h-0.485v-3.669L22.506,252.024L22.506,252.024z M27.402,255.221v0.473h-2.624
						l1.778-2.225c0.167-0.209,0.361-0.467,0.361-0.742c0-0.434-0.377-0.791-0.797-0.791c-0.415,0-0.754,0.34-0.781,0.758h-0.506
						c0.081-0.736,0.549-1.23,1.287-1.23c0.689,0,1.282,0.521,1.282,1.241c0,0.308-0.113,0.615-0.302,0.852l-1.336,1.664H27.402z
						 M30.726,254.639v0.45h-0.463v0.604h-0.485v-0.604h-2.004l2.489-3.713v3.263H30.726z M29.778,252.931h-0.011l-1.142,1.708
						h1.153V252.931z"/>
				</g>
			</g>
			<g id="g18122">
				<g id="h18122">
					<rect id="b18122" x="9.109" y="230.38" class="st6" width="28.83" height="13.125"/>
					<path id="t18122" class="st5" d="M16.884,235.345l0.28-0.472h0.911v4.142H17.59v-3.669L16.884,235.345L16.884,235.345z
						 M19.95,236.867c-0.334-0.192-0.533-0.522-0.533-0.928c0-0.676,0.517-1.153,1.164-1.153s1.164,0.478,1.164,1.153
						c0,0.406-0.199,0.736-0.533,0.928c0.42,0.148,0.641,0.549,0.641,0.995c0,0.769-0.582,1.241-1.271,1.241
						s-1.271-0.473-1.271-1.241C19.31,237.416,19.53,237.015,19.95,236.867z M19.794,237.861c0,0.417,0.388,0.78,0.787,0.78
						s0.787-0.363,0.787-0.78c0-0.439-0.377-0.78-0.787-0.78S19.794,237.422,19.794,237.861z M19.891,235.938
						c0,0.33,0.35,0.703,0.689,0.703s0.689-0.374,0.689-0.703c0-0.396-0.323-0.714-0.689-0.714S19.891,235.543,19.891,235.938z
						 M22.53,235.345l0.28-0.472h0.911v4.142h-0.485v-3.669L22.53,235.345L22.53,235.345z M27.427,238.542v0.473h-2.624l1.778-2.225
						c0.167-0.209,0.361-0.467,0.361-0.742c0-0.434-0.377-0.791-0.797-0.791c-0.415,0-0.754,0.34-0.781,0.758h-0.506
						c0.081-0.736,0.549-1.23,1.287-1.23c0.689,0,1.282,0.521,1.282,1.241c0,0.308-0.113,0.615-0.302,0.852l-1.336,1.664H27.427z
						 M30.578,238.542v0.473h-2.624l1.778-2.225c0.167-0.209,0.361-0.467,0.361-0.742c0-0.434-0.377-0.791-0.797-0.791
						c-0.415,0-0.754,0.34-0.781,0.758h-0.506c0.081-0.736,0.549-1.23,1.287-1.23c0.689,0,1.282,0.521,1.282,1.241
						c0,0.308-0.113,0.615-0.302,0.852l-1.336,1.664H30.578z"/>
				</g>
			</g>
			<g id="g18120">
				<g id="h18120">
					<rect id="b18120" x="9.109" y="217.628" class="st6" width="28.83" height="12.754"/>
					<path id="t18120" class="st5" d="M16.875,222.3l0.28-0.472h0.911v4.142h-0.485v-3.67H16.875z M19.941,223.821
						c-0.334-0.192-0.533-0.522-0.533-0.928c0-0.676,0.517-1.153,1.164-1.153s1.164,0.478,1.164,1.153
						c0,0.406-0.199,0.736-0.533,0.928c0.42,0.148,0.641,0.549,0.641,0.995c0,0.769-0.582,1.241-1.271,1.241
						s-1.271-0.473-1.271-1.241C19.3,224.371,19.521,223.97,19.941,223.821z M19.785,224.816c0,0.417,0.388,0.78,0.787,0.78
						s0.787-0.363,0.787-0.78c0-0.439-0.377-0.78-0.787-0.78S19.785,224.376,19.785,224.816z M19.882,222.893
						c0,0.33,0.35,0.703,0.689,0.703s0.689-0.374,0.689-0.703c0-0.396-0.323-0.714-0.689-0.714S19.882,222.498,19.882,222.893z
						 M22.521,222.3l0.28-0.472h0.911v4.142h-0.485v-3.67H22.521z M27.418,225.497v0.473h-2.624l1.778-2.225
						c0.167-0.209,0.361-0.467,0.361-0.742c0-0.434-0.377-0.791-0.797-0.791c-0.415,0-0.754,0.34-0.781,0.758h-0.506
						c0.081-0.736,0.549-1.23,1.287-1.23c0.689,0,1.282,0.521,1.282,1.241c0,0.308-0.113,0.615-0.302,0.852l-1.336,1.664H27.418z
						 M27.861,223.898c0-0.852,0.366-2.159,1.417-2.159s1.417,1.307,1.417,2.159c0,0.846-0.372,2.159-1.417,2.159
						S27.861,224.744,27.861,223.898z M28.346,223.893c0,0.571,0.205,1.703,0.932,1.703s0.932-1.131,0.932-1.703
						s-0.205-1.714-0.932-1.714S28.346,223.322,28.346,223.893z"/>
				</g>
			</g>
			<g id="g18114">
				<g id="h18114">
					<rect id="b18114" x="9.109" y="162.909" class="st6" width="28.83" height="13.125"/>
					<path id="t18114" class="st5" d="M17.162,167.49l0.28-0.472h0.911v4.142h-0.485v-3.669L17.162,167.49L17.162,167.49z
						 M20.228,169.012c-0.334-0.192-0.533-0.522-0.533-0.928c0-0.676,0.517-1.153,1.164-1.153s1.164,0.478,1.164,1.153
						c0,0.406-0.199,0.736-0.533,0.928c0.42,0.148,0.641,0.549,0.641,0.995c0,0.769-0.582,1.241-1.271,1.241
						s-1.271-0.473-1.271-1.241C19.587,169.561,19.808,169.16,20.228,169.012z M20.071,170.006c0,0.417,0.388,0.78,0.787,0.78
						s0.787-0.363,0.787-0.78c0-0.439-0.377-0.78-0.787-0.78S20.071,169.567,20.071,170.006z M20.169,168.084
						c0,0.33,0.35,0.703,0.689,0.703s0.689-0.374,0.689-0.703c0-0.396-0.323-0.714-0.689-0.714S20.169,167.688,20.169,168.084z
						 M22.808,167.49l0.28-0.472h0.911v4.142h-0.485v-3.669L22.808,167.49L22.808,167.49z M25.312,167.49l0.28-0.472h0.911v4.142
						h-0.485v-3.669L25.312,167.49L25.312,167.49z M30.424,170.105v0.45h-0.463v0.604h-0.485v-0.604h-2.004l2.489-3.713v3.263
						H30.424z M29.476,168.396h-0.011l-1.142,1.708h1.153V168.396z"/>
				</g>
			</g>
			<g id="g18712">
				<g id="h18712">
					<rect id="b18712" x="90.221" y="151.093" class="st6" width="28.83" height="12.233"/>
					<path id="t18712" class="st5" d="M97.976,155.491l0.28-0.472h0.91v4.142h-0.484v-3.669L97.976,155.491L97.976,155.491z
						 M101.041,157.012c-0.334-0.192-0.533-0.522-0.533-0.928c0-0.676,0.518-1.153,1.164-1.153s1.164,0.478,1.164,1.153
						c0,0.406-0.199,0.736-0.533,0.928c0.42,0.148,0.641,0.549,0.641,0.995c0,0.769-0.582,1.241-1.271,1.241
						s-1.271-0.473-1.271-1.241C100.401,157.562,100.621,157.161,101.041,157.012z M100.885,158.007c0,0.417,0.389,0.78,0.787,0.78
						s0.787-0.363,0.787-0.78c0-0.439-0.378-0.78-0.787-0.78S100.885,157.567,100.885,158.007z M100.983,156.084
						c0,0.33,0.35,0.703,0.689,0.703s0.689-0.374,0.689-0.703c0-0.396-0.323-0.714-0.689-0.714S100.983,155.688,100.983,156.084z
						 M103.397,155.491v-0.472h2.924l-2.531,4.229l-0.393-0.247l2.101-3.51L103.397,155.491L103.397,155.491z M106.813,155.491
						l0.279-0.472h0.91v4.142h-0.484v-3.669L106.813,155.491L106.813,155.491z M111.709,158.688v0.473h-2.624l1.778-2.225
						c0.166-0.209,0.36-0.467,0.36-0.742c0-0.434-0.377-0.791-0.798-0.791c-0.414,0-0.754,0.34-0.78,0.758h-0.507
						c0.081-0.736,0.55-1.23,1.287-1.23c0.689,0,1.283,0.521,1.283,1.241c0,0.308-0.113,0.615-0.303,0.852l-1.336,1.664H111.709z"/>
				</g>
			</g>
			<g id="g18706">
				<g id="h18706">
					<rect id="b18706" x="90.221" y="95.715" class="st6" width="28.83" height="13.045"/>
					<path id="t18706" class="st5" d="M97.708,99.949l0.28-0.472h0.91v4.142h-0.484V99.95L97.708,99.949L97.708,99.949z
						 M100.774,101.471c-0.334-0.192-0.533-0.522-0.533-0.928c0-0.676,0.518-1.153,1.164-1.153s1.164,0.478,1.164,1.153
						c0,0.406-0.199,0.736-0.533,0.928c0.42,0.148,0.641,0.549,0.641,0.995c0,0.769-0.582,1.241-1.271,1.241
						s-1.271-0.473-1.271-1.241C100.133,102.02,100.354,101.619,100.774,101.471z M100.617,102.465c0,0.417,0.389,0.78,0.787,0.78
						s0.787-0.363,0.787-0.78c0-0.439-0.378-0.78-0.787-0.78S100.617,102.026,100.617,102.465z M100.715,100.543
						c0,0.33,0.35,0.703,0.689,0.703s0.689-0.374,0.689-0.703c0-0.396-0.323-0.714-0.689-0.714S100.715,100.147,100.715,100.543z
						 M103.129,99.949v-0.472h2.924l-2.531,4.229l-0.393-0.247l2.101-3.51C105.23,99.949,103.129,99.949,103.129,99.949z
						 M106.063,101.548c0-0.852,0.367-2.159,1.417-2.159s1.417,1.307,1.417,2.159c0,0.846-0.372,2.159-1.417,2.159
						S106.063,102.394,106.063,101.548z M106.548,101.543c0,0.571,0.204,1.703,0.932,1.703s0.932-1.131,0.932-1.703
						s-0.204-1.714-0.932-1.714S106.548,100.971,106.548,101.543z M111.52,99.642l-1.083,1.494l0.011,0.011
						c0.118-0.061,0.253-0.099,0.398-0.099c0.668,0,1.174,0.632,1.174,1.296c0,0.758-0.604,1.362-1.341,1.362
						c-0.7,0-1.353-0.593-1.353-1.324c0-0.417,0.205-0.769,0.442-1.093l1.384-1.9L111.52,99.642z M111.535,102.399
						c0-0.516-0.431-0.89-0.861-0.89c-0.442,0-0.862,0.412-0.862,0.862c0,0.478,0.398,0.874,0.862,0.874
						C111.126,103.245,111.535,102.861,111.535,102.399z"/>
				</g>
			</g>
			<g id="g18112">
				<g id="h18112">
					<rect id="b18112" x="9.109" y="150.156" class="st6" width="28.83" height="12.754"/>
					<path id="t18112" class="st5" d="M17.208,154.94l0.28-0.472h0.911v4.142h-0.485v-3.669L17.208,154.94L17.208,154.94z
						 M20.274,156.461c-0.334-0.192-0.533-0.522-0.533-0.928c0-0.676,0.517-1.153,1.164-1.153s1.164,0.478,1.164,1.153
						c0,0.406-0.199,0.736-0.533,0.928c0.42,0.148,0.641,0.549,0.641,0.995c0,0.769-0.582,1.241-1.271,1.241
						s-1.271-0.473-1.271-1.241C19.633,157.011,19.854,156.61,20.274,156.461z M20.117,157.456c0,0.417,0.388,0.78,0.787,0.78
						s0.787-0.363,0.787-0.78c0-0.439-0.377-0.78-0.787-0.78S20.117,157.017,20.117,157.456z M20.214,155.533
						c0,0.33,0.35,0.703,0.689,0.703s0.689-0.374,0.689-0.703c0-0.396-0.323-0.714-0.689-0.714S20.214,155.138,20.214,155.533z
						 M22.854,154.94l0.28-0.472h0.911v4.142H23.56v-3.669L22.854,154.94L22.854,154.94z M25.358,154.94l0.28-0.472h0.911v4.142
						h-0.485v-3.669L25.358,154.94L25.358,154.94z M30.254,158.137v0.473H27.63l1.778-2.225c0.167-0.209,0.361-0.467,0.361-0.742
						c0-0.434-0.377-0.791-0.797-0.791c-0.415,0-0.754,0.34-0.781,0.758h-0.506c0.081-0.736,0.549-1.23,1.287-1.23
						c0.689,0,1.282,0.521,1.282,1.241c0,0.308-0.113,0.615-0.302,0.852l-1.336,1.664H30.254z"/>
				</g>
			</g>
			<g id="g18106">
				<g id="h18106">
					<rect id="b18106" x="9.109" y="94.944" class="st6" width="28.83" height="13.576"/>
					<path id="t18106" class="st5" d="M16.779,99.949l0.28-0.472h0.911v4.142h-0.485V99.95L16.779,99.949L16.779,99.949z
						 M19.845,101.471c-0.334-0.192-0.533-0.522-0.533-0.928c0-0.676,0.517-1.153,1.164-1.153s1.164,0.478,1.164,1.153
						c0,0.406-0.199,0.736-0.533,0.928c0.42,0.148,0.641,0.549,0.641,0.995c0,0.769-0.582,1.241-1.271,1.241
						s-1.271-0.473-1.271-1.241C19.204,102.02,19.425,101.619,19.845,101.471z M19.689,102.465c0,0.417,0.388,0.78,0.787,0.78
						s0.787-0.363,0.787-0.78c0-0.439-0.377-0.78-0.787-0.78S19.689,102.026,19.689,102.465z M19.786,100.543
						c0,0.33,0.35,0.703,0.689,0.703s0.689-0.374,0.689-0.703c0-0.396-0.323-0.714-0.689-0.714S19.786,100.147,19.786,100.543z
						 M22.425,99.949l0.28-0.472h0.911v4.142h-0.485V99.95L22.425,99.949L22.425,99.949z M24.77,101.548
						c0-0.852,0.366-2.159,1.417-2.159s1.417,1.307,1.417,2.159c0,0.846-0.372,2.159-1.417,2.159S24.77,102.394,24.77,101.548z
						 M25.255,101.543c0,0.571,0.205,1.703,0.932,1.703s0.932-1.131,0.932-1.703s-0.205-1.714-0.932-1.714
						S25.255,100.971,25.255,101.543z M30.225,99.642l-1.083,1.494l0.011,0.011c0.118-0.061,0.253-0.099,0.398-0.099
						c0.668,0,1.174,0.632,1.174,1.296c0,0.758-0.604,1.362-1.341,1.362c-0.7,0-1.352-0.593-1.352-1.324
						c0-0.417,0.205-0.769,0.442-1.093l1.384-1.9L30.225,99.642z M30.241,102.399c0-0.516-0.431-0.89-0.862-0.89
						c-0.442,0-0.862,0.412-0.862,0.862c0,0.478,0.398,0.874,0.862,0.874C29.832,103.245,30.241,102.861,30.241,102.399z"/>
				</g>
			</g>
		</g>
	</g>
	<g id="gDeck18HavenTwoBedroomFamilyVillaBalconyH4">
		<g id="hDeck18HavenTwoBedroomFamilyVillaBalconyH4">
			<g id="g18118">
				<g id="h18118">
					<rect id="b18118" x="9.109" y="196.831" class="st6" width="28.83" height="20.858"/>
					<path id="t18118" class="st5" d="M17.019,205.786l0.28-0.472h0.911v4.142h-0.485v-3.669L17.019,205.786L17.019,205.786z
						 M20.085,207.307c-0.334-0.192-0.533-0.522-0.533-0.928c0-0.676,0.517-1.153,1.164-1.153s1.164,0.478,1.164,1.153
						c0,0.406-0.199,0.736-0.533,0.928c0.42,0.148,0.641,0.549,0.641,0.995c0,0.769-0.582,1.241-1.271,1.241
						s-1.271-0.473-1.271-1.241C19.444,207.856,19.665,207.456,20.085,207.307z M19.928,208.302c0,0.417,0.388,0.78,0.787,0.78
						s0.787-0.363,0.787-0.78c0-0.439-0.377-0.78-0.787-0.78S19.928,207.862,19.928,208.302z M20.026,206.379
						c0,0.33,0.35,0.703,0.689,0.703s0.689-0.374,0.689-0.703c0-0.396-0.323-0.714-0.689-0.714S20.026,205.983,20.026,206.379z
						 M22.665,205.786l0.28-0.472h0.911v4.142H23.37v-3.669L22.665,205.786L22.665,205.786z M25.169,205.786l0.28-0.472h0.911v4.142
						h-0.485v-3.669L25.169,205.786L25.169,205.786z M28.235,207.307c-0.334-0.192-0.533-0.522-0.533-0.928
						c0-0.676,0.517-1.153,1.164-1.153s1.164,0.478,1.164,1.153c0,0.406-0.199,0.736-0.533,0.928
						c0.42,0.148,0.641,0.549,0.641,0.995c0,0.769-0.582,1.241-1.271,1.241s-1.271-0.473-1.271-1.241
						C27.594,207.856,27.815,207.456,28.235,207.307z M28.078,208.302c0,0.417,0.388,0.78,0.787,0.78s0.787-0.363,0.787-0.78
						c0-0.439-0.377-0.78-0.787-0.78S28.078,207.862,28.078,208.302z M28.175,206.379c0,0.33,0.35,0.703,0.689,0.703
						s0.689-0.374,0.689-0.703c0-0.396-0.323-0.714-0.689-0.714S28.175,205.983,28.175,206.379z"/>
				</g>
			</g>
			<g id="g18116">
				<g id="h18116">
					<rect id="b18116" x="9.109" y="175.972" class="st6" width="28.83" height="20.858"/>
					<path id="t18116" class="st5" d="M17.048,184.489l0.28-0.472h0.911v4.142h-0.485v-3.669L17.048,184.489L17.048,184.489z
						 M20.114,186.01c-0.334-0.192-0.533-0.522-0.533-0.928c0-0.676,0.517-1.153,1.164-1.153s1.164,0.478,1.164,1.153
						c0,0.406-0.199,0.736-0.533,0.928c0.42,0.148,0.641,0.549,0.641,0.995c0,0.769-0.582,1.241-1.271,1.241
						s-1.271-0.473-1.271-1.241C19.473,186.56,19.694,186.159,20.114,186.01z M19.958,187.005c0,0.417,0.388,0.78,0.787,0.78
						s0.787-0.363,0.787-0.78c0-0.439-0.377-0.78-0.787-0.78S19.958,186.565,19.958,187.005z M20.055,185.082
						c0,0.33,0.35,0.703,0.689,0.703s0.689-0.374,0.689-0.703c0-0.396-0.323-0.714-0.689-0.714S20.055,184.687,20.055,185.082z
						 M22.694,184.489l0.28-0.472h0.911v4.142H23.4v-3.669L22.694,184.489L22.694,184.489z M25.198,184.489l0.28-0.472h0.911v4.142
						h-0.485v-3.669L25.198,184.489L25.198,184.489z M29.687,184.181l-1.083,1.494l0.011,0.011c0.118-0.061,0.253-0.099,0.398-0.099
						c0.668,0,1.174,0.632,1.174,1.296c0,0.758-0.604,1.362-1.341,1.362c-0.7,0-1.352-0.593-1.352-1.324
						c0-0.417,0.205-0.769,0.442-1.093l1.384-1.9L29.687,184.181z M29.703,186.938c0-0.516-0.431-0.89-0.862-0.89
						c-0.442,0-0.862,0.412-0.862,0.862c0,0.478,0.398,0.874,0.862,0.874C29.294,187.785,29.703,187.4,29.703,186.938z"/>
				</g>
			</g>
			<g id="g18714">
				<g id="h18714">
					<rect id="b18714" x="90.221" y="163.326" class="st6" width="28.83" height="20.957"/>
					<path id="t18714" class="st5" d="M97.795,171.564l0.279-0.472h0.911v4.142H98.5v-3.669L97.795,171.564L97.795,171.564z
						 M100.861,173.085c-0.334-0.192-0.533-0.522-0.533-0.928c0-0.676,0.517-1.153,1.163-1.153s1.163,0.478,1.163,1.153
						c0,0.406-0.199,0.736-0.533,0.928c0.42,0.148,0.641,0.549,0.641,0.995c0,0.769-0.581,1.241-1.271,1.241
						s-1.271-0.473-1.271-1.241C100.221,173.635,100.442,173.234,100.861,173.085z M100.705,174.08c0,0.417,0.388,0.78,0.786,0.78
						s0.786-0.363,0.786-0.78c0-0.439-0.377-0.78-0.786-0.78S100.705,173.641,100.705,174.08z M100.802,172.157
						c0,0.33,0.351,0.703,0.689,0.703s0.689-0.374,0.689-0.703c0-0.396-0.323-0.714-0.689-0.714S100.802,171.762,100.802,172.157z
						 M103.215,171.564v-0.472h2.926l-2.531,4.229l-0.395-0.247l2.102-3.51L103.215,171.564L103.215,171.564z M106.631,171.564
						l0.28-0.472h0.911v4.142h-0.485v-3.669L106.631,171.564L106.631,171.564z M111.744,174.179v0.45h-0.463v0.604h-0.485v-0.604
						h-2.004l2.489-3.713v3.263H111.744z M110.796,172.47h-0.011l-1.143,1.708h1.153L110.796,172.47L110.796,172.47z"/>
				</g>
			</g>
			<g id="g18710">
				<g id="h18710">
					<rect id="b18710" x="90.221" y="129.683" class="st6" width="28.83" height="21.41"/>
					<path id="t18710" class="st5" d="M97.754,137.766l0.279-0.472h0.911v4.142h-0.485v-3.669L97.754,137.766L97.754,137.766z
						 M100.82,139.287c-0.334-0.192-0.533-0.522-0.533-0.928c0-0.676,0.517-1.153,1.163-1.153s1.163,0.478,1.163,1.153
						c0,0.406-0.199,0.736-0.533,0.928c0.42,0.148,0.641,0.549,0.641,0.995c0,0.769-0.581,1.241-1.271,1.241
						s-1.271-0.473-1.271-1.241C100.18,139.836,100.401,139.436,100.82,139.287z M100.664,140.282c0,0.417,0.388,0.78,0.786,0.78
						s0.786-0.363,0.786-0.78c0-0.439-0.377-0.78-0.786-0.78S100.664,139.842,100.664,140.282z M100.761,138.359
						c0,0.33,0.351,0.703,0.689,0.703s0.689-0.374,0.689-0.703c0-0.396-0.323-0.714-0.689-0.714S100.761,137.963,100.761,138.359z
						 M103.174,137.766v-0.472h2.926l-2.531,4.229l-0.395-0.247l2.102-3.51L103.174,137.766L103.174,137.766z M106.59,137.766
						l0.28-0.472h0.911v4.142h-0.485v-3.669L106.59,137.766L106.59,137.766z M108.936,139.364c0-0.852,0.366-2.159,1.416-2.159
						c1.051,0,1.417,1.307,1.417,2.159c0,0.846-0.372,2.159-1.417,2.159S108.936,140.21,108.936,139.364z M109.42,139.359
						c0,0.571,0.205,1.703,0.932,1.703c0.728,0,0.932-1.131,0.932-1.703s-0.204-1.714-0.932-1.714
						C109.625,137.645,109.42,138.788,109.42,139.359z"/>
				</g>
			</g>
			<g id="g18708">
				<g id="h18708">
					<rect id="b18708" x="90.221" y="108.745" class="st6" width="28.83" height="20.943"/>
					<path id="t18708" class="st5" d="M97.558,117.289l0.28-0.472h0.91v4.142h-0.484v-3.669L97.558,117.289L97.558,117.289z
						 M100.623,118.81c-0.334-0.192-0.533-0.522-0.533-0.928c0-0.676,0.518-1.153,1.164-1.153s1.164,0.478,1.164,1.153
						c0,0.406-0.199,0.736-0.533,0.928c0.42,0.148,0.641,0.549,0.641,0.995c0,0.769-0.582,1.241-1.271,1.241
						s-1.271-0.473-1.271-1.241C99.983,119.359,100.203,118.959,100.623,118.81z M100.467,119.805c0,0.417,0.389,0.78,0.787,0.78
						s0.787-0.363,0.787-0.78c0-0.439-0.378-0.78-0.787-0.78S100.467,119.365,100.467,119.805z M100.565,117.882
						c0,0.33,0.35,0.703,0.689,0.703s0.689-0.374,0.689-0.703c0-0.396-0.323-0.714-0.689-0.714S100.565,117.486,100.565,117.882z
						 M102.979,117.289v-0.472h2.924l-2.531,4.229l-0.393-0.247l2.101-3.51H102.979z M105.912,118.887
						c0-0.852,0.367-2.159,1.417-2.159s1.417,1.307,1.417,2.159c0,0.846-0.372,2.159-1.417,2.159S105.912,119.733,105.912,118.887z
						 M106.398,118.882c0,0.571,0.204,1.703,0.932,1.703s0.932-1.131,0.932-1.703s-0.204-1.714-0.932-1.714
						S106.398,118.311,106.398,118.882z M109.918,118.81c-0.334-0.192-0.533-0.522-0.533-0.928c0-0.676,0.518-1.153,1.164-1.153
						s1.164,0.478,1.164,1.153c0,0.406-0.199,0.736-0.533,0.928c0.42,0.148,0.641,0.549,0.641,0.995
						c0,0.769-0.582,1.241-1.271,1.241s-1.271-0.473-1.271-1.241C109.277,119.359,109.498,118.959,109.918,118.81z M109.762,119.805
						c0,0.417,0.389,0.78,0.787,0.78s0.787-0.363,0.787-0.78c0-0.439-0.378-0.78-0.787-0.78S109.762,119.365,109.762,119.805z
						 M109.86,117.882c0,0.33,0.35,0.703,0.689,0.703s0.689-0.374,0.689-0.703c0-0.396-0.323-0.714-0.689-0.714
						S109.86,117.486,109.86,117.882z"/>
				</g>
			</g>
			<g id="g18704">
				<g id="h18704">
					<rect id="b18704" x="90.221" y="74.294" class="st6" width="28.83" height="21.265"/>
					<path id="t18704" class="st5" d="M97.588,83.211l0.279-0.472h0.91v4.142h-0.484v-3.669L97.588,83.211L97.588,83.211z
						 M100.653,84.732c-0.334-0.192-0.533-0.522-0.533-0.928c0-0.676,0.517-1.153,1.163-1.153s1.164,0.478,1.164,1.153
						c0,0.406-0.199,0.736-0.533,0.928c0.42,0.148,0.641,0.549,0.641,0.995c0,0.769-0.582,1.241-1.271,1.241
						s-1.271-0.473-1.271-1.241C100.013,85.282,100.234,84.881,100.653,84.732z M100.497,85.727c0,0.417,0.388,0.78,0.786,0.78
						s0.787-0.363,0.787-0.78c0-0.439-0.377-0.78-0.787-0.78C100.875,84.947,100.497,85.288,100.497,85.727z M100.594,83.804
						c0,0.33,0.351,0.703,0.689,0.703c0.34,0,0.689-0.374,0.689-0.703c0-0.396-0.322-0.714-0.689-0.714
						C100.918,83.09,100.594,83.409,100.594,83.804z M103.008,83.211v-0.472h2.925l-2.531,4.229l-0.394-0.247l2.102-3.51H103.008z
						 M105.943,84.81c0-0.852,0.366-2.159,1.417-2.159c1.05,0,1.416,1.307,1.416,2.159c0,0.846-0.371,2.159-1.416,2.159
						S105.943,85.655,105.943,84.81z M106.428,84.804c0,0.571,0.204,1.703,0.932,1.703c0.727,0,0.932-1.131,0.932-1.703
						s-0.205-1.714-0.932-1.714C106.632,83.09,106.428,84.233,106.428,84.804z M111.951,85.826v0.45h-0.463v0.604h-0.485v-0.604
						h-2.004l2.489-3.713v3.263H111.951z M111.003,84.117h-0.011l-1.143,1.708h1.153L111.003,84.117L111.003,84.117z"/>
				</g>
			</g>
			<g id="g18702">
				<g id="h18702">
					<rect id="b18702" x="90.221" y="54.34" class="st6" width="28.83" height="19.891"/>
					<path id="t18702" class="st5" d="M97.602,63.064l0.28-0.472h0.911v4.142h-0.485v-3.669h-0.706V63.064z M100.668,64.586
						c-0.334-0.192-0.533-0.522-0.533-0.928c0-0.676,0.518-1.153,1.164-1.153s1.163,0.478,1.163,1.153
						c0,0.406-0.199,0.736-0.533,0.928c0.42,0.148,0.641,0.549,0.641,0.995c0,0.769-0.581,1.241-1.271,1.241
						s-1.271-0.473-1.271-1.241C100.027,65.135,100.248,64.734,100.668,64.586z M100.512,65.581c0,0.417,0.389,0.78,0.787,0.78
						s0.786-0.363,0.786-0.78c0-0.439-0.378-0.78-0.786-0.78C100.889,64.8,100.512,65.141,100.512,65.581z M100.61,63.658
						c0,0.33,0.35,0.703,0.689,0.703c0.339,0,0.689-0.374,0.689-0.703c0-0.396-0.324-0.714-0.689-0.714
						C100.932,62.944,100.61,63.262,100.61,63.658z M103.023,63.064v-0.472h2.925l-2.531,4.229l-0.394-0.247l2.101-3.51H103.023z
						 M105.957,64.663c0-0.852,0.366-2.159,1.416-2.159c1.051,0,1.417,1.307,1.417,2.159c0,0.846-0.372,2.159-1.417,2.159
						S105.957,65.509,105.957,64.663z M106.442,64.658c0,0.571,0.205,1.703,0.932,1.703c0.728,0,0.932-1.131,0.932-1.703
						s-0.204-1.714-0.932-1.714C106.647,62.944,106.442,64.086,106.442,64.658z M111.813,66.261v0.473h-2.623l1.777-2.225
						c0.167-0.209,0.361-0.467,0.361-0.742c0-0.434-0.377-0.791-0.798-0.791c-0.415,0-0.754,0.34-0.78,0.758h-0.507
						c0.081-0.736,0.55-1.23,1.287-1.23c0.689,0,1.282,0.521,1.282,1.241c0,0.308-0.113,0.615-0.302,0.852l-1.336,1.664H111.813z"/>
				</g>
			</g>
			<g id="g18110">
				<g id="h18110">
					<rect id="b18110" x="9.109" y="129.318" class="st6" width="28.83" height="20.858"/>
					<path id="t18110" class="st5" d="M16.986,137.766l0.28-0.472h0.911v4.142h-0.485v-3.669L16.986,137.766L16.986,137.766z
						 M20.052,139.287c-0.334-0.192-0.533-0.522-0.533-0.928c0-0.676,0.517-1.153,1.164-1.153s1.164,0.478,1.164,1.153
						c0,0.406-0.199,0.736-0.533,0.928c0.42,0.148,0.641,0.549,0.641,0.995c0,0.769-0.582,1.241-1.271,1.241
						s-1.271-0.473-1.271-1.241C19.411,139.836,19.632,139.436,20.052,139.287z M19.896,140.282c0,0.417,0.388,0.78,0.787,0.78
						s0.787-0.363,0.787-0.78c0-0.439-0.377-0.78-0.787-0.78S19.896,139.842,19.896,140.282z M19.993,138.359
						c0,0.33,0.35,0.703,0.689,0.703s0.689-0.374,0.689-0.703c0-0.396-0.323-0.714-0.689-0.714S19.993,137.963,19.993,138.359z
						 M22.632,137.766l0.28-0.472h0.911v4.142h-0.485v-3.669L22.632,137.766L22.632,137.766z M25.136,137.766l0.28-0.472h0.911
						v4.142h-0.485v-3.669L25.136,137.766L25.136,137.766z M27.481,139.364c0-0.852,0.366-2.159,1.417-2.159
						s1.417,1.307,1.417,2.159c0,0.846-0.372,2.159-1.417,2.159S27.481,140.21,27.481,139.364z M27.966,139.359
						c0,0.571,0.205,1.703,0.932,1.703s0.932-1.131,0.932-1.703s-0.205-1.714-0.932-1.714S27.966,138.788,27.966,139.359z"/>
				</g>
			</g>
			<g id="g18108">
				<g id="h18108">
					<rect id="b18108" x="9.109" y="108.459" class="st6" width="28.83" height="20.859"/>
					<path id="t18108" class="st5" d="M16.629,117.289l0.28-0.472h0.911v4.142h-0.485v-3.669L16.629,117.289L16.629,117.289z
						 M19.694,118.81c-0.334-0.192-0.533-0.522-0.533-0.928c0-0.676,0.517-1.153,1.164-1.153s1.164,0.478,1.164,1.153
						c0,0.406-0.199,0.736-0.533,0.928c0.42,0.148,0.641,0.549,0.641,0.995c0,0.769-0.582,1.241-1.271,1.241
						s-1.271-0.473-1.271-1.241C19.054,119.359,19.275,118.959,19.694,118.81z M19.538,119.805c0,0.417,0.388,0.78,0.787,0.78
						s0.787-0.363,0.787-0.78c0-0.439-0.377-0.78-0.787-0.78S19.538,119.365,19.538,119.805z M19.635,117.882
						c0,0.33,0.35,0.703,0.689,0.703s0.689-0.374,0.689-0.703c0-0.396-0.323-0.714-0.689-0.714S19.635,117.486,19.635,117.882z
						 M22.275,117.289l0.28-0.472h0.911v4.142H22.98v-3.669L22.275,117.289L22.275,117.289z M24.619,118.887
						c0-0.852,0.366-2.159,1.417-2.159s1.417,1.307,1.417,2.159c0,0.846-0.372,2.159-1.417,2.159S24.619,119.733,24.619,118.887z
						 M25.104,118.882c0,0.571,0.205,1.703,0.932,1.703s0.932-1.131,0.932-1.703s-0.205-1.714-0.932-1.714
						S25.104,118.311,25.104,118.882z M28.625,118.81c-0.334-0.192-0.533-0.522-0.533-0.928c0-0.676,0.517-1.153,1.164-1.153
						s1.164,0.478,1.164,1.153c0,0.406-0.199,0.736-0.533,0.928c0.42,0.148,0.641,0.549,0.641,0.995
						c0,0.769-0.582,1.241-1.271,1.241s-1.271-0.473-1.271-1.241C27.984,119.359,28.205,118.959,28.625,118.81z M28.468,119.805
						c0,0.417,0.388,0.78,0.787,0.78s0.787-0.363,0.787-0.78c0-0.439-0.377-0.78-0.787-0.78S28.468,119.365,28.468,119.805z
						 M28.566,117.882c0,0.33,0.35,0.703,0.689,0.703s0.689-0.374,0.689-0.703c0-0.396-0.323-0.714-0.689-0.714
						S28.566,117.486,28.566,117.882z"/>
				</g>
			</g>
			<g id="g18104">
				<g id="h18104">
					<rect id="b18104" x="9.109" y="74.086" class="st6" width="28.83" height="20.858"/>
					<path id="t18104" class="st5" d="M16.659,83.211l0.28-0.472h0.911v4.142h-0.485v-3.669L16.659,83.211L16.659,83.211z
						 M19.725,84.732c-0.334-0.192-0.533-0.522-0.533-0.928c0-0.676,0.517-1.153,1.164-1.153s1.164,0.478,1.164,1.153
						c0,0.406-0.199,0.736-0.533,0.928c0.42,0.148,0.641,0.549,0.641,0.995c0,0.769-0.582,1.241-1.271,1.241
						s-1.271-0.473-1.271-1.241C19.084,85.282,19.305,84.881,19.725,84.732z M19.568,85.727c0,0.417,0.388,0.78,0.787,0.78
						s0.787-0.363,0.787-0.78c0-0.439-0.377-0.78-0.787-0.78S19.568,85.288,19.568,85.727z M19.666,83.804
						c0,0.33,0.35,0.703,0.689,0.703s0.689-0.374,0.689-0.703c0-0.396-0.323-0.714-0.689-0.714S19.666,83.409,19.666,83.804z
						 M22.305,83.211l0.28-0.472h0.911v4.142H23.01v-3.669L22.305,83.211L22.305,83.211z M24.65,84.81
						c0-0.852,0.366-2.159,1.417-2.159s1.417,1.307,1.417,2.159c0,0.846-0.372,2.159-1.417,2.159S24.65,85.655,24.65,84.81z
						 M25.134,84.804c0,0.571,0.205,1.703,0.932,1.703s0.932-1.131,0.932-1.703s-0.205-1.714-0.932-1.714
						S25.134,84.233,25.134,84.804z M30.658,85.826v0.45h-0.463v0.604H29.71v-0.604h-2.004l2.489-3.713v3.263H30.658z M29.71,84.117
						h-0.011l-1.142,1.708h1.153V84.117z"/>
				</g>
			</g>
			<g id="g18102">
				<g id="h18102">
					<rect id="b18102" x="9.109" y="54.34" class="st6" width="28.83" height="19.745"/>
					<path id="t18102" class="st5" d="M16.673,63.064l0.28-0.472h0.911v4.142h-0.485v-3.669h-0.706V63.064z M19.739,64.586
						c-0.334-0.192-0.533-0.522-0.533-0.928c0-0.676,0.517-1.153,1.164-1.153s1.164,0.478,1.164,1.153
						c0,0.406-0.199,0.736-0.533,0.928c0.42,0.148,0.641,0.549,0.641,0.995c0,0.769-0.582,1.241-1.271,1.241
						S19.1,66.349,19.1,65.581C19.098,65.135,19.319,64.734,19.739,64.586z M19.583,65.581c0,0.417,0.388,0.78,0.787,0.78
						s0.787-0.363,0.787-0.78c0-0.439-0.377-0.78-0.787-0.78S19.583,65.141,19.583,65.581z M19.68,63.658
						c0,0.33,0.35,0.703,0.689,0.703s0.689-0.374,0.689-0.703c0-0.396-0.323-0.714-0.689-0.714S19.68,63.262,19.68,63.658z
						 M22.319,63.064l0.28-0.472h0.911v4.142h-0.485v-3.669h-0.706V63.064z M24.664,64.663c0-0.852,0.366-2.159,1.417-2.159
						s1.417,1.307,1.417,2.159c0,0.846-0.372,2.159-1.417,2.159S24.664,65.509,24.664,64.663z M25.149,64.658
						c0,0.571,0.205,1.703,0.932,1.703s0.932-1.131,0.932-1.703s-0.205-1.714-0.932-1.714S25.149,64.086,25.149,64.658z
						 M30.519,66.261v0.473h-2.624l1.778-2.225c0.167-0.209,0.361-0.467,0.361-0.742c0-0.434-0.377-0.791-0.797-0.791
						c-0.415,0-0.754,0.34-0.781,0.758H27.95c0.081-0.736,0.549-1.23,1.287-1.23c0.689,0,1.282,0.521,1.282,1.241
						c0,0.308-0.113,0.615-0.302,0.852l-1.336,1.664H30.519z"/>
				</g>
			</g>
		</g>
	</g>
	<g id="gDeck18HavenDeluxeOwnersSuiteLargeBalconyH2">
		<g id="hDeck18HavenDeluxeOwnersSuiteLargeBalconyH2">
			<g id="g18700">
				<g id="h18700">
					<path id="b18700" class="st6" d="M123.283,20.639c0-3.924-7.278-10.723-16.083-13.693c-6.082-2.052-12.477-4.306-21.68-5.741
						L85.7,54.34h33.055l-0.018-12.076l4.546-0.083V20.639z"/>
					<path id="t18700" class="st5" d="M97.648,29.703l0.28-0.472h0.91v4.142h-0.484v-3.669h-0.706V29.703z M100.714,31.224
						c-0.334-0.192-0.533-0.522-0.533-0.928c0-0.676,0.517-1.153,1.163-1.153s1.164,0.478,1.164,1.153
						c0,0.406-0.199,0.736-0.533,0.928c0.42,0.148,0.641,0.549,0.641,0.995c0,0.769-0.582,1.241-1.271,1.241
						s-1.271-0.473-1.271-1.241C100.073,31.773,100.294,31.373,100.714,31.224z M100.558,32.219c0,0.417,0.388,0.78,0.786,0.78
						s0.787-0.363,0.787-0.78c0-0.439-0.378-0.78-0.787-0.78S100.558,31.779,100.558,32.219z M100.654,30.296
						c0,0.33,0.351,0.703,0.689,0.703c0.34,0,0.689-0.374,0.689-0.703c0-0.396-0.323-0.714-0.689-0.714S100.654,29.9,100.654,30.296
						z M103.068,29.703V29.23h2.925l-2.531,4.229l-0.394-0.247l2.101-3.51h-2.101V29.703z M106.003,31.301
						c0-0.852,0.366-2.159,1.416-2.159c1.051,0,1.417,1.307,1.417,2.159c0,0.846-0.372,2.159-1.417,2.159
						S106.003,32.147,106.003,31.301z M106.487,31.296c0,0.571,0.205,1.703,0.932,1.703c0.728,0,0.932-1.131,0.932-1.703
						s-0.204-1.714-0.932-1.714C106.693,29.582,106.487,30.725,106.487,31.296z M109.312,31.301c0-0.852,0.366-2.159,1.416-2.159
						c1.051,0,1.417,1.307,1.417,2.159c0,0.846-0.372,2.159-1.417,2.159S109.312,32.147,109.312,31.301z M109.796,31.296
						c0,0.571,0.205,1.703,0.932,1.703c0.728,0,0.932-1.131,0.932-1.703s-0.204-1.714-0.932-1.714
						C110.001,29.582,109.796,30.725,109.796,31.296z"/>
				</g>
			</g>
			<g id="g18100">
				<g id="h18100">
					<path id="b18100" class="st6" d="M4.283,21.474c0-6.012,6.833-10.103,15.733-13.825c5.924-2.477,13.064-5.01,22.267-6.444
						V54.34H9.239l0.009-11.992L4.2,42.181L4.283,21.474z"/>
					<path id="t18100" class="st5" d="M16.584,29.703l0.28-0.472h0.911v4.142H17.29v-3.669h-0.706V29.703z M19.65,31.224
						c-0.334-0.192-0.533-0.522-0.533-0.928c0-0.676,0.517-1.153,1.164-1.153s1.164,0.478,1.164,1.153
						c0,0.406-0.199,0.736-0.533,0.928c0.42,0.148,0.641,0.549,0.641,0.995c0,0.769-0.582,1.241-1.271,1.241
						s-1.271-0.473-1.271-1.241C19.009,31.773,19.23,31.373,19.65,31.224z M19.494,32.219c0,0.417,0.388,0.78,0.787,0.78
						s0.787-0.363,0.787-0.78c0-0.439-0.377-0.78-0.787-0.78S19.494,31.779,19.494,32.219z M19.591,30.296
						c0,0.33,0.35,0.703,0.689,0.703s0.689-0.374,0.689-0.703c0-0.396-0.323-0.714-0.689-0.714S19.591,29.9,19.591,30.296z
						 M22.23,29.703l0.28-0.472h0.911v4.142h-0.485v-3.669H22.23V29.703z M24.575,31.301c0-0.852,0.366-2.159,1.417-2.159
						s1.417,1.307,1.417,2.159c0,0.846-0.372,2.159-1.417,2.159S24.575,32.147,24.575,31.301z M25.06,31.296
						c0,0.571,0.205,1.703,0.932,1.703s0.932-1.131,0.932-1.703s-0.205-1.714-0.932-1.714S25.06,30.725,25.06,31.296z
						 M27.883,31.301c0-0.852,0.366-2.159,1.417-2.159s1.417,1.307,1.417,2.159c0,0.846-0.372,2.159-1.417,2.159
						S27.883,32.147,27.883,31.301z M28.368,31.296c0,0.571,0.205,1.703,0.932,1.703s0.932-1.131,0.932-1.703
						s-0.205-1.714-0.932-1.714S28.368,30.725,28.368,31.296z"/>
				</g>
			</g>
		</g>
	</g>
</g>
<g id="BLISS_DECK_18_TOP">
	<path class="st7" d="M64.135,0.5h0.342c23.073,0,33.823,3.256,45.121,7.99c7.402,3.102,13.572,7.942,13.572,13.721
		c0,0.643,0,20.119,0,20.119h-4.551v240.161l7.092,16v19.5H97.385v33H64.551h-1.5H30.217v-33H1.891v-19.5l7.092-16V42.288
		L4.087,42.33c0,0,0-19.427,0-20.042c0-5.778,6.515-10.697,13.917-13.798C29.302,3.756,40.052,0.5,63.125,0.5h0.342H64.135z"/>
	<rect x="40.253" y="552.122" class="st7" width="45.667" height="69"/>
	<polyline class="st7" points="95.545,610.821 89.571,610.821 89.571,622.705 36.92,622.588 36.864,610.821 18.42,610.821 	"/>
	<polyline class="st7" points="102.671,610.821 125.71,610.821 126.42,793.705 25.44,793.705 6.17,793.705 6.42,764.705 
		0.724,764.705 0.724,610.821 10.42,610.821 	"/>
	<polyline class="st7" points="38.295,739.455 38.295,722.08 42.42,709.455 42.42,671.58 60.293,671.58 63.17,671.58 84.045,671.58 
		84.045,709.455 88.17,722.08 88.17,739.455 	"/>
	<polyline class="st7" points="62.712,739.455 102.295,739.455 102.295,792.83 	"/>
	<polyline class="st7" points="62.92,739.455 24.212,739.455 24.212,793.705 	"/>
	<g id="gDeck18Locations">
		<rect id="_x31_8Aft" y="558.806" class="st8" width="145.763" height="272.535"/>
		<rect id="_x31_8Middle" y="276.989" class="st8" width="145.763" height="281.818"/>
		<rect id="_x31_8Forward" y="0" class="st8" width="145.763" height="276.989"/>
	</g>
</g>
</svg>
