<?xml version="1.0" encoding="utf-8"?>
<!-- Generator: Adobe Illustrator 23.0.2, SVG Export Plug-In . SVG Version: 6.00 Build 0)  -->
<svg version="1.1" id="BLISS_DECK_19" xmlns="http://www.w3.org/2000/svg" xmlns:xlink="http://www.w3.org/1999/xlink" x="0px"
	 y="0px" width="137.196px" height="779.888px" viewBox="0 0 137.196 779.888" style="enable-background:new 0 0 137.196 779.888;"
	 xml:space="preserve">
<style type="text/css">
	.Drop_x0020_Shadow{fill:none;}
	.Round_x0020_Corners_x0020_2_x0020_pt{fill:#FFFFFF;stroke:#000000;stroke-miterlimit:10;}
	.Live_x0020_Reflect_x0020_X{fill:none;}
	.Bevel_x0020_Soft{fill:url(#SVGID_1_);}
	.Dusk{fill:#FFFFFF;}
	.Foliage_GS{fill:#FFDD00;}
	.Pompadour_GS{fill-rule:evenodd;clip-rule:evenodd;fill:#44ADE2;}
	.New_x0020_Cabins_x0020_2019{fill:#EFF2F5;stroke:#FFFFFF;stroke-width:0.5;stroke-miterlimit:10;}
	.st0{fill:#FFFFFF;}
	.st1{fill:none;stroke:#D5DCE0;stroke-width:0.5;}
	.st2{fill:#FFFFFF;stroke:#D5DCE0;stroke-width:0.5;}
	.st3{fill:none;}
	.st4{fill:#CCDDE2;}
	.st5{fill:#DFEDF1;stroke:#CEDFE5;stroke-width:0.5;}
	.st6{fill:#DFEDF1;}
	.st7{fill:#6E8496;}
	.st8{fill:none;stroke:#076FA0;stroke-miterlimit:10;}
</style>
<linearGradient id="SVGID_1_" gradientUnits="userSpaceOnUse" x1="-543.6667" y1="6.135" x2="-542.9595" y2="6.8421">
	<stop  offset="0" style="stop-color:#DEDFE3"/>
	<stop  offset="0.1738" style="stop-color:#D8D9DD"/>
	<stop  offset="0.352" style="stop-color:#C9CACD"/>
	<stop  offset="0.5323" style="stop-color:#B4B5B8"/>
	<stop  offset="0.7139" style="stop-color:#989A9C"/>
	<stop  offset="0.8949" style="stop-color:#797C7E"/>
	<stop  offset="1" style="stop-color:#656B6C"/>
</linearGradient>
<g id="BLISS_DECK_19_BOTTOM">
	<path class="st0" d="M112,746.26v14.625c-2.667,0-15.506-2.75-15.506,18.493H50.422c0-21.243-12.839-18.493-15.506-18.493V746.26"
		/>
	<path class="st0" d="M68.379,539.538h-5.478c-4.971,0-7.999,2.719-7.999,7.192v62.072c13.098,0,28.431,0,37.852,0V546.73
		c0-4.474-3.029-7.192-7.999-7.192h-5.478H68.379z"/>
	<path class="st0" d="M113.591,342.802v-73.208l13.692,0.166l0.07-90.873l6.014-6.452l0.008-10.216l-5.996-5.834l0.164-96.418
		l5.49-5.583V43.633l-5.465-5.669c0,0,0.021-16.959,0.021-17.679c0-5.778-1.6-8.619-8.924-11.721
		c-11.176-4.734-20.809-7.99-43.635-7.99h-0.336H74.41h-1.201h-0.285h-0.337c-22.825,0-32.458,3.256-43.635,7.99
		c-7.323,3.102-8.924,5.942-8.924,11.721c0,0.72,0.023,17.679,0.023,17.679l-5.466,5.669v10.751l5.49,5.583l0.165,134.165
		l-5.997,5.835l0.008,10.216l6.014,6.452l0.07,53.126l13.692-0.166v73.208H113.591z"/>
	<path class="st1" d="M20.028,19.468c0,0,1.806-1.667,4.639-3.167c7.575-4.011,22.667-7,27.5-7v7.667H73.5"/>
	<path class="st1" d="M127.333,19.468c0,0-1.823-1.667-4.682-3.167c-7.646-4.011-22.879-7-27.757-7v7.667H73.361"/>
	<polyline class="st1" points="105.167,84.302 105.167,110.385 127.083,110.385 	"/>
	<path class="st1" d="M94.767,84.468V30.464c0,0-7.274-4.663-21.041-4.663h-0.293c-13.767,0-21.041,4.663-21.041,4.663L52.5,84.461
		l-8.583,0.007v19.333h50.851v-8.676"/>
	<polyline class="st1" points="20.333,114.302 44.167,114.302 44.167,103.802 	"/>
	<polyline class="st1" points="94.75,95.126 69.333,95.126 69.333,84.51 	"/>
	<rect x="73.423" y="84.561" class="st1" width="0.751" height="10.436"/>
	<rect x="74.166" y="84.561" class="st1" width="0.751" height="10.436"/>
	<rect x="71.977" y="84.561" class="st1" width="0.751" height="10.436"/>
	<rect x="75.735" y="84.542" class="st1" width="0.751" height="10.436"/>
	<rect x="76.478" y="84.542" class="st1" width="0.751" height="10.436"/>
	<rect x="77.255" y="84.542" class="st1" width="0.751" height="10.436"/>
	<rect x="77.998" y="89.708" class="st1" width="0.751" height="5.27"/>
	<rect x="79.519" y="90.073" class="st1" width="0.751" height="4.905"/>
	<rect x="80.262" y="90.073" class="st1" width="0.751" height="4.905"/>
	<rect x="81.778" y="90.073" class="st1" width="0.751" height="4.905"/>
	<rect x="83.125" y="90.073" class="st1" width="0.751" height="4.905"/>
	<line class="st1" x1="78.059" y1="89.711" x2="80.062" y2="84.696"/>
	<path class="st1" d="M71.351,89.693c-0.109,0-0.196,0.081-0.196,0.181l0,0c0,0.1,0.087,0.181,0.196,0.181h10.07
		c0.108,0,0.196-0.081,0.196-0.181l0,0c0-0.1-0.087-0.181-0.196-0.181H71.351z"/>
	<path class="st1" d="M71.351,90.056h12.9c0.108,0,0.196-0.081,0.196-0.181l0,0c0-0.1-0.087-0.181-0.196-0.181h-12.9"/>
	<line class="st1" x1="78.75" y1="87.694" x2="78.75" y2="84.427"/>
	<line class="st1" x1="105" y1="84.385" x2="69.25" y2="84.385"/>
	<path class="st2" d="M35.64,748.632c-10.182-0.497-18.844-5.932-21.182-16.997c-3.75-17.75,7.125-15.5,7.125-29.125
		c0-2.125-0.125-29.5-0.125-29.5l15.126-0.125c0,0-0.126,28.956-0.126,32.625c0,13.375-8,13.25-8,21c0,3.135,1.955,4.637,4,6
		c3.375,2.25,13.125,0.75,10.875-9.375c-2.813-12.657-1-15.5,3.375-21.375c5.867-7.878,14.375-10.875,21.25-10.25
		c5.142,0.467,8.875,1.269,8.875-4.25c0-3.293-3.925-4.818-6-3.125c-4.75,3.875-13.925,6.757-20.75,3.25
		c-9-4.625-10.892-8.742-10.375-16.5c1.25-18.75-23.093-24.099-26-41.125c-0.875-5.125,0.117-8.804,3.708-12.875
		c4.766-5.4,11.859-5.785,18.125-3.458c4.368,1.621,10.292,8.208,12.792,10.208c1.934,1.548,3.016,2.314,11.25,1.917
		c12.083-0.583,15.542,6.481,17.25,11.917c0.917,2.917,4.5,6.167,9.75,0c7.151-8.4,23.045-26.533,33.417-25.833
		c14.833,1,17.5,17.5,15.667,25.5c-1.264,5.514-3.333,10.833-12.333,14.5c-14.643,5.966-13.667,12.5-13.333,31
		c0.455,25.229-8.833,36.167-22.917,41.917c-3,1.225-3.287,5.254,2.751,5.252c7.082-0.002,11.666,0.164,21.249-0.002
		c2.239-0.039,4.204-1.072,4.667-1.583c1.583-1.75,1.305-3.152,0.583-5.25c-3.583-10.417-3.5-19.214-3.5-25.5l-0.083-23.666
		l14.75-0.083l0.25,28.333c-0.083,6.417,0.417,13.167,4.833,21.083c4.667,8.365,2.887,14.359-1.334,19.276
		c-4.507,5.252-10.666,7.89-18.87,4.106c-5.236-2.415-13.463-2.633-22.546-2.383c-8.936,0.246-18.452,0.07-23.125-8.75
		c-2.108-3.978-2.993-7.441-1.75-11.5c1.875-6.125,6.625-9.875,11.625-12.125c12.119-5.454,17.5-9.958,17.833-22.708
		c0.893-34.159,1.228-42.197,21.167-52.167c6.333-3.167,6.917-6.167,4-7.75c-1.093-0.593-3.769,0.344-5.381,1.76
		c-3.827,3.36-9.135,8.944-12.646,12.64c-0.944,0.992-1.754,1.844-2.364,2.475c-2.955,3.046-6.628,6.849-11.145,9.096
		c-5.839,2.905-12.5,1.417-18.652-2.682c-5.687-3.788-6.062-12.413-13.812-11.788c-3.746,0.302-9.202,0.75-14.75-3.5
		c-5.875-4.5-7.736-8.791-9.25-7.75c-2,1.375,1.765,2.86,5.25,6.25c9.125,8.875,19.625,7.375,18,24.625
		c-0.281,2.987-0.875,4.875,2,6.75c2.388,1.557,4.816-2.458,8.375-5.75c5-4.625,13.182-4.635,19.5-1.125
		c6.75,3.75,8.293,11.084,8.25,19.75c-0.125,25.125-8.5,26.25-17.25,30.375c-6.115,2.883-11.875,6.25-12.875,14.25
		c-1.152,9.22-5.375,16.125-12,20C46.944,746.785,43.333,748.51,35.64,748.632z M28.353,627.987c0,0.001,0,0.002,0,0.002
		S28.353,627.988,28.353,627.987z"/>
	<rect x="53.667" y="111.735" class="st1" width="41.208" height="56.067"/>
	<path class="st1" d="M85.958,209.987c-6.938,0-31.175,0-36.688,0c-8.625,0-8.312,8.836-8.312,8.836l53.625,0.062
		C94.583,218.885,95.208,209.987,85.958,209.987z"/>
	<polyline class="st1" points="46.505,302.557 40.537,302.557 40.583,336.802 106.333,336.802 106.333,269.635 94.583,269.635 
		94.583,218.885 40.958,218.76 40.583,268.635 40.583,298.177 51.167,298.177 51.167,302.552 45.375,302.552 	"/>
	<line class="st1" x1="113.591" y1="269.594" x2="106.333" y2="269.594"/>
	<line class="st1" x1="70.833" y1="210.135" x2="70.75" y2="197.885"/>
	<line class="st1" x1="71.833" y1="199.177" x2="71.75" y2="185.51"/>
	<line class="st1" x1="55.667" y1="175.052" x2="55.667" y2="185.635"/>
	<line class="st1" x1="60.062" y1="175.052" x2="60.062" y2="185.635"/>
	<line class="st1" x1="73.438" y1="175.052" x2="73.438" y2="185.635"/>
	<polyline class="st1" points="86.396,185.635 42.083,185.635 42.083,174.968 104.917,174.968 104.917,185.635 86,185.635 	"/>
	<rect x="86.363" y="174.988" class="st1" width="9.324" height="18.868"/>
	<polyline class="st1" points="86.672,185.137 95.545,174.984 86.761,174.987 95.64,185.135 	"/>
	<line class="st1" x1="43.958" y1="175.01" x2="43.958" y2="113.968"/>
	<rect x="40.306" y="345.28" class="st2" width="66.667" height="3.167"/>
	<rect x="40.306" y="343.114" class="st2" width="66.667" height="2.186"/>
	<line class="st2" x1="48.472" y1="345.114" x2="48.472" y2="348.28"/>
	<line class="st2" x1="98.306" y1="345.114" x2="98.306" y2="348.28"/>
	<polygon class="st1" points="119.7,756.679 115.905,756.667 115.902,755.742 119.697,755.754 	"/>
	<polygon class="st1" points="119.703,757.595 115.908,757.583 115.905,756.657 119.7,756.669 	"/>
	<polygon class="st1" points="119.706,758.552 115.911,758.54 115.908,757.615 119.703,757.627 	"/>
	<line class="st1" x1="115.911" y1="758.529" x2="119.706" y2="758.541"/>
	<polygon class="st1" points="119.709,759.541 115.914,759.529 115.911,758.604 119.706,758.616 	"/>
	<polygon class="st1" points="119.712,760.456 115.917,760.444 115.914,759.519 119.709,759.531 	"/>
	<polygon class="st1" points="119.716,761.413 115.92,763.776 115.917,760.476 119.713,760.488 	"/>
	<line class="st1" x1="115.92" y1="761.391" x2="119.716" y2="761.403"/>
	<line class="st1" x1="115.92" y1="762.319" x2="118.145" y2="762.331"/>
	<line class="st1" x1="115.951" y1="763.129" x2="116.958" y2="763.141"/>
	<path class="st1" d="M130.333,590.197c0,0.932-0.756,1.688-1.688,1.688c-0.932,0-1.687-0.755-1.687-1.688
		c0-0.932,0.756-1.688,1.687-1.688C129.578,588.51,130.333,589.266,130.333,590.197z"/>
	<circle class="st2" cx="128.646" cy="590.197" r="6.451"/>
	<path class="st1" d="M125.042,595.614l2.583-4.062l0.542,0.333l-1.458,4.583l1.937,0.181v-4.764c0,0,0.604,0.042,1.438-0.812
		c0.458,0.25,4.292,2.062,4.292,2.062l0.583-1.458l-4.75-0.979l0.125-0.479l4.764-0.021l-0.181-1.521l-4.625,1.208l-0.104-0.458
		l4.229-2.083l-0.896-1.229l-3.542,2.917l-0.417-0.229l2.938-3.667l-1.292-0.75l-2,4.208l-0.292-0.083l0.667-4.625l-1.667,0.083
		l0.521,4.562l-0.271,0.125l-1.625-4.354l-1.375,0.667l2.583,3.833l-0.354,0.333l-3.479-3.208"/>
	<path class="st1" d="M81.708,763.947c0,0-0.432-3.691-1.125-4.557c0-1.998,0-2.285,0-4.464c0-5.708-1.958-5.875-5.875-5.875h-0.125
		c-3.917,0-5.875,0.167-5.875,5.875c0,2.267,0,2.647,0,4.701c-0.581,0.824-0.929,4.32-0.929,4.32l-0.769,0.021v15.333h15.417
		v-15.333L81.708,763.947z"/>
	<path class="st2" d="M113.833,304.635c4.5-5.5,14.25-6.5,21-1.75c-3.75-5.25-0.75-12.5,0-16.75c-6-4.75-7.551-16.375-7.551-16.375
		h-13.449V304.635z"/>
	<path class="st2" d="M33.833,286.385c0,0-16.5,0-22.5,0c4.75,3.25,3.25,15,0,17.75c5.75-3.75,15.25-6.5,21.25-1.25
		C29.083,297.635,31.333,287.635,33.833,286.385"/>
	<rect x="67.667" y="518.135" class="st1" width="14.833" height="21.333"/>
	<rect x="67.768" y="531.458" class="st1" width="6.154" height="0.97"/>
	<rect x="67.768" y="530.498" class="st1" width="6.154" height="0.971"/>
	<rect x="67.768" y="529.495" class="st1" width="6.154" height="0.97"/>
	<polygon class="st1" points="72.915,528.536 67.768,528.536 67.768,529.506 73.922,529.506 	"/>
	<polygon class="st1" points="71.892,527.533 67.768,527.533 67.768,528.503 72.905,528.503 	"/>
	<rect x="67.768" y="526.573" class="st1" width="2.935" height="0.97"/>
	<polyline class="st1" points="70.92,526.54 73.927,529.519 73.922,525.57 	"/>
	<path class="st1" d="M70.93,531.821c0,0.136-0.048,0.244-0.108,0.244l0,0c-0.06,0-0.109-0.108-0.109-0.244v-6.272
		c0-0.136,0.049-0.244,0.109-0.244l0,0c0.06,0,0.108,0.108,0.108,0.244V531.821z"/>
	<rect x="76.263" y="531.458" class="st1" width="6.154" height="0.97"/>
	<rect x="76.263" y="530.498" class="st1" width="6.154" height="0.971"/>
	<rect x="76.263" y="529.495" class="st1" width="6.154" height="0.97"/>
	<polygon class="st1" points="81.41,528.536 76.263,528.536 76.263,529.506 82.418,529.506 	"/>
	<polygon class="st1" points="80.387,527.533 76.263,527.533 76.263,528.503 81.4,528.503 	"/>
	<rect x="76.263" y="526.573" class="st1" width="2.935" height="0.97"/>
	<line class="st1" x1="79.416" y1="526.54" x2="82.423" y2="529.519"/>
	<path class="st1" d="M79.425,531.821c0,0.136-0.048,0.244-0.108,0.244l0,0c-0.06,0-0.109-0.108-0.109-0.244v-6.272
		c0-0.136,0.049-0.244,0.109-0.244l0,0c0.06,0,0.108,0.108,0.108,0.244V531.821z"/>
	<rect x="73.92" y="523.677" class="st1" width="2.276" height="8.375"/>
	<path class="st1" d="M111.288,610.617c-1.164-2.111-1.745-3.166-2.909-5.277c-0.325,0.177-0.488,0.265-0.813,0.441
		c1.164,2.111,1.745,3.166,2.909,5.277C110.8,610.882,110.963,610.794,111.288,610.617z"/>
	<path class="st1" d="M112.093,610.181c-1.164-2.111-1.745-3.166-2.909-5.277c-0.326,0.177-0.488,0.265-0.814,0.442
		c1.164,2.111,1.745,3.166,2.909,5.277C111.605,610.446,111.767,610.357,112.093,610.181z"/>
	<path class="st1" d="M112.933,609.724c-1.164-2.111-1.745-3.166-2.909-5.277c-0.325,0.177-0.488,0.265-0.813,0.441
		c1.164,2.111,1.745,3.166,2.909,5.277C112.446,609.989,112.608,609.901,112.933,609.724z"/>
	<path class="st1" d="M110.015,604.452c1.164,2.111,1.745,3.166,2.909,5.277"/>
	<path class="st1" d="M113.803,609.252c-1.164-2.111-1.745-3.166-2.909-5.277c-0.325,0.177-0.488,0.265-0.813,0.441
		c1.164,2.111,1.745,3.166,2.909,5.277C113.315,609.517,113.478,609.428,113.803,609.252z"/>
	<path class="st1" d="M114.607,608.815c-1.164-2.111-1.745-3.166-2.909-5.277c-0.326,0.177-0.488,0.265-0.814,0.442
		c1.164,2.111,1.745,3.166,2.909,5.277C114.119,609.08,114.282,608.992,114.607,608.815z"/>
	<path class="st1" d="M115.448,608.358c-0.516-2.474-0.774-3.712-1.291-6.186c-0.972,0.54-1.459,0.81-2.431,1.35
		c1.164,2.111,1.745,3.166,2.909,5.277C114.96,608.623,115.123,608.535,115.448,608.358z"/>
	<path class="st1" d="M112.53,603.086c1.164,2.111,1.745,3.166,2.909,5.277"/>
	<path class="st1" d="M113.343,602.639c0.594,1.076,0.891,1.613,1.486,2.689"/>
	<path class="st1" d="M36.315,610.476c1.054-2.168,1.581-3.251,2.636-5.419c0.334,0.16,0.501,0.24,0.834,0.399
		c-1.054,2.167-1.581,3.251-2.636,5.419C36.815,610.716,36.648,610.636,36.315,610.476z"/>
	<path class="st1" d="M35.489,610.081c1.054-2.167,1.581-3.251,2.636-5.419c0.334,0.16,0.501,0.24,0.835,0.4
		c-1.054,2.167-1.581,3.251-2.635,5.419C35.99,610.321,35.823,610.241,35.489,610.081z"/>
	<path class="st1" d="M34.626,609.668c1.054-2.167,1.581-3.251,2.636-5.419c0.334,0.16,0.501,0.24,0.834,0.399
		c-1.054,2.167-1.581,3.251-2.635,5.419C35.127,609.908,34.96,609.828,34.626,609.668z"/>
	<path class="st1" d="M37.271,604.254c-1.054,2.167-1.581,3.251-2.636,5.419"/>
	<path class="st1" d="M33.734,609.241c1.054-2.167,1.581-3.251,2.635-5.419c0.334,0.16,0.501,0.24,0.834,0.399
		c-1.054,2.167-1.581,3.251-2.635,5.419C34.234,609.481,34.067,609.401,33.734,609.241z"/>
	<path class="st1" d="M32.908,608.846c1.054-2.167,1.581-3.251,2.635-5.419c0.334,0.16,0.501,0.24,0.835,0.4
		c-1.054,2.167-1.581,3.251-2.636,5.419C33.409,609.086,33.242,609.006,32.908,608.846z"/>
	<path class="st1" d="M32.045,608.433c0.389-2.497,0.584-3.746,0.973-6.244c0.999,0.49,1.498,0.735,2.497,1.224
		c-1.054,2.167-1.581,3.251-2.635,5.419C32.546,608.672,32.379,608.592,32.045,608.433z"/>
	<path class="st1" d="M34.69,603.018c-1.054,2.168-1.581,3.251-2.636,5.419"/>
	<path class="st1" d="M33.855,602.614c-0.539,1.105-0.808,1.657-1.346,2.761"/>
	<polyline class="st1" points="111.917,751.718 121.167,751.718 121.167,757.552 119.703,757.552 	"/>
	<line class="st1" x1="111.917" y1="757.218" x2="115.908" y2="757.218"/>
	<polygon class="st2" points="48.865,610.31 39.896,605.322 37.031,611.194 50.105,623.968 97.397,623.968 110.635,611.357 
		107.362,605.544 98.637,610.31 	"/>
	<polygon class="st1" points="131.226,167.646 131.226,170.98 128.809,173.73 126.726,173.73 126.435,173.73 124.352,173.73 
		121.935,170.98 121.935,167.646 121.935,167.5 121.935,164.167 124.352,161.417 126.435,161.417 126.726,161.417 128.809,161.417 
		131.226,164.167 131.226,167.5 	"/>
	<path class="st3" d="M128.172,167.024c-0.47,0.196-0.957,0.399-1.918,0.399c-0.961,0-1.448-0.203-1.918-0.399
		c-0.435-0.181-0.846-0.352-1.687-0.352c-0.301,0-0.536,0.027-0.747,0.064v0.864v0.028c0.217-0.031,0.455-0.054,0.747-0.054
		c0.961,0,1.448,0.203,1.918,0.399c0.435,0.181,0.846,0.352,1.687,0.352c0.841,0,1.252-0.171,1.687-0.352
		c0.47-0.196,0.957-0.399,1.918-0.399c0.591,0,0.994,0.08,1.333,0.185v-0.013V167.6v-0.714c-0.333-0.12-0.717-0.213-1.333-0.213
		C129.018,166.672,128.607,166.843,128.172,167.024z"/>
	<path class="st3" d="M128.172,164.02c-0.47,0.196-0.957,0.399-1.918,0.399c-0.961,0-1.448-0.203-1.918-0.399
		c-0.435-0.181-0.846-0.352-1.687-0.352c-0.088,0-0.153,0.009-0.232,0.012l-0.515,0.586v0.357c0.217-0.031,0.455-0.054,0.747-0.054
		c0.961,0,1.448,0.203,1.918,0.399c0.435,0.181,0.846,0.352,1.687,0.352c0.841,0,1.252-0.171,1.687-0.352
		c0.47-0.196,0.957-0.399,1.918-0.399c0.591,0,0.994,0.08,1.333,0.185v-0.487l-0.449-0.51c-0.241-0.052-0.517-0.088-0.885-0.088
		C129.018,163.668,128.607,163.839,128.172,164.02z"/>
	<path class="st3" d="M126.254,162.916c-0.961,0-1.448-0.203-1.918-0.399c-0.216-0.09-0.426-0.177-0.685-0.242l-0.709,0.807
		c0.76,0.039,1.209,0.209,1.625,0.383c0.435,0.181,0.846,0.352,1.687,0.352c0.841,0,1.252-0.171,1.687-0.352
		c0.47-0.196,0.957-0.399,1.918-0.399c0.11,0,0.195,0.011,0.293,0.016l-0.783-0.891c-0.526,0.053-0.857,0.185-1.197,0.326
		C127.702,162.714,127.216,162.916,126.254,162.916z"/>
	<path class="st3" d="M128.172,165.522c-0.47,0.196-0.957,0.399-1.918,0.399c-0.961,0-1.448-0.203-1.918-0.399
		c-0.435-0.181-0.846-0.352-1.687-0.352c-0.301,0-0.536,0.027-0.747,0.064v0.892c0.217-0.032,0.455-0.054,0.747-0.054
		c0.961,0,1.448,0.203,1.918,0.399c0.435,0.181,0.846,0.352,1.687,0.352c0.841,0,1.252-0.171,1.687-0.352
		c0.47-0.196,0.957-0.399,1.918-0.399c0.591,0,0.994,0.08,1.333,0.185v-0.873c-0.333-0.12-0.717-0.213-1.333-0.213
		C129.018,165.17,128.607,165.341,128.172,165.522z"/>
	<path class="st3" d="M126.254,162.316c0.841,0,1.252-0.171,1.687-0.352c0.278-0.116,0.574-0.229,0.958-0.306l-0.124-0.141h-2.083
		h-0.291h-2.083l-0.233,0.265c0.17,0.057,0.33,0.119,0.482,0.182C125.002,162.144,125.413,162.316,126.254,162.316z"/>
	<path class="st3" d="M128.172,171.531c-0.47,0.196-0.957,0.399-1.918,0.399c-0.961,0-1.448-0.203-1.918-0.399
		c-0.435-0.181-0.846-0.352-1.687-0.352c-0.242,0-0.442,0.017-0.623,0.041l0.762,0.867c0.861,0.02,1.334,0.206,1.779,0.391
		c0.435,0.181,0.846,0.352,1.687,0.352c0.841,0,1.252-0.171,1.687-0.352c0.47-0.196,0.957-0.399,1.918-0.399
		c0.163,0,0.295,0.013,0.433,0.023l0.684-0.779c-0.288-0.085-0.626-0.146-1.117-0.146
		C129.018,171.179,128.607,171.35,128.172,171.531z"/>
	<path class="st3" d="M128.172,170.029c-0.47,0.196-0.957,0.399-1.918,0.399c-0.961,0-1.448-0.203-1.918-0.399
		c-0.435-0.181-0.846-0.352-1.687-0.352c-0.301,0-0.536,0.027-0.747,0.064v0.892c0.217-0.031,0.455-0.054,0.747-0.054
		c0.961,0,1.448,0.203,1.918,0.399c0.435,0.181,0.846,0.352,1.687,0.352c0.841,0,1.252-0.171,1.687-0.352
		c0.47-0.196,0.957-0.399,1.918-0.399c0.591,0,0.994,0.08,1.333,0.185v-0.873c-0.333-0.12-0.717-0.213-1.333-0.213
		C129.018,169.676,128.607,169.848,128.172,170.029z"/>
	<path class="st3" d="M128.172,168.527c-0.47,0.196-0.957,0.399-1.918,0.399c-0.961,0-1.448-0.203-1.918-0.399
		c-0.435-0.181-0.846-0.352-1.687-0.352c-0.301,0-0.536,0.027-0.747,0.064v0.892c0.217-0.032,0.455-0.054,0.747-0.054
		c0.961,0,1.448,0.203,1.918,0.399c0.435,0.181,0.846,0.352,1.687,0.352c0.841,0,1.252-0.171,1.687-0.352
		c0.47-0.196,0.957-0.399,1.918-0.399c0.591,0,0.994,0.08,1.333,0.185v-0.873c-0.333-0.12-0.717-0.213-1.333-0.213
		C129.018,168.174,128.607,168.345,128.172,168.527z"/>
	<path class="st3" d="M126.254,173.432c-0.961,0-1.448-0.203-1.918-0.399c-0.288-0.12-0.577-0.231-0.976-0.295l0.959,1.091h2.083
		h0.291h1.635c0.171-0.062,0.368-0.113,0.586-0.156l0.868-0.987c-0.783,0.011-1.189,0.173-1.609,0.348
		C127.702,173.229,127.216,173.432,126.254,173.432z"/>
	<path class="st4" d="M127.941,161.963c-0.435,0.181-0.846,0.352-1.687,0.352c-0.841,0-1.252-0.171-1.687-0.352
		c-0.151-0.063-0.312-0.124-0.482-0.182l-0.434,0.494c0.259,0.065,0.469,0.152,0.685,0.242c0.47,0.196,0.957,0.399,1.918,0.399
		c0.961,0,1.448-0.203,1.918-0.399c0.339-0.141,0.671-0.274,1.197-0.326l-0.47-0.534
		C128.516,161.734,128.219,161.847,127.941,161.963z"/>
	<path class="st4" d="M127.941,163.465c-0.435,0.181-0.846,0.352-1.687,0.352c-0.841,0-1.252-0.171-1.687-0.352
		c-0.416-0.174-0.865-0.344-1.625-0.383l-0.525,0.597c0.079-0.004,0.144-0.012,0.232-0.012c0.841,0,1.252,0.171,1.687,0.352
		c0.47,0.196,0.957,0.399,1.918,0.399c0.961,0,1.448-0.203,1.918-0.399c0.435-0.181,0.846-0.352,1.687-0.352
		c0.367,0,0.644,0.036,0.885,0.088l-0.592-0.673c-0.098-0.005-0.183-0.016-0.293-0.016
		C128.898,163.067,128.411,163.269,127.941,163.465z"/>
	<path class="st4" d="M127.941,164.968c-0.435,0.181-0.846,0.352-1.687,0.352c-0.841,0-1.252-0.171-1.687-0.352
		c-0.47-0.196-0.957-0.399-1.918-0.399c-0.292,0-0.53,0.023-0.747,0.054v0.61c0.212-0.037,0.446-0.064,0.747-0.064
		c0.841,0,1.252,0.171,1.687,0.352c0.47,0.196,0.957,0.399,1.918,0.399c0.961,0,1.448-0.203,1.918-0.399
		c0.435-0.181,0.846-0.352,1.687-0.352c0.616,0,1,0.093,1.333,0.213v-0.629c-0.339-0.105-0.742-0.185-1.333-0.185
		C128.898,164.569,128.411,164.772,127.941,164.968z"/>
	<path class="st4" d="M127.941,166.47c-0.435,0.181-0.846,0.352-1.687,0.352c-0.841,0-1.252-0.171-1.687-0.352
		c-0.47-0.196-0.957-0.399-1.918-0.399c-0.292,0-0.53,0.023-0.747,0.054v0.61c0.212-0.037,0.446-0.064,0.747-0.064
		c0.841,0,1.252,0.171,1.687,0.352c0.47,0.196,0.957,0.399,1.918,0.399c0.961,0,1.448-0.203,1.918-0.399
		c0.435-0.181,0.846-0.352,1.687-0.352c0.616,0,1,0.093,1.333,0.213v-0.629c-0.339-0.105-0.742-0.185-1.333-0.185
		C128.898,166.071,128.411,166.274,127.941,166.47z"/>
	<path class="st4" d="M127.941,167.972c-0.435,0.181-0.846,0.352-1.687,0.352c-0.841,0-1.252-0.171-1.687-0.352
		c-0.47-0.196-0.957-0.399-1.918-0.399c-0.292,0-0.53,0.023-0.747,0.054v0.118v0.493c0.212-0.037,0.446-0.064,0.747-0.064
		c0.841,0,1.252,0.171,1.687,0.352c0.47,0.196,0.957,0.399,1.918,0.399c0.961,0,1.448-0.203,1.918-0.399
		c0.435-0.181,0.846-0.352,1.687-0.352c0.616,0,1,0.093,1.333,0.213v-0.629c-0.339-0.105-0.742-0.185-1.333-0.185
		C128.898,167.573,128.411,167.776,127.941,167.972z"/>
	<path class="st4" d="M127.941,169.474c-0.435,0.181-0.846,0.352-1.687,0.352c-0.841,0-1.252-0.171-1.687-0.352
		c-0.47-0.196-0.957-0.399-1.918-0.399c-0.292,0-0.53,0.023-0.747,0.054v0.61c0.212-0.037,0.446-0.064,0.747-0.064
		c0.841,0,1.252,0.171,1.687,0.352c0.47,0.196,0.957,0.399,1.918,0.399c0.961,0,1.448-0.203,1.918-0.399
		c0.435-0.181,0.846-0.352,1.687-0.352c0.616,0,1,0.093,1.333,0.213v-0.629c-0.339-0.105-0.742-0.185-1.333-0.185
		C128.898,169.076,128.411,169.278,127.941,169.474z"/>
	<path class="st4" d="M127.941,170.976c-0.435,0.181-0.846,0.352-1.687,0.352c-0.841,0-1.252-0.171-1.687-0.352
		c-0.47-0.196-0.957-0.399-1.918-0.399c-0.292,0-0.53,0.023-0.747,0.054v0.447l0.124,0.141c0.182-0.024,0.381-0.041,0.623-0.041
		c0.841,0,1.252,0.171,1.687,0.352c0.47,0.196,0.957,0.399,1.918,0.399c0.961,0,1.448-0.203,1.918-0.399
		c0.435-0.181,0.846-0.352,1.687-0.352c0.491,0,0.829,0.061,1.117,0.146l0.216-0.246v-0.316c-0.339-0.105-0.742-0.185-1.333-0.185
		C128.898,170.578,128.411,170.78,127.941,170.976z"/>
	<path class="st4" d="M127.941,172.479c-0.435,0.181-0.846,0.352-1.687,0.352c-0.841,0-1.252-0.171-1.687-0.352
		c-0.445-0.185-0.918-0.371-1.779-0.391l0.572,0.65c0.399,0.064,0.688,0.175,0.976,0.295c0.47,0.196,0.957,0.399,1.918,0.399
		c0.961,0,1.448-0.203,1.918-0.399c0.42-0.175,0.826-0.337,1.609-0.348l0.511-0.582c-0.138-0.011-0.27-0.023-0.433-0.023
		C128.898,172.08,128.411,172.283,127.941,172.479z"/>
	<path class="st4" d="M128.776,173.829l0.137-0.156c-0.218,0.043-0.416,0.095-0.586,0.156H128.776z"/>
	<polygon class="st1" points="131.226,48.813 131.226,52.146 128.809,54.896 126.726,54.896 126.435,54.896 124.352,54.896 
		121.935,52.146 121.935,48.813 121.935,48.667 121.935,45.334 124.352,42.584 126.435,42.584 126.726,42.584 128.809,42.584 
		131.226,45.334 131.226,48.667 	"/>
	<path class="st3" d="M128.172,48.191c-0.47,0.196-0.957,0.399-1.918,0.399c-0.961,0-1.448-0.203-1.918-0.399
		c-0.435-0.181-0.846-0.352-1.687-0.352c-0.301,0-0.536,0.027-0.747,0.064v0.864v0.028c0.217-0.031,0.455-0.054,0.747-0.054
		c0.961,0,1.448,0.203,1.918,0.399c0.435,0.181,0.846,0.352,1.687,0.352c0.841,0,1.252-0.171,1.687-0.352
		c0.47-0.196,0.957-0.399,1.918-0.399c0.591,0,0.994,0.08,1.333,0.185v-0.013v-0.146v-0.714c-0.333-0.12-0.717-0.213-1.333-0.213
		C129.018,47.839,128.607,48.01,128.172,48.191z"/>
	<path class="st3" d="M128.172,45.187c-0.47,0.196-0.957,0.399-1.918,0.399c-0.961,0-1.448-0.203-1.918-0.399
		c-0.435-0.181-0.846-0.352-1.687-0.352c-0.088,0-0.153,0.009-0.232,0.012l-0.515,0.586v0.357c0.217-0.031,0.455-0.054,0.747-0.054
		c0.961,0,1.448,0.203,1.918,0.399c0.435,0.181,0.846,0.352,1.687,0.352c0.841,0,1.252-0.171,1.687-0.352
		c0.47-0.196,0.957-0.399,1.918-0.399c0.591,0,0.994,0.08,1.333,0.185v-0.487l-0.449-0.51c-0.241-0.052-0.517-0.088-0.885-0.088
		C129.018,44.834,128.607,45.005,128.172,45.187z"/>
	<path class="st3" d="M126.254,44.083c-0.961,0-1.448-0.203-1.918-0.399c-0.216-0.09-0.426-0.177-0.685-0.242l-0.709,0.807
		c0.76,0.039,1.209,0.209,1.625,0.383c0.435,0.181,0.846,0.352,1.687,0.352c0.841,0,1.252-0.171,1.687-0.352
		c0.47-0.196,0.957-0.399,1.918-0.399c0.11,0,0.195,0.011,0.293,0.016l-0.783-0.891c-0.526,0.053-0.857,0.185-1.197,0.326
		C127.702,43.88,127.216,44.083,126.254,44.083z"/>
	<path class="st3" d="M128.172,46.689c-0.47,0.196-0.957,0.399-1.918,0.399c-0.961,0-1.448-0.203-1.918-0.399
		c-0.435-0.181-0.846-0.352-1.687-0.352c-0.301,0-0.536,0.027-0.747,0.064v0.892c0.217-0.032,0.455-0.054,0.747-0.054
		c0.961,0,1.448,0.203,1.918,0.399c0.435,0.181,0.846,0.352,1.687,0.352c0.841,0,1.252-0.171,1.687-0.352
		c0.47-0.196,0.957-0.399,1.918-0.399c0.591,0,0.994,0.08,1.333,0.185V46.55c-0.333-0.12-0.717-0.213-1.333-0.213
		C129.018,46.336,128.607,46.508,128.172,46.689z"/>
	<path class="st3" d="M126.254,43.482c0.841,0,1.252-0.171,1.687-0.352c0.278-0.116,0.574-0.229,0.958-0.306l-0.124-0.141h-2.083
		h-0.291h-2.083l-0.233,0.265c0.17,0.057,0.33,0.119,0.482,0.182C125.002,43.311,125.413,43.482,126.254,43.482z"/>
	<path class="st3" d="M128.172,52.698c-0.47,0.196-0.957,0.399-1.918,0.399c-0.961,0-1.448-0.203-1.918-0.399
		c-0.435-0.181-0.846-0.352-1.687-0.352c-0.242,0-0.442,0.017-0.623,0.041l0.762,0.867c0.861,0.02,1.334,0.206,1.779,0.391
		c0.435,0.181,0.846,0.352,1.687,0.352c0.841,0,1.252-0.171,1.687-0.352c0.47-0.196,0.957-0.399,1.918-0.399
		c0.163,0,0.295,0.013,0.433,0.023l0.684-0.779c-0.288-0.085-0.626-0.146-1.117-0.146C129.018,52.345,128.607,52.517,128.172,52.698
		z"/>
	<path class="st3" d="M128.172,51.196c-0.47,0.196-0.957,0.399-1.918,0.399c-0.961,0-1.448-0.203-1.918-0.399
		c-0.435-0.181-0.846-0.352-1.687-0.352c-0.301,0-0.536,0.027-0.747,0.064v0.892c0.217-0.031,0.455-0.054,0.747-0.054
		c0.961,0,1.448,0.203,1.918,0.399c0.435,0.181,0.846,0.352,1.687,0.352c0.841,0,1.252-0.171,1.687-0.352
		c0.47-0.196,0.957-0.399,1.918-0.399c0.591,0,0.994,0.08,1.333,0.185v-0.873c-0.333-0.12-0.717-0.213-1.333-0.213
		C129.018,50.843,128.607,51.014,128.172,51.196z"/>
	<path class="st3" d="M128.172,49.693c-0.47,0.196-0.957,0.399-1.918,0.399c-0.961,0-1.448-0.203-1.918-0.399
		c-0.435-0.181-0.846-0.352-1.687-0.352c-0.301,0-0.536,0.027-0.747,0.064v0.892c0.217-0.032,0.455-0.054,0.747-0.054
		c0.961,0,1.448,0.203,1.918,0.399c0.435,0.181,0.846,0.352,1.687,0.352c0.841,0,1.252-0.171,1.687-0.352
		c0.47-0.196,0.957-0.399,1.918-0.399c0.591,0,0.994,0.08,1.333,0.185v-0.873c-0.333-0.12-0.717-0.213-1.333-0.213
		C129.018,49.341,128.607,49.512,128.172,49.693z"/>
	<path class="st3" d="M126.254,54.599c-0.961,0-1.448-0.203-1.918-0.399c-0.288-0.12-0.577-0.231-0.976-0.295l0.959,1.091h2.083
		h0.291h1.635c0.171-0.062,0.368-0.113,0.586-0.156l0.868-0.987c-0.783,0.011-1.189,0.173-1.609,0.348
		C127.702,54.396,127.216,54.599,126.254,54.599z"/>
	<path class="st4" d="M127.941,43.13c-0.435,0.181-0.846,0.352-1.687,0.352c-0.841,0-1.252-0.171-1.687-0.352
		c-0.151-0.063-0.312-0.124-0.482-0.182l-0.434,0.494c0.259,0.065,0.469,0.152,0.685,0.242c0.47,0.196,0.957,0.399,1.918,0.399
		c0.961,0,1.448-0.203,1.918-0.399c0.339-0.141,0.671-0.274,1.197-0.326l-0.47-0.534C128.516,42.901,128.219,43.014,127.941,43.13z"
		/>
	<path class="st4" d="M127.941,44.632c-0.435,0.181-0.846,0.352-1.687,0.352c-0.841,0-1.252-0.171-1.687-0.352
		c-0.416-0.174-0.865-0.344-1.625-0.383l-0.525,0.597c0.079-0.004,0.144-0.012,0.232-0.012c0.841,0,1.252,0.171,1.687,0.352
		c0.47,0.196,0.957,0.399,1.918,0.399c0.961,0,1.448-0.203,1.918-0.399c0.435-0.181,0.846-0.352,1.687-0.352
		c0.367,0,0.644,0.036,0.885,0.088l-0.592-0.673c-0.098-0.005-0.183-0.016-0.293-0.016
		C128.898,44.233,128.411,44.436,127.941,44.632z"/>
	<path class="st4" d="M127.941,46.134c-0.435,0.181-0.846,0.352-1.687,0.352c-0.841,0-1.252-0.171-1.687-0.352
		c-0.47-0.196-0.957-0.399-1.918-0.399c-0.292,0-0.53,0.023-0.747,0.054v0.61c0.212-0.037,0.446-0.064,0.747-0.064
		c0.841,0,1.252,0.171,1.687,0.352c0.47,0.196,0.957,0.399,1.918,0.399c0.961,0,1.448-0.203,1.918-0.399
		c0.435-0.181,0.846-0.352,1.687-0.352c0.616,0,1,0.093,1.333,0.213V45.92c-0.339-0.105-0.742-0.185-1.333-0.185
		C128.898,45.736,128.411,45.938,127.941,46.134z"/>
	<path class="st4" d="M127.941,47.636c-0.435,0.181-0.846,0.352-1.687,0.352c-0.841,0-1.252-0.171-1.687-0.352
		c-0.47-0.196-0.957-0.399-1.918-0.399c-0.292,0-0.53,0.023-0.747,0.054v0.61c0.212-0.037,0.446-0.064,0.747-0.064
		c0.841,0,1.252,0.171,1.687,0.352c0.47,0.196,0.957,0.399,1.918,0.399c0.961,0,1.448-0.203,1.918-0.399
		c0.435-0.181,0.846-0.352,1.687-0.352c0.616,0,1,0.093,1.333,0.213v-0.629c-0.339-0.105-0.742-0.185-1.333-0.185
		C128.898,47.238,128.411,47.44,127.941,47.636z"/>
	<path class="st4" d="M127.941,49.139c-0.435,0.181-0.846,0.352-1.687,0.352c-0.841,0-1.252-0.171-1.687-0.352
		c-0.47-0.196-0.957-0.399-1.918-0.399c-0.292,0-0.53,0.023-0.747,0.054v0.118v0.493c0.212-0.037,0.446-0.064,0.747-0.064
		c0.841,0,1.252,0.171,1.687,0.352c0.47,0.196,0.957,0.399,1.918,0.399c0.961,0,1.448-0.203,1.918-0.399
		c0.435-0.181,0.846-0.352,1.687-0.352c0.616,0,1,0.093,1.333,0.213v-0.629c-0.339-0.105-0.742-0.185-1.333-0.185
		C128.898,48.74,128.411,48.943,127.941,49.139z"/>
	<path class="st4" d="M127.941,50.641c-0.435,0.181-0.846,0.352-1.687,0.352c-0.841,0-1.252-0.171-1.687-0.352
		c-0.47-0.196-0.957-0.399-1.918-0.399c-0.292,0-0.53,0.023-0.747,0.054v0.61c0.212-0.037,0.446-0.064,0.747-0.064
		c0.841,0,1.252,0.171,1.687,0.352c0.47,0.196,0.957,0.399,1.918,0.399c0.961,0,1.448-0.203,1.918-0.399
		c0.435-0.181,0.846-0.352,1.687-0.352c0.616,0,1,0.093,1.333,0.213v-0.629c-0.339-0.105-0.742-0.185-1.333-0.185
		C128.898,50.242,128.411,50.445,127.941,50.641z"/>
	<path class="st4" d="M127.941,52.143c-0.435,0.181-0.846,0.352-1.687,0.352c-0.841,0-1.252-0.171-1.687-0.352
		c-0.47-0.196-0.957-0.399-1.918-0.399c-0.292,0-0.53,0.023-0.747,0.054v0.447l0.124,0.141c0.182-0.024,0.381-0.041,0.623-0.041
		c0.841,0,1.252,0.171,1.687,0.352c0.47,0.196,0.957,0.399,1.918,0.399c0.961,0,1.448-0.203,1.918-0.399
		c0.435-0.181,0.846-0.352,1.687-0.352c0.491,0,0.829,0.061,1.117,0.146l0.216-0.246v-0.316c-0.339-0.105-0.742-0.185-1.333-0.185
		C128.898,51.744,128.411,51.947,127.941,52.143z"/>
	<path class="st4" d="M127.941,53.645c-0.435,0.181-0.846,0.352-1.687,0.352c-0.841,0-1.252-0.171-1.687-0.352
		c-0.445-0.185-0.918-0.371-1.779-0.391l0.572,0.65c0.399,0.064,0.688,0.175,0.976,0.295c0.47,0.196,0.957,0.399,1.918,0.399
		c0.961,0,1.448-0.203,1.918-0.399c0.42-0.175,0.826-0.337,1.609-0.348l0.511-0.582c-0.138-0.011-0.27-0.023-0.433-0.023
		C128.898,53.247,128.411,53.449,127.941,53.645z"/>
	<path class="st4" d="M128.776,54.995l0.137-0.156c-0.218,0.043-0.416,0.095-0.586,0.156H128.776z"/>
	<polygon class="st1" points="25.575,48.813 25.575,52.146 23.158,54.896 21.075,54.896 20.784,54.896 18.701,54.896 16.284,52.146 
		16.284,48.813 16.284,48.667 16.284,45.334 18.701,42.584 20.784,42.584 21.075,42.584 23.158,42.584 25.575,45.334 25.575,48.667 
			"/>
	<path class="st3" d="M22.521,48.191c-0.47,0.196-0.957,0.399-1.918,0.399c-0.961,0-1.448-0.203-1.918-0.399
		c-0.435-0.181-0.846-0.352-1.687-0.352c-0.301,0-0.536,0.027-0.747,0.064v0.864v0.028c0.217-0.031,0.455-0.054,0.747-0.054
		c0.961,0,1.448,0.203,1.918,0.399c0.435,0.181,0.846,0.352,1.687,0.352c0.841,0,1.252-0.171,1.687-0.352
		c0.47-0.196,0.957-0.399,1.918-0.399c0.591,0,0.994,0.08,1.333,0.185v-0.013v-0.146v-0.714c-0.333-0.12-0.717-0.213-1.333-0.213
		C23.367,47.839,22.956,48.01,22.521,48.191z"/>
	<path class="st3" d="M22.521,45.187c-0.47,0.196-0.957,0.399-1.918,0.399c-0.961,0-1.448-0.203-1.918-0.399
		c-0.435-0.181-0.846-0.352-1.687-0.352c-0.088,0-0.153,0.009-0.232,0.012l-0.515,0.586v0.357c0.217-0.031,0.455-0.054,0.747-0.054
		c0.961,0,1.448,0.203,1.918,0.399c0.435,0.181,0.846,0.352,1.687,0.352c0.841,0,1.252-0.171,1.687-0.352
		c0.47-0.196,0.957-0.399,1.918-0.399c0.591,0,0.994,0.08,1.333,0.185v-0.487l-0.449-0.51c-0.241-0.052-0.517-0.088-0.885-0.088
		C23.367,44.834,22.956,45.005,22.521,45.187z"/>
	<path class="st3" d="M20.603,44.083c-0.961,0-1.448-0.203-1.918-0.399c-0.216-0.09-0.426-0.177-0.685-0.242l-0.709,0.807
		c0.76,0.039,1.209,0.209,1.625,0.383c0.435,0.181,0.846,0.352,1.687,0.352c0.841,0,1.252-0.171,1.687-0.352
		c0.47-0.196,0.957-0.399,1.918-0.399c0.11,0,0.195,0.011,0.293,0.016l-0.783-0.891c-0.526,0.053-0.857,0.185-1.197,0.326
		C22.051,43.88,21.565,44.083,20.603,44.083z"/>
	<path class="st3" d="M22.521,46.689c-0.47,0.196-0.957,0.399-1.918,0.399c-0.961,0-1.448-0.203-1.918-0.399
		c-0.435-0.181-0.846-0.352-1.687-0.352c-0.301,0-0.536,0.027-0.747,0.064v0.892c0.217-0.032,0.455-0.054,0.747-0.054
		c0.961,0,1.448,0.203,1.918,0.399c0.435,0.181,0.846,0.352,1.687,0.352c0.841,0,1.252-0.171,1.687-0.352
		c0.47-0.196,0.957-0.399,1.918-0.399c0.591,0,0.994,0.08,1.333,0.185V46.55c-0.333-0.12-0.717-0.213-1.333-0.213
		C23.367,46.336,22.956,46.508,22.521,46.689z"/>
	<path class="st3" d="M20.603,43.482c0.841,0,1.252-0.171,1.687-0.352c0.278-0.116,0.574-0.229,0.958-0.306l-0.124-0.141h-2.083
		h-0.291h-2.083l-0.233,0.265c0.17,0.057,0.33,0.119,0.482,0.182C19.351,43.311,19.762,43.482,20.603,43.482z"/>
	<path class="st3" d="M22.521,52.698c-0.47,0.196-0.957,0.399-1.918,0.399c-0.961,0-1.448-0.203-1.918-0.399
		c-0.435-0.181-0.846-0.352-1.687-0.352c-0.242,0-0.442,0.017-0.623,0.041l0.762,0.867c0.861,0.02,1.334,0.206,1.779,0.391
		c0.435,0.181,0.846,0.352,1.687,0.352c0.841,0,1.252-0.171,1.687-0.352c0.47-0.196,0.957-0.399,1.918-0.399
		c0.163,0,0.295,0.013,0.433,0.023l0.684-0.779c-0.288-0.085-0.626-0.146-1.117-0.146C23.367,52.345,22.956,52.517,22.521,52.698z"
		/>
	<path class="st3" d="M22.521,51.196c-0.47,0.196-0.957,0.399-1.918,0.399c-0.961,0-1.448-0.203-1.918-0.399
		c-0.435-0.181-0.846-0.352-1.687-0.352c-0.301,0-0.536,0.027-0.747,0.064v0.892c0.217-0.031,0.455-0.054,0.747-0.054
		c0.961,0,1.448,0.203,1.918,0.399c0.435,0.181,0.846,0.352,1.687,0.352c0.841,0,1.252-0.171,1.687-0.352
		c0.47-0.196,0.957-0.399,1.918-0.399c0.591,0,0.994,0.08,1.333,0.185v-0.873c-0.333-0.12-0.717-0.213-1.333-0.213
		C23.367,50.843,22.956,51.014,22.521,51.196z"/>
	<path class="st3" d="M22.521,49.693c-0.47,0.196-0.957,0.399-1.918,0.399c-0.961,0-1.448-0.203-1.918-0.399
		c-0.435-0.181-0.846-0.352-1.687-0.352c-0.301,0-0.536,0.027-0.747,0.064v0.892c0.217-0.032,0.455-0.054,0.747-0.054
		c0.961,0,1.448,0.203,1.918,0.399c0.435,0.181,0.846,0.352,1.687,0.352c0.841,0,1.252-0.171,1.687-0.352
		c0.47-0.196,0.957-0.399,1.918-0.399c0.591,0,0.994,0.08,1.333,0.185v-0.873c-0.333-0.12-0.717-0.213-1.333-0.213
		C23.367,49.341,22.956,49.512,22.521,49.693z"/>
	<path class="st3" d="M20.603,54.599c-0.961,0-1.448-0.203-1.918-0.399c-0.288-0.12-0.577-0.231-0.976-0.295l0.959,1.091h2.083
		h0.291h1.635c0.171-0.062,0.368-0.113,0.586-0.156l0.868-0.987c-0.783,0.011-1.189,0.173-1.609,0.348
		C22.051,54.396,21.565,54.599,20.603,54.599z"/>
	<path class="st4" d="M22.29,43.13c-0.435,0.181-0.846,0.352-1.687,0.352c-0.841,0-1.252-0.171-1.687-0.352
		c-0.151-0.063-0.312-0.124-0.482-0.182L18,43.442c0.259,0.065,0.469,0.152,0.685,0.242c0.47,0.196,0.957,0.399,1.918,0.399
		c0.961,0,1.448-0.203,1.918-0.399c0.339-0.141,0.671-0.274,1.197-0.326l-0.47-0.534C22.865,42.901,22.568,43.014,22.29,43.13z"/>
	<path class="st4" d="M22.29,44.632c-0.435,0.181-0.846,0.352-1.687,0.352c-0.841,0-1.252-0.171-1.687-0.352
		c-0.416-0.174-0.865-0.344-1.625-0.383l-0.525,0.597c0.079-0.004,0.144-0.012,0.232-0.012c0.841,0,1.252,0.171,1.687,0.352
		c0.47,0.196,0.957,0.399,1.918,0.399c0.961,0,1.448-0.203,1.918-0.399c0.435-0.181,0.846-0.352,1.687-0.352
		c0.367,0,0.644,0.036,0.885,0.088l-0.592-0.673c-0.098-0.005-0.183-0.016-0.293-0.016C23.247,44.233,22.761,44.436,22.29,44.632z"
		/>
	<path class="st4" d="M22.29,46.134c-0.435,0.181-0.846,0.352-1.687,0.352c-0.841,0-1.252-0.171-1.687-0.352
		c-0.47-0.196-0.957-0.399-1.918-0.399c-0.292,0-0.53,0.023-0.747,0.054v0.61c0.212-0.037,0.446-0.064,0.747-0.064
		c0.841,0,1.252,0.171,1.687,0.352c0.47,0.196,0.957,0.399,1.918,0.399c0.961,0,1.448-0.203,1.918-0.399
		c0.435-0.181,0.846-0.352,1.687-0.352c0.616,0,1,0.093,1.333,0.213V45.92c-0.339-0.105-0.742-0.185-1.333-0.185
		C23.247,45.736,22.761,45.938,22.29,46.134z"/>
	<path class="st4" d="M22.29,47.636c-0.435,0.181-0.846,0.352-1.687,0.352c-0.841,0-1.252-0.171-1.687-0.352
		c-0.47-0.196-0.957-0.399-1.918-0.399c-0.292,0-0.53,0.023-0.747,0.054v0.61c0.212-0.037,0.446-0.064,0.747-0.064
		c0.841,0,1.252,0.171,1.687,0.352c0.47,0.196,0.957,0.399,1.918,0.399c0.961,0,1.448-0.203,1.918-0.399
		c0.435-0.181,0.846-0.352,1.687-0.352c0.616,0,1,0.093,1.333,0.213v-0.629c-0.339-0.105-0.742-0.185-1.333-0.185
		C23.247,47.238,22.761,47.44,22.29,47.636z"/>
	<path class="st4" d="M22.29,49.139c-0.435,0.181-0.846,0.352-1.687,0.352c-0.841,0-1.252-0.171-1.687-0.352
		c-0.47-0.196-0.957-0.399-1.918-0.399c-0.292,0-0.53,0.023-0.747,0.054v0.118v0.493c0.212-0.037,0.446-0.064,0.747-0.064
		c0.841,0,1.252,0.171,1.687,0.352c0.47,0.196,0.957,0.399,1.918,0.399c0.961,0,1.448-0.203,1.918-0.399
		c0.435-0.181,0.846-0.352,1.687-0.352c0.616,0,1,0.093,1.333,0.213v-0.629c-0.339-0.105-0.742-0.185-1.333-0.185
		C23.247,48.74,22.761,48.943,22.29,49.139z"/>
	<path class="st4" d="M22.29,50.641c-0.435,0.181-0.846,0.352-1.687,0.352c-0.841,0-1.252-0.171-1.687-0.352
		c-0.47-0.196-0.957-0.399-1.918-0.399c-0.292,0-0.53,0.023-0.747,0.054v0.61c0.212-0.037,0.446-0.064,0.747-0.064
		c0.841,0,1.252,0.171,1.687,0.352c0.47,0.196,0.957,0.399,1.918,0.399c0.961,0,1.448-0.203,1.918-0.399
		c0.435-0.181,0.846-0.352,1.687-0.352c0.616,0,1,0.093,1.333,0.213v-0.629c-0.339-0.105-0.742-0.185-1.333-0.185
		C23.247,50.242,22.761,50.445,22.29,50.641z"/>
	<path class="st4" d="M22.29,52.143c-0.435,0.181-0.846,0.352-1.687,0.352c-0.841,0-1.252-0.171-1.687-0.352
		c-0.47-0.196-0.957-0.399-1.918-0.399c-0.292,0-0.53,0.023-0.747,0.054v0.447l0.124,0.141c0.182-0.024,0.381-0.041,0.623-0.041
		c0.841,0,1.252,0.171,1.687,0.352c0.47,0.196,0.957,0.399,1.918,0.399c0.961,0,1.448-0.203,1.918-0.399
		c0.435-0.181,0.846-0.352,1.687-0.352c0.491,0,0.829,0.061,1.117,0.146l0.216-0.246v-0.316c-0.339-0.105-0.742-0.185-1.333-0.185
		C23.247,51.744,22.761,51.947,22.29,52.143z"/>
	<path class="st4" d="M22.29,53.645c-0.435,0.181-0.846,0.352-1.687,0.352c-0.841,0-1.252-0.171-1.687-0.352
		c-0.445-0.185-0.918-0.371-1.779-0.391l0.572,0.65c0.399,0.064,0.688,0.175,0.976,0.295c0.47,0.196,0.957,0.399,1.918,0.399
		c0.961,0,1.448-0.203,1.918-0.399c0.42-0.175,0.826-0.337,1.609-0.348l0.511-0.582c-0.138-0.011-0.27-0.023-0.433-0.023
		C23.247,53.247,22.761,53.449,22.29,53.645z"/>
	<path class="st4" d="M23.125,54.995l0.137-0.156c-0.218,0.043-0.416,0.095-0.586,0.156H23.125z"/>
	<polygon class="st1" points="25.558,205.065 25.558,208.398 23.142,211.148 21.058,211.148 20.768,211.148 18.684,211.148 
		16.268,208.398 16.268,205.065 16.268,204.919 16.268,201.585 18.684,198.835 20.768,198.835 21.058,198.835 23.142,198.835 
		25.558,201.585 25.558,204.919 	"/>
	<path class="st3" d="M22.505,204.443c-0.47,0.196-0.957,0.399-1.918,0.399c-0.961,0-1.448-0.203-1.918-0.399
		c-0.435-0.181-0.846-0.352-1.687-0.352c-0.301,0-0.536,0.027-0.747,0.064v0.864v0.028c0.217-0.031,0.455-0.054,0.747-0.054
		c0.961,0,1.448,0.203,1.918,0.399c0.435,0.181,0.846,0.352,1.687,0.352c0.841,0,1.252-0.171,1.687-0.352
		c0.47-0.196,0.957-0.399,1.918-0.399c0.591,0,0.994,0.08,1.333,0.185v-0.013v-0.146v-0.714c-0.333-0.12-0.717-0.213-1.333-0.213
		C23.351,204.09,22.94,204.261,22.505,204.443z"/>
	<path class="st3" d="M22.505,201.438c-0.47,0.196-0.957,0.399-1.918,0.399c-0.961,0-1.448-0.203-1.918-0.399
		c-0.435-0.181-0.846-0.352-1.687-0.352c-0.088,0-0.153,0.009-0.232,0.012l-0.515,0.586v0.357c0.217-0.031,0.455-0.054,0.747-0.054
		c0.961,0,1.448,0.203,1.918,0.399c0.435,0.181,0.846,0.352,1.687,0.352c0.841,0,1.252-0.171,1.687-0.352
		c0.47-0.196,0.957-0.399,1.918-0.399c0.591,0,0.994,0.08,1.333,0.185v-0.487l-0.449-0.51c-0.241-0.052-0.517-0.088-0.885-0.088
		C23.351,201.086,22.94,201.257,22.505,201.438z"/>
	<path class="st3" d="M20.587,200.335c-0.961,0-1.448-0.203-1.918-0.399c-0.216-0.09-0.426-0.177-0.685-0.242l-0.709,0.807
		c0.76,0.039,1.209,0.209,1.625,0.383c0.435,0.181,0.846,0.352,1.687,0.352c0.841,0,1.252-0.171,1.687-0.352
		c0.47-0.196,0.957-0.399,1.918-0.399c0.11,0,0.195,0.011,0.293,0.016l-0.783-0.891c-0.526,0.053-0.857,0.185-1.197,0.326
		C22.034,200.132,21.548,200.335,20.587,200.335z"/>
	<path class="st3" d="M22.505,202.94c-0.47,0.196-0.957,0.399-1.918,0.399c-0.961,0-1.448-0.203-1.918-0.399
		c-0.435-0.181-0.846-0.352-1.687-0.352c-0.301,0-0.536,0.027-0.747,0.064v0.892c0.217-0.032,0.455-0.054,0.747-0.054
		c0.961,0,1.448,0.203,1.918,0.399c0.435,0.181,0.846,0.352,1.687,0.352c0.841,0,1.252-0.171,1.687-0.352
		c0.47-0.196,0.957-0.399,1.918-0.399c0.591,0,0.994,0.08,1.333,0.185v-0.873c-0.333-0.12-0.717-0.213-1.333-0.213
		C23.351,202.588,22.94,202.759,22.505,202.94z"/>
	<path class="st3" d="M20.587,199.734c0.841,0,1.252-0.171,1.687-0.352c0.278-0.116,0.574-0.229,0.958-0.306l-0.124-0.141h-2.083
		h-0.291h-2.083l-0.233,0.265c0.17,0.057,0.33,0.119,0.482,0.182C19.335,199.563,19.745,199.734,20.587,199.734z"/>
	<path class="st3" d="M22.505,208.949c-0.47,0.196-0.957,0.399-1.918,0.399c-0.961,0-1.448-0.203-1.918-0.399
		c-0.435-0.181-0.846-0.352-1.687-0.352c-0.242,0-0.442,0.017-0.623,0.041l0.762,0.867c0.861,0.02,1.334,0.206,1.779,0.391
		c0.435,0.181,0.846,0.352,1.687,0.352c0.841,0,1.252-0.171,1.687-0.352c0.47-0.196,0.957-0.399,1.918-0.399
		c0.163,0,0.295,0.013,0.433,0.023l0.684-0.779c-0.288-0.085-0.626-0.146-1.117-0.146C23.351,208.597,22.94,208.768,22.505,208.949z
		"/>
	<path class="st3" d="M22.505,207.447c-0.47,0.196-0.957,0.399-1.918,0.399c-0.961,0-1.448-0.203-1.918-0.399
		c-0.435-0.181-0.846-0.352-1.687-0.352c-0.301,0-0.536,0.027-0.747,0.064v0.892c0.217-0.031,0.455-0.054,0.747-0.054
		c0.961,0,1.448,0.203,1.918,0.399c0.435,0.181,0.846,0.352,1.687,0.352c0.841,0,1.252-0.171,1.687-0.352
		c0.47-0.196,0.957-0.399,1.918-0.399c0.591,0,0.994,0.08,1.333,0.185v-0.873c-0.333-0.12-0.717-0.213-1.333-0.213
		C23.351,207.095,22.94,207.266,22.505,207.447z"/>
	<path class="st3" d="M22.505,205.945c-0.47,0.196-0.957,0.399-1.918,0.399c-0.961,0-1.448-0.203-1.918-0.399
		c-0.435-0.181-0.846-0.352-1.687-0.352c-0.301,0-0.536,0.027-0.747,0.064v0.892c0.217-0.032,0.455-0.054,0.747-0.054
		c0.961,0,1.448,0.203,1.918,0.399c0.435,0.181,0.846,0.352,1.687,0.352c0.841,0,1.252-0.171,1.687-0.352
		c0.47-0.196,0.957-0.399,1.918-0.399c0.591,0,0.994,0.08,1.333,0.185v-0.873c-0.333-0.12-0.717-0.213-1.333-0.213
		C23.351,205.593,22.94,205.764,22.505,205.945z"/>
	<path class="st3" d="M20.587,210.85c-0.961,0-1.448-0.203-1.918-0.399c-0.288-0.12-0.577-0.231-0.976-0.295l0.959,1.091h2.083
		h0.291h1.635c0.171-0.062,0.368-0.113,0.586-0.156l0.868-0.987c-0.783,0.011-1.189,0.173-1.609,0.348
		C22.034,210.648,21.548,210.85,20.587,210.85z"/>
	<path class="st4" d="M22.274,199.381c-0.435,0.181-0.846,0.352-1.687,0.352c-0.841,0-1.252-0.171-1.687-0.352
		c-0.151-0.063-0.312-0.124-0.482-0.182l-0.434,0.494c0.259,0.065,0.469,0.152,0.685,0.242c0.47,0.196,0.957,0.399,1.918,0.399
		c0.961,0,1.448-0.203,1.918-0.399c0.339-0.141,0.671-0.274,1.197-0.326l-0.47-0.534C22.848,199.153,22.552,199.265,22.274,199.381z
		"/>
	<path class="st4" d="M22.274,200.884c-0.435,0.181-0.846,0.352-1.687,0.352c-0.841,0-1.252-0.171-1.687-0.352
		c-0.416-0.174-0.865-0.344-1.625-0.383l-0.525,0.597c0.079-0.004,0.144-0.012,0.232-0.012c0.841,0,1.252,0.171,1.687,0.352
		c0.47,0.196,0.957,0.399,1.918,0.399c0.961,0,1.448-0.203,1.918-0.399c0.435-0.181,0.846-0.352,1.687-0.352
		c0.367,0,0.644,0.036,0.885,0.088l-0.592-0.673c-0.098-0.005-0.183-0.016-0.293-0.016C23.23,200.485,22.744,200.688,22.274,200.884
		z"/>
	<path class="st4" d="M22.274,202.386c-0.435,0.181-0.846,0.352-1.687,0.352c-0.841,0-1.252-0.171-1.687-0.352
		c-0.47-0.196-0.957-0.399-1.918-0.399c-0.292,0-0.53,0.023-0.747,0.054v0.61c0.212-0.037,0.446-0.064,0.747-0.064
		c0.841,0,1.252,0.171,1.687,0.352c0.47,0.196,0.957,0.399,1.918,0.399c0.961,0,1.448-0.203,1.918-0.399
		c0.435-0.181,0.846-0.352,1.687-0.352c0.616,0,1,0.093,1.333,0.213v-0.629c-0.339-0.105-0.742-0.185-1.333-0.185
		C23.23,201.987,22.744,202.19,22.274,202.386z"/>
	<path class="st4" d="M22.274,203.888c-0.435,0.181-0.846,0.352-1.687,0.352c-0.841,0-1.252-0.171-1.687-0.352
		c-0.47-0.196-0.957-0.399-1.918-0.399c-0.292,0-0.53,0.023-0.747,0.054v0.61c0.212-0.037,0.446-0.064,0.747-0.064
		c0.841,0,1.252,0.171,1.687,0.352c0.47,0.196,0.957,0.399,1.918,0.399c0.961,0,1.448-0.203,1.918-0.399
		c0.435-0.181,0.846-0.352,1.687-0.352c0.616,0,1,0.093,1.333,0.213v-0.629c-0.339-0.105-0.742-0.185-1.333-0.185
		C23.23,203.489,22.744,203.692,22.274,203.888z"/>
	<path class="st4" d="M22.274,205.39c-0.435,0.181-0.846,0.352-1.687,0.352c-0.841,0-1.252-0.171-1.687-0.352
		c-0.47-0.196-0.957-0.399-1.918-0.399c-0.292,0-0.53,0.023-0.747,0.054v0.118v0.493c0.212-0.037,0.446-0.064,0.747-0.064
		c0.841,0,1.252,0.171,1.687,0.352c0.47,0.196,0.957,0.399,1.918,0.399c0.961,0,1.448-0.203,1.918-0.399
		c0.435-0.181,0.846-0.352,1.687-0.352c0.616,0,1,0.093,1.333,0.213v-0.629c-0.339-0.105-0.742-0.185-1.333-0.185
		C23.23,204.992,22.744,205.194,22.274,205.39z"/>
	<path class="st4" d="M22.274,206.893c-0.435,0.181-0.846,0.352-1.687,0.352c-0.841,0-1.252-0.171-1.687-0.352
		c-0.47-0.196-0.957-0.399-1.918-0.399c-0.292,0-0.53,0.023-0.747,0.054v0.61c0.212-0.037,0.446-0.064,0.747-0.064
		c0.841,0,1.252,0.171,1.687,0.352c0.47,0.196,0.957,0.399,1.918,0.399c0.961,0,1.448-0.203,1.918-0.399
		c0.435-0.181,0.846-0.352,1.687-0.352c0.616,0,1,0.093,1.333,0.213v-0.629c-0.339-0.105-0.742-0.185-1.333-0.185
		C23.23,206.494,22.744,206.697,22.274,206.893z"/>
	<path class="st4" d="M22.274,208.395c-0.435,0.181-0.846,0.352-1.687,0.352c-0.841,0-1.252-0.171-1.687-0.352
		c-0.47-0.196-0.957-0.399-1.918-0.399c-0.292,0-0.53,0.023-0.747,0.054v0.447l0.124,0.141c0.182-0.024,0.381-0.041,0.623-0.041
		c0.841,0,1.252,0.171,1.687,0.352c0.47,0.196,0.957,0.399,1.918,0.399c0.961,0,1.448-0.203,1.918-0.399
		c0.435-0.181,0.846-0.352,1.687-0.352c0.491,0,0.829,0.061,1.117,0.146l0.216-0.246v-0.316c-0.339-0.105-0.742-0.185-1.333-0.185
		C23.23,207.996,22.744,208.199,22.274,208.395z"/>
	<path class="st4" d="M22.274,209.897c-0.435,0.181-0.846,0.352-1.687,0.352c-0.841,0-1.252-0.171-1.687-0.352
		c-0.445-0.185-0.918-0.371-1.779-0.391l0.572,0.65c0.399,0.064,0.688,0.175,0.976,0.295c0.47,0.196,0.957,0.399,1.918,0.399
		c0.961,0,1.448-0.203,1.918-0.399c0.42-0.175,0.826-0.337,1.609-0.348l0.511-0.582c-0.138-0.011-0.27-0.023-0.433-0.023
		C23.23,209.498,22.744,209.701,22.274,209.897z"/>
	<path class="st4" d="M23.108,211.247l0.137-0.156c-0.218,0.043-0.416,0.095-0.586,0.156H23.108z"/>
	<path class="st5" d="M31.594,495.962c4.06-3.5,13.567-11.697,11.426-25.922c-0.854-5.672-4.19-10.682-9.155-13.743
		c-5.429-3.35-12.228-3.949-19.144-1.688c-12.397,4.052-13.112,18.137-13.064,22.068h7.004c-0.03-2.451,0.32-12.827,8.235-15.414
		c6.313-2.065,10.714-0.6,13.294,0.991c3.161,1.95,5.369,5.25,5.908,8.827c1.364,9.059-3.457,14.706-8.92,19.442
		c1.391,1.725,2.799,3.589,4.231,5.598L31.594,495.962z"/>
	<path class="st5" d="M39.561,508.733l0.011-0.007c-0.043-0.071-0.087-0.142-0.13-0.213c-0.043-0.075-0.076-0.148-0.12-0.223
		l-0.011,0.007c-2.639-4.35-5.481-8.782-7.902-12.177c-1.432-2.008-2.84-3.872-4.231-5.598c-2.229-2.764-4.421-5.186-6.616-7.317
		l-4.875,5.023c2.053,1.992,4.113,4.278,6.223,6.908c1.383,1.725,2.788,3.602,4.224,5.64c2.269,3.22,4.62,6.849,7.1,10.954
		c4.01,6.623,1.692,12.161-1.518,14.894c-3.486,2.968-9.356,3.957-14.609-0.528c-2.345-2.002-3.487-4.156-3.493-6.588
		c-0.013-6.102,6.765-13.418,12.521-18.732c-1.437-2.039-2.842-3.916-4.224-5.64c-7.085,6.423-15.315,15.229-15.296,24.387
		c0.01,4.533,2.011,8.536,5.948,11.897c3.688,3.148,8.066,4.731,12.374,4.731c4.043-0.001,8.026-1.395,11.318-4.197
		C41.852,527.19,44.942,518.22,39.561,508.733z"/>
	<path class="st6" d="M31.086,496.399l0.508-0.437c-1.432-2.008-2.754-3.94-4.146-5.665c-0.052,0.045,0.052-0.045,0,0l-0.928,0.797
		c-1.399,1.204-3.221,2.785-4.857,4.268c1.383,1.725,2.772,3.619,4.209,5.658C27.712,499.321,29.711,497.583,31.086,496.399z"/>
	<path class="st5" d="M21.909,495.138l5.269-4.615c0,0,0.538-0.431,1.424-1.274"/>
	<path class="st5" d="M25.044,501.798c0,0,0.487-0.467,1.09-1.02c0.603-0.553,5.276-4.658,5.276-4.658s1.3-1.071,2.35-2.082"/>
	<path class="st7" d="M98.162,61.118h-0.688v-0.927h2.352v0.927h-0.688v4.669h-0.975V61.118z M100.234,60.191h0.976v2.318h0.848
		v-2.318h0.976v5.597h-0.976v-2.351h-0.848v2.351h-0.976V60.191z M103.611,60.191h2.143v0.927h-1.168v1.391h1.032v0.928h-1.032
		v1.423h1.191v0.928h-2.166V60.191z M107.522,60.191h0.976v2.318h0.848v-2.318h0.976v5.597h-0.976v-2.351h-0.848v2.351h-0.976
		V60.191z M111.682,60.175h1.039l1.063,5.613h-0.976l-0.184-1.111h-0.888l-0.176,1.111h-0.943L111.682,60.175z M112.481,63.797
		l-0.296-1.847l-0.304,1.847H112.481z M113.722,60.191h0.991l0.528,3.646l0.527-3.646h0.96l-1,5.613h-1.007L113.722,60.191z
		 M117.026,60.191h2.144v0.927h-1.168v1.391h1.031v0.928h-1.031v1.423h1.191v0.928h-2.167V60.191z M119.665,60.191h0.912l0.983,2.83
		v-2.83h0.951v5.597h-0.863l-1.031-2.966v2.966h-0.952V60.191z M97.283,71.085v-0.192c0-1.967,0.728-2.742,1.639-2.742
		c0.271,0,0.432,0.032,0.64,0.128v1.007c-0.2-0.12-0.359-0.184-0.544-0.184c-0.432,0-0.743,0.384-0.743,1.783v0.208
		c0,1.479,0.312,1.783,0.76,1.783c0.151,0,0.344-0.056,0.544-0.176v0.959c-0.225,0.128-0.44,0.168-0.72,0.168
		C97.962,73.827,97.283,73.036,97.283,71.085z M99.77,71.133v-0.288c0-1.847,0.601-2.734,1.487-2.734
		c0.888,0,1.487,0.887,1.487,2.734v0.288c0,1.847-0.6,2.734-1.487,2.734C100.37,73.867,99.77,72.98,99.77,71.133z M101.753,71.133
		v-0.288c0-1.439-0.2-1.839-0.496-1.839s-0.495,0.399-0.495,1.839v0.288c0,1.439,0.199,1.839,0.495,1.839
		S101.753,72.572,101.753,71.133z M103.21,72.156v-3.966h0.968v4.062c0,0.504,0.176,0.704,0.424,0.704
		c0.247,0,0.423-0.2,0.423-0.704v-4.062h0.968v3.966c0,1.175-0.592,1.703-1.391,1.703C103.802,73.859,103.21,73.332,103.21,72.156z
		 M106.554,68.191h1.008c0.999,0,1.727,0.527,1.727,1.783v0.072c0,0.728-0.288,1.191-0.655,1.472l0.751,2.271h-1.039l-0.632-1.951
		h-0.184v1.951h-0.976V68.191z M107.577,70.957c0.424,0,0.735-0.248,0.735-0.903v-0.064c0-0.704-0.336-0.888-0.759-0.888h-0.024
		v1.855H107.577z M110.178,69.118h-0.688v-0.927h2.351v0.927h-0.688v4.669h-0.976V69.118z M112.921,71.58l-1.039-3.39h1.008
		l0.527,2.095l0.536-2.095h0.983l-1.04,3.39v2.207h-0.976V71.58z M115.69,68.175h1.039l1.063,5.613h-0.976l-0.184-1.111h-0.888
		l-0.176,1.111h-0.943L115.69,68.175z M116.49,71.797l-0.296-1.847l-0.304,1.847H116.49z M118.09,68.191h1.007
		c1,0,1.728,0.527,1.728,1.783v0.072c0,0.728-0.288,1.191-0.655,1.472l0.751,2.271h-1.039l-0.632-1.951h-0.184v1.951h-0.976V68.191z
		 M119.114,70.957c0.424,0,0.735-0.248,0.735-0.903v-0.064c0-0.704-0.336-0.888-0.76-0.888h-0.023v1.855H119.114z M121.274,68.191
		h0.912c1.247,0,1.958,0.903,1.958,2.702v0.192c0,1.799-0.711,2.703-1.958,2.703h-0.912V68.191z M122.289,72.892
		c0.464,0,0.863-0.408,0.863-1.807v-0.192c0-1.399-0.399-1.807-0.863-1.807h-0.04v3.806H122.289z M99.659,81.595V80.58
		c0.344,0.2,0.615,0.312,0.879,0.312c0.28,0,0.521-0.136,0.521-0.479v-0.016c0-0.256-0.08-0.448-0.544-0.976
		c-0.664-0.751-0.936-1.111-0.936-1.791v-0.016c0-0.896,0.584-1.463,1.359-1.463c0.392,0,0.623,0.056,0.863,0.176v1.016
		c-0.304-0.176-0.487-0.256-0.743-0.256c-0.272,0-0.504,0.176-0.504,0.479v0.016c0,0.264,0.08,0.36,0.543,0.896
		c0.768,0.887,0.936,1.231,0.936,1.871v0.016c0,0.879-0.615,1.463-1.383,1.463C100.266,81.827,99.938,81.731,99.659,81.595z
		 M102.363,80.156v-3.966h0.967v4.062c0,0.504,0.176,0.704,0.424,0.704s0.424-0.2,0.424-0.704v-4.062h0.968v3.966
		c0,1.175-0.592,1.703-1.392,1.703S102.363,81.332,102.363,80.156z M105.706,76.191h0.911l0.983,2.83v-2.83h0.951v5.597h-0.863
		l-1.031-2.966v2.966h-0.951V76.191z M110.402,76.191h0.912c1.247,0,1.959,0.903,1.959,2.702v0.192c0,1.799-0.712,2.703-1.959,2.703
		h-0.912V76.191z M111.417,80.892c0.464,0,0.863-0.408,0.863-1.807v-0.192c0-1.399-0.399-1.807-0.863-1.807h-0.04v3.806H111.417z
		 M113.754,76.191h2.143v0.927h-1.167v1.391h1.031v0.928h-1.031v1.423h1.191v0.928h-2.167V76.191z M116.218,79.085v-0.192
		c0-1.967,0.728-2.742,1.639-2.742c0.272,0,0.432,0.032,0.64,0.128v1.007c-0.199-0.12-0.359-0.184-0.544-0.184
		c-0.432,0-0.743,0.384-0.743,1.783v0.208c0,1.479,0.312,1.783,0.76,1.783c0.151,0,0.344-0.056,0.544-0.176v0.959
		c-0.225,0.128-0.44,0.168-0.72,0.168C116.898,81.827,116.218,81.036,116.218,79.085z M119.002,76.191h0.975v2.342l0.792-2.342
		h1.104l-0.943,2.366l0.959,3.23h-1.087l-0.608-2.119l-0.216,0.616v1.503h-0.975V76.191z"/>
	<path class="st7" d="M24.495,61.118h-0.688v-0.927h2.351v0.927h-0.688v4.669h-0.976V61.118z M26.568,60.191h0.976v2.318h0.848
		v-2.318h0.975v5.597h-0.975v-2.351h-0.848v2.351h-0.976V60.191z M29.944,60.191h2.143v0.927h-1.167v1.391h1.031v0.928h-1.031v1.423
		h1.191v0.928h-2.167V60.191z M33.856,60.191h0.975v2.318h0.848v-2.318h0.976v5.597h-0.976v-2.351h-0.848v2.351h-0.975V60.191z
		 M38.015,60.175h1.04l1.063,5.613h-0.976l-0.184-1.111h-0.887l-0.176,1.111h-0.944L38.015,60.175z M38.815,63.797l-0.296-1.847
		l-0.304,1.847H38.815z M40.056,60.191h0.992l0.528,3.646l0.527-3.646h0.959l-0.999,5.613h-1.008L40.056,60.191z M43.36,60.191
		h2.143v0.927h-1.167v1.391h1.032v0.928h-1.032v1.423h1.191v0.928H43.36V60.191z M45.999,60.191h0.912l0.983,2.83v-2.83h0.952v5.597
		h-0.864l-1.031-2.966v2.966h-0.952V60.191z M23.616,71.085v-0.192c0-1.967,0.728-2.742,1.639-2.742c0.272,0,0.432,0.032,0.64,0.128
		v1.007c-0.2-0.12-0.36-0.184-0.543-0.184c-0.432,0-0.744,0.384-0.744,1.783v0.208c0,1.479,0.312,1.783,0.759,1.783
		c0.152,0,0.344-0.056,0.544-0.176v0.959c-0.224,0.128-0.44,0.168-0.72,0.168C24.295,73.827,23.616,73.036,23.616,71.085z
		 M26.104,71.133v-0.288c0-1.847,0.6-2.734,1.487-2.734c0.887,0,1.487,0.887,1.487,2.734v0.288c0,1.847-0.6,2.734-1.487,2.734
		C26.703,73.867,26.104,72.98,26.104,71.133z M28.087,71.133v-0.288c0-1.439-0.2-1.839-0.496-1.839s-0.496,0.399-0.496,1.839v0.288
		c0,1.439,0.2,1.839,0.496,1.839S28.087,72.572,28.087,71.133z M29.544,72.156v-3.966h0.967v4.062c0,0.504,0.176,0.704,0.424,0.704
		s0.424-0.2,0.424-0.704v-4.062h0.967v3.966c0,1.175-0.591,1.703-1.391,1.703C30.136,73.859,29.544,73.332,29.544,72.156z
		 M32.888,68.191h1.007c1,0,1.727,0.527,1.727,1.783v0.072c0,0.728-0.288,1.191-0.655,1.472l0.751,2.271h-1.04l-0.631-1.951h-0.184
		v1.951h-0.976V68.191z M33.911,70.957c0.424,0,0.736-0.248,0.736-0.903v-0.064c0-0.704-0.336-0.888-0.76-0.888h-0.024v1.855H33.911
		z M36.511,69.118h-0.688v-0.927h2.351v0.927h-0.688v4.669h-0.976V69.118z M39.255,71.58l-1.04-3.39h1.007l0.528,2.095l0.536-2.095
		h0.983l-1.039,3.39v2.207h-0.976V71.58z M42.023,68.175h1.039l1.063,5.613h-0.975l-0.184-1.111h-0.888l-0.176,1.111H40.96
		L42.023,68.175z M42.823,71.797l-0.296-1.847l-0.304,1.847H42.823z M44.424,68.191h1.007c1,0,1.727,0.527,1.727,1.783v0.072
		c0,0.728-0.288,1.191-0.656,1.472l0.751,2.271h-1.039l-0.632-1.951h-0.184v1.951h-0.975V68.191z M45.447,70.957
		c0.423,0,0.735-0.248,0.735-0.903v-0.064c0-0.704-0.336-0.888-0.759-0.888h-0.024v1.855H45.447z M47.607,68.191h0.912
		c1.248,0,1.959,0.903,1.959,2.702v0.192c0,1.799-0.711,2.703-1.959,2.703h-0.912V68.191z M48.623,72.892
		c0.464,0,0.864-0.408,0.864-1.807v-0.192c0-1.399-0.4-1.807-0.864-1.807h-0.04v3.806H48.623z M25.992,81.595V80.58
		c0.344,0.2,0.616,0.312,0.88,0.312c0.28,0,0.52-0.136,0.52-0.479v-0.016c0-0.256-0.08-0.448-0.543-0.976
		c-0.664-0.751-0.936-1.111-0.936-1.791v-0.016c0-0.896,0.583-1.463,1.359-1.463c0.392,0,0.624,0.056,0.864,0.176v1.016
		c-0.304-0.176-0.488-0.256-0.744-0.256c-0.272,0-0.504,0.176-0.504,0.479v0.016c0,0.264,0.08,0.36,0.544,0.896
		c0.768,0.887,0.936,1.231,0.936,1.871v0.016c0,0.879-0.616,1.463-1.383,1.463C26.599,81.827,26.272,81.731,25.992,81.595z
		 M28.696,80.156v-3.966h0.968v4.062c0,0.504,0.176,0.704,0.423,0.704c0.248,0,0.424-0.2,0.424-0.704v-4.062h0.968v3.966
		c0,1.175-0.592,1.703-1.392,1.703C29.287,81.859,28.696,81.332,28.696,80.156z M32.039,76.191h0.912l0.983,2.83v-2.83h0.952v5.597
		h-0.864l-1.031-2.966v2.966h-0.952V76.191z M36.736,76.191h0.911c1.248,0,1.959,0.903,1.959,2.702v0.192
		c0,1.799-0.711,2.703-1.959,2.703h-0.911V76.191z M37.751,80.892c0.464,0,0.864-0.408,0.864-1.807v-0.192
		c0-1.399-0.4-1.807-0.864-1.807h-0.04v3.806H37.751z M40.087,76.191h2.143v0.927h-1.167v1.391h1.031v0.928h-1.031v1.423h1.191
		v0.928h-2.167V76.191z M42.552,79.085v-0.192c0-1.967,0.728-2.742,1.639-2.742c0.271,0,0.432,0.032,0.64,0.128v1.007
		c-0.2-0.12-0.36-0.184-0.544-0.184c-0.432,0-0.744,0.384-0.744,1.783v0.208c0,1.479,0.312,1.783,0.76,1.783
		c0.152,0,0.344-0.056,0.543-0.176v0.959c-0.224,0.128-0.439,0.168-0.72,0.168C43.231,81.827,42.552,81.036,42.552,79.085z
		 M45.335,76.191h0.976v2.342l0.792-2.342h1.104l-0.944,2.366l0.96,3.23h-1.088l-0.607-2.119l-0.216,0.616v1.503h-0.976V76.191z"/>
	<path class="st7" d="M27.371,46.273h0.975v2.318h0.848v-2.318h0.976v5.597h-0.976v-2.351h-0.848v2.351h-0.975V46.273z
		 M30.651,49.215v-0.288c0-1.847,0.6-2.734,1.487-2.734c0.887,0,1.487,0.887,1.487,2.734v0.288c0,1.847-0.6,2.734-1.487,2.734
		C31.251,51.949,30.651,51.062,30.651,49.215z M32.634,49.215v-0.288c0-1.439-0.2-1.839-0.496-1.839
		c-0.296,0-0.496,0.399-0.496,1.839v0.288c0,1.439,0.2,1.839,0.496,1.839C32.434,51.054,32.634,50.654,32.634,49.215z M34.467,47.2
		h-0.688v-0.927h2.351V47.2h-0.688v4.669h-0.975V47.2z M38.331,47.2h-0.688v-0.927h2.351V47.2h-0.688v4.669h-0.976V47.2z
		 M40.387,50.238v-3.966h0.967v4.062c0,0.504,0.176,0.704,0.424,0.704c0.248,0,0.424-0.2,0.424-0.704v-4.062h0.967v3.966
		c0,1.175-0.591,1.703-1.391,1.703C40.979,51.941,40.387,51.414,40.387,50.238z M43.731,46.273h0.848
		c0.943,0,1.823,0.384,1.823,1.423v0.04c0,0.72-0.408,1.071-0.808,1.263c0.472,0.208,0.879,0.536,0.879,1.248v0.072
		c0,0.992-0.768,1.551-1.855,1.551h-0.888V46.273z M44.722,48.623c0.432,0,0.719-0.248,0.719-0.736v-0.016
		c0-0.487-0.288-0.695-0.719-0.695h-0.016v1.447H44.722z M44.73,50.966c0.448,0,0.768-0.264,0.768-0.728v-0.04
		c0-0.464-0.32-0.728-0.768-0.728h-0.024v1.495H44.73z"/>
	<path class="st7" d="M101.121,46.273h0.976v2.318h0.848v-2.318h0.975v5.597h-0.975v-2.351h-0.848v2.351h-0.976V46.273z
		 M104.402,49.215v-0.288c0-1.847,0.6-2.734,1.486-2.734c0.888,0,1.487,0.887,1.487,2.734v0.288c0,1.847-0.6,2.734-1.487,2.734
		C105.001,51.949,104.402,51.062,104.402,49.215z M106.384,49.215v-0.288c0-1.439-0.2-1.839-0.496-1.839s-0.495,0.399-0.495,1.839
		v0.288c0,1.439,0.199,1.839,0.495,1.839S106.384,50.654,106.384,49.215z M108.217,47.2h-0.688v-0.927h2.351V47.2h-0.688v4.669
		h-0.976V47.2z M112.08,47.2h-0.688v-0.927h2.351V47.2h-0.688v4.669h-0.976V47.2z M114.137,50.238v-3.966h0.968v4.062
		c0,0.504,0.176,0.704,0.424,0.704c0.247,0,0.424-0.2,0.424-0.704v-4.062h0.967v3.966c0,1.175-0.592,1.703-1.391,1.703
		C114.729,51.941,114.137,51.414,114.137,50.238z M117.481,46.273h0.848c0.943,0,1.823,0.384,1.823,1.423v0.04
		c0,0.72-0.408,1.071-0.808,1.263c0.472,0.208,0.879,0.536,0.879,1.248v0.072c0,0.992-0.768,1.551-1.854,1.551h-0.888V46.273z
		 M118.472,48.623c0.432,0,0.72-0.248,0.72-0.736v-0.016c0-0.487-0.288-0.695-0.72-0.695h-0.016v1.447H118.472z M118.481,50.966
		c0.447,0,0.768-0.264,0.768-0.728v-0.04c0-0.464-0.32-0.728-0.768-0.728h-0.024v1.495H118.481z"/>
	<path class="st7" d="M27.371,202.648h0.975v2.318h0.848v-2.318h0.976v5.597h-0.976v-2.351h-0.848v2.351h-0.975V202.648z
		 M30.651,205.59v-0.288c0-1.847,0.6-2.734,1.487-2.734c0.887,0,1.487,0.887,1.487,2.734v0.288c0,1.847-0.6,2.734-1.487,2.734
		C31.251,208.324,30.651,207.437,30.651,205.59z M32.634,205.59v-0.288c0-1.439-0.2-1.839-0.496-1.839
		c-0.296,0-0.496,0.399-0.496,1.839v0.288c0,1.439,0.2,1.839,0.496,1.839C32.434,207.429,32.634,207.029,32.634,205.59z
		 M34.467,203.575h-0.688v-0.927h2.351v0.927h-0.688v4.669h-0.975V203.575z M38.331,203.575h-0.688v-0.927h2.351v0.927h-0.688v4.669
		h-0.976V203.575z M40.387,206.613v-3.966h0.967v4.062c0,0.504,0.176,0.704,0.424,0.704c0.248,0,0.424-0.2,0.424-0.704v-4.062h0.967
		v3.966c0,1.175-0.591,1.703-1.391,1.703C40.979,208.316,40.387,207.789,40.387,206.613z M43.731,202.648h0.848
		c0.943,0,1.823,0.384,1.823,1.423v0.04c0,0.72-0.408,1.071-0.808,1.263c0.472,0.208,0.879,0.536,0.879,1.248v0.072
		c0,0.992-0.768,1.551-1.855,1.551h-0.888V202.648z M44.722,204.998c0.432,0,0.719-0.248,0.719-0.736v-0.016
		c0-0.487-0.288-0.695-0.719-0.695h-0.016v1.447H44.722z M44.73,207.341c0.448,0,0.768-0.264,0.768-0.728v-0.04
		c0-0.464-0.32-0.728-0.768-0.728h-0.024v1.495H44.73z"/>
	<path class="st7" d="M100.996,165.612h0.976v2.318h0.848v-2.318h0.975v5.597h-0.975v-2.351h-0.848v2.351h-0.976V165.612z
		 M104.277,168.554v-0.288c0-1.847,0.6-2.734,1.486-2.734c0.888,0,1.487,0.887,1.487,2.734v0.288c0,1.847-0.6,2.734-1.487,2.734
		C104.876,171.288,104.277,170.401,104.277,168.554z M106.259,168.554v-0.288c0-1.439-0.2-1.839-0.496-1.839
		s-0.495,0.399-0.495,1.839v0.288c0,1.439,0.199,1.839,0.495,1.839S106.259,169.993,106.259,168.554z M108.092,166.539h-0.688
		v-0.927h2.351v0.927h-0.688v4.669h-0.976V166.539z M111.955,166.539h-0.688v-0.927h2.351v0.927h-0.688v4.669h-0.976V166.539z
		 M114.012,169.577v-3.966h0.968v4.062c0,0.504,0.176,0.704,0.424,0.704c0.247,0,0.424-0.2,0.424-0.704v-4.062h0.967v3.966
		c0,1.175-0.592,1.703-1.391,1.703C114.604,171.28,114.012,170.753,114.012,169.577z M117.356,165.612h0.848
		c0.943,0,1.823,0.384,1.823,1.423v0.04c0,0.72-0.408,1.071-0.808,1.263c0.472,0.208,0.879,0.536,0.879,1.248v0.072
		c0,0.992-0.768,1.551-1.854,1.551h-0.888V165.612z M118.347,167.962c0.432,0,0.72-0.248,0.72-0.736v-0.016
		c0-0.487-0.288-0.695-0.72-0.695h-0.016v1.447H118.347z M118.356,170.305c0.447,0,0.768-0.264,0.768-0.728v-0.04
		c0-0.464-0.32-0.728-0.768-0.728h-0.024v1.495H118.356z"/>
	<path class="st7" d="M64.009,137.674v-0.288c0-1.847,0.6-2.734,1.487-2.734c0.888,0,1.487,0.887,1.487,2.734v0.288
		c0,1.847-0.6,2.735-1.487,2.735C64.609,140.409,64.009,139.521,64.009,137.674z M65.992,137.674v-0.288
		c0-1.439-0.2-1.839-0.496-1.839c-0.295,0-0.496,0.4-0.496,1.839v0.288c0,1.439,0.2,1.839,0.496,1.839
		C65.792,139.513,65.992,139.113,65.992,137.674z M67.465,134.732h0.872c1.063,0,1.808,0.576,1.808,1.887v0.016
		c0,1.263-0.704,1.863-1.695,1.935H68.44v1.759h-0.976V134.732z M68.449,137.666c0.408-0.024,0.719-0.32,0.719-1v-0.016
		c0-0.711-0.272-1.015-0.695-1.015H68.44v2.031H68.449z M70.545,134.732h2.143v0.928H71.52v1.391h1.032v0.928H71.52v1.423h1.191
		v0.927h-2.166V134.732z M73.185,134.732h0.911l0.983,2.831v-2.831h0.952v5.597h-0.864l-1.031-2.966v2.966h-0.951V134.732z
		 M78.401,135.659h-0.688v-0.928h2.352v0.928h-0.688v4.669h-0.976V135.659z M80.217,137.674v-0.288c0-1.847,0.6-2.734,1.486-2.734
		c0.888,0,1.487,0.887,1.487,2.734v0.288c0,1.847-0.6,2.735-1.487,2.735C80.817,140.409,80.217,139.521,80.217,137.674z
		 M82.2,137.674v-0.288c0-1.439-0.2-1.839-0.496-1.839s-0.495,0.4-0.495,1.839v0.288c0,1.439,0.199,1.839,0.495,1.839
		S82.2,139.113,82.2,137.674z M59.337,142.732h0.912c1.248,0,1.959,0.904,1.959,2.703v0.192c0,1.799-0.711,2.703-1.959,2.703h-0.912
		V142.732z M60.352,147.433c0.464,0,0.864-0.408,0.864-1.807v-0.192c0-1.399-0.4-1.807-0.864-1.807h-0.04v3.806H60.352z
		 M62.689,142.732h2.143v0.928h-1.167v1.391h1.031v0.928h-1.031v1.423h1.191v0.927h-2.167V142.732z M65.153,145.626v-0.192
		c0-1.967,0.728-2.742,1.639-2.742c0.272,0,0.432,0.032,0.64,0.128v1.007c-0.2-0.12-0.36-0.184-0.543-0.184
		c-0.432,0-0.744,0.384-0.744,1.783v0.208c0,1.479,0.312,1.783,0.759,1.783c0.152,0,0.344-0.056,0.544-0.176v0.959
		c-0.224,0.128-0.44,0.168-0.72,0.168C65.832,148.369,65.153,147.577,65.153,145.626z M67.937,142.732h0.976v2.343l0.791-2.343
		h1.104l-0.943,2.367l0.96,3.23h-1.088l-0.607-2.119l-0.216,0.615v1.503h-0.976V142.732z M72.433,142.732h0.848
		c0.943,0,1.822,0.384,1.822,1.423v0.04c0,0.72-0.407,1.071-0.807,1.263c0.472,0.208,0.879,0.536,0.879,1.248v0.072
		c0,0.992-0.768,1.551-1.854,1.551h-0.888V142.732z M73.424,145.083c0.432,0,0.72-0.248,0.72-0.736v-0.016
		c0-0.488-0.288-0.696-0.72-0.696h-0.016v1.447H73.424z M73.432,147.425c0.448,0,0.768-0.264,0.768-0.728v-0.04
		c0-0.464-0.319-0.728-0.768-0.728h-0.023v1.496H73.432z M75.584,142.732h2.144v0.928H76.56v1.391h1.031v0.928H76.56v1.423h1.191
		v0.927h-2.167V142.732z M78.225,142.732h0.976v4.67h1.031v0.927h-2.007V142.732z M80.328,145.674v-0.288
		c0-1.847,0.6-2.734,1.487-2.734s1.487,0.887,1.487,2.734v0.288c0,1.847-0.6,2.735-1.487,2.735S80.328,147.521,80.328,145.674z
		 M82.312,145.674v-0.288c0-1.439-0.2-1.839-0.496-1.839s-0.496,0.4-0.496,1.839v0.288c0,1.439,0.2,1.839,0.496,1.839
		S82.312,147.113,82.312,145.674z M83.441,142.732h0.999l0.408,3.43l0.487-3.43h0.904l0.479,3.43l0.416-3.43h0.976l-0.848,5.613
		H86.24l-0.464-3.318l-0.464,3.318h-1.023L83.441,142.732z"/>
	<path class="st7" d="M23.011,131.982h0.872c1.063,0,1.807,0.576,1.807,1.887v0.016c0,1.263-0.704,1.863-1.695,1.935h-0.008v1.759
		h-0.976V131.982z M23.994,134.916c0.408-0.024,0.72-0.32,0.72-1v-0.016c0-0.711-0.272-1.015-0.695-1.015h-0.032v2.031H23.994z
		 M26.075,135.947v-3.966h0.968v4.062c0,0.504,0.176,0.704,0.423,0.704c0.248,0,0.424-0.2,0.424-0.704v-4.062h0.968v3.966
		c0,1.176-0.592,1.703-1.392,1.703C26.667,137.651,26.075,137.123,26.075,135.947z M29.419,131.982h0.847
		c0.944,0,1.823,0.384,1.823,1.423v0.04c0,0.72-0.408,1.071-0.808,1.263c0.472,0.208,0.879,0.536,0.879,1.248v0.072
		c0,0.992-0.768,1.551-1.855,1.551h-0.887V131.982z M30.41,134.333c0.432,0,0.72-0.248,0.72-0.736v-0.016
		c0-0.488-0.288-0.696-0.72-0.696h-0.016v1.447H30.41z M30.418,136.675c0.448,0,0.768-0.264,0.768-0.728v-0.04
		c0-0.464-0.32-0.728-0.768-0.728h-0.024v1.496H30.418z M32.571,131.982h0.975v4.67h1.032v0.927h-2.007V131.982z M34.987,131.982
		h0.976v5.597h-0.976V131.982z M36.459,134.876v-0.192c0-1.967,0.728-2.742,1.639-2.742c0.272,0,0.432,0.032,0.64,0.128v1.007
		c-0.2-0.12-0.36-0.184-0.543-0.184c-0.432,0-0.744,0.384-0.744,1.783v0.208c0,1.479,0.312,1.783,0.759,1.783
		c0.152,0,0.344-0.056,0.544-0.176v0.959c-0.224,0.128-0.44,0.168-0.72,0.168C37.139,137.619,36.459,136.827,36.459,134.876z
		 M26.331,145.387v-1.016c0.344,0.2,0.615,0.312,0.879,0.312c0.28,0,0.52-0.136,0.52-0.48v-0.016c0-0.256-0.08-0.448-0.543-0.976
		c-0.664-0.751-0.936-1.111-0.936-1.791v-0.016c0-0.896,0.583-1.463,1.359-1.463c0.392,0,0.624,0.056,0.863,0.176v1.015
		c-0.304-0.176-0.488-0.256-0.744-0.256c-0.272,0-0.503,0.176-0.503,0.48v0.016c0,0.264,0.08,0.36,0.543,0.896
		c0.768,0.887,0.936,1.231,0.936,1.871v0.016c0,0.88-0.616,1.463-1.383,1.463C26.939,145.619,26.611,145.523,26.331,145.387z
		 M29.035,143.947v-3.966h0.968v4.062c0,0.504,0.176,0.704,0.423,0.704c0.248,0,0.424-0.2,0.424-0.704v-4.062h0.968v3.966
		c0,1.176-0.592,1.703-1.392,1.703C29.627,145.651,29.035,145.123,29.035,143.947z M32.379,139.982h0.911l0.983,2.831v-2.831h0.952
		v5.597h-0.864l-1.031-2.966v2.966h-0.951V139.982z M25.215,147.982h0.912c1.247,0,1.958,0.904,1.958,2.703v0.192
		c0,1.799-0.711,2.703-1.958,2.703h-0.912V147.982z M26.231,152.683c0.463,0,0.863-0.408,0.863-1.807v-0.192
		c0-1.399-0.4-1.807-0.863-1.807h-0.04v3.806H26.231z M28.567,147.982h2.143v0.928h-1.167v1.391h1.032v0.928h-1.032v1.423h1.191
		v0.927h-2.167V147.982z M31.031,150.876v-0.192c0-1.967,0.728-2.742,1.639-2.742c0.271,0,0.432,0.032,0.64,0.128v1.007
		c-0.2-0.12-0.36-0.184-0.544-0.184c-0.432,0-0.744,0.384-0.744,1.783v0.208c0,1.479,0.312,1.783,0.76,1.783
		c0.152,0,0.344-0.056,0.543-0.176v0.959c-0.224,0.128-0.439,0.168-0.719,0.168C31.711,153.619,31.031,152.827,31.031,150.876z
		 M33.815,147.982h0.976v2.343l0.792-2.343h1.104l-0.943,2.367l0.959,3.23h-1.087l-0.608-2.119l-0.216,0.615v1.503h-0.976V147.982z"
		/>
	<path class="st7" d="M105.898,211.315h0.991l0.527,3.646l0.528-3.646h0.959l-0.999,5.613h-1.008L105.898,211.315z M109.217,211.315
		h0.976v5.597h-0.976V211.315z M110.785,211.315h0.847c0.944,0,1.823,0.384,1.823,1.423v0.04c0,0.72-0.407,1.071-0.808,1.263
		c0.472,0.208,0.88,0.536,0.88,1.248v0.072c0,0.992-0.768,1.551-1.855,1.551h-0.887V211.315z M111.777,213.666
		c0.432,0,0.72-0.248,0.72-0.736v-0.016c0-0.488-0.288-0.696-0.72-0.696h-0.017v1.447H111.777z M111.785,216.008
		c0.447,0,0.768-0.264,0.768-0.728v-0.04c0-0.464-0.32-0.728-0.768-0.728h-0.024v1.496H111.785z M113.937,211.315h2.143v0.928
		h-1.167v1.391h1.031v0.928h-1.031v1.423h1.191v0.927h-2.167V211.315z M97.517,219.315h0.848c0.943,0,1.823,0.384,1.823,1.423v0.04
		c0,0.72-0.408,1.071-0.808,1.263c0.472,0.208,0.88,0.536,0.88,1.248v0.072c0,0.992-0.768,1.551-1.855,1.551h-0.888V219.315z
		 M98.509,221.666c0.432,0,0.719-0.248,0.719-0.736v-0.016c0-0.488-0.287-0.696-0.719-0.696h-0.017v1.447H98.509z M98.517,224.008
		c0.447,0,0.768-0.264,0.768-0.728v-0.04c0-0.464-0.32-0.728-0.768-0.728h-0.024v1.496H98.517z M100.669,219.315h2.143v0.928h-1.167
		v1.391h1.031v0.928h-1.031v1.423h1.191v0.927h-2.167V219.315z M104.093,219.299h1.039l1.063,5.613h-0.976l-0.184-1.111h-0.888
		l-0.176,1.111h-0.943L104.093,219.299z M104.892,222.921l-0.296-1.847l-0.304,1.847H104.892z M106.317,222.209v-0.192
		c0-1.967,0.728-2.742,1.64-2.742c0.271,0,0.432,0.032,0.64,0.128v1.007c-0.2-0.12-0.36-0.184-0.544-0.184
		c-0.432,0-0.743,0.384-0.743,1.783v0.208c0,1.479,0.312,1.783,0.759,1.783c0.152,0,0.345-0.056,0.544-0.176v0.959
		c-0.224,0.128-0.439,0.168-0.72,0.168C106.996,224.952,106.317,224.16,106.317,222.209z M109.101,219.315h0.976v2.319h0.848v-2.319
		h0.976v5.597h-0.976v-2.351h-0.848v2.351h-0.976V219.315z M113.653,222.209v-0.192c0-1.967,0.728-2.742,1.64-2.742
		c0.271,0,0.432,0.032,0.64,0.128v1.007c-0.2-0.12-0.36-0.184-0.544-0.184c-0.432,0-0.743,0.384-0.743,1.783v0.208
		c0,1.479,0.312,1.783,0.759,1.783c0.152,0,0.345-0.056,0.544-0.176v0.959c-0.224,0.128-0.439,0.168-0.72,0.168
		C114.332,224.952,113.653,224.16,113.653,222.209z M116.437,219.315h0.976v4.67h1.031v0.927h-2.007V219.315z M118.741,223.28
		v-3.966h0.968v4.062c0,0.504,0.176,0.704,0.424,0.704s0.424-0.2,0.424-0.704v-4.062h0.968v3.966c0,1.176-0.592,1.703-1.392,1.703
		S118.741,224.456,118.741,223.28z M122.085,219.315h0.847c0.944,0,1.823,0.384,1.823,1.423v0.04c0,0.72-0.407,1.071-0.808,1.263
		c0.472,0.208,0.88,0.536,0.88,1.248v0.072c0,0.992-0.768,1.551-1.855,1.551h-0.887V219.315z M123.076,221.666
		c0.432,0,0.72-0.248,0.72-0.736v-0.016c0-0.488-0.288-0.696-0.72-0.696h-0.017v1.447H123.076z M123.084,224.008
		c0.448,0,0.768-0.264,0.768-0.728v-0.04c0-0.464-0.319-0.728-0.768-0.728h-0.024v1.496H123.084z M100.034,232.72v-1.016
		c0.344,0.2,0.615,0.312,0.879,0.312c0.28,0,0.521-0.136,0.521-0.48v-0.016c0-0.256-0.08-0.448-0.544-0.976
		c-0.664-0.751-0.936-1.111-0.936-1.791v-0.016c0-0.896,0.584-1.463,1.359-1.463c0.392,0,0.623,0.056,0.863,0.176v1.015
		c-0.304-0.176-0.487-0.256-0.743-0.256c-0.272,0-0.504,0.176-0.504,0.48v0.016c0,0.264,0.08,0.36,0.543,0.896
		c0.768,0.887,0.936,1.231,0.936,1.871v0.016c0,0.88-0.615,1.463-1.383,1.463C100.641,232.952,100.313,232.856,100.034,232.72z
		 M102.738,231.28v-3.966h0.967v4.062c0,0.504,0.176,0.704,0.424,0.704s0.424-0.2,0.424-0.704v-4.062h0.968v3.966
		c0,1.176-0.592,1.703-1.392,1.703S102.738,232.456,102.738,231.28z M106.081,227.315h0.911l0.983,2.831v-2.831h0.951v5.597h-0.863
		l-1.031-2.966v2.966h-0.951V227.315z M110.777,227.315h0.912c1.247,0,1.959,0.904,1.959,2.703v0.192
		c0,1.799-0.712,2.703-1.959,2.703h-0.912V227.315z M111.792,232.016c0.464,0,0.863-0.408,0.863-1.807v-0.192
		c0-1.399-0.399-1.807-0.863-1.807h-0.04v3.806H111.792z M114.129,227.315h2.143v0.928h-1.167v1.391h1.031v0.928h-1.031v1.423h1.191
		v0.927h-2.167V227.315z M116.593,230.209v-0.192c0-1.967,0.728-2.742,1.639-2.742c0.272,0,0.432,0.032,0.64,0.128v1.007
		c-0.199-0.12-0.359-0.184-0.544-0.184c-0.432,0-0.743,0.384-0.743,1.783v0.208c0,1.479,0.312,1.783,0.76,1.783
		c0.151,0,0.344-0.056,0.544-0.176v0.959c-0.225,0.128-0.44,0.168-0.72,0.168C117.273,232.952,116.593,232.16,116.593,230.209z
		 M119.377,227.315h0.975v2.343l0.792-2.343h1.104l-0.943,2.367l0.959,3.23h-1.087l-0.608-2.119l-0.216,0.615v1.503h-0.975V227.315z
		"/>
	<path class="st7" d="M63.491,211.898h0.848c0.943,0,1.823,0.384,1.823,1.423v0.04c0,0.72-0.408,1.071-0.808,1.263
		c0.472,0.208,0.88,0.536,0.88,1.248v0.072c0,0.992-0.768,1.551-1.855,1.551h-0.888V211.898z M64.482,214.248
		c0.432,0,0.72-0.248,0.72-0.736v-0.016c0-0.487-0.288-0.695-0.72-0.695h-0.016v1.447H64.482z M64.49,216.591
		c0.448,0,0.768-0.264,0.768-0.728v-0.04c0-0.464-0.32-0.728-0.768-0.728h-0.024v1.495H64.49z M67.386,211.882h1.04l1.063,5.613
		h-0.975l-0.184-1.111h-0.887l-0.176,1.111h-0.944L67.386,211.882z M68.186,215.504l-0.296-1.847l-0.304,1.847H68.186z
		 M69.786,211.898h1.008c0.999,0,1.727,0.527,1.727,1.783v0.072c0,0.728-0.287,1.191-0.655,1.472l0.751,2.271h-1.039l-0.632-1.951
		h-0.184v1.951h-0.976V211.898z M70.81,214.664c0.424,0,0.735-0.248,0.735-0.903v-0.064c0-0.704-0.335-0.888-0.759-0.888h-0.024
		v1.855H70.81z"/>
	<path class="st7" d="M105.796,134.619h0.992l0.527,3.646l0.527-3.646h0.96l-0.999,5.613h-1.008L105.796,134.619z M109.117,134.619
		h0.976v5.597h-0.976V134.619z M110.685,134.619h0.847c0.944,0,1.823,0.384,1.823,1.423v0.04c0,0.72-0.407,1.071-0.808,1.263
		c0.472,0.208,0.88,0.536,0.88,1.248v0.072c0,0.992-0.768,1.551-1.855,1.551h-0.887V134.619z M111.676,136.97
		c0.432,0,0.72-0.248,0.72-0.736v-0.016c0-0.487-0.288-0.695-0.72-0.695h-0.017v1.447H111.676z M111.684,139.313
		c0.448,0,0.768-0.264,0.768-0.728v-0.04c0-0.464-0.319-0.728-0.768-0.728h-0.024v1.495H111.684z M113.836,134.619h2.143v0.927
		h-1.167v1.391h1.031v0.928h-1.031v1.423h1.191v0.928h-2.167V134.619z M97.416,142.619h0.848c0.943,0,1.823,0.384,1.823,1.423v0.04
		c0,0.72-0.408,1.071-0.808,1.263c0.472,0.208,0.88,0.536,0.88,1.248v0.072c0,0.992-0.768,1.551-1.855,1.551h-0.888V142.619z
		 M98.409,144.97c0.432,0,0.719-0.248,0.719-0.736v-0.016c0-0.487-0.287-0.695-0.719-0.695h-0.017v1.447H98.409z M98.416,147.313
		c0.447,0,0.768-0.264,0.768-0.728v-0.04c0-0.464-0.32-0.728-0.768-0.728h-0.024v1.495H98.416z M100.569,142.619h2.143v0.927h-1.167
		v1.391h1.031v0.928h-1.031v1.423h1.191v0.928h-2.167V142.619z M103.993,142.603h1.039l1.063,5.613h-0.976l-0.184-1.111h-0.888
		l-0.176,1.111h-0.943L103.993,142.603z M104.791,146.225l-0.296-1.847l-0.304,1.847H104.791z M106.216,145.513v-0.192
		c0-1.967,0.729-2.742,1.64-2.742c0.271,0,0.432,0.032,0.64,0.128v1.007c-0.2-0.12-0.36-0.184-0.544-0.184
		c-0.432,0-0.743,0.384-0.743,1.783v0.208c0,1.479,0.312,1.783,0.76,1.783c0.151,0,0.344-0.056,0.543-0.176v0.959
		c-0.224,0.128-0.439,0.168-0.72,0.168C106.896,148.256,106.216,147.465,106.216,145.513z M109,142.619h0.976v2.318h0.848v-2.318
		h0.976v5.597h-0.976v-2.351h-0.848v2.351H109V142.619z M113.552,145.513v-0.192c0-1.967,0.729-2.742,1.64-2.742
		c0.271,0,0.432,0.032,0.64,0.128v1.007c-0.2-0.12-0.36-0.184-0.544-0.184c-0.432,0-0.743,0.384-0.743,1.783v0.208
		c0,1.479,0.312,1.783,0.76,1.783c0.151,0,0.344-0.056,0.543-0.176v0.959c-0.224,0.128-0.439,0.168-0.72,0.168
		C114.232,148.256,113.552,147.465,113.552,145.513z M116.336,142.619h0.976v4.669h1.031v0.928h-2.007V142.619z M118.64,146.585
		v-3.966h0.968v4.062c0,0.504,0.176,0.704,0.424,0.704s0.424-0.2,0.424-0.704v-4.062h0.968v3.966c0,1.175-0.592,1.703-1.392,1.703
		S118.64,147.76,118.64,146.585z M121.985,142.619h0.847c0.944,0,1.823,0.384,1.823,1.423v0.04c0,0.72-0.407,1.071-0.808,1.263
		c0.472,0.208,0.88,0.536,0.88,1.248v0.072c0,0.992-0.768,1.551-1.855,1.551h-0.887V142.619z M122.976,144.97
		c0.432,0,0.72-0.248,0.72-0.736v-0.016c0-0.487-0.288-0.695-0.72-0.695h-0.017v1.447H122.976z M122.984,147.313
		c0.447,0,0.768-0.264,0.768-0.728v-0.04c0-0.464-0.32-0.728-0.768-0.728h-0.024v1.495H122.984z"/>
	<path class="st7" d="M47.902,177.71h1.007c1,0,1.727,0.527,1.727,1.783v0.072c0,0.728-0.288,1.191-0.656,1.472l0.752,2.271h-1.04
		l-0.632-1.951h-0.184v1.951h-0.975V177.71z M48.926,180.476c0.424,0,0.735-0.248,0.735-0.903v-0.064
		c0-0.704-0.335-0.888-0.759-0.888h-0.024v1.855H48.926z M51.086,177.71h1.007c1,0,1.727,0.527,1.727,1.783v0.072
		c0,0.728-0.288,1.191-0.656,1.472l0.751,2.271h-1.039l-0.632-1.951h-0.184v1.951h-0.975V177.71z M52.11,180.476
		c0.423,0,0.735-0.248,0.735-0.903v-0.064c0-0.704-0.336-0.888-0.76-0.888h-0.024v1.855H52.11z"/>
	<path class="st7" d="M64.232,177.773h1.007c1,0,1.727,0.527,1.727,1.783v0.072c0,0.728-0.288,1.191-0.656,1.472l0.752,2.271h-1.04
		l-0.632-1.951h-0.184v1.951h-0.975V177.773z M65.256,180.539c0.424,0,0.735-0.248,0.735-0.903v-0.064
		c0-0.704-0.335-0.888-0.759-0.888h-0.024v1.855H65.256z M67.416,177.773h1.007c1,0,1.727,0.527,1.727,1.783v0.072
		c0,0.728-0.288,1.191-0.655,1.472l0.751,2.271h-1.039l-0.632-1.951h-0.184v1.951h-0.975V177.773z M68.44,180.539
		c0.423,0,0.735-0.248,0.735-0.903v-0.064c0-0.704-0.336-0.888-0.76-0.888h-0.024v1.855H68.44z"/>
	<path class="st7" d="M77.44,177.773h1.008c0.999,0,1.728,0.527,1.728,1.783v0.072c0,0.728-0.288,1.191-0.656,1.472l0.752,2.271
		h-1.04l-0.631-1.951h-0.185v1.951H77.44V177.773z M78.463,180.539c0.424,0,0.736-0.248,0.736-0.903v-0.064
		c0-0.704-0.336-0.888-0.76-0.888h-0.024v1.855H78.463z M80.624,177.773h1.007c1,0,1.728,0.527,1.728,1.783v0.072
		c0,0.728-0.288,1.191-0.656,1.472l0.752,2.271h-1.039l-0.632-1.951H81.6v1.951h-0.976V177.773z M81.648,180.539
		c0.424,0,0.735-0.248,0.735-0.903v-0.064c0-0.704-0.336-0.888-0.76-0.888H81.6v1.855H81.648z"/>
	<path class="st7" d="M60.347,671.868h1.007c1,0,1.727,0.527,1.727,1.783v0.071c0,0.728-0.288,1.191-0.656,1.472l0.751,2.271h-1.039
		l-0.632-1.951h-0.184v1.951h-0.975V671.868z M61.37,674.635c0.423,0,0.735-0.248,0.735-0.904v-0.063
		c0-0.704-0.336-0.888-0.76-0.888h-0.024v1.855H61.37z M64.314,671.852h1.04l1.063,5.613h-0.976l-0.184-1.111H64.37l-0.176,1.111
		h-0.943L64.314,671.852z M65.114,675.474l-0.295-1.847l-0.304,1.847H65.114z M66.539,674.763v-0.192
		c0-1.967,0.728-2.742,1.639-2.742c0.271,0,0.432,0.032,0.64,0.128v1.007c-0.2-0.119-0.36-0.184-0.544-0.184
		c-0.432,0-0.744,0.384-0.744,1.783v0.208c0,1.479,0.312,1.783,0.76,1.783c0.152,0,0.344-0.057,0.543-0.177v0.96
		c-0.224,0.128-0.439,0.168-0.719,0.168C67.219,677.505,66.539,676.713,66.539,674.763z M69.323,671.868h2.143v0.927h-1.167v1.392
		h1.031v0.928h-1.031v1.423h1.191v0.928h-2.167V671.868z M73.754,672.795h-0.688v-0.927h2.351v0.927H74.73v4.67h-0.976V672.795z
		 M75.826,671.868h1.008c0.999,0,1.727,0.527,1.727,1.783v0.071c0,0.728-0.288,1.191-0.655,1.472l0.751,2.271h-1.039l-0.632-1.951
		h-0.184v1.951h-0.976V671.868z M76.85,674.635c0.424,0,0.735-0.248,0.735-0.904v-0.063c0-0.704-0.336-0.888-0.76-0.888h-0.023
		v1.855H76.85z M79.794,671.852h1.039l1.063,5.613h-0.976l-0.184-1.111H79.85l-0.176,1.111h-0.943L79.794,671.852z M80.593,675.474
		l-0.295-1.847l-0.305,1.847H80.593z M82.019,674.763v-0.192c0-1.967,0.728-2.742,1.639-2.742c0.271,0,0.432,0.032,0.64,0.128v1.007
		c-0.2-0.119-0.359-0.184-0.544-0.184c-0.432,0-0.743,0.384-0.743,1.783v0.208c0,1.479,0.312,1.783,0.76,1.783
		c0.151,0,0.344-0.057,0.543-0.177v0.96c-0.224,0.128-0.439,0.168-0.719,0.168C82.699,677.505,82.019,676.713,82.019,674.763z
		 M84.802,671.868h0.976v2.343l0.792-2.343h1.104l-0.943,2.366l0.959,3.23h-1.087l-0.608-2.119l-0.216,0.616v1.503h-0.976V671.868z"
		/>
	<path class="st7" d="M17.165,465.381h1.039l1.063,5.613h-0.975l-0.184-1.111h-0.888l-0.176,1.111h-0.943L17.165,465.381z
		 M17.964,469.003l-0.296-1.847l-0.304,1.847H17.964z M21.692,470.723c-0.231,0.239-0.503,0.352-0.792,0.352
		c-0.919,0-1.511-0.888-1.511-2.734v-0.288c0-1.847,0.6-2.734,1.487-2.734s1.487,0.888,1.487,2.734v0.288
		c0,0.76-0.112,1.359-0.304,1.799l0.503,0.464l-0.488,0.52L21.692,470.723z M21.124,470.131l-0.48-0.472l0.456-0.504l0.232,0.248
		c0.024-0.265,0.04-0.608,0.04-1.063v-0.288c0-1.439-0.2-1.839-0.496-1.839s-0.496,0.399-0.496,1.839v0.288
		c0,1.566,0.208,1.854,0.568,1.854C21.012,470.195,21.068,470.179,21.124,470.131z M22.885,469.363v-3.966h0.967v4.062
		c0,0.504,0.176,0.703,0.424,0.703c0.248,0,0.424-0.199,0.424-0.703v-4.062h0.967v3.966c0,1.175-0.591,1.703-1.391,1.703
		C23.477,471.067,22.885,470.538,22.885,469.363z M26.972,465.381h1.04l1.063,5.613H28.1l-0.184-1.111h-0.887l-0.176,1.111h-0.944
		L26.972,465.381z M27.772,469.003l-0.296-1.847l-0.304,1.847H27.772z M15.477,473.398h1.008c1,0,1.727,0.527,1.727,1.783v0.071
		c0,0.728-0.288,1.191-0.656,1.472l0.751,2.271h-1.04l-0.631-1.951h-0.184v1.951h-0.976V473.398z M16.5,476.164
		c0.424,0,0.736-0.248,0.736-0.904v-0.063c0-0.704-0.336-0.888-0.76-0.888h-0.024v1.855H16.5z M19.445,473.381h1.04l1.063,5.613
		h-0.976l-0.184-1.111h-0.887l-0.176,1.111h-0.943L19.445,473.381z M20.244,477.003l-0.296-1.847l-0.304,1.847H20.244z
		 M21.669,476.292V476.1c0-1.967,0.728-2.742,1.639-2.742c0.271,0,0.432,0.032,0.64,0.128v1.007c-0.2-0.119-0.36-0.184-0.544-0.184
		c-0.432,0-0.744,0.384-0.744,1.783v0.208c0,1.479,0.312,1.783,0.76,1.783c0.152,0,0.344-0.057,0.543-0.177v0.96
		c-0.224,0.128-0.439,0.168-0.719,0.168C22.349,479.034,21.669,478.242,21.669,476.292z M24.453,473.398h2.143v0.927h-1.167v1.392
		h1.031v0.928h-1.031v1.423h1.191v0.928h-2.167V473.398z M27.093,473.398H28.1c1,0,1.727,0.527,1.727,1.783v0.071
		c0,0.728-0.288,1.191-0.656,1.472l0.751,2.271h-1.039l-0.632-1.951h-0.184v1.951h-0.976V473.398z M28.117,476.164
		c0.424,0,0.735-0.248,0.735-0.904v-0.063c0-0.704-0.336-0.888-0.759-0.888h-0.024v1.855H28.117z"/>
	<path class="st7" d="M52.53,751.201h0.968l0.688,2.047l0.688-2.047h0.967v5.597h-0.935v-3.382l-0.712,2.118h-0.016l-0.711-2.118
		v3.382H52.53V751.201z M56.433,751.201h0.976v5.597h-0.976V751.201z M58.002,751.201h0.911l0.984,2.83v-2.83h0.951v5.597h-0.863
		l-1.032-2.967v2.967h-0.951V751.201z M61.442,751.201h0.975v5.597h-0.975V751.201z M51.934,762.096v-0.192
		c0-1.807,0.768-2.742,1.871-2.742c0.296,0,0.544,0.063,0.744,0.16v1.015c-0.24-0.144-0.456-0.239-0.711-0.239
		c-0.56,0-0.912,0.56-0.912,1.767v0.272c0,1.463,0.432,1.799,0.832,1.799c0.032,0,0.04,0,0.088-0.008v-1.432h-0.479v-0.871h1.367
		v2.974c-0.352,0.152-0.64,0.24-1.016,0.24C52.742,764.838,51.934,764.046,51.934,762.096z M55.174,762.144v-0.288
		c0-1.847,0.6-2.734,1.487-2.734c0.887,0,1.487,0.888,1.487,2.734v0.288c0,1.847-0.6,2.734-1.487,2.734
		C55.773,764.878,55.174,763.99,55.174,762.144z M57.157,762.144v-0.288c0-1.439-0.2-1.839-0.496-1.839s-0.496,0.399-0.496,1.839
		v0.288c0,1.438,0.2,1.839,0.496,1.839S57.157,763.582,57.157,762.144z M58.63,759.201h0.976v4.669h1.031v0.928H58.63V759.201z
		 M61.03,759.201h2.039v0.928h-1.063v1.406h0.927v0.928h-0.927v2.335H61.03V759.201z"/>
</g>
<g id="BLISS_DECK_19_TOP">
	<path class="st8" d="M113.591,342.802v-73.208l13.692,0.166l0.07-90.873l6.014-6.452l0.008-10.216l-5.996-5.834l0.164-96.418
		l5.49-5.583V43.633l-5.465-5.669c0,0,0.021-16.959,0.021-17.679c0-5.778-1.6-8.619-8.924-11.721
		c-11.176-4.734-20.809-7.99-43.635-7.99h-0.336H74.41h-1.201h-0.285h-0.337c-22.825,0-32.458,3.256-43.635,7.99
		c-7.323,3.102-8.924,5.942-8.924,11.721c0,0.72,0.023,17.679,0.023,17.679l-5.466,5.669v10.751l5.49,5.583l0.165,134.165
		l-5.997,5.835l0.008,10.216l6.014,6.452l0.07,53.126l13.692-0.166v73.208H113.591z"/>
	<path class="st8" d="M112,746.26v14.625c-2.667,0-15.506-2.75-15.506,18.493H50.422c0-21.243-12.839-18.493-15.506-18.493v-12"/>
	<path class="st8" d="M68.379,539.538h-5.478c-4.971,0-7.999,2.719-7.999,7.192v62.072c13.098,0,28.431,0,37.852,0V546.73
		c0-4.474-3.029-7.192-7.999-7.192h-5.478H68.379z"/>
	<g id="gDeck19Locations">
		<rect id="_x31_9Aft" y="533.08" class="st3" width="137.196" height="246.809"/>
		<rect id="_x31_9Middle" y="234.13" class="st3" width="137.196" height="298.95"/>
		<rect id="_x31_9Forward" class="st3" width="137.196" height="234.13"/>
	</g>
</g>
</svg>
