<?xml version="1.0" encoding="utf-8"?>
<!-- Generator: Adobe Illustrator 26.0.0, SVG Export Plug-In . SVG Version: 6.00 Build 0)  -->
<svg version="1.1" id="EPIC_DECK_17" xmlns="http://www.w3.org/2000/svg" xmlns:xlink="http://www.w3.org/1999/xlink" x="0px"
	 y="0px" width="152.2px" height="948.1px" viewBox="0 0 152.2 948.1" style="enable-background:new 0 0 152.2 948.1;"
	 xml:space="preserve">
<style type="text/css">
	.st0{fill:#FFFFFF;}
	.st1{fill:none;stroke:#D5DCE0;stroke-width:0.5;}
	.st2{fill:#EFF2F5;stroke:#FFFFFF;stroke-width:0.5;stroke-miterlimit:10;}
	.st3{fill:none;stroke:#D5DCE0;stroke-width:0.25;}
	.st4{fill:#DFECF0;stroke:#CEDFE5;stroke-width:0.5;}
	.st5{fill:none;stroke:#CEDFE5;stroke-width:0.5;}
	.st6{fill:#FFFFFF;stroke:#D5DBDF;stroke-width:0.5;}
	.st7{fill:none;stroke:#D5DBDF;stroke-width:0.5;}
	.st8{fill:#6E8396;}
	.st9{fill:#6E8496;}
	.st10{fill:none;stroke:#EEF2F5;stroke-width:0.5;stroke-miterlimit:10;stroke-dasharray:2,2;}
	.st11{fill:#EEF2F5;stroke:#FFFFFF;stroke-width:0.5;stroke-miterlimit:10;}
	.st12{fill:none;}
	.st13{fill:none;stroke:#076FA0;stroke-miterlimit:10;}
</style>
<g id="EPIC_DECK_17_BOTTOM">
	<path class="st0" d="M0.5,292.6l0.2,1.8c0,0,11.5,14.7,26,23c14.6,8.2,26.3,11.4,26.3,11.4l-0.9,4.8l-1.8,0.4l-2,2.2l-1.5,1.8
		l-0.8,2.7l1.8,0.6l0.4,2.7l1.7,2.3l3,1.4h3.2l2.5-1.4l1.7-2.4l1.7,0.2l0.8-2.8l-0.8-3l-1.2-2.2l-1.7-1.5l0.9-3.8
		c0,0,11.7,1.2,16.7,1.3s16.2-1.5,16.2-1.5l0.6,3.9l-1.9,1.5l-1,2.6l-0.4,2.6l0.3,3.2l1.9-0.7l1.4,2.2l2.4,1.6l3.3,0.7l2.9-1.7
		l2.2-2.1l0.2-2.9l1.8-0.3l-0.4-2.8l-1.8-2.8l-2-1.6l-1.9-0.8l-0.7-3.6c0,0,20.3-6.5,33.1-15.6s18.3-17.9,18.3-17.9v-5.2l-0.1-268.4
		c0,0-1.4-9.5-7.9-13.4c-2.1-1.2-8.1-3.1-12.9-4c-4.5-0.9-43.2-4.2-43.2-4.2L75.7,0.5L60.5,1.1L24.6,5c0,0-10.4,1.9-12.9,3
		s-5.6,3.4-6.3,4.2c-2.2,2.7-4.3,8.2-4.3,8.2L0.5,292.6z"/>
	<path class="st0" d="M1.6,779.8h150l-0.3,134.1c0,0-2,11.3-9.3,16.3s-24.7,17.3-71.7,17s-58.7-15-62.3-18.3s-7-14-7-14L1.6,779.8z"
		/>
	<line class="st1" x1="15.6" y1="897.8" x2="15.6" y2="857.8"/>
	<line class="st1" x1="15.6" y1="857.8" x2="1.3" y2="857.8"/>
	<line class="st1" x1="137" y1="897.4" x2="137" y2="860.2"/>
	<line class="st1" x1="137" y1="860.1" x2="151.6" y2="860.1"/>
	<line class="st1" x1="64" y1="897.8" x2="76.3" y2="897.8"/>
	<line class="st1" x1="64" y1="910.7" x2="64" y2="897.8"/>
	<line class="st1" x1="25.4" y1="897.8" x2="25.4" y2="912.6"/>
	<line class="st1" x1="88.6" y1="897.8" x2="76.3" y2="897.8"/>
	<line class="st1" x1="88.6" y1="910.7" x2="88.6" y2="897.8"/>
	<line class="st1" x1="127.2" y1="897.6" x2="127.2" y2="910.7"/>
	<line class="st1" x1="15.6" y1="897.8" x2="30.3" y2="897.8"/>
	<line class="st1" x1="30.1" y1="891" x2="15.6" y2="891"/>
	<line class="st1" x1="61.9" y1="914.7" x2="27.6" y2="914.7"/>
	<path class="st1" d="M61.9,914.7c1.2,0,2.1-1,2.1-2.1l0,0"/>
	<line class="st1" x1="137" y1="897.5" x2="121.5" y2="897.5"/>
	<line class="st1" x1="64" y1="910.6" x2="64" y2="912.6"/>
	<path class="st1" d="M27.6,914.7c-1.2,0-2.1-1-2.1-2.1l0,0"/>
	<line class="st1" x1="88.6" y1="907.4" x2="64" y2="907.4"/>
	<line class="st1" x1="90.7" y1="914.7" x2="125" y2="914.7"/>
	<path class="st1" d="M88.6,912.6c0,1.2,1,2.1,2.1,2.1l0,0"/>
	<line class="st1" x1="88.6" y1="910.6" x2="88.6" y2="912.6"/>
	<line class="st1" x1="131.1" y1="897.5" x2="126.7" y2="897.5"/>
	<line class="st1" x1="127.2" y1="912.6" x2="127.2" y2="910.7"/>
	<path class="st1" d="M125,914.7c1.2,0,2.1-1,2.1-2.1l0,0"/>
	<line class="st1" x1="30.3" y1="897.8" x2="30.3" y2="891"/>
	<rect x="11.5" y="786.5" class="st1" width="129.2" height="65"/>
	<line class="st1" x1="25.7" y1="911.4" x2="63.9" y2="911.4"/>
	<line class="st1" x1="88.7" y1="911.4" x2="127" y2="911.4"/>
	<line class="st1" x1="131.9" y1="897.5" x2="131.9" y2="904.8"/>
	<line class="st1" x1="135.7" y1="897.5" x2="135.7" y2="905.3"/>
	<line class="st1" x1="131.9" y1="904.4" x2="135.7" y2="904.4"/>
	<line class="st1" x1="131.9" y1="901.1" x2="135.7" y2="901.1"/>
	<line class="st1" x1="131.9" y1="901.9" x2="135.7" y2="901.9"/>
	<line class="st1" x1="131.9" y1="902.7" x2="135.7" y2="902.7"/>
	<line class="st1" x1="131.9" y1="903.6" x2="135.7" y2="903.6"/>
	<line class="st1" x1="135.7" y1="905.3" x2="131.9" y2="904.8"/>
	<line class="st1" x1="131.9" y1="898.6" x2="135.7" y2="898.6"/>
	<line class="st1" x1="131.9" y1="899.4" x2="135.7" y2="899.4"/>
	<line class="st1" x1="131.9" y1="900.2" x2="135.7" y2="900.2"/>
	<line class="st1" x1="131.9" y1="897.5" x2="131.9" y2="904.8"/>
	<line class="st1" x1="135.7" y1="897.5" x2="135.7" y2="905.3"/>
	<line class="st1" x1="131.9" y1="904.4" x2="135.7" y2="904.4"/>
	<line class="st1" x1="131.9" y1="901.1" x2="135.7" y2="901.1"/>
	<line class="st1" x1="131.9" y1="901.9" x2="135.7" y2="901.9"/>
	<line class="st1" x1="131.9" y1="902.7" x2="135.7" y2="902.7"/>
	<line class="st1" x1="131.9" y1="903.6" x2="135.7" y2="903.6"/>
	<line class="st1" x1="131.9" y1="898.6" x2="135.7" y2="898.6"/>
	<line class="st1" x1="131.9" y1="899.4" x2="135.7" y2="899.4"/>
	<line class="st1" x1="131.9" y1="900.2" x2="135.7" y2="900.2"/>
	<line class="st1" x1="11.1" y1="886.6" x2="11.1" y2="877.9"/>
	<line class="st1" x1="15.3" y1="878.9" x2="11.1" y2="878.9"/>
	<line class="st1" x1="15.3" y1="882.7" x2="11.1" y2="882.7"/>
	<line class="st1" x1="15.3" y1="881.7" x2="11.1" y2="881.7"/>
	<line class="st1" x1="15.3" y1="880.8" x2="11.1" y2="880.8"/>
	<line class="st1" x1="15.3" y1="879.8" x2="11.1" y2="879.8"/>
	<line class="st1" x1="11.2" y1="877.9" x2="15.4" y2="878.5"/>
	<line class="st1" x1="15.3" y1="885.5" x2="11.1" y2="885.5"/>
	<line class="st1" x1="15.3" y1="884.5" x2="11.1" y2="884.5"/>
	<line class="st1" x1="15.3" y1="883.6" x2="11.1" y2="883.6"/>
	<polyline class="st1" points="11.1,877.9 11.1,891.1 15.5,891.1 	"/>
	<line class="st1" x1="15.3" y1="878.9" x2="11.1" y2="878.9"/>
	<line class="st1" x1="15.3" y1="882.7" x2="11.1" y2="882.7"/>
	<line class="st1" x1="15.3" y1="881.7" x2="11.1" y2="881.7"/>
	<line class="st1" x1="15.3" y1="880.8" x2="11.1" y2="880.8"/>
	<line class="st1" x1="15.3" y1="879.8" x2="11.1" y2="879.8"/>
	<line class="st1" x1="15.3" y1="886.4" x2="11.1" y2="886.4"/>
	<line class="st1" x1="15.3" y1="884.5" x2="11.1" y2="884.5"/>
	<line class="st1" x1="15.3" y1="886.4" x2="11.1" y2="886.4"/>
	<line class="st1" x1="15.3" y1="883.6" x2="11.1" y2="883.6"/>
	<line class="st1" x1="76.1" y1="786.8" x2="76.1" y2="851.5"/>
	<circle class="st1" cx="76.1" cy="818.8" r="6.8"/>
	<path class="st1" d="M140.8,797.5c0,0-29-3.2-29.5,20.8s29.2,22.5,29.2,22.5"/>
	<path class="st1" d="M11.6,797.5c0,0,29-3.2,29.5,20.8s-29.2,22.5-29.2,22.5"/>
	<ellipse class="st1" cx="120.1" cy="818.4" rx="5" ry="4.9"/>
	<rect x="120.8" y="813.5" class="st1" width="19.8" height="9.8"/>
	<ellipse class="st1" cx="120.1" cy="818.3" rx="5" ry="4.8"/>
	<ellipse class="st1" cx="32.2" cy="818.4" rx="5" ry="4.9"/>
	<rect x="11.7" y="813.5" class="st1" width="19.8" height="9.8"/>
	<ellipse class="st1" cx="32.2" cy="818.3" rx="5" ry="4.8"/>
	<line class="st1" x1="138.8" y1="815.5" x2="138.8" y2="821.3"/>
	<circle class="st1" cx="137.8" cy="818.5" r="0.8"/>
	<line class="st1" x1="14.1" y1="815.5" x2="14.1" y2="821.3"/>
	<circle class="st1" cx="15.1" cy="818.5" r="0.8"/>
	<line class="st1" x1="63.1" y1="97.1" x2="89.5" y2="97.1"/>
	<line class="st1" x1="109.5" y1="233.3" x2="109.5" y2="296.3"/>
	<line class="st1" x1="42.6" y1="233.3" x2="109.6" y2="233.3"/>
	<polyline class="st1" points="89.8,302 89.8,259.7 82.9,259.7 82.9,233.5 	"/>
	<line class="st1" x1="109.5" y1="233.3" x2="109.5" y2="106.6"/>
	<line class="st1" x1="43.1" y1="233.3" x2="43.1" y2="106.8"/>
	<line class="st1" x1="60.9" y1="233.3" x2="60.9" y2="192.4"/>
	<line class="st1" x1="43.1" y1="192.4" x2="60.6" y2="192.4"/>
	<line class="st1" x1="91.6" y1="233.3" x2="91.6" y2="192.4"/>
	<line class="st1" x1="109.3" y1="192.4" x2="91.8" y2="192.4"/>
	<path class="st1" d="M54.1,103.2c0.1-3.4,2.9-6.1,6.3-6.1h2.7"/>
	<path class="st1" d="M45.4,104c-1,0-2.3,1.5-2.3,2.5"/>
	<path class="st1" d="M109.5,106.4c0-1-1.3-2.4-2.4-2.4l0,0"/>
	<line class="st1" x1="100" y1="183.2" x2="109.5" y2="173.6"/>
	<line class="st1" x1="51.4" y1="183.2" x2="43.1" y2="174.9"/>
	<line class="st1" x1="54.1" y1="103.2" x2="54.1" y2="104"/>
	<line class="st1" x1="107.2" y1="104" x2="98.5" y2="104"/>
	<line class="st1" x1="45.4" y1="104" x2="54.1" y2="104"/>
	<line class="st1" x1="54.1" y1="103.2" x2="54.1" y2="104"/>
	<path class="st1" d="M98.5,103.2c-0.1-3.4-2.9-6.1-6.3-6.1h-2.7"/>
	<line class="st1" x1="98.5" y1="103.2" x2="98.5" y2="104"/>
	<line class="st1" x1="98.5" y1="103.2" x2="98.5" y2="104"/>
	<polyline class="st1" points="86.9,297.5 87.5,296.7 87.8,296.7 87.8,296.3 88.6,296.3 88.6,292.5 87.8,292.5 87.8,292.2 
		82.1,292.2 	"/>
	<polyline class="st1" points="82.2,292.2 42.6,292.2 42.6,259.3 42.6,256 42.6,233.3 	"/>
	<polyline class="st1" points="37.4,49.4 37.4,71.7 41.7,71.8 41.7,106.8 43.1,106.8 	"/>
	<polyline class="st1" points="114.8,49.5 114.8,71.9 110.9,71.8 110.9,106.6 109.5,106.6 	"/>
	<line class="st1" x1="59.3" y1="74.5" x2="59.3" y2="51.4"/>
	<polyline class="st1" points="59.3,74.5 59.3,74.9 59.2,75.3 59,75.7 58.7,76.1 58.4,76.4 58.1,76.6 57.7,76.8 57.3,76.9 
		56.9,76.9 	"/>
	<line class="st1" x1="56.9" y1="76.9" x2="41.8" y2="76.9"/>
	<line class="st1" x1="93.2" y1="74.5" x2="93.2" y2="51.4"/>
	<polyline class="st1" points="93.2,74.5 93.2,74.9 93.3,75.3 93.5,75.7 93.8,76.1 94.1,76.4 94.4,76.6 94.8,76.8 95.2,76.9 
		95.6,76.9 	"/>
	<line class="st1" x1="95.6" y1="76.9" x2="110.7" y2="76.9"/>
	<line class="st1" x1="43.3" y1="183.3" x2="109.6" y2="183.3"/>
	<rect x="100.2" y="263.3" class="st1" width="9.3" height="37.1"/>
	<line class="st1" x1="94.1" y1="239" x2="94.1" y2="247.7"/>
	<line class="st1" x1="98.2" y1="239.5" x2="94.1" y2="239.5"/>
	<line class="st1" x1="98.2" y1="240.5" x2="94.1" y2="240.5"/>
	<line class="st1" x1="98.2" y1="241.4" x2="94.1" y2="241.4"/>
	<line class="st1" x1="98.2" y1="242.4" x2="94.1" y2="242.4"/>
	<line class="st1" x1="98.2" y1="243.3" x2="94.1" y2="243.3"/>
	<line class="st1" x1="98.2" y1="244.3" x2="94.1" y2="244.3"/>
	<line class="st1" x1="98.2" y1="245.2" x2="94.1" y2="245.2"/>
	<line class="st1" x1="98.2" y1="246.2" x2="94.1" y2="246.2"/>
	<line class="st1" x1="98.2" y1="247.1" x2="94.1" y2="247.1"/>
	<line class="st1" x1="89.3" y1="248.2" x2="93.4" y2="248.2"/>
	<line class="st1" x1="89.3" y1="247.3" x2="93.4" y2="247.3"/>
	<line class="st1" x1="89.3" y1="246.3" x2="93.4" y2="246.3"/>
	<line class="st1" x1="89.3" y1="245.3" x2="93.4" y2="245.3"/>
	<line class="st1" x1="89.3" y1="244.3" x2="93.4" y2="244.3"/>
	<line class="st1" x1="98.2" y1="233.4" x2="98.2" y2="247.5"/>
	<path class="st1" d="M94.1,238.9c0-0.2-0.2-0.4-0.4-0.4s-0.4,0.2-0.4,0.4l0,0"/>
	<line class="st1" x1="94.1" y1="238.9" x2="94.1" y2="239"/>
	<line class="st1" x1="93.4" y1="238.9" x2="93.4" y2="239"/>
	<line class="st1" x1="93.4" y1="239" x2="93.4" y2="248.7"/>
	<line class="st1" x1="93.4" y1="242.3" x2="89.3" y2="242.3"/>
	<line class="st1" x1="93.4" y1="241.4" x2="89.3" y2="241.4"/>
	<line class="st1" x1="93.4" y1="240.4" x2="89.3" y2="240.4"/>
	<line class="st1" x1="93.3" y1="243.3" x2="89.3" y2="243.3"/>
	<line class="st1" x1="100.5" y1="272.5" x2="109.4" y2="263.6"/>
	<line class="st1" x1="100.6" y1="263.6" x2="109.5" y2="272.5"/>
	<polyline class="st1" points="100.5,281.5 109.4,272.6 100.6,272.6 109.5,281.5 	"/>
	<polyline class="st1" points="100.5,290.9 109.4,282 100.6,282 109.5,290.9 	"/>
	<polyline class="st1" points="100.5,299.9 109.4,291 100.6,291 109.5,299.9 	"/>
	<line class="st1" x1="45.8" y1="43.5" x2="37.3" y2="49.5"/>
	<line class="st1" x1="106.2" y1="43.5" x2="114.7" y2="49.5"/>
	<polyline class="st1" points="45.7,43.5 57.2,43.5 106.1,43.5 	"/>
	<line class="st1" x1="59.3" y1="51.4" x2="93.2" y2="51.4"/>
	<line class="st1" x1="70.8" y1="84.4" x2="75.9" y2="84.4"/>
	<line class="st1" x1="70.8" y1="80" x2="75.9" y2="80"/>
	<line class="st1" x1="70.8" y1="82.2" x2="75.9" y2="82.2"/>
	<line class="st1" x1="71.2" y1="80" x2="71.2" y2="84.3"/>
	<line class="st1" x1="72.1" y1="80" x2="72.1" y2="84.3"/>
	<line class="st1" x1="73.1" y1="80" x2="73.1" y2="84.3"/>
	<line class="st1" x1="74" y1="80" x2="74" y2="84.3"/>
	<line class="st1" x1="74.9" y1="80" x2="74.9" y2="84.3"/>
	<line class="st1" x1="75.9" y1="80" x2="75.9" y2="84.3"/>
	<path class="st1" d="M76.8,223.2c0,0,0.5,1.3,0.1,2.8s-1.1,2.5-1.7,2.3c-0.6-0.1-0.9-1.9-0.7-3c0.2-1.1,0.4-1.4,0.8-2.2
		c0.4-0.7,1.4-2.4,3.3-2.5c1.4-0.1,2.1,1.5,2.1,1.5c0.6,1.4,0.8,5.1-0.4,7c-1,1.6-3,4.2-6.1,3.2c-3.3-1-4-3.9-3.9-6.2
		c0.1-1.8,0.7-3.5,1.2-4.5c0.3-0.7-0.3-1.5-1-1.3"/>
	<line class="st1" x1="80.7" y1="222.4" x2="76.9" y2="223.5"/>
	<line class="st1" x1="80.9" y1="223.5" x2="77" y2="224.3"/>
	<line class="st1" x1="81" y1="224.8" x2="77" y2="224.9"/>
	<line class="st1" x1="81" y1="226.1" x2="77" y2="225.5"/>
	<line class="st1" x1="80.8" y1="227.3" x2="76.8" y2="226.2"/>
	<line class="st1" x1="80.5" y1="228.4" x2="76.6" y2="226.8"/>
	<line class="st1" x1="79.2" y1="230.5" x2="75.9" y2="227.9"/>
	<line class="st1" x1="78.3" y1="231.4" x2="75.4" y2="228.3"/>
	<line class="st1" x1="79.9" y1="229.4" x2="76.3" y2="227.4"/>
	<line class="st1" x1="74.8" y1="223.7" x2="71.5" y2="221.9"/>
	<line class="st1" x1="74.6" y1="224.4" x2="70.9" y2="222.9"/>
	<line class="st1" x1="74.4" y1="225" x2="70.6" y2="224.1"/>
	<line class="st1" x1="74.3" y1="225.6" x2="70.3" y2="225.3"/>
	<line class="st1" x1="74.3" y1="226.2" x2="70.2" y2="226.6"/>
	<line class="st1" x1="74.4" y1="226.9" x2="70.3" y2="227.8"/>
	<line class="st1" x1="74.5" y1="227.6" x2="70.6" y2="229"/>
	<line class="st1" x1="74.8" y1="228.2" x2="71.2" y2="230"/>
	<line class="st1" x1="89.1" y1="233.4" x2="89.1" y2="248.7"/>
	<polyline class="st1" points="65.5,78.4 84.7,78.4 84.7,89 65.7,89 65.7,83.7 	"/>
	<polygon class="st2" points="32.6,77.5 32.4,76 10.2,75.8 10.2,76.6 1.1,76.6 1.1,77.5 10.1,77.5 	"/>
	<polygon class="st2" points="120.3,77.5 120.5,76 142.7,75.8 142.6,76.6 151.5,76.6 151.5,77.5 142.8,77.5 	"/>
	<line class="st1" x1="49.2" y1="343.4" x2="60.6" y2="336.8"/>
	<polyline class="st1" points="60.8,336.5 51.6,334.3 58.3,345.8 49,343.6 	"/>
	<polyline class="st1" points="104.1,343.6 92.7,336.6 92.6,336.6 101.9,334.2 104.1,343.6 94.9,345.8 101.8,334.5 	"/>
	<line class="st1" x1="49.1" y1="343.5" x2="51.6" y2="334.4"/>
	<line class="st1" x1="58.3" y1="345.7" x2="60.8" y2="336.6"/>
	<line class="st1" x1="92.5" y1="336.6" x2="94.9" y2="345.7"/>
	<polyline class="st1" points="99,322.8 99.7,329.1 100.6,333.7 102.7,334.5 104.5,336.1 105.8,338.2 106.3,340.6 104.7,340.9 
		104.7,341.3 104.1,343.6 102.4,345.9 99.8,347.1 96.9,347 94.5,345.5 93.1,343.5 93,343.2 91.3,343.5 90.9,341.1 91.2,338.7 
		92.4,336.5 94,334.9 93.2,330.6 	"/>
	<polyline class="st1" points="54,322.6 53.4,329.2 52.6,333.7 50.4,334.5 48.6,336.1 47.3,338.2 46.8,340.6 48.5,340.9 48.5,341.3 
		49,343.6 50.7,345.9 53.3,347.1 56.2,347 58.6,345.5 60,343.5 60.1,343.2 61.8,343.5 62.2,341.1 61.9,338.7 60.8,336.5 59.1,334.9 
		60,330.7 	"/>
	<line class="st3" x1="32.6" y1="883" x2="23.6" y2="892"/>
	<path class="st4" d="M40.9,642c-1.9,0.6-4.2,2.4-5.4,4.6s-3.1,6.1-2.9,10s1,15.9,1,15.9s0.6,13.8,1.1,20c0.4,6.4,0.1,11.8-0.1,16.3
		c-0.3,4.1-0.9,8-0.9,10.6s0.1,8.5,3.4,16.2c3.3,7.7,8.5,12.7,11.9,14.5s8.2,4.5,14.6,1.9s10.1-9.8,11.1-19.1l2.8-2.5l1.3,1.6
		c0.1,0.9-0.9,8.9-4.1,14.9S65.6,757,58.5,757c-5.5,0-9.3-1.2-15.6-6.2c-6.2-5-11.8-18.3-12.6-24.6c-0.8-5.9-0.4-11.2,0-14.6
		s1.1-9.7,0.6-17.2c-0.6-11.1-1.8-33.8-1.9-37.5s0.4-7,2.7-11.1c2.1-3.8,3.7-5,5.7-6.4L40.9,642z"/>
	<path class="st4" d="M55.4,644.5c-1.9-4.5-6.5-7.7-11.9-7.7"/>
	<path class="st4" d="M88.7,597.8c0,0-3.2-6-9-10.5c-5-3.9-10-6.1-17.4-6.2C52.6,581,32,588.8,32,612.4c0,7.2,2.1,16.8,11.2,24
		c5.9,4.7,12.1,8,17.2,10.8c3.3,1.8,6.9,4.7,9.9,9.7c2.5,4.3,2.2,12.7,2.2,12.7h-4.7c0,0,0.3-6.8-1.7-10.2c-2.8-4.6-7.8-7.3-7.8-7.3
		s-2.8-1.6-17.1-10.2c-15.5-9.3-18.9-32.2-10.6-47.4c7.7-14.1,20.7-18.9,31.4-18.9s22.1,4.7,29.5,15.5c7.4,10.7,7.9,25.3,7.9,25.3
		L88.7,597.8z"/>
	<path class="st4" d="M142.8,672.3c-2.3-2.8-4.3-3.2-5.8-3.4s-5.5-0.2-7.5,2.7c2.7-7.5,5.7-12.5,5.9-16.4c0-8.1-6.5-10.1-10.5-9.5
		c-3.7,0.5-7.1,2.5-7.1,2.5l-0.3,4.5c0,0,4.5-1.7,6-2.3s4.5-1.2,6.5,0.9c2,2.1,1.3,4.8,0.9,6s-2.7,6.6-2.7,6.6s-1.5,3.5-2.2,5.7
		s-1,5.7-0.2,8.5c0.8,2.7,2.7,5.5,5.1,7c2.1,1.3,3.8,1.8,6.6,1.2c2.8-0.5,4.5-2.3,5.7-4.1C145.1,679.2,144.9,674.9,142.8,672.3z
		 M135.7,682.5c-2.7,0-4.8-2.2-4.8-4.8c0-2.7,2.2-4.8,4.8-4.8c2.7,0,4.8,2.2,4.8,4.8C140.6,680.3,138.4,682.5,135.7,682.5z"/>
	<path class="st5" d="M134.2,682.3c-2.2-0.7-3.4-2.9-4.2-4.9c-0.7-2-1-4.8-0.2-6.6c0.9-2.3,2.6-6.1,2.6-6.1s2.1-5.2,2.8-7.6
		s0.7-6.6-2.7-9.3"/>
	<path class="st4" d="M50.4,647.6c0.5,1.1,0.5,1.3,0.5,2.3s-0.6,6.1,0.9,9.4c1.5,3.3,2.9,5.7,4.4,7.3s3.6,4.7,5.4,2.5
		c1.8-2.2-0.6-3.3-1.8-4.5s-3.3-3.6-4.1-6.6s-0.9-4.5-0.8-5.7c0.1-1.2,0-2,0-2"/>
	<path class="st4" d="M113.7,649.8c-1.3,0.5-2.3,0.9-2.7,1.1c-1.7,0.7-3.5,0.8-4.8-0.2c-1.6-1.2-2.1-2.6-2.1-3.9
		c0-0.9,0.8-4.2,4.7-4.2c3.7,0,5.4,4.5,4.9,9.1c-0.5,4.3-2.7,7.8-6.3,10.1c-3.6,2.3-8.5,3-11.1,3s-8.8,0.1-8.8,0.1s-2.9-0.2-2.9,1.9
		s2.1,2.2,2.9,2.2s5.1,0,5.1,0s2-0.1,4.3-0.1s7.4-0.9,10.8-2.6s7.4-5.3,9.1-10.3s1-7.5,0.3-10.4c-0.7-2.8-3.9-6.9-8.8-6.9
		s-8.3,4.4-8.3,8.4s2.3,5.5,3,6.3s3.1,2,5.5,2s4.4-1.2,4.4-1.2"/>
	<path class="st0" d="M117.6,728.5l-9.3-58.3H88.6l-0.2-7.3h-6.1l-0.2-11.1c0,0-0.5-5.4-5.8-5.5s-5.2,5.8-5.2,5.8l0.1,11.1
		l-10.3,0.1l-5.5,5.1l0.1,1.7H45.2l-10,58.7h5.2v0.2v2.2l2.3,0.4l2-0.7l1.5,0.8l1.6-0.1l1-0.4l1.1,0.3l1.7,1.4l1.1-1.4l1.2,0.4
		l1.2-0.6l1.3,0.3l1.2,0.8l1.5,0.2l1.2-1.8l1.1,1.1l1.4-0.4l1.4,0.5l1.8-0.7l2.2,1.3l1.7-1.5l2,1.7l2.3,0.1l3.2-2.8l2.5,2.3l2.2-1.2
		l2,2l3.1-1.7l2.1,1.8l1.7-1.1l1.4,1.2l0.4-0.8l0,0l0.6,1.1l-0.9,2.5l1.1,1.3l2.8-1.2l2.9,1.2l2.1-0.8l0.3-2.3l-1.3-0.2v-1.4
		l0.5-0.2l1.3-1.3l1.4-0.4l0.8,2l1.4-1.1l1.2,1.5l1.6-0.4v-2l1.9,0.7l2.7-0.4l-0.1-2.6L117.6,728.5z"/>
	<polyline class="st6" points="76.6,652 76.5,670.4 74.3,670.4 74.3,663.4 60.8,663.3 55.8,668.4 55.8,670.1 	"/>
	<path class="st4" d="M125.4,683.5c0,0,0-2.7,0.2-4c0.1-0.4,0.2-1.5,0.2-1.5s0.7,1.8,1.5,3c1.1,1.7,2,2.7,2,2.7V716h-3.8
		L125.4,683.5L125.4,683.5z"/>
	<path class="st7" d="M71,658.4v-6.2c0-3.1,2.5-5.6,5.6-5.6s5.6,2.5,5.6,5.6v11.1V681"/>
	<line class="st7" x1="71.2" y1="652.3" x2="82.1" y2="652.3"/>
	<line class="st7" x1="71.2" y1="653.5" x2="82.1" y2="653.5"/>
	<line class="st7" x1="76.5" y1="654.5" x2="82.1" y2="654.5"/>
	<line class="st7" x1="76.5" y1="655.6" x2="82.1" y2="655.6"/>
	<line class="st7" x1="76.5" y1="656.6" x2="82.1" y2="656.6"/>
	<line class="st7" x1="76.5" y1="657.6" x2="82.1" y2="657.6"/>
	<line class="st7" x1="76.5" y1="658.7" x2="82.1" y2="658.7"/>
	<line class="st7" x1="76.5" y1="659.7" x2="82.1" y2="659.7"/>
	<line class="st7" x1="76.5" y1="660.8" x2="82.1" y2="660.8"/>
	<line class="st7" x1="82.1" y1="674.2" x2="86.5" y2="674.2"/>
	<line class="st7" x1="82.1" y1="675.3" x2="86.5" y2="675.3"/>
	<line class="st7" x1="82.1" y1="676.3" x2="86.5" y2="676.3"/>
	<line class="st7" x1="82.1" y1="677.3" x2="86.5" y2="677.3"/>
	<line class="st7" x1="82.1" y1="678.4" x2="86.5" y2="678.4"/>
	<line class="st7" x1="82.1" y1="679.4" x2="86.5" y2="679.4"/>
	<line class="st7" x1="82.1" y1="680.5" x2="86.5" y2="680.5"/>
	<line class="st7" x1="68.9" y1="691.7" x2="68.9" y2="687.7"/>
	<line class="st7" x1="70" y1="691.7" x2="70" y2="687.7"/>
	<line class="st7" x1="71" y1="691.7" x2="71" y2="687.7"/>
	<line class="st7" x1="72" y1="691.7" x2="72" y2="687.7"/>
	<line class="st7" x1="68.8" y1="687.8" x2="64" y2="687.8"/>
	<line class="st7" x1="68.8" y1="686.7" x2="64" y2="686.7"/>
	<line class="st7" x1="68.8" y1="685.7" x2="64" y2="685.7"/>
	<line class="st7" x1="68.8" y1="684.7" x2="64" y2="684.7"/>
	<line class="st7" x1="73.2" y1="691.7" x2="73.2" y2="687.7"/>
	<line class="st7" x1="74.2" y1="691.7" x2="74.2" y2="687.7"/>
	<line class="st7" x1="75.2" y1="691.7" x2="75.2" y2="687.7"/>
	<line class="st7" x1="76.2" y1="691.7" x2="76.2" y2="687.7"/>
	<line class="st7" x1="77.3" y1="691.7" x2="77.3" y2="687.7"/>
	<line class="st7" x1="78.3" y1="691.7" x2="78.3" y2="687.7"/>
	<line class="st7" x1="79.4" y1="691.7" x2="79.4" y2="687.7"/>
	<polyline class="st7" points="82.1,663.2 88.5,663.2 88.5,674 86.5,674 86.5,681 	"/>
	<path class="st6" d="M74.3,669.4v9c0,0-0.4,2.7-3.8,2.7s-3.7-2.8-3.7-2.8v-9h-1.1v-5.9"/>
	<polygon class="st7" points="35.2,728.8 45.2,670.2 66.8,670.3 66.8,669.3 74.3,669.3 74.3,670.3 108.1,670.5 117.6,728.5 	"/>
	<line class="st7" x1="63.9" y1="670.3" x2="63.9" y2="728.7"/>
	<line class="st7" x1="88.5" y1="670.4" x2="88.5" y2="728.6"/>
	<polyline class="st7" points="40.3,729 40.3,731.1 42.6,731.6 44.6,730.9 46.1,731.7 47.7,731.7 48.7,731.2 49.8,731.5 51.5,732.9 
		52.5,731.5 53.7,731.9 54.9,731.3 56.1,731.6 57.3,732.4 58.8,732.6 60,730.8 61.1,731.9 62.4,731.5 63.9,732 65.7,731.2 
		67.9,732.6 69.5,731.1 71.6,732.8 73.9,732.9 77.1,730 79.7,732.3 81.9,731.1 83.9,733.1 87,731.5 89.1,733.2 90.7,732.1 
		92.2,733.3 93.3,730.9 94.5,732 95.8,731.1 96.9,732.5 98.2,731.6 99.3,733 100.6,732.6 102,731.2 103.4,730.9 104.2,732.9 
		105.6,731.7 106.8,733.3 108.4,732.9 108.4,730.9 110.3,731.5 112.9,731.1 112.9,728.5 	"/>
	<polyline class="st7" points="100.1,732.7 100.1,734.1 101.4,734.3 101.1,736.6 99,737.4 96.1,736.2 93.3,737.4 92.2,736.1 
		93.2,733.6 92.5,732.5 	"/>
	<polyline class="st7" points="93,734.6 94.4,734.5 94.6,733.3 96.5,733.2 98,734.6 100,733.9 	"/>
	<polyline class="st7" points="74.3,676.9 74.3,684.4 68.9,684.4 68.9,687.8 79.6,687.8 	"/>
	<line class="st7" x1="63.9" y1="691.5" x2="79.8" y2="691.5"/>
	<rect x="68.3" y="670.4" class="st7" width="4.6" height="3.5"/>
	<path class="st4" d="M99.4,616.9c0,12.4-10.1,22.5-22.5,22.5s-22.5-10.1-22.5-22.5s10.1-22.5,22.5-22.5
		C89.4,594.4,99.4,604.5,99.4,616.9z"/>
	<path class="st8" d="M62.2,613.8h2.1v0.9h-1.2v1.4h1v0.9h-1v1.4h1.2v0.9h-2.2C62.2,619.4,62.2,613.8,62.2,613.8z M64.9,613.8h0.9
		c1.1,0,1.8,0.6,1.8,1.9l0,0c0,1.3-0.7,1.9-1.7,1.9l0,0v1.8h-1C64.9,619.4,64.9,613.8,64.9,613.8z M65.9,616.7c0.4,0,0.7-0.3,0.7-1
		l0,0c0-0.7-0.3-1-0.7-1l0,0V616.7L65.9,616.7L65.9,616.7z M68,613.8h1v5.6h-1V613.8z M69.5,616.7v-0.2c0-2,0.7-2.7,1.6-2.7
		c0.3,0,0.4,0,0.6,0.1v1c-0.2-0.1-0.4-0.2-0.5-0.2c-0.4,0-0.7,0.4-0.7,1.8v0.2c0,1.5,0.3,1.8,0.8,1.8c0.2,0,0.3-0.1,0.5-0.2v1
		c-0.2,0.1-0.4,0.2-0.7,0.2C70.1,619.4,69.5,618.6,69.5,616.7z M73.5,613.8h0.9c1.1,0,1.8,0.6,1.8,1.9l0,0c0,1.3-0.7,1.9-1.7,1.9
		l0,0v1.8h-1C73.5,619.4,73.5,613.8,73.5,613.8z M74.5,616.7c0.4,0,0.7-0.3,0.7-1l0,0c0-0.7-0.3-1-0.7-1l0,0V616.7L74.5,616.7
		L74.5,616.7z M76.6,613.8h1v4.7h1v0.9h-2V613.8z M78.9,617.7v-4h1v4.1c0,0.5,0.2,0.7,0.4,0.7s0.4-0.2,0.4-0.7v-4.1h1v4
		c0,1.2-0.6,1.7-1.4,1.7S78.9,618.9,78.9,617.7z M82.2,613.8h0.9l1,2.8v-2.8h1v5.6h-0.9l-1-3v3h-1C82.2,619.4,82.2,613.8,82.2,613.8
		z M85.6,616.7v-0.2c0-1.8,0.8-2.7,1.9-2.7c0.3,0,0.5,0.1,0.7,0.2v1c-0.2-0.1-0.5-0.2-0.7-0.2c-0.6,0-0.9,0.6-0.9,1.8v0.3
		c0,1.5,0.4,1.8,0.8,1.8c0,0,0,0,0.1,0v-1.4H87v-0.9h1.4v3c-0.4,0.2-0.6,0.2-1,0.2C86.4,619.4,85.6,618.6,85.6,616.7z M88.9,613.8
		H91v0.9h-1.2v1.4h1v0.9h-1v1.4H91v0.9h-2.2L88.9,613.8L88.9,613.8z"/>
	<path class="st8" d="M44.9,739v-0.2c0-2,0.7-2.7,1.6-2.7c0.3,0,0.4,0,0.6,0.1v1c-0.2-0.1-0.4-0.2-0.5-0.2c-0.4,0-0.7,0.4-0.7,1.8
		v0.2c0,1.5,0.3,1.8,0.8,1.8c0.2,0,0.3-0.1,0.5-0.2v1c-0.2,0.1-0.4,0.2-0.7,0.2C45.6,741.7,44.9,740.9,44.9,739z M47.7,736.1h1v4.7
		h1v0.9h-2V736.1z M50.1,736.1h1v5.6h-1V736.1z M51.7,736.1h1l0.7,2l0.7-2h1v5.6h-0.9v-3.4l-0.7,2.1l0,0l-0.7-2.1v3.4h-0.9
		L51.7,736.1L51.7,736.1z M55.6,736.1h0.8c0.9,0,1.8,0.4,1.8,1.4l0,0c0,0.7-0.4,1.1-0.8,1.3c0.5,0.2,0.9,0.5,0.9,1.2v0.1
		c0,1-0.8,1.6-1.9,1.6h-0.9v-5.6H55.6z M56.6,738.4c0.4,0,0.7-0.2,0.7-0.7l0,0c0-0.5-0.3-0.7-0.7-0.7l0,0V738.4L56.6,738.4z
		 M56.6,740.8c0.4,0,0.8-0.3,0.8-0.7l0,0c0-0.5-0.3-0.7-0.8-0.7l0,0V740.8L56.6,740.8L56.6,740.8z M58.8,736.1h1v5.6h-1V736.1z
		 M60.3,736.1h0.9l1,2.8v-2.8h1v5.6h-0.9l-1-3v3h-1C60.3,741.7,60.3,736.1,60.3,736.1z M63.7,739v-0.2c0-1.8,0.8-2.7,1.9-2.7
		c0.3,0,0.5,0.1,0.7,0.2v1c-0.2-0.1-0.5-0.2-0.7-0.2c-0.6,0-0.9,0.6-0.9,1.8v0.3c0,1.5,0.4,1.8,0.8,1.8c0,0,0,0,0.1,0v-1.4h-0.5
		v-0.9h1.4v3c-0.4,0.2-0.6,0.2-1,0.2C64.5,741.7,63.7,740.9,63.7,739z M49.4,744.1h1l0.4,3.4l0.5-3.4h0.9l0.5,3.4l0.4-3.4h1
		l-0.8,5.6h-1l-0.5-3.3l-0.5,3.3h-1L49.4,744.1z M55.1,744.1h1l1.1,5.6h-1l-0.2-1.1h-0.9l-0.2,1.1H54L55.1,744.1z M55.9,747.7
		l-0.3-1.8l-0.3,1.8H55.9z M57.5,744.1h1v4.7h1v0.9h-2V744.1z M59.9,744.1h1v4.7h1v0.9h-2V744.1z"/>
	<path class="st8" d="M86.3,743.2V743c0-2,0.7-2.7,1.6-2.7c0.3,0,0.4,0,0.6,0.1v1c-0.2-0.1-0.4-0.2-0.5-0.2c-0.4,0-0.7,0.4-0.7,1.8
		v0.2c0,1.5,0.3,1.8,0.8,1.8c0.2,0,0.3-0.1,0.5-0.2v1c-0.2,0.1-0.4,0.2-0.7,0.2C86.9,746,86.3,745.2,86.3,743.2z M89.1,740.3h1v4.7
		h1v0.9h-2V740.3z M91.5,740.3h1v5.6h-1V740.3z M93,740.3h1l0.7,2l0.7-2h1v5.6h-0.9v-3.4l-0.7,2.1l0,0l-0.7-2.1v3.4H93V740.3
		L93,740.3z M96.9,740.3h0.8c0.9,0,1.8,0.4,1.8,1.4l0,0c0,0.7-0.4,1.1-0.8,1.3c0.5,0.2,0.9,0.5,0.9,1.2v0.1c0,1-0.8,1.6-1.9,1.6
		h-0.9L96.9,740.3L96.9,740.3z M97.9,742.7c0.4,0,0.7-0.2,0.7-0.7l0,0c0-0.5-0.3-0.7-0.7-0.7l0,0V742.7L97.9,742.7z M97.9,745
		c0.4,0,0.8-0.3,0.8-0.7l0,0c0-0.5-0.3-0.7-0.8-0.7l0,0V745L97.9,745L97.9,745z M100.1,740.3h1v5.6h-1V740.3z M101.7,740.3h0.9
		l1,2.8v-2.8h1v5.6h-0.9l-1-3v3h-1C101.7,745.9,101.7,740.3,101.7,740.3z M105,743.2V743c0-1.8,0.8-2.7,1.9-2.7
		c0.3,0,0.5,0.1,0.7,0.2v1c-0.2-0.1-0.5-0.2-0.7-0.2c-0.6,0-0.9,0.6-0.9,1.8v0.3c0,1.5,0.4,1.8,0.8,1.8c0,0,0,0,0.1,0v-1.4h-0.5
		v-0.9h1.4v3c-0.4,0.2-0.6,0.2-1,0.2C105.8,746,105,745.2,105,743.2z M90.8,748.3h1l0.4,3.4l0.5-3.4h0.9l0.5,3.4l0.4-3.4h1l-0.8,5.6
		h-1l-0.5-3.3l-0.5,3.3h-1L90.8,748.3z M96.5,748.3h1l1.1,5.6h-1l-0.2-1.1h-0.9l-0.2,1.1h-0.9L96.5,748.3z M97.3,751.9l-0.3-1.8
		l-0.3,1.8H97.3z M98.9,748.3h1v4.7h1v0.9h-2V748.3z M101.3,748.3h1v4.7h1v0.9h-2V748.3z"/>
	<path class="st9" d="M58.4,835.6v-1c0.3,0.2,0.6,0.3,0.9,0.3c0.3,0,0.5-0.1,0.5-0.5l0,0c0-0.3-0.1-0.4-0.5-1
		c-0.7-0.8-0.9-1.1-0.9-1.8l0,0c0-0.9,0.6-1.5,1.4-1.5c0.4,0,0.6,0.1,0.9,0.2v1c-0.3-0.2-0.5-0.3-0.7-0.3c-0.3,0-0.5,0.2-0.5,0.5
		l0,0c0,0.3,0.1,0.4,0.5,0.9c0.8,0.9,0.9,1.2,0.9,1.9l0,0c0,0.9-0.6,1.5-1.4,1.5C59,835.8,58.7,835.7,58.4,835.6z M61.2,830.2H62
		c1.1,0,1.8,0.6,1.8,1.9l0,0c0,1.3-0.7,1.9-1.7,1.9l0,0v1.8h-1C61.2,835.8,61.2,830.2,61.2,830.2z M62.1,833.1c0.4,0,0.7-0.3,0.7-1
		l0,0c0-0.7-0.3-1-0.7-1l0,0V833.1L62.1,833.1L62.1,833.1z M64.1,833.1v-0.3c0-1.8,0.6-2.7,1.5-2.7s1.5,0.9,1.5,2.7v0.3
		c0,1.8-0.6,2.7-1.5,2.7C64.7,835.9,64.1,835,64.1,833.1z M66.1,833.1v-0.3c0-1.4-0.2-1.8-0.5-1.8s-0.5,0.4-0.5,1.8v0.3
		c0,1.4,0.2,1.8,0.5,1.8S66.1,834.6,66.1,833.1z M67.6,830.2h1c1,0,1.7,0.5,1.7,1.8v0.1c0,0.7-0.3,1.2-0.7,1.5l0.8,2.3h-1l-0.6-2
		h-0.2v2h-1C67.6,835.8,67.6,830.2,67.6,830.2z M68.6,833c0.4,0,0.7-0.2,0.7-0.9V832c0-0.7-0.3-0.9-0.8-0.9l0,0L68.6,833L68.6,833
		L68.6,833z M71.2,831.1h-0.7v-0.9h2.4v0.9h-0.7v4.7h-1L71.2,831.1L71.2,831.1z M73.2,835.6v-1c0.3,0.2,0.6,0.3,0.9,0.3
		s0.5-0.1,0.5-0.5l0,0c0-0.3-0.1-0.4-0.5-1c-0.7-0.8-0.9-1.1-0.9-1.8l0,0c0-0.9,0.6-1.5,1.4-1.5c0.4,0,0.6,0.1,0.9,0.2v1
		c-0.3-0.2-0.5-0.3-0.7-0.3c-0.3,0-0.5,0.2-0.5,0.5l0,0c0,0.3,0.1,0.4,0.5,0.9c0.8,0.9,0.9,1.2,0.9,1.9l0,0c0,0.9-0.6,1.5-1.4,1.5
		C73.8,835.8,73.5,835.7,73.2,835.6z M77.1,833.1v-0.2c0-2,0.7-2.7,1.6-2.7c0.3,0,0.4,0,0.6,0.1v1c-0.2-0.1-0.4-0.2-0.5-0.2
		c-0.4,0-0.7,0.4-0.7,1.8v0.2c0,1.5,0.3,1.8,0.8,1.8c0.2,0,0.3-0.1,0.5-0.2v1c-0.2,0.1-0.4,0.2-0.7,0.2
		C77.7,835.8,77.1,835,77.1,833.1z M79.6,833.1v-0.3c0-1.8,0.6-2.7,1.5-2.7s1.5,0.9,1.5,2.7v0.3c0,1.8-0.6,2.7-1.5,2.7
		C80.2,835.9,79.6,835,79.6,833.1z M81.5,833.1v-0.3c0-1.4-0.2-1.8-0.5-1.8s-0.5,0.4-0.5,1.8v0.3c0,1.4,0.2,1.8,0.5,1.8
		S81.5,834.6,81.5,833.1z M83,830.2h1l0.7,2l0.7-2h1v5.6h-0.9v-3.4l-0.7,2.1l0,0l-0.7-2.1v3.4H83V830.2L83,830.2z M86.9,830.2h0.9
		c1.1,0,1.8,0.6,1.8,1.9l0,0c0,1.3-0.7,1.9-1.7,1.9l0,0v1.8h-1C86.9,835.8,86.9,830.2,86.9,830.2z M87.9,833.1c0.4,0,0.7-0.3,0.7-1
		l0,0c0-0.7-0.3-1-0.7-1l0,0V833.1L87.9,833.1L87.9,833.1z M90,830.2h1v4.7h1v0.9h-2V830.2z M92.4,830.2h2.1v0.9h-1.2v1.4h1v0.9h-1
		v1.4h1.2v0.9h-2.2L92.4,830.2L92.4,830.2z M95.7,832.9l-0.9-2.7h1l0.4,1.6l0.4-1.6h1l-0.9,2.7l0.9,2.9h-1l-0.5-1.7l-0.5,1.7h-1
		L95.7,832.9z"/>
	<path class="st9" d="M32.8,876.2h1l1.1,5.6h-1l-0.2-1.1h-0.9l-0.2,1.1h-0.9L32.8,876.2z M33.6,879.8l-0.3-1.8l-0.3,1.8H33.6z
		 M35.2,876.2h0.9c1.2,0,2,0.9,2,2.7v0.2c0,1.8-0.7,2.7-2,2.7h-0.9V876.2z M36.2,880.9c0.5,0,0.9-0.4,0.9-1.8v-0.2
		c0-1.4-0.4-1.8-0.9-1.8l0,0V880.9L36.2,880.9z M39.2,876.2h1l1.1,5.6h-1l-0.2-1.1h-0.9l-0.2,1.1h-0.9L39.2,876.2z M40,879.8
		l-0.3-1.8l-0.3,1.8H40z M42.9,876.2h1v4.7h1v0.9h-2V876.2z M45.3,876.2h1v5.6h-1V876.2z M46.9,876.2h2v0.9h-1.1v1.4h0.9v0.9h-0.9
		v2.3h-1L46.9,876.2L46.9,876.2z M49.9,877.1h-0.7v-0.9h2.4v0.9h-0.7v4.7h-1V877.1L49.9,877.1z"/>
	<path class="st9" d="M66.8,188.4h0.9c1.1,0,1.8,0.6,1.8,1.9l0,0c0,1.3-0.7,1.9-1.7,1.9l0,0v1.8h-1C66.8,194,66.8,188.4,66.8,188.4z
		 M67.8,191.3c0.4,0,0.7-0.3,0.7-1l0,0c0-0.7-0.3-1-0.7-1l0,0V191.3L67.8,191.3L67.8,191.3z M69.9,188.4h1c1,0,1.7,0.5,1.7,1.8v0.1
		c0,0.7-0.3,1.2-0.7,1.5l0.8,2.3h-1l-0.6-2h-0.2v2h-1C69.9,194.1,69.9,188.4,69.9,188.4z M70.9,191.1c0.4,0,0.7-0.2,0.7-0.9v-0.1
		c0-0.7-0.3-0.9-0.8-0.9l0,0L70.9,191.1L70.9,191.1z M73.1,188.4h1v5.6h-1V188.4z M74.4,188.4h1l0.5,3.6l0.5-3.6h1l-1,5.6h-1
		L74.4,188.4z M78.3,188.4h1l1.1,5.6h-1l-0.2-1.1h-0.9l-0.2,1.1h-0.9L78.3,188.4z M79.1,192l-0.3-1.8l-0.3,1.8H79.1z M81,189.3h-0.7
		v-0.9h2.4v0.9H82v4.7h-1V189.3L81,189.3z M83.1,188.4h2.1v0.9H84v1.4h1v0.9h-1v1.4h1.2v0.9H83L83.1,188.4L83.1,188.4z M62.6,199.3
		v-0.2c0-2,0.7-2.7,1.6-2.7c0.3,0,0.4,0,0.6,0.1v1c-0.2-0.1-0.4-0.2-0.5-0.2c-0.4,0-0.7,0.4-0.7,1.8v0.2c0,1.5,0.3,1.8,0.8,1.8
		c0.2,0,0.3-0.1,0.5-0.2v1c-0.2,0.1-0.4,0.2-0.7,0.2C63.2,202,62.6,201.2,62.6,199.3z M65.1,199.3V199c0-1.8,0.6-2.7,1.5-2.7
		s1.5,0.9,1.5,2.7v0.3c0,1.8-0.6,2.7-1.5,2.7C65.7,202.1,65.1,201.2,65.1,199.3z M67,199.3V199c0-1.4-0.2-1.8-0.5-1.8
		S66,197.6,66,199v0.3c0,1.4,0.2,1.8,0.5,1.8S67,200.8,67,199.3z M68.5,200.3v-4h1v4.1c0,0.5,0.2,0.7,0.4,0.7s0.4-0.2,0.4-0.7v-4.1
		h1v4c0,1.2-0.6,1.7-1.4,1.7S68.5,201.5,68.5,200.3z M71.8,196.4h1c1,0,1.7,0.5,1.7,1.8v0.1c0,0.7-0.3,1.2-0.7,1.5l0.8,2.3h-1
		l-0.6-2h-0.2v2h-1C71.8,202.1,71.8,196.4,71.8,196.4z M72.9,199.1c0.4,0,0.7-0.2,0.7-0.9v-0.1c0-0.7-0.3-0.9-0.8-0.9l0,0
		L72.9,199.1L72.9,199.1z M75.5,197.3h-0.7v-0.9h2.4v0.9h-0.7v4.7h-1L75.5,197.3L75.5,197.3z M78.2,199.8l-1-3.4h1l0.5,2.1l0.5-2.1
		h1l-1,3.4v2.2h-1V199.8L78.2,199.8z M81,196.4h1l1.1,5.6h-1l-0.2-1.1H81l-0.2,1.1h-0.9L81,196.4z M81.8,200l-0.3-1.8l-0.3,1.8H81.8
		z M83.4,196.4h1c1,0,1.7,0.5,1.7,1.8v0.1c0,0.7-0.3,1.2-0.7,1.5l0.8,2.3h-1l-0.6-2h-0.2v2h-1C83.4,202.1,83.4,196.4,83.4,196.4z
		 M84.4,199.1c0.4,0,0.7-0.2,0.7-0.9v-0.1c0-0.7-0.3-0.9-0.8-0.9l0,0L84.4,199.1L84.4,199.1z M86.6,196.4h0.9c1.2,0,2,0.9,2,2.7v0.2
		c0,1.8-0.7,2.7-2,2.7h-0.9V196.4z M87.6,201.1c0.5,0,0.9-0.4,0.9-1.8v-0.2c0-1.4-0.4-1.8-0.9-1.8l0,0V201.1L87.6,201.1L87.6,201.1z
		 M67.2,204.4h1v4.7h1v0.9h-2C67.2,210,67.2,204.4,67.2,204.4z M69.3,207.3V207c0-1.8,0.6-2.7,1.5-2.7s1.5,0.9,1.5,2.7v0.3
		c0,1.8-0.6,2.7-1.5,2.7C69.9,210.1,69.3,209.2,69.3,207.3z M71.3,207.3V207c0-1.4-0.2-1.8-0.5-1.8s-0.5,0.4-0.5,1.8v0.3
		c0,1.4,0.2,1.8,0.5,1.8S71.3,208.8,71.3,207.3z M72.7,208.3v-4h1v4.1c0,0.5,0.2,0.7,0.4,0.7s0.4-0.2,0.4-0.7v-4.1h1v4
		c0,1.2-0.6,1.7-1.4,1.7S72.7,209.5,72.7,208.3z M76.1,204.4H77l1,2.8v-2.8h1v5.6h-0.9l-1-3v3h-1V204.4L76.1,204.4z M79.4,207.3
		v-0.2c0-1.8,0.8-2.7,1.9-2.7c0.3,0,0.5,0.1,0.7,0.2v1c-0.2-0.1-0.5-0.2-0.7-0.2c-0.6,0-0.9,0.6-0.9,1.8v0.3c0,1.5,0.4,1.8,0.8,1.8
		c0,0,0,0,0.1,0v-1.4h-0.5V207h1.4v3c-0.4,0.2-0.6,0.2-1,0.2C80.2,210,79.4,209.2,79.4,207.3z M82.7,204.4h2.1v0.9h-1.2v1.4h1v0.9
		h-1v1.4h1.2v0.9h-2.2L82.7,204.4L82.7,204.4z"/>
	<path class="st9" d="M66.8,58h0.9c1.1,0,1.8,0.6,1.8,1.9l0,0c0,1.3-0.7,1.9-1.7,1.9l0,0v1.8h-1C66.8,63.6,66.8,58,66.8,58z
		 M67.8,61c0.4,0,0.7-0.3,0.7-1l0,0c0-0.7-0.3-1-0.7-1l0,0V61L67.8,61L67.8,61z M69.9,58h1c1,0,1.7,0.5,1.7,1.8v0.1
		c0,0.7-0.3,1.2-0.7,1.5l0.8,2.3h-1l-0.6-2h-0.2v2h-1C69.9,63.6,69.9,58,69.9,58z M70.9,60.8c0.4,0,0.7-0.2,0.7-0.9v-0.1
		c0-0.7-0.3-0.9-0.8-0.9l0,0L70.9,60.8L70.9,60.8z M73.1,58h1v5.6h-1V58z M74.4,58h1l0.5,3.6l0.5-3.6h1l-1,5.6h-1L74.4,58z M78.3,58
		h1l1.1,5.6h-1l-0.2-1.1h-0.9l-0.2,1.1h-0.9L78.3,58z M79.1,61.6l-0.3-1.8l-0.3,1.8H79.1z M81,58.9h-0.7V58h2.4v0.9H82v4.7h-1
		L81,58.9L81,58.9z M83,58h2.1v0.9H84v1.4h1v0.9h-1v1.4h1.2v0.9H83V58z M62.5,68.9v-0.2c0-2,0.7-2.7,1.6-2.7c0.3,0,0.4,0,0.6,0.1v1
		c-0.2-0.1-0.4-0.2-0.5-0.2c-0.4,0-0.7,0.4-0.7,1.8v0.2c0,1.5,0.3,1.8,0.8,1.8c0.2,0,0.3-0.1,0.5-0.2v1c-0.2,0.1-0.4,0.2-0.7,0.2
		C63.2,71.7,62.5,70.9,62.5,68.9z M65,69v-0.3c0-1.8,0.6-2.7,1.5-2.7s1.5,0.9,1.5,2.7V69c0,1.8-0.6,2.7-1.5,2.7S65,70.8,65,69z
		 M67,69v-0.3c0-1.4-0.2-1.8-0.5-1.8S66,67.2,66,68.7V69c0,1.4,0.2,1.8,0.5,1.8S67,70.4,67,69z M68.4,70v-4h1v4.1
		c0,0.5,0.2,0.7,0.4,0.7s0.4-0.2,0.4-0.7V66h1v4c0,1.2-0.6,1.7-1.4,1.7S68.4,71.2,68.4,70z M71.8,66h1c1,0,1.7,0.5,1.7,1.8v0.1
		c0,0.7-0.3,1.2-0.7,1.5l0.8,2.3h-1l-0.6-2h-0.2v2h-1C71.8,71.6,71.8,66,71.8,66z M72.8,68.8c0.4,0,0.7-0.2,0.7-0.9v-0.1
		c0-0.7-0.3-0.9-0.8-0.9l0,0L72.8,68.8L72.8,68.8z M75.4,66.9h-0.7V66h2.4v0.9h-0.7v4.7h-1L75.4,66.9L75.4,66.9z M78.1,69.4l-1-3.4
		h1l0.5,2.1l0.5-2.1h1l-1,3.4v2.2h-1V69.4L78.1,69.4z M80.9,66h1l1.1,5.6h-1l-0.2-1.1H81l-0.2,1.1h-0.9L80.9,66z M81.7,69.6
		l-0.3-1.8l-0.3,1.8H81.7z M83.3,66h1c1,0,1.7,0.5,1.7,1.8v0.1c0,0.7-0.3,1.2-0.7,1.5l0.8,2.3h-1l-0.6-2h-0.2v2h-1
		C83.3,71.7,83.3,66,83.3,66z M84.3,68.8c0.4,0,0.7-0.2,0.7-0.9v-0.1c0-0.7-0.3-0.9-0.8-0.9l0,0L84.3,68.8L84.3,68.8z M86.5,66h0.9
		c1.2,0,2,0.9,2,2.7v0.2c0,1.8-0.7,2.7-2,2.7h-0.9V66z M87.5,70.7c0.5,0,0.9-0.4,0.9-1.8v-0.2c0-1.4-0.4-1.8-0.9-1.8l0,0V70.7
		L87.5,70.7z M50.8,90h2v0.9h-1.1v1.4h0.9v0.9h-0.9v2.3h-1L50.8,90L50.8,90z M53.2,90h1v5.6h-1V90z M55.3,90.9h-0.7V90H57v0.9h-0.7
		v4.7h-1V90.9z M57.4,90h0.9l1,2.8V90h1v5.6h-0.9l-1-3v3h-1V90z M60.8,90H63v0.9h-1.2v1.4h1v0.9h-1v1.4H63v0.9h-2.2V90z M63.3,95.4
		v-1c0.3,0.2,0.6,0.3,0.9,0.3c0.3,0,0.5-0.1,0.5-0.5l0,0c0-0.3-0.1-0.4-0.5-1c-0.7-0.8-0.9-1.1-0.9-1.8l0,0c0-0.9,0.6-1.5,1.4-1.5
		c0.4,0,0.6,0.1,0.9,0.2v1c-0.3-0.2-0.5-0.3-0.7-0.3c-0.3,0-0.5,0.2-0.5,0.5l0,0c0,0.3,0.1,0.4,0.5,0.9c0.8,0.9,0.9,1.2,0.9,1.9l0,0
		c0,0.9-0.6,1.5-1.4,1.5C64,95.7,63.6,95.6,63.3,95.4z M65.9,95.4v-1c0.3,0.2,0.6,0.3,0.9,0.3s0.5-0.1,0.5-0.5l0,0
		c0-0.3-0.1-0.4-0.5-1c-0.7-0.8-0.9-1.1-0.9-1.8l0,0c0-0.9,0.6-1.5,1.4-1.5c0.4,0,0.6,0.1,0.9,0.2v1c-0.3-0.2-0.5-0.3-0.7-0.3
		c-0.3,0-0.5,0.2-0.5,0.5l0,0c0,0.3,0.1,0.4,0.5,0.9c0.8,0.9,0.9,1.2,0.9,1.9l0,0c0,0.9-0.6,1.5-1.4,1.5
		C66.6,95.7,66.2,95.6,65.9,95.4z M69.8,92.9v-0.2c0-2,0.7-2.7,1.6-2.7c0.3,0,0.4,0,0.6,0.1v1c-0.2-0.1-0.4-0.2-0.5-0.2
		c-0.4,0-0.7,0.4-0.7,1.8v0.2c0,1.5,0.3,1.8,0.8,1.8c0.2,0,0.3-0.1,0.5-0.2v1c-0.2,0.1-0.4,0.2-0.7,0.2
		C70.5,95.7,69.8,94.9,69.8,92.9z M72.6,90h2.1v0.9h-1.2v1.4h1v0.9h-1v1.4h1.2v0.9h-2.2L72.6,90L72.6,90z M75.3,90h0.9l1,2.8V90h1
		v5.6h-0.9l-1-3v3h-1V90z M79.2,90.9h-0.7V90h2.4v0.9h-0.7v4.7h-1L79.2,90.9L79.2,90.9z M81.3,90h2.1v0.9h-1.2v1.4h1v0.9h-1v1.4h1.2
		v0.9h-2.2L81.3,90L81.3,90z M83.9,90h1c1,0,1.7,0.5,1.7,1.8v0.1c0,0.7-0.3,1.2-0.7,1.5l0.8,2.3h-1l-0.6-2h-0.2v2h-1
		C83.9,95.6,83.9,90,83.9,90z M84.9,92.8c0.4,0,0.7-0.2,0.7-0.9v-0.1c0-0.7-0.3-0.9-0.8-0.9l0,0L84.9,92.8L84.9,92.8z M88.2,94.2
		L88.2,94.2c0-0.7,0.3-1.2,0.9-1.7c-0.3-0.5-0.5-0.9-0.5-1.3v-0.1c0-0.7,0.5-1.2,1.2-1.2s1.1,0.5,1.1,1.2v0.1c0,0.6-0.3,1.1-0.8,1.5
		l0.5,1c0-0.2,0.1-0.4,0.1-0.8l0.8,0.1c-0.1,0.6-0.2,1.1-0.4,1.4l0.5,0.8l-0.7,0.4l-0.3-0.5c-0.3,0.3-0.6,0.5-1,0.5
		C88.8,95.7,88.2,95.1,88.2,94.2z M90.2,94.6l-0.7-1.4c-0.2,0.3-0.3,0.6-0.3,0.9v0.1c0,0.4,0.2,0.7,0.5,0.7
		C89.9,94.9,90,94.8,90.2,94.6z M89.7,92.1c0.2-0.2,0.3-0.5,0.3-0.8v-0.1c0-0.3-0.1-0.4-0.3-0.4c-0.2,0-0.3,0.2-0.3,0.4v0.1
		C89.4,91.4,89.5,91.7,89.7,92.1z M93,95.4v-1c0.3,0.2,0.6,0.3,0.9,0.3s0.5-0.1,0.5-0.5l0,0c0-0.3-0.1-0.4-0.5-1
		c-0.7-0.8-0.9-1.1-0.9-1.8l0,0c0-0.9,0.6-1.5,1.4-1.5c0.4,0,0.6,0.1,0.9,0.2v1c-0.3-0.2-0.5-0.3-0.7-0.3c-0.3,0-0.5,0.2-0.5,0.5
		l0,0c0,0.3,0.1,0.4,0.5,0.9c0.8,0.9,0.9,1.2,0.9,1.9l0,0c0,0.9-0.6,1.5-1.4,1.5C93.6,95.7,93.3,95.6,93,95.4z M95.7,90h0.9
		c1.1,0,1.8,0.6,1.8,1.9l0,0c0,1.3-0.7,1.9-1.7,1.9l0,0v1.8h-1L95.7,90L95.7,90z M96.7,93c0.4,0,0.7-0.3,0.7-1l0,0
		c0-0.7-0.3-1-0.7-1l0,0V93L96.7,93L96.7,93z M99.3,90h1l1.1,5.6h-1l-0.2-1.1h-0.9l-0.2,1.1h-0.9L99.3,90z M100.1,93.6l-0.3-1.8
		l-0.3,1.8H100.1z"/>
	<path class="st9" d="M66.8,58.2h0.9c1.1,0,1.8,0.6,1.8,1.9l0,0c0,1.3-0.7,1.9-1.7,1.9l0,0v1.8h-1C66.8,63.8,66.8,58.2,66.8,58.2z
		 M67.8,61.1c0.4,0,0.7-0.3,0.7-1l0,0c0-0.7-0.3-1-0.7-1l0,0V61.1L67.8,61.1L67.8,61.1z M69.9,58.2h1c1,0,1.7,0.5,1.7,1.8l0,0
		c0,0.7-0.3,1.2-0.7,1.5l0.8,2.3h-1l-0.6-2h-0.2v2h-1C69.9,63.8,69.9,58.2,69.9,58.2z M70.9,61c0.4,0,0.7-0.2,0.7-0.9V60
		c0-0.7-0.3-0.9-0.8-0.9l0,0L70.9,61L70.9,61z M73.1,58.2h1v5.6h-1V58.2z M74.4,58.2h1l0.5,3.6l0.5-3.6h1l-1,5.6h-1L74.4,58.2z
		 M78.3,58.2h1l1.1,5.6h-1l-0.2-1.1h-0.9l-0.2,1.1h-0.9L78.3,58.2z M79.1,61.8L78.8,60l-0.3,1.8H79.1z M81,59.1h-0.7v-0.9h2.4v0.9
		H82v4.7h-1L81,59.1L81,59.1z M83,58.2h2.1v0.9H84v1.4h1v0.9h-1v1.4h1.2v0.9H83V58.2z M62.5,69.1v-0.2c0-2,0.7-2.7,1.6-2.7
		c0.3,0,0.4,0,0.6,0.1v1c-0.2-0.1-0.4-0.2-0.5-0.2c-0.4,0-0.7,0.4-0.7,1.8v0.2c0,1.5,0.3,1.8,0.8,1.8c0.2,0,0.3-0.1,0.5-0.2v1
		c-0.2,0.1-0.4,0.2-0.7,0.2C63.2,71.8,62.5,71,62.5,69.1z M65,69.1v-0.3c0-1.8,0.6-2.7,1.5-2.7S68,67,68,68.8v0.3
		c0,1.8-0.6,2.7-1.5,2.7C65.6,71.9,65,71,65,69.1z M67,69.1v-0.3c0-1.4-0.2-1.8-0.5-1.8S66,67.4,66,68.8v0.3c0,1.4,0.2,1.8,0.5,1.8
		S67,70.6,67,69.1z M68.4,70.2v-4h1v4.1c0,0.5,0.2,0.7,0.4,0.7s0.4-0.2,0.4-0.7v-4.1h1v4c0,1.2-0.6,1.7-1.4,1.7S68.4,71.3,68.4,70.2
		z M71.8,66.2h1c1,0,1.7,0.5,1.7,1.8l0,0c0,0.7-0.3,1.2-0.7,1.5l0.8,2.3h-1l-0.6-2h-0.2v2h-1C71.8,71.8,71.8,66.2,71.8,66.2z
		 M72.8,69c0.4,0,0.7-0.2,0.7-0.9V68c0-0.7-0.3-0.9-0.8-0.9l0,0L72.8,69L72.8,69z M75.4,67.1h-0.7v-0.9h2.4v0.9h-0.7v4.7h-1
		L75.4,67.1L75.4,67.1z M78.1,69.6l-1-3.4h1l0.5,2.1l0.5-2.1h1l-1,3.4v2.2h-1V69.6L78.1,69.6z M80.9,66.2h1l1.1,5.6h-1l-0.2-1.1H81
		l-0.2,1.1h-0.9L80.9,66.2z M81.7,69.8L81.4,68l-0.3,1.8H81.7z M83.3,66.2h1c1,0,1.7,0.5,1.7,1.8l0,0c0,0.7-0.3,1.2-0.7,1.5l0.8,2.3
		h-1l-0.6-2h-0.2v2h-1C83.3,71.8,83.3,66.2,83.3,66.2z M84.3,69c0.4,0,0.7-0.2,0.7-0.9V68c0-0.7-0.3-0.9-0.8-0.9l0,0L84.3,69
		L84.3,69z M86.5,66.2h0.9c1.2,0,2,0.9,2,2.7v0.2c0,1.8-0.7,2.7-2,2.7h-0.9V66.2z M87.5,70.9c0.5,0,0.9-0.4,0.9-1.8v-0.2
		c0-1.4-0.4-1.8-0.9-1.8l0,0V70.9L87.5,70.9z M50.8,90.2h2v0.9h-1.1v1.4h0.9v0.9h-0.9v2.3h-1L50.8,90.2L50.8,90.2z M53.2,90.2h1v5.6
		h-1V90.2z M55.3,91.1h-0.7v-0.9H57v0.9h-0.7v4.7h-1V91.1z M57.4,90.2h0.9l1,2.8v-2.8h1v5.6h-0.9l-1-3v3h-1
		C57.4,95.8,57.4,90.2,57.4,90.2z M60.8,90.2H63v0.9h-1.2v1.4h1v0.9h-1v1.4H63v0.9h-2.2V90.2z M63.3,95.6v-1
		c0.3,0.2,0.6,0.3,0.9,0.3c0.3,0,0.5-0.1,0.5-0.5l0,0c0-0.3-0.1-0.4-0.5-1c-0.7-0.8-0.9-1.1-0.9-1.8l0,0c0-0.9,0.6-1.5,1.4-1.5
		c0.4,0,0.6,0.1,0.9,0.2v1c-0.3-0.2-0.5-0.3-0.7-0.3c-0.3,0-0.5,0.2-0.5,0.5l0,0c0,0.3,0.1,0.4,0.5,0.9c0.8,0.9,0.9,1.2,0.9,1.9l0,0
		c0,0.9-0.6,1.5-1.4,1.5C64,95.8,63.6,95.7,63.3,95.6z M65.9,95.6v-1c0.3,0.2,0.6,0.3,0.9,0.3s0.5-0.1,0.5-0.5l0,0
		c0-0.3-0.1-0.4-0.5-1c-0.7-0.8-0.9-1.1-0.9-1.8l0,0c0-0.9,0.6-1.5,1.4-1.5c0.4,0,0.6,0.1,0.9,0.2v1c-0.3-0.2-0.5-0.3-0.7-0.3
		c-0.3,0-0.5,0.2-0.5,0.5l0,0c0,0.3,0.1,0.4,0.5,0.9c0.8,0.9,0.9,1.2,0.9,1.9l0,0c0,0.9-0.6,1.5-1.4,1.5
		C66.6,95.8,66.2,95.7,65.9,95.6z M69.8,93.1v-0.2c0-2,0.7-2.7,1.6-2.7c0.3,0,0.4,0,0.6,0.1v1c-0.2-0.1-0.4-0.2-0.5-0.2
		c-0.4,0-0.7,0.4-0.7,1.8v0.2c0,1.5,0.3,1.8,0.8,1.8c0.2,0,0.3-0.1,0.5-0.2v1c-0.2,0.1-0.4,0.2-0.7,0.2C70.5,95.8,69.8,95,69.8,93.1
		z M72.6,90.2h2.1v0.9h-1.2v1.4h1v0.9h-1v1.4h1.2v0.9h-2.2L72.6,90.2L72.6,90.2z M75.3,90.2h0.9l1,2.8v-2.8h1v5.6h-0.9l-1-3v3h-1
		V90.2z M79.2,91.1h-0.7v-0.9h2.4v0.9h-0.7v4.7h-1L79.2,91.1L79.2,91.1z M81.3,90.2h2.1v0.9h-1.2v1.4h1v0.9h-1v1.4h1.2v0.9h-2.2
		L81.3,90.2L81.3,90.2z M83.9,90.2h1c1,0,1.7,0.5,1.7,1.8l0,0c0,0.7-0.3,1.2-0.7,1.5l0.8,2.3h-1l-0.6-2h-0.2v2h-1
		C83.9,95.8,83.9,90.2,83.9,90.2z M84.9,93c0.4,0,0.7-0.2,0.7-0.9V92c0-0.7-0.3-0.9-0.8-0.9l0,0L84.9,93L84.9,93z M88.2,94.4
		L88.2,94.4c0-0.7,0.3-1.2,0.9-1.7c-0.3-0.5-0.5-0.9-0.5-1.3v-0.1c0-0.7,0.5-1.2,1.2-1.2s1.1,0.5,1.1,1.2v0.1c0,0.6-0.3,1.1-0.8,1.5
		l0.5,1c0-0.2,0.1-0.4,0.1-0.8l0.8,0.1c-0.1,0.6-0.2,1.1-0.4,1.4l0.5,0.8l-0.7,0.4l-0.3-0.5c-0.3,0.3-0.6,0.5-1,0.5
		C88.8,95.9,88.2,95.3,88.2,94.4z M90.2,94.8l-0.7-1.4c-0.2,0.3-0.3,0.6-0.3,0.9v0.1c0,0.4,0.2,0.7,0.5,0.7
		C89.9,95,90,94.9,90.2,94.8z M89.7,92.2c0.2-0.2,0.3-0.5,0.3-0.8v-0.1c0-0.3-0.1-0.4-0.3-0.4c-0.2,0-0.3,0.2-0.3,0.4v0.1
		C89.4,91.6,89.5,91.9,89.7,92.2z M93,95.6v-1c0.3,0.2,0.6,0.3,0.9,0.3s0.5-0.1,0.5-0.5l0,0c0-0.3-0.1-0.4-0.5-1
		c-0.7-0.8-0.9-1.1-0.9-1.8l0,0c0-0.9,0.6-1.5,1.4-1.5c0.4,0,0.6,0.1,0.9,0.2v1C95,91.1,94.8,91,94.6,91c-0.3,0-0.5,0.2-0.5,0.5l0,0
		c0,0.3,0.1,0.4,0.5,0.9c0.8,0.9,0.9,1.2,0.9,1.9l0,0c0,0.9-0.6,1.5-1.4,1.5C93.6,95.8,93.3,95.7,93,95.6z M95.7,90.2h0.9
		c1.1,0,1.8,0.6,1.8,1.9l0,0c0,1.3-0.7,1.9-1.7,1.9l0,0v1.8h-1L95.7,90.2L95.7,90.2z M96.7,93.1c0.4,0,0.7-0.3,0.7-1l0,0
		c0-0.7-0.3-1-0.7-1l0,0V93.1L96.7,93.1L96.7,93.1z M99.3,90.2h1l1.1,5.6h-1l-0.2-1.1h-0.9l-0.2,1.1h-0.9L99.3,90.2z M100.1,93.8
		L99.8,92l-0.3,1.8H100.1z"/>
	<path class="st9" d="M66,134.4v-0.3c0-1.8,0.6-2.7,1.5-2.7s1.5,0.9,1.5,2.7v0.3c0,1.8-0.6,2.7-1.5,2.7S66,136.3,66,134.4z
		 M67.9,134.4v-0.3c0-1.4-0.2-1.8-0.5-1.8s-0.5,0.4-0.5,1.8v0.3c0,1.4,0.2,1.8,0.5,1.8S67.9,135.8,67.9,134.4z M69.4,131.5h0.9
		c1.1,0,1.8,0.6,1.8,1.9l0,0c0,1.3-0.7,1.9-1.7,1.9l0,0v1.8h-1C69.4,137.1,69.4,131.5,69.4,131.5z M70.4,134.4c0.4,0,0.7-0.3,0.7-1
		l0,0c0-0.7-0.3-1-0.7-1l0,0V134.4L70.4,134.4L70.4,134.4z M72.5,131.5h2.1v0.9h-1.2v1.4h1v0.9h-1v1.4h1.2v0.9h-2.2L72.5,131.5
		L72.5,131.5z M75.1,131.5H76l1,2.8v-2.8h1v5.6h-0.9l-1-3v3h-1V131.5z M80.4,132.4h-0.7v-0.9H82v0.9h-0.7v4.7h-1L80.4,132.4
		L80.4,132.4z M82.2,134.4v-0.3c0-1.8,0.6-2.7,1.5-2.7s1.5,0.9,1.5,2.7v0.3c0,1.8-0.6,2.7-1.5,2.7C82.8,137.1,82.2,136.3,82.2,134.4
		z M84.2,134.4v-0.3c0-1.4-0.2-1.8-0.5-1.8s-0.5,0.4-0.5,1.8v0.3c0,1.4,0.2,1.8,0.5,1.8S84.2,135.8,84.2,134.4z M61.9,139.5h0.9
		c1.2,0,2,0.9,2,2.7v0.2c0,1.8-0.7,2.7-2,2.7h-0.9V139.5z M62.9,144.2c0.5,0,0.9-0.4,0.9-1.8v-0.2c0-1.4-0.4-1.8-0.9-1.8l0,0V144.2
		L62.9,144.2L62.9,144.2z M65.3,139.5h2.1v0.9h-1.2v1.4h1v0.9h-1v1.4h1.2v0.9h-2.2L65.3,139.5L65.3,139.5z M67.7,142.4v-0.2
		c0-2,0.7-2.7,1.6-2.7c0.3,0,0.4,0,0.6,0.1v1c-0.2-0.1-0.4-0.2-0.5-0.2c-0.4,0-0.7,0.4-0.7,1.8v0.2c0,1.5,0.3,1.8,0.8,1.8
		c0.2,0,0.3-0.1,0.5-0.2v1c-0.2,0.1-0.4,0.2-0.7,0.2C68.4,145.1,67.7,144.3,67.7,142.4z M70.5,139.5h1v2.3l0.8-2.3h1.1l-0.9,2.4
		l1,3.2h-1.1l-0.6-2.1l-0.2,0.6v1.5h-1L70.5,139.5L70.5,139.5z M75,139.5h0.8c0.9,0,1.8,0.4,1.8,1.4l0,0c0,0.7-0.4,1.1-0.8,1.3
		c0.5,0.2,0.9,0.5,0.9,1.2v0.1c0,1-0.8,1.6-1.9,1.6H75V139.5L75,139.5z M76,141.8c0.4,0,0.7-0.2,0.7-0.7l0,0c0-0.5-0.3-0.7-0.7-0.7
		l0,0V141.8L76,141.8z M76,144.2c0.4,0,0.8-0.3,0.8-0.7l0,0c0-0.5-0.3-0.7-0.8-0.7l0,0V144.2L76,144.2L76,144.2z M78.2,139.5h2.1
		v0.9h-1.2v1.4h1v0.9h-1v1.4h1.2v0.9h-2.2L78.2,139.5L78.2,139.5z M80.8,139.5h1v4.7h1v0.9h-2C80.8,145.1,80.8,139.5,80.8,139.5z
		 M82.9,142.4v-0.3c0-1.8,0.6-2.7,1.5-2.7s1.5,0.9,1.5,2.7v0.3c0,1.8-0.6,2.7-1.5,2.7C83.5,145.1,82.9,144.3,82.9,142.4z
		 M84.9,142.4v-0.3c0-1.4-0.2-1.8-0.5-1.8s-0.5,0.4-0.5,1.8v0.3c0,1.4,0.2,1.8,0.5,1.8C84.7,144.2,84.9,143.8,84.9,142.4z M86,139.5
		h1l0.4,3.4l0.5-3.4h0.9l0.5,3.4l0.4-3.4h1l-0.8,5.6h-1l-0.5-3.3l-0.5,3.3h-1L86,139.5z"/>
</g>
<g id="EPIC_DECK_17_ROOMS">
	<g id="gDeck17HavenCourtyardPenthouseBalconyHF">
		<g id="hDeck17HavenCourtyardPenthouseBalconyHF">
			<g id="g17011">
				<g id="h17011">
					<path id="b17011" class="st2" d="M120.1,75.9c0,0,0.7-1.1,0.9-1.3v-3.4l-0.9-1.4v-8.1h22.2V62v0.8h0.1v-0.4h0.3v0.7h0.4v2.6
						h-0.4v1.9h0.4v6.5h-0.4v0.7h-0.3v-0.4h-0.1v1.8l0,0v-0.1L120.1,75.9z M142.4,75.9L142.4,75.9l-0.1,0.7h9.1c0,0,0-8.3,0-12.5
						c0-0.2,0-1.2,0-2.6h-9.1v0.3v0.8h0.1v-0.4h0.3v0.7h0.4v2.6h-0.4v1.9h0.4v6.5h-0.4v0.7h-0.3v-0.4h-0.1L142.4,75.9L142.4,75.9z"
						/>
					<path id="t17011" class="st9" d="M124.9,66.5l0.3-0.5h0.9v4.1h-0.5v-3.7L124.9,66.5L124.9,66.5z M127.2,66.5V66h2.9l-2.5,4.2
						l-0.4-0.2l2.1-3.5C129.3,66.5,127.2,66.5,127.2,66.5z M130.1,68.1c0-0.9,0.4-2.2,1.4-2.2c1.1,0,1.4,1.3,1.4,2.2
						c0,0.8-0.4,2.2-1.4,2.2S130.1,68.9,130.1,68.1z M130.6,68.1c0,0.6,0.2,1.7,0.9,1.7s0.9-1.1,0.9-1.7s-0.2-1.7-0.9-1.7
						C130.8,66.3,130.6,67.5,130.6,68.1z M133.5,66.5l0.3-0.5h0.9v4.1h-0.5v-3.7L133.5,66.5L133.5,66.5z M136,66.5l0.3-0.5h0.9v4.1
						h-0.5v-3.7L136,66.5L136,66.5z"/>
				</g>
			</g>
			<g id="g17009">
				<g id="h17009">
					<path id="b17009" class="st2" d="M142.4,61.4v-0.8h0.1V61h0.3v-0.7h0.4v-2.6h-0.4v-1.9h0.4v-6.5h-0.4v-0.7h-0.3V49h-0.1v-2.9
						c5,0,9.1,0,9.1,0s0,10.3,0,15.3L142.4,61.4L142.4,61.4L142.4,61.4z M142.4,49.1v-2.9c-8.8,0-21,0-21,0v5.6l-1.2,1.7v7.9h22.2
						v-0.1v-0.8h0.1V61h0.3v-0.7h0.4v-2.6h-0.4v-1.9h0.4v-6.5h-0.4v-0.7h-0.3V49L142.4,49.1L142.4,49.1z"/>
					<path id="t17009" class="st9" d="M124.6,52.9l0.3-0.5h0.9v4.1h-0.5v-3.7C125.3,52.9,124.6,52.9,124.6,52.9z M126.9,52.9v-0.5
						h2.9l-2.5,4.2l-0.4-0.2l2.1-3.5H126.9z M129.8,54.5c0-0.9,0.4-2.2,1.4-2.2c1.1,0,1.4,1.3,1.4,2.2c0,0.8-0.4,2.2-1.4,2.2
						S129.8,55.4,129.8,54.5z M130.3,54.5c0,0.6,0.2,1.7,0.9,1.7s0.9-1.1,0.9-1.7s-0.2-1.7-0.9-1.7S130.3,54,130.3,54.5z
						 M133.1,54.5c0-0.9,0.4-2.2,1.4-2.2c1.1,0,1.4,1.3,1.4,2.2c0,0.8-0.4,2.2-1.4,2.2S133.1,55.4,133.1,54.5z M133.6,54.5
						c0,0.6,0.2,1.7,0.9,1.7s0.9-1.1,0.9-1.7s-0.2-1.7-0.9-1.7S133.6,54,133.6,54.5z M137,56.4l1-1.4l0,0c-0.1,0.1-0.3,0.1-0.4,0.1
						c-0.7,0-1.2-0.6-1.2-1.3c0-0.8,0.6-1.4,1.3-1.4s1.4,0.6,1.4,1.3c0,0.4-0.2,0.8-0.4,1.1l-1.4,1.9L137,56.4z M138.7,53.7
						c0-0.4-0.4-0.9-0.8-0.9c-0.5,0-0.9,0.4-0.9,0.9s0.4,0.9,0.9,0.9C138.3,54.6,138.7,54.2,138.7,53.7z"/>
				</g>
			</g>
			<g id="g17008">
				<g id="h17008">
					<path id="b17008" class="st2" d="M10.2,75.8L10.2,75.8L10.2,75.8v-1.7H10v0.4H9.7v-0.7H9.4v-6.5h0.4v-1.9H9.4v-2.6h0.4v-0.7H10
						v0.4h0.1v-0.8v-0.3h22.2v8.1l-0.9,1.4v3.4c0.2,0.3,0.9,1.3,0.9,1.3L10.2,75.8z M10.1,74.1H10v0.4H9.7v-0.7H9.4v-6.5h0.4v-1.9
						H9.4v-2.6h0.4v-0.7H10v0.4h0.1v-0.8v-0.3h-9c0,1.4,0,2.4,0,2.6c0,4.2,0.1,12.5,0.1,12.5h9v-0.7l0,0
						C10.1,75.9,10.1,74.1,10.1,74.1z"/>
					<path id="t17008" class="st9" d="M13.3,66.5l0.3-0.5h0.9v4.1H14v-3.7L13.3,66.5L13.3,66.5z M15.6,66.5V66h2.9L16,70.2L15.6,70
						l2.1-3.5H15.6z M18.5,68.1c0-0.9,0.4-2.2,1.4-2.2s1.4,1.3,1.4,2.2c0,0.8-0.4,2.2-1.4,2.2S18.5,68.9,18.5,68.1z M19,68.1
						c0,0.6,0.2,1.7,0.9,1.7s0.9-1.1,0.9-1.7s-0.2-1.7-0.9-1.7S19,67.5,19,68.1z M21.8,68.1c0-0.9,0.4-2.2,1.4-2.2s1.4,1.3,1.4,2.2
						c0,0.8-0.4,2.2-1.4,2.2C22.2,70.2,21.8,68.9,21.8,68.1z M22.3,68.1c0,0.6,0.2,1.7,0.9,1.7s0.9-1.1,0.9-1.7s-0.2-1.7-0.9-1.7
						C22.5,66.3,22.3,67.5,22.3,68.1z M25.8,68c-0.3-0.2-0.5-0.5-0.5-0.9c0-0.7,0.5-1.2,1.2-1.2s1.2,0.5,1.2,1.2
						c0,0.4-0.2,0.7-0.5,0.9c0.4,0.1,0.6,0.5,0.6,1c0,0.8-0.6,1.2-1.3,1.2s-1.3-0.5-1.3-1.2C25.2,68.5,25.4,68.1,25.8,68z M25.7,69
						c0,0.4,0.4,0.8,0.8,0.8s0.8-0.4,0.8-0.8s-0.4-0.8-0.8-0.8C26,68.2,25.7,68.5,25.7,69z M25.8,67.1c0,0.3,0.4,0.7,0.7,0.7
						s0.7-0.4,0.7-0.7c0-0.4-0.3-0.7-0.7-0.7S25.8,66.7,25.8,67.1z"/>
				</g>
			</g>
			<g id="g17006">
				<g id="h17006">
					<path id="b17006" class="st2" d="M10.1,61.5h-9c0-5,0-15.3,0-15.3s4,0,9,0v2.9H10v-0.4H9.7v0.7H9.4v6.5h0.4v1.9H9.4v2.6h0.4V61
						H10v-0.4h0.1v0.8V61.5L10.1,61.5z M10,49.1v-0.4H9.7v0.7H9.4v6.5h0.4v1.9H9.4v2.6h0.4V61H10v-0.4h0.1v0.8v0.1h22.2v-7.9
						l-1.2-1.7v-5.6c0,0-12.1,0-21,0v2.9C10.1,49.1,10,49.1,10,49.1z"/>
					<path id="t17006" class="st9" d="M13.3,52.1l0.3-0.5h0.9v4.1H14V52L13.3,52.1L13.3,52.1z M15.6,52.1v-0.5h2.9L16,55.9l-0.4-0.2
						l2.1-3.5h-2.1V52.1z M18.5,53.7c0-0.9,0.4-2.2,1.4-2.2s1.4,1.3,1.4,2.2c0,0.8-0.4,2.2-1.4,2.2S18.5,54.6,18.5,53.7z M19,53.7
						c0,0.6,0.2,1.7,0.9,1.7s0.9-1.1,0.9-1.7S20.7,52,19.9,52S19,53.1,19,53.7z M21.8,53.7c0-0.9,0.4-2.2,1.4-2.2s1.4,1.3,1.4,2.2
						c0,0.8-0.4,2.2-1.4,2.2C22.2,55.9,21.8,54.6,21.8,53.7z M22.3,53.7c0,0.6,0.2,1.7,0.9,1.7s0.9-1.1,0.9-1.7S24,52,23.2,52
						S22.3,53.1,22.3,53.7z M27.3,51.8l-1.1,1.5l0,0c0.1-0.1,0.3-0.1,0.4-0.1c0.7,0,1.2,0.6,1.2,1.3c0,0.8-0.6,1.4-1.3,1.4
						c-0.7,0-1.4-0.6-1.4-1.3c0-0.4,0.2-0.8,0.4-1.1l1.4-1.9L27.3,51.8z M27.3,54.6c0-0.5-0.4-0.9-0.9-0.9c-0.4,0-0.9,0.4-0.9,0.9
						s0.4,0.9,0.9,0.9C26.9,55.4,27.3,55,27.3,54.6z"/>
				</g>
			</g>
			<g id="g17005">
				<g id="h17005">
					<path id="b17005" class="st2" d="M123,10.4l-0.1,22.1l-8.2,0.1V43l-6.6-4.1V10.4H123z M123,4.7l-14.9-2.1v7.7H123V4.7z"/>
					<path id="t17005" class="st9" d="M114.5,28.4l-0.5-0.3v-0.9h4.1v0.5h-3.7L114.5,28.4L114.5,28.4z M114.5,26.1H114v-2.9l4.2,2.5
						l-0.2,0.4l-3.5-2.1V26.1L114.5,26.1z M116.1,23.2c-0.9,0-2.2-0.4-2.2-1.4s1.3-1.4,2.2-1.4c0.8,0,2.2,0.4,2.2,1.4
						S117,23.2,116.1,23.2z M116.1,22.7c0.6,0,1.7-0.2,1.7-0.9s-1.1-0.9-1.7-0.9s-1.7,0.2-1.7,0.9S115.6,22.7,116.1,22.7z
						 M116.1,19.9c-0.9,0-2.2-0.4-2.2-1.4s1.3-1.4,2.2-1.4c0.8,0,2.2,0.4,2.2,1.4S117,19.9,116.1,19.9z M116.1,19.4
						c0.6,0,1.7-0.2,1.7-0.9c0-0.7-1.1-0.9-1.7-0.9s-1.7,0.2-1.7,0.9C114.4,19.2,115.6,19.4,116.1,19.4z M114.5,15.3l0.9,0.3v-0.3
						c0-0.8,0.7-1.3,1.4-1.3c0.9,0,1.5,0.7,1.5,1.5c0,0.5-0.3,1-0.7,1.2l-0.4-0.4c0.4-0.1,0.6-0.5,0.6-0.9c0-0.5-0.5-1-1-1
						s-1,0.4-1,1c0,0.3,0.1,0.6,0.4,0.8v0.1l-2.1-0.6V14h0.5C114.5,14,114.5,15.3,114.5,15.3z"/>
				</g>
			</g>
			<g id="g17002">
				<g id="h17002">
					<path id="b17002" class="st2" d="M43.6,9.9H28.8V4.7l14.9-1.8L43.6,9.9L43.6,9.9z M28.8,9.9l0.1,22.6l8.2,0.1v10.8l6.6-4.6V9.9
						H28.8z"/>
					<path id="t17002" class="st9" d="M34.5,28.4L34,28.1v-0.9h4.1v0.5h-3.7L34.5,28.4L34.5,28.4z M34.5,26.1H34v-2.9l4.2,2.5
						L38,26.1L34.5,24V26.1z M36.1,23.2c-0.9,0-2.2-0.4-2.2-1.4s1.3-1.4,2.2-1.4c0.8,0,2.2,0.4,2.2,1.4S36.9,23.2,36.1,23.2z
						 M36.1,22.7c0.6,0,1.7-0.2,1.7-0.9s-1.1-0.9-1.7-0.9s-1.7,0.2-1.7,0.9S35.5,22.7,36.1,22.7z M36.1,19.9c-0.9,0-2.2-0.4-2.2-1.4
						s1.3-1.4,2.2-1.4c0.8,0,2.2,0.4,2.2,1.4S36.9,19.9,36.1,19.9z M36.1,19.4c0.6,0,1.7-0.2,1.7-0.9s-1.1-0.9-1.7-0.9
						s-1.7,0.2-1.7,0.9S35.5,19.4,36.1,19.4z M37.7,14h0.5v2.6L36,14.8c-0.2-0.2-0.5-0.4-0.7-0.4c-0.4,0-0.8,0.4-0.8,0.8
						c0,0.4,0.3,0.8,0.8,0.8v0.5c-0.7-0.1-1.2-0.5-1.2-1.3c0-0.7,0.5-1.3,1.2-1.3c0.3,0,0.6,0.1,0.9,0.3l1.7,1.3
						C37.7,15.7,37.7,14,37.7,14z"/>
				</g>
			</g>
		</g>
	</g>
	<g id="gDeck17HavenTwoBedroomFamilyVillaBalconyH6">
		<g id="hDeck17HavenTwoBedroomFamilyVillaBalconyH6">
			<g id="g17010">
				<g id="h17010">
					<path id="b17010" class="st2" d="M10.2,96.7H1.1v-9.6h9h0.3h-0.3v-0.8H9.6v-0.4H9.5v0.4H8.9v-0.8H8.7V79h0.1v-1h0.6v0.4h0.1V78
						H10v-0.5h22.5l0,0l-0.2,3.1h4.5l1.3,0.5L38,96.7H10.2L10.2,96.7z M10.1,86.3H9.6v-0.4H9.5v0.4H8.9v-0.8H8.7V79h0.1v-1h0.6v0.4
						h0.1V78H10v-0.5H1v9.6h9L10.1,86.3L10.1,86.3z"/>
					<path id="t17010" class="st9" d="M13.7,85.4l0.3-0.5h0.9V89h-0.5v-3.7L13.7,85.4L13.7,85.4z M16,85.4v-0.5h2.9l-2.5,4.2
						L16,88.9l2.1-3.5H16z M18.9,87c0-0.9,0.4-2.2,1.4-2.2s1.4,1.3,1.4,2.2c0,0.8-0.4,2.2-1.4,2.2S18.9,87.8,18.9,87z M19.4,87
						c0,0.6,0.2,1.7,0.9,1.7s0.9-1.1,0.9-1.7s-0.2-1.7-0.9-1.7S19.4,86.4,19.4,87z M22.3,85.4l0.3-0.5h0.9V89H23v-3.7L22.3,85.4
						L22.3,85.4z M24.6,87c0-0.9,0.4-2.2,1.4-2.2s1.4,1.3,1.4,2.2c0,0.8-0.4,2.2-1.4,2.2S24.6,87.8,24.6,87z M25.1,87
						c0,0.6,0.2,1.7,0.9,1.7s1-1.2,1-1.7s-0.2-1.7-0.9-1.7S25.1,86.4,25.1,87z"/>
				</g>
			</g>
			<g id="g17012">
				<g id="h17012">
					<path id="b17012" class="st2" d="M10.1,116.2h-9v-9.9h9h0.3h-0.3v-0.8H9.6v-0.4H9.5v0.4H8.9v-0.8H8.8v-6.5h0.1v-1h0.6v0.4h0.1
						v-0.4h0.5v-0.5H38v0.1h-0.8v3.1l0.9,0.7l0.1,15.5h-0.5L10.1,116.2L10.1,116.2z M10.1,105.5H9.6v-0.4H9.5v0.4H8.9v-0.8H8.8v-6.5
						h0.1v-1h0.6v0.4h0.1v-0.4h0.5v-0.5h-9v9.6h9V105.5L10.1,105.5z"/>
					<path id="t17012" class="st9" d="M13.8,104.6l0.3-0.5H15v4.1h-0.5v-3.7L13.8,104.6L13.8,104.6z M16.1,104.6v-0.5H19l-2.5,4.2
						l-0.4-0.2l2.1-3.5H16.1z M19,106.2c0-0.9,0.4-2.2,1.4-2.2s1.4,1.3,1.4,2.2c0,0.8-0.4,2.2-1.4,2.2S19,107,19,106.2z M19.5,106.2
						c0,0.6,0.2,1.7,0.9,1.7c0.7,0,0.9-1.1,0.9-1.7s-0.2-1.7-0.9-1.7S19.5,105.6,19.5,106.2z M22.4,104.6l0.3-0.5h0.9v4.1h-0.5v-3.7
						L22.4,104.6L22.4,104.6z M27.3,107.8v0.5h-2.6l1.8-2.2c0.2-0.2,0.4-0.5,0.4-0.7c0-0.4-0.4-0.8-0.8-0.8s-0.8,0.3-0.8,0.8h-0.5
						c0.1-0.7,0.5-1.2,1.3-1.2c0.7,0,1.3,0.5,1.3,1.2c0,0.3-0.1,0.6-0.3,0.9l-1.3,1.7L27.3,107.8L27.3,107.8z"/>
				</g>
			</g>
			<g id="g17014">
				<g id="h17014">
					<path id="b17014" class="st2" d="M10.1,125.8h-9v-9.6h9v0.5H9.6v0.4H9.5v-0.4H8.9v1H8.7v6.5h0.1v0.8h0.6v-0.4h0.1v0.4H10
						C10.1,125,10.1,125.8,10.1,125.8z M38.1,135.5V120l-1-0.8v-3h0.5H10.1v0.5H9.6v0.4H9.5v-0.4H8.9v1H8.7v6.5h0.1v0.8h0.6v-0.4
						h0.1v0.4H10v0.8h0.3H10H1v9.8h9L38.1,135.5L38.1,135.5z"/>
					<path id="t17014" class="st9" d="M13.7,124.3l0.3-0.5h0.9v4.1h-0.5v-3.7L13.7,124.3L13.7,124.3z M16,124.3v-0.5h3l-2.5,4.2
						l-0.4-0.2l2.1-3.5C18.1,124.3,16,124.3,16,124.3z M19,125.9c0-0.9,0.4-2.2,1.4-2.2s1.4,1.3,1.4,2.2c0,0.8-0.4,2.2-1.4,2.2
						S19,126.7,19,125.9z M19.4,125.9c0,0.6,0.2,1.7,0.9,1.7s0.9-1.1,0.9-1.7s-0.2-1.7-0.9-1.7S19.4,125.3,19.4,125.9z M22.3,124.3
						l0.3-0.5h0.9v4.1H23v-3.7L22.3,124.3L22.3,124.3z M27.4,126.9v0.5H27v0.6h-0.5v-0.6h-2l2.5-3.7v3.3h0.4V126.9z M26.5,125.2
						L26.5,125.2l-1.2,1.7h1.2V125.2z"/>
				</g>
			</g>
			<g id="g17016">
				<g id="h17016">
					<path id="b17016" class="st2" d="M10.1,145.1h-9v-9.6h9v0.5H9.6v0.4H9.5V136H8.9v1H8.7v6.5h0.1v0.8h0.6v-0.4h0.1v0.4H10
						C10.1,144.3,10.1,145.1,10.1,145.1z M38.1,154.9v-15.6l-1-0.7v-3h1l0,0h-28v0.5H9.6v0.4H9.5V136H8.9v1H8.7v6.5h0.1v0.8h0.6
						v-0.4h0.1v0.4H10v0.8h0.3H10H1v9.8h9.1L38.1,154.9L38.1,154.9z"/>
					<path id="t17016" class="st9" d="M13.8,144l0.3-0.5H15v4.1h-0.5V144H13.8L13.8,144z M16,144v-0.5h3l-2.5,4.2l-0.4-0.2l2.1-3.5
						H16L16,144z M19,145.6c0-0.9,0.4-2.2,1.4-2.2s1.4,1.3,1.4,2.2c0,0.8-0.4,2.2-1.4,2.2S19,146.4,19,145.6z M19.5,145.6
						c0,0.6,0.2,1.7,0.9,1.7c0.7,0,0.9-1.1,0.9-1.7s-0.2-1.7-0.9-1.7C19.7,143.9,19.5,145,19.5,145.6z M22.3,144l0.3-0.5h0.9v4.1H23
						V144H22.3L22.3,144z M26.8,143.7l-1.1,1.5l0,0c0.1-0.1,0.3-0.1,0.4-0.1c0.7,0,1.2,0.6,1.2,1.3c0,0.8-0.6,1.4-1.3,1.4
						c-0.7,0-1.4-0.6-1.4-1.3c0-0.4,0.2-0.8,0.4-1.1l1.4-1.9L26.8,143.7z M26.8,146.4c0-0.5-0.4-0.9-0.9-0.9c-0.4,0-0.9,0.4-0.9,0.9
						s0.4,0.9,0.9,0.9C26.4,147.3,26.8,146.9,26.8,146.4z"/>
				</g>
			</g>
			<g id="g17018">
				<g id="h17018">
					<path id="b17018" class="st2" d="M10.1,174.2H1v-9.8h9h0.3H10v-0.8H9.6v-0.4H9.5v0.4H8.9v-0.8H8.7v-6.5h0.1v-1h0.6v0.4h0.1
						v-0.4H10v-0.5h28v0.1h-0.9v2.9l1,0.8V174h-0.2H10.1V174.2z M10.1,163.6H9.6v-0.4H9.5v0.4H8.9v-0.8H8.7v-6.5h0.1v-1h0.6v0.4h0.1
						v-0.4H10v-0.5H1v9.6h9C10.1,164.5,10.1,163.6,10.1,163.6z"/>
					<path id="t17018" class="st9" d="M13.7,163.8l0.3-0.5h0.9v4.1h-0.5v-3.7L13.7,163.8L13.7,163.8z M16,163.8v-0.5h2.9l-2.5,4.2
						l-0.4-0.2l2.1-3.5H16L16,163.8z M19,165.4c0-0.9,0.4-2.2,1.4-2.2s1.4,1.3,1.4,2.2c0,0.8-0.4,2.2-1.4,2.2S19,166.3,19,165.4z
						 M19.4,165.4c0,0.6,0.2,1.7,0.9,1.7s0.9-1.1,0.9-1.7s-0.2-1.7-0.9-1.7S19.4,164.8,19.4,165.4z M22.3,163.8l0.3-0.5h0.9v4.1H23
						v-3.7L22.3,163.8L22.3,163.8z M25.4,165.3c-0.3-0.2-0.5-0.5-0.5-0.9c0-0.7,0.5-1.2,1.2-1.2s1.2,0.5,1.2,1.2
						c0,0.4-0.2,0.7-0.5,0.9c0.4,0.1,0.6,0.5,0.6,1c0,0.8-0.6,1.2-1.3,1.2s-1.3-0.5-1.3-1.2C24.7,165.9,25,165.5,25.4,165.3z
						 M25.2,166.3c0,0.4,0.4,0.8,0.8,0.8s0.8-0.4,0.8-0.8c0-0.4-0.4-0.8-0.8-0.8S25.2,165.9,25.2,166.3z M25.3,164.4
						c0,0.3,0.4,0.7,0.7,0.7s0.7-0.4,0.7-0.7c0-0.4-0.3-0.7-0.7-0.7S25.3,164,25.3,164.4z"/>
				</g>
			</g>
			<g id="g17020">
				<g id="h17020">
					<path id="b17020" class="st2" d="M10.1,183.8H1v-9.6h9.1v0.5H9.6v0.4H9.5v-0.4H8.9v1H8.7v6.5h0.1v0.8h0.6v-0.4h0.1v0.4H10
						C10.1,183,10.1,183.8,10.1,183.8z M38.1,193.5V178l-1-0.8v-2.9l0.8-0.1H10.1v0.5H9.6v0.4H9.5v-0.4H8.9v1H8.7v6.5h0.1v0.8h0.6
						v-0.4h0.1v0.4H10v0.8h0.3H10H1v9.8h9.1L38.1,193.5L38.1,193.5z"/>
					<path id="t17020" class="st9" d="M13.4,182.4l0.3-0.5h0.9v4.1h-0.5v-3.7L13.4,182.4L13.4,182.4z M15.7,182.4v-0.5h2.9l-2.5,4.2
						l-0.4-0.2l2.1-3.5H15.7L15.7,182.4z M18.6,184c0-0.9,0.4-2.2,1.4-2.2s1.4,1.3,1.4,2.2c0,0.8-0.4,2.2-1.4,2.2
						S18.6,184.8,18.6,184z M19.1,183.9c0,0.6,0.2,1.7,0.9,1.7s0.9-1.1,0.9-1.7s-0.2-1.7-0.9-1.7S19.1,183.4,19.1,183.9z
						 M24.5,185.6v0.5h-2.6l1.8-2.2c0.2-0.2,0.4-0.5,0.4-0.7c0-0.4-0.4-0.8-0.8-0.8s-0.8,0.3-0.8,0.8H22c0.1-0.7,0.5-1.2,1.3-1.2
						c0.7,0,1.3,0.5,1.3,1.2c0,0.3-0.1,0.6-0.3,0.9l-1.3,1.7h1.5V185.6z M24.9,184c0-0.9,0.4-2.2,1.4-2.2s1.4,1.3,1.4,2.2
						c0,0.8-0.4,2.2-1.4,2.2S24.9,184.8,24.9,184z M25.4,183.9c0,0.6,0.2,1.7,0.9,1.7s0.9-1.1,0.9-1.7s-0.2-1.7-0.9-1.7
						S25.4,183.4,25.4,183.9z"/>
				</g>
			</g>
			<g id="g17022">
				<g id="h17022">
					<path id="b17022" class="st2" d="M37.1,193.6v2.9l0.9,0.8l0.1,15.6h-28H1v-9.8h9.1h0.3h-0.3v-0.8H9.6v-0.4H9.5v0.4H8.9v-0.8
						H8.8V195h0.1v-1h0.6v0.4h0.1V194h0.5v-0.5H38l0,0L37.1,193.6L37.1,193.6z M10.1,202.3H9.6v-0.4H9.5v0.4H8.9v-0.8H8.8V195h0.1
						v-1h0.6v0.4h0.1V194h0.5v-0.5H1v9.6h9.1V202.3z"/>
					<path id="t17022" class="st9" d="M13.4,201.4l0.3-0.5h0.9v4.1h-0.5v-3.7L13.4,201.4L13.4,201.4z M15.7,201.4v-0.5h2.9l-2.5,4.2
						l-0.4-0.2l2.1-3.5H15.7L15.7,201.4z M18.6,203c0-0.9,0.4-2.2,1.4-2.2s1.4,1.3,1.4,2.2c0,0.8-0.4,2.2-1.4,2.2
						S18.6,203.8,18.6,203z M19.1,203c0,0.6,0.2,1.7,0.9,1.7c0.7,0,0.9-1.1,0.9-1.7s-0.2-1.7-0.9-1.7
						C19.3,201.3,19.1,202.4,19.1,203z M24.5,204.6v0.5h-2.6l1.8-2.2c0.2-0.2,0.4-0.5,0.4-0.7c0-0.4-0.4-0.8-0.8-0.8
						s-0.8,0.3-0.8,0.8H22c0.1-0.7,0.5-1.2,1.3-1.2c0.7,0,1.3,0.5,1.3,1.2c0,0.3-0.1,0.6-0.3,0.9l-1.3,1.7h1.5V204.6z M27.6,204.6
						v0.5H25l1.8-2.2c0.2-0.2,0.4-0.5,0.4-0.7c0-0.4-0.4-0.8-0.8-0.8s-0.8,0.3-0.8,0.8h-0.5c0.1-0.7,0.5-1.2,1.3-1.2
						c0.7,0,1.3,0.5,1.3,1.2c0,0.3-0.1,0.6-0.3,0.9l-1.3,1.7h1.5V204.6z"/>
				</g>
			</g>
			<g id="g17024">
				<g id="h17024">
					<path id="b17024" class="st2" d="M10.1,212.9h28l0,0h-0.9v2.9l1,0.9v17.1h-28H1v-11.4h9.1h0.3h-0.3v-0.8H9.6v-0.4H9.5v0.4H8.9
						v-0.8H8.7v-6.5h0.1v-1h0.6v0.4h0.1v-0.4H10L10.1,212.9L10.1,212.9z M10.1,221.6H9.6v-0.4H9.5v0.4H8.9v-0.8H8.7v-6.5h0.1v-1h0.6
						v0.4h0.1v-0.4H10v-0.5H1v9.6h9.1V221.6L10.1,221.6L10.1,221.6z"/>
					<path id="t17024" class="st9" d="M13.4,221.3l0.3-0.5h0.9v4.1h-0.5v-3.7L13.4,221.3L13.4,221.3z M15.7,221.3v-0.5h2.9l-2.5,4.2
						l-0.4-0.2l2.1-3.5H15.7L15.7,221.3z M18.6,222.9c0-0.9,0.4-2.2,1.4-2.2s1.4,1.3,1.4,2.2c0,0.8-0.4,2.2-1.4,2.2
						S18.6,223.7,18.6,222.9z M19.1,222.9c0,0.6,0.2,1.7,0.9,1.7s0.9-1.1,0.9-1.7s-0.2-1.7-0.9-1.7S19.1,222.3,19.1,222.9z
						 M24.5,224.5v0.5h-2.6l1.8-2.2c0.2-0.2,0.4-0.5,0.4-0.7c0-0.4-0.4-0.8-0.8-0.8s-0.8,0.3-0.8,0.8H22c0.1-0.7,0.5-1.2,1.3-1.2
						c0.7,0,1.3,0.5,1.3,1.2c0,0.3-0.1,0.6-0.3,0.9l-1.3,1.7h1.5V224.5z M27.8,223.9v0.4h-0.5v0.6h-0.5v-0.6h-2l2.5-3.7v3.3H27.8z
						 M26.8,222.2L26.8,222.2l-1.2,1.7h1.2V222.2z"/>
				</g>
			</g>
			<g id="g17026">
				<g id="h17026">
					<path id="b17026" class="st2" d="M10.1,233.9h28v0.1h-0.9v2.9l0.9,0.8v15.5H11.6H1v-9.8h9.1h0.3h-0.3v-0.8H9.6v-0.4H9.5v0.4
						H8.9v-0.8H8.7v-6.5h0.1v-1h0.6v0.4h0.1v-0.4H10L10.1,233.9L10.1,233.9z M10.1,242.6H9.6v-0.4H9.5v0.4H8.9v-0.8H8.7v-6.5h0.1v-1
						h0.6v0.4h0.1v-0.4H10v-0.5H1v9.6h9.1V242.6z"/>
					<path id="t17026" class="st9" d="M13.5,240.9l0.3-0.5h0.9v4.1h-0.5v-3.7L13.5,240.9L13.5,240.9z M15.7,240.9v-0.5h2.9l-2.5,4.2
						l-0.4-0.2l2.1-3.5H15.7L15.7,240.9z M18.7,242.5c0-0.9,0.4-2.2,1.4-2.2s1.4,1.3,1.4,2.2c0,0.8-0.4,2.2-1.4,2.2
						S18.7,243.3,18.7,242.5z M19.2,242.5c0,0.6,0.2,1.7,0.9,1.7c0.7,0,0.9-1.1,0.9-1.7s-0.2-1.7-0.9-1.7
						C19.4,240.7,19.2,241.9,19.2,242.5z M24.5,244.1v0.5h-2.6l1.8-2.2c0.2-0.2,0.4-0.5,0.4-0.7c0-0.4-0.4-0.8-0.8-0.8
						s-0.8,0.3-0.8,0.8H22c0.1-0.7,0.5-1.2,1.3-1.2c0.7,0,1.3,0.5,1.3,1.2c0,0.3-0.1,0.6-0.3,0.9l-1.3,1.7h1.5V244.1z M27.1,240.6
						l-1.1,1.5l0,0c0.1-0.1,0.3-0.1,0.4-0.1c0.7,0,1.2,0.6,1.2,1.3c0,0.8-0.6,1.4-1.3,1.4c-0.7,0-1.4-0.6-1.4-1.3
						c0-0.4,0.2-0.8,0.4-1.1l1.4-1.9L27.1,240.6z M27.2,243.3c0-0.5-0.4-0.9-0.9-0.9c-0.4,0-0.9,0.4-0.9,0.9s0.4,0.9,0.9,0.9
						C26.7,244.2,27.2,243.8,27.2,243.3z"/>
				</g>
			</g>
			<g id="g17028">
				<g id="h17028">
					<path id="b17028" class="st2" d="M38.1,253.2v15.2l-1.2,0.9v2.9H1v-9.7h9.1h0.3v-0.3h1.1V262h-0.6v-6.2l0.8,0.2v-2.8H38.1
						L38.1,253.2z M10.3,262.6v-0.3h1.1V262h-0.6v-6.2l0.8,0.2v-2.8H1v9.4h9.1H10.3z"/>
					<line id="d17028" class="st10" x1="36.7" y1="272.3" x2="0.3" y2="272.3"/>
					<path id="t17028" class="st9" d="M13.4,261.1l0.3-0.5h0.9v4.1h-0.5V261L13.4,261.1L13.4,261.1z M15.7,261.1v-0.5h2.9l-2.5,4.2
						l-0.4-0.2l2.1-3.5H15.7z M18.7,262.7c0-0.9,0.4-2.2,1.4-2.2s1.4,1.3,1.4,2.2c0,0.8-0.4,2.2-1.4,2.2
						C19,264.9,18.7,263.6,18.7,262.7z M19.1,262.7c0,0.6,0.2,1.7,0.9,1.7c0.7,0,0.9-1.1,0.9-1.7S20.7,261,20,261
						C19.3,261,19.1,262.1,19.1,262.7z M24.5,264.3v0.5h-2.6l1.8-2.2c0.2-0.2,0.4-0.5,0.4-0.7c0-0.4-0.4-0.8-0.8-0.8
						s-0.8,0.3-0.8,0.8H22c0.1-0.7,0.5-1.2,1.3-1.2c0.7,0,1.3,0.5,1.3,1.2c0,0.3-0.1,0.6-0.3,0.9l-1.3,1.7L24.5,264.3L24.5,264.3z
						 M25.7,262.6c-0.3-0.2-0.5-0.5-0.5-0.9c0-0.7,0.5-1.2,1.2-1.2s1.2,0.5,1.2,1.2c0,0.4-0.2,0.7-0.5,0.9c0.4,0.1,0.6,0.5,0.6,1
						c0,0.8-0.6,1.2-1.3,1.2s-1.3-0.5-1.3-1.2C25,263.2,25.3,262.8,25.7,262.6z M25.5,263.6c0,0.4,0.4,0.8,0.8,0.8s0.8-0.4,0.8-0.8
						s-0.4-0.8-0.8-0.8C25.9,262.8,25.5,263.2,25.5,263.6z M25.6,261.7c0,0.3,0.4,0.7,0.7,0.7s0.7-0.4,0.7-0.7
						c0-0.4-0.3-0.7-0.7-0.7S25.6,261.3,25.6,261.7z"/>
				</g>
			</g>
			<g id="g17013">
				<g id="h17013">
					<path id="b17013" class="st2" d="M114.9,96.7l-0.1-15.5l1.3-0.5h4.5l-0.2-3.1l0,0h22.5V78h0.5v0.4h0.1V78h0.6v1h0.1v6.5H144
						v0.8h-0.6v-0.4h-0.1v0.4h-0.5v0.8h-0.3h0.3h8.7v9.6h-8.8L114.9,96.7L114.9,96.7z M142.8,87.1h8.7v-9.6h-8.7V78h0.5v0.4h0.1V78
						h0.6v1h0.1v6.5H144v0.8h-0.6v-0.4h-0.1v0.4h-0.5L142.8,87.1L142.8,87.1z"/>
					<path id="t17013" class="st9" d="M124.8,85.4l0.3-0.5h0.9V89h-0.5v-3.7L124.8,85.4L124.8,85.4z M127.1,85.4v-0.5h2.9l-2.5,4.2
						l-0.4-0.2l2.1-3.5H127.1z M130,87c0-0.9,0.4-2.2,1.4-2.2c1.1,0,1.4,1.3,1.4,2.2c0,0.8-0.4,2.2-1.4,2.2S130,87.8,130,87z
						 M130.5,87c0,0.6,0.2,1.7,0.9,1.7s0.9-1.1,0.9-1.7s-0.2-1.7-0.9-1.7S130.5,86.4,130.5,87z M133.4,85.4l0.3-0.5h0.9V89h-0.5
						v-3.7L133.4,85.4L133.4,85.4z M136.9,86.6c0.4,0,0.8-0.2,0.8-0.7c0-0.4-0.3-0.7-0.7-0.7s-0.6,0.2-0.7,0.6h-0.5
						c0.1-0.7,0.5-1,1.2-1c0.6,0,1.2,0.4,1.2,1.1c0,0.4-0.2,0.7-0.5,0.9c0.4,0.2,0.6,0.6,0.6,1c0,0.8-0.6,1.2-1.3,1.2
						c-0.6,0-1.2-0.4-1.2-1.1h0.5c0,0.4,0.4,0.7,0.8,0.7c0.5,0,0.8-0.4,0.8-0.8c0-0.5-0.4-0.8-0.9-0.8L136.9,86.6L136.9,86.6
						L136.9,86.6z"/>
				</g>
			</g>
			<g id="g17015">
				<g id="h17015">
					<path id="b17015" class="st2" d="M115.3,116.2h-0.5l0.1-15.5l0.9-0.7v-3.1H115v-0.1h27.8v0.5h0.5v0.4h0.1v-0.4h0.6v1h0.1v6.5
						H144v0.8h-0.6v-0.4h-0.1v0.4h-0.5v0.8h-0.3h0.3h8.7v9.9h-8.7L115.3,116.2L115.3,116.2z M142.7,106.3h8.7v-9.6h-8.8v0.5h0.5v0.4
						h0.1v-0.4h0.6v1h0.1v6.5h0.1v0.8h-0.6v-0.4h-0.1v0.4h-0.5L142.7,106.3L142.7,106.3z"/>
					<path id="t17015" class="st9" d="M124.8,104.6l0.3-0.5h0.9v4.1h-0.5v-3.7L124.8,104.6L124.8,104.6z M127.1,104.6v-0.5h2.9
						l-2.5,4.2l-0.4-0.2l2.1-3.5H127.1z M130,106.2c0-0.9,0.4-2.2,1.4-2.2c1.1,0,1.4,1.3,1.4,2.2c0,0.8-0.4,2.2-1.4,2.2
						S130,107,130,106.2z M130.5,106.2c0,0.6,0.2,1.7,0.9,1.7s0.9-1.1,0.9-1.7s-0.2-1.7-0.9-1.7S130.5,105.6,130.5,106.2z
						 M133.4,104.6l0.3-0.5h0.9v4.1h-0.5v-3.7L133.4,104.6L133.4,104.6z M137,104.6l-0.3,0.9h0.3c0.8,0,1.3,0.7,1.3,1.4
						c0,0.9-0.7,1.5-1.5,1.5c-0.5,0-1-0.3-1.2-0.7l0.4-0.4c0.1,0.4,0.5,0.6,0.9,0.6c0.6,0,1-0.5,1-1s-0.4-1-1-1
						c-0.3,0-0.6,0.1-0.8,0.4H136l0.6-2.1h1.6v0.5C138.3,104.6,137,104.6,137,104.6z"/>
				</g>
			</g>
			<g id="g17017">
				<g id="h17017">
					<path id="b17017" class="st2" d="M142.8,125h0.5v-0.4h0.1v0.4h0.6v-0.8h0.1v-6.5H144v-1h-0.6v0.4h-0.1v-0.4h-0.5v-0.5h8.7v9.6
						h-8.7L142.8,125L142.8,125z M142.8,135.5h8.7v-9.8h-8.7h-0.3h0.3V125h0.5v-0.4h0.1v0.4h0.6v-0.8h0.1v-6.5H144v-1h-0.6v0.4h-0.1
						v-0.4h-0.5v-0.5h-27.5h0.5v3l-1,0.8v15.5H142.8L142.8,135.5z"/>
					<path id="t17017" class="st9" d="M124.8,124.3l0.3-0.5h0.9v4.1h-0.5v-3.7L124.8,124.3L124.8,124.3z M127.1,124.3v-0.5h2.9
						l-2.5,4.2l-0.4-0.2l2.1-3.5H127.1z M130,125.9c0-0.9,0.4-2.2,1.4-2.2c1.1,0,1.4,1.3,1.4,2.2c0,0.8-0.4,2.2-1.4,2.2
						S130,126.7,130,125.9z M130.5,125.9c0,0.6,0.2,1.7,0.9,1.7s0.9-1.1,0.9-1.7s-0.2-1.7-0.9-1.7
						C130.7,124.2,130.5,125.3,130.5,125.9z M133.4,124.3l0.3-0.5h0.9v4.1h-0.5v-3.7L133.4,124.3L133.4,124.3z M135.7,124.3v-0.5
						h2.9L136,128l-0.4-0.2l2.1-3.5C137.8,124.3,135.7,124.3,135.7,124.3z"/>
				</g>
			</g>
			<g id="g17019">
				<g id="h17019">
					<path id="b17019" class="st2" d="M142.8,144.3h0.5v-0.4h0.1v0.4h0.6v-0.8h0.1V137H144v-1h-0.6v0.4h-0.1V136h-0.5v-0.5h8.7v9.6
						h-8.7L142.8,144.3L142.8,144.3z M142.8,154.9h8.7v-9.8h-8.7h-0.3h0.3v-0.8h0.5v-0.4h0.1v0.4h0.6v-0.8h0.1V137H144v-1h-0.6v0.4
						h-0.1V136h-0.5v-0.5h-28l0,0h1v3l-1,0.7v15.6L142.8,154.9L142.8,154.9z"/>
					<path id="t17019" class="st9" d="M124.8,144l0.3-0.5h0.9v4.1h-0.5V144H124.8L124.8,144z M127.1,144v-0.5h2.9l-2.5,4.2l-0.4-0.2
						l2.1-3.5H127.1L127.1,144z M130,145.6c0-0.9,0.4-2.2,1.4-2.2c1.1,0,1.4,1.3,1.4,2.2c0,0.8-0.4,2.2-1.4,2.2S130,146.4,130,145.6
						z M130.5,145.6c0,0.6,0.2,1.7,0.9,1.7s0.9-1.1,0.9-1.7s-0.2-1.7-0.9-1.7C130.7,143.9,130.5,145,130.5,145.6z M133.4,144
						l0.3-0.5h0.9v4.1h-0.5V144H133.4L133.4,144z M136.2,147.5l1.1-1.5l0,0c-0.1,0.1-0.3,0.1-0.4,0.1c-0.7,0-1.2-0.6-1.2-1.3
						c0-0.8,0.6-1.4,1.3-1.4s1.4,0.6,1.4,1.3c0,0.4-0.2,0.8-0.4,1.1l-1.4,1.9L136.2,147.5z M137.9,144.8c0-0.4-0.4-0.9-0.8-0.9
						c-0.5,0-0.9,0.4-0.9,0.9s0.4,0.9,0.9,0.9C137.6,145.6,137.9,145.2,137.9,144.8z"/>
				</g>
			</g>
			<g id="g17021">
				<g id="h17021">
					<path id="b17021" class="st2" d="M115,174.2h-0.2v-15.4l1-0.8v-2.9h-0.9V155h28v0.5h0.5v0.4h0.1v-0.4h0.6v1h0.1v6.5H144v0.8
						h-0.6v-0.4h-0.1v0.4h-0.5v0.8h-0.3h0.3h8.7v9.8h-8.7L115,174.2L115,174.2z M142.8,164.5h8.7v-9.6h-8.7v0.5h0.5v0.4h0.1v-0.4
						h0.6v1h0.1v6.5H144v0.8h-0.6v-0.4h-0.1v0.4h-0.5L142.8,164.5L142.8,164.5z"/>
					<path id="t17021" class="st9" d="M124.6,163.8l0.3-0.5h0.9v4.1h-0.5v-3.7L124.6,163.8L124.6,163.8z M126.8,163.8v-0.5h2.9
						l-2.5,4.2l-0.4-0.2l2.1-3.5H126.8L126.8,163.8z M129.8,165.4c0-0.9,0.4-2.2,1.4-2.2c1.1,0,1.4,1.3,1.4,2.2
						c0,0.8-0.4,2.2-1.4,2.2S129.8,166.3,129.8,165.4z M130.3,165.4c0,0.6,0.2,1.7,0.9,1.7s0.9-1.1,0.9-1.7s-0.2-1.7-0.9-1.7
						S130.3,164.8,130.3,165.4z M135.6,167v0.5H133l1.8-2.2c0.2-0.2,0.4-0.5,0.4-0.7c0-0.4-0.4-0.8-0.8-0.8c-0.4,0-0.8,0.3-0.8,0.8
						h-0.5c0.1-0.7,0.6-1.2,1.3-1.2s1.3,0.5,1.3,1.2c0,0.3-0.1,0.6-0.3,0.9L134,167H135.6z M136.3,163.8l0.3-0.5h0.9v4.1H137v-3.7
						L136.3,163.8L136.3,163.8z"/>
				</g>
			</g>
			<g id="g17023">
				<g id="h17023">
					<path id="b17023" class="st2" d="M142.8,183h0.5v-0.4h0.1v0.4h0.6v-0.8h0.1v-6.5H144v-1h-0.6v0.4h-0.1v-0.4h-0.5v-0.5h8.7v9.6
						h-8.7L142.8,183L142.8,183z M142.7,193.5h8.8v-9.8h-8.7h-0.3h0.3V183h0.5v-0.4h0.1v0.4h0.6v-0.8h0.1v-6.5H144v-1h-0.6v0.4h-0.1
						v-0.4h-0.5v-0.5H115l0.8,0.1v2.9l-1,0.8v15.6L142.7,193.5L142.7,193.5z"/>
					<path id="t17023" class="st9" d="M124.5,182.4l0.3-0.5h0.9v4.1h-0.5v-3.7L124.5,182.4L124.5,182.4z M126.7,182.4v-0.5h2.9
						l-2.5,4.2l-0.4-0.2l2.1-3.5H126.7L126.7,182.4z M129.7,184c0-0.9,0.4-2.2,1.4-2.2c1.1,0,1.4,1.3,1.4,2.2c0,0.8-0.4,2.2-1.4,2.2
						S129.7,184.8,129.7,184z M130.2,183.9c0,0.6,0.2,1.7,0.9,1.7s0.9-1.1,0.9-1.7s-0.2-1.7-0.9-1.7S130.2,183.4,130.2,183.9z
						 M135.5,185.6v0.5h-2.6l1.8-2.2c0.2-0.2,0.4-0.5,0.4-0.7c0-0.4-0.4-0.8-0.8-0.8c-0.4,0-0.8,0.3-0.8,0.8H133
						c0.1-0.7,0.6-1.2,1.3-1.2s1.3,0.5,1.3,1.2c0,0.3-0.1,0.6-0.3,0.9l-1.3,1.7h1.5V185.6z M137.2,183.6c0.4,0,0.8-0.2,0.8-0.7
						c0-0.4-0.3-0.7-0.7-0.7s-0.6,0.2-0.7,0.6h-0.5c0.1-0.7,0.5-1,1.2-1c0.6,0,1.2,0.4,1.2,1.1c0,0.4-0.2,0.7-0.5,0.9
						c0.4,0.2,0.6,0.6,0.6,1c0,0.8-0.6,1.2-1.3,1.2c-0.6,0-1.2-0.4-1.2-1.1h0.5c0,0.4,0.4,0.7,0.8,0.7c0.5,0,0.8-0.4,0.8-0.8
						c0-0.5-0.4-0.8-0.9-0.8L137.2,183.6L137.2,183.6L137.2,183.6z"/>
				</g>
			</g>
			<g id="g17025">
				<g id="h17025">
					<path id="b17025" class="st2" d="M114.8,193.6L114.8,193.6h27.9v0.5h0.5v0.4h0.1V194h0.6v1h0.1v6.5h0v0.8h-0.6v-0.4h-0.1v0.4
						h-0.5v0.8h-0.3h0.3h8.7v9.8h-8.7h-28l0.1-15.6l0.9-0.8v-2.9H114.8L114.8,193.6z M142.7,203.1h8.7v-9.6h-8.8v0.5h0.5v0.4h0.1
						V194h0.6v1h0.1v6.5h0.1v0.8h-0.6v-0.4h-0.1v0.4h-0.5L142.7,203.1L142.7,203.1z"/>
					<path id="t17025" class="st9" d="M124.4,201.4l0.3-0.5h0.9v4.1h-0.5v-3.7L124.4,201.4L124.4,201.4z M126.7,201.4v-0.5h2.9
						l-2.5,4.2l-0.4-0.2l2.1-3.5H126.7L126.7,201.4z M129.6,203c0-0.9,0.4-2.2,1.4-2.2c1.1,0,1.4,1.3,1.4,2.2c0,0.8-0.4,2.2-1.4,2.2
						S129.6,203.8,129.6,203z M130.1,203c0,0.6,0.2,1.7,0.9,1.7s0.9-1.1,0.9-1.7s-0.2-1.7-0.9-1.7S130.1,202.4,130.1,203z
						 M135.5,204.6v0.5h-2.6l1.8-2.2c0.2-0.2,0.4-0.5,0.4-0.7c0-0.4-0.4-0.8-0.8-0.8c-0.4,0-0.8,0.3-0.8,0.8H133
						c0.1-0.7,0.5-1.2,1.3-1.2c0.7,0,1.3,0.5,1.3,1.2c0,0.3-0.1,0.6-0.3,0.9l-1.3,1.7h1.5V204.6z M137.4,201.4l-0.3,0.9h0.3
						c0.8,0,1.3,0.7,1.3,1.4c0,0.9-0.7,1.5-1.5,1.5c-0.5,0-1-0.3-1.2-0.7l0.4-0.4c0.1,0.4,0.5,0.6,0.9,0.6c0.5,0,1-0.5,1-1
						s-0.4-1-1-1c-0.3,0-0.6,0.1-0.8,0.4h-0.1l0.6-2.1h1.6v0.5L137.4,201.4L137.4,201.4z"/>
				</g>
			</g>
			<g id="g17027">
				<g id="h17027">
					<path id="b17027" class="st2" d="M142.8,213.4h0.5v0.4h0.1v-0.4h0.6v1h0.1v6.5H144v0.8h-0.6v-0.4h-0.1v0.4h-0.5v0.8h-0.3h0.3
						h8.7v11.4h-8.7h-28v-17.1l1-0.9V213h-0.9l0,0h28L142.8,213.4L142.8,213.4z M142.8,222.5h8.7v-9.6h-8.7v0.5h0.5v0.4h0.1v-0.4
						h0.6v1h0.1v6.5H144v0.8h-0.6v-0.4h-0.1v0.4h-0.5L142.8,222.5L142.8,222.5z"/>
					<path id="t17027" class="st9" d="M124.4,221.3l0.3-0.5h0.9v4.1h-0.5v-3.7L124.4,221.3L124.4,221.3z M126.7,221.3v-0.5h2.9
						l-2.5,4.2l-0.4-0.2l2.1-3.5H126.7L126.7,221.3z M129.6,222.9c0-0.9,0.4-2.2,1.4-2.2c1.1,0,1.4,1.3,1.4,2.2
						c0,0.8-0.4,2.2-1.4,2.2S129.6,223.7,129.6,222.9z M130.1,222.9c0,0.6,0.2,1.7,0.9,1.7s0.9-1.1,0.9-1.7s-0.2-1.7-0.9-1.7
						S130.1,222.3,130.1,222.9z M135.5,224.5v0.5h-2.6l1.8-2.2c0.2-0.2,0.4-0.5,0.4-0.7c0-0.4-0.4-0.8-0.8-0.8
						c-0.4,0-0.8,0.3-0.8,0.8H133c0.1-0.7,0.5-1.2,1.3-1.2c0.7,0,1.3,0.5,1.3,1.2c0,0.3-0.1,0.6-0.3,0.9l-1.3,1.7h1.5V224.5z
						 M136,221.3v-0.5h2.9l-2.5,4.2l-0.4-0.2l2.1-3.5H136L136,221.3z"/>
				</g>
			</g>
			<g id="g17029">
				<g id="h17029">
					<path id="b17029" class="st2" d="M142.8,234.4h0.5v0.4h0.1v-0.4h0.6v1h0.1v6.5H144v0.8h-0.6v-0.4h-0.1v0.4h-0.5v0.8h-0.3h0.3
						h8.7v9.8h-10.2h-26.5v-15.5l0.9-0.8v-3h-0.9v-0.1h28L142.8,234.4L142.8,234.4z M142.8,243.5h8.7v-9.6h-8.7v0.5h0.5v0.4h0.1
						v-0.4h0.6v1h0.1v6.5H144v0.8h-0.6v-0.4h-0.1v0.4h-0.5L142.8,243.5L142.8,243.5z"/>
					<path id="t17029" class="st9" d="M124.4,240.9l0.3-0.5h0.9v4.1h-0.5v-3.7L124.4,240.9L124.4,240.9z M126.7,240.9v-0.5h2.9
						l-2.5,4.2l-0.4-0.2l2.1-3.5H126.7L126.7,240.9z M129.6,242.5c0-0.9,0.4-2.2,1.4-2.2c1.1,0,1.4,1.3,1.4,2.2
						c0,0.8-0.4,2.2-1.4,2.2S129.6,243.3,129.6,242.5z M130.1,242.5c0,0.6,0.2,1.7,0.9,1.7s0.9-1.1,0.9-1.7s-0.2-1.7-0.9-1.7
						C130.3,240.7,130.1,241.9,130.1,242.5z M135.5,244.1v0.5h-2.6l1.8-2.2c0.2-0.2,0.4-0.5,0.4-0.7c0-0.4-0.4-0.8-0.8-0.8
						c-0.4,0-0.8,0.3-0.8,0.8H133c0.1-0.7,0.6-1.2,1.3-1.2s1.3,0.5,1.3,1.2c0,0.3-0.1,0.6-0.3,0.9l-1.3,1.7h1.5V244.1z M136.5,244.4
						l1.1-1.5l0,0c-0.1,0.1-0.3,0.1-0.4,0.1c-0.7,0-1.2-0.6-1.2-1.3c0-0.8,0.6-1.4,1.3-1.4s1.4,0.6,1.4,1.3c0,0.4-0.2,0.8-0.4,1.1
						l-1.4,1.9L136.5,244.4z M138.3,241.6c0-0.4-0.4-0.9-0.8-0.9c-0.5,0-0.9,0.4-0.9,0.9s0.4,0.9,0.9,0.9
						C137.9,242.5,138.3,242.1,138.3,241.6z"/>
				</g>
			</g>
			<g id="g17031">
				<g id="h17031">
					<path id="b17031" class="st2" d="M141.3,253.2v2.8l0.8-0.2v6.2h-0.6v0.3h1.1v0.3h0.3h8.7v9.7h-35.5v-2.9l-1.2-0.9v-15.2
						L141.3,253.2L141.3,253.2z M142.8,262.6h8.7v-9.4h-10.2v2.8l0.8-0.2v6.2h-0.6v0.3h1.1v0.3L142.8,262.6L142.8,262.6z"/>
					<path id="t17031" class="st9" d="M124.6,261.1l0.3-0.5h0.9v4.1h-0.5V261L124.6,261.1L124.6,261.1z M126.9,261.1v-0.5h2.9
						l-2.5,4.2l-0.4-0.2l2.1-3.5H126.9z M129.8,262.7c0-0.9,0.4-2.2,1.4-2.2c1.1,0,1.4,1.3,1.4,2.2c0,0.8-0.4,2.2-1.4,2.2
						S129.8,263.6,129.8,262.7z M130.3,262.7c0,0.6,0.2,1.7,0.9,1.7s0.9-1.1,0.9-1.7s-0.2-1.7-0.9-1.7S130.3,262.1,130.3,262.7z
						 M134.2,262.4c0.4,0,0.8-0.2,0.8-0.7c0-0.4-0.3-0.7-0.7-0.7s-0.6,0.2-0.7,0.6h-0.5c0.1-0.7,0.5-1,1.2-1c0.6,0,1.2,0.4,1.2,1.1
						c0,0.4-0.2,0.7-0.5,0.9c0.4,0.2,0.6,0.6,0.6,1c0,0.8-0.6,1.2-1.3,1.2c-0.6,0-1.2-0.4-1.2-1.1h0.5c0,0.4,0.4,0.7,0.8,0.7
						c0.5,0,0.8-0.4,0.8-0.8c0-0.5-0.4-0.8-0.9-0.8L134.2,262.4L134.2,262.4L134.2,262.4z M136.3,261.1l0.3-0.5h0.9v4.1H137V261
						L136.3,261.1L136.3,261.1z"/>
				</g>
			</g>
			<g id="g17000">
				<g id="h17000">
					<path id="b17000" class="st2" d="M63.6,1.2v37.9h-20v-28h0.5v-0.5h0.4v-0.1h-0.4V9.9h1V9.7h6.4v0.1h0.8v0.6H52v0.1h0.4V11h0.8
						V1.8L63.6,1.2z M44.1,10.6h0.4v-0.1h-0.4V9.9h1V9.7h6.4v0.1h0.8v0.6H52v0.1h0.4V11h0.8V1.8L43.7,3v8.2h0.5v-0.6H44.1z"/>
					<path id="t17000" class="st9" d="M46.4,20.1l0.3-0.5h0.9v4.1h-0.5V20L46.4,20.1L46.4,20.1z M48.7,20.1v-0.5h2.9l-2.5,4.2
						l-0.4-0.2l2.1-3.5C50.8,20.1,48.7,20.1,48.7,20.1z M51.6,21.7c0-0.9,0.4-2.2,1.4-2.2s1.4,1.3,1.4,2.2c0,0.8-0.4,2.2-1.4,2.2
						S51.6,22.6,51.6,21.7z M52.1,21.7c0,0.6,0.2,1.7,0.9,1.7s0.9-1.1,0.9-1.7S53.7,20,53,20S52.1,21.1,52.1,21.7z M54.9,21.7
						c0-0.9,0.4-2.2,1.4-2.2s1.4,1.3,1.4,2.2c0,0.8-0.4,2.2-1.4,2.2S54.9,22.6,54.9,21.7z M55.4,21.7c0,0.6,0.2,1.7,0.9,1.7
						s0.9-1.1,0.9-1.7S57,20,56.3,20S55.4,21.1,55.4,21.7z M58.2,21.7c0-0.9,0.4-2.2,1.4-2.2s1.4,1.3,1.4,2.2c0,0.8-0.4,2.2-1.4,2.2
						S58.2,22.6,58.2,21.7z M58.7,21.7c0,0.6,0.2,1.7,0.9,1.7s0.9-1.1,0.9-1.7S60.4,20,59.6,20S58.7,21.1,58.7,21.7z"/>
				</g>
			</g>
			<g id="g17001">
				<g id="h17001">
					<path id="b17001" class="st2" d="M88.2,10.1v29.1H63.6v-38l12.7-0.7l2.3,0.1V10h0.8V9.6h0.4V9.5h-0.4V8.9h0.8V8.7h6.4v0.1h1
						v0.6h-0.4v0.1h0.4V10C87.7,10.1,88.2,10.1,88.2,10.1z M79.5,10.1V9.6h0.4V9.5h-0.4V8.9h0.8V8.7h6.4v0.1h1v0.6h-0.4v0.1h0.4V10
						h0.5V7.3V0.8l-9.6-0.3V10h0.9V10.1z"/>
					<path id="t17001" class="st9" d="M69.1,20.1l0.3-0.5h0.9v4.1h-0.5V20L69.1,20.1L69.1,20.1z M71.3,20.1v-0.5h2.9l-2.5,4.2
						l-0.4-0.2l2.1-3.5C73.4,20.1,71.3,20.1,71.3,20.1z M74.3,21.7c0-0.9,0.4-2.2,1.4-2.2c1.1,0,1.4,1.3,1.4,2.2
						c0,0.8-0.4,2.2-1.4,2.2S74.3,22.5,74.3,21.7z M74.8,21.7c0,0.6,0.2,1.7,0.9,1.7s0.9-1.1,0.9-1.7S76.4,20,75.7,20
						C75,20,74.8,21.1,74.8,21.7z M77.6,21.7c0-0.9,0.4-2.2,1.4-2.2s1.4,1.3,1.4,2.2c0,0.8-0.4,2.2-1.4,2.2
						C78,23.8,77.6,22.5,77.6,21.7z M78.1,21.7c0,0.6,0.2,1.7,0.9,1.7s0.9-1.1,0.9-1.7S79.7,20,79,20S78.1,21.1,78.1,21.7z
						 M80.9,20.1l0.3-0.5h0.9v4.1h-0.5V20L80.9,20.1L80.9,20.1z"/>
				</g>
			</g>
			<g id="g17003">
				<g id="h17003">
					<path id="b17003" class="st2" d="M98.6,11.6V1.8l9.5,0.9v9h-0.5v-0.5h-0.4V11h0.4v-0.6h-1v-0.1h-6.4v0.1h-0.8V11h0.4v0.1h-0.4
						v0.5H98.6L98.6,11.6z M107.7,11.6v-0.5h-0.4V11h0.4v-0.6h-1v-0.1h-6.4v0.1h-0.8V11h0.4v0.1h-0.4v0.5h-0.8V1.8l-10.5-1v6.4V10
						v29.1h16.7l3.2-0.1V11.6H107.7z"/>
					<path id="t17003" class="st9" d="M91.2,20.1l0.3-0.5h0.9v4.1h-0.5V20L91.2,20.1L91.2,20.1z M93.5,20.1v-0.5h2.9l-2.5,4.2
						l-0.4-0.2l2.1-3.5C95.6,20.1,93.5,20.1,93.5,20.1z M96.4,21.7c0-0.9,0.4-2.2,1.4-2.2c1.1,0,1.4,1.3,1.4,2.2
						c0,0.8-0.4,2.2-1.4,2.2S96.4,22.5,96.4,21.7z M96.9,21.7c0,0.6,0.2,1.7,0.9,1.7c0.7,0,0.9-1.1,0.9-1.7S98.5,20,97.8,20
						C97.1,20,96.9,21.1,96.9,21.7z M99.7,21.7c0-0.9,0.4-2.2,1.4-2.2c1.1,0,1.4,1.3,1.4,2.2c0,0.8-0.4,2.2-1.4,2.2
						C100.1,23.8,99.7,22.5,99.7,21.7z M100.2,21.7c0,0.6,0.2,1.7,0.9,1.7c0.7,0,0.9-1.1,0.9-1.7s-0.2-1.7-0.9-1.7
						C100.4,20,100.2,21.1,100.2,21.7z M104.2,21.3c0.4,0,0.8-0.2,0.8-0.7c0-0.4-0.3-0.7-0.7-0.7c-0.4,0-0.6,0.2-0.7,0.6h-0.5
						c0.1-0.7,0.5-1,1.2-1c0.6,0,1.2,0.4,1.2,1.1c0,0.4-0.2,0.7-0.5,0.9c0.4,0.2,0.6,0.6,0.6,1c0,0.8-0.6,1.2-1.3,1.2
						c-0.6,0-1.2-0.4-1.2-1.1h0.5c0,0.4,0.4,0.7,0.8,0.7c0.5,0,0.8-0.4,0.8-0.8c0-0.5-0.4-0.8-0.9-0.8L104.2,21.3L104.2,21.3z"/>
				</g>
			</g>
		</g>
	</g>
	<g id="gDeck17HavenDeluxeOwnersSuiteLargeBalconyH2">
		<g id="hDeck17HavenDeluxeOwnersSuiteLargeBalconyH2">
			<g id="g17030">
				<g id="h17030">
					<path id="b17030_1_" class="st11" d="M33.5,315.2l-2.9,4.1c-0.4-0.2-0.7-0.3-1.1-0.5c-16.3-9.4-29-24.2-29-24.2l0.2-12.4
						C1.9,284.9,9.5,303,33.5,315.2z M37.7,298.2V283l-0.9-0.9l0.1-9.9H1L0.8,282c1.1,2.8,8.8,20.9,32.7,33.1l4.2-6V298.2
						L37.7,298.2z"/>
					<line id="d17030" class="st10" x1="36.7" y1="272.3" x2="0.3" y2="272.3"/>
					<path id="t17030" class="st9" d="M13.4,287.2l0.3-0.5h0.9v4.1h-0.5v-3.7L13.4,287.2L13.4,287.2z M15.7,287.2v-0.5h2.9l-2.5,4.2
						l-0.4-0.2l2.1-3.5H15.7z M18.6,288.8c0-0.9,0.4-2.2,1.4-2.2s1.4,1.3,1.4,2.2c0,0.8-0.4,2.2-1.4,2.2S18.6,289.7,18.6,288.8z
						 M19.1,288.8c0,0.6,0.2,1.7,0.9,1.7s0.9-1.1,0.9-1.7s-0.2-1.7-0.9-1.7S19.1,288.2,19.1,288.8z M23.1,288.5
						c0.4,0,0.8-0.2,0.8-0.7c0-0.4-0.3-0.7-0.7-0.7c-0.4,0-0.6,0.2-0.7,0.6H22c0.1-0.7,0.5-1,1.2-1c0.6,0,1.2,0.4,1.2,1.1
						c0,0.4-0.2,0.7-0.5,0.9c0.4,0.2,0.6,0.6,0.6,1c0,0.8-0.6,1.2-1.3,1.2c-0.6,0-1.2-0.4-1.2-1.1h0.5c0,0.4,0.4,0.7,0.8,0.7
						c0.5,0,0.8-0.4,0.8-0.8c0-0.5-0.4-0.8-0.9-0.8C23.1,288.9,23.1,288.5,23.1,288.5z M24.9,288.8c0-0.9,0.4-2.2,1.4-2.2
						s1.4,1.3,1.4,2.2c0,0.8-0.4,2.2-1.4,2.2S24.9,289.7,24.9,288.8z M25.4,288.8c0,0.6,0.2,1.7,0.9,1.7s0.9-1.1,0.9-1.7
						s-0.2-1.7-0.9-1.7S25.4,288.2,25.4,288.8z"/>
				</g>
			</g>
			<g id="g17033">
				<g id="h17033">
					<path id="b17033" class="st2" d="M114.7,309.2v-3.5v-9.4h-5.2l-0.1-15.7h5l1-0.7l-0.1-2.9l-0.9-0.1V272h37.1v10.6
						c-2.4,5.3-11.3,21.6-33.2,32.7L114.7,309.2z M118.3,315.4l3,5.3c0,0,0,0,0.1,0c19.1-9.5,30.1-24.8,30.1-24.8v-13.2
						C149,288,140.2,304.3,118.3,315.4z"/>
					<path id="t17033" class="st9" d="M124.4,287.2l0.3-0.5h0.9v4.1h-0.5v-3.7L124.4,287.2L124.4,287.2z M126.7,287.2v-0.5h2.9
						l-2.5,4.2l-0.4-0.2l2.1-3.5H126.7z M129.7,288.8c0-0.9,0.4-2.2,1.4-2.2c1.1,0,1.4,1.3,1.4,2.2c0,0.8-0.4,2.2-1.4,2.2
						S129.7,289.7,129.7,288.8z M130.1,288.8c0,0.6,0.2,1.7,0.9,1.7s0.9-1.1,0.9-1.7s-0.2-1.7-0.9-1.7
						C130.4,287.1,130.1,288.2,130.1,288.8z M134.1,288.5c0.4,0,0.8-0.2,0.8-0.7c0-0.4-0.3-0.7-0.7-0.7s-0.6,0.2-0.7,0.6H133
						c0.1-0.7,0.5-1,1.2-1c0.6,0,1.2,0.4,1.2,1.1c0,0.4-0.2,0.7-0.5,0.9c0.4,0.2,0.6,0.6,0.6,1c0,0.8-0.6,1.2-1.3,1.2
						c-0.6,0-1.2-0.4-1.2-1.1h0.5c0,0.4,0.4,0.7,0.8,0.7c0.5,0,0.8-0.4,0.8-0.8c0-0.5-0.4-0.8-0.9-0.8L134.1,288.5L134.1,288.5
						L134.1,288.5z M137.2,288.5c0.4,0,0.8-0.2,0.8-0.7c0-0.4-0.3-0.7-0.7-0.7s-0.6,0.2-0.7,0.6h-0.5c0.1-0.7,0.5-1,1.2-1
						c0.6,0,1.2,0.4,1.2,1.1c0,0.4-0.2,0.7-0.5,0.9c0.4,0.2,0.6,0.6,0.6,1c0,0.8-0.6,1.2-1.3,1.2c-0.6,0-1.2-0.4-1.2-1.1h0.5
						c0,0.4,0.4,0.7,0.8,0.7c0.5,0,0.8-0.4,0.8-0.8c0-0.5-0.4-0.8-0.9-0.8L137.2,288.5L137.2,288.5L137.2,288.5z"/>
				</g>
			</g>
			<g id="g17035">
				<g id="h17035">
					<path id="b17035" class="st11" d="M98.6,322.9c-0.4,0.1-0.6,0-1.1,0.1l-21.1,1.9l-0.1-2.8v-20l1,0.1l-0.1-4.3h1.2l0.7-0.9
						l3.4,0.1l0.6,0.8l4.7,0.1l-0.1,4.3l15.2,0.1l0.1,3.1l11.7,0.4v3.5l3.6,6c-5.6,2.9-11.9,5.5-19.3,7.4L98.6,322.9z M100.5,328.7
						c6.2-1.7,13.1-4.3,20.8-8l-3-5.3c0,0-0.1,0-0.1,0.1l-0.2,0.1c-5.6,2.9-10.8,4.9-18.2,7l-0.9,0.2c-0.5,0.1-1.1,0.1-1.3,0.2
						l-21.2,2l0-0.1l-0.1,0v7c6.8,0,14.9-0.8,23.6-3l0,0c0.1,0,0.3-0.1,0.4-0.1C100.4,328.8,100.5,328.8,100.5,328.7L100.5,328.7z"
						/>
					<line id="d17035_1_" class="st10" x1="76.3" y1="302.4" x2="76.3" y2="331.9"/>
					<path id="t17035" class="st9" d="M89.9,311.9l0.3-0.5h0.9v4.1h-0.5v-3.7L89.9,311.9L89.9,311.9z M92.2,311.9v-0.5h2.9l-2.5,4.2
						l-0.4-0.2l2.1-3.5H92.2z M95.1,313.5c0-0.9,0.4-2.2,1.4-2.2c1.1,0,1.4,1.3,1.4,2.2c0,0.8-0.4,2.2-1.4,2.2
						S95.1,314.3,95.1,313.5z M95.6,313.5c0,0.6,0.2,1.7,0.9,1.7c0.7,0,0.9-1.1,0.9-1.7s-0.2-1.7-0.9-1.7
						C95.8,311.8,95.6,312.9,95.6,313.5z M99.6,313.2c0.4,0,0.8-0.2,0.8-0.7c0-0.4-0.3-0.7-0.7-0.7c-0.4,0-0.6,0.2-0.7,0.6h-0.5
						c0.1-0.7,0.5-1,1.2-1c0.6,0,1.2,0.4,1.2,1.1c0,0.4-0.2,0.7-0.5,0.9c0.4,0.2,0.6,0.6,0.6,1c0,0.8-0.6,1.2-1.3,1.2
						c-0.6,0-1.2-0.4-1.2-1.1H99c0,0.4,0.4,0.7,0.8,0.7c0.5,0,0.8-0.4,0.8-0.8c0-0.5-0.4-0.8-0.9-0.8L99.6,313.2L99.6,313.2z
						 M102.8,311.9l-0.3,0.9h0.3c0.8,0,1.3,0.7,1.3,1.5c0,0.9-0.7,1.5-1.5,1.5c-0.5,0-1-0.3-1.2-0.7l0.4-0.4
						c0.1,0.4,0.5,0.6,0.9,0.6c0.5,0,1-0.5,1-1s-0.4-1-1-1c-0.3,0-0.6,0.1-0.8,0.4h-0.1l0.6-2.1h1.6v0.5L102.8,311.9L102.8,311.9z"
						/>
				</g>
			</g>
			<g id="g17032">
				<g id="h17032">
					<path id="b17032" class="st11" d="M76.3,325v6.9c-11.8,0-26.8-3-45.6-12.6l2.9-4.1c6,3.1,13,5.8,21.3,7.8L76.3,325z M76.3,325
						v-2.7v-20l-1.1-0.1v-4.3l-1.3,0.1l-0.7-0.9h-3.1l-0.7,1h-4.6v4l-22.2,0.1l-0.1-4h-4.7v11l-4.2,6c6,3.1,13,5.8,21.3,7.8
						L76.3,325z"/>
					<line id="d17032_1_" class="st10" x1="76.3" y1="302.4" x2="76.3" y2="331.9"/>
					<path id="t17032" class="st9" d="M48.9,311.9l0.3-0.5h0.9v4.1h-0.5v-3.7L48.9,311.9L48.9,311.9z M51.2,311.9v-0.5h2.9l-2.5,4.2
						l-0.4-0.2l2.1-3.5H51.2z M54.2,313.5c0-0.9,0.4-2.2,1.4-2.2s1.4,1.3,1.4,2.2c0,0.8-0.4,2.2-1.4,2.2S54.2,314.3,54.2,313.5z
						 M54.6,313.5c0,0.6,0.2,1.7,0.9,1.7s0.9-1.1,0.9-1.7s-0.2-1.7-0.9-1.7S54.6,312.9,54.6,313.5z M58.6,313.2
						c0.4,0,0.8-0.2,0.8-0.7c0-0.4-0.3-0.7-0.7-0.7s-0.6,0.2-0.7,0.6h-0.5c0.1-0.7,0.5-1,1.2-1c0.6,0,1.2,0.4,1.2,1.1
						c0,0.4-0.2,0.7-0.5,0.9c0.4,0.2,0.6,0.6,0.6,1c0,0.8-0.6,1.2-1.3,1.2c-0.6,0-1.2-0.4-1.2-1.1H58c0,0.4,0.4,0.7,0.8,0.7
						c0.5,0,0.8-0.4,0.8-0.8c0-0.5-0.4-0.8-0.9-0.8L58.6,313.2L58.6,313.2L58.6,313.2z M63.1,315.1v0.5h-2.6l1.8-2.2
						c0.2-0.2,0.4-0.5,0.4-0.7c0-0.4-0.4-0.8-0.8-0.8c-0.4,0-0.8,0.3-0.8,0.8h-0.5c0.1-0.7,0.5-1.2,1.3-1.2c0.7,0,1.3,0.5,1.3,1.2
						c0,0.3-0.1,0.6-0.3,0.9l-1.3,1.7L63.1,315.1L63.1,315.1z"/>
				</g>
			</g>
			<g id="g17004">
				<g id="h17004">
					<path id="b17004" class="st2" d="M10.4,46.3L10.4,46.3H1v-9.6h9.4v0.5H9.9v0.4H9.8v-0.4H9.2v1H9v6.5h0.1v0.8h0.6v-0.4h0.1v0.4
						h0.5C10.4,45.5,10.4,46.3,10.4,46.3z M28.9,32.5L28.8,4.7l-16.6,3c0,0-4.9,2.8-7.6,5.7C2,16.5,1,22.5,1,22.5v14.3h9.4v0.5H9.9
						v0.4H9.8v-0.4H9.2v1H9v6.5h0.1v0.8h0.6v-0.4h0.1v0.4h0.5v0.8l0,0L31,46.3v1.3l5.9-4.3V32.6L28.9,32.5z"/>
					<path id="t17004" class="st9" d="M9.8,24l0.3-0.5H11v4.1h-0.5V24H9.8L9.8,24z M12.1,24v-0.5H15l-2.5,4.2l-0.4-0.2l2.1-3.5H12.1
						z M15.1,25.6c0-0.9,0.4-2.2,1.4-2.2s1.4,1.3,1.4,2.2c0,0.8-0.4,2.2-1.4,2.2S15.1,26.5,15.1,25.6z M15.5,25.6
						c0,0.6,0.2,1.7,0.9,1.7c0.7,0,0.9-1.1,0.9-1.7s-0.2-1.7-0.9-1.7S15.5,25.1,15.5,25.6z M18.4,25.6c0-0.9,0.4-2.2,1.4-2.2
						s1.4,1.3,1.4,2.2c0,0.8-0.4,2.2-1.4,2.2S18.4,26.5,18.4,25.6z M18.8,25.6c0,0.6,0.2,1.7,0.9,1.7c0.7,0,0.9-1.1,0.9-1.7
						s-0.2-1.7-0.9-1.7S18.8,25.1,18.8,25.6z M24.4,26.6v0.5h-0.5v0.6h-0.5v-0.6h-2l2.5-3.7v3.3C23.9,26.6,24.4,26.6,24.4,26.6z
						 M23.4,24.9L23.4,24.9l-1.2,1.7h1.2V24.9z"/>
				</g>
			</g>
			<g id="g17007">
				<g id="h17007">
					<path id="b17007" class="st2" d="M151.5,47.2H142v-0.4h0.3V46h0.5v-0.4h0.1V46h0.6v-0.8h0.1v-6.5h-0.1v-1h-0.6v0.4h-0.1v-0.4
						h-0.5v-0.5h9.3L151.5,47.2L151.5,47.2z M142.2,46.8V46h0.5v-0.4h0.1V46h0.6v-0.8h0.1v-6.5h-0.1v-1h-0.6v0.4h-0.1v-0.4h-0.5
						v-0.5h9.3l-0.4-14.8c0,0-1.3-5.5-3.1-9c-3.3-5.9-16.1-8.3-16.1-8.3l-8.6-0.4l-0.1,27.8l-8.2,0.1v5.7l-0.2,4.7l5.3,3.2l0.6,0.6
						l0.7,0.5l20.5-0.1v-0.4H142.2L142.2,46.8z"/>
					<path id="t17007" class="st9" d="M129.1,24l0.3-0.5h0.9v4.1h-0.5V24H129.1L129.1,24z M131.4,24v-0.5h2.9l-2.5,4.2l-0.4-0.2
						l2.1-3.5H131.4z M134.3,25.6c0-0.9,0.4-2.2,1.4-2.2c1.1,0,1.4,1.3,1.4,2.2c0,0.8-0.4,2.2-1.4,2.2S134.3,26.5,134.3,25.6z
						 M134.8,25.6c0,0.6,0.2,1.7,0.9,1.7s0.9-1.1,0.9-1.7s-0.2-1.7-0.9-1.7S134.8,25.1,134.8,25.6z M137.6,25.6
						c0-0.9,0.4-2.2,1.4-2.2c1.1,0,1.4,1.3,1.4,2.2c0,0.8-0.4,2.2-1.4,2.2S137.6,26.5,137.6,25.6z M138.1,25.6
						c0,0.6,0.2,1.7,0.9,1.7s0.9-1.1,0.9-1.7s-0.2-1.7-0.9-1.7S138.1,25.1,138.1,25.6z M140.8,24v-0.5h2.9l-2.5,4.2l-0.4-0.2
						l2.1-3.5H140.8z"/>
				</g>
			</g>
		</g>
	</g>
</g>
<g id="EPIC_DECK_17_TOP">
	<g id="gDeck17Locations">
		<path width="150.7007" height="167.8076" id="_x31_7Aft" class="st12" d="M1.3,779.8L0.9,912.9c0,0-1,35.3,75,34.7s75.7-35.3,75.7-35.3V779.8h-0.1H1.3L1.3,779.8z"/>
		<path width="150.8" height="545.8999" id="_x31_7MidShip" class="st12" d="M151.5,296.1v-5.2v-57H0.7v58.8v1.8l0,0l0,0v485.3h150.8V296.1"/>
		<path width="150.8" height="233.4" id="_x31_7Forward" class="st12" d="M151.4,22.4c0,0-1.4-9.5-7.9-13.4c-2.1-1.2-8.1-3.1-12.9-4c-4.5-0.9-43.2-4.2-43.2-4.2
			L75.7,0.5L60.5,1.1L24.6,5c0,0-10.4,1.9-12.9,3c-2.5,1.2-5.6,3.3-6.3,4.2c-2.2,2.7-4.3,8.2-4.3,8.2L0.6,233.9h150.8L151.4,22.4z"
			/>
	</g>
	<path class="st13" d="M1.3,779.8L0.9,912.9c0,0-1,35.3,75,34.7s75.7-35.3,75.7-35.3V779.8h-0.1H1.3L1.3,779.8z"/>
	<path class="st13" d="M0.5,292.6l0.2,1.8c0,0,11.5,14.7,26,23c14.6,8.2,26.3,11.4,26.3,11.4l-0.9,4.8l-1.8,0.4l-2,2.2l-1.5,1.8
		l-0.8,2.7l1.8,0.6l0.4,2.7l1.7,2.3l3,1.4h3.2l2.5-1.4l1.7-2.4l1.7,0.2l0.8-2.8l-0.8-3l-1.2-2.2l-1.7-1.5l0.9-3.8
		c0,0,11.7,1.2,16.7,1.3s16.2-1.5,16.2-1.5l0.6,3.9l-1.9,1.5l-1,2.6l-0.4,2.6l0.3,3.2l1.9-0.7l1.4,2.2l2.4,1.6l3.3,0.7l2.9-1.7
		l2.2-2.1l0.2-2.9l1.8-0.3l-0.4-2.8l-1.8-2.8l-2-1.6l-1.9-0.8l-0.7-3.6c0,0,20.3-6.5,33.1-15.6s18.3-17.9,18.3-17.9v-5.2l-0.1-268.4
		c0,0-1.4-9.5-7.9-13.4c-2.1-1.2-8.1-3.1-12.9-4c-4.5-0.9-43.2-4.2-43.2-4.2L75.7,0.5L60.5,1.1L24.6,5c0,0-10.4,1.9-12.9,3
		s-5.6,3.4-6.3,4.2c-2.2,2.7-4.3,8.2-4.3,8.2L0.5,292.6z"/>
</g>
</svg>
