<?xml version="1.0" encoding="utf-8"?>
<!-- Generator: Adobe Illustrator 25.4.1, SVG Export Plug-In . SVG Version: 6.00 Build 0)  -->
<svg version="1.1" id="EPIC_DECK_19" xmlns="http://www.w3.org/2000/svg" xmlns:xlink="http://www.w3.org/1999/xlink" x="0px"
	 y="0px" width="152.9px" height="711.8px" viewBox="0 0 152.9 711.8" style="enable-background:new 0 0 152.9 711.8;"
	 xml:space="preserve">
<style type="text/css">
	.st0{fill:#FFFFFF;}
	.st1{fill:none;stroke:#D5DCE0;stroke-width:0.5;}
	.st2{fill:none;stroke:#D5DCE0;stroke-width:0.25;}
	.st3{fill:#6E8496;}
	.st4{fill:none;}
	.st5{fill:none;stroke:#076FA0;stroke-miterlimit:10;}
</style>
<g id="EPIC_DECK_19_BOTTOM">
	<path class="st0" d="M44.5,627.6l20.2,0v22l24.6,0.2l-0.1-22.4l19.9-0.1c0,0,4.5,22.4,6.7,36.3s4.2,37.8,4.2,37.8l-15.5-0.1
		c0,0-7.4-0.6-10.8-4.5c-3.5-3.9-4.3-7.4-4.3-9.4c0-2,0.1-5.2,0.1-5.2l-24.7,0.1c0,0,0.7,9-3.1,12.8c-3.8,3.9-8.3,5.9-12.2,6
		S34,701.1,34,701.1s3-28.1,4.8-38.9C40.5,651.4,44.5,627.6,44.5,627.6z"/>
	<path class="st0" d="M31.6,12.5c0.2-0.5,14.5-8.7,14.5-8.7L73.2,4l1.2,1.5l0.7,2.2h3.7l1-2.5L81.6,4l26.2-0.2l14.7,7.8l0.5,25.3
		l6.3,0.2l0.3,40L110.1,77l0-13.3l-4.5-0.5l-0.5-22.3l-16.7-1l-0.5,11h-22l-0.2-10.5L48.4,40v23.3h-4.8l0.2,12.8l-19.7-0.3V37.4
		l7-0.3L31.6,12.5z"/>
	<path class="st0" d="M25.8,148.2l102.8,0.2V210l-18.3,0.7v50.8l-27,0.2l-2-0.5c0,0-1.3-2-1.8-2.5s-0.7-4.8-0.7-4.8l0.3-43.7
		l-47.3-0.3l-0.7-6.2l-30-0.2v-13l23.8-0.1L25.8,148.2z"/>
	<line class="st1" x1="99.8" y1="261.8" x2="99.8" y2="179.4"/>
	<polyline class="st1" points="46.4,179.4 46.4,190.5 71,190.5 71,200.5 77.1,200.5 77.1,179.4 	"/>
	<line class="st1" x1="77" y1="179.4" x2="25.2" y2="179.4"/>
	<line class="st1" x1="77" y1="179.4" x2="128.4" y2="179.4"/>
	<rect x="69.6" y="13.2" class="st1" width="14.9" height="23.8"/>
	<line class="st1" x1="29.4" y1="203.8" x2="29.7" y2="203.8"/>
	<line class="st1" x1="24.6" y1="203.8" x2="24.6" y2="210.7"/>
	<line class="st1" x1="29.7" y1="203.8" x2="29.7" y2="211.3"/>
	<line class="st1" x1="24.7" y1="205.3" x2="29.7" y2="205.3"/>
	<line class="st1" x1="24.6" y1="203.8" x2="24.9" y2="203.8"/>
	<line class="st1" x1="24.6" y1="210.7" x2="29.7" y2="211.3"/>
	<line class="st1" x1="24.7" y1="206.1" x2="29.7" y2="206.1"/>
	<line class="st1" x1="24.7" y1="207" x2="29.7" y2="207"/>
	<line class="st1" x1="24.7" y1="207.8" x2="29.7" y2="207.8"/>
	<line class="st1" x1="24.7" y1="208.7" x2="29.7" y2="208.7"/>
	<line class="st1" x1="24.7" y1="209.6" x2="29.7" y2="209.6"/>
	<line class="st1" x1="24.7" y1="210.4" x2="29.7" y2="210.4"/>
	<line class="st1" x1="116.8" y1="252.3" x2="111.7" y2="252.3"/>
	<line class="st1" x1="111.7" y1="253.5" x2="111.7" y2="245.3"/>
	<line class="st1" x1="111.8" y1="253.5" x2="116.7" y2="253.5"/>
	<line class="st1" x1="110.2" y1="258.6" x2="116.8" y2="258.6"/>
	<line class="st1" x1="116.8" y1="252.9" x2="116.8" y2="244.6"/>
	<line class="st1" x1="111.7" y1="253.5" x2="110.2" y2="253.5"/>
	<line class="st1" x1="116.8" y1="252.9" x2="116.8" y2="258.6"/>
	<line class="st1" x1="116.8" y1="244.6" x2="111.7" y2="245.3"/>
	<line class="st1" x1="116.8" y1="251.5" x2="111.7" y2="251.5"/>
	<line class="st1" x1="116.8" y1="250.6" x2="111.7" y2="250.6"/>
	<line class="st1" x1="116.8" y1="249.7" x2="111.7" y2="249.7"/>
	<line class="st1" x1="116.8" y1="248.9" x2="111.7" y2="248.9"/>
	<line class="st1" x1="116.8" y1="248" x2="111.7" y2="248"/>
	<line class="st1" x1="116.8" y1="247.2" x2="111.7" y2="247.2"/>
	<line class="st1" x1="116.8" y1="246.3" x2="111.7" y2="246.3"/>
	<line class="st1" x1="116.8" y1="245.4" x2="111.7" y2="245.4"/>
	<line class="st2" x1="116.8" y1="224.3" x2="105" y2="231.7"/>
	<path class="st3" d="M119,220.4h2v0.9h-1.1v1.4h0.9v0.9h-0.9v2.3h-1V220.4z M121.4,220.4h1c1,0,1.7,0.5,1.7,1.8v0.1
		c0,0.7-0.3,1.2-0.7,1.5l0.8,2.3h-1l-0.6-2h-0.2v2h-1C121.4,226,121.4,220.4,121.4,220.4z M122.5,223.1c0.4,0,0.7-0.2,0.7-0.9v-0.1
		c0-0.7-0.3-0.9-0.8-0.9h0L122.5,223.1L122.5,223.1z M124.6,220.4h2.1v0.9h-1.2v1.4h1v0.9h-1v1.4h1.2v0.9h-2.2V220.4z M127.3,220.4
		h2.1v0.9h-1.2v1.4h1v0.9h-1v1.4h1.2v0.9h-2.2L127.3,220.4L127.3,220.4z M129.8,225.8v-1c0.3,0.2,0.6,0.3,0.9,0.3
		c0.3,0,0.5-0.1,0.5-0.5v0c0-0.3-0.1-0.4-0.5-1c-0.7-0.8-0.9-1.1-0.9-1.8v0c0-0.9,0.6-1.5,1.4-1.5c0.4,0,0.6,0.1,0.9,0.2v1
		c-0.3-0.2-0.5-0.3-0.7-0.3c-0.3,0-0.5,0.2-0.5,0.5v0c0,0.3,0.1,0.4,0.5,0.9c0.8,0.9,0.9,1.2,0.9,1.9v0c0,0.9-0.6,1.5-1.4,1.5
		C130.4,226,130.1,225.9,129.8,225.8z M132.9,221.3h-0.7v-0.9h2.4v0.9h-0.7v4.7h-1L132.9,221.3L132.9,221.3z M135.7,223.8l-1-3.4h1
		l0.5,2.1l0.5-2.1h1l-1,3.4v2.2h-1L135.7,223.8L135.7,223.8z M138,220.4h1v4.7h1v0.9h-2V220.4z M140.4,220.4h2.1v0.9h-1.2v1.4h1v0.9
		h-1v1.4h1.2v0.9h-2.2L140.4,220.4L140.4,220.4z M119.6,233.8v-1c0.3,0.2,0.6,0.3,0.9,0.3c0.3,0,0.5-0.1,0.5-0.5v0
		c0-0.3-0.1-0.4-0.5-1c-0.7-0.8-0.9-1.1-0.9-1.8v0c0-0.9,0.6-1.5,1.4-1.5c0.4,0,0.6,0.1,0.9,0.2v1c-0.3-0.2-0.5-0.3-0.7-0.3
		c-0.3,0-0.5,0.2-0.5,0.5v0c0,0.3,0.1,0.4,0.5,0.9c0.8,0.9,0.9,1.2,0.9,1.9v0c0,0.9-0.6,1.5-1.4,1.5
		C120.2,234,119.9,233.9,119.6,233.8z M122.3,232.3v-4h1v4.1c0,0.5,0.2,0.7,0.4,0.7s0.4-0.2,0.4-0.7v-4.1h1v4c0,1.2-0.6,1.7-1.4,1.7
		S122.3,233.5,122.3,232.3z M125.7,228.4h0.9l1,2.8v-2.8h1v5.6h-0.9l-1-3v3h-1L125.7,228.4L125.7,228.4z M130.4,228.4h0.9
		c1.2,0,2,0.9,2,2.7v0.2c0,1.8-0.7,2.7-2,2.7h-0.9V228.4z M131.4,233.1c0.5,0,0.9-0.4,0.9-1.8v-0.2c0-1.4-0.4-1.8-0.9-1.8h0
		L131.4,233.1L131.4,233.1L131.4,233.1z M133.7,228.4h2.1v0.9h-1.2v1.4h1v0.9h-1v1.4h1.2v0.9h-2.2L133.7,228.4L133.7,228.4z
		 M136.2,231.3v-0.2c0-2,0.7-2.7,1.6-2.7c0.3,0,0.4,0,0.6,0.1v1c-0.2-0.1-0.4-0.2-0.5-0.2c-0.4,0-0.7,0.4-0.7,1.8v0.2
		c0,1.5,0.3,1.8,0.8,1.8c0.2,0,0.3-0.1,0.5-0.2v1c-0.2,0.1-0.4,0.2-0.7,0.2C136.9,234,136.2,233.2,136.2,231.3z M139,228.4h1v2.3
		l0.8-2.3h1.1l-0.9,2.4l1,3.2h-1.1l-0.6-2.1l-0.2,0.6v1.5h-1L139,228.4L139,228.4z"/>
</g>
<g id="EPIC_DECK_19_TOP">
	<g id="gDeck19Locations">
		<path width="150.7326" height="167.8134" id="_x31_9Aft" class="st4" d="M1.3,542.8L0.9,675.9c0,0-1,35.3,75,34.7s75.7-35.3,75.7-35.3V542.8h-0.1H1.3L1.3,542.8z"/>
		<polygon width="151.176" height="260.5453" id="_x31_9MidShip" class="st4" points="151.5,290.8 151.5,282.2 0.5,282.2 0.5,292.6 0.7,294.5 1.3,542.8 151.7,542.8 
			151.5,296.1 		"/>
		<path width="150.9693" height="281.7445" id="_x31_9Forward" class="st4" d="M151.4,22.4c0,0-1.4-9.5-7.9-13.4c-2.1-1.2-8.1-3.1-12.9-4c-4.5-0.9-43.2-4.2-43.2-4.2
			L75.7,0.5L60.5,1.1L24.6,5c0,0-10.4,1.9-12.9,3s-5.6,3.4-6.3,4.2c-2.2,2.7-4.3,8.2-4.3,8.2L0.5,282.2h151L151.4,22.4z"/>
	</g>
	<path class="st5" d="M79.2,6.1l-0.1,0.9l0,0c0-1.8,1.5-3.3,3.3-3.3l-0.9,0.1L80.8,4l-0.7,0.5l-0.5,0.7L79.2,6.1z M75,6.9
		c0-1.8-1.5-3.3-3.3-3.3l0,0 M74,4.6L73.3,4 M72.5,3.7L73.3,4 M75,6.9l-0.1-0.9 M74.6,5.3l0.3,0.8 M74.6,5.3L74,4.6 M79.1,6.9v0.8
		H75V6.9 M72.5,3.7l-0.9-0.1h-1.7H46.1l-0.2,0.2l-13.6,7.8l-1,0.6v25h-7v39.1h19.6V63.3h3.6h1V40.1h10.6l6.9,0v10.8h22.4V40.1h0
		h14.1h3.4v23.2h4.5v13.9h19.6V37.1h-7v-25L108,3.6H82.4"/>
	<path class="st5" d="M77.1,682.3h-1.9 M118,682.3c-1.5-14-5.9-41.1-8.9-54.9 M120,701.3l-0.6-6.6l-0.6-5.9l-0.7-5.9l-0.1-0.6
		 M120,701.3h-15.5 M89.3,686.1c0,8.4,6.8,15.2,15.2,15.2l0,0 M89.3,686.1v-3.7 M89.3,682.3H77.1 M77.1,682.3H64.8 M64.8,682.3v3.7
		 M49.6,701.3c8.4,0,15.2-6.8,15.2-15.2l0,0 M49.6,701.3H34.1 M36.1,682.3l-0.1,0.6l-0.7,5.9l-0.6,5.9l-0.6,6.6 M45,627.5
		c-3,13.8-7.4,40.9-8.9,54.9 M45,627.5h19.8 M89.3,627.5h19.8 M64.8,627.5v22.2h24.5v-22.2 M77.1,682.3h11.2 M65.9,682.3h11.2
		 M89.3,637.8v10.4 M89.3,627.5v10.4 M64.8,648.2v-10.4 M64.8,637.8v-10.4 M104.5,701.3H120 M118,682.3L118,682.3 M64.8,627.5H45
		 M34.1,701.3h15.5 M109.1,627.5H89.3 M36.1,682.3L36.1,682.3"/>
	<path class="st5" d="M25.2,190.5v-42.4h103.6 M1.1,203.8h30.2v6.4H80 M110.3,261.8v-52.5 M79.1,210.2v47.4 M110.3,210.2h18.6v-63.1
		 M26.2,190.5l-25.1,0v13.3 M83.5,261.8h27.7 M79.1,257.3l0.1,0.9l0.3,0.8l0.4,0.8l0.6,0.7l0.7,0.6l0.8,0.4l0.8,0.3l0.9,0.1"/>
</g>
</svg>
