<?xml version="1.0" encoding="utf-8"?>
<!-- Generator: Adobe Illustrator 23.0.2, SVG Export Plug-In . SVG Version: 6.00 Build 0)  -->
<svg version="1.1" id="JEWEL_DECK_07" xmlns="http://www.w3.org/2000/svg" xmlns:xlink="http://www.w3.org/1999/xlink" x="0px"
	 y="0px" width="127.751px" height="1122.356px" viewBox="0 0 127.751 1122.356"
	 style="enable-background:new 0 0 127.751 1122.356;" xml:space="preserve">
<style type="text/css">
	.st0{fill:#FFFFFF;}
	.st1{fill:none;stroke:#D5DCE0;stroke-width:0.5;}
	.st2{fill:#6E8496;}
	.st3{fill:#6E8396;}
	.st4{fill:none;stroke:#076FA0;stroke-miterlimit:10;}
	.st5{fill:none;}
</style>
<g id="JEWEL_DECK_07_BOTTOM">
	<path class="st0" d="M127.251,236.288c0,0-0.203-32.547-0.551-36.432c-0.127-1.437-0.229-16.152-1.449-28.511
		c0,0-6.594-56.271-9.576-66.758c-5.672-19.94-7.934-34.2-30.918-73.872c0,0-16.427-28.454-19.71-30.096
		c-0.293-0.243-0.596-0.391-0.904-0.459h-0.547c-0.31,0.068-0.612,0.216-0.904,0.459c-3.283,1.642-19.699,30.096-19.699,30.096
		c-22.982,39.672-24.947,53.638-30.916,73.872c-3.085,10.457-9.576,66.758-9.576,66.758c-1.222,12.359-1.322,27.075-1.45,28.511
		C0.703,203.741,0.5,236.288,0.5,236.288s0.001,15.092,0.003,41.192c-0.002,0.296-0.003,0.469-0.003,0.469
		s0.051,804.927,0.229,825.142c5.162,14.605,37.443,17.768,53.778,18.426l20.562-0.082c16.803-0.82,46.977-4.266,51.953-18.344
		c0.178-20.215,0.229-825.142,0.229-825.142s-0.001-0.173-0.003-0.469C127.25,251.38,127.251,236.288,127.251,236.288z"/>
	<polygon class="st1" points="44.845,312.157 44.845,303.311 54.929,303.311 54.929,312.157 	"/>
	<polygon class="st1" points="54.93,312.157 54.93,303.311 64.957,303.311 64.957,312.157 	"/>
	<polygon class="st1" points="64.957,312.157 64.957,303.311 75.042,303.311 75.042,312.157 	"/>
	<polygon class="st1" points="75.043,312.157 75.043,303.311 85.071,303.311 85.071,312.157 	"/>
	<polygon class="st1" points="44.845,697.167 44.845,688.321 54.929,688.321 54.929,697.167 	"/>
	<polygon class="st1" points="54.93,697.167 54.93,688.321 64.957,688.321 64.957,697.167 	"/>
	<polygon class="st1" points="64.957,697.167 64.957,688.321 75.042,688.321 75.042,697.167 	"/>
	<polygon class="st1" points="75.043,697.167 75.043,688.321 85.071,688.321 85.071,697.167 	"/>
	<polygon class="st1" points="44.694,949.542 44.694,940.697 54.778,940.697 54.778,949.542 	"/>
	<polygon class="st1" points="54.779,949.542 54.779,940.697 64.806,940.697 64.806,949.542 	"/>
	<polygon class="st1" points="64.806,949.542 64.806,940.697 74.891,940.697 74.891,949.542 	"/>
	<polygon class="st1" points="74.892,949.542 74.892,940.697 84.919,940.697 84.919,949.542 	"/>
	<path class="st1" d="M64.744,811.59c8.75,0.25,16-2.667,16-2.667l1.5,3.334l3.917-1.584l-1.5-4.083
		c1.333-0.583,3.833-0.833,5.583-1.083c-0.417-5.083-3.824-7.916-3.824-7.916l1.094-1.094c0,0,1.312,1.354,2.562,3.438
		c2.094,3.531,1.919,10.155,1.919,10.155h3.166"/>
	<line class="st1" x1="22.699" y1="864.131" x2="10.84" y2="864.131"/>
	<polygon class="st1" points="26.667,840.797 34.694,840.797 43.602,840.575 43.503,865.639 43.691,914.136 43.865,940.698 
		34.694,940.652 26.841,940.652 	"/>
	<polygon class="st1" points="102.183,840.797 94.157,840.797 85.248,840.575 85.347,865.639 85.16,914.136 85.045,940.698 
		94.157,940.652 102.009,940.652 	"/>
	<line class="st1" x1="22.699" y1="839.125" x2="22.699" y2="942.263"/>
	<path class="st1" d="M119.205,184.848h-8.804l-12.1,18.874l1.937,5.324l-11.546,4.217l2.834,23.368c0,0-11.33,2.386-21.78,2.556
		c-2.022,0.345-10.62,0-10.62,0c-9.203-0.197-21.78-2.556-21.78-2.556l2.834-23.368l-11.546-4.217l1.937-5.324l-12.1-18.874H8.869"
		/>
	<polygon class="st1" points="61.553,300.936 61.553,292.09 71.638,292.09 71.638,300.936 	"/>
	<polygon class="st1" points="71.639,300.936 71.639,292.09 81.666,292.09 81.666,300.936 	"/>
	<polygon class="st1" points="60.515,478.556 60.515,469.71 70.6,469.71 70.6,478.556 	"/>
	<polygon class="st1" points="70.601,478.556 70.601,469.71 80.628,469.71 80.628,478.556 	"/>
	<rect x="80.628" y="464.002" class="st1" width="14.338" height="14.568"/>
	<line class="st1" x1="80.935" y1="471.287" x2="94.813" y2="471.287"/>
	<polygon class="st1" points="52.117,579.207 94.072,579.207 94.072,559.541 89.577,554.671 52.491,554.671 	"/>
	<polyline class="st1" points="81.852,655.343 94.136,655.343 94.136,578.642 	"/>
	<line class="st1" x1="36.046" y1="655.343" x2="46.813" y2="655.343"/>
	<line class="st1" x1="52.117" y1="566.659" x2="22.527" y2="566.659"/>
	<polygon class="st1" points="58.673,507.281 95.946,507.281 95.946,542.868 84.707,545.116 84.707,554.481 58.673,554.481 	"/>
	<path class="st1" d="M23.085,797.037c1.124,0.375,2.622-0.375,3.184-0.936c0.562-0.562,0.874-1.29,6.181-5.994
		c5.307-4.704-0.749-13.111-1.311-15.546s-1.499-13.485-1.312-17.419c0.188-3.934-3.184-4.308-3.184-4.308
		s-6.421-2.374-14.369,1.601"/>
	<path class="st1" d="M105.193,798.161c-2.435-0.187-2.317,0.186-2.317-0.562c0-0.749-5.244-6.556-6.93-8.99
		c-1.686-2.435-0.562-4.495,1.686-8.616c2.248-4.121,4.121-13.673,2.81-19.854s2.997-7.492,2.997-7.492s6.11-1.458,12.158,2.171"/>
	<polyline class="st1" points="58.569,507.167 77.444,507.167 77.444,499.893 85.87,499.893 93.506,492.255 93.506,478.556 
		34.439,478.556 34.439,484.041 45.584,484.041 45.584,492.4 53.175,499.992 78.804,499.904 	"/>
	<line class="st1" x1="105.798" y1="364.852" x2="22.638" y2="364.852"/>
	<line class="st1" x1="34.439" y1="478.542" x2="22.638" y2="478.542"/>
	<path class="st1" d="M83.872,1115.199c11.432-1.258,22.525-3.6,22.525-3.6l-0.043-66.566h10.662v-68.947
		c0,0-0.406-13.217-11.134-13.535l-0.681-21.854l11.716-11.709v-77.365l-11.752-11.018v-44.182h3.521l4.801-5.1h2.101V725.31h-1.95
		l-5.551-5.551h-2.852V566.125v-45.159l0.149,0.021l3.001-1.519l-0.15-6.601l-2.851-1.631v-1.501l2.852-1.368v-6.151l-2.852-1.932
		v-1.2l3.151-1.969v-5.701l-3.151-1.631v-1.952l3.602-1.668v-6.301l-3.602-1.481V266.834l13.956-13.221l-0.15-78.466
		c0,0-1.499-42.458-6.601-50.56c-5.102-8.102-10.653-9.902-16.204-9.902s-30.307,0-30.307,0h-6.601c0,0-22.354,0-27.905,0
		s-11.102,1.8-16.204,9.902c-5.102,8.102-6.601,50.56-6.601,50.56l-0.15,78.466l13.956,13.221v211.722l-3.602,1.303v6.301
		l3.602,1.668v1.952l-3.151,1.631v5.701l3.151,1.969v1.2l-2.852,1.932v6.151l2.852,1.368v1.501l-2.851,1.631l-0.15,6.601
		l3.001,1.519v1.2l-3.001,1.781v6.151l3.001,1.969v1.35l-3.001,1.782v6.002l3.001,1.519v1.201l-2.851,1.932v6.001l3,1.97v1.33
		l-3.001,1.801v6.301l3.001,1.801v154.683h-2.851l-5.551,5.551h-1.95v66.014h2.101l4.801,5.1h3.521v44.182L11.04,851.623v77.365
		l11.716,11.709l-0.681,21.854c-10.728,0.318-11.134,13.535-11.134,13.535v68.947h12.493v66.566c0,0,12.723,2.424,24.633,3.717
		C48.068,1115.316,63.462,1117.046,83.872,1115.199z"/>
	<polyline class="st1" points="105.001,449.67 95.144,449.67 95.144,456.392 78.146,456.392 78.146,449.983 52.533,449.983 
		52.533,434.852 22.526,434.852 	"/>
	<path class="st1" d="M65.193,811.59c-8.75,0.25-16-2.667-16-2.667l-1.5,3.334l-3.917-1.584l1.5-4.083
		c-1.333-0.583-3.833-0.833-5.583-1.083c0.417-5.083,3.824-7.916,3.824-7.916l-1.094-1.094c0,0-1.313,1.354-2.563,3.438
		c-2.094,3.531-1.919,10.155-1.919,10.155h-3.166"/>
	<polyline class="st1" points="22.792,840.606 105.165,840.606 105.165,940.698 22.699,940.698 	"/>
	<line class="st1" x1="81.852" y1="654.952" x2="81.852" y2="672.383"/>
	<polyline class="st1" points="46.813,655.48 36.046,655.48 36.046,672.527 94.132,672.527 94.132,655.48 81.852,655.48 	"/>
	<line class="st1" x1="46.813" y1="655.03" x2="46.813" y2="672.483"/>
	<path class="st1" d="M23.426,1111.599v-66.566H7.017v55.469C7.017,1100.501,11.632,1107.027,23.426,1111.599z"/>
	<path class="st1" d="M106.35,1111.599v-66.566h16.409v55.469C122.759,1100.501,118.144,1107.027,106.35,1111.599z"/>
	<line class="st1" x1="22.553" y1="312.189" x2="105.267" y2="312.189"/>
	<line class="st1" x1="22.553" y1="266.88" x2="105.267" y2="266.88"/>
	<rect x="50.901" y="286.342" class="st1" width="4.958" height="8.922"/>
	<line class="st1" x1="50.859" y1="288.543" x2="55.68" y2="288.543"/>
	<line class="st1" x1="50.859" y1="290.805" x2="55.68" y2="290.805"/>
	<line class="st1" x1="50.859" y1="293.067" x2="55.68" y2="293.067"/>
	<rect x="55.987" y="288.454" class="st1" width="4.958" height="8.922"/>
	<line class="st1" x1="55.945" y1="290.655" x2="60.766" y2="290.655"/>
	<line class="st1" x1="55.945" y1="292.917" x2="60.766" y2="292.917"/>
	<line class="st1" x1="55.945" y1="295.179" x2="60.766" y2="295.179"/>
	<rect x="50.477" y="464.17" class="st1" width="4.958" height="8.922"/>
	<line class="st1" x1="50.435" y1="466.372" x2="55.257" y2="466.372"/>
	<line class="st1" x1="50.435" y1="468.633" x2="55.257" y2="468.633"/>
	<line class="st1" x1="50.435" y1="470.895" x2="55.257" y2="470.895"/>
	<rect x="55.563" y="466.282" class="st1" width="4.958" height="8.922"/>
	<line class="st1" x1="55.521" y1="468.483" x2="60.342" y2="468.483"/>
	<line class="st1" x1="55.521" y1="470.745" x2="60.342" y2="470.745"/>
	<line class="st1" x1="55.521" y1="473.007" x2="60.342" y2="473.007"/>
	<rect x="69.569" y="548.199" class="st1" width="8.922" height="4.958"/>
	<line class="st1" x1="71.77" y1="553.199" x2="71.77" y2="548.378"/>
	<line class="st1" x1="74.032" y1="553.199" x2="74.032" y2="548.378"/>
	<line class="st1" x1="76.293" y1="553.199" x2="76.293" y2="548.378"/>
	<rect x="71.68" y="543.113" class="st1" width="8.923" height="4.958"/>
	<line class="st1" x1="73.882" y1="548.113" x2="73.882" y2="543.292"/>
	<line class="st1" x1="76.144" y1="548.113" x2="76.144" y2="543.292"/>
	<line class="st1" x1="78.406" y1="548.113" x2="78.406" y2="543.292"/>
	<line class="st1" x1="36.046" y1="672.6" x2="22.632" y2="672.6"/>
	<polyline class="st1" points="22.139,962.965 22.215,999.21 26.726,999.16 101.369,999.097 105.879,999.149 105.955,962.329 	"/>
	<line class="st1" x1="34.799" y1="810.074" x2="34.799" y2="840.775"/>
	<line class="st1" x1="95.132" y1="809.722" x2="95.132" y2="840.776"/>
	<path class="st1" d="M101.198,151.786H92.34c0,0-2.589-0.144-3.596,1.294c-0.929,1.326-10.781,9.01-20.993,9.299l-4.32,0.004
		c-10.265-0.218-20.21-7.97-21.143-9.303c-1.007-1.438-3.596-1.294-3.596-1.294h-8.198v-10.665h6.7v-15.779h57.141v16.019h6.934
		L101.198,151.786z"/>
	<line class="st1" x1="65.491" y1="941.053" x2="74.874" y2="949.192"/>
	<line class="st1" x1="45.154" y1="940.956" x2="54.835" y2="949.325"/>
	<line class="st1" x1="45.154" y1="949.421" x2="54.85" y2="940.913"/>
	<line class="st1" x1="55.432" y1="941.269" x2="64.858" y2="949.47"/>
	<line class="st1" x1="55.225" y1="949.519" x2="64.85" y2="940.913"/>
	<line class="st1" x1="65.491" y1="949.325" x2="74.85" y2="940.913"/>
	<line class="st1" x1="75.432" y1="941.269" x2="85.05" y2="949.519"/>
	<line class="st1" x1="75.32" y1="949.373" x2="84.85" y2="940.913"/>
	<line class="st1" x1="65.491" y1="688.732" x2="74.874" y2="696.871"/>
	<line class="st1" x1="45.154" y1="688.634" x2="54.835" y2="697.003"/>
	<line class="st1" x1="45.154" y1="697.1" x2="54.85" y2="688.591"/>
	<line class="st1" x1="55.432" y1="688.948" x2="64.858" y2="697.149"/>
	<line class="st1" x1="55.225" y1="697.198" x2="64.85" y2="688.591"/>
	<line class="st1" x1="65.491" y1="697.003" x2="74.85" y2="688.591"/>
	<line class="st1" x1="75.432" y1="688.948" x2="85.05" y2="697.198"/>
	<line class="st1" x1="75.32" y1="697.052" x2="84.85" y2="688.591"/>
	<line class="st1" x1="45.057" y1="303.547" x2="54.739" y2="311.916"/>
	<line class="st1" x1="45.057" y1="312.013" x2="54.753" y2="303.504"/>
	<line class="st1" x1="55.335" y1="303.86" x2="64.761" y2="312.061"/>
	<line class="st1" x1="55.128" y1="312.11" x2="64.753" y2="303.504"/>
	<line class="st1" x1="61.955" y1="292.374" x2="71.339" y2="300.513"/>
	<line class="st1" x1="61.955" y1="300.645" x2="71.315" y2="292.233"/>
	<line class="st1" x1="71.897" y1="292.59" x2="81.515" y2="300.84"/>
	<line class="st1" x1="71.785" y1="300.694" x2="81.315" y2="292.233"/>
	<line class="st1" x1="65.585" y1="303.645" x2="74.969" y2="311.784"/>
	<line class="st1" x1="65.585" y1="311.917" x2="74.945" y2="303.504"/>
	<line class="st1" x1="75.527" y1="303.861" x2="85.145" y2="312.111"/>
	<line class="st1" x1="75.414" y1="311.965" x2="84.945" y2="303.504"/>
	<line class="st1" x1="60.685" y1="469.88" x2="70.574" y2="478.043"/>
	<line class="st1" x1="60.515" y1="478.556" x2="70.588" y2="470.07"/>
	<line class="st1" x1="70.783" y1="469.987" x2="80.596" y2="478.188"/>
	<line class="st1" x1="70.963" y1="478.237" x2="80.588" y2="469.631"/>
	<line class="st1" x1="81.853" y1="323.847" x2="81.853" y2="341.43"/>
	<polyline class="st1" points="46.844,324.181 36.047,324.181 36.047,341.374 93.093,341.374 93.093,324.181 81.614,324.181 	"/>
	<line class="st1" x1="46.814" y1="323.847" x2="46.814" y2="341.258"/>
	<polyline class="st1" points="80.705,981.061 80.705,961.186 93.595,961.186 93.595,981.311 36.428,981.311 36.428,961.156 
		49.111,961.156 49.111,981.311 	"/>
	<line class="st1" x1="36.465" y1="980.239" x2="36.465" y2="999.12"/>
	<line class="st1" x1="93.632" y1="980.905" x2="93.632" y2="999.286"/>
	<path class="st1" d="M73.12,962.267c-0.346,0-0.627,0.256-0.627,0.578"/>
	<line class="st1" x1="80.681" y1="962.267" x2="73.12" y2="962.267"/>
	<line class="st1" x1="72.494" y1="962.845" x2="72.494" y2="965.085"/>
	<line class="st1" x1="72.494" y1="965.085" x2="57.632" y2="965.085"/>
	<path class="st1" d="M57.632,962.845c0-0.322-0.275-0.578-0.621-0.578"/>
	<line class="st1" x1="57.632" y1="965.085" x2="57.632" y2="962.845"/>
	<line class="st1" x1="57.011" y1="962.267" x2="49.405" y2="962.267"/>
	<line class="st1" x1="65.231" y1="976.08" x2="65.231" y2="962.06"/>
	<line class="st1" x1="64.929" y1="976.08" x2="64.929" y2="962.06"/>
	<line class="st1" x1="80.329" y1="975.363" x2="65.231" y2="975.363"/>
	<line class="st1" x1="65.231" y1="962.06" x2="64.929" y2="962.06"/>
	<line class="st1" x1="65.231" y1="976.08" x2="64.929" y2="976.08"/>
	<line class="st1" x1="64.929" y1="975.363" x2="49.287" y2="975.363"/>
	<line class="st1" x1="64.929" y1="973.878" x2="58.276" y2="973.878"/>
	<line class="st1" x1="64.929" y1="972.392" x2="58.276" y2="972.392"/>
	<line class="st1" x1="64.929" y1="970.906" x2="58.276" y2="970.906"/>
	<line class="st1" x1="64.929" y1="969.419" x2="58.276" y2="969.419"/>
	<line class="st1" x1="64.929" y1="967.933" x2="58.276" y2="967.933"/>
	<line class="st1" x1="64.929" y1="966.447" x2="58.276" y2="966.447"/>
	<line class="st1" x1="64.929" y1="963.476" x2="57.673" y2="963.476"/>
	<line class="st1" x1="71.884" y1="973.878" x2="65.231" y2="973.878"/>
	<line class="st1" x1="71.884" y1="972.392" x2="65.231" y2="972.392"/>
	<line class="st1" x1="71.884" y1="970.906" x2="65.231" y2="970.906"/>
	<line class="st1" x1="71.884" y1="969.419" x2="65.231" y2="969.419"/>
	<line class="st1" x1="71.884" y1="967.933" x2="65.231" y2="967.933"/>
	<line class="st1" x1="71.884" y1="966.447" x2="65.231" y2="966.447"/>
	<line class="st1" x1="72.54" y1="963.476" x2="65.231" y2="963.476"/>
	<line class="st1" x1="49.231" y1="963.73" x2="57.066" y2="963.73"/>
	<line class="st1" x1="49.338" y1="965.197" x2="57.887" y2="965.197"/>
	<line class="st1" x1="49.179" y1="966.658" x2="57.066" y2="966.658"/>
	<line class="st1" x1="49.338" y1="968.123" x2="57.034" y2="968.123"/>
	<line class="st1" x1="72.476" y1="963.73" x2="80.541" y2="963.73"/>
	<line class="st1" x1="72.423" y1="965.197" x2="80.596" y2="965.197"/>
	<line class="st1" x1="73.093" y1="966.658" x2="80.649" y2="966.658"/>
	<line class="st1" x1="73.093" y1="968.123" x2="80.596" y2="968.123"/>
	<path class="st1" d="M56.962,976.248c0,0.309,0.271,0.56,0.605,0.56c0.335,0,0.604-0.252,0.604-0.56l0,0"/>
	<line class="st1" x1="58.172" y1="976.248" x2="58.172" y2="976.08"/>
	<line class="st1" x1="56.962" y1="976.248" x2="56.962" y2="976.08"/>
	<path class="st1" d="M71.884,976.248c0,0.309,0.27,0.56,0.601,0.56c0.337,0,0.608-0.252,0.608-0.56l0,0"/>
	<line class="st1" x1="73.093" y1="976.248" x2="73.093" y2="976.08"/>
	<line class="st1" x1="71.884" y1="976.248" x2="71.884" y2="976.08"/>
	<line class="st1" x1="57.576" y1="976.08" x2="57.576" y2="965.226"/>
	<line class="st1" x1="49.392" y1="971.052" x2="57.066" y2="971.052"/>
	<line class="st1" x1="49.392" y1="972.513" x2="57.066" y2="972.513"/>
	<line class="st1" x1="49.445" y1="973.98" x2="57.066" y2="973.98"/>
	<line class="st1" x1="49.338" y1="969.585" x2="57.066" y2="969.585"/>
	<line class="st1" x1="72.478" y1="976.08" x2="72.478" y2="965.029"/>
	<line class="st1" x1="73.093" y1="971.052" x2="80.541" y2="971.052"/>
	<line class="st1" x1="73.093" y1="972.513" x2="80.489" y2="972.513"/>
	<line class="st1" x1="73.093" y1="973.98" x2="80.437" y2="973.98"/>
	<line class="st1" x1="73.008" y1="969.585" x2="80.705" y2="969.585"/>
	<path class="st1" d="M73.564,656.341c-0.386,0-0.697,0.242-0.697,0.546"/>
	<line class="st1" x1="81.997" y1="656.341" x2="73.564" y2="656.341"/>
	<line class="st1" x1="72.867" y1="656.887" x2="72.867" y2="659.003"/>
	<line class="st1" x1="72.867" y1="659.003" x2="56.29" y2="659.003"/>
	<path class="st1" d="M56.29,656.887c0-0.304-0.307-0.546-0.692-0.546"/>
	<line class="st1" x1="56.29" y1="659.003" x2="56.29" y2="656.887"/>
	<line class="st1" x1="55.598" y1="656.341" x2="47.114" y2="656.341"/>
	<line class="st1" x1="64.766" y1="669.386" x2="64.766" y2="656.146"/>
	<line class="st1" x1="64.429" y1="669.386" x2="64.429" y2="656.146"/>
	<line class="st1" x1="81.605" y1="668.708" x2="64.766" y2="668.708"/>
	<line class="st1" x1="64.766" y1="656.146" x2="64.429" y2="656.146"/>
	<line class="st1" x1="64.766" y1="669.386" x2="64.429" y2="669.386"/>
	<line class="st1" x1="64.429" y1="668.708" x2="46.983" y2="668.708"/>
	<line class="st1" x1="64.429" y1="667.307" x2="57.008" y2="667.307"/>
	<line class="st1" x1="64.429" y1="665.904" x2="57.008" y2="665.904"/>
	<line class="st1" x1="64.429" y1="664.5" x2="57.008" y2="664.5"/>
	<line class="st1" x1="64.429" y1="663.096" x2="57.008" y2="663.096"/>
	<line class="st1" x1="64.429" y1="661.693" x2="57.008" y2="661.693"/>
	<line class="st1" x1="64.429" y1="660.289" x2="57.008" y2="660.289"/>
	<line class="st1" x1="64.429" y1="657.483" x2="56.336" y2="657.483"/>
	<line class="st1" x1="72.186" y1="667.307" x2="64.766" y2="667.307"/>
	<line class="st1" x1="72.186" y1="665.904" x2="64.766" y2="665.904"/>
	<line class="st1" x1="72.186" y1="664.5" x2="64.766" y2="664.5"/>
	<line class="st1" x1="72.186" y1="663.096" x2="64.766" y2="663.096"/>
	<line class="st1" x1="72.186" y1="661.693" x2="64.766" y2="661.693"/>
	<line class="st1" x1="72.186" y1="660.289" x2="64.766" y2="660.289"/>
	<line class="st1" x1="72.918" y1="657.483" x2="64.766" y2="657.483"/>
	<line class="st1" x1="46.92" y1="657.723" x2="55.658" y2="657.723"/>
	<line class="st1" x1="47.039" y1="659.108" x2="56.575" y2="659.108"/>
	<line class="st1" x1="46.862" y1="660.488" x2="55.658" y2="660.488"/>
	<line class="st1" x1="47.039" y1="661.872" x2="55.623" y2="661.872"/>
	<line class="st1" x1="72.846" y1="657.723" x2="81.842" y2="657.723"/>
	<line class="st1" x1="72.788" y1="659.108" x2="81.904" y2="659.108"/>
	<line class="st1" x1="73.534" y1="660.488" x2="81.962" y2="660.488"/>
	<line class="st1" x1="73.534" y1="661.872" x2="81.904" y2="661.872"/>
	<path class="st1" d="M55.543,669.544c0,0.291,0.303,0.529,0.675,0.529c0.374,0,0.674-0.238,0.674-0.529l0,0"/>
	<line class="st1" x1="56.892" y1="669.544" x2="56.892" y2="669.386"/>
	<line class="st1" x1="55.543" y1="669.544" x2="55.543" y2="669.386"/>
	<path class="st1" d="M72.186,669.544c0,0.291,0.301,0.529,0.67,0.529c0.376,0,0.678-0.238,0.678-0.529l0,0"/>
	<line class="st1" x1="73.534" y1="669.544" x2="73.534" y2="669.386"/>
	<line class="st1" x1="72.186" y1="669.544" x2="72.186" y2="669.386"/>
	<line class="st1" x1="56.227" y1="669.386" x2="56.227" y2="659.136"/>
	<line class="st1" x1="47.1" y1="664.638" x2="55.658" y2="664.638"/>
	<line class="st1" x1="47.1" y1="666.018" x2="55.658" y2="666.018"/>
	<line class="st1" x1="47.159" y1="667.403" x2="55.658" y2="667.403"/>
	<line class="st1" x1="47.039" y1="663.252" x2="55.658" y2="663.252"/>
	<line class="st1" x1="72.848" y1="669.386" x2="72.848" y2="658.95"/>
	<line class="st1" x1="73.534" y1="664.638" x2="81.842" y2="664.638"/>
	<line class="st1" x1="73.534" y1="666.018" x2="81.784" y2="666.018"/>
	<line class="st1" x1="73.534" y1="667.403" x2="81.725" y2="667.403"/>
	<line class="st1" x1="73.439" y1="663.252" x2="82.024" y2="663.252"/>
	<path class="st1" d="M73.488,325.485c-0.382,0-0.689,0.231-0.689,0.522"/>
	<line class="st1" x1="81.827" y1="325.485" x2="73.488" y2="325.485"/>
	<line class="st1" x1="72.799" y1="326.007" x2="72.799" y2="328.031"/>
	<line class="st1" x1="72.799" y1="328.031" x2="56.405" y2="328.031"/>
	<path class="st1" d="M56.405,326.007c0-0.29-0.303-0.522-0.684-0.522"/>
	<line class="st1" x1="56.405" y1="328.031" x2="56.405" y2="326.007"/>
	<line class="st1" x1="55.722" y1="325.485" x2="47.331" y2="325.485"/>
	<line class="st1" x1="64.788" y1="337.961" x2="64.788" y2="325.298"/>
	<line class="st1" x1="64.453" y1="337.961" x2="64.453" y2="325.298"/>
	<line class="st1" x1="81.439" y1="337.313" x2="64.788" y2="337.313"/>
	<line class="st1" x1="64.788" y1="325.298" x2="64.453" y2="325.298"/>
	<line class="st1" x1="64.788" y1="337.961" x2="64.453" y2="337.961"/>
	<line class="st1" x1="64.453" y1="337.313" x2="47.202" y2="337.313"/>
	<line class="st1" x1="64.453" y1="335.973" x2="57.116" y2="335.973"/>
	<line class="st1" x1="64.453" y1="334.631" x2="57.116" y2="334.631"/>
	<line class="st1" x1="64.453" y1="333.288" x2="57.116" y2="333.288"/>
	<line class="st1" x1="64.453" y1="331.945" x2="57.116" y2="331.945"/>
	<line class="st1" x1="64.453" y1="330.603" x2="57.116" y2="330.603"/>
	<line class="st1" x1="64.453" y1="329.26" x2="57.116" y2="329.26"/>
	<line class="st1" x1="64.453" y1="326.577" x2="56.452" y2="326.577"/>
	<line class="st1" x1="72.124" y1="335.973" x2="64.788" y2="335.973"/>
	<line class="st1" x1="72.124" y1="334.631" x2="64.788" y2="334.631"/>
	<line class="st1" x1="72.124" y1="333.288" x2="64.788" y2="333.288"/>
	<line class="st1" x1="72.124" y1="331.945" x2="64.788" y2="331.945"/>
	<line class="st1" x1="72.124" y1="330.603" x2="64.788" y2="330.603"/>
	<line class="st1" x1="72.124" y1="329.26" x2="64.788" y2="329.26"/>
	<line class="st1" x1="72.849" y1="326.577" x2="64.788" y2="326.577"/>
	<line class="st1" x1="47.141" y1="326.806" x2="55.781" y2="326.806"/>
	<line class="st1" x1="47.258" y1="328.131" x2="56.687" y2="328.131"/>
	<line class="st1" x1="47.083" y1="329.451" x2="55.781" y2="329.451"/>
	<line class="st1" x1="47.258" y1="330.774" x2="55.747" y2="330.774"/>
	<line class="st1" x1="72.777" y1="326.806" x2="81.673" y2="326.806"/>
	<line class="st1" x1="72.72" y1="328.131" x2="81.734" y2="328.131"/>
	<line class="st1" x1="73.457" y1="329.451" x2="81.792" y2="329.451"/>
	<line class="st1" x1="73.457" y1="330.774" x2="81.734" y2="330.774"/>
	<path class="st1" d="M55.667,338.113c0,0.278,0.299,0.506,0.667,0.506c0.37,0,0.667-0.228,0.667-0.506l0,0"/>
	<line class="st1" x1="57.002" y1="338.113" x2="57.002" y2="337.961"/>
	<line class="st1" x1="55.667" y1="338.113" x2="55.667" y2="337.961"/>
	<path class="st1" d="M72.124,338.113c0,0.278,0.298,0.506,0.663,0.506c0.371,0,0.67-0.228,0.67-0.506l0,0"/>
	<line class="st1" x1="73.457" y1="338.113" x2="73.457" y2="337.961"/>
	<line class="st1" x1="72.124" y1="338.113" x2="72.124" y2="337.961"/>
	<line class="st1" x1="56.343" y1="337.961" x2="56.343" y2="328.158"/>
	<line class="st1" x1="47.318" y1="333.42" x2="55.781" y2="333.42"/>
	<line class="st1" x1="47.318" y1="334.74" x2="55.781" y2="334.74"/>
	<line class="st1" x1="47.376" y1="336.064" x2="55.781" y2="336.064"/>
	<line class="st1" x1="47.258" y1="332.095" x2="55.781" y2="332.095"/>
	<line class="st1" x1="72.779" y1="337.961" x2="72.779" y2="327.979"/>
	<line class="st1" x1="73.457" y1="333.42" x2="81.673" y2="333.42"/>
	<line class="st1" x1="73.457" y1="334.74" x2="81.616" y2="334.74"/>
	<line class="st1" x1="73.457" y1="336.064" x2="81.557" y2="336.064"/>
	<line class="st1" x1="73.365" y1="332.095" x2="81.853" y2="332.095"/>
	<rect x="109.681" y="356.765" class="st1" width="17.553" height="33.178"/>
	<path class="st1" d="M122.459,385.775c0,0,1.055,0.188,3.002-3.101v-17.14l-2.692-3.702c0,0-0.879-0.901-2.367-0.901
		c-1.492,0-2.396,0-3.888,0c-1.489,0-2.369,0.901-2.369,0.901l-2.69,3.702v17.14c1.947,3.289,3.001,3.101,3.001,3.101
		L122.459,385.775L122.459,385.775z"/>
	<path class="st1" d="M67.523,736.913c2.078-0.203,4.439-0.711,6.948-1.687c2.494-1.129,2.969,0.771,2.969,0.771
		s1.307,2.435,3.504,3.385c0,0-0.237,6.295,3.028,10.69c0,0-3.027,7.068-0.475,11.818c0.474,0.831,0.474,2.732,0.474,2.732
		s-0.831,12.411-14.262,15.995c-3.87,1.387-9.12,0.088-9.12,0.088c-13.415-2.703-14.681-16.083-14.681-16.083s0-1.9,0.474-2.732
		c2.553-4.75-0.475-11.818-0.475-11.818c3.266-4.394,3.028-10.69,3.028-10.69c2.197-0.95,3.504-3.385,3.504-3.385
		s0.475-1.9,2.969-0.771c2.826,1.099,5.636,1.567,7.656,1.765C63.065,736.991,66.335,737.125,67.523,736.913z"/>
	<circle class="st1" cx="87.828" cy="711.487" r="1.109"/>
	<path class="st1" d="M87.097,711.469c0,0-14.393-2.062-17.118-2.655"/>
	<path class="st1" d="M69.315,714.893c0,0,7.965,1.467,15.127,7.057"/>
	<path class="st1" d="M85.63,711.4c0,0-0.176,5.484-1.922,9.991"/>
	<path class="st1" d="M83.809,711.156c0,0-0.156,4.866-1.634,9.198"/>
	<path class="st1" d="M81.989,710.912c0,0-0.139,4.341-1.399,8.472"/>
	<path class="st1" d="M80.167,710.457c0,0-0.129,4.032-1.267,8.023"/>
	<path class="st1" d="M78.346,710.178c0,0-0.119,3.726-1.139,7.56"/>
	<path class="st1" d="M76.525,709.934c0,0-0.109,3.406-1.01,7.056"/>
	<path class="st1" d="M74.704,709.794c0,0-0.098,3.043-0.869,6.458"/>
	<path class="st1" d="M72.883,709.48c0,0-0.093,2.903-0.816,6.221"/>
	<path class="st1" d="M71.062,709.27c0,0-0.086,2.696-0.74,5.861"/>
	<path class="st1" d="M64.744,811.59c8.75,0.25,16-2.667,16-2.667l1.5,3.334l3.917-1.584l-1.5-4.083
		c1.333-0.583,3.833-0.833,5.583-1.083c-0.417-5.083-3.824-7.916-3.824-7.916l1.094-1.094c0,0,1.312,1.354,2.562,3.438
		c2.094,3.531,1.919,10.155,1.919,10.155h3.166c0.416-3.5-0.333-9.917-2.916-12.917c-1.083-1.416-3.084-4.583-3.084-4.583
		s-4.833-6.25,0.417-17.167c4.417-11.583-1.583-25.75-1.583-25.75c-2.25-7.167,0.666-14.083,0.666-14.083s2.417-3.417,1.583-9.25
		c-1.5-6.583-5.25-6.167-5.25-6.167s-5.084-0.082-5.75,2.334c-0.666,2.416,1.167,5.333,1.167,5.333s0.916,3.167,0.583,4.667
		c0.584,2.666,2.75,3.834,5.25,3.25s3.417-6.834,2.667-9.584s-3.167-5.416-3.917-4.166s1.084,3.5,1.084,3.5s1.499,4.084,0.916,5.75
		s-3.749,2.667-3.916-1s-1.551-4.382-1.834-4.834c-1.25-2,1.115-5.195,3.808-1.348"/>
	<circle class="st1" cx="85.437" cy="722.234" r="1.109"/>
	<path class="st1" d="M43.218,711.487c0,0.612-0.497,1.109-1.109,1.109S41,712.099,41,711.487s0.497-1.109,1.109-1.109
		S43.218,710.875,43.218,711.487z"/>
	<path class="st1" d="M42.839,711.469c0,0,14.393-2.062,17.118-2.655"/>
	<path class="st1" d="M60.622,714.893c0,0-7.965,1.467-15.127,7.057"/>
	<path class="st1" d="M44.306,711.4c0,0,0.176,5.484,1.922,9.991"/>
	<path class="st1" d="M46.127,711.156c0,0,0.156,4.866,1.634,9.198"/>
	<path class="st1" d="M47.948,710.912c0,0,0.139,4.341,1.399,8.472"/>
	<path class="st1" d="M49.769,710.457c0,0,0.129,4.032,1.267,8.023"/>
	<path class="st1" d="M51.59,710.178c0,0,0.119,3.726,1.139,7.56"/>
	<path class="st1" d="M53.412,709.934c0,0,0.109,3.406,1.01,7.056"/>
	<path class="st1" d="M55.233,709.794c0,0,0.098,3.043,0.869,6.458"/>
	<path class="st1" d="M57.053,709.48c0,0,0.093,2.903,0.816,6.221"/>
	<path class="st1" d="M58.875,709.27c0,0,0.086,2.696,0.74,5.861"/>
	<path class="st1" d="M65.193,811.59c-8.75,0.25-16-2.667-16-2.667l-1.5,3.334l-3.917-1.584l1.5-4.083
		c-1.333-0.583-3.833-0.833-5.583-1.083c0.417-5.083,3.824-7.916,3.824-7.916l-1.094-1.094c0,0-1.313,1.354-2.563,3.438
		c-2.094,3.531-1.919,10.155-1.919,10.155h-3.166c-0.416-3.5,0.333-9.917,2.916-12.917c1.083-1.416,3.084-4.583,3.084-4.583
		s4.833-6.25-0.417-17.167c-4.417-11.583,1.583-25.75,1.583-25.75c2.25-7.167-0.666-14.083-0.666-14.083s-2.417-3.417-1.583-9.25
		c1.5-6.583,5.25-6.167,5.25-6.167s5.084-0.082,5.75,2.334c0.666,2.416-1.167,5.333-1.167,5.333s-0.916,3.167-0.583,4.667
		c-0.584,2.666-2.75,3.834-5.25,3.25s-3.417-6.834-2.667-9.584s3.167-5.416,3.917-4.166s-1.084,3.5-1.084,3.5
		s-1.499,4.084-0.916,5.75s3.749,2.667,3.916-1s1.551-4.382,1.834-4.834c1.25-2-1.115-5.195-3.808-1.348"/>
	<circle class="st1" cx="44.5" cy="722.234" r="1.109"/>
	<rect x="0.542" y="356.765" class="st1" width="17.553" height="33.178"/>
	<path class="st1" d="M13.32,385.775c0,0,1.055,0.188,3.002-3.101v-17.14l-2.692-3.702c0,0-0.879-0.901-2.367-0.901
		c-1.492,0-2.397,0-3.888,0c-1.489,0-2.369,0.901-2.369,0.901l-2.69,3.702v17.14c1.947,3.289,3.001,3.101,3.001,3.101L13.32,385.775
		L13.32,385.775z"/>
	<polyline class="st1" points="116.866,1008.685 103.747,1008.685 103.747,999.12 70.403,999.12 26.81,999.12 26.81,1008.685 
		10.957,1008.685 	"/>
	<path class="st2" d="M38.403,330.113h1.007c1,0,1.727,0.527,1.727,1.783v0.072c0,0.728-0.288,1.191-0.656,1.472l0.751,2.271h-1.039
		l-0.632-1.951h-0.184v1.951h-0.976v-5.598L38.403,330.113L38.403,330.113z M39.426,332.879c0.424,0,0.735-0.248,0.735-0.903v-0.064
		c0-0.704-0.336-0.888-0.759-0.888h-0.024v1.855H39.426z M41.586,330.113h1.008c1,0,1.727,0.527,1.727,1.783v0.072
		c0,0.728-0.288,1.191-0.656,1.472l0.751,2.271h-1.04l-0.631-1.951h-0.184v1.951h-0.976L41.586,330.113L41.586,330.113z
		 M42.61,332.879c0.424,0,0.736-0.248,0.736-0.903v-0.064c0-0.704-0.336-0.888-0.76-0.888h-0.024v1.855H42.61z"/>
	<path class="st2" d="M84.403,330.113h1.008c0.999,0,1.727,0.527,1.727,1.783v0.072c0,0.728-0.287,1.191-0.655,1.472l0.752,2.271
		h-1.04l-0.631-1.951h-0.185v1.951h-0.976C84.403,335.711,84.403,330.113,84.403,330.113z M85.426,332.879
		c0.424,0,0.736-0.248,0.736-0.903v-0.064c0-0.704-0.336-0.888-0.76-0.888h-0.024v1.855H85.426z M87.587,330.113h1.007
		c1,0,1.728,0.527,1.728,1.783v0.072c0,0.728-0.288,1.191-0.655,1.472l0.751,2.271h-1.039l-0.632-1.951h-0.184v1.951h-0.976
		C87.587,335.711,87.587,330.113,87.587,330.113z M88.611,332.879c0.424,0,0.735-0.248,0.735-0.903v-0.064
		c0-0.704-0.336-0.888-0.76-0.888h-0.023v1.855H88.611z"/>
	<path class="st2" d="M76.417,487.435v-1.016c0.344,0.2,0.616,0.312,0.88,0.312c0.279,0,0.52-0.136,0.52-0.479v-0.016
		c0-0.256-0.08-0.448-0.544-0.976c-0.663-0.751-0.936-1.111-0.936-1.791v-0.016c0-0.896,0.584-1.463,1.359-1.463
		c0.392,0,0.624,0.056,0.864,0.176v1.016c-0.305-0.176-0.488-0.256-0.744-0.256c-0.271,0-0.504,0.176-0.504,0.479v0.016
		c0,0.264,0.08,0.36,0.544,0.896c0.768,0.887,0.936,1.231,0.936,1.871v0.016c0,0.879-0.615,1.463-1.383,1.463
		C77.026,487.666,76.698,487.57,76.417,487.435z M79.921,482.014h1.039l1.063,5.613h-0.976l-0.184-1.111h-0.888l-0.176,1.111h-0.943
		L79.921,482.014z M80.721,485.636l-0.296-1.847l-0.304,1.847H80.721z M82.322,482.03h0.976v2.342l0.791-2.342h1.104l-0.943,2.366
		l0.96,3.23h-1.088l-0.607-2.119l-0.216,0.616v1.503h-0.976L82.322,482.03L82.322,482.03z M85.545,482.03h2.143v0.927h-1.167v1.391
		h1.031v0.928h-1.031v1.423h1.191v0.928h-2.167V482.03z M77.622,490.03h0.848c0.943,0,1.823,0.384,1.823,1.423v0.04
		c0,0.72-0.408,1.071-0.808,1.263c0.472,0.208,0.879,0.536,0.879,1.248v0.072c0,0.992-0.768,1.551-1.854,1.551h-0.888V490.03z
		 M78.613,492.38c0.432,0,0.72-0.248,0.72-0.736v-0.016c0-0.487-0.288-0.695-0.72-0.695h-0.016v1.447H78.613z M78.621,494.723
		c0.448,0,0.768-0.264,0.768-0.728v-0.04c0-0.464-0.319-0.728-0.768-0.728h-0.023v1.495h0.023V494.723z M81.517,490.014h1.04
		l1.062,5.613h-0.975l-0.185-1.111h-0.888l-0.176,1.111h-0.943L81.517,490.014z M82.317,493.636l-0.296-1.847l-0.304,1.847H82.317z
		 M83.917,490.03h1.008c0.999,0,1.727,0.527,1.727,1.783v0.072c0,0.728-0.287,1.191-0.655,1.472l0.752,2.271h-1.04l-0.632-1.951
		h-0.184v1.951h-0.976V490.03z M84.941,492.796c0.424,0,0.735-0.248,0.735-0.903v-0.064c0-0.704-0.335-0.888-0.759-0.888h-0.024
		v1.855H84.941z"/>
	<path class="st2" d="M51.045,487.435v-1.016c0.344,0.2,0.616,0.312,0.88,0.312c0.28,0,0.52-0.136,0.52-0.479v-0.016
		c0-0.256-0.08-0.448-0.544-0.976c-0.664-0.751-0.935-1.111-0.935-1.791v-0.016c0-0.896,0.583-1.463,1.359-1.463
		c0.392,0,0.624,0.056,0.864,0.176v1.016c-0.304-0.176-0.488-0.256-0.744-0.256c-0.272,0-0.504,0.176-0.504,0.479v0.016
		c0,0.264,0.08,0.36,0.544,0.896c0.768,0.887,0.936,1.231,0.936,1.871v0.016c0,0.879-0.616,1.463-1.383,1.463
		C51.653,487.666,51.325,487.57,51.045,487.435z M53.749,485.996v-3.966h0.967v4.062c0,0.504,0.176,0.704,0.424,0.704
		s0.424-0.2,0.424-0.704v-4.062h0.967v3.966c0,1.175-0.591,1.703-1.391,1.703C54.341,487.698,53.749,487.171,53.749,485.996z
		 M56.974,487.435v-1.016c0.344,0.2,0.615,0.312,0.879,0.312c0.28,0,0.52-0.136,0.52-0.479v-0.016c0-0.256-0.08-0.448-0.543-0.976
		c-0.664-0.751-0.936-1.111-0.936-1.791v-0.016c0-0.896,0.583-1.463,1.359-1.463c0.392,0,0.624,0.056,0.863,0.176v1.016
		c-0.304-0.176-0.488-0.256-0.744-0.256c-0.272,0-0.503,0.176-0.503,0.479v0.016c0,0.264,0.08,0.36,0.543,0.896
		c0.768,0.887,0.936,1.231,0.936,1.871v0.016c0,0.879-0.616,1.463-1.383,1.463C57.581,487.666,57.253,487.57,56.974,487.435z
		 M59.693,482.03h0.976v2.318h0.847v-2.318h0.976v5.597h-0.976v-2.351h-0.847v2.351h-0.976V482.03z M63.085,482.03h0.975v5.597
		h-0.975V482.03z M53.169,490.03h0.848c0.943,0,1.823,0.384,1.823,1.423v0.04c0,0.72-0.408,1.071-0.808,1.263
		c0.472,0.208,0.88,0.536,0.88,1.248v0.072c0,0.992-0.768,1.551-1.855,1.551h-0.888V490.03z M54.161,492.38
		c0.432,0,0.719-0.248,0.719-0.736v-0.016c0-0.487-0.288-0.695-0.719-0.695h-0.016v1.447H54.161z M54.169,494.723
		c0.448,0,0.768-0.264,0.768-0.728v-0.04c0-0.464-0.32-0.728-0.768-0.728h-0.024v1.495h0.024V494.723z M57.065,490.014h1.04
		l1.063,5.613h-0.976l-0.184-1.111H57.12l-0.176,1.111H56L57.065,490.014z M57.865,493.636l-0.296-1.847l-0.304,1.847H57.865z
		 M59.465,490.03h1.008c0.999,0,1.727,0.527,1.727,1.783v0.072c0,0.728-0.288,1.191-0.656,1.472l0.751,2.271h-1.04l-0.631-1.951
		H60.44v1.951h-0.976L59.465,490.03L59.465,490.03z M60.489,492.796c0.424,0,0.736-0.248,0.736-0.903v-0.064
		c0-0.704-0.336-0.888-0.76-0.888h-0.024v1.855H60.489z"/>
	<path class="st2" d="M59.13,563.368h-0.688v-0.927h2.351v0.927h-0.688v4.669H59.13V563.368z M61.202,562.441h2.143v0.927h-1.167
		v1.391h1.031v0.928h-1.031v1.423h1.191v0.928h-2.167C61.202,568.038,61.202,562.441,61.202,562.441z M63.842,562.441h0.872
		c1.063,0,1.807,0.575,1.807,1.887v0.016c0,1.263-0.704,1.863-1.695,1.935h-0.008v1.759h-0.976
		C63.842,568.038,63.842,562.441,63.842,562.441z M64.826,565.375c0.408-0.024,0.72-0.32,0.72-1v-0.016
		c0-0.712-0.272-1.016-0.696-1.016h-0.032v2.031L64.826,565.375L64.826,565.375z M66.922,562.441h0.871
		c1.063,0,1.807,0.575,1.807,1.887v0.016c0,1.263-0.704,1.863-1.695,1.935h-0.008v1.759h-0.975V562.441z M67.906,565.375
		c0.408-0.024,0.719-0.32,0.719-1v-0.016c0-0.712-0.271-1.016-0.695-1.016h-0.032v2.031L67.906,565.375L67.906,565.375z
		 M70.506,562.425h1.04l1.063,5.613h-0.975l-0.184-1.111h-0.888l-0.176,1.111h-0.943L70.506,562.425z M71.305,566.047l-0.296-1.847
		l-0.304,1.847H71.305z M72.906,562.441h0.912l0.983,2.83v-2.83h0.951v5.597h-0.863l-1.032-2.966v2.966h-0.951
		C72.906,568.038,72.906,562.441,72.906,562.441z M77.082,565.831l-1.039-3.39h1.007l0.528,2.095l0.535-2.095h0.983l-1.039,3.39
		v2.207h-0.976L77.082,565.831L77.082,565.831z M79.85,562.425h1.039l1.063,5.613h-0.976l-0.184-1.111h-0.888l-0.176,1.111h-0.943
		L79.85,562.425z M80.649,566.047l-0.296-1.847l-0.304,1.847H80.649z M82.25,562.441h0.975v2.342l0.792-2.342h1.104l-0.943,2.366
		l0.959,3.23H84.05l-0.608-2.119l-0.216,0.616v1.503H82.25V562.441z M85.49,562.441h0.976v5.597H85.49V562.441z"/>
	<path class="st2" d="M114.106,676.335v-0.872c0-1.063,0.575-1.807,1.887-1.807h0.016c1.264,0,1.863,0.703,1.936,1.695v0.008h1.759
		v0.976H114.106z M117.041,675.352c-0.024-0.408-0.32-0.72-1-0.72h-0.016c-0.712,0-1.016,0.271-1.016,0.695v0.032h2.031
		L117.041,675.352L117.041,675.352z M114.106,673.255v-1.008c0-0.999,0.527-1.727,1.783-1.727h0.071
		c0.728,0,1.191,0.288,1.472,0.655l2.271-0.751v1.039l-1.951,0.632v0.184h1.951v0.976L114.106,673.255L114.106,673.255z
		 M116.873,672.232c0-0.424-0.248-0.735-0.904-0.735h-0.063c-0.704,0-0.888,0.336-0.888,0.759v0.024h1.855V672.232z
		 M117.048,670.167h-0.288c-1.847,0-2.734-0.6-2.734-1.487s0.888-1.487,2.734-1.487h0.288c1.847,0,2.734,0.6,2.734,1.487
		S118.895,670.167,117.048,670.167z M117.048,668.184h-0.288c-1.439,0-1.839,0.2-1.839,0.496s0.399,0.496,1.839,0.496h0.288
		c1.438,0,1.839-0.2,1.839-0.496S118.487,668.184,117.048,668.184z M114.106,666.711v-0.968l2.047-0.688l-2.047-0.688v-0.968h5.597
		v0.936h-3.382l2.118,0.712v0.016l-2.118,0.712h3.382v0.936L114.106,666.711L114.106,666.711z M114.106,662.824v-2.144h0.928v1.168
		h1.391v-1.031h0.928v1.031h1.423v-1.191h0.928v2.167L114.106,662.824L114.106,662.824z M114.106,660.183v-0.911l2.83-0.983h-2.83
		v-0.951h5.597v0.863l-2.967,1.031h2.967v0.951H114.106z M114.089,655.976v-1.039l5.613-1.063v0.975l-1.111,0.185v0.888l1.111,0.176
		v0.943L114.089,655.976z M117.711,655.176l-1.847,0.296l1.847,0.304V655.176z M114.106,653.576v-0.911
		c0-1.248,0.903-1.959,2.702-1.959H117c1.799,0,2.702,0.711,2.702,1.959v0.911H114.106z M118.807,652.56
		c0-0.464-0.408-0.863-1.807-0.863h-0.192c-1.399,0-1.807,0.399-1.807,0.863v0.04h3.806V652.56z M114.106,650.224v-2.144h0.928
		v1.168h1.391v-1.032h0.928v1.032h1.423v-1.191h0.928v2.167L114.106,650.224L114.106,650.224z M114.106,646.312V645.4
		c0-1.247,0.903-1.959,2.702-1.959H117c1.799,0,2.702,0.712,2.702,1.959v0.912H114.106z M118.807,645.296
		c0-0.464-0.408-0.863-1.807-0.863h-0.192c-1.399,0-1.807,0.399-1.807,0.863v0.04h3.806V645.296z M114.106,642.959v-2.143h0.928
		v1.168h1.391v-1.032h0.928v1.032h1.423v-1.191h0.928v2.166L114.106,642.959L114.106,642.959z M117,640.496h-0.192
		c-1.967,0-2.742-0.728-2.742-1.639c0-0.272,0.032-0.432,0.128-0.64h1.007c-0.119,0.2-0.184,0.359-0.184,0.544
		c0,0.432,0.384,0.743,1.783,0.743h0.208c1.479,0,1.783-0.312,1.783-0.76c0-0.151-0.057-0.344-0.176-0.544h0.959
		c0.128,0.225,0.168,0.44,0.168,0.72C119.743,639.816,118.951,640.496,117,640.496z M114.106,637.712v-0.976h2.343l-2.343-0.792
		v-1.104l2.366,0.943l3.23-0.959v1.087l-2.119,0.608l0.616,0.216h1.503v0.976h-5.596
		C114.106,637.711,114.106,637.712,114.106,637.712z"/>
	<path class="st2" d="M9.975,679.001v-0.872c0-1.063,0.575-1.807,1.887-1.807h0.016c1.263,0,1.863,0.703,1.935,1.695v0.008h1.759
		v0.976H9.975z M12.909,678.018c-0.024-0.408-0.32-0.72-1-0.72h-0.016c-0.712,0-1.016,0.271-1.016,0.695v0.032h2.031L12.909,678.018
		L12.909,678.018z M9.975,675.921v-1.008c0-0.999,0.527-1.727,1.783-1.727h0.072c0.728,0,1.191,0.288,1.472,0.655l2.271-0.751v1.039
		l-1.951,0.632v0.184h1.951v0.976L9.975,675.921L9.975,675.921z M12.741,674.898c0-0.424-0.248-0.735-0.903-0.735h-0.064
		c-0.704,0-0.888,0.336-0.888,0.759v0.024h1.855C12.741,674.946,12.741,674.898,12.741,674.898z M12.917,672.833h-0.288
		c-1.847,0-2.734-0.6-2.734-1.487s0.887-1.487,2.734-1.487h0.288c1.847,0,2.734,0.6,2.734,1.487S14.764,672.833,12.917,672.833z
		 M12.917,670.85h-0.288c-1.439,0-1.839,0.2-1.839,0.496s0.399,0.496,1.839,0.496h0.288c1.439,0,1.839-0.2,1.839-0.496
		S14.356,670.85,12.917,670.85z M9.975,669.377v-0.968l2.047-0.688l-2.047-0.688v-0.968h5.597v0.936H12.19l2.119,0.712v0.016
		l-2.119,0.712h3.382v0.936L9.975,669.377L9.975,669.377z M9.975,665.49v-2.144h0.927v1.168h1.391v-1.031h0.928v1.031h1.423v-1.191
		h0.928v2.167L9.975,665.49L9.975,665.49z M9.975,662.849v-0.911l2.83-0.983h-2.83v-0.951h5.597v0.863l-2.966,1.031h2.966v0.951
		H9.975z M9.959,658.642v-1.039l5.613-1.063v0.975l-1.111,0.185v0.888l1.111,0.176v0.943L9.959,658.642z M13.581,657.842
		l-1.847,0.296l1.847,0.304V657.842z M9.975,656.242v-0.911c0-1.248,0.903-1.959,2.702-1.959h0.192c1.799,0,2.703,0.711,2.703,1.959
		v0.911H9.975z M14.676,655.226c0-0.464-0.408-0.863-1.807-0.863h-0.192c-1.399,0-1.807,0.399-1.807,0.863v0.04h3.806
		C14.676,655.266,14.676,655.226,14.676,655.226z M9.975,652.89v-2.144h0.927v1.168h1.391v-1.032h0.928v1.032h1.423v-1.191h0.928
		v2.167L9.975,652.89L9.975,652.89z M9.975,648.978v-0.912c0-1.247,0.903-1.959,2.702-1.959h0.192c1.799,0,2.703,0.712,2.703,1.959
		v0.912H9.975z M14.676,647.962c0-0.464-0.408-0.863-1.807-0.863h-0.192c-1.399,0-1.807,0.399-1.807,0.863v0.04h3.806
		C14.676,648.002,14.676,647.962,14.676,647.962z M9.975,645.625v-2.143h0.927v1.168h1.391v-1.032h0.928v1.032h1.423v-1.191h0.928
		v2.166L9.975,645.625L9.975,645.625z M12.869,643.162h-0.192c-1.967,0-2.742-0.728-2.742-1.639c0-0.272,0.032-0.432,0.128-0.64
		h1.007c-0.12,0.2-0.184,0.359-0.184,0.544c0,0.432,0.384,0.743,1.783,0.743h0.208c1.479,0,1.783-0.312,1.783-0.76
		c0-0.151-0.056-0.344-0.176-0.544h0.959c0.128,0.225,0.168,0.44,0.168,0.72C15.612,642.482,14.82,643.162,12.869,643.162z
		 M9.975,640.378v-0.976h2.342l-2.342-0.792v-1.104l2.366,0.943l3.23-0.959v1.087l-2.119,0.608l0.616,0.216h1.503v0.976H9.975
		V640.378z"/>
	<path class="st2" d="M50.217,1049.623h-0.688v-0.928h2.351v0.928h-0.688v4.669h-0.975
		C50.217,1054.292,50.217,1049.623,50.217,1049.623z M52.289,1048.695h1.007c1,0,1.727,0.527,1.727,1.783v0.071
		c0,0.728-0.288,1.191-0.656,1.472l0.751,2.271H54.08l-0.632-1.951h-0.184v1.951h-0.975
		C52.289,1054.292,52.289,1048.695,52.289,1048.695z M53.312,1051.461c0.423,0,0.735-0.248,0.735-0.904v-0.063
		c0-0.704-0.336-0.888-0.759-0.888h-0.024v1.855H53.312z M56.256,1048.678h1.04l1.063,5.613h-0.976l-0.184-1.111h-0.887
		l-0.176,1.111h-0.943L56.256,1048.678z M57.056,1052.3l-0.296-1.847l-0.304,1.847H57.056z M58.657,1048.695h0.912
		c1.247,0,1.959,0.903,1.959,2.702v0.192c0,1.799-0.712,2.702-1.959,2.702h-0.912V1048.695z M59.672,1053.396
		c0.464,0,0.863-0.408,0.863-1.807v-0.192c0-1.399-0.399-1.807-0.863-1.807h-0.04v3.806H59.672z M62.009,1048.695h2.143v0.928
		h-1.167v1.391h1.031v0.928h-1.031v1.423h1.191v0.928h-2.167C62.009,1054.293,62.009,1048.695,62.009,1048.695z M64.385,1048.695h1
		l0.408,3.43l0.488-3.43h0.903l0.48,3.43l0.416-3.43h0.976l-0.848,5.612h-1.023l-0.464-3.317l-0.463,3.317h-1.023L64.385,1048.695z
		 M69.4,1048.695h0.976v5.597H69.4V1048.695z M70.969,1048.695h0.911l0.984,2.83v-2.83h0.951v5.597h-0.863l-1.032-2.967v2.967
		h-0.951C70.969,1054.292,70.969,1048.695,70.969,1048.695z M74.393,1048.695h0.912c1.247,0,1.959,0.903,1.959,2.702v0.192
		c0,1.799-0.712,2.702-1.959,2.702h-0.912V1048.695z M75.408,1053.396c0.464,0,0.864-0.408,0.864-1.807v-0.192
		c0-1.399-0.4-1.807-0.864-1.807h-0.04v3.806H75.408z M77.584,1054.099v-1.015c0.344,0.199,0.616,0.312,0.88,0.312
		c0.279,0,0.52-0.136,0.52-0.479v-0.017c0-0.256-0.08-0.447-0.544-0.975c-0.663-0.752-0.936-1.112-0.936-1.791v-0.017
		c0-0.896,0.584-1.463,1.359-1.463c0.392,0,0.624,0.056,0.863,0.176v1.016c-0.304-0.176-0.487-0.256-0.743-0.256
		c-0.271,0-0.504,0.176-0.504,0.479v0.016c0,0.265,0.08,0.36,0.544,0.896c0.768,0.888,0.936,1.231,0.936,1.871v0.017
		c0,0.879-0.616,1.463-1.384,1.463C78.192,1054.332,77.865,1054.236,77.584,1054.099z M45.497,1057.623h-0.688v-0.928h2.351v0.928
		h-0.688v4.669h-0.976L45.497,1057.623L45.497,1057.623z M48.113,1056.678h1.039l1.063,5.613H49.24l-0.184-1.111h-0.888
		l-0.176,1.111h-0.943L48.113,1056.678z M48.912,1060.3l-0.296-1.847l-0.304,1.847H48.912z M51.081,1059.437l-0.879-2.742h1.04
		l0.439,1.615l0.448-1.615h1.016l-0.879,2.742l0.911,2.854h-1.039l-0.472-1.703l-0.48,1.703H50.17L51.081,1059.437z M54.617,1060.86
		v-0.048c0-0.68,0.32-1.183,0.855-1.646c-0.312-0.504-0.472-0.88-0.472-1.271v-0.056c0-0.672,0.463-1.224,1.159-1.224
		c0.68,0,1.127,0.496,1.127,1.215v0.057c0,0.64-0.304,1.087-0.792,1.503l0.503,0.959c0.04-0.176,0.072-0.415,0.12-0.751l0.751,0.136
		c-0.072,0.632-0.2,1.079-0.36,1.439l0.464,0.791l-0.704,0.432l-0.272-0.495c-0.264,0.296-0.551,0.472-1.039,0.472
		C55.241,1062.372,54.617,1061.772,54.617,1060.86z M56.584,1061.26l-0.704-1.392c-0.208,0.256-0.328,0.592-0.328,0.872v0.063
		c0,0.432,0.208,0.72,0.527,0.72C56.288,1061.524,56.448,1061.428,56.584,1061.26z M56.112,1058.734
		c0.248-0.24,0.344-0.528,0.344-0.824v-0.063c0-0.272-0.128-0.448-0.312-0.448c-0.192,0-0.312,0.176-0.312,0.416v0.08
		C55.832,1058.118,55.92,1058.366,56.112,1058.734z M59.545,1056.695h0.912c1.247,0,1.959,0.903,1.959,2.702v0.192
		c0,1.799-0.712,2.702-1.959,2.702h-0.912V1056.695z M60.56,1061.396c0.464,0,0.864-0.408,0.864-1.807v-0.192
		c0-1.399-0.4-1.807-0.864-1.807h-0.04v3.806H60.56z M62.881,1060.661v-3.966h0.967v4.062c0,0.504,0.176,0.704,0.424,0.704
		s0.424-0.2,0.424-0.704v-4.062h0.967v3.966c0,1.175-0.591,1.703-1.391,1.703C63.473,1062.364,62.881,1061.835,62.881,1060.661z
		 M66.745,1057.623h-0.688v-0.928h2.351v0.928H67.72v4.669h-0.975V1057.623z M69.488,1060.084l-1.04-3.39h1.007l0.528,2.095
		l0.536-2.095h0.983l-1.039,3.39v2.207h-0.976L69.488,1060.084L69.488,1060.084z M71.416,1059.333h2.063v0.959h-2.063V1059.333z
		 M74.081,1056.695h2.039v0.928h-1.063v1.406h0.928v0.928h-0.928v2.335h-0.976V1056.695z M76.561,1056.695h1.007
		c1,0,1.728,0.527,1.728,1.783v0.071c0,0.728-0.288,1.191-0.656,1.472l0.752,2.271h-1.039l-0.632-1.951h-0.185v1.951h-0.975
		C76.561,1062.292,76.561,1056.695,76.561,1056.695z M77.584,1059.461c0.424,0,0.735-0.248,0.735-0.904v-0.063
		c0-0.704-0.336-0.888-0.76-0.888h-0.024v1.855H77.584z M79.745,1056.695h2.143v0.928H80.72v1.391h1.031v0.928H80.72v1.423h1.191
		v0.928h-2.167L79.745,1056.695L79.745,1056.695z M82.384,1056.695h2.143v0.928H83.36v1.391h1.031v0.928H83.36v1.423h1.191v0.928
		h-2.167V1056.695z"/>
	<path class="st2" d="M56.811,787.737h1.04l1.063,5.613h-0.976l-0.184-1.111h-0.887l-0.176,1.111h-0.944L56.811,787.737z
		 M57.611,791.359l-0.296-1.847l-0.304,1.847H57.611z M59.492,788.681h-0.688v-0.928h2.351v0.928h-0.688v4.669h-0.976
		L59.492,788.681L59.492,788.681z M61.564,787.753h1.007c1,0,1.727,0.527,1.727,1.783v0.071c0,0.728-0.288,1.191-0.656,1.472
		l0.752,2.271h-1.04l-0.632-1.951H62.54v1.951h-0.976V787.753z M62.587,790.52c0.424,0,0.735-0.248,0.735-0.904v-0.063
		c0-0.704-0.335-0.888-0.759-0.888H62.54v1.855H62.587z M64.764,787.753h0.976v5.597h-0.976V787.753z M66.316,791.719v-3.966h0.967
		v4.062c0,0.504,0.176,0.704,0.424,0.704s0.424-0.2,0.424-0.704v-4.062h0.967v3.966c0,1.175-0.591,1.703-1.391,1.703
		C66.908,793.422,66.316,792.894,66.316,791.719z M69.66,787.753h0.968l0.688,2.047l0.688-2.047h0.967v5.597h-0.935v-3.382
		l-0.712,2.118h-0.016l-0.711-2.118v3.382H69.66V787.753z M51.448,798.648v-0.192c0-1.967,0.728-2.742,1.639-2.742
		c0.271,0,0.432,0.032,0.64,0.128v1.007c-0.2-0.119-0.36-0.184-0.544-0.184c-0.432,0-0.744,0.384-0.744,1.783v0.208
		c0,1.479,0.312,1.783,0.76,1.783c0.152,0,0.344-0.057,0.543-0.176v0.959c-0.224,0.128-0.439,0.168-0.72,0.168
		C52.127,801.39,51.448,800.598,51.448,798.648z M55.016,795.737h1.04l1.063,5.613h-0.976l-0.184-1.111h-0.887l-0.176,1.111h-0.943
		L55.016,795.737z M55.815,799.359l-0.296-1.847l-0.304,1.847H55.815z M57.416,795.753h2.039v0.928h-1.063v1.406h0.927v0.928h-0.927
		v2.335h-0.976V795.753z M59.896,795.753h2.143v0.928h-1.167v1.391h1.031V799h-1.031v1.423h1.191v0.928h-2.167
		C59.896,801.351,59.896,795.753,59.896,795.753z M61.255,794.458l0.808,0.4l-0.792,0.615h-0.704L61.255,794.458z M63.624,799.918
		v-0.048c0-0.68,0.32-1.183,0.855-1.646c-0.312-0.504-0.472-0.88-0.472-1.271v-0.056c0-0.672,0.463-1.224,1.159-1.224
		c0.68,0,1.127,0.496,1.127,1.215v0.057c0,0.64-0.304,1.087-0.792,1.503l0.503,0.959c0.04-0.176,0.072-0.415,0.12-0.751l0.751,0.136
		c-0.072,0.632-0.2,1.079-0.36,1.439l0.464,0.791l-0.704,0.432l-0.272-0.495c-0.264,0.296-0.551,0.472-1.039,0.472
		C64.248,801.43,63.624,800.831,63.624,799.918z M65.591,800.319l-0.704-1.392c-0.208,0.256-0.328,0.592-0.328,0.872v0.063
		c0,0.432,0.208,0.72,0.527,0.72C65.295,800.583,65.455,800.487,65.591,800.319z M65.119,797.792
		c0.248-0.24,0.344-0.528,0.344-0.824v-0.063c0-0.272-0.128-0.448-0.312-0.448c-0.192,0-0.312,0.176-0.312,0.416v0.08
		C64.839,797.176,64.927,797.424,65.119,797.792z M68.552,795.753H69.4c0.943,0,1.823,0.384,1.823,1.423v0.04
		c0,0.72-0.408,1.071-0.808,1.264c0.472,0.208,0.88,0.535,0.88,1.247v0.072c0,0.991-0.768,1.551-1.855,1.551h-0.887L68.552,795.753
		L68.552,795.753z M69.543,798.104c0.432,0,0.72-0.248,0.72-0.735v-0.017c0-0.487-0.288-0.695-0.72-0.695h-0.016v1.447H69.543z
		 M69.551,800.447c0.448,0,0.768-0.264,0.768-0.728v-0.04c0-0.464-0.32-0.728-0.768-0.728h-0.024v1.495h0.024V800.447z
		 M72.447,795.737h1.04l1.063,5.613h-0.976l-0.184-1.111h-0.887l-0.176,1.111h-0.944L72.447,795.737z M73.247,799.359l-0.296-1.847
		l-0.304,1.847H73.247z M74.848,795.753h1.007c1,0,1.728,0.527,1.728,1.783v0.071c0,0.728-0.288,1.191-0.656,1.472l0.752,2.271
		H76.64l-0.632-1.951h-0.185v1.951h-0.975V795.753z M75.872,798.52c0.424,0,0.735-0.248,0.735-0.904v-0.063
		c0-0.704-0.336-0.888-0.76-0.888h-0.024v1.855H75.872z"/>
	<path class="st2" d="M32.744,906.027v-1.04l5.613-1.063v0.976l-1.111,0.185v0.887l1.111,0.177v0.943L32.744,906.027z
		 M36.366,905.227l-1.847,0.296l1.847,0.304V905.227z M32.76,903.626v-1.008c0-0.999,0.527-1.727,1.783-1.727h0.072
		c0.728,0,1.191,0.287,1.472,0.655l2.271-0.752v1.04l-1.951,0.632v0.184h1.951v0.976L32.76,903.626L32.76,903.626z M35.526,902.603
		c0-0.424-0.248-0.735-0.903-0.735h-0.064c-0.704,0-0.888,0.335-0.888,0.759v0.024h1.855V902.603z M33.687,900.002v0.688H32.76
		v-2.351h0.927v0.688h4.669v0.976L33.687,900.002L33.687,900.002z M35.654,896.754h-0.192c-1.807,0-2.742-0.768-2.742-1.871
		c0-0.296,0.064-0.544,0.16-0.743h1.016c-0.144,0.239-0.24,0.455-0.24,0.711c0,0.56,0.56,0.912,1.767,0.912h0.272
		c1.463,0,1.799-0.432,1.799-0.832c0-0.032,0-0.04-0.008-0.088h-1.431v0.479h-0.872v-1.367h2.975c0.152,0.353,0.24,0.64,0.24,1.016
		C38.397,895.947,37.605,896.754,35.654,896.754z M32.744,892.635v-1.04l5.613-1.063v0.976l-1.111,0.184v0.888l1.111,0.176v0.943
		L32.744,892.635z M36.366,891.835l-1.847,0.296l1.847,0.304V891.835z M32.76,890.235v-0.976h4.669v-1.032h0.928v2.008H32.76z
		 M32.76,887.834v-0.976h4.669v-1.031h0.928v2.007H32.76z M32.76,885.435v-2.144h0.927v1.168h1.391v-1.032h0.928v1.032h1.423v-1.191
		h0.928v2.167L32.76,885.435L32.76,885.435z M32.76,882.794v-1.007c0-1,0.527-1.728,1.783-1.728h0.072
		c0.728,0,1.191,0.288,1.472,0.656l2.271-0.752v1.039l-1.951,0.632v0.184h1.951v0.976H32.76z M35.526,881.771
		c0-0.424-0.248-0.735-0.903-0.735h-0.064c-0.704,0-0.888,0.336-0.888,0.76v0.023h1.855V881.771z M36.15,879.019l-3.39,1.039v-1.007
		l2.095-0.528l-2.095-0.535v-0.983l3.39,1.039h2.207v0.976H36.15V879.019z"/>
	<path class="st2" d="M90.785,909.919v-0.871c0-1.063,0.575-1.808,1.887-1.808h0.016c1.264,0,1.863,0.704,1.936,1.695v0.008h1.759
		v0.976L90.785,909.919L90.785,909.919z M93.719,908.936c-0.024-0.408-0.32-0.72-1-0.72h-0.016c-0.712,0-1.016,0.271-1.016,0.695
		v0.032h2.031L93.719,908.936L93.719,908.936z M90.785,906.839v-0.976h2.318v-0.848h-2.318v-0.975h5.597v0.975h-2.351v0.848h2.351
		v0.976H90.785z M93.727,903.559h-0.288c-1.847,0-2.734-0.6-2.734-1.486c0-0.888,0.888-1.487,2.734-1.487h0.288
		c1.847,0,2.734,0.6,2.734,1.487C96.461,902.959,95.574,903.559,93.727,903.559z M93.727,901.577h-0.288
		c-1.439,0-1.839,0.2-1.839,0.496c0,0.295,0.399,0.495,1.839,0.495h0.288c1.439,0,1.839-0.2,1.839-0.495
		C95.566,901.777,95.166,901.577,93.727,901.577z M91.711,899.744v0.688h-0.927v-2.351h0.927v0.688h4.67v0.976L91.711,899.744
		L91.711,899.744z M93.727,897.927h-0.288c-1.847,0-2.734-0.6-2.734-1.487s0.888-1.487,2.734-1.487h0.288
		c1.847,0,2.734,0.6,2.734,1.487S95.574,897.927,93.727,897.927z M93.727,895.945h-0.288c-1.439,0-1.839,0.199-1.839,0.495
		s0.399,0.496,1.839,0.496h0.288c1.439,0,1.839-0.2,1.839-0.496S95.166,895.945,93.727,895.945z M93.679,893.295h-0.192
		c-1.807,0-2.742-0.768-2.742-1.871c0-0.296,0.063-0.544,0.16-0.743h1.015c-0.144,0.239-0.239,0.455-0.239,0.711
		c0,0.561,0.56,0.912,1.767,0.912h0.272c1.463,0,1.799-0.432,1.799-0.832c0-0.031,0-0.04-0.008-0.088h-1.432v0.479h-0.871v-1.367
		h2.974c0.152,0.353,0.24,0.64,0.24,1.016C96.421,892.488,95.629,893.295,93.679,893.295z M90.768,889.176v-1.04l5.613-1.063v0.976
		l-1.111,0.185v0.887l1.111,0.176v0.944L90.768,889.176z M94.39,888.376l-1.847,0.296l1.847,0.304V888.376z M90.785,886.776V885.8
		h4.669v-1.031h0.928v2.007H90.785z M90.785,884.375V883.4h4.669v-1.031h0.928v2.007h-5.597V884.375z M90.785,881.976v-2.144h0.927
		V881h1.392v-1.031h0.928V881h1.423v-1.191h0.928v2.167H90.785z M90.785,879.335v-1.007c0-1,0.527-1.728,1.783-1.728h0.071
		c0.728,0,1.191,0.288,1.472,0.656l2.271-0.752v1.039l-1.951,0.632v0.185h1.951v0.975L90.785,879.335L90.785,879.335z
		 M93.551,878.312c0-0.424-0.248-0.735-0.904-0.735h-0.063c-0.704,0-0.888,0.336-0.888,0.76v0.024h1.855V878.312z M94.174,875.56
		l-3.39,1.04v-1.008l2.095-0.527l-2.095-0.536v-0.983l3.39,1.039h2.207v0.976h-2.207V875.56z"/>
	<path class="st2" d="M107.502,782.761h-0.168c-1.583,0-2.402-0.672-2.402-1.639c0-0.259,0.056-0.477,0.14-0.651h0.89
		c-0.126,0.21-0.21,0.399-0.21,0.623c0,0.491,0.49,0.799,1.548,0.799h0.238c1.281,0,1.575-0.378,1.575-0.729
		c0-0.027,0-0.035-0.007-0.077h-1.254v0.421h-0.763v-1.198h2.605c0.133,0.309,0.21,0.561,0.21,0.89
		C109.905,782.054,109.211,782.761,107.502,782.761z M104.967,779.829v-0.854h4.902v0.854H104.967z M104.967,778.457v-1.786h0.812
		v0.932h1.232v-0.812h0.812v0.812h2.045v0.854H104.967z M105.78,775.832v0.603h-0.812v-2.06h0.812v0.603h4.09v0.854L105.78,775.832
		L105.78,775.832z M109.702,773.011h-0.89c0.175-0.302,0.273-0.54,0.273-0.771c0-0.245-0.119-0.456-0.421-0.456h-0.014
		c-0.224,0-0.393,0.07-0.854,0.477c-0.658,0.581-0.974,0.819-1.568,0.819h-0.015c-0.784,0-1.281-0.511-1.281-1.19
		c0-0.343,0.049-0.546,0.154-0.757h0.889c-0.153,0.267-0.224,0.428-0.224,0.651c0,0.238,0.154,0.441,0.42,0.441h0.015
		c0.23,0,0.314-0.069,0.784-0.476c0.777-0.673,1.078-0.82,1.639-0.82h0.014c0.771,0,1.282,0.54,1.282,1.212
		C109.905,772.478,109.821,772.765,109.702,773.011z M104.967,770.63v-0.854h2.031v-0.742h-2.031v-0.854h4.902v0.854h-2.06v0.742
		h2.06v0.854H104.967z M107.544,767.761h-0.252c-1.618,0-2.396-0.525-2.396-1.303s0.777-1.303,2.396-1.303h0.252
		c1.618,0,2.396,0.525,2.396,1.303S109.163,767.761,107.544,767.761z M107.544,766.024h-0.252c-1.261,0-1.611,0.175-1.611,0.435
		c0,0.259,0.351,0.434,1.611,0.434h0.252c1.261,0,1.61-0.175,1.61-0.434C109.155,766.199,108.805,766.024,107.544,766.024z
		 M104.967,764.737v-0.764c0-0.932,0.504-1.583,1.652-1.583h0.015c1.106,0,1.632,0.616,1.694,1.485v0.007h1.541v0.854
		L104.967,764.737L104.967,764.737z M107.538,763.875c-0.021-0.357-0.28-0.631-0.876-0.631h-0.014c-0.623,0-0.89,0.238-0.89,0.609
		v0.028h1.779L107.538,763.875L107.538,763.875z"/>
	<path class="st2" d="M29.394,520.208v-0.192c0-1.967,0.728-2.742,1.639-2.742c0.272,0,0.432,0.032,0.64,0.128v1.007
		c-0.2-0.12-0.36-0.184-0.543-0.184c-0.432,0-0.744,0.384-0.744,1.783v0.208c0,1.479,0.312,1.783,0.759,1.783
		c0.152,0,0.344-0.056,0.544-0.176v0.959c-0.224,0.128-0.44,0.168-0.72,0.168C30.074,522.951,29.394,522.16,29.394,520.208z
		 M32.178,517.314h0.976v2.319h0.847v-2.319h0.976v5.597h-0.976v-2.351h-0.847v2.351h-0.976V517.314z M35.57,517.314h0.976v5.597
		H35.57V517.314z M37.138,517.314h0.911l0.984,2.831v-2.831h0.951v5.597h-0.863l-1.032-2.966v2.966h-0.951V517.314z M41.738,520.208
		v-0.192c0-1.967,0.728-2.742,1.639-2.742c0.272,0,0.432,0.032,0.64,0.128v1.007c-0.2-0.12-0.36-0.184-0.543-0.184
		c-0.432,0-0.744,0.384-0.744,1.783v0.208c0,1.479,0.312,1.783,0.76,1.783c0.152,0,0.344-0.056,0.543-0.176v0.959
		c-0.224,0.128-0.439,0.168-0.72,0.168C42.417,522.951,41.738,522.16,41.738,520.208z M44.522,517.314h0.976v2.319h0.848v-2.319
		h0.975v5.597h-0.975v-2.351h-0.848v2.351h-0.976V517.314z M47.914,517.314h0.975v5.597h-0.975V517.314z M49.482,517.314h0.912
		l0.983,2.831v-2.831h0.952v5.597h-0.864l-1.031-2.966v2.966h-0.952C49.482,522.911,49.482,517.314,49.482,517.314z M34.358,525.298
		h1.039l1.063,5.613h-0.976L35.3,529.8h-0.888l-0.176,1.111h-0.943L34.358,525.298z M35.157,528.92l-0.296-1.847l-0.304,1.847
		H35.157z M36.638,530.719v-1.016c0.344,0.2,0.616,0.312,0.879,0.312c0.28,0,0.52-0.136,0.52-0.48v-0.016
		c0-0.256-0.08-0.448-0.544-0.976c-0.664-0.751-0.936-1.111-0.936-1.791v-0.016c0-0.896,0.584-1.463,1.359-1.463
		c0.392,0,0.624,0.056,0.863,0.176v1.015c-0.304-0.176-0.487-0.256-0.743-0.256c-0.272,0-0.504,0.176-0.504,0.48v0.016
		c0,0.264,0.08,0.36,0.543,0.896c0.768,0.887,0.936,1.231,0.936,1.871v0.016c0,0.88-0.616,1.463-1.383,1.463
		C37.246,530.951,36.918,530.855,36.638,530.719z M39.374,525.314h0.976v5.597h-0.976V525.314z M41.726,525.298h1.04l1.063,5.613
		h-0.976l-0.184-1.111h-0.887l-0.176,1.111h-0.943L41.726,525.298z M42.525,528.92l-0.295-1.847l-0.304,1.847H42.525z
		 M44.126,525.314h0.912l0.983,2.831v-2.831h0.951v5.597h-0.863l-1.031-2.966v2.966h-0.952
		C44.126,530.911,44.126,525.314,44.126,525.314z M26.442,533.314h1.007c1,0,1.727,0.528,1.727,1.783v0.072
		c0,0.728-0.288,1.191-0.656,1.471l0.752,2.271h-1.04L27.6,536.96h-0.184v1.951h-0.975L26.442,533.314L26.442,533.314z
		 M27.466,536.081c0.424,0,0.735-0.248,0.735-0.903v-0.064c0-0.704-0.335-0.888-0.759-0.888h-0.024v1.855L27.466,536.081
		L27.466,536.081z M29.626,533.314h2.143v0.928h-1.167v1.391h1.032v0.928h-1.032v1.423h1.191v0.927h-2.167V533.314z M32.146,538.719
		v-1.016c0.344,0.2,0.616,0.312,0.88,0.312c0.28,0,0.52-0.136,0.52-0.48v-0.016c0-0.256-0.08-0.448-0.544-0.976
		c-0.664-0.751-0.935-1.111-0.935-1.791v-0.016c0-0.896,0.583-1.463,1.359-1.463c0.392,0,0.624,0.056,0.864,0.176v1.015
		c-0.304-0.176-0.488-0.256-0.744-0.256c-0.272,0-0.504,0.176-0.504,0.48v0.016c0,0.264,0.08,0.36,0.544,0.896
		c0.768,0.887,0.936,1.231,0.936,1.871v0.016c0,0.88-0.616,1.463-1.383,1.463C32.754,538.951,32.426,538.855,32.146,538.719z
		 M35.266,534.242h-0.688v-0.928h2.351v0.928h-0.688v4.669h-0.976L35.266,534.242L35.266,534.242z M37.881,533.298h1.04l1.063,5.613
		h-0.976l-0.184-1.111h-0.888l-0.176,1.111h-0.943L37.881,533.298z M38.681,536.92l-0.296-1.847l-0.304,1.847H38.681z
		 M40.226,537.28v-3.966h0.967v4.062c0,0.504,0.176,0.704,0.424,0.704s0.424-0.2,0.424-0.704v-4.062h0.967v3.966
		c0,1.176-0.591,1.703-1.391,1.703C40.818,538.983,40.226,538.456,40.226,537.28z M43.57,533.314h1.008
		c0.999,0,1.727,0.528,1.727,1.783v0.072c0,0.728-0.288,1.191-0.655,1.471l0.751,2.271h-1.04l-0.631-1.951h-0.184v1.951H43.57
		V533.314z M44.593,536.081c0.424,0,0.736-0.248,0.736-0.903v-0.064c0-0.704-0.336-0.888-0.76-0.888h-0.024v1.855L44.593,536.081
		L44.593,536.081z M47.538,533.298h1.039l1.063,5.613h-0.975l-0.184-1.111h-0.888l-0.176,1.111h-0.943L47.538,533.298z
		 M48.337,536.92l-0.296-1.847l-0.304,1.847H48.337z M49.938,533.314h0.911l0.984,2.831v-2.831h0.951v5.597h-0.863l-1.032-2.966
		v2.966h-0.951V533.314z M53.881,534.242h-0.688v-0.928h2.351v0.928h-0.688v4.669H53.88L53.881,534.242L53.881,534.242z"/>
	<path class="st2" d="M39.104,967.751l1.007,0.001c1,0.001,1.727,0.529,1.726,1.784v0.072c0,0.728-0.289,1.191-0.657,1.471
		l0.75,2.271l-1.039-0.001l-0.63-1.951h-0.184l-0.001,1.95H39.1L39.104,967.751z M40.125,970.519c0.424,0,0.736-0.247,0.736-0.902
		v-0.064c0.001-0.703-0.335-0.888-0.759-0.888h-0.024l-0.001,1.854H40.125z M42.289,967.754l1.007,0.001
		c1,0.001,1.727,0.529,1.726,1.784v0.072c0,0.728-0.289,1.19-0.657,1.471l0.75,2.271l-1.04-0.001l-0.63-1.952h-0.184l-0.001,1.951
		l-0.976-0.001L42.289,967.754z M43.31,970.522c0.424,0,0.736-0.248,0.736-0.903v-0.063c0-0.704-0.335-0.888-0.759-0.889h-0.024
		l-0.001,1.855H43.31z"/>
	<path class="st2" d="M84.249,967.391l1.008,0.001c0.999,0.001,1.727,0.529,1.726,1.784v0.072c-0.001,0.728-0.289,1.191-0.657,1.471
		l0.75,2.271l-1.04-0.001l-0.63-1.951h-0.184l-0.002,1.95h-0.976L84.249,967.391z M85.27,970.159c0.424,0,0.735-0.247,0.736-0.902
		v-0.064c0-0.703-0.335-0.888-0.759-0.888h-0.024l-0.001,1.854H85.27z M87.432,967.394l1.008,0.001
		c0.999,0.001,1.727,0.529,1.726,1.784v0.072c-0.001,0.728-0.289,1.19-0.657,1.471l0.75,2.271l-1.039-0.001l-0.63-1.952h-0.185
		l-0.001,1.951l-0.976-0.001L87.432,967.394z M88.454,970.162c0.424,0,0.736-0.248,0.736-0.903v-0.063
		c0.001-0.704-0.335-0.888-0.759-0.889h-0.024l-0.001,1.855H88.454z"/>
	<path class="st2" d="M84.076,464.412h1.008c0.999,0,1.728,0.527,1.728,1.783v0.072c0,0.728-0.288,1.191-0.656,1.472l0.752,2.271
		h-1.04l-0.631-1.951h-0.185v1.951h-0.976C84.076,470.01,84.076,464.412,84.076,464.412z M85.099,467.178
		c0.424,0,0.736-0.248,0.736-0.903v-0.064c0-0.704-0.336-0.888-0.76-0.888h-0.024v1.855H85.099z M87.26,464.412h1.007
		c1,0,1.728,0.527,1.728,1.783v0.072c0,0.728-0.288,1.191-0.656,1.472l0.752,2.271h-1.039l-0.632-1.951h-0.184v1.951H87.26V464.412z
		 M88.284,467.178c0.424,0,0.735-0.248,0.735-0.903v-0.064c0-0.704-0.336-0.888-0.76-0.888h-0.023v1.855H88.284z"/>
	<path class="st2" d="M84.076,472.064h1.008c0.999,0,1.728,0.527,1.728,1.783v0.072c0,0.728-0.288,1.191-0.656,1.472l0.752,2.271
		h-1.04l-0.631-1.951h-0.185v1.951h-0.976C84.076,477.662,84.076,472.064,84.076,472.064z M85.099,474.83
		c0.424,0,0.736-0.248,0.736-0.903v-0.064c0-0.704-0.336-0.888-0.76-0.888h-0.024v1.855H85.099z M87.26,472.064h1.007
		c1,0,1.728,0.527,1.728,1.783v0.072c0,0.728-0.288,1.191-0.656,1.472l0.752,2.271h-1.039l-0.632-1.951h-0.184v1.951H87.26V472.064z
		 M88.284,474.83c0.424,0,0.735-0.248,0.735-0.903v-0.064c0-0.704-0.336-0.888-0.76-0.888h-0.023v1.855H88.284z"/>
	<path class="st2" d="M57.135,146.145v-1.016c0.344,0.2,0.616,0.312,0.88,0.312c0.28,0,0.52-0.136,0.52-0.479v-0.016
		c0-0.256-0.08-0.448-0.543-0.976c-0.664-0.751-0.936-1.111-0.936-1.791v-0.016c0-0.896,0.583-1.463,1.359-1.463
		c0.392,0,0.624,0.056,0.864,0.176v1.016c-0.304-0.176-0.488-0.256-0.744-0.256c-0.272,0-0.504,0.176-0.504,0.479v0.016
		c0,0.264,0.08,0.36,0.544,0.896c0.768,0.887,0.936,1.231,0.936,1.871v0.016c0,0.879-0.616,1.463-1.383,1.463
		C57.743,146.377,57.416,146.281,57.135,146.145z M60.255,141.668h-0.688v-0.927h2.351v0.927H61.23v4.669h-0.976v-4.669H60.255z
		 M62.871,140.725h1.039l1.063,5.613h-0.976l-0.184-1.111h-0.888l-0.176,1.111h-0.943L62.871,140.725z M63.67,144.347l-0.296-1.847
		l-0.304,1.847H63.67z M65.095,143.635v-0.192c0-1.807,0.768-2.742,1.871-2.742c0.296,0,0.544,0.064,0.744,0.16v1.016
		c-0.24-0.144-0.456-0.24-0.711-0.24c-0.56,0-0.912,0.56-0.912,1.767v0.272c0,1.463,0.432,1.799,0.832,1.799
		c0.032,0,0.04,0,0.088-0.008v-1.431h-0.48v-0.872h1.368v2.975c-0.352,0.152-0.64,0.24-1.016,0.24
		C65.903,146.377,65.095,145.586,65.095,143.635z M68.431,140.741h2.143v0.927h-1.167v1.391h1.031v0.928h-1.031v1.423h1.191v0.928
		h-2.167V140.741z"/>
	<path class="st2" d="M41.948,251.813v-1.016c0.344,0.2,0.616,0.312,0.88,0.312c0.28,0,0.52-0.136,0.52-0.479v-0.016
		c0-0.256-0.08-0.448-0.544-0.976c-0.664-0.751-0.936-1.111-0.936-1.791v-0.016c0-0.896,0.584-1.463,1.359-1.463
		c0.392,0,0.624,0.056,0.864,0.176v1.016c-0.304-0.176-0.488-0.256-0.744-0.256c-0.272,0-0.504,0.176-0.504,0.479v0.016
		c0,0.264,0.08,0.36,0.544,0.896c0.768,0.887,0.936,1.231,0.936,1.871v0.016c0,0.879-0.616,1.463-1.383,1.463
		C42.556,252.045,42.228,251.949,41.948,251.813z M45.067,247.336H44.38v-0.927h2.351v0.927h-0.688v4.669h-0.976V247.336z
		 M47.683,246.393h1.04l1.063,5.613H48.81l-0.184-1.111h-0.888l-0.176,1.111H46.62L47.683,246.393z M48.483,250.015l-0.296-1.847
		l-0.304,1.847H48.483z M50.083,246.409h1.008c0.999,0,1.727,0.527,1.727,1.783v0.072c0,0.728-0.288,1.191-0.656,1.472l0.751,2.271
		h-1.04l-0.631-1.951h-0.184v1.951h-0.976L50.083,246.409L50.083,246.409z M51.107,249.175c0.424,0,0.736-0.248,0.736-0.903v-0.064
		c0-0.704-0.336-0.888-0.76-0.888h-0.024v1.855H51.107z M53.268,246.409h0.912c1.247,0,1.959,0.903,1.959,2.702v0.192
		c0,1.799-0.712,2.703-1.959,2.703h-0.912V246.409z M54.283,251.11c0.463,0,0.863-0.408,0.863-1.807v-0.192
		c0-1.399-0.4-1.807-0.863-1.807h-0.04v3.806L54.283,251.11L54.283,251.11z M56.603,250.374v-3.966h0.967v4.062
		c0,0.504,0.176,0.704,0.424,0.704s0.424-0.2,0.424-0.704v-4.062h0.968v3.966c0,1.175-0.592,1.703-1.392,1.703
		C57.195,252.077,56.603,251.55,56.603,250.374z M59.828,251.813v-1.016c0.344,0.2,0.616,0.312,0.879,0.312
		c0.28,0,0.52-0.136,0.52-0.479v-0.016c0-0.256-0.08-0.448-0.543-0.976c-0.664-0.751-0.936-1.111-0.936-1.791v-0.016
		c0-0.896,0.583-1.463,1.359-1.463c0.392,0,0.624,0.056,0.863,0.176v1.016c-0.304-0.176-0.488-0.256-0.744-0.256
		c-0.271,0-0.503,0.176-0.503,0.479v0.016c0,0.264,0.08,0.36,0.543,0.896c0.768,0.887,0.936,1.231,0.936,1.871v0.016
		c0,0.879-0.616,1.463-1.383,1.463C60.435,252.045,60.107,251.949,59.828,251.813z M62.947,247.336h-0.688v-0.927h2.351v0.927
		h-0.688v4.669h-0.975C62.947,252.005,62.947,247.336,62.947,247.336z M66.811,247.336h-0.688v-0.927h2.351v0.927h-0.688v4.669
		H66.81L66.811,247.336L66.811,247.336z M68.883,246.409h0.976v2.318h0.847v-2.318h0.976v5.597h-0.976v-2.351h-0.847v2.351h-0.976
		V246.409z M72.259,246.409h2.143v0.927h-1.167v1.391h1.031v0.928h-1.031v1.423h1.191v0.928h-2.167V246.409z M75.683,246.393h1.039
		l1.063,5.613H76.81l-0.184-1.111h-0.888l-0.176,1.111H74.62L75.683,246.393z M76.482,250.015l-0.296-1.847l-0.304,1.847H76.482z
		 M78.363,247.336h-0.688v-0.927h2.351v0.927h-0.688v4.669h-0.976v-4.669H78.363z M80.435,246.409h2.143v0.927h-1.167v1.391h1.031
		v0.928h-1.031v1.423h1.191v0.928h-2.167V246.409z M83.075,246.409h1.008c0.999,0,1.727,0.527,1.727,1.783v0.072
		c0,0.728-0.287,1.191-0.655,1.472l0.752,2.271h-1.04l-0.632-1.951H84.05v1.951h-0.976L83.075,246.409L83.075,246.409z
		 M84.098,249.175c0.424,0,0.735-0.248,0.735-0.903v-0.064c0-0.704-0.335-0.888-0.759-0.888H84.05v1.855H84.098z M51.407,257.703
		c0-1.623,0.504-3.014,1.839-3.406V255c-0.688,0.36-0.936,1.407-0.936,2.703c0,1.303,0.248,2.351,0.936,2.71v0.704
		C51.911,260.725,51.407,259.342,51.407,257.703z M53.751,254.409h0.848c0.943,0,1.823,0.384,1.823,1.423v0.04
		c0,0.72-0.408,1.071-0.808,1.263c0.472,0.208,0.88,0.536,0.88,1.248v0.072c0,0.992-0.768,1.551-1.855,1.551h-0.888V254.409z
		 M54.743,256.759c0.432,0,0.72-0.248,0.72-0.736v-0.016c0-0.487-0.288-0.695-0.72-0.695h-0.016v1.447H54.743z M54.751,259.102
		c0.448,0,0.768-0.264,0.768-0.728v-0.04c0-0.464-0.32-0.728-0.768-0.728h-0.024v1.495h0.024V259.102z M57.647,254.393h1.04
		l1.063,5.613h-0.976l-0.184-1.111h-0.887l-0.176,1.111h-0.944L57.647,254.393z M58.447,258.015l-0.296-1.847l-0.304,1.847H58.447z
		 M60.047,254.409h0.976v4.669h1.031v0.928h-2.007V254.409z M62.151,257.303v-0.192c0-1.967,0.728-2.742,1.639-2.742
		c0.272,0,0.432,0.032,0.64,0.128v1.007c-0.2-0.12-0.36-0.184-0.543-0.184c-0.432,0-0.744,0.384-0.744,1.783v0.208
		c0,1.479,0.312,1.783,0.759,1.783c0.152,0,0.344-0.056,0.544-0.176v0.959c-0.224,0.128-0.44,0.168-0.72,0.168
		C62.831,260.045,62.151,259.254,62.151,257.303z M64.64,257.351v-0.288c0-1.847,0.6-2.734,1.487-2.734
		c0.888,0,1.487,0.887,1.487,2.734v0.288c0,1.847-0.6,2.734-1.487,2.734C65.239,260.085,64.64,259.198,64.64,257.351z
		 M66.623,257.351v-0.288c0-1.439-0.2-1.839-0.496-1.839c-0.295,0-0.496,0.399-0.496,1.839v0.288c0,1.439,0.2,1.839,0.496,1.839
		C66.422,259.19,66.623,258.79,66.623,257.351z M68.095,254.409h0.912l0.983,2.83v-2.83h0.952v5.597h-0.864l-1.031-2.966v2.966
		h-0.952C68.095,260.006,68.095,254.409,68.095,254.409z M72.271,257.798l-1.04-3.39h1.007l0.528,2.095l0.536-2.095h0.983
		l-1.039,3.39v2.207H72.27L72.271,257.798L72.271,257.798z M74.503,260.413c0.688-0.36,0.936-1.407,0.936-2.71
		c0-1.295-0.248-2.343-0.936-2.703v-0.704c1.335,0.392,1.839,1.783,1.839,3.406c0,1.639-0.504,3.022-1.839,3.414V260.413z"/>
	<path class="st2" d="M54.284,186.326v-0.288c0-1.847,0.6-2.734,1.487-2.734c0.888,0,1.487,0.887,1.487,2.734v0.288
		c0,1.847-0.6,2.734-1.487,2.734C54.883,189.06,54.284,188.172,54.284,186.326z M56.267,186.326v-0.288
		c0-1.439-0.2-1.839-0.496-1.839c-0.295,0-0.496,0.399-0.496,1.839v0.288c0,1.439,0.2,1.839,0.496,1.839
		C56.066,188.165,56.267,187.765,56.267,186.326z M57.739,183.383h0.872c1.063,0,1.807,0.575,1.807,1.887v0.016
		c0,1.263-0.704,1.863-1.695,1.935h-0.008v1.759h-0.976V183.383z M58.723,186.317c0.408-0.024,0.719-0.32,0.719-1v-0.016
		c0-0.712-0.272-1.016-0.695-1.016h-0.032v2.031h0.008V186.317z M60.819,183.383h2.143v0.927h-1.167v1.391h1.031v0.928h-1.031v1.423
		h1.191v0.928h-2.167V183.383z M63.459,183.383h0.911l0.983,2.83v-2.83h0.952v5.597h-0.863l-1.032-2.966v2.966h-0.951
		L63.459,183.383L63.459,183.383z M68.675,184.311h-0.688v-0.927h2.351v0.927H69.65v4.669h-0.976L68.675,184.311L68.675,184.311z
		 M70.491,186.326v-0.288c0-1.847,0.6-2.734,1.487-2.734s1.487,0.887,1.487,2.734v0.288c0,1.847-0.6,2.734-1.487,2.734
		C71.091,189.06,70.491,188.172,70.491,186.326z M72.474,186.326v-0.288c0-1.439-0.2-1.839-0.496-1.839s-0.496,0.399-0.496,1.839
		v0.288c0,1.439,0.2,1.839,0.496,1.839S72.474,187.765,72.474,186.326z M48.311,191.383h0.912c1.247,0,1.959,0.903,1.959,2.702
		v0.192c0,1.799-0.712,2.703-1.959,2.703h-0.912V191.383z M49.327,196.084c0.463,0,0.863-0.408,0.863-1.807v-0.192
		c0-1.399-0.4-1.807-0.863-1.807h-0.04v3.806L49.327,196.084L49.327,196.084z M51.664,191.383h2.143v0.927H52.64v1.391h1.031v0.928
		H52.64v1.423h1.191v0.928h-2.167V191.383z M54.127,194.277v-0.192c0-1.967,0.728-2.742,1.639-2.742c0.272,0,0.432,0.032,0.64,0.128
		v1.007c-0.2-0.12-0.36-0.184-0.544-0.184c-0.432,0-0.744,0.384-0.744,1.783v0.208c0,1.479,0.312,1.783,0.76,1.783
		c0.152,0,0.344-0.056,0.544-0.176v0.959c-0.224,0.128-0.44,0.168-0.72,0.168C54.807,197.02,54.127,196.229,54.127,194.277z
		 M56.912,191.383h0.975v2.342l0.792-2.342h1.104l-0.943,2.366l0.959,3.23H58.71l-0.608-2.119l-0.216,0.616v1.503h-0.975
		L56.912,191.383L56.912,191.383z M60.016,196.788v-1.016c0.344,0.2,0.616,0.312,0.879,0.312c0.28,0,0.52-0.136,0.52-0.479v-0.016
		c0-0.256-0.08-0.448-0.543-0.976c-0.664-0.751-0.936-1.111-0.936-1.791v-0.016c0-0.896,0.583-1.463,1.359-1.463
		c0.392,0,0.624,0.056,0.863,0.176v1.016c-0.304-0.176-0.488-0.256-0.744-0.256c-0.271,0-0.503,0.176-0.503,0.479v0.016
		c0,0.264,0.08,0.36,0.543,0.896c0.768,0.887,0.936,1.231,0.936,1.871v0.016c0,0.879-0.616,1.463-1.383,1.463
		C60.623,197.02,60.295,196.924,60.016,196.788z M64.007,191.383h0.848c0.943,0,1.823,0.384,1.823,1.423v0.04
		c0,0.72-0.408,1.071-0.808,1.263c0.472,0.208,0.88,0.536,0.88,1.248v0.072c0,0.992-0.768,1.551-1.855,1.551h-0.888
		C64.007,196.98,64.007,191.383,64.007,191.383z M64.999,193.734c0.432,0,0.72-0.248,0.72-0.736v-0.016
		c0-0.487-0.288-0.695-0.72-0.695h-0.016v1.447H64.999z M65.007,196.077c0.448,0,0.768-0.264,0.768-0.728v-0.04
		c0-0.464-0.32-0.728-0.768-0.728h-0.024v1.495L65.007,196.077L65.007,196.077z M67.159,191.383h2.143v0.927h-1.167v1.391h1.031
		v0.928h-1.031v1.423h1.191v0.928h-2.167V191.383z M69.799,191.383h0.976v4.669h1.031v0.928h-2.007
		C69.799,196.98,69.799,191.383,69.799,191.383z M71.903,194.326v-0.288c0-1.847,0.6-2.734,1.487-2.734
		c0.888,0,1.487,0.887,1.487,2.734v0.288c0,1.847-0.6,2.734-1.487,2.734S71.903,196.172,71.903,194.326z M73.886,194.326v-0.288
		c0-1.439-0.2-1.839-0.496-1.839c-0.295,0-0.496,0.399-0.496,1.839v0.288c0,1.439,0.2,1.839,0.496,1.839
		C73.686,196.165,73.886,195.765,73.886,194.326z M75.015,191.383h1l0.407,3.43l0.488-3.43h0.903l0.479,3.43l0.416-3.43h0.976
		l-0.848,5.613h-1.023l-0.464-3.318l-0.464,3.318h-1.023L75.015,191.383z"/>
	<path class="st2" d="M59.825,394.954h0.847c0.944,0,1.823,0.384,1.823,1.423v0.04c0,0.72-0.408,1.071-0.808,1.263
		c0.472,0.208,0.879,0.536,0.879,1.248V399c0,0.992-0.768,1.551-1.855,1.551h-0.887L59.825,394.954L59.825,394.954z M60.816,397.305
		c0.432,0,0.72-0.248,0.72-0.736v-0.016c0-0.488-0.288-0.696-0.72-0.696H60.8v1.447h0.016
		C60.816,397.304,60.816,397.305,60.816,397.305z M60.824,399.647c0.448,0,0.768-0.264,0.768-0.728v-0.04
		c0-0.464-0.319-0.728-0.768-0.728H60.8v1.496H60.824z M62.977,394.954h0.976v4.67h1.031v0.927h-2.007V394.954z M65.393,394.954
		h0.975v5.597h-0.975V394.954z M66.84,400.359v-1.016c0.344,0.2,0.616,0.312,0.88,0.312c0.28,0,0.52-0.136,0.52-0.48v-0.016
		c0-0.256-0.08-0.448-0.544-0.976c-0.664-0.751-0.936-1.111-0.936-1.791v-0.016c0-0.896,0.584-1.463,1.359-1.463
		c0.392,0,0.624,0.056,0.864,0.176v1.015c-0.304-0.176-0.488-0.256-0.744-0.256c-0.272,0-0.504,0.176-0.504,0.48v0.016
		c0,0.264,0.08,0.36,0.544,0.896c0.768,0.887,0.936,1.231,0.936,1.871v0.016c0,0.88-0.616,1.463-1.383,1.463
		C67.448,400.591,67.12,400.495,66.84,400.359z M69.44,400.359v-1.016c0.344,0.2,0.616,0.312,0.879,0.312
		c0.28,0,0.52-0.136,0.52-0.48v-0.016c0-0.256-0.08-0.448-0.544-0.976c-0.664-0.751-0.936-1.111-0.936-1.791v-0.016
		c0-0.896,0.584-1.463,1.359-1.463c0.392,0,0.624,0.056,0.864,0.176v1.015c-0.304-0.176-0.488-0.256-0.744-0.256
		c-0.272,0-0.504,0.176-0.504,0.48v0.016c0,0.264,0.08,0.36,0.543,0.896c0.768,0.887,0.936,1.231,0.936,1.871v0.016
		c0,0.88-0.615,1.463-1.383,1.463C70.048,400.591,69.72,400.495,69.44,400.359z M58.772,406.919v-3.966h0.968v4.062
		c0,0.504,0.176,0.704,0.423,0.704c0.248,0,0.424-0.2,0.424-0.704v-4.062h0.968v3.966c0,1.176-0.592,1.703-1.392,1.703
		C59.364,408.623,58.772,408.095,58.772,406.919z M62.117,402.954h0.975v4.67h1.032v0.927h-2.007V402.954z M64.756,403.881h-0.688
		v-0.928h2.351v0.928h-0.688v4.669h-0.975C64.756,408.55,64.756,403.881,64.756,403.881z M66.829,402.954h1.007
		c1,0,1.727,0.528,1.727,1.783v0.072c0,0.728-0.288,1.191-0.656,1.471l0.751,2.271H68.62l-0.632-1.951h-0.184v1.951h-0.975V402.954z
		 M67.852,405.72c0.423,0,0.735-0.248,0.735-0.903v-0.064c0-0.704-0.336-0.888-0.76-0.888h-0.024v1.855H67.852z M70.796,402.938
		h1.04l1.063,5.613h-0.976l-0.184-1.111h-0.887l-0.176,1.111h-0.943L70.796,402.938z M71.595,406.56l-0.295-1.847l-0.304,1.847
		H71.595z M56.896,410.954h0.976v4.67h1.031v0.927h-2.007V410.954z M59,413.896v-0.288c0-1.847,0.6-2.734,1.487-2.734
		s1.487,0.887,1.487,2.734v0.288c0,1.847-0.6,2.735-1.487,2.735S59,415.743,59,413.896z M60.983,413.896v-0.288
		c0-1.439-0.2-1.839-0.496-1.839s-0.496,0.4-0.496,1.839v0.288c0,1.439,0.2,1.839,0.496,1.839S60.983,415.335,60.983,413.896z
		 M62.44,414.919v-3.966h0.968v4.062c0,0.504,0.176,0.704,0.423,0.704c0.248,0,0.424-0.2,0.424-0.704v-4.062h0.968v3.966
		c0,1.176-0.592,1.703-1.392,1.703C63.032,416.623,62.44,416.095,62.44,414.919z M65.785,410.954h0.911l0.983,2.831v-2.831h0.952
		v5.597h-0.864l-1.031-2.966v2.966h-0.951L65.785,410.954L65.785,410.954z M69.112,413.848v-0.192c0-1.807,0.768-2.742,1.871-2.742
		c0.296,0,0.543,0.064,0.744,0.16v1.016c-0.24-0.144-0.456-0.24-0.712-0.24c-0.56,0-0.911,0.56-0.911,1.767v0.272
		c0,1.463,0.432,1.799,0.832,1.799c0.032,0,0.04,0,0.088-0.008v-1.431h-0.48v-0.872h1.367v2.975c-0.352,0.152-0.64,0.24-1.015,0.24
		C69.92,416.591,69.112,415.799,69.112,413.848z M72.448,410.954h2.143v0.928h-1.167v1.391h1.031v0.928h-1.031v1.423h1.191v0.927
		h-2.167V410.954z"/>
	<path class="st2" d="M20.18,779.958h-0.89c0.175-0.301,0.273-0.539,0.273-0.771c0-0.245-0.119-0.455-0.42-0.455h-0.014
		c-0.224,0-0.392,0.07-0.854,0.477c-0.658,0.581-0.974,0.819-1.569,0.819h-0.014c-0.785,0-1.282-0.512-1.282-1.191
		c0-0.343,0.049-0.546,0.154-0.756h0.89c-0.154,0.266-0.224,0.427-0.224,0.651c0,0.238,0.154,0.441,0.42,0.441h0.014
		c0.231,0,0.315-0.07,0.785-0.477c0.777-0.672,1.079-0.819,1.639-0.819h0.014c0.771,0,1.282,0.539,1.282,1.212
		C20.383,779.426,20.299,779.713,20.18,779.958z M15.445,777.579v-0.854h2.031v-0.742h-2.031v-0.854h4.903v0.854h-2.059v0.742h2.059
		v0.854H15.445z M18.022,774.708H17.77c-1.618,0-2.395-0.525-2.395-1.303s0.777-1.303,2.395-1.303h0.252
		c1.618,0,2.395,0.525,2.395,1.303S19.64,774.708,18.022,774.708z M18.022,772.971H17.77c-1.26,0-1.611,0.176-1.611,0.435
		s0.351,0.435,1.611,0.435h0.252c1.261,0,1.611-0.176,1.611-0.435S19.283,772.971,18.022,772.971z M15.445,771.684v-0.882
		c0-0.876,0.462-1.513,1.562-1.513h0.063c0.637,0,1.043,0.252,1.289,0.574l1.989-0.658v0.91l-1.709,0.553v0.161h1.709v0.854h-4.903
		V771.684z M17.868,770.788c0-0.371-0.217-0.644-0.792-0.644H17.02c-0.617,0-0.777,0.294-0.777,0.665v0.021h1.625V770.788z
		 M15.445,768.899v-1.877h0.812v1.022h1.219v-0.904h0.812v0.904h1.247V767h0.812v1.898L15.445,768.899L15.445,768.899z
		 M22.445,785.639v-1.877h0.812v1.022h1.219v-0.903h0.812v0.903h1.247v-1.044h0.812v1.898h-4.902V785.639z M24.847,782.727
		l-2.402,0.77v-0.91l1.415-0.385l-1.415-0.393v-0.89l2.402,0.771l2.5-0.798v0.91l-1.492,0.413l1.492,0.42v0.89L24.847,782.727z
		 M24.98,780.809h-0.168c-1.723,0-2.402-0.638-2.402-1.436c0-0.238,0.028-0.379,0.112-0.561h0.882
		c-0.105,0.175-0.161,0.315-0.161,0.477c0,0.378,0.336,0.651,1.562,0.651h0.182c1.296,0,1.562-0.273,1.562-0.666
		c0-0.133-0.049-0.301-0.154-0.476h0.841c0.112,0.195,0.147,0.385,0.147,0.63C27.383,780.213,26.689,780.809,24.98,780.809z
		 M25.919,778.387h-3.474v-0.848h3.558c0.441,0,0.616-0.154,0.616-0.371c0-0.218-0.175-0.371-0.616-0.371h-3.558v-0.848h3.474
		c1.029,0,1.492,0.519,1.492,1.219S26.948,778.387,25.919,778.387z M22.445,775.461v-0.883c0-0.876,0.462-1.513,1.562-1.513h0.063
		c0.637,0,1.043,0.252,1.289,0.574l1.989-0.658v0.91l-1.709,0.554v0.161h1.709v0.854h-4.903V775.461z M24.868,774.565
		c0-0.372-0.217-0.645-0.792-0.645H24.02c-0.617,0-0.777,0.294-0.777,0.665v0.021h1.625V774.565z M27.18,772.78h-0.89
		c0.175-0.301,0.273-0.539,0.273-0.771c0-0.245-0.119-0.455-0.42-0.455h-0.014c-0.224,0-0.392,0.07-0.854,0.477
		c-0.658,0.581-0.974,0.819-1.569,0.819h-0.014c-0.785,0-1.282-0.512-1.282-1.19c0-0.344,0.049-0.547,0.154-0.757h0.89
		c-0.154,0.267-0.224,0.428-0.224,0.651c0,0.238,0.154,0.441,0.42,0.441h0.014c0.231,0,0.315-0.07,0.785-0.477
		c0.777-0.672,1.079-0.819,1.639-0.819h0.014c0.771,0,1.282,0.54,1.282,1.212C27.383,772.248,27.299,772.535,27.18,772.78z
		 M22.445,770.386v-0.854h4.903v0.854H22.445z M25.022,769.098H24.77c-1.618,0-2.395-0.525-2.395-1.303s0.777-1.303,2.395-1.303
		h0.252c1.618,0,2.395,0.525,2.395,1.303S26.64,769.098,25.022,769.098z M25.022,767.361H24.77c-1.26,0-1.611,0.176-1.611,0.435
		s0.351,0.435,1.611,0.435h0.252c1.261,0,1.611-0.176,1.611-0.435S26.283,767.361,25.022,767.361z M22.445,766.074v-0.798
		l2.479-0.861h-2.479v-0.834h4.903v0.757l-2.599,0.903h2.599v0.833L22.445,766.074L22.445,766.074z M27.18,763.183h-0.89
		c0.175-0.301,0.273-0.539,0.273-0.771c0-0.245-0.119-0.455-0.42-0.455h-0.014c-0.224,0-0.392,0.07-0.854,0.477
		c-0.658,0.581-0.974,0.819-1.569,0.819h-0.014c-0.785,0-1.282-0.512-1.282-1.19c0-0.344,0.049-0.547,0.154-0.757h0.89
		c-0.154,0.267-0.224,0.428-0.224,0.651c0,0.238,0.154,0.441,0.42,0.441h0.014c0.231,0,0.315-0.07,0.785-0.477
		c0.777-0.672,1.079-0.819,1.639-0.819h0.014c0.771,0,1.282,0.539,1.282,1.212C27.383,762.651,27.299,762.938,27.18,763.183z"/>
	<path class="st3" d="M58.004,818.281v-0.192c0-1.807,0.768-2.742,1.871-2.742c0.296,0,0.544,0.063,0.744,0.16v1.015
		c-0.24-0.144-0.456-0.239-0.711-0.239c-0.56,0-0.912,0.56-0.912,1.767v0.272c0,1.463,0.432,1.799,0.832,1.799
		c0.032,0,0.04,0,0.088-0.008v-1.432h-0.479v-0.871h1.367v2.974c-0.352,0.152-0.64,0.24-1.016,0.24
		C58.812,821.023,58.004,820.231,58.004,818.281z M61.324,819.352v-3.966h0.967v4.062c0,0.504,0.176,0.704,0.424,0.704
		c0.248,0,0.424-0.2,0.424-0.704v-4.062h0.967v3.966c0,1.175-0.591,1.703-1.391,1.703C61.916,821.055,61.324,820.527,61.324,819.352
		z M64.668,815.386h2.143v0.928h-1.167v1.391h1.031v0.928h-1.031v1.423h1.191v0.928h-2.167V815.386z M67.188,820.791v-1.015
		c0.344,0.199,0.616,0.312,0.879,0.312c0.28,0,0.52-0.136,0.52-0.479v-0.017c0-0.256-0.08-0.447-0.544-0.975
		c-0.664-0.752-0.936-1.112-0.936-1.791v-0.017c0-0.896,0.584-1.463,1.359-1.463c0.392,0,0.624,0.056,0.864,0.176v1.016
		c-0.304-0.176-0.488-0.256-0.744-0.256c-0.272,0-0.504,0.176-0.504,0.479v0.016c0,0.265,0.08,0.36,0.543,0.896
		c0.768,0.888,0.936,1.231,0.936,1.871v0.017c0,0.879-0.615,1.463-1.383,1.463C67.796,821.023,67.468,820.927,67.188,820.791z
		 M70.308,816.314H69.62v-0.928h2.351v0.928h-0.688v4.669h-0.976V816.314z M54.64,828.791v-1.015
		c0.344,0.199,0.616,0.312,0.879,0.312c0.28,0,0.52-0.136,0.52-0.479v-0.017c0-0.256-0.08-0.447-0.544-0.975
		c-0.664-0.752-0.935-1.112-0.935-1.791v-0.017c0-0.896,0.583-1.463,1.359-1.463c0.392,0,0.624,0.056,0.864,0.176v1.016
		c-0.304-0.176-0.488-0.256-0.744-0.256c-0.272,0-0.504,0.176-0.504,0.479v0.016c0,0.265,0.08,0.36,0.544,0.896
		c0.768,0.888,0.936,1.231,0.936,1.871v0.017c0,0.879-0.616,1.463-1.383,1.463C55.248,829.023,54.92,828.927,54.64,828.791z
		 M57.36,823.386h2.143v0.928h-1.167v1.391h1.032v0.928h-1.032v1.423h1.191v0.928H57.36V823.386z M60,823.386h1.007
		c1,0,1.727,0.527,1.727,1.783v0.071c0,0.728-0.288,1.191-0.655,1.472l0.751,2.271h-1.04l-0.632-1.951h-0.184v1.951H60V823.386z
		 M61.023,826.153c0.424,0,0.736-0.248,0.736-0.904v-0.063c0-0.704-0.336-0.888-0.76-0.888h-0.024v1.855H61.023z M62.904,823.386
		h0.991l0.528,3.646l0.528-3.646h0.959l-1,5.612h-1.007L62.904,823.386z M66.224,823.386h0.975v5.597h-0.975V823.386z
		 M67.696,826.281v-0.192c0-1.967,0.728-2.742,1.639-2.742c0.272,0,0.432,0.032,0.64,0.128v1.007c-0.2-0.119-0.36-0.184-0.543-0.184
		c-0.432,0-0.744,0.384-0.744,1.783v0.208c0,1.479,0.312,1.783,0.76,1.783c0.152,0,0.344-0.057,0.543-0.176v0.959
		c-0.224,0.128-0.44,0.168-0.72,0.168C68.375,829.023,67.696,828.231,67.696,826.281z M70.48,823.386h2.143v0.928h-1.167v1.391
		h1.031v0.928h-1.031v1.423h1.191v0.928H70.48V823.386z M73,828.791v-1.015c0.344,0.199,0.616,0.312,0.879,0.312
		c0.28,0,0.52-0.136,0.52-0.479v-0.017c0-0.256-0.08-0.447-0.543-0.975c-0.664-0.752-0.936-1.112-0.936-1.791v-0.017
		c0-0.896,0.583-1.463,1.359-1.463c0.392,0,0.624,0.056,0.863,0.176v1.016c-0.304-0.176-0.487-0.256-0.744-0.256
		c-0.271,0-0.503,0.176-0.503,0.479v0.016c0,0.265,0.08,0.36,0.543,0.896c0.768,0.888,0.936,1.231,0.936,1.871v0.017
		c0,0.879-0.616,1.463-1.384,1.463C73.607,829.023,73.28,828.927,73,828.791z"/>
	<path class="st3" d="M14.485,916.625v-0.976h5.597v0.976H14.485z M14.485,915.056v-0.911l2.83-0.983h-2.83v-0.952h5.597v0.864
		l-2.966,1.031h2.966v0.951H14.485z M15.413,911.113v0.688h-0.927v-2.351h0.927v0.688h4.669v0.976H15.413z M14.485,909.041v-2.143
		h0.927v1.167h1.391v-1.031h0.928v1.031h1.423v-1.191h0.928v2.167H14.485z M14.485,906.4v-1.007c0-1,0.527-1.728,1.783-1.728h0.072
		c0.728,0,1.191,0.288,1.472,0.656l2.271-0.752v1.039l-1.951,0.632v0.185h1.951v0.975H14.485z M17.251,905.376
		c0-0.423-0.248-0.735-0.903-0.735h-0.064c-0.704,0-0.888,0.336-0.888,0.76v0.024h1.855V905.376z M14.485,903.216v-0.911l2.83-0.983
		h-2.83v-0.952h5.597v0.864l-2.966,1.031h2.966v0.951H14.485z M14.485,899.792v-2.143h0.927v1.167h1.391v-1.031h0.928v1.031h1.423
		v-1.191h0.928v2.167H14.485z M15.413,896.633v0.688h-0.927v-2.351h0.927v0.688h4.669v0.976H15.413z M17.379,893.384h-0.192
		c-1.967,0-2.742-0.728-2.742-1.639c0-0.271,0.032-0.432,0.128-0.64h1.007c-0.12,0.2-0.184,0.359-0.184,0.544
		c0,0.432,0.384,0.743,1.783,0.743h0.208c1.479,0,1.783-0.312,1.783-0.76c0-0.151-0.056-0.344-0.176-0.543h0.959
		c0.128,0.224,0.168,0.439,0.168,0.719C20.122,892.705,19.331,893.384,17.379,893.384z M14.469,889.817v-1.039l5.613-1.063v0.976
		l-1.111,0.184v0.888l1.111,0.176v0.943L14.469,889.817z M18.091,889.017l-1.847,0.296l1.847,0.305V889.017z M14.485,887.417v-2.039
		h0.927v1.063h1.407v-0.927h0.927v0.927h2.335v0.976H14.485z M13.19,883.578l0.4-0.808l0.615,0.792v0.703L13.19,883.578z
		 M14.485,884.937v-2.143h0.927v1.167h1.391v-1.031h0.928v1.031h1.423v-1.191h0.928v2.167H14.485z"/>
</g>
<g id="JEWEL_DECK_07_TOP">
	<path class="st4" d="M127.251,236.627c0,0-0.203-32.547-0.551-36.432c-0.127-1.437-0.229-16.152-1.449-28.511
		c0,0-5.198-50.919-9.576-66.758c-5.601-20.265-7.934-34.2-30.918-73.872c0,0-16.427-28.454-19.71-30.096
		c-0.293-0.243-0.596-0.391-0.904-0.459h-0.547c-0.31,0.068-0.612,0.216-0.904,0.459C59.409,2.6,42.993,31.054,42.993,31.054
		c-22.982,39.672-25.518,53.552-30.916,73.872c-4.583,17.254-9.576,66.758-9.576,66.758c-1.222,12.359-1.322,27.075-1.45,28.511
		C0.703,204.081,0.5,236.627,0.5,236.627s0.001,15.092,0.003,41.192c-0.002,0.296-0.003,0.469-0.003,0.469
		s0.051,804.927,0.229,825.142c5.162,14.605,37.443,17.768,53.778,18.426l20.562-0.082c16.803-0.82,46.977-4.266,51.953-18.344
		c0.178-20.215,0.229-825.142,0.229-825.142s-0.001-0.173-0.003-0.469C127.25,251.719,127.251,236.627,127.251,236.627z"/>
	<g id="gDeck07Locations">
		<rect id="_x30_7Aft" y="716.688" class="st5" width="127.751" height="405.668"/>
		<rect id="_x30_7Middle" y="405.364" class="st5" width="127.751" height="311.324"/>
		<rect id="_x30_7Forward" y="0.959" class="st5" width="127.751" height="404.405"/>
	</g>
</g>
</svg>
