<?xml version="1.0" encoding="utf-8"?>
<!-- Generator: Adobe Illustrator 23.0.2, SVG Export Plug-In . SVG Version: 6.00 Build 0)  -->
<svg version="1.1" id="ENCORE_DECK_19" xmlns="http://www.w3.org/2000/svg" xmlns:xlink="http://www.w3.org/1999/xlink" x="0px"
	 y="0px" width="150.151px" height="784.32px" viewBox="0 0 150.151 784.32" style="enable-background:new 0 0 150.151 784.32;"
	 xml:space="preserve">
<style type="text/css">
	.Drop_x0020_Shadow{fill:none;}
	.Round_x0020_Corners_x0020_2_x0020_pt{fill:#FFFFFF;stroke:#000000;stroke-miterlimit:10;}
	.Live_x0020_Reflect_x0020_X{fill:none;}
	.Bevel_x0020_Soft{fill:url(#SVGID_1_);}
	.Dusk{fill:#FFFFFF;}
	.Foliage_GS{fill:#FFDD00;}
	.Pompadour_GS{fill-rule:evenodd;clip-rule:evenodd;fill:#44ADE2;}
	.New_x0020_Cabins_x0020_2019{fill:#EFF2F5;stroke:#FFFFFF;stroke-width:0.5;stroke-miterlimit:10;}
	.New_x0020_Cabins_x0020_2{fill:#EFF2F5;stroke:#FFFFFF;stroke-width:0.5;stroke-miterlimit:10;}
	.st0{fill:#FFFFFF;}
	.st1{fill:none;stroke:#D5DCE0;stroke-width:0.5;}
	.st2{fill:#FFFFFF;stroke:#D5DCE0;stroke-width:0.5;}
	.st3{fill:none;}
	.st4{fill:#CCDDE2;}
	.st5{fill:#DFEDF1;stroke:#CEDFE5;stroke-width:0.5;}
	.st6{fill:#DFEDF1;}
	.st7{fill:#6E8496;}
	.st8{fill:none;stroke:#076FA0;stroke-miterlimit:10;}
</style>
<linearGradient id="SVGID_1_" gradientUnits="userSpaceOnUse" x1="-543.5662" y1="6.135" x2="-542.8591" y2="6.8421">
	<stop  offset="0" style="stop-color:#DEDFE3"/>
	<stop  offset="0.1738" style="stop-color:#D8D9DD"/>
	<stop  offset="0.352" style="stop-color:#C9CACD"/>
	<stop  offset="0.5323" style="stop-color:#B4B5B8"/>
	<stop  offset="0.7139" style="stop-color:#989A9C"/>
	<stop  offset="0.8949" style="stop-color:#797C7E"/>
	<stop  offset="1" style="stop-color:#656B6C"/>
</linearGradient>
<g id="ENCORE_DECK_19_BOTTOM">
	<path class="st0" d="M68.48,539.538h-5.478c-4.971,0-7.999,2.719-7.999,7.192v62.072c13.098,0,28.431,0,37.852,0V546.73
		c0-4.474-3.028-7.192-7.999-7.192h-5.478H68.48z"/>
	<path class="st0" d="M113.691,342.802v-73.208l13.692,0.166l0.07-90.873l6.014-6.452l0.008-10.216l-5.996-5.834l0.164-96.418
		l5.49-5.583V43.633l-5.465-5.669c0,0,0.021-16.959,0.021-17.679c0-5.778-1.6-8.619-8.924-11.721
		c-11.176-4.734-20.809-7.99-43.635-7.99h-0.336H74.51h-1.201h-0.285h-0.337c-22.825,0-32.458,3.256-43.635,7.99
		c-7.323,3.102-8.924,5.942-8.924,11.721c0,0.72,0.023,17.679,0.023,17.679l-5.466,5.669v10.751l5.49,5.583l0.165,134.165
		l-5.997,5.835l0.008,10.216l6.014,6.452l0.07,53.126l13.692-0.166v73.208H113.691z"/>
	<path class="st1" d="M20.128,19.468c0,0,1.806-1.667,4.639-3.167c7.575-4.011,22.667-7,27.5-7v7.667H73.6"/>
	<path class="st1" d="M127.434,19.468c0,0-1.823-1.667-4.682-3.167c-7.646-4.011-22.879-7-27.757-7v7.667H73.461"/>
	<polyline class="st1" points="105.267,84.302 105.267,110.385 127.184,110.385 	"/>
	<path class="st1" d="M94.868,84.468V30.464c0,0-7.274-4.663-21.041-4.663h-0.293c-13.767,0-21.041,4.663-21.041,4.663L52.6,84.461
		l-8.583,0.007v19.333h50.851v-8.676"/>
	<polyline class="st1" points="20.434,114.302 44.267,114.302 44.267,103.802 	"/>
	<polyline class="st1" points="94.85,95.126 69.434,95.126 69.434,84.51 	"/>
	<rect x="73.523" y="84.561" class="st1" width="0.751" height="10.436"/>
	<rect x="74.266" y="84.561" class="st1" width="0.751" height="10.436"/>
	<rect x="72.077" y="84.561" class="st1" width="0.751" height="10.436"/>
	<rect x="75.835" y="84.542" class="st1" width="0.751" height="10.436"/>
	<rect x="76.578" y="84.542" class="st1" width="0.751" height="10.436"/>
	<rect x="77.356" y="84.542" class="st1" width="0.751" height="10.436"/>
	<rect x="78.099" y="89.708" class="st1" width="0.751" height="5.27"/>
	<rect x="79.619" y="90.073" class="st1" width="0.751" height="4.905"/>
	<rect x="80.363" y="90.073" class="st1" width="0.751" height="4.905"/>
	<rect x="81.878" y="90.073" class="st1" width="0.751" height="4.905"/>
	<rect x="83.225" y="90.073" class="st1" width="0.751" height="4.905"/>
	<line class="st1" x1="78.159" y1="89.711" x2="80.163" y2="84.696"/>
	<path class="st1" d="M71.451,89.693c-0.109,0-0.196,0.081-0.196,0.181l0,0c0,0.1,0.087,0.181,0.196,0.181h10.07
		c0.108,0,0.196-0.081,0.196-0.181l0,0c0-0.1-0.087-0.181-0.196-0.181H71.451z"/>
	<path class="st1" d="M71.451,90.056h12.9c0.108,0,0.196-0.081,0.196-0.181l0,0c0-0.1-0.087-0.181-0.196-0.181h-12.9"/>
	<line class="st1" x1="78.85" y1="87.694" x2="78.85" y2="84.427"/>
	<line class="st1" x1="105.1" y1="84.385" x2="69.35" y2="84.385"/>
	<rect x="53.767" y="111.735" class="st1" width="41.208" height="56.067"/>
	<path class="st1" d="M86.059,209.987c-6.938,0-31.175,0-36.688,0c-8.625,0-8.312,8.836-8.312,8.836l53.625,0.062
		C94.684,218.885,95.309,209.987,86.059,209.987z"/>
	<polyline class="st1" points="46.606,302.557 40.637,302.557 40.684,336.802 106.434,336.802 106.434,269.635 94.684,269.635 
		94.684,218.885 41.059,218.76 40.684,268.635 40.684,298.177 51.267,298.177 51.267,302.552 45.475,302.552 	"/>
	<line class="st1" x1="113.691" y1="269.594" x2="106.434" y2="269.594"/>
	<line class="st1" x1="55.767" y1="175.052" x2="55.767" y2="185.635"/>
	<line class="st1" x1="60.163" y1="175.052" x2="60.163" y2="185.635"/>
	<line class="st1" x1="73.538" y1="175.052" x2="73.538" y2="185.635"/>
	<polyline class="st1" points="86.497,185.635 42.184,185.635 42.184,174.968 105.017,174.968 105.017,185.635 86.1,185.635 	"/>
	<polyline class="st1" points="86.463,189.357 86.463,174.988 95.788,174.988 95.788,189.357 	"/>
	<polyline class="st1" points="86.772,185.137 95.645,174.984 86.862,174.987 95.741,185.135 	"/>
	<line class="st1" x1="44.059" y1="175.01" x2="44.059" y2="113.968"/>
	<rect x="40.406" y="345.28" class="st2" width="66.667" height="3.167"/>
	<rect x="40.406" y="343.114" class="st2" width="66.667" height="2.186"/>
	<line class="st2" x1="48.573" y1="345.114" x2="48.573" y2="348.28"/>
	<line class="st2" x1="98.406" y1="345.114" x2="98.406" y2="348.28"/>
	<path class="st2" d="M113.934,304.635c4.5-5.5,14.25-6.5,21-1.75c-3.75-5.25-0.75-12.5,0-16.75c-6-4.75-7.551-16.375-7.551-16.375
		h-13.449V304.635z"/>
	<path class="st2" d="M33.934,286.385c0,0-16.5,0-22.5,0c4.75,3.25,3.25,15,0,17.75c5.75-3.75,15.25-6.5,21.25-1.25
		C29.184,297.635,31.434,287.635,33.934,286.385"/>
	<rect x="67.767" y="518.135" class="st1" width="14.833" height="21.333"/>
	<rect x="67.868" y="531.458" class="st1" width="6.154" height="0.97"/>
	<rect x="67.868" y="530.498" class="st1" width="6.154" height="0.971"/>
	<rect x="67.868" y="529.495" class="st1" width="6.154" height="0.97"/>
	<polygon class="st1" points="73.015,528.536 67.868,528.536 67.868,529.506 74.023,529.506 	"/>
	<polygon class="st1" points="71.992,527.533 67.868,527.533 67.868,528.503 73.005,528.503 	"/>
	<rect x="67.868" y="526.573" class="st1" width="2.935" height="0.97"/>
	<polyline class="st1" points="71.021,526.54 74.028,529.519 74.023,525.57 	"/>
	<path class="st1" d="M71.03,531.821c0,0.136-0.048,0.244-0.108,0.244l0,0c-0.06,0-0.109-0.108-0.109-0.244v-6.272
		c0-0.136,0.049-0.244,0.109-0.244l0,0c0.06,0,0.108,0.108,0.108,0.244V531.821z"/>
	<rect x="76.364" y="531.458" class="st1" width="6.154" height="0.97"/>
	<rect x="76.364" y="530.498" class="st1" width="6.154" height="0.971"/>
	<rect x="76.364" y="529.495" class="st1" width="6.154" height="0.97"/>
	<polygon class="st1" points="81.511,528.536 76.364,528.536 76.364,529.506 82.518,529.506 	"/>
	<polygon class="st1" points="80.488,527.533 76.364,527.533 76.364,528.503 81.5,528.503 	"/>
	<rect x="76.364" y="526.573" class="st1" width="2.935" height="0.97"/>
	<line class="st1" x1="79.516" y1="526.54" x2="82.523" y2="529.519"/>
	<path class="st1" d="M79.526,531.821c0,0.136-0.048,0.244-0.108,0.244l0,0c-0.06,0-0.109-0.108-0.109-0.244v-6.272
		c0-0.136,0.049-0.244,0.109-0.244l0,0c0.06,0,0.108,0.108,0.108,0.244V531.821z"/>
	<rect x="74.021" y="523.677" class="st1" width="2.276" height="8.375"/>
	<polygon class="st1" points="131.326,167.646 131.326,170.98 128.91,173.73 126.826,173.73 126.535,173.73 124.452,173.73 
		122.035,170.98 122.035,167.646 122.035,167.5 122.035,164.167 124.452,161.417 126.535,161.417 126.826,161.417 128.91,161.417 
		131.326,164.167 131.326,167.5 	"/>
	<path class="st3" d="M128.273,167.024c-0.47,0.196-0.957,0.399-1.918,0.399c-0.961,0-1.448-0.203-1.918-0.399
		c-0.435-0.181-0.846-0.352-1.687-0.352c-0.301,0-0.536,0.027-0.747,0.064v0.864v0.028c0.217-0.031,0.455-0.054,0.747-0.054
		c0.961,0,1.448,0.203,1.918,0.399c0.435,0.181,0.846,0.352,1.687,0.352c0.841,0,1.252-0.171,1.687-0.352
		c0.47-0.196,0.957-0.399,1.918-0.399c0.591,0,0.994,0.08,1.333,0.185v-0.013V167.6v-0.714c-0.333-0.12-0.717-0.213-1.333-0.213
		C129.119,166.672,128.708,166.843,128.273,167.024z"/>
	<path class="st3" d="M128.273,164.02c-0.47,0.196-0.957,0.399-1.918,0.399c-0.961,0-1.448-0.203-1.918-0.399
		c-0.435-0.181-0.846-0.352-1.687-0.352c-0.088,0-0.153,0.009-0.232,0.012l-0.515,0.586v0.357c0.217-0.031,0.455-0.054,0.747-0.054
		c0.961,0,1.448,0.203,1.918,0.399c0.435,0.181,0.846,0.352,1.687,0.352c0.841,0,1.252-0.171,1.687-0.352
		c0.47-0.196,0.957-0.399,1.918-0.399c0.591,0,0.994,0.08,1.333,0.185v-0.487l-0.449-0.51c-0.241-0.052-0.517-0.088-0.885-0.088
		C129.119,163.668,128.708,163.839,128.273,164.02z"/>
	<path class="st3" d="M126.355,162.916c-0.961,0-1.448-0.203-1.918-0.399c-0.216-0.09-0.426-0.177-0.685-0.242l-0.709,0.807
		c0.76,0.039,1.209,0.209,1.625,0.383c0.435,0.181,0.846,0.352,1.687,0.352c0.841,0,1.252-0.171,1.687-0.352
		c0.47-0.196,0.957-0.399,1.918-0.399c0.11,0,0.195,0.011,0.293,0.016l-0.783-0.891c-0.526,0.053-0.857,0.185-1.197,0.326
		C127.802,162.714,127.316,162.916,126.355,162.916z"/>
	<path class="st3" d="M128.273,165.522c-0.47,0.196-0.957,0.399-1.918,0.399c-0.961,0-1.448-0.203-1.918-0.399
		c-0.435-0.181-0.846-0.352-1.687-0.352c-0.301,0-0.536,0.027-0.747,0.064v0.892c0.217-0.032,0.455-0.054,0.747-0.054
		c0.961,0,1.448,0.203,1.918,0.399c0.435,0.181,0.846,0.352,1.687,0.352c0.841,0,1.252-0.171,1.687-0.352
		c0.47-0.196,0.957-0.399,1.918-0.399c0.591,0,0.994,0.08,1.333,0.185v-0.873c-0.333-0.12-0.717-0.213-1.333-0.213
		C129.119,165.17,128.708,165.341,128.273,165.522z"/>
	<path class="st3" d="M126.355,162.316c0.841,0,1.252-0.171,1.687-0.352c0.278-0.116,0.574-0.229,0.958-0.306l-0.124-0.141h-2.083
		h-0.291h-2.083l-0.233,0.265c0.17,0.057,0.33,0.119,0.482,0.182C125.103,162.144,125.513,162.316,126.355,162.316z"/>
	<path class="st3" d="M128.273,171.531c-0.47,0.196-0.957,0.399-1.918,0.399c-0.961,0-1.448-0.203-1.918-0.399
		c-0.435-0.181-0.846-0.352-1.687-0.352c-0.242,0-0.442,0.017-0.623,0.041l0.762,0.867c0.861,0.02,1.334,0.206,1.779,0.391
		c0.435,0.181,0.846,0.352,1.687,0.352c0.841,0,1.252-0.171,1.687-0.352c0.47-0.196,0.957-0.399,1.918-0.399
		c0.163,0,0.295,0.013,0.433,0.023l0.684-0.779c-0.288-0.085-0.626-0.146-1.117-0.146
		C129.119,171.179,128.708,171.35,128.273,171.531z"/>
	<path class="st3" d="M128.273,170.029c-0.47,0.196-0.957,0.399-1.918,0.399c-0.961,0-1.448-0.203-1.918-0.399
		c-0.435-0.181-0.846-0.352-1.687-0.352c-0.301,0-0.536,0.027-0.747,0.064v0.892c0.217-0.031,0.455-0.054,0.747-0.054
		c0.961,0,1.448,0.203,1.918,0.399c0.435,0.181,0.846,0.352,1.687,0.352c0.841,0,1.252-0.171,1.687-0.352
		c0.47-0.196,0.957-0.399,1.918-0.399c0.591,0,0.994,0.08,1.333,0.185v-0.873c-0.333-0.12-0.717-0.213-1.333-0.213
		C129.119,169.676,128.708,169.848,128.273,170.029z"/>
	<path class="st3" d="M128.273,168.527c-0.47,0.196-0.957,0.399-1.918,0.399c-0.961,0-1.448-0.203-1.918-0.399
		c-0.435-0.181-0.846-0.352-1.687-0.352c-0.301,0-0.536,0.027-0.747,0.064v0.892c0.217-0.032,0.455-0.054,0.747-0.054
		c0.961,0,1.448,0.203,1.918,0.399c0.435,0.181,0.846,0.352,1.687,0.352c0.841,0,1.252-0.171,1.687-0.352
		c0.47-0.196,0.957-0.399,1.918-0.399c0.591,0,0.994,0.08,1.333,0.185v-0.873c-0.333-0.12-0.717-0.213-1.333-0.213
		C129.119,168.174,128.708,168.345,128.273,168.527z"/>
	<path class="st3" d="M126.355,173.432c-0.961,0-1.448-0.203-1.918-0.399c-0.288-0.12-0.577-0.231-0.976-0.295l0.959,1.091h2.083
		h0.291h1.635c0.171-0.062,0.368-0.113,0.586-0.156l0.868-0.987c-0.783,0.011-1.189,0.173-1.609,0.348
		C127.802,173.229,127.316,173.432,126.355,173.432z"/>
	<path class="st4" d="M128.042,161.963c-0.435,0.181-0.846,0.352-1.687,0.352c-0.841,0-1.252-0.171-1.687-0.352
		c-0.151-0.063-0.312-0.124-0.482-0.182l-0.434,0.494c0.259,0.065,0.469,0.152,0.685,0.242c0.47,0.196,0.957,0.399,1.918,0.399
		c0.961,0,1.448-0.203,1.918-0.399c0.339-0.141,0.671-0.274,1.197-0.326l-0.47-0.534
		C128.616,161.734,128.32,161.847,128.042,161.963z"/>
	<path class="st4" d="M128.042,163.465c-0.435,0.181-0.846,0.352-1.687,0.352c-0.841,0-1.252-0.171-1.687-0.352
		c-0.416-0.174-0.865-0.344-1.625-0.383l-0.525,0.597c0.079-0.004,0.144-0.012,0.232-0.012c0.841,0,1.252,0.171,1.687,0.352
		c0.47,0.196,0.957,0.399,1.918,0.399c0.961,0,1.448-0.203,1.918-0.399c0.435-0.181,0.846-0.352,1.687-0.352
		c0.367,0,0.644,0.036,0.885,0.088l-0.592-0.673c-0.098-0.005-0.183-0.016-0.293-0.016
		C128.998,163.067,128.512,163.269,128.042,163.465z"/>
	<path class="st4" d="M128.042,164.968c-0.435,0.181-0.846,0.352-1.687,0.352c-0.841,0-1.252-0.171-1.687-0.352
		c-0.47-0.196-0.957-0.399-1.918-0.399c-0.292,0-0.53,0.023-0.747,0.054v0.61c0.212-0.037,0.446-0.064,0.747-0.064
		c0.841,0,1.252,0.171,1.687,0.352c0.47,0.196,0.957,0.399,1.918,0.399c0.961,0,1.448-0.203,1.918-0.399
		c0.435-0.181,0.846-0.352,1.687-0.352c0.616,0,1,0.093,1.333,0.213v-0.629c-0.339-0.105-0.742-0.185-1.333-0.185
		C128.998,164.569,128.512,164.772,128.042,164.968z"/>
	<path class="st4" d="M128.042,166.47c-0.435,0.181-0.846,0.352-1.687,0.352c-0.841,0-1.252-0.171-1.687-0.352
		c-0.47-0.196-0.957-0.399-1.918-0.399c-0.292,0-0.53,0.023-0.747,0.054v0.61c0.212-0.037,0.446-0.064,0.747-0.064
		c0.841,0,1.252,0.171,1.687,0.352c0.47,0.196,0.957,0.399,1.918,0.399c0.961,0,1.448-0.203,1.918-0.399
		c0.435-0.181,0.846-0.352,1.687-0.352c0.616,0,1,0.093,1.333,0.213v-0.629c-0.339-0.105-0.742-0.185-1.333-0.185
		C128.998,166.071,128.512,166.274,128.042,166.47z"/>
	<path class="st4" d="M128.042,167.972c-0.435,0.181-0.846,0.352-1.687,0.352c-0.841,0-1.252-0.171-1.687-0.352
		c-0.47-0.196-0.957-0.399-1.918-0.399c-0.292,0-0.53,0.023-0.747,0.054v0.118v0.493c0.212-0.037,0.446-0.064,0.747-0.064
		c0.841,0,1.252,0.171,1.687,0.352c0.47,0.196,0.957,0.399,1.918,0.399c0.961,0,1.448-0.203,1.918-0.399
		c0.435-0.181,0.846-0.352,1.687-0.352c0.616,0,1,0.093,1.333,0.213v-0.629c-0.339-0.105-0.742-0.185-1.333-0.185
		C128.998,167.573,128.512,167.776,128.042,167.972z"/>
	<path class="st4" d="M128.042,169.474c-0.435,0.181-0.846,0.352-1.687,0.352c-0.841,0-1.252-0.171-1.687-0.352
		c-0.47-0.196-0.957-0.399-1.918-0.399c-0.292,0-0.53,0.023-0.747,0.054v0.61c0.212-0.037,0.446-0.064,0.747-0.064
		c0.841,0,1.252,0.171,1.687,0.352c0.47,0.196,0.957,0.399,1.918,0.399c0.961,0,1.448-0.203,1.918-0.399
		c0.435-0.181,0.846-0.352,1.687-0.352c0.616,0,1,0.093,1.333,0.213v-0.629c-0.339-0.105-0.742-0.185-1.333-0.185
		C128.998,169.076,128.512,169.278,128.042,169.474z"/>
	<path class="st4" d="M128.042,170.976c-0.435,0.181-0.846,0.352-1.687,0.352c-0.841,0-1.252-0.171-1.687-0.352
		c-0.47-0.196-0.957-0.399-1.918-0.399c-0.292,0-0.53,0.023-0.747,0.054v0.447l0.124,0.141c0.182-0.024,0.381-0.041,0.623-0.041
		c0.841,0,1.252,0.171,1.687,0.352c0.47,0.196,0.957,0.399,1.918,0.399c0.961,0,1.448-0.203,1.918-0.399
		c0.435-0.181,0.846-0.352,1.687-0.352c0.491,0,0.829,0.061,1.117,0.146l0.216-0.246v-0.316c-0.339-0.105-0.742-0.185-1.333-0.185
		C128.998,170.578,128.512,170.78,128.042,170.976z"/>
	<path class="st4" d="M128.042,172.479c-0.435,0.181-0.846,0.352-1.687,0.352c-0.841,0-1.252-0.171-1.687-0.352
		c-0.445-0.185-0.918-0.371-1.779-0.391l0.572,0.65c0.399,0.064,0.688,0.175,0.976,0.295c0.47,0.196,0.957,0.399,1.918,0.399
		c0.961,0,1.448-0.203,1.918-0.399c0.42-0.175,0.826-0.337,1.609-0.348l0.511-0.582c-0.138-0.011-0.27-0.023-0.433-0.023
		C128.998,172.08,128.512,172.283,128.042,172.479z"/>
	<path class="st4" d="M128.876,173.829l0.137-0.156c-0.218,0.043-0.416,0.095-0.586,0.156H128.876z"/>
	<polygon class="st1" points="131.326,48.813 131.326,52.146 128.91,54.896 126.826,54.896 126.535,54.896 124.452,54.896 
		122.035,52.146 122.035,48.813 122.035,48.667 122.035,45.334 124.452,42.584 126.535,42.584 126.826,42.584 128.91,42.584 
		131.326,45.334 131.326,48.667 	"/>
	<path class="st3" d="M128.273,48.191c-0.47,0.196-0.957,0.399-1.918,0.399c-0.961,0-1.448-0.203-1.918-0.399
		c-0.435-0.181-0.846-0.352-1.687-0.352c-0.301,0-0.536,0.027-0.747,0.064v0.864v0.028c0.217-0.031,0.455-0.054,0.747-0.054
		c0.961,0,1.448,0.203,1.918,0.399c0.435,0.181,0.846,0.352,1.687,0.352c0.841,0,1.252-0.171,1.687-0.352
		c0.47-0.196,0.957-0.399,1.918-0.399c0.591,0,0.994,0.08,1.333,0.185v-0.013v-0.146v-0.714c-0.333-0.12-0.717-0.213-1.333-0.213
		C129.119,47.839,128.708,48.01,128.273,48.191z"/>
	<path class="st3" d="M128.273,45.187c-0.47,0.196-0.957,0.399-1.918,0.399c-0.961,0-1.448-0.203-1.918-0.399
		c-0.435-0.181-0.846-0.352-1.687-0.352c-0.088,0-0.153,0.009-0.232,0.012l-0.515,0.586v0.357c0.217-0.031,0.455-0.054,0.747-0.054
		c0.961,0,1.448,0.203,1.918,0.399c0.435,0.181,0.846,0.352,1.687,0.352c0.841,0,1.252-0.171,1.687-0.352
		c0.47-0.196,0.957-0.399,1.918-0.399c0.591,0,0.994,0.08,1.333,0.185v-0.487l-0.449-0.51c-0.241-0.052-0.517-0.088-0.885-0.088
		C129.119,44.834,128.708,45.005,128.273,45.187z"/>
	<path class="st3" d="M126.355,44.083c-0.961,0-1.448-0.203-1.918-0.399c-0.216-0.09-0.426-0.177-0.685-0.242l-0.709,0.807
		c0.76,0.039,1.209,0.209,1.625,0.383c0.435,0.181,0.846,0.352,1.687,0.352c0.841,0,1.252-0.171,1.687-0.352
		c0.47-0.196,0.957-0.399,1.918-0.399c0.11,0,0.195,0.011,0.293,0.016l-0.783-0.891c-0.526,0.053-0.857,0.185-1.197,0.326
		C127.802,43.88,127.316,44.083,126.355,44.083z"/>
	<path class="st3" d="M128.273,46.689c-0.47,0.196-0.957,0.399-1.918,0.399c-0.961,0-1.448-0.203-1.918-0.399
		c-0.435-0.181-0.846-0.352-1.687-0.352c-0.301,0-0.536,0.027-0.747,0.064v0.892c0.217-0.032,0.455-0.054,0.747-0.054
		c0.961,0,1.448,0.203,1.918,0.399c0.435,0.181,0.846,0.352,1.687,0.352c0.841,0,1.252-0.171,1.687-0.352
		c0.47-0.196,0.957-0.399,1.918-0.399c0.591,0,0.994,0.08,1.333,0.185V46.55c-0.333-0.12-0.717-0.213-1.333-0.213
		C129.119,46.336,128.708,46.508,128.273,46.689z"/>
	<path class="st3" d="M126.355,43.482c0.841,0,1.252-0.171,1.687-0.352c0.278-0.116,0.574-0.229,0.958-0.306l-0.124-0.141h-2.083
		h-0.291h-2.083l-0.233,0.265c0.17,0.057,0.33,0.119,0.482,0.182C125.103,43.311,125.513,43.482,126.355,43.482z"/>
	<path class="st3" d="M128.273,52.698c-0.47,0.196-0.957,0.399-1.918,0.399c-0.961,0-1.448-0.203-1.918-0.399
		c-0.435-0.181-0.846-0.352-1.687-0.352c-0.242,0-0.442,0.017-0.623,0.041l0.762,0.867c0.861,0.02,1.334,0.206,1.779,0.391
		c0.435,0.181,0.846,0.352,1.687,0.352c0.841,0,1.252-0.171,1.687-0.352c0.47-0.196,0.957-0.399,1.918-0.399
		c0.163,0,0.295,0.013,0.433,0.023l0.684-0.779c-0.288-0.085-0.626-0.146-1.117-0.146C129.119,52.345,128.708,52.517,128.273,52.698
		z"/>
	<path class="st3" d="M128.273,51.196c-0.47,0.196-0.957,0.399-1.918,0.399c-0.961,0-1.448-0.203-1.918-0.399
		c-0.435-0.181-0.846-0.352-1.687-0.352c-0.301,0-0.536,0.027-0.747,0.064v0.892c0.217-0.031,0.455-0.054,0.747-0.054
		c0.961,0,1.448,0.203,1.918,0.399c0.435,0.181,0.846,0.352,1.687,0.352c0.841,0,1.252-0.171,1.687-0.352
		c0.47-0.196,0.957-0.399,1.918-0.399c0.591,0,0.994,0.08,1.333,0.185v-0.873c-0.333-0.12-0.717-0.213-1.333-0.213
		C129.119,50.843,128.708,51.014,128.273,51.196z"/>
	<path class="st3" d="M128.273,49.693c-0.47,0.196-0.957,0.399-1.918,0.399c-0.961,0-1.448-0.203-1.918-0.399
		c-0.435-0.181-0.846-0.352-1.687-0.352c-0.301,0-0.536,0.027-0.747,0.064v0.892c0.217-0.032,0.455-0.054,0.747-0.054
		c0.961,0,1.448,0.203,1.918,0.399c0.435,0.181,0.846,0.352,1.687,0.352c0.841,0,1.252-0.171,1.687-0.352
		c0.47-0.196,0.957-0.399,1.918-0.399c0.591,0,0.994,0.08,1.333,0.185v-0.873c-0.333-0.12-0.717-0.213-1.333-0.213
		C129.119,49.341,128.708,49.512,128.273,49.693z"/>
	<path class="st3" d="M126.355,54.599c-0.961,0-1.448-0.203-1.918-0.399c-0.288-0.12-0.577-0.231-0.976-0.295l0.959,1.091h2.083
		h0.291h1.635c0.171-0.062,0.368-0.113,0.586-0.156l0.868-0.987c-0.783,0.011-1.189,0.173-1.609,0.348
		C127.802,54.396,127.316,54.599,126.355,54.599z"/>
	<path class="st4" d="M128.042,43.13c-0.435,0.181-0.846,0.352-1.687,0.352c-0.841,0-1.252-0.171-1.687-0.352
		c-0.151-0.063-0.312-0.124-0.482-0.182l-0.434,0.494c0.259,0.065,0.469,0.152,0.685,0.242c0.47,0.196,0.957,0.399,1.918,0.399
		c0.961,0,1.448-0.203,1.918-0.399c0.339-0.141,0.671-0.274,1.197-0.326L129,42.824C128.616,42.901,128.32,43.014,128.042,43.13z"/>
	<path class="st4" d="M128.042,44.632c-0.435,0.181-0.846,0.352-1.687,0.352c-0.841,0-1.252-0.171-1.687-0.352
		c-0.416-0.174-0.865-0.344-1.625-0.383l-0.525,0.597c0.079-0.004,0.144-0.012,0.232-0.012c0.841,0,1.252,0.171,1.687,0.352
		c0.47,0.196,0.957,0.399,1.918,0.399c0.961,0,1.448-0.203,1.918-0.399c0.435-0.181,0.846-0.352,1.687-0.352
		c0.367,0,0.644,0.036,0.885,0.088l-0.592-0.673c-0.098-0.005-0.183-0.016-0.293-0.016
		C128.998,44.233,128.512,44.436,128.042,44.632z"/>
	<path class="st4" d="M128.042,46.134c-0.435,0.181-0.846,0.352-1.687,0.352c-0.841,0-1.252-0.171-1.687-0.352
		c-0.47-0.196-0.957-0.399-1.918-0.399c-0.292,0-0.53,0.023-0.747,0.054v0.61c0.212-0.037,0.446-0.064,0.747-0.064
		c0.841,0,1.252,0.171,1.687,0.352c0.47,0.196,0.957,0.399,1.918,0.399c0.961,0,1.448-0.203,1.918-0.399
		c0.435-0.181,0.846-0.352,1.687-0.352c0.616,0,1,0.093,1.333,0.213V45.92c-0.339-0.105-0.742-0.185-1.333-0.185
		C128.998,45.736,128.512,45.938,128.042,46.134z"/>
	<path class="st4" d="M128.042,47.636c-0.435,0.181-0.846,0.352-1.687,0.352c-0.841,0-1.252-0.171-1.687-0.352
		c-0.47-0.196-0.957-0.399-1.918-0.399c-0.292,0-0.53,0.023-0.747,0.054v0.61c0.212-0.037,0.446-0.064,0.747-0.064
		c0.841,0,1.252,0.171,1.687,0.352c0.47,0.196,0.957,0.399,1.918,0.399c0.961,0,1.448-0.203,1.918-0.399
		c0.435-0.181,0.846-0.352,1.687-0.352c0.616,0,1,0.093,1.333,0.213v-0.629c-0.339-0.105-0.742-0.185-1.333-0.185
		C128.998,47.238,128.512,47.44,128.042,47.636z"/>
	<path class="st4" d="M128.042,49.139c-0.435,0.181-0.846,0.352-1.687,0.352c-0.841,0-1.252-0.171-1.687-0.352
		c-0.47-0.196-0.957-0.399-1.918-0.399c-0.292,0-0.53,0.023-0.747,0.054v0.118v0.493c0.212-0.037,0.446-0.064,0.747-0.064
		c0.841,0,1.252,0.171,1.687,0.352c0.47,0.196,0.957,0.399,1.918,0.399c0.961,0,1.448-0.203,1.918-0.399
		c0.435-0.181,0.846-0.352,1.687-0.352c0.616,0,1,0.093,1.333,0.213v-0.629c-0.339-0.105-0.742-0.185-1.333-0.185
		C128.998,48.74,128.512,48.943,128.042,49.139z"/>
	<path class="st4" d="M128.042,50.641c-0.435,0.181-0.846,0.352-1.687,0.352c-0.841,0-1.252-0.171-1.687-0.352
		c-0.47-0.196-0.957-0.399-1.918-0.399c-0.292,0-0.53,0.023-0.747,0.054v0.61c0.212-0.037,0.446-0.064,0.747-0.064
		c0.841,0,1.252,0.171,1.687,0.352c0.47,0.196,0.957,0.399,1.918,0.399c0.961,0,1.448-0.203,1.918-0.399
		c0.435-0.181,0.846-0.352,1.687-0.352c0.616,0,1,0.093,1.333,0.213v-0.629c-0.339-0.105-0.742-0.185-1.333-0.185
		C128.998,50.242,128.512,50.445,128.042,50.641z"/>
	<path class="st4" d="M128.042,52.143c-0.435,0.181-0.846,0.352-1.687,0.352c-0.841,0-1.252-0.171-1.687-0.352
		c-0.47-0.196-0.957-0.399-1.918-0.399c-0.292,0-0.53,0.023-0.747,0.054v0.447l0.124,0.141c0.182-0.024,0.381-0.041,0.623-0.041
		c0.841,0,1.252,0.171,1.687,0.352c0.47,0.196,0.957,0.399,1.918,0.399c0.961,0,1.448-0.203,1.918-0.399
		c0.435-0.181,0.846-0.352,1.687-0.352c0.491,0,0.829,0.061,1.117,0.146l0.216-0.246v-0.316c-0.339-0.105-0.742-0.185-1.333-0.185
		C128.998,51.744,128.512,51.947,128.042,52.143z"/>
	<path class="st4" d="M128.042,53.645c-0.435,0.181-0.846,0.352-1.687,0.352c-0.841,0-1.252-0.171-1.687-0.352
		c-0.445-0.185-0.918-0.371-1.779-0.391l0.572,0.65c0.399,0.064,0.688,0.175,0.976,0.295c0.47,0.196,0.957,0.399,1.918,0.399
		c0.961,0,1.448-0.203,1.918-0.399c0.42-0.175,0.826-0.337,1.609-0.348l0.511-0.582c-0.138-0.011-0.27-0.023-0.433-0.023
		C128.998,53.247,128.512,53.449,128.042,53.645z"/>
	<path class="st4" d="M128.876,54.995l0.137-0.156c-0.218,0.043-0.416,0.095-0.586,0.156H128.876z"/>
	<polygon class="st1" points="25.676,48.813 25.676,52.146 23.259,54.896 21.176,54.896 20.885,54.896 18.801,54.896 16.385,52.146 
		16.385,48.813 16.385,48.667 16.385,45.334 18.801,42.584 20.885,42.584 21.176,42.584 23.259,42.584 25.676,45.334 25.676,48.667 
			"/>
	<path class="st3" d="M22.622,48.191c-0.47,0.196-0.957,0.399-1.918,0.399c-0.961,0-1.448-0.203-1.918-0.399
		c-0.435-0.181-0.846-0.352-1.687-0.352c-0.301,0-0.536,0.027-0.747,0.064v0.864v0.028c0.217-0.031,0.455-0.054,0.747-0.054
		c0.961,0,1.448,0.203,1.918,0.399c0.435,0.181,0.846,0.352,1.687,0.352c0.841,0,1.252-0.171,1.687-0.352
		c0.47-0.196,0.957-0.399,1.918-0.399c0.591,0,0.994,0.08,1.333,0.185v-0.013v-0.146v-0.714c-0.333-0.12-0.717-0.213-1.333-0.213
		C23.468,47.839,23.057,48.01,22.622,48.191z"/>
	<path class="st3" d="M22.622,45.187c-0.47,0.196-0.957,0.399-1.918,0.399c-0.961,0-1.448-0.203-1.918-0.399
		c-0.435-0.181-0.846-0.352-1.687-0.352c-0.088,0-0.153,0.009-0.232,0.012l-0.515,0.586v0.357c0.217-0.031,0.455-0.054,0.747-0.054
		c0.961,0,1.448,0.203,1.918,0.399c0.435,0.181,0.846,0.352,1.687,0.352c0.841,0,1.252-0.171,1.687-0.352
		c0.47-0.196,0.957-0.399,1.918-0.399c0.591,0,0.994,0.08,1.333,0.185v-0.487l-0.449-0.51c-0.241-0.052-0.517-0.088-0.885-0.088
		C23.468,44.834,23.057,45.005,22.622,45.187z"/>
	<path class="st3" d="M20.704,44.083c-0.961,0-1.448-0.203-1.918-0.399c-0.216-0.09-0.426-0.177-0.685-0.242l-0.709,0.807
		c0.76,0.039,1.209,0.209,1.625,0.383c0.435,0.181,0.846,0.352,1.687,0.352c0.841,0,1.252-0.171,1.687-0.352
		c0.47-0.196,0.957-0.399,1.918-0.399c0.11,0,0.195,0.011,0.293,0.016l-0.783-0.891c-0.526,0.053-0.857,0.185-1.197,0.326
		C22.152,43.88,21.665,44.083,20.704,44.083z"/>
	<path class="st3" d="M22.622,46.689c-0.47,0.196-0.957,0.399-1.918,0.399c-0.961,0-1.448-0.203-1.918-0.399
		c-0.435-0.181-0.846-0.352-1.687-0.352c-0.301,0-0.536,0.027-0.747,0.064v0.892c0.217-0.032,0.455-0.054,0.747-0.054
		c0.961,0,1.448,0.203,1.918,0.399c0.435,0.181,0.846,0.352,1.687,0.352c0.841,0,1.252-0.171,1.687-0.352
		c0.47-0.196,0.957-0.399,1.918-0.399c0.591,0,0.994,0.08,1.333,0.185V46.55c-0.333-0.12-0.717-0.213-1.333-0.213
		C23.468,46.336,23.057,46.508,22.622,46.689z"/>
	<path class="st3" d="M20.704,43.482c0.841,0,1.252-0.171,1.687-0.352c0.278-0.116,0.574-0.229,0.958-0.306l-0.124-0.141h-2.083
		h-0.291h-2.083l-0.233,0.265c0.17,0.057,0.33,0.119,0.482,0.182C19.452,43.311,19.863,43.482,20.704,43.482z"/>
	<path class="st3" d="M22.622,52.698c-0.47,0.196-0.957,0.399-1.918,0.399c-0.961,0-1.448-0.203-1.918-0.399
		c-0.435-0.181-0.846-0.352-1.687-0.352c-0.242,0-0.442,0.017-0.623,0.041l0.762,0.867c0.861,0.02,1.334,0.206,1.779,0.391
		c0.435,0.181,0.846,0.352,1.687,0.352c0.841,0,1.252-0.171,1.687-0.352c0.47-0.196,0.957-0.399,1.918-0.399
		c0.163,0,0.295,0.013,0.433,0.023l0.684-0.779c-0.288-0.085-0.626-0.146-1.117-0.146C23.468,52.345,23.057,52.517,22.622,52.698z"
		/>
	<path class="st3" d="M22.622,51.196c-0.47,0.196-0.957,0.399-1.918,0.399c-0.961,0-1.448-0.203-1.918-0.399
		c-0.435-0.181-0.846-0.352-1.687-0.352c-0.301,0-0.536,0.027-0.747,0.064v0.892c0.217-0.031,0.455-0.054,0.747-0.054
		c0.961,0,1.448,0.203,1.918,0.399c0.435,0.181,0.846,0.352,1.687,0.352c0.841,0,1.252-0.171,1.687-0.352
		c0.47-0.196,0.957-0.399,1.918-0.399c0.591,0,0.994,0.08,1.333,0.185v-0.873c-0.333-0.12-0.717-0.213-1.333-0.213
		C23.468,50.843,23.057,51.014,22.622,51.196z"/>
	<path class="st3" d="M22.622,49.693c-0.47,0.196-0.957,0.399-1.918,0.399c-0.961,0-1.448-0.203-1.918-0.399
		c-0.435-0.181-0.846-0.352-1.687-0.352c-0.301,0-0.536,0.027-0.747,0.064v0.892c0.217-0.032,0.455-0.054,0.747-0.054
		c0.961,0,1.448,0.203,1.918,0.399c0.435,0.181,0.846,0.352,1.687,0.352c0.841,0,1.252-0.171,1.687-0.352
		c0.47-0.196,0.957-0.399,1.918-0.399c0.591,0,0.994,0.08,1.333,0.185v-0.873c-0.333-0.12-0.717-0.213-1.333-0.213
		C23.468,49.341,23.057,49.512,22.622,49.693z"/>
	<path class="st3" d="M20.704,54.599c-0.961,0-1.448-0.203-1.918-0.399c-0.288-0.12-0.577-0.231-0.976-0.295l0.959,1.091h2.083
		h0.291h1.635c0.171-0.062,0.368-0.113,0.586-0.156l0.868-0.987c-0.783,0.011-1.189,0.173-1.609,0.348
		C22.152,54.396,21.665,54.599,20.704,54.599z"/>
	<path class="st4" d="M22.391,43.13c-0.435,0.181-0.846,0.352-1.687,0.352c-0.841,0-1.252-0.171-1.687-0.352
		c-0.151-0.063-0.312-0.124-0.482-0.182l-0.434,0.494c0.259,0.065,0.469,0.152,0.685,0.242c0.47,0.196,0.957,0.399,1.918,0.399
		c0.961,0,1.448-0.203,1.918-0.399c0.339-0.141,0.671-0.274,1.197-0.326l-0.47-0.534C22.965,42.901,22.669,43.014,22.391,43.13z"/>
	<path class="st4" d="M22.391,44.632c-0.435,0.181-0.846,0.352-1.687,0.352c-0.841,0-1.252-0.171-1.687-0.352
		c-0.416-0.174-0.865-0.344-1.625-0.383l-0.525,0.597c0.079-0.004,0.144-0.012,0.232-0.012c0.841,0,1.252,0.171,1.687,0.352
		c0.47,0.196,0.957,0.399,1.918,0.399c0.961,0,1.448-0.203,1.918-0.399c0.435-0.181,0.846-0.352,1.687-0.352
		c0.367,0,0.644,0.036,0.885,0.088l-0.592-0.673c-0.098-0.005-0.183-0.016-0.293-0.016C23.348,44.233,22.861,44.436,22.391,44.632z"
		/>
	<path class="st4" d="M22.391,46.134c-0.435,0.181-0.846,0.352-1.687,0.352c-0.841,0-1.252-0.171-1.687-0.352
		c-0.47-0.196-0.957-0.399-1.918-0.399c-0.292,0-0.53,0.023-0.747,0.054v0.61c0.212-0.037,0.446-0.064,0.747-0.064
		c0.841,0,1.252,0.171,1.687,0.352c0.47,0.196,0.957,0.399,1.918,0.399c0.961,0,1.448-0.203,1.918-0.399
		c0.435-0.181,0.846-0.352,1.687-0.352c0.616,0,1,0.093,1.333,0.213V45.92c-0.339-0.105-0.742-0.185-1.333-0.185
		C23.348,45.736,22.861,45.938,22.391,46.134z"/>
	<path class="st4" d="M22.391,47.636c-0.435,0.181-0.846,0.352-1.687,0.352c-0.841,0-1.252-0.171-1.687-0.352
		c-0.47-0.196-0.957-0.399-1.918-0.399c-0.292,0-0.53,0.023-0.747,0.054v0.61c0.212-0.037,0.446-0.064,0.747-0.064
		c0.841,0,1.252,0.171,1.687,0.352c0.47,0.196,0.957,0.399,1.918,0.399c0.961,0,1.448-0.203,1.918-0.399
		c0.435-0.181,0.846-0.352,1.687-0.352c0.616,0,1,0.093,1.333,0.213v-0.629c-0.339-0.105-0.742-0.185-1.333-0.185
		C23.348,47.238,22.861,47.44,22.391,47.636z"/>
	<path class="st4" d="M22.391,49.139c-0.435,0.181-0.846,0.352-1.687,0.352c-0.841,0-1.252-0.171-1.687-0.352
		c-0.47-0.196-0.957-0.399-1.918-0.399c-0.292,0-0.53,0.023-0.747,0.054v0.118v0.493c0.212-0.037,0.446-0.064,0.747-0.064
		c0.841,0,1.252,0.171,1.687,0.352c0.47,0.196,0.957,0.399,1.918,0.399c0.961,0,1.448-0.203,1.918-0.399
		c0.435-0.181,0.846-0.352,1.687-0.352c0.616,0,1,0.093,1.333,0.213v-0.629c-0.339-0.105-0.742-0.185-1.333-0.185
		C23.348,48.74,22.861,48.943,22.391,49.139z"/>
	<path class="st4" d="M22.391,50.641c-0.435,0.181-0.846,0.352-1.687,0.352c-0.841,0-1.252-0.171-1.687-0.352
		c-0.47-0.196-0.957-0.399-1.918-0.399c-0.292,0-0.53,0.023-0.747,0.054v0.61c0.212-0.037,0.446-0.064,0.747-0.064
		c0.841,0,1.252,0.171,1.687,0.352c0.47,0.196,0.957,0.399,1.918,0.399c0.961,0,1.448-0.203,1.918-0.399
		c0.435-0.181,0.846-0.352,1.687-0.352c0.616,0,1,0.093,1.333,0.213v-0.629c-0.339-0.105-0.742-0.185-1.333-0.185
		C23.348,50.242,22.861,50.445,22.391,50.641z"/>
	<path class="st4" d="M22.391,52.143c-0.435,0.181-0.846,0.352-1.687,0.352c-0.841,0-1.252-0.171-1.687-0.352
		c-0.47-0.196-0.957-0.399-1.918-0.399c-0.292,0-0.53,0.023-0.747,0.054v0.447l0.124,0.141c0.182-0.024,0.381-0.041,0.623-0.041
		c0.841,0,1.252,0.171,1.687,0.352c0.47,0.196,0.957,0.399,1.918,0.399c0.961,0,1.448-0.203,1.918-0.399
		c0.435-0.181,0.846-0.352,1.687-0.352c0.491,0,0.829,0.061,1.117,0.146l0.216-0.246v-0.316c-0.339-0.105-0.742-0.185-1.333-0.185
		C23.348,51.744,22.861,51.947,22.391,52.143z"/>
	<path class="st4" d="M22.391,53.645c-0.435,0.181-0.846,0.352-1.687,0.352c-0.841,0-1.252-0.171-1.687-0.352
		c-0.445-0.185-0.918-0.371-1.779-0.391l0.572,0.65c0.399,0.064,0.688,0.175,0.976,0.295c0.47,0.196,0.957,0.399,1.918,0.399
		c0.961,0,1.448-0.203,1.918-0.399c0.42-0.175,0.826-0.337,1.609-0.348l0.511-0.582c-0.138-0.011-0.27-0.023-0.433-0.023
		C23.348,53.247,22.861,53.449,22.391,53.645z"/>
	<path class="st4" d="M23.225,54.995l0.137-0.156c-0.218,0.043-0.416,0.095-0.586,0.156H23.225z"/>
	<polygon class="st1" points="25.659,205.065 25.659,208.398 23.242,211.148 21.159,211.148 20.868,211.148 18.785,211.148 
		16.368,208.398 16.368,205.065 16.368,204.919 16.368,201.585 18.785,198.835 20.868,198.835 21.159,198.835 23.242,198.835 
		25.659,201.585 25.659,204.919 	"/>
	<path class="st3" d="M22.605,204.443c-0.47,0.196-0.957,0.399-1.918,0.399c-0.961,0-1.448-0.203-1.918-0.399
		c-0.435-0.181-0.846-0.352-1.687-0.352c-0.301,0-0.536,0.027-0.747,0.064v0.864v0.028c0.217-0.031,0.455-0.054,0.747-0.054
		c0.961,0,1.448,0.203,1.918,0.399c0.435,0.181,0.846,0.352,1.687,0.352c0.841,0,1.252-0.171,1.687-0.352
		c0.47-0.196,0.957-0.399,1.918-0.399c0.591,0,0.994,0.08,1.333,0.185v-0.013v-0.146v-0.714c-0.333-0.12-0.717-0.213-1.333-0.213
		C23.451,204.09,23.04,204.261,22.605,204.443z"/>
	<path class="st3" d="M22.605,201.438c-0.47,0.196-0.957,0.399-1.918,0.399c-0.961,0-1.448-0.203-1.918-0.399
		c-0.435-0.181-0.846-0.352-1.687-0.352c-0.088,0-0.153,0.009-0.232,0.012l-0.515,0.586v0.357c0.217-0.031,0.455-0.054,0.747-0.054
		c0.961,0,1.448,0.203,1.918,0.399c0.435,0.181,0.846,0.352,1.687,0.352c0.841,0,1.252-0.171,1.687-0.352
		c0.47-0.196,0.957-0.399,1.918-0.399c0.591,0,0.994,0.08,1.333,0.185v-0.487l-0.449-0.51c-0.241-0.052-0.517-0.088-0.885-0.088
		C23.451,201.086,23.04,201.257,22.605,201.438z"/>
	<path class="st3" d="M20.687,200.335c-0.961,0-1.448-0.203-1.918-0.399c-0.216-0.09-0.426-0.177-0.685-0.242l-0.709,0.807
		c0.76,0.039,1.209,0.209,1.625,0.383c0.435,0.181,0.846,0.352,1.687,0.352c0.841,0,1.252-0.171,1.687-0.352
		c0.47-0.196,0.957-0.399,1.918-0.399c0.11,0,0.195,0.011,0.293,0.016l-0.783-0.891c-0.526,0.053-0.857,0.185-1.197,0.326
		C22.135,200.132,21.649,200.335,20.687,200.335z"/>
	<path class="st3" d="M22.605,202.94c-0.47,0.196-0.957,0.399-1.918,0.399c-0.961,0-1.448-0.203-1.918-0.399
		c-0.435-0.181-0.846-0.352-1.687-0.352c-0.301,0-0.536,0.027-0.747,0.064v0.892c0.217-0.032,0.455-0.054,0.747-0.054
		c0.961,0,1.448,0.203,1.918,0.399c0.435,0.181,0.846,0.352,1.687,0.352c0.841,0,1.252-0.171,1.687-0.352
		c0.47-0.196,0.957-0.399,1.918-0.399c0.591,0,0.994,0.08,1.333,0.185v-0.873c-0.333-0.12-0.717-0.213-1.333-0.213
		C23.451,202.588,23.04,202.759,22.605,202.94z"/>
	<path class="st3" d="M20.687,199.734c0.841,0,1.252-0.171,1.687-0.352c0.278-0.116,0.574-0.229,0.958-0.306l-0.124-0.141h-2.083
		h-0.291h-2.083l-0.233,0.265c0.17,0.057,0.33,0.119,0.482,0.182C19.435,199.563,19.846,199.734,20.687,199.734z"/>
	<path class="st3" d="M22.605,208.949c-0.47,0.196-0.957,0.399-1.918,0.399c-0.961,0-1.448-0.203-1.918-0.399
		c-0.435-0.181-0.846-0.352-1.687-0.352c-0.242,0-0.442,0.017-0.623,0.041l0.762,0.867c0.861,0.02,1.334,0.206,1.779,0.391
		c0.435,0.181,0.846,0.352,1.687,0.352c0.841,0,1.252-0.171,1.687-0.352c0.47-0.196,0.957-0.399,1.918-0.399
		c0.163,0,0.295,0.013,0.433,0.023l0.684-0.779c-0.288-0.085-0.626-0.146-1.117-0.146C23.451,208.597,23.04,208.768,22.605,208.949z
		"/>
	<path class="st3" d="M22.605,207.447c-0.47,0.196-0.957,0.399-1.918,0.399c-0.961,0-1.448-0.203-1.918-0.399
		c-0.435-0.181-0.846-0.352-1.687-0.352c-0.301,0-0.536,0.027-0.747,0.064v0.892c0.217-0.031,0.455-0.054,0.747-0.054
		c0.961,0,1.448,0.203,1.918,0.399c0.435,0.181,0.846,0.352,1.687,0.352c0.841,0,1.252-0.171,1.687-0.352
		c0.47-0.196,0.957-0.399,1.918-0.399c0.591,0,0.994,0.08,1.333,0.185v-0.873c-0.333-0.12-0.717-0.213-1.333-0.213
		C23.451,207.095,23.04,207.266,22.605,207.447z"/>
	<path class="st3" d="M22.605,205.945c-0.47,0.196-0.957,0.399-1.918,0.399c-0.961,0-1.448-0.203-1.918-0.399
		c-0.435-0.181-0.846-0.352-1.687-0.352c-0.301,0-0.536,0.027-0.747,0.064v0.892c0.217-0.032,0.455-0.054,0.747-0.054
		c0.961,0,1.448,0.203,1.918,0.399c0.435,0.181,0.846,0.352,1.687,0.352c0.841,0,1.252-0.171,1.687-0.352
		c0.47-0.196,0.957-0.399,1.918-0.399c0.591,0,0.994,0.08,1.333,0.185v-0.873c-0.333-0.12-0.717-0.213-1.333-0.213
		C23.451,205.593,23.04,205.764,22.605,205.945z"/>
	<path class="st3" d="M20.687,210.85c-0.961,0-1.448-0.203-1.918-0.399c-0.288-0.12-0.577-0.231-0.976-0.295l0.959,1.091h2.083
		h0.291h1.635c0.171-0.062,0.368-0.113,0.586-0.156l0.868-0.987c-0.783,0.011-1.189,0.173-1.609,0.348
		C22.135,210.648,21.649,210.85,20.687,210.85z"/>
	<path class="st4" d="M22.374,199.381c-0.435,0.181-0.846,0.352-1.687,0.352c-0.841,0-1.252-0.171-1.687-0.352
		c-0.151-0.063-0.312-0.124-0.482-0.182l-0.434,0.494c0.259,0.065,0.469,0.152,0.685,0.242c0.47,0.196,0.957,0.399,1.918,0.399
		c0.961,0,1.448-0.203,1.918-0.399c0.339-0.141,0.671-0.274,1.197-0.326l-0.47-0.534C22.949,199.153,22.652,199.265,22.374,199.381z
		"/>
	<path class="st4" d="M22.374,200.884c-0.435,0.181-0.846,0.352-1.687,0.352c-0.841,0-1.252-0.171-1.687-0.352
		c-0.416-0.174-0.865-0.344-1.625-0.383l-0.525,0.597c0.079-0.004,0.144-0.012,0.232-0.012c0.841,0,1.252,0.171,1.687,0.352
		c0.47,0.196,0.957,0.399,1.918,0.399c0.961,0,1.448-0.203,1.918-0.399c0.435-0.181,0.846-0.352,1.687-0.352
		c0.367,0,0.644,0.036,0.885,0.088l-0.592-0.673c-0.098-0.005-0.183-0.016-0.293-0.016
		C23.331,200.485,22.844,200.688,22.374,200.884z"/>
	<path class="st4" d="M22.374,202.386c-0.435,0.181-0.846,0.352-1.687,0.352c-0.841,0-1.252-0.171-1.687-0.352
		c-0.47-0.196-0.957-0.399-1.918-0.399c-0.292,0-0.53,0.023-0.747,0.054v0.61c0.212-0.037,0.446-0.064,0.747-0.064
		c0.841,0,1.252,0.171,1.687,0.352c0.47,0.196,0.957,0.399,1.918,0.399c0.961,0,1.448-0.203,1.918-0.399
		c0.435-0.181,0.846-0.352,1.687-0.352c0.616,0,1,0.093,1.333,0.213v-0.629c-0.339-0.105-0.742-0.185-1.333-0.185
		C23.331,201.987,22.844,202.19,22.374,202.386z"/>
	<path class="st4" d="M22.374,203.888c-0.435,0.181-0.846,0.352-1.687,0.352c-0.841,0-1.252-0.171-1.687-0.352
		c-0.47-0.196-0.957-0.399-1.918-0.399c-0.292,0-0.53,0.023-0.747,0.054v0.61c0.212-0.037,0.446-0.064,0.747-0.064
		c0.841,0,1.252,0.171,1.687,0.352c0.47,0.196,0.957,0.399,1.918,0.399c0.961,0,1.448-0.203,1.918-0.399
		c0.435-0.181,0.846-0.352,1.687-0.352c0.616,0,1,0.093,1.333,0.213v-0.629c-0.339-0.105-0.742-0.185-1.333-0.185
		C23.331,203.489,22.844,203.692,22.374,203.888z"/>
	<path class="st4" d="M22.374,205.39c-0.435,0.181-0.846,0.352-1.687,0.352c-0.841,0-1.252-0.171-1.687-0.352
		c-0.47-0.196-0.957-0.399-1.918-0.399c-0.292,0-0.53,0.023-0.747,0.054v0.118v0.493c0.212-0.037,0.446-0.064,0.747-0.064
		c0.841,0,1.252,0.171,1.687,0.352c0.47,0.196,0.957,0.399,1.918,0.399c0.961,0,1.448-0.203,1.918-0.399
		c0.435-0.181,0.846-0.352,1.687-0.352c0.616,0,1,0.093,1.333,0.213v-0.629c-0.339-0.105-0.742-0.185-1.333-0.185
		C23.331,204.992,22.844,205.194,22.374,205.39z"/>
	<path class="st4" d="M22.374,206.893c-0.435,0.181-0.846,0.352-1.687,0.352c-0.841,0-1.252-0.171-1.687-0.352
		c-0.47-0.196-0.957-0.399-1.918-0.399c-0.292,0-0.53,0.023-0.747,0.054v0.61c0.212-0.037,0.446-0.064,0.747-0.064
		c0.841,0,1.252,0.171,1.687,0.352c0.47,0.196,0.957,0.399,1.918,0.399c0.961,0,1.448-0.203,1.918-0.399
		c0.435-0.181,0.846-0.352,1.687-0.352c0.616,0,1,0.093,1.333,0.213v-0.629c-0.339-0.105-0.742-0.185-1.333-0.185
		C23.331,206.494,22.844,206.697,22.374,206.893z"/>
	<path class="st4" d="M22.374,208.395c-0.435,0.181-0.846,0.352-1.687,0.352c-0.841,0-1.252-0.171-1.687-0.352
		c-0.47-0.196-0.957-0.399-1.918-0.399c-0.292,0-0.53,0.023-0.747,0.054v0.447l0.124,0.141c0.182-0.024,0.381-0.041,0.623-0.041
		c0.841,0,1.252,0.171,1.687,0.352c0.47,0.196,0.957,0.399,1.918,0.399c0.961,0,1.448-0.203,1.918-0.399
		c0.435-0.181,0.846-0.352,1.687-0.352c0.491,0,0.829,0.061,1.117,0.146l0.216-0.246v-0.316c-0.339-0.105-0.742-0.185-1.333-0.185
		C23.331,207.996,22.844,208.199,22.374,208.395z"/>
	<path class="st4" d="M22.374,209.897c-0.435,0.181-0.846,0.352-1.687,0.352c-0.841,0-1.252-0.171-1.687-0.352
		c-0.445-0.185-0.918-0.371-1.779-0.391l0.572,0.65c0.399,0.064,0.688,0.175,0.976,0.295c0.47,0.196,0.957,0.399,1.918,0.399
		c0.961,0,1.448-0.203,1.918-0.399c0.42-0.175,0.826-0.337,1.609-0.348l0.511-0.582c-0.138-0.011-0.27-0.023-0.433-0.023
		C23.331,209.498,22.844,209.701,22.374,209.897z"/>
	<path class="st4" d="M23.209,211.247l0.137-0.156c-0.218,0.043-0.416,0.095-0.586,0.156H23.209z"/>
	<path class="st5" d="M31.695,495.962c4.06-3.5,13.567-11.697,11.426-25.922c-0.854-5.672-4.19-10.682-9.155-13.743
		c-5.429-3.35-12.228-3.949-19.144-1.688C2.425,458.661,1.71,472.746,1.758,476.677h7.004c-0.03-2.451,0.32-12.827,8.235-15.414
		c6.313-2.065,10.714-0.6,13.294,0.991c3.161,1.95,5.369,5.25,5.908,8.827c1.364,9.059-3.457,14.706-8.92,19.442
		c1.391,1.725,2.799,3.589,4.231,5.598L31.695,495.962z"/>
	<path class="st5" d="M39.662,508.733l0.011-0.007c-0.043-0.071-0.087-0.142-0.13-0.213c-0.043-0.075-0.076-0.148-0.12-0.223
		l-0.011,0.007c-2.639-4.35-5.481-8.782-7.902-12.177c-1.432-2.008-2.84-3.872-4.231-5.598c-2.229-2.764-4.421-5.186-6.616-7.317
		l-4.875,5.023c2.053,1.992,4.113,4.278,6.223,6.908c1.383,1.725,2.788,3.602,4.224,5.64c2.269,3.22,4.62,6.849,7.1,10.954
		c4.01,6.623,1.692,12.161-1.518,14.894c-3.486,2.968-9.356,3.957-14.609-0.528c-2.345-2.002-3.487-4.156-3.493-6.588
		c-0.013-6.102,6.765-13.418,12.521-18.732c-1.437-2.039-2.842-3.916-4.224-5.64c-7.085,6.423-15.315,15.229-15.296,24.387
		c0.01,4.533,2.011,8.536,5.948,11.897c3.688,3.148,8.066,4.731,12.374,4.731c4.043-0.001,8.026-1.395,11.318-4.197
		C41.952,527.19,45.042,518.22,39.662,508.733z"/>
	<path class="st6" d="M31.187,496.399l0.508-0.437c-1.432-2.008-2.754-3.94-4.146-5.665c-0.052,0.045,0.052-0.045,0,0l-0.928,0.797
		c-1.399,1.204-3.221,2.785-4.857,4.268c1.383,1.725,2.772,3.619,4.209,5.658C27.813,499.321,29.811,497.583,31.187,496.399z"/>
	<path class="st5" d="M22.01,495.138l5.269-4.615c0,0,0.538-0.431,1.424-1.274"/>
	<path class="st5" d="M25.144,501.798c0,0,0.487-0.467,1.09-1.02c0.603-0.553,5.276-4.658,5.276-4.658s1.3-1.071,2.35-2.082"/>
	<polyline class="st1" points="80.819,202.094 94.562,202.011 94.562,220.072 	"/>
	<line class="st1" x1="80.819" y1="197.216" x2="86.333" y2="197.216"/>
	<polyline class="st1" points="114.175,202.175 114.175,188.433 104.886,188.433 104.886,185.718 	"/>
	<rect x="86.333" y="174.988" class="st1" width="9.587" height="22.229"/>
	<line class="st1" x1="104.886" y1="174.968" x2="104.886" y2="110.385"/>
	<path class="st1" d="M130.303,590.197c0,0.932-0.756,1.688-1.688,1.688c-0.932,0-1.687-0.755-1.687-1.688
		c0-0.932,0.756-1.688,1.687-1.688C129.548,588.51,130.303,589.266,130.303,590.197z"/>
	<circle class="st1" cx="128.616" cy="590.197" r="6.451"/>
	<path class="st1" d="M125.011,595.614l2.583-4.062l0.542,0.333l-1.458,4.583l1.937,0.181v-4.764c0,0,0.604,0.042,1.438-0.812
		c0.458,0.25,4.292,2.062,4.292,2.062l0.583-1.458l-4.75-0.979l0.125-0.479l4.764-0.021l-0.181-1.521l-4.625,1.208l-0.104-0.458
		l4.229-2.083l-0.896-1.229l-3.542,2.917l-0.417-0.229l2.938-3.667l-1.292-0.75l-2,4.208l-0.292-0.083l0.667-4.625l-1.667,0.083
		l0.521,4.562l-0.271,0.125l-1.625-4.354l-1.375,0.667l2.583,3.833l-0.354,0.333l-3.479-3.208"/>
	<path class="st1" d="M128.47,669.099v47.792c0,6,5.166,6.173,5.166,0.173v-35.833c0-7.763-8.376-19.5-21-19.5h-0.166
		c-8.765,0-19,5.107-19,19.5l-0.003,28.357c-0.021,8.896,0.148,12.648,4.638,16.206c1.919,1.521,4.605,2.819,7.45,4.195
		c7.798,3.771,21.581,9.471,21.581,25.407c0,5.476-4.477,15.697-21.06,22.631c-8.92,3.73-20.44,5.869-31.606,5.869
		c-11.167,0-22.687-2.139-31.607-5.869c-16.583-6.934-21.06-17.155-21.06-22.631c0-15.937,13.783-21.636,21.581-25.407
		c2.844-1.375,5.531-2.675,7.45-4.195c4.489-3.559,4.66-7.311,4.638-16.207l-0.002-1.523v-47.5c0-6.051,0-11.889,2.544-18.167
		c2.398-5.919,7.924-13.666,20.622-13.666c4.838,0,11.881-0.038,19.264-0.077c8.165-0.044,16.745-0.09,23.236-0.09
		c3.304,0,5.873-0.797,7.43-2.304c1.489-1.442,0.404-6.292-4.763-3.792c-8.381,4.055-14.583,3.763-42.167,3.763
		c-6.916,0-10.82,1.517-14,2.666c-6.674,2.409-14.451,4.701-28.546-4.033c-5.759-3.567-4.753-3.2-8.787-5.217
		c-3.5-1.75-5.453,0.745-0.833,3.5c8.583,5.119,9.917,11.119,9.917,18.75c0,4.369-4.03,12.764-11.75,18.25
		c-9.5,6.75-11.333,9.333-11.333,26.167v30.75c0,5.667,5.167,4.667,5.167-0.167v-51.131 M112.47,661.641v57.923
		c0,11.998,9.236,19.167,18.166,19.167c4.217,0,8.807-1.782,12.278-4.768c4.335-3.728,6.722-9.019,6.722-14.899v-37.833
		c0-8.229-3.872-17.17-10.356-23.918c-7.177-7.469-15.64-11.582-25.644-11.582h-2.166c-20.28,0-34,14.93-34,35.5l-0.002,28.318
		c-0.023,9.499-0.05,19.266,10.699,27.785c3.302,2.616,6.922,4.366,10.422,6.06c7.971,3.854,9.547,5.559,9.547,11.003
		c0,3.619-2.537,6.488-8.231,8.869c-6.935,2.899-16.443,4.631-25.435,4.631c-8.992,0-18.5-1.731-25.435-4.631
		c-5.694-2.381-8.232-4.375-8.232-8.869c0-5.444,1.577-7.148,9.547-11.003c3.5-1.693,7.119-3.443,10.421-6.061
		c10.75-8.519,10.724-18.286,10.7-27.785l-0.003-48.984c0-16.188,13.069-16.833,18.167-16.833c4.859,0,0.934-0.038,8.35-0.077
		c8.135-0.044,16.684-0.09,23.15-0.09c9.526,0,16.351-2.702,19.559-5.808c4.245-4.11,7.525-10.659,7.525-16.625
		c0-12.01-10.031-22.816-22.084-22.816c-6.211,0-14.797,4.925-18.002,6.919c-7.497,4.664-14.331,4.998-30.498,4.998
		c-4.854,0-9.619,0.089-12.833,1.25c-5.505,1.986-8.234,3.822-15.75-0.833c-11.679-7.235-31.667-18.284-42.75-3.167
		c-4.114,5.609-10.787,19.622,5.491,32.169c1.427,1.101,4.136,2.845,4.174,4.91c0.029,1.577-0.939,3.3-2.656,4.728l-0.605,0.503
		c-12.734,10.584-12.405,20.479-12.405,39.44v29.833c0,12.311,9.152,19.667,18,19.667c7.729,0,19.167-6.092,19.167-19.167v-70.298"
		/>
	<path class="st7" d="M63.591,211.898h0.848c0.943,0,1.823,0.384,1.823,1.423v0.04c0,0.72-0.408,1.071-0.808,1.263
		c0.472,0.208,0.88,0.536,0.88,1.248v0.072c0,0.992-0.768,1.551-1.855,1.551h-0.888V211.898z M64.582,214.248
		c0.432,0,0.72-0.248,0.72-0.736v-0.016c0-0.487-0.288-0.695-0.72-0.695h-0.016v1.447H64.582z M64.591,216.591
		c0.448,0,0.768-0.264,0.768-0.728v-0.04c0-0.464-0.32-0.728-0.768-0.728h-0.024v1.495H64.591z M67.487,211.882h1.04l1.063,5.613
		h-0.975l-0.184-1.111h-0.887l-0.176,1.111h-0.944L67.487,211.882z M68.286,215.504l-0.296-1.847l-0.304,1.847H68.286z
		 M69.887,211.898h1.008c0.999,0,1.727,0.527,1.727,1.783v0.072c0,0.728-0.287,1.191-0.655,1.472l0.751,2.271h-1.039l-0.632-1.951
		h-0.184v1.951h-0.976V211.898z M70.91,214.664c0.424,0,0.735-0.248,0.735-0.903v-0.064c0-0.704-0.335-0.888-0.759-0.888h-0.024
		v1.855H70.91z"/>
	<path class="st7" d="M48.003,177.71h1.007c1,0,1.727,0.527,1.727,1.783v0.072c0,0.728-0.288,1.191-0.656,1.472l0.752,2.271h-1.04
		l-0.632-1.951h-0.184v1.951h-0.975V177.71z M49.026,180.476c0.424,0,0.735-0.248,0.735-0.903v-0.064
		c0-0.704-0.335-0.888-0.759-0.888h-0.024v1.855H49.026z M51.187,177.71h1.007c1,0,1.727,0.527,1.727,1.783v0.072
		c0,0.728-0.288,1.191-0.656,1.472l0.751,2.271h-1.039l-0.632-1.951h-0.184v1.951h-0.975V177.71z M52.21,180.476
		c0.423,0,0.735-0.248,0.735-0.903v-0.064c0-0.704-0.336-0.888-0.76-0.888h-0.024v1.855H52.21z"/>
	<path class="st7" d="M64.333,177.773h1.007c1,0,1.727,0.527,1.727,1.783v0.072c0,0.728-0.288,1.191-0.656,1.472l0.752,2.271h-1.04
		l-0.632-1.951h-0.184v1.951h-0.975V177.773z M65.356,180.539c0.424,0,0.735-0.248,0.735-0.903v-0.064
		c0-0.704-0.335-0.888-0.759-0.888h-0.024v1.855H65.356z M67.517,177.773h1.007c1,0,1.727,0.527,1.727,1.783v0.072
		c0,0.728-0.288,1.191-0.655,1.472l0.751,2.271h-1.039l-0.632-1.951h-0.184v1.951h-0.975V177.773z M68.54,180.539
		c0.423,0,0.735-0.248,0.735-0.903v-0.064c0-0.704-0.336-0.888-0.76-0.888h-0.024v1.855H68.54z"/>
	<path class="st7" d="M77.54,177.773h1.008c0.999,0,1.728,0.527,1.728,1.783v0.072c0,0.728-0.288,1.191-0.656,1.472l0.752,2.271
		h-1.04l-0.631-1.951h-0.185v1.951H77.54V177.773z M78.564,180.539c0.424,0,0.736-0.248,0.736-0.903v-0.064
		c0-0.704-0.336-0.888-0.76-0.888h-0.024v1.855H78.564z M80.725,177.773h1.007c1,0,1.728,0.527,1.728,1.783v0.072
		c0,0.728-0.288,1.191-0.656,1.472l0.752,2.271h-1.039l-0.632-1.951H81.7v1.951h-0.976V177.773z M81.748,180.539
		c0.424,0,0.735-0.248,0.735-0.903v-0.064c0-0.704-0.336-0.888-0.76-0.888H81.7v1.855H81.748z"/>
	<path class="st7" d="M27.472,46.273h0.975v2.318h0.848v-2.318h0.976v5.597h-0.976v-2.351h-0.848v2.351h-0.975V46.273z
		 M30.752,49.215v-0.288c0-1.847,0.6-2.734,1.487-2.734c0.887,0,1.487,0.887,1.487,2.734v0.288c0,1.847-0.6,2.734-1.487,2.734
		C31.351,51.949,30.752,51.062,30.752,49.215z M32.735,49.215v-0.288c0-1.439-0.2-1.839-0.496-1.839
		c-0.296,0-0.496,0.399-0.496,1.839v0.288c0,1.439,0.2,1.839,0.496,1.839C32.535,51.054,32.735,50.654,32.735,49.215z M34.568,47.2
		H33.88v-0.927h2.351V47.2h-0.688v4.669h-0.975V47.2z M38.431,47.2h-0.688v-0.927h2.351V47.2h-0.688v4.669h-0.976V47.2z
		 M40.488,50.238v-3.966h0.967v4.062c0,0.504,0.176,0.704,0.424,0.704c0.248,0,0.424-0.2,0.424-0.704v-4.062h0.967v3.966
		c0,1.175-0.591,1.703-1.391,1.703C41.079,51.941,40.488,51.414,40.488,50.238z M43.831,46.273h0.848
		c0.943,0,1.823,0.384,1.823,1.423v0.04c0,0.72-0.408,1.071-0.808,1.263c0.472,0.208,0.879,0.536,0.879,1.248v0.072
		c0,0.992-0.768,1.551-1.855,1.551h-0.888V46.273z M44.823,48.623c0.432,0,0.719-0.248,0.719-0.736v-0.016
		c0-0.487-0.288-0.695-0.719-0.695h-0.016v1.447H44.823z M44.831,50.966c0.448,0,0.768-0.264,0.768-0.728v-0.04
		c0-0.464-0.32-0.728-0.768-0.728h-0.024v1.495H44.831z"/>
	<path class="st7" d="M101.222,46.273h0.976v2.318h0.848v-2.318h0.975v5.597h-0.975v-2.351h-0.848v2.351h-0.976V46.273z
		 M104.502,49.215v-0.288c0-1.847,0.6-2.734,1.486-2.734c0.888,0,1.487,0.887,1.487,2.734v0.288c0,1.847-0.6,2.734-1.487,2.734
		C105.102,51.949,104.502,51.062,104.502,49.215z M106.485,49.215v-0.288c0-1.439-0.2-1.839-0.496-1.839s-0.495,0.399-0.495,1.839
		v0.288c0,1.439,0.199,1.839,0.495,1.839S106.485,50.654,106.485,49.215z M108.318,47.2h-0.688v-0.927h2.351V47.2h-0.688v4.669
		h-0.976V47.2z M112.181,47.2h-0.688v-0.927h2.351V47.2h-0.688v4.669h-0.976V47.2z M114.238,50.238v-3.966h0.968v4.062
		c0,0.504,0.176,0.704,0.424,0.704c0.247,0,0.424-0.2,0.424-0.704v-4.062h0.967v3.966c0,1.175-0.592,1.703-1.391,1.703
		C114.829,51.941,114.238,51.414,114.238,50.238z M117.581,46.273h0.848c0.943,0,1.823,0.384,1.823,1.423v0.04
		c0,0.72-0.408,1.071-0.808,1.263c0.472,0.208,0.879,0.536,0.879,1.248v0.072c0,0.992-0.768,1.551-1.854,1.551h-0.888V46.273z
		 M118.572,48.623c0.432,0,0.72-0.248,0.72-0.736v-0.016c0-0.487-0.288-0.695-0.72-0.695h-0.016v1.447H118.572z M118.581,50.966
		c0.447,0,0.768-0.264,0.768-0.728v-0.04c0-0.464-0.32-0.728-0.768-0.728h-0.024v1.495H118.581z"/>
	<path class="st7" d="M27.472,202.648h0.975v2.318h0.848v-2.318h0.976v5.597h-0.976v-2.351h-0.848v2.351h-0.975V202.648z
		 M30.752,205.59v-0.288c0-1.847,0.6-2.734,1.487-2.734c0.887,0,1.487,0.887,1.487,2.734v0.288c0,1.847-0.6,2.734-1.487,2.734
		C31.351,208.324,30.752,207.437,30.752,205.59z M32.735,205.59v-0.288c0-1.439-0.2-1.839-0.496-1.839
		c-0.296,0-0.496,0.399-0.496,1.839v0.288c0,1.439,0.2,1.839,0.496,1.839C32.535,207.429,32.735,207.029,32.735,205.59z
		 M34.568,203.575H33.88v-0.927h2.351v0.927h-0.688v4.669h-0.975V203.575z M38.431,203.575h-0.688v-0.927h2.351v0.927h-0.688v4.669
		h-0.976V203.575z M40.488,206.613v-3.966h0.967v4.062c0,0.504,0.176,0.704,0.424,0.704c0.248,0,0.424-0.2,0.424-0.704v-4.062h0.967
		v3.966c0,1.175-0.591,1.703-1.391,1.703C41.079,208.316,40.488,207.789,40.488,206.613z M43.831,202.648h0.848
		c0.943,0,1.823,0.384,1.823,1.423v0.04c0,0.72-0.408,1.071-0.808,1.263c0.472,0.208,0.879,0.536,0.879,1.248v0.072
		c0,0.992-0.768,1.551-1.855,1.551h-0.888V202.648z M44.823,204.998c0.432,0,0.719-0.248,0.719-0.736v-0.016
		c0-0.487-0.288-0.695-0.719-0.695h-0.016v1.447H44.823z M44.831,207.341c0.448,0,0.768-0.264,0.768-0.728v-0.04
		c0-0.464-0.32-0.728-0.768-0.728h-0.024v1.495H44.831z"/>
	<path class="st7" d="M101.097,165.612h0.976v2.318h0.848v-2.318h0.975v5.597h-0.975v-2.351h-0.848v2.351h-0.976V165.612z
		 M104.377,168.554v-0.288c0-1.847,0.6-2.734,1.486-2.734c0.888,0,1.487,0.887,1.487,2.734v0.288c0,1.847-0.6,2.734-1.487,2.734
		C104.977,171.288,104.377,170.401,104.377,168.554z M106.36,168.554v-0.288c0-1.439-0.2-1.839-0.496-1.839
		s-0.495,0.399-0.495,1.839v0.288c0,1.439,0.199,1.839,0.495,1.839S106.36,169.993,106.36,168.554z M108.193,166.539h-0.688v-0.927
		h2.351v0.927h-0.688v4.669h-0.976V166.539z M112.056,166.539h-0.688v-0.927h2.351v0.927h-0.688v4.669h-0.976V166.539z
		 M114.113,169.577v-3.966h0.968v4.062c0,0.504,0.176,0.704,0.424,0.704c0.247,0,0.424-0.2,0.424-0.704v-4.062h0.967v3.966
		c0,1.175-0.592,1.703-1.391,1.703C114.704,171.28,114.113,170.753,114.113,169.577z M117.456,165.612h0.848
		c0.943,0,1.823,0.384,1.823,1.423v0.04c0,0.72-0.408,1.071-0.808,1.263c0.472,0.208,0.879,0.536,0.879,1.248v0.072
		c0,0.992-0.768,1.551-1.854,1.551h-0.888V165.612z M118.447,167.962c0.432,0,0.72-0.248,0.72-0.736v-0.016
		c0-0.487-0.288-0.695-0.72-0.695h-0.016v1.447H118.447z M118.456,170.305c0.447,0,0.768-0.264,0.768-0.728v-0.04
		c0-0.464-0.32-0.728-0.768-0.728h-0.024v1.495H118.456z"/>
	<path class="st7" d="M17.265,465.381h1.039l1.063,5.613h-0.975l-0.184-1.111h-0.888l-0.176,1.111h-0.943L17.265,465.381z
		 M18.065,469.003l-0.296-1.847l-0.304,1.847H18.065z M21.792,470.723c-0.231,0.239-0.503,0.352-0.792,0.352
		c-0.919,0-1.511-0.888-1.511-2.734v-0.288c0-1.847,0.6-2.734,1.487-2.734s1.487,0.888,1.487,2.734v0.288
		c0,0.76-0.112,1.359-0.304,1.799l0.503,0.464l-0.488,0.52L21.792,470.723z M21.225,470.131l-0.48-0.472l0.456-0.504l0.232,0.248
		c0.024-0.265,0.04-0.608,0.04-1.063v-0.288c0-1.439-0.2-1.839-0.496-1.839s-0.496,0.399-0.496,1.839v0.288
		c0,1.566,0.208,1.854,0.568,1.854C21.113,470.195,21.169,470.179,21.225,470.131z M22.986,469.363v-3.966h0.967v4.062
		c0,0.504,0.176,0.703,0.424,0.703c0.248,0,0.424-0.199,0.424-0.703v-4.062h0.967v3.966c0,1.175-0.591,1.703-1.391,1.703
		C23.577,471.067,22.986,470.538,22.986,469.363z M27.073,465.381h1.04l1.063,5.613H28.2l-0.184-1.111h-0.887l-0.176,1.111h-0.944
		L27.073,465.381z M27.873,469.003l-0.296-1.847l-0.304,1.847H27.873z M15.577,473.398h1.008c1,0,1.727,0.527,1.727,1.783v0.071
		c0,0.728-0.288,1.191-0.656,1.472l0.751,2.271h-1.04l-0.631-1.951h-0.184v1.951h-0.976V473.398z M16.601,476.164
		c0.424,0,0.736-0.248,0.736-0.904v-0.063c0-0.704-0.336-0.888-0.76-0.888h-0.024v1.855H16.601z M19.545,473.381h1.04l1.063,5.613
		h-0.976l-0.184-1.111h-0.887l-0.176,1.111h-0.943L19.545,473.381z M20.345,477.003l-0.296-1.847l-0.304,1.847H20.345z
		 M21.77,476.292V476.1c0-1.967,0.728-2.742,1.639-2.742c0.271,0,0.432,0.032,0.64,0.128v1.007c-0.2-0.119-0.36-0.184-0.544-0.184
		c-0.432,0-0.744,0.384-0.744,1.783v0.208c0,1.479,0.312,1.783,0.76,1.783c0.152,0,0.344-0.057,0.543-0.177v0.96
		c-0.224,0.128-0.439,0.168-0.719,0.168C22.449,479.034,21.77,478.242,21.77,476.292z M24.553,473.398h2.143v0.927h-1.167v1.392
		h1.031v0.928h-1.031v1.423h1.191v0.928h-2.167V473.398z M27.194,473.398h1.007c1,0,1.727,0.527,1.727,1.783v0.071
		c0,0.728-0.288,1.191-0.656,1.472l0.751,2.271h-1.039l-0.632-1.951h-0.184v1.951h-0.976V473.398z M28.217,476.164
		c0.424,0,0.735-0.248,0.735-0.904v-0.063c0-0.704-0.336-0.888-0.759-0.888h-0.024v1.855H28.217z"/>
	<path class="st7" d="M111.033,134.619h0.992l0.527,3.646l0.527-3.646h0.96l-0.999,5.613h-1.008L111.033,134.619z M114.354,134.619
		h0.976v5.597h-0.976V134.619z M115.922,134.619h0.847c0.944,0,1.823,0.384,1.823,1.423v0.04c0,0.72-0.407,1.071-0.808,1.263
		c0.472,0.208,0.88,0.536,0.88,1.248v0.072c0,0.992-0.768,1.551-1.855,1.551h-0.887V134.619z M116.913,136.97
		c0.432,0,0.72-0.248,0.72-0.736v-0.016c0-0.487-0.288-0.695-0.72-0.695h-0.017v1.447H116.913z M116.921,139.313
		c0.448,0,0.768-0.264,0.768-0.728v-0.04c0-0.464-0.319-0.728-0.768-0.728h-0.024v1.495H116.921z M119.073,134.619h2.143v0.927
		h-1.167v1.391h1.031v0.928h-1.031v1.423h1.191v0.928h-2.167V134.619z M109.033,142.619h0.848c0.943,0,1.823,0.384,1.823,1.423v0.04
		c0,0.72-0.408,1.071-0.808,1.263c0.472,0.208,0.88,0.536,0.88,1.248v0.072c0,0.992-0.768,1.551-1.855,1.551h-0.888V142.619z
		 M110.026,144.97c0.432,0,0.719-0.248,0.719-0.736v-0.016c0-0.487-0.287-0.695-0.719-0.695h-0.017v1.447H110.026z M110.033,147.313
		c0.447,0,0.768-0.264,0.768-0.728v-0.04c0-0.464-0.32-0.728-0.768-0.728h-0.024v1.495H110.033z M112.186,142.619h2.143v0.927
		h-1.167v1.391h1.031v0.928h-1.031v1.423h1.191v0.928h-2.167V142.619z M115.61,142.603h1.039l1.063,5.613h-0.976l-0.184-1.111
		h-0.888l-0.176,1.111h-0.943L115.61,142.603z M116.408,146.225l-0.296-1.847l-0.304,1.847H116.408z M117.833,145.513v-0.192
		c0-1.967,0.728-2.742,1.64-2.742c0.271,0,0.432,0.032,0.64,0.128v1.007c-0.2-0.12-0.36-0.184-0.544-0.184
		c-0.432,0-0.743,0.384-0.743,1.783v0.208c0,1.479,0.312,1.783,0.759,1.783c0.152,0,0.345-0.056,0.544-0.176v0.959
		c-0.224,0.128-0.439,0.168-0.72,0.168C118.513,148.256,117.833,147.465,117.833,145.513z M120.617,142.619h0.976v2.318h0.848
		v-2.318h0.976v5.597h-0.976v-2.351h-0.848v2.351h-0.976V142.619z M110.674,153.513v-0.192c0-1.967,0.728-2.742,1.639-2.742
		c0.272,0,0.432,0.032,0.64,0.128v1.007c-0.2-0.12-0.359-0.184-0.544-0.184c-0.432,0-0.743,0.384-0.743,1.783v0.208
		c0,1.479,0.312,1.783,0.76,1.783c0.151,0,0.344-0.056,0.544-0.176v0.959c-0.225,0.128-0.44,0.168-0.72,0.168
		C111.354,156.256,110.674,155.465,110.674,153.513z M113.457,150.619h0.976v4.669h1.032v0.928h-2.008V150.619z M115.762,154.585
		v-3.966h0.967v4.062c0,0.504,0.177,0.704,0.424,0.704c0.248,0,0.424-0.2,0.424-0.704v-4.062h0.968v3.966
		c0,1.175-0.592,1.703-1.392,1.703C116.354,156.288,115.762,155.76,115.762,154.585z M119.106,150.619h0.848
		c0.943,0,1.822,0.384,1.822,1.423v0.04c0,0.72-0.407,1.071-0.807,1.263c0.472,0.208,0.879,0.536,0.879,1.248v0.072
		c0,0.992-0.768,1.551-1.854,1.551h-0.888V150.619z M120.097,152.97c0.432,0,0.72-0.248,0.72-0.736v-0.016
		c0-0.487-0.288-0.695-0.72-0.695h-0.016v1.447H120.097z M120.105,155.313c0.448,0,0.768-0.264,0.768-0.728v-0.04
		c0-0.464-0.319-0.728-0.768-0.728h-0.023v1.495H120.105z"/>
	<path class="st7" d="M25.748,131.982h0.992l0.527,3.646l0.528-3.646h0.959l-1,5.613h-1.007L25.748,131.982z M29.068,131.982h0.976
		v5.597h-0.976V131.982z M30.635,131.982h0.848c0.943,0,1.823,0.384,1.823,1.423v0.04c0,0.72-0.408,1.071-0.808,1.263
		c0.472,0.208,0.88,0.536,0.88,1.248v0.072c0,0.992-0.768,1.551-1.855,1.551h-0.888V131.982z M31.627,134.333
		c0.432,0,0.719-0.248,0.719-0.736v-0.016c0-0.488-0.288-0.696-0.719-0.696h-0.016v1.447H31.627z M31.635,136.675
		c0.448,0,0.768-0.264,0.768-0.728v-0.04c0-0.464-0.32-0.728-0.768-0.728h-0.024v1.496H31.635z M33.787,131.982h2.143v0.928h-1.167
		v1.391h1.031v0.928h-1.031v1.423h1.191v0.927h-2.167V131.982z M23.748,139.982h0.847c0.944,0,1.823,0.384,1.823,1.423v0.04
		c0,0.72-0.408,1.071-0.808,1.263c0.472,0.208,0.879,0.536,0.879,1.248v0.072c0,0.992-0.768,1.551-1.855,1.551h-0.887V139.982z
		 M24.739,142.333c0.432,0,0.72-0.248,0.72-0.736v-0.016c0-0.488-0.288-0.696-0.72-0.696h-0.016v1.447H24.739z M24.747,144.675
		c0.447,0,0.768-0.264,0.768-0.728v-0.04c0-0.464-0.32-0.728-0.768-0.728h-0.024v1.496H24.747z M26.9,139.982h2.143v0.928h-1.167
		v1.391h1.031v0.928h-1.031v1.423h1.191v0.927H26.9V139.982z M30.323,139.966h1.04l1.063,5.613H31.45l-0.184-1.111h-0.887
		l-0.176,1.111h-0.944L30.323,139.966z M31.123,143.588l-0.296-1.847l-0.304,1.847H31.123z M32.548,142.876v-0.192
		c0-1.967,0.728-2.742,1.639-2.742c0.271,0,0.432,0.032,0.64,0.128v1.007c-0.2-0.12-0.36-0.184-0.544-0.184
		c-0.432,0-0.744,0.384-0.744,1.783v0.208c0,1.479,0.312,1.783,0.76,1.783c0.152,0,0.344-0.056,0.543-0.176v0.959
		c-0.224,0.128-0.439,0.168-0.719,0.168C33.227,145.619,32.548,144.827,32.548,142.876z M35.331,139.982h0.976v2.319h0.848v-2.319
		h0.976v5.597h-0.976v-2.351h-0.848v2.351h-0.976V139.982z M25.252,150.876v-0.192c0-1.967,0.728-2.742,1.639-2.742
		c0.272,0,0.432,0.032,0.64,0.128v1.007c-0.2-0.12-0.36-0.184-0.544-0.184c-0.432,0-0.743,0.384-0.743,1.783v0.208
		c0,1.479,0.312,1.783,0.759,1.783c0.152,0,0.344-0.056,0.544-0.176v0.959c-0.224,0.128-0.44,0.168-0.72,0.168
		C25.931,153.619,25.252,152.827,25.252,150.876z M28.035,147.982h0.976v4.67h1.032v0.927h-2.007V147.982z M30.34,151.947v-3.966
		h0.967v4.062c0,0.504,0.176,0.704,0.424,0.704c0.248,0,0.424-0.2,0.424-0.704v-4.062h0.968v3.966c0,1.176-0.592,1.703-1.392,1.703
		C30.931,153.651,30.34,153.123,30.34,151.947z M33.683,147.982h0.912l0.983,2.831v-2.831h0.952v5.597h-0.864l-1.031-2.966v2.966
		h-0.952V147.982z"/>
	<path class="st7" d="M105.998,211.315h0.991l0.527,3.646l0.528-3.646h0.959l-0.999,5.613h-1.008L105.998,211.315z M109.318,211.315
		h0.976v5.597h-0.976V211.315z M110.886,211.315h0.847c0.944,0,1.823,0.384,1.823,1.423v0.04c0,0.72-0.407,1.071-0.808,1.263
		c0.472,0.208,0.88,0.536,0.88,1.248v0.072c0,0.992-0.768,1.551-1.855,1.551h-0.887V211.315z M111.877,213.666
		c0.432,0,0.72-0.248,0.72-0.736v-0.016c0-0.488-0.288-0.696-0.72-0.696h-0.017v1.447H111.877z M111.885,216.008
		c0.447,0,0.768-0.264,0.768-0.728v-0.04c0-0.464-0.32-0.728-0.768-0.728h-0.024v1.496H111.885z M114.037,211.315h2.143v0.928
		h-1.167v1.391h1.031v0.928h-1.031v1.423h1.191v0.927h-2.167V211.315z M97.617,219.315h0.848c0.943,0,1.823,0.384,1.823,1.423v0.04
		c0,0.72-0.408,1.071-0.808,1.263c0.472,0.208,0.88,0.536,0.88,1.248v0.072c0,0.992-0.768,1.551-1.855,1.551h-0.888V219.315z
		 M98.61,221.666c0.432,0,0.719-0.248,0.719-0.736v-0.016c0-0.488-0.287-0.696-0.719-0.696h-0.017v1.447H98.61z M98.617,224.008
		c0.447,0,0.768-0.264,0.768-0.728v-0.04c0-0.464-0.32-0.728-0.768-0.728h-0.024v1.496H98.617z M100.77,219.315h2.143v0.928h-1.167
		v1.391h1.031v0.928h-1.031v1.423h1.191v0.927h-2.167V219.315z M104.194,219.299h1.039l1.063,5.613h-0.976l-0.184-1.111h-0.888
		l-0.176,1.111h-0.943L104.194,219.299z M104.992,222.921l-0.296-1.847l-0.304,1.847H104.992z M106.417,222.209v-0.192
		c0-1.967,0.728-2.742,1.64-2.742c0.271,0,0.432,0.032,0.64,0.128v1.007c-0.2-0.12-0.36-0.184-0.544-0.184
		c-0.432,0-0.743,0.384-0.743,1.783v0.208c0,1.479,0.312,1.783,0.759,1.783c0.152,0,0.345-0.056,0.544-0.176v0.959
		c-0.224,0.128-0.439,0.168-0.72,0.168C107.097,224.952,106.417,224.16,106.417,222.209z M109.201,219.315h0.976v2.319h0.848v-2.319
		H112v5.597h-0.976v-2.351h-0.848v2.351h-0.976V219.315z M113.753,222.209v-0.192c0-1.967,0.728-2.742,1.64-2.742
		c0.271,0,0.432,0.032,0.64,0.128v1.007c-0.2-0.12-0.36-0.184-0.544-0.184c-0.432,0-0.743,0.384-0.743,1.783v0.208
		c0,1.479,0.312,1.783,0.759,1.783c0.152,0,0.345-0.056,0.544-0.176v0.959c-0.224,0.128-0.439,0.168-0.72,0.168
		C114.433,224.952,113.753,224.16,113.753,222.209z M116.537,219.315h0.976v4.67h1.031v0.927h-2.007V219.315z M118.841,223.28
		v-3.966h0.968v4.062c0,0.504,0.176,0.704,0.424,0.704s0.424-0.2,0.424-0.704v-4.062h0.968v3.966c0,1.176-0.592,1.703-1.392,1.703
		S118.841,224.456,118.841,223.28z M122.186,219.315h0.847c0.944,0,1.823,0.384,1.823,1.423v0.04c0,0.72-0.407,1.071-0.808,1.263
		c0.472,0.208,0.88,0.536,0.88,1.248v0.072c0,0.992-0.768,1.551-1.855,1.551h-0.887V219.315z M123.177,221.666
		c0.432,0,0.72-0.248,0.72-0.736v-0.016c0-0.488-0.288-0.696-0.72-0.696h-0.017v1.447H123.177z M123.185,224.008
		c0.448,0,0.768-0.264,0.768-0.728v-0.04c0-0.464-0.319-0.728-0.768-0.728h-0.024v1.496H123.185z"/>
	<path class="st7" d="M52.209,751.535h2.143v0.928h-1.167v1.391h1.032v0.928h-1.032v1.423h1.191v0.928h-2.167V751.535z
		 M54.848,751.535h0.912l0.983,2.83v-2.83h0.952v5.597h-0.864l-1.031-2.967v2.967h-0.952V751.535z M58.176,754.43v-0.192
		c0-1.967,0.728-2.742,1.639-2.742c0.272,0,0.432,0.032,0.64,0.128v1.007c-0.2-0.119-0.36-0.184-0.544-0.184
		c-0.432,0-0.743,0.384-0.743,1.783v0.208c0,1.479,0.312,1.783,0.759,1.783c0.152,0,0.344-0.057,0.544-0.176v0.959
		c-0.224,0.128-0.44,0.168-0.72,0.168C58.856,757.172,58.176,756.38,58.176,754.43z M60.664,754.478v-0.288
		c0-1.847,0.6-2.734,1.487-2.734c0.888,0,1.487,0.888,1.487,2.734v0.288c0,1.847-0.6,2.734-1.487,2.734
		C61.264,757.212,60.664,756.324,60.664,754.478z M62.648,754.478v-0.288c0-1.439-0.2-1.839-0.496-1.839s-0.496,0.399-0.496,1.839
		v0.288c0,1.438,0.2,1.839,0.496,1.839S62.648,755.916,62.648,754.478z M64.12,751.535h1.008c0.999,0,1.727,0.527,1.727,1.783v0.071
		c0,0.728-0.288,1.191-0.655,1.472l0.751,2.271h-1.04l-0.631-1.951h-0.184v1.951H64.12V751.535z M65.144,754.302
		c0.424,0,0.736-0.248,0.736-0.904v-0.063c0-0.704-0.336-0.888-0.76-0.888h-0.024v1.855H65.144z M67.304,751.535h2.143v0.928H68.28
		v1.391h1.031v0.928H68.28v1.423h1.191v0.928h-2.167V751.535z M71.096,756.94v-1.015c0.344,0.199,0.616,0.312,0.88,0.312
		c0.28,0,0.52-0.136,0.52-0.479v-0.017c0-0.256-0.08-0.447-0.544-0.975c-0.663-0.752-0.935-1.112-0.935-1.791v-0.017
		c0-0.896,0.583-1.463,1.358-1.463c0.393,0,0.624,0.056,0.864,0.176v1.016c-0.304-0.176-0.488-0.256-0.744-0.256
		c-0.271,0-0.504,0.176-0.504,0.479v0.016c0,0.265,0.08,0.36,0.544,0.896c0.768,0.888,0.936,1.231,0.936,1.871v0.017
		c0,0.879-0.615,1.463-1.383,1.463C71.704,757.172,71.376,757.076,71.096,756.94z M73.817,751.535h0.871
		c1.063,0,1.807,0.575,1.807,1.887v0.016c0,1.264-0.703,1.863-1.694,1.936h-0.009v1.759h-0.975V751.535z M74.8,754.47
		c0.407-0.024,0.72-0.32,0.72-1v-0.016c0-0.712-0.272-1.016-0.696-1.016h-0.032v2.031H74.8z M76.897,751.535h2.143v0.928h-1.168
		v1.391h1.032v0.928h-1.032v1.423h1.191v0.928h-2.166V751.535z M79.536,751.535h2.143v0.928h-1.167v1.391h1.031v0.928h-1.031v1.423
		h1.191v0.928h-2.167V751.535z M82.176,751.535h0.911c1.248,0,1.959,0.903,1.959,2.702v0.192c0,1.799-0.711,2.702-1.959,2.702
		h-0.911V751.535z M83.192,756.237c0.464,0,0.863-0.408,0.863-1.807v-0.192c0-1.399-0.399-1.807-0.863-1.807h-0.04v3.806H83.192z
		 M85.264,751.535h1l0.407,3.43l0.488-3.43h0.903l0.479,3.43l0.416-3.43h0.976l-0.848,5.612h-1.023l-0.464-3.317l-0.464,3.317
		h-1.023L85.264,751.535z M90.967,751.519h1.04l1.063,5.613h-0.976l-0.184-1.111h-0.888l-0.176,1.111h-0.943L90.967,751.519z
		 M91.767,755.141l-0.296-1.847l-0.304,1.847H91.767z M93.799,754.925l-1.039-3.39h1.008l0.527,2.095l0.536-2.095h0.983l-1.04,3.39
		v2.207h-0.976V754.925z"/>
	<path class="st7" d="M64.11,137.674v-0.288c0-1.847,0.6-2.734,1.487-2.734c0.888,0,1.487,0.887,1.487,2.734v0.288
		c0,1.847-0.6,2.735-1.487,2.735C64.709,140.409,64.11,139.521,64.11,137.674z M66.092,137.674v-0.288
		c0-1.439-0.2-1.839-0.496-1.839c-0.295,0-0.496,0.4-0.496,1.839v0.288c0,1.439,0.2,1.839,0.496,1.839
		C65.892,139.513,66.092,139.113,66.092,137.674z M67.565,134.732h0.872c1.063,0,1.808,0.576,1.808,1.887v0.016
		c0,1.263-0.704,1.863-1.695,1.935h-0.008v1.759h-0.976V134.732z M68.549,137.666c0.408-0.024,0.719-0.32,0.719-1v-0.016
		c0-0.711-0.272-1.015-0.695-1.015h-0.032v2.031H68.549z M70.646,134.732h2.143v0.928H71.62v1.391h1.032v0.928H71.62v1.423h1.191
		v0.927h-2.166V134.732z M73.285,134.732h0.911l0.983,2.831v-2.831h0.952v5.597h-0.864l-1.031-2.966v2.966h-0.951V134.732z
		 M78.501,135.659h-0.688v-0.928h2.352v0.928h-0.688v4.669h-0.976V135.659z M80.318,137.674v-0.288c0-1.847,0.6-2.734,1.486-2.734
		c0.888,0,1.487,0.887,1.487,2.734v0.288c0,1.847-0.6,2.735-1.487,2.735C80.917,140.409,80.318,139.521,80.318,137.674z
		 M82.3,137.674v-0.288c0-1.439-0.2-1.839-0.496-1.839s-0.495,0.4-0.495,1.839v0.288c0,1.439,0.199,1.839,0.495,1.839
		S82.3,139.113,82.3,137.674z M59.437,142.732h0.912c1.248,0,1.959,0.904,1.959,2.703v0.192c0,1.799-0.711,2.703-1.959,2.703h-0.912
		V142.732z M60.453,147.433c0.464,0,0.864-0.408,0.864-1.807v-0.192c0-1.399-0.4-1.807-0.864-1.807h-0.04v3.806H60.453z
		 M62.789,142.732h2.143v0.928h-1.167v1.391h1.031v0.928h-1.031v1.423h1.191v0.927h-2.167V142.732z M65.253,145.626v-0.192
		c0-1.967,0.728-2.742,1.639-2.742c0.272,0,0.432,0.032,0.64,0.128v1.007c-0.2-0.12-0.36-0.184-0.543-0.184
		c-0.432,0-0.744,0.384-0.744,1.783v0.208c0,1.479,0.312,1.783,0.759,1.783c0.152,0,0.344-0.056,0.544-0.176v0.959
		c-0.224,0.128-0.44,0.168-0.72,0.168C65.933,148.369,65.253,147.577,65.253,145.626z M68.037,142.732h0.976v2.343l0.791-2.343
		h1.104l-0.943,2.367l0.96,3.23h-1.088l-0.607-2.119l-0.216,0.615v1.503h-0.976V142.732z M72.533,142.732h0.848
		c0.943,0,1.822,0.384,1.822,1.423v0.04c0,0.72-0.407,1.071-0.807,1.263c0.472,0.208,0.879,0.536,0.879,1.248v0.072
		c0,0.992-0.768,1.551-1.854,1.551h-0.888V142.732z M73.525,145.083c0.432,0,0.72-0.248,0.72-0.736v-0.016
		c0-0.488-0.288-0.696-0.72-0.696h-0.016v1.447H73.525z M73.532,147.425c0.448,0,0.768-0.264,0.768-0.728v-0.04
		c0-0.464-0.319-0.728-0.768-0.728h-0.023v1.496H73.532z M75.685,142.732h2.144v0.928H76.66v1.391h1.031v0.928H76.66v1.423h1.191
		v0.927h-2.167V142.732z M78.325,142.732h0.976v4.67h1.031v0.927h-2.007V142.732z M80.429,145.674v-0.288
		c0-1.847,0.6-2.734,1.487-2.734s1.487,0.887,1.487,2.734v0.288c0,1.847-0.6,2.735-1.487,2.735S80.429,147.521,80.429,145.674z
		 M82.412,145.674v-0.288c0-1.439-0.2-1.839-0.496-1.839s-0.496,0.4-0.496,1.839v0.288c0,1.439,0.2,1.839,0.496,1.839
		S82.412,147.113,82.412,145.674z M83.541,142.732h0.999l0.408,3.43l0.487-3.43h0.904l0.479,3.43l0.416-3.43h0.976l-0.848,5.613
		H86.34l-0.464-3.318l-0.464,3.318h-1.023L83.541,142.732z"/>
	<path class="st7" d="M98.263,61.118h-0.688v-0.927h2.352v0.927h-0.688v4.669h-0.975V61.118z M100.334,60.191h0.976v2.318h0.848
		v-2.318h0.976v5.597h-0.976v-2.351h-0.848v2.351h-0.976V60.191z M103.711,60.191h2.143v0.927h-1.168v1.391h1.032v0.928h-1.032
		v1.423h1.191v0.928h-2.166V60.191z M107.622,60.191h0.976v2.318h0.848v-2.318h0.976v5.597h-0.976v-2.351h-0.848v2.351h-0.976
		V60.191z M111.782,60.175h1.039l1.063,5.613h-0.976l-0.184-1.111h-0.888l-0.176,1.111h-0.943L111.782,60.175z M112.581,63.797
		l-0.296-1.847l-0.304,1.847H112.581z M113.822,60.191h0.991l0.528,3.646l0.527-3.646h0.96l-1,5.613h-1.007L113.822,60.191z
		 M117.126,60.191h2.144v0.927h-1.168v1.391h1.031v0.928h-1.031v1.423h1.191v0.928h-2.167V60.191z M119.766,60.191h0.912l0.983,2.83
		v-2.83h0.951v5.597h-0.863l-1.031-2.966v2.966h-0.952V60.191z M97.383,71.085v-0.192c0-1.967,0.728-2.742,1.639-2.742
		c0.271,0,0.432,0.032,0.64,0.128v1.007c-0.2-0.12-0.359-0.184-0.544-0.184c-0.432,0-0.743,0.384-0.743,1.783v0.208
		c0,1.479,0.312,1.783,0.76,1.783c0.151,0,0.344-0.056,0.544-0.176v0.959c-0.225,0.128-0.44,0.168-0.72,0.168
		C98.063,73.827,97.383,73.036,97.383,71.085z M99.87,71.133v-0.288c0-1.847,0.601-2.734,1.487-2.734
		c0.888,0,1.487,0.887,1.487,2.734v0.288c0,1.847-0.6,2.734-1.487,2.734C100.471,73.867,99.87,72.98,99.87,71.133z M101.854,71.133
		v-0.288c0-1.439-0.2-1.839-0.496-1.839s-0.495,0.399-0.495,1.839v0.288c0,1.439,0.199,1.839,0.495,1.839
		S101.854,72.572,101.854,71.133z M103.311,72.156v-3.966h0.968v4.062c0,0.504,0.176,0.704,0.424,0.704
		c0.247,0,0.423-0.2,0.423-0.704v-4.062h0.968v3.966c0,1.175-0.592,1.703-1.391,1.703C103.903,73.859,103.311,73.332,103.311,72.156
		z M106.655,68.191h1.008c0.999,0,1.727,0.527,1.727,1.783v0.072c0,0.728-0.288,1.191-0.655,1.472l0.751,2.271h-1.039l-0.632-1.951
		h-0.184v1.951h-0.976V68.191z M107.678,70.957c0.424,0,0.735-0.248,0.735-0.903v-0.064c0-0.704-0.336-0.888-0.759-0.888h-0.024
		v1.855H107.678z M110.279,69.118h-0.688v-0.927h2.351v0.927h-0.688v4.669h-0.976V69.118z M113.022,71.58l-1.039-3.39h1.008
		l0.527,2.095l0.536-2.095h0.983l-1.04,3.39v2.207h-0.976V71.58z M115.79,68.175h1.039l1.063,5.613h-0.976l-0.184-1.111h-0.888
		l-0.176,1.111h-0.943L115.79,68.175z M116.59,71.797l-0.296-1.847l-0.304,1.847H116.59z M118.191,68.191h1.007
		c1,0,1.728,0.527,1.728,1.783v0.072c0,0.728-0.288,1.191-0.655,1.472l0.751,2.271h-1.039l-0.632-1.951h-0.184v1.951h-0.976V68.191z
		 M119.214,70.957c0.424,0,0.735-0.248,0.735-0.903v-0.064c0-0.704-0.336-0.888-0.76-0.888h-0.023v1.855H119.214z M121.374,68.191
		h0.912c1.247,0,1.958,0.903,1.958,2.702v0.192c0,1.799-0.711,2.703-1.958,2.703h-0.912V68.191z M122.39,72.892
		c0.464,0,0.863-0.408,0.863-1.807v-0.192c0-1.399-0.399-1.807-0.863-1.807h-0.04v3.806H122.39z M99.759,81.595V80.58
		c0.344,0.2,0.615,0.312,0.879,0.312c0.28,0,0.521-0.136,0.521-0.479v-0.016c0-0.256-0.08-0.448-0.544-0.976
		c-0.664-0.751-0.936-1.111-0.936-1.791v-0.016c0-0.896,0.584-1.463,1.359-1.463c0.392,0,0.623,0.056,0.863,0.176v1.016
		c-0.304-0.176-0.487-0.256-0.743-0.256c-0.272,0-0.504,0.176-0.504,0.479v0.016c0,0.264,0.08,0.36,0.543,0.896
		c0.768,0.887,0.936,1.231,0.936,1.871v0.016c0,0.879-0.615,1.463-1.383,1.463C100.366,81.827,100.038,81.731,99.759,81.595z
		 M102.463,80.156v-3.966h0.967v4.062c0,0.504,0.176,0.704,0.424,0.704s0.424-0.2,0.424-0.704v-4.062h0.968v3.966
		c0,1.175-0.592,1.703-1.392,1.703S102.463,81.332,102.463,80.156z M105.807,76.191h0.911l0.983,2.83v-2.83h0.951v5.597h-0.863
		l-1.031-2.966v2.966h-0.951V76.191z M110.502,76.191h0.912c1.247,0,1.959,0.903,1.959,2.702v0.192c0,1.799-0.712,2.703-1.959,2.703
		h-0.912V76.191z M111.518,80.892c0.464,0,0.863-0.408,0.863-1.807v-0.192c0-1.399-0.399-1.807-0.863-1.807h-0.04v3.806H111.518z
		 M113.855,76.191h2.143v0.927h-1.167v1.391h1.031v0.928h-1.031v1.423h1.191v0.928h-2.167V76.191z M116.319,79.085v-0.192
		c0-1.967,0.728-2.742,1.639-2.742c0.272,0,0.432,0.032,0.64,0.128v1.007c-0.199-0.12-0.359-0.184-0.544-0.184
		c-0.432,0-0.743,0.384-0.743,1.783v0.208c0,1.479,0.312,1.783,0.76,1.783c0.151,0,0.344-0.056,0.544-0.176v0.959
		c-0.225,0.128-0.44,0.168-0.72,0.168C116.998,81.827,116.319,81.036,116.319,79.085z M119.103,76.191h0.975v2.342l0.792-2.342
		h1.104l-0.943,2.366l0.959,3.23h-1.087l-0.608-2.119l-0.216,0.616v1.503h-0.975V76.191z"/>
	<path class="st7" d="M24.596,61.118h-0.688v-0.927h2.351v0.927h-0.688v4.669h-0.976V61.118z M26.668,60.191h0.976v2.318h0.848
		v-2.318h0.975v5.597h-0.975v-2.351h-0.848v2.351h-0.976V60.191z M30.044,60.191h2.143v0.927H31.02v1.391h1.031v0.928H31.02v1.423
		h1.191v0.928h-2.167V60.191z M33.956,60.191h0.975v2.318h0.848v-2.318h0.976v5.597h-0.976v-2.351h-0.848v2.351h-0.975V60.191z
		 M38.115,60.175h1.04l1.063,5.613h-0.976l-0.184-1.111h-0.887l-0.176,1.111h-0.944L38.115,60.175z M38.915,63.797l-0.296-1.847
		l-0.304,1.847H38.915z M40.156,60.191h0.992l0.528,3.646l0.527-3.646h0.959l-0.999,5.613h-1.008L40.156,60.191z M43.46,60.191
		h2.143v0.927h-1.167v1.391h1.032v0.928h-1.032v1.423h1.191v0.928H43.46V60.191z M46.1,60.191h0.912l0.983,2.83v-2.83h0.952v5.597
		h-0.864l-1.031-2.966v2.966H46.1V60.191z M23.716,71.085v-0.192c0-1.967,0.728-2.742,1.639-2.742c0.272,0,0.432,0.032,0.64,0.128
		v1.007c-0.2-0.12-0.36-0.184-0.543-0.184c-0.432,0-0.744,0.384-0.744,1.783v0.208c0,1.479,0.312,1.783,0.759,1.783
		c0.152,0,0.344-0.056,0.544-0.176v0.959c-0.224,0.128-0.44,0.168-0.72,0.168C24.396,73.827,23.716,73.036,23.716,71.085z
		 M26.204,71.133v-0.288c0-1.847,0.6-2.734,1.487-2.734c0.887,0,1.487,0.887,1.487,2.734v0.288c0,1.847-0.6,2.734-1.487,2.734
		C26.804,73.867,26.204,72.98,26.204,71.133z M28.187,71.133v-0.288c0-1.439-0.2-1.839-0.496-1.839s-0.496,0.399-0.496,1.839v0.288
		c0,1.439,0.2,1.839,0.496,1.839S28.187,72.572,28.187,71.133z M29.644,72.156v-3.966h0.967v4.062c0,0.504,0.176,0.704,0.424,0.704
		s0.424-0.2,0.424-0.704v-4.062h0.967v3.966c0,1.175-0.591,1.703-1.391,1.703C30.236,73.859,29.644,73.332,29.644,72.156z
		 M32.988,68.191h1.007c1,0,1.727,0.527,1.727,1.783v0.072c0,0.728-0.288,1.191-0.655,1.472l0.751,2.271h-1.04l-0.631-1.951h-0.184
		v1.951h-0.976V68.191z M34.011,70.957c0.424,0,0.736-0.248,0.736-0.903v-0.064c0-0.704-0.336-0.888-0.76-0.888h-0.024v1.855H34.011
		z M36.612,69.118h-0.688v-0.927h2.351v0.927h-0.688v4.669h-0.976V69.118z M39.356,71.58l-1.04-3.39h1.007l0.528,2.095l0.536-2.095
		h0.983l-1.039,3.39v2.207h-0.976V71.58z M42.124,68.175h1.039l1.063,5.613h-0.975l-0.184-1.111h-0.888l-0.176,1.111H41.06
		L42.124,68.175z M42.923,71.797l-0.296-1.847l-0.304,1.847H42.923z M44.524,68.191h1.007c1,0,1.727,0.527,1.727,1.783v0.072
		c0,0.728-0.288,1.191-0.656,1.472l0.751,2.271h-1.039l-0.632-1.951h-0.184v1.951h-0.975V68.191z M45.548,70.957
		c0.423,0,0.735-0.248,0.735-0.903v-0.064c0-0.704-0.336-0.888-0.759-0.888h-0.024v1.855H45.548z M47.708,68.191h0.912
		c1.248,0,1.959,0.903,1.959,2.702v0.192c0,1.799-0.711,2.703-1.959,2.703h-0.912V68.191z M48.723,72.892
		c0.464,0,0.864-0.408,0.864-1.807v-0.192c0-1.399-0.4-1.807-0.864-1.807h-0.04v3.806H48.723z M26.092,81.595V80.58
		c0.344,0.2,0.616,0.312,0.88,0.312c0.28,0,0.52-0.136,0.52-0.479v-0.016c0-0.256-0.08-0.448-0.543-0.976
		c-0.664-0.751-0.936-1.111-0.936-1.791v-0.016c0-0.896,0.583-1.463,1.359-1.463c0.392,0,0.624,0.056,0.864,0.176v1.016
		c-0.304-0.176-0.488-0.256-0.744-0.256c-0.272,0-0.504,0.176-0.504,0.479v0.016c0,0.264,0.08,0.36,0.544,0.896
		c0.768,0.887,0.936,1.231,0.936,1.871v0.016c0,0.879-0.616,1.463-1.383,1.463C26.7,81.827,26.372,81.731,26.092,81.595z
		 M28.796,80.156v-3.966h0.968v4.062c0,0.504,0.176,0.704,0.423,0.704c0.248,0,0.424-0.2,0.424-0.704v-4.062h0.968v3.966
		c0,1.175-0.592,1.703-1.392,1.703C29.388,81.859,28.796,81.332,28.796,80.156z M32.14,76.191h0.912l0.983,2.83v-2.83h0.952v5.597
		h-0.864l-1.031-2.966v2.966H32.14V76.191z M36.836,76.191h0.911c1.248,0,1.959,0.903,1.959,2.702v0.192
		c0,1.799-0.711,2.703-1.959,2.703h-0.911V76.191z M37.851,80.892c0.464,0,0.864-0.408,0.864-1.807v-0.192
		c0-1.399-0.4-1.807-0.864-1.807h-0.04v3.806H37.851z M40.188,76.191h2.143v0.927h-1.167v1.391h1.031v0.928h-1.031v1.423h1.191
		v0.928h-2.167V76.191z M42.652,79.085v-0.192c0-1.967,0.728-2.742,1.639-2.742c0.271,0,0.432,0.032,0.64,0.128v1.007
		c-0.2-0.12-0.36-0.184-0.544-0.184c-0.432,0-0.744,0.384-0.744,1.783v0.208c0,1.479,0.312,1.783,0.76,1.783
		c0.152,0,0.344-0.056,0.543-0.176v0.959c-0.224,0.128-0.439,0.168-0.72,0.168C43.331,81.827,42.652,81.036,42.652,79.085z
		 M45.436,76.191h0.976v2.342l0.792-2.342h1.104l-0.944,2.366l0.96,3.23h-1.088l-0.607-2.119l-0.216,0.616v1.503h-0.976V76.191z"/>
</g>
<g id="ENCORE_DECK_19_TOP">
	<path class="st8" d="M113.691,342.802v-73.208l13.692,0.166l0.07-90.873l6.014-6.452l0.008-10.216l-5.996-5.834l0.164-96.418
		l5.49-5.583V43.633l-5.465-5.669c0,0,0.021-16.959,0.021-17.679c0-5.778-1.6-8.619-8.924-11.721
		c-11.176-4.734-20.809-7.99-43.635-7.99h-0.336H74.51h-1.201h-0.285h-0.337c-22.825,0-32.458,3.256-43.635,7.99
		c-7.323,3.102-8.924,5.942-8.924,11.721c0,0.72,0.023,17.679,0.023,17.679l-5.466,5.669v10.751l5.49,5.583l0.165,134.165
		l-5.997,5.835l0.008,10.216l6.014,6.452l0.07,53.126l13.692-0.166v73.208H113.691z"/>
	<path class="st8" d="M68.48,539.538h-5.478c-4.971,0-7.999,2.719-7.999,7.192v62.072c13.098,0,28.431,0,37.852,0V546.73
		c0-4.474-3.028-7.192-7.999-7.192h-5.478H68.48z"/>
	<g id="gDeck19Locations">
		<rect id="_x31_9Aft" x="0.1" y="533.08" class="st3" width="149.536" height="251.24"/>
		<rect id="_x31_9Middle" x="0.1" y="234.13" class="st3" width="149.536" height="298.95"/>
		<rect id="_x31_9Forward" x="0.1" class="st3" width="149.536" height="234.13"/>
	</g>
</g>
</svg>
