<?xml version="1.0" encoding="utf-8"?>
<!-- Generator: Adobe Illustrator 23.0.2, SVG Export Plug-In . SVG Version: 6.00 Build 0)  -->
<svg version="1.1" id="ENCORE_DECK_20" xmlns="http://www.w3.org/2000/svg" xmlns:xlink="http://www.w3.org/1999/xlink" x="0px"
	 y="0px" width="188.563px" height="1195.44px" viewBox="0 0 188.563 1195.44" style="enable-background:new 0 0 188.563 1195.44;"
	 xml:space="preserve">
<style type="text/css">
	.Drop_x0020_Shadow{fill:none;}
	.Round_x0020_Corners_x0020_2_x0020_pt{fill:#FFFFFF;stroke:#000000;stroke-miterlimit:10;}
	.Live_x0020_Reflect_x0020_X{fill:none;}
	.Bevel_x0020_Soft{fill:url(#SVGID_1_);}
	.Dusk{fill:#FFFFFF;}
	.Foliage_GS{fill:#FFDD00;}
	.Pompadour_GS{fill-rule:evenodd;clip-rule:evenodd;fill:#44ADE2;}
	.New_x0020_Cabins_x0020_2019{fill:#EFF2F5;stroke:#FFFFFF;stroke-width:0.5;stroke-miterlimit:10;}
	.New_x0020_Cabins_x0020_2{fill:#EFF2F5;stroke:#FFFFFF;stroke-width:0.5;stroke-miterlimit:10;}
	.st0{fill:#FFFFFF;}
	.st1{fill:none;stroke:#D5DCE0;stroke-width:0.5;}
	.st2{fill:#DFEDF1;stroke:#CEDFE5;stroke-width:0.5;}
	.st3{fill:#6E8496;}
	.st4{fill:none;stroke:#076FA0;stroke-miterlimit:10;}
	.st5{fill:none;}
</style>
<linearGradient id="SVGID_1_" gradientUnits="userSpaceOnUse" x1="-505.0204" y1="242.8776" x2="-504.3133" y2="243.5847">
	<stop  offset="0" style="stop-color:#DEDFE3"/>
	<stop  offset="0.1738" style="stop-color:#D8D9DD"/>
	<stop  offset="0.352" style="stop-color:#C9CACD"/>
	<stop  offset="0.5323" style="stop-color:#B4B5B8"/>
	<stop  offset="0.7139" style="stop-color:#989A9C"/>
	<stop  offset="0.8949" style="stop-color:#797C7E"/>
	<stop  offset="1" style="stop-color:#656B6C"/>
</linearGradient>
<g id="ENCORE_DECK_20_BOTTOM">
	<path class="st0" d="M108.957,785.128h-5.478c-4.971,0-7.999,2.718-7.999,7.192v47.916c0,7.478,4.019,5.625,6.019,7.913
		l0.083,0.076c2.833,3.821,4.249,4.767,10.124,4.654h2.399c5.875,0.114,7.291-0.833,10.124-4.654l0.083-0.076
		c2-2.289,6.019-0.435,6.019-7.913V792.32c0-4.474-3.029-7.192-7.999-7.192h-5.478H108.957z"/>
	<rect x="81.813" y="413.211" class="st0" width="63" height="10.333"/>
	<path class="st0" d="M144.73,341.628l-0.125-19l-9.76,0v-54.24c0,0-7.274-4.663-21.041-4.663h-0.293
		c-13.767,0-21.041,4.663-21.041,4.663l0.107,53.997l-10,0.007v19.333L144.73,341.628z"/>
	<path class="st0" d="M95.677,571.096h35.41c0,0,0-0.718,0-5.106c0-6.195,5.606-10.418,10.949-10.418c0-2.027,0-6.381,0-6.381h3.96
		l0.025-36.389h-12.625l-0.083-5.591c0,0,0-46.167,0-51.167s-1.5-7.333-6.333-7.333s-36.167,0-41,0s-5,4.333-5,7.333
		s0,17.667,0,17.667l-5.737,0.042v6.232l5.516,0l-0.082,69.205h3.96c0,0,0,4.354,0,6.381c5.343,0,10.949,4.473,10.949,10.418
		c0,4.388,0,5.106,0,5.106h35.41"/>
	<line class="st1" x1="106.828" y1="777.392" x2="106.828" y2="755.628"/>
	<polyline class="st1" points="113.226,769.685 113.226,768.631 106.896,768.631 106.896,769.685 	"/>
	<rect x="106.896" y="767.589" class="st1" width="6.33" height="1.054"/>
	<rect x="106.896" y="766.499" class="st1" width="6.33" height="1.053"/>
	<rect x="106.896" y="764.264" class="st1" width="6.224" height="1.053"/>
	<polyline class="st1" points="113.226,764.219 113.226,763.166 106.896,763.166 106.896,764.219 	"/>
	<rect x="106.896" y="762.123" class="st1" width="6.33" height="1.054"/>
	<rect x="106.896" y="761.033" class="st1" width="6.33" height="1.053"/>
	<rect x="106.896" y="770.812" class="st1" width="6.33" height="1.053"/>
	<polyline class="st1" points="113.226,779.237 113.226,770.791 106.896,770.791 106.896,771.844 	"/>
	<rect x="106.896" y="769.748" class="st1" width="6.33" height="1.054"/>
	<rect x="106.896" y="774.23" class="st1" width="6.33" height="1.054"/>
	<rect x="106.896" y="773.141" class="st1" width="6.33" height="1.053"/>
	<polyline class="st1" points="121.965,766.81 121.965,765.903 116.063,765.903 116.063,766.81 	"/>
	<rect x="116.063" y="764.943" class="st1" width="5.902" height="0.971"/>
	<rect x="116.063" y="763.94" class="st1" width="5.902" height="0.97"/>
	<polygon class="st1" points="120.999,762.981 116.063,762.981 116.063,763.95 121.965,763.95 	"/>
	<polygon class="st1" points="120.018,761.978 116.063,761.978 116.063,762.948 120.989,762.948 	"/>
	<rect x="116.063" y="761.018" class="st1" width="2.815" height="0.97"/>
	<line class="st1" x1="118.905" y1="760.928" x2="121.97" y2="763.964"/>
	<rect x="113.224" y="761.121" class="st1" width="2.936" height="9.125"/>
	<polygon class="st1" points="76.17,477.274 79.965,477.286 79.968,478.211 76.173,478.199 	"/>
	<polygon class="st1" points="76.167,476.358 79.962,476.37 79.965,477.296 76.17,477.284 	"/>
	<polygon class="st1" points="76.164,475.402 79.959,475.414 79.962,476.339 76.167,476.326 	"/>
	<line class="st1" x1="79.959" y1="475.424" x2="76.164" y2="475.412"/>
	<polygon class="st1" points="76.16,474.412 79.956,474.424 79.959,475.349 76.163,475.337 	"/>
	<polygon class="st1" points="76.157,473.497 79.953,473.509 79.956,474.435 76.16,474.423 	"/>
	<polygon class="st1" points="76.154,472.54 79.95,470.177 79.953,473.477 76.157,473.465 	"/>
	<line class="st1" x1="79.95" y1="472.562" x2="76.154" y2="472.55"/>
	<line class="st1" x1="79.95" y1="471.635" x2="77.725" y2="471.622"/>
	<line class="st1" x1="79.919" y1="470.825" x2="78.912" y2="470.812"/>
	<polygon class="st1" points="134.199,508.047 134.187,511.843 133.262,511.846 133.274,508.05 	"/>
	<polygon class="st1" points="135.115,508.044 135.103,511.84 134.177,511.843 134.189,508.047 	"/>
	<polygon class="st1" points="136.071,508.041 136.059,511.837 135.134,511.84 135.146,508.044 	"/>
	<line class="st1" x1="136.049" y1="511.837" x2="136.061" y2="508.041"/>
	<polygon class="st1" points="137.06,508.038 137.048,511.834 136.123,511.837 136.135,508.041 	"/>
	<polygon class="st1" points="137.976,508.035 137.964,511.831 137.038,511.834 137.05,508.038 	"/>
	<polygon class="st1" points="138.933,508.032 141.296,511.828 137.996,511.831 138.008,508.035 	"/>
	<line class="st1" x1="138.91" y1="511.828" x2="138.922" y2="508.032"/>
	<line class="st1" x1="139.838" y1="511.828" x2="139.85" y2="509.602"/>
	<line class="st1" x1="140.648" y1="511.796" x2="140.66" y2="510.79"/>
	<path class="st1" d="M107.396,443.544c-5.818,0-13.515,0-19.333,0c-8.875,0-12.167,3-12.167,13.521"/>
	<polyline class="st1" points="75.896,453.336 81.146,453.419 81.146,452.711 76.146,452.003 76.48,450.586 81.146,451.961 
		81.48,451.044 76.896,449.044 77.646,447.711 82.23,450.711 82.73,449.878 78.646,446.711 79.855,445.586 83.021,449.628 
		83.771,449.128 81.146,444.836 82.48,444.294 84.23,449.044 85.063,448.711 84.063,443.794 85.813,443.794 85.688,448.586 
		86.73,448.711 86.813,443.461 	"/>
	<path class="st1" d="M107.396,443.544c5.818,0,13.265,0,19.083,0c8.875,0,12.167,3,12.167,13.521"/>
	<polyline class="st1" points="138.646,453.336 133.396,453.419 133.396,452.711 138.396,452.003 138.063,450.586 133.396,451.961 
		133.063,451.044 137.646,449.044 136.896,447.711 132.313,450.711 131.813,449.878 135.896,446.711 134.688,445.586 
		131.521,449.628 130.771,449.128 133.396,444.836 132.063,444.294 130.313,449.044 129.48,448.711 130.48,443.794 128.73,443.794 
		128.855,448.586 127.813,448.711 127.73,443.461 	"/>
	<polygon class="st1" points="122.021,777.731 115.48,777.731 115.48,781.253 106.646,781.253 100.48,777.966 100.48,755.544 
		122.021,755.544 	"/>
	<path class="st1" d="M75.243,473.753v6.232l5.516,0l-0.082,69.205h3.96c0,0,0,4.354,0,6.381c5.343,0,10.949,4.473,10.949,10.418
		c0,4.388,0,5.106,0,5.106h35.41"/>
	<path class="st1" d="M133.313,507.211c0,0,0-46.167,0-51.167s-1.5-7.333-6.333-7.333s-36.167,0-41,0s-5,4.333-5,7.333
		s0,17.667,0,17.667"/>
	<path class="st1" d="M95.677,571.096h35.41c0,0,0-0.718,0-5.106c0-6.195,5.606-10.418,10.949-10.418c0-2.027,0-6.381,0-6.381h3.96
		l0.025-36.389h-12.625"/>
	<path class="st2" d="M68.315,763.88c-5.283,0-16.114-0.288-22.879-7.034c-3.703-3.692-5.581-8.687-5.581-14.843v-30.648
		c-0.1-1.84-0.612-18.466,13.038-22.929c6.914-2.261,13.712-1.662,19.144,1.688c4.964,3.062,8.301,8.071,9.155,13.743
		c1.951,12.963-5.675,20.355-10.722,25.247l-0.547,0.531l-4.884-5.016l0.559-0.542c4.494-4.356,10.087-9.777,8.672-19.18
		c-0.539-3.577-2.747-6.877-5.908-8.827c-2.581-1.591-6.98-3.056-13.293-0.991c-8.948,2.924-8.229,15.81-8.221,15.939l0.008,0.233
		v30.75c0,4.288,1.153,7.521,3.523,9.886c5.042,5.028,14.585,5.015,18.659,4.99l0.567-0.001h30.5v7l-31.048,0.001
		C68.824,763.88,68.576,763.88,68.315,763.88z"/>
	<path class="st3" d="M56.128,701.655h1.039l1.063,5.613h-0.976l-0.184-1.111h-0.888l-0.176,1.111h-0.943L56.128,701.655z
		 M56.927,705.277l-0.296-1.847l-0.304,1.847H56.927z M60.655,706.997c-0.232,0.239-0.503,0.352-0.792,0.352
		c-0.919,0-1.511-0.888-1.511-2.734v-0.288c0-1.847,0.6-2.734,1.487-2.734c0.888,0,1.487,0.888,1.487,2.734v0.288
		c0,0.76-0.112,1.359-0.304,1.799l0.503,0.464l-0.488,0.52L60.655,706.997z M60.088,706.405l-0.48-0.472l0.456-0.504l0.231,0.248
		c0.024-0.265,0.04-0.608,0.04-1.063v-0.288c0-1.439-0.2-1.839-0.496-1.839s-0.496,0.399-0.496,1.839v0.288
		c0,1.566,0.208,1.854,0.567,1.854C59.976,706.468,60.031,706.453,60.088,706.405z M61.848,705.637v-3.966h0.967v4.062
		c0,0.504,0.176,0.703,0.424,0.703s0.424-0.199,0.424-0.703v-4.062h0.967v3.966c0,1.175-0.591,1.703-1.391,1.703
		C62.44,707.341,61.848,706.812,61.848,705.637z M65.936,701.655h1.04l1.063,5.613h-0.976l-0.184-1.111h-0.887l-0.176,1.111h-0.943
		L65.936,701.655z M66.735,705.277l-0.296-1.847l-0.304,1.847H66.735z M54.441,709.672h1.007c1,0,1.727,0.527,1.727,1.783v0.071
		c0,0.728-0.288,1.191-0.656,1.472l0.751,2.271h-1.039l-0.632-1.951h-0.184v1.951h-0.975V709.672z M55.464,712.438
		c0.423,0,0.735-0.248,0.735-0.904v-0.063c0-0.704-0.336-0.888-0.76-0.888h-0.024v1.855H55.464z M58.408,709.655h1.04l1.063,5.613
		h-0.976l-0.184-1.111h-0.887l-0.176,1.111h-0.943L58.408,709.655z M59.207,713.277l-0.295-1.847l-0.304,1.847H59.207z
		 M60.632,712.566v-0.192c0-1.967,0.728-2.742,1.639-2.742c0.271,0,0.432,0.032,0.64,0.128v1.007c-0.2-0.119-0.36-0.184-0.544-0.184
		c-0.432,0-0.744,0.384-0.744,1.783v0.208c0,1.479,0.312,1.783,0.76,1.783c0.152,0,0.344-0.057,0.543-0.177v0.96
		c-0.224,0.128-0.439,0.168-0.719,0.168C61.312,715.308,60.632,714.516,60.632,712.566z M63.416,709.672h2.143v0.927h-1.167v1.392
		h1.031v0.928h-1.031v1.423h1.191v0.928h-2.167V709.672z M66.056,709.672h1.007c1,0,1.727,0.527,1.727,1.783v0.071
		c0,0.728-0.288,1.191-0.656,1.472l0.752,2.271h-1.04l-0.632-1.951h-0.184v1.951h-0.975V709.672z M67.08,712.438
		c0.424,0,0.735-0.248,0.735-0.904v-0.063c0-0.704-0.335-0.888-0.759-0.888h-0.024v1.855H67.08z"/>
	<path class="st3" d="M93.966,530.333h0.991l0.528,3.646l0.528-3.646h0.959l-1,5.613h-1.008L93.966,530.333z M97.285,530.333h0.976
		v5.597h-0.976V530.333z M98.854,530.333h0.848c0.943,0,1.823,0.384,1.823,1.423v0.04c0,0.72-0.408,1.071-0.808,1.263
		c0.472,0.208,0.879,0.536,0.879,1.248v0.072c0,0.992-0.768,1.551-1.855,1.551h-0.887V530.333z M99.845,532.684
		c0.432,0,0.72-0.248,0.72-0.736v-0.016c0-0.488-0.288-0.696-0.72-0.696h-0.016v1.447H99.845z M99.853,535.027
		c0.448,0,0.768-0.264,0.768-0.728v-0.04c0-0.464-0.32-0.728-0.768-0.728h-0.024v1.496H99.853z M102.005,530.333h2.143v0.928h-1.167
		v1.391h1.031v0.928h-1.031v1.423h1.191v0.927h-2.167V530.333z M105.917,530.333h0.848c0.943,0,1.823,0.384,1.823,1.423v0.04
		c0,0.72-0.408,1.071-0.808,1.263c0.472,0.208,0.88,0.536,0.88,1.248v0.072c0,0.992-0.768,1.551-1.855,1.551h-0.888V530.333z
		 M106.909,532.684c0.432,0,0.72-0.248,0.72-0.736v-0.016c0-0.488-0.288-0.696-0.72-0.696h-0.016v1.447H106.909z M106.917,535.027
		c0.448,0,0.768-0.264,0.768-0.728v-0.04c0-0.464-0.32-0.728-0.768-0.728h-0.024v1.496H106.917z M109.069,530.333h2.143v0.928
		h-1.167v1.391h1.031v0.928h-1.031v1.423h1.191v0.927h-2.167V530.333z M112.493,530.317h1.039l1.063,5.613h-0.976l-0.184-1.111
		h-0.888l-0.176,1.111h-0.943L112.493,530.317z M113.292,533.939l-0.296-1.847l-0.304,1.847H113.292z M114.717,533.227v-0.192
		c0-1.967,0.728-2.742,1.64-2.742c0.271,0,0.432,0.032,0.64,0.128v1.007c-0.2-0.12-0.36-0.184-0.544-0.184
		c-0.432,0-0.743,0.384-0.743,1.783v0.208c0,1.479,0.312,1.783,0.759,1.783c0.152,0,0.344-0.056,0.544-0.176v0.959
		c-0.224,0.128-0.439,0.168-0.72,0.168C115.397,535.97,114.717,535.178,114.717,533.227z M117.501,530.333h0.976v2.319h0.848v-2.319
		h0.976v5.597h-0.976v-2.351h-0.848v2.351h-0.976V530.333z M122.053,533.227v-0.192c0-1.967,0.728-2.742,1.64-2.742
		c0.271,0,0.432,0.032,0.64,0.128v1.007c-0.2-0.12-0.36-0.184-0.544-0.184c-0.432,0-0.743,0.384-0.743,1.783v0.208
		c0,1.479,0.312,1.783,0.759,1.783c0.152,0,0.344-0.056,0.544-0.176v0.959c-0.224,0.128-0.439,0.168-0.72,0.168
		C122.733,535.97,122.053,535.178,122.053,533.227z M124.837,530.333h0.976v4.67h1.031v0.927h-2.007V530.333z M127.141,534.299
		v-3.966h0.968v4.062c0,0.504,0.176,0.704,0.424,0.704s0.424-0.2,0.424-0.704v-4.062h0.968v3.966c0,1.176-0.592,1.703-1.392,1.703
		C127.733,536.002,127.141,535.474,127.141,534.299z M130.485,530.333h0.847c0.944,0,1.823,0.384,1.823,1.423v0.04
		c0,0.72-0.407,1.071-0.808,1.263c0.472,0.208,0.88,0.536,0.88,1.248v0.072c0,0.992-0.768,1.551-1.855,1.551h-0.887V530.333z
		 M131.477,532.684c0.432,0,0.72-0.248,0.72-0.736v-0.016c0-0.488-0.288-0.696-0.72-0.696h-0.017v1.447H131.477z M131.484,535.027
		c0.447,0,0.768-0.264,0.768-0.728v-0.04c0-0.464-0.32-0.728-0.768-0.728h-0.024v1.496H131.484z"/>
</g>
<g id="ENCORE_DECK_20_TOP">
	<path class="st4" d="M75.243,473.753v6.232l5.516,0l-0.082,69.205h3.96c0,0,0,4.354,0,6.381c5.343,0,10.949,4.473,10.949,10.418
		c0,4.388,0,5.106,0,5.106h35.41"/>
	<path class="st4" d="M133.313,507.211c0,0,0-46.167,0-51.167s-1.5-7.333-6.333-7.333s-36.167,0-41,0s-5,4.333-5,7.333
		s0,17.667,0,17.667"/>
	<path class="st4" d="M95.677,571.096h35.41c0,0,0-0.718,0-5.106c0-6.195,5.606-10.418,10.949-10.418c0-2.027,0-6.381,0-6.381h3.96
		l0.025-36.389h-12.625"/>
	<path class="st4" d="M108.957,785.128h-5.478c-4.971,0-7.999,2.718-7.999,7.192v47.916c0,7.478,4.019,5.625,6.019,7.913
		l0.083,0.076c2.833,3.821,4.249,4.767,10.124,4.654h2.399c5.875,0.114,7.291-0.833,10.124-4.654l0.083-0.076
		c2-2.289,6.019-0.435,6.019-7.913V792.32c0-4.474-3.029-7.192-7.999-7.192h-5.478H108.957z"/>
	<path class="st4" d="M144.73,341.628l-0.125-19l-9.76,0v-54.24c0,0-7.274-4.663-21.041-4.663h-0.293
		c-13.767,0-21.041,4.663-21.041,4.663l0.107,53.997l-10,0.007v19.333L144.73,341.628z"/>
	<g id="gDeck20Locations">
		<rect id="_x32_0Aft" y="740.856" class="st5" width="188.563" height="454.585"/>
		<rect id="_x32_0Middle" y="441.906" class="st5" width="188.563" height="298.95"/>
		<rect id="_x32_0Forward" class="st5" width="188.563" height="441.906"/>
	</g>
</g>
</svg>
