<?xml version="1.0" encoding="utf-8"?>
<!-- Generator: Adobe Illustrator 23.0.4, SVG Export Plug-In . SVG Version: 6.00 Build 0)  -->
<svg version="1.1" id="SPIRIT_FMA_Profile" xmlns="http://www.w3.org/2000/svg" xmlns:xlink="http://www.w3.org/1999/xlink" x="0px"
	 y="0px" viewBox="0 0 271.1 87" style="enable-background:new 0 0 271.1 87;" xml:space="preserve">
<style type="text/css">
	.st0{fill:none;}
	.st1{fill:#B7DAEA;}
	.st2{fill:none;stroke:#D3DADF;stroke-width:0.521;stroke-miterlimit:10;}
	.st3{fill:#231F20;}
	.st4{font-family:'Futura-Medium';}
	.st5{font-size:9px;}
	.st6{fill:#0E84BD;}
	.st7{font-family:'Futura-Bold';}
	.st8{font-size:6.2515px;}
</style>
<g id="gSpiritForward">
	<g id="hSpiritForward">
		<rect id="back" x="177.5" class="st0" width="93.6" height="87"/>
		<polygon id="ship" class="st1" points="257.3,56.5 232.7,56.6 226.8,48.2 226.8,43.7 228.2,43.7 229.6,39.6 226,39.6 222.9,35.6 
			220.1,34.2 217.4,34.9 203.4,34.9 203.4,32.6 202.6,30.8 191.4,30.8 189.9,29.2 186.8,29.2 185.9,27.7 187,27.7 185.9,26.3 
			183.5,26.3 181.7,23.6 180.2,23.6 181.1,25.3 181.2,26.4 180.4,26.4 180.4,27.9 181.1,27.9 180.2,29.2 177.8,29.2 177.8,71.8 
			240.8,71.8 		"/>
		<rect id="check" x="177.5" y="83.9" class="st0" width="93.6" height="3.1"/>
		<rect id="border" x="177.5" class="st2" width="93.6" height="87"/>
		<text id="text" transform="matrix(1 0 0 1 193.5256 57.6582)" class="st3 st4 st5">+  $0</text>
		<text id="title" transform="matrix(1 0 0 1 204.5794 15.3081)" class="st6 st7 st8">FORWARD</text>
	</g>
</g>
<g id="gSpiritMidShip">
	<g id="hSpiritMidShip">
		<rect id="back_1_" x="97.5" class="st0" width="79.8" height="87"/>
		<path id="ship_1_" class="st1" d="M177.6,29.2v-0.3v-0.1v-1.7c-0.2-0.5-0.6-0.8-1.1-0.8c-0.7,0-1.3,0.7-1.3,1.6
			c0,0.4,0.1,0.7,0.3,1v0.2h-1.4v1.6l0,0v1.2l-1.7-1.1h-7.5l-2.8,3.5l-35.4-0.1l-8.5-4.2l-16.7-0.1l-3.6-4.2v46.1h79.8L177.6,29.2
			L177.6,29.2z M104.9,34.1l-2.9-3.4h15.9l6.8,3.4H104.9z"/>
		<rect id="check_1_" x="97.5" y="83.9" class="st0" width="79.8" height="3.1"/>
		<rect id="border_1_" x="97.5" class="st2" width="79.8" height="87"/>
		<text id="text_1_" transform="matrix(1 0 0 1 120.8011 57.6581)" class="st3 st4 st5">+  $15</text>
		<text id="title_1_" transform="matrix(1 0 0 1 122.1794 15.4385)" class="st6 st7 st8">MID-SHIP</text>
	</g>
</g>
<g id="gSpiritAft">
	<g id="hSpiritAft">
		<rect id="back_2_" class="st0" width="97.7" height="87"/>
		<path id="ship_2_" class="st1" d="M92.3,19.2h-0.2c0,0-0.5,0-1.4,0L90,17.8h-1.3l0.7,1.4c-0.3,0-0.5,0-0.8,0l-0.7-1.4h-1.3
			l0.7,1.4c-0.3,0-0.6,0-0.8,0l-0.7-1.4h-1.9l0.7,1.4c-0.3,0-0.5,0-0.8,0l-0.7-1.4h-1.9l0.7,1.4c-0.2,0-0.4,0-0.6,0h-0.6l0.2,0.5
			c2.7,6.1,0.7,10.2-0.3,11.6c-1.3,1.9-2.9,2.8-3.9,2.8c-2.9,0-10.3,0-10.3,0h-0.1l-4.2,2.5H41.3l-1.5,3.3h2.9l-1.2,1.2h-7.7
			l-2.6,2.7h4.4l-0.2,0.6h-7.5l-1,1.9h-7.8l-0.6,5h6.7l-0.7,2.4h-6.3v18.2H98V25.7L92.3,19.2z"/>
		<rect id="check_2_" y="83.9" class="st0" width="97.7" height="3.1"/>
		<rect id="border_2_" class="st2" width="97.7" height="87"/>
		<text id="text_2_" transform="matrix(1 0 0 1 49.5256 57.6582)" class="st3 st4 st5">+  $0</text>
		<text id="title_2_" transform="matrix(1 0 0 1 42.0667 15.4385)" class="st6 st7 st8">AFT</text>
	</g>
</g>
</svg>
