<?xml version="1.0" encoding="utf-8"?>
<!-- Generator: Adobe Illustrator 23.0.2, SVG Export Plug-In . SVG Version: 6.00 Build 0)  -->
<svg version="1.1" id="JADE_DECK_07" xmlns="http://www.w3.org/2000/svg" xmlns:xlink="http://www.w3.org/1999/xlink" x="0px"
	 y="0px" width="127.751px" height="1122.356px" viewBox="0 0 127.751 1122.356"
	 style="enable-background:new 0 0 127.751 1122.356;" xml:space="preserve">
<style type="text/css">
	.New_x0020_Cabins_x0020_2019{fill:#EFF2F5;stroke:#FFFFFF;stroke-width:0.5;stroke-miterlimit:10;}
	.st0{fill:#FFFFFF;}
	.st1{fill:none;stroke:#D5DCE0;stroke-width:0.5;}
	.st2{fill:#6E8496;}
	.st3{fill:none;stroke:#076FA0;stroke-miterlimit:10;}
	.st4{fill:none;}
</style>
<g id="JADE_DECK_07_BOTTOM">
	<path class="st0" d="M127.251,236.627c0,0-0.203-32.547-0.551-36.432c-0.127-1.437-0.229-16.152-1.449-28.511
		c0,0-6.594-56.271-9.576-66.758c-5.672-19.94-7.934-34.2-30.918-73.872c0,0-16.427-28.454-19.71-30.096
		c-0.293-0.243-0.596-0.391-0.904-0.459h-0.547c-0.31,0.068-0.612,0.216-0.904,0.459c-3.283,1.642-19.699,30.096-19.699,30.096
		c-22.982,39.672-24.947,53.638-30.916,73.872c-3.085,10.457-9.576,66.758-9.576,66.758c-1.222,12.359-1.322,27.075-1.45,28.511
		C0.703,204.081,0.5,236.627,0.5,236.627s0.001,15.092,0.003,41.192c-0.002,0.296-0.003,0.469-0.003,0.469
		s0.051,804.927,0.229,825.142c5.162,14.605,37.443,17.768,53.778,18.426l20.562-0.082c16.803-0.82,46.977-4.266,51.953-18.344
		c0.178-20.215,0.229-825.142,0.229-825.142s-0.001-0.173-0.003-0.469C127.25,251.719,127.251,236.627,127.251,236.627z"/>
	<polygon class="st1" points="44.845,312.157 44.845,303.311 54.929,303.311 54.929,312.157 44.845,312.157 	"/>
	<polygon class="st1" points="54.93,312.157 54.93,303.311 64.957,303.311 64.957,312.157 54.93,312.157 	"/>
	<polygon class="st1" points="64.957,312.157 64.957,303.311 75.042,303.311 75.042,312.157 64.957,312.157 	"/>
	<polygon class="st1" points="75.043,312.157 75.043,303.311 85.071,303.311 85.071,312.157 75.043,312.157 	"/>
	<path class="st1" d="M119.205,184.848h-8.804l-12.1,18.874l1.937,5.324l-11.546,4.217l2.834,23.368c0,0-11.33,2.386-21.78,2.556
		c-2.022,0.345-10.62,0-10.62,0c-9.203-0.197-21.78-2.556-21.78-2.556l2.834-23.368l-11.546-4.217l1.937-5.324l-12.1-18.874H8.869"
		/>
	<polygon class="st1" points="61.553,300.936 61.553,292.09 71.638,292.09 71.638,300.936 61.553,300.936 	"/>
	<polygon class="st1" points="71.639,300.936 71.639,292.09 81.666,292.09 81.666,300.936 71.639,300.936 	"/>
	<line class="st1" x1="105.798" y1="341.618" x2="22.638" y2="341.618"/>
	<line class="st1" x1="22.553" y1="312.189" x2="105.267" y2="312.189"/>
	<line class="st1" x1="22.553" y1="266.88" x2="105.267" y2="266.88"/>
	<rect x="50.901" y="286.342" class="st1" width="4.958" height="8.922"/>
	<line class="st1" x1="50.859" y1="288.543" x2="55.68" y2="288.543"/>
	<line class="st1" x1="50.859" y1="290.805" x2="55.68" y2="290.805"/>
	<line class="st1" x1="50.859" y1="293.067" x2="55.68" y2="293.067"/>
	<rect x="55.987" y="288.454" class="st1" width="4.958" height="8.922"/>
	<line class="st1" x1="55.945" y1="290.655" x2="60.766" y2="290.655"/>
	<line class="st1" x1="55.945" y1="292.917" x2="60.766" y2="292.917"/>
	<line class="st1" x1="55.945" y1="295.179" x2="60.766" y2="295.179"/>
	<path class="st1" d="M101.198,151.786h-8.858c0,0-2.589-0.144-3.596,1.294c-0.929,1.326-10.781,9.01-20.993,9.299l-4.32,0.004
		c-10.265-0.218-20.21-7.97-21.143-9.303c-1.007-1.438-3.596-1.294-3.596-1.294h-8.198v-10.665h6.7v-15.779h57.141v16.019h6.934
		L101.198,151.786z"/>
	<line class="st1" x1="45.057" y1="303.547" x2="54.739" y2="311.916"/>
	<line class="st1" x1="45.057" y1="312.013" x2="54.753" y2="303.504"/>
	<line class="st1" x1="55.335" y1="303.86" x2="64.761" y2="312.061"/>
	<line class="st1" x1="55.128" y1="312.11" x2="64.753" y2="303.504"/>
	<line class="st1" x1="61.955" y1="292.374" x2="71.339" y2="300.513"/>
	<line class="st1" x1="61.955" y1="300.645" x2="71.315" y2="292.233"/>
	<line class="st1" x1="71.897" y1="292.59" x2="81.515" y2="300.84"/>
	<line class="st1" x1="71.785" y1="300.694" x2="81.315" y2="292.233"/>
	<line class="st1" x1="65.585" y1="303.645" x2="74.969" y2="311.784"/>
	<line class="st1" x1="65.585" y1="311.917" x2="74.945" y2="303.504"/>
	<line class="st1" x1="75.527" y1="303.861" x2="85.145" y2="312.111"/>
	<line class="st1" x1="75.414" y1="311.965" x2="84.945" y2="303.504"/>
	<line class="st1" x1="81.853" y1="323.847" x2="81.853" y2="341.43"/>
	<polyline class="st1" points="46.844,324.181 36.047,324.181 36.047,341.374 93.093,341.374 93.093,324.181 81.614,324.181 	"/>
	<line class="st1" x1="46.814" y1="323.847" x2="46.814" y2="341.258"/>
	<path class="st1" d="M73.488,325.485c-0.382,0-0.689,0.231-0.689,0.522"/>
	<line class="st1" x1="81.827" y1="325.485" x2="73.488" y2="325.485"/>
	<line class="st1" x1="72.799" y1="326.007" x2="72.799" y2="328.031"/>
	<line class="st1" x1="72.799" y1="328.031" x2="56.405" y2="328.031"/>
	<path class="st1" d="M56.405,326.007c0-0.29-0.303-0.522-0.684-0.522"/>
	<line class="st1" x1="56.405" y1="328.031" x2="56.405" y2="326.007"/>
	<line class="st1" x1="55.722" y1="325.485" x2="47.331" y2="325.485"/>
	<line class="st1" x1="64.788" y1="337.961" x2="64.788" y2="325.298"/>
	<line class="st1" x1="64.453" y1="337.961" x2="64.453" y2="325.298"/>
	<line class="st1" x1="81.439" y1="337.313" x2="64.788" y2="337.313"/>
	<line class="st1" x1="64.788" y1="325.298" x2="64.453" y2="325.298"/>
	<line class="st1" x1="64.788" y1="337.961" x2="64.453" y2="337.961"/>
	<line class="st1" x1="64.453" y1="337.313" x2="47.202" y2="337.313"/>
	<line class="st1" x1="64.453" y1="335.973" x2="57.116" y2="335.973"/>
	<line class="st1" x1="64.453" y1="334.631" x2="57.116" y2="334.631"/>
	<line class="st1" x1="64.453" y1="333.288" x2="57.116" y2="333.288"/>
	<line class="st1" x1="64.453" y1="331.945" x2="57.116" y2="331.945"/>
	<line class="st1" x1="64.453" y1="330.603" x2="57.116" y2="330.603"/>
	<line class="st1" x1="64.453" y1="329.26" x2="57.116" y2="329.26"/>
	<line class="st1" x1="64.453" y1="326.577" x2="56.452" y2="326.577"/>
	<line class="st1" x1="72.124" y1="335.973" x2="64.788" y2="335.973"/>
	<line class="st1" x1="72.124" y1="334.631" x2="64.788" y2="334.631"/>
	<line class="st1" x1="72.124" y1="333.288" x2="64.788" y2="333.288"/>
	<line class="st1" x1="72.124" y1="331.945" x2="64.788" y2="331.945"/>
	<line class="st1" x1="72.124" y1="330.603" x2="64.788" y2="330.603"/>
	<line class="st1" x1="72.124" y1="329.26" x2="64.788" y2="329.26"/>
	<line class="st1" x1="72.849" y1="326.577" x2="64.788" y2="326.577"/>
	<line class="st1" x1="47.141" y1="326.806" x2="55.781" y2="326.806"/>
	<line class="st1" x1="47.258" y1="328.131" x2="56.687" y2="328.131"/>
	<line class="st1" x1="47.083" y1="329.451" x2="55.781" y2="329.451"/>
	<line class="st1" x1="47.258" y1="330.774" x2="55.747" y2="330.774"/>
	<line class="st1" x1="72.777" y1="326.806" x2="81.673" y2="326.806"/>
	<line class="st1" x1="72.72" y1="328.131" x2="81.734" y2="328.131"/>
	<line class="st1" x1="73.457" y1="329.451" x2="81.792" y2="329.451"/>
	<line class="st1" x1="73.457" y1="330.774" x2="81.734" y2="330.774"/>
	<path class="st1" d="M55.667,338.113c0,0.278,0.299,0.506,0.667,0.506c0.37,0,0.667-0.228,0.667-0.506l0,0"/>
	<line class="st1" x1="57.002" y1="338.113" x2="57.002" y2="337.961"/>
	<line class="st1" x1="55.667" y1="338.113" x2="55.667" y2="337.961"/>
	<path class="st1" d="M72.124,338.113c0,0.278,0.298,0.506,0.663,0.506c0.371,0,0.67-0.228,0.67-0.506l0,0"/>
	<line class="st1" x1="73.457" y1="338.113" x2="73.457" y2="337.961"/>
	<line class="st1" x1="72.124" y1="338.113" x2="72.124" y2="337.961"/>
	<line class="st1" x1="56.343" y1="337.961" x2="56.343" y2="328.158"/>
	<line class="st1" x1="47.318" y1="333.42" x2="55.781" y2="333.42"/>
	<line class="st1" x1="47.318" y1="334.74" x2="55.781" y2="334.74"/>
	<line class="st1" x1="47.376" y1="336.064" x2="55.781" y2="336.064"/>
	<line class="st1" x1="47.258" y1="332.095" x2="55.781" y2="332.095"/>
	<line class="st1" x1="72.779" y1="337.961" x2="72.779" y2="327.979"/>
	<line class="st1" x1="73.457" y1="333.42" x2="81.673" y2="333.42"/>
	<line class="st1" x1="73.457" y1="334.74" x2="81.616" y2="334.74"/>
	<line class="st1" x1="73.457" y1="336.064" x2="81.557" y2="336.064"/>
	<line class="st1" x1="73.365" y1="332.095" x2="81.853" y2="332.095"/>
	<rect x="109.681" y="356.765" class="st1" width="17.553" height="33.178"/>
	<path class="st1" d="M122.459,385.775c0,0,1.055,0.188,3.002-3.101v-17.14l-2.692-3.702c0,0-0.879-0.901-2.367-0.901
		c-1.492,0-2.396,0-3.888,0c-1.489,0-2.369,0.901-2.369,0.901l-2.69,3.702v17.14c1.947,3.289,3.001,3.101,3.001,3.101H122.459z"/>
	<rect x="0.542" y="356.765" class="st1" width="17.553" height="33.178"/>
	<path class="st1" d="M13.32,385.775c0,0,1.055,0.188,3.002-3.101v-17.14l-2.692-3.702c0,0-0.879-0.901-2.367-0.901
		c-1.492,0-2.397,0-3.888,0c-1.489,0-2.369,0.901-2.369,0.901l-2.69,3.702v17.14c1.947,3.289,3.001,3.101,3.001,3.101H13.32z"/>
	<line class="st1" x1="105.798" y1="368.048" x2="22.355" y2="368.048"/>
	<line class="st1" x1="65.397" y1="940.929" x2="74.781" y2="949.067"/>
	<line class="st1" x1="45.06" y1="940.831" x2="54.742" y2="949.2"/>
	<line class="st1" x1="45.06" y1="949.297" x2="54.756" y2="940.788"/>
	<line class="st1" x1="55.338" y1="941.144" x2="64.764" y2="949.346"/>
	<line class="st1" x1="55.131" y1="949.394" x2="64.756" y2="940.788"/>
	<line class="st1" x1="65.397" y1="949.2" x2="74.756" y2="940.788"/>
	<line class="st1" x1="75.338" y1="941.144" x2="84.957" y2="949.394"/>
	<line class="st1" x1="75.226" y1="949.249" x2="84.756" y2="940.788"/>
	<line class="st1" x1="65.397" y1="688.732" x2="74.781" y2="696.871"/>
	<line class="st1" x1="45.06" y1="688.635" x2="54.742" y2="697.004"/>
	<line class="st1" x1="45.06" y1="697.101" x2="54.756" y2="688.592"/>
	<line class="st1" x1="55.338" y1="688.948" x2="64.764" y2="697.149"/>
	<line class="st1" x1="55.131" y1="697.198" x2="64.756" y2="688.592"/>
	<line class="st1" x1="65.397" y1="697.004" x2="74.756" y2="688.592"/>
	<line class="st1" x1="75.338" y1="688.948" x2="84.957" y2="697.198"/>
	<line class="st1" x1="75.226" y1="697.053" x2="84.756" y2="688.592"/>
	<line class="st1" x1="59.895" y1="469.462" x2="69.954" y2="478.328"/>
	<line class="st1" x1="60.272" y1="478.425" x2="69.968" y2="469.916"/>
	<line class="st1" x1="69.98" y1="469.462" x2="79.976" y2="478.474"/>
	<line class="st1" x1="70.343" y1="478.522" x2="79.968" y2="469.916"/>
	<path class="st1" d="M73.314,656.588c-0.383,0-0.692,0.231-0.692,0.523"/>
	<line class="st1" x1="81.692" y1="656.588" x2="73.314" y2="656.588"/>
	<line class="st1" x1="72.621" y1="657.111" x2="72.621" y2="659.141"/>
	<line class="st1" x1="72.621" y1="659.141" x2="56.152" y2="659.141"/>
	<path class="st1" d="M56.152,657.111c0-0.292-0.305-0.523-0.688-0.523"/>
	<line class="st1" x1="56.152" y1="659.141" x2="56.152" y2="657.111"/>
	<line class="st1" x1="55.465" y1="656.588" x2="47.036" y2="656.588"/>
	<line class="st1" x1="64.573" y1="669.099" x2="64.573" y2="656.4"/>
	<line class="st1" x1="64.237" y1="669.099" x2="64.237" y2="656.4"/>
	<line class="st1" x1="81.301" y1="668.449" x2="64.573" y2="668.449"/>
	<line class="st1" x1="64.573" y1="656.4" x2="64.237" y2="656.4"/>
	<line class="st1" x1="64.573" y1="669.099" x2="64.237" y2="669.099"/>
	<line class="st1" x1="64.237" y1="668.449" x2="46.905" y2="668.449"/>
	<line class="st1" x1="64.237" y1="667.105" x2="56.866" y2="667.105"/>
	<line class="st1" x1="64.237" y1="665.759" x2="56.866" y2="665.759"/>
	<line class="st1" x1="64.237" y1="664.412" x2="56.866" y2="664.412"/>
	<line class="st1" x1="64.237" y1="663.066" x2="56.866" y2="663.066"/>
	<line class="st1" x1="64.237" y1="661.72" x2="56.866" y2="661.72"/>
	<line class="st1" x1="64.237" y1="660.374" x2="56.866" y2="660.374"/>
	<line class="st1" x1="64.237" y1="657.683" x2="56.198" y2="657.683"/>
	<line class="st1" x1="71.944" y1="667.105" x2="64.573" y2="667.105"/>
	<line class="st1" x1="71.944" y1="665.759" x2="64.573" y2="665.759"/>
	<line class="st1" x1="71.944" y1="664.412" x2="64.573" y2="664.412"/>
	<line class="st1" x1="71.944" y1="663.066" x2="64.573" y2="663.066"/>
	<line class="st1" x1="71.944" y1="661.72" x2="64.573" y2="661.72"/>
	<line class="st1" x1="71.944" y1="660.374" x2="64.573" y2="660.374"/>
	<line class="st1" x1="72.673" y1="657.683" x2="64.573" y2="657.683"/>
	<line class="st1" x1="46.844" y1="657.913" x2="55.525" y2="657.913"/>
	<line class="st1" x1="46.962" y1="659.241" x2="56.435" y2="659.241"/>
	<line class="st1" x1="46.786" y1="660.564" x2="55.525" y2="660.564"/>
	<line class="st1" x1="46.962" y1="661.892" x2="55.49" y2="661.892"/>
	<line class="st1" x1="72.601" y1="657.913" x2="81.538" y2="657.913"/>
	<line class="st1" x1="72.542" y1="659.241" x2="81.598" y2="659.241"/>
	<line class="st1" x1="73.284" y1="660.564" x2="81.657" y2="660.564"/>
	<line class="st1" x1="73.284" y1="661.892" x2="81.598" y2="661.892"/>
	<path class="st1" d="M55.411,669.251c0,0.279,0.301,0.508,0.67,0.508c0.371,0,0.67-0.229,0.67-0.508l0,0"/>
	<line class="st1" x1="56.751" y1="669.251" x2="56.751" y2="669.099"/>
	<line class="st1" x1="55.411" y1="669.251" x2="55.411" y2="669.099"/>
	<path class="st1" d="M71.944,669.251c0,0.279,0.299,0.508,0.666,0.508c0.373,0,0.674-0.229,0.674-0.508l0,0"/>
	<line class="st1" x1="73.284" y1="669.251" x2="73.284" y2="669.099"/>
	<line class="st1" x1="71.944" y1="669.251" x2="71.944" y2="669.099"/>
	<line class="st1" x1="56.09" y1="669.099" x2="56.09" y2="659.268"/>
	<line class="st1" x1="47.023" y1="664.545" x2="55.525" y2="664.545"/>
	<line class="st1" x1="47.023" y1="665.868" x2="55.525" y2="665.868"/>
	<line class="st1" x1="47.081" y1="667.197" x2="55.525" y2="667.197"/>
	<line class="st1" x1="46.962" y1="663.217" x2="55.525" y2="663.217"/>
	<line class="st1" x1="72.603" y1="669.099" x2="72.603" y2="659.09"/>
	<line class="st1" x1="73.284" y1="664.545" x2="81.538" y2="664.545"/>
	<line class="st1" x1="73.284" y1="665.868" x2="81.481" y2="665.868"/>
	<line class="st1" x1="73.284" y1="667.197" x2="81.422" y2="667.197"/>
	<line class="st1" x1="73.19" y1="663.217" x2="81.719" y2="663.217"/>
	<path class="st1" d="M73.052,962.984c-0.351,0-0.634,0.255-0.634,0.576"/>
	<line class="st1" x1="80.733" y1="962.984" x2="73.052" y2="962.984"/>
	<line class="st1" x1="72.419" y1="963.56" x2="72.419" y2="965.798"/>
	<line class="st1" x1="72.419" y1="965.798" x2="57.321" y2="965.798"/>
	<path class="st1" d="M57.321,963.56c0-0.321-0.279-0.576-0.63-0.576"/>
	<line class="st1" x1="57.321" y1="965.798" x2="57.321" y2="963.56"/>
	<line class="st1" x1="56.691" y1="962.984" x2="48.963" y2="962.984"/>
	<line class="st1" x1="65.04" y1="976.774" x2="65.04" y2="962.777"/>
	<line class="st1" x1="64.732" y1="976.774" x2="64.732" y2="962.777"/>
	<line class="st1" x1="80.376" y1="976.059" x2="65.04" y2="976.059"/>
	<line class="st1" x1="65.04" y1="962.777" x2="64.732" y2="962.777"/>
	<line class="st1" x1="65.04" y1="976.774" x2="64.732" y2="976.774"/>
	<line class="st1" x1="64.732" y1="976.059" x2="48.843" y2="976.059"/>
	<line class="st1" x1="64.732" y1="974.577" x2="57.975" y2="974.577"/>
	<line class="st1" x1="64.732" y1="973.093" x2="57.975" y2="973.093"/>
	<line class="st1" x1="64.732" y1="971.608" x2="57.975" y2="971.608"/>
	<line class="st1" x1="64.732" y1="970.125" x2="57.975" y2="970.125"/>
	<line class="st1" x1="64.732" y1="968.641" x2="57.975" y2="968.641"/>
	<line class="st1" x1="64.732" y1="967.157" x2="57.975" y2="967.157"/>
	<line class="st1" x1="64.732" y1="964.19" x2="57.362" y2="964.19"/>
	<line class="st1" x1="71.797" y1="974.577" x2="65.04" y2="974.577"/>
	<line class="st1" x1="71.797" y1="973.093" x2="65.04" y2="973.093"/>
	<line class="st1" x1="71.797" y1="971.608" x2="65.04" y2="971.608"/>
	<line class="st1" x1="71.797" y1="970.125" x2="65.04" y2="970.125"/>
	<line class="st1" x1="71.797" y1="968.641" x2="65.04" y2="968.641"/>
	<line class="st1" x1="71.797" y1="967.157" x2="65.04" y2="967.157"/>
	<line class="st1" x1="72.465" y1="964.19" x2="65.04" y2="964.19"/>
	<line class="st1" x1="48.788" y1="964.444" x2="56.746" y2="964.444"/>
	<line class="st1" x1="48.896" y1="965.909" x2="57.58" y2="965.909"/>
	<line class="st1" x1="48.734" y1="967.367" x2="56.746" y2="967.367"/>
	<line class="st1" x1="48.896" y1="968.83" x2="56.713" y2="968.83"/>
	<line class="st1" x1="72.399" y1="964.444" x2="80.591" y2="964.444"/>
	<line class="st1" x1="72.345" y1="965.909" x2="80.647" y2="965.909"/>
	<line class="st1" x1="73.025" y1="967.367" x2="80.701" y2="967.367"/>
	<line class="st1" x1="73.025" y1="968.83" x2="80.647" y2="968.83"/>
	<path class="st1" d="M56.641,976.942c0,0.308,0.276,0.56,0.614,0.56c0.34,0,0.614-0.252,0.614-0.56l0,0"/>
	<line class="st1" x1="57.869" y1="976.942" x2="57.869" y2="976.774"/>
	<line class="st1" x1="56.641" y1="976.942" x2="56.641" y2="976.774"/>
	<path class="st1" d="M71.797,976.942c0,0.308,0.274,0.56,0.611,0.56c0.342,0,0.618-0.252,0.618-0.56l0,0"/>
	<line class="st1" x1="73.025" y1="976.942" x2="73.025" y2="976.774"/>
	<line class="st1" x1="71.797" y1="976.942" x2="71.797" y2="976.774"/>
	<line class="st1" x1="57.264" y1="976.774" x2="57.264" y2="965.938"/>
	<line class="st1" x1="48.951" y1="971.755" x2="56.746" y2="971.755"/>
	<line class="st1" x1="48.951" y1="973.214" x2="56.746" y2="973.214"/>
	<line class="st1" x1="49.004" y1="974.679" x2="56.746" y2="974.679"/>
	<line class="st1" x1="48.896" y1="970.291" x2="56.746" y2="970.291"/>
	<line class="st1" x1="72.4" y1="976.774" x2="72.4" y2="965.742"/>
	<line class="st1" x1="73.025" y1="971.755" x2="80.591" y2="971.755"/>
	<line class="st1" x1="73.025" y1="973.214" x2="80.54" y2="973.214"/>
	<line class="st1" x1="73.025" y1="974.679" x2="80.486" y2="974.679"/>
	<line class="st1" x1="72.94" y1="970.291" x2="80.758" y2="970.291"/>
	<path class="st1" d="M83.71,1115.199c11.432-1.258,22.525-3.6,22.525-3.6l-0.043-66.566h10.662v-68.947
		c0,0-0.406-13.217-11.134-13.535l-0.681-21.854l11.716-11.709v-77.365l-11.752-11.018v-44.182h3.521l4.801-5.1h2.101V725.31h-1.95
		l-5.551-5.551h-2.852V566.125v-45.159l0.149,0.021l3.001-1.52l-0.15-6.601l-2.851-1.631v-1.501l2.852-1.368v-6.151l-2.852-1.932
		v-1.2l3.151-1.969v-5.701l-3.151-1.631v-1.952l3.602-1.669v-6.301l-3.602-1.481V266.835l13.956-13.221l-0.15-78.466
		c0,0-1.499-42.458-6.601-50.56c-5.102-8.102-10.653-9.902-16.204-9.902c-5.551,0-30.307,0-30.307,0h-6.601c0,0-22.354,0-27.905,0
		s-11.102,1.8-16.204,9.902c-5.101,8.102-6.601,50.56-6.601,50.56l-0.15,78.466l13.956,13.221v211.544l-3.602,1.481v6.301
		l3.602,1.669v1.952l-3.151,1.631v5.701l3.151,1.969v1.2l-2.852,1.932v6.151l2.852,1.368v1.501l-2.851,1.631l-0.15,6.601l3.001,1.52
		v1.2l-3.001,1.781v6.151l3.001,1.969v1.35l-3.001,1.782v6.001l3.001,1.518v1.201l-2.851,1.932v6.001l3,1.97v1.33l-3.001,1.801v6.3
		l3.001,1.801V719.76H19.71l-5.551,5.551h-1.95v66.014h2.101l4.801,5.1h3.521v44.182l-11.752,11.018v77.365l11.716,11.709
		l-0.681,21.854c-10.728,0.318-11.134,13.535-11.134,13.535v68.947h12.493v66.566c0,0,12.723,2.424,24.633,3.717
		C47.906,1115.316,63.301,1117.047,83.71,1115.199z"/>
	<polygon class="st1" points="44.752,697.167 44.752,688.321 54.836,688.321 54.836,697.167 44.752,697.167 	"/>
	<polygon class="st1" points="54.836,697.167 54.836,688.321 64.864,688.321 64.864,697.167 54.836,697.167 	"/>
	<polygon class="st1" points="64.864,697.167 64.864,688.321 74.949,688.321 74.949,697.167 64.864,697.167 	"/>
	<polygon class="st1" points="74.95,697.167 74.95,688.321 84.977,688.321 84.977,697.167 74.95,697.167 	"/>
	<polygon class="st1" points="44.6,949.418 44.6,940.572 54.684,940.572 54.684,949.418 44.6,949.418 	"/>
	<polygon class="st1" points="54.685,949.418 54.685,940.572 64.712,940.572 64.712,949.418 54.685,949.418 	"/>
	<polygon class="st1" points="64.712,949.418 64.712,940.572 74.797,940.572 74.797,949.418 64.712,949.418 	"/>
	<polygon class="st1" points="74.798,949.418 74.798,940.572 84.826,940.572 84.826,949.418 74.798,949.418 	"/>
	<path class="st1" d="M67.429,736.913c2.078-0.203,4.439-0.711,6.948-1.687c2.494-1.129,2.969,0.771,2.969,0.771
		s1.307,2.435,3.504,3.385c0,0-0.237,6.295,3.028,10.69c0,0-3.027,7.068-0.475,11.818c0.474,0.831,0.474,2.732,0.474,2.732
		s-0.831,12.411-14.262,15.995c-3.87,1.387-9.12,0.088-9.12,0.088c-13.415-2.703-14.681-16.083-14.681-16.083s0-1.9,0.474-2.732
		c2.553-4.75-0.475-11.818-0.475-11.818c3.266-4.395,3.028-10.69,3.028-10.69c2.197-0.95,3.504-3.385,3.504-3.385
		s0.475-1.9,2.969-0.771c2.826,1.099,5.636,1.567,7.656,1.765C62.971,736.991,66.242,737.126,67.429,736.913z"/>
	<circle class="st1" cx="87.734" cy="711.487" r="1.109"/>
	<path class="st1" d="M87.003,711.47c0,0-14.392-2.061-17.118-2.655"/>
	<path class="st1" d="M69.221,714.893c0,0,7.965,1.467,15.127,7.057"/>
	<path class="st1" d="M85.537,711.4c0,0-0.176,5.484-1.922,9.991"/>
	<path class="st1" d="M83.715,711.156c0,0-0.156,4.866-1.634,9.198"/>
	<path class="st1" d="M81.895,710.912c0,0-0.139,4.341-1.399,8.472"/>
	<path class="st1" d="M80.074,710.458c0,0-0.129,4.032-1.267,8.022"/>
	<path class="st1" d="M78.253,710.179c0,0-0.119,3.726-1.139,7.56"/>
	<path class="st1" d="M76.431,709.935c0,0-0.109,3.406-1.01,7.056"/>
	<path class="st1" d="M74.61,709.795c0,0-0.098,3.043-0.869,6.458"/>
	<path class="st1" d="M72.79,709.48c0,0-0.093,2.903-0.816,6.221"/>
	<path class="st1" d="M70.968,709.271c0,0-0.086,2.696-0.74,5.861"/>
	<path class="st1" d="M64.65,811.591c8.75,0.25,16-2.667,16-2.667l1.5,3.334l3.917-1.584l-1.5-4.083
		c1.333-0.583,3.833-0.833,5.583-1.083c-0.417-5.083-3.824-7.916-3.824-7.916l1.094-1.094c0,0,1.312,1.354,2.562,3.438
		c2.094,3.531,1.919,10.155,1.919,10.155h3.166c0.416-3.5-0.333-9.917-2.916-12.917c-1.083-1.416-3.084-4.583-3.084-4.583
		s-4.833-6.25,0.417-17.167c4.417-11.583-1.583-25.75-1.583-25.75c-2.25-7.167,0.666-14.083,0.666-14.083s2.417-3.417,1.583-9.25
		c-1.5-6.583-5.25-6.167-5.25-6.167s-5.084-0.082-5.75,2.334c-0.666,2.416,1.167,5.333,1.167,5.333s0.916,3.167,0.583,4.667
		c0.584,2.666,2.75,3.834,5.25,3.25c2.5-0.584,3.417-6.834,2.667-9.584s-3.167-5.416-3.917-4.166s1.084,3.5,1.084,3.5
		s1.499,4.084,0.916,5.75c-0.583,1.666-3.749,2.667-3.916-1c-0.167-3.667-1.551-4.382-1.834-4.834c-1.25-2,1.115-5.195,3.808-1.348"
		/>
	<path class="st1" d="M84.234,722.234c0,0.612,0.497,1.109,1.109,1.109s1.109-0.497,1.109-1.109s-0.497-1.109-1.109-1.109
		S84.234,721.622,84.234,722.234z"/>
	<line class="st1" x1="22.605" y1="864.132" x2="10.747" y2="864.132"/>
	<polygon class="st1" points="26.574,840.798 34.6,840.798 43.508,840.575 43.41,865.64 43.597,914.137 43.771,940.392 
		34.6,940.652 26.748,940.652 	"/>
	<polygon class="st1" points="102.089,840.798 94.063,840.798 85.155,840.575 85.253,865.64 85.066,914.137 84.892,940.392 
		94.063,940.652 101.916,940.652 	"/>
	<line class="st1" x1="22.605" y1="839.126" x2="22.605" y2="942.264"/>
	<polygon class="st1" points="59.895,478.308 59.895,469.462 69.98,469.462 69.98,478.308 59.895,478.308 	"/>
	<polygon class="st1" points="69.981,478.308 69.981,469.462 80.008,469.462 80.008,478.308 69.981,478.308 	"/>
	<rect x="80.535" y="463.796" class="st1" width="14.338" height="14.568"/>
	<line class="st1" x1="80.841" y1="471.08" x2="94.719" y2="471.08"/>
	<polygon class="st1" points="52.023,579.208 93.978,579.208 93.978,559.542 89.483,554.672 52.397,554.672 	"/>
	<line class="st1" x1="94.043" y1="655.344" x2="94.043" y2="578.643"/>
	<line class="st1" x1="52.023" y1="566.659" x2="22.433" y2="566.659"/>
	<polygon class="st1" points="58.58,507.281 95.852,507.281 95.852,542.869 84.614,545.116 84.614,554.481 58.58,554.481 	"/>
	<path class="st1" d="M22.992,797.037c1.124,0.375,2.622-0.375,3.184-0.937c0.561-0.562,0.874-1.29,6.181-5.994
		c5.307-4.704-0.749-13.111-1.311-15.546c-0.561-2.435-1.499-13.485-1.311-17.419s-3.184-4.308-3.184-4.308
		s-6.421-2.374-14.369,1.601"/>
	<path class="st1" d="M105.099,798.161c-2.435-0.186-2.317,0.187-2.317-0.562c0-0.749-5.244-6.556-6.93-8.99
		c-1.686-2.435-0.562-4.495,1.686-8.616c2.248-4.121,4.121-13.673,2.81-19.854c-1.312-6.181,2.997-7.492,2.997-7.492
		s6.11-1.458,12.158,2.171"/>
	<polyline class="st1" points="22.433,565.254 19.432,563.455 19.432,557.153 22.433,555.353 22.433,554.022 19.433,552.052 
		19.433,546.051 22.284,544.119 22.284,542.918 19.283,541.4 19.283,535.398 22.284,533.617 22.284,532.267 19.283,530.297 
		19.283,524.146 22.284,522.365 22.284,521.165 19.283,519.646 19.433,513.044 22.284,511.413 22.284,509.912 19.432,508.543 
		19.432,502.392 22.284,500.46 22.284,499.26 19.132,497.291 19.132,491.59 22.284,489.959 22.284,488.007 18.682,486.339 
		18.682,480.038 22.284,478.557 93.413,478.557 93.413,492.256 85.776,499.893 77.35,499.893 77.35,507.167 58.475,507.167 
		58.475,554.66 	"/>
	<polyline class="st1" points="58.475,507.167 77.35,507.167 77.35,499.893 85.776,499.893 93.413,492.256 93.413,478.557 
		34.345,478.557 34.345,484.041 45.491,484.041 45.491,492.401 53.082,499.992 78.711,499.904 	"/>
	<polyline class="st1" points="22.525,434.646 52.439,434.646 52.439,449.983 78.052,449.983 78.052,456.393 95.05,456.393 
		95.05,449.67 104.908,449.67 	"/>
	<path class="st1" d="M42.746,711.47c0,0,14.393-2.061,17.118-2.655"/>
	<path class="st1" d="M60.528,714.893c0,0-7.965,1.467-15.127,7.057"/>
	<path class="st1" d="M44.212,711.4c0,0,0.176,5.484,1.922,9.991"/>
	<path class="st1" d="M46.034,711.156c0,0,0.156,4.866,1.634,9.198"/>
	<path class="st1" d="M47.854,710.912c0,0,0.139,4.341,1.399,8.472"/>
	<path class="st1" d="M49.675,710.458c0,0,0.129,4.032,1.267,8.022"/>
	<path class="st1" d="M51.497,710.179c0,0,0.119,3.726,1.139,7.56"/>
	<path class="st1" d="M53.318,709.935c0,0,0.109,3.406,1.01,7.056"/>
	<path class="st1" d="M55.139,709.795c0,0,0.098,3.043,0.869,6.458"/>
	<path class="st1" d="M56.96,709.48c0,0,0.093,2.903,0.816,6.221"/>
	<path class="st1" d="M58.781,709.271c0,0,0.086,2.696,0.74,5.861"/>
	<path class="st1" d="M65.099,811.591c-8.75,0.25-16-2.667-16-2.667l-1.5,3.334l-3.917-1.584l1.5-4.083
		c-1.333-0.583-3.833-0.833-5.583-1.083c0.417-5.083,3.824-7.916,3.824-7.916l-1.094-1.094c0,0-1.313,1.354-2.563,3.438
		c-2.094,3.531-1.919,10.155-1.919,10.155h-3.166c-0.416-3.5,0.333-9.917,2.916-12.917c1.083-1.416,3.084-4.583,3.084-4.583
		s4.833-6.25-0.417-17.167c-4.417-11.583,1.583-25.75,1.583-25.75c2.25-7.167-0.666-14.083-0.666-14.083s-2.417-3.417-1.583-9.25
		c1.5-6.583,5.25-6.167,5.25-6.167s5.084-0.082,5.75,2.334c0.666,2.416-1.167,5.333-1.167,5.333s-0.916,3.167-0.583,4.667
		c-0.584,2.666-2.75,3.834-5.25,3.25c-2.5-0.584-3.417-6.834-2.667-9.584s3.167-5.416,3.917-4.166s-1.084,3.5-1.084,3.5
		s-1.499,4.084-0.916,5.75c0.583,1.666,3.749,2.667,3.916-1c0.167-3.667,1.551-4.382,1.834-4.834c1.25-2-1.115-5.195-3.808-1.348"/>
	<path class="st1" d="M43.125,711.487c0,0.612-0.497,1.109-1.109,1.109c-0.612,0-1.109-0.497-1.109-1.109s0.497-1.109,1.109-1.109
		C42.628,710.378,43.125,710.875,43.125,711.487z"/>
	<path class="st1" d="M45.515,722.234c0,0.612-0.497,1.109-1.109,1.109s-1.109-0.497-1.109-1.109s0.497-1.109,1.109-1.109
		S45.515,721.622,45.515,722.234z"/>
	<polyline class="st1" points="22.699,840.606 105.072,840.606 105.072,940.698 22.605,940.698 	"/>
	<line class="st1" x1="81.758" y1="655.224" x2="81.758" y2="672.655"/>
	<polyline class="st1" points="46.72,655.48 35.953,655.48 35.953,672.527 94.039,672.527 94.039,655.48 81.758,655.48 	"/>
	<line class="st1" x1="46.719" y1="655.427" x2="46.719" y2="672.483"/>
	<polyline class="st1" points="116.772,1008.685 103.653,1008.685 103.653,999.12 70.309,999.12 26.716,999.12 26.716,1008.685 
		10.864,1008.685 	"/>
	<path class="st1" d="M23.333,1111.6v-66.566H6.923v55.469C6.923,1100.502,11.539,1107.027,23.333,1111.6z"/>
	<path class="st1" d="M106.256,1111.6v-66.566h16.409v55.469C122.666,1100.502,118.05,1107.027,106.256,1111.6z"/>
	<rect x="54.446" y="466.282" class="st1" width="4.958" height="8.922"/>
	<line class="st1" x1="54.404" y1="468.484" x2="59.225" y2="468.484"/>
	<line class="st1" x1="54.404" y1="470.746" x2="59.225" y2="470.746"/>
	<line class="st1" x1="54.404" y1="473.007" x2="59.225" y2="473.007"/>
	<rect x="69.475" y="548.2" class="st1" width="8.922" height="4.958"/>
	<line class="st1" x1="71.676" y1="553.2" x2="71.676" y2="548.378"/>
	<line class="st1" x1="73.938" y1="553.2" x2="73.938" y2="548.378"/>
	<line class="st1" x1="76.2" y1="553.2" x2="76.2" y2="548.378"/>
	<rect x="71.586" y="543.114" class="st1" width="8.923" height="4.958"/>
	<line class="st1" x1="73.789" y1="548.114" x2="73.789" y2="543.292"/>
	<line class="st1" x1="76.05" y1="548.114" x2="76.05" y2="543.292"/>
	<line class="st1" x1="78.312" y1="548.114" x2="78.312" y2="543.292"/>
	<line class="st1" x1="35.953" y1="672.601" x2="22.538" y2="672.601"/>
	<polyline class="st1" points="22.045,962.966 22.122,999.211 26.633,999.16 	"/>
	<polyline class="st1" points="105.862,962.329 105.786,999.149 101.275,999.098 	"/>
	<line class="st1" x1="52.4" y1="449.878" x2="52.4" y2="478.119"/>
	<line class="st1" x1="34.705" y1="810.074" x2="34.705" y2="840.775"/>
	<line class="st1" x1="95.039" y1="810.075" x2="95.039" y2="840.776"/>
	<polyline class="st1" points="80.611,981.061 80.611,961.187 93.502,961.187 93.502,981.311 36.335,981.311 36.335,961.156 
		49.017,961.156 49.017,981.311 	"/>
	<line class="st1" x1="36.372" y1="980.239" x2="36.372" y2="999.12"/>
	<line class="st1" x1="93.539" y1="980.905" x2="93.539" y2="999.286"/>
	<path class="st2" d="M38.403,330.113h1.007c1,0,1.727,0.527,1.727,1.783v0.072c0,0.728-0.288,1.191-0.656,1.472l0.751,2.271h-1.039
		l-0.632-1.951h-0.184v1.951h-0.976V330.113z M39.426,332.879c0.424,0,0.735-0.248,0.735-0.903v-0.064
		c0-0.704-0.336-0.888-0.759-0.888h-0.024v1.855H39.426z M41.586,330.113h1.008c1,0,1.727,0.527,1.727,1.783v0.072
		c0,0.728-0.288,1.191-0.656,1.472l0.751,2.271h-1.04l-0.631-1.951h-0.184v1.951h-0.976V330.113z M42.61,332.879
		c0.424,0,0.736-0.248,0.736-0.903v-0.064c0-0.704-0.336-0.888-0.76-0.888h-0.024v1.855H42.61z"/>
	<path class="st2" d="M84.403,330.113h1.008c0.999,0,1.727,0.527,1.727,1.783v0.072c0,0.728-0.287,1.191-0.655,1.472l0.752,2.271
		h-1.04l-0.631-1.951h-0.185v1.951h-0.976V330.113z M85.426,332.879c0.424,0,0.736-0.248,0.736-0.903v-0.064
		c0-0.704-0.336-0.888-0.76-0.888h-0.024v1.855H85.426z M87.587,330.113h1.007c1,0,1.728,0.527,1.728,1.783v0.072
		c0,0.728-0.288,1.191-0.655,1.472l0.751,2.271h-1.039l-0.632-1.951h-0.184v1.951h-0.976V330.113z M88.611,332.879
		c0.424,0,0.735-0.248,0.735-0.903v-0.064c0-0.704-0.336-0.888-0.76-0.888h-0.023v1.855H88.611z"/>
	<path class="st2" d="M84.765,967.516l1.008,0.001c0.999,0.001,1.727,0.529,1.726,1.784v0.072c-0.001,0.728-0.289,1.191-0.657,1.471
		l0.75,2.271l-1.04-0.001l-0.63-1.951h-0.184l-0.002,1.95H84.76L84.765,967.516z M85.787,970.284c0.424,0,0.735-0.247,0.736-0.902
		v-0.064c0-0.703-0.335-0.888-0.759-0.888H85.74l-0.001,1.854H85.787z M87.949,967.519l1.008,0.001
		c0.999,0.001,1.727,0.529,1.726,1.784v0.072c-0.001,0.728-0.289,1.19-0.657,1.471l0.75,2.271l-1.039-0.001l-0.63-1.952h-0.185
		l-0.001,1.951l-0.976-0.001L87.949,967.519z M88.97,970.287c0.424,0,0.736-0.248,0.736-0.903v-0.063
		c0.001-0.704-0.335-0.888-0.759-0.889h-0.024l-0.001,1.855H88.97z"/>
	<path class="st2" d="M40.181,967.876l1.007,0.001c1,0.001,1.727,0.529,1.726,1.784v0.072c0,0.728-0.289,1.191-0.657,1.471
		l0.75,2.271l-1.04-0.001l-0.63-1.951h-0.184l-0.002,1.95h-0.975L40.181,967.876z M41.202,970.644c0.424,0,0.736-0.247,0.736-0.902
		v-0.064c0.001-0.703-0.335-0.888-0.759-0.888h-0.024l-0.001,1.854H41.202z M43.365,967.879l1.007,0.001
		c1,0.001,1.727,0.529,1.726,1.784v0.072c0,0.728-0.289,1.19-0.657,1.471l0.75,2.271l-1.039-0.001l-0.63-1.952h-0.184l-0.001,1.951
		l-0.975-0.001L43.365,967.879z M44.386,970.647c0.424,0,0.736-0.248,0.736-0.903v-0.063c0-0.704-0.335-0.888-0.759-0.889H44.34
		l-0.001,1.855H44.386z"/>
	<path class="st2" d="M84.523,464.732h1.008c0.999,0,1.728,0.528,1.728,1.783v0.072c0,0.728-0.288,1.191-0.656,1.471l0.752,2.271
		h-1.04l-0.631-1.951h-0.185v1.951h-0.976V464.732z M85.546,467.499c0.424,0,0.736-0.248,0.736-0.903v-0.064
		c0-0.704-0.336-0.888-0.76-0.888h-0.024v1.855H85.546z M87.707,464.732h1.007c1,0,1.728,0.528,1.728,1.783v0.072
		c0,0.728-0.288,1.191-0.656,1.471l0.752,2.271h-1.039l-0.632-1.951h-0.184v1.951h-0.976V464.732z M88.731,467.499
		c0.424,0,0.735-0.248,0.735-0.903v-0.064c0-0.704-0.336-0.888-0.76-0.888h-0.023v1.855H88.731z"/>
	<path class="st2" d="M84.523,471.833h1.008c0.999,0,1.728,0.528,1.728,1.783v0.072c0,0.728-0.288,1.191-0.656,1.471l0.752,2.271
		h-1.04l-0.631-1.951h-0.185v1.951h-0.976V471.833z M85.546,474.6c0.424,0,0.736-0.248,0.736-0.903v-0.064
		c0-0.704-0.336-0.888-0.76-0.888h-0.024v1.855H85.546z M87.707,471.833h1.007c1,0,1.728,0.528,1.728,1.783v0.072
		c0,0.728-0.288,1.191-0.656,1.471l0.752,2.271h-1.039l-0.632-1.951h-0.184v1.951h-0.976V471.833z M88.731,474.6
		c0.424,0,0.735-0.248,0.735-0.903v-0.064c0-0.704-0.336-0.888-0.76-0.888h-0.023v1.855H88.731z"/>
	<path class="st2" d="M57.135,146.145v-1.016c0.344,0.2,0.616,0.312,0.88,0.312c0.28,0,0.52-0.136,0.52-0.479v-0.016
		c0-0.256-0.08-0.448-0.543-0.976c-0.664-0.751-0.936-1.111-0.936-1.791v-0.016c0-0.896,0.583-1.463,1.359-1.463
		c0.392,0,0.624,0.056,0.864,0.176v1.016c-0.304-0.176-0.488-0.256-0.744-0.256c-0.272,0-0.504,0.176-0.504,0.479v0.016
		c0,0.264,0.08,0.36,0.544,0.896c0.768,0.887,0.936,1.231,0.936,1.871v0.016c0,0.879-0.616,1.463-1.383,1.463
		C57.743,146.377,57.416,146.281,57.135,146.145z M60.255,141.668h-0.688v-0.927h2.351v0.927H61.23v4.669h-0.976V141.668z
		 M62.871,140.725h1.039l1.063,5.613h-0.976l-0.184-1.111h-0.888l-0.176,1.111h-0.943L62.871,140.725z M63.67,144.347l-0.296-1.847
		l-0.304,1.847H63.67z M65.095,143.635v-0.192c0-1.807,0.768-2.742,1.871-2.742c0.296,0,0.544,0.064,0.744,0.16v1.016
		c-0.24-0.144-0.456-0.24-0.711-0.24c-0.56,0-0.912,0.56-0.912,1.767v0.272c0,1.463,0.432,1.799,0.832,1.799
		c0.032,0,0.04,0,0.088-0.008v-1.431h-0.48v-0.872h1.368v2.975c-0.352,0.152-0.64,0.24-1.016,0.24
		C65.903,146.377,65.095,145.586,65.095,143.635z M68.431,140.741h2.143v0.927h-1.167v1.391h1.031v0.928h-1.031v1.423h1.191v0.928
		h-2.167V140.741z"/>
	<path class="st2" d="M41.948,251.813v-1.016c0.344,0.2,0.616,0.312,0.88,0.312c0.28,0,0.52-0.136,0.52-0.479v-0.016
		c0-0.256-0.08-0.448-0.544-0.976c-0.664-0.751-0.936-1.111-0.936-1.791v-0.016c0-0.896,0.584-1.463,1.359-1.463
		c0.392,0,0.624,0.056,0.864,0.176v1.016c-0.304-0.176-0.488-0.256-0.744-0.256c-0.272,0-0.504,0.176-0.504,0.479v0.016
		c0,0.264,0.08,0.36,0.544,0.896c0.768,0.887,0.936,1.231,0.936,1.871v0.016c0,0.879-0.616,1.463-1.383,1.463
		C42.556,252.045,42.228,251.949,41.948,251.813z M45.067,247.336H44.38v-0.927h2.351v0.927h-0.688v4.669h-0.976V247.336z
		 M47.683,246.393h1.04l1.063,5.613h-0.976l-0.184-1.111h-0.888l-0.176,1.111H46.62L47.683,246.393z M48.483,250.015l-0.296-1.847
		l-0.304,1.847H48.483z M50.083,246.409h1.008c0.999,0,1.727,0.527,1.727,1.783v0.072c0,0.728-0.288,1.191-0.656,1.472l0.751,2.271
		h-1.04l-0.631-1.951h-0.184v1.951h-0.976V246.409z M51.107,249.175c0.424,0,0.736-0.248,0.736-0.903v-0.064
		c0-0.704-0.336-0.888-0.76-0.888h-0.024v1.855H51.107z M53.268,246.409h0.912c1.247,0,1.959,0.903,1.959,2.702v0.192
		c0,1.799-0.712,2.703-1.959,2.703h-0.912V246.409z M54.283,251.11c0.463,0,0.863-0.408,0.863-1.807v-0.192
		c0-1.399-0.4-1.807-0.863-1.807h-0.04v3.806H54.283z M56.603,250.374v-3.966h0.967v4.062c0,0.504,0.176,0.704,0.424,0.704
		c0.248,0,0.424-0.2,0.424-0.704v-4.062h0.968v3.966c0,1.175-0.592,1.703-1.392,1.703C57.195,252.077,56.603,251.55,56.603,250.374z
		 M59.828,251.813v-1.016c0.344,0.2,0.616,0.312,0.879,0.312c0.28,0,0.52-0.136,0.52-0.479v-0.016c0-0.256-0.08-0.448-0.543-0.976
		c-0.664-0.751-0.936-1.111-0.936-1.791v-0.016c0-0.896,0.583-1.463,1.359-1.463c0.392,0,0.624,0.056,0.863,0.176v1.016
		c-0.304-0.176-0.488-0.256-0.744-0.256c-0.271,0-0.503,0.176-0.503,0.479v0.016c0,0.264,0.08,0.36,0.543,0.896
		c0.768,0.887,0.936,1.231,0.936,1.871v0.016c0,0.879-0.616,1.463-1.383,1.463C60.435,252.045,60.107,251.949,59.828,251.813z
		 M62.947,247.336h-0.688v-0.927h2.351v0.927h-0.688v4.669h-0.975V247.336z M66.811,247.336h-0.688v-0.927h2.351v0.927h-0.688v4.669
		h-0.976V247.336z M68.883,246.409h0.976v2.318h0.847v-2.318h0.976v5.597h-0.976v-2.351h-0.847v2.351h-0.976V246.409z
		 M72.259,246.409h2.143v0.927h-1.167v1.391h1.031v0.928h-1.031v1.423h1.191v0.928h-2.167V246.409z M75.683,246.393h1.039
		l1.063,5.613H76.81l-0.184-1.111h-0.888l-0.176,1.111H74.62L75.683,246.393z M76.482,250.015l-0.296-1.847l-0.304,1.847H76.482z
		 M78.363,247.336h-0.688v-0.927h2.351v0.927h-0.688v4.669h-0.976V247.336z M80.435,246.409h2.143v0.927h-1.167v1.391h1.031v0.928
		h-1.031v1.423h1.191v0.928h-2.167V246.409z M83.075,246.409h1.008c0.999,0,1.727,0.527,1.727,1.783v0.072
		c0,0.728-0.287,1.191-0.655,1.472l0.752,2.271h-1.04l-0.632-1.951H84.05v1.951h-0.976V246.409z M84.098,249.175
		c0.424,0,0.735-0.248,0.735-0.903v-0.064c0-0.704-0.335-0.888-0.759-0.888H84.05v1.855H84.098z M51.407,257.703
		c0-1.623,0.504-3.014,1.839-3.406V255c-0.688,0.36-0.936,1.407-0.936,2.703c0,1.303,0.248,2.351,0.936,2.71v0.704
		C51.911,260.725,51.407,259.342,51.407,257.703z M53.751,254.409h0.848c0.943,0,1.823,0.384,1.823,1.423v0.04
		c0,0.72-0.408,1.071-0.808,1.263c0.472,0.208,0.88,0.536,0.88,1.248v0.072c0,0.992-0.768,1.551-1.855,1.551h-0.888V254.409z
		 M54.743,256.759c0.432,0,0.72-0.248,0.72-0.736v-0.016c0-0.487-0.288-0.695-0.72-0.695h-0.016v1.447H54.743z M54.751,259.102
		c0.448,0,0.768-0.264,0.768-0.728v-0.04c0-0.464-0.32-0.728-0.768-0.728h-0.024v1.495H54.751z M57.647,254.393h1.04l1.063,5.613
		h-0.976l-0.184-1.111h-0.887l-0.176,1.111h-0.944L57.647,254.393z M58.447,258.015l-0.296-1.847l-0.304,1.847H58.447z
		 M60.047,254.409h0.976v4.669h1.031v0.928h-2.007V254.409z M62.151,257.303v-0.192c0-1.967,0.728-2.742,1.639-2.742
		c0.272,0,0.432,0.032,0.64,0.128v1.007c-0.2-0.12-0.36-0.184-0.543-0.184c-0.432,0-0.744,0.384-0.744,1.783v0.208
		c0,1.479,0.312,1.783,0.759,1.783c0.152,0,0.344-0.056,0.544-0.176v0.959c-0.224,0.128-0.44,0.168-0.72,0.168
		C62.831,260.045,62.151,259.254,62.151,257.303z M64.64,257.351v-0.288c0-1.847,0.6-2.734,1.487-2.734
		c0.888,0,1.487,0.887,1.487,2.734v0.288c0,1.847-0.6,2.734-1.487,2.734C65.239,260.085,64.64,259.198,64.64,257.351z
		 M66.623,257.351v-0.288c0-1.439-0.2-1.839-0.496-1.839c-0.295,0-0.496,0.399-0.496,1.839v0.288c0,1.439,0.2,1.839,0.496,1.839
		C66.422,259.19,66.623,258.79,66.623,257.351z M68.095,254.409h0.912l0.983,2.83v-2.83h0.952v5.597h-0.864l-1.031-2.966v2.966
		h-0.952V254.409z M72.271,257.798l-1.04-3.39h1.007l0.528,2.095l0.536-2.095h0.983l-1.039,3.39v2.207h-0.976V257.798z
		 M74.503,260.413c0.688-0.36,0.936-1.407,0.936-2.71c0-1.295-0.248-2.343-0.936-2.703v-0.704c1.335,0.392,1.839,1.783,1.839,3.406
		c0,1.639-0.504,3.022-1.839,3.414V260.413z"/>
	<path class="st2" d="M54.284,186.326v-0.288c0-1.847,0.6-2.734,1.487-2.734c0.888,0,1.487,0.887,1.487,2.734v0.288
		c0,1.847-0.6,2.734-1.487,2.734C54.883,189.06,54.284,188.172,54.284,186.326z M56.267,186.326v-0.288
		c0-1.439-0.2-1.839-0.496-1.839c-0.295,0-0.496,0.399-0.496,1.839v0.288c0,1.439,0.2,1.839,0.496,1.839
		C56.066,188.165,56.267,187.765,56.267,186.326z M57.739,183.383h0.872c1.063,0,1.807,0.575,1.807,1.887v0.016
		c0,1.263-0.704,1.863-1.695,1.935h-0.008v1.759h-0.976V183.383z M58.723,186.317c0.408-0.024,0.719-0.32,0.719-1v-0.016
		c0-0.712-0.272-1.016-0.695-1.016h-0.032v2.031H58.723z M60.819,183.383h2.143v0.927h-1.167v1.391h1.031v0.928h-1.031v1.423h1.191
		v0.928h-2.167V183.383z M63.459,183.383h0.911l0.983,2.83v-2.83h0.952v5.597h-0.863l-1.032-2.966v2.966h-0.951V183.383z
		 M68.675,184.311h-0.688v-0.927h2.351v0.927H69.65v4.669h-0.976V184.311z M70.491,186.326v-0.288c0-1.847,0.6-2.734,1.487-2.734
		c0.887,0,1.487,0.887,1.487,2.734v0.288c0,1.847-0.6,2.734-1.487,2.734C71.091,189.06,70.491,188.172,70.491,186.326z
		 M72.474,186.326v-0.288c0-1.439-0.2-1.839-0.496-1.839s-0.496,0.399-0.496,1.839v0.288c0,1.439,0.2,1.839,0.496,1.839
		S72.474,187.765,72.474,186.326z M48.311,191.383h0.912c1.247,0,1.959,0.903,1.959,2.702v0.192c0,1.799-0.712,2.703-1.959,2.703
		h-0.912V191.383z M49.327,196.084c0.463,0,0.863-0.408,0.863-1.807v-0.192c0-1.399-0.4-1.807-0.863-1.807h-0.04v3.806H49.327z
		 M51.664,191.383h2.143v0.927h-1.167v1.391h1.031v0.928h-1.031v1.423h1.191v0.928h-2.167V191.383z M54.127,194.277v-0.192
		c0-1.967,0.728-2.742,1.639-2.742c0.272,0,0.432,0.032,0.64,0.128v1.007c-0.2-0.12-0.36-0.184-0.544-0.184
		c-0.432,0-0.744,0.384-0.744,1.783v0.208c0,1.479,0.312,1.783,0.76,1.783c0.152,0,0.344-0.056,0.544-0.176v0.959
		c-0.224,0.128-0.44,0.168-0.72,0.168C54.807,197.02,54.127,196.229,54.127,194.277z M56.912,191.383h0.975v2.342l0.792-2.342h1.104
		l-0.943,2.366l0.959,3.23H58.71l-0.608-2.119l-0.216,0.616v1.503h-0.975V191.383z M60.016,196.788v-1.016
		c0.344,0.2,0.616,0.312,0.879,0.312c0.28,0,0.52-0.136,0.52-0.479v-0.016c0-0.256-0.08-0.448-0.543-0.976
		c-0.664-0.751-0.936-1.111-0.936-1.791v-0.016c0-0.896,0.583-1.463,1.359-1.463c0.392,0,0.624,0.056,0.863,0.176v1.016
		c-0.304-0.176-0.488-0.256-0.744-0.256c-0.271,0-0.503,0.176-0.503,0.479v0.016c0,0.264,0.08,0.36,0.543,0.896
		c0.768,0.887,0.936,1.231,0.936,1.871v0.016c0,0.879-0.616,1.463-1.383,1.463C60.623,197.02,60.295,196.924,60.016,196.788z
		 M64.007,191.383h0.848c0.943,0,1.823,0.384,1.823,1.423v0.04c0,0.72-0.408,1.071-0.808,1.263c0.472,0.208,0.88,0.536,0.88,1.248
		v0.072c0,0.992-0.768,1.551-1.855,1.551h-0.888V191.383z M64.999,193.734c0.432,0,0.72-0.248,0.72-0.736v-0.016
		c0-0.487-0.288-0.695-0.72-0.695h-0.016v1.447H64.999z M65.007,196.077c0.448,0,0.768-0.264,0.768-0.728v-0.04
		c0-0.464-0.32-0.728-0.768-0.728h-0.024v1.495H65.007z M67.159,191.383h2.143v0.927h-1.167v1.391h1.031v0.928h-1.031v1.423h1.191
		v0.928h-2.167V191.383z M69.799,191.383h0.976v4.669h1.031v0.928h-2.007V191.383z M71.903,194.326v-0.288
		c0-1.847,0.6-2.734,1.487-2.734c0.888,0,1.487,0.887,1.487,2.734v0.288c0,1.847-0.6,2.734-1.487,2.734
		C72.503,197.06,71.903,196.172,71.903,194.326z M73.886,194.326v-0.288c0-1.439-0.2-1.839-0.496-1.839
		c-0.295,0-0.496,0.399-0.496,1.839v0.288c0,1.439,0.2,1.839,0.496,1.839C73.686,196.165,73.886,195.765,73.886,194.326z
		 M75.015,191.383h1l0.407,3.43l0.488-3.43h0.903l0.479,3.43l0.416-3.43h0.976l-0.848,5.613h-1.023l-0.464-3.318l-0.464,3.318
		h-1.023L75.015,191.383z"/>
	<path class="st2" d="M53.342,486.191v-1.016c0.344,0.2,0.616,0.312,0.88,0.312c0.28,0,0.52-0.136,0.52-0.479v-0.016
		c0-0.256-0.08-0.448-0.544-0.976c-0.664-0.751-0.935-1.111-0.935-1.791v-0.016c0-0.896,0.583-1.463,1.359-1.463
		c0.392,0,0.624,0.056,0.864,0.176v1.016c-0.304-0.176-0.488-0.256-0.744-0.256c-0.272,0-0.504,0.176-0.504,0.479v0.016
		c0,0.264,0.08,0.36,0.544,0.896c0.768,0.887,0.936,1.231,0.936,1.871v0.016c0,0.879-0.616,1.463-1.383,1.463
		C53.95,486.423,53.623,486.327,53.342,486.191z M56.046,484.752v-3.966h0.967v4.062c0,0.504,0.176,0.704,0.424,0.704
		c0.248,0,0.424-0.2,0.424-0.704v-4.062h0.967v3.966c0,1.175-0.591,1.703-1.391,1.703C56.638,486.455,56.046,485.928,56.046,484.752
		z M59.27,486.191v-1.016c0.344,0.2,0.616,0.312,0.879,0.312c0.28,0,0.52-0.136,0.52-0.479v-0.016c0-0.256-0.08-0.448-0.543-0.976
		c-0.664-0.751-0.936-1.111-0.936-1.791v-0.016c0-0.896,0.583-1.463,1.359-1.463c0.392,0,0.624,0.056,0.863,0.176v1.016
		c-0.304-0.176-0.488-0.256-0.744-0.256c-0.271,0-0.503,0.176-0.503,0.479v0.016c0,0.264,0.08,0.36,0.543,0.896
		c0.768,0.887,0.936,1.231,0.936,1.871v0.016c0,0.879-0.616,1.463-1.383,1.463C59.878,486.423,59.55,486.327,59.27,486.191z
		 M61.99,480.787h0.976v2.318h0.847v-2.318h0.976v5.597h-0.976v-2.351h-0.847v2.351H61.99V480.787z M65.382,480.787h0.976v5.597
		h-0.976V480.787z M54.831,488.787h0.847c0.944,0,1.823,0.384,1.823,1.423v0.04c0,0.72-0.408,1.071-0.808,1.263
		c0.472,0.208,0.879,0.536,0.879,1.248v0.072c0,0.992-0.768,1.551-1.855,1.551h-0.887V488.787z M55.822,491.137
		c0.432,0,0.72-0.248,0.72-0.736v-0.016c0-0.487-0.288-0.695-0.72-0.695h-0.016v1.447H55.822z M55.83,493.48
		c0.448,0,0.768-0.264,0.768-0.728v-0.04c0-0.464-0.32-0.728-0.768-0.728h-0.024v1.495H55.83z M58.726,488.77h1.039l1.063,5.613
		h-0.975l-0.184-1.111h-0.888l-0.176,1.111h-0.943L58.726,488.77z M59.525,492.393l-0.296-1.847l-0.304,1.847H59.525z
		 M61.126,488.787h1.007c1,0,1.727,0.527,1.727,1.783v0.072c0,0.728-0.288,1.191-0.656,1.472l0.751,2.271h-1.039l-0.632-1.951
		h-0.184v1.951h-0.976V488.787z M62.15,491.553c0.424,0,0.735-0.248,0.735-0.903v-0.064c0-0.704-0.336-0.888-0.759-0.888h-0.024
		v1.855H62.15z"/>
	<path class="st2" d="M75.594,486.217v-1.016c0.344,0.2,0.616,0.312,0.88,0.312c0.279,0,0.52-0.136,0.52-0.48v-0.016
		c0-0.256-0.08-0.448-0.544-0.976c-0.663-0.751-0.936-1.111-0.936-1.791v-0.016c0-0.896,0.584-1.463,1.359-1.463
		c0.392,0,0.624,0.056,0.863,0.176v1.015c-0.304-0.176-0.487-0.256-0.743-0.256c-0.271,0-0.504,0.176-0.504,0.48v0.016
		c0,0.264,0.08,0.36,0.544,0.896c0.768,0.887,0.936,1.231,0.936,1.871v0.016c0,0.88-0.615,1.463-1.383,1.463
		C76.202,486.449,75.874,486.353,75.594,486.217z M79.098,480.796h1.039l1.063,5.613h-0.976l-0.184-1.111h-0.888l-0.176,1.111
		h-0.943L79.098,480.796z M79.898,484.418l-0.296-1.847l-0.305,1.847H79.898z M81.499,480.812h0.976v2.343l0.791-2.343h1.104
		l-0.943,2.367l0.96,3.23h-1.088l-0.607-2.119l-0.216,0.615v1.503h-0.976V480.812z M84.722,480.812h2.143v0.928h-1.167v1.391h1.031
		v0.928h-1.031v1.423h1.191v0.927h-2.167V480.812z M76.798,488.812h0.848c0.943,0,1.823,0.384,1.823,1.423v0.04
		c0,0.72-0.408,1.071-0.808,1.263c0.472,0.208,0.879,0.536,0.879,1.248v0.072c0,0.992-0.768,1.551-1.854,1.551h-0.888V488.812z
		 M77.79,491.163c0.432,0,0.72-0.248,0.72-0.736v-0.016c0-0.488-0.288-0.696-0.72-0.696h-0.016v1.447H77.79z M77.797,493.506
		c0.448,0,0.768-0.264,0.768-0.728v-0.04c0-0.464-0.319-0.728-0.768-0.728h-0.023v1.496H77.797z M80.694,488.796h1.039l1.063,5.613
		h-0.975l-0.185-1.111h-0.888l-0.176,1.111H79.63L80.694,488.796z M81.494,492.418l-0.296-1.847l-0.304,1.847H81.494z
		 M83.094,488.812h1.008c0.999,0,1.727,0.528,1.727,1.783v0.072c0,0.728-0.287,1.191-0.655,1.471l0.751,2.271h-1.039l-0.632-1.951
		H84.07v1.951h-0.976V488.812z M84.118,491.579c0.424,0,0.735-0.248,0.735-0.903v-0.064c0-0.704-0.335-0.888-0.759-0.888H84.07
		v1.855H84.118z"/>
	<path class="st2" d="M114.728,711.668v-0.872c0-1.063,0.575-1.807,1.887-1.807h0.016c1.264,0,1.863,0.703,1.936,1.695v0.008h1.759
		v0.976H114.728z M117.663,710.685c-0.024-0.408-0.32-0.72-1-0.72h-0.016c-0.712,0-1.016,0.271-1.016,0.695v0.032h2.031V710.685z
		 M114.728,708.588v-1.008c0-0.999,0.527-1.727,1.783-1.727h0.071c0.728,0,1.191,0.288,1.472,0.655l2.271-0.751v1.039l-1.951,0.632
		v0.184h1.951v0.976H114.728z M117.495,707.565c0-0.424-0.248-0.735-0.904-0.735h-0.063c-0.704,0-0.888,0.336-0.888,0.76v0.023
		h1.855V707.565z M117.67,705.5h-0.288c-1.847,0-2.734-0.6-2.734-1.487s0.888-1.487,2.734-1.487h0.288
		c1.847,0,2.734,0.6,2.734,1.487S119.517,705.5,117.67,705.5z M117.67,703.517h-0.288c-1.439,0-1.839,0.2-1.839,0.496
		s0.399,0.496,1.839,0.496h0.288c1.439,0,1.839-0.2,1.839-0.496S119.11,703.517,117.67,703.517z M114.728,702.044v-0.968
		l2.047-0.688l-2.047-0.688v-0.968h5.597v0.936h-3.382l2.118,0.712v0.016l-2.118,0.712h3.382v0.936H114.728z M114.728,698.157
		v-2.144h0.927v1.168h1.392v-1.031h0.928v1.031h1.423v-1.191h0.928v2.167H114.728z M114.728,695.516v-0.911l2.83-0.983h-2.83v-0.951
		h5.597v0.863l-2.967,1.031h2.967v0.951H114.728z M114.711,691.309v-1.039l5.613-1.063v0.975l-1.111,0.185v0.888l1.111,0.176v0.943
		L114.711,691.309z M118.333,690.509l-1.847,0.296l1.847,0.304V690.509z M114.728,688.909v-0.911c0-1.248,0.903-1.959,2.702-1.959
		h0.192c1.799,0,2.702,0.711,2.702,1.959v0.911H114.728z M119.429,687.893c0-0.464-0.408-0.863-1.807-0.863h-0.192
		c-1.399,0-1.807,0.399-1.807,0.863v0.04h3.806V687.893z M114.728,685.557v-2.144h0.927v1.168h1.392v-1.031h0.928v1.031h1.423
		v-1.191h0.928v2.167H114.728z M114.728,681.645v-0.912c0-1.247,0.903-1.958,2.702-1.958h0.192c1.799,0,2.702,0.711,2.702,1.958
		v0.912H114.728z M119.429,680.629c0-0.464-0.408-0.863-1.807-0.863h-0.192c-1.399,0-1.807,0.399-1.807,0.863v0.04h3.806V680.629z
		 M114.728,678.292v-2.143h0.927v1.168h1.392v-1.032h0.928v1.032h1.423v-1.191h0.928v2.166H114.728z M117.623,675.829h-0.192
		c-1.967,0-2.742-0.728-2.742-1.639c0-0.272,0.032-0.432,0.128-0.64h1.007c-0.119,0.2-0.184,0.359-0.184,0.544
		c0,0.432,0.384,0.743,1.783,0.743h0.208c1.479,0,1.783-0.312,1.783-0.76c0-0.151-0.057-0.344-0.177-0.543h0.96
		c0.128,0.224,0.168,0.439,0.168,0.719C120.365,675.149,119.573,675.829,117.623,675.829z M114.728,673.045v-0.976h2.343
		l-2.343-0.792v-1.104l2.366,0.943l3.23-0.959v1.087l-2.119,0.608l0.616,0.216h1.503v0.976H114.728z"/>
	<path class="st2" d="M10.597,711.668v-0.872c0-1.063,0.575-1.807,1.887-1.807H12.5c1.263,0,1.863,0.703,1.935,1.695v0.008h1.759
		v0.976H10.597z M13.531,710.685c-0.024-0.408-0.32-0.72-1-0.72h-0.016c-0.712,0-1.016,0.271-1.016,0.695v0.032h2.031V710.685z
		 M10.597,708.588v-1.008c0-0.999,0.527-1.727,1.783-1.727h0.072c0.728,0,1.191,0.288,1.472,0.655l2.271-0.751v1.039l-1.951,0.632
		v0.184h1.951v0.976H10.597z M13.363,707.565c0-0.424-0.248-0.735-0.903-0.735h-0.064c-0.704,0-0.888,0.336-0.888,0.76v0.023h1.855
		V707.565z M13.54,705.5h-0.288c-1.847,0-2.734-0.6-2.734-1.487s0.887-1.487,2.734-1.487h0.288c1.847,0,2.734,0.6,2.734,1.487
		S15.386,705.5,13.54,705.5z M13.54,703.517h-0.288c-1.439,0-1.839,0.2-1.839,0.496s0.399,0.496,1.839,0.496h0.288
		c1.439,0,1.839-0.2,1.839-0.496S14.978,703.517,13.54,703.517z M10.597,702.044v-0.968l2.047-0.688l-2.047-0.688v-0.968h5.597
		v0.936h-3.382l2.119,0.712v0.016l-2.119,0.712h3.382v0.936H10.597z M10.597,698.157v-2.144h0.927v1.168h1.391v-1.031h0.928v1.031
		h1.423v-1.191h0.928v2.167H10.597z M10.597,695.516v-0.911l2.83-0.983h-2.83v-0.951h5.597v0.863l-2.966,1.031h2.966v0.951H10.597z
		 M10.581,691.309v-1.039l5.613-1.063v0.975l-1.111,0.185v0.888l1.111,0.176v0.943L10.581,691.309z M14.203,690.509l-1.847,0.296
		l1.847,0.304V690.509z M10.597,688.909v-0.911c0-1.248,0.903-1.959,2.702-1.959h0.192c1.799,0,2.703,0.711,2.703,1.959v0.911
		H10.597z M15.298,687.893c0-0.464-0.408-0.863-1.807-0.863h-0.192c-1.399,0-1.807,0.399-1.807,0.863v0.04h3.806V687.893z
		 M10.597,685.557v-2.144h0.927v1.168h1.391v-1.031h0.928v1.031h1.423v-1.191h0.928v2.167H10.597z M10.597,681.645v-0.912
		c0-1.247,0.903-1.958,2.702-1.958h0.192c1.799,0,2.703,0.711,2.703,1.958v0.912H10.597z M15.298,680.629
		c0-0.464-0.408-0.863-1.807-0.863h-0.192c-1.399,0-1.807,0.399-1.807,0.863v0.04h3.806V680.629z M10.597,678.292v-2.143h0.927
		v1.168h1.391v-1.032h0.928v1.032h1.423v-1.191h0.928v2.166H10.597z M13.491,675.829h-0.192c-1.967,0-2.742-0.728-2.742-1.639
		c0-0.272,0.032-0.432,0.128-0.64h1.007c-0.12,0.2-0.184,0.359-0.184,0.544c0,0.432,0.384,0.743,1.783,0.743h0.208
		c1.479,0,1.783-0.312,1.783-0.76c0-0.151-0.056-0.344-0.176-0.543h0.959c0.128,0.224,0.168,0.439,0.168,0.719
		C16.234,675.149,15.442,675.829,13.491,675.829z M10.597,673.045v-0.976h2.342l-2.342-0.792v-1.104l2.366,0.943l3.23-0.959v1.087
		l-2.119,0.608l0.616,0.216h1.503v0.976H10.597z"/>
	<path class="st2" d="M57.245,784.421h1.039l1.063,5.613h-0.976l-0.184-1.111H57.3l-0.176,1.111h-0.943L57.245,784.421z
		 M58.044,788.043l-0.296-1.847l-0.304,1.847H58.044z M59.924,785.365h-0.688v-0.927h2.351v0.927H60.9v4.67h-0.976V785.365z
		 M61.997,784.438h1.008c0.999,0,1.727,0.527,1.727,1.783v0.071c0,0.728-0.288,1.191-0.656,1.472l0.751,2.271h-1.04l-0.631-1.951
		h-0.184v1.951h-0.976V784.438z M63.02,787.205c0.424,0,0.736-0.248,0.736-0.904v-0.063c0-0.704-0.336-0.888-0.76-0.888h-0.024
		v1.855H63.02z M65.197,784.438h0.976v5.597h-0.976V784.438z M66.749,788.404v-3.966h0.968v4.062c0,0.504,0.176,0.703,0.424,0.703
		c0.248,0,0.424-0.199,0.424-0.703v-4.062h0.967v3.966c0,1.175-0.592,1.703-1.391,1.703
		C67.34,790.107,66.749,789.579,66.749,788.404z M70.093,784.438h0.967l0.688,2.047l0.688-2.047h0.968v5.597h-0.936v-3.382
		l-0.711,2.118H71.74l-0.712-2.118v3.382h-0.935V784.438z M51.881,795.333v-0.192c0-1.967,0.728-2.742,1.639-2.742
		c0.272,0,0.432,0.032,0.64,0.128v1.007c-0.2-0.119-0.36-0.184-0.544-0.184c-0.432,0-0.743,0.384-0.743,1.783v0.208
		c0,1.479,0.312,1.783,0.759,1.783c0.152,0,0.344-0.057,0.544-0.177v0.96c-0.224,0.128-0.44,0.168-0.72,0.168
		C52.561,798.075,51.881,797.283,51.881,795.333z M55.448,792.421h1.04l1.063,5.613h-0.976l-0.184-1.111h-0.888l-0.176,1.111h-0.943
		L55.448,792.421z M56.248,796.043l-0.296-1.847l-0.304,1.847H56.248z M57.849,792.438h2.039v0.927h-1.063v1.408h0.928v0.927h-0.928
		v2.335h-0.976V792.438z M60.329,792.438h2.143v0.927h-1.167v1.392h1.031v0.928h-1.031v1.423h1.191v0.928h-2.167V792.438z
		 M61.688,791.142l0.808,0.4l-0.792,0.615H61L61.688,791.142z M64.057,796.603v-0.048c0-0.68,0.32-1.183,0.855-1.646
		c-0.312-0.504-0.472-0.88-0.472-1.271v-0.056c0-0.672,0.464-1.224,1.16-1.224c0.68,0,1.127,0.495,1.127,1.215v0.057
		c0,0.64-0.304,1.087-0.792,1.503l0.504,0.959c0.04-0.176,0.072-0.415,0.12-0.751l0.751,0.136c-0.072,0.632-0.2,1.079-0.36,1.439
		l0.464,0.791l-0.704,0.432l-0.272-0.495c-0.264,0.296-0.552,0.472-1.04,0.472C64.68,798.115,64.057,797.515,64.057,796.603z
		 M66.024,797.003l-0.704-1.392c-0.208,0.256-0.328,0.592-0.328,0.872v0.063c0,0.432,0.208,0.72,0.528,0.72
		C65.728,797.267,65.888,797.171,66.024,797.003z M65.552,794.477c0.248-0.24,0.344-0.528,0.344-0.824v-0.063
		c0-0.272-0.128-0.448-0.312-0.448c-0.192,0-0.312,0.176-0.312,0.416v0.08C65.272,793.861,65.36,794.109,65.552,794.477z
		 M68.984,792.438h0.848c0.943,0,1.823,0.384,1.823,1.423v0.04c0,0.72-0.408,1.071-0.808,1.264c0.472,0.208,0.879,0.535,0.879,1.247
		v0.072c0,0.991-0.768,1.551-1.855,1.551h-0.888V792.438z M69.976,794.789c0.432,0,0.72-0.248,0.72-0.735v-0.017
		c0-0.487-0.288-0.695-0.72-0.695H69.96v1.447H69.976z M69.984,797.131c0.448,0,0.768-0.264,0.768-0.728v-0.04
		c0-0.464-0.32-0.728-0.768-0.728H69.96v1.495H69.984z M72.88,792.421h1.039l1.063,5.613h-0.976l-0.184-1.111h-0.888l-0.176,1.111
		h-0.943L72.88,792.421z M73.68,796.043l-0.296-1.847l-0.304,1.847H73.68z M75.281,792.438h1.007c1,0,1.728,0.527,1.728,1.783v0.071
		c0,0.728-0.288,1.191-0.655,1.472l0.751,2.271h-1.039l-0.632-1.951h-0.184v1.951h-0.976V792.438z M76.304,795.205
		c0.424,0,0.735-0.248,0.735-0.904v-0.063c0-0.704-0.336-0.888-0.76-0.888h-0.023v1.855H76.304z"/>
	<path class="st2" d="M50.903,1075.041h-0.688v-0.928h2.351v0.928h-0.688v4.669h-0.976V1075.041z M52.975,1074.113h1.007
		c1,0,1.727,0.527,1.727,1.783v0.071c0,0.728-0.288,1.191-0.656,1.472l0.751,2.271h-1.039l-0.632-1.951H53.95v1.951h-0.975V1074.113
		z M53.999,1076.879c0.424,0,0.735-0.248,0.735-0.904v-0.063c0-0.704-0.336-0.888-0.76-0.888H53.95v1.855H53.999z M56.942,1074.096
		h1.04l1.063,5.613H58.07l-0.184-1.111h-0.887l-0.176,1.111h-0.944L56.942,1074.096z M57.742,1077.718l-0.296-1.847l-0.304,1.847
		H57.742z M59.343,1074.113h0.912c1.247,0,1.959,0.903,1.959,2.702v0.192c0,1.799-0.712,2.702-1.959,2.702h-0.912V1074.113z
		 M60.358,1078.814c0.463,0,0.863-0.408,0.863-1.807v-0.192c0-1.399-0.4-1.807-0.863-1.807h-0.04v3.806H60.358z M62.695,1074.113
		h2.143v0.928H63.67v1.391h1.031v0.928H63.67v1.423h1.191v0.928h-2.167V1074.113z M65.071,1074.113h1l0.408,3.43l0.488-3.43h0.903
		l0.48,3.43l0.416-3.43h0.976l-0.848,5.612h-1.023l-0.463-3.317l-0.464,3.317h-1.023L65.071,1074.113z M70.086,1074.113h0.976v5.597
		h-0.976V1074.113z M71.655,1074.113h0.911l0.983,2.83v-2.83h0.952v5.597h-0.864l-1.032-2.967v2.967h-0.951V1074.113z
		 M75.079,1074.113h0.911c1.248,0,1.959,0.903,1.959,2.702v0.192c0,1.799-0.711,2.702-1.959,2.702h-0.911V1074.113z
		 M76.094,1078.814c0.464,0,0.863-0.408,0.863-1.807v-0.192c0-1.399-0.399-1.807-0.863-1.807h-0.04v3.806H76.094z M78.271,1079.517
		v-1.015c0.344,0.199,0.615,0.312,0.879,0.312c0.28,0,0.52-0.136,0.52-0.479v-0.017c0-0.256-0.079-0.447-0.543-0.975
		c-0.664-0.752-0.936-1.112-0.936-1.791v-0.017c0-0.896,0.583-1.463,1.359-1.463c0.392,0,0.623,0.056,0.863,0.176v1.016
		c-0.304-0.176-0.488-0.256-0.744-0.256c-0.271,0-0.503,0.176-0.503,0.479v0.016c0,0.265,0.08,0.36,0.543,0.896
		c0.768,0.888,0.936,1.231,0.936,1.871v0.017c0,0.879-0.615,1.463-1.383,1.463C78.878,1079.75,78.55,1079.654,78.271,1079.517z
		 M44.979,1083.041h-0.688v-0.928h2.351v0.928h-0.688v4.669h-0.975V1083.041z M47.595,1082.096h1.04l1.063,5.613h-0.975
		l-0.184-1.111H47.65l-0.176,1.111h-0.943L47.595,1082.096z M48.394,1085.718l-0.296-1.847l-0.304,1.847H48.394z M50.562,1084.855
		l-0.879-2.742h1.04l0.439,1.615l0.448-1.615h1.016l-0.879,2.742l0.912,2.854h-1.04l-0.472-1.703l-0.48,1.703h-1.016
		L50.562,1084.855z M52.755,1084.751h2.063v0.959h-2.063V1084.751z M56.507,1086.278v-0.048c0-0.68,0.32-1.183,0.855-1.646
		c-0.312-0.504-0.472-0.88-0.472-1.271v-0.056c0-0.672,0.463-1.224,1.159-1.224c0.68,0,1.127,0.496,1.127,1.215v0.057
		c0,0.64-0.304,1.087-0.792,1.503l0.503,0.959c0.04-0.176,0.072-0.415,0.12-0.751l0.751,0.136c-0.072,0.632-0.2,1.079-0.36,1.439
		l0.464,0.791l-0.704,0.432l-0.272-0.495c-0.264,0.296-0.551,0.472-1.039,0.472C57.131,1087.79,56.507,1087.19,56.507,1086.278z
		 M58.474,1086.678l-0.704-1.392c-0.208,0.256-0.328,0.592-0.328,0.872v0.063c0,0.432,0.208,0.72,0.527,0.72
		C58.178,1086.942,58.338,1086.846,58.474,1086.678z M58.002,1084.152c0.248-0.24,0.344-0.528,0.344-0.824v-0.063
		c0-0.272-0.128-0.448-0.312-0.448c-0.192,0-0.312,0.176-0.312,0.416v0.08C57.723,1083.536,57.811,1083.784,58.002,1084.152z
		 M61.435,1082.113h0.911c1.248,0,1.959,0.903,1.959,2.702v0.192c0,1.799-0.711,2.702-1.959,2.702h-0.911V1082.113z M62.45,1086.814
		c0.464,0,0.864-0.408,0.864-1.807v-0.192c0-1.399-0.4-1.807-0.864-1.807h-0.04v3.806H62.45z M64.771,1086.079v-3.966h0.967v4.062
		c0,0.504,0.176,0.704,0.424,0.704s0.424-0.2,0.424-0.704v-4.062h0.967v3.966c0,1.175-0.592,1.703-1.391,1.703
		S64.771,1087.253,64.771,1086.079z M68.634,1083.041h-0.688v-0.928h2.351v0.928H69.61v4.669h-0.976V1083.041z M71.378,1085.502
		l-1.04-3.39h1.007l0.528,2.095l0.536-2.095h0.983l-1.039,3.39v2.207h-0.976V1085.502z M73.307,1084.751h2.063v0.959h-2.063
		V1084.751z M75.971,1082.113h2.038v0.928h-1.063v1.406h0.928v0.928h-0.928v2.335h-0.975V1082.113z M78.451,1082.113h1.008
		c0.999,0,1.727,0.527,1.727,1.783v0.071c0,0.728-0.288,1.191-0.655,1.472l0.751,2.271h-1.039l-0.632-1.951h-0.184v1.951h-0.976
		V1082.113z M79.474,1084.879c0.424,0,0.735-0.248,0.735-0.904v-0.063c0-0.704-0.336-0.888-0.76-0.888h-0.023v1.855H79.474z
		 M81.634,1082.113h2.144v0.928H82.61v1.391h1.031v0.928H82.61v1.423h1.191v0.928h-2.167V1082.113z M84.275,1082.113h2.143v0.928
		H85.25v1.391h1.031v0.928H85.25v1.423h1.19v0.928h-2.166V1082.113z"/>
	<path class="st2" d="M14.287,924.168v-0.976h5.597v0.976H14.287z M14.287,922.6v-0.911l2.83-0.983h-2.83v-0.952h5.597v0.863
		l-2.966,1.032h2.966v0.951H14.287z M15.214,918.657v0.688h-0.927v-2.351h0.927v0.688h4.669v0.976H15.214z M14.287,916.584v-2.144
		h0.927v1.168h1.391v-1.031h0.928v1.031h1.423v-1.191h0.928v2.167H14.287z M14.287,913.945v-1.008c0-1,0.527-1.728,1.783-1.728
		h0.072c0.728,0,1.191,0.288,1.472,0.656l2.271-0.752v1.04l-1.951,0.631v0.185h1.951v0.976H14.287z M17.053,912.921
		c0-0.424-0.248-0.736-0.903-0.736h-0.064c-0.704,0-0.888,0.336-0.888,0.76v0.024h1.855V912.921z M14.287,910.76v-0.911l2.83-0.983
		h-2.83v-0.952h5.597v0.864l-2.966,1.031h2.966v0.951H14.287z M14.287,907.336v-2.143h0.927v1.167h1.391v-1.031h0.928v1.031h1.423
		v-1.191h0.928v2.167H14.287z M15.214,904.177v0.688h-0.927v-2.351h0.927v0.688h4.669v0.976H15.214z M17.181,900.928h-0.192
		c-1.967,0-2.742-0.728-2.742-1.639c0-0.271,0.032-0.432,0.128-0.64h1.007c-0.12,0.2-0.184,0.359-0.184,0.544
		c0,0.432,0.384,0.743,1.783,0.743h0.208c1.479,0,1.783-0.312,1.783-0.76c0-0.151-0.056-0.344-0.176-0.543h0.959
		c0.128,0.224,0.168,0.439,0.168,0.719C19.923,900.249,19.132,900.928,17.181,900.928z M14.27,897.361v-1.039l5.613-1.063v0.976
		l-1.111,0.184v0.888l1.111,0.176v0.943L14.27,897.361z M17.893,896.562l-1.847,0.295l1.847,0.305V896.562z M14.287,894.96v-2.039
		h0.927v1.063h1.407v-0.927h0.927v0.927h2.335v0.976H14.287z M12.991,891.122l0.4-0.808l0.615,0.791v0.704L12.991,891.122z
		 M14.287,892.481v-2.144h0.927v1.168h1.391v-1.031h0.928v1.031h1.423v-1.191h0.928v2.167H14.287z"/>
	<path class="st2" d="M32.989,921.277v-1.04l5.613-1.063v0.976l-1.111,0.185v0.887l1.111,0.177v0.943L32.989,921.277z
		 M36.611,920.477l-1.847,0.296l1.847,0.304V920.477z M33.005,918.876v-1.008c0-0.999,0.527-1.727,1.783-1.727h0.072
		c0.728,0,1.191,0.287,1.472,0.655l2.271-0.752v1.04l-1.951,0.632v0.184h1.951v0.976H33.005z M35.771,917.853
		c0-0.424-0.248-0.736-0.903-0.736h-0.064c-0.704,0-0.888,0.336-0.888,0.76v0.024h1.855V917.853z M33.933,915.252v0.688h-0.927
		v-2.351h0.927v0.688h4.669v0.976H33.933z M35.899,912.004h-0.192c-1.807,0-2.742-0.768-2.742-1.871c0-0.296,0.064-0.544,0.16-0.743
		h1.016c-0.144,0.239-0.24,0.455-0.24,0.711c0,0.56,0.56,0.912,1.767,0.912h0.272c1.463,0,1.799-0.432,1.799-0.832
		c0-0.032,0-0.04-0.008-0.088h-1.431v0.479h-0.872v-1.367h2.975c0.152,0.353,0.24,0.64,0.24,1.016
		C38.642,911.197,37.851,912.004,35.899,912.004z M32.989,907.884v-1.039l5.613-1.063v0.976l-1.111,0.184v0.888l1.111,0.176v0.943
		L32.989,907.884z M36.611,907.085l-1.847,0.296l1.847,0.304V907.085z M33.005,905.484v-0.975h4.669v-1.032h0.928v2.007H33.005z
		 M33.005,903.084v-0.976h4.669v-1.031h0.928v2.007H33.005z M33.005,900.685v-2.144h0.927v1.168h1.391v-1.032h0.928v1.032h1.423
		v-1.191h0.928v2.167H33.005z M33.005,898.044v-1.007c0-1,0.527-1.728,1.783-1.728h0.072c0.728,0,1.191,0.288,1.472,0.656
		l2.271-0.752v1.039l-1.951,0.632v0.184h1.951v0.976H33.005z M35.771,897.021c0-0.424-0.248-0.735-0.903-0.735h-0.064
		c-0.704,0-0.888,0.336-0.888,0.76v0.023h1.855V897.021z M36.395,894.269l-3.39,1.039v-1.007l2.095-0.528l-2.095-0.535v-0.983
		l3.39,1.039h2.207v0.976H36.395z"/>
	<path class="st2" d="M91.907,927.419v-0.871c0-1.063,0.575-1.808,1.887-1.808h0.016c1.264,0,1.863,0.704,1.936,1.695v0.008h1.759
		v0.976H91.907z M94.841,926.436c-0.024-0.408-0.32-0.72-1-0.72h-0.016c-0.712,0-1.016,0.271-1.016,0.695v0.032h2.031V926.436z
		 M91.907,924.339v-0.976h2.318v-0.848h-2.318v-0.976h5.597v0.976h-2.351v0.848h2.351v0.976H91.907z M94.849,921.059h-0.288
		c-1.847,0-2.734-0.6-2.734-1.487c0-0.887,0.888-1.486,2.734-1.486h0.288c1.847,0,2.734,0.6,2.734,1.486
		C97.583,920.459,96.696,921.059,94.849,921.059z M94.849,919.077h-0.288c-1.439,0-1.839,0.2-1.839,0.495
		c0,0.296,0.399,0.496,1.839,0.496h0.288c1.438,0,1.839-0.2,1.839-0.496C96.688,919.277,96.288,919.077,94.849,919.077z
		 M92.834,917.244v0.688h-0.928v-2.351h0.928v0.688h4.669v0.976H92.834z M94.849,915.427h-0.288c-1.847,0-2.734-0.6-2.734-1.487
		s0.888-1.487,2.734-1.487h0.288c1.847,0,2.734,0.6,2.734,1.487S96.696,915.427,94.849,915.427z M94.849,913.445h-0.288
		c-1.439,0-1.839,0.199-1.839,0.495s0.399,0.496,1.839,0.496h0.288c1.438,0,1.839-0.2,1.839-0.496S96.288,913.445,94.849,913.445z
		 M94.801,910.795h-0.192c-1.807,0-2.742-0.768-2.742-1.871c0-0.296,0.063-0.544,0.16-0.743h1.015
		c-0.144,0.239-0.239,0.455-0.239,0.711c0,0.561,0.56,0.912,1.767,0.912h0.272c1.463,0,1.799-0.432,1.799-0.832
		c0-0.031,0-0.04-0.008-0.088h-1.432v0.479H94.33v-1.367h2.974c0.152,0.353,0.24,0.64,0.24,1.016
		C97.543,909.988,96.751,910.795,94.801,910.795z M91.89,906.676v-1.04l5.613-1.063v0.976l-1.111,0.184v0.888l1.111,0.176v0.944
		L91.89,906.676z M95.512,905.876l-1.847,0.296l1.847,0.304V905.876z M91.907,904.276V903.3h4.669v-1.031h0.928v2.007H91.907z
		 M91.907,901.875V900.9h4.669v-1.031h0.928v2.007H91.907z M91.907,899.476v-2.144h0.928v1.168h1.391v-1.031h0.928v1.031h1.423
		v-1.191h0.928v2.167H91.907z M91.907,896.835v-1.007c0-1,0.527-1.728,1.783-1.728h0.071c0.728,0,1.191,0.288,1.472,0.656
		l2.271-0.752v1.039l-1.951,0.632v0.185h1.951v0.975H91.907z M94.673,895.812c0-0.424-0.248-0.735-0.904-0.735h-0.063
		c-0.704,0-0.888,0.336-0.888,0.76v0.024h1.855V895.812z M95.296,893.06l-3.39,1.039v-1.007l2.095-0.528l-2.095-0.535v-0.983
		l3.39,1.039h2.207v0.976H95.296z"/>
	<path class="st2" d="M109.345,784.243h-0.192c-1.807,0-2.742-0.768-2.742-1.87c0-0.296,0.063-0.544,0.16-0.744h1.015
		c-0.144,0.24-0.239,0.456-0.239,0.712c0,0.56,0.56,0.911,1.767,0.911h0.272c1.463,0,1.799-0.432,1.799-0.831
		c0-0.032,0-0.04-0.008-0.088h-1.432v0.479h-0.871v-1.367h2.974c0.152,0.352,0.24,0.64,0.24,1.016
		C112.087,783.435,111.295,784.243,109.345,784.243z M106.451,780.891v-0.976h5.597v0.976H106.451z M106.451,779.323v-2.038h0.927
		v1.062h1.408v-0.927h0.927v0.927h2.335v0.976H106.451z M107.377,776.324v0.688h-0.927v-2.351h0.927v0.688h4.67v0.976H107.377z
		 M111.856,773.099h-1.016c0.199-0.344,0.312-0.615,0.312-0.88c0-0.279-0.136-0.52-0.479-0.52h-0.017
		c-0.256,0-0.447,0.08-0.976,0.544c-0.751,0.664-1.111,0.936-1.791,0.936h-0.016c-0.896,0-1.463-0.584-1.463-1.359
		c0-0.392,0.056-0.624,0.176-0.863h1.016c-0.176,0.304-0.256,0.487-0.256,0.743c0,0.272,0.176,0.504,0.479,0.504h0.016
		c0.265,0,0.36-0.08,0.896-0.544c0.888-0.768,1.231-0.936,1.871-0.936h0.017c0.879,0,1.463,0.616,1.463,1.384
		C112.087,772.492,111.992,772.82,111.856,773.099z M106.451,770.379v-0.976h2.318v-0.848h-2.318v-0.976h5.597v0.976h-2.351v0.848
		h2.351v0.976H106.451z M109.393,767.099h-0.288c-1.847,0-2.734-0.6-2.734-1.487s0.888-1.487,2.734-1.487h0.288
		c1.847,0,2.734,0.6,2.734,1.487S111.24,767.099,109.393,767.099z M109.393,765.117h-0.288c-1.439,0-1.839,0.199-1.839,0.495
		s0.399,0.496,1.839,0.496h0.288c1.439,0,1.839-0.2,1.839-0.496S110.832,765.117,109.393,765.117z M106.451,763.643v-0.871
		c0-1.063,0.575-1.808,1.887-1.808h0.016c1.264,0,1.863,0.704,1.936,1.695v0.008h1.759v0.976H106.451z M109.385,762.66
		c-0.024-0.407-0.32-0.72-1-0.72h-0.016c-0.712,0-1.016,0.272-1.016,0.696v0.031h2.031V762.66z"/>
	<path class="st2" d="M20.004,783.424h-1.016c0.2-0.344,0.312-0.616,0.312-0.88c0-0.279-0.136-0.52-0.479-0.52h-0.016
		c-0.256,0-0.448,0.08-0.976,0.544c-0.751,0.663-1.111,0.936-1.791,0.936h-0.016c-0.896,0-1.463-0.584-1.463-1.359
		c0-0.392,0.056-0.624,0.176-0.863h1.016c-0.176,0.304-0.256,0.487-0.256,0.743c0,0.271,0.176,0.504,0.479,0.504h0.016
		c0.264,0,0.36-0.08,0.896-0.544c0.887-0.768,1.231-0.936,1.871-0.936h0.016c0.879,0,1.463,0.616,1.463,1.384
		C20.236,782.817,20.14,783.144,20.004,783.424z M14.599,780.705v-0.976h2.318v-0.848h-2.318v-0.976h5.597v0.976h-2.351v0.848h2.351
		v0.976H14.599z M17.541,777.424h-0.288c-1.847,0-2.734-0.6-2.734-1.487s0.887-1.487,2.734-1.487h0.288
		c1.847,0,2.734,0.6,2.734,1.487S19.388,777.424,17.541,777.424z M17.541,775.441h-0.288c-1.439,0-1.839,0.2-1.839,0.496
		s0.399,0.496,1.839,0.496h0.288c1.439,0,1.839-0.2,1.839-0.496S18.98,775.441,17.541,775.441z M14.599,773.968v-1.008
		c0-0.999,0.527-1.727,1.783-1.727h0.072c0.728,0,1.191,0.288,1.472,0.655l2.271-0.751v1.039l-1.951,0.632v0.184h1.951v0.976H14.599
		z M17.365,772.945c0-0.424-0.248-0.735-0.903-0.735h-0.064c-0.704,0-0.888,0.336-0.888,0.76v0.023h1.855V772.945z M14.599,770.785
		v-2.144h0.927v1.168h1.391v-1.031h0.928v1.031h1.423v-1.191h0.928v2.167H14.599z M22.599,789.917v-2.144h0.927v1.168h1.391v-1.031
		h0.928v1.031h1.423v-1.191h0.928v2.167H22.599z M25.341,786.588l-2.742,0.88v-1.039l1.615-0.44l-1.615-0.447v-1.016l2.742,0.88
		l2.854-0.912v1.04l-1.703,0.472l1.703,0.479v1.016L25.341,786.588z M25.493,784.396h-0.192c-1.967,0-2.742-0.728-2.742-1.639
		c0-0.272,0.032-0.432,0.128-0.64h1.007c-0.12,0.199-0.184,0.359-0.184,0.544c0,0.432,0.384,0.743,1.783,0.743h0.208
		c1.479,0,1.783-0.312,1.783-0.76c0-0.151-0.056-0.344-0.176-0.544h0.959c0.128,0.225,0.168,0.44,0.168,0.72
		C28.236,783.716,27.444,784.396,25.493,784.396z M26.565,781.628h-3.966v-0.968h4.062c0.504,0,0.704-0.176,0.704-0.424
		s-0.2-0.424-0.704-0.424h-4.062v-0.967h3.966c1.175,0,1.703,0.591,1.703,1.391S27.74,781.628,26.565,781.628z M22.599,778.285
		v-1.008c0-0.999,0.527-1.727,1.783-1.727h0.072c0.728,0,1.191,0.287,1.472,0.655l2.271-0.752v1.04l-1.951,0.631v0.185h1.951v0.976
		H22.599z M25.365,777.261c0-0.424-0.248-0.736-0.903-0.736h-0.064c-0.704,0-0.888,0.336-0.888,0.76v0.024h1.855V777.261z
		 M28.004,775.22h-1.016c0.2-0.344,0.312-0.615,0.312-0.879c0-0.28-0.136-0.521-0.479-0.521h-0.016c-0.256,0-0.448,0.08-0.976,0.544
		c-0.751,0.664-1.111,0.936-1.791,0.936h-0.016c-0.896,0-1.463-0.584-1.463-1.359c0-0.392,0.056-0.623,0.176-0.863h1.016
		c-0.176,0.304-0.256,0.487-0.256,0.743c0,0.272,0.176,0.504,0.479,0.504h0.016c0.264,0,0.36-0.08,0.896-0.544
		c0.887-0.768,1.231-0.936,1.871-0.936h0.016c0.879,0,1.463,0.616,1.463,1.384C28.236,774.613,28.14,774.941,28.004,775.22z
		 M22.599,772.485v-0.976h5.597v0.976H22.599z M25.541,771.012h-0.288c-1.847,0-2.734-0.6-2.734-1.487
		c0-0.887,0.887-1.487,2.734-1.487h0.288c1.847,0,2.734,0.601,2.734,1.487C28.276,770.413,27.388,771.012,25.541,771.012z
		 M25.541,769.03h-0.288c-1.439,0-1.839,0.199-1.839,0.495s0.399,0.496,1.839,0.496h0.288c1.439,0,1.839-0.2,1.839-0.496
		S26.98,769.03,25.541,769.03z M22.599,767.556v-0.911l2.83-0.983h-2.83v-0.951h5.597v0.863l-2.966,1.031h2.966v0.951H22.599z
		 M28.004,764.252h-1.016c0.2-0.344,0.312-0.615,0.312-0.88c0-0.279-0.136-0.52-0.479-0.52h-0.016c-0.256,0-0.448,0.08-0.976,0.544
		c-0.751,0.663-1.111,0.936-1.791,0.936h-0.016c-0.896,0-1.463-0.584-1.463-1.359c0-0.392,0.056-0.624,0.176-0.863h1.016
		c-0.176,0.304-0.256,0.487-0.256,0.743c0,0.272,0.176,0.504,0.479,0.504h0.016c0.264,0,0.36-0.08,0.896-0.544
		c0.887-0.768,1.231-0.936,1.871-0.936h0.016c0.879,0,1.463,0.616,1.463,1.384C28.236,763.645,28.14,763.972,28.004,764.252z"/>
	<path class="st2" d="M30.92,535.026v-0.968c0.152,0.056,0.304,0.096,0.464,0.096c0.312,0,0.503-0.168,0.503-0.576v-4.118h0.992
		v4.19c0,0.992-0.52,1.455-1.343,1.455C31.288,535.105,31.096,535.065,30.92,535.026z M34.184,529.445h1.039l1.063,5.613h-0.975
		l-0.184-1.111h-0.888l-0.176,1.111H33.12L34.184,529.445z M34.983,533.067l-0.296-1.847l-0.304,1.847H34.983z M36.464,534.866
		v-1.016c0.344,0.2,0.616,0.312,0.879,0.312c0.28,0,0.52-0.136,0.52-0.48v-0.016c0-0.256-0.08-0.448-0.544-0.976
		c-0.664-0.751-0.936-1.111-0.936-1.791v-0.016c0-0.896,0.584-1.463,1.359-1.463c0.392,0,0.624,0.056,0.864,0.176v1.015
		c-0.304-0.176-0.488-0.256-0.744-0.256c-0.272,0-0.504,0.176-0.504,0.48v0.016c0,0.264,0.08,0.36,0.543,0.896
		c0.768,0.887,0.936,1.231,0.936,1.871v0.016c0,0.88-0.615,1.463-1.383,1.463C37.072,535.098,36.744,535.001,36.464,534.866z
		 M39.184,529.46h0.968l0.688,2.047l0.688-2.047h0.968v5.597h-0.936v-3.382l-0.712,2.119h-0.016l-0.712-2.119v3.382h-0.936V529.46z
		 M43.088,529.46h0.975v5.597h-0.975V529.46z M44.656,529.46h0.912l0.983,2.831v-2.831h0.951v5.597h-0.863l-1.032-2.966v2.966
		h-0.951V529.46z M48.08,529.46h2.143v0.928h-1.167v1.391h1.031v0.928h-1.031v1.423h1.191v0.927H48.08V529.46z M23.668,540.355
		v-0.192c0-1.807,0.768-2.742,1.871-2.742c0.296,0,0.543,0.064,0.744,0.16v1.016c-0.24-0.144-0.456-0.24-0.712-0.24
		c-0.56,0-0.911,0.56-0.911,1.767v0.272c0,1.463,0.432,1.799,0.831,1.799c0.032,0,0.04,0,0.088-0.008v-1.431h-0.48v-0.872h1.367
		v2.975c-0.352,0.152-0.64,0.24-1.015,0.24C24.476,543.098,23.668,542.306,23.668,540.355z M27.788,537.445h1.039l1.063,5.613
		h-0.975l-0.184-1.111h-0.888l-0.176,1.111h-0.943L27.788,537.445z M28.587,541.067l-0.296-1.847l-0.304,1.847H28.587z
		 M30.188,537.46h1.007c1,0,1.727,0.528,1.727,1.783v0.072c0,0.728-0.288,1.191-0.656,1.471l0.751,2.271h-1.039l-0.632-1.951h-0.184
		v1.951h-0.976V537.46z M31.211,540.227c0.424,0,0.735-0.248,0.735-0.903v-0.064c0-0.704-0.336-0.888-0.759-0.888h-0.024v1.855
		H31.211z M33.372,537.46h0.912c1.248,0,1.959,0.904,1.959,2.703v0.192c0,1.799-0.711,2.703-1.959,2.703h-0.912V537.46z
		 M34.387,542.162c0.464,0,0.864-0.408,0.864-1.807v-0.192c0-1.399-0.4-1.807-0.864-1.807h-0.04v3.806H34.387z M36.724,537.46h2.143
		v0.928h-1.167v1.391h1.031v0.928h-1.031v1.423h1.191v0.927h-2.167V537.46z M39.364,537.46h0.911l0.984,2.831v-2.831h0.951v5.597
		h-0.863l-1.032-2.966v2.966h-0.951V537.46z M44.843,537.445h1.039l1.063,5.613h-0.975l-0.184-1.111h-0.888l-0.176,1.111H43.78
		L44.843,537.445z M45.643,541.067l-0.296-1.847l-0.304,1.847H45.643z M47.124,542.866v-1.016c0.344,0.2,0.616,0.312,0.879,0.312
		c0.28,0,0.52-0.136,0.52-0.48v-0.016c0-0.256-0.08-0.448-0.544-0.976c-0.664-0.751-0.936-1.111-0.936-1.791v-0.016
		c0-0.896,0.584-1.463,1.359-1.463c0.392,0,0.624,0.056,0.864,0.176v1.015c-0.304-0.176-0.488-0.256-0.744-0.256
		c-0.272,0-0.504,0.176-0.504,0.48v0.016c0,0.264,0.08,0.36,0.544,0.896c0.768,0.887,0.936,1.231,0.936,1.871v0.016
		c0,0.88-0.616,1.463-1.383,1.463C47.731,543.098,47.403,543.001,47.124,542.866z M49.859,537.46h0.976v5.597h-0.976V537.46z
		 M52.211,537.445h1.04l1.063,5.613h-0.976l-0.184-1.111h-0.888l-0.176,1.111h-0.944L52.211,537.445z M53.011,541.067l-0.296-1.847
		l-0.304,1.847H53.011z M54.611,537.46h0.912l0.983,2.831v-2.831h0.952v5.597h-0.864l-1.031-2.966v2.966h-0.952V537.46z
		 M26.144,545.46h1.007c1,0,1.727,0.528,1.727,1.783v0.072c0,0.728-0.288,1.191-0.656,1.471l0.751,2.271h-1.039l-0.632-1.951H27.12
		v1.951h-0.976V545.46z M27.167,548.227c0.424,0,0.735-0.248,0.735-0.903v-0.064c0-0.704-0.336-0.888-0.759-0.888H27.12v1.855
		H27.167z M29.328,545.46h2.143v0.928h-1.167v1.391h1.032v0.928h-1.032v1.423h1.191v0.927h-2.167V545.46z M31.848,550.866v-1.016
		c0.344,0.2,0.616,0.312,0.88,0.312c0.28,0,0.52-0.136,0.52-0.48v-0.016c0-0.256-0.08-0.448-0.543-0.976
		c-0.664-0.751-0.936-1.111-0.936-1.791v-0.016c0-0.896,0.583-1.463,1.359-1.463c0.392,0,0.624,0.056,0.864,0.176v1.015
		c-0.304-0.176-0.488-0.256-0.744-0.256c-0.272,0-0.504,0.176-0.504,0.48v0.016c0,0.264,0.08,0.36,0.544,0.896
		c0.768,0.887,0.936,1.231,0.936,1.871v0.016c0,0.88-0.616,1.463-1.383,1.463C32.456,551.098,32.127,551.001,31.848,550.866z
		 M34.967,546.388H34.28v-0.928h2.351v0.928h-0.688v4.669h-0.976V546.388z M37.583,545.445h1.039l1.063,5.613H38.71l-0.184-1.111
		h-0.888l-0.176,1.111H36.52L37.583,545.445z M38.383,549.067l-0.296-1.847l-0.304,1.847H38.383z M39.928,549.426v-3.966h0.967
		v4.062c0,0.504,0.176,0.704,0.424,0.704c0.248,0,0.424-0.2,0.424-0.704v-4.062h0.968v3.966c0,1.176-0.592,1.703-1.392,1.703
		C40.52,551.129,39.928,550.602,39.928,549.426z M43.271,545.46h1.007c1,0,1.728,0.528,1.728,1.783v0.072
		c0,0.728-0.288,1.191-0.656,1.471l0.751,2.271h-1.04l-0.631-1.951h-0.184v1.951h-0.976V545.46z M44.295,548.227
		c0.424,0,0.736-0.248,0.736-0.903v-0.064c0-0.704-0.336-0.888-0.76-0.888h-0.024v1.855H44.295z M47.239,545.445h1.04l1.063,5.613
		h-0.975l-0.184-1.111h-0.888l-0.176,1.111h-0.943L47.239,545.445z M48.039,549.067l-0.296-1.847l-0.304,1.847H48.039z
		 M49.64,545.46h0.912l0.983,2.831v-2.831h0.951v5.597h-0.863l-1.032-2.966v2.966H49.64V545.46z M53.583,546.388h-0.688v-0.928
		h2.351v0.928h-0.688v4.669h-0.976V546.388z"/>
	<path class="st2" d="M59.374,564.751h-0.688v-0.928h2.351v0.928h-0.688v4.669h-0.975V564.751z M61.445,563.824h2.143v0.928h-1.167
		v1.391h1.032v0.928h-1.032v1.423h1.191v0.927h-2.167V563.824z M64.085,563.824h0.872c1.063,0,1.807,0.576,1.807,1.887v0.016
		c0,1.263-0.704,1.863-1.695,1.935h-0.008v1.759h-0.976V563.824z M65.069,566.758c0.408-0.024,0.72-0.32,0.72-1v-0.016
		c0-0.711-0.272-1.015-0.696-1.015h-0.032v2.031H65.069z M67.166,563.824h0.871c1.063,0,1.807,0.576,1.807,1.887v0.016
		c0,1.263-0.704,1.863-1.695,1.935h-0.008v1.759h-0.975V563.824z M68.149,566.758c0.408-0.024,0.72-0.32,0.72-1v-0.016
		c0-0.711-0.272-1.015-0.696-1.015h-0.032v2.031H68.149z M70.749,563.808h1.04l1.063,5.613h-0.976l-0.184-1.111h-0.887l-0.176,1.111
		h-0.943L70.749,563.808z M71.548,567.43l-0.296-1.847l-0.304,1.847H71.548z M73.149,563.824h0.912l0.983,2.831v-2.831h0.951v5.597
		h-0.863l-1.031-2.966v2.966h-0.952V563.824z M77.325,567.214l-1.039-3.391h1.007l0.528,2.095l0.535-2.095h0.983l-1.039,3.391v2.207
		h-0.976V567.214z M80.093,563.808h1.039l1.063,5.613H81.22l-0.184-1.111h-0.888l-0.176,1.111H79.03L80.093,563.808z M80.892,567.43
		l-0.296-1.847l-0.304,1.847H80.892z M82.494,563.824h0.975v2.343l0.792-2.343h1.104l-0.943,2.367l0.959,3.23h-1.087l-0.608-2.119
		l-0.216,0.615v1.503h-0.975V563.824z M85.733,563.824h0.976v5.597h-0.976V563.824z"/>
	<path class="st2" d="M42.404,395.315h0.848c0.943,0,1.823,0.384,1.823,1.423v0.04c0,0.72-0.408,1.071-0.808,1.263
		c0.472,0.208,0.88,0.536,0.88,1.248v0.072c0,0.992-0.768,1.551-1.855,1.551h-0.887V395.315z M43.395,397.665
		c0.432,0,0.72-0.248,0.72-0.736v-0.016c0-0.487-0.288-0.695-0.72-0.695H43.38v1.447H43.395z M43.404,400.008
		c0.448,0,0.768-0.264,0.768-0.728v-0.04c0-0.464-0.32-0.728-0.768-0.728H43.38v1.495H43.404z M45.556,395.315h0.976v4.669h1.031
		v0.928h-2.007V395.315z M47.972,395.315h0.976v5.597h-0.976V395.315z M49.42,400.72v-1.016c0.344,0.2,0.615,0.312,0.879,0.312
		c0.28,0,0.52-0.136,0.52-0.479v-0.016c0-0.256-0.08-0.448-0.543-0.976c-0.664-0.751-0.936-1.111-0.936-1.791v-0.016
		c0-0.896,0.583-1.463,1.359-1.463c0.392,0,0.624,0.056,0.863,0.176v1.016c-0.304-0.176-0.488-0.256-0.744-0.256
		c-0.272,0-0.503,0.176-0.503,0.479v0.016c0,0.264,0.08,0.36,0.543,0.896c0.768,0.887,0.936,1.231,0.936,1.871v0.016
		c0,0.879-0.616,1.463-1.383,1.463C50.028,400.952,49.7,400.855,49.42,400.72z M52.02,400.72v-1.016
		c0.344,0.2,0.616,0.312,0.88,0.312c0.28,0,0.52-0.136,0.52-0.479v-0.016c0-0.256-0.08-0.448-0.544-0.976
		c-0.664-0.751-0.936-1.111-0.936-1.791v-0.016c0-0.896,0.584-1.463,1.359-1.463c0.392,0,0.624,0.056,0.864,0.176v1.016
		c-0.304-0.176-0.488-0.256-0.744-0.256c-0.272,0-0.504,0.176-0.504,0.479v0.016c0,0.264,0.08,0.36,0.544,0.896
		c0.768,0.887,0.936,1.231,0.936,1.871v0.016c0,0.879-0.616,1.463-1.383,1.463C52.628,400.952,52.3,400.855,52.02,400.72z
		 M55.996,399.281v-3.966h0.967v4.062c0,0.504,0.176,0.704,0.424,0.704s0.424-0.2,0.424-0.704v-4.062h0.967v3.966
		c0,1.175-0.591,1.703-1.391,1.703C56.588,400.983,55.996,400.456,55.996,399.281z M59.34,395.315h0.976v4.669h1.031v0.928H59.34
		V395.315z M61.979,396.242h-0.688v-0.927h2.351v0.927h-0.688v4.669h-0.976V396.242z M64.052,395.315h1.007
		c1,0,1.727,0.527,1.727,1.783v0.072c0,0.728-0.288,1.191-0.655,1.472l0.751,2.271h-1.04l-0.631-1.951h-0.184v1.951h-0.976V395.315z
		 M65.075,398.081c0.424,0,0.736-0.248,0.736-0.903v-0.064c0-0.704-0.336-0.888-0.76-0.888h-0.024v1.855H65.075z M68.02,395.299
		h1.039l1.063,5.613h-0.975l-0.184-1.111h-0.888l-0.176,1.111h-0.943L68.02,395.299z M68.819,398.921l-0.296-1.847l-0.304,1.847
		H68.819z M71.692,395.315h0.975v4.669h1.032v0.928h-2.007V395.315z M73.796,398.257v-0.288c0-1.847,0.6-2.734,1.487-2.734
		c0.888,0,1.487,0.887,1.487,2.734v0.288c0,1.847-0.6,2.734-1.487,2.734C74.395,400.992,73.796,400.104,73.796,398.257z
		 M75.779,398.257v-0.288c0-1.439-0.2-1.839-0.496-1.839s-0.495,0.399-0.495,1.839v0.288c0,1.439,0.199,1.839,0.495,1.839
		S75.779,399.696,75.779,398.257z M77.236,399.281v-3.966h0.968v4.062c0,0.504,0.176,0.704,0.423,0.704
		c0.248,0,0.424-0.2,0.424-0.704v-4.062h0.968v3.966c0,1.175-0.592,1.703-1.392,1.703C77.828,400.983,77.236,400.456,77.236,399.281
		z M80.58,395.315h0.911l0.983,2.83v-2.83h0.952v5.597h-0.864l-1.031-2.966v2.966H80.58V395.315z M83.908,398.209v-0.192
		c0-1.807,0.768-2.742,1.871-2.742c0.296,0,0.543,0.064,0.743,0.16v1.016c-0.24-0.144-0.456-0.24-0.712-0.24
		c-0.56,0-0.911,0.56-0.911,1.767v0.272c0,1.463,0.432,1.799,0.832,1.799c0.031,0,0.039,0,0.088-0.008v-1.431h-0.48v-0.872h1.367
		v2.975c-0.352,0.152-0.64,0.24-1.015,0.24C84.715,400.952,83.908,400.16,83.908,398.209z M87.244,395.315h2.143v0.927h-1.167v1.391
		h1.031v0.928h-1.031v1.423h1.191v0.928h-2.167V395.315z"/>
	<path class="st2" d="M58.909,819.408v-0.192c0-1.807,0.768-2.742,1.87-2.742c0.296,0,0.544,0.063,0.744,0.16v1.015
		c-0.24-0.144-0.456-0.239-0.712-0.239c-0.56,0-0.911,0.56-0.911,1.767v0.272c0,1.463,0.432,1.799,0.831,1.799
		c0.032,0,0.04,0,0.088-0.008v-1.432H60.34v-0.871h1.367v2.974c-0.352,0.152-0.64,0.24-1.016,0.24
		C59.716,822.15,58.909,821.358,58.909,819.408z M62.228,820.479v-3.966h0.968v4.062c0,0.504,0.176,0.703,0.424,0.703
		s0.424-0.199,0.424-0.703v-4.062h0.968v3.966c0,1.175-0.592,1.703-1.392,1.703C62.82,822.182,62.228,821.654,62.228,820.479z
		 M65.572,816.513h2.143v0.927h-1.167v1.392h1.031v0.928h-1.031v1.423h1.191v0.928h-2.167V816.513z M68.093,821.918v-1.016
		c0.344,0.199,0.615,0.312,0.88,0.312c0.279,0,0.52-0.136,0.52-0.479v-0.017c0-0.256-0.08-0.447-0.544-0.976
		c-0.664-0.751-0.936-1.111-0.936-1.791v-0.016c0-0.896,0.584-1.463,1.359-1.463c0.392,0,0.624,0.056,0.863,0.176v1.016
		c-0.304-0.176-0.487-0.256-0.743-0.256c-0.272,0-0.504,0.176-0.504,0.479v0.016c0,0.265,0.08,0.36,0.544,0.896
		c0.768,0.888,0.936,1.231,0.936,1.871v0.017c0,0.879-0.616,1.463-1.384,1.463C68.7,822.15,68.372,822.054,68.093,821.918z
		 M71.212,817.44h-0.688v-0.927h2.351v0.927h-0.688v4.67h-0.976V817.44z M55.545,829.918v-1.016c0.344,0.199,0.615,0.312,0.88,0.312
		c0.279,0,0.52-0.136,0.52-0.479v-0.017c0-0.256-0.08-0.447-0.544-0.976c-0.664-0.751-0.936-1.111-0.936-1.791v-0.016
		c0-0.896,0.584-1.463,1.359-1.463c0.392,0,0.624,0.056,0.863,0.176v1.016c-0.304-0.176-0.487-0.256-0.743-0.256
		c-0.272,0-0.504,0.176-0.504,0.479v0.016c0,0.265,0.08,0.36,0.544,0.896c0.768,0.888,0.936,1.231,0.936,1.871v0.017
		c0,0.879-0.616,1.463-1.384,1.463C56.152,830.15,55.825,830.054,55.545,829.918z M58.265,824.513h2.143v0.927H59.24v1.392h1.031
		v0.928H59.24v1.423h1.191v0.928h-2.167V824.513z M60.905,824.513h1.007c1,0,1.728,0.527,1.728,1.783v0.071
		c0,0.728-0.288,1.191-0.656,1.472l0.752,2.271h-1.039l-0.632-1.951h-0.184v1.951h-0.976V824.513z M61.929,827.28
		c0.424,0,0.735-0.248,0.735-0.904v-0.063c0-0.704-0.336-0.888-0.76-0.888h-0.023v1.855H61.929z M63.809,824.513H64.8l0.528,3.646
		l0.527-3.646h0.96l-1,5.612h-1.007L63.809,824.513z M67.129,824.513h0.976v5.597h-0.976V824.513z M68.601,827.408v-0.192
		c0-1.967,0.729-2.742,1.64-2.742c0.271,0,0.432,0.032,0.64,0.128v1.007c-0.2-0.119-0.359-0.184-0.544-0.184
		c-0.432,0-0.743,0.384-0.743,1.783v0.208c0,1.479,0.312,1.783,0.76,1.783c0.151,0,0.344-0.057,0.543-0.177v0.96
		c-0.224,0.128-0.439,0.168-0.72,0.168C69.28,830.15,68.601,829.358,68.601,827.408z M71.385,824.513h2.143v0.927H72.36v1.392h1.031
		v0.928H72.36v1.423h1.191v0.928h-2.167V824.513z M73.904,829.918v-1.016c0.344,0.199,0.616,0.312,0.88,0.312
		c0.279,0,0.52-0.136,0.52-0.479v-0.017c0-0.256-0.08-0.447-0.544-0.976c-0.665-0.751-0.936-1.111-0.936-1.791v-0.016
		c0-0.896,0.584-1.463,1.36-1.463c0.392,0,0.624,0.056,0.863,0.176v1.016c-0.304-0.176-0.487-0.256-0.743-0.256
		c-0.272,0-0.504,0.176-0.504,0.479v0.016c0,0.265,0.08,0.36,0.544,0.896c0.768,0.888,0.936,1.231,0.936,1.871v0.017
		c0,0.879-0.616,1.463-1.384,1.463C74.512,830.15,74.185,830.054,73.904,829.918z"/>
</g>
<g id="JADE_DECK_07_TOP">
	<path class="st3" d="M127.251,236.627c0,0-0.203-32.547-0.551-36.432c-0.127-1.437-0.229-16.152-1.449-28.511
		c0,0-5.198-50.919-9.576-66.758c-5.601-20.265-7.934-34.2-30.918-73.872c0,0-16.427-28.454-19.71-30.096
		c-0.293-0.243-0.596-0.391-0.904-0.459h-0.547c-0.31,0.068-0.612,0.216-0.904,0.459c-3.283,1.642-19.699,30.096-19.699,30.096
		c-22.982,39.672-25.518,53.552-30.916,73.872c-4.583,17.254-9.576,66.758-9.576,66.758c-1.222,12.359-1.322,27.075-1.45,28.511
		C0.703,204.081,0.5,236.627,0.5,236.627s0.001,15.092,0.003,41.192c-0.002,0.296-0.003,0.469-0.003,0.469
		s0.051,804.927,0.229,825.142c5.162,14.605,37.443,17.768,53.778,18.426l20.562-0.082c16.803-0.82,46.977-4.266,51.953-18.344
		c0.178-20.215,0.229-825.142,0.229-825.142s-0.001-0.173-0.003-0.469C127.25,251.719,127.251,236.627,127.251,236.627z"/>
	<g id="gDeck07Locations">
		<rect id="_x30_7Aft" x="0" y="716.688" class="st4" width="127.751" height="405.668"/>
		<rect id="_x30_7Middle" x="0" y="405.364" class="st4" width="127.751" height="311.324"/>
		<rect id="_x30_7Forward" x="0" class="st4" width="127.751" height="405.364"/>
	</g>
</g>
</svg>
