<?xml version="1.0" encoding="utf-8"?>
<!-- Generator: Adobe Illustrator 23.0.2, SVG Export Plug-In . SVG Version: 6.00 Build 0)  -->
<svg version="1.1" id="JADE_DECK_14" xmlns="http://www.w3.org/2000/svg" xmlns:xlink="http://www.w3.org/1999/xlink" x="0px"
	 y="0px" width="132.413px" height="891px" viewBox="0 0 132.413 891" style="enable-background:new 0 0 132.413 891;"
	 xml:space="preserve">
<style type="text/css">
	.New_x0020_Cabins_x0020_2019{fill:#EFF2F5;stroke:#FFFFFF;stroke-width:0.5;stroke-miterlimit:10;}
	.New_x0020_Cabins_x0020_2{fill:#EFF2F5;stroke:#FFFFFF;stroke-width:0.5;stroke-miterlimit:10;}
	.New_x0020_Cabins_x0020_3{fill:#EFF2F5;stroke:#FFFFFF;stroke-width:0.5;stroke-miterlimit:10;}
	.st0{fill:#FFFFFF;}
	.st1{fill:none;stroke:#D5DCE0;stroke-width:0.5;}
	.st2{fill:none;stroke:#808285;stroke-width:0.75;stroke-miterlimit:3.8636;}
	.st3{fill:#CCDDE2;}
	.st4{fill:#6E8496;}
	.st5{fill:#EFF2F5;stroke:#FFFFFF;stroke-width:0.5;stroke-miterlimit:10;}
	.st6{fill:none;stroke:#076FA0;stroke-miterlimit:10;}
	.st7{fill:none;}
</style>
<g id="JADE_DECK_14_BOTTOM">
	<path class="st0" d="M2.096,177.34h21.351v111.128c0,0,18.779-16.57,43.745-16.128c24.965,0.442,42.419,15.686,42.419,15.686
		V153.478h16.623V11.309c0,0-16.912-9.028-56.84-10.809h-5.932C23.535,2.28,6.623,11.309,6.623,11.309v144.198l-6.132,8.591
		l0.002,13.244L2.096,177.34z"/>
	<path class="st0" d="M62.933,483.702h17.254c0,0,33.196,1.317,51.727,21.758v219.244h-21.752v7.441h-6.297v52.666h17.173v84.721
		h-6.297V890.5h-34.97H53.546h-34.97v-20.969h-6.297v-84.721h17.173v-52.666h-6.297v-7.441H1.402V505.46
		c18.531-20.441,51.728-21.758,51.728-21.758H62.933z"/>
	<path class="st1" d="M121.586,153.109l0.404-134.616c-56.19-18.596-111.17,0-111.17,0v135.425L0.714,169.279"/>
	<path class="st1" d="M16.607,17.211l16.102,27.997c0,0,4.852,10.106-7.681,15.362H10.708"/>
	<path class="st1" d="M30.282,49.8c0,4.354-3.529,7.883-7.883,7.883s-7.883-3.529-7.883-7.883c0-4.354,3.529-7.883,7.883-7.883
		S30.282,45.447,30.282,49.8z"/>
	<path class="st1" d="M116.791,17.005l-16.345,28.203c0,0-4.851,10.106,7.681,15.362h13.893"/>
	<path class="st1" d="M102.872,49.8c0,4.354,3.529,7.883,7.883,7.883c4.354,0,7.884-3.529,7.884-7.883
		c0-4.354-3.529-7.883-7.884-7.883C106.401,41.917,102.872,45.447,102.872,49.8z"/>
	<polyline class="st1" points="87.716,150.681 98.047,150.681 102.14,146.589 102.14,87.456 68.553,87.456 64.081,87.456 
		30.495,87.456 30.495,146.589 34.587,150.681 51.05,150.681 	"/>
	<polyline class="st1" points="92.697,87.865 92.697,98.71 101.904,98.71 	"/>
	<polyline class="st1" points="39.715,87.865 39.715,98.71 30.508,98.71 	"/>
	<polyline class="st1" points="50.87,150.586 50.87,165.795 46.09,165.795 46.09,169.489 	"/>
	<line class="st1" x1="88.042" y1="151.137" x2="88.042" y2="170.234"/>
	<line class="st1" x1="24.219" y1="224.536" x2="30.573" y2="224.536"/>
	<line class="st1" x1="24.219" y1="221.806" x2="30.573" y2="221.806"/>
	<line class="st1" x1="24.219" y1="219.075" x2="30.573" y2="219.075"/>
	<line class="st1" x1="24.219" y1="216.345" x2="30.573" y2="216.345"/>
	<line class="st1" x1="24.219" y1="213.613" x2="30.573" y2="213.613"/>
	<rect x="24.361" y="210.883" class="st1" width="6.313" height="16.384"/>
	<line class="st1" x1="39.84" y1="198.228" x2="44.98" y2="198.228"/>
	<line class="st1" x1="39.84" y1="195.497" x2="44.98" y2="195.497"/>
	<line class="st1" x1="39.84" y1="192.767" x2="44.98" y2="192.767"/>
	<line class="st1" x1="39.84" y1="190.036" x2="44.98" y2="190.036"/>
	<line class="st1" x1="39.84" y1="187.305" x2="44.98" y2="187.305"/>
	<rect x="39.955" y="184.574" class="st1" width="5.107" height="16.384"/>
	<line class="st1" x1="101.912" y1="224.536" x2="108.266" y2="224.536"/>
	<line class="st1" x1="101.912" y1="221.806" x2="108.266" y2="221.806"/>
	<line class="st1" x1="101.912" y1="219.075" x2="108.266" y2="219.075"/>
	<line class="st1" x1="101.912" y1="216.345" x2="108.266" y2="216.345"/>
	<line class="st1" x1="101.912" y1="213.613" x2="108.266" y2="213.613"/>
	<rect x="102.054" y="210.883" class="st1" width="6.313" height="16.384"/>
	<polyline class="st1" points="87.942,170.047 87.942,206.172 46.118,206.172 46.118,167.531 	"/>
	<path class="st1" d="M78.116,206.178c-0.517,6.677-5.545,11.916-11.671,11.916c-6.063,0-11.049-5.129-11.654-11.705"/>
	<path class="st1" d="M56.995,206.163c0.025,0.911,0.15,1.881,0.421,2.887c3.083,7.194,9.044,6.577,9.044,6.577h0.19
		c0,0,5.961,0.617,9.044-6.577c0.312-1.155,0.431-2.263,0.426-3.289"/>
	<rect x="44.841" y="583.17" class="st1" width="42.875" height="16.375"/>
	<rect x="48.991" y="606.085" class="st1" width="35.375" height="68.625"/>
	<rect x="59.685" y="620.273" class="st1" width="14" height="47.125"/>
	<rect x="48.991" y="687.17" class="st1" width="10.25" height="16.375"/>
	<line class="st1" x1="48.991" y1="673.67" x2="48.991" y2="688.42"/>
	<rect x="74.192" y="686.92" class="st1" width="10.125" height="16.625"/>
	<line class="st1" x1="84.368" y1="673.67" x2="84.368" y2="688.42"/>
	<polygon class="st1" points="37.591,703.545 95.216,703.545 94.841,845.549 38.091,845.549 	"/>
	<polyline class="st1" points="79.778,674.795 79.778,681.045 65.091,681.045 	"/>
	<line class="st1" x1="84.341" y1="685.795" x2="65.091" y2="685.795"/>
	<rect x="60.716" y="624.42" class="st1" width="11.812" height="11.813"/>
	<line class="st1" x1="78.091" y1="681.205" x2="78.091" y2="685.517"/>
	<line class="st1" x1="76.866" y1="681.205" x2="76.866" y2="685.517"/>
	<line class="st1" x1="75.641" y1="681.205" x2="75.641" y2="685.517"/>
	<line class="st1" x1="79.702" y1="678.135" x2="84.015" y2="678.135"/>
	<line class="st1" x1="79.702" y1="679.36" x2="84.015" y2="679.36"/>
	<line class="st1" x1="79.702" y1="680.585" x2="84.015" y2="680.585"/>
	<line class="st1" x1="74.416" y1="681.205" x2="74.416" y2="685.517"/>
	<line class="st1" x1="73.191" y1="681.205" x2="73.191" y2="685.517"/>
	<line class="st1" x1="71.966" y1="681.205" x2="71.966" y2="685.517"/>
	<line class="st1" x1="70.741" y1="681.142" x2="70.741" y2="685.455"/>
	<line class="st1" x1="69.516" y1="681.142" x2="69.516" y2="685.455"/>
	<line class="st1" x1="68.291" y1="681.142" x2="68.291" y2="685.455"/>
	<line class="st1" x1="67.066" y1="681.142" x2="67.066" y2="685.455"/>
	<line class="st1" x1="65.841" y1="681.142" x2="65.841" y2="685.455"/>
	<polygon class="st1" points="56.849,581.118 56.849,572.53 66.933,572.53 66.933,581.118 56.849,581.118 	"/>
	<polygon class="st1" points="46.765,581.118 46.765,572.53 56.849,572.53 56.849,581.118 46.765,581.118 	"/>
	<polygon class="st1" points="76.887,581.118 76.887,572.53 86.971,572.53 86.971,581.118 76.887,581.118 	"/>
	<polygon class="st1" points="66.803,581.118 66.803,572.53 76.887,572.53 76.887,581.118 66.803,581.118 	"/>
	<path class="st1" d="M75.935,560.247V538.31c0-0.553-0.445-1-0.995-1H58.814c-0.55,0-0.996,0.447-0.996,1v21.937H75.935z"/>
	<polygon class="st1" points="56.728,793.76 56.728,785.172 66.812,785.172 66.812,793.76 56.728,793.76 	"/>
	<polygon class="st1" points="46.644,793.76 46.644,785.172 56.728,785.172 56.728,793.76 46.644,793.76 	"/>
	<polygon class="st1" points="76.767,793.76 76.767,785.172 86.851,785.172 86.851,793.76 76.767,793.76 	"/>
	<polygon class="st1" points="66.683,793.76 66.683,785.172 76.767,785.172 76.767,793.76 66.683,793.76 	"/>
	<line class="st1" x1="37.828" y1="785.154" x2="94.875" y2="785.154"/>
	<line class="st1" x1="37.419" y1="733.192" x2="95.079" y2="733.192"/>
	<line class="st1" x1="66.815" y1="537.688" x2="66.815" y2="560.247"/>
	<line class="st1" x1="67.066" y1="547.636" x2="75.861" y2="547.636"/>
	<line class="st1" x1="67.066" y1="549.134" x2="75.861" y2="549.134"/>
	<line class="st1" x1="67.066" y1="550.633" x2="75.861" y2="550.633"/>
	<line class="st1" x1="67.066" y1="552.131" x2="75.861" y2="552.131"/>
	<line class="st1" x1="67.066" y1="553.63" x2="75.861" y2="553.63"/>
	<line class="st1" x1="67.066" y1="555.128" x2="75.861" y2="555.128"/>
	<line class="st1" x1="57.781" y1="547.636" x2="66.577" y2="547.636"/>
	<line class="st1" x1="57.781" y1="549.134" x2="66.577" y2="549.134"/>
	<line class="st1" x1="57.781" y1="550.633" x2="66.577" y2="550.633"/>
	<line class="st1" x1="57.781" y1="552.131" x2="66.577" y2="552.131"/>
	<line class="st1" x1="57.781" y1="553.63" x2="66.577" y2="553.63"/>
	<line class="st1" x1="57.781" y1="555.128" x2="66.577" y2="555.128"/>
	<line class="st1" x1="95.283" y1="711.827" x2="101.682" y2="711.827"/>
	<line class="st1" x1="31.458" y1="711.827" x2="37.857" y2="711.827"/>
	<line class="st1" x1="57.116" y1="581.008" x2="66.927" y2="572.743"/>
	<line class="st1" x1="66.802" y1="580.899" x2="57.131" y2="572.758"/>
	<line class="st1" x1="47.006" y1="580.993" x2="56.913" y2="572.68"/>
	<line class="st1" x1="56.678" y1="580.836" x2="47.085" y2="572.789"/>
	<line class="st1" x1="77.152" y1="581.008" x2="86.965" y2="572.743"/>
	<line class="st1" x1="86.84" y1="580.899" x2="77.168" y2="572.758"/>
	<line class="st1" x1="67.043" y1="580.993" x2="76.949" y2="572.68"/>
	<line class="st1" x1="76.715" y1="580.836" x2="67.121" y2="572.789"/>
	<line class="st1" x1="56.996" y1="793.651" x2="66.807" y2="785.385"/>
	<line class="st1" x1="66.682" y1="793.542" x2="57.011" y2="785.401"/>
	<line class="st1" x1="46.886" y1="793.635" x2="56.793" y2="785.323"/>
	<line class="st1" x1="56.558" y1="793.479" x2="46.964" y2="785.432"/>
	<line class="st1" x1="77.031" y1="793.651" x2="86.844" y2="785.385"/>
	<line class="st1" x1="86.719" y1="793.542" x2="77.047" y2="785.401"/>
	<line class="st1" x1="66.922" y1="793.635" x2="76.828" y2="785.323"/>
	<line class="st1" x1="76.594" y1="793.479" x2="67" y2="785.432"/>
	<rect x="60.409" y="606.733" class="st1" width="12" height="4.187"/>
	<path class="st3" d="M55.526,676.786c-2.217,0-4.021,1.804-4.021,4.021s1.804,4.021,4.021,4.021s4.021-1.804,4.021-4.021
		S57.743,676.786,55.526,676.786z M54.213,677.259c0.143,0.054,0.3,0.1,0.474,0.139c0.271-0.067,0.549-0.112,0.84-0.112
		c0.31,0,0.604,0.053,0.891,0.128c0.002,0,0.003,0.001,0.005,0.001c-0.226,0.045-0.487,0.075-0.823,0.075c-0.002,0-0.003,0-0.005,0
		c-0.002,0-0.004,0-0.006,0c-0.376,0-0.661-0.037-0.905-0.091c-0.174-0.039-0.331-0.085-0.474-0.139
		C54.21,677.261,54.211,677.26,54.213,677.259z M52.729,678.285c0.106,0.014,0.2,0.032,0.293,0.051
		c0.232-0.235,0.504-0.426,0.794-0.589c-0.045-0.018-0.093-0.036-0.137-0.055c-0.06-0.025-0.121-0.049-0.181-0.072
		c0.005-0.003,0.008-0.007,0.013-0.009c0.068,0.027,0.137,0.054,0.205,0.082c0.038,0.016,0.078,0.031,0.116,0.046
		c0.434,0.179,0.912,0.349,1.784,0.351c0.803-0.003,1.271-0.147,1.68-0.31c0.005,0.003,0.01,0.005,0.016,0.008
		c0.281,0.167,0.539,0.366,0.763,0.602c0.001,0.001,0.001,0.002,0.002,0.003c-0.277,0.071-0.523,0.155-0.743,0.247
		c-0.435,0.181-0.846,0.352-1.687,0.352c-0.002,0-0.004,0-0.006,0s-0.004,0-0.006,0c-0.841,0-1.252-0.171-1.687-0.352
		c-0.271-0.113-0.555-0.225-0.927-0.302c-0.093-0.019-0.188-0.037-0.293-0.051C52.728,678.287,52.729,678.286,52.729,678.285z
		 M52.046,679.744c0.052,0,0.089,0.006,0.138,0.008c0.098-0.308,0.225-0.602,0.398-0.867c-0.089-0.01-0.174-0.022-0.275-0.027
		c0,0,0,0,0,0c0.101,0.005,0.185,0.017,0.275,0.027c0.491,0.056,0.825,0.176,1.149,0.311c0.47,0.196,0.956,0.398,1.916,0.399
		c0.96,0,1.446-0.203,1.917-0.399c0.274-0.114,0.548-0.22,0.918-0.286c0,0,0,0,0,0c0.17,0.264,0.295,0.554,0.39,0.86c0,0,0,0,0,0
		c-0.701,0.048-1.137,0.207-1.535,0.373c-0.435,0.181-0.846,0.352-1.687,0.352c0,0,0,0,0,0s0,0,0,0
		c-0.841,0-1.252-0.171-1.687-0.352c-0.445-0.185-0.918-0.371-1.779-0.391C52.135,679.75,52.098,679.744,52.046,679.744
		C52.046,679.744,52.046,679.744,52.046,679.744z M57.364,683.797c-0.537,0.331-1.162,0.531-1.837,0.531
		c-0.824,0-1.572-0.296-2.172-0.772c-0.147-0.05-0.308-0.093-0.487-0.128c-0.004-0.004-0.008-0.007-0.012-0.01
		c0.178,0.032,0.333,0.074,0.479,0.121c0.152,0.049,0.293,0.104,0.433,0.162c0.468,0.195,0.953,0.396,1.904,0.398
		c0.866-0.002,1.343-0.169,1.775-0.346C57.418,683.77,57.389,683.781,57.364,683.797z M58.865,681.874
		c-0.109,0.341-0.258,0.662-0.459,0.949c0,0,0,0,0,0.001c-0.439,0.075-0.761,0.198-1.063,0.323
		c-0.435,0.181-0.846,0.352-1.687,0.352c-0.001,0-0.001,0-0.002,0s-0.001,0-0.002,0c-0.841,0-1.252-0.171-1.687-0.352
		c-0.359-0.15-0.755-0.292-1.341-0.354c-0.097-0.01-0.188-0.024-0.297-0.029c0,0,0,0,0,0c0.109,0.005,0.199,0.019,0.297,0.029
		c-0.195-0.284-0.335-0.603-0.44-0.938c-0.049-0.001-0.085-0.007-0.137-0.007c0,0,0,0,0,0c0.052,0,0.088,0.006,0.137,0.007
		c0.742,0.019,1.142,0.175,1.55,0.345c0.47,0.196,0.957,0.399,1.918,0.399c0.961,0,1.448-0.203,1.918-0.399
		C57.925,682.051,58.288,681.919,58.865,681.874L58.865,681.874z M59.048,680.807c0,0.155-0.026,0.303-0.046,0.453v0
		c-0.785,0.034-1.24,0.208-1.664,0.385c-0.435,0.181-0.846,0.352-1.687,0.352c0,0,0,0,0,0s0,0,0,0c-0.841,0-1.252-0.171-1.687-0.352
		c-0.47-0.196-0.956-0.398-1.913-0.398c-0.002,0-0.003,0-0.004,0c-0.092,0-0.16,0.01-0.244,0.013v0
		c0.083-0.004,0.152-0.013,0.243-0.013c0,0,0,0,0,0s0,0,0,0c0.002,0,0.003,0,0.004,0c-0.018-0.146-0.044-0.289-0.044-0.44
		c0-0.158,0.026-0.309,0.047-0.462c-0.002,0-0.004,0-0.006,0c0,0,0,0,0,0c0.002,0,0.004,0,0.006,0
		c0.837,0.001,1.247,0.171,1.681,0.352c0.47,0.196,0.957,0.399,1.918,0.399c0.961,0,1.448-0.203,1.918-0.399
		c0.385-0.161,0.77-0.306,1.433-0.339c0.084-0.004,0.156-0.013,0.25-0.013v0c-0.094,0-0.166,0.009-0.25,0.013
		C59.021,680.507,59.048,680.653,59.048,680.807z"/>
	<path class="st3" d="M61.276,643.577v21.375h10.562v-21.375H61.276z M61.776,664.452v-0.674c0.309-0.102,0.672-0.177,1.223-0.177
		c0.841,0,1.252,0.171,1.687,0.352c0.47,0.196,0.957,0.399,1.918,0.399s1.448-0.203,1.918-0.399
		c0.435-0.181,0.846-0.352,1.687-0.352c0.495,0,0.84,0.06,1.129,0.146v0.705H61.776z M70.21,663c-0.961,0-1.448,0.203-1.918,0.399
		c-0.435,0.181-0.846,0.352-1.687,0.352s-1.252-0.171-1.687-0.352c-0.47-0.196-0.957-0.399-1.918-0.399
		c-0.528,0-0.907,0.063-1.223,0.151v-0.876c0.309-0.102,0.672-0.177,1.223-0.177c0.841,0,1.252,0.171,1.687,0.352
		c0.47,0.196,0.957,0.399,1.918,0.399s1.448-0.203,1.918-0.399c0.435-0.181,0.846-0.352,1.687-0.352c0.495,0,0.84,0.06,1.129,0.146
		v0.883C71.042,663.052,70.688,663,70.21,663z M70.21,661.497c-0.961,0-1.448,0.203-1.918,0.399
		c-0.435,0.181-0.846,0.352-1.687,0.352s-1.252-0.171-1.687-0.352c-0.47-0.196-0.957-0.399-1.918-0.399
		c-0.528,0-0.907,0.063-1.223,0.151v-0.876c0.309-0.102,0.672-0.177,1.223-0.177c0.841,0,1.252,0.171,1.687,0.352
		c0.47,0.196,0.957,0.399,1.918,0.399s1.448-0.203,1.918-0.399c0.435-0.181,0.846-0.352,1.687-0.352c0.495,0,0.84,0.06,1.129,0.146
		v0.883C71.042,661.55,70.688,661.497,70.21,661.497z M70.21,659.995c-0.961,0-1.448,0.203-1.918,0.399
		c-0.435,0.181-0.846,0.352-1.687,0.352s-1.252-0.171-1.687-0.352c-0.47-0.196-0.957-0.399-1.918-0.399
		c-0.528,0-0.907,0.063-1.223,0.151v-0.876c0.309-0.102,0.672-0.177,1.223-0.177c0.841,0,1.252,0.171,1.687,0.352
		c0.47,0.196,0.957,0.399,1.918,0.399s1.448-0.203,1.918-0.399c0.435-0.181,0.846-0.352,1.687-0.352c0.495,0,0.84,0.06,1.129,0.146
		v0.883C71.042,660.048,70.688,659.995,70.21,659.995z M70.21,658.493c-0.961,0-1.448,0.203-1.918,0.399
		c-0.435,0.181-0.846,0.352-1.687,0.352s-1.252-0.171-1.687-0.352c-0.47-0.196-0.957-0.399-1.918-0.399
		c-0.528,0-0.907,0.063-1.223,0.151v-0.876c0.309-0.102,0.672-0.177,1.223-0.177c0.841,0,1.252,0.171,1.687,0.352
		c0.47,0.196,0.957,0.399,1.918,0.399s1.448-0.203,1.918-0.399c0.435-0.181,0.846-0.352,1.687-0.352c0.495,0,0.84,0.06,1.129,0.146
		v0.883C71.042,658.545,70.688,658.493,70.21,658.493z M70.21,656.991c-0.961,0-1.448,0.203-1.918,0.399
		c-0.435,0.181-0.846,0.352-1.687,0.352s-1.252-0.171-1.687-0.352c-0.47-0.196-0.957-0.399-1.918-0.399
		c-0.528,0-0.907,0.063-1.223,0.151v-0.876c0.309-0.102,0.672-0.177,1.223-0.177c0.841,0,1.252,0.171,1.687,0.352
		c0.47,0.196,0.957,0.399,1.918,0.399s1.448-0.203,1.918-0.399c0.435-0.181,0.846-0.352,1.687-0.352c0.495,0,0.84,0.06,1.129,0.146
		v0.883C71.042,657.043,70.688,656.991,70.21,656.991z M70.21,655.488c-0.961,0-1.448,0.203-1.918,0.399
		c-0.435,0.181-0.846,0.352-1.687,0.352s-1.252-0.171-1.687-0.352c-0.47-0.196-0.957-0.399-1.918-0.399
		c-0.528,0-0.907,0.063-1.223,0.151v-0.876c0.309-0.102,0.672-0.177,1.223-0.177c0.841,0,1.252,0.171,1.687,0.352
		c0.47,0.196,0.957,0.399,1.918,0.399s1.448-0.203,1.918-0.399c0.435-0.181,0.846-0.352,1.687-0.352c0.495,0,0.84,0.06,1.129,0.146
		v0.883C71.042,655.541,70.688,655.488,70.21,655.488z M70.21,653.986c-0.961,0-1.448,0.203-1.918,0.399
		c-0.435,0.181-0.846,0.352-1.687,0.352s-1.252-0.171-1.687-0.352c-0.47-0.196-0.957-0.399-1.918-0.399
		c-0.528,0-0.907,0.063-1.223,0.151v-0.876c0.309-0.102,0.672-0.177,1.223-0.177c0.841,0,1.252,0.171,1.687,0.352
		c0.47,0.196,0.957,0.399,1.918,0.399s1.448-0.203,1.918-0.399c0.435-0.181,0.846-0.352,1.687-0.352c0.495,0,0.84,0.06,1.129,0.146
		v0.883C71.042,654.039,70.688,653.986,70.21,653.986z M70.21,652.484c-0.961,0-1.448,0.203-1.918,0.399
		c-0.435,0.181-0.846,0.352-1.687,0.352s-1.252-0.171-1.687-0.352c-0.47-0.196-0.957-0.399-1.918-0.399
		c-0.528,0-0.907,0.063-1.223,0.151v-0.876c0.309-0.102,0.672-0.177,1.223-0.177c0.841,0,1.252,0.171,1.687,0.352
		c0.47,0.196,0.957,0.399,1.918,0.399s1.448-0.203,1.918-0.399c0.435-0.181,0.846-0.352,1.687-0.352c0.495,0,0.84,0.06,1.129,0.146
		v0.883C71.042,652.536,70.688,652.484,70.21,652.484z M70.21,650.982c-0.961,0-1.448,0.203-1.918,0.399
		c-0.435,0.181-0.846,0.352-1.687,0.352s-1.252-0.171-1.687-0.352c-0.47-0.196-0.957-0.399-1.918-0.399
		c-0.528,0-0.907,0.063-1.223,0.151v-0.876c0.309-0.102,0.672-0.177,1.223-0.177c0.841,0,1.252,0.171,1.687,0.352
		c0.47,0.196,0.957,0.399,1.918,0.399s1.448-0.203,1.918-0.399c0.435-0.181,0.846-0.352,1.687-0.352c0.495,0,0.84,0.06,1.129,0.146
		v0.883C71.042,651.034,70.688,650.982,70.21,650.982z M70.21,649.48c-0.961,0-1.448,0.203-1.918,0.399
		c-0.435,0.181-0.846,0.352-1.687,0.352s-1.252-0.171-1.687-0.352c-0.47-0.196-0.957-0.399-1.918-0.399
		c-0.528,0-0.907,0.063-1.223,0.151v-0.876c0.309-0.102,0.672-0.177,1.223-0.177c0.841,0,1.252,0.171,1.687,0.352
		c0.47,0.196,0.957,0.399,1.918,0.399s1.448-0.203,1.918-0.399c0.435-0.181,0.846-0.352,1.687-0.352c0.495,0,0.84,0.06,1.129,0.146
		v0.883C71.042,649.532,70.688,649.48,70.21,649.48z M70.21,647.977c-0.961,0-1.448,0.203-1.918,0.399
		c-0.435,0.181-0.846,0.352-1.687,0.352s-1.252-0.171-1.687-0.352c-0.47-0.196-0.957-0.399-1.918-0.399
		c-0.528,0-0.907,0.063-1.223,0.151v-0.876c0.309-0.102,0.672-0.177,1.223-0.177c0.841,0,1.252,0.171,1.687,0.352
		c0.47,0.196,0.957,0.399,1.918,0.399s1.448-0.203,1.918-0.399c0.435-0.181,0.846-0.352,1.687-0.352c0.495,0,0.84,0.06,1.129,0.146
		v0.883C71.042,648.03,70.688,647.977,70.21,647.977z M70.21,646.475c-0.961,0-1.448,0.203-1.918,0.399
		c-0.435,0.181-0.846,0.352-1.687,0.352s-1.252-0.171-1.687-0.352c-0.47-0.196-0.957-0.399-1.918-0.399
		c-0.528,0-0.907,0.063-1.223,0.151v-0.876c0.309-0.102,0.672-0.177,1.223-0.177c0.841,0,1.252,0.171,1.687,0.352
		c0.47,0.196,0.957,0.399,1.918,0.399s1.448-0.203,1.918-0.399c0.435-0.181,0.846-0.352,1.687-0.352c0.495,0,0.84,0.06,1.129,0.146
		v0.883C71.042,646.528,70.688,646.475,70.21,646.475z M70.21,644.973c-0.961,0-1.448,0.203-1.918,0.399
		c-0.435,0.181-0.846,0.352-1.687,0.352s-1.252-0.171-1.687-0.352c-0.47-0.196-0.957-0.399-1.918-0.399
		c-0.528,0-0.907,0.063-1.223,0.151v-0.876c0.285-0.094,0.626-0.161,1.108-0.172h0.211c0.77,0.014,1.174,0.174,1.591,0.347
		c0.47,0.196,0.957,0.399,1.918,0.399s1.448-0.203,1.918-0.399c0.416-0.173,0.821-0.333,1.591-0.347h0.223
		c0.424,0.01,0.74,0.063,1.002,0.141v0.883C71.042,645.025,70.688,644.973,70.21,644.973z M65.49,644.077h2.229
		c-0.288,0.084-0.625,0.145-1.114,0.145S65.778,644.161,65.49,644.077z"/>
	<path class="st4" d="M55.614,79.712v-1.016c0.344,0.2,0.616,0.312,0.88,0.312c0.28,0,0.52-0.136,0.52-0.479v-0.016
		c0-0.256-0.08-0.448-0.543-0.976c-0.664-0.751-0.936-1.111-0.936-1.791V75.73c0-0.896,0.583-1.463,1.359-1.463
		c0.392,0,0.624,0.056,0.864,0.176v1.016c-0.304-0.176-0.488-0.256-0.744-0.256c-0.272,0-0.504,0.176-0.504,0.479v0.016
		c0,0.264,0.08,0.36,0.544,0.896c0.768,0.887,0.936,1.231,0.936,1.871v0.016c0,0.879-0.616,1.463-1.383,1.463
		C56.222,79.944,55.894,79.848,55.614,79.712z M58.318,78.273v-3.966h0.967v4.062c0,0.504,0.176,0.704,0.424,0.704
		c0.248,0,0.424-0.2,0.424-0.704v-4.062h0.968v3.966c0,1.175-0.592,1.703-1.392,1.703C58.91,79.976,58.318,79.448,58.318,78.273z
		 M61.662,74.307h0.912l0.983,2.83v-2.83h0.952v5.597h-0.864l-1.031-2.966v2.966h-0.952V74.307z M66.358,74.307h0.912
		c1.247,0,1.959,0.903,1.959,2.702v0.192c0,1.799-0.712,2.703-1.959,2.703h-0.912V74.307z M67.373,79.008
		c0.464,0,0.863-0.408,0.863-1.807v-0.192c0-1.399-0.399-1.807-0.863-1.807h-0.04v3.806H67.373z M69.71,74.307h2.143v0.927h-1.167
		v1.391h1.031v0.928h-1.031v1.423h1.19v0.928H69.71V74.307z M72.174,77.201v-0.192c0-1.967,0.728-2.742,1.639-2.742
		c0.272,0,0.432,0.032,0.64,0.128v1.007c-0.199-0.12-0.359-0.184-0.544-0.184c-0.432,0-0.743,0.384-0.743,1.783v0.208
		c0,1.479,0.312,1.783,0.76,1.783c0.151,0,0.344-0.056,0.544-0.176v0.959c-0.225,0.128-0.44,0.168-0.72,0.168
		C72.854,79.944,72.174,79.152,72.174,77.201z M74.958,74.307h0.975v2.342l0.792-2.342h1.104l-0.943,2.366l0.959,3.23h-1.087
		l-0.608-2.119l-0.216,0.616v1.503h-0.975V74.307z"/>
	<path class="st4" d="M52.446,668.52v0.688h-0.928v-2.351h0.928v0.688h4.669v0.976H52.446z M51.519,666.448v-0.976h2.319v-0.847
		h-2.319v-0.976h5.597v0.976h-2.351v0.847h2.351v0.976H51.519z M51.519,663.072v-2.143h0.928v1.167h1.391v-1.031h0.928v1.031h1.423
		v-1.191h0.927v2.167H51.519z M51.519,659.161v-0.976h2.319v-0.848h-2.319v-0.976h5.597v0.976h-2.351v0.848h2.351v0.976H51.519z
		 M51.503,655v-1.039l5.613-1.063v0.976l-1.111,0.184v0.888l1.111,0.176v0.943L51.503,655z M55.125,654.201l-1.847,0.296
		l1.847,0.304V654.201z M51.519,652.96v-0.992l3.646-0.527l-3.646-0.527v-0.96l5.613,1v1.007L51.519,652.96z M51.519,649.657v-2.144
		h0.928v1.168h1.391v-1.032h0.928v1.032h1.423v-1.191h0.927v2.167H51.519z M51.519,647.016v-0.911l2.831-0.983h-2.831v-0.951h5.597
		v0.863l-2.966,1.031h2.966v0.951H51.519z M54.413,642.417h-0.192c-1.967,0-2.742-0.728-2.742-1.64c0-0.271,0.032-0.432,0.128-0.64
		h1.007c-0.12,0.2-0.184,0.36-0.184,0.544c0,0.432,0.384,0.744,1.783,0.744h0.208c1.479,0,1.783-0.312,1.783-0.76
		c0-0.152-0.056-0.344-0.176-0.544h0.959c0.128,0.224,0.168,0.439,0.168,0.72C57.156,641.737,56.364,642.417,54.413,642.417z
		 M54.461,639.928h-0.288c-1.847,0-2.734-0.6-2.734-1.487s0.887-1.487,2.734-1.487h0.288c1.847,0,2.735,0.6,2.735,1.487
		S56.308,639.928,54.461,639.928z M54.461,637.946h-0.288c-1.439,0-1.839,0.199-1.839,0.495s0.4,0.496,1.839,0.496h0.288
		c1.439,0,1.839-0.2,1.839-0.496S55.9,637.946,54.461,637.946z M55.484,636.489h-3.966v-0.968h4.062
		c0.504,0,0.704-0.176,0.704-0.424s-0.2-0.424-0.704-0.424h-4.062v-0.968h3.966c1.176,0,1.703,0.592,1.703,1.392
		S56.66,636.489,55.484,636.489z M51.519,633.145v-1.008c0-1,0.528-1.728,1.783-1.728h0.072c0.728,0,1.191,0.288,1.471,0.656
		l2.271-0.752v1.04l-1.951,0.631v0.185h1.951v0.976H51.519z M54.285,632.122c0-0.424-0.248-0.736-0.903-0.736h-0.064
		c-0.704,0-0.888,0.336-0.888,0.76v0.024h1.855V632.122z M52.446,629.521v0.688h-0.928v-2.351h0.928v0.688h4.669v0.976H52.446z
		 M54.909,626.777l-3.391,1.04v-1.008l2.095-0.527l-2.095-0.536v-0.983l3.391,1.039h2.207v0.976H54.909z M51.503,624.009v-1.04
		l5.613-1.063v0.976l-1.111,0.185v0.887l1.111,0.177v0.943L51.503,624.009z M55.125,623.209l-1.847,0.296l1.847,0.304V623.209z
		 M51.519,621.609v-1.008c0-0.999,0.528-1.727,1.783-1.727h0.072c0.728,0,1.191,0.287,1.471,0.655l2.271-0.752v1.04l-1.951,0.632
		v0.184h1.951v0.976H51.519z M54.285,620.585c0-0.424-0.248-0.735-0.903-0.735h-0.064c-0.704,0-0.888,0.335-0.888,0.759v0.024h1.855
		V620.585z M51.519,618.424v-0.911c0-1.247,0.904-1.959,2.703-1.959h0.192c1.799,0,2.703,0.712,2.703,1.959v0.911H51.519z
		 M56.22,617.41c0-0.464-0.408-0.864-1.807-0.864h-0.192c-1.399,0-1.807,0.4-1.807,0.864v0.04h3.806V617.41z"/>
	<path class="st4" d="M75.962,692.524h1.008c0.999,0,1.727,0.527,1.727,1.783v0.071c0,0.728-0.287,1.191-0.655,1.472l0.752,2.271
		h-1.04l-0.631-1.951h-0.185v1.951h-0.976V692.524z M76.985,695.291c0.424,0,0.736-0.248,0.736-0.904v-0.063
		c0-0.704-0.336-0.888-0.76-0.888h-0.024v1.855H76.985z M79.147,692.524h1.007c1,0,1.728,0.527,1.728,1.783v0.071
		c0,0.728-0.288,1.191-0.655,1.472l0.751,2.271h-1.039l-0.632-1.951h-0.184v1.951h-0.976V692.524z M80.17,695.291
		c0.424,0,0.735-0.248,0.735-0.904v-0.063c0-0.704-0.336-0.888-0.76-0.888h-0.023v1.855H80.17z"/>
	<path class="st4" d="M51.321,692.524h1.007c1,0,1.727,0.527,1.727,1.783v0.071c0,0.728-0.288,1.191-0.656,1.472l0.751,2.271h-1.039
		l-0.632-1.951h-0.184v1.951h-0.976V692.524z M52.345,695.291c0.424,0,0.735-0.248,0.735-0.904v-0.063
		c0-0.704-0.336-0.888-0.759-0.888h-0.024v1.855H52.345z M54.505,692.524h1.008c1,0,1.727,0.527,1.727,1.783v0.071
		c0,0.728-0.288,1.191-0.656,1.472l0.751,2.271h-1.04l-0.631-1.951h-0.184v1.951h-0.976V692.524z M55.528,695.291
		c0.424,0,0.736-0.248,0.736-0.904v-0.063c0-0.704-0.336-0.888-0.76-0.888h-0.024v1.855H55.528z"/>
</g>
<g id="JADE_DECK_14_ROOMS">
	<g id="gDeck14Haven3BedroomGardenVillaH1">
		<g id="hDeck14Haven3BedroomGardenVillaH1">
			<g id="g14500">
				<g id="h14500">
					<path id="b14500" class="st5" d="M42.512,560.376h-9.647l-0.012-20.97h9.66V560.376z M1.304,586.802h8.72v-16.96H1.258v35.881
						h8.766v-18.921H1.304z M42.512,539.4h-9.66v0.006h9.66V539.4z M45.606,539.406V539.4h-3.094v0.006H45.606z M32.869,568.192
						l-0.005-7.816h-5.054v9.467h4.725h-4.725v16.96h4.951h-4.951H10.024v18.921h27.781V586.8h-4.936V568.192z M27.811,586.802
						v-16.96H10.024v16.96H27.811z M52.317,483.65c-18.022,1.872-30.621,7.164-38.801,12.081l10.229,16.785l-10.229-16.785
						c-8.535,5.131-12.258,9.854-12.258,9.854v64.257h8.766v-0.161v0.161h17.787v-9.467h5.054l-0.012-20.97H1.314h31.539V539.4h9.66
						h3.094v-11.277h-3.832v-3.373c0,0-0.198-1.31-1.27-1.191c-0.115,0-0.219,0.034-0.319,0.08l0.078,0.141l-0.078-0.141
						c-0.517,0.239-0.814,0.976-0.814,0.976h-4.569c0.059-0.586,0.227-1.135,0.448-1.656l-0.103-0.034l0.103,0.034
						c0.564-1.326,1.599-2.392,2.907-2.989l-0.034-0.061l0.034,0.061c0.728-0.332,1.528-0.534,2.38-0.534
						c1.854,0,3.508,0.873,4.502,2.235c0.298,0.315,0.47,0.891,0.567,1.381v-10.471H1.427h44.179v10.471
						c0.094,0.472,0.119,0.864,0.119,0.864l-0.021,4.207h-0.098V539.4h6.771l-0.003-0.236v-18.116l13-0.098v-37.002v37.002l0.044,0
						l0.143-37.5L52.317,483.65z M52.374,539.164l0.003,0.236h0.135v-18.25h12.863v-0.201l-13,0.098V539.164z M45.606,539.406
						h-3.094v20.97h-9.647l0.005,7.816V586.8h4.936v-0.198l-0.003-26.15h14.84L52.377,539.4h-6.771V539.406z M45.725,523.916
						c0,0-0.025-0.393-0.119-0.864v5.071h0.098L45.725,523.916z M38.157,519.969l2.028,3.669c-0.517,0.239-0.814,0.976-0.814,0.976
						h-4.569c0.059-0.586,0.227-1.135,0.448-1.656l4.183,1.394l-4.183-1.394C35.813,521.631,36.849,520.566,38.157,519.969z
						 M36.575,521.137l3.135,2.778L36.575,521.137z M45.606,523.051v5.071h-3.832v-3.373c0,0-0.198-1.31-1.27-1.191
						c-0.115,0-0.219,0.034-0.319,0.08l-2.028-3.669c0.728-0.332,1.528-0.534,2.38-0.534c1.854,0,3.508,0.873,4.502,2.235
						C45.337,521.985,45.509,522.561,45.606,523.051z M40.306,519.669l0.397,3.85L40.306,519.669z M41.02,523.519l1.389-3.532
						L41.02,523.519z M41.497,523.836l2.699-2.778L41.497,523.836z M45.188,522.448l-3.413,1.627L45.188,522.448z M45.434,524.615
						h-3.651H45.434z M41.782,526.917h3.651H41.782z M41.782,525.686h3.651H41.782z"/>
					<path id="t14500GardenVillaHotTub" class="st4" d="M12.842,518.356v-0.192c0-1.807,0.768-2.742,1.871-2.742
						c0.295,0,0.543,0.063,0.743,0.16v1.015c-0.24-0.144-0.456-0.239-0.711-0.239c-0.56,0-0.912,0.56-0.912,1.767v0.272
						c0,1.463,0.432,1.799,0.832,1.799c0.032,0,0.04,0,0.088-0.008v-1.432h-0.479v-0.871h1.367v2.974
						c-0.352,0.152-0.64,0.24-1.016,0.24C13.65,521.098,12.842,520.306,12.842,518.356z M16.962,515.445h1.039l1.063,5.613h-0.976
						l-0.184-1.111h-0.888l-0.176,1.111h-0.943L16.962,515.445z M17.761,519.067l-0.296-1.847l-0.304,1.847H17.761z M19.362,515.461
						h1.007c1,0,1.727,0.527,1.727,1.783v0.071c0,0.728-0.288,1.191-0.656,1.472l0.751,2.271h-1.039l-0.632-1.951h-0.184v1.951
						h-0.975V515.461z M20.386,518.228c0.423,0,0.735-0.248,0.735-0.904v-0.063c0-0.704-0.336-0.888-0.76-0.888h-0.024v1.855H20.386
						z M22.546,515.461h0.912c1.248,0,1.959,0.903,1.959,2.702v0.192c0,1.799-0.711,2.702-1.959,2.702h-0.912V515.461z
						 M23.562,520.163c0.464,0,0.863-0.408,0.863-1.807v-0.192c0-1.399-0.399-1.807-0.863-1.807h-0.04v3.806H23.562z
						 M25.898,515.461h2.143v0.928h-1.167v1.391h1.031v0.928h-1.031v1.423h1.191v0.928h-2.167V515.461z M28.538,515.461h0.911
						l0.983,2.83v-2.83h0.952v5.597h-0.863l-1.032-2.967v2.967h-0.951V515.461z M15.894,523.461h0.992l0.528,3.646l0.527-3.646H18.9
						l-1,5.612h-1.007L15.894,523.461z M19.214,523.461h0.976v5.597h-0.976V523.461z M20.782,523.461h0.976v4.669h1.032v0.928
						h-2.007V523.461z M23.182,523.461h0.976v4.669h1.032v0.928h-2.007V523.461z M26.325,523.445h1.04l1.063,5.613h-0.976
						l-0.184-1.111h-0.888l-0.176,1.111h-0.943L26.325,523.445z M27.125,527.067l-0.296-1.847l-0.304,1.847H27.125z M12.694,531.461
						h0.976v2.318h0.848v-2.318h0.976v5.597h-0.976v-2.351H13.67v2.351h-0.976V531.461z M15.974,534.404v-0.288
						c0-1.847,0.6-2.734,1.487-2.734c0.887,0,1.487,0.888,1.487,2.734v0.288c0,1.847-0.6,2.734-1.487,2.734
						C16.574,537.138,15.974,536.25,15.974,534.404z M17.957,534.404v-0.288c0-1.439-0.2-1.839-0.496-1.839
						s-0.496,0.399-0.496,1.839v0.288c0,1.438,0.2,1.839,0.496,1.839S17.957,535.842,17.957,534.404z M19.79,532.389h-0.688v-0.928
						h2.351v0.928h-0.688v4.669H19.79V532.389z M23.654,532.389h-0.688v-0.928h2.351v0.928h-0.688v4.669h-0.976V532.389z
						 M25.71,535.427v-3.966h0.967v4.062c0,0.504,0.176,0.704,0.424,0.704c0.248,0,0.424-0.2,0.424-0.704v-4.062h0.967v3.966
						c0,1.175-0.591,1.703-1.391,1.703C26.302,537.13,25.71,536.602,25.71,535.427z M29.054,531.461h0.848
						c0.943,0,1.823,0.384,1.823,1.423v0.04c0,0.72-0.408,1.071-0.807,1.264c0.472,0.208,0.879,0.535,0.879,1.247v0.072
						c0,0.991-0.768,1.551-1.855,1.551h-0.888V531.461z M30.046,533.812c0.432,0,0.719-0.248,0.719-0.735v-0.017
						c0-0.487-0.288-0.695-0.719-0.695h-0.016v1.447H30.046z M30.053,536.155c0.448,0,0.768-0.264,0.768-0.728v-0.04
						c0-0.464-0.32-0.728-0.768-0.728h-0.024v1.495H30.053z"/>
					<path id="p14500" class="st4" d="M8.802,522.453c-2.217,0-4.021,1.804-4.021,4.021s1.804,4.021,4.021,4.021
						s4.021-1.804,4.021-4.021S11.019,522.453,8.802,522.453z M7.489,522.926c0.143,0.054,0.3,0.1,0.474,0.139
						c0.271-0.067,0.549-0.112,0.84-0.112c0.31,0,0.604,0.053,0.891,0.128c0.002,0,0.003,0.001,0.005,0.001
						c-0.226,0.045-0.487,0.075-0.823,0.075c-0.002,0-0.003,0-0.005,0c-0.002,0-0.004,0-0.006,0c-0.376,0-0.661-0.037-0.905-0.091
						c-0.174-0.039-0.331-0.085-0.474-0.139C7.486,522.928,7.487,522.927,7.489,522.926z M6.005,523.952
						c0.106,0.014,0.2,0.032,0.293,0.051c0.232-0.235,0.504-0.426,0.794-0.589c-0.045-0.018-0.093-0.036-0.137-0.055
						c-0.06-0.025-0.121-0.049-0.181-0.072c0.005-0.003,0.008-0.007,0.013-0.009c0.068,0.027,0.137,0.054,0.205,0.082
						c0.038,0.016,0.078,0.031,0.116,0.046c0.434,0.179,0.912,0.349,1.784,0.351c0.803-0.003,1.271-0.147,1.68-0.31
						c0.005,0.003,0.01,0.005,0.016,0.008c0.281,0.167,0.539,0.366,0.763,0.602c0.001,0.001,0.001,0.002,0.002,0.003
						c-0.277,0.071-0.523,0.155-0.743,0.247c-0.435,0.181-0.846,0.352-1.687,0.352c-0.002,0-0.004,0-0.006,0s-0.004,0-0.006,0
						c-0.841,0-1.252-0.171-1.687-0.352c-0.271-0.113-0.555-0.225-0.927-0.302c-0.093-0.019-0.188-0.037-0.293-0.051
						C6.004,523.954,6.005,523.953,6.005,523.952z M5.322,525.411c0.052,0,0.089,0.006,0.138,0.008
						c0.098-0.308,0.225-0.602,0.398-0.867c-0.089-0.01-0.174-0.022-0.275-0.027c0,0,0,0,0,0c0.101,0.005,0.185,0.017,0.275,0.027
						c0.491,0.056,0.825,0.176,1.149,0.311c0.47,0.196,0.956,0.398,1.916,0.399c0.96,0,1.446-0.203,1.917-0.399
						c0.274-0.114,0.548-0.22,0.918-0.286c0,0,0,0,0,0c0.17,0.264,0.295,0.554,0.39,0.86c0,0,0,0,0,0
						c-0.701,0.048-1.137,0.207-1.535,0.373c-0.435,0.181-0.846,0.352-1.687,0.352c0,0,0,0,0,0s0,0,0,0
						c-0.841,0-1.252-0.171-1.687-0.352c-0.445-0.185-0.918-0.371-1.779-0.391C5.411,525.417,5.374,525.411,5.322,525.411
						C5.322,525.411,5.322,525.411,5.322,525.411z M10.64,529.464c-0.537,0.331-1.162,0.531-1.837,0.531
						c-0.824,0-1.572-0.296-2.172-0.772c-0.147-0.05-0.308-0.093-0.487-0.128c-0.004-0.004-0.008-0.007-0.012-0.01
						c0.178,0.032,0.333,0.074,0.479,0.121c0.152,0.049,0.293,0.104,0.433,0.162c0.468,0.195,0.953,0.396,1.904,0.398
						c0.866-0.002,1.343-0.169,1.775-0.346C10.694,529.437,10.665,529.448,10.64,529.464z M12.141,527.541
						c-0.109,0.341-0.258,0.662-0.459,0.949c0,0,0,0,0,0.001c-0.439,0.075-0.761,0.198-1.063,0.323
						c-0.435,0.181-0.846,0.352-1.687,0.352c-0.001,0-0.001,0-0.002,0s-0.001,0-0.002,0c-0.841,0-1.252-0.171-1.687-0.352
						c-0.359-0.15-0.755-0.292-1.341-0.354c-0.097-0.01-0.188-0.024-0.297-0.029c0,0,0,0,0,0c0.109,0.005,0.199,0.019,0.297,0.029
						c-0.195-0.284-0.335-0.603-0.44-0.938c-0.049-0.001-0.085-0.007-0.137-0.007c0,0,0,0,0,0c0.052,0,0.088,0.006,0.137,0.007
						c0.742,0.019,1.142,0.175,1.55,0.345c0.47,0.196,0.957,0.399,1.918,0.399c0.961,0,1.448-0.203,1.918-0.399
						C11.201,527.718,11.564,527.586,12.141,527.541L12.141,527.541z M12.324,526.474c0,0.155-0.026,0.303-0.046,0.453v0
						c-0.785,0.034-1.24,0.208-1.664,0.385c-0.435,0.181-0.846,0.352-1.687,0.352c0,0,0,0,0,0s0,0,0,0
						c-0.841,0-1.252-0.171-1.687-0.352c-0.47-0.196-0.956-0.398-1.913-0.398c-0.002,0-0.003,0-0.004,0
						c-0.092,0-0.16,0.01-0.244,0.013v0c0.083-0.004,0.152-0.013,0.243-0.013c0,0,0,0,0,0s0,0,0,0c0.002,0,0.003,0,0.004,0
						c-0.018-0.146-0.044-0.289-0.044-0.44c0-0.158,0.026-0.309,0.047-0.462c-0.002,0-0.004,0-0.006,0c0,0,0,0,0,0
						c0.002,0,0.004,0,0.006,0c0.837,0.001,1.247,0.171,1.681,0.352c0.47,0.196,0.957,0.399,1.918,0.399
						c0.961,0,1.448-0.203,1.918-0.399c0.385-0.161,0.77-0.306,1.433-0.339c0.084-0.004,0.156-0.013,0.25-0.013v0
						c-0.094,0-0.166,0.009-0.25,0.013C12.297,526.174,12.324,526.32,12.324,526.474z"/>
					<path id="t14500" class="st4" d="M38.56,497.454l0.28-0.472h0.91v4.142h-0.485v-3.67H38.56z M43.672,500.069v0.45h-0.463v0.604
						h-0.484v-0.604H40.72l2.488-3.713v3.263H43.672z M42.724,498.361h-0.011l-1.142,1.708h1.153V498.361z M45.494,497.454
						l-0.253,0.852l0.286-0.016c0.787,0,1.304,0.687,1.304,1.449c0,0.874-0.668,1.473-1.503,1.473c-0.501,0-1.002-0.27-1.239-0.725
						l0.377-0.363c0.124,0.352,0.539,0.615,0.899,0.615c0.549,0,0.98-0.461,0.98-1.016c0-0.533-0.447-0.983-0.97-0.983
						c-0.286,0-0.582,0.137-0.759,0.368h-0.097l0.625-2.126h1.626v0.472H45.494z M47.267,499.052c0-0.851,0.366-2.158,1.417-2.158
						s1.417,1.308,1.417,2.158c0,0.847-0.372,2.159-1.417,2.159S47.267,499.899,47.267,499.052z M47.752,499.047
						c0,0.571,0.205,1.703,0.932,1.703c0.728,0,0.932-1.132,0.932-1.703s-0.205-1.714-0.932-1.714
						C47.956,497.333,47.752,498.476,47.752,499.047z M50.575,499.052c0-0.851,0.366-2.158,1.417-2.158s1.417,1.308,1.417,2.158
						c0,0.847-0.372,2.159-1.417,2.159S50.575,499.899,50.575,499.052z M51.06,499.047c0,0.571,0.205,1.703,0.932,1.703
						s0.932-1.132,0.932-1.703s-0.205-1.714-0.932-1.714S51.06,498.476,51.06,499.047z"/>
				</g>
			</g>
			<g id="g14000">
				<g id="h14000">
					<path id="b14000" class="st5" d="M87.483,539.406V539.4h12.845v0.006H87.483z M100.327,539.406H87.483V539.4h-6.682
						l-0.265,21.052h14.84l-0.003,26.15v0.2h4.954V539.406z M100.327,586.802h-4.954v18.921h27.691v-18.921H100.327z
						 M119.597,495.692l-10.254,16.824L119.597,495.692c-8.182-4.906-20.76-10.175-38.734-12.042l-13.245-0.201l0,0.1l13.488,0.189
						l-13.488-0.189l0.141,37.4l13.045,0.099v18.116l-0.003,0.236h6.682v-11.277h-0.098l-0.021-4.207c0,0,0.025-0.392,0.118-0.863
						v-10.471h44.292H87.483v10.471c0.097-0.49,0.269-1.066,0.567-1.382c0.994-1.362,2.647-2.235,4.502-2.235
						c0.852,0,1.652,0.202,2.38,0.534l0.034-0.061l-0.034,0.061c1.308,0.597,2.344,1.662,2.907,2.989l0.104-0.035l-0.104,0.035
						c0.221,0.521,0.388,1.07,0.447,1.656h-4.568c0,0-0.298-0.737-0.815-0.976l-0.078,0.141l0.078-0.141
						c-0.099-0.046-0.203-0.08-0.318-0.08c-1.072-0.118-1.271,1.191-1.271,1.191v3.373h-3.832V539.4h12.845v0.006h31.447h-31.447
						v47.396h22.737v-16.96h-22.511h22.511v-0.161v0.161h8.796h-8.796v16.96h8.72h-8.72v18.921h8.857V505.585
						C131.921,505.585,128.178,500.838,119.597,495.692z M87.364,523.916l0.021,4.207h0.098v-5.07
						C87.389,523.523,87.364,523.916,87.364,523.916z M91.314,528.122h-3.832v-5.07c0.097-0.49,0.269-1.066,0.567-1.382
						c0.994-1.362,2.647-2.235,4.502-2.235c0.852,0,1.652,0.202,2.38,0.534l-2.029,3.669c-0.099-0.046-0.203-0.08-0.318-0.08
						c-1.072-0.118-1.271,1.191-1.271,1.191V528.122z M92.782,519.669l-0.397,3.85L92.782,519.669z M92.068,523.519l-1.39-3.532
						L92.068,523.519z M91.592,523.836l-2.698-2.778L91.592,523.836z M87.655,526.917h3.65H87.655z M87.655,525.686h3.65H87.655z
						 M87.655,524.615h3.65H87.655z M87.901,522.448l3.412,1.627L87.901,522.448z M92.903,523.638l2.029-3.669
						c1.308,0.597,2.344,1.662,2.907,2.989l-4.183,1.394l4.183-1.394c0.221,0.521,0.388,1.07,0.447,1.656h-4.568
						C93.718,524.614,93.42,523.877,92.903,523.638z M96.513,521.137l-3.135,2.778L96.513,521.137z"/>
					<path id="t14000GardenVillaHotTub" class="st4" d="M100.308,518.356v-0.192c0-1.807,0.768-2.742,1.871-2.742
						c0.296,0,0.544,0.063,0.744,0.16v1.015c-0.24-0.144-0.456-0.239-0.712-0.239c-0.56,0-0.911,0.56-0.911,1.767v0.272
						c0,1.463,0.432,1.799,0.831,1.799c0.032,0,0.04,0,0.088-0.008v-1.432h-0.479v-0.871h1.367v2.974
						c-0.352,0.152-0.64,0.24-1.016,0.24C101.115,521.098,100.308,520.306,100.308,518.356z M104.428,515.445h1.039l1.063,5.613
						h-0.976l-0.184-1.111h-0.888l-0.176,1.111h-0.943L104.428,515.445z M105.228,519.067l-0.296-1.847l-0.305,1.847H105.228z
						 M106.828,515.461h1.007c1,0,1.728,0.527,1.728,1.783v0.071c0,0.728-0.288,1.191-0.655,1.472l0.751,2.271h-1.039l-0.632-1.951
						h-0.184v1.951h-0.976V515.461z M107.852,518.228c0.424,0,0.735-0.248,0.735-0.904v-0.063c0-0.704-0.336-0.888-0.76-0.888
						h-0.023v1.855H107.852z M110.012,515.461h0.912c1.247,0,1.958,0.903,1.958,2.702v0.192c0,1.799-0.711,2.702-1.958,2.702h-0.912
						V515.461z M111.027,520.163c0.464,0,0.863-0.408,0.863-1.807v-0.192c0-1.399-0.399-1.807-0.863-1.807h-0.04v3.806H111.027z
						 M113.364,515.461h2.143v0.928h-1.168v1.391h1.032v0.928h-1.032v1.423h1.191v0.928h-2.166V515.461z M116.004,515.461h0.911
						l0.983,2.83v-2.83h0.952v5.597h-0.864l-1.031-2.967v2.967h-0.951V515.461z M103.36,523.461h0.991l0.527,3.646l0.528-3.646
						h0.959l-0.999,5.612h-1.008L103.36,523.461z M106.68,523.461h0.976v5.597h-0.976V523.461z M108.248,523.461h0.976v4.669h1.031
						v0.928h-2.007V523.461z M110.648,523.461h0.976v4.669h1.031v0.928h-2.007V523.461z M113.791,523.445h1.04l1.063,5.613h-0.976
						l-0.185-1.111h-0.887l-0.177,1.111h-0.943L113.791,523.445z M114.591,527.067l-0.296-1.847l-0.304,1.847H114.591z
						 M100.16,531.461h0.976v2.318h0.847v-2.318h0.976v5.597h-0.976v-2.351h-0.847v2.351h-0.976V531.461z M103.44,534.404v-0.288
						c0-1.847,0.601-2.734,1.487-2.734c0.888,0,1.487,0.888,1.487,2.734v0.288c0,1.847-0.6,2.734-1.487,2.734
						C104.04,537.138,103.44,536.25,103.44,534.404z M105.423,534.404v-0.288c0-1.439-0.2-1.839-0.496-1.839
						s-0.495,0.399-0.495,1.839v0.288c0,1.438,0.199,1.839,0.495,1.839S105.423,535.842,105.423,534.404z M107.256,532.389h-0.688
						v-0.928h2.351v0.928h-0.688v4.669h-0.976V532.389z M111.119,532.389h-0.688v-0.928h2.351v0.928h-0.688v4.669h-0.976V532.389z
						 M113.176,535.427v-3.966h0.968v4.062c0,0.504,0.176,0.704,0.424,0.704c0.247,0,0.424-0.2,0.424-0.704v-4.062h0.967v3.966
						c0,1.175-0.592,1.703-1.391,1.703C113.768,537.13,113.176,536.602,113.176,535.427z M116.52,531.461h0.848
						c0.943,0,1.823,0.384,1.823,1.423v0.04c0,0.72-0.408,1.071-0.808,1.264c0.472,0.208,0.879,0.535,0.879,1.247v0.072
						c0,0.991-0.768,1.551-1.854,1.551h-0.888V531.461z M117.511,533.812c0.432,0,0.72-0.248,0.72-0.735v-0.017
						c0-0.487-0.288-0.695-0.72-0.695h-0.016v1.447H117.511z M117.52,536.155c0.447,0,0.768-0.264,0.768-0.728v-0.04
						c0-0.464-0.32-0.728-0.768-0.728h-0.024v1.495H117.52z"/>
					<path id="p14000" class="st4" d="M124.693,522.453c-2.217,0-4.021,1.804-4.021,4.021s1.804,4.021,4.021,4.021
						s4.021-1.804,4.021-4.021S126.91,522.453,124.693,522.453z M123.38,522.926c0.143,0.054,0.3,0.1,0.474,0.139
						c0.271-0.067,0.549-0.112,0.84-0.112c0.31,0,0.604,0.053,0.891,0.128c0.002,0,0.003,0.001,0.005,0.001
						c-0.226,0.045-0.487,0.075-0.823,0.075c-0.002,0-0.003,0-0.005,0c-0.002,0-0.004,0-0.006,0c-0.376,0-0.661-0.037-0.905-0.091
						c-0.174-0.039-0.331-0.085-0.474-0.139C123.377,522.928,123.378,522.927,123.38,522.926z M121.896,523.952
						c0.106,0.014,0.2,0.032,0.293,0.051c0.232-0.235,0.504-0.426,0.794-0.589c-0.045-0.018-0.093-0.036-0.137-0.055
						c-0.06-0.025-0.121-0.049-0.181-0.072c0.005-0.003,0.008-0.007,0.013-0.009c0.068,0.027,0.137,0.054,0.205,0.082
						c0.038,0.016,0.078,0.031,0.116,0.046c0.434,0.179,0.912,0.349,1.784,0.351c0.803-0.003,1.271-0.147,1.68-0.31
						c0.005,0.003,0.01,0.005,0.016,0.008c0.281,0.167,0.539,0.366,0.763,0.602c0.001,0.001,0.001,0.002,0.002,0.003
						c-0.277,0.071-0.523,0.155-0.743,0.247c-0.435,0.181-0.846,0.352-1.687,0.352c-0.002,0-0.004,0-0.006,0s-0.004,0-0.006,0
						c-0.841,0-1.252-0.171-1.687-0.352c-0.271-0.113-0.555-0.225-0.927-0.302c-0.093-0.019-0.188-0.037-0.293-0.051
						C121.895,523.954,121.896,523.953,121.896,523.952z M121.213,525.411c0.052,0,0.089,0.006,0.138,0.008
						c0.098-0.308,0.225-0.602,0.398-0.867c-0.089-0.01-0.174-0.022-0.275-0.027c0,0,0,0,0,0c0.101,0.005,0.185,0.017,0.275,0.027
						c0.491,0.056,0.825,0.176,1.149,0.311c0.47,0.196,0.956,0.398,1.916,0.399c0.96,0,1.446-0.203,1.917-0.399
						c0.274-0.114,0.548-0.22,0.918-0.286c0,0,0,0,0,0c0.17,0.264,0.295,0.554,0.39,0.86c0,0,0,0,0,0
						c-0.701,0.048-1.137,0.207-1.535,0.373c-0.435,0.181-0.846,0.352-1.687,0.352c0,0,0,0,0,0s0,0,0,0
						c-0.841,0-1.252-0.171-1.687-0.352c-0.445-0.185-0.918-0.371-1.779-0.391C121.302,525.417,121.265,525.411,121.213,525.411
						C121.213,525.411,121.213,525.411,121.213,525.411z M126.531,529.464c-0.537,0.331-1.162,0.531-1.837,0.531
						c-0.824,0-1.572-0.296-2.172-0.772c-0.147-0.05-0.308-0.093-0.487-0.128c-0.004-0.004-0.008-0.007-0.012-0.01
						c0.178,0.032,0.333,0.074,0.479,0.121c0.152,0.049,0.293,0.104,0.433,0.162c0.468,0.195,0.953,0.396,1.904,0.398
						c0.866-0.002,1.343-0.169,1.775-0.346C126.585,529.437,126.556,529.448,126.531,529.464z M128.032,527.541
						c-0.109,0.341-0.258,0.662-0.459,0.949c0,0,0,0,0,0.001c-0.439,0.075-0.761,0.198-1.063,0.323
						c-0.435,0.181-0.846,0.352-1.687,0.352c-0.001,0-0.001,0-0.002,0s-0.001,0-0.002,0c-0.841,0-1.252-0.171-1.687-0.352
						c-0.359-0.15-0.755-0.292-1.341-0.354c-0.097-0.01-0.188-0.024-0.297-0.029c0,0,0,0,0,0c0.109,0.005,0.199,0.019,0.297,0.029
						c-0.195-0.284-0.335-0.603-0.44-0.938c-0.049-0.001-0.085-0.007-0.137-0.007c0,0,0,0,0,0c0.052,0,0.088,0.006,0.137,0.007
						c0.742,0.019,1.142,0.175,1.55,0.345c0.47,0.196,0.957,0.399,1.918,0.399c0.961,0,1.448-0.203,1.918-0.399
						C127.092,527.718,127.455,527.586,128.032,527.541L128.032,527.541z M128.215,526.474c0,0.155-0.026,0.303-0.046,0.453v0
						c-0.785,0.034-1.24,0.208-1.664,0.385c-0.435,0.181-0.846,0.352-1.687,0.352c0,0,0,0,0,0s0,0,0,0
						c-0.841,0-1.252-0.171-1.687-0.352c-0.47-0.196-0.956-0.398-1.913-0.398c-0.002,0-0.003,0-0.004,0
						c-0.092,0-0.16,0.01-0.244,0.013v0c0.083-0.004,0.152-0.013,0.243-0.013c0,0,0,0,0,0s0,0,0,0c0.002,0,0.003,0,0.004,0
						c-0.018-0.146-0.044-0.289-0.044-0.44c0-0.158,0.026-0.309,0.047-0.462c-0.002,0-0.004,0-0.006,0c0,0,0,0,0,0
						c0.002,0,0.004,0,0.006,0c0.837,0.001,1.247,0.171,1.681,0.352c0.47,0.196,0.957,0.399,1.918,0.399
						c0.961,0,1.448-0.203,1.918-0.399c0.385-0.161,0.77-0.306,1.433-0.339c0.084-0.004,0.156-0.013,0.25-0.013v0
						c-0.094,0-0.166,0.009-0.25,0.013C128.188,526.174,128.215,526.32,128.215,526.474z"/>
					<path id="t14000" class="st4" d="M79.895,497.454l0.28-0.472h0.91v4.142H80.6v-3.67H79.895z M85.007,500.069v0.45h-0.463v0.604
						h-0.485v-0.604h-2.004l2.489-3.713v3.263H85.007z M84.059,498.361h-0.011l-1.142,1.708h1.152V498.361z M85.367,499.052
						c0-0.851,0.366-2.158,1.417-2.158c1.05,0,1.417,1.308,1.417,2.158c0,0.847-0.372,2.159-1.417,2.159
						S85.367,499.899,85.367,499.052z M85.853,499.047c0,0.571,0.204,1.703,0.932,1.703s0.932-1.132,0.932-1.703
						s-0.204-1.714-0.932-1.714S85.853,498.476,85.853,499.047z M88.676,499.052c0-0.851,0.366-2.158,1.417-2.158
						c1.05,0,1.416,1.308,1.416,2.158c0,0.847-0.371,2.159-1.416,2.159S88.676,499.899,88.676,499.052z M89.16,499.047
						c0,0.571,0.205,1.703,0.933,1.703c0.727,0,0.932-1.132,0.932-1.703s-0.205-1.714-0.932-1.714
						C89.365,497.333,89.16,498.476,89.16,499.047z M91.984,499.052c0-0.851,0.366-2.158,1.416-2.158
						c1.051,0,1.417,1.308,1.417,2.158c0,0.847-0.372,2.159-1.417,2.159S91.984,499.899,91.984,499.052z M92.469,499.047
						c0,0.571,0.205,1.703,0.932,1.703c0.728,0,0.933-1.132,0.933-1.703s-0.205-1.714-0.933-1.714
						C92.674,497.333,92.469,498.476,92.469,499.047z"/>
				</g>
			</g>
		</g>
	</g>
	<g id="gDeck14HavenCourtyardPenthouseBalconyH5">
		<g id="hDeck14HavenCourtyardPenthouseBalconyH5">
			<g id="g14514">
				<g id="h14514">
					<path id="b14514" class="st5" d="M31.597,698.382v23.681H1.391v-11.005h5.218v-12.676H31.597z M6.609,698.382H1.391v12.676
						h5.218V698.382z"/>
					<path id="t14514" class="st4" d="M10.523,708.157l0.28-0.472h0.91v4.142h-0.484v-3.67H10.523z M15.635,710.772v0.45h-0.463
						v0.604h-0.485v-0.604h-2.003l2.488-3.713v3.263H15.635z M14.687,709.064h-0.011l-1.142,1.708h1.152V709.064z M17.457,708.157
						l-0.253,0.852l0.286-0.016c0.786,0,1.303,0.687,1.303,1.449c0,0.874-0.668,1.473-1.503,1.473c-0.5,0-1.001-0.27-1.239-0.725
						l0.377-0.363c0.124,0.352,0.539,0.615,0.9,0.615c0.549,0,0.98-0.461,0.98-1.016c0-0.533-0.447-0.983-0.969-0.983
						c-0.286,0-0.582,0.137-0.76,0.368h-0.097l0.625-2.126h1.627v0.472H17.457z M19.505,708.157l0.28-0.472h0.91v4.142h-0.485v-3.67
						H19.505z M24.617,710.772v0.45h-0.463v0.604H23.67v-0.604h-2.004l2.489-3.713v3.263H24.617z M23.67,709.064h-0.011
						l-1.142,1.708h1.153V709.064z"/>
				</g>
			</g>
			<g id="g14014">
				<g id="h14014">
					<path id="b14014" class="st5" d="M126.493,711.058h5.218v11.005h-30.207v-23.681h24.988V711.058z M126.493,698.382v12.676
						h5.218v-12.676H126.493z"/>
					<path id="t14014" class="st4" d="M109.173,708.157l0.28-0.472h0.91v4.142h-0.484v-3.67H109.173z M114.285,710.772v0.45h-0.463
						v0.604h-0.484v-0.604h-2.004l2.488-3.713v3.263H114.285z M113.338,709.064h-0.011l-1.143,1.708h1.153V709.064z
						 M114.647,709.755c0-0.851,0.366-2.158,1.416-2.158c1.051,0,1.417,1.308,1.417,2.158c0,0.847-0.372,2.159-1.417,2.159
						S114.647,710.602,114.647,709.755z M115.131,709.75c0,0.571,0.205,1.703,0.932,1.703c0.728,0,0.933-1.132,0.933-1.703
						s-0.205-1.714-0.933-1.714C115.336,708.037,115.131,709.179,115.131,709.75z M118.005,708.157l0.28-0.472h0.91v4.142h-0.484
						v-3.67H118.005z M123.117,710.772v0.45h-0.463v0.604h-0.485v-0.604h-2.003l2.488-3.713v3.263H123.117z M122.169,709.064h-0.011
						l-1.142,1.708h1.152V709.064z"/>
				</g>
			</g>
		</g>
	</g>
	<g id="gDeck14Haven2BedroomFamilyVillaBalconyH4">
		<g id="hDeck14Haven2BedroomFamilyVillaBalconyH4">
			<g id="g14006">
				<g id="h14006">
					<path id="b14006" class="st5" d="M131.711,605.815v11.634h-8.632v11.487H90.172v-23.121H131.711z M123.079,628.936h8.632
						v-11.487h-8.632V628.936z"/>
					<path id="t14006" class="st4" d="M101.14,616.174l0.28-0.472h0.91v4.142h-0.484v-3.67H101.14z M106.252,618.79v0.45h-0.463
						v0.604h-0.484v-0.604h-2.004l2.488-3.713v3.263H106.252z M105.305,617.082h-0.011l-1.143,1.708h1.153V617.082z
						 M106.613,617.773c0-0.851,0.366-2.158,1.417-2.158c1.05,0,1.416,1.308,1.416,2.158c0,0.847-0.371,2.159-1.416,2.159
						S106.613,618.62,106.613,617.773z M107.098,617.768c0,0.571,0.205,1.703,0.933,1.703c0.727,0,0.932-1.132,0.932-1.703
						s-0.205-1.714-0.932-1.714C107.303,616.054,107.098,617.197,107.098,617.768z M109.922,617.773
						c0-0.851,0.366-2.158,1.416-2.158c1.051,0,1.417,1.308,1.417,2.158c0,0.847-0.372,2.159-1.417,2.159
						S109.922,618.62,109.922,617.773z M110.406,617.768c0,0.571,0.205,1.703,0.932,1.703c0.728,0,0.932-1.132,0.932-1.703
						s-0.204-1.714-0.932-1.714C110.611,616.054,110.406,617.197,110.406,617.768z M115.377,615.868l-1.082,1.494l0.011,0.011
						c0.118-0.061,0.253-0.099,0.398-0.099c0.668,0,1.174,0.631,1.174,1.296c0,0.758-0.603,1.362-1.341,1.362
						c-0.7,0-1.352-0.594-1.352-1.324c0-0.417,0.204-0.769,0.441-1.093l1.384-1.9L115.377,615.868z M115.394,618.625
						c0-0.517-0.431-0.89-0.862-0.89c-0.441,0-0.861,0.412-0.861,0.862c0,0.478,0.398,0.874,0.861,0.874
						C114.984,619.471,115.394,619.086,115.394,618.625z"/>
				</g>
			</g>
			<g id="g14008">
				<g id="h14008">
					<path id="b14008" class="st5" d="M131.711,628.936v11.634h-8.632v11.487H90.172v-23.121H131.711z M123.079,652.056h8.632
						V640.57h-8.632V652.056z"/>
					<path id="t14008" class="st4" d="M101.124,639.481l0.28-0.473h0.91v4.142h-0.484v-3.669H101.124z M106.236,642.095v0.45h-0.463
						v0.604h-0.484v-0.604h-2.004l2.488-3.713v3.263H106.236z M105.289,640.387h-0.011l-1.143,1.708h1.153V640.387z
						 M106.598,641.079c0-0.852,0.366-2.158,1.417-2.158c1.05,0,1.416,1.307,1.416,2.158c0,0.847-0.371,2.159-1.416,2.159
						S106.598,641.925,106.598,641.079z M107.082,641.074c0,0.571,0.205,1.702,0.933,1.702c0.727,0,0.932-1.131,0.932-1.702
						s-0.205-1.714-0.932-1.714C107.287,639.36,107.082,640.502,107.082,641.074z M109.906,641.079c0-0.852,0.366-2.158,1.416-2.158
						c1.051,0,1.417,1.307,1.417,2.158c0,0.847-0.372,2.159-1.417,2.159S109.906,641.925,109.906,641.079z M110.391,641.074
						c0,0.571,0.205,1.702,0.932,1.702c0.728,0,0.932-1.131,0.932-1.702s-0.204-1.714-0.932-1.714
						C110.596,639.36,110.391,640.502,110.391,641.074z M113.912,641.002c-0.334-0.192-0.533-0.522-0.533-0.929
						c0-0.676,0.517-1.153,1.163-1.153s1.163,0.478,1.163,1.153c0,0.406-0.199,0.736-0.533,0.929
						c0.42,0.148,0.642,0.549,0.642,0.994c0,0.769-0.582,1.241-1.271,1.241s-1.271-0.473-1.271-1.241
						C113.271,641.551,113.491,641.151,113.912,641.002z M113.756,641.997c0,0.417,0.388,0.779,0.786,0.779s0.786-0.362,0.786-0.779
						c0-0.439-0.377-0.78-0.786-0.78S113.756,641.557,113.756,641.997z M113.853,640.074c0,0.329,0.35,0.703,0.689,0.703
						c0.339,0,0.689-0.374,0.689-0.703c0-0.396-0.323-0.714-0.689-0.714S113.853,639.678,113.853,640.074z"/>
				</g>
			</g>
			<g id="g14010">
				<g id="h14010">
					<path id="b14010" class="st5" d="M131.711,652.056v11.634h-8.632v11.487H90.172v-23.121H131.711z M123.079,675.177h8.632
						V663.69h-8.632V675.177z"/>
					<path id="t14010" class="st4" d="M101.536,662.264l0.28-0.472h0.91v4.142h-0.484v-3.67H101.536z M106.649,664.879v0.45h-0.463
						v0.604h-0.484v-0.604h-2.004l2.488-3.713v3.263H106.649z M105.701,663.171h-0.011l-1.143,1.708h1.153V663.171z M107.01,663.863
						c0-0.851,0.366-2.158,1.417-2.158c1.05,0,1.416,1.308,1.416,2.158c0,0.847-0.371,2.159-1.416,2.159
						S107.01,664.709,107.01,663.863z M107.494,663.858c0,0.571,0.205,1.703,0.933,1.703c0.727,0,0.932-1.132,0.932-1.703
						s-0.205-1.714-0.932-1.714C107.699,662.144,107.494,663.287,107.494,663.858z M110.368,662.264l0.28-0.472h0.91v4.142h-0.484
						v-3.67H110.368z M112.713,663.863c0-0.851,0.366-2.158,1.417-2.158s1.417,1.308,1.417,2.158c0,0.847-0.372,2.159-1.417,2.159
						S112.713,664.709,112.713,663.863z M113.198,663.858c0,0.571,0.204,1.703,0.932,1.703s0.932-1.132,0.932-1.703
						s-0.204-1.714-0.932-1.714S113.198,663.287,113.198,663.858z"/>
				</g>
			</g>
			<g id="g14012">
				<g id="h14012">
					<path id="b14012" class="st5" d="M131.711,675.262v11.634h-8.632v11.487H90.172v-23.121H131.711z M123.079,698.382h8.632
						v-11.487h-8.632V698.382z"/>
					<path id="t14012" class="st4" d="M101.624,685.856l0.279-0.473h0.91v4.142h-0.484v-3.669H101.624z M106.736,688.47v0.45h-0.464
						v0.604h-0.484v-0.604h-2.004l2.488-3.713v3.263H106.736z M105.788,686.762h-0.011l-1.143,1.708h1.153V686.762z
						 M107.097,687.454c0-0.852,0.366-2.158,1.417-2.158c1.05,0,1.416,1.307,1.416,2.158c0,0.847-0.371,2.159-1.416,2.159
						S107.097,688.3,107.097,687.454z M107.581,687.449c0,0.571,0.205,1.702,0.933,1.702c0.727,0,0.932-1.131,0.932-1.702
						s-0.205-1.714-0.932-1.714C107.786,685.735,107.581,686.877,107.581,687.449z M110.455,685.856l0.28-0.473h0.91v4.142h-0.484
						v-3.669H110.455z M115.352,689.052v0.473h-2.623l1.777-2.225c0.167-0.209,0.361-0.467,0.361-0.741
						c0-0.435-0.377-0.791-0.798-0.791c-0.414,0-0.754,0.34-0.78,0.758h-0.507c0.081-0.736,0.55-1.23,1.287-1.23
						c0.689,0,1.282,0.521,1.282,1.241c0,0.308-0.113,0.615-0.302,0.852l-1.336,1.664H115.352z"/>
				</g>
			</g>
			<g id="g14506">
				<g id="h14506">
					<path id="b14506" class="st5" d="M42.932,605.815v23.121H10.024v-11.487H1.392v-11.634H42.932z M1.392,617.449v11.487h8.632
						v-11.487H1.392z"/>
					<path id="t14506" class="st4" d="M16.641,616.174l0.28-0.472h0.91v4.142h-0.485v-3.67H16.641z M21.754,618.79v0.45H21.29v0.604
						h-0.484v-0.604h-2.004l2.488-3.713v3.263H21.754z M20.806,617.082h-0.011l-1.142,1.708h1.153V617.082z M23.575,616.174
						l-0.253,0.852l0.286-0.016c0.787,0,1.304,0.687,1.304,1.449c0,0.874-0.668,1.473-1.503,1.473c-0.501,0-1.002-0.27-1.239-0.725
						l0.377-0.363c0.124,0.352,0.539,0.615,0.899,0.615c0.549,0,0.98-0.461,0.98-1.016c0-0.533-0.447-0.983-0.97-0.983
						c-0.285,0-0.582,0.137-0.759,0.368H22.6l0.625-2.126h1.626v0.472H23.575z M25.348,617.773c0-0.851,0.366-2.158,1.417-2.158
						c1.051,0,1.417,1.308,1.417,2.158c0,0.847-0.372,2.159-1.417,2.159S25.348,618.62,25.348,617.773z M25.833,617.768
						c0,0.571,0.205,1.703,0.932,1.703c0.728,0,0.932-1.132,0.932-1.703s-0.205-1.714-0.932-1.714
						C26.038,616.054,25.833,617.197,25.833,617.768z M30.804,615.868l-1.083,1.494l0.011,0.011
						c0.119-0.061,0.253-0.099,0.399-0.099c0.668,0,1.174,0.631,1.174,1.296c0,0.758-0.604,1.362-1.341,1.362
						c-0.7,0-1.352-0.594-1.352-1.324c0-0.417,0.205-0.769,0.441-1.093l1.384-1.9L30.804,615.868z M30.82,618.625
						c0-0.517-0.431-0.89-0.862-0.89c-0.442,0-0.862,0.412-0.862,0.862c0,0.478,0.398,0.874,0.862,0.874
						C30.411,619.471,30.82,619.086,30.82,618.625z"/>
				</g>
			</g>
			<g id="g14508">
				<g id="h14508">
					<path id="b14508" class="st5" d="M42.932,628.936v23.121H10.024V640.57H1.392v-11.634H42.932z M1.392,640.57v11.487h8.632
						V640.57H1.392z"/>
					<path id="t14508" class="st4" d="M16.626,639.766l0.28-0.473h0.91v4.142h-0.485v-3.669H16.626z M21.738,642.38v0.45h-0.463
						v0.604H20.79v-0.604h-2.004l2.488-3.713v3.263H21.738z M20.79,640.672h-0.011l-1.142,1.708h1.153V640.672z M23.56,639.766
						l-0.253,0.851l0.286-0.017c0.787,0,1.304,0.688,1.304,1.451c0,0.873-0.668,1.472-1.503,1.472c-0.501,0-1.002-0.27-1.239-0.726
						l0.377-0.362c0.124,0.352,0.539,0.615,0.899,0.615c0.549,0,0.98-0.461,0.98-1.016c0-0.533-0.447-0.983-0.97-0.983
						c-0.286,0-0.582,0.137-0.759,0.368h-0.097l0.625-2.126h1.626v0.473H23.56z M25.333,641.364c0-0.852,0.366-2.158,1.417-2.158
						c1.051,0,1.417,1.307,1.417,2.158c0,0.847-0.372,2.159-1.417,2.159S25.333,642.21,25.333,641.364z M25.817,641.359
						c0,0.571,0.205,1.702,0.932,1.702c0.728,0,0.932-1.131,0.932-1.702s-0.205-1.714-0.932-1.714
						C26.022,639.645,25.817,640.788,25.817,641.359z M29.338,641.288c-0.334-0.192-0.533-0.522-0.533-0.929
						c0-0.676,0.517-1.153,1.164-1.153c0.646,0,1.163,0.478,1.163,1.153c0,0.406-0.199,0.736-0.533,0.929
						c0.42,0.148,0.641,0.549,0.641,0.994c0,0.769-0.582,1.241-1.271,1.241s-1.271-0.473-1.271-1.241
						C28.697,641.836,28.919,641.436,29.338,641.288z M29.182,642.282c0,0.417,0.388,0.779,0.787,0.779
						c0.398,0,0.786-0.362,0.786-0.779c0-0.439-0.377-0.78-0.786-0.78C29.559,641.501,29.182,641.842,29.182,642.282z
						 M29.279,640.359c0,0.329,0.35,0.703,0.689,0.703s0.689-0.374,0.689-0.703c0-0.396-0.323-0.714-0.689-0.714
						S29.279,639.963,29.279,640.359z"/>
				</g>
			</g>
			<g id="g14510">
				<g id="h14510">
					<path id="b14510" class="st5" d="M42.932,652.056v23.121H10.024V663.69H1.392v-11.634H42.932z M1.392,663.69v11.487h8.632
						V663.69H1.392z"/>
					<path id="t14510" class="st4" d="M16.925,662.264l0.28-0.472h0.911v4.142h-0.485v-3.67H16.925z M22.038,664.879v0.45h-0.463
						v0.604h-0.485v-0.604h-2.003l2.488-3.713v3.263H22.038z M21.089,663.171h-0.011l-1.142,1.708h1.152V663.171z M23.859,662.264
						l-0.253,0.852l0.286-0.016c0.786,0,1.303,0.687,1.303,1.449c0,0.874-0.668,1.473-1.502,1.473c-0.501,0-1.002-0.27-1.239-0.725
						l0.377-0.363c0.124,0.352,0.539,0.615,0.899,0.615c0.549,0,0.98-0.461,0.98-1.016c0-0.533-0.447-0.983-0.97-0.983
						c-0.286,0-0.582,0.137-0.76,0.368h-0.097l0.625-2.126h1.626v0.472H23.859z M25.907,662.264l0.28-0.472h0.91v4.142h-0.485v-3.67
						H25.907z M28.253,663.863c0-0.851,0.366-2.158,1.417-2.158s1.417,1.308,1.417,2.158c0,0.847-0.372,2.159-1.417,2.159
						S28.253,664.709,28.253,663.863z M28.737,663.858c0,0.571,0.205,1.703,0.932,1.703s0.932-1.132,0.932-1.703
						s-0.205-1.714-0.932-1.714S28.737,663.287,28.737,663.858z"/>
				</g>
			</g>
			<g id="g14512">
				<g id="h14512">
					<path id="b14512" class="st5" d="M42.932,675.262v23.121H10.024v-11.487H1.392v-11.634H42.932z M1.392,686.896v11.487h8.632
						v-11.487H1.392z"/>
					<path id="t14512" class="st4" d="M17.012,685.856l0.28-0.473h0.91v4.142h-0.485v-3.669H17.012z M22.125,688.47v0.45h-0.463
						v0.604h-0.484v-0.604h-2.004l2.488-3.713v3.263H22.125z M21.177,686.762h-0.011l-1.142,1.708h1.153V686.762z M23.946,685.856
						l-0.253,0.851l0.286-0.017c0.787,0,1.304,0.688,1.304,1.451c0,0.873-0.668,1.472-1.503,1.472c-0.501,0-1.002-0.27-1.239-0.726
						l0.377-0.362c0.124,0.352,0.539,0.615,0.899,0.615c0.549,0,0.98-0.461,0.98-1.016c0-0.533-0.447-0.983-0.97-0.983
						c-0.285,0-0.582,0.137-0.759,0.368h-0.097l0.625-2.126h1.626v0.473H23.946z M25.995,685.856l0.28-0.473h0.91v4.142H26.7v-3.669
						H25.995z M30.891,689.052v0.473h-2.623l1.777-2.225c0.167-0.209,0.361-0.467,0.361-0.741c0-0.435-0.377-0.791-0.797-0.791
						c-0.415,0-0.754,0.34-0.781,0.758h-0.506c0.081-0.736,0.55-1.23,1.288-1.23c0.689,0,1.282,0.521,1.282,1.241
						c0,0.308-0.113,0.615-0.302,0.852l-1.335,1.664H30.891z"/>
				</g>
			</g>
		</g>
	</g>
</g>
<g id="JADE_DECK_14_TOP">
	<path class="st6" d="M2.096,177.34h21.351v111.128c0,0,18.779-16.57,43.745-16.128c24.965,0.442,42.419,15.686,42.419,15.686
		V153.478h16.623V11.309c0,0-16.912-9.028-56.84-10.809h-5.932C23.535,2.28,6.623,11.309,6.623,11.309v144.198l-6.132,8.591
		l0.002,13.244L2.096,177.34z"/>
	<path class="st6" d="M62.933,483.702h17.254c0,0,33.196,1.317,51.727,21.758v219.244h-21.752v7.441h-6.297v52.666h17.173v84.721
		h-6.297V890.5h-34.97H53.546h-34.97v-20.969h-6.297v-84.721h17.173v-52.666h-6.297v-7.441H1.402V505.46
		c18.531-20.441,51.728-21.758,51.728-21.758H62.933z"/>
	<g id="gDeck14Locations">
		<rect id="_x31_4Aft" y="588.636" class="st7" width="132.413" height="302.365"/>
		<rect id="_x31_4Middle" y="289.686" class="st7" width="132.413" height="298.95"/>
		<rect id="_x31_4Forward" y="0.5" class="st7" width="132.413" height="289.186"/>
	</g>
</g>
</svg>
