<?xml version="1.0" encoding="utf-8"?>
<!-- Generator: Adobe Illustrator 23.0.2, SVG Export Plug-In . SVG Version: 6.00 Build 0)  -->
<svg version="1.1" id="JADE_DECK_15" xmlns="http://www.w3.org/2000/svg" xmlns:xlink="http://www.w3.org/1999/xlink" x="0px"
	 y="0px" width="131.136px" height="771.843px" viewBox="0 0 131.136 771.843" style="enable-background:new 0 0 131.136 771.843;"
	 xml:space="preserve">
<style type="text/css">
	.New_x0020_Cabins_x0020_2019{fill:#EFF2F5;stroke:#FFFFFF;stroke-width:0.5;stroke-miterlimit:10;}
	.New_x0020_Cabins_x0020_2{fill:#EFF2F5;stroke:#FFFFFF;stroke-width:0.5;stroke-miterlimit:10;}
	.st0{fill:#FFFFFF;}
	.st1{fill:none;stroke:#D5DCE0;stroke-width:0.5;}
	.st2{fill:none;stroke:#000000;stroke-width:0.5;stroke-linecap:round;stroke-linejoin:round;stroke-miterlimit:3.8636;}
	.st3{fill:#6E8496;}
	.st4{fill:#EFF2F5;stroke:#FFFFFF;stroke-width:0.5;stroke-miterlimit:10;}
	.st5{fill:none;stroke:#076FA0;stroke-miterlimit:10;}
	.st6{fill:none;}
</style>
<g id="JADE_DECK_15_BOTTOM">
	<path class="st0" d="M36.384,771.343h58.367V644.499h30.533v6.21h5.352V423.933c0,0-13.494-20.951-64.5-22.023
		C17.742,400.893,0.5,424.076,0.5,424.076v226.633l5.373,0.142l-0.022-6.352h30.532v124.498V771.343z"/>
	<polygon class="st0" points="30.23,0.685 101.564,0.685 101.564,59.519 97.564,64.019 87.231,63.852 87.231,120.352 
		44.397,120.352 44.397,98.519 38.564,98.519 38.564,94.185 44.23,94.185 44.23,64.185 33.897,64.185 29.73,59.685 	"/>
	<polyline class="st1" points="88.564,486.583 88.564,597.935 42.564,597.935 42.564,534.06 	"/>
	<line class="st1" x1="88.358" y1="486.873" x2="130.587" y2="486.873"/>
	<line class="st1" x1="0.315" y1="608.075" x2="130.446" y2="608.075"/>
	<line class="st1" x1="0.315" y1="534.373" x2="42.564" y2="534.373"/>
	<polyline class="st1" points="36.325,645.559 36.325,625.098 94.271,625.098 94.271,646.108 	"/>
	<line class="st1" x1="47.947" y1="608.402" x2="47.947" y2="625.262"/>
	<polyline class="st1" points="82.976,601.2 59.569,601.2 59.569,607.748 	"/>
	<line class="st1" x1="82.976" y1="625.262" x2="82.976" y2="597.996"/>
	<line class="st1" x1="79.128" y1="601.378" x2="61.339" y2="601.378"/>
	<line class="st1" x1="79.067" y1="607.533" x2="61.339" y2="607.533"/>
	<line class="st1" x1="62.076" y1="601.439" x2="62.076" y2="607.472"/>
	<line class="st1" x1="63.382" y1="601.439" x2="63.382" y2="607.472"/>
	<line class="st1" x1="64.689" y1="601.439" x2="64.689" y2="607.472"/>
	<line class="st1" x1="65.995" y1="601.439" x2="65.995" y2="607.472"/>
	<line class="st1" x1="67.301" y1="601.439" x2="67.301" y2="607.472"/>
	<line class="st1" x1="68.607" y1="601.439" x2="68.607" y2="607.472"/>
	<line class="st1" x1="69.913" y1="601.439" x2="69.913" y2="607.472"/>
	<line class="st1" x1="71.22" y1="601.439" x2="71.22" y2="607.472"/>
	<line class="st1" x1="72.525" y1="601.439" x2="72.525" y2="607.472"/>
	<line class="st1" x1="73.831" y1="601.439" x2="73.831" y2="607.472"/>
	<line class="st1" x1="75.138" y1="601.439" x2="75.138" y2="607.472"/>
	<line class="st1" x1="76.444" y1="601.439" x2="76.444" y2="607.472"/>
	<line class="st1" x1="77.75" y1="601.439" x2="77.75" y2="607.472"/>
	<rect x="42.663" y="521.354" class="st1" width="45.415" height="76.453"/>
	<polygon class="st2" points="70.054,0.25 61.574,0.25 29.964,0.25 29.964,59.52 34.103,63.659 44.453,63.659 44.453,93.765 
		38.717,93.765 38.717,97.717 44.453,97.717 44.453,120.295 87.175,120.295 87.175,63.659 97.524,63.659 101.663,59.52 
		101.663,0.25 	"/>
	<line class="st1" x1="38.159" y1="103.506" x2="38.159" y2="120.551"/>
	<line class="st1" x1="38.221" y1="120.049" x2="44.253" y2="120.049"/>
	<line class="st1" x1="38.221" y1="117.744" x2="44.253" y2="117.744"/>
	<line class="st1" x1="38.221" y1="115.437" x2="44.253" y2="115.437"/>
	<line class="st1" x1="38.221" y1="113.13" x2="44.253" y2="113.13"/>
	<line class="st1" x1="38.221" y1="110.825" x2="44.253" y2="110.825"/>
	<line class="st1" x1="38.221" y1="108.612" x2="44.253" y2="108.612"/>
	<line class="st1" x1="38.221" y1="106.306" x2="44.253" y2="106.306"/>
	<line class="st1" x1="38.221" y1="104" x2="44.253" y2="104"/>
	<polyline class="st1" points="130.314,476.185 80.607,476.185 80.607,441.129 	"/>
	<polyline class="st1" points="0.064,476.435 50.62,476.435 50.62,473.062 	"/>
	<polyline class="st1" points="129.689,430.968 87.129,430.968 86.634,447.173 92.363,447.173 92.363,451.756 86.634,451.756 
		86.634,457.158 129.939,457.158 	"/>
	<polyline class="st1" points="129.814,430.998 86.924,430.998 86.429,447.203 92.158,447.203 92.158,451.787 86.429,451.787 
		86.429,457.189 129.814,457.189 	"/>
	<path class="st1" d="M88.03,440.371c0.994-1.363,2.646-2.236,4.502-2.236c2.984,0,5.44,2.27,5.734,5.18h-4.568
		c0,0-0.42-1.057-1.133-1.057c-1.072-0.117-1.272,1.191-1.272,1.191v3.373h-3.93l-0.02-4.207
		C87.345,442.615,87.444,440.988,88.03,440.371z"/>
	<line class="st1" x1="91.286" y1="445.617" x2="87.636" y2="445.617"/>
	<line class="st1" x1="91.286" y1="444.387" x2="87.636" y2="444.387"/>
	<line class="st1" x1="91.286" y1="443.314" x2="87.636" y2="443.314"/>
	<line class="st1" x1="97.922" y1="441.623" x2="93.636" y2="443.053"/>
	<line class="st1" x1="96.493" y1="439.838" x2="93.358" y2="442.615"/>
	<line class="st1" x1="94.946" y1="438.607" x2="92.806" y2="442.478"/>
	<line class="st1" x1="92.763" y1="438.369" x2="92.366" y2="442.219"/>
	<line class="st1" x1="90.659" y1="438.688" x2="92.048" y2="442.219"/>
	<line class="st1" x1="88.874" y1="439.758" x2="91.571" y2="442.537"/>
	<line class="st1" x1="87.882" y1="441.148" x2="91.294" y2="442.775"/>
	<path class="st1" d="M42.05,440.371c-0.994-1.363-2.647-2.236-4.502-2.236c-2.985,0-5.441,2.27-5.735,5.18h4.569
		c0,0,0.419-1.057,1.133-1.057c1.072-0.117,1.271,1.191,1.271,1.191v3.373h3.93l0.021-4.207
		C42.735,442.615,42.636,440.988,42.05,440.371z"/>
	<line class="st1" x1="38.794" y1="445.617" x2="42.444" y2="445.617"/>
	<line class="st1" x1="38.794" y1="444.387" x2="42.444" y2="444.387"/>
	<line class="st1" x1="38.794" y1="443.314" x2="42.444" y2="443.314"/>
	<line class="st1" x1="32.158" y1="441.623" x2="36.444" y2="443.053"/>
	<line class="st1" x1="33.587" y1="439.838" x2="36.722" y2="442.615"/>
	<line class="st1" x1="35.134" y1="438.607" x2="37.274" y2="442.478"/>
	<line class="st1" x1="37.317" y1="438.369" x2="37.714" y2="442.219"/>
	<line class="st1" x1="39.421" y1="438.688" x2="38.031" y2="442.219"/>
	<line class="st1" x1="41.206" y1="439.758" x2="38.508" y2="442.537"/>
	<line class="st1" x1="42.198" y1="441.148" x2="38.786" y2="442.775"/>
	<polygon class="st1" points="0.679,431.06 0.73,456.935 43.65,457.189 43.65,451.787 37.921,451.787 37.921,447.203 43.65,447.203 
		43.65,430.998 25.958,430.968 	"/>
	<path class="st3" d="M97.23,563.429v-1.016c0.344,0.199,0.615,0.312,0.879,0.312c0.28,0,0.521-0.136,0.521-0.479v-0.017
		c0-0.256-0.08-0.447-0.544-0.976c-0.664-0.751-0.936-1.111-0.936-1.791v-0.016c0-0.896,0.584-1.463,1.359-1.463
		c0.392,0,0.623,0.056,0.863,0.176v1.016c-0.304-0.176-0.487-0.256-0.743-0.256c-0.272,0-0.504,0.176-0.504,0.479v0.016
		c0,0.265,0.08,0.36,0.543,0.896c0.768,0.888,0.936,1.231,0.936,1.871v0.017c0,0.879-0.615,1.463-1.383,1.463
		C97.838,563.661,97.51,563.565,97.23,563.429z M99.935,561.99v-3.966h0.967v4.062c0,0.504,0.176,0.703,0.424,0.703
		s0.424-0.199,0.424-0.703v-4.062h0.968v3.966c0,1.175-0.592,1.703-1.392,1.703S99.935,563.165,99.935,561.99z M103.278,558.024
		h0.911l0.983,2.83v-2.83h0.951v5.597h-0.863l-1.031-2.967v2.967h-0.951V558.024z M107.974,558.024h0.912
		c1.247,0,1.959,0.903,1.959,2.702v0.192c0,1.799-0.712,2.702-1.959,2.702h-0.912V558.024z M108.989,562.725
		c0.464,0,0.863-0.408,0.863-1.807v-0.192c0-1.399-0.399-1.807-0.863-1.807h-0.04v3.806H108.989z M111.326,558.024h2.143v0.927
		h-1.167v1.392h1.031v0.928h-1.031v1.423h1.191v0.928h-2.167V558.024z M113.79,560.919v-0.192c0-1.967,0.728-2.742,1.639-2.742
		c0.272,0,0.432,0.032,0.64,0.128v1.007c-0.199-0.119-0.359-0.184-0.544-0.184c-0.432,0-0.743,0.384-0.743,1.783v0.208
		c0,1.479,0.312,1.783,0.76,1.783c0.151,0,0.344-0.057,0.544-0.177v0.96c-0.225,0.128-0.44,0.168-0.72,0.168
		C114.47,563.661,113.79,562.869,113.79,560.919z M116.574,558.024h0.975v2.343l0.792-2.343h1.104l-0.943,2.366l0.959,3.23h-1.087
		l-0.608-2.119l-0.216,0.616v1.503h-0.975V558.024z"/>
	<path class="st3" d="M8.844,463.728v-0.192c0-1.807,0.768-2.742,1.871-2.742c0.295,0,0.543,0.063,0.743,0.16v1.015
		c-0.24-0.144-0.456-0.239-0.711-0.239c-0.56,0-0.912,0.56-0.912,1.767v0.272c0,1.463,0.432,1.799,0.832,1.799
		c0.032,0,0.04,0,0.088-0.008v-1.432h-0.479v-0.871h1.367v2.974c-0.352,0.152-0.64,0.24-1.016,0.24
		C9.652,466.47,8.844,465.678,8.844,463.728z M12.964,460.817h1.039l1.063,5.613h-0.976l-0.184-1.111H13.02l-0.176,1.111H11.9
		L12.964,460.817z M13.763,464.439l-0.296-1.847l-0.304,1.847H13.763z M15.364,460.834h1.007c1,0,1.727,0.527,1.727,1.783v0.071
		c0,0.728-0.288,1.191-0.656,1.472l0.751,2.271h-1.039l-0.632-1.951h-0.184v1.951h-0.975V460.834z M16.388,463.6
		c0.423,0,0.735-0.248,0.735-0.904v-0.063c0-0.704-0.336-0.888-0.76-0.888h-0.024v1.855H16.388z M18.548,460.834h0.912
		c1.248,0,1.959,0.903,1.959,2.702v0.192c0,1.799-0.711,2.702-1.959,2.702h-0.912V460.834z M19.564,465.535
		c0.464,0,0.863-0.408,0.863-1.807v-0.192c0-1.399-0.399-1.807-0.863-1.807h-0.04v3.806H19.564z M21.9,460.834h2.143v0.928h-1.167
		v1.391h1.031v0.928h-1.031v1.423h1.191v0.928H21.9V460.834z M24.54,460.834h0.911l0.983,2.83v-2.83h0.952v5.597h-0.863
		l-1.032-2.967v2.967H24.54V460.834z M28.956,460.834h0.991l0.528,3.646l0.528-3.646h0.959l-1,5.612h-1.007L28.956,460.834z
		 M32.276,460.834h0.975v5.597h-0.975V460.834z M33.844,460.834h0.976v4.669h1.031v0.928h-2.007V460.834z M36.244,460.834h0.976
		v4.669h1.031v0.928h-2.007V460.834z M39.387,460.817h1.04l1.063,5.613h-0.975l-0.184-1.111h-0.888l-0.176,1.111h-0.943
		L39.387,460.817z M40.187,464.439l-0.296-1.847l-0.304,1.847H40.187z M4.696,468.834h0.871c1.063,0,1.807,0.575,1.807,1.887v0.016
		c0,1.264-0.704,1.863-1.695,1.936H5.671v1.759H4.696V468.834z M5.68,471.768c0.408-0.024,0.72-0.32,0.72-1v-0.016
		c0-0.712-0.272-1.016-0.696-1.016H5.671v2.031H5.68z M7.776,468.834h1.008c1,0,1.727,0.527,1.727,1.783v0.071
		c0,0.728-0.288,1.191-0.656,1.472l0.751,2.271h-1.04l-0.631-1.951H8.751v1.951H7.776V468.834z M8.799,471.6
		c0.424,0,0.736-0.248,0.736-0.904v-0.063c0-0.704-0.336-0.888-0.76-0.888H8.751v1.855H8.799z M10.976,468.834h0.976v5.597h-0.976
		V468.834z M12.264,468.834h0.992l0.527,3.646l0.528-3.646h0.959l-1,5.612h-1.007L12.264,468.834z M16.191,468.817h1.04l1.063,5.613
		h-0.976l-0.184-1.111h-0.888l-0.176,1.111h-0.944L16.191,468.817z M16.991,472.439l-0.296-1.847l-0.304,1.847H16.991z
		 M18.872,469.761h-0.688v-0.928h2.351v0.928h-0.688v4.669h-0.976V469.761z M20.944,468.834h2.143v0.928h-1.167v1.391h1.031v0.928
		h-1.031v1.423h1.191v0.928h-2.167V468.834z M24.736,474.238v-1.015c0.344,0.199,0.616,0.312,0.879,0.312
		c0.28,0,0.52-0.136,0.52-0.479v-0.017c0-0.256-0.08-0.447-0.544-0.975c-0.664-0.752-0.936-1.112-0.936-1.791v-0.017
		c0-0.896,0.584-1.463,1.359-1.463c0.392,0,0.624,0.056,0.864,0.176v1.016c-0.304-0.176-0.488-0.256-0.744-0.256
		c-0.272,0-0.504,0.176-0.504,0.479v0.016c0,0.265,0.08,0.36,0.543,0.896c0.768,0.888,0.936,1.231,0.936,1.871v0.017
		c0,0.879-0.615,1.463-1.383,1.463C25.344,474.47,25.016,474.375,24.736,474.238z M27.44,472.799v-3.966h0.967v4.062
		c0,0.504,0.176,0.704,0.424,0.704s0.424-0.2,0.424-0.704v-4.062h0.967v3.966c0,1.175-0.592,1.703-1.391,1.703
		C28.031,474.502,27.44,473.974,27.44,472.799z M30.784,468.834h0.912l0.983,2.83v-2.83h0.951v5.597h-0.863l-1.031-2.967v2.967
		h-0.952V468.834z M35.48,468.834h0.912c1.247,0,1.959,0.903,1.959,2.702v0.192c0,1.799-0.712,2.702-1.959,2.702H35.48V468.834z
		 M36.495,473.535c0.464,0,0.863-0.408,0.863-1.807v-0.192c0-1.399-0.399-1.807-0.863-1.807h-0.04v3.806H36.495z M38.832,468.834
		h2.143v0.928h-1.167v1.391h1.031v0.928h-1.031v1.423h1.191v0.928h-2.167V468.834z M41.295,471.728v-0.192
		c0-1.967,0.728-2.742,1.639-2.742c0.272,0,0.432,0.032,0.64,0.128v1.007c-0.2-0.119-0.36-0.184-0.544-0.184
		c-0.432,0-0.743,0.384-0.743,1.783v0.208c0,1.479,0.312,1.783,0.759,1.783c0.152,0,0.344-0.057,0.544-0.176v0.959
		c-0.224,0.128-0.44,0.168-0.72,0.168C41.975,474.47,41.295,473.678,41.295,471.728z M44.08,468.834h0.975v2.343l0.792-2.343h1.103
		l-0.943,2.366l0.959,3.23h-1.087l-0.608-2.119l-0.216,0.616v1.503H44.08V468.834z"/>
	<path class="st3" d="M8.732,559.268v-0.192c0-1.967,0.728-2.742,1.639-2.742c0.272,0,0.432,0.032,0.64,0.128v1.007
		c-0.2-0.119-0.36-0.184-0.543-0.184c-0.432,0-0.744,0.384-0.744,1.783v0.208c0,1.479,0.312,1.783,0.759,1.783
		c0.152,0,0.344-0.057,0.544-0.177v0.96c-0.224,0.128-0.44,0.168-0.72,0.168C9.412,562.01,8.732,561.218,8.732,559.268z
		 M11.221,559.316v-0.288c0-1.847,0.6-2.734,1.487-2.734c0.887,0,1.487,0.888,1.487,2.734v0.288c0,1.847-0.6,2.734-1.487,2.734
		C11.82,562.05,11.221,561.163,11.221,559.316z M13.204,559.316v-0.288c0-1.439-0.2-1.839-0.496-1.839s-0.496,0.399-0.496,1.839
		v0.288c0,1.439,0.2,1.839,0.496,1.839S13.204,560.755,13.204,559.316z M14.661,560.339v-3.966h0.967v4.062
		c0,0.504,0.176,0.703,0.424,0.703c0.248,0,0.424-0.199,0.424-0.703v-4.062h0.967v3.966c0,1.175-0.591,1.703-1.391,1.703
		C15.252,562.043,14.661,561.514,14.661,560.339z M18.004,556.374h1.007c1,0,1.727,0.527,1.727,1.783v0.071
		c0,0.728-0.288,1.191-0.655,1.472l0.751,2.271h-1.04l-0.631-1.951H18.98v1.951h-0.976V556.374z M19.028,559.14
		c0.424,0,0.736-0.248,0.736-0.904v-0.063c0-0.704-0.336-0.888-0.76-0.888H18.98v1.855H19.028z M21.628,557.3H20.94v-0.927h2.351
		v0.927h-0.688v4.67h-0.976V557.3z M24.372,559.763l-1.04-3.39h1.007l0.528,2.095l0.536-2.095h0.983l-1.039,3.39v2.207h-0.976
		V559.763z M27.14,556.357h1.039l1.063,5.613h-0.975l-0.184-1.111h-0.888l-0.176,1.111h-0.943L27.14,556.357z M27.939,559.979
		l-0.296-1.847l-0.304,1.847H27.939z M29.541,556.374h1.007c1,0,1.727,0.527,1.727,1.783v0.071c0,0.728-0.288,1.191-0.656,1.472
		l0.751,2.271h-1.039l-0.632-1.951h-0.184v1.951h-0.975V556.374z M30.564,559.14c0.423,0,0.735-0.248,0.735-0.904v-0.063
		c0-0.704-0.336-0.888-0.759-0.888h-0.024v1.855H30.564z M32.724,556.374h0.912c1.248,0,1.959,0.903,1.959,2.702v0.192
		c0,1.799-0.711,2.702-1.959,2.702h-0.912V556.374z M33.74,561.075c0.464,0,0.864-0.408,0.864-1.807v-0.192
		c0-1.399-0.4-1.807-0.864-1.807H33.7v3.806H33.74z M14.597,564.374h0.991l0.528,3.646l0.528-3.646h0.959l-1,5.612h-1.007
		L14.597,564.374z M17.917,564.374h0.976v5.597h-0.976V564.374z M19.484,564.374h0.976v4.669h1.031v0.928h-2.007V564.374z
		 M21.884,564.374h0.976v4.669h1.031v0.928h-2.007V564.374z M25.028,564.357h1.04l1.063,5.613h-0.976l-0.184-1.111h-0.887
		l-0.176,1.111h-0.944L25.028,564.357z M25.828,567.979l-0.296-1.847l-0.304,1.847H25.828z M27.309,569.779v-1.016
		c0.344,0.199,0.615,0.312,0.879,0.312c0.28,0,0.52-0.136,0.52-0.479v-0.017c0-0.256-0.08-0.447-0.543-0.976
		c-0.664-0.751-0.936-1.111-0.936-1.791v-0.016c0-0.896,0.583-1.463,1.359-1.463c0.392,0,0.624,0.056,0.863,0.176v1.016
		c-0.304-0.176-0.488-0.256-0.744-0.256c-0.272,0-0.503,0.176-0.503,0.479v0.016c0,0.265,0.08,0.36,0.543,0.896
		c0.768,0.888,0.936,1.231,0.936,1.871v0.017c0,0.879-0.616,1.463-1.383,1.463C27.916,570.01,27.588,569.915,27.309,569.779z
		 M13.009,572.374h0.871c1.063,0,1.807,0.575,1.807,1.887v0.016c0,1.264-0.704,1.863-1.695,1.936h-0.008v1.759h-0.975V572.374z
		 M13.992,575.308c0.408-0.024,0.719-0.32,0.719-1v-0.016c0-0.712-0.271-1.016-0.695-1.016h-0.032v2.031H13.992z M16.088,572.374
		h1.007c1,0,1.728,0.527,1.728,1.783v0.071c0,0.728-0.288,1.191-0.656,1.472l0.751,2.271h-1.04l-0.631-1.951h-0.184v1.951h-0.976
		V572.374z M17.112,575.14c0.424,0,0.736-0.248,0.736-0.904v-0.063c0-0.704-0.336-0.888-0.76-0.888h-0.024v1.855H17.112z
		 M19.289,572.374h0.975v5.597h-0.975V572.374z M20.577,572.374h0.991l0.528,3.646l0.528-3.646h0.959l-1,5.612h-1.007
		L20.577,572.374z M24.504,572.357h1.04l1.063,5.613h-0.976l-0.184-1.111H24.56l-0.176,1.111H23.44L24.504,572.357z M25.304,575.979
		l-0.296-1.847l-0.304,1.847H25.304z M27.184,573.3h-0.688v-0.927h2.351v0.927H28.16v4.67h-0.976V573.3z M29.256,572.374h2.143
		v0.927h-1.167v1.392h1.031v0.928h-1.031v1.423h1.191v0.928h-2.167V572.374z M11.108,585.779v-1.016
		c0.344,0.199,0.616,0.312,0.88,0.312c0.28,0,0.52-0.136,0.52-0.479v-0.017c0-0.256-0.08-0.447-0.543-0.976
		c-0.664-0.751-0.936-1.111-0.936-1.791v-0.016c0-0.896,0.583-1.463,1.359-1.463c0.392,0,0.624,0.056,0.864,0.176v1.016
		c-0.304-0.176-0.488-0.256-0.744-0.256c-0.272,0-0.504,0.176-0.504,0.479v0.016c0,0.265,0.08,0.36,0.544,0.896
		c0.768,0.888,0.936,1.231,0.936,1.871v0.017c0,0.879-0.616,1.463-1.383,1.463C11.716,586.01,11.389,585.915,11.108,585.779z
		 M13.813,584.339v-3.966h0.968v4.062c0,0.504,0.176,0.703,0.423,0.703c0.248,0,0.424-0.199,0.424-0.703v-4.062h0.968v3.966
		c0,1.175-0.592,1.703-1.392,1.703C14.404,586.043,13.813,585.514,13.813,584.339z M17.156,580.374h0.912l0.983,2.83v-2.83h0.952
		v5.597h-0.864l-1.031-2.967v2.967h-0.952V580.374z M21.853,580.374h0.911c1.248,0,1.959,0.903,1.959,2.702v0.192
		c0,1.799-0.711,2.702-1.959,2.702h-0.911V580.374z M22.868,585.075c0.464,0,0.864-0.408,0.864-1.807v-0.192
		c0-1.399-0.4-1.807-0.864-1.807h-0.04v3.806H22.868z M25.204,580.374h2.143v0.927H26.18v1.392h1.031v0.928H26.18v1.423h1.191v0.928
		h-2.167V580.374z M27.668,583.268v-0.192c0-1.967,0.728-2.742,1.639-2.742c0.271,0,0.432,0.032,0.64,0.128v1.007
		c-0.2-0.119-0.36-0.184-0.544-0.184c-0.432,0-0.744,0.384-0.744,1.783v0.208c0,1.479,0.312,1.783,0.76,1.783
		c0.152,0,0.344-0.057,0.543-0.177v0.96c-0.224,0.128-0.439,0.168-0.72,0.168C28.348,586.01,27.668,585.218,27.668,583.268z
		 M30.452,580.374h0.976v2.343l0.792-2.343h1.104l-0.944,2.366l0.96,3.23h-1.088l-0.607-2.119l-0.216,0.616v1.503h-0.976V580.374z"
		/>
	<path class="st3" d="M88.374,463.728v-0.192c0-1.807,0.768-2.742,1.871-2.742c0.296,0,0.544,0.063,0.744,0.16v1.015
		c-0.24-0.144-0.456-0.239-0.712-0.239c-0.56,0-0.911,0.56-0.911,1.767v0.272c0,1.463,0.432,1.799,0.831,1.799
		c0.032,0,0.04,0,0.088-0.008v-1.432h-0.479v-0.871h1.367v2.974c-0.352,0.152-0.64,0.24-1.016,0.24
		C89.182,466.47,88.374,465.678,88.374,463.728z M92.494,460.817h1.039l1.063,5.613h-0.976l-0.184-1.111H92.55l-0.176,1.111h-0.943
		L92.494,460.817z M93.294,464.439l-0.296-1.847l-0.305,1.847H93.294z M94.895,460.834h1.007c1,0,1.728,0.527,1.728,1.783v0.071
		c0,0.728-0.288,1.191-0.655,1.472l0.751,2.271h-1.039l-0.632-1.951H95.87v1.951h-0.976V460.834z M95.918,463.6
		c0.424,0,0.735-0.248,0.735-0.904v-0.063c0-0.704-0.336-0.888-0.76-0.888H95.87v1.855H95.918z M98.078,460.834h0.912
		c1.247,0,1.958,0.903,1.958,2.702v0.192c0,1.799-0.711,2.702-1.958,2.702h-0.912V460.834z M99.094,465.535
		c0.464,0,0.863-0.408,0.863-1.807v-0.192c0-1.399-0.399-1.807-0.863-1.807h-0.04v3.806H99.094z M101.431,460.834h2.143v0.928
		h-1.168v1.391h1.032v0.928h-1.032v1.423h1.191v0.928h-2.166V460.834z M104.07,460.834h0.911l0.983,2.83v-2.83h0.952v5.597h-0.864
		l-1.031-2.967v2.967h-0.951V460.834z M108.486,460.834h0.991l0.527,3.646l0.528-3.646h0.959l-0.999,5.612h-1.008L108.486,460.834z
		 M111.806,460.834h0.976v5.597h-0.976V460.834z M113.374,460.834h0.976v4.669h1.031v0.928h-2.007V460.834z M115.773,460.834h0.976
		v4.669h1.031v0.928h-2.007V460.834z M118.917,460.817h1.04l1.063,5.613h-0.976l-0.184-1.111h-0.888l-0.176,1.111h-0.944
		L118.917,460.817z M119.717,464.439l-0.296-1.847l-0.304,1.847H119.717z M84.227,468.834h0.871c1.063,0,1.808,0.575,1.808,1.887
		v0.016c0,1.264-0.704,1.863-1.695,1.936h-0.008v1.759h-0.976V468.834z M85.21,471.768c0.407-0.024,0.72-0.32,0.72-1v-0.016
		c0-0.712-0.272-1.016-0.696-1.016h-0.031v2.031H85.21z M87.307,468.834h1.007c1,0,1.728,0.527,1.728,1.783v0.071
		c0,0.728-0.288,1.191-0.656,1.472l0.752,2.271h-1.039l-0.632-1.951h-0.184v1.951h-0.976V468.834z M88.33,471.6
		c0.424,0,0.735-0.248,0.735-0.904v-0.063c0-0.704-0.336-0.888-0.76-0.888h-0.023v1.855H88.33z M90.506,468.834h0.976v5.597h-0.976
		V468.834z M91.794,468.834h0.992l0.527,3.646l0.527-3.646h0.96l-0.999,5.612h-1.008L91.794,468.834z M95.722,468.817h1.04
		l1.063,5.613H96.85l-0.185-1.111h-0.887l-0.177,1.111h-0.943L95.722,468.817z M96.522,472.439l-0.296-1.847l-0.304,1.847H96.522z
		 M98.402,469.761h-0.688v-0.928h2.352v0.928h-0.688v4.669h-0.976V469.761z M100.475,468.834h2.143v0.928h-1.168v1.391h1.032v0.928
		h-1.032v1.423h1.191v0.928h-2.166V468.834z M104.267,474.238v-1.015c0.344,0.199,0.615,0.312,0.879,0.312
		c0.28,0,0.52-0.136,0.52-0.479v-0.017c0-0.256-0.08-0.447-0.543-0.975c-0.664-0.752-0.936-1.112-0.936-1.791v-0.017
		c0-0.896,0.583-1.463,1.359-1.463c0.392,0,0.623,0.056,0.863,0.176v1.016c-0.304-0.176-0.488-0.256-0.744-0.256
		c-0.271,0-0.504,0.176-0.504,0.479v0.016c0,0.265,0.08,0.36,0.544,0.896c0.768,0.888,0.936,1.231,0.936,1.871v0.017
		c0,0.879-0.615,1.463-1.383,1.463C104.874,474.47,104.546,474.375,104.267,474.238z M106.97,472.799v-3.966h0.968v4.062
		c0,0.504,0.176,0.704,0.424,0.704s0.424-0.2,0.424-0.704v-4.062h0.968v3.966c0,1.175-0.592,1.703-1.392,1.703
		S106.97,473.974,106.97,472.799z M110.314,468.834h0.912l0.983,2.83v-2.83h0.951v5.597h-0.863l-1.031-2.967v2.967h-0.952V468.834z
		 M115.01,468.834h0.911c1.248,0,1.959,0.903,1.959,2.702v0.192c0,1.799-0.711,2.702-1.959,2.702h-0.911V468.834z M116.025,473.535
		c0.464,0,0.863-0.408,0.863-1.807v-0.192c0-1.399-0.399-1.807-0.863-1.807h-0.04v3.806H116.025z M118.361,468.834h2.144v0.928
		h-1.168v1.391h1.031v0.928h-1.031v1.423h1.191v0.928h-2.167V468.834z M120.826,471.728v-0.192c0-1.967,0.728-2.742,1.639-2.742
		c0.271,0,0.432,0.032,0.64,0.128v1.007c-0.2-0.119-0.359-0.184-0.544-0.184c-0.432,0-0.743,0.384-0.743,1.783v0.208
		c0,1.479,0.312,1.783,0.76,1.783c0.151,0,0.344-0.057,0.543-0.176v0.959c-0.224,0.128-0.439,0.168-0.719,0.168
		C121.505,474.47,120.826,473.678,120.826,471.728z M123.609,468.834h0.976v2.343l0.792-2.343h1.104l-0.944,2.366l0.96,3.23h-1.087
		l-0.608-2.119l-0.216,0.616v1.503h-0.976V468.834z"/>
	<path class="st3" d="M12.951,434.296l-0.575,0.184v-0.983l0.863-0.271h0.696v5.637h-0.984V434.296z M15.919,437.831h-1.52v-0.744
		l1.472-3.838h0.959v3.742h0.456v0.84H16.83v1.031h-0.911V437.831z M15.919,436.991v-2.047l-0.728,2.047H15.919z M17.567,438.766
		v-0.952c0.184,0.097,0.424,0.168,0.64,0.168c0.456,0,0.712-0.375,0.712-0.967v-0.057c0-0.592-0.216-0.799-0.536-0.799
		c-0.144,0-0.248,0.023-0.384,0.08l-0.472-0.312l0.152-2.662h1.991v0.928h-1.271l-0.072,1.119c0.104-0.024,0.216-0.04,0.376-0.04
		c0.591,0,1.175,0.432,1.175,1.679v0.072c0,1.207-0.64,1.895-1.567,1.895C18.031,438.918,17.751,438.846,17.567,438.766z
		 M20.191,436.215v-0.304c0-1.936,0.48-2.727,1.383-2.727c0.888,0,1.383,0.791,1.383,2.727v0.304c0,1.935-0.496,2.727-1.383,2.727
		C20.671,438.942,20.191,438.15,20.191,436.215z M21.991,436.208v-0.288c0-1.583-0.192-1.839-0.416-1.839
		c-0.232,0-0.424,0.256-0.424,1.839v0.288c0,1.583,0.192,1.839,0.424,1.839C21.799,438.046,21.991,437.791,21.991,436.208z
		 M23.344,436.215v-0.304c0-1.936,0.479-2.727,1.383-2.727c0.888,0,1.383,0.791,1.383,2.727v0.304c0,1.935-0.496,2.727-1.383,2.727
		C23.823,438.942,23.344,438.15,23.344,436.215z M25.143,436.208v-0.288c0-1.583-0.192-1.839-0.416-1.839
		c-0.231,0-0.424,0.256-0.424,1.839v0.288c0,1.583,0.192,1.839,0.424,1.839C24.951,438.046,25.143,437.791,25.143,436.208z
		 M9.056,444.208v-0.288c0-1.847,0.6-2.734,1.487-2.734s1.487,0.888,1.487,2.734v0.288c0,1.847-0.6,2.734-1.487,2.734
		S9.056,446.054,9.056,444.208z M11.039,444.208v-0.288c0-1.439-0.2-1.839-0.496-1.839s-0.496,0.399-0.496,1.839v0.288
		c0,1.438,0.2,1.839,0.496,1.839S11.039,445.646,11.039,444.208z M12.512,441.265h0.872c1.063,0,1.807,0.575,1.807,1.887v0.016
		c0,1.264-0.704,1.863-1.695,1.936h-0.008v1.759h-0.976V441.265z M13.495,444.2c0.408-0.024,0.72-0.32,0.72-1v-0.016
		c0-0.712-0.272-1.016-0.696-1.016h-0.032v2.031H13.495z M15.592,441.265h2.143v0.928h-1.167v1.391h1.032v0.928h-1.032v1.423h1.191
		v0.928h-2.167V441.265z M18.231,441.265h0.912l0.983,2.83v-2.83h0.952v5.597h-0.864l-1.031-2.967v2.967h-0.952V441.265z
		 M23.447,442.193H22.76v-0.928h2.351v0.928h-0.688v4.669h-0.976V442.193z M25.264,444.208v-0.288c0-1.847,0.6-2.734,1.487-2.734
		c0.888,0,1.487,0.888,1.487,2.734v0.288c0,1.847-0.6,2.734-1.487,2.734C25.863,446.942,25.264,446.054,25.264,444.208z
		 M27.247,444.208v-0.288c0-1.439-0.2-1.839-0.496-1.839c-0.295,0-0.496,0.399-0.496,1.839v0.288c0,1.438,0.2,1.839,0.496,1.839
		C27.046,446.046,27.247,445.646,27.247,444.208z M5.02,449.265h0.912c1.248,0,1.959,0.903,1.959,2.702v0.192
		c0,1.799-0.711,2.702-1.959,2.702H5.02V449.265z M6.035,453.966c0.464,0,0.863-0.408,0.863-1.807v-0.192
		c0-1.399-0.399-1.807-0.863-1.807h-0.04v3.806H6.035z M8.372,449.265h2.143v0.928H9.347v1.391h1.031v0.928H9.347v1.423h1.191v0.928
		H8.372V449.265z M10.835,452.16v-0.192c0-1.967,0.728-2.742,1.639-2.742c0.272,0,0.432,0.032,0.64,0.128v1.007
		c-0.2-0.119-0.36-0.184-0.543-0.184c-0.432,0-0.744,0.384-0.744,1.783v0.208c0,1.479,0.312,1.783,0.76,1.783
		c0.152,0,0.344-0.057,0.543-0.176v0.959c-0.224,0.128-0.44,0.168-0.72,0.168C11.515,454.902,10.835,454.11,10.835,452.16z
		 M13.62,449.265h0.976v2.343l0.792-2.343h1.104l-0.944,2.366l0.959,3.23h-1.087l-0.607-2.119l-0.216,0.616v1.503H13.62V449.265z
		 M18.116,449.265h0.847c0.944,0,1.823,0.384,1.823,1.423v0.04c0,0.72-0.408,1.071-0.808,1.264c0.472,0.208,0.879,0.535,0.879,1.247
		v0.072c0,0.991-0.768,1.551-1.855,1.551h-0.887V449.265z M19.107,451.616c0.432,0,0.72-0.248,0.72-0.735v-0.017
		c0-0.487-0.288-0.695-0.72-0.695h-0.016v1.447H19.107z M19.115,453.959c0.447,0,0.768-0.264,0.768-0.728v-0.04
		c0-0.464-0.32-0.728-0.768-0.728h-0.024v1.495H19.115z M21.268,449.265h2.143v0.928h-1.167v1.391h1.031v0.928h-1.031v1.423h1.191
		v0.928h-2.167V449.265z M23.907,449.265h0.976v4.669h1.031v0.928h-2.007V449.265z M26.011,452.208v-0.288
		c0-1.847,0.6-2.734,1.487-2.734c0.888,0,1.487,0.888,1.487,2.734v0.288c0,1.847-0.6,2.734-1.487,2.734
		C26.611,454.942,26.011,454.054,26.011,452.208z M27.994,452.208v-0.288c0-1.439-0.2-1.839-0.496-1.839s-0.496,0.399-0.496,1.839
		v0.288c0,1.438,0.2,1.839,0.496,1.839S27.994,453.646,27.994,452.208z M29.124,449.265h1l0.408,3.43l0.488-3.43h0.903l0.48,3.43
		l0.416-3.43h0.976l-0.848,5.612h-1.023l-0.464-3.317l-0.463,3.317h-1.023L29.124,449.265z"/>
	<path class="st3" d="M105.681,434.296l-0.575,0.184v-0.983l0.863-0.271h0.696v5.637h-0.984V434.296z M108.648,437.831h-1.52v-0.744
		l1.472-3.838h0.959v3.742h0.456v0.84h-0.456v1.031h-0.911V437.831z M108.648,436.991v-2.047l-0.728,2.047H108.648z
		 M110.297,436.215v-0.304c0-1.936,0.48-2.727,1.384-2.727c0.888,0,1.383,0.791,1.383,2.727v0.304c0,1.935-0.495,2.727-1.383,2.727
		C110.777,438.942,110.297,438.15,110.297,436.215z M112.097,436.208v-0.288c0-1.583-0.192-1.839-0.416-1.839
		c-0.232,0-0.424,0.256-0.424,1.839v0.288c0,1.583,0.191,1.839,0.424,1.839C111.904,438.046,112.097,437.791,112.097,436.208z
		 M113.449,436.215v-0.304c0-1.936,0.479-2.727,1.383-2.727c0.888,0,1.384,0.791,1.384,2.727v0.304c0,1.935-0.496,2.727-1.384,2.727
		C113.929,438.942,113.449,438.15,113.449,436.215z M115.248,436.208v-0.288c0-1.583-0.191-1.839-0.416-1.839
		c-0.231,0-0.424,0.256-0.424,1.839v0.288c0,1.583,0.192,1.839,0.424,1.839C115.057,438.046,115.248,437.791,115.248,436.208z
		 M116.602,436.215v-0.304c0-1.936,0.479-2.727,1.383-2.727c0.888,0,1.383,0.791,1.383,2.727v0.304c0,1.935-0.495,2.727-1.383,2.727
		C117.081,438.942,116.602,438.15,116.602,436.215z M118.4,436.208v-0.288c0-1.583-0.192-1.839-0.416-1.839
		c-0.231,0-0.424,0.256-0.424,1.839v0.288c0,1.583,0.192,1.839,0.424,1.839C118.208,438.046,118.4,437.791,118.4,436.208z
		 M102.05,444.208v-0.288c0-1.847,0.6-2.734,1.486-2.734c0.888,0,1.487,0.888,1.487,2.734v0.288c0,1.847-0.6,2.734-1.487,2.734
		C102.649,446.942,102.05,446.054,102.05,444.208z M104.032,444.208v-0.288c0-1.439-0.2-1.839-0.496-1.839
		c-0.295,0-0.495,0.399-0.495,1.839v0.288c0,1.438,0.2,1.839,0.495,1.839C103.832,446.046,104.032,445.646,104.032,444.208z
		 M105.505,441.265h0.872c1.063,0,1.807,0.575,1.807,1.887v0.016c0,1.264-0.703,1.863-1.694,1.936h-0.009v1.759h-0.976V441.265z
		 M106.489,444.2c0.407-0.024,0.719-0.32,0.719-1v-0.016c0-0.712-0.271-1.016-0.695-1.016h-0.032v2.031H106.489z M108.585,441.265
		h2.144v0.928h-1.168v1.391h1.031v0.928h-1.031v1.423h1.191v0.928h-2.167V441.265z M111.226,441.265h0.911l0.983,2.83v-2.83h0.951
		v5.597h-0.863l-1.031-2.967v2.967h-0.951V441.265z M116.44,442.193h-0.688v-0.928h2.351v0.928h-0.688v4.669h-0.976V442.193z
		 M118.257,444.208v-0.288c0-1.847,0.6-2.734,1.487-2.734s1.487,0.888,1.487,2.734v0.288c0,1.847-0.6,2.734-1.487,2.734
		S118.257,446.054,118.257,444.208z M120.24,444.208v-0.288c0-1.439-0.2-1.839-0.496-1.839s-0.495,0.399-0.495,1.839v0.288
		c0,1.438,0.199,1.839,0.495,1.839S120.24,445.646,120.24,444.208z M98.014,449.265h0.911c1.247,0,1.959,0.903,1.959,2.702v0.192
		c0,1.799-0.712,2.702-1.959,2.702h-0.911V449.265z M99.028,453.966c0.464,0,0.864-0.408,0.864-1.807v-0.192
		c0-1.399-0.4-1.807-0.864-1.807h-0.039v3.806H99.028z M101.365,449.265h2.143v0.928h-1.167v1.391h1.031v0.928h-1.031v1.423h1.191
		v0.928h-2.167V449.265z M103.829,452.16v-0.192c0-1.967,0.728-2.742,1.64-2.742c0.271,0,0.432,0.032,0.64,0.128v1.007
		c-0.2-0.119-0.36-0.184-0.544-0.184c-0.432,0-0.744,0.384-0.744,1.783v0.208c0,1.479,0.312,1.783,0.76,1.783
		c0.152,0,0.344-0.057,0.544-0.176v0.959c-0.224,0.128-0.439,0.168-0.72,0.168C104.509,454.902,103.829,454.11,103.829,452.16z
		 M106.613,449.265h0.976v2.343l0.791-2.343h1.104l-0.943,2.366l0.96,3.23h-1.088l-0.607-2.119l-0.216,0.616v1.503h-0.976V449.265z
		 M111.109,449.265h0.848c0.943,0,1.822,0.384,1.822,1.423v0.04c0,0.72-0.407,1.071-0.808,1.264c0.473,0.208,0.88,0.535,0.88,1.247
		v0.072c0,0.991-0.768,1.551-1.854,1.551h-0.888V449.265z M112.101,451.616c0.432,0,0.72-0.248,0.72-0.735v-0.017
		c0-0.487-0.288-0.695-0.72-0.695h-0.016v1.447H112.101z M112.108,453.959c0.448,0,0.768-0.264,0.768-0.728v-0.04
		c0-0.464-0.319-0.728-0.768-0.728h-0.023v1.495H112.108z M114.261,449.265h2.144v0.928h-1.168v1.391h1.032v0.928h-1.032v1.423
		h1.191v0.928h-2.167V449.265z M116.901,449.265h0.976v4.669h1.031v0.928h-2.007V449.265z M119.005,452.208v-0.288
		c0-1.847,0.6-2.734,1.487-2.734s1.487,0.888,1.487,2.734v0.288c0,1.847-0.6,2.734-1.487,2.734S119.005,454.054,119.005,452.208z
		 M120.988,452.208v-0.288c0-1.439-0.2-1.839-0.496-1.839s-0.496,0.399-0.496,1.839v0.288c0,1.438,0.2,1.839,0.496,1.839
		S120.988,453.646,120.988,452.208z M122.117,449.265h0.999l0.408,3.43l0.487-3.43h0.904l0.479,3.43l0.416-3.43h0.975l-0.847,5.612
		h-1.023l-0.464-3.317l-0.464,3.317h-1.023L122.117,449.265z"/>
	<path class="st3" d="M57.209,548.936v-0.288c0-1.847,0.6-2.734,1.487-2.734c0.888,0,1.487,0.888,1.487,2.734v0.288
		c0,1.847-0.6,2.734-1.487,2.734C57.809,551.67,57.209,550.783,57.209,548.936z M59.192,548.936v-0.288
		c0-1.439-0.2-1.839-0.496-1.839c-0.295,0-0.496,0.399-0.496,1.839v0.288c0,1.438,0.2,1.839,0.496,1.839
		C58.992,550.775,59.192,550.375,59.192,548.936z M60.665,545.994h0.872c1.063,0,1.807,0.575,1.807,1.887v0.016
		c0,1.264-0.704,1.863-1.695,1.936H61.64v1.759h-0.976V545.994z M61.648,548.928c0.408-0.024,0.719-0.32,0.719-1v-0.016
		c0-0.712-0.272-1.016-0.695-1.016H61.64v2.031H61.648z M63.745,545.994h2.143v0.928H64.72v1.391h1.032v0.928H64.72v1.423h1.191
		v0.928h-2.167V545.994z M66.385,545.994h0.911l0.983,2.83v-2.83h0.952v5.597h-0.864l-1.031-2.967v2.967h-0.951V545.994z
		 M71.601,546.921h-0.688v-0.928h2.351v0.928h-0.688v4.669h-0.975V546.921z M73.417,548.936v-0.288c0-1.847,0.6-2.734,1.486-2.734
		c0.888,0,1.487,0.888,1.487,2.734v0.288c0,1.847-0.6,2.734-1.487,2.734C74.017,551.67,73.417,550.783,73.417,548.936z
		 M75.399,548.936v-0.288c0-1.439-0.2-1.839-0.496-1.839c-0.295,0-0.495,0.399-0.495,1.839v0.288c0,1.438,0.2,1.839,0.495,1.839
		C75.199,550.775,75.399,550.375,75.399,548.936z M61.177,553.994h0.912c1.247,0,1.958,0.903,1.958,2.702v0.192
		c0,1.799-0.711,2.702-1.958,2.702h-0.912V553.994z M62.192,558.695c0.463,0,0.863-0.408,0.863-1.807v-0.192
		c0-1.399-0.4-1.807-0.863-1.807h-0.04v3.806H62.192z M64.529,553.994h2.143v0.928h-1.168v1.391h1.031v0.928h-1.031v1.423h1.191
		v0.928h-2.167V553.994z M66.992,556.888v-0.192c0-1.967,0.728-2.742,1.64-2.742c0.271,0,0.432,0.032,0.64,0.128v1.007
		c-0.2-0.119-0.36-0.184-0.544-0.184c-0.432,0-0.743,0.384-0.743,1.783v0.208c0,1.479,0.312,1.783,0.759,1.783
		c0.152,0,0.345-0.057,0.544-0.176v0.959c-0.224,0.128-0.439,0.168-0.72,0.168C67.672,559.63,66.992,558.838,66.992,556.888z
		 M69.776,553.994h0.976v2.343l0.792-2.343h1.104l-0.944,2.366l0.96,3.23h-1.088l-0.607-2.119l-0.216,0.616v1.503h-0.976V553.994z
		 M59.085,561.994h0.847c0.944,0,1.823,0.384,1.823,1.423v0.04c0,0.72-0.408,1.071-0.808,1.264c0.472,0.208,0.879,0.535,0.879,1.247
		v0.072c0,0.991-0.768,1.551-1.855,1.551h-0.887V561.994z M60.076,564.344c0.432,0,0.72-0.248,0.72-0.735v-0.017
		c0-0.487-0.288-0.695-0.72-0.695H60.06v1.447H60.076z M60.084,566.687c0.448,0,0.768-0.264,0.768-0.728v-0.04
		c0-0.464-0.32-0.728-0.768-0.728H60.06v1.495H60.084z M62.237,561.994h2.143v0.928h-1.167v1.391h1.032v0.928h-1.032v1.423h1.191
		v0.928h-2.167V561.994z M64.876,561.994h0.976v4.669h1.031v0.928h-2.007V561.994z M66.98,564.936v-0.288
		c0-1.847,0.6-2.734,1.487-2.734s1.487,0.888,1.487,2.734v0.288c0,1.847-0.6,2.734-1.487,2.734S66.98,566.783,66.98,564.936z
		 M68.964,564.936v-0.288c0-1.439-0.2-1.839-0.496-1.839s-0.496,0.399-0.496,1.839v0.288c0,1.438,0.2,1.839,0.496,1.839
		S68.964,566.375,68.964,564.936z M70.093,561.994h0.999l0.408,3.43l0.487-3.43h0.904l0.479,3.43l0.416-3.43h0.975l-0.847,5.612
		h-1.023l-0.464-3.317l-0.464,3.317H70.94L70.093,561.994z"/>
	<path class="st3" d="M53.897,27.342H53.21v-0.928h2.351v0.928h-0.688v4.669h-0.975V27.342z M55.97,26.415h0.975v2.319h0.848v-2.319
		h0.976v5.597h-0.976v-2.351h-0.848v2.351H55.97V26.415z M59.346,26.415h2.143v0.928h-1.167v1.391h1.032v0.928h-1.032v1.423h1.191
		v0.927h-2.167V26.415z M63.257,26.415h0.976v2.319h0.847v-2.319h0.976v5.597H65.08v-2.351h-0.847v2.351h-0.976V26.415z
		 M67.417,26.399h1.039l1.063,5.613h-0.976L68.36,30.9h-0.888l-0.176,1.111h-0.943L67.417,26.399z M68.217,30.021l-0.296-1.847
		l-0.304,1.847H68.217z M69.457,26.415h0.992l0.527,3.646l0.527-3.646h0.96l-1,5.613h-1.007L69.457,26.415z M72.761,26.415h2.144
		v0.928h-1.168v1.391h1.032v0.928h-1.032v1.423h1.191v0.927h-2.167V26.415z M75.401,26.415h0.911l0.983,2.831v-2.831h0.951v5.597
		h-0.863l-1.031-2.966v2.966h-0.951V26.415z M54.758,39.82v-1.016c0.344,0.2,0.615,0.312,0.879,0.312c0.28,0,0.52-0.136,0.52-0.48
		v-0.016c0-0.256-0.08-0.448-0.543-0.976c-0.664-0.751-0.936-1.111-0.936-1.791v-0.016c0-0.896,0.583-1.463,1.359-1.463
		c0.392,0,0.624,0.056,0.863,0.176v1.015c-0.304-0.176-0.488-0.256-0.744-0.256c-0.272,0-0.503,0.176-0.503,0.48v0.016
		c0,0.264,0.08,0.36,0.543,0.896c0.768,0.887,0.936,1.231,0.936,1.871v0.016c0,0.88-0.616,1.463-1.383,1.463
		C55.365,40.052,55.038,39.956,54.758,39.82z M57.461,38.38v-3.966h0.967v4.062c0,0.504,0.176,0.704,0.424,0.704
		c0.248,0,0.424-0.2,0.424-0.704v-4.062h0.968v3.966c0,1.176-0.592,1.703-1.392,1.703C58.053,40.084,57.461,39.556,57.461,38.38z
		 M60.805,34.415h0.912l0.983,2.831v-2.831h0.952v5.597h-0.864l-1.031-2.966v2.966h-0.952V34.415z M65.501,34.415h0.912
		c1.247,0,1.959,0.904,1.959,2.703v0.192c0,1.799-0.712,2.703-1.959,2.703h-0.912V34.415z M66.517,39.116
		c0.464,0,0.863-0.408,0.863-1.807v-0.192c0-1.399-0.399-1.807-0.863-1.807h-0.04v3.806H66.517z M68.854,34.415h2.143v0.928h-1.167
		v1.391h1.031v0.928h-1.031v1.423h1.191v0.927h-2.167V34.415z M71.317,37.309v-0.192c0-1.967,0.728-2.742,1.639-2.742
		c0.272,0,0.432,0.032,0.64,0.128v1.007c-0.199-0.12-0.359-0.184-0.544-0.184c-0.432,0-0.743,0.384-0.743,1.783v0.208
		c0,1.479,0.312,1.783,0.76,1.783c0.151,0,0.344-0.056,0.544-0.176v0.959c-0.225,0.128-0.44,0.168-0.72,0.168
		C71.997,40.052,71.317,39.26,71.317,37.309z M74.102,34.415h0.975v2.343l0.792-2.343h1.104l-0.943,2.367l0.959,3.23H75.9
		l-0.608-2.119l-0.216,0.615v1.503h-0.975V34.415z"/>
</g>
<g id="JADE_DECK_15_ROOMS">
	<g id="gDeck15HavenDeluxeOwnersSuiteLargeBalconyH2">
		<g id="hDeck15HavenDeluxeOwnersSuiteLargeBalconyH2">
			<g id="g15000">
				<g id="h15000">
					<path id="b15000" class="st4" d="M50.564,402.069v42.443l-0.133-13.583c0,0-18.216-18.148-23.657-23.589
						c6.756-3.267,23.657-5.271,23.657-5.271H50.564z M80.307,402.069H50.564v42.443l0.004,0.398l8.23-0.137l5.761-0.138
						l0.274-3.977l15.668,0.003l0.105-6.681v-31.874C80.417,402.082,80.307,402.069,80.307,402.069z M80.607,402.107v31.874
						l0.059-3.74c0,0,20.222-20.074,23.176-23.082C96.353,404.197,82.759,402.381,80.607,402.107z"/>
					<path id="t15000" class="st3" d="M58.395,419.259l0.28-0.473h0.91v4.142h-0.485v-3.669H58.395z M62.029,419.259l-0.253,0.851
						l0.285-0.017c0.787,0,1.304,0.688,1.304,1.451c0,0.873-0.668,1.472-1.503,1.472c-0.501,0-1.002-0.27-1.239-0.726l0.377-0.362
						c0.124,0.352,0.539,0.615,0.899,0.615c0.55,0,0.98-0.461,0.98-1.016c0-0.533-0.447-0.983-0.969-0.983
						c-0.286,0-0.582,0.137-0.76,0.368h-0.097l0.625-2.126h1.627v0.473H62.029z M63.803,420.857c0-0.852,0.366-2.158,1.416-2.158
						c1.051,0,1.417,1.307,1.417,2.158c0,0.847-0.372,2.159-1.417,2.159C64.174,423.016,63.803,421.704,63.803,420.857z
						 M64.287,420.852c0,0.571,0.205,1.702,0.932,1.702c0.728,0,0.933-1.131,0.933-1.702s-0.205-1.714-0.933-1.714
						C64.492,419.138,64.287,420.281,64.287,420.852z M67.11,420.857c0-0.852,0.367-2.158,1.417-2.158
						c1.051,0,1.417,1.307,1.417,2.158c0,0.847-0.372,2.159-1.417,2.159S67.11,421.704,67.11,420.857z M67.596,420.852
						c0,0.571,0.204,1.702,0.932,1.702s0.932-1.131,0.932-1.702s-0.204-1.714-0.932-1.714S67.596,420.281,67.596,420.852z
						 M70.419,420.857c0-0.852,0.366-2.158,1.417-2.158c1.05,0,1.416,1.307,1.416,2.158c0,0.847-0.371,2.159-1.416,2.159
						S70.419,421.704,70.419,420.857z M70.904,420.852c0,0.571,0.204,1.702,0.932,1.702c0.727,0,0.932-1.131,0.932-1.702
						s-0.205-1.714-0.932-1.714C71.108,419.138,70.904,420.281,70.904,420.852z"/>
				</g>
			</g>
		</g>
	</g>
</g>
<g id="JADE_DECK_15_TOP">
	<polygon class="st5" points="70.054,0.5 61.574,0.5 29.964,0.5 29.964,59.77 34.103,63.909 44.453,63.909 44.453,94.015 
		38.717,94.015 38.717,97.966 44.453,97.966 44.453,120.545 87.175,120.545 87.175,63.909 97.524,63.909 101.663,59.77 101.663,0.5 
			"/>
	<polyline class="st1" points="26.774,407.339 50.43,430.929 50.744,473.049 	"/>
	<polyline class="st1" points="103.841,407.158 80.665,430.24 80.502,440.661 64.834,440.658 64.559,444.636 50.567,444.91 	"/>
	<path class="st5" d="M71.046,402.341h7.861c0,0,33.197,1.307,51.729,21.592v226.775h-5.352v-6.21H94.751v126.845H36.384V644.499
		H5.852v6.21H0.5V423.933c18.531-20.285,51.728-21.592,51.728-21.592h7.861H71.046z"/>
	<g id="gDeck15Locations">
		<rect id="_x31_5Aft" x="0.364" y="529.057" class="st6" width="130.409" height="242.786"/>
		<rect id="_x31_5Middle" x="0.364" y="230.108" class="st6" width="130.409" height="298.95"/>
		<rect id="_x31_5Forward" x="0.364" y="0.5" class="st6" width="130.409" height="229.608"/>
	</g>
</g>
</svg>
