<?xml version="1.0" encoding="utf-8"?>
<!-- Generator: Adobe Illustrator 25.4.1, SVG Export Plug-In . SVG Version: 6.00 Build 0)  -->
<svg version="1.1" id="ESCAPE_DECK_07" xmlns="http://www.w3.org/2000/svg" xmlns:xlink="http://www.w3.org/1999/xlink" x="0px"
	 y="0px" width="141.5px" height="1048.8px" viewBox="0 0 141.5 1048.8" style="enable-background:new 0 0 141.5 1048.8;"
	 xml:space="preserve">
<style type="text/css">
	.st0{fill:#FFFFFF;}
	.st1{fill:none;stroke:#D5DCE0;stroke-width:0.5;}
	.st2{fill:#6E8496;}
	.st3{fill:none;}
	.st4{fill:none;stroke:#076FA0;stroke-miterlimit:10;}
</style>
<g id="ESCAPE_DECK_07_BOTTOM">
	<path class="st0" d="M70.7,0.5c-9,0-15.5,13-21.5,20.5s-47,62-47,100.5c0,6.5,0.2,135.3,0.2,138.6c0,0-1.9,1.7-1.9,4.9
		c0,65.2,0,756.8,0,762.6c0,6.7,4.4,20.5,70.3,20.5h-0.1c65.8,0,70.3-13.7,70.3-20.5c0-5.8,0-698,0-762.7c0-3.2-1.9-4.8-1.9-4.8
		c0-3.4,0.2-132.1,0.2-138.6c0-38.5-41-93-47-100.5S79.7,0.5,70.7,0.5L70.7,0.5L70.7,0.5z"/>
	<rect x="80.2" y="861" class="st1" width="12.9" height="1"/>
	<rect x="48.4" y="861" class="st1" width="12.9" height="1"/>
	<rect x="57.9" y="415.5" class="st1" width="12.9" height="14.9"/>
	<rect x="57.9" y="423.6" class="st1" width="12.9" height="1"/>
	<rect x="57.9" y="424.6" class="st1" width="12.9" height="1"/>
	<rect x="57.9" y="425.6" class="st1" width="12.9" height="1"/>
	<polygon class="st1" points="60.1,427.5 70.8,427.5 70.8,426.5 57.9,426.5 	"/>
	<polygon class="st1" points="62.2,428.5 70.8,428.5 70.8,427.5 60.1,427.5 	"/>
	<rect x="64.7" y="428.5" class="st1" width="6.2" height="1"/>
	<rect x="64.7" y="429.4" class="st1" width="6.2" height="1"/>
	<polygon class="st1" points="57.9,430.5 64.2,430.5 64.2,429.5 57.9,426.5 	"/>
	<path class="st1" d="M64.2,419.2c0-0.1,0.1-0.2,0.2-0.2l0,0c0.1,0,0.2,0.1,0.2,0.2v11.3c0,0.1-0.1,0.2-0.2,0.2l0,0
		c-0.1,0-0.2-0.1-0.2-0.2V419.2z"/>
	<rect x="53.9" y="440.2" class="st1" width="9.2" height="33.3"/>
	<line class="st1" x1="63" y1="465.1" x2="54.1" y2="473.1"/>
	<line class="st1" x1="62.9" y1="473.1" x2="54" y2="465.1"/>
	<polyline class="st1" points="63,457 54.1,465 62.9,465 54,457 	"/>
	<polyline class="st1" points="63,448.5 54.1,456.6 62.9,456.6 54,448.5 	"/>
	<polyline class="st1" points="63,440.2 54.1,448.4 62.9,448.4 54,440.2 	"/>
	<polygon class="st1" points="65,479.6 65,473.4 54,473.4 54,440.1 64.9,440.1 64.9,438.4 50.3,438.4 50.3,479.6 	"/>
	<rect x="78.8" y="440.2" class="st1" width="9.1" height="33.3"/>
	<line class="st1" x1="79" y1="465.1" x2="87.9" y2="473.1"/>
	<line class="st1" x1="79.1" y1="473.1" x2="88" y2="465.1"/>
	<polyline class="st1" points="79,457 87.9,465 79.1,465 88,457 	"/>
	<polyline class="st1" points="79,448.5 87.9,456.6 79.1,456.6 88,448.5 	"/>
	<polyline class="st1" points="79,440.2 87.9,448.4 79.1,448.4 88,440.2 	"/>
	<polygon class="st1" points="77,479.6 77,473.4 88,473.4 88,440.1 77,440.1 77,438.4 91.6,438.4 91.6,479.6 	"/>
	<rect x="70.8" y="415.5" class="st1" width="12.9" height="14.9"/>
	<rect x="70.8" y="423.6" class="st1" width="12.9" height="1"/>
	<rect x="70.8" y="424.6" class="st1" width="12.9" height="1"/>
	<rect x="70.8" y="425.6" class="st1" width="12.9" height="1"/>
	<polygon class="st1" points="81.6,427.5 70.8,427.5 70.8,426.5 83.7,426.5 	"/>
	<polygon class="st1" points="79.4,428.5 70.8,428.5 70.8,427.5 81.6,427.5 	"/>
	<rect x="70.8" y="428.5" class="st1" width="6.2" height="1"/>
	<rect x="70.8" y="429.4" class="st1" width="6.2" height="1"/>
	<polygon class="st1" points="83.7,430.5 77.4,430.5 77.4,429.5 83.7,426.5 	"/>
	<path class="st1" d="M77.4,419.2c0-0.1-0.1-0.2-0.2-0.2l0,0c-0.1,0-0.2,0.1-0.2,0.2v11.3c0,0.1,0.1,0.2,0.2,0.2l0,0
		c0.1,0,0.2-0.1,0.2-0.2V419.2z"/>
	<rect x="53.1" y="807.5" class="st1" width="9.3" height="33.3"/>
	<line class="st1" x1="62.2" y1="815.8" x2="53.3" y2="807.8"/>
	<line class="st1" x1="62.1" y1="807.8" x2="53.2" y2="815.8"/>
	<polyline class="st1" points="62.2,823.9 53.3,815.9 62.1,815.9 53.2,823.9 	"/>
	<polyline class="st1" points="62.2,832.4 53.3,824.4 62.1,824.4 53.2,832.4 	"/>
	<polyline class="st1" points="62.2,840.8 53.3,832.5 62.1,832.5 53.2,840.8 	"/>
	<polygon class="st1" points="64.3,803.3 64.3,807.5 53.3,807.5 53.3,840.9 64.3,840.9 64.3,842.5 49.7,842.5 49.7,803.3 	"/>
	<rect x="78.2" y="807.5" class="st1" width="9.3" height="33.3"/>
	<line class="st1" x1="78.5" y1="815.8" x2="87.4" y2="807.8"/>
	<line class="st1" x1="78.6" y1="807.8" x2="87.5" y2="815.8"/>
	<polyline class="st1" points="78.5,823.9 87.4,815.9 78.6,815.9 87.5,823.9 	"/>
	<polyline class="st1" points="78.5,832.4 87.4,824.4 78.6,824.4 87.5,832.4 	"/>
	<polyline class="st1" points="78.5,840.8 87.4,832.5 78.6,832.5 87.5,840.8 	"/>
	<polygon class="st1" points="76.3,803.3 76.3,807.5 87.3,807.5 87.3,840.9 76.4,840.9 76.4,842.5 91,842.5 91,803.3 	"/>
	<rect x="80.2" y="863" class="st1" width="6.4" height="1"/>
	<rect x="80.2" y="853.3" class="st1" width="12.9" height="18.2"/>
	<rect x="80.2" y="859.1" class="st1" width="12.9" height="1"/>
	<rect x="80.2" y="858.2" class="st1" width="12.9" height="1"/>
	<rect x="80.2" y="857.2" class="st1" width="12.9" height="1"/>
	<polygon class="st1" points="91,856.2 80.2,856.2 80.2,857.2 93.1,857.2 	"/>
	<polygon class="st1" points="88.8,855.2 80.2,855.2 80.2,856.2 90.9,856.2 	"/>
	<rect x="80.2" y="854.3" class="st1" width="6.2" height="1"/>
	<rect x="80.2" y="853.3" class="st1" width="6.2" height="1"/>
	<polygon class="st1" points="93.1,853.3 86.8,853.3 86.8,854.2 93.1,857.2 	"/>
	<path class="st1" d="M86.8,864.5c0,0.1-0.1,0.2-0.2,0.2l0,0c-0.1,0-0.2-0.1-0.2-0.2v-11.3c0-0.1,0.1-0.2,0.2-0.2l0,0
		c0.1,0,0.2,0.1,0.2,0.2V864.5z"/>
	<rect x="54.9" y="863" class="st1" width="6.4" height="1"/>
	<rect x="48.4" y="863" class="st1" width="6.4" height="1"/>
	<rect x="48.5" y="853.3" class="st1" width="12.9" height="18.2"/>
	<rect x="48.5" y="859.1" class="st1" width="12.9" height="1"/>
	<rect x="48.5" y="858.2" class="st1" width="12.9" height="1"/>
	<rect x="48.5" y="857.2" class="st1" width="12.9" height="1"/>
	<polygon class="st1" points="50.6,856.2 61.4,856.2 61.4,857.2 48.5,857.2 	"/>
	<polygon class="st1" points="52.7,855.2 61.4,855.2 61.4,856.2 50.6,856.2 	"/>
	<rect x="55.2" y="854.3" class="st1" width="6.2" height="1"/>
	<rect x="55.2" y="853.3" class="st1" width="6.2" height="1"/>
	<polygon class="st1" points="48.5,853.3 54.8,853.3 54.8,854.2 48.5,857.2 	"/>
	<path class="st1" d="M54.7,864.5c0,0.1,0.1,0.2,0.2,0.2l0,0c0.1,0,0.2-0.1,0.2-0.2v-11.3c0-0.1-0.1-0.2-0.2-0.2l0,0
		c-0.1,0-0.2,0.1-0.2,0.2V864.5z"/>
	<line class="st1" x1="76.3" y1="803.3" x2="64.3" y2="803.3"/>
	<rect x="64.4" y="419.8" class="st1" width="6.4" height="1"/>
	<polyline class="st1" points="34.8,411.3 34.8,381.5 51.7,369.5 81.2,369.5 	"/>
	<polyline class="st1" points="91.6,411.5 91.6,381.3 81.4,381.3 81.4,360 91.6,360 91.6,381.7 	"/>
	<line class="st1" x1="15" y1="411.5" x2="91.5" y2="411.5"/>
	<polyline class="st1" points="91.6,438.8 91.6,437.3 126.3,437.3 126.3,411.5 115.2,411.3 115.2,387.5 126.4,387.5 	"/>
	<rect x="57.9" y="421.7" class="st1" width="12.9" height="1"/>
	<rect x="70.8" y="419.8" class="st1" width="6.4" height="1"/>
	<rect x="70.8" y="421.7" class="st1" width="12.9" height="1"/>
	<polyline class="st1" points="50.3,438.4 50.3,437.2 15.1,437.2 15.2,411.3 15.1,377.5 20.6,361.3 39.7,352.8 39.7,344.5 
		30.3,341.2 26.3,341.2 26.3,258.4 34.3,245.7 34.3,241.3 107.1,241.3 107.1,246 115.1,258.6 115.1,341.5 112.7,341.5 105.2,348.3 
		115.3,360.5 120.3,360.5 126.3,377 126.3,411.5 91.6,411.5 	"/>
	<polyline class="st1" points="57.9,425.6 50.6,427.1 50.6,430.1 49,430.1 49,411.6 	"/>
	<polyline class="st1" points="34.8,411.6 34.8,420.8 41.3,428.1 49.2,428.1 	"/>
	<polyline class="st1" points="83.7,425.6 90.7,427.1 90.7,430.1 92.4,430.1 92.4,411.5 	"/>
	<polyline class="st1" points="111.7,411.4 111.7,421.8 126.3,421.8 	"/>
	<polyline class="st1" points="126.3,429 116.9,429 116.9,421.8 	"/>
	<polyline class="st1" points="15.1,437.2 15.1,530.5 63.1,530.5 63.1,582.3 79.2,582.3 79.2,559.8 95.6,559.8 95.6,564.5 
		101.4,564.5 101.4,571 115.1,571 115.1,564.1 126.2,564.1 126.2,437.3 	"/>
	<path class="st1" d="M105.5,513.5c0,9.2-7.5,16.7-16.7,16.7c-9.2,0-17.5-6.7-16.4-18.7l3.5-27.4l30.3,2.7l-0.8,26.9V513.5z"/>
	<polyline class="st1" points="63.1,581.3 63.1,607.5 45.8,607.5 45.8,601.2 37.8,601.2 37.8,594.5 15.1,594.5 15.1,530.5 	"/>
	<polyline class="st1" points="79.2,580.8 79.2,607.3 95.5,607.3 95.5,601.5 103.4,601.5 103.4,594.5 126.2,594.5 126.2,564.1 	"/>
	<polyline class="st1" points="126.2,593 126.2,841.3 91.1,841.3 	"/>
	<rect x="86.7" y="863" class="st1" width="6.4" height="1"/>
	<polyline class="st1" points="49.6,830.6 45.4,830.6 45.4,834.5 15.1,834.5 15.1,741 46.7,741 46.8,761.3 61.7,761.3 61.7,684 
		49.8,684 47.9,692.4 47.9,718.4 34.1,718.4 34.1,710.8 26,710.8 26,692.5 15.2,692.5 15.1,594.5 	"/>
	<line class="st1" x1="50.2" y1="803.3" x2="50.2" y2="761.3"/>
	<polygon class="st1" points="93.2,688.5 93.2,692.1 98.7,692.1 98.7,717.6 102.5,717.6 102.5,726.3 94.6,726.3 94.6,757 79.7,757 
		79.7,688.5 	"/>
	<line class="st1" x1="15.2" y1="692.5" x2="15.2" y2="741"/>
	<polyline class="st1" points="14.9,926.5 25.9,926.5 25.9,926.6 25.9,940.3 68.2,940.3 68.2,921.9 63.8,921.9 63.8,871.6 	"/>
	<polyline class="st1" points="77.7,871.5 77.7,919.3 102,919.3 102,882.7 126.2,882.7 	"/>
	<polyline class="st1" points="48.4,854.2 25.9,854.2 25.9,871.5 	"/>
	<line class="st1" x1="25.6" y1="863.1" x2="15.2" y2="863.1"/>
	<polyline class="st1" points="92.9,854.2 116,854.2 116,871.3 	"/>
	<path class="st1" d="M15.1,834v140l5.9,0v66.4c0,0,13.6,4.8,50.2,4.8s49.1-4.8,49.1-4.8V974h6V871.3v0.2l-111.2,0.1"/>
	<path class="st1" d="M89.1,631.9c-0.4,0.4-0.7,1-0.7,1.6c0,1.2,1,2.2,2.2,2.2c0,0,0,0,0.1,0"/>
	<path class="st1" d="M90.8,647.5c-0.1,0-0.1,0-0.2,0c-1.2,0-2.2,1-2.2,2.2c0,0.7,0.3,1.3,0.9,1.8"/>
	<path class="st1" d="M50.7,635.8c0.1,0,0.2,0,0.3,0c1.2,0,2.2-1,2.2-2.2c0-0.7-0.3-1.3-0.9-1.8"/>
	<path class="st1" d="M52.2,651.6c0.6-0.4,1-1.1,1-1.9c0-1.2-1-2.2-2.2-2.2c-0.1,0-0.3,0-0.4,0"/>
	<path class="st1" d="M49.8,641.8c-0.4,0.1-0.9,0.2-1.5,0.2l0.4,4c0.4,0,0.9-0.1,1.4-0.2C49.9,644.5,49.8,643.2,49.8,641.8
		C49.8,641.9,49.8,641.8,49.8,641.8z"/>
	<path class="st1" d="M50.2,645.8c2.3-0.4,5.7-1.7,6.5-6.3c0.5-2.8,1.4-4.6,1.9-5.4c-0.4,0.8-1.4,2.6-1.9,5.4
		C55.9,644.1,52.4,645.4,50.2,645.8c0.1,0.6,0.2,1.2,0.4,1.7c0.1,0,0.3,0,0.4,0c1.2,0,2.2,1,2.2,2.2c0,0.8-0.4,1.5-1,1.9
		c3.5,6.6,10.5,11.2,18.5,11.2c8.1,0,15.1-4.6,18.6-11.3c-0.5-0.4-0.9-1-0.9-1.8c0-1.2,1-2.2,2.2-2.2c0.1,0,0.1,0,0.2,0
		c0.5-1.8,0.8-3.7,0.8-5.6c0-2.1-0.3-4.1-0.9-6.1c0,0,0,0-0.1,0c-1.2,0-2.2-1-2.2-2.2c0-0.6,0.3-1.2,0.7-1.6
		c-3.5-6.5-10.5-11-18.4-11c-7.9,0-14.8,4.4-18.3,10.9c0.5,0.4,0.9,1,0.9,1.8c0,1.2-1,2.2-2.2,2.2c-0.1,0-0.2,0-0.3,0
		c-0.6,1.9-0.9,3.9-0.9,6c2.1-0.5,2.7-1.5,2.9-2.9c0.5-3,1.5-5.1,2.3-6.6c-0.8,1.5-1.8,3.6-2.3,6.6c-0.2,1.5-0.8,2.4-2.9,2.9
		c0,0,0,0,0,0.1"/>
	<line class="st1" x1="50.6" y1="641.7" x2="51.7" y2="645.2"/>
	<polyline class="st1" points="51.2,641.3 53.2,644.7 54.4,643.9 51.8,641 52.2,640.5 55.3,642.7 56,641.4 52.5,639.7 52.7,639 
		56.5,640.1 56.7,639.1 52.8,638.2 53.1,637.2 56.9,638.2 57.2,637.2 53.4,636.1 53.7,635.1 57.4,636.3 57.8,635.3 54.2,634 
		54.7,633 58.2,634.5 	"/>
	<polyline class="st1" points="63.3,559.1 45.9,559.1 45.9,530.4 	"/>
	<line class="st1" x1="93.7" y1="370.7" x2="87.5" y2="368"/>
	<path class="st2" d="M52.1,540.6h1c1,0,1.7,0.5,1.7,1.8v0.1c0,0.7-0.3,1.2-0.7,1.5l0.8,2.3h-1l-0.6-2h-0.2v2h-1V540.6z M53.1,543.4
		c0.4,0,0.7-0.2,0.7-0.9v-0.1c0-0.7-0.3-0.9-0.8-0.9h0L53.1,543.4L53.1,543.4z M55.3,540.6h1c1,0,1.7,0.5,1.7,1.8v0.1
		c0,0.7-0.3,1.2-0.7,1.5l0.8,2.3h-1l-0.6-2h-0.2v2h-1V540.6z M56.3,543.4c0.4,0,0.7-0.2,0.7-0.9v-0.1c0-0.7-0.3-0.9-0.8-0.9h0
		L56.3,543.4L56.3,543.4z"/>
	<path class="st2" d="M40.4,414.6h1c1,0,1.7,0.5,1.7,1.8v0.1c0,0.7-0.3,1.2-0.7,1.5l0.8,2.3h-1l-0.6-2h-0.2v2h-1V414.6z M41.4,417.4
		c0.4,0,0.7-0.2,0.7-0.9v-0.1c0-0.7-0.3-0.9-0.8-0.9h0L41.4,417.4L41.4,417.4z M43.5,414.6h1c1,0,1.7,0.5,1.7,1.8v0.1
		c0,0.7-0.3,1.2-0.7,1.5l0.8,2.3h-1l-0.6-2h-0.2v2h-1V414.6z M44.6,417.4c0.4,0,0.7-0.2,0.7-0.9v-0.1c0-0.7-0.3-0.9-0.8-0.9h0
		L44.6,417.4L44.6,417.4z"/>
	<path class="st2" d="M33.9,860.5h1c1,0,1.7,0.5,1.7,1.8v0.1c0,0.7-0.3,1.2-0.7,1.5l0.8,2.3h-1l-0.6-2h-0.2v2h-1L33.9,860.5
		L33.9,860.5z M34.9,863.3c0.4,0,0.7-0.2,0.7-0.9v-0.1c0-0.7-0.3-0.9-0.8-0.9h0L34.9,863.3L34.9,863.3z M37.1,860.5h1
		c1,0,1.7,0.5,1.7,1.8v0.1c0,0.7-0.3,1.2-0.7,1.5l0.8,2.3h-1l-0.6-2H38v2h-1V860.5z M38.1,863.3c0.4,0,0.7-0.2,0.7-0.9v-0.1
		c0-0.7-0.3-0.9-0.8-0.9h0L38.1,863.3L38.1,863.3z"/>
	<path class="st2" d="M17.1,864.6h1c1,0,1.7,0.5,1.7,1.8v0.1c0,0.7-0.3,1.2-0.7,1.5l0.8,2.3h-1l-0.6-2h-0.2v2h-1L17.1,864.6
		L17.1,864.6z M18.2,867.4c0.4,0,0.7-0.2,0.7-0.9v-0.1c0-0.7-0.3-0.9-0.8-0.9h0L18.2,867.4L18.2,867.4z M20.3,864.6h1
		c1,0,1.7,0.5,1.7,1.8v0.1c0,0.7-0.3,1.2-0.7,1.5l0.8,2.3h-1l-0.6-2h-0.2v2h-1L20.3,864.6L20.3,864.6z M21.4,867.4
		c0.4,0,0.7-0.2,0.7-0.9v-0.1c0-0.7-0.3-0.9-0.8-0.9h0L21.4,867.4L21.4,867.4z"/>
	<path class="st2" d="M101.1,860.5h1c1,0,1.7,0.5,1.7,1.8v0.1c0,0.7-0.3,1.2-0.7,1.5l0.8,2.3h-1l-0.6-2h-0.2v2h-1
		C101.1,866.1,101.1,860.5,101.1,860.5z M102.2,863.3c0.4,0,0.7-0.2,0.7-0.9v-0.1c0-0.7-0.3-0.9-0.8-0.9h0L102.2,863.3L102.2,863.3z
		 M104.3,860.5h1c1,0,1.7,0.5,1.7,1.8v0.1c0,0.7-0.3,1.2-0.7,1.5l0.8,2.3h-1l-0.6-2h-0.2v2h-1C104.3,866.1,104.3,860.5,104.3,860.5z
		 M105.3,863.3c0.4,0,0.7-0.2,0.7-0.9v-0.1c0-0.7-0.3-0.9-0.8-0.9h0L105.3,863.3L105.3,863.3z"/>
	<path class="st2" d="M116.1,413.8h1c1,0,1.7,0.5,1.7,1.8v0.1c0,0.7-0.3,1.2-0.7,1.5l0.8,2.3h-1l-0.6-2h-0.2v2h-1
		C116.1,419.4,116.1,413.8,116.1,413.8z M117.1,416.6c0.4,0,0.7-0.2,0.7-0.9v-0.1c0-0.7-0.3-0.9-0.8-0.9h0L117.1,416.6L117.1,416.6z
		 M119.3,413.8h1c1,0,1.7,0.5,1.7,1.8v0.1c0,0.7-0.3,1.2-0.7,1.5l0.8,2.3h-1l-0.6-2h-0.2v2h-1V413.8z M120.3,416.6
		c0.4,0,0.7-0.2,0.7-0.9v-0.1c0-0.7-0.3-0.9-0.8-0.9h0L120.3,416.6L120.3,416.6z"/>
	<path class="st2" d="M119,422.7h1c1,0,1.7,0.5,1.7,1.8v0.1c0,0.7-0.3,1.2-0.7,1.5l0.8,2.3h-1l-0.6-2h-0.2v2h-1
		C119,428.3,119,422.7,119,422.7z M120,425.4c0.4,0,0.7-0.2,0.7-0.9v-0.1c0-0.7-0.3-0.9-0.8-0.9h0L120,425.4L120,425.4z
		 M122.2,422.7h1c1,0,1.7,0.5,1.7,1.8v0.1c0,0.7-0.3,1.2-0.7,1.5l0.8,2.3h-1l-0.6-2h-0.2v2h-1C122.2,428.3,122.2,422.7,122.2,422.7z
		 M123.2,425.4c0.4,0,0.7-0.2,0.7-0.9v-0.1c0-0.7-0.3-0.9-0.8-0.9h0L123.2,425.4L123.2,425.4z"/>
	<path class="st2" d="M89,551.6h0.8c0.9,0,1.8,0.4,1.8,1.4v0c0,0.7-0.4,1.1-0.8,1.3c0.5,0.2,0.9,0.5,0.9,1.2v0.1
		c0,1-0.8,1.6-1.9,1.6H89V551.6z M90,554c0.4,0,0.7-0.2,0.7-0.7v0c0-0.5-0.3-0.7-0.7-0.7h0L90,554L90,554z M90,556.3
		c0.4,0,0.8-0.3,0.8-0.7v0c0-0.5-0.3-0.7-0.8-0.7h0L90,556.3L90,556.3L90,556.3z M92.9,551.6h1l1.1,5.6h-1l-0.2-1.1H93l-0.2,1.1
		h-0.9L92.9,551.6z M93.7,555.2l-0.3-1.8l-0.3,1.8H93.7z M95.3,551.6h1c1,0,1.7,0.5,1.7,1.8v0.1c0,0.7-0.3,1.2-0.7,1.5l0.8,2.3h-1
		l-0.6-2h-0.2v2h-1V551.6z M96.3,554.4c0.4,0,0.7-0.2,0.7-0.9v-0.1c0-0.7-0.3-0.9-0.8-0.9h0L96.3,554.4L96.3,554.4z"/>
	<path class="st2" d="M61.5,360.1h0.8c0.9,0,1.8,0.4,1.8,1.4v0c0,0.7-0.4,1.1-0.8,1.3c0.5,0.2,0.9,0.5,0.9,1.2v0.1
		c0,1-0.8,1.6-1.9,1.6h-0.9C61.5,365.7,61.5,360.1,61.5,360.1z M62.5,362.5c0.4,0,0.7-0.2,0.7-0.7v0c0-0.5-0.3-0.7-0.7-0.7h0
		L62.5,362.5L62.5,362.5L62.5,362.5z M62.5,364.8c0.4,0,0.8-0.3,0.8-0.7v0c0-0.5-0.3-0.7-0.8-0.7h0L62.5,364.8L62.5,364.8z
		 M65.4,360.1h1l1.1,5.6h-1l-0.2-1.1h-0.9l-0.2,1.1h-0.9L65.4,360.1z M66.2,363.8l-0.3-1.8l-0.3,1.8H66.2z M67.8,360.1h1
		c1,0,1.7,0.5,1.7,1.8v0.1c0,0.7-0.3,1.2-0.7,1.5l0.8,2.3h-1l-0.6-2h-0.2v2h-1V360.1z M68.8,362.9c0.4,0,0.7-0.2,0.7-0.9v-0.1
		c0-0.7-0.3-0.9-0.8-0.9h0L68.8,362.9L68.8,362.9z"/>
	<path class="st2" d="M95.8,368.1h0.8c0.9,0,1.8,0.4,1.8,1.4v0c0,0.7-0.4,1.1-0.8,1.3c0.5,0.2,0.9,0.5,0.9,1.2v0.1
		c0,1-0.8,1.6-1.9,1.6h-0.9V368.1z M96.8,370.5c0.4,0,0.7-0.2,0.7-0.7v0c0-0.5-0.3-0.7-0.7-0.7h0L96.8,370.5L96.8,370.5L96.8,370.5z
		 M96.8,372.8c0.4,0,0.8-0.3,0.8-0.7v0c0-0.5-0.3-0.7-0.8-0.7h0L96.8,372.8L96.8,372.8z M98.8,371.1v-0.3c0-1.8,0.6-2.7,1.5-2.7
		s1.5,0.9,1.5,2.7v0.3c0,1.8-0.6,2.7-1.5,2.7S98.8,372.9,98.8,371.1z M100.8,371.1v-0.3c0-1.4-0.2-1.8-0.5-1.8s-0.5,0.4-0.5,1.8v0.3
		c0,1.4,0.2,1.8,0.5,1.8S100.8,372.5,100.8,371.1z M102.8,370.9l-0.9-2.7h1l0.4,1.6l0.4-1.6h1l-0.9,2.7l0.9,2.9h-1l-0.5-1.7
		l-0.5,1.7h-1L102.8,370.9z M106.4,371.1v-0.3c0-1.8,0.6-2.7,1.5-2.7s1.5,0.9,1.5,2.7v0.3c0,1.8-0.6,2.7-1.5,2.7
		S106.4,372.9,106.4,371.1z M108.4,371.1v-0.3c0-1.4-0.2-1.8-0.5-1.8s-0.5,0.4-0.5,1.8v0.3c0,1.4,0.2,1.8,0.5,1.8
		S108.4,372.5,108.4,371.1z M109.9,368.1h2v0.9h-1.1v1.4h0.9v0.9h-0.9v2.3h-1V368.1z M112.4,368.1h2v0.9h-1.1v1.4h0.9v0.9h-0.9v2.3
		h-1V368.1z M114.9,368.1h1v5.6h-1V368.1z M116.3,371v-0.2c0-2,0.7-2.7,1.6-2.7c0.3,0,0.4,0,0.6,0.1v1c-0.2-0.1-0.4-0.2-0.5-0.2
		c-0.4,0-0.7,0.4-0.7,1.8v0.2c0,1.5,0.3,1.8,0.8,1.8c0.2,0,0.3-0.1,0.5-0.2v1c-0.2,0.1-0.4,0.2-0.7,0.2
		C117,373.8,116.3,373,116.3,371z M119.1,368.1h2.1v0.9h-1.2v1.4h1v0.9h-1v1.4h1.2v0.9h-2.2V368.1z"/>
	<path class="st2" d="M46.5,963.2h-0.7v-0.9h2.4v0.9h-0.7v4.7h-1V963.2z M48.6,962.3h1v2.3h0.8v-2.3h1v5.6h-1v-2.4h-0.8v2.4h-1
		V962.3z M52,962.3h2.1v0.9H53v1.4h1v0.9h-1v1.4h1.2v0.9H52C52,967.9,52,962.3,52,962.3z M55.9,962.3h1l0.7,2l0.7-2h1v5.6h-0.9v-3.4
		l-0.7,2.1h0l-0.7-2.1v3.4h-0.9L55.9,962.3L55.9,962.3z M60.6,962.2h1l1.1,5.6h-1l-0.2-1.1h-0.9l-0.2,1.1h-0.9L60.6,962.2z
		 M61.4,965.9l-0.3-1.8l-0.3,1.8H61.4z M63,962.3h0.9l1,2.8v-2.8h1v5.6h-0.9l-1-3v3h-1C63,967.9,63,962.3,63,962.3z M66.4,962.3h1
		v2.3h0.8v-2.3h1v5.6h-1v-2.4h-0.8v2.4h-1V962.3z M70.5,962.2h1l1.1,5.6h-1l-0.2-1.1h-0.9l-0.2,1.1h-0.9L70.5,962.2z M71.3,965.9
		L71,964l-0.3,1.8H71.3z M73.2,963.2h-0.7v-0.9h2.4v0.9h-0.7v4.7h-1L73.2,963.2L73.2,963.2z M75.8,963.2h-0.7v-0.9h2.4v0.9h-0.7v4.7
		h-1L75.8,963.2L75.8,963.2z M78.4,962.2h1l1.1,5.6h-1l-0.2-1.1h-0.9l-0.2,1.1h-0.9L78.4,962.2z M79.2,965.9l-0.3-1.8l-0.3,1.8H79.2
		z M80.8,962.3h0.9l1,2.8v-2.8h1v5.6h-0.9l-1-3v3h-1C80.8,967.9,80.8,962.3,80.8,962.3z M85.5,962.3h1c1,0,1.7,0.5,1.7,1.8v0.1
		c0,0.7-0.3,1.2-0.7,1.5l0.8,2.3h-1l-0.6-2h-0.2v2h-1C85.5,967.9,85.5,962.3,85.5,962.3z M86.6,965c0.4,0,0.7-0.2,0.7-0.9v-0.1
		c0-0.7-0.3-0.9-0.8-0.9h0L86.6,965L86.6,965z M88.6,965.2v-0.3c0-1.8,0.6-2.7,1.5-2.7c0.9,0,1.5,0.9,1.5,2.7v0.3
		c0,1.8-0.6,2.7-1.5,2.7C89.2,967.9,88.6,967,88.6,965.2z M90.6,965.2v-0.3c0-1.4-0.2-1.8-0.5-1.8s-0.5,0.4-0.5,1.8v0.3
		c0,1.4,0.2,1.8,0.5,1.8S90.6,966.6,90.6,965.2z M92,965.2v-0.3c0-1.8,0.6-2.7,1.5-2.7c0.9,0,1.5,0.9,1.5,2.7v0.3
		c0,1.8-0.6,2.7-1.5,2.7C92.6,967.9,92,967,92,965.2z M94,965.2v-0.3c0-1.4-0.2-1.8-0.5-1.8s-0.5,0.4-0.5,1.8v0.3
		c0,1.4,0.2,1.8,0.5,1.8S94,966.6,94,965.2z M95.4,962.3h1l0.7,2l0.7-2h1v5.6h-0.9v-3.4l-0.7,2.1h0l-0.7-2.1v3.4h-0.9L95.4,962.3
		L95.4,962.3z"/>
	<path class="st2" d="M86.2,777.4h2.1v0.9h-1.2v1.4h1v0.9h-1v1.4h1.2v0.9h-2.2V777.4z M88.7,782.8v-1c0.3,0.2,0.6,0.3,0.9,0.3
		c0.3,0,0.5-0.1,0.5-0.5v0c0-0.3-0.1-0.4-0.5-1c-0.7-0.8-0.9-1.1-0.9-1.8v0c0-0.9,0.6-1.5,1.4-1.5c0.4,0,0.6,0.1,0.9,0.2v1
		c-0.3-0.2-0.5-0.3-0.7-0.3c-0.3,0-0.5,0.2-0.5,0.5v0c0,0.3,0.1,0.4,0.5,0.9c0.8,0.9,0.9,1.2,0.9,1.9v0c0,0.9-0.6,1.5-1.4,1.5
		C89.3,783,89,782.9,88.7,782.8z M91.3,780.3v-0.2c0-2,0.7-2.7,1.6-2.7c0.3,0,0.4,0,0.6,0.1v1c-0.2-0.1-0.4-0.2-0.5-0.2
		c-0.4,0-0.7,0.4-0.7,1.8v0.2c0,1.5,0.3,1.8,0.8,1.8c0.2,0,0.3-0.1,0.5-0.2v1c-0.2,0.1-0.4,0.2-0.7,0.2
		C91.9,783,91.3,782.2,91.3,780.3z M94.8,777.4h1l1.1,5.6h-1l-0.2-1.1h-0.9l-0.2,1.1h-0.9L94.8,777.4z M95.6,781l-0.3-1.8L95,781
		H95.6z M97.2,777.4h0.9c1.1,0,1.8,0.6,1.8,1.9v0c0,1.3-0.7,1.9-1.7,1.9h0v1.8h-1V777.4z M98.2,780.3c0.4,0,0.7-0.3,0.7-1v0
		c0-0.7-0.3-1-0.7-1h0L98.2,780.3L98.2,780.3L98.2,780.3z M100.3,777.4h2.1v0.9h-1.2v1.4h1v0.9h-1v1.4h1.2v0.9h-2.2V777.4z
		 M86,788.3v-0.2c0-2,0.7-2.7,1.6-2.7c0.3,0,0.4,0,0.6,0.1v1c-0.2-0.1-0.4-0.2-0.5-0.2c-0.4,0-0.7,0.4-0.7,1.8v0.2
		c0,1.5,0.3,1.8,0.8,1.8c0.2,0,0.3-0.1,0.5-0.2v1c-0.2,0.1-0.4,0.2-0.7,0.2C86.7,791,86,790.2,86,788.3z M89.6,785.4h1l1.1,5.6h-1
		l-0.2-1.1h-0.9l-0.2,1.1h-0.9L89.6,785.4z M90.4,789l-0.3-1.8l-0.3,1.8H90.4z M91.9,790.8v-1c0.3,0.2,0.6,0.3,0.9,0.3
		c0.3,0,0.5-0.1,0.5-0.5v0c0-0.3-0.1-0.4-0.5-1c-0.7-0.8-0.9-1.1-0.9-1.8v0c0-0.9,0.6-1.5,1.4-1.5c0.4,0,0.6,0.1,0.9,0.2v1
		c-0.3-0.2-0.5-0.3-0.7-0.3c-0.3,0-0.5,0.2-0.5,0.5v0c0,0.3,0.1,0.4,0.5,0.9c0.8,0.9,0.9,1.2,0.9,1.9v0c0,0.9-0.6,1.5-1.4,1.5
		C92.5,791,92.2,790.9,91.9,790.8z M94.6,785.4h1v5.6h-1V785.4z M96.2,785.4h0.9l1,2.8v-2.8h1v5.6h-0.9l-1-3v3h-1L96.2,785.4
		L96.2,785.4z M99.5,788.3V788c0-1.8,0.6-2.7,1.5-2.7c0.9,0,1.5,0.9,1.5,2.7v0.3c0,1.8-0.6,2.7-1.5,2.7
		C100.1,791.1,99.5,790.2,99.5,788.3z M101.5,788.3V788c0-1.4-0.2-1.8-0.5-1.8s-0.5,0.4-0.5,1.8v0.3c0,1.4,0.2,1.8,0.5,1.8
		S101.5,789.8,101.5,788.3z"/>
	<path class="st2" d="M22.6,782.8v-1c0.3,0.2,0.6,0.3,0.9,0.3c0.3,0,0.5-0.1,0.5-0.5v0c0-0.3-0.1-0.4-0.5-1
		c-0.7-0.8-0.9-1.1-0.9-1.8v0c0-0.9,0.6-1.5,1.4-1.5c0.4,0,0.6,0.1,0.9,0.2v1c-0.3-0.2-0.5-0.3-0.7-0.3c-0.3,0-0.5,0.2-0.5,0.5v0
		c0,0.3,0.1,0.4,0.5,0.9c0.8,0.9,0.9,1.2,0.9,1.9v0c0,0.9-0.6,1.5-1.4,1.5C23.2,783,22.8,782.9,22.6,782.8z M25.3,777.4h1v2.3
		l0.8-2.3h1.1l-0.9,2.4l1,3.2h-1.1l-0.6-2.1l-0.2,0.6v1.5h-1V777.4z M29.1,780.8l-1-3.4h1l0.5,2.1l0.5-2.1h1l-1,3.4v2.2h-1
		L29.1,780.8L29.1,780.8z M31.4,777.4h1v4.7h1v0.9h-2C31.4,783,31.4,777.4,31.4,777.4z M33.8,777.4h1v5.6h-1V777.4z M35.4,777.4h0.9
		l1,2.8v-2.8h1v5.6h-0.9l-1-3v3h-1C35.4,783,35.4,777.4,35.4,777.4z M38.8,777.4h2.1v0.9h-1.2v1.4h1v0.9h-1v1.4H41v0.9h-2.2
		C38.8,783,38.8,777.4,38.8,777.4z M28,785.4h0.8c0.9,0,1.8,0.4,1.8,1.4v0c0,0.7-0.4,1.1-0.8,1.3c0.5,0.2,0.9,0.5,0.9,1.2v0.1
		c0,1-0.8,1.6-1.9,1.6H28C28,791,28,785.4,28,785.4z M28.9,787.7c0.4,0,0.7-0.2,0.7-0.7v0c0-0.5-0.3-0.7-0.7-0.7h0L28.9,787.7
		L28.9,787.7z M29,790.1c0.4,0,0.8-0.3,0.8-0.7v0c0-0.5-0.3-0.7-0.8-0.7h0L29,790.1L29,790.1L29,790.1z M31.8,785.4h1l1.1,5.6h-1
		l-0.2-1.1h-0.9l-0.2,1.1h-0.9L31.8,785.4z M32.6,789l-0.3-1.8L32,789H32.6z M34.2,785.4h1c1,0,1.7,0.5,1.7,1.8v0.1
		c0,0.7-0.3,1.2-0.7,1.5l0.8,2.3h-1l-0.6-2h-0.2v2h-1V785.4z M35.3,788.1c0.4,0,0.7-0.2,0.7-0.9v-0.1c0-0.7-0.3-0.9-0.8-0.9h0
		L35.3,788.1L35.3,788.1z"/>
	<path class="st2" d="M52.5,292.4h2.1v0.9h-1.2v1.4h1v0.9h-1v1.4h1.2v0.9h-2.2C52.5,298,52.5,292.4,52.5,292.4z M55,297.8v-1
		c0.3,0.2,0.6,0.3,0.9,0.3c0.3,0,0.5-0.1,0.5-0.5v0c0-0.3-0.1-0.4-0.5-1c-0.7-0.8-0.9-1.1-0.9-1.8v0c0-0.9,0.6-1.5,1.4-1.5
		c0.4,0,0.6,0.1,0.9,0.2v1c-0.3-0.2-0.5-0.3-0.7-0.3c-0.3,0-0.5,0.2-0.5,0.5v0c0,0.3,0.1,0.4,0.5,0.9c0.8,0.9,0.9,1.2,0.9,1.9v0
		c0,0.9-0.6,1.5-1.4,1.5C55.7,298.1,55.3,298,55,297.8z M57.6,295.3v-0.2c0-2,0.7-2.7,1.6-2.7c0.3,0,0.4,0,0.6,0.1v1
		c-0.2-0.1-0.4-0.2-0.5-0.2c-0.4,0-0.7,0.4-0.7,1.8v0.2c0,1.5,0.3,1.8,0.8,1.8c0.2,0,0.3-0.1,0.5-0.2v1c-0.2,0.1-0.4,0.2-0.7,0.2
		C58.3,298.1,57.6,297.3,57.6,295.3z M61.2,292.4h1l1.1,5.6h-1l-0.2-1.1h-0.9l-0.2,1.1h-0.9L61.2,292.4z M62,296l-0.3-1.8l-0.3,1.8
		H62z M63.6,292.4h0.9c1.1,0,1.8,0.6,1.8,1.9v0c0,1.3-0.7,1.9-1.7,1.9h0v1.8h-1L63.6,292.4L63.6,292.4z M64.6,295.4
		c0.4,0,0.7-0.3,0.7-1v0c0-0.7-0.3-1-0.7-1h0L64.6,295.4L64.6,295.4L64.6,295.4z M66.7,292.4h2.1v0.9h-1.2v1.4h1v0.9h-1v1.4h1.2v0.9
		h-2.2L66.7,292.4L66.7,292.4z M71.1,293.4h-0.7v-0.9h2.4v0.9h-0.7v4.7h-1L71.1,293.4L71.1,293.4z M73.2,292.4h1v2.3H75v-2.3h1v5.6
		h-1v-2.4h-0.8v2.4h-1V292.4z M76.6,292.4h2.1v0.9h-1.2v1.4h1v0.9h-1v1.4h1.2v0.9h-2.2L76.6,292.4L76.6,292.4z M80,292.4h1l1.1,5.6
		h-1l-0.2-1.1H80l-0.2,1.1h-0.9L80,292.4z M80.8,296l-0.3-1.8l-0.3,1.8H80.8z M82.7,293.4H82v-0.9h2.4v0.9h-0.7v4.7h-1L82.7,293.4
		L82.7,293.4z M84.7,292.4h2.1v0.9h-1.2v1.4h1v0.9h-1v1.4h1.2v0.9h-2.2V292.4z M87.4,292.4h1c1,0,1.7,0.5,1.7,1.8v0.1
		c0,0.7-0.3,1.2-0.7,1.5l0.8,2.3h-1l-0.6-2h-0.2v2h-1V292.4z M88.4,295.2c0.4,0,0.7-0.2,0.7-0.9v-0.1c0-0.7-0.3-0.9-0.8-0.9h0
		L88.4,295.2L88.4,295.2z"/>
	<path class="st2" d="M62.8,633.4v-0.3c0-1.8,0.6-2.7,1.5-2.7c0.9,0,1.5,0.9,1.5,2.7v0.3c0,1.8-0.6,2.7-1.5,2.7
		C63.4,636.2,62.8,635.3,62.8,633.4z M64.7,633.4v-0.3c0-1.4-0.2-1.8-0.5-1.8c-0.3,0-0.5,0.4-0.5,1.8v0.3c0,1.4,0.2,1.8,0.5,1.8
		C64.5,635.3,64.7,634.9,64.7,633.4z M66.2,630.5h0.9c1.1,0,1.8,0.6,1.8,1.9v0c0,1.3-0.7,1.9-1.7,1.9h0v1.8h-1V630.5z M67.2,633.4
		c0.4,0,0.7-0.3,0.7-1v0c0-0.7-0.3-1-0.7-1h0L67.2,633.4L67.2,633.4L67.2,633.4z M69.3,630.5h2.1v0.9h-1.2v1.4h1v0.9h-1v1.4h1.2v0.9
		h-2.2V630.5z M71.9,630.5h0.9l1,2.8v-2.8h1v5.6h-0.9l-1-3v3h-1C71.9,636.1,71.9,630.5,71.9,630.5z M77.1,631.4h-0.7v-0.9h2.4v0.9
		h-0.7v4.7h-1C77.1,636.1,77.1,631.4,77.1,631.4z M79,633.4v-0.3c0-1.8,0.6-2.7,1.5-2.7c0.9,0,1.5,0.9,1.5,2.7v0.3
		c0,1.8-0.6,2.7-1.5,2.7C79.6,636.2,79,635.3,79,633.4z M80.9,633.4v-0.3c0-1.4-0.2-1.8-0.5-1.8c-0.3,0-0.5,0.4-0.5,1.8v0.3
		c0,1.4,0.2,1.8,0.5,1.8C80.7,635.3,80.9,634.9,80.9,633.4z M58.4,638.5h0.9c1.2,0,2,0.9,2,2.7v0.2c0,1.8-0.7,2.7-2,2.7h-0.9V638.5z
		 M59.5,643.2c0.5,0,0.9-0.4,0.9-1.8v-0.2c0-1.4-0.4-1.8-0.9-1.8h0L59.5,643.2L59.5,643.2z M61.8,638.5h2.1v0.9h-1.2v1.4h1v0.9h-1
		v1.4H64v0.9h-2.2C61.8,644.1,61.8,638.5,61.8,638.5z M64.3,641.4v-0.2c0-2,0.7-2.7,1.6-2.7c0.3,0,0.4,0,0.6,0.1v1
		c-0.2-0.1-0.4-0.2-0.5-0.2c-0.4,0-0.7,0.4-0.7,1.8v0.2c0,1.5,0.3,1.8,0.8,1.8c0.2,0,0.3-0.1,0.5-0.2v1c-0.2,0.1-0.4,0.2-0.7,0.2
		C64.9,644.1,64.3,643.3,64.3,641.4z M67,638.5h1v2.3l0.8-2.3h1.1l-0.9,2.4l1,3.2h-1.1l-0.6-2.1l-0.2,0.6v1.5h-1L67,638.5L67,638.5z
		 M72.3,638.5h1l1.1,5.6h-1l-0.2-1.1h-0.9l-0.2,1.1h-0.9L72.3,638.5z M73.1,642.1l-0.3-1.8l-0.3,1.8H73.1z M74.7,638.5h0.8
		c0.9,0,1.8,0.4,1.8,1.4v0c0,0.7-0.4,1.1-0.8,1.3c0.5,0.2,0.9,0.5,0.9,1.2v0.1c0,1-0.8,1.6-1.9,1.6h-0.9V638.5z M75.7,640.8
		c0.4,0,0.7-0.2,0.7-0.7v0c0-0.5-0.3-0.7-0.7-0.7h0L75.7,640.8L75.7,640.8z M75.7,643.2c0.4,0,0.8-0.3,0.8-0.7v0
		c0-0.5-0.3-0.7-0.8-0.7h0L75.7,643.2L75.7,643.2L75.7,643.2z M77.8,641.4v-0.3c0-1.8,0.6-2.7,1.5-2.7s1.5,0.9,1.5,2.7v0.3
		c0,1.8-0.6,2.7-1.5,2.7S77.8,643.3,77.8,641.4z M79.8,641.4v-0.3c0-1.4-0.2-1.8-0.5-1.8s-0.5,0.4-0.5,1.8v0.3
		c0,1.4,0.2,1.8,0.5,1.8S79.8,642.9,79.8,641.4z M80.9,638.5h1l0.5,3.6l0.5-3.6h1l-1,5.6h-1L80.9,638.5z M84.2,638.5h2.1v0.9h-1.2
		v1.4h1v0.9h-1v1.4h1.2v0.9h-2.2V638.5z M62.1,650.6L62.1,650.6c0-0.7,0.3-1.2,0.9-1.7c-0.3-0.5-0.5-0.9-0.5-1.3v-0.1
		c0-0.7,0.5-1.2,1.2-1.2c0.7,0,1.1,0.5,1.1,1.2v0.1c0,0.6-0.3,1.1-0.8,1.5l0.5,1c0-0.2,0.1-0.4,0.1-0.8l0.8,0.1
		c-0.1,0.6-0.2,1.1-0.4,1.4l0.5,0.8l-0.7,0.4l-0.3-0.5c-0.3,0.3-0.6,0.5-1,0.5C62.7,652.2,62.1,651.6,62.1,650.6z M64,651l-0.7-1.4
		c-0.2,0.3-0.3,0.6-0.3,0.9v0.1c0,0.4,0.2,0.7,0.5,0.7C63.7,651.3,63.9,651.2,64,651z M63.6,648.5c0.2-0.2,0.3-0.5,0.3-0.8v-0.1
		c0-0.3-0.1-0.4-0.3-0.4c-0.2,0-0.3,0.2-0.3,0.4v0.1C63.3,647.9,63.4,648.2,63.6,648.5z M67,646.5h0.8c0.9,0,1.8,0.4,1.8,1.4v0
		c0,0.7-0.4,1.1-0.8,1.3c0.5,0.2,0.9,0.5,0.9,1.2v0.1c0,1-0.8,1.6-1.9,1.6H67V646.5z M68,648.8c0.4,0,0.7-0.2,0.7-0.7v0
		c0-0.5-0.3-0.7-0.7-0.7h0L68,648.8L68,648.8z M68,651.2c0.4,0,0.8-0.3,0.8-0.7v0c0-0.5-0.3-0.7-0.8-0.7h0L68,651.2L68,651.2
		L68,651.2z M70.2,646.5h2.1v0.9h-1.2v1.4h1v0.9h-1v1.4h1.2v0.9h-2.2V646.5z M72.8,646.5h1v4.7h1v0.9h-2
		C72.8,652.1,72.8,646.5,72.8,646.5z M74.9,649.4v-0.3c0-1.8,0.6-2.7,1.5-2.7s1.5,0.9,1.5,2.7v0.3c0,1.8-0.6,2.7-1.5,2.7
		S74.9,651.3,74.9,649.4z M76.9,649.4v-0.3c0-1.4-0.2-1.8-0.5-1.8s-0.5,0.4-0.5,1.8v0.3c0,1.4,0.2,1.8,0.5,1.8
		S76.9,650.9,76.9,649.4z M78,646.5h1l0.4,3.4l0.5-3.4h0.9l0.5,3.4l0.4-3.4h1l-0.8,5.6h-1l-0.5-3.3l-0.5,3.3h-1L78,646.5z"/>
	<path class="st2" d="M80,503.3V503c0-1.8,0.6-2.7,1.5-2.7s1.5,0.9,1.5,2.7v0.3c0,1.8-0.6,2.7-1.5,2.7S80,505.1,80,503.3z M82,503.3
		V503c0-1.4-0.2-1.8-0.5-1.8S81,501.5,81,503v0.3c0,1.4,0.2,1.8,0.5,1.8S82,504.7,82,503.3z M83.4,500.3h0.9c1.1,0,1.8,0.6,1.8,1.9
		v0c0,1.3-0.7,1.9-1.7,1.9h0v1.8h-1V500.3z M84.4,503.3c0.4,0,0.7-0.3,0.7-1v0c0-0.7-0.3-1-0.7-1h0L84.4,503.3L84.4,503.3z
		 M86.5,500.3h2.1v0.9h-1.2v1.4h1v0.9h-1v1.4h1.2v0.9h-2.2V500.3z M89.2,500.3h0.9l1,2.8v-2.8h1v5.6h-0.9l-1-3v3h-1L89.2,500.3
		L89.2,500.3z M94.4,501.3h-0.7v-0.9H96v0.9h-0.7v4.7h-1C94.4,505.9,94.4,501.3,94.4,501.3z M96.2,503.3V503c0-1.8,0.6-2.7,1.5-2.7
		c0.9,0,1.5,0.9,1.5,2.7v0.3c0,1.8-0.6,2.7-1.5,2.7C96.8,506,96.2,505.1,96.2,503.3z M98.2,503.3V503c0-1.4-0.2-1.8-0.5-1.8
		s-0.5,0.4-0.5,1.8v0.3c0,1.4,0.2,1.8,0.5,1.8S98.2,504.7,98.2,503.3z M75.3,508.3h0.9c1.2,0,2,0.9,2,2.7v0.2c0,1.8-0.7,2.7-2,2.7
		h-0.9V508.3z M76.3,513c0.5,0,0.9-0.4,0.9-1.8V511c0-1.4-0.4-1.8-0.9-1.8h0L76.3,513L76.3,513z M78.7,508.3h2.1v0.9h-1.2v1.4h1v0.9
		h-1v1.4h1.2v0.9h-2.2V508.3z M81.1,511.2V511c0-2,0.7-2.7,1.6-2.7c0.3,0,0.4,0,0.6,0.1v1c-0.2-0.1-0.4-0.2-0.5-0.2
		c-0.4,0-0.7,0.4-0.7,1.8v0.2c0,1.5,0.3,1.8,0.8,1.8c0.2,0,0.3-0.1,0.5-0.2v1c-0.2,0.1-0.4,0.2-0.7,0.2
		C81.8,514,81.1,513.2,81.1,511.2z M83.9,508.3h1v2.3l0.8-2.3h1.1l-0.9,2.4l1,3.2h-1.1l-0.6-2.1l-0.2,0.6v1.5h-1
		C83.9,513.9,83.9,508.3,83.9,508.3z M88.4,508.3h0.8c0.9,0,1.8,0.4,1.8,1.4v0c0,0.7-0.4,1.1-0.8,1.3c0.5,0.2,0.9,0.5,0.9,1.2v0.1
		c0,1-0.8,1.6-1.9,1.6h-0.9V508.3z M89.4,510.7c0.4,0,0.7-0.2,0.7-0.7v0c0-0.5-0.3-0.7-0.7-0.7h0L89.4,510.7L89.4,510.7L89.4,510.7z
		 M89.4,513c0.4,0,0.8-0.3,0.8-0.7v0c0-0.5-0.3-0.7-0.8-0.7h0L89.4,513L89.4,513z M91.6,508.3h2.1v0.9h-1.2v1.4h1v0.9h-1v1.4h1.2
		v0.9h-2.2V508.3z M94.2,508.3h1v4.7h1v0.9h-2C94.2,513.9,94.2,508.3,94.2,508.3z M96.3,511.3V511c0-1.8,0.6-2.7,1.5-2.7
		s1.5,0.9,1.5,2.7v0.3c0,1.8-0.6,2.7-1.5,2.7S96.3,513.1,96.3,511.3z M98.3,511.3V511c0-1.4-0.2-1.8-0.5-1.8s-0.5,0.4-0.5,1.8v0.3
		c0,1.4,0.2,1.8,0.5,1.8S98.3,512.7,98.3,511.3z M99.4,508.3h1l0.4,3.4l0.5-3.4h0.9l0.5,3.4l0.4-3.4h1l-0.8,5.6h-1l-0.5-3.3
		l-0.5,3.3h-1L99.4,508.3z"/>
	<path class="st2" d="M25.9,497.4v-0.3c0-1.8,0.6-2.7,1.5-2.7s1.5,0.9,1.5,2.7v0.3c0,1.8-0.6,2.7-1.5,2.7S25.9,499.2,25.9,497.4z
		 M27.8,497.4v-0.3c0-1.4-0.2-1.8-0.5-1.8s-0.5,0.4-0.5,1.8v0.3c0,1.4,0.2,1.8,0.5,1.8S27.8,498.8,27.8,497.4z M29.2,496.5
		c0.6-0.1,0.7-0.6,0.7-0.9h-0.5v-1.1h1.1v0.9c0,0.8-0.4,1.4-1.2,1.5L29.2,496.5z M31,499.9v-1c0.3,0.2,0.6,0.3,0.9,0.3
		c0.3,0,0.5-0.1,0.5-0.5v0c0-0.3-0.1-0.4-0.5-1c-0.7-0.8-0.9-1.1-0.9-1.8v0c0-0.9,0.6-1.5,1.4-1.5c0.4,0,0.6,0.1,0.9,0.2v1
		c-0.3-0.2-0.5-0.3-0.7-0.3c-0.3,0-0.5,0.2-0.5,0.5v0c0,0.3,0.1,0.4,0.5,0.9c0.8,0.9,0.9,1.2,0.9,1.9v0c0,0.9-0.6,1.5-1.4,1.5
		C31.6,500.1,31.3,500,31,499.9z M33.7,494.5h1v2.3h0.8v-2.3h1v5.6h-1v-2.4h-0.8v2.4h-1V494.5z M37.1,494.5h2.1v0.9h-1.2v1.4h1v0.9
		h-1v1.4h1.2v0.9h-2.2C37.1,500,37.1,494.5,37.1,494.5z M39.7,494.5h2.1v0.9h-1.2v1.4h1v0.9h-1v1.4h1.2v0.9h-2.2V494.5z M42.4,494.5
		h1v2.3h0.8v-2.3h1v5.6h-1v-2.4h-0.8v2.4h-1V494.5z M46.5,494.4h1l1.1,5.6h-1l-0.2-1.1h-0.9l-0.2,1.1h-0.9L46.5,494.4z M47.3,498.1
		l-0.3-1.8l-0.3,1.8H47.3z M48.9,494.5h0.9l1,2.8v-2.8h1v5.6h-0.9l-1-3v3h-1C48.9,500,48.9,494.5,48.9,494.5z M52.3,496.5
		c0.6-0.1,0.7-0.6,0.7-0.9h-0.5v-1.1h1.1v0.9c0,0.8-0.4,1.4-1.2,1.5L52.3,496.5z M54,499.9v-1c0.3,0.2,0.6,0.3,0.9,0.3
		c0.3,0,0.5-0.1,0.5-0.5v0c0-0.3-0.1-0.4-0.5-1c-0.7-0.8-0.9-1.1-0.9-1.8v0c0-0.9,0.6-1.5,1.4-1.5c0.4,0,0.6,0.1,0.9,0.2v1
		c-0.3-0.2-0.5-0.3-0.7-0.3c-0.3,0-0.5,0.2-0.5,0.5v0c0,0.3,0.1,0.4,0.5,0.9c0.8,0.9,0.9,1.2,0.9,1.9v0c0,0.9-0.6,1.5-1.4,1.5
		C54.6,500.1,54.3,500,54,499.9z M22.7,502.5h0.9l1,2.8v-2.8h1v5.6h-0.9l-1-3v3h-1V502.5z M26.1,502.5h2.1v0.9h-1.2v1.4h1v0.9h-1
		v1.4h1.2v0.9h-2.2V502.5z M28.7,502.5h1v5.6h-1V502.5z M30.2,505.3v-0.2c0-1.8,0.8-2.7,1.9-2.7c0.3,0,0.5,0.1,0.7,0.2v1
		c-0.2-0.1-0.5-0.2-0.7-0.2c-0.6,0-0.9,0.6-0.9,1.8v0.3c0,1.5,0.4,1.8,0.8,1.8c0,0,0,0,0.1,0v-1.4h-0.5v-0.9H33v3
		c-0.4,0.2-0.6,0.2-1,0.2C31,508.1,30.2,507.3,30.2,505.3z M33.5,502.5h1v2.3h0.8v-2.3h1v5.6h-1v-2.4h-0.8v2.4h-1V502.5z
		 M36.9,502.5h0.8c0.9,0,1.8,0.4,1.8,1.4v0c0,0.7-0.4,1.1-0.8,1.3c0.5,0.2,0.9,0.5,0.9,1.2v0.1c0,1-0.8,1.6-1.9,1.6h-0.9L36.9,502.5
		L36.9,502.5z M37.9,504.8c0.4,0,0.7-0.2,0.7-0.7v0c0-0.5-0.3-0.7-0.7-0.7h0L37.9,504.8L37.9,504.8L37.9,504.8z M37.9,507.1
		c0.4,0,0.8-0.3,0.8-0.7v0c0-0.5-0.3-0.7-0.8-0.7h0L37.9,507.1L37.9,507.1z M40,505.4v-0.3c0-1.8,0.6-2.7,1.5-2.7s1.5,0.9,1.5,2.7
		v0.3c0,1.8-0.6,2.7-1.5,2.7C40.6,508.1,40,507.2,40,505.4z M42,505.4v-0.3c0-1.4-0.2-1.8-0.5-1.8s-0.5,0.4-0.5,1.8v0.3
		c0,1.4,0.2,1.8,0.5,1.8S42,506.8,42,505.4z M43.4,502.5h1c1,0,1.7,0.5,1.7,1.8v0.1c0,0.7-0.3,1.2-0.7,1.5l0.8,2.3h-1l-0.6-2h-0.2v2
		h-1L43.4,502.5L43.4,502.5z M44.5,505.2c0.4,0,0.7-0.2,0.7-0.9v-0.1c0-0.7-0.3-0.9-0.8-0.9h0L44.5,505.2L44.5,505.2z M46.6,502.5h1
		v2.3h0.8v-2.3h1v5.6h-1v-2.4h-0.8v2.4h-1V502.5z M49.9,505.4v-0.3c0-1.8,0.6-2.7,1.5-2.7s1.5,0.9,1.5,2.7v0.3
		c0,1.8-0.6,2.7-1.5,2.7S49.9,507.2,49.9,505.4z M51.9,505.4v-0.3c0-1.4-0.2-1.8-0.5-1.8s-0.5,0.4-0.5,1.8v0.3
		c0,1.4,0.2,1.8,0.5,1.8S51.9,506.8,51.9,505.4z M53.3,505.4v-0.3c0-1.8,0.6-2.7,1.5-2.7s1.5,0.9,1.5,2.7v0.3c0,1.8-0.6,2.7-1.5,2.7
		S53.3,507.2,53.3,505.4z M55.2,505.4v-0.3c0-1.4-0.2-1.8-0.5-1.8s-0.5,0.4-0.5,1.8v0.3c0,1.4,0.2,1.8,0.5,1.8
		S55.2,506.8,55.2,505.4z M56.7,502.5h0.9c1.2,0,2,0.9,2,2.7v0.2c0,1.8-0.7,2.7-2,2.7h-0.9V502.5z M57.7,507.2
		c0.5,0,0.9-0.4,0.9-1.8v-0.2c0-1.4-0.4-1.8-0.9-1.8h0L57.7,507.2L57.7,507.2z M27.2,510.5h0.8c0.9,0,1.8,0.4,1.8,1.4v0
		c0,0.7-0.4,1.1-0.8,1.3c0.5,0.2,0.9,0.5,0.9,1.2v0.1c0,1-0.8,1.6-1.9,1.6h-0.9L27.2,510.5L27.2,510.5z M28.2,512.8
		c0.4,0,0.7-0.2,0.7-0.7v0c0-0.5-0.3-0.7-0.7-0.7h0L28.2,512.8L28.2,512.8L28.2,512.8z M28.2,515.1c0.4,0,0.8-0.3,0.8-0.7v0
		c0-0.5-0.3-0.7-0.8-0.7h0L28.2,515.1L28.2,515.1L28.2,515.1z M31.1,510.4h1l1.1,5.6h-1l-0.2-1.1h-0.9L31,516H30L31.1,510.4z
		 M31.9,514.1l-0.3-1.8l-0.3,1.8H31.9z M33.5,510.5h1c1,0,1.7,0.5,1.7,1.8v0.1c0,0.7-0.3,1.2-0.7,1.5l0.8,2.3h-1l-0.6-2h-0.2v2h-1
		L33.5,510.5L33.5,510.5z M34.5,513.2c0.4,0,0.7-0.2,0.7-0.9v-0.1c0-0.7-0.3-0.9-0.8-0.9h0L34.5,513.2L34.5,513.2L34.5,513.2z
		 M37.8,514.6L37.8,514.6c0-0.7,0.3-1.2,0.9-1.7c-0.3-0.5-0.5-0.9-0.5-1.3v-0.1c0-0.7,0.5-1.2,1.2-1.2c0.7,0,1.1,0.5,1.1,1.2v0.1
		c0,0.6-0.3,1.1-0.8,1.5l0.5,1c0-0.2,0.1-0.4,0.1-0.8l0.8,0.1c-0.1,0.6-0.2,1.1-0.4,1.4l0.5,0.8l-0.7,0.4l-0.3-0.5
		c-0.3,0.3-0.6,0.5-1,0.5C38.4,516.1,37.8,515.5,37.8,514.6z M39.7,515l-0.7-1.4c-0.2,0.3-0.3,0.6-0.3,0.9v0.1
		c0,0.4,0.2,0.7,0.5,0.7C39.4,515.3,39.6,515.2,39.7,515z M39.3,512.5c0.2-0.2,0.3-0.5,0.3-0.8v-0.1c0-0.3-0.1-0.4-0.3-0.4
		c-0.2,0-0.3,0.2-0.3,0.4v0.1C39,511.9,39.1,512.1,39.3,512.5z M42.6,513.3v-0.2c0-1.8,0.8-2.7,1.9-2.7c0.3,0,0.5,0.1,0.7,0.2v1
		c-0.2-0.1-0.5-0.2-0.7-0.2c-0.6,0-0.9,0.6-0.9,1.8v0.3c0,1.5,0.4,1.8,0.8,1.8c0,0,0,0,0.1,0v-1.4H44v-0.9h1.4v3
		c-0.4,0.2-0.6,0.2-1,0.2C43.4,516.1,42.6,515.3,42.6,513.3z M45.9,510.5h1c1,0,1.7,0.5,1.7,1.8v0.1c0,0.7-0.3,1.2-0.7,1.5l0.8,2.3
		h-1l-0.6-2h-0.2v2h-1L45.9,510.5L45.9,510.5z M47,513.2c0.4,0,0.7-0.2,0.7-0.9v-0.1c0-0.7-0.3-0.9-0.8-0.9h0L47,513.2L47,513.2
		L47,513.2z M49.1,510.5h1v5.6h-1V510.5z M50.7,510.5h1v4.7h1v0.9h-2V510.5z M53.1,510.5h1v4.7h1v0.9h-2L53.1,510.5L53.1,510.5z"/>
</g>
<g id="ESCAPE_DECK_07_TOP">
	<g id="gDeck07Locations">
		<path width="140.489" height="390.3119" id="_x30_7Aft" class="st3" d="M0.5,657.9c0,185.6,0,366.9,0,369.8c0,6.7,4.4,20.5,70.2,20.5c65.8,0,70.2-13.7,70.2-20.5
			c0-3,0-184.2,0-369.8H0.5z"/>
		<path width="140.489" height="298.95" id="_x30_7MidShip" class="st3" d="M141,358.9H0.5c0,76.9,0,188.7,0,299H141C141,547.6,141,435.8,141,358.9z"/>
		<path width="140.489" height="358.403" id="_x30_7Forward" class="st3" d="M141,265c0-3.2-1.9-4.8-1.9-4.8c0-3.4,0.2-132.1,0.2-138.6c0-38.5-41-93-47-100.5
			S79.7,0.5,70.7,0.5h0c-9,0-15.5,13-21.5,20.5s-47,62-47,100.5c0,6.5,0.2,135.3,0.2,138.6c0,0-1.9,1.7-1.9,4.9
			c0,12.2,0,46.3,0,93.8H141C141,311.4,141,277.2,141,265z"/>
	</g>
	<path class="st4" d="M70.7,0.5c-9,0-15.5,13-21.5,20.5s-47,62-47,100.5c0,6.5,0.2,135.3,0.2,138.6c0,0-1.9,1.7-1.9,4.9
		c0,65.2,0,756.8,0,762.6c0,6.7,4.4,20.5,70.3,20.5h-0.1c65.8,0,70.3-13.7,70.3-20.5c0-5.8,0-698,0-762.7c0-3.2-1.9-4.8-1.9-4.8
		c0-3.4,0.2-132.1,0.2-138.6c0-38.5-41-93-47-100.5S79.7,0.5,70.7,0.5L70.7,0.5L70.7,0.5z"/>
</g>
</svg>
