<?xml version="1.0" encoding="utf-8"?>
<!-- Generator: Adobe Illustrator 25.4.1, SVG Export Plug-In . SVG Version: 6.00 Build 0)  -->
<svg version="1.1" id="ESCAPE_DECK_19" xmlns="http://www.w3.org/2000/svg" xmlns:xlink="http://www.w3.org/1999/xlink" x="0px"
	 y="0px" width="137.2px" height="785.2px" viewBox="0 0 137.2 785.2" style="enable-background:new 0 0 137.2 785.2;"
	 xml:space="preserve">
<style type="text/css">
	.st0{fill:#FFFFFF;}
	.st1{fill:none;stroke:#D5DCE0;stroke-width:0.5;}
	.st2{fill:#DFEDF1;stroke:#CEDFE5;stroke-width:0.5;}
	.st3{fill:none;stroke:#FFFFFF;stroke-width:4;stroke-linejoin:round;stroke-miterlimit:500;}
	.st4{fill:none;stroke:#D5DCE0;stroke-width:0.5;stroke-miterlimit:3.9999;}
	.st5{fill:#DFEDF1;}
	.st6{fill:none;}
	.st7{fill:#CCDDE2;}
	.st8{fill:#6E8496;}
	.st9{fill:none;stroke:#076FA0;stroke-miterlimit:10;}
</style>
<g id="ESCAPE_DECK_19_BOTTOM">
	<path class="st0" d="M92.2,728.4v-86H42.8v86H29.4V768c0.9-0.3,1.8-0.4,2.8-0.4c4.2,0,7.8,2.7,9,6.5h15.2v4.8h22.7v-4.8h14.7
		c1.3-3.8,4.8-6.5,9-6.5c0.9,0,1.7,0.1,2.5,0.3v-39.5L92.2,728.4L92.2,728.4z"/>
	<path class="st0" d="M68.8,343.2h39.8v-68.1h13l0.1-71.2l6-6.5v-10.2l-6-5.8L122,60.3l5.5-5.6V44l-5.5-5.7c0,0,0-17,0-17.7
		c0-5.8-1.6-8.6-8.9-11.7c-11.2-4.7-20.8-8-43.6-8h-0.3h-0.3h-1.2h-0.3H67c-22.8,0-32.5,3.3-43.6,8c-7.3,3.1-8.9,5.9-8.9,11.7
		c0,0.7,0,17.7,0,17.7L8.9,44v10.8l5.5,5.6l0.2,134.2l-6,5.8v10.2l6,6.5l0.1,58.1h13.7v68.1h39.2h1.2V343.2z"/>
	<path class="st1" d="M92.2,728.4v-86H42.8v86H29.4V768c0.9-0.3,1.8-0.4,2.8-0.4c4.2,0,7.8,2.7,9,6.5h15.2v4.8h22.7v-4.8h14.7
		c1.3-3.8,4.8-6.5,9-6.5c0.9,0,1.7,0.1,2.5,0.3v-39.5L92.2,728.4L92.2,728.4z"/>
	<rect x="23.3" y="616.2" class="st1" width="8.5" height="2.6"/>
	<polygon class="st1" points="25,619.7 25,611.2 23,609.2 21.3,611.2 21.3,619.7 	"/>
	<polygon class="st1" points="22.9,623.9 13,623.9 10.5,625.9 13,627.6 22.9,627.6 	"/>
	<polygon class="st1" points="116.2,628 121.3,628 121.3,624 112.8,624 	"/>
	<polygon class="st1" points="114.5,627.5 114.5,612.7 112.7,610.3 110.8,612.7 110.8,627.5 	"/>
	<polygon class="st1" points="16,675.5 10.4,675.5 9.1,677.3 10.4,678.8 16,678.8 	"/>
	<polygon class="st1" points="22.9,692 9.7,692 9,694 9.7,695.7 22.9,695.7 	"/>
	<circle class="st1" cx="23.1" cy="626" r="2.5"/>
	<circle class="st1" cx="46.9" cy="626" r="2.5"/>
	<circle class="st1" cx="23.1" cy="609" r="2.5"/>
	<circle class="st1" cx="23.1" cy="643.1" r="2.5"/>
	<circle class="st1" cx="23.1" cy="659.9" r="2.5"/>
	<circle class="st1" cx="36.9" cy="659.9" r="2.5"/>
	<circle class="st1" cx="23.1" cy="677" r="2.5"/>
	<circle class="st1" cx="23.1" cy="693.9" r="2.5"/>
	<circle class="st1" cx="36.8" cy="693.9" r="2.5"/>
	<circle class="st1" cx="8.9" cy="626" r="2.5"/>
	<circle class="st1" cx="8.9" cy="643.1" r="2.5"/>
	<circle class="st1" cx="8.9" cy="677" r="2.5"/>
	<circle class="st1" cx="8.9" cy="693.9" r="2.5"/>
	<circle class="st1" cx="112.6" cy="626" r="2.5"/>
	<circle class="st1" cx="126.2" cy="626" r="2.5"/>
	<circle class="st1" cx="112.6" cy="609" r="2.5"/>
	<circle class="st1" cx="112.6" cy="643.1" r="2.5"/>
	<circle class="st1" cx="127.1" cy="643.1" r="2.5"/>
	<circle class="st1" cx="112.6" cy="659.9" r="2.5"/>
	<circle class="st1" cx="98.4" cy="659.9" r="2.5"/>
	<circle class="st1" cx="112.6" cy="677" r="2.5"/>
	<circle class="st1" cx="126.6" cy="677" r="2.5"/>
	<circle class="st1" cx="112.6" cy="693.9" r="2.5"/>
	<circle class="st1" cx="126.4" cy="693.9" r="2.5"/>
	<circle class="st1" cx="88.9" cy="626" r="2.5"/>
	<circle class="st1" cx="65.9" cy="626" r="2.5"/>
	<circle class="st1" cx="98.4" cy="636.4" r="2.5"/>
	<circle class="st1" cx="64.8" cy="636.4" r="2.5"/>
	<circle class="st1" cx="36.8" cy="636.4" r="2.5"/>
	<circle class="st1" cx="98.4" cy="675" r="2.5"/>
	<circle class="st1" cx="98.4" cy="693.9" r="2.5"/>
	<circle class="st1" cx="98.4" cy="711.1" r="2.5"/>
	<circle class="st1" cx="116.6" cy="711.1" r="2.5"/>
	<rect x="58.4" y="518.9" class="st1" width="18.3" height="14.2"/>
	<rect x="58.5" y="532.2" class="st1" width="7.6" height="1"/>
	<rect x="58.5" y="531.3" class="st1" width="7.6" height="1"/>
	<rect x="58.5" y="530.3" class="st1" width="7.6" height="1"/>
	<polygon class="st1" points="64.9,529.3 58.5,529.3 58.5,530.3 66.1,530.3 	"/>
	<polygon class="st1" points="63.6,528.3 58.5,528.3 58.5,529.3 64.9,529.3 	"/>
	<rect x="58.5" y="527.3" class="st1" width="3.6" height="1"/>
	<polyline class="st1" points="62.4,527.3 66.2,530.3 66.1,526.3 	"/>
	<path class="st1" d="M62.5,532.6c0,0.1-0.1,0.2-0.1,0.2l0,0c-0.1,0-0.1-0.1-0.1-0.2v-6.3c0-0.1,0.1-0.2,0.1-0.2l0,0
		c0.1,0,0.1,0.1,0.1,0.2V532.6z"/>
	<rect x="69" y="532.2" class="st1" width="7.6" height="1"/>
	<rect x="69" y="531.3" class="st1" width="7.6" height="1"/>
	<rect x="69" y="530.3" class="st1" width="7.6" height="1"/>
	<polygon class="st1" points="75.4,529.3 69,529.3 69,530.3 76.6,530.3 	"/>
	<polygon class="st1" points="74.1,528.3 69,528.3 69,529.3 75.4,529.3 	"/>
	<rect x="69" y="527.3" class="st1" width="3.6" height="1"/>
	<line class="st1" x1="72.9" y1="527.3" x2="76.7" y2="530.3"/>
	<path class="st1" d="M72.9,532.6c0,0.1-0.1,0.2-0.1,0.2l0,0c-0.1,0-0.1-0.1-0.1-0.2v-6.3c0-0.1,0.1-0.2,0.1-0.2l0,0
		c0.1,0,0.1,0.1,0.1,0.2V532.6z"/>
	<rect x="66.1" y="524.4" class="st1" width="2.8" height="8.4"/>
	<path class="st2" d="M128.7,514.4l-1.7-1c0.6-1.1,1.3-2.3,1.9-3.7c3.9-8.5,0.7-16.9-4.4-20.8s-11.6-3.3-17.3,1.5l-1.3-1.5
		c6.5-5.5,14-6.1,19.8-1.6c5.8,4.4,9.4,13.8,5,23.2C130,512,129.4,513.2,128.7,514.4z"/>
	<path class="st3" d="M100.7,531.6c11.3-2.6,21.1-7.4,27.2-17.7"/>
	<path class="st2" d="M85.6,534.2c-1.7,0-3.5-0.1-5.3-0.2l0.1-2c7.2,0.4,14,0,20.1-1.4l0.4,1.9C96.2,533.7,91,534.2,85.6,534.2z"/>
	
		<rect x="104.204" y="487.611" transform="matrix(0.7797 -0.6262 0.6262 0.7797 -283.7883 174.1653)" class="st0" width="2.8" height="5.5"/>
	<path class="st2" d="M128,506.3l-1.7-1.1c0.7-1,1.3-2,1.9-3.1c4-7.6,2.2-14.1-1.4-17.2c-4.1-3.6-10.5-3.1-16.7,1.4l-1.2-1.6
		c8.3-6,15.3-4.6,19.1-1.3c5,4.3,5.7,12.2,1.9,19.6C129.4,504.2,128.7,505.3,128,506.3z"/>
	<path class="st3" d="M100.4,521.7c11.1-2.2,20.8-7.1,26.8-15.9"/>
	<path class="st2" d="M85.5,524c-1.7,0-3.4,0-5.2-0.1l0.1-2c7.1,0.4,13.8,0,19.8-1.2l0.4,2C95.9,523.6,90.8,524,85.5,524z"/>
	<polygon class="st0" points="76.8,540 76.8,533.1 52.7,533.1 52.7,540 47.8,540 47.8,609.1 87.4,609.1 87.4,540 	"/>
	<rect x="71.315" y="526.002" transform="matrix(0.008 -1 1 0.008 -447.6089 602.4011)" class="st0" width="17.001" height="1.6"/>
	<line class="st1" x1="113.6" y1="677.2" x2="99.3" y2="660.2"/>
	<line class="st1" x1="127.5" y1="677.2" x2="113.3" y2="660.2"/>
	<polygon class="st1" points="113.3,694.2 117.1,711.3 127.2,694.1 127.2,625.8 113,608.9 	"/>
	<line class="st1" x1="113.6" y1="676.8" x2="99.3" y2="693.8"/>
	<line class="st1" x1="127.5" y1="676.8" x2="113.3" y2="693.8"/>
	<line class="st1" x1="127.3" y1="677" x2="113.3" y2="677"/>
	<polyline class="st1" points="127.2,694.1 99.3,694.2 117.1,711.3 	"/>
	<line class="st1" x1="0.4" y1="626" x2="136.6" y2="626"/>
	<line class="st1" x1="65.7" y1="625.9" x2="65.7" y2="636.2"/>
	<line class="st1" x1="104.5" y1="617.2" x2="113.3" y2="617.2"/>
	<line class="st1" x1="26" y1="617.2" x2="34.8" y2="617.2"/>
	<line class="st1" x1="23.2" y1="694.2" x2="23.2" y2="608.8"/>
	<polyline class="st1" points="36.9,694.1 23.2,676.9 37.2,660 23.6,643 37.2,636.3 23.3,626.1 	"/>
	<polyline class="st1" points="112.8,626.1 98.7,636.3 112.8,642.6 99.3,660 127.2,660 	"/>
	<polyline class="st1" points="37.2,636.3 47.4,625.9 65.7,636.4 89.7,626 98.7,636.3 	"/>
	<line class="st1" x1="111.4" y1="674.9" x2="98.7" y2="674.9"/>
	<polyline class="st1" points="113.3,659.8 127,642.9 113.5,626.1 	"/>
	<line class="st1" x1="113.4" y1="642.8" x2="127.2" y2="642.8"/>
	<line class="st1" x1="9.3" y1="660" x2="40.9" y2="660"/>
	<line class="st1" x1="9" y1="643.2" x2="23.6" y2="643.2"/>
	<line class="st1" x1="9.3" y1="677" x2="37" y2="677"/>
	<polyline class="st1" points="47.1,625.7 23.2,608.9 9.1,625.9 9.1,694.2 23.2,694.2 37.2,710.7 37.2,636.3 98.7,636.3 98.7,711.3 
		117.1,711.3 	"/>
	<polyline class="st1" points="22.3,626.1 9,643.2 22.8,659.6 9.3,677 22.3,694.3 	"/>
	<polyline class="st1" points="9.1,677.2 15.3,694.1 23.2,676.9 	"/>
	<rect x="48.9" y="696.6" class="st1" width="37.7" height="44.3"/>
	<rect x="61.6" y="725.7" class="st1" width="12.7" height="15.2"/>
	
		<ellipse transform="matrix(0.0997 -0.995 0.995 0.0997 -661.0433 720.9571)" class="st4" cx="67.876" cy="725.768" rx="6.3" ry="6.3"/>
	
		<ellipse transform="matrix(0.0997 -0.995 0.995 0.0997 -631.9893 694.6702)" class="st4" cx="67.877" cy="696.57" rx="6.3" ry="6.3"/>
	<path class="st1" d="M48.9,737.9c-0.1-10.3,8.5-18.5,18.9-18.5c9.8,0,18.8,8.1,18.8,17.7"/>
	<rect x="48.9" y="652.1" class="st1" width="37.7" height="44.3"/>
	<rect x="61.3" y="652.2" class="st1" width="12.7" height="15.2"/>
	
		<ellipse transform="matrix(0.0997 -0.995 0.995 0.0997 -603.0065 667.9046)" class="st4" cx="67.578" cy="667.171" rx="6.3" ry="6.3"/>
	<path class="st1" d="M86.6,655.1c0.1,10.3-8.5,18.5-18.9,18.5c-9.8,0-18.8-8.1-18.8-17.7"/>
	<line class="st1" x1="23.2" y1="694.2" x2="37" y2="694.2"/>
	<polyline class="st1" points="98.6,702.7 92.3,694.1 98.6,694.1 	"/>
	<polygon class="st1" points="79.2,114.7 79.2,104.3 56.2,104.3 56.2,114.7 47.2,114.7 47.2,171 88.5,171 88.5,114.7 	"/>
	<path class="st1" d="M67.8,86.4h21.3V30.8c0,0-7.3-3.5-21-3.5h-0.3c-13.8,0-21,3.5-21,3.5v55.5h21.3L67.8,86.4L67.8,86.4z"/>
	<polygon class="st1" points="88.9,274.2 88.9,222.2 47.2,222.2 47.2,274.2 34.9,274.2 34.9,343.2 100.7,343.2 100.7,274.2 	"/>
	<line class="st1" x1="49.5" y1="189.2" x2="49.5" y2="178.6"/>
	<line class="st1" x1="85.9" y1="178.6" x2="85.9" y2="189.2"/>
	<polyline class="st1" points="57.7,189.2 57.7,178.6 36.4,178.6 36.4,189.2 57.9,189.2 57.7,189.3 57.7,194.7 77.9,194.7 
		77.9,189.2 99.3,189.2 99.3,178.6 77.8,178.6 77.9,189.2 	"/>
	<line class="st1" x1="57.8" y1="184.1" x2="77.8" y2="184.1"/>
	<line class="st1" x1="94.4" y1="178.5" x2="94.4" y2="189.3"/>
	<line class="st1" x1="98" y1="177.2" x2="96.5" y2="183.8"/>
	<line class="st1" x1="89.1" y1="32" x2="89.1" y2="3.2"/>
	<line class="st1" x1="46.8" y1="114.7" x2="46.8" y2="85.9"/>
	<line class="st1" x1="88.5" y1="114.7" x2="120.9" y2="114.7"/>
	<line class="st1" x1="47.2" y1="171" x2="47.2" y2="177.2"/>
	<line class="st1" x1="67.8" y1="222.2" x2="67.8" y2="194.7"/>
	<path class="st2" d="M33.9,495c4.1-3.5,13.6-11.7,11.4-25.9c-0.9-5.7-4.2-10.7-9.2-13.7c-5.4-3.4-12.2-3.9-19.1-1.7
		c-12.4,4.1-13.1,18.1-13.1,22.1h7c0-2.5,0.3-12.8,8.2-15.4c6.3-2.1,10.7-0.6,13.3,1c3.2,2,5.4,5.2,5.9,8.8
		c1.4,9.1-3.5,14.7-8.9,19.4c1.4,1.7,2.8,3.6,4.2,5.6L33.9,495z"/>
	<path class="st2" d="M41.8,507.7L41.8,507.7c0-0.1-0.1-0.1-0.1-0.2s-0.1-0.1-0.1-0.2l0,0c-2.6-4.4-5.5-8.8-7.9-12.2
		c-1.4-2-2.8-3.9-4.2-5.6c-2.2-2.8-4.4-5.2-6.6-7.3l-4.9,5c2.1,2,4.1,4.3,6.2,6.9c1.4,1.7,2.8,3.6,4.2,5.6c2.3,3.2,4.6,6.8,7.1,11
		c4,6.6,1.7,12.2-1.5,14.9c-3.5,3-9.4,4-14.6-0.5c-2.3-2-3.5-4.2-3.5-6.6c0-6.1,6.8-13.4,12.5-18.7c-1.4-2-2.8-3.9-4.2-5.6
		c-7.1,6.4-15.3,15.2-15.3,24.4c0,4.5,2,8.5,5.9,11.9c3.7,3.1,8.1,4.7,12.4,4.7c4,0,8-1.4,11.3-4.2
		C44.1,526.2,47.2,517.2,41.8,507.7z"/>
	<path class="st5" d="M33.4,495.4l0.5-0.4c-1.4-2-2.8-3.9-4.1-5.7c-0.1,0,0.1,0,0,0l-0.9,0.8c-1.4,1.2-3.2,2.8-4.9,4.3
		c1.4,1.7,2.8,3.6,4.2,5.7C30,498.3,32,496.6,33.4,495.4z"/>
	<path class="st2" d="M24.2,494.1l5.3-4.6c0,0,0.5-0.4,1.4-1.3"/>
	<path class="st2" d="M27.3,500.8c0,0,0.5-0.5,1.1-1c0.6-0.6,5.3-4.7,5.3-4.7S35,494,36,493"/>
	<polygon class="st1" points="125.7,192.7 125.7,196 123.3,198.8 121.2,198.8 120.9,198.8 118.8,198.8 116.4,196 116.4,192.7 
		116.4,192.6 116.4,189.2 118.8,186.5 120.9,186.5 121.2,186.5 123.3,186.5 125.7,189.2 125.7,192.6 	"/>
	<path class="st6" d="M122.7,192.1c-0.5,0.2-1,0.4-1.9,0.4s-1.4-0.2-1.9-0.4c-0.4-0.2-0.8-0.4-1.7-0.4c-0.3,0-0.5,0-0.7,0.1v0.9l0,0
		c0.2,0,0.5-0.1,0.7-0.1c1,0,1.4,0.2,1.9,0.4c0.4,0.2,0.8,0.4,1.7,0.4c0.8,0,1.3-0.2,1.7-0.4c0.5-0.2,1-0.4,1.9-0.4
		c0.6,0,1,0.1,1.3,0.2l0,0v-0.1V192c-0.3-0.1-0.7-0.2-1.3-0.2C123.5,191.7,123.1,191.9,122.7,192.1z"/>
	<path class="st6" d="M122.7,189.1c-0.5,0.2-1,0.4-1.9,0.4s-1.4-0.2-1.9-0.4c-0.4-0.2-0.8-0.4-1.7-0.4c-0.1,0-0.2,0-0.2,0l-0.5,0.6
		v0.4c0.2,0,0.5-0.1,0.7-0.1c1,0,1.4,0.2,1.9,0.4c0.4,0.2,0.8,0.4,1.7,0.4c0.8,0,1.3-0.2,1.7-0.4c0.5-0.2,1-0.4,1.9-0.4
		c0.6,0,1,0.1,1.3,0.2v-0.5l-0.4-0.5c-0.2-0.1-0.5-0.1-0.9-0.1C123.5,188.7,123.1,188.9,122.7,189.1z"/>
	<path class="st6" d="M120.7,188c-1,0-1.4-0.2-1.9-0.4c-0.2-0.1-0.4-0.2-0.7-0.2l-0.7,0.8c0.8,0,1.2,0.2,1.6,0.4s0.8,0.4,1.7,0.4
		c0.8,0,1.3-0.2,1.7-0.4c0.5-0.2,1-0.4,1.9-0.4c0.1,0,0.2,0,0.3,0l-0.8-0.9c-0.5,0.1-0.9,0.2-1.2,0.3
		C122.2,187.8,121.7,188,120.7,188z"/>
	<path class="st6" d="M122.7,190.6c-0.5,0.2-1,0.4-1.9,0.4s-1.4-0.2-1.9-0.4c-0.4-0.2-0.8-0.4-1.7-0.4c-0.3,0-0.5,0-0.7,0.1v0.9
		c0.2,0,0.5-0.1,0.7-0.1c1,0,1.4,0.2,1.9,0.4c0.4,0.2,0.8,0.4,1.7,0.4c0.8,0,1.3-0.2,1.7-0.4c0.5-0.2,1-0.4,1.9-0.4
		c0.6,0,1,0.1,1.3,0.2v-0.9c-0.3-0.1-0.7-0.2-1.3-0.2C123.5,190.2,123.1,190.4,122.7,190.6z"/>
	<path class="st6" d="M120.7,187.4c0.8,0,1.3-0.2,1.7-0.4c0.3-0.1,0.6-0.2,1-0.3l-0.1-0.1h-2.1h-0.3h-2.1l-0.2,0.3
		c0.2,0.1,0.3,0.1,0.5,0.2C119.5,187.2,119.9,187.4,120.7,187.4z"/>
	<path class="st6" d="M122.7,196.6c-0.5,0.2-1,0.4-1.9,0.4s-1.4-0.2-1.9-0.4c-0.4-0.2-0.8-0.4-1.7-0.4c-0.2,0-0.4,0-0.6,0l0.8,0.9
		c0.9,0,1.3,0.2,1.8,0.4c0.4,0.2,0.8,0.4,1.7,0.4c0.8,0,1.3-0.2,1.7-0.4c0.5-0.2,1-0.4,1.9-0.4c0.2,0,0.3,0,0.4,0l0.7-0.8
		c-0.3-0.1-0.6-0.1-1.1-0.1C123.5,196.2,123.1,196.4,122.7,196.6z"/>
	<path class="st6" d="M122.7,195.1c-0.5,0.2-1,0.4-1.9,0.4s-1.4-0.2-1.9-0.4c-0.4-0.2-0.8-0.4-1.7-0.4c-0.3,0-0.5,0-0.7,0.1v0.9
		c0.2,0,0.5-0.1,0.7-0.1c1,0,1.4,0.2,1.9,0.4c0.4,0.2,0.8,0.4,1.7,0.4c0.8,0,1.3-0.2,1.7-0.4c0.5-0.2,1-0.4,1.9-0.4
		c0.6,0,1,0.1,1.3,0.2V195c-0.3-0.1-0.7-0.2-1.3-0.2C123.5,194.7,123.1,194.9,122.7,195.1z"/>
	<path class="st6" d="M122.7,193.6c-0.5,0.2-1,0.4-1.9,0.4s-1.4-0.2-1.9-0.4c-0.4-0.2-0.8-0.4-1.7-0.4c-0.3,0-0.5,0-0.7,0.1v0.9
		c0.2,0,0.5-0.1,0.7-0.1c1,0,1.4,0.2,1.9,0.4c0.4,0.2,0.8,0.4,1.7,0.4c0.8,0,1.3-0.2,1.7-0.4c0.5-0.2,1-0.4,1.9-0.4
		c0.6,0,1,0.1,1.3,0.2v-0.9c-0.3-0.1-0.7-0.2-1.3-0.2C123.5,193.2,123.1,193.4,122.7,193.6z"/>
	<path class="st6" d="M120.7,198.5c-1,0-1.4-0.2-1.9-0.4c-0.3-0.1-0.6-0.2-1-0.3l1,1.1h2.1h0.3h1.6c0.2-0.1,0.4-0.1,0.6-0.2l0.9-1
		c-0.8,0-1.2,0.2-1.6,0.3C122.2,198.3,121.7,198.5,120.7,198.5z"/>
	<path class="st7" d="M122.4,187c-0.4,0.2-0.8,0.4-1.7,0.4c-0.8,0-1.3-0.2-1.7-0.4c-0.2-0.1-0.3-0.1-0.5-0.2l-0.4,0.5
		c0.3,0.1,0.5,0.2,0.7,0.2c0.5,0.2,1,0.4,1.9,0.4s1.4-0.2,1.9-0.4c0.3-0.1,0.7-0.3,1.2-0.3l-0.5-0.5
		C123,186.8,122.7,186.9,122.4,187z"/>
	<path class="st7" d="M122.4,188.5c-0.4,0.2-0.8,0.4-1.7,0.4c-0.8,0-1.3-0.2-1.7-0.4c-0.4-0.2-0.9-0.3-1.6-0.4l-0.5,0.6
		c0.1,0,0.1,0,0.2,0c0.8,0,1.3,0.2,1.7,0.4c0.5,0.2,1,0.4,1.9,0.4s1.4-0.2,1.9-0.4c0.4-0.2,0.8-0.4,1.7-0.4c0.4,0,0.6,0,0.9,0.1
		l-0.6-0.7c-0.1,0-0.2,0-0.3,0C123.4,188.1,122.9,188.3,122.4,188.5z"/>
	<path class="st7" d="M122.4,190c-0.4,0.2-0.8,0.4-1.7,0.4c-0.8,0-1.3-0.2-1.7-0.4c-0.5-0.2-1-0.4-1.9-0.4c-0.3,0-0.5,0-0.7,0.1v0.6
		c0.2,0,0.4-0.1,0.7-0.1c0.8,0,1.3,0.2,1.7,0.4c0.5,0.2,1,0.4,1.9,0.4s1.4-0.2,1.9-0.4c0.4-0.2,0.8-0.4,1.7-0.4c0.6,0,1,0.1,1.3,0.2
		v-0.6c-0.3-0.1-0.7-0.2-1.3-0.2C123.4,189.6,122.9,189.8,122.4,190z"/>
	<path class="st7" d="M122.4,191.5c-0.4,0.2-0.8,0.4-1.7,0.4c-0.8,0-1.3-0.2-1.7-0.4c-0.5-0.2-1-0.4-1.9-0.4c-0.3,0-0.5,0-0.7,0.1
		v0.6c0.2,0,0.4-0.1,0.7-0.1c0.8,0,1.3,0.2,1.7,0.4c0.5,0.2,1,0.4,1.9,0.4s1.4-0.2,1.9-0.4c0.4-0.2,0.8-0.4,1.7-0.4
		c0.6,0,1,0.1,1.3,0.2v-0.6c-0.3-0.1-0.7-0.2-1.3-0.2C123.4,191.1,122.9,191.3,122.4,191.5z"/>
	<path class="st7" d="M122.4,193c-0.4,0.2-0.8,0.4-1.7,0.4c-0.8,0-1.3-0.2-1.7-0.4c-0.5-0.2-1-0.4-1.9-0.4c-0.3,0-0.5,0-0.7,0.1v0.1
		v0.5c0.2,0,0.4-0.1,0.7-0.1c0.8,0,1.3,0.2,1.7,0.4c0.5,0.2,1,0.4,1.9,0.4s1.4-0.2,1.9-0.4c0.4-0.2,0.8-0.4,1.7-0.4
		c0.6,0,1,0.1,1.3,0.2v-0.6c-0.3-0.1-0.7-0.2-1.3-0.2C123.4,192.6,122.9,192.8,122.4,193z"/>
	<path class="st7" d="M122.4,194.5c-0.4,0.2-0.8,0.4-1.7,0.4c-0.8,0-1.3-0.2-1.7-0.4c-0.5-0.2-1-0.4-1.9-0.4c-0.3,0-0.5,0-0.7,0.1
		v0.6c0.2,0,0.4-0.1,0.7-0.1c0.8,0,1.3,0.2,1.7,0.4c0.5,0.2,1,0.4,1.9,0.4s1.4-0.2,1.9-0.4c0.4-0.2,0.8-0.4,1.7-0.4
		c0.6,0,1,0.1,1.3,0.2v-0.6c-0.3-0.1-0.7-0.2-1.3-0.2C123.4,194.1,122.9,194.3,122.4,194.5z"/>
	<path class="st7" d="M122.4,196c-0.4,0.2-0.8,0.4-1.7,0.4c-0.8,0-1.3-0.2-1.7-0.4c-0.5-0.2-1-0.4-1.9-0.4c-0.3,0-0.5,0-0.7,0.1v0.4
		l0.1,0.1c0.2,0,0.4,0,0.6,0c0.8,0,1.3,0.2,1.7,0.4c0.5,0.2,1,0.4,1.9,0.4s1.4-0.2,1.9-0.4c0.4-0.2,0.8-0.4,1.7-0.4
		c0.5,0,0.8,0.1,1.1,0.1l0.2-0.2v-0.3c-0.3-0.1-0.7-0.2-1.3-0.2C123.4,195.6,122.9,195.8,122.4,196z"/>
	<path class="st7" d="M122.4,197.5c-0.4,0.2-0.8,0.4-1.7,0.4c-0.8,0-1.3-0.2-1.7-0.4c-0.4-0.2-0.9-0.4-1.8-0.4l0.6,0.6
		c0.4,0.1,0.7,0.2,1,0.3c0.5,0.2,1,0.4,1.9,0.4s1.4-0.2,1.9-0.4c0.4-0.2,0.8-0.3,1.6-0.3l0.5-0.6c-0.1,0-0.3,0-0.4,0
		C123.4,197.1,122.9,197.3,122.4,197.5z"/>
	<path class="st7" d="M123.3,198.9l0.1-0.2c-0.2,0-0.4,0.1-0.6,0.2H123.3z"/>
	<polygon class="st1" points="19.9,205.4 19.9,208.7 17.5,211.4 15.4,211.4 15.1,211.4 13,211.4 10.6,208.7 10.6,205.4 10.6,205.2 
		10.6,201.9 13,199.1 15.1,199.1 15.4,199.1 17.5,199.1 19.9,201.9 19.9,205.2 	"/>
	<path class="st6" d="M16.9,204.7c-0.5,0.2-1,0.4-1.9,0.4s-1.4-0.2-1.9-0.4c-0.4-0.2-0.8-0.4-1.7-0.4c-0.3,0-0.5,0-0.7,0.1v0.9l0,0
		c0.2,0,0.5-0.1,0.7-0.1c1,0,1.4,0.2,1.9,0.4c0.4,0.2,0.8,0.4,1.7,0.4c0.8,0,1.3-0.2,1.7-0.4c0.5-0.2,1-0.4,1.9-0.4
		c0.6,0,1,0.1,1.3,0.2l0,0v-0.1v-0.7c-0.3-0.1-0.7-0.2-1.3-0.2C17.7,204.4,17.3,204.6,16.9,204.7z"/>
	<path class="st6" d="M16.9,201.7c-0.5,0.2-1,0.4-1.9,0.4s-1.4-0.2-1.9-0.4c-0.4-0.2-0.8-0.4-1.7-0.4c-0.1,0-0.2,0-0.2,0l-0.5,0.6
		v0.4c0.2,0,0.5-0.1,0.7-0.1c1,0,1.4,0.2,1.9,0.4c0.4,0.2,0.8,0.4,1.7,0.4c0.8,0,1.3-0.2,1.7-0.4c0.5-0.2,1-0.4,1.9-0.4
		c0.6,0,1,0.1,1.3,0.2V202l-0.4-0.5c-0.2-0.1-0.5-0.1-0.9-0.1C17.7,201.4,17.3,201.6,16.9,201.7z"/>
	<path class="st6" d="M14.9,200.6c-1,0-1.4-0.2-1.9-0.4c-0.2-0.1-0.4-0.2-0.7-0.2l-0.7,0.8c0.8,0,1.2,0.2,1.6,0.4
		c0.4,0.2,0.8,0.4,1.7,0.4c0.8,0,1.3-0.2,1.7-0.4c0.5-0.2,1-0.4,1.9-0.4c0.1,0,0.2,0,0.3,0l-0.8-0.9c-0.5,0.1-0.9,0.2-1.2,0.3
		C16.4,200.4,15.9,200.6,14.9,200.6z"/>
	<path class="st6" d="M16.9,203.2c-0.5,0.2-1,0.4-1.9,0.4s-1.4-0.2-1.9-0.4c-0.4-0.2-0.8-0.4-1.7-0.4c-0.3,0-0.5,0-0.7,0.1v0.9
		c0.2,0,0.5-0.1,0.7-0.1c1,0,1.4,0.2,1.9,0.4c0.4,0.2,0.8,0.4,1.7,0.4c0.8,0,1.3-0.2,1.7-0.4c0.5-0.2,1-0.4,1.9-0.4
		c0.6,0,1,0.1,1.3,0.2V203c-0.3-0.1-0.7-0.2-1.3-0.2C17.7,202.9,17.3,203.1,16.9,203.2z"/>
	<path class="st6" d="M14.9,200c0.8,0,1.3-0.2,1.7-0.4c0.3-0.1,0.6-0.2,1-0.3l-0.1-0.1h-2.1h-0.3H13l-0.2,0.3
		c0.2,0.1,0.3,0.1,0.5,0.2C13.7,199.9,14.1,200,14.9,200z"/>
	<path class="st6" d="M16.9,209.3c-0.5,0.2-1,0.4-1.9,0.4s-1.4-0.2-1.9-0.4c-0.4-0.2-0.8-0.4-1.7-0.4c-0.2,0-0.4,0-0.6,0l0.8,0.9
		c0.9,0,1.3,0.2,1.8,0.4c0.4,0.2,0.8,0.4,1.7,0.4c0.8,0,1.3-0.2,1.7-0.4c0.5-0.2,1-0.4,1.9-0.4c0.2,0,0.3,0,0.4,0l0.7-0.8
		c-0.3-0.1-0.6-0.1-1.1-0.1C17.7,208.9,17.3,209.1,16.9,209.3z"/>
	<path class="st6" d="M16.9,207.8c-0.5,0.2-1,0.4-1.9,0.4s-1.4-0.2-1.9-0.4c-0.4-0.2-0.8-0.4-1.7-0.4c-0.3,0-0.5,0-0.7,0.1v0.9
		c0.2,0,0.5-0.1,0.7-0.1c1,0,1.4,0.2,1.9,0.4c0.4,0.2,0.8,0.4,1.7,0.4c0.8,0,1.3-0.2,1.7-0.4c0.5-0.2,1-0.4,1.9-0.4
		c0.6,0,1,0.1,1.3,0.2v-0.9c-0.3-0.1-0.7-0.2-1.3-0.2C17.7,207.4,17.3,207.6,16.9,207.8z"/>
	<path class="st6" d="M16.9,206.2c-0.5,0.2-1,0.4-1.9,0.4s-1.4-0.2-1.9-0.4c-0.4-0.2-0.8-0.4-1.7-0.4c-0.3,0-0.5,0-0.7,0.1v0.9
		c0.2,0,0.5-0.1,0.7-0.1c1,0,1.4,0.2,1.9,0.4c0.4,0.2,0.8,0.4,1.7,0.4c0.8,0,1.3-0.2,1.7-0.4c0.5-0.2,1-0.4,1.9-0.4
		c0.6,0,1,0.1,1.3,0.2V206c-0.3-0.1-0.7-0.2-1.3-0.2C17.7,205.9,17.3,206.1,16.9,206.2z"/>
	<path class="st6" d="M14.9,211.2c-1,0-1.4-0.2-1.9-0.4c-0.3-0.1-0.6-0.2-1-0.3l1,1.1h2.1h0.3H17c0.2-0.1,0.4-0.1,0.6-0.2l0.9-1
		c-0.8,0-1.2,0.2-1.6,0.3C16.4,210.9,15.9,211.2,14.9,211.2z"/>
	<path class="st7" d="M16.6,199.7c-0.4,0.2-0.8,0.4-1.7,0.4c-0.8,0-1.3-0.2-1.7-0.4c-0.2-0.1-0.3-0.1-0.5-0.2l-0.4,0.5
		c0.3,0.1,0.5,0.2,0.7,0.2c0.5,0.2,1,0.4,1.9,0.4s1.4-0.2,1.9-0.4c0.3-0.1,0.7-0.3,1.2-0.3l-0.5-0.5
		C17.2,199.5,16.9,199.6,16.6,199.7z"/>
	<path class="st7" d="M16.6,201.2c-0.4,0.2-0.8,0.4-1.7,0.4c-0.8,0-1.3-0.2-1.7-0.4s-0.9-0.3-1.6-0.4l-0.5,0.6c0.1,0,0.1,0,0.2,0
		c0.8,0,1.3,0.2,1.7,0.4c0.5,0.2,1,0.4,1.9,0.4s1.4-0.2,1.9-0.4c0.4-0.2,0.8-0.4,1.7-0.4c0.4,0,0.6,0,0.9,0.1l-0.6-0.7
		c-0.1,0-0.2,0-0.3,0C17.6,200.8,17.1,201,16.6,201.2z"/>
	<path class="st7" d="M16.6,202.7c-0.4,0.2-0.8,0.4-1.7,0.4c-0.8,0-1.3-0.2-1.7-0.4c-0.5-0.2-1-0.4-1.9-0.4c-0.3,0-0.5,0-0.7,0.1
		v0.6c0.2,0,0.4-0.1,0.7-0.1c0.8,0,1.3,0.2,1.7,0.4c0.5,0.2,1,0.4,1.9,0.4s1.4-0.2,1.9-0.4c0.4-0.2,0.8-0.4,1.7-0.4
		c0.6,0,1,0.1,1.3,0.2v-0.6c-0.3-0.1-0.7-0.2-1.3-0.2C17.6,202.3,17.1,202.5,16.6,202.7z"/>
	<path class="st7" d="M16.6,204.2c-0.4,0.2-0.8,0.4-1.7,0.4c-0.8,0-1.3-0.2-1.7-0.4c-0.5-0.2-1-0.4-1.9-0.4c-0.3,0-0.5,0-0.7,0.1
		v0.6c0.2,0,0.4-0.1,0.7-0.1c0.8,0,1.3,0.2,1.7,0.4c0.5,0.2,1,0.4,1.9,0.4s1.4-0.2,1.9-0.4c0.4-0.2,0.8-0.4,1.7-0.4
		c0.6,0,1,0.1,1.3,0.2V204c-0.3-0.1-0.7-0.2-1.3-0.2C17.6,203.8,17.1,204,16.6,204.2z"/>
	<path class="st7" d="M16.6,205.7c-0.4,0.2-0.8,0.4-1.7,0.4c-0.8,0-1.3-0.2-1.7-0.4c-0.5-0.2-1-0.4-1.9-0.4c-0.3,0-0.5,0-0.7,0.1
		v0.1v0.5c0.2,0,0.4-0.1,0.7-0.1c0.8,0,1.3,0.2,1.7,0.4c0.5,0.2,1,0.4,1.9,0.4s1.4-0.2,1.9-0.4c0.4-0.2,0.8-0.4,1.7-0.4
		c0.6,0,1,0.1,1.3,0.2v-0.6c-0.3-0.1-0.7-0.2-1.3-0.2C17.6,205.3,17.1,205.5,16.6,205.7z"/>
	<path class="st7" d="M16.6,207.2c-0.4,0.2-0.8,0.4-1.7,0.4c-0.8,0-1.3-0.2-1.7-0.4c-0.5-0.2-1-0.4-1.9-0.4c-0.3,0-0.5,0-0.7,0.1
		v0.6c0.2,0,0.4-0.1,0.7-0.1c0.8,0,1.3,0.2,1.7,0.4c0.5,0.2,1,0.4,1.9,0.4s1.4-0.2,1.9-0.4c0.4-0.2,0.8-0.4,1.7-0.4
		c0.6,0,1,0.1,1.3,0.2V207c-0.3-0.1-0.7-0.2-1.3-0.2C17.6,206.8,17.1,207,16.6,207.2z"/>
	<path class="st7" d="M16.6,208.7c-0.4,0.2-0.8,0.4-1.7,0.4c-0.8,0-1.3-0.2-1.7-0.4c-0.5-0.2-1-0.4-1.9-0.4c-0.3,0-0.5,0-0.7,0.1
		v0.4l0.1,0.1c0.2,0,0.4,0,0.6,0c0.8,0,1.3,0.2,1.7,0.4c0.5,0.2,1,0.4,1.9,0.4s1.4-0.2,1.9-0.4c0.4-0.2,0.8-0.4,1.7-0.4
		c0.5,0,0.8,0.1,1.1,0.1l0.2-0.2v-0.3c-0.3-0.1-0.7-0.2-1.3-0.2C17.6,208.3,17.1,208.5,16.6,208.7z"/>
	<path class="st7" d="M16.6,210.2c-0.4,0.2-0.8,0.4-1.7,0.4c-0.8,0-1.3-0.2-1.7-0.4s-0.9-0.4-1.8-0.4l0.6,0.6c0.4,0.1,0.7,0.2,1,0.3
		c0.5,0.2,1,0.4,1.9,0.4s1.4-0.2,1.9-0.4c0.4-0.2,0.8-0.3,1.6-0.3l0.5-0.6c-0.1,0-0.3,0-0.4,0C17.6,209.8,17.1,210,16.6,210.2z"/>
	<path class="st7" d="M17.5,211.5l0.1-0.2c-0.2,0-0.4,0.1-0.6,0.2H17.5z"/>
	<polygon class="st1" points="19.8,49.1 19.8,52.5 17.4,55.2 15.3,55.2 15,55.2 13,55.2 10.5,52.5 10.5,49.1 10.5,49 10.5,45.7 
		13,42.9 15,42.9 15.3,42.9 17.4,42.9 19.8,45.7 19.8,49 	"/>
	<path class="st6" d="M16.8,48.5c-0.5,0.2-1,0.4-1.9,0.4s-1.4-0.2-1.9-0.4c-0.4-0.2-0.8-0.4-1.7-0.4c-0.3,0-0.5,0-0.7,0.1v0.9l0,0
		c0.2,0,0.5-0.1,0.7-0.1c1,0,1.4,0.2,1.9,0.4c0.4,0.2,0.8,0.4,1.7,0.4c0.8,0,1.3-0.2,1.7-0.4c0.5-0.2,1-0.4,1.9-0.4
		c0.6,0,1,0.1,1.3,0.2l0,0v-0.1v-0.7c-0.3-0.1-0.7-0.2-1.3-0.2C17.6,48.2,17.2,48.3,16.8,48.5z"/>
	<path class="st6" d="M16.8,45.5c-0.5,0.2-1,0.4-1.9,0.4s-1.4-0.2-1.9-0.4c-0.4-0.2-0.8-0.4-1.7-0.4c-0.1,0-0.2,0-0.2,0l-0.5,0.6
		v0.4c0.2,0,0.5-0.1,0.7-0.1c1,0,1.4,0.2,1.9,0.4c0.4,0.2,0.8,0.4,1.7,0.4c0.8,0,1.3-0.2,1.7-0.4c0.5-0.2,1-0.4,1.9-0.4
		c0.6,0,1,0.1,1.3,0.2v-0.5l-0.4-0.5c-0.2-0.1-0.5-0.1-0.9-0.1C17.6,45.2,17.2,45.3,16.8,45.5z"/>
	<path class="st6" d="M14.9,44.4c-1,0-1.4-0.2-1.9-0.4c-0.2-0.1-0.4-0.2-0.7-0.2l-0.7,0.8c0.8,0,1.2,0.2,1.6,0.4
		c0.4,0.2,0.8,0.4,1.7,0.4c0.8,0,1.3-0.2,1.7-0.4c0.5-0.2,1-0.4,1.9-0.4c0.1,0,0.2,0,0.3,0L18,43.7c-0.5,0.1-0.9,0.2-1.2,0.3
		C16.3,44.2,15.8,44.4,14.9,44.4z"/>
	<path class="st6" d="M16.8,47c-0.5,0.2-1,0.4-1.9,0.4S13.5,47.2,13,47c-0.4-0.2-0.8-0.4-1.7-0.4c-0.3,0-0.5,0-0.7,0.1v0.9
		c0.2,0,0.5-0.1,0.7-0.1c1,0,1.4,0.2,1.9,0.4c0.4,0.2,0.8,0.4,1.7,0.4c0.8,0,1.3-0.2,1.7-0.4c0.5-0.2,1-0.4,1.9-0.4
		c0.6,0,1,0.1,1.3,0.2v-0.9c-0.3-0.1-0.7-0.2-1.3-0.2C17.6,46.7,17.2,46.8,16.8,47z"/>
	<path class="st6" d="M14.9,43.8c0.8,0,1.3-0.2,1.7-0.4c0.3-0.1,0.6-0.2,1-0.3L17.4,43h-2.1H15h-2.1l-0.2,0.3
		c0.2,0.1,0.3,0.1,0.5,0.2C13.6,43.6,14,43.8,14.9,43.8z"/>
	<path class="st6" d="M16.8,53c-0.5,0.2-1,0.4-1.9,0.4S13.5,53.2,13,53c-0.4-0.2-0.8-0.4-1.7-0.4c-0.2,0-0.4,0-0.6,0l0.8,0.9
		c0.9,0,1.3,0.2,1.8,0.4c0.4,0.2,0.8,0.4,1.7,0.4c0.8,0,1.3-0.2,1.7-0.4c0.5-0.2,1-0.4,1.9-0.4c0.2,0,0.3,0,0.4,0l0.7-0.8
		c-0.3-0.1-0.6-0.1-1.1-0.1C17.6,52.7,17.2,52.8,16.8,53z"/>
	<path class="st6" d="M16.8,51.5c-0.5,0.2-1,0.4-1.9,0.4s-1.4-0.2-1.9-0.4c-0.4-0.2-0.8-0.4-1.7-0.4c-0.3,0-0.5,0-0.7,0.1v0.9
		c0.2,0,0.5-0.1,0.7-0.1c1,0,1.4,0.2,1.9,0.4c0.4,0.2,0.8,0.4,1.7,0.4c0.8,0,1.3-0.2,1.7-0.4c0.5-0.2,1-0.4,1.9-0.4
		c0.6,0,1,0.1,1.3,0.2v-0.9c-0.3-0.1-0.7-0.2-1.3-0.2C17.6,51.2,17.2,51.3,16.8,51.5z"/>
	<path class="st6" d="M16.8,50c-0.5,0.2-1,0.4-1.9,0.4S13.5,50.2,13,50c-0.4-0.2-0.8-0.4-1.7-0.4c-0.3,0-0.5,0-0.7,0.1v0.9
		c0.2,0,0.5-0.1,0.7-0.1c1,0,1.4,0.2,1.9,0.4c0.4,0.2,0.8,0.4,1.7,0.4c0.8,0,1.3-0.2,1.7-0.4c0.5-0.2,1-0.4,1.9-0.4
		c0.6,0,1,0.1,1.3,0.2v-0.9c-0.3-0.1-0.7-0.2-1.3-0.2C17.6,49.7,17.2,49.8,16.8,50z"/>
	<path class="st6" d="M14.9,54.9c-1,0-1.4-0.2-1.9-0.4c-0.3-0.1-0.6-0.2-1-0.3l1,1.1h2h0.3h1.6c0.2-0.1,0.4-0.1,0.6-0.2l0.9-1
		c-0.8,0-1.2,0.2-1.6,0.3C16.3,54.7,15.8,54.9,14.9,54.9z"/>
	<path class="st7" d="M16.5,43.5c-0.4,0.2-0.8,0.4-1.7,0.4c-0.8,0-1.3-0.2-1.7-0.4c-0.2-0.1-0.3-0.1-0.5-0.2l-0.4,0.5
		c0.3,0.1,0.5,0.2,0.7,0.2c0.5,0.2,1,0.4,1.9,0.4s1.4-0.2,1.9-0.4c0.3-0.1,0.7-0.3,1.2-0.3l-0.5-0.5C17.1,43.2,16.8,43.3,16.5,43.5z
		"/>
	<path class="st7" d="M16.5,45c-0.4,0.2-0.8,0.4-1.7,0.4c-0.8,0-1.3-0.2-1.7-0.4s-0.9-0.3-1.6-0.4L11,45.2c0.1,0,0.1,0,0.2,0
		c0.8,0,1.3,0.2,1.7,0.4c0.5,0.2,1,0.4,1.9,0.4s1.4-0.2,1.9-0.4c0.4-0.2,0.8-0.4,1.7-0.4c0.4,0,0.6,0,0.9,0.1l-0.6-0.7
		c-0.1,0-0.2,0-0.3,0C17.5,44.6,17,44.8,16.5,45z"/>
	<path class="st7" d="M16.5,46.5c-0.4,0.2-0.8,0.4-1.7,0.4c-0.8,0-1.3-0.2-1.7-0.4c-0.5-0.2-1-0.4-1.9-0.4c-0.3,0-0.5,0-0.7,0.1v0.6
		c0.2,0,0.4-0.1,0.7-0.1c0.8,0,1.3,0.2,1.7,0.4c0.5,0.2,1,0.4,1.9,0.4s1.4-0.2,1.9-0.4c0.4-0.2,0.8-0.4,1.7-0.4c0.6,0,1,0.1,1.3,0.2
		v-0.6c-0.3-0.1-0.7-0.2-1.3-0.2C17.5,46.1,17,46.3,16.5,46.5z"/>
	<path class="st7" d="M16.5,48c-0.4,0.2-0.8,0.4-1.7,0.4c-0.8,0-1.3-0.2-1.7-0.4c-0.5-0.2-1-0.4-1.9-0.4c-0.3,0-0.5,0-0.7,0.1v0.6
		c0.2,0,0.4-0.1,0.7-0.1c0.8,0,1.3,0.2,1.7,0.4c0.5,0.2,1,0.4,1.9,0.4s1.4-0.2,1.9-0.4c0.4-0.2,0.8-0.4,1.7-0.4c0.6,0,1,0.1,1.3,0.2
		v-0.6c-0.3-0.1-0.7-0.2-1.3-0.2C17.5,47.6,17,47.8,16.5,48z"/>
	<path class="st7" d="M16.5,49.5c-0.4,0.2-0.8,0.4-1.7,0.4c-0.8,0-1.3-0.2-1.7-0.4c-0.5-0.2-1-0.4-1.9-0.4c-0.3,0-0.5,0-0.7,0.1v0.1
		v0.5c0.2,0,0.4-0.1,0.7-0.1c0.8,0,1.3,0.2,1.7,0.4c0.5,0.2,1,0.4,1.9,0.4s1.4-0.2,1.9-0.4c0.4-0.2,0.8-0.4,1.7-0.4
		c0.6,0,1,0.1,1.3,0.2v-0.6c-0.3-0.1-0.7-0.2-1.3-0.2C17.5,49.1,17,49.3,16.5,49.5z"/>
	<path class="st7" d="M16.5,51c-0.4,0.2-0.8,0.4-1.7,0.4c-0.8,0-1.3-0.2-1.7-0.4c-0.5-0.2-1-0.4-1.9-0.4c-0.3,0-0.5,0-0.7,0.1v0.6
		c0.2,0,0.4-0.1,0.7-0.1c0.8,0,1.3,0.2,1.7,0.4c0.5,0.2,1,0.4,1.9,0.4s1.4-0.2,1.9-0.4c0.4-0.2,0.8-0.4,1.7-0.4c0.6,0,1,0.1,1.3,0.2
		v-0.6c-0.3-0.1-0.7-0.2-1.3-0.2C17.5,50.6,17,50.8,16.5,51z"/>
	<path class="st7" d="M16.5,52.5c-0.4,0.2-0.8,0.4-1.7,0.4c-0.8,0-1.3-0.2-1.7-0.4c-0.5-0.2-1-0.4-1.9-0.4c-0.3,0-0.5,0-0.7,0.1v0.4
		l0.1,0.1c0.2,0,0.4,0,0.6,0c0.8,0,1.3,0.2,1.7,0.4c0.5,0.2,1,0.4,1.9,0.4s1.4-0.2,1.9-0.4c0.4-0.2,0.8-0.4,1.7-0.4
		c0.5,0,0.8,0.1,1.1,0.1l0.2-0.2v-0.3c-0.3-0.1-0.7-0.2-1.3-0.2C17.5,52.1,17,52.3,16.5,52.5z"/>
	<path class="st7" d="M16.5,54c-0.4,0.2-0.8,0.4-1.7,0.4c-0.8,0-1.3-0.2-1.7-0.4s-0.9-0.4-1.8-0.4l0.6,0.7c0.4,0.1,0.7,0.2,1,0.3
		c0.5,0.2,1,0.4,1.9,0.4s1.4-0.2,1.9-0.4c0.4-0.2,0.8-0.3,1.6-0.3l0.5-0.6c-0.1,0-0.3,0-0.4,0C17.5,53.6,17,53.8,16.5,54z"/>
	<path class="st7" d="M17.4,55.3l0.1-0.2c-0.2,0-0.4,0.1-0.6,0.2H17.4z"/>
	<polygon class="st1" points="125.6,49.1 125.6,52.5 123.2,55.2 121.1,55.2 120.8,55.2 118.8,55.2 116.3,52.5 116.3,49.1 116.3,49 
		116.3,45.7 118.8,42.9 120.8,42.9 121.1,42.9 123.2,42.9 125.6,45.7 125.6,49 	"/>
	<path class="st6" d="M122.6,48.5c-0.5,0.2-1,0.4-1.9,0.4s-1.4-0.2-1.9-0.4c-0.4-0.2-0.8-0.4-1.7-0.4c-0.3,0-0.5,0-0.7,0.1v0.9l0,0
		c0.2,0,0.5-0.1,0.7-0.1c1,0,1.4,0.2,1.9,0.4c0.4,0.2,0.8,0.4,1.7,0.4c0.8,0,1.3-0.2,1.7-0.4c0.5-0.2,1-0.4,1.9-0.4
		c0.6,0,1,0.1,1.3,0.2l0,0v-0.1v-0.7c-0.3-0.1-0.7-0.2-1.3-0.2C123.4,48.2,123,48.3,122.6,48.5z"/>
	<path class="st6" d="M122.6,45.5c-0.5,0.2-1,0.4-1.9,0.4s-1.4-0.2-1.9-0.4c-0.4-0.2-0.8-0.4-1.7-0.4c-0.1,0-0.2,0-0.2,0l-0.5,0.6
		v0.4c0.2,0,0.5-0.1,0.7-0.1c1,0,1.4,0.2,1.9,0.4c0.4,0.2,0.8,0.4,1.7,0.4c0.8,0,1.3-0.2,1.7-0.4c0.5-0.2,1-0.4,1.9-0.4
		c0.6,0,1,0.1,1.3,0.2v-0.5l-0.4-0.5c-0.2-0.1-0.5-0.1-0.9-0.1C123.4,45.2,123,45.3,122.6,45.5z"/>
	<path class="st6" d="M120.7,44.4c-1,0-1.4-0.2-1.9-0.4c-0.2-0.1-0.4-0.2-0.7-0.2l-0.7,0.8c0.8,0,1.2,0.2,1.6,0.4s0.8,0.4,1.7,0.4
		c0.8,0,1.3-0.2,1.7-0.4c0.5-0.2,1-0.4,1.9-0.4c0.1,0,0.2,0,0.3,0l-0.8-0.9c-0.5,0.1-0.9,0.2-1.2,0.3
		C122.1,44.2,121.6,44.4,120.7,44.4z"/>
	<path class="st6" d="M122.6,47c-0.5,0.2-1,0.4-1.9,0.4s-1.4-0.2-1.9-0.4c-0.4-0.2-0.8-0.4-1.7-0.4c-0.3,0-0.5,0-0.7,0.1v0.9
		c0.2,0,0.5-0.1,0.7-0.1c1,0,1.4,0.2,1.9,0.4c0.4,0.2,0.8,0.4,1.7,0.4c0.8,0,1.3-0.2,1.7-0.4c0.5-0.2,1-0.4,1.9-0.4
		c0.6,0,1,0.1,1.3,0.2v-0.9c-0.3-0.1-0.7-0.2-1.3-0.2C123.4,46.7,123,46.8,122.6,47z"/>
	<path class="st6" d="M120.7,43.8c0.8,0,1.3-0.2,1.7-0.4c0.3-0.1,0.6-0.2,1-0.3l-0.1-0.1h-2.1h-0.3h-2.1l-0.2,0.3
		c0.2,0.1,0.3,0.1,0.5,0.2C119.4,43.6,119.8,43.8,120.7,43.8z"/>
	<path class="st6" d="M122.6,53c-0.5,0.2-1,0.4-1.9,0.4s-1.4-0.2-1.9-0.4c-0.4-0.2-0.8-0.4-1.7-0.4c-0.2,0-0.4,0-0.6,0l0.8,0.9
		c0.9,0,1.3,0.2,1.8,0.4c0.4,0.2,0.8,0.4,1.7,0.4c0.8,0,1.3-0.2,1.7-0.4c0.5-0.2,1-0.4,1.9-0.4c0.2,0,0.3,0,0.4,0l0.7-0.8
		c-0.3-0.1-0.6-0.1-1.1-0.1C123.4,52.7,123,52.8,122.6,53z"/>
	<path class="st6" d="M122.6,51.5c-0.5,0.2-1,0.4-1.9,0.4s-1.4-0.2-1.9-0.4c-0.4-0.2-0.8-0.4-1.7-0.4c-0.3,0-0.5,0-0.7,0.1v0.9
		c0.2,0,0.5-0.1,0.7-0.1c1,0,1.4,0.2,1.9,0.4c0.4,0.2,0.8,0.4,1.7,0.4c0.8,0,1.3-0.2,1.7-0.4c0.5-0.2,1-0.4,1.9-0.4
		c0.6,0,1,0.1,1.3,0.2v-0.9c-0.3-0.1-0.7-0.2-1.3-0.2C123.4,51.2,123,51.3,122.6,51.5z"/>
	<path class="st6" d="M122.6,50c-0.5,0.2-1,0.4-1.9,0.4s-1.4-0.2-1.9-0.4c-0.4-0.2-0.8-0.4-1.7-0.4c-0.3,0-0.5,0-0.7,0.1v0.9
		c0.2,0,0.5-0.1,0.7-0.1c1,0,1.4,0.2,1.9,0.4c0.4,0.2,0.8,0.4,1.7,0.4c0.8,0,1.3-0.2,1.7-0.4c0.5-0.2,1-0.4,1.9-0.4
		c0.6,0,1,0.1,1.3,0.2v-0.9c-0.3-0.1-0.7-0.2-1.3-0.2C123.4,49.7,123,49.8,122.6,50z"/>
	<path class="st6" d="M120.7,54.9c-1,0-1.4-0.2-1.9-0.4c-0.3-0.1-0.6-0.2-1-0.3l1,1.1h2.1h0.3h1.6c0.2-0.1,0.4-0.1,0.6-0.2l0.9-1
		c-0.8,0-1.2,0.2-1.6,0.3C122.1,54.7,121.6,54.9,120.7,54.9z"/>
	<path class="st7" d="M122.3,43.5c-0.4,0.2-0.8,0.4-1.7,0.4c-0.8,0-1.3-0.2-1.7-0.4c-0.2-0.1-0.3-0.1-0.5-0.2l-0.4,0.5
		c0.3,0.1,0.5,0.2,0.7,0.2c0.5,0.2,1,0.4,1.9,0.4s1.4-0.2,1.9-0.4c0.3-0.1,0.7-0.3,1.2-0.3l-0.5-0.5
		C122.9,43.2,122.6,43.3,122.3,43.5z"/>
	<path class="st7" d="M122.3,45c-0.4,0.2-0.8,0.4-1.7,0.4c-0.8,0-1.3-0.2-1.7-0.4c-0.4-0.2-0.9-0.3-1.6-0.4l-0.5,0.6
		c0.1,0,0.1,0,0.2,0c0.8,0,1.3,0.2,1.7,0.4c0.5,0.2,1,0.4,1.9,0.4s1.4-0.2,1.9-0.4c0.4-0.2,0.8-0.4,1.7-0.4c0.4,0,0.6,0,0.9,0.1
		l-0.6-0.7c-0.1,0-0.2,0-0.3,0C123.3,44.6,122.8,44.8,122.3,45z"/>
	<path class="st7" d="M122.3,46.5c-0.4,0.2-0.8,0.4-1.7,0.4c-0.8,0-1.3-0.2-1.7-0.4c-0.5-0.2-1-0.4-1.9-0.4c-0.3,0-0.5,0-0.7,0.1
		v0.6c0.2,0,0.4-0.1,0.7-0.1c0.8,0,1.3,0.2,1.7,0.4c0.5,0.2,1,0.4,1.9,0.4s1.4-0.2,1.9-0.4c0.4-0.2,0.8-0.4,1.7-0.4
		c0.6,0,1,0.1,1.3,0.2v-0.6c-0.3-0.1-0.7-0.2-1.3-0.2C123.3,46.1,122.8,46.3,122.3,46.5z"/>
	<path class="st7" d="M122.3,48c-0.4,0.2-0.8,0.4-1.7,0.4c-0.8,0-1.3-0.2-1.7-0.4c-0.5-0.2-1-0.4-1.9-0.4c-0.3,0-0.5,0-0.7,0.1v0.6
		c0.2,0,0.4-0.1,0.7-0.1c0.8,0,1.3,0.2,1.7,0.4c0.5,0.2,1,0.4,1.9,0.4s1.4-0.2,1.9-0.4c0.4-0.2,0.8-0.4,1.7-0.4c0.6,0,1,0.1,1.3,0.2
		v-0.6c-0.3-0.1-0.7-0.2-1.3-0.2C123.3,47.6,122.8,47.8,122.3,48z"/>
	<path class="st7" d="M122.3,49.5c-0.4,0.2-0.8,0.4-1.7,0.4c-0.8,0-1.3-0.2-1.7-0.4c-0.5-0.2-1-0.4-1.9-0.4c-0.3,0-0.5,0-0.7,0.1
		v0.1v0.5c0.2,0,0.4-0.1,0.7-0.1c0.8,0,1.3,0.2,1.7,0.4c0.5,0.2,1,0.4,1.9,0.4s1.4-0.2,1.9-0.4c0.4-0.2,0.8-0.4,1.7-0.4
		c0.6,0,1,0.1,1.3,0.2v-0.6c-0.3-0.1-0.7-0.2-1.3-0.2C123.3,49.1,122.8,49.3,122.3,49.5z"/>
	<path class="st7" d="M122.3,51c-0.4,0.2-0.8,0.4-1.7,0.4c-0.8,0-1.3-0.2-1.7-0.4c-0.5-0.2-1-0.4-1.9-0.4c-0.3,0-0.5,0-0.7,0.1v0.6
		c0.2,0,0.4-0.1,0.7-0.1c0.8,0,1.3,0.2,1.7,0.4c0.5,0.2,1,0.4,1.9,0.4s1.4-0.2,1.9-0.4c0.4-0.2,0.8-0.4,1.7-0.4c0.6,0,1,0.1,1.3,0.2
		v-0.6c-0.3-0.1-0.7-0.2-1.3-0.2C123.3,50.6,122.8,50.8,122.3,51z"/>
	<path class="st7" d="M122.3,52.5c-0.4,0.2-0.8,0.4-1.7,0.4c-0.8,0-1.3-0.2-1.7-0.4c-0.5-0.2-1-0.4-1.9-0.4c-0.3,0-0.5,0-0.7,0.1
		v0.4l0.1,0.1c0.2,0,0.4,0,0.6,0c0.8,0,1.3,0.2,1.7,0.4c0.5,0.2,1,0.4,1.9,0.4s1.4-0.2,1.9-0.4c0.4-0.2,0.8-0.4,1.7-0.4
		c0.5,0,0.8,0.1,1.1,0.1l0.2-0.2v-0.3c-0.3-0.1-0.7-0.2-1.3-0.2C123.3,52.1,122.8,52.3,122.3,52.5z"/>
	<path class="st7" d="M122.3,54c-0.4,0.2-0.8,0.4-1.7,0.4c-0.8,0-1.3-0.2-1.7-0.4c-0.4-0.2-0.9-0.4-1.8-0.4l0.6,0.7
		c0.4,0.1,0.7,0.2,1,0.3c0.5,0.2,1,0.4,1.9,0.4s1.4-0.2,1.9-0.4c0.4-0.2,0.8-0.3,1.6-0.3l0.5-0.6c-0.1,0-0.3,0-0.4,0
		C123.3,53.6,122.8,53.8,122.3,54z"/>
	<path class="st7" d="M123.2,55.3l0.1-0.2c-0.2,0-0.4,0.1-0.6,0.2H123.2z"/>
	<line class="st1" x1="59.2" y1="615.4" x2="37.6" y2="616.7"/>
	<line class="st1" x1="82.3" y1="615.3" x2="102" y2="616.9"/>
	<line class="st1" x1="22.8" y1="699.8" x2="8.4" y2="714.8"/>
	<path class="st8" d="M39.6,181.4h1c1,0,1.7,0.5,1.7,1.8v0.1c0,0.7-0.3,1.2-0.7,1.5l0.8,2.3h-1l-0.6-2h-0.2v2h-1V181.4L39.6,181.4z
		 M40.7,184.1c0.4,0,0.7-0.2,0.7-0.9v-0.1c0-0.7-0.3-0.9-0.8-0.9l0,0L40.7,184.1L40.7,184.1z M42.8,181.4h1c1,0,1.7,0.5,1.7,1.8v0.1
		c0,0.7-0.3,1.2-0.7,1.5l0.8,2.3h-1l-0.6-2h-0.2v2h-1V181.4L42.8,181.4z M43.8,184.1c0.4,0,0.7-0.2,0.7-0.9v-0.1
		c0-0.7-0.3-0.9-0.8-0.9l0,0L43.8,184.1L43.8,184.1z"/>
	<path class="st8" d="M50.6,181.4h1c1,0,1.7,0.5,1.7,1.8v0.1c0,0.7-0.3,1.2-0.7,1.5l0.8,2.3h-1l-0.6-2h-0.2v2h-1V181.4L50.6,181.4z
		 M51.7,184.1c0.4,0,0.7-0.2,0.7-0.9v-0.1c0-0.7-0.3-0.9-0.8-0.9l0,0L51.7,184.1L51.7,184.1z M53.8,181.4h1c1,0,1.7,0.5,1.7,1.8v0.1
		c0,0.7-0.3,1.2-0.7,1.5l0.8,2.3h-1l-0.6-2h-0.2v2h-1V181.4L53.8,181.4z M54.8,184.1c0.4,0,0.7-0.2,0.7-0.9v-0.1
		c0-0.7-0.3-0.9-0.8-0.9l0,0L54.8,184.1L54.8,184.1z"/>
	<path class="st8" d="M87.9,181.4h1c1,0,1.7,0.5,1.7,1.8v0.1c0,0.7-0.3,1.2-0.7,1.5l0.8,2.3h-1l-0.6-2h-0.2v2h-1
		C87.9,187,87.9,181.4,87.9,181.4z M88.9,184.1c0.4,0,0.7-0.2,0.7-0.9v-0.1c0-0.7-0.3-0.9-0.8-0.9l0,0L88.9,184.1L88.9,184.1z
		 M91.1,181.4h1c1,0,1.7,0.5,1.7,1.8v0.1c0,0.7-0.3,1.2-0.7,1.5l0.8,2.3h-1l-0.6-2H92v2h-1C91.1,187,91.1,181.4,91.1,181.4z
		 M92.1,184.1c0.4,0,0.7-0.2,0.7-0.9v-0.1c0-0.7-0.3-0.9-0.8-0.9l0,0L92.1,184.1L92.1,184.1z"/>
	<path class="st8" d="M95.1,170.1h1c1,0,1.7,0.5,1.7,1.8v0.1c0,0.7-0.3,1.2-0.7,1.5l0.8,2.3h-1l-0.6-2H96v2h-1
		C95.1,175.7,95.1,170.1,95.1,170.1z M96.1,172.8c0.4,0,0.7-0.2,0.7-0.9v-0.1c0-0.7-0.3-0.9-0.8-0.9l0,0L96.1,172.8L96.1,172.8z
		 M98.2,170.1h1c1,0,1.7,0.5,1.7,1.8v0.1c0,0.7-0.3,1.2-0.7,1.5l0.8,2.3h-1l-0.6-2h-0.2v2h-1C98.2,175.8,98.2,170.1,98.2,170.1z
		 M99.3,172.8c0.4,0,0.7-0.2,0.7-0.9v-0.1c0-0.7-0.3-0.9-0.8-0.9l0,0L99.3,172.8L99.3,172.8z"/>
	<path class="st8" d="M60.9,619.2l1.3-3.9H61v-0.9h2.3v0.8L62,619h1.3v0.9h-2.4C60.9,619.9,60.9,619.2,60.9,619.2z M63.8,614.4h1
		v5.6h-1C63.8,620,63.8,614.4,63.8,614.4z M65.3,614.4h0.9c1.1,0,1.8,0.6,1.8,1.9l0,0c0,1.3-0.7,1.9-1.7,1.9l0,0v1.8h-1
		C65.3,620,65.3,614.4,65.3,614.4z M66.3,617.3c0.4,0,0.7-0.3,0.7-1l0,0c0-0.7-0.3-1-0.7-1l0,0V617.3L66.3,617.3L66.3,617.3z
		 M69.7,614.4h1v4.7h1v0.9h-2V614.4z M72.1,614.4h1v5.6h-1V614.4z M73.7,614.4h0.9l1,2.8v-2.8h1v5.6h-0.9l-1-3v3h-1V614.4z
		 M77.1,614.4h2.1v0.9H78v1.4h1v0.9h-1v1.4h1.2v0.9H77L77.1,614.4L77.1,614.4z"/>
	<path class="st8" d="M21.7,202.4h1v2.3h0.8v-2.3h1v5.6h-1v-2.4h-0.8v2.4h-1V202.4z M25,205.3V205c0-1.8,0.6-2.7,1.5-2.7
		s1.5,0.9,1.5,2.7v0.3c0,1.8-0.6,2.7-1.5,2.7C25.6,208.1,25,207.2,25,205.3z M27,205.3V205c0-1.4-0.2-1.8-0.5-1.8S26,203.6,26,205
		v0.3c0,1.4,0.2,1.8,0.5,1.8S27,206.8,27,205.3z M28.8,203.3h-0.7v-0.9h2.4v0.9h-0.7v4.7h-1C28.8,208,28.8,203.3,28.8,203.3z
		 M32.7,203.3H32v-0.9h2.4v0.9h-0.7v4.7h-1V203.3L32.7,203.3z M34.8,206.3v-4h1v4.1c0,0.5,0.2,0.7,0.4,0.7s0.4-0.2,0.4-0.7v-4.1h1v4
		c0,1.2-0.6,1.7-1.4,1.7C35.3,208,34.8,207.5,34.8,206.3z M38.1,202.4h0.8c0.9,0,1.8,0.4,1.8,1.4l0,0c0,0.7-0.4,1.1-0.8,1.3
		c0.5,0.2,0.9,0.5,0.9,1.2v0.1c0,1-0.8,1.6-1.9,1.6H38L38.1,202.4L38.1,202.4z M39.1,204.7c0.4,0,0.7-0.2,0.7-0.7l0,0
		c0-0.5-0.3-0.7-0.7-0.7l0,0V204.7L39.1,204.7z M39.1,207.1c0.4,0,0.8-0.3,0.8-0.7l0,0c0-0.5-0.3-0.7-0.8-0.7l0,0V207.1L39.1,207.1
		L39.1,207.1z"/>
	<path class="st8" d="M98.2,199.8h1v2.3h0.8v-2.3h1v5.6h-1V203h-0.8v2.4h-1V199.8z M101.5,202.7v-0.3c0-1.8,0.6-2.7,1.5-2.7
		s1.5,0.9,1.5,2.7v0.3c0,1.8-0.6,2.7-1.5,2.7C102.1,205.5,101.5,204.6,101.5,202.7z M103.5,202.7v-0.3c0-1.4-0.2-1.8-0.5-1.8
		s-0.5,0.4-0.5,1.8v0.3c0,1.4,0.2,1.8,0.5,1.8S103.5,204.2,103.5,202.7z M105.3,200.7h-0.7v-0.9h2.4v0.9h-0.7v4.7h-1L105.3,200.7
		L105.3,200.7z M109.2,200.7h-0.7v-0.9h2.4v0.9h-0.7v4.7h-1L109.2,200.7L109.2,200.7z M111.3,203.8v-4h1v4.1c0,0.5,0.2,0.7,0.4,0.7
		c0.2,0,0.4-0.2,0.4-0.7v-4.1h1v4c0,1.2-0.6,1.7-1.4,1.7C111.8,205.5,111.3,204.9,111.3,203.8z M114.6,199.8h0.8
		c0.9,0,1.8,0.4,1.8,1.4l0,0c0,0.7-0.4,1.1-0.8,1.3c0.5,0.2,0.9,0.5,0.9,1.2v0.1c0,1-0.8,1.6-1.9,1.6h-0.9L114.6,199.8L114.6,199.8z
		 M115.6,202.2c0.4,0,0.7-0.2,0.7-0.7l0,0c0-0.5-0.3-0.7-0.7-0.7l0,0V202.2L115.6,202.2z M115.6,204.5c0.4,0,0.8-0.3,0.8-0.7l0,0
		c0-0.5-0.3-0.7-0.8-0.7l0,0V204.5L115.6,204.5L115.6,204.5z"/>
	<path class="st8" d="M21.7,46.6h1v2.3h0.8v-2.3h1v5.6h-1v-2.4h-0.8v2.4h-1V46.6z M25,49.6v-0.3c0-1.8,0.6-2.7,1.5-2.7
		s1.5,0.9,1.5,2.7v0.3c0,1.8-0.6,2.7-1.5,2.7S25,51.4,25,49.6z M27,49.6v-0.3c0-1.4-0.2-1.8-0.5-1.8S26,47.8,26,49.3v0.3
		c0,1.4,0.2,1.8,0.5,1.8S27,51,27,49.6z M28.8,47.6h-0.7v-0.9h2.4v0.9h-0.7v4.7h-1C28.8,52.3,28.8,47.6,28.8,47.6z M32.7,47.6H32
		v-0.9h2.4v0.9h-0.7v4.7h-1V47.6L32.7,47.6z M34.8,50.6v-4h1v4.1c0,0.5,0.2,0.7,0.4,0.7s0.4-0.2,0.4-0.7v-4.1h1v4
		c0,1.2-0.6,1.7-1.4,1.7C35.3,52.3,34.8,51.8,34.8,50.6z M38.1,46.6h0.8c0.9,0,1.8,0.4,1.8,1.4l0,0c0,0.7-0.4,1.1-0.8,1.3
		c0.5,0.2,0.9,0.5,0.9,1.2v0.1c0,1-0.8,1.6-1.9,1.6H38L38.1,46.6L38.1,46.6z M39.1,49c0.4,0,0.7-0.2,0.7-0.7l0,0
		c0-0.5-0.3-0.7-0.7-0.7l0,0V49L39.1,49z M39.1,51.3c0.4,0,0.8-0.3,0.8-0.7l0,0c0-0.5-0.3-0.7-0.8-0.7l0,0V51.3L39.1,51.3L39.1,51.3
		z"/>
	<path class="st8" d="M95.5,46.6h1v2.3h0.8v-2.3h1v5.6h-1v-2.4h-0.8v2.4h-1V46.6L95.5,46.6z M98.8,49.6v-0.3c0-1.8,0.6-2.7,1.5-2.7
		s1.5,0.9,1.5,2.7v0.3c0,1.8-0.6,2.7-1.5,2.7S98.8,51.4,98.8,49.6z M100.8,49.6v-0.3c0-1.4-0.2-1.8-0.5-1.8s-0.5,0.4-0.5,1.8v0.3
		c0,1.4,0.2,1.8,0.5,1.8S100.8,51,100.8,49.6z M102.6,47.6h-0.7v-0.9h2.4v0.9h-0.7v4.7h-1L102.6,47.6L102.6,47.6z M106.4,47.6h-0.7
		v-0.9h2.4v0.9h-0.7v4.7h-1L106.4,47.6L106.4,47.6z M108.5,50.6v-4h1v4.1c0,0.5,0.2,0.7,0.4,0.7c0.2,0,0.4-0.2,0.4-0.7v-4.1h1v4
		c0,1.2-0.6,1.7-1.4,1.7S108.5,51.8,108.5,50.6z M111.8,46.6h0.8c0.9,0,1.8,0.4,1.8,1.4l0,0c0,0.7-0.4,1.1-0.8,1.3
		c0.5,0.2,0.9,0.5,0.9,1.2v0.1c0,1-0.8,1.6-1.9,1.6h-0.9L111.8,46.6L111.8,46.6z M112.8,49c0.4,0,0.7-0.2,0.7-0.7l0,0
		c0-0.5-0.3-0.7-0.7-0.7l0,0V49L112.8,49z M112.8,51.3c0.4,0,0.8-0.3,0.8-0.7l0,0c0-0.5-0.3-0.7-0.8-0.7l0,0V51.3L112.8,51.3
		L112.8,51.3z"/>
	<path class="st8" d="M33.7,751.5v-1c0.3,0.2,0.6,0.3,0.9,0.3c0.3,0,0.5-0.1,0.5-0.5l0,0c0-0.3-0.1-0.4-0.5-1
		c-0.7-0.8-0.9-1.1-0.9-1.8l0,0c0-0.9,0.6-1.5,1.4-1.5c0.4,0,0.6,0.1,0.9,0.2v1c-0.3-0.2-0.5-0.3-0.7-0.3c-0.3,0-0.5,0.2-0.5,0.5
		l0,0c0,0.3,0.1,0.4,0.5,0.9c0.8,0.9,0.9,1.2,0.9,1.9l0,0c0,0.9-0.6,1.5-1.4,1.5C34.3,751.7,34,751.6,33.7,751.5z M36.4,750v-4h1
		v4.1c0,0.5,0.2,0.7,0.4,0.7s0.4-0.2,0.4-0.7V746h1v4c0,1.2-0.6,1.7-1.4,1.7S36.4,751.2,36.4,750z M39.8,746.1h0.9l1,2.8v-2.8h1v5.6
		h-0.9l-1-3v3h-1V746.1z M32.6,754.1h0.9c1.2,0,2,0.9,2,2.7v0.2c0,1.8-0.7,2.7-2,2.7h-0.9V754.1z M33.6,758.8c0.5,0,0.9-0.4,0.9-1.8
		v-0.2c0-1.4-0.4-1.8-0.9-1.8l0,0V758.8L33.6,758.8z M36,754.1h2.1v0.9H37v1.4h1v0.9h-1v1.4h1.2v0.9H36C36,759.7,36,754.1,36,754.1z
		 M38.4,757v-0.2c0-2,0.7-2.7,1.6-2.7c0.3,0,0.4,0,0.6,0.1v1c-0.2-0.1-0.4-0.2-0.5-0.2c-0.4,0-0.7,0.4-0.7,1.8v0.2
		c0,1.5,0.3,1.8,0.8,1.8c0.2,0,0.3-0.1,0.5-0.2v1c-0.2,0.1-0.4,0.2-0.7,0.2C39.1,759.7,38.4,758.9,38.4,757z M41.2,754.1h1v2.3
		l0.8-2.3h1.1l-0.9,2.4l1,3.2H43l-0.6-2.1l-0.2,0.6v1.5h-1V754.1L41.2,754.1z"/>
	<path class="st8" d="M92.3,751.5v-1c0.3,0.2,0.6,0.3,0.9,0.3s0.5-0.1,0.5-0.5l0,0c0-0.3-0.1-0.4-0.5-1c-0.7-0.8-0.9-1.1-0.9-1.8
		l0,0c0-0.9,0.6-1.5,1.4-1.5c0.4,0,0.6,0.1,0.9,0.2v1c-0.3-0.2-0.5-0.3-0.7-0.3c-0.3,0-0.5,0.2-0.5,0.5l0,0c0,0.3,0.1,0.4,0.5,0.9
		c0.8,0.9,0.9,1.2,0.9,1.9l0,0c0,0.9-0.6,1.5-1.4,1.5C92.9,751.7,92.6,751.6,92.3,751.5z M95,750v-4h1v4.1c0,0.5,0.2,0.7,0.4,0.7
		s0.4-0.2,0.4-0.7V746h1v4c0,1.2-0.6,1.7-1.4,1.7S95,751.2,95,750z M98.4,746.1h0.9l1,2.8v-2.8h1v5.6h-0.9l-1-3v3h-1V746.1
		L98.4,746.1z M91.2,754.1h0.9c1.2,0,2,0.9,2,2.7v0.2c0,1.8-0.7,2.7-2,2.7h-0.9V754.1z M92.2,758.8c0.5,0,0.9-0.4,0.9-1.8v-0.2
		c0-1.4-0.4-1.8-0.9-1.8l0,0V758.8L92.2,758.8z M94.6,754.1h2.1v0.9h-1.2v1.4h1v0.9h-1v1.4h1.2v0.9h-2.2L94.6,754.1L94.6,754.1z
		 M97,757v-0.2c0-2,0.7-2.7,1.6-2.7c0.3,0,0.4,0,0.6,0.1v1c-0.2-0.1-0.4-0.2-0.5-0.2c-0.4,0-0.7,0.4-0.7,1.8v0.2
		c0,1.5,0.3,1.8,0.8,1.8c0.2,0,0.3-0.1,0.5-0.2v1c-0.2,0.1-0.4,0.2-0.7,0.2C97.7,759.7,97,758.9,97,757z M99.8,754.1h1v2.3l0.8-2.3
		h1.1l-0.9,2.4l1,3.2h-1.1l-0.6-2.1l-0.2,0.6v1.5h-1L99.8,754.1L99.8,754.1z"/>
	<path class="st8" d="M19.4,464.4h1l1.1,5.6h-1l-0.2-1.1h-0.9l-0.2,1.1h-0.9L19.4,464.4z M20.2,468l-0.3-1.8l-0.3,1.8H20.2z
		 M24,469.7c-0.2,0.2-0.5,0.4-0.8,0.4c-0.9,0-1.5-0.9-1.5-2.7v-0.3c0-1.8,0.6-2.7,1.5-2.7s1.5,0.9,1.5,2.7v0.3
		c0,0.8-0.1,1.4-0.3,1.8l0.5,0.5l-0.5,0.5L24,469.7z M23.4,469.1l-0.5-0.5l0.5-0.5l0.2,0.2c0-0.3,0-0.6,0-1.1v-0.3
		c0-1.4-0.2-1.8-0.5-1.8s-0.5,0.4-0.5,1.8v0.3c0,1.6,0.2,1.9,0.6,1.9C23.3,469.2,23.3,469.2,23.4,469.1z M25.2,468.4v-4h1v4.1
		c0,0.5,0.2,0.7,0.4,0.7s0.4-0.2,0.4-0.7v-4.1h1v4c0,1.2-0.6,1.7-1.4,1.7C25.8,470.1,25.2,469.5,25.2,468.4z M29.2,464.4h1l1.1,5.6
		h-1l-0.2-1.1h-0.9L29,470h-0.9L29.2,464.4z M30,468l-0.3-1.8l-0.3,1.8H30z M17.8,472.4h1c1,0,1.7,0.5,1.7,1.8v0.1
		c0,0.7-0.3,1.2-0.7,1.5l0.8,2.3h-1l-0.6-2h-0.2v2h-1L17.8,472.4L17.8,472.4z M18.8,475.2c0.4,0,0.7-0.2,0.7-0.9v-0.1
		c0-0.7-0.3-0.9-0.8-0.9l0,0L18.8,475.2L18.8,475.2L18.8,475.2z M21.7,472.4h1l1.1,5.6h-1l-0.2-1.1h-0.9l-0.2,1.1h-0.9L21.7,472.4z
		 M22.5,476l-0.3-1.8l-0.3,1.8H22.5z M23.9,475.3v-0.2c0-2,0.7-2.7,1.6-2.7c0.3,0,0.4,0,0.6,0.1v1c-0.2-0.1-0.4-0.2-0.5-0.2
		c-0.4,0-0.7,0.4-0.7,1.8v0.2c0,1.5,0.3,1.8,0.8,1.8c0.2,0,0.3-0.1,0.5-0.2v1c-0.2,0.1-0.4,0.2-0.7,0.2
		C24.6,478,23.9,477.2,23.9,475.3z M26.7,472.4h2.1v0.9h-1.2v1.4h1v0.9h-1v1.4h1.2v0.9h-2.2v-5.5L26.7,472.4L26.7,472.4z
		 M29.4,472.4h1c1,0,1.7,0.5,1.7,1.8v0.1c0,0.7-0.3,1.2-0.7,1.5l0.8,2.3h-1l-0.6-2h-0.2v2h-1L29.4,472.4L29.4,472.4z M30.4,475.2
		c0.4,0,0.7-0.2,0.7-0.9v-0.1c0-0.7-0.3-0.9-0.8-0.9l0,0L30.4,475.2L30.4,475.2L30.4,475.2z"/>
	<path class="st8" d="M5.3,716.8h1c1,0,1.7,0.5,1.7,1.8v0.1c0,0.7-0.3,1.2-0.7,1.5l0.8,2.3h-1l-0.6-2H6.3v2h-1V716.8z M6.3,719.6
		c0.4,0,0.7-0.2,0.7-0.9v-0.1c0-0.7-0.3-0.9-0.8-0.9l0,0L6.3,719.6L6.3,719.6z M8.4,719.8v-0.3c0-1.8,0.6-2.7,1.5-2.7
		s1.5,0.9,1.5,2.7v0.3c0,1.8-0.6,2.7-1.5,2.7S8.4,721.6,8.4,719.8z M10.4,719.8v-0.3c0-1.4-0.2-1.8-0.5-1.8s-0.5,0.4-0.5,1.8v0.3
		c0,1.4,0.2,1.8,0.5,1.8S10.4,721.2,10.4,719.8z M11.8,716.8h0.9c1.1,0,1.8,0.6,1.8,1.9l0,0c0,1.3-0.7,1.9-1.7,1.9l0,0v1.8h-1V716.8
		z M12.8,719.8c0.4,0,0.7-0.3,0.7-1l0,0c0-0.7-0.3-1-0.7-1l0,0V719.8L12.8,719.8L12.8,719.8z M14.9,716.8H17v0.9h-1.2v1.4h1v0.9h-1
		v1.4H17v0.9h-2.2L14.9,716.8L14.9,716.8z M17.4,722.2v-1c0.3,0.2,0.6,0.3,0.9,0.3s0.5-0.1,0.5-0.5l0,0c0-0.3-0.1-0.4-0.5-1
		c-0.7-0.8-0.9-1.1-0.9-1.8l0,0c0-0.9,0.6-1.5,1.4-1.5c0.4,0,0.6,0.1,0.9,0.2v1c-0.3-0.2-0.5-0.3-0.7-0.3c-0.3,0-0.5,0.2-0.5,0.5
		l0,0c0,0.3,0.1,0.4,0.5,0.9c0.8,0.9,0.9,1.2,0.9,1.9l0,0c0,0.9-0.6,1.5-1.4,1.5C18.1,722.5,17.7,722.4,17.4,722.2z M21.3,719.7
		v-0.2c0-2,0.7-2.7,1.6-2.7c0.3,0,0.4,0,0.6,0.1v1c-0.2-0.1-0.4-0.2-0.5-0.2c-0.4,0-0.7,0.4-0.7,1.8v0.2c0,1.5,0.3,1.8,0.8,1.8
		c0.2,0,0.3-0.1,0.5-0.2v1c-0.2,0.1-0.4,0.2-0.7,0.2C22,722.5,21.3,721.7,21.3,719.7z M23.8,719.8v-0.3c0-1.8,0.6-2.7,1.5-2.7
		s1.5,0.9,1.5,2.7v0.3c0,1.8-0.6,2.7-1.5,2.7S23.8,721.6,23.8,719.8z M25.8,719.8v-0.3c0-1.4-0.2-1.8-0.5-1.8s-0.5,0.4-0.5,1.8v0.3
		c0,1.4,0.2,1.8,0.5,1.8S25.8,721.2,25.8,719.8z M27.3,720.8v-4h1v4.1c0,0.5,0.2,0.7,0.4,0.7s0.4-0.2,0.4-0.7v-4.1h1v4
		c0,1.2-0.6,1.7-1.4,1.7S27.3,722,27.3,720.8z M30.6,716.8h1c1,0,1.7,0.5,1.7,1.8v0.1c0,0.7-0.3,1.2-0.7,1.5l0.8,2.3h-1l-0.6-2h-0.2
		v2h-1L30.6,716.8L30.6,716.8z M31.6,719.6c0.4,0,0.7-0.2,0.7-0.9v-0.1c0-0.7-0.3-0.9-0.8-0.9l0,0L31.6,719.6L31.6,719.6z
		 M33.7,722.2v-1c0.3,0.2,0.6,0.3,0.9,0.3c0.3,0,0.5-0.1,0.5-0.5l0,0c0-0.3-0.1-0.4-0.5-1c-0.7-0.8-0.9-1.1-0.9-1.8l0,0
		c0-0.9,0.6-1.5,1.4-1.5c0.4,0,0.6,0.1,0.9,0.2v1c-0.3-0.2-0.5-0.3-0.7-0.3c-0.3,0-0.5,0.2-0.5,0.5l0,0c0,0.3,0.1,0.4,0.5,0.9
		c0.8,0.9,0.9,1.2,0.9,1.9l0,0c0,0.9-0.6,1.5-1.4,1.5C34.3,722.5,34,722.4,33.7,722.2z M36.4,716.8h2.1v0.9h-1.2v1.4h1v0.9h-1v1.4
		h1.2v0.9h-2.2C36.4,722.4,36.4,716.8,36.4,716.8z"/>
	<path class="st8" d="M103.9,515.5h2v0.9h-1.1v1.4h0.9v0.9h-0.9v2.3h-1L103.9,515.5L103.9,515.5z M106.4,515.5h1
		c1,0,1.7,0.5,1.7,1.8v0.1c0,0.7-0.3,1.2-0.7,1.5l0.8,2.3h-1l-0.6-2h-0.2v2h-1C106.4,521.2,106.4,515.5,106.4,515.5z M107.4,518.3
		c0.4,0,0.7-0.2,0.7-0.9v-0.1c0-0.7-0.3-0.9-0.8-0.9l0,0L107.4,518.3L107.4,518.3z M109.6,515.5h2.1v0.9h-1.2v1.4h1v0.9h-1v1.4h1.2
		v0.9h-2.2L109.6,515.5L109.6,515.5z M112.2,515.5h2.1v0.9h-1.2v1.4h1v0.9h-1v1.4h1.2v0.9h-2.2L112.2,515.5L112.2,515.5z
		 M116.1,515.5h2v0.9H117v1.4h0.9v0.9H117v2.3h-1L116.1,515.5L116.1,515.5z M119.2,515.5h1l1.1,5.6h-1l-0.2-1.1h-0.9l-0.2,1.1h-0.9
		L119.2,515.5z M120,519.1l-0.3-1.8l-0.3,1.8H120z M121.6,515.5h1v4.7h1v0.9h-2V515.5z M124,515.5h1v4.7h1v0.9h-2
		C124,521.1,124,515.5,124,515.5z M107.4,528.9v-1c0.3,0.2,0.6,0.3,0.9,0.3s0.5-0.1,0.5-0.5l0,0c0-0.3-0.1-0.4-0.5-1
		c-0.7-0.8-0.9-1.1-0.9-1.8l0,0c0-0.9,0.6-1.5,1.4-1.5c0.4,0,0.6,0.1,0.9,0.2v1c-0.3-0.2-0.5-0.3-0.7-0.3c-0.3,0-0.5,0.2-0.5,0.5
		l0,0c0,0.3,0.1,0.4,0.5,0.9c0.8,0.9,0.9,1.2,0.9,1.9l0,0c0,0.9-0.6,1.5-1.4,1.5C108,529.1,107.7,529,107.4,528.9z M110.1,523.5h1
		v4.7h1v0.9h-2C110.1,529.1,110.1,523.5,110.1,523.5z M112.6,523.5h1v5.6h-1V523.5z M114.1,523.5h0.9c1.2,0,2,0.9,2,2.7v0.2
		c0,1.8-0.7,2.7-2,2.7h-0.9V523.5z M115.1,528.2c0.5,0,0.9-0.4,0.9-1.8v-0.2c0-1.4-0.4-1.8-0.9-1.8l0,0V528.2L115.1,528.2z
		 M117.5,523.5h2.1v0.9h-1.2v1.4h1v0.9h-1v1.4h1.2v0.9h-2.2L117.5,523.5L117.5,523.5z M120,528.9v-1c0.3,0.2,0.6,0.3,0.9,0.3
		s0.5-0.1,0.5-0.5l0,0c0-0.3-0.1-0.4-0.5-1c-0.7-0.8-0.9-1.1-0.9-1.8l0,0c0-0.9,0.6-1.5,1.4-1.5c0.4,0,0.6,0.1,0.9,0.2v1
		c-0.3-0.2-0.5-0.3-0.7-0.3c-0.3,0-0.5,0.2-0.5,0.5l0,0c0,0.3,0.1,0.4,0.5,0.9c0.8,0.9,0.9,1.2,0.9,1.9l0,0c0,0.9-0.6,1.5-1.4,1.5
		C120.6,529.1,120.3,529,120,528.9z"/>
	<path class="st8" d="M59.2,681.4v-1c0.3,0.2,0.6,0.3,0.9,0.3c0.3,0,0.5-0.1,0.5-0.5l0,0c0-0.3-0.1-0.4-0.5-1
		c-0.7-0.8-0.9-1.1-0.9-1.8l0,0c0-0.9,0.6-1.5,1.4-1.5c0.4,0,0.6,0.1,0.9,0.2v1c-0.3-0.2-0.5-0.3-0.7-0.3c-0.3,0-0.5,0.2-0.5,0.5
		l0,0c0,0.3,0.1,0.4,0.5,0.9c0.8,0.9,0.9,1.2,0.9,1.9l0,0c0,0.9-0.6,1.5-1.4,1.5C59.8,681.6,59.5,681.5,59.2,681.4z M61.9,676h0.9
		c1.1,0,1.8,0.6,1.8,1.9l0,0c0,1.3-0.7,1.9-1.7,1.9l0,0v1.8h-1C61.9,681.6,61.9,676,61.9,676z M62.9,678.9c0.4,0,0.7-0.3,0.7-1l0,0
		c0-0.7-0.3-1-0.7-1l0,0V678.9L62.9,678.9L62.9,678.9z M64.9,678.9v-0.3c0-1.8,0.6-2.7,1.5-2.7s1.5,0.9,1.5,2.7v0.3
		c0,1.8-0.6,2.7-1.5,2.7C65.5,681.7,64.9,680.8,64.9,678.9z M66.9,678.9v-0.3c0-1.4-0.2-1.8-0.5-1.8s-0.5,0.4-0.5,1.8v0.3
		c0,1.4,0.2,1.8,0.5,1.8S66.9,680.4,66.9,678.9z M68.4,676h1c1,0,1.7,0.5,1.7,1.8v0.1c0,0.7-0.3,1.2-0.7,1.5l0.8,2.3h-1l-0.6-2h-0.2
		v2h-1C68.4,681.7,68.4,676,68.4,676z M69.4,678.8c0.4,0,0.7-0.2,0.7-0.9v-0.1c0-0.7-0.3-0.9-0.8-0.9l0,0L69.4,678.8L69.4,678.8z
		 M72,676.9h-0.7V676h2.4v0.9H73v4.7h-1V676.9L72,676.9z M73.9,681.4v-1c0.3,0.2,0.6,0.3,0.9,0.3s0.5-0.1,0.5-0.5l0,0
		c0-0.3-0.1-0.4-0.5-1c-0.7-0.8-0.9-1.1-0.9-1.8l0,0c0-0.9,0.6-1.5,1.4-1.5c0.4,0,0.6,0.1,0.9,0.2v1c-0.3-0.2-0.5-0.3-0.7-0.3
		c-0.3,0-0.5,0.2-0.5,0.5l0,0c0,0.3,0.1,0.4,0.5,0.9c0.8,0.9,0.9,1.2,0.9,1.9l0,0c0,0.9-0.6,1.5-1.4,1.5
		C74.6,681.6,74.2,681.5,73.9,681.4z M57.4,686.9v-0.2c0-2,0.7-2.7,1.6-2.7c0.3,0,0.4,0,0.6,0.1v1c-0.2-0.1-0.4-0.2-0.5-0.2
		c-0.4,0-0.7,0.4-0.7,1.8v0.2c0,1.5,0.3,1.8,0.8,1.8c0.2,0,0.3-0.1,0.5-0.2v1c-0.2,0.1-0.4,0.2-0.7,0.2
		C58.1,689.6,57.4,688.8,57.4,686.9z M59.9,686.9v-0.3c0-1.8,0.6-2.7,1.5-2.7s1.5,0.9,1.5,2.7v0.3c0,1.8-0.6,2.7-1.5,2.7
		C60.5,689.7,59.9,688.8,59.9,686.9z M61.9,686.9v-0.3c0-1.4-0.2-1.8-0.5-1.8s-0.5,0.4-0.5,1.8v0.3c0,1.4,0.2,1.8,0.5,1.8
		S61.9,688.4,61.9,686.9z M63.4,684h1l0.7,2l0.7-2h1v5.6h-0.9v-3.4l-0.7,2.1l0,0l-0.7-2.1v3.4h-0.9V684H63.4z M67.2,684h0.9
		c1.1,0,1.8,0.6,1.8,1.9l0,0c0,1.3-0.7,1.9-1.7,1.9l0,0v1.8h-1C67.2,689.6,67.2,684,67.2,684z M68.2,686.9c0.4,0,0.7-0.3,0.7-1l0,0
		c0-0.7-0.3-1-0.7-1l0,0V686.9L68.2,686.9L68.2,686.9z M70.3,684h1v4.7h1v0.9h-2C70.3,689.6,70.3,684,70.3,684z M72.7,684h2.1v0.9
		h-1.2v1.4h1v0.9h-1v1.4h1.2v0.9h-2.2L72.7,684L72.7,684z M76,686.7l-0.9-2.7h1l0.4,1.6l0.4-1.6h1l-0.9,2.7l0.9,2.9h-1l-0.5-1.7
		l-0.5,1.7h-1L76,686.7z"/>
	<path class="st8" d="M23.4,87.6h0.9c1.1,0,1.8,0.6,1.8,1.9l0,0c0,1.3-0.7,1.9-1.7,1.9l0,0v1.8h-1C23.4,93.2,23.4,87.6,23.4,87.6z
		 M24.4,90.5c0.4,0,0.7-0.3,0.7-1l0,0c0-0.7-0.3-1-0.7-1l0,0V90.5L24.4,90.5z M26.4,91.6v-4h1v4.1c0,0.5,0.2,0.7,0.4,0.7
		s0.4-0.2,0.4-0.7v-4.1h1v4c0,1.2-0.6,1.7-1.4,1.7C27,93.3,26.4,92.7,26.4,91.6z M29.8,87.6h0.8c0.9,0,1.8,0.4,1.8,1.4l0,0
		c0,0.7-0.4,1.1-0.8,1.3c0.5,0.2,0.9,0.5,0.9,1.2v0.1c0,1-0.8,1.6-1.9,1.6h-0.9L29.8,87.6L29.8,87.6z M30.8,89.9
		c0.4,0,0.7-0.2,0.7-0.7l0,0c0-0.5-0.3-0.7-0.7-0.7l0,0V89.9L30.8,89.9L30.8,89.9z M30.8,92.3c0.4,0,0.8-0.3,0.8-0.7l0,0
		c0-0.5-0.3-0.7-0.8-0.7l0,0V92.3L30.8,92.3z M32.9,87.6h1v4.7h1v0.9h-2V87.6z M35.4,87.6h1v5.6h-1V87.6z M36.8,90.5v-0.2
		c0-2,0.7-2.7,1.6-2.7c0.3,0,0.4,0,0.6,0.1v1c-0.2-0.1-0.4-0.2-0.5-0.2c-0.4,0-0.7,0.4-0.7,1.8v0.2c0,1.5,0.3,1.8,0.8,1.8
		c0.2,0,0.3-0.1,0.5-0.2v1c-0.2,0.1-0.4,0.2-0.7,0.2C37.5,93.2,36.8,92.4,36.8,90.5z M20.1,101v-1c0.3,0.2,0.6,0.3,0.9,0.3
		s0.5-0.1,0.5-0.5l0,0c0-0.3-0.1-0.4-0.5-1c-0.7-0.8-0.9-1.1-0.9-1.8l0,0c0-0.9,0.6-1.5,1.4-1.5c0.4,0,0.6,0.1,0.9,0.2v1
		c-0.3-0.2-0.5-0.3-0.7-0.3c-0.3,0-0.5,0.2-0.5,0.5l0,0c0,0.3,0.1,0.4,0.5,0.9c0.8,0.9,0.9,1.2,0.9,1.9l0,0c0,0.9-0.6,1.5-1.4,1.5
		C20.8,101.2,20.4,101.1,20.1,101z M22.9,99.6v-4h1v4.1c0,0.5,0.2,0.7,0.4,0.7s0.4-0.2,0.4-0.7v-4.1h1v4c0,1.2-0.6,1.7-1.4,1.7
		C23.4,101.3,22.9,100.7,22.9,99.6z M26.2,95.6h0.9l1,2.8v-2.8h1v5.6h-0.9l-1-3v3h-1V95.6z M30.9,95.6h0.9c1.2,0,2,0.9,2,2.7v0.2
		c0,1.8-0.7,2.7-2,2.7h-0.9C30.9,101.2,30.9,95.6,30.9,95.6z M31.9,100.3c0.5,0,0.9-0.4,0.9-1.8v-0.2c0-1.4-0.4-1.8-0.9-1.8l0,0
		V100.3L31.9,100.3z M34.2,95.6h2.1v0.9h-1.2v1.4h1v0.9h-1v1.4h1.2v0.9h-2.2C34.2,101.2,34.2,95.6,34.2,95.6z M36.7,98.5v-0.2
		c0-2,0.7-2.7,1.6-2.7c0.3,0,0.4,0,0.6,0.1v1c-0.2-0.1-0.4-0.2-0.5-0.2c-0.4,0-0.7,0.4-0.7,1.8v0.2c0,1.5,0.3,1.8,0.8,1.8
		c0.2,0,0.3-0.1,0.5-0.2v1c-0.2,0.1-0.4,0.2-0.7,0.2C37.4,101.2,36.7,100.4,36.7,98.5z M39.5,95.6h1v2.3l0.8-2.3h1.1l-1,2.4l1,3.2
		h-1.1l-0.6-2.1l-0.2,0.6v1.5h-1V95.6L39.5,95.6z"/>
	<path class="st8" d="M99.9,133.1h1l0.5,3.6l0.5-3.6h1l-1,5.6h-1L99.9,133.1z M103.2,133.1h1v5.6h-1V133.1z M104.8,133.1h0.8
		c0.9,0,1.8,0.4,1.8,1.4l0,0c0,0.7-0.4,1.1-0.8,1.3c0.5,0.2,0.9,0.5,0.9,1.2v0.1c0,1-0.8,1.6-1.9,1.6h-0.9
		C104.8,138.7,104.8,133.1,104.8,133.1z M105.8,135.5c0.4,0,0.7-0.2,0.7-0.7l0,0c0-0.5-0.3-0.7-0.7-0.7l0,0V135.5L105.8,135.5
		L105.8,135.5z M105.8,137.8c0.4,0,0.8-0.3,0.8-0.7l0,0c0-0.5-0.3-0.7-0.8-0.7l0,0V137.8L105.8,137.8L105.8,137.8z M107.9,133.1h2.1
		v0.9h-1.2v1.4h1v0.9h-1v1.4h1.2v0.9h-2.2L107.9,133.1L107.9,133.1z M97.9,141.1h0.8c0.9,0,1.8,0.4,1.8,1.4l0,0
		c0,0.7-0.4,1.1-0.8,1.3c0.5,0.2,0.9,0.5,0.9,1.2v0.1c0,1-0.8,1.6-1.9,1.6h-0.9C97.9,146.7,97.9,141.1,97.9,141.1z M98.9,143.5
		c0.4,0,0.7-0.2,0.7-0.7l0,0c0-0.5-0.3-0.7-0.7-0.7l0,0V143.5L98.9,143.5L98.9,143.5z M98.9,145.8c0.4,0,0.8-0.3,0.8-0.7l0,0
		c0-0.5-0.3-0.7-0.8-0.7l0,0V145.8L98.9,145.8L98.9,145.8z M101,141.1h2.1v0.9H102v1.4h1v0.9h-1v1.4h1.2v0.9H101V141.1z
		 M104.5,141.1h1l1.1,5.6h-1l-0.2-1.1h-0.9l-0.2,1.1h-0.9L104.5,141.1z M105.3,144.7l-0.3-1.8l-0.3,1.8H105.3z M106.7,144v-0.2
		c0-2,0.7-2.7,1.6-2.7c0.3,0,0.4,0,0.6,0.1v1c-0.2-0.1-0.4-0.2-0.5-0.2c-0.4,0-0.7,0.4-0.7,1.8v0.2c0,1.5,0.3,1.8,0.8,1.8
		c0.2,0,0.3-0.1,0.5-0.2v1c-0.2,0.1-0.4,0.2-0.7,0.2C107.4,146.7,106.7,146,106.7,144z M109.5,141.1h1v2.3h0.8v-2.3h1v5.6h-1v-2.4
		h-0.8v2.4h-1V141.1z M99.5,152v-0.2c0-2,0.7-2.7,1.6-2.7c0.3,0,0.4,0,0.6,0.1v1c-0.2-0.1-0.4-0.2-0.5-0.2c-0.4,0-0.7,0.4-0.7,1.8
		v0.2c0,1.5,0.3,1.8,0.8,1.8c0.2,0,0.3-0.1,0.5-0.2v1c-0.2,0.1-0.4,0.2-0.7,0.2C100.2,154.7,99.5,154,99.5,152z M102.3,149.1h1v4.7
		h1v0.9h-2V149.1z M104.6,153.1v-4h1v4.1c0,0.5,0.2,0.7,0.4,0.7c0.2,0,0.4-0.2,0.4-0.7v-4.1h1v4c0,1.2-0.6,1.7-1.4,1.7
		S104.6,154.2,104.6,153.1z M108,149.1h0.8c0.9,0,1.8,0.4,1.8,1.4l0,0c0,0.7-0.4,1.1-0.8,1.3c0.5,0.2,0.9,0.5,0.9,1.2v0.1
		c0,1-0.8,1.6-1.9,1.6H108V149.1z M108.9,151.5c0.4,0,0.7-0.2,0.7-0.7l0,0c0-0.5-0.3-0.7-0.7-0.7l0,0V151.5L108.9,151.5L108.9,151.5
		z M109,153.8c0.4,0,0.8-0.3,0.8-0.7l0,0c0-0.5-0.3-0.7-0.8-0.7l0,0V153.8L109,153.8L109,153.8z"/>
	<path class="st8" d="M58.4,138v-0.3c0-1.8,0.6-2.7,1.5-2.7s1.5,0.9,1.5,2.7v0.3c0,1.8-0.6,2.7-1.5,2.7
		C59,140.8,58.4,139.9,58.4,138z M60.4,138v-0.3c0-1.4-0.2-1.8-0.5-1.8s-0.5,0.4-0.5,1.8v0.3c0,1.4,0.2,1.8,0.5,1.8
		C60.2,139.9,60.4,139.5,60.4,138z M61.8,135.1h0.9c1.1,0,1.8,0.6,1.8,1.9l0,0c0,1.3-0.7,1.9-1.7,1.9l0,0v1.8h-1V135.1z M62.8,138
		c0.4,0,0.7-0.3,0.7-1l0,0c0-0.7-0.3-1-0.7-1l0,0V138L62.8,138z M64.9,135.1H67v0.9h-1.2v1.4h1v0.9h-1v1.4H67v0.9h-2.2L64.9,135.1
		L64.9,135.1z M67.6,135.1h0.9l1,2.8v-2.8h1v5.6h-0.9l-1-3v3h-1C67.6,140.7,67.6,135.1,67.6,135.1z M72.8,136h-0.7v-0.9h2.4v0.9
		h-0.7v4.7h-1L72.8,136L72.8,136z M74.6,138v-0.3c0-1.8,0.6-2.7,1.5-2.7s1.5,0.9,1.5,2.7v0.3c0,1.8-0.6,2.7-1.5,2.7
		S74.6,139.9,74.6,138z M76.6,138v-0.3c0-1.4-0.2-1.8-0.5-1.8s-0.5,0.4-0.5,1.8v0.3c0,1.4,0.2,1.8,0.5,1.8S76.6,139.5,76.6,138z
		 M53.7,143.1h0.9c1.2,0,2,0.9,2,2.7v0.2c0,1.8-0.7,2.7-2,2.7h-0.9V143.1z M54.7,147.8c0.5,0,0.9-0.4,0.9-1.8v-0.2
		c0-1.4-0.4-1.8-0.9-1.8l0,0V147.8L54.7,147.8L54.7,147.8z M57.1,143.1h2.1v0.9H58v1.4h1v0.9h-1v1.4h1.2v0.9H57L57.1,143.1
		L57.1,143.1z M59.5,146v-0.2c0-2,0.7-2.7,1.6-2.7c0.3,0,0.4,0,0.6,0.1v1c-0.2-0.1-0.4-0.2-0.5-0.2c-0.4,0-0.7,0.4-0.7,1.8v0.2
		c0,1.5,0.3,1.8,0.8,1.8c0.2,0,0.3-0.1,0.5-0.2v1c-0.2,0.1-0.4,0.2-0.7,0.2C60.2,148.7,59.5,147.9,59.5,146z M62.3,143.1h1v2.3
		l0.8-2.3h1.1l-0.9,2.4l1,3.2h-1.1l-0.6-2.1l-0.2,0.6v1.5h-1L62.3,143.1L62.3,143.1z M66.8,143.1h0.8c0.9,0,1.8,0.4,1.8,1.4l0,0
		c0,0.7-0.4,1.1-0.8,1.3c0.5,0.2,0.9,0.5,0.9,1.2v0.1c0,1-0.8,1.6-1.9,1.6h-0.9C66.8,148.7,66.8,143.1,66.8,143.1z M67.8,145.4
		c0.4,0,0.7-0.2,0.7-0.7l0,0c0-0.5-0.3-0.7-0.7-0.7l0,0V145.4L67.8,145.4L67.8,145.4z M67.8,147.8c0.4,0,0.8-0.3,0.8-0.7l0,0
		c0-0.5-0.3-0.7-0.8-0.7l0,0V147.8L67.8,147.8L67.8,147.8z M70,143.1h2.1v0.9h-1.2v1.4h1v0.9h-1v1.4h1.2v0.9H70V143.1z M72.6,143.1
		h1v4.7h1v0.9h-2V143.1z M74.7,146v-0.3c0-1.8,0.6-2.7,1.5-2.7s1.5,0.9,1.5,2.7v0.3c0,1.8-0.6,2.7-1.5,2.7
		C75.3,148.8,74.7,147.9,74.7,146z M76.7,146v-0.3c0-1.4-0.2-1.8-0.5-1.8s-0.5,0.4-0.5,1.8v0.3c0,1.4,0.2,1.8,0.5,1.8
		C76.5,147.9,76.7,147.5,76.7,146z M77.8,143.1h1l0.4,3.4l0.5-3.4h0.9l0.5,3.4l0.4-3.4h1l-0.8,5.6h-1l-0.5-3.3l-0.5,3.3h-1
		L77.8,143.1z"/>
	<path class="st8" d="M92.4,16h-0.7v-0.9h2.4V16h-0.7v4.7h-1L92.4,16L92.4,16z M94.5,15.1h1v2.3h0.8v-2.3h1v5.6h-1v-2.4h-0.8v2.4h-1
		V15.1z M97.9,15.1h2.1V16h-1.2v1.4h1v0.9h-1v1.4h1.2v0.9h-2.2L97.9,15.1L97.9,15.1z M101.8,15.1h1v2.3h0.8v-2.3h1v5.6h-1v-2.4h-0.8
		v2.4h-1V15.1z M105.9,15.1h1l1.1,5.6h-1l-0.2-1.1H106l-0.2,1.1h-0.9L105.9,15.1z M106.7,18.7l-0.3-1.8l-0.3,1.8H106.7z M108,15.1h1
		l0.5,3.6l0.5-3.6h1l-1,5.6h-1L108,15.1z M111.3,15.1h2.1V16h-1.2v1.4h1v0.9h-1v1.4h1.2v0.9h-2.2L111.3,15.1L111.3,15.1z
		 M113.9,15.1h0.9l1,2.8v-2.8h1v5.6h-0.9l-1-3v3h-1C113.9,20.7,113.9,15.1,113.9,15.1z M91.5,26v-0.2c0-2,0.7-2.7,1.6-2.7
		c0.3,0,0.4,0,0.6,0.1v1c-0.2-0.1-0.4-0.2-0.5-0.2c-0.4,0-0.7,0.4-0.7,1.8V26c0,1.5,0.3,1.8,0.8,1.8c0.2,0,0.3-0.1,0.5-0.2v1
		c-0.2,0.1-0.4,0.2-0.7,0.2C92.2,28.7,91.5,27.9,91.5,26z M94,26v-0.3c0-1.8,0.6-2.7,1.5-2.7s1.5,0.9,1.5,2.7V26
		c0,1.8-0.6,2.7-1.5,2.7S94,27.9,94,26z M96,26v-0.3c0-1.4-0.2-1.8-0.5-1.8S95,24.3,95,25.7V26c0,1.4,0.2,1.8,0.5,1.8S96,27.5,96,26
		z M97.5,27.1v-4h1v4.1c0,0.5,0.2,0.7,0.4,0.7c0.2,0,0.4-0.2,0.4-0.7v-4.1h1v4c0,1.2-0.6,1.7-1.4,1.7C98,28.8,97.5,28.2,97.5,27.1z
		 M100.8,23.1h1c1,0,1.7,0.5,1.7,1.8V25c0,0.7-0.3,1.2-0.7,1.5l0.8,2.3h-1l-0.6-2h-0.2v2h-1C100.8,28.8,100.8,23.1,100.8,23.1z
		 M101.8,25.9c0.4,0,0.7-0.2,0.7-0.9v-0.1c0-0.7-0.3-0.9-0.8-0.9l0,0L101.8,25.9L101.8,25.9z M104.4,24h-0.7v-0.9h2.4V24h-0.7v4.7
		h-1L104.4,24L104.4,24z M107.2,26.5l-1-3.4h1l0.5,2.1l0.5-2.1h1l-1,3.4v2.2h-1V26.5L107.2,26.5z M109.9,23.1h1l1.1,5.6h-1l-0.2-1.1
		H110l-0.2,1.1h-0.9L109.9,23.1z M110.7,26.7l-0.3-1.8l-0.3,1.8H110.7z M112.3,23.1h1c1,0,1.7,0.5,1.7,1.8V25c0,0.7-0.3,1.2-0.7,1.5
		l0.8,2.3h-1l-0.6-2h-0.2v2h-1C112.3,28.7,112.3,23.1,112.3,23.1z M113.4,25.9c0.4,0,0.7-0.2,0.7-0.9v-0.1c0-0.7-0.3-0.9-0.8-0.9
		l0,0L113.4,25.9L113.4,25.9z M115.5,23.1h0.9c1.2,0,2,0.9,2,2.7V26c0,1.8-0.7,2.7-2,2.7h-0.9V23.1z M116.5,27.8
		c0.5,0,0.9-0.4,0.9-1.8v-0.2c0-1.4-0.4-1.8-0.9-1.8l0,0V27.8L116.5,27.8z M93.9,36.5v-1c0.3,0.2,0.6,0.3,0.9,0.3s0.5-0.1,0.5-0.5
		l0,0c0-0.3-0.1-0.4-0.5-1c-0.7-0.8-0.9-1.1-0.9-1.8l0,0c0-0.9,0.6-1.5,1.4-1.5c0.4,0,0.6,0.1,0.9,0.2v1c-0.3-0.2-0.5-0.3-0.7-0.3
		c-0.3,0-0.5,0.2-0.5,0.5l0,0c0,0.3,0.1,0.4,0.5,0.9c0.8,0.9,0.9,1.2,0.9,1.9l0,0c0,0.9-0.6,1.5-1.4,1.5
		C94.5,36.7,94.2,36.6,93.9,36.5z M96.6,35.1v-4h1v4.1c0,0.5,0.2,0.7,0.4,0.7s0.4-0.2,0.4-0.7v-4.1h1v4c0,1.2-0.6,1.7-1.4,1.7
		S96.6,36.2,96.6,35.1z M99.9,31.1h0.9l1,2.8v-2.8h1v5.6h-0.9l-1-3v3h-1V31.1z M104.6,31.1h0.9c1.2,0,2,0.9,2,2.7V34
		c0,1.8-0.7,2.7-2,2.7h-0.9V31.1z M105.7,35.8c0.5,0,0.9-0.4,0.9-1.8v-0.2c0-1.4-0.4-1.8-0.9-1.8l0,0V35.8L105.7,35.8z M108,31.1
		h2.1V32H109v1.4h1v0.9h-1v1.4h1.2v0.9H108V31.1z M110.5,34v-0.2c0-2,0.7-2.7,1.6-2.7c0.3,0,0.4,0,0.6,0.1v1
		c-0.2-0.1-0.4-0.2-0.5-0.2c-0.4,0-0.7,0.4-0.7,1.8V34c0,1.5,0.3,1.8,0.8,1.8c0.2,0,0.3-0.1,0.5-0.2v1c-0.2,0.1-0.4,0.2-0.7,0.2
		C111.1,36.7,110.5,35.9,110.5,34z M113.2,31.1h1v2.3l0.8-2.3h1.1l-0.9,2.4l1,3.2H115l-0.6-2.1l-0.2,0.6v1.5h-1L113.2,31.1
		L113.2,31.1z"/>
</g>
<g id="ESCAPE_DECK_19_TOP">
	<g id="gDeck19Locations">
		<path width="135.8" height="181.8" id="_x31_9Aft" class="st6" d="M87.4,601.3h48.8c0,0,0,145.7,0,156.3s-6.7,25.5-66.2,25.5S0.4,769,0.4,757.6s0-156.3,0-156.3
			h47.4v7.8h39.6V601.3z"/>
		<polygon width="135.8" height="333.9" id="_x31_9MidShip" class="st6" points="0.4,275.2 0.4,601.3 47.8,601.3 47.8,609.1 87.4,609.1 87.4,601.3 136.2,601.3 
			136.2,275.2 108.7,275.2 108.7,343.2 28.4,343.2 28.4,275.2 		"/>
		<path width="119.1" height="342.0628" id="_x31_9Forward" class="st6" d="M68.8,343.1h39.8v-68h13l0.1-71.1l6-6.5v-10.2l-6-5.8L122,60.4l5.5-5.6V44.1l-5.5-5.7
			c0,0,0-17,0-17.7c0-5.8-1.6-8.6-8.9-11.7c-11.2-4.7-20.8-8-43.6-8h-0.3h-0.3h-1.2h-0.3H67C44.2,1,34.5,4.3,23.4,9
			c-7.3,3.1-8.9,5.9-8.9,11.7c0,0.7,0,17.7,0,17.7l-5.6,5.7v10.8l5.5,5.6l0.2,134.1l-6,5.8v10.2l6,6.5l0.1,58.1h13.7v68h39.2h1.2
			V343.1z"/>
	</g>
	<path class="st9" d="M68.8,343.2h39.8v-68.1h13l0.1-71.2l6-6.5v-10.2l-6-5.8L122,60.3l5.5-5.6V44l-5.5-5.7c0,0,0-17,0-17.7
		c0-5.8-1.6-8.6-8.9-11.7c-11.2-4.7-20.8-8-43.6-8h-0.3h-0.3h-1.2h-0.3H67c-22.8,0-32.5,3.3-43.6,8c-7.3,3.1-8.9,5.9-8.9,11.7
		c0,0.7,0,17.7,0,17.7L8.9,44v10.8l5.5,5.6l0.2,134.2l-6,5.8v10.2l6,6.5l0.1,58.1h13.7v68.1h39.2h1.2V343.2z"/>
	<path class="st9" d="M92.2,728.4v-86H42.8v86H29.4V768c0.9-0.3,1.8-0.4,2.8-0.4c4.2,0,7.8,2.7,9,6.5h15.2v4.8h22.7v-4.8h14.7
		c1.3-3.8,4.8-6.5,9-6.5c0.9,0,1.7,0.1,2.5,0.3v-39.5L92.2,728.4L92.2,728.4z"/>
	<polygon class="st9" points="76.8,540 76.8,533.1 52.7,533.1 52.7,540 47.8,540 47.8,609.1 87.4,609.1 87.4,540 	"/>
</g>
</svg>
