<?xml version="1.0" encoding="utf-8"?>
<!-- Generator: Adobe Illustrator 25.4.1, SVG Export Plug-In . SVG Version: 6.00 Build 0)  -->
<svg version="1.1" id="ESCAPE_DECK_20" xmlns="http://www.w3.org/2000/svg" xmlns:xlink="http://www.w3.org/1999/xlink" x="0px"
	 y="0px" width="149.7px" height="779.9px" viewBox="0 0 149.7 779.9" style="enable-background:new 0 0 149.7 779.9;"
	 xml:space="preserve">
<style type="text/css">
	.st0{fill:none;stroke:#D5DCE0;stroke-width:0.5;}
	.st1{fill:#DFEDF1;stroke:#CEDFE5;stroke-width:0.5;}
	.st2{fill:#FFFFFF;}
	.st3{fill:#6E8496;}
	.st4{fill:none;stroke:#076FA0;stroke-miterlimit:10;}
	.st5{fill:none;}
</style>
<g id="ESCAPE_DECK_20_BOTTOM">
	<circle class="st0" cx="54.2" cy="479.9" r="2.5"/>
	<circle class="st0" cx="28" cy="498.8" r="2.5"/>
	<circle class="st0" cx="43" cy="517.3" r="2.5"/>
	<circle class="st0" cx="28" cy="517.3" r="2.5"/>
	<circle class="st0" cx="125.3" cy="479.9" r="2.5"/>
	<circle class="st0" cx="125.8" cy="498.3" r="2.5"/>
	<circle class="st0" cx="125.8" cy="517.3" r="2.5"/>
	<circle class="st0" cx="110.7" cy="516.8" r="2.5"/>
	<circle class="st0" cx="125.6" cy="535.8" r="2.5"/>
	<circle class="st0" cx="99.5" cy="479.9" r="2.5"/>
	<circle class="st0" cx="73.5" cy="479.9" r="2.5"/>
	<circle class="st0" cx="109.8" cy="491.7" r="2.5"/>
	<circle class="st0" cx="73.5" cy="491.7" r="2.5"/>
	<circle class="st0" cx="42.8" cy="491.7" r="2.5"/>
	<path class="st1" d="M28.8,372.3c-5.3,0-16.1-0.3-22.9-7c-3.7-3.7-5.6-8.7-5.6-14.8v-30.6c-0.1-1.8-0.6-18.5,13-22.9
		c6.9-2.3,13.7-1.7,19.1,1.7c5,3.1,8.3,8.1,9.2,13.7c2,13-5.7,20.4-10.7,25.2l-0.5,0.5l-4.9-5l0.6-0.5c4.5-4.4,10.1-9.8,8.7-19.2
		c-0.5-3.6-2.7-6.9-5.9-8.8c-2.6-1.6-7-3.1-13.3-1c-8.9,2.9-8.2,15.8-8.2,15.9v0.2v30.8c0,4.3,1.2,7.5,3.5,9.9c5,5,14.6,5,18.7,5
		h0.6h30.5v7h-31C29.3,372.3,29.1,372.3,28.8,372.3z"/>
	<path class="st2" d="M72.5,394.6H67c-5,0-8,3-8,7.9v52.8c0,8.2,4,6.2,6,8.7l0.1,0.1c2.8,4.2,4.2,5.3,10.1,5.1h2.4
		c5.9,0.1,7.3-0.9,10.1-5.1l0.1-0.1c2-2.5,6-0.5,6-8.7v-52.8c0-4.9-3-7.9-8-7.9h-5.5H72.5z"/>
	<polygon class="st0" points="92.9,387 82.2,387 82.2,390.7 66.9,390.7 60.6,387.2 60.6,363.3 92.9,363.3 	"/>
	<circle class="st1" cx="92.7" cy="367.9" r="2.1"/>
	<rect x="84.5" y="364.7" class="st1" width="8.3" height="6.6"/>
	<circle class="st1" cx="92.7" cy="379.6" r="2.1"/>
	<rect x="84.5" y="376.3" class="st1" width="8.3" height="6.6"/>
	<rect x="48.5" y="51" class="st2" width="6.3" height="7"/>
	<polygon class="st2" points="54.9,95.2 99.4,94.8 111.9,94.8 111.9,89.5 99,89.5 99,51 54.9,51 	"/>
	<path class="st2" d="M55,58.2V33.8c0,0,1.9,0,3.4-0.1c0-7.1,0.6-9.9,9.2-9.9c7.6,0,32.4,0,32.4,0c5.8,0,11.3,1.6,11.3,7.8
		c0,8.2-7,7.5-12.3,7.5v50.3h12.9H106h-7 M48.5,51v7h6.3H55v31.7H41.7v45.8H46v7.1l4.6,1.3l3.6,2.4l3.2,4l0.4,3.9v5.7h38v-5.3l0.7-4
		l2.9-4.2l3.8-2.7l4.4-0.7v-7.7h4.4V94.8H99"/>
	<line class="st0" x1="126.1" y1="535.8" x2="110.7" y2="517.3"/>
	<line class="st0" x1="141.1" y1="535.8" x2="125.7" y2="517.3"/>
	<polygon class="st0" points="125.7,554.2 129.9,572.8 140.7,554.2 140.7,480 125.5,461.7 	"/>
	<line class="st0" x1="126.1" y1="535.3" x2="110.1" y2="554.5"/>
	<line class="st0" x1="141.1" y1="535.3" x2="125.7" y2="553.8"/>
	<line class="st0" x1="146.6" y1="535.6" x2="125.8" y2="535.6"/>
	<path class="st0" d="M148.7,516.8c0,11.6-3.8,29.9-7.9,37.3l-30.6,0.1l19.8,18.6"/>
	<path class="st0" d="M148.7,517.3c0-14.3-3.8-29.9-7.9-37.3"/>
	<line class="st0" x1="12.7" y1="480.2" x2="140.7" y2="480.2"/>
	<polyline class="st0" points="53.9,470.5 73.5,480.1 99.8,470.6 	"/>
	<line class="st0" x1="73.5" y1="470.8" x2="73.5" y2="491.3"/>
	<line class="st0" x1="27.8" y1="470.6" x2="125.8" y2="470.6"/>
	<polyline class="st0" points="43,554 27.9,554.3 27.9,461.5 	"/>
	<polyline class="st0" points="42.9,552.7 27.9,535.5 42.9,517.1 28.2,498.7 42.9,491.3 28,480.3 	"/>
	<polyline class="st0" points="125.2,480.3 110.1,491.3 125.2,498.2 110.7,517.2 148.7,517.2 	"/>
	<polyline class="st0" points="42.9,491.3 53.9,480.1 73.5,491.5 99.4,480.2 110.1,491.3 	"/>
	<line class="st0" x1="123.7" y1="533.3" x2="110.1" y2="533.3"/>
	<polyline class="st0" points="125.7,517 140.5,498.6 126,480.3 	"/>
	<line class="st0" x1="125.9" y1="498.5" x2="146.7" y2="498.5"/>
	<line class="st0" x1="53.9" y1="480.1" x2="53.9" y2="470.5"/>
	<line class="st0" x1="99.4" y1="480.2" x2="99.4" y2="470.6"/>
	<polyline class="st0" points="27.8,461.6 12.7,480.1 12.7,554.3 27.9,554.3 42.9,572.2 42.9,491.3 110.1,491.3 110.1,572.8 
		129.9,572.8 	"/>
	<line class="st0" x1="12.9" y1="517.1" x2="42.9" y2="517.1"/>
	<line class="st0" x1="13.2" y1="498.8" x2="28.2" y2="498.8"/>
	<line class="st0" x1="12.9" y1="535.6" x2="43.1" y2="535.6"/>
	<rect x="48.6" y="56.9" class="st0" width="6.4" height="1"/>
	<rect x="48.7" y="55" class="st0" width="6.4" height="1"/>
	<rect x="48.7" y="53.1" class="st0" width="6.4" height="1"/>
	<rect x="48.7" y="51.1" class="st0" width="6.4" height="1"/>
	<rect x="99.1" y="89.4" class="st0" width="1" height="5.5"/>
	<rect x="101" y="89.4" class="st0" width="1" height="5.5"/>
	<rect x="102.9" y="89.4" class="st0" width="1" height="5.5"/>
	<rect x="104.9" y="89.4" class="st0" width="1" height="5.5"/>
	<rect x="106.9" y="89.4" class="st0" width="1" height="5.5"/>
	<rect x="108.8" y="89.4" class="st0" width="1" height="5.5"/>
	<line class="st0" x1="99" y1="95" x2="99" y2="89"/>
	<rect x="70.8" y="381.7" class="st0" width="4.1" height="1"/>
	<rect x="66.6" y="379.8" class="st0" width="8.3" height="1"/>
	<rect x="66.6" y="381.7" class="st0" width="4.1" height="1"/>
	<rect x="66.6" y="372" class="st0" width="8.3" height="12.2"/>
	<rect x="66.6" y="377.9" class="st0" width="8.3" height="1"/>
	<rect x="66.6" y="376.9" class="st0" width="8.3" height="1"/>
	<rect x="66.6" y="375.9" class="st0" width="8.3" height="1"/>
	<polygon class="st0" points="73.5,374.9 66.6,374.9 66.6,375.9 74.9,375.9 	"/>
	<polygon class="st0" points="72.2,373.9 66.6,373.9 66.6,374.9 73.5,374.9 	"/>
	<rect x="66.6" y="373" class="st0" width="4" height="1"/>
	<polygon class="st0" points="74.9,372 70.8,372 70.8,372.9 74.9,375.9 	"/>
	<path class="st0" d="M70.8,383.2c0,0.1-0.1,0.2-0.1,0.2l0,0c-0.1,0-0.1-0.1-0.1-0.2v-11.3c0-0.1,0.1-0.2,0.1-0.2l0,0
		c0.1,0,0.1,0.1,0.1,0.2V383.2z"/>
	<line class="st0" x1="140.2" y1="480.2" x2="140.7" y2="480.2"/>
	<line class="st0" x1="102" y1="486" x2="78" y2="511.8"/>
	<path class="st3" d="M58.9,514.1h1c1,0,1.7,0.5,1.7,1.8v0.1c0,0.7-0.3,1.2-0.7,1.5l0.8,2.3h-1l-0.6-2h-0.2v2h-1V514.1L58.9,514.1z
		 M59.9,516.9c0.4,0,0.7-0.2,0.7-0.9v-0.1c0-0.7-0.3-0.9-0.8-0.9l0,0L59.9,516.9L59.9,516.9z M62,517.1v-0.3c0-1.8,0.6-2.7,1.5-2.7
		s1.5,0.9,1.5,2.7v0.3c0,1.8-0.6,2.7-1.5,2.7S62,518.9,62,517.1z M64,517.1v-0.3c0-1.4-0.2-1.8-0.5-1.8s-0.5,0.4-0.5,1.8v0.3
		c0,1.4,0.2,1.8,0.5,1.8S64,518.5,64,517.1z M65.4,514.1h0.9c1.1,0,1.8,0.6,1.8,1.9l0,0c0,1.3-0.7,1.9-1.7,1.9l0,0v1.8h-1
		C65.4,519.7,65.4,514.1,65.4,514.1z M66.4,517.1c0.4,0,0.7-0.3,0.7-1l0,0c0-0.7-0.3-1-0.7-1l0,0V517.1L66.4,517.1L66.4,517.1z
		 M68.5,514.1h2.1v0.9h-1.2v1.4h1v0.9h-1v1.4h1.2v0.9h-2.2v-5.5H68.5z M71,519.5v-1c0.3,0.2,0.6,0.3,0.9,0.3s0.5-0.1,0.5-0.5l0,0
		c0-0.3-0.1-0.4-0.5-1c-0.7-0.8-0.9-1.1-0.9-1.8l0,0c0-0.9,0.6-1.5,1.4-1.5c0.4,0,0.6,0.1,0.9,0.2v1c-0.3-0.2-0.5-0.3-0.7-0.3
		c-0.3,0-0.5,0.2-0.5,0.5l0,0c0,0.3,0.1,0.4,0.5,0.9c0.8,0.9,0.9,1.2,0.9,1.9l0,0c0,0.9-0.6,1.5-1.4,1.5
		C71.6,519.8,71.3,519.7,71,519.5z M74.9,517v-0.2c0-2,0.7-2.7,1.6-2.7c0.3,0,0.4,0,0.6,0.1v1c-0.2-0.1-0.4-0.2-0.5-0.2
		c-0.4,0-0.7,0.4-0.7,1.8v0.2c0,1.5,0.3,1.8,0.8,1.8c0.2,0,0.3-0.1,0.5-0.2v1c-0.2,0.1-0.4,0.2-0.7,0.2
		C75.6,519.8,74.9,519,74.9,517z M77.4,517.1v-0.3c0-1.8,0.6-2.7,1.5-2.7s1.5,0.9,1.5,2.7v0.3c0,1.8-0.6,2.7-1.5,2.7
		S77.4,518.9,77.4,517.1z M79.4,517.1v-0.3c0-1.4-0.2-1.8-0.5-1.8s-0.5,0.4-0.5,1.8v0.3c0,1.4,0.2,1.8,0.5,1.8
		S79.4,518.5,79.4,517.1z M80.9,518.1v-4h1v4.1c0,0.5,0.2,0.7,0.4,0.7s0.4-0.2,0.4-0.7v-4.1h1v4c0,1.2-0.6,1.7-1.4,1.7
		S80.9,519.3,80.9,518.1z M84.2,514.1h1c1,0,1.7,0.5,1.7,1.8v0.1c0,0.7-0.3,1.2-0.7,1.5l0.8,2.3h-1l-0.6-2h-0.2v2h-1L84.2,514.1
		L84.2,514.1z M85.2,516.9c0.4,0,0.7-0.2,0.7-0.9v-0.1c0-0.7-0.3-0.9-0.8-0.9l0,0L85.2,516.9L85.2,516.9z M87.3,519.5v-1
		c0.3,0.2,0.6,0.3,0.9,0.3s0.5-0.1,0.5-0.5l0,0c0-0.3-0.1-0.4-0.5-1c-0.7-0.8-0.9-1.1-0.9-1.8l0,0c0-0.9,0.6-1.5,1.4-1.5
		c0.4,0,0.6,0.1,0.9,0.2v1c-0.3-0.2-0.5-0.3-0.7-0.3c-0.3,0-0.5,0.2-0.5,0.5l0,0c0,0.3,0.1,0.4,0.5,0.9c0.8,0.9,0.9,1.2,0.9,1.9l0,0
		c0,0.9-0.6,1.5-1.4,1.5C87.9,519.8,87.5,519.7,87.3,519.5z M90,514.1h2.1v0.9H91v1.4h1v0.9h-1v1.4h1.2v0.9H90V514.1z"/>
	<path class="st3" d="M16.6,310.1h1l1.1,5.6h-1l-0.2-1.1h-0.9l-0.2,1.1h-0.9L16.6,310.1z M17.4,313.7l-0.3-1.8l-0.3,1.8H17.4z
		 M21.2,315.4c-0.2,0.2-0.5,0.4-0.8,0.4c-0.9,0-1.5-0.9-1.5-2.7v-0.3c0-1.8,0.6-2.7,1.5-2.7s1.5,0.9,1.5,2.7v0.3
		c0,0.8-0.1,1.4-0.3,1.8l0.5,0.5l-0.5,0.5L21.2,315.4z M20.6,314.9l-0.5-0.5l0.5-0.5l0.2,0.2c0-0.3,0-0.6,0-1.1v-0.3
		c0-1.4-0.2-1.8-0.5-1.8s-0.5,0.4-0.5,1.8v0.3c0,1.6,0.2,1.9,0.6,1.9C20.5,314.9,20.5,314.9,20.6,314.9z M22.4,314.1v-4h1v4.1
		c0,0.5,0.2,0.7,0.4,0.7s0.4-0.2,0.4-0.7v-4.1h1v4c0,1.2-0.6,1.7-1.4,1.7C22.9,315.8,22.4,315.3,22.4,314.1z M26.4,310.1h1l1.1,5.6
		h-1l-0.2-1.1h-0.9l-0.2,1.1h-0.9L26.4,310.1z M27.2,313.7l-0.3-1.8l-0.3,1.8H27.2z M14.9,318.1h1c1,0,1.7,0.5,1.7,1.8v0.1
		c0,0.7-0.3,1.2-0.7,1.5l0.8,2.3h-1l-0.6-2h-0.2v2h-1L14.9,318.1L14.9,318.1z M16,320.9c0.4,0,0.7-0.2,0.7-0.9v-0.1
		c0-0.7-0.3-0.9-0.8-0.9l0,0L16,320.9L16,320.9L16,320.9z M18.9,318.1h1l1.1,5.6h-1l-0.2-1.1H19l-0.2,1.1h-0.9L18.9,318.1z
		 M19.7,321.7l-0.3-1.8l-0.3,1.8H19.7z M21.1,321v-0.2c0-2,0.7-2.7,1.6-2.7c0.3,0,0.4,0,0.6,0.1v1c-0.2-0.1-0.4-0.2-0.5-0.2
		c-0.4,0-0.7,0.4-0.7,1.8v0.2c0,1.5,0.3,1.8,0.8,1.8c0.2,0,0.3-0.1,0.5-0.2v1c-0.2,0.1-0.4,0.2-0.7,0.2
		C21.8,323.8,21.1,323,21.1,321z M23.9,318.1H26v0.9h-1.2v1.4h1v0.9h-1v1.4H26v0.9h-2.2v-5.5H23.9z M26.6,318.1h1
		c1,0,1.7,0.5,1.7,1.8v0.1c0,0.7-0.3,1.2-0.7,1.5l0.8,2.3h-1l-0.6-2h-0.2v2h-1L26.6,318.1L26.6,318.1z M27.6,320.9
		c0.4,0,0.7-0.2,0.7-0.9v-0.1c0-0.7-0.3-0.9-0.8-0.9l0,0L27.6,320.9L27.6,320.9L27.6,320.9z"/>
	<path class="st3" d="M97.4,368.8h2v0.9h-1.1v1.4h0.9v0.9h-0.9v2.3h-1v-5.5H97.4z M99.9,368.8h1c1,0,1.7,0.5,1.7,1.8v0.1
		c0,0.7-0.3,1.2-0.7,1.5l0.8,2.3h-1l-0.6-2h-0.2v2h-1L99.9,368.8L99.9,368.8z M100.9,371.6c0.4,0,0.7-0.2,0.7-0.9v-0.1
		c0-0.7-0.3-0.9-0.8-0.9l0,0L100.9,371.6L100.9,371.6L100.9,371.6z M103.1,368.8h2.1v0.9H104v1.4h1v0.9h-1v1.4h1.2v0.9H103v-5.5
		H103.1z M105.7,368.8h2.1v0.9h-1.2v1.4h1v0.9h-1v1.4h1.2v0.9h-2.2v-5.5H105.7z M109.7,368.8h2v0.9h-1.1v1.4h0.9v0.9h-0.9v2.3h-1
		v-5.5H109.7z M112.7,368.8h1l1.1,5.6h-1l-0.2-1.1h-0.9l-0.2,1.1h-0.9L112.7,368.8z M113.5,372.4l-0.3-1.8l-0.3,1.8H113.5z
		 M115.1,368.8h1v4.7h1v0.9h-2V368.8z M117.5,368.8h1v4.7h1v0.9h-2V368.8z M101,382.2v-1c0.3,0.2,0.6,0.3,0.9,0.3s0.5-0.1,0.5-0.5
		l0,0c0-0.3-0.1-0.4-0.5-1c-0.7-0.8-0.9-1.1-0.9-1.8l0,0c0-0.9,0.6-1.5,1.4-1.5c0.4,0,0.6,0.1,0.9,0.2v1c-0.3-0.2-0.5-0.3-0.7-0.3
		c-0.3,0-0.5,0.2-0.5,0.5l0,0c0,0.3,0.1,0.4,0.5,0.9c0.8,0.9,0.9,1.2,0.9,1.9l0,0c0,0.9-0.6,1.5-1.4,1.5
		C101.6,382.4,101.3,382.3,101,382.2z M103.7,376.8h1v4.7h1v0.9h-2V376.8z M106.1,376.8h1v5.6h-1V376.8z M107.7,376.8h0.9
		c1.2,0,2,0.9,2,2.7v0.2c0,1.8-0.7,2.7-2,2.7h-0.9V376.8z M108.7,381.5c0.5,0,0.9-0.4,0.9-1.8v-0.2c0-1.4-0.4-1.8-0.9-1.8l0,0V381.5
		L108.7,381.5z M111,376.8h2.1v0.9H112v1.4h1v0.9h-1v1.4h1.2v0.9H111V376.8z M113.5,382.2v-1c0.3,0.2,0.6,0.3,0.9,0.3
		s0.5-0.1,0.5-0.5l0,0c0-0.3-0.1-0.4-0.5-1c-0.7-0.8-0.9-1.1-0.9-1.8l0,0c0-0.9,0.6-1.5,1.4-1.5c0.4,0,0.6,0.1,0.9,0.2v1
		c-0.3-0.2-0.5-0.3-0.7-0.3c-0.3,0-0.5,0.2-0.5,0.5l0,0c0,0.3,0.1,0.4,0.5,0.9c0.8,0.9,0.9,1.2,0.9,1.9l0,0c0,0.9-0.6,1.5-1.4,1.5
		C114.2,382.4,113.8,382.3,113.5,382.2z"/>
	<path class="st3" d="M65.7,120.2v-1c0.3,0.2,0.6,0.3,0.9,0.3s0.5-0.1,0.5-0.5l0,0c0-0.3-0.1-0.4-0.5-1c-0.7-0.8-0.9-1.1-0.9-1.8
		l0,0c0-0.9,0.6-1.5,1.4-1.5c0.4,0,0.6,0.1,0.9,0.2v1c-0.3-0.2-0.5-0.3-0.7-0.3c-0.3,0-0.5,0.2-0.5,0.5l0,0c0,0.3,0.1,0.4,0.5,0.9
		c0.8,0.9,0.9,1.2,0.9,1.9l0,0c0,0.9-0.6,1.5-1.4,1.5C66.3,120.4,65.9,120.3,65.7,120.2z M68.4,118.8v-4h1v4.1
		c0,0.5,0.2,0.7,0.4,0.7s0.4-0.2,0.4-0.7v-4.1h1v4c0,1.2-0.6,1.7-1.4,1.7S68.4,119.9,68.4,118.8z M71.7,114.8h0.9l1,2.8v-2.8h1v5.6
		h-0.9l-1-3v3h-1V114.8z M76.4,114.8h0.9c1.2,0,2,0.9,2,2.7v0.2c0,1.8-0.7,2.7-2,2.7h-0.9V114.8z M77.4,119.5c0.5,0,0.9-0.4,0.9-1.8
		v-0.2c0-1.4-0.4-1.8-0.9-1.8l0,0V119.5L77.4,119.5z M79.8,114.8h2.1v0.9h-1.2v1.4h1v0.9h-1v1.4h1.2v0.9h-2.2v-5.5H79.8z
		 M82.2,117.7v-0.2c0-2,0.7-2.7,1.6-2.7c0.3,0,0.4,0,0.6,0.1v1c-0.2-0.1-0.4-0.2-0.5-0.2c-0.4,0-0.7,0.4-0.7,1.8v0.2
		c0,1.5,0.3,1.8,0.8,1.8c0.2,0,0.3-0.1,0.5-0.2v1c-0.2,0.1-0.4,0.2-0.7,0.2C82.9,120.4,82.2,119.6,82.2,117.7z M85,114.8h1v2.3
		l0.8-2.3h1.1l-0.9,2.4l1,3.2h-1.1l-0.6-2.1l-0.2,0.6v1.5h-1L85,114.8L85,114.8z"/>
</g>
<g id="ESCAPE_DECK_20_TOP">
	<path class="st4" d="M72.5,394.6H67c-5,0-8,3-8,7.9v52.8c0,8.2,4,6.2,6,8.7l0.1,0.1c2.8,4.2,4.2,5.3,10.1,5.1h2.4
		c5.9,0.1,7.3-0.9,10.1-5.1l0.1-0.1c2-2.5,6-0.5,6-8.7v-52.8c0-4.9-3-7.9-8-7.9h-5.5H72.5z"/>
	<path class="st4" d="M55,58.2V33.8c0,0,1.9,0,3.4-0.1c0-7.1,0.6-9.9,9.2-9.9c7.6,0,32.4,0,32.4,0c5.8,0,11.3,1.6,11.3,7.8
		c0,8.2-7,7.5-12.3,7.5v50.3h12.9H106h-7 M48.5,51v7h6.3H55v31.7H41.7v45.8H46v7.1l4.6,1.3l3.6,2.4l3.2,4l0.4,3.9v5.7h38v-5.3l0.7-4
		l2.9-4.2l3.8-2.7l4.4-0.7v-7.7h4.4V94.8H99"/>
	<g id="gDeck20Locations">
		<path width="149.2" height="140.1" id="_x32_0Aft" class="st5" d="M122.7,637h26.8c0,0,0,104.3,0,114.8S137,777,76,777S0.3,763,0.3,751.7s0-114.8,0-114.8h10.3
			L122.7,637z"/>
		<polygon width="149.1" height="394.5" id="_x32_0MidShip" class="st5" points="106.8,636.9 149.5,636.9 
			149.5,242.4 116.4,242.4 34.8,242.4 0.4,242.4 0.4,636.9 42.8,636.9 		"/>
		<path width="149.1" height="240.4" id="_x32_0Forward" class="st5" d="M34.8,242.2H0.3v-21.5L9,203.1V47.9
			L3,48c0,0,0-21.5,0-22.1c0-6.4,7.9-11.8,16.9-15.2c13.8-5.2,26.8-8.8,54.8-8.8h0.4L76,1.8l0,0h0.4c28,0,41.1,3.6,54.8,8.8
			c9,3.4,16.5,8.8,16.5,15.1c0,0.7,0,22.2,0,22.2h-5.6V203l7.3,17.7v21.5h-33.1L34.8,242.2z"/>
	</g>
</g>
</svg>
