<?xml version="1.0" encoding="utf-8"?>
<!-- Generator: Adobe Illustrator 22.1.0, SVG Export Plug-In . SVG Version: 6.00 Build 0)  -->
<svg version="1.1" id="BLISS_FMA_Profile" xmlns="http://www.w3.org/2000/svg" xmlns:xlink="http://www.w3.org/1999/xlink" x="0px"
	 y="0px" viewBox="0 0 521.4 168" style="enable-background:new 0 0 521.4 168;" xml:space="preserve">
<style type="text/css">
	.st0{fill:#FFFFFF;}
	.st1{fill:#B7DAEA;}
	.st2{fill:none;}
	.st3{fill:none;stroke:#D3DADF;stroke-miterlimit:10;}
	.st4{fill:#231F20;}
	.st5{font-family:'Futura-Medium';}
	.st6{font-size:16px;}
	.st7{fill:#0E84BD;}
	.st8{font-family:'Futura-Bold';}
	.st9{font-size:12px;}
</style>
<g id="gBlissForward">
	<g id="hBlissForward">
		<rect id="back" x="341.2" y="0.5" class="st0" width="179.7" height="167"/>
		<path id="ship" class="st1" d="M442.2,106.6l-19.1-26c0,0,6-3.7,6.3-8.6h-20.2v-4.3h7.1l-4.8-4.3h-4.3V59h5.3l-6.7-4.3h-20.4
			c0.2-0.5,0.1-0.7-0.2-1.2l-2.6-4h2.9c1,0.1,1.8-0.6,1.9-1.5s-0.6-1.8-1.5-1.9c-0.1,0-0.2,0-0.4,0h-5.2l-1.2-1.9h0.8
			c1,0.1,1.8-0.6,1.9-1.5s-0.6-1.8-1.5-1.9c-0.1,0-0.2,0-0.4,0h-11.3h-0.1l-1.8-2.8c-0.6-0.8-1.7-1.1-2.6-0.6
			c-0.8,0.4-1.2,1.3-0.8,2.1c0,0.1,0.1,0.2,0.1,0.2l9.6,15h-31.7v84h123.4l29.3-32L442.2,106.6L442.2,106.6z M371.9,46l-1.2-1.9h3.9
			l0,0l1.2,1.9H371.9z M377.2,54.6c0-0.3,0.1-0.3-0.1-0.6l-3-4.6h4l3.5,5.2C381.6,54.6,377.2,54.6,377.2,54.6z"/>
		<rect id="check" x="341.2" y="161.5" class="st2" width="179.7" height="6"/>
		<rect id="border" x="341.2" y="0.5" class="st3" width="179.7" height="167"/>
		<text id="text" transform="matrix(1 0 0 1 362.35 102.15)" class="st4 st5 st6">+  $0</text>
		<text id="title" transform="matrix(1 0 0 1 395.85 30.17)" class="st7 st8 st9">FORWARD</text>
	</g>
</g>
<g id="gBlissMidShip">
	<g id="hBlissMidShip">
		<rect id="back_1_" x="188" y="0.5" class="st0" width="153.3" height="167"/>
		<path id="ship_1_" class="st1" d="M341.1,54.6v-6.8h-35.7v6.8h-7.8c0-0.3-0.7-1.1-0.9-1.4l-7.8-11.9c-0.6-0.8-1.7-1.1-2.7-0.6
			c-0.8,0.4-1.2,1.3-0.8,2.1c0,0.1,0.1,0.2,0.1,0.2l7.5,11.5h-17V59h-78.8v-6.3c0,0-4.6-4.5-9.1-8.1v94h153.3v-84L341.1,54.6z"/>
		<rect id="check_1_" x="188" y="161.5" class="st2" width="153.2" height="6"/>
		<rect id="border_1_" x="188" y="0.5" class="st3" width="153.3" height="167"/>
		<text id="text_1_" transform="matrix(1 0 0 1 236.35 102.15)" class="st4 st5 st6">+  $15</text>
		<text id="title_1_" transform="matrix(1 0 0 1 236.49 30.17)" class="st7 st8 st9">MID-SHIP</text>
	</g>
</g>
<g id="gBlissAft">
	<g id="hBlissAft">
		<rect id="back_2_" x="0.5" y="0.5" class="st0" width="187.5" height="167"/>
		<path id="ship_2_" class="st1" d="M180.5,40.2h-4.9v-3.5c-0.2-1.1-1.3-1.8-2.4-1.5c-0.7,0.2-1.3,0.8-1.5,1.5v3.5h-1.5v-3.5
			c-0.3-1.1-1.3-1.7-2.4-1.5c-0.7,0.2-1.3,0.7-1.5,1.5v3.5H165v-3.5c-0.2-1.1-1.3-1.8-2.4-1.5c-0.7,0.2-1.3,0.8-1.5,1.5v3.5h-1.2
			c0,0-0.4,0.1,1.1,2.4s1.6,12,1.6,12h-4.7l-4.7-6.8h-25.8V51h-9.2v3.7h-8c0-0.2-0.1-0.4-0.2-0.6l-7.8-11.9
			c-0.6-0.8-1.7-1.1-2.7-0.6c-0.8,0.4-1.2,1.3-0.8,2.1c0,0.1,0.1,0.2,0.1,0.2l7,10.8H90.6V59H66l-1.7,4.3h-2.4V72l3.2,4.3
			c-6.3,6.5-22.4,34.6-22.4,34.6h-3.9l-1.7,4.3l2.2,4.3c0,0-5.1,9.2-4.3,12.4l8.5,3.5l-0.5,3.2h145v-94
			C185.1,42.3,182.1,40.3,180.5,40.2z"/>
		<rect id="check_2_" x="0.5" y="161.5" class="st2" width="187.5" height="6"/>
		<rect id="border_2_" x="0.5" y="0.5" class="st3" width="187.5" height="167"/>
		<text id="text_2_" transform="matrix(1 0 0 1 106.35 102.15)" class="st4 st5 st6">+  $0</text>
		<text id="title_2_" transform="matrix(1 0 0 1 81.35 30.17)" class="st7 st8 st9">AFT</text>
	</g>
</g>
</svg>
