<?xml version="1.0" encoding="utf-8"?>
<!-- Generator: Adobe Illustrator 25.4.1, SVG Export Plug-In . SVG Version: 6.00 Build 0)  -->
<svg version="1.1" id="PEARL_DECK_06" xmlns="http://www.w3.org/2000/svg" xmlns:xlink="http://www.w3.org/1999/xlink" x="0px"
	 y="0px" width="127.7px" height="1080.7px" viewBox="0 0 127.7 1080.7" style="enable-background:new 0 0 127.7 1080.7;"
	 xml:space="preserve">
<style type="text/css">
	.st0{fill:#FFFFFF;}
	.st1{fill:none;stroke:#D5DCE0;stroke-width:0.5;}
	.st2{fill:#6E8496;}
	.st3{fill:none;}
	.st4{fill:none;stroke:#076FA0;stroke-miterlimit:10;}
</style>
<g id="PEARL_DECK_06_BOTTOM">
	<path class="st0" d="M75.1,1080.1c16.8-0.8,47-4.3,52-18.3c0.2-20.2,0.2-825.2,0.2-825.2s-0.2-32.5-0.6-36.4
		c-0.1-1.4-0.8-21.8-1.7-31C121.4,133.9,114.9,59.9,65,1c-0.3-0.2-0.6-0.4-0.9-0.5h-0.5C63.3,0.6,63,0.7,62.7,1
		C10.4,61.6,5.1,146.5,2.5,171.7c-0.9,12.5-1.3,27.1-1.5,28.5c-0.3,3.9-0.6,36.4-0.6,36.4s0.1,805,0.2,825.2
		c5.2,14.6,37.4,17.8,53.8,18.4L75.1,1080.1z"/>
	<path class="st1" d="M51,959.7c0,0.6-0.5,1.1-1.1,1.1c-0.6,0-1.1-0.5-1.1-1.1c0-0.6,0.5-1.1,1.1-1.1C50.5,958.6,51,959.1,51,959.7z
		"/>
	<path class="st1" d="M76.7,959.7c0,0.6,0.5,1.1,1.1,1.1c0.6,0,1.1-0.5,1.1-1.1c0-0.6-0.5-1.1-1.1-1.1
		C77.2,958.6,76.7,959.1,76.7,959.7z"/>
	<path class="st1" d="M62.3,962.8c-8.7-0.8-15.6-7.7-16.6-16.3"/>
	<path class="st1" d="M82.3,946.6c-1,8.6-7.8,15.4-16.5,16.2"/>
	<path class="st1" d="M77.1,960.5c-3.5,2.9-8,4.7-13,4.7c-5,0-9.5-1.8-13.1-4.8"/>
	<path class="st1" d="M62.5,960.7c-7.4-0.7-13.3-6.8-14.2-14.5"/>
	<path class="st1" d="M79.7,946.2c-0.8,7.7-6.8,13.7-14.2,14.5"/>
	<path class="st1" d="M63,958.5c-6.3-0.5-11.3-5.4-12.1-11.7"/>
	<path class="st1" d="M77.1,946.8c-1.2,9.9-8.5,11.5-12.1,11.7"/>
	<path class="st1" d="M55.2,955.3c0,0-3.5,5.4-4.6,5.1"/>
	<path class="st1" d="M72.7,955.4c0,0,3.3,5.3,4.4,4.9"/>
	
		<ellipse transform="matrix(3.327807e-02 -0.9994 0.9994 3.327807e-02 -900.5839 995.1127)" class="st1" cx="64.1" cy="963.1" rx="1.8" ry="1.8"/>
	<polyline class="st1" points="62.1,963.1 64,955 66,963.2 	"/>
	<path class="st1" d="M34.2,953.4c0,0,4.4,5.5,3.8,18"/>
	<path class="st1" d="M94.3,953.4c0,0-4.4,5.5-3.8,18"/>
	<path class="st1" d="M114.6,477c0,0-1,5-3.6,8.3c-7.2,12.7-25.2,12.2-30.7,8.6c-4.5-2.1-7.7-6.7-7.7-6.7l7.8-13
		c0,0,3.4-4.5,1.9-5.8c-0.4-0.6-3.1-2.1-3.1-2.1l4.4-9.7h32.3C115.8,456.6,116.4,472.5,114.6,477z"/>
	<polyline class="st1" points="24.1,1076.2 24.1,991.7 0.7,991.7 	"/>
	<polyline class="st1" points="103.8,1076.2 103.8,991.7 127.2,991.7 	"/>
	<polygon class="st1" points="59,943.3 53.7,943.3 53.7,946.4 45.4,946.4 45.4,917.3 52.6,917.3 52.6,937.6 60.2,937.6 63.6,937.6 
		76,937.6 76,917.3 83.2,917.3 83.2,946.4 74.9,946.4 74.9,943.3 63.4,943.3 	"/>
	<line class="st1" x1="0.4" y1="927.9" x2="45.5" y2="927.9"/>
	<polyline class="st1" points="83.3,927.9 104.2,927.9 104.2,895.4 127,895.4 	"/>
	<path class="st1" d="M62.6,894.1h27.5v44.1c0,0-0.6,5.4-2.1,9.4c-1.5,3.9-8.2,16.6-3.9,26.9c0,0-12.7,4.8-14.5,4.8
		c0,0-0.8,2.8-3.7,3.5l-2.1,0.1c-3.3-0.5-4.7-3.6-4.7-3.6c-1.8,0-14.5-4.8-14.5-4.8c4.2-10.3-2.4-23-3.9-26.9s-2.1-9.4-2.1-9.4
		v-44.1H66"/>
	<line class="st1" x1="103.6" y1="797.8" x2="127.6" y2="797.8"/>
	<polyline class="st1" points="79.9,634.4 79.9,615.9 48.3,615.9 48.3,634.8 	"/>
	<line class="st1" x1="127.3" y1="615.7" x2="0.8" y2="615.7"/>
	<polyline class="st1" points="85.5,588.9 92.3,588.9 92.3,550.5 92.3,518.6 58.9,518.6 58.9,508.2 50.9,508.2 50.9,505.3 
		31.7,505.3 31.7,593 	"/>
	<line class="st1" x1="117.2" y1="550.8" x2="92.3" y2="550.8"/>
	<polyline class="st1" points="127.4,485.4 119.1,485.4 112.1,493.6 112.1,532.6 119.5,540.3 127,540.3 	"/>
	<polygon class="st1" points="79.1,466.3 75,472.5 56.1,472.6 56.3,451.8 83,451.8 83,457.9 	"/>
	<polyline class="st1" points="0.6,443.8 36.1,443.8 127.1,443.8 	"/>
	<polygon class="st1" points="45.4,648.3 83.5,648.3 83.5,657.5 45.4,657.5 	"/>
	<line class="st1" x1="54.9" y1="648.1" x2="54.9" y2="657.4"/>
	<line class="st1" x1="64.4" y1="648.1" x2="64.4" y2="657.4"/>
	<line class="st1" x1="74" y1="648.1" x2="74" y2="657.4"/>
	<polygon class="st1" points="45.4,271.6 83.5,271.6 83.5,280.9 45.4,280.9 	"/>
	<line class="st1" x1="54.9" y1="271.5" x2="54.9" y2="280.8"/>
	<line class="st1" x1="64.4" y1="271.5" x2="64.4" y2="280.8"/>
	<line class="st1" x1="74" y1="271.5" x2="74" y2="280.8"/>
	<polygon class="st1" points="64.3,884.8 73.9,884.8 73.9,894.1 64.3,894.1 	"/>
	<line class="st1" x1="59" y1="473.1" x2="59" y2="509.2"/>
	<polyline class="st1" points="40.3,443.5 40.3,451.1 45.3,451.1 45.3,482.8 50.9,482.8 50.9,506.9 	"/>
	<path class="st1" d="M117,551.3v-6l-9.4-9.1v-27.3c0,0,0.2-2.9-0.4-5.4c-2.6-4.9-8.4-3.5-8.4-3.5s-9.4,2-16.7-0.2
		c-3.6-0.7-11.5-5.8-11.5-5.8s-1.3-1.7-2.6-1.3c-2.1,0.2-1.5,3-1.5,3h-7.2"/>
	<path class="st1" d="M64.9,282.3h22.1v-59.8l10.3-10.3v-17.7h-6.9c0,0,0.2,12.7,0.1,13.6c-0.3,3.5-5.3,3.1-5.3,3.1H72.2H56.9H44
		c0,0-5.3,0.8-5.6-2.7c-0.1-0.9,0.5-14.1,0.5-14.1h-6.9v17.7l10.3,10.3v59.8L64.9,282.3L64.9,282.3z"/>
	<path class="st1" d="M19.3,126l-9.8,45.2c0,0,9,5.6,17.6,10.4l4.7,12.9"/>
	<path class="st1" d="M109.6,125.8l9.8,45.9c0,0-6.7,3.5-18.1,9.3l-4,13.4"/>
	<line class="st1" x1="42.5" y1="248.4" x2="87.1" y2="248.4"/>
	<polyline class="st1" points="110.9,415.6 33.8,415.6 33.8,415.6 33.8,443.3 	"/>
	<polyline class="st1" points="0.7,313.8 51.6,313.8 51.6,320 78.8,320 78.8,313.5 83.8,313.5 	"/>
	<polygon class="st1" points="83.8,313.5 78.8,313.5 78.8,320.2 51.6,320.2 51.6,313.8 42.3,313.8 42.3,290.7 48.8,290.7 
		48.8,311.9 77.4,311.9 77.4,290.9 83.8,290.9 	"/>
	<path class="st1" d="M8.7,125.6H29v-2.9h8.2c0,0,2.6-0.1,3.6,1.3c0.9,1.3,10.9,9.1,21.1,9.3l4.3,0c10.2-0.3,20.1-8,21-9.3
		c1-1.4,3.6-1.3,3.6-1.3h8.9v2.9h20.1"/>
	<polyline class="st1" points="0.8,690 37.6,690 37.6,701.5 100.1,701.5 100.1,711.4 108.7,711.4 108.7,722.9 127.3,722.9 	"/>
	<path class="st1" d="M60.9,180.8c1.1,0.1,2.2,0.2,3.3,0.2"/>
	<path class="st1" d="M33,123v14.6l-6.7,5l7.9,11l-5.7,16.9c0,0,6,8.1,32.6,10.2"/>
	<path class="st1" d="M94.7,123v14.6l6.7,5l-7.9,11l5.7,16.9c0,0-6.4,8.7-35.8,10.5"/>
	<rect x="84.2" y="605.4" class="st1" width="21.3" height="10.3"/>
	<rect x="84.2" y="615.7" class="st1" width="21.3" height="10.3"/>
	<path class="st1" d="M68,495.9c-0.6-0.1-1-0.7-0.9-1.3c0.1-0.6,0.7-1,1.3-0.9c0.6,0.1,1,0.7,0.9,1.3C69.2,495.6,68.6,496,68,495.9z
		"/>
	<path class="st1" d="M69,494.5c0,0-2.1,7.8-2,8.6c0,0-0.4,1.5,4.4,1l4.1-0.3"/>
	<line class="st1" x1="59" y1="498.1" x2="67.9" y2="498.1"/>
	<line class="st1" x1="59.1" y1="500.5" x2="67.5" y2="500.5"/>
	<line class="st1" x1="59" y1="503" x2="67.2" y2="503"/>
	<line class="st1" x1="85.8" y1="588.9" x2="85.8" y2="605.7"/>
	<line class="st1" x1="31.7" y1="589.3" x2="31.7" y2="616.1"/>
	<line class="st1" x1="38.5" y1="939.3" x2="0.5" y2="939.3"/>
	<polyline class="st1" points="103.6,995 114.5,995 114.5,1014.9 104.1,1014.9 	"/>
	<line class="st1" x1="119.4" y1="995.7" x2="119.4" y2="1016.1"/>
	<line class="st1" x1="114.6" y1="997.5" x2="119.4" y2="997.5"/>
	<line class="st1" x1="114.6" y1="999.1" x2="119.4" y2="999.1"/>
	<line class="st1" x1="114.6" y1="1000.8" x2="119.4" y2="1000.8"/>
	<line class="st1" x1="114.6" y1="1004" x2="119.4" y2="1004"/>
	<line class="st1" x1="114.6" y1="1005.6" x2="119.4" y2="1005.6"/>
	<line class="st1" x1="114.5" y1="1007.3" x2="119.3" y2="1007.3"/>
	<line class="st1" x1="114.5" y1="1008.9" x2="119.3" y2="1008.9"/>
	<line class="st1" x1="114.2" y1="1010.5" x2="119" y2="1010.5"/>
	<line class="st1" x1="114.1" y1="1012.2" x2="118.9" y2="1012.2"/>
	<line class="st1" x1="114.6" y1="1013.8" x2="119.4" y2="1013.8"/>
	<line class="st1" x1="114.6" y1="1002.4" x2="119.4" y2="1002.4"/>
	<polyline class="st1" points="24.1,995 13.1,995 13.1,1014.9 23.6,1014.9 	"/>
	<line class="st1" x1="8.3" y1="995.7" x2="8.3" y2="1016.1"/>
	<line class="st1" x1="13.1" y1="997.5" x2="8.3" y2="997.5"/>
	<line class="st1" x1="13.1" y1="999.1" x2="8.3" y2="999.1"/>
	<line class="st1" x1="13.1" y1="1000.8" x2="8.3" y2="1000.8"/>
	<line class="st1" x1="13.1" y1="1004" x2="8.3" y2="1004"/>
	<line class="st1" x1="13.1" y1="1005.6" x2="8.3" y2="1005.6"/>
	<line class="st1" x1="13.2" y1="1007.3" x2="8.4" y2="1007.3"/>
	<line class="st1" x1="13.2" y1="1008.9" x2="8.4" y2="1008.9"/>
	<line class="st1" x1="13.5" y1="1010.5" x2="8.7" y2="1010.5"/>
	<line class="st1" x1="13.6" y1="1012.2" x2="8.8" y2="1012.2"/>
	<line class="st1" x1="13.1" y1="1013.8" x2="8.3" y2="1013.8"/>
	<line class="st1" x1="13.1" y1="1002.4" x2="8.3" y2="1002.4"/>
	<line class="st1" x1="104" y1="798.1" x2="104" y2="903.4"/>
	<polyline class="st1" points="24.6,313.6 24.6,291.4 0.6,291.4 	"/>
	<line class="st1" x1="24.9" y1="302.2" x2="0.3" y2="302.2"/>
	<polyline class="st1" points="73.7,415.6 114.1,415.6 114.1,443.8 	"/>
	<line class="st1" x1="106.3" y1="202" x2="126.6" y2="202"/>
	<polyline class="st1" points="125.8,179 106.3,179 106.3,216.2 127.1,216.2 	"/>
	<line class="st1" x1="106.3" y1="194.1" x2="126.6" y2="194.1"/>
	<line class="st1" x1="86.9" y1="225.4" x2="86.9" y2="211"/>
	<line class="st1" x1="42.2" y1="225.1" x2="42.2" y2="211.4"/>
	<line class="st1" x1="102.5" y1="658.2" x2="127" y2="658.2"/>
	<polyline class="st1" points="31.6,614.3 31.6,661.8 102.5,661.8 102.5,657.8 	"/>
	<path class="st1" d="M117,549.3v48.4v2.5c-0.7,5.5-4.5,5.1-4.5,5.1h-6.9"/>
	<polyline class="st1" points="84.4,307.1 105,307.1 105,314.5 114.3,314.5 114.3,295.1 127.1,295.1 	"/>
	<polyline class="st1" points="0.9,220.7 32.4,220.7 32.4,270.1 0.8,270.1 	"/>
	<line class="st1" x1="32.5" y1="247.9" x2="1" y2="247.9"/>
	<line class="st1" x1="24" y1="220.8" x2="24" y2="183.7"/>
	<line class="st1" x1="24" y1="183.7" x2="1.7" y2="183.7"/>
	<line class="st1" x1="46" y1="648.5" x2="54.9" y2="657.2"/>
	<line class="st1" x1="54.9" y1="648.5" x2="46" y2="657.2"/>
	<line class="st1" x1="55.2" y1="648.5" x2="64.1" y2="657.2"/>
	<line class="st1" x1="64.1" y1="648.5" x2="55.2" y2="657.2"/>
	<line class="st1" x1="64.8" y1="648.5" x2="73.7" y2="657.2"/>
	<line class="st1" x1="73.7" y1="648.5" x2="64.8" y2="657.2"/>
	<line class="st1" x1="74.5" y1="648.5" x2="83.5" y2="657.2"/>
	<line class="st1" x1="83.5" y1="648.5" x2="74.5" y2="657.2"/>
	<line class="st1" x1="46" y1="271.8" x2="54.9" y2="280.6"/>
	<line class="st1" x1="54.9" y1="271.8" x2="46" y2="280.6"/>
	<line class="st1" x1="55.2" y1="271.8" x2="64.1" y2="280.6"/>
	<line class="st1" x1="64.1" y1="271.8" x2="55.2" y2="280.6"/>
	<line class="st1" x1="64.8" y1="271.8" x2="73.7" y2="280.6"/>
	<line class="st1" x1="73.7" y1="271.8" x2="64.8" y2="280.6"/>
	<line class="st1" x1="74.5" y1="271.8" x2="83.5" y2="280.6"/>
	<line class="st1" x1="83.5" y1="271.8" x2="74.5" y2="280.6"/>
	<line class="st1" x1="64.6" y1="885" x2="73.5" y2="893.8"/>
	<line class="st1" x1="73.5" y1="885" x2="64.6" y2="893.8"/>
	<path class="st1" d="M70.5,292.4c-0.3,0-0.6,0.3-0.6,0.6"/>
	<line class="st1" x1="77.4" y1="292.4" x2="70.5" y2="292.4"/>
	<line class="st1" x1="70" y1="293" x2="70" y2="295.4"/>
	<line class="st1" x1="70" y1="295.4" x2="56.5" y2="295.4"/>
	<path class="st1" d="M56.5,293c0-0.3-0.2-0.6-0.6-0.6"/>
	<line class="st1" x1="56.5" y1="295.4" x2="56.5" y2="293"/>
	<line class="st1" x1="56" y1="292.4" x2="49.1" y2="292.4"/>
	<line class="st1" x1="63.4" y1="306.9" x2="63.4" y2="292.2"/>
	<line class="st1" x1="63.1" y1="306.9" x2="63.1" y2="292.2"/>
	<line class="st1" x1="77.1" y1="306.1" x2="63.4" y2="306.1"/>
	<line class="st1" x1="63.4" y1="292.2" x2="63.1" y2="292.2"/>
	<line class="st1" x1="63.4" y1="306.9" x2="63.1" y2="306.9"/>
	<line class="st1" x1="63.1" y1="306.1" x2="49" y2="306.1"/>
	<line class="st1" x1="63.1" y1="304.6" x2="57.1" y2="304.6"/>
	<line class="st1" x1="63.1" y1="303" x2="57.1" y2="303"/>
	<line class="st1" x1="63.1" y1="301.5" x2="57.1" y2="301.5"/>
	<line class="st1" x1="63.1" y1="299.9" x2="57.1" y2="299.9"/>
	<line class="st1" x1="63.1" y1="298.4" x2="57.1" y2="298.4"/>
	<line class="st1" x1="63.1" y1="296.8" x2="57.1" y2="296.8"/>
	<line class="st1" x1="63.1" y1="293.7" x2="56.6" y2="293.7"/>
	<line class="st1" x1="69.4" y1="304.6" x2="63.4" y2="304.6"/>
	<line class="st1" x1="69.4" y1="303" x2="63.4" y2="303"/>
	<line class="st1" x1="69.4" y1="301.5" x2="63.4" y2="301.5"/>
	<line class="st1" x1="69.4" y1="299.9" x2="63.4" y2="299.9"/>
	<line class="st1" x1="69.4" y1="298.4" x2="63.4" y2="298.4"/>
	<line class="st1" x1="69.4" y1="296.8" x2="63.4" y2="296.8"/>
	<line class="st1" x1="70" y1="293.7" x2="63.4" y2="293.7"/>
	<line class="st1" x1="48.9" y1="293.9" x2="56" y2="293.9"/>
	<line class="st1" x1="49" y1="295.5" x2="56.8" y2="295.5"/>
	<line class="st1" x1="48.9" y1="297" x2="56" y2="297"/>
	<line class="st1" x1="49" y1="298.5" x2="56" y2="298.5"/>
	<line class="st1" x1="70" y1="293.9" x2="77.3" y2="293.9"/>
	<line class="st1" x1="69.9" y1="295.5" x2="77.3" y2="295.5"/>
	<line class="st1" x1="70.5" y1="297" x2="77.4" y2="297"/>
	<line class="st1" x1="70.5" y1="298.5" x2="77.3" y2="298.5"/>
	<path class="st1" d="M55.9,307.1c0,0.3,0.2,0.6,0.5,0.6c0.3,0,0.5-0.3,0.5-0.6l0,0"/>
	<line class="st1" x1="57" y1="307.1" x2="57" y2="306.9"/>
	<line class="st1" x1="55.9" y1="307.1" x2="55.9" y2="306.9"/>
	<path class="st1" d="M69.4,307.1c0,0.3,0.2,0.6,0.5,0.6c0.3,0,0.6-0.3,0.6-0.6l0,0"/>
	<line class="st1" x1="70.5" y1="307.1" x2="70.5" y2="306.9"/>
	<line class="st1" x1="69.4" y1="307.1" x2="69.4" y2="306.9"/>
	<line class="st1" x1="56.5" y1="306.9" x2="56.5" y2="295.5"/>
	<line class="st1" x1="49.1" y1="301.6" x2="56" y2="301.6"/>
	<line class="st1" x1="49.1" y1="303.2" x2="56" y2="303.2"/>
	<line class="st1" x1="49.1" y1="304.7" x2="56" y2="304.7"/>
	<line class="st1" x1="49" y1="300.1" x2="56" y2="300.1"/>
	<line class="st1" x1="70" y1="306.9" x2="70" y2="295.3"/>
	<line class="st1" x1="70.5" y1="301.6" x2="77.3" y2="301.6"/>
	<line class="st1" x1="70.5" y1="303.2" x2="77.2" y2="303.2"/>
	<line class="st1" x1="70.5" y1="304.7" x2="77.2" y2="304.7"/>
	<line class="st1" x1="70.4" y1="300.1" x2="77.4" y2="300.1"/>
	<path class="st1" d="M56.1,632.7c0.3,0,0.6-0.3,0.6-0.6"/>
	<line class="st1" x1="48.5" y1="632.7" x2="56.1" y2="632.7"/>
	<line class="st1" x1="56.7" y1="632.1" x2="56.7" y2="629.9"/>
	<line class="st1" x1="56.7" y1="629.9" x2="71.6" y2="629.9"/>
	<path class="st1" d="M71.6,632.1c0,0.3,0.3,0.6,0.6,0.6"/>
	<line class="st1" x1="71.6" y1="629.9" x2="71.6" y2="632.1"/>
	<line class="st1" x1="72.2" y1="632.7" x2="79.8" y2="632.7"/>
	<line class="st1" x1="64" y1="618.9" x2="64" y2="632.9"/>
	<line class="st1" x1="64.3" y1="618.9" x2="64.3" y2="632.9"/>
	<line class="st1" x1="48.9" y1="619.6" x2="64" y2="619.6"/>
	<line class="st1" x1="64" y1="632.9" x2="64.3" y2="632.9"/>
	<line class="st1" x1="64" y1="618.9" x2="64.3" y2="618.9"/>
	<line class="st1" x1="64.3" y1="619.6" x2="80" y2="619.6"/>
	<line class="st1" x1="64.3" y1="621.1" x2="71" y2="621.1"/>
	<line class="st1" x1="64.3" y1="622.6" x2="71" y2="622.6"/>
	<line class="st1" x1="64.3" y1="624.1" x2="71" y2="624.1"/>
	<line class="st1" x1="64.3" y1="625.5" x2="71" y2="625.5"/>
	<line class="st1" x1="64.3" y1="627" x2="71" y2="627"/>
	<line class="st1" x1="64.3" y1="628.5" x2="71" y2="628.5"/>
	<line class="st1" x1="64.3" y1="631.5" x2="71.6" y2="631.5"/>
	<line class="st1" x1="57.3" y1="621.1" x2="64" y2="621.1"/>
	<line class="st1" x1="57.3" y1="622.6" x2="64" y2="622.6"/>
	<line class="st1" x1="57.3" y1="624.1" x2="64" y2="624.1"/>
	<line class="st1" x1="57.3" y1="625.5" x2="64" y2="625.5"/>
	<line class="st1" x1="57.3" y1="627" x2="64" y2="627"/>
	<line class="st1" x1="57.3" y1="628.5" x2="64" y2="628.5"/>
	<line class="st1" x1="56.7" y1="631.5" x2="64" y2="631.5"/>
	<line class="st1" x1="80" y1="631.2" x2="72.2" y2="631.2"/>
	<line class="st1" x1="79.9" y1="629.8" x2="71.3" y2="629.8"/>
	<line class="st1" x1="80.1" y1="628.3" x2="72.2" y2="628.3"/>
	<line class="st1" x1="79.9" y1="626.8" x2="72.2" y2="626.8"/>
	<line class="st1" x1="56.7" y1="631.2" x2="48.6" y2="631.2"/>
	<line class="st1" x1="56.8" y1="629.8" x2="48.6" y2="629.8"/>
	<line class="st1" x1="56.1" y1="628.3" x2="48.5" y2="628.3"/>
	<line class="st1" x1="56.1" y1="626.8" x2="48.6" y2="626.8"/>
	<path class="st1" d="M72.3,618.7c0-0.3-0.3-0.6-0.6-0.6s-0.6,0.3-0.6,0.6l0,0"/>
	<line class="st1" x1="71.1" y1="618.7" x2="71.1" y2="618.9"/>
	<line class="st1" x1="72.3" y1="618.7" x2="72.3" y2="618.9"/>
	<path class="st1" d="M57.3,618.7c0-0.3-0.3-0.6-0.6-0.6c-0.3,0-0.6,0.3-0.6,0.6l0,0"/>
	<line class="st1" x1="56.1" y1="618.7" x2="56.1" y2="618.9"/>
	<line class="st1" x1="57.3" y1="618.7" x2="57.3" y2="618.9"/>
	<line class="st1" x1="71.7" y1="618.9" x2="71.7" y2="629.7"/>
	<line class="st1" x1="79.9" y1="623.9" x2="72.2" y2="623.9"/>
	<line class="st1" x1="79.9" y1="622.5" x2="72.2" y2="622.5"/>
	<line class="st1" x1="79.8" y1="621" x2="72.2" y2="621"/>
	<line class="st1" x1="79.9" y1="625.4" x2="72.2" y2="625.4"/>
	<line class="st1" x1="56.7" y1="618.9" x2="56.7" y2="629.9"/>
	<line class="st1" x1="56.1" y1="623.9" x2="48.6" y2="623.9"/>
	<line class="st1" x1="56.1" y1="622.5" x2="48.7" y2="622.5"/>
	<line class="st1" x1="56.1" y1="621" x2="48.7" y2="621"/>
	<line class="st1" x1="56.2" y1="625.4" x2="48.5" y2="625.4"/>
	<path class="st1" d="M70.4,918.7c-0.3,0-0.5,0.3-0.5,0.6"/>
	<line class="st1" x1="75.9" y1="918.7" x2="70.4" y2="918.7"/>
	<line class="st1" x1="69.9" y1="919.3" x2="69.9" y2="921.7"/>
	<line class="st1" x1="69.9" y1="921.7" x2="58.9" y2="921.7"/>
	<path class="st1" d="M58.9,919.3c0-0.3-0.2-0.6-0.5-0.6"/>
	<line class="st1" x1="58.9" y1="921.7" x2="58.9" y2="919.3"/>
	<line class="st1" x1="58.5" y1="918.7" x2="52.8" y2="918.7"/>
	<line class="st1" x1="64.5" y1="933.2" x2="64.5" y2="918.5"/>
	<line class="st1" x1="64.3" y1="933.2" x2="64.3" y2="918.5"/>
	<line class="st1" x1="75.7" y1="932.5" x2="64.5" y2="932.5"/>
	<line class="st1" x1="64.5" y1="918.5" x2="64.3" y2="918.5"/>
	<line class="st1" x1="64.5" y1="933.2" x2="64.3" y2="933.2"/>
	<line class="st1" x1="64.3" y1="932.5" x2="52.7" y2="932.5"/>
	<line class="st1" x1="64.3" y1="930.9" x2="59.4" y2="930.9"/>
	<line class="st1" x1="64.3" y1="929.3" x2="59.4" y2="929.3"/>
	<line class="st1" x1="64.3" y1="927.8" x2="59.4" y2="927.8"/>
	<line class="st1" x1="64.3" y1="926.2" x2="59.4" y2="926.2"/>
	<line class="st1" x1="64.3" y1="924.7" x2="59.4" y2="924.7"/>
	<line class="st1" x1="64.3" y1="923.1" x2="59.4" y2="923.1"/>
	<line class="st1" x1="64.3" y1="920" x2="58.9" y2="920"/>
	<line class="st1" x1="69.4" y1="930.9" x2="64.5" y2="930.9"/>
	<line class="st1" x1="69.4" y1="929.3" x2="64.5" y2="929.3"/>
	<line class="st1" x1="69.4" y1="927.8" x2="64.5" y2="927.8"/>
	<line class="st1" x1="69.4" y1="926.2" x2="64.5" y2="926.2"/>
	<line class="st1" x1="69.4" y1="924.7" x2="64.5" y2="924.7"/>
	<line class="st1" x1="69.4" y1="923.1" x2="64.5" y2="923.1"/>
	<line class="st1" x1="69.9" y1="920" x2="64.5" y2="920"/>
	<line class="st1" x1="52.7" y1="920.3" x2="58.5" y2="920.3"/>
	<line class="st1" x1="52.8" y1="921.8" x2="59.1" y2="921.8"/>
	<line class="st1" x1="52.7" y1="923.3" x2="58.5" y2="923.3"/>
	<line class="st1" x1="52.8" y1="924.9" x2="58.5" y2="924.9"/>
	<line class="st1" x1="69.9" y1="920.3" x2="75.8" y2="920.3"/>
	<line class="st1" x1="69.8" y1="921.8" x2="75.9" y2="921.8"/>
	<line class="st1" x1="70.3" y1="923.3" x2="75.9" y2="923.3"/>
	<line class="st1" x1="70.3" y1="924.9" x2="75.9" y2="924.9"/>
	<path class="st1" d="M58.4,933.4c0,0.3,0.2,0.6,0.4,0.6s0.4-0.3,0.4-0.6l0,0"/>
	<line class="st1" x1="59.3" y1="933.4" x2="59.3" y2="933.2"/>
	<line class="st1" x1="58.4" y1="933.4" x2="58.4" y2="933.2"/>
	<path class="st1" d="M69.4,933.4c0,0.3,0.2,0.6,0.4,0.6c0.2,0,0.4-0.3,0.4-0.6l0,0"/>
	<line class="st1" x1="70.3" y1="933.4" x2="70.3" y2="933.2"/>
	<line class="st1" x1="69.4" y1="933.4" x2="69.4" y2="933.2"/>
	<line class="st1" x1="58.9" y1="933.2" x2="58.9" y2="921.8"/>
	<line class="st1" x1="52.8" y1="927.9" x2="58.5" y2="927.9"/>
	<line class="st1" x1="52.8" y1="929.5" x2="58.5" y2="929.5"/>
	<line class="st1" x1="52.9" y1="931" x2="58.5" y2="931"/>
	<line class="st1" x1="52.8" y1="926.4" x2="58.5" y2="926.4"/>
	<line class="st1" x1="69.9" y1="933.2" x2="69.9" y2="921.6"/>
	<line class="st1" x1="70.3" y1="927.9" x2="75.8" y2="927.9"/>
	<line class="st1" x1="70.3" y1="929.5" x2="75.8" y2="929.5"/>
	<line class="st1" x1="70.3" y1="931" x2="75.8" y2="931"/>
	<line class="st1" x1="70.3" y1="926.4" x2="76" y2="926.4"/>
	<path class="st2" d="M8.5,293.3h1c1,0,1.7,0.5,1.7,1.8v0.1c0,0.7-0.3,1.2-0.7,1.5l0.8,2.3h-1l-0.6-2H9.5v2h-1V293.3z M9.5,296
		c0.4,0,0.7-0.2,0.7-0.9v-0.1c0-0.7-0.3-0.9-0.8-0.9h0L9.5,296L9.5,296z M11.7,293.3h1c1,0,1.7,0.5,1.7,1.8v0.1
		c0,0.7-0.3,1.2-0.7,1.5l0.8,2.3h-1l-0.6-2h-0.2v2h-1L11.7,293.3L11.7,293.3z M12.7,296c0.4,0,0.7-0.2,0.7-0.9v-0.1
		c0-0.7-0.3-0.9-0.8-0.9h0L12.7,296L12.7,296z"/>
	<path class="st2" d="M8.5,304.2h1c1,0,1.7,0.5,1.7,1.8v0.1c0,0.7-0.3,1.2-0.7,1.5l0.8,2.3h-1l-0.6-2H9.5v2h-1V304.2z M9.5,307
		c0.4,0,0.7-0.2,0.7-0.9V306c0-0.7-0.3-0.9-0.8-0.9h0L9.5,307L9.5,307z M11.7,304.2h1c1,0,1.7,0.5,1.7,1.8v0.1
		c0,0.7-0.3,1.2-0.7,1.5l0.8,2.3h-1l-0.6-2h-0.2v2h-1L11.7,304.2L11.7,304.2z M12.7,307c0.4,0,0.7-0.2,0.7-0.9V306
		c0-0.7-0.3-0.9-0.8-0.9h0L12.7,307L12.7,307z"/>
	<path class="st2" d="M113,183.5h1c1,0,1.7,0.5,1.7,1.8v0.1c0,0.7-0.3,1.2-0.7,1.5l0.8,2.3h-1l-0.6-2H114v2h-1
		C113,189.1,113,183.5,113,183.5z M114,186.2c0.4,0,0.7-0.2,0.7-0.9v-0.1c0-0.7-0.3-0.9-0.8-0.9h0L114,186.2L114,186.2z
		 M116.2,183.5h1c1,0,1.7,0.5,1.7,1.8v0.1c0,0.7-0.3,1.2-0.7,1.5l0.8,2.3h-1l-0.6-2h-0.2v2h-1V183.5z M117.2,186.2
		c0.4,0,0.7-0.2,0.7-0.9v-0.1c0-0.7-0.3-0.9-0.8-0.9h0L117.2,186.2L117.2,186.2z"/>
	<path class="st2" d="M113,205.5h1c1,0,1.7,0.5,1.7,1.8v0.1c0,0.7-0.3,1.2-0.7,1.5l0.8,2.3h-1l-0.6-2H114v2h-1
		C113,211.1,113,205.5,113,205.5z M114,208.3c0.4,0,0.7-0.2,0.7-0.9v-0.1c0-0.7-0.3-0.9-0.8-0.9h0L114,208.3L114,208.3z
		 M116.2,205.5h1c1,0,1.7,0.5,1.7,1.8v0.1c0,0.7-0.3,1.2-0.7,1.5l0.8,2.3h-1l-0.6-2h-0.2v2h-1V205.5z M117.2,208.3
		c0.4,0,0.7-0.2,0.7-0.9v-0.1c0-0.7-0.3-0.9-0.8-0.9h0L117.2,208.3L117.2,208.3z"/>
	<path class="st2" d="M91,617.8l1,0c1,0,1.7,0.5,1.7,1.8v0.1c0,0.7-0.3,1.2-0.7,1.5l0.8,2.3l-1,0l-0.6-2H92l0,2h-1L91,617.8z
		 M92,620.5c0.4,0,0.7-0.2,0.7-0.9v-0.1c0-0.7-0.3-0.9-0.8-0.9h0L92,620.5L92,620.5z M94.2,617.8l1,0c1,0,1.7,0.5,1.7,1.8v0.1
		c0,0.7-0.3,1.2-0.7,1.5l0.8,2.3l-1,0l-0.6-2h-0.2l0,2l-1,0L94.2,617.8z M95.2,620.5c0.4,0,0.7-0.2,0.7-0.9v-0.1
		c0-0.7-0.3-0.9-0.8-0.9h0L95.2,620.5L95.2,620.5z"/>
	<path class="st2" d="M91,606.9l1,0c1,0,1.7,0.5,1.7,1.8v0.1c0,0.7-0.3,1.2-0.7,1.5l0.8,2.3l-1,0l-0.6-2H92l0,2h-1L91,606.9z
		 M92,609.7c0.4,0,0.7-0.2,0.7-0.9v-0.1c0-0.7-0.3-0.9-0.8-0.9h0L92,609.7L92,609.7z M94.2,606.9l1,0c1,0,1.7,0.5,1.7,1.8v0.1
		c0,0.7-0.3,1.2-0.7,1.5l0.8,2.3l-1,0l-0.6-2h-0.2l0,2l-1,0L94.2,606.9z M95.2,609.7c0.4,0,0.7-0.2,0.7-0.9v-0.1
		c0-0.7-0.3-0.9-0.8-0.9h0L95.2,609.7L95.2,609.7z"/>
	<path class="st2" d="M106.2,1001.5l1,0c1,0,1.7,0.5,1.7,1.8v0.1c0,0.7-0.3,1.2-0.7,1.5l0.8,2.3l-1,0l-0.6-2h-0.2l0,2h-1
		L106.2,1001.5z M107.2,1004.2c0.4,0,0.7-0.2,0.7-0.9v-0.1c0-0.7-0.3-0.9-0.8-0.9h0L107.2,1004.2L107.2,1004.2z M109.4,1001.5l1,0
		c1,0,1.7,0.5,1.7,1.8v0.1c0,0.7-0.3,1.2-0.7,1.5l0.8,2.3l-1,0l-0.6-2h-0.2l0,2l-1,0L109.4,1001.5z M110.4,1004.2
		c0.4,0,0.7-0.2,0.7-0.9v-0.1c0-0.7-0.3-0.9-0.8-0.9h0L110.4,1004.2L110.4,1004.2z"/>
	<path class="st2" d="M16.2,1001.5l1,0c1,0,1.7,0.5,1.7,1.8v0.1c0,0.7-0.3,1.2-0.7,1.5l0.8,2.3l-1,0l-0.6-2h-0.2l0,2h-1L16.2,1001.5
		z M17.2,1004.2c0.4,0,0.7-0.2,0.7-0.9v-0.1c0-0.7-0.3-0.9-0.8-0.9h0L17.2,1004.2L17.2,1004.2z M19.4,1001.5l1,0
		c1,0,1.7,0.5,1.7,1.8v0.1c0,0.7-0.3,1.2-0.7,1.5l0.8,2.3l-1,0l-0.6-2h-0.2l0,2l-1,0L19.4,1001.5z M20.4,1004.2
		c0.4,0,0.7-0.2,0.7-0.9v-0.1c0-0.7-0.3-0.9-0.8-0.9h0L20.4,1004.2L20.4,1004.2z"/>
	<path class="st2" d="M57.2,113v-1c0.3,0.2,0.6,0.3,0.9,0.3c0.3,0,0.5-0.1,0.5-0.5v0c0-0.3-0.1-0.4-0.5-1c-0.7-0.8-0.9-1.1-0.9-1.8
		v0c0-0.9,0.6-1.5,1.4-1.5c0.4,0,0.6,0.1,0.9,0.2v1c-0.3-0.2-0.5-0.3-0.7-0.3c-0.3,0-0.5,0.2-0.5,0.5v0c0,0.3,0.1,0.4,0.5,0.9
		c0.8,0.9,0.9,1.2,0.9,1.9v0c0,0.9-0.6,1.5-1.4,1.5C57.8,113.2,57.5,113.1,57.2,113z M60.4,108.5h-0.7v-0.9H62v0.9h-0.7v4.7h-1
		L60.4,108.5L60.4,108.5z M63,107.5h1l1.1,5.6h-1l-0.2-1.1H63l-0.2,1.1h-0.9L63,107.5z M63.8,111.2l-0.3-1.8l-0.3,1.8H63.8z
		 M65.2,110.4v-0.2c0-1.8,0.8-2.7,1.9-2.7c0.3,0,0.5,0.1,0.7,0.2v1c-0.2-0.1-0.5-0.2-0.7-0.2c-0.6,0-0.9,0.6-0.9,1.8v0.3
		c0,1.5,0.4,1.8,0.8,1.8c0,0,0,0,0.1,0v-1.4h-0.5V110H68v3c-0.4,0.2-0.6,0.2-1,0.2C66,113.2,65.2,112.4,65.2,110.4z M68.5,107.6h2.1
		v0.9h-1.2v1.4h1v0.9h-1v1.4h1.2v0.9h-2.2V107.6z"/>
	<path class="st2" d="M61.4,456.4v-0.1c0-1.5,0.5-2.1,1.2-2.1c0.2,0,0.3,0,0.5,0.1v0.8c-0.2-0.1-0.3-0.1-0.4-0.1
		c-0.3,0-0.6,0.3-0.6,1.3v0.2c0,1.1,0.2,1.3,0.6,1.3c0.1,0,0.3,0,0.4-0.1v0.7c-0.2,0.1-0.3,0.1-0.5,0.1
		C62,458.4,61.4,457.8,61.4,456.4z M63.3,456.4v-0.2c0-1.4,0.5-2.1,1.1-2.1c0.7,0,1.1,0.7,1.1,2.1v0.2c0,1.4-0.4,2.1-1.1,2.1
		C63.8,458.4,63.3,457.8,63.3,456.4z M64.8,456.4v-0.2c0-1.1-0.1-1.4-0.4-1.4c-0.2,0-0.4,0.3-0.4,1.4v0.2c0,1.1,0.1,1.4,0.4,1.4
		C64.6,457.8,64.8,457.5,64.8,456.4z M65.9,454.2h0.8c0.8,0,1.3,0.4,1.3,1.3v0.1c0,0.5-0.2,0.9-0.5,1.1l0.6,1.7h-0.8l-0.5-1.5h-0.1
		v1.5h-0.7C65.9,458.4,65.9,454.2,65.9,454.2z M66.7,456.3c0.3,0,0.6-0.2,0.6-0.7v0c0-0.5-0.3-0.7-0.6-0.7h0L66.7,456.3L66.7,456.3z
		 M68.2,456.4v-0.2c0-1.4,0.4-2.1,1.1-2.1c0.7,0,1.1,0.7,1.1,2.1v0.2c0,1.4-0.4,2.1-1.1,2.1C68.7,458.4,68.2,457.8,68.2,456.4z
		 M69.7,456.4v-0.2c0-1.1-0.2-1.4-0.4-1.4s-0.4,0.3-0.4,1.4v0.2c0,1.1,0.2,1.4,0.4,1.4C69.6,457.8,69.7,457.5,69.7,456.4z
		 M70.8,454.2h0.7l0.7,2.1v-2.1h0.7v4.2h-0.6l-0.8-2.2v2.2h-0.7L70.8,454.2L70.8,454.2z M74,454.2h0.8l0.8,4.2h-0.7l-0.1-0.8H74
		l-0.1,0.8h-0.7L74,454.2z M74.6,456.9l-0.2-1.4l-0.2,1.4H74.6z M63.4,462.4v-0.1c0-1.5,0.5-2.1,1.2-2.1c0.2,0,0.3,0,0.5,0.1v0.8
		c-0.2-0.1-0.3-0.1-0.4-0.1c-0.3,0-0.6,0.3-0.6,1.3v0.2c0,1.1,0.2,1.3,0.6,1.3c0.1,0,0.3,0,0.4-0.1v0.7c-0.2,0.1-0.3,0.1-0.5,0.1
		C63.9,464.4,63.4,463.8,63.4,462.4z M65.5,460.2h0.7v4.2h-0.7V460.2z M66.6,462.4v-0.1c0-1.4,0.6-2.1,1.4-2.1c0.2,0,0.4,0,0.6,0.1
		v0.8c-0.2-0.1-0.3-0.2-0.5-0.2c-0.4,0-0.7,0.4-0.7,1.3v0.2c0,1.1,0.3,1.4,0.6,1.4c0,0,0,0,0.1,0v-1.1h-0.4V462h1v2.2
		c-0.3,0.1-0.5,0.2-0.8,0.2C67.2,464.4,66.6,463.8,66.6,462.4z M69.7,460.2h0.8l0.8,4.2h-0.7l-0.1-0.8h-0.7l-0.1,0.8h-0.7
		L69.7,460.2z M70.3,462.9l-0.2-1.4l-0.2,1.4H70.3z M71.5,460.2h0.8c0.8,0,1.3,0.4,1.3,1.3v0.1c0,0.5-0.2,0.9-0.5,1.1l0.6,1.7h-0.8
		l-0.5-1.5h-0.1v1.5h-0.7V460.2z M72.2,462.3c0.3,0,0.6-0.2,0.6-0.7v0c0-0.5-0.3-0.7-0.6-0.7h0L72.2,462.3L72.2,462.3z M63.8,468.4
		v-0.1c0-1.5,0.5-2.1,1.2-2.1c0.2,0,0.3,0,0.5,0.1v0.8c-0.2-0.1-0.3-0.1-0.4-0.1c-0.3,0-0.6,0.3-0.6,1.3v0.2c0,1.1,0.2,1.3,0.6,1.3
		c0.1,0,0.3,0,0.4-0.1v0.7c-0.2,0.1-0.3,0.1-0.5,0.1C64.3,470.4,63.8,469.8,63.8,468.4z M65.9,466.2h0.7v3.5h0.8v0.7h-1.5
		L65.9,466.2L65.9,466.2z M67.6,469.2v-3h0.7v3c0,0.4,0.1,0.5,0.3,0.5s0.3-0.1,0.3-0.5v-3h0.7v3c0,0.9-0.4,1.3-1,1.3
		S67.6,470,67.6,469.2z M70.1,466.2h0.6c0.7,0,1.4,0.3,1.4,1.1v0c0,0.5-0.3,0.8-0.6,0.9c0.4,0.2,0.7,0.4,0.7,0.9v0.1
		c0,0.7-0.6,1.2-1.4,1.2h-0.7C70.1,470.4,70.1,466.2,70.1,466.2z M70.8,468c0.3,0,0.5-0.2,0.5-0.6v0c0-0.4-0.2-0.5-0.5-0.5h0
		L70.8,468L70.8,468z M70.9,469.7c0.3,0,0.6-0.2,0.6-0.5v0c0-0.3-0.2-0.5-0.6-0.5h0L70.9,469.7L70.9,469.7L70.9,469.7z"/>
	<path class="st2" d="M61.1,506.4h0.7l0.5,1.5l0.5-1.5h0.7v4.2h-0.7v-2.5l-0.5,1.6h0l-0.5-1.6v2.5h-0.7V506.4z M64.6,506.4h0.8
		l0.8,4.2h-0.7l-0.1-0.8h-0.7l-0.1,0.8h-0.7L64.6,506.4z M65.2,509.1l-0.2-1.4l-0.2,1.4H65.2z M66.3,508.6v-0.1
		c0-1.4,0.6-2.1,1.4-2.1c0.2,0,0.4,0,0.6,0.1v0.8c-0.2-0.1-0.3-0.2-0.5-0.2c-0.4,0-0.7,0.4-0.7,1.3v0.2c0,1.1,0.3,1.4,0.6,1.4
		c0,0,0,0,0.1,0v-1.1h-0.4v-0.7h1v2.2c-0.3,0.1-0.5,0.2-0.8,0.2C66.9,510.6,66.3,510,66.3,508.6z M68.8,506.4h0.7l0.7,2.1v-2.1h0.7
		v4.2h-0.6l-0.8-2.2v2.2h-0.7L68.8,506.4L68.8,506.4z M71.3,509.4v-3h0.7v3c0,0.4,0.1,0.5,0.3,0.5c0.2,0,0.3-0.1,0.3-0.5v-3h0.7v3
		c0,0.9-0.4,1.3-1,1.3S71.3,510.3,71.3,509.4z M73.8,506.4h0.7l0.5,1.5l0.5-1.5h0.7v4.2h-0.7v-2.5l-0.5,1.6h0l-0.5-1.6v2.5h-0.7
		V506.4z M76.7,507.9c0.4-0.1,0.5-0.4,0.5-0.7h-0.4v-0.8h0.8v0.7c0,0.6-0.3,1-0.9,1.1L76.7,507.9z M78,510.5v-0.8
		c0.3,0.1,0.5,0.2,0.7,0.2c0.2,0,0.4-0.1,0.4-0.4v0c0-0.2-0.1-0.3-0.4-0.7c-0.5-0.6-0.7-0.8-0.7-1.3v0c0-0.7,0.4-1.1,1-1.1
		c0.3,0,0.5,0,0.6,0.1v0.8c-0.2-0.1-0.4-0.2-0.6-0.2c-0.2,0-0.4,0.1-0.4,0.4v0c0,0.2,0.1,0.3,0.4,0.7c0.6,0.7,0.7,0.9,0.7,1.4v0
		c0,0.7-0.5,1.1-1,1.1C78.5,510.6,78.2,510.6,78,510.5z M80.9,508.6v-0.1c0-1.5,0.5-2.1,1.2-2.1c0.2,0,0.3,0,0.5,0.1v0.8
		c-0.1-0.1-0.3-0.1-0.4-0.1c-0.3,0-0.6,0.3-0.6,1.3v0.2c0,1.1,0.2,1.3,0.6,1.3c0.1,0,0.3,0,0.4-0.1v0.7c-0.2,0.1-0.3,0.1-0.5,0.1
		C81.4,510.6,80.9,510,80.9,508.6z M83,506.4h0.7v1.7h0.6v-1.7h0.7v4.2h-0.7v-1.8h-0.6v1.8H83V506.4z M86.1,506.4h0.8l0.8,4.2H87
		l-0.1-0.8h-0.7l-0.1,0.8h-0.7L86.1,506.4z M86.7,509.1l-0.2-1.4l-0.2,1.4H86.7z M87.9,506.4h0.7l0.5,1.5l0.5-1.5h0.7v4.2h-0.7v-2.5
		l-0.5,1.6h0l-0.5-1.6v2.5h-0.7L87.9,506.4L87.9,506.4z M90.9,506.4h0.7c0.8,0,1.4,0.4,1.4,1.4v0c0,0.9-0.5,1.4-1.3,1.5h0v1.3h-0.7
		V506.4z M91.6,508.6c0.3,0,0.5-0.2,0.5-0.8v0c0-0.5-0.2-0.8-0.5-0.8h0L91.6,508.6L91.6,508.6L91.6,508.6z M93.5,506.4h0.8l0.8,4.2
		h-0.7l-0.1-0.8h-0.7l-0.1,0.8h-0.7L93.5,506.4z M94.1,509.1l-0.2-1.4l-0.2,1.4H94.1z M95.2,508.6v-0.1c0-1.4,0.6-2.1,1.4-2.1
		c0.2,0,0.4,0,0.6,0.1v0.8c-0.2-0.1-0.3-0.2-0.5-0.2c-0.4,0-0.7,0.4-0.7,1.3v0.2c0,1.1,0.3,1.4,0.6,1.4c0,0,0,0,0.1,0v-1.1h-0.4
		v-0.7h1v2.2c-0.3,0.1-0.5,0.2-0.8,0.2C95.8,510.6,95.2,510,95.2,508.6z M97.7,506.4h0.7l0.7,2.1v-2.1h0.7v4.2h-0.6l-0.8-2.2v2.2
		h-0.7V506.4z M100.3,506.4h1.6v0.7H101v1h0.8v0.7H101v1.1h0.9v0.7h-1.6V506.4z M71.1,515.5L71.1,515.5c0-0.5,0.2-0.9,0.6-1.3
		c-0.2-0.4-0.4-0.7-0.4-1v0c0-0.5,0.3-0.9,0.9-0.9c0.5,0,0.8,0.4,0.8,0.9v0c0,0.5-0.2,0.8-0.6,1.1l0.4,0.7c0-0.1,0.1-0.3,0.1-0.6
		l0.6,0.1c-0.1,0.5-0.1,0.8-0.3,1.1l0.3,0.6l-0.5,0.3l-0.2-0.4c-0.2,0.2-0.4,0.4-0.8,0.4C71.6,516.7,71.1,516.2,71.1,515.5z
		 M72.6,515.8l-0.5-1c-0.2,0.2-0.2,0.4-0.2,0.7v0c0,0.3,0.2,0.5,0.4,0.5C72.3,516,72.5,516,72.6,515.8z M72.2,513.9
		c0.2-0.2,0.3-0.4,0.3-0.6v0c0-0.2-0.1-0.3-0.2-0.3c-0.1,0-0.2,0.1-0.2,0.3v0.1C72,513.5,72.1,513.7,72.2,513.9z M74.6,512.4h0.8
		l0.3,2.6l0.4-2.6h0.7L77,515l0.3-2.6h0.7l-0.6,4.2h-0.8l-0.3-2.5l-0.3,2.5h-0.8L74.6,512.4z M78.4,512.4h0.7v4.2h-0.7V512.4z
		 M79.5,512.4h0.7l0.7,2.1v-2.1h0.7v4.2H81l-0.8-2.2v2.2h-0.7L79.5,512.4L79.5,512.4z M82.1,512.4h1.6v0.7h-0.9v1h0.8v0.7h-0.8v1.1
		h0.9v0.7h-1.6V512.4z M85,512.4h0.6c0.7,0,1.4,0.3,1.4,1.1v0c0,0.5-0.3,0.8-0.6,0.9c0.4,0.2,0.7,0.4,0.7,0.9v0.1
		c0,0.7-0.6,1.2-1.4,1.2H85V512.4z M85.8,514.2c0.3,0,0.5-0.2,0.5-0.6v0c0-0.4-0.2-0.5-0.5-0.5h0L85.8,514.2L85.8,514.2z
		 M85.8,515.9c0.3,0,0.6-0.2,0.6-0.5v0c0-0.3-0.2-0.5-0.6-0.5h0L85.8,515.9L85.8,515.9L85.8,515.9z M88,512.4h0.8l0.8,4.2h-0.7
		l-0.1-0.8H88l-0.1,0.8h-0.7L88,512.4z M88.6,515.1l-0.2-1.4l-0.2,1.4H88.6z M89.8,512.4h0.8c0.8,0,1.3,0.4,1.3,1.3v0.1
		c0,0.5-0.2,0.9-0.5,1.1l0.6,1.7h-0.8l-0.5-1.5h-0.1v1.5h-0.7V512.4z M90.5,514.5c0.3,0,0.6-0.2,0.6-0.7v0c0-0.5-0.3-0.7-0.6-0.7h0
		L90.5,514.5L90.5,514.5z"/>
	<path class="st2" d="M97.6,598.9v-1l2-0.7l-2-0.7v-1h5.6v0.9h-3.4l2.1,0.7v0l-2.1,0.7h3.4v0.9L97.6,598.9L97.6,598.9z M97.6,594.2
		v-1l5.6-1.1v1l-1.1,0.2v0.9l1.1,0.2v0.9L97.6,594.2z M101.2,593.4l-1.8,0.3l1.8,0.3V593.4z M97.6,591.8v-1h4.7v-1h0.9v2L97.6,591.8
		L97.6,591.8z M98.6,589.2v0.7h-0.9v-2.4h0.9v0.7h4.7v1L98.6,589.2L98.6,589.2z M97.6,587.1v-1h5.6v1H97.6z M97.6,585.5v-0.9l2.8-1
		h-2.8v-1h5.6v0.9l-3,1h3v1H97.6z M100.5,582.2h-0.2c-1.8,0-2.7-0.8-2.7-1.9c0-0.3,0.1-0.5,0.2-0.7h1c-0.1,0.2-0.2,0.5-0.2,0.7
		c0,0.6,0.6,0.9,1.8,0.9h0.3c1.5,0,1.8-0.4,1.8-0.8c0,0,0,0,0-0.1h-1.4v0.5h-0.9v-1.4h3c0.2,0.4,0.2,0.6,0.2,1
		C103.3,581.4,102.5,582.2,100.5,582.2z M103,579h-1c0.2-0.3,0.3-0.6,0.3-0.9c0-0.3-0.1-0.5-0.5-0.5h0c-0.3,0-0.4,0.1-1,0.5
		c-0.8,0.7-1.1,0.9-1.8,0.9h0c-0.9,0-1.5-0.6-1.5-1.4c0-0.4,0.1-0.6,0.2-0.9h1c-0.2,0.3-0.3,0.5-0.3,0.7c0,0.3,0.2,0.5,0.5,0.5h0
		c0.3,0,0.4-0.1,0.9-0.5c0.9-0.8,1.2-0.9,1.9-0.9h0c0.9,0,1.5,0.6,1.5,1.4C103.3,578.4,103.2,578.7,103,579z M97.6,575v-0.8
		c0-0.9,0.4-1.8,1.4-1.8h0c0.7,0,1.1,0.4,1.3,0.8c0.2-0.5,0.5-0.9,1.2-0.9h0.1c1,0,1.6,0.8,1.6,1.9v0.9L97.6,575L97.6,575z M100,574
		c0-0.4-0.2-0.7-0.7-0.7h0c-0.5,0-0.7,0.3-0.7,0.7v0L100,574L100,574z M102.3,574c0-0.4-0.3-0.8-0.7-0.8h0c-0.5,0-0.7,0.3-0.7,0.8v0
		L102.3,574L102.3,574L102.3,574z M97.6,571.8v-2.1h0.9v1.2h1.4v-1h0.9v1h1.4v-1.2h0.9v2.2H97.6z M97.6,569.2v-2.1h0.9v1.2h1.4v-1
		h0.9v1h1.4V567h0.9v2.2H97.6z M97.6,566.6v-1c0-1,0.5-1.7,1.8-1.7h0.1c0.7,0,1.2,0.3,1.5,0.7l2.3-0.8v1l-2,0.6v0.2h2v1L97.6,566.6
		L97.6,566.6z M100.4,565.5c0-0.4-0.2-0.7-0.9-0.7h-0.1c-0.7,0-0.9,0.3-0.9,0.8v0L100.4,565.5L100.4,565.5z M101.8,562.3
		L101.8,562.3c-0.7,0-1.2-0.3-1.7-0.9c-0.5,0.3-0.9,0.5-1.3,0.5h-0.1c-0.7,0-1.2-0.5-1.2-1.2c0-0.7,0.5-1.1,1.2-1.1h0.1
		c0.6,0,1.1,0.3,1.5,0.8l1-0.5c-0.2,0-0.4-0.1-0.8-0.1l0.1-0.8c0.6,0.1,1.1,0.2,1.4,0.4l0.8-0.5l0.4,0.7l-0.5,0.3
		c0.3,0.3,0.5,0.6,0.5,1C103.3,561.7,102.7,562.3,101.8,562.3z M99.7,560.8c-0.2-0.2-0.5-0.3-0.8-0.3h-0.1c-0.3,0-0.4,0.1-0.4,0.3
		c0,0.2,0.2,0.3,0.4,0.3h0.1C99.1,561.1,99.3,561,99.7,560.8z M102.2,560.3l-1.4,0.7c0.3,0.2,0.6,0.3,0.9,0.3h0.1
		c0.4,0,0.7-0.2,0.7-0.5C102.5,560.6,102.4,560.5,102.2,560.3z M105.6,594.4v-1l3.4-0.4l-3.4-0.5v-0.9l3.4-0.5l-3.4-0.4v-1l5.6,0.8
		v1l-3.3,0.5l3.3,0.5v1L105.6,594.4z M105.6,589.4v-1h2.3v-0.8h-2.3v-1h5.6v1h-2.4v0.8h2.4v1H105.6z M105.6,586v-1h5.6v1H105.6z
		 M111,584.5h-1c0.2-0.3,0.3-0.6,0.3-0.9c0-0.3-0.1-0.5-0.5-0.5h0c-0.3,0-0.4,0.1-1,0.5c-0.8,0.7-1.1,0.9-1.8,0.9h0
		c-0.9,0-1.5-0.6-1.5-1.4c0-0.4,0.1-0.6,0.2-0.9h1c-0.2,0.3-0.3,0.5-0.3,0.7c0,0.3,0.2,0.5,0.5,0.5h0c0.3,0,0.4-0.1,0.9-0.5
		c0.9-0.8,1.2-0.9,1.9-0.9h0c0.9,0,1.5,0.6,1.5,1.4C111.3,583.9,111.2,584.3,111,584.5z M105.6,581.8v-1h2.3l-2.3-0.8v-1.1l2.4,0.9
		l3.2-1v1.1l-2.1,0.6l0.6,0.2h1.5v1L105.6,581.8L105.6,581.8z M105.6,578.6v-2.1h0.9v1.2h1.4v-1h0.9v1h1.4v-1.2h0.9v2.2H105.6z
		 M109,575.2l-3.4,1v-1l2.1-0.5l-2.1-0.5v-1l3.4,1h2.2v1L109,575.2L109,575.2z M105.6,571.6v-0.8c0-0.9,0.4-1.8,1.4-1.8h0
		c0.7,0,1.1,0.4,1.3,0.8c0.2-0.5,0.5-0.9,1.2-0.9h0.1c1,0,1.6,0.8,1.6,1.9v0.9L105.6,571.6L105.6,571.6z M108,570.6
		c0-0.4-0.2-0.7-0.7-0.7h0c-0.5,0-0.7,0.3-0.7,0.7v0L108,570.6L108,570.6z M110.3,570.6c0-0.4-0.3-0.8-0.7-0.8h0
		c-0.5,0-0.7,0.3-0.7,0.8v0L110.3,570.6L110.3,570.6L110.3,570.6z M105.6,567.7v-1l5.6-1.1v1l-1.1,0.2v0.9l1.1,0.2v0.9L105.6,567.7z
		 M109.2,566.9l-1.8,0.3l1.8,0.3V566.9z M105.6,565.3v-1c0-1,0.5-1.7,1.8-1.7h0.1c0.7,0,1.2,0.3,1.5,0.7l2.3-0.8v1l-2,0.6v0.2h2v1
		L105.6,565.3L105.6,565.3z M108.4,564.3c0-0.4-0.2-0.7-0.9-0.7h-0.1c-0.7,0-0.9,0.3-0.9,0.8v0L108.4,564.3L108.4,564.3z"/>
	<path class="st2" d="M98.7,549.3H98c0.1-0.3,0.2-0.5,0.2-0.7c0-0.2-0.1-0.4-0.4-0.4h0c-0.2,0-0.3,0.1-0.7,0.4
		c-0.6,0.5-0.8,0.7-1.3,0.7h0c-0.7,0-1.1-0.4-1.1-1c0-0.3,0-0.5,0.1-0.6h0.8c-0.1,0.2-0.2,0.4-0.2,0.6c0,0.2,0.1,0.4,0.4,0.4h0
		c0.2,0,0.3-0.1,0.7-0.4c0.7-0.6,0.9-0.7,1.4-0.7h0c0.7,0,1.1,0.5,1.1,1C98.9,548.9,98.8,549.1,98.7,549.3z M94.7,547.3v-0.7h1.7
		v-0.6h-1.7v-0.7h4.2v0.7h-1.8v0.6h1.8v0.7H94.7z M94.7,544.2v-0.8l4.2-0.8v0.7l-0.8,0.1v0.7l0.8,0.1v0.7L94.7,544.2z M97.4,543.6
		l-1.4,0.2l1.4,0.2V543.6z M94.7,542.4v-0.7h1.8l-1.8-0.6v-0.8l1.8,0.7l2.4-0.7v0.8l-1.6,0.5l0.5,0.2h1.1v0.7H94.7z M94.7,540v-1.6
		h0.7v0.9h1v-0.8h0.7v0.8h1.1v-0.9h0.7v1.6L94.7,540L94.7,540z M94.7,538v-0.8c0-0.8,0.4-1.3,1.3-1.3h0.1c0.5,0,0.9,0.2,1.1,0.5
		l1.7-0.6v0.8l-1.5,0.5v0.1h1.5v0.7L94.7,538L94.7,538z M96.8,537.2c0-0.3-0.2-0.6-0.7-0.6h0c-0.5,0-0.7,0.3-0.7,0.6v0L96.8,537.2
		L96.8,537.2z M98.7,535.7H98c0.1-0.3,0.2-0.5,0.2-0.7c0-0.2-0.1-0.4-0.4-0.4h0c-0.2,0-0.3,0.1-0.7,0.4c-0.6,0.5-0.8,0.7-1.3,0.7h0
		c-0.7,0-1.1-0.4-1.1-1c0-0.3,0-0.5,0.1-0.6h0.8c-0.1,0.2-0.2,0.4-0.2,0.6c0,0.2,0.1,0.4,0.4,0.4h0c0.2,0,0.3-0.1,0.7-0.4
		c0.7-0.6,0.9-0.7,1.4-0.7h0c0.7,0,1.1,0.5,1.1,1C98.9,535.2,98.8,535.5,98.7,535.7z M94.7,532.7V532l1.5-0.5l-1.5-0.5v-0.7h4.2v0.7
		h-2.5l1.6,0.5v0l-1.6,0.5h2.5v0.7L94.7,532.7L94.7,532.7z M94.7,529.2v-0.8l4.2-0.8v0.7l-0.8,0.1v0.7l0.8,0.1v0.7L94.7,529.2z
		 M97.4,528.6l-1.4,0.2l1.4,0.2V528.6z M94.7,527.4v-0.8c0-0.8,0.4-1.3,1.3-1.3h0.1c0.5,0,0.9,0.2,1.1,0.5l1.7-0.6v0.8l-1.5,0.5v0.1
		h1.5v0.7L94.7,527.4L94.7,527.4z M96.8,526.6c0-0.3-0.2-0.6-0.7-0.6h0c-0.5,0-0.7,0.3-0.7,0.6v0L96.8,526.6L96.8,526.6z
		 M95.4,524.7v0.5h-0.7v-1.8h0.7v0.5h3.5v0.7H95.4z M94.7,523.1v-0.7h4.2v0.7H94.7z M94.7,521.9v-0.7l2.1-0.7h-2.1v-0.7h4.2v0.6
		l-2.2,0.8h2.2v0.7H94.7z M94.7,519.3v-0.7h4.2v0.7H94.7z M103.8,547.6L103.8,547.6c-0.5,0-0.9-0.2-1.3-0.6c-0.4,0.2-0.7,0.4-1,0.4
		h0c-0.5,0-0.9-0.3-0.9-0.9c0-0.5,0.4-0.8,0.9-0.8h0c0.5,0,0.8,0.2,1.1,0.6l0.7-0.4c-0.1,0-0.3-0.1-0.6-0.1l0.1-0.6
		c0.5,0.1,0.8,0.2,1.1,0.3l0.6-0.3l0.3,0.5l-0.4,0.2c0.2,0.2,0.4,0.4,0.4,0.8C104.9,547.1,104.5,547.6,103.8,547.6z M102.2,546.5
		c-0.2-0.2-0.4-0.3-0.6-0.3h0c-0.2,0-0.3,0.1-0.3,0.2c0,0.1,0.1,0.2,0.3,0.2h0.1C101.8,546.7,101.9,546.6,102.2,546.5z M104.1,546.1
		l-1,0.5c0.2,0.2,0.4,0.2,0.7,0.2h0c0.3,0,0.5-0.2,0.5-0.4C104.3,546.3,104.2,546.2,104.1,546.1z M102.9,544h-0.1
		c-1.5,0-2.1-0.5-2.1-1.2c0-0.2,0-0.3,0.1-0.5h0.8c-0.1,0.2-0.1,0.3-0.1,0.4c0,0.3,0.3,0.6,1.3,0.6h0.2c1.1,0,1.3-0.2,1.3-0.6
		c0-0.1,0-0.3-0.1-0.4h0.7c0.1,0.2,0.1,0.3,0.1,0.5C104.9,543.4,104.3,544,102.9,544z M102.9,542.1h-0.2c-1.4,0-2.1-0.5-2.1-1.1
		c0-0.7,0.7-1.1,2.1-1.1h0.2c1.4,0,2.1,0.5,2.1,1.1C104.9,541.6,104.3,542.1,102.9,542.1z M102.9,540.6h-0.2c-1.1,0-1.4,0.2-1.4,0.4
		s0.3,0.4,1.4,0.4h0.2c1.1,0,1.4-0.2,1.4-0.4C104.3,540.8,104,540.6,102.9,540.6z M102.9,539.6h-0.1c-1.5,0-2.1-0.5-2.1-1.2
		c0-0.2,0-0.3,0.1-0.5h0.8c-0.1,0.2-0.1,0.3-0.1,0.4c0,0.3,0.3,0.6,1.3,0.6h0.2c1.1,0,1.3-0.2,1.3-0.6c0-0.1,0-0.3-0.1-0.4h0.7
		c0.1,0.2,0.1,0.3,0.1,0.5C104.9,539.1,104.3,539.6,102.9,539.6z M100.7,537.5v-0.7h1.8l-1.8-0.6v-0.8l1.8,0.7l2.4-0.7v0.8l-1.6,0.5
		l0.5,0.2h1.1v0.7H100.7z M101.4,534.8v0.5h-0.7v-1.8h0.7v0.5h3.5v0.7H101.4z M100.7,532.8v-0.8l4.2-0.8v0.7l-0.8,0.1v0.7l0.8,0.1
		v0.7L100.7,532.8z M103.4,532.2l-1.4,0.2l1.4,0.2V532.2z M100.7,531v-0.7h4.2v0.7H100.7z M100.7,529.8v-0.7h3.5v-0.8h0.7v1.5
		L100.7,529.8L100.7,529.8z M100.7,527.1v-0.6c0-0.7,0.3-1.4,1.1-1.4h0c0.5,0,0.8,0.3,0.9,0.6c0.2-0.4,0.4-0.7,0.9-0.7h0.1
		c0.7,0,1.2,0.6,1.2,1.4v0.7L100.7,527.1L100.7,527.1z M102.5,526.3c0-0.3-0.2-0.5-0.6-0.5h0c-0.4,0-0.5,0.2-0.5,0.5v0L102.5,526.3
		C102.5,526.4,102.5,526.3,102.5,526.3z M104.2,526.3c0-0.3-0.2-0.6-0.5-0.6h0c-0.3,0-0.5,0.2-0.5,0.6v0L104.2,526.3
		C104.2,526.4,104.2,526.3,104.2,526.3z M100.7,524.2v-0.8l4.2-0.8v0.7l-0.8,0.1v0.7l0.8,0.1v0.7L100.7,524.2z M103.4,523.6
		l-1.4,0.2l1.4,0.2V523.6z M100.7,522.4v-0.8c0-0.8,0.4-1.3,1.3-1.3h0.1c0.5,0,0.9,0.2,1.1,0.5l1.7-0.6v0.8l-1.5,0.5v0.1h1.5v0.7
		L100.7,522.4L100.7,522.4z M102.8,521.6c0-0.3-0.2-0.6-0.7-0.6h0c-0.5,0-0.7,0.3-0.7,0.6v0L102.8,521.6L102.8,521.6z"/>
	<path class="st2" d="M60.3,679.3h1v5.6h-1V679.3z M61.9,679.3h0.9l1,2.8v-2.8h1v5.6h-0.9l-1-3v3h-1
		C61.9,684.9,61.9,679.3,61.9,679.3z M65.3,679.3h0.9c1.2,0,2,0.9,2,2.7v0.2c0,1.8-0.7,2.7-2,2.7h-0.9V679.3z M66.3,684
		c0.5,0,0.9-0.4,0.9-1.8V682c0-1.4-0.4-1.8-0.9-1.8h0L66.3,684L66.3,684z M68.7,679.3h1v5.6h-1V679.3z M70.1,682.2V682
		c0-1.8,0.8-2.7,1.9-2.7c0.3,0,0.5,0.1,0.7,0.2v1c-0.2-0.1-0.5-0.2-0.7-0.2c-0.6,0-0.9,0.6-0.9,1.8v0.3c0,1.5,0.4,1.8,0.8,1.8
		c0,0,0,0,0.1,0v-1.4h-0.5v-0.9h1.4v3c-0.4,0.2-0.6,0.2-1,0.2C71,684.9,70.1,684.1,70.1,682.2z M73.4,682.2v-0.3
		c0-1.8,0.6-2.7,1.5-2.7s1.5,0.9,1.5,2.7v0.3c0,1.8-0.6,2.7-1.5,2.7S73.4,684.1,73.4,682.2z M75.4,682.2v-0.3c0-1.4-0.2-1.8-0.5-1.8
		s-0.5,0.4-0.5,1.8v0.3c0,1.4,0.2,1.8,0.5,1.8S75.4,683.7,75.4,682.2z M46.1,687.3h1l0.7,2l0.7-2h1v5.6h-0.9v-3.4l-0.7,2.1h0
		l-0.7-2.1v3.4h-0.9L46.1,687.3L46.1,687.3z M50.7,687.3h1l1.1,5.6h-1l-0.2-1.1h-0.9l-0.2,1.1h-0.9L50.7,687.3z M51.5,690.9
		l-0.3-1.8l-0.3,1.8H51.5z M53.1,687.3h1v5.6h-1V687.3z M54.7,687.3h0.9l1,2.8v-2.8h1v5.6h-0.9l-1-3v3h-1V687.3z M59.4,687.3h0.9
		c1.2,0,2,0.9,2,2.7v0.2c0,1.8-0.7,2.7-2,2.7h-0.9V687.3z M60.4,692c0.5,0,0.9-0.4,0.9-1.8V690c0-1.4-0.4-1.8-0.9-1.8h0L60.4,692
		L60.4,692z M62.8,687.3h1v5.6h-1V687.3z M64.3,687.3h0.9l1,2.8v-2.8h1v5.6h-0.9l-1-3v3h-1V687.3z M67.8,687.3h1v5.6h-1V687.3z
		 M69.3,687.3h0.9l1,2.8v-2.8h1v5.6h-0.9l-1-3v3h-1V687.3z M72.7,690.2V690c0-1.8,0.8-2.7,1.9-2.7c0.3,0,0.5,0.1,0.7,0.2v1
		c-0.2-0.1-0.5-0.2-0.7-0.2c-0.6,0-0.9,0.6-0.9,1.8v0.3c0,1.5,0.4,1.8,0.8,1.8c0,0,0,0,0.1,0v-1.4h-0.5v-0.9h1.4v3
		c-0.4,0.2-0.6,0.2-1,0.2C73.5,692.9,72.7,692.1,72.7,690.2z M77.3,687.3h1c1,0,1.7,0.5,1.7,1.8v0.1c0,0.7-0.3,1.2-0.7,1.5l0.8,2.3
		h-1l-0.6-2h-0.2v2h-1V687.3z M78.3,690c0.4,0,0.7-0.2,0.7-0.9v-0.1c0-0.7-0.3-0.9-0.8-0.9h0L78.3,690L78.3,690z M80.4,690.2v-0.3
		c0-1.8,0.6-2.7,1.5-2.7s1.5,0.9,1.5,2.7v0.3c0,1.8-0.6,2.7-1.5,2.7S80.4,692.1,80.4,690.2z M82.4,690.2v-0.3c0-1.4-0.2-1.8-0.5-1.8
		s-0.5,0.4-0.5,1.8v0.3c0,1.4,0.2,1.8,0.5,1.8S82.4,691.7,82.4,690.2z M83.7,690.2v-0.3c0-1.8,0.6-2.7,1.5-2.7
		c0.9,0,1.5,0.9,1.5,2.7v0.3c0,1.8-0.6,2.7-1.5,2.7C84.3,692.9,83.7,692.1,83.7,690.2z M85.7,690.2v-0.3c0-1.4-0.2-1.8-0.5-1.8
		c-0.3,0-0.5,0.4-0.5,1.8v0.3c0,1.4,0.2,1.8,0.5,1.8C85.5,692.1,85.7,691.7,85.7,690.2z M87.2,687.3h1l0.7,2l0.7-2h1v5.6h-0.9v-3.4
		l-0.7,2.1h0l-0.7-2.1v3.4h-0.9V687.3z"/>
	<path class="st2" d="M46.2,998.7v-1c0.3,0.2,0.6,0.3,0.9,0.3c0.3,0,0.5-0.1,0.5-0.5v0c0-0.3-0.1-0.4-0.5-1
		c-0.7-0.8-0.9-1.1-0.9-1.8v0c0-0.9,0.6-1.5,1.4-1.5c0.4,0,0.6,0.1,0.9,0.2v1c-0.3-0.2-0.5-0.3-0.7-0.3c-0.3,0-0.5,0.2-0.5,0.5v0
		c0,0.3,0.1,0.4,0.5,0.9c0.8,0.9,0.9,1.2,0.9,1.9v0c0,0.9-0.6,1.5-1.4,1.5C46.8,999,46.5,998.9,46.2,998.7z M48.9,997.3v-4h1v4.1
		c0,0.5,0.2,0.7,0.4,0.7s0.4-0.2,0.4-0.7v-4.1h1v4c0,1.2-0.6,1.7-1.4,1.7C49.5,999,48.9,998.5,48.9,997.3z M52.3,993.3h1l0.7,2
		l0.7-2h1v5.6h-0.9v-3.4l-0.7,2.1h0l-0.7-2.1v3.4h-0.9L52.3,993.3L52.3,993.3z M56.2,993.3h1l0.7,2l0.7-2h1v5.6h-0.9v-3.4l-0.7,2.1
		h0l-0.7-2.1v3.4h-0.9V993.3z M60,993.3h2.1v0.9H61v1.4h1v0.9h-1v1.4h1.2v0.9H60C60,998.9,60,993.3,60,993.3z M62.7,993.3h1
		c1,0,1.7,0.5,1.7,1.8v0.1c0,0.7-0.3,1.2-0.7,1.5l0.8,2.3h-1l-0.6-2h-0.2v2h-1L62.7,993.3L62.7,993.3z M63.7,996.1
		c0.4,0,0.7-0.2,0.7-0.9v-0.1c0-0.7-0.3-0.9-0.8-0.9h0L63.7,996.1L63.7,996.1z M67.1,993.3H68c1.1,0,1.8,0.6,1.8,1.9v0
		c0,1.3-0.7,1.9-1.7,1.9h0v1.8h-1V993.3z M68.1,996.3c0.4,0,0.7-0.3,0.7-1v0c0-0.7-0.3-1-0.7-1h0L68.1,996.3L68.1,996.3L68.1,996.3z
		 M70.7,993.3h1l1.1,5.6h-1l-0.2-1.1h-0.9l-0.2,1.1h-0.9L70.7,993.3z M71.5,996.9l-0.3-1.8l-0.3,1.8H71.5z M73.1,993.3h1v4.7h1v0.9
		h-2C73.1,998.9,73.1,993.3,73.1,993.3z M76.3,993.3h1l1.1,5.6h-1l-0.2-1.1h-0.9l-0.2,1.1h-0.9L76.3,993.3z M77.1,996.9l-0.3-1.8
		l-0.3,1.8H77.1z M78.5,996.2V996c0-2,0.7-2.7,1.6-2.7c0.3,0,0.4,0,0.6,0.1v1c-0.2-0.1-0.4-0.2-0.5-0.2c-0.4,0-0.7,0.4-0.7,1.8v0.2
		c0,1.5,0.3,1.8,0.8,1.8c0.2,0,0.3-0.1,0.5-0.2v1c-0.2,0.1-0.4,0.2-0.7,0.2C79.2,999,78.5,998.2,78.5,996.2z M81.3,993.3h2.1v0.9
		h-1.2v1.4h1v0.9h-1v1.4h1.2v0.9h-2.2V993.3z M42.6,1001.3h1l0.7,2l0.7-2h1v5.6H45v-3.4l-0.7,2.1h0l-0.7-2.1v3.4h-0.9
		C42.6,1006.9,42.6,1001.3,42.6,1001.3z M47.3,1001.3h1l1.1,5.6h-1l-0.2-1.1h-0.9l-0.2,1.1h-0.9L47.3,1001.3z M48.1,1004.9l-0.3-1.8
		l-0.3,1.8H48.1z M49.7,1001.3h1v5.6h-1V1001.3z M51.3,1001.3h0.9l1,2.8v-2.8h1v5.6h-0.9l-1-3v3h-1
		C51.3,1006.9,51.3,1001.3,51.3,1001.3z M56,1001.3h0.9c1.2,0,2,0.9,2,2.7v0.2c0,1.8-0.7,2.7-2,2.7H56V1001.3z M57,1006
		c0.5,0,0.9-0.4,0.9-1.8v-0.2c0-1.4-0.4-1.8-0.9-1.8h0L57,1006L57,1006z M59.3,1001.3h1v5.6h-1V1001.3z M60.9,1001.3h0.9l1,2.8v-2.8
		h1v5.6h-0.9l-1-3v3h-1V1001.3z M64.3,1001.3h1v5.6h-1V1001.3z M65.9,1001.3h0.9l1,2.8v-2.8h1v5.6h-0.9l-1-3v3h-1V1001.3z
		 M69.2,1004.2v-0.2c0-1.8,0.8-2.7,1.9-2.7c0.3,0,0.5,0.1,0.7,0.2v1c-0.2-0.1-0.5-0.2-0.7-0.2c-0.6,0-0.9,0.6-0.9,1.8v0.3
		c0,1.5,0.4,1.8,0.8,1.8c0,0,0,0,0.1,0v-1.4h-0.5v-0.9H72v3c-0.4,0.2-0.6,0.2-1,0.2C70.1,1007,69.2,1006.2,69.2,1004.2z
		 M73.9,1001.3h1c1,0,1.7,0.5,1.7,1.8v0.1c0,0.7-0.3,1.2-0.7,1.5l0.8,2.3h-1l-0.6-2h-0.2v2h-1V1001.3z M74.9,1004.1
		c0.4,0,0.7-0.2,0.7-0.9v-0.1c0-0.7-0.3-0.9-0.8-0.9h0L74.9,1004.1L74.9,1004.1z M76.9,1004.3v-0.3c0-1.8,0.6-2.7,1.5-2.7
		s1.5,0.9,1.5,2.7v0.3c0,1.8-0.6,2.7-1.5,2.7S76.9,1006.1,76.9,1004.3z M78.9,1004.3v-0.3c0-1.4-0.2-1.8-0.5-1.8s-0.5,0.4-0.5,1.8
		v0.3c0,1.4,0.2,1.8,0.5,1.8S78.9,1005.7,78.9,1004.3z M80.3,1004.3v-0.3c0-1.8,0.6-2.7,1.5-2.7c0.9,0,1.5,0.9,1.5,2.7v0.3
		c0,1.8-0.6,2.7-1.5,2.7C80.9,1007,80.3,1006.1,80.3,1004.3z M82.3,1004.3v-0.3c0-1.4-0.2-1.8-0.5-1.8c-0.3,0-0.5,0.4-0.5,1.8v0.3
		c0,1.4,0.2,1.8,0.5,1.8C82.1,1006.1,82.3,1005.7,82.3,1004.3z M83.8,1001.3h1l0.7,2l0.7-2h1v5.6h-0.9v-3.4l-0.7,2.1h0l-0.7-2.1v3.4
		h-0.9L83.8,1001.3L83.8,1001.3z"/>
	<path class="st2" d="M12,477.1h1v4.7h1v0.9h-2V477.1z M14.4,477.1h2.1v0.9h-1.2v1.4h1v0.9h-1v1.4h1.2v0.9h-2.2V477.1z M18.3,477.1
		h0.8c0.9,0,1.8,0.4,1.8,1.4v0c0,0.7-0.4,1.1-0.8,1.3c0.5,0.2,0.9,0.5,0.9,1.2v0.1c0,1-0.8,1.6-1.9,1.6h-0.9L18.3,477.1L18.3,477.1z
		 M19.3,479.5c0.4,0,0.7-0.2,0.7-0.7v0c0-0.5-0.3-0.7-0.7-0.7h0L19.3,479.5L19.3,479.5z M19.3,481.8c0.4,0,0.8-0.3,0.8-0.7v0
		c0-0.5-0.3-0.7-0.8-0.7h0L19.3,481.8L19.3,481.8L19.3,481.8z M21.5,477.1h1v5.6h-1V477.1z M22.9,482.5v-1c0.3,0.2,0.6,0.3,0.9,0.3
		c0.3,0,0.5-0.1,0.5-0.5v0c0-0.3-0.1-0.4-0.5-1c-0.7-0.8-0.9-1.1-0.9-1.8v0c0-0.9,0.6-1.5,1.4-1.5c0.4,0,0.6,0.1,0.9,0.2v1
		c-0.3-0.2-0.5-0.3-0.7-0.3c-0.3,0-0.5,0.2-0.5,0.5v0c0,0.3,0.1,0.4,0.5,0.9c0.8,0.9,0.9,1.2,0.9,1.9v0c0,0.9-0.6,1.5-1.4,1.5
		C23.5,482.7,23.2,482.6,22.9,482.5z M26,478h-0.7v-0.9h2.4v0.9H27v4.7h-1L26,478L26,478z M28.1,477.1h1c1,0,1.7,0.5,1.7,1.8v0.1
		c0,0.7-0.3,1.2-0.7,1.5l0.8,2.3h-1l-0.6-2h-0.2v2h-1L28.1,477.1L28.1,477.1z M29.1,479.9c0.4,0,0.7-0.2,0.7-0.9v-0.1
		c0-0.7-0.3-0.9-0.8-0.9h0L29.1,479.9L29.1,479.9z M31.2,480v-0.3c0-1.8,0.6-2.7,1.5-2.7c0.9,0,1.5,0.9,1.5,2.7v0.3
		c0,1.8-0.6,2.7-1.5,2.7C31.8,482.8,31.2,481.9,31.2,480z M33.2,480v-0.3c0-1.4-0.2-1.8-0.5-1.8s-0.5,0.4-0.5,1.8v0.3
		c0,1.4,0.2,1.8,0.5,1.8S33.2,481.5,33.2,480z M14.4,485.1h2v0.9h-1.1v1.4h0.9v0.9h-0.9v2.3h-1C14.4,490.7,14.4,485.1,14.4,485.1z
		 M16.9,485.1h1c1,0,1.7,0.5,1.7,1.8v0.1c0,0.7-0.3,1.2-0.7,1.5l0.8,2.3h-1l-0.6-2h-0.2v2h-1L16.9,485.1L16.9,485.1z M17.9,487.9
		c0.4,0,0.7-0.2,0.7-0.9v-0.1c0-0.7-0.3-0.9-0.8-0.9h0L17.9,487.9L17.9,487.9z M20.1,485.1h2.1v0.9h-1.2v1.4h1v0.9h-1v1.4h1.2v0.9
		h-2.2V485.1z M22.7,485.1h0.9l1,2.8v-2.8h1v5.6h-0.9l-1-3v3h-1V485.1z M26,488v-0.2c0-2,0.7-2.7,1.6-2.7c0.3,0,0.4,0,0.6,0.1v1
		c-0.2-0.1-0.4-0.2-0.5-0.2c-0.4,0-0.7,0.4-0.7,1.8v0.2c0,1.5,0.3,1.8,0.8,1.8c0.2,0,0.3-0.1,0.5-0.2v1c-0.2,0.1-0.4,0.2-0.7,0.2
		C26.7,490.7,26,490,26,488z M28.8,485.1h1v2.3h0.8v-2.3h1v5.6h-1v-2.4h-0.8v2.4h-1V485.1z M7.9,493.1h1c1,0,1.7,0.5,1.7,1.8v0.1
		c0,0.7-0.3,1.2-0.7,1.5l0.8,2.3h-1l-0.6-2H8.9v2h-1V493.1z M8.9,495.9c0.4,0,0.7-0.2,0.7-0.9v-0.1c0-0.7-0.3-0.9-0.8-0.9h0
		L8.9,495.9L8.9,495.9z M11.1,493.1h2.1v0.9h-1.2v1.4h1v0.9h-1v1.4h1.2v0.9h-2.2V493.1z M13.6,498.5v-1c0.3,0.2,0.6,0.3,0.9,0.3
		c0.3,0,0.5-0.1,0.5-0.5v0c0-0.3-0.1-0.4-0.5-1c-0.7-0.8-0.9-1.1-0.9-1.8v0c0-0.9,0.6-1.5,1.4-1.5c0.4,0,0.6,0.1,0.9,0.2v1
		c-0.3-0.2-0.5-0.3-0.7-0.3c-0.3,0-0.5,0.2-0.5,0.5v0c0,0.3,0.1,0.4,0.5,0.9c0.8,0.9,0.9,1.2,0.9,1.9v0c0,0.9-0.6,1.5-1.4,1.5
		C14.2,498.7,13.9,498.6,13.6,498.5z M16.7,494h-0.7v-0.9h2.4v0.9h-0.7v4.7h-1L16.7,494L16.7,494z M19.4,493.1h1l1.1,5.6h-1
		l-0.2-1.1h-0.9l-0.2,1.1h-0.9L19.4,493.1z M20.2,496.7l-0.3-1.8l-0.3,1.8H20.2z M21.7,497.1v-4h1v4.1c0,0.5,0.2,0.7,0.4,0.7
		s0.4-0.2,0.4-0.7v-4.1h1v4c0,1.2-0.6,1.7-1.4,1.7C22.3,498.8,21.7,498.2,21.7,497.1z M25,493.1h1c1,0,1.7,0.5,1.7,1.8v0.1
		c0,0.7-0.3,1.2-0.7,1.5l0.8,2.3h-1l-0.6-2H26v2h-1L25,493.1L25,493.1z M26.1,495.9c0.4,0,0.7-0.2,0.7-0.9v-0.1
		c0-0.7-0.3-0.9-0.8-0.9h0L26.1,495.9L26.1,495.9z M29,493.1h1l1.1,5.6h-1l-0.2-1.1h-0.9l-0.2,1.1h-0.9L29,493.1z M29.8,496.7
		l-0.3-1.8l-0.3,1.8H29.8z M31.4,493.1h0.9l1,2.8v-2.8h1v5.6h-0.9l-1-3v3h-1C31.4,498.7,31.4,493.1,31.4,493.1z M35.4,494h-0.7v-0.9
		H37v0.9h-0.7v4.7h-1L35.4,494L35.4,494z"/>
	<path class="st2" d="M41.6,189.2v-1c0.3,0.2,0.6,0.3,0.9,0.3c0.3,0,0.5-0.1,0.5-0.5v0c0-0.3-0.1-0.4-0.5-1
		c-0.7-0.8-0.9-1.1-0.9-1.8v0c0-0.9,0.6-1.5,1.4-1.5c0.4,0,0.6,0.1,0.9,0.2v1c-0.3-0.2-0.5-0.3-0.7-0.3c-0.3,0-0.5,0.2-0.5,0.5v0
		c0,0.3,0.1,0.4,0.5,0.9c0.8,0.9,0.9,1.2,0.9,1.9v0c0,0.9-0.6,1.5-1.4,1.5C42.2,189.5,41.9,189.4,41.6,189.2z M44.7,184.8H44v-0.9
		h2.4v0.9h-0.7v4.7h-1V184.8z M47.3,183.8h1l1.1,5.6h-1l-0.2-1.1h-0.9l-0.2,1.1h-0.9L47.3,183.8z M48.1,187.4l-0.3-1.8l-0.3,1.8
		H48.1z M49.7,183.8h1c1,0,1.7,0.5,1.7,1.8v0.1c0,0.7-0.3,1.2-0.7,1.5l0.8,2.3h-1l-0.6-2h-0.2v2h-1V183.8z M50.7,186.6
		c0.4,0,0.7-0.2,0.7-0.9v-0.1c0-0.7-0.3-0.9-0.8-0.9h0L50.7,186.6L50.7,186.6z M52.9,183.8h0.9c1.2,0,2,0.9,2,2.7v0.2
		c0,1.8-0.7,2.7-2,2.7h-0.9V183.8z M53.9,188.5c0.5,0,0.9-0.4,0.9-1.8v-0.2c0-1.4-0.4-1.8-0.9-1.8h0L53.9,188.5L53.9,188.5
		L53.9,188.5z M56.2,187.8v-4h1v4.1c0,0.5,0.2,0.7,0.4,0.7s0.4-0.2,0.4-0.7v-4.1h1v4c0,1.2-0.6,1.7-1.4,1.7
		C56.8,189.5,56.2,189,56.2,187.8z M59.5,189.2v-1c0.3,0.2,0.6,0.3,0.9,0.3c0.3,0,0.5-0.1,0.5-0.5v0c0-0.3-0.1-0.4-0.5-1
		c-0.7-0.8-0.9-1.1-0.9-1.8v0c0-0.9,0.6-1.5,1.4-1.5c0.4,0,0.6,0.1,0.9,0.2v1c-0.3-0.2-0.5-0.3-0.7-0.3c-0.3,0-0.5,0.2-0.5,0.5v0
		c0,0.3,0.1,0.4,0.5,0.9c0.8,0.9,0.9,1.2,0.9,1.9v0c0,0.9-0.6,1.5-1.4,1.5C60.1,189.5,59.7,189.4,59.5,189.2z M62.6,184.8h-0.7v-0.9
		h2.4v0.9h-0.7v4.7h-1C62.6,189.4,62.6,184.8,62.6,184.8z M66.4,184.8h-0.7v-0.9h2.4v0.9h-0.7v4.7h-1L66.4,184.8L66.4,184.8z
		 M68.5,183.8h1v2.3h0.8v-2.3h1v5.6h-1v-2.4h-0.8v2.4h-1V183.8z M71.9,183.8H74v0.9h-1.2v1.4h1v0.9h-1v1.4h1.2v0.9h-2.2V183.8z
		 M75.3,183.8h1l1.1,5.6h-1l-0.2-1.1h-0.9l-0.2,1.1h-0.9L75.3,183.8z M76.1,187.4l-0.3-1.8l-0.3,1.8H76.1z M78,184.8h-0.7v-0.9h2.4
		v0.9H79v4.7h-1V184.8z M80.1,183.8h2.1v0.9H81v1.4h1v0.9h-1v1.4h1.2v0.9h-2.2V183.8z M82.7,183.8h1c1,0,1.7,0.5,1.7,1.8v0.1
		c0,0.7-0.3,1.2-0.7,1.5l0.8,2.3h-1l-0.6-2h-0.2v2h-1V183.8z M83.7,186.6c0.4,0,0.7-0.2,0.7-0.9v-0.1c0-0.7-0.3-0.9-0.8-0.9h0
		L83.7,186.6L83.7,186.6z M51,195.1c0-1.6,0.5-3,1.8-3.4v0.7c-0.7,0.4-0.9,1.4-0.9,2.7c0,1.3,0.2,2.4,0.9,2.7v0.7
		C51.5,198.1,51,196.8,51,195.1z M53.4,191.8h0.8c0.9,0,1.8,0.4,1.8,1.4v0c0,0.7-0.4,1.1-0.8,1.3c0.5,0.2,0.9,0.5,0.9,1.2v0.1
		c0,1-0.8,1.6-1.9,1.6h-0.9V191.8z M54.4,194.2c0.4,0,0.7-0.2,0.7-0.7v0c0-0.5-0.3-0.7-0.7-0.7h0L54.4,194.2L54.4,194.2L54.4,194.2z
		 M54.4,196.5c0.4,0,0.8-0.3,0.8-0.7v0c0-0.5-0.3-0.7-0.8-0.7h0L54.4,196.5L54.4,196.5L54.4,196.5z M57.3,191.8h1l1.1,5.6h-1
		l-0.2-1.1h-0.9l-0.2,1.1h-0.9L57.3,191.8z M58.1,195.4l-0.3-1.8l-0.3,1.8H58.1z M59.7,191.8h1v4.7h1v0.9h-2V191.8z M61.8,194.7
		v-0.2c0-2,0.7-2.7,1.6-2.7c0.3,0,0.4,0,0.6,0.1v1c-0.2-0.1-0.4-0.2-0.5-0.2c-0.4,0-0.7,0.4-0.7,1.8v0.2c0,1.5,0.3,1.8,0.8,1.8
		c0.2,0,0.3-0.1,0.5-0.2v1c-0.2,0.1-0.4,0.2-0.7,0.2C62.5,197.5,61.8,196.7,61.8,194.7z M64.3,194.8v-0.3c0-1.8,0.6-2.7,1.5-2.7
		s1.5,0.9,1.5,2.7v0.3c0,1.8-0.6,2.7-1.5,2.7S64.3,196.6,64.3,194.8z M66.3,194.8v-0.3c0-1.4-0.2-1.8-0.5-1.8s-0.5,0.4-0.5,1.8v0.3
		c0,1.4,0.2,1.8,0.5,1.8S66.3,196.2,66.3,194.8z M67.7,191.8h0.9l1,2.8v-2.8h1v5.6h-0.9l-1-3v3h-1V191.8z M71.9,195.2l-1-3.4h1
		l0.5,2.1l0.5-2.1h1l-1,3.4v2.2h-1L71.9,195.2L71.9,195.2z M74.1,197.8c0.7-0.4,0.9-1.4,0.9-2.7c0-1.3-0.2-2.3-0.9-2.7v-0.7
		c1.3,0.4,1.8,1.8,1.8,3.4c0,1.6-0.5,3-1.8,3.4V197.8z"/>
	<path class="st2" d="M6.8,250.7h0.6c0.7,0,1.4,0.3,1.4,1.1v0c0,0.5-0.3,0.8-0.6,0.9c0.4,0.2,0.7,0.4,0.7,0.9v0.1
		c0,0.7-0.6,1.2-1.4,1.2H6.8V250.7z M7.5,252.4c0.3,0,0.5-0.2,0.5-0.6v0c0-0.4-0.2-0.5-0.5-0.5h0L7.5,252.4L7.5,252.4L7.5,252.4z
		 M7.5,254.2c0.3,0,0.6-0.2,0.6-0.5v0c0-0.3-0.2-0.5-0.6-0.5h0L7.5,254.2L7.5,254.2L7.5,254.2z M9.7,250.6h0.8l0.8,4.2h-0.7
		l-0.1-0.8H9.8l-0.1,0.8H8.9L9.7,250.6z M10.3,253.4l-0.2-1.4l-0.2,1.4H10.3z M11.5,250.7h0.8c0.8,0,1.3,0.4,1.3,1.3v0.1
		c0,0.5-0.2,0.9-0.5,1.1l0.6,1.7h-0.8l-0.5-1.5h-0.1v1.5h-0.7L11.5,250.7L11.5,250.7z M12.3,252.7c0.3,0,0.6-0.2,0.6-0.7v0
		c0-0.5-0.3-0.7-0.6-0.7h0L12.3,252.7L12.3,252.7L12.3,252.7z M13.8,252.8v-0.1c0-1.5,0.5-2.1,1.2-2.1c0.2,0,0.3,0,0.5,0.1v0.8
		c-0.1-0.1-0.3-0.1-0.4-0.1c-0.3,0-0.6,0.3-0.6,1.3v0.2c0,1.1,0.2,1.3,0.6,1.3c0.1,0,0.3,0,0.4-0.1v0.7c-0.2,0.1-0.3,0.1-0.5,0.1
		C14.3,254.9,13.8,254.3,13.8,252.8z M15.9,250.7h1.6v0.7h-0.9v1h0.8v0.7h-0.8v1.1h0.9v0.7h-1.6L15.9,250.7L15.9,250.7z M17.9,250.7
		h0.7v3.5h0.8v0.7h-1.5L17.9,250.7L17.9,250.7z M19.5,252.9v-0.2c0-1.4,0.5-2.1,1.1-2.1s1.1,0.7,1.1,2.1v0.2c0,1.4-0.5,2.1-1.1,2.1
		S19.5,254.2,19.5,252.9z M21,252.9v-0.2c0-1.1-0.1-1.4-0.4-1.4s-0.4,0.3-0.4,1.4v0.2c0,1.1,0.1,1.4,0.4,1.4S21,253.9,21,252.9z
		 M22.1,250.7h0.7l0.7,2.1v-2.1h0.7v4.2h-0.6l-0.8-2.2v2.2h-0.7L22.1,250.7L22.1,250.7z M25.2,250.6H26l0.8,4.2h-0.7l-0.1-0.8h-0.7
		l-0.1,0.8h-0.7L25.2,250.6z M25.8,253.4l-0.2-1.4l-0.2,1.4H25.8z M9.4,256.7h0.7l0.5,1.5l0.5-1.5h0.7v4.2h-0.7v-2.5l-0.5,1.6h0
		l-0.5-1.6v2.5H9.4V256.7z M12.3,256.7h1.6v0.7h-0.9v1h0.8v0.7h-0.8v1.1h0.9v0.7h-1.6V256.7z M14.3,256.7h1.6v0.7H15v1h0.8v0.7H15
		v1.1h0.9v0.7h-1.6L14.3,256.7L14.3,256.7z M16.7,257.3h-0.5v-0.7h1.8v0.7h-0.5v3.5h-0.7V257.3z M18.2,256.7H19v4.2h-0.7V256.7z
		 M19.4,256.7h0.7l0.7,2.1v-2.1h0.7v4.2h-0.6l-0.8-2.2v2.2h-0.7C19.4,260.8,19.4,256.7,19.4,256.7z M21.9,258.8v-0.1
		c0-1.4,0.6-2.1,1.4-2.1c0.2,0,0.4,0,0.6,0.1v0.8c-0.2-0.1-0.3-0.2-0.5-0.2c-0.4,0-0.7,0.4-0.7,1.3v0.2c0,1.1,0.3,1.4,0.6,1.4
		c0,0,0,0,0.1,0v-1.1H23v-0.7h1v2.2c-0.3,0.1-0.5,0.2-0.8,0.2C22.5,260.9,21.9,260.3,21.9,258.8z M11.7,262.7h0.8
		c0.8,0,1.3,0.4,1.3,1.3v0.1c0,0.5-0.2,0.9-0.5,1.1l0.6,1.7h-0.8l-0.5-1.5h-0.1v1.5h-0.7L11.7,262.7L11.7,262.7z M12.5,264.7
		c0.3,0,0.6-0.2,0.6-0.7v0c0-0.5-0.3-0.7-0.6-0.7h0L12.5,264.7L12.5,264.7L12.5,264.7z M14.1,264.9v-0.2c0-1.4,0.4-2.1,1.1-2.1
		c0.7,0,1.1,0.7,1.1,2.1v0.2c0,1.4-0.4,2.1-1.1,2.1C14.5,266.9,14.1,266.2,14.1,264.9z M15.5,264.9v-0.2c0-1.1-0.1-1.4-0.4-1.4
		s-0.4,0.3-0.4,1.4v0.2c0,1.1,0.1,1.4,0.4,1.4S15.5,265.9,15.5,264.9z M16.6,264.9v-0.2c0-1.4,0.5-2.1,1.1-2.1
		c0.7,0,1.1,0.7,1.1,2.1v0.2c0,1.4-0.5,2.1-1.1,2.1C17,266.9,16.6,266.2,16.6,264.9z M18.1,264.9v-0.2c0-1.1-0.1-1.4-0.4-1.4
		s-0.4,0.3-0.4,1.4v0.2c0,1.1,0.1,1.4,0.4,1.4S18.1,265.9,18.1,264.9z M19.2,262.7h0.7l0.5,1.5l0.5-1.5h0.7v4.2h-0.7v-2.5l-0.5,1.6
		h0l-0.5-1.6v2.5h-0.7C19.2,266.8,19.2,262.7,19.2,262.7z"/>
	<path class="st2" d="M6.5,193.2h0.7l0.4,2.7l0.4-2.7h0.7L8,197.5H7.2L6.5,193.2z M9,193.2h0.7v4.2H9V193.2z M10.1,193.2h1.6v0.7
		h-0.9v1h0.8v0.7h-0.8v1.1h0.9v0.7h-1.6L10.1,193.2L10.1,193.2z M12.1,193.2h0.7l0.7,2.1v-2.1h0.7v4.2h-0.6l-0.8-2.2v2.2h-0.7
		L12.1,193.2L12.1,193.2z M14.7,193.2h0.7l0.7,2.1v-2.1h0.7v4.2h-0.6l-0.8-2.2v2.2h-0.7L14.7,193.2L14.7,193.2z M17.8,193.2h0.8
		l0.8,4.2h-0.7l-0.1-0.8h-0.7l-0.1,0.8H17L17.8,193.2z M18.4,196l-0.2-1.4L18,196H18.4z M5.7,199.2h0.7l0.5,1.5l0.5-1.5h0.7v4.2H7.4
		v-2.5l-0.5,1.6h0l-0.5-1.6v2.5H5.7V199.2z M8.6,199.2h1.6v0.7H9.3v1h0.8v0.7H9.3v1.1h0.9v0.7H8.6V199.2z M10.6,199.2h1.6v0.7h-0.9
		v1h0.8v0.7h-0.8v1.1h0.9v0.7h-1.6L10.6,199.2L10.6,199.2z M12.9,199.9h-0.5v-0.7h1.8v0.7h-0.5v3.5h-0.7L12.9,199.9L12.9,199.9z
		 M14.5,199.2h0.7v4.2h-0.7V199.2z M15.7,199.2h0.7l0.7,2.1v-2.1h0.7v4.2h-0.6l-0.8-2.2v2.2h-0.7L15.7,199.2L15.7,199.2z
		 M18.2,201.4v-0.1c0-1.4,0.6-2.1,1.4-2.1c0.2,0,0.4,0,0.6,0.1v0.8c-0.2-0.1-0.3-0.2-0.5-0.2c-0.4,0-0.7,0.4-0.7,1.3v0.2
		c0,1.1,0.3,1.4,0.6,1.4c0,0,0,0,0.1,0v-1.1h-0.4v-0.7h1v2.2c-0.3,0.1-0.5,0.2-0.8,0.2C18.8,203.5,18.2,202.9,18.2,201.4z M8,205.2
		h0.8c0.8,0,1.3,0.4,1.3,1.3v0.1c0,0.5-0.2,0.9-0.5,1.1l0.6,1.7H9.3L8.9,208H8.7v1.5H8V205.2z M8.8,207.3c0.3,0,0.6-0.2,0.6-0.7v0
		c0-0.5-0.3-0.7-0.6-0.7h0L8.8,207.3L8.8,207.3z M10.3,207.5v-0.2c0-1.4,0.4-2.1,1.1-2.1c0.7,0,1.1,0.7,1.1,2.1v0.2
		c0,1.4-0.4,2.1-1.1,2.1C10.8,209.5,10.3,208.8,10.3,207.5z M11.8,207.5v-0.2c0-1.1-0.1-1.4-0.4-1.4s-0.4,0.3-0.4,1.4v0.2
		c0,1.1,0.1,1.4,0.4,1.4C11.6,208.8,11.8,208.5,11.8,207.5z M12.8,207.5v-0.2c0-1.4,0.4-2.1,1.1-2.1c0.7,0,1.1,0.7,1.1,2.1v0.2
		c0,1.4-0.4,2.1-1.1,2.1C13.3,209.5,12.8,208.8,12.8,207.5z M14.3,207.5v-0.2c0-1.1-0.1-1.4-0.4-1.4s-0.4,0.3-0.4,1.4v0.2
		c0,1.1,0.1,1.4,0.4,1.4C14.2,208.8,14.3,208.5,14.3,207.5z M15.4,205.2h0.7l0.5,1.5l0.5-1.5h0.7v4.2h-0.7v-2.5l-0.5,1.6h0l-0.5-1.6
		v2.5h-0.7L15.4,205.2L15.4,205.2z"/>
	<path class="st2" d="M9.8,225.9h0.7c0.8,0,1.4,0.4,1.4,1.4v0c0,0.9-0.5,1.4-1.3,1.5h0v1.3H9.8V225.9z M10.6,228.1
		c0.3,0,0.5-0.2,0.5-0.8v0c0-0.5-0.2-0.8-0.5-0.8h0L10.6,228.1L10.6,228.1L10.6,228.1z M12.2,225.9h0.8c0.8,0,1.3,0.4,1.3,1.3v0.1
		c0,0.5-0.2,0.9-0.5,1.1l0.6,1.7h-0.8l-0.5-1.5h-0.1v1.5h-0.7L12.2,225.9L12.2,225.9z M12.9,228c0.3,0,0.6-0.2,0.6-0.7v0
		c0-0.5-0.3-0.7-0.6-0.7h0L12.9,228L12.9,228z M15.1,225.9h0.8l0.8,4.2H16l-0.1-0.8h-0.7l-0.1,0.8h-0.7L15.1,225.9z M15.7,228.6
		l-0.2-1.4l-0.2,1.4H15.7z M16.8,228.1v-0.1c0-1.4,0.6-2.1,1.4-2.1c0.2,0,0.4,0,0.6,0.1v0.8c-0.2-0.1-0.3-0.2-0.5-0.2
		c-0.4,0-0.7,0.4-0.7,1.3v0.2c0,1.1,0.3,1.4,0.6,1.4c0,0,0,0,0.1,0v-1.1h-0.4v-0.7h1v2.2c-0.3,0.1-0.5,0.2-0.8,0.2
		C17.4,230.1,16.8,229.5,16.8,228.1z M19.3,228.9v-3H20v3c0,0.4,0.1,0.5,0.3,0.5s0.3-0.1,0.3-0.5v-3h0.7v3c0,0.9-0.4,1.3-1,1.3
		S19.3,229.8,19.3,228.9z M21.8,225.9h1.6v0.7h-0.9v1h0.8v0.7h-0.8v1.1h0.9v0.7h-1.6V225.9z M9.3,231.9H10l0.5,1.5l0.5-1.5h0.7v4.2
		h-0.7v-2.5l-0.5,1.6h0l-0.5-1.6v2.5H9.3V231.9z M12.2,231.9h1.6v0.7H13v1h0.8v0.7H13v1.1h0.9v0.7h-1.6V231.9z M14.2,231.9h1.6v0.7
		h-0.9v1h0.8v0.7h-0.8v1.1h0.9v0.7h-1.6L14.2,231.9L14.2,231.9z M16.6,232.6h-0.5v-0.7h1.8v0.7h-0.5v3.5h-0.7L16.6,232.6L16.6,232.6
		z M18.1,231.9h0.7v4.2h-0.7V231.9z M19.3,231.9H20l0.7,2.1v-2.1h0.7v4.2h-0.6l-0.8-2.2v2.2h-0.7L19.3,231.9L19.3,231.9z
		 M21.8,234.1v-0.1c0-1.4,0.6-2.1,1.4-2.1c0.2,0,0.4,0,0.6,0.1v0.8c-0.2-0.1-0.3-0.2-0.5-0.2c-0.4,0-0.7,0.4-0.7,1.3v0.2
		c0,1.1,0.3,1.4,0.6,1.4c0,0,0,0,0.1,0v-1.1h-0.4v-0.7h1v2.2c-0.3,0.1-0.5,0.2-0.8,0.2C22.4,236.1,21.8,235.5,21.8,234.1z
		 M11.6,237.9h0.8c0.8,0,1.3,0.4,1.3,1.3v0.1c0,0.5-0.2,0.9-0.5,1.1l0.6,1.7H13l-0.5-1.5h-0.1v1.5h-0.7L11.6,237.9L11.6,237.9z
		 M12.4,240c0.3,0,0.6-0.2,0.6-0.7v0c0-0.5-0.3-0.7-0.6-0.7h0L12.4,240L12.4,240z M14,240.1v-0.2c0-1.4,0.4-2.1,1.1-2.1
		c0.7,0,1.1,0.7,1.1,2.1v0.2c0,1.4-0.4,2.1-1.1,2.1C14.4,242.2,14,241.5,14,240.1z M15.4,240.1v-0.2c0-1.1-0.1-1.4-0.4-1.4
		s-0.4,0.3-0.4,1.4v0.2c0,1.1,0.1,1.4,0.4,1.4S15.4,241.2,15.4,240.1z M16.5,240.1v-0.2c0-1.4,0.5-2.1,1.1-2.1
		c0.7,0,1.1,0.7,1.1,2.1v0.2c0,1.4-0.5,2.1-1.1,2.1C16.9,242.2,16.5,241.5,16.5,240.1z M18,240.1v-0.2c0-1.1-0.1-1.4-0.4-1.4
		s-0.4,0.3-0.4,1.4v0.2c0,1.1,0.1,1.4,0.4,1.4S18,241.2,18,240.1z M19.1,237.9h0.7l0.5,1.5l0.5-1.5h0.7v4.2h-0.7v-2.5l-0.5,1.6h0
		l-0.5-1.6v2.5h-0.7V237.9z"/>
	<path class="st2" d="M54,149.2v-0.3c0-1.8,0.6-2.7,1.5-2.7c0.9,0,1.5,0.9,1.5,2.7v0.3c0,1.8-0.6,2.7-1.5,2.7
		C54.6,152,54,151.1,54,149.2z M56,149.2v-0.3c0-1.4-0.2-1.8-0.5-1.8c-0.3,0-0.5,0.4-0.5,1.8v0.3c0,1.4,0.2,1.8,0.5,1.8
		S56,150.7,56,149.2z M57.4,146.3h0.9c1.1,0,1.8,0.6,1.8,1.9v0c0,1.3-0.7,1.9-1.7,1.9h0v1.8h-1V146.3z M58.4,149.2
		c0.4,0,0.7-0.3,0.7-1v0c0-0.7-0.3-1-0.7-1h0L58.4,149.2L58.4,149.2L58.4,149.2z M60.5,146.3h2.1v0.9h-1.2v1.4h1v0.9h-1v1.4h1.2v0.9
		h-2.2V146.3z M63.2,146.3h0.9l1,2.8v-2.8h1v5.6h-0.9l-1-3v3h-1L63.2,146.3L63.2,146.3z M68.4,147.2h-0.7v-0.9H70v0.9h-0.7v4.7h-1
		C68.4,151.9,68.4,147.2,68.4,147.2z M70.2,149.2v-0.3c0-1.8,0.6-2.7,1.5-2.7c0.9,0,1.5,0.9,1.5,2.7v0.3c0,1.8-0.6,2.7-1.5,2.7
		C70.8,152,70.2,151.1,70.2,149.2z M72.2,149.2v-0.3c0-1.4-0.2-1.8-0.5-1.8c-0.3,0-0.5,0.4-0.5,1.8v0.3c0,1.4,0.2,1.8,0.5,1.8
		C72,151.1,72.2,150.7,72.2,149.2z M57.9,154.3h0.9c1.2,0,2,0.9,2,2.7v0.2c0,1.8-0.7,2.7-2,2.7h-0.9V154.3z M59,159
		c0.5,0,0.9-0.4,0.9-1.8V157c0-1.4-0.4-1.8-0.9-1.8h0L59,159L59,159L59,159z M61.3,154.3h2.1v0.9h-1.2v1.4h1v0.9h-1v1.4h1.2v0.9
		h-2.2L61.3,154.3L61.3,154.3z M63.8,157.2V157c0-2,0.7-2.7,1.6-2.7c0.3,0,0.4,0,0.6,0.1v1c-0.2-0.1-0.4-0.2-0.5-0.2
		c-0.4,0-0.7,0.4-0.7,1.8v0.2c0,1.5,0.3,1.8,0.8,1.8c0.2,0,0.3-0.1,0.5-0.2v1c-0.2,0.1-0.4,0.2-0.7,0.2
		C64.4,159.9,63.8,159.1,63.8,157.2z M66.5,154.3h1v2.3l0.8-2.3h1.1l-0.9,2.4l1,3.2h-1.1l-0.6-2.1l-0.2,0.6v1.5h-1L66.5,154.3
		L66.5,154.3z M55.9,162.3h0.8c0.9,0,1.8,0.4,1.8,1.4v0c0,0.7-0.4,1.1-0.8,1.3c0.5,0.2,0.9,0.5,0.9,1.2v0.1c0,1-0.8,1.6-1.9,1.6
		h-0.9L55.9,162.3L55.9,162.3z M56.8,164.6c0.4,0,0.7-0.2,0.7-0.7v0c0-0.5-0.3-0.7-0.7-0.7h0L56.8,164.6L56.8,164.6z M56.8,167
		c0.4,0,0.8-0.3,0.8-0.7v0c0-0.5-0.3-0.7-0.8-0.7h0L56.8,167L56.8,167L56.8,167z M59,162.3h2.1v0.9H60v1.4h1v0.9h-1v1.4h1.2v0.9H59
		V162.3z M61.6,162.3h1v4.7h1v0.9h-2V162.3z M63.7,165.2v-0.3c0-1.8,0.6-2.7,1.5-2.7s1.5,0.9,1.5,2.7v0.3c0,1.8-0.6,2.7-1.5,2.7
		S63.7,167.1,63.7,165.2z M65.7,165.2v-0.3c0-1.4-0.2-1.8-0.5-1.8s-0.5,0.4-0.5,1.8v0.3c0,1.4,0.2,1.8,0.5,1.8
		S65.7,166.7,65.7,165.2z M66.9,162.3h1l0.4,3.4l0.5-3.4h0.9l0.5,3.4l0.4-3.4h1l-0.8,5.6h-1l-0.5-3.3l-0.5,3.3h-1L66.9,162.3z"/>
	<path class="st2" d="M50.8,361.8h0.9c1.1,0,1.8,0.6,1.8,1.9v0c0,1.3-0.7,1.9-1.7,1.9h0v1.8h-1V361.8z M51.8,364.8
		c0.4,0,0.7-0.3,0.7-1v0c0-0.7-0.3-1-0.7-1h0L51.8,364.8L51.8,364.8L51.8,364.8z M53.9,361.8h2.1v0.9h-1.2v1.4h1v0.9h-1v1.4h1.2v0.9
		h-2.2C53.9,367.4,53.9,361.8,53.9,361.8z M57.4,361.8h1l1.1,5.6h-1l-0.2-1.1h-0.9l-0.2,1.1h-0.9L57.4,361.8z M58.2,365.4l-0.3-1.8
		l-0.3,1.8H58.2z M59.8,361.8h1c1,0,1.7,0.5,1.7,1.8v0.1c0,0.7-0.3,1.2-0.7,1.5l0.8,2.3h-1l-0.6-2h-0.2v2h-1L59.8,361.8L59.8,361.8z
		 M60.8,364.6c0.4,0,0.7-0.2,0.7-0.9v-0.1c0-0.7-0.3-0.9-0.8-0.9h0L60.8,364.6L60.8,364.6z M62.9,361.8h1v4.7h1v0.9h-2V361.8z
		 M66.5,364.7v-0.2c0-2,0.7-2.7,1.6-2.7c0.3,0,0.4,0,0.6,0.1v1c-0.2-0.1-0.4-0.2-0.5-0.2c-0.4,0-0.7,0.4-0.7,1.8v0.2
		c0,1.5,0.3,1.8,0.8,1.8c0.2,0,0.3-0.1,0.5-0.2v1c-0.2,0.1-0.4,0.2-0.7,0.2C67.2,367.5,66.5,366.7,66.5,364.7z M69.3,361.8h1v4.7h1
		v0.9h-2C69.3,367.4,69.3,361.8,69.3,361.8z M71.6,365.8v-4h1v4.1c0,0.5,0.2,0.7,0.4,0.7s0.4-0.2,0.4-0.7v-4.1h1v4
		c0,1.2-0.6,1.7-1.4,1.7C72.2,367.5,71.6,367,71.6,365.8z M74.9,361.8h0.8c0.9,0,1.8,0.4,1.8,1.4v0c0,0.7-0.4,1.1-0.8,1.3
		c0.5,0.2,0.9,0.5,0.9,1.2v0.1c0,1-0.8,1.6-1.9,1.6h-0.9V361.8z M75.9,364.2c0.4,0,0.7-0.2,0.7-0.7v0c0-0.5-0.3-0.7-0.7-0.7h0
		L75.9,364.2L75.9,364.2z M75.9,366.5c0.4,0,0.8-0.3,0.8-0.7v0c0-0.5-0.3-0.7-0.8-0.7h0L75.9,366.5L75.9,366.5L75.9,366.5z
		 M56,372.7v-0.2c0-2,0.7-2.7,1.6-2.7c0.3,0,0.4,0,0.6,0.1v1c-0.2-0.1-0.4-0.2-0.5-0.2c-0.4,0-0.7,0.4-0.7,1.8v0.2
		c0,1.5,0.3,1.8,0.8,1.8c0.2,0,0.3-0.1,0.5-0.2v1c-0.2,0.1-0.4,0.2-0.7,0.2C56.6,375.5,56,374.7,56,372.7z M59.5,369.8h1l1.1,5.6h-1
		l-0.2-1.1h-0.9l-0.2,1.1h-0.9L59.5,369.8z M60.3,373.4l-0.3-1.8l-0.3,1.8H60.3z M61.8,375.2v-1c0.3,0.2,0.6,0.3,0.9,0.3
		c0.3,0,0.5-0.1,0.5-0.5v0c0-0.3-0.1-0.4-0.5-1c-0.7-0.8-0.9-1.1-0.9-1.8v0c0-0.9,0.6-1.5,1.4-1.5c0.4,0,0.6,0.1,0.9,0.2v1
		c-0.3-0.2-0.5-0.3-0.7-0.3c-0.3,0-0.5,0.2-0.5,0.5v0c0,0.3,0.1,0.4,0.5,0.9c0.8,0.9,0.9,1.2,0.9,1.9v0c0,0.9-0.6,1.5-1.4,1.5
		C62.4,375.5,62.1,375.4,61.8,375.2z M64.5,369.8h1v5.6h-1V369.8z M66.1,369.8H67l1,2.8v-2.8h1v5.6h-0.9l-1-3v3h-1L66.1,369.8
		L66.1,369.8z M69.4,372.8v-0.3c0-1.8,0.6-2.7,1.5-2.7s1.5,0.9,1.5,2.7v0.3c0,1.8-0.6,2.7-1.5,2.7S69.4,374.6,69.4,372.8z
		 M71.4,372.8v-0.3c0-1.4-0.2-1.8-0.5-1.8s-0.5,0.4-0.5,1.8v0.3c0,1.4,0.2,1.8,0.5,1.8S71.4,374.2,71.4,372.8z"/>
	<path class="st1" d="M99.7,122.7h-8.9c0,0-2.6-0.1-3.6,1.3c-0.9,1.3-10.8,9-21,9.3l-4.3,0c-10.3-0.2-20.2-8-21.1-9.3
		c-1-1.4-3.6-1.3-3.6-1.3H29V112h6.7V96.3h57.1v16h6.9L99.7,122.7z"/>
</g>
<g id="PEARL_DECK_06_TOP">
	<g id="gDeck06Locations">
		<path width="126.6246" height="378.718" id="_x30_6Aft" class="st3" d="M0.6,701.5c0,182.5,0.1,351.2,0.2,360.3c5.2,14.6,37.4,17.8,53.8,18.4l20.6-0.1
			c16.8-0.8,47-4.3,52-18.3c0.1-9.1,0.1-177.8,0.2-360.3H0.6z"/>
		<path width="126.716" height="316.956" id="_x30_6MidShip" class="st3" d="M127.2,384.5H0.5c0,88.6,0,205.4,0,317h126.6C127.2,589.9,127.2,473.1,127.2,384.5z"/>
		<path width="126.742" height="384.046" id="_x30_6Forward" class="st3" d="M127.2,236.6c0,0-0.2-32.5-0.6-36.4c-0.1-1.4-0.8-21.8-1.7-31
			C121.4,133.9,114.9,59.9,65,1c-0.3-0.2-0.6-0.4-0.9-0.5h-0.5C63.3,0.6,63,0.7,62.7,1C10.4,61.6,5.1,146.5,2.5,171.7
			c-0.9,12.5-1.3,27.1-1.4,28.5c-0.3,3.9-0.6,36.4-0.6,36.4s0,60.1,0,147.9h126.7C127.2,296.8,127.2,236.6,127.2,236.6z"/>
	</g>
	<path class="st4" d="M75.1,1080.1c16.8-0.8,47-4.3,52-18.3c0.2-20.2,0.2-825.2,0.2-825.2s-0.2-32.5-0.6-36.4
		c-0.1-1.4-0.8-21.8-1.7-31C121.4,133.9,114.9,59.9,65,1c-0.3-0.2-0.6-0.4-0.9-0.5h-0.5C63.3,0.6,63,0.7,62.7,1
		C10.4,61.6,5.1,146.5,2.5,171.7c-0.9,12.5-1.3,27.1-1.5,28.5c-0.3,3.9-0.6,36.4-0.6,36.4s0.1,805,0.2,825.2
		c5.2,14.6,37.4,17.8,53.8,18.4L75.1,1080.1z"/>
</g>
</svg>
